solid CATIA STL
  facet normal  0.000000e+000  9.150739e-001  4.032864e-001
    outer loop
      vertex  1.913067e+000  6.249396e+000  9.696824e+000
      vertex  7.493345e+000  6.249396e+000  9.696824e+000
      vertex  2.164523e+000  6.374588e+000  9.412759e+000
    endloop
  endfacet
  facet normal  -0.000000e+000  9.150738e-001  4.032864e-001
    outer loop
      vertex  2.164523e+000  6.374588e+000  9.412759e+000
      vertex  7.493345e+000  6.249396e+000  9.696824e+000
      vertex  7.241889e+000  6.374588e+000  9.412759e+000
    endloop
  endfacet
  facet normal  0.000000e+000  9.150739e-001  4.032863e-001
    outer loop
      vertex  2.164523e+000  6.374588e+000  9.412759e+000
      vertex  7.241889e+000  6.374588e+000  9.412759e+000
      vertex  2.383545e+000  6.509367e+000  9.106937e+000
    endloop
  endfacet
  facet normal  -0.000000e+000  9.150739e-001  4.032863e-001
    outer loop
      vertex  2.383545e+000  6.509367e+000  9.106937e+000
      vertex  7.241889e+000  6.374588e+000  9.412759e+000
      vertex  7.022867e+000  6.509367e+000  9.106937e+000
    endloop
  endfacet
  facet normal  0.000000e+000  9.150735e-001  4.032873e-001
    outer loop
      vertex  2.383545e+000  6.509367e+000  9.106937e+000
      vertex  7.022867e+000  6.509367e+000  9.106937e+000
      vertex  2.593708e+000  6.665238e+000  8.753261e+000
    endloop
  endfacet
  facet normal  -0.000000e+000  9.150735e-001  4.032872e-001
    outer loop
      vertex  2.593708e+000  6.665238e+000  8.753261e+000
      vertex  7.022867e+000  6.509367e+000  9.106937e+000
      vertex  6.812704e+000  6.665238e+000  8.753261e+000
    endloop
  endfacet
  facet normal  0.000000e+000  9.150740e-001  4.032862e-001
    outer loop
      vertex  2.593708e+000  6.665238e+000  8.753261e+000
      vertex  6.812704e+000  6.665238e+000  8.753261e+000
      vertex  2.776767e+000  6.826589e+000  8.387150e+000
    endloop
  endfacet
  facet normal  -0.000000e+000  9.150739e-001  4.032861e-001
    outer loop
      vertex  2.776767e+000  6.826589e+000  8.387150e+000
      vertex  6.812704e+000  6.665238e+000  8.753261e+000
      vertex  6.629645e+000  6.826589e+000  8.387150e+000
    endloop
  endfacet
  facet normal  0.000000e+000  9.150733e-001  4.032876e-001
    outer loop
      vertex  2.776767e+000  6.826589e+000  8.387150e+000
      vertex  6.629645e+000  6.826589e+000  8.387150e+000
      vertex  2.953648e+000  7.010809e+000  7.969148e+000
    endloop
  endfacet
  facet normal  -0.000000e+000  9.150732e-001  4.032876e-001
    outer loop
      vertex  2.953648e+000  7.010809e+000  7.969148e+000
      vertex  6.629645e+000  6.826589e+000  8.387150e+000
      vertex  6.452764e+000  7.010809e+000  7.969148e+000
    endloop
  endfacet
  facet normal  0.000000e+000  9.150738e-001  4.032866e-001
    outer loop
      vertex  2.953648e+000  7.010809e+000  7.969148e+000
      vertex  6.452764e+000  7.010809e+000  7.969148e+000
      vertex  3.106149e+000  7.198548e+000  7.543160e+000
    endloop
  endfacet
  facet normal  -0.000000e+000  9.150738e-001  4.032866e-001
    outer loop
      vertex  3.106149e+000  7.198548e+000  7.543160e+000
      vertex  6.452764e+000  7.010809e+000  7.969148e+000
      vertex  6.300262e+000  7.198548e+000  7.543160e+000
    endloop
  endfacet
  facet normal  0.000000e+000  9.150737e-001  4.032867e-001
    outer loop
      vertex  3.106149e+000  7.198548e+000  7.543160e+000
      vertex  6.300262e+000  7.198548e+000  7.543160e+000
      vertex  3.245109e+000  7.401278e+000  7.083158e+000
    endloop
  endfacet
  facet normal  -0.000000e+000  9.150736e-001  4.032867e-001
    outer loop
      vertex  3.245109e+000  7.401278e+000  7.083158e+000
      vertex  6.300262e+000  7.198548e+000  7.543160e+000
      vertex  6.161303e+000  7.401278e+000  7.083158e+000
    endloop
  endfacet
  facet normal  0.000000e+000  9.150733e-001  4.032876e-001
    outer loop
      vertex  3.245109e+000  7.401278e+000  7.083158e+000
      vertex  6.161303e+000  7.401278e+000  7.083158e+000
      vertex  3.362557e+000  7.606145e+000  6.618308e+000
    endloop
  endfacet
  facet normal  -0.000000e+000  9.150733e-001  4.032876e-001
    outer loop
      vertex  3.362557e+000  7.606145e+000  6.618308e+000
      vertex  6.161303e+000  7.401278e+000  7.083158e+000
      vertex  6.043856e+000  7.606145e+000  6.618308e+000
    endloop
  endfacet
  facet normal  0.000000e+000  9.150740e-001  4.032860e-001
    outer loop
      vertex  3.362557e+000  7.606145e+000  6.618308e+000
      vertex  6.043856e+000  7.606145e+000  6.618308e+000
      vertex  3.468695e+000  7.831831e+000  6.106217e+000
    endloop
  endfacet
  facet normal  -0.000000e+000  9.150739e-001  4.032860e-001
    outer loop
      vertex  3.468695e+000  7.831831e+000  6.106217e+000
      vertex  6.043856e+000  7.606145e+000  6.618308e+000
      vertex  5.937717e+000  7.831831e+000  6.106217e+000
    endloop
  endfacet
  facet normal  0.000000e+000  9.150736e-001  4.032871e-001
    outer loop
      vertex  3.468695e+000  7.831831e+000  6.106217e+000
      vertex  5.937717e+000  7.831831e+000  6.106217e+000
      vertex  3.553596e+000  8.059053e+000  5.590640e+000
    endloop
  endfacet
  facet normal  -0.000000e+000  9.150736e-001  4.032871e-001
    outer loop
      vertex  3.553596e+000  8.059053e+000  5.590640e+000
      vertex  5.937717e+000  7.831831e+000  6.106217e+000
      vertex  5.852816e+000  8.059053e+000  5.590640e+000
    endloop
  endfacet
  facet normal  0.000000e+000  9.150736e-001  4.032870e-001
    outer loop
      vertex  3.553596e+000  8.059053e+000  5.590640e+000
      vertex  5.852816e+000  8.059053e+000  5.590640e+000
      vertex  3.619785e+000  8.292073e+000  5.061909e+000
    endloop
  endfacet
  facet normal  -0.000000e+000  9.150735e-001  4.032870e-001
    outer loop
      vertex  3.619785e+000  8.292073e+000  5.061909e+000
      vertex  5.852816e+000  8.059053e+000  5.590640e+000
      vertex  5.786627e+000  8.292073e+000  5.061909e+000
    endloop
  endfacet
  facet normal  0.000000e+000  9.150739e-001  4.032864e-001
    outer loop
      vertex  3.619785e+000  8.292073e+000  5.061909e+000
      vertex  5.786627e+000  8.292073e+000  5.061909e+000
      vertex  3.666355e+000  8.525843e+000  4.531476e+000
    endloop
  endfacet
  facet normal  -0.000000e+000  9.150738e-001  4.032864e-001
    outer loop
      vertex  3.666355e+000  8.525843e+000  4.531476e+000
      vertex  5.786627e+000  8.292073e+000  5.061909e+000
      vertex  5.740057e+000  8.525843e+000  4.531476e+000
    endloop
  endfacet
  facet normal  0.000000e+000  9.150735e-001  4.032871e-001
    outer loop
      vertex  3.666355e+000  8.525843e+000  4.531476e+000
      vertex  5.740057e+000  8.525843e+000  4.531476e+000
      vertex  3.703206e+000  8.994617e+000  3.467811e+000
    endloop
  endfacet
  facet normal  -0.000000e+000  9.150735e-001  4.032871e-001
    outer loop
      vertex  3.703206e+000  8.994617e+000  3.467811e+000
      vertex  5.740057e+000  8.525843e+000  4.531476e+000
      vertex  5.703206e+000  8.994617e+000  3.467811e+000
    endloop
  endfacet
  facet normal  0.000000e+000  9.150736e-001  4.032869e-001
    outer loop
      vertex  3.703206e+000  8.994617e+000  3.467811e+000
      vertex  5.703206e+000  8.994617e+000  3.467811e+000
      vertex  3.703206e+000  9.421145e+000  2.500000e+000
    endloop
  endfacet
  facet normal  -0.000000e+000  9.150736e-001  4.032869e-001
    outer loop
      vertex  3.703206e+000  9.421145e+000  2.500000e+000
      vertex  5.703206e+000  8.994617e+000  3.467811e+000
      vertex  5.703206e+000  9.421145e+000  2.500000e+000
    endloop
  endfacet
  facet normal  0.000000e+000  0.000000e+000  1.000000e+000
    outer loop
      vertex -8.055807e+001 -5.383492e-003  2.500000e+000
      vertex  1.944193e+001 -5.383492e-003  2.500000e+000
      vertex  1.145321e+001  2.994617e+000  2.500000e+000
    endloop
  endfacet
  facet normal  0.000000e+000  0.000000e+000  1.000000e+000
    outer loop
      vertex -8.055807e+001 -5.383492e-003  2.500000e+000
      vertex  1.145321e+001  2.994617e+000  2.500000e+000
      vertex -2.546794e+000  2.994617e+000  2.500000e+000
    endloop
  endfacet
  facet normal  0.000000e+000  0.000000e+000  1.000000e+000
    outer loop
      vertex -8.055807e+001 -5.383492e-003  2.500000e+000
      vertex -2.546794e+000  2.994617e+000  2.500000e+000
      vertex -5.854679e+001  2.994617e+000  2.500000e+000
    endloop
  endfacet
  facet normal  0.000000e+000  0.000000e+000  1.000000e+000
    outer loop
      vertex -8.055807e+001 -5.383492e-003  2.500000e+000
      vertex -5.854679e+001  2.994617e+000  2.500000e+000
      vertex -7.254679e+001  2.994617e+000  2.500000e+000
    endloop
  endfacet
  facet normal  0.000000e+000  -0.000000e+000  1.000000e+000
    outer loop
      vertex -8.055807e+001 -5.383492e-003  2.500000e+000
      vertex -7.254679e+001  2.994617e+000  2.500000e+000
      vertex -7.254679e+001  5.994617e+000  2.500000e+000
    endloop
  endfacet
  facet normal  0.000000e+000  0.000000e+000  9.999999e-001
    outer loop
      vertex -8.055807e+001 -5.383492e-003  2.500000e+000
      vertex -7.254679e+001  5.994617e+000  2.500000e+000
      vertex -8.055807e+001  1.299462e+001  2.500000e+000
    endloop
  endfacet
  facet normal  0.000000e+000  -0.000000e+000  1.000000e+000
    outer loop
      vertex -8.055807e+001  1.299462e+001  2.500000e+000
      vertex -7.254679e+001  5.994617e+000  2.500000e+000
      vertex -6.629679e+001  9.421145e+000  2.500000e+000
    endloop
  endfacet
  facet normal  0.000000e+000  -0.000000e+000  1.000000e+000
    outer loop
      vertex -8.055807e+001  1.299462e+001  2.500000e+000
      vertex -6.629679e+001  9.421145e+000  2.500000e+000
      vertex -6.429679e+001  9.421145e+000  2.500000e+000
    endloop
  endfacet
  facet normal  0.000000e+000  -0.000000e+000  1.000000e+000
    outer loop
      vertex -8.055807e+001  1.299462e+001  2.500000e+000
      vertex -6.429679e+001  9.421145e+000  2.500000e+000
      vertex  3.703206e+000  9.421145e+000  2.500000e+000
    endloop
  endfacet
  facet normal  0.000000e+000  -0.000000e+000  1.000000e+000
    outer loop
      vertex -8.055807e+001  1.299462e+001  2.500000e+000
      vertex  3.703206e+000  9.421145e+000  2.500000e+000
      vertex  5.703206e+000  9.421145e+000  2.500000e+000
    endloop
  endfacet
  facet normal  0.000000e+000  -0.000000e+000  1.000000e+000
    outer loop
      vertex -8.055807e+001  1.299462e+001  2.500000e+000
      vertex  5.703206e+000  9.421145e+000  2.500000e+000
      vertex  1.944193e+001  1.299462e+001  2.500000e+000
    endloop
  endfacet
  facet normal  0.000000e+000  -0.000000e+000  9.999999e-001
    outer loop
      vertex -7.254679e+001  5.994617e+000  2.500000e+000
      vertex -6.929679e+001  5.994617e+000  2.500000e+000
      vertex -6.882749e+001  6.031551e+000  2.500000e+000
    endloop
  endfacet
  facet normal  0.000000e+000  -0.000000e+000  1.000000e+000
    outer loop
      vertex -7.254679e+001  5.994617e+000  2.500000e+000
      vertex -6.882749e+001  6.031551e+000  2.500000e+000
      vertex -6.836974e+001  6.141447e+000  2.500000e+000
    endloop
  endfacet
  facet normal  0.000000e+000  -0.000000e+000  1.000000e+000
    outer loop
      vertex -7.254679e+001  5.994617e+000  2.500000e+000
      vertex -6.836974e+001  6.141447e+000  2.500000e+000
      vertex -6.793482e+001  6.321597e+000  2.500000e+000
    endloop
  endfacet
  facet normal  0.000000e+000  -0.000000e+000  1.000000e+000
    outer loop
      vertex -7.254679e+001  5.994617e+000  2.500000e+000
      vertex -6.793482e+001  6.321597e+000  2.500000e+000
      vertex -6.753344e+001  6.567565e+000  2.500000e+000
    endloop
  endfacet
  facet normal  0.000000e+000  -0.000000e+000  1.000000e+000
    outer loop
      vertex -7.254679e+001  5.994617e+000  2.500000e+000
      vertex -6.753344e+001  6.567565e+000  2.500000e+000
      vertex -6.717548e+001  6.873296e+000  2.500000e+000
    endloop
  endfacet
  facet normal  0.000000e+000  -0.000000e+000  1.000000e+000
    outer loop
      vertex -7.254679e+001  5.994617e+000  2.500000e+000
      vertex -6.717548e+001  6.873296e+000  2.500000e+000
      vertex -6.686974e+001  7.231261e+000  2.500000e+000
    endloop
  endfacet
  facet normal  0.000000e+000  -0.000000e+000  1.000000e+000
    outer loop
      vertex -7.254679e+001  5.994617e+000  2.500000e+000
      vertex -6.686974e+001  7.231261e+000  2.500000e+000
      vertex -6.662377e+001  7.632645e+000  2.500000e+000
    endloop
  endfacet
  facet normal  0.000000e+000  -0.000000e+000  1.000000e+000
    outer loop
      vertex -7.254679e+001  5.994617e+000  2.500000e+000
      vertex -6.662377e+001  7.632645e+000  2.500000e+000
      vertex -6.644363e+001  8.067566e+000  2.500000e+000
    endloop
  endfacet
  facet normal  0.000000e+000  -0.000000e+000  1.000000e+000
    outer loop
      vertex -7.254679e+001  5.994617e+000  2.500000e+000
      vertex -6.644363e+001  8.067566e+000  2.500000e+000
      vertex -6.633373e+001  8.525313e+000  2.500000e+000
    endloop
  endfacet
  facet normal  0.000000e+000  -0.000000e+000  1.000000e+000
    outer loop
      vertex -7.254679e+001  5.994617e+000  2.500000e+000
      vertex -6.633373e+001  8.525313e+000  2.500000e+000
      vertex -6.629679e+001  8.994617e+000  2.500000e+000
    endloop
  endfacet
  facet normal  0.000000e+000  -0.000000e+000  1.000000e+000
    outer loop
      vertex -7.254679e+001  5.994617e+000  2.500000e+000
      vertex -6.629679e+001  8.994617e+000  2.500000e+000
      vertex -6.629679e+001  9.421145e+000  2.500000e+000
    endloop
  endfacet
  facet normal  0.000000e+000  0.000000e+000  1.000000e+000
    outer loop
      vertex  1.172509e+000  6.031551e+000  2.500000e+000
      vertex  1.630257e+000  6.141447e+000  2.500000e+000
      vertex -6.222385e+001  6.141447e+000  2.500000e+000
    endloop
  endfacet
  facet normal  0.000000e+000  0.000000e+000  1.000000e+000
    outer loop
      vertex  1.172509e+000  6.031551e+000  2.500000e+000
      vertex -6.222385e+001  6.141447e+000  2.500000e+000
      vertex -6.176610e+001  6.031551e+000  2.500000e+000
    endloop
  endfacet
  facet normal  -0.000000e+000  0.000000e+000  1.000000e+000
    outer loop
      vertex  1.172509e+000  6.031551e+000  2.500000e+000
      vertex -6.176610e+001  6.031551e+000  2.500000e+000
      vertex -6.129679e+001  5.994617e+000  2.500000e+000
    endloop
  endfacet
  facet normal  0.000000e+000  0.000000e+000  9.999999e-001
    outer loop
      vertex  1.172509e+000  6.031551e+000  2.500000e+000
      vertex -6.129679e+001  5.994617e+000  2.500000e+000
      vertex -5.854679e+001  5.994617e+000  2.500000e+000
    endloop
  endfacet
  facet normal  0.000000e+000  0.000000e+000  1.000000e+000
    outer loop
      vertex  1.172509e+000  6.031551e+000  2.500000e+000
      vertex -5.854679e+001  5.994617e+000  2.500000e+000
      vertex -2.546794e+000  5.994617e+000  2.500000e+000
    endloop
  endfacet
  facet normal  0.000000e+000  0.000000e+000  9.999999e-001
    outer loop
      vertex  1.172509e+000  6.031551e+000  2.500000e+000
      vertex -2.546794e+000  5.994617e+000  2.500000e+000
      vertex  7.032061e-001  5.994617e+000  2.500000e+000
    endloop
  endfacet
  facet normal  -0.000000e+000  0.000000e+000  1.000000e+000
    outer loop
      vertex  1.145321e+001  5.994617e+000  2.500000e+000
      vertex  1.145321e+001  2.994617e+000  2.500000e+000
      vertex  1.944193e+001 -5.383492e-003  2.500000e+000
    endloop
  endfacet
  facet normal  0.000000e+000  -0.000000e+000  1.000000e+000
    outer loop
      vertex  1.145321e+001  5.994617e+000  2.500000e+000
      vertex  1.944193e+001 -5.383492e-003  2.500000e+000
      vertex  1.944193e+001  1.299462e+001  2.500000e+000
    endloop
  endfacet
  facet normal  0.000000e+000  0.000000e+000  1.000000e+000
    outer loop
      vertex  1.145321e+001  5.994617e+000  2.500000e+000
      vertex  1.944193e+001  1.299462e+001  2.500000e+000
      vertex  5.703206e+000  9.421145e+000  2.500000e+000
    endloop
  endfacet
  facet normal  0.000000e+000  0.000000e+000  1.000000e+000
    outer loop
      vertex  1.145321e+001  5.994617e+000  2.500000e+000
      vertex  5.703206e+000  9.421145e+000  2.500000e+000
      vertex  5.703206e+000  8.994617e+000  2.500000e+000
    endloop
  endfacet
  facet normal  0.000000e+000  0.000000e+000  1.000000e+000
    outer loop
      vertex  1.145321e+001  5.994617e+000  2.500000e+000
      vertex  5.703206e+000  8.994617e+000  2.500000e+000
      vertex  5.740141e+000  8.525313e+000  2.500000e+000
    endloop
  endfacet
  facet normal  0.000000e+000  0.000000e+000  1.000000e+000
    outer loop
      vertex  1.145321e+001  5.994617e+000  2.500000e+000
      vertex  5.740141e+000  8.525313e+000  2.500000e+000
      vertex  5.850037e+000  8.067566e+000  2.500000e+000
    endloop
  endfacet
  facet normal  0.000000e+000  0.000000e+000  1.000000e+000
    outer loop
      vertex  1.145321e+001  5.994617e+000  2.500000e+000
      vertex  5.850037e+000  8.067566e+000  2.500000e+000
      vertex  6.030187e+000  7.632645e+000  2.500000e+000
    endloop
  endfacet
  facet normal  0.000000e+000  0.000000e+000  9.999999e-001
    outer loop
      vertex  1.145321e+001  5.994617e+000  2.500000e+000
      vertex  6.030187e+000  7.632645e+000  2.500000e+000
      vertex  6.276155e+000  7.231261e+000  2.500000e+000
    endloop
  endfacet
  facet normal  0.000000e+000  0.000000e+000  1.000000e+000
    outer loop
      vertex  1.145321e+001  5.994617e+000  2.500000e+000
      vertex  6.276155e+000  7.231261e+000  2.500000e+000
      vertex  6.581886e+000  6.873296e+000  2.500000e+000
    endloop
  endfacet
  facet normal  0.000000e+000  0.000000e+000  1.000000e+000
    outer loop
      vertex  1.145321e+001  5.994617e+000  2.500000e+000
      vertex  6.581886e+000  6.873296e+000  2.500000e+000
      vertex  6.939850e+000  6.567565e+000  2.500000e+000
    endloop
  endfacet
  facet normal  0.000000e+000  0.000000e+000  9.999999e-001
    outer loop
      vertex  1.145321e+001  5.994617e+000  2.500000e+000
      vertex  6.939850e+000  6.567565e+000  2.500000e+000
      vertex  7.341235e+000  6.321597e+000  2.500000e+000
    endloop
  endfacet
  facet normal  0.000000e+000  0.000000e+000  1.000000e+000
    outer loop
      vertex  1.145321e+001  5.994617e+000  2.500000e+000
      vertex  7.341235e+000  6.321597e+000  2.500000e+000
      vertex  7.776155e+000  6.141447e+000  2.500000e+000
    endloop
  endfacet
  facet normal  0.000000e+000  0.000000e+000  1.000000e+000
    outer loop
      vertex  1.145321e+001  5.994617e+000  2.500000e+000
      vertex  7.776155e+000  6.141447e+000  2.500000e+000
      vertex  8.233903e+000  6.031551e+000  2.500000e+000
    endloop
  endfacet
  facet normal  0.000000e+000  0.000000e+000  9.999999e-001
    outer loop
      vertex  1.145321e+001  5.994617e+000  2.500000e+000
      vertex  8.233903e+000  6.031551e+000  2.500000e+000
      vertex  8.703206e+000  5.994617e+000  2.500000e+000
    endloop
  endfacet
  facet normal  -0.000000e+000  0.000000e+000  1.000000e+000
    outer loop
      vertex  3.703206e+000  9.421145e+000  2.500000e+000
      vertex -6.429679e+001  9.421145e+000  2.500000e+000
      vertex  3.703206e+000  8.994617e+000  2.500000e+000
    endloop
  endfacet
  facet normal  0.000000e+000  0.000000e+000  1.000000e+000
    outer loop
      vertex  3.703206e+000  8.994617e+000  2.500000e+000
      vertex -6.429679e+001  9.421145e+000  2.500000e+000
      vertex -6.429679e+001  8.994617e+000  2.500000e+000
    endloop
  endfacet
  facet normal  -0.000000e+000  0.000000e+000  1.000000e+000
    outer loop
      vertex  3.703206e+000  8.994617e+000  2.500000e+000
      vertex -6.429679e+001  8.994617e+000  2.500000e+000
      vertex  3.666271e+000  8.525313e+000  2.500000e+000
    endloop
  endfacet
  facet normal  0.000000e+000  0.000000e+000  1.000000e+000
    outer loop
      vertex  3.666271e+000  8.525313e+000  2.500000e+000
      vertex -6.429679e+001  8.994617e+000  2.500000e+000
      vertex -6.425986e+001  8.525313e+000  2.500000e+000
    endloop
  endfacet
  facet normal  -0.000000e+000  0.000000e+000  1.000000e+000
    outer loop
      vertex  3.666271e+000  8.525313e+000  2.500000e+000
      vertex -6.425986e+001  8.525313e+000  2.500000e+000
      vertex  3.556376e+000  8.067566e+000  2.500000e+000
    endloop
  endfacet
  facet normal  0.000000e+000  0.000000e+000  1.000000e+000
    outer loop
      vertex  3.556376e+000  8.067566e+000  2.500000e+000
      vertex -6.425986e+001  8.525313e+000  2.500000e+000
      vertex -6.414996e+001  8.067566e+000  2.500000e+000
    endloop
  endfacet
  facet normal  -0.000000e+000  0.000000e+000  1.000000e+000
    outer loop
      vertex  3.556376e+000  8.067566e+000  2.500000e+000
      vertex -6.414996e+001  8.067566e+000  2.500000e+000
      vertex  3.376226e+000  7.632645e+000  2.500000e+000
    endloop
  endfacet
  facet normal  0.000000e+000  0.000000e+000  1.000000e+000
    outer loop
      vertex  3.376226e+000  7.632645e+000  2.500000e+000
      vertex -6.414996e+001  8.067566e+000  2.500000e+000
      vertex -6.396981e+001  7.632645e+000  2.500000e+000
    endloop
  endfacet
  facet normal  -0.000000e+000  0.000000e+000  9.999999e-001
    outer loop
      vertex  3.376226e+000  7.632645e+000  2.500000e+000
      vertex -6.396981e+001  7.632645e+000  2.500000e+000
      vertex  3.130257e+000  7.231261e+000  2.500000e+000
    endloop
  endfacet
  facet normal  0.000000e+000  0.000000e+000  9.999999e-001
    outer loop
      vertex  3.130257e+000  7.231261e+000  2.500000e+000
      vertex -6.396981e+001  7.632645e+000  2.500000e+000
      vertex -6.372385e+001  7.231261e+000  2.500000e+000
    endloop
  endfacet
  facet normal  -0.000000e+000  0.000000e+000  1.000000e+000
    outer loop
      vertex  3.130257e+000  7.231261e+000  2.500000e+000
      vertex -6.372385e+001  7.231261e+000  2.500000e+000
      vertex  2.824526e+000  6.873296e+000  2.500000e+000
    endloop
  endfacet
  facet normal  0.000000e+000  0.000000e+000  1.000000e+000
    outer loop
      vertex  2.824526e+000  6.873296e+000  2.500000e+000
      vertex -6.372385e+001  7.231261e+000  2.500000e+000
      vertex -6.341811e+001  6.873296e+000  2.500000e+000
    endloop
  endfacet
  facet normal  -0.000000e+000  0.000000e+000  1.000000e+000
    outer loop
      vertex  2.824526e+000  6.873296e+000  2.500000e+000
      vertex -6.341811e+001  6.873296e+000  2.500000e+000
      vertex  2.466562e+000  6.567565e+000  2.500000e+000
    endloop
  endfacet
  facet normal  0.000000e+000  0.000000e+000  1.000000e+000
    outer loop
      vertex  2.466562e+000  6.567565e+000  2.500000e+000
      vertex -6.341811e+001  6.873296e+000  2.500000e+000
      vertex -6.306015e+001  6.567565e+000  2.500000e+000
    endloop
  endfacet
  facet normal  -0.000000e+000  0.000000e+000  1.000000e+000
    outer loop
      vertex  2.466562e+000  6.567565e+000  2.500000e+000
      vertex -6.306015e+001  6.567565e+000  2.500000e+000
      vertex  2.065178e+000  6.321597e+000  2.500000e+000
    endloop
  endfacet
  facet normal  0.000000e+000  0.000000e+000  1.000000e+000
    outer loop
      vertex  2.065178e+000  6.321597e+000  2.500000e+000
      vertex -6.306015e+001  6.567565e+000  2.500000e+000
      vertex -6.265876e+001  6.321597e+000  2.500000e+000
    endloop
  endfacet
  facet normal  -0.000000e+000  0.000000e+000  1.000000e+000
    outer loop
      vertex  2.065178e+000  6.321597e+000  2.500000e+000
      vertex -6.265876e+001  6.321597e+000  2.500000e+000
      vertex  1.630257e+000  6.141447e+000  2.500000e+000
    endloop
  endfacet
  facet normal  0.000000e+000  0.000000e+000  1.000000e+000
    outer loop
      vertex  1.630257e+000  6.141447e+000  2.500000e+000
      vertex -6.265876e+001  6.321597e+000  2.500000e+000
      vertex -6.222385e+001  6.141447e+000  2.500000e+000
    endloop
  endfacet
  facet normal  0.000000e+000  0.000000e+000  1.000000e+000
    outer loop
      vertex -5.854679e+001  2.994617e+000  2.500000e+000
      vertex -2.546794e+000  2.994617e+000  2.500000e+000
      vertex -5.854679e+001  5.994617e+000  2.500000e+000
    endloop
  endfacet
  facet normal  -0.000000e+000  0.000000e+000  1.000000e+000
    outer loop
      vertex -5.854679e+001  5.994617e+000  2.500000e+000
      vertex -2.546794e+000  2.994617e+000  2.500000e+000
      vertex -2.546794e+000  5.994617e+000  2.500000e+000
    endloop
  endfacet
  facet normal  1.000000e+000  0.000000e+000  0.000000e+000
    outer loop
      vertex  5.703206e+000  8.994617e+000  2.500000e+000
      vertex  5.703206e+000  9.421145e+000  2.500000e+000
      vertex  5.703206e+000  8.994617e+000  3.467811e+000
    endloop
  endfacet
  facet normal -1.000000e+000  0.000000e+000  0.000000e+000
    outer loop
      vertex  3.703206e+000  8.994617e+000  3.467811e+000
      vertex  3.703206e+000  9.421145e+000  2.500000e+000
      vertex  3.703206e+000  8.994617e+000  2.500000e+000
    endloop
  endfacet
  facet normal  0.000000e+000  1.000000e+000  0.000000e+000
    outer loop
      vertex -2.546794e+000  5.994617e+000  1.150000e+001
      vertex  7.032061e-001  5.994617e+000  2.500000e+000
      vertex -2.546794e+000  5.994617e+000  2.500000e+000
    endloop
  endfacet
  facet normal  0.000000e+000  1.000000e+000  0.000000e+000
    outer loop
      vertex  7.032061e-001  5.994617e+000  2.500000e+000
      vertex -2.546794e+000  5.994617e+000  1.150000e+001
      vertex  7.032061e-001  5.994617e+000  1.090668e+001
    endloop
  endfacet
  facet normal  0.000000e+000  1.000000e+000  -0.000000e+000
    outer loop
      vertex  7.032061e-001  5.994617e+000  1.090668e+001
      vertex -2.546794e+000  5.994617e+000  1.150000e+001
      vertex  1.145321e+001  5.994617e+000  1.150000e+001
    endloop
  endfacet
  facet normal  0.000000e+000  1.000000e+000  0.000000e+000
    outer loop
      vertex  7.032061e-001  5.994617e+000  1.090668e+001
      vertex  1.145321e+001  5.994617e+000  1.150000e+001
      vertex  8.703206e+000  5.994617e+000  1.090668e+001
    endloop
  endfacet
  facet normal  -0.000000e+000  1.000000e+000  0.000000e+000
    outer loop
      vertex  8.703206e+000  5.994617e+000  1.090668e+001
      vertex  1.145321e+001  5.994617e+000  1.150000e+001
      vertex  1.145321e+001  5.994617e+000  2.500000e+000
    endloop
  endfacet
  facet normal  0.000000e+000  1.000000e+000  0.000000e+000
    outer loop
      vertex  8.703206e+000  5.994617e+000  1.090668e+001
      vertex  1.145321e+001  5.994617e+000  2.500000e+000
      vertex  8.703206e+000  5.994617e+000  2.500000e+000
    endloop
  endfacet
  facet normal -1.000000e+000  0.000000e+000  0.000000e+000
    outer loop
      vertex -2.546794e+000  5.994617e+000  2.500000e+000
      vertex -2.546794e+000  2.994617e+000  2.500000e+000
      vertex -2.546794e+000  5.994617e+000  1.150000e+001
    endloop
  endfacet
  facet normal -1.000000e+000  0.000000e+000  0.000000e+000
    outer loop
      vertex -2.546794e+000  5.994617e+000  1.150000e+001
      vertex -2.546794e+000  2.994617e+000  2.500000e+000
      vertex -2.546794e+000  2.994617e+000  7.500000e+000
    endloop
  endfacet
  facet normal -1.000000e+000  0.000000e+000  0.000000e+000
    outer loop
      vertex -2.546794e+000  5.994617e+000  1.150000e+001
      vertex -2.546794e+000  2.994617e+000  7.500000e+000
      vertex -2.546794e+000  2.994617e+000  1.150000e+001
    endloop
  endfacet
  facet normal -1.000000e+000  0.000000e+000  -0.000000e+000
    outer loop
      vertex -2.546794e+000  2.994617e+000  1.150000e+001
      vertex -2.546794e+000  2.994617e+000  7.500000e+000
      vertex -2.546794e+000  1.494617e+000  7.500000e+000
    endloop
  endfacet
  facet normal  0.000000e+000  0.000000e+000  1.000000e+000
    outer loop
      vertex -2.546794e+000  2.994617e+000  1.150000e+001
      vertex  1.145321e+001  2.994617e+000  1.150000e+001
      vertex -2.546794e+000  5.994617e+000  1.150000e+001
    endloop
  endfacet
  facet normal  -0.000000e+000  0.000000e+000  1.000000e+000
    outer loop
      vertex -2.546794e+000  5.994617e+000  1.150000e+001
      vertex  1.145321e+001  2.994617e+000  1.150000e+001
      vertex  1.145321e+001  5.994617e+000  1.150000e+001
    endloop
  endfacet
  facet normal  1.000000e+000  0.000000e+000  0.000000e+000
    outer loop
      vertex  1.145321e+001  2.994617e+000  1.150000e+001
      vertex  1.145321e+001  1.494617e+000  7.500000e+000
      vertex  1.145321e+001  5.994617e+000  1.150000e+001
    endloop
  endfacet
  facet normal  1.000000e+000  0.000000e+000  0.000000e+000
    outer loop
      vertex  1.145321e+001  5.994617e+000  1.150000e+001
      vertex  1.145321e+001  1.494617e+000  7.500000e+000
      vertex  1.145321e+001  2.994617e+000  7.500000e+000
    endloop
  endfacet
  facet normal  1.000000e+000  -0.000000e+000  0.000000e+000
    outer loop
      vertex  1.145321e+001  5.994617e+000  1.150000e+001
      vertex  1.145321e+001  2.994617e+000  7.500000e+000
      vertex  1.145321e+001  5.994617e+000  2.500000e+000
    endloop
  endfacet
  facet normal  1.000000e+000  0.000000e+000  0.000000e+000
    outer loop
      vertex  1.145321e+001  5.994617e+000  2.500000e+000
      vertex  1.145321e+001  2.994617e+000  7.500000e+000
      vertex  1.145321e+001  2.994617e+000  2.500000e+000
    endloop
  endfacet
  facet normal -4.460922e-001  8.949869e-001 -4.496945e-004
    outer loop
      vertex  1.913067e+000  6.249396e+000  9.696824e+000
      vertex  2.164523e+000  6.374588e+000  9.412759e+000
      vertex  2.065178e+000  6.321597e+000  2.500000e+000
    endloop
  endfacet
  facet normal -3.826832e-001  9.238789e-001  1.180364e-003
    outer loop
      vertex  1.913067e+000  6.249396e+000  9.696824e+000
      vertex  2.065178e+000  6.321597e+000  2.500000e+000
      vertex  1.630257e+000  6.141447e+000  2.500000e+000
    endloop
  endfacet
  facet normal -3.514992e-001  9.361882e-001 -2.296870e-004
    outer loop
      vertex  1.913067e+000  6.249396e+000  9.696824e+000
      vertex  1.630257e+000  6.141447e+000  2.500000e+000
      vertex  1.597811e+000  6.131108e+000  1.001208e+001
    endloop
  endfacet
  facet normal -9.620133e-001  2.730028e-001 -1.133080e-004
    outer loop
      vertex  3.553596e+000  8.059053e+000  5.590640e+000
      vertex  3.619785e+000  8.292073e+000  5.061909e+000
      vertex  3.556376e+000  8.067566e+000  2.500000e+000
    endloop
  endfacet
  facet normal -9.780387e-001  2.083386e-001  5.950044e-003
    outer loop
      vertex  3.556376e+000  8.067566e+000  2.500000e+000
      vertex  3.619785e+000  8.292073e+000  5.061909e+000
      vertex  3.666355e+000  8.525843e+000  4.531476e+000
    endloop
  endfacet
  facet normal -9.723699e-001  2.334454e-001 -2.065278e-005
    outer loop
      vertex  3.556376e+000  8.067566e+000  2.500000e+000
      vertex  3.666355e+000  8.525843e+000  4.531476e+000
      vertex  3.666271e+000  8.525313e+000  2.500000e+000
    endloop
  endfacet
  facet normal -9.969206e-001  7.841684e-002  2.075324e-005
    outer loop
      vertex  3.666271e+000  8.525313e+000  2.500000e+000
      vertex  3.666355e+000  8.525843e+000  4.531476e+000
      vertex  3.703206e+000  8.994617e+000  3.467811e+000
    endloop
  endfacet
  facet normal -9.969174e-001  7.845937e-002  0.000000e+000
    outer loop
      vertex  3.666271e+000  8.525313e+000  2.500000e+000
      vertex  3.703206e+000  8.994617e+000  3.467811e+000
      vertex  3.703206e+000  8.994617e+000  2.500000e+000
    endloop
  endfacet
  facet normal -9.051564e-001  4.250787e-001 -2.690214e-004
    outer loop
      vertex  3.362557e+000  7.606145e+000  6.618308e+000
      vertex  3.468695e+000  7.831831e+000  6.106217e+000
      vertex  3.376226e+000  7.632645e+000  2.500000e+000
    endloop
  endfacet
  facet normal -9.336129e-001  3.582591e-001  4.151364e-003
    outer loop
      vertex  3.376226e+000  7.632645e+000  2.500000e+000
      vertex  3.468695e+000  7.831831e+000  6.106217e+000
      vertex  3.553596e+000  8.059053e+000  5.590640e+000
    endloop
  endfacet
  facet normal -9.238797e-001  3.826828e-001  2.230793e-004
    outer loop
      vertex  3.376226e+000  7.632645e+000  2.500000e+000
      vertex  3.553596e+000  8.059053e+000  5.590640e+000
      vertex  3.556376e+000  8.067566e+000  2.500000e+000
    endloop
  endfacet
  facet normal -8.251293e-001  5.649439e-001 -2.797834e-004
    outer loop
      vertex  3.106149e+000  7.198548e+000  7.543160e+000
      vertex  3.245109e+000  7.401278e+000  7.083158e+000
      vertex  3.130257e+000  7.231261e+000  2.500000e+000
    endloop
  endfacet
  facet normal -8.645674e-001  5.025077e-001  3.024659e-003
    outer loop
      vertex  3.130257e+000  7.231261e+000  2.500000e+000
      vertex  3.245109e+000  7.401278e+000  7.083158e+000
      vertex  3.362557e+000  7.606145e+000  6.618308e+000
    endloop
  endfacet
  facet normal -8.526402e-001  5.224984e-001  5.321543e-004
    outer loop
      vertex  3.130257e+000  7.231261e+000  2.500000e+000
      vertex  3.362557e+000  7.606145e+000  6.618308e+000
      vertex  3.376226e+000  7.632645e+000  2.500000e+000
    endloop
  endfacet
  facet normal -7.217414e-001  6.921627e-001 -3.635734e-004
    outer loop
      vertex  2.776767e+000  6.826589e+000  8.387150e+000
      vertex  2.953648e+000  7.010809e+000  7.969148e+000
      vertex  2.824526e+000  6.873296e+000  2.500000e+000
    endloop
  endfacet
  facet normal -7.735913e-001  6.336806e-001  2.330993e-003
    outer loop
      vertex  2.824526e+000  6.873296e+000  2.500000e+000
      vertex  2.953648e+000  7.010809e+000  7.969148e+000
      vertex  3.106149e+000  7.198548e+000  7.543160e+000
    endloop
  endfacet
  facet normal -7.604056e-001  6.494483e-001  5.777593e-004
    outer loop
      vertex  2.824526e+000  6.873296e+000  2.500000e+000
      vertex  3.106149e+000  7.198548e+000  7.543160e+000
      vertex  3.130257e+000  7.231261e+000  2.500000e+000
    endloop
  endfacet
  facet normal -5.961620e-001  8.028640e-001 -4.187386e-004
    outer loop
      vertex  2.383545e+000  6.509367e+000  9.106937e+000
      vertex  2.593708e+000  6.665238e+000  8.753261e+000
      vertex  2.466562e+000  6.567565e+000  2.500000e+000
    endloop
  endfacet
  facet normal -6.593485e-001  7.518356e-001  1.663060e-003
    outer loop
      vertex  2.466562e+000  6.567565e+000  2.500000e+000
      vertex  2.593708e+000  6.665238e+000  8.753261e+000
      vertex  2.776767e+000  6.826589e+000  8.387150e+000
    endloop
  endfacet
  facet normal -6.494482e-001  7.604055e-001  7.643270e-004
    outer loop
      vertex  2.466562e+000  6.567565e+000  2.500000e+000
      vertex  2.776767e+000  6.826589e+000  8.387150e+000
      vertex  2.824526e+000  6.873296e+000  2.500000e+000
    endloop
  endfacet
  facet normal -5.231436e-001  8.522441e-001  9.337173e-004
    outer loop
      vertex  2.383545e+000  6.509367e+000  9.106937e+000
      vertex  2.466562e+000  6.567565e+000  2.500000e+000
      vertex  2.164523e+000  6.374588e+000  9.412759e+000
    endloop
  endfacet
  facet normal -5.224981e-001  8.526400e-001  9.729717e-004
    outer loop
      vertex  2.164523e+000  6.374588e+000  9.412759e+000
      vertex  2.466562e+000  6.567565e+000  2.500000e+000
      vertex  2.065178e+000  6.321597e+000  2.500000e+000
    endloop
  endfacet
  facet normal -1.377491e-001  9.904671e-001 -4.932659e-004
    outer loop
      vertex  9.520752e-001  6.004957e+000  1.065781e+001
      vertex  1.276699e+000  6.049942e+000  1.033319e+001
      vertex  1.172509e+000  6.031551e+000  2.500000e+000
    endloop
  endfacet
  facet normal -2.441438e-001  9.697385e-001  9.705551e-004
    outer loop
      vertex  1.172509e+000  6.031551e+000  2.500000e+000
      vertex  1.276699e+000  6.049942e+000  1.033319e+001
      vertex  1.597811e+000  6.131108e+000  1.001208e+001
    endloop
  endfacet
  facet normal -2.334458e-001  9.723697e-001  3.300128e-004
    outer loop
      vertex  1.172509e+000  6.031551e+000  2.500000e+000
      vertex  1.597811e+000  6.131108e+000  1.001208e+001
      vertex  1.630257e+000  6.141447e+000  2.500000e+000
    endloop
  endfacet
  facet normal -4.151489e-002  9.991378e-001  0.000000e+000
    outer loop
      vertex  7.032061e-001  5.994617e+000  1.090668e+001
      vertex  9.520752e-001  6.004957e+000  1.065781e+001
      vertex  7.032061e-001  5.994617e+000  2.500000e+000
    endloop
  endfacet
  facet normal -7.845879e-002  9.969168e-001  1.129857e-003
    outer loop
      vertex  7.032061e-001  5.994617e+000  2.500000e+000
      vertex  9.520752e-001  6.004957e+000  1.065781e+001
      vertex  1.172509e+000  6.031551e+000  2.500000e+000
    endloop
  endfacet
  facet normal  3.762871e-008  9.695088e-001  2.450565e-001
    outer loop
      vertex  1.276699e+000  6.049942e+000  1.033319e+001
      vertex  7.808602e+000  6.131108e+000  1.001208e+001
      vertex  1.597811e+000  6.131108e+000  1.001208e+001
    endloop
  endfacet
  facet normal  5.394219e-008  9.362638e-001  3.512978e-001
    outer loop
      vertex  1.597811e+000  6.131108e+000  1.001208e+001
      vertex  7.808602e+000  6.131108e+000  1.001208e+001
      vertex  7.493345e+000  6.249396e+000  9.696824e+000
    endloop
  endfacet
  facet normal  0.000000e+000  9.362642e-001  3.512970e-001
    outer loop
      vertex  1.597811e+000  6.131108e+000  1.001208e+001
      vertex  7.493345e+000  6.249396e+000  9.696824e+000
      vertex  1.913067e+000  6.249396e+000  9.696824e+000
    endloop
  endfacet
  facet normal  3.410236e-008  9.695089e-001  2.450564e-001
    outer loop
      vertex  7.808602e+000  6.131108e+000  1.001208e+001
      vertex  1.276699e+000  6.049942e+000  1.033319e+001
      vertex  8.129714e+000  6.049942e+000  1.033319e+001
    endloop
  endfacet
  facet normal  1.910207e-008  9.905342e-001  1.372657e-001
    outer loop
      vertex  8.129714e+000  6.049942e+000  1.033319e+001
      vertex  1.276699e+000  6.049942e+000  1.033319e+001
      vertex  9.520752e-001  6.004957e+000  1.065781e+001
    endloop
  endfacet
  facet normal  -0.000000e+000  9.905343e-001  1.372653e-001
    outer loop
      vertex  8.129714e+000  6.049942e+000  1.033319e+001
      vertex  9.520752e-001  6.004957e+000  1.065781e+001
      vertex  8.454337e+000  6.004957e+000  1.065781e+001
    endloop
  endfacet
  facet normal  0.000000e+000  9.991379e-001  4.151477e-002
    outer loop
      vertex  8.454337e+000  6.004957e+000  1.065781e+001
      vertex  9.520752e-001  6.004957e+000  1.065781e+001
      vertex  7.032061e-001  5.994617e+000  1.090668e+001
    endloop
  endfacet
  facet normal  -0.000000e+000  9.991378e-001  4.151477e-002
    outer loop
      vertex  8.454337e+000  6.004957e+000  1.065781e+001
      vertex  7.032061e-001  5.994617e+000  1.090668e+001
      vertex  8.703206e+000  5.994617e+000  1.090668e+001
    endloop
  endfacet
  facet normal  3.514983e-001  9.361886e-001 -2.297217e-004
    outer loop
      vertex  7.493345e+000  6.249396e+000  9.696824e+000
      vertex  7.808602e+000  6.131108e+000  1.001208e+001
      vertex  7.776155e+000  6.141447e+000  2.500000e+000
    endloop
  endfacet
  facet normal  3.826834e-001  9.238788e-001  1.180383e-003
    outer loop
      vertex  7.493345e+000  6.249396e+000  9.696824e+000
      vertex  7.776155e+000  6.141447e+000  2.500000e+000
      vertex  7.341235e+000  6.321597e+000  2.500000e+000
    endloop
  endfacet
  facet normal  4.460928e-001  8.949866e-001 -4.496824e-004
    outer loop
      vertex  7.493345e+000  6.249396e+000  9.696824e+000
      vertex  7.341235e+000  6.321597e+000  2.500000e+000
      vertex  7.241889e+000  6.374588e+000  9.412759e+000
    endloop
  endfacet
  facet normal  1.377492e-001  9.904670e-001 -4.932687e-004
    outer loop
      vertex  8.129714e+000  6.049942e+000  1.033319e+001
      vertex  8.454337e+000  6.004957e+000  1.065781e+001
      vertex  8.233903e+000  6.031551e+000  2.500000e+000
    endloop
  endfacet
  facet normal  3.932365e-002  9.992242e-001  2.194859e-003
    outer loop
      vertex  8.233903e+000  6.031551e+000  2.500000e+000
      vertex  8.454337e+000  6.004957e+000  1.065781e+001
      vertex  8.703206e+000  5.994617e+000  1.090668e+001
    endloop
  endfacet
  facet normal  7.845887e-002  9.969173e-001  0.000000e+000
    outer loop
      vertex  8.233903e+000  6.031551e+000  2.500000e+000
      vertex  8.703206e+000  5.994617e+000  1.090668e+001
      vertex  8.703206e+000  5.994617e+000  2.500000e+000
    endloop
  endfacet
  facet normal  2.441440e-001  9.697385e-001  9.705502e-004
    outer loop
      vertex  8.129714e+000  6.049942e+000  1.033319e+001
      vertex  8.233903e+000  6.031551e+000  2.500000e+000
      vertex  7.808602e+000  6.131108e+000  1.001208e+001
    endloop
  endfacet
  facet normal  2.334456e-001  9.723697e-001  3.299877e-004
    outer loop
      vertex  7.808602e+000  6.131108e+000  1.001208e+001
      vertex  8.233903e+000  6.031551e+000  2.500000e+000
      vertex  7.776155e+000  6.141447e+000  2.500000e+000
    endloop
  endfacet
  facet normal  5.961620e-001  8.028641e-001 -4.187167e-004
    outer loop
      vertex  6.812704e+000  6.665238e+000  8.753261e+000
      vertex  7.022867e+000  6.509367e+000  9.106937e+000
      vertex  6.939850e+000  6.567565e+000  2.500000e+000
    endloop
  endfacet
  facet normal  5.231427e-001  8.522446e-001  9.337516e-004
    outer loop
      vertex  6.939850e+000  6.567565e+000  2.500000e+000
      vertex  7.022867e+000  6.509367e+000  9.106937e+000
      vertex  7.241889e+000  6.374588e+000  9.412759e+000
    endloop
  endfacet
  facet normal  5.224978e-001  8.526400e-001  9.729672e-004
    outer loop
      vertex  6.939850e+000  6.567565e+000  2.500000e+000
      vertex  7.241889e+000  6.374588e+000  9.412759e+000
      vertex  7.341235e+000  6.321597e+000  2.500000e+000
    endloop
  endfacet
  facet normal  7.217419e-001  6.921622e-001 -3.635812e-004
    outer loop
      vertex  6.452764e+000  7.010809e+000  7.969148e+000
      vertex  6.629645e+000  6.826589e+000  8.387150e+000
      vertex  6.581886e+000  6.873296e+000  2.500000e+000
    endloop
  endfacet
  facet normal  6.605505e-001  7.507814e-001  5.979037e-004
    outer loop
      vertex  6.581886e+000  6.873296e+000  2.500000e+000
      vertex  6.629645e+000  6.826589e+000  8.387150e+000
      vertex  6.812704e+000  6.665238e+000  8.753261e+000
    endloop
  endfacet
  facet normal  6.494477e-001  7.604051e-001  1.327923e-003
    outer loop
      vertex  6.581886e+000  6.873296e+000  2.500000e+000
      vertex  6.812704e+000  6.665238e+000  8.753261e+000
      vertex  6.939850e+000  6.567565e+000  2.500000e+000
    endloop
  endfacet
  facet normal  8.251302e-001  5.649426e-001 -2.797568e-004
    outer loop
      vertex  6.161303e+000  7.401278e+000  7.083158e+000
      vertex  6.300262e+000  7.198548e+000  7.543160e+000
      vertex  6.276155e+000  7.231261e+000  2.500000e+000
    endloop
  endfacet
  facet normal  7.757598e-001  6.310283e-001  3.849163e-004
    outer loop
      vertex  6.276155e+000  7.231261e+000  2.500000e+000
      vertex  6.300262e+000  7.198548e+000  7.543160e+000
      vertex  6.452764e+000  7.010809e+000  7.969148e+000
    endloop
  endfacet
  facet normal  7.604047e-001  6.494475e-001  1.623204e-003
    outer loop
      vertex  6.276155e+000  7.231261e+000  2.500000e+000
      vertex  6.452764e+000  7.010809e+000  7.969148e+000
      vertex  6.581886e+000  6.873296e+000  2.500000e+000
    endloop
  endfacet
  facet normal  9.051560e-001  4.250795e-001 -2.690151e-004
    outer loop
      vertex  5.937717e+000  7.831831e+000  6.106217e+000
      vertex  6.043856e+000  7.606145e+000  6.618308e+000
      vertex  6.030187e+000  7.632645e+000  2.500000e+000
    endloop
  endfacet
  facet normal  8.672292e-001  4.979092e-001  3.255069e-004
    outer loop
      vertex  6.030187e+000  7.632645e+000  2.500000e+000
      vertex  6.043856e+000  7.606145e+000  6.618308e+000
      vertex  6.161303e+000  7.401278e+000  7.083158e+000
    endloop
  endfacet
  facet normal  8.526388e-001  5.224971e-001  1.984160e-003
    outer loop
      vertex  6.030187e+000  7.632645e+000  2.500000e+000
      vertex  6.161303e+000  7.401278e+000  7.083158e+000
      vertex  6.276155e+000  7.231261e+000  2.500000e+000
    endloop
  endfacet
  facet normal  9.807330e-001  1.953529e-001 -1.038249e-005
    outer loop
      vertex  5.740057e+000  8.525843e+000  4.531476e+000
      vertex  5.786627e+000  8.292073e+000  5.061909e+000
      vertex  5.740141e+000  8.525313e+000  2.500000e+000
    endloop
  endfacet
  facet normal  9.561616e-001  2.926919e-001  9.297363e-003
    outer loop
      vertex  5.740141e+000  8.525313e+000  2.500000e+000
      vertex  5.786627e+000  8.292073e+000  5.061909e+000
      vertex  5.852816e+000  8.059053e+000  5.590640e+000
    endloop
  endfacet
  facet normal  9.723698e-001  2.334459e-001 -2.314986e-004
    outer loop
      vertex  5.740141e+000  8.525313e+000  2.500000e+000
      vertex  5.852816e+000  8.059053e+000  5.590640e+000
      vertex  5.850037e+000  8.067566e+000  2.500000e+000
    endloop
  endfacet
  facet normal  9.366546e-001  3.502545e-001  1.223450e-004
    outer loop
      vertex  5.850037e+000  8.067566e+000  2.500000e+000
      vertex  5.852816e+000  8.059053e+000  5.590640e+000
      vertex  5.937717e+000  7.831831e+000  6.106217e+000
    endloop
  endfacet
  facet normal  9.238766e-001  3.826821e-001  2.552788e-003
    outer loop
      vertex  5.850037e+000  8.067566e+000  2.500000e+000
      vertex  5.937717e+000  7.831831e+000  6.106217e+000
      vertex  6.030187e+000  7.632645e+000  2.500000e+000
    endloop
  endfacet
  facet normal  9.969244e-001  7.836954e-002  0.000000e+000
    outer loop
      vertex  5.703206e+000  8.994617e+000  3.467811e+000
      vertex  5.740057e+000  8.525843e+000  4.531476e+000
      vertex  5.703206e+000  8.994617e+000  2.500000e+000
    endloop
  endfacet
  facet normal  9.969174e-001  7.845888e-002  2.074216e-005
    outer loop
      vertex  5.703206e+000  8.994617e+000  2.500000e+000
      vertex  5.740057e+000  8.525843e+000  4.531476e+000
      vertex  5.740141e+000  8.525313e+000  2.500000e+000
    endloop
  endfacet
  facet normal  0.000000e+000  9.150739e-001  4.032864e-001
    outer loop
      vertex -6.808694e+001  6.249396e+000  9.696824e+000
      vertex -6.250665e+001  6.249396e+000  9.696824e+000
      vertex -6.783548e+001  6.374588e+000  9.412759e+000
    endloop
  endfacet
  facet normal  -0.000000e+000  9.150738e-001  4.032864e-001
    outer loop
      vertex -6.783548e+001  6.374588e+000  9.412759e+000
      vertex -6.250665e+001  6.249396e+000  9.696824e+000
      vertex -6.275811e+001  6.374588e+000  9.412759e+000
    endloop
  endfacet
  facet normal  0.000000e+000  9.150738e-001  4.032863e-001
    outer loop
      vertex -6.783548e+001  6.374588e+000  9.412759e+000
      vertex -6.275811e+001  6.374588e+000  9.412759e+000
      vertex -6.761646e+001  6.509367e+000  9.106937e+000
    endloop
  endfacet
  facet normal  -0.000000e+000  9.150739e-001  4.032863e-001
    outer loop
      vertex -6.761646e+001  6.509367e+000  9.106937e+000
      vertex -6.275811e+001  6.374588e+000  9.412759e+000
      vertex -6.297713e+001  6.509367e+000  9.106937e+000
    endloop
  endfacet
  facet normal  0.000000e+000  9.150734e-001  4.032872e-001
    outer loop
      vertex -6.761646e+001  6.509367e+000  9.106937e+000
      vertex -6.297713e+001  6.509367e+000  9.106937e+000
      vertex -6.740630e+001  6.665238e+000  8.753261e+000
    endloop
  endfacet
  facet normal  -0.000000e+000  9.150735e-001  4.032872e-001
    outer loop
      vertex -6.740630e+001  6.665238e+000  8.753261e+000
      vertex -6.297713e+001  6.509367e+000  9.106937e+000
      vertex -6.318729e+001  6.665238e+000  8.753261e+000
    endloop
  endfacet
  facet normal  0.000000e+000  9.150739e-001  4.032862e-001
    outer loop
      vertex -6.740630e+001  6.665238e+000  8.753261e+000
      vertex -6.318729e+001  6.665238e+000  8.753261e+000
      vertex -6.722324e+001  6.826589e+000  8.387150e+000
    endloop
  endfacet
  facet normal  -0.000000e+000  9.150739e-001  4.032861e-001
    outer loop
      vertex -6.722324e+001  6.826589e+000  8.387150e+000
      vertex -6.318729e+001  6.665238e+000  8.753261e+000
      vertex -6.337035e+001  6.826589e+000  8.387150e+000
    endloop
  endfacet
  facet normal  0.000000e+000  9.150733e-001  4.032876e-001
    outer loop
      vertex -6.722324e+001  6.826589e+000  8.387150e+000
      vertex -6.337035e+001  6.826589e+000  8.387150e+000
      vertex -6.704635e+001  7.010809e+000  7.969148e+000
    endloop
  endfacet
  facet normal  -0.000000e+000  9.150733e-001  4.032876e-001
    outer loop
      vertex -6.704635e+001  7.010809e+000  7.969148e+000
      vertex -6.337035e+001  6.826589e+000  8.387150e+000
      vertex -6.354724e+001  7.010809e+000  7.969148e+000
    endloop
  endfacet
  facet normal  0.000000e+000  9.150738e-001  4.032866e-001
    outer loop
      vertex -6.704635e+001  7.010809e+000  7.969148e+000
      vertex -6.354724e+001  7.010809e+000  7.969148e+000
      vertex -6.689385e+001  7.198548e+000  7.543160e+000
    endloop
  endfacet
  facet normal  -0.000000e+000  9.150738e-001  4.032866e-001
    outer loop
      vertex -6.689385e+001  7.198548e+000  7.543160e+000
      vertex -6.354724e+001  7.010809e+000  7.969148e+000
      vertex -6.369974e+001  7.198548e+000  7.543160e+000
    endloop
  endfacet
  facet normal  0.000000e+000  9.150737e-001  4.032867e-001
    outer loop
      vertex -6.689385e+001  7.198548e+000  7.543160e+000
      vertex -6.369974e+001  7.198548e+000  7.543160e+000
      vertex -6.675489e+001  7.401278e+000  7.083158e+000
    endloop
  endfacet
  facet normal  -0.000000e+000  9.150737e-001  4.032867e-001
    outer loop
      vertex -6.675489e+001  7.401278e+000  7.083158e+000
      vertex -6.369974e+001  7.198548e+000  7.543160e+000
      vertex -6.383870e+001  7.401278e+000  7.083158e+000
    endloop
  endfacet
  facet normal  0.000000e+000  9.150733e-001  4.032876e-001
    outer loop
      vertex -6.675489e+001  7.401278e+000  7.083158e+000
      vertex -6.383870e+001  7.401278e+000  7.083158e+000
      vertex -6.663744e+001  7.606145e+000  6.618308e+000
    endloop
  endfacet
  facet normal  -0.000000e+000  9.150733e-001  4.032876e-001
    outer loop
      vertex -6.663744e+001  7.606145e+000  6.618308e+000
      vertex -6.383870e+001  7.401278e+000  7.083158e+000
      vertex -6.395615e+001  7.606145e+000  6.618308e+000
    endloop
  endfacet
  facet normal  0.000000e+000  9.150740e-001  4.032860e-001
    outer loop
      vertex -6.663744e+001  7.606145e+000  6.618308e+000
      vertex -6.395615e+001  7.606145e+000  6.618308e+000
      vertex -6.653130e+001  7.831831e+000  6.106217e+000
    endloop
  endfacet
  facet normal  -0.000000e+000  9.150739e-001  4.032860e-001
    outer loop
      vertex -6.653130e+001  7.831831e+000  6.106217e+000
      vertex -6.395615e+001  7.606145e+000  6.618308e+000
      vertex -6.406229e+001  7.831831e+000  6.106217e+000
    endloop
  endfacet
  facet normal  0.000000e+000  9.150735e-001  4.032871e-001
    outer loop
      vertex -6.653130e+001  7.831831e+000  6.106217e+000
      vertex -6.406229e+001  7.831831e+000  6.106217e+000
      vertex -6.644640e+001  8.059053e+000  5.590640e+000
    endloop
  endfacet
  facet normal  -0.000000e+000  9.150735e-001  4.032871e-001
    outer loop
      vertex -6.644640e+001  8.059053e+000  5.590640e+000
      vertex -6.406229e+001  7.831831e+000  6.106217e+000
      vertex -6.414719e+001  8.059053e+000  5.590640e+000
    endloop
  endfacet
  facet normal  0.000000e+000  9.150736e-001  4.032870e-001
    outer loop
      vertex -6.644640e+001  8.059053e+000  5.590640e+000
      vertex -6.414719e+001  8.059053e+000  5.590640e+000
      vertex -6.638022e+001  8.292073e+000  5.061909e+000
    endloop
  endfacet
  facet normal  -0.000000e+000  9.150735e-001  4.032870e-001
    outer loop
      vertex -6.638022e+001  8.292073e+000  5.061909e+000
      vertex -6.414719e+001  8.059053e+000  5.590640e+000
      vertex -6.421337e+001  8.292073e+000  5.061909e+000
    endloop
  endfacet
  facet normal  0.000000e+000  9.150738e-001  4.032863e-001
    outer loop
      vertex -6.638022e+001  8.292073e+000  5.061909e+000
      vertex -6.421337e+001  8.292073e+000  5.061909e+000
      vertex -6.633365e+001  8.525843e+000  4.531476e+000
    endloop
  endfacet
  facet normal  -0.000000e+000  9.150739e-001  4.032864e-001
    outer loop
      vertex -6.633365e+001  8.525843e+000  4.531476e+000
      vertex -6.421337e+001  8.292073e+000  5.061909e+000
      vertex -6.425994e+001  8.525843e+000  4.531476e+000
    endloop
  endfacet
  facet normal  0.000000e+000  9.150736e-001  4.032871e-001
    outer loop
      vertex -6.633365e+001  8.525843e+000  4.531476e+000
      vertex -6.425994e+001  8.525843e+000  4.531476e+000
      vertex -6.629679e+001  8.994617e+000  3.467811e+000
    endloop
  endfacet
  facet normal  -0.000000e+000  9.150735e-001  4.032871e-001
    outer loop
      vertex -6.629679e+001  8.994617e+000  3.467811e+000
      vertex -6.425994e+001  8.525843e+000  4.531476e+000
      vertex -6.429679e+001  8.994617e+000  3.467811e+000
    endloop
  endfacet
  facet normal  0.000000e+000  9.150736e-001  4.032869e-001
    outer loop
      vertex -6.629679e+001  8.994617e+000  3.467811e+000
      vertex -6.429679e+001  8.994617e+000  3.467811e+000
      vertex -6.629679e+001  9.421145e+000  2.500000e+000
    endloop
  endfacet
  facet normal  -0.000000e+000  9.150736e-001  4.032869e-001
    outer loop
      vertex -6.629679e+001  9.421145e+000  2.500000e+000
      vertex -6.429679e+001  8.994617e+000  3.467811e+000
      vertex -6.429679e+001  9.421145e+000  2.500000e+000
    endloop
  endfacet
  facet normal  1.000000e+000  0.000000e+000  0.000000e+000
    outer loop
      vertex -6.429679e+001  8.994617e+000  2.500000e+000
      vertex -6.429679e+001  9.421145e+000  2.500000e+000
      vertex -6.429679e+001  8.994617e+000  3.467811e+000
    endloop
  endfacet
  facet normal -1.000000e+000  0.000000e+000  0.000000e+000
    outer loop
      vertex -6.629679e+001  8.994617e+000  3.467811e+000
      vertex -6.629679e+001  9.421145e+000  2.500000e+000
      vertex -6.629679e+001  8.994617e+000  2.500000e+000
    endloop
  endfacet
  facet normal  0.000000e+000  1.000000e+000  0.000000e+000
    outer loop
      vertex -7.254679e+001  5.994617e+000  1.150000e+001
      vertex -6.929679e+001  5.994617e+000  2.500000e+000
      vertex -7.254679e+001  5.994617e+000  2.500000e+000
    endloop
  endfacet
  facet normal  0.000000e+000  1.000000e+000  0.000000e+000
    outer loop
      vertex -6.929679e+001  5.994617e+000  2.500000e+000
      vertex -7.254679e+001  5.994617e+000  1.150000e+001
      vertex -6.929679e+001  5.994617e+000  1.090668e+001
    endloop
  endfacet
  facet normal  0.000000e+000  1.000000e+000  -0.000000e+000
    outer loop
      vertex -6.929679e+001  5.994617e+000  1.090668e+001
      vertex -7.254679e+001  5.994617e+000  1.150000e+001
      vertex -5.854679e+001  5.994617e+000  1.150000e+001
    endloop
  endfacet
  facet normal  0.000000e+000  1.000000e+000  0.000000e+000
    outer loop
      vertex -6.929679e+001  5.994617e+000  1.090668e+001
      vertex -5.854679e+001  5.994617e+000  1.150000e+001
      vertex -6.129679e+001  5.994617e+000  1.090668e+001
    endloop
  endfacet
  facet normal  -0.000000e+000  1.000000e+000  0.000000e+000
    outer loop
      vertex -6.129679e+001  5.994617e+000  1.090668e+001
      vertex -5.854679e+001  5.994617e+000  1.150000e+001
      vertex -5.854679e+001  5.994617e+000  2.500000e+000
    endloop
  endfacet
  facet normal  0.000000e+000  1.000000e+000  0.000000e+000
    outer loop
      vertex -6.129679e+001  5.994617e+000  1.090668e+001
      vertex -5.854679e+001  5.994617e+000  2.500000e+000
      vertex -6.129679e+001  5.994617e+000  2.500000e+000
    endloop
  endfacet
  facet normal  0.000000e+000  0.000000e+000  1.000000e+000
    outer loop
      vertex -7.254679e+001  2.994617e+000  1.150000e+001
      vertex -5.854679e+001  2.994617e+000  1.150000e+001
      vertex -7.254679e+001  5.994617e+000  1.150000e+001
    endloop
  endfacet
  facet normal  -0.000000e+000  0.000000e+000  1.000000e+000
    outer loop
      vertex -7.254679e+001  5.994617e+000  1.150000e+001
      vertex -5.854679e+001  2.994617e+000  1.150000e+001
      vertex -5.854679e+001  5.994617e+000  1.150000e+001
    endloop
  endfacet
  facet normal -1.000000e+000  0.000000e+000  0.000000e+000
    outer loop
      vertex -7.254679e+001  5.994617e+000  2.500000e+000
      vertex -7.254679e+001  2.994617e+000  2.500000e+000
      vertex -7.254679e+001  5.994617e+000  1.150000e+001
    endloop
  endfacet
  facet normal -1.000000e+000  0.000000e+000  0.000000e+000
    outer loop
      vertex -7.254679e+001  5.994617e+000  1.150000e+001
      vertex -7.254679e+001  2.994617e+000  2.500000e+000
      vertex -7.254679e+001  2.994617e+000  7.500000e+000
    endloop
  endfacet
  facet normal -1.000000e+000  0.000000e+000  0.000000e+000
    outer loop
      vertex -7.254679e+001  5.994617e+000  1.150000e+001
      vertex -7.254679e+001  2.994617e+000  7.500000e+000
      vertex -7.254679e+001  2.994617e+000  1.150000e+001
    endloop
  endfacet
  facet normal -1.000000e+000  0.000000e+000  -0.000000e+000
    outer loop
      vertex -7.254679e+001  2.994617e+000  1.150000e+001
      vertex -7.254679e+001  2.994617e+000  7.500000e+000
      vertex -7.254679e+001  1.494617e+000  7.500000e+000
    endloop
  endfacet
  facet normal  1.000000e+000  0.000000e+000  0.000000e+000
    outer loop
      vertex -5.854679e+001  2.994617e+000  1.150000e+001
      vertex -5.854679e+001  1.494617e+000  7.500000e+000
      vertex -5.854679e+001  5.994617e+000  1.150000e+001
    endloop
  endfacet
  facet normal  1.000000e+000  0.000000e+000  0.000000e+000
    outer loop
      vertex -5.854679e+001  5.994617e+000  1.150000e+001
      vertex -5.854679e+001  1.494617e+000  7.500000e+000
      vertex -5.854679e+001  2.994617e+000  7.500000e+000
    endloop
  endfacet
  facet normal  1.000000e+000  -0.000000e+000  0.000000e+000
    outer loop
      vertex -5.854679e+001  5.994617e+000  1.150000e+001
      vertex -5.854679e+001  2.994617e+000  7.500000e+000
      vertex -5.854679e+001  5.994617e+000  2.500000e+000
    endloop
  endfacet
  facet normal  1.000000e+000  0.000000e+000  0.000000e+000
    outer loop
      vertex -5.854679e+001  5.994617e+000  2.500000e+000
      vertex -5.854679e+001  2.994617e+000  7.500000e+000
      vertex -5.854679e+001  2.994617e+000  2.500000e+000
    endloop
  endfacet
  facet normal  3.515012e-001  9.361875e-001 -2.297577e-004
    outer loop
      vertex -6.250665e+001  6.249396e+000  9.696824e+000
      vertex -6.219140e+001  6.131108e+000  1.001208e+001
      vertex -6.222385e+001  6.141447e+000  2.500000e+000
    endloop
  endfacet
  facet normal  3.826855e-001  9.238779e-001  1.180303e-003
    outer loop
      vertex -6.250665e+001  6.249396e+000  9.696824e+000
      vertex -6.222385e+001  6.141447e+000  2.500000e+000
      vertex -6.265876e+001  6.321597e+000  2.500000e+000
    endloop
  endfacet
  facet normal  4.460908e-001  8.949876e-001 -4.496582e-004
    outer loop
      vertex -6.250665e+001  6.249396e+000  9.696824e+000
      vertex -6.265876e+001  6.321597e+000  2.500000e+000
      vertex -6.275811e+001  6.374588e+000  9.412759e+000
    endloop
  endfacet
  facet normal  1.377493e-001  9.904671e-001 -4.933018e-004
    outer loop
      vertex -6.187029e+001  6.049942e+000  1.033319e+001
      vertex -6.154566e+001  6.004957e+000  1.065781e+001
      vertex -6.176610e+001  6.031551e+000  2.500000e+000
    endloop
  endfacet
  facet normal  3.932396e-002  9.992241e-001  2.194841e-003
    outer loop
      vertex -6.176610e+001  6.031551e+000  2.500000e+000
      vertex -6.154566e+001  6.004957e+000  1.065781e+001
      vertex -6.129679e+001  5.994617e+000  1.090668e+001
    endloop
  endfacet
  facet normal  7.845887e-002  9.969173e-001  0.000000e+000
    outer loop
      vertex -6.176610e+001  6.031551e+000  2.500000e+000
      vertex -6.129679e+001  5.994617e+000  1.090668e+001
      vertex -6.129679e+001  5.994617e+000  2.500000e+000
    endloop
  endfacet
  facet normal  2.441427e-001  9.697388e-001  9.704727e-004
    outer loop
      vertex -6.187029e+001  6.049942e+000  1.033319e+001
      vertex -6.176610e+001  6.031551e+000  2.500000e+000
      vertex -6.219140e+001  6.131108e+000  1.001208e+001
    endloop
  endfacet
  facet normal  2.334454e-001  9.723698e-001  3.299739e-004
    outer loop
      vertex -6.219140e+001  6.131108e+000  1.001208e+001
      vertex -6.176610e+001  6.031551e+000  2.500000e+000
      vertex -6.222385e+001  6.141447e+000  2.500000e+000
    endloop
  endfacet
  facet normal  5.961622e-001  8.028640e-001 -4.189364e-004
    outer loop
      vertex -6.318729e+001  6.665238e+000  8.753261e+000
      vertex -6.297713e+001  6.509367e+000  9.106937e+000
      vertex -6.306015e+001  6.567565e+000  2.500000e+000
    endloop
  endfacet
  facet normal  5.231454e-001  8.522429e-001  9.335139e-004
    outer loop
      vertex -6.306015e+001  6.567565e+000  2.500000e+000
      vertex -6.297713e+001  6.509367e+000  9.106937e+000
      vertex -6.275811e+001  6.374588e+000  9.412759e+000
    endloop
  endfacet
  facet normal  5.224960e-001  8.526411e-001  9.730049e-004
    outer loop
      vertex -6.306015e+001  6.567565e+000  2.500000e+000
      vertex -6.275811e+001  6.374588e+000  9.412759e+000
      vertex -6.265876e+001  6.321597e+000  2.500000e+000
    endloop
  endfacet
  facet normal  7.217363e-001  6.921680e-001 -3.636069e-004
    outer loop
      vertex -6.354724e+001  7.010809e+000  7.969148e+000
      vertex -6.337035e+001  6.826589e+000  8.387150e+000
      vertex -6.341811e+001  6.873296e+000  2.500000e+000
    endloop
  endfacet
  facet normal  6.605496e-001  7.507821e-001  5.978097e-004
    outer loop
      vertex -6.341811e+001  6.873296e+000  2.500000e+000
      vertex -6.337035e+001  6.826589e+000  8.387150e+000
      vertex -6.318729e+001  6.665238e+000  8.753261e+000
    endloop
  endfacet
  facet normal  6.494487e-001  7.604042e-001  1.327709e-003
    outer loop
      vertex -6.341811e+001  6.873296e+000  2.500000e+000
      vertex -6.318729e+001  6.665238e+000  8.753261e+000
      vertex -6.306015e+001  6.567565e+000  2.500000e+000
    endloop
  endfacet
  facet normal  8.251331e-001  5.649381e-001 -2.800337e-004
    outer loop
      vertex -6.383870e+001  7.401278e+000  7.083158e+000
      vertex -6.369974e+001  7.198548e+000  7.543160e+000
      vertex -6.372385e+001  7.231261e+000  2.500000e+000
    endloop
  endfacet
  facet normal  7.757629e-001  6.310244e-001  3.846557e-004
    outer loop
      vertex -6.372385e+001  7.231261e+000  2.500000e+000
      vertex -6.369974e+001  7.198548e+000  7.543160e+000
      vertex -6.354724e+001  7.010809e+000  7.969148e+000
    endloop
  endfacet
  facet normal  7.604027e-001  6.494498e-001  1.623363e-003
    outer loop
      vertex -6.372385e+001  7.231261e+000  2.500000e+000
      vertex -6.354724e+001  7.010809e+000  7.969148e+000
      vertex -6.341811e+001  6.873296e+000  2.500000e+000
    endloop
  endfacet
  facet normal  9.051536e-001  4.250847e-001 -2.687642e-004
    outer loop
      vertex -6.406229e+001  7.831831e+000  6.106217e+000
      vertex -6.395615e+001  7.606145e+000  6.618308e+000
      vertex -6.396981e+001  7.632645e+000  2.500000e+000
    endloop
  endfacet
  facet normal  8.672228e-001  4.979203e-001  3.258006e-004
    outer loop
      vertex -6.396981e+001  7.632645e+000  2.500000e+000
      vertex -6.395615e+001  7.606145e+000  6.618308e+000
      vertex -6.383870e+001  7.401278e+000  7.083158e+000
    endloop
  endfacet
  facet normal  8.526392e-001  5.224963e-001  1.983666e-003
    outer loop
      vertex -6.396981e+001  7.632645e+000  2.500000e+000
      vertex -6.383870e+001  7.401278e+000  7.083158e+000
      vertex -6.372385e+001  7.231261e+000  2.500000e+000
    endloop
  endfacet
  facet normal  9.807335e-001  1.953510e-001 -1.038197e-005
    outer loop
      vertex -6.425994e+001  8.525843e+000  4.531476e+000
      vertex -6.421337e+001  8.292073e+000  5.061909e+000
      vertex -6.425986e+001  8.525313e+000  2.500000e+000
    endloop
  endfacet
  facet normal  9.561670e-001  2.926743e-001  9.295844e-003
    outer loop
      vertex -6.425986e+001  8.525313e+000  2.500000e+000
      vertex -6.421337e+001  8.292073e+000  5.061909e+000
      vertex -6.414719e+001  8.059053e+000  5.590640e+000
    endloop
  endfacet
  facet normal  9.723706e-001  2.334420e-001 -2.307598e-004
    outer loop
      vertex -6.425986e+001  8.525313e+000  2.500000e+000
      vertex -6.414719e+001  8.059053e+000  5.590640e+000
      vertex -6.414996e+001  8.067566e+000  2.500000e+000
    endloop
  endfacet
  facet normal  9.366553e-001  3.502525e-001  1.230613e-004
    outer loop
      vertex -6.414996e+001  8.067566e+000  2.500000e+000
      vertex -6.414719e+001  8.059053e+000  5.590640e+000
      vertex -6.406229e+001  7.831831e+000  6.106217e+000
    endloop
  endfacet
  facet normal  9.238772e-001  3.826803e-001  2.553513e-003
    outer loop
      vertex -6.414996e+001  8.067566e+000  2.500000e+000
      vertex -6.406229e+001  7.831831e+000  6.106217e+000
      vertex -6.396981e+001  7.632645e+000  2.500000e+000
    endloop
  endfacet
  facet normal  9.969246e-001  7.836753e-002  0.000000e+000
    outer loop
      vertex -6.429679e+001  8.994617e+000  3.467811e+000
      vertex -6.425994e+001  8.525843e+000  4.531476e+000
      vertex -6.429679e+001  8.994617e+000  2.500000e+000
    endloop
  endfacet
  facet normal  9.969175e-001  7.845686e-002  2.074269e-005
    outer loop
      vertex -6.429679e+001  8.994617e+000  2.500000e+000
      vertex -6.425994e+001  8.525843e+000  4.531476e+000
      vertex -6.425986e+001  8.525313e+000  2.500000e+000
    endloop
  endfacet
  facet normal -3.762869e-008  9.695089e-001  2.450564e-001
    outer loop
      vertex -6.872330e+001  6.049942e+000  1.033319e+001
      vertex -6.219140e+001  6.131108e+000  1.001208e+001
      vertex -6.840219e+001  6.131108e+000  1.001208e+001
    endloop
  endfacet
  facet normal -5.394205e-008  9.362640e-001  3.512970e-001
    outer loop
      vertex -6.840219e+001  6.131108e+000  1.001208e+001
      vertex -6.219140e+001  6.131108e+000  1.001208e+001
      vertex -6.250665e+001  6.249396e+000  9.696824e+000
    endloop
  endfacet
  facet normal  0.000000e+000  9.362638e-001  3.512979e-001
    outer loop
      vertex -6.840219e+001  6.131108e+000  1.001208e+001
      vertex -6.250665e+001  6.249396e+000  9.696824e+000
      vertex -6.808694e+001  6.249396e+000  9.696824e+000
    endloop
  endfacet
  facet normal -3.410235e-008  9.695088e-001  2.450565e-001
    outer loop
      vertex -6.219140e+001  6.131108e+000  1.001208e+001
      vertex -6.872330e+001  6.049942e+000  1.033319e+001
      vertex -6.187029e+001  6.049942e+000  1.033319e+001
    endloop
  endfacet
  facet normal -1.910199e-008  9.905343e-001  1.372653e-001
    outer loop
      vertex -6.187029e+001  6.049942e+000  1.033319e+001
      vertex -6.872330e+001  6.049942e+000  1.033319e+001
      vertex -6.904793e+001  6.004957e+000  1.065781e+001
    endloop
  endfacet
  facet normal  -0.000000e+000  9.905342e-001  1.372657e-001
    outer loop
      vertex -6.187029e+001  6.049942e+000  1.033319e+001
      vertex -6.904793e+001  6.004957e+000  1.065781e+001
      vertex -6.154566e+001  6.004957e+000  1.065781e+001
    endloop
  endfacet
  facet normal  0.000000e+000  9.991379e-001  4.151477e-002
    outer loop
      vertex -6.154566e+001  6.004957e+000  1.065781e+001
      vertex -6.904793e+001  6.004957e+000  1.065781e+001
      vertex -6.929679e+001  5.994617e+000  1.090668e+001
    endloop
  endfacet
  facet normal  -0.000000e+000  9.991378e-001  4.151477e-002
    outer loop
      vertex -6.154566e+001  6.004957e+000  1.065781e+001
      vertex -6.929679e+001  5.994617e+000  1.090668e+001
      vertex -6.129679e+001  5.994617e+000  1.090668e+001
    endloop
  endfacet
  facet normal -4.460910e-001  8.949875e-001 -4.499004e-004
    outer loop
      vertex -6.808694e+001  6.249396e+000  9.696824e+000
      vertex -6.783548e+001  6.374588e+000  9.412759e+000
      vertex -6.793482e+001  6.321597e+000  2.500000e+000
    endloop
  endfacet
  facet normal -3.826827e-001  9.238790e-001  1.180173e-003
    outer loop
      vertex -6.808694e+001  6.249396e+000  9.696824e+000
      vertex -6.793482e+001  6.321597e+000  2.500000e+000
      vertex -6.836974e+001  6.141447e+000  2.500000e+000
    endloop
  endfacet
  facet normal -3.515011e-001  9.361874e-001 -2.297577e-004
    outer loop
      vertex -6.808694e+001  6.249396e+000  9.696824e+000
      vertex -6.836974e+001  6.141447e+000  2.500000e+000
      vertex -6.840219e+001  6.131108e+000  1.001208e+001
    endloop
  endfacet
  facet normal -9.620175e-001  2.729880e-001 -1.125361e-004
    outer loop
      vertex -6.644640e+001  8.059053e+000  5.590640e+000
      vertex -6.638022e+001  8.292073e+000  5.061909e+000
      vertex -6.644363e+001  8.067566e+000  2.500000e+000
    endloop
  endfacet
  facet normal -9.780388e-001  2.083374e-001  5.949514e-003
    outer loop
      vertex -6.644363e+001  8.067566e+000  2.500000e+000
      vertex -6.638022e+001  8.292073e+000  5.061909e+000
      vertex -6.633365e+001  8.525843e+000  4.531476e+000
    endloop
  endfacet
  facet normal -9.723707e-001  2.334421e-001 -2.065187e-005
    outer loop
      vertex -6.644363e+001  8.067566e+000  2.500000e+000
      vertex -6.633365e+001  8.525843e+000  4.531476e+000
      vertex -6.633373e+001  8.525313e+000  2.500000e+000
    endloop
  endfacet
  facet normal -9.969196e-001  7.843044e-002  2.074966e-005
    outer loop
      vertex -6.633373e+001  8.525313e+000  2.500000e+000
      vertex -6.633365e+001  8.525843e+000  4.531476e+000
      vertex -6.629679e+001  8.994617e+000  3.467811e+000
    endloop
  endfacet
  facet normal -9.969162e-001  7.847296e-002  0.000000e+000
    outer loop
      vertex -6.633373e+001  8.525313e+000  2.500000e+000
      vertex -6.629679e+001  8.994617e+000  3.467811e+000
      vertex -6.629679e+001  8.994617e+000  2.500000e+000
    endloop
  endfacet
  facet normal -9.051543e-001  4.250831e-001 -2.696153e-004
    outer loop
      vertex -6.663744e+001  7.606145e+000  6.618308e+000
      vertex -6.653130e+001  7.831831e+000  6.106217e+000
      vertex -6.662377e+001  7.632645e+000  2.500000e+000
    endloop
  endfacet
  facet normal -9.336141e-001  3.582562e-001  4.151239e-003
    outer loop
      vertex -6.662377e+001  7.632645e+000  2.500000e+000
      vertex -6.653130e+001  7.831831e+000  6.106217e+000
      vertex -6.644640e+001  8.059053e+000  5.590640e+000
    endloop
  endfacet
  facet normal -9.238831e-001  3.826746e-001  2.238376e-004
    outer loop
      vertex -6.662377e+001  7.632645e+000  2.500000e+000
      vertex -6.644640e+001  8.059053e+000  5.590640e+000
      vertex -6.644363e+001  8.067566e+000  2.500000e+000
    endloop
  endfacet
  facet normal -8.251259e-001  5.649489e-001 -2.799290e-004
    outer loop
      vertex -6.689385e+001  7.198548e+000  7.543160e+000
      vertex -6.675489e+001  7.401278e+000  7.083158e+000
      vertex -6.686974e+001  7.231261e+000  2.500000e+000
    endloop
  endfacet
  facet normal -8.645682e-001  5.025066e-001  3.024855e-003
    outer loop
      vertex -6.686974e+001  7.231261e+000  2.500000e+000
      vertex -6.675489e+001  7.401278e+000  7.083158e+000
      vertex -6.663744e+001  7.606145e+000  6.618308e+000
    endloop
  endfacet
  facet normal -8.526372e-001  5.225032e-001  5.316025e-004
    outer loop
      vertex -6.686974e+001  7.231261e+000  2.500000e+000
      vertex -6.663744e+001  7.606145e+000  6.618308e+000
      vertex -6.662377e+001  7.632645e+000  2.500000e+000
    endloop
  endfacet
  facet normal -7.217287e-001  6.921759e-001 -3.634823e-004
    outer loop
      vertex -6.722324e+001  6.826589e+000  8.387150e+000
      vertex -6.704635e+001  7.010809e+000  7.969148e+000
      vertex -6.717548e+001  6.873296e+000  2.500000e+000
    endloop
  endfacet
  facet normal -7.735996e-001  6.336704e-001  2.332219e-003
    outer loop
      vertex -6.717548e+001  6.873296e+000  2.500000e+000
      vertex -6.704635e+001  7.010809e+000  7.969148e+000
      vertex -6.689385e+001  7.198548e+000  7.543160e+000
    endloop
  endfacet
  facet normal -7.604036e-001  6.494505e-001  5.776044e-004
    outer loop
      vertex -6.717548e+001  6.873296e+000  2.500000e+000
      vertex -6.689385e+001  7.198548e+000  7.543160e+000
      vertex -6.686974e+001  7.231261e+000  2.500000e+000
    endloop
  endfacet
  facet normal -5.961689e-001  8.028589e-001 -4.187210e-004
    outer loop
      vertex -6.761646e+001  6.509367e+000  9.106937e+000
      vertex -6.740630e+001  6.665238e+000  8.753261e+000
      vertex -6.753344e+001  6.567565e+000  2.500000e+000
    endloop
  endfacet
  facet normal -6.593484e-001  7.518358e-001  1.662827e-003
    outer loop
      vertex -6.753344e+001  6.567565e+000  2.500000e+000
      vertex -6.740630e+001  6.665238e+000  8.753261e+000
      vertex -6.722324e+001  6.826589e+000  8.387150e+000
    endloop
  endfacet
  facet normal -6.494491e-001  7.604046e-001  7.642069e-004
    outer loop
      vertex -6.753344e+001  6.567565e+000  2.500000e+000
      vertex -6.722324e+001  6.826589e+000  8.387150e+000
      vertex -6.717548e+001  6.873296e+000  2.500000e+000
    endloop
  endfacet
  facet normal -5.231384e-001  8.522472e-001  9.339426e-004
    outer loop
      vertex -6.761646e+001  6.509367e+000  9.106937e+000
      vertex -6.753344e+001  6.567565e+000  2.500000e+000
      vertex -6.783548e+001  6.374588e+000  9.412759e+000
    endloop
  endfacet
  facet normal -5.224996e-001  8.526389e-001  9.727854e-004
    outer loop
      vertex -6.783548e+001  6.374588e+000  9.412759e+000
      vertex -6.753344e+001  6.567565e+000  2.500000e+000
      vertex -6.793482e+001  6.321597e+000  2.500000e+000
    endloop
  endfacet
  facet normal -1.377493e-001  9.904671e-001 -4.933018e-004
    outer loop
      vertex -6.904793e+001  6.004957e+000  1.065781e+001
      vertex -6.872330e+001  6.049942e+000  1.033319e+001
      vertex -6.882749e+001  6.031551e+000  2.500000e+000
    endloop
  endfacet
  facet normal -2.441427e-001  9.697388e-001  9.704728e-004
    outer loop
      vertex -6.882749e+001  6.031551e+000  2.500000e+000
      vertex -6.872330e+001  6.049942e+000  1.033319e+001
      vertex -6.840219e+001  6.131108e+000  1.001208e+001
    endloop
  endfacet
  facet normal -2.334454e-001  9.723698e-001  3.299740e-004
    outer loop
      vertex -6.882749e+001  6.031551e+000  2.500000e+000
      vertex -6.840219e+001  6.131108e+000  1.001208e+001
      vertex -6.836974e+001  6.141447e+000  2.500000e+000
    endloop
  endfacet
  facet normal -4.151588e-002  9.991378e-001  0.000000e+000
    outer loop
      vertex -6.929679e+001  5.994617e+000  1.090668e+001
      vertex -6.904793e+001  6.004957e+000  1.065781e+001
      vertex -6.929679e+001  5.994617e+000  2.500000e+000
    endloop
  endfacet
  facet normal -7.845946e-002  9.969166e-001  1.129820e-003
    outer loop
      vertex -6.929679e+001  5.994617e+000  2.500000e+000
      vertex -6.904793e+001  6.004957e+000  1.065781e+001
      vertex -6.882749e+001  6.031551e+000  2.500000e+000
    endloop
  endfacet
  facet normal  0.000000e+000 -9.363292e-001  3.511235e-001
    outer loop
      vertex -5.854679e+001  2.994617e+000  1.150000e+001
      vertex -7.254679e+001  2.994617e+000  1.150000e+001
      vertex -5.854679e+001  1.494617e+000  7.500000e+000
    endloop
  endfacet
  facet normal  0.000000e+000 -9.363292e-001  3.511235e-001
    outer loop
      vertex -5.854679e+001  1.494617e+000  7.500000e+000
      vertex -7.254679e+001  2.994617e+000  1.150000e+001
      vertex -7.254679e+001  1.494617e+000  7.500000e+000
    endloop
  endfacet
  facet normal  0.000000e+000  0.000000e+000 -1.000000e+000
    outer loop
      vertex -5.854679e+001  1.494617e+000  7.500000e+000
      vertex -7.254679e+001  1.494617e+000  7.500000e+000
      vertex -5.854679e+001  2.994617e+000  7.500000e+000
    endloop
  endfacet
  facet normal  -0.000000e+000  0.000000e+000 -1.000000e+000
    outer loop
      vertex -5.854679e+001  2.994617e+000  7.500000e+000
      vertex -7.254679e+001  1.494617e+000  7.500000e+000
      vertex -7.254679e+001  2.994617e+000  7.500000e+000
    endloop
  endfacet
  facet normal  0.000000e+000 -1.000000e+000  0.000000e+000
    outer loop
      vertex -5.854679e+001  2.994617e+000  7.500000e+000
      vertex -7.254679e+001  2.994617e+000  7.500000e+000
      vertex -5.854679e+001  2.994617e+000  2.500000e+000
    endloop
  endfacet
  facet normal  0.000000e+000 -1.000000e+000  0.000000e+000
    outer loop
      vertex -5.854679e+001  2.994617e+000  2.500000e+000
      vertex -7.254679e+001  2.994617e+000  7.500000e+000
      vertex -7.254679e+001  2.994617e+000  2.500000e+000
    endloop
  endfacet
  facet normal  0.000000e+000  1.000000e+000  0.000000e+000
    outer loop
      vertex -8.055807e+001 -5.383492e-003  6.500000e+000
      vertex  1.944193e+001 -5.383492e-003  6.500000e+000
      vertex -8.055807e+001 -5.383492e-003  2.500000e+000
    endloop
  endfacet
  facet normal  0.000000e+000  1.000000e+000  0.000000e+000
    outer loop
      vertex -8.055807e+001 -5.383492e-003  2.500000e+000
      vertex  1.944193e+001 -5.383492e-003  6.500000e+000
      vertex  1.944193e+001 -5.383492e-003  2.500000e+000
    endloop
  endfacet
  facet normal  0.000000e+000  0.000000e+000  1.000000e+000
    outer loop
      vertex -8.055807e+001 -2.005383e+000  6.500000e+000
      vertex  1.944193e+001 -2.005383e+000  6.500000e+000
      vertex -8.055807e+001 -5.383492e-003  6.500000e+000
    endloop
  endfacet
  facet normal  -0.000000e+000  0.000000e+000  1.000000e+000
    outer loop
      vertex -8.055807e+001 -5.383492e-003  6.500000e+000
      vertex  1.944193e+001 -2.005383e+000  6.500000e+000
      vertex  1.944193e+001 -5.383492e-003  6.500000e+000
    endloop
  endfacet
  facet normal  0.000000e+000 -1.000000e+000  0.000000e+000
    outer loop
      vertex  1.944193e+001 -2.005383e+000  6.500000e+000
      vertex -8.055807e+001 -2.005383e+000  6.500000e+000
      vertex  1.944193e+001 -2.005383e+000  0.000000e+000
    endloop
  endfacet
  facet normal  0.000000e+000 -1.000000e+000  0.000000e+000
    outer loop
      vertex  1.944193e+001 -2.005383e+000  0.000000e+000
      vertex -8.055807e+001 -2.005383e+000  6.500000e+000
      vertex -8.055807e+001 -2.005383e+000  0.000000e+000
    endloop
  endfacet
  facet normal  0.000000e+000  0.000000e+000 -1.000000e+000
    outer loop
      vertex -8.055807e+001 -2.005383e+000  0.000000e+000
      vertex -8.055807e+001  1.299462e+001  0.000000e+000
      vertex  1.944193e+001 -2.005383e+000  0.000000e+000
    endloop
  endfacet
  facet normal  0.000000e+000  0.000000e+000 -1.000000e+000
    outer loop
      vertex  1.944193e+001 -2.005383e+000  0.000000e+000
      vertex -8.055807e+001  1.299462e+001  0.000000e+000
      vertex  1.944193e+001  1.299462e+001  0.000000e+000
    endloop
  endfacet
  facet normal  0.000000e+000 -1.000000e+000  0.000000e+000
    outer loop
      vertex  1.145321e+001  2.994617e+000  7.500000e+000
      vertex -2.546794e+000  2.994617e+000  7.500000e+000
      vertex  1.145321e+001  2.994617e+000  2.500000e+000
    endloop
  endfacet
  facet normal  0.000000e+000 -1.000000e+000  0.000000e+000
    outer loop
      vertex  1.145321e+001  2.994617e+000  2.500000e+000
      vertex -2.546794e+000  2.994617e+000  7.500000e+000
      vertex -2.546794e+000  2.994617e+000  2.500000e+000
    endloop
  endfacet
  facet normal  0.000000e+000  0.000000e+000 -1.000000e+000
    outer loop
      vertex  1.145321e+001  1.494617e+000  7.500000e+000
      vertex -2.546794e+000  1.494617e+000  7.500000e+000
      vertex  1.145321e+001  2.994617e+000  7.500000e+000
    endloop
  endfacet
  facet normal  -0.000000e+000  0.000000e+000 -1.000000e+000
    outer loop
      vertex  1.145321e+001  2.994617e+000  7.500000e+000
      vertex -2.546794e+000  1.494617e+000  7.500000e+000
      vertex -2.546794e+000  2.994617e+000  7.500000e+000
    endloop
  endfacet
  facet normal  0.000000e+000 -9.363292e-001  3.511235e-001
    outer loop
      vertex  1.145321e+001  2.994617e+000  1.150000e+001
      vertex -2.546794e+000  2.994617e+000  1.150000e+001
      vertex  1.145321e+001  1.494617e+000  7.500000e+000
    endloop
  endfacet
  facet normal  0.000000e+000 -9.363292e-001  3.511235e-001
    outer loop
      vertex  1.145321e+001  1.494617e+000  7.500000e+000
      vertex -2.546794e+000  2.994617e+000  1.150000e+001
      vertex -2.546794e+000  1.494617e+000  7.500000e+000
    endloop
  endfacet
  facet normal -1.000000e+000  -0.000000e+000  0.000000e+000
    outer loop
      vertex -8.055807e+001 -2.005383e+000  6.500000e+000
      vertex -8.055807e+001 -5.383492e-003  6.500000e+000
      vertex -8.055807e+001 -2.005383e+000  0.000000e+000
    endloop
  endfacet
  facet normal -1.000000e+000  0.000000e+000  0.000000e+000
    outer loop
      vertex -8.055807e+001 -2.005383e+000  0.000000e+000
      vertex -8.055807e+001 -5.383492e-003  6.500000e+000
      vertex -8.055807e+001 -5.383492e-003  2.500000e+000
    endloop
  endfacet
  facet normal -1.000000e+000  0.000000e+000  -0.000000e+000
    outer loop
      vertex -8.055807e+001 -2.005383e+000  0.000000e+000
      vertex -8.055807e+001 -5.383492e-003  2.500000e+000
      vertex -8.055807e+001  1.299462e+001  0.000000e+000
    endloop
  endfacet
  facet normal -1.000000e+000  0.000000e+000  0.000000e+000
    outer loop
      vertex -8.055807e+001  1.299462e+001  0.000000e+000
      vertex -8.055807e+001 -5.383492e-003  2.500000e+000
      vertex -8.055807e+001  1.299462e+001  2.500000e+000
    endloop
  endfacet
  facet normal  1.000000e+000  0.000000e+000  0.000000e+000
    outer loop
      vertex  1.944193e+001  1.299462e+001  0.000000e+000
      vertex  1.944193e+001  1.299462e+001  2.500000e+000
      vertex  1.944193e+001 -2.005383e+000  0.000000e+000
    endloop
  endfacet
  facet normal  1.000000e+000  0.000000e+000  0.000000e+000
    outer loop
      vertex  1.944193e+001 -2.005383e+000  0.000000e+000
      vertex  1.944193e+001  1.299462e+001  2.500000e+000
      vertex  1.944193e+001 -5.383492e-003  2.500000e+000
    endloop
  endfacet
  facet normal  1.000000e+000  0.000000e+000  0.000000e+000
    outer loop
      vertex  1.944193e+001 -2.005383e+000  0.000000e+000
      vertex  1.944193e+001 -5.383492e-003  2.500000e+000
      vertex  1.944193e+001 -2.005383e+000  6.500000e+000
    endloop
  endfacet
  facet normal  1.000000e+000  -0.000000e+000  0.000000e+000
    outer loop
      vertex  1.944193e+001 -2.005383e+000  6.500000e+000
      vertex  1.944193e+001 -5.383492e-003  2.500000e+000
      vertex  1.944193e+001 -5.383492e-003  6.500000e+000
    endloop
  endfacet
  facet normal  0.000000e+000  1.000000e+000  0.000000e+000
    outer loop
      vertex -8.055807e+001  1.299462e+001  2.500000e+000
      vertex  1.944193e+001  1.299462e+001  2.500000e+000
      vertex -8.055807e+001  1.299462e+001  0.000000e+000
    endloop
  endfacet
  facet normal  0.000000e+000  1.000000e+000  0.000000e+000
    outer loop
      vertex -8.055807e+001  1.299462e+001  0.000000e+000
      vertex  1.944193e+001  1.299462e+001  2.500000e+000
      vertex  1.944193e+001  1.299462e+001  0.000000e+000
    endloop
  endfacet
endsolid CATIA STL
