solid CATIA STL
  facet normal -1.000000e+000  -0.000000e+000  -0.000000e+000
    outer loop
      vertex -8.055807e+001 -5.383492e-003  2.500000e+000
      vertex -8.055807e+001  1.299462e+001  2.500000e+000
      vertex -8.055807e+001  1.299462e+001  0.000000e+000
    endloop
  endfacet
  facet normal -1.000000e+000  0.000000e+000  0.000000e+000
    outer loop
      vertex -8.055807e+001 -5.383492e-003  2.500000e+000
      vertex -8.055807e+001  1.299462e+001  0.000000e+000
      vertex -8.055807e+001 -2.005383e+000  0.000000e+000
    endloop
  endfacet
  facet normal -1.000000e+000  0.000000e+000  0.000000e+000
    outer loop
      vertex -8.055807e+001 -5.383492e-003  2.500000e+000
      vertex -8.055807e+001 -2.005383e+000  0.000000e+000
      vertex -8.055807e+001 -2.005383e+000  5.500000e+000
    endloop
  endfacet
  facet normal -1.000000e+000  0.000000e+000  0.000000e+000
    outer loop
      vertex -8.055807e+001 -5.383492e-003  2.500000e+000
      vertex -8.055807e+001 -2.005383e+000  5.500000e+000
      vertex -8.055807e+001 -1.971309e+000  5.758819e+000
    endloop
  endfacet
  facet normal -1.000000e+000  0.000000e+000  0.000000e+000
    outer loop
      vertex -8.055807e+001 -5.383492e-003  2.500000e+000
      vertex -8.055807e+001 -1.971309e+000  5.758819e+000
      vertex -8.055807e+001 -1.871409e+000  6.000000e+000
    endloop
  endfacet
  facet normal -1.000000e+000  0.000000e+000  0.000000e+000
    outer loop
      vertex -8.055807e+001 -5.383492e-003  2.500000e+000
      vertex -8.055807e+001 -1.871409e+000  6.000000e+000
      vertex -8.055807e+001 -1.712490e+000  6.207107e+000
    endloop
  endfacet
  facet normal -1.000000e+000  0.000000e+000  0.000000e+000
    outer loop
      vertex -8.055807e+001 -5.383492e-003  2.500000e+000
      vertex -8.055807e+001 -1.712490e+000  6.207107e+000
      vertex -8.055807e+001 -1.505383e+000  6.366025e+000
    endloop
  endfacet
  facet normal -1.000000e+000  0.000000e+000  0.000000e+000
    outer loop
      vertex -8.055807e+001 -5.383492e-003  2.500000e+000
      vertex -8.055807e+001 -1.505383e+000  6.366025e+000
      vertex -8.055807e+001 -1.264203e+000  6.465926e+000
    endloop
  endfacet
  facet normal -1.000000e+000  0.000000e+000  0.000000e+000
    outer loop
      vertex -8.055807e+001 -5.383492e-003  2.500000e+000
      vertex -8.055807e+001 -1.264203e+000  6.465926e+000
      vertex -8.055807e+001 -1.005383e+000  6.500000e+000
    endloop
  endfacet
  facet normal -1.000000e+000  0.000000e+000  0.000000e+000
    outer loop
      vertex -8.055807e+001 -5.383492e-003  2.500000e+000
      vertex -8.055807e+001 -1.005383e+000  6.500000e+000
      vertex -8.055807e+001 -7.465644e-001  6.465926e+000
    endloop
  endfacet
  facet normal -9.999999e-001  0.000000e+000  0.000000e+000
    outer loop
      vertex -8.055807e+001 -5.383492e-003  2.500000e+000
      vertex -8.055807e+001 -7.465644e-001  6.465926e+000
      vertex -8.055807e+001 -5.053835e-001  6.366025e+000
    endloop
  endfacet
  facet normal -1.000000e+000  0.000000e+000  0.000000e+000
    outer loop
      vertex -8.055807e+001 -5.383492e-003  2.500000e+000
      vertex -8.055807e+001 -5.053835e-001  6.366025e+000
      vertex -8.055807e+001 -2.982767e-001  6.207107e+000
    endloop
  endfacet
  facet normal -1.000000e+000  0.000000e+000  0.000000e+000
    outer loop
      vertex -8.055807e+001 -5.383492e-003  2.500000e+000
      vertex -8.055807e+001 -2.982767e-001  6.207107e+000
      vertex -8.055807e+001 -1.393581e-001  6.000000e+000
    endloop
  endfacet
  facet normal -9.999999e-001  0.000000e+000  0.000000e+000
    outer loop
      vertex -8.055807e+001 -5.383492e-003  2.500000e+000
      vertex -8.055807e+001 -1.393581e-001  6.000000e+000
      vertex -8.055807e+001 -3.945766e-002  5.758819e+000
    endloop
  endfacet
  facet normal -1.000000e+000  0.000000e+000  0.000000e+000
    outer loop
      vertex -8.055807e+001 -5.383492e-003  2.500000e+000
      vertex -8.055807e+001 -3.945766e-002  5.758819e+000
      vertex -8.055807e+001 -5.383492e-003  5.500000e+000
    endloop
  endfacet
  facet normal  1.000000e+000  0.000000e+000  -0.000000e+000
    outer loop
      vertex  1.944193e+001 -2.005383e+000  0.000000e+000
      vertex  1.944193e+001  1.299462e+001  0.000000e+000
      vertex  1.944193e+001  1.299462e+001  2.500000e+000
    endloop
  endfacet
  facet normal  1.000000e+000  0.000000e+000  0.000000e+000
    outer loop
      vertex  1.944193e+001 -2.005383e+000  0.000000e+000
      vertex  1.944193e+001  1.299462e+001  2.500000e+000
      vertex  1.944193e+001 -5.383492e-003  2.500000e+000
    endloop
  endfacet
  facet normal  1.000000e+000  0.000000e+000  -0.000000e+000
    outer loop
      vertex  1.944193e+001 -2.005383e+000  0.000000e+000
      vertex  1.944193e+001 -5.383492e-003  2.500000e+000
      vertex  1.944193e+001 -5.383492e-003  5.500000e+000
    endloop
  endfacet
  facet normal  9.999999e-001  0.000000e+000  0.000000e+000
    outer loop
      vertex  1.944193e+001 -2.005383e+000  0.000000e+000
      vertex  1.944193e+001 -5.383492e-003  5.500000e+000
      vertex  1.944193e+001 -3.945766e-002  5.758819e+000
    endloop
  endfacet
  facet normal  1.000000e+000  0.000000e+000  0.000000e+000
    outer loop
      vertex  1.944193e+001 -2.005383e+000  0.000000e+000
      vertex  1.944193e+001 -3.945766e-002  5.758819e+000
      vertex  1.944193e+001 -1.393581e-001  6.000000e+000
    endloop
  endfacet
  facet normal  1.000000e+000  0.000000e+000  0.000000e+000
    outer loop
      vertex  1.944193e+001 -2.005383e+000  0.000000e+000
      vertex  1.944193e+001 -1.393581e-001  6.000000e+000
      vertex  1.944193e+001 -2.982767e-001  6.207107e+000
    endloop
  endfacet
  facet normal  1.000000e+000  0.000000e+000  0.000000e+000
    outer loop
      vertex  1.944193e+001 -2.005383e+000  0.000000e+000
      vertex  1.944193e+001 -2.982767e-001  6.207107e+000
      vertex  1.944193e+001 -5.053835e-001  6.366025e+000
    endloop
  endfacet
  facet normal  1.000000e+000  0.000000e+000  0.000000e+000
    outer loop
      vertex  1.944193e+001 -2.005383e+000  0.000000e+000
      vertex  1.944193e+001 -5.053835e-001  6.366025e+000
      vertex  1.944193e+001 -7.465644e-001  6.465926e+000
    endloop
  endfacet
  facet normal  1.000000e+000  0.000000e+000  0.000000e+000
    outer loop
      vertex  1.944193e+001 -2.005383e+000  0.000000e+000
      vertex  1.944193e+001 -7.465644e-001  6.465926e+000
      vertex  1.944193e+001 -1.005383e+000  6.500000e+000
    endloop
  endfacet
  facet normal  1.000000e+000  0.000000e+000  0.000000e+000
    outer loop
      vertex  1.944193e+001 -2.005383e+000  0.000000e+000
      vertex  1.944193e+001 -1.005383e+000  6.500000e+000
      vertex  1.944193e+001 -1.264203e+000  6.465926e+000
    endloop
  endfacet
  facet normal  1.000000e+000  0.000000e+000  0.000000e+000
    outer loop
      vertex  1.944193e+001 -2.005383e+000  0.000000e+000
      vertex  1.944193e+001 -1.264203e+000  6.465926e+000
      vertex  1.944193e+001 -1.505383e+000  6.366025e+000
    endloop
  endfacet
  facet normal  1.000000e+000  0.000000e+000  0.000000e+000
    outer loop
      vertex  1.944193e+001 -2.005383e+000  0.000000e+000
      vertex  1.944193e+001 -1.505383e+000  6.366025e+000
      vertex  1.944193e+001 -1.712490e+000  6.207107e+000
    endloop
  endfacet
  facet normal  1.000000e+000  0.000000e+000  0.000000e+000
    outer loop
      vertex  1.944193e+001 -2.005383e+000  0.000000e+000
      vertex  1.944193e+001 -1.712490e+000  6.207107e+000
      vertex  1.944193e+001 -1.871409e+000  6.000000e+000
    endloop
  endfacet
  facet normal  1.000000e+000  0.000000e+000  0.000000e+000
    outer loop
      vertex  1.944193e+001 -2.005383e+000  0.000000e+000
      vertex  1.944193e+001 -1.871409e+000  6.000000e+000
      vertex  1.944193e+001 -1.971309e+000  5.758819e+000
    endloop
  endfacet
  facet normal  1.000000e+000  0.000000e+000  0.000000e+000
    outer loop
      vertex  1.944193e+001 -2.005383e+000  0.000000e+000
      vertex  1.944193e+001 -1.971309e+000  5.758819e+000
      vertex  1.944193e+001 -2.005383e+000  5.500000e+000
    endloop
  endfacet
  facet normal  0.000000e+000 -1.000000e+000  0.000000e+000
    outer loop
      vertex  1.944193e+001 -2.005383e+000  5.500000e+000
      vertex -8.055807e+001 -2.005383e+000  5.500000e+000
      vertex  1.944193e+001 -2.005383e+000  0.000000e+000
    endloop
  endfacet
  facet normal  0.000000e+000 -1.000000e+000  0.000000e+000
    outer loop
      vertex  1.944193e+001 -2.005383e+000  0.000000e+000
      vertex -8.055807e+001 -2.005383e+000  5.500000e+000
      vertex -8.055807e+001 -2.005383e+000  0.000000e+000
    endloop
  endfacet
  facet normal  0.000000e+000 -9.914448e-001  1.305262e-001
    outer loop
      vertex -8.055807e+001 -2.005383e+000  5.500000e+000
      vertex  1.944193e+001 -2.005383e+000  5.500000e+000
      vertex -8.055807e+001 -1.971309e+000  5.758819e+000
    endloop
  endfacet
  facet normal  0.000000e+000 -9.914448e-001  1.305262e-001
    outer loop
      vertex -8.055807e+001 -1.971309e+000  5.758819e+000
      vertex  1.944193e+001 -2.005383e+000  5.500000e+000
      vertex  1.944193e+001 -1.971309e+000  5.758819e+000
    endloop
  endfacet
  facet normal  0.000000e+000 -9.238796e-001  3.826833e-001
    outer loop
      vertex -8.055807e+001 -1.971309e+000  5.758819e+000
      vertex  1.944193e+001 -1.971309e+000  5.758819e+000
      vertex -8.055807e+001 -1.871409e+000  6.000000e+000
    endloop
  endfacet
  facet normal  0.000000e+000 -9.238796e-001  3.826833e-001
    outer loop
      vertex -8.055807e+001 -1.871409e+000  6.000000e+000
      vertex  1.944193e+001 -1.971309e+000  5.758819e+000
      vertex  1.944193e+001 -1.871409e+000  6.000000e+000
    endloop
  endfacet
  facet normal  0.000000e+000 -7.933531e-001  6.087618e-001
    outer loop
      vertex -8.055807e+001 -1.871409e+000  6.000000e+000
      vertex  1.944193e+001 -1.871409e+000  6.000000e+000
      vertex -8.055807e+001 -1.712490e+000  6.207107e+000
    endloop
  endfacet
  facet normal  0.000000e+000 -7.933531e-001  6.087618e-001
    outer loop
      vertex -8.055807e+001 -1.712490e+000  6.207107e+000
      vertex  1.944193e+001 -1.871409e+000  6.000000e+000
      vertex  1.944193e+001 -1.712490e+000  6.207107e+000
    endloop
  endfacet
  facet normal  0.000000e+000 -6.087620e-001  7.933530e-001
    outer loop
      vertex -8.055807e+001 -1.712490e+000  6.207107e+000
      vertex  1.944193e+001 -1.712490e+000  6.207107e+000
      vertex -8.055807e+001 -1.505383e+000  6.366025e+000
    endloop
  endfacet
  facet normal  0.000000e+000 -6.087620e-001  7.933530e-001
    outer loop
      vertex -8.055807e+001 -1.505383e+000  6.366025e+000
      vertex  1.944193e+001 -1.712490e+000  6.207107e+000
      vertex  1.944193e+001 -1.505383e+000  6.366025e+000
    endloop
  endfacet
  facet normal  0.000000e+000 -3.826829e-001  9.238797e-001
    outer loop
      vertex -8.055807e+001 -1.505383e+000  6.366025e+000
      vertex  1.944193e+001 -1.505383e+000  6.366025e+000
      vertex -8.055807e+001 -1.264203e+000  6.465926e+000
    endloop
  endfacet
  facet normal  0.000000e+000 -3.826829e-001  9.238797e-001
    outer loop
      vertex -8.055807e+001 -1.264203e+000  6.465926e+000
      vertex  1.944193e+001 -1.505383e+000  6.366025e+000
      vertex  1.944193e+001 -1.264203e+000  6.465926e+000
    endloop
  endfacet
  facet normal  0.000000e+000 -1.305267e-001  9.914448e-001
    outer loop
      vertex -8.055807e+001 -1.264203e+000  6.465926e+000
      vertex  1.944193e+001 -1.264203e+000  6.465926e+000
      vertex -8.055807e+001 -1.005383e+000  6.500000e+000
    endloop
  endfacet
  facet normal  0.000000e+000 -1.305267e-001  9.914448e-001
    outer loop
      vertex -8.055807e+001 -1.005383e+000  6.500000e+000
      vertex  1.944193e+001 -1.264203e+000  6.465926e+000
      vertex  1.944193e+001 -1.005383e+000  6.500000e+000
    endloop
  endfacet
  facet normal  0.000000e+000  1.000000e+000  0.000000e+000
    outer loop
      vertex -8.055807e+001 -5.383492e-003  5.500000e+000
      vertex  1.944193e+001 -5.383492e-003  5.500000e+000
      vertex -8.055807e+001 -5.383492e-003  2.500000e+000
    endloop
  endfacet
  facet normal  0.000000e+000  1.000000e+000  0.000000e+000
    outer loop
      vertex -8.055807e+001 -5.383492e-003  2.500000e+000
      vertex  1.944193e+001 -5.383492e-003  5.500000e+000
      vertex  1.944193e+001 -5.383492e-003  2.500000e+000
    endloop
  endfacet
  facet normal  0.000000e+000  1.305267e-001  9.914448e-001
    outer loop
      vertex -8.055807e+001 -1.005383e+000  6.500000e+000
      vertex  1.944193e+001 -1.005383e+000  6.500000e+000
      vertex -8.055807e+001 -7.465644e-001  6.465926e+000
    endloop
  endfacet
  facet normal  -0.000000e+000  1.305267e-001  9.914448e-001
    outer loop
      vertex -8.055807e+001 -7.465644e-001  6.465926e+000
      vertex  1.944193e+001 -1.005383e+000  6.500000e+000
      vertex  1.944193e+001 -7.465644e-001  6.465926e+000
    endloop
  endfacet
  facet normal  0.000000e+000  3.826829e-001  9.238799e-001
    outer loop
      vertex -8.055807e+001 -7.465644e-001  6.465926e+000
      vertex  1.944193e+001 -7.465644e-001  6.465926e+000
      vertex -8.055807e+001 -5.053835e-001  6.366025e+000
    endloop
  endfacet
  facet normal  -0.000000e+000  3.826829e-001  9.238799e-001
    outer loop
      vertex -8.055807e+001 -5.053835e-001  6.366025e+000
      vertex  1.944193e+001 -7.465644e-001  6.465926e+000
      vertex  1.944193e+001 -5.053835e-001  6.366025e+000
    endloop
  endfacet
  facet normal  0.000000e+000  6.087620e-001  7.933528e-001
    outer loop
      vertex -8.055807e+001 -5.053835e-001  6.366025e+000
      vertex  1.944193e+001 -5.053835e-001  6.366025e+000
      vertex -8.055807e+001 -2.982767e-001  6.207107e+000
    endloop
  endfacet
  facet normal  -0.000000e+000  6.087620e-001  7.933528e-001
    outer loop
      vertex -8.055807e+001 -2.982767e-001  6.207107e+000
      vertex  1.944193e+001 -5.053835e-001  6.366025e+000
      vertex  1.944193e+001 -2.982767e-001  6.207107e+000
    endloop
  endfacet
  facet normal  0.000000e+000  7.933530e-001  6.087618e-001
    outer loop
      vertex -8.055807e+001 -2.982767e-001  6.207107e+000
      vertex  1.944193e+001 -2.982767e-001  6.207107e+000
      vertex -8.055807e+001 -1.393581e-001  6.000000e+000
    endloop
  endfacet
  facet normal  -0.000000e+000  7.933530e-001  6.087618e-001
    outer loop
      vertex -8.055807e+001 -1.393581e-001  6.000000e+000
      vertex  1.944193e+001 -2.982767e-001  6.207107e+000
      vertex  1.944193e+001 -1.393581e-001  6.000000e+000
    endloop
  endfacet
  facet normal  0.000000e+000  9.238794e-001  3.826835e-001
    outer loop
      vertex -8.055807e+001 -1.393581e-001  6.000000e+000
      vertex  1.944193e+001 -1.393581e-001  6.000000e+000
      vertex -8.055807e+001 -3.945766e-002  5.758819e+000
    endloop
  endfacet
  facet normal  -0.000000e+000  9.238794e-001  3.826835e-001
    outer loop
      vertex -8.055807e+001 -3.945766e-002  5.758819e+000
      vertex  1.944193e+001 -1.393581e-001  6.000000e+000
      vertex  1.944193e+001 -3.945766e-002  5.758819e+000
    endloop
  endfacet
  facet normal  0.000000e+000  9.914448e-001  1.305262e-001
    outer loop
      vertex -8.055807e+001 -3.945766e-002  5.758819e+000
      vertex  1.944193e+001 -3.945766e-002  5.758819e+000
      vertex -8.055807e+001 -5.383492e-003  5.500000e+000
    endloop
  endfacet
  facet normal  -0.000000e+000  9.914448e-001  1.305262e-001
    outer loop
      vertex -8.055807e+001 -5.383492e-003  5.500000e+000
      vertex  1.944193e+001 -3.945766e-002  5.758819e+000
      vertex  1.944193e+001 -5.383492e-003  5.500000e+000
    endloop
  endfacet
  facet normal  0.000000e+000  8.926254e-001  4.507991e-001
    outer loop
      vertex  3.154004e+000  5.601991e+000  1.006232e+001
      vertex  6.252408e+000  5.601991e+000  1.006232e+001
      vertex  3.288079e+000  5.683492e+000  9.900936e+000
    endloop
  endfacet
  facet normal  -0.000000e+000  8.926255e-001  4.507991e-001
    outer loop
      vertex  3.288079e+000  5.683492e+000  9.900936e+000
      vertex  6.252408e+000  5.601991e+000  1.006232e+001
      vertex  6.118333e+000  5.683492e+000  9.900936e+000
    endloop
  endfacet
  facet normal  0.000000e+000  8.926258e-001  4.507982e-001
    outer loop
      vertex  3.288079e+000  5.683492e+000  9.900936e+000
      vertex  6.118333e+000  5.683492e+000  9.900936e+000
      vertex  3.395265e+000  5.772775e+000  9.724146e+000
    endloop
  endfacet
  facet normal  -0.000000e+000  8.926259e-001  4.507983e-001
    outer loop
      vertex  3.395265e+000  5.772775e+000  9.724146e+000
      vertex  6.118333e+000  5.683492e+000  9.900936e+000
      vertex  6.011147e+000  5.772775e+000  9.724146e+000
    endloop
  endfacet
  facet normal  0.000000e+000  8.926259e-001  4.507982e-001
    outer loop
      vertex  3.395265e+000  5.772775e+000  9.724146e+000
      vertex  6.011147e+000  5.772775e+000  9.724146e+000
      vertex  3.508184e+000  5.901312e+000  9.469629e+000
    endloop
  endfacet
  facet normal  -0.000000e+000  8.926259e-001  4.507982e-001
    outer loop
      vertex  3.508184e+000  5.901312e+000  9.469629e+000
      vertex  6.011147e+000  5.772775e+000  9.724146e+000
      vertex  5.898228e+000  5.901312e+000  9.469629e+000
    endloop
  endfacet
  facet normal  0.000000e+000  8.926265e-001  4.507968e-001
    outer loop
      vertex  3.508184e+000  5.901312e+000  9.469629e+000
      vertex  5.898228e+000  5.901312e+000  9.469629e+000
      vertex  3.591039e+000  6.034451e+000  9.206001e+000
    endloop
  endfacet
  facet normal  -0.000000e+000  8.926265e-001  4.507968e-001
    outer loop
      vertex  3.591039e+000  6.034451e+000  9.206001e+000
      vertex  5.898228e+000  5.901312e+000  9.469629e+000
      vertex  5.815373e+000  6.034451e+000  9.206001e+000
    endloop
  endfacet
  facet normal  0.000000e+000  8.926258e-001  4.507984e-001
    outer loop
      vertex  3.591039e+000  6.034451e+000  9.206001e+000
      vertex  5.815373e+000  6.034451e+000  9.206001e+000
      vertex  3.676034e+000  6.263087e+000  8.753278e+000
    endloop
  endfacet
  facet normal  -0.000000e+000  8.926257e-001  4.507984e-001
    outer loop
      vertex  3.676034e+000  6.263087e+000  8.753278e+000
      vertex  5.815373e+000  6.034451e+000  9.206001e+000
      vertex  5.730378e+000  6.263087e+000  8.753278e+000
    endloop
  endfacet
  facet normal  0.000000e+000  8.926262e-001  4.507974e-001
    outer loop
      vertex  3.676034e+000  6.263087e+000  8.753278e+000
      vertex  5.730378e+000  6.263087e+000  8.753278e+000
      vertex  3.703206e+000  6.494617e+000  8.294826e+000
    endloop
  endfacet
  facet normal  -0.000000e+000  8.926263e-001  4.507974e-001
    outer loop
      vertex  3.703206e+000  6.494617e+000  8.294826e+000
      vertex  5.730378e+000  6.263087e+000  8.753278e+000
      vertex  5.703206e+000  6.494617e+000  8.294826e+000
    endloop
  endfacet
  facet normal  0.000000e+000  8.926260e-001  4.507980e-001
    outer loop
      vertex  3.703206e+000  6.494617e+000  8.294826e+000
      vertex  5.703206e+000  6.494617e+000  8.294826e+000
      vertex  3.703206e+000  9.421145e+000  2.500000e+000
    endloop
  endfacet
  facet normal  -0.000000e+000  8.926260e-001  4.507980e-001
    outer loop
      vertex  3.703206e+000  9.421145e+000  2.500000e+000
      vertex  5.703206e+000  6.494617e+000  8.294826e+000
      vertex  5.703206e+000  9.421145e+000  2.500000e+000
    endloop
  endfacet
  facet normal  0.000000e+000  0.000000e+000  1.000000e+000
    outer loop
      vertex -8.055807e+001 -5.383492e-003  2.500000e+000
      vertex  1.944193e+001 -5.383492e-003  2.500000e+000
      vertex  1.145321e+001  3.494617e+000  2.500000e+000
    endloop
  endfacet
  facet normal  0.000000e+000  0.000000e+000  1.000000e+000
    outer loop
      vertex -8.055807e+001 -5.383492e-003  2.500000e+000
      vertex  1.145321e+001  3.494617e+000  2.500000e+000
      vertex -2.546794e+000  3.494617e+000  2.500000e+000
    endloop
  endfacet
  facet normal  0.000000e+000  0.000000e+000  1.000000e+000
    outer loop
      vertex -8.055807e+001 -5.383492e-003  2.500000e+000
      vertex -2.546794e+000  3.494617e+000  2.500000e+000
      vertex -5.854679e+001  3.494617e+000  2.500000e+000
    endloop
  endfacet
  facet normal  0.000000e+000  0.000000e+000  1.000000e+000
    outer loop
      vertex -8.055807e+001 -5.383492e-003  2.500000e+000
      vertex -5.854679e+001  3.494617e+000  2.500000e+000
      vertex -7.254679e+001  3.494617e+000  2.500000e+000
    endloop
  endfacet
  facet normal  0.000000e+000  -0.000000e+000  1.000000e+000
    outer loop
      vertex -8.055807e+001 -5.383492e-003  2.500000e+000
      vertex -7.254679e+001  3.494617e+000  2.500000e+000
      vertex -7.254679e+001  5.494617e+000  2.500000e+000
    endloop
  endfacet
  facet normal  0.000000e+000  0.000000e+000  9.999999e-001
    outer loop
      vertex -8.055807e+001 -5.383492e-003  2.500000e+000
      vertex -7.254679e+001  5.494617e+000  2.500000e+000
      vertex -8.055807e+001  1.299462e+001  2.500000e+000
    endloop
  endfacet
  facet normal  0.000000e+000  -0.000000e+000  1.000000e+000
    outer loop
      vertex -8.055807e+001  1.299462e+001  2.500000e+000
      vertex -7.254679e+001  5.494617e+000  2.500000e+000
      vertex -6.629679e+001  9.421145e+000  2.500000e+000
    endloop
  endfacet
  facet normal  0.000000e+000  -0.000000e+000  1.000000e+000
    outer loop
      vertex -8.055807e+001  1.299462e+001  2.500000e+000
      vertex -6.629679e+001  9.421145e+000  2.500000e+000
      vertex -6.429679e+001  9.421145e+000  2.500000e+000
    endloop
  endfacet
  facet normal  0.000000e+000  -0.000000e+000  1.000000e+000
    outer loop
      vertex -8.055807e+001  1.299462e+001  2.500000e+000
      vertex -6.429679e+001  9.421145e+000  2.500000e+000
      vertex  3.703206e+000  9.421145e+000  2.500000e+000
    endloop
  endfacet
  facet normal  0.000000e+000  -0.000000e+000  1.000000e+000
    outer loop
      vertex -8.055807e+001  1.299462e+001  2.500000e+000
      vertex  3.703206e+000  9.421145e+000  2.500000e+000
      vertex  5.703206e+000  9.421145e+000  2.500000e+000
    endloop
  endfacet
  facet normal  0.000000e+000  -0.000000e+000  1.000000e+000
    outer loop
      vertex -8.055807e+001  1.299462e+001  2.500000e+000
      vertex  5.703206e+000  9.421145e+000  2.500000e+000
      vertex  1.944193e+001  1.299462e+001  2.500000e+000
    endloop
  endfacet
  facet normal  0.000000e+000  -0.000000e+000  1.000000e+000
    outer loop
      vertex -7.254679e+001  5.494617e+000  2.500000e+000
      vertex -6.729679e+001  5.494617e+000  2.500000e+000
      vertex -6.703797e+001  5.528691e+000  2.500000e+000
    endloop
  endfacet
  facet normal  0.000000e+000  -0.000000e+000  1.000000e+000
    outer loop
      vertex -7.254679e+001  5.494617e+000  2.500000e+000
      vertex -6.703797e+001  5.528691e+000  2.500000e+000
      vertex -6.679679e+001  5.628591e+000  2.500000e+000
    endloop
  endfacet
  facet normal  0.000000e+000  -0.000000e+000  1.000000e+000
    outer loop
      vertex -7.254679e+001  5.494617e+000  2.500000e+000
      vertex -6.679679e+001  5.628591e+000  2.500000e+000
      vertex -6.658968e+001  5.787510e+000  2.500000e+000
    endloop
  endfacet
  facet normal  0.000000e+000  -0.000000e+000  1.000000e+000
    outer loop
      vertex -7.254679e+001  5.494617e+000  2.500000e+000
      vertex -6.658968e+001  5.787510e+000  2.500000e+000
      vertex -6.643077e+001  5.994617e+000  2.500000e+000
    endloop
  endfacet
  facet normal  0.000000e+000  -0.000000e+000  1.000000e+000
    outer loop
      vertex -7.254679e+001  5.494617e+000  2.500000e+000
      vertex -6.643077e+001  5.994617e+000  2.500000e+000
      vertex -6.633087e+001  6.235797e+000  2.500000e+000
    endloop
  endfacet
  facet normal  0.000000e+000  -0.000000e+000  1.000000e+000
    outer loop
      vertex -7.254679e+001  5.494617e+000  2.500000e+000
      vertex -6.633087e+001  6.235797e+000  2.500000e+000
      vertex -6.629679e+001  6.494617e+000  2.500000e+000
    endloop
  endfacet
  facet normal  0.000000e+000  -0.000000e+000  1.000000e+000
    outer loop
      vertex -7.254679e+001  5.494617e+000  2.500000e+000
      vertex -6.629679e+001  6.494617e+000  2.500000e+000
      vertex -6.629679e+001  9.421145e+000  2.500000e+000
    endloop
  endfacet
  facet normal  0.000000e+000  0.000000e+000  1.000000e+000
    outer loop
      vertex  2.962025e+000  5.528691e+000  2.500000e+000
      vertex  3.203206e+000  5.628591e+000  2.500000e+000
      vertex -6.379679e+001  5.628591e+000  2.500000e+000
    endloop
  endfacet
  facet normal  0.000000e+000  0.000000e+000  1.000000e+000
    outer loop
      vertex  2.962025e+000  5.528691e+000  2.500000e+000
      vertex -6.379679e+001  5.628591e+000  2.500000e+000
      vertex -6.355561e+001  5.528691e+000  2.500000e+000
    endloop
  endfacet
  facet normal  -0.000000e+000  0.000000e+000  1.000000e+000
    outer loop
      vertex  2.962025e+000  5.528691e+000  2.500000e+000
      vertex -6.355561e+001  5.528691e+000  2.500000e+000
      vertex -6.329679e+001  5.494617e+000  2.500000e+000
    endloop
  endfacet
  facet normal  0.000000e+000  0.000000e+000  1.000000e+000
    outer loop
      vertex  2.962025e+000  5.528691e+000  2.500000e+000
      vertex -6.329679e+001  5.494617e+000  2.500000e+000
      vertex -5.854679e+001  5.494617e+000  2.500000e+000
    endloop
  endfacet
  facet normal  0.000000e+000  0.000000e+000  9.999999e-001
    outer loop
      vertex  2.962025e+000  5.528691e+000  2.500000e+000
      vertex -5.854679e+001  5.494617e+000  2.500000e+000
      vertex -2.546794e+000  5.494617e+000  2.500000e+000
    endloop
  endfacet
  facet normal  0.000000e+000  0.000000e+000  1.000000e+000
    outer loop
      vertex  2.962025e+000  5.528691e+000  2.500000e+000
      vertex -2.546794e+000  5.494617e+000  2.500000e+000
      vertex  2.703206e+000  5.494617e+000  2.500000e+000
    endloop
  endfacet
  facet normal  -0.000000e+000  0.000000e+000  1.000000e+000
    outer loop
      vertex  1.145321e+001  5.494617e+000  2.500000e+000
      vertex  1.145321e+001  3.494617e+000  2.500000e+000
      vertex  1.944193e+001 -5.383492e-003  2.500000e+000
    endloop
  endfacet
  facet normal  0.000000e+000  -0.000000e+000  1.000000e+000
    outer loop
      vertex  1.145321e+001  5.494617e+000  2.500000e+000
      vertex  1.944193e+001 -5.383492e-003  2.500000e+000
      vertex  1.944193e+001  1.299462e+001  2.500000e+000
    endloop
  endfacet
  facet normal  0.000000e+000  0.000000e+000  1.000000e+000
    outer loop
      vertex  1.145321e+001  5.494617e+000  2.500000e+000
      vertex  1.944193e+001  1.299462e+001  2.500000e+000
      vertex  5.703206e+000  9.421145e+000  2.500000e+000
    endloop
  endfacet
  facet normal  0.000000e+000  0.000000e+000  1.000000e+000
    outer loop
      vertex  1.145321e+001  5.494617e+000  2.500000e+000
      vertex  5.703206e+000  9.421145e+000  2.500000e+000
      vertex  5.703206e+000  6.494617e+000  2.500000e+000
    endloop
  endfacet
  facet normal  0.000000e+000  0.000000e+000  1.000000e+000
    outer loop
      vertex  1.145321e+001  5.494617e+000  2.500000e+000
      vertex  5.703206e+000  6.494617e+000  2.500000e+000
      vertex  5.737280e+000  6.235797e+000  2.500000e+000
    endloop
  endfacet
  facet normal  0.000000e+000  0.000000e+000  1.000000e+000
    outer loop
      vertex  1.145321e+001  5.494617e+000  2.500000e+000
      vertex  5.737280e+000  6.235797e+000  2.500000e+000
      vertex  5.837181e+000  5.994617e+000  2.500000e+000
    endloop
  endfacet
  facet normal  0.000000e+000  0.000000e+000  1.000000e+000
    outer loop
      vertex  1.145321e+001  5.494617e+000  2.500000e+000
      vertex  5.837181e+000  5.994617e+000  2.500000e+000
      vertex  5.996099e+000  5.787510e+000  2.500000e+000
    endloop
  endfacet
  facet normal  0.000000e+000  0.000000e+000  9.999999e-001
    outer loop
      vertex  1.145321e+001  5.494617e+000  2.500000e+000
      vertex  5.996099e+000  5.787510e+000  2.500000e+000
      vertex  6.203206e+000  5.628591e+000  2.500000e+000
    endloop
  endfacet
  facet normal  0.000000e+000  0.000000e+000  1.000000e+000
    outer loop
      vertex  1.145321e+001  5.494617e+000  2.500000e+000
      vertex  6.203206e+000  5.628591e+000  2.500000e+000
      vertex  6.444387e+000  5.528691e+000  2.500000e+000
    endloop
  endfacet
  facet normal  0.000000e+000  0.000000e+000  1.000000e+000
    outer loop
      vertex  1.145321e+001  5.494617e+000  2.500000e+000
      vertex  6.444387e+000  5.528691e+000  2.500000e+000
      vertex  6.703206e+000  5.494617e+000  2.500000e+000
    endloop
  endfacet
  facet normal  -0.000000e+000  0.000000e+000  1.000000e+000
    outer loop
      vertex  3.703206e+000  9.421145e+000  2.500000e+000
      vertex -6.429679e+001  9.421145e+000  2.500000e+000
      vertex  3.703206e+000  6.494617e+000  2.500000e+000
    endloop
  endfacet
  facet normal  0.000000e+000  0.000000e+000  1.000000e+000
    outer loop
      vertex  3.703206e+000  6.494617e+000  2.500000e+000
      vertex -6.429679e+001  9.421145e+000  2.500000e+000
      vertex -6.429679e+001  6.494617e+000  2.500000e+000
    endloop
  endfacet
  facet normal  -0.000000e+000  0.000000e+000  1.000000e+000
    outer loop
      vertex  3.703206e+000  6.494617e+000  2.500000e+000
      vertex -6.429679e+001  6.494617e+000  2.500000e+000
      vertex  3.669132e+000  6.235797e+000  2.500000e+000
    endloop
  endfacet
  facet normal  0.000000e+000  0.000000e+000  1.000000e+000
    outer loop
      vertex  3.669132e+000  6.235797e+000  2.500000e+000
      vertex -6.429679e+001  6.494617e+000  2.500000e+000
      vertex -6.426272e+001  6.235797e+000  2.500000e+000
    endloop
  endfacet
  facet normal  -0.000000e+000  0.000000e+000  1.000000e+000
    outer loop
      vertex  3.669132e+000  6.235797e+000  2.500000e+000
      vertex -6.426272e+001  6.235797e+000  2.500000e+000
      vertex  3.569232e+000  5.994617e+000  2.500000e+000
    endloop
  endfacet
  facet normal  0.000000e+000  0.000000e+000  1.000000e+000
    outer loop
      vertex  3.569232e+000  5.994617e+000  2.500000e+000
      vertex -6.426272e+001  6.235797e+000  2.500000e+000
      vertex -6.416282e+001  5.994617e+000  2.500000e+000
    endloop
  endfacet
  facet normal  -0.000000e+000  0.000000e+000  1.000000e+000
    outer loop
      vertex  3.569232e+000  5.994617e+000  2.500000e+000
      vertex -6.416282e+001  5.994617e+000  2.500000e+000
      vertex  3.410313e+000  5.787510e+000  2.500000e+000
    endloop
  endfacet
  facet normal  0.000000e+000  0.000000e+000  1.000000e+000
    outer loop
      vertex  3.410313e+000  5.787510e+000  2.500000e+000
      vertex -6.416282e+001  5.994617e+000  2.500000e+000
      vertex -6.400390e+001  5.787510e+000  2.500000e+000
    endloop
  endfacet
  facet normal  -0.000000e+000  0.000000e+000  1.000000e+000
    outer loop
      vertex  3.410313e+000  5.787510e+000  2.500000e+000
      vertex -6.400390e+001  5.787510e+000  2.500000e+000
      vertex  3.203206e+000  5.628591e+000  2.500000e+000
    endloop
  endfacet
  facet normal  0.000000e+000  0.000000e+000  1.000000e+000
    outer loop
      vertex  3.203206e+000  5.628591e+000  2.500000e+000
      vertex -6.400390e+001  5.787510e+000  2.500000e+000
      vertex -6.379679e+001  5.628591e+000  2.500000e+000
    endloop
  endfacet
  facet normal  0.000000e+000  0.000000e+000  1.000000e+000
    outer loop
      vertex -5.854679e+001  3.494617e+000  2.500000e+000
      vertex -2.546794e+000  3.494617e+000  2.500000e+000
      vertex -5.854679e+001  5.494617e+000  2.500000e+000
    endloop
  endfacet
  facet normal  -0.000000e+000  0.000000e+000  1.000000e+000
    outer loop
      vertex -5.854679e+001  5.494617e+000  2.500000e+000
      vertex -2.546794e+000  3.494617e+000  2.500000e+000
      vertex -2.546794e+000  5.494617e+000  2.500000e+000
    endloop
  endfacet
  facet normal  1.000000e+000  0.000000e+000  0.000000e+000
    outer loop
      vertex  5.703206e+000  6.494617e+000  2.500000e+000
      vertex  5.703206e+000  9.421145e+000  2.500000e+000
      vertex  5.703206e+000  6.494617e+000  8.294826e+000
    endloop
  endfacet
  facet normal -1.000000e+000  0.000000e+000  0.000000e+000
    outer loop
      vertex  3.703206e+000  6.494617e+000  8.294826e+000
      vertex  3.703206e+000  9.421145e+000  2.500000e+000
      vertex  3.703206e+000  6.494617e+000  2.500000e+000
    endloop
  endfacet
  facet normal  0.000000e+000  1.000000e+000  0.000000e+000
    outer loop
      vertex -2.546794e+000  5.494617e+000  1.200000e+001
      vertex  2.703206e+000  5.494617e+000  2.500000e+000
      vertex -2.546794e+000  5.494617e+000  2.500000e+000
    endloop
  endfacet
  facet normal  0.000000e+000  1.000000e+000  0.000000e+000
    outer loop
      vertex  2.703206e+000  5.494617e+000  2.500000e+000
      vertex -2.546794e+000  5.494617e+000  1.200000e+001
      vertex  2.703206e+000  5.494617e+000  1.051311e+001
    endloop
  endfacet
  facet normal  0.000000e+000  1.000000e+000  -0.000000e+000
    outer loop
      vertex  2.703206e+000  5.494617e+000  1.051311e+001
      vertex -2.546794e+000  5.494617e+000  1.200000e+001
      vertex  1.145321e+001  5.494617e+000  1.200000e+001
    endloop
  endfacet
  facet normal  0.000000e+000  1.000000e+000  0.000000e+000
    outer loop
      vertex  2.703206e+000  5.494617e+000  1.051311e+001
      vertex  1.145321e+001  5.494617e+000  1.200000e+001
      vertex  6.703206e+000  5.494617e+000  1.051311e+001
    endloop
  endfacet
  facet normal  -0.000000e+000  1.000000e+000  0.000000e+000
    outer loop
      vertex  6.703206e+000  5.494617e+000  1.051311e+001
      vertex  1.145321e+001  5.494617e+000  1.200000e+001
      vertex  1.145321e+001  5.494617e+000  2.500000e+000
    endloop
  endfacet
  facet normal  0.000000e+000  1.000000e+000  0.000000e+000
    outer loop
      vertex  6.703206e+000  5.494617e+000  1.051311e+001
      vertex  1.145321e+001  5.494617e+000  2.500000e+000
      vertex  6.703206e+000  5.494617e+000  2.500000e+000
    endloop
  endfacet
  facet normal -1.000000e+000  0.000000e+000  0.000000e+000
    outer loop
      vertex -2.546794e+000  5.494617e+000  2.500000e+000
      vertex -2.546794e+000  3.494617e+000  2.500000e+000
      vertex -2.546794e+000  5.494617e+000  1.200000e+001
    endloop
  endfacet
  facet normal -1.000000e+000  0.000000e+000  0.000000e+000
    outer loop
      vertex -2.546794e+000  5.494617e+000  1.200000e+001
      vertex -2.546794e+000  3.494617e+000  2.500000e+000
      vertex -2.546794e+000  3.494617e+000  8.000000e+000
    endloop
  endfacet
  facet normal -1.000000e+000  0.000000e+000  0.000000e+000
    outer loop
      vertex -2.546794e+000  5.494617e+000  1.200000e+001
      vertex -2.546794e+000  3.494617e+000  8.000000e+000
      vertex -2.546794e+000  3.494617e+000  1.200000e+001
    endloop
  endfacet
  facet normal -1.000000e+000  0.000000e+000  -0.000000e+000
    outer loop
      vertex -2.546794e+000  3.494617e+000  1.200000e+001
      vertex -2.546794e+000  3.494617e+000  8.000000e+000
      vertex -2.546794e+000  1.994617e+000  8.000000e+000
    endloop
  endfacet
  facet normal  0.000000e+000  0.000000e+000  1.000000e+000
    outer loop
      vertex -2.546794e+000  3.494617e+000  1.200000e+001
      vertex  1.145321e+001  3.494617e+000  1.200000e+001
      vertex -2.546794e+000  5.494617e+000  1.200000e+001
    endloop
  endfacet
  facet normal  -0.000000e+000  0.000000e+000  1.000000e+000
    outer loop
      vertex -2.546794e+000  5.494617e+000  1.200000e+001
      vertex  1.145321e+001  3.494617e+000  1.200000e+001
      vertex  1.145321e+001  5.494617e+000  1.200000e+001
    endloop
  endfacet
  facet normal  1.000000e+000  0.000000e+000  0.000000e+000
    outer loop
      vertex  1.145321e+001  3.494617e+000  1.200000e+001
      vertex  1.145321e+001  1.994617e+000  8.000000e+000
      vertex  1.145321e+001  5.494617e+000  1.200000e+001
    endloop
  endfacet
  facet normal  1.000000e+000  0.000000e+000  0.000000e+000
    outer loop
      vertex  1.145321e+001  5.494617e+000  1.200000e+001
      vertex  1.145321e+001  1.994617e+000  8.000000e+000
      vertex  1.145321e+001  3.494617e+000  8.000000e+000
    endloop
  endfacet
  facet normal  1.000000e+000  -0.000000e+000  0.000000e+000
    outer loop
      vertex  1.145321e+001  5.494617e+000  1.200000e+001
      vertex  1.145321e+001  3.494617e+000  8.000000e+000
      vertex  1.145321e+001  5.494617e+000  2.500000e+000
    endloop
  endfacet
  facet normal  1.000000e+000  0.000000e+000  0.000000e+000
    outer loop
      vertex  1.145321e+001  5.494617e+000  2.500000e+000
      vertex  1.145321e+001  3.494617e+000  8.000000e+000
      vertex  1.145321e+001  3.494617e+000  2.500000e+000
    endloop
  endfacet
  facet normal -9.238792e-001  3.826836e-001  7.312263e-004
    outer loop
      vertex  3.569232e+000  5.994617e+000  2.500000e+000
      vertex  3.591039e+000  6.034451e+000  9.206001e+000
      vertex  3.669132e+000  6.235797e+000  2.500000e+000
    endloop
  endfacet
  facet normal -8.493502e-001  5.278296e-001 -3.733122e-004
    outer loop
      vertex  3.508184e+000  5.901312e+000  9.469629e+000
      vertex  3.591039e+000  6.034451e+000  9.206001e+000
      vertex  3.569232e+000  5.994617e+000  2.500000e+000
    endloop
  endfacet
  facet normal -9.376391e-001  3.476100e-001 -4.820934e-004
    outer loop
      vertex  3.591039e+000  6.034451e+000  9.206001e+000
      vertex  3.676034e+000  6.263087e+000  8.753278e+000
      vertex  3.669132e+000  6.235797e+000  2.500000e+000
    endloop
  endfacet
  facet normal -9.930493e-001  1.176968e-001  5.824269e-004
    outer loop
      vertex  3.669132e+000  6.235797e+000  2.500000e+000
      vertex  3.676034e+000  6.263087e+000  8.753278e+000
      vertex  3.703206e+000  6.494617e+000  8.294826e+000
    endloop
  endfacet
  facet normal -9.914449e-001  1.305258e-001  0.000000e+000
    outer loop
      vertex  3.669132e+000  6.235797e+000  2.500000e+000
      vertex  3.703206e+000  6.494617e+000  8.294826e+000
      vertex  3.703206e+000  6.494617e+000  2.500000e+000
    endloop
  endfacet
  facet normal -5.197678e-001  8.543074e-001 -3.766984e-004
    outer loop
      vertex  3.154004e+000  5.601991e+000  1.006232e+001
      vertex  3.288079e+000  5.683492e+000  9.900936e+000
      vertex  3.203206e+000  5.628591e+000  2.500000e+000
    endloop
  endfacet
  facet normal -6.384512e-001  7.696606e-001  1.612260e-003
    outer loop
      vertex  3.203206e+000  5.628591e+000  2.500000e+000
      vertex  3.288079e+000  5.683492e+000  9.900936e+000
      vertex  3.395265e+000  5.772775e+000  9.724146e+000
    endloop
  endfacet
  facet normal -6.087619e-001  7.933530e-001  3.500819e-004
    outer loop
      vertex  3.203206e+000  5.628591e+000  2.500000e+000
      vertex  3.395265e+000  5.772775e+000  9.724146e+000
      vertex  3.410313e+000  5.787510e+000  2.500000e+000
    endloop
  endfacet
  facet normal -7.514888e-001  6.597458e-001 -2.197376e-004
    outer loop
      vertex  3.410313e+000  5.787510e+000  2.500000e+000
      vertex  3.395265e+000  5.772775e+000  9.724146e+000
      vertex  3.508184e+000  5.901312e+000  9.469629e+000
    endloop
  endfacet
  facet normal -7.933525e-001  6.087614e-001  1.200627e-003
    outer loop
      vertex  3.410313e+000  5.787510e+000  2.500000e+000
      vertex  3.508184e+000  5.901312e+000  9.469629e+000
      vertex  3.569232e+000  5.994617e+000  2.500000e+000
    endloop
  endfacet
  facet normal -2.197209e-001  9.755628e-001 -3.147373e-004
    outer loop
      vertex  2.843147e+000  5.504457e+000  1.037317e+001
      vertex  3.000675e+000  5.539885e+000  1.021565e+001
      vertex  2.962025e+000  5.528691e+000  2.500000e+000
    endloop
  endfacet
  facet normal -3.749633e-001  9.270394e-001  5.333244e-004
    outer loop
      vertex  2.962025e+000  5.528691e+000  2.500000e+000
      vertex  3.000675e+000  5.539885e+000  1.021565e+001
      vertex  3.154004e+000  5.601991e+000  1.006232e+001
    endloop
  endfacet
  facet normal -3.826828e-001  9.238794e-001  7.599233e-004
    outer loop
      vertex  2.962025e+000  5.528691e+000  2.500000e+000
      vertex  3.154004e+000  5.601991e+000  1.006232e+001
      vertex  3.203206e+000  5.628591e+000  2.500000e+000
    endloop
  endfacet
  facet normal -7.014237e-002  9.975370e-001  0.000000e+000
    outer loop
      vertex  2.703206e+000  5.494617e+000  1.051311e+001
      vertex  2.843147e+000  5.504457e+000  1.037317e+001
      vertex  2.703206e+000  5.494617e+000  2.500000e+000
    endloop
  endfacet
  facet normal -1.305266e-001  9.914442e-001  1.080906e-003
    outer loop
      vertex  2.703206e+000  5.494617e+000  2.500000e+000
      vertex  2.843147e+000  5.504457e+000  1.037317e+001
      vertex  2.962025e+000  5.528691e+000  2.500000e+000
    endloop
  endfacet
  facet normal  0.000000e+000  9.268552e-001  3.754191e-001
    outer loop
      vertex  3.000675e+000  5.539885e+000  1.021565e+001
      vertex  6.252408e+000  5.601991e+000  1.006232e+001
      vertex  3.154004e+000  5.601991e+000  1.006232e+001
    endloop
  endfacet
  facet normal  1.051462e-007  9.268544e-001  3.754210e-001
    outer loop
      vertex  6.252408e+000  5.601991e+000  1.006232e+001
      vertex  3.000675e+000  5.539885e+000  1.021565e+001
      vertex  6.405737e+000  5.539885e+000  1.021564e+001
    endloop
  endfacet
  facet normal  6.145480e-008  9.756300e-001  2.194223e-001
    outer loop
      vertex  6.405737e+000  5.539885e+000  1.021564e+001
      vertex  3.000675e+000  5.539885e+000  1.021565e+001
      vertex  2.843147e+000  5.504457e+000  1.037317e+001
    endloop
  endfacet
  facet normal  -0.000000e+000  9.756303e-001  2.194210e-001
    outer loop
      vertex  6.405737e+000  5.539885e+000  1.021564e+001
      vertex  2.843147e+000  5.504457e+000  1.037317e+001
      vertex  6.563265e+000  5.504457e+000  1.037317e+001
    endloop
  endfacet
  facet normal  0.000000e+000  9.975371e-001  7.014262e-002
    outer loop
      vertex  6.563265e+000  5.504457e+000  1.037317e+001
      vertex  2.843147e+000  5.504457e+000  1.037317e+001
      vertex  2.703206e+000  5.494617e+000  1.051311e+001
    endloop
  endfacet
  facet normal  -0.000000e+000  9.975370e-001  7.014261e-002
    outer loop
      vertex  6.563265e+000  5.504457e+000  1.037317e+001
      vertex  2.703206e+000  5.494617e+000  1.051311e+001
      vertex  6.703206e+000  5.494617e+000  1.051311e+001
    endloop
  endfacet
  facet normal  9.238795e-001  3.826828e-001  7.312649e-004
    outer loop
      vertex  5.815373e+000  6.034451e+000  9.206001e+000
      vertex  5.837181e+000  5.994617e+000  2.500000e+000
      vertex  5.737280e+000  6.235797e+000  2.500000e+000
    endloop
  endfacet
  facet normal  2.197218e-001  9.755625e-001 -3.147525e-004
    outer loop
      vertex  6.405737e+000  5.539885e+000  1.021564e+001
      vertex  6.563265e+000  5.504457e+000  1.037317e+001
      vertex  6.444387e+000  5.528691e+000  2.500000e+000
    endloop
  endfacet
  facet normal  6.810959e-002  9.976757e-001  2.042532e-003
    outer loop
      vertex  6.444387e+000  5.528691e+000  2.500000e+000
      vertex  6.563265e+000  5.504457e+000  1.037317e+001
      vertex  6.703206e+000  5.494617e+000  1.051311e+001
    endloop
  endfacet
  facet normal  1.305267e-001  9.914448e-001  0.000000e+000
    outer loop
      vertex  6.444387e+000  5.528691e+000  2.500000e+000
      vertex  6.703206e+000  5.494617e+000  1.051311e+001
      vertex  6.703206e+000  5.494617e+000  2.500000e+000
    endloop
  endfacet
  facet normal  5.197678e-001  8.543074e-001 -3.766984e-004
    outer loop
      vertex  6.118333e+000  5.683492e+000  9.900936e+000
      vertex  6.252408e+000  5.601991e+000  1.006232e+001
      vertex  6.203206e+000  5.628591e+000  2.500000e+000
    endloop
  endfacet
  facet normal  3.747126e-001  9.271406e-001  8.232502e-004
    outer loop
      vertex  6.203206e+000  5.628591e+000  2.500000e+000
      vertex  6.252408e+000  5.601991e+000  1.006232e+001
      vertex  6.405737e+000  5.539885e+000  1.021564e+001
    endloop
  endfacet
  facet normal  3.826829e-001  9.238796e-001  5.765434e-004
    outer loop
      vertex  6.203206e+000  5.628591e+000  2.500000e+000
      vertex  6.405737e+000  5.539885e+000  1.021564e+001
      vertex  6.444387e+000  5.528691e+000  2.500000e+000
    endloop
  endfacet
  facet normal  8.493502e-001  5.278297e-001 -3.732823e-004
    outer loop
      vertex  5.815373e+000  6.034451e+000  9.206001e+000
      vertex  5.898228e+000  5.901312e+000  9.469629e+000
      vertex  5.837181e+000  5.994617e+000  2.500000e+000
    endloop
  endfacet
  facet normal  7.489985e-001  6.625676e-001  2.309469e-003
    outer loop
      vertex  5.837181e+000  5.994617e+000  2.500000e+000
      vertex  5.898228e+000  5.901312e+000  9.469629e+000
      vertex  6.011147e+000  5.772775e+000  9.724146e+000
    endloop
  endfacet
  facet normal  7.933525e-001  6.087623e-001 -4.109044e-004
    outer loop
      vertex  5.837181e+000  5.994617e+000  2.500000e+000
      vertex  6.011147e+000  5.772775e+000  9.724146e+000
      vertex  5.996099e+000  5.787510e+000  2.500000e+000
    endloop
  endfacet
  facet normal  6.397946e-001  7.685459e-001  2.348626e-004
    outer loop
      vertex  5.996099e+000  5.787510e+000  2.500000e+000
      vertex  6.011147e+000  5.772775e+000  9.724146e+000
      vertex  6.118333e+000  5.683492e+000  9.900936e+000
    endloop
  endfacet
  facet normal  6.087620e-001  7.933521e-001  1.096042e-003
    outer loop
      vertex  5.996099e+000  5.787510e+000  2.500000e+000
      vertex  6.118333e+000  5.683492e+000  9.900936e+000
      vertex  6.203206e+000  5.628591e+000  2.500000e+000
    endloop
  endfacet
  facet normal  9.376393e-001  3.476091e-001 -4.820538e-004
    outer loop
      vertex  5.815373e+000  6.034451e+000  9.206001e+000
      vertex  5.737280e+000  6.235797e+000  2.500000e+000
      vertex  5.730378e+000  6.263087e+000  8.753278e+000
    endloop
  endfacet
  facet normal  9.914447e-001  1.305266e-001  5.247028e-004
    outer loop
      vertex  5.730378e+000  6.263087e+000  8.753278e+000
      vertex  5.737280e+000  6.235797e+000  2.500000e+000
      vertex  5.703206e+000  6.494617e+000  2.500000e+000
    endloop
  endfacet
  facet normal  9.931837e-001  1.165593e-001  -0.000000e+000
    outer loop
      vertex  5.730378e+000  6.263087e+000  8.753278e+000
      vertex  5.703206e+000  6.494617e+000  2.500000e+000
      vertex  5.703206e+000  6.494617e+000  8.294826e+000
    endloop
  endfacet
  facet normal  0.000000e+000  8.926255e-001  4.507991e-001
    outer loop
      vertex -6.684599e+001  5.601991e+000  1.006232e+001
      vertex -6.374759e+001  5.601991e+000  1.006232e+001
      vertex -6.671192e+001  5.683492e+000  9.900936e+000
    endloop
  endfacet
  facet normal  -0.000000e+000  8.926254e-001  4.507990e-001
    outer loop
      vertex -6.671192e+001  5.683492e+000  9.900936e+000
      vertex -6.374759e+001  5.601991e+000  1.006232e+001
      vertex -6.388167e+001  5.683492e+000  9.900936e+000
    endloop
  endfacet
  facet normal  0.000000e+000  8.926259e-001  4.507982e-001
    outer loop
      vertex -6.671192e+001  5.683492e+000  9.900936e+000
      vertex -6.388167e+001  5.683492e+000  9.900936e+000
      vertex -6.660474e+001  5.772775e+000  9.724146e+000
    endloop
  endfacet
  facet normal  -0.000000e+000  8.926259e-001  4.507983e-001
    outer loop
      vertex -6.660474e+001  5.772775e+000  9.724146e+000
      vertex -6.388167e+001  5.683492e+000  9.900936e+000
      vertex -6.398885e+001  5.772775e+000  9.724146e+000
    endloop
  endfacet
  facet normal  0.000000e+000  8.926259e-001  4.507982e-001
    outer loop
      vertex -6.660474e+001  5.772775e+000  9.724146e+000
      vertex -6.398885e+001  5.772775e+000  9.724146e+000
      vertex -6.649181e+001  5.901312e+000  9.469629e+000
    endloop
  endfacet
  facet normal  -0.000000e+000  8.926259e-001  4.507982e-001
    outer loop
      vertex -6.649181e+001  5.901312e+000  9.469629e+000
      vertex -6.398885e+001  5.772775e+000  9.724146e+000
      vertex -6.410177e+001  5.901312e+000  9.469629e+000
    endloop
  endfacet
  facet normal  0.000000e+000  8.926266e-001  4.507968e-001
    outer loop
      vertex -6.649181e+001  5.901312e+000  9.469629e+000
      vertex -6.410177e+001  5.901312e+000  9.469629e+000
      vertex -6.640896e+001  6.034451e+000  9.206001e+000
    endloop
  endfacet
  facet normal  -0.000000e+000  8.926266e-001  4.507969e-001
    outer loop
      vertex -6.640896e+001  6.034451e+000  9.206001e+000
      vertex -6.410177e+001  5.901312e+000  9.469629e+000
      vertex -6.418462e+001  6.034451e+000  9.206001e+000
    endloop
  endfacet
  facet normal  0.000000e+000  8.926257e-001  4.507984e-001
    outer loop
      vertex -6.640896e+001  6.034451e+000  9.206001e+000
      vertex -6.418462e+001  6.034451e+000  9.206001e+000
      vertex -6.632397e+001  6.263087e+000  8.753278e+000
    endloop
  endfacet
  facet normal  -0.000000e+000  8.926257e-001  4.507984e-001
    outer loop
      vertex -6.632397e+001  6.263087e+000  8.753278e+000
      vertex -6.418462e+001  6.034451e+000  9.206001e+000
      vertex -6.426962e+001  6.263087e+000  8.753278e+000
    endloop
  endfacet
  facet normal  0.000000e+000  8.926262e-001  4.507974e-001
    outer loop
      vertex -6.632397e+001  6.263087e+000  8.753278e+000
      vertex -6.426962e+001  6.263087e+000  8.753278e+000
      vertex -6.629679e+001  6.494617e+000  8.294826e+000
    endloop
  endfacet
  facet normal  -0.000000e+000  8.926263e-001  4.507974e-001
    outer loop
      vertex -6.629679e+001  6.494617e+000  8.294826e+000
      vertex -6.426962e+001  6.263087e+000  8.753278e+000
      vertex -6.429679e+001  6.494617e+000  8.294826e+000
    endloop
  endfacet
  facet normal  0.000000e+000  8.926260e-001  4.507980e-001
    outer loop
      vertex -6.629679e+001  6.494617e+000  8.294826e+000
      vertex -6.429679e+001  6.494617e+000  8.294826e+000
      vertex -6.629679e+001  9.421145e+000  2.500000e+000
    endloop
  endfacet
  facet normal  -0.000000e+000  8.926260e-001  4.507980e-001
    outer loop
      vertex -6.629679e+001  9.421145e+000  2.500000e+000
      vertex -6.429679e+001  6.494617e+000  8.294826e+000
      vertex -6.429679e+001  9.421145e+000  2.500000e+000
    endloop
  endfacet
  facet normal  1.000000e+000  0.000000e+000  0.000000e+000
    outer loop
      vertex -6.429679e+001  6.494617e+000  2.500000e+000
      vertex -6.429679e+001  9.421145e+000  2.500000e+000
      vertex -6.429679e+001  6.494617e+000  8.294826e+000
    endloop
  endfacet
  facet normal -1.000000e+000  0.000000e+000  0.000000e+000
    outer loop
      vertex -6.629679e+001  6.494617e+000  8.294826e+000
      vertex -6.629679e+001  9.421145e+000  2.500000e+000
      vertex -6.629679e+001  6.494617e+000  2.500000e+000
    endloop
  endfacet
  facet normal  0.000000e+000  1.000000e+000  0.000000e+000
    outer loop
      vertex -7.254679e+001  5.494617e+000  1.200000e+001
      vertex -6.729679e+001  5.494617e+000  2.500000e+000
      vertex -7.254679e+001  5.494617e+000  2.500000e+000
    endloop
  endfacet
  facet normal  0.000000e+000  1.000000e+000  0.000000e+000
    outer loop
      vertex -6.729679e+001  5.494617e+000  2.500000e+000
      vertex -7.254679e+001  5.494617e+000  1.200000e+001
      vertex -6.729679e+001  5.494617e+000  1.051311e+001
    endloop
  endfacet
  facet normal  0.000000e+000  1.000000e+000  -0.000000e+000
    outer loop
      vertex -6.729679e+001  5.494617e+000  1.051311e+001
      vertex -7.254679e+001  5.494617e+000  1.200000e+001
      vertex -5.854679e+001  5.494617e+000  1.200000e+001
    endloop
  endfacet
  facet normal  0.000000e+000  1.000000e+000  0.000000e+000
    outer loop
      vertex -6.729679e+001  5.494617e+000  1.051311e+001
      vertex -5.854679e+001  5.494617e+000  1.200000e+001
      vertex -6.329679e+001  5.494617e+000  1.051311e+001
    endloop
  endfacet
  facet normal  -0.000000e+000  1.000000e+000  0.000000e+000
    outer loop
      vertex -6.329679e+001  5.494617e+000  1.051311e+001
      vertex -5.854679e+001  5.494617e+000  1.200000e+001
      vertex -5.854679e+001  5.494617e+000  2.500000e+000
    endloop
  endfacet
  facet normal  0.000000e+000  1.000000e+000  0.000000e+000
    outer loop
      vertex -6.329679e+001  5.494617e+000  1.051311e+001
      vertex -5.854679e+001  5.494617e+000  2.500000e+000
      vertex -6.329679e+001  5.494617e+000  2.500000e+000
    endloop
  endfacet
  facet normal  0.000000e+000  0.000000e+000  1.000000e+000
    outer loop
      vertex -7.254679e+001  3.494617e+000  1.200000e+001
      vertex -5.854679e+001  3.494617e+000  1.200000e+001
      vertex -7.254679e+001  5.494617e+000  1.200000e+001
    endloop
  endfacet
  facet normal  -0.000000e+000  0.000000e+000  1.000000e+000
    outer loop
      vertex -7.254679e+001  5.494617e+000  1.200000e+001
      vertex -5.854679e+001  3.494617e+000  1.200000e+001
      vertex -5.854679e+001  5.494617e+000  1.200000e+001
    endloop
  endfacet
  facet normal -1.000000e+000  0.000000e+000  0.000000e+000
    outer loop
      vertex -7.254679e+001  5.494617e+000  2.500000e+000
      vertex -7.254679e+001  3.494617e+000  2.500000e+000
      vertex -7.254679e+001  5.494617e+000  1.200000e+001
    endloop
  endfacet
  facet normal -1.000000e+000  0.000000e+000  0.000000e+000
    outer loop
      vertex -7.254679e+001  5.494617e+000  1.200000e+001
      vertex -7.254679e+001  3.494617e+000  2.500000e+000
      vertex -7.254679e+001  3.494617e+000  8.000000e+000
    endloop
  endfacet
  facet normal -1.000000e+000  0.000000e+000  0.000000e+000
    outer loop
      vertex -7.254679e+001  5.494617e+000  1.200000e+001
      vertex -7.254679e+001  3.494617e+000  8.000000e+000
      vertex -7.254679e+001  3.494617e+000  1.200000e+001
    endloop
  endfacet
  facet normal -1.000000e+000  0.000000e+000  -0.000000e+000
    outer loop
      vertex -7.254679e+001  3.494617e+000  1.200000e+001
      vertex -7.254679e+001  3.494617e+000  8.000000e+000
      vertex -7.254679e+001  1.994617e+000  8.000000e+000
    endloop
  endfacet
  facet normal  1.000000e+000  0.000000e+000  0.000000e+000
    outer loop
      vertex -5.854679e+001  3.494617e+000  1.200000e+001
      vertex -5.854679e+001  1.994617e+000  8.000000e+000
      vertex -5.854679e+001  5.494617e+000  1.200000e+001
    endloop
  endfacet
  facet normal  1.000000e+000  0.000000e+000  0.000000e+000
    outer loop
      vertex -5.854679e+001  5.494617e+000  1.200000e+001
      vertex -5.854679e+001  1.994617e+000  8.000000e+000
      vertex -5.854679e+001  3.494617e+000  8.000000e+000
    endloop
  endfacet
  facet normal  1.000000e+000  -0.000000e+000  0.000000e+000
    outer loop
      vertex -5.854679e+001  5.494617e+000  1.200000e+001
      vertex -5.854679e+001  3.494617e+000  8.000000e+000
      vertex -5.854679e+001  5.494617e+000  2.500000e+000
    endloop
  endfacet
  facet normal  1.000000e+000  0.000000e+000  0.000000e+000
    outer loop
      vertex -5.854679e+001  5.494617e+000  2.500000e+000
      vertex -5.854679e+001  3.494617e+000  8.000000e+000
      vertex -5.854679e+001  3.494617e+000  2.500000e+000
    endloop
  endfacet
  facet normal  9.238808e-001  3.826797e-001  7.308935e-004
    outer loop
      vertex -6.418462e+001  6.034451e+000  9.206001e+000
      vertex -6.416282e+001  5.994617e+000  2.500000e+000
      vertex -6.426272e+001  6.235797e+000  2.500000e+000
    endloop
  endfacet
  facet normal  2.197168e-001  9.755637e-001 -3.147524e-004
    outer loop
      vertex -6.359426e+001  5.539885e+000  1.021565e+001
      vertex -6.343673e+001  5.504457e+000  1.037317e+001
      vertex -6.355561e+001  5.528691e+000  2.500000e+000
    endloop
  endfacet
  facet normal  6.811080e-002  9.976757e-001  2.042489e-003
    outer loop
      vertex -6.355561e+001  5.528691e+000  2.500000e+000
      vertex -6.343673e+001  5.504457e+000  1.037317e+001
      vertex -6.329679e+001  5.494617e+000  1.051311e+001
    endloop
  endfacet
  facet normal  1.305264e-001  9.914448e-001  0.000000e+000
    outer loop
      vertex -6.355561e+001  5.528691e+000  2.500000e+000
      vertex -6.329679e+001  5.494617e+000  1.051311e+001
      vertex -6.329679e+001  5.494617e+000  2.500000e+000
    endloop
  endfacet
  facet normal  5.197665e-001  8.543083e-001 -3.766866e-004
    outer loop
      vertex -6.388167e+001  5.683492e+000  9.900936e+000
      vertex -6.374759e+001  5.601991e+000  1.006232e+001
      vertex -6.379679e+001  5.628591e+000  2.500000e+000
    endloop
  endfacet
  facet normal  3.747156e-001  9.271394e-001  8.232263e-004
    outer loop
      vertex -6.379679e+001  5.628591e+000  2.500000e+000
      vertex -6.374759e+001  5.601991e+000  1.006232e+001
      vertex -6.359426e+001  5.539885e+000  1.021565e+001
    endloop
  endfacet
  facet normal  3.826835e-001  9.238793e-001  5.765943e-004
    outer loop
      vertex -6.379679e+001  5.628591e+000  2.500000e+000
      vertex -6.359426e+001  5.539885e+000  1.021565e+001
      vertex -6.355561e+001  5.528691e+000  2.500000e+000
    endloop
  endfacet
  facet normal  8.493491e-001  5.278314e-001 -3.736579e-004
    outer loop
      vertex -6.418462e+001  6.034451e+000  9.206001e+000
      vertex -6.410177e+001  5.901312e+000  9.469629e+000
      vertex -6.416282e+001  5.994617e+000  2.500000e+000
    endloop
  endfacet
  facet normal  7.490131e-001  6.625512e-001  2.308763e-003
    outer loop
      vertex -6.416282e+001  5.994617e+000  2.500000e+000
      vertex -6.410177e+001  5.901312e+000  9.469629e+000
      vertex -6.398885e+001  5.772775e+000  9.724146e+000
    endloop
  endfacet
  facet normal  7.933499e-001  6.087657e-001 -4.105777e-004
    outer loop
      vertex -6.416282e+001  5.994617e+000  2.500000e+000
      vertex -6.398885e+001  5.772775e+000  9.724146e+000
      vertex -6.400390e+001  5.787510e+000  2.500000e+000
    endloop
  endfacet
  facet normal  6.397960e-001  7.685448e-001  2.351106e-004
    outer loop
      vertex -6.400390e+001  5.787510e+000  2.500000e+000
      vertex -6.398885e+001  5.772775e+000  9.724146e+000
      vertex -6.388167e+001  5.683492e+000  9.900936e+000
    endloop
  endfacet
  facet normal  6.087673e-001  7.933481e-001  1.096173e-003
    outer loop
      vertex -6.400390e+001  5.787510e+000  2.500000e+000
      vertex -6.388167e+001  5.683492e+000  9.900936e+000
      vertex -6.379679e+001  5.628591e+000  2.500000e+000
    endloop
  endfacet
  facet normal  9.376335e-001  3.476251e-001 -4.817726e-004
    outer loop
      vertex -6.418462e+001  6.034451e+000  9.206001e+000
      vertex -6.426272e+001  6.235797e+000  2.500000e+000
      vertex -6.426962e+001  6.263087e+000  8.753278e+000
    endloop
  endfacet
  facet normal  9.914454e-001  1.305213e-001  5.251051e-004
    outer loop
      vertex -6.426962e+001  6.263087e+000  8.753278e+000
      vertex -6.426272e+001  6.235797e+000  2.500000e+000
      vertex -6.429679e+001  6.494617e+000  2.500000e+000
    endloop
  endfacet
  facet normal  9.931856e-001  1.165431e-001  -0.000000e+000
    outer loop
      vertex -6.426962e+001  6.263087e+000  8.753278e+000
      vertex -6.429679e+001  6.494617e+000  2.500000e+000
      vertex -6.429679e+001  6.494617e+000  8.294826e+000
    endloop
  endfacet
  facet normal  0.000000e+000  9.268543e-001  3.754210e-001
    outer loop
      vertex -6.699933e+001  5.539885e+000  1.021564e+001
      vertex -6.374759e+001  5.601991e+000  1.006232e+001
      vertex -6.684599e+001  5.601991e+000  1.006232e+001
    endloop
  endfacet
  facet normal -1.051456e-007  9.268552e-001  3.754192e-001
    outer loop
      vertex -6.374759e+001  5.601991e+000  1.006232e+001
      vertex -6.699933e+001  5.539885e+000  1.021564e+001
      vertex -6.359426e+001  5.539885e+000  1.021565e+001
    endloop
  endfacet
  facet normal -6.145438e-008  9.756303e-001  2.194209e-001
    outer loop
      vertex -6.359426e+001  5.539885e+000  1.021565e+001
      vertex -6.699933e+001  5.539885e+000  1.021564e+001
      vertex -6.715685e+001  5.504457e+000  1.037317e+001
    endloop
  endfacet
  facet normal  -0.000000e+000  9.756299e-001  2.194222e-001
    outer loop
      vertex -6.359426e+001  5.539885e+000  1.021565e+001
      vertex -6.715685e+001  5.504457e+000  1.037317e+001
      vertex -6.343673e+001  5.504457e+000  1.037317e+001
    endloop
  endfacet
  facet normal  0.000000e+000  9.975370e-001  7.014261e-002
    outer loop
      vertex -6.343673e+001  5.504457e+000  1.037317e+001
      vertex -6.715685e+001  5.504457e+000  1.037317e+001
      vertex -6.729679e+001  5.494617e+000  1.051311e+001
    endloop
  endfacet
  facet normal  -0.000000e+000  9.975370e-001  7.014261e-002
    outer loop
      vertex -6.343673e+001  5.504457e+000  1.037317e+001
      vertex -6.729679e+001  5.494617e+000  1.051311e+001
      vertex -6.329679e+001  5.494617e+000  1.051311e+001
    endloop
  endfacet
  facet normal -9.238808e-001  3.826797e-001  7.319446e-004
    outer loop
      vertex -6.643077e+001  5.994617e+000  2.500000e+000
      vertex -6.640896e+001  6.034451e+000  9.206001e+000
      vertex -6.633087e+001  6.235797e+000  2.500000e+000
    endloop
  endfacet
  facet normal -8.493482e-001  5.278327e-001 -3.727024e-004
    outer loop
      vertex -6.649181e+001  5.901312e+000  9.469629e+000
      vertex -6.640896e+001  6.034451e+000  9.206001e+000
      vertex -6.643077e+001  5.994617e+000  2.500000e+000
    endloop
  endfacet
  facet normal -9.376435e-001  3.475978e-001 -4.816423e-004
    outer loop
      vertex -6.640896e+001  6.034451e+000  9.206001e+000
      vertex -6.632397e+001  6.263087e+000  8.753278e+000
      vertex -6.633087e+001  6.235797e+000  2.500000e+000
    endloop
  endfacet
  facet normal -9.930474e-001  1.177136e-001  5.827679e-004
    outer loop
      vertex -6.633087e+001  6.235797e+000  2.500000e+000
      vertex -6.632397e+001  6.263087e+000  8.753278e+000
      vertex -6.629679e+001  6.494617e+000  8.294826e+000
    endloop
  endfacet
  facet normal -9.914417e-001  1.305500e-001  0.000000e+000
    outer loop
      vertex -6.633087e+001  6.235797e+000  2.500000e+000
      vertex -6.629679e+001  6.494617e+000  8.294826e+000
      vertex -6.629679e+001  6.494617e+000  2.500000e+000
    endloop
  endfacet
  facet normal -5.197774e-001  8.543017e-001 -3.767807e-004
    outer loop
      vertex -6.684599e+001  5.601991e+000  1.006232e+001
      vertex -6.671192e+001  5.683492e+000  9.900936e+000
      vertex -6.679679e+001  5.628591e+000  2.500000e+000
    endloop
  endfacet
  facet normal -6.384531e-001  7.696590e-001  1.612006e-003
    outer loop
      vertex -6.679679e+001  5.628591e+000  2.500000e+000
      vertex -6.671192e+001  5.683492e+000  9.900936e+000
      vertex -6.660474e+001  5.772775e+000  9.724146e+000
    endloop
  endfacet
  facet normal -6.087605e-001  7.933540e-001  3.497050e-004
    outer loop
      vertex -6.679679e+001  5.628591e+000  2.500000e+000
      vertex -6.660474e+001  5.772775e+000  9.724146e+000
      vertex -6.658968e+001  5.787510e+000  2.500000e+000
    endloop
  endfacet
  facet normal -7.514803e-001  6.597556e-001 -2.201712e-004
    outer loop
      vertex -6.658968e+001  5.787510e+000  2.500000e+000
      vertex -6.660474e+001  5.772775e+000  9.724146e+000
      vertex -6.649181e+001  5.901312e+000  9.469629e+000
    endloop
  endfacet
  facet normal -7.933635e-001  6.087469e-001  1.200853e-003
    outer loop
      vertex -6.658968e+001  5.787510e+000  2.500000e+000
      vertex -6.649181e+001  5.901312e+000  9.469629e+000
      vertex -6.643077e+001  5.994617e+000  2.500000e+000
    endloop
  endfacet
  facet normal -2.197270e-001  9.755613e-001 -3.149148e-004
    outer loop
      vertex -6.715685e+001  5.504457e+000  1.037317e+001
      vertex -6.699933e+001  5.539885e+000  1.021564e+001
      vertex -6.703797e+001  5.528691e+000  2.500000e+000
    endloop
  endfacet
  facet normal -3.749491e-001  9.270452e-001  5.328861e-004
    outer loop
      vertex -6.703797e+001  5.528691e+000  2.500000e+000
      vertex -6.699933e+001  5.539885e+000  1.021564e+001
      vertex -6.684599e+001  5.601991e+000  1.006232e+001
    endloop
  endfacet
  facet normal -3.826835e-001  9.238791e-001  7.599181e-004
    outer loop
      vertex -6.703797e+001  5.528691e+000  2.500000e+000
      vertex -6.684599e+001  5.601991e+000  1.006232e+001
      vertex -6.679679e+001  5.628591e+000  2.500000e+000
    endloop
  endfacet
  facet normal -7.014357e-002  9.975370e-001  0.000000e+000
    outer loop
      vertex -6.729679e+001  5.494617e+000  1.051311e+001
      vertex -6.715685e+001  5.504457e+000  1.037317e+001
      vertex -6.729679e+001  5.494617e+000  2.500000e+000
    endloop
  endfacet
  facet normal -1.305264e-001  9.914442e-001  1.080863e-003
    outer loop
      vertex -6.729679e+001  5.494617e+000  2.500000e+000
      vertex -6.715685e+001  5.504457e+000  1.037317e+001
      vertex -6.703797e+001  5.528691e+000  2.500000e+000
    endloop
  endfacet
  facet normal  0.000000e+000 -9.363292e-001  3.511235e-001
    outer loop
      vertex -5.854679e+001  3.494617e+000  1.200000e+001
      vertex -7.254679e+001  3.494617e+000  1.200000e+001
      vertex -5.854679e+001  1.994617e+000  8.000000e+000
    endloop
  endfacet
  facet normal  0.000000e+000 -9.363292e-001  3.511235e-001
    outer loop
      vertex -5.854679e+001  1.994617e+000  8.000000e+000
      vertex -7.254679e+001  3.494617e+000  1.200000e+001
      vertex -7.254679e+001  1.994617e+000  8.000000e+000
    endloop
  endfacet
  facet normal  0.000000e+000  0.000000e+000 -1.000000e+000
    outer loop
      vertex -5.854679e+001  1.994617e+000  8.000000e+000
      vertex -7.254679e+001  1.994617e+000  8.000000e+000
      vertex -5.854679e+001  3.494617e+000  8.000000e+000
    endloop
  endfacet
  facet normal  -0.000000e+000  0.000000e+000 -1.000000e+000
    outer loop
      vertex -5.854679e+001  3.494617e+000  8.000000e+000
      vertex -7.254679e+001  1.994617e+000  8.000000e+000
      vertex -7.254679e+001  3.494617e+000  8.000000e+000
    endloop
  endfacet
  facet normal  0.000000e+000 -1.000000e+000  0.000000e+000
    outer loop
      vertex -5.854679e+001  3.494617e+000  8.000000e+000
      vertex -7.254679e+001  3.494617e+000  8.000000e+000
      vertex -5.854679e+001  3.494617e+000  2.500000e+000
    endloop
  endfacet
  facet normal  0.000000e+000 -1.000000e+000  0.000000e+000
    outer loop
      vertex -5.854679e+001  3.494617e+000  2.500000e+000
      vertex -7.254679e+001  3.494617e+000  8.000000e+000
      vertex -7.254679e+001  3.494617e+000  2.500000e+000
    endloop
  endfacet
  facet normal  0.000000e+000  0.000000e+000 -1.000000e+000
    outer loop
      vertex -8.055807e+001 -2.005383e+000  0.000000e+000
      vertex -8.055807e+001  1.299462e+001  0.000000e+000
      vertex  1.944193e+001 -2.005383e+000  0.000000e+000
    endloop
  endfacet
  facet normal  0.000000e+000  0.000000e+000 -1.000000e+000
    outer loop
      vertex  1.944193e+001 -2.005383e+000  0.000000e+000
      vertex -8.055807e+001  1.299462e+001  0.000000e+000
      vertex  1.944193e+001  1.299462e+001  0.000000e+000
    endloop
  endfacet
  facet normal  0.000000e+000 -1.000000e+000  0.000000e+000
    outer loop
      vertex  1.145321e+001  3.494617e+000  8.000000e+000
      vertex -2.546794e+000  3.494617e+000  8.000000e+000
      vertex  1.145321e+001  3.494617e+000  2.500000e+000
    endloop
  endfacet
  facet normal  0.000000e+000 -1.000000e+000  0.000000e+000
    outer loop
      vertex  1.145321e+001  3.494617e+000  2.500000e+000
      vertex -2.546794e+000  3.494617e+000  8.000000e+000
      vertex -2.546794e+000  3.494617e+000  2.500000e+000
    endloop
  endfacet
  facet normal  0.000000e+000  0.000000e+000 -1.000000e+000
    outer loop
      vertex  1.145321e+001  1.994617e+000  8.000000e+000
      vertex -2.546794e+000  1.994617e+000  8.000000e+000
      vertex  1.145321e+001  3.494617e+000  8.000000e+000
    endloop
  endfacet
  facet normal  -0.000000e+000  0.000000e+000 -1.000000e+000
    outer loop
      vertex  1.145321e+001  3.494617e+000  8.000000e+000
      vertex -2.546794e+000  1.994617e+000  8.000000e+000
      vertex -2.546794e+000  3.494617e+000  8.000000e+000
    endloop
  endfacet
  facet normal  0.000000e+000 -9.363292e-001  3.511235e-001
    outer loop
      vertex  1.145321e+001  3.494617e+000  1.200000e+001
      vertex -2.546794e+000  3.494617e+000  1.200000e+001
      vertex  1.145321e+001  1.994617e+000  8.000000e+000
    endloop
  endfacet
  facet normal  0.000000e+000 -9.363292e-001  3.511235e-001
    outer loop
      vertex  1.145321e+001  1.994617e+000  8.000000e+000
      vertex -2.546794e+000  3.494617e+000  1.200000e+001
      vertex -2.546794e+000  1.994617e+000  8.000000e+000
    endloop
  endfacet
  facet normal  0.000000e+000  1.000000e+000  0.000000e+000
    outer loop
      vertex -8.055807e+001  1.299462e+001  2.500000e+000
      vertex  1.944193e+001  1.299462e+001  2.500000e+000
      vertex -8.055807e+001  1.299462e+001  0.000000e+000
    endloop
  endfacet
  facet normal  0.000000e+000  1.000000e+000  0.000000e+000
    outer loop
      vertex -8.055807e+001  1.299462e+001  0.000000e+000
      vertex  1.944193e+001  1.299462e+001  2.500000e+000
      vertex  1.944193e+001  1.299462e+001  0.000000e+000
    endloop
  endfacet
endsolid CATIA STL
