solid CATIA STL
  facet normal  0.000000e+000 -1.000000e+000  -0.000000e+000
    outer loop
      vertex  3.552714e-015  0.000000e+000 -8.500000e+000
      vertex  0.000000e+000  0.000000e+000  0.000000e+000
      vertex -1.500000e+000  0.000000e+000 -8.500000e+000
    endloop
  endfacet
  facet normal  0.000000e+000 -1.000000e+000  0.000000e+000
    outer loop
      vertex -1.500000e+000  0.000000e+000  1.500000e+000
      vertex -1.500000e+000  0.000000e+000 -8.500000e+000
      vertex  0.000000e+000  0.000000e+000  0.000000e+000
    endloop
  endfacet
  facet normal  2.775558e-016 -1.000000e+000  2.775558e-016
    outer loop
      vertex -1.500000e+000  0.000000e+000  1.500000e+000
      vertex  0.000000e+000  0.000000e+000  0.000000e+000
      vertex  3.200000e+000  8.881784e-016  0.000000e+000
    endloop
  endfacet
  facet normal -6.938894e-017 -1.000000e+000 -8.095376e-016
    outer loop
      vertex -1.500000e+000  0.000000e+000  1.500000e+000
      vertex  3.200000e+000  8.881784e-016  0.000000e+000
      vertex  1.600000e+001  0.000000e+000  0.000000e+000
    endloop
  endfacet
  facet normal  0.000000e+000 -1.000000e+000  0.000000e+000
    outer loop
      vertex -1.500000e+000  0.000000e+000  1.500000e+000
      vertex  1.600000e+001  0.000000e+000  0.000000e+000
      vertex  1.900000e+001  0.000000e+000  0.000000e+000
    endloop
  endfacet
  facet normal  0.000000e+000 -1.000000e+000  0.000000e+000
    outer loop
      vertex -1.500000e+000  0.000000e+000  1.500000e+000
      vertex  1.900000e+001  0.000000e+000  0.000000e+000
      vertex  2.050000e+001  0.000000e+000  1.500000e+000
    endloop
  endfacet
  facet normal -6.938894e-017 -1.000000e+000  9.992007e-016
    outer loop
      vertex  1.600000e+001  0.000000e+000  0.000000e+000
      vertex  3.200000e+000  8.881784e-016  0.000000e+000
      vertex  1.600000e+001 -3.996803e-015 -4.000000e+000
    endloop
  endfacet
  facet normal -3.816392e-016 -1.000000e+000  0.000000e+000
    outer loop
      vertex  1.600000e+001 -3.996803e-015 -4.000000e+000
      vertex  3.200000e+000  8.881784e-016  0.000000e+000
      vertex  3.200000e+000  8.881784e-016 -4.000000e+000
    endloop
  endfacet
  facet normal  0.000000e+000 -1.000000e+000  0.000000e+000
    outer loop
      vertex  2.050000e+001  0.000000e+000  1.500000e+000
      vertex  1.900000e+001  0.000000e+000  0.000000e+000
      vertex  2.050000e+001  0.000000e+000 -8.500000e+000
    endloop
  endfacet
  facet normal  0.000000e+000 -1.000000e+000  0.000000e+000
    outer loop
      vertex  2.050000e+001  0.000000e+000 -8.500000e+000
      vertex  1.900000e+001  0.000000e+000  0.000000e+000
      vertex  1.900000e+001  0.000000e+000 -8.500000e+000
    endloop
  endfacet
  facet normal  1.000000e+000  -0.000000e+000  0.000000e+000
    outer loop
      vertex  1.600000e+001  1.500000e+000  0.000000e+000
      vertex  1.600000e+001  0.000000e+000  0.000000e+000
      vertex  1.600000e+001  1.500000e+000 -4.000000e+000
    endloop
  endfacet
  facet normal  1.000000e+000  0.000000e+000  0.000000e+000
    outer loop
      vertex  1.600000e+001  1.500000e+000 -4.000000e+000
      vertex  1.600000e+001  0.000000e+000  0.000000e+000
      vertex  1.600000e+001 -3.996803e-015 -4.000000e+000
    endloop
  endfacet
  facet normal -1.000000e+000  -0.000000e+000  0.000000e+000
    outer loop
      vertex  3.200000e+000  8.881784e-016  0.000000e+000
      vertex  3.200000e+000  1.500000e+000  0.000000e+000
      vertex  3.200000e+000  8.881784e-016 -4.000000e+000
    endloop
  endfacet
  facet normal -1.000000e+000  0.000000e+000  0.000000e+000
    outer loop
      vertex  3.200000e+000  8.881784e-016 -4.000000e+000
      vertex  3.200000e+000  1.500000e+000  0.000000e+000
      vertex  3.200000e+000  1.500000e+000 -4.000000e+000
    endloop
  endfacet
  facet normal  0.000000e+000  0.000000e+000 -1.000000e+000
    outer loop
      vertex -8.850807e-001  3.034032e+001  0.000000e+000
      vertex -1.257446e+000  3.081561e+001  0.000000e+000
      vertex  1.884229e+001  3.000666e+001  0.000000e+000
    endloop
  endfacet
  facet normal  0.000000e+000  0.000000e+000 -1.000000e+000
    outer loop
      vertex  1.896054e+001  2.875581e+001  0.000000e+000
      vertex -1.452909e-001  2.869658e+001  0.000000e+000
      vertex -3.249188e-001  2.927302e+001  0.000000e+000
    endloop
  endfacet
  facet normal  0.000000e+000  0.000000e+000 -1.000000e+000
    outer loop
      vertex -2.500000e+001  3.250000e+001  0.000000e+000
      vertex -2.500000e+001  4.750000e+001  0.000000e+000
      vertex -1.000000e+000  4.750000e+001  0.000000e+000
    endloop
  endfacet
  facet normal  0.000000e+000  -0.000000e+000 -1.000000e+000
    outer loop
      vertex -2.500000e+001  3.250000e+001  0.000000e+000
      vertex -1.000000e+000  4.750000e+001  0.000000e+000
      vertex  2.558104e-001  4.746053e+001  0.000000e+000
    endloop
  endfacet
  facet normal  0.000000e+000  -0.000000e+000 -1.000000e+000
    outer loop
      vertex -2.500000e+001  3.250000e+001  0.000000e+000
      vertex  2.558104e-001  4.746053e+001  0.000000e+000
      vertex  1.506665e+000  4.734229e+001  0.000000e+000
    endloop
  endfacet
  facet normal  0.000000e+000  -0.000000e+000 -1.000000e+000
    outer loop
      vertex -2.500000e+001  3.250000e+001  0.000000e+000
      vertex  1.506665e+000  4.734229e+001  0.000000e+000
      vertex  2.747626e+000  4.714574e+001  0.000000e+000
    endloop
  endfacet
  facet normal  0.000000e+000  -0.000000e+000 -1.000000e+000
    outer loop
      vertex -2.500000e+001  3.250000e+001  0.000000e+000
      vertex  2.747626e+000  4.714574e+001  0.000000e+000
      vertex  3.973798e+000  4.687166e+001  0.000000e+000
    endloop
  endfacet
  facet normal  0.000000e+000  -0.000000e+000 -9.999999e-001
    outer loop
      vertex -2.500000e+001  3.250000e+001  0.000000e+000
      vertex  3.973798e+000  4.687166e+001  0.000000e+000
      vertex  5.180340e+000  4.652113e+001  0.000000e+000
    endloop
  endfacet
  facet normal  0.000000e+000  -0.000000e+000 -1.000000e+000
    outer loop
      vertex -2.500000e+001  3.250000e+001  0.000000e+000
      vertex  5.180340e+000  4.652113e+001  0.000000e+000
      vertex  6.362491e+000  4.609553e+001  0.000000e+000
    endloop
  endfacet
  facet normal  0.000000e+000  -0.000000e+000 -1.000000e+000
    outer loop
      vertex -2.500000e+001  3.250000e+001  0.000000e+000
      vertex  6.362491e+000  4.609553e+001  0.000000e+000
      vertex  7.515586e+000  4.559654e+001  0.000000e+000
    endloop
  endfacet
  facet normal  0.000000e+000  -0.000000e+000 -1.000000e+000
    outer loop
      vertex -2.500000e+001  3.250000e+001  0.000000e+000
      vertex  7.515586e+000  4.559654e+001  0.000000e+000
      vertex  8.635074e+000  4.502613e+001  0.000000e+000
    endloop
  endfacet
  facet normal  0.000000e+000  -0.000000e+000 -1.000000e+000
    outer loop
      vertex -2.500000e+001  3.250000e+001  0.000000e+000
      vertex  8.635074e+000  4.502613e+001  0.000000e+000
      vertex  9.716536e+000  4.438656e+001  0.000000e+000
    endloop
  endfacet
  facet normal  0.000000e+000  -0.000000e+000 -1.000000e+000
    outer loop
      vertex -2.500000e+001  3.250000e+001  0.000000e+000
      vertex  9.716536e+000  4.438656e+001  0.000000e+000
      vertex  1.075570e+001  4.368034e+001  0.000000e+000
    endloop
  endfacet
  facet normal  0.000000e+000  -0.000000e+000 -1.000000e+000
    outer loop
      vertex -2.500000e+001  3.250000e+001  0.000000e+000
      vertex  1.075570e+001  4.368034e+001  0.000000e+000
      vertex  1.174848e+001  4.291026e+001  0.000000e+000
    endloop
  endfacet
  facet normal  0.000000e+000  -0.000000e+000 -1.000000e+000
    outer loop
      vertex -2.500000e+001  3.250000e+001  0.000000e+000
      vertex  1.174848e+001  4.291026e+001  0.000000e+000
      vertex  1.269094e+001  4.207937e+001  0.000000e+000
    endloop
  endfacet
  facet normal  0.000000e+000  -0.000000e+000 -1.000000e+000
    outer loop
      vertex -2.500000e+001  3.250000e+001  0.000000e+000
      vertex  1.269094e+001  4.207937e+001  0.000000e+000
      vertex  1.357937e+001  4.119094e+001  0.000000e+000
    endloop
  endfacet
  facet normal  0.000000e+000  -0.000000e+000 -1.000000e+000
    outer loop
      vertex -2.500000e+001  3.250000e+001  0.000000e+000
      vertex  1.357937e+001  4.119094e+001  0.000000e+000
      vertex  1.441026e+001  4.024848e+001  0.000000e+000
    endloop
  endfacet
  facet normal  0.000000e+000  -0.000000e+000 -1.000000e+000
    outer loop
      vertex -2.500000e+001  3.250000e+001  0.000000e+000
      vertex  1.441026e+001  4.024848e+001  0.000000e+000
      vertex  1.518034e+001  3.925571e+001  0.000000e+000
    endloop
  endfacet
  facet normal  0.000000e+000  -0.000000e+000 -1.000000e+000
    outer loop
      vertex -2.500000e+001  3.250000e+001  0.000000e+000
      vertex  1.518034e+001  3.925571e+001  0.000000e+000
      vertex  1.588656e+001  3.821654e+001  0.000000e+000
    endloop
  endfacet
  facet normal  0.000000e+000  -0.000000e+000 -1.000000e+000
    outer loop
      vertex -2.500000e+001  3.250000e+001  0.000000e+000
      vertex  1.588656e+001  3.821654e+001  0.000000e+000
      vertex  1.652613e+001  3.713507e+001  0.000000e+000
    endloop
  endfacet
  facet normal  0.000000e+000  -0.000000e+000 -1.000000e+000
    outer loop
      vertex -2.500000e+001  3.250000e+001  0.000000e+000
      vertex  1.652613e+001  3.713507e+001  0.000000e+000
      vertex  1.709654e+001  3.601559e+001  0.000000e+000
    endloop
  endfacet
  facet normal  0.000000e+000  -0.000000e+000 -1.000000e+000
    outer loop
      vertex -2.500000e+001  3.250000e+001  0.000000e+000
      vertex  1.709654e+001  3.601559e+001  0.000000e+000
      vertex  1.759553e+001  3.486249e+001  0.000000e+000
    endloop
  endfacet
  facet normal  0.000000e+000  -0.000000e+000 -9.999999e-001
    outer loop
      vertex -2.500000e+001  3.250000e+001  0.000000e+000
      vertex  1.759553e+001  3.486249e+001  0.000000e+000
      vertex  1.802113e+001  3.368034e+001  0.000000e+000
    endloop
  endfacet
  facet normal  0.000000e+000  0.000000e+000 -1.000000e+000
    outer loop
      vertex -2.500000e+001  3.250000e+001  0.000000e+000
      vertex  1.802113e+001  3.368034e+001  0.000000e+000
      vertex -5.000000e+000  3.250000e+001  0.000000e+000
    endloop
  endfacet
  facet normal  0.000000e+000  0.000000e+000 -1.000000e+000
    outer loop
      vertex  1.864574e+001  3.124763e+001  0.000000e+000
      vertex  1.884229e+001  3.000666e+001  0.000000e+000
      vertex -1.257446e+000  3.081561e+001  0.000000e+000
    endloop
  endfacet
  facet normal  0.000000e+000  0.000000e+000 -1.000000e+000
    outer loop
      vertex  1.864574e+001  3.124763e+001  0.000000e+000
      vertex -1.257446e+000  3.081561e+001  0.000000e+000
      vertex -1.684387e+000  3.124255e+001  0.000000e+000
    endloop
  endfacet
  facet normal  0.000000e+000  0.000000e+000 -1.000000e+000
    outer loop
      vertex  1.864574e+001  3.124763e+001  0.000000e+000
      vertex -1.684387e+000  3.124255e+001  0.000000e+000
      vertex -2.159676e+000  3.161492e+001  0.000000e+000
    endloop
  endfacet
  facet normal  0.000000e+000  0.000000e+000 -1.000000e+000
    outer loop
      vertex  1.864574e+001  3.124763e+001  0.000000e+000
      vertex -2.159676e+000  3.161492e+001  0.000000e+000
      vertex -2.676384e+000  3.192728e+001  0.000000e+000
    endloop
  endfacet
  facet normal  0.000000e+000  0.000000e+000 -1.000000e+000
    outer loop
      vertex  1.864574e+001  3.124763e+001  0.000000e+000
      vertex -2.676384e+000  3.192728e+001  0.000000e+000
      vertex -3.226976e+000  3.217508e+001  0.000000e+000
    endloop
  endfacet
  facet normal  0.000000e+000  0.000000e+000 -1.000000e+000
    outer loop
      vertex  1.864574e+001  3.124763e+001  0.000000e+000
      vertex -3.226976e+000  3.217508e+001  0.000000e+000
      vertex -3.803422e+000  3.235471e+001  0.000000e+000
    endloop
  endfacet
  facet normal  0.000000e+000  0.000000e+000 -1.000000e+000
    outer loop
      vertex  1.864574e+001  3.124763e+001  0.000000e+000
      vertex -3.803422e+000  3.235471e+001  0.000000e+000
      vertex -4.397316e+000  3.246354e+001  0.000000e+000
    endloop
  endfacet
  facet normal  0.000000e+000  0.000000e+000 -9.999999e-001
    outer loop
      vertex  1.864574e+001  3.124763e+001  0.000000e+000
      vertex -4.397316e+000  3.246354e+001  0.000000e+000
      vertex  1.837166e+001  3.247380e+001  0.000000e+000
    endloop
  endfacet
  facet normal  0.000000e+000  0.000000e+000 -1.000000e+000
    outer loop
      vertex  1.600000e+001  1.500000e+000  0.000000e+000
      vertex  1.900000e+001  0.000000e+000  0.000000e+000
      vertex  1.600000e+001  0.000000e+000  0.000000e+000
    endloop
  endfacet
  facet normal  0.000000e+000  0.000000e+000 -9.999999e-001
    outer loop
      vertex  1.900000e+001  0.000000e+000  0.000000e+000
      vertex  1.600000e+001  1.500000e+000  0.000000e+000
      vertex  1.900000e+001  2.750000e+001  0.000000e+000
    endloop
  endfacet
  facet normal  0.000000e+000  0.000000e+000 -1.000000e+000
    outer loop
      vertex  1.900000e+001  2.750000e+001  0.000000e+000
      vertex  1.600000e+001  1.500000e+000  0.000000e+000
      vertex  3.200000e+000  1.500000e+000  0.000000e+000
    endloop
  endfacet
  facet normal  0.000000e+000  0.000000e+000 -1.000000e+000
    outer loop
      vertex  1.900000e+001  2.750000e+001  0.000000e+000
      vertex  3.200000e+000  1.500000e+000  0.000000e+000
      vertex  7.105427e-015  2.750000e+001  0.000000e+000
    endloop
  endfacet
  facet normal  0.000000e+000  0.000000e+000 -1.000000e+000
    outer loop
      vertex  7.105427e-015  2.750000e+001  0.000000e+000
      vertex  3.200000e+000  1.500000e+000  0.000000e+000
      vertex  3.200000e+000  8.881784e-016  0.000000e+000
    endloop
  endfacet
  facet normal  -0.000000e+000  0.000000e+000 -1.000000e+000
    outer loop
      vertex  7.105427e-015  2.750000e+001  0.000000e+000
      vertex  3.200000e+000  8.881784e-016  0.000000e+000
      vertex  0.000000e+000  0.000000e+000  0.000000e+000
    endloop
  endfacet
  facet normal  0.000000e+000  0.000000e+000 -1.000000e+000
    outer loop
      vertex -4.397316e+000  3.246354e+001  0.000000e+000
      vertex -5.000000e+000  3.250000e+001  0.000000e+000
      vertex  1.837166e+001  3.247380e+001  0.000000e+000
    endloop
  endfacet
  facet normal  0.000000e+000  0.000000e+000 -1.000000e+000
    outer loop
      vertex  1.837166e+001  3.247380e+001  0.000000e+000
      vertex -5.000000e+000  3.250000e+001  0.000000e+000
      vertex  1.802113e+001  3.368034e+001  0.000000e+000
    endloop
  endfacet
  facet normal  -0.000000e+000  0.000000e+000 -1.000000e+000
    outer loop
      vertex -8.850807e-001  3.034032e+001  0.000000e+000
      vertex  1.884229e+001  3.000666e+001  0.000000e+000
      vertex -5.727199e-001  2.982362e+001  0.000000e+000
    endloop
  endfacet
  facet normal  0.000000e+000  0.000000e+000 -1.000000e+000
    outer loop
      vertex -5.727199e-001  2.982362e+001  0.000000e+000
      vertex  1.884229e+001  3.000666e+001  0.000000e+000
      vertex  1.896054e+001  2.875581e+001  0.000000e+000
    endloop
  endfacet
  facet normal  0.000000e+000  0.000000e+000 -1.000000e+000
    outer loop
      vertex -5.727199e-001  2.982362e+001  0.000000e+000
      vertex  1.896054e+001  2.875581e+001  0.000000e+000
      vertex -3.249188e-001  2.927302e+001  0.000000e+000
    endloop
  endfacet
  facet normal  0.000000e+000  0.000000e+000 -1.000000e+000
    outer loop
      vertex  7.105427e-015  2.750000e+001  0.000000e+000
      vertex -3.645563e-002  2.810268e+001  0.000000e+000
      vertex  1.900000e+001  2.750000e+001  0.000000e+000
    endloop
  endfacet
  facet normal  0.000000e+000  0.000000e+000 -9.999999e-001
    outer loop
      vertex  1.900000e+001  2.750000e+001  0.000000e+000
      vertex -3.645563e-002  2.810268e+001  0.000000e+000
      vertex -1.452909e-001  2.869658e+001  0.000000e+000
    endloop
  endfacet
  facet normal  0.000000e+000  0.000000e+000 -1.000000e+000
    outer loop
      vertex  1.900000e+001  2.750000e+001  0.000000e+000
      vertex -1.452909e-001  2.869658e+001  0.000000e+000
      vertex  1.896054e+001  2.875581e+001  0.000000e+000
    endloop
  endfacet
  facet normal  0.000000e+000  1.000000e+000  0.000000e+000
    outer loop
      vertex  1.600000e+001  1.500000e+000 -4.000000e+000
      vertex  3.200000e+000  1.500000e+000 -4.000000e+000
      vertex  1.600000e+001  1.500000e+000  0.000000e+000
    endloop
  endfacet
  facet normal  0.000000e+000  1.000000e+000  0.000000e+000
    outer loop
      vertex  1.600000e+001  1.500000e+000  0.000000e+000
      vertex  3.200000e+000  1.500000e+000 -4.000000e+000
      vertex  3.200000e+000  1.500000e+000  0.000000e+000
    endloop
  endfacet
  facet normal  -0.000000e+000  0.000000e+000 -1.000000e+000
    outer loop
      vertex  3.200000e+000  1.500000e+000 -4.000000e+000
      vertex  1.600000e+001  1.500000e+000 -4.000000e+000
      vertex  3.200000e+000  8.881784e-016 -4.000000e+000
    endloop
  endfacet
  facet normal  0.000000e+000  0.000000e+000 -1.000000e+000
    outer loop
      vertex  3.200000e+000  8.881784e-016 -4.000000e+000
      vertex  1.600000e+001  1.500000e+000 -4.000000e+000
      vertex  1.600000e+001 -3.996803e-015 -4.000000e+000
    endloop
  endfacet
  facet normal -1.000000e+000  -0.000000e+000  0.000000e+000
    outer loop
      vertex -1.500000e+000  0.000000e+000  1.500000e+000
      vertex -1.500000e+000  2.750000e+001  1.500000e+000
      vertex -1.500000e+000  0.000000e+000 -8.500000e+000
    endloop
  endfacet
  facet normal -1.000000e+000  0.000000e+000  0.000000e+000
    outer loop
      vertex -1.500000e+000  0.000000e+000 -8.500000e+000
      vertex -1.500000e+000  2.750000e+001  1.500000e+000
      vertex -1.500000e+000  2.750000e+001 -8.500000e+000
    endloop
  endfacet
  facet normal  0.000000e+000 -1.000000e+000  0.000000e+000
    outer loop
      vertex -5.000000e+000  3.100000e+001  1.500000e+000
      vertex -2.500000e+001  3.100000e+001  1.500000e+000
      vertex -5.000000e+000  3.100000e+001 -8.500000e+000
    endloop
  endfacet
  facet normal  0.000000e+000 -1.000000e+000  0.000000e+000
    outer loop
      vertex -5.000000e+000  3.100000e+001 -8.500000e+000
      vertex -2.500000e+001  3.100000e+001  1.500000e+000
      vertex -2.500000e+001  3.100000e+001 -8.500000e+000
    endloop
  endfacet
  facet normal  0.000000e+000  1.000000e+000  0.000000e+000
    outer loop
      vertex -1.000000e+000  4.900000e+001 -8.500000e+000
      vertex -2.500000e+001  4.900000e+001 -8.500000e+000
      vertex -1.000000e+000  4.900000e+001  1.500000e+000
    endloop
  endfacet
  facet normal  0.000000e+000  1.000000e+000  0.000000e+000
    outer loop
      vertex -1.000000e+000  4.900000e+001  1.500000e+000
      vertex -2.500000e+001  4.900000e+001 -8.500000e+000
      vertex -2.500000e+001  4.900000e+001  1.500000e+000
    endloop
  endfacet
  facet normal  1.000000e+000  0.000000e+000  0.000000e+000
    outer loop
      vertex  2.050000e+001  0.000000e+000 -8.500000e+000
      vertex  2.050000e+001  2.750000e+001 -8.500000e+000
      vertex  2.050000e+001  0.000000e+000  1.500000e+000
    endloop
  endfacet
  facet normal  1.000000e+000  -0.000000e+000  0.000000e+000
    outer loop
      vertex  2.050000e+001  0.000000e+000  1.500000e+000
      vertex  2.050000e+001  2.750000e+001 -8.500000e+000
      vertex  2.050000e+001  2.750000e+001  1.500000e+000
    endloop
  endfacet
  facet normal  0.000000e+000  0.000000e+000  1.000000e+000
    outer loop
      vertex  2.046077e+001  2.879814e+001  1.500000e+000
      vertex -2.354877e+000  2.979201e+001  1.500000e+000
      vertex -2.055613e+000  2.939224e+001  1.500000e+000
    endloop
  endfacet
  facet normal  0.000000e+000  0.000000e+000  1.000000e+000
    outer loop
      vertex  2.046077e+001  2.879814e+001  1.500000e+000
      vertex -2.055613e+000  2.939224e+001  1.500000e+000
      vertex -1.816288e+000  2.895395e+001  1.500000e+000
    endloop
  endfacet
  facet normal  0.000000e+000  0.000000e+000  9.999999e-001
    outer loop
      vertex  2.050000e+001  2.750000e+001  1.500000e+000
      vertex  2.046077e+001  2.879814e+001  1.500000e+000
      vertex -1.816288e+000  2.895395e+001  1.500000e+000
    endloop
  endfacet
  facet normal  0.000000e+000  0.000000e+000  1.000000e+000
    outer loop
      vertex  2.050000e+001  2.750000e+001  1.500000e+000
      vertex -1.816288e+000  2.895395e+001  1.500000e+000
      vertex -1.641775e+000  2.848606e+001  1.500000e+000
    endloop
  endfacet
  facet normal  0.000000e+000  0.000000e+000  1.000000e+000
    outer loop
      vertex  2.050000e+001  2.750000e+001  1.500000e+000
      vertex -1.641775e+000  2.848606e+001  1.500000e+000
      vertex -1.535625e+000  2.799810e+001  1.500000e+000
    endloop
  endfacet
  facet normal  0.000000e+000  0.000000e+000  1.000000e+000
    outer loop
      vertex  2.050000e+001  2.750000e+001  1.500000e+000
      vertex -1.535625e+000  2.799810e+001  1.500000e+000
      vertex -1.500000e+000  2.750000e+001  1.500000e+000
    endloop
  endfacet
  facet normal  -0.000000e+000  0.000000e+000  1.000000e+000
    outer loop
      vertex  2.050000e+001  2.750000e+001  1.500000e+000
      vertex -1.500000e+000  2.750000e+001  1.500000e+000
      vertex -1.500000e+000  0.000000e+000  1.500000e+000
    endloop
  endfacet
  facet normal  0.000000e+000  0.000000e+000  1.000000e+000
    outer loop
      vertex  2.050000e+001  2.750000e+001  1.500000e+000
      vertex -1.500000e+000  0.000000e+000  1.500000e+000
      vertex  2.050000e+001  0.000000e+000  1.500000e+000
    endloop
  endfacet
  facet normal  0.000000e+000  -0.000000e+000  1.000000e+000
    outer loop
      vertex -2.500000e+001  3.100000e+001  1.500000e+000
      vertex -5.000000e+000  3.100000e+001  1.500000e+000
      vertex  2.014783e+001  3.137548e+001  1.500000e+000
    endloop
  endfacet
  facet normal  0.000000e+000  0.000000e+000  1.000000e+000
    outer loop
      vertex -2.500000e+001  3.100000e+001  1.500000e+000
      vertex  2.014783e+001  3.137548e+001  1.500000e+000
      vertex  1.987525e+001  3.264529e+001  1.500000e+000
    endloop
  endfacet
  facet normal  0.000000e+000  0.000000e+000  1.000000e+000
    outer loop
      vertex -2.500000e+001  3.100000e+001  1.500000e+000
      vertex  1.987525e+001  3.264529e+001  1.500000e+000
      vertex  1.952650e+001  3.389632e+001  1.500000e+000
    endloop
  endfacet
  facet normal  0.000000e+000  0.000000e+000  1.000000e+000
    outer loop
      vertex -2.500000e+001  3.100000e+001  1.500000e+000
      vertex  1.952650e+001  3.389632e+001  1.500000e+000
      vertex  1.910285e+001  3.512400e+001  1.500000e+000
    endloop
  endfacet
  facet normal  0.000000e+000  0.000000e+000  1.000000e+000
    outer loop
      vertex -2.500000e+001  3.100000e+001  1.500000e+000
      vertex  1.910285e+001  3.512400e+001  1.500000e+000
      vertex  1.860585e+001  3.632388e+001  1.500000e+000
    endloop
  endfacet
  facet normal  0.000000e+000  0.000000e+000  1.000000e+000
    outer loop
      vertex -2.500000e+001  3.100000e+001  1.500000e+000
      vertex  1.860585e+001  3.632388e+001  1.500000e+000
      vertex  1.803730e+001  3.749155e+001  1.500000e+000
    endloop
  endfacet
  facet normal  0.000000e+000  0.000000e+000  9.999999e-001
    outer loop
      vertex -2.500000e+001  3.100000e+001  1.500000e+000
      vertex  1.803730e+001  3.749155e+001  1.500000e+000
      vertex  1.739930e+001  3.862276e+001  1.500000e+000
    endloop
  endfacet
  facet normal  0.000000e+000  0.000000e+000  9.999999e-001
    outer loop
      vertex -2.500000e+001  3.100000e+001  1.500000e+000
      vertex  1.739930e+001  3.862276e+001  1.500000e+000
      vertex  1.669415e+001  3.971339e+001  1.500000e+000
    endloop
  endfacet
  facet normal  0.000000e+000  0.000000e+000  1.000000e+000
    outer loop
      vertex -2.500000e+001  3.100000e+001  1.500000e+000
      vertex  1.669415e+001  3.971339e+001  1.500000e+000
      vertex  1.592445e+001  4.075946e+001  1.500000e+000
    endloop
  endfacet
  facet normal  0.000000e+000  0.000000e+000  1.000000e+000
    outer loop
      vertex -2.500000e+001  3.100000e+001  1.500000e+000
      vertex  1.592445e+001  4.075946e+001  1.500000e+000
      vertex  1.509298e+001  4.175714e+001  1.500000e+000
    endloop
  endfacet
  facet normal  0.000000e+000  0.000000e+000  1.000000e+000
    outer loop
      vertex -2.500000e+001  3.100000e+001  1.500000e+000
      vertex  1.509298e+001  4.175714e+001  1.500000e+000
      vertex  1.420280e+001  4.270280e+001  1.500000e+000
    endloop
  endfacet
  facet normal  0.000000e+000  0.000000e+000  1.000000e+000
    outer loop
      vertex -2.500000e+001  3.100000e+001  1.500000e+000
      vertex  1.420280e+001  4.270280e+001  1.500000e+000
      vertex  1.325714e+001  4.359298e+001  1.500000e+000
    endloop
  endfacet
  facet normal  0.000000e+000  0.000000e+000  1.000000e+000
    outer loop
      vertex -2.500000e+001  3.100000e+001  1.500000e+000
      vertex  1.325714e+001  4.359298e+001  1.500000e+000
      vertex  1.225946e+001  4.442445e+001  1.500000e+000
    endloop
  endfacet
  facet normal  0.000000e+000  0.000000e+000  1.000000e+000
    outer loop
      vertex -2.500000e+001  3.100000e+001  1.500000e+000
      vertex  1.225946e+001  4.442445e+001  1.500000e+000
      vertex  1.121339e+001  4.519415e+001  1.500000e+000
    endloop
  endfacet
  facet normal  0.000000e+000  0.000000e+000  9.999999e-001
    outer loop
      vertex -2.500000e+001  3.100000e+001  1.500000e+000
      vertex  1.121339e+001  4.519415e+001  1.500000e+000
      vertex  1.012276e+001  4.589930e+001  1.500000e+000
    endloop
  endfacet
  facet normal  0.000000e+000  0.000000e+000  1.000000e+000
    outer loop
      vertex -2.500000e+001  3.100000e+001  1.500000e+000
      vertex  1.012276e+001  4.589930e+001  1.500000e+000
      vertex  8.991549e+000  4.653730e+001  1.500000e+000
    endloop
  endfacet
  facet normal  0.000000e+000  0.000000e+000  1.000000e+000
    outer loop
      vertex -2.500000e+001  3.100000e+001  1.500000e+000
      vertex  8.991549e+000  4.653730e+001  1.500000e+000
      vertex  7.823875e+000  4.710585e+001  1.500000e+000
    endloop
  endfacet
  facet normal  0.000000e+000  0.000000e+000  1.000000e+000
    outer loop
      vertex -2.500000e+001  3.100000e+001  1.500000e+000
      vertex  7.823875e+000  4.710585e+001  1.500000e+000
      vertex  6.624005e+000  4.760285e+001  1.500000e+000
    endloop
  endfacet
  facet normal  0.000000e+000  0.000000e+000  1.000000e+000
    outer loop
      vertex -2.500000e+001  3.100000e+001  1.500000e+000
      vertex  6.624005e+000  4.760285e+001  1.500000e+000
      vertex  5.396316e+000  4.802650e+001  1.500000e+000
    endloop
  endfacet
  facet normal  0.000000e+000  0.000000e+000  1.000000e+000
    outer loop
      vertex -2.500000e+001  3.100000e+001  1.500000e+000
      vertex  5.396316e+000  4.802650e+001  1.500000e+000
      vertex  4.145287e+000  4.837525e+001  1.500000e+000
    endloop
  endfacet
  facet normal  0.000000e+000  0.000000e+000  1.000000e+000
    outer loop
      vertex -2.500000e+001  3.100000e+001  1.500000e+000
      vertex  4.145287e+000  4.837525e+001  1.500000e+000
      vertex  2.875483e+000  4.864783e+001  1.500000e+000
    endloop
  endfacet
  facet normal  0.000000e+000  0.000000e+000  1.000000e+000
    outer loop
      vertex -2.500000e+001  3.100000e+001  1.500000e+000
      vertex  2.875483e+000  4.864783e+001  1.500000e+000
      vertex  1.591539e+000  4.884324e+001  1.500000e+000
    endloop
  endfacet
  facet normal  0.000000e+000  0.000000e+000  1.000000e+000
    outer loop
      vertex -2.500000e+001  3.100000e+001  1.500000e+000
      vertex  1.591539e+000  4.884324e+001  1.500000e+000
      vertex  2.981377e-001  4.896077e+001  1.500000e+000
    endloop
  endfacet
  facet normal  0.000000e+000  0.000000e+000  1.000000e+000
    outer loop
      vertex -2.500000e+001  3.100000e+001  1.500000e+000
      vertex  2.981377e-001  4.896077e+001  1.500000e+000
      vertex -1.000000e+000  4.900000e+001  1.500000e+000
    endloop
  endfacet
  facet normal  0.000000e+000  0.000000e+000  1.000000e+000
    outer loop
      vertex -2.500000e+001  3.100000e+001  1.500000e+000
      vertex -1.000000e+000  4.900000e+001  1.500000e+000
      vertex -2.500000e+001  4.900000e+001  1.500000e+000
    endloop
  endfacet
  facet normal  0.000000e+000  0.000000e+000  1.000000e+000
    outer loop
      vertex  2.034324e+001  3.009154e+001  1.500000e+000
      vertex  2.014783e+001  3.137548e+001  1.500000e+000
      vertex -5.000000e+000  3.100000e+001  1.500000e+000
    endloop
  endfacet
  facet normal  0.000000e+000  0.000000e+000  1.000000e+000
    outer loop
      vertex  2.034324e+001  3.009154e+001  1.500000e+000
      vertex -5.000000e+000  3.100000e+001  1.500000e+000
      vertex -4.501898e+000  3.096437e+001  1.500000e+000
    endloop
  endfacet
  facet normal  0.000000e+000  0.000000e+000  1.000000e+000
    outer loop
      vertex  2.034324e+001  3.009154e+001  1.500000e+000
      vertex -4.501898e+000  3.096437e+001  1.500000e+000
      vertex -4.013936e+000  3.085822e+001  1.500000e+000
    endloop
  endfacet
  facet normal  0.000000e+000  0.000000e+000  1.000000e+000
    outer loop
      vertex  2.034324e+001  3.009154e+001  1.500000e+000
      vertex -4.013936e+000  3.085822e+001  1.500000e+000
      vertex -3.546047e+000  3.068371e+001  1.500000e+000
    endloop
  endfacet
  facet normal  0.000000e+000  0.000000e+000  1.000000e+000
    outer loop
      vertex  2.034324e+001  3.009154e+001  1.500000e+000
      vertex -3.546047e+000  3.068371e+001  1.500000e+000
      vertex -3.107757e+000  3.044439e+001  1.500000e+000
    endloop
  endfacet
  facet normal  0.000000e+000  0.000000e+000  1.000000e+000
    outer loop
      vertex  2.034324e+001  3.009154e+001  1.500000e+000
      vertex -3.107757e+000  3.044439e+001  1.500000e+000
      vertex -2.707988e+000  3.014512e+001  1.500000e+000
    endloop
  endfacet
  facet normal  0.000000e+000  0.000000e+000  1.000000e+000
    outer loop
      vertex  2.034324e+001  3.009154e+001  1.500000e+000
      vertex -2.707988e+000  3.014512e+001  1.500000e+000
      vertex -2.354877e+000  2.979201e+001  1.500000e+000
    endloop
  endfacet
  facet normal  -0.000000e+000  0.000000e+000  1.000000e+000
    outer loop
      vertex  2.034324e+001  3.009154e+001  1.500000e+000
      vertex -2.354877e+000  2.979201e+001  1.500000e+000
      vertex  2.046077e+001  2.879814e+001  1.500000e+000
    endloop
  endfacet
  facet normal -1.000000e+000  0.000000e+000  0.000000e+000
    outer loop
      vertex -2.500000e+001  3.100000e+001  1.500000e+000
      vertex -2.500000e+001  3.250000e+001 -8.500000e+000
      vertex -2.500000e+001  3.100000e+001 -8.500000e+000
    endloop
  endfacet
  facet normal -1.000000e+000  0.000000e+000  0.000000e+000
    outer loop
      vertex -2.500000e+001  3.250000e+001 -8.500000e+000
      vertex -2.500000e+001  3.100000e+001  1.500000e+000
      vertex -2.500000e+001  3.250000e+001  0.000000e+000
    endloop
  endfacet
  facet normal -1.000000e+000  0.000000e+000  0.000000e+000
    outer loop
      vertex -2.500000e+001  3.250000e+001  0.000000e+000
      vertex -2.500000e+001  3.100000e+001  1.500000e+000
      vertex -2.500000e+001  4.900000e+001  1.500000e+000
    endloop
  endfacet
  facet normal -1.000000e+000  0.000000e+000  0.000000e+000
    outer loop
      vertex -2.500000e+001  3.250000e+001  0.000000e+000
      vertex -2.500000e+001  4.900000e+001  1.500000e+000
      vertex -2.500000e+001  4.750000e+001  0.000000e+000
    endloop
  endfacet
  facet normal -1.000000e+000  0.000000e+000  0.000000e+000
    outer loop
      vertex -2.500000e+001  4.750000e+001  0.000000e+000
      vertex -2.500000e+001  4.900000e+001  1.500000e+000
      vertex -2.500000e+001  4.900000e+001 -8.500000e+000
    endloop
  endfacet
  facet normal -1.000000e+000  0.000000e+000  0.000000e+000
    outer loop
      vertex -2.500000e+001  4.750000e+001  0.000000e+000
      vertex -2.500000e+001  4.900000e+001 -8.500000e+000
      vertex -2.500000e+001  4.750000e+001 -8.500000e+000
    endloop
  endfacet
  facet normal -1.000000e+000  0.000000e+000  0.000000e+000
    outer loop
      vertex  1.900000e+001  2.750000e+001  0.000000e+000
      vertex  1.900000e+001  2.750000e+001 -8.500000e+000
      vertex  1.900000e+001  0.000000e+000  0.000000e+000
    endloop
  endfacet
  facet normal -1.000000e+000  0.000000e+000  0.000000e+000
    outer loop
      vertex  1.900000e+001  0.000000e+000  0.000000e+000
      vertex  1.900000e+001  2.750000e+001 -8.500000e+000
      vertex  1.900000e+001  0.000000e+000 -8.500000e+000
    endloop
  endfacet
  facet normal  0.000000e+000 -1.000000e+000  0.000000e+000
    outer loop
      vertex -2.500000e+001  4.750000e+001  0.000000e+000
      vertex -2.500000e+001  4.750000e+001 -8.500000e+000
      vertex -1.000000e+000  4.750000e+001  0.000000e+000
    endloop
  endfacet
  facet normal  0.000000e+000 -1.000000e+000  -0.000000e+000
    outer loop
      vertex -1.000000e+000  4.750000e+001  0.000000e+000
      vertex -2.500000e+001  4.750000e+001 -8.500000e+000
      vertex -1.000000e+000  4.750000e+001 -8.500000e+000
    endloop
  endfacet
  facet normal -6.613113e-001 -7.501116e-001  -0.000000e+000
    outer loop
      vertex  1.269094e+001  4.207937e+001 -8.500000e+000
      vertex  1.174848e+001  4.291026e+001  0.000000e+000
      vertex  1.174848e+001  4.291026e+001 -8.500000e+000
    endloop
  endfacet
  facet normal -6.129078e-001 -7.901544e-001  0.000000e+000
    outer loop
      vertex  1.174848e+001  4.291026e+001 -8.500000e+000
      vertex  1.174848e+001  4.291026e+001  0.000000e+000
      vertex  1.075570e+001  4.368034e+001  0.000000e+000
    endloop
  endfacet
  facet normal -6.129078e-001 -7.901544e-001  -0.000000e+000
    outer loop
      vertex  1.174848e+001  4.291026e+001 -8.500000e+000
      vertex  1.075570e+001  4.368034e+001  0.000000e+000
      vertex  1.075570e+001  4.368034e+001 -8.500000e+000
    endloop
  endfacet
  facet normal -5.620834e-001 -8.270805e-001  0.000000e+000
    outer loop
      vertex  1.075570e+001  4.368034e+001 -8.500000e+000
      vertex  1.075570e+001  4.368034e+001  0.000000e+000
      vertex  9.716536e+000  4.438656e+001  0.000000e+000
    endloop
  endfacet
  facet normal -5.620834e-001 -8.270805e-001  -0.000000e+000
    outer loop
      vertex  1.075570e+001  4.368034e+001 -8.500000e+000
      vertex  9.716536e+000  4.438656e+001  0.000000e+000
      vertex  9.716536e+000  4.438656e+001 -8.500000e+000
    endloop
  endfacet
  facet normal -5.090420e-001 -8.607416e-001  0.000000e+000
    outer loop
      vertex  9.716536e+000  4.438656e+001 -8.500000e+000
      vertex  9.716536e+000  4.438656e+001  0.000000e+000
      vertex  8.635074e+000  4.502613e+001  0.000000e+000
    endloop
  endfacet
  facet normal -5.090420e-001 -8.607416e-001  -0.000000e+000
    outer loop
      vertex  9.716536e+000  4.438656e+001 -8.500000e+000
      vertex  8.635074e+000  4.502613e+001  0.000000e+000
      vertex  8.635074e+000  4.502613e+001 -8.500000e+000
    endloop
  endfacet
  facet normal -4.539907e-001 -8.910064e-001  0.000000e+000
    outer loop
      vertex  8.635074e+000  4.502613e+001 -8.500000e+000
      vertex  8.635074e+000  4.502613e+001  0.000000e+000
      vertex  7.515586e+000  4.559654e+001  0.000000e+000
    endloop
  endfacet
  facet normal -4.539907e-001 -8.910064e-001  -0.000000e+000
    outer loop
      vertex  8.635074e+000  4.502613e+001 -8.500000e+000
      vertex  7.515586e+000  4.559654e+001  0.000000e+000
      vertex  7.515586e+000  4.559654e+001 -8.500000e+000
    endloop
  endfacet
  facet normal -3.971482e-001 -9.177545e-001  0.000000e+000
    outer loop
      vertex  7.515586e+000  4.559654e+001 -8.500000e+000
      vertex  7.515586e+000  4.559654e+001  0.000000e+000
      vertex  6.362491e+000  4.609553e+001  0.000000e+000
    endloop
  endfacet
  facet normal -3.971482e-001 -9.177545e-001  -0.000000e+000
    outer loop
      vertex  7.515586e+000  4.559654e+001 -8.500000e+000
      vertex  6.362491e+000  4.609553e+001  0.000000e+000
      vertex  6.362491e+000  4.609553e+001 -8.500000e+000
    endloop
  endfacet
  facet normal -3.387361e-001 -9.408814e-001  0.000000e+000
    outer loop
      vertex  6.362491e+000  4.609553e+001 -8.500000e+000
      vertex  6.362491e+000  4.609553e+001  0.000000e+000
      vertex  5.180340e+000  4.652113e+001  0.000000e+000
    endloop
  endfacet
  facet normal -3.387361e-001 -9.408814e-001  -0.000000e+000
    outer loop
      vertex  6.362491e+000  4.609553e+001 -8.500000e+000
      vertex  5.180340e+000  4.652113e+001  0.000000e+000
      vertex  5.180340e+000  4.652113e+001 -8.500000e+000
    endloop
  endfacet
  facet normal -2.789909e-001 -9.602938e-001  0.000000e+000
    outer loop
      vertex  5.180340e+000  4.652113e+001 -8.500000e+000
      vertex  5.180340e+000  4.652113e+001  0.000000e+000
      vertex  3.973798e+000  4.687166e+001  0.000000e+000
    endloop
  endfacet
  facet normal -2.789909e-001 -9.602938e-001  -0.000000e+000
    outer loop
      vertex  5.180340e+000  4.652113e+001 -8.500000e+000
      vertex  3.973798e+000  4.687166e+001  0.000000e+000
      vertex  3.973798e+000  4.687166e+001 -8.500000e+000
    endloop
  endfacet
  facet normal -2.181435e-001 -9.759167e-001  0.000000e+000
    outer loop
      vertex  3.973798e+000  4.687166e+001 -8.500000e+000
      vertex  3.973798e+000  4.687166e+001  0.000000e+000
      vertex  2.747626e+000  4.714574e+001  0.000000e+000
    endloop
  endfacet
  facet normal -2.181435e-001 -9.759167e-001  -0.000000e+000
    outer loop
      vertex  3.973798e+000  4.687166e+001 -8.500000e+000
      vertex  2.747626e+000  4.714574e+001  0.000000e+000
      vertex  2.747626e+000  4.714574e+001 -8.500000e+000
    endloop
  endfacet
  facet normal -1.564340e-001 -9.876884e-001  0.000000e+000
    outer loop
      vertex  2.747626e+000  4.714574e+001 -8.500000e+000
      vertex  2.747626e+000  4.714574e+001  0.000000e+000
      vertex  1.506665e+000  4.734229e+001  0.000000e+000
    endloop
  endfacet
  facet normal -1.564340e-001 -9.876884e-001  -0.000000e+000
    outer loop
      vertex  2.747626e+000  4.714574e+001 -8.500000e+000
      vertex  1.506665e+000  4.734229e+001  0.000000e+000
      vertex  1.506665e+000  4.734229e+001 -8.500000e+000
    endloop
  endfacet
  facet normal -9.410817e-002 -9.955620e-001  0.000000e+000
    outer loop
      vertex  1.506665e+000  4.734229e+001 -8.500000e+000
      vertex  1.506665e+000  4.734229e+001  0.000000e+000
      vertex  2.558104e-001  4.746053e+001  0.000000e+000
    endloop
  endfacet
  facet normal -9.410817e-002 -9.955620e-001  -0.000000e+000
    outer loop
      vertex  1.506665e+000  4.734229e+001 -8.500000e+000
      vertex  2.558104e-001  4.746053e+001  0.000000e+000
      vertex  2.558104e-001  4.746053e+001 -8.500000e+000
    endloop
  endfacet
  facet normal -3.141190e-002 -9.995066e-001  0.000000e+000
    outer loop
      vertex  2.558104e-001  4.746053e+001 -8.500000e+000
      vertex  2.558104e-001  4.746053e+001  0.000000e+000
      vertex -1.000000e+000  4.750000e+001  0.000000e+000
    endloop
  endfacet
  facet normal -3.141190e-002 -9.995066e-001  -0.000000e+000
    outer loop
      vertex  2.558104e-001  4.746053e+001 -8.500000e+000
      vertex -1.000000e+000  4.750000e+001  0.000000e+000
      vertex -1.000000e+000  4.750000e+001 -8.500000e+000
    endloop
  endfacet
  facet normal -6.613113e-001 -7.501116e-001  0.000000e+000
    outer loop
      vertex  1.174848e+001  4.291026e+001  0.000000e+000
      vertex  1.269094e+001  4.207937e+001 -8.500000e+000
      vertex  1.269094e+001  4.207937e+001  0.000000e+000
    endloop
  endfacet
  facet normal -7.071072e-001 -7.071065e-001  -0.000000e+000
    outer loop
      vertex  1.269094e+001  4.207937e+001  0.000000e+000
      vertex  1.269094e+001  4.207937e+001 -8.500000e+000
      vertex  1.357937e+001  4.119094e+001 -8.500000e+000
    endloop
  endfacet
  facet normal -7.071072e-001 -7.071065e-001  0.000000e+000
    outer loop
      vertex  1.269094e+001  4.207937e+001  0.000000e+000
      vertex  1.357937e+001  4.119094e+001 -8.500000e+000
      vertex  1.357937e+001  4.119094e+001  0.000000e+000
    endloop
  endfacet
  facet normal -7.501112e-001 -6.613117e-001  -0.000000e+000
    outer loop
      vertex  1.357937e+001  4.119094e+001  0.000000e+000
      vertex  1.357937e+001  4.119094e+001 -8.500000e+000
      vertex  1.441026e+001  4.024848e+001 -8.500000e+000
    endloop
  endfacet
  facet normal -7.501112e-001 -6.613117e-001  0.000000e+000
    outer loop
      vertex  1.357937e+001  4.119094e+001  0.000000e+000
      vertex  1.441026e+001  4.024848e+001 -8.500000e+000
      vertex  1.441026e+001  4.024848e+001  0.000000e+000
    endloop
  endfacet
  facet normal -7.901540e-001 -6.129084e-001  -0.000000e+000
    outer loop
      vertex  1.441026e+001  4.024848e+001  0.000000e+000
      vertex  1.441026e+001  4.024848e+001 -8.500000e+000
      vertex  1.518034e+001  3.925571e+001 -8.500000e+000
    endloop
  endfacet
  facet normal -7.901540e-001 -6.129084e-001  0.000000e+000
    outer loop
      vertex  1.441026e+001  4.024848e+001  0.000000e+000
      vertex  1.518034e+001  3.925571e+001 -8.500000e+000
      vertex  1.518034e+001  3.925571e+001  0.000000e+000
    endloop
  endfacet
  facet normal -8.270805e-001 -5.620834e-001  -0.000000e+000
    outer loop
      vertex  1.518034e+001  3.925571e+001  0.000000e+000
      vertex  1.518034e+001  3.925571e+001 -8.500000e+000
      vertex  1.588656e+001  3.821654e+001 -8.500000e+000
    endloop
  endfacet
  facet normal -8.270805e-001 -5.620834e-001  0.000000e+000
    outer loop
      vertex  1.518034e+001  3.925571e+001  0.000000e+000
      vertex  1.588656e+001  3.821654e+001 -8.500000e+000
      vertex  1.588656e+001  3.821654e+001  0.000000e+000
    endloop
  endfacet
  facet normal -8.607419e-001 -5.090418e-001  -0.000000e+000
    outer loop
      vertex  1.588656e+001  3.821654e+001  0.000000e+000
      vertex  1.588656e+001  3.821654e+001 -8.500000e+000
      vertex  1.652613e+001  3.713507e+001 -8.500000e+000
    endloop
  endfacet
  facet normal -8.607419e-001 -5.090418e-001  0.000000e+000
    outer loop
      vertex  1.588656e+001  3.821654e+001  0.000000e+000
      vertex  1.652613e+001  3.713507e+001 -8.500000e+000
      vertex  1.652613e+001  3.713507e+001  0.000000e+000
    endloop
  endfacet
  facet normal -8.910070e-001 -4.539895e-001  -0.000000e+000
    outer loop
      vertex  1.652613e+001  3.713507e+001  0.000000e+000
      vertex  1.652613e+001  3.713507e+001 -8.500000e+000
      vertex  1.709654e+001  3.601559e+001 -8.500000e+000
    endloop
  endfacet
  facet normal -8.910070e-001 -4.539895e-001  0.000000e+000
    outer loop
      vertex  1.652613e+001  3.713507e+001  0.000000e+000
      vertex  1.709654e+001  3.601559e+001 -8.500000e+000
      vertex  1.709654e+001  3.601559e+001  0.000000e+000
    endloop
  endfacet
  facet normal -9.177545e-001 -3.971480e-001  -0.000000e+000
    outer loop
      vertex  1.709654e+001  3.601559e+001  0.000000e+000
      vertex  1.709654e+001  3.601559e+001 -8.500000e+000
      vertex  1.759553e+001  3.486249e+001 -8.500000e+000
    endloop
  endfacet
  facet normal -9.177545e-001 -3.971480e-001  0.000000e+000
    outer loop
      vertex  1.709654e+001  3.601559e+001  0.000000e+000
      vertex  1.759553e+001  3.486249e+001 -8.500000e+000
      vertex  1.759553e+001  3.486249e+001  0.000000e+000
    endloop
  endfacet
  facet normal -9.408810e-001 -3.387374e-001  -0.000000e+000
    outer loop
      vertex  1.759553e+001  3.486249e+001  0.000000e+000
      vertex  1.759553e+001  3.486249e+001 -8.500000e+000
      vertex  1.802113e+001  3.368034e+001 -8.500000e+000
    endloop
  endfacet
  facet normal -9.408810e-001 -3.387374e-001  0.000000e+000
    outer loop
      vertex  1.759553e+001  3.486249e+001  0.000000e+000
      vertex  1.802113e+001  3.368034e+001 -8.500000e+000
      vertex  1.802113e+001  3.368034e+001  0.000000e+000
    endloop
  endfacet
  facet normal -9.602934e-001 -2.789921e-001  -0.000000e+000
    outer loop
      vertex  1.802113e+001  3.368034e+001  0.000000e+000
      vertex  1.802113e+001  3.368034e+001 -8.500000e+000
      vertex  1.837166e+001  3.247380e+001 -8.500000e+000
    endloop
  endfacet
  facet normal -9.602934e-001 -2.789921e-001  0.000000e+000
    outer loop
      vertex  1.802113e+001  3.368034e+001  0.000000e+000
      vertex  1.837166e+001  3.247380e+001 -8.500000e+000
      vertex  1.837166e+001  3.247380e+001  0.000000e+000
    endloop
  endfacet
  facet normal -9.759170e-001 -2.181421e-001  -0.000000e+000
    outer loop
      vertex  1.837166e+001  3.247380e+001  0.000000e+000
      vertex  1.837166e+001  3.247380e+001 -8.500000e+000
      vertex  1.864574e+001  3.124763e+001 -8.500000e+000
    endloop
  endfacet
  facet normal -9.759170e-001 -2.181421e-001  0.000000e+000
    outer loop
      vertex  1.837166e+001  3.247380e+001  0.000000e+000
      vertex  1.864574e+001  3.124763e+001 -8.500000e+000
      vertex  1.864574e+001  3.124763e+001  0.000000e+000
    endloop
  endfacet
  facet normal -9.876882e-001 -1.564356e-001  -0.000000e+000
    outer loop
      vertex  1.864574e+001  3.124763e+001  0.000000e+000
      vertex  1.864574e+001  3.124763e+001 -8.500000e+000
      vertex  1.884229e+001  3.000666e+001 -8.500000e+000
    endloop
  endfacet
  facet normal -9.876882e-001 -1.564356e-001  0.000000e+000
    outer loop
      vertex  1.864574e+001  3.124763e+001  0.000000e+000
      vertex  1.884229e+001  3.000666e+001 -8.500000e+000
      vertex  1.884229e+001  3.000666e+001  0.000000e+000
    endloop
  endfacet
  facet normal -9.955620e-001 -9.410815e-002  -0.000000e+000
    outer loop
      vertex  1.884229e+001  3.000666e+001  0.000000e+000
      vertex  1.884229e+001  3.000666e+001 -8.500000e+000
      vertex  1.896054e+001  2.875581e+001 -8.500000e+000
    endloop
  endfacet
  facet normal -9.955620e-001 -9.410815e-002  0.000000e+000
    outer loop
      vertex  1.884229e+001  3.000666e+001  0.000000e+000
      vertex  1.896054e+001  2.875581e+001 -8.500000e+000
      vertex  1.896054e+001  2.875581e+001  0.000000e+000
    endloop
  endfacet
  facet normal -9.995065e-001 -3.141039e-002  -0.000000e+000
    outer loop
      vertex  1.896054e+001  2.875581e+001  0.000000e+000
      vertex  1.896054e+001  2.875581e+001 -8.500000e+000
      vertex  1.900000e+001  2.750000e+001 -8.500000e+000
    endloop
  endfacet
  facet normal -9.995065e-001 -3.141039e-002  0.000000e+000
    outer loop
      vertex  1.896054e+001  2.875581e+001  0.000000e+000
      vertex  1.900000e+001  2.750000e+001 -8.500000e+000
      vertex  1.900000e+001  2.750000e+001  0.000000e+000
    endloop
  endfacet
  facet normal  0.000000e+000  0.000000e+000 -1.000000e+000
    outer loop
      vertex  1.910285e+001  3.512400e+001 -8.500000e+000
      vertex  2.050000e+001  0.000000e+000 -8.500000e+000
      vertex  1.900000e+001  0.000000e+000 -8.500000e+000
    endloop
  endfacet
  facet normal  0.000000e+000  0.000000e+000 -9.999999e-001
    outer loop
      vertex  1.910285e+001  3.512400e+001 -8.500000e+000
      vertex  1.900000e+001  0.000000e+000 -8.500000e+000
      vertex  1.900000e+001  2.750000e+001 -8.500000e+000
    endloop
  endfacet
  facet normal  0.000000e+000  0.000000e+000 -9.999999e-001
    outer loop
      vertex  1.910285e+001  3.512400e+001 -8.500000e+000
      vertex  1.900000e+001  2.750000e+001 -8.500000e+000
      vertex  1.896054e+001  2.875581e+001 -8.500000e+000
    endloop
  endfacet
  facet normal  0.000000e+000  0.000000e+000 -9.999999e-001
    outer loop
      vertex  1.910285e+001  3.512400e+001 -8.500000e+000
      vertex  1.896054e+001  2.875581e+001 -8.500000e+000
      vertex  1.884229e+001  3.000666e+001 -8.500000e+000
    endloop
  endfacet
  facet normal  0.000000e+000  0.000000e+000 -1.000000e+000
    outer loop
      vertex  1.910285e+001  3.512400e+001 -8.500000e+000
      vertex  1.884229e+001  3.000666e+001 -8.500000e+000
      vertex  1.864574e+001  3.124763e+001 -8.500000e+000
    endloop
  endfacet
  facet normal  0.000000e+000  0.000000e+000 -1.000000e+000
    outer loop
      vertex  1.910285e+001  3.512400e+001 -8.500000e+000
      vertex  1.864574e+001  3.124763e+001 -8.500000e+000
      vertex  1.860585e+001  3.632388e+001 -8.500000e+000
    endloop
  endfacet
  facet normal  0.000000e+000  0.000000e+000 -1.000000e+000
    outer loop
      vertex  2.050000e+001  0.000000e+000 -8.500000e+000
      vertex  1.910285e+001  3.512400e+001 -8.500000e+000
      vertex  1.952650e+001  3.389632e+001 -8.500000e+000
    endloop
  endfacet
  facet normal  0.000000e+000  0.000000e+000 -1.000000e+000
    outer loop
      vertex  2.050000e+001  0.000000e+000 -8.500000e+000
      vertex  1.952650e+001  3.389632e+001 -8.500000e+000
      vertex  1.987525e+001  3.264529e+001 -8.500000e+000
    endloop
  endfacet
  facet normal  0.000000e+000  0.000000e+000 -1.000000e+000
    outer loop
      vertex  2.050000e+001  0.000000e+000 -8.500000e+000
      vertex  1.987525e+001  3.264529e+001 -8.500000e+000
      vertex  2.014783e+001  3.137548e+001 -8.500000e+000
    endloop
  endfacet
  facet normal  0.000000e+000  0.000000e+000 -1.000000e+000
    outer loop
      vertex  2.050000e+001  0.000000e+000 -8.500000e+000
      vertex  2.014783e+001  3.137548e+001 -8.500000e+000
      vertex  2.034324e+001  3.009154e+001 -8.500000e+000
    endloop
  endfacet
  facet normal  0.000000e+000  0.000000e+000 -9.999999e-001
    outer loop
      vertex  2.050000e+001  0.000000e+000 -8.500000e+000
      vertex  2.034324e+001  3.009154e+001 -8.500000e+000
      vertex  2.046077e+001  2.879814e+001 -8.500000e+000
    endloop
  endfacet
  facet normal  0.000000e+000  0.000000e+000 -9.999999e-001
    outer loop
      vertex  2.050000e+001  0.000000e+000 -8.500000e+000
      vertex  2.046077e+001  2.879814e+001 -8.500000e+000
      vertex  2.050000e+001  2.750000e+001 -8.500000e+000
    endloop
  endfacet
  facet normal  0.000000e+000  0.000000e+000 -1.000000e+000
    outer loop
      vertex -2.500000e+001  4.750000e+001 -8.500000e+000
      vertex -2.500000e+001  4.900000e+001 -8.500000e+000
      vertex -1.000000e+000  4.750000e+001 -8.500000e+000
    endloop
  endfacet
  facet normal  0.000000e+000  0.000000e+000 -1.000000e+000
    outer loop
      vertex -1.000000e+000  4.750000e+001 -8.500000e+000
      vertex -2.500000e+001  4.900000e+001 -8.500000e+000
      vertex -1.000000e+000  4.900000e+001 -8.500000e+000
    endloop
  endfacet
  facet normal  0.000000e+000  0.000000e+000 -9.999999e-001
    outer loop
      vertex -1.000000e+000  4.750000e+001 -8.500000e+000
      vertex -1.000000e+000  4.900000e+001 -8.500000e+000
      vertex  2.558104e-001  4.746053e+001 -8.500000e+000
    endloop
  endfacet
  facet normal  0.000000e+000  0.000000e+000 -1.000000e+000
    outer loop
      vertex  2.558104e-001  4.746053e+001 -8.500000e+000
      vertex -1.000000e+000  4.900000e+001 -8.500000e+000
      vertex  2.981377e-001  4.896077e+001 -8.500000e+000
    endloop
  endfacet
  facet normal  0.000000e+000  -0.000000e+000 -1.000000e+000
    outer loop
      vertex  2.558104e-001  4.746053e+001 -8.500000e+000
      vertex  2.981377e-001  4.896077e+001 -8.500000e+000
      vertex  1.506665e+000  4.734229e+001 -8.500000e+000
    endloop
  endfacet
  facet normal  0.000000e+000  0.000000e+000 -1.000000e+000
    outer loop
      vertex  1.506665e+000  4.734229e+001 -8.500000e+000
      vertex  2.981377e-001  4.896077e+001 -8.500000e+000
      vertex  1.591539e+000  4.884324e+001 -8.500000e+000
    endloop
  endfacet
  facet normal  0.000000e+000  -0.000000e+000 -9.999999e-001
    outer loop
      vertex  1.506665e+000  4.734229e+001 -8.500000e+000
      vertex  1.591539e+000  4.884324e+001 -8.500000e+000
      vertex  2.747626e+000  4.714574e+001 -8.500000e+000
    endloop
  endfacet
  facet normal  0.000000e+000  0.000000e+000 -1.000000e+000
    outer loop
      vertex  2.747626e+000  4.714574e+001 -8.500000e+000
      vertex  1.591539e+000  4.884324e+001 -8.500000e+000
      vertex  2.875483e+000  4.864783e+001 -8.500000e+000
    endloop
  endfacet
  facet normal  0.000000e+000  -0.000000e+000 -1.000000e+000
    outer loop
      vertex  2.747626e+000  4.714574e+001 -8.500000e+000
      vertex  2.875483e+000  4.864783e+001 -8.500000e+000
      vertex  3.973798e+000  4.687166e+001 -8.500000e+000
    endloop
  endfacet
  facet normal  0.000000e+000  0.000000e+000 -1.000000e+000
    outer loop
      vertex  3.973798e+000  4.687166e+001 -8.500000e+000
      vertex  2.875483e+000  4.864783e+001 -8.500000e+000
      vertex  4.145287e+000  4.837525e+001 -8.500000e+000
    endloop
  endfacet
  facet normal  0.000000e+000  -0.000000e+000 -9.999999e-001
    outer loop
      vertex  3.973798e+000  4.687166e+001 -8.500000e+000
      vertex  4.145287e+000  4.837525e+001 -8.500000e+000
      vertex  5.180340e+000  4.652113e+001 -8.500000e+000
    endloop
  endfacet
  facet normal  0.000000e+000  0.000000e+000 -1.000000e+000
    outer loop
      vertex  5.180340e+000  4.652113e+001 -8.500000e+000
      vertex  4.145287e+000  4.837525e+001 -8.500000e+000
      vertex  5.396316e+000  4.802650e+001 -8.500000e+000
    endloop
  endfacet
  facet normal  0.000000e+000  -0.000000e+000 -9.999999e-001
    outer loop
      vertex  5.180340e+000  4.652113e+001 -8.500000e+000
      vertex  5.396316e+000  4.802650e+001 -8.500000e+000
      vertex  6.362491e+000  4.609553e+001 -8.500000e+000
    endloop
  endfacet
  facet normal  0.000000e+000  0.000000e+000 -1.000000e+000
    outer loop
      vertex  6.362491e+000  4.609553e+001 -8.500000e+000
      vertex  5.396316e+000  4.802650e+001 -8.500000e+000
      vertex  6.624005e+000  4.760285e+001 -8.500000e+000
    endloop
  endfacet
  facet normal  0.000000e+000  -0.000000e+000 -1.000000e+000
    outer loop
      vertex  6.362491e+000  4.609553e+001 -8.500000e+000
      vertex  6.624005e+000  4.760285e+001 -8.500000e+000
      vertex  7.515586e+000  4.559654e+001 -8.500000e+000
    endloop
  endfacet
  facet normal  0.000000e+000  0.000000e+000 -1.000000e+000
    outer loop
      vertex  7.515586e+000  4.559654e+001 -8.500000e+000
      vertex  6.624005e+000  4.760285e+001 -8.500000e+000
      vertex  7.823875e+000  4.710585e+001 -8.500000e+000
    endloop
  endfacet
  facet normal  0.000000e+000  -0.000000e+000 -1.000000e+000
    outer loop
      vertex  7.515586e+000  4.559654e+001 -8.500000e+000
      vertex  7.823875e+000  4.710585e+001 -8.500000e+000
      vertex  8.635074e+000  4.502613e+001 -8.500000e+000
    endloop
  endfacet
  facet normal  0.000000e+000  0.000000e+000 -1.000000e+000
    outer loop
      vertex  8.635074e+000  4.502613e+001 -8.500000e+000
      vertex  7.823875e+000  4.710585e+001 -8.500000e+000
      vertex  8.991549e+000  4.653730e+001 -8.500000e+000
    endloop
  endfacet
  facet normal  0.000000e+000  -0.000000e+000 -1.000000e+000
    outer loop
      vertex  8.635074e+000  4.502613e+001 -8.500000e+000
      vertex  8.991549e+000  4.653730e+001 -8.500000e+000
      vertex  9.716536e+000  4.438656e+001 -8.500000e+000
    endloop
  endfacet
  facet normal  0.000000e+000  0.000000e+000 -1.000000e+000
    outer loop
      vertex  9.716536e+000  4.438656e+001 -8.500000e+000
      vertex  8.991549e+000  4.653730e+001 -8.500000e+000
      vertex  1.012276e+001  4.589930e+001 -8.500000e+000
    endloop
  endfacet
  facet normal  0.000000e+000  -0.000000e+000 -1.000000e+000
    outer loop
      vertex  9.716536e+000  4.438656e+001 -8.500000e+000
      vertex  1.012276e+001  4.589930e+001 -8.500000e+000
      vertex  1.075570e+001  4.368034e+001 -8.500000e+000
    endloop
  endfacet
  facet normal  0.000000e+000  0.000000e+000 -9.999999e-001
    outer loop
      vertex  1.075570e+001  4.368034e+001 -8.500000e+000
      vertex  1.012276e+001  4.589930e+001 -8.500000e+000
      vertex  1.121339e+001  4.519415e+001 -8.500000e+000
    endloop
  endfacet
  facet normal  0.000000e+000  -0.000000e+000 -1.000000e+000
    outer loop
      vertex  1.075570e+001  4.368034e+001 -8.500000e+000
      vertex  1.121339e+001  4.519415e+001 -8.500000e+000
      vertex  1.174848e+001  4.291026e+001 -8.500000e+000
    endloop
  endfacet
  facet normal  0.000000e+000  0.000000e+000 -1.000000e+000
    outer loop
      vertex  1.174848e+001  4.291026e+001 -8.500000e+000
      vertex  1.121339e+001  4.519415e+001 -8.500000e+000
      vertex  1.225946e+001  4.442445e+001 -8.500000e+000
    endloop
  endfacet
  facet normal  0.000000e+000  -0.000000e+000 -1.000000e+000
    outer loop
      vertex  1.174848e+001  4.291026e+001 -8.500000e+000
      vertex  1.225946e+001  4.442445e+001 -8.500000e+000
      vertex  1.269094e+001  4.207937e+001 -8.500000e+000
    endloop
  endfacet
  facet normal  0.000000e+000  0.000000e+000 -1.000000e+000
    outer loop
      vertex  1.269094e+001  4.207937e+001 -8.500000e+000
      vertex  1.225946e+001  4.442445e+001 -8.500000e+000
      vertex  1.357937e+001  4.119094e+001 -8.500000e+000
    endloop
  endfacet
  facet normal  0.000000e+000  0.000000e+000 -1.000000e+000
    outer loop
      vertex  1.357937e+001  4.119094e+001 -8.500000e+000
      vertex  1.225946e+001  4.442445e+001 -8.500000e+000
      vertex  1.325714e+001  4.359298e+001 -8.500000e+000
    endloop
  endfacet
  facet normal  0.000000e+000  0.000000e+000 -9.999999e-001
    outer loop
      vertex  1.357937e+001  4.119094e+001 -8.500000e+000
      vertex  1.325714e+001  4.359298e+001 -8.500000e+000
      vertex  1.441026e+001  4.024848e+001 -8.500000e+000
    endloop
  endfacet
  facet normal  0.000000e+000  0.000000e+000 -1.000000e+000
    outer loop
      vertex  1.441026e+001  4.024848e+001 -8.500000e+000
      vertex  1.325714e+001  4.359298e+001 -8.500000e+000
      vertex  1.420280e+001  4.270280e+001 -8.500000e+000
    endloop
  endfacet
  facet normal  0.000000e+000  0.000000e+000 -1.000000e+000
    outer loop
      vertex  1.441026e+001  4.024848e+001 -8.500000e+000
      vertex  1.420280e+001  4.270280e+001 -8.500000e+000
      vertex  1.518034e+001  3.925571e+001 -8.500000e+000
    endloop
  endfacet
  facet normal  0.000000e+000  0.000000e+000 -1.000000e+000
    outer loop
      vertex  1.518034e+001  3.925571e+001 -8.500000e+000
      vertex  1.420280e+001  4.270280e+001 -8.500000e+000
      vertex  1.509298e+001  4.175714e+001 -8.500000e+000
    endloop
  endfacet
  facet normal  0.000000e+000  0.000000e+000 -1.000000e+000
    outer loop
      vertex  1.518034e+001  3.925571e+001 -8.500000e+000
      vertex  1.509298e+001  4.175714e+001 -8.500000e+000
      vertex  1.588656e+001  3.821654e+001 -8.500000e+000
    endloop
  endfacet
  facet normal  0.000000e+000  0.000000e+000 -1.000000e+000
    outer loop
      vertex  1.588656e+001  3.821654e+001 -8.500000e+000
      vertex  1.509298e+001  4.175714e+001 -8.500000e+000
      vertex  1.592445e+001  4.075946e+001 -8.500000e+000
    endloop
  endfacet
  facet normal  0.000000e+000  -0.000000e+000 -1.000000e+000
    outer loop
      vertex  1.588656e+001  3.821654e+001 -8.500000e+000
      vertex  1.592445e+001  4.075946e+001 -8.500000e+000
      vertex  1.652613e+001  3.713507e+001 -8.500000e+000
    endloop
  endfacet
  facet normal  0.000000e+000  0.000000e+000 -1.000000e+000
    outer loop
      vertex  1.652613e+001  3.713507e+001 -8.500000e+000
      vertex  1.592445e+001  4.075946e+001 -8.500000e+000
      vertex  1.669415e+001  3.971339e+001 -8.500000e+000
    endloop
  endfacet
  facet normal  0.000000e+000  -0.000000e+000 -1.000000e+000
    outer loop
      vertex  1.652613e+001  3.713507e+001 -8.500000e+000
      vertex  1.669415e+001  3.971339e+001 -8.500000e+000
      vertex  1.709654e+001  3.601559e+001 -8.500000e+000
    endloop
  endfacet
  facet normal  0.000000e+000  0.000000e+000 -1.000000e+000
    outer loop
      vertex  1.709654e+001  3.601559e+001 -8.500000e+000
      vertex  1.669415e+001  3.971339e+001 -8.500000e+000
      vertex  1.739930e+001  3.862276e+001 -8.500000e+000
    endloop
  endfacet
  facet normal  0.000000e+000  -0.000000e+000 -1.000000e+000
    outer loop
      vertex  1.709654e+001  3.601559e+001 -8.500000e+000
      vertex  1.739930e+001  3.862276e+001 -8.500000e+000
      vertex  1.759553e+001  3.486249e+001 -8.500000e+000
    endloop
  endfacet
  facet normal  0.000000e+000  0.000000e+000 -1.000000e+000
    outer loop
      vertex  1.759553e+001  3.486249e+001 -8.500000e+000
      vertex  1.739930e+001  3.862276e+001 -8.500000e+000
      vertex  1.802113e+001  3.368034e+001 -8.500000e+000
    endloop
  endfacet
  facet normal  0.000000e+000  0.000000e+000 -1.000000e+000
    outer loop
      vertex  1.802113e+001  3.368034e+001 -8.500000e+000
      vertex  1.739930e+001  3.862276e+001 -8.500000e+000
      vertex  1.803730e+001  3.749155e+001 -8.500000e+000
    endloop
  endfacet
  facet normal  0.000000e+000  -0.000000e+000 -1.000000e+000
    outer loop
      vertex  1.802113e+001  3.368034e+001 -8.500000e+000
      vertex  1.803730e+001  3.749155e+001 -8.500000e+000
      vertex  1.837166e+001  3.247380e+001 -8.500000e+000
    endloop
  endfacet
  facet normal  0.000000e+000  0.000000e+000 -1.000000e+000
    outer loop
      vertex  1.837166e+001  3.247380e+001 -8.500000e+000
      vertex  1.803730e+001  3.749155e+001 -8.500000e+000
      vertex  1.860585e+001  3.632388e+001 -8.500000e+000
    endloop
  endfacet
  facet normal  0.000000e+000  -0.000000e+000 -9.999999e-001
    outer loop
      vertex  1.837166e+001  3.247380e+001 -8.500000e+000
      vertex  1.860585e+001  3.632388e+001 -8.500000e+000
      vertex  1.864574e+001  3.124763e+001 -8.500000e+000
    endloop
  endfacet
  facet normal  3.020376e-002  9.995437e-001  0.000000e+000
    outer loop
      vertex -1.000000e+000  4.900000e+001 -8.500000e+000
      vertex -1.000000e+000  4.900000e+001  1.500000e+000
      vertex  2.981377e-001  4.896077e+001 -8.500000e+000
    endloop
  endfacet
  facet normal  3.020376e-002  9.995437e-001  -0.000000e+000
    outer loop
      vertex  2.981377e-001  4.896077e+001 -8.500000e+000
      vertex -1.000000e+000  4.900000e+001  1.500000e+000
      vertex  2.981377e-001  4.896077e+001  1.500000e+000
    endloop
  endfacet
  facet normal  9.049673e-002  9.958968e-001  0.000000e+000
    outer loop
      vertex  2.981377e-001  4.896077e+001 -8.500000e+000
      vertex  2.981377e-001  4.896077e+001  1.500000e+000
      vertex  1.591539e+000  4.884324e+001 -8.500000e+000
    endloop
  endfacet
  facet normal  9.049673e-002  9.958968e-001  -0.000000e+000
    outer loop
      vertex  1.591539e+000  4.884324e+001 -8.500000e+000
      vertex  2.981377e-001  4.896077e+001  1.500000e+000
      vertex  1.591539e+000  4.884324e+001  1.500000e+000
    endloop
  endfacet
  facet normal  1.504666e-001  9.886152e-001  0.000000e+000
    outer loop
      vertex  1.591539e+000  4.884324e+001 -8.500000e+000
      vertex  1.591539e+000  4.884324e+001  1.500000e+000
      vertex  2.875483e+000  4.864783e+001 -8.500000e+000
    endloop
  endfacet
  facet normal  1.504666e-001  9.886152e-001  -0.000000e+000
    outer loop
      vertex  2.875483e+000  4.864783e+001 -8.500000e+000
      vertex  1.591539e+000  4.884324e+001  1.500000e+000
      vertex  2.875483e+000  4.864783e+001  1.500000e+000
    endloop
  endfacet
  facet normal  2.098814e-001  9.777269e-001  0.000000e+000
    outer loop
      vertex  2.875483e+000  4.864783e+001 -8.500000e+000
      vertex  2.875483e+000  4.864783e+001  1.500000e+000
      vertex  4.145287e+000  4.837525e+001 -8.500000e+000
    endloop
  endfacet
  facet normal  2.098814e-001  9.777269e-001  -0.000000e+000
    outer loop
      vertex  4.145287e+000  4.837525e+001 -8.500000e+000
      vertex  2.875483e+000  4.864783e+001  1.500000e+000
      vertex  4.145287e+000  4.837525e+001  1.500000e+000
    endloop
  endfacet
  facet normal  2.685323e-001  9.632707e-001  0.000000e+000
    outer loop
      vertex  4.145287e+000  4.837525e+001 -8.500000e+000
      vertex  4.145287e+000  4.837525e+001  1.500000e+000
      vertex  5.396316e+000  4.802650e+001 -8.500000e+000
    endloop
  endfacet
  facet normal  2.685323e-001  9.632707e-001  -0.000000e+000
    outer loop
      vertex  5.396316e+000  4.802650e+001 -8.500000e+000
      vertex  4.145287e+000  4.837525e+001  1.500000e+000
      vertex  5.396316e+000  4.802650e+001  1.500000e+000
    endloop
  endfacet
  facet normal  3.262024e-001  9.453000e-001  0.000000e+000
    outer loop
      vertex  5.396316e+000  4.802650e+001 -8.500000e+000
      vertex  5.396316e+000  4.802650e+001  1.500000e+000
      vertex  6.624005e+000  4.760285e+001 -8.500000e+000
    endloop
  endfacet
  facet normal  3.262024e-001  9.453000e-001  -0.000000e+000
    outer loop
      vertex  6.624005e+000  4.760285e+001 -8.500000e+000
      vertex  5.396316e+000  4.802650e+001  1.500000e+000
      vertex  6.624005e+000  4.760285e+001  1.500000e+000
    endloop
  endfacet
  facet normal  3.826827e-001  9.238798e-001  0.000000e+000
    outer loop
      vertex  6.624005e+000  4.760285e+001 -8.500000e+000
      vertex  6.624005e+000  4.760285e+001  1.500000e+000
      vertex  7.823875e+000  4.710585e+001 -8.500000e+000
    endloop
  endfacet
  facet normal  3.826827e-001  9.238798e-001  -0.000000e+000
    outer loop
      vertex  7.823875e+000  4.710585e+001 -8.500000e+000
      vertex  6.624005e+000  4.760285e+001  1.500000e+000
      vertex  7.823875e+000  4.710585e+001  1.500000e+000
    endloop
  endfacet
  facet normal  4.377678e-001  8.990880e-001  0.000000e+000
    outer loop
      vertex  7.823875e+000  4.710585e+001 -8.500000e+000
      vertex  7.823875e+000  4.710585e+001  1.500000e+000
      vertex  8.991549e+000  4.653730e+001 -8.500000e+000
    endloop
  endfacet
  facet normal  4.377678e-001  8.990880e-001  -0.000000e+000
    outer loop
      vertex  8.991549e+000  4.653730e+001 -8.500000e+000
      vertex  7.823875e+000  4.710585e+001  1.500000e+000
      vertex  8.991549e+000  4.653730e+001  1.500000e+000
    endloop
  endfacet
  facet normal  4.912554e-001  8.710156e-001  0.000000e+000
    outer loop
      vertex  8.991549e+000  4.653730e+001 -8.500000e+000
      vertex  8.991549e+000  4.653730e+001  1.500000e+000
      vertex  1.012276e+001  4.589930e+001 -8.500000e+000
    endloop
  endfacet
  facet normal  4.912554e-001  8.710156e-001  -0.000000e+000
    outer loop
      vertex  1.012276e+001  4.589930e+001 -8.500000e+000
      vertex  8.991549e+000  4.653730e+001  1.500000e+000
      vertex  1.012276e+001  4.589930e+001  1.500000e+000
    endloop
  endfacet
  facet normal  5.429481e-001  8.397663e-001  0.000000e+000
    outer loop
      vertex  1.012276e+001  4.589930e+001 -8.500000e+000
      vertex  1.012276e+001  4.589930e+001  1.500000e+000
      vertex  1.121339e+001  4.519415e+001 -8.500000e+000
    endloop
  endfacet
  facet normal  5.429481e-001  8.397663e-001  -0.000000e+000
    outer loop
      vertex  1.121339e+001  4.519415e+001 -8.500000e+000
      vertex  1.012276e+001  4.589930e+001  1.500000e+000
      vertex  1.121339e+001  4.519415e+001  1.500000e+000
    endloop
  endfacet
  facet normal  5.926615e-001  8.054516e-001  0.000000e+000
    outer loop
      vertex  1.121339e+001  4.519415e+001 -8.500000e+000
      vertex  1.121339e+001  4.519415e+001  1.500000e+000
      vertex  1.225946e+001  4.442445e+001 -8.500000e+000
    endloop
  endfacet
  facet normal  5.926615e-001  8.054516e-001  -0.000000e+000
    outer loop
      vertex  1.225946e+001  4.442445e+001 -8.500000e+000
      vertex  1.121339e+001  4.519415e+001  1.500000e+000
      vertex  1.225946e+001  4.442445e+001  1.500000e+000
    endloop
  endfacet
  facet normal  6.402141e-001  7.681966e-001  0.000000e+000
    outer loop
      vertex  1.225946e+001  4.442445e+001 -8.500000e+000
      vertex  1.225946e+001  4.442445e+001  1.500000e+000
      vertex  1.325714e+001  4.359298e+001 -8.500000e+000
    endloop
  endfacet
  facet normal  6.402141e-001  7.681966e-001  -0.000000e+000
    outer loop
      vertex  1.325714e+001  4.359298e+001 -8.500000e+000
      vertex  1.225946e+001  4.442445e+001  1.500000e+000
      vertex  1.325714e+001  4.359298e+001  1.500000e+000
    endloop
  endfacet
  facet normal  6.854262e-001  7.281420e-001  0.000000e+000
    outer loop
      vertex  1.325714e+001  4.359298e+001 -8.500000e+000
      vertex  1.325714e+001  4.359298e+001  1.500000e+000
      vertex  1.420280e+001  4.270280e+001 -8.500000e+000
    endloop
  endfacet
  facet normal  6.854262e-001  7.281420e-001  -0.000000e+000
    outer loop
      vertex  1.420280e+001  4.270280e+001 -8.500000e+000
      vertex  1.325714e+001  4.359298e+001  1.500000e+000
      vertex  1.420280e+001  4.270280e+001  1.500000e+000
    endloop
  endfacet
  facet normal  7.281413e-001  6.854271e-001  0.000000e+000
    outer loop
      vertex  1.420280e+001  4.270280e+001 -8.500000e+000
      vertex  1.420280e+001  4.270280e+001  1.500000e+000
      vertex  1.509298e+001  4.175714e+001 -8.500000e+000
    endloop
  endfacet
  facet normal  7.281413e-001  6.854271e-001  -0.000000e+000
    outer loop
      vertex  1.509298e+001  4.175714e+001 -8.500000e+000
      vertex  1.420280e+001  4.270280e+001  1.500000e+000
      vertex  1.509298e+001  4.175714e+001  1.500000e+000
    endloop
  endfacet
  facet normal  7.681973e-001  6.402131e-001  0.000000e+000
    outer loop
      vertex  1.509298e+001  4.175714e+001 -8.500000e+000
      vertex  1.509298e+001  4.175714e+001  1.500000e+000
      vertex  1.592445e+001  4.075946e+001 -8.500000e+000
    endloop
  endfacet
  facet normal  7.681973e-001  6.402131e-001  -0.000000e+000
    outer loop
      vertex  1.592445e+001  4.075946e+001 -8.500000e+000
      vertex  1.509298e+001  4.175714e+001  1.500000e+000
      vertex  1.592445e+001  4.075946e+001  1.500000e+000
    endloop
  endfacet
  facet normal  8.054521e-001  5.926610e-001  0.000000e+000
    outer loop
      vertex  1.592445e+001  4.075946e+001 -8.500000e+000
      vertex  1.592445e+001  4.075946e+001  1.500000e+000
      vertex  1.669415e+001  3.971339e+001 -8.500000e+000
    endloop
  endfacet
  facet normal  8.054521e-001  5.926610e-001  -0.000000e+000
    outer loop
      vertex  1.669415e+001  3.971339e+001 -8.500000e+000
      vertex  1.592445e+001  4.075946e+001  1.500000e+000
      vertex  1.669415e+001  3.971339e+001  1.500000e+000
    endloop
  endfacet
  facet normal  8.397647e-001  5.429505e-001  0.000000e+000
    outer loop
      vertex  1.669415e+001  3.971339e+001 -8.500000e+000
      vertex  1.669415e+001  3.971339e+001  1.500000e+000
      vertex  1.739930e+001  3.862276e+001 -8.500000e+000
    endloop
  endfacet
  facet normal  8.397647e-001  5.429505e-001  -0.000000e+000
    outer loop
      vertex  1.739930e+001  3.862276e+001 -8.500000e+000
      vertex  1.669415e+001  3.971339e+001  1.500000e+000
      vertex  1.739930e+001  3.862276e+001  1.500000e+000
    endloop
  endfacet
  facet normal  8.710169e-001  4.912530e-001  0.000000e+000
    outer loop
      vertex  1.739930e+001  3.862276e+001 -8.500000e+000
      vertex  1.739930e+001  3.862276e+001  1.500000e+000
      vertex  1.803730e+001  3.749155e+001 -8.500000e+000
    endloop
  endfacet
  facet normal  8.710169e-001  4.912530e-001  -0.000000e+000
    outer loop
      vertex  1.803730e+001  3.749155e+001 -8.500000e+000
      vertex  1.739930e+001  3.862276e+001  1.500000e+000
      vertex  1.803730e+001  3.749155e+001  1.500000e+000
    endloop
  endfacet
  facet normal  8.990878e-001  4.377684e-001  0.000000e+000
    outer loop
      vertex  1.803730e+001  3.749155e+001 -8.500000e+000
      vertex  1.803730e+001  3.749155e+001  1.500000e+000
      vertex  1.860585e+001  3.632388e+001 -8.500000e+000
    endloop
  endfacet
  facet normal  8.990878e-001  4.377684e-001  -0.000000e+000
    outer loop
      vertex  1.860585e+001  3.632388e+001 -8.500000e+000
      vertex  1.803730e+001  3.749155e+001  1.500000e+000
      vertex  1.860585e+001  3.632388e+001  1.500000e+000
    endloop
  endfacet
  facet normal  9.238793e-001  3.826839e-001  0.000000e+000
    outer loop
      vertex  1.860585e+001  3.632388e+001 -8.500000e+000
      vertex  1.860585e+001  3.632388e+001  1.500000e+000
      vertex  1.910285e+001  3.512400e+001 -8.500000e+000
    endloop
  endfacet
  facet normal  9.238793e-001  3.826839e-001  -0.000000e+000
    outer loop
      vertex  1.910285e+001  3.512400e+001 -8.500000e+000
      vertex  1.860585e+001  3.632388e+001  1.500000e+000
      vertex  1.910285e+001  3.512400e+001  1.500000e+000
    endloop
  endfacet
  facet normal  9.452999e-001  3.262028e-001  0.000000e+000
    outer loop
      vertex  1.910285e+001  3.512400e+001 -8.500000e+000
      vertex  1.910285e+001  3.512400e+001  1.500000e+000
      vertex  1.952650e+001  3.389632e+001 -8.500000e+000
    endloop
  endfacet
  facet normal  9.452999e-001  3.262028e-001  -0.000000e+000
    outer loop
      vertex  1.952650e+001  3.389632e+001 -8.500000e+000
      vertex  1.910285e+001  3.512400e+001  1.500000e+000
      vertex  1.952650e+001  3.389632e+001  1.500000e+000
    endloop
  endfacet
  facet normal  9.632707e-001  2.685321e-001  0.000000e+000
    outer loop
      vertex  1.952650e+001  3.389632e+001 -8.500000e+000
      vertex  1.952650e+001  3.389632e+001  1.500000e+000
      vertex  1.987525e+001  3.264529e+001 -8.500000e+000
    endloop
  endfacet
  facet normal  9.632707e-001  2.685321e-001  -0.000000e+000
    outer loop
      vertex  1.987525e+001  3.264529e+001 -8.500000e+000
      vertex  1.952650e+001  3.389632e+001  1.500000e+000
      vertex  1.987525e+001  3.264529e+001  1.500000e+000
    endloop
  endfacet
  facet normal  9.777272e-001  2.098798e-001  0.000000e+000
    outer loop
      vertex  1.987525e+001  3.264529e+001 -8.500000e+000
      vertex  1.987525e+001  3.264529e+001  1.500000e+000
      vertex  2.014783e+001  3.137548e+001 -8.500000e+000
    endloop
  endfacet
  facet normal  9.777272e-001  2.098798e-001  -0.000000e+000
    outer loop
      vertex  2.014783e+001  3.137548e+001 -8.500000e+000
      vertex  1.987525e+001  3.264529e+001  1.500000e+000
      vertex  2.014783e+001  3.137548e+001  1.500000e+000
    endloop
  endfacet
  facet normal  9.886153e-001  1.504653e-001  0.000000e+000
    outer loop
      vertex  2.014783e+001  3.137548e+001 -8.500000e+000
      vertex  2.014783e+001  3.137548e+001  1.500000e+000
      vertex  2.034324e+001  3.009154e+001 -8.500000e+000
    endloop
  endfacet
  facet normal  9.886153e-001  1.504653e-001  -0.000000e+000
    outer loop
      vertex  2.034324e+001  3.009154e+001 -8.500000e+000
      vertex  2.014783e+001  3.137548e+001  1.500000e+000
      vertex  2.034324e+001  3.009154e+001  1.500000e+000
    endloop
  endfacet
  facet normal  9.958966e-001  9.049813e-002  0.000000e+000
    outer loop
      vertex  2.034324e+001  3.009154e+001 -8.500000e+000
      vertex  2.034324e+001  3.009154e+001  1.500000e+000
      vertex  2.046077e+001  2.879814e+001 -8.500000e+000
    endloop
  endfacet
  facet normal  9.958966e-001  9.049813e-002  -0.000000e+000
    outer loop
      vertex  2.046077e+001  2.879814e+001 -8.500000e+000
      vertex  2.034324e+001  3.009154e+001  1.500000e+000
      vertex  2.046077e+001  2.879814e+001  1.500000e+000
    endloop
  endfacet
  facet normal  9.995437e-001  3.020376e-002  0.000000e+000
    outer loop
      vertex  2.046077e+001  2.879814e+001 -8.500000e+000
      vertex  2.046077e+001  2.879814e+001  1.500000e+000
      vertex  2.050000e+001  2.750000e+001 -8.500000e+000
    endloop
  endfacet
  facet normal  9.995437e-001  3.020376e-002  -0.000000e+000
    outer loop
      vertex  2.050000e+001  2.750000e+001 -8.500000e+000
      vertex  2.046077e+001  2.879814e+001  1.500000e+000
      vertex  2.050000e+001  2.750000e+001  1.500000e+000
    endloop
  endfacet
  facet normal  0.000000e+000  1.000000e+000  -0.000000e+000
    outer loop
      vertex -5.000000e+000  3.250000e+001  0.000000e+000
      vertex -5.000000e+000  3.250000e+001 -8.500000e+000
      vertex -2.500000e+001  3.250000e+001  0.000000e+000
    endloop
  endfacet
  facet normal  0.000000e+000  1.000000e+000  0.000000e+000
    outer loop
      vertex -2.500000e+001  3.250000e+001  0.000000e+000
      vertex -5.000000e+000  3.250000e+001 -8.500000e+000
      vertex -2.500000e+001  3.250000e+001 -8.500000e+000
    endloop
  endfacet
  facet normal  1.000000e+000 -2.583792e-016  4.179663e-016
    outer loop
      vertex  0.000000e+000  0.000000e+000  0.000000e+000
      vertex  3.552714e-015  0.000000e+000 -8.500000e+000
      vertex  7.105427e-015  2.750000e+001  0.000000e+000
    endloop
  endfacet
  facet normal  1.000000e+000  1.291896e-016 -8.359326e-016
    outer loop
      vertex  7.105427e-015  2.750000e+001  0.000000e+000
      vertex  3.552714e-015  0.000000e+000 -8.500000e+000
      vertex  0.000000e+000  2.750000e+001 -8.500000e+000
    endloop
  endfacet
  facet normal  6.038084e-002  9.981754e-001  0.000000e+000
    outer loop
      vertex -5.000000e+000  3.250000e+001 -8.500000e+000
      vertex -5.000000e+000  3.250000e+001  0.000000e+000
      vertex -4.397316e+000  3.246354e+001 -8.500000e+000
    endloop
  endfacet
  facet normal  6.038084e-002  9.981754e-001  -0.000000e+000
    outer loop
      vertex -4.397316e+000  3.246354e+001 -8.500000e+000
      vertex -5.000000e+000  3.250000e+001  0.000000e+000
      vertex -4.397316e+000  3.246354e+001  0.000000e+000
    endloop
  endfacet
  facet normal  1.802519e-001  9.836205e-001  0.000000e+000
    outer loop
      vertex -4.397316e+000  3.246354e+001 -8.500000e+000
      vertex -4.397316e+000  3.246354e+001  0.000000e+000
      vertex -3.803422e+000  3.235471e+001 -8.500000e+000
    endloop
  endfacet
  facet normal  1.802519e-001  9.836205e-001  -0.000000e+000
    outer loop
      vertex -3.803422e+000  3.235471e+001 -8.500000e+000
      vertex -4.397316e+000  3.246354e+001  0.000000e+000
      vertex -3.803422e+000  3.235471e+001  0.000000e+000
    endloop
  endfacet
  facet normal  2.975067e-001  9.547197e-001  0.000000e+000
    outer loop
      vertex -3.803422e+000  3.235471e+001 -8.500000e+000
      vertex -3.803422e+000  3.235471e+001  0.000000e+000
      vertex -3.226976e+000  3.217508e+001 -8.500000e+000
    endloop
  endfacet
  facet normal  2.975067e-001  9.547197e-001  -0.000000e+000
    outer loop
      vertex -3.226976e+000  3.217508e+001 -8.500000e+000
      vertex -3.803422e+000  3.235471e+001  0.000000e+000
      vertex -3.226976e+000  3.217508e+001  0.000000e+000
    endloop
  endfacet
  facet normal  4.104098e-001  9.119012e-001  0.000000e+000
    outer loop
      vertex -3.226976e+000  3.217508e+001 -8.500000e+000
      vertex -3.226976e+000  3.217508e+001  0.000000e+000
      vertex -2.676384e+000  3.192728e+001 -8.500000e+000
    endloop
  endfacet
  facet normal  4.104098e-001  9.119012e-001  -0.000000e+000
    outer loop
      vertex -2.676384e+000  3.192728e+001 -8.500000e+000
      vertex -3.226976e+000  3.217508e+001  0.000000e+000
      vertex -2.676384e+000  3.192728e+001  0.000000e+000
    endloop
  endfacet
  facet normal  5.173377e-001  8.557813e-001  0.000000e+000
    outer loop
      vertex -2.676384e+000  3.192728e+001 -8.500000e+000
      vertex -2.676384e+000  3.192728e+001  0.000000e+000
      vertex -2.159676e+000  3.161492e+001 -8.500000e+000
    endloop
  endfacet
  facet normal  5.173377e-001  8.557813e-001  -0.000000e+000
    outer loop
      vertex -2.159676e+000  3.161492e+001 -8.500000e+000
      vertex -2.676384e+000  3.192728e+001  0.000000e+000
      vertex -2.159676e+000  3.161492e+001  0.000000e+000
    endloop
  endfacet
  facet normal  6.167192e-001  7.871832e-001  0.000000e+000
    outer loop
      vertex -2.159676e+000  3.161492e+001 -8.500000e+000
      vertex -2.159676e+000  3.161492e+001  0.000000e+000
      vertex -1.684387e+000  3.124255e+001 -8.500000e+000
    endloop
  endfacet
  facet normal  6.167192e-001  7.871832e-001  -0.000000e+000
    outer loop
      vertex -1.684387e+000  3.124255e+001 -8.500000e+000
      vertex -2.159676e+000  3.161492e+001  0.000000e+000
      vertex -1.684387e+000  3.124255e+001  0.000000e+000
    endloop
  endfacet
  facet normal  7.071072e-001  7.071064e-001  0.000000e+000
    outer loop
      vertex -1.684387e+000  3.124255e+001 -8.500000e+000
      vertex -1.684387e+000  3.124255e+001  0.000000e+000
      vertex -1.257446e+000  3.081561e+001 -8.500000e+000
    endloop
  endfacet
  facet normal  7.071072e-001  7.071064e-001  -0.000000e+000
    outer loop
      vertex -1.257446e+000  3.081561e+001 -8.500000e+000
      vertex -1.684387e+000  3.124255e+001  0.000000e+000
      vertex -1.257446e+000  3.081561e+001  0.000000e+000
    endloop
  endfacet
  facet normal  7.871827e-001  6.167198e-001  0.000000e+000
    outer loop
      vertex -1.257446e+000  3.081561e+001 -8.500000e+000
      vertex -1.257446e+000  3.081561e+001  0.000000e+000
      vertex -8.850807e-001  3.034032e+001 -8.500000e+000
    endloop
  endfacet
  facet normal  7.871827e-001  6.167198e-001  -0.000000e+000
    outer loop
      vertex -8.850807e-001  3.034032e+001 -8.500000e+000
      vertex -1.257446e+000  3.081561e+001  0.000000e+000
      vertex -8.850807e-001  3.034032e+001  0.000000e+000
    endloop
  endfacet
  facet normal  8.557815e-001  5.173375e-001  0.000000e+000
    outer loop
      vertex -8.850807e-001  3.034032e+001 -8.500000e+000
      vertex -8.850807e-001  3.034032e+001  0.000000e+000
      vertex -5.727199e-001  2.982362e+001 -8.500000e+000
    endloop
  endfacet
  facet normal  8.557815e-001  5.173375e-001  -0.000000e+000
    outer loop
      vertex -5.727199e-001  2.982362e+001 -8.500000e+000
      vertex -8.850807e-001  3.034032e+001  0.000000e+000
      vertex -5.727199e-001  2.982362e+001  0.000000e+000
    endloop
  endfacet
  facet normal  9.119001e-001  4.104122e-001  0.000000e+000
    outer loop
      vertex -5.727199e-001  2.982362e+001 -8.500000e+000
      vertex -5.727199e-001  2.982362e+001  0.000000e+000
      vertex -3.249188e-001  2.927302e+001 -8.500000e+000
    endloop
  endfacet
  facet normal  9.119001e-001  4.104122e-001  -0.000000e+000
    outer loop
      vertex -3.249188e-001  2.927302e+001 -8.500000e+000
      vertex -5.727199e-001  2.982362e+001  0.000000e+000
      vertex -3.249188e-001  2.927302e+001  0.000000e+000
    endloop
  endfacet
  facet normal  9.547207e-001  2.975037e-001  0.000000e+000
    outer loop
      vertex -3.249188e-001  2.927302e+001 -8.500000e+000
      vertex -3.249188e-001  2.927302e+001  0.000000e+000
      vertex -1.452909e-001  2.869658e+001 -8.500000e+000
    endloop
  endfacet
  facet normal  9.547207e-001  2.975037e-001  -0.000000e+000
    outer loop
      vertex -1.452909e-001  2.869658e+001 -8.500000e+000
      vertex -3.249188e-001  2.927302e+001  0.000000e+000
      vertex -1.452909e-001  2.869658e+001  0.000000e+000
    endloop
  endfacet
  facet normal  9.836199e-001  1.802550e-001  0.000000e+000
    outer loop
      vertex -1.452909e-001  2.869658e+001 -8.500000e+000
      vertex -1.452909e-001  2.869658e+001  0.000000e+000
      vertex -3.645563e-002  2.810268e+001 -8.500000e+000
    endloop
  endfacet
  facet normal  9.836199e-001  1.802550e-001  -0.000000e+000
    outer loop
      vertex -3.645563e-002  2.810268e+001 -8.500000e+000
      vertex -1.452909e-001  2.869658e+001  0.000000e+000
      vertex -3.645563e-002  2.810268e+001  0.000000e+000
    endloop
  endfacet
  facet normal  9.981756e-001  6.037844e-002  0.000000e+000
    outer loop
      vertex -3.645563e-002  2.810268e+001 -8.500000e+000
      vertex -3.645563e-002  2.810268e+001  0.000000e+000
      vertex  0.000000e+000  2.750000e+001 -8.500000e+000
    endloop
  endfacet
  facet normal  9.981756e-001  6.037844e-002 -8.344076e-016
    outer loop
      vertex  0.000000e+000  2.750000e+001 -8.500000e+000
      vertex -3.645563e-002  2.810268e+001  0.000000e+000
      vertex  7.105427e-015  2.750000e+001  0.000000e+000
    endloop
  endfacet
  facet normal  0.000000e+000  0.000000e+000 -1.000000e+000
    outer loop
      vertex -2.500000e+001  3.100000e+001 -8.500000e+000
      vertex -2.500000e+001  3.250000e+001 -8.500000e+000
      vertex -5.000000e+000  3.250000e+001 -8.500000e+000
    endloop
  endfacet
  facet normal  0.000000e+000  -0.000000e+000 -1.000000e+000
    outer loop
      vertex -2.500000e+001  3.100000e+001 -8.500000e+000
      vertex -5.000000e+000  3.250000e+001 -8.500000e+000
      vertex -4.397316e+000  3.246354e+001 -8.500000e+000
    endloop
  endfacet
  facet normal  0.000000e+000  -0.000000e+000 -1.000000e+000
    outer loop
      vertex -2.500000e+001  3.100000e+001 -8.500000e+000
      vertex -4.397316e+000  3.246354e+001 -8.500000e+000
      vertex -3.803422e+000  3.235471e+001 -8.500000e+000
    endloop
  endfacet
  facet normal  0.000000e+000  -0.000000e+000 -1.000000e+000
    outer loop
      vertex -2.500000e+001  3.100000e+001 -8.500000e+000
      vertex -3.803422e+000  3.235471e+001 -8.500000e+000
      vertex -3.226976e+000  3.217508e+001 -8.500000e+000
    endloop
  endfacet
  facet normal  0.000000e+000  -0.000000e+000 -1.000000e+000
    outer loop
      vertex -2.500000e+001  3.100000e+001 -8.500000e+000
      vertex -3.226976e+000  3.217508e+001 -8.500000e+000
      vertex -2.676384e+000  3.192728e+001 -8.500000e+000
    endloop
  endfacet
  facet normal  0.000000e+000  -0.000000e+000 -1.000000e+000
    outer loop
      vertex -2.500000e+001  3.100000e+001 -8.500000e+000
      vertex -2.676384e+000  3.192728e+001 -8.500000e+000
      vertex -2.159676e+000  3.161492e+001 -8.500000e+000
    endloop
  endfacet
  facet normal  0.000000e+000  -0.000000e+000 -1.000000e+000
    outer loop
      vertex -2.500000e+001  3.100000e+001 -8.500000e+000
      vertex -2.159676e+000  3.161492e+001 -8.500000e+000
      vertex -1.684387e+000  3.124255e+001 -8.500000e+000
    endloop
  endfacet
  facet normal  0.000000e+000  0.000000e+000 -1.000000e+000
    outer loop
      vertex -2.500000e+001  3.100000e+001 -8.500000e+000
      vertex -1.684387e+000  3.124255e+001 -8.500000e+000
      vertex -5.000000e+000  3.100000e+001 -8.500000e+000
    endloop
  endfacet
  facet normal  0.000000e+000  0.000000e+000 -1.000000e+000
    outer loop
      vertex -5.000000e+000  3.100000e+001 -8.500000e+000
      vertex -1.684387e+000  3.124255e+001 -8.500000e+000
      vertex -4.501898e+000  3.096437e+001 -8.500000e+000
    endloop
  endfacet
  facet normal  0.000000e+000  0.000000e+000 -1.000000e+000
    outer loop
      vertex -4.501898e+000  3.096437e+001 -8.500000e+000
      vertex -1.684387e+000  3.124255e+001 -8.500000e+000
      vertex -1.257446e+000  3.081561e+001 -8.500000e+000
    endloop
  endfacet
  facet normal  0.000000e+000  0.000000e+000 -1.000000e+000
    outer loop
      vertex -4.501898e+000  3.096437e+001 -8.500000e+000
      vertex -1.257446e+000  3.081561e+001 -8.500000e+000
      vertex -4.013936e+000  3.085822e+001 -8.500000e+000
    endloop
  endfacet
  facet normal  -0.000000e+000  0.000000e+000 -1.000000e+000
    outer loop
      vertex -4.013936e+000  3.085822e+001 -8.500000e+000
      vertex -1.257446e+000  3.081561e+001 -8.500000e+000
      vertex -3.546047e+000  3.068371e+001 -8.500000e+000
    endloop
  endfacet
  facet normal  0.000000e+000  0.000000e+000 -1.000000e+000
    outer loop
      vertex -3.546047e+000  3.068371e+001 -8.500000e+000
      vertex -1.257446e+000  3.081561e+001 -8.500000e+000
      vertex -8.850807e-001  3.034032e+001 -8.500000e+000
    endloop
  endfacet
  facet normal  0.000000e+000  0.000000e+000 -1.000000e+000
    outer loop
      vertex -3.546047e+000  3.068371e+001 -8.500000e+000
      vertex -8.850807e-001  3.034032e+001 -8.500000e+000
      vertex -3.107757e+000  3.044439e+001 -8.500000e+000
    endloop
  endfacet
  facet normal  -0.000000e+000  0.000000e+000 -1.000000e+000
    outer loop
      vertex -3.107757e+000  3.044439e+001 -8.500000e+000
      vertex -8.850807e-001  3.034032e+001 -8.500000e+000
      vertex -2.707988e+000  3.014512e+001 -8.500000e+000
    endloop
  endfacet
  facet normal  0.000000e+000  0.000000e+000 -1.000000e+000
    outer loop
      vertex -2.707988e+000  3.014512e+001 -8.500000e+000
      vertex -8.850807e-001  3.034032e+001 -8.500000e+000
      vertex -5.727199e-001  2.982362e+001 -8.500000e+000
    endloop
  endfacet
  facet normal  -0.000000e+000  0.000000e+000 -1.000000e+000
    outer loop
      vertex -2.707988e+000  3.014512e+001 -8.500000e+000
      vertex -5.727199e-001  2.982362e+001 -8.500000e+000
      vertex -2.354877e+000  2.979201e+001 -8.500000e+000
    endloop
  endfacet
  facet normal  0.000000e+000  0.000000e+000 -1.000000e+000
    outer loop
      vertex -2.354877e+000  2.979201e+001 -8.500000e+000
      vertex -5.727199e-001  2.982362e+001 -8.500000e+000
      vertex -2.055613e+000  2.939224e+001 -8.500000e+000
    endloop
  endfacet
  facet normal  0.000000e+000  0.000000e+000 -1.000000e+000
    outer loop
      vertex -2.055613e+000  2.939224e+001 -8.500000e+000
      vertex -5.727199e-001  2.982362e+001 -8.500000e+000
      vertex -3.249188e-001  2.927302e+001 -8.500000e+000
    endloop
  endfacet
  facet normal  -0.000000e+000  0.000000e+000 -1.000000e+000
    outer loop
      vertex -2.055613e+000  2.939224e+001 -8.500000e+000
      vertex -3.249188e-001  2.927302e+001 -8.500000e+000
      vertex -1.816288e+000  2.895395e+001 -8.500000e+000
    endloop
  endfacet
  facet normal  0.000000e+000  0.000000e+000 -1.000000e+000
    outer loop
      vertex -1.816288e+000  2.895395e+001 -8.500000e+000
      vertex -3.249188e-001  2.927302e+001 -8.500000e+000
      vertex -1.452909e-001  2.869658e+001 -8.500000e+000
    endloop
  endfacet
  facet normal  -0.000000e+000  0.000000e+000 -1.000000e+000
    outer loop
      vertex -1.816288e+000  2.895395e+001 -8.500000e+000
      vertex -1.452909e-001  2.869658e+001 -8.500000e+000
      vertex -1.641775e+000  2.848606e+001 -8.500000e+000
    endloop
  endfacet
  facet normal  0.000000e+000  0.000000e+000 -1.000000e+000
    outer loop
      vertex -1.641775e+000  2.848606e+001 -8.500000e+000
      vertex -1.452909e-001  2.869658e+001 -8.500000e+000
      vertex -1.535625e+000  2.799810e+001 -8.500000e+000
    endloop
  endfacet
  facet normal  0.000000e+000  0.000000e+000 -1.000000e+000
    outer loop
      vertex -1.535625e+000  2.799810e+001 -8.500000e+000
      vertex -1.452909e-001  2.869658e+001 -8.500000e+000
      vertex -3.645563e-002  2.810268e+001 -8.500000e+000
    endloop
  endfacet
  facet normal  0.000000e+000  0.000000e+000 -1.000000e+000
    outer loop
      vertex -1.535625e+000  2.799810e+001 -8.500000e+000
      vertex -3.645563e-002  2.810268e+001 -8.500000e+000
      vertex -1.500000e+000  2.750000e+001 -8.500000e+000
    endloop
  endfacet
  facet normal  0.000000e+000  0.000000e+000 -9.999999e-001
    outer loop
      vertex -1.500000e+000  2.750000e+001 -8.500000e+000
      vertex -3.645563e-002  2.810268e+001 -8.500000e+000
      vertex  0.000000e+000  2.750000e+001 -8.500000e+000
    endloop
  endfacet
  facet normal  -0.000000e+000  0.000000e+000 -9.999999e-001
    outer loop
      vertex -1.500000e+000  2.750000e+001 -8.500000e+000
      vertex  0.000000e+000  2.750000e+001 -8.500000e+000
      vertex -1.500000e+000  0.000000e+000 -8.500000e+000
    endloop
  endfacet
  facet normal  0.000000e+000  0.000000e+000 -9.999999e-001
    outer loop
      vertex -1.500000e+000  0.000000e+000 -8.500000e+000
      vertex  0.000000e+000  2.750000e+001 -8.500000e+000
      vertex  3.552714e-015  0.000000e+000 -8.500000e+000
    endloop
  endfacet
  facet normal -5.992767e-001 -8.005420e-001  -0.000000e+000
    outer loop
      vertex -2.707988e+000  3.014512e+001 -8.500000e+000
      vertex -3.107757e+000  3.044439e+001  1.500000e+000
      vertex -3.107757e+000  3.044439e+001 -8.500000e+000
    endloop
  endfacet
  facet normal -4.792489e-001 -8.776790e-001  0.000000e+000
    outer loop
      vertex -3.107757e+000  3.044439e+001 -8.500000e+000
      vertex -3.107757e+000  3.044439e+001  1.500000e+000
      vertex -3.546047e+000  3.068371e+001  1.500000e+000
    endloop
  endfacet
  facet normal -4.792489e-001 -8.776790e-001  -0.000000e+000
    outer loop
      vertex -3.107757e+000  3.044439e+001 -8.500000e+000
      vertex -3.546047e+000  3.068371e+001  1.500000e+000
      vertex -3.546047e+000  3.068371e+001 -8.500000e+000
    endloop
  endfacet
  facet normal -3.494632e-001 -9.369500e-001  0.000000e+000
    outer loop
      vertex -3.546047e+000  3.068371e+001 -8.500000e+000
      vertex -3.546047e+000  3.068371e+001  1.500000e+000
      vertex -4.013936e+000  3.085822e+001  1.500000e+000
    endloop
  endfacet
  facet normal -3.494632e-001 -9.369500e-001  -0.000000e+000
    outer loop
      vertex -3.546047e+000  3.068371e+001 -8.500000e+000
      vertex -4.013936e+000  3.085822e+001  1.500000e+000
      vertex -4.013936e+000  3.085822e+001 -8.500000e+000
    endloop
  endfacet
  facet normal -2.125653e-001 -9.771469e-001  0.000000e+000
    outer loop
      vertex -4.013936e+000  3.085822e+001 -8.500000e+000
      vertex -4.013936e+000  3.085822e+001  1.500000e+000
      vertex -4.501898e+000  3.096437e+001  1.500000e+000
    endloop
  endfacet
  facet normal -2.125653e-001 -9.771469e-001  -0.000000e+000
    outer loop
      vertex -4.013936e+000  3.085822e+001 -8.500000e+000
      vertex -4.501898e+000  3.096437e+001  1.500000e+000
      vertex -4.501898e+000  3.096437e+001 -8.500000e+000
    endloop
  endfacet
  facet normal -7.134022e-002 -9.974520e-001  0.000000e+000
    outer loop
      vertex -4.501898e+000  3.096437e+001 -8.500000e+000
      vertex -4.501898e+000  3.096437e+001  1.500000e+000
      vertex -5.000000e+000  3.100000e+001  1.500000e+000
    endloop
  endfacet
  facet normal -7.134022e-002 -9.974520e-001  -0.000000e+000
    outer loop
      vertex -4.501898e+000  3.096437e+001 -8.500000e+000
      vertex -5.000000e+000  3.100000e+001  1.500000e+000
      vertex -5.000000e+000  3.100000e+001 -8.500000e+000
    endloop
  endfacet
  facet normal -5.992767e-001 -8.005420e-001  0.000000e+000
    outer loop
      vertex -3.107757e+000  3.044439e+001  1.500000e+000
      vertex -2.707988e+000  3.014512e+001 -8.500000e+000
      vertex -2.707988e+000  3.014512e+001  1.500000e+000
    endloop
  endfacet
  facet normal -7.071070e-001 -7.071065e-001  -0.000000e+000
    outer loop
      vertex -2.707988e+000  3.014512e+001  1.500000e+000
      vertex -2.707988e+000  3.014512e+001 -8.500000e+000
      vertex -2.354877e+000  2.979201e+001 -8.500000e+000
    endloop
  endfacet
  facet normal -7.071070e-001 -7.071065e-001  0.000000e+000
    outer loop
      vertex -2.707988e+000  3.014512e+001  1.500000e+000
      vertex -2.354877e+000  2.979201e+001 -8.500000e+000
      vertex -2.354877e+000  2.979201e+001  1.500000e+000
    endloop
  endfacet
  facet normal -8.005419e-001 -5.992768e-001  -0.000000e+000
    outer loop
      vertex -2.354877e+000  2.979201e+001  1.500000e+000
      vertex -2.354877e+000  2.979201e+001 -8.500000e+000
      vertex -2.055613e+000  2.939224e+001 -8.500000e+000
    endloop
  endfacet
  facet normal -8.005419e-001 -5.992768e-001  0.000000e+000
    outer loop
      vertex -2.354877e+000  2.979201e+001  1.500000e+000
      vertex -2.055613e+000  2.939224e+001 -8.500000e+000
      vertex -2.055613e+000  2.939224e+001  1.500000e+000
    endloop
  endfacet
  facet normal -8.776788e-001 -4.792495e-001  -0.000000e+000
    outer loop
      vertex -2.055613e+000  2.939224e+001  1.500000e+000
      vertex -2.055613e+000  2.939224e+001 -8.500000e+000
      vertex -1.816288e+000  2.895395e+001 -8.500000e+000
    endloop
  endfacet
  facet normal -8.776788e-001 -4.792495e-001  0.000000e+000
    outer loop
      vertex -2.055613e+000  2.939224e+001  1.500000e+000
      vertex -1.816288e+000  2.895395e+001 -8.500000e+000
      vertex -1.816288e+000  2.895395e+001  1.500000e+000
    endloop
  endfacet
  facet normal -9.369500e-001 -3.494635e-001  -0.000000e+000
    outer loop
      vertex -1.816288e+000  2.895395e+001  1.500000e+000
      vertex -1.816288e+000  2.895395e+001 -8.500000e+000
      vertex -1.641775e+000  2.848606e+001 -8.500000e+000
    endloop
  endfacet
  facet normal -9.369500e-001 -3.494635e-001  0.000000e+000
    outer loop
      vertex -1.816288e+000  2.895395e+001  1.500000e+000
      vertex -1.641775e+000  2.848606e+001 -8.500000e+000
      vertex -1.641775e+000  2.848606e+001  1.500000e+000
    endloop
  endfacet
  facet normal -9.771467e-001 -2.125656e-001  -0.000000e+000
    outer loop
      vertex -1.641775e+000  2.848606e+001  1.500000e+000
      vertex -1.641775e+000  2.848606e+001 -8.500000e+000
      vertex -1.535625e+000  2.799810e+001 -8.500000e+000
    endloop
  endfacet
  facet normal -9.771467e-001 -2.125656e-001  0.000000e+000
    outer loop
      vertex -1.641775e+000  2.848606e+001  1.500000e+000
      vertex -1.535625e+000  2.799810e+001 -8.500000e+000
      vertex -1.535625e+000  2.799810e+001  1.500000e+000
    endloop
  endfacet
  facet normal -9.974521e-001 -7.133920e-002  -0.000000e+000
    outer loop
      vertex -1.535625e+000  2.799810e+001  1.500000e+000
      vertex -1.535625e+000  2.799810e+001 -8.500000e+000
      vertex -1.500000e+000  2.750000e+001 -8.500000e+000
    endloop
  endfacet
  facet normal -9.974521e-001 -7.133920e-002  0.000000e+000
    outer loop
      vertex -1.535625e+000  2.799810e+001  1.500000e+000
      vertex -1.500000e+000  2.750000e+001 -8.500000e+000
      vertex -1.500000e+000  2.750000e+001  1.500000e+000
    endloop
  endfacet
endsolid CATIA STL
