  0
SECTION
  2
HEADER
  9
$ACADVER
  1
AC1006
  9
$EXTMIN
 10
0.000000
 20
0.000000
 30
0.000000
  9
$EXTMAX
 10
379.000000
 20
256.000000
 30
0.000000
  0
ENDSEC
  0
SECTION
  2
ENTITIES
  0
POLYLINE
  8
0
 66
1
 70
1
  0
VERTEX
  8
0
 10
306.000000
 20
235.417338
 42
0.063095
  0
VERTEX
  8
0
 10
292.564309
 20
229.988993
 42
0.089891
  0
VERTEX
  8
0
 10
282.654603
 20
221.821906
 42
0.089531
  0
VERTEX
  8
0
 10
276.215437
 20
210.669349
 42
0.062105
  0
VERTEX
  8
0
 10
273.017438
 20
196.433552
 42
0.016271
  0
VERTEX
  8
0
 10
272.640972
 20
190.594702
 42
0.002589
  0
VERTEX
  8
0
 10
272.335314
 20
179.136731
 42
0.002866
  0
VERTEX
  8
0
 10
272.122424
 20
165.628388
 42
0.002506
  0
VERTEX
  8
0
 10
272.051599
 20
151.500000
 42
0.003358
  0
VERTEX
  8
0
 10
272.237001
 20
123.893303
 42
0.016461
  0
VERTEX
  8
0
 10
272.959727
 20
108.311795
 42
0.029405
  0
VERTEX
  8
0
 10
274.382406
 20
98.072710
 42
0.060281
  0
VERTEX
  8
0
 10
276.906159
 20
90.386839
 42
0.078691
  0
VERTEX
  8
0
 10
283.975838
 20
79.935689
 42
0.079778
  0
VERTEX
  8
0
 10
293.899066
 20
72.237822
 42
0.073091
  0
VERTEX
  8
0
 10
306.509724
 20
67.568258
 42
0.052635
  0
VERTEX
  8
0
 10
321.460099
 20
66.014781
 42
0.062922
  0
VERTEX
  8
0
 10
339.574445
 20
68.333523
 42
0.091435
  0
VERTEX
  8
0
 10
354.148154
 20
75.112008
 42
0.100781
  0
VERTEX
  8
0
 10
364.375495
 20
86.042059
 42
0.092490
  0
VERTEX
  8
0
 10
369.905517
 20
100.433659
 42
0.037289
  0
VERTEX
  8
0
 10
370.387043
 20
104.880713
 42
0.002972
  0
VERTEX
  8
0
 10
370.711070
 20
116.715393
 42
0.003570
  0
VERTEX
  8
0
 10
370.930572
 20
132.076052
 42
0.001787
  0
VERTEX
  8
0
 10
371.000000
 20
151.500000
 42
0.002121
  0
VERTEX
  8
0
 10
370.866928
 20
182.866684
 42
0.016955
  0
VERTEX
  8
0
 10
370.254017
 20
197.316558
 42
0.037614
  0
VERTEX
  8
0
 10
368.881171
 20
206.309486
 42
0.057115
  0
VERTEX
  8
0
 10
366.240908
 20
213.754790
 42
0.056269
  0
VERTEX
  8
0
 10
362.995666
 20
218.847927
 42
0.030423
  0
VERTEX
  8
0
 10
357.973886
 20
224.341566
 42
0.030454
  0
VERTEX
  8
0
 10
352.368857
 20
229.144895
 42
0.060744
  0
VERTEX
  8
0
 10
347.325847
 20
232.074651
 42
0.048313
  0
VERTEX
  8
0
 10
337.878197
 20
235.084407
 42
0.032798
  0
VERTEX
  8
0
 10
326.700968
 20
236.731210
 42
0.032957
  0
VERTEX
  8
0
 10
315.501621
 20
236.897209
 42
0.051766
  0
SEQEND
  0
POLYLINE
  8
0
 66
1
 70
1
  0
VERTEX
  8
0
 10
325.558870
 20
207.581088
 42
-0.208893
  0
VERTEX
  8
0
 10
326.776941
 20
205.491272
 42
-0.018374
  0
VERTEX
  8
0
 10
327.271982
 20
199.247091
 42
-0.008552
  0
VERTEX
  8
0
 10
327.567636
 20
187.548959
 42
-0.000603
  0
VERTEX
  8
0
 10
327.795323
 20
154.831088
 42
-0.001096
  0
VERTEX
  8
0
 10
327.866195
 20
134.925913
 42
-0.001668
  0
VERTEX
  8
0
 10
327.832168
 20
117.633263
 42
-0.000594
  0
VERTEX
  8
0
 10
327.735364
 20
102.722443
 42
-0.043035
  0
VERTEX
  8
0
 10
327.506041
 20
100.282146
 42
-0.096394
  0
VERTEX
  8
0
 10
326.043597
 20
96.532892
 42
-0.154840
  0
VERTEX
  8
0
 10
323.439735
 20
94.342134
 42
-0.177900
  0
VERTEX
  8
0
 10
320.325951
 20
94.217224
 42
-0.131491
  0
VERTEX
  8
0
 10
317.404988
 20
96.103940
 42
-0.153459
  0
VERTEX
  8
0
 10
316.244214
 20
98.626489
 42
-0.020096
  0
VERTEX
  8
0
 10
315.727478
 20
104.582453
 42
-0.009048
  0
VERTEX
  8
0
 10
315.417008
 20
115.564786
 42
-0.000736
  0
VERTEX
  8
0
 10
315.166663
 20
144.353940
 42
-0.001639
  0
VERTEX
  8
0
 10
315.034781
 20
177.773319
 42
-0.011824
  0
VERTEX
  8
0
 10
315.404644
 20
193.866384
 42
-0.020142
  0
VERTEX
  8
0
 10
316.225403
 20
203.286900
 42
-0.166055
  0
VERTEX
  8
0
 10
318.094142
 20
207.094142
 42
-0.073525
  0
VERTEX
  8
0
 10
319.840867
 20
208.390890
 42
-0.107078
  0
VERTEX
  8
0
 10
321.678651
 20
208.916337
 42
-0.105305
  0
VERTEX
  8
0
 10
323.591802
 20
208.637565
 42
-0.069281
  0
SEQEND
  0
POLYLINE
  8
0
 66
1
 70
1
  0
VERTEX
  8
0
 10
9.000000
 20
151.034029
 42
0.000000
  0
VERTEX
  8
0
 10
9.000000
 20
68.853072
 42
0.000000
  0
VERTEX
  8
0
 10
47.250000
 20
69.224917
 42
0.001254
  0
VERTEX
  8
0
 10
69.006602
 20
69.491015
 42
0.008671
  0
VERTEX
  8
0
 10
79.674619
 20
69.833362
 42
0.016890
  0
VERTEX
  8
0
 10
86.084902
 20
70.367917
 42
0.063207
  0
VERTEX
  8
0
 10
90.000000
 20
71.339379
 42
0.058327
  0
VERTEX
  8
0
 10
97.850321
 20
75.486275
 42
0.097641
  0
VERTEX
  8
0
 10
103.048366
 20
80.808215
 42
0.084715
  0
VERTEX
  8
0
 10
106.288356
 20
88.264216
 42
0.035277
  0
VERTEX
  8
0
 10
108.154787
 20
99.112633
 42
0.025249
  0
VERTEX
  8
0
 10
108.961196
 20
115.434530
 42
0.002258
  0
VERTEX
  8
0
 10
108.729717
 20
156.490823
 42
0.001235
  0
VERTEX
  8
0
 10
108.186525
 20
199.512514
 42
0.057928
  0
VERTEX
  8
0
 10
107.047283
 20
208.171012
 42
0.057958
  0
VERTEX
  8
0
 10
105.107317
 20
213.288668
 42
0.042254
  0
VERTEX
  8
0
 10
101.859794
 20
218.438965
 42
0.042460
  0
VERTEX
  8
0
 10
97.818036
 20
222.938009
 42
0.060938
  0
VERTEX
  8
0
 10
93.500000
 20
226.101545
 42
0.044424
  0
VERTEX
  8
0
 10
85.905503
 20
229.509247
 42
0.050751
  0
VERTEX
  8
0
 10
78.158274
 20
231.336078
 42
0.025560
  0
VERTEX
  8
0
 10
66.709707
 20
232.242978
 42
0.003502
  0
VERTEX
  8
0
 10
42.750000
 20
232.744698
 42
0.000000
  0
VERTEX
  8
0
 10
9.000000
 20
233.214986
 42
0.000000
  0
SEQEND
  0
POLYLINE
  8
0
 66
1
 70
1
  0
VERTEX
  8
0
 10
59.871886
 20
203.894816
 42
-0.042032
  0
VERTEX
  8
0
 10
61.174407
 20
203.314015
 42
-0.033720
  0
VERTEX
  8
0
 10
62.466483
 20
202.484240
 42
-0.034821
  0
VERTEX
  8
0
 10
63.562072
 20
201.546540
 42
-0.069990
  0
VERTEX
  8
0
 10
64.252601
 20
200.644816
 42
-0.125426
  0
VERTEX
  8
0
 10
65.376424
 20
196.491055
 42
-0.000944
  0
VERTEX
  8
0
 10
65.831174
 20
160.944230
 42
-0.003279
  0
VERTEX
  8
0
 10
65.973199
 20
128.266832
 42
-0.022343
  0
VERTEX
  8
0
 10
65.217465
 20
112.161848
 42
-0.016192
  0
VERTEX
  8
0
 10
64.281938
 20
104.653036
 42
-0.091802
  0
VERTEX
  8
0
 10
62.945721
 20
100.868666
 42
-0.149941
  0
VERTEX
  8
0
 10
60.663752
 20
98.740156
 42
-0.068400
  0
VERTEX
  8
0
 10
56.750000
 20
97.458946
 42
0.000000
  0
VERTEX
  8
0
 10
53.000000
 20
96.777418
 42
0.000000
  0
VERTEX
  8
0
 10
53.000000
 20
150.888709
 42
-0.000548
  0
VERTEX
  8
0
 10
53.037685
 20
185.299925
 42
-0.008000
  0
VERTEX
  8
0
 10
53.258551
 20
197.440732
 42
-0.014607
  0
VERTEX
  8
0
 10
53.670145
 20
203.923942
 42
-0.387341
  0
VERTEX
  8
0
 10
54.850777
 20
205.000000
 42
-0.040097
  0
VERTEX
  8
0
 10
55.777333
 20
204.925576
 42
-0.014088
  0
VERTEX
  8
0
 10
57.089173
 20
204.675352
 42
-0.013884
  0
VERTEX
  8
0
 10
58.522348
 20
204.317912
 42
-0.015813
  0
SEQEND
  0
POLYLINE
  8
0
 66
1
 70
1
  0
VERTEX
  8
0
 10
124.000000
 20
151.000000
 42
0.000000
  0
VERTEX
  8
0
 10
124.000000
 20
69.000000
 42
0.000000
  0
VERTEX
  8
0
 10
143.000000
 20
69.000000
 42
0.000000
  0
VERTEX
  8
0
 10
162.000000
 20
69.000000
 42
0.000000
  0
VERTEX
  8
0
 10
162.135426
 20
103.250000
 42
-0.001420
  0
VERTEX
  8
0
 10
162.232390
 20
117.520295
 42
-0.001338
  0
VERTEX
  8
0
 10
162.411602
 20
132.075091
 42
-0.001330
  0
VERTEX
  8
0
 10
162.639218
 20
144.970920
 42
-0.004653
  0
VERTEX
  8
0
 10
162.885426
 20
153.282226
 42
0.000000
  0
VERTEX
  8
0
 10
163.500000
 20
169.064453
 42
0.000000
  0
VERTEX
  8
0
 10
170.468760
 20
119.005431
 42
0.000000
  0
VERTEX
  8
0
 10
177.437520
 20
68.946409
 42
0.000000
  0
VERTEX
  8
0
 10
190.968760
 20
69.223205
 42
0.000000
  0
VERTEX
  8
0
 10
204.500000
 20
69.500000
 42
0.000000
  0
VERTEX
  8
0
 10
211.000000
 20
119.500000
 42
-0.000343
  0
VERTEX
  8
0
 10
216.649299
 20
162.723959
 42
-0.582560
  0
VERTEX
  8
0
 10
217.775933
 20
163.180697
 42
-0.228208
  0
VERTEX
  8
0
 10
218.748961
 20
161.177766
 42
-0.000260
  0
VERTEX
  8
0
 10
218.891466
 20
113.250000
 42
0.000000
  0
VERTEX
  8
0
 10
219.000000
 20
69.000000
 42
0.000000
  0
VERTEX
  8
0
 10
238.000000
 20
69.000000
 42
0.000000
  0
VERTEX
  8
0
 10
257.000000
 20
69.000000
 42
0.000000
  0
VERTEX
  8
0
 10
257.000000
 20
151.000000
 42
0.000000
  0
VERTEX
  8
0
 10
257.000000
 20
233.000000
 42
0.000000
  0
VERTEX
  8
0
 10
229.019052
 20
233.000000
 42
0.000000
  0
VERTEX
  8
0
 10
201.038104
 20
233.000000
 42
0.000000
  0
VERTEX
  8
0
 10
200.554837
 20
230.750000
 42
0.019566
  0
VERTEX
  8
0
 10
200.260324
 20
229.059088
 42
0.000315
  0
VERTEX
  8
0
 10
198.980083
 20
219.467187
 42
0.000826
  0
VERTEX
  8
0
 10
197.516751
 20
208.309377
 42
0.000548
  0
VERTEX
  8
0
 10
195.872605
 20
195.500000
 42
-0.001472
  0
VERTEX
  8
0
 10
194.218110
 20
182.796081
 42
-0.002368
  0
VERTEX
  8
0
 10
192.724640
 20
171.978057
 42
-0.000414
  0
VERTEX
  8
0
 10
191.352711
 20
162.432796
 42
-0.140541
  0
VERTEX
  8
0
 10
191.052547
 20
161.765727
 42
-0.637368
  0
VERTEX
  8
0
 10
190.744532
 20
161.849706
 42
-0.000778
  0
VERTEX
  8
0
 10
189.338970
 20
170.128464
 42
-0.003802
  0
VERTEX
  8
0
 10
187.800369
 20
179.722589
 42
-0.002208
  0
VERTEX
  8
0
 10
186.091268
 20
191.265727
 42
0.000468
  0
VERTEX
  8
0
 10
184.357358
 20
203.264467
 42
0.000600
  0
VERTEX
  8
0
 10
182.737435
 20
214.307745
 42
0.000461
  0
VERTEX
  8
0
 10
181.359594
 20
223.563940
 42
0.005131
  0
VERTEX
  8
0
 10
180.768692
 20
227.250000
 42
0.000000
  0
VERTEX
  8
0
 10
179.786301
 20
233.000000
 42
0.000000
  0
VERTEX
  8
0
 10
151.893151
 20
233.000000
 42
0.000000
  0
VERTEX
  8
0
 10
124.000000
 20
233.000000
 42
0.000000
  0
SEQEND
  0
ENDSEC
  0
EOF
