solid CATIA STL
  facet normal  0.000000e+000  1.000000e+000  0.000000e+000
    outer loop
      vertex  0.000000e+000  0.000000e+000 -1.250000e+001
      vertex  0.000000e+000  0.000000e+000  1.250000e+001
      vertex  5.646831e+000  0.000000e+000 -9.270510e-001
    endloop
  endfacet
  facet normal  0.000000e+000  1.000000e+000  0.000000e+000
    outer loop
      vertex  0.000000e+000  0.000000e+000 -1.250000e+001
      vertex  5.646831e+000  0.000000e+000 -9.270510e-001
      vertex  5.826981e+000  0.000000e+000 -1.361971e+000
    endloop
  endfacet
  facet normal  0.000000e+000  9.999999e-001  0.000000e+000
    outer loop
      vertex  0.000000e+000  0.000000e+000 -1.250000e+001
      vertex  5.826981e+000  0.000000e+000 -1.361971e+000
      vertex  6.072949e+000  0.000000e+000 -1.763356e+000
    endloop
  endfacet
  facet normal  0.000000e+000  1.000000e+000  0.000000e+000
    outer loop
      vertex  0.000000e+000  0.000000e+000 -1.250000e+001
      vertex  6.072949e+000  0.000000e+000 -1.763356e+000
      vertex  6.378680e+000  0.000000e+000 -2.121320e+000
    endloop
  endfacet
  facet normal  0.000000e+000  1.000000e+000  0.000000e+000
    outer loop
      vertex  0.000000e+000  0.000000e+000 -1.250000e+001
      vertex  6.378680e+000  0.000000e+000 -2.121320e+000
      vertex  6.736644e+000  0.000000e+000 -2.427051e+000
    endloop
  endfacet
  facet normal  0.000000e+000  1.000000e+000  0.000000e+000
    outer loop
      vertex  0.000000e+000  0.000000e+000 -1.250000e+001
      vertex  6.736644e+000  0.000000e+000 -2.427051e+000
      vertex  7.138029e+000  0.000000e+000 -2.673020e+000
    endloop
  endfacet
  facet normal  0.000000e+000  9.999999e-001  0.000000e+000
    outer loop
      vertex  0.000000e+000  0.000000e+000 -1.250000e+001
      vertex  7.138029e+000  0.000000e+000 -2.673020e+000
      vertex  7.572949e+000  0.000000e+000 -2.853169e+000
    endloop
  endfacet
  facet normal  0.000000e+000  1.000000e+000  0.000000e+000
    outer loop
      vertex  0.000000e+000  0.000000e+000 -1.250000e+001
      vertex  7.572949e+000  0.000000e+000 -2.853169e+000
      vertex  8.030697e+000  0.000000e+000 -2.963065e+000
    endloop
  endfacet
  facet normal  0.000000e+000  1.000000e+000  0.000000e+000
    outer loop
      vertex  0.000000e+000  0.000000e+000 -1.250000e+001
      vertex  8.030697e+000  0.000000e+000 -2.963065e+000
      vertex  8.500000e+000  0.000000e+000 -3.000000e+000
    endloop
  endfacet
  facet normal  -0.000000e+000  1.000000e+000  0.000000e+000
    outer loop
      vertex  0.000000e+000  0.000000e+000 -1.250000e+001
      vertex  8.500000e+000  0.000000e+000 -3.000000e+000
      vertex  8.969303e+000  0.000000e+000 -2.963065e+000
    endloop
  endfacet
  facet normal  -0.000000e+000  1.000000e+000  0.000000e+000
    outer loop
      vertex  0.000000e+000  0.000000e+000 -1.250000e+001
      vertex  8.969303e+000  0.000000e+000 -2.963065e+000
      vertex  9.427051e+000  0.000000e+000 -2.853169e+000
    endloop
  endfacet
  facet normal  -0.000000e+000  1.000000e+000  0.000000e+000
    outer loop
      vertex  0.000000e+000  0.000000e+000 -1.250000e+001
      vertex  9.427051e+000  0.000000e+000 -2.853169e+000
      vertex  9.861972e+000  0.000000e+000 -2.673020e+000
    endloop
  endfacet
  facet normal  -0.000000e+000  1.000000e+000  0.000000e+000
    outer loop
      vertex  0.000000e+000  0.000000e+000 -1.250000e+001
      vertex  9.861972e+000  0.000000e+000 -2.673020e+000
      vertex  1.026336e+001  0.000000e+000 -2.427051e+000
    endloop
  endfacet
  facet normal  -0.000000e+000  1.000000e+000  0.000000e+000
    outer loop
      vertex  0.000000e+000  0.000000e+000 -1.250000e+001
      vertex  1.026336e+001  0.000000e+000 -2.427051e+000
      vertex  1.062132e+001  0.000000e+000 -2.121320e+000
    endloop
  endfacet
  facet normal  0.000000e+000  1.000000e+000  0.000000e+000
    outer loop
      vertex  1.700000e+001  0.000000e+000 -1.250000e+001
      vertex  0.000000e+000  0.000000e+000 -1.250000e+001
      vertex  1.062132e+001  0.000000e+000 -2.121320e+000
    endloop
  endfacet
  facet normal  -0.000000e+000  1.000000e+000  0.000000e+000
    outer loop
      vertex  1.700000e+001  0.000000e+000 -1.250000e+001
      vertex  1.062132e+001  0.000000e+000 -2.121320e+000
      vertex  1.092705e+001  0.000000e+000 -1.763356e+000
    endloop
  endfacet
  facet normal  -0.000000e+000  1.000000e+000  0.000000e+000
    outer loop
      vertex  1.700000e+001  0.000000e+000 -1.250000e+001
      vertex  1.092705e+001  0.000000e+000 -1.763356e+000
      vertex  1.117302e+001  0.000000e+000 -1.361971e+000
    endloop
  endfacet
  facet normal  -0.000000e+000  1.000000e+000  0.000000e+000
    outer loop
      vertex  1.700000e+001  0.000000e+000 -1.250000e+001
      vertex  1.117302e+001  0.000000e+000 -1.361971e+000
      vertex  1.135317e+001  0.000000e+000 -9.270510e-001
    endloop
  endfacet
  facet normal  -0.000000e+000  1.000000e+000  0.000000e+000
    outer loop
      vertex  1.700000e+001  0.000000e+000 -1.250000e+001
      vertex  1.135317e+001  0.000000e+000 -9.270510e-001
      vertex  1.700000e+001  0.000000e+000  1.250000e+001
    endloop
  endfacet
  facet normal  0.000000e+000  1.000000e+000  0.000000e+000
    outer loop
      vertex  0.000000e+000  0.000000e+000  1.250000e+001
      vertex  1.700000e+001  0.000000e+000  1.250000e+001
      vertex  8.500000e+000  0.000000e+000  3.000000e+000
    endloop
  endfacet
  facet normal  0.000000e+000  1.000000e+000  0.000000e+000
    outer loop
      vertex  0.000000e+000  0.000000e+000  1.250000e+001
      vertex  8.500000e+000  0.000000e+000  3.000000e+000
      vertex  8.030697e+000  0.000000e+000  2.963065e+000
    endloop
  endfacet
  facet normal  0.000000e+000  1.000000e+000  0.000000e+000
    outer loop
      vertex  0.000000e+000  0.000000e+000  1.250000e+001
      vertex  8.030697e+000  0.000000e+000  2.963065e+000
      vertex  7.572949e+000  0.000000e+000  2.853169e+000
    endloop
  endfacet
  facet normal  0.000000e+000  9.999999e-001  0.000000e+000
    outer loop
      vertex  0.000000e+000  0.000000e+000  1.250000e+001
      vertex  7.572949e+000  0.000000e+000  2.853169e+000
      vertex  7.138029e+000  0.000000e+000  2.673020e+000
    endloop
  endfacet
  facet normal  0.000000e+000  1.000000e+000  0.000000e+000
    outer loop
      vertex  0.000000e+000  0.000000e+000  1.250000e+001
      vertex  7.138029e+000  0.000000e+000  2.673020e+000
      vertex  6.736644e+000  0.000000e+000  2.427051e+000
    endloop
  endfacet
  facet normal  0.000000e+000  1.000000e+000  0.000000e+000
    outer loop
      vertex  0.000000e+000  0.000000e+000  1.250000e+001
      vertex  6.736644e+000  0.000000e+000  2.427051e+000
      vertex  6.378680e+000  0.000000e+000  2.121320e+000
    endloop
  endfacet
  facet normal  0.000000e+000  1.000000e+000  0.000000e+000
    outer loop
      vertex  0.000000e+000  0.000000e+000  1.250000e+001
      vertex  6.378680e+000  0.000000e+000  2.121320e+000
      vertex  6.072949e+000  0.000000e+000  1.763356e+000
    endloop
  endfacet
  facet normal  0.000000e+000  9.999999e-001  0.000000e+000
    outer loop
      vertex  0.000000e+000  0.000000e+000  1.250000e+001
      vertex  6.072949e+000  0.000000e+000  1.763356e+000
      vertex  5.826981e+000  0.000000e+000  1.361971e+000
    endloop
  endfacet
  facet normal  0.000000e+000  1.000000e+000  0.000000e+000
    outer loop
      vertex  0.000000e+000  0.000000e+000  1.250000e+001
      vertex  5.826981e+000  0.000000e+000  1.361971e+000
      vertex  5.646831e+000  0.000000e+000  9.270510e-001
    endloop
  endfacet
  facet normal  0.000000e+000  1.000000e+000  0.000000e+000
    outer loop
      vertex  0.000000e+000  0.000000e+000  1.250000e+001
      vertex  5.646831e+000  0.000000e+000  9.270510e-001
      vertex  5.536935e+000  0.000000e+000  4.693034e-001
    endloop
  endfacet
  facet normal  0.000000e+000  9.999999e-001  0.000000e+000
    outer loop
      vertex  0.000000e+000  0.000000e+000  1.250000e+001
      vertex  5.536935e+000  0.000000e+000  4.693034e-001
      vertex  5.500000e+000  0.000000e+000  0.000000e+000
    endloop
  endfacet
  facet normal  0.000000e+000  1.000000e+000  0.000000e+000
    outer loop
      vertex  0.000000e+000  0.000000e+000  1.250000e+001
      vertex  5.500000e+000  0.000000e+000  0.000000e+000
      vertex  5.536935e+000  0.000000e+000 -4.693034e-001
    endloop
  endfacet
  facet normal  0.000000e+000  1.000000e+000  0.000000e+000
    outer loop
      vertex  0.000000e+000  0.000000e+000  1.250000e+001
      vertex  5.536935e+000  0.000000e+000 -4.693034e-001
      vertex  5.646831e+000  0.000000e+000 -9.270510e-001
    endloop
  endfacet
  facet normal  0.000000e+000  1.000000e+000  0.000000e+000
    outer loop
      vertex  1.700000e+001  0.000000e+000  1.250000e+001
      vertex  1.135317e+001  0.000000e+000 -9.270510e-001
      vertex  1.146307e+001  0.000000e+000 -4.693034e-001
    endloop
  endfacet
  facet normal  0.000000e+000  1.000000e+000  0.000000e+000
    outer loop
      vertex  1.700000e+001  0.000000e+000  1.250000e+001
      vertex  1.146307e+001  0.000000e+000 -4.693034e-001
      vertex  1.150000e+001  0.000000e+000  3.673819e-016
    endloop
  endfacet
  facet normal  0.000000e+000  9.999999e-001  -0.000000e+000
    outer loop
      vertex  1.700000e+001  0.000000e+000  1.250000e+001
      vertex  1.150000e+001  0.000000e+000  3.673819e-016
      vertex  1.146307e+001  0.000000e+000  4.693034e-001
    endloop
  endfacet
  facet normal  0.000000e+000  1.000000e+000  -0.000000e+000
    outer loop
      vertex  1.700000e+001  0.000000e+000  1.250000e+001
      vertex  1.146307e+001  0.000000e+000  4.693034e-001
      vertex  1.135317e+001  0.000000e+000  9.270510e-001
    endloop
  endfacet
  facet normal  0.000000e+000  1.000000e+000  -0.000000e+000
    outer loop
      vertex  1.700000e+001  0.000000e+000  1.250000e+001
      vertex  1.135317e+001  0.000000e+000  9.270510e-001
      vertex  1.117302e+001  0.000000e+000  1.361971e+000
    endloop
  endfacet
  facet normal  0.000000e+000  1.000000e+000  -0.000000e+000
    outer loop
      vertex  1.700000e+001  0.000000e+000  1.250000e+001
      vertex  1.117302e+001  0.000000e+000  1.361971e+000
      vertex  1.092705e+001  0.000000e+000  1.763356e+000
    endloop
  endfacet
  facet normal  0.000000e+000  1.000000e+000  -0.000000e+000
    outer loop
      vertex  1.700000e+001  0.000000e+000  1.250000e+001
      vertex  1.092705e+001  0.000000e+000  1.763356e+000
      vertex  1.062132e+001  0.000000e+000  2.121320e+000
    endloop
  endfacet
  facet normal  0.000000e+000  1.000000e+000  -0.000000e+000
    outer loop
      vertex  1.700000e+001  0.000000e+000  1.250000e+001
      vertex  1.062132e+001  0.000000e+000  2.121320e+000
      vertex  1.026336e+001  0.000000e+000  2.427051e+000
    endloop
  endfacet
  facet normal  0.000000e+000  1.000000e+000  -0.000000e+000
    outer loop
      vertex  1.700000e+001  0.000000e+000  1.250000e+001
      vertex  1.026336e+001  0.000000e+000  2.427051e+000
      vertex  9.861972e+000  0.000000e+000  2.673020e+000
    endloop
  endfacet
  facet normal  0.000000e+000  1.000000e+000  -0.000000e+000
    outer loop
      vertex  1.700000e+001  0.000000e+000  1.250000e+001
      vertex  9.861972e+000  0.000000e+000  2.673020e+000
      vertex  9.427051e+000  0.000000e+000  2.853169e+000
    endloop
  endfacet
  facet normal  0.000000e+000  1.000000e+000  -0.000000e+000
    outer loop
      vertex  1.700000e+001  0.000000e+000  1.250000e+001
      vertex  9.427051e+000  0.000000e+000  2.853169e+000
      vertex  8.969303e+000  0.000000e+000  2.963065e+000
    endloop
  endfacet
  facet normal  0.000000e+000  1.000000e+000  -0.000000e+000
    outer loop
      vertex  1.700000e+001  0.000000e+000  1.250000e+001
      vertex  8.969303e+000  0.000000e+000  2.963065e+000
      vertex  8.500000e+000  0.000000e+000  3.000000e+000
    endloop
  endfacet
  facet normal  -0.000000e+000 -5.828009e-001 -8.126150e-001
    outer loop
      vertex  0.000000e+000  0.000000e+000 -1.250000e+001
      vertex  8.500000e+000 -8.892647e-001 -1.186223e+001
      vertex  0.000000e+000 -8.892647e-001 -1.186223e+001
    endloop
  endfacet
  facet normal -1.837366e-004 -9.807222e-001 -1.954070e-001
    outer loop
      vertex  0.000000e+000 -6.459530e+000 -2.721266e+000
      vertex  8.051027e+000 -6.412233e+000 -2.966214e+000
      vertex  7.633267e+000 -6.430913e+000 -2.872068e+000
    endloop
  endfacet
  facet normal  7.919288e-007 -9.824741e-001 -1.863990e-001
    outer loop
      vertex  7.633267e+000 -6.430913e+000 -2.872068e+000
      vertex  7.233660e+000 -6.459835e+000 -2.719629e+000
      vertex  0.000000e+000 -6.459530e+000 -2.721266e+000
    endloop
  endfacet
  facet normal -1.183360e-003 -9.975978e-001 -6.926206e-002
    outer loop
      vertex  0.000000e+000 -6.698455e+000 -5.471624e-001
      vertex  5.765012e+000 -6.657690e+000 -1.232818e+000
      vertex  5.617610e+000 -6.685359e+000 -8.317633e-001
    endloop
  endfacet
  facet normal  2.172001e-004 -9.991307e-001 -4.168758e-002
    outer loop
      vertex  5.617610e+000 -6.685359e+000 -8.317633e-001
      vertex  5.529570e+000 -6.702552e+000 -4.201708e-001
      vertex  0.000000e+000 -6.698455e+000 -5.471624e-001
    endloop
  endfacet
  facet normal -6.453928e-004 -9.964356e-001  8.435456e-002
    outer loop
      vertex  0.000000e+000 -6.618672e+000  1.638575e+000
      vertex  5.705913e+000 -6.668615e+000  1.092281e+000
      vertex  5.862408e+000 -6.640179e+000  1.429374e+000
    endloop
  endfacet
  facet normal  1.499556e-004 -9.943207e-001  1.064251e-001
    outer loop
      vertex  5.862408e+000 -6.640179e+000  1.429374e+000
      vertex  6.074811e+000 -6.604126e+000  1.765917e+000
      vertex  0.000000e+000 -6.618672e+000  1.638575e+000
    endloop
  endfacet
  facet normal -2.119774e-003 -9.786563e-001  2.054929e-001
    outer loop
      vertex  0.000000e+000 -6.221876e+000  3.789474e+000
      vertex  7.698397e+000 -6.427224e+000  2.890923e+000
      vertex  8.110150e+000 -6.410553e+000  2.974562e+000
    endloop
  endfacet
  facet normal  6.279158e-004 -9.981246e-001 -6.121118e-002
    outer loop
      vertex  1.129409e+001 -6.668615e+000 -1.092281e+000
      vertex  1.700000e+001 -6.698455e+000 -5.471624e-001
      vertex  1.140781e+001 -6.690270e+000 -7.379932e-001
    endloop
  endfacet
  facet normal -2.011555e-004 -9.993165e-001 -3.696685e-002
    outer loop
      vertex  1.140781e+001 -6.690270e+000 -7.379932e-001
      vertex  1.700000e+001 -6.698455e+000 -5.471624e-001
      vertex  1.147685e+001 -6.703824e+000 -3.719769e-001
    endloop
  endfacet
  facet normal  6.855365e-005 -9.955007e-001  9.475355e-002
    outer loop
      vertex  1.700000e+001 -6.618672e+000  1.638575e+000
      vertex  1.103240e+001 -6.621955e+000  1.608400e+000
      vertex  1.123499e+001 -6.657690e+000  1.232818e+000
    endloop
  endfacet
  facet normal -5.350355e-005 -9.929404e-001  1.186141e-001
    outer loop
      vertex  1.077887e+001 -6.581005e+000  1.951088e+000
      vertex  1.103240e+001 -6.621955e+000  1.608400e+000
      vertex  1.700000e+001 -6.618672e+000  1.638575e+000
    endloop
  endfacet
  facet normal  2.258921e-003 -9.789147e-001  2.042567e-001
    outer loop
      vertex  9.366734e+000 -6.430913e+000  2.872068e+000
      vertex  1.700000e+001 -6.221876e+000  3.789474e+000
      vertex  8.948973e+000 -6.412233e+000  2.966214e+000
    endloop
  endfacet
  facet normal  7.012035e-004 -9.893690e-001 -1.454248e-001
    outer loop
      vertex  1.700000e+001 -6.459530e+000 -2.721266e+000
      vertex  1.700000e+001 -6.618672e+000 -1.638575e+000
      vertex  1.005099e+001 -6.486989e+000 -2.567963e+000
    endloop
  endfacet
  facet normal -2.151233e-005 -9.841654e-001 -1.772525e-001
    outer loop
      vertex  1.700000e+001 -6.459530e+000 -2.721266e+000
      vertex  1.005099e+001 -6.486989e+000 -2.567963e+000
      vertex  9.697194e+000 -6.454057e+000 -2.750768e+000
    endloop
  endfacet
  facet normal  2.383592e-005 -9.821492e-001 -1.881036e-001
    outer loop
      vertex  1.700000e+001 -6.459530e+000 -2.721266e+000
      vertex  9.697194e+000 -6.454057e+000 -2.750768e+000
      vertex  9.301602e+000 -6.427224e+000 -2.890923e+000
    endloop
  endfacet
  facet normal  2.154780e-004 -9.805064e-001 -1.964868e-001
    outer loop
      vertex  1.700000e+001 -6.459530e+000 -2.721266e+000
      vertex  9.301602e+000 -6.427224e+000 -2.890923e+000
      vertex  8.889850e+000 -6.410553e+000 -2.974562e+000
    endloop
  endfacet
  facet normal  6.359955e-004 -9.778230e-001 -2.094323e-001
    outer loop
      vertex  1.700000e+001 -6.459530e+000 -2.721266e+000
      vertex  8.889850e+000 -6.410553e+000 -2.974562e+000
      vertex  8.470156e+000 -6.405410e+000 -2.999851e+000
    endloop
  endfacet
  facet normal  1.212619e-003 -9.740444e-001 -2.263536e-001
    outer loop
      vertex  1.700000e+001 -6.459530e+000 -2.721266e+000
      vertex  8.470156e+000 -6.405410e+000 -2.999851e+000
      vertex  8.500000e+000 -6.221876e+000 -3.789474e+000
    endloop
  endfacet
  facet normal  0.000000e+000 -9.761339e-001 -2.171693e-001
    outer loop
      vertex  1.700000e+001 -6.459530e+000 -2.721266e+000
      vertex  8.500000e+000 -6.221876e+000 -3.789474e+000
      vertex  1.700000e+001 -6.221876e+000 -3.789474e+000
    endloop
  endfacet
  facet normal -8.769636e-006 -9.893693e-001 -1.454249e-001
    outer loop
      vertex  0.000000e+000 -6.618672e+000 -1.638575e+000
      vertex  0.000000e+000 -6.459530e+000 -2.721266e+000
      vertex  7.233660e+000 -6.459835e+000 -2.719629e+000
    endloop
  endfacet
  facet normal -6.063347e-003 -9.827269e-001 -1.849619e-001
    outer loop
      vertex  0.000000e+000 -6.618672e+000 -1.638575e+000
      vertex  7.233660e+000 -6.459835e+000 -2.719629e+000
      vertex  6.860284e+000 -6.496565e+000 -2.512237e+000
    endloop
  endfacet
  facet normal -3.194959e-003 -9.866237e-001 -1.629830e-001
    outer loop
      vertex  0.000000e+000 -6.618672e+000 -1.638575e+000
      vertex  6.860284e+000 -6.496565e+000 -2.512237e+000
      vertex  6.520489e+000 -6.538086e+000 -2.254226e+000
    endloop
  endfacet
  facet normal -1.101537e-003 -9.899734e-001 -1.412496e-001
    outer loop
      vertex  0.000000e+000 -6.618672e+000 -1.638575e+000
      vertex  6.520489e+000 -6.538086e+000 -2.254226e+000
      vertex  6.221128e+000 -6.581005e+000 -1.951088e+000
    endloop
  endfacet
  facet normal  5.350354e-005 -9.929404e-001 -1.186141e-001
    outer loop
      vertex  0.000000e+000 -6.618672e+000 -1.638575e+000
      vertex  6.221128e+000 -6.581005e+000 -1.951088e+000
      vertex  5.967600e+000 -6.621955e+000 -1.608400e+000
    endloop
  endfacet
  facet normal -6.855364e-005 -9.955007e-001 -9.475355e-002
    outer loop
      vertex  0.000000e+000 -6.618672e+000 -1.638575e+000
      vertex  5.967600e+000 -6.621955e+000 -1.608400e+000
      vertex  5.765012e+000 -6.657690e+000 -1.232818e+000
    endloop
  endfacet
  facet normal -1.618642e-003 -9.973375e-001 -7.290646e-002
    outer loop
      vertex  0.000000e+000 -6.618672e+000 -1.638575e+000
      vertex  5.765012e+000 -6.657690e+000 -1.232818e+000
      vertex  0.000000e+000 -6.698455e+000 -5.471624e-001
    endloop
  endfacet
  facet normal -6.794238e-004 -9.893690e-001  1.454248e-001
    outer loop
      vertex  0.000000e+000 -6.459530e+000  2.721266e+000
      vertex  0.000000e+000 -6.618672e+000  1.638575e+000
      vertex  6.074811e+000 -6.604126e+000  1.765917e+000
    endloop
  endfacet
  facet normal -3.084271e-003 -9.914504e-001  1.304481e-001
    outer loop
      vertex  0.000000e+000 -6.459530e+000  2.721266e+000
      vertex  6.074811e+000 -6.604126e+000  1.765917e+000
      vertex  6.329740e+000 -6.564749e+000  2.071224e+000
    endloop
  endfacet
  facet normal -1.205745e-003 -9.889367e-001  1.483332e-001
    outer loop
      vertex  0.000000e+000 -6.459530e+000  2.721266e+000
      vertex  6.329740e+000 -6.564749e+000  2.071224e+000
      vertex  6.622808e+000 -6.524774e+000  2.340118e+000
    endloop
  endfacet
  facet normal -2.800497e-004 -9.864612e-001  1.639943e-001
    outer loop
      vertex  0.000000e+000 -6.459530e+000  2.721266e+000
      vertex  6.622808e+000 -6.524774e+000  2.340118e+000
      vertex  6.949011e+000 -6.486989e+000  2.567963e+000
    endloop
  endfacet
  facet normal  2.151233e-005 -9.841654e-001  1.772525e-001
    outer loop
      vertex  0.000000e+000 -6.459530e+000  2.721266e+000
      vertex  6.949011e+000 -6.486989e+000  2.567963e+000
      vertex  7.302806e+000 -6.454057e+000  2.750768e+000
    endloop
  endfacet
  facet normal -2.383592e-005 -9.821492e-001  1.881036e-001
    outer loop
      vertex  0.000000e+000 -6.459530e+000  2.721266e+000
      vertex  7.302806e+000 -6.454057e+000  2.750768e+000
      vertex  7.698397e+000 -6.427224e+000  2.890923e+000
    endloop
  endfacet
  facet normal -6.896257e-004 -9.761338e-001  2.171692e-001
    outer loop
      vertex  0.000000e+000 -6.459530e+000  2.721266e+000
      vertex  7.698397e+000 -6.427224e+000  2.890923e+000
      vertex  0.000000e+000 -6.221876e+000  3.789474e+000
    endloop
  endfacet
  facet normal  1.749348e-003 -9.973372e-001 -7.290643e-002
    outer loop
      vertex  1.700000e+001 -6.618672e+000 -1.638575e+000
      vertex  1.700000e+001 -6.698455e+000 -5.471624e-001
      vertex  1.129409e+001 -6.668615e+000 -1.092281e+000
    endloop
  endfacet
  facet normal  6.453927e-004 -9.964356e-001 -8.435456e-002
    outer loop
      vertex  1.700000e+001 -6.618672e+000 -1.638575e+000
      vertex  1.129409e+001 -6.668615e+000 -1.092281e+000
      vertex  1.113759e+001 -6.640179e+000 -1.429374e+000
    endloop
  endfacet
  facet normal -1.499555e-004 -9.943207e-001 -1.064251e-001
    outer loop
      vertex  1.700000e+001 -6.618672e+000 -1.638575e+000
      vertex  1.113759e+001 -6.640179e+000 -1.429374e+000
      vertex  1.092519e+001 -6.604126e+000 -1.765917e+000
    endloop
  endfacet
  facet normal  3.120639e-004 -9.917518e-001 -1.281722e-001
    outer loop
      vertex  1.700000e+001 -6.618672e+000 -1.638575e+000
      vertex  1.092519e+001 -6.604126e+000 -1.765917e+000
      vertex  1.067026e+001 -6.564749e+000 -2.071224e+000
    endloop
  endfacet
  facet normal  1.754853e-003 -9.888479e-001 -1.489185e-001
    outer loop
      vertex  1.700000e+001 -6.618672e+000 -1.638575e+000
      vertex  1.067026e+001 -6.564749e+000 -2.071224e+000
      vertex  1.037719e+001 -6.524774e+000 -2.340118e+000
    endloop
  endfacet
  facet normal  3.937354e-003 -9.855934e-001 -1.690865e-001
    outer loop
      vertex  1.700000e+001 -6.618672e+000 -1.638575e+000
      vertex  1.037719e+001 -6.524774e+000 -2.340118e+000
      vertex  1.005099e+001 -6.486989e+000 -2.567963e+000
    endloop
  endfacet
  facet normal  1.618642e-003 -9.973375e-001  7.290646e-002
    outer loop
      vertex  1.700000e+001 -6.698455e+000  5.471624e-001
      vertex  1.700000e+001 -6.618672e+000  1.638575e+000
      vertex  1.123499e+001 -6.657690e+000  1.232818e+000
    endloop
  endfacet
  facet normal  1.183360e-003 -9.975978e-001  6.926207e-002
    outer loop
      vertex  1.700000e+001 -6.698455e+000  5.471624e-001
      vertex  1.123499e+001 -6.657690e+000  1.232818e+000
      vertex  1.138239e+001 -6.685359e+000  8.317633e-001
    endloop
  endfacet
  facet normal -2.172001e-004 -9.991307e-001  4.168758e-002
    outer loop
      vertex  1.700000e+001 -6.698455e+000  5.471624e-001
      vertex  1.138239e+001 -6.685359e+000  8.317633e-001
      vertex  1.147043e+001 -6.702552e+000  4.201708e-001
    endloop
  endfacet
  facet normal  4.183950e-004 -9.999014e-001  1.403684e-002
    outer loop
      vertex  1.700000e+001 -6.698455e+000  5.471624e-001
      vertex  1.147043e+001 -6.702552e+000  4.201708e-001
      vertex  1.150000e+001 -6.708438e+000  3.673819e-016
    endloop
  endfacet
  facet normal  3.067720e-003 -9.999161e-001 -1.259354e-002
    outer loop
      vertex  1.700000e+001 -6.698455e+000  5.471624e-001
      vertex  1.150000e+001 -6.708438e+000  3.673819e-016
      vertex  1.147685e+001 -6.703824e+000 -3.719769e-001
    endloop
  endfacet
  facet normal  9.720371e-004 -9.999995e-001  0.000000e+000
    outer loop
      vertex  1.700000e+001 -6.698455e+000  5.471624e-001
      vertex  1.147685e+001 -6.703824e+000 -3.719769e-001
      vertex  1.700000e+001 -6.698455e+000 -5.471624e-001
    endloop
  endfacet
  facet normal  6.308714e-004 -9.761338e-001  2.171693e-001
    outer loop
      vertex  1.700000e+001 -6.459530e+000  2.721266e+000
      vertex  1.700000e+001 -6.221876e+000  3.789474e+000
      vertex  9.366734e+000 -6.430913e+000  2.872068e+000
    endloop
  endfacet
  facet normal -7.919288e-007 -9.824741e-001  1.863990e-001
    outer loop
      vertex  1.700000e+001 -6.459530e+000  2.721266e+000
      vertex  9.366734e+000 -6.430913e+000  2.872068e+000
      vertex  9.766340e+000 -6.459835e+000  2.719629e+000
    endloop
  endfacet
  facet normal  2.017005e-006 -9.846758e-001  1.743947e-001
    outer loop
      vertex  1.700000e+001 -6.459530e+000  2.721266e+000
      vertex  9.766340e+000 -6.459835e+000  2.719629e+000
      vertex  1.013972e+001 -6.496565e+000  2.512237e+000
    endloop
  endfacet
  facet normal  4.698775e-004 -9.871999e-001  1.594868e-001
    outer loop
      vertex  1.700000e+001 -6.459530e+000  2.721266e+000
      vertex  1.013972e+001 -6.496565e+000  2.512237e+000
      vertex  1.047951e+001 -6.538086e+000  2.254226e+000
    endloop
  endfacet
  facet normal  1.762623e-003 -9.898810e-001  1.418894e-001
    outer loop
      vertex  1.700000e+001 -6.459530e+000  2.721266e+000
      vertex  1.047951e+001 -6.538086e+000  2.254226e+000
      vertex  1.077887e+001 -6.581005e+000  1.951088e+000
    endloop
  endfacet
  facet normal  1.314935e-003 -9.893685e-001  1.454248e-001
    outer loop
      vertex  1.700000e+001 -6.459530e+000  2.721266e+000
      vertex  1.077887e+001 -6.581005e+000  1.951088e+000
      vertex  1.700000e+001 -6.618672e+000  1.638575e+000
    endloop
  endfacet
  facet normal  0.000000e+000 -9.577032e-001 -2.877577e-001
    outer loop
      vertex  1.700000e+001 -6.221876e+000 -3.789474e+000
      vertex  8.500000e+000 -6.221876e+000 -3.789474e+000
      vertex  1.700000e+001 -5.906976e+000 -4.837512e+000
    endloop
  endfacet
  facet normal  -0.000000e+000 -9.577032e-001 -2.877577e-001
    outer loop
      vertex  1.700000e+001 -5.906976e+000 -4.837512e+000
      vertex  8.500000e+000 -6.221876e+000 -3.789474e+000
      vertex  8.500000e+000 -5.906976e+000 -4.837512e+000
    endloop
  endfacet
  facet normal  0.000000e+000 -9.341751e-001 -3.568146e-001
    outer loop
      vertex  1.700000e+001 -5.906976e+000 -4.837512e+000
      vertex  8.500000e+000 -5.906976e+000 -4.837512e+000
      vertex  1.700000e+001 -5.516505e+000 -5.859803e+000
    endloop
  endfacet
  facet normal  -0.000000e+000 -9.341751e-001 -3.568146e-001
    outer loop
      vertex  1.700000e+001 -5.516505e+000 -5.859803e+000
      vertex  8.500000e+000 -5.906976e+000 -4.837512e+000
      vertex  8.500000e+000 -5.516505e+000 -5.859803e+000
    endloop
  endfacet
  facet normal  0.000000e+000 -9.056751e-001 -4.239724e-001
    outer loop
      vertex  1.700000e+001 -5.516505e+000 -5.859803e+000
      vertex  8.500000e+000 -5.516505e+000 -5.859803e+000
      vertex  1.700000e+001 -5.052541e+000 -6.850905e+000
    endloop
  endfacet
  facet normal  -0.000000e+000 -9.056751e-001 -4.239724e-001
    outer loop
      vertex  1.700000e+001 -5.052541e+000 -6.850905e+000
      vertex  8.500000e+000 -5.516505e+000 -5.859803e+000
      vertex  8.500000e+000 -5.052541e+000 -6.850905e+000
    endloop
  endfacet
  facet normal  0.000000e+000 -8.723547e-001 -4.888736e-001
    outer loop
      vertex  1.700000e+001 -5.052541e+000 -6.850905e+000
      vertex  8.500000e+000 -5.052541e+000 -6.850905e+000
      vertex  1.700000e+001 -4.517555e+000 -7.805545e+000
    endloop
  endfacet
  facet normal  -0.000000e+000 -8.723547e-001 -4.888736e-001
    outer loop
      vertex  1.700000e+001 -4.517555e+000 -7.805545e+000
      vertex  8.500000e+000 -5.052541e+000 -6.850905e+000
      vertex  8.500000e+000 -4.517555e+000 -7.805545e+000
    endloop
  endfacet
  facet normal  0.000000e+000 -8.343908e-001 -5.511731e-001
    outer loop
      vertex  1.700000e+001 -4.517555e+000 -7.805545e+000
      vertex  8.500000e+000 -4.517555e+000 -7.805545e+000
      vertex  1.700000e+001 -3.914392e+000 -8.718639e+000
    endloop
  endfacet
  facet normal  -0.000000e+000 -8.343908e-001 -5.511731e-001
    outer loop
      vertex  1.700000e+001 -3.914392e+000 -8.718639e+000
      vertex  8.500000e+000 -4.517555e+000 -7.805545e+000
      vertex  8.500000e+000 -3.914392e+000 -8.718639e+000
    endloop
  endfacet
  facet normal  0.000000e+000 -7.919866e-001 -6.105385e-001
    outer loop
      vertex  1.700000e+001 -3.914392e+000 -8.718639e+000
      vertex  8.500000e+000 -3.914392e+000 -8.718639e+000
      vertex  1.700000e+001 -3.246265e+000 -9.585330e+000
    endloop
  endfacet
  facet normal  -0.000000e+000 -7.919866e-001 -6.105385e-001
    outer loop
      vertex  1.700000e+001 -3.246265e+000 -9.585330e+000
      vertex  8.500000e+000 -3.914392e+000 -8.718639e+000
      vertex  8.500000e+000 -3.246265e+000 -9.585330e+000
    endloop
  endfacet
  facet normal  0.000000e+000 -7.453665e-001 -6.666549e-001
    outer loop
      vertex  1.700000e+001 -3.246265e+000 -9.585330e+000
      vertex  8.500000e+000 -3.246265e+000 -9.585330e+000
      vertex  1.700000e+001 -2.516728e+000 -1.040100e+001
    endloop
  endfacet
  facet normal  -0.000000e+000 -7.453665e-001 -6.666549e-001
    outer loop
      vertex  1.700000e+001 -2.516728e+000 -1.040100e+001
      vertex  8.500000e+000 -3.246265e+000 -9.585330e+000
      vertex  8.500000e+000 -2.516728e+000 -1.040100e+001
    endloop
  endfacet
  facet normal  0.000000e+000 -6.947799e-001 -7.192224e-001
    outer loop
      vertex  1.700000e+001 -2.516728e+000 -1.040100e+001
      vertex  8.500000e+000 -2.516728e+000 -1.040100e+001
      vertex  1.700000e+001 -1.729665e+000 -1.116132e+001
    endloop
  endfacet
  facet normal  -0.000000e+000 -6.947799e-001 -7.192224e-001
    outer loop
      vertex  1.700000e+001 -1.729665e+000 -1.116132e+001
      vertex  8.500000e+000 -2.516728e+000 -1.040100e+001
      vertex  8.500000e+000 -1.729665e+000 -1.116132e+001
    endloop
  endfacet
  facet normal  0.000000e+000 -6.404943e-001 -7.679628e-001
    outer loop
      vertex  1.700000e+001 -1.729665e+000 -1.116132e+001
      vertex  8.500000e+000 -1.729665e+000 -1.116132e+001
      vertex  1.700000e+001 -8.892647e-001 -1.186223e+001
    endloop
  endfacet
  facet normal  -0.000000e+000 -6.404943e-001 -7.679628e-001
    outer loop
      vertex  1.700000e+001 -8.892647e-001 -1.186223e+001
      vertex  8.500000e+000 -1.729665e+000 -1.116132e+001
      vertex  8.500000e+000 -8.892647e-001 -1.186223e+001
    endloop
  endfacet
  facet normal  0.000000e+000 -5.828009e-001 -8.126150e-001
    outer loop
      vertex  1.700000e+001 -8.892647e-001 -1.186223e+001
      vertex  8.500000e+000 -8.892647e-001 -1.186223e+001
      vertex  1.700000e+001  0.000000e+000 -1.250000e+001
    endloop
  endfacet
  facet normal  -0.000000e+000 -5.828009e-001 -8.126150e-001
    outer loop
      vertex  1.700000e+001  0.000000e+000 -1.250000e+001
      vertex  8.500000e+000 -8.892647e-001 -1.186223e+001
      vertex  0.000000e+000  0.000000e+000 -1.250000e+001
    endloop
  endfacet
  facet normal -1.035113e-003 -9.764426e-001  2.157751e-001
    outer loop
      vertex  8.110150e+000 -6.410553e+000  2.974562e+000
      vertex  8.529844e+000 -6.405410e+000  2.999851e+000
      vertex  0.000000e+000 -6.221876e+000  3.789474e+000
    endloop
  endfacet
  facet normal  0.000000e+000 -9.740350e-001  2.263972e-001
    outer loop
      vertex  0.000000e+000 -6.221876e+000  3.789474e+000
      vertex  8.529844e+000 -6.405410e+000  2.999851e+000
      vertex  8.500000e+000 -6.221876e+000  3.789474e+000
    endloop
  endfacet
  facet normal  0.000000e+000 -9.577032e-001  2.877577e-001
    outer loop
      vertex  0.000000e+000 -6.221876e+000  3.789474e+000
      vertex  8.500000e+000 -6.221876e+000  3.789474e+000
      vertex  0.000000e+000 -5.906976e+000  4.837512e+000
    endloop
  endfacet
  facet normal  0.000000e+000 -9.577032e-001  2.877577e-001
    outer loop
      vertex  0.000000e+000 -5.906976e+000  4.837512e+000
      vertex  8.500000e+000 -6.221876e+000  3.789474e+000
      vertex  8.500000e+000 -5.906976e+000  4.837512e+000
    endloop
  endfacet
  facet normal  0.000000e+000 -9.341751e-001  3.568146e-001
    outer loop
      vertex  0.000000e+000 -5.906976e+000  4.837512e+000
      vertex  8.500000e+000 -5.906976e+000  4.837512e+000
      vertex  0.000000e+000 -5.516505e+000  5.859803e+000
    endloop
  endfacet
  facet normal  0.000000e+000 -9.341751e-001  3.568146e-001
    outer loop
      vertex  0.000000e+000 -5.516505e+000  5.859803e+000
      vertex  8.500000e+000 -5.906976e+000  4.837512e+000
      vertex  8.500000e+000 -5.516505e+000  5.859803e+000
    endloop
  endfacet
  facet normal  0.000000e+000 -9.056751e-001  4.239724e-001
    outer loop
      vertex  0.000000e+000 -5.516505e+000  5.859803e+000
      vertex  8.500000e+000 -5.516505e+000  5.859803e+000
      vertex  0.000000e+000 -5.052541e+000  6.850905e+000
    endloop
  endfacet
  facet normal  0.000000e+000 -9.056751e-001  4.239724e-001
    outer loop
      vertex  0.000000e+000 -5.052541e+000  6.850905e+000
      vertex  8.500000e+000 -5.516505e+000  5.859803e+000
      vertex  8.500000e+000 -5.052541e+000  6.850905e+000
    endloop
  endfacet
  facet normal  0.000000e+000 -8.723547e-001  4.888736e-001
    outer loop
      vertex  0.000000e+000 -5.052541e+000  6.850905e+000
      vertex  8.500000e+000 -5.052541e+000  6.850905e+000
      vertex  0.000000e+000 -4.517555e+000  7.805545e+000
    endloop
  endfacet
  facet normal  0.000000e+000 -8.723547e-001  4.888736e-001
    outer loop
      vertex  0.000000e+000 -4.517555e+000  7.805545e+000
      vertex  8.500000e+000 -5.052541e+000  6.850905e+000
      vertex  8.500000e+000 -4.517555e+000  7.805545e+000
    endloop
  endfacet
  facet normal  0.000000e+000 -8.343908e-001  5.511731e-001
    outer loop
      vertex  0.000000e+000 -4.517555e+000  7.805545e+000
      vertex  8.500000e+000 -4.517555e+000  7.805545e+000
      vertex  0.000000e+000 -3.914392e+000  8.718639e+000
    endloop
  endfacet
  facet normal  0.000000e+000 -8.343908e-001  5.511731e-001
    outer loop
      vertex  0.000000e+000 -3.914392e+000  8.718639e+000
      vertex  8.500000e+000 -4.517555e+000  7.805545e+000
      vertex  8.500000e+000 -3.914392e+000  8.718639e+000
    endloop
  endfacet
  facet normal  0.000000e+000 -7.919866e-001  6.105385e-001
    outer loop
      vertex  0.000000e+000 -3.914392e+000  8.718639e+000
      vertex  8.500000e+000 -3.914392e+000  8.718639e+000
      vertex  0.000000e+000 -3.246265e+000  9.585330e+000
    endloop
  endfacet
  facet normal  0.000000e+000 -7.919866e-001  6.105385e-001
    outer loop
      vertex  0.000000e+000 -3.246265e+000  9.585330e+000
      vertex  8.500000e+000 -3.914392e+000  8.718639e+000
      vertex  8.500000e+000 -3.246265e+000  9.585330e+000
    endloop
  endfacet
  facet normal  0.000000e+000 -7.453665e-001  6.666549e-001
    outer loop
      vertex  0.000000e+000 -3.246265e+000  9.585330e+000
      vertex  8.500000e+000 -3.246265e+000  9.585330e+000
      vertex  0.000000e+000 -2.516728e+000  1.040100e+001
    endloop
  endfacet
  facet normal  0.000000e+000 -7.453665e-001  6.666549e-001
    outer loop
      vertex  0.000000e+000 -2.516728e+000  1.040100e+001
      vertex  8.500000e+000 -3.246265e+000  9.585330e+000
      vertex  8.500000e+000 -2.516728e+000  1.040100e+001
    endloop
  endfacet
  facet normal  0.000000e+000 -6.947799e-001  7.192224e-001
    outer loop
      vertex  0.000000e+000 -2.516728e+000  1.040100e+001
      vertex  8.500000e+000 -2.516728e+000  1.040100e+001
      vertex  0.000000e+000 -1.729665e+000  1.116132e+001
    endloop
  endfacet
  facet normal  0.000000e+000 -6.947799e-001  7.192224e-001
    outer loop
      vertex  0.000000e+000 -1.729665e+000  1.116132e+001
      vertex  8.500000e+000 -2.516728e+000  1.040100e+001
      vertex  8.500000e+000 -1.729665e+000  1.116132e+001
    endloop
  endfacet
  facet normal  0.000000e+000 -6.404943e-001  7.679628e-001
    outer loop
      vertex  0.000000e+000 -1.729665e+000  1.116132e+001
      vertex  8.500000e+000 -1.729665e+000  1.116132e+001
      vertex  0.000000e+000 -8.892647e-001  1.186223e+001
    endloop
  endfacet
  facet normal  0.000000e+000 -6.404943e-001  7.679628e-001
    outer loop
      vertex  0.000000e+000 -8.892647e-001  1.186223e+001
      vertex  8.500000e+000 -1.729665e+000  1.116132e+001
      vertex  8.500000e+000 -8.892647e-001  1.186223e+001
    endloop
  endfacet
  facet normal  0.000000e+000 -5.828009e-001  8.126150e-001
    outer loop
      vertex  0.000000e+000 -8.892647e-001  1.186223e+001
      vertex  8.500000e+000 -8.892647e-001  1.186223e+001
      vertex  0.000000e+000  0.000000e+000  1.250000e+001
    endloop
  endfacet
  facet normal  0.000000e+000 -5.828009e-001  8.126150e-001
    outer loop
      vertex  0.000000e+000  0.000000e+000  1.250000e+001
      vertex  8.500000e+000 -8.892647e-001  1.186223e+001
      vertex  1.700000e+001  0.000000e+000  1.250000e+001
    endloop
  endfacet
  facet normal  -0.000000e+000 -6.404943e-001 -7.679628e-001
    outer loop
      vertex  0.000000e+000 -8.892647e-001 -1.186223e+001
      vertex  8.500000e+000 -8.892647e-001 -1.186223e+001
      vertex  0.000000e+000 -1.729665e+000 -1.116132e+001
    endloop
  endfacet
  facet normal  0.000000e+000 -6.404943e-001 -7.679628e-001
    outer loop
      vertex  0.000000e+000 -1.729665e+000 -1.116132e+001
      vertex  8.500000e+000 -8.892647e-001 -1.186223e+001
      vertex  8.500000e+000 -1.729665e+000 -1.116132e+001
    endloop
  endfacet
  facet normal  -0.000000e+000 -6.947799e-001 -7.192224e-001
    outer loop
      vertex  0.000000e+000 -1.729665e+000 -1.116132e+001
      vertex  8.500000e+000 -1.729665e+000 -1.116132e+001
      vertex  0.000000e+000 -2.516728e+000 -1.040100e+001
    endloop
  endfacet
  facet normal  0.000000e+000 -6.947799e-001 -7.192224e-001
    outer loop
      vertex  0.000000e+000 -2.516728e+000 -1.040100e+001
      vertex  8.500000e+000 -1.729665e+000 -1.116132e+001
      vertex  8.500000e+000 -2.516728e+000 -1.040100e+001
    endloop
  endfacet
  facet normal  -0.000000e+000 -7.453665e-001 -6.666549e-001
    outer loop
      vertex  0.000000e+000 -2.516728e+000 -1.040100e+001
      vertex  8.500000e+000 -2.516728e+000 -1.040100e+001
      vertex  0.000000e+000 -3.246265e+000 -9.585330e+000
    endloop
  endfacet
  facet normal  0.000000e+000 -7.453665e-001 -6.666549e-001
    outer loop
      vertex  0.000000e+000 -3.246265e+000 -9.585330e+000
      vertex  8.500000e+000 -2.516728e+000 -1.040100e+001
      vertex  8.500000e+000 -3.246265e+000 -9.585330e+000
    endloop
  endfacet
  facet normal  -0.000000e+000 -7.919866e-001 -6.105385e-001
    outer loop
      vertex  0.000000e+000 -3.246265e+000 -9.585330e+000
      vertex  8.500000e+000 -3.246265e+000 -9.585330e+000
      vertex  0.000000e+000 -3.914392e+000 -8.718639e+000
    endloop
  endfacet
  facet normal  0.000000e+000 -7.919866e-001 -6.105385e-001
    outer loop
      vertex  0.000000e+000 -3.914392e+000 -8.718639e+000
      vertex  8.500000e+000 -3.246265e+000 -9.585330e+000
      vertex  8.500000e+000 -3.914392e+000 -8.718639e+000
    endloop
  endfacet
  facet normal  -0.000000e+000 -8.343908e-001 -5.511731e-001
    outer loop
      vertex  0.000000e+000 -3.914392e+000 -8.718639e+000
      vertex  8.500000e+000 -3.914392e+000 -8.718639e+000
      vertex  0.000000e+000 -4.517555e+000 -7.805545e+000
    endloop
  endfacet
  facet normal  0.000000e+000 -8.343908e-001 -5.511731e-001
    outer loop
      vertex  0.000000e+000 -4.517555e+000 -7.805545e+000
      vertex  8.500000e+000 -3.914392e+000 -8.718639e+000
      vertex  8.500000e+000 -4.517555e+000 -7.805545e+000
    endloop
  endfacet
  facet normal  -0.000000e+000 -8.723547e-001 -4.888736e-001
    outer loop
      vertex  0.000000e+000 -4.517555e+000 -7.805545e+000
      vertex  8.500000e+000 -4.517555e+000 -7.805545e+000
      vertex  0.000000e+000 -5.052541e+000 -6.850905e+000
    endloop
  endfacet
  facet normal  0.000000e+000 -8.723547e-001 -4.888736e-001
    outer loop
      vertex  0.000000e+000 -5.052541e+000 -6.850905e+000
      vertex  8.500000e+000 -4.517555e+000 -7.805545e+000
      vertex  8.500000e+000 -5.052541e+000 -6.850905e+000
    endloop
  endfacet
  facet normal  -0.000000e+000 -9.056751e-001 -4.239724e-001
    outer loop
      vertex  0.000000e+000 -5.052541e+000 -6.850905e+000
      vertex  8.500000e+000 -5.052541e+000 -6.850905e+000
      vertex  0.000000e+000 -5.516505e+000 -5.859803e+000
    endloop
  endfacet
  facet normal  0.000000e+000 -9.056751e-001 -4.239724e-001
    outer loop
      vertex  0.000000e+000 -5.516505e+000 -5.859803e+000
      vertex  8.500000e+000 -5.052541e+000 -6.850905e+000
      vertex  8.500000e+000 -5.516505e+000 -5.859803e+000
    endloop
  endfacet
  facet normal  -0.000000e+000 -9.341751e-001 -3.568146e-001
    outer loop
      vertex  0.000000e+000 -5.516505e+000 -5.859803e+000
      vertex  8.500000e+000 -5.516505e+000 -5.859803e+000
      vertex  0.000000e+000 -5.906976e+000 -4.837512e+000
    endloop
  endfacet
  facet normal  0.000000e+000 -9.341751e-001 -3.568146e-001
    outer loop
      vertex  0.000000e+000 -5.906976e+000 -4.837512e+000
      vertex  8.500000e+000 -5.516505e+000 -5.859803e+000
      vertex  8.500000e+000 -5.906976e+000 -4.837512e+000
    endloop
  endfacet
  facet normal  -0.000000e+000 -9.577032e-001 -2.877577e-001
    outer loop
      vertex  0.000000e+000 -5.906976e+000 -4.837512e+000
      vertex  8.500000e+000 -5.906976e+000 -4.837512e+000
      vertex  0.000000e+000 -6.221876e+000 -3.789474e+000
    endloop
  endfacet
  facet normal  0.000000e+000 -9.577032e-001 -2.877577e-001
    outer loop
      vertex  0.000000e+000 -6.221876e+000 -3.789474e+000
      vertex  8.500000e+000 -5.906976e+000 -4.837512e+000
      vertex  8.500000e+000 -6.221876e+000 -3.789474e+000
    endloop
  endfacet
  facet normal  -0.000000e+000 -9.761339e-001 -2.171693e-001
    outer loop
      vertex  0.000000e+000 -6.221876e+000 -3.789474e+000
      vertex  8.500000e+000 -6.221876e+000 -3.789474e+000
      vertex  0.000000e+000 -6.459530e+000 -2.721266e+000
    endloop
  endfacet
  facet normal -1.224168e-003 -9.740241e-001 -2.264409e-001
    outer loop
      vertex  0.000000e+000 -6.459530e+000 -2.721266e+000
      vertex  8.500000e+000 -6.221876e+000 -3.789474e+000
      vertex  8.470156e+000 -6.405410e+000 -2.999851e+000
    endloop
  endfacet
  facet normal -4.676215e-004 -9.788906e-001 -2.043841e-001
    outer loop
      vertex  0.000000e+000 -6.459530e+000 -2.721266e+000
      vertex  8.470156e+000 -6.405410e+000 -2.999851e+000
      vertex  8.051027e+000 -6.412233e+000 -2.966214e+000
    endloop
  endfacet
  facet normal -7.408365e-004 -9.999997e-001  0.000000e+000
    outer loop
      vertex  0.000000e+000 -6.698455e+000 -5.471624e-001
      vertex  5.529570e+000 -6.702552e+000 -4.201708e-001
      vertex  0.000000e+000 -6.698455e+000  5.471624e-001
    endloop
  endfacet
  facet normal -3.230944e-003 -9.998934e-001 -1.423466e-002
    outer loop
      vertex  0.000000e+000 -6.698455e+000  5.471624e-001
      vertex  5.529570e+000 -6.702552e+000 -4.201708e-001
      vertex  5.500000e+000 -6.708438e+000  0.000000e+000
    endloop
  endfacet
  facet normal -5.774287e-004 -9.999225e-001  1.243864e-002
    outer loop
      vertex  0.000000e+000 -6.698455e+000  5.471624e-001
      vertex  5.500000e+000 -6.708438e+000  0.000000e+000
      vertex  5.523150e+000 -6.703824e+000  3.719769e-001
    endloop
  endfacet
  facet normal -2.808804e-003 -9.980779e-001  6.190837e-002
    outer loop
      vertex  5.705913e+000 -6.668615e+000  1.092281e+000
      vertex  0.000000e+000 -6.618672e+000  1.638575e+000
      vertex  5.592189e+000 -6.690270e+000  7.379932e-001
    endloop
  endfacet
  facet normal -1.028165e-003 -9.973382e-001  7.290651e-002
    outer loop
      vertex  5.592189e+000 -6.690270e+000  7.379932e-001
      vertex  0.000000e+000 -6.618672e+000  1.638575e+000
      vertex  0.000000e+000 -6.698455e+000  5.471624e-001
    endloop
  endfacet
  facet normal  2.011555e-004 -9.993165e-001  3.696685e-002
    outer loop
      vertex  5.592189e+000 -6.690270e+000  7.379932e-001
      vertex  0.000000e+000 -6.698455e+000  5.471624e-001
      vertex  5.523150e+000 -6.703824e+000  3.719769e-001
    endloop
  endfacet
  facet normal  2.320341e-003 -9.740130e-001  2.264798e-001
    outer loop
      vertex  8.529844e+000 -6.405410e+000  2.999851e+000
      vertex  8.948973e+000 -6.412233e+000  2.966214e+000
      vertex  8.500000e+000 -6.221876e+000  3.789474e+000
    endloop
  endfacet
  facet normal  0.000000e+000 -9.742942e-001  2.252794e-001
    outer loop
      vertex  8.500000e+000 -6.221876e+000  3.789474e+000
      vertex  8.948973e+000 -6.412233e+000  2.966214e+000
      vertex  1.700000e+001 -6.221876e+000  3.789474e+000
    endloop
  endfacet
  facet normal  0.000000e+000 -9.577032e-001  2.877577e-001
    outer loop
      vertex  8.500000e+000 -6.221876e+000  3.789474e+000
      vertex  1.700000e+001 -6.221876e+000  3.789474e+000
      vertex  8.500000e+000 -5.906976e+000  4.837512e+000
    endloop
  endfacet
  facet normal  0.000000e+000 -9.577032e-001  2.877577e-001
    outer loop
      vertex  8.500000e+000 -5.906976e+000  4.837512e+000
      vertex  1.700000e+001 -6.221876e+000  3.789474e+000
      vertex  1.700000e+001 -5.906976e+000  4.837512e+000
    endloop
  endfacet
  facet normal  0.000000e+000 -9.341751e-001  3.568146e-001
    outer loop
      vertex  8.500000e+000 -5.906976e+000  4.837512e+000
      vertex  1.700000e+001 -5.906976e+000  4.837512e+000
      vertex  8.500000e+000 -5.516505e+000  5.859803e+000
    endloop
  endfacet
  facet normal  0.000000e+000 -9.341751e-001  3.568146e-001
    outer loop
      vertex  8.500000e+000 -5.516505e+000  5.859803e+000
      vertex  1.700000e+001 -5.906976e+000  4.837512e+000
      vertex  1.700000e+001 -5.516505e+000  5.859803e+000
    endloop
  endfacet
  facet normal  0.000000e+000 -9.056751e-001  4.239724e-001
    outer loop
      vertex  8.500000e+000 -5.516505e+000  5.859803e+000
      vertex  1.700000e+001 -5.516505e+000  5.859803e+000
      vertex  8.500000e+000 -5.052541e+000  6.850905e+000
    endloop
  endfacet
  facet normal  0.000000e+000 -9.056751e-001  4.239724e-001
    outer loop
      vertex  8.500000e+000 -5.052541e+000  6.850905e+000
      vertex  1.700000e+001 -5.516505e+000  5.859803e+000
      vertex  1.700000e+001 -5.052541e+000  6.850905e+000
    endloop
  endfacet
  facet normal  0.000000e+000 -8.723547e-001  4.888736e-001
    outer loop
      vertex  8.500000e+000 -5.052541e+000  6.850905e+000
      vertex  1.700000e+001 -5.052541e+000  6.850905e+000
      vertex  8.500000e+000 -4.517555e+000  7.805545e+000
    endloop
  endfacet
  facet normal  0.000000e+000 -8.723547e-001  4.888736e-001
    outer loop
      vertex  8.500000e+000 -4.517555e+000  7.805545e+000
      vertex  1.700000e+001 -5.052541e+000  6.850905e+000
      vertex  1.700000e+001 -4.517555e+000  7.805545e+000
    endloop
  endfacet
  facet normal  0.000000e+000 -8.343908e-001  5.511731e-001
    outer loop
      vertex  8.500000e+000 -4.517555e+000  7.805545e+000
      vertex  1.700000e+001 -4.517555e+000  7.805545e+000
      vertex  8.500000e+000 -3.914392e+000  8.718639e+000
    endloop
  endfacet
  facet normal  0.000000e+000 -8.343908e-001  5.511731e-001
    outer loop
      vertex  8.500000e+000 -3.914392e+000  8.718639e+000
      vertex  1.700000e+001 -4.517555e+000  7.805545e+000
      vertex  1.700000e+001 -3.914392e+000  8.718639e+000
    endloop
  endfacet
  facet normal  0.000000e+000 -7.919866e-001  6.105385e-001
    outer loop
      vertex  8.500000e+000 -3.914392e+000  8.718639e+000
      vertex  1.700000e+001 -3.914392e+000  8.718639e+000
      vertex  8.500000e+000 -3.246265e+000  9.585330e+000
    endloop
  endfacet
  facet normal  0.000000e+000 -7.919866e-001  6.105385e-001
    outer loop
      vertex  8.500000e+000 -3.246265e+000  9.585330e+000
      vertex  1.700000e+001 -3.914392e+000  8.718639e+000
      vertex  1.700000e+001 -3.246265e+000  9.585330e+000
    endloop
  endfacet
  facet normal  0.000000e+000 -7.453665e-001  6.666549e-001
    outer loop
      vertex  8.500000e+000 -3.246265e+000  9.585330e+000
      vertex  1.700000e+001 -3.246265e+000  9.585330e+000
      vertex  8.500000e+000 -2.516728e+000  1.040100e+001
    endloop
  endfacet
  facet normal  0.000000e+000 -7.453665e-001  6.666549e-001
    outer loop
      vertex  8.500000e+000 -2.516728e+000  1.040100e+001
      vertex  1.700000e+001 -3.246265e+000  9.585330e+000
      vertex  1.700000e+001 -2.516728e+000  1.040100e+001
    endloop
  endfacet
  facet normal  0.000000e+000 -6.947799e-001  7.192224e-001
    outer loop
      vertex  8.500000e+000 -2.516728e+000  1.040100e+001
      vertex  1.700000e+001 -2.516728e+000  1.040100e+001
      vertex  8.500000e+000 -1.729665e+000  1.116132e+001
    endloop
  endfacet
  facet normal  0.000000e+000 -6.947799e-001  7.192224e-001
    outer loop
      vertex  8.500000e+000 -1.729665e+000  1.116132e+001
      vertex  1.700000e+001 -2.516728e+000  1.040100e+001
      vertex  1.700000e+001 -1.729665e+000  1.116132e+001
    endloop
  endfacet
  facet normal  0.000000e+000 -6.404943e-001  7.679628e-001
    outer loop
      vertex  8.500000e+000 -1.729665e+000  1.116132e+001
      vertex  1.700000e+001 -1.729665e+000  1.116132e+001
      vertex  8.500000e+000 -8.892647e-001  1.186223e+001
    endloop
  endfacet
  facet normal  0.000000e+000 -6.404943e-001  7.679628e-001
    outer loop
      vertex  8.500000e+000 -8.892647e-001  1.186223e+001
      vertex  1.700000e+001 -1.729665e+000  1.116132e+001
      vertex  1.700000e+001 -8.892647e-001  1.186223e+001
    endloop
  endfacet
  facet normal  0.000000e+000 -5.828009e-001  8.126150e-001
    outer loop
      vertex  8.500000e+000 -8.892647e-001  1.186223e+001
      vertex  1.700000e+001 -8.892647e-001  1.186223e+001
      vertex  1.700000e+001  0.000000e+000  1.250000e+001
    endloop
  endfacet
  facet normal -9.723693e-001 -9.227173e-004 -2.334457e-001
    outer loop
      vertex  1.138239e+001 -6.685359e+000  8.317633e-001
      vertex  1.135317e+001  0.000000e+000  9.270510e-001
      vertex  1.146307e+001  0.000000e+000  4.693034e-001
    endloop
  endfacet
  facet normal -9.385939e-001  8.152396e-004 -3.450229e-001
    outer loop
      vertex  1.135317e+001  0.000000e+000  9.270510e-001
      vertex  1.138239e+001 -6.685359e+000  8.317633e-001
      vertex  1.123499e+001 -6.657690e+000  1.232818e+000
    endloop
  endfacet
  facet normal -9.238788e-001 -1.175594e-003 -3.826833e-001
    outer loop
      vertex  1.123499e+001 -6.657690e+000  1.232818e+000
      vertex  1.117302e+001  0.000000e+000  1.361971e+000
      vertex  1.135317e+001  0.000000e+000  9.270510e-001
    endloop
  endfacet
  facet normal -8.800861e-001  1.019262e-003 -4.748130e-001
    outer loop
      vertex  1.117302e+001  0.000000e+000  1.361971e+000
      vertex  1.123499e+001 -6.657690e+000  1.232818e+000
      vertex  1.103240e+001 -6.621955e+000  1.608400e+000
    endloop
  endfacet
  facet normal -8.526391e-001 -1.338144e-003 -5.224985e-001
    outer loop
      vertex  1.103240e+001 -6.621955e+000  1.608400e+000
      vertex  1.092705e+001  0.000000e+000  1.763356e+000
      vertex  1.117302e+001  0.000000e+000  1.361971e+000
    endloop
  endfacet
  facet normal -8.038447e-001  1.130900e-003 -5.948381e-001
    outer loop
      vertex  1.092705e+001  0.000000e+000  1.763356e+000
      vertex  1.103240e+001 -6.621955e+000  1.608400e+000
      vertex  1.077887e+001 -6.581005e+000  1.951088e+000
    endloop
  endfacet
  facet normal -7.604059e-001 -1.404958e-003 -6.494465e-001
    outer loop
      vertex  1.077887e+001 -6.581005e+000  1.951088e+000
      vertex  1.062132e+001  0.000000e+000  2.121320e+000
      vertex  1.092705e+001  0.000000e+000  1.763356e+000
    endloop
  endfacet
  facet normal -7.114447e-001  1.145765e-003 -7.027411e-001
    outer loop
      vertex  1.047951e+001 -6.538086e+000  2.254226e+000
      vertex  1.062132e+001  0.000000e+000  2.121320e+000
      vertex  1.077887e+001 -6.581005e+000  1.951088e+000
    endloop
  endfacet
  facet normal -6.494477e-001 -1.371123e-003 -7.604050e-001
    outer loop
      vertex  1.026336e+001  0.000000e+000  2.427051e+000
      vertex  1.062132e+001  0.000000e+000  2.121320e+000
      vertex  1.047951e+001 -6.538086e+000  2.254226e+000
    endloop
  endfacet
  facet normal -6.046530e-001  1.063646e-003 -7.964884e-001
    outer loop
      vertex  1.013972e+001 -6.496565e+000  2.512237e+000
      vertex  1.026336e+001  0.000000e+000  2.427051e+000
      vertex  1.047951e+001 -6.538086e+000  2.254226e+000
    endloop
  endfacet
  facet normal -5.224981e-001 -1.236170e-003 -8.526396e-001
    outer loop
      vertex  9.861972e+000  0.000000e+000  2.673020e+000
      vertex  1.026336e+001  0.000000e+000  2.427051e+000
      vertex  1.013972e+001 -6.496565e+000  2.512237e+000
    endloop
  endfacet
  facet normal -4.855080e-001  8.796318e-004 -8.742318e-001
    outer loop
      vertex  9.766340e+000 -6.459835e+000  2.719629e+000
      vertex  9.861972e+000  0.000000e+000  2.673020e+000
      vertex  1.013972e+001 -6.496565e+000  2.512237e+000
    endloop
  endfacet
  facet normal -3.826824e-001 -1.000825e-003 -9.238794e-001
    outer loop
      vertex  9.427051e+000  0.000000e+000  2.853169e+000
      vertex  9.861972e+000  0.000000e+000  2.673020e+000
      vertex  9.766340e+000 -6.459835e+000  2.719629e+000
    endloop
  endfacet
  facet normal -3.563812e-001  5.968421e-004 -9.343405e-001
    outer loop
      vertex  9.366734e+000 -6.430913e+000  2.872068e+000
      vertex  9.427051e+000  0.000000e+000  2.853169e+000
      vertex  9.766340e+000 -6.459835e+000  2.719629e+000
    endloop
  endfacet
  facet normal -2.334453e-001 -6.679585e-004 -9.723697e-001
    outer loop
      vertex  8.969303e+000  0.000000e+000  2.963065e+000
      vertex  9.427051e+000  0.000000e+000  2.853169e+000
      vertex  9.366734e+000 -6.430913e+000  2.872068e+000
    endloop
  endfacet
  facet normal  6.014485e-002  3.033757e-004 -9.981896e-001
    outer loop
      vertex  8.500000e+000  0.000000e+000  3.000000e+000
      vertex  8.529844e+000 -6.405410e+000  2.999851e+000
      vertex  8.110150e+000 -6.410553e+000  2.974562e+000
    endloop
  endfacet
  facet normal  7.845935e-002 -8.154475e-004 -9.969169e-001
    outer loop
      vertex  8.110150e+000 -6.410553e+000  2.974562e+000
      vertex  8.030697e+000  0.000000e+000  2.963065e+000
      vertex  8.500000e+000  0.000000e+000  3.000000e+000
    endloop
  endfacet
  facet normal  1.990364e-001  7.093578e-004 -9.799919e-001
    outer loop
      vertex  8.030697e+000  0.000000e+000  2.963065e+000
      vertex  8.110150e+000 -6.410553e+000  2.974562e+000
      vertex  7.698397e+000 -6.427224e+000  2.890923e+000
    endloop
  endfacet
  facet normal  2.334450e-001 -1.155195e-003 -9.723694e-001
    outer loop
      vertex  7.698397e+000 -6.427224e+000  2.890923e+000
      vertex  7.572949e+000  0.000000e+000  2.853169e+000
      vertex  8.030697e+000  0.000000e+000  2.963065e+000
    endloop
  endfacet
  facet normal  3.338918e-001  9.801497e-004 -9.426109e-001
    outer loop
      vertex  7.572949e+000  0.000000e+000  2.853169e+000
      vertex  7.698397e+000 -6.427224e+000  2.890923e+000
      vertex  7.302806e+000 -6.454057e+000  2.750768e+000
    endloop
  endfacet
  facet normal  3.826829e-001 -1.359271e-003 -9.238787e-001
    outer loop
      vertex  7.302806e+000 -6.454057e+000  2.750768e+000
      vertex  7.138029e+000  0.000000e+000  2.673020e+000
      vertex  7.572949e+000  0.000000e+000  2.853169e+000
    endloop
  endfacet
  facet normal  4.589679e-001  1.015117e-003 -8.884523e-001
    outer loop
      vertex  7.138029e+000  0.000000e+000  2.673020e+000
      vertex  7.302806e+000 -6.454057e+000  2.750768e+000
      vertex  6.949011e+000 -6.486989e+000  2.567963e+000
    endloop
  endfacet
  facet normal  5.224979e-001 -1.416006e-003 -8.526394e-001
    outer loop
      vertex  6.949011e+000 -6.486989e+000  2.567963e+000
      vertex  6.736644e+000  0.000000e+000  2.427051e+000
      vertex  7.138029e+000  0.000000e+000  2.673020e+000
    endloop
  endfacet
  facet normal  5.725510e-001  9.344576e-004 -8.198685e-001
    outer loop
      vertex  6.622808e+000 -6.524774e+000  2.340118e+000
      vertex  6.736644e+000  0.000000e+000  2.427051e+000
      vertex  6.949011e+000 -6.486989e+000  2.567963e+000
    endloop
  endfacet
  facet normal  6.494479e-001 -1.199404e-003 -7.604051e-001
    outer loop
      vertex  6.378680e+000  0.000000e+000  2.121320e+000
      vertex  6.736644e+000  0.000000e+000  2.427051e+000
      vertex  6.622808e+000 -6.524774e+000  2.340118e+000
    endloop
  endfacet
  facet normal  6.760190e-001  5.835140e-004 -7.368840e-001
    outer loop
      vertex  6.329740e+000 -6.564749e+000  2.071224e+000
      vertex  6.378680e+000  0.000000e+000  2.121320e+000
      vertex  6.622808e+000 -6.524774e+000  2.340118e+000
    endloop
  endfacet
  facet normal  9.238787e-001 -1.296458e-003 -3.826832e-001
    outer loop
      vertex  5.705913e+000 -6.668615e+000  1.092281e+000
      vertex  5.646831e+000  0.000000e+000  9.270510e-001
      vertex  5.826981e+000  0.000000e+000  1.361971e+000
    endloop
  endfacet
  facet normal  9.521334e-001  8.617499e-004 -3.056820e-001
    outer loop
      vertex  5.646831e+000  0.000000e+000  9.270510e-001
      vertex  5.705913e+000 -6.668615e+000  1.092281e+000
      vertex  5.592189e+000 -6.690270e+000  7.379932e-001
    endloop
  endfacet
  facet normal  9.723690e-001 -1.344820e-003 -2.334456e-001
    outer loop
      vertex  5.592189e+000 -6.690270e+000  7.379932e-001
      vertex  5.536935e+000  0.000000e+000  4.693034e-001
      vertex  5.646831e+000  0.000000e+000  9.270510e-001
    endloop
  endfacet
  facet normal -9.778753e-001  4.588839e-004 -2.091884e-001
    outer loop
      vertex  1.138239e+001 -6.685359e+000  8.317633e-001
      vertex  1.146307e+001  0.000000e+000  4.693034e-001
      vertex  1.147043e+001 -6.702552e+000  4.201708e-001
    endloop
  endfacet
  facet normal -9.969172e-001 -5.203446e-004 -7.845881e-002
    outer loop
      vertex  1.147043e+001 -6.702552e+000  4.201708e-001
      vertex  1.146307e+001  0.000000e+000  4.693034e-001
      vertex  1.150000e+001  0.000000e+000  3.673819e-016
    endloop
  endfacet
  facet normal -9.975328e-001  -0.000000e+000 -7.020163e-002
    outer loop
      vertex  1.147043e+001 -6.702552e+000  4.201708e-001
      vertex  1.150000e+001  0.000000e+000  3.673819e-016
      vertex  1.150000e+001 -6.708438e+000  3.673819e-016
    endloop
  endfacet
  facet normal -2.198354e-001  2.179556e-004 -9.755369e-001
    outer loop
      vertex  9.366734e+000 -6.430913e+000  2.872068e+000
      vertex  8.948973e+000 -6.412233e+000  2.966214e+000
      vertex  8.969303e+000  0.000000e+000  2.963065e+000
    endloop
  endfacet
  facet normal -8.000305e-002 -2.358312e-004 -9.967946e-001
    outer loop
      vertex  8.969303e+000  0.000000e+000  2.963065e+000
      vertex  8.948973e+000 -6.412233e+000  2.966214e+000
      vertex  8.529844e+000 -6.405410e+000  2.999851e+000
    endloop
  endfacet
  facet normal -7.845937e-002 -3.424429e-004 -9.969173e-001
    outer loop
      vertex  8.969303e+000  0.000000e+000  2.963065e+000
      vertex  8.529844e+000 -6.405410e+000  2.999851e+000
      vertex  8.500000e+000  0.000000e+000  3.000000e+000
    endloop
  endfacet
  facet normal  9.070035e-001  5.644739e-004 -4.211228e-001
    outer loop
      vertex  5.705913e+000 -6.668615e+000  1.092281e+000
      vertex  5.826981e+000  0.000000e+000  1.361971e+000
      vertex  5.862408e+000 -6.640179e+000  1.429374e+000
    endloop
  endfacet
  facet normal  8.526401e-001 -7.546027e-004 -5.224980e-001
    outer loop
      vertex  5.862408e+000 -6.640179e+000  1.429374e+000
      vertex  5.826981e+000  0.000000e+000  1.361971e+000
      vertex  6.072949e+000  0.000000e+000  1.763356e+000
    endloop
  endfacet
  facet normal  8.456574e-001  3.153549e-005 -5.337260e-001
    outer loop
      vertex  5.862408e+000 -6.640179e+000  1.429374e+000
      vertex  6.072949e+000  0.000000e+000  1.763356e+000
      vertex  6.074811e+000 -6.604126e+000  1.765917e+000
    endloop
  endfacet
  facet normal  7.604057e-001 -3.738072e-005 -6.494483e-001
    outer loop
      vertex  6.074811e+000 -6.604126e+000  1.765917e+000
      vertex  6.072949e+000  0.000000e+000  1.763356e+000
      vertex  6.378680e+000  0.000000e+000  2.121320e+000
    endloop
  endfacet
  facet normal  7.676486e-001 -8.322600e-004 -6.408705e-001
    outer loop
      vertex  6.074811e+000 -6.604126e+000  1.765917e+000
      vertex  6.378680e+000  0.000000e+000  2.121320e+000
      vertex  6.329740e+000 -6.564749e+000  2.071224e+000
    endloop
  endfacet
  facet normal  9.826673e-001  6.707457e-004 -1.853766e-001
    outer loop
      vertex  5.592189e+000 -6.690270e+000  7.379932e-001
      vertex  5.523150e+000 -6.703824e+000  3.719769e-001
      vertex  5.536935e+000  0.000000e+000  4.693034e-001
    endloop
  endfacet
  facet normal  9.980692e-001 -1.150634e-003 -6.210180e-002
    outer loop
      vertex  5.536935e+000  0.000000e+000  4.693034e-001
      vertex  5.523150e+000 -6.703824e+000  3.719769e-001
      vertex  5.500000e+000 -6.708438e+000  0.000000e+000
    endloop
  endfacet
  facet normal  9.969173e-001  0.000000e+000 -7.845883e-002
    outer loop
      vertex  5.536935e+000  0.000000e+000  4.693034e-001
      vertex  5.500000e+000 -6.708438e+000  0.000000e+000
      vertex  5.500000e+000  0.000000e+000  0.000000e+000
    endloop
  endfacet
  facet normal  9.723693e-001 -9.226479e-004  2.334457e-001
    outer loop
      vertex  5.617610e+000 -6.685359e+000 -8.317633e-001
      vertex  5.646831e+000  0.000000e+000 -9.270510e-001
      vertex  5.536935e+000  0.000000e+000 -4.693034e-001
    endloop
  endfacet
  facet normal  9.385942e-001  8.152910e-004  3.450218e-001
    outer loop
      vertex  5.646831e+000  0.000000e+000 -9.270510e-001
      vertex  5.617610e+000 -6.685359e+000 -8.317633e-001
      vertex  5.765012e+000 -6.657690e+000 -1.232818e+000
    endloop
  endfacet
  facet normal  9.238788e-001 -1.175594e-003  3.826833e-001
    outer loop
      vertex  5.765012e+000 -6.657690e+000 -1.232818e+000
      vertex  5.826981e+000  0.000000e+000 -1.361971e+000
      vertex  5.646831e+000  0.000000e+000 -9.270510e-001
    endloop
  endfacet
  facet normal  8.800857e-001  1.019283e-003  4.748139e-001
    outer loop
      vertex  5.826981e+000  0.000000e+000 -1.361971e+000
      vertex  5.765012e+000 -6.657690e+000 -1.232818e+000
      vertex  5.967600e+000 -6.621955e+000 -1.608400e+000
    endloop
  endfacet
  facet normal  8.526396e-001 -1.338046e-003  5.224977e-001
    outer loop
      vertex  5.967600e+000 -6.621955e+000 -1.608400e+000
      vertex  6.072949e+000  0.000000e+000 -1.763356e+000
      vertex  5.826981e+000  0.000000e+000 -1.361971e+000
    endloop
  endfacet
  facet normal  8.038452e-001  1.130990e-003  5.948373e-001
    outer loop
      vertex  6.072949e+000  0.000000e+000 -1.763356e+000
      vertex  5.967600e+000 -6.621955e+000 -1.608400e+000
      vertex  6.221128e+000 -6.581005e+000 -1.951088e+000
    endloop
  endfacet
  facet normal  7.604050e-001 -1.404959e-003  6.494477e-001
    outer loop
      vertex  6.221128e+000 -6.581005e+000 -1.951088e+000
      vertex  6.378680e+000  0.000000e+000 -2.121320e+000
      vertex  6.072949e+000  0.000000e+000 -1.763356e+000
    endloop
  endfacet
  facet normal  7.114447e-001  1.145714e-003  7.027411e-001
    outer loop
      vertex  6.520489e+000 -6.538086e+000 -2.254226e+000
      vertex  6.378680e+000  0.000000e+000 -2.121320e+000
      vertex  6.221128e+000 -6.581005e+000 -1.951088e+000
    endloop
  endfacet
  facet normal  6.494477e-001 -1.371171e-003  7.604050e-001
    outer loop
      vertex  6.736644e+000  0.000000e+000 -2.427051e+000
      vertex  6.378680e+000  0.000000e+000 -2.121320e+000
      vertex  6.520489e+000 -6.538086e+000 -2.254226e+000
    endloop
  endfacet
  facet normal  6.046524e-001  1.063630e-003  7.964887e-001
    outer loop
      vertex  6.860284e+000 -6.496565e+000 -2.512237e+000
      vertex  6.736644e+000  0.000000e+000 -2.427051e+000
      vertex  6.520489e+000 -6.538086e+000 -2.254226e+000
    endloop
  endfacet
  facet normal  5.224981e-001 -1.236170e-003  8.526396e-001
    outer loop
      vertex  7.138029e+000  0.000000e+000 -2.673020e+000
      vertex  6.736644e+000  0.000000e+000 -2.427051e+000
      vertex  6.860284e+000 -6.496565e+000 -2.512237e+000
    endloop
  endfacet
  facet normal  4.855084e-001  8.796048e-004  8.742315e-001
    outer loop
      vertex  7.233660e+000 -6.459835e+000 -2.719629e+000
      vertex  7.138029e+000  0.000000e+000 -2.673020e+000
      vertex  6.860284e+000 -6.496565e+000 -2.512237e+000
    endloop
  endfacet
  facet normal  3.826831e-001 -1.000840e-003  9.238791e-001
    outer loop
      vertex  7.572949e+000  0.000000e+000 -2.853169e+000
      vertex  7.138029e+000  0.000000e+000 -2.673020e+000
      vertex  7.233660e+000 -6.459835e+000 -2.719629e+000
    endloop
  endfacet
  facet normal  3.563809e-001  5.968910e-004  9.343407e-001
    outer loop
      vertex  7.633267e+000 -6.430913e+000 -2.872068e+000
      vertex  7.572949e+000  0.000000e+000 -2.853169e+000
      vertex  7.233660e+000 -6.459835e+000 -2.719629e+000
    endloop
  endfacet
  facet normal  2.334451e-001 -6.679262e-004  9.723698e-001
    outer loop
      vertex  8.030697e+000  0.000000e+000 -2.963065e+000
      vertex  7.572949e+000  0.000000e+000 -2.853169e+000
      vertex  7.633267e+000 -6.430913e+000 -2.872068e+000
    endloop
  endfacet
  facet normal -6.014485e-002  3.033757e-004  9.981896e-001
    outer loop
      vertex  8.500000e+000  0.000000e+000 -3.000000e+000
      vertex  8.470156e+000 -6.405410e+000 -2.999851e+000
      vertex  8.889850e+000 -6.410553e+000 -2.974562e+000
    endloop
  endfacet
  facet normal -7.845935e-002 -8.154475e-004  9.969169e-001
    outer loop
      vertex  8.889850e+000 -6.410553e+000 -2.974562e+000
      vertex  8.969303e+000  0.000000e+000 -2.963065e+000
      vertex  8.500000e+000  0.000000e+000 -3.000000e+000
    endloop
  endfacet
  facet normal -1.990366e-001  7.093606e-004  9.799918e-001
    outer loop
      vertex  8.969303e+000  0.000000e+000 -2.963065e+000
      vertex  8.889850e+000 -6.410553e+000 -2.974562e+000
      vertex  9.301602e+000 -6.427224e+000 -2.890923e+000
    endloop
  endfacet
  facet normal -2.334452e-001 -1.155190e-003  9.723692e-001
    outer loop
      vertex  9.301602e+000 -6.427224e+000 -2.890923e+000
      vertex  9.427051e+000  0.000000e+000 -2.853169e+000
      vertex  8.969303e+000  0.000000e+000 -2.963065e+000
    endloop
  endfacet
  facet normal -3.338910e-001  9.801341e-004  9.426111e-001
    outer loop
      vertex  9.427051e+000  0.000000e+000 -2.853169e+000
      vertex  9.301602e+000 -6.427224e+000 -2.890923e+000
      vertex  9.697194e+000 -6.454057e+000 -2.750768e+000
    endloop
  endfacet
  facet normal -3.826822e-001 -1.359293e-003  9.238791e-001
    outer loop
      vertex  9.697194e+000 -6.454057e+000 -2.750768e+000
      vertex  9.861972e+000  0.000000e+000 -2.673020e+000
      vertex  9.427051e+000  0.000000e+000 -2.853169e+000
    endloop
  endfacet
  facet normal -4.589679e-001  1.015117e-003  8.884523e-001
    outer loop
      vertex  9.861972e+000  0.000000e+000 -2.673020e+000
      vertex  9.697194e+000 -6.454057e+000 -2.750768e+000
      vertex  1.005099e+001 -6.486989e+000 -2.567963e+000
    endloop
  endfacet
  facet normal -5.224979e-001 -1.416006e-003  8.526394e-001
    outer loop
      vertex  1.005099e+001 -6.486989e+000 -2.567963e+000
      vertex  1.026336e+001  0.000000e+000 -2.427051e+000
      vertex  9.861972e+000  0.000000e+000 -2.673020e+000
    endloop
  endfacet
  facet normal -5.725516e-001  9.344845e-004  8.198681e-001
    outer loop
      vertex  1.037719e+001 -6.524774e+000 -2.340118e+000
      vertex  1.026336e+001  0.000000e+000 -2.427051e+000
      vertex  1.005099e+001 -6.486989e+000 -2.567963e+000
    endloop
  endfacet
  facet normal -6.494479e-001 -1.199356e-003  7.604051e-001
    outer loop
      vertex  1.062132e+001  0.000000e+000 -2.121320e+000
      vertex  1.026336e+001  0.000000e+000 -2.427051e+000
      vertex  1.037719e+001 -6.524774e+000 -2.340118e+000
    endloop
  endfacet
  facet normal -6.760184e-001  5.835225e-004  7.368845e-001
    outer loop
      vertex  1.067026e+001 -6.564749e+000 -2.071224e+000
      vertex  1.062132e+001  0.000000e+000 -2.121320e+000
      vertex  1.037719e+001 -6.524774e+000 -2.340118e+000
    endloop
  endfacet
  facet normal -9.238787e-001 -1.296524e-003  3.826832e-001
    outer loop
      vertex  1.129409e+001 -6.668615e+000 -1.092281e+000
      vertex  1.135317e+001  0.000000e+000 -9.270510e-001
      vertex  1.117302e+001  0.000000e+000 -1.361971e+000
    endloop
  endfacet
  facet normal -9.521337e-001  8.617139e-004  3.056808e-001
    outer loop
      vertex  1.135317e+001  0.000000e+000 -9.270510e-001
      vertex  1.129409e+001 -6.668615e+000 -1.092281e+000
      vertex  1.140781e+001 -6.690270e+000 -7.379932e-001
    endloop
  endfacet
  facet normal -9.723690e-001 -1.344820e-003  2.334456e-001
    outer loop
      vertex  1.140781e+001 -6.690270e+000 -7.379932e-001
      vertex  1.146307e+001  0.000000e+000 -4.693034e-001
      vertex  1.135317e+001  0.000000e+000 -9.270510e-001
    endloop
  endfacet
  facet normal  9.778750e-001  4.588921e-004  2.091895e-001
    outer loop
      vertex  5.617610e+000 -6.685359e+000 -8.317633e-001
      vertex  5.536935e+000  0.000000e+000 -4.693034e-001
      vertex  5.529570e+000 -6.702552e+000 -4.201708e-001
    endloop
  endfacet
  facet normal  9.969172e-001 -5.203446e-004  7.845881e-002
    outer loop
      vertex  5.529570e+000 -6.702552e+000 -4.201708e-001
      vertex  5.536935e+000  0.000000e+000 -4.693034e-001
      vertex  5.500000e+000  0.000000e+000  0.000000e+000
    endloop
  endfacet
  facet normal  9.975328e-001  0.000000e+000  7.020163e-002
    outer loop
      vertex  5.529570e+000 -6.702552e+000 -4.201708e-001
      vertex  5.500000e+000  0.000000e+000  0.000000e+000
      vertex  5.500000e+000 -6.708438e+000  0.000000e+000
    endloop
  endfacet
  facet normal  2.198356e-001  2.179564e-004  9.755369e-001
    outer loop
      vertex  7.633267e+000 -6.430913e+000 -2.872068e+000
      vertex  8.051027e+000 -6.412233e+000 -2.966214e+000
      vertex  8.030697e+000  0.000000e+000 -2.963065e+000
    endloop
  endfacet
  facet normal  8.000305e-002 -2.358312e-004  9.967946e-001
    outer loop
      vertex  8.030697e+000  0.000000e+000 -2.963065e+000
      vertex  8.051027e+000 -6.412233e+000 -2.966214e+000
      vertex  8.470156e+000 -6.405410e+000 -2.999851e+000
    endloop
  endfacet
  facet normal  7.845937e-002 -3.424429e-004  9.969173e-001
    outer loop
      vertex  8.030697e+000  0.000000e+000 -2.963065e+000
      vertex  8.470156e+000 -6.405410e+000 -2.999851e+000
      vertex  8.500000e+000  0.000000e+000 -3.000000e+000
    endloop
  endfacet
  facet normal -9.070025e-001  5.645123e-004  4.211249e-001
    outer loop
      vertex  1.129409e+001 -6.668615e+000 -1.092281e+000
      vertex  1.117302e+001  0.000000e+000 -1.361971e+000
      vertex  1.113759e+001 -6.640179e+000 -1.429374e+000
    endloop
  endfacet
  facet normal -8.526397e-001 -7.545514e-004  5.224988e-001
    outer loop
      vertex  1.113759e+001 -6.640179e+000 -1.429374e+000
      vertex  1.117302e+001  0.000000e+000 -1.361971e+000
      vertex  1.092705e+001  0.000000e+000 -1.763356e+000
    endloop
  endfacet
  facet normal -8.456574e-001  3.153549e-005  5.337260e-001
    outer loop
      vertex  1.113759e+001 -6.640179e+000 -1.429374e+000
      vertex  1.092705e+001  0.000000e+000 -1.763356e+000
      vertex  1.092519e+001 -6.604126e+000 -1.765917e+000
    endloop
  endfacet
  facet normal -7.604067e-001 -3.737999e-005  6.494472e-001
    outer loop
      vertex  1.092519e+001 -6.604126e+000 -1.765917e+000
      vertex  1.092705e+001  0.000000e+000 -1.763356e+000
      vertex  1.062132e+001  0.000000e+000 -2.121320e+000
    endloop
  endfacet
  facet normal -7.676498e-001 -8.322796e-004  6.408691e-001
    outer loop
      vertex  1.092519e+001 -6.604126e+000 -1.765917e+000
      vertex  1.062132e+001  0.000000e+000 -2.121320e+000
      vertex  1.067026e+001 -6.564749e+000 -2.071224e+000
    endloop
  endfacet
  facet normal -9.826673e-001  6.707457e-004  1.853766e-001
    outer loop
      vertex  1.140781e+001 -6.690270e+000 -7.379932e-001
      vertex  1.147685e+001 -6.703824e+000 -3.719769e-001
      vertex  1.146307e+001  0.000000e+000 -4.693034e-001
    endloop
  endfacet
  facet normal -9.980692e-001 -1.150634e-003  6.210180e-002
    outer loop
      vertex  1.146307e+001  0.000000e+000 -4.693034e-001
      vertex  1.147685e+001 -6.703824e+000 -3.719769e-001
      vertex  1.150000e+001 -6.708438e+000  3.673819e-016
    endloop
  endfacet
  facet normal -9.969173e-001  0.000000e+000  7.845883e-002
    outer loop
      vertex  1.146307e+001  0.000000e+000 -4.693034e-001
      vertex  1.150000e+001 -6.708438e+000  3.673819e-016
      vertex  1.150000e+001  0.000000e+000  3.673819e-016
    endloop
  endfacet
  facet normal  1.000000e+000  0.000000e+000  0.000000e+000
    outer loop
      vertex  1.700000e+001 -6.698455e+000  5.471624e-001
      vertex  1.700000e+001 -6.698455e+000 -5.471624e-001
      vertex  1.700000e+001  0.000000e+000  0.000000e+000
    endloop
  endfacet
  facet normal  1.000000e+000  0.000000e+000  -0.000000e+000
    outer loop
      vertex  1.700000e+001 -6.698455e+000  5.471624e-001
      vertex  1.700000e+001  0.000000e+000  0.000000e+000
      vertex  1.700000e+001  0.000000e+000  1.250000e+001
    endloop
  endfacet
  facet normal  1.000000e+000  0.000000e+000  0.000000e+000
    outer loop
      vertex  1.700000e+001 -6.698455e+000  5.471624e-001
      vertex  1.700000e+001  0.000000e+000  1.250000e+001
      vertex  1.700000e+001 -8.892647e-001  1.186223e+001
    endloop
  endfacet
  facet normal  1.000000e+000  0.000000e+000  0.000000e+000
    outer loop
      vertex  1.700000e+001 -6.698455e+000  5.471624e-001
      vertex  1.700000e+001 -8.892647e-001  1.186223e+001
      vertex  1.700000e+001 -1.729665e+000  1.116132e+001
    endloop
  endfacet
  facet normal  1.000000e+000  0.000000e+000  0.000000e+000
    outer loop
      vertex  1.700000e+001 -6.698455e+000  5.471624e-001
      vertex  1.700000e+001 -1.729665e+000  1.116132e+001
      vertex  1.700000e+001 -2.516728e+000  1.040100e+001
    endloop
  endfacet
  facet normal  1.000000e+000  0.000000e+000  0.000000e+000
    outer loop
      vertex  1.700000e+001 -6.698455e+000  5.471624e-001
      vertex  1.700000e+001 -2.516728e+000  1.040100e+001
      vertex  1.700000e+001 -3.246265e+000  9.585330e+000
    endloop
  endfacet
  facet normal  1.000000e+000  0.000000e+000  0.000000e+000
    outer loop
      vertex  1.700000e+001 -6.698455e+000  5.471624e-001
      vertex  1.700000e+001 -3.246265e+000  9.585330e+000
      vertex  1.700000e+001 -3.914392e+000  8.718639e+000
    endloop
  endfacet
  facet normal  1.000000e+000  0.000000e+000  0.000000e+000
    outer loop
      vertex  1.700000e+001 -6.698455e+000  5.471624e-001
      vertex  1.700000e+001 -3.914392e+000  8.718639e+000
      vertex  1.700000e+001 -4.517555e+000  7.805545e+000
    endloop
  endfacet
  facet normal  1.000000e+000  0.000000e+000  0.000000e+000
    outer loop
      vertex  1.700000e+001 -6.698455e+000  5.471624e-001
      vertex  1.700000e+001 -4.517555e+000  7.805545e+000
      vertex  1.700000e+001 -5.052541e+000  6.850905e+000
    endloop
  endfacet
  facet normal  1.000000e+000  0.000000e+000  0.000000e+000
    outer loop
      vertex  1.700000e+001 -6.698455e+000  5.471624e-001
      vertex  1.700000e+001 -5.052541e+000  6.850905e+000
      vertex  1.700000e+001 -5.516505e+000  5.859803e+000
    endloop
  endfacet
  facet normal  1.000000e+000  0.000000e+000  0.000000e+000
    outer loop
      vertex  1.700000e+001 -6.698455e+000  5.471624e-001
      vertex  1.700000e+001 -5.516505e+000  5.859803e+000
      vertex  1.700000e+001 -5.906976e+000  4.837512e+000
    endloop
  endfacet
  facet normal  1.000000e+000  0.000000e+000  0.000000e+000
    outer loop
      vertex  1.700000e+001 -6.698455e+000  5.471624e-001
      vertex  1.700000e+001 -5.906976e+000  4.837512e+000
      vertex  1.700000e+001 -6.221876e+000  3.789474e+000
    endloop
  endfacet
  facet normal  1.000000e+000  0.000000e+000  0.000000e+000
    outer loop
      vertex  1.700000e+001 -6.698455e+000  5.471624e-001
      vertex  1.700000e+001 -6.221876e+000  3.789474e+000
      vertex  1.700000e+001 -6.459530e+000  2.721266e+000
    endloop
  endfacet
  facet normal  1.000000e+000  0.000000e+000  0.000000e+000
    outer loop
      vertex  1.700000e+001 -6.698455e+000  5.471624e-001
      vertex  1.700000e+001 -6.459530e+000  2.721266e+000
      vertex  1.700000e+001 -6.618672e+000  1.638575e+000
    endloop
  endfacet
  facet normal  1.000000e+000  0.000000e+000  0.000000e+000
    outer loop
      vertex  1.700000e+001  0.000000e+000 -1.250000e+001
      vertex  1.700000e+001  0.000000e+000  0.000000e+000
      vertex  1.700000e+001 -6.698455e+000 -5.471624e-001
    endloop
  endfacet
  facet normal  1.000000e+000  0.000000e+000  0.000000e+000
    outer loop
      vertex  1.700000e+001  0.000000e+000 -1.250000e+001
      vertex  1.700000e+001 -6.698455e+000 -5.471624e-001
      vertex  1.700000e+001 -6.618672e+000 -1.638575e+000
    endloop
  endfacet
  facet normal  9.999999e-001  0.000000e+000  0.000000e+000
    outer loop
      vertex  1.700000e+001  0.000000e+000 -1.250000e+001
      vertex  1.700000e+001 -6.618672e+000 -1.638575e+000
      vertex  1.700000e+001 -6.459530e+000 -2.721266e+000
    endloop
  endfacet
  facet normal  1.000000e+000  0.000000e+000  0.000000e+000
    outer loop
      vertex  1.700000e+001  0.000000e+000 -1.250000e+001
      vertex  1.700000e+001 -6.459530e+000 -2.721266e+000
      vertex  1.700000e+001 -6.221876e+000 -3.789474e+000
    endloop
  endfacet
  facet normal  1.000000e+000  0.000000e+000  0.000000e+000
    outer loop
      vertex  1.700000e+001  0.000000e+000 -1.250000e+001
      vertex  1.700000e+001 -6.221876e+000 -3.789474e+000
      vertex  1.700000e+001 -5.906976e+000 -4.837512e+000
    endloop
  endfacet
  facet normal  1.000000e+000  0.000000e+000  0.000000e+000
    outer loop
      vertex  1.700000e+001  0.000000e+000 -1.250000e+001
      vertex  1.700000e+001 -5.906976e+000 -4.837512e+000
      vertex  1.700000e+001 -5.516505e+000 -5.859803e+000
    endloop
  endfacet
  facet normal  1.000000e+000  0.000000e+000  0.000000e+000
    outer loop
      vertex  1.700000e+001  0.000000e+000 -1.250000e+001
      vertex  1.700000e+001 -5.516505e+000 -5.859803e+000
      vertex  1.700000e+001 -5.052541e+000 -6.850905e+000
    endloop
  endfacet
  facet normal  1.000000e+000  0.000000e+000  0.000000e+000
    outer loop
      vertex  1.700000e+001  0.000000e+000 -1.250000e+001
      vertex  1.700000e+001 -5.052541e+000 -6.850905e+000
      vertex  1.700000e+001 -4.517555e+000 -7.805545e+000
    endloop
  endfacet
  facet normal  1.000000e+000  0.000000e+000  0.000000e+000
    outer loop
      vertex  1.700000e+001  0.000000e+000 -1.250000e+001
      vertex  1.700000e+001 -4.517555e+000 -7.805545e+000
      vertex  1.700000e+001 -3.914392e+000 -8.718639e+000
    endloop
  endfacet
  facet normal  1.000000e+000  0.000000e+000  0.000000e+000
    outer loop
      vertex  1.700000e+001  0.000000e+000 -1.250000e+001
      vertex  1.700000e+001 -3.914392e+000 -8.718639e+000
      vertex  1.700000e+001 -3.246265e+000 -9.585330e+000
    endloop
  endfacet
  facet normal  1.000000e+000  0.000000e+000  0.000000e+000
    outer loop
      vertex  1.700000e+001  0.000000e+000 -1.250000e+001
      vertex  1.700000e+001 -3.246265e+000 -9.585330e+000
      vertex  1.700000e+001 -2.516728e+000 -1.040100e+001
    endloop
  endfacet
  facet normal  1.000000e+000  0.000000e+000  0.000000e+000
    outer loop
      vertex  1.700000e+001  0.000000e+000 -1.250000e+001
      vertex  1.700000e+001 -2.516728e+000 -1.040100e+001
      vertex  1.700000e+001 -1.729665e+000 -1.116132e+001
    endloop
  endfacet
  facet normal  1.000000e+000  0.000000e+000  0.000000e+000
    outer loop
      vertex  1.700000e+001  0.000000e+000 -1.250000e+001
      vertex  1.700000e+001 -1.729665e+000 -1.116132e+001
      vertex  1.700000e+001 -8.892647e-001 -1.186223e+001
    endloop
  endfacet
  facet normal -1.000000e+000  0.000000e+000  -0.000000e+000
    outer loop
      vertex  0.000000e+000 -6.698455e+000  5.471624e-001
      vertex  0.000000e+000 -6.618672e+000  1.638575e+000
      vertex  0.000000e+000 -6.459530e+000  2.721266e+000
    endloop
  endfacet
  facet normal -1.000000e+000  0.000000e+000  -0.000000e+000
    outer loop
      vertex  0.000000e+000 -6.698455e+000  5.471624e-001
      vertex  0.000000e+000 -6.459530e+000  2.721266e+000
      vertex  0.000000e+000 -6.221876e+000  3.789474e+000
    endloop
  endfacet
  facet normal -1.000000e+000  0.000000e+000  -0.000000e+000
    outer loop
      vertex  0.000000e+000 -6.698455e+000  5.471624e-001
      vertex  0.000000e+000 -6.221876e+000  3.789474e+000
      vertex  0.000000e+000 -5.906976e+000  4.837512e+000
    endloop
  endfacet
  facet normal -1.000000e+000  0.000000e+000  -0.000000e+000
    outer loop
      vertex  0.000000e+000 -6.698455e+000  5.471624e-001
      vertex  0.000000e+000 -5.906976e+000  4.837512e+000
      vertex  0.000000e+000 -5.516505e+000  5.859803e+000
    endloop
  endfacet
  facet normal -1.000000e+000  0.000000e+000  -0.000000e+000
    outer loop
      vertex  0.000000e+000 -6.698455e+000  5.471624e-001
      vertex  0.000000e+000 -5.516505e+000  5.859803e+000
      vertex  0.000000e+000 -5.052541e+000  6.850905e+000
    endloop
  endfacet
  facet normal -1.000000e+000  0.000000e+000  -0.000000e+000
    outer loop
      vertex  0.000000e+000 -6.698455e+000  5.471624e-001
      vertex  0.000000e+000 -5.052541e+000  6.850905e+000
      vertex  0.000000e+000 -4.517555e+000  7.805545e+000
    endloop
  endfacet
  facet normal -1.000000e+000  0.000000e+000  -0.000000e+000
    outer loop
      vertex  0.000000e+000 -6.698455e+000  5.471624e-001
      vertex  0.000000e+000 -4.517555e+000  7.805545e+000
      vertex  0.000000e+000 -3.914392e+000  8.718639e+000
    endloop
  endfacet
  facet normal -1.000000e+000  0.000000e+000  -0.000000e+000
    outer loop
      vertex  0.000000e+000 -6.698455e+000  5.471624e-001
      vertex  0.000000e+000 -3.914392e+000  8.718639e+000
      vertex  0.000000e+000 -3.246265e+000  9.585330e+000
    endloop
  endfacet
  facet normal -1.000000e+000  0.000000e+000  -0.000000e+000
    outer loop
      vertex  0.000000e+000 -6.698455e+000  5.471624e-001
      vertex  0.000000e+000 -3.246265e+000  9.585330e+000
      vertex  0.000000e+000 -2.516728e+000  1.040100e+001
    endloop
  endfacet
  facet normal -1.000000e+000  0.000000e+000  -0.000000e+000
    outer loop
      vertex  0.000000e+000 -6.698455e+000  5.471624e-001
      vertex  0.000000e+000 -2.516728e+000  1.040100e+001
      vertex  0.000000e+000 -1.729665e+000  1.116132e+001
    endloop
  endfacet
  facet normal -1.000000e+000  0.000000e+000  -0.000000e+000
    outer loop
      vertex  0.000000e+000 -6.698455e+000  5.471624e-001
      vertex  0.000000e+000 -1.729665e+000  1.116132e+001
      vertex  0.000000e+000 -8.892647e-001  1.186223e+001
    endloop
  endfacet
  facet normal -1.000000e+000  0.000000e+000  -0.000000e+000
    outer loop
      vertex  0.000000e+000 -6.698455e+000  5.471624e-001
      vertex  0.000000e+000 -8.892647e-001  1.186223e+001
      vertex  0.000000e+000  0.000000e+000  1.250000e+001
    endloop
  endfacet
  facet normal -1.000000e+000  0.000000e+000  -0.000000e+000
    outer loop
      vertex  0.000000e+000 -6.698455e+000  5.471624e-001
      vertex  0.000000e+000  0.000000e+000  1.250000e+001
      vertex  0.000000e+000  0.000000e+000  0.000000e+000
    endloop
  endfacet
  facet normal -1.000000e+000  -0.000000e+000  0.000000e+000
    outer loop
      vertex  0.000000e+000 -6.698455e+000  5.471624e-001
      vertex  0.000000e+000  0.000000e+000  0.000000e+000
      vertex  0.000000e+000 -6.698455e+000 -5.471624e-001
    endloop
  endfacet
  facet normal -1.000000e+000  0.000000e+000  0.000000e+000
    outer loop
      vertex  0.000000e+000  0.000000e+000 -1.250000e+001
      vertex  0.000000e+000 -8.892647e-001 -1.186223e+001
      vertex  0.000000e+000 -1.729665e+000 -1.116132e+001
    endloop
  endfacet
  facet normal -1.000000e+000  0.000000e+000  0.000000e+000
    outer loop
      vertex  0.000000e+000  0.000000e+000 -1.250000e+001
      vertex  0.000000e+000 -1.729665e+000 -1.116132e+001
      vertex  0.000000e+000 -2.516728e+000 -1.040100e+001
    endloop
  endfacet
  facet normal -1.000000e+000  0.000000e+000  0.000000e+000
    outer loop
      vertex  0.000000e+000  0.000000e+000 -1.250000e+001
      vertex  0.000000e+000 -2.516728e+000 -1.040100e+001
      vertex  0.000000e+000 -3.246265e+000 -9.585330e+000
    endloop
  endfacet
  facet normal -1.000000e+000  0.000000e+000  0.000000e+000
    outer loop
      vertex  0.000000e+000  0.000000e+000 -1.250000e+001
      vertex  0.000000e+000 -3.246265e+000 -9.585330e+000
      vertex  0.000000e+000 -3.914392e+000 -8.718639e+000
    endloop
  endfacet
  facet normal -1.000000e+000  0.000000e+000  0.000000e+000
    outer loop
      vertex  0.000000e+000  0.000000e+000 -1.250000e+001
      vertex  0.000000e+000 -3.914392e+000 -8.718639e+000
      vertex  0.000000e+000 -4.517555e+000 -7.805545e+000
    endloop
  endfacet
  facet normal -1.000000e+000  0.000000e+000  0.000000e+000
    outer loop
      vertex  0.000000e+000  0.000000e+000 -1.250000e+001
      vertex  0.000000e+000 -4.517555e+000 -7.805545e+000
      vertex  0.000000e+000 -5.052541e+000 -6.850905e+000
    endloop
  endfacet
  facet normal -1.000000e+000  0.000000e+000  0.000000e+000
    outer loop
      vertex  0.000000e+000  0.000000e+000 -1.250000e+001
      vertex  0.000000e+000 -5.052541e+000 -6.850905e+000
      vertex  0.000000e+000 -5.516505e+000 -5.859803e+000
    endloop
  endfacet
  facet normal -1.000000e+000  0.000000e+000  0.000000e+000
    outer loop
      vertex  0.000000e+000  0.000000e+000 -1.250000e+001
      vertex  0.000000e+000 -5.516505e+000 -5.859803e+000
      vertex  0.000000e+000 -5.906976e+000 -4.837512e+000
    endloop
  endfacet
  facet normal -1.000000e+000  0.000000e+000  0.000000e+000
    outer loop
      vertex  0.000000e+000  0.000000e+000 -1.250000e+001
      vertex  0.000000e+000 -5.906976e+000 -4.837512e+000
      vertex  0.000000e+000 -6.221876e+000 -3.789474e+000
    endloop
  endfacet
  facet normal -1.000000e+000  0.000000e+000  0.000000e+000
    outer loop
      vertex  0.000000e+000  0.000000e+000 -1.250000e+001
      vertex  0.000000e+000 -6.221876e+000 -3.789474e+000
      vertex  0.000000e+000 -6.459530e+000 -2.721266e+000
    endloop
  endfacet
  facet normal -9.999999e-001  0.000000e+000  0.000000e+000
    outer loop
      vertex  0.000000e+000  0.000000e+000 -1.250000e+001
      vertex  0.000000e+000 -6.459530e+000 -2.721266e+000
      vertex  0.000000e+000 -6.618672e+000 -1.638575e+000
    endloop
  endfacet
  facet normal -1.000000e+000  0.000000e+000  0.000000e+000
    outer loop
      vertex  0.000000e+000  0.000000e+000 -1.250000e+001
      vertex  0.000000e+000 -6.618672e+000 -1.638575e+000
      vertex  0.000000e+000 -6.698455e+000 -5.471624e-001
    endloop
  endfacet
  facet normal -1.000000e+000  0.000000e+000  0.000000e+000
    outer loop
      vertex  0.000000e+000  0.000000e+000 -1.250000e+001
      vertex  0.000000e+000 -6.698455e+000 -5.471624e-001
      vertex  0.000000e+000  0.000000e+000  0.000000e+000
    endloop
  endfacet
endsolid CATIA STL
