solid CATIA STL
  facet normal  1.000000e+000  0.000000e+000  0.000000e+000
    outer loop
      vertex  5.000000e+001 -2.447255e+000  0.000000e+000
      vertex  5.000000e+001 -6.839852e-001  1.000000e+001
      vertex  5.000000e+001 -3.434620e+000  8.000000e+000
    endloop
  endfacet
  facet normal  1.000000e+000  0.000000e+000  0.000000e+000
    outer loop
      vertex  5.000000e+001 -2.447255e+000  0.000000e+000
      vertex  5.000000e+001 -3.434620e+000  8.000000e+000
      vertex  5.000000e+001 -3.434620e+000 -1.000000e+001
    endloop
  endfacet
  facet normal  1.000000e+000  0.000000e+000  0.000000e+000
    outer loop
      vertex  5.000000e+001 -2.447255e+000  0.000000e+000
      vertex  5.000000e+001 -3.434620e+000 -1.000000e+001
      vertex  5.000000e+001  8.565380e+000 -1.000000e+001
    endloop
  endfacet
  facet normal  1.000000e+000  0.000000e+000  0.000000e+000
    outer loop
      vertex  5.000000e+001 -2.447255e+000  0.000000e+000
      vertex  5.000000e+001  8.565380e+000 -1.000000e+001
      vertex  5.000000e+001  8.021102e-001  0.000000e+000
    endloop
  endfacet
  facet normal  1.000000e+000  0.000000e+000  -0.000000e+000
    outer loop
      vertex  5.000000e+001  8.021102e-001  0.000000e+000
      vertex  5.000000e+001  8.565380e+000 -1.000000e+001
      vertex  5.000000e+001  8.565380e+000  8.000000e+000
    endloop
  endfacet
  facet normal  9.999999e-001  0.000000e+000  0.000000e+000
    outer loop
      vertex  5.000000e+001  8.021102e-001  0.000000e+000
      vertex  5.000000e+001  8.565380e+000  8.000000e+000
      vertex  5.000000e+001  8.526951e+000  8.390181e+000
    endloop
  endfacet
  facet normal  1.000000e+000  0.000000e+000  0.000000e+000
    outer loop
      vertex  5.000000e+001  8.021102e-001  0.000000e+000
      vertex  5.000000e+001  8.526951e+000  8.390181e+000
      vertex  5.000000e+001  8.413139e+000  8.765367e+000
    endloop
  endfacet
  facet normal  1.000000e+000  0.000000e+000  0.000000e+000
    outer loop
      vertex  5.000000e+001  8.021102e-001  0.000000e+000
      vertex  5.000000e+001  8.413139e+000  8.765367e+000
      vertex  5.000000e+001  8.228319e+000  9.111140e+000
    endloop
  endfacet
  facet normal  1.000000e+000  0.000000e+000  0.000000e+000
    outer loop
      vertex  5.000000e+001  8.021102e-001  0.000000e+000
      vertex  5.000000e+001  8.228319e+000  9.111140e+000
      vertex  5.000000e+001  7.979594e+000  9.414213e+000
    endloop
  endfacet
  facet normal  1.000000e+000  0.000000e+000  0.000000e+000
    outer loop
      vertex  5.000000e+001  8.021102e-001  0.000000e+000
      vertex  5.000000e+001  7.979594e+000  9.414213e+000
      vertex  5.000000e+001  7.676520e+000  9.662939e+000
    endloop
  endfacet
  facet normal  1.000000e+000  0.000000e+000  0.000000e+000
    outer loop
      vertex  5.000000e+001  8.021102e-001  0.000000e+000
      vertex  5.000000e+001  7.676520e+000  9.662939e+000
      vertex  5.000000e+001  7.330747e+000  9.847759e+000
    endloop
  endfacet
  facet normal  1.000000e+000  0.000000e+000  0.000000e+000
    outer loop
      vertex  5.000000e+001  8.021102e-001  0.000000e+000
      vertex  5.000000e+001  7.330747e+000  9.847759e+000
      vertex  5.000000e+001  6.955561e+000  9.961571e+000
    endloop
  endfacet
  facet normal  1.000000e+000  0.000000e+000  0.000000e+000
    outer loop
      vertex  5.000000e+001  8.021102e-001  0.000000e+000
      vertex  5.000000e+001  6.955561e+000  9.961571e+000
      vertex  5.000000e+001  6.565380e+000  1.000000e+001
    endloop
  endfacet
  facet normal  1.000000e+000  0.000000e+000  0.000000e+000
    outer loop
      vertex  5.000000e+001  8.021102e-001  0.000000e+000
      vertex  5.000000e+001  6.565380e+000  1.000000e+001
      vertex  5.000000e+001  2.565380e+000  1.000000e+001
    endloop
  endfacet
  facet normal  1.000000e+000  0.000000e+000  0.000000e+000
    outer loop
      vertex  5.000000e+001 -3.434620e+000  8.000000e+000
      vertex  5.000000e+001 -6.839852e-001  1.000000e+001
      vertex  5.000000e+001 -1.434620e+000  1.000000e+001
    endloop
  endfacet
  facet normal  1.000000e+000  0.000000e+000  0.000000e+000
    outer loop
      vertex  5.000000e+001 -3.434620e+000  8.000000e+000
      vertex  5.000000e+001 -1.434620e+000  1.000000e+001
      vertex  5.000000e+001 -1.824801e+000  9.961571e+000
    endloop
  endfacet
  facet normal  1.000000e+000  0.000000e+000  0.000000e+000
    outer loop
      vertex  5.000000e+001 -3.434620e+000  8.000000e+000
      vertex  5.000000e+001 -1.824801e+000  9.961571e+000
      vertex  5.000000e+001 -2.199987e+000  9.847759e+000
    endloop
  endfacet
  facet normal  1.000000e+000  0.000000e+000  0.000000e+000
    outer loop
      vertex  5.000000e+001 -3.434620e+000  8.000000e+000
      vertex  5.000000e+001 -2.199987e+000  9.847759e+000
      vertex  5.000000e+001 -2.545760e+000  9.662939e+000
    endloop
  endfacet
  facet normal  1.000000e+000  0.000000e+000  0.000000e+000
    outer loop
      vertex  5.000000e+001 -3.434620e+000  8.000000e+000
      vertex  5.000000e+001 -2.545760e+000  9.662939e+000
      vertex  5.000000e+001 -2.848834e+000  9.414213e+000
    endloop
  endfacet
  facet normal  1.000000e+000  0.000000e+000  0.000000e+000
    outer loop
      vertex  5.000000e+001 -3.434620e+000  8.000000e+000
      vertex  5.000000e+001 -2.848834e+000  9.414213e+000
      vertex  5.000000e+001 -3.097559e+000  9.111140e+000
    endloop
  endfacet
  facet normal  9.999999e-001  0.000000e+000  0.000000e+000
    outer loop
      vertex  5.000000e+001 -3.434620e+000  8.000000e+000
      vertex  5.000000e+001 -3.097559e+000  9.111140e+000
      vertex  5.000000e+001 -3.282379e+000  8.765367e+000
    endloop
  endfacet
  facet normal  1.000000e+000  0.000000e+000  0.000000e+000
    outer loop
      vertex  5.000000e+001 -3.434620e+000  8.000000e+000
      vertex  5.000000e+001 -3.282379e+000  8.765367e+000
      vertex  5.000000e+001 -3.396191e+000  8.390181e+000
    endloop
  endfacet
  facet normal -1.000000e+000  -0.000000e+000  -0.000000e+000
    outer loop
      vertex  0.000000e+000 -2.447255e+000  0.000000e+000
      vertex  0.000000e+000  8.021102e-001  0.000000e+000
      vertex  0.000000e+000  8.565380e+000 -1.000000e+001
    endloop
  endfacet
  facet normal -1.000000e+000  0.000000e+000  0.000000e+000
    outer loop
      vertex  0.000000e+000 -2.447255e+000  0.000000e+000
      vertex  0.000000e+000  8.565380e+000 -1.000000e+001
      vertex  0.000000e+000 -3.434620e+000 -1.000000e+001
    endloop
  endfacet
  facet normal -1.000000e+000  0.000000e+000  0.000000e+000
    outer loop
      vertex  0.000000e+000 -2.447255e+000  0.000000e+000
      vertex  0.000000e+000 -3.434620e+000 -1.000000e+001
      vertex  0.000000e+000 -3.434620e+000  8.000000e+000
    endloop
  endfacet
  facet normal -1.000000e+000  0.000000e+000  0.000000e+000
    outer loop
      vertex  0.000000e+000 -2.447255e+000  0.000000e+000
      vertex  0.000000e+000 -3.434620e+000  8.000000e+000
      vertex  0.000000e+000 -6.839852e-001  1.000000e+001
    endloop
  endfacet
  facet normal -1.000000e+000  0.000000e+000  -0.000000e+000
    outer loop
      vertex  0.000000e+000  8.021102e-001  0.000000e+000
      vertex  0.000000e+000  2.565380e+000  1.000000e+001
      vertex  0.000000e+000  6.565380e+000  1.000000e+001
    endloop
  endfacet
  facet normal -1.000000e+000  0.000000e+000  -0.000000e+000
    outer loop
      vertex  0.000000e+000  8.021102e-001  0.000000e+000
      vertex  0.000000e+000  6.565380e+000  1.000000e+001
      vertex  0.000000e+000  6.955561e+000  9.961571e+000
    endloop
  endfacet
  facet normal -1.000000e+000  0.000000e+000  -0.000000e+000
    outer loop
      vertex  0.000000e+000  8.021102e-001  0.000000e+000
      vertex  0.000000e+000  6.955561e+000  9.961571e+000
      vertex  0.000000e+000  7.330747e+000  9.847759e+000
    endloop
  endfacet
  facet normal -1.000000e+000  0.000000e+000  -0.000000e+000
    outer loop
      vertex  0.000000e+000  8.021102e-001  0.000000e+000
      vertex  0.000000e+000  7.330747e+000  9.847759e+000
      vertex  0.000000e+000  7.676520e+000  9.662939e+000
    endloop
  endfacet
  facet normal -1.000000e+000  0.000000e+000  -0.000000e+000
    outer loop
      vertex  0.000000e+000  8.021102e-001  0.000000e+000
      vertex  0.000000e+000  7.676520e+000  9.662939e+000
      vertex  0.000000e+000  7.979594e+000  9.414213e+000
    endloop
  endfacet
  facet normal -1.000000e+000  0.000000e+000  -0.000000e+000
    outer loop
      vertex  0.000000e+000  8.021102e-001  0.000000e+000
      vertex  0.000000e+000  7.979594e+000  9.414213e+000
      vertex  0.000000e+000  8.228319e+000  9.111140e+000
    endloop
  endfacet
  facet normal -1.000000e+000  0.000000e+000  -0.000000e+000
    outer loop
      vertex  0.000000e+000  8.021102e-001  0.000000e+000
      vertex  0.000000e+000  8.228319e+000  9.111140e+000
      vertex  0.000000e+000  8.413139e+000  8.765367e+000
    endloop
  endfacet
  facet normal -1.000000e+000  0.000000e+000  -0.000000e+000
    outer loop
      vertex  0.000000e+000  8.021102e-001  0.000000e+000
      vertex  0.000000e+000  8.413139e+000  8.765367e+000
      vertex  0.000000e+000  8.526951e+000  8.390181e+000
    endloop
  endfacet
  facet normal -9.999999e-001  0.000000e+000  -0.000000e+000
    outer loop
      vertex  0.000000e+000  8.021102e-001  0.000000e+000
      vertex  0.000000e+000  8.526951e+000  8.390181e+000
      vertex  0.000000e+000  8.565380e+000  8.000000e+000
    endloop
  endfacet
  facet normal -1.000000e+000  0.000000e+000  -0.000000e+000
    outer loop
      vertex  0.000000e+000  8.021102e-001  0.000000e+000
      vertex  0.000000e+000  8.565380e+000  8.000000e+000
      vertex  0.000000e+000  8.565380e+000 -1.000000e+001
    endloop
  endfacet
  facet normal -1.000000e+000  0.000000e+000  -0.000000e+000
    outer loop
      vertex  0.000000e+000 -3.434620e+000  8.000000e+000
      vertex  0.000000e+000 -3.396191e+000  8.390181e+000
      vertex  0.000000e+000 -3.282379e+000  8.765367e+000
    endloop
  endfacet
  facet normal -9.999999e-001  0.000000e+000  -0.000000e+000
    outer loop
      vertex  0.000000e+000 -3.434620e+000  8.000000e+000
      vertex  0.000000e+000 -3.282379e+000  8.765367e+000
      vertex  0.000000e+000 -3.097559e+000  9.111140e+000
    endloop
  endfacet
  facet normal -1.000000e+000  0.000000e+000  -0.000000e+000
    outer loop
      vertex  0.000000e+000 -3.434620e+000  8.000000e+000
      vertex  0.000000e+000 -3.097559e+000  9.111140e+000
      vertex  0.000000e+000 -2.848834e+000  9.414213e+000
    endloop
  endfacet
  facet normal -1.000000e+000  0.000000e+000  -0.000000e+000
    outer loop
      vertex  0.000000e+000 -3.434620e+000  8.000000e+000
      vertex  0.000000e+000 -2.848834e+000  9.414213e+000
      vertex  0.000000e+000 -2.545760e+000  9.662939e+000
    endloop
  endfacet
  facet normal -1.000000e+000  0.000000e+000  -0.000000e+000
    outer loop
      vertex  0.000000e+000 -3.434620e+000  8.000000e+000
      vertex  0.000000e+000 -2.545760e+000  9.662939e+000
      vertex  0.000000e+000 -2.199987e+000  9.847759e+000
    endloop
  endfacet
  facet normal -1.000000e+000  0.000000e+000  -0.000000e+000
    outer loop
      vertex  0.000000e+000 -3.434620e+000  8.000000e+000
      vertex  0.000000e+000 -2.199987e+000  9.847759e+000
      vertex  0.000000e+000 -1.824801e+000  9.961571e+000
    endloop
  endfacet
  facet normal -1.000000e+000  0.000000e+000  -0.000000e+000
    outer loop
      vertex  0.000000e+000 -3.434620e+000  8.000000e+000
      vertex  0.000000e+000 -1.824801e+000  9.961571e+000
      vertex  0.000000e+000 -1.434620e+000  1.000000e+001
    endloop
  endfacet
  facet normal -1.000000e+000  0.000000e+000  -0.000000e+000
    outer loop
      vertex  0.000000e+000 -3.434620e+000  8.000000e+000
      vertex  0.000000e+000 -1.434620e+000  1.000000e+001
      vertex  0.000000e+000 -6.839852e-001  1.000000e+001
    endloop
  endfacet
  facet normal  0.000000e+000  0.000000e+000  1.000000e+000
    outer loop
      vertex  0.000000e+000  2.565380e+000  1.000000e+001
      vertex  5.000000e+001  2.565380e+000  1.000000e+001
      vertex  0.000000e+000  6.565380e+000  1.000000e+001
    endloop
  endfacet
  facet normal  -0.000000e+000  0.000000e+000  1.000000e+000
    outer loop
      vertex  0.000000e+000  6.565380e+000  1.000000e+001
      vertex  5.000000e+001  2.565380e+000  1.000000e+001
      vertex  5.000000e+001  6.565380e+000  1.000000e+001
    endloop
  endfacet
  facet normal  0.000000e+000  1.000000e+000  0.000000e+000
    outer loop
      vertex  0.000000e+000  8.565380e+000  8.000000e+000
      vertex  5.000000e+001  8.565380e+000  8.000000e+000
      vertex  0.000000e+000  8.565380e+000 -1.000000e+001
    endloop
  endfacet
  facet normal  0.000000e+000  1.000000e+000  0.000000e+000
    outer loop
      vertex  0.000000e+000  8.565380e+000 -1.000000e+001
      vertex  5.000000e+001  8.565380e+000  8.000000e+000
      vertex  5.000000e+001  8.565380e+000 -1.000000e+001
    endloop
  endfacet
  facet normal  0.000000e+000  9.801670e-002  9.951848e-001
    outer loop
      vertex  0.000000e+000  6.565380e+000  1.000000e+001
      vertex  5.000000e+001  6.565380e+000  1.000000e+001
      vertex  0.000000e+000  6.955561e+000  9.961571e+000
    endloop
  endfacet
  facet normal  -0.000000e+000  9.801670e-002  9.951848e-001
    outer loop
      vertex  0.000000e+000  6.955561e+000  9.961571e+000
      vertex  5.000000e+001  6.565380e+000  1.000000e+001
      vertex  5.000000e+001  6.955561e+000  9.961571e+000
    endloop
  endfacet
  facet normal  0.000000e+000  2.902848e-001  9.569403e-001
    outer loop
      vertex  0.000000e+000  6.955561e+000  9.961571e+000
      vertex  5.000000e+001  6.955561e+000  9.961571e+000
      vertex  0.000000e+000  7.330747e+000  9.847759e+000
    endloop
  endfacet
  facet normal  -0.000000e+000  2.902848e-001  9.569403e-001
    outer loop
      vertex  0.000000e+000  7.330747e+000  9.847759e+000
      vertex  5.000000e+001  6.955561e+000  9.961571e+000
      vertex  5.000000e+001  7.330747e+000  9.847759e+000
    endloop
  endfacet
  facet normal  0.000000e+000  4.713973e-001  8.819210e-001
    outer loop
      vertex  0.000000e+000  7.330747e+000  9.847759e+000
      vertex  5.000000e+001  7.330747e+000  9.847759e+000
      vertex  0.000000e+000  7.676520e+000  9.662939e+000
    endloop
  endfacet
  facet normal  -0.000000e+000  4.713973e-001  8.819210e-001
    outer loop
      vertex  0.000000e+000  7.676520e+000  9.662939e+000
      vertex  5.000000e+001  7.330747e+000  9.847759e+000
      vertex  5.000000e+001  7.676520e+000  9.662939e+000
    endloop
  endfacet
  facet normal  0.000000e+000  6.343932e-001  7.730105e-001
    outer loop
      vertex  0.000000e+000  7.676520e+000  9.662939e+000
      vertex  5.000000e+001  7.676520e+000  9.662939e+000
      vertex  0.000000e+000  7.979594e+000  9.414213e+000
    endloop
  endfacet
  facet normal  -0.000000e+000  6.343932e-001  7.730105e-001
    outer loop
      vertex  0.000000e+000  7.979594e+000  9.414213e+000
      vertex  5.000000e+001  7.676520e+000  9.662939e+000
      vertex  5.000000e+001  7.979594e+000  9.414213e+000
    endloop
  endfacet
  facet normal  0.000000e+000  7.730106e-001  6.343932e-001
    outer loop
      vertex  0.000000e+000  7.979594e+000  9.414213e+000
      vertex  5.000000e+001  7.979594e+000  9.414213e+000
      vertex  0.000000e+000  8.228319e+000  9.111140e+000
    endloop
  endfacet
  facet normal  -0.000000e+000  7.730106e-001  6.343932e-001
    outer loop
      vertex  0.000000e+000  8.228319e+000  9.111140e+000
      vertex  5.000000e+001  7.979594e+000  9.414213e+000
      vertex  5.000000e+001  8.228319e+000  9.111140e+000
    endloop
  endfacet
  facet normal  0.000000e+000  8.819210e-001  4.713973e-001
    outer loop
      vertex  0.000000e+000  8.228319e+000  9.111140e+000
      vertex  5.000000e+001  8.228319e+000  9.111140e+000
      vertex  0.000000e+000  8.413139e+000  8.765367e+000
    endloop
  endfacet
  facet normal  -0.000000e+000  8.819210e-001  4.713973e-001
    outer loop
      vertex  0.000000e+000  8.413139e+000  8.765367e+000
      vertex  5.000000e+001  8.228319e+000  9.111140e+000
      vertex  5.000000e+001  8.413139e+000  8.765367e+000
    endloop
  endfacet
  facet normal  0.000000e+000  9.569403e-001  2.902848e-001
    outer loop
      vertex  0.000000e+000  8.413139e+000  8.765367e+000
      vertex  5.000000e+001  8.413139e+000  8.765367e+000
      vertex  0.000000e+000  8.526951e+000  8.390181e+000
    endloop
  endfacet
  facet normal  -0.000000e+000  9.569403e-001  2.902848e-001
    outer loop
      vertex  0.000000e+000  8.526951e+000  8.390181e+000
      vertex  5.000000e+001  8.413139e+000  8.765367e+000
      vertex  5.000000e+001  8.526951e+000  8.390181e+000
    endloop
  endfacet
  facet normal  0.000000e+000  9.951848e-001  9.801670e-002
    outer loop
      vertex  0.000000e+000  8.526951e+000  8.390181e+000
      vertex  5.000000e+001  8.526951e+000  8.390181e+000
      vertex  0.000000e+000  8.565380e+000  8.000000e+000
    endloop
  endfacet
  facet normal  -0.000000e+000  9.951848e-001  9.801670e-002
    outer loop
      vertex  0.000000e+000  8.565380e+000  8.000000e+000
      vertex  5.000000e+001  8.526951e+000  8.390181e+000
      vertex  5.000000e+001  8.565380e+000  8.000000e+000
    endloop
  endfacet
  facet normal  0.000000e+000  0.000000e+000  1.000000e+000
    outer loop
      vertex  0.000000e+000 -1.434620e+000  1.000000e+001
      vertex  5.000000e+001 -1.434620e+000  1.000000e+001
      vertex  0.000000e+000 -6.839852e-001  1.000000e+001
    endloop
  endfacet
  facet normal  -0.000000e+000  0.000000e+000  1.000000e+000
    outer loop
      vertex  0.000000e+000 -6.839852e-001  1.000000e+001
      vertex  5.000000e+001 -1.434620e+000  1.000000e+001
      vertex  5.000000e+001 -6.839852e-001  1.000000e+001
    endloop
  endfacet
  facet normal  0.000000e+000 -1.000000e+000  0.000000e+000
    outer loop
      vertex  0.000000e+000 -3.434620e+000 -1.000000e+001
      vertex  5.000000e+001 -3.434620e+000 -1.000000e+001
      vertex  0.000000e+000 -3.434620e+000  8.000000e+000
    endloop
  endfacet
  facet normal  0.000000e+000 -1.000000e+000  0.000000e+000
    outer loop
      vertex  0.000000e+000 -3.434620e+000  8.000000e+000
      vertex  5.000000e+001 -3.434620e+000 -1.000000e+001
      vertex  5.000000e+001 -3.434620e+000  8.000000e+000
    endloop
  endfacet
  facet normal  0.000000e+000 -9.951848e-001  9.801670e-002
    outer loop
      vertex  0.000000e+000 -3.434620e+000  8.000000e+000
      vertex  5.000000e+001 -3.434620e+000  8.000000e+000
      vertex  0.000000e+000 -3.396191e+000  8.390181e+000
    endloop
  endfacet
  facet normal  0.000000e+000 -9.951848e-001  9.801670e-002
    outer loop
      vertex  0.000000e+000 -3.396191e+000  8.390181e+000
      vertex  5.000000e+001 -3.434620e+000  8.000000e+000
      vertex  5.000000e+001 -3.396191e+000  8.390181e+000
    endloop
  endfacet
  facet normal  0.000000e+000 -9.569403e-001  2.902848e-001
    outer loop
      vertex  0.000000e+000 -3.396191e+000  8.390181e+000
      vertex  5.000000e+001 -3.396191e+000  8.390181e+000
      vertex  0.000000e+000 -3.282379e+000  8.765367e+000
    endloop
  endfacet
  facet normal  0.000000e+000 -9.569403e-001  2.902848e-001
    outer loop
      vertex  0.000000e+000 -3.282379e+000  8.765367e+000
      vertex  5.000000e+001 -3.396191e+000  8.390181e+000
      vertex  5.000000e+001 -3.282379e+000  8.765367e+000
    endloop
  endfacet
  facet normal  0.000000e+000 -8.819212e-001  4.713968e-001
    outer loop
      vertex  0.000000e+000 -3.282379e+000  8.765367e+000
      vertex  5.000000e+001 -3.282379e+000  8.765367e+000
      vertex  0.000000e+000 -3.097559e+000  9.111140e+000
    endloop
  endfacet
  facet normal  0.000000e+000 -8.819212e-001  4.713968e-001
    outer loop
      vertex  0.000000e+000 -3.097559e+000  9.111140e+000
      vertex  5.000000e+001 -3.282379e+000  8.765367e+000
      vertex  5.000000e+001 -3.097559e+000  9.111140e+000
    endloop
  endfacet
  facet normal  0.000000e+000 -7.730103e-001  6.343935e-001
    outer loop
      vertex  0.000000e+000 -3.097559e+000  9.111140e+000
      vertex  5.000000e+001 -3.097559e+000  9.111140e+000
      vertex  0.000000e+000 -2.848834e+000  9.414213e+000
    endloop
  endfacet
  facet normal  0.000000e+000 -7.730103e-001  6.343935e-001
    outer loop
      vertex  0.000000e+000 -2.848834e+000  9.414213e+000
      vertex  5.000000e+001 -3.097559e+000  9.111140e+000
      vertex  5.000000e+001 -2.848834e+000  9.414213e+000
    endloop
  endfacet
  facet normal  0.000000e+000 -6.343936e-001  7.730103e-001
    outer loop
      vertex  0.000000e+000 -2.848834e+000  9.414213e+000
      vertex  5.000000e+001 -2.848834e+000  9.414213e+000
      vertex  0.000000e+000 -2.545760e+000  9.662939e+000
    endloop
  endfacet
  facet normal  0.000000e+000 -6.343936e-001  7.730103e-001
    outer loop
      vertex  0.000000e+000 -2.545760e+000  9.662939e+000
      vertex  5.000000e+001 -2.848834e+000  9.414213e+000
      vertex  5.000000e+001 -2.545760e+000  9.662939e+000
    endloop
  endfacet
  facet normal  0.000000e+000 -4.713975e-001  8.819208e-001
    outer loop
      vertex  0.000000e+000 -2.545760e+000  9.662939e+000
      vertex  5.000000e+001 -2.545760e+000  9.662939e+000
      vertex  0.000000e+000 -2.199987e+000  9.847759e+000
    endloop
  endfacet
  facet normal  0.000000e+000 -4.713975e-001  8.819208e-001
    outer loop
      vertex  0.000000e+000 -2.199987e+000  9.847759e+000
      vertex  5.000000e+001 -2.545760e+000  9.662939e+000
      vertex  5.000000e+001 -2.199987e+000  9.847759e+000
    endloop
  endfacet
  facet normal  0.000000e+000 -2.902846e-001  9.569404e-001
    outer loop
      vertex  0.000000e+000 -2.199987e+000  9.847759e+000
      vertex  5.000000e+001 -2.199987e+000  9.847759e+000
      vertex  0.000000e+000 -1.824801e+000  9.961571e+000
    endloop
  endfacet
  facet normal  0.000000e+000 -2.902846e-001  9.569404e-001
    outer loop
      vertex  0.000000e+000 -1.824801e+000  9.961571e+000
      vertex  5.000000e+001 -2.199987e+000  9.847759e+000
      vertex  5.000000e+001 -1.824801e+000  9.961571e+000
    endloop
  endfacet
  facet normal  0.000000e+000 -9.801670e-002  9.951848e-001
    outer loop
      vertex  0.000000e+000 -1.824801e+000  9.961571e+000
      vertex  5.000000e+001 -1.824801e+000  9.961571e+000
      vertex  0.000000e+000 -1.434620e+000  1.000000e+001
    endloop
  endfacet
  facet normal  0.000000e+000 -9.801670e-002  9.951848e-001
    outer loop
      vertex  0.000000e+000 -1.434620e+000  1.000000e+001
      vertex  5.000000e+001 -1.824801e+000  9.961571e+000
      vertex  5.000000e+001 -1.434620e+000  1.000000e+001
    endloop
  endfacet
  facet normal  0.000000e+000  9.848077e-001 -1.736482e-001
    outer loop
      vertex  0.000000e+000 -6.839852e-001  1.000000e+001
      vertex  5.000000e+001 -6.839852e-001  1.000000e+001
      vertex  0.000000e+000 -2.447255e+000  0.000000e+000
    endloop
  endfacet
  facet normal  0.000000e+000  9.848077e-001 -1.736482e-001
    outer loop
      vertex  0.000000e+000 -2.447255e+000  0.000000e+000
      vertex  5.000000e+001 -6.839852e-001  1.000000e+001
      vertex  5.000000e+001 -2.447255e+000  0.000000e+000
    endloop
  endfacet
  facet normal  0.000000e+000  0.000000e+000  1.000000e+000
    outer loop
      vertex  0.000000e+000 -2.447255e+000  0.000000e+000
      vertex  5.000000e+001 -2.447255e+000  0.000000e+000
      vertex  0.000000e+000  8.021102e-001  0.000000e+000
    endloop
  endfacet
  facet normal  -0.000000e+000  0.000000e+000  1.000000e+000
    outer loop
      vertex  0.000000e+000  8.021102e-001  0.000000e+000
      vertex  5.000000e+001 -2.447255e+000  0.000000e+000
      vertex  5.000000e+001  8.021102e-001  0.000000e+000
    endloop
  endfacet
  facet normal  0.000000e+000 -9.848077e-001  1.736482e-001
    outer loop
      vertex  0.000000e+000  8.021102e-001  0.000000e+000
      vertex  5.000000e+001  8.021102e-001  0.000000e+000
      vertex  0.000000e+000  2.565380e+000  1.000000e+001
    endloop
  endfacet
  facet normal  0.000000e+000 -9.848077e-001  1.736482e-001
    outer loop
      vertex  0.000000e+000  2.565380e+000  1.000000e+001
      vertex  5.000000e+001  8.021102e-001  0.000000e+000
      vertex  5.000000e+001  2.565380e+000  1.000000e+001
    endloop
  endfacet
  facet normal  -0.000000e+000  0.000000e+000 -1.000000e+000
    outer loop
      vertex  0.000000e+000  8.565380e+000 -1.000000e+001
      vertex  5.000000e+001  8.565380e+000 -1.000000e+001
      vertex  0.000000e+000 -3.434620e+000 -1.000000e+001
    endloop
  endfacet
  facet normal  0.000000e+000  0.000000e+000 -1.000000e+000
    outer loop
      vertex  0.000000e+000 -3.434620e+000 -1.000000e+001
      vertex  5.000000e+001  8.565380e+000 -1.000000e+001
      vertex  5.000000e+001 -3.434620e+000 -1.000000e+001
    endloop
  endfacet
endsolid CATIA STL
