solid CATIA STL
  facet normal  -0.000000e+000  0.000000e+000 -1.000000e+000
    outer loop
      vertex -9.628714e+000  1.967200e+001  0.000000e+000
      vertex -8.628714e+000 -4.327995e+000  0.000000e+000
      vertex -9.628714e+000 -5.327995e+000  0.000000e+000
    endloop
  endfacet
  facet normal  0.000000e+000  0.000000e+000 -1.000000e+000
    outer loop
      vertex -9.628714e+000 -5.327995e+000  0.000000e+000
      vertex -8.628714e+000 -4.327995e+000  0.000000e+000
      vertex  1.437129e+001 -4.327995e+000  0.000000e+000
    endloop
  endfacet
  facet normal  0.000000e+000  -0.000000e+000 -1.000000e+000
    outer loop
      vertex -9.628714e+000 -5.327995e+000  0.000000e+000
      vertex  1.437129e+001 -4.327995e+000  0.000000e+000
      vertex  1.537129e+001 -5.327995e+000  0.000000e+000
    endloop
  endfacet
  facet normal  0.000000e+000  0.000000e+000 -1.000000e+000
    outer loop
      vertex -8.628714e+000 -4.327995e+000  0.000000e+000
      vertex -9.628714e+000  1.967200e+001  0.000000e+000
      vertex -8.628714e+000  1.867200e+001  0.000000e+000
    endloop
  endfacet
  facet normal  0.000000e+000  0.000000e+000 -1.000000e+000
    outer loop
      vertex -8.628714e+000  1.867200e+001  0.000000e+000
      vertex -9.628714e+000  1.967200e+001  0.000000e+000
      vertex  1.537129e+001  1.967200e+001  0.000000e+000
    endloop
  endfacet
  facet normal  0.000000e+000  0.000000e+000 -1.000000e+000
    outer loop
      vertex -8.628714e+000  1.867200e+001  0.000000e+000
      vertex  1.537129e+001  1.967200e+001  0.000000e+000
      vertex  1.437129e+001  1.867200e+001  0.000000e+000
    endloop
  endfacet
  facet normal  0.000000e+000  0.000000e+000 -1.000000e+000
    outer loop
      vertex  1.437129e+001  1.867200e+001  0.000000e+000
      vertex  1.537129e+001  1.967200e+001  0.000000e+000
      vertex  1.537129e+001 -5.327995e+000  0.000000e+000
    endloop
  endfacet
  facet normal  0.000000e+000  0.000000e+000 -1.000000e+000
    outer loop
      vertex  1.437129e+001  1.867200e+001  0.000000e+000
      vertex  1.537129e+001 -5.327995e+000  0.000000e+000
      vertex  1.437129e+001 -4.327995e+000  0.000000e+000
    endloop
  endfacet
  facet normal  0.000000e+000  0.000000e+000  1.000000e+000
    outer loop
      vertex -9.628714e+000 -5.327995e+000  1.160000e+001
      vertex  1.537129e+001 -5.327995e+000  1.160000e+001
      vertex -9.628714e+000  1.967200e+001  1.160000e+001
    endloop
  endfacet
  facet normal  -0.000000e+000  0.000000e+000  1.000000e+000
    outer loop
      vertex -9.628714e+000  1.967200e+001  1.160000e+001
      vertex  1.537129e+001 -5.327995e+000  1.160000e+001
      vertex  1.537129e+001  1.967200e+001  1.160000e+001
    endloop
  endfacet
  facet normal -1.000000e+000  0.000000e+000  0.000000e+000
    outer loop
      vertex -9.628714e+000  1.967200e+001  1.160000e+001
      vertex -9.628714e+000  1.967200e+001  0.000000e+000
      vertex -9.628714e+000 -5.327995e+000  1.160000e+001
    endloop
  endfacet
  facet normal -1.000000e+000  0.000000e+000  0.000000e+000
    outer loop
      vertex -9.628714e+000 -5.327995e+000  1.160000e+001
      vertex -9.628714e+000  1.967200e+001  0.000000e+000
      vertex -9.628714e+000 -5.327995e+000  0.000000e+000
    endloop
  endfacet
  facet normal  0.000000e+000  1.000000e+000  0.000000e+000
    outer loop
      vertex -9.628714e+000  1.967200e+001  1.160000e+001
      vertex  1.537129e+001  1.967200e+001  1.160000e+001
      vertex -9.628714e+000  1.967200e+001  0.000000e+000
    endloop
  endfacet
  facet normal  0.000000e+000  1.000000e+000  0.000000e+000
    outer loop
      vertex -9.628714e+000  1.967200e+001  0.000000e+000
      vertex  1.537129e+001  1.967200e+001  1.160000e+001
      vertex  1.537129e+001  1.967200e+001  0.000000e+000
    endloop
  endfacet
  facet normal  0.000000e+000 -1.000000e+000  0.000000e+000
    outer loop
      vertex  1.537129e+001 -5.327995e+000  1.160000e+001
      vertex -9.628714e+000 -5.327995e+000  1.160000e+001
      vertex  1.537129e+001 -5.327995e+000  0.000000e+000
    endloop
  endfacet
  facet normal  0.000000e+000 -1.000000e+000  0.000000e+000
    outer loop
      vertex  1.537129e+001 -5.327995e+000  0.000000e+000
      vertex -9.628714e+000 -5.327995e+000  1.160000e+001
      vertex -9.628714e+000 -5.327995e+000  0.000000e+000
    endloop
  endfacet
  facet normal  1.000000e+000  0.000000e+000  0.000000e+000
    outer loop
      vertex  1.537129e+001 -5.327995e+000  1.160000e+001
      vertex  1.537129e+001 -5.327995e+000  0.000000e+000
      vertex  1.537129e+001  1.967200e+001  1.160000e+001
    endloop
  endfacet
  facet normal  1.000000e+000  0.000000e+000  0.000000e+000
    outer loop
      vertex  1.537129e+001  1.967200e+001  1.160000e+001
      vertex  1.537129e+001 -5.327995e+000  0.000000e+000
      vertex  1.537129e+001  1.967200e+001  0.000000e+000
    endloop
  endfacet
  facet normal  0.000000e+000  0.000000e+000 -1.000000e+000
    outer loop
      vertex -8.628714e+000 -4.327995e+000  1.100000e+001
      vertex -8.628714e+000  1.867200e+001  1.100000e+001
      vertex  1.437129e+001 -4.327995e+000  1.100000e+001
    endloop
  endfacet
  facet normal  0.000000e+000  0.000000e+000 -1.000000e+000
    outer loop
      vertex  1.437129e+001 -4.327995e+000  1.100000e+001
      vertex -8.628714e+000  1.867200e+001  1.100000e+001
      vertex  1.437129e+001  1.867200e+001  1.100000e+001
    endloop
  endfacet
  facet normal  1.000000e+000  -0.000000e+000  0.000000e+000
    outer loop
      vertex -8.628714e+000  1.867200e+001  1.100000e+001
      vertex -8.628714e+000 -4.327995e+000  1.100000e+001
      vertex -8.628714e+000  1.867200e+001  0.000000e+000
    endloop
  endfacet
  facet normal  1.000000e+000  0.000000e+000  0.000000e+000
    outer loop
      vertex -8.628714e+000  1.867200e+001  0.000000e+000
      vertex -8.628714e+000 -4.327995e+000  1.100000e+001
      vertex -8.628714e+000 -4.327995e+000  0.000000e+000
    endloop
  endfacet
  facet normal  0.000000e+000  1.000000e+000  -0.000000e+000
    outer loop
      vertex  1.437129e+001 -4.327995e+000  1.100000e+001
      vertex  1.437129e+001 -4.327995e+000  0.000000e+000
      vertex -8.628714e+000 -4.327995e+000  1.100000e+001
    endloop
  endfacet
  facet normal  0.000000e+000  1.000000e+000  0.000000e+000
    outer loop
      vertex -8.628714e+000 -4.327995e+000  1.100000e+001
      vertex  1.437129e+001 -4.327995e+000  0.000000e+000
      vertex -8.628714e+000 -4.327995e+000  0.000000e+000
    endloop
  endfacet
  facet normal -1.000000e+000  -0.000000e+000  0.000000e+000
    outer loop
      vertex  1.437129e+001 -4.327995e+000  1.100000e+001
      vertex  1.437129e+001  1.867200e+001  1.100000e+001
      vertex  1.437129e+001 -4.327995e+000  0.000000e+000
    endloop
  endfacet
  facet normal -1.000000e+000  0.000000e+000  0.000000e+000
    outer loop
      vertex  1.437129e+001 -4.327995e+000  0.000000e+000
      vertex  1.437129e+001  1.867200e+001  1.100000e+001
      vertex  1.437129e+001  1.867200e+001  0.000000e+000
    endloop
  endfacet
  facet normal  0.000000e+000 -1.000000e+000  0.000000e+000
    outer loop
      vertex -8.628714e+000  1.867200e+001  1.100000e+001
      vertex -8.628714e+000  1.867200e+001  0.000000e+000
      vertex  1.437129e+001  1.867200e+001  1.100000e+001
    endloop
  endfacet
  facet normal  0.000000e+000 -1.000000e+000  -0.000000e+000
    outer loop
      vertex  1.437129e+001  1.867200e+001  1.100000e+001
      vertex -8.628714e+000  1.867200e+001  0.000000e+000
      vertex  1.437129e+001  1.867200e+001  0.000000e+000
    endloop
  endfacet
endsolid CATIA STL
