  0
SECTION
  2
HEADER
  9
$ACADVER
  1
AC1024
  9
$ACADMAINTVER
 70
     6
  9
$DWGCODEPAGE
  3
UNDEFINED
  9
$INSBASE
 10
0.0
 20
0.0
 30
0.0
  9
$EXTMIN
 10
1.000000000000000E+20
 20
1.000000000000000E+20
 30
1.000000000000000E+20
  9
$EXTMAX
 10
-1.000000000000000E+20
 20
-1.000000000000000E+20
 30
-1.000000000000000E+20
  9
$LIMMIN
 10
0.0
 20
0.0
  9
$LIMMAX
 10
12.0
 20
9.0
  9
$ORTHOMODE
 70
     0
  9
$REGENMODE
 70
     1
  9
$FILLMODE
 70
     1
  9
$QTEXTMODE
 70
     0
  9
$MIRRTEXT
 70
     1
  9
$LTSCALE
 40
1.0
  9
$ATTMODE
 70
     1
  9
$TEXTSIZE
 40
0.2
  9
$TRACEWID
 40
0.05
  9
$TEXTSTYLE
  7
Standard
  9
$CLAYER
  8
0
  9
$CELTYPE
  6
ByLayer
  9
$CECOLOR
 62
   256
  9
$CELTSCALE
 40
1.0
  9
$DISPSILH
 70
     0
  9
$DIMSCALE
 40
1.0
  9
$DIMASZ
 40
0.18
  9
$DIMEXO
 40
0.0625
  9
$DIMDLI
 40
0.38
  9
$DIMRND
 40
0.0
  9
$DIMDLE
 40
0.0
  9
$DIMEXE
 40
0.18
  9
$DIMTP
 40
0.0
  9
$DIMTM
 40
0.0
  9
$DIMTXT
 40
0.18
  9
$DIMCEN
 40
0.09
  9
$DIMTSZ
 40
0.0
  9
$DIMTOL
 70
     0
  9
$DIMLIM
 70
     0
  9
$DIMTIH
 70
     1
  9
$DIMTOH
 70
     1
  9
$DIMSE1
 70
     0
  9
$DIMSE2
 70
     0
  9
$DIMTAD
 70
     0
  9
$DIMZIN
 70
     0
  9
$DIMBLK
  1

  9
$DIMASO
 70
     1
  9
$DIMSHO
 70
     1
  9
$DIMPOST
  1

  9
$DIMAPOST
  1

  9
$DIMALT
 70
     0
  9
$DIMALTD
 70
     2
  9
$DIMALTF
 40
25.4
  9
$DIMLFAC
 40
1.0
  9
$DIMTOFL
 70
     0
  9
$DIMTVP
 40
0.0
  9
$DIMTIX
 70
     0
  9
$DIMSOXD
 70
     0
  9
$DIMSAH
 70
     0
  9
$DIMBLK1
  1

  9
$DIMBLK2
  1

  9
$DIMSTYLE
  2
Standard
  9
$DIMCLRD
 70
     0
  9
$DIMCLRE
 70
     0
  9
$DIMCLRT
 70
     0
  9
$DIMTFAC
 40
1.0
  9
$DIMGAP
 40
0.09
  9
$DIMJUST
 70
     0
  9
$DIMSD1
 70
     0
  9
$DIMSD2
 70
     0
  9
$DIMTOLJ
 70
     1
  9
$DIMTZIN
 70
     0
  9
$DIMALTZ
 70
     0
  9
$DIMALTTZ
 70
     0
  9
$DIMUPT
 70
     0
  9
$DIMDEC
 70
     4
  9
$DIMTDEC
 70
     4
  9
$DIMALTU
 70
     2
  9
$DIMALTTD
 70
     2
  9
$DIMTXSTY
  7
Standard
  9
$DIMAUNIT
 70
     0
  9
$DIMADEC
 70
     0
  9
$DIMALTRND
 40
0.0
  9
$DIMAZIN
 70
     0
  9
$DIMDSEP
 70
    46
  9
$DIMATFIT
 70
     3
  9
$DIMFRAC
 70
     0
  9
$DIMLDRBLK
  1

  9
$DIMLUNIT
 70
     2
  9
$DIMLWD
 70
    -2
  9
$DIMLWE
 70
    -2
  9
$DIMTMOVE
 70
     0
  9
$DIMFXL
 40
1.0
  9
$DIMFXLON
 70
     0
  9
$DIMJOGANG
 40
0.7853981633974483
  9
$DIMTFILL
 70
     0
  9
$DIMTFILLCLR
 70
     0
  9
$DIMARCSYM
 70
     0
  9
$DIMLTYPE
  6

  9
$DIMLTEX1
  6

  9
$DIMLTEX2
  6

  9
$DIMTXTDIRECTION
 70
     0
  9
$LUNITS
 70
     2
  9
$LUPREC
 70
     4
  9
$SKETCHINC
 40
0.1
  9
$FILLETRAD
 40
0.5
  9
$AUNITS
 70
     0
  9
$AUPREC
 70
     0
  9
$MENU
  1
.
  9
$ELEVATION
 40
0.0
  9
$PELEVATION
 40
0.0
  9
$THICKNESS
 40
0.0
  9
$LIMCHECK
 70
     0
  9
$CHAMFERA
 40
0.5
  9
$CHAMFERB
 40
0.5
  9
$CHAMFERC
 40
1.0
  9
$CHAMFERD
 40
0.0
  9
$SKPOLY
 70
     0
  9
$TDCREATE
 40
2458467.690682859
  9
$TDUCREATE
 40
2458467.69068287
  9
$TDUPDATE
 40
2458467.690694433
  9
$TDUUPDATE
 40
2458467.690694444
  9
$TDINDWG
 40
0.0000000116
  9
$TDUSRTIMER
 40
0.0000000116
  9
$USRTIMER
 70
     1
  9
$ANGBASE
 50
0.0
  9
$ANGDIR
 70
     0
  9
$PDMODE
 70
     0
  9
$PDSIZE
 40
0.0
  9
$PLINEWID
 40
0.0
  9
$SPLFRAME
 70
     0
  9
$SPLINETYPE
 70
     6
  9
$SPLINESEGS
 70
     8
  9
$HANDSEED
  5
202
  9
$SURFTAB1
 70
     6
  9
$SURFTAB2
 70
     6
  9
$SURFTYPE
 70
     6
  9
$SURFU
 70
     6
  9
$SURFV
 70
     6
  9
$UCSBASE
  2

  9
$UCSNAME
  2

  9
$UCSORG
 10
0.0
 20
0.0
 30
0.0
  9
$UCSXDIR
 10
1.0
 20
0.0
 30
0.0
  9
$UCSYDIR
 10
0.0
 20
1.0
 30
0.0
  9
$UCSORTHOREF
  2

  9
$UCSORTHOVIEW
 70
     0
  9
$UCSORGTOP
 10
0.0
 20
0.0
 30
0.0
  9
$UCSORGBOTTOM
 10
0.0
 20
0.0
 30
0.0
  9
$UCSORGLEFT
 10
0.0
 20
0.0
 30
0.0
  9
$UCSORGRIGHT
 10
0.0
 20
0.0
 30
0.0
  9
$UCSORGFRONT
 10
0.0
 20
0.0
 30
0.0
  9
$UCSORGBACK
 10
0.0
 20
0.0
 30
0.0
  9
$PUCSBASE
  2

  9
$PUCSNAME
  2

  9
$PUCSORG
 10
0.0
 20
0.0
 30
0.0
  9
$PUCSXDIR
 10
1.0
 20
0.0
 30
0.0
  9
$PUCSYDIR
 10
0.0
 20
1.0
 30
0.0
  9
$PUCSORTHOREF
  2

  9
$PUCSORTHOVIEW
 70
     0
  9
$PUCSORGTOP
 10
0.0
 20
0.0
 30
0.0
  9
$PUCSORGBOTTOM
 10
0.0
 20
0.0
 30
0.0
  9
$PUCSORGLEFT
 10
0.0
 20
0.0
 30
0.0
  9
$PUCSORGRIGHT
 10
0.0
 20
0.0
 30
0.0
  9
$PUCSORGFRONT
 10
0.0
 20
0.0
 30
0.0
  9
$PUCSORGBACK
 10
0.0
 20
0.0
 30
0.0
  9
$USERI1
 70
     0
  9
$USERI2
 70
     0
  9
$USERI3
 70
     0
  9
$USERI4
 70
     0
  9
$USERI5
 70
     0
  9
$USERR1
 40
0.0
  9
$USERR2
 40
0.0
  9
$USERR3
 40
0.0
  9
$USERR4
 40
0.0
  9
$USERR5
 40
0.0
  9
$WORLDVIEW
 70
     1
  9
$SHADEDGE
 70
     3
  9
$SHADEDIF
 70
    70
  9
$TILEMODE
 70
     1
  9
$MAXACTVP
 70
    64
  9
$PINSBASE
 10
0.0
 20
0.0
 30
0.0
  9
$PLIMCHECK
 70
     0
  9
$PEXTMIN
 10
1.000000000000000E+20
 20
1.000000000000000E+20
 30
1.000000000000000E+20
  9
$PEXTMAX
 10
-1.000000000000000E+20
 20
-1.000000000000000E+20
 30
-1.000000000000000E+20
  9
$PLIMMIN
 10
0.0
 20
0.0
  9
$PLIMMAX
 10
12.0
 20
9.0
  9
$UNITMODE
 70
     0
  9
$VISRETAIN
 70
     1
  9
$PLINEGEN
 70
     0
  9
$PSLTSCALE
 70
     1
  9
$TREEDEPTH
 70
  3020
  9
$CMLSTYLE
  2
Standard
  9
$CMLJUST
 70
     0
  9
$CMLSCALE
 40
1.0
  9
$PROXYGRAPHICS
 70
     1
  9
$MEASUREMENT
 70
     0
  9
$CELWEIGHT
370
    -1
  9
$ENDCAPS
280
     0
  9
$JOINSTYLE
280
     0
  9
$LWDISPLAY
290
     1
  9
$INSUNITS
 70
     1
  9
$HYPERLINKBASE
  1

  9
$STYLESHEET
  1

  9
$XEDIT
290
     1
  9
$CEPSNTYPE
380
     0
  9
$PSTYLEMODE
290
     1
  9
$FINGERPRINTGUID
  2
{B6117BAC-CE2A-3208-50DA-1E125AAC2BFA}
  9
$VERSIONGUID
  2
{FAEB1C32-E019-11D5-929B-00C0DF256EC4}
  9
$EXTNAMES
290
     1
  9
$PSVPSCALE
 40
0.0
  9
$OLESTARTUP
290
     0
  9
$SORTENTS
280
   127
  9
$INDEXCTL
280
     0
  9
$HIDETEXT
280
     1
  9
$XCLIPFRAME
280
     2
  9
$HALOGAP
280
     0
  9
$OBSCOLOR
 70
   257
  9
$OBSLTYPE
280
     0
  9
$INTERSECTIONDISPLAY
280
     0
  9
$INTERSECTIONCOLOR
 70
   257
  9
$DIMASSOC
280
     2
  9
$PROJECTNAME
  1

  9
$CAMERADISPLAY
290
     0
  9
$LENSLENGTH
 40
50.0
  9
$CAMERAHEIGHT
 40
0.0
  9
$STEPSPERSEC
 40
2.0
  9
$STEPSIZE
 40
6.0
  9
$3DDWFPREC
 40
2.0
  9
$PSOLWIDTH
 40
0.25
  9
$PSOLHEIGHT
 40
4.0
  9
$LOFTANG1
 40
1.570796326794897
  9
$LOFTANG2
 40
1.570796326794897
  9
$LOFTMAG1
 40
0.0
  9
$LOFTMAG2
 40
0.0
  9
$LOFTPARAM
 70
     7
  9
$LOFTNORMALS
280
     1
  9
$LATITUDE
 40
37.795
  9
$LONGITUDE
 40
-122.394
  9
$NORTHDIRECTION
 40
0.0
  9
$TIMEZONE
 70
 -8000
  9
$LIGHTGLYPHDISPLAY
280
     1
  9
$TILEMODELIGHTSYNCH
280
     1
  9
$CMATERIAL
347
3C
  9
$SOLIDHIST
280
     1
  9
$SHOWHIST
280
     1
  9
$DWFFRAME
280
     2
  9
$DGNFRAME
280
     2
  9
$REALWORLDSCALE
290
     1
  9
$INTERFERECOLOR
 62
   256
  9
$CSHADOW
280
     0
  9
$SHADOWPLANELOCATION
 40
0.0
  0
ENDSEC
  0
SECTION
  2
CLASSES
  0
CLASS
  1
ACDBDICTIONARYWDFLT
  2
AcDbDictionaryWithDefault
  3
ObjectDBX Classes
 90
        0
 91
        4
280
     0
281
     0
  0
CLASS
  1
VISUALSTYLE
  2
AcDbVisualStyle
  3
ObjectDBX Classes
 90
     4095
 91
        4
280
     0
281
     0
  0
CLASS
  1
MATERIAL
  2
AcDbMaterial
  3
ObjectDBX Classes
 90
     1153
 91
        4
280
     0
281
     0
  0
CLASS
  1
SUN
  2
AcDbSun
  3
SCENEOE
 90
     1024
 91
        4
280
     0
281
     0
  0
CLASS
  1
IMAGEDEF
  2
AcDbRasterImageDef
  3
ISM
 90
        0
 91
        4
280
     0
281
     0
  0
CLASS
  1
RASTERVARIABLES
  2
AcDbRasterVariables
  3
ISM
 90
        0
 91
        4
280
     0
281
     0
  0
CLASS
  1
IMAGE
  2
AcDbRasterImage
  3
ISM
 90
      127
 91
        5
280
     0
281
     1
  0
CLASS
  1
IMAGEDEF_REACTOR
  2
AcDbRasterImageDefReactor
  3
ISM
 90
        1
 91
        4
280
     0
281
     0
  0
ENDSEC
  0
SECTION
  2
TABLES
  0
TABLE
  2
VPORT
  5
8
330
0
100
AcDbSymbolTable
 70
     1
  0
VPORT
  5
29
330
8
100
AcDbSymbolTableRecord
100
AcDbViewportTableRecord
  2
*Active
 70
     0
 10
0.0
 20
0.0
 11
1.0
 21
1.0
 12
0.0
 22
0.0
 13
0.0
 23
0.0
 14
0.5
 24
0.5
 15
0.5
 25
0.5
 16
0.0
 26
0.0
 36
1.0
 17
148.4999999628701
 27
-104.9999999737534
 37
0.0
 40
209.9999999475068
 41
1.414285714285622
 42
50.0
 43
0.0
 44
0.0
 50
0.0
 51
0.0
 71
     0
 72
   100
 73
     1
 74
     3
 75
     0
 76
     0
 77
     0
 78
     0
281
     0
 65
     1
110
0.0
120
0.0
130
0.0
111
1.0
121
0.0
131
0.0
112
0.0
122
1.0
132
0.0
 79
     0
146
0.0
 60
     3
 61
     5
292
     1
282
     1
141
0.0
142
0.0
 63
   250
361
3F
  0
ENDTAB
  0
TABLE
  2
LTYPE
  5
5
330
0
100
AcDbSymbolTable
 70
     1
  0
LTYPE
  5
14
330
5
100
AcDbSymbolTableRecord
100
AcDbLinetypeTableRecord
  2
ByBlock
 70
     0
  3

 72
    65
 73
     0
 40
0.0
  0
LTYPE
  5
15
330
5
100
AcDbSymbolTableRecord
100
AcDbLinetypeTableRecord
  2
ByLayer
 70
     0
  3

 72
    65
 73
     0
 40
0.0
  0
LTYPE
  5
16
330
5
100
AcDbSymbolTableRecord
100
AcDbLinetypeTableRecord
  2
Continuous
 70
     0
  3
Solid line
 72
    65
 73
     0
 40
0.0
  0
ENDTAB
  0
TABLE
  2
LAYER
  5
2
330
0
100
AcDbSymbolTable
 70
     3
  0
LAYER
  5
10
330
2
100
AcDbSymbolTableRecord
100
AcDbLayerTableRecord
  2
0
 70
     0
 62
     7
  6
Continuous
370
    -3
390
F
347
3E
  0
LAYER
  5
40
330
2
100
AcDbSymbolTableRecord
100
AcDbLayerTableRecord
  2
Layer 1
 70
     1
 62
     7
  6
Continuous
370
    -3
390
F
347
3E
  0
LAYER
  5
51
330
2
100
AcDbSymbolTableRecord
100
AcDbLayerTableRecord
  2
Layer 2
 70
     0
 62
     7
  6
Continuous
370
    -3
390
F
347
3E
  0
ENDTAB
  0
TABLE
  2
STYLE
  5
3
330
0
100
AcDbSymbolTable
 70
     1
  0
STYLE
  5
11
330
3
100
AcDbSymbolTableRecord
100
AcDbTextStyleTableRecord
  2
Standard
 70
     0
 40
0.0
 41
1.0
 50
0.0
 71
     0
 42
0.2
  3
txt
  4

  0
ENDTAB
  0
TABLE
  2
VIEW
  5
6
330
0
100
AcDbSymbolTable
 70
     0
  0
ENDTAB
  0
TABLE
  2
UCS
  5
7
330
0
100
AcDbSymbolTable
 70
     0
  0
ENDTAB
  0
TABLE
  2
APPID
  5
9
330
0
100
AcDbSymbolTable
 70
     1
  0
APPID
  5
12
330
9
100
AcDbSymbolTableRecord
100
AcDbRegAppTableRecord
  2
ACAD
 70
     0
  0
ENDTAB
  0
TABLE
  2
DIMSTYLE
  5
A
330
0
100
AcDbSymbolTable
 70
     1
100
AcDbDimStyleTable
  0
DIMSTYLE
105
27
330
A
100
AcDbSymbolTableRecord
100
AcDbDimStyleTableRecord
  2
Standard
 70
     0
178
     0
340
11
  0
ENDTAB
  0
TABLE
  2
BLOCK_RECORD
  5
1
330
0
100
AcDbSymbolTable
 70
     2
  0
BLOCK_RECORD
  5
1F
330
1
100
AcDbSymbolTableRecord
100
AcDbBlockTableRecord
  2
*Model_Space
340
22
 70
     0
280
     1
281
     0
  0
BLOCK_RECORD
  5
1B
330
1
100
AcDbSymbolTableRecord
100
AcDbBlockTableRecord
  2
*Paper_Space
340
1E
 70
     0
280
     1
281
     0
  0
BLOCK_RECORD
  5
23
330
1
100
AcDbSymbolTableRecord
100
AcDbBlockTableRecord
  2
*Paper_Space0
340
26
 70
     0
280
     1
281
     0
  0
BLOCK_RECORD
  5
41
330
1
100
AcDbSymbolTableRecord
100
AcDbBlockTableRecord
  2
block 2
340
0
102
{BLKREFS
331
42
102
}
 70
     0
280
     1
281
     0
  0
ENDTAB
  0
ENDSEC
  0
SECTION
  2
BLOCKS
  0
BLOCK
  5
20
330
1F
100
AcDbEntity
  8
0
100
AcDbBlockBegin
  2
*Model_Space
 70
     0
 10
0.0
 20
0.0
 30
0.0
  3
*Model_Space
  1

  0
ENDBLK
  5
21
330
1F
100
AcDbEntity
  8
0
100
AcDbBlockEnd
  0
BLOCK
  5
1C
330
1B
100
AcDbEntity
 67
     1
  8
0
100
AcDbBlockBegin
  2
*Paper_Space
 70
     0
 10
0.0
 20
0.0
 30
0.0
  3
*Paper_Space
  1

  0
ENDBLK
  5
1D
330
1B
100
AcDbEntity
 67
     1
  8
0
100
AcDbBlockEnd
  0
BLOCK
  5
24
330
23
100
AcDbEntity
  8
0
100
AcDbBlockBegin
  2
*Paper_Space0
 70
     0
 10
0.0
 20
0.0
 30
0.0
  3
*Paper_Space0
  1

  0
ENDBLK
  5
25
330
23
100
AcDbEntity
  8
0
100
AcDbBlockEnd
  0
BLOCK
  5
43
330
41
100
AcDbEntity
  8
0
100
AcDbBlockBegin
  2
block 2
 70
     0
 10
0.0
 20
0.0
 30
0.0
  3
block 2
  1

  0
IMAGE
  5
48
330
41
100
AcDbEntity
  8
Layer 1
160
                 8
310
0800000000000000
100
AcDbRasterImage
 90
        0
 10
-5.570961700730423
 20
-213.0828656686358
 30
0.0
 11
0.51058723391489
 21
0.0
 31
0.0
 12
0.0
 22
0.51058723391489
 32
0.0
 13
628.0
 23
472.0
340
46
 70
     3
280
     0
281
    50
282
    50
283
     0
360
49
 71
     1
 91
        2
 14
-0.5
 24
-0.5
 14
627.5
 24
471.5
290
     0
  0
POLYLINE
  5
4A
330
41
100
AcDbEntity
  8
Layer 1
 62
    12
420
 14877971
370
    35
100
AcDb2dPolyline
 66
     1
 10
0.0
 20
0.0
 30
0.0
  0
VERTEX
  5
4B
330
4A
100
AcDbEntity
  8
Layer 1
 62
    12
420
 14877971
370
    35
100
AcDbVertex
100
AcDb2dVertex
 10
0.0
 20
-26.02172716621202
 30
0.0
  0
VERTEX
  5
4C
330
4A
100
AcDbEntity
  8
Layer 1
 62
    12
420
 14877971
370
    35
100
AcDbVertex
100
AcDb2dVertex
 10
296.9999999257402
 20
-26.02172716621202
 30
0.0
  0
VERTEX
  5
4D
330
4A
100
AcDbEntity
  8
Layer 1
 62
    12
420
 14877971
370
    35
100
AcDbVertex
100
AcDb2dVertex
 10
296.9999999257402
 20
-181.7255569145157
 30
0.0
  0
VERTEX
  5
4E
330
4A
100
AcDbEntity
  8
Layer 1
 62
    12
420
 14877971
370
    35
100
AcDbVertex
100
AcDb2dVertex
 10
0.0
 20
-181.7255569145157
 30
0.0
  0
VERTEX
  5
4F
330
4A
100
AcDbEntity
  8
Layer 1
 62
    12
420
 14877971
370
    35
100
AcDbVertex
100
AcDb2dVertex
 10
0.0
 20
-26.02172716621202
 30
0.0
  0
SEQEND
  5
50
330
4A
100
AcDbEntity
  8
Layer 1
 62
    12
420
 14877971
370
    35
  0
ENDBLK
  5
44
330
41
100
AcDbEntity
  8
0
100
AcDbBlockEnd
  0
ENDSEC
  0
SECTION
  2
ENTITIES
  0
INSERT
  5
42
330
1F
100
AcDbEntity
  8
Layer 1
100
AcDbBlockReference
  2
block 2
 10
0.0
 20
0.0
 30
0.0
  0
POLYLINE
  5
52
330
1F
100
AcDbEntity
  8
Layer 2
 62
    12
420
 14877971
370
    35
100
AcDb2dPolyline
 66
     1
 10
0.0
 20
0.0
 30
0.0
  0
VERTEX
  5
53
330
52
100
AcDbEntity
  8
Layer 2
 62
    12
420
 14877971
370
    35
100
AcDbVertex
100
AcDb2dVertex
 10
74.5478822695914
 20
-42.72802529184816
 30
0.0
  0
VERTEX
  5
54
330
52
100
AcDbEntity
  8
Layer 2
 62
    12
420
 14877971
370
    35
100
AcDbVertex
100
AcDb2dVertex
 10
65.99040152365605
 20
-55.1276402502443
 30
0.0
  0
VERTEX
  5
55
330
52
100
AcDbEntity
  8
Layer 2
 62
    12
420
 14877971
370
    35
100
AcDbVertex
100
AcDb2dVertex
 10
72.62681516336102
 20
-72.41724420631814
 30
0.0
  0
VERTEX
  5
56
330
52
100
AcDbEntity
  8
Layer 2
 62
    12
420
 14877971
370
    35
100
AcDbVertex
100
AcDb2dVertex
 10
83.62929040813522
 20
-64.03440592458529
 30
0.0
  0
VERTEX
  5
57
330
52
100
AcDbEntity
  8
Layer 2
 62
    12
420
 14877971
370
    35
100
AcDbVertex
100
AcDb2dVertex
 10
74.80984596589563
 20
-50.93622110937787
 30
0.0
  0
VERTEX
  5
58
330
52
100
AcDbEntity
  8
Layer 2
 62
    12
420
 14877971
370
    35
100
AcDbVertex
100
AcDb2dVertex
 10
88.51927940581261
 20
-58.27120460589411
 30
0.0
  0
VERTEX
  5
59
330
52
100
AcDbEntity
  8
Layer 2
 62
    12
420
 14877971
370
    35
100
AcDbVertex
100
AcDb2dVertex
 10
83.62929040813522
 20
-64.03440592458529
 30
0.0
  0
VERTEX
  5
5A
330
52
100
AcDbEntity
  8
Layer 2
 62
    12
420
 14877971
370
    35
100
AcDbVertex
100
AcDb2dVertex
 10
94.28248072450378
 20
-77.13259073979303
 30
0.0
  0
VERTEX
  5
5B
330
52
100
AcDbEntity
  8
Layer 2
 62
    12
420
 14877971
370
    35
100
AcDbVertex
100
AcDb2dVertex
 10
72.62681516336102
 20
-72.41724420631814
 30
0.0
  0
VERTEX
  5
5C
330
52
100
AcDbEntity
  8
Layer 2
 62
    12
420
 14877971
370
    35
100
AcDbVertex
100
AcDb2dVertex
 10
48.35151263917688
 20
-69.79760724327646
 30
0.0
  0
VERTEX
  5
5D
330
52
100
AcDbEntity
  8
Layer 2
 62
    12
420
 14877971
370
    35
100
AcDbVertex
100
AcDb2dVertex
 10
65.99040152365605
 20
-55.1276402502443
 30
0.0
  0
VERTEX
  5
5E
330
52
100
AcDbEntity
  8
Layer 2
 62
    12
420
 14877971
370
    35
100
AcDbVertex
100
AcDb2dVertex
 10
44.85866335512207
 20
-53.55585807241955
 30
0.0
  0
VERTEX
  5
5F
330
52
100
AcDbEntity
  8
Layer 2
 62
    12
420
 14877971
370
    35
100
AcDbVertex
100
AcDb2dVertex
 10
48.35151263917688
 20
-69.79760724327646
 30
0.0
  0
VERTEX
  5
60
330
52
100
AcDbEntity
  8
Layer 2
 62
    12
420
 14877971
370
    35
100
AcDbVertex
100
AcDb2dVertex
 10
28.79155664846733
 20
-56.52477996386654
 30
0.0
  0
VERTEX
  5
61
330
52
100
AcDbEntity
  8
Layer 2
 62
    12
420
 14877971
370
    35
100
AcDbVertex
100
AcDb2dVertex
 10
28.79155664846733
 20
-73.11581406312911
 30
0.0
  0
VERTEX
  5
62
330
52
100
AcDbEntity
  8
Layer 2
 62
    12
420
 14877971
370
    35
100
AcDbVertex
100
AcDb2dVertex
 10
21.98050054455987
 20
-64.38369085299094
 30
0.0
  0
VERTEX
  5
63
330
52
100
AcDbEntity
  8
Layer 2
 62
    12
420
 14877971
370
    35
100
AcDbVertex
100
AcDb2dVertex
 10
4.341611660080698
 20
-73.81438391994038
 30
0.0
  0
VERTEX
  5
64
330
52
100
AcDbEntity
  8
Layer 2
 62
    12
420
 14877971
370
    35
100
AcDbVertex
100
AcDb2dVertex
 10
13.16105610232028
 20
-52.68264575140576
 30
0.0
  0
VERTEX
  5
65
330
52
100
AcDbEntity
  8
Layer 2
 62
    12
420
 14877971
370
    35
100
AcDbVertex
100
AcDb2dVertex
 10
28.79155664846733
 20
-56.52477996386654
 30
0.0
  0
VERTEX
  5
66
330
52
100
AcDbEntity
  8
Layer 2
 62
    12
420
 14877971
370
    35
100
AcDbVertex
100
AcDb2dVertex
 10
44.85866335512207
 20
-53.55585807241955
 30
0.0
  0
VERTEX
  5
67
330
52
100
AcDbEntity
  8
Layer 2
 62
    12
420
 14877971
370
    35
100
AcDbVertex
100
AcDb2dVertex
 10
74.5478822695914
 20
-42.72802529184816
 30
0.0
  0
VERTEX
  5
68
330
52
100
AcDbEntity
  8
Layer 2
 62
    12
420
 14877971
370
    35
100
AcDbVertex
100
AcDb2dVertex
 10
41.88974146367475
 20
-44.47444993387573
 30
0.0
  0
VERTEX
  5
69
330
52
100
AcDbEntity
  8
Layer 2
 62
    12
420
 14877971
370
    35
100
AcDbVertex
100
AcDb2dVertex
 10
68.08611109408926
 20
-30.1537678692492
 30
0.0
  0
VERTEX
  5
6A
330
52
100
AcDbEntity
  8
Layer 2
 62
    12
420
 14877971
370
    35
100
AcDbVertex
100
AcDb2dVertex
 10
88.51927940581261
 20
-32.77340483229056
 30
0.0
  0
VERTEX
  5
6B
330
52
100
AcDbEntity
  8
Layer 2
 62
    12
420
 14877971
370
    35
100
AcDbVertex
100
AcDb2dVertex
 10
74.5478822695914
 20
-42.72802529184816
 30
0.0
  0
VERTEX
  5
6C
330
52
100
AcDbEntity
  8
Layer 2
 62
    12
420
 14877971
370
    35
100
AcDbVertex
100
AcDb2dVertex
 10
68.08611109408926
 20
-30.1537678692492
 30
0.0
  0
SEQEND
  5
6D
330
52
100
AcDbEntity
  8
Layer 2
 62
    12
420
 14877971
370
    35
  0
POLYLINE
  5
6E
330
1F
100
AcDbEntity
  8
Layer 2
 62
    12
420
 14877971
370
    35
100
AcDb2dPolyline
 66
     1
 10
0.0
 20
0.0
 30
0.0
  0
VERTEX
  5
6F
330
6E
100
AcDbEntity
  8
Layer 2
 62
    12
420
 14877971
370
    35
100
AcDbVertex
100
AcDb2dVertex
 10
13.16105610232028
 20
-52.68264575140576
 30
0.0
  0
VERTEX
  5
70
330
6E
100
AcDbEntity
  8
Layer 2
 62
    12
420
 14877971
370
    35
100
AcDbVertex
100
AcDb2dVertex
 10
21.98050054455987
 20
-64.38369085299094
 30
0.0
  0
SEQEND
  5
71
330
6E
100
AcDbEntity
  8
Layer 2
 62
    12
420
 14877971
370
    35
  0
POLYLINE
  5
72
330
1F
100
AcDbEntity
  8
Layer 2
 62
    12
420
 14877971
370
    35
100
AcDb2dPolyline
 66
     1
 10
0.0
 20
0.0
 30
0.0
  0
VERTEX
  5
73
330
72
100
AcDbEntity
  8
Layer 2
 62
    12
420
 14877971
370
    35
100
AcDbVertex
100
AcDb2dVertex
 10
48.35151263917688
 20
-69.79760724327646
 30
0.0
  0
VERTEX
  5
74
330
72
100
AcDbEntity
  8
Layer 2
 62
    12
420
 14877971
370
    35
100
AcDbVertex
100
AcDb2dVertex
 10
50.97114960221824
 20
-87.43649612775563
 30
0.0
  0
VERTEX
  5
75
330
72
100
AcDbEntity
  8
Layer 2
 62
    12
420
 14877971
370
    35
100
AcDbVertex
100
AcDb2dVertex
 10
69.13396587930588
 20
-86.2139988783362
 30
0.0
  0
VERTEX
  5
76
330
72
100
AcDbEntity
  8
Layer 2
 62
    12
420
 14877971
370
    35
100
AcDbVertex
100
AcDb2dVertex
 10
48.35151263917688
 20
-69.79760724327646
 30
0.0
  0
SEQEND
  5
77
330
72
100
AcDbEntity
  8
Layer 2
 62
    12
420
 14877971
370
    35
  0
POLYLINE
  5
78
330
1F
100
AcDbEntity
  8
Layer 2
 62
    12
420
 14877971
370
    35
100
AcDb2dPolyline
 66
     1
 10
0.0
 20
0.0
 30
0.0
  0
VERTEX
  5
79
330
78
100
AcDbEntity
  8
Layer 2
 62
    12
420
 14877971
370
    35
100
AcDbVertex
100
AcDb2dVertex
 10
72.62681516336102
 20
-72.41724420631814
 30
0.0
  0
VERTEX
  5
7A
330
78
100
AcDbEntity
  8
Layer 2
 62
    12
420
 14877971
370
    35
100
AcDbVertex
100
AcDb2dVertex
 10
69.13396587930588
 20
-86.2139988783362
 30
0.0
  0
VERTEX
  5
7B
330
78
100
AcDbEntity
  8
Layer 2
 62
    12
420
 14877971
370
    35
100
AcDbVertex
100
AcDb2dVertex
 10
58.48077556293731
 20
-98.61361383673265
 30
0.0
  0
VERTEX
  5
7C
330
78
100
AcDbEntity
  8
Layer 2
 62
    12
420
 14877971
370
    35
100
AcDbVertex
100
AcDb2dVertex
 10
49.3120461922924
 20
-103.8736420403639
 30
0.0
  0
VERTEX
  5
7D
330
78
100
AcDbEntity
  8
Layer 2
 62
    12
420
 14877971
370
    35
100
AcDbVertex
100
AcDb2dVertex
 10
50.97114960221824
 20
-87.43649612775563
 30
0.0
  0
VERTEX
  5
7E
330
78
100
AcDbEntity
  8
Layer 2
 62
    12
420
 14877971
370
    35
100
AcDbVertex
100
AcDb2dVertex
 10
40.66724421425532
 20
-80.80008248805068
 30
0.0
  0
VERTEX
  5
7F
330
78
100
AcDbEntity
  8
Layer 2
 62
    12
420
 14877971
370
    35
100
AcDbVertex
100
AcDb2dVertex
 10
48.35151263917688
 20
-69.79760724327646
 30
0.0
  0
VERTEX
  5
80
330
78
100
AcDbEntity
  8
Layer 2
 62
    12
420
 14877971
370
    35
100
AcDbVertex
100
AcDb2dVertex
 10
28.79155664846733
 20
-73.11581406312911
 30
0.0
  0
VERTEX
  5
81
330
78
100
AcDbEntity
  8
Layer 2
 62
    12
420
 14877971
370
    35
100
AcDbVertex
100
AcDb2dVertex
 10
40.66724421425532
 20
-80.80008248805068
 30
0.0
  0
VERTEX
  5
82
330
78
100
AcDbEntity
  8
Layer 2
 62
    12
420
 14877971
370
    35
100
AcDbVertex
100
AcDb2dVertex
 10
49.3120461922924
 20
-103.8736420403639
 30
0.0
  0
VERTEX
  5
83
330
78
100
AcDbEntity
  8
Layer 2
 62
    12
420
 14877971
370
    35
100
AcDbVertex
100
AcDb2dVertex
 10
76.99287676843026
 20
-115.2046479359952
 30
0.0
  0
VERTEX
  5
84
330
78
100
AcDbEntity
  8
Layer 2
 62
    12
420
 14877971
370
    35
100
AcDbVertex
100
AcDb2dVertex
 10
58.48077556293731
 20
-98.61361383673265
 30
0.0
  0
VERTEX
  5
85
330
78
100
AcDbEntity
  8
Layer 2
 62
    12
420
 14877971
370
    35
100
AcDbVertex
100
AcDb2dVertex
 10
74.02395487698327
 20
-99.48682615774645
 30
0.0
  0
VERTEX
  5
86
330
78
100
AcDbEntity
  8
Layer 2
 62
    12
420
 14877971
370
    35
100
AcDbVertex
100
AcDb2dVertex
 10
94.28248072450378
 20
-77.13259073979303
 30
0.0
  0
VERTEX
  5
87
330
78
100
AcDbEntity
  8
Layer 2
 62
    12
420
 14877971
370
    35
100
AcDbVertex
100
AcDb2dVertex
 10
69.13396587930588
 20
-86.2139988783362
 30
0.0
  0
VERTEX
  5
88
330
78
100
AcDbEntity
  8
Layer 2
 62
    12
420
 14877971
370
    35
100
AcDbVertex
100
AcDb2dVertex
 10
74.02395487698327
 20
-99.48682615774645
 30
0.0
  0
SEQEND
  5
89
330
78
100
AcDbEntity
  8
Layer 2
 62
    12
420
 14877971
370
    35
  0
POLYLINE
  5
8A
330
1F
100
AcDbEntity
  8
Layer 2
 62
    12
420
 14877971
370
    35
100
AcDb2dPolyline
 66
     1
 10
0.0
 20
0.0
 30
0.0
  0
VERTEX
  5
8B
330
8A
100
AcDbEntity
  8
Layer 2
 62
    12
420
 14877971
370
    35
100
AcDbVertex
100
AcDb2dVertex
 10
50.97114960221824
 20
-87.43649612775563
 30
0.0
  0
VERTEX
  5
8C
330
8A
100
AcDbEntity
  8
Layer 2
 62
    12
420
 14877971
370
    35
100
AcDbVertex
100
AcDb2dVertex
 10
58.48077556293731
 20
-98.61361383673265
 30
0.0
  0
SEQEND
  5
8D
330
8A
100
AcDbEntity
  8
Layer 2
 62
    12
420
 14877971
370
    35
  0
POLYLINE
  5
8E
330
1F
100
AcDbEntity
  8
Layer 2
 62
    12
420
 14877971
370
    35
100
AcDb2dPolyline
 66
     1
 10
0.0
 20
0.0
 30
0.0
  0
VERTEX
  5
8F
330
8E
100
AcDbEntity
  8
Layer 2
 62
    12
420
 14877971
370
    35
100
AcDbVertex
100
AcDb2dVertex
 10
79.96179865987726
 20
-173.3605885155154
 30
0.0
  0
VERTEX
  5
90
330
8E
100
AcDbEntity
  8
Layer 2
 62
    12
420
 14877971
370
    35
100
AcDbVertex
100
AcDb2dVertex
 10
80.83501098089104
 20
-156.0709845594419
 30
0.0
  0
VERTEX
  5
91
330
8E
100
AcDbEntity
  8
Layer 2
 62
    12
420
 14877971
370
    35
100
AcDbVertex
100
AcDb2dVertex
 10
83.4546479439324
 20
-139.130665531774
 30
0.0
  0
VERTEX
  5
92
330
8E
100
AcDbEntity
  8
Layer 2
 62
    12
420
 14877971
370
    35
100
AcDbVertex
100
AcDb2dVertex
 10
74.89716719799705
 20
-124.8099834671472
 30
0.0
  0
VERTEX
  5
93
330
8E
100
AcDbEntity
  8
Layer 2
 62
    12
420
 14877971
370
    35
100
AcDbVertex
100
AcDb2dVertex
 10
76.99287676843026
 20
-115.2046479359952
 30
0.0
  0
VERTEX
  5
94
330
8E
100
AcDbEntity
  8
Layer 2
 62
    12
420
 14877971
370
    35
100
AcDbVertex
100
AcDb2dVertex
 10
94.98105058131507
 20
-116.77643011382
 30
0.0
  0
VERTEX
  5
95
330
8E
100
AcDbEntity
  8
Layer 2
 62
    12
420
 14877971
370
    35
100
AcDbVertex
100
AcDb2dVertex
 10
112.2706545373886
 20
-128.652117679608
 30
0.0
  0
VERTEX
  5
96
330
8E
100
AcDbEntity
  8
Layer 2
 62
    12
420
 14877971
370
    35
100
AcDbVertex
100
AcDb2dVertex
 10
84.85178765755465
 20
-166.8988173400136
 30
0.0
  0
VERTEX
  5
97
330
8E
100
AcDbEntity
  8
Layer 2
 62
    12
420
 14877971
370
    35
100
AcDbVertex
100
AcDb2dVertex
 10
79.96179865987726
 20
-173.3605885155154
 30
0.0
  0
VERTEX
  5
98
330
8E
100
AcDbEntity
  8
Layer 2
 62
    12
420
 14877971
370
    35
100
AcDbVertex
100
AcDb2dVertex
 10
86.07428490697407
 20
-179.2984322984094
 30
0.0
  0
VERTEX
  5
99
330
8E
100
AcDbEntity
  8
Layer 2
 62
    12
420
 14877971
370
    35
100
AcDbVertex
100
AcDb2dVertex
 10
84.85178765755465
 20
-166.8988173400136
 30
0.0
  0
SEQEND
  5
9A
330
8E
100
AcDbEntity
  8
Layer 2
 62
    12
420
 14877971
370
    35
  0
POLYLINE
  5
9B
330
1F
100
AcDbEntity
  8
Layer 2
 62
    12
420
 14877971
370
    35
100
AcDb2dPolyline
 66
     1
 10
0.0
 20
0.0
 30
0.0
  0
VERTEX
  5
9C
330
9B
100
AcDbEntity
  8
Layer 2
 62
    12
420
 14877971
370
    35
100
AcDbVertex
100
AcDb2dVertex
 10
74.89716719799705
 20
-124.8099834671472
 30
0.0
  0
VERTEX
  5
9D
330
9B
100
AcDbEntity
  8
Layer 2
 62
    12
420
 14877971
370
    35
100
AcDbVertex
100
AcDb2dVertex
 10
94.98105058131507
 20
-116.77643011382
 30
0.0
  0
VERTEX
  5
9E
330
9B
100
AcDbEntity
  8
Layer 2
 62
    12
420
 14877971
370
    35
100
AcDbVertex
100
AcDb2dVertex
 10
92.71069854667904
 20
-134.4153189982991
 30
0.0
  0
VERTEX
  5
9F
330
9B
100
AcDbEntity
  8
Layer 2
 62
    12
420
 14877971
370
    35
100
AcDbVertex
100
AcDb2dVertex
 10
74.89716719799705
 20
-124.8099834671472
 30
0.0
  0
SEQEND
  5
A0
330
9B
100
AcDbEntity
  8
Layer 2
 62
    12
420
 14877971
370
    35
  0
POLYLINE
  5
A1
330
1F
100
AcDbEntity
  8
Layer 2
 62
    12
420
 14877971
370
    35
100
AcDb2dPolyline
 66
     1
 10
0.0
 20
0.0
 30
0.0
  0
VERTEX
  5
A2
330
A1
100
AcDbEntity
  8
Layer 2
 62
    12
420
 14877971
370
    35
100
AcDbVertex
100
AcDb2dVertex
 10
112.2706545373886
 20
-128.652117679608
 30
0.0
  0
VERTEX
  5
A3
330
A1
100
AcDbEntity
  8
Layer 2
 62
    12
420
 14877971
370
    35
100
AcDbVertex
100
AcDb2dVertex
 10
92.71069854667904
 20
-134.4153189982991
 30
0.0
  0
VERTEX
  5
A4
330
A1
100
AcDbEntity
  8
Layer 2
 62
    12
420
 14877971
370
    35
100
AcDbVertex
100
AcDb2dVertex
 10
83.4546479439324
 20
-139.130665531774
 30
0.0
  0
VERTEX
  5
A5
330
A1
100
AcDbEntity
  8
Layer 2
 62
    12
420
 14877971
370
    35
100
AcDbVertex
100
AcDb2dVertex
 10
95.52101592945704
 20
-152.0162632537294
 30
0.0
  0
SEQEND
  5
A6
330
A1
100
AcDbEntity
  8
Layer 2
 62
    12
420
 14877971
370
    35
  0
POLYLINE
  5
A7
330
1F
100
AcDbEntity
  8
Layer 2
 62
    12
420
 14877971
370
    35
100
AcDb2dPolyline
 66
     1
 10
0.0
 20
0.0
 30
0.0
  0
VERTEX
  5
A8
330
A7
100
AcDbEntity
  8
Layer 2
 62
    12
420
 14877971
370
    35
100
AcDbVertex
100
AcDb2dVertex
 10
92.71069854667904
 20
-134.4153189982991
 30
0.0
  0
VERTEX
  5
A9
330
A7
100
AcDbEntity
  8
Layer 2
 62
    12
420
 14877971
370
    35
100
AcDbVertex
100
AcDb2dVertex
 10
95.52101592945704
 20
-152.0162632537294
 30
0.0
  0
VERTEX
  5
AA
330
A7
100
AcDbEntity
  8
Layer 2
 62
    12
420
 14877971
370
    35
100
AcDbVertex
100
AcDb2dVertex
 10
80.83501098089104
 20
-156.0709845594419
 30
0.0
  0
SEQEND
  5
AB
330
A7
100
AcDbEntity
  8
Layer 2
 62
    12
420
 14877971
370
    35
  0
POLYLINE
  5
AC
330
1F
100
AcDbEntity
  8
Layer 2
 62
    12
420
 14877971
370
    35
100
AcDb2dPolyline
 66
     1
 10
0.0
 20
0.0
 30
0.0
  0
VERTEX
  5
AD
330
AC
100
AcDbEntity
  8
Layer 2
 62
    12
420
 14877971
370
    35
100
AcDbVertex
100
AcDb2dVertex
 10
73.84931241278044
 20
-104.9999999737534
 30
0.0
  0
VERTEX
  5
AE
330
AC
100
AcDbEntity
  8
Layer 2
 62
    12
420
 14877971
370
    35
100
AcDbVertex
100
AcDb2dVertex
 10
82.23215069451297
 20
-109.2668041531012
 30
0.0
  0
VERTEX
  5
AF
330
AC
100
AcDbEntity
  8
Layer 2
 62
    12
420
 14877971
370
    35
100
AcDbVertex
100
AcDb2dVertex
 10
86.4235698353794
 20
-106.2978822616546
 30
0.0
  0
VERTEX
  5
B0
330
AC
100
AcDbEntity
  8
Layer 2
 62
    12
420
 14877971
370
    35
100
AcDbVertex
100
AcDb2dVertex
 10
73.84931241278044
 20
-104.9999999737534
 30
0.0
  0
SEQEND
  5
B1
330
AC
100
AcDbEntity
  8
Layer 2
 62
    12
420
 14877971
370
    35
  0
POLYLINE
  5
B2
330
1F
100
AcDbEntity
  8
Layer 2
 62
    12
420
 14877971
370
    35
100
AcDb2dPolyline
 66
     1
 10
0.0
 20
0.0
 30
0.0
  0
VERTEX
  5
B3
330
B2
100
AcDbEntity
  8
Layer 2
 62
    12
420
 14877971
370
    35
100
AcDbVertex
100
AcDb2dVertex
 10
80.13644112407975
 20
-43.77588007706477
 30
0.0
  0
VERTEX
  5
B4
330
B2
100
AcDbEntity
  8
Layer 2
 62
    12
420
 14877971
370
    35
100
AcDbVertex
100
AcDb2dVertex
 10
95.52101592945704
 20
-46.0462321117008
 30
0.0
  0
VERTEX
  5
B5
330
B2
100
AcDbEntity
  8
Layer 2
 62
    12
420
 14877971
370
    35
100
AcDbVertex
100
AcDb2dVertex
 10
104.4117436482642
 20
-64.38369085299094
 30
0.0
  0
VERTEX
  5
B6
330
B2
100
AcDbEntity
  8
Layer 2
 62
    12
420
 14877971
370
    35
100
AcDbVertex
100
AcDb2dVertex
 10
130.0841858860706
 20
-40.63231572141495
 30
0.0
  0
VERTEX
  5
B7
330
B2
100
AcDbEntity
  8
Layer 2
 62
    12
420
 14877971
370
    35
100
AcDbVertex
100
AcDb2dVertex
 10
119.0817106412964
 20
-31.37626511866863
 30
0.0
  0
VERTEX
  5
B8
330
B2
100
AcDbEntity
  8
Layer 2
 62
    12
420
 14877971
370
    35
100
AcDbVertex
100
AcDb2dVertex
 10
89.56713419102921
 20
-35.74232672373756
 30
0.0
  0
VERTEX
  5
B9
330
B2
100
AcDbEntity
  8
Layer 2
 62
    12
420
 14877971
370
    35
100
AcDbVertex
100
AcDb2dVertex
 10
80.13644112407975
 20
-43.77588007706477
 30
0.0
  0
SEQEND
  5
BA
330
B2
100
AcDbEntity
  8
Layer 2
 62
    12
420
 14877971
370
    35
  0
POLYLINE
  5
BB
330
1F
100
AcDbEntity
  8
Layer 2
 62
    12
420
 14877971
370
    35
100
AcDb2dPolyline
 66
     1
 10
0.0
 20
0.0
 30
0.0
  0
VERTEX
  5
BC
330
BB
100
AcDbEntity
  8
Layer 2
 62
    12
420
 14877971
370
    35
100
AcDbVertex
100
AcDb2dVertex
 10
89.56713419102921
 20
-35.74232672373756
 30
0.0
  0
VERTEX
  5
BD
330
BB
100
AcDbEntity
  8
Layer 2
 62
    12
420
 14877971
370
    35
100
AcDbVertex
100
AcDb2dVertex
 10
95.52101592945704
 20
-46.0462321117008
 30
0.0
  0
VERTEX
  5
BE
330
BB
100
AcDbEntity
  8
Layer 2
 62
    12
420
 14877971
370
    35
100
AcDbVertex
100
AcDb2dVertex
 10
109.3017326459416
 20
-46.0462321117008
 30
0.0
  0
VERTEX
  5
BF
330
BB
100
AcDbEntity
  8
Layer 2
 62
    12
420
 14877971
370
    35
100
AcDbVertex
100
AcDb2dVertex
 10
89.56713419102921
 20
-35.74232672373756
 30
0.0
  0
SEQEND
  5
C0
330
BB
100
AcDbEntity
  8
Layer 2
 62
    12
420
 14877971
370
    35
  0
POLYLINE
  5
C1
330
1F
100
AcDbEntity
  8
Layer 2
 62
    12
420
 14877971
370
    35
100
AcDb2dPolyline
 66
     1
 10
0.0
 20
0.0
 30
0.0
  0
VERTEX
  5
C2
330
C1
100
AcDbEntity
  8
Layer 2
 62
    12
420
 14877971
370
    35
100
AcDbVertex
100
AcDb2dVertex
 10
119.0817106412964
 20
-31.37626511866863
 30
0.0
  0
VERTEX
  5
C3
330
C1
100
AcDbEntity
  8
Layer 2
 62
    12
420
 14877971
370
    35
100
AcDbVertex
100
AcDb2dVertex
 10
109.3017326459416
 20
-46.0462321117008
 30
0.0
  0
VERTEX
  5
C4
330
C1
100
AcDbEntity
  8
Layer 2
 62
    12
420
 14877971
370
    35
100
AcDbVertex
100
AcDb2dVertex
 10
130.0841858860706
 20
-40.63231572141495
 30
0.0
  0
SEQEND
  5
C5
330
C1
100
AcDbEntity
  8
Layer 2
 62
    12
420
 14877971
370
    35
  0
POLYLINE
  5
C6
330
1F
100
AcDbEntity
  8
Layer 2
 62
    12
420
 14877971
370
    35
100
AcDb2dPolyline
 66
     1
 10
0.0
 20
0.0
 30
0.0
  0
VERTEX
  5
C7
330
C6
100
AcDbEntity
  8
Layer 2
 62
    12
420
 14877971
370
    35
100
AcDbVertex
100
AcDb2dVertex
 10
109.3017326459416
 20
-46.0462321117008
 30
0.0
  0
VERTEX
  5
C8
330
C6
100
AcDbEntity
  8
Layer 2
 62
    12
420
 14877971
370
    35
100
AcDbVertex
100
AcDb2dVertex
 10
104.4117436482642
 20
-64.38369085299094
 30
0.0
  0
SEQEND
  5
C9
330
C6
100
AcDbEntity
  8
Layer 2
 62
    12
420
 14877971
370
    35
  0
POLYLINE
  5
CA
330
1F
100
AcDbEntity
  8
Layer 2
 62
    12
420
 14877971
370
    35
100
AcDb2dPolyline
 66
     1
 10
0.0
 20
0.0
 30
0.0
  0
VERTEX
  5
CB
330
CA
100
AcDbEntity
  8
Layer 2
 62
    12
420
 14877971
370
    35
100
AcDbVertex
100
AcDb2dVertex
 10
122.5745599253515
 20
-58.53316830219835
 30
0.0
  0
VERTEX
  5
CC
330
CA
100
AcDbEntity
  8
Layer 2
 62
    12
420
 14877971
370
    35
100
AcDbVertex
100
AcDb2dVertex
 10
123.2731297821628
 20
-64.38369085299094
 30
0.0
  0
VERTEX
  5
CD
330
CA
100
AcDbEntity
  8
Layer 2
 62
    12
420
 14877971
370
    35
100
AcDbVertex
100
AcDb2dVertex
 10
128.8616886366512
 20
-59.49370185531387
 30
0.0
  0
VERTEX
  5
CE
330
CA
100
AcDbEntity
  8
Layer 2
 62
    12
420
 14877971
370
    35
100
AcDbVertex
100
AcDb2dVertex
 10
122.5745599253515
 20
-58.53316830219835
 30
0.0
  0
SEQEND
  5
CF
330
CA
100
AcDbEntity
  8
Layer 2
 62
    12
420
 14877971
370
    35
  0
POLYLINE
  5
D0
330
1F
100
AcDbEntity
  8
Layer 2
 62
    12
420
 14877971
370
    35
100
AcDb2dPolyline
 66
     1
 10
0.0
 20
0.0
 30
0.0
  0
VERTEX
  5
D1
330
D0
100
AcDbEntity
  8
Layer 2
 62
    12
420
 14877971
370
    35
100
AcDbVertex
100
AcDb2dVertex
 10
149.4694994125773
 20
-38.71124861518455
 30
0.0
  0
VERTEX
  5
D2
330
D0
100
AcDbEntity
  8
Layer 2
 62
    12
420
 14877971
370
    35
100
AcDbVertex
100
AcDb2dVertex
 10
155.4073431954713
 20
-43.77588007706477
 30
0.0
  0
VERTEX
  5
D3
330
D0
100
AcDbEntity
  8
Layer 2
 62
    12
420
 14877971
370
    35
100
AcDbVertex
100
AcDb2dVertex
 10
161.5198294425681
 20
-37.83803629417077
 30
0.0
  0
VERTEX
  5
D4
330
D0
100
AcDbEntity
  8
Layer 2
 62
    12
420
 14877971
370
    35
100
AcDbVertex
100
AcDb2dVertex
 10
149.4694994125773
 20
-38.71124861518455
 30
0.0
  0
SEQEND
  5
D5
330
D0
100
AcDbEntity
  8
Layer 2
 62
    12
420
 14877971
370
    35
  0
POLYLINE
  5
D6
330
1F
100
AcDbEntity
  8
Layer 2
 62
    12
420
 14877971
370
    35
100
AcDb2dPolyline
 66
     1
 10
0.0
 20
0.0
 30
0.0
  0
VERTEX
  5
D7
330
D6
100
AcDbEntity
  8
Layer 2
 62
    12
420
 14877971
370
    35
100
AcDbVertex
100
AcDb2dVertex
 10
131.8306105280982
 20
-73.11581406312911
 30
0.0
  0
VERTEX
  5
D8
330
D6
100
AcDbEntity
  8
Layer 2
 62
    12
420
 14877971
370
    35
100
AcDbVertex
100
AcDb2dVertex
 10
130.9573982070841
 20
-77.13259073979303
 30
0.0
  0
VERTEX
  5
D9
330
D6
100
AcDbEntity
  8
Layer 2
 62
    12
420
 14877971
370
    35
100
AcDbVertex
100
AcDb2dVertex
 10
134.1009625627342
 20
-75.1242024014609
 30
0.0
  0
VERTEX
  5
DA
330
D6
100
AcDbEntity
  8
Layer 2
 62
    12
420
 14877971
370
    35
100
AcDbVertex
100
AcDb2dVertex
 10
131.8306105280982
 20
-73.11581406312911
 30
0.0
  0
SEQEND
  5
DB
330
D6
100
AcDbEntity
  8
Layer 2
 62
    12
420
 14877971
370
    35
  0
POLYLINE
  5
DC
330
1F
100
AcDbEntity
  8
Layer 2
 62
    12
420
 14877971
370
    35
100
AcDb2dPolyline
 66
     1
 10
0.0
 20
0.0
 30
0.0
  0
VERTEX
  5
DD
330
DC
100
AcDbEntity
  8
Layer 2
 62
    12
420
 14877971
370
    35
100
AcDbVertex
100
AcDb2dVertex
 10
136.9595838156343
 20
-69.79760801185994
 30
0.0
  0
VERTEX
  5
DE
330
DC
100
AcDbEntity
  8
Layer 2
 62
    12
420
 14877971
370
    35
100
AcDbVertex
100
AcDb2dVertex
 10
140.5627337382367
 20
-75.1242024014609
 30
0.0
  0
VERTEX
  5
DF
330
DC
100
AcDbEntity
  8
Layer 2
 62
    12
420
 14877971
370
    35
100
AcDbVertex
100
AcDb2dVertex
 10
135.6727447405589
 20
-77.13259073979303
 30
0.0
  0
VERTEX
  5
E0
330
DC
100
AcDbEntity
  8
Layer 2
 62
    12
420
 14877971
370
    35
100
AcDbVertex
100
AcDb2dVertex
 10
136.9595838156343
 20
-69.79760801185994
 30
0.0
  0
VERTEX
  5
E1
330
DC
100
AcDbEntity
  8
Layer 2
 62
    12
420
 14877971
370
    35
100
AcDbVertex
100
AcDb2dVertex
 10
137.4191693825865
 20
-67.17797028023512
 30
0.0
  0
VERTEX
  5
E2
330
DC
100
AcDbEntity
  8
Layer 2
 62
    12
420
 14877971
370
    35
100
AcDbVertex
100
AcDb2dVertex
 10
134.1009625627342
 20
-68.40046752965453
 30
0.0
  0
VERTEX
  5
E3
330
DC
100
AcDbEntity
  8
Layer 2
 62
    12
420
 14877971
370
    35
100
AcDbVertex
100
AcDb2dVertex
 10
136.3774424031312
 20
-73.11581406312911
 30
0.0
  0
SEQEND
  5
E4
330
DC
100
AcDbEntity
  8
Layer 2
 62
    12
420
 14877971
370
    35
  0
POLYLINE
  5
E5
330
1F
100
AcDbEntity
  8
Layer 2
 62
    12
420
 14877971
370
    35
100
AcDb2dPolyline
 66
     1
 10
0.0
 20
0.0
 30
0.0
  0
VERTEX
  5
E6
330
E5
100
AcDbEntity
  8
Layer 2
 62
    12
420
 14877971
370
    35
100
AcDbVertex
100
AcDb2dVertex
 10
278.1021070078658
 20
-62.33876910013172
 30
0.0
  0
VERTEX
  5
E7
330
E5
100
AcDbEntity
  8
Layer 2
 62
    12
420
 14877971
370
    35
100
AcDbVertex
100
AcDb2dVertex
 10
272.9417216039315
 20
-75.1242024014609
 30
0.0
  0
VERTEX
  5
E8
330
E5
100
AcDbEntity
  8
Layer 2
 62
    12
420
 14877971
370
    35
100
AcDbVertex
100
AcDb2dVertex
 10
292.5016775946411
 20
-58.53316830219835
 30
0.0
  0
VERTEX
  5
E9
330
E5
100
AcDbEntity
  8
Layer 2
 62
    12
420
 14877971
370
    35
100
AcDbVertex
100
AcDb2dVertex
 10
283.9441968487054
 20
-51.28550603778351
 30
0.0
  0
VERTEX
  5
EA
330
E5
100
AcDbEntity
  8
Layer 2
 62
    12
420
 14877971
370
    35
100
AcDbVertex
100
AcDb2dVertex
 10
279.752777707839
 20
-55.21496148234571
 30
0.0
  0
VERTEX
  5
EB
330
E5
100
AcDbEntity
  8
Layer 2
 62
    12
420
 14877971
370
    35
100
AcDbVertex
100
AcDb2dVertex
 10
261.4153189665491
 20
-43.77588007706477
 30
0.0
  0
VERTEX
  5
EC
330
E5
100
AcDbEntity
  8
Layer 2
 62
    12
420
 14877971
370
    35
100
AcDbVertex
100
AcDb2dVertex
 10
253.9056930058304
 20
-50.41229371677004
 30
0.0
  0
VERTEX
  5
ED
330
E5
100
AcDbEntity
  8
Layer 2
 62
    12
420
 14877971
370
    35
100
AcDbVertex
100
AcDb2dVertex
 10
224.915043948171
 20
-41.85481297083405
 30
0.0
  0
VERTEX
  5
EE
330
E5
100
AcDbEntity
  8
Layer 2
 62
    12
420
 14877971
370
    35
100
AcDbVertex
100
AcDb2dVertex
 10
199.0679592461625
 20
-55.21496148234571
 30
0.0
  0
VERTEX
  5
EF
330
E5
100
AcDbEntity
  8
Layer 2
 62
    12
420
 14877971
370
    35
100
AcDbVertex
100
AcDb2dVertex
 10
169.9026677243004
 20
-61.4584295775948
 30
0.0
  0
VERTEX
  5
F0
330
E5
100
AcDbEntity
  8
Layer 2
 62
    12
420
 14877971
370
    35
100
AcDbVertex
100
AcDb2dVertex
 10
172.3476622231392
 20
-53.64317930452096
 30
0.0
  0
VERTEX
  5
F1
330
E5
100
AcDbEntity
  8
Layer 2
 62
    12
420
 14877971
370
    35
100
AcDbVertex
100
AcDb2dVertex
 10
161.5198294425681
 20
-52.68264575140576
 30
0.0
  0
VERTEX
  5
F2
330
E5
100
AcDbEntity
  8
Layer 2
 62
    12
420
 14877971
370
    35
100
AcDbVertex
100
AcDb2dVertex
 10
153.4862760892409
 20
-56.1754950354609
 30
0.0
  0
VERTEX
  5
F3
330
E5
100
AcDbEntity
  8
Layer 2
 62
    12
420
 14877971
370
    35
100
AcDbVertex
100
AcDb2dVertex
 10
143.7062980938861
 20
-67.17797028023512
 30
0.0
  0
VERTEX
  5
F4
330
E5
100
AcDbEntity
  8
Layer 2
 62
    12
420
 14877971
370
    35
100
AcDbVertex
100
AcDb2dVertex
 10
150.6919966619964
 20
-67.17797028023512
 30
0.0
  0
VERTEX
  5
F5
330
E5
100
AcDbEntity
  8
Layer 2
 62
    12
420
 14877971
370
    35
100
AcDbVertex
100
AcDb2dVertex
 10
148.4999999628701
 20
-61.78505567762826
 30
0.0
  0
VERTEX
  5
F6
330
E5
100
AcDbEntity
  8
Layer 2
 62
    12
420
 14877971
370
    35
100
AcDbVertex
100
AcDb2dVertex
 10
152.0941040064765
 20
-69.79760724327646
 30
0.0
  0
VERTEX
  5
F7
330
E5
100
AcDbEntity
  8
Layer 2
 62
    12
420
 14877971
370
    35
100
AcDbVertex
100
AcDb2dVertex
 10
153.4862760892409
 20
-56.1754950354609
 30
0.0
  0
VERTEX
  5
F8
330
E5
100
AcDbEntity
  8
Layer 2
 62
    12
420
 14877971
370
    35
100
AcDbVertex
100
AcDb2dVertex
 10
169.9026677243004
 20
-61.4584295775948
 30
0.0
  0
VERTEX
  5
F9
330
E5
100
AcDbEntity
  8
Layer 2
 62
    12
420
 14877971
370
    35
100
AcDbVertex
100
AcDb2dVertex
 10
161.5198294425681
 20
-52.68264575140576
 30
0.0
  0
SEQEND
  5
FA
330
E5
100
AcDbEntity
  8
Layer 2
 62
    12
420
 14877971
370
    35
  0
POLYLINE
  5
FB
330
1F
100
AcDbEntity
  8
Layer 2
 62
    12
420
 14877971
370
    35
100
AcDb2dPolyline
 66
     1
 10
0.0
 20
0.0
 30
0.0
  0
VERTEX
  5
FC
330
FB
100
AcDbEntity
  8
Layer 2
 62
    12
420
 14877971
370
    35
100
AcDbVertex
100
AcDb2dVertex
 10
230.8528877310651
 20
-103.8736420403639
 30
0.0
  0
VERTEX
  5
FD
330
FB
100
AcDbEntity
  8
Layer 2
 62
    12
420
 14877971
370
    35
100
AcDbVertex
100
AcDb2dVertex
 10
225.2643288765767
 20
-114.5060780791839
 30
0.0
  0
VERTEX
  5
FE
330
FB
100
AcDbEntity
  8
Layer 2
 62
    12
420
 14877971
370
    35
100
AcDbVertex
100
AcDb2dVertex
 10
213.7379262391944
 20
-103.8736420403639
 30
0.0
  0
VERTEX
  5
FF
330
FB
100
AcDbEntity
  8
Layer 2
 62
    12
420
 14877971
370
    35
100
AcDbVertex
100
AcDb2dVertex
 10
237.4893013707703
 20
-103.8736420403639
 30
0.0
  0
VERTEX
  5
100
330
FB
100
AcDbEntity
  8
Layer 2
 62
    12
420
 14877971
370
    35
100
AcDbVertex
100
AcDb2dVertex
 10
242.0300054400424
 20
-89.35756323398603
 30
0.0
  0
VERTEX
  5
101
330
FB
100
AcDbEntity
  8
Layer 2
 62
    12
420
 14877971
370
    35
100
AcDbVertex
100
AcDb2dVertex
 10
252.6831957564106
 20
-82.72114959428106
 30
0.0
  0
VERTEX
  5
102
330
FB
100
AcDbEntity
  8
Layer 2
 62
    12
420
 14877971
370
    35
100
AcDbVertex
100
AcDb2dVertex
 10
255.8267601120608
 20
-68.22582506545172
 30
0.0
  0
VERTEX
  5
103
330
FB
100
AcDbEntity
  8
Layer 2
 62
    12
420
 14877971
370
    35
100
AcDbVertex
100
AcDb2dVertex
 10
292.5016775946411
 20
-58.53316830219835
 30
0.0
  0
VERTEX
  5
104
330
FB
100
AcDbEntity
  8
Layer 2
 62
    12
420
 14877971
370
    35
100
AcDbVertex
100
AcDb2dVertex
 10
279.752777707839
 20
-55.21496148234571
 30
0.0
  0
VERTEX
  5
105
330
FB
100
AcDbEntity
  8
Layer 2
 62
    12
420
 14877971
370
    35
100
AcDbVertex
100
AcDb2dVertex
 10
253.9056930058304
 20
-50.41229371677004
 30
0.0
  0
VERTEX
  5
106
330
FB
100
AcDbEntity
  8
Layer 2
 62
    12
420
 14877971
370
    35
100
AcDbVertex
100
AcDb2dVertex
 10
232.0753849804848
 20
-76.25937841877892
 30
0.0
  0
VERTEX
  5
107
330
FB
100
AcDbEntity
  8
Layer 2
 62
    12
420
 14877971
370
    35
100
AcDbVertex
100
AcDb2dVertex
 10
242.0300054400424
 20
-89.35756323398603
 30
0.0
  0
VERTEX
  5
108
330
FB
100
AcDbEntity
  8
Layer 2
 62
    12
420
 14877971
370
    35
100
AcDbVertex
100
AcDb2dVertex
 10
255.8267601120608
 20
-68.22582506545172
 30
0.0
  0
VERTEX
  5
109
330
FB
100
AcDbEntity
  8
Layer 2
 62
    12
420
 14877971
370
    35
100
AcDbVertex
100
AcDb2dVertex
 10
253.9056930058304
 20
-50.41229371677004
 30
0.0
  0
SEQEND
  5
10A
330
FB
100
AcDbEntity
  8
Layer 2
 62
    12
420
 14877971
370
    35
  0
POLYLINE
  5
10B
330
1F
100
AcDbEntity
  8
Layer 2
 62
    12
420
 14877971
370
    35
100
AcDb2dPolyline
 66
     1
 10
0.0
 20
0.0
 30
0.0
  0
VERTEX
  5
10C
330
10B
100
AcDbEntity
  8
Layer 2
 62
    12
420
 14877971
370
    35
100
AcDbVertex
100
AcDb2dVertex
 10
136.1966721331671
 20
-92.50112758963584
 30
0.0
  0
VERTEX
  5
10D
330
10B
100
AcDbEntity
  8
Layer 2
 62
    12
420
 14877971
370
    35
100
AcDbVertex
100
AcDb2dVertex
 10
138.2923817036003
 20
-85.51542902152524
 30
0.0
  0
VERTEX
  5
10E
330
10B
100
AcDbEntity
  8
Layer 2
 62
    12
420
 14877971
370
    35
100
AcDbVertex
100
AcDb2dVertex
 10
143.0077282370749
 20
-86.51962319069098
 30
0.0
  0
VERTEX
  5
10F
330
10B
100
AcDbEntity
  8
Layer 2
 62
    12
420
 14877971
370
    35
100
AcDbVertex
100
AcDb2dVertex
 10
136.1966721331671
 20
-92.50112758963584
 30
0.0
  0
SEQEND
  5
110
330
10B
100
AcDbEntity
  8
Layer 2
 62
    12
420
 14877971
370
    35
  0
POLYLINE
  5
111
330
1F
100
AcDbEntity
  8
Layer 2
 62
    12
420
 14877971
370
    35
100
AcDb2dPolyline
 66
     1
 10
0.0
 20
0.0
 30
0.0
  0
VERTEX
  5
112
330
111
100
AcDbEntity
  8
Layer 2
 62
    12
420
 14877971
370
    35
100
AcDbVertex
100
AcDb2dVertex
 10
146.825197531347
 20
-83.83488809151191
 30
0.0
  0
VERTEX
  5
113
330
111
100
AcDbEntity
  8
Layer 2
 62
    12
420
 14877971
370
    35
100
AcDbVertex
100
AcDb2dVertex
 10
152.9623486966325
 20
-90.40541801920263
 30
0.0
  0
VERTEX
  5
114
330
111
100
AcDbEntity
  8
Layer 2
 62
    12
420
 14877971
370
    35
100
AcDbVertex
100
AcDb2dVertex
 10
152.0941040064765
 20
-80.12939184317388
 30
0.0
  0
VERTEX
  5
115
330
111
100
AcDbEntity
  8
Layer 2
 62
    12
420
 14877971
370
    35
100
AcDbVertex
100
AcDb2dVertex
 10
146.825197531347
 20
-83.83488809151191
 30
0.0
  0
VERTEX
  5
116
330
111
100
AcDbEntity
  8
Layer 2
 62
    12
420
 14877971
370
    35
100
AcDbVertex
100
AcDb2dVertex
 10
143.0077282370749
 20
-86.51962319069098
 30
0.0
  0
VERTEX
  5
117
330
111
100
AcDbEntity
  8
Layer 2
 62
    12
420
 14877971
370
    35
100
AcDbVertex
100
AcDb2dVertex
 10
138.9909515604116
 20
-79.92687016703688
 30
0.0
  0
VERTEX
  5
118
330
111
100
AcDbEntity
  8
Layer 2
 62
    12
420
 14877971
370
    35
100
AcDbVertex
100
AcDb2dVertex
 10
147.0245049137385
 20
-73.11581406312911
 30
0.0
  0
VERTEX
  5
119
330
111
100
AcDbEntity
  8
Layer 2
 62
    12
420
 14877971
370
    35
100
AcDbVertex
100
AcDb2dVertex
 10
152.0941040064765
 20
-80.12939184317388
 30
0.0
  0
SEQEND
  5
11A
330
111
100
AcDbEntity
  8
Layer 2
 62
    12
420
 14877971
370
    35
  0
POLYLINE
  5
11B
330
1F
100
AcDbEntity
  8
Layer 2
 62
    12
420
 14877971
370
    35
100
AcDb2dPolyline
 66
     1
 10
0.0
 20
0.0
 30
0.0
  0
VERTEX
  5
11C
330
11B
100
AcDbEntity
  8
Layer 2
 62
    12
420
 14877971
370
    35
100
AcDbVertex
100
AcDb2dVertex
 10
152.6474031675752
 20
-64.38369085299094
 30
0.0
  0
VERTEX
  5
11D
330
11B
100
AcDbEntity
  8
Layer 2
 62
    12
420
 14877971
370
    35
100
AcDbVertex
100
AcDb2dVertex
 10
160.6769269707134
 20
-58.48950768614748
 30
0.0
  0
VERTEX
  5
11E
330
11B
100
AcDbEntity
  8
Layer 2
 62
    12
420
 14877971
370
    35
100
AcDbVertex
100
AcDb2dVertex
 10
163.6591996290519
 20
-67.17797028023512
 30
0.0
  0
VERTEX
  5
11F
330
11B
100
AcDbEntity
  8
Layer 2
 62
    12
420
 14877971
370
    35
100
AcDbVertex
100
AcDb2dVertex
 10
158.1533013983136
 20
-65.0822607098019
 30
0.0
  0
VERTEX
  5
120
330
11B
100
AcDbEntity
  8
Layer 2
 62
    12
420
 14877971
370
    35
100
AcDbVertex
100
AcDb2dVertex
 10
160.6769269707134
 20
-58.48950768614748
 30
0.0
  0
SEQEND
  5
121
330
11B
100
AcDbEntity
  8
Layer 2
 62
    12
420
 14877971
370
    35
  0
POLYLINE
  5
122
330
1F
100
AcDbEntity
  8
Layer 2
 62
    12
420
 14877971
370
    35
100
AcDb2dPolyline
 66
     1
 10
0.0
 20
0.0
 30
0.0
  0
VERTEX
  5
123
330
122
100
AcDbEntity
  8
Layer 2
 62
    12
420
 14877971
370
    35
100
AcDbVertex
100
AcDb2dVertex
 10
150.80579746929
 20
-73.59545535301469
 30
0.0
  0
VERTEX
  5
124
330
122
100
AcDbEntity
  8
Layer 2
 62
    12
420
 14877971
370
    35
100
AcDbVertex
100
AcDb2dVertex
 10
149.4694994125773
 20
-69.79760724327646
 30
0.0
  0
VERTEX
  5
125
330
122
100
AcDbEntity
  8
Layer 2
 62
    12
420
 14877971
370
    35
100
AcDbVertex
100
AcDb2dVertex
 10
147.0245049137385
 20
-73.11581406312911
 30
0.0
  0
VERTEX
  5
126
330
122
100
AcDbEntity
  8
Layer 2
 62
    12
420
 14877971
370
    35
100
AcDbVertex
100
AcDb2dVertex
 10
150.80579746929
 20
-73.59545535301469
 30
0.0
  0
VERTEX
  5
127
330
122
100
AcDbEntity
  8
Layer 2
 62
    12
420
 14877971
370
    35
100
AcDbVertex
100
AcDb2dVertex
 10
156.6621650691446
 20
-74.33831131254853
 30
0.0
  0
VERTEX
  5
128
330
122
100
AcDbEntity
  8
Layer 2
 62
    12
420
 14877971
370
    35
100
AcDbVertex
100
AcDb2dVertex
 10
163.6591996290519
 20
-80.308141389118
 30
0.0
  0
VERTEX
  5
129
330
122
100
AcDbEntity
  8
Layer 2
 62
    12
420
 14877971
370
    35
100
AcDbVertex
100
AcDb2dVertex
 10
169.9026677243004
 20
-61.4584295775948
 30
0.0
  0
VERTEX
  5
12A
330
122
100
AcDbEntity
  8
Layer 2
 62
    12
420
 14877971
370
    35
100
AcDbVertex
100
AcDb2dVertex
 10
156.6621650691446
 20
-74.33831131254853
 30
0.0
  0
VERTEX
  5
12B
330
122
100
AcDbEntity
  8
Layer 2
 62
    12
420
 14877971
370
    35
100
AcDbVertex
100
AcDb2dVertex
 10
152.0941040064765
 20
-80.12939184317388
 30
0.0
  0
VERTEX
  5
12C
330
122
100
AcDbEntity
  8
Layer 2
 62
    12
420
 14877971
370
    35
100
AcDbVertex
100
AcDb2dVertex
 10
158.7255500153236
 20
-90.58006048340545
 30
0.0
  0
VERTEX
  5
12D
330
122
100
AcDbEntity
  8
Layer 2
 62
    12
420
 14877971
370
    35
100
AcDbVertex
100
AcDb2dVertex
 10
163.6591996290519
 20
-80.308141389118
 30
0.0
  0
VERTEX
  5
12E
330
122
100
AcDbEntity
  8
Layer 2
 62
    12
420
 14877971
370
    35
100
AcDbVertex
100
AcDb2dVertex
 10
172.7842683836466
 20
-85.34078655732274
 30
0.0
  0
VERTEX
  5
12F
330
122
100
AcDbEntity
  8
Layer 2
 62
    12
420
 14877971
370
    35
100
AcDbVertex
100
AcDb2dVertex
 10
168.3308855464756
 20
-96.8671891947054
 30
0.0
  0
VERTEX
  5
130
330
122
100
AcDbEntity
  8
Layer 2
 62
    12
420
 14877971
370
    35
100
AcDbVertex
100
AcDb2dVertex
 10
177.2376512208169
 20
-111.5371561877373
 30
0.0
  0
SEQEND
  5
131
330
122
100
AcDbEntity
  8
Layer 2
 62
    12
420
 14877971
370
    35
  0
POLYLINE
  5
132
330
1F
100
AcDbEntity
  8
Layer 2
 62
    12
420
 14877971
370
    35
100
AcDb2dPolyline
 66
     1
 10
0.0
 20
0.0
 30
0.0
  0
VERTEX
  5
133
330
132
100
AcDbEntity
  8
Layer 2
 62
    12
420
 14877971
370
    35
100
AcDbVertex
100
AcDb2dVertex
 10
170.7763847332521
 20
-80.41814425007931
 30
0.0
  0
VERTEX
  5
134
330
132
100
AcDbEntity
  8
Layer 2
 62
    12
420
 14877971
370
    35
100
AcDbVertex
100
AcDb2dVertex
 10
169.9026677243004
 20
-61.4584295775948
 30
0.0
  0
VERTEX
  5
135
330
132
100
AcDbEntity
  8
Layer 2
 62
    12
420
 14877971
370
    35
100
AcDbVertex
100
AcDb2dVertex
 10
195.4877887300056
 20
-80.80008248805068
 30
0.0
  0
VERTEX
  5
136
330
132
100
AcDbEntity
  8
Layer 2
 62
    12
420
 14877971
370
    35
100
AcDbVertex
100
AcDb2dVertex
 10
138.9909515604116
 20
-79.92687016703688
 30
0.0
  0
VERTEX
  5
137
330
132
100
AcDbEntity
  8
Layer 2
 62
    12
420
 14877971
370
    35
100
AcDbVertex
100
AcDb2dVertex
 10
138.2923817036003
 20
-85.51542902152524
 30
0.0
  0
VERTEX
  5
138
330
132
100
AcDbEntity
  8
Layer 2
 62
    12
420
 14877971
370
    35
100
AcDbVertex
100
AcDb2dVertex
 10
132.5291803849094
 20
-85.51542902152524
 30
0.0
  0
VERTEX
  5
139
330
132
100
AcDbEntity
  8
Layer 2
 62
    12
420
 14877971
370
    35
100
AcDbVertex
100
AcDb2dVertex
 10
131.8306105280982
 20
-92.50112758963584
 30
0.0
  0
VERTEX
  5
13A
330
132
100
AcDbEntity
  8
Layer 2
 62
    12
420
 14877971
370
    35
100
AcDbVertex
100
AcDb2dVertex
 10
136.1966721331671
 20
-92.50112758963584
 30
0.0
  0
VERTEX
  5
13B
330
132
100
AcDbEntity
  8
Layer 2
 62
    12
420
 14877971
370
    35
100
AcDbVertex
100
AcDb2dVertex
 10
132.5291803849094
 20
-85.51542902152524
 30
0.0
  0
SEQEND
  5
13C
330
132
100
AcDbEntity
  8
Layer 2
 62
    12
420
 14877971
370
    35
  0
POLYLINE
  5
13D
330
1F
100
AcDbEntity
  8
Layer 2
 62
    12
420
 14877971
370
    35
100
AcDb2dPolyline
 66
     1
 10
0.0
 20
0.0
 30
0.0
  0
VERTEX
  5
13E
330
13D
100
AcDbEntity
  8
Layer 2
 62
    12
420
 14877971
370
    35
100
AcDbVertex
100
AcDb2dVertex
 10
177.2376512208169
 20
-99.31218369354363
 30
0.0
  0
VERTEX
  5
13F
330
13D
100
AcDbEntity
  8
Layer 2
 62
    12
420
 14877971
370
    35
100
AcDbVertex
100
AcDb2dVertex
 10
188.4147689297936
 20
-104.9999999737534
 30
0.0
  0
VERTEX
  5
140
330
13D
100
AcDbEntity
  8
Layer 2
 62
    12
420
 14877971
370
    35
100
AcDbVertex
100
AcDb2dVertex
 10
177.2376512208169
 20
-111.5371561877373
 30
0.0
  0
VERTEX
  5
141
330
13D
100
AcDbEntity
  8
Layer 2
 62
    12
420
 14877971
370
    35
100
AcDbVertex
100
AcDb2dVertex
 10
177.2376512208169
 20
-95.64469194528566
 30
0.0
  0
VERTEX
  5
142
330
13D
100
AcDbEntity
  8
Layer 2
 62
    12
420
 14877971
370
    35
100
AcDbVertex
100
AcDb2dVertex
 10
193.6540428558763
 20
-101.5825357281797
 30
0.0
  0
VERTEX
  5
143
330
13D
100
AcDbEntity
  8
Layer 2
 62
    12
420
 14877971
370
    35
100
AcDbVertex
100
AcDb2dVertex
 10
202.3861660660148
 20
-118.1735698274425
 30
0.0
  0
VERTEX
  5
144
330
13D
100
AcDbEntity
  8
Layer 2
 62
    12
420
 14877971
370
    35
100
AcDbVertex
100
AcDb2dVertex
 10
213.7379262391944
 20
-103.8736420403639
 30
0.0
  0
VERTEX
  5
145
330
13D
100
AcDbEntity
  8
Layer 2
 62
    12
420
 14877971
370
    35
100
AcDbVertex
100
AcDb2dVertex
 10
193.6540428558763
 20
-101.5825357281797
 30
0.0
  0
VERTEX
  5
146
330
13D
100
AcDbEntity
  8
Layer 2
 62
    12
420
 14877971
370
    35
100
AcDbVertex
100
AcDb2dVertex
 10
195.4877887300056
 20
-80.80008248805068
 30
0.0
  0
VERTEX
  5
147
330
13D
100
AcDbEntity
  8
Layer 2
 62
    12
420
 14877971
370
    35
100
AcDbVertex
100
AcDb2dVertex
 10
199.0679592461625
 20
-55.21496148234571
 30
0.0
  0
VERTEX
  5
148
330
13D
100
AcDbEntity
  8
Layer 2
 62
    12
420
 14877971
370
    35
100
AcDbVertex
100
AcDb2dVertex
 10
232.0753849804848
 20
-76.25937841877892
 30
0.0
  0
VERTEX
  5
149
330
13D
100
AcDbEntity
  8
Layer 2
 62
    12
420
 14877971
370
    35
100
AcDbVertex
100
AcDb2dVertex
 10
224.915043948171
 20
-41.85481297083405
 30
0.0
  0
SEQEND
  5
14A
330
13D
100
AcDbEntity
  8
Layer 2
 62
    12
420
 14877971
370
    35
  0
POLYLINE
  5
14B
330
1F
100
AcDbEntity
  8
Layer 2
 62
    12
420
 14877971
370
    35
100
AcDb2dPolyline
 66
     1
 10
0.0
 20
0.0
 30
0.0
  0
VERTEX
  5
14C
330
14B
100
AcDbEntity
  8
Layer 2
 62
    12
420
 14877971
370
    35
100
AcDbVertex
100
AcDb2dVertex
 10
195.4877887300056
 20
-80.80008248805068
 30
0.0
  0
VERTEX
  5
14D
330
14B
100
AcDbEntity
  8
Layer 2
 62
    12
420
 14877971
370
    35
100
AcDbVertex
100
AcDb2dVertex
 10
213.7379262391944
 20
-103.8736420403639
 30
0.0
  0
VERTEX
  5
14E
330
14B
100
AcDbEntity
  8
Layer 2
 62
    12
420
 14877971
370
    35
100
AcDbVertex
100
AcDb2dVertex
 10
232.0753849804848
 20
-76.25937841877892
 30
0.0
  0
VERTEX
  5
14F
330
14B
100
AcDbEntity
  8
Layer 2
 62
    12
420
 14877971
370
    35
100
AcDbVertex
100
AcDb2dVertex
 10
195.4877887300056
 20
-80.80008248805068
 30
0.0
  0
SEQEND
  5
150
330
14B
100
AcDbEntity
  8
Layer 2
 62
    12
420
 14877971
370
    35
  0
POLYLINE
  5
151
330
1F
100
AcDbEntity
  8
Layer 2
 62
    12
420
 14877971
370
    35
100
AcDb2dPolyline
 66
     1
 10
0.0
 20
0.0
 30
0.0
  0
VERTEX
  5
152
330
151
100
AcDbEntity
  8
Layer 2
 62
    12
420
 14877971
370
    35
100
AcDbVertex
100
AcDb2dVertex
 10
168.3308855464756
 20
-96.8671891947054
 30
0.0
  0
VERTEX
  5
153
330
151
100
AcDbEntity
  8
Layer 2
 62
    12
420
 14877971
370
    35
100
AcDbVertex
100
AcDb2dVertex
 10
177.2376512208169
 20
-95.64469194528566
 30
0.0
  0
VERTEX
  5
154
330
151
100
AcDbEntity
  8
Layer 2
 62
    12
420
 14877971
370
    35
100
AcDbVertex
100
AcDb2dVertex
 10
172.7842683836466
 20
-85.34078655732274
 30
0.0
  0
VERTEX
  5
155
330
151
100
AcDbEntity
  8
Layer 2
 62
    12
420
 14877971
370
    35
100
AcDbVertex
100
AcDb2dVertex
 10
163.6591996290519
 20
-90.06651022957156
 30
0.0
  0
VERTEX
  5
156
330
151
100
AcDbEntity
  8
Layer 2
 62
    12
420
 14877971
370
    35
100
AcDbVertex
100
AcDb2dVertex
 10
170.0177729847982
 20
-92.50112758963584
 30
0.0
  0
SEQEND
  5
157
330
151
100
AcDbEntity
  8
Layer 2
 62
    12
420
 14877971
370
    35
  0
POLYLINE
  5
158
330
1F
100
AcDbEntity
  8
Layer 2
 62
    12
420
 14877971
370
    35
100
AcDb2dPolyline
 66
     1
 10
0.0
 20
0.0
 30
0.0
  0
VERTEX
  5
159
330
158
100
AcDbEntity
  8
Layer 2
 62
    12
420
 14877971
370
    35
100
AcDbVertex
100
AcDb2dVertex
 10
177.2376512208169
 20
-95.64469194528566
 30
0.0
  0
VERTEX
  5
15A
330
158
100
AcDbEntity
  8
Layer 2
 62
    12
420
 14877971
370
    35
100
AcDbVertex
100
AcDb2dVertex
 10
195.4877887300056
 20
-80.80008248805068
 30
0.0
  0
SEQEND
  5
15B
330
158
100
AcDbEntity
  8
Layer 2
 62
    12
420
 14877971
370
    35
  0
POLYLINE
  5
15C
330
1F
100
AcDbEntity
  8
Layer 2
 62
    12
420
 14877971
370
    35
100
AcDb2dPolyline
 66
     1
 10
0.0
 20
0.0
 30
0.0
  0
VERTEX
  5
15D
330
15C
100
AcDbEntity
  8
Layer 2
 62
    12
420
 14877971
370
    35
100
AcDbVertex
100
AcDb2dVertex
 10
232.0753849804848
 20
-76.25937841877892
 30
0.0
  0
VERTEX
  5
15E
330
15C
100
AcDbEntity
  8
Layer 2
 62
    12
420
 14877971
370
    35
100
AcDbVertex
100
AcDb2dVertex
 10
255.8267601120608
 20
-68.22582506545172
 30
0.0
  0
SEQEND
  5
15F
330
15C
100
AcDbEntity
  8
Layer 2
 62
    12
420
 14877971
370
    35
  0
POLYLINE
  5
160
330
1F
100
AcDbEntity
  8
Layer 2
 62
    12
420
 14877971
370
    35
100
AcDb2dPolyline
 66
     1
 10
0.0
 20
0.0
 30
0.0
  0
VERTEX
  5
161
330
160
100
AcDbEntity
  8
Layer 2
 62
    12
420
 14877971
370
    35
100
AcDbVertex
100
AcDb2dVertex
 10
242.0300054400424
 20
-89.35756323398603
 30
0.0
  0
VERTEX
  5
162
330
160
100
AcDbEntity
  8
Layer 2
 62
    12
420
 14877971
370
    35
100
AcDbVertex
100
AcDb2dVertex
 10
213.7379262391944
 20
-103.8736420403639
 30
0.0
  0
SEQEND
  5
163
330
160
100
AcDbEntity
  8
Layer 2
 62
    12
420
 14877971
370
    35
  0
POLYLINE
  5
164
330
1F
100
AcDbEntity
  8
Layer 2
 62
    12
420
 14877971
370
    35
100
AcDb2dPolyline
 66
     1
 10
0.0
 20
0.0
 30
0.0
  0
VERTEX
  5
165
330
164
100
AcDbEntity
  8
Layer 2
 62
    12
420
 14877971
370
    35
100
AcDbVertex
100
AcDb2dVertex
 10
180.9051429690749
 20
-49.53908139575594
 30
0.0
  0
VERTEX
  5
166
330
164
100
AcDbEntity
  8
Layer 2
 62
    12
420
 14877971
370
    35
100
AcDbVertex
100
AcDb2dVertex
 10
185.6204895025491
 20
-53.64317930452096
 30
0.0
  0
VERTEX
  5
167
330
164
100
AcDbEntity
  8
Layer 2
 62
    12
420
 14877971
370
    35
100
AcDbVertex
100
AcDb2dVertex
 10
194.5272551768904
 20
-43.77588007706477
 30
0.0
  0
VERTEX
  5
168
330
164
100
AcDbEntity
  8
Layer 2
 62
    12
420
 14877971
370
    35
100
AcDbVertex
100
AcDb2dVertex
 10
180.9051429690749
 20
-49.53908139575594
 30
0.0
  0
SEQEND
  5
169
330
164
100
AcDbEntity
  8
Layer 2
 62
    12
420
 14877971
370
    35
  0
POLYLINE
  5
16A
330
1F
100
AcDbEntity
  8
Layer 2
 62
    12
420
 14877971
370
    35
100
AcDb2dPolyline
 66
     1
 10
0.0
 20
0.0
 30
0.0
  0
VERTEX
  5
16B
330
16A
100
AcDbEntity
  8
Layer 2
 62
    12
420
 14877971
370
    35
100
AcDbVertex
100
AcDb2dVertex
 10
213.7815868552449
 20
-37.83803629417077
 30
0.0
  0
VERTEX
  5
16C
330
16A
100
AcDbEntity
  8
Layer 2
 62
    12
420
 14877971
370
    35
100
AcDbVertex
100
AcDb2dVertex
 10
224.0418316271576
 20
-38.71124861518455
 30
0.0
  0
VERTEX
  5
16D
330
16A
100
AcDbEntity
  8
Layer 2
 62
    12
420
 14877971
370
    35
100
AcDbVertex
100
AcDb2dVertex
 10
217.0561330590467
 20
-33.99590208170999
 30
0.0
  0
VERTEX
  5
16E
330
16A
100
AcDbEntity
  8
Layer 2
 62
    12
420
 14877971
370
    35
100
AcDbVertex
100
AcDb2dVertex
 10
213.7815868552449
 20
-37.83803629417077
 30
0.0
  0
SEQEND
  5
16F
330
16A
100
AcDbEntity
  8
Layer 2
 62
    12
420
 14877971
370
    35
  0
POLYLINE
  5
170
330
1F
100
AcDbEntity
  8
Layer 2
 62
    12
420
 14877971
370
    35
100
AcDb2dPolyline
 66
     1
 10
0.0
 20
0.0
 30
0.0
  0
VERTEX
  5
171
330
170
100
AcDbEntity
  8
Layer 2
 62
    12
420
 14877971
370
    35
100
AcDbVertex
100
AcDb2dVertex
 10
257.3985422898855
 20
-73.98902638414289
 30
0.0
  0
VERTEX
  5
172
330
170
100
AcDbEntity
  8
Layer 2
 62
    12
420
 14877971
370
    35
100
AcDbVertex
100
AcDb2dVertex
 10
257.3985422898855
 20
-81.76061604116586
 30
0.0
  0
VERTEX
  5
173
330
170
100
AcDbEntity
  8
Layer 2
 62
    12
420
 14877971
370
    35
100
AcDbVertex
100
AcDb2dVertex
 10
261.2406765023463
 20
-80.01419139913894
 30
0.0
  0
VERTEX
  5
174
330
170
100
AcDbEntity
  8
Layer 2
 62
    12
420
 14877971
370
    35
100
AcDbVertex
100
AcDb2dVertex
 10
257.3985422898855
 20
-73.98902638414289
 30
0.0
  0
SEQEND
  5
175
330
170
100
AcDbEntity
  8
Layer 2
 62
    12
420
 14877971
370
    35
  0
POLYLINE
  5
176
330
1F
100
AcDbEntity
  8
Layer 2
 62
    12
420
 14877971
370
    35
100
AcDb2dPolyline
 66
     1
 10
0.0
 20
0.0
 30
0.0
  0
VERTEX
  5
177
330
176
100
AcDbEntity
  8
Layer 2
 62
    12
420
 14877971
370
    35
100
AcDbVertex
100
AcDb2dVertex
 10
257.3985422898855
 20
-85.34078655732274
 30
0.0
  0
VERTEX
  5
178
330
176
100
AcDbEntity
  8
Layer 2
 62
    12
420
 14877971
370
    35
100
AcDbVertex
100
AcDb2dVertex
 10
246.046782116706
 20
-94.7714796242722
 30
0.0
  0
VERTEX
  5
179
330
176
100
AcDbEntity
  8
Layer 2
 62
    12
420
 14877971
370
    35
100
AcDbVertex
100
AcDb2dVertex
 10
250.2382012575724
 20
-97.74040151571887
 30
0.0
  0
VERTEX
  5
17A
330
176
100
AcDbEntity
  8
Layer 2
 62
    12
420
 14877971
370
    35
100
AcDbVertex
100
AcDb2dVertex
 10
257.3985422898855
 20
-85.34078655732274
 30
0.0
  0
SEQEND
  5
17B
330
176
100
AcDbEntity
  8
Layer 2
 62
    12
420
 14877971
370
    35
  0
POLYLINE
  5
17C
330
1F
100
AcDbEntity
  8
Layer 2
 62
    12
420
 14877971
370
    35
100
AcDb2dPolyline
 66
     1
 10
0.0
 20
0.0
 30
0.0
  0
VERTEX
  5
17D
330
17C
100
AcDbEntity
  8
Layer 2
 62
    12
420
 14877971
370
    35
100
AcDbVertex
100
AcDb2dVertex
 10
237.838586299176
 20
-108.0443069036821
 30
0.0
  0
VERTEX
  5
17E
330
17C
100
AcDbEntity
  8
Layer 2
 62
    12
420
 14877971
370
    35
100
AcDbVertex
100
AcDb2dVertex
 10
240.9821506548255
 20
-116.77643011382
 30
0.0
  0
VERTEX
  5
17F
330
17C
100
AcDbEntity
  8
Layer 2
 62
    12
420
 14877971
370
    35
100
AcDbVertex
100
AcDb2dVertex
 10
243.9510725462728
 20
-115.2046479359952
 30
0.0
  0
VERTEX
  5
180
330
17C
100
AcDbEntity
  8
Layer 2
 62
    12
420
 14877971
370
    35
100
AcDbVertex
100
AcDb2dVertex
 10
237.838586299176
 20
-108.0443069036821
 30
0.0
  0
SEQEND
  5
181
330
17C
100
AcDbEntity
  8
Layer 2
 62
    12
420
 14877971
370
    35
  0
POLYLINE
  5
182
330
1F
100
AcDbEntity
  8
Layer 2
 62
    12
420
 14877971
370
    35
100
AcDb2dPolyline
 66
     1
 10
0.0
 20
0.0
 30
0.0
  0
VERTEX
  5
183
330
182
100
AcDbEntity
  8
Layer 2
 62
    12
420
 14877971
370
    35
100
AcDbVertex
100
AcDb2dVertex
 10
236.2668041213512
 20
-115.2046479359952
 30
0.0
  0
VERTEX
  5
184
330
182
100
AcDbEntity
  8
Layer 2
 62
    12
420
 14877971
370
    35
100
AcDbVertex
100
AcDb2dVertex
 10
235.3935918003371
 20
-127.7789053585945
 30
0.0
  0
VERTEX
  5
185
330
182
100
AcDbEntity
  8
Layer 2
 62
    12
420
 14877971
370
    35
100
AcDbVertex
100
AcDb2dVertex
 10
227.8839658396184
 20
-122.8889163609168
 30
0.0
  0
VERTEX
  5
186
330
182
100
AcDbEntity
  8
Layer 2
 62
    12
420
 14877971
370
    35
100
AcDbVertex
100
AcDb2dVertex
 10
236.2668041213512
 20
-115.2046479359952
 30
0.0
  0
SEQEND
  5
187
330
182
100
AcDbEntity
  8
Layer 2
 62
    12
420
 14877971
370
    35
  0
POLYLINE
  5
188
330
1F
100
AcDbEntity
  8
Layer 2
 62
    12
420
 14877971
370
    35
100
AcDb2dPolyline
 66
     1
 10
0.0
 20
0.0
 30
0.0
  0
VERTEX
  5
189
330
188
100
AcDbEntity
  8
Layer 2
 62
    12
420
 14877971
370
    35
100
AcDbVertex
100
AcDb2dVertex
 10
225.0896864123739
 20
-122.3649889683083
 30
0.0
  0
VERTEX
  5
18A
330
188
100
AcDbEntity
  8
Layer 2
 62
    12
420
 14877971
370
    35
100
AcDbVertex
100
AcDb2dVertex
 10
218.1039878442636
 20
-118.1735698274425
 30
0.0
  0
VERTEX
  5
18B
330
188
100
AcDbEntity
  8
Layer 2
 62
    12
420
 14877971
370
    35
100
AcDbVertex
100
AcDb2dVertex
 10
225.0896864123739
 20
-127.7789053585945
 30
0.0
  0
VERTEX
  5
18C
330
188
100
AcDbEntity
  8
Layer 2
 62
    12
420
 14877971
370
    35
100
AcDbVertex
100
AcDb2dVertex
 10
225.0896864123739
 20
-122.3649889683083
 30
0.0
  0
SEQEND
  5
18D
330
188
100
AcDbEntity
  8
Layer 2
 62
    12
420
 14877971
370
    35
  0
POLYLINE
  5
18E
330
1F
100
AcDbEntity
  8
Layer 2
 62
    12
420
 14877971
370
    35
100
AcDb2dPolyline
 66
     1
 10
0.0
 20
0.0
 30
0.0
  0
VERTEX
  5
18F
330
18E
100
AcDbEntity
  8
Layer 2
 62
    12
420
 14877971
370
    35
100
AcDbVertex
100
AcDb2dVertex
 10
227.8839658396184
 20
-127.7789053585945
 30
0.0
  0
VERTEX
  5
190
330
18E
100
AcDbEntity
  8
Layer 2
 62
    12
420
 14877971
370
    35
100
AcDbVertex
100
AcDb2dVertex
 10
226.6614685901993
 20
-130.2238998574327
 30
0.0
  0
VERTEX
  5
191
330
18E
100
AcDbEntity
  8
Layer 2
 62
    12
420
 14877971
370
    35
100
AcDbVertex
100
AcDb2dVertex
 10
239.7596534054064
 20
-131.2717546426496
 30
0.0
  0
VERTEX
  5
192
330
18E
100
AcDbEntity
  8
Layer 2
 62
    12
420
 14877971
370
    35
100
AcDbVertex
100
AcDb2dVertex
 10
227.8839658396184
 20
-127.7789053585945
 30
0.0
  0
SEQEND
  5
193
330
18E
100
AcDbEntity
  8
Layer 2
 62
    12
420
 14877971
370
    35
  0
POLYLINE
  5
194
330
1F
100
AcDbEntity
  8
Layer 2
 62
    12
420
 14877971
370
    35
100
AcDb2dPolyline
 66
     1
 10
0.0
 20
0.0
 30
0.0
  0
VERTEX
  5
195
330
194
100
AcDbEntity
  8
Layer 2
 62
    12
420
 14877971
370
    35
100
AcDbVertex
100
AcDb2dVertex
 10
205.7043728858671
 20
-122.9762375930185
 30
0.0
  0
VERTEX
  5
196
330
194
100
AcDbEntity
  8
Layer 2
 62
    12
420
 14877971
370
    35
100
AcDbVertex
100
AcDb2dVertex
 10
208.6732947773145
 20
-120.0946369336729
 30
0.0
  0
VERTEX
  5
197
330
194
100
AcDbEntity
  8
Layer 2
 62
    12
420
 14877971
370
    35
100
AcDbVertex
100
AcDb2dVertex
 10
205.7043728858671
 20
-118.1735698274425
 30
0.0
  0
VERTEX
  5
198
330
194
100
AcDbEntity
  8
Layer 2
 62
    12
420
 14877971
370
    35
100
AcDbVertex
100
AcDb2dVertex
 10
205.7043728858671
 20
-122.9762375930185
 30
0.0
  0
SEQEND
  5
199
330
194
100
AcDbEntity
  8
Layer 2
 62
    12
420
 14877971
370
    35
  0
POLYLINE
  5
19A
330
1F
100
AcDbEntity
  8
Layer 2
 62
    12
420
 14877971
370
    35
100
AcDb2dPolyline
 66
     1
 10
0.0
 20
0.0
 30
0.0
  0
VERTEX
  5
19B
330
19A
100
AcDbEntity
  8
Layer 2
 62
    12
420
 14877971
370
    35
100
AcDbVertex
100
AcDb2dVertex
 10
247.6185642945308
 20
-123.9367711461337
 30
0.0
  0
VERTEX
  5
19C
330
19A
100
AcDbEntity
  8
Layer 2
 62
    12
420
 14877971
370
    35
100
AcDbVertex
100
AcDb2dVertex
 10
260.5421066455351
 20
-131.2717546426496
 30
0.0
  0
VERTEX
  5
19D
330
19A
100
AcDbEntity
  8
Layer 2
 62
    12
420
 14877971
370
    35
100
AcDbVertex
100
AcDb2dVertex
 10
260.5421066455351
 20
-123.9367711461337
 30
0.0
  0
VERTEX
  5
19E
330
19A
100
AcDbEntity
  8
Layer 2
 62
    12
420
 14877971
370
    35
100
AcDbVertex
100
AcDb2dVertex
 10
247.6185642945308
 20
-123.9367711461337
 30
0.0
  0
SEQEND
  5
19F
330
19A
100
AcDbEntity
  8
Layer 2
 62
    12
420
 14877971
370
    35
  0
POLYLINE
  5
1A0
330
1F
100
AcDbEntity
  8
Layer 2
 62
    12
420
 14877971
370
    35
100
AcDb2dPolyline
 66
     1
 10
0.0
 20
0.0
 30
0.0
  0
VERTEX
  5
1A1
330
1A0
100
AcDbEntity
  8
Layer 2
 62
    12
420
 14877971
370
    35
100
AcDbVertex
100
AcDb2dVertex
 10
233.2105609978028
 20
-141.5756600306129
 30
0.0
  0
VERTEX
  5
1A2
330
1A0
100
AcDbEntity
  8
Layer 2
 62
    12
420
 14877971
370
    35
100
AcDbVertex
100
AcDb2dVertex
 10
250.2382012575724
 20
-133.3674642130829
 30
0.0
  0
VERTEX
  5
1A3
330
1A0
100
AcDbEntity
  8
Layer 2
 62
    12
420
 14877971
370
    35
100
AcDbVertex
100
AcDb2dVertex
 10
258.6210395393047
 20
-137.4715621218475
 30
0.0
  0
VERTEX
  5
1A4
330
1A0
100
AcDbEntity
  8
Layer 2
 62
    12
420
 14877971
370
    35
100
AcDbVertex
100
AcDb2dVertex
 10
265.4320956432127
 20
-147.2515401172023
 30
0.0
  0
VERTEX
  5
1A5
330
1A0
100
AcDbEntity
  8
Layer 2
 62
    12
420
 14877971
370
    35
100
AcDbVertex
100
AcDb2dVertex
 10
259.3196093961159
 20
-156.0709845594419
 30
0.0
  0
VERTEX
  5
1A6
330
1A0
100
AcDbEntity
  8
Layer 2
 62
    12
420
 14877971
370
    35
100
AcDbVertex
100
AcDb2dVertex
 10
246.046782116706
 20
-149.4345709197373
 30
0.0
  0
VERTEX
  5
1A7
330
1A0
100
AcDbEntity
  8
Layer 2
 62
    12
420
 14877971
370
    35
100
AcDbVertex
100
AcDb2dVertex
 10
235.3935918003371
 20
-152.0162632537294
 30
0.0
  0
VERTEX
  5
1A8
330
1A0
100
AcDbEntity
  8
Layer 2
 62
    12
420
 14877971
370
    35
100
AcDbVertex
100
AcDb2dVertex
 10
233.2105609978028
 20
-141.5756600306129
 30
0.0
  0
SEQEND
  5
1A9
330
1A0
100
AcDbEntity
  8
Layer 2
 62
    12
420
 14877971
370
    35
  0
POLYLINE
  5
1AA
330
1F
100
AcDbEntity
  8
Layer 2
 62
    12
420
 14877971
370
    35
100
AcDb2dPolyline
 66
     1
 10
0.0
 20
0.0
 30
0.0
  0
VERTEX
  5
1AB
330
1AA
100
AcDbEntity
  8
Layer 2
 62
    12
420
 14877971
370
    35
100
AcDbVertex
100
AcDb2dVertex
 10
233.2105609978028
 20
-141.5756600306129
 30
0.0
  0
VERTEX
  5
1AC
330
1AA
100
AcDbEntity
  8
Layer 2
 62
    12
420
 14877971
370
    35
100
AcDbVertex
100
AcDb2dVertex
 10
246.046782116706
 20
-149.4345709197373
 30
0.0
  0
VERTEX
  5
1AD
330
1AA
100
AcDbEntity
  8
Layer 2
 62
    12
420
 14877971
370
    35
100
AcDbVertex
100
AcDb2dVertex
 10
250.2382012575724
 20
-133.3674642130829
 30
0.0
  0
SEQEND
  5
1AE
330
1AA
100
AcDbEntity
  8
Layer 2
 62
    12
420
 14877971
370
    35
  0
POLYLINE
  5
1AF
330
1F
100
AcDbEntity
  8
Layer 2
 62
    12
420
 14877971
370
    35
100
AcDb2dPolyline
 66
     1
 10
0.0
 20
0.0
 30
0.0
  0
VERTEX
  5
1B0
330
1AF
100
AcDbEntity
  8
Layer 2
 62
    12
420
 14877971
370
    35
100
AcDbVertex
100
AcDb2dVertex
 10
246.046782116706
 20
-149.4345709197373
 30
0.0
  0
VERTEX
  5
1B1
330
1AF
100
AcDbEntity
  8
Layer 2
 62
    12
420
 14877971
370
    35
100
AcDbVertex
100
AcDb2dVertex
 10
258.6210395393047
 20
-137.4715621218475
 30
0.0
  0
VERTEX
  5
1B2
330
1AF
100
AcDbEntity
  8
Layer 2
 62
    12
420
 14877971
370
    35
100
AcDbVertex
100
AcDb2dVertex
 10
255.8267601120608
 20
-131.2717546426496
 30
0.0
  0
VERTEX
  5
1B3
330
1AF
100
AcDbEntity
  8
Layer 2
 62
    12
420
 14877971
370
    35
100
AcDbVertex
100
AcDb2dVertex
 10
253.1198019169174
 20
-134.3716583822486
 30
0.0
  0
SEQEND
  5
1B4
330
1AF
100
AcDbEntity
  8
Layer 2
 62
    12
420
 14877971
370
    35
  0
POLYLINE
  5
1B5
330
1F
100
AcDbEntity
  8
Layer 2
 62
    12
420
 14877971
370
    35
100
AcDb2dPolyline
 66
     1
 10
0.0
 20
0.0
 30
0.0
  0
VERTEX
  5
1B6
330
1B5
100
AcDbEntity
  8
Layer 2
 62
    12
420
 14877971
370
    35
100
AcDbVertex
100
AcDb2dVertex
 10
259.3196093961159
 20
-156.0709845594419
 30
0.0
  0
VERTEX
  5
1B7
330
1B5
100
AcDbEntity
  8
Layer 2
 62
    12
420
 14877971
370
    35
100
AcDbVertex
100
AcDb2dVertex
 10
258.6210395393047
 20
-137.4715621218475
 30
0.0
  0
SEQEND
  5
1B8
330
1B5
100
AcDbEntity
  8
Layer 2
 62
    12
420
 14877971
370
    35
  0
POLYLINE
  5
1B9
330
1F
100
AcDbEntity
  8
Layer 2
 62
    12
420
 14877971
370
    35
100
AcDb2dPolyline
 66
     1
 10
0.0
 20
0.0
 30
0.0
  0
VERTEX
  5
1BA
330
1B9
100
AcDbEntity
  8
Layer 2
 62
    12
420
 14877971
370
    35
100
AcDbVertex
100
AcDb2dVertex
 10
257.3985422898855
 20
-158.5159790582808
 30
0.0
  0
VERTEX
  5
1BB
330
1B9
100
AcDbEntity
  8
Layer 2
 62
    12
420
 14877971
370
    35
100
AcDbVertex
100
AcDb2dVertex
 10
258.9703244677103
 20
-162.3581132707415
 30
0.0
  0
VERTEX
  5
1BC
330
1B9
100
AcDbEntity
  8
Layer 2
 62
    12
420
 14877971
370
    35
100
AcDbVertex
100
AcDb2dVertex
 10
261.2406765023463
 20
-158.5159790582808
 30
0.0
  0
VERTEX
  5
1BD
330
1B9
100
AcDbEntity
  8
Layer 2
 62
    12
420
 14877971
370
    35
100
AcDbVertex
100
AcDb2dVertex
 10
257.3985422898855
 20
-158.5159790582808
 30
0.0
  0
SEQEND
  5
1BE
330
1B9
100
AcDbEntity
  8
Layer 2
 62
    12
420
 14877971
370
    35
  0
POLYLINE
  5
1BF
330
1F
100
AcDbEntity
  8
Layer 2
 62
    12
420
 14877971
370
    35
100
AcDb2dPolyline
 66
     1
 10
0.0
 20
0.0
 30
0.0
  0
VERTEX
  5
1C0
330
1BF
100
AcDbEntity
  8
Layer 2
 62
    12
420
 14877971
370
    35
100
AcDbVertex
100
AcDb2dVertex
 10
275.0374311743647
 20
-161.6595434139303
 30
0.0
  0
VERTEX
  5
1C1
330
1BF
100
AcDbEntity
  8
Layer 2
 62
    12
420
 14877971
370
    35
100
AcDbVertex
100
AcDb2dVertex
 10
277.6570681374058
 20
-164.6284653053776
 30
0.0
  0
VERTEX
  5
1C2
330
1BF
100
AcDbEntity
  8
Layer 2
 62
    12
420
 14877971
370
    35
100
AcDbVertex
100
AcDb2dVertex
 10
281.3245598856644
 20
-156.7695544162532
 30
0.0
  0
VERTEX
  5
1C3
330
1BF
100
AcDbEntity
  8
Layer 2
 62
    12
420
 14877971
370
    35
100
AcDbVertex
100
AcDb2dVertex
 10
275.0374311743647
 20
-161.6595434139303
 30
0.0
  0
SEQEND
  5
1C4
330
1BF
100
AcDbEntity
  8
Layer 2
 62
    12
420
 14877971
370
    35
  0
POLYLINE
  5
1C5
330
1F
100
AcDbEntity
  8
Layer 2
 62
    12
420
 14877971
370
    35
100
AcDb2dPolyline
 66
     1
 10
0.0
 20
0.0
 30
0.0
  0
VERTEX
  5
1C6
330
1C5
100
AcDbEntity
  8
Layer 2
 62
    12
420
 14877971
370
    35
100
AcDbVertex
100
AcDb2dVertex
 10
283.2456269918947
 20
-152.0162632537294
 30
0.0
  0
VERTEX
  5
1C7
330
1C5
100
AcDbEntity
  8
Layer 2
 62
    12
420
 14877971
370
    35
100
AcDbVertex
100
AcDb2dVertex
 10
283.2456269918947
 20
-158.5159790582808
 30
0.0
  0
VERTEX
  5
1C8
330
1C5
100
AcDbEntity
  8
Layer 2
 62
    12
420
 14877971
370
    35
100
AcDbVertex
100
AcDb2dVertex
 10
285.690621490733
 20
-155.2661211560054
 30
0.0
  0
VERTEX
  5
1C9
330
1C5
100
AcDbEntity
  8
Layer 2
 62
    12
420
 14877971
370
    35
100
AcDbVertex
100
AcDb2dVertex
 10
283.2456269918947
 20
-152.0162632537294
 30
0.0
  0
SEQEND
  5
1CA
330
1C5
100
AcDbEntity
  8
Layer 2
 62
    12
420
 14877971
370
    35
  0
POLYLINE
  5
1CB
330
1F
100
AcDbEntity
  8
Layer 2
 62
    12
420
 14877971
370
    35
100
AcDb2dPolyline
 66
     1
 10
0.0
 20
0.0
 30
0.0
  0
VERTEX
  5
1CC
330
1CB
100
AcDbEntity
  8
Layer 2
 62
    12
420
 14877971
370
    35
100
AcDbVertex
100
AcDb2dVertex
 10
136.1966721331671
 20
-92.50112758963584
 30
0.0
  0
VERTEX
  5
1CD
330
1CB
100
AcDbEntity
  8
Layer 2
 62
    12
420
 14877971
370
    35
100
AcDbVertex
100
AcDb2dVertex
 10
130.0841858860706
 20
-99.66146862194927
 30
0.0
  0
VERTEX
  5
1CE
330
1CB
100
AcDbEntity
  8
Layer 2
 62
    12
420
 14877971
370
    35
100
AcDbVertex
100
AcDb2dVertex
 10
125.7181242810013
 20
-111.5371561877373
 30
0.0
  0
VERTEX
  5
1CF
330
1CB
100
AcDbEntity
  8
Layer 2
 62
    12
420
 14877971
370
    35
100
AcDbVertex
100
AcDb2dVertex
 10
132.5291803849094
 20
-120.5749037102309
 30
0.0
  0
VERTEX
  5
1D0
330
1CB
100
AcDbEntity
  8
Layer 2
 62
    12
420
 14877971
370
    35
100
AcDbVertex
100
AcDb2dVertex
 10
155.494664427573
 20
-110.4893014025203
 30
0.0
  0
VERTEX
  5
1D1
330
1CB
100
AcDbEntity
  8
Layer 2
 62
    12
420
 14877971
370
    35
100
AcDbVertex
100
AcDb2dVertex
 10
164.6633937982176
 20
-96.8671891947054
 30
0.0
  0
VERTEX
  5
1D2
330
1CB
100
AcDbEntity
  8
Layer 2
 62
    12
420
 14877971
370
    35
100
AcDbVertex
100
AcDb2dVertex
 10
145.9766501285222
 20
-92.50112758963584
 30
0.0
  0
VERTEX
  5
1D3
330
1CB
100
AcDbEntity
  8
Layer 2
 62
    12
420
 14877971
370
    35
100
AcDbVertex
100
AcDb2dVertex
 10
136.1966721331671
 20
-92.50112758963584
 30
0.0
  0
SEQEND
  5
1D4
330
1CB
100
AcDbEntity
  8
Layer 2
 62
    12
420
 14877971
370
    35
  0
POLYLINE
  5
1D5
330
1F
100
AcDbEntity
  8
Layer 2
 62
    12
420
 14877971
370
    35
100
AcDb2dPolyline
 66
     1
 10
0.0
 20
0.0
 30
0.0
  0
VERTEX
  5
1D6
330
1D5
100
AcDbEntity
  8
Layer 2
 62
    12
420
 14877971
370
    35
100
AcDbVertex
100
AcDb2dVertex
 10
130.0841858860706
 20
-99.66146862194927
 30
0.0
  0
VERTEX
  5
1D7
330
1D5
100
AcDbEntity
  8
Layer 2
 62
    12
420
 14877971
370
    35
100
AcDbVertex
100
AcDb2dVertex
 10
155.494664427573
 20
-110.4893014025203
 30
0.0
  0
VERTEX
  5
1D8
330
1D5
100
AcDbEntity
  8
Layer 2
 62
    12
420
 14877971
370
    35
100
AcDbVertex
100
AcDb2dVertex
 10
145.9766501285222
 20
-92.50112758963584
 30
0.0
  0
VERTEX
  5
1D9
330
1D5
100
AcDbEntity
  8
Layer 2
 62
    12
420
 14877971
370
    35
100
AcDbVertex
100
AcDb2dVertex
 10
130.0841858860706
 20
-99.66146862194927
 30
0.0
  0
VERTEX
  5
1DA
330
1D5
100
AcDbEntity
  8
Layer 2
 62
    12
420
 14877971
370
    35
100
AcDbVertex
100
AcDb2dVertex
 10
132.5291803849094
 20
-120.5749037102309
 30
0.0
  0
SEQEND
  5
1DB
330
1D5
100
AcDbEntity
  8
Layer 2
 62
    12
420
 14877971
370
    35
  0
POLYLINE
  5
1DC
330
1F
100
AcDbEntity
  8
Layer 2
 62
    12
420
 14877971
370
    35
100
AcDb2dPolyline
 66
     1
 10
0.0
 20
0.0
 30
0.0
  0
VERTEX
  5
1DD
330
1DC
100
AcDbEntity
  8
Layer 2
 62
    12
420
 14877971
370
    35
100
AcDbVertex
100
AcDb2dVertex
 10
164.6633937982176
 20
-96.8671891947054
 30
0.0
  0
VERTEX
  5
1DE
330
1DC
100
AcDbEntity
  8
Layer 2
 62
    12
420
 14877971
370
    35
100
AcDbVertex
100
AcDb2dVertex
 10
176.0151539713972
 20
-115.2046479359952
 30
0.0
  0
VERTEX
  5
1DF
330
1DC
100
AcDbEntity
  8
Layer 2
 62
    12
420
 14877971
370
    35
100
AcDbVertex
100
AcDb2dVertex
 10
170.4484254249344
 20
-139.3053079959768
 30
0.0
  0
VERTEX
  5
1E0
330
1DC
100
AcDbEntity
  8
Layer 2
 62
    12
420
 14877971
370
    35
100
AcDbVertex
100
AcDb2dVertex
 10
158.9001924795265
 20
-155.2661211560054
 30
0.0
  0
VERTEX
  5
1E1
330
1DC
100
AcDbEntity
  8
Layer 2
 62
    12
420
 14877971
370
    35
100
AcDbVertex
100
AcDb2dVertex
 10
151.7398514472134
 20
-141.4010175664101
 30
0.0
  0
VERTEX
  5
1E2
330
1DC
100
AcDbEntity
  8
Layer 2
 62
    12
420
 14877971
370
    35
100
AcDbVertex
100
AcDb2dVertex
 10
150.5173541977936
 20
-125.5958745560596
 30
0.0
  0
VERTEX
  5
1E3
330
1DC
100
AcDbEntity
  8
Layer 2
 62
    12
420
 14877971
370
    35
100
AcDbVertex
100
AcDb2dVertex
 10
142.7894251568218
 20
-116.068978724847
 30
0.0
  0
SEQEND
  5
1E4
330
1DC
100
AcDbEntity
  8
Layer 2
 62
    12
420
 14877971
370
    35
  0
POLYLINE
  5
1E5
330
1F
100
AcDbEntity
  8
Layer 2
 62
    12
420
 14877971
370
    35
100
AcDb2dPolyline
 66
     1
 10
0.0
 20
0.0
 30
0.0
  0
VERTEX
  5
1E6
330
1E5
100
AcDbEntity
  8
Layer 2
 62
    12
420
 14877971
370
    35
100
AcDbVertex
100
AcDb2dVertex
 10
150.5173541977936
 20
-125.5958745560596
 30
0.0
  0
VERTEX
  5
1E7
330
1E5
100
AcDbEntity
  8
Layer 2
 62
    12
420
 14877971
370
    35
100
AcDbVertex
100
AcDb2dVertex
 10
155.494664427573
 20
-110.4893014025203
 30
0.0
  0
VERTEX
  5
1E8
330
1E5
100
AcDbEntity
  8
Layer 2
 62
    12
420
 14877971
370
    35
100
AcDbVertex
100
AcDb2dVertex
 10
176.0151539713972
 20
-115.2046479359952
 30
0.0
  0
VERTEX
  5
1E9
330
1E5
100
AcDbEntity
  8
Layer 2
 62
    12
420
 14877971
370
    35
100
AcDbVertex
100
AcDb2dVertex
 10
150.5173541977936
 20
-125.5958745560596
 30
0.0
  0
SEQEND
  5
1EA
330
1E5
100
AcDbEntity
  8
Layer 2
 62
    12
420
 14877971
370
    35
  0
POLYLINE
  5
1EB
330
1F
100
AcDbEntity
  8
Layer 2
 62
    12
420
 14877971
370
    35
100
AcDb2dPolyline
 66
     1
 10
0.0
 20
0.0
 30
0.0
  0
VERTEX
  5
1EC
330
1EB
100
AcDbEntity
  8
Layer 2
 62
    12
420
 14877971
370
    35
100
AcDbVertex
100
AcDb2dVertex
 10
150.5173541977936
 20
-125.5958745560596
 30
0.0
  0
VERTEX
  5
1ED
330
1EB
100
AcDbEntity
  8
Layer 2
 62
    12
420
 14877971
370
    35
100
AcDbVertex
100
AcDb2dVertex
 10
170.4484254249344
 20
-139.3053079959768
 30
0.0
  0
VERTEX
  5
1EE
330
1EB
100
AcDbEntity
  8
Layer 2
 62
    12
420
 14877971
370
    35
100
AcDbVertex
100
AcDb2dVertex
 10
151.7398514472134
 20
-141.4010175664101
 30
0.0
  0
SEQEND
  5
1EF
330
1EB
100
AcDbEntity
  8
Layer 2
 62
    12
420
 14877971
370
    35
  0
POLYLINE
  5
1F0
330
1F
100
AcDbEntity
  8
Layer 2
 62
    12
420
 14877971
370
    35
100
AcDb2dPolyline
 66
     1
 10
0.0
 20
0.0
 30
0.0
  0
VERTEX
  5
1F1
330
1F0
100
AcDbEntity
  8
Layer 2
 62
    12
420
 14877971
370
    35
100
AcDbVertex
100
AcDb2dVertex
 10
158.9001924795265
 20
-155.2661211560054
 30
0.0
  0
VERTEX
  5
1F2
330
1F0
100
AcDbEntity
  8
Layer 2
 62
    12
420
 14877971
370
    35
100
AcDbVertex
100
AcDb2dVertex
 10
163.6591996290519
 20
-158.5159790582808
 30
0.0
  0
VERTEX
  5
1F3
330
1F0
100
AcDbEntity
  8
Layer 2
 62
    12
420
 14877971
370
    35
100
AcDbVertex
100
AcDb2dVertex
 10
163.6591996290519
 20
-148.6886972072598
 30
0.0
  0
SEQEND
  5
1F4
330
1F0
100
AcDbEntity
  8
Layer 2
 62
    12
420
 14877971
370
    35
  0
POLYLINE
  5
1F5
330
1F
100
AcDbEntity
  8
Layer 2
 62
    12
420
 14877971
370
    35
100
AcDb2dPolyline
 66
     1
 10
0.0
 20
0.0
 30
0.0
  0
VERTEX
  5
1F6
330
1F5
100
AcDbEntity
  8
Layer 2
 62
    12
420
 14877971
370
    35
100
AcDbVertex
100
AcDb2dVertex
 10
175.1419416503837
 20
-140.3531627811938
 30
0.0
  0
VERTEX
  5
1F7
330
1F5
100
AcDbEntity
  8
Layer 2
 62
    12
420
 14877971
370
    35
100
AcDbVertex
100
AcDb2dVertex
 10
179.6826457196558
 20
-145.2431517788702
 30
0.0
  0
VERTEX
  5
1F8
330
1F5
100
AcDbEntity
  8
Layer 2
 62
    12
420
 14877971
370
    35
100
AcDbVertex
100
AcDb2dVertex
 10
179.6826457196558
 20
-132.6688943562716
 30
0.0
  0
VERTEX
  5
1F9
330
1F5
100
AcDbEntity
  8
Layer 2
 62
    12
420
 14877971
370
    35
100
AcDbVertex
100
AcDb2dVertex
 10
175.1419416503837
 20
-140.3531627811938
 30
0.0
  0
SEQEND
  5
1FA
330
1F5
100
AcDbEntity
  8
Layer 2
 62
    12
420
 14877971
370
    35
  0
POLYLINE
  5
1FB
330
1F
100
AcDbEntity
  8
Layer 2
 62
    12
420
 14877971
370
    35
100
AcDb2dPolyline
 66
     1
 10
0.0
 20
0.0
 30
0.0
  0
VERTEX
  5
1FC
330
1FB
100
AcDbEntity
  8
Layer 2
 62
    12
420
 14877971
370
    35
100
AcDbVertex
100
AcDb2dVertex
 10
176.0151539713972
 20
-115.2046479359952
 30
0.0
  0
VERTEX
  5
1FD
330
1FB
100
AcDbEntity
  8
Layer 2
 62
    12
420
 14877971
370
    35
100
AcDbVertex
100
AcDb2dVertex
 10
181.9529977542911
 20
-115.2046479359952
 30
0.0
  0
VERTEX
  5
1FE
330
1FB
100
AcDbEntity
  8
Layer 2
 62
    12
420
 14877971
370
    35
100
AcDbVertex
100
AcDb2dVertex
 10
174.2200857082259
 20
-122.9762375930185
 30
0.0
  0
SEQEND
  5
1FF
330
1FB
100
AcDbEntity
  8
Layer 2
 62
    12
420
 14877971
370
    35
  0
ENDSEC
  0
SECTION
  2
OBJECTS
  0
DICTIONARY
  5
C
330
0
100
AcDbDictionary
281
     1
  3
ACAD_GROUP
350
D
  3
ACAD_IMAGE_DICT
350
45
  3
ACAD_IMAGE_VARS
350
47
  3
ACAD_LAYOUT
350
1A
  3
ACAD_MATERIAL
350
3B
  3
ACAD_MLEADERSTYLE
350
201
  3
ACAD_MLINESTYLE
350
17
  3
ACAD_PLOTSETTINGS
350
19
  3
ACAD_PLOTSTYLENAME
350
E
  3
ACAD_TABLESTYLE
350
200
  3
ACAD_VISUALSTYLE
350
2A
  0
SUN
  5
3F
330
29
100
AcDbSun
 90
        1
290
     0
 63
     7
421
 16777215
 40
1.0
291
     1
 91
  2455826
 92
 54000000
292
     0
 70
     2
 71
   256
280
     1
  0
IMAGEDEF_REACTOR
  5
49
330
48
100
AcDbRasterImageDefReactor
 90
        2
330
48
  0
DICTIONARY
  5
D
102
{ACAD_REACTORS
330
C
102
}
330
C
100
AcDbDictionary
281
     1
  0
DICTIONARY
  5
45
102
{ACAD_REACTORS
330
C
102
}
330
C
100
AcDbDictionary
281
     1
  3
/Users/sb0526/OneDrive - University of Bristol/Projects/vector world map/worldmap-single-vector_1.png
350
46
  0
RASTERVARIABLES
  5
47
102
{ACAD_REACTORS
330
C
102
}
330
C
100
AcDbRasterVariables
 90
        0
 70
     0
 71
     1
 72
     0
  0
DICTIONARY
  5
1A
102
{ACAD_REACTORS
330
C
102
}
330
C
100
AcDbDictionary
281
     1
  3
Layout1
350
1E
  3
Layout2
350
26
  3
Model
350
22
  0
DICTIONARY
  5
3B
102
{ACAD_REACTORS
330
C
102
}
330
C
100
AcDbDictionary
281
     1
  3
ByBlock
350
3D
  3
ByLayer
350
3C
  3
Global
350
3E
  0
DICTIONARY
  5
201
102
{ACAD_REACTORS
330
C
102
}
330
C
100
AcDbDictionary
281
     1
  0
DICTIONARY
  5
17
102
{ACAD_REACTORS
330
C
102
}
330
C
100
AcDbDictionary
281
     1
  3
Standard
350
18
  0
DICTIONARY
  5
19
102
{ACAD_REACTORS
330
C
102
}
330
C
100
AcDbDictionary
281
     1
  0
ACDBDICTIONARYWDFLT
  5
E
102
{ACAD_REACTORS
330
C
102
}
330
C
100
AcDbDictionary
281
     1
  3
Normal
350
F
100
AcDbDictionaryWithDefault
340
F
  0
DICTIONARY
  5
200
102
{ACAD_REACTORS
330
C
102
}
330
C
100
AcDbDictionary
281
     1
  0
DICTIONARY
  5
2A
102
{ACAD_REACTORS
330
C
102
}
330
C
100
AcDbDictionary
281
     1
  3
2dWireframe
350
2F
  3
3D Hidden
350
31
  3
3dWireframe
350
30
  3
Basic
350
32
  3
Brighten
350
36
  3
ColorChange
350
3A
  3
Conceptual
350
34
  3
Dim
350
35
  3
Facepattern
350
39
  3
Flat
350
2B
  3
FlatWithEdges
350
2C
  3
Gouraud
350
2D
  3
GouraudWithEdges
350
2E
  3
Linepattern
350
38
  3
Realistic
350
33
  3
Thicken
350
37
  0
IMAGEDEF
  5
46
102
{ACAD_REACTORS
330
45
330
49
102
}
330
45
100
AcDbRasterImageDef
 90
        0
  1
/Users/sb0526/OneDrive - University of Bristol/Projects/vector world map/worldmap-single-vector_1.png
 10
628.0
 20
472.0
 11
0.3527777777777777
 21
0.3527777777777777
280
     1
281
     5
  0
LAYOUT
  5
1E
102
{ACAD_REACTORS
330
1A
102
}
330
1A
100
AcDbPlotSettings
  1

  2
none_device
  4

  6

 40
0.0
 41
0.0
 42
0.0
 43
0.0
 44
0.0
 45
0.0
 46
0.0
 47
0.0
 48
0.0
 49
0.0
140
0.0
141
0.0
142
1.0
143
1.0
 70
   688
 72
     0
 73
     0
 74
     5
  7

 75
    16
 76
     0
 77
     2
 78
   300
147
1.0
148
0.0
149
0.0
100
AcDbLayout
  1
Layout1
 70
     1
 71
     1
 10
0.0
 20
0.0
 11
12.0
 21
9.0
 12
0.0
 22
0.0
 32
0.0
 14
1.000000000000000E+20
 24
1.000000000000000E+20
 34
1.000000000000000E+20
 15
-1.000000000000000E+20
 25
-1.000000000000000E+20
 35
-1.000000000000000E+20
146
0.0
 13
0.0
 23
0.0
 33
0.0
 16
1.0
 26
0.0
 36
0.0
 17
0.0
 27
1.0
 37
0.0
 76
     0
330
1B
  0
LAYOUT
  5
26
102
{ACAD_REACTORS
330
1A
102
}
330
1A
100
AcDbPlotSettings
  1

  2
none_device
  4

  6

 40
0.0
 41
0.0
 42
0.0
 43
0.0
 44
0.0
 45
0.0
 46
0.0
 47
0.0
 48
0.0
 49
0.0
140
0.0
141
0.0
142
1.0
143
1.0
 70
   688
 72
     0
 73
     0
 74
     5
  7

 75
    16
 76
     0
 77
     2
 78
   300
147
1.0
148
0.0
149
0.0
100
AcDbLayout
  1
Layout2
 70
     1
 71
     2
 10
0.0
 20
0.0
 11
0.0
 21
0.0
 12
0.0
 22
0.0
 32
0.0
 14
0.0
 24
0.0
 34
0.0
 15
0.0
 25
0.0
 35
0.0
146
0.0
 13
0.0
 23
0.0
 33
0.0
 16
1.0
 26
0.0
 36
0.0
 17
0.0
 27
1.0
 37
0.0
 76
     0
330
23
  0
LAYOUT
  5
22
102
{ACAD_REACTORS
330
1A
102
}
330
1A
100
AcDbPlotSettings
  1

  2
none_device
  4

  6

 40
0.0
 41
0.0
 42
0.0
 43
0.0
 44
0.0
 45
0.0
 46
0.0
 47
0.0
 48
0.0
 49
0.0
140
0.0
141
0.0
142
1.0
143
1.0
 70
  1712
 72
     0
 73
     0
 74
     0
  7

 75
     0
 76
     0
 77
     2
 78
   300
147
1.0
148
0.0
149
0.0
100
AcDbLayout
  1
Model
 70
     1
 71
     0
 10
0.0
 20
0.0
 11
12.0
 21
9.0
 12
0.0
 22
0.0
 32
0.0
 14
1.000000000000000E+20
 24
1.000000000000000E+20
 34
1.000000000000000E+20
 15
-1.000000000000000E+20
 25
-1.000000000000000E+20
 35
-1.000000000000000E+20
146
0.0
 13
0.0
 23
0.0
 33
0.0
 16
1.0
 26
0.0
 36
0.0
 17
0.0
 27
1.0
 37
0.0
 76
     0
330
1F
331
29
  0
MATERIAL
  5
3D
102
{ACAD_REACTORS
330
3B
102
}
330
3B
100
AcDbMaterial
  1
ByBlock
 72
     1
 94
      127
  0
MATERIAL
  5
3C
102
{ACAD_REACTORS
330
3B
102
}
330
3B
100
AcDbMaterial
  1
ByLayer
 72
     1
 94
      127
  0
MATERIAL
  5
3E
102
{ACAD_REACTORS
330
3B
102
}
330
3B
100
AcDbMaterial
  1
Global
 72
     1
 94
      127
  0
MLINESTYLE
  5
18
102
{ACAD_REACTORS
330
17
102
}
330
17
100
AcDbMlineStyle
  2
Standard
 70
     0
  3

 62
   256
 51
90.0
 52
90.0
 71
     2
 49
0.5
 62
   256
  6
BYLAYER
 49
-0.5
 62
   256
  6
BYLAYER
  0
ACDBPLACEHOLDER
  5
F
102
{ACAD_REACTORS
330
E
102
}
330
E
  0
VISUALSTYLE
  5
2F
102
{ACAD_REACTORS
330
2A
102
}
330
2A
100
AcDbVisualStyle
  2
2dWireframe
 70
     4
177
     2
291
     0
 71
     0
176
     1
 72
     2
176
     1
 73
     0
176
     1
 90
        0
176
     1
 40
-0.6
176
     1
 41
-30.0
176
     1
 62
     5
 63
     7
421
 16777215
176
     1
 74
     1
176
     1
 91
        4
176
     1
 64
     7
176
     1
 65
   257
176
     1
 75
     1
176
     1
175
     1
176
     1
 42
1.0
176
     1
 92
        0
176
     1
 66
   257
176
     1
 43
1.0
176
     1
 76
     1
176
     1
 77
     6
176
     1
 78
     2
176
     1
 67
     7
176
     1
 79
     5
176
     1
170
     0
176
     1
171
     0
176
     1
290
     0
176
     1
 93
        1
176
     1
 44
0.0
176
     1
173
     0
176
     1
  0
VISUALSTYLE
  5
31
102
{ACAD_REACTORS
330
2A
102
}
330
2A
100
AcDbVisualStyle
  2
3D Hidden
 70
     6
177
     2
291
     0
 71
     1
176
     1
 72
     2
176
     1
 73
     2
176
     1
 90
        0
176
     1
 40
-0.6
176
     1
 41
-30.0
176
     1
 62
     5
 63
     7
421
 16777215
176
     1
 74
     2
176
     1
 91
        2
176
     1
 64
     7
176
     1
 65
   257
176
     1
 75
     2
176
     1
175
     1
176
     1
 42
40.0
176
     1
 92
        0
176
     1
 66
   257
176
     1
 43
1.0
176
     1
 76
     1
176
     1
 77
     6
176
     1
 78
     2
176
     1
 67
     7
176
     1
 79
     3
176
     1
170
     0
176
     1
171
     0
176
     1
290
     0
176
     1
 93
        1
176
     1
 44
0.0
176
     1
173
     0
176
     1
  0
VISUALSTYLE
  5
30
102
{ACAD_REACTORS
330
2A
102
}
330
2A
100
AcDbVisualStyle
  2
3dWireframe
 70
     5
177
     2
291
     0
 71
     0
176
     1
 72
     2
176
     1
 73
     0
176
     1
 90
        0
176
     1
 40
-0.6
176
     1
 41
-30.0
176
     1
 62
     5
 63
     7
421
 16777215
176
     1
 74
     1
176
     1
 91
        4
176
     1
 64
     7
176
     1
 65
   257
176
     1
 75
     1
176
     1
175
     1
176
     1
 42
1.0
176
     1
 92
        0
176
     1
 66
   257
176
     1
 43
1.0
176
     1
 76
     1
176
     1
 77
     6
176
     1
 78
     2
176
     1
 67
     7
176
     1
 79
     5
176
     1
170
     0
176
     1
171
     0
176
     1
290
     0
176
     1
 93
        1
176
     1
 44
0.0
176
     1
173
     0
176
     1
  0
VISUALSTYLE
  5
32
102
{ACAD_REACTORS
330
2A
102
}
330
2A
100
AcDbVisualStyle
  2
Basic
 70
     7
177
     2
291
     1
 71
     1
176
     1
 72
     0
176
     1
 73
     1
176
     1
 90
        0
176
     1
 40
-0.6
176
     1
 41
-30.0
176
     1
 62
     5
 63
     7
421
 16777215
176
     1
 74
     0
176
     1
 91
        4
176
     1
 64
     7
176
     1
 65
   257
176
     1
 75
     1
176
     1
175
     1
176
     1
 42
1.0
176
     1
 92
        8
176
     1
 66
     7
176
     1
 43
1.0
176
     1
 76
     1
176
     1
 77
     6
176
     1
 78
     2
176
     1
 67
     7
176
     1
 79
     5
176
     1
170
     0
176
     1
171
     0
176
     1
290
     0
176
     1
 93
        1
176
     1
 44
0.0
176
     1
173
     0
176
     1
  0
VISUALSTYLE
  5
36
102
{ACAD_REACTORS
330
2A
102
}
330
2A
100
AcDbVisualStyle
  2
Brighten
 70
    12
177
     2
291
     1
 71
     2
176
     1
 72
     2
176
     1
 73
     0
176
     1
 90
        0
176
     1
 40
-0.6
176
     1
 41
-30.0
176
     1
 62
     5
 63
     7
421
 16777215
176
     1
 74
     1
176
     1
 91
        4
176
     1
 64
     7
176
     1
 65
   257
176
     1
 75
     1
176
     1
175
     1
176
     1
 42
1.0
176
     1
 92
        8
176
     1
 66
     7
176
     1
 43
1.0
176
     1
 76
     1
176
     1
 77
     6
176
     1
 78
     2
176
     1
 67
     7
176
     1
 79
     5
176
     1
170
     0
176
     1
171
     0
176
     1
290
     0
176
     1
 93
        1
176
     1
 44
50.0
176
     1
173
     0
176
     1
  0
VISUALSTYLE
  5
3A
102
{ACAD_REACTORS
330
2A
102
}
330
2A
100
AcDbVisualStyle
  2
ColorChange
 70
    16
177
     2
291
     1
 71
     2
176
     1
 72
     2
176
     1
 73
     3
176
     1
 90
        0
176
     1
 40
-0.6
176
     1
 41
-30.0
176
     1
 62
     5
 63
     8
421
  8421504
176
     1
 74
     1
176
     1
 91
        4
176
     1
 64
     7
176
     1
 65
   257
176
     1
 75
     1
176
     1
175
     1
176
     1
 42
1.0
176
     1
 92
        8
176
     1
 66
     8
424
  8421504
176
     1
 43
1.0
176
     1
 76
     1
176
     1
 77
     6
176
     1
 78
     2
176
     1
 67
     7
176
     1
 79
     5
176
     1
170
     0
176
     1
171
     0
176
     1
290
     0
176
     1
 93
        1
176
     1
 44
0.0
176
     1
173
     0
176
     1
  0
VISUALSTYLE
  5
34
102
{ACAD_REACTORS
330
2A
102
}
330
2A
100
AcDbVisualStyle
  2
Conceptual
 70
     9
177
     2
291
     0
 71
     3
176
     1
 72
     2
176
     1
 73
     0
176
     1
 90
        0
176
     1
 40
-0.6
176
     1
 41
-30.0
176
     1
 62
     5
 63
     7
421
 16777215
176
     1
 74
     2
176
     1
 91
        2
176
     1
 64
     7
176
     1
 65
   257
176
     1
 75
     1
176
     1
175
     1
176
     1
 42
40.0
176
     1
 92
        8
176
     1
 66
     7
176
     1
 43
1.0
176
     1
 76
     1
176
     1
 77
     6
176
     1
 78
     2
176
     1
 67
     7
176
     1
 79
     3
176
     1
170
     0
176
     1
171
     0
176
     1
290
     0
176
     1
 93
        1
176
     1
 44
0.0
176
     1
173
     0
176
     1
  0
VISUALSTYLE
  5
35
102
{ACAD_REACTORS
330
2A
102
}
330
2A
100
AcDbVisualStyle
  2
Dim
 70
    11
177
     2
291
     1
 71
     2
176
     1
 72
     2
176
     1
 73
     0
176
     1
 90
        0
176
     1
 40
-0.6
176
     1
 41
-30.0
176
     1
 62
     5
 63
     7
421
 16777215
176
     1
 74
     1
176
     1
 91
        4
176
     1
 64
     7
176
     1
 65
   257
176
     1
 75
     1
176
     1
175
     1
176
     1
 42
1.0
176
     1
 92
        8
176
     1
 66
     7
176
     1
 43
1.0
176
     1
 76
     1
176
     1
 77
     6
176
     1
 78
     2
176
     1
 67
     7
176
     1
 79
     5
176
     1
170
     0
176
     1
171
     0
176
     1
290
     0
176
     1
 93
        1
176
     1
 44
-50.0
176
     1
173
     0
176
     1
  0
VISUALSTYLE
  5
39
102
{ACAD_REACTORS
330
2A
102
}
330
2A
100
AcDbVisualStyle
  2
Facepattern
 70
    15
177
     2
291
     1
 71
     2
176
     1
 72
     2
176
     1
 73
     0
176
     1
 90
        0
176
     1
 40
-0.6
176
     1
 41
-30.0
176
     1
 62
     5
 63
     7
421
 16777215
176
     1
 74
     1
176
     1
 91
        4
176
     1
 64
     7
176
     1
 65
   257
176
     1
 75
     1
176
     1
175
     1
176
     1
 42
1.0
176
     1
 92
        8
176
     1
 66
     7
176
     1
 43
1.0
176
     1
 76
     1
176
     1
 77
     6
176
     1
 78
     2
176
     1
 67
     7
176
     1
 79
     5
176
     1
170
     0
176
     1
171
     0
176
     1
290
     0
176
     1
 93
        1
176
     1
 44
0.0
176
     1
173
     0
176
     1
  0
VISUALSTYLE
  5
2B
102
{ACAD_REACTORS
330
2A
102
}
330
2A
100
AcDbVisualStyle
  2
Flat
 70
     0
177
     2
291
     1
 71
     2
176
     1
 72
     1
176
     1
 73
     1
176
     1
 90
        2
176
     1
 40
-0.6
176
     1
 41
30.0
176
     1
 62
     5
 63
     7
421
 16777215
176
     1
 74
     0
176
     1
 91
        4
176
     1
 64
     7
176
     1
 65
   257
176
     1
 75
     1
176
     1
175
     1
176
     1
 42
1.0
176
     1
 92
        8
176
     1
 66
     7
176
     1
 43
1.0
176
     1
 76
     1
176
     1
 77
     6
176
     1
 78
     2
176
     1
 67
     7
176
     1
 79
     5
176
     1
170
     0
176
     1
171
     0
176
     1
290
     0
176
     1
 93
       13
176
     1
 44
0.0
176
     1
173
     0
176
     1
  0
VISUALSTYLE
  5
2C
102
{ACAD_REACTORS
330
2A
102
}
330
2A
100
AcDbVisualStyle
  2
FlatWithEdges
 70
     1
177
     2
291
     1
 71
     2
176
     1
 72
     1
176
     1
 73
     1
176
     1
 90
        2
176
     1
 40
-0.6
176
     1
 41
30.0
176
     1
 62
     5
 63
     7
421
 16777215
176
     1
 74
     1
176
     1
 91
        4
176
     1
 64
     7
176
     1
 65
   257
176
     1
 75
     1
176
     1
175
     1
176
     1
 42
1.0
176
     1
 92
        0
176
     1
 66
   257
176
     1
 43
1.0
176
     1
 76
     1
176
     1
 77
     6
176
     1
 78
     2
176
     1
 67
     7
176
     1
 79
     5
176
     1
170
     0
176
     1
171
     0
176
     1
290
     0
176
     1
 93
       13
176
     1
 44
0.0
176
     1
173
     0
176
     1
  0
VISUALSTYLE
  5
2D
102
{ACAD_REACTORS
330
2A
102
}
330
2A
100
AcDbVisualStyle
  2
Gouraud
 70
     2
177
     2
291
     1
 71
     2
176
     1
 72
     2
176
     1
 73
     1
176
     1
 90
        2
176
     1
 40
-0.6
176
     1
 41
30.0
176
     1
 62
     5
 63
     7
421
 16777215
176
     1
 74
     0
176
     1
 91
        4
176
     1
 64
     7
176
     1
 65
   257
176
     1
 75
     1
176
     1
175
     1
176
     1
 42
1.0
176
     1
 92
        0
176
     1
 66
     7
176
     1
 43
1.0
176
     1
 76
     1
176
     1
 77
     6
176
     1
 78
     2
176
     1
 67
     7
176
     1
 79
     5
176
     1
170
     0
176
     1
171
     0
176
     1
290
     0
176
     1
 93
       13
176
     1
 44
0.0
176
     1
173
     0
176
     1
  0
VISUALSTYLE
  5
2E
102
{ACAD_REACTORS
330
2A
102
}
330
2A
100
AcDbVisualStyle
  2
GouraudWithEdges
 70
     3
177
     2
291
     1
 71
     2
176
     1
 72
     2
176
     1
 73
     1
176
     1
 90
        2
176
     1
 40
-0.6
176
     1
 41
30.0
176
     1
 62
     5
 63
     7
421
 16777215
176
     1
 74
     1
176
     1
 91
        4
176
     1
 64
     7
176
     1
 65
   257
176
     1
 75
     1
176
     1
175
     1
176
     1
 42
1.0
176
     1
 92
        0
176
     1
 66
   257
176
     1
 43
1.0
176
     1
 76
     1
176
     1
 77
     6
176
     1
 78
     2
176
     1
 67
     7
176
     1
 79
     5
176
     1
170
     0
176
     1
171
     0
176
     1
290
     0
176
     1
 93
       13
176
     1
 44
0.0
176
     1
173
     0
176
     1
  0
VISUALSTYLE
  5
38
102
{ACAD_REACTORS
330
2A
102
}
330
2A
100
AcDbVisualStyle
  2
Linepattern
 70
    14
177
     2
291
     1
 71
     2
176
     1
 72
     2
176
     1
 73
     0
176
     1
 90
        0
176
     1
 40
-0.6
176
     1
 41
-30.0
176
     1
 62
     5
 63
     7
421
 16777215
176
     1
 74
     1
176
     1
 91
        4
176
     1
 64
     7
176
     1
 65
   257
176
     1
 75
     7
176
     1
175
     7
176
     1
 42
1.0
176
     1
 92
        8
176
     1
 66
     7
176
     1
 43
1.0
176
     1
 76
     1
176
     1
 77
     6
176
     1
 78
     2
176
     1
 67
     7
176
     1
 79
     5
176
     1
170
     0
176
     1
171
     0
176
     1
290
     0
176
     1
 93
        1
176
     1
 44
0.0
176
     1
173
     0
176
     1
  0
VISUALSTYLE
  5
33
102
{ACAD_REACTORS
330
2A
102
}
330
2A
100
AcDbVisualStyle
  2
Realistic
 70
     8
177
     2
291
     0
 71
     2
176
     1
 72
     2
176
     1
 73
     0
176
     1
 90
        0
176
     1
 40
-0.6
176
     1
 41
-30.0
176
     1
 62
     5
 63
     7
421
 16777215
176
     1
 74
     1
176
     1
 91
        0
176
     1
 64
     7
176
     1
 65
   257
176
     1
 75
     1
176
     1
175
     1
176
     1
 42
1.0
176
     1
 92
        8
176
     1
 66
     8
424
  7895160
176
     1
 43
1.0
176
     1
 76
     1
176
     1
 77
     6
176
     1
 78
     2
176
     1
 67
     7
176
     1
 79
     5
176
     1
170
     0
176
     1
171
     0
176
     1
290
     0
176
     1
 93
       13
176
     1
 44
0.0
176
     1
173
     0
176
     1
  0
VISUALSTYLE
  5
37
102
{ACAD_REACTORS
330
2A
102
}
330
2A
100
AcDbVisualStyle
  2
Thicken
 70
    13
177
     2
291
     1
 71
     2
176
     1
 72
     2
176
     1
 73
     0
176
     1
 90
        0
176
     1
 40
-0.6
176
     1
 41
-30.0
176
     1
 62
     5
 63
     7
421
 16777215
176
     1
 74
     1
176
     1
 91
        4
176
     1
 64
     7
176
     1
 65
   257
176
     1
 75
     1
176
     1
175
     1
176
     1
 42
1.0
176
     1
 92
       12
176
     1
 66
     7
176
     1
 43
1.0
176
     1
 76
     1
176
     1
 77
     6
176
     1
 78
     2
176
     1
 67
     7
176
     1
 79
     5
176
     1
170
     0
176
     1
171
     0
176
     1
290
     0
176
     1
 93
        1
176
     1
 44
0.0
176
     1
173
     0
176
     1
  0
ENDSEC
  0
EOF
