solid CATIA STL
  facet normal  0.000000e+000  9.999999e-001  0.000000e+000
    outer loop
      vertex -5.000000e-001  6.000000e-001  5.500000e+001
      vertex  5.000000e-001  6.000000e-001  5.500000e+001
      vertex  1.450000e+001  6.000000e-001  8.400000e+000
    endloop
  endfacet
  facet normal  0.000000e+000  9.999999e-001  0.000000e+000
    outer loop
      vertex -5.000000e-001  6.000000e-001  5.500000e+001
      vertex  1.450000e+001  6.000000e-001  8.400000e+000
      vertex -1.450000e+001  6.000000e-001  8.400000e+000
    endloop
  endfacet
  facet normal  0.000000e+000  1.000000e+000  -0.000000e+000
    outer loop
      vertex -5.000000e-001  6.000000e-001  5.500000e+001
      vertex -1.450000e+001  6.000000e-001  8.400000e+000
      vertex -2.250000e+001  6.000000e-001  1.250000e+002
    endloop
  endfacet
  facet normal  -0.000000e+000  9.999999e-001  0.000000e+000
    outer loop
      vertex -5.000000e-001  6.000000e-001  5.500000e+001
      vertex -2.250000e+001  6.000000e-001  1.250000e+002
      vertex -2.246178e+001  6.000000e-001  1.260701e+002
    endloop
  endfacet
  facet normal  -0.000000e+000  1.000000e+000  0.000000e+000
    outer loop
      vertex -5.000000e-001  6.000000e-001  5.500000e+001
      vertex -2.246178e+001  6.000000e-001  1.260701e+002
      vertex -2.234732e+001  6.000000e-001  1.271347e+002
    endloop
  endfacet
  facet normal  -0.000000e+000  9.999999e-001  0.000000e+000
    outer loop
      vertex -5.000000e-001  6.000000e-001  5.500000e+001
      vertex -2.234732e+001  6.000000e-001  1.271347e+002
      vertex -2.215720e+001  6.000000e-001  1.281885e+002
    endloop
  endfacet
  facet normal  -0.000000e+000  1.000000e+000  0.000000e+000
    outer loop
      vertex -5.000000e-001  6.000000e-001  5.500000e+001
      vertex -2.215720e+001  6.000000e-001  1.281885e+002
      vertex -2.189240e+001  6.000000e-001  1.292260e+002
    endloop
  endfacet
  facet normal  -0.000000e+000  1.000000e+000  0.000000e+000
    outer loop
      vertex -5.000000e-001  6.000000e-001  5.500000e+001
      vertex -2.189240e+001  6.000000e-001  1.292260e+002
      vertex -2.155424e+001  6.000000e-001  1.302420e+002
    endloop
  endfacet
  facet normal  -0.000000e+000  1.000000e+000  0.000000e+000
    outer loop
      vertex -5.000000e-001  6.000000e-001  5.500000e+001
      vertex -2.155424e+001  6.000000e-001  1.302420e+002
      vertex -2.114448e+001  6.000000e-001  1.312312e+002
    endloop
  endfacet
  facet normal  -0.000000e+000  9.999999e-001  0.000000e+000
    outer loop
      vertex -5.000000e-001  6.000000e-001  5.500000e+001
      vertex -2.114448e+001  6.000000e-001  1.312312e+002
      vertex -2.066518e+001  6.000000e-001  1.321887e+002
    endloop
  endfacet
  facet normal  -0.000000e+000  1.000000e+000  0.000000e+000
    outer loop
      vertex -5.000000e-001  6.000000e-001  5.500000e+001
      vertex -2.066518e+001  6.000000e-001  1.321887e+002
      vertex -2.011880e+001  6.000000e-001  1.331096e+002
    endloop
  endfacet
  facet normal  -0.000000e+000  1.000000e+000  0.000000e+000
    outer loop
      vertex -5.000000e-001  6.000000e-001  5.500000e+001
      vertex -2.011880e+001  6.000000e-001  1.331096e+002
      vertex -1.950812e+001  6.000000e-001  1.339892e+002
    endloop
  endfacet
  facet normal  -0.000000e+000  1.000000e+000  0.000000e+000
    outer loop
      vertex -5.000000e-001  6.000000e-001  5.500000e+001
      vertex -1.950812e+001  6.000000e-001  1.339892e+002
      vertex -1.883624e+001  6.000000e-001  1.348229e+002
    endloop
  endfacet
  facet normal  -0.000000e+000  1.000000e+000  0.000000e+000
    outer loop
      vertex -5.000000e-001  6.000000e-001  5.500000e+001
      vertex -1.883624e+001  6.000000e-001  1.348229e+002
      vertex -1.810660e+001  6.000000e-001  1.356066e+002
    endloop
  endfacet
  facet normal  -0.000000e+000  1.000000e+000  0.000000e+000
    outer loop
      vertex -5.000000e-001  6.000000e-001  5.500000e+001
      vertex -1.810660e+001  6.000000e-001  1.356066e+002
      vertex -1.732291e+001  6.000000e-001  1.363362e+002
    endloop
  endfacet
  facet normal  -0.000000e+000  9.999999e-001  0.000000e+000
    outer loop
      vertex -5.000000e-001  6.000000e-001  5.500000e+001
      vertex -1.732291e+001  6.000000e-001  1.363362e+002
      vertex -1.648916e+001  6.000000e-001  1.370081e+002
    endloop
  endfacet
  facet normal  -0.000000e+000  1.000000e+000  0.000000e+000
    outer loop
      vertex -5.000000e-001  6.000000e-001  5.500000e+001
      vertex -1.648916e+001  6.000000e-001  1.370081e+002
      vertex -1.560961e+001  6.000000e-001  1.376188e+002
    endloop
  endfacet
  facet normal  -0.000000e+000  1.000000e+000  0.000000e+000
    outer loop
      vertex -5.000000e-001  6.000000e-001  5.500000e+001
      vertex -1.560961e+001  6.000000e-001  1.376188e+002
      vertex -1.468874e+001  6.000000e-001  1.381652e+002
    endloop
  endfacet
  facet normal  -0.000000e+000  9.999999e-001  0.000000e+000
    outer loop
      vertex -5.000000e-001  6.000000e-001  5.500000e+001
      vertex -1.468874e+001  6.000000e-001  1.381652e+002
      vertex -1.373123e+001  6.000000e-001  1.386445e+002
    endloop
  endfacet
  facet normal  -0.000000e+000  1.000000e+000  0.000000e+000
    outer loop
      vertex -5.000000e-001  6.000000e-001  5.500000e+001
      vertex -1.373123e+001  6.000000e-001  1.386445e+002
      vertex -1.274196e+001  6.000000e-001  1.390542e+002
    endloop
  endfacet
  facet normal  -0.000000e+000  1.000000e+000  0.000000e+000
    outer loop
      vertex -5.000000e-001  6.000000e-001  5.500000e+001
      vertex -1.274196e+001  6.000000e-001  1.390542e+002
      vertex -1.172599e+001  6.000000e-001  1.393924e+002
    endloop
  endfacet
  facet normal  -0.000000e+000  1.000000e+000  0.000000e+000
    outer loop
      vertex -5.000000e-001  6.000000e-001  5.500000e+001
      vertex -1.172599e+001  6.000000e-001  1.393924e+002
      vertex -1.068848e+001  6.000000e-001  1.396572e+002
    endloop
  endfacet
  facet normal  -0.000000e+000  1.000000e+000  0.000000e+000
    outer loop
      vertex -5.000000e-001  6.000000e-001  5.500000e+001
      vertex -1.068848e+001  6.000000e-001  1.396572e+002
      vertex -9.634723e+000  6.000000e-001  1.398473e+002
    endloop
  endfacet
  facet normal  -0.000000e+000  9.999999e-001  0.000000e+000
    outer loop
      vertex -5.000000e-001  6.000000e-001  5.500000e+001
      vertex -9.634723e+000  6.000000e-001  1.398473e+002
      vertex -8.570087e+000  6.000000e-001  1.399618e+002
    endloop
  endfacet
  facet normal  -0.000000e+000  1.000000e+000  0.000000e+000
    outer loop
      vertex -5.000000e-001  6.000000e-001  5.500000e+001
      vertex -8.570087e+000  6.000000e-001  1.399618e+002
      vertex -7.500000e+000  6.000000e-001  1.400000e+002
    endloop
  endfacet
  facet normal  -0.000000e+000  1.000000e+000  0.000000e+000
    outer loop
      vertex -5.000000e-001  6.000000e-001  5.500000e+001
      vertex -7.500000e+000  6.000000e-001  1.400000e+002
      vertex -5.000000e-001  6.000000e-001  1.400000e+002
    endloop
  endfacet
  facet normal  -0.000000e+000  1.000000e+000  0.000000e+000
    outer loop
      vertex  5.000000e-001  6.000000e-001  5.500000e+001
      vertex  5.000000e-001  6.000000e-001  1.400000e+002
      vertex  7.500000e+000  6.000000e-001  1.400000e+002
    endloop
  endfacet
  facet normal  0.000000e+000  1.000000e+000  0.000000e+000
    outer loop
      vertex  5.000000e-001  6.000000e-001  5.500000e+001
      vertex  7.500000e+000  6.000000e-001  1.400000e+002
      vertex  8.570087e+000  6.000000e-001  1.399618e+002
    endloop
  endfacet
  facet normal  0.000000e+000  9.999999e-001  0.000000e+000
    outer loop
      vertex  5.000000e-001  6.000000e-001  5.500000e+001
      vertex  8.570087e+000  6.000000e-001  1.399618e+002
      vertex  9.634723e+000  6.000000e-001  1.398473e+002
    endloop
  endfacet
  facet normal  0.000000e+000  1.000000e+000  0.000000e+000
    outer loop
      vertex  5.000000e-001  6.000000e-001  5.500000e+001
      vertex  9.634723e+000  6.000000e-001  1.398473e+002
      vertex  1.068848e+001  6.000000e-001  1.396572e+002
    endloop
  endfacet
  facet normal  0.000000e+000  1.000000e+000  0.000000e+000
    outer loop
      vertex  5.000000e-001  6.000000e-001  5.500000e+001
      vertex  1.068848e+001  6.000000e-001  1.396572e+002
      vertex  1.172599e+001  6.000000e-001  1.393924e+002
    endloop
  endfacet
  facet normal  0.000000e+000  1.000000e+000  0.000000e+000
    outer loop
      vertex  5.000000e-001  6.000000e-001  5.500000e+001
      vertex  1.172599e+001  6.000000e-001  1.393924e+002
      vertex  1.274196e+001  6.000000e-001  1.390542e+002
    endloop
  endfacet
  facet normal  0.000000e+000  1.000000e+000  0.000000e+000
    outer loop
      vertex  5.000000e-001  6.000000e-001  5.500000e+001
      vertex  1.274196e+001  6.000000e-001  1.390542e+002
      vertex  1.373123e+001  6.000000e-001  1.386445e+002
    endloop
  endfacet
  facet normal  0.000000e+000  9.999999e-001  0.000000e+000
    outer loop
      vertex  5.000000e-001  6.000000e-001  5.500000e+001
      vertex  1.373123e+001  6.000000e-001  1.386445e+002
      vertex  1.468874e+001  6.000000e-001  1.381652e+002
    endloop
  endfacet
  facet normal  0.000000e+000  1.000000e+000  0.000000e+000
    outer loop
      vertex  5.000000e-001  6.000000e-001  5.500000e+001
      vertex  1.468874e+001  6.000000e-001  1.381652e+002
      vertex  1.560961e+001  6.000000e-001  1.376188e+002
    endloop
  endfacet
  facet normal  0.000000e+000  1.000000e+000  0.000000e+000
    outer loop
      vertex  5.000000e-001  6.000000e-001  5.500000e+001
      vertex  1.560961e+001  6.000000e-001  1.376188e+002
      vertex  1.648916e+001  6.000000e-001  1.370081e+002
    endloop
  endfacet
  facet normal  0.000000e+000  9.999999e-001  0.000000e+000
    outer loop
      vertex  5.000000e-001  6.000000e-001  5.500000e+001
      vertex  1.648916e+001  6.000000e-001  1.370081e+002
      vertex  1.732291e+001  6.000000e-001  1.363362e+002
    endloop
  endfacet
  facet normal  0.000000e+000  1.000000e+000  0.000000e+000
    outer loop
      vertex  5.000000e-001  6.000000e-001  5.500000e+001
      vertex  1.732291e+001  6.000000e-001  1.363362e+002
      vertex  1.810660e+001  6.000000e-001  1.356066e+002
    endloop
  endfacet
  facet normal  0.000000e+000  1.000000e+000  0.000000e+000
    outer loop
      vertex  5.000000e-001  6.000000e-001  5.500000e+001
      vertex  1.810660e+001  6.000000e-001  1.356066e+002
      vertex  1.883624e+001  6.000000e-001  1.348229e+002
    endloop
  endfacet
  facet normal  0.000000e+000  1.000000e+000  0.000000e+000
    outer loop
      vertex  5.000000e-001  6.000000e-001  5.500000e+001
      vertex  1.883624e+001  6.000000e-001  1.348229e+002
      vertex  1.950812e+001  6.000000e-001  1.339892e+002
    endloop
  endfacet
  facet normal  0.000000e+000  1.000000e+000  0.000000e+000
    outer loop
      vertex  5.000000e-001  6.000000e-001  5.500000e+001
      vertex  1.950812e+001  6.000000e-001  1.339892e+002
      vertex  2.011880e+001  6.000000e-001  1.331096e+002
    endloop
  endfacet
  facet normal  0.000000e+000  1.000000e+000  0.000000e+000
    outer loop
      vertex  5.000000e-001  6.000000e-001  5.500000e+001
      vertex  2.011880e+001  6.000000e-001  1.331096e+002
      vertex  2.066518e+001  6.000000e-001  1.321887e+002
    endloop
  endfacet
  facet normal  0.000000e+000  9.999999e-001  0.000000e+000
    outer loop
      vertex  5.000000e-001  6.000000e-001  5.500000e+001
      vertex  2.066518e+001  6.000000e-001  1.321887e+002
      vertex  2.114448e+001  6.000000e-001  1.312312e+002
    endloop
  endfacet
  facet normal  0.000000e+000  1.000000e+000  0.000000e+000
    outer loop
      vertex  5.000000e-001  6.000000e-001  5.500000e+001
      vertex  2.114448e+001  6.000000e-001  1.312312e+002
      vertex  2.155424e+001  6.000000e-001  1.302420e+002
    endloop
  endfacet
  facet normal  0.000000e+000  1.000000e+000  0.000000e+000
    outer loop
      vertex  5.000000e-001  6.000000e-001  5.500000e+001
      vertex  2.155424e+001  6.000000e-001  1.302420e+002
      vertex  2.189240e+001  6.000000e-001  1.292260e+002
    endloop
  endfacet
  facet normal  0.000000e+000  1.000000e+000  0.000000e+000
    outer loop
      vertex  5.000000e-001  6.000000e-001  5.500000e+001
      vertex  2.189240e+001  6.000000e-001  1.292260e+002
      vertex  2.215720e+001  6.000000e-001  1.281885e+002
    endloop
  endfacet
  facet normal  0.000000e+000  9.999999e-001  0.000000e+000
    outer loop
      vertex  5.000000e-001  6.000000e-001  5.500000e+001
      vertex  2.215720e+001  6.000000e-001  1.281885e+002
      vertex  2.234732e+001  6.000000e-001  1.271347e+002
    endloop
  endfacet
  facet normal  0.000000e+000  1.000000e+000  0.000000e+000
    outer loop
      vertex  5.000000e-001  6.000000e-001  5.500000e+001
      vertex  2.234732e+001  6.000000e-001  1.271347e+002
      vertex  2.246178e+001  6.000000e-001  1.260701e+002
    endloop
  endfacet
  facet normal  0.000000e+000  9.999999e-001  0.000000e+000
    outer loop
      vertex  5.000000e-001  6.000000e-001  5.500000e+001
      vertex  2.246178e+001  6.000000e-001  1.260701e+002
      vertex  2.250000e+001  6.000000e-001  1.250000e+002
    endloop
  endfacet
  facet normal  0.000000e+000  1.000000e+000  0.000000e+000
    outer loop
      vertex  5.000000e-001  6.000000e-001  5.500000e+001
      vertex  2.250000e+001  6.000000e-001  1.250000e+002
      vertex  1.450000e+001  6.000000e-001  8.400000e+000
    endloop
  endfacet
  facet normal  0.000000e+000  1.000000e+000  0.000000e+000
    outer loop
      vertex  1.450000e+001  6.000000e-001  8.400000e+000
      vertex  2.250000e+001  6.000000e-001  1.250000e+002
      vertex  1.450000e+001  6.000000e-001  3.000000e+000
    endloop
  endfacet
  facet normal  -0.000000e+000  1.000000e+000  0.000000e+000
    outer loop
      vertex  1.450000e+001  6.000000e-001  3.000000e+000
      vertex  2.250000e+001  6.000000e-001  1.250000e+002
      vertex  2.250000e+001  6.000000e-001  0.000000e+000
    endloop
  endfacet
  facet normal  0.000000e+000  1.000000e+000  0.000000e+000
    outer loop
      vertex  1.450000e+001  6.000000e-001  3.000000e+000
      vertex  2.250000e+001  6.000000e-001  0.000000e+000
      vertex  5.000000e-001  6.000000e-001  3.000000e+000
    endloop
  endfacet
  facet normal  0.000000e+000  1.000000e+000  0.000000e+000
    outer loop
      vertex  5.000000e-001  6.000000e-001  3.000000e+000
      vertex  2.250000e+001  6.000000e-001  0.000000e+000
      vertex  5.000000e-001  6.000000e-001  0.000000e+000
    endloop
  endfacet
  facet normal  0.000000e+000  1.000000e+000  0.000000e+000
    outer loop
      vertex -2.250000e+001  6.000000e-001  1.250000e+002
      vertex -1.450000e+001  6.000000e-001  8.400000e+000
      vertex -2.250000e+001  6.000000e-001  0.000000e+000
    endloop
  endfacet
  facet normal  0.000000e+000  1.000000e+000  0.000000e+000
    outer loop
      vertex -2.250000e+001  6.000000e-001  0.000000e+000
      vertex -1.450000e+001  6.000000e-001  8.400000e+000
      vertex -1.450000e+001  6.000000e-001  3.000000e+000
    endloop
  endfacet
  facet normal  0.000000e+000  1.000000e+000  0.000000e+000
    outer loop
      vertex -2.250000e+001  6.000000e-001  0.000000e+000
      vertex -1.450000e+001  6.000000e-001  3.000000e+000
      vertex -5.000000e-001  6.000000e-001  0.000000e+000
    endloop
  endfacet
  facet normal  0.000000e+000  1.000000e+000  -0.000000e+000
    outer loop
      vertex -5.000000e-001  6.000000e-001  0.000000e+000
      vertex -1.450000e+001  6.000000e-001  3.000000e+000
      vertex -5.000000e-001  6.000000e-001  3.000000e+000
    endloop
  endfacet
  facet normal  -0.000000e+000 -1.000000e+000  -0.000000e+000
    outer loop
      vertex -5.000000e-001  0.000000e+000  5.500000e+001
      vertex -5.000000e-001  0.000000e+000  1.400000e+002
      vertex -7.500000e+000  0.000000e+000  1.400000e+002
    endloop
  endfacet
  facet normal  0.000000e+000 -1.000000e+000  -0.000000e+000
    outer loop
      vertex -5.000000e-001  0.000000e+000  5.500000e+001
      vertex -7.500000e+000  0.000000e+000  1.400000e+002
      vertex -8.570087e+000  0.000000e+000  1.399618e+002
    endloop
  endfacet
  facet normal  0.000000e+000 -9.999999e-001  -0.000000e+000
    outer loop
      vertex -5.000000e-001  0.000000e+000  5.500000e+001
      vertex -8.570087e+000  0.000000e+000  1.399618e+002
      vertex -9.634723e+000  0.000000e+000  1.398473e+002
    endloop
  endfacet
  facet normal  0.000000e+000 -1.000000e+000  -0.000000e+000
    outer loop
      vertex -5.000000e-001  0.000000e+000  5.500000e+001
      vertex -9.634723e+000  0.000000e+000  1.398473e+002
      vertex -1.068848e+001  0.000000e+000  1.396572e+002
    endloop
  endfacet
  facet normal  0.000000e+000 -1.000000e+000  -0.000000e+000
    outer loop
      vertex -5.000000e-001  0.000000e+000  5.500000e+001
      vertex -1.068848e+001  0.000000e+000  1.396572e+002
      vertex -1.172599e+001  0.000000e+000  1.393924e+002
    endloop
  endfacet
  facet normal  0.000000e+000 -1.000000e+000  -0.000000e+000
    outer loop
      vertex -5.000000e-001  0.000000e+000  5.500000e+001
      vertex -1.172599e+001  0.000000e+000  1.393924e+002
      vertex -1.274196e+001  0.000000e+000  1.390542e+002
    endloop
  endfacet
  facet normal  0.000000e+000 -1.000000e+000  -0.000000e+000
    outer loop
      vertex -5.000000e-001  0.000000e+000  5.500000e+001
      vertex -1.274196e+001  0.000000e+000  1.390542e+002
      vertex -1.373123e+001  0.000000e+000  1.386445e+002
    endloop
  endfacet
  facet normal  0.000000e+000 -9.999999e-001  -0.000000e+000
    outer loop
      vertex -5.000000e-001  0.000000e+000  5.500000e+001
      vertex -1.373123e+001  0.000000e+000  1.386445e+002
      vertex -1.468874e+001  0.000000e+000  1.381652e+002
    endloop
  endfacet
  facet normal  0.000000e+000 -1.000000e+000  -0.000000e+000
    outer loop
      vertex -5.000000e-001  0.000000e+000  5.500000e+001
      vertex -1.468874e+001  0.000000e+000  1.381652e+002
      vertex -1.560961e+001  0.000000e+000  1.376188e+002
    endloop
  endfacet
  facet normal  0.000000e+000 -1.000000e+000  -0.000000e+000
    outer loop
      vertex -5.000000e-001  0.000000e+000  5.500000e+001
      vertex -1.560961e+001  0.000000e+000  1.376188e+002
      vertex -1.648916e+001  0.000000e+000  1.370081e+002
    endloop
  endfacet
  facet normal  0.000000e+000 -9.999999e-001  -0.000000e+000
    outer loop
      vertex -5.000000e-001  0.000000e+000  5.500000e+001
      vertex -1.648916e+001  0.000000e+000  1.370081e+002
      vertex -1.732291e+001  0.000000e+000  1.363362e+002
    endloop
  endfacet
  facet normal  0.000000e+000 -1.000000e+000  -0.000000e+000
    outer loop
      vertex -5.000000e-001  0.000000e+000  5.500000e+001
      vertex -1.732291e+001  0.000000e+000  1.363362e+002
      vertex -1.810660e+001  0.000000e+000  1.356066e+002
    endloop
  endfacet
  facet normal  0.000000e+000 -1.000000e+000  -0.000000e+000
    outer loop
      vertex -5.000000e-001  0.000000e+000  5.500000e+001
      vertex -1.810660e+001  0.000000e+000  1.356066e+002
      vertex -1.883624e+001  0.000000e+000  1.348229e+002
    endloop
  endfacet
  facet normal  0.000000e+000 -1.000000e+000  -0.000000e+000
    outer loop
      vertex -5.000000e-001  0.000000e+000  5.500000e+001
      vertex -1.883624e+001  0.000000e+000  1.348229e+002
      vertex -1.950812e+001  0.000000e+000  1.339892e+002
    endloop
  endfacet
  facet normal  0.000000e+000 -1.000000e+000  -0.000000e+000
    outer loop
      vertex -5.000000e-001  0.000000e+000  5.500000e+001
      vertex -1.950812e+001  0.000000e+000  1.339892e+002
      vertex -2.011880e+001  0.000000e+000  1.331096e+002
    endloop
  endfacet
  facet normal  0.000000e+000 -1.000000e+000  -0.000000e+000
    outer loop
      vertex -5.000000e-001  0.000000e+000  5.500000e+001
      vertex -2.011880e+001  0.000000e+000  1.331096e+002
      vertex -2.066518e+001  0.000000e+000  1.321887e+002
    endloop
  endfacet
  facet normal  0.000000e+000 -9.999999e-001  -0.000000e+000
    outer loop
      vertex -5.000000e-001  0.000000e+000  5.500000e+001
      vertex -2.066518e+001  0.000000e+000  1.321887e+002
      vertex -2.114448e+001  0.000000e+000  1.312312e+002
    endloop
  endfacet
  facet normal  0.000000e+000 -1.000000e+000  -0.000000e+000
    outer loop
      vertex -5.000000e-001  0.000000e+000  5.500000e+001
      vertex -2.114448e+001  0.000000e+000  1.312312e+002
      vertex -2.155424e+001  0.000000e+000  1.302420e+002
    endloop
  endfacet
  facet normal  0.000000e+000 -1.000000e+000  -0.000000e+000
    outer loop
      vertex -5.000000e-001  0.000000e+000  5.500000e+001
      vertex -2.155424e+001  0.000000e+000  1.302420e+002
      vertex -2.189240e+001  0.000000e+000  1.292260e+002
    endloop
  endfacet
  facet normal  0.000000e+000 -1.000000e+000  -0.000000e+000
    outer loop
      vertex -5.000000e-001  0.000000e+000  5.500000e+001
      vertex -2.189240e+001  0.000000e+000  1.292260e+002
      vertex -2.215720e+001  0.000000e+000  1.281885e+002
    endloop
  endfacet
  facet normal  0.000000e+000 -9.999999e-001  -0.000000e+000
    outer loop
      vertex -5.000000e-001  0.000000e+000  5.500000e+001
      vertex -2.215720e+001  0.000000e+000  1.281885e+002
      vertex -2.234732e+001  0.000000e+000  1.271347e+002
    endloop
  endfacet
  facet normal  0.000000e+000 -1.000000e+000  -0.000000e+000
    outer loop
      vertex -5.000000e-001  0.000000e+000  5.500000e+001
      vertex -2.234732e+001  0.000000e+000  1.271347e+002
      vertex -2.246178e+001  0.000000e+000  1.260701e+002
    endloop
  endfacet
  facet normal  0.000000e+000 -9.999999e-001  -0.000000e+000
    outer loop
      vertex -5.000000e-001  0.000000e+000  5.500000e+001
      vertex -2.246178e+001  0.000000e+000  1.260701e+002
      vertex -2.250000e+001  0.000000e+000  1.250000e+002
    endloop
  endfacet
  facet normal  0.000000e+000 -1.000000e+000  0.000000e+000
    outer loop
      vertex -5.000000e-001  0.000000e+000  5.500000e+001
      vertex -2.250000e+001  0.000000e+000  1.250000e+002
      vertex -1.450000e+001  0.000000e+000  8.400000e+000
    endloop
  endfacet
  facet normal  0.000000e+000 -9.999999e-001  0.000000e+000
    outer loop
      vertex -5.000000e-001  0.000000e+000  5.500000e+001
      vertex -1.450000e+001  0.000000e+000  8.400000e+000
      vertex  1.450000e+001  0.000000e+000  8.400000e+000
    endloop
  endfacet
  facet normal  0.000000e+000 -9.999999e-001  0.000000e+000
    outer loop
      vertex -5.000000e-001  0.000000e+000  5.500000e+001
      vertex  1.450000e+001  0.000000e+000  8.400000e+000
      vertex  5.000000e-001  0.000000e+000  5.500000e+001
    endloop
  endfacet
  facet normal  0.000000e+000 -1.000000e+000  0.000000e+000
    outer loop
      vertex  5.000000e-001  0.000000e+000  5.500000e+001
      vertex  1.450000e+001  0.000000e+000  8.400000e+000
      vertex  2.250000e+001  0.000000e+000  1.250000e+002
    endloop
  endfacet
  facet normal  -0.000000e+000 -9.999999e-001  0.000000e+000
    outer loop
      vertex  5.000000e-001  0.000000e+000  5.500000e+001
      vertex  2.250000e+001  0.000000e+000  1.250000e+002
      vertex  2.246178e+001  0.000000e+000  1.260701e+002
    endloop
  endfacet
  facet normal  -0.000000e+000 -1.000000e+000  0.000000e+000
    outer loop
      vertex  5.000000e-001  0.000000e+000  5.500000e+001
      vertex  2.246178e+001  0.000000e+000  1.260701e+002
      vertex  2.234732e+001  0.000000e+000  1.271347e+002
    endloop
  endfacet
  facet normal  -0.000000e+000 -9.999999e-001  0.000000e+000
    outer loop
      vertex  5.000000e-001  0.000000e+000  5.500000e+001
      vertex  2.234732e+001  0.000000e+000  1.271347e+002
      vertex  2.215720e+001  0.000000e+000  1.281885e+002
    endloop
  endfacet
  facet normal  -0.000000e+000 -1.000000e+000  0.000000e+000
    outer loop
      vertex  5.000000e-001  0.000000e+000  5.500000e+001
      vertex  2.215720e+001  0.000000e+000  1.281885e+002
      vertex  2.189240e+001  0.000000e+000  1.292260e+002
    endloop
  endfacet
  facet normal  -0.000000e+000 -1.000000e+000  0.000000e+000
    outer loop
      vertex  5.000000e-001  0.000000e+000  5.500000e+001
      vertex  2.189240e+001  0.000000e+000  1.292260e+002
      vertex  2.155424e+001  0.000000e+000  1.302420e+002
    endloop
  endfacet
  facet normal  -0.000000e+000 -1.000000e+000  0.000000e+000
    outer loop
      vertex  5.000000e-001  0.000000e+000  5.500000e+001
      vertex  2.155424e+001  0.000000e+000  1.302420e+002
      vertex  2.114448e+001  0.000000e+000  1.312312e+002
    endloop
  endfacet
  facet normal  -0.000000e+000 -9.999999e-001  0.000000e+000
    outer loop
      vertex  5.000000e-001  0.000000e+000  5.500000e+001
      vertex  2.114448e+001  0.000000e+000  1.312312e+002
      vertex  2.066518e+001  0.000000e+000  1.321887e+002
    endloop
  endfacet
  facet normal  -0.000000e+000 -1.000000e+000  0.000000e+000
    outer loop
      vertex  5.000000e-001  0.000000e+000  5.500000e+001
      vertex  2.066518e+001  0.000000e+000  1.321887e+002
      vertex  2.011880e+001  0.000000e+000  1.331096e+002
    endloop
  endfacet
  facet normal  -0.000000e+000 -1.000000e+000  0.000000e+000
    outer loop
      vertex  5.000000e-001  0.000000e+000  5.500000e+001
      vertex  2.011880e+001  0.000000e+000  1.331096e+002
      vertex  1.950812e+001  0.000000e+000  1.339892e+002
    endloop
  endfacet
  facet normal  -0.000000e+000 -1.000000e+000  0.000000e+000
    outer loop
      vertex  5.000000e-001  0.000000e+000  5.500000e+001
      vertex  1.950812e+001  0.000000e+000  1.339892e+002
      vertex  1.883624e+001  0.000000e+000  1.348229e+002
    endloop
  endfacet
  facet normal  -0.000000e+000 -1.000000e+000  0.000000e+000
    outer loop
      vertex  5.000000e-001  0.000000e+000  5.500000e+001
      vertex  1.883624e+001  0.000000e+000  1.348229e+002
      vertex  1.810660e+001  0.000000e+000  1.356066e+002
    endloop
  endfacet
  facet normal  -0.000000e+000 -1.000000e+000  0.000000e+000
    outer loop
      vertex  5.000000e-001  0.000000e+000  5.500000e+001
      vertex  1.810660e+001  0.000000e+000  1.356066e+002
      vertex  1.732291e+001  0.000000e+000  1.363362e+002
    endloop
  endfacet
  facet normal  -0.000000e+000 -9.999999e-001  0.000000e+000
    outer loop
      vertex  5.000000e-001  0.000000e+000  5.500000e+001
      vertex  1.732291e+001  0.000000e+000  1.363362e+002
      vertex  1.648916e+001  0.000000e+000  1.370081e+002
    endloop
  endfacet
  facet normal  -0.000000e+000 -1.000000e+000  0.000000e+000
    outer loop
      vertex  5.000000e-001  0.000000e+000  5.500000e+001
      vertex  1.648916e+001  0.000000e+000  1.370081e+002
      vertex  1.560961e+001  0.000000e+000  1.376188e+002
    endloop
  endfacet
  facet normal  -0.000000e+000 -1.000000e+000  0.000000e+000
    outer loop
      vertex  5.000000e-001  0.000000e+000  5.500000e+001
      vertex  1.560961e+001  0.000000e+000  1.376188e+002
      vertex  1.468874e+001  0.000000e+000  1.381652e+002
    endloop
  endfacet
  facet normal  -0.000000e+000 -9.999999e-001  0.000000e+000
    outer loop
      vertex  5.000000e-001  0.000000e+000  5.500000e+001
      vertex  1.468874e+001  0.000000e+000  1.381652e+002
      vertex  1.373123e+001  0.000000e+000  1.386445e+002
    endloop
  endfacet
  facet normal  -0.000000e+000 -1.000000e+000  0.000000e+000
    outer loop
      vertex  5.000000e-001  0.000000e+000  5.500000e+001
      vertex  1.373123e+001  0.000000e+000  1.386445e+002
      vertex  1.274196e+001  0.000000e+000  1.390542e+002
    endloop
  endfacet
  facet normal  -0.000000e+000 -1.000000e+000  0.000000e+000
    outer loop
      vertex  5.000000e-001  0.000000e+000  5.500000e+001
      vertex  1.274196e+001  0.000000e+000  1.390542e+002
      vertex  1.172599e+001  0.000000e+000  1.393924e+002
    endloop
  endfacet
  facet normal  -0.000000e+000 -1.000000e+000  0.000000e+000
    outer loop
      vertex  5.000000e-001  0.000000e+000  5.500000e+001
      vertex  1.172599e+001  0.000000e+000  1.393924e+002
      vertex  1.068848e+001  0.000000e+000  1.396572e+002
    endloop
  endfacet
  facet normal  -0.000000e+000 -1.000000e+000  0.000000e+000
    outer loop
      vertex  5.000000e-001  0.000000e+000  5.500000e+001
      vertex  1.068848e+001  0.000000e+000  1.396572e+002
      vertex  9.634723e+000  0.000000e+000  1.398473e+002
    endloop
  endfacet
  facet normal  -0.000000e+000 -9.999999e-001  0.000000e+000
    outer loop
      vertex  5.000000e-001  0.000000e+000  5.500000e+001
      vertex  9.634723e+000  0.000000e+000  1.398473e+002
      vertex  8.570087e+000  0.000000e+000  1.399618e+002
    endloop
  endfacet
  facet normal  -0.000000e+000 -1.000000e+000  0.000000e+000
    outer loop
      vertex  5.000000e-001  0.000000e+000  5.500000e+001
      vertex  8.570087e+000  0.000000e+000  1.399618e+002
      vertex  7.500000e+000  0.000000e+000  1.400000e+002
    endloop
  endfacet
  facet normal  -0.000000e+000 -1.000000e+000  0.000000e+000
    outer loop
      vertex  5.000000e-001  0.000000e+000  5.500000e+001
      vertex  7.500000e+000  0.000000e+000  1.400000e+002
      vertex  5.000000e-001  0.000000e+000  1.400000e+002
    endloop
  endfacet
  facet normal  0.000000e+000 -1.000000e+000  0.000000e+000
    outer loop
      vertex  1.450000e+001  0.000000e+000  8.400000e+000
      vertex  1.450000e+001  0.000000e+000  3.000000e+000
      vertex  2.250000e+001  0.000000e+000  1.250000e+002
    endloop
  endfacet
  facet normal  0.000000e+000 -1.000000e+000  -0.000000e+000
    outer loop
      vertex  2.250000e+001  0.000000e+000  1.250000e+002
      vertex  1.450000e+001  0.000000e+000  3.000000e+000
      vertex  2.250000e+001  0.000000e+000  0.000000e+000
    endloop
  endfacet
  facet normal  0.000000e+000 -1.000000e+000  0.000000e+000
    outer loop
      vertex  1.450000e+001  0.000000e+000  3.000000e+000
      vertex  5.000000e-001  0.000000e+000  3.000000e+000
      vertex  2.250000e+001  0.000000e+000  0.000000e+000
    endloop
  endfacet
  facet normal  0.000000e+000 -1.000000e+000  0.000000e+000
    outer loop
      vertex  2.250000e+001  0.000000e+000  0.000000e+000
      vertex  5.000000e-001  0.000000e+000  3.000000e+000
      vertex  5.000000e-001  0.000000e+000  0.000000e+000
    endloop
  endfacet
  facet normal  0.000000e+000 -1.000000e+000  0.000000e+000
    outer loop
      vertex -2.250000e+001  0.000000e+000  1.250000e+002
      vertex -2.250000e+001  0.000000e+000  0.000000e+000
      vertex -1.450000e+001  0.000000e+000  8.400000e+000
    endloop
  endfacet
  facet normal  0.000000e+000 -1.000000e+000  -0.000000e+000
    outer loop
      vertex -1.450000e+001  0.000000e+000  8.400000e+000
      vertex -2.250000e+001  0.000000e+000  0.000000e+000
      vertex -1.450000e+001  0.000000e+000  3.000000e+000
    endloop
  endfacet
  facet normal  0.000000e+000 -1.000000e+000  0.000000e+000
    outer loop
      vertex -2.250000e+001  0.000000e+000  0.000000e+000
      vertex -5.000000e-001  0.000000e+000  0.000000e+000
      vertex -1.450000e+001  0.000000e+000  3.000000e+000
    endloop
  endfacet
  facet normal  0.000000e+000 -1.000000e+000  0.000000e+000
    outer loop
      vertex -1.450000e+001  0.000000e+000  3.000000e+000
      vertex -5.000000e-001  0.000000e+000  0.000000e+000
      vertex -5.000000e-001  0.000000e+000  3.000000e+000
    endloop
  endfacet
  facet normal -1.000000e+000  0.000000e+000  0.000000e+000
    outer loop
      vertex -2.250000e+001  6.000000e-001  0.000000e+000
      vertex -2.250000e+001  0.000000e+000  0.000000e+000
      vertex -2.250000e+001  6.000000e-001  1.250000e+002
    endloop
  endfacet
  facet normal -1.000000e+000  -0.000000e+000  0.000000e+000
    outer loop
      vertex -2.250000e+001  6.000000e-001  1.250000e+002
      vertex -2.250000e+001  0.000000e+000  0.000000e+000
      vertex -2.250000e+001  0.000000e+000  1.250000e+002
    endloop
  endfacet
  facet normal  0.000000e+000  0.000000e+000  1.000000e+000
    outer loop
      vertex -7.500000e+000  6.000000e-001  1.400000e+002
      vertex -7.500000e+000  0.000000e+000  1.400000e+002
      vertex -5.000000e-001  6.000000e-001  1.400000e+002
    endloop
  endfacet
  facet normal  0.000000e+000  0.000000e+000  1.000000e+000
    outer loop
      vertex -5.000000e-001  6.000000e-001  1.400000e+002
      vertex -7.500000e+000  0.000000e+000  1.400000e+002
      vertex -5.000000e-001  0.000000e+000  1.400000e+002
    endloop
  endfacet
  facet normal -3.569699e-002  0.000000e+000  9.993626e-001
    outer loop
      vertex -7.500000e+000  0.000000e+000  1.400000e+002
      vertex -7.500000e+000  6.000000e-001  1.400000e+002
      vertex -8.570087e+000  0.000000e+000  1.399618e+002
    endloop
  endfacet
  facet normal -3.569699e-002  0.000000e+000  9.993626e-001
    outer loop
      vertex -8.570087e+000  0.000000e+000  1.399618e+002
      vertex -7.500000e+000  6.000000e-001  1.400000e+002
      vertex -8.570087e+000  6.000000e-001  1.399618e+002
    endloop
  endfacet
  facet normal -1.068915e-001  0.000000e+000  9.942707e-001
    outer loop
      vertex -8.570087e+000  0.000000e+000  1.399618e+002
      vertex -8.570087e+000  6.000000e-001  1.399618e+002
      vertex -9.634723e+000  0.000000e+000  1.398473e+002
    endloop
  endfacet
  facet normal -1.068915e-001  0.000000e+000  9.942707e-001
    outer loop
      vertex -9.634723e+000  0.000000e+000  1.398473e+002
      vertex -8.570087e+000  6.000000e-001  1.399618e+002
      vertex -9.634723e+000  6.000000e-001  1.398473e+002
    endloop
  endfacet
  facet normal -1.775585e-001  0.000000e+000  9.841103e-001
    outer loop
      vertex -9.634723e+000  0.000000e+000  1.398473e+002
      vertex -9.634723e+000  6.000000e-001  1.398473e+002
      vertex -1.068848e+001  0.000000e+000  1.396572e+002
    endloop
  endfacet
  facet normal -1.775585e-001  0.000000e+000  9.841103e-001
    outer loop
      vertex -1.068848e+001  0.000000e+000  1.396572e+002
      vertex -9.634723e+000  6.000000e-001  1.398473e+002
      vertex -1.068848e+001  6.000000e-001  1.396572e+002
    endloop
  endfacet
  facet normal -2.473000e-001  0.000000e+000  9.689389e-001
    outer loop
      vertex -1.068848e+001  0.000000e+000  1.396572e+002
      vertex -1.068848e+001  6.000000e-001  1.396572e+002
      vertex -1.172599e+001  0.000000e+000  1.393924e+002
    endloop
  endfacet
  facet normal -2.473000e-001  0.000000e+000  9.689389e-001
    outer loop
      vertex -1.172599e+001  0.000000e+000  1.393924e+002
      vertex -1.068848e+001  6.000000e-001  1.396572e+002
      vertex -1.172599e+001  6.000000e-001  1.393924e+002
    endloop
  endfacet
  facet normal -3.158008e-001  0.000000e+000  9.488255e-001
    outer loop
      vertex -1.172599e+001  0.000000e+000  1.393924e+002
      vertex -1.172599e+001  6.000000e-001  1.393924e+002
      vertex -1.274196e+001  0.000000e+000  1.390542e+002
    endloop
  endfacet
  facet normal -3.158008e-001  0.000000e+000  9.488255e-001
    outer loop
      vertex -1.274196e+001  0.000000e+000  1.390542e+002
      vertex -1.172599e+001  6.000000e-001  1.393924e+002
      vertex -1.274196e+001  6.000000e-001  1.390542e+002
    endloop
  endfacet
  facet normal -3.826783e-001  0.000000e+000  9.238816e-001
    outer loop
      vertex -1.274196e+001  0.000000e+000  1.390542e+002
      vertex -1.274196e+001  6.000000e-001  1.390542e+002
      vertex -1.373123e+001  0.000000e+000  1.386445e+002
    endloop
  endfacet
  facet normal -3.826783e-001  0.000000e+000  9.238816e-001
    outer loop
      vertex -1.373123e+001  0.000000e+000  1.386445e+002
      vertex -1.274196e+001  6.000000e-001  1.390542e+002
      vertex -1.373123e+001  6.000000e-001  1.386445e+002
    endloop
  endfacet
  facet normal -4.476161e-001  0.000000e+000  8.942258e-001
    outer loop
      vertex -1.373123e+001  0.000000e+000  1.386445e+002
      vertex -1.373123e+001  6.000000e-001  1.386445e+002
      vertex -1.468874e+001  0.000000e+000  1.381652e+002
    endloop
  endfacet
  facet normal -4.476161e-001  0.000000e+000  8.942258e-001
    outer loop
      vertex -1.468874e+001  0.000000e+000  1.381652e+002
      vertex -1.373123e+001  6.000000e-001  1.386445e+002
      vertex -1.468874e+001  6.000000e-001  1.381652e+002
    endloop
  endfacet
  facet normal -5.102734e-001  0.000000e+000  8.600122e-001
    outer loop
      vertex -1.468874e+001  0.000000e+000  1.381652e+002
      vertex -1.468874e+001  6.000000e-001  1.381652e+002
      vertex -1.560961e+001  0.000000e+000  1.376188e+002
    endloop
  endfacet
  facet normal -5.102734e-001  0.000000e+000  8.600122e-001
    outer loop
      vertex -1.560961e+001  0.000000e+000  1.376188e+002
      vertex -1.468874e+001  6.000000e-001  1.381652e+002
      vertex -1.560961e+001  6.000000e-001  1.376188e+002
    endloop
  endfacet
  facet normal -5.703248e-001  0.000000e+000  8.214193e-001
    outer loop
      vertex -1.560961e+001  0.000000e+000  1.376188e+002
      vertex -1.560961e+001  6.000000e-001  1.376188e+002
      vertex -1.648916e+001  0.000000e+000  1.370081e+002
    endloop
  endfacet
  facet normal -5.703248e-001  0.000000e+000  8.214193e-001
    outer loop
      vertex -1.648916e+001  0.000000e+000  1.370081e+002
      vertex -1.560961e+001  6.000000e-001  1.376188e+002
      vertex -1.648916e+001  6.000000e-001  1.370081e+002
    endloop
  endfacet
  facet normal -6.274690e-001  0.000000e+000  7.786415e-001
    outer loop
      vertex -1.648916e+001  0.000000e+000  1.370081e+002
      vertex -1.648916e+001  6.000000e-001  1.370081e+002
      vertex -1.732291e+001  0.000000e+000  1.363362e+002
    endloop
  endfacet
  facet normal -6.274690e-001  0.000000e+000  7.786415e-001
    outer loop
      vertex -1.732291e+001  0.000000e+000  1.363362e+002
      vertex -1.648916e+001  6.000000e-001  1.370081e+002
      vertex -1.732291e+001  6.000000e-001  1.363362e+002
    endloop
  endfacet
  facet normal -6.814191e-001  0.000000e+000  7.318935e-001
    outer loop
      vertex -1.732291e+001  0.000000e+000  1.363362e+002
      vertex -1.732291e+001  6.000000e-001  1.363362e+002
      vertex -1.810660e+001  0.000000e+000  1.356066e+002
    endloop
  endfacet
  facet normal -6.814191e-001  0.000000e+000  7.318935e-001
    outer loop
      vertex -1.810660e+001  0.000000e+000  1.356066e+002
      vertex -1.732291e+001  6.000000e-001  1.363362e+002
      vertex -1.810660e+001  6.000000e-001  1.356066e+002
    endloop
  endfacet
  facet normal -7.318953e-001  0.000000e+000  6.814171e-001
    outer loop
      vertex -1.810660e+001  0.000000e+000  1.356066e+002
      vertex -1.810660e+001  6.000000e-001  1.356066e+002
      vertex -1.883624e+001  0.000000e+000  1.348229e+002
    endloop
  endfacet
  facet normal -7.318953e-001  0.000000e+000  6.814171e-001
    outer loop
      vertex -1.883624e+001  0.000000e+000  1.348229e+002
      vertex -1.810660e+001  6.000000e-001  1.356066e+002
      vertex -1.883624e+001  6.000000e-001  1.348229e+002
    endloop
  endfacet
  facet normal -7.786394e-001  0.000000e+000  6.274717e-001
    outer loop
      vertex -1.883624e+001  0.000000e+000  1.348229e+002
      vertex -1.883624e+001  6.000000e-001  1.348229e+002
      vertex -1.950812e+001  0.000000e+000  1.339892e+002
    endloop
  endfacet
  facet normal -7.786394e-001  0.000000e+000  6.274717e-001
    outer loop
      vertex -1.950812e+001  0.000000e+000  1.339892e+002
      vertex -1.883624e+001  6.000000e-001  1.348229e+002
      vertex -1.950812e+001  6.000000e-001  1.339892e+002
    endloop
  endfacet
  facet normal -8.214186e-001  0.000000e+000  5.703257e-001
    outer loop
      vertex -1.950812e+001  0.000000e+000  1.339892e+002
      vertex -1.950812e+001  6.000000e-001  1.339892e+002
      vertex -2.011880e+001  0.000000e+000  1.331096e+002
    endloop
  endfacet
  facet normal -8.214186e-001  0.000000e+000  5.703257e-001
    outer loop
      vertex -2.011880e+001  0.000000e+000  1.331096e+002
      vertex -1.950812e+001  6.000000e-001  1.339892e+002
      vertex -2.011880e+001  6.000000e-001  1.331096e+002
    endloop
  endfacet
  facet normal -8.600160e-001  0.000000e+000  5.102671e-001
    outer loop
      vertex -2.011880e+001  0.000000e+000  1.331096e+002
      vertex -2.011880e+001  6.000000e-001  1.331096e+002
      vertex -2.066518e+001  0.000000e+000  1.321887e+002
    endloop
  endfacet
  facet normal -8.600160e-001  0.000000e+000  5.102671e-001
    outer loop
      vertex -2.066518e+001  0.000000e+000  1.321887e+002
      vertex -2.011880e+001  6.000000e-001  1.331096e+002
      vertex -2.066518e+001  6.000000e-001  1.321887e+002
    endloop
  endfacet
  facet normal -8.942240e-001  0.000000e+000  4.476197e-001
    outer loop
      vertex -2.066518e+001  0.000000e+000  1.321887e+002
      vertex -2.066518e+001  6.000000e-001  1.321887e+002
      vertex -2.114448e+001  0.000000e+000  1.312312e+002
    endloop
  endfacet
  facet normal -8.942240e-001  0.000000e+000  4.476197e-001
    outer loop
      vertex -2.114448e+001  0.000000e+000  1.312312e+002
      vertex -2.066518e+001  6.000000e-001  1.321887e+002
      vertex -2.114448e+001  6.000000e-001  1.312312e+002
    endloop
  endfacet
  facet normal -9.238812e-001  0.000000e+000  3.826794e-001
    outer loop
      vertex -2.114448e+001  0.000000e+000  1.312312e+002
      vertex -2.114448e+001  6.000000e-001  1.312312e+002
      vertex -2.155424e+001  0.000000e+000  1.302420e+002
    endloop
  endfacet
  facet normal -9.238812e-001  0.000000e+000  3.826794e-001
    outer loop
      vertex -2.155424e+001  0.000000e+000  1.302420e+002
      vertex -2.114448e+001  6.000000e-001  1.312312e+002
      vertex -2.155424e+001  6.000000e-001  1.302420e+002
    endloop
  endfacet
  facet normal -9.488257e-001  0.000000e+000  3.158002e-001
    outer loop
      vertex -2.155424e+001  0.000000e+000  1.302420e+002
      vertex -2.155424e+001  6.000000e-001  1.302420e+002
      vertex -2.189240e+001  0.000000e+000  1.292260e+002
    endloop
  endfacet
  facet normal -9.488257e-001  0.000000e+000  3.158002e-001
    outer loop
      vertex -2.189240e+001  0.000000e+000  1.292260e+002
      vertex -2.155424e+001  6.000000e-001  1.302420e+002
      vertex -2.189240e+001  6.000000e-001  1.292260e+002
    endloop
  endfacet
  facet normal -9.689371e-001  0.000000e+000  2.473074e-001
    outer loop
      vertex -2.189240e+001  0.000000e+000  1.292260e+002
      vertex -2.189240e+001  6.000000e-001  1.292260e+002
      vertex -2.215720e+001  0.000000e+000  1.281885e+002
    endloop
  endfacet
  facet normal -9.689371e-001  0.000000e+000  2.473074e-001
    outer loop
      vertex -2.215720e+001  0.000000e+000  1.281885e+002
      vertex -2.189240e+001  6.000000e-001  1.292260e+002
      vertex -2.215720e+001  6.000000e-001  1.281885e+002
    endloop
  endfacet
  facet normal -9.841112e-001  0.000000e+000  1.775533e-001
    outer loop
      vertex -2.215720e+001  0.000000e+000  1.281885e+002
      vertex -2.215720e+001  6.000000e-001  1.281885e+002
      vertex -2.234732e+001  0.000000e+000  1.271347e+002
    endloop
  endfacet
  facet normal -9.841112e-001  0.000000e+000  1.775533e-001
    outer loop
      vertex -2.234732e+001  0.000000e+000  1.271347e+002
      vertex -2.215720e+001  6.000000e-001  1.281885e+002
      vertex -2.234732e+001  6.000000e-001  1.271347e+002
    endloop
  endfacet
  facet normal -9.942702e-001  0.000000e+000  1.068956e-001
    outer loop
      vertex -2.234732e+001  0.000000e+000  1.271347e+002
      vertex -2.234732e+001  6.000000e-001  1.271347e+002
      vertex -2.246178e+001  0.000000e+000  1.260701e+002
    endloop
  endfacet
  facet normal -9.942702e-001  0.000000e+000  1.068956e-001
    outer loop
      vertex -2.246178e+001  0.000000e+000  1.260701e+002
      vertex -2.234732e+001  6.000000e-001  1.271347e+002
      vertex -2.246178e+001  6.000000e-001  1.260701e+002
    endloop
  endfacet
  facet normal -9.993628e-001  0.000000e+000  3.569153e-002
    outer loop
      vertex -2.246178e+001  0.000000e+000  1.260701e+002
      vertex -2.246178e+001  6.000000e-001  1.260701e+002
      vertex -2.250000e+001  0.000000e+000  1.250000e+002
    endloop
  endfacet
  facet normal -9.993628e-001  0.000000e+000  3.569153e-002
    outer loop
      vertex -2.250000e+001  0.000000e+000  1.250000e+002
      vertex -2.246178e+001  6.000000e-001  1.260701e+002
      vertex -2.250000e+001  6.000000e-001  1.250000e+002
    endloop
  endfacet
  facet normal  1.000000e+000  -0.000000e+000  0.000000e+000
    outer loop
      vertex  2.250000e+001  6.000000e-001  1.250000e+002
      vertex  2.250000e+001  0.000000e+000  1.250000e+002
      vertex  2.250000e+001  6.000000e-001  0.000000e+000
    endloop
  endfacet
  facet normal  1.000000e+000  0.000000e+000  0.000000e+000
    outer loop
      vertex  2.250000e+001  6.000000e-001  0.000000e+000
      vertex  2.250000e+001  0.000000e+000  1.250000e+002
      vertex  2.250000e+001  0.000000e+000  0.000000e+000
    endloop
  endfacet
  facet normal  0.000000e+000  0.000000e+000  1.000000e+000
    outer loop
      vertex  5.000000e-001  6.000000e-001  1.400000e+002
      vertex  5.000000e-001  0.000000e+000  1.400000e+002
      vertex  7.500000e+000  6.000000e-001  1.400000e+002
    endloop
  endfacet
  facet normal  0.000000e+000  0.000000e+000  1.000000e+000
    outer loop
      vertex  7.500000e+000  6.000000e-001  1.400000e+002
      vertex  5.000000e-001  0.000000e+000  1.400000e+002
      vertex  7.500000e+000  0.000000e+000  1.400000e+002
    endloop
  endfacet
  facet normal  9.993628e-001  0.000000e+000  3.569153e-002
    outer loop
      vertex  2.250000e+001  0.000000e+000  1.250000e+002
      vertex  2.250000e+001  6.000000e-001  1.250000e+002
      vertex  2.246178e+001  0.000000e+000  1.260701e+002
    endloop
  endfacet
  facet normal  9.993628e-001  -0.000000e+000  3.569153e-002
    outer loop
      vertex  2.246178e+001  0.000000e+000  1.260701e+002
      vertex  2.250000e+001  6.000000e-001  1.250000e+002
      vertex  2.246178e+001  6.000000e-001  1.260701e+002
    endloop
  endfacet
  facet normal  9.942702e-001  0.000000e+000  1.068956e-001
    outer loop
      vertex  2.246178e+001  0.000000e+000  1.260701e+002
      vertex  2.246178e+001  6.000000e-001  1.260701e+002
      vertex  2.234732e+001  0.000000e+000  1.271347e+002
    endloop
  endfacet
  facet normal  9.942702e-001  -0.000000e+000  1.068956e-001
    outer loop
      vertex  2.234732e+001  0.000000e+000  1.271347e+002
      vertex  2.246178e+001  6.000000e-001  1.260701e+002
      vertex  2.234732e+001  6.000000e-001  1.271347e+002
    endloop
  endfacet
  facet normal  9.841112e-001  0.000000e+000  1.775533e-001
    outer loop
      vertex  2.234732e+001  0.000000e+000  1.271347e+002
      vertex  2.234732e+001  6.000000e-001  1.271347e+002
      vertex  2.215720e+001  0.000000e+000  1.281885e+002
    endloop
  endfacet
  facet normal  9.841112e-001  -0.000000e+000  1.775533e-001
    outer loop
      vertex  2.215720e+001  0.000000e+000  1.281885e+002
      vertex  2.234732e+001  6.000000e-001  1.271347e+002
      vertex  2.215720e+001  6.000000e-001  1.281885e+002
    endloop
  endfacet
  facet normal  9.689371e-001  0.000000e+000  2.473074e-001
    outer loop
      vertex  2.215720e+001  0.000000e+000  1.281885e+002
      vertex  2.215720e+001  6.000000e-001  1.281885e+002
      vertex  2.189240e+001  0.000000e+000  1.292260e+002
    endloop
  endfacet
  facet normal  9.689371e-001  -0.000000e+000  2.473074e-001
    outer loop
      vertex  2.189240e+001  0.000000e+000  1.292260e+002
      vertex  2.215720e+001  6.000000e-001  1.281885e+002
      vertex  2.189240e+001  6.000000e-001  1.292260e+002
    endloop
  endfacet
  facet normal  9.488257e-001  0.000000e+000  3.158002e-001
    outer loop
      vertex  2.189240e+001  0.000000e+000  1.292260e+002
      vertex  2.189240e+001  6.000000e-001  1.292260e+002
      vertex  2.155424e+001  0.000000e+000  1.302420e+002
    endloop
  endfacet
  facet normal  9.488257e-001  -0.000000e+000  3.158002e-001
    outer loop
      vertex  2.155424e+001  0.000000e+000  1.302420e+002
      vertex  2.189240e+001  6.000000e-001  1.292260e+002
      vertex  2.155424e+001  6.000000e-001  1.302420e+002
    endloop
  endfacet
  facet normal  9.238812e-001  0.000000e+000  3.826794e-001
    outer loop
      vertex  2.155424e+001  0.000000e+000  1.302420e+002
      vertex  2.155424e+001  6.000000e-001  1.302420e+002
      vertex  2.114448e+001  0.000000e+000  1.312312e+002
    endloop
  endfacet
  facet normal  9.238812e-001  -0.000000e+000  3.826794e-001
    outer loop
      vertex  2.114448e+001  0.000000e+000  1.312312e+002
      vertex  2.155424e+001  6.000000e-001  1.302420e+002
      vertex  2.114448e+001  6.000000e-001  1.312312e+002
    endloop
  endfacet
  facet normal  8.942240e-001  0.000000e+000  4.476197e-001
    outer loop
      vertex  2.114448e+001  0.000000e+000  1.312312e+002
      vertex  2.114448e+001  6.000000e-001  1.312312e+002
      vertex  2.066518e+001  0.000000e+000  1.321887e+002
    endloop
  endfacet
  facet normal  8.942240e-001  -0.000000e+000  4.476197e-001
    outer loop
      vertex  2.066518e+001  0.000000e+000  1.321887e+002
      vertex  2.114448e+001  6.000000e-001  1.312312e+002
      vertex  2.066518e+001  6.000000e-001  1.321887e+002
    endloop
  endfacet
  facet normal  8.600160e-001  0.000000e+000  5.102671e-001
    outer loop
      vertex  2.066518e+001  0.000000e+000  1.321887e+002
      vertex  2.066518e+001  6.000000e-001  1.321887e+002
      vertex  2.011880e+001  0.000000e+000  1.331096e+002
    endloop
  endfacet
  facet normal  8.600160e-001  -0.000000e+000  5.102671e-001
    outer loop
      vertex  2.011880e+001  0.000000e+000  1.331096e+002
      vertex  2.066518e+001  6.000000e-001  1.321887e+002
      vertex  2.011880e+001  6.000000e-001  1.331096e+002
    endloop
  endfacet
  facet normal  8.214186e-001  0.000000e+000  5.703257e-001
    outer loop
      vertex  2.011880e+001  0.000000e+000  1.331096e+002
      vertex  2.011880e+001  6.000000e-001  1.331096e+002
      vertex  1.950812e+001  0.000000e+000  1.339892e+002
    endloop
  endfacet
  facet normal  8.214186e-001  -0.000000e+000  5.703257e-001
    outer loop
      vertex  1.950812e+001  0.000000e+000  1.339892e+002
      vertex  2.011880e+001  6.000000e-001  1.331096e+002
      vertex  1.950812e+001  6.000000e-001  1.339892e+002
    endloop
  endfacet
  facet normal  7.786394e-001  0.000000e+000  6.274717e-001
    outer loop
      vertex  1.950812e+001  0.000000e+000  1.339892e+002
      vertex  1.950812e+001  6.000000e-001  1.339892e+002
      vertex  1.883624e+001  0.000000e+000  1.348229e+002
    endloop
  endfacet
  facet normal  7.786394e-001  -0.000000e+000  6.274717e-001
    outer loop
      vertex  1.883624e+001  0.000000e+000  1.348229e+002
      vertex  1.950812e+001  6.000000e-001  1.339892e+002
      vertex  1.883624e+001  6.000000e-001  1.348229e+002
    endloop
  endfacet
  facet normal  7.318953e-001  0.000000e+000  6.814171e-001
    outer loop
      vertex  1.883624e+001  0.000000e+000  1.348229e+002
      vertex  1.883624e+001  6.000000e-001  1.348229e+002
      vertex  1.810660e+001  0.000000e+000  1.356066e+002
    endloop
  endfacet
  facet normal  7.318953e-001  -0.000000e+000  6.814171e-001
    outer loop
      vertex  1.810660e+001  0.000000e+000  1.356066e+002
      vertex  1.883624e+001  6.000000e-001  1.348229e+002
      vertex  1.810660e+001  6.000000e-001  1.356066e+002
    endloop
  endfacet
  facet normal  6.814191e-001  0.000000e+000  7.318935e-001
    outer loop
      vertex  1.810660e+001  0.000000e+000  1.356066e+002
      vertex  1.810660e+001  6.000000e-001  1.356066e+002
      vertex  1.732291e+001  0.000000e+000  1.363362e+002
    endloop
  endfacet
  facet normal  6.814191e-001  -0.000000e+000  7.318935e-001
    outer loop
      vertex  1.732291e+001  0.000000e+000  1.363362e+002
      vertex  1.810660e+001  6.000000e-001  1.356066e+002
      vertex  1.732291e+001  6.000000e-001  1.363362e+002
    endloop
  endfacet
  facet normal  6.274690e-001  0.000000e+000  7.786415e-001
    outer loop
      vertex  1.732291e+001  0.000000e+000  1.363362e+002
      vertex  1.732291e+001  6.000000e-001  1.363362e+002
      vertex  1.648916e+001  0.000000e+000  1.370081e+002
    endloop
  endfacet
  facet normal  6.274690e-001  -0.000000e+000  7.786415e-001
    outer loop
      vertex  1.648916e+001  0.000000e+000  1.370081e+002
      vertex  1.732291e+001  6.000000e-001  1.363362e+002
      vertex  1.648916e+001  6.000000e-001  1.370081e+002
    endloop
  endfacet
  facet normal  5.703248e-001  0.000000e+000  8.214193e-001
    outer loop
      vertex  1.648916e+001  0.000000e+000  1.370081e+002
      vertex  1.648916e+001  6.000000e-001  1.370081e+002
      vertex  1.560961e+001  0.000000e+000  1.376188e+002
    endloop
  endfacet
  facet normal  5.703248e-001  -0.000000e+000  8.214193e-001
    outer loop
      vertex  1.560961e+001  0.000000e+000  1.376188e+002
      vertex  1.648916e+001  6.000000e-001  1.370081e+002
      vertex  1.560961e+001  6.000000e-001  1.376188e+002
    endloop
  endfacet
  facet normal  5.102734e-001  0.000000e+000  8.600122e-001
    outer loop
      vertex  1.560961e+001  0.000000e+000  1.376188e+002
      vertex  1.560961e+001  6.000000e-001  1.376188e+002
      vertex  1.468874e+001  0.000000e+000  1.381652e+002
    endloop
  endfacet
  facet normal  5.102734e-001  -0.000000e+000  8.600122e-001
    outer loop
      vertex  1.468874e+001  0.000000e+000  1.381652e+002
      vertex  1.560961e+001  6.000000e-001  1.376188e+002
      vertex  1.468874e+001  6.000000e-001  1.381652e+002
    endloop
  endfacet
  facet normal  4.476161e-001  0.000000e+000  8.942258e-001
    outer loop
      vertex  1.468874e+001  0.000000e+000  1.381652e+002
      vertex  1.468874e+001  6.000000e-001  1.381652e+002
      vertex  1.373123e+001  0.000000e+000  1.386445e+002
    endloop
  endfacet
  facet normal  4.476161e-001  -0.000000e+000  8.942258e-001
    outer loop
      vertex  1.373123e+001  0.000000e+000  1.386445e+002
      vertex  1.468874e+001  6.000000e-001  1.381652e+002
      vertex  1.373123e+001  6.000000e-001  1.386445e+002
    endloop
  endfacet
  facet normal  3.826783e-001  0.000000e+000  9.238816e-001
    outer loop
      vertex  1.373123e+001  0.000000e+000  1.386445e+002
      vertex  1.373123e+001  6.000000e-001  1.386445e+002
      vertex  1.274196e+001  0.000000e+000  1.390542e+002
    endloop
  endfacet
  facet normal  3.826783e-001  -0.000000e+000  9.238816e-001
    outer loop
      vertex  1.274196e+001  0.000000e+000  1.390542e+002
      vertex  1.373123e+001  6.000000e-001  1.386445e+002
      vertex  1.274196e+001  6.000000e-001  1.390542e+002
    endloop
  endfacet
  facet normal  3.158008e-001  0.000000e+000  9.488255e-001
    outer loop
      vertex  1.274196e+001  0.000000e+000  1.390542e+002
      vertex  1.274196e+001  6.000000e-001  1.390542e+002
      vertex  1.172599e+001  0.000000e+000  1.393924e+002
    endloop
  endfacet
  facet normal  3.158008e-001  -0.000000e+000  9.488255e-001
    outer loop
      vertex  1.172599e+001  0.000000e+000  1.393924e+002
      vertex  1.274196e+001  6.000000e-001  1.390542e+002
      vertex  1.172599e+001  6.000000e-001  1.393924e+002
    endloop
  endfacet
  facet normal  2.473000e-001  0.000000e+000  9.689389e-001
    outer loop
      vertex  1.172599e+001  0.000000e+000  1.393924e+002
      vertex  1.172599e+001  6.000000e-001  1.393924e+002
      vertex  1.068848e+001  0.000000e+000  1.396572e+002
    endloop
  endfacet
  facet normal  2.473000e-001  -0.000000e+000  9.689389e-001
    outer loop
      vertex  1.068848e+001  0.000000e+000  1.396572e+002
      vertex  1.172599e+001  6.000000e-001  1.393924e+002
      vertex  1.068848e+001  6.000000e-001  1.396572e+002
    endloop
  endfacet
  facet normal  1.775585e-001  0.000000e+000  9.841103e-001
    outer loop
      vertex  1.068848e+001  0.000000e+000  1.396572e+002
      vertex  1.068848e+001  6.000000e-001  1.396572e+002
      vertex  9.634723e+000  0.000000e+000  1.398473e+002
    endloop
  endfacet
  facet normal  1.775585e-001  -0.000000e+000  9.841103e-001
    outer loop
      vertex  9.634723e+000  0.000000e+000  1.398473e+002
      vertex  1.068848e+001  6.000000e-001  1.396572e+002
      vertex  9.634723e+000  6.000000e-001  1.398473e+002
    endloop
  endfacet
  facet normal  1.068915e-001  0.000000e+000  9.942707e-001
    outer loop
      vertex  9.634723e+000  0.000000e+000  1.398473e+002
      vertex  9.634723e+000  6.000000e-001  1.398473e+002
      vertex  8.570087e+000  0.000000e+000  1.399618e+002
    endloop
  endfacet
  facet normal  1.068915e-001  -0.000000e+000  9.942707e-001
    outer loop
      vertex  8.570087e+000  0.000000e+000  1.399618e+002
      vertex  9.634723e+000  6.000000e-001  1.398473e+002
      vertex  8.570087e+000  6.000000e-001  1.399618e+002
    endloop
  endfacet
  facet normal  3.569699e-002  0.000000e+000  9.993626e-001
    outer loop
      vertex  8.570087e+000  0.000000e+000  1.399618e+002
      vertex  8.570087e+000  6.000000e-001  1.399618e+002
      vertex  7.500000e+000  0.000000e+000  1.400000e+002
    endloop
  endfacet
  facet normal  3.569699e-002  -0.000000e+000  9.993626e-001
    outer loop
      vertex  7.500000e+000  0.000000e+000  1.400000e+002
      vertex  8.570087e+000  6.000000e-001  1.399618e+002
      vertex  7.500000e+000  6.000000e-001  1.400000e+002
    endloop
  endfacet
  facet normal  1.000000e+000  -0.000000e+000  0.000000e+000
    outer loop
      vertex -5.000000e-001  6.000000e-001  1.400000e+002
      vertex -5.000000e-001  0.000000e+000  1.400000e+002
      vertex -5.000000e-001  6.000000e-001  5.500000e+001
    endloop
  endfacet
  facet normal  1.000000e+000  0.000000e+000  0.000000e+000
    outer loop
      vertex -5.000000e-001  6.000000e-001  5.500000e+001
      vertex -5.000000e-001  0.000000e+000  1.400000e+002
      vertex -5.000000e-001  0.000000e+000  5.500000e+001
    endloop
  endfacet
  facet normal  0.000000e+000  0.000000e+000  1.000000e+000
    outer loop
      vertex  5.000000e-001  0.000000e+000  5.500000e+001
      vertex  5.000000e-001  6.000000e-001  5.500000e+001
      vertex -5.000000e-001  0.000000e+000  5.500000e+001
    endloop
  endfacet
  facet normal  0.000000e+000  0.000000e+000  1.000000e+000
    outer loop
      vertex -5.000000e-001  0.000000e+000  5.500000e+001
      vertex  5.000000e-001  6.000000e-001  5.500000e+001
      vertex -5.000000e-001  6.000000e-001  5.500000e+001
    endloop
  endfacet
  facet normal -1.000000e+000  0.000000e+000  0.000000e+000
    outer loop
      vertex  5.000000e-001  6.000000e-001  5.500000e+001
      vertex  5.000000e-001  0.000000e+000  5.500000e+001
      vertex  5.000000e-001  6.000000e-001  1.400000e+002
    endloop
  endfacet
  facet normal -1.000000e+000  -0.000000e+000  0.000000e+000
    outer loop
      vertex  5.000000e-001  6.000000e-001  1.400000e+002
      vertex  5.000000e-001  0.000000e+000  5.500000e+001
      vertex  5.000000e-001  0.000000e+000  1.400000e+002
    endloop
  endfacet
  facet normal  -0.000000e+000  0.000000e+000  1.000000e+000
    outer loop
      vertex  1.450000e+001  6.000000e-001  3.000000e+000
      vertex  5.000000e-001  6.000000e-001  3.000000e+000
      vertex  1.450000e+001  0.000000e+000  3.000000e+000
    endloop
  endfacet
  facet normal  0.000000e+000  0.000000e+000  1.000000e+000
    outer loop
      vertex  1.450000e+001  0.000000e+000  3.000000e+000
      vertex  5.000000e-001  6.000000e-001  3.000000e+000
      vertex  5.000000e-001  0.000000e+000  3.000000e+000
    endloop
  endfacet
  facet normal  -0.000000e+000  0.000000e+000  1.000000e+000
    outer loop
      vertex -5.000000e-001  6.000000e-001  3.000000e+000
      vertex -1.450000e+001  6.000000e-001  3.000000e+000
      vertex -5.000000e-001  0.000000e+000  3.000000e+000
    endloop
  endfacet
  facet normal  0.000000e+000  0.000000e+000  1.000000e+000
    outer loop
      vertex -5.000000e-001  0.000000e+000  3.000000e+000
      vertex -1.450000e+001  6.000000e-001  3.000000e+000
      vertex -1.450000e+001  0.000000e+000  3.000000e+000
    endloop
  endfacet
  facet normal  0.000000e+000  0.000000e+000 -1.000000e+000
    outer loop
      vertex  2.250000e+001  6.000000e-001  0.000000e+000
      vertex  2.250000e+001  0.000000e+000  0.000000e+000
      vertex  5.000000e-001  6.000000e-001  0.000000e+000
    endloop
  endfacet
  facet normal  0.000000e+000  0.000000e+000 -1.000000e+000
    outer loop
      vertex  5.000000e-001  6.000000e-001  0.000000e+000
      vertex  2.250000e+001  0.000000e+000  0.000000e+000
      vertex  5.000000e-001  0.000000e+000  0.000000e+000
    endloop
  endfacet
  facet normal  0.000000e+000  0.000000e+000 -1.000000e+000
    outer loop
      vertex -5.000000e-001  6.000000e-001  0.000000e+000
      vertex -5.000000e-001  0.000000e+000  0.000000e+000
      vertex -2.250000e+001  6.000000e-001  0.000000e+000
    endloop
  endfacet
  facet normal  0.000000e+000  0.000000e+000 -1.000000e+000
    outer loop
      vertex -2.250000e+001  6.000000e-001  0.000000e+000
      vertex -5.000000e-001  0.000000e+000  0.000000e+000
      vertex -2.250000e+001  0.000000e+000  0.000000e+000
    endloop
  endfacet
  facet normal -1.000000e+000  0.000000e+000  0.000000e+000
    outer loop
      vertex  5.000000e-001  6.000000e-001  0.000000e+000
      vertex  5.000000e-001  0.000000e+000  0.000000e+000
      vertex  5.000000e-001  6.000000e-001  3.000000e+000
    endloop
  endfacet
  facet normal -1.000000e+000  -0.000000e+000  0.000000e+000
    outer loop
      vertex  5.000000e-001  6.000000e-001  3.000000e+000
      vertex  5.000000e-001  0.000000e+000  0.000000e+000
      vertex  5.000000e-001  0.000000e+000  3.000000e+000
    endloop
  endfacet
  facet normal  1.000000e+000  -0.000000e+000  0.000000e+000
    outer loop
      vertex -5.000000e-001  6.000000e-001  3.000000e+000
      vertex -5.000000e-001  0.000000e+000  3.000000e+000
      vertex -5.000000e-001  6.000000e-001  0.000000e+000
    endloop
  endfacet
  facet normal  1.000000e+000  0.000000e+000  0.000000e+000
    outer loop
      vertex -5.000000e-001  6.000000e-001  0.000000e+000
      vertex -5.000000e-001  0.000000e+000  3.000000e+000
      vertex -5.000000e-001  0.000000e+000  0.000000e+000
    endloop
  endfacet
  facet normal  1.000000e+000  -0.000000e+000  0.000000e+000
    outer loop
      vertex -1.450000e+001  6.000000e-001  8.400000e+000
      vertex -1.450000e+001  0.000000e+000  8.400000e+000
      vertex -1.450000e+001  6.000000e-001  3.000000e+000
    endloop
  endfacet
  facet normal  1.000000e+000  0.000000e+000  0.000000e+000
    outer loop
      vertex -1.450000e+001  6.000000e-001  3.000000e+000
      vertex -1.450000e+001  0.000000e+000  8.400000e+000
      vertex -1.450000e+001  0.000000e+000  3.000000e+000
    endloop
  endfacet
  facet normal -1.000000e+000  0.000000e+000  0.000000e+000
    outer loop
      vertex  1.450000e+001  6.000000e-001  3.000000e+000
      vertex  1.450000e+001  0.000000e+000  3.000000e+000
      vertex  1.450000e+001  6.000000e-001  8.400000e+000
    endloop
  endfacet
  facet normal -1.000000e+000  -0.000000e+000  0.000000e+000
    outer loop
      vertex  1.450000e+001  6.000000e-001  8.400000e+000
      vertex  1.450000e+001  0.000000e+000  3.000000e+000
      vertex  1.450000e+001  0.000000e+000  8.400000e+000
    endloop
  endfacet
  facet normal  -0.000000e+000  0.000000e+000 -1.000000e+000
    outer loop
      vertex -1.450000e+001  6.000000e-001  8.400000e+000
      vertex  1.450000e+001  6.000000e-001  8.400000e+000
      vertex -1.450000e+001  0.000000e+000  8.400000e+000
    endloop
  endfacet
  facet normal  0.000000e+000  0.000000e+000 -1.000000e+000
    outer loop
      vertex -1.450000e+001  0.000000e+000  8.400000e+000
      vertex  1.450000e+001  6.000000e-001  8.400000e+000
      vertex  1.450000e+001  0.000000e+000  8.400000e+000
    endloop
  endfacet
endsolid CATIA STL
