solid CATIA STL
  facet normal  0.000000e+000  0.000000e+000 -1.000000e+000
    outer loop
      vertex  6.000000e-001  1.500000e+001  9.000000e+000
      vertex  6.000000e-001  5.000000e-001  9.000000e+000
      vertex  0.000000e+000  1.500000e+001  9.000000e+000
    endloop
  endfacet
  facet normal  0.000000e+000  0.000000e+000 -1.000000e+000
    outer loop
      vertex  0.000000e+000  1.500000e+001  9.000000e+000
      vertex  6.000000e-001  5.000000e-001  9.000000e+000
      vertex  0.000000e+000  5.000000e-001  9.000000e+000
    endloop
  endfacet
  facet normal  0.000000e+000  0.000000e+000 -1.000000e+000
    outer loop
      vertex  6.000000e-001 -5.000000e-001  9.000000e+000
      vertex  6.000000e-001 -1.500000e+001  9.000000e+000
      vertex  0.000000e+000 -5.000000e-001  9.000000e+000
    endloop
  endfacet
  facet normal  0.000000e+000  0.000000e+000 -1.000000e+000
    outer loop
      vertex  0.000000e+000 -5.000000e-001  9.000000e+000
      vertex  6.000000e-001 -1.500000e+001  9.000000e+000
      vertex  0.000000e+000 -1.500000e+001  9.000000e+000
    endloop
  endfacet
  facet normal -1.000000e+000  0.000000e+000  -0.000000e+000
    outer loop
      vertex  0.000000e+000 -2.000000e+001  1.250000e+002
      vertex  0.000000e+000 -1.996178e+001  1.260701e+002
      vertex  0.000000e+000 -1.984732e+001  1.271347e+002
    endloop
  endfacet
  facet normal -1.000000e+000  0.000000e+000  -0.000000e+000
    outer loop
      vertex  0.000000e+000 -2.000000e+001  1.250000e+002
      vertex  0.000000e+000 -1.984732e+001  1.271347e+002
      vertex  0.000000e+000 -1.965720e+001  1.281885e+002
    endloop
  endfacet
  facet normal -1.000000e+000  0.000000e+000  -0.000000e+000
    outer loop
      vertex  0.000000e+000 -2.000000e+001  1.250000e+002
      vertex  0.000000e+000 -1.965720e+001  1.281885e+002
      vertex  0.000000e+000 -1.939240e+001  1.292260e+002
    endloop
  endfacet
  facet normal -1.000000e+000  0.000000e+000  -0.000000e+000
    outer loop
      vertex  0.000000e+000 -2.000000e+001  1.250000e+002
      vertex  0.000000e+000 -1.939240e+001  1.292260e+002
      vertex  0.000000e+000 -1.905424e+001  1.302420e+002
    endloop
  endfacet
  facet normal -1.000000e+000  0.000000e+000  -0.000000e+000
    outer loop
      vertex  0.000000e+000 -2.000000e+001  1.250000e+002
      vertex  0.000000e+000 -1.905424e+001  1.302420e+002
      vertex  0.000000e+000 -1.864448e+001  1.312312e+002
    endloop
  endfacet
  facet normal -1.000000e+000  0.000000e+000  -0.000000e+000
    outer loop
      vertex  0.000000e+000 -2.000000e+001  1.250000e+002
      vertex  0.000000e+000 -1.864448e+001  1.312312e+002
      vertex  0.000000e+000 -1.816518e+001  1.321887e+002
    endloop
  endfacet
  facet normal -1.000000e+000  0.000000e+000  -0.000000e+000
    outer loop
      vertex  0.000000e+000 -2.000000e+001  1.250000e+002
      vertex  0.000000e+000 -1.816518e+001  1.321887e+002
      vertex  0.000000e+000 -1.761880e+001  1.331096e+002
    endloop
  endfacet
  facet normal -1.000000e+000  0.000000e+000  -0.000000e+000
    outer loop
      vertex  0.000000e+000 -2.000000e+001  1.250000e+002
      vertex  0.000000e+000 -1.761880e+001  1.331096e+002
      vertex  0.000000e+000 -1.700812e+001  1.339892e+002
    endloop
  endfacet
  facet normal -9.999999e-001  0.000000e+000  -0.000000e+000
    outer loop
      vertex  0.000000e+000 -2.000000e+001  1.250000e+002
      vertex  0.000000e+000 -1.700812e+001  1.339892e+002
      vertex  0.000000e+000 -1.633624e+001  1.348229e+002
    endloop
  endfacet
  facet normal -1.000000e+000  0.000000e+000  -0.000000e+000
    outer loop
      vertex  0.000000e+000 -2.000000e+001  1.250000e+002
      vertex  0.000000e+000 -1.633624e+001  1.348229e+002
      vertex  0.000000e+000 -1.560660e+001  1.356066e+002
    endloop
  endfacet
  facet normal -1.000000e+000  0.000000e+000  -0.000000e+000
    outer loop
      vertex  0.000000e+000 -2.000000e+001  1.250000e+002
      vertex  0.000000e+000 -1.560660e+001  1.356066e+002
      vertex  0.000000e+000 -1.482291e+001  1.363362e+002
    endloop
  endfacet
  facet normal -1.000000e+000  0.000000e+000  -0.000000e+000
    outer loop
      vertex  0.000000e+000 -2.000000e+001  1.250000e+002
      vertex  0.000000e+000 -1.482291e+001  1.363362e+002
      vertex  0.000000e+000 -1.398917e+001  1.370081e+002
    endloop
  endfacet
  facet normal -9.999999e-001  0.000000e+000  -0.000000e+000
    outer loop
      vertex  0.000000e+000 -2.000000e+001  1.250000e+002
      vertex  0.000000e+000 -1.398917e+001  1.370081e+002
      vertex  0.000000e+000 -1.310961e+001  1.376188e+002
    endloop
  endfacet
  facet normal -9.999999e-001  0.000000e+000  -0.000000e+000
    outer loop
      vertex  0.000000e+000 -2.000000e+001  1.250000e+002
      vertex  0.000000e+000 -1.310961e+001  1.376188e+002
      vertex  0.000000e+000 -1.218874e+001  1.381652e+002
    endloop
  endfacet
  facet normal -1.000000e+000  0.000000e+000  -0.000000e+000
    outer loop
      vertex  0.000000e+000 -2.000000e+001  1.250000e+002
      vertex  0.000000e+000 -1.218874e+001  1.381652e+002
      vertex  0.000000e+000 -1.123123e+001  1.386445e+002
    endloop
  endfacet
  facet normal -1.000000e+000  0.000000e+000  -0.000000e+000
    outer loop
      vertex  0.000000e+000 -2.000000e+001  1.250000e+002
      vertex  0.000000e+000 -1.123123e+001  1.386445e+002
      vertex  0.000000e+000 -1.024196e+001  1.390542e+002
    endloop
  endfacet
  facet normal -1.000000e+000  0.000000e+000  -0.000000e+000
    outer loop
      vertex  0.000000e+000 -2.000000e+001  1.250000e+002
      vertex  0.000000e+000 -1.024196e+001  1.390542e+002
      vertex  0.000000e+000 -9.225988e+000  1.393924e+002
    endloop
  endfacet
  facet normal -1.000000e+000  0.000000e+000  -0.000000e+000
    outer loop
      vertex  0.000000e+000 -2.000000e+001  1.250000e+002
      vertex  0.000000e+000 -9.225988e+000  1.393924e+002
      vertex  0.000000e+000 -8.188479e+000  1.396572e+002
    endloop
  endfacet
  facet normal -9.999999e-001  0.000000e+000  -0.000000e+000
    outer loop
      vertex  0.000000e+000 -2.000000e+001  1.250000e+002
      vertex  0.000000e+000 -8.188479e+000  1.396572e+002
      vertex  0.000000e+000 -7.134723e+000  1.398473e+002
    endloop
  endfacet
  facet normal -1.000000e+000  0.000000e+000  -0.000000e+000
    outer loop
      vertex  0.000000e+000 -2.000000e+001  1.250000e+002
      vertex  0.000000e+000 -7.134723e+000  1.398473e+002
      vertex  0.000000e+000 -6.070088e+000  1.399618e+002
    endloop
  endfacet
  facet normal -9.999999e-001  0.000000e+000  -0.000000e+000
    outer loop
      vertex  0.000000e+000 -2.000000e+001  1.250000e+002
      vertex  0.000000e+000 -6.070088e+000  1.399618e+002
      vertex  0.000000e+000 -5.000000e+000  1.400000e+002
    endloop
  endfacet
  facet normal -1.000000e+000  0.000000e+000  -0.000000e+000
    outer loop
      vertex  0.000000e+000 -2.000000e+001  1.250000e+002
      vertex  0.000000e+000 -5.000000e+000  1.400000e+002
      vertex  0.000000e+000 -5.000000e-001  6.400000e+001
    endloop
  endfacet
  facet normal -1.000000e+000  -0.000000e+000  -0.000000e+000
    outer loop
      vertex  0.000000e+000 -2.000000e+001  1.250000e+002
      vertex  0.000000e+000 -5.000000e-001  6.400000e+001
      vertex  0.000000e+000 -5.000000e-001  9.000000e+000
    endloop
  endfacet
  facet normal -1.000000e+000  0.000000e+000  0.000000e+000
    outer loop
      vertex  0.000000e+000 -2.000000e+001  1.250000e+002
      vertex  0.000000e+000 -5.000000e-001  9.000000e+000
      vertex  0.000000e+000 -1.500000e+001  9.000000e+000
    endloop
  endfacet
  facet normal -1.000000e+000  -0.000000e+000  -0.000000e+000
    outer loop
      vertex  0.000000e+000 -2.000000e+001  1.250000e+002
      vertex  0.000000e+000 -1.500000e+001  9.000000e+000
      vertex  0.000000e+000 -1.500000e+001  3.000000e+000
    endloop
  endfacet
  facet normal -1.000000e+000  -0.000000e+000  0.000000e+000
    outer loop
      vertex  0.000000e+000 -2.000000e+001  1.250000e+002
      vertex  0.000000e+000 -1.500000e+001  3.000000e+000
      vertex  0.000000e+000 -2.000000e+001  0.000000e+000
    endloop
  endfacet
  facet normal -1.000000e+000  0.000000e+000  0.000000e+000
    outer loop
      vertex  0.000000e+000  5.000000e-001  6.400000e+001
      vertex  0.000000e+000 -5.000000e-001  6.400000e+001
      vertex  0.000000e+000 -5.000000e+000  1.400000e+002
    endloop
  endfacet
  facet normal -1.000000e+000  0.000000e+000  0.000000e+000
    outer loop
      vertex  0.000000e+000  5.000000e-001  6.400000e+001
      vertex  0.000000e+000 -5.000000e+000  1.400000e+002
      vertex  0.000000e+000  5.000000e+000  1.400000e+002
    endloop
  endfacet
  facet normal -9.999999e-001  0.000000e+000  -0.000000e+000
    outer loop
      vertex  0.000000e+000  5.000000e-001  6.400000e+001
      vertex  0.000000e+000  5.000000e+000  1.400000e+002
      vertex  0.000000e+000  6.070088e+000  1.399618e+002
    endloop
  endfacet
  facet normal -1.000000e+000  0.000000e+000  -0.000000e+000
    outer loop
      vertex  0.000000e+000  5.000000e-001  6.400000e+001
      vertex  0.000000e+000  6.070088e+000  1.399618e+002
      vertex  0.000000e+000  7.134723e+000  1.398473e+002
    endloop
  endfacet
  facet normal -1.000000e+000  0.000000e+000  -0.000000e+000
    outer loop
      vertex  0.000000e+000  5.000000e-001  6.400000e+001
      vertex  0.000000e+000  7.134723e+000  1.398473e+002
      vertex  0.000000e+000  8.188479e+000  1.396572e+002
    endloop
  endfacet
  facet normal -1.000000e+000  0.000000e+000  -0.000000e+000
    outer loop
      vertex  0.000000e+000  5.000000e-001  6.400000e+001
      vertex  0.000000e+000  8.188479e+000  1.396572e+002
      vertex  0.000000e+000  9.225988e+000  1.393924e+002
    endloop
  endfacet
  facet normal -1.000000e+000  0.000000e+000  -0.000000e+000
    outer loop
      vertex  0.000000e+000  5.000000e-001  6.400000e+001
      vertex  0.000000e+000  9.225988e+000  1.393924e+002
      vertex  0.000000e+000  1.024196e+001  1.390542e+002
    endloop
  endfacet
  facet normal -1.000000e+000  0.000000e+000  -0.000000e+000
    outer loop
      vertex  0.000000e+000  5.000000e-001  6.400000e+001
      vertex  0.000000e+000  1.024196e+001  1.390542e+002
      vertex  0.000000e+000  1.123123e+001  1.386445e+002
    endloop
  endfacet
  facet normal -1.000000e+000  0.000000e+000  -0.000000e+000
    outer loop
      vertex  0.000000e+000  5.000000e-001  6.400000e+001
      vertex  0.000000e+000  1.123123e+001  1.386445e+002
      vertex  0.000000e+000  1.218874e+001  1.381652e+002
    endloop
  endfacet
  facet normal -1.000000e+000  0.000000e+000  -0.000000e+000
    outer loop
      vertex  0.000000e+000  5.000000e-001  6.400000e+001
      vertex  0.000000e+000  1.218874e+001  1.381652e+002
      vertex  0.000000e+000  1.310961e+001  1.376188e+002
    endloop
  endfacet
  facet normal -1.000000e+000  0.000000e+000  -0.000000e+000
    outer loop
      vertex  0.000000e+000  5.000000e-001  6.400000e+001
      vertex  0.000000e+000  1.310961e+001  1.376188e+002
      vertex  0.000000e+000  1.398917e+001  1.370081e+002
    endloop
  endfacet
  facet normal -1.000000e+000  0.000000e+000  -0.000000e+000
    outer loop
      vertex  0.000000e+000  5.000000e-001  6.400000e+001
      vertex  0.000000e+000  1.398917e+001  1.370081e+002
      vertex  0.000000e+000  1.482291e+001  1.363362e+002
    endloop
  endfacet
  facet normal -1.000000e+000  0.000000e+000  -0.000000e+000
    outer loop
      vertex  0.000000e+000  5.000000e-001  6.400000e+001
      vertex  0.000000e+000  1.482291e+001  1.363362e+002
      vertex  0.000000e+000  1.560660e+001  1.356066e+002
    endloop
  endfacet
  facet normal -1.000000e+000  0.000000e+000  -0.000000e+000
    outer loop
      vertex  0.000000e+000  5.000000e-001  6.400000e+001
      vertex  0.000000e+000  1.560660e+001  1.356066e+002
      vertex  0.000000e+000  1.633624e+001  1.348229e+002
    endloop
  endfacet
  facet normal -9.999999e-001  0.000000e+000  -0.000000e+000
    outer loop
      vertex  0.000000e+000  5.000000e-001  6.400000e+001
      vertex  0.000000e+000  1.633624e+001  1.348229e+002
      vertex  0.000000e+000  1.700812e+001  1.339892e+002
    endloop
  endfacet
  facet normal -9.999999e-001  0.000000e+000  -0.000000e+000
    outer loop
      vertex  0.000000e+000  5.000000e-001  6.400000e+001
      vertex  0.000000e+000  1.700812e+001  1.339892e+002
      vertex  0.000000e+000  1.761880e+001  1.331096e+002
    endloop
  endfacet
  facet normal -1.000000e+000  0.000000e+000  -0.000000e+000
    outer loop
      vertex  0.000000e+000  5.000000e-001  6.400000e+001
      vertex  0.000000e+000  1.761880e+001  1.331096e+002
      vertex  0.000000e+000  1.816518e+001  1.321887e+002
    endloop
  endfacet
  facet normal -1.000000e+000  0.000000e+000  -0.000000e+000
    outer loop
      vertex  0.000000e+000  5.000000e-001  6.400000e+001
      vertex  0.000000e+000  1.816518e+001  1.321887e+002
      vertex  0.000000e+000  1.864448e+001  1.312312e+002
    endloop
  endfacet
  facet normal -1.000000e+000  0.000000e+000  -0.000000e+000
    outer loop
      vertex  0.000000e+000  5.000000e-001  6.400000e+001
      vertex  0.000000e+000  1.864448e+001  1.312312e+002
      vertex  0.000000e+000  1.905424e+001  1.302420e+002
    endloop
  endfacet
  facet normal -1.000000e+000  0.000000e+000  -0.000000e+000
    outer loop
      vertex  0.000000e+000  5.000000e-001  6.400000e+001
      vertex  0.000000e+000  1.905424e+001  1.302420e+002
      vertex  0.000000e+000  1.939240e+001  1.292260e+002
    endloop
  endfacet
  facet normal -1.000000e+000  0.000000e+000  -0.000000e+000
    outer loop
      vertex  0.000000e+000  5.000000e-001  6.400000e+001
      vertex  0.000000e+000  1.939240e+001  1.292260e+002
      vertex  0.000000e+000  1.965720e+001  1.281885e+002
    endloop
  endfacet
  facet normal -1.000000e+000  0.000000e+000  -0.000000e+000
    outer loop
      vertex  0.000000e+000  5.000000e-001  6.400000e+001
      vertex  0.000000e+000  1.965720e+001  1.281885e+002
      vertex  0.000000e+000  1.984732e+001  1.271347e+002
    endloop
  endfacet
  facet normal -1.000000e+000  0.000000e+000  -0.000000e+000
    outer loop
      vertex  0.000000e+000  5.000000e-001  6.400000e+001
      vertex  0.000000e+000  1.984732e+001  1.271347e+002
      vertex  0.000000e+000  1.996178e+001  1.260701e+002
    endloop
  endfacet
  facet normal -1.000000e+000  0.000000e+000  -0.000000e+000
    outer loop
      vertex  0.000000e+000  5.000000e-001  6.400000e+001
      vertex  0.000000e+000  1.996178e+001  1.260701e+002
      vertex  0.000000e+000  2.000000e+001  1.250000e+002
    endloop
  endfacet
  facet normal -1.000000e+000  0.000000e+000  0.000000e+000
    outer loop
      vertex  0.000000e+000  5.000000e-001  6.400000e+001
      vertex  0.000000e+000  2.000000e+001  1.250000e+002
      vertex  0.000000e+000  1.500000e+001  9.000000e+000
    endloop
  endfacet
  facet normal -1.000000e+000  0.000000e+000  0.000000e+000
    outer loop
      vertex  0.000000e+000  5.000000e-001  6.400000e+001
      vertex  0.000000e+000  1.500000e+001  9.000000e+000
      vertex  0.000000e+000  5.000000e-001  9.000000e+000
    endloop
  endfacet
  facet normal -1.000000e+000  0.000000e+000  0.000000e+000
    outer loop
      vertex  0.000000e+000  2.000000e+001  1.250000e+002
      vertex  0.000000e+000  2.000000e+001  0.000000e+000
      vertex  0.000000e+000  1.500000e+001  9.000000e+000
    endloop
  endfacet
  facet normal -1.000000e+000  0.000000e+000  0.000000e+000
    outer loop
      vertex  0.000000e+000  1.500000e+001  9.000000e+000
      vertex  0.000000e+000  2.000000e+001  0.000000e+000
      vertex  0.000000e+000  1.500000e+001  3.000000e+000
    endloop
  endfacet
  facet normal -1.000000e+000  0.000000e+000  0.000000e+000
    outer loop
      vertex  0.000000e+000  2.000000e+001  0.000000e+000
      vertex  0.000000e+000 -2.000000e+001  0.000000e+000
      vertex  0.000000e+000  1.500000e+001  3.000000e+000
    endloop
  endfacet
  facet normal -1.000000e+000  -0.000000e+000  0.000000e+000
    outer loop
      vertex  0.000000e+000  1.500000e+001  3.000000e+000
      vertex  0.000000e+000 -2.000000e+001  0.000000e+000
      vertex  0.000000e+000 -1.500000e+001  3.000000e+000
    endloop
  endfacet
  facet normal  1.000000e+000  0.000000e+000  0.000000e+000
    outer loop
      vertex  6.000000e-001 -2.000000e+001  1.250000e+002
      vertex  6.000000e-001 -2.000000e+001  0.000000e+000
      vertex  6.000000e-001 -1.500000e+001  3.000000e+000
    endloop
  endfacet
  facet normal  1.000000e+000  0.000000e+000  -0.000000e+000
    outer loop
      vertex  6.000000e-001 -2.000000e+001  1.250000e+002
      vertex  6.000000e-001 -1.500000e+001  3.000000e+000
      vertex  6.000000e-001 -1.500000e+001  9.000000e+000
    endloop
  endfacet
  facet normal  1.000000e+000  0.000000e+000  -0.000000e+000
    outer loop
      vertex  6.000000e-001 -2.000000e+001  1.250000e+002
      vertex  6.000000e-001 -1.500000e+001  9.000000e+000
      vertex  6.000000e-001 -5.000000e-001  9.000000e+000
    endloop
  endfacet
  facet normal  1.000000e+000  0.000000e+000  -0.000000e+000
    outer loop
      vertex  6.000000e-001 -2.000000e+001  1.250000e+002
      vertex  6.000000e-001 -5.000000e-001  9.000000e+000
      vertex  6.000000e-001 -5.000000e-001  6.400000e+001
    endloop
  endfacet
  facet normal  1.000000e+000  0.000000e+000  0.000000e+000
    outer loop
      vertex  6.000000e-001 -2.000000e+001  1.250000e+002
      vertex  6.000000e-001 -5.000000e-001  6.400000e+001
      vertex  6.000000e-001 -5.000000e+000  1.400000e+002
    endloop
  endfacet
  facet normal  1.000000e+000  0.000000e+000  0.000000e+000
    outer loop
      vertex  6.000000e-001 -2.000000e+001  1.250000e+002
      vertex  6.000000e-001 -5.000000e+000  1.400000e+002
      vertex  6.000000e-001 -6.070088e+000  1.399618e+002
    endloop
  endfacet
  facet normal  1.000000e+000  0.000000e+000  0.000000e+000
    outer loop
      vertex  6.000000e-001 -2.000000e+001  1.250000e+002
      vertex  6.000000e-001 -6.070088e+000  1.399618e+002
      vertex  6.000000e-001 -7.134723e+000  1.398473e+002
    endloop
  endfacet
  facet normal  9.999999e-001  0.000000e+000  0.000000e+000
    outer loop
      vertex  6.000000e-001 -2.000000e+001  1.250000e+002
      vertex  6.000000e-001 -7.134723e+000  1.398473e+002
      vertex  6.000000e-001 -8.188479e+000  1.396572e+002
    endloop
  endfacet
  facet normal  1.000000e+000  0.000000e+000  0.000000e+000
    outer loop
      vertex  6.000000e-001 -2.000000e+001  1.250000e+002
      vertex  6.000000e-001 -8.188479e+000  1.396572e+002
      vertex  6.000000e-001 -9.225988e+000  1.393924e+002
    endloop
  endfacet
  facet normal  1.000000e+000  0.000000e+000  0.000000e+000
    outer loop
      vertex  6.000000e-001 -2.000000e+001  1.250000e+002
      vertex  6.000000e-001 -9.225988e+000  1.393924e+002
      vertex  6.000000e-001 -1.024196e+001  1.390542e+002
    endloop
  endfacet
  facet normal  1.000000e+000  0.000000e+000  0.000000e+000
    outer loop
      vertex  6.000000e-001 -2.000000e+001  1.250000e+002
      vertex  6.000000e-001 -1.024196e+001  1.390542e+002
      vertex  6.000000e-001 -1.123123e+001  1.386445e+002
    endloop
  endfacet
  facet normal  1.000000e+000  0.000000e+000  0.000000e+000
    outer loop
      vertex  6.000000e-001 -2.000000e+001  1.250000e+002
      vertex  6.000000e-001 -1.123123e+001  1.386445e+002
      vertex  6.000000e-001 -1.218874e+001  1.381652e+002
    endloop
  endfacet
  facet normal  9.999999e-001  0.000000e+000  0.000000e+000
    outer loop
      vertex  6.000000e-001 -2.000000e+001  1.250000e+002
      vertex  6.000000e-001 -1.218874e+001  1.381652e+002
      vertex  6.000000e-001 -1.310961e+001  1.376188e+002
    endloop
  endfacet
  facet normal  9.999999e-001  0.000000e+000  0.000000e+000
    outer loop
      vertex  6.000000e-001 -2.000000e+001  1.250000e+002
      vertex  6.000000e-001 -1.310961e+001  1.376188e+002
      vertex  6.000000e-001 -1.398917e+001  1.370081e+002
    endloop
  endfacet
  facet normal  1.000000e+000  0.000000e+000  0.000000e+000
    outer loop
      vertex  6.000000e-001 -2.000000e+001  1.250000e+002
      vertex  6.000000e-001 -1.398917e+001  1.370081e+002
      vertex  6.000000e-001 -1.482291e+001  1.363362e+002
    endloop
  endfacet
  facet normal  1.000000e+000  0.000000e+000  0.000000e+000
    outer loop
      vertex  6.000000e-001 -2.000000e+001  1.250000e+002
      vertex  6.000000e-001 -1.482291e+001  1.363362e+002
      vertex  6.000000e-001 -1.560660e+001  1.356066e+002
    endloop
  endfacet
  facet normal  1.000000e+000  0.000000e+000  0.000000e+000
    outer loop
      vertex  6.000000e-001 -2.000000e+001  1.250000e+002
      vertex  6.000000e-001 -1.560660e+001  1.356066e+002
      vertex  6.000000e-001 -1.633624e+001  1.348229e+002
    endloop
  endfacet
  facet normal  9.999999e-001  0.000000e+000  0.000000e+000
    outer loop
      vertex  6.000000e-001 -2.000000e+001  1.250000e+002
      vertex  6.000000e-001 -1.633624e+001  1.348229e+002
      vertex  6.000000e-001 -1.700812e+001  1.339892e+002
    endloop
  endfacet
  facet normal  1.000000e+000  0.000000e+000  0.000000e+000
    outer loop
      vertex  6.000000e-001 -2.000000e+001  1.250000e+002
      vertex  6.000000e-001 -1.700812e+001  1.339892e+002
      vertex  6.000000e-001 -1.761880e+001  1.331096e+002
    endloop
  endfacet
  facet normal  1.000000e+000  0.000000e+000  0.000000e+000
    outer loop
      vertex  6.000000e-001 -2.000000e+001  1.250000e+002
      vertex  6.000000e-001 -1.761880e+001  1.331096e+002
      vertex  6.000000e-001 -1.816518e+001  1.321887e+002
    endloop
  endfacet
  facet normal  1.000000e+000  0.000000e+000  0.000000e+000
    outer loop
      vertex  6.000000e-001 -2.000000e+001  1.250000e+002
      vertex  6.000000e-001 -1.816518e+001  1.321887e+002
      vertex  6.000000e-001 -1.864448e+001  1.312312e+002
    endloop
  endfacet
  facet normal  1.000000e+000  0.000000e+000  0.000000e+000
    outer loop
      vertex  6.000000e-001 -2.000000e+001  1.250000e+002
      vertex  6.000000e-001 -1.864448e+001  1.312312e+002
      vertex  6.000000e-001 -1.905424e+001  1.302420e+002
    endloop
  endfacet
  facet normal  1.000000e+000  0.000000e+000  0.000000e+000
    outer loop
      vertex  6.000000e-001 -2.000000e+001  1.250000e+002
      vertex  6.000000e-001 -1.905424e+001  1.302420e+002
      vertex  6.000000e-001 -1.939240e+001  1.292260e+002
    endloop
  endfacet
  facet normal  1.000000e+000  0.000000e+000  0.000000e+000
    outer loop
      vertex  6.000000e-001 -2.000000e+001  1.250000e+002
      vertex  6.000000e-001 -1.939240e+001  1.292260e+002
      vertex  6.000000e-001 -1.965720e+001  1.281885e+002
    endloop
  endfacet
  facet normal  1.000000e+000  0.000000e+000  0.000000e+000
    outer loop
      vertex  6.000000e-001 -2.000000e+001  1.250000e+002
      vertex  6.000000e-001 -1.965720e+001  1.281885e+002
      vertex  6.000000e-001 -1.984732e+001  1.271347e+002
    endloop
  endfacet
  facet normal  1.000000e+000  0.000000e+000  0.000000e+000
    outer loop
      vertex  6.000000e-001 -2.000000e+001  1.250000e+002
      vertex  6.000000e-001 -1.984732e+001  1.271347e+002
      vertex  6.000000e-001 -1.996178e+001  1.260701e+002
    endloop
  endfacet
  facet normal  1.000000e+000  0.000000e+000  0.000000e+000
    outer loop
      vertex  6.000000e-001  5.000000e-001  6.400000e+001
      vertex  6.000000e-001  5.000000e-001  9.000000e+000
      vertex  6.000000e-001  1.500000e+001  9.000000e+000
    endloop
  endfacet
  facet normal  1.000000e+000  0.000000e+000  -0.000000e+000
    outer loop
      vertex  6.000000e-001  5.000000e-001  6.400000e+001
      vertex  6.000000e-001  1.500000e+001  9.000000e+000
      vertex  6.000000e-001  2.000000e+001  1.250000e+002
    endloop
  endfacet
  facet normal  1.000000e+000  0.000000e+000  0.000000e+000
    outer loop
      vertex  6.000000e-001  5.000000e-001  6.400000e+001
      vertex  6.000000e-001  2.000000e+001  1.250000e+002
      vertex  6.000000e-001  1.996178e+001  1.260701e+002
    endloop
  endfacet
  facet normal  1.000000e+000  0.000000e+000  0.000000e+000
    outer loop
      vertex  6.000000e-001  5.000000e-001  6.400000e+001
      vertex  6.000000e-001  1.996178e+001  1.260701e+002
      vertex  6.000000e-001  1.984732e+001  1.271347e+002
    endloop
  endfacet
  facet normal  1.000000e+000  0.000000e+000  0.000000e+000
    outer loop
      vertex  6.000000e-001  5.000000e-001  6.400000e+001
      vertex  6.000000e-001  1.984732e+001  1.271347e+002
      vertex  6.000000e-001  1.965720e+001  1.281885e+002
    endloop
  endfacet
  facet normal  1.000000e+000  0.000000e+000  0.000000e+000
    outer loop
      vertex  6.000000e-001  5.000000e-001  6.400000e+001
      vertex  6.000000e-001  1.965720e+001  1.281885e+002
      vertex  6.000000e-001  1.939240e+001  1.292260e+002
    endloop
  endfacet
  facet normal  1.000000e+000  0.000000e+000  0.000000e+000
    outer loop
      vertex  6.000000e-001  5.000000e-001  6.400000e+001
      vertex  6.000000e-001  1.939240e+001  1.292260e+002
      vertex  6.000000e-001  1.905424e+001  1.302420e+002
    endloop
  endfacet
  facet normal  1.000000e+000  0.000000e+000  0.000000e+000
    outer loop
      vertex  6.000000e-001  5.000000e-001  6.400000e+001
      vertex  6.000000e-001  1.905424e+001  1.302420e+002
      vertex  6.000000e-001  1.864448e+001  1.312312e+002
    endloop
  endfacet
  facet normal  1.000000e+000  0.000000e+000  0.000000e+000
    outer loop
      vertex  6.000000e-001  5.000000e-001  6.400000e+001
      vertex  6.000000e-001  1.864448e+001  1.312312e+002
      vertex  6.000000e-001  1.816518e+001  1.321887e+002
    endloop
  endfacet
  facet normal  1.000000e+000  0.000000e+000  0.000000e+000
    outer loop
      vertex  6.000000e-001  5.000000e-001  6.400000e+001
      vertex  6.000000e-001  1.816518e+001  1.321887e+002
      vertex  6.000000e-001  1.761880e+001  1.331096e+002
    endloop
  endfacet
  facet normal  9.999999e-001  0.000000e+000  0.000000e+000
    outer loop
      vertex  6.000000e-001  5.000000e-001  6.400000e+001
      vertex  6.000000e-001  1.761880e+001  1.331096e+002
      vertex  6.000000e-001  1.700812e+001  1.339892e+002
    endloop
  endfacet
  facet normal  9.999999e-001  0.000000e+000  0.000000e+000
    outer loop
      vertex  6.000000e-001  5.000000e-001  6.400000e+001
      vertex  6.000000e-001  1.700812e+001  1.339892e+002
      vertex  6.000000e-001  1.633624e+001  1.348229e+002
    endloop
  endfacet
  facet normal  1.000000e+000  0.000000e+000  0.000000e+000
    outer loop
      vertex  6.000000e-001  5.000000e-001  6.400000e+001
      vertex  6.000000e-001  1.633624e+001  1.348229e+002
      vertex  6.000000e-001  1.560660e+001  1.356066e+002
    endloop
  endfacet
  facet normal  1.000000e+000  0.000000e+000  0.000000e+000
    outer loop
      vertex  6.000000e-001  5.000000e-001  6.400000e+001
      vertex  6.000000e-001  1.560660e+001  1.356066e+002
      vertex  6.000000e-001  1.482291e+001  1.363362e+002
    endloop
  endfacet
  facet normal  1.000000e+000  0.000000e+000  0.000000e+000
    outer loop
      vertex  6.000000e-001  5.000000e-001  6.400000e+001
      vertex  6.000000e-001  1.482291e+001  1.363362e+002
      vertex  6.000000e-001  1.398917e+001  1.370081e+002
    endloop
  endfacet
  facet normal  1.000000e+000  0.000000e+000  0.000000e+000
    outer loop
      vertex  6.000000e-001  5.000000e-001  6.400000e+001
      vertex  6.000000e-001  1.398917e+001  1.370081e+002
      vertex  6.000000e-001  1.310961e+001  1.376188e+002
    endloop
  endfacet
  facet normal  1.000000e+000  0.000000e+000  0.000000e+000
    outer loop
      vertex  6.000000e-001  5.000000e-001  6.400000e+001
      vertex  6.000000e-001  1.310961e+001  1.376188e+002
      vertex  6.000000e-001  1.218874e+001  1.381652e+002
    endloop
  endfacet
  facet normal  1.000000e+000  0.000000e+000  0.000000e+000
    outer loop
      vertex  6.000000e-001  5.000000e-001  6.400000e+001
      vertex  6.000000e-001  1.218874e+001  1.381652e+002
      vertex  6.000000e-001  1.123123e+001  1.386445e+002
    endloop
  endfacet
  facet normal  1.000000e+000  0.000000e+000  0.000000e+000
    outer loop
      vertex  6.000000e-001  5.000000e-001  6.400000e+001
      vertex  6.000000e-001  1.123123e+001  1.386445e+002
      vertex  6.000000e-001  1.024196e+001  1.390542e+002
    endloop
  endfacet
  facet normal  1.000000e+000  0.000000e+000  0.000000e+000
    outer loop
      vertex  6.000000e-001  5.000000e-001  6.400000e+001
      vertex  6.000000e-001  1.024196e+001  1.390542e+002
      vertex  6.000000e-001  9.225988e+000  1.393924e+002
    endloop
  endfacet
  facet normal  1.000000e+000  0.000000e+000  0.000000e+000
    outer loop
      vertex  6.000000e-001  5.000000e-001  6.400000e+001
      vertex  6.000000e-001  9.225988e+000  1.393924e+002
      vertex  6.000000e-001  8.188479e+000  1.396572e+002
    endloop
  endfacet
  facet normal  1.000000e+000  0.000000e+000  0.000000e+000
    outer loop
      vertex  6.000000e-001  5.000000e-001  6.400000e+001
      vertex  6.000000e-001  8.188479e+000  1.396572e+002
      vertex  6.000000e-001  7.134723e+000  1.398473e+002
    endloop
  endfacet
  facet normal  1.000000e+000  0.000000e+000  0.000000e+000
    outer loop
      vertex  6.000000e-001  5.000000e-001  6.400000e+001
      vertex  6.000000e-001  7.134723e+000  1.398473e+002
      vertex  6.000000e-001  6.070088e+000  1.399618e+002
    endloop
  endfacet
  facet normal  9.999999e-001  0.000000e+000  0.000000e+000
    outer loop
      vertex  6.000000e-001  5.000000e-001  6.400000e+001
      vertex  6.000000e-001  6.070088e+000  1.399618e+002
      vertex  6.000000e-001  5.000000e+000  1.400000e+002
    endloop
  endfacet
  facet normal  1.000000e+000  0.000000e+000  0.000000e+000
    outer loop
      vertex  6.000000e-001  5.000000e-001  6.400000e+001
      vertex  6.000000e-001  5.000000e+000  1.400000e+002
      vertex  6.000000e-001 -5.000000e+000  1.400000e+002
    endloop
  endfacet
  facet normal  1.000000e+000  0.000000e+000  0.000000e+000
    outer loop
      vertex  6.000000e-001  5.000000e-001  6.400000e+001
      vertex  6.000000e-001 -5.000000e+000  1.400000e+002
      vertex  6.000000e-001 -5.000000e-001  6.400000e+001
    endloop
  endfacet
  facet normal  1.000000e+000  -0.000000e+000  0.000000e+000
    outer loop
      vertex  6.000000e-001  2.000000e+001  1.250000e+002
      vertex  6.000000e-001  1.500000e+001  9.000000e+000
      vertex  6.000000e-001  2.000000e+001  0.000000e+000
    endloop
  endfacet
  facet normal  1.000000e+000  0.000000e+000  0.000000e+000
    outer loop
      vertex  6.000000e-001  2.000000e+001  0.000000e+000
      vertex  6.000000e-001  1.500000e+001  9.000000e+000
      vertex  6.000000e-001  1.500000e+001  3.000000e+000
    endloop
  endfacet
  facet normal  1.000000e+000  0.000000e+000  0.000000e+000
    outer loop
      vertex  6.000000e-001  2.000000e+001  0.000000e+000
      vertex  6.000000e-001  1.500000e+001  3.000000e+000
      vertex  6.000000e-001 -2.000000e+001  0.000000e+000
    endloop
  endfacet
  facet normal  1.000000e+000  0.000000e+000  0.000000e+000
    outer loop
      vertex  6.000000e-001 -2.000000e+001  0.000000e+000
      vertex  6.000000e-001  1.500000e+001  3.000000e+000
      vertex  6.000000e-001 -1.500000e+001  3.000000e+000
    endloop
  endfacet
  facet normal  0.000000e+000  1.000000e+000  0.000000e+000
    outer loop
      vertex  6.000000e-001 -5.000000e-001  9.000000e+000
      vertex  0.000000e+000 -5.000000e-001  9.000000e+000
      vertex  6.000000e-001 -5.000000e-001  6.400000e+001
    endloop
  endfacet
  facet normal  0.000000e+000  1.000000e+000  0.000000e+000
    outer loop
      vertex  6.000000e-001 -5.000000e-001  6.400000e+001
      vertex  0.000000e+000 -5.000000e-001  9.000000e+000
      vertex  0.000000e+000 -5.000000e-001  6.400000e+001
    endloop
  endfacet
  facet normal  0.000000e+000  0.000000e+000 -1.000000e+000
    outer loop
      vertex  0.000000e+000 -5.000000e-001  6.400000e+001
      vertex  0.000000e+000  5.000000e-001  6.400000e+001
      vertex  6.000000e-001 -5.000000e-001  6.400000e+001
    endloop
  endfacet
  facet normal  0.000000e+000  0.000000e+000 -1.000000e+000
    outer loop
      vertex  6.000000e-001 -5.000000e-001  6.400000e+001
      vertex  0.000000e+000  5.000000e-001  6.400000e+001
      vertex  6.000000e-001  5.000000e-001  6.400000e+001
    endloop
  endfacet
  facet normal  0.000000e+000 -1.000000e+000  0.000000e+000
    outer loop
      vertex  6.000000e-001  5.000000e-001  6.400000e+001
      vertex  0.000000e+000  5.000000e-001  6.400000e+001
      vertex  6.000000e-001  5.000000e-001  9.000000e+000
    endloop
  endfacet
  facet normal  0.000000e+000 -1.000000e+000  0.000000e+000
    outer loop
      vertex  6.000000e-001  5.000000e-001  9.000000e+000
      vertex  0.000000e+000  5.000000e-001  6.400000e+001
      vertex  0.000000e+000  5.000000e-001  9.000000e+000
    endloop
  endfacet
  facet normal  -0.000000e+000  0.000000e+000  1.000000e+000
    outer loop
      vertex  6.000000e-001  5.000000e+000  1.400000e+002
      vertex  0.000000e+000  5.000000e+000  1.400000e+002
      vertex  6.000000e-001 -5.000000e+000  1.400000e+002
    endloop
  endfacet
  facet normal  0.000000e+000  0.000000e+000  1.000000e+000
    outer loop
      vertex  6.000000e-001 -5.000000e+000  1.400000e+002
      vertex  0.000000e+000  5.000000e+000  1.400000e+002
      vertex  0.000000e+000 -5.000000e+000  1.400000e+002
    endloop
  endfacet
  facet normal  0.000000e+000 -1.000000e+000  0.000000e+000
    outer loop
      vertex  6.000000e-001 -2.000000e+001  1.250000e+002
      vertex  0.000000e+000 -2.000000e+001  1.250000e+002
      vertex  6.000000e-001 -2.000000e+001  0.000000e+000
    endloop
  endfacet
  facet normal  0.000000e+000 -1.000000e+000  0.000000e+000
    outer loop
      vertex  6.000000e-001 -2.000000e+001  0.000000e+000
      vertex  0.000000e+000 -2.000000e+001  1.250000e+002
      vertex  0.000000e+000 -2.000000e+001  0.000000e+000
    endloop
  endfacet
  facet normal  0.000000e+000 -9.993628e-001  3.569153e-002
    outer loop
      vertex  0.000000e+000 -2.000000e+001  1.250000e+002
      vertex  6.000000e-001 -2.000000e+001  1.250000e+002
      vertex  0.000000e+000 -1.996178e+001  1.260701e+002
    endloop
  endfacet
  facet normal  0.000000e+000 -9.993628e-001  3.569153e-002
    outer loop
      vertex  0.000000e+000 -1.996178e+001  1.260701e+002
      vertex  6.000000e-001 -2.000000e+001  1.250000e+002
      vertex  6.000000e-001 -1.996178e+001  1.260701e+002
    endloop
  endfacet
  facet normal  0.000000e+000 -9.942702e-001  1.068956e-001
    outer loop
      vertex  0.000000e+000 -1.996178e+001  1.260701e+002
      vertex  6.000000e-001 -1.996178e+001  1.260701e+002
      vertex  0.000000e+000 -1.984732e+001  1.271347e+002
    endloop
  endfacet
  facet normal  0.000000e+000 -9.942702e-001  1.068956e-001
    outer loop
      vertex  0.000000e+000 -1.984732e+001  1.271347e+002
      vertex  6.000000e-001 -1.996178e+001  1.260701e+002
      vertex  6.000000e-001 -1.984732e+001  1.271347e+002
    endloop
  endfacet
  facet normal  0.000000e+000 -9.841112e-001  1.775533e-001
    outer loop
      vertex  0.000000e+000 -1.984732e+001  1.271347e+002
      vertex  6.000000e-001 -1.984732e+001  1.271347e+002
      vertex  0.000000e+000 -1.965720e+001  1.281885e+002
    endloop
  endfacet
  facet normal  0.000000e+000 -9.841112e-001  1.775533e-001
    outer loop
      vertex  0.000000e+000 -1.965720e+001  1.281885e+002
      vertex  6.000000e-001 -1.984732e+001  1.271347e+002
      vertex  6.000000e-001 -1.965720e+001  1.281885e+002
    endloop
  endfacet
  facet normal  0.000000e+000 -9.689371e-001  2.473074e-001
    outer loop
      vertex  0.000000e+000 -1.965720e+001  1.281885e+002
      vertex  6.000000e-001 -1.965720e+001  1.281885e+002
      vertex  0.000000e+000 -1.939240e+001  1.292260e+002
    endloop
  endfacet
  facet normal  0.000000e+000 -9.689371e-001  2.473074e-001
    outer loop
      vertex  0.000000e+000 -1.939240e+001  1.292260e+002
      vertex  6.000000e-001 -1.965720e+001  1.281885e+002
      vertex  6.000000e-001 -1.939240e+001  1.292260e+002
    endloop
  endfacet
  facet normal  0.000000e+000 -9.488257e-001  3.158002e-001
    outer loop
      vertex  0.000000e+000 -1.939240e+001  1.292260e+002
      vertex  6.000000e-001 -1.939240e+001  1.292260e+002
      vertex  0.000000e+000 -1.905424e+001  1.302420e+002
    endloop
  endfacet
  facet normal  0.000000e+000 -9.488257e-001  3.158002e-001
    outer loop
      vertex  0.000000e+000 -1.905424e+001  1.302420e+002
      vertex  6.000000e-001 -1.939240e+001  1.292260e+002
      vertex  6.000000e-001 -1.905424e+001  1.302420e+002
    endloop
  endfacet
  facet normal  0.000000e+000 -9.238812e-001  3.826794e-001
    outer loop
      vertex  0.000000e+000 -1.905424e+001  1.302420e+002
      vertex  6.000000e-001 -1.905424e+001  1.302420e+002
      vertex  0.000000e+000 -1.864448e+001  1.312312e+002
    endloop
  endfacet
  facet normal  0.000000e+000 -9.238812e-001  3.826794e-001
    outer loop
      vertex  0.000000e+000 -1.864448e+001  1.312312e+002
      vertex  6.000000e-001 -1.905424e+001  1.302420e+002
      vertex  6.000000e-001 -1.864448e+001  1.312312e+002
    endloop
  endfacet
  facet normal  0.000000e+000 -8.942240e-001  4.476197e-001
    outer loop
      vertex  0.000000e+000 -1.864448e+001  1.312312e+002
      vertex  6.000000e-001 -1.864448e+001  1.312312e+002
      vertex  0.000000e+000 -1.816518e+001  1.321887e+002
    endloop
  endfacet
  facet normal  0.000000e+000 -8.942240e-001  4.476197e-001
    outer loop
      vertex  0.000000e+000 -1.816518e+001  1.321887e+002
      vertex  6.000000e-001 -1.864448e+001  1.312312e+002
      vertex  6.000000e-001 -1.816518e+001  1.321887e+002
    endloop
  endfacet
  facet normal  0.000000e+000 -8.600160e-001  5.102671e-001
    outer loop
      vertex  0.000000e+000 -1.816518e+001  1.321887e+002
      vertex  6.000000e-001 -1.816518e+001  1.321887e+002
      vertex  0.000000e+000 -1.761880e+001  1.331096e+002
    endloop
  endfacet
  facet normal  0.000000e+000 -8.600160e-001  5.102671e-001
    outer loop
      vertex  0.000000e+000 -1.761880e+001  1.331096e+002
      vertex  6.000000e-001 -1.816518e+001  1.321887e+002
      vertex  6.000000e-001 -1.761880e+001  1.331096e+002
    endloop
  endfacet
  facet normal  0.000000e+000 -8.214186e-001  5.703257e-001
    outer loop
      vertex  0.000000e+000 -1.761880e+001  1.331096e+002
      vertex  6.000000e-001 -1.761880e+001  1.331096e+002
      vertex  0.000000e+000 -1.700812e+001  1.339892e+002
    endloop
  endfacet
  facet normal  0.000000e+000 -8.214186e-001  5.703257e-001
    outer loop
      vertex  0.000000e+000 -1.700812e+001  1.339892e+002
      vertex  6.000000e-001 -1.761880e+001  1.331096e+002
      vertex  6.000000e-001 -1.700812e+001  1.339892e+002
    endloop
  endfacet
  facet normal  0.000000e+000 -7.786394e-001  6.274717e-001
    outer loop
      vertex  0.000000e+000 -1.700812e+001  1.339892e+002
      vertex  6.000000e-001 -1.700812e+001  1.339892e+002
      vertex  0.000000e+000 -1.633624e+001  1.348229e+002
    endloop
  endfacet
  facet normal  0.000000e+000 -7.786394e-001  6.274717e-001
    outer loop
      vertex  0.000000e+000 -1.633624e+001  1.348229e+002
      vertex  6.000000e-001 -1.700812e+001  1.339892e+002
      vertex  6.000000e-001 -1.633624e+001  1.348229e+002
    endloop
  endfacet
  facet normal  0.000000e+000 -7.318953e-001  6.814171e-001
    outer loop
      vertex  0.000000e+000 -1.633624e+001  1.348229e+002
      vertex  6.000000e-001 -1.633624e+001  1.348229e+002
      vertex  0.000000e+000 -1.560660e+001  1.356066e+002
    endloop
  endfacet
  facet normal  0.000000e+000 -7.318953e-001  6.814171e-001
    outer loop
      vertex  0.000000e+000 -1.560660e+001  1.356066e+002
      vertex  6.000000e-001 -1.633624e+001  1.348229e+002
      vertex  6.000000e-001 -1.560660e+001  1.356066e+002
    endloop
  endfacet
  facet normal  0.000000e+000 -6.814195e-001  7.318931e-001
    outer loop
      vertex  0.000000e+000 -1.560660e+001  1.356066e+002
      vertex  6.000000e-001 -1.560660e+001  1.356066e+002
      vertex  0.000000e+000 -1.482291e+001  1.363362e+002
    endloop
  endfacet
  facet normal  0.000000e+000 -6.814195e-001  7.318931e-001
    outer loop
      vertex  0.000000e+000 -1.482291e+001  1.363362e+002
      vertex  6.000000e-001 -1.560660e+001  1.356066e+002
      vertex  6.000000e-001 -1.482291e+001  1.363362e+002
    endloop
  endfacet
  facet normal  0.000000e+000 -6.274690e-001  7.786415e-001
    outer loop
      vertex  0.000000e+000 -1.482291e+001  1.363362e+002
      vertex  6.000000e-001 -1.482291e+001  1.363362e+002
      vertex  0.000000e+000 -1.398917e+001  1.370081e+002
    endloop
  endfacet
  facet normal  0.000000e+000 -6.274690e-001  7.786415e-001
    outer loop
      vertex  0.000000e+000 -1.398917e+001  1.370081e+002
      vertex  6.000000e-001 -1.482291e+001  1.363362e+002
      vertex  6.000000e-001 -1.398917e+001  1.370081e+002
    endloop
  endfacet
  facet normal  0.000000e+000 -5.703244e-001  8.214195e-001
    outer loop
      vertex  0.000000e+000 -1.398917e+001  1.370081e+002
      vertex  6.000000e-001 -1.398917e+001  1.370081e+002
      vertex  0.000000e+000 -1.310961e+001  1.376188e+002
    endloop
  endfacet
  facet normal  0.000000e+000 -5.703244e-001  8.214195e-001
    outer loop
      vertex  0.000000e+000 -1.310961e+001  1.376188e+002
      vertex  6.000000e-001 -1.398917e+001  1.370081e+002
      vertex  6.000000e-001 -1.310961e+001  1.376188e+002
    endloop
  endfacet
  facet normal  0.000000e+000 -5.102734e-001  8.600122e-001
    outer loop
      vertex  0.000000e+000 -1.310961e+001  1.376188e+002
      vertex  6.000000e-001 -1.310961e+001  1.376188e+002
      vertex  0.000000e+000 -1.218874e+001  1.381652e+002
    endloop
  endfacet
  facet normal  0.000000e+000 -5.102734e-001  8.600122e-001
    outer loop
      vertex  0.000000e+000 -1.218874e+001  1.381652e+002
      vertex  6.000000e-001 -1.310961e+001  1.376188e+002
      vertex  6.000000e-001 -1.218874e+001  1.381652e+002
    endloop
  endfacet
  facet normal  0.000000e+000 -4.476161e-001  8.942258e-001
    outer loop
      vertex  0.000000e+000 -1.218874e+001  1.381652e+002
      vertex  6.000000e-001 -1.218874e+001  1.381652e+002
      vertex  0.000000e+000 -1.123123e+001  1.386445e+002
    endloop
  endfacet
  facet normal  0.000000e+000 -4.476161e-001  8.942258e-001
    outer loop
      vertex  0.000000e+000 -1.123123e+001  1.386445e+002
      vertex  6.000000e-001 -1.218874e+001  1.381652e+002
      vertex  6.000000e-001 -1.123123e+001  1.386445e+002
    endloop
  endfacet
  facet normal  0.000000e+000 -3.826783e-001  9.238816e-001
    outer loop
      vertex  0.000000e+000 -1.123123e+001  1.386445e+002
      vertex  6.000000e-001 -1.123123e+001  1.386445e+002
      vertex  0.000000e+000 -1.024196e+001  1.390542e+002
    endloop
  endfacet
  facet normal  0.000000e+000 -3.826783e-001  9.238816e-001
    outer loop
      vertex  0.000000e+000 -1.024196e+001  1.390542e+002
      vertex  6.000000e-001 -1.123123e+001  1.386445e+002
      vertex  6.000000e-001 -1.024196e+001  1.390542e+002
    endloop
  endfacet
  facet normal  0.000000e+000 -3.158008e-001  9.488255e-001
    outer loop
      vertex  0.000000e+000 -1.024196e+001  1.390542e+002
      vertex  6.000000e-001 -1.024196e+001  1.390542e+002
      vertex  0.000000e+000 -9.225988e+000  1.393924e+002
    endloop
  endfacet
  facet normal  0.000000e+000 -3.158008e-001  9.488255e-001
    outer loop
      vertex  0.000000e+000 -9.225988e+000  1.393924e+002
      vertex  6.000000e-001 -1.024196e+001  1.390542e+002
      vertex  6.000000e-001 -9.225988e+000  1.393924e+002
    endloop
  endfacet
  facet normal  0.000000e+000 -2.473000e-001  9.689389e-001
    outer loop
      vertex  0.000000e+000 -9.225988e+000  1.393924e+002
      vertex  6.000000e-001 -9.225988e+000  1.393924e+002
      vertex  0.000000e+000 -8.188479e+000  1.396572e+002
    endloop
  endfacet
  facet normal  0.000000e+000 -2.473000e-001  9.689389e-001
    outer loop
      vertex  0.000000e+000 -8.188479e+000  1.396572e+002
      vertex  6.000000e-001 -9.225988e+000  1.393924e+002
      vertex  6.000000e-001 -8.188479e+000  1.396572e+002
    endloop
  endfacet
  facet normal  0.000000e+000 -1.775585e-001  9.841103e-001
    outer loop
      vertex  0.000000e+000 -8.188479e+000  1.396572e+002
      vertex  6.000000e-001 -8.188479e+000  1.396572e+002
      vertex  0.000000e+000 -7.134723e+000  1.398473e+002
    endloop
  endfacet
  facet normal  0.000000e+000 -1.775585e-001  9.841103e-001
    outer loop
      vertex  0.000000e+000 -7.134723e+000  1.398473e+002
      vertex  6.000000e-001 -8.188479e+000  1.396572e+002
      vertex  6.000000e-001 -7.134723e+000  1.398473e+002
    endloop
  endfacet
  facet normal  0.000000e+000 -1.068915e-001  9.942707e-001
    outer loop
      vertex  0.000000e+000 -7.134723e+000  1.398473e+002
      vertex  6.000000e-001 -7.134723e+000  1.398473e+002
      vertex  0.000000e+000 -6.070088e+000  1.399618e+002
    endloop
  endfacet
  facet normal  0.000000e+000 -1.068915e-001  9.942707e-001
    outer loop
      vertex  0.000000e+000 -6.070088e+000  1.399618e+002
      vertex  6.000000e-001 -7.134723e+000  1.398473e+002
      vertex  6.000000e-001 -6.070088e+000  1.399618e+002
    endloop
  endfacet
  facet normal  0.000000e+000 -3.569698e-002  9.993626e-001
    outer loop
      vertex  0.000000e+000 -6.070088e+000  1.399618e+002
      vertex  6.000000e-001 -6.070088e+000  1.399618e+002
      vertex  0.000000e+000 -5.000000e+000  1.400000e+002
    endloop
  endfacet
  facet normal  0.000000e+000 -3.569698e-002  9.993626e-001
    outer loop
      vertex  0.000000e+000 -5.000000e+000  1.400000e+002
      vertex  6.000000e-001 -6.070088e+000  1.399618e+002
      vertex  6.000000e-001 -5.000000e+000  1.400000e+002
    endloop
  endfacet
  facet normal  0.000000e+000  1.000000e+000  0.000000e+000
    outer loop
      vertex  6.000000e-001  2.000000e+001  0.000000e+000
      vertex  0.000000e+000  2.000000e+001  0.000000e+000
      vertex  6.000000e-001  2.000000e+001  1.250000e+002
    endloop
  endfacet
  facet normal  0.000000e+000  1.000000e+000  0.000000e+000
    outer loop
      vertex  6.000000e-001  2.000000e+001  1.250000e+002
      vertex  0.000000e+000  2.000000e+001  0.000000e+000
      vertex  0.000000e+000  2.000000e+001  1.250000e+002
    endloop
  endfacet
  facet normal  0.000000e+000  3.569698e-002  9.993626e-001
    outer loop
      vertex  0.000000e+000  5.000000e+000  1.400000e+002
      vertex  6.000000e-001  5.000000e+000  1.400000e+002
      vertex  0.000000e+000  6.070088e+000  1.399618e+002
    endloop
  endfacet
  facet normal  -0.000000e+000  3.569698e-002  9.993626e-001
    outer loop
      vertex  0.000000e+000  6.070088e+000  1.399618e+002
      vertex  6.000000e-001  5.000000e+000  1.400000e+002
      vertex  6.000000e-001  6.070088e+000  1.399618e+002
    endloop
  endfacet
  facet normal  0.000000e+000  1.068915e-001  9.942707e-001
    outer loop
      vertex  0.000000e+000  6.070088e+000  1.399618e+002
      vertex  6.000000e-001  6.070088e+000  1.399618e+002
      vertex  0.000000e+000  7.134723e+000  1.398473e+002
    endloop
  endfacet
  facet normal  -0.000000e+000  1.068915e-001  9.942707e-001
    outer loop
      vertex  0.000000e+000  7.134723e+000  1.398473e+002
      vertex  6.000000e-001  6.070088e+000  1.399618e+002
      vertex  6.000000e-001  7.134723e+000  1.398473e+002
    endloop
  endfacet
  facet normal  0.000000e+000  1.775585e-001  9.841103e-001
    outer loop
      vertex  0.000000e+000  7.134723e+000  1.398473e+002
      vertex  6.000000e-001  7.134723e+000  1.398473e+002
      vertex  0.000000e+000  8.188479e+000  1.396572e+002
    endloop
  endfacet
  facet normal  -0.000000e+000  1.775585e-001  9.841103e-001
    outer loop
      vertex  0.000000e+000  8.188479e+000  1.396572e+002
      vertex  6.000000e-001  7.134723e+000  1.398473e+002
      vertex  6.000000e-001  8.188479e+000  1.396572e+002
    endloop
  endfacet
  facet normal  0.000000e+000  2.473000e-001  9.689389e-001
    outer loop
      vertex  0.000000e+000  8.188479e+000  1.396572e+002
      vertex  6.000000e-001  8.188479e+000  1.396572e+002
      vertex  0.000000e+000  9.225988e+000  1.393924e+002
    endloop
  endfacet
  facet normal  -0.000000e+000  2.473000e-001  9.689389e-001
    outer loop
      vertex  0.000000e+000  9.225988e+000  1.393924e+002
      vertex  6.000000e-001  8.188479e+000  1.396572e+002
      vertex  6.000000e-001  9.225988e+000  1.393924e+002
    endloop
  endfacet
  facet normal  0.000000e+000  3.158008e-001  9.488255e-001
    outer loop
      vertex  0.000000e+000  9.225988e+000  1.393924e+002
      vertex  6.000000e-001  9.225988e+000  1.393924e+002
      vertex  0.000000e+000  1.024196e+001  1.390542e+002
    endloop
  endfacet
  facet normal  -0.000000e+000  3.158008e-001  9.488255e-001
    outer loop
      vertex  0.000000e+000  1.024196e+001  1.390542e+002
      vertex  6.000000e-001  9.225988e+000  1.393924e+002
      vertex  6.000000e-001  1.024196e+001  1.390542e+002
    endloop
  endfacet
  facet normal  0.000000e+000  3.826783e-001  9.238816e-001
    outer loop
      vertex  0.000000e+000  1.024196e+001  1.390542e+002
      vertex  6.000000e-001  1.024196e+001  1.390542e+002
      vertex  0.000000e+000  1.123123e+001  1.386445e+002
    endloop
  endfacet
  facet normal  -0.000000e+000  3.826783e-001  9.238816e-001
    outer loop
      vertex  0.000000e+000  1.123123e+001  1.386445e+002
      vertex  6.000000e-001  1.024196e+001  1.390542e+002
      vertex  6.000000e-001  1.123123e+001  1.386445e+002
    endloop
  endfacet
  facet normal  0.000000e+000  4.476161e-001  8.942258e-001
    outer loop
      vertex  0.000000e+000  1.123123e+001  1.386445e+002
      vertex  6.000000e-001  1.123123e+001  1.386445e+002
      vertex  0.000000e+000  1.218874e+001  1.381652e+002
    endloop
  endfacet
  facet normal  -0.000000e+000  4.476161e-001  8.942258e-001
    outer loop
      vertex  0.000000e+000  1.218874e+001  1.381652e+002
      vertex  6.000000e-001  1.123123e+001  1.386445e+002
      vertex  6.000000e-001  1.218874e+001  1.381652e+002
    endloop
  endfacet
  facet normal  0.000000e+000  5.102734e-001  8.600122e-001
    outer loop
      vertex  0.000000e+000  1.218874e+001  1.381652e+002
      vertex  6.000000e-001  1.218874e+001  1.381652e+002
      vertex  0.000000e+000  1.310961e+001  1.376188e+002
    endloop
  endfacet
  facet normal  -0.000000e+000  5.102734e-001  8.600122e-001
    outer loop
      vertex  0.000000e+000  1.310961e+001  1.376188e+002
      vertex  6.000000e-001  1.218874e+001  1.381652e+002
      vertex  6.000000e-001  1.310961e+001  1.376188e+002
    endloop
  endfacet
  facet normal  0.000000e+000  5.703244e-001  8.214195e-001
    outer loop
      vertex  0.000000e+000  1.310961e+001  1.376188e+002
      vertex  6.000000e-001  1.310961e+001  1.376188e+002
      vertex  0.000000e+000  1.398917e+001  1.370081e+002
    endloop
  endfacet
  facet normal  -0.000000e+000  5.703244e-001  8.214195e-001
    outer loop
      vertex  0.000000e+000  1.398917e+001  1.370081e+002
      vertex  6.000000e-001  1.310961e+001  1.376188e+002
      vertex  6.000000e-001  1.398917e+001  1.370081e+002
    endloop
  endfacet
  facet normal  0.000000e+000  6.274690e-001  7.786415e-001
    outer loop
      vertex  0.000000e+000  1.398917e+001  1.370081e+002
      vertex  6.000000e-001  1.398917e+001  1.370081e+002
      vertex  0.000000e+000  1.482291e+001  1.363362e+002
    endloop
  endfacet
  facet normal  -0.000000e+000  6.274690e-001  7.786415e-001
    outer loop
      vertex  0.000000e+000  1.482291e+001  1.363362e+002
      vertex  6.000000e-001  1.398917e+001  1.370081e+002
      vertex  6.000000e-001  1.482291e+001  1.363362e+002
    endloop
  endfacet
  facet normal  0.000000e+000  6.814195e-001  7.318931e-001
    outer loop
      vertex  0.000000e+000  1.482291e+001  1.363362e+002
      vertex  6.000000e-001  1.482291e+001  1.363362e+002
      vertex  0.000000e+000  1.560660e+001  1.356066e+002
    endloop
  endfacet
  facet normal  -0.000000e+000  6.814195e-001  7.318931e-001
    outer loop
      vertex  0.000000e+000  1.560660e+001  1.356066e+002
      vertex  6.000000e-001  1.482291e+001  1.363362e+002
      vertex  6.000000e-001  1.560660e+001  1.356066e+002
    endloop
  endfacet
  facet normal  0.000000e+000  7.318953e-001  6.814171e-001
    outer loop
      vertex  0.000000e+000  1.560660e+001  1.356066e+002
      vertex  6.000000e-001  1.560660e+001  1.356066e+002
      vertex  0.000000e+000  1.633624e+001  1.348229e+002
    endloop
  endfacet
  facet normal  -0.000000e+000  7.318953e-001  6.814171e-001
    outer loop
      vertex  0.000000e+000  1.633624e+001  1.348229e+002
      vertex  6.000000e-001  1.560660e+001  1.356066e+002
      vertex  6.000000e-001  1.633624e+001  1.348229e+002
    endloop
  endfacet
  facet normal  0.000000e+000  7.786394e-001  6.274717e-001
    outer loop
      vertex  0.000000e+000  1.633624e+001  1.348229e+002
      vertex  6.000000e-001  1.633624e+001  1.348229e+002
      vertex  0.000000e+000  1.700812e+001  1.339892e+002
    endloop
  endfacet
  facet normal  -0.000000e+000  7.786394e-001  6.274717e-001
    outer loop
      vertex  0.000000e+000  1.700812e+001  1.339892e+002
      vertex  6.000000e-001  1.633624e+001  1.348229e+002
      vertex  6.000000e-001  1.700812e+001  1.339892e+002
    endloop
  endfacet
  facet normal  0.000000e+000  8.214186e-001  5.703257e-001
    outer loop
      vertex  0.000000e+000  1.700812e+001  1.339892e+002
      vertex  6.000000e-001  1.700812e+001  1.339892e+002
      vertex  0.000000e+000  1.761880e+001  1.331096e+002
    endloop
  endfacet
  facet normal  -0.000000e+000  8.214186e-001  5.703257e-001
    outer loop
      vertex  0.000000e+000  1.761880e+001  1.331096e+002
      vertex  6.000000e-001  1.700812e+001  1.339892e+002
      vertex  6.000000e-001  1.761880e+001  1.331096e+002
    endloop
  endfacet
  facet normal  0.000000e+000  8.600160e-001  5.102671e-001
    outer loop
      vertex  0.000000e+000  1.761880e+001  1.331096e+002
      vertex  6.000000e-001  1.761880e+001  1.331096e+002
      vertex  0.000000e+000  1.816518e+001  1.321887e+002
    endloop
  endfacet
  facet normal  -0.000000e+000  8.600160e-001  5.102671e-001
    outer loop
      vertex  0.000000e+000  1.816518e+001  1.321887e+002
      vertex  6.000000e-001  1.761880e+001  1.331096e+002
      vertex  6.000000e-001  1.816518e+001  1.321887e+002
    endloop
  endfacet
  facet normal  0.000000e+000  8.942240e-001  4.476197e-001
    outer loop
      vertex  0.000000e+000  1.816518e+001  1.321887e+002
      vertex  6.000000e-001  1.816518e+001  1.321887e+002
      vertex  0.000000e+000  1.864448e+001  1.312312e+002
    endloop
  endfacet
  facet normal  -0.000000e+000  8.942240e-001  4.476197e-001
    outer loop
      vertex  0.000000e+000  1.864448e+001  1.312312e+002
      vertex  6.000000e-001  1.816518e+001  1.321887e+002
      vertex  6.000000e-001  1.864448e+001  1.312312e+002
    endloop
  endfacet
  facet normal  0.000000e+000  9.238812e-001  3.826794e-001
    outer loop
      vertex  0.000000e+000  1.864448e+001  1.312312e+002
      vertex  6.000000e-001  1.864448e+001  1.312312e+002
      vertex  0.000000e+000  1.905424e+001  1.302420e+002
    endloop
  endfacet
  facet normal  -0.000000e+000  9.238812e-001  3.826794e-001
    outer loop
      vertex  0.000000e+000  1.905424e+001  1.302420e+002
      vertex  6.000000e-001  1.864448e+001  1.312312e+002
      vertex  6.000000e-001  1.905424e+001  1.302420e+002
    endloop
  endfacet
  facet normal  0.000000e+000  9.488257e-001  3.158002e-001
    outer loop
      vertex  0.000000e+000  1.905424e+001  1.302420e+002
      vertex  6.000000e-001  1.905424e+001  1.302420e+002
      vertex  0.000000e+000  1.939240e+001  1.292260e+002
    endloop
  endfacet
  facet normal  -0.000000e+000  9.488257e-001  3.158002e-001
    outer loop
      vertex  0.000000e+000  1.939240e+001  1.292260e+002
      vertex  6.000000e-001  1.905424e+001  1.302420e+002
      vertex  6.000000e-001  1.939240e+001  1.292260e+002
    endloop
  endfacet
  facet normal  0.000000e+000  9.689371e-001  2.473074e-001
    outer loop
      vertex  0.000000e+000  1.939240e+001  1.292260e+002
      vertex  6.000000e-001  1.939240e+001  1.292260e+002
      vertex  0.000000e+000  1.965720e+001  1.281885e+002
    endloop
  endfacet
  facet normal  -0.000000e+000  9.689371e-001  2.473074e-001
    outer loop
      vertex  0.000000e+000  1.965720e+001  1.281885e+002
      vertex  6.000000e-001  1.939240e+001  1.292260e+002
      vertex  6.000000e-001  1.965720e+001  1.281885e+002
    endloop
  endfacet
  facet normal  0.000000e+000  9.841112e-001  1.775533e-001
    outer loop
      vertex  0.000000e+000  1.965720e+001  1.281885e+002
      vertex  6.000000e-001  1.965720e+001  1.281885e+002
      vertex  0.000000e+000  1.984732e+001  1.271347e+002
    endloop
  endfacet
  facet normal  -0.000000e+000  9.841112e-001  1.775533e-001
    outer loop
      vertex  0.000000e+000  1.984732e+001  1.271347e+002
      vertex  6.000000e-001  1.965720e+001  1.281885e+002
      vertex  6.000000e-001  1.984732e+001  1.271347e+002
    endloop
  endfacet
  facet normal  0.000000e+000  9.942702e-001  1.068956e-001
    outer loop
      vertex  0.000000e+000  1.984732e+001  1.271347e+002
      vertex  6.000000e-001  1.984732e+001  1.271347e+002
      vertex  0.000000e+000  1.996178e+001  1.260701e+002
    endloop
  endfacet
  facet normal  -0.000000e+000  9.942702e-001  1.068956e-001
    outer loop
      vertex  0.000000e+000  1.996178e+001  1.260701e+002
      vertex  6.000000e-001  1.984732e+001  1.271347e+002
      vertex  6.000000e-001  1.996178e+001  1.260701e+002
    endloop
  endfacet
  facet normal  0.000000e+000  9.993628e-001  3.569153e-002
    outer loop
      vertex  0.000000e+000  1.996178e+001  1.260701e+002
      vertex  6.000000e-001  1.996178e+001  1.260701e+002
      vertex  0.000000e+000  2.000000e+001  1.250000e+002
    endloop
  endfacet
  facet normal  -0.000000e+000  9.993628e-001  3.569153e-002
    outer loop
      vertex  0.000000e+000  2.000000e+001  1.250000e+002
      vertex  6.000000e-001  1.996178e+001  1.260701e+002
      vertex  6.000000e-001  2.000000e+001  1.250000e+002
    endloop
  endfacet
  facet normal  0.000000e+000 -1.000000e+000  0.000000e+000
    outer loop
      vertex  6.000000e-001  1.500000e+001  9.000000e+000
      vertex  0.000000e+000  1.500000e+001  9.000000e+000
      vertex  6.000000e-001  1.500000e+001  3.000000e+000
    endloop
  endfacet
  facet normal  0.000000e+000 -1.000000e+000  0.000000e+000
    outer loop
      vertex  6.000000e-001  1.500000e+001  3.000000e+000
      vertex  0.000000e+000  1.500000e+001  9.000000e+000
      vertex  0.000000e+000  1.500000e+001  3.000000e+000
    endloop
  endfacet
  facet normal  0.000000e+000  0.000000e+000  1.000000e+000
    outer loop
      vertex  6.000000e-001 -1.500000e+001  3.000000e+000
      vertex  6.000000e-001  1.500000e+001  3.000000e+000
      vertex  0.000000e+000 -1.500000e+001  3.000000e+000
    endloop
  endfacet
  facet normal  0.000000e+000  0.000000e+000  1.000000e+000
    outer loop
      vertex  0.000000e+000 -1.500000e+001  3.000000e+000
      vertex  6.000000e-001  1.500000e+001  3.000000e+000
      vertex  0.000000e+000  1.500000e+001  3.000000e+000
    endloop
  endfacet
  facet normal  0.000000e+000  1.000000e+000  0.000000e+000
    outer loop
      vertex  6.000000e-001 -1.500000e+001  3.000000e+000
      vertex  0.000000e+000 -1.500000e+001  3.000000e+000
      vertex  6.000000e-001 -1.500000e+001  9.000000e+000
    endloop
  endfacet
  facet normal  0.000000e+000  1.000000e+000  0.000000e+000
    outer loop
      vertex  6.000000e-001 -1.500000e+001  9.000000e+000
      vertex  0.000000e+000 -1.500000e+001  3.000000e+000
      vertex  0.000000e+000 -1.500000e+001  9.000000e+000
    endloop
  endfacet
  facet normal  0.000000e+000  0.000000e+000 -1.000000e+000
    outer loop
      vertex  6.000000e-001 -2.000000e+001  0.000000e+000
      vertex  0.000000e+000 -2.000000e+001  0.000000e+000
      vertex  6.000000e-001  2.000000e+001  0.000000e+000
    endloop
  endfacet
  facet normal  -0.000000e+000  0.000000e+000 -1.000000e+000
    outer loop
      vertex  6.000000e-001  2.000000e+001  0.000000e+000
      vertex  0.000000e+000 -2.000000e+001  0.000000e+000
      vertex  0.000000e+000  2.000000e+001  0.000000e+000
    endloop
  endfacet
endsolid CATIA STL
