<svg id="Calque_1" data-name="Calque 1" xmlns="http://www.w3.org/2000/svg" viewBox="0 0 5000 5000"><defs><style>.cls-1{fill:#fff;}</style></defs><title>blanc2</title><path d="M4,4H5004V5004H4ZM1510.55,2140.92a53.91,53.91,0,0,1,1,7.41c.5,68.64,1.6,137.27-.88,205.91-2.72,75.25-4.8,150.52-7.12,225.79-.18,5.94,0,11.89,0,17.22,7.69,8.1,14.54,15.33,21.5,22.68,43.27,0,85.9,0,128.52,0a16,16,0,0,0,12.31-5.5,98.24,98.24,0,0,1,8.47-8.48c6.64-5.59,9.19-12.39,8.77-21.14-.83-17.3-1-34.64-1.21-52-1.33-93.29-4.09-186.59-3.61-279.87,1.21-234.58,3.88-469.16,6-703.73.06-6.64,0-13.28,0-21.14l-20.88-19.82a15.73,15.73,0,0,0-2.8-.78q-63.94-.4-127.88-.79c-5.78,0-10.23,2.24-14,6.39a95.48,95.48,0,0,1-8.45,8.5c-5.57,4.74-7.59,10.67-7,17.77.22,2.65.07,5.33.11,8q1.64,115.95,3.24,231.89,1.18,90,2,179.93c.06,5.14-.53,10.29-.78,14.65-2.55,1.25-3.68,2.27-4.84,2.31-29.3.94-58.6,2-87.91,2.61-140.6,2.87-281.18,2.71-421.73-2.73a4.21,4.21,0,0,1-1.91-.53c-.54-.32-.92-.93-2.78-2.92-.13-6.26-.5-14.12-.43-22,1.36-134.62,2.6-269.23,4.45-403.84.18-13.18-3.52-22.7-13.14-31.42-6.37-5.76-12.52-8.87-21.19-8.8q-56,.47-112,0c-9.39-.09-16.06,3.32-22.88,9.56-9.11,8.32-13.89,17.26-12.2,29.77.88,6.56.24,13.31.31,20q2.64,257.89,5.3,515.79c.23,22.66.25,45.33,1,68,3.73,112.66-1.4,225.2-4.19,337.78-.8,32.65-1.22,65.3-2.33,97.94-.3,8.76,2.2,15.48,8.79,21a66.31,66.31,0,0,1,7,7.12c4.25,4.83,9.4,6.61,15.9,6.57,38.65-.21,77.3-.07,116-.16,3.26,0,7.58.34,9.63-1.48,11.14-9.92,23.88-18,22.79-36.88-2.21-38.57-2.27-77.26-3.12-115.9-1-47.31-2.43-94.61-2.84-141.92-.49-56-.15-111.95,0-167.93,0-5.76-1.46-12.14,4.44-17.52,4.58-.33,9.85-.94,15.12-1q113-2.14,225.88-4.14c10-.17,20,.21,30,.4,44,.8,87.95,1.69,131.93,2.42,32.65.55,65.3.82,98,1.42C1497.31,2137.48,1504.23,2136.12,1510.55,2140.92ZM1883,1904.31h1.49c-.53,102-.87,204-1.67,306-.4,51.55,3.3,102.61,17.24,152.43,36.16,129.16,117.94,213.56,247.4,250.77,30.85,8.87,62.41,13.63,94.38,16.2,69,5.54,137.34,1.4,204-18,123.3-35.81,206.9-114.48,249.51-235.81a444.14,444.14,0,0,0,24.69-135.19q2.57-91.93,3-183.94,1.08-253,1.24-505.94c0-4.67-.2-9.34,0-14,.28-5.78-1.91-10.29-6.1-14.11a66.36,66.36,0,0,1-7-7.1c-5.47-6.75-12.33-9.17-21-9-23.33.39-46.66.12-70,.12-13.33,0-26.68.41-40-.13-8.78-.35-15.54,2.42-21,9.16a38.69,38.69,0,0,1-5.64,5.66c-5.66,4.64-7.65,10.64-7.22,17.74.2,3.32.12,6.66.15,10q2.94,321.94,5.86,643.89c.13,14.67,0,29.33-.18,44a322,322,0,0,1-8.81,69.28c-19.19,82.49-69.3,134.47-152.34,154.06-32.05,7.56-64.54,9.73-97.26,9.29-31.42-.43-62.45-4-92.62-13.52-57.53-18.12-98.17-54.69-121.6-110.35-9.62-22.86-15.58-46.69-19.63-71.09-5.14-31.05-5.42-62.36-5.19-93.7q2.36-316,4.69-631.91c.16-20.71.09-20.71-14.56-34.54a14.63,14.63,0,0,1-1.38-1.46c-4.15-5.12-9.73-6.4-16-6.39-38,.09-76,0-114,.19-3.8,0-8.56.7-11.22,3-11,9.53-23,18.87-19.44,36.48.78,3.84.15,8,.15,12Zm1773.72-395.73a17.92,17.92,0,0,0-2.43,3.13c-1.15,2.4-2.11,4.89-3,7.38q-195.55,533.78-391.07,1067.56a5.22,5.22,0,0,0-.15,2c0,.66.21,1.31.7,4.17l19.42,26.86c49.27,0,97.24,0,145.2-.08,1.81,0,3.62-1.25,5.57-2,1.51-5.28,3.2-10.34,4.42-15.51,7-29.82,13.81-59.69,20.95-89.49,2.64-11,5.31-22.06,9.15-32.66,16.09-44.47,32.6-88.78,49-133.13,2.06-5.56,4.5-11,7.05-17.14,7.89-.31,15.15-.69,22.41-.87q77-1.83,153.94-3.56c12-.26,24-.48,36-.24q96,1.84,191.93,4c5.9.13,11.78.72,18.76,1.16,7.73,18.74,12.95,38,19.33,56.76s12.63,37.91,18.74,56.93c6.31,19.65,12.9,39.23,18.41,59.11,5.33,19.24,9.4,38.83,14.11,58.25,4.67,19.24,7.72,38.93,14.49,58.07h153c8.55-9.19,16.21-19,21.53-30.63Q4023.65,2048,3843.68,1509C3825.94,1506,3673.63,1505.94,3656.74,1508.58ZM3171,2886.23c3.35-7.5,2.11-14.89,2.08-22q-.66-184.92-1.57-369.83c-.56-97.27-1.82-194.53-2.19-291.8-.17-44,1.21-88,1.64-131.93q2-202.9,3.81-405.8.55-61,.91-121.94c0-4.6,1-10.62-1.45-13.55-9-11-16.7-24.93-34.64-22.67a64.5,64.5,0,0,1-8,0q-158.92,0-317.86.06c-7.8,0-15.86-1.29-24.62,2.49-3.36,43-9.07,85.75-9.93,127.94,4.13,3.86,6.94,6.7,10,9.28,19.76,16.83,13,14.68,39,14.57,50-.19,100-.65,149.93-.89,5.8,0,11.62.63,18.28,1,.45,7.24,1,13.12,1.15,19,.51,24.65,1.09,49.3,1.27,74q2.39,317.83,4.6,635.67,1.18,180.91,1.74,361.83c.19,39.32.33,78.63.67,118,0,5.76-1.49,12.07,4.6,18,50.23,0,101.49,0,152.75-.05C3165.74,2887.52,3168.26,2886.71,3171,2886.23Zm-2406.1,180.2c10.59,3.14,19.93,1.83,29.08,1.83q1089,.12,2178,.07c7.33,0,14.67-.08,22,.09,3.21.08,6.41.71,10.33,1.18.63,5.09,1.64,9.6,1.69,14.13.73,66.65,1.64,133.3,1.74,199.94a268.71,268.71,0,0,1-4.52,47.67c-6.51,36.19-21.57,68.7-47.21,95.39a463.38,463.38,0,0,1-42.67,39.13c-30.14,24.38-63.33,44.25-97.29,62.84-6.36,3.48-12.6,7.19-19.83,11.34,0,7.62.46,14.9-.11,22.1-.78,9.85,2.24,17.92,8,26,17.41,24.42,34.14,49.32,51.27,73.94,2.52,3.63,5.78,6.74,8.87,10.29,52.58-24.33,102.65-50.65,148.78-83.77a640.78,640.78,0,0,0,54.56-43.74c50.05-44.95,82.51-100.5,97.72-166.17,8.17-35.28,11.42-70.93,11-107.09-.8-72-1.21-144-1.79-216-.2-25.34-.35-50.67-.7-76-.09-5.78-.92-11.56-1.51-18.61-14.36-.59-27.37-1.55-40.66.55-3.6,7.51-2.36,14.94-2.37,22.11q-.14,93-.07,186c0,5.33.15,10.69-.38,16-.69,7-4.48,11.07-11.68,11.24-18,.4-36,.45-54,0-7.92-.18-11.5-4.51-12.12-13-.4-5.31-.21-10.66-.21-16q0-92-.07-184c0-7.17,1.32-14.6-1.85-21.27-18.49-3.46-28.42-3.21-41.41,1-3.66,18.12,1,37-3.45,56.47-9.21,1.67-18.51,1-27.73,1q-1089,0-2178,0c-7.34,0-14.69-.25-22,.15-3.72.2-7.38,1.59-11.43,2.52Zm2623.3-110.63c9.11-.26,15.68-.6,22.26-.61q47-.09,93.92,0c4,0,8,.12,12,0,12.88-.53,15.42-2.83,15.75-15.1.27-10,.22-20,0-30-.28-14.08-2.48-16.28-16-16.86-2.66-.12-5.32,0-8,0q-81.93,0-163.86,0c-24.06,0-24.13.12-24.14,24.91q0,126.9,0,253.8c0,4.66-.13,9.34.24,14,.61,7.73,3.31,10.2,11.52,10.84,3.32.26,6.66.15,10,.15h167.86c3.33,0,6.68.1,10-.13,9.26-.64,12.05-3.1,12.34-12.08.35-11.32.35-22.65.06-34-.31-12.43-2.57-14.37-15.8-14.79-4.66-.14-9.33,0-14,0-32.64,0-65.28.07-97.92-.07-5.08,0-10.15-1-14.89-1.52-3.24-26.51-2.59-46,2.1-59.14h19.48q48,0,95.93,0a151.42,151.42,0,0,0,15.95-.52c5.17-.55,8.54-4,8.8-9.26.46-9.3.46-18.64.41-28-.11-20.64-.79-21.38-21.23-21.44-35.3-.11-70.61,0-105.91-.1-5.12,0-10.24-.84-16.13-1.36-.41-5.63-1-10.15-1-14.68C3387.88,2985.89,3388.09,2972,3388.22,2955.8Zm680.32,119.86c15.08-.21,27.63-.84,40.15-.43,13,.42,26.33-2.33,40.27,2.6v20.28q0,37,0,74c0,4.66-.11,9.35.32,14,.61,6.66,3.63,10.23,9.85,10.39q22,.56,43.95,0c6.41-.15,9-3.45,9.7-10.37a78.71,78.71,0,0,0,.23-8q0-132.95-.06-265.89c0-5.18-1-10.36-1.63-16.86-18.53-3.62-36.37-2.51-54.13-1.35-4.18.28-7,4-7.59,8.24a109.89,109.89,0,0,0-.62,14c-.06,26,0,52-.07,78,0,6.5-.57,13-.86,19.13-19.42,3.89-64.33,3.48-79-.76-.18-6.83-.51-14-.53-21.26-.08-28,.1-56-.15-84-.1-10.38-3.1-13.68-12.67-13.95q-21-.6-42,0c-8.77.26-12,3.7-12.66,12.19-.37,4.64-.2,9.32-.2,14q0,125.94,0,251.9c0,4.66-.24,9.37.32,14,.38,3.14,2,6.14,2.89,8.83,10.31,2.21,48.85,3.64,56.25,2.11,4.34-.9,7.19-3.62,7.72-8a99.48,99.48,0,0,0,.42-12q.06-34,0-68Zm-338.06,59.55c-.95-4.32-1.74-6.22-1.74-8.12q-.1-81.89.05-163.76c0-2.38,1.57-4.75,2.78-8.16h20.21q47.94,0,95.87,0c5.32,0,10.67.07,15.95-.45s8.65-3.78,8.92-9.11c.5-10,.53-20,.49-29.93-.09-21.74-.73-22.31-22.39-22.52-1.33,0-2.66,0-4,0-53.25,0-106.51.17-159.77-.07-23.92-.11-26.13.65-26,25.34.26,84.54.1,169.09.1,253.64,0,4-.15,8,.13,12,.63,9.13,3.34,12,12,12.65,4,.3,8,.16,12,.16q81.89,0,163.77,0c4.66,0,9.34.09,14-.28,6.58-.53,9.79-3.41,10-10.06.37-13.3.43-26.63,0-39.92-.23-7.43-3.58-10.08-11.67-10.59-4.64-.29-9.31-.14-14-.14q-47.94,0-95.87,0C3744.63,3135.79,3738.07,3135.44,3730.48,3135.21Z" transform="translate(-4 -4)"/><path class="cls-1" d="M1510.55,2140.92c-6.32-4.8-13.24-3.44-19.75-3.57-32.65-.6-65.3-.87-98-1.42-44-.73-88-1.62-131.93-2.42-10-.19-20-.57-30-.4q-112.93,1.95-225.88,4.14c-5.27.1-10.54.71-15.12,1-5.9,5.38-4.42,11.76-4.44,17.52-.15,56-.49,112,0,167.93.41,47.31,1.8,94.61,2.84,141.92.85,38.64.91,77.33,3.12,115.9,1.09,18.92-11.65,27-22.79,36.88-2,1.82-6.37,1.48-9.63,1.48-38.66.09-77.31-.05-116,.16-6.5,0-11.65-1.74-15.9-6.57a66.31,66.31,0,0,0-7-7.12c-6.59-5.54-9.09-12.26-8.79-21,1.11-32.64,1.53-65.29,2.33-97.94,2.79-112.58,7.92-225.12,4.19-337.78-.75-22.64-.77-45.31-1-68q-2.68-257.89-5.3-515.79c-.07-6.67.57-13.42-.31-20-1.69-12.51,3.09-21.45,12.2-29.77,6.82-6.24,13.49-9.65,22.88-9.56q56,.54,112,0c8.67-.07,14.82,3,21.19,8.8,9.62,8.72,13.32,18.24,13.14,31.42-1.85,134.61-3.09,269.22-4.45,403.84-.07,7.85.3,15.71.43,22,1.86,2,2.24,2.6,2.78,2.92a4.21,4.21,0,0,0,1.91.53c140.55,5.44,281.13,5.6,421.73,2.73,29.31-.6,58.61-1.67,87.91-2.61,1.16,0,2.29-1.06,4.84-2.31.25-4.36.84-9.51.78-14.65q-.91-90-2-179.93-1.5-115.95-3.24-231.89c0-2.67.11-5.35-.11-8-.59-7.1,1.43-13,7-17.77a95.48,95.48,0,0,0,8.45-8.5c3.8-4.15,8.25-6.43,14-6.39q63.93.46,127.88.79a15.73,15.73,0,0,1,2.8.78l20.88,19.82c0,7.86,0,14.5,0,21.14-2.08,234.57-4.75,469.15-6,703.73-.48,93.28,2.28,186.58,3.61,279.87.24,17.32.38,34.66,1.21,52,.42,8.75-2.13,15.55-8.77,21.14a98.24,98.24,0,0,0-8.47,8.48,16,16,0,0,1-12.31,5.5c-42.62-.07-85.25,0-128.52,0-7-7.35-13.81-14.58-21.5-22.68,0-5.33-.16-11.28,0-17.22,2.32-75.27,4.4-150.54,7.12-225.79,2.48-68.64,1.38-137.27.88-205.91A53.91,53.91,0,0,0,1510.55,2140.92Z" transform="translate(-4 -4)"/><path class="cls-1" d="M1883,1904.31v-346c0-4,.63-8.14-.15-12-3.57-17.61,8.39-26.95,19.44-36.48,2.66-2.29,7.42-3,11.22-3,38-.22,76-.1,114-.19,6.3,0,11.88,1.27,16,6.39a14.63,14.63,0,0,0,1.38,1.46c14.65,13.83,14.72,13.83,14.56,34.54q-2.33,315.95-4.69,631.91c-.23,31.34.05,62.65,5.19,93.7,4.05,24.4,10,48.23,19.63,71.09,23.43,55.66,64.07,92.23,121.6,110.35,30.17,9.51,61.2,13.09,92.62,13.52,32.72.44,65.21-1.73,97.26-9.29,83-19.59,133.15-71.57,152.34-154.06a322,322,0,0,0,8.81-69.28c.17-14.67.31-29.33.18-44q-2.9-321.94-5.86-643.89c0-3.34.05-6.68-.15-10-.43-7.1,1.56-13.1,7.22-17.74a38.69,38.69,0,0,0,5.64-5.66c5.42-6.74,12.18-9.51,21-9.16,13.31.54,26.66.13,40,.13,23.33,0,46.66.27,70-.12,8.69-.15,15.55,2.27,21,9a66.36,66.36,0,0,0,7,7.1c4.19,3.82,6.38,8.33,6.1,14.11-.23,4.66,0,9.33,0,14q-.55,253-1.24,505.94-.39,92-3,183.94a444.14,444.14,0,0,1-24.69,135.19c-42.61,121.33-126.21,200-249.51,235.81-66.65,19.36-135,23.5-204,18-32-2.57-63.53-7.33-94.38-16.2-129.46-37.21-211.24-121.61-247.4-250.77-13.94-49.82-17.64-100.88-17.24-152.43.8-102,1.14-204,1.67-306Z" transform="translate(-4 -4)"/><path class="cls-1" d="M3656.75,1508.58c16.88-2.64,169.19-2.55,186.93.38q179.93,538.86,360.49,1079.67c-5.32,11.6-13,21.44-21.53,30.63h-153c-6.77-19.14-9.82-38.83-14.49-58.07-4.71-19.42-8.78-39-14.11-58.25-5.51-19.88-12.1-39.46-18.41-59.11q-9.16-28.53-18.74-56.93c-6.38-18.79-11.6-38-19.33-56.76-7-.44-12.86-1-18.76-1.16q-96-2.07-191.93-4c-12-.24-24,0-36,.24q-77,1.7-153.94,3.56c-7.26.18-14.52.56-22.41.87-2.55,6.17-5,11.58-7.05,17.14-16.42,44.35-32.93,88.66-49,133.13-3.84,10.6-6.51,21.67-9.15,32.66-7.14,29.8-13.93,59.67-20.95,89.49-1.22,5.17-2.91,10.23-4.42,15.51-1.95.72-3.76,2-5.57,2-48,.11-95.93.08-145.2.08l-19.42-26.86c-.49-2.86-.66-3.51-.7-4.17a5.22,5.22,0,0,1,.15-2q195.51-533.79,391.07-1067.56c.91-2.49,1.87-5,3-7.38A17.51,17.51,0,0,1,3656.75,1508.58Zm-75.68,663.06c44,1.06,86.54,3,129.09,2.9,59.23-.15,118.45-1.84,177.68-2.9a3.9,3.9,0,0,0,1.84-.74,8.22,8.22,0,0,0,1.28-1.22c.17-1.33.74-2.72.45-3.9-.93-3.87-2.06-7.7-3.31-11.48q-70.33-213.18-140.73-426.35a2.88,2.88,0,0,0-1.13-1.6c-.43-.22-1.17.14-2.9.42a48.06,48.06,0,0,0-3.32,6C3708.42,1811.88,3585.6,2150.46,3581.07,2171.64Z" transform="translate(-4 -4)"/><path class="cls-1" d="M3171,2886.23c-2.76.48-5.28,1.29-7.81,1.29-51.26.07-102.52.05-152.75.05-6.09-5.89-4.55-12.2-4.6-18-.34-39.32-.48-78.63-.67-118q-.86-180.91-1.74-361.83-2.09-317.84-4.6-635.67c-.18-24.65-.76-49.3-1.27-74-.12-5.9-.7-11.78-1.15-19-6.66-.39-12.48-1-18.28-1-50,.24-100,.7-149.93.89-26,.11-19.27,2.26-39-14.57-3-2.58-5.85-5.42-10-9.28.86-42.19,6.57-84.9,9.93-127.94,8.76-3.78,16.82-2.48,24.62-2.49q158.92-.13,317.86-.06a64.5,64.5,0,0,0,8,0c17.94-2.26,25.61,11.7,34.64,22.67,2.42,2.93,1.47,9,1.45,13.55q-.33,61-.91,121.94-1.86,202.9-3.81,405.8c-.43,44-1.81,88-1.64,131.93.37,97.27,1.63,194.53,2.19,291.8q1.08,184.92,1.57,369.83C3173.13,2871.34,3174.37,2878.73,3171,2886.23Z" transform="translate(-4 -4)"/><path class="cls-1" d="M764.92,3066.43v-42.56c4.05-.93,7.71-2.32,11.43-2.52,7.31-.4,14.66-.15,22-.15q1089,0,2178,0c9.22,0,18.52.63,27.73-1,4.44-19.47-.21-38.35,3.45-56.47,13-4.25,22.92-4.5,41.41-1,3.17,6.67,1.84,14.1,1.85,21.27q.18,92,.07,184c0,5.33-.19,10.68.21,16,.62,8.49,4.2,12.82,12.12,13,18,.41,36,.36,54,0,7.2-.17,11-4.23,11.68-11.24.53-5.29.38-10.65.38-16q0-93,.07-186c0-7.17-1.23-14.6,2.37-22.11,13.29-2.1,26.3-1.14,40.66-.55.59,7.05,1.42,12.83,1.51,18.61.35,25.33.5,50.66.7,76,.58,72,1,144,1.79,216,.4,36.16-2.85,71.81-11,107.09-15.21,65.67-47.67,121.22-97.72,166.17a640.78,640.78,0,0,1-54.56,43.74c-46.13,33.12-96.2,59.44-148.78,83.77-3.09-3.55-6.35-6.66-8.87-10.29-17.13-24.62-33.86-49.52-51.27-73.94-5.73-8-8.75-16.1-8-26,.57-7.2.11-14.48.11-22.1,7.23-4.15,13.47-7.86,19.83-11.34,34-18.59,67.15-38.46,97.29-62.84a463.38,463.38,0,0,0,42.67-39.13c25.64-26.69,40.7-59.2,47.21-95.39a268.71,268.71,0,0,0,4.52-47.67c-.1-66.64-1-133.29-1.74-199.94-.05-4.53-1.06-9-1.69-14.13-3.92-.47-7.12-1.1-10.33-1.18-7.33-.17-14.67-.09-22-.09q-1089,0-2178-.07C784.85,3068.26,775.51,3069.57,764.92,3066.43Z" transform="translate(-4 -4)"/><path class="cls-1" d="M3388.22,2955.8c-.13,16.21-.34,30.09-.32,44,0,4.53.61,9.05,1,14.68,5.89.52,11,1.34,16.13,1.36,35.3.12,70.61,0,105.91.1,20.44.06,21.12.8,21.23,21.44,0,9.31,0,18.65-.41,28-.26,5.29-3.63,8.71-8.8,9.26a151.42,151.42,0,0,1-15.95.52q-48,.06-95.93,0h-19.48c-4.69,13.1-5.34,32.63-2.1,59.14,4.74.51,9.81,1.49,14.89,1.52,32.64.14,65.28.07,97.92.07,4.66,0,9.33-.1,14,0,13.23.42,15.49,2.36,15.8,14.79.29,11.32.29,22.65-.06,34-.29,9-3.08,11.44-12.34,12.08-3.31.23-6.66.13-10,.13H3341.87c-3.33,0-6.67.11-10-.15-8.21-.64-10.91-3.11-11.52-10.84-.37-4.64-.24-9.32-.24-14q0-126.9,0-253.8c0-24.79.08-24.88,24.14-24.91q81.93-.09,163.86,0c2.67,0,5.33-.08,8,0,13.56.58,15.76,2.78,16,16.86.2,10,.25,20,0,30-.33,12.27-2.87,14.57-15.75,15.1-4,.17-8,0-12,0q-47,0-93.92,0C3403.9,2955.2,3397.33,2955.54,3388.22,2955.8Z" transform="translate(-4 -4)"/><path class="cls-1" d="M4068.54,3075.66v32.71q0,34,0,68a99.48,99.48,0,0,1-.42,12c-.53,4.41-3.38,7.13-7.72,8-7.4,1.53-45.94.1-56.25-2.11-.92-2.69-2.51-5.69-2.89-8.83-.56-4.6-.32-9.31-.32-14q0-126,0-251.9c0-4.67-.17-9.35.2-14,.66-8.49,3.89-11.93,12.66-12.19q21-.6,42,0c9.57.27,12.57,3.57,12.67,13.95.25,28,.07,56,.15,84,0,7.22.35,14.43.53,21.26,14.64,4.24,59.55,4.65,79,.76.29-6.14.83-12.63.86-19.13.1-26,0-52,.07-78a109.89,109.89,0,0,1,.62-14c.56-4.28,3.41-8,7.59-8.24,17.76-1.16,35.6-2.27,54.13,1.35.66,6.5,1.63,11.68,1.63,16.86q.15,132.95.06,265.89a78.71,78.71,0,0,1-.23,8c-.68,6.92-3.29,10.22-9.7,10.37q-22,.52-43.95,0c-6.22-.16-9.24-3.73-9.85-10.39-.43-4.63-.31-9.32-.32-14q0-37,0-74v-20.28c-13.94-4.93-27.26-2.18-40.27-2.6C4096.17,3074.82,4083.62,3075.45,4068.54,3075.66Z" transform="translate(-4 -4)"/><path class="cls-1" d="M3730.48,3135.21c7.59.23,14.15.58,20.71.6q47.94.09,95.87,0c4.66,0,9.33-.15,14,.14,8.09.51,11.44,3.16,11.67,10.59.41,13.29.35,26.62,0,39.92-.18,6.65-3.39,9.53-10,10.06-4.63.37-9.31.28-14,.28q-81.88,0-163.77,0c-4,0-8,.14-12-.16-8.62-.64-11.33-3.52-12-12.65-.28-4-.13-8-.13-12,0-84.55.16-169.1-.1-253.64-.08-24.69,2.13-25.45,26-25.34,53.26.24,106.52.07,159.77.07,1.34,0,2.67,0,4,0,21.66.21,22.3.78,22.39,22.52,0,10,0,20-.49,29.93-.27,5.33-3.65,8.6-8.92,9.11s-10.63.44-15.95.45q-47.94,0-95.87,0h-20.21c-1.21,3.41-2.77,5.78-2.78,8.16q-.2,81.87-.05,163.76C3728.74,3129,3729.53,3130.89,3730.48,3135.21Z" transform="translate(-4 -4)"/><path d="M3581.07,2171.64c4.53-21.18,127.35-359.76,158.95-438.89a48.06,48.06,0,0,1,3.32-6c1.73-.28,2.47-.64,2.9-.42a2.88,2.88,0,0,1,1.13,1.6q70.4,213.16,140.73,426.35c1.25,3.78,2.38,7.61,3.31,11.48.29,1.18-.28,2.57-.45,3.9a8.22,8.22,0,0,1-1.28,1.22,3.9,3.9,0,0,1-1.84.74c-59.23,1.06-118.45,2.75-177.68,2.9C3667.61,2174.65,3625.06,2172.7,3581.07,2171.64Z" transform="translate(-4 -4)"/></svg>