  0
SECTION
  2
HEADER
  9
$ACADVER
  1
AC1006
  9
$EXTMIN
 10
0.000000
 20
0.000000
 30
0.000000
  9
$EXTMAX
 10
20833.000000
 20
20833.000000
 30
0.000000
  0
ENDSEC
  0
SECTION
  2
ENTITIES
  0
POLYLINE
  8
0
 66
1
 70
1
  0
VERTEX
  8
0
 10
10208.000000
 20
10416.500000
 42
0.000000
  0
VERTEX
  8
0
 10
10208.000000
 20
10208.000000
 42
0.000000
  0
VERTEX
  8
0
 10
10416.500000
 20
10208.000000
 42
0.000000
  0
VERTEX
  8
0
 10
10625.000000
 20
10208.000000
 42
0.000000
  0
VERTEX
  8
0
 10
10625.000000
 20
10416.500000
 42
0.000000
  0
VERTEX
  8
0
 10
10625.000000
 20
10625.000000
 42
0.000000
  0
VERTEX
  8
0
 10
10416.500000
 20
10625.000000
 42
0.000000
  0
VERTEX
  8
0
 10
10208.000000
 20
10625.000000
 42
0.000000
  0
SEQEND
  0
POLYLINE
  8
0
 66
1
 70
1
  0
VERTEX
  8
0
 10
10290.033884
 20
10498.459173
 42
-0.147088
  0
VERTEX
  8
0
 10
10290.662109
 20
10496.975935
 42
-0.018966
  0
VERTEX
  8
0
 10
10290.908230
 20
10493.497206
 42
-0.013943
  0
VERTEX
  8
0
 10
10290.934221
 20
10488.106368
 42
-0.003286
  0
VERTEX
  8
0
 10
10290.667254
 20
10479.100487
 42
0.000000
  0
VERTEX
  8
0
 10
10290.021851
 20
10461.282629
 42
0.000000
  0
VERTEX
  8
0
 10
10296.157617
 20
10460.641314
 42
0.018613
  0
VERTEX
  8
0
 10
10303.230537
 20
10460.167275
 42
0.007383
  0
VERTEX
  8
0
 10
10312.966905
 20
10460.021861
 42
0.006982
  0
VERTEX
  8
0
 10
10322.485912
 20
10460.153199
 42
0.027121
  0
VERTEX
  8
0
 10
10328.360429
 20
10460.635924
 42
0.000000
  0
VERTEX
  8
0
 10
10333.000000
 20
10461.271848
 42
0.000000
  0
VERTEX
  8
0
 10
10333.000000
 20
10479.513479
 42
-0.003079
  0
VERTEX
  8
0
 10
10333.058260
 20
10488.975346
 42
-0.015117
  0
VERTEX
  8
0
 10
10333.285502
 20
10494.313099
 42
-0.021934
  0
VERTEX
  8
0
 10
10333.674564
 20
10497.633538
 42
-0.181342
  0
VERTEX
  8
0
 10
10334.415627
 20
10498.929977
 42
-0.116532
  0
VERTEX
  8
0
 10
10335.342636
 20
10499.390079
 42
-0.027239
  0
VERTEX
  8
0
 10
10337.063315
 20
10499.692937
 42
-0.025259
  0
VERTEX
  8
0
 10
10339.223400
 20
10499.842772
 42
-0.017636
  0
VERTEX
  8
0
 10
10341.665627
 20
10499.802421
 42
0.000000
  0
VERTEX
  8
0
 10
10347.500000
 20
10499.500000
 42
0.000000
  0
VERTEX
  8
0
 10
10347.500000
 20
10453.500000
 42
0.000000
  0
VERTEX
  8
0
 10
10347.500000
 20
10407.500000
 42
0.000000
  0
VERTEX
  8
0
 10
10340.500000
 20
10407.500000
 42
0.000000
  0
VERTEX
  8
0
 10
10333.500000
 20
10407.500000
 42
0.000000
  0
VERTEX
  8
0
 10
10333.500000
 20
10427.000000
 42
0.000000
  0
VERTEX
  8
0
 10
10333.500000
 20
10446.500000
 42
0.000000
  0
VERTEX
  8
0
 10
10311.641335
 20
10446.769805
 42
0.000000
  0
VERTEX
  8
0
 10
10289.782669
 20
10447.039610
 42
0.000000
  0
VERTEX
  8
0
 10
10290.131142
 20
10428.269805
 42
-0.004085
  0
VERTEX
  8
0
 10
10290.206847
 20
10420.986163
 42
-0.006179
  0
VERTEX
  8
0
 10
10290.142597
 20
10414.646443
 42
-0.002681
  0
VERTEX
  8
0
 10
10289.992357
 20
10409.253899
 42
-0.134663
  0
VERTEX
  8
0
 10
10289.680791
 20
10408.250000
 42
-0.232941
  0
VERTEX
  8
0
 10
10288.188097
 20
10407.346220
 42
-0.012569
  0
VERTEX
  8
0
 10
10282.521464
 20
10406.996858
 42
-0.011072
  0
VERTEX
  8
0
 10
10276.832520
 20
10406.915531
 42
-0.398240
  0
VERTEX
  8
0
 10
10275.964729
 20
10407.750000
 42
-0.009645
  0
VERTEX
  8
0
 10
10275.947981
 20
10408.354360
 42
-0.000010
  0
VERTEX
  8
0
 10
10275.838885
 20
10421.351562
 42
-0.000101
  0
VERTEX
  8
0
 10
10275.720128
 20
10435.885144
 42
-0.000062
  0
VERTEX
  8
0
 10
10275.585854
 20
10453.000000
 42
-0.001578
  0
VERTEX
  8
0
 10
10275.497859
 20
10472.273458
 42
-0.003946
  0
VERTEX
  8
0
 10
10275.589090
 20
10486.346336
 42
-0.001302
  0
VERTEX
  8
0
 10
10275.777874
 20
10497.464183
 42
-0.165436
  0
VERTEX
  8
0
 10
10276.243570
 20
10498.750000
 42
-0.202697
  0
VERTEX
  8
0
 10
10278.275909
 20
10499.848262
 42
-0.029146
  0
VERTEX
  8
0
 10
10283.098219
 20
10500.027679
 42
-0.029665
  0
VERTEX
  8
0
 10
10287.918630
 20
10499.639284
 42
-0.186715
  0
SEQEND
  0
POLYLINE
  8
0
 66
1
 70
1
  0
VERTEX
  8
0
 10
10378.928630
 20
10498.585996
 42
-0.163242
  0
VERTEX
  8
0
 10
10379.513644
 20
10497.073635
 42
-0.007100
  0
VERTEX
  8
0
 10
10379.693377
 20
10491.326921
 42
-0.008201
  0
VERTEX
  8
0
 10
10379.698981
 20
10482.905719
 42
-0.002121
  0
VERTEX
  8
0
 10
10379.427861
 20
10469.335996
 42
0.005904
  0
VERTEX
  8
0
 10
10379.137830
 20
10445.969072
 42
0.042294
  0
VERTEX
  8
0
 10
10380.083607
 20
10434.727476
 42
0.092245
  0
VERTEX
  8
0
 10
10382.605445
 20
10427.870889
 42
0.098508
  0
VERTEX
  8
0
 10
10387.383428
 20
10422.561789
 42
0.060559
  0
VERTEX
  8
0
 10
10389.196843
 20
10421.521929
 42
0.049376
  0
VERTEX
  8
0
 10
10391.335542
 20
10420.857985
 42
0.032715
  0
VERTEX
  8
0
 10
10394.278442
 20
10420.452471
 42
0.009682
  0
VERTEX
  8
0
 10
10398.821639
 20
10420.215282
 42
0.033678
  0
VERTEX
  8
0
 10
10405.967026
 20
10420.462136
 42
0.082984
  0
VERTEX
  8
0
 10
10411.013078
 20
10421.844842
 42
0.100738
  0
VERTEX
  8
0
 10
10414.741370
 20
10424.585184
 42
0.067283
  0
VERTEX
  8
0
 10
10417.750000
 20
10428.966006
 42
0.062125
  0
VERTEX
  8
0
 10
10419.061910
 20
10432.635693
 42
0.039461
  0
VERTEX
  8
0
 10
10419.697739
 20
10437.135585
 42
0.014250
  0
VERTEX
  8
0
 10
10419.953662
 20
10444.890011
 42
0.001124
  0
VERTEX
  8
0
 10
10420.000000
 20
10465.511890
 42
-0.001875
  0
VERTEX
  8
0
 10
10420.058110
 20
10481.010136
 42
-0.007134
  0
VERTEX
  8
0
 10
10420.268699
 20
10490.683676
 42
-0.005051
  0
VERTEX
  8
0
 10
10420.579394
 20
10497.413339
 42
-0.184337
  0
VERTEX
  8
0
 10
10421.200000
 20
10498.800000
 42
-0.124310
  0
VERTEX
  8
0
 10
10421.979365
 20
10499.265108
 42
-0.025624
  0
VERTEX
  8
0
 10
10423.545625
 20
10499.647500
 42
-0.025482
  0
VERTEX
  8
0
 10
10425.459526
 20
10499.911882
 42
-0.021582
  0
VERTEX
  8
0
 10
10427.500000
 20
10500.000000
 42
-0.021582
  0
VERTEX
  8
0
 10
10429.540474
 20
10499.911882
 42
-0.025482
  0
VERTEX
  8
0
 10
10431.454375
 20
10499.647500
 42
-0.025624
  0
VERTEX
  8
0
 10
10433.020635
 20
10499.265108
 42
-0.124310
  0
VERTEX
  8
0
 10
10433.800000
 20
10498.800000
 42
-0.198528
  0
VERTEX
  8
0
 10
10435.161285
 20
10495.520422
 42
-0.001599
  0
VERTEX
  8
0
 10
10435.111849
 20
10466.804593
 42
-0.004022
  0
VERTEX
  8
0
 10
10434.763198
 20
10439.911168
 42
-0.057879
  0
VERTEX
  8
0
 10
10433.463741
 20
10430.460099
 42
-0.082862
  0
VERTEX
  8
0
 10
10428.636638
 20
10419.581192
 42
-0.101834
  0
VERTEX
  8
0
 10
10420.792088
 20
10411.744959
 42
-0.094488
  0
VERTEX
  8
0
 10
10409.992448
 20
10407.261689
 42
-0.062274
  0
VERTEX
  8
0
 10
10396.549522
 20
10406.174773
 42
-0.011399
  0
VERTEX
  8
0
 10
10391.596519
 20
10406.504658
 42
-0.030110
  0
VERTEX
  8
0
 10
10388.084173
 20
10407.033714
 42
-0.036416
  0
VERTEX
  8
0
 10
10385.065048
 20
10407.910076
 42
-0.024932
  0
VERTEX
  8
0
 10
10381.783459
 20
10409.317515
 42
-0.044325
  0
VERTEX
  8
0
 10
10376.903434
 20
10412.266721
 42
-0.049930
  0
VERTEX
  8
0
 10
10372.828328
 20
10415.928130
 42
-0.050111
  0
VERTEX
  8
0
 10
10369.571611
 20
10420.312254
 42
-0.045216
  0
VERTEX
  8
0
 10
10367.120798
 20
10425.406684
 42
-0.046249
  0
VERTEX
  8
0
 10
10365.911739
 20
10429.851482
 42
-0.029876
  0
VERTEX
  8
0
 10
10365.307619
 20
10435.154881
 42
-0.012204
  0
VERTEX
  8
0
 10
10365.051090
 20
10443.913040
 42
-0.001219
  0
VERTEX
  8
0
 10
10365.000000
 20
10464.870846
 42
-0.001846
  0
VERTEX
  8
0
 10
10365.048025
 20
10477.875464
 42
-0.002989
  0
VERTEX
  8
0
 10
10365.195833
 20
10488.934978
 42
-0.000508
  0
VERTEX
  8
0
 10
10365.394581
 20
10498.695818
 42
-0.193363
  0
VERTEX
  8
0
 10
10365.666667
 20
10499.333333
 42
-0.194496
  0
VERTEX
  8
0
 10
10367.460313
 20
10500.094220
 42
-0.018327
  0
VERTEX
  8
0
 10
10372.337210
 20
10499.998415
 42
-0.018514
  0
VERTEX
  8
0
 10
10377.192364
 20
10499.544028
 42
-0.189141
  0
SEQEND
  0
POLYLINE
  8
0
 66
1
 70
1
  0
VERTEX
  8
0
 10
10471.735489
 20
10498.750000
 42
-0.164867
  0
VERTEX
  8
0
 10
10472.189791
 20
10497.458733
 42
-0.000771
  0
VERTEX
  8
0
 10
10472.333236
 20
10483.062137
 42
-0.003035
  0
VERTEX
  8
0
 10
10472.375380
 20
10465.126237
 42
-0.001234
  0
VERTEX
  8
0
 10
10472.224259
 20
10440.707357
 42
0.000000
  0
VERTEX
  8
0
 10
10471.732652
 20
10383.914714
 42
0.000000
  0
VERTEX
  8
0
 10
10465.116326
 20
10384.207357
 42
0.000000
  0
VERTEX
  8
0
 10
10458.500000
 20
10384.500000
 42
0.000000
  0
VERTEX
  8
0
 10
10457.932932
 20
10435.500000
 42
0.000331
  0
VERTEX
  8
0
 10
10457.702346
 20
10455.073036
 42
0.000548
  0
VERTEX
  8
0
 10
10457.478704
 20
10471.592187
 42
0.000021
  0
VERTEX
  8
0
 10
10457.259610
 20
10486.521080
 42
0.155482
  0
VERTEX
  8
0
 10
10457.182932
 20
10486.750000
 42
0.229135
  0
VERTEX
  8
0
 10
10456.991378
 20
10486.851828
 42
0.001168
  0
VERTEX
  8
0
 10
10454.777174
 20
10486.931061
 42
0.004850
  0
VERTEX
  8
0
 10
10452.234247
 20
10486.991423
 42
0.003015
  0
VERTEX
  8
0
 10
10449.250000
 20
10487.015313
 42
-0.009647
  0
VERTEX
  8
0
 10
10446.188489
 20
10487.080442
 42
-0.012694
  0
VERTEX
  8
0
 10
10443.400836
 20
10487.264556
 42
-0.010188
  0
VERTEX
  8
0
 10
10441.099878
 20
10487.522676
 42
-0.108768
  0
VERTEX
  8
0
 10
10440.220930
 20
10487.842296
 42
-0.165234
  0
VERTEX
  8
0
 10
10439.660764
 20
10488.538086
 42
-0.064132
  0
VERTEX
  8
0
 10
10439.384621
 20
10489.760141
 42
-0.040021
  0
VERTEX
  8
0
 10
10439.358594
 20
10491.599901
 42
-0.012786
  0
VERTEX
  8
0
 10
10439.608611
 20
10494.326983
 42
0.000000
  0
VERTEX
  8
0
 10
10440.275363
 20
10500.000000
 42
0.000000
  0
VERTEX
  8
0
 10
10455.515237
 20
10500.000000
 42
-0.004378
  0
VERTEX
  8
0
 10
10462.763243
 20
10499.936539
 42
-0.014851
  0
VERTEX
  8
0
 10
10467.485832
 20
10499.713412
 42
-0.016373
  0
VERTEX
  8
0
 10
10470.676314
 20
10499.362151
 42
-0.193176
  0
SEQEND
  0
POLYLINE
  8
0
 66
1
 70
1
  0
VERTEX
  8
0
 10
10543.264076
 20
10454.717011
 42
-0.001978
  0
VERTEX
  8
0
 10
10548.944951
 20
10437.443343
 42
-0.003174
  0
VERTEX
  8
0
 10
10553.639198
 20
10422.658090
 42
-0.000637
  0
VERTEX
  8
0
 10
10557.665328
 20
10409.633857
 42
-0.167784
  0
VERTEX
  8
0
 10
10557.625714
 20
10408.467011
 42
-0.190092
  0
VERTEX
  8
0
 10
10556.984177
 20
10407.767380
 42
-0.065141
  0
VERTEX
  8
0
 10
10555.656072
 20
10407.323000
 42
-0.037830
  0
VERTEX
  8
0
 10
10553.512290
 20
10407.070664
 42
-0.010386
  0
VERTEX
  8
0
 10
10550.110840
 20
10407.000000
 42
0.000000
  0
VERTEX
  8
0
 10
10543.158911
 20
10407.000000
 42
0.000000
  0
VERTEX
  8
0
 10
10542.496889
 20
10410.250000
 42
0.012799
  0
VERTEX
  8
0
 10
10542.083542
 20
10412.043232
 42
0.002778
  0
VERTEX
  8
0
 10
10541.273781
 20
10415.115625
 42
0.002895
  0
VERTEX
  8
0
 10
10540.296019
 20
10418.661716
 42
0.002767
  0
VERTEX
  8
0
 10
10539.262765
 20
10422.250000
 42
0.000000
  0
VERTEX
  8
0
 10
10536.690661
 20
10431.000000
 42
0.000000
  0
VERTEX
  8
0
 10
10519.018411
 20
10431.000000
 42
0.000000
  0
VERTEX
  8
0
 10
10501.346161
 20
10431.000000
 42
0.000000
  0
VERTEX
  8
0
 10
10498.715073
 20
10423.250000
 42
0.003642
  0
VERTEX
  8
0
 10
10497.628510
 20
10419.971211
 42
0.003187
  0
VERTEX
  8
0
 10
10496.539460
 20
10416.528125
 42
0.003205
  0
VERTEX
  8
0
 10
10495.595356
 20
10413.404981
 42
0.009545
  0
VERTEX
  8
0
 10
10495.003449
 20
10411.250000
 42
0.000000
  0
VERTEX
  8
0
 10
10493.922912
 20
10407.000000
 42
0.000000
  0
VERTEX
  8
0
 10
10487.583901
 20
10407.000000
 42
-0.015493
  0
VERTEX
  8
0
 10
10484.907029
 20
10407.082964
 42
-0.026598
  0
VERTEX
  8
0
 10
10482.690003
 20
10407.339387
 42
-0.029545
  0
VERTEX
  8
0
 10
10481.013694
 20
10407.727299
 42
-0.151540
  0
VERTEX
  8
0
 10
10480.228398
 20
10408.250000
 42
-0.254242
  0
VERTEX
  8
0
 10
10479.972875
 20
10409.616924
 42
-0.002493
  0
VERTEX
  8
0
 10
10483.208067
 20
10419.441250
 42
-0.005648
  0
VERTEX
  8
0
 10
10487.858458
 20
10432.825490
 42
-0.001610
  0
VERTEX
  8
0
 10
10495.379958
 20
10453.500000
 42
-0.000629
  0
VERTEX
  8
0
 10
10501.636236
 20
10470.460007
 42
-0.001000
  0
VERTEX
  8
0
 10
10507.036603
 20
10484.954099
 42
-0.000194
  0
VERTEX
  8
0
 10
10511.828246
 20
10497.721104
 42
-0.050318
  0
VERTEX
  8
0
 10
10512.358083
 20
10498.790551
 42
-0.182692
  0
VERTEX
  8
0
 10
10513.130035
 20
10499.376006
 42
-0.042253
  0
VERTEX
  8
0
 10
10514.755723
 20
10499.710639
 42
-0.029351
  0
VERTEX
  8
0
 10
10517.191726
 20
10499.856643
 42
-0.009866
  0
VERTEX
  8
0
 10
10520.753825
 20
10499.790551
 42
0.000000
  0
VERTEX
  8
0
 10
10528.339492
 20
10499.500000
 42
0.000000
  0
SEQEND
  0
POLYLINE
  8
0
 66
1
 70
1
  0
VERTEX
  8
0
 10
10502.000000
 20
10381.500000
 42
-0.072846
  0
VERTEX
  8
0
 10
10501.789676
 20
10380.064029
 42
-0.224968
  0
VERTEX
  8
0
 10
10501.150000
 20
10379.354167
 42
-0.091609
  0
VERTEX
  8
0
 10
10499.761772
 20
10379.055253
 42
-0.007344
  0
VERTEX
  8
0
 10
10496.000000
 20
10379.000000
 42
0.007344
  0
VERTEX
  8
0
 10
10492.238228
 20
10378.944747
 42
0.091609
  0
VERTEX
  8
0
 10
10490.850000
 20
10378.645833
 42
0.224968
  0
VERTEX
  8
0
 10
10490.210324
 20
10377.935971
 42
0.072846
  0
VERTEX
  8
0
 10
10490.000000
 20
10376.500000
 42
0.072846
  0
VERTEX
  8
0
 10
10490.210324
 20
10375.064029
 42
0.224968
  0
VERTEX
  8
0
 10
10490.850000
 20
10374.354167
 42
0.091609
  0
VERTEX
  8
0
 10
10492.238228
 20
10374.055253
 42
0.007344
  0
VERTEX
  8
0
 10
10496.000000
 20
10374.000000
 42
-0.007426
  0
VERTEX
  8
0
 10
10499.737378
 20
10373.944486
 42
-0.089734
  0
VERTEX
  8
0
 10
10501.137779
 20
10373.647913
 42
-0.222704
  0
VERTEX
  8
0
 10
10501.784149
 20
10372.946888
 42
-0.076801
  0
VERTEX
  8
0
 10
10502.000000
 20
10371.549904
 42
-0.078437
  0
VERTEX
  8
0
 10
10501.781479
 20
10370.165509
 42
-0.205726
  0
VERTEX
  8
0
 10
10501.132687
 20
10369.424136
 42
-0.089936
  0
VERTEX
  8
0
 10
10499.739968
 20
10369.043611
 42
-0.008804
  0
VERTEX
  8
0
 10
10496.250000
 20
10368.799904
 42
0.010457
  0
VERTEX
  8
0
 10
10492.948029
 20
10368.558356
 42
0.076094
  0
VERTEX
  8
0
 10
10491.411243
 20
10368.172769
 42
0.162301
  0
VERTEX
  8
0
 10
10490.603933
 20
10367.465389
 42
0.097407
  0
VERTEX
  8
0
 10
10490.180449
 20
10366.250000
 42
0.091097
  0
VERTEX
  8
0
 10
10490.231790
 20
10364.986538
 42
0.248829
  0
VERTEX
  8
0
 10
10490.796585
 20
10364.329514
 42
0.086700
  0
VERTEX
  8
0
 10
10492.171095
 20
10364.050857
 42
0.006764
  0
VERTEX
  8
0
 10
10495.930449
 20
10364.000000
 42
-0.007192
  0
VERTEX
  8
0
 10
10499.742522
 20
10363.945161
 42
-0.090734
  0
VERTEX
  8
0
 10
10501.143045
 20
10363.647027
 42
-0.225309
  0
VERTEX
  8
0
 10
10501.787523
 20
10362.936746
 42
-0.073544
  0
VERTEX
  8
0
 10
10502.000000
 20
10361.500000
 42
-0.104331
  0
VERTEX
  8
0
 10
10501.693938
 20
10360.049189
 42
-0.224677
  0
VERTEX
  8
0
 10
10500.850000
 20
10359.319444
 42
-0.064117
  0
VERTEX
  8
0
 10
10498.935464
 20
10359.044005
 42
-0.003707
  0
VERTEX
  8
0
 10
10493.000000
 20
10359.000000
 42
0.000000
  0
VERTEX
  8
0
 10
10484.000000
 20
10359.000000
 42
0.000000
  0
VERTEX
  8
0
 10
10484.000000
 20
10371.500000
 42
0.000000
  0
VERTEX
  8
0
 10
10484.000000
 20
10384.000000
 42
0.000000
  0
VERTEX
  8
0
 10
10493.000000
 20
10384.000000
 42
-0.003707
  0
VERTEX
  8
0
 10
10498.935464
 20
10383.955995
 42
-0.064117
  0
VERTEX
  8
0
 10
10500.850000
 20
10383.680556
 42
-0.224677
  0
VERTEX
  8
0
 10
10501.693938
 20
10382.950811
 42
-0.104331
  0
SEQEND
  0
POLYLINE
  8
0
 66
1
 70
1
  0
VERTEX
  8
0
 10
10531.000000
 20
10381.500000
 42
-0.072846
  0
VERTEX
  8
0
 10
10530.789676
 20
10380.064029
 42
-0.224968
  0
VERTEX
  8
0
 10
10530.150000
 20
10379.354167
 42
-0.091609
  0
VERTEX
  8
0
 10
10528.761772
 20
10379.055253
 42
-0.007344
  0
VERTEX
  8
0
 10
10525.000000
 20
10379.000000
 42
0.000000
  0
VERTEX
  8
0
 10
10519.000000
 20
10379.000000
 42
0.000000
  0
VERTEX
  8
0
 10
10519.000000
 20
10371.549904
 42
0.000000
  0
VERTEX
  8
0
 10
10519.000000
 20
10364.099808
 42
0.000000
  0
VERTEX
  8
0
 10
10524.750000
 20
10363.799904
 42
-0.010457
  0
VERTEX
  8
0
 10
10528.051971
 20
10363.558356
 42
-0.076094
  0
VERTEX
  8
0
 10
10529.588757
 20
10363.172769
 42
-0.162301
  0
VERTEX
  8
0
 10
10530.396067
 20
10362.465389
 42
-0.097407
  0
VERTEX
  8
0
 10
10530.819551
 20
10361.250000
 42
-0.134901
  0
VERTEX
  8
0
 10
10530.657472
 20
10359.981707
 42
-0.235151
  0
VERTEX
  8
0
 10
10529.873817
 20
10359.303212
 42
-0.059351
  0
VERTEX
  8
0
 10
10527.928295
 20
10359.042669
 42
-0.003641
  0
VERTEX
  8
0
 10
10522.069551
 20
10359.000000
 42
0.000000
  0
VERTEX
  8
0
 10
10513.000000
 20
10359.000000
 42
0.000000
  0
VERTEX
  8
0
 10
10513.000000
 20
10371.500000
 42
0.000000
  0
VERTEX
  8
0
 10
10513.000000
 20
10384.000000
 42
0.000000
  0
VERTEX
  8
0
 10
10522.000000
 20
10384.000000
 42
-0.003707
  0
VERTEX
  8
0
 10
10527.935464
 20
10383.955995
 42
-0.064117
  0
VERTEX
  8
0
 10
10529.850000
 20
10383.680556
 42
-0.224677
  0
VERTEX
  8
0
 10
10530.693938
 20
10382.950811
 42
-0.104331
  0
SEQEND
  0
POLYLINE
  8
0
 66
1
 70
1
  0
VERTEX
  8
0
 10
10547.000000
 20
10379.000000
 42
0.009767
  0
VERTEX
  8
0
 10
10547.062220
 20
10375.815060
 42
0.123943
  0
VERTEX
  8
0
 10
10547.397260
 20
10374.674418
 42
0.222515
  0
VERTEX
  8
0
 10
10548.170638
 20
10374.144665
 42
0.040693
  0
VERTEX
  8
0
 10
10549.945209
 20
10374.000000
 42
0.042763
  0
VERTEX
  8
0
 10
10551.688009
 20
10374.149328
 42
0.202657
  0
VERTEX
  8
0
 10
10552.512939
 20
10374.679069
 42
0.122561
  0
VERTEX
  8
0
 10
10552.935880
 20
10375.815989
 42
0.012040
  0
VERTEX
  8
0
 10
10553.195209
 20
10378.750000
 42
-0.013910
  0
VERTEX
  8
0
 10
10553.454017
 20
10381.558363
 42
-0.106113
  0
VERTEX
  8
0
 10
10553.882886
 20
10382.805764
 42
-0.175693
  0
VERTEX
  8
0
 10
10554.694828
 20
10383.462855
 42
-0.054549
  0
VERTEX
  8
0
 10
10556.250000
 20
10383.816422
 42
0.000000
  0
VERTEX
  8
0
 10
10559.000000
 20
10384.132845
 42
0.000000
  0
VERTEX
  8
0
 10
10559.000000
 20
10371.566422
 42
0.000000
  0
VERTEX
  8
0
 10
10559.000000
 20
10359.000000
 42
0.000000
  0
VERTEX
  8
0
 10
10556.000000
 20
10359.000000
 42
-0.038700
  0
VERTEX
  8
0
 10
10554.180755
 20
10359.141020
 42
-0.222479
  0
VERTEX
  8
0
 10
10553.400000
 20
10359.666667
 42
-0.126045
  0
VERTEX
  8
0
 10
10553.062224
 20
10360.800013
 42
-0.009722
  0
VERTEX
  8
0
 10
10553.000000
 20
10364.000000
 42
0.009722
  0
VERTEX
  8
0
 10
10552.937776
 20
10367.199987
 42
0.126045
  0
VERTEX
  8
0
 10
10552.600000
 20
10368.333333
 42
0.222479
  0
VERTEX
  8
0
 10
10551.819245
 20
10368.858980
 42
0.038700
  0
VERTEX
  8
0
 10
10550.000000
 20
10369.000000
 42
0.038700
  0
VERTEX
  8
0
 10
10548.180755
 20
10368.858980
 42
0.222479
  0
VERTEX
  8
0
 10
10547.400000
 20
10368.333333
 42
0.126045
  0
VERTEX
  8
0
 10
10547.062224
 20
10367.199987
 42
0.009722
  0
VERTEX
  8
0
 10
10547.000000
 20
10364.000000
 42
-0.009722
  0
VERTEX
  8
0
 10
10546.937776
 20
10360.800013
 42
-0.126045
  0
VERTEX
  8
0
 10
10546.600000
 20
10359.666667
 42
-0.222479
  0
VERTEX
  8
0
 10
10545.819245
 20
10359.141020
 42
-0.038700
  0
VERTEX
  8
0
 10
10544.000000
 20
10359.000000
 42
0.000000
  0
VERTEX
  8
0
 10
10541.000000
 20
10359.000000
 42
0.000000
  0
VERTEX
  8
0
 10
10541.000000
 20
10371.500000
 42
0.000000
  0
VERTEX
  8
0
 10
10541.000000
 20
10384.000000
 42
0.000000
  0
VERTEX
  8
0
 10
10544.000000
 20
10384.000000
 42
-0.038700
  0
VERTEX
  8
0
 10
10545.819245
 20
10383.858980
 42
-0.222479
  0
VERTEX
  8
0
 10
10546.600000
 20
10383.333333
 42
-0.126045
  0
VERTEX
  8
0
 10
10546.937776
 20
10382.199987
 42
-0.009722
  0
SEQEND
  0
POLYLINE
  8
0
 66
1
 70
1
  0
VERTEX
  8
0
 10
10462.000000
 20
10369.000000
 42
0.000000
  0
VERTEX
  8
0
 10
10462.000000
 20
10359.000000
 42
0.000000
  0
VERTEX
  8
0
 10
10465.000000
 20
10359.000000
 42
0.000000
  0
VERTEX
  8
0
 10
10468.000000
 20
10359.000000
 42
0.000000
  0
VERTEX
  8
0
 10
10468.000000
 20
10368.531385
 42
-0.006009
  0
VERTEX
  8
0
 10
10468.061137
 20
10373.618190
 42
-0.033129
  0
VERTEX
  8
0
 10
10468.308104
 20
10376.346648
 42
-0.069135
  0
VERTEX
  8
0
 10
10468.782830
 20
10377.911445
 42
-0.195377
  0
VERTEX
  8
0
 10
10469.600925
 20
10378.677102
 42
-0.311770
  0
VERTEX
  8
0
 10
10471.349092
 20
10378.252940
 42
-0.140983
  0
VERTEX
  8
0
 10
10472.422121
 20
10376.021381
 42
-0.041390
  0
VERTEX
  8
0
 10
10472.863381
 20
10370.864091
 42
-0.005600
  0
VERTEX
  8
0
 10
10472.770167
 20
10360.000000
 42
-0.011805
  0
VERTEX
  8
0
 10
10472.236587
 20
10347.710386
 42
-0.056834
  0
VERTEX
  8
0
 10
10470.981373
 20
10340.833742
 42
-0.083011
  0
VERTEX
  8
0
 10
10468.445070
 20
10335.711106
 42
-0.043089
  0
VERTEX
  8
0
 10
10463.772072
 20
10330.290889
 42
-0.033183
  0
VERTEX
  8
0
 10
10460.106914
 20
10327.160743
 42
-0.012375
  0
VERTEX
  8
0
 10
10454.577381
 20
10323.248638
 42
-0.007213
  0
VERTEX
  8
0
 10
10448.921175
 20
10319.570594
 42
-0.141467
  0
VERTEX
  8
0
 10
10446.944829
 20
10319.000000
 42
-0.244241
  0
VERTEX
  8
0
 10
10445.774789
 20
10319.607802
 42
-0.014530
  0
VERTEX
  8
0
 10
10443.508764
 20
10323.039967
 42
-0.018823
  0
VERTEX
  8
0
 10
10441.494315
 20
10326.584237
 42
-0.124072
  0
VERTEX
  8
0
 10
10441.028362
 20
10328.553751
 42
-0.150872
  0
VERTEX
  8
0
 10
10441.367622
 20
10329.598250
 42
-0.048570
  0
VERTEX
  8
0
 10
10442.442072
 20
10330.846764
 42
-0.036939
  0
VERTEX
  8
0
 10
10444.148827
 20
10332.253352
 42
-0.017804
  0
VERTEX
  8
0
 10
10446.520841
 20
10333.806862
 42
0.022036
  0
VERTEX
  8
0
 10
10448.814893
 20
10335.337201
 42
0.016790
  0
VERTEX
  8
0
 10
10451.189896
 20
10337.203151
 42
0.017071
  0
VERTEX
  8
0
 10
10453.300827
 20
10339.106191
 42
0.037735
  0
VERTEX
  8
0
 10
10454.742479
 20
10340.725019
 42
0.044046
  0
VERTEX
  8
0
 10
10456.324847
 20
10343.226079
 42
0.071277
  0
VERTEX
  8
0
 10
10457.148102
 20
10345.600467
 42
0.036654
  0
VERTEX
  8
0
 10
10457.558354
 20
10349.056185
 42
0.004502
  0
VERTEX
  8
0
 10
10457.831447
 20
10356.662991
 42
0.000000
  0
VERTEX
  8
0
 10
10458.162893
 20
10368.989667
 42
0.000000
  0
VERTEX
  8
0
 10
10364.831447
 20
10369.244833
 42
-0.000279
  0
VERTEX
  8
0
 10
10303.116092
 20
10369.447944
 42
-0.005078
  0
VERTEX
  8
0
 10
10283.448327
 20
10369.723374
 42
-0.007509
  0
VERTEX
  8
0
 10
10272.787033
 20
10370.141256
 42
-0.398428
  0
VERTEX
  8
0
 10
10271.500000
 20
10371.500000
 42
-0.398408
  0
VERTEX
  8
0
 10
10272.786848
 20
10372.858643
 42
-0.007521
  0
VERTEX
  8
0
 10
10283.438144
 20
10373.276619
 42
-0.005082
  0
VERTEX
  8
0
 10
10303.089044
 20
10373.552051
 42
-0.000279
  0
VERTEX
  8
0
 10
10364.750000
 20
10373.755153
 42
0.000314
  0
VERTEX
  8
0
 10
10424.032081
 20
10373.954631
 42
0.004586
  0
VERTEX
  8
0
 10
10444.963358
 20
10374.230220
 42
0.004995
  0
VERTEX
  8
0
 10
10456.826111
 20
10374.613841
 42
0.401873
  0
VERTEX
  8
0
 10
10458.000000
 20
10375.838486
 42
-0.056250
  0
VERTEX
  8
0
 10
10458.159574
 20
10377.252441
 42
-0.119548
  0
VERTEX
  8
0
 10
10458.648066
 20
10378.231673
 42
-0.135741
  0
VERTEX
  8
0
 10
10459.481890
 20
10378.802452
 42
-0.082798
  0
VERTEX
  8
0
 10
10460.666667
 20
10379.000000
 42
-0.320274
  0
VERTEX
  8
0
 10
10461.326252
 20
10378.529213
 42
-0.049650
  0
VERTEX
  8
0
 10
10461.716667
 20
10376.875000
 42
-0.027282
  0
VERTEX
  8
0
 10
10461.941376
 20
10373.999959
 42
-0.005862
  0
SEQEND
  0
POLYLINE
  8
0
 66
1
 70
1
  0
VERTEX
  8
0
 10
10513.217049
 20
10463.709387
 42
0.002291
  0
VERTEX
  8
0
 10
10510.818080
 20
10457.023604
 42
0.003479
  0
VERTEX
  8
0
 10
10508.799897
 20
10451.188070
 42
0.001321
  0
VERTEX
  8
0
 10
10507.114848
 20
10446.160032
 42
0.085098
  0
VERTEX
  8
0
 10
10506.976437
 20
10445.250000
 42
0.348657
  0
VERTEX
  8
0
 10
10507.489557
 20
10444.628041
 42
0.027646
  0
VERTEX
  8
0
 10
10509.749520
 20
10444.275471
 42
0.020086
  0
VERTEX
  8
0
 10
10513.405607
 20
10444.058353
 42
0.004787
  0
VERTEX
  8
0
 10
10519.500000
 20
10444.000000
 42
0.005618
  0
VERTEX
  8
0
 10
10524.292974
 20
10444.053859
 42
0.009348
  0
VERTEX
  8
0
 10
10528.328125
 20
10444.220073
 42
0.003470
  0
VERTEX
  8
0
 10
10531.719268
 20
10444.446948
 42
0.392776
  0
VERTEX
  8
0
 10
10532.000000
 20
10444.749185
 42
0.080579
  0
VERTEX
  8
0
 10
10531.717015
 20
10446.493731
 42
0.000439
  0
VERTEX
  8
0
 10
10526.311742
 20
10462.669164
 42
0.000355
  0
VERTEX
  8
0
 10
10520.833480
 20
10478.976859
 42
0.101595
  0
VERTEX
  8
0
 10
10520.115798
 20
10480.209387
 42
0.548169
  0
VERTEX
  8
0
 10
10519.732042
 20
10480.146723
 42
0.002511
  0
VERTEX
  8
0
 10
10517.827529
 20
10475.655134
 42
0.007434
  0
VERTEX
  8
0
 10
10515.665066
 20
10470.259037
 42
0.004298
  0
SEQEND
  0
ENDSEC
  0
EOF
