solid CATIA STL
  facet normal  -0.000000e+000  0.000000e+000  9.999999e-001
    outer loop
      vertex  1.338372e+001  6.941531e+001  4.000000e-001
      vertex -3.761628e+001  6.941531e+001  4.000000e-001
      vertex  1.490319e+001  6.937680e+001  4.000000e-001
    endloop
  endfacet
  facet normal  0.000000e+000  0.000000e+000  1.000000e+000
    outer loop
      vertex  1.490319e+001  6.937680e+001  4.000000e-001
      vertex -3.761628e+001  6.941531e+001  4.000000e-001
      vertex -3.913575e+001  6.937680e+001  4.000000e-001
    endloop
  endfacet
  facet normal  -0.000000e+000  0.000000e+000  1.000000e+000
    outer loop
      vertex  1.490319e+001  6.937680e+001  4.000000e-001
      vertex -3.913575e+001  6.937680e+001  4.000000e-001
      vertex  1.641877e+001  6.926138e+001  4.000000e-001
    endloop
  endfacet
  facet normal  0.000000e+000  0.000000e+000  1.000000e+000
    outer loop
      vertex  1.641877e+001  6.926138e+001  4.000000e-001
      vertex -3.913575e+001  6.937680e+001  4.000000e-001
      vertex -4.065133e+001  6.926138e+001  4.000000e-001
    endloop
  endfacet
  facet normal  -0.000000e+000  0.000000e+000  1.000000e+000
    outer loop
      vertex  1.641877e+001  6.926138e+001  4.000000e-001
      vertex -4.065133e+001  6.926138e+001  4.000000e-001
      vertex  1.792655e+001  6.906936e+001  4.000000e-001
    endloop
  endfacet
  facet normal  0.000000e+000  0.000000e+000  9.999999e-001
    outer loop
      vertex  1.792655e+001  6.906936e+001  4.000000e-001
      vertex -4.065133e+001  6.926138e+001  4.000000e-001
      vertex -4.215911e+001  6.906936e+001  4.000000e-001
    endloop
  endfacet
  facet normal  -0.000000e+000  0.000000e+000  1.000000e+000
    outer loop
      vertex  1.792655e+001  6.906936e+001  4.000000e-001
      vertex -4.215911e+001  6.906936e+001  4.000000e-001
      vertex  1.942268e+001  6.880120e+001  4.000000e-001
    endloop
  endfacet
  facet normal  0.000000e+000  0.000000e+000  1.000000e+000
    outer loop
      vertex  1.942268e+001  6.880120e+001  4.000000e-001
      vertex -4.215911e+001  6.906936e+001  4.000000e-001
      vertex -4.365524e+001  6.880120e+001  4.000000e-001
    endloop
  endfacet
  facet normal  -0.000000e+000  0.000000e+000  1.000000e+000
    outer loop
      vertex  1.942268e+001  6.880120e+001  4.000000e-001
      vertex -4.365524e+001  6.880120e+001  4.000000e-001
      vertex  2.090330e+001  6.845762e+001  4.000000e-001
    endloop
  endfacet
  facet normal  0.000000e+000  0.000000e+000  1.000000e+000
    outer loop
      vertex  2.090330e+001  6.845762e+001  4.000000e-001
      vertex -4.365524e+001  6.880120e+001  4.000000e-001
      vertex -4.513586e+001  6.845762e+001  4.000000e-001
    endloop
  endfacet
  facet normal  -0.000000e+000  0.000000e+000  1.000000e+000
    outer loop
      vertex  2.090330e+001  6.845762e+001  4.000000e-001
      vertex -4.513586e+001  6.845762e+001  4.000000e-001
      vertex  2.236461e+001  6.803948e+001  4.000000e-001
    endloop
  endfacet
  facet normal  0.000000e+000  0.000000e+000  1.000000e+000
    outer loop
      vertex  2.236461e+001  6.803948e+001  4.000000e-001
      vertex -4.513586e+001  6.845762e+001  4.000000e-001
      vertex -4.659718e+001  6.803948e+001  4.000000e-001
    endloop
  endfacet
  facet normal  -0.000000e+000  0.000000e+000  1.000000e+000
    outer loop
      vertex  2.236461e+001  6.803948e+001  4.000000e-001
      vertex -4.659718e+001  6.803948e+001  4.000000e-001
      vertex  2.380288e+001  6.754787e+001  4.000000e-001
    endloop
  endfacet
  facet normal  0.000000e+000  0.000000e+000  1.000000e+000
    outer loop
      vertex  2.380288e+001  6.754787e+001  4.000000e-001
      vertex -4.659718e+001  6.803948e+001  4.000000e-001
      vertex -4.803544e+001  6.754787e+001  4.000000e-001
    endloop
  endfacet
  facet normal  -0.000000e+000  0.000000e+000  1.000000e+000
    outer loop
      vertex  2.380288e+001  6.754787e+001  4.000000e-001
      vertex -4.803544e+001  6.754787e+001  4.000000e-001
      vertex  2.521440e+001  6.698404e+001  4.000000e-001
    endloop
  endfacet
  facet normal  0.000000e+000  0.000000e+000  1.000000e+000
    outer loop
      vertex  2.521440e+001  6.698404e+001  4.000000e-001
      vertex -4.803544e+001  6.754787e+001  4.000000e-001
      vertex -4.944696e+001  6.698404e+001  4.000000e-001
    endloop
  endfacet
  facet normal  -0.000000e+000  0.000000e+000  1.000000e+000
    outer loop
      vertex  2.521440e+001  6.698404e+001  4.000000e-001
      vertex -4.944696e+001  6.698404e+001  4.000000e-001
      vertex  2.659554e+001  6.634944e+001  4.000000e-001
    endloop
  endfacet
  facet normal  0.000000e+000  0.000000e+000  1.000000e+000
    outer loop
      vertex  2.659554e+001  6.634944e+001  4.000000e-001
      vertex -4.944696e+001  6.698404e+001  4.000000e-001
      vertex -5.082811e+001  6.634944e+001  4.000000e-001
    endloop
  endfacet
  facet normal  -0.000000e+000  0.000000e+000  1.000000e+000
    outer loop
      vertex  2.659554e+001  6.634944e+001  4.000000e-001
      vertex -5.082811e+001  6.634944e+001  4.000000e-001
      vertex  2.794278e+001  6.564571e+001  4.000000e-001
    endloop
  endfacet
  facet normal  0.000000e+000  0.000000e+000  1.000000e+000
    outer loop
      vertex  2.794278e+001  6.564571e+001  4.000000e-001
      vertex -5.082811e+001  6.634944e+001  4.000000e-001
      vertex -5.217534e+001  6.564571e+001  4.000000e-001
    endloop
  endfacet
  facet normal  -0.000000e+000  0.000000e+000  1.000000e+000
    outer loop
      vertex  2.794278e+001  6.564571e+001  4.000000e-001
      vertex -5.217534e+001  6.564571e+001  4.000000e-001
      vertex  2.925264e+001  6.487463e+001  4.000000e-001
    endloop
  endfacet
  facet normal  0.000000e+000  0.000000e+000  9.999999e-001
    outer loop
      vertex  2.925264e+001  6.487463e+001  4.000000e-001
      vertex -5.217534e+001  6.564571e+001  4.000000e-001
      vertex -5.348520e+001  6.487463e+001  4.000000e-001
    endloop
  endfacet
  facet normal  -0.000000e+000  0.000000e+000  1.000000e+000
    outer loop
      vertex  2.925264e+001  6.487463e+001  4.000000e-001
      vertex -5.348520e+001  6.487463e+001  4.000000e-001
      vertex  3.052177e+001  6.403821e+001  4.000000e-001
    endloop
  endfacet
  facet normal  0.000000e+000  0.000000e+000  1.000000e+000
    outer loop
      vertex  3.052177e+001  6.403821e+001  4.000000e-001
      vertex -5.348520e+001  6.487463e+001  4.000000e-001
      vertex -5.475433e+001  6.403821e+001  4.000000e-001
    endloop
  endfacet
  facet normal  -0.000000e+000  0.000000e+000  1.000000e+000
    outer loop
      vertex  3.052177e+001  6.403821e+001  4.000000e-001
      vertex -5.475433e+001  6.403821e+001  4.000000e-001
      vertex  3.174690e+001  6.313858e+001  4.000000e-001
    endloop
  endfacet
  facet normal  0.000000e+000  0.000000e+000  1.000000e+000
    outer loop
      vertex  3.174690e+001  6.313858e+001  4.000000e-001
      vertex -5.475433e+001  6.403821e+001  4.000000e-001
      vertex -5.597946e+001  6.313858e+001  4.000000e-001
    endloop
  endfacet
  facet normal  -0.000000e+000  0.000000e+000  9.999999e-001
    outer loop
      vertex  3.174690e+001  6.313858e+001  4.000000e-001
      vertex -5.597946e+001  6.313858e+001  4.000000e-001
      vertex  3.292489e+001  6.217805e+001  4.000000e-001
    endloop
  endfacet
  facet normal  0.000000e+000  0.000000e+000  1.000000e+000
    outer loop
      vertex  3.292489e+001  6.217805e+001  4.000000e-001
      vertex -5.597946e+001  6.313858e+001  4.000000e-001
      vertex -5.715746e+001  6.217805e+001  4.000000e-001
    endloop
  endfacet
  facet normal  -0.000000e+000  0.000000e+000  1.000000e+000
    outer loop
      vertex  3.292489e+001  6.217805e+001  4.000000e-001
      vertex -5.715746e+001  6.217805e+001  4.000000e-001
      vertex  3.405273e+001  6.115909e+001  4.000000e-001
    endloop
  endfacet
  facet normal  0.000000e+000  0.000000e+000  1.000000e+000
    outer loop
      vertex  3.405273e+001  6.115909e+001  4.000000e-001
      vertex -5.715746e+001  6.217805e+001  4.000000e-001
      vertex -5.828529e+001  6.115909e+001  4.000000e-001
    endloop
  endfacet
  facet normal  -0.000000e+000  0.000000e+000  9.999999e-001
    outer loop
      vertex  3.405273e+001  6.115909e+001  4.000000e-001
      vertex -5.828529e+001  6.115909e+001  4.000000e-001
      vertex  3.512750e+001  6.008431e+001  4.000000e-001
    endloop
  endfacet
  facet normal  0.000000e+000  0.000000e+000  9.999999e-001
    outer loop
      vertex  3.512750e+001  6.008431e+001  4.000000e-001
      vertex -5.828529e+001  6.115909e+001  4.000000e-001
      vertex -5.936007e+001  6.008431e+001  4.000000e-001
    endloop
  endfacet
  facet normal  -0.000000e+000  0.000000e+000  1.000000e+000
    outer loop
      vertex  3.512750e+001  6.008431e+001  4.000000e-001
      vertex -5.936007e+001  6.008431e+001  4.000000e-001
      vertex  3.614646e+001  5.895648e+001  4.000000e-001
    endloop
  endfacet
  facet normal  0.000000e+000  0.000000e+000  9.999999e-001
    outer loop
      vertex  3.614646e+001  5.895648e+001  4.000000e-001
      vertex -5.936007e+001  6.008431e+001  4.000000e-001
      vertex -6.037902e+001  5.895648e+001  4.000000e-001
    endloop
  endfacet
  facet normal  -0.000000e+000  0.000000e+000  1.000000e+000
    outer loop
      vertex  3.614646e+001  5.895648e+001  4.000000e-001
      vertex -6.037902e+001  5.895648e+001  4.000000e-001
      vertex  3.710699e+001  5.777848e+001  4.000000e-001
    endloop
  endfacet
  facet normal  0.000000e+000  0.000000e+000  1.000000e+000
    outer loop
      vertex  3.710699e+001  5.777848e+001  4.000000e-001
      vertex -6.037902e+001  5.895648e+001  4.000000e-001
      vertex -6.133955e+001  5.777848e+001  4.000000e-001
    endloop
  endfacet
  facet normal  -0.000000e+000  0.000000e+000  1.000000e+000
    outer loop
      vertex  3.710699e+001  5.777848e+001  4.000000e-001
      vertex -6.133955e+001  5.777848e+001  4.000000e-001
      vertex  3.800662e+001  5.655335e+001  4.000000e-001
    endloop
  endfacet
  facet normal  0.000000e+000  0.000000e+000  1.000000e+000
    outer loop
      vertex  3.800662e+001  5.655335e+001  4.000000e-001
      vertex -6.133955e+001  5.777848e+001  4.000000e-001
      vertex -6.223919e+001  5.655335e+001  4.000000e-001
    endloop
  endfacet
  facet normal  -0.000000e+000  0.000000e+000  1.000000e+000
    outer loop
      vertex  3.800662e+001  5.655335e+001  4.000000e-001
      vertex -6.223919e+001  5.655335e+001  4.000000e-001
      vertex  3.884305e+001  5.528423e+001  4.000000e-001
    endloop
  endfacet
  facet normal  0.000000e+000  0.000000e+000  1.000000e+000
    outer loop
      vertex  3.884305e+001  5.528423e+001  4.000000e-001
      vertex -6.223919e+001  5.655335e+001  4.000000e-001
      vertex -6.307561e+001  5.528423e+001  4.000000e-001
    endloop
  endfacet
  facet normal  -0.000000e+000  0.000000e+000  1.000000e+000
    outer loop
      vertex  3.884305e+001  5.528423e+001  4.000000e-001
      vertex -6.307561e+001  5.528423e+001  4.000000e-001
      vertex  3.961412e+001  5.397437e+001  4.000000e-001
    endloop
  endfacet
  facet normal  0.000000e+000  0.000000e+000  1.000000e+000
    outer loop
      vertex  3.961412e+001  5.397437e+001  4.000000e-001
      vertex -6.307561e+001  5.528423e+001  4.000000e-001
      vertex -6.384668e+001  5.397437e+001  4.000000e-001
    endloop
  endfacet
  facet normal  -0.000000e+000  0.000000e+000  1.000000e+000
    outer loop
      vertex  3.961412e+001  5.397437e+001  4.000000e-001
      vertex -6.384668e+001  5.397437e+001  4.000000e-001
      vertex  4.031786e+001  5.262713e+001  4.000000e-001
    endloop
  endfacet
  facet normal  0.000000e+000  0.000000e+000  1.000000e+000
    outer loop
      vertex  4.031786e+001  5.262713e+001  4.000000e-001
      vertex -6.384668e+001  5.397437e+001  4.000000e-001
      vertex -6.455042e+001  5.262713e+001  4.000000e-001
    endloop
  endfacet
  facet normal  -0.000000e+000  0.000000e+000  1.000000e+000
    outer loop
      vertex  4.031786e+001  5.262713e+001  4.000000e-001
      vertex -6.455042e+001  5.262713e+001  4.000000e-001
      vertex  4.095245e+001  5.124598e+001  4.000000e-001
    endloop
  endfacet
  facet normal  0.000000e+000  0.000000e+000  1.000000e+000
    outer loop
      vertex  4.095245e+001  5.124598e+001  4.000000e-001
      vertex -6.455042e+001  5.262713e+001  4.000000e-001
      vertex -6.518501e+001  5.124598e+001  4.000000e-001
    endloop
  endfacet
  facet normal  -0.000000e+000  0.000000e+000  1.000000e+000
    outer loop
      vertex  4.095245e+001  5.124598e+001  4.000000e-001
      vertex -6.518501e+001  5.124598e+001  4.000000e-001
      vertex  4.151628e+001  4.983447e+001  4.000000e-001
    endloop
  endfacet
  facet normal  0.000000e+000  0.000000e+000  1.000000e+000
    outer loop
      vertex  4.151628e+001  4.983447e+001  4.000000e-001
      vertex -6.518501e+001  5.124598e+001  4.000000e-001
      vertex -6.574885e+001  4.983447e+001  4.000000e-001
    endloop
  endfacet
  facet normal  -0.000000e+000  0.000000e+000  1.000000e+000
    outer loop
      vertex  4.151628e+001  4.983447e+001  4.000000e-001
      vertex -6.574885e+001  4.983447e+001  4.000000e-001
      vertex  4.200790e+001  4.839620e+001  4.000000e-001
    endloop
  endfacet
  facet normal  0.000000e+000  0.000000e+000  9.999999e-001
    outer loop
      vertex  4.200790e+001  4.839620e+001  4.000000e-001
      vertex -6.574885e+001  4.983447e+001  4.000000e-001
      vertex -6.624046e+001  4.839620e+001  4.000000e-001
    endloop
  endfacet
  facet normal  -0.000000e+000  0.000000e+000  1.000000e+000
    outer loop
      vertex  4.200790e+001  4.839620e+001  4.000000e-001
      vertex -6.624046e+001  4.839620e+001  4.000000e-001
      vertex  4.242603e+001  4.693488e+001  4.000000e-001
    endloop
  endfacet
  facet normal  0.000000e+000  0.000000e+000  1.000000e+000
    outer loop
      vertex  4.242603e+001  4.693488e+001  4.000000e-001
      vertex -6.624046e+001  4.839620e+001  4.000000e-001
      vertex -6.665859e+001  4.693488e+001  4.000000e-001
    endloop
  endfacet
  facet normal  -0.000000e+000  0.000000e+000  1.000000e+000
    outer loop
      vertex  4.242603e+001  4.693488e+001  4.000000e-001
      vertex -6.665859e+001  4.693488e+001  4.000000e-001
      vertex  4.276962e+001  4.545426e+001  4.000000e-001
    endloop
  endfacet
  facet normal  0.000000e+000  0.000000e+000  1.000000e+000
    outer loop
      vertex  4.276962e+001  4.545426e+001  4.000000e-001
      vertex -6.665859e+001  4.693488e+001  4.000000e-001
      vertex -6.700218e+001  4.545426e+001  4.000000e-001
    endloop
  endfacet
  facet normal  -0.000000e+000  0.000000e+000  9.999999e-001
    outer loop
      vertex  4.276962e+001  4.545426e+001  4.000000e-001
      vertex -6.700218e+001  4.545426e+001  4.000000e-001
      vertex  4.303777e+001  4.395814e+001  4.000000e-001
    endloop
  endfacet
  facet normal  0.000000e+000  0.000000e+000  1.000000e+000
    outer loop
      vertex  4.303777e+001  4.395814e+001  4.000000e-001
      vertex -6.700218e+001  4.545426e+001  4.000000e-001
      vertex -6.727033e+001  4.395814e+001  4.000000e-001
    endloop
  endfacet
  facet normal  -0.000000e+000  0.000000e+000  1.000000e+000
    outer loop
      vertex  4.303777e+001  4.395814e+001  4.000000e-001
      vertex -6.727033e+001  4.395814e+001  4.000000e-001
      vertex  4.322980e+001  4.245036e+001  4.000000e-001
    endloop
  endfacet
  facet normal  0.000000e+000  0.000000e+000  1.000000e+000
    outer loop
      vertex  4.322980e+001  4.245036e+001  4.000000e-001
      vertex -6.727033e+001  4.395814e+001  4.000000e-001
      vertex -6.746236e+001  4.245036e+001  4.000000e-001
    endloop
  endfacet
  facet normal  -0.000000e+000  0.000000e+000  1.000000e+000
    outer loop
      vertex  4.322980e+001  4.245036e+001  4.000000e-001
      vertex -6.746236e+001  4.245036e+001  4.000000e-001
      vertex  4.334521e+001  4.093478e+001  4.000000e-001
    endloop
  endfacet
  facet normal  0.000000e+000  0.000000e+000  1.000000e+000
    outer loop
      vertex  4.334521e+001  4.093478e+001  4.000000e-001
      vertex -6.746236e+001  4.245036e+001  4.000000e-001
      vertex -6.757777e+001  4.093478e+001  4.000000e-001
    endloop
  endfacet
  facet normal  -0.000000e+000  0.000000e+000  9.999999e-001
    outer loop
      vertex  4.334521e+001  4.093478e+001  4.000000e-001
      vertex -6.757777e+001  4.093478e+001  4.000000e-001
      vertex  4.338372e+001  3.941531e+001  4.000000e-001
    endloop
  endfacet
  facet normal  0.000000e+000  0.000000e+000  1.000000e+000
    outer loop
      vertex  4.338372e+001  3.941531e+001  4.000000e-001
      vertex -6.757777e+001  4.093478e+001  4.000000e-001
      vertex -6.761628e+001  3.941531e+001  4.000000e-001
    endloop
  endfacet
  facet normal  -0.000000e+000  0.000000e+000  1.000000e+000
    outer loop
      vertex  4.338372e+001  3.941531e+001  4.000000e-001
      vertex -6.761628e+001  3.941531e+001  4.000000e-001
      vertex  4.338372e+001  1.041531e+001  4.000000e-001
    endloop
  endfacet
  facet normal  0.000000e+000  0.000000e+000  1.000000e+000
    outer loop
      vertex  4.338372e+001  1.041531e+001  4.000000e-001
      vertex -6.761628e+001  3.941531e+001  4.000000e-001
      vertex -6.761628e+001  1.041531e+001  4.000000e-001
    endloop
  endfacet
  facet normal  0.000000e+000  0.000000e+000 -9.999999e-001
    outer loop
      vertex  3.512750e+001  6.008431e+001  0.000000e+000
      vertex -5.828529e+001  6.115909e+001  0.000000e+000
      vertex  3.405273e+001  6.115909e+001  0.000000e+000
    endloop
  endfacet
  facet normal  0.000000e+000  0.000000e+000 -1.000000e+000
    outer loop
      vertex  3.405273e+001  6.115909e+001  0.000000e+000
      vertex -5.828529e+001  6.115909e+001  0.000000e+000
      vertex -5.715746e+001  6.217805e+001  0.000000e+000
    endloop
  endfacet
  facet normal  0.000000e+000  0.000000e+000 -1.000000e+000
    outer loop
      vertex  3.405273e+001  6.115909e+001  0.000000e+000
      vertex -5.715746e+001  6.217805e+001  0.000000e+000
      vertex  3.292489e+001  6.217805e+001  0.000000e+000
    endloop
  endfacet
  facet normal  0.000000e+000  0.000000e+000 -1.000000e+000
    outer loop
      vertex  3.292489e+001  6.217805e+001  0.000000e+000
      vertex -5.715746e+001  6.217805e+001  0.000000e+000
      vertex -5.597946e+001  6.313858e+001  0.000000e+000
    endloop
  endfacet
  facet normal  0.000000e+000  0.000000e+000 -9.999999e-001
    outer loop
      vertex  3.292489e+001  6.217805e+001  0.000000e+000
      vertex -5.597946e+001  6.313858e+001  0.000000e+000
      vertex  3.174690e+001  6.313858e+001  0.000000e+000
    endloop
  endfacet
  facet normal  0.000000e+000  0.000000e+000 -1.000000e+000
    outer loop
      vertex  3.174690e+001  6.313858e+001  0.000000e+000
      vertex -5.597946e+001  6.313858e+001  0.000000e+000
      vertex -5.475433e+001  6.403821e+001  0.000000e+000
    endloop
  endfacet
  facet normal  0.000000e+000  0.000000e+000 -1.000000e+000
    outer loop
      vertex  3.174690e+001  6.313858e+001  0.000000e+000
      vertex -5.475433e+001  6.403821e+001  0.000000e+000
      vertex  3.052177e+001  6.403821e+001  0.000000e+000
    endloop
  endfacet
  facet normal  0.000000e+000  0.000000e+000 -1.000000e+000
    outer loop
      vertex  3.052177e+001  6.403821e+001  0.000000e+000
      vertex -5.475433e+001  6.403821e+001  0.000000e+000
      vertex -5.348520e+001  6.487463e+001  0.000000e+000
    endloop
  endfacet
  facet normal  0.000000e+000  0.000000e+000 -1.000000e+000
    outer loop
      vertex  3.052177e+001  6.403821e+001  0.000000e+000
      vertex -5.348520e+001  6.487463e+001  0.000000e+000
      vertex  2.925264e+001  6.487463e+001  0.000000e+000
    endloop
  endfacet
  facet normal  0.000000e+000  0.000000e+000 -9.999999e-001
    outer loop
      vertex  2.925264e+001  6.487463e+001  0.000000e+000
      vertex -5.348520e+001  6.487463e+001  0.000000e+000
      vertex -5.217534e+001  6.564571e+001  0.000000e+000
    endloop
  endfacet
  facet normal  0.000000e+000  0.000000e+000 -1.000000e+000
    outer loop
      vertex  2.925264e+001  6.487463e+001  0.000000e+000
      vertex -5.217534e+001  6.564571e+001  0.000000e+000
      vertex  2.794278e+001  6.564571e+001  0.000000e+000
    endloop
  endfacet
  facet normal  0.000000e+000  0.000000e+000 -1.000000e+000
    outer loop
      vertex  2.794278e+001  6.564571e+001  0.000000e+000
      vertex -5.217534e+001  6.564571e+001  0.000000e+000
      vertex -5.082811e+001  6.634944e+001  0.000000e+000
    endloop
  endfacet
  facet normal  0.000000e+000  0.000000e+000 -1.000000e+000
    outer loop
      vertex  2.794278e+001  6.564571e+001  0.000000e+000
      vertex -5.082811e+001  6.634944e+001  0.000000e+000
      vertex  2.659554e+001  6.634944e+001  0.000000e+000
    endloop
  endfacet
  facet normal  0.000000e+000  0.000000e+000 -1.000000e+000
    outer loop
      vertex  2.659554e+001  6.634944e+001  0.000000e+000
      vertex -5.082811e+001  6.634944e+001  0.000000e+000
      vertex -4.944696e+001  6.698404e+001  0.000000e+000
    endloop
  endfacet
  facet normal  0.000000e+000  0.000000e+000 -1.000000e+000
    outer loop
      vertex  2.659554e+001  6.634944e+001  0.000000e+000
      vertex -4.944696e+001  6.698404e+001  0.000000e+000
      vertex  2.521440e+001  6.698404e+001  0.000000e+000
    endloop
  endfacet
  facet normal  0.000000e+000  0.000000e+000 -1.000000e+000
    outer loop
      vertex  2.521440e+001  6.698404e+001  0.000000e+000
      vertex -4.944696e+001  6.698404e+001  0.000000e+000
      vertex -4.803544e+001  6.754787e+001  0.000000e+000
    endloop
  endfacet
  facet normal  0.000000e+000  0.000000e+000 -1.000000e+000
    outer loop
      vertex  2.521440e+001  6.698404e+001  0.000000e+000
      vertex -4.803544e+001  6.754787e+001  0.000000e+000
      vertex  2.380288e+001  6.754787e+001  0.000000e+000
    endloop
  endfacet
  facet normal  0.000000e+000  0.000000e+000 -1.000000e+000
    outer loop
      vertex  2.380288e+001  6.754787e+001  0.000000e+000
      vertex -4.803544e+001  6.754787e+001  0.000000e+000
      vertex -4.659718e+001  6.803948e+001  0.000000e+000
    endloop
  endfacet
  facet normal  0.000000e+000  0.000000e+000 -1.000000e+000
    outer loop
      vertex  2.380288e+001  6.754787e+001  0.000000e+000
      vertex -4.659718e+001  6.803948e+001  0.000000e+000
      vertex  2.236461e+001  6.803948e+001  0.000000e+000
    endloop
  endfacet
  facet normal  0.000000e+000  0.000000e+000 -1.000000e+000
    outer loop
      vertex  2.236461e+001  6.803948e+001  0.000000e+000
      vertex -4.659718e+001  6.803948e+001  0.000000e+000
      vertex -4.513586e+001  6.845762e+001  0.000000e+000
    endloop
  endfacet
  facet normal  0.000000e+000  0.000000e+000 -1.000000e+000
    outer loop
      vertex  2.236461e+001  6.803948e+001  0.000000e+000
      vertex -4.513586e+001  6.845762e+001  0.000000e+000
      vertex  2.090330e+001  6.845762e+001  0.000000e+000
    endloop
  endfacet
  facet normal  0.000000e+000  0.000000e+000 -1.000000e+000
    outer loop
      vertex  2.090330e+001  6.845762e+001  0.000000e+000
      vertex -4.513586e+001  6.845762e+001  0.000000e+000
      vertex -4.365524e+001  6.880120e+001  0.000000e+000
    endloop
  endfacet
  facet normal  0.000000e+000  0.000000e+000 -1.000000e+000
    outer loop
      vertex  2.090330e+001  6.845762e+001  0.000000e+000
      vertex -4.365524e+001  6.880120e+001  0.000000e+000
      vertex  1.942268e+001  6.880120e+001  0.000000e+000
    endloop
  endfacet
  facet normal  0.000000e+000  0.000000e+000 -1.000000e+000
    outer loop
      vertex  1.942268e+001  6.880120e+001  0.000000e+000
      vertex -4.365524e+001  6.880120e+001  0.000000e+000
      vertex -4.215911e+001  6.906936e+001  0.000000e+000
    endloop
  endfacet
  facet normal  0.000000e+000  0.000000e+000 -1.000000e+000
    outer loop
      vertex  1.942268e+001  6.880120e+001  0.000000e+000
      vertex -4.215911e+001  6.906936e+001  0.000000e+000
      vertex  1.792655e+001  6.906936e+001  0.000000e+000
    endloop
  endfacet
  facet normal  0.000000e+000  0.000000e+000 -9.999999e-001
    outer loop
      vertex  1.792655e+001  6.906936e+001  0.000000e+000
      vertex -4.215911e+001  6.906936e+001  0.000000e+000
      vertex -4.065133e+001  6.926138e+001  0.000000e+000
    endloop
  endfacet
  facet normal  0.000000e+000  0.000000e+000 -1.000000e+000
    outer loop
      vertex  1.792655e+001  6.906936e+001  0.000000e+000
      vertex -4.065133e+001  6.926138e+001  0.000000e+000
      vertex  1.641877e+001  6.926138e+001  0.000000e+000
    endloop
  endfacet
  facet normal  0.000000e+000  0.000000e+000 -1.000000e+000
    outer loop
      vertex  1.641877e+001  6.926138e+001  0.000000e+000
      vertex -4.065133e+001  6.926138e+001  0.000000e+000
      vertex -3.913575e+001  6.937680e+001  0.000000e+000
    endloop
  endfacet
  facet normal  0.000000e+000  0.000000e+000 -1.000000e+000
    outer loop
      vertex  1.641877e+001  6.926138e+001  0.000000e+000
      vertex -3.913575e+001  6.937680e+001  0.000000e+000
      vertex  1.490319e+001  6.937680e+001  0.000000e+000
    endloop
  endfacet
  facet normal  0.000000e+000  0.000000e+000 -1.000000e+000
    outer loop
      vertex  1.490319e+001  6.937680e+001  0.000000e+000
      vertex -3.913575e+001  6.937680e+001  0.000000e+000
      vertex -3.761628e+001  6.941531e+001  0.000000e+000
    endloop
  endfacet
  facet normal  0.000000e+000  0.000000e+000 -9.999999e-001
    outer loop
      vertex  1.490319e+001  6.937680e+001  0.000000e+000
      vertex -3.761628e+001  6.941531e+001  0.000000e+000
      vertex  1.338372e+001  6.941531e+001  0.000000e+000
    endloop
  endfacet
  facet normal  0.000000e+000  0.000000e+000 -9.999999e-001
    outer loop
      vertex -5.828529e+001  6.115909e+001  0.000000e+000
      vertex  3.512750e+001  6.008431e+001  0.000000e+000
      vertex -5.936007e+001  6.008431e+001  0.000000e+000
    endloop
  endfacet
  facet normal  0.000000e+000  0.000000e+000 -1.000000e+000
    outer loop
      vertex -5.936007e+001  6.008431e+001  0.000000e+000
      vertex  3.512750e+001  6.008431e+001  0.000000e+000
      vertex  3.614646e+001  5.895648e+001  0.000000e+000
    endloop
  endfacet
  facet normal  0.000000e+000  0.000000e+000 -9.999999e-001
    outer loop
      vertex -5.936007e+001  6.008431e+001  0.000000e+000
      vertex  3.614646e+001  5.895648e+001  0.000000e+000
      vertex -6.037902e+001  5.895648e+001  0.000000e+000
    endloop
  endfacet
  facet normal  0.000000e+000  0.000000e+000 -1.000000e+000
    outer loop
      vertex -6.037902e+001  5.895648e+001  0.000000e+000
      vertex  3.614646e+001  5.895648e+001  0.000000e+000
      vertex  3.710699e+001  5.777848e+001  0.000000e+000
    endloop
  endfacet
  facet normal  0.000000e+000  0.000000e+000 -1.000000e+000
    outer loop
      vertex -6.037902e+001  5.895648e+001  0.000000e+000
      vertex  3.710699e+001  5.777848e+001  0.000000e+000
      vertex -6.133955e+001  5.777848e+001  0.000000e+000
    endloop
  endfacet
  facet normal  0.000000e+000  0.000000e+000 -1.000000e+000
    outer loop
      vertex -6.133955e+001  5.777848e+001  0.000000e+000
      vertex  3.710699e+001  5.777848e+001  0.000000e+000
      vertex  3.800662e+001  5.655335e+001  0.000000e+000
    endloop
  endfacet
  facet normal  0.000000e+000  0.000000e+000 -1.000000e+000
    outer loop
      vertex -6.133955e+001  5.777848e+001  0.000000e+000
      vertex  3.800662e+001  5.655335e+001  0.000000e+000
      vertex -6.223919e+001  5.655335e+001  0.000000e+000
    endloop
  endfacet
  facet normal  0.000000e+000  0.000000e+000 -1.000000e+000
    outer loop
      vertex -6.223919e+001  5.655335e+001  0.000000e+000
      vertex  3.800662e+001  5.655335e+001  0.000000e+000
      vertex  3.884305e+001  5.528423e+001  0.000000e+000
    endloop
  endfacet
  facet normal  0.000000e+000  0.000000e+000 -1.000000e+000
    outer loop
      vertex -6.223919e+001  5.655335e+001  0.000000e+000
      vertex  3.884305e+001  5.528423e+001  0.000000e+000
      vertex -6.307561e+001  5.528423e+001  0.000000e+000
    endloop
  endfacet
  facet normal  0.000000e+000  0.000000e+000 -1.000000e+000
    outer loop
      vertex -6.307561e+001  5.528423e+001  0.000000e+000
      vertex  3.884305e+001  5.528423e+001  0.000000e+000
      vertex  3.961412e+001  5.397437e+001  0.000000e+000
    endloop
  endfacet
  facet normal  0.000000e+000  0.000000e+000 -1.000000e+000
    outer loop
      vertex -6.307561e+001  5.528423e+001  0.000000e+000
      vertex  3.961412e+001  5.397437e+001  0.000000e+000
      vertex -6.384668e+001  5.397437e+001  0.000000e+000
    endloop
  endfacet
  facet normal  0.000000e+000  0.000000e+000 -1.000000e+000
    outer loop
      vertex -6.384668e+001  5.397437e+001  0.000000e+000
      vertex  3.961412e+001  5.397437e+001  0.000000e+000
      vertex  4.031786e+001  5.262713e+001  0.000000e+000
    endloop
  endfacet
  facet normal  -0.000000e+000  0.000000e+000 -1.000000e+000
    outer loop
      vertex -6.384668e+001  5.397437e+001  0.000000e+000
      vertex  4.031786e+001  5.262713e+001  0.000000e+000
      vertex -6.455042e+001  5.262713e+001  0.000000e+000
    endloop
  endfacet
  facet normal  0.000000e+000  0.000000e+000 -1.000000e+000
    outer loop
      vertex -6.455042e+001  5.262713e+001  0.000000e+000
      vertex  4.031786e+001  5.262713e+001  0.000000e+000
      vertex  4.095245e+001  5.124598e+001  0.000000e+000
    endloop
  endfacet
  facet normal  0.000000e+000  0.000000e+000 -1.000000e+000
    outer loop
      vertex -6.455042e+001  5.262713e+001  0.000000e+000
      vertex  4.095245e+001  5.124598e+001  0.000000e+000
      vertex -6.518501e+001  5.124598e+001  0.000000e+000
    endloop
  endfacet
  facet normal  0.000000e+000  0.000000e+000 -1.000000e+000
    outer loop
      vertex -6.518501e+001  5.124598e+001  0.000000e+000
      vertex  4.095245e+001  5.124598e+001  0.000000e+000
      vertex  4.151628e+001  4.983447e+001  0.000000e+000
    endloop
  endfacet
  facet normal  0.000000e+000  0.000000e+000 -1.000000e+000
    outer loop
      vertex -6.518501e+001  5.124598e+001  0.000000e+000
      vertex  4.151628e+001  4.983447e+001  0.000000e+000
      vertex -6.574885e+001  4.983447e+001  0.000000e+000
    endloop
  endfacet
  facet normal  0.000000e+000  0.000000e+000 -1.000000e+000
    outer loop
      vertex -6.574885e+001  4.983447e+001  0.000000e+000
      vertex  4.151628e+001  4.983447e+001  0.000000e+000
      vertex  4.200790e+001  4.839620e+001  0.000000e+000
    endloop
  endfacet
  facet normal  0.000000e+000  0.000000e+000 -9.999999e-001
    outer loop
      vertex -6.574885e+001  4.983447e+001  0.000000e+000
      vertex  4.200790e+001  4.839620e+001  0.000000e+000
      vertex -6.624046e+001  4.839620e+001  0.000000e+000
    endloop
  endfacet
  facet normal  0.000000e+000  0.000000e+000 -1.000000e+000
    outer loop
      vertex -6.624046e+001  4.839620e+001  0.000000e+000
      vertex  4.200790e+001  4.839620e+001  0.000000e+000
      vertex  4.242603e+001  4.693488e+001  0.000000e+000
    endloop
  endfacet
  facet normal  0.000000e+000  0.000000e+000 -1.000000e+000
    outer loop
      vertex -6.624046e+001  4.839620e+001  0.000000e+000
      vertex  4.242603e+001  4.693488e+001  0.000000e+000
      vertex -6.665859e+001  4.693488e+001  0.000000e+000
    endloop
  endfacet
  facet normal  0.000000e+000  0.000000e+000 -1.000000e+000
    outer loop
      vertex -6.665859e+001  4.693488e+001  0.000000e+000
      vertex  4.242603e+001  4.693488e+001  0.000000e+000
      vertex  4.276962e+001  4.545426e+001  0.000000e+000
    endloop
  endfacet
  facet normal  0.000000e+000  0.000000e+000 -1.000000e+000
    outer loop
      vertex -6.665859e+001  4.693488e+001  0.000000e+000
      vertex  4.276962e+001  4.545426e+001  0.000000e+000
      vertex -6.700218e+001  4.545426e+001  0.000000e+000
    endloop
  endfacet
  facet normal  0.000000e+000  0.000000e+000 -9.999999e-001
    outer loop
      vertex -6.700218e+001  4.545426e+001  0.000000e+000
      vertex  4.276962e+001  4.545426e+001  0.000000e+000
      vertex  4.303777e+001  4.395814e+001  0.000000e+000
    endloop
  endfacet
  facet normal  -0.000000e+000  0.000000e+000 -1.000000e+000
    outer loop
      vertex -6.700218e+001  4.545426e+001  0.000000e+000
      vertex  4.303777e+001  4.395814e+001  0.000000e+000
      vertex -6.727033e+001  4.395814e+001  0.000000e+000
    endloop
  endfacet
  facet normal  0.000000e+000  0.000000e+000 -1.000000e+000
    outer loop
      vertex -6.727033e+001  4.395814e+001  0.000000e+000
      vertex  4.303777e+001  4.395814e+001  0.000000e+000
      vertex  4.322980e+001  4.245036e+001  0.000000e+000
    endloop
  endfacet
  facet normal  0.000000e+000  0.000000e+000 -1.000000e+000
    outer loop
      vertex -6.727033e+001  4.395814e+001  0.000000e+000
      vertex  4.322980e+001  4.245036e+001  0.000000e+000
      vertex -6.746236e+001  4.245036e+001  0.000000e+000
    endloop
  endfacet
  facet normal  0.000000e+000  0.000000e+000 -1.000000e+000
    outer loop
      vertex -6.746236e+001  4.245036e+001  0.000000e+000
      vertex  4.322980e+001  4.245036e+001  0.000000e+000
      vertex  4.334521e+001  4.093478e+001  0.000000e+000
    endloop
  endfacet
  facet normal  0.000000e+000  0.000000e+000 -1.000000e+000
    outer loop
      vertex -6.746236e+001  4.245036e+001  0.000000e+000
      vertex  4.334521e+001  4.093478e+001  0.000000e+000
      vertex -6.757777e+001  4.093478e+001  0.000000e+000
    endloop
  endfacet
  facet normal  0.000000e+000  0.000000e+000 -9.999999e-001
    outer loop
      vertex -6.757777e+001  4.093478e+001  0.000000e+000
      vertex  4.334521e+001  4.093478e+001  0.000000e+000
      vertex  4.338372e+001  3.941531e+001  0.000000e+000
    endloop
  endfacet
  facet normal  0.000000e+000  0.000000e+000 -1.000000e+000
    outer loop
      vertex -6.757777e+001  4.093478e+001  0.000000e+000
      vertex  4.338372e+001  3.941531e+001  0.000000e+000
      vertex -6.761628e+001  3.941531e+001  0.000000e+000
    endloop
  endfacet
  facet normal  0.000000e+000  0.000000e+000 -1.000000e+000
    outer loop
      vertex -6.761628e+001  3.941531e+001  0.000000e+000
      vertex  4.338372e+001  3.941531e+001  0.000000e+000
      vertex  4.338372e+001  1.041531e+001  0.000000e+000
    endloop
  endfacet
  facet normal  0.000000e+000  0.000000e+000 -1.000000e+000
    outer loop
      vertex -6.761628e+001  3.941531e+001  0.000000e+000
      vertex  4.338372e+001  1.041531e+001  0.000000e+000
      vertex -6.761628e+001  1.041531e+001  0.000000e+000
    endloop
  endfacet
  facet normal -9.999999e-001  0.000000e+000  0.000000e+000
    outer loop
      vertex -6.761628e+001  3.941531e+001  4.000000e-001
      vertex -6.761628e+001  3.941531e+001  0.000000e+000
      vertex -6.761628e+001  1.041531e+001  4.000000e-001
    endloop
  endfacet
  facet normal -9.999999e-001  0.000000e+000  0.000000e+000
    outer loop
      vertex -6.761628e+001  1.041531e+001  4.000000e-001
      vertex -6.761628e+001  3.941531e+001  0.000000e+000
      vertex -6.761628e+001  1.041531e+001  0.000000e+000
    endloop
  endfacet
  facet normal -9.996790e-001  2.533324e-002  0.000000e+000
    outer loop
      vertex -6.761628e+001  3.941531e+001  0.000000e+000
      vertex -6.761628e+001  3.941531e+001  4.000000e-001
      vertex -6.757777e+001  4.093478e+001  0.000000e+000
    endloop
  endfacet
  facet normal -9.996790e-001  2.533324e-002  0.000000e+000
    outer loop
      vertex -6.757777e+001  4.093478e+001  0.000000e+000
      vertex -6.761628e+001  3.941531e+001  4.000000e-001
      vertex -6.757777e+001  4.093478e+001  4.000000e-001
    endloop
  endfacet
  facet normal -9.971128e-001  7.593436e-002  0.000000e+000
    outer loop
      vertex -6.757777e+001  4.093478e+001  0.000000e+000
      vertex -6.757777e+001  4.093478e+001  4.000000e-001
      vertex -6.746236e+001  4.245036e+001  0.000000e+000
    endloop
  endfacet
  facet normal -9.971128e-001  7.593436e-002  0.000000e+000
    outer loop
      vertex -6.746236e+001  4.245036e+001  0.000000e+000
      vertex -6.757777e+001  4.093478e+001  4.000000e-001
      vertex -6.746236e+001  4.245036e+001  4.000000e-001
    endloop
  endfacet
  facet normal -9.919877e-001  1.263350e-001  0.000000e+000
    outer loop
      vertex -6.746236e+001  4.245036e+001  0.000000e+000
      vertex -6.746236e+001  4.245036e+001  4.000000e-001
      vertex -6.727033e+001  4.395814e+001  0.000000e+000
    endloop
  endfacet
  facet normal -9.919877e-001  1.263350e-001  0.000000e+000
    outer loop
      vertex -6.727033e+001  4.395814e+001  0.000000e+000
      vertex -6.746236e+001  4.245036e+001  4.000000e-001
      vertex -6.727033e+001  4.395814e+001  4.000000e-001
    endloop
  endfacet
  facet normal -9.843152e-001  1.764188e-001  0.000000e+000
    outer loop
      vertex -6.727033e+001  4.395814e+001  0.000000e+000
      vertex -6.727033e+001  4.395814e+001  4.000000e-001
      vertex -6.700218e+001  4.545426e+001  0.000000e+000
    endloop
  endfacet
  facet normal -9.843152e-001  1.764188e-001  0.000000e+000
    outer loop
      vertex -6.700218e+001  4.545426e+001  0.000000e+000
      vertex -6.727033e+001  4.395814e+001  4.000000e-001
      vertex -6.700218e+001  4.545426e+001  4.000000e-001
    endloop
  endfacet
  facet normal -9.741154e-001  2.260511e-001  0.000000e+000
    outer loop
      vertex -6.700218e+001  4.545426e+001  0.000000e+000
      vertex -6.700218e+001  4.545426e+001  4.000000e-001
      vertex -6.665859e+001  4.693488e+001  0.000000e+000
    endloop
  endfacet
  facet normal -9.741154e-001  2.260511e-001  0.000000e+000
    outer loop
      vertex -6.665859e+001  4.693488e+001  0.000000e+000
      vertex -6.700218e+001  4.545426e+001  4.000000e-001
      vertex -6.665859e+001  4.693488e+001  4.000000e-001
    endloop
  endfacet
  facet normal -9.614164e-001  2.750970e-001  0.000000e+000
    outer loop
      vertex -6.665859e+001  4.693488e+001  0.000000e+000
      vertex -6.665859e+001  4.693488e+001  4.000000e-001
      vertex -6.624046e+001  4.839620e+001  0.000000e+000
    endloop
  endfacet
  facet normal -9.614164e-001  2.750970e-001  0.000000e+000
    outer loop
      vertex -6.624046e+001  4.839620e+001  0.000000e+000
      vertex -6.665859e+001  4.693488e+001  4.000000e-001
      vertex -6.624046e+001  4.839620e+001  4.000000e-001
    endloop
  endfacet
  facet normal -9.462508e-001  3.234338e-001  0.000000e+000
    outer loop
      vertex -6.624046e+001  4.839620e+001  0.000000e+000
      vertex -6.624046e+001  4.839620e+001  4.000000e-001
      vertex -6.574885e+001  4.983447e+001  0.000000e+000
    endloop
  endfacet
  facet normal -9.462508e-001  3.234338e-001  0.000000e+000
    outer loop
      vertex -6.574885e+001  4.983447e+001  0.000000e+000
      vertex -6.624046e+001  4.839620e+001  4.000000e-001
      vertex -6.574885e+001  4.983447e+001  4.000000e-001
    endloop
  endfacet
  facet normal -9.286518e-001  3.709528e-001  0.000000e+000
    outer loop
      vertex -6.574885e+001  4.983447e+001  0.000000e+000
      vertex -6.574885e+001  4.983447e+001  4.000000e-001
      vertex -6.518501e+001  5.124598e+001  0.000000e+000
    endloop
  endfacet
  facet normal -9.286518e-001  3.709528e-001  0.000000e+000
    outer loop
      vertex -6.518501e+001  5.124598e+001  0.000000e+000
      vertex -6.574885e+001  4.983447e+001  4.000000e-001
      vertex -6.518501e+001  5.124598e+001  4.000000e-001
    endloop
  endfacet
  facet normal -9.086725e-001  4.175096e-001  0.000000e+000
    outer loop
      vertex -6.518501e+001  5.124598e+001  0.000000e+000
      vertex -6.518501e+001  5.124598e+001  4.000000e-001
      vertex -6.455042e+001  5.262713e+001  0.000000e+000
    endloop
  endfacet
  facet normal -9.086725e-001  4.175096e-001  0.000000e+000
    outer loop
      vertex -6.455042e+001  5.262713e+001  0.000000e+000
      vertex -6.518501e+001  5.124598e+001  4.000000e-001
      vertex -6.455042e+001  5.262713e+001  4.000000e-001
    endloop
  endfacet
  facet normal -8.863611e-001  4.629948e-001  0.000000e+000
    outer loop
      vertex -6.455042e+001  5.262713e+001  0.000000e+000
      vertex -6.455042e+001  5.262713e+001  4.000000e-001
      vertex -6.384668e+001  5.397437e+001  0.000000e+000
    endloop
  endfacet
  facet normal -8.863611e-001  4.629948e-001  0.000000e+000
    outer loop
      vertex -6.384668e+001  5.397437e+001  0.000000e+000
      vertex -6.455042e+001  5.262713e+001  4.000000e-001
      vertex -6.384668e+001  5.397437e+001  4.000000e-001
    endloop
  endfacet
  facet normal -8.617713e-001  5.072969e-001  0.000000e+000
    outer loop
      vertex -6.384668e+001  5.397437e+001  0.000000e+000
      vertex -6.384668e+001  5.397437e+001  4.000000e-001
      vertex -6.307561e+001  5.528423e+001  0.000000e+000
    endloop
  endfacet
  facet normal -8.617713e-001  5.072969e-001  0.000000e+000
    outer loop
      vertex -6.307561e+001  5.528423e+001  0.000000e+000
      vertex -6.384668e+001  5.397437e+001  4.000000e-001
      vertex -6.307561e+001  5.528423e+001  4.000000e-001
    endloop
  endfacet
  facet normal -8.349728e-001  5.502914e-001  0.000000e+000
    outer loop
      vertex -6.307561e+001  5.528423e+001  0.000000e+000
      vertex -6.307561e+001  5.528423e+001  4.000000e-001
      vertex -6.223919e+001  5.655335e+001  0.000000e+000
    endloop
  endfacet
  facet normal -8.349728e-001  5.502914e-001  0.000000e+000
    outer loop
      vertex -6.223919e+001  5.655335e+001  0.000000e+000
      vertex -6.307561e+001  5.528423e+001  4.000000e-001
      vertex -6.223919e+001  5.655335e+001  4.000000e-001
    endloop
  endfacet
  facet normal -8.060279e-001  5.918775e-001  0.000000e+000
    outer loop
      vertex -6.223919e+001  5.655335e+001  0.000000e+000
      vertex -6.223919e+001  5.655335e+001  4.000000e-001
      vertex -6.133955e+001  5.777848e+001  0.000000e+000
    endloop
  endfacet
  facet normal -8.060279e-001  5.918775e-001  0.000000e+000
    outer loop
      vertex -6.133955e+001  5.777848e+001  0.000000e+000
      vertex -6.223919e+001  5.655335e+001  4.000000e-001
      vertex -6.133955e+001  5.777848e+001  4.000000e-001
    endloop
  endfacet
  facet normal -7.750160e-001  6.319416e-001  0.000000e+000
    outer loop
      vertex -6.133955e+001  5.777848e+001  0.000000e+000
      vertex -6.133955e+001  5.777848e+001  4.000000e-001
      vertex -6.037902e+001  5.895648e+001  0.000000e+000
    endloop
  endfacet
  facet normal -7.750160e-001  6.319416e-001  0.000000e+000
    outer loop
      vertex -6.037902e+001  5.895648e+001  0.000000e+000
      vertex -6.133955e+001  5.777848e+001  4.000000e-001
      vertex -6.037902e+001  5.895648e+001  4.000000e-001
    endloop
  endfacet
  facet normal -7.420132e-001  6.703853e-001  0.000000e+000
    outer loop
      vertex -6.037902e+001  5.895648e+001  0.000000e+000
      vertex -6.037902e+001  5.895648e+001  4.000000e-001
      vertex -5.936007e+001  6.008431e+001  0.000000e+000
    endloop
  endfacet
  facet normal -7.420132e-001  6.703853e-001  0.000000e+000
    outer loop
      vertex -5.936007e+001  6.008431e+001  0.000000e+000
      vertex -6.037902e+001  5.895648e+001  4.000000e-001
      vertex -5.936007e+001  6.008431e+001  4.000000e-001
    endloop
  endfacet
  facet normal -7.071068e-001  7.071068e-001  0.000000e+000
    outer loop
      vertex -5.936007e+001  6.008431e+001  0.000000e+000
      vertex -5.936007e+001  6.008431e+001  4.000000e-001
      vertex -5.828529e+001  6.115909e+001  0.000000e+000
    endloop
  endfacet
  facet normal -7.071068e-001  7.071068e-001  0.000000e+000
    outer loop
      vertex -5.828529e+001  6.115909e+001  0.000000e+000
      vertex -5.936007e+001  6.008431e+001  4.000000e-001
      vertex -5.828529e+001  6.115909e+001  4.000000e-001
    endloop
  endfacet
  facet normal -6.703854e-001  7.420130e-001  0.000000e+000
    outer loop
      vertex -5.828529e+001  6.115909e+001  0.000000e+000
      vertex -5.828529e+001  6.115909e+001  4.000000e-001
      vertex -5.715746e+001  6.217805e+001  0.000000e+000
    endloop
  endfacet
  facet normal -6.703854e-001  7.420130e-001  0.000000e+000
    outer loop
      vertex -5.715746e+001  6.217805e+001  0.000000e+000
      vertex -5.828529e+001  6.115909e+001  4.000000e-001
      vertex -5.715746e+001  6.217805e+001  4.000000e-001
    endloop
  endfacet
  facet normal -6.319413e-001  7.750163e-001  0.000000e+000
    outer loop
      vertex -5.715746e+001  6.217805e+001  0.000000e+000
      vertex -5.715746e+001  6.217805e+001  4.000000e-001
      vertex -5.597946e+001  6.313858e+001  0.000000e+000
    endloop
  endfacet
  facet normal -6.319413e-001  7.750163e-001  0.000000e+000
    outer loop
      vertex -5.597946e+001  6.313858e+001  0.000000e+000
      vertex -5.715746e+001  6.217805e+001  4.000000e-001
      vertex -5.597946e+001  6.313858e+001  4.000000e-001
    endloop
  endfacet
  facet normal -5.918763e-001  8.060288e-001  0.000000e+000
    outer loop
      vertex -5.597946e+001  6.313858e+001  0.000000e+000
      vertex -5.597946e+001  6.313858e+001  4.000000e-001
      vertex -5.475433e+001  6.403821e+001  0.000000e+000
    endloop
  endfacet
  facet normal -5.918763e-001  8.060288e-001  0.000000e+000
    outer loop
      vertex -5.475433e+001  6.403821e+001  0.000000e+000
      vertex -5.597946e+001  6.313858e+001  4.000000e-001
      vertex -5.475433e+001  6.403821e+001  4.000000e-001
    endloop
  endfacet
  facet normal -5.502930e-001  8.349715e-001  0.000000e+000
    outer loop
      vertex -5.475433e+001  6.403821e+001  0.000000e+000
      vertex -5.475433e+001  6.403821e+001  4.000000e-001
      vertex -5.348520e+001  6.487463e+001  0.000000e+000
    endloop
  endfacet
  facet normal -5.502930e-001  8.349715e-001  0.000000e+000
    outer loop
      vertex -5.348520e+001  6.487463e+001  0.000000e+000
      vertex -5.475433e+001  6.403821e+001  4.000000e-001
      vertex -5.348520e+001  6.487463e+001  4.000000e-001
    endloop
  endfacet
  facet normal -5.072969e-001  8.617713e-001  0.000000e+000
    outer loop
      vertex -5.348520e+001  6.487463e+001  0.000000e+000
      vertex -5.348520e+001  6.487463e+001  4.000000e-001
      vertex -5.217534e+001  6.564571e+001  0.000000e+000
    endloop
  endfacet
  facet normal -5.072969e-001  8.617713e-001  0.000000e+000
    outer loop
      vertex -5.217534e+001  6.564571e+001  0.000000e+000
      vertex -5.348520e+001  6.487463e+001  4.000000e-001
      vertex -5.217534e+001  6.564571e+001  4.000000e-001
    endloop
  endfacet
  facet normal -4.629959e-001  8.863605e-001  0.000000e+000
    outer loop
      vertex -5.217534e+001  6.564571e+001  0.000000e+000
      vertex -5.217534e+001  6.564571e+001  4.000000e-001
      vertex -5.082811e+001  6.634944e+001  0.000000e+000
    endloop
  endfacet
  facet normal -4.629959e-001  8.863605e-001  0.000000e+000
    outer loop
      vertex -5.082811e+001  6.634944e+001  0.000000e+000
      vertex -5.217534e+001  6.564571e+001  4.000000e-001
      vertex -5.082811e+001  6.634944e+001  4.000000e-001
    endloop
  endfacet
  facet normal -4.175086e-001  9.086729e-001  0.000000e+000
    outer loop
      vertex -5.082811e+001  6.634944e+001  0.000000e+000
      vertex -5.082811e+001  6.634944e+001  4.000000e-001
      vertex -4.944696e+001  6.698404e+001  0.000000e+000
    endloop
  endfacet
  facet normal -4.175086e-001  9.086729e-001  0.000000e+000
    outer loop
      vertex -4.944696e+001  6.698404e+001  0.000000e+000
      vertex -5.082811e+001  6.634944e+001  4.000000e-001
      vertex -4.944696e+001  6.698404e+001  4.000000e-001
    endloop
  endfacet
  facet normal -3.709484e-001  9.286535e-001  0.000000e+000
    outer loop
      vertex -4.944696e+001  6.698404e+001  0.000000e+000
      vertex -4.944696e+001  6.698404e+001  4.000000e-001
      vertex -4.803544e+001  6.754787e+001  0.000000e+000
    endloop
  endfacet
  facet normal -3.709484e-001  9.286535e-001  0.000000e+000
    outer loop
      vertex -4.803544e+001  6.754787e+001  0.000000e+000
      vertex -4.944696e+001  6.698404e+001  4.000000e-001
      vertex -4.803544e+001  6.754787e+001  4.000000e-001
    endloop
  endfacet
  facet normal -3.234391e-001  9.462490e-001  0.000000e+000
    outer loop
      vertex -4.803544e+001  6.754787e+001  0.000000e+000
      vertex -4.803544e+001  6.754787e+001  4.000000e-001
      vertex -4.659718e+001  6.803948e+001  0.000000e+000
    endloop
  endfacet
  facet normal -3.234391e-001  9.462490e-001  0.000000e+000
    outer loop
      vertex -4.659718e+001  6.803948e+001  0.000000e+000
      vertex -4.803544e+001  6.754787e+001  4.000000e-001
      vertex -4.659718e+001  6.803948e+001  4.000000e-001
    endloop
  endfacet
  facet normal -2.750963e-001  9.614166e-001  0.000000e+000
    outer loop
      vertex -4.659718e+001  6.803948e+001  0.000000e+000
      vertex -4.659718e+001  6.803948e+001  4.000000e-001
      vertex -4.513586e+001  6.845762e+001  0.000000e+000
    endloop
  endfacet
  facet normal -2.750963e-001  9.614166e-001  0.000000e+000
    outer loop
      vertex -4.513586e+001  6.845762e+001  0.000000e+000
      vertex -4.659718e+001  6.803948e+001  4.000000e-001
      vertex -4.513586e+001  6.845762e+001  4.000000e-001
    endloop
  endfacet
  facet normal -2.260464e-001  9.741166e-001  0.000000e+000
    outer loop
      vertex -4.513586e+001  6.845762e+001  0.000000e+000
      vertex -4.513586e+001  6.845762e+001  4.000000e-001
      vertex -4.365524e+001  6.880120e+001  0.000000e+000
    endloop
  endfacet
  facet normal -2.260464e-001  9.741166e-001  0.000000e+000
    outer loop
      vertex -4.365524e+001  6.880120e+001  0.000000e+000
      vertex -4.513586e+001  6.845762e+001  4.000000e-001
      vertex -4.365524e+001  6.880120e+001  4.000000e-001
    endloop
  endfacet
  facet normal -1.764241e-001  9.843143e-001  0.000000e+000
    outer loop
      vertex -4.365524e+001  6.880120e+001  0.000000e+000
      vertex -4.365524e+001  6.880120e+001  4.000000e-001
      vertex -4.215911e+001  6.906936e+001  0.000000e+000
    endloop
  endfacet
  facet normal -1.764241e-001  9.843143e-001  0.000000e+000
    outer loop
      vertex -4.215911e+001  6.906936e+001  0.000000e+000
      vertex -4.365524e+001  6.880120e+001  4.000000e-001
      vertex -4.215911e+001  6.906936e+001  4.000000e-001
    endloop
  endfacet
  facet normal -1.263347e-001  9.919877e-001  0.000000e+000
    outer loop
      vertex -4.215911e+001  6.906936e+001  0.000000e+000
      vertex -4.215911e+001  6.906936e+001  4.000000e-001
      vertex -4.065133e+001  6.926138e+001  0.000000e+000
    endloop
  endfacet
  facet normal -1.263347e-001  9.919877e-001  0.000000e+000
    outer loop
      vertex -4.065133e+001  6.926138e+001  0.000000e+000
      vertex -4.215911e+001  6.906936e+001  4.000000e-001
      vertex -4.065133e+001  6.926138e+001  4.000000e-001
    endloop
  endfacet
  facet normal -7.593436e-002  9.971128e-001  0.000000e+000
    outer loop
      vertex -4.065133e+001  6.926138e+001  0.000000e+000
      vertex -4.065133e+001  6.926138e+001  4.000000e-001
      vertex -3.913575e+001  6.937680e+001  0.000000e+000
    endloop
  endfacet
  facet normal -7.593436e-002  9.971128e-001  0.000000e+000
    outer loop
      vertex -3.913575e+001  6.937680e+001  0.000000e+000
      vertex -4.065133e+001  6.926138e+001  4.000000e-001
      vertex -3.913575e+001  6.937680e+001  4.000000e-001
    endloop
  endfacet
  facet normal -2.533324e-002  9.996790e-001  0.000000e+000
    outer loop
      vertex -3.913575e+001  6.937680e+001  0.000000e+000
      vertex -3.913575e+001  6.937680e+001  4.000000e-001
      vertex -3.761628e+001  6.941531e+001  0.000000e+000
    endloop
  endfacet
  facet normal -2.533324e-002  9.996790e-001  0.000000e+000
    outer loop
      vertex -3.761628e+001  6.941531e+001  0.000000e+000
      vertex -3.913575e+001  6.937680e+001  4.000000e-001
      vertex -3.761628e+001  6.941531e+001  4.000000e-001
    endloop
  endfacet
  facet normal  0.000000e+000  1.000000e+000  -0.000000e+000
    outer loop
      vertex  1.338372e+001  6.941531e+001  4.000000e-001
      vertex  1.338372e+001  6.941531e+001  0.000000e+000
      vertex -3.761628e+001  6.941531e+001  4.000000e-001
    endloop
  endfacet
  facet normal  0.000000e+000  1.000000e+000  0.000000e+000
    outer loop
      vertex -3.761628e+001  6.941531e+001  4.000000e-001
      vertex  1.338372e+001  6.941531e+001  0.000000e+000
      vertex -3.761628e+001  6.941531e+001  0.000000e+000
    endloop
  endfacet
  facet normal  2.533322e-002  9.996790e-001  0.000000e+000
    outer loop
      vertex  1.338372e+001  6.941531e+001  0.000000e+000
      vertex  1.338372e+001  6.941531e+001  4.000000e-001
      vertex  1.490319e+001  6.937680e+001  0.000000e+000
    endloop
  endfacet
  facet normal  2.533322e-002  9.996790e-001  -0.000000e+000
    outer loop
      vertex  1.490319e+001  6.937680e+001  0.000000e+000
      vertex  1.338372e+001  6.941531e+001  4.000000e-001
      vertex  1.490319e+001  6.937680e+001  4.000000e-001
    endloop
  endfacet
  facet normal  7.593436e-002  9.971128e-001  0.000000e+000
    outer loop
      vertex  1.490319e+001  6.937680e+001  0.000000e+000
      vertex  1.490319e+001  6.937680e+001  4.000000e-001
      vertex  1.641877e+001  6.926138e+001  0.000000e+000
    endloop
  endfacet
  facet normal  7.593436e-002  9.971128e-001  -0.000000e+000
    outer loop
      vertex  1.641877e+001  6.926138e+001  0.000000e+000
      vertex  1.490319e+001  6.937680e+001  4.000000e-001
      vertex  1.641877e+001  6.926138e+001  4.000000e-001
    endloop
  endfacet
  facet normal  1.263349e-001  9.919877e-001  0.000000e+000
    outer loop
      vertex  1.641877e+001  6.926138e+001  0.000000e+000
      vertex  1.641877e+001  6.926138e+001  4.000000e-001
      vertex  1.792655e+001  6.906936e+001  0.000000e+000
    endloop
  endfacet
  facet normal  1.263349e-001  9.919877e-001  -0.000000e+000
    outer loop
      vertex  1.792655e+001  6.906936e+001  0.000000e+000
      vertex  1.641877e+001  6.926138e+001  4.000000e-001
      vertex  1.792655e+001  6.906936e+001  4.000000e-001
    endloop
  endfacet
  facet normal  1.764239e-001  9.843143e-001  0.000000e+000
    outer loop
      vertex  1.792655e+001  6.906936e+001  0.000000e+000
      vertex  1.792655e+001  6.906936e+001  4.000000e-001
      vertex  1.942268e+001  6.880120e+001  0.000000e+000
    endloop
  endfacet
  facet normal  1.764239e-001  9.843143e-001  -0.000000e+000
    outer loop
      vertex  1.942268e+001  6.880120e+001  0.000000e+000
      vertex  1.792655e+001  6.906936e+001  4.000000e-001
      vertex  1.942268e+001  6.880120e+001  4.000000e-001
    endloop
  endfacet
  facet normal  2.260466e-001  9.741165e-001  0.000000e+000
    outer loop
      vertex  1.942268e+001  6.880120e+001  0.000000e+000
      vertex  1.942268e+001  6.880120e+001  4.000000e-001
      vertex  2.090330e+001  6.845762e+001  0.000000e+000
    endloop
  endfacet
  facet normal  2.260466e-001  9.741165e-001  -0.000000e+000
    outer loop
      vertex  2.090330e+001  6.845762e+001  0.000000e+000
      vertex  1.942268e+001  6.880120e+001  4.000000e-001
      vertex  2.090330e+001  6.845762e+001  4.000000e-001
    endloop
  endfacet
  facet normal  2.750967e-001  9.614166e-001  0.000000e+000
    outer loop
      vertex  2.090330e+001  6.845762e+001  0.000000e+000
      vertex  2.090330e+001  6.845762e+001  4.000000e-001
      vertex  2.236461e+001  6.803948e+001  0.000000e+000
    endloop
  endfacet
  facet normal  2.750967e-001  9.614166e-001  -0.000000e+000
    outer loop
      vertex  2.236461e+001  6.803948e+001  0.000000e+000
      vertex  2.090330e+001  6.845762e+001  4.000000e-001
      vertex  2.236461e+001  6.803948e+001  4.000000e-001
    endloop
  endfacet
  facet normal  3.234388e-001  9.462492e-001  0.000000e+000
    outer loop
      vertex  2.236461e+001  6.803948e+001  0.000000e+000
      vertex  2.236461e+001  6.803948e+001  4.000000e-001
      vertex  2.380288e+001  6.754787e+001  0.000000e+000
    endloop
  endfacet
  facet normal  3.234388e-001  9.462492e-001  -0.000000e+000
    outer loop
      vertex  2.380288e+001  6.754787e+001  0.000000e+000
      vertex  2.236461e+001  6.803948e+001  4.000000e-001
      vertex  2.380288e+001  6.754787e+001  4.000000e-001
    endloop
  endfacet
  facet normal  3.709484e-001  9.286535e-001  0.000000e+000
    outer loop
      vertex  2.380288e+001  6.754787e+001  0.000000e+000
      vertex  2.380288e+001  6.754787e+001  4.000000e-001
      vertex  2.521440e+001  6.698404e+001  0.000000e+000
    endloop
  endfacet
  facet normal  3.709484e-001  9.286535e-001  -0.000000e+000
    outer loop
      vertex  2.521440e+001  6.698404e+001  0.000000e+000
      vertex  2.380288e+001  6.754787e+001  4.000000e-001
      vertex  2.521440e+001  6.698404e+001  4.000000e-001
    endloop
  endfacet
  facet normal  4.175086e-001  9.086729e-001  0.000000e+000
    outer loop
      vertex  2.521440e+001  6.698404e+001  0.000000e+000
      vertex  2.521440e+001  6.698404e+001  4.000000e-001
      vertex  2.659554e+001  6.634944e+001  0.000000e+000
    endloop
  endfacet
  facet normal  4.175086e-001  9.086729e-001  -0.000000e+000
    outer loop
      vertex  2.659554e+001  6.634944e+001  0.000000e+000
      vertex  2.521440e+001  6.698404e+001  4.000000e-001
      vertex  2.659554e+001  6.634944e+001  4.000000e-001
    endloop
  endfacet
  facet normal  4.629959e-001  8.863605e-001  0.000000e+000
    outer loop
      vertex  2.659554e+001  6.634944e+001  0.000000e+000
      vertex  2.659554e+001  6.634944e+001  4.000000e-001
      vertex  2.794278e+001  6.564571e+001  0.000000e+000
    endloop
  endfacet
  facet normal  4.629959e-001  8.863605e-001  -0.000000e+000
    outer loop
      vertex  2.794278e+001  6.564571e+001  0.000000e+000
      vertex  2.659554e+001  6.634944e+001  4.000000e-001
      vertex  2.794278e+001  6.564571e+001  4.000000e-001
    endloop
  endfacet
  facet normal  5.072964e-001  8.617716e-001  0.000000e+000
    outer loop
      vertex  2.794278e+001  6.564571e+001  0.000000e+000
      vertex  2.794278e+001  6.564571e+001  4.000000e-001
      vertex  2.925264e+001  6.487463e+001  0.000000e+000
    endloop
  endfacet
  facet normal  5.072964e-001  8.617716e-001  -0.000000e+000
    outer loop
      vertex  2.925264e+001  6.487463e+001  0.000000e+000
      vertex  2.794278e+001  6.564571e+001  4.000000e-001
      vertex  2.925264e+001  6.487463e+001  4.000000e-001
    endloop
  endfacet
  facet normal  5.502930e-001  8.349715e-001  0.000000e+000
    outer loop
      vertex  2.925264e+001  6.487463e+001  0.000000e+000
      vertex  2.925264e+001  6.487463e+001  4.000000e-001
      vertex  3.052177e+001  6.403821e+001  0.000000e+000
    endloop
  endfacet
  facet normal  5.502930e-001  8.349715e-001  -0.000000e+000
    outer loop
      vertex  3.052177e+001  6.403821e+001  0.000000e+000
      vertex  2.925264e+001  6.487463e+001  4.000000e-001
      vertex  3.052177e+001  6.403821e+001  4.000000e-001
    endloop
  endfacet
  facet normal  5.918775e-001  8.060279e-001  0.000000e+000
    outer loop
      vertex  3.052177e+001  6.403821e+001  0.000000e+000
      vertex  3.052177e+001  6.403821e+001  4.000000e-001
      vertex  3.174690e+001  6.313858e+001  0.000000e+000
    endloop
  endfacet
  facet normal  5.918775e-001  8.060279e-001  -0.000000e+000
    outer loop
      vertex  3.174690e+001  6.313858e+001  0.000000e+000
      vertex  3.052177e+001  6.403821e+001  4.000000e-001
      vertex  3.174690e+001  6.313858e+001  4.000000e-001
    endloop
  endfacet
  facet normal  6.319413e-001  7.750163e-001  0.000000e+000
    outer loop
      vertex  3.174690e+001  6.313858e+001  0.000000e+000
      vertex  3.174690e+001  6.313858e+001  4.000000e-001
      vertex  3.292489e+001  6.217805e+001  0.000000e+000
    endloop
  endfacet
  facet normal  6.319413e-001  7.750163e-001  -0.000000e+000
    outer loop
      vertex  3.292489e+001  6.217805e+001  0.000000e+000
      vertex  3.174690e+001  6.313858e+001  4.000000e-001
      vertex  3.292489e+001  6.217805e+001  4.000000e-001
    endloop
  endfacet
  facet normal  6.703854e-001  7.420130e-001  0.000000e+000
    outer loop
      vertex  3.292489e+001  6.217805e+001  0.000000e+000
      vertex  3.292489e+001  6.217805e+001  4.000000e-001
      vertex  3.405273e+001  6.115909e+001  0.000000e+000
    endloop
  endfacet
  facet normal  6.703854e-001  7.420130e-001  -0.000000e+000
    outer loop
      vertex  3.405273e+001  6.115909e+001  0.000000e+000
      vertex  3.292489e+001  6.217805e+001  4.000000e-001
      vertex  3.405273e+001  6.115909e+001  4.000000e-001
    endloop
  endfacet
  facet normal  7.071068e-001  7.071068e-001  0.000000e+000
    outer loop
      vertex  3.405273e+001  6.115909e+001  0.000000e+000
      vertex  3.405273e+001  6.115909e+001  4.000000e-001
      vertex  3.512750e+001  6.008431e+001  0.000000e+000
    endloop
  endfacet
  facet normal  7.071068e-001  7.071068e-001  -0.000000e+000
    outer loop
      vertex  3.512750e+001  6.008431e+001  0.000000e+000
      vertex  3.405273e+001  6.115909e+001  4.000000e-001
      vertex  3.512750e+001  6.008431e+001  4.000000e-001
    endloop
  endfacet
  facet normal  7.420132e-001  6.703853e-001  0.000000e+000
    outer loop
      vertex  3.512750e+001  6.008431e+001  0.000000e+000
      vertex  3.512750e+001  6.008431e+001  4.000000e-001
      vertex  3.614646e+001  5.895648e+001  0.000000e+000
    endloop
  endfacet
  facet normal  7.420132e-001  6.703853e-001  -0.000000e+000
    outer loop
      vertex  3.614646e+001  5.895648e+001  0.000000e+000
      vertex  3.512750e+001  6.008431e+001  4.000000e-001
      vertex  3.614646e+001  5.895648e+001  4.000000e-001
    endloop
  endfacet
  facet normal  7.750160e-001  6.319416e-001  0.000000e+000
    outer loop
      vertex  3.614646e+001  5.895648e+001  0.000000e+000
      vertex  3.614646e+001  5.895648e+001  4.000000e-001
      vertex  3.710699e+001  5.777848e+001  0.000000e+000
    endloop
  endfacet
  facet normal  7.750160e-001  6.319416e-001  -0.000000e+000
    outer loop
      vertex  3.710699e+001  5.777848e+001  0.000000e+000
      vertex  3.614646e+001  5.895648e+001  4.000000e-001
      vertex  3.710699e+001  5.777848e+001  4.000000e-001
    endloop
  endfacet
  facet normal  8.060279e-001  5.918775e-001  0.000000e+000
    outer loop
      vertex  3.710699e+001  5.777848e+001  0.000000e+000
      vertex  3.710699e+001  5.777848e+001  4.000000e-001
      vertex  3.800662e+001  5.655335e+001  0.000000e+000
    endloop
  endfacet
  facet normal  8.060279e-001  5.918775e-001  -0.000000e+000
    outer loop
      vertex  3.800662e+001  5.655335e+001  0.000000e+000
      vertex  3.710699e+001  5.777848e+001  4.000000e-001
      vertex  3.800662e+001  5.655335e+001  4.000000e-001
    endloop
  endfacet
  facet normal  8.349715e-001  5.502930e-001  0.000000e+000
    outer loop
      vertex  3.800662e+001  5.655335e+001  0.000000e+000
      vertex  3.800662e+001  5.655335e+001  4.000000e-001
      vertex  3.884305e+001  5.528423e+001  0.000000e+000
    endloop
  endfacet
  facet normal  8.349715e-001  5.502930e-001  -0.000000e+000
    outer loop
      vertex  3.884305e+001  5.528423e+001  0.000000e+000
      vertex  3.800662e+001  5.655335e+001  4.000000e-001
      vertex  3.884305e+001  5.528423e+001  4.000000e-001
    endloop
  endfacet
  facet normal  8.617724e-001  5.072951e-001  0.000000e+000
    outer loop
      vertex  3.884305e+001  5.528423e+001  0.000000e+000
      vertex  3.884305e+001  5.528423e+001  4.000000e-001
      vertex  3.961412e+001  5.397437e+001  0.000000e+000
    endloop
  endfacet
  facet normal  8.617724e-001  5.072951e-001  -0.000000e+000
    outer loop
      vertex  3.961412e+001  5.397437e+001  0.000000e+000
      vertex  3.884305e+001  5.528423e+001  4.000000e-001
      vertex  3.961412e+001  5.397437e+001  4.000000e-001
    endloop
  endfacet
  facet normal  8.863595e-001  4.629978e-001  0.000000e+000
    outer loop
      vertex  3.961412e+001  5.397437e+001  0.000000e+000
      vertex  3.961412e+001  5.397437e+001  4.000000e-001
      vertex  4.031786e+001  5.262713e+001  0.000000e+000
    endloop
  endfacet
  facet normal  8.863595e-001  4.629978e-001  -0.000000e+000
    outer loop
      vertex  4.031786e+001  5.262713e+001  0.000000e+000
      vertex  3.961412e+001  5.397437e+001  4.000000e-001
      vertex  4.031786e+001  5.262713e+001  4.000000e-001
    endloop
  endfacet
  facet normal  9.086729e-001  4.175086e-001  0.000000e+000
    outer loop
      vertex  4.031786e+001  5.262713e+001  0.000000e+000
      vertex  4.031786e+001  5.262713e+001  4.000000e-001
      vertex  4.095245e+001  5.124598e+001  0.000000e+000
    endloop
  endfacet
  facet normal  9.086729e-001  4.175086e-001  -0.000000e+000
    outer loop
      vertex  4.095245e+001  5.124598e+001  0.000000e+000
      vertex  4.031786e+001  5.262713e+001  4.000000e-001
      vertex  4.095245e+001  5.124598e+001  4.000000e-001
    endloop
  endfacet
  facet normal  9.286526e-001  3.709505e-001  0.000000e+000
    outer loop
      vertex  4.095245e+001  5.124598e+001  0.000000e+000
      vertex  4.095245e+001  5.124598e+001  4.000000e-001
      vertex  4.151628e+001  4.983447e+001  0.000000e+000
    endloop
  endfacet
  facet normal  9.286526e-001  3.709505e-001  -0.000000e+000
    outer loop
      vertex  4.151628e+001  4.983447e+001  0.000000e+000
      vertex  4.095245e+001  5.124598e+001  4.000000e-001
      vertex  4.151628e+001  4.983447e+001  4.000000e-001
    endloop
  endfacet
  facet normal  9.462500e-001  3.234361e-001  0.000000e+000
    outer loop
      vertex  4.151628e+001  4.983447e+001  0.000000e+000
      vertex  4.151628e+001  4.983447e+001  4.000000e-001
      vertex  4.200790e+001  4.839620e+001  0.000000e+000
    endloop
  endfacet
  facet normal  9.462500e-001  3.234361e-001  -0.000000e+000
    outer loop
      vertex  4.200790e+001  4.839620e+001  0.000000e+000
      vertex  4.151628e+001  4.983447e+001  4.000000e-001
      vertex  4.200790e+001  4.839620e+001  4.000000e-001
    endloop
  endfacet
  facet normal  9.614164e-001  2.750970e-001  0.000000e+000
    outer loop
      vertex  4.200790e+001  4.839620e+001  0.000000e+000
      vertex  4.200790e+001  4.839620e+001  4.000000e-001
      vertex  4.242603e+001  4.693488e+001  0.000000e+000
    endloop
  endfacet
  facet normal  9.614164e-001  2.750970e-001  -0.000000e+000
    outer loop
      vertex  4.242603e+001  4.693488e+001  0.000000e+000
      vertex  4.200790e+001  4.839620e+001  4.000000e-001
      vertex  4.242603e+001  4.693488e+001  4.000000e-001
    endloop
  endfacet
  facet normal  9.741160e-001  2.260487e-001  0.000000e+000
    outer loop
      vertex  4.242603e+001  4.693488e+001  0.000000e+000
      vertex  4.242603e+001  4.693488e+001  4.000000e-001
      vertex  4.276962e+001  4.545426e+001  0.000000e+000
    endloop
  endfacet
  facet normal  9.741160e-001  2.260487e-001  -0.000000e+000
    outer loop
      vertex  4.276962e+001  4.545426e+001  0.000000e+000
      vertex  4.242603e+001  4.693488e+001  4.000000e-001
      vertex  4.276962e+001  4.545426e+001  4.000000e-001
    endloop
  endfacet
  facet normal  9.843151e-001  1.764192e-001  0.000000e+000
    outer loop
      vertex  4.276962e+001  4.545426e+001  0.000000e+000
      vertex  4.276962e+001  4.545426e+001  4.000000e-001
      vertex  4.303777e+001  4.395814e+001  0.000000e+000
    endloop
  endfacet
  facet normal  9.843151e-001  1.764192e-001  -0.000000e+000
    outer loop
      vertex  4.303777e+001  4.395814e+001  0.000000e+000
      vertex  4.276962e+001  4.545426e+001  4.000000e-001
      vertex  4.303777e+001  4.395814e+001  4.000000e-001
    endloop
  endfacet
  facet normal  9.919870e-001  1.263396e-001  0.000000e+000
    outer loop
      vertex  4.303777e+001  4.395814e+001  0.000000e+000
      vertex  4.303777e+001  4.395814e+001  4.000000e-001
      vertex  4.322980e+001  4.245036e+001  0.000000e+000
    endloop
  endfacet
  facet normal  9.919870e-001  1.263396e-001  -0.000000e+000
    outer loop
      vertex  4.322980e+001  4.245036e+001  0.000000e+000
      vertex  4.303777e+001  4.395814e+001  4.000000e-001
      vertex  4.322980e+001  4.245036e+001  4.000000e-001
    endloop
  endfacet
  facet normal  9.971130e-001  7.593186e-002  0.000000e+000
    outer loop
      vertex  4.322980e+001  4.245036e+001  0.000000e+000
      vertex  4.322980e+001  4.245036e+001  4.000000e-001
      vertex  4.334521e+001  4.093478e+001  0.000000e+000
    endloop
  endfacet
  facet normal  9.971130e-001  7.593186e-002  -0.000000e+000
    outer loop
      vertex  4.334521e+001  4.093478e+001  0.000000e+000
      vertex  4.322980e+001  4.245036e+001  4.000000e-001
      vertex  4.334521e+001  4.093478e+001  4.000000e-001
    endloop
  endfacet
  facet normal  9.996790e-001  2.533324e-002  0.000000e+000
    outer loop
      vertex  4.334521e+001  4.093478e+001  0.000000e+000
      vertex  4.334521e+001  4.093478e+001  4.000000e-001
      vertex  4.338372e+001  3.941531e+001  0.000000e+000
    endloop
  endfacet
  facet normal  9.996790e-001  2.533324e-002  -0.000000e+000
    outer loop
      vertex  4.338372e+001  3.941531e+001  0.000000e+000
      vertex  4.334521e+001  4.093478e+001  4.000000e-001
      vertex  4.338372e+001  3.941531e+001  4.000000e-001
    endloop
  endfacet
  facet normal  9.999999e-001  0.000000e+000  0.000000e+000
    outer loop
      vertex  4.338372e+001  1.041531e+001  4.000000e-001
      vertex  4.338372e+001  1.041531e+001  0.000000e+000
      vertex  4.338372e+001  3.941531e+001  4.000000e-001
    endloop
  endfacet
  facet normal  9.999999e-001  0.000000e+000  0.000000e+000
    outer loop
      vertex  4.338372e+001  3.941531e+001  4.000000e-001
      vertex  4.338372e+001  1.041531e+001  0.000000e+000
      vertex  4.338372e+001  3.941531e+001  0.000000e+000
    endloop
  endfacet
  facet normal  0.000000e+000 -1.000000e+000  0.000000e+000
    outer loop
      vertex -6.761628e+001  1.041531e+001  4.000000e-001
      vertex -6.761628e+001  1.041531e+001  0.000000e+000
      vertex  4.338372e+001  1.041531e+001  4.000000e-001
    endloop
  endfacet
  facet normal  0.000000e+000 -1.000000e+000  -0.000000e+000
    outer loop
      vertex  4.338372e+001  1.041531e+001  4.000000e-001
      vertex -6.761628e+001  1.041531e+001  0.000000e+000
      vertex  4.338372e+001  1.041531e+001  0.000000e+000
    endloop
  endfacet
endsolid CATIA STL
