solid CATIA STL
  facet normal  -0.000000e+000  0.000000e+000 -1.000000e+000
    outer loop
      vertex -1.328948e+002  1.298175e+002  0.000000e+000
      vertex -1.091966e+002 -9.645914e+001  0.000000e+000
      vertex -1.328948e+002 -1.201825e+002  0.000000e+000
    endloop
  endfacet
  facet normal  0.000000e+000  0.000000e+000 -1.000000e+000
    outer loop
      vertex -1.328948e+002 -1.201825e+002  0.000000e+000
      vertex -1.091966e+002 -9.645914e+001  0.000000e+000
      vertex  9.116811e+001 -9.645914e+001  0.000000e+000
    endloop
  endfacet
  facet normal  0.000000e+000  -0.000000e+000 -1.000000e+000
    outer loop
      vertex -1.328948e+002 -1.201825e+002  0.000000e+000
      vertex  9.116811e+001 -9.645914e+001  0.000000e+000
      vertex  1.171052e+002 -1.201825e+002  0.000000e+000
    endloop
  endfacet
  facet normal  0.000000e+000  0.000000e+000 -1.000000e+000
    outer loop
      vertex -1.091966e+002 -9.645914e+001  0.000000e+000
      vertex -1.328948e+002  1.298175e+002  0.000000e+000
      vertex -1.091966e+002  1.047453e+002  0.000000e+000
    endloop
  endfacet
  facet normal  0.000000e+000  0.000000e+000 -1.000000e+000
    outer loop
      vertex -1.091966e+002  1.047453e+002  0.000000e+000
      vertex -1.328948e+002  1.298175e+002  0.000000e+000
      vertex  1.171052e+002  1.298175e+002  0.000000e+000
    endloop
  endfacet
  facet normal  0.000000e+000  0.000000e+000 -1.000000e+000
    outer loop
      vertex -1.091966e+002  1.047453e+002  0.000000e+000
      vertex  1.171052e+002  1.298175e+002  0.000000e+000
      vertex  9.116811e+001  1.047453e+002  0.000000e+000
    endloop
  endfacet
  facet normal  0.000000e+000  0.000000e+000 -9.999999e-001
    outer loop
      vertex  9.116811e+001  1.047453e+002  0.000000e+000
      vertex  1.171052e+002  1.298175e+002  0.000000e+000
      vertex  1.171052e+002 -1.201825e+002  0.000000e+000
    endloop
  endfacet
  facet normal  0.000000e+000  0.000000e+000 -1.000000e+000
    outer loop
      vertex  9.116811e+001  1.047453e+002  0.000000e+000
      vertex  1.171052e+002 -1.201825e+002  0.000000e+000
      vertex  9.116811e+001 -9.645914e+001  0.000000e+000
    endloop
  endfacet
  facet normal  0.000000e+000  1.000000e+000  0.000000e+000
    outer loop
      vertex -1.091966e+002 -9.645914e+001  0.000000e+000
      vertex -1.091966e+002 -9.645914e+001  2.300000e+002
      vertex  9.116811e+001 -9.645914e+001  0.000000e+000
    endloop
  endfacet
  facet normal  0.000000e+000  1.000000e+000  -0.000000e+000
    outer loop
      vertex  9.116811e+001 -9.645914e+001  0.000000e+000
      vertex -1.091966e+002 -9.645914e+001  2.300000e+002
      vertex  9.116811e+001 -9.645914e+001  2.300000e+002
    endloop
  endfacet
  facet normal -1.000000e+000  0.000000e+000  0.000000e+000
    outer loop
      vertex  9.116811e+001  1.047453e+002  0.000000e+000
      vertex  9.116811e+001 -9.645914e+001  0.000000e+000
      vertex  9.116811e+001  1.047453e+002  2.300000e+002
    endloop
  endfacet
  facet normal -1.000000e+000  -0.000000e+000  0.000000e+000
    outer loop
      vertex  9.116811e+001  1.047453e+002  2.300000e+002
      vertex  9.116811e+001 -9.645914e+001  0.000000e+000
      vertex  9.116811e+001 -9.645914e+001  2.300000e+002
    endloop
  endfacet
  facet normal  0.000000e+000 -1.000000e+000  -0.000000e+000
    outer loop
      vertex  9.116811e+001  1.047453e+002  0.000000e+000
      vertex  9.116811e+001  1.047453e+002  2.300000e+002
      vertex -1.091966e+002  1.047453e+002  0.000000e+000
    endloop
  endfacet
  facet normal  0.000000e+000 -1.000000e+000  0.000000e+000
    outer loop
      vertex -1.091966e+002  1.047453e+002  0.000000e+000
      vertex  9.116811e+001  1.047453e+002  2.300000e+002
      vertex -1.091966e+002  1.047453e+002  2.300000e+002
    endloop
  endfacet
  facet normal  1.000000e+000  0.000000e+000  0.000000e+000
    outer loop
      vertex -1.091966e+002 -9.645914e+001  0.000000e+000
      vertex -1.091966e+002  1.047453e+002  0.000000e+000
      vertex -1.091966e+002 -9.645914e+001  2.300000e+002
    endloop
  endfacet
  facet normal  1.000000e+000  -0.000000e+000  0.000000e+000
    outer loop
      vertex -1.091966e+002 -9.645914e+001  2.300000e+002
      vertex -1.091966e+002  1.047453e+002  0.000000e+000
      vertex -1.091966e+002  1.047453e+002  2.300000e+002
    endloop
  endfacet
  facet normal  -0.000000e+000  0.000000e+000 -1.000000e+000
    outer loop
      vertex -1.091966e+002  1.047453e+002  2.300000e+002
      vertex  9.116811e+001  1.047453e+002  2.300000e+002
      vertex -1.091966e+002 -9.645914e+001  2.300000e+002
    endloop
  endfacet
  facet normal  0.000000e+000  0.000000e+000 -1.000000e+000
    outer loop
      vertex -1.091966e+002 -9.645914e+001  2.300000e+002
      vertex  9.116811e+001  1.047453e+002  2.300000e+002
      vertex  9.116811e+001 -9.645914e+001  2.300000e+002
    endloop
  endfacet
  facet normal  0.000000e+000  0.000000e+000  1.000000e+000
    outer loop
      vertex -1.328948e+002 -1.201825e+002  2.550000e+002
      vertex  1.171052e+002 -1.201825e+002  2.550000e+002
      vertex -1.328948e+002  1.298175e+002  2.550000e+002
    endloop
  endfacet
  facet normal  -0.000000e+000  0.000000e+000  1.000000e+000
    outer loop
      vertex -1.328948e+002  1.298175e+002  2.550000e+002
      vertex  1.171052e+002 -1.201825e+002  2.550000e+002
      vertex  1.171052e+002  1.298175e+002  2.550000e+002
    endloop
  endfacet
  facet normal -1.000000e+000  0.000000e+000  0.000000e+000
    outer loop
      vertex -1.328948e+002  1.298175e+002  0.000000e+000
      vertex -1.328948e+002 -1.201825e+002  0.000000e+000
      vertex -1.328948e+002  1.298175e+002  2.550000e+002
    endloop
  endfacet
  facet normal -1.000000e+000  -0.000000e+000  0.000000e+000
    outer loop
      vertex -1.328948e+002  1.298175e+002  2.550000e+002
      vertex -1.328948e+002 -1.201825e+002  0.000000e+000
      vertex -1.328948e+002 -1.201825e+002  2.550000e+002
    endloop
  endfacet
  facet normal  0.000000e+000  1.000000e+000  0.000000e+000
    outer loop
      vertex  1.171052e+002  1.298175e+002  0.000000e+000
      vertex -1.328948e+002  1.298175e+002  0.000000e+000
      vertex  1.171052e+002  1.298175e+002  2.550000e+002
    endloop
  endfacet
  facet normal  0.000000e+000  1.000000e+000  0.000000e+000
    outer loop
      vertex  1.171052e+002  1.298175e+002  2.550000e+002
      vertex -1.328948e+002  1.298175e+002  0.000000e+000
      vertex -1.328948e+002  1.298175e+002  2.550000e+002
    endloop
  endfacet
  facet normal  1.000000e+000  0.000000e+000  0.000000e+000
    outer loop
      vertex  1.171052e+002 -1.201825e+002  0.000000e+000
      vertex  1.171052e+002  1.298175e+002  0.000000e+000
      vertex  1.171052e+002 -1.201825e+002  2.550000e+002
    endloop
  endfacet
  facet normal  1.000000e+000  -0.000000e+000  0.000000e+000
    outer loop
      vertex  1.171052e+002 -1.201825e+002  2.550000e+002
      vertex  1.171052e+002  1.298175e+002  0.000000e+000
      vertex  1.171052e+002  1.298175e+002  2.550000e+002
    endloop
  endfacet
  facet normal  0.000000e+000 -1.000000e+000  0.000000e+000
    outer loop
      vertex -1.328948e+002 -1.201825e+002  0.000000e+000
      vertex  1.171052e+002 -1.201825e+002  0.000000e+000
      vertex -1.328948e+002 -1.201825e+002  2.550000e+002
    endloop
  endfacet
  facet normal  0.000000e+000 -1.000000e+000  0.000000e+000
    outer loop
      vertex -1.328948e+002 -1.201825e+002  2.550000e+002
      vertex  1.171052e+002 -1.201825e+002  0.000000e+000
      vertex  1.171052e+002 -1.201825e+002  2.550000e+002
    endloop
  endfacet
endsolid CATIA STL
