solid CATIA STL
  facet normal  0.000000e+000  1.000000e+000  0.000000e+000
    outer loop
      vertex  0.000000e+000  6.000000e+001  5.900000e+001
      vertex  1.500000e+001  6.000000e+001  5.900000e+001
      vertex  1.500000e+001  6.000000e+001 -3.190000e+001
    endloop
  endfacet
  facet normal  0.000000e+000  1.000000e+000  0.000000e+000
    outer loop
      vertex  0.000000e+000  6.000000e+001  5.900000e+001
      vertex  1.500000e+001  6.000000e+001 -3.190000e+001
      vertex  1.500000e+001  6.000000e+001 -5.590000e+001
    endloop
  endfacet
  facet normal  0.000000e+000  9.999999e-001  0.000000e+000
    outer loop
      vertex  0.000000e+000  6.000000e+001  5.900000e+001
      vertex  1.500000e+001  6.000000e+001 -5.590000e+001
      vertex  1.500000e+001  6.000000e+001 -1.415000e+002
    endloop
  endfacet
  facet normal  0.000000e+000  9.999999e-001  0.000000e+000
    outer loop
      vertex  0.000000e+000  6.000000e+001  5.900000e+001
      vertex  1.500000e+001  6.000000e+001 -1.415000e+002
      vertex  7.105427e-015  6.000000e+001 -1.415000e+002
    endloop
  endfacet
  facet normal  0.000000e+000  1.000000e+000  -0.000000e+000
    outer loop
      vertex  1.600000e+001  6.000000e+001 -3.190000e+001
      vertex  1.600000e+001  6.000000e+001 -5.590000e+001
      vertex  1.500000e+001  6.000000e+001 -3.190000e+001
    endloop
  endfacet
  facet normal  0.000000e+000  1.000000e+000  0.000000e+000
    outer loop
      vertex  1.500000e+001  6.000000e+001 -3.190000e+001
      vertex  1.600000e+001  6.000000e+001 -5.590000e+001
      vertex  1.500000e+001  6.000000e+001 -5.590000e+001
    endloop
  endfacet
  facet normal  0.000000e+000  0.000000e+000 -1.000000e+000
    outer loop
      vertex  1.600000e+001  6.000000e+001 -5.590000e+001
      vertex  1.600000e+001  1.000000e+000 -5.590000e+001
      vertex  1.500000e+001  6.000000e+001 -5.590000e+001
    endloop
  endfacet
  facet normal  0.000000e+000  0.000000e+000 -1.000000e+000
    outer loop
      vertex  1.500000e+001  6.000000e+001 -5.590000e+001
      vertex  1.600000e+001  1.000000e+000 -5.590000e+001
      vertex  1.500000e+001  1.000000e+000 -5.590000e+001
    endloop
  endfacet
  facet normal  0.000000e+000  0.000000e+000  1.000000e+000
    outer loop
      vertex  1.600000e+001  1.000000e+000 -3.190000e+001
      vertex  1.600000e+001  6.000000e+001 -3.190000e+001
      vertex  1.500000e+001  1.000000e+000 -3.190000e+001
    endloop
  endfacet
  facet normal  0.000000e+000  0.000000e+000  1.000000e+000
    outer loop
      vertex  1.500000e+001  1.000000e+000 -3.190000e+001
      vertex  1.600000e+001  6.000000e+001 -3.190000e+001
      vertex  1.500000e+001  6.000000e+001 -3.190000e+001
    endloop
  endfacet
  facet normal  1.000000e+000  -0.000000e+000  0.000000e+000
    outer loop
      vertex  1.500000e+001  6.000000e+001  5.900000e+001
      vertex  1.500000e+001 -6.000000e+001  5.900000e+001
      vertex  1.500000e+001 -6.000000e+001 -3.190000e+001
    endloop
  endfacet
  facet normal  1.000000e+000  0.000000e+000  0.000000e+000
    outer loop
      vertex  1.500000e+001  6.000000e+001  5.900000e+001
      vertex  1.500000e+001 -6.000000e+001 -3.190000e+001
      vertex  1.500000e+001 -1.000000e+000 -3.190000e+001
    endloop
  endfacet
  facet normal  1.000000e+000  0.000000e+000  0.000000e+000
    outer loop
      vertex  1.500000e+001  6.000000e+001  5.900000e+001
      vertex  1.500000e+001 -1.000000e+000 -3.190000e+001
      vertex  1.500000e+001  1.000000e+000 -3.190000e+001
    endloop
  endfacet
  facet normal  1.000000e+000  0.000000e+000  0.000000e+000
    outer loop
      vertex  1.500000e+001  6.000000e+001  5.900000e+001
      vertex  1.500000e+001  1.000000e+000 -3.190000e+001
      vertex  1.500000e+001  6.000000e+001 -3.190000e+001
    endloop
  endfacet
  facet normal  1.000000e+000  0.000000e+000  -0.000000e+000
    outer loop
      vertex  1.500000e+001 -5.600000e+001 -5.900000e+001
      vertex  1.500000e+001  5.600000e+001 -5.900000e+001
      vertex  1.500000e+001  6.000000e+001 -5.590000e+001
    endloop
  endfacet
  facet normal  1.000000e+000  0.000000e+000  0.000000e+000
    outer loop
      vertex  1.500000e+001 -5.600000e+001 -5.900000e+001
      vertex  1.500000e+001  6.000000e+001 -5.590000e+001
      vertex  1.500000e+001  1.000000e+000 -5.590000e+001
    endloop
  endfacet
  facet normal  1.000000e+000  0.000000e+000  0.000000e+000
    outer loop
      vertex  1.500000e+001 -5.600000e+001 -5.900000e+001
      vertex  1.500000e+001  1.000000e+000 -5.590000e+001
      vertex  1.500000e+001 -1.000000e+000 -5.590000e+001
    endloop
  endfacet
  facet normal  1.000000e+000  0.000000e+000  0.000000e+000
    outer loop
      vertex  1.500000e+001 -5.600000e+001 -5.900000e+001
      vertex  1.500000e+001 -1.000000e+000 -5.590000e+001
      vertex  1.500000e+001 -6.000000e+001 -5.590000e+001
    endloop
  endfacet
  facet normal  1.000000e+000  0.000000e+000  0.000000e+000
    outer loop
      vertex  1.500000e+001 -5.600000e+001 -5.900000e+001
      vertex  1.500000e+001 -6.000000e+001 -5.590000e+001
      vertex  1.500000e+001 -6.000000e+001 -1.415000e+002
    endloop
  endfacet
  facet normal  9.999999e-001  0.000000e+000  0.000000e+000
    outer loop
      vertex  1.500000e+001 -5.600000e+001 -5.900000e+001
      vertex  1.500000e+001 -6.000000e+001 -1.415000e+002
      vertex  1.500000e+001 -5.600000e+001 -1.415000e+002
    endloop
  endfacet
  facet normal  1.000000e+000  0.000000e+000  0.000000e+000
    outer loop
      vertex  1.500000e+001 -1.000000e+000 -5.590000e+001
      vertex  1.500000e+001  1.000000e+000 -5.590000e+001
      vertex  1.500000e+001 -1.000000e+000 -3.190000e+001
    endloop
  endfacet
  facet normal  1.000000e+000  -0.000000e+000  0.000000e+000
    outer loop
      vertex  1.500000e+001 -1.000000e+000 -3.190000e+001
      vertex  1.500000e+001  1.000000e+000 -5.590000e+001
      vertex  1.500000e+001  1.000000e+000 -3.190000e+001
    endloop
  endfacet
  facet normal  9.999999e-001  0.000000e+000  0.000000e+000
    outer loop
      vertex  1.500000e+001  5.600000e+001 -1.415000e+002
      vertex  1.500000e+001  6.000000e+001 -1.415000e+002
      vertex  1.500000e+001  5.600000e+001 -5.900000e+001
    endloop
  endfacet
  facet normal  1.000000e+000  -0.000000e+000  0.000000e+000
    outer loop
      vertex  1.500000e+001  5.600000e+001 -5.900000e+001
      vertex  1.500000e+001  6.000000e+001 -1.415000e+002
      vertex  1.500000e+001  6.000000e+001 -5.590000e+001
    endloop
  endfacet
  facet normal  0.000000e+000 -1.000000e+000  -0.000000e+000
    outer loop
      vertex  1.600000e+001  1.000000e+000 -5.590000e+001
      vertex  1.600000e+001  1.000000e+000 -3.190000e+001
      vertex  1.500000e+001  1.000000e+000 -5.590000e+001
    endloop
  endfacet
  facet normal  0.000000e+000 -1.000000e+000  0.000000e+000
    outer loop
      vertex  1.500000e+001  1.000000e+000 -5.590000e+001
      vertex  1.600000e+001  1.000000e+000 -3.190000e+001
      vertex  1.500000e+001  1.000000e+000 -3.190000e+001
    endloop
  endfacet
  facet normal  1.000000e+000  0.000000e+000  0.000000e+000
    outer loop
      vertex  1.600000e+001  1.000000e+000 -5.590000e+001
      vertex  1.600000e+001  6.000000e+001 -5.590000e+001
      vertex  1.600000e+001  1.000000e+000 -3.190000e+001
    endloop
  endfacet
  facet normal  1.000000e+000  -0.000000e+000  0.000000e+000
    outer loop
      vertex  1.600000e+001  1.000000e+000 -3.190000e+001
      vertex  1.600000e+001  6.000000e+001 -5.590000e+001
      vertex  1.600000e+001  6.000000e+001 -3.190000e+001
    endloop
  endfacet
  facet normal  0.000000e+000 -9.999999e-001  0.000000e+000
    outer loop
      vertex  7.105427e-015 -6.000000e+001 -1.415000e+002
      vertex  1.500000e+001 -6.000000e+001 -1.415000e+002
      vertex  1.500000e+001 -6.000000e+001 -5.590000e+001
    endloop
  endfacet
  facet normal  -0.000000e+000 -1.000000e+000  0.000000e+000
    outer loop
      vertex  7.105427e-015 -6.000000e+001 -1.415000e+002
      vertex  1.500000e+001 -6.000000e+001 -5.590000e+001
      vertex  1.500000e+001 -6.000000e+001 -3.190000e+001
    endloop
  endfacet
  facet normal  -0.000000e+000 -1.000000e+000  0.000000e+000
    outer loop
      vertex  7.105427e-015 -6.000000e+001 -1.415000e+002
      vertex  1.500000e+001 -6.000000e+001 -3.190000e+001
      vertex  1.500000e+001 -6.000000e+001  5.900000e+001
    endloop
  endfacet
  facet normal  -0.000000e+000 -9.999999e-001  0.000000e+000
    outer loop
      vertex  7.105427e-015 -6.000000e+001 -1.415000e+002
      vertex  1.500000e+001 -6.000000e+001  5.900000e+001
      vertex  0.000000e+000 -6.000000e+001  5.900000e+001
    endloop
  endfacet
  facet normal  0.000000e+000 -1.000000e+000  -0.000000e+000
    outer loop
      vertex  1.600000e+001 -6.000000e+001 -5.590000e+001
      vertex  1.600000e+001 -6.000000e+001 -3.190000e+001
      vertex  1.500000e+001 -6.000000e+001 -5.590000e+001
    endloop
  endfacet
  facet normal  0.000000e+000 -1.000000e+000  0.000000e+000
    outer loop
      vertex  1.500000e+001 -6.000000e+001 -5.590000e+001
      vertex  1.600000e+001 -6.000000e+001 -3.190000e+001
      vertex  1.500000e+001 -6.000000e+001 -3.190000e+001
    endloop
  endfacet
  facet normal  0.000000e+000  0.000000e+000 -1.000000e+000
    outer loop
      vertex  1.600000e+001 -1.000000e+000 -5.590000e+001
      vertex  1.600000e+001 -6.000000e+001 -5.590000e+001
      vertex  1.500000e+001 -1.000000e+000 -5.590000e+001
    endloop
  endfacet
  facet normal  0.000000e+000  0.000000e+000 -1.000000e+000
    outer loop
      vertex  1.500000e+001 -1.000000e+000 -5.590000e+001
      vertex  1.600000e+001 -6.000000e+001 -5.590000e+001
      vertex  1.500000e+001 -6.000000e+001 -5.590000e+001
    endloop
  endfacet
  facet normal  0.000000e+000  0.000000e+000  1.000000e+000
    outer loop
      vertex  1.600000e+001 -6.000000e+001 -3.190000e+001
      vertex  1.600000e+001 -1.000000e+000 -3.190000e+001
      vertex  1.500000e+001 -6.000000e+001 -3.190000e+001
    endloop
  endfacet
  facet normal  0.000000e+000  0.000000e+000  1.000000e+000
    outer loop
      vertex  1.500000e+001 -6.000000e+001 -3.190000e+001
      vertex  1.600000e+001 -1.000000e+000 -3.190000e+001
      vertex  1.500000e+001 -1.000000e+000 -3.190000e+001
    endloop
  endfacet
  facet normal  0.000000e+000  1.000000e+000  0.000000e+000
    outer loop
      vertex  1.600000e+001 -1.000000e+000 -5.590000e+001
      vertex  1.500000e+001 -1.000000e+000 -5.590000e+001
      vertex  1.600000e+001 -1.000000e+000 -3.190000e+001
    endloop
  endfacet
  facet normal  0.000000e+000  1.000000e+000  0.000000e+000
    outer loop
      vertex  1.600000e+001 -1.000000e+000 -3.190000e+001
      vertex  1.500000e+001 -1.000000e+000 -5.590000e+001
      vertex  1.500000e+001 -1.000000e+000 -3.190000e+001
    endloop
  endfacet
  facet normal  1.000000e+000  0.000000e+000  0.000000e+000
    outer loop
      vertex  1.600000e+001 -6.000000e+001 -5.590000e+001
      vertex  1.600000e+001 -1.000000e+000 -5.590000e+001
      vertex  1.600000e+001 -6.000000e+001 -3.190000e+001
    endloop
  endfacet
  facet normal  1.000000e+000  -0.000000e+000  0.000000e+000
    outer loop
      vertex  1.600000e+001 -6.000000e+001 -3.190000e+001
      vertex  1.600000e+001 -1.000000e+000 -5.590000e+001
      vertex  1.600000e+001 -1.000000e+000 -3.190000e+001
    endloop
  endfacet
  facet normal  -0.000000e+000  0.000000e+000  1.000000e+000
    outer loop
      vertex  1.500000e+001  6.000000e+001  5.900000e+001
      vertex  0.000000e+000  6.000000e+001  5.900000e+001
      vertex  1.500000e+001 -6.000000e+001  5.900000e+001
    endloop
  endfacet
  facet normal  0.000000e+000  0.000000e+000  1.000000e+000
    outer loop
      vertex  1.500000e+001 -6.000000e+001  5.900000e+001
      vertex  0.000000e+000  6.000000e+001  5.900000e+001
      vertex  0.000000e+000 -6.000000e+001  5.900000e+001
    endloop
  endfacet
  facet normal  -0.000000e+000  0.000000e+000 -1.000000e+000
    outer loop
      vertex  7.105427e-015  6.000000e+001 -1.415000e+002
      vertex  1.500000e+001  6.000000e+001 -1.415000e+002
      vertex  0.000000e+000  5.600000e+001 -1.415000e+002
    endloop
  endfacet
  facet normal  0.000000e+000  0.000000e+000 -1.000000e+000
    outer loop
      vertex  0.000000e+000  5.600000e+001 -1.415000e+002
      vertex  1.500000e+001  6.000000e+001 -1.415000e+002
      vertex  1.500000e+001  5.600000e+001 -1.415000e+002
    endloop
  endfacet
  facet normal -9.999999e-001  1.776357e-015  0.000000e+000
    outer loop
      vertex  0.000000e+000  5.600000e+001 -5.900000e+001
      vertex  7.105427e-015  6.000000e+001 -1.415000e+002
      vertex  0.000000e+000  5.600000e+001 -1.415000e+002
    endloop
  endfacet
  facet normal -1.000000e+000  1.045437e-015 -3.543854e-017
    outer loop
      vertex  7.105427e-015  6.000000e+001 -1.415000e+002
      vertex  0.000000e+000  5.600000e+001 -5.900000e+001
      vertex  0.000000e+000  6.000000e+001  5.900000e+001
    endloop
  endfacet
  facet normal -1.000000e+000  0.000000e+000  0.000000e+000
    outer loop
      vertex  0.000000e+000  6.000000e+001  5.900000e+001
      vertex  0.000000e+000  5.600000e+001 -5.900000e+001
      vertex  0.000000e+000 -5.600000e+001 -5.900000e+001
    endloop
  endfacet
  facet normal -1.000000e+000  0.000000e+000  0.000000e+000
    outer loop
      vertex  0.000000e+000  6.000000e+001  5.900000e+001
      vertex  0.000000e+000 -5.600000e+001 -5.900000e+001
      vertex  0.000000e+000 -6.000000e+001  5.900000e+001
    endloop
  endfacet
  facet normal -9.999999e-001  0.000000e+000  0.000000e+000
    outer loop
      vertex  0.000000e+000 -6.000000e+001  5.900000e+001
      vertex  0.000000e+000 -5.600000e+001 -5.900000e+001
      vertex  0.000000e+000 -5.600000e+001 -1.415000e+002
    endloop
  endfacet
  facet normal -1.000000e+000 -1.776357e-015 -3.543854e-017
    outer loop
      vertex  0.000000e+000 -6.000000e+001  5.900000e+001
      vertex  0.000000e+000 -5.600000e+001 -1.415000e+002
      vertex  7.105427e-015 -6.000000e+001 -1.415000e+002
    endloop
  endfacet
  facet normal  0.000000e+000 -1.000000e+000  0.000000e+000
    outer loop
      vertex  0.000000e+000  5.600000e+001 -5.900000e+001
      vertex  0.000000e+000  5.600000e+001 -1.415000e+002
      vertex  1.500000e+001  5.600000e+001 -5.900000e+001
    endloop
  endfacet
  facet normal  0.000000e+000 -1.000000e+000  -0.000000e+000
    outer loop
      vertex  1.500000e+001  5.600000e+001 -5.900000e+001
      vertex  0.000000e+000  5.600000e+001 -1.415000e+002
      vertex  1.500000e+001  5.600000e+001 -1.415000e+002
    endloop
  endfacet
  facet normal  0.000000e+000  0.000000e+000 -1.000000e+000
    outer loop
      vertex  1.500000e+001 -5.600000e+001 -5.900000e+001
      vertex  0.000000e+000 -5.600000e+001 -5.900000e+001
      vertex  1.500000e+001  5.600000e+001 -5.900000e+001
    endloop
  endfacet
  facet normal  -0.000000e+000  0.000000e+000 -1.000000e+000
    outer loop
      vertex  1.500000e+001  5.600000e+001 -5.900000e+001
      vertex  0.000000e+000 -5.600000e+001 -5.900000e+001
      vertex  0.000000e+000  5.600000e+001 -5.900000e+001
    endloop
  endfacet
  facet normal  -0.000000e+000  0.000000e+000 -1.000000e+000
    outer loop
      vertex  0.000000e+000 -5.600000e+001 -1.415000e+002
      vertex  1.500000e+001 -5.600000e+001 -1.415000e+002
      vertex  7.105427e-015 -6.000000e+001 -1.415000e+002
    endloop
  endfacet
  facet normal  0.000000e+000  0.000000e+000 -1.000000e+000
    outer loop
      vertex  7.105427e-015 -6.000000e+001 -1.415000e+002
      vertex  1.500000e+001 -5.600000e+001 -1.415000e+002
      vertex  1.500000e+001 -6.000000e+001 -1.415000e+002
    endloop
  endfacet
  facet normal  0.000000e+000  1.000000e+000  0.000000e+000
    outer loop
      vertex  0.000000e+000 -5.600000e+001 -5.900000e+001
      vertex  1.500000e+001 -5.600000e+001 -5.900000e+001
      vertex  0.000000e+000 -5.600000e+001 -1.415000e+002
    endloop
  endfacet
  facet normal  0.000000e+000  1.000000e+000  0.000000e+000
    outer loop
      vertex  0.000000e+000 -5.600000e+001 -1.415000e+002
      vertex  1.500000e+001 -5.600000e+001 -5.900000e+001
      vertex  1.500000e+001 -5.600000e+001 -1.415000e+002
    endloop
  endfacet
endsolid CATIA STL
