<?xml version="1.0" encoding="utf-8" ?><!DOCTYPE svg PUBLIC "-//W3C//DTD SVG 1.1//EN" "http://www.w3.org/Graphics/SVG/1.1/DTD/svg11.dtd" 
[ <!ATTLIST svg 
  xmlns:dsy CDATA #FIXED "http://www.3ds.com/print"  
    dsy:text-version CDATA #IMPLIED > 

  <!ATTLIST text 
  xmlns:dsy CDATA #FIXED "http://www.3ds.com/print" 
    dsy:text-version CDATA #IMPLIED > 
]><svg xmlns="http://www.w3.org/2000/svg" xmlns:dsy="http://www.3ds.com/print" dsy:text-version="18000" width="420" height="297" viewBox="0 0 420 297" version="1.1"><g stroke="rgb(0, 0, 0)" stroke-width="0.13" stroke-linecap="butt" stroke-linejoin="miter" fill="none"><path d="M 105.394 13.6576 L 105.394 5.99051"/><path d="M 195.394 13.6576 L 195.394 5.99051"/></g><g stroke="rgb(0, 0, 0)" stroke-width="0.35" stroke-linecap="butt" stroke-linejoin="miter" fill="none"><path d="M 309.068 136.114 L 309.068 277.485"/><path d="M 301.582 281.823 A 5 5 0 0 0 309.068 277.485"/><path d="M 203.015 174.714 L 309.068 136.114"/><path d="M 196.305 170.015 A 5 5 0 0 0 203.015 174.714"/><path d="M 173.819 208.597 L 301.582 281.823"/><path d="M 171.305 204.259 A 5 5 0 0 0 173.819 208.597"/><path d="M 196.305 132.156 L 196.305 170.015"/><path d="M 196.305 132.156 A 5 5 0 0 0 191.305 127.156"/><path d="M 171.305 132.156 L 171.305 204.259"/><path d="M 176.305 127.156 L 191.305 127.156"/><path d="M 176.305 127.156 A 5 5 0 0 0 171.305 132.156"/><path d="M 195.394 15.6576 A 5 5 0 0 0 190.394 10.6576"/><path d="M 110.394 10.6576 L 190.394 10.6576"/><path d="M 110.394 10.6576 A 5 5 0 0 0 105.394 15.6576"/><path d="M 105.394 15.6576 L 105.394 120.658"/><path d="M 105.394 120.658 A 5 5 0 0 0 110.394 125.658"/><path d="M 195.394 120.658 L 195.394 15.6576"/><path d="M 190.394 125.658 L 110.394 125.658"/><path d="M 190.394 125.658 A 5 5 0 0 0 195.394 120.658"/><path d="M 198.283 171.049 L 198.283 29.6781"/><path d="M 205.769 25.3401 A 5 5 0 0 0 198.283 29.6781"/><path d="M 304.336 132.449 L 198.283 171.049"/><path d="M 311.046 137.148 A 5 5 0 0 0 304.336 132.449"/><path d="M 333.533 98.5663 L 205.769 25.3401"/><path d="M 336.046 102.904 A 5 5 0 0 0 333.533 98.5663"/><path d="M 311.046 175.007 L 311.046 137.148"/><path d="M 311.046 175.007 A 5 5 0 0 0 316.046 180.007"/><path d="M 336.046 175.007 L 336.046 102.904"/><path d="M 331.046 180.007 L 316.046 180.007"/><path d="M 331.046 180.007 A 5 5 0 0 0 336.046 175.007"/><path d="M 337.754 -0.0100098 L 337.754 86.2273"/><path d="M 330.268 90.5654 A 5 5 0 0 0 337.754 86.2274"/><path d="M 202.505 17.3392 L 330.268 90.5654"/><path d="M 199.991 13.0012 A 5 5 0 0 0 202.505 17.3392"/><path d="M 199.991 -0.0100098 L 199.991 13.0012"/></g><g stroke="rgb(0, 0, 0)" stroke-width="0.13" stroke-linecap="butt" stroke-linejoin="miter" fill="none"><path d="M 147.316 5.12308 L 147.392 5.52148 L 147.609 5.82913 L 147.952 6.02078 L 148.405 6.09137 L 148.703 6.05606 L 148.97 5.9653 L 149.197 5.80896 L 149.389 5.58704 L 149.54 5.30966 L 149.651 4.96674 L 149.717 4.57336 L 149.742 4.11948 L 149.656 3.40839 L 149.409 2.88892 L 149.016 2.57623 L 148.476 2.4653 L 147.982 2.55606 L 147.609 2.79816 L 147.367 3.17136 L 147.286 3.64035 L 147.367 4.12451 L 147.604 4.49268 L 147.957 4.72467 L 148.405 4.80029 L 148.879 4.7045 L 149.238 4.41199 L 149.157 4.97177 L 148.995 5.37018 L 148.748 5.60724 L 148.41 5.68286 L 148.148 5.64758 L 147.957 5.53662 L 147.831 5.36011 L 147.78 5.12308 L 147.316 5.12308 L 147.316 5.12308 z M 147.775 3.63531 L 147.825 3.32263 L 147.967 3.07553 L 148.189 2.91919 L 148.476 2.86371 L 148.774 2.91919 L 149.001 3.07553 L 149.142 3.3176 L 149.197 3.63028 L 149.142 3.948 L 149.001 4.18503 L 148.769 4.3313 L 148.461 4.38171 L 148.184 4.3313 L 147.967 4.18503 L 147.825 3.95303 L 147.775 3.63531 L 147.775 3.63531 z M 151.047 4.28085 L 151.123 5.07263 L 151.36 5.63748 L 151.738 5.98041 L 152.262 6.09137 L 152.782 5.98041 L 153.16 5.63748 L 153.392 5.07263 L 153.473 4.28085 L 153.392 3.49411 L 153.296 3.18143 L 153.16 2.92422 L 152.782 2.5813 L 152.262 2.4653 L 151.738 2.5813 L 151.36 2.92926 L 151.123 3.49411 L 151.047 4.28085 L 151.047 4.28085 z M 151.531 4.28085 L 151.572 3.67062 L 151.698 3.23187 L 151.925 2.97467 L 152.262 2.88388 L 152.595 2.97467 L 152.822 3.23187 L 152.948 3.67062 L 152.989 4.28085 L 152.948 4.89612 L 152.822 5.3349 L 152.595 5.5921 L 152.262 5.67783 L 151.925 5.5921 L 151.698 5.3349 L 151.572 4.89612 L 151.531 4.28085 L 151.531 4.28085 z" stroke="none" fill-rule="evenodd" fill="rgb(0, 0, 0)"/><path d="M 193.463 8.50815 L 195.394 7.99051 L 193.463 7.47287"/><path d="M 107.326 7.47287 L 105.394 7.99051 L 107.326 8.50815"/><path d="M 105.394 7.99051 L 195.394 7.99051"/></g></svg>