<?xml version="1.0" encoding="utf-8" ?><!DOCTYPE svg PUBLIC "-//W3C//DTD SVG 1.1//EN" "http://www.w3.org/Graphics/SVG/1.1/DTD/svg11.dtd" 
[ <!ATTLIST svg 
  xmlns:dsy CDATA #FIXED "http://www.3ds.com/print"  
    dsy:text-version CDATA #IMPLIED > 

  <!ATTLIST text 
  xmlns:dsy CDATA #FIXED "http://www.3ds.com/print" 
    dsy:text-version CDATA #IMPLIED > 
]><svg xmlns="http://www.w3.org/2000/svg" xmlns:dsy="http://www.3ds.com/print" dsy:text-version="18000" width="297" height="420" viewBox="0 0 297 420" version="1.1"><g stroke="rgb(0, 0, 0)" stroke-width="0.13" stroke-linecap="butt" stroke-linejoin="miter" fill="none"><path d="M 254.845 278.675 L 268.127 278.675"/><path d="M 254.845 188.675 L 268.127 188.675"/></g><g stroke="rgb(0, 0, 0)" stroke-width="0.35" stroke-linecap="butt" stroke-linejoin="miter" fill="none"><path d="M 139.598 109.976 L 139.598 251.347"/><path d="M 132.111 255.685 A 5 5 0 0 0 139.598 251.347"/><path d="M 33.5445 148.576 L 139.598 109.976"/><path d="M 26.8344 143.877 A 5 5 0 0 0 33.5445 148.576"/><path d="M 4.34811 182.459 L 132.111 255.685"/><path d="M 1.8344 178.121 A 5 5 0 0 0 4.34811 182.459"/><path d="M 26.8344 106.018 L 26.8344 143.877"/><path d="M 26.8344 106.018 A 5 5 0 0 0 21.8344 101.018"/><path d="M 1.8344 106.018 L 1.8344 178.121"/><path d="M 6.8344 101.018 L 21.8344 101.018"/><path d="M 6.8344 101.018 A 5 5 0 0 0 1.8344 106.018"/><path d="M 28.376 146.232 L 28.376 4.86072"/><path d="M 35.8623 0.522705 A 5 5 0 0 0 34.5056 -0.0100098"/><path d="M 32.2464 -0.0100098 A 5 5 0 0 0 28.376 4.86072"/><path d="M 134.429 107.632 L 28.376 146.232"/><path d="M 141.139 112.33 A 5 5 0 0 0 134.429 107.632"/><path d="M 163.625 73.7489 L 35.8623 0.522705"/><path d="M 166.139 78.0869 A 5 5 0 0 0 163.625 73.7489"/><path d="M 141.139 150.19 L 141.139 112.33"/><path d="M 141.139 150.19 A 5 5 0 0 0 146.139 155.19"/><path d="M 166.139 150.19 L 166.139 78.0869"/><path d="M 161.139 155.19 L 146.139 155.19"/><path d="M 161.139 155.19 A 5 5 0 0 0 166.139 150.19"/><path d="M 3.0612 335.387 L 3.0612 194.016"/><path d="M 10.5475 189.678 A 5 5 0 0 0 3.0612 194.016"/><path d="M 109.114 296.787 L 3.0612 335.387"/><path d="M 115.824 301.485 A 5 5 0 0 0 109.114 296.787"/><path d="M 138.311 262.904 L 10.5475 189.678"/><path d="M 140.824 267.242 A 5 5 0 0 0 138.311 262.904"/><path d="M 115.824 339.344 L 115.824 301.485"/><path d="M 115.824 339.344 A 5 5 0 0 0 120.824 344.344"/><path d="M 140.824 339.344 L 140.824 267.242"/><path d="M 135.824 344.344 L 120.824 344.344"/><path d="M 135.824 344.344 A 5 5 0 0 0 140.824 339.344"/><path d="M 144.435 280.905 L 285.807 280.905"/><path d="M 290.145 288.392 A 5 5 0 0 0 285.807 280.905"/><path d="M 183.035 386.958 L 144.435 280.905"/><path d="M 178.337 393.669 A 5 5 0 0 0 183.035 386.958"/><path d="M 216.918 416.155 L 290.145 288.392"/><path d="M 212.58 418.669 A 5 5 0 0 0 216.918 416.155"/><path d="M 140.478 393.669 L 178.337 393.669"/><path d="M 140.478 393.669 A 5 5 0 0 0 135.478 398.669"/><path d="M 140.478 418.669 L 212.58 418.669"/><path d="M 135.478 413.669 L 135.478 398.669"/><path d="M 135.478 413.669 A 5 5 0 0 0 140.478 418.669"/><path d="M 252.845 278.675 A 5 5 0 0 0 257.845 273.675"/><path d="M 257.845 193.675 L 257.845 273.675"/><path d="M 257.845 193.675 A 5 5 0 0 0 252.845 188.675"/><path d="M 252.845 188.675 L 147.845 188.675"/><path d="M 147.845 188.675 A 5 5 0 0 0 142.845 193.675"/><path d="M 147.845 278.675 L 252.845 278.675"/><path d="M 142.845 273.675 L 142.845 193.675"/><path d="M 142.845 273.675 A 5 5 0 0 0 147.845 278.675"/><path d="M 174.832 5.99866 A 5 5 0 0 0 169.832 10.9987"/><path d="M 174.832 5.99866 L 264.832 5.99866"/><path d="M 269.832 10.9987 A 5 5 0 0 0 264.832 5.99866"/><path d="M 169.832 10.9987 L 169.832 180.999"/><path d="M 169.832 180.999 A 5 5 0 0 0 174.832 185.999"/><path d="M 269.832 180.999 L 269.832 10.9987"/><path d="M 264.832 185.999 L 174.832 185.999"/><path d="M 264.832 185.999 A 5 5 0 0 0 269.832 180.999"/></g><g stroke="rgb(0, 0, 0)" stroke-width="0.13" stroke-linecap="butt" stroke-linejoin="miter" fill="none"><path d="M 263.259 236.754 L 263.658 236.678 L 263.965 236.461 L 264.157 236.118 L 264.228 235.664 L 264.192 235.367 L 264.101 235.099 L 263.945 234.873 L 263.723 234.681 L 263.446 234.53 L 263.103 234.419 L 262.71 234.353 L 262.256 234.328 L 261.545 234.414 L 261.025 234.661 L 260.712 235.054 L 260.601 235.594 L 260.692 236.088 L 260.934 236.461 L 261.308 236.703 L 261.777 236.784 L 262.261 236.703 L 262.629 236.466 L 262.861 236.113 L 262.936 235.664 L 262.841 235.19 L 262.548 234.832 L 263.108 234.913 L 263.506 235.074 L 263.743 235.321 L 263.819 235.659 L 263.784 235.922 L 263.673 236.113 L 263.496 236.239 L 263.259 236.29 L 263.259 236.754 L 263.259 236.754 z M 261.771 236.295 L 261.459 236.244 L 261.212 236.103 L 261.055 235.881 L 261 235.594 L 261.055 235.296 L 261.212 235.069 L 261.454 234.928 L 261.766 234.873 L 262.084 234.928 L 262.321 235.069 L 262.467 235.301 L 262.518 235.609 L 262.467 235.886 L 262.321 236.103 L 262.089 236.244 L 261.771 236.295 L 261.771 236.295 z M 262.417 233.023 L 263.209 232.947 L 263.774 232.71 L 264.117 232.332 L 264.228 231.807 L 264.117 231.288 L 263.774 230.91 L 263.209 230.678 L 262.417 230.597 L 261.63 230.678 L 261.318 230.773 L 261.06 230.91 L 260.717 231.288 L 260.601 231.807 L 260.717 232.332 L 261.065 232.71 L 261.63 232.947 L 262.417 233.023 L 262.417 233.023 z M 262.417 232.539 L 261.807 232.498 L 261.368 232.372 L 261.111 232.145 L 261.02 231.807 L 261.111 231.474 L 261.368 231.247 L 261.807 231.121 L 262.417 231.081 L 263.032 231.121 L 263.471 231.247 L 263.728 231.474 L 263.814 231.807 L 263.728 232.145 L 263.471 232.372 L 263.032 232.498 L 262.417 232.539 L 262.417 232.539 z" stroke="none" fill-rule="evenodd" fill="rgb(0, 0, 0)"/><path d="M 266.644 190.607 L 266.127 188.675 L 265.609 190.607"/><path d="M 265.609 276.743 L 266.127 278.675 L 266.644 276.743"/><path d="M 266.127 278.675 L 266.127 188.675"/></g></svg>