<?xml version="1.0" encoding="utf-8" ?><!DOCTYPE svg PUBLIC "-//W3C//DTD SVG 1.1//EN" "http://www.w3.org/Graphics/SVG/1.1/DTD/svg11.dtd" 
[ <!ATTLIST svg 
  xmlns:dsy CDATA #FIXED "http://www.3ds.com/print"  
    dsy:text-version CDATA #IMPLIED > 

  <!ATTLIST text 
  xmlns:dsy CDATA #FIXED "http://www.3ds.com/print" 
    dsy:text-version CDATA #IMPLIED > 
]><svg xmlns="http://www.w3.org/2000/svg" xmlns:dsy="http://www.3ds.com/print" dsy:text-version="18000" width="420" height="297" viewBox="0 0 420 297" version="1.1"><g stroke="rgb(0, 0, 0)" stroke-width="0.13" stroke-linecap="butt" stroke-linejoin="miter" fill="none"><path d="M 254.66 148.121 L 262.488 148.121"/><path d="M 254.66 98.1205 L 262.488 98.1205"/></g><g stroke="rgb(0, 0, 0)" stroke-width="0.35" stroke-linecap="butt" stroke-linejoin="miter" fill="none"><path d="M 25.5813 14.9037 A 5 5 0 0 0 20.5813 19.9037"/><path d="M 20.5813 19.9037 L 20.5813 129.904"/><path d="M 20.5813 129.904 A 5 5 0 0 0 25.5813 134.904"/><path d="M 165.581 134.904 L 25.5813 134.904"/><path d="M 165.581 134.904 A 5 5 0 0 0 170.581 129.904"/><path d="M 25.5813 14.9037 L 165.581 14.9037"/><path d="M 170.581 129.904 L 170.581 19.9037"/><path d="M 170.581 19.9037 A 5 5 0 0 0 165.581 14.9037"/><path d="M 252.66 148.121 L 172.66 98.1205"/><path d="M 252.66 98.1205 L 252.66 148.121"/><path d="M 172.66 98.1205 L 252.66 98.1205"/><path d="M 322.92 95.5909 L 172.92 95.5909"/><path d="M 172.92 20.5909 L 172.92 95.5909"/><path d="M 177.92 15.5909 A 5 5 0 0 0 172.92 20.5909"/><path d="M 322.92 95.5909 L 322.92 20.5909"/><path d="M 177.92 15.5909 L 317.92 15.5909"/><path d="M 322.92 20.5909 A 5 5 0 0 0 317.92 15.5909"/><path d="M 160.645 205.453 L 160.645 175.453"/><path d="M 35.6119 149.453 A 8 8 0 0 0 24.6837 152.381"/><path d="M 24.6837 152.381 L 17.6837 164.506"/><path d="M 17.6837 164.506 A 8 8 0 0 0 20.6119 175.434"/><path d="M 160.645 175.453 L 82.7888 175.453"/><path d="M 78.7888 174.381 L 35.6119 149.453"/><path d="M 78.7888 174.381 A 8 8 0 0 0 82.7888 175.453"/><path d="M 74.7503 205.453 L 160.645 205.453"/><path d="M 20.6119 175.434 L 70.7503 204.381"/><path d="M 70.7503 204.381 A 8 8 0 0 0 74.7503 205.453"/><path d="M 171.752 99.0343 L 251.752 149.034"/><path d="M 171.752 149.034 L 171.752 99.0343"/><path d="M 251.752 149.034 L 171.752 149.034"/><path d="M 208.881 200.788 L 128.881 150.788"/><path d="M 208.881 150.788 L 208.881 200.788"/><path d="M 128.881 150.788 L 208.881 150.788"/><path d="M 151.843 237.618 L 151.843 207.618"/><path d="M 26.8093 181.618 A 8 8 0 0 0 15.8811 184.546"/><path d="M 15.8811 184.546 L 8.8811 196.671"/><path d="M 8.88111 196.671 A 8 8 0 0 0 11.8093 207.599"/><path d="M 151.843 207.618 L 73.9862 207.618"/><path d="M 69.9862 206.546 L 26.8093 181.618"/><path d="M 69.9862 206.546 A 8 8 0 0 0 73.9862 207.618"/><path d="M 65.9477 237.618 L 151.843 237.618"/><path d="M 11.8093 207.599 L 61.9477 236.546"/><path d="M 61.9477 236.546 A 8 8 0 0 0 65.9477 237.618"/></g><g stroke="rgb(0, 0, 0)" stroke-width="0.13" stroke-linecap="butt" stroke-linejoin="miter" fill="none"><path d="M 257.576 126.239 L 257.989 126.128 L 258.312 125.881 L 258.514 125.518 L 258.589 125.054 L 258.499 124.545 L 258.251 124.146 L 257.858 123.894 L 257.354 123.798 L 256.885 123.884 L 256.517 124.126 L 256.28 124.504 L 256.194 124.994 L 256.254 125.372 L 256.421 125.664 L 255.478 125.523 L 255.478 123.99 L 255.064 123.99 L 255.064 125.861 L 256.92 126.138 L 256.92 125.735 L 256.683 125.442 L 256.597 125.069 L 256.653 124.746 L 256.814 124.499 L 257.061 124.343 L 257.379 124.288 L 257.697 124.343 L 257.944 124.504 L 258.1 124.752 L 258.156 125.069 L 258.12 125.337 L 258.004 125.543 L 257.823 125.695 L 257.576 125.77 L 257.576 126.239 L 257.576 126.239 z M 256.779 122.468 L 257.571 122.392 L 258.135 122.155 L 258.478 121.777 L 258.589 121.253 L 258.478 120.733 L 258.135 120.355 L 257.571 120.123 L 256.779 120.042 L 255.992 120.123 L 255.679 120.219 L 255.422 120.355 L 255.079 120.733 L 254.963 121.253 L 255.079 121.777 L 255.427 122.155 L 255.992 122.392 L 256.779 122.468 L 256.779 122.468 z M 256.779 121.984 L 256.169 121.943 L 255.73 121.817 L 255.473 121.59 L 255.382 121.253 L 255.473 120.92 L 255.73 120.693 L 256.169 120.567 L 256.779 120.526 L 257.394 120.567 L 257.833 120.693 L 258.09 120.92 L 258.176 121.253 L 258.09 121.59 L 257.833 121.817 L 257.394 121.943 L 256.779 121.984 L 256.779 121.984 z" stroke="none" fill-rule="evenodd" fill="rgb(0, 0, 0)"/><path d="M 259.971 146.189 L 260.488 148.121 L 261.006 146.189"/><path d="M 261.006 100.052 L 260.488 98.1205 L 259.971 100.052"/><path d="M 260.488 148.121 L 260.488 98.1205"/></g></svg>