<?xml version="1.0" encoding="utf-8"?>
<!-- Generator: Adobe Illustrator 22.0.1, SVG Export Plug-In . SVG Version: 6.00 Build 0)  -->
<svg version="1.1" id="LETTRAGE" xmlns="http://www.w3.org/2000/svg" xmlns:xlink="http://www.w3.org/1999/xlink" x="0px" y="0px"
	 viewBox="0 0 1700.8 1474" style="enable-background:new 0 0 1700.8 1474;" xml:space="preserve">
<style type="text/css">
	.st0{fill:none;stroke:#000000;stroke-width:0.2835;stroke-miterlimit:10;}
</style>
<g>
	<g>
		<g>
			<path class="st0" d="M260,157.5v183c0,29.2,4.8,48.9,14.3,62.5c14.3,19.5,34.3,29.3,60.2,29.3c26,0,46.1-9.8,60.4-29.3
				c9.6-13.1,14.3-32.8,14.3-62.5v-183h51.4V353c0,35.9-11.2,65.4-33.5,88.6c-25.1,25.9-56,38.8-92.6,38.8
				c-36.6,0-67.4-12.9-92.4-38.8c-22.3-23.2-33.5-52.8-33.5-88.6V157.5H260z"/>
			<path class="st0" d="M541.3,177v296.6h51.8V153.5c0-2.5-2.7-4.1-4.9-2.8L541.3,177z"/>
			<path class="st0" d="M1001.2,473.6h-52V270.9c0-3-1.8-3.8-3.2-2.3L837.4,379.2c-0.6,0.6-1.5,0.6-2.1,0L726.8,268.6
				c-1.5-1.5-3.2-0.7-3.2,2.3v202.7h-52V153.5c0-2.9,3.5-4.3,5.5-2.3l158.2,158.2c0.7,0.7,1.5,0.7,2.1,0l158.2-158.2
				c2-2,5.5-0.6,5.5,2.3V473.6z"/>
			<path class="st0" d="M1407.4,473.6h-52V270.9c0-3-1.8-3.8-3.2-2.3l-108.5,110.7c-0.6,0.6-1.5,0.6-2.1,0l-108.5-110.7
				c-1.5-1.5-3.2-0.7-3.2,2.3v202.7h-52V153.5c0-2.9,3.5-4.3,5.5-2.3l158.2,158.2c0.7,0.7,1.5,0.7,2.1,0l158.2-158.2
				c2-2,5.5-0.6,5.5,2.3V473.6z"/>
		</g>
	</g>
</g>
</svg>
