solid CATIA STL
  facet normal  0.000000e+000  0.000000e+000  1.000000e+000
    outer loop
      vertex  0.000000e+000  9.410000e+001  8.000000e-001
      vertex  7.970000e+001  9.410000e+001  8.000000e-001
      vertex  0.000000e+000  1.088000e+002  8.000000e-001
    endloop
  endfacet
  facet normal  -0.000000e+000  0.000000e+000  1.000000e+000
    outer loop
      vertex  0.000000e+000  1.088000e+002  8.000000e-001
      vertex  7.970000e+001  9.410000e+001  8.000000e-001
      vertex  7.970000e+001  1.088000e+002  8.000000e-001
    endloop
  endfacet
  facet normal  0.000000e+000  0.000000e+000 -1.000000e+000
    outer loop
      vertex  0.000000e+000  9.410000e+001  0.000000e+000
      vertex  0.000000e+000  1.088000e+002  0.000000e+000
      vertex  7.970000e+001  9.410000e+001  0.000000e+000
    endloop
  endfacet
  facet normal  0.000000e+000  0.000000e+000 -1.000000e+000
    outer loop
      vertex  7.970000e+001  9.410000e+001  0.000000e+000
      vertex  0.000000e+000  1.088000e+002  0.000000e+000
      vertex  7.970000e+001  1.088000e+002  0.000000e+000
    endloop
  endfacet
  facet normal  0.000000e+000  1.000000e+000  0.000000e+000
    outer loop
      vertex  0.000000e+000  1.088000e+002  8.000000e-001
      vertex  7.970000e+001  1.088000e+002  8.000000e-001
      vertex  0.000000e+000  1.088000e+002  0.000000e+000
    endloop
  endfacet
  facet normal  0.000000e+000  1.000000e+000  0.000000e+000
    outer loop
      vertex  0.000000e+000  1.088000e+002  0.000000e+000
      vertex  7.970000e+001  1.088000e+002  8.000000e-001
      vertex  7.970000e+001  1.088000e+002  0.000000e+000
    endloop
  endfacet
  facet normal  1.000000e+000  0.000000e+000  0.000000e+000
    outer loop
      vertex  7.970000e+001  9.410000e+001  8.000000e-001
      vertex  7.970000e+001  9.410000e+001  0.000000e+000
      vertex  7.970000e+001  1.088000e+002  8.000000e-001
    endloop
  endfacet
  facet normal  1.000000e+000  0.000000e+000  0.000000e+000
    outer loop
      vertex  7.970000e+001  1.088000e+002  8.000000e-001
      vertex  7.970000e+001  9.410000e+001  0.000000e+000
      vertex  7.970000e+001  1.088000e+002  0.000000e+000
    endloop
  endfacet
  facet normal  0.000000e+000 -1.000000e+000  0.000000e+000
    outer loop
      vertex  7.970000e+001  9.410000e+001  8.000000e-001
      vertex  0.000000e+000  9.410000e+001  8.000000e-001
      vertex  7.970000e+001  9.410000e+001  0.000000e+000
    endloop
  endfacet
  facet normal  0.000000e+000 -1.000000e+000  0.000000e+000
    outer loop
      vertex  7.970000e+001  9.410000e+001  0.000000e+000
      vertex  0.000000e+000  9.410000e+001  8.000000e-001
      vertex  0.000000e+000  9.410000e+001  0.000000e+000
    endloop
  endfacet
  facet normal -1.000000e+000  0.000000e+000  0.000000e+000
    outer loop
      vertex  0.000000e+000  1.088000e+002  8.000000e-001
      vertex  0.000000e+000  1.088000e+002  0.000000e+000
      vertex  0.000000e+000  9.410000e+001  8.000000e-001
    endloop
  endfacet
  facet normal -1.000000e+000  0.000000e+000  0.000000e+000
    outer loop
      vertex  0.000000e+000  9.410000e+001  8.000000e-001
      vertex  0.000000e+000  1.088000e+002  0.000000e+000
      vertex  0.000000e+000  9.410000e+001  0.000000e+000
    endloop
  endfacet
  facet normal  0.000000e+000  0.000000e+000  1.000000e+000
    outer loop
      vertex  0.000000e+000  6.940000e+001  8.000000e-001
      vertex  7.970000e+001  6.940000e+001  8.000000e-001
      vertex  0.000000e+000  8.410000e+001  8.000000e-001
    endloop
  endfacet
  facet normal  -0.000000e+000  0.000000e+000  1.000000e+000
    outer loop
      vertex  0.000000e+000  8.410000e+001  8.000000e-001
      vertex  7.970000e+001  6.940000e+001  8.000000e-001
      vertex  7.970000e+001  8.410000e+001  8.000000e-001
    endloop
  endfacet
  facet normal  0.000000e+000  0.000000e+000 -1.000000e+000
    outer loop
      vertex  0.000000e+000  6.940000e+001  0.000000e+000
      vertex  0.000000e+000  8.410000e+001  0.000000e+000
      vertex  7.970000e+001  6.940000e+001  0.000000e+000
    endloop
  endfacet
  facet normal  0.000000e+000  0.000000e+000 -1.000000e+000
    outer loop
      vertex  7.970000e+001  6.940000e+001  0.000000e+000
      vertex  0.000000e+000  8.410000e+001  0.000000e+000
      vertex  7.970000e+001  8.410000e+001  0.000000e+000
    endloop
  endfacet
  facet normal  0.000000e+000  1.000000e+000  0.000000e+000
    outer loop
      vertex  0.000000e+000  8.410000e+001  8.000000e-001
      vertex  7.970000e+001  8.410000e+001  8.000000e-001
      vertex  0.000000e+000  8.410000e+001  0.000000e+000
    endloop
  endfacet
  facet normal  0.000000e+000  1.000000e+000  0.000000e+000
    outer loop
      vertex  0.000000e+000  8.410000e+001  0.000000e+000
      vertex  7.970000e+001  8.410000e+001  8.000000e-001
      vertex  7.970000e+001  8.410000e+001  0.000000e+000
    endloop
  endfacet
  facet normal  1.000000e+000  0.000000e+000  0.000000e+000
    outer loop
      vertex  7.970000e+001  6.940000e+001  8.000000e-001
      vertex  7.970000e+001  6.940000e+001  0.000000e+000
      vertex  7.970000e+001  8.410000e+001  8.000000e-001
    endloop
  endfacet
  facet normal  1.000000e+000  0.000000e+000  0.000000e+000
    outer loop
      vertex  7.970000e+001  8.410000e+001  8.000000e-001
      vertex  7.970000e+001  6.940000e+001  0.000000e+000
      vertex  7.970000e+001  8.410000e+001  0.000000e+000
    endloop
  endfacet
  facet normal  0.000000e+000 -1.000000e+000  0.000000e+000
    outer loop
      vertex  7.970000e+001  6.940000e+001  8.000000e-001
      vertex  0.000000e+000  6.940000e+001  8.000000e-001
      vertex  7.970000e+001  6.940000e+001  0.000000e+000
    endloop
  endfacet
  facet normal  0.000000e+000 -1.000000e+000  0.000000e+000
    outer loop
      vertex  7.970000e+001  6.940000e+001  0.000000e+000
      vertex  0.000000e+000  6.940000e+001  8.000000e-001
      vertex  0.000000e+000  6.940000e+001  0.000000e+000
    endloop
  endfacet
  facet normal -1.000000e+000  0.000000e+000  0.000000e+000
    outer loop
      vertex  0.000000e+000  8.410000e+001  8.000000e-001
      vertex  0.000000e+000  8.410000e+001  0.000000e+000
      vertex  0.000000e+000  6.940000e+001  8.000000e-001
    endloop
  endfacet
  facet normal -1.000000e+000  0.000000e+000  0.000000e+000
    outer loop
      vertex  0.000000e+000  6.940000e+001  8.000000e-001
      vertex  0.000000e+000  8.410000e+001  0.000000e+000
      vertex  0.000000e+000  6.940000e+001  0.000000e+000
    endloop
  endfacet
  facet normal  0.000000e+000  0.000000e+000  1.000000e+000
    outer loop
      vertex  0.000000e+000  2.970000e+001  8.000000e-001
      vertex  7.970000e+001  2.970000e+001  8.000000e-001
      vertex  0.000000e+000  5.940000e+001  8.000000e-001
    endloop
  endfacet
  facet normal  -0.000000e+000  0.000000e+000  1.000000e+000
    outer loop
      vertex  0.000000e+000  5.940000e+001  8.000000e-001
      vertex  7.970000e+001  2.970000e+001  8.000000e-001
      vertex  7.970000e+001  5.940000e+001  8.000000e-001
    endloop
  endfacet
  facet normal  0.000000e+000  0.000000e+000 -1.000000e+000
    outer loop
      vertex  0.000000e+000  2.970000e+001  0.000000e+000
      vertex  0.000000e+000  5.940000e+001  0.000000e+000
      vertex  7.970000e+001  2.970000e+001  0.000000e+000
    endloop
  endfacet
  facet normal  0.000000e+000  0.000000e+000 -1.000000e+000
    outer loop
      vertex  7.970000e+001  2.970000e+001  0.000000e+000
      vertex  0.000000e+000  5.940000e+001  0.000000e+000
      vertex  7.970000e+001  5.940000e+001  0.000000e+000
    endloop
  endfacet
  facet normal  0.000000e+000  1.000000e+000  0.000000e+000
    outer loop
      vertex  0.000000e+000  5.940000e+001  8.000000e-001
      vertex  7.970000e+001  5.940000e+001  8.000000e-001
      vertex  0.000000e+000  5.940000e+001  0.000000e+000
    endloop
  endfacet
  facet normal  0.000000e+000  1.000000e+000  0.000000e+000
    outer loop
      vertex  0.000000e+000  5.940000e+001  0.000000e+000
      vertex  7.970000e+001  5.940000e+001  8.000000e-001
      vertex  7.970000e+001  5.940000e+001  0.000000e+000
    endloop
  endfacet
  facet normal  9.999999e-001  0.000000e+000  0.000000e+000
    outer loop
      vertex  7.970000e+001  2.970000e+001  8.000000e-001
      vertex  7.970000e+001  2.970000e+001  0.000000e+000
      vertex  7.970000e+001  5.940000e+001  8.000000e-001
    endloop
  endfacet
  facet normal  9.999999e-001  0.000000e+000  0.000000e+000
    outer loop
      vertex  7.970000e+001  5.940000e+001  8.000000e-001
      vertex  7.970000e+001  2.970000e+001  0.000000e+000
      vertex  7.970000e+001  5.940000e+001  0.000000e+000
    endloop
  endfacet
  facet normal  0.000000e+000 -1.000000e+000  0.000000e+000
    outer loop
      vertex  7.970000e+001  2.970000e+001  8.000000e-001
      vertex  0.000000e+000  2.970000e+001  8.000000e-001
      vertex  7.970000e+001  2.970000e+001  0.000000e+000
    endloop
  endfacet
  facet normal  0.000000e+000 -1.000000e+000  0.000000e+000
    outer loop
      vertex  7.970000e+001  2.970000e+001  0.000000e+000
      vertex  0.000000e+000  2.970000e+001  8.000000e-001
      vertex  0.000000e+000  2.970000e+001  0.000000e+000
    endloop
  endfacet
  facet normal -9.999999e-001  0.000000e+000  0.000000e+000
    outer loop
      vertex  0.000000e+000  5.940000e+001  8.000000e-001
      vertex  0.000000e+000  5.940000e+001  0.000000e+000
      vertex  0.000000e+000  2.970000e+001  8.000000e-001
    endloop
  endfacet
  facet normal -9.999999e-001  0.000000e+000  0.000000e+000
    outer loop
      vertex  0.000000e+000  2.970000e+001  8.000000e-001
      vertex  0.000000e+000  5.940000e+001  0.000000e+000
      vertex  0.000000e+000  2.970000e+001  0.000000e+000
    endloop
  endfacet
  facet normal  0.000000e+000  0.000000e+000  1.000000e+000
    outer loop
      vertex  0.000000e+000  0.000000e+000  8.000000e-001
      vertex  1.497000e+002  0.000000e+000  8.000000e-001
      vertex  0.000000e+000  1.970000e+001  8.000000e-001
    endloop
  endfacet
  facet normal  -0.000000e+000  0.000000e+000  1.000000e+000
    outer loop
      vertex  0.000000e+000  1.970000e+001  8.000000e-001
      vertex  1.497000e+002  0.000000e+000  8.000000e-001
      vertex  1.497000e+002  1.970000e+001  8.000000e-001
    endloop
  endfacet
  facet normal  0.000000e+000  0.000000e+000 -1.000000e+000
    outer loop
      vertex  0.000000e+000  0.000000e+000  0.000000e+000
      vertex  0.000000e+000  1.970000e+001  0.000000e+000
      vertex  1.497000e+002  0.000000e+000  0.000000e+000
    endloop
  endfacet
  facet normal  0.000000e+000  0.000000e+000 -1.000000e+000
    outer loop
      vertex  1.497000e+002  0.000000e+000  0.000000e+000
      vertex  0.000000e+000  1.970000e+001  0.000000e+000
      vertex  1.497000e+002  1.970000e+001  0.000000e+000
    endloop
  endfacet
  facet normal -1.000000e+000  0.000000e+000  0.000000e+000
    outer loop
      vertex  0.000000e+000  1.970000e+001  8.000000e-001
      vertex  0.000000e+000  1.970000e+001  0.000000e+000
      vertex  0.000000e+000  0.000000e+000  8.000000e-001
    endloop
  endfacet
  facet normal -1.000000e+000  0.000000e+000  0.000000e+000
    outer loop
      vertex  0.000000e+000  0.000000e+000  8.000000e-001
      vertex  0.000000e+000  1.970000e+001  0.000000e+000
      vertex  0.000000e+000  0.000000e+000  0.000000e+000
    endloop
  endfacet
  facet normal  0.000000e+000  1.000000e+000  -0.000000e+000
    outer loop
      vertex  1.497000e+002  1.970000e+001  8.000000e-001
      vertex  1.497000e+002  1.970000e+001  0.000000e+000
      vertex  0.000000e+000  1.970000e+001  8.000000e-001
    endloop
  endfacet
  facet normal  0.000000e+000  1.000000e+000  0.000000e+000
    outer loop
      vertex  0.000000e+000  1.970000e+001  8.000000e-001
      vertex  1.497000e+002  1.970000e+001  0.000000e+000
      vertex  0.000000e+000  1.970000e+001  0.000000e+000
    endloop
  endfacet
  facet normal  1.000000e+000  0.000000e+000  0.000000e+000
    outer loop
      vertex  1.497000e+002  0.000000e+000  8.000000e-001
      vertex  1.497000e+002  0.000000e+000  0.000000e+000
      vertex  1.497000e+002  1.970000e+001  8.000000e-001
    endloop
  endfacet
  facet normal  1.000000e+000  0.000000e+000  0.000000e+000
    outer loop
      vertex  1.497000e+002  1.970000e+001  8.000000e-001
      vertex  1.497000e+002  0.000000e+000  0.000000e+000
      vertex  1.497000e+002  1.970000e+001  0.000000e+000
    endloop
  endfacet
  facet normal  0.000000e+000 -1.000000e+000  0.000000e+000
    outer loop
      vertex  0.000000e+000  0.000000e+000  8.000000e-001
      vertex  0.000000e+000  0.000000e+000  0.000000e+000
      vertex  1.497000e+002  0.000000e+000  8.000000e-001
    endloop
  endfacet
  facet normal  0.000000e+000 -1.000000e+000  -0.000000e+000
    outer loop
      vertex  1.497000e+002  0.000000e+000  8.000000e-001
      vertex  0.000000e+000  0.000000e+000  0.000000e+000
      vertex  1.497000e+002  0.000000e+000  0.000000e+000
    endloop
  endfacet
endsolid CATIA STL
