  0
SECTION
  2
HEADER
  9
$ACADVER
  1
AC1006
  9
$EXTMIN
 10
0.000000
 20
0.000000
 30
0.000000
  9
$EXTMAX
 10
895.000000
 20
283.000000
 30
0.000000
  0
ENDSEC
  0
SECTION
  2
ENTITIES
  0
POLYLINE
  8
0
 66
1
 70
1
  0
VERTEX
  8
0
 10
248.269695
 20
281.517413
 42
0.050804
  0
VERTEX
  8
0
 10
246.885951
 20
280.740492
 42
0.029648
  0
VERTEX
  8
0
 10
245.396104
 20
279.554323
 42
0.029392
  0
VERTEX
  8
0
 10
244.031069
 20
278.175437
 42
0.043546
  0
VERTEX
  8
0
 10
243.023433
 20
276.806555
 42
0.119564
  0
VERTEX
  8
0
 10
241.746596
 20
272.813817
 42
0.012131
  0
VERTEX
  8
0
 10
241.272758
 20
262.793770
 42
0.005395
  0
VERTEX
  8
0
 10
241.043842
 20
244.035913
 42
0.000342
  0
VERTEX
  8
0
 10
241.003738
 20
188.984398
 42
0.000385
  0
VERTEX
  8
0
 10
241.042143
 20
136.030531
 42
0.004875
  0
VERTEX
  8
0
 10
241.266287
 20
116.098731
 42
0.009217
  0
VERTEX
  8
0
 10
241.700436
 20
105.093402
 42
0.108065
  0
VERTEX
  8
0
 10
242.851611
 20
100.984398
 42
0.140090
  0
VERTEX
  8
0
 10
248.559959
 20
95.059915
 42
0.132493
  0
VERTEX
  8
0
 10
256.664844
 20
92.885131
 42
0.133792
  0
VERTEX
  8
0
 10
264.704011
 20
95.086690
 42
0.143960
  0
VERTEX
  8
0
 10
270.248446
 20
101.019933
 42
0.080936
  0
VERTEX
  8
0
 10
271.219103
 20
104.113256
 42
0.023065
  0
VERTEX
  8
0
 10
271.705325
 20
109.140334
 42
0.011106
  0
VERTEX
  8
0
 10
271.944761
 20
117.662636
 42
0.001457
  0
VERTEX
  8
0
 10
271.998446
 20
135.782119
 42
-0.002854
  0
VERTEX
  8
0
 10
272.126838
 20
158.083032
 42
-0.031356
  0
VERTEX
  8
0
 10
272.789471
 20
167.002268
 42
-0.085305
  0
VERTEX
  8
0
 10
274.391627
 20
172.055205
 42
-0.107166
  0
VERTEX
  8
0
 10
277.513679
 20
175.832100
 42
-0.099654
  0
VERTEX
  8
0
 10
280.803840
 20
177.494556
 42
-0.066972
  0
VERTEX
  8
0
 10
284.989820
 20
178.065112
 42
-0.067040
  0
VERTEX
  8
0
 10
289.172738
 20
177.509068
 42
-0.100456
  0
VERTEX
  8
0
 10
292.453596
 20
175.857842
 42
-0.072435
  0
VERTEX
  8
0
 10
294.202582
 20
174.016434
 42
-0.001316
  0
VERTEX
  8
0
 10
301.983750
 20
162.940304
 42
-0.003236
  0
VERTEX
  8
0
 10
310.951521
 20
149.924768
 42
-0.002152
  0
VERTEX
  8
0
 10
321.072447
 20
134.891383
 42
0.002493
  0
VERTEX
  8
0
 10
331.289496
 20
119.737562
 42
0.003925
  0
VERTEX
  8
0
 10
340.229170
 20
106.838677
 42
0.001570
  0
VERTEX
  8
0
 10
347.951010
 20
95.954411
 42
0.092929
  0
VERTEX
  8
0
 10
349.690462
 20
94.283542
 42
0.091018
  0
VERTEX
  8
0
 10
352.651564
 20
93.037093
 42
0.056428
  0
VERTEX
  8
0
 10
356.414666
 20
92.643726
 42
0.056181
  0
VERTEX
  8
0
 10
360.193982
 20
93.102599
 42
0.086961
  0
VERTEX
  8
0
 10
363.206335
 20
94.399540
 42
0.172237
  0
VERTEX
  8
0
 10
366.775053
 20
99.097573
 42
0.061357
  0
VERTEX
  8
0
 10
368.355867
 20
107.501078
 42
0.015207
  0
VERTEX
  8
0
 10
368.921949
 20
124.665098
 42
0.000640
  0
VERTEX
  8
0
 10
369.000000
 20
185.689239
 42
0.000000
  0
VERTEX
  8
0
 10
369.000000
 20
268.576220
 42
0.000000
  0
VERTEX
  8
0
 10
366.750000
 20
273.015232
 42
0.062309
  0
VERTEX
  8
0
 10
364.307403
 20
276.635182
 42
0.076169
  0
VERTEX
  8
0
 10
361.189219
 20
279.265376
 42
0.075937
  0
VERTEX
  8
0
 10
357.418403
 20
280.846696
 42
0.061452
  0
VERTEX
  8
0
 10
353.058181
 20
281.384615
 42
0.056525
  0
VERTEX
  8
0
 10
349.130786
 20
280.939202
 42
0.068577
  0
VERTEX
  8
0
 10
345.669307
 20
279.625220
 42
0.066984
  0
VERTEX
  8
0
 10
342.630636
 20
277.393316
 42
0.050675
  0
VERTEX
  8
0
 10
339.954288
 20
274.230368
 42
0.000000
  0
VERTEX
  8
0
 10
337.500000
 20
270.650599
 42
0.000000
  0
VERTEX
  8
0
 10
337.000000
 20
237.575300
 42
-0.001926
  0
VERTEX
  8
0
 10
336.697547
 20
221.631268
 42
-0.006883
  0
VERTEX
  8
0
 10
336.324531
 20
211.439944
 42
-0.006296
  0
VERTEX
  8
0
 10
335.882108
 20
204.420152
 42
-0.111347
  0
VERTEX
  8
0
 10
335.220356
 20
202.260350
 42
-0.124753
  0
VERTEX
  8
0
 10
332.385430
 20
199.321011
 42
-0.080135
  0
VERTEX
  8
0
 10
327.990136
 20
197.486877
 42
-0.075933
  0
VERTEX
  8
0
 10
322.989573
 20
197.066726
 42
-0.090187
  0
VERTEX
  8
0
 10
318.402068
 20
198.226575
 42
-0.127860
  0
VERTEX
  8
0
 10
316.370583
 20
199.875636
 42
-0.003957
  0
VERTEX
  8
0
 10
310.010317
 20
208.660071
 42
-0.005823
  0
VERTEX
  8
0
 10
301.415287
 20
221.033468
 42
-0.001815
  0
VERTEX
  8
0
 10
288.799330
 20
239.800868
 42
0.001307
  0
VERTEX
  8
0
 10
273.853731
 20
262.082676
 42
0.008613
  0
VERTEX
  8
0
 10
266.153551
 20
273.084337
 42
0.013057
  0
VERTEX
  8
0
 10
261.224799
 20
279.514188
 42
0.124360
  0
VERTEX
  8
0
 10
258.476434
 20
281.574293
 42
0.030315
  0
VERTEX
  8
0
 10
255.607482
 20
282.573576
 42
0.070147
  0
VERTEX
  8
0
 10
253.351952
 20
282.878769
 42
0.070454
  0
VERTEX
  8
0
 10
251.106024
 20
282.547944
 42
0.030799
  0
SEQEND
  0
POLYLINE
  8
0
 66
1
 70
1
  0
VERTEX
  8
0
 10
609.619302
 20
282.009332
 42
0.086847
  0
VERTEX
  8
0
 10
605.491907
 20
279.870748
 42
0.073764
  0
VERTEX
  8
0
 10
602.062828
 20
276.350076
 42
0.073234
  0
VERTEX
  8
0
 10
599.783636
 20
271.958790
 42
0.083329
  0
VERTEX
  8
0
 10
599.000000
 20
267.289361
 42
0.094467
  0
VERTEX
  8
0
 10
600.134300
 20
261.339287
 42
0.000239
  0
VERTEX
  8
0
 10
631.675642
 20
181.730670
 42
0.000252
  0
VERTEX
  8
0
 10
663.242315
 20
102.286140
 42
0.089449
  0
VERTEX
  8
0
 10
666.613719
 20
96.874342
 42
0.126233
  0
VERTEX
  8
0
 10
670.607471
 20
94.234322
 42
0.093244
  0
VERTEX
  8
0
 10
675.870010
 20
93.455071
 42
0.092943
  0
VERTEX
  8
0
 10
681.071138
 20
94.641639
 42
0.124291
  0
VERTEX
  8
0
 10
684.889330
 20
97.586435
 42
0.068884
  0
VERTEX
  8
0
 10
686.106620
 20
99.668950
 42
0.000312
  0
VERTEX
  8
0
 10
695.820547
 20
123.247515
 42
0.001481
  0
VERTEX
  8
0
 10
706.771680
 20
150.102066
 42
0.000934
  0
VERTEX
  8
0
 10
719.404967
 20
181.514601
 42
0.000840
  0
VERTEX
  8
0
 10
742.757650
 20
240.181107
 42
0.015750
  0
VERTEX
  8
0
 10
749.486009
 20
258.865195
 42
0.055441
  0
VERTEX
  8
0
 10
751.541410
 20
268.831254
 42
0.162969
  0
VERTEX
  8
0
 10
749.962291
 20
275.561014
 42
0.083719
  0
VERTEX
  8
0
 10
747.158882
 20
278.753347
 42
0.065807
  0
VERTEX
  8
0
 10
743.231783
 20
281.170273
 42
0.065038
  0
VERTEX
  8
0
 10
738.760914
 20
282.506304
 42
0.077490
  0
VERTEX
  8
0
 10
734.364116
 20
282.531894
 42
0.127168
  0
VERTEX
  8
0
 10
728.412920
 20
280.002927
 42
0.101907
  0
VERTEX
  8
0
 10
723.844120
 20
274.718281
 42
0.031028
  0
VERTEX
  8
0
 10
718.420524
 20
263.425167
 42
0.002072
  0
VERTEX
  8
0
 10
705.045102
 20
230.087474
 42
-0.002259
  0
VERTEX
  8
0
 10
697.977733
 20
212.491369
 42
-0.003457
  0
VERTEX
  8
0
 10
691.677123
 20
197.308538
 42
-0.001281
  0
VERTEX
  8
0
 10
686.141891
 20
184.319196
 42
-0.087420
  0
VERTEX
  8
0
 10
684.836759
 20
182.326238
 42
-0.049405
  0
VERTEX
  8
0
 10
683.722544
 20
181.353171
 42
-0.026400
  0
VERTEX
  8
0
 10
682.178192
 20
180.371201
 42
-0.026016
  0
VERTEX
  8
0
 10
680.480359
 20
179.526724
 42
-0.036641
  0
VERTEX
  8
0
 10
678.884807
 20
178.968982
 42
-0.086480
  0
VERTEX
  8
0
 10
675.161697
 20
178.631110
 42
-0.067820
  0
VERTEX
  8
0
 10
671.196144
 20
179.507324
 42
-0.069452
  0
VERTEX
  8
0
 10
667.704937
 20
181.376569
 42
-0.102096
  0
VERTEX
  8
0
 10
665.373113
 20
183.945516
 42
-0.034532
  0
VERTEX
  8
0
 10
664.313338
 20
186.060409
 42
-0.000500
  0
VERTEX
  8
0
 10
658.911599
 20
199.035533
 42
-0.001374
  0
VERTEX
  8
0
 10
652.698667
 20
214.118297
 42
-0.000906
  0
VERTEX
  8
0
 10
645.633070
 20
231.495666
 42
0.001103
  0
VERTEX
  8
0
 10
634.931542
 20
257.785744
 42
0.009399
  0
VERTEX
  8
0
 10
629.885134
 20
269.473892
 42
0.019066
  0
VERTEX
  8
0
 10
626.597544
 20
276.035037
 42
0.098904
  0
VERTEX
  8
0
 10
624.000000
 20
279.120227
 42
0.064357
  0
VERTEX
  8
0
 10
620.804582
 20
281.058734
 42
0.054679
  0
VERTEX
  8
0
 10
617.040954
 20
282.254005
 42
0.055375
  0
VERTEX
  8
0
 10
613.160114
 20
282.594940
 42
0.070564
  0
SEQEND
  0
POLYLINE
  8
0
 66
1
 70
1
  0
VERTEX
  8
0
 10
813.500000
 20
282.097146
 42
0.043568
  0
VERTEX
  8
0
 10
812.573809
 20
281.590047
 42
0.018332
  0
VERTEX
  8
0
 10
811.421146
 20
280.758996
 42
0.017973
  0
VERTEX
  8
0
 10
810.246641
 20
279.775187
 42
0.022330
  0
VERTEX
  8
0
 10
809.231561
 20
278.775280
 42
0.090702
  0
VERTEX
  8
0
 10
806.862395
 20
275.057533
 42
0.000129
  0
VERTEX
  8
0
 10
775.616459
 20
198.213852
 42
0.000372
  0
VERTEX
  8
0
 10
745.758939
 20
124.573196
 42
0.029713
  0
VERTEX
  8
0
 10
741.782482
 20
112.773441
 42
0.136325
  0
VERTEX
  8
0
 10
741.824524
 20
104.910463
 42
0.129110
  0
VERTEX
  8
0
 10
745.898430
 20
98.006999
 42
0.128391
  0
VERTEX
  8
0
 10
752.860094
 20
93.970145
 42
0.134079
  0
VERTEX
  8
0
 10
760.785107
 20
93.942135
 42
0.132272
  0
VERTEX
  8
0
 10
765.961916
 20
96.947912
 42
0.072793
  0
VERTEX
  8
0
 10
770.344503
 20
102.878637
 42
0.025081
  0
VERTEX
  8
0
 10
775.967932
 20
114.795142
 42
0.002103
  0
VERTEX
  8
0
 10
788.815451
 20
146.358431
 42
-0.002275
  0
VERTEX
  8
0
 10
795.940086
 20
163.844695
 42
-0.003547
  0
VERTEX
  8
0
 10
802.252474
 20
178.835456
 42
-0.001378
  0
VERTEX
  8
0
 10
807.765807
 20
191.576230
 42
-0.085969
  0
VERTEX
  8
0
 10
809.112422
 20
193.619668
 42
-0.049901
  0
VERTEX
  8
0
 10
810.255689
 20
194.616115
 42
-0.026367
  0
VERTEX
  8
0
 10
811.847101
 20
195.623739
 42
-0.025959
  0
VERTEX
  8
0
 10
813.600394
 20
196.492012
 42
-0.036236
  0
VERTEX
  8
0
 10
815.252118
 20
197.067888
 42
-0.030532
  0
VERTEX
  8
0
 10
817.490414
 20
197.526250
 42
-0.067822
  0
VERTEX
  8
0
 10
819.227507
 20
197.535818
 42
-0.060270
  0
VERTEX
  8
0
 10
821.027423
 20
197.075603
 42
-0.020033
  0
VERTEX
  8
0
 10
823.527792
 20
195.986546
 42
-0.108316
  0
VERTEX
  8
0
 10
827.274403
 20
193.038764
 42
-0.060898
  0
VERTEX
  8
0
 10
830.396589
 20
188.132449
 42
-0.015792
  0
VERTEX
  8
0
 10
834.807845
 20
178.079451
 42
-0.000690
  0
VERTEX
  8
0
 10
849.041057
 20
142.500000
 42
0.002231
  0
VERTEX
  8
0
 10
860.653977
 20
113.728094
 42
0.027417
  0
VERTEX
  8
0
 10
865.726810
 20
103.033468
 42
0.082240
  0
VERTEX
  8
0
 10
869.764408
 20
97.850772
 42
0.140769
  0
VERTEX
  8
0
 10
874.627514
 20
95.410100
 42
0.096857
  0
VERTEX
  8
0
 10
881.978431
 20
95.466454
 42
0.114948
  0
VERTEX
  8
0
 10
888.276353
 20
98.352296
 42
0.119237
  0
VERTEX
  8
0
 10
892.492826
 20
103.621358
 42
0.109821
  0
VERTEX
  8
0
 10
894.000000
 20
110.400572
 42
0.090629
  0
VERTEX
  8
0
 10
893.417992
 20
113.585131
 42
0.001073
  0
VERTEX
  8
0
 10
885.836889
 20
133.503759
 42
0.002678
  0
VERTEX
  8
0
 10
875.816364
 20
159.249173
 42
0.000995
  0
VERTEX
  8
0
 10
861.458148
 20
195.352448
 42
0.000795
  0
VERTEX
  8
0
 10
844.913666
 20
236.523077
 42
0.003672
  0
VERTEX
  8
0
 10
835.125866
 20
260.264476
 42
0.002691
  0
VERTEX
  8
0
 10
828.314245
 20
276.207926
 42
0.099746
  0
VERTEX
  8
0
 10
826.069728
 20
279.433196
 42
0.080523
  0
VERTEX
  8
0
 10
823.389516
 20
281.279778
 42
0.058502
  0
VERTEX
  8
0
 10
819.952111
 20
282.440739
 42
0.059685
  0
VERTEX
  8
0
 10
816.428548
 20
282.757351
 42
0.096355
  0
SEQEND
  0
POLYLINE
  8
0
 66
1
 70
1
  0
VERTEX
  8
0
 10
9.500000
 20
281.040514
 42
0.078204
  0
VERTEX
  8
0
 10
7.256417
 20
279.663056
 42
0.032589
  0
VERTEX
  8
0
 10
4.703758
 20
277.178582
 42
0.032638
  0
VERTEX
  8
0
 10
2.437512
 20
274.309402
 42
0.060581
  0
VERTEX
  8
0
 10
1.063618
 20
271.684900
 42
0.086515
  0
VERTEX
  8
0
 10
0.542558
 20
268.955625
 42
0.000911
  0
VERTEX
  8
0
 10
0.267093
 20
249.587959
 42
0.002350
  0
VERTEX
  8
0
 10
0.071824
 20
224.228054
 42
0.000817
  0
VERTEX
  8
0
 10
0.021962
 20
187.684900
 42
0.000410
  0
VERTEX
  8
0
 10
0.077281
 20
136.986472
 42
0.005038
  0
VERTEX
  8
0
 10
0.309319
 20
117.631250
 42
0.010315
  0
VERTEX
  8
0
 10
0.765060
 20
106.963055
 42
0.090994
  0
VERTEX
  8
0
 10
1.903882
 20
102.404537
 42
0.140894
  0
VERTEX
  8
0
 10
7.184169
 20
96.214450
 42
0.134150
  0
VERTEX
  8
0
 10
15.048713
 20
93.626578
 42
0.132296
  0
VERTEX
  8
0
 10
23.221286
 20
95.384537
 42
0.135472
  0
VERTEX
  8
0
 10
29.319071
 20
101.000000
 42
0.000000
  0
VERTEX
  8
0
 10
31.500000
 20
104.500000
 42
0.000000
  0
VERTEX
  8
0
 10
31.500000
 20
187.500000
 42
0.000343
  0
VERTEX
  8
0
 10
31.462647
 20
241.912851
 42
0.005593
  0
VERTEX
  8
0
 10
31.233281
 20
260.176547
 42
0.013412
  0
VERTEX
  8
0
 10
30.742892
 20
269.866341
 42
0.113926
  0
VERTEX
  8
0
 10
29.445934
 20
273.996602
 42
0.057741
  0
VERTEX
  8
0
 10
26.868888
 20
277.411346
 42
0.068154
  0
VERTEX
  8
0
 10
23.705661
 20
279.932163
 42
0.070324
  0
VERTEX
  8
0
 10
20.069340
 20
281.453918
 42
0.067526
  0
VERTEX
  8
0
 10
16.102117
 20
281.936614
 42
0.015488
  0
VERTEX
  8
0
 10
14.193486
 20
281.851152
 42
0.014797
  0
VERTEX
  8
0
 10
12.264372
 20
281.647238
 42
0.014914
  0
VERTEX
  8
0
 10
10.573320
 20
281.366123
 42
0.050034
  0
SEQEND
  0
POLYLINE
  8
0
 66
1
 70
1
  0
VERTEX
  8
0
 10
84.009323
 20
280.144664
 42
0.050340
  0
VERTEX
  8
0
 10
82.462114
 20
279.102291
 42
0.031882
  0
VERTEX
  8
0
 10
80.880150
 20
277.607114
 42
0.030803
  0
VERTEX
  8
0
 10
79.429788
 20
275.843594
 42
0.035076
  0
VERTEX
  8
0
 10
78.274925
 20
273.987380
 42
0.000000
  0
VERTEX
  8
0
 10
76.000000
 20
269.685433
 42
0.000000
  0
VERTEX
  8
0
 10
76.000000
 20
187.500000
 42
0.000000
  0
VERTEX
  8
0
 10
76.000000
 20
105.314567
 42
0.000000
  0
VERTEX
  8
0
 10
78.274925
 20
101.012620
 42
0.135369
  0
VERTEX
  8
0
 10
83.845023
 20
95.099477
 42
0.137309
  0
VERTEX
  8
0
 10
91.627719
 20
92.918298
 42
0.134359
  0
VERTEX
  8
0
 10
99.541302
 20
95.081034
 42
0.127414
  0
VERTEX
  8
0
 10
105.440450
 20
101.003398
 42
0.069908
  0
VERTEX
  8
0
 10
106.586039
 20
103.787323
 42
0.037433
  0
VERTEX
  8
0
 10
107.238159
 20
107.455053
 42
0.017170
  0
VERTEX
  8
0
 10
107.639926
 20
113.461247
 42
0.002284
  0
VERTEX
  8
0
 10
107.994517
 20
126.172838
 42
-0.001697
  0
VERTEX
  8
0
 10
108.367463
 20
140.131143
 42
-0.022294
  0
VERTEX
  8
0
 10
108.753173
 20
145.285965
 42
-0.064847
  0
VERTEX
  8
0
 10
109.488139
 20
148.179051
 42
-0.094420
  0
VERTEX
  8
0
 10
110.897050
 20
150.393817
 42
-0.065267
  0
VERTEX
  8
0
 10
113.730591
 20
152.711525
 42
-0.069474
  0
VERTEX
  8
0
 10
117.008270
 20
154.161588
 42
-0.070739
  0
VERTEX
  8
0
 10
120.504682
 20
154.642029
 42
-0.071725
  0
VERTEX
  8
0
 10
123.979071
 20
154.124417
 42
-0.108587
  0
VERTEX
  8
0
 10
126.900864
 20
152.499956
 42
-0.016283
  0
VERTEX
  8
0
 10
131.813556
 20
147.865033
 42
-0.010397
  0
VERTEX
  8
0
 10
139.347266
 20
139.956431
 42
-0.001873
  0
VERTEX
  8
0
 10
153.004397
 20
124.896468
 42
0.002555
  0
VERTEX
  8
0
 10
162.924149
 20
113.987749
 42
0.003729
  0
VERTEX
  8
0
 10
171.784014
 20
104.487273
 42
0.001858
  0
VERTEX
  8
0
 10
179.388516
 20
96.513461
 42
0.064539
  0
VERTEX
  8
0
 10
181.403551
 20
94.895660
 42
0.079355
  0
VERTEX
  8
0
 10
184.592069
 20
93.587952
 42
0.050325
  0
VERTEX
  8
0
 10
188.582283
 20
93.065206
 42
0.050177
  0
VERTEX
  8
0
 10
192.614338
 20
93.350221
 42
0.076753
  0
VERTEX
  8
0
 10
195.930544
 20
94.464083
 42
0.088439
  0
VERTEX
  8
0
 10
200.597314
 20
98.038879
 42
0.094694
  0
VERTEX
  8
0
 10
203.608024
 20
102.928796
 42
0.097246
  0
VERTEX
  8
0
 10
204.554977
 20
108.472822
 42
0.098988
  0
VERTEX
  8
0
 10
203.323919
 20
113.925621
 42
0.068240
  0
VERTEX
  8
0
 10
201.593598
 20
116.712408
 42
0.002927
  0
VERTEX
  8
0
 10
194.157095
 20
125.581396
 42
0.004725
  0
VERTEX
  8
0
 10
184.832127
 20
136.363098
 42
0.002786
  0
VERTEX
  8
0
 10
173.500000
 20
149.074471
 42
-0.002656
  0
VERTEX
  8
0
 10
161.964260
 20
162.007471
 42
-0.005036
  0
VERTEX
  8
0
 10
152.834026
 20
172.566190
 42
-0.002890
  0
VERTEX
  8
0
 10
145.656926
 20
181.137115
 42
-0.087446
  0
VERTEX
  8
0
 10
144.275308
 20
183.567651
 42
-0.073796
  0
VERTEX
  8
0
 10
143.539599
 20
187.290258
 42
-0.093116
  0
VERTEX
  8
0
 10
144.021375
 20
190.761632
 42
-0.073064
  0
VERTEX
  8
0
 10
145.880335
 20
194.426045
 42
-0.029521
  0
VERTEX
  8
0
 10
149.389384
 20
198.815728
 42
-0.000944
  0
VERTEX
  8
0
 10
152.482058
 20
202.235047
 42
-0.000126
  0
VERTEX
  8
0
 10
159.020632
 20
209.433189
 42
-0.000146
  0
VERTEX
  8
0
 10
166.776447
 20
217.962038
 42
-0.000123
  0
VERTEX
  8
0
 10
175.000000
 20
226.995499
 42
0.000552
  0
VERTEX
  8
0
 10
193.816389
 20
247.700749
 42
0.010295
  0
VERTEX
  8
0
 10
199.607230
 20
254.357481
 42
0.034436
  0
VERTEX
  8
0
 10
202.418331
 20
258.241358
 42
0.072192
  0
VERTEX
  8
0
 10
203.913169
 20
261.647693
 42
0.150567
  0
VERTEX
  8
0
 10
203.658806
 20
270.271035
 42
0.140227
  0
VERTEX
  8
0
 10
198.610686
 20
277.539892
 42
0.140733
  0
VERTEX
  8
0
 10
190.498288
 20
281.022604
 42
0.151937
  0
VERTEX
  8
0
 10
182.041366
 20
279.521391
 42
0.079547
  0
VERTEX
  8
0
 10
180.182053
 20
278.148548
 42
0.001926
  0
VERTEX
  8
0
 10
172.700211
 20
270.466153
 42
0.004154
  0
VERTEX
  8
0
 10
164.015239
 20
261.328670
 42
0.002807
  0
VERTEX
  8
0
 10
154.256895
 20
250.771391
 42
-0.000836
  0
VERTEX
  8
0
 10
144.572842
 20
240.211292
 42
-0.001271
  0
VERTEX
  8
0
 10
136.119006
 20
231.070346
 42
-0.000454
  0
VERTEX
  8
0
 10
128.801402
 20
223.212530
 42
-0.032673
  0
VERTEX
  8
0
 10
127.512174
 20
222.000000
 42
-0.086701
  0
VERTEX
  8
0
 10
126.417511
 20
221.378377
 42
-0.034164
  0
VERTEX
  8
0
 10
124.743742
 20
220.905787
 42
-0.029988
  0
VERTEX
  8
0
 10
122.683271
 20
220.600850
 42
-0.021746
  0
VERTEX
  8
0
 10
120.365536
 20
220.500000
 42
-0.020203
  0
VERTEX
  8
0
 10
117.308570
 20
220.623571
 42
-0.070691
  0
VERTEX
  8
0
 10
115.389220
 20
221.056703
 42
-0.077774
  0
VERTEX
  8
0
 10
113.764038
 20
221.983621
 42
-0.027845
  0
VERTEX
  8
0
 10
111.769231
 20
223.766086
 42
0.000000
  0
VERTEX
  8
0
 10
108.500000
 20
227.032172
 42
0.000000
  0
VERTEX
  8
0
 10
107.994517
 20
248.766086
 42
0.002274
  0
VERTEX
  8
0
 10
107.639894
 20
261.518377
 42
0.017136
  0
VERTEX
  8
0
 10
107.238343
 20
267.537181
 42
0.037405
  0
VERTEX
  8
0
 10
106.586379
 20
271.210435
 42
0.069998
  0
VERTEX
  8
0
 10
105.440450
 20
273.996602
 42
0.093841
  0
VERTEX
  8
0
 10
101.374015
 20
278.660157
 42
0.097099
  0
VERTEX
  8
0
 10
95.930039
 20
281.445843
 42
0.097605
  0
VERTEX
  8
0
 10
89.861295
 20
281.961577
 42
0.095906
  0
SEQEND
  0
POLYLINE
  8
0
 66
1
 70
1
  0
VERTEX
  8
0
 10
477.703060
 20
276.411270
 42
0.069162
  0
VERTEX
  8
0
 10
455.376593
 20
269.088821
 42
0.065510
  0
VERTEX
  8
0
 10
435.435473
 20
255.856577
 42
0.065412
  0
VERTEX
  8
0
 10
419.571218
 20
237.894990
 42
0.068574
  0
VERTEX
  8
0
 10
409.187534
 20
216.719190
 42
0.117596
  0
VERTEX
  8
0
 10
405.627669
 20
174.867012
 42
0.118707
  0
VERTEX
  8
0
 10
421.372761
 20
136.075194
 42
0.119177
  0
VERTEX
  8
0
 10
452.985422
 20
108.810638
 42
0.119171
  0
VERTEX
  8
0
 10
493.562849
 20
99.000000
 42
0.046144
  0
VERTEX
  8
0
 10
512.543409
 20
100.755432
 42
0.054972
  0
VERTEX
  8
0
 10
529.741912
 20
105.967943
 42
0.055106
  0
VERTEX
  8
0
 10
545.357739
 20
114.789362
 42
0.046727
  0
VERTEX
  8
0
 10
559.639923
 20
127.257782
 42
0.049796
  0
VERTEX
  8
0
 10
570.631085
 20
141.413828
 42
0.051891
  0
VERTEX
  8
0
 10
578.430519
 20
157.275298
 42
0.051720
  0
VERTEX
  8
0
 10
582.815773
 20
174.451754
 42
0.048858
  0
VERTEX
  8
0
 10
583.700492
 20
192.500000
 42
0.043984
  0
VERTEX
  8
0
 10
581.364967
 20
209.494835
 42
0.049985
  0
VERTEX
  8
0
 10
576.127577
 20
225.070978
 42
0.049773
  0
VERTEX
  8
0
 10
567.879943
 20
239.352359
 42
0.042992
  0
VERTEX
  8
0
 10
556.599409
 20
252.500000
 42
0.060229
  0
VERTEX
  8
0
 10
539.731682
 20
265.468278
 42
0.060286
  0
VERTEX
  8
0
 10
520.264750
 20
274.038206
 42
0.059966
  0
VERTEX
  8
0
 10
499.218420
 20
277.748199
 42
0.058444
  0
SEQEND
  0
POLYLINE
  8
0
 66
1
 70
1
  0
VERTEX
  8
0
 10
510.107184
 20
244.376988
 42
-0.062318
  0
VERTEX
  8
0
 10
523.772193
 20
238.390597
 42
-0.063386
  0
VERTEX
  8
0
 10
535.454171
 20
229.249508
 42
-0.062884
  0
VERTEX
  8
0
 10
544.548141
 20
217.400895
 42
-0.059678
  0
VERTEX
  8
0
 10
550.605123
 20
203.457289
 42
-0.047362
  0
VERTEX
  8
0
 10
551.963102
 20
196.615236
 42
-0.025328
  0
VERTEX
  8
0
 10
552.399677
 20
187.999628
 42
-0.025324
  0
VERTEX
  8
0
 10
551.962407
 20
179.374590
 42
-0.046888
  0
VERTEX
  8
0
 10
550.604614
 20
172.500000
 42
-0.067496
  0
VERTEX
  8
0
 10
544.266680
 20
158.439729
 42
-0.063188
  0
VERTEX
  8
0
 10
534.295298
 20
146.221579
 42
-0.063431
  0
VERTEX
  8
0
 10
521.629229
 20
136.920282
 42
-0.069052
  0
VERTEX
  8
0
 10
507.386720
 20
131.415277
 42
-0.056203
  0
VERTEX
  8
0
 10
496.211495
 20
130.082973
 42
-0.045205
  0
VERTEX
  8
0
 10
484.143424
 20
131.098783
 42
-0.045377
  0
VERTEX
  8
0
 10
472.507273
 20
134.256814
 42
-0.058003
  0
VERTEX
  8
0
 10
462.619159
 20
139.299326
 42
-0.040956
  0
VERTEX
  8
0
 10
455.027941
 20
145.305153
 42
-0.038026
  0
VERTEX
  8
0
 10
448.310368
 20
152.609304
 42
-0.038440
  0
VERTEX
  8
0
 10
442.845939
 20
160.757691
 42
-0.044332
  0
VERTEX
  8
0
 10
438.987248
 20
169.277219
 42
-0.044589
  0
VERTEX
  8
0
 10
437.172838
 20
176.456134
 42
-0.027393
  0
VERTEX
  8
0
 10
436.269612
 20
185.137721
 42
-0.027327
  0
VERTEX
  8
0
 10
436.320044
 20
193.913155
 42
-0.042639
  0
VERTEX
  8
0
 10
437.416053
 20
201.386720
 42
-0.102928
  0
VERTEX
  8
0
 10
447.290393
 20
222.582152
 42
-0.099226
  0
VERTEX
  8
0
 10
464.906396
 20
238.406891
 42
-0.100006
  0
VERTEX
  8
0
 10
487.134818
 20
246.138330
 42
-0.106349
  0
SEQEND
  0
POLYLINE
  8
0
 66
1
 70
1
  0
VERTEX
  8
0
 10
20.640066
 20
56.368033
 42
0.073086
  0
VERTEX
  8
0
 10
15.841736
 20
54.086148
 42
0.047820
  0
VERTEX
  8
0
 10
11.091039
 20
50.201966
 42
0.047498
  0
VERTEX
  8
0
 10
7.123696
 20
45.442937
 42
0.068005
  0
VERTEX
  8
0
 10
4.667197
 20
40.536678
 42
0.048302
  0
VERTEX
  8
0
 10
3.490973
 20
35.555076
 42
0.031629
  0
VERTEX
  8
0
 10
3.065643
 20
29.666167
 42
0.031363
  0
VERTEX
  8
0
 10
3.387792
 20
23.688885
 42
0.043374
  0
VERTEX
  8
0
 10
4.471276
 20
18.431501
 42
0.084848
  0
VERTEX
  8
0
 10
8.124705
 20
11.043149
 42
0.087176
  0
VERTEX
  8
0
 10
13.996715
 20
5.367823
 42
0.082180
  0
VERTEX
  8
0
 10
21.767566
 20
1.799599
 42
0.065250
  0
VERTEX
  8
0
 10
30.930763
 20
0.544211
 42
0.009453
  0
VERTEX
  8
0
 10
34.103728
 20
0.585664
 42
0.008573
  0
VERTEX
  8
0
 10
37.378099
 20
0.746610
 42
0.008617
  0
VERTEX
  8
0
 10
40.303222
 20
0.991407
 42
0.027071
  0
VERTEX
  8
0
 10
42.250000
 20
1.295313
 42
0.023051
  0
VERTEX
  8
0
 10
44.375009
 20
1.849433
 42
0.125537
  0
VERTEX
  8
0
 10
45.380019
 20
2.466914
 42
0.153686
  0
VERTEX
  8
0
 10
45.860618
 20
3.424631
 42
0.040050
  0
VERTEX
  8
0
 10
46.000000
 20
5.161944
 42
0.020349
  0
VERTEX
  8
0
 10
45.929541
 20
6.892451
 42
0.167046
  0
VERTEX
  8
0
 10
45.617663
 20
7.605292
 42
0.235777
  0
VERTEX
  8
0
 10
44.996722
 20
7.842029
 42
0.042968
  0
VERTEX
  8
0
 10
43.750000
 20
7.609059
 42
-0.088534
  0
VERTEX
  8
0
 10
29.881455
 20
6.301397
 42
-0.137730
  0
VERTEX
  8
0
 10
18.697943
 20
10.464137
 42
-0.149153
  0
VERTEX
  8
0
 10
11.891014
 20
19.519225
 42
-0.110170
  0
VERTEX
  8
0
 10
10.268503
 20
32.024478
 42
-0.048148
  0
VERTEX
  8
0
 10
11.349301
 20
37.747561
 42
-0.067895
  0
VERTEX
  8
0
 10
13.456044
 20
42.484817
 42
-0.070955
  0
VERTEX
  8
0
 10
16.669652
 20
46.333560
 42
-0.058814
  0
VERTEX
  8
0
 10
21.030690
 20
49.420187
 42
-0.021229
  0
VERTEX
  8
0
 10
24.264544
 20
51.006237
 42
-0.060132
  0
VERTEX
  8
0
 10
26.666327
 20
51.731885
 42
-0.048217
  0
VERTEX
  8
0
 10
29.453832
 20
51.946750
 42
-0.010077
  0
VERTEX
  8
0
 10
34.355553
 20
51.752626
 42
-0.006696
  0
VERTEX
  8
0
 10
37.593383
 20
51.515429
 42
-0.008411
  0
VERTEX
  8
0
 10
40.585702
 20
51.205098
 42
-0.006941
  0
VERTEX
  8
0
 10
43.078450
 20
50.868946
 42
-0.063709
  0
VERTEX
  8
0
 10
44.127687
 20
50.572711
 42
0.099369
  0
VERTEX
  8
0
 10
44.935480
 20
50.405320
 42
0.214193
  0
VERTEX
  8
0
 10
45.504437
 20
50.656518
 42
0.122038
  0
VERTEX
  8
0
 10
45.902080
 20
51.401763
 42
0.025390
  0
VERTEX
  8
0
 10
46.193864
 20
52.867519
 42
0.040361
  0
VERTEX
  8
0
 10
46.309117
 20
54.636800
 42
0.186980
  0
VERTEX
  8
0
 10
45.930949
 20
55.569177
 42
0.127761
  0
VERTEX
  8
0
 10
44.925801
 20
56.201654
 42
0.015206
  0
VERTEX
  8
0
 10
42.373357
 20
56.927572
 42
0.042969
  0
VERTEX
  8
0
 10
37.450495
 20
57.726012
 42
0.025167
  0
VERTEX
  8
0
 10
31.476557
 20
57.872897
 42
0.025166
  0
VERTEX
  8
0
 10
25.517450
 20
57.418765
 42
0.042929
  0
SEQEND
  0
POLYLINE
  8
0
 66
1
 70
1
  0
VERTEX
  8
0
 10
117.143751
 20
56.853688
 42
0.089220
  0
VERTEX
  8
0
 10
109.399766
 20
53.034314
 42
0.089923
  0
VERTEX
  8
0
 10
103.496765
 20
46.764422
 42
0.083280
  0
VERTEX
  8
0
 10
99.856705
 20
38.383112
 42
0.063787
  0
VERTEX
  8
0
 10
98.697193
 20
28.445049
 42
0.041673
  0
VERTEX
  8
0
 10
99.295910
 20
22.131765
 42
0.051930
  0
VERTEX
  8
0
 10
100.932570
 20
16.474566
 42
0.055089
  0
VERTEX
  8
0
 10
103.593461
 20
11.550727
 42
0.057706
  0
VERTEX
  8
0
 10
107.229985
 20
7.411187
 42
0.036869
  0
VERTEX
  8
0
 10
111.389700
 20
4.176093
 42
0.057880
  0
VERTEX
  8
0
 10
115.419768
 20
2.120479
 42
0.055790
  0
VERTEX
  8
0
 10
119.921540
 20
0.996971
 42
0.031583
  0
VERTEX
  8
0
 10
125.535650
 20
0.603540
 42
0.016971
  0
VERTEX
  8
0
 10
129.416037
 20
0.708794
 42
0.038192
  0
VERTEX
  8
0
 10
132.330140
 20
1.111741
 42
0.039985
  0
VERTEX
  8
0
 10
135.066672
 20
1.939334
 42
0.020355
  0
VERTEX
  8
0
 10
138.358461
 20
3.386950
 42
0.164108
  0
VERTEX
  8
0
 10
149.467559
 20
14.384015
 42
0.131884
  0
VERTEX
  8
0
 10
152.875095
 20
30.947435
 42
0.132357
  0
VERTEX
  8
0
 10
147.528035
 20
46.946325
 42
0.165659
  0
VERTEX
  8
0
 10
135.205272
 20
56.445724
 42
0.045805
  0
VERTEX
  8
0
 10
131.071415
 20
57.443561
 42
0.030690
  0
VERTEX
  8
0
 10
126.221761
 20
57.851621
 42
0.030655
  0
VERTEX
  8
0
 10
121.348932
 20
57.662918
 42
0.045089
  0
SEQEND
  0
POLYLINE
  8
0
 66
1
 70
1
  0
VERTEX
  8
0
 10
135.038723
 20
49.980245
 42
-0.153583
  0
VERTEX
  8
0
 10
142.074577
 20
43.068113
 42
-0.098252
  0
VERTEX
  8
0
 10
145.417753
 20
32.010699
 42
-0.095477
  0
VERTEX
  8
0
 10
144.323011
 20
20.227812
 42
-0.134974
  0
VERTEX
  8
0
 10
138.831367
 20
11.297728
 42
-0.109577
  0
VERTEX
  8
0
 10
131.759798
 20
7.127347
 42
-0.108133
  0
VERTEX
  8
0
 10
123.552717
 20
6.311100
 42
-0.107075
  0
VERTEX
  8
0
 10
115.691121
 20
9.000685
 42
-0.105553
  0
VERTEX
  8
0
 10
109.600164
 20
14.712656
 42
-0.031073
  0
VERTEX
  8
0
 10
108.047875
 20
17.272902
 42
-0.052697
  0
VERTEX
  8
0
 10
107.124733
 20
19.600221
 42
-0.041280
  0
VERTEX
  8
0
 10
106.579373
 20
22.438857
 42
-0.012368
  0
VERTEX
  8
0
 10
106.215905
 20
26.831357
 42
-0.013949
  0
VERTEX
  8
0
 10
106.111221
 20
30.328001
 42
-0.017028
  0
VERTEX
  8
0
 10
106.215989
 20
33.599002
 42
-0.018619
  0
VERTEX
  8
0
 10
106.507733
 20
36.413067
 42
-0.044589
  0
VERTEX
  8
0
 10
106.984974
 20
38.454471
 42
-0.059729
  0
VERTEX
  8
0
 10
108.639860
 20
41.987161
 42
-0.038776
  0
VERTEX
  8
0
 10
111.317722
 20
45.622229
 42
-0.039193
  0
VERTEX
  8
0
 10
114.451380
 20
48.722352
 42
-0.072816
  0
VERTEX
  8
0
 10
117.481407
 20
50.606432
 42
-0.070191
  0
VERTEX
  8
0
 10
121.408046
 20
51.696415
 42
-0.041591
  0
VERTEX
  8
0
 10
126.271405
 20
51.927518
 42
-0.041496
  0
VERTEX
  8
0
 10
131.128090
 20
51.348823
 42
-0.067654
  0
SEQEND
  0
POLYLINE
  8
0
 66
1
 70
1
  0
VERTEX
  8
0
 10
321.619302
 20
56.965577
 42
0.144060
  0
VERTEX
  8
0
 10
315.781366
 20
53.165144
 42
0.130834
  0
VERTEX
  8
0
 10
312.662857
 20
46.665973
 42
0.128735
  0
VERTEX
  8
0
 10
313.164561
 20
39.392551
 42
0.137446
  0
VERTEX
  8
0
 10
317.175743
 20
33.505576
 42
0.030673
  0
VERTEX
  8
0
 10
318.894186
 20
32.230975
 42
0.009058
  0
VERTEX
  8
0
 10
321.674613
 20
30.492671
 42
0.009055
  0
VERTEX
  8
0
 10
324.878403
 20
28.647593
 42
0.009632
  0
VERTEX
  8
0
 10
328.082219
 20
26.958661
 42
-0.020245
  0
VERTEX
  8
0
 10
333.688557
 20
23.849437
 42
-0.072683
  0
VERTEX
  8
0
 10
336.831726
 20
21.244913
 42
-0.106892
  0
VERTEX
  8
0
 10
338.444121
 20
18.433722
 42
-0.077097
  0
VERTEX
  8
0
 10
339.000000
 20
14.850074
 42
-0.188183
  0
VERTEX
  8
0
 10
337.063988
 20
9.888275
 42
-0.144442
  0
VERTEX
  8
0
 10
332.029301
 20
6.871252
 42
-0.093739
  0
VERTEX
  8
0
 10
324.149165
 20
6.350134
 42
-0.047249
  0
VERTEX
  8
0
 10
314.382261
 20
8.486299
 42
0.055686
  0
VERTEX
  8
0
 10
313.256970
 20
8.712643
 42
0.194305
  0
VERTEX
  8
0
 10
312.562158
 20
8.500304
 42
0.147655
  0
VERTEX
  8
0
 10
312.093214
 20
7.810695
 42
0.028566
  0
VERTEX
  8
0
 10
311.720566
 20
6.332044
 42
0.009242
  0
VERTEX
  8
0
 10
311.529741
 20
5.228830
 42
0.013855
  0
VERTEX
  8
0
 10
311.407800
 20
4.259050
 42
0.008698
  0
VERTEX
  8
0
 10
311.343486
 20
3.456659
 42
0.212584
  0
VERTEX
  8
0
 10
311.419683
 20
3.251955
 42
0.131538
  0
VERTEX
  8
0
 10
311.640787
 20
3.121232
 42
0.001167
  0
VERTEX
  8
0
 10
313.527764
 20
2.598916
 42
0.003928
  0
VERTEX
  8
0
 10
315.710512
 20
2.018610
 42
0.002513
  0
VERTEX
  8
0
 10
318.254791
 20
1.377162
 42
0.073171
  0
VERTEX
  8
0
 10
328.881849
 20
0.355334
 42
0.102985
  0
VERTEX
  8
0
 10
338.067334
 20
2.754357
 42
0.127332
  0
VERTEX
  8
0
 10
344.226378
 20
8.091390
 42
0.152025
  0
VERTEX
  8
0
 10
346.500000
 20
15.396360
 42
0.082062
  0
VERTEX
  8
0
 10
345.726367
 20
20.078331
 42
0.085081
  0
VERTEX
  8
0
 10
343.490402
 20
24.197952
 42
0.070092
  0
VERTEX
  8
0
 10
339.597943
 20
27.925948
 42
0.036384
  0
VERTEX
  8
0
 10
333.853923
 20
31.456560
 42
-0.009851
  0
VERTEX
  8
0
 10
326.237747
 20
35.598452
 42
-0.055060
  0
VERTEX
  8
0
 10
322.484106
 20
38.322666
 42
-0.107232
  0
VERTEX
  8
0
 10
320.648613
 20
40.897305
 42
-0.101772
  0
VERTEX
  8
0
 10
320.000000
 20
44.050891
 42
-0.073398
  0
VERTEX
  8
0
 10
320.556372
 20
47.820581
 42
-0.153095
  0
VERTEX
  8
0
 10
322.207800
 20
50.250614
 42
-0.125861
  0
VERTEX
  8
0
 10
325.212298
 20
51.591127
 42
-0.042340
  0
VERTEX
  8
0
 10
330.032119
 20
52.000000
 42
-0.020682
  0
VERTEX
  8
0
 10
332.595431
 20
51.893928
 42
-0.017124
  0
VERTEX
  8
0
 10
335.309332
 20
51.575058
 42
-0.017463
  0
VERTEX
  8
0
 10
337.779641
 20
51.109889
 42
-0.043711
  0
VERTEX
  8
0
 10
339.526466
 20
50.553388
 42
0.010859
  0
VERTEX
  8
0
 10
341.737897
 20
49.685308
 42
0.146150
  0
VERTEX
  8
0
 10
342.596888
 20
49.631898
 42
0.244191
  0
VERTEX
  8
0
 10
343.128517
 20
50.086226
 42
0.034696
  0
VERTEX
  8
0
 10
343.588491
 20
51.496553
 42
0.031515
  0
VERTEX
  8
0
 10
343.771556
 20
52.486297
 42
0.032217
  0
VERTEX
  8
0
 10
343.826953
 20
53.483901
 42
0.034025
  0
VERTEX
  8
0
 10
343.760057
 20
54.351388
 42
0.102504
  0
VERTEX
  8
0
 10
343.558010
 20
54.906137
 42
0.206663
  0
VERTEX
  8
0
 10
341.023806
 20
56.675960
 42
0.027119
  0
VERTEX
  8
0
 10
334.378694
 20
57.665471
 42
0.031895
  0
VERTEX
  8
0
 10
327.197803
 20
57.879737
 42
0.064333
  0
SEQEND
  0
POLYLINE
  8
0
 66
1
 70
1
  0
VERTEX
  8
0
 10
861.717595
 20
56.562805
 42
0.076969
  0
VERTEX
  8
0
 10
853.886067
 20
52.321768
 42
0.083252
  0
VERTEX
  8
0
 10
847.945552
 20
46.005095
 42
0.080672
  0
VERTEX
  8
0
 10
844.259835
 20
37.917441
 42
0.066750
  0
VERTEX
  8
0
 10
843.000000
 20
28.522570
 42
0.060674
  0
VERTEX
  8
0
 10
844.019745
 20
20.150083
 42
0.073789
  0
VERTEX
  8
0
 10
847.018539
 20
12.848741
 42
0.077826
  0
VERTEX
  8
0
 10
851.844257
 20
7.029834
 42
0.078402
  0
VERTEX
  8
0
 10
858.206498
 20
2.982208
 42
0.060192
  0
VERTEX
  8
0
 10
863.677108
 20
1.350381
 42
0.031847
  0
VERTEX
  8
0
 10
870.727670
 20
0.600375
 42
0.031184
  0
VERTEX
  8
0
 10
878.135308
 20
0.748869
 42
0.041941
  0
VERTEX
  8
0
 10
884.750000
 20
1.858625
 42
0.000000
  0
VERTEX
  8
0
 10
890.000000
 20
3.199482
 42
0.000000
  0
VERTEX
  8
0
 10
890.000000
 20
14.599741
 42
0.000000
  0
VERTEX
  8
0
 10
890.000000
 20
26.000000
 42
0.000000
  0
VERTEX
  8
0
 10
886.500000
 20
26.000000
 42
0.000000
  0
VERTEX
  8
0
 10
883.000000
 20
26.000000
 42
0.000000
  0
VERTEX
  8
0
 10
883.000000
 20
16.625000
 42
0.000000
  0
VERTEX
  8
0
 10
883.000000
 20
7.250000
 42
0.000000
  0
VERTEX
  8
0
 10
879.875000
 20
6.625000
 42
-0.078199
  0
VERTEX
  8
0
 10
867.905145
 20
6.130188
 42
-0.123839
  0
VERTEX
  8
0
 10
858.351884
 20
9.739046
 42
-0.136317
  0
VERTEX
  8
0
 10
852.237799
 20
17.113644
 42
-0.104761
  0
VERTEX
  8
0
 10
850.021962
 20
27.383980
 42
-0.074098
  0
VERTEX
  8
0
 10
851.512270
 20
37.647781
 42
-0.113071
  0
VERTEX
  8
0
 10
855.944905
 20
45.438178
 42
-0.118982
  0
VERTEX
  8
0
 10
863.132005
 20
50.265515
 42
-0.087976
  0
VERTEX
  8
0
 10
872.591069
 20
51.978038
 42
-0.019325
  0
VERTEX
  8
0
 10
875.263791
 20
51.884346
 42
-0.013522
  0
VERTEX
  8
0
 10
878.262953
 20
51.581219
 42
-0.013666
  0
VERTEX
  8
0
 10
881.125133
 20
51.133698
 42
-0.027482
  0
VERTEX
  8
0
 10
883.346193
 20
50.596326
 42
0.007408
  0
VERTEX
  8
0
 10
886.412353
 20
49.722876
 42
0.116274
  0
VERTEX
  8
0
 10
887.493037
 20
49.689157
 42
0.242592
  0
VERTEX
  8
0
 10
888.123170
 20
50.194884
 42
0.043176
  0
VERTEX
  8
0
 10
888.631908
 20
51.669542
 42
0.043665
  0
VERTEX
  8
0
 10
888.795396
 20
52.691498
 42
0.045253
  0
VERTEX
  8
0
 10
888.775878
 20
53.713923
 42
0.049574
  0
VERTEX
  8
0
 10
888.590499
 20
54.589673
 42
0.120004
  0
VERTEX
  8
0
 10
888.249048
 20
55.150952
 42
0.160431
  0
VERTEX
  8
0
 10
884.623202
 20
56.980218
 42
0.023988
  0
VERTEX
  8
0
 10
876.389591
 20
57.815733
 42
0.027744
  0
VERTEX
  8
0
 10
867.793185
 20
57.795872
 42
0.071345
  0
SEQEND
  0
POLYLINE
  8
0
 66
1
 70
1
  0
VERTEX
  8
0
 10
209.000000
 20
29.000000
 42
0.000000
  0
VERTEX
  8
0
 10
209.000000
 20
1.000000
 42
0.000000
  0
VERTEX
  8
0
 10
212.480868
 20
1.000000
 42
0.000000
  0
VERTEX
  8
0
 10
215.961737
 20
1.000000
 42
0.000000
  0
VERTEX
  8
0
 10
216.230868
 20
23.250000
 42
0.000000
  0
VERTEX
  8
0
 10
216.500000
 20
45.500000
 42
0.000000
  0
VERTEX
  8
0
 10
232.427840
 20
23.250000
 42
0.001682
  0
VERTEX
  8
0
 10
242.541335
 20
9.222138
 42
0.021308
  0
VERTEX
  8
0
 10
246.586370
 20
4.122968
 42
0.063358
  0
VERTEX
  8
0
 10
249.211357
 20
1.769016
 42
0.152278
  0
VERTEX
  8
0
 10
251.677840
 20
1.000000
 42
0.000000
  0
VERTEX
  8
0
 10
255.000000
 20
1.000000
 42
0.000000
  0
VERTEX
  8
0
 10
255.000000
 20
29.000000
 42
0.000000
  0
VERTEX
  8
0
 10
255.000000
 20
57.000000
 42
0.000000
  0
VERTEX
  8
0
 10
251.519502
 20
57.000000
 42
0.000000
  0
VERTEX
  8
0
 10
248.039005
 20
57.000000
 42
0.000000
  0
VERTEX
  8
0
 10
247.769502
 20
35.386796
 42
0.000000
  0
VERTEX
  8
0
 10
247.500000
 20
13.773592
 42
0.000000
  0
VERTEX
  8
0
 10
232.079542
 20
35.386796
 42
0.000000
  0
VERTEX
  8
0
 10
216.659083
 20
57.000000
 42
0.000000
  0
VERTEX
  8
0
 10
212.829542
 20
57.000000
 42
0.000000
  0
VERTEX
  8
0
 10
209.000000
 20
57.000000
 42
0.000000
  0
SEQEND
  0
POLYLINE
  8
0
 66
1
 70
1
  0
VERTEX
  8
0
 10
402.180080
 20
35.173680
 42
0.000000
  0
VERTEX
  8
0
 10
402.500000
 20
13.347360
 42
0.000000
  0
VERTEX
  8
0
 10
405.251115
 20
9.193435
 42
0.130204
  0
VERTEX
  8
0
 10
412.056210
 20
3.141610
 42
0.095636
  0
VERTEX
  8
0
 10
421.811271
 20
0.365695
 42
0.095635
  0
VERTEX
  8
0
 10
431.898717
 20
1.420093
 42
0.130199
  0
VERTEX
  8
0
 10
439.644580
 20
6.209495
 42
0.046522
  0
VERTEX
  8
0
 10
443.071111
 20
10.578370
 42
0.091644
  0
VERTEX
  8
0
 10
444.740328
 20
14.646786
 42
0.043556
  0
VERTEX
  8
0
 10
445.472410
 20
20.743362
 42
0.004149
  0
VERTEX
  8
0
 10
445.834935
 20
35.750000
 42
0.000000
  0
VERTEX
  8
0
 10
446.171873
 20
57.000000
 42
0.000000
  0
VERTEX
  8
0
 10
442.085937
 20
57.000000
 42
0.000000
  0
VERTEX
  8
0
 10
438.000000
 20
57.000000
 42
0.000000
  0
VERTEX
  8
0
 10
438.000000
 20
36.450340
 42
-0.005937
  0
VERTEX
  8
0
 10
437.814430
 20
20.823130
 42
-0.059674
  0
VERTEX
  8
0
 10
436.886788
 20
14.378309
 42
-0.140891
  0
VERTEX
  8
0
 10
434.656739
 20
10.675678
 42
-0.083263
  0
VERTEX
  8
0
 10
430.316307
 20
7.815719
 42
-0.087655
  0
VERTEX
  8
0
 10
424.330424
 20
6.340660
 42
-0.099411
  0
VERTEX
  8
0
 10
418.477209
 20
7.114374
 42
-0.104643
  0
VERTEX
  8
0
 10
413.601362
 20
10.024668
 42
-0.107503
  0
VERTEX
  8
0
 10
410.378820
 20
14.635782
 42
-0.068690
  0
VERTEX
  8
0
 10
409.714097
 20
17.148549
 42
-0.015285
  0
VERTEX
  8
0
 10
409.309886
 20
21.583890
 42
-0.011402
  0
VERTEX
  8
0
 10
409.069785
 20
27.981183
 42
-0.003678
  0
VERTEX
  8
0
 10
409.000000
 20
37.467881
 42
0.000000
  0
VERTEX
  8
0
 10
409.000000
 20
57.000000
 42
0.000000
  0
VERTEX
  8
0
 10
405.430080
 20
57.000000
 42
0.000000
  0
VERTEX
  8
0
 10
401.860160
 20
57.000000
 42
0.000000
  0
SEQEND
  0
POLYLINE
  8
0
 66
1
 70
1
  0
VERTEX
  8
0
 10
505.000000
 20
29.000000
 42
0.000000
  0
VERTEX
  8
0
 10
505.000000
 20
1.000000
 42
0.000000
  0
VERTEX
  8
0
 10
520.500000
 20
1.000000
 42
0.000000
  0
VERTEX
  8
0
 10
536.000000
 20
1.000000
 42
0.000000
  0
VERTEX
  8
0
 10
536.000000
 20
4.000000
 42
0.000000
  0
VERTEX
  8
0
 10
536.000000
 20
7.000000
 42
0.000000
  0
VERTEX
  8
0
 10
524.000000
 20
7.000000
 42
0.000000
  0
VERTEX
  8
0
 10
512.000000
 20
7.000000
 42
0.000000
  0
VERTEX
  8
0
 10
512.000000
 20
32.000000
 42
0.000000
  0
VERTEX
  8
0
 10
512.000000
 20
57.000000
 42
0.000000
  0
VERTEX
  8
0
 10
508.500000
 20
57.000000
 42
0.000000
  0
VERTEX
  8
0
 10
505.000000
 20
57.000000
 42
0.000000
  0
SEQEND
  0
POLYLINE
  8
0
 66
1
 70
1
  0
VERTEX
  8
0
 10
578.000000
 20
54.000000
 42
0.000000
  0
VERTEX
  8
0
 10
578.000000
 20
51.000000
 42
0.000000
  0
VERTEX
  8
0
 10
586.500000
 20
51.000000
 42
0.000000
  0
VERTEX
  8
0
 10
595.000000
 20
51.000000
 42
0.000000
  0
VERTEX
  8
0
 10
595.000000
 20
26.000000
 42
0.000000
  0
VERTEX
  8
0
 10
595.000000
 20
1.000000
 42
0.000000
  0
VERTEX
  8
0
 10
598.500000
 20
1.000000
 42
0.000000
  0
VERTEX
  8
0
 10
602.000000
 20
1.000000
 42
0.000000
  0
VERTEX
  8
0
 10
602.000000
 20
26.000000
 42
0.000000
  0
VERTEX
  8
0
 10
602.000000
 20
51.000000
 42
0.000000
  0
VERTEX
  8
0
 10
610.500000
 20
51.000000
 42
0.000000
  0
VERTEX
  8
0
 10
619.000000
 20
51.000000
 42
0.000000
  0
VERTEX
  8
0
 10
619.000000
 20
54.000000
 42
0.000000
  0
VERTEX
  8
0
 10
619.000000
 20
57.000000
 42
0.000000
  0
VERTEX
  8
0
 10
598.500000
 20
57.000000
 42
0.000000
  0
VERTEX
  8
0
 10
578.000000
 20
57.000000
 42
0.000000
  0
SEQEND
  0
POLYLINE
  8
0
 66
1
 70
1
  0
VERTEX
  8
0
 10
673.000000
 20
29.000000
 42
0.000000
  0
VERTEX
  8
0
 10
673.000000
 20
1.000000
 42
0.000000
  0
VERTEX
  8
0
 10
677.000000
 20
1.000000
 42
0.000000
  0
VERTEX
  8
0
 10
681.000000
 20
1.000000
 42
0.000000
  0
VERTEX
  8
0
 10
681.000000
 20
29.000000
 42
0.000000
  0
VERTEX
  8
0
 10
681.000000
 20
57.000000
 42
0.000000
  0
VERTEX
  8
0
 10
677.000000
 20
57.000000
 42
0.000000
  0
VERTEX
  8
0
 10
673.000000
 20
57.000000
 42
0.000000
  0
SEQEND
  0
POLYLINE
  8
0
 66
1
 70
1
  0
VERTEX
  8
0
 10
740.000000
 20
29.000000
 42
0.000000
  0
VERTEX
  8
0
 10
740.000000
 20
1.000000
 42
0.000000
  0
VERTEX
  8
0
 10
743.500000
 20
1.000000
 42
0.000000
  0
VERTEX
  8
0
 10
747.000000
 20
1.000000
 42
0.000000
  0
VERTEX
  8
0
 10
747.000000
 20
23.059017
 42
-0.003383
  0
VERTEX
  8
0
 10
747.060463
 20
31.995882
 42
-0.007309
  0
VERTEX
  8
0
 10
747.253981
 20
38.868915
 42
-0.002884
  0
VERTEX
  8
0
 10
747.519767
 20
44.340747
 42
-0.569269
  0
VERTEX
  8
0
 10
747.919638
 20
44.549667
 42
-0.095478
  0
VERTEX
  8
0
 10
748.526888
 20
43.990774
 42
-0.000566
  0
VERTEX
  8
0
 10
753.065332
 20
37.835379
 42
-0.002343
  0
VERTEX
  8
0
 10
758.211945
 20
30.769448
 42
-0.001486
  0
VERTEX
  8
0
 10
764.145489
 20
22.490650
 42
0.001529
  0
VERTEX
  8
0
 10
774.355754
 20
8.247356
 42
0.025269
  0
VERTEX
  8
0
 10
778.009605
 20
3.687428
 42
0.086174
  0
VERTEX
  8
0
 10
780.510443
 20
1.694647
 42
0.125882
  0
VERTEX
  8
0
 10
783.225851
 20
1.000000
 42
0.000000
  0
VERTEX
  8
0
 10
787.000000
 20
1.000000
 42
0.000000
  0
VERTEX
  8
0
 10
787.000000
 20
29.000000
 42
0.000000
  0
VERTEX
  8
0
 10
787.000000
 20
57.000000
 42
0.000000
  0
VERTEX
  8
0
 10
783.500000
 20
57.000000
 42
0.000000
  0
VERTEX
  8
0
 10
780.000000
 20
57.000000
 42
0.000000
  0
VERTEX
  8
0
 10
780.000000
 20
35.500000
 42
-0.003374
  0
VERTEX
  8
0
 10
779.944362
 20
27.255906
 42
-0.005624
  0
VERTEX
  8
0
 10
779.772594
 20
20.315625
 42
-0.001269
  0
VERTEX
  8
0
 10
779.540788
 20
14.302262
 42
-0.402236
  0
VERTEX
  8
0
 10
779.225851
 20
14.000000
 42
-0.235678
  0
VERTEX
  8
0
 10
778.735927
 20
14.244510
 42
-0.000652
  0
VERTEX
  8
0
 10
774.180952
 20
20.315625
 42
-0.003635
  0
VERTEX
  8
0
 10
769.065342
 20
27.257171
 42
-0.002236
  0
VERTEX
  8
0
 10
763.138829
 20
35.500000
 42
0.000000
  0
VERTEX
  8
0
 10
747.825956
 20
57.000000
 42
0.000000
  0
VERTEX
  8
0
 10
743.912978
 20
57.000000
 42
0.000000
  0
VERTEX
  8
0
 10
740.000000
 20
57.000000
 42
0.000000
  0
SEQEND
  0
POLYLINE
  8
0
 66
1
 70
1
  0
VERTEX
  8
0
 10
488.500000
 20
214.123780
 42
0.081143
  0
VERTEX
  8
0
 10
480.056888
 20
210.391241
 42
0.078483
  0
VERTEX
  8
0
 10
473.129508
 20
204.131356
 42
0.080097
  0
VERTEX
  8
0
 10
468.575640
 20
196.168145
 42
0.090148
  0
VERTEX
  8
0
 10
467.000000
 20
187.500000
 42
0.079606
  0
VERTEX
  8
0
 10
468.149484
 20
180.325934
 42
0.063065
  0
VERTEX
  8
0
 10
471.525421
 20
173.223627
 42
0.062601
  0
VERTEX
  8
0
 10
476.597948
 20
167.136345
 42
0.075713
  0
VERTEX
  8
0
 10
482.729615
 20
162.942326
 42
0.063330
  0
VERTEX
  8
0
 10
488.526436
 20
161.006687
 42
0.055152
  0
VERTEX
  8
0
 10
494.906398
 20
160.459295
 42
0.055113
  0
VERTEX
  8
0
 10
501.256299
 20
161.319955
 42
0.063030
  0
VERTEX
  8
0
 10
506.964442
 20
163.538704
 42
0.134021
  0
VERTEX
  8
0
 10
517.706252
 20
173.811313
 42
0.139524
  0
VERTEX
  8
0
 10
521.529778
 20
187.955825
 42
0.139923
  0
VERTEX
  8
0
 10
517.329979
 20
201.963591
 42
0.135046
  0
VERTEX
  8
0
 10
506.324012
 20
211.872547
 42
0.053000
  0
VERTEX
  8
0
 10
502.334829
 20
213.367828
 42
0.031782
  0
VERTEX
  8
0
 10
497.359959
 20
214.320367
 42
0.031942
  0
VERTEX
  8
0
 10
492.403349
 20
214.626957
 42
0.063142
  0
SEQEND
  0
ENDSEC
  0
EOF
