  0
SECTION
  2
HEADER
  9
$ACADVER
  1
AC1006
  9
$EXTMIN
 10
0.000000
 20
0.000000
 30
0.000000
  9
$EXTMAX
 10
10825.000000
 20
2275.000000
 30
0.000000
  0
ENDSEC
  0
SECTION
  2
ENTITIES
  0
POLYLINE
  8
0
 66
1
 70
1
  0
VERTEX
  8
0
 10
951.000000
 20
2273.426856
 42
-0.023803
  0
VERTEX
  8
0
 10
944.617093
 20
2272.176519
 42
-0.003859
  0
VERTEX
  8
0
 10
932.091087
 20
2270.435287
 42
-0.003356
  0
VERTEX
  8
0
 10
914.700520
 20
2268.273102
 42
-0.001288
  0
VERTEX
  8
0
 10
890.500000
 20
2265.492187
 42
0.006501
  0
VERTEX
  8
0
 10
854.599857
 20
2260.987098
 42
0.010437
  0
VERTEX
  8
0
 10
824.127920
 20
2256.109790
 42
0.010456
  0
VERTEX
  8
0
 10
793.926327
 20
2249.971966
 42
0.006557
  0
VERTEX
  8
0
 10
758.862236
 20
2241.594417
 42
0.035815
  0
VERTEX
  8
0
 10
584.112770
 20
2183.831995
 42
0.040505
  0
VERTEX
  8
0
 10
426.796224
 20
2103.563203
 42
0.041174
  0
VERTEX
  8
0
 10
286.672764
 20
2000.304432
 42
0.039414
  0
VERTEX
  8
0
 10
163.130073
 20
1874.073001
 42
0.013467
  0
VERTEX
  8
0
 10
124.226755
 20
1824.858634
 42
0.012556
  0
VERTEX
  8
0
 10
87.077715
 20
1772.476729
 42
0.012403
  0
VERTEX
  8
0
 10
52.153794
 20
1717.623745
 42
0.012331
  0
VERTEX
  8
0
 10
19.921615
 20
1661.000000
 42
0.005248
  0
VERTEX
  8
0
 10
12.240791
 20
1646.330254
 42
0.015808
  0
VERTEX
  8
0
 10
7.428266
 20
1636.113823
 42
0.014081
  0
VERTEX
  8
0
 10
4.502419
 20
1628.798092
 42
0.353244
  0
VERTEX
  8
0
 10
5.150691
 20
1626.885706
 42
0.133112
  0
VERTEX
  8
0
 10
7.835664
 20
1626.054632
 42
0.017752
  0
VERTEX
  8
0
 10
13.821356
 20
1626.054604
 42
0.021003
  0
VERTEX
  8
0
 10
19.896265
 20
1626.526336
 42
0.068830
  0
VERTEX
  8
0
 10
23.782119
 20
1627.547335
 42
0.086203
  0
VERTEX
  8
0
 10
28.811884
 20
1630.745513
 42
0.022688
  0
VERTEX
  8
0
 10
35.595394
 20
1637.506210
 42
0.010397
  0
VERTEX
  8
0
 10
46.525262
 20
1649.944903
 42
0.001194
  0
VERTEX
  8
0
 10
70.466836
 20
1678.500000
 42
-0.001186
  0
VERTEX
  8
0
 10
99.289854
 20
1712.878240
 42
-0.005398
  0
VERTEX
  8
0
 10
116.330784
 20
1732.668334
 42
-0.008095
  0
VERTEX
  8
0
 10
130.280433
 20
1748.010996
 42
-0.005666
  0
VERTEX
  8
0
 10
146.470658
 20
1764.862085
 42
-0.015606
  0
VERTEX
  8
0
 10
193.923708
 20
1810.222578
 42
-0.012296
  0
VERTEX
  8
0
 10
247.971654
 20
1856.402395
 42
-0.012064
  0
VERTEX
  8
0
 10
305.513487
 20
1900.907964
 42
-0.013173
  0
VERTEX
  8
0
 10
363.500000
 20
1941.252081
 42
-0.014276
  0
VERTEX
  8
0
 10
420.872133
 20
1976.662269
 42
-0.013316
  0
VERTEX
  8
0
 10
481.501670
 20
2009.610554
 42
-0.013475
  0
VERTEX
  8
0
 10
542.987382
 20
2038.873767
 42
-0.015711
  0
VERTEX
  8
0
 10
602.922264
 20
2063.219589
 42
-0.031990
  0
VERTEX
  8
0
 10
745.474609
 20
2105.831157
 42
-0.031944
  0
VERTEX
  8
0
 10
892.366801
 20
2129.934343
 42
-0.031303
  0
VERTEX
  8
0
 10
1043.946639
 20
2135.421780
 42
-0.028188
  0
VERTEX
  8
0
 10
1200.500000
 20
2122.435739
 42
-0.022662
  0
VERTEX
  8
0
 10
1326.252894
 20
2098.975536
 42
-0.025548
  0
VERTEX
  8
0
 10
1444.338177
 20
2064.912178
 42
-0.026124
  0
VERTEX
  8
0
 10
1555.949477
 20
2019.793690
 42
-0.026070
  0
VERTEX
  8
0
 10
1662.326397
 20
1963.254556
 42
-0.024018
  0
VERTEX
  8
0
 10
1754.175955
 20
1901.931197
 42
-0.022732
  0
VERTEX
  8
0
 10
1841.490038
 20
1831.010343
 42
-0.022337
  0
VERTEX
  8
0
 10
1923.471969
 20
1751.150113
 42
-0.021310
  0
VERTEX
  8
0
 10
1999.363678
 20
1663.074200
 42
0.001323
  0
VERTEX
  8
0
 10
2014.593844
 20
1643.899982
 42
0.011812
  0
VERTEX
  8
0
 10
2021.508458
 20
1635.649362
 42
0.027506
  0
VERTEX
  8
0
 10
2025.984715
 20
1631.089534
 42
0.063402
  0
VERTEX
  8
0
 10
2029.907284
 20
1628.330340
 42
0.030503
  0
VERTEX
  8
0
 10
2032.314184
 20
1627.239878
 42
0.036645
  0
VERTEX
  8
0
 10
2034.694511
 20
1626.526581
 42
0.033892
  0
VERTEX
  8
0
 10
2037.302157
 20
1626.132119
 42
0.020826
  0
VERTEX
  8
0
 10
2040.407284
 20
1626.005577
 42
0.024979
  0
VERTEX
  8
0
 10
2044.805129
 20
1626.229455
 42
0.021842
  0
VERTEX
  8
0
 10
2049.362602
 20
1626.892575
 42
0.013734
  0
VERTEX
  8
0
 10
2053.352810
 20
1627.766578
 42
0.344677
  0
VERTEX
  8
0
 10
2054.000000
 20
1628.593878
 42
0.126357
  0
VERTEX
  8
0
 10
2053.755294
 20
1629.546735
 42
0.000049
  0
VERTEX
  8
0
 10
2036.540878
 20
1660.844481
 42
0.000842
  0
VERTEX
  8
0
 10
2021.240707
 20
1688.544995
 42
0.003330
  0
VERTEX
  8
0
 10
2011.690258
 20
1705.500000
 42
0.013972
  0
VERTEX
  8
0
 10
1988.186328
 20
1744.044468
 42
0.009605
  0
VERTEX
  8
0
 10
1959.506432
 20
1786.442929
 42
0.009382
  0
VERTEX
  8
0
 10
1928.210796
 20
1829.122320
 42
0.010815
  0
VERTEX
  8
0
 10
1896.746010
 20
1868.585680
 42
0.009663
  0
VERTEX
  8
0
 10
1870.264569
 20
1899.143198
 42
0.007490
  0
VERTEX
  8
0
 10
1840.305604
 20
1931.407594
 42
0.007584
  0
VERTEX
  8
0
 10
1810.026707
 20
1962.106352
 42
0.011409
  0
VERTEX
  8
0
 10
1782.626386
 20
1987.853221
 42
0.011564
  0
VERTEX
  8
0
 10
1741.738595
 20
2022.880545
 42
0.012052
  0
VERTEX
  8
0
 10
1699.824338
 20
2055.486026
 42
0.012165
  0
VERTEX
  8
0
 10
1656.778934
 20
2085.744207
 42
0.012328
  0
VERTEX
  8
0
 10
1612.500000
 20
2113.734297
 42
0.022417
  0
VERTEX
  8
0
 10
1527.083402
 20
2159.759656
 42
0.021833
  0
VERTEX
  8
0
 10
1437.143827
 20
2198.396031
 42
0.021393
  0
VERTEX
  8
0
 10
1342.375340
 20
2229.728495
 42
0.019610
  0
VERTEX
  8
0
 10
1242.500000
 20
2253.885390
 42
0.005195
  0
VERTEX
  8
0
 10
1218.535735
 20
2258.437212
 42
0.006774
  0
VERTEX
  8
0
 10
1196.511730
 20
2262.076615
 42
0.005272
  0
VERTEX
  8
0
 10
1170.527655
 20
2265.729713
 42
0.001800
  0
VERTEX
  8
0
 10
1132.751455
 20
2270.496852
 42
0.000000
  0
VERTEX
  8
0
 10
1096.002911
 20
2275.000000
 42
0.000000
  0
VERTEX
  8
0
 10
1026.251455
 20
2274.889421
 42
0.000794
  0
VERTEX
  8
0
 10
990.394122
 20
2274.775661
 42
0.003668
  0
VERTEX
  8
0
 10
969.651711
 20
2274.524737
 42
0.004273
  0
VERTEX
  8
0
 10
956.155925
 20
2274.147031
 42
0.051172
  0
SEQEND
  0
POLYLINE
  8
0
 66
1
 70
1
  0
VERTEX
  8
0
 10
730.500000
 20
1999.938886
 42
0.007243
  0
VERTEX
  8
0
 10
724.413254
 20
1999.494340
 42
0.003672
  0
VERTEX
  8
0
 10
716.765625
 20
1998.767661
 42
0.003647
  0
VERTEX
  8
0
 10
708.881820
 20
1997.901920
 42
0.005435
  0
VERTEX
  8
0
 10
702.000000
 20
1997.019440
 42
0.033581
  0
VERTEX
  8
0
 10
587.602655
 20
1973.168925
 42
0.034704
  0
VERTEX
  8
0
 10
478.720455
 20
1934.400630
 42
0.034378
  0
VERTEX
  8
0
 10
375.322178
 20
1880.548008
 42
0.031692
  0
VERTEX
  8
0
 10
277.284669
 20
1811.697005
 42
0.013303
  0
VERTEX
  8
0
 10
250.996419
 20
1789.454309
 42
0.013295
  0
VERTEX
  8
0
 10
225.923302
 20
1765.840997
 42
0.013619
  0
VERTEX
  8
0
 10
202.769254
 20
1741.555235
 42
0.016031
  0
VERTEX
  8
0
 10
182.243485
 20
1717.297202
 42
0.031854
  0
VERTEX
  8
0
 10
149.254811
 20
1669.744550
 42
0.030892
  0
VERTEX
  8
0
 10
122.199392
 20
1617.909347
 42
0.031342
  0
VERTEX
  8
0
 10
102.091216
 20
1563.935522
 42
0.035380
  0
VERTEX
  8
0
 10
89.847139
 20
1510.000000
 42
0.026174
  0
VERTEX
  8
0
 10
88.068874
 20
1492.305507
 42
0.010353
  0
VERTEX
  8
0
 10
87.405662
 20
1467.856691
 42
0.010275
  0
VERTEX
  8
0
 10
87.749266
 20
1443.548913
 42
0.028355
  0
VERTEX
  8
0
 10
89.311514
 20
1426.500000
 42
0.046214
  0
VERTEX
  8
0
 10
103.027325
 20
1370.557640
 42
0.045830
  0
VERTEX
  8
0
 10
126.811349
 20
1317.920945
 42
0.041650
  0
VERTEX
  8
0
 10
162.045291
 20
1266.335758
 42
0.027914
  0
VERTEX
  8
0
 10
210.152642
 20
1213.469894
 42
0.018256
  0
VERTEX
  8
0
 10
252.338064
 20
1174.937690
 42
0.017702
  0
VERTEX
  8
0
 10
297.646509
 20
1139.169820
 42
0.016990
  0
VERTEX
  8
0
 10
347.166664
 20
1105.372081
 42
0.014101
  0
VERTEX
  8
0
 10
402.000000
 20
1072.748048
 42
0.018809
  0
VERTEX
  8
0
 10
486.374139
 20
1029.793632
 42
0.011367
  0
VERTEX
  8
0
 10
589.222736
 20
985.025188
 42
0.010419
  0
VERTEX
  8
0
 10
705.485810
 20
940.334727
 42
0.008661
  0
VERTEX
  8
0
 10
830.870527
 20
897.552783
 42
0.002230
  0
VERTEX
  8
0
 10
888.173624
 20
879.384071
 42
0.002698
  0
VERTEX
  8
0
 10
942.110099
 20
862.866018
 42
0.001564
  0
VERTEX
  8
0
 10
1015.398876
 20
841.102891
 42
0.000272
  0
VERTEX
  8
0
 10
1154.000000
 20
800.498396
 42
-0.001765
  0
VERTEX
  8
0
 10
1234.470072
 20
776.662714
 42
-0.007363
  0
VERTEX
  8
0
 10
1282.676661
 20
761.421068
 42
-0.011880
  0
VERTEX
  8
0
 10
1317.306827
 20
748.987180
 42
-0.015245
  0
VERTEX
  8
0
 10
1348.500000
 20
735.837218
 42
-0.026435
  0
VERTEX
  8
0
 10
1391.279433
 20
713.440479
 42
-0.037142
  0
VERTEX
  8
0
 10
1426.600941
 20
688.784699
 42
-0.041325
  0
VERTEX
  8
0
 10
1454.813058
 20
661.632236
 42
-0.049787
  0
VERTEX
  8
0
 10
1476.256222
 20
631.750422
 42
-0.029627
  0
VERTEX
  8
0
 10
1482.642483
 20
618.979889
 42
-0.022774
  0
VERTEX
  8
0
 10
1488.120084
 20
604.380094
 42
-0.022403
  0
VERTEX
  8
0
 10
1492.343068
 20
589.037302
 42
-0.025508
  0
VERTEX
  8
0
 10
1494.962913
 20
574.026234
 42
-0.085143
  0
VERTEX
  8
0
 10
1492.388285
 20
520.534828
 42
-0.057879
  0
VERTEX
  8
0
 10
1472.386927
 20
462.819625
 42
-0.050327
  0
VERTEX
  8
0
 10
1436.053320
 20
403.531146
 42
-0.036406
  0
VERTEX
  8
0
 10
1384.737651
 20
345.392956
 42
-0.007139
  0
VERTEX
  8
0
 10
1368.765090
 20
330.193758
 42
-0.008807
  0
VERTEX
  8
0
 10
1353.430476
 20
316.506342
 42
-0.006701
  0
VERTEX
  8
0
 10
1334.620943
 20
300.737529
 42
-0.002226
  0
VERTEX
  8
0
 10
1306.643397
 20
278.120868
 42
0.001908
  0
VERTEX
  8
0
 10
1291.363864
 20
265.785169
 42
0.006475
  0
VERTEX
  8
0
 10
1281.534488
 20
257.573584
 42
0.004245
  0
VERTEX
  8
0
 10
1274.766836
 20
251.668895
 42
0.689914
  0
VERTEX
  8
0
 10
1275.020863
 20
251.000000
 42
0.023331
  0
VERTEX
  8
0
 10
1282.022498
 20
251.326894
 42
0.001373
  0
VERTEX
  8
0
 10
1303.221209
 20
253.369404
 42
0.002137
  0
VERTEX
  8
0
 10
1324.055519
 20
255.524527
 42
0.009052
  0
VERTEX
  8
0
 10
1336.500000
 20
257.093959
 42
0.027798
  0
VERTEX
  8
0
 10
1419.536482
 20
273.851760
 42
0.025892
  0
VERTEX
  8
0
 10
1502.239851
 20
300.024396
 42
0.025415
  0
VERTEX
  8
0
 10
1583.311609
 20
335.172386
 42
0.024465
  0
VERTEX
  8
0
 10
1661.468751
 20
378.769555
 42
0.025714
  0
VERTEX
  8
0
 10
1748.358666
 20
439.389962
 42
0.033453
  0
VERTEX
  8
0
 10
1820.808220
 20
503.895275
 42
0.036211
  0
VERTEX
  8
0
 10
1879.216473
 20
572.670023
 42
0.041776
  0
VERTEX
  8
0
 10
1924.037728
 20
646.075263
 42
0.062174
  0
VERTEX
  8
0
 10
1958.079494
 20
742.161474
 42
0.079690
  0
VERTEX
  8
0
 10
1963.440939
 20
835.703345
 42
0.079976
  0
VERTEX
  8
0
 10
1939.291995
 20
925.971929
 42
0.063152
  0
VERTEX
  8
0
 10
1886.616040
 20
1012.440513
 42
0.021422
  0
VERTEX
  8
0
 10
1876.161823
 20
1024.453584
 42
0.006493
  0
VERTEX
  8
0
 10
1859.307840
 20
1041.767112
 42
0.006676
  0
VERTEX
  8
0
 10
1841.751737
 20
1058.876434
 42
0.017216
  0
VERTEX
  8
0
 10
1828.500000
 20
1070.610486
 42
0.026804
  0
VERTEX
  8
0
 10
1772.010059
 20
1112.381365
 42
0.018825
  0
VERTEX
  8
0
 10
1704.390888
 20
1153.418578
 42
0.017678
  0
VERTEX
  8
0
 10
1628.746117
 20
1192.079060
 42
0.015982
  0
VERTEX
  8
0
 10
1548.000000
 20
1226.710034
 42
0.010259
  0
VERTEX
  8
0
 10
1491.683677
 20
1247.438270
 42
0.003521
  0
VERTEX
  8
0
 10
1409.327748
 20
1275.199012
 42
0.002000
  0
VERTEX
  8
0
 10
1280.839684
 20
1316.936140
 42
0.000384
  0
VERTEX
  8
0
 10
1047.500000
 20
1391.504593
 42
-0.000158
  0
VERTEX
  8
0
 10
891.387931
 20
1441.315696
 42
-0.001290
  0
VERTEX
  8
0
 10
820.072801
 20
1464.298193
 42
-0.002798
  0
VERTEX
  8
0
 10
777.423629
 20
1478.428518
 42
-0.007563
  0
VERTEX
  8
0
 10
747.364362
 20
1489.083759
 42
-0.019803
  0
VERTEX
  8
0
 10
688.399194
 20
1513.693573
 42
-0.026356
  0
VERTEX
  8
0
 10
637.106618
 20
1540.900074
 42
-0.029723
  0
VERTEX
  8
0
 10
595.307405
 20
1569.485022
 42
-0.053382
  0
VERTEX
  8
0
 10
565.385943
 20
1598.262184
 42
-0.019390
  0
VERTEX
  8
0
 10
555.563112
 20
1610.933088
 42
-0.025767
  0
VERTEX
  8
0
 10
547.707643
 20
1623.211514
 42
-0.026561
  0
VERTEX
  8
0
 10
541.339112
 20
1635.920681
 42
-0.022861
  0
VERTEX
  8
0
 10
535.994213
 20
1649.878731
 42
-0.018506
  0
VERTEX
  8
0
 10
532.305554
 20
1662.564010
 42
-0.028825
  0
VERTEX
  8
0
 10
530.174653
 20
1673.744118
 42
-0.026723
  0
VERTEX
  8
0
 10
529.249873
 20
1685.688314
 42
-0.013331
  0
VERTEX
  8
0
 10
529.292696
 20
1700.858577
 42
-0.028004
  0
VERTEX
  8
0
 10
531.247158
 20
1723.668585
 42
-0.032444
  0
VERTEX
  8
0
 10
535.712041
 20
1744.999843
 42
-0.029120
  0
VERTEX
  8
0
 10
543.361758
 20
1767.375359
 42
-0.016547
  0
VERTEX
  8
0
 10
555.051429
 20
1793.500000
 42
-0.024364
  0
VERTEX
  8
0
 10
571.896617
 20
1824.149108
 42
-0.022817
  0
VERTEX
  8
0
 10
591.989433
 20
1853.715483
 42
-0.021497
  0
VERTEX
  8
0
 10
615.882144
 20
1882.931009
 42
-0.016870
  0
VERTEX
  8
0
 10
644.144532
 20
1912.534262
 42
-0.007527
  0
VERTEX
  8
0
 10
662.046609
 20
1929.541695
 42
-0.010232
  0
VERTEX
  8
0
 10
678.735446
 20
1944.305200
 42
-0.008066
  0
VERTEX
  8
0
 10
698.784915
 20
1960.774209
 42
-0.002777
  0
VERTEX
  8
0
 10
728.295668
 20
1983.961736
 42
0.001272
  0
VERTEX
  8
0
 10
735.920856
 20
1989.916057
 42
0.002009
  0
VERTEX
  8
0
 10
742.427154
 20
1995.065758
 42
0.000463
  0
VERTEX
  8
0
 10
748.107412
 20
1999.607513
 42
0.085663
  0
VERTEX
  8
0
 10
748.604685
 20
2000.169383
 42
0.358217
  0
VERTEX
  8
0
 10
748.563867
 20
2000.471306
 42
0.115610
  0
VERTEX
  8
0
 10
748.142089
 20
2000.711829
 42
0.058324
  0
VERTEX
  8
0
 10
747.351492
 20
2000.848803
 42
0.027137
  0
VERTEX
  8
0
 10
746.309017
 20
2000.849610
 42
0.000915
  0
VERTEX
  8
0
 10
744.556943
 20
2000.752590
 42
0.000099
  0
VERTEX
  8
0
 10
740.506399
 20
2000.520049
 42
0.000121
  0
VERTEX
  8
0
 10
735.683547
 20
2000.241041
 42
0.000098
  0
SEQEND
  0
POLYLINE
  8
0
 66
1
 70
1
  0
VERTEX
  8
0
 10
3183.500000
 20
1707.004817
 42
0.009091
  0
VERTEX
  8
0
 10
3134.794857
 20
1704.265575
 42
0.008644
  0
VERTEX
  8
0
 10
3085.392685
 20
1699.725091
 42
0.008557
  0
VERTEX
  8
0
 10
3035.669143
 20
1693.423947
 42
0.008460
  0
VERTEX
  8
0
 10
2986.000000
 20
1685.404050
 42
0.023081
  0
VERTEX
  8
0
 10
2920.509090
 20
1670.541718
 42
0.029188
  0
VERTEX
  8
0
 10
2861.731525
 20
1650.561798
 42
0.031132
  0
VERTEX
  8
0
 10
2808.992511
 20
1625.198073
 42
0.034356
  0
VERTEX
  8
0
 10
2761.604540
 20
1594.204874
 42
0.049573
  0
VERTEX
  8
0
 10
2723.932061
 20
1559.323145
 42
0.050551
  0
VERTEX
  8
0
 10
2694.140035
 20
1517.922644
 42
0.049657
  0
VERTEX
  8
0
 10
2672.845011
 20
1470.683898
 42
0.044759
  0
VERTEX
  8
0
 10
2660.360579
 20
1418.500000
 42
0.025782
  0
VERTEX
  8
0
 10
2658.872418
 20
1402.683840
 42
0.012116
  0
VERTEX
  8
0
 10
2658.502045
 20
1382.144515
 42
0.012127
  0
VERTEX
  8
0
 10
2659.129585
 20
1361.544774
 42
0.024929
  0
VERTEX
  8
0
 10
2660.813272
 20
1345.500000
 42
0.041225
  0
VERTEX
  8
0
 10
2670.780150
 20
1304.200843
 42
0.043240
  0
VERTEX
  8
0
 10
2687.278707
 20
1265.783194
 42
0.043843
  0
VERTEX
  8
0
 10
2709.887394
 20
1231.251722
 42
0.044918
  0
VERTEX
  8
0
 10
2738.005673
 20
1201.494985
 42
0.030496
  0
VERTEX
  8
0
 10
2774.114533
 20
1173.299511
 42
0.019962
  0
VERTEX
  8
0
 10
2818.815329
 20
1145.145950
 42
0.019744
  0
VERTEX
  8
0
 10
2866.488129
 20
1120.165747
 42
0.026301
  0
VERTEX
  8
0
 10
2911.698392
 20
1101.550967
 42
0.008618
  0
VERTEX
  8
0
 10
2939.523238
 20
1092.306674
 42
0.001253
  0
VERTEX
  8
0
 10
2996.497149
 20
1074.619010
 42
0.001154
  0
VERTEX
  8
0
 10
3074.351299
 20
1050.859245
 42
0.000476
  0
VERTEX
  8
0
 10
3179.902018
 20
1019.022666
 42
-0.000387
  0
VERTEX
  8
0
 10
3332.047518
 20
973.161345
 42
-0.003453
  0
VERTEX
  8
0
 10
3398.828480
 20
952.470711
 42
-0.007945
  0
VERTEX
  8
0
 10
3439.001612
 20
939.012928
 42
-0.015890
  0
VERTEX
  8
0
 10
3470.215590
 20
926.873386
 42
-0.009065
  0
VERTEX
  8
0
 10
3487.977898
 20
918.923752
 42
-0.026722
  0
VERTEX
  8
0
 10
3499.764956
 20
912.600564
 42
-0.036483
  0
VERTEX
  8
0
 10
3508.587056
 20
906.319041
 42
-0.035642
  0
VERTEX
  8
0
 10
3516.476399
 20
898.776384
 42
-0.037569
  0
VERTEX
  8
0
 10
3521.016694
 20
892.944401
 42
-0.025449
  0
VERTEX
  8
0
 10
3525.315960
 20
885.698617
 42
-0.025445
  0
VERTEX
  8
0
 10
3528.858008
 20
878.051135
 42
-0.037474
  0
VERTEX
  8
0
 10
3531.100808
 20
871.000000
 42
-0.042568
  0
VERTEX
  8
0
 10
3532.092950
 20
864.343558
 42
-0.019829
  0
VERTEX
  8
0
 10
3532.295770
 20
855.611722
 42
-0.019853
  0
VERTEX
  8
0
 10
3531.802521
 20
846.833486
 42
-0.039808
  0
VERTEX
  8
0
 10
3530.591439
 20
840.000000
 42
-0.067964
  0
VERTEX
  8
0
 10
3522.984547
 20
821.531005
 42
-0.045865
  0
VERTEX
  8
0
 10
3509.760303
 20
802.932089
 42
-0.044842
  0
VERTEX
  8
0
 10
3492.923028
 20
786.559025
 42
-0.055151
  0
VERTEX
  8
0
 10
3474.500000
 20
774.708672
 42
-0.027750
  0
VERTEX
  8
0
 10
3456.050364
 20
766.779035
 42
-0.010402
  0
VERTEX
  8
0
 10
3429.402916
 20
757.662361
 42
-0.010551
  0
VERTEX
  8
0
 10
3401.847841
 20
749.507481
 42
-0.021950
  0
VERTEX
  8
0
 10
3380.000000
 20
744.558955
 42
-0.011426
  0
VERTEX
  8
0
 10
3369.071395
 20
742.840174
 42
-0.004180
  0
VERTEX
  8
0
 10
3353.543925
 20
740.892482
 42
-0.004007
  0
VERTEX
  8
0
 10
3335.913780
 20
738.973686
 42
-0.003838
  0
VERTEX
  8
0
 10
3318.000000
 20
737.307937
 42
-0.015988
  0
VERTEX
  8
0
 10
3290.817405
 20
735.863944
 42
-0.005311
  0
VERTEX
  8
0
 10
3250.916402
 20
735.445878
 42
-0.005303
  0
VERTEX
  8
0
 10
3211.041902
 20
735.874579
 42
-0.016158
  0
VERTEX
  8
0
 10
3184.000000
 20
737.327325
 42
-0.019368
  0
VERTEX
  8
0
 10
3109.664035
 20
746.646567
 42
-0.021433
  0
VERTEX
  8
0
 10
3038.773751
 20
761.482859
 42
-0.021163
  0
VERTEX
  8
0
 10
2968.623674
 20
782.530193
 42
-0.017971
  0
VERTEX
  8
0
 10
2896.500000
 20
810.483162
 42
-0.003693
  0
VERTEX
  8
0
 10
2874.697224
 20
820.039007
 42
-0.002592
  0
VERTEX
  8
0
 10
2850.285680
 20
831.106063
 42
-0.001956
  0
VERTEX
  8
0
 10
2819.822017
 20
845.252244
 42
-0.000797
  0
VERTEX
  8
0
 10
2778.500000
 20
864.717912
 42
0.000296
  0
VERTEX
  8
0
 10
2732.180178
 20
886.594661
 42
0.010224
  0
VERTEX
  8
0
 10
2721.157132
 20
891.519921
 42
0.046071
  0
VERTEX
  8
0
 10
2715.782422
 20
893.227841
 42
0.259579
  0
VERTEX
  8
0
 10
2713.002128
 20
892.391056
 42
0.021360
  0
VERTEX
  8
0
 10
2706.531973
 20
885.128913
 42
0.000162
  0
VERTEX
  8
0
 10
2656.215840
 20
823.508665
 42
0.000017
  0
VERTEX
  8
0
 10
2603.382487
 20
758.758627
 42
0.263200
  0
VERTEX
  8
0
 10
2603.230060
 20
757.868711
 42
0.158609
  0
VERTEX
  8
0
 10
2605.331072
 20
755.159835
 42
0.000485
  0
VERTEX
  8
0
 10
2642.159553
 20
730.204396
 42
0.003018
  0
VERTEX
  8
0
 10
2675.912368
 20
707.676547
 42
0.010422
  0
VERTEX
  8
0
 10
2698.167154
 20
693.672519
 42
0.027143
  0
VERTEX
  8
0
 10
2795.283827
 20
642.302347
 42
0.025782
  0
VERTEX
  8
0
 10
2899.051352
 20
600.770257
 42
0.025373
  0
VERTEX
  8
0
 10
3008.223408
 20
569.563218
 42
0.024350
  0
VERTEX
  8
0
 10
3121.500000
 20
549.067091
 42
0.014580
  0
VERTEX
  8
0
 10
3197.979527
 20
541.304362
 42
0.013881
  0
VERTEX
  8
0
 10
3276.046083
 20
537.848639
 42
0.014155
  0
VERTEX
  8
0
 10
3352.470029
 20
538.752715
 42
0.017117
  0
VERTEX
  8
0
 10
3424.000000
 20
544.082026
 42
0.018527
  0
VERTEX
  8
0
 10
3501.441820
 20
555.441730
 42
0.021620
  0
VERTEX
  8
0
 10
3573.889089
 20
572.094153
 42
0.023410
  0
VERTEX
  8
0
 10
3638.462827
 20
593.205134
 42
0.035513
  0
VERTEX
  8
0
 10
3692.043839
 20
618.024222
 42
0.054506
  0
VERTEX
  8
0
 10
3761.650913
 20
667.056558
 42
0.064695
  0
VERTEX
  8
0
 10
3814.575647
 20
727.521555
 42
0.068039
  0
VERTEX
  8
0
 10
3848.342386
 20
796.730258
 42
0.070870
  0
VERTEX
  8
0
 10
3861.681635
 20
871.500000
 42
0.060761
  0
VERTEX
  8
0
 10
3856.213462
 20
934.683025
 42
0.060346
  0
VERTEX
  8
0
 10
3835.720661
 20
994.855136
 42
0.059442
  0
VERTEX
  8
0
 10
3801.092855
 20
1049.172955
 42
0.055852
  0
VERTEX
  8
0
 10
3754.000000
 20
1095.105259
 42
0.028215
  0
VERTEX
  8
0
 10
3718.634317
 20
1119.556564
 42
0.016512
  0
VERTEX
  8
0
 10
3673.815566
 20
1144.950140
 42
0.015232
  0
VERTEX
  8
0
 10
3622.522904
 20
1169.854295
 42
0.013206
  0
VERTEX
  8
0
 10
3567.329592
 20
1192.873763
 42
0.010064
  0
VERTEX
  8
0
 10
3512.159672
 20
1212.924679
 42
0.008385
  0
VERTEX
  8
0
 10
3452.777375
 20
1232.057747
 42
0.006470
  0
VERTEX
  8
0
 10
3379.730139
 20
1253.220205
 42
0.002684
  0
VERTEX
  8
0
 10
3280.500000
 20
1280.009188
 42
-0.000394
  0
VERTEX
  8
0
 10
3185.243175
 20
1305.258084
 42
-0.001471
  0
VERTEX
  8
0
 10
3125.382478
 20
1321.364094
 42
-0.001737
  0
VERTEX
  8
0
 10
3085.099638
 20
1332.480205
 42
-0.015368
  0
VERTEX
  8
0
 10
3067.500000
 20
1337.991196
 42
-0.023303
  0
VERTEX
  8
0
 10
3056.244201
 20
1342.497235
 42
-0.009686
  0
VERTEX
  8
0
 10
3041.473685
 20
1349.573267
 42
-0.009747
  0
VERTEX
  8
0
 10
3026.814970
 20
1357.309832
 42
-0.020400
  0
VERTEX
  8
0
 10
3015.795109
 20
1364.004316
 42
-0.021095
  0
VERTEX
  8
0
 10
3007.102445
 20
1370.327479
 42
-0.034944
  0
VERTEX
  8
0
 10
3000.412724
 20
1376.447234
 42
-0.039398
  0
VERTEX
  8
0
 10
2995.222986
 20
1382.848562
 42
-0.039108
  0
VERTEX
  8
0
 10
2991.087263
 20
1390.000000
 42
-0.014388
  0
VERTEX
  8
0
 10
2988.931169
 20
1394.862478
 42
-0.051883
  0
VERTEX
  8
0
 10
2987.979543
 20
1398.111635
 42
-0.039452
  0
VERTEX
  8
0
 10
2987.590242
 20
1401.900864
 42
-0.005879
  0
VERTEX
  8
0
 10
2987.500000
 20
1409.575391
 42
0.000000
  0
VERTEX
  8
0
 10
2987.500000
 20
1421.650782
 42
0.000000
  0
VERTEX
  8
0
 10
2991.909559
 20
1430.549643
 42
-0.015909
  0
VERTEX
  8
0
 10
2994.463410
 20
1435.316114
 42
-0.027037
  0
VERTEX
  8
0
 10
2996.933046
 20
1439.104166
 42
-0.026549
  0
VERTEX
  8
0
 10
2999.829309
 20
1442.650090
 42
-0.014695
  0
VERTEX
  8
0
 10
3003.711187
 20
1446.674548
 42
-0.025599
  0
VERTEX
  8
0
 10
3015.023629
 20
1456.653584
 42
-0.022244
  0
VERTEX
  8
0
 10
3027.824745
 20
1465.931991
 42
-0.022927
  0
VERTEX
  8
0
 10
3040.823059
 20
1473.668158
 42
-0.035972
  0
VERTEX
  8
0
 10
3052.695697
 20
1478.957325
 42
-0.021003
  0
VERTEX
  8
0
 10
3065.536587
 20
1483.002552
 42
-0.006355
  0
VERTEX
  8
0
 10
3085.337977
 20
1488.068692
 42
-0.006394
  0
VERTEX
  8
0
 10
3107.551505
 20
1493.152286
 42
-0.007228
  0
VERTEX
  8
0
 10
3129.000000
 20
1497.449556
 42
-0.011081
  0
VERTEX
  8
0
 10
3152.019993
 20
1501.190935
 42
-0.011551
  0
VERTEX
  8
0
 10
3174.867302
 20
1503.849858
 42
-0.010106
  0
VERTEX
  8
0
 10
3200.326388
 20
1505.700028
 42
-0.005577
  0
VERTEX
  8
0
 10
3231.500000
 20
1506.984449
 42
-0.021949
  0
VERTEX
  8
0
 10
3316.819790
 20
1505.801246
 42
-0.022957
  0
VERTEX
  8
0
 10
3400.427556
 20
1497.102957
 42
-0.023232
  0
VERTEX
  8
0
 10
3481.924952
 20
1480.919551
 42
-0.023776
  0
VERTEX
  8
0
 10
3560.930807
 20
1457.340996
 42
-0.008644
  0
VERTEX
  8
0
 10
3589.235207
 20
1446.853007
 42
-0.009336
  0
VERTEX
  8
0
 10
3616.436499
 20
1435.645770
 42
-0.008816
  0
VERTEX
  8
0
 10
3644.533660
 20
1422.857608
 42
-0.006270
  0
VERTEX
  8
0
 10
3675.580159
 20
1407.580292
 42
0.003097
  0
VERTEX
  8
0
 10
3685.903594
 20
1402.418739
 42
0.005092
  0
VERTEX
  8
0
 10
3694.707749
 20
1398.195603
 42
0.001079
  0
VERTEX
  8
0
 10
3702.429822
 20
1394.608073
 42
0.327405
  0
VERTEX
  8
0
 10
3703.068401
 20
1394.737557
 42
0.044605
  0
VERTEX
  8
0
 10
3703.571628
 20
1395.401205
 42
0.000023
  0
VERTEX
  8
0
 10
3717.271358
 20
1417.273097
 42
0.000322
  0
VERTEX
  8
0
 10
3732.496526
 20
1441.617711
 42
0.000196
  0
VERTEX
  8
0
 10
3750.445344
 20
1470.383624
 42
-0.000061
  0
VERTEX
  8
0
 10
3768.442330
 20
1499.244106
 42
-0.000098
  0
VERTEX
  8
0
 10
3783.826574
 20
1523.897292
 42
-0.000017
  0
VERTEX
  8
0
 10
3797.439391
 20
1545.700649
 42
-0.005469
  0
VERTEX
  8
0
 10
3798.527801
 20
1547.402086
 42
0.414071
  0
VERTEX
  8
0
 10
3798.107146
 20
1549.424066
 42
0.019297
  0
VERTEX
  8
0
 10
3791.504749
 20
1553.399139
 42
0.008685
  0
VERTEX
  8
0
 10
3778.275803
 20
1560.387103
 42
0.000525
  0
VERTEX
  8
0
 10
3738.213301
 20
1580.614620
 42
0.001070
  0
VERTEX
  8
0
 10
3695.293262
 20
1602.113307
 42
0.005578
  0
VERTEX
  8
0
 10
3671.474971
 20
1613.650343
 42
0.008649
  0
VERTEX
  8
0
 10
3652.434794
 20
1622.212999
 42
0.005504
  0
VERTEX
  8
0
 10
3630.000000
 20
1631.548170
 42
0.021110
  0
VERTEX
  8
0
 10
3549.004476
 20
1660.298435
 42
0.020711
  0
VERTEX
  8
0
 10
3465.358858
 20
1682.322412
 42
0.020488
  0
VERTEX
  8
0
 10
3379.279923
 20
1697.548307
 42
0.019626
  0
VERTEX
  8
0
 10
3291.000000
 20
1705.947418
 42
0.007918
  0
VERTEX
  8
0
 10
3267.634372
 20
1706.877284
 42
0.003526
  0
VERTEX
  8
0
 10
3236.826850
 20
1707.397620
 42
0.003513
  0
VERTEX
  8
0
 10
3206.186511
 20
1707.483740
 42
0.008447
  0
SEQEND
  0
POLYLINE
  8
0
 66
1
 70
1
  0
VERTEX
  8
0
 10
4451.894536
 20
1670.928771
 42
0.046180
  0
VERTEX
  8
0
 10
4448.250545
 20
1669.963248
 42
0.047473
  0
VERTEX
  8
0
 10
4444.881242
 20
1668.351535
 42
0.045195
  0
VERTEX
  8
0
 10
4441.738046
 20
1666.053125
 42
0.035300
  0
VERTEX
  8
0
 10
4438.767040
 20
1663.040941
 42
0.063655
  0
VERTEX
  8
0
 10
4436.133963
 20
1659.029083
 42
0.000949
  0
VERTEX
  8
0
 10
4423.842850
 20
1633.699229
 42
0.002111
  0
VERTEX
  8
0
 10
4407.910116
 20
1600.346499
 42
0.000760
  0
VERTEX
  8
0
 10
4385.514724
 20
1552.764719
 42
-0.000089
  0
VERTEX
  8
0
 10
4317.482032
 20
1407.715960
 42
-0.000064
  0
VERTEX
  8
0
 10
4241.456347
 20
1245.754669
 42
-0.000058
  0
VERTEX
  8
0
 10
4157.142805
 20
1066.251029
 42
-0.000043
  0
VERTEX
  8
0
 10
4063.974776
 20
868.000000
 42
0.000102
  0
VERTEX
  8
0
 10
3989.258571
 20
708.963379
 42
0.000745
  0
VERTEX
  8
0
 10
3953.554219
 20
632.629163
 42
0.000516
  0
VERTEX
  8
0
 10
3930.981427
 20
584.050532
 42
0.032306
  0
VERTEX
  8
0
 10
3927.565853
 20
575.227651
 42
0.000000
  0
VERTEX
  8
0
 10
3926.851038
 20
572.955302
 42
0.000000
  0
VERTEX
  8
0
 10
4031.675519
 20
573.227651
 42
0.000000
  0
VERTEX
  8
0
 10
4136.500000
 20
573.500000
 42
0.000000
  0
VERTEX
  8
0
 10
4141.251211
 20
575.839792
 42
0.028565
  0
VERTEX
  8
0
 10
4143.276774
 20
576.985378
 42
0.019688
  0
VERTEX
  8
0
 10
4145.436136
 20
578.498456
 42
0.019904
  0
VERTEX
  8
0
 10
4147.404122
 20
580.123941
 42
0.037830
  0
VERTEX
  8
0
 10
4148.825853
 20
581.604897
 42
0.053261
  0
VERTEX
  8
0
 10
4150.407011
 20
584.002781
 42
0.004166
  0
VERTEX
  8
0
 10
4153.869305
 20
590.849274
 42
0.005640
  0
VERTEX
  8
0
 10
4157.848306
 20
599.116236
 42
0.004283
  0
VERTEX
  8
0
 10
4162.030233
 20
608.265105
 42
-0.001517
  0
VERTEX
  8
0
 10
4186.848891
 20
663.365280
 42
-0.001180
  0
VERTEX
  8
0
 10
4214.167902
 20
723.153187
 42
-0.000189
  0
VERTEX
  8
0
 10
4241.657443
 20
782.881387
 42
-0.055027
  0
VERTEX
  8
0
 10
4244.452128
 20
787.526124
 42
-0.035471
  0
VERTEX
  8
0
 10
4245.774493
 20
789.026207
 42
-0.020232
  0
VERTEX
  8
0
 10
4247.564811
 20
790.650813
 42
-0.020129
  0
VERTEX
  8
0
 10
4249.508490
 20
792.147509
 42
-0.031275
  0
VERTEX
  8
0
 10
4251.307932
 20
793.259231
 42
0.000000
  0
VERTEX
  8
0
 10
4255.500000
 20
795.500000
 42
0.000000
  0
VERTEX
  8
0
 10
4539.500000
 20
795.500000
 42
0.000000
  0
VERTEX
  8
0
 10
4823.500000
 20
795.500000
 42
0.000000
  0
VERTEX
  8
0
 10
4828.269994
 20
793.151115
 42
-0.076302
  0
VERTEX
  8
0
 10
4832.694596
 20
790.059459
 42
-0.059631
  0
VERTEX
  8
0
 10
4836.427807
 20
785.531450
 42
-0.029568
  0
VERTEX
  8
0
 10
4840.778785
 20
777.775614
 42
-0.004653
  0
VERTEX
  8
0
 10
4848.280520
 20
761.956840
 42
0.001090
  0
VERTEX
  8
0
 10
4853.309402
 20
751.154355
 42
0.000305
  0
VERTEX
  8
0
 10
4861.217402
 20
734.290447
 42
0.000308
  0
VERTEX
  8
0
 10
4870.184512
 20
715.228826
 42
0.000324
  0
VERTEX
  8
0
 10
4879.023995
 20
696.500000
 42
-0.000363
  0
VERTEX
  8
0
 10
4888.290495
 20
676.862445
 42
-0.000265
  0
VERTEX
  8
0
 10
4898.554738
 20
655.039429
 42
-0.000268
  0
VERTEX
  8
0
 10
4908.258908
 20
634.349911
 42
-0.000593
  0
VERTEX
  8
0
 10
4915.636917
 20
618.549121
 42
0.002803
  0
VERTEX
  8
0
 10
4921.720276
 20
605.669771
 42
0.003931
  0
VERTEX
  8
0
 10
4927.306807
 20
594.243334
 42
0.002362
  0
VERTEX
  8
0
 10
4932.127754
 20
584.689433
 42
0.052141
  0
VERTEX
  8
0
 10
4933.825026
 20
582.077462
 42
0.037683
  0
VERTEX
  8
0
 10
4935.267704
 20
580.546621
 42
0.019432
  0
VERTEX
  8
0
 10
4937.280661
 20
578.848211
 42
0.019202
  0
VERTEX
  8
0
 10
4939.497947
 20
577.253227
 42
0.027478
  0
VERTEX
  8
0
 10
4941.587315
 20
576.028341
 42
0.000000
  0
VERTEX
  8
0
 10
4946.500000
 20
573.500000
 42
0.000000
  0
VERTEX
  8
0
 10
5115.750000
 20
573.235841
 42
0.000300
  0
VERTEX
  8
0
 10
5180.649064
 20
573.173484
 42
0.000500
  0
VERTEX
  8
0
 10
5235.282812
 20
573.208441
 42
0.000010
  0
VERTEX
  8
0
 10
5284.777504
 20
573.290643
 42
0.413721
  0
VERTEX
  8
0
 10
5285.000000
 20
573.513513
 42
0.116271
  0
VERTEX
  8
0
 10
5284.145817
 20
577.137107
 42
0.000003
  0
VERTEX
  8
0
 10
5066.712722
 20
1012.696847
 42
0.000161
  0
VERTEX
  8
0
 10
4875.452915
 20
1395.511271
 42
0.001778
  0
VERTEX
  8
0
 10
4798.274603
 20
1548.500000
 42
0.002802
  0
VERTEX
  8
0
 10
4777.845834
 20
1588.089441
 42
0.015166
  0
VERTEX
  8
0
 10
4765.991470
 20
1609.167660
 42
0.027317
  0
VERTEX
  8
0
 10
4756.497282
 20
1623.127109
 42
0.032731
  0
VERTEX
  8
0
 10
4746.051271
 20
1635.101829
 42
0.034017
  0
VERTEX
  8
0
 10
4732.003901
 20
1647.423058
 42
0.041215
  0
VERTEX
  8
0
 10
4717.249924
 20
1656.872362
 42
0.040361
  0
VERTEX
  8
0
 10
4700.884677
 20
1663.918694
 42
0.030536
  0
VERTEX
  8
0
 10
4682.000000
 20
1669.040520
 42
0.033801
  0
VERTEX
  8
0
 10
4672.471497
 20
1670.346546
 42
0.012282
  0
VERTEX
  8
0
 10
4658.839805
 20
1670.947781
 42
0.004257
  0
VERTEX
  8
0
 10
4634.086983
 20
1671.220057
 42
0.000286
  0
VERTEX
  8
0
 10
4563.394536
 20
1671.355231
 42
0.000498
  0
VERTEX
  8
0
 10
4521.708497
 20
1671.369523
 42
0.000793
  0
VERTEX
  8
0
 10
4486.047907
 20
1671.289676
 42
0.000151
  0
VERTEX
  8
0
 10
4454.588317
 20
1671.159850
 42
0.040594
  0
SEQEND
  0
POLYLINE
  8
0
 66
1
 70
1
  0
VERTEX
  8
0
 10
4638.231795
 20
1206.277822
 42
-0.000165
  0
VERTEX
  8
0
 10
4677.601331
 20
1122.798358
 42
-0.000274
  0
VERTEX
  8
0
 10
4710.692843
 20
1052.470947
 42
-0.000003
  0
VERTEX
  8
0
 10
4740.698111
 20
988.610573
 42
-0.316098
  0
VERTEX
  8
0
 10
4740.646034
 20
988.312701
 42
-0.198825
  0
VERTEX
  8
0
 10
4740.330779
 20
988.182056
 42
-0.000003
  0
VERTEX
  8
0
 10
4680.938468
 20
988.162578
 42
-0.000245
  0
VERTEX
  8
0
 10
4615.501198
 20
988.173605
 42
-0.000147
  0
VERTEX
  8
0
 10
4537.832161
 20
988.247573
 42
0.000000
  0
VERTEX
  8
0
 10
4335.335843
 20
988.500000
 42
0.000000
  0
VERTEX
  8
0
 10
4432.131904
 20
1200.500000
 42
0.000012
  0
VERTEX
  8
0
 10
4469.426023
 20
1282.185781
 42
0.000019
  0
VERTEX
  8
0
 10
4501.255549
 20
1351.914062
 42
0.000003
  0
VERTEX
  8
0
 10
4529.452464
 20
1413.691861
 42
0.001165
  0
VERTEX
  8
0
 10
4531.520058
 20
1418.250000
 42
-0.009614
  0
VERTEX
  8
0
 10
4532.563714
 20
1420.451163
 42
-0.015007
  0
VERTEX
  8
0
 10
4533.554565
 20
1422.299979
 42
-0.009132
  0
VERTEX
  8
0
 10
4534.436690
 20
1423.770725
 42
-0.272989
  0
VERTEX
  8
0
 10
4534.806076
 20
1423.962694
 42
-0.275014
  0
VERTEX
  8
0
 10
4535.213680
 20
1423.689505
 42
-0.000007
  0
VERTEX
  8
0
 10
4565.473625
 20
1360.002375
 42
-0.000396
  0
VERTEX
  8
0
 10
4598.789849
 20
1289.736543
 42
-0.000238
  0
SEQEND
  0
POLYLINE
  8
0
 66
1
 70
1
  0
VERTEX
  8
0
 10
8595.467705
 20
1670.443679
 42
0.043910
  0
VERTEX
  8
0
 10
8592.269649
 20
1669.325189
 42
0.041544
  0
VERTEX
  8
0
 10
8589.252718
 20
1667.648523
 42
0.040676
  0
VERTEX
  8
0
 10
8586.496208
 20
1665.457491
 42
0.038406
  0
VERTEX
  8
0
 10
8584.072810
 20
1662.809375
 42
0.051532
  0
VERTEX
  8
0
 10
8581.120225
 20
1658.114224
 42
0.003016
  0
VERTEX
  8
0
 10
8573.727801
 20
1642.902693
 42
0.001875
  0
VERTEX
  8
0
 10
8560.819575
 20
1615.666742
 42
0.000147
  0
VERTEX
  8
0
 10
8526.739075
 20
1543.000000
 42
-0.000109
  0
VERTEX
  8
0
 10
8465.236337
 20
1411.837319
 42
-0.000058
  0
VERTEX
  8
0
 10
8388.870921
 20
1249.119183
 42
-0.000051
  0
VERTEX
  8
0
 10
8301.024253
 20
1062.043135
 42
-0.000038
  0
VERTEX
  8
0
 10
8203.991038
 20
855.500000
 42
0.000111
  0
VERTEX
  8
0
 10
8130.452554
 20
698.907826
 42
0.000861
  0
VERTEX
  8
0
 10
8096.196918
 20
625.593865
 42
0.000233
  0
VERTEX
  8
0
 10
8073.745872
 20
577.268498
 42
0.109041
  0
VERTEX
  8
0
 10
8073.000000
 20
573.889006
 42
0.412230
  0
VERTEX
  8
0
 10
8073.423782
 20
573.462342
 42
0.000116
  0
VERTEX
  8
0
 10
8101.226876
 20
573.280353
 42
0.001545
  0
VERTEX
  8
0
 10
8134.203336
 20
573.174036
 42
0.000684
  0
VERTEX
  8
0
 10
8177.750000
 20
573.227699
 42
0.000000
  0
VERTEX
  8
0
 10
8282.500000
 20
573.500000
 42
0.000000
  0
VERTEX
  8
0
 10
8287.217535
 20
575.823490
 42
0.071912
  0
VERTEX
  8
0
 10
8291.687706
 20
578.889744
 42
0.059484
  0
VERTEX
  8
0
 10
8295.443150
 20
583.284066
 42
0.034039
  0
VERTEX
  8
0
 10
8299.525835
 20
590.409885
 42
0.007258
  0
VERTEX
  8
0
 10
8305.581557
 20
603.349519
 42
-0.000544
  0
VERTEX
  8
0
 10
8324.591570
 20
645.432257
 42
-0.000181
  0
VERTEX
  8
0
 10
8352.502520
 20
706.981132
 42
-0.000042
  0
VERTEX
  8
0
 10
8382.449712
 20
772.942106
 42
-0.005874
  0
VERTEX
  8
0
 10
8386.086970
 20
780.708026
 42
-0.043616
  0
VERTEX
  8
0
 10
8389.173126
 20
785.892396
 42
-0.053081
  0
VERTEX
  8
0
 10
8392.940144
 20
790.100213
 42
-0.057407
  0
VERTEX
  8
0
 10
8397.222738
 20
793.156720
 42
-0.068933
  0
VERTEX
  8
0
 10
8401.838191
 20
794.933766
 42
-0.056641
  0
VERTEX
  8
0
 10
8406.689663
 20
795.502601
 42
-0.000165
  0
VERTEX
  8
0
 10
8470.921427
 20
795.709785
 42
-0.000745
  0
VERTEX
  8
0
 10
8555.959668
 20
795.829365
 42
-0.000212
  0
VERTEX
  8
0
 10
8688.000000
 20
795.762350
 42
-0.000126
  0
VERTEX
  8
0
 10
8855.616497
 20
795.564054
 42
-0.001277
  0
VERTEX
  8
0
 10
8925.206067
 20
795.286516
 42
-0.000674
  0
VERTEX
  8
0
 10
8968.293836
 20
794.946559
 42
-0.105405
  0
VERTEX
  8
0
 10
8973.000000
 20
793.897773
 42
-0.075257
  0
VERTEX
  8
0
 10
8977.453267
 20
790.983095
 42
-0.058575
  0
VERTEX
  8
0
 10
8981.291431
 20
786.642245
 42
-0.034285
  0
VERTEX
  8
0
 10
8985.495509
 20
779.604141
 42
-0.007848
  0
VERTEX
  8
0
 10
8991.579241
 20
767.144241
 42
0.000366
  0
VERTEX
  8
0
 10
8996.694027
 20
756.258611
 42
0.000060
  0
VERTEX
  8
0
 10
9006.621593
 20
735.176746
 42
0.000066
  0
VERTEX
  8
0
 10
9018.310892
 20
710.369890
 42
0.000058
  0
VERTEX
  8
0
 10
9030.508938
 20
684.500000
 42
-0.000142
  0
VERTEX
  8
0
 10
9042.644273
 20
658.751862
 42
-0.000167
  0
VERTEX
  8
0
 10
9054.144175
 20
634.312826
 42
-0.000147
  0
VERTEX
  8
0
 10
9063.854186
 20
613.643984
 42
-0.001021
  0
VERTEX
  8
0
 10
9068.580394
 20
603.522388
 42
0.007516
  0
VERTEX
  8
0
 10
9074.729598
 20
590.787534
 42
0.034476
  0
VERTEX
  8
0
 10
9078.902532
 20
583.727159
 42
0.058697
  0
VERTEX
  8
0
 10
9082.788602
 20
579.296282
 42
0.064654
  0
VERTEX
  8
0
 10
9087.482269
 20
576.054602
 42
0.000000
  0
VERTEX
  8
0
 10
9092.446077
 20
573.500000
 42
0.000000
  0
VERTEX
  8
0
 10
9261.723038
 20
573.235841
 42
0.000342
  0
VERTEX
  8
0
 10
9326.632439
 20
573.178887
 42
0.000570
  0
VERTEX
  8
0
 10
9381.274892
 20
573.230529
 42
0.000013
  0
VERTEX
  8
0
 10
9430.746787
 20
573.334952
 42
0.413588
  0
VERTEX
  8
0
 10
9431.000000
 20
573.588706
 42
0.116089
  0
VERTEX
  8
0
 10
9430.326665
 20
576.449716
 42
0.000046
  0
VERTEX
  8
0
 10
9383.430058
 20
670.541604
 42
0.000401
  0
VERTEX
  8
0
 10
9313.853614
 20
809.825572
 42
0.000054
  0
VERTEX
  8
0
 10
9167.821570
 20
1101.500000
 42
0.000153
  0
VERTEX
  8
0
 10
9072.161856
 20
1292.365922
 42
0.000248
  0
VERTEX
  8
0
 10
8990.638768
 20
1454.699935
 42
0.000031
  0
VERTEX
  8
0
 10
8917.923340
 20
1599.293865
 42
0.019310
  0
VERTEX
  8
0
 10
8913.461392
 20
1607.372119
 42
0.044918
  0
VERTEX
  8
0
 10
8896.594075
 20
1630.359512
 42
0.056103
  0
VERTEX
  8
0
 10
8876.985221
 20
1648.117435
 42
0.056859
  0
VERTEX
  8
0
 10
8854.146880
 20
1660.898893
 42
0.048035
  0
VERTEX
  8
0
 10
8827.688407
 20
1669.101708
 42
0.034961
  0
VERTEX
  8
0
 10
8818.321265
 20
1670.371516
 42
0.011477
  0
VERTEX
  8
0
 10
8804.408837
 20
1670.954676
 42
0.004118
  0
VERTEX
  8
0
 10
8779.144043
 20
1671.225087
 42
0.000291
  0
VERTEX
  8
0
 10
8708.563753
 20
1671.358091
 42
0.000610
  0
VERTEX
  8
0
 10
8659.574538
 20
1671.362110
 42
0.001737
  0
VERTEX
  8
0
 10
8625.447589
 20
1671.204720
 42
0.000706
  0
VERTEX
  8
0
 10
8599.403298
 20
1670.957381
 42
0.059513
  0
SEQEND
  0
POLYLINE
  8
0
 66
1
 70
1
  0
VERTEX
  8
0
 10
8784.525140
 20
1204.951710
 42
0.000000
  0
VERTEX
  8
0
 10
8886.814980
 20
988.500000
 42
0.000000
  0
VERTEX
  8
0
 10
8684.243250
 20
988.247573
 42
-0.000143
  0
VERTEX
  8
0
 10
8606.545823
 20
988.173050
 42
-0.000239
  0
VERTEX
  8
0
 10
8541.085951
 20
988.160312
 42
-0.000003
  0
VERTEX
  8
0
 10
8481.669300
 20
988.177512
 42
-0.198835
  0
VERTEX
  8
0
 10
8481.361681
 20
988.304986
 42
-0.312903
  0
VERTEX
  8
0
 10
8481.291829
 20
988.691278
 42
-0.000001
  0
VERTEX
  8
0
 10
8572.083443
 20
1187.911619
 42
-0.000073
  0
VERTEX
  8
0
 10
8653.299162
 20
1366.050872
 42
-0.001533
  0
VERTEX
  8
0
 10
8677.644906
 20
1419.000000
 42
-0.008932
  0
VERTEX
  8
0
 10
8679.036435
 20
1421.866782
 42
-0.066325
  0
VERTEX
  8
0
 10
8679.893528
 20
1423.113650
 42
-0.248833
  0
VERTEX
  8
0
 10
8680.569959
 20
1423.359312
 42
-0.215398
  0
VERTEX
  8
0
 10
8681.214765
 20
1422.951710
 42
-0.035061
  0
VERTEX
  8
0
 10
8681.955173
 20
1421.636316
 42
-0.000008
  0
VERTEX
  8
0
 10
8711.983158
 20
1358.275540
 42
-0.000168
  0
VERTEX
  8
0
 10
8745.231494
 20
1288.055562
 42
-0.000102
  0
SEQEND
  0
POLYLINE
  8
0
 66
1
 70
1
  0
VERTEX
  8
0
 10
9601.500000
 20
1671.011876
 42
0.000172
  0
VERTEX
  8
0
 10
9596.009471
 20
1670.708845
 42
0.000240
  0
VERTEX
  8
0
 10
9591.098437
 20
1670.433739
 42
0.000144
  0
VERTEX
  8
0
 10
9586.960625
 20
1670.198761
 42
0.003148
  0
VERTEX
  8
0
 10
9585.750000
 20
1670.122011
 42
0.392901
  0
VERTEX
  8
0
 10
9584.517351
 20
1668.805324
 42
0.000127
  0
VERTEX
  8
0
 10
9584.250855
 20
1591.535774
 42
0.000745
  0
VERTEX
  8
0
 10
9584.037429
 20
1466.478660
 42
0.000054
  0
VERTEX
  8
0
 10
9584.000000
 20
1122.500000
 42
0.000000
  0
VERTEX
  8
0
 10
9584.000000
 20
575.000000
 42
0.000000
  0
VERTEX
  8
0
 10
9695.998462
 20
575.000000
 42
0.000000
  0
VERTEX
  8
0
 10
9807.996923
 20
575.000000
 42
0.000000
  0
VERTEX
  8
0
 10
9808.248462
 20
895.971803
 42
0.000000
  0
VERTEX
  8
0
 10
9808.500000
 20
1216.943607
 42
0.000000
  0
VERTEX
  8
0
 10
9820.000000
 20
1208.203837
 42
-0.004168
  0
VERTEX
  8
0
 10
9827.028600
 20
1202.769209
 42
-0.000494
  0
VERTEX
  8
0
 10
9842.515625
 20
1190.561945
 42
-0.000591
  0
VERTEX
  8
0
 10
9860.895662
 20
1176.009581
 42
-0.000484
  0
VERTEX
  8
0
 10
9880.500000
 20
1160.419200
 42
0.000246
  0
VERTEX
  8
0
 10
9906.980361
 20
1139.340032
 42
0.000062
  0
VERTEX
  8
0
 10
9950.209375
 20
1104.971841
 42
0.000063
  0
VERTEX
  8
0
 10
9999.655469
 20
1065.681004
 42
0.000063
  0
VERTEX
  8
0
 10
10049.000000
 20
1026.491195
 42
-0.000455
  0
VERTEX
  8
0
 10
10182.449410
 20
920.333918
 42
-0.000914
  0
VERTEX
  8
0
 10
10287.580631
 20
836.232199
 42
-0.001139
  0
VERTEX
  8
0
 10
10373.799870
 20
766.677051
 42
-0.001756
  0
VERTEX
  8
0
 10
10448.000000
 20
706.105484
 42
-0.000004
  0
VERTEX
  8
0
 10
10457.830459
 20
698.022774
 42
-0.000003
  0
VERTEX
  8
0
 10
10468.778347
 20
689.021038
 42
-0.000003
  0
VERTEX
  8
0
 10
10479.174166
 20
680.473020
 42
-0.000007
  0
VERTEX
  8
0
 10
10487.139052
 20
673.923590
 42
0.002056
  0
VERTEX
  8
0
 10
10494.232299
 20
668.139464
 42
0.001734
  0
VERTEX
  8
0
 10
10501.787036
 20
662.073769
 42
0.001748
  0
VERTEX
  8
0
 10
10508.718635
 20
656.587332
 42
0.004860
  0
VERTEX
  8
0
 10
10513.639052
 20
652.797447
 42
0.046068
  0
VERTEX
  8
0
 10
10574.962951
 20
614.815563
 42
0.046132
  0
VERTEX
  8
0
 10
10642.176479
 20
588.725169
 42
0.044607
  0
VERTEX
  8
0
 10
10715.124629
 20
574.777804
 42
0.037965
  0
VERTEX
  8
0
 10
10793.500000
 20
572.906814
 42
0.001477
  0
VERTEX
  8
0
 10
10802.271869
 20
573.389584
 42
0.001832
  0
VERTEX
  8
0
 10
10810.432813
 20
573.892922
 42
0.001496
  0
VERTEX
  8
0
 10
10817.283197
 20
574.361211
 42
0.013738
  0
VERTEX
  8
0
 10
10820.250000
 20
574.655045
 42
0.000000
  0
VERTEX
  8
0
 10
10825.000000
 20
575.257661
 42
0.000000
  0
VERTEX
  8
0
 10
10825.000000
 20
1123.128831
 42
0.000000
  0
VERTEX
  8
0
 10
10825.000000
 20
1671.000000
 42
0.000000
  0
VERTEX
  8
0
 10
10712.500000
 20
1671.000000
 42
0.000000
  0
VERTEX
  8
0
 10
10600.000000
 20
1671.000000
 42
0.000000
  0
VERTEX
  8
0
 10
10600.000000
 20
1345.000000
 42
-0.000190
  0
VERTEX
  8
0
 10
10599.952503
 20
1219.995007
 42
-0.000317
  0
VERTEX
  8
0
 10
10599.805838
 20
1114.762500
 42
-0.000004
  0
VERTEX
  8
0
 10
10599.611453
 20
1019.271874
 42
-0.413615
  0
VERTEX
  8
0
 10
10599.339022
 20
1019.000000
 42
-0.169120
  0
VERTEX
  8
0
 10
10597.494716
 20
1019.642186
 42
-0.000162
  0
VERTEX
  8
0
 10
10561.993710
 20
1047.794789
 42
-0.000763
  0
VERTEX
  8
0
 10
10506.398401
 20
1092.050133
 42
-0.000074
  0
VERTEX
  8
0
 10
10372.257061
 20
1199.197791
 42
0.000069
  0
VERTEX
  8
0
 10
10287.291403
 20
1267.067020
 42
0.000081
  0
VERTEX
  8
0
 10
10206.688099
 20
1331.411997
 42
0.000071
  0
VERTEX
  8
0
 10
10138.537062
 20
1385.782429
 42
0.000499
  0
VERTEX
  8
0
 10
10105.257061
 20
1412.270887
 42
0.000328
  0
VERTEX
  8
0
 10
9992.963995
 20
1501.344880
 42
0.000809
  0
VERTEX
  8
0
 10
9910.396468
 20
1566.534472
 42
0.000432
  0
VERTEX
  8
0
 10
9846.767354
 20
1616.515895
 42
0.018088
  0
VERTEX
  8
0
 10
9832.722650
 20
1626.730487
 42
0.034114
  0
VERTEX
  8
0
 10
9805.697257
 20
1642.363713
 42
0.031948
  0
VERTEX
  8
0
 10
9776.208170
 20
1654.566707
 42
0.029879
  0
VERTEX
  8
0
 10
9743.546710
 20
1663.561850
 42
0.022893
  0
VERTEX
  8
0
 10
9707.000000
 20
1669.580748
 42
0.022525
  0
VERTEX
  8
0
 10
9690.406694
 20
1670.784305
 42
0.003450
  0
VERTEX
  8
0
 10
9657.292392
 20
1671.462049
 42
0.004010
  0
VERTEX
  8
0
 10
9623.717960
 20
1671.648219
 42
0.013080
  0
SEQEND
  0
POLYLINE
  8
0
 66
1
 70
1
  0
VERTEX
  8
0
 10
6702.750000
 20
1670.328692
 42
0.000000
  0
VERTEX
  8
0
 10
6700.000000
 20
1669.867155
 42
0.000000
  0
VERTEX
  8
0
 10
6700.000000
 20
1122.433578
 42
0.000000
  0
VERTEX
  8
0
 10
6700.000000
 20
575.000000
 42
0.000000
  0
VERTEX
  8
0
 10
6851.500000
 20
575.000000
 42
0.000000
  0
VERTEX
  8
0
 10
7003.000000
 20
575.000000
 42
0.000000
  0
VERTEX
  8
0
 10
7003.000000
 20
759.031385
 42
-0.000166
  0
VERTEX
  8
0
 10
7003.038237
 20
874.081151
 42
-0.002202
  0
VERTEX
  8
0
 10
7003.253354
 20
916.523949
 42
-0.001154
  0
VERTEX
  8
0
 10
7003.553757
 20
942.023883
 42
-0.300338
  0
VERTEX
  8
0
 10
7004.750000
 20
943.781385
 42
-0.096551
  0
VERTEX
  8
0
 10
7006.227268
 20
944.076440
 42
-0.000050
  0
VERTEX
  8
0
 10
7053.132812
 20
944.288907
 42
-0.000688
  0
VERTEX
  8
0
 10
7105.336625
 20
944.448290
 42
-0.000419
  0
VERTEX
  8
0
 10
7167.000000
 20
944.500000
 42
0.000000
  0
VERTEX
  8
0
 10
7327.500000
 20
944.500000
 42
0.000000
  0
VERTEX
  8
0
 10
7332.533979
 20
941.842620
 42
-0.022078
  0
VERTEX
  8
0
 10
7334.749590
 20
940.544877
 42
-0.013417
  0
VERTEX
  8
0
 10
7337.254246
 20
938.828255
 42
-0.013436
  0
VERTEX
  8
0
 10
7339.651714
 20
936.988439
 42
-0.023022
  0
VERTEX
  8
0
 10
7341.533979
 20
935.312590
 42
-0.031899
  0
VERTEX
  8
0
 10
7346.157346
 20
930.182934
 42
-0.003473
  0
VERTEX
  8
0
 10
7355.949125
 20
917.639373
 42
-0.001587
  0
VERTEX
  8
0
 10
7373.806329
 20
894.280221
 42
-0.000106
  0
VERTEX
  8
0
 10
7424.764857
 20
827.151008
 42
0.000721
  0
VERTEX
  8
0
 10
7481.000808
 20
753.258604
 42
0.004544
  0
VERTEX
  8
0
 10
7510.070485
 20
715.885188
 42
0.008768
  0
VERTEX
  8
0
 10
7530.345262
 20
691.203861
 42
0.011376
  0
VERTEX
  8
0
 10
7549.825895
 20
669.346968
 42
0.030863
  0
VERTEX
  8
0
 10
7589.392310
 20
631.864106
 42
0.045571
  0
VERTEX
  8
0
 10
7628.690451
 20
604.655773
 42
0.048751
  0
VERTEX
  8
0
 10
7670.128643
 20
586.295878
 42
0.043216
  0
VERTEX
  8
0
 10
7716.045924
 20
575.386164
 42
0.025909
  0
VERTEX
  8
0
 10
7726.041062
 20
574.432911
 42
0.006068
  0
VERTEX
  8
0
 10
7742.858960
 20
573.908992
 42
0.003213
  0
VERTEX
  8
0
 10
7770.806711
 20
573.557340
 42
0.000461
  0
VERTEX
  8
0
 10
7828.000000
 20
573.257939
 42
0.000677
  0
VERTEX
  8
0
 10
7875.425259
 20
573.117561
 42
0.002006
  0
VERTEX
  8
0
 10
7907.968188
 20
573.195854
 42
0.002153
  0
VERTEX
  8
0
 10
7930.939229
 20
573.442217
 42
0.019375
  0
VERTEX
  8
0
 10
7940.987561
 20
573.983104
 42
0.002171
  0
VERTEX
  8
0
 10
7945.797898
 20
574.450516
 42
0.003472
  0
VERTEX
  8
0
 10
7949.901535
 20
574.896059
 42
0.000757
  0
VERTEX
  8
0
 10
7953.494219
 20
575.316895
 42
0.168385
  0
VERTEX
  8
0
 10
7953.797283
 20
575.463949
 42
0.380914
  0
VERTEX
  8
0
 10
7953.820097
 20
575.860231
 42
0.000001
  0
VERTEX
  8
0
 10
7796.766502
 20
773.939865
 42
0.000013
  0
VERTEX
  8
0
 10
7643.307611
 20
967.474885
 42
0.010333
  0
VERTEX
  8
0
 10
7635.373831
 20
977.066081
 42
-0.397610
  0
VERTEX
  8
0
 10
7635.424169
 20
978.180998
 42
-0.080126
  0
VERTEX
  8
0
 10
7637.212734
 20
979.428076
 42
-0.024099
  0
VERTEX
  8
0
 10
7641.470866
 20
981.232306
 42
-0.002467
  0
VERTEX
  8
0
 10
7651.761457
 20
984.961385
 42
0.010207
  0
VERTEX
  8
0
 10
7687.226192
 20
998.437631
 42
0.017074
  0
VERTEX
  8
0
 10
7716.387122
 20
1011.379605
 42
0.019543
  0
VERTEX
  8
0
 10
7741.518564
 20
1024.814175
 42
0.021691
  0
VERTEX
  8
0
 10
7764.638727
 20
1039.743852
 42
0.043088
  0
VERTEX
  8
0
 10
7804.100200
 20
1073.176144
 42
0.046899
  0
VERTEX
  8
0
 10
7836.023437
 20
1112.007604
 42
0.046476
  0
VERTEX
  8
0
 10
7860.378166
 20
1156.434692
 42
0.040955
  0
VERTEX
  8
0
 10
7877.342791
 20
1206.500000
 42
0.014915
  0
VERTEX
  8
0
 10
7883.064593
 20
1232.699947
 42
0.018298
  0
VERTEX
  8
0
 10
7886.772690
 20
1257.470727
 42
0.017150
  0
VERTEX
  8
0
 10
7888.816435
 20
1283.719834
 42
0.010768
  0
VERTEX
  8
0
 10
7889.489677
 20
1314.500000
 42
0.005088
  0
VERTEX
  8
0
 10
7889.274301
 20
1336.382554
 42
0.013252
  0
VERTEX
  8
0
 10
7888.542143
 20
1352.109679
 42
0.015172
  0
VERTEX
  8
0
 10
7887.048802
 20
1366.505306
 42
0.008806
  0
VERTEX
  8
0
 10
7884.427995
 20
1383.692615
 42
0.063437
  0
VERTEX
  8
0
 10
7860.925425
 20
1460.861791
 42
0.070807
  0
VERTEX
  8
0
 10
7819.396027
 20
1526.558507
 42
0.068440
  0
VERTEX
  8
0
 10
7759.846265
 20
1579.747328
 42
0.053937
  0
VERTEX
  8
0
 10
7683.268835
 20
1620.063074
 42
0.022656
  0
VERTEX
  8
0
 10
7628.048130
 20
1639.071708
 42
0.022029
  0
VERTEX
  8
0
 10
7570.818054
 20
1653.208647
 42
0.020476
  0
VERTEX
  8
0
 10
7508.772936
 20
1663.041606
 42
0.014800
  0
VERTEX
  8
0
 10
7439.000000
 20
1669.101072
 42
0.013797
  0
VERTEX
  8
0
 10
7411.366193
 20
1669.914775
 42
0.000044
  0
VERTEX
  8
0
 10
7066.028070
 20
1670.521279
 42
0.000015
  0
VERTEX
  8
0
 10
6712.107666
 20
1671.100918
 42
0.041997
  0
SEQEND
  0
POLYLINE
  8
0
 66
1
 70
1
  0
VERTEX
  8
0
 10
7332.000000
 20
1478.999870
 42
-0.007636
  0
VERTEX
  8
0
 10
7363.565890
 20
1477.652813
 42
-0.015874
  0
VERTEX
  8
0
 10
7388.104809
 20
1475.446613
 42
-0.017913
  0
VERTEX
  8
0
 10
7410.478068
 20
1471.899527
 42
-0.013147
  0
VERTEX
  8
0
 10
7435.000000
 20
1466.432740
 42
-0.006690
  0
VERTEX
  8
0
 10
7451.747921
 20
1461.994989
 42
-0.013517
  0
VERTEX
  8
0
 10
7464.788263
 20
1457.969253
 42
-0.016231
  0
VERTEX
  8
0
 10
7475.880052
 20
1453.807899
 42
-0.017026
  0
VERTEX
  8
0
 10
7486.500000
 20
1448.995959
 42
-0.065262
  0
VERTEX
  8
0
 10
7515.349636
 20
1429.687064
 42
-0.071752
  0
VERTEX
  8
0
 10
7537.195967
 20
1404.135252
 42
-0.068215
  0
VERTEX
  8
0
 10
7551.711501
 20
1372.308623
 42
-0.051406
  0
VERTEX
  8
0
 10
7558.941975
 20
1334.500000
 42
-0.020276
  0
VERTEX
  8
0
 10
7560.091948
 20
1309.347259
 42
-0.022931
  0
VERTEX
  8
0
 10
7559.108383
 20
1285.202089
 42
-0.024422
  0
VERTEX
  8
0
 10
7556.058780
 20
1262.817173
 42
-0.032684
  0
VERTEX
  8
0
 10
7550.998071
 20
1242.963053
 42
-0.024723
  0
VERTEX
  8
0
 10
7545.240838
 20
1227.867583
 42
-0.033398
  0
VERTEX
  8
0
 10
7538.488839
 20
1214.916100
 42
-0.033825
  0
VERTEX
  8
0
 10
7530.146579
 20
1203.105384
 42
-0.026380
  0
VERTEX
  8
0
 10
7519.603763
 20
1191.450306
 42
-0.038391
  0
VERTEX
  8
0
 10
7504.002802
 20
1178.149738
 42
-0.041941
  0
VERTEX
  8
0
 10
7486.987992
 20
1167.825379
 42
-0.034719
  0
VERTEX
  8
0
 10
7465.909532
 20
1159.107887
 42
-0.016085
  0
VERTEX
  8
0
 10
7437.500000
 20
1150.612264
 42
-0.012769
  0
VERTEX
  8
0
 10
7413.234571
 20
1144.857038
 42
-0.020270
  0
VERTEX
  8
0
 10
7392.181218
 20
1141.312286
 42
-0.017870
  0
VERTEX
  8
0
 10
7369.110409
 20
1139.217849
 42
-0.007531
  0
VERTEX
  8
0
 10
7338.000000
 20
1137.981018
 42
-0.005473
  0
VERTEX
  8
0
 10
7289.212538
 20
1137.311239
 42
-0.000427
  0
VERTEX
  8
0
 10
7158.937779
 20
1137.060015
 42
-0.000061
  0
VERTEX
  8
0
 10
7014.254929
 20
1136.922276
 42
-0.049597
  0
VERTEX
  8
0
 10
7007.122133
 20
1137.625573
 42
0.000000
  0
VERTEX
  8
0
 10
7003.994266
 20
1138.251147
 42
0.000000
  0
VERTEX
  8
0
 10
7004.247133
 20
1308.375573
 42
0.000000
  0
VERTEX
  8
0
 10
7004.500000
 20
1478.500000
 42
0.000000
  0
VERTEX
  8
0
 10
7008.500000
 20
1479.108095
 42
-0.037730
  0
VERTEX
  8
0
 10
7018.112198
 20
1479.834667
 42
-0.000089
  0
VERTEX
  8
0
 10
7158.774643
 20
1479.812657
 42
-0.000426
  0
VERTEX
  8
0
 10
7287.092221
 20
1479.660422
 42
-0.006335
  0
SEQEND
  0
POLYLINE
  8
0
 66
1
 70
1
  0
VERTEX
  8
0
 10
5438.000000
 20
1122.500000
 42
0.000000
  0
VERTEX
  8
0
 10
5438.000000
 20
575.000000
 42
0.000000
  0
VERTEX
  8
0
 10
5590.000000
 20
575.000000
 42
0.000000
  0
VERTEX
  8
0
 10
5742.000000
 20
575.000000
 42
0.000000
  0
VERTEX
  8
0
 10
5742.000000
 20
784.998418
 42
0.000000
  0
VERTEX
  8
0
 10
5742.000000
 20
994.996836
 42
0.000000
  0
VERTEX
  8
0
 10
6054.205818
 20
995.248418
 42
0.000000
  0
VERTEX
  8
0
 10
6366.411637
 20
995.500000
 42
0.000000
  0
VERTEX
  8
0
 10
6386.497389
 20
1090.500000
 42
0.000000
  0
VERTEX
  8
0
 10
6406.583141
 20
1185.500000
 42
0.000000
  0
VERTEX
  8
0
 10
6074.541570
 20
1186.000000
 42
0.000000
  0
VERTEX
  8
0
 10
5742.500000
 20
1186.500000
 42
0.000000
  0
VERTEX
  8
0
 10
5742.500000
 20
1333.000000
 42
0.000000
  0
VERTEX
  8
0
 10
5742.500000
 20
1479.500000
 42
0.000000
  0
VERTEX
  8
0
 10
6105.912553
 20
1480.000000
 42
0.000000
  0
VERTEX
  8
0
 10
6469.325106
 20
1480.500000
 42
0.000000
  0
VERTEX
  8
0
 10
6489.122200
 20
1574.000000
 42
0.000215
  0
VERTEX
  8
0
 10
6496.715388
 20
1609.938232
 42
0.000352
  0
VERTEX
  8
0
 10
6503.115752
 20
1640.401562
 42
0.000028
  0
VERTEX
  8
0
 10
6508.839596
 20
1667.748238
 42
0.043528
  0
VERTEX
  8
0
 10
6508.959647
 20
1668.750000
 42
0.422980
  0
VERTEX
  8
0
 10
6508.239660
 20
1669.495416
 42
0.000024
  0
VERTEX
  8
0
 10
6401.649982
 20
1669.749435
 42
0.000495
  0
VERTEX
  8
0
 10
6252.143090
 20
1669.950501
 42
0.000089
  0
VERTEX
  8
0
 10
5973.500000
 20
1670.000000
 42
0.000000
  0
VERTEX
  8
0
 10
5438.000000
 20
1670.000000
 42
0.000000
  0
SEQEND
  0
POLYLINE
  8
0
 66
1
 70
1
  0
VERTEX
  8
0
 10
2036.500000
 20
647.203414
 42
0.003257
  0
VERTEX
  8
0
 10
2032.846029
 20
645.251153
 42
0.003513
  0
VERTEX
  8
0
 10
2029.309216
 20
643.299469
 42
0.003318
  0
VERTEX
  8
0
 10
2026.297945
 20
641.583705
 42
0.016816
  0
VERTEX
  8
0
 10
2024.659033
 20
640.560366
 42
0.064143
  0
VERTEX
  8
0
 10
2020.959459
 20
637.316180
 42
0.004390
  0
VERTEX
  8
0
 10
2011.808698
 20
626.755582
 42
0.005099
  0
VERTEX
  8
0
 10
1999.610386
 20
612.125916
 42
0.001971
  0
VERTEX
  8
0
 10
1982.986696
 20
591.605725
 42
-0.005567
  0
VERTEX
  8
0
 10
1965.072344
 20
569.814695
 42
-0.010158
  0
VERTEX
  8
0
 10
1949.898312
 20
552.497068
 42
-0.009181
  0
VERTEX
  8
0
 10
1933.039545
 20
534.695207
 42
-0.003696
  0
VERTEX
  8
0
 10
1909.388981
 20
510.975982
 42
-0.005212
  0
VERTEX
  8
0
 10
1879.672223
 20
482.216331
 42
-0.006903
  0
VERTEX
  8
0
 10
1851.994103
 20
456.698850
 42
-0.007177
  0
VERTEX
  8
0
 10
1824.535169
 20
432.778075
 42
-0.006509
  0
VERTEX
  8
0
 10
1795.500000
 20
408.849807
 42
-0.033378
  0
VERTEX
  8
0
 10
1647.071824
 20
305.215574
 42
-0.037395
  0
VERTEX
  8
0
 10
1491.545649
 20
226.596773
 42
-0.038092
  0
VERTEX
  8
0
 10
1328.711590
 20
173.151871
 42
-0.037296
  0
VERTEX
  8
0
 10
1158.500000
 20
144.558193
 42
-0.026719
  0
VERTEX
  8
0
 10
1031.094797
 20
139.656730
 42
-0.023352
  0
VERTEX
  8
0
 10
897.977366
 20
147.876249
 42
-0.023217
  0
VERTEX
  8
0
 10
765.354742
 20
168.570433
 42
-0.025524
  0
VERTEX
  8
0
 10
639.423519
 20
201.028303
 42
-0.036167
  0
VERTEX
  8
0
 10
486.796728
 20
261.210470
 42
-0.035858
  0
VERTEX
  8
0
 10
343.975528
 20
342.904511
 42
-0.035232
  0
VERTEX
  8
0
 10
212.020607
 20
445.674817
 42
-0.032398
  0
VERTEX
  8
0
 10
91.796075
 20
568.698523
 42
-0.002213
  0
VERTEX
  8
0
 10
79.795453
 20
582.811221
 42
-0.003222
  0
VERTEX
  8
0
 10
69.350126
 20
595.368933
 42
-0.003147
  0
VERTEX
  8
0
 10
58.885700
 20
608.280600
 42
-0.001976
  0
VERTEX
  8
0
 10
46.807187
 20
623.500000
 42
0.002961
  0
VERTEX
  8
0
 10
41.738676
 20
629.860770
 42
0.003631
  0
VERTEX
  8
0
 10
36.925971
 20
635.739800
 42
0.003029
  0
VERTEX
  8
0
 10
32.816809
 20
640.625187
 42
0.025986
  0
VERTEX
  8
0
 10
30.855964
 20
642.699319
 42
0.061286
  0
VERTEX
  8
0
 10
26.013958
 20
646.297537
 42
0.071372
  0
VERTEX
  8
0
 10
20.681019
 20
648.391578
 42
0.069972
  0
VERTEX
  8
0
 10
14.886415
 20
648.925877
 42
0.055831
  0
VERTEX
  8
0
 10
8.684821
 20
647.929422
 42
0.017433
  0
VERTEX
  8
0
 10
6.376777
 20
647.200956
 42
0.148760
  0
VERTEX
  8
0
 10
5.513860
 20
646.563901
 42
0.183468
  0
VERTEX
  8
0
 10
5.245498
 20
645.618547
 42
0.029389
  0
VERTEX
  8
0
 10
5.527972
 20
643.684999
 42
0.066068
  0
VERTEX
  8
0
 10
7.408151
 20
638.297446
 42
0.001743
  0
VERTEX
  8
0
 10
18.928782
 20
615.684844
 42
0.004131
  0
VERTEX
  8
0
 10
30.557313
 20
593.508451
 42
0.009701
  0
VERTEX
  8
0
 10
39.697096
 20
577.192189
 42
0.037470
  0
VERTEX
  8
0
 10
151.580977
 20
415.366044
 42
0.042137
  0
VERTEX
  8
0
 10
282.440743
 20
278.795668
 42
0.043048
  0
VERTEX
  8
0
 10
431.655598
 20
168.512781
 42
0.042521
  0
VERTEX
  8
0
 10
598.150665
 20
84.890622
 42
0.011868
  0
VERTEX
  8
0
 10
649.042656
 20
65.925109
 42
0.011164
  0
VERTEX
  8
0
 10
701.819831
 20
48.980947
 42
0.011001
  0
VERTEX
  8
0
 10
756.100187
 20
34.172802
 42
0.010689
  0
VERTEX
  8
0
 10
811.500000
 20
21.612646
 42
0.004949
  0
VERTEX
  8
0
 10
836.438723
 20
16.773143
 42
0.007239
  0
VERTEX
  8
0
 10
858.491337
 20
13.048969
 42
0.005681
  0
VERTEX
  8
0
 10
884.224720
 20
9.384264
 42
0.001842
  0
VERTEX
  8
0
 10
922.365093
 20
4.536942
 42
0.000000
  0
VERTEX
  8
0
 10
959.145987
 20
0.000000
 42
0.000000
  0
VERTEX
  8
0
 10
1027.437964
 20
0.000000
 42
0.000000
  0
VERTEX
  8
0
 10
1095.729942
 20
-0.000000
 42
0.000000
  0
VERTEX
  8
0
 10
1137.114971
 20
5.012369
 42
0.001922
  0
VERTEX
  8
0
 10
1170.559860
 20
9.193590
 42
0.005623
  0
VERTEX
  8
0
 10
1193.575309
 20
12.424373
 42
0.007025
  0
VERTEX
  8
0
 10
1213.507454
 20
15.738407
 42
0.004812
  0
VERTEX
  8
0
 10
1236.039046
 20
20.035042
 42
0.040224
  0
VERTEX
  8
0
 10
1439.292505
 20
78.142474
 42
0.046365
  0
VERTEX
  8
0
 10
1620.644137
 20
166.086979
 42
0.047158
  0
VERTEX
  8
0
 10
1780.133971
 20
284.446945
 42
0.044240
  0
VERTEX
  8
0
 10
1918.403705
 20
432.960884
 42
0.008149
  0
VERTEX
  8
0
 10
1938.102882
 20
459.146065
 42
0.006018
  0
VERTEX
  8
0
 10
1959.074400
 20
488.731458
 42
0.005985
  0
VERTEX
  8
0
 10
1979.495779
 20
519.058346
 42
0.007650
  0
VERTEX
  8
0
 10
1997.540484
 20
547.500000
 42
0.005926
  0
VERTEX
  8
0
 10
2013.307103
 20
573.909628
 42
0.005128
  0
VERTEX
  8
0
 10
2029.236684
 20
601.984152
 42
0.004137
  0
VERTEX
  8
0
 10
2042.946581
 20
627.225088
 42
0.032697
  0
VERTEX
  8
0
 10
2048.418674
 20
639.350345
 42
0.000000
  0
VERTEX
  8
0
 10
2050.985912
 20
646.200690
 42
0.000000
  0
VERTEX
  8
0
 10
2048.742956
 20
649.045016
 42
0.009721
  0
VERTEX
  8
0
 10
2047.847278
 20
650.136511
 42
0.014122
  0
VERTEX
  8
0
 10
2047.011993
 20
651.060801
 42
0.009616
  0
VERTEX
  8
0
 10
2046.289317
 20
651.787922
 42
0.182419
  0
VERTEX
  8
0
 10
2046.000000
 20
651.913105
 42
0.126557
  0
VERTEX
  8
0
 10
2045.635493
 20
651.837589
 42
0.001047
  0
VERTEX
  8
0
 10
2043.003125
 20
650.539436
 42
0.003651
  0
VERTEX
  8
0
 10
2039.985838
 20
649.016044
 42
0.002333
  0
SEQEND
  0
ENDSEC
  0
EOF
