solid CATIA STL
  facet normal  0.000000e+000  0.000000e+000  1.000000e+000
    outer loop
      vertex  0.000000e+000  0.000000e+000  1.000000e+000
      vertex  1.200000e+002  0.000000e+000  1.000000e+000
      vertex -4.263256e-014  7.300000e+001  1.000000e+000
    endloop
  endfacet
  facet normal  -0.000000e+000  0.000000e+000  1.000000e+000
    outer loop
      vertex -4.263256e-014  7.300000e+001  1.000000e+000
      vertex  1.200000e+002  0.000000e+000  1.000000e+000
      vertex  1.200000e+002  7.300000e+001  1.000000e+000
    endloop
  endfacet
  facet normal  0.000000e+000  0.000000e+000 -1.000000e+000
    outer loop
      vertex  0.000000e+000  0.000000e+000  0.000000e+000
      vertex -4.263256e-014  7.300000e+001  0.000000e+000
      vertex  1.200000e+002  0.000000e+000  0.000000e+000
    endloop
  endfacet
  facet normal  0.000000e+000  0.000000e+000 -1.000000e+000
    outer loop
      vertex  1.200000e+002  0.000000e+000  0.000000e+000
      vertex -4.263256e-014  7.300000e+001  0.000000e+000
      vertex  1.200000e+002  7.300000e+001  0.000000e+000
    endloop
  endfacet
  facet normal -1.000000e+000 -5.840077e-016  0.000000e+000
    outer loop
      vertex -4.263256e-014  7.300000e+001  1.000000e+000
      vertex -4.263256e-014  7.300000e+001  0.000000e+000
      vertex  0.000000e+000  0.000000e+000  1.000000e+000
    endloop
  endfacet
  facet normal -1.000000e+000 -5.840077e-016  -0.000000e+000
    outer loop
      vertex  0.000000e+000  0.000000e+000  1.000000e+000
      vertex -4.263256e-014  7.300000e+001  0.000000e+000
      vertex  0.000000e+000  0.000000e+000  0.000000e+000
    endloop
  endfacet
  facet normal  0.000000e+000  1.000000e+000  -0.000000e+000
    outer loop
      vertex  1.200000e+002  7.300000e+001  1.000000e+000
      vertex  1.200000e+002  7.300000e+001  0.000000e+000
      vertex -4.263256e-014  7.300000e+001  1.000000e+000
    endloop
  endfacet
  facet normal  0.000000e+000  1.000000e+000  0.000000e+000
    outer loop
      vertex -4.263256e-014  7.300000e+001  1.000000e+000
      vertex  1.200000e+002  7.300000e+001  0.000000e+000
      vertex -4.263256e-014  7.300000e+001  0.000000e+000
    endloop
  endfacet
  facet normal  1.000000e+000  0.000000e+000  0.000000e+000
    outer loop
      vertex  1.200000e+002  0.000000e+000  1.000000e+000
      vertex  1.200000e+002  0.000000e+000  0.000000e+000
      vertex  1.200000e+002  7.300000e+001  1.000000e+000
    endloop
  endfacet
  facet normal  1.000000e+000  0.000000e+000  0.000000e+000
    outer loop
      vertex  1.200000e+002  7.300000e+001  1.000000e+000
      vertex  1.200000e+002  0.000000e+000  0.000000e+000
      vertex  1.200000e+002  7.300000e+001  0.000000e+000
    endloop
  endfacet
  facet normal  0.000000e+000 -1.000000e+000  0.000000e+000
    outer loop
      vertex  0.000000e+000  0.000000e+000  1.000000e+000
      vertex  0.000000e+000  0.000000e+000  0.000000e+000
      vertex  1.200000e+002  0.000000e+000  1.000000e+000
    endloop
  endfacet
  facet normal  0.000000e+000 -1.000000e+000  -0.000000e+000
    outer loop
      vertex  1.200000e+002  0.000000e+000  1.000000e+000
      vertex  0.000000e+000  0.000000e+000  0.000000e+000
      vertex  1.200000e+002  0.000000e+000  0.000000e+000
    endloop
  endfacet
endsolid CATIA STL
