solid CATIA STL
  facet normal  0.000000e+000 -1.000000e+000  0.000000e+000
    outer loop
      vertex -6.000000e+001  2.850000e+001  0.000000e+000
      vertex -6.000000e+001  2.850000e+001 -7.200000e+001
      vertex -5.600000e+001  2.850000e+001 -7.200000e+001
    endloop
  endfacet
  facet normal  0.000000e+000 -1.000000e+000  0.000000e+000
    outer loop
      vertex -6.000000e+001  2.850000e+001  0.000000e+000
      vertex -5.600000e+001  2.850000e+001 -7.200000e+001
      vertex -5.600000e+001  2.850000e+001 -6.800000e+001
    endloop
  endfacet
  facet normal  0.000000e+000 -1.000000e+000  0.000000e+000
    outer loop
      vertex -6.000000e+001  2.850000e+001  0.000000e+000
      vertex -5.600000e+001  2.850000e+001 -6.800000e+001
      vertex -5.600000e+001  2.850000e+001 -6.500000e+001
    endloop
  endfacet
  facet normal  0.000000e+000 -1.000000e+000  0.000000e+000
    outer loop
      vertex -6.000000e+001  2.850000e+001  0.000000e+000
      vertex -5.600000e+001  2.850000e+001 -6.500000e+001
      vertex -5.600000e+001  2.850000e+001 -4.800000e+001
    endloop
  endfacet
  facet normal  0.000000e+000 -1.000000e+000  0.000000e+000
    outer loop
      vertex -6.000000e+001  2.850000e+001  0.000000e+000
      vertex -5.600000e+001  2.850000e+001 -4.800000e+001
      vertex -5.600000e+001  2.850000e+001  0.000000e+000
    endloop
  endfacet
  facet normal  -0.000000e+000 -1.000000e+000  -0.000000e+000
    outer loop
      vertex  6.000000e+001  2.850000e+001 -7.200000e+001
      vertex  6.000000e+001  2.850000e+001  0.000000e+000
      vertex  5.600000e+001  2.850000e+001  0.000000e+000
    endloop
  endfacet
  facet normal  0.000000e+000 -1.000000e+000  0.000000e+000
    outer loop
      vertex  6.000000e+001  2.850000e+001 -7.200000e+001
      vertex  5.600000e+001  2.850000e+001  0.000000e+000
      vertex  5.600000e+001  2.850000e+001 -4.800000e+001
    endloop
  endfacet
  facet normal  0.000000e+000 -1.000000e+000  0.000000e+000
    outer loop
      vertex  6.000000e+001  2.850000e+001 -7.200000e+001
      vertex  5.600000e+001  2.850000e+001 -4.800000e+001
      vertex  5.600000e+001  2.850000e+001 -6.500000e+001
    endloop
  endfacet
  facet normal  0.000000e+000 -1.000000e+000  0.000000e+000
    outer loop
      vertex  6.000000e+001  2.850000e+001 -7.200000e+001
      vertex  5.600000e+001  2.850000e+001 -6.500000e+001
      vertex  5.600000e+001  2.850000e+001 -6.800000e+001
    endloop
  endfacet
  facet normal  0.000000e+000 -1.000000e+000  0.000000e+000
    outer loop
      vertex  6.000000e+001  2.850000e+001 -7.200000e+001
      vertex  5.600000e+001  2.850000e+001 -6.800000e+001
      vertex  5.600000e+001  2.850000e+001 -7.200000e+001
    endloop
  endfacet
  facet normal  0.000000e+000 -1.000000e+000  -0.000000e+000
    outer loop
      vertex  5.600000e+001  2.850000e+001 -6.500000e+001
      vertex  5.600000e+001  2.850000e+001 -4.800000e+001
      vertex -5.600000e+001  2.850000e+001 -6.500000e+001
    endloop
  endfacet
  facet normal  0.000000e+000 -1.000000e+000  0.000000e+000
    outer loop
      vertex -5.600000e+001  2.850000e+001 -6.500000e+001
      vertex  5.600000e+001  2.850000e+001 -4.800000e+001
      vertex -5.600000e+001  2.850000e+001 -4.800000e+001
    endloop
  endfacet
  facet normal  1.000000e+000  -0.000000e+000  0.000000e+000
    outer loop
      vertex  5.600000e+001  2.850000e+001 -6.500000e+001
      vertex  5.600000e+001  2.150000e+001 -6.500000e+001
      vertex  5.600000e+001  2.850000e+001 -6.800000e+001
    endloop
  endfacet
  facet normal  1.000000e+000  0.000000e+000  0.000000e+000
    outer loop
      vertex  5.600000e+001  2.850000e+001 -6.800000e+001
      vertex  5.600000e+001  2.150000e+001 -6.500000e+001
      vertex  5.600000e+001  2.150000e+001 -6.800000e+001
    endloop
  endfacet
  facet normal -1.000000e+000  0.000000e+000  0.000000e+000
    outer loop
      vertex -5.600000e+001  2.850000e+001 -6.500000e+001
      vertex -5.600000e+001  2.850000e+001 -6.800000e+001
      vertex -5.600000e+001  2.150000e+001 -6.500000e+001
    endloop
  endfacet
  facet normal -1.000000e+000  0.000000e+000  0.000000e+000
    outer loop
      vertex -5.600000e+001  2.150000e+001 -6.500000e+001
      vertex -5.600000e+001  2.850000e+001 -6.800000e+001
      vertex -5.600000e+001  2.150000e+001 -6.800000e+001
    endloop
  endfacet
  facet normal  1.000000e+000  -0.000000e+000  0.000000e+000
    outer loop
      vertex -5.600000e+001  3.650000e+001  0.000000e+000
      vertex -5.600000e+001  2.850000e+001  0.000000e+000
      vertex -5.600000e+001  2.850000e+001 -4.800000e+001
    endloop
  endfacet
  facet normal  1.000000e+000  0.000000e+000  0.000000e+000
    outer loop
      vertex -5.600000e+001  3.650000e+001  0.000000e+000
      vertex -5.600000e+001  2.850000e+001 -4.800000e+001
      vertex -5.600000e+001  3.150000e+001 -4.800000e+001
    endloop
  endfacet
  facet normal  1.000000e+000  -0.000000e+000  0.000000e+000
    outer loop
      vertex -5.600000e+001  3.650000e+001  0.000000e+000
      vertex -5.600000e+001  3.150000e+001 -4.800000e+001
      vertex -5.600000e+001  3.150000e+001 -6.800000e+001
    endloop
  endfacet
  facet normal  1.000000e+000  -0.000000e+000  0.000000e+000
    outer loop
      vertex -5.600000e+001  3.650000e+001  0.000000e+000
      vertex -5.600000e+001  3.150000e+001 -6.800000e+001
      vertex -5.600000e+001  3.650000e+001 -8.000000e+001
    endloop
  endfacet
  facet normal  1.000000e+000  0.000000e+000  0.000000e+000
    outer loop
      vertex -5.600000e+001  2.850000e+001 -7.200000e+001
      vertex -5.600000e+001 -3.650000e+001 -8.000000e+001
      vertex -5.600000e+001  3.650000e+001 -8.000000e+001
    endloop
  endfacet
  facet normal  1.000000e+000  0.000000e+000  0.000000e+000
    outer loop
      vertex -5.600000e+001  2.850000e+001 -7.200000e+001
      vertex -5.600000e+001  3.650000e+001 -8.000000e+001
      vertex -5.600000e+001  3.150000e+001 -6.800000e+001
    endloop
  endfacet
  facet normal  1.000000e+000  0.000000e+000  0.000000e+000
    outer loop
      vertex -5.600000e+001  2.850000e+001 -7.200000e+001
      vertex -5.600000e+001  3.150000e+001 -6.800000e+001
      vertex -5.600000e+001  2.850000e+001 -6.800000e+001
    endloop
  endfacet
  facet normal  1.000000e+000  0.000000e+000  0.000000e+000
    outer loop
      vertex -5.600000e+001  1.350000e+001  0.000000e+000
      vertex -5.600000e+001  1.350000e+001 -7.200000e+001
      vertex -5.600000e+001  1.450000e+001 -6.800000e+001
    endloop
  endfacet
  facet normal  1.000000e+000  0.000000e+000  -0.000000e+000
    outer loop
      vertex -5.600000e+001  1.350000e+001  0.000000e+000
      vertex -5.600000e+001  1.450000e+001 -6.800000e+001
      vertex -5.600000e+001  1.450000e+001 -6.500000e+001
    endloop
  endfacet
  facet normal  1.000000e+000  0.000000e+000  -0.000000e+000
    outer loop
      vertex -5.600000e+001  1.350000e+001  0.000000e+000
      vertex -5.600000e+001  1.450000e+001 -6.500000e+001
      vertex -5.600000e+001  2.150000e+001 -6.500000e+001
    endloop
  endfacet
  facet normal  1.000000e+000  0.000000e+000  -0.000000e+000
    outer loop
      vertex -5.600000e+001  1.350000e+001  0.000000e+000
      vertex -5.600000e+001  2.150000e+001 -6.500000e+001
      vertex -5.600000e+001  2.150000e+001  0.000000e+000
    endloop
  endfacet
  facet normal  1.000000e+000  0.000000e+000  0.000000e+000
    outer loop
      vertex -5.600000e+001 -3.650000e+001 -8.000000e+001
      vertex -5.600000e+001  2.850000e+001 -7.200000e+001
      vertex -5.600000e+001  2.150000e+001 -7.200000e+001
    endloop
  endfacet
  facet normal  1.000000e+000  0.000000e+000  0.000000e+000
    outer loop
      vertex -5.600000e+001 -3.650000e+001 -8.000000e+001
      vertex -5.600000e+001  2.150000e+001 -7.200000e+001
      vertex -5.600000e+001  1.350000e+001 -7.200000e+001
    endloop
  endfacet
  facet normal  1.000000e+000  0.000000e+000  0.000000e+000
    outer loop
      vertex -5.600000e+001 -3.650000e+001 -8.000000e+001
      vertex -5.600000e+001  1.350000e+001 -7.200000e+001
      vertex -5.600000e+001 -3.650000e+001 -7.200000e+001
    endloop
  endfacet
  facet normal  1.000000e+000  0.000000e+000  0.000000e+000
    outer loop
      vertex -5.600000e+001  1.450000e+001 -6.800000e+001
      vertex -5.600000e+001  1.350000e+001 -7.200000e+001
      vertex -5.600000e+001  2.150000e+001 -6.800000e+001
    endloop
  endfacet
  facet normal  1.000000e+000  0.000000e+000  0.000000e+000
    outer loop
      vertex -5.600000e+001  2.150000e+001 -6.800000e+001
      vertex -5.600000e+001  1.350000e+001 -7.200000e+001
      vertex -5.600000e+001  2.150000e+001 -7.200000e+001
    endloop
  endfacet
  facet normal -1.000000e+000  0.000000e+000  0.000000e+000
    outer loop
      vertex  5.600000e+001  3.650000e+001  0.000000e+000
      vertex  5.600000e+001  3.650000e+001 -8.000000e+001
      vertex  5.600000e+001  3.150000e+001 -6.800000e+001
    endloop
  endfacet
  facet normal -1.000000e+000  0.000000e+000  0.000000e+000
    outer loop
      vertex  5.600000e+001  3.650000e+001  0.000000e+000
      vertex  5.600000e+001  3.150000e+001 -6.800000e+001
      vertex  5.600000e+001  3.150000e+001 -4.800000e+001
    endloop
  endfacet
  facet normal -1.000000e+000  0.000000e+000  0.000000e+000
    outer loop
      vertex  5.600000e+001  3.650000e+001  0.000000e+000
      vertex  5.600000e+001  3.150000e+001 -4.800000e+001
      vertex  5.600000e+001  2.850000e+001 -4.800000e+001
    endloop
  endfacet
  facet normal -1.000000e+000  0.000000e+000  0.000000e+000
    outer loop
      vertex  5.600000e+001  3.650000e+001  0.000000e+000
      vertex  5.600000e+001  2.850000e+001 -4.800000e+001
      vertex  5.600000e+001  2.850000e+001  0.000000e+000
    endloop
  endfacet
  facet normal -1.000000e+000  0.000000e+000  0.000000e+000
    outer loop
      vertex  5.600000e+001  2.850000e+001 -7.200000e+001
      vertex  5.600000e+001  2.850000e+001 -6.800000e+001
      vertex  5.600000e+001  3.150000e+001 -6.800000e+001
    endloop
  endfacet
  facet normal -1.000000e+000  0.000000e+000  -0.000000e+000
    outer loop
      vertex  5.600000e+001  2.850000e+001 -7.200000e+001
      vertex  5.600000e+001  3.150000e+001 -6.800000e+001
      vertex  5.600000e+001  3.650000e+001 -8.000000e+001
    endloop
  endfacet
  facet normal -1.000000e+000  0.000000e+000  0.000000e+000
    outer loop
      vertex  5.600000e+001  2.850000e+001 -7.200000e+001
      vertex  5.600000e+001  3.650000e+001 -8.000000e+001
      vertex  5.600000e+001 -3.650000e+001 -8.000000e+001
    endloop
  endfacet
  facet normal -1.000000e+000  -0.000000e+000  -0.000000e+000
    outer loop
      vertex  5.600000e+001  1.350000e+001  0.000000e+000
      vertex  5.600000e+001  2.150000e+001  0.000000e+000
      vertex  5.600000e+001  2.150000e+001 -6.500000e+001
    endloop
  endfacet
  facet normal -1.000000e+000  0.000000e+000  0.000000e+000
    outer loop
      vertex  5.600000e+001  1.350000e+001  0.000000e+000
      vertex  5.600000e+001  2.150000e+001 -6.500000e+001
      vertex  5.600000e+001  1.450000e+001 -6.500000e+001
    endloop
  endfacet
  facet normal -1.000000e+000  -0.000000e+000  -0.000000e+000
    outer loop
      vertex  5.600000e+001  1.350000e+001  0.000000e+000
      vertex  5.600000e+001  1.450000e+001 -6.500000e+001
      vertex  5.600000e+001  1.450000e+001 -6.800000e+001
    endloop
  endfacet
  facet normal -1.000000e+000  -0.000000e+000  0.000000e+000
    outer loop
      vertex  5.600000e+001  1.350000e+001  0.000000e+000
      vertex  5.600000e+001  1.450000e+001 -6.800000e+001
      vertex  5.600000e+001  1.350000e+001 -7.200000e+001
    endloop
  endfacet
  facet normal -1.000000e+000  0.000000e+000  0.000000e+000
    outer loop
      vertex  5.600000e+001 -3.650000e+001 -8.000000e+001
      vertex  5.600000e+001 -3.650000e+001 -7.200000e+001
      vertex  5.600000e+001  1.350000e+001 -7.200000e+001
    endloop
  endfacet
  facet normal -1.000000e+000  0.000000e+000  -0.000000e+000
    outer loop
      vertex  5.600000e+001 -3.650000e+001 -8.000000e+001
      vertex  5.600000e+001  1.350000e+001 -7.200000e+001
      vertex  5.600000e+001  2.150000e+001 -7.200000e+001
    endloop
  endfacet
  facet normal -1.000000e+000  0.000000e+000  -0.000000e+000
    outer loop
      vertex  5.600000e+001 -3.650000e+001 -8.000000e+001
      vertex  5.600000e+001  2.150000e+001 -7.200000e+001
      vertex  5.600000e+001  2.850000e+001 -7.200000e+001
    endloop
  endfacet
  facet normal -1.000000e+000  -0.000000e+000  0.000000e+000
    outer loop
      vertex  5.600000e+001  1.450000e+001 -6.800000e+001
      vertex  5.600000e+001  2.150000e+001 -6.800000e+001
      vertex  5.600000e+001  1.350000e+001 -7.200000e+001
    endloop
  endfacet
  facet normal -1.000000e+000  0.000000e+000  0.000000e+000
    outer loop
      vertex  5.600000e+001  1.350000e+001 -7.200000e+001
      vertex  5.600000e+001  2.150000e+001 -6.800000e+001
      vertex  5.600000e+001  2.150000e+001 -7.200000e+001
    endloop
  endfacet
  facet normal  0.000000e+000  1.000000e+000  -0.000000e+000
    outer loop
      vertex  6.000000e+001  2.150000e+001  0.000000e+000
      vertex  6.000000e+001  2.150000e+001 -7.200000e+001
      vertex  5.600000e+001  2.150000e+001 -7.200000e+001
    endloop
  endfacet
  facet normal  0.000000e+000  1.000000e+000  0.000000e+000
    outer loop
      vertex  6.000000e+001  2.150000e+001  0.000000e+000
      vertex  5.600000e+001  2.150000e+001 -7.200000e+001
      vertex  5.600000e+001  2.150000e+001 -6.800000e+001
    endloop
  endfacet
  facet normal  0.000000e+000  1.000000e+000  0.000000e+000
    outer loop
      vertex  6.000000e+001  2.150000e+001  0.000000e+000
      vertex  5.600000e+001  2.150000e+001 -6.800000e+001
      vertex  5.600000e+001  2.150000e+001 -6.500000e+001
    endloop
  endfacet
  facet normal  0.000000e+000  1.000000e+000  0.000000e+000
    outer loop
      vertex  6.000000e+001  2.150000e+001  0.000000e+000
      vertex  5.600000e+001  2.150000e+001 -6.500000e+001
      vertex  5.600000e+001  2.150000e+001  0.000000e+000
    endloop
  endfacet
  facet normal  -0.000000e+000  1.000000e+000  0.000000e+000
    outer loop
      vertex -6.000000e+001  2.150000e+001 -7.200000e+001
      vertex -6.000000e+001  2.150000e+001  0.000000e+000
      vertex -5.600000e+001  2.150000e+001  0.000000e+000
    endloop
  endfacet
  facet normal  0.000000e+000  1.000000e+000  0.000000e+000
    outer loop
      vertex -6.000000e+001  2.150000e+001 -7.200000e+001
      vertex -5.600000e+001  2.150000e+001  0.000000e+000
      vertex -5.600000e+001  2.150000e+001 -6.500000e+001
    endloop
  endfacet
  facet normal  0.000000e+000  1.000000e+000  0.000000e+000
    outer loop
      vertex -6.000000e+001  2.150000e+001 -7.200000e+001
      vertex -5.600000e+001  2.150000e+001 -6.500000e+001
      vertex -5.600000e+001  2.150000e+001 -6.800000e+001
    endloop
  endfacet
  facet normal  0.000000e+000  1.000000e+000  0.000000e+000
    outer loop
      vertex -6.000000e+001  2.150000e+001 -7.200000e+001
      vertex -5.600000e+001  2.150000e+001 -6.800000e+001
      vertex -5.600000e+001  2.150000e+001 -7.200000e+001
    endloop
  endfacet
  facet normal  0.000000e+000  1.000000e+000  -0.000000e+000
    outer loop
      vertex  5.600000e+001  3.150000e+001 -4.800000e+001
      vertex  5.600000e+001  3.150000e+001 -6.800000e+001
      vertex -5.600000e+001  3.150000e+001 -4.800000e+001
    endloop
  endfacet
  facet normal  0.000000e+000  1.000000e+000  0.000000e+000
    outer loop
      vertex -5.600000e+001  3.150000e+001 -4.800000e+001
      vertex  5.600000e+001  3.150000e+001 -6.800000e+001
      vertex -5.600000e+001  3.150000e+001 -6.800000e+001
    endloop
  endfacet
  facet normal  0.000000e+000  -0.000000e+000 -1.000000e+000
    outer loop
      vertex -5.600000e+001  1.450000e+001 -6.800000e+001
      vertex  5.600000e+001  3.150000e+001 -6.800000e+001
      vertex  5.600000e+001  2.850000e+001 -6.800000e+001
    endloop
  endfacet
  facet normal  0.000000e+000  -0.000000e+000 -1.000000e+000
    outer loop
      vertex -5.600000e+001  1.450000e+001 -6.800000e+001
      vertex  5.600000e+001  2.850000e+001 -6.800000e+001
      vertex  5.600000e+001  2.150000e+001 -6.800000e+001
    endloop
  endfacet
  facet normal  0.000000e+000  -0.000000e+000 -1.000000e+000
    outer loop
      vertex -5.600000e+001  1.450000e+001 -6.800000e+001
      vertex  5.600000e+001  2.150000e+001 -6.800000e+001
      vertex  5.600000e+001  1.450000e+001 -6.800000e+001
    endloop
  endfacet
  facet normal  0.000000e+000  0.000000e+000 -1.000000e+000
    outer loop
      vertex  5.600000e+001  3.150000e+001 -6.800000e+001
      vertex -5.600000e+001  1.450000e+001 -6.800000e+001
      vertex -5.600000e+001  2.150000e+001 -6.800000e+001
    endloop
  endfacet
  facet normal  0.000000e+000  0.000000e+000 -1.000000e+000
    outer loop
      vertex  5.600000e+001  3.150000e+001 -6.800000e+001
      vertex -5.600000e+001  2.150000e+001 -6.800000e+001
      vertex -5.600000e+001  2.850000e+001 -6.800000e+001
    endloop
  endfacet
  facet normal  0.000000e+000  0.000000e+000 -1.000000e+000
    outer loop
      vertex  5.600000e+001  3.150000e+001 -6.800000e+001
      vertex -5.600000e+001  2.850000e+001 -6.800000e+001
      vertex -5.600000e+001  3.150000e+001 -6.800000e+001
    endloop
  endfacet
  facet normal  0.000000e+000 -1.000000e+000  -0.000000e+000
    outer loop
      vertex  5.600000e+001  1.450000e+001 -6.800000e+001
      vertex  5.600000e+001  1.450000e+001 -6.500000e+001
      vertex -5.600000e+001  1.450000e+001 -6.800000e+001
    endloop
  endfacet
  facet normal  0.000000e+000 -1.000000e+000  0.000000e+000
    outer loop
      vertex -5.600000e+001  1.450000e+001 -6.800000e+001
      vertex  5.600000e+001  1.450000e+001 -6.500000e+001
      vertex -5.600000e+001  1.450000e+001 -6.500000e+001
    endloop
  endfacet
  facet normal  0.000000e+000  0.000000e+000  1.000000e+000
    outer loop
      vertex -5.600000e+001  1.450000e+001 -6.500000e+001
      vertex  5.600000e+001  1.450000e+001 -6.500000e+001
      vertex -5.600000e+001  2.150000e+001 -6.500000e+001
    endloop
  endfacet
  facet normal  0.000000e+000  0.000000e+000  1.000000e+000
    outer loop
      vertex -5.600000e+001  2.150000e+001 -6.500000e+001
      vertex  5.600000e+001  1.450000e+001 -6.500000e+001
      vertex -5.600000e+001  2.850000e+001 -6.500000e+001
    endloop
  endfacet
  facet normal  0.000000e+000  0.000000e+000  1.000000e+000
    outer loop
      vertex -5.600000e+001  2.850000e+001 -6.500000e+001
      vertex  5.600000e+001  1.450000e+001 -6.500000e+001
      vertex  5.600000e+001  2.150000e+001 -6.500000e+001
    endloop
  endfacet
  facet normal  0.000000e+000  -0.000000e+000  1.000000e+000
    outer loop
      vertex -5.600000e+001  2.850000e+001 -6.500000e+001
      vertex  5.600000e+001  2.150000e+001 -6.500000e+001
      vertex  5.600000e+001  2.850000e+001 -6.500000e+001
    endloop
  endfacet
  facet normal  0.000000e+000  0.000000e+000  1.000000e+000
    outer loop
      vertex  5.600000e+001  2.850000e+001 -4.800000e+001
      vertex  5.600000e+001  3.150000e+001 -4.800000e+001
      vertex -5.600000e+001  2.850000e+001 -4.800000e+001
    endloop
  endfacet
  facet normal  0.000000e+000  0.000000e+000  1.000000e+000
    outer loop
      vertex -5.600000e+001  2.850000e+001 -4.800000e+001
      vertex  5.600000e+001  3.150000e+001 -4.800000e+001
      vertex -5.600000e+001  3.150000e+001 -4.800000e+001
    endloop
  endfacet
  facet normal  0.000000e+000  0.000000e+000  1.000000e+000
    outer loop
      vertex -6.000000e+001 -3.650000e+001  8.000000e+000
      vertex  6.000000e+001 -3.650000e+001  8.000000e+000
      vertex -6.000000e+001  3.650000e+001  8.000000e+000
    endloop
  endfacet
  facet normal  -0.000000e+000  0.000000e+000  1.000000e+000
    outer loop
      vertex -6.000000e+001  3.650000e+001  8.000000e+000
      vertex  6.000000e+001 -3.650000e+001  8.000000e+000
      vertex  6.000000e+001  3.650000e+001  8.000000e+000
    endloop
  endfacet
  facet normal  0.000000e+000  0.000000e+000 -1.000000e+000
    outer loop
      vertex  6.000000e+001  2.850000e+001  0.000000e+000
      vertex  6.000000e+001  2.150000e+001  0.000000e+000
      vertex  5.600000e+001  2.150000e+001  0.000000e+000
    endloop
  endfacet
  facet normal  0.000000e+000  0.000000e+000 -1.000000e+000
    outer loop
      vertex  6.000000e+001  2.850000e+001  0.000000e+000
      vertex  5.600000e+001  2.150000e+001  0.000000e+000
      vertex -5.600000e+001  2.150000e+001  0.000000e+000
    endloop
  endfacet
  facet normal  0.000000e+000  0.000000e+000 -1.000000e+000
    outer loop
      vertex  6.000000e+001  2.850000e+001  0.000000e+000
      vertex -5.600000e+001  2.150000e+001  0.000000e+000
      vertex -6.000000e+001  2.150000e+001  0.000000e+000
    endloop
  endfacet
  facet normal  0.000000e+000  0.000000e+000 -1.000000e+000
    outer loop
      vertex -6.000000e+001  2.150000e+001  0.000000e+000
      vertex -6.000000e+001  2.850000e+001  0.000000e+000
      vertex -5.600000e+001  2.850000e+001  0.000000e+000
    endloop
  endfacet
  facet normal  0.000000e+000  -0.000000e+000 -1.000000e+000
    outer loop
      vertex -6.000000e+001  2.150000e+001  0.000000e+000
      vertex -5.600000e+001  2.850000e+001  0.000000e+000
      vertex  5.600000e+001  2.850000e+001  0.000000e+000
    endloop
  endfacet
  facet normal  0.000000e+000  -0.000000e+000 -1.000000e+000
    outer loop
      vertex -6.000000e+001  2.150000e+001  0.000000e+000
      vertex  5.600000e+001  2.850000e+001  0.000000e+000
      vertex  6.000000e+001  2.850000e+001  0.000000e+000
    endloop
  endfacet
  facet normal  0.000000e+000  0.000000e+000 -1.000000e+000
    outer loop
      vertex -6.000000e+001 -3.650000e+001  0.000000e+000
      vertex -6.000000e+001  1.350000e+001  0.000000e+000
      vertex -5.600000e+001  1.350000e+001  0.000000e+000
    endloop
  endfacet
  facet normal  0.000000e+000  -0.000000e+000 -1.000000e+000
    outer loop
      vertex -6.000000e+001 -3.650000e+001  0.000000e+000
      vertex -5.600000e+001  1.350000e+001  0.000000e+000
      vertex  5.600000e+001  1.350000e+001  0.000000e+000
    endloop
  endfacet
  facet normal  0.000000e+000  -0.000000e+000 -1.000000e+000
    outer loop
      vertex -6.000000e+001 -3.650000e+001  0.000000e+000
      vertex  5.600000e+001  1.350000e+001  0.000000e+000
      vertex  6.000000e+001  1.350000e+001  0.000000e+000
    endloop
  endfacet
  facet normal  0.000000e+000  -0.000000e+000 -1.000000e+000
    outer loop
      vertex -6.000000e+001 -3.650000e+001  0.000000e+000
      vertex  6.000000e+001  1.350000e+001  0.000000e+000
      vertex  6.000000e+001 -3.650000e+001  0.000000e+000
    endloop
  endfacet
  facet normal  0.000000e+000  0.000000e+000 -1.000000e+000
    outer loop
      vertex -5.600000e+001  2.850000e+001  0.000000e+000
      vertex -5.600000e+001  3.650000e+001  0.000000e+000
      vertex  5.600000e+001  2.850000e+001  0.000000e+000
    endloop
  endfacet
  facet normal  0.000000e+000  0.000000e+000 -1.000000e+000
    outer loop
      vertex  5.600000e+001  2.850000e+001  0.000000e+000
      vertex -5.600000e+001  3.650000e+001  0.000000e+000
      vertex  5.600000e+001  3.650000e+001  0.000000e+000
    endloop
  endfacet
  facet normal  0.000000e+000  0.000000e+000 -1.000000e+000
    outer loop
      vertex -5.600000e+001  1.350000e+001  0.000000e+000
      vertex -5.600000e+001  2.150000e+001  0.000000e+000
      vertex  5.600000e+001  1.350000e+001  0.000000e+000
    endloop
  endfacet
  facet normal  0.000000e+000  0.000000e+000 -1.000000e+000
    outer loop
      vertex  5.600000e+001  1.350000e+001  0.000000e+000
      vertex -5.600000e+001  2.150000e+001  0.000000e+000
      vertex  5.600000e+001  2.150000e+001  0.000000e+000
    endloop
  endfacet
  facet normal  -0.000000e+000  0.000000e+000 -1.000000e+000
    outer loop
      vertex  5.600000e+001  3.650000e+001 -8.000000e+001
      vertex  6.000000e+001  3.650000e+001 -8.000000e+001
      vertex  5.600000e+001 -3.650000e+001 -8.000000e+001
    endloop
  endfacet
  facet normal  0.000000e+000  0.000000e+000 -1.000000e+000
    outer loop
      vertex  5.600000e+001 -3.650000e+001 -8.000000e+001
      vertex  6.000000e+001  3.650000e+001 -8.000000e+001
      vertex  6.000000e+001 -3.650000e+001 -8.000000e+001
    endloop
  endfacet
  facet normal  0.000000e+000  1.000000e+000  0.000000e+000
    outer loop
      vertex  5.600000e+001  3.650000e+001  0.000000e+000
      vertex  6.000000e+001  3.650000e+001 -8.000000e+001
      vertex  5.600000e+001  3.650000e+001 -8.000000e+001
    endloop
  endfacet
  facet normal  -0.000000e+000  1.000000e+000  0.000000e+000
    outer loop
      vertex  6.000000e+001  3.650000e+001 -8.000000e+001
      vertex  5.600000e+001  3.650000e+001  0.000000e+000
      vertex  6.000000e+001  3.650000e+001  8.000000e+000
    endloop
  endfacet
  facet normal  0.000000e+000  1.000000e+000  0.000000e+000
    outer loop
      vertex  6.000000e+001  3.650000e+001  8.000000e+000
      vertex  5.600000e+001  3.650000e+001  0.000000e+000
      vertex -5.600000e+001  3.650000e+001  0.000000e+000
    endloop
  endfacet
  facet normal  0.000000e+000  1.000000e+000  -0.000000e+000
    outer loop
      vertex  6.000000e+001  3.650000e+001  8.000000e+000
      vertex -5.600000e+001  3.650000e+001  0.000000e+000
      vertex -6.000000e+001  3.650000e+001  8.000000e+000
    endloop
  endfacet
  facet normal  0.000000e+000  1.000000e+000  0.000000e+000
    outer loop
      vertex -6.000000e+001  3.650000e+001  8.000000e+000
      vertex -5.600000e+001  3.650000e+001  0.000000e+000
      vertex -5.600000e+001  3.650000e+001 -8.000000e+001
    endloop
  endfacet
  facet normal  0.000000e+000  1.000000e+000  0.000000e+000
    outer loop
      vertex -6.000000e+001  3.650000e+001  8.000000e+000
      vertex -5.600000e+001  3.650000e+001 -8.000000e+001
      vertex -6.000000e+001  3.650000e+001 -8.000000e+001
    endloop
  endfacet
  facet normal  1.000000e+000  -0.000000e+000  0.000000e+000
    outer loop
      vertex  6.000000e+001  1.350000e+001 -7.200000e+001
      vertex  6.000000e+001 -3.650000e+001 -7.200000e+001
      vertex  6.000000e+001 -3.650000e+001 -8.000000e+001
    endloop
  endfacet
  facet normal  1.000000e+000  0.000000e+000  0.000000e+000
    outer loop
      vertex  6.000000e+001  1.350000e+001 -7.200000e+001
      vertex  6.000000e+001 -3.650000e+001 -8.000000e+001
      vertex  6.000000e+001  2.150000e+001 -7.200000e+001
    endloop
  endfacet
  facet normal  1.000000e+000  0.000000e+000  -0.000000e+000
    outer loop
      vertex  6.000000e+001  1.350000e+001 -7.200000e+001
      vertex  6.000000e+001  2.150000e+001 -7.200000e+001
      vertex  6.000000e+001  2.150000e+001  0.000000e+000
    endloop
  endfacet
  facet normal  1.000000e+000  0.000000e+000  0.000000e+000
    outer loop
      vertex  6.000000e+001  1.350000e+001 -7.200000e+001
      vertex  6.000000e+001  2.150000e+001  0.000000e+000
      vertex  6.000000e+001  1.350000e+001  0.000000e+000
    endloop
  endfacet
  facet normal  1.000000e+000  0.000000e+000  0.000000e+000
    outer loop
      vertex  6.000000e+001 -3.650000e+001  8.000000e+000
      vertex  6.000000e+001 -3.650000e+001  0.000000e+000
      vertex  6.000000e+001  1.350000e+001  0.000000e+000
    endloop
  endfacet
  facet normal  1.000000e+000  0.000000e+000  -0.000000e+000
    outer loop
      vertex  6.000000e+001 -3.650000e+001  8.000000e+000
      vertex  6.000000e+001  1.350000e+001  0.000000e+000
      vertex  6.000000e+001  2.150000e+001  0.000000e+000
    endloop
  endfacet
  facet normal  1.000000e+000  0.000000e+000  -0.000000e+000
    outer loop
      vertex  6.000000e+001 -3.650000e+001  8.000000e+000
      vertex  6.000000e+001  2.150000e+001  0.000000e+000
      vertex  6.000000e+001  2.850000e+001  0.000000e+000
    endloop
  endfacet
  facet normal  1.000000e+000  0.000000e+000  -0.000000e+000
    outer loop
      vertex  6.000000e+001 -3.650000e+001  8.000000e+000
      vertex  6.000000e+001  2.850000e+001  0.000000e+000
      vertex  6.000000e+001  3.650000e+001  8.000000e+000
    endloop
  endfacet
  facet normal  1.000000e+000  -0.000000e+000  0.000000e+000
    outer loop
      vertex  6.000000e+001  3.650000e+001  8.000000e+000
      vertex  6.000000e+001  2.850000e+001  0.000000e+000
      vertex  6.000000e+001  3.650000e+001 -8.000000e+001
    endloop
  endfacet
  facet normal  1.000000e+000  0.000000e+000  0.000000e+000
    outer loop
      vertex  6.000000e+001  3.650000e+001 -8.000000e+001
      vertex  6.000000e+001  2.850000e+001  0.000000e+000
      vertex  6.000000e+001  2.850000e+001 -7.200000e+001
    endloop
  endfacet
  facet normal  1.000000e+000  0.000000e+000  0.000000e+000
    outer loop
      vertex  6.000000e+001  3.650000e+001 -8.000000e+001
      vertex  6.000000e+001  2.850000e+001 -7.200000e+001
      vertex  6.000000e+001 -3.650000e+001 -8.000000e+001
    endloop
  endfacet
  facet normal  1.000000e+000  0.000000e+000  0.000000e+000
    outer loop
      vertex  6.000000e+001 -3.650000e+001 -8.000000e+001
      vertex  6.000000e+001  2.850000e+001 -7.200000e+001
      vertex  6.000000e+001  2.150000e+001 -7.200000e+001
    endloop
  endfacet
  facet normal  0.000000e+000  0.000000e+000  1.000000e+000
    outer loop
      vertex  5.600000e+001  2.850000e+001 -7.200000e+001
      vertex  5.600000e+001  2.150000e+001 -7.200000e+001
      vertex  6.000000e+001  2.850000e+001 -7.200000e+001
    endloop
  endfacet
  facet normal  0.000000e+000  0.000000e+000  1.000000e+000
    outer loop
      vertex  6.000000e+001  2.850000e+001 -7.200000e+001
      vertex  5.600000e+001  2.150000e+001 -7.200000e+001
      vertex  6.000000e+001  2.150000e+001 -7.200000e+001
    endloop
  endfacet
  facet normal  0.000000e+000  0.000000e+000  1.000000e+000
    outer loop
      vertex  5.600000e+001  1.350000e+001 -7.200000e+001
      vertex  5.600000e+001 -3.650000e+001 -7.200000e+001
      vertex  6.000000e+001  1.350000e+001 -7.200000e+001
    endloop
  endfacet
  facet normal  0.000000e+000  0.000000e+000  1.000000e+000
    outer loop
      vertex  6.000000e+001  1.350000e+001 -7.200000e+001
      vertex  5.600000e+001 -3.650000e+001 -7.200000e+001
      vertex  6.000000e+001 -3.650000e+001 -7.200000e+001
    endloop
  endfacet
  facet normal  0.000000e+000 -1.000000e+000  -0.000000e+000
    outer loop
      vertex  6.000000e+001  1.350000e+001 -7.200000e+001
      vertex  6.000000e+001  1.350000e+001  0.000000e+000
      vertex  5.600000e+001  1.350000e+001 -7.200000e+001
    endloop
  endfacet
  facet normal  0.000000e+000 -1.000000e+000  0.000000e+000
    outer loop
      vertex  5.600000e+001  1.350000e+001 -7.200000e+001
      vertex  6.000000e+001  1.350000e+001  0.000000e+000
      vertex  5.600000e+001  1.350000e+001  0.000000e+000
    endloop
  endfacet
  facet normal  0.000000e+000 -1.000000e+000  -0.000000e+000
    outer loop
      vertex  6.000000e+001 -3.650000e+001 -8.000000e+001
      vertex  6.000000e+001 -3.650000e+001 -7.200000e+001
      vertex  5.600000e+001 -3.650000e+001 -8.000000e+001
    endloop
  endfacet
  facet normal  0.000000e+000 -1.000000e+000  0.000000e+000
    outer loop
      vertex  5.600000e+001 -3.650000e+001 -8.000000e+001
      vertex  6.000000e+001 -3.650000e+001 -7.200000e+001
      vertex  5.600000e+001 -3.650000e+001 -7.200000e+001
    endloop
  endfacet
  facet normal  -0.000000e+000  0.000000e+000 -1.000000e+000
    outer loop
      vertex -6.000000e+001  3.650000e+001 -8.000000e+001
      vertex -5.600000e+001  3.650000e+001 -8.000000e+001
      vertex -6.000000e+001 -3.650000e+001 -8.000000e+001
    endloop
  endfacet
  facet normal  0.000000e+000  0.000000e+000 -1.000000e+000
    outer loop
      vertex -6.000000e+001 -3.650000e+001 -8.000000e+001
      vertex -5.600000e+001  3.650000e+001 -8.000000e+001
      vertex -5.600000e+001 -3.650000e+001 -8.000000e+001
    endloop
  endfacet
  facet normal -1.000000e+000  0.000000e+000  0.000000e+000
    outer loop
      vertex -6.000000e+001  3.650000e+001 -8.000000e+001
      vertex -6.000000e+001 -3.650000e+001 -8.000000e+001
      vertex -6.000000e+001 -3.650000e+001 -7.200000e+001
    endloop
  endfacet
  facet normal -1.000000e+000  0.000000e+000  0.000000e+000
    outer loop
      vertex -6.000000e+001  3.650000e+001 -8.000000e+001
      vertex -6.000000e+001 -3.650000e+001 -7.200000e+001
      vertex -6.000000e+001  1.350000e+001 -7.200000e+001
    endloop
  endfacet
  facet normal -1.000000e+000  0.000000e+000  0.000000e+000
    outer loop
      vertex -6.000000e+001  3.650000e+001 -8.000000e+001
      vertex -6.000000e+001  1.350000e+001 -7.200000e+001
      vertex -6.000000e+001  2.150000e+001 -7.200000e+001
    endloop
  endfacet
  facet normal -1.000000e+000  0.000000e+000  0.000000e+000
    outer loop
      vertex -6.000000e+001  3.650000e+001 -8.000000e+001
      vertex -6.000000e+001  2.150000e+001 -7.200000e+001
      vertex -6.000000e+001  2.850000e+001 -7.200000e+001
    endloop
  endfacet
  facet normal -1.000000e+000  0.000000e+000  0.000000e+000
    outer loop
      vertex -6.000000e+001  3.650000e+001 -8.000000e+001
      vertex -6.000000e+001  2.850000e+001 -7.200000e+001
      vertex -6.000000e+001  2.850000e+001  0.000000e+000
    endloop
  endfacet
  facet normal -1.000000e+000  0.000000e+000  0.000000e+000
    outer loop
      vertex -6.000000e+001  3.650000e+001 -8.000000e+001
      vertex -6.000000e+001  2.850000e+001  0.000000e+000
      vertex -6.000000e+001  3.650000e+001  8.000000e+000
    endloop
  endfacet
  facet normal -1.000000e+000  0.000000e+000  0.000000e+000
    outer loop
      vertex -6.000000e+001  1.350000e+001  0.000000e+000
      vertex -6.000000e+001 -3.650000e+001  0.000000e+000
      vertex -6.000000e+001 -3.650000e+001  8.000000e+000
    endloop
  endfacet
  facet normal -1.000000e+000  0.000000e+000  0.000000e+000
    outer loop
      vertex -6.000000e+001  1.350000e+001  0.000000e+000
      vertex -6.000000e+001 -3.650000e+001  8.000000e+000
      vertex -6.000000e+001  2.150000e+001  0.000000e+000
    endloop
  endfacet
  facet normal -1.000000e+000  -0.000000e+000  -0.000000e+000
    outer loop
      vertex -6.000000e+001  1.350000e+001  0.000000e+000
      vertex -6.000000e+001  2.150000e+001  0.000000e+000
      vertex -6.000000e+001  2.150000e+001 -7.200000e+001
    endloop
  endfacet
  facet normal -1.000000e+000  0.000000e+000  0.000000e+000
    outer loop
      vertex -6.000000e+001  1.350000e+001  0.000000e+000
      vertex -6.000000e+001  2.150000e+001 -7.200000e+001
      vertex -6.000000e+001  1.350000e+001 -7.200000e+001
    endloop
  endfacet
  facet normal -1.000000e+000  0.000000e+000  0.000000e+000
    outer loop
      vertex -6.000000e+001  3.650000e+001  8.000000e+000
      vertex -6.000000e+001  2.850000e+001  0.000000e+000
      vertex -6.000000e+001 -3.650000e+001  8.000000e+000
    endloop
  endfacet
  facet normal -1.000000e+000  0.000000e+000  0.000000e+000
    outer loop
      vertex -6.000000e+001 -3.650000e+001  8.000000e+000
      vertex -6.000000e+001  2.850000e+001  0.000000e+000
      vertex -6.000000e+001  2.150000e+001  0.000000e+000
    endloop
  endfacet
  facet normal  0.000000e+000  0.000000e+000  1.000000e+000
    outer loop
      vertex -6.000000e+001  2.850000e+001 -7.200000e+001
      vertex -6.000000e+001  2.150000e+001 -7.200000e+001
      vertex -5.600000e+001  2.850000e+001 -7.200000e+001
    endloop
  endfacet
  facet normal  0.000000e+000  0.000000e+000  1.000000e+000
    outer loop
      vertex -5.600000e+001  2.850000e+001 -7.200000e+001
      vertex -6.000000e+001  2.150000e+001 -7.200000e+001
      vertex -5.600000e+001  2.150000e+001 -7.200000e+001
    endloop
  endfacet
  facet normal  0.000000e+000  0.000000e+000  1.000000e+000
    outer loop
      vertex -6.000000e+001  1.350000e+001 -7.200000e+001
      vertex -6.000000e+001 -3.650000e+001 -7.200000e+001
      vertex -5.600000e+001  1.350000e+001 -7.200000e+001
    endloop
  endfacet
  facet normal  0.000000e+000  0.000000e+000  1.000000e+000
    outer loop
      vertex -5.600000e+001  1.350000e+001 -7.200000e+001
      vertex -6.000000e+001 -3.650000e+001 -7.200000e+001
      vertex -5.600000e+001 -3.650000e+001 -7.200000e+001
    endloop
  endfacet
  facet normal  0.000000e+000 -1.000000e+000  -0.000000e+000
    outer loop
      vertex -5.600000e+001  1.350000e+001 -7.200000e+001
      vertex -5.600000e+001  1.350000e+001  0.000000e+000
      vertex -6.000000e+001  1.350000e+001 -7.200000e+001
    endloop
  endfacet
  facet normal  0.000000e+000 -1.000000e+000  0.000000e+000
    outer loop
      vertex -6.000000e+001  1.350000e+001 -7.200000e+001
      vertex -5.600000e+001  1.350000e+001  0.000000e+000
      vertex -6.000000e+001  1.350000e+001  0.000000e+000
    endloop
  endfacet
  facet normal  0.000000e+000 -1.000000e+000  -0.000000e+000
    outer loop
      vertex -5.600000e+001 -3.650000e+001 -8.000000e+001
      vertex -5.600000e+001 -3.650000e+001 -7.200000e+001
      vertex -6.000000e+001 -3.650000e+001 -8.000000e+001
    endloop
  endfacet
  facet normal  0.000000e+000 -1.000000e+000  0.000000e+000
    outer loop
      vertex -6.000000e+001 -3.650000e+001 -8.000000e+001
      vertex -5.600000e+001 -3.650000e+001 -7.200000e+001
      vertex -6.000000e+001 -3.650000e+001 -7.200000e+001
    endloop
  endfacet
  facet normal  0.000000e+000 -1.000000e+000  0.000000e+000
    outer loop
      vertex  6.000000e+001 -3.650000e+001  8.000000e+000
      vertex -6.000000e+001 -3.650000e+001  8.000000e+000
      vertex  6.000000e+001 -3.650000e+001  0.000000e+000
    endloop
  endfacet
  facet normal  0.000000e+000 -1.000000e+000  0.000000e+000
    outer loop
      vertex  6.000000e+001 -3.650000e+001  0.000000e+000
      vertex -6.000000e+001 -3.650000e+001  8.000000e+000
      vertex -6.000000e+001 -3.650000e+001  0.000000e+000
    endloop
  endfacet
endsolid CATIA STL
