  0
SECTION
  2
HEADER
  9
$ACADVER
  1
AC1012
  9
$DWGCODEPAGE
  3
ansi_1252
  9
$INSBASE
 10
0.0
 20
0.0
 30
0.0
  9
$EXTMIN
 10
1.000000000000000E+20
 20
1.000000000000000E+20
 30
1.000000000000000E+20
  9
$EXTMAX
 10
-1.000000000000000E+20
 20
-1.000000000000000E+20
 30
-1.000000000000000E+20
  9
$LIMMIN
 10
0.0
 20
0.0
  9
$LIMMAX
 10
12.0
 20
9.0
  9
$ORTHOMODE
 70
     0
  9
$REGENMODE
 70
     1
  9
$FILLMODE
 70
     1
  9
$QTEXTMODE
 70
     0
  9
$MIRRTEXT
 70
     1
  9
$DRAGMODE
 70
     2
  9
$LTSCALE
 40
1.0
  9
$OSMODE
 70
    37
  9
$ATTMODE
 70
     1
  9
$TEXTSIZE
 40
0.2
  9
$TRACEWID
 40
0.05
  9
$TEXTSTYLE
  7
STANDARD
  9
$CLAYER
  8
0
  9
$CELTYPE
  6
BYLAYER
  9
$CECOLOR
 62
   256
  9
$CELTSCALE
 40
1.0
  9
$DELOBJ
 70
     1
  9
$DISPSILH
 70
     0
  9
$DIMSCALE
 40
1.0
  9
$DIMASZ
 40
0.18
  9
$DIMEXO
 40
0.0625
  9
$DIMDLI
 40
0.38
  9
$DIMRND
 40
0.0
  9
$DIMDLE
 40
0.0
  9
$DIMEXE
 40
0.18
  9
$DIMTP
 40
0.0
  9
$DIMTM
 40
0.0
  9
$DIMTXT
 40
0.18
  9
$DIMCEN
 40
0.09
  9
$DIMTSZ
 40
0.0
  9
$DIMTOL
 70
     0
  9
$DIMLIM
 70
     0
  9
$DIMTIH
 70
     1
  9
$DIMTOH
 70
     1
  9
$DIMSE1
 70
     0
  9
$DIMSE2
 70
     0
  9
$DIMTAD
 70
     0
  9
$DIMZIN
 70
     0
  9
$DIMBLK
  1

  9
$DIMASO
 70
     1
  9
$DIMSHO
 70
     1
  9
$DIMPOST
  1

  9
$DIMAPOST
  1

  9
$DIMALT
 70
     0
  9
$DIMALTD
 70
     2
  9
$DIMALTF
 40
25.4
  9
$DIMLFAC
 40
1.0
  9
$DIMTOFL
 70
     0
  9
$DIMTVP
 40
0.0
  9
$DIMTIX
 70
     0
  9
$DIMSOXD
 70
     0
  9
$DIMSAH
 70
     0
  9
$DIMBLK1
  1

  9
$DIMBLK2
  1

  9
$DIMSTYLE
  2
STANDARD
  9
$DIMCLRD
 70
     0
  9
$DIMCLRE
 70
     0
  9
$DIMCLRT
 70
     0
  9
$DIMTFAC
 40
1.0
  9
$DIMGAP
 40
0.09
  9
$DIMJUST
 70
     0
  9
$DIMSD1
 70
     0
  9
$DIMSD2
 70
     0
  9
$DIMTOLJ
 70
     1
  9
$DIMTZIN
 70
     0
  9
$DIMALTZ
 70
     0
  9
$DIMALTTZ
 70
     0
  9
$DIMFIT
 70
     3
  9
$DIMUPT
 70
     0
  9
$DIMUNIT
 70
     2
  9
$DIMDEC
 70
     4
  9
$DIMTDEC
 70
     4
  9
$DIMALTU
 70
     2
  9
$DIMALTTD
 70
     2
  9
$DIMTXSTY
  7
STANDARD
  9
$DIMAUNIT
 70
     0
  9
$LUNITS
 70
     2
  9
$LUPREC
 70
     4
  9
$SKETCHINC
 40
0.1
  9
$FILLETRAD
 40
0.5
  9
$AUNITS
 70
     0
  9
$AUPREC
 70
     0
  9
$MENU
  1
.
  9
$ELEVATION
 40
0.0
  9
$PELEVATION
 40
0.0
  9
$THICKNESS
 40
0.0
  9
$LIMCHECK
 70
     0
  9
$CHAMFERA
 40
0.5
  9
$CHAMFERB
 40
0.5
  9
$CHAMFERC
 40
1.0
  9
$CHAMFERD
 40
0.0
  9
$SKPOLY
 70
     0
  9
$TDCREATE
 40
2459949.977955312
  9
$TDUPDATE
 40
2459949.977956169
  9
$TDINDWG
 40
0.0000000116
  9
$TDUSRTIMER
 40
0.0000000116
  9
$USRTIMER
 70
     1
  9
$ANGBASE
 50
0.0
  9
$ANGDIR
 70
     0
  9
$PDMODE
 70
     0
  9
$PDSIZE
 40
0.0
  9
$PLINEWID
 40
0.0
  9
$COORDS
 70
     1
  9
$SPLFRAME
 70
     0
  9
$SPLINETYPE
 70
     6
  9
$SPLINESEGS
 70
     8
  9
$ATTDIA
 70
     0
  9
$ATTREQ
 70
     1
  9
$HANDLING
 70
     1
  9
$HANDSEED
  5
7C
  9
$SURFTAB1
 70
     6
  9
$SURFTAB2
 70
     6
  9
$SURFTYPE
 70
     6
  9
$SURFU
 70
     6
  9
$SURFV
 70
     6
  9
$UCSNAME
  2

  9
$UCSORG
 10
0.0
 20
0.0
 30
0.0
  9
$UCSXDIR
 10
1.0
 20
0.0
 30
0.0
  9
$UCSYDIR
 10
0.0
 20
1.0
 30
0.0
  9
$PUCSNAME
  2

  9
$PUCSORG
 10
0.0
 20
0.0
 30
0.0
  9
$PUCSXDIR
 10
1.0
 20
0.0
 30
0.0
  9
$PUCSYDIR
 10
0.0
 20
1.0
 30
0.0
  9
$USERI1
 70
     0
  9
$USERI2
 70
     0
  9
$USERI3
 70
     0
  9
$USERI4
 70
     0
  9
$USERI5
 70
     0
  9
$USERR1
 40
0.0
  9
$USERR2
 40
0.0
  9
$USERR3
 40
0.0
  9
$USERR4
 40
0.0
  9
$USERR5
 40
0.0
  9
$WORLDVIEW
 70
     1
  9
$SHADEDGE
 70
     3
  9
$SHADEDIF
 70
    70
  9
$TILEMODE
 70
     1
  9
$MAXACTVP
 70
    64
  9
$PINSBASE
 10
0.0
 20
0.0
 30
0.0
  9
$PLIMCHECK
 70
     0
  9
$PEXTMIN
 10
1.000000000000000E+20
 20
1.000000000000000E+20
 30
1.000000000000000E+20
  9
$PEXTMAX
 10
-1.000000000000000E+20
 20
-1.000000000000000E+20
 30
-1.000000000000000E+20
  9
$PLIMMIN
 10
0.0
 20
0.0
  9
$PLIMMAX
 10
12.0
 20
9.0
  9
$UNITMODE
 70
     0
  9
$VISRETAIN
 70
     1
  9
$PLINEGEN
 70
     0
  9
$PSLTSCALE
 70
     1
  9
$TREEDEPTH
 70
  3020
  9
$PICKSTYLE
 70
     1
  9
$CMLSTYLE
  2
STANDARD
  9
$CMLJUST
 70
     0
  9
$CMLSCALE
 40
1.0
  9
$SAVEIMAGES
 70
     1
  0
ENDSEC
  0
SECTION
  2
CLASSES
  0
CLASS
  1
ACDBDICTIONARYWDFLT
  2
AcDbDictionaryWithDefault
  3
ObjectDBX Classes
 90
    32768
280
     0
281
     0
  0
CLASS
  1
VISUALSTYLE
  2
AcDbVisualStyle
  3
ObjectDBX Classes
 90
     4095
280
     0
281
     0
  0
CLASS
  1
MATERIAL
  2
AcDbMaterial
  3
ObjectDBX Classes
 90
     1153
280
     0
281
     0
  0
CLASS
  1
SUN
  2
AcDbSun
  3
SCENEOE
 90
     1024
280
     0
281
     0
  0
CLASS
  1
DICTIONARYVAR
  2
AcDbDictionaryVar
  3
ObjectDBX Classes
 90
        0
280
     0
281
     0
  0
CLASS
  1
XRECORD
  2
AcDbXrecord
  3
AutoCAD 2000
 90
    32768
280
     0
281
     0
  0
CLASS
  1
LWPOLYLINE
  2
AcDbPolyline
  3
AutoCAD 2000
 90
    32768
280
     0
281
     1
  0
CLASS
  1
HATCH
  2
AcDbHatch
  3
AutoCAD 2000
 90
    32768
280
     0
281
     1
  0
CLASS
  1
ACDBPLACEHOLDER
  2
AcDbPlaceHolder
  3
ObjectDBX Classes
 90
        0
280
     0
281
     0
  0
CLASS
  1
LAYOUT
  2
AcDbLayout
  3
ObjectDBX Classes
 90
        0
280
     0
281
     0
  0
ENDSEC
  0
SECTION
  2
TABLES
  0
TABLE
  2
VPORT
  5
8
330
0
100
AcDbSymbolTable
 70
     1
  0
VPORT
  5
29
330
8
100
AcDbSymbolTableRecord
100
AcDbViewportTableRecord
  2
*ACTIVE
 70
     0
 10
0.0
 20
0.0
 11
1.0
 21
1.0
 12
0.0
 22
0.0
 13
0.0
 23
0.0
 14
0.5
 24
0.5
 15
0.5
 25
0.5
 16
0.0
 26
0.0
 36
1.0
 17
10.50008280156501
 27
14.85000555170035
 37
0.0
 40
29.7000111034007
 41
0.7070760185919754
 42
50.0
 43
0.0
 44
0.0
 50
0.0
 51
0.0
 71
     0
 72
   100
 73
     1
 74
     3
 75
     0
 76
     0
 77
     0
 78
     0
  0
ENDTAB
  0
TABLE
  2
LTYPE
  5
5
330
0
100
AcDbSymbolTable
 70
     1
  0
LTYPE
  5
14
330
5
100
AcDbSymbolTableRecord
100
AcDbLinetypeTableRecord
  2
BYBLOCK
 70
     0
  3

 72
    65
 73
     0
 40
0.0
  0
LTYPE
  5
15
330
5
100
AcDbSymbolTableRecord
100
AcDbLinetypeTableRecord
  2
BYLAYER
 70
     0
  3

 72
    65
 73
     0
 40
0.0
  0
LTYPE
  5
16
330
5
100
AcDbSymbolTableRecord
100
AcDbLinetypeTableRecord
  2
CONTINUOUS
 70
     0
  3
Solid line
 72
    65
 73
     0
 40
0.0
  0
ENDTAB
  0
TABLE
  2
LAYER
  5
2
330
0
100
AcDbSymbolTable
 70
     3
  0
LAYER
  5
10
330
2
100
AcDbSymbolTableRecord
100
AcDbLayerTableRecord
  2
0
 70
     0
 62
     7
  6
CONTINUOUS
  0
LAYER
  5
40
330
2
100
AcDbSymbolTableRecord
100
AcDbLayerTableRecord
  2
CALQUE_2
 70
     0
 62
     7
  6
CONTINUOUS
  0
LAYER
  5
41
330
2
100
AcDbSymbolTableRecord
100
AcDbLayerTableRecord
  2
CALQUE_1
 70
     0
 62
     7
  6
CONTINUOUS
  0
ENDTAB
  0
TABLE
  2
STYLE
  5
3
330
0
100
AcDbSymbolTable
 70
     1
  0
STYLE
  5
11
330
3
100
AcDbSymbolTableRecord
100
AcDbTextStyleTableRecord
  2
STANDARD
 70
     0
 40
0.0
 41
1.0
 50
0.0
 71
     0
 42
0.2
  3
txt
  4

  0
ENDTAB
  0
TABLE
  2
VIEW
  5
6
330
0
100
AcDbSymbolTable
 70
     0
  0
ENDTAB
  0
TABLE
  2
UCS
  5
7
330
0
100
AcDbSymbolTable
 70
     0
  0
ENDTAB
  0
TABLE
  2
APPID
  5
9
330
0
100
AcDbSymbolTable
 70
     1
  0
APPID
  5
12
330
9
100
AcDbSymbolTableRecord
100
AcDbRegAppTableRecord
  2
ACAD
 70
     0
  0
ENDTAB
  0
TABLE
  2
DIMSTYLE
  5
A
330
0
100
AcDbSymbolTable
 70
     1
  0
DIMSTYLE
105
27
330
A
100
AcDbSymbolTableRecord
100
AcDbDimStyleTableRecord
  2
STANDARD
 70
     0
  3

  4

  5

  6

  7

 40
1.0
 41
0.18
 42
0.0625
 43
0.38
 44
0.18
 45
0.0
 46
0.0
 47
0.0
 48
0.0
140
0.18
141
0.09
142
0.0
143
25.4
144
1.0
145
0.0
146
1.0
147
0.09
 71
     0
 72
     0
 73
     1
 74
     1
 75
     0
 76
     0
 77
     0
 78
     0
170
     0
171
     2
172
     0
173
     0
174
     0
175
     0
176
     0
177
     0
178
     0
270
     2
271
     4
272
     4
273
     2
274
     2
340
11
275
     0
280
     0
281
     0
282
     0
283
     1
284
     0
285
     0
286
     0
287
     3
288
     0
  0
ENDTAB
  0
TABLE
  2
BLOCK_RECORD
  5
1
330
0
100
AcDbSymbolTable
 70
     4
  0
BLOCK_RECORD
  5
1F
330
1
100
AcDbSymbolTableRecord
100
AcDbBlockTableRecord
  2
*MODEL_SPACE
  0
BLOCK_RECORD
  5
1B
330
1
100
AcDbSymbolTableRecord
100
AcDbBlockTableRecord
  2
*PAPER_SPACE
  0
BLOCK_RECORD
  5
42
330
1
100
AcDbSymbolTableRecord
100
AcDbBlockTableRecord
  2
BLOCK_2
  0
BLOCK_RECORD
  5
4B
330
1
100
AcDbSymbolTableRecord
100
AcDbBlockTableRecord
  2
BLOCK_3
  0
BLOCK_RECORD
  5
5E
330
1
100
AcDbSymbolTableRecord
100
AcDbBlockTableRecord
  2
BLOCK_4
  0
ENDTAB
  0
ENDSEC
  0
SECTION
  2
BLOCKS
  0
BLOCK
  5
20
330
1F
100
AcDbEntity
  8
0
100
AcDbBlockBegin
  2
*MODEL_SPACE
 70
     0
 10
0.0
 20
0.0
 30
0.0
  3
*MODEL_SPACE
  1

  0
ENDBLK
  5
21
330
1F
100
AcDbEntity
  8
0
100
AcDbBlockEnd
  0
BLOCK
  5
1C
330
1B
100
AcDbEntity
 67
     1
  8
0
100
AcDbBlockBegin
  2
*PAPER_SPACE
 70
     0
 10
0.0
 20
0.0
 30
0.0
  3
*PAPER_SPACE
  1

  0
ENDBLK
  5
1D
330
1B
100
AcDbEntity
 67
     1
  8
0
100
AcDbBlockEnd
  0
BLOCK
  5
44
330
42
100
AcDbEntity
  8
0
100
AcDbBlockBegin
  2
BLOCK_2
 70
     0
 10
0.0
 20
0.0
 30
0.0
  3
BLOCK_2
  1

  0
SPLINE
  5
46
330
42
100
AcDbEntity
  8
CALQUE_1
 62
     7
100
AcDbSpline
210
0.0
220
0.0
230
1.0
 70
    11
 71
     3
 72
   431
 73
   427
 74
     0
 42
0.0000000001
 43
0.0000000001
 12
1.0
 22
0.0
 32
0.0
 13
1.0
 23
0.0
 33
0.0
 40
0.0
 40
0.0
 40
0.0
 40
0.0
 40
1.0
 40
1.0
 40
1.0
 40
2.0
 40
2.0
 40
2.0
 40
3.0
 40
3.0
 40
3.0
 40
4.0
 40
4.0
 40
4.0
 40
5.0
 40
5.0
 40
5.0
 40
6.0
 40
6.0
 40
6.0
 40
7.0
 40
7.0
 40
7.0
 40
8.0
 40
8.0
 40
8.0
 40
9.0
 40
9.0
 40
9.0
 40
10.0
 40
10.0
 40
10.0
 40
11.0
 40
11.0
 40
11.0
 40
12.0
 40
12.0
 40
12.0
 40
13.0
 40
13.0
 40
13.0
 40
14.0
 40
14.0
 40
14.0
 40
15.0
 40
15.0
 40
15.0
 40
16.0
 40
16.0
 40
16.0
 40
17.0
 40
17.0
 40
17.0
 40
18.0
 40
18.0
 40
18.0
 40
19.0
 40
19.0
 40
19.0
 40
20.0
 40
20.0
 40
20.0
 40
21.0
 40
21.0
 40
21.0
 40
22.0
 40
22.0
 40
22.0
 40
23.0
 40
23.0
 40
23.0
 40
24.0
 40
24.0
 40
24.0
 40
25.0
 40
25.0
 40
25.0
 40
26.0
 40
26.0
 40
26.0
 40
27.0
 40
27.0
 40
27.0
 40
28.0
 40
28.0
 40
28.0
 40
29.0
 40
29.0
 40
29.0
 40
30.0
 40
30.0
 40
30.0
 40
31.0
 40
31.0
 40
31.0
 40
32.0
 40
32.0
 40
32.0
 40
33.0
 40
33.0
 40
33.0
 40
34.0
 40
34.0
 40
34.0
 40
35.0
 40
35.0
 40
35.0
 40
36.0
 40
36.0
 40
36.0
 40
37.0
 40
37.0
 40
37.0
 40
38.0
 40
38.0
 40
38.0
 40
39.0
 40
39.0
 40
39.0
 40
40.0
 40
40.0
 40
40.0
 40
41.0
 40
41.0
 40
41.0
 40
42.0
 40
42.0
 40
42.0
 40
43.0
 40
43.0
 40
43.0
 40
44.0
 40
44.0
 40
44.0
 40
45.0
 40
45.0
 40
45.0
 40
46.0
 40
46.0
 40
46.0
 40
47.0
 40
47.0
 40
47.0
 40
48.0
 40
48.0
 40
48.0
 40
49.0
 40
49.0
 40
49.0
 40
50.0
 40
50.0
 40
50.0
 40
51.0
 40
51.0
 40
51.0
 40
52.0
 40
52.0
 40
52.0
 40
53.0
 40
53.0
 40
53.0
 40
54.0
 40
54.0
 40
54.0
 40
55.0
 40
55.0
 40
55.0
 40
56.0
 40
56.0
 40
56.0
 40
57.0
 40
57.0
 40
57.0
 40
58.0
 40
58.0
 40
58.0
 40
59.0
 40
59.0
 40
59.0
 40
60.0
 40
60.0
 40
60.0
 40
61.0
 40
61.0
 40
61.0
 40
62.0
 40
62.0
 40
62.0
 40
63.0
 40
63.0
 40
63.0
 40
64.0
 40
64.0
 40
64.0
 40
65.0
 40
65.0
 40
65.0
 40
66.0
 40
66.0
 40
66.0
 40
67.0
 40
67.0
 40
67.0
 40
68.0
 40
68.0
 40
68.0
 40
69.0
 40
69.0
 40
69.0
 40
70.0
 40
70.0
 40
70.0
 40
71.0
 40
71.0
 40
71.0
 40
72.0
 40
72.0
 40
72.0
 40
73.0
 40
73.0
 40
73.0
 40
74.0
 40
74.0
 40
74.0
 40
75.0
 40
75.0
 40
75.0
 40
76.0
 40
76.0
 40
76.0
 40
77.0
 40
77.0
 40
77.0
 40
78.0
 40
78.0
 40
78.0
 40
79.0
 40
79.0
 40
79.0
 40
80.0
 40
80.0
 40
80.0
 40
81.0
 40
81.0
 40
81.0
 40
82.0
 40
82.0
 40
82.0
 40
83.0
 40
83.0
 40
83.0
 40
84.0
 40
84.0
 40
84.0
 40
85.0
 40
85.0
 40
85.0
 40
86.0
 40
86.0
 40
86.0
 40
87.0
 40
87.0
 40
87.0
 40
88.0
 40
88.0
 40
88.0
 40
89.0
 40
89.0
 40
89.0
 40
90.0
 40
90.0
 40
90.0
 40
91.0
 40
91.0
 40
91.0
 40
92.0
 40
92.0
 40
92.0
 40
93.0
 40
93.0
 40
93.0
 40
94.0
 40
94.0
 40
94.0
 40
95.0
 40
95.0
 40
95.0
 40
96.0
 40
96.0
 40
96.0
 40
97.0
 40
97.0
 40
97.0
 40
98.0
 40
98.0
 40
98.0
 40
99.0
 40
99.0
 40
99.0
 40
100.0
 40
100.0
 40
100.0
 40
101.0
 40
101.0
 40
101.0
 40
102.0
 40
102.0
 40
102.0
 40
103.0
 40
103.0
 40
103.0
 40
104.0
 40
104.0
 40
104.0
 40
105.0
 40
105.0
 40
105.0
 40
106.0
 40
106.0
 40
106.0
 40
107.0
 40
107.0
 40
107.0
 40
108.0
 40
108.0
 40
108.0
 40
109.0
 40
109.0
 40
109.0
 40
110.0
 40
110.0
 40
110.0
 40
111.0
 40
111.0
 40
111.0
 40
112.0
 40
112.0
 40
112.0
 40
113.0
 40
113.0
 40
113.0
 40
114.0
 40
114.0
 40
114.0
 40
115.0
 40
115.0
 40
115.0
 40
116.0
 40
116.0
 40
116.0
 40
117.0
 40
117.0
 40
117.0
 40
118.0
 40
118.0
 40
118.0
 40
119.0
 40
119.0
 40
119.0
 40
120.0
 40
120.0
 40
120.0
 40
121.0
 40
121.0
 40
121.0
 40
122.0
 40
122.0
 40
122.0
 40
123.0
 40
123.0
 40
123.0
 40
124.0
 40
124.0
 40
124.0
 40
125.0
 40
125.0
 40
125.0
 40
126.0
 40
126.0
 40
126.0
 40
127.0
 40
127.0
 40
127.0
 40
128.0
 40
128.0
 40
128.0
 40
129.0
 40
129.0
 40
129.0
 40
130.0
 40
130.0
 40
130.0
 40
131.0
 40
131.0
 40
131.0
 40
132.0
 40
132.0
 40
132.0
 40
133.0
 40
133.0
 40
133.0
 40
134.0
 40
134.0
 40
134.0
 40
135.0
 40
135.0
 40
135.0
 40
136.0
 40
136.0
 40
136.0
 40
137.0
 40
137.0
 40
137.0
 40
138.0
 40
138.0
 40
138.0
 40
139.0
 40
139.0
 40
139.0
 40
140.0
 40
140.0
 40
140.0
 40
141.0
 40
141.0
 40
141.0
 40
142.0
 40
142.0
 40
142.0
 40
142.0
 10
10.46821462182248
 20
23.90541400123319
 30
0.0
 10
10.35874768017077
 20
23.90541400123319
 30
0.0
 10
10.14130957460697
 20
23.95082002785256
 30
0.0
 10
10.12851079715572
 20
23.98237599926972
 30
0.0
 10
10.11568026970527
 20
24.01393610510762
 30
0.0
 10
10.12653171387287
 20
24.11846002357571
 30
0.0
 10
10.12653171387287
 20
24.11846002357571
 30
0.0
 10
10.07919599285829
 20
24.08593804953408
 30
0.0
 10
10.05256479909326
 20
23.92222738969313
 30
0.0
 10
10.03875027526809
 20
23.81962903119952
 30
0.0
 10
10.02495288313103
 20
23.71710475603736
 30
0.0
 10
9.985505273026314
 20
23.5968004813288
 30
0.0
 10
9.959858329236177
 20
23.55242809357194
 30
0.0
 10
9.934207857668353
 20
23.50805570581509
 30
0.0
 10
9.876020692486165
 20
23.40153445853267
 30
0.0
 10
9.815868555131885
 20
23.42117006914284
 30
0.0
 10
9.755716664227736
 20
23.44094679086051
 30
0.0
 10
9.779384278284898
 20
23.48731590078865
 30
0.0
 10
9.798127361140056
 20
23.50013231712834
 30
0.0
 10
9.816866916217526
 20
23.51294873346803
 30
0.0
 10
9.848426664204547
 20
23.55532499411117
 30
0.0
 10
9.861242831752069
 20
23.57606420408004
 30
0.0
 10
9.874055720314074
 20
23.5968004813288
 30
0.0
 10
9.884907164481675
 20
23.6323569526439
 30
0.0
 10
9.875039970288963
 20
23.65791922976953
 30
0.0
 10
9.865186887207003
 20
23.68354853467122
 30
0.0
 10
9.86222355394927
 20
23.69050943852183
 30
0.0
 10
9.866167609404204
 20
23.7437006720255
 30
0.0
 10
9.870111664859138
 20
23.79703008733162
 30
0.0
 10
9.90365024733683
 20
23.90348430683797
 30
0.0
 10
9.92139144132866
 20
23.96363644419225
 30
0.0
 10
9.976632912141556
 20
24.14215963408219
 30
0.0
 10
10.04961910472397
 20
24.16586277236636
 30
0.0
 10
10.06736055303871
 20
24.17771257761961
 30
0.0
 10
10.08511913159606
 20
24.18942832732071
 30
0.0
 10
10.08904907594025
 20
24.19638510492101
 30
0.0
 10
10.09301077028362
 20
24.20823843795194
 30
0.0
 10
10.12160340844305
 20
24.27721001952566
 30
0.0
 10
10.21727321155787
 20
24.32957282374533
 30
0.0
 10
10.24290604423725
 20
24.33646257356956
 30
0.0
 10
10.26853887691664
 20
24.34335585117147
 30
0.0
 10
10.25672082166258
 20
24.36305848955771
 30
0.0
 10
10.23599865552458
 20
24.35520565642471
 30
0.0
 10
10.21529412827502
 20
24.34728226773797
 30
0.0
 10
10.16501271289114
 20
24.33935887905122
 30
0.0
 10
10.12356838061514
 20
24.33542893470704
 30
0.0
 10
10.07383729855055
 20
24.33074404593767
 30
0.0
 10
10.05354552129046
 20
24.31179635197662
 30
0.0
 10
10.03678504949584
 20
24.29305679689915
 30
0.0
 10
10.01489166116549
 20
24.26859518641211
 30
0.0
 10
9.996339078305475
 20
24.22498127085813
 30
0.0
 10
9.957893608621628
 20
24.21120177120967
 30
0.0
 10
9.919412358045818
 20
24.19741874378353
 30
0.0
 10
9.883926442284473
 20
24.14119655077343
 30
0.0
 10
9.883926442284473
 20
24.14119655077343
 30
0.0
 10
9.793184944599481
 20
24.01889555389359
 30
0.0
 10
9.695568053131664
 20
24.00800943844245
 30
0.0
 10
9.66004661466279
 20
24.00904247081163
 30
0.0
 10
9.624546587790693
 20
24.01000555412039
 30
0.0
 10
9.574247775384206
 20
24.00408241538261
 30
0.0
 10
9.576226616801215
 20
24.05934152508395
 30
0.0
 10
9.578191588973308
 20
24.11453007923152
 30
0.0
 10
9.642323059559399
 20
24.11349644036901
 30
0.0
 10
9.672863031002482
 20
24.11349644036901
 30
0.0
 10
9.703438280222443
 20
24.11349644036901
 30
0.0
 10
9.728086862926938
 20
24.13334018986275
 30
0.0
 10
9.73204855727031
 20
24.15793999396053
 30
0.0
 10
9.741901640352271
 20
24.21416157668972
 30
0.0
 10
9.784312583714723
 20
24.22994193838694
 30
0.0
 10
9.814905471823122
 20
24.23883193838473
 30
0.0
 10
9.845445443266204
 20
24.24771779805585
 30
0.0
 10
9.887870497739407
 20
24.28713013038369
 30
0.0
 10
9.951949051660183
 20
24.33742918465601
 30
0.0
 10
10.01606288335783
 20
24.38772823892833
 30
0.0
 10
10.16795840726044
 20
24.4064677940058
 30
0.0
 10
10.18177318468577
 20
24.40750143286832
 30
0.0
 10
10.19555268433422
 20
24.40846804395477
 30
0.0
 10
10.19458960102546
 20
24.41928421034549
 30
0.0
 10
10.1802915180569
 20
24.42321062691198
 30
0.0
 10
10.08413840939886
 20
24.42472757131773
 30
0.0
 10
9.918428108070929
 20
24.36560907282596
 30
0.0
 10
9.859260220691537
 20
24.32261666058601
 30
0.0
 10
9.800092333312147
 20
24.27969004724017
 30
0.0
 10
9.714289724390044
 20
24.22642765971012
 30
0.0
 10
9.669917336633189
 20
24.22642765971012
 30
0.0
 10
9.480574452574839
 20
24.22642765971012
 30
0.0
 10
9.263086958123408
 20
24.38035518356087
 30
0.0
 10
9.21576887599726
 20
24.42024729365425
 30
0.0
 10
9.16843315498267
 20
24.46021348707907
 30
0.0
 10
9.112189795306447
 20
24.49424948621074
 30
0.0
 10
9.118134100710352
 20
24.53710554942128
 30
0.0
 10
9.124043128337377
 20
24.58003092846672
 30
0.0
 10
9.224623597993578
 20
24.59629398360737
 30
0.0
 10
9.35777603904102
 20
24.61262406652409
 30
0.0
 10
9.490893202311586
 20
24.62888359388705
 30
0.0
 10
9.715789029907349
 20
24.57713815076274
 30
0.0
 10
9.789755944686961
 20
24.55936167899404
 30
0.0
 10
9.863722859466575
 20
24.54158582719795
 30
0.0
 10
10.13740079692891
 20
24.48039943100853
 30
0.0
 10
10.13740079692891
 20
24.48039943100853
 30
0.0
 10
10.15514199092074
 20
24.47550640335558
 30
0.0
 10
10.156020407565
 20
24.49411190288092
 30
0.0
 10
10.14429054675314
 20
24.49624620838203
 30
0.0
 10
10.10632460327729
 20
24.50306893043019
 30
0.0
 10
9.746590056899326
 20
24.61592959421754
 30
0.0
 10
9.601841810592163
 20
24.64610973233647
 30
0.0
 10
9.41546249764615
 20
24.68510931467484
 30
0.0
 10
9.260624569297338
 20
24.65499620433198
 30
0.0
 10
9.194563404316034
 20
24.62440331622357
 30
0.0
 10
9.128470489335538
 20
24.59388098366893
 30
0.0
 10
9.081134997729704
 20
24.59484759475538
 30
0.0
 10
9.04168715821623
 20
24.62337320513874
 30
0.0
 10
9.002239548111513
 20
24.65203639885193
 30
0.0
 10
8.938129244191547
 20
24.76345067378729
 30
0.0
 10
8.92135113350848
 20
24.80196695058244
 30
0.0
 10
8.904608300602293
 20
24.84034211627007
 30
0.0
 10
8.926293550049056
 20
24.86604550450321
 30
0.0
 10
8.926293550049056
 20
24.86604550450321
 30
0.0
 10
8.969702854497148
 20
24.89663486483392
 30
0.0
 10
9.081134997729704
 20
24.92419739190852
 30
0.0
 10
9.245825541897116
 20
24.91834128094682
 30
0.0
 10
9.410537482139409
 20
24.91241461443135
 30
0.0
 10
9.591008005313
 20
24.81374620028193
 30
0.0
 10
9.650193531580829
 20
24.78219022886476
 30
0.0
 10
9.734994251639604
 20
24.73685123002146
 30
0.0
 10
10.14969888635145
 20
24.55591504019308
 30
0.0
 10
10.16697768506323
 20
24.54950859591208
 30
0.0
 10
10.1802915180569
 20
24.54454916053054
 30
0.0
 10
10.18817962896677
 20
24.55784473458829
 30
0.0
 10
10.1758465181703
 20
24.56328809556053
 30
0.0
 10
10.16647674063157
 20
24.5686644287567
 30
0.0
 10
10.01707888333191
 20
24.61613773310112
 30
0.0
 10
9.745849223584893
 20
24.77137406247404
 30
0.0
 10
9.474598397171745
 20
24.92661039184696
 30
0.0
 10
9.298587219897586
 20
24.95878725213717
 30
0.0
 10
9.172842877092393
 20
24.95727030773143
 30
0.0
 10
9.05155788018663
 20
24.95575336332569
 30
0.0
 10
8.965741386647451
 20
24.90400792020138
 30
0.0
 10
8.94209093853492
 20
24.90697125345911
 30
0.0
 10
8.918405439139187
 20
24.90993458671684
 30
0.0
 10
8.902142383998537
 20
24.95134364121597
 30
0.0
 10
8.902142383998537
 20
24.95134364121597
 30
0.0
 10
8.884383551118269
 20
25.04801533319411
 30
0.0
 10
8.969702854497148
 20
25.08694499372827
 30
0.0
 10
8.969702854497148
 20
25.08694499372827
 30
0.0
 10
9.204416487397992
 20
25.17968610761269
 30
0.0
 10
9.456888953179106
 20
25.05938183290413
 30
0.0
 10
9.53183659015592
 20
25.01790222285125
 30
0.0
 10
9.606801866021176
 20
24.97649316835212
 30
0.0
 10
9.920410719131459
 20
24.80196695058244
 30
0.0
 10
9.927300468955686
 20
24.79803700623826
 30
0.0
 10
9.934207857668353
 20
24.79404003411801
 30
0.0
 10
9.934207857668353
 20
24.80093331171992
 30
0.0
 10
9.934207857668353
 20
24.80093331171992
 30
0.0
 10
9.875039970288963
 20
24.84737360489927
 30
0.0
 10
9.898707830796257
 20
24.90993458671684
 30
0.0
 10
9.900686914079099
 20
24.96912011298467
 30
0.0
 10
9.902669525139629
 20
25.02830916703019
 30
0.0
 10
9.848426664204547
 20
25.1017574984897
 30
0.0
 10
9.827721888162815
 20
25.12642372008263
 30
0.0
 10
9.806999722024814
 20
25.1510229138995
 30
0.0
 10
9.786277555886814
 20
25.17575969104619
 30
0.0
 10
9.807980444222016
 20
25.20924535685857
 30
0.0
 10
9.833955471337115
 20
25.24941263361159
 30
0.0
 10
9.881947359001629
 20
25.22598818976476
 30
0.0
 10
9.881947359001629
 20
25.22598818976476
 30
0.0
 10
9.974653828858713
 20
25.15701660819103
 30
0.0
 10
10.02693221971549
 20
25.01004938971826
 30
0.0
 10
10.04072910495077
 20
24.98731286252054
 30
0.0
 10
10.0545438823761
 20
24.96464336309888
 30
0.0
 10
10.06539885432139
 20
24.94101078036847
 30
0.0
 10
10.0634338821493
 20
24.91634166043758
 30
0.0
 10
10.06145127108877
 20
24.89167480940491
 30
0.0
 10
10.06932527088789
 20
24.87589858758517
 30
0.0
 10
10.0782117428834
 20
24.864115810108
 30
0.0
 10
10.08708410376816
 20
24.85226247707707
 30
0.0
 10
10.10189749747453
 20
24.84778572719128
 30
0.0
 10
10.09743813128178
 20
24.81526314468767
 30
0.0
 10
10.09301077028362
 20
24.78274056218406
 30
0.0
 10
10.09301077028362
 20
24.75311428516211
 30
0.0
 10
10.11221599201588
 20
24.72348448036247
 30
0.0
 10
10.13147413041345
 20
24.69399578667035
 30
0.0
 10
10.19210957331095
 20
24.65844284313293
 30
0.0
 10
10.19210957331095
 20
24.65844284313293
 30
0.0
 10
10.1787922125396
 20
24.75463122956785
 30
0.0
 10
10.25722176609425
 20
24.82111925564938
 30
0.0
 10
10.26905393245905
 20
24.83889572741808
 30
0.0
 10
10.2808719877131
 20
24.85667219918679
 30
0.0
 10
10.28679512645088
 20
24.90249450357332
 30
0.0
 10
10.25866815494624
 20
24.93653050270499
 30
0.0
 10
10.23057293344078
 20
24.97063705739042
 30
0.0
 10
10.24242273869402
 20
25.00012638263885
 30
0.0
 10
10.24242273869402
 20
25.00012638263885
 30
0.0
 10
10.25574009946538
 20
25.090387471002
 30
0.0
 10
10.39921129024957
 20
25.10520413729066
 30
0.0
 10
10.39921129024957
 20
25.10520413729066
 30
0.0
 10
10.39921129024957
 20
25.10520413729066
 30
0.0
 10
10.28825915419131
 20
25.23391221591375
 30
0.0
 10
10.28825915419131
 20
25.23391221591375
 30
0.0
 10
10.28825915419131
 20
25.23391221591375
 30
0.0
 10
10.25866815494624
 20
25.23391221591375
 30
0.0
 10
10.21283173944895
 20
25.24279805044701
 30
0.0
 10
10.16697768506323
 20
25.25168805022021
 30
0.0
 10
10.14626963003598
 20
25.27235729969289
 30
0.0
 10
10.15514199092074
 20
25.3137698819697
 30
0.0
 10
10.16399671291706
 20
25.35517893646882
 30
0.0
 10
10.21135007282009
 20
25.34187921458591
 30
0.0
 10
10.27053559908792
 20
25.3360231036242
 30
0.0
 10
10.32360748662283
 20
25.33071732598178
 30
0.0
 10
10.3533713469746
 20
25.30191654893877
 30
0.0
 10
10.3533713469746
 20
25.30191654893877
 30
0.0
 10
10.3533713469746
 20
25.30191654893877
 30
0.0
 10
10.46821462182248
 20
25.15990938589501
 30
0.0
 10
10.46821462182248
 20
25.15990938589501
 30
0.0
 10
10.46821462182248
 20
25.15990938589501
 30
0.0
 10
10.58305789667036
 20
25.30191654893877
 30
0.0
 10
10.58305789667036
 20
25.30191654893877
 30
0.0
 10
10.58305789667036
 20
25.30191654893877
 30
0.0
 10
10.61282175702214
 20
25.33071732598178
 30
0.0
 10
10.66594656122237
 20
25.3360231036242
 30
0.0
 10
10.72510033749101
 20
25.34187921458591
 30
0.0
 10
10.77246780850478
 20
25.35517893646882
 30
0.0
 10
10.78128725272422
 20
25.3137698819697
 30
0.0
 10
10.79017725249742
 20
25.27235729969289
 30
0.0
 10
10.76947272524786
 20
25.25168805022021
 30
0.0
 10
10.72361867086214
 20
25.24279805044701
 30
0.0
 10
10.67776461647642
 20
25.23391221591375
 30
0.0
 10
10.64817008945366
 20
25.23391221591375
 30
0.0
 10
10.64817008945366
 20
25.23391221591375
 30
0.0
 10
10.64817008945366
 20
25.23391221591375
 30
0.0
 10
10.53723912006152
 20
25.10520413729066
 30
0.0
 10
10.53723912006152
 20
25.10520413729066
 30
0.0
 10
10.53723912006152
 20
25.10520413729066
 30
0.0
 10
10.68072442195646
 20
25.090387471002
 30
0.0
 10
10.6939888660625
 20
25.00012638263885
 30
0.0
 10
10.6939888660625
 20
25.00012638263885
 30
0.0
 10
10.7059092268695
 20
24.97063705739042
 30
0.0
 10
10.67776461647642
 20
24.93653050270499
 30
0.0
 10
10.64965175608253
 20
24.90249450357332
 30
0.0
 10
10.65554314482111
 20
24.85667219918679
 30
0.0
 10
10.66739295007435
 20
24.83889572741808
 30
0.0
 10
10.67921100532841
 20
24.82111925564938
 30
0.0
 10
10.75765466999381
 20
24.75463122956785
 30
0.0
 10
10.7443231981117
 20
24.65844284313293
 30
0.0
 10
10.7443231981117
 20
24.65844284313293
 30
0.0
 10
10.80495511323152
 20
24.69399578667035
 30
0.0
 10
10.82421325162909
 20
24.72348448036247
 30
0.0
 10
10.84343638617801
 20
24.75311428516211
 30
0.0
 10
10.84343638617801
 20
24.78274056218406
 30
0.0
 10
10.8390266639569
 20
24.81526314468767
 30
0.0
 10
10.83454964025428
 20
24.84778572719128
 30
0.0
 10
10.84936305284319
 20
24.85226247707707
 30
0.0
 10
10.8582177750632
 20
24.864115810108
 30
0.0
 10
10.86707249728322
 20
24.87589858758517
 30
0.0
 10
10.87499561144464
 20
24.89167480940491
 30
0.0
 10
10.87306591704942
 20
24.91634166043758
 30
0.0
 10
10.87103391710126
 20
24.94101078036847
 30
0.0
 10
10.88188536126886
 20
24.96464336309888
 30
0.0
 10
10.89566486091732
 20
24.98731286252054
 30
0.0
 10
10.90951491611953
 20
25.01004938971826
 30
0.0
 10
10.96181069256313
 20
25.15701660819103
 30
0.0
 10
11.05448541242103
 20
25.22598818976476
 30
0.0
 10
11.05448541242103
 20
25.22598818976476
 30
0.0
 10
11.10250905008473
 20
25.24941263361159
 30
0.0
 10
11.12844879942295
 20
25.20924535685857
 30
0.0
 10
11.15011993775896
 20
25.17575969104619
 30
0.0
 10
11.12945068828628
 20
25.1510229138995
 30
0.0
 10
11.10871088325984
 20
25.12642372008263
 30
0.0
 10
11.08800635601028
 20
25.1017574984897
 30
0.0
 10
11.03381263517065
 20
25.02830916703019
 30
0.0
 10
11.03577760734274
 20
24.96912011298467
 30
0.0
 10
11.03774257951484
 20
24.90993458671684
 30
0.0
 10
11.06137516224525
 20
24.84737360489927
 30
0.0
 10
11.00218638613833
 20
24.80093331171992
 30
0.0
 10
11.00218638613833
 20
24.80093331171992
 30
0.0
 10
11.00218638613833
 20
24.79404003411801
 30
0.0
 10
11.00914641357772
 20
24.79803700623826
 30
0.0
 10
11.01603616340195
 20
24.80196695058244
 30
0.0
 10
11.32960973873535
 20
24.97649316835212
 30
0.0
 10
11.40461029237748
 20
25.01790222285125
 30
0.0
 10
11.47954029046586
 20
25.05938183290413
 30
0.0
 10
11.73203039513541
 20
25.17968610761269
 30
0.0
 10
11.96674402803626
 20
25.08694499372827
 30
0.0
 10
11.96674402803626
 20
25.08694499372827
 30
0.0
 10
12.05208097030357
 20
25.04801533319411
 30
0.0
 10
12.03433977631175
 20
24.95134364121597
 30
0.0
 10
12.03433977631175
 20
24.95134364121597
 30
0.0
 10
12.01800999699548
 20
24.90993458671684
 30
0.0
 10
11.99437388589028
 20
24.90697125345911
 30
0.0
 10
11.97070572237963
 20
24.90400792020138
 30
0.0
 10
11.88488900234677
 20
24.95575336332569
 30
0.0
 10
11.76362194150355
 20
24.95727030773143
 30
0.0
 10
11.63784225864946
 20
24.95878725213717
 30
0.0
 10
11.46183084647322
 20
24.92661039184696
 30
0.0
 10
11.1906011867262
 20
24.77137406247404
 30
0.0
 10
10.91940327697837
 20
24.61613773310112
 30
0.0
 10
10.76992075301421
 20
24.5686644287567
 30
0.0
 10
10.76058272547466
 20
24.56328809556053
 30
0.0
 10
10.74828489245507
 20
24.55784473458829
 30
0.0
 10
10.75613772558806
 20
24.54454916053054
 30
0.0
 10
10.76947272524786
 20
24.54950859591208
 30
0.0
 10
10.78680116925022
 20
24.55591504019308
 30
0.0
 10
11.2014526308938
 20
24.73685123002146
 30
0.0
 10
11.28627098984101
 20
24.78219022886476
 30
0.0
 10
11.34545651610884
 20
24.81374620028193
 30
0.0
 10
11.52594467817087
 20
24.91241461443135
 30
0.0
 10
11.69062134063629
 20
24.91834128094682
 30
0.0
 10
11.85529800310171
 20
24.92419739190852
 30
0.0
 10
11.96677930581314
 20
24.89663486483392
 30
0.0
 10
12.01011805470747
 20
24.86604550450321
 30
0.0
 10
12.01011805470747
 20
24.86604550450321
 30
0.0
 10
12.03182447082036
 20
24.84034211627007
 30
0.0
 10
12.01508194144064
 20
24.80196695058244
 30
0.0
 10
11.99830352723111
 20
24.76345067378729
 30
0.0
 10
11.93418999701643
 20
24.65203639885193
 30
0.0
 10
11.89477736320561
 20
24.62337320513874
 30
0.0
 10
11.85529800310171
 20
24.59484759475538
 30
0.0
 10
11.80796228208712
 20
24.59388098366893
 30
0.0
 10
11.74184820044049
 20
24.62440331622357
 30
0.0
 10
11.67577292434844
 20
24.65499620433198
 30
0.0
 10
11.52094934496498
 20
24.68510931467484
 30
0.0
 10
11.33456979416437
 20
24.64610973233647
 30
0.0
 10
11.18987799230021
 20
24.61592959421754
 30
0.0
 10
10.83013991814456
 20
24.50306893043019
 30
0.0
 10
10.7921739746687
 20
24.49624620838203
 30
0.0
 10
10.78039119719153
 20
24.49411190288092
 30
0.0
 10
10.78128725272422
 20
24.47550640335558
 30
0.0
 10
10.79906372449293
 20
24.48039943100853
 30
0.0
 10
10.79906372449293
 20
24.48039943100853
 30
0.0
 10
11.07277721945402
 20
24.54158582719795
 30
0.0
 10
11.14674385451176
 20
24.55936167899404
 30
0.0
 10
11.2206754915145
 20
24.57713815076274
 30
0.0
 10
11.44553604133338
 20
24.62888359388705
 30
0.0
 10
11.57865673238163
 20
24.61262406652409
 30
0.0
 10
11.71180917342908
 20
24.59629398360737
 30
0.0
 10
11.81240375419603
 20
24.58003092846672
 30
0.0
 10
11.81833042071149
 20
24.53710554942128
 30
0.0
 10
11.82425708722696
 20
24.49424948621074
 30
0.0
 10
11.76806694150245
 20
24.46021348707907
 30
0.0
 10
11.72069564542459
 20
24.42024729365425
 30
0.0
 10
11.67332817441081
 20
24.38035518356087
 30
0.0
 10
11.45587242995857
 20
24.22642765971012
 30
0.0
 10
11.26649426812334
 20
24.22642765971012
 30
0.0
 10
11.22212188036649
 20
24.22642765971012
 30
0.0
 10
11.13634043811051
 20
24.27969004724017
 30
0.0
 10
11.07715166389736
 20
24.32261666058601
 30
0.0
 10
11.01803641335092
 20
24.36560907282596
 30
0.0
 10
10.85229110839803
 20
24.42472757131773
 30
0.0
 10
10.75613772558806
 20
24.42321062691198
 30
0.0
 10
10.74187492039638
 20
24.41928421034549
 30
0.0
 10
10.74091183708762
 20
24.40846804395477
 30
0.0
 10
10.75469133673607
 20
24.40750143286832
 30
0.0
 10
10.76847110841898
 20
24.4064677940058
 30
0.0
 10
10.92036636028713
 20
24.38772823892833
 30
0.0
 10
10.98448019198478
 20
24.33742918465601
 30
0.0
 10
11.04855874590556
 20
24.28713013038369
 30
0.0
 10
11.09093441149113
 20
24.24771779805585
 30
0.0
 10
11.12155904959872
 20
24.23883193838473
 30
0.0
 10
11.1521169416564
 20
24.22994193838694
 30
0.0
 10
11.19452760329269
 20
24.21416157668972
 30
0.0
 10
11.20441596415153
 20
24.15793999396053
 30
0.0
 10
11.20834238071803
 20
24.13334018986275
 30
0.0
 10
11.23300888608061
 20
24.11349644036901
 30
0.0
 10
11.26353446264329
 20
24.11349644036901
 30
0.0
 10
11.29412382297401
 20
24.11349644036901
 30
0.0
 10
11.35823765467166
 20
24.11453007923152
 30
0.0
 10
11.36020262684375
 20
24.05934152508395
 30
0.0
 10
11.36219934901503
 20
24.00408241538261
 30
0.0
 10
11.31186854474352
 20
24.01000555412039
 30
0.0
 10
11.27638262898218
 20
24.00904247081163
 30
0.0
 10
11.24086496322164
 20
24.00800943844245
 30
0.0
 10
11.14326546571161
 20
24.01889555389359
 30
0.0
 10
11.05252044024893
 20
24.14119655077343
 30
0.0
 10
11.05252044024893
 20
24.14119655077343
 30
0.0
 10
11.01696777502352
 20
24.19741874378353
 30
0.0
 10
10.97855352546932
 20
24.21120177120967
 30
0.0
 10
10.94007252645105
 20
24.22498127085813
 30
0.0
 10
10.9215023047026
 20
24.26859518641211
 30
0.0
 10
10.89966183303757
 20
24.29305679689915
 30
0.0
 10
10.88284844457763
 20
24.31179635197662
 30
0.0
 10
10.86259221950655
 20
24.33074404593767
 30
0.0
 10
10.81284675191907
 20
24.33542893470704
 30
0.0
 10
10.7714344417516
 20
24.33935887905122
 30
0.0
 10
10.72113864314763
 20
24.34728226773797
 30
0.0
 10
10.70039883812119
 20
24.35520565642471
 30
0.0
 10
10.67972606087082
 20
24.36305848955771
 30
0.0
 10
10.66791153339446
 20
24.34335585117147
 30
0.0
 10
10.69350583065994
 20
24.33646257356956
 30
0.0
 10
10.71913839319866
 20
24.32957282374533
 30
0.0
 10
10.81484347409036
 20
24.27721001952566
 30
0.0
 10
10.84343638617801
 20
24.20823843795194
 30
0.0
 10
10.84736605659397
 20
24.19638510492101
 30
0.0
 10
10.85129247316046
 20
24.18942832732071
 30
0.0
 10
10.86906894492917
 20
24.17771257761961
 30
0.0
 10
10.88684541669788
 20
24.16586277236636
 30
0.0
 10
10.95977869261497
 20
24.14215963408219
 30
0.0
 10
11.01500252453943
 20
23.96363644419225
 30
0.0
 10
11.03277899630814
 20
23.90348430683797
 30
0.0
 10
11.06633521767427
 20
23.79703008733162
 30
0.0
 10
11.07026163424076
 20
23.7437006720255
 30
0.0
 10
11.07419157858494
 20
23.69050943852183
 30
0.0
 10
11.07129555278774
 20
23.68354853467122
 30
0.0
 10
11.06137516224525
 20
23.65791922976953
 30
0.0
 10
11.05158910693936
 20
23.6323569526439
 30
0.0
 10
11.06240880110777
 20
23.5968004813288
 30
0.0
 10
11.07518993967059
 20
23.57606420408004
 30
0.0
 10
11.08800635601028
 20
23.55532499411117
 30
0.0
 10
11.11959760520432
 20
23.51294873346803
 30
0.0
 10
11.13833716028179
 20
23.50013231712834
 30
0.0
 10
11.15708024313695
 20
23.48731590078865
 30
0.0
 10
11.18067754809048
 20
23.44094679086051
 30
0.0
 10
11.12056068851308
 20
23.42117006914284
 30
0.0
 10
11.06037680115961
 20
23.40153445853267
 30
0.0
 10
11.00218638613833
 20
23.50805570581509
 30
0.0
 10
10.97655680329804
 20
23.55242809357194
 30
0.0
 10
10.95095924839553
 20
23.5968004813288
 30
0.0
 10
10.91151163829081
 20
23.71710475603736
 30
0.0
 10
10.89766511086629
 20
23.81962903119952
 30
0.0
 10
10.88385033344096
 20
23.92222738969313
 30
0.0
 10
10.85725088967512
 20
24.08593804953408
 30
0.0
 10
10.80988341866134
 20
24.11846002357571
 30
0.0
 10
10.80988341866134
 20
24.11846002357571
 30
0.0
 10
10.82077014060582
 20
24.01393610510762
 30
0.0
 10
10.80788316871237
 20
23.98237599926972
 30
0.0
 10
10.79510203014956
 20
23.95082002785256
 30
0.0
 10
10.57768156347419
 20
23.90541400123319
 30
0.0
 10
10.46821462182248
 20
23.90541400123319
 30
0.0
  0
SPLINE
  5
47
330
42
100
AcDbEntity
  8
CALQUE_1
 62
     7
100
AcDbSpline
210
0.0
220
0.0
230
1.0
 70
    11
 71
     3
 72
    35
 73
    31
 74
     0
 42
0.0000000001
 43
0.0000000001
 12
1.0
 22
0.0
 32
0.0
 13
1.0
 23
0.0
 33
0.0
 40
0.0
 40
0.0
 40
0.0
 40
0.0
 40
1.0
 40
1.0
 40
1.0
 40
2.0
 40
2.0
 40
2.0
 40
3.0
 40
3.0
 40
3.0
 40
4.0
 40
4.0
 40
4.0
 40
5.0
 40
5.0
 40
5.0
 40
6.0
 40
6.0
 40
6.0
 40
7.0
 40
7.0
 40
7.0
 40
8.0
 40
8.0
 40
8.0
 40
9.0
 40
9.0
 40
9.0
 40
10.0
 40
10.0
 40
10.0
 40
10.0
 10
10.46821462182248
 20
23.68089564585002
 30
0.0
 10
10.39030365158794
 20
23.6789659514548
 30
0.0
 10
10.21431340607782
 20
23.70356514527167
 30
0.0
 10
10.1778114903424
 20
23.71245514504487
 30
0.0
 10
10.14547940783392
 20
23.72030797817786
 30
0.0
 10
10.12356838061514
 20
23.72230822812683
 30
0.0
 10
10.11864007518532
 20
23.75586092171527
 30
0.0
 10
10.11369765864474
 20
23.7894171430814
 30
0.0
 10
10.11273457533598
 20
23.86727519665063
 30
0.0
 10
10.11273457533598
 20
23.899868334708
 30
0.0
 10
10.11273457533598
 20
23.93238738943393
 30
0.0
 10
10.14032885240977
 20
23.93142430612517
 30
0.0
 10
10.16992337943253
 20
23.92150066748945
 30
0.0
 10
10.23797773880743
 20
23.89394166819254
 30
0.0
 10
10.41988053972226
 20
23.87712888291962
 30
0.0
 10
10.46821462182248
 20
23.87616519642383
 30
0.0
 10
10.51656634281115
 20
23.87712888291962
 30
0.0
 10
10.69850089372517
 20
23.89394166819254
 30
0.0
 10
10.76650939199013
 20
23.92150066748945
 30
0.0
 10
10.79610391901289
 20
23.93142430612517
 30
0.0
 10
10.82373347386355
 20
23.93238738943393
 30
0.0
 10
10.82373347386355
 20
23.899868334708
 30
0.0
 10
10.82373347386355
 20
23.86727519665063
 30
0.0
 10
10.82269983500103
 20
23.7894171430814
 30
0.0
 10
10.81780680734809
 20
23.75586092171527
 30
0.0
 10
10.81284675191907
 20
23.72230822812683
 30
0.0
 10
10.79093572470029
 20
23.72030797817786
 30
0.0
 10
10.75862128108026
 20
23.71245514504487
 30
0.0
 10
10.72213700423327
 20
23.70356514527167
 30
0.0
 10
10.54612559205703
 20
23.6789659514548
 30
0.0
 10
10.46821462182248
 20
23.68089564585002
 30
0.0
  0
SPLINE
  5
48
330
42
100
AcDbEntity
  8
CALQUE_1
 62
     7
100
AcDbSpline
210
0.0
220
0.0
230
1.0
 70
    11
 71
     3
 72
    29
 73
    25
 74
     0
 42
0.0000000001
 43
0.0000000001
 12
1.0
 22
0.0
 32
0.0
 13
1.0
 23
0.0
 33
0.0
 40
0.0
 40
0.0
 40
0.0
 40
0.0
 40
1.0
 40
1.0
 40
1.0
 40
2.0
 40
2.0
 40
2.0
 40
3.0
 40
3.0
 40
3.0
 40
4.0
 40
4.0
 40
4.0
 40
5.0
 40
5.0
 40
5.0
 40
6.0
 40
6.0
 40
6.0
 40
7.0
 40
7.0
 40
7.0
 40
8.0
 40
8.0
 40
8.0
 40
8.0
 10
10.46737148295511
 20
23.46096340146095
 30
0.0
 10
10.46737148295511
 20
23.46096340146095
 30
0.0
 10
10.22545765579351
 20
23.47205473451132
 30
0.0
 10
10.18108526803665
 20
23.50850373358143
 30
0.0
 10
10.13669524139136
 20
23.54509031598137
 30
0.0
 10
10.13076857487589
 20
23.61681709192924
 30
0.0
 10
10.1278228805066
 20
23.65126936882807
 30
0.0
 10
10.12484190836043
 20
23.68585922905672
 30
0.0
 10
10.14162027524238
 20
23.6955041732551
 30
0.0
 10
10.18697312899755
 20
23.68365436800186
 30
0.0
 10
10.23236504450617
 20
23.67187159052468
 30
0.0
 10
10.4181060675453
 20
23.65271575768006
 30
0.0
 10
10.46737148295511
 20
23.65175267437129
 30
0.0
 10
10.51667217614178
 20
23.65271575768006
 30
0.0
 10
10.70239583065773
 20
23.67187159052468
 30
0.0
 10
10.74780158691185
 20
23.68365436800186
 30
0.0
 10
10.79314058575515
 20
23.6955041732551
 30
0.0
 10
10.80988341866134
 20
23.68585922905672
 30
0.0
 10
10.80692008540361
 20
23.65126936882807
 30
0.0
 10
10.80399202992275
 20
23.61681709192924
 30
0.0
 10
10.79810064118417
 20
23.54509031598137
 30
0.0
 10
10.75369297565043
 20
23.50850373358143
 30
0.0
 10
10.70935586567046
 20
23.47205473451132
 30
0.0
 10
10.46737148295511
 20
23.46096340146095
 30
0.0
 10
10.46737148295511
 20
23.46096340146095
 30
0.0
  0
SPLINE
  5
49
330
42
100
AcDbEntity
  8
CALQUE_1
 62
     7
100
AcDbSpline
210
0.0
220
0.0
230
1.0
 70
    11
 71
     3
 72
    29
 73
    25
 74
     0
 42
0.0000000001
 43
0.0000000001
 12
1.0
 22
0.0
 32
0.0
 13
1.0
 23
0.0
 33
0.0
 40
0.0
 40
0.0
 40
0.0
 40
0.0
 40
1.0
 40
1.0
 40
1.0
 40
2.0
 40
2.0
 40
2.0
 40
3.0
 40
3.0
 40
3.0
 40
4.0
 40
4.0
 40
4.0
 40
5.0
 40
5.0
 40
5.0
 40
6.0
 40
6.0
 40
6.0
 40
7.0
 40
7.0
 40
7.0
 40
8.0
 40
8.0
 40
8.0
 40
8.0
 10
10.46737148295511
 20
23.30910315533523
 30
0.0
 10
10.46737148295511
 20
23.30910315533523
 30
0.0
 10
10.37437220754994
 20
23.30910315533523
 30
0.0
 10
10.30634607039654
 20
23.31502629407301
 30
0.0
 10
10.2382740721332
 20
23.32095296058847
 30
0.0
 10
10.20277051748342
 20
23.37910484799379
 30
0.0
 10
10.19289979551302
 20
23.40177434741544
 30
0.0
 10
10.18302907354262
 20
23.42444443858833
 30
0.0
 10
10.19784573983128
 20
23.46984987345646
 30
0.0
 10
10.25306957175573
 20
23.45896315151199
 30
0.0
 10
10.25306957175573
 20
23.45896315151199
 30
0.0
 10
10.38753081832534
 20
23.43891479091235
 30
0.0
 10
10.46737148295511
 20
23.43601848543069
 30
0.0
 10
10.54722978647331
 20
23.43891479091235
 30
0.0
 10
10.68172631081979
 20
23.45896315151199
 30
0.0
 10
10.68172631081979
 20
23.45896315151199
 30
0.0
 10
10.73691486496737
 20
23.46984987345646
 30
0.0
 10
10.75166097570228
 20
23.42444443858833
 30
0.0
 10
10.74187492039638
 20
23.40177434741544
 30
0.0
 10
10.73195480953835
 20
23.37910484799379
 30
0.0
 10
10.69650444177034
 20
23.32095296058847
 30
0.0
 10
10.62846392328974
 20
23.31502629407301
 30
0.0
 10
10.56038839724871
 20
23.30910315533523
 30
0.0
 10
10.46737148295511
 20
23.30910315533523
 30
0.0
 10
10.46737148295511
 20
23.30910315533523
 30
0.0
  0
SPLINE
  5
4A
330
42
100
AcDbEntity
  8
CALQUE_1
 62
     7
100
AcDbSpline
210
0.0
220
0.0
230
1.0
 70
    11
 71
     3
 72
    23
 73
    19
 74
     0
 42
0.0000000001
 43
0.0000000001
 12
1.0
 22
0.0
 32
0.0
 13
1.0
 23
0.0
 33
0.0
 40
0.0
 40
0.0
 40
0.0
 40
0.0
 40
1.0
 40
1.0
 40
1.0
 40
2.0
 40
2.0
 40
2.0
 40
3.0
 40
3.0
 40
3.0
 40
4.0
 40
4.0
 40
4.0
 40
5.0
 40
5.0
 40
5.0
 40
6.0
 40
6.0
 40
6.0
 40
6.0
 10
10.46737148295511
 20
23.1700593255492
 30
0.0
 10
10.44568270573065
 20
23.17102240885797
 30
0.0
 10
10.33294198638469
 20
23.17894638309416
 30
0.0
 10
10.29349790405766
 20
23.22821121295452
 30
0.0
 10
10.25406793284138
 20
23.27754365614038
 30
0.0
 10
10.31025837585228
 20
23.29428648904657
 30
0.0
 10
10.34083388630369
 20
23.2883633503088
 30
0.0
 10
10.3714088742922
 20
23.28250723934709
 30
0.0
 10
10.46737148295511
 20
23.28147360048457
 30
0.0
 10
10.46737148295511
 20
23.28147360048457
 30
0.0
 10
10.46737148295511
 20
23.28147360048457
 30
0.0
 10
10.56335173050644
 20
23.28250723934709
 30
0.0
 10
10.59394461861484
 20
23.2883633503088
 30
0.0
 10
10.62450249734385
 20
23.29428648904657
 30
0.0
 10
10.68072442195646
 20
23.27754365614038
 30
0.0
 10
10.64128033962943
 20
23.22821121295452
 30
0.0
 10
10.60179745174784
 20
23.17894638309416
 30
0.0
 10
10.48909201017875
 20
23.17102240885797
 30
0.0
 10
10.46737148295511
 20
23.1700593255492
 30
0.0
  0
ENDBLK
  5
45
330
42
100
AcDbEntity
  8
0
100
AcDbBlockEnd
  0
BLOCK
  5
4D
330
4B
100
AcDbEntity
  8
0
100
AcDbBlockBegin
  2
BLOCK_3
 70
     0
 10
0.0
 20
0.0
 30
0.0
  3
BLOCK_3
  1

  0
SPLINE
  5
4F
330
4B
100
AcDbEntity
  8
CALQUE_1
 62
     7
100
AcDbSpline
210
0.0
220
0.0
230
1.0
 70
    11
 71
     3
 72
    32
 73
    28
 74
     0
 42
0.0000000001
 43
0.0000000001
 12
1.0
 22
0.0
 32
0.0
 13
1.0
 23
0.0
 33
0.0
 40
0.0
 40
0.0
 40
0.0
 40
0.0
 40
1.0
 40
1.0
 40
1.0
 40
2.0
 40
2.0
 40
2.0
 40
3.0
 40
3.0
 40
3.0
 40
4.0
 40
4.0
 40
4.0
 40
5.0
 40
5.0
 40
5.0
 40
6.0
 40
6.0
 40
6.0
 40
7.0
 40
7.0
 40
7.0
 40
8.0
 40
8.0
 40
8.0
 40
9.0
 40
9.0
 40
9.0
 40
9.0
 10
13.09377374928333
 20
22.22510173854597
 30
0.0
 10
13.09305055485734
 20
22.22448437745061
 30
0.0
 10
13.09236263820822
 20
22.22393051635363
 30
0.0
 10
13.09163944378223
 20
22.22330962748058
 30
0.0
 10
12.75315623019543
 20
21.95652143984247
 30
0.0
 10
12.16132566196096
 20
22.01743204939962
 30
0.0
 10
11.81144067088727
 20
22.22668923850547
 30
0.0
 10
11.81144067088727
 20
22.22668923850547
 30
0.0
 10
11.80317155998712
 20
22.23280287723838
 30
0.0
 10
11.80317155998712
 20
22.23941746040297
 30
0.0
 10
11.80317155998712
 20
22.24603204356755
 30
0.0
 10
11.81144067088727
 20
22.25045940456571
 30
0.0
 10
11.81144067088727
 20
22.25045940456571
 30
0.0
 10
12.16252863415249
 20
22.45771634372259
 30
0.0
 10
12.75488131348476
 20
22.51538492558467
 30
0.0
 10
13.09184405488812
 20
22.24653298799921
 30
0.0
 10
13.09218977710152
 20
22.24628957133876
 30
0.0
 10
13.09250055228244
 20
22.24601440467911
 30
0.0
 10
13.09274011042081
 20
22.24579215468478
 30
0.0
 10
13.09297999930358
 20
22.2455840158012
 30
0.0
 10
13.09315286041029
 20
22.24542879358294
 30
0.0
 10
13.09315286041029
 20
22.24542879358294
 30
0.0
 10
13.09315286041029
 20
22.24542879358294
 30
0.0
 10
13.09907952692575
 20
22.24107198813854
 30
0.0
 10
13.09907952692575
 20
22.23555807161254
 30
0.0
 10
13.09907952692575
 20
22.23004768286423
 30
0.0
 10
13.09377374928333
 20
22.22510173854597
 30
0.0
 10
13.09377374928333
 20
22.22510173854597
 30
0.0
  0
SPLINE
  5
50
330
4B
100
AcDbEntity
  8
CALQUE_1
 62
     7
100
AcDbSpline
210
0.0
220
0.0
230
1.0
 70
    11
 71
     3
 72
    32
 73
    28
 74
     0
 42
0.0000000001
 43
0.0000000001
 12
1.0
 22
0.0
 32
0.0
 13
1.0
 23
0.0
 33
0.0
 40
0.0
 40
0.0
 40
0.0
 40
0.0
 40
1.0
 40
1.0
 40
1.0
 40
2.0
 40
2.0
 40
2.0
 40
3.0
 40
3.0
 40
3.0
 40
4.0
 40
4.0
 40
4.0
 40
5.0
 40
5.0
 40
5.0
 40
6.0
 40
6.0
 40
6.0
 40
7.0
 40
7.0
 40
7.0
 40
8.0
 40
8.0
 40
8.0
 40
9.0
 40
9.0
 40
9.0
 40
9.0
 10
12.09920855243458
 20
22.89849805469953
 30
0.0
 10
12.09914152465852
 20
22.89755261027921
 30
0.0
 10
12.09907096910476
 20
22.89667419363495
 30
0.0
 10
12.09900394132869
 20
22.89572522143694
 30
0.0
 10
12.0513224981007
 20
22.46737892680941
 30
0.0
 10
11.59243623203009
 20
22.08871079758115
 30
0.0
 10
11.19776638608943
 20
21.98647932796707
 30
0.0
 10
11.19776638608943
 20
21.98647932796707
 30
0.0
 10
11.18760257569159
 20
21.98489182800757
 30
0.0
 10
11.18288240914534
 20
21.98952732788931
 30
0.0
 10
11.17819752037598
 20
21.99417749450146
 30
0.0
 10
11.18081513142031
 20
22.00316924420794
 30
0.0
 10
11.18081513142031
 20
22.00316924420794
 30
0.0
 10
11.27975871222938
 20
22.39868251189533
 30
0.0
 10
11.65458509155565
 20
22.86099777787847
 30
0.0
 10
12.08260360809045
 20
22.9121576099066
 30
0.0
 10
12.08301605284769
 20
22.91224638316082
 30
0.0
 10
12.08343233061485
 20
22.91225991545955
 30
0.0
 10
12.08377452505056
 20
22.91227755434799
 30
0.0
 10
12.08408527475673
 20
22.91231283212487
 30
0.0
 10
12.08432838614754
 20
22.91231283212487
 30
0.0
 10
12.08432838614754
 20
22.91231283212487
 30
0.0
 10
12.08432838614754
 20
22.91231283212487
 30
0.0
 10
12.09156033040748
 20
22.91348405431721
 30
0.0
 10
12.09549027475167
 20
22.90961055441603
 30
0.0
 10
12.09941669131816
 20
22.90573352673716
 30
0.0
 10
12.09920855243458
 20
22.89849805469953
 30
0.0
 10
12.09920855243458
 20
22.89849805469953
 30
0.0
  0
SPLINE
  5
51
330
4B
100
AcDbEntity
  8
CALQUE_1
 62
     7
100
AcDbSpline
210
0.0
220
0.0
230
1.0
 70
    11
 71
     3
 72
    50
 73
    46
 74
     0
 42
0.0000000001
 43
0.0000000001
 12
1.0
 22
0.0
 32
0.0
 13
1.0
 23
0.0
 33
0.0
 40
0.0
 40
0.0
 40
0.0
 40
0.0
 40
1.0
 40
1.0
 40
1.0
 40
2.0
 40
2.0
 40
2.0
 40
3.0
 40
3.0
 40
3.0
 40
4.0
 40
4.0
 40
4.0
 40
5.0
 40
5.0
 40
5.0
 40
6.0
 40
6.0
 40
6.0
 40
7.0
 40
7.0
 40
7.0
 40
8.0
 40
8.0
 40
8.0
 40
9.0
 40
9.0
 40
9.0
 40
10.0
 40
10.0
 40
10.0
 40
11.0
 40
11.0
 40
11.0
 40
12.0
 40
12.0
 40
12.0
 40
13.0
 40
13.0
 40
13.0
 40
14.0
 40
14.0
 40
14.0
 40
15.0
 40
15.0
 40
15.0
 40
15.0
 10
12.51403287518487
 20
21.79294897179333
 30
0.0
 10
12.51351781964245
 20
21.7935527723294
 30
0.0
 10
12.51286165299252
 20
21.7940531662096
 30
0.0
 10
12.51227604189635
 20
21.79467405508265
 30
0.0
 10
12.22416243813563
 20
22.07352018685758
 30
0.0
 10
11.68927725733725
 20
22.09225974193505
 30
0.0
 10
11.31879357234463
 20
21.95452527228913
 30
0.0
 10
11.30725068375022
 20
21.95087346776434
 30
0.0
 10
11.27148960132923
 20
21.93969394027177
 30
0.0
 10
11.22239704702613
 20
21.9248808017608
 30
0.0
 10
11.10936352213208
 20
21.89170205260726
 30
0.0
 10
10.85969944172954
 20
21.82006347110158
 30
0.0
 10
10.85969944172954
 20
21.82006347110158
 30
0.0
 10
10.01303277527451
 20
21.59957736561554
 30
0.0
 10
9.632314997591934
 20
21.08658610583945
 30
0.0
 10
9.632314997591934
 20
21.08658610583945
 30
0.0
 10
9.632314997591934
 20
21.08658610583945
 30
0.0
 10
9.589664164269237
 20
21.03807916140713
 30
0.0
 10
9.622013886483385
 20
21.00426488080322
 30
0.0
 10
9.654363608697533
 20
20.97045166142406
 30
0.0
 10
9.732256942011379
 20
20.90284127227964
 30
0.0
 10
9.732256942011379
 20
20.90284127227964
 30
0.0
 10
9.732256942011379
 20
20.90284127227964
 30
0.0
 10
9.785173608664817
 20
20.86020860589606
 30
0.0
 10
9.832216276937041
 20
20.93370932704769
 30
0.0
 10
9.879206275738227
 20
21.00714055030377
 30
0.0
 10
10.14189518570314
 20
21.58956906031532
 30
0.0
 10
11.11845813301117
 20
21.80469647149362
 30
0.0
 10
11.11845813301117
 20
21.80469647149362
 30
0.0
 10
11.11845813301117
 20
21.80466527232661
 30
0.0
 10
11.11845813301117
 20
21.80466527232661
 30
0.0
 10
11.22322607478276
 20
21.81911449890357
 30
0.0
 10
11.32106546117556
 20
21.79701649946733
 30
0.0
 10
11.5481308720493
 20
21.73307552887638
 30
0.0
 10
11.862977975128
 20
21.61780186515059
 30
0.0
 10
12.24524796537547
 20
21.60126364335029
 30
0.0
 10
12.5098665697356
 20
21.7716588334476
 30
0.0
 10
12.5105897641616
 20
21.77207158343706
 30
0.0
 10
12.51134470858678
 20
21.77262544453405
 30
0.0
 10
12.51210318078965
 20
21.77310522229958
 30
0.0
 10
12.51499948627132
 20
21.77544766668427
 30
0.0
 10
12.51689390288965
 20
21.7787567221554
 30
0.0
 10
12.51730665287912
 20
21.78254610566546
 30
0.0
 10
12.51768444131503
 20
21.7864049441825
 30
0.0
 10
12.51637531956955
 20
21.79012674964311
 30
0.0
 10
12.51403287518487
 20
21.79294897179333
 30
0.0
  0
SPLINE
  5
52
330
4B
100
AcDbEntity
  8
CALQUE_1
 62
     7
100
AcDbSpline
210
0.0
220
0.0
230
1.0
 70
    11
 71
     3
 72
    32
 73
    28
 74
     0
 42
0.0000000001
 43
0.0000000001
 12
1.0
 22
0.0
 32
0.0
 13
1.0
 23
0.0
 33
0.0
 40
0.0
 40
0.0
 40
0.0
 40
0.0
 40
1.0
 40
1.0
 40
1.0
 40
2.0
 40
2.0
 40
2.0
 40
3.0
 40
3.0
 40
3.0
 40
4.0
 40
4.0
 40
4.0
 40
5.0
 40
5.0
 40
5.0
 40
6.0
 40
6.0
 40
6.0
 40
7.0
 40
7.0
 40
7.0
 40
8.0
 40
8.0
 40
8.0
 40
9.0
 40
9.0
 40
9.0
 40
9.0
 10
13.76412206551466
 20
22.95520355325285
 30
0.0
 10
13.76356820441768
 20
22.95444508104998
 30
0.0
 10
13.76308842665214
 20
22.9536901366248
 30
0.0
 10
13.76256984333203
 20
22.95289638664505
 30
0.0
 10
13.51166371084429
 20
22.60246106225206
 30
0.0
 10
12.9262748646677
 20
22.49631728718224
 30
0.0
 10
12.5319469302834
 20
22.59994575676068
 30
0.0
 10
12.5319469302834
 20
22.59994575676068
 30
0.0
 10
12.52230198608502
 20
22.60356582768243
 30
0.0
 10
12.52047459724275
 20
22.60986939539639
 30
0.0
 10
12.51865073617817
 20
22.61624056190052
 30
0.0
 10
12.52533234711882
 20
22.62282339506591
 30
0.0
 10
12.52533234711882
 20
22.62282339506591
 30
0.0
 10
12.80493695109662
 20
22.919548883159
 30
0.0
 10
13.35784202032417
 20
23.13975924298889
 30
0.0
 10
13.75630098238086
 20
22.97525544163017
 30
0.0
 10
13.75671373237033
 20
22.97511785830035
 30
0.0
 10
13.75709120458292
 20
22.97494499719365
 30
0.0
 10
13.75736989902025
 20
22.97477213608695
 30
0.0
 10
13.7576450656799
 20
22.974669830534
 30
0.0
 10
13.75784967678579
 20
22.97456752498106
 30
0.0
 10
13.75784967678579
 20
22.97456752498106
 30
0.0
 10
13.75784967678579
 20
22.97456752498106
 30
0.0
 10
13.76477470438689
 20
22.9720169417128
 30
0.0
 10
13.76629164879264
 20
22.96674644184726
 30
0.0
 10
13.76780859319838
 20
22.96140538642797
 30
0.0
 10
13.76412206551466
 20
22.95520355325285
 30
0.0
 10
13.76412206551466
 20
22.95520355325285
 30
0.0
  0
SPLINE
  5
53
330
4B
100
AcDbEntity
  8
CALQUE_1
 62
     7
100
AcDbSpline
210
0.0
220
0.0
230
1.0
 70
    11
 71
     3
 72
    32
 73
    28
 74
     0
 42
0.0000000001
 43
0.0000000001
 12
1.0
 22
0.0
 32
0.0
 13
1.0
 23
0.0
 33
0.0
 40
0.0
 40
0.0
 40
0.0
 40
0.0
 40
1.0
 40
1.0
 40
1.0
 40
2.0
 40
2.0
 40
2.0
 40
3.0
 40
3.0
 40
3.0
 40
4.0
 40
4.0
 40
4.0
 40
5.0
 40
5.0
 40
5.0
 40
6.0
 40
6.0
 40
6.0
 40
7.0
 40
7.0
 40
7.0
 40
8.0
 40
8.0
 40
8.0
 40
9.0
 40
9.0
 40
9.0
 40
9.0
 10
13.77717837073712
 20
23.83859436404901
 30
0.0
 10
13.77697023185354
 20
23.837701836294
 30
0.0
 10
13.77683264852372
 20
23.83678814187287
 30
0.0
 10
13.77669506519389
 20
23.83587444745173
 30
0.0
 10
13.69228945623615
 20
23.41319729156846
 30
0.0
 10
13.20246810762142
 20
23.07550782796141
 30
0.0
 10
12.80046020121083
 20
23.00764044080397
 30
0.0
 10
12.80046020121083
 20
23.00764044080397
 30
0.0
 10
12.79015909036252
 20
23.00694899637716
 30
0.0
 10
12.78591870158182
 20
23.01194432958305
 30
0.0
 10
12.78161481280273
 20
23.0170102183427
 30
0.0
 10
12.78502617382681
 20
23.02575910700839
 30
0.0
 10
12.78502617382681
 20
23.02575910700839
 30
0.0
 10
12.91769530933102
 20
23.41126759717325
 30
0.0
 10
13.3309356598995
 20
23.83956097513546
 30
0.0
 10
13.76177962112997
 20
23.85365091922044
 30
0.0
 10
13.76222764889632
 20
23.85368619699732
 30
0.0
 10
13.76264039888579
 20
23.85368619699732
 30
0.0
 10
13.76295084332232
 20
23.85365091922044
 30
0.0
 10
13.76322600998196
 20
23.85366916070326
 30
0.0
 10
13.76346589886473
 20
23.85366916070326
 30
0.0
 10
13.76346589886473
 20
23.85366916070326
 30
0.0
 10
13.76346589886473
 20
23.85366916070326
 30
0.0
 10
13.77083895423218
 20
23.85418361365129
 30
0.0
 10
13.77438789858609
 20
23.85000027181528
 30
0.0
 10
13.77796859293918
 20
23.84576280831057
 30
0.0
 10
13.77717837073712
 20
23.83859436404901
 30
0.0
 10
13.77717837073712
 20
23.83859436404901
 30
0.0
  0
SPLINE
  5
54
330
4B
100
AcDbEntity
  8
CALQUE_1
 62
     7
100
AcDbSpline
210
0.0
220
0.0
230
1.0
 70
    11
 71
     3
 72
    32
 73
    28
 74
     0
 42
0.0000000001
 43
0.0000000001
 12
1.0
 22
0.0
 32
0.0
 13
1.0
 23
0.0
 33
0.0
 40
0.0
 40
0.0
 40
0.0
 40
0.0
 40
1.0
 40
1.0
 40
1.0
 40
2.0
 40
2.0
 40
2.0
 40
3.0
 40
3.0
 40
3.0
 40
4.0
 40
4.0
 40
4.0
 40
5.0
 40
5.0
 40
5.0
 40
6.0
 40
6.0
 40
6.0
 40
7.0
 40
7.0
 40
7.0
 40
8.0
 40
8.0
 40
8.0
 40
9.0
 40
9.0
 40
9.0
 40
9.0
 10
12.78188997946237
 20
23.80758872595114
 30
0.0
 10
12.78209459056827
 20
23.806679160715
 30
0.0
 10
12.78240503500479
 20
23.80580014266344
 30
0.0
 10
12.78268372944212
 20
23.80492172601918
 30
0.0
 10
12.89464833769678
 20
23.38870040330454
 30
0.0
 10
12.60560340062649
 20
22.86869891657088
 30
0.0
 10
12.27549513127047
 20
22.62943797823049
 30
0.0
 10
12.27549513127047
 20
22.62943797823049
 30
0.0
 10
12.26657338149808
 20
22.62423450614102
 30
0.0
 10
12.26054471915707
 20
22.62685211718535
 30
0.0
 10
12.25444488180751
 20
22.62946972822968
 30
0.0
 10
12.25361938182857
 20
22.63884360545139
 30
0.0
 10
12.25361938182857
 20
22.63884360545139
 30
0.0
 10
12.20139063316103
 20
23.04317574545294
 30
0.0
 10
12.38156835078654
 20
23.61037536987136
 30
0.0
 10
12.76142534109558
 20
23.8142385868926
 30
0.0
 10
12.76180666347623
 20
23.81446436466462
 30
0.0
 10
12.76218381329845
 20
23.81465193849077
 30
0.0
 10
12.7624589799581
 20
23.8147577718241
 30
0.0
 10
12.76269886884087
 20
23.81489475354253
 30
0.0
 10
12.76290700772445
 20
23.81499705909547
 30
0.0
 10
12.76290700772445
 20
23.81499705909547
 30
0.0
 10
12.76290700772445
 20
23.81499705909547
 30
0.0
 10
12.76928170200626
 20
23.81873650344452
 30
0.0
 10
12.77430878521134
 20
23.81654575350041
 30
0.0
 10
12.77941027458293
 20
23.81435853133398
 30
0.0
 10
12.78188997946237
 20
23.80758872595114
 30
0.0
 10
12.78188997946237
 20
23.80758872595114
 30
0.0
  0
SPLINE
  5
55
330
4B
100
AcDbEntity
  8
CALQUE_1
 62
     7
100
AcDbSpline
210
0.0
220
0.0
230
1.0
 70
    11
 71
     3
 72
    32
 73
    28
 74
     0
 42
0.0000000001
 43
0.0000000001
 12
1.0
 22
0.0
 32
0.0
 13
1.0
 23
0.0
 33
0.0
 40
0.0
 40
0.0
 40
0.0
 40
0.0
 40
1.0
 40
1.0
 40
1.0
 40
2.0
 40
2.0
 40
2.0
 40
3.0
 40
3.0
 40
3.0
 40
4.0
 40
4.0
 40
4.0
 40
5.0
 40
5.0
 40
5.0
 40
6.0
 40
6.0
 40
6.0
 40
7.0
 40
7.0
 40
7.0
 40
8.0
 40
8.0
 40
8.0
 40
9.0
 40
9.0
 40
9.0
 40
9.0
 10
13.03847936180512
 20
24.86208443822894
 30
0.0
 10
13.0390332229021
 20
24.86134360489577
 30
0.0
 10
13.03965058399746
 20
24.8606515324186
 30
0.0
 10
13.04027147287051
 20
24.85996361576949
 30
0.0
 10
13.30992068821341
 20
24.52370642990368
 30
0.0
 10
13.25393485630839
 20
23.93140666723673
 30
0.0
 10
13.04767980601484
 20
23.57973309287533
 30
0.0
 10
13.04767980601484
 20
23.57973309287533
 30
0.0
 10
13.04158027839268
 20
23.57139342642143
 30
0.0
 10
13.03503625078185
 20
23.57137638299604
 30
0.0
 10
13.02835111206351
 20
23.57132639864536
 30
0.0
 10
13.02383908440085
 20
23.57957787065707
 30
0.0
 10
13.02383908440085
 20
23.57957787065707
 30
0.0
 10
12.81368936753999
 20
23.92892663952222
 30
0.0
 10
12.75098664691745
 20
24.52076073553438
 30
0.0
 10
13.01705164012957
 20
24.85996361576949
 30
0.0
 10
13.01729152901233
 20
24.86032344909364
 30
0.0
 10
13.01760197344886
 20
24.8606515324186
 30
0.0
 10
13.01781011233244
 20
24.86084203241374
 30
0.0
 10
13.01794769566226
 20
24.86106428240807
 30
0.0
 10
13.01808527899209
 20
24.86123777156247
 30
0.0
 10
13.01808527899209
 20
24.86123777156247
 30
0.0
 10
13.01808527899209
 20
24.86123777156247
 30
0.0
 10
13.02242444554805
 20
24.86723083780631
 30
0.0
 10
13.02793836207405
 20
24.86726611558318
 30
0.0
 10
13.03344875082235
 20
24.86728375447163
 30
0.0
 10
13.03847936180512
 20
24.86208443822894
 30
0.0
 10
13.03847936180512
 20
24.86208443822894
 30
0.0
  0
SPLINE
  5
56
330
4B
100
AcDbEntity
  8
CALQUE_1
 62
     7
100
AcDbSpline
210
0.0
220
0.0
230
1.0
 70
    11
 71
     3
 72
    32
 73
    28
 74
     0
 42
0.0000000001
 43
0.0000000001
 12
1.0
 22
0.0
 32
0.0
 13
1.0
 23
0.0
 33
0.0
 40
0.0
 40
0.0
 40
0.0
 40
0.0
 40
1.0
 40
1.0
 40
1.0
 40
2.0
 40
2.0
 40
2.0
 40
3.0
 40
3.0
 40
3.0
 40
4.0
 40
4.0
 40
4.0
 40
5.0
 40
5.0
 40
5.0
 40
6.0
 40
6.0
 40
6.0
 40
7.0
 40
7.0
 40
7.0
 40
8.0
 40
8.0
 40
8.0
 40
9.0
 40
9.0
 40
9.0
 40
9.0
 10
14.22679716482194
 20
24.74327884096859
 30
0.0
 10
14.22665958149212
 20
24.74238278543589
 30
0.0
 10
14.22658902593836
 20
24.74148672990319
 30
0.0
 10
14.2265219981623
 20
24.74055539659362
 30
0.0
 10
14.1726387217592
 20
24.31291818528133
 30
0.0
 10
13.70837999657293
 20
23.94091402810528
 30
0.0
 10
13.31226313259809
 20
23.84431641945858
 30
0.0
 10
13.31226313259809
 20
23.84431641945858
 30
0.0
 10
13.30202904952585
 20
23.84290178060579
 30
0.0
 10
13.29744646630943
 20
23.84762194715203
 30
0.0
 10
13.29276157754006
 20
23.85237739147515
 30
0.0
 10
13.2955520496911
 20
23.86133441902442
 30
0.0
 10
13.2955520496911
 20
23.86133441902442
 30
0.0
 10
13.40018240813286
 20
24.25538365897139
 30
0.0
 10
13.78158809284684
 20
24.71223792509384
 30
0.0
 10
14.2103294985754
 20
24.75723120172374
 30
0.0
 10
14.21077752634175
 20
24.75729822949981
 30
0.0
 10
14.2112255541081
 20
24.75733350727669
 30
0.0
 10
14.21150072076774
 20
24.75726647950062
 30
0.0
 10
14.21177588742739
 20
24.75733350727669
 30
0.0
 10
14.21198402631097
 20
24.75736878505356
 30
0.0
 10
14.21198402631097
 20
24.75736878505356
 30
0.0
 10
14.21198402631097
 20
24.75736878505356
 30
0.0
 10
14.21928652612467
 20
24.75843832714373
 30
0.0
 10
14.22318119269197
 20
24.75450775734878
 30
0.0
 10
14.22700530370552
 20
24.75051431300622
 30
0.0
 10
14.22679716482194
 20
24.74327884096859
 30
0.0
 10
14.22679716482194
 20
24.74327884096859
 30
0.0
  0
SPLINE
  5
57
330
4B
100
AcDbEntity
  8
CALQUE_1
 62
     7
100
AcDbSpline
210
0.0
220
0.0
230
1.0
 70
    11
 71
     3
 72
    32
 73
    28
 74
     0
 42
0.0000000001
 43
0.0000000001
 12
1.0
 22
0.0
 32
0.0
 13
1.0
 23
0.0
 33
0.0
 40
0.0
 40
0.0
 40
0.0
 40
0.0
 40
1.0
 40
1.0
 40
1.0
 40
2.0
 40
2.0
 40
2.0
 40
3.0
 40
3.0
 40
3.0
 40
4.0
 40
4.0
 40
4.0
 40
5.0
 40
5.0
 40
5.0
 40
6.0
 40
6.0
 40
6.0
 40
7.0
 40
7.0
 40
7.0
 40
8.0
 40
8.0
 40
8.0
 40
9.0
 40
9.0
 40
9.0
 40
9.0
 10
14.01385697581006
 20
25.51351618242931
 30
0.0
 10
14.013959281363
 20
25.51262012689661
 30
0.0
 10
14.01416777427425
 20
25.51175999362205
 30
0.0
 10
14.01437203135247
 20
25.51084565471966
 30
0.0
 10
14.0888540016745
 20
25.08632347110568
 30
0.0
 10
13.75478403797511
 20
24.59405384477563
 30
0.0
 10
13.40469443579553
 20
24.38504007233024
 30
0.0
 10
13.40469443579553
 20
24.38504007233024
 30
0.0
 10
13.39535640825599
 20
24.38068388279371
 30
0.0
 10
13.38957085284803
 20
24.38383357236102
 30
0.0
 10
13.38371474188632
 20
24.38700504450233
 30
0.0
 10
13.38374649188551
 20
24.39637482204107
 30
0.0
 10
13.38374649188551
 20
24.39637482204107
 30
0.0
 10
13.36762454785237
 20
24.80375553387014
 30
0.0
 10
13.5975509864309
 20
25.35269890875432
 30
0.0
 10
13.99397794853943
 20
25.52200754332378
 30
0.0
 10
13.9943906985289
 20
25.52219804331892
 30
0.0
 10
13.99480344851837
 20
25.52237090442562
 30
0.0
 10
13.9951138929549
 20
25.52238501553638
 30
0.0
 10
13.99532203183848
 20
25.52254023775464
 30
0.0
 10
13.99552664294437
 20
25.52262843219683
 30
0.0
 10
13.99552664294437
 20
25.52262843219683
 30
0.0
 10
13.99552664294437
 20
25.52262843219683
 30
0.0
 10
14.0022117816627
 20
25.52579637656046
 30
0.0
 10
14.00706953153877
 20
25.52319640440457
 30
0.0
 10
14.01189200363796
 20
25.52049059891804
 30
0.0
 10
14.01385697581006
 20
25.51351618242931
 30
0.0
 10
14.01385697581006
 20
25.51351618242931
 30
0.0
  0
SPLINE
  5
58
330
4B
100
AcDbEntity
  8
CALQUE_1
 62
     7
100
AcDbSpline
210
0.0
220
0.0
230
1.0
 70
    11
 71
     3
 72
    32
 73
    28
 74
     0
 42
0.0000000001
 43
0.0000000001
 12
1.0
 22
0.0
 32
0.0
 13
1.0
 23
0.0
 33
0.0
 40
0.0
 40
0.0
 40
0.0
 40
0.0
 40
1.0
 40
1.0
 40
1.0
 40
2.0
 40
2.0
 40
2.0
 40
3.0
 40
3.0
 40
3.0
 40
4.0
 40
4.0
 40
4.0
 40
5.0
 40
5.0
 40
5.0
 40
6.0
 40
6.0
 40
6.0
 40
7.0
 40
7.0
 40
7.0
 40
8.0
 40
8.0
 40
8.0
 40
9.0
 40
9.0
 40
9.0
 40
9.0
 10
12.6710260378463
 20
25.88940860463874
 30
0.0
 10
12.67185153782524
 20
25.88904811729313
 30
0.0
 10
12.67271584335875
 20
25.8887736046389
 30
0.0
 10
12.67361221905383
 20
25.88851542286228
 30
0.0
 10
13.07782499673051
 20
25.7388783268986
 30
0.0
 10
13.33462218758322
 20
25.202268049255
 30
0.0
 10
13.33875321525561
 20
24.79454097854967
 30
0.0
 10
13.33875321525561
 20
24.79454097854967
 30
0.0
 10
13.33779013194685
 20
24.78427514547824
 30
0.0
 10
13.33213863209103
 20
24.7808814233426
 30
0.0
 10
13.3264906600129
 20
24.77742067343089
 30
0.0
 10
13.31839441021945
 20
24.78217258997632
 30
0.0
 10
13.31839441021945
 20
24.78217258997632
 30
0.0
 10
12.95841644718103
 20
24.97354747398283
 30
0.0
 10
12.60012476187737
 20
25.44878146185861
 30
0.0
 10
12.65366231606707
 20
25.87650686761308
 30
0.0
 10
12.65373287162082
 20
25.87697253426787
 30
0.0
 10
12.65379989939689
 20
25.87740292314578
 30
0.0
 10
12.65393748272671
 20
25.87767808980543
 30
0.0
 10
12.65390573272752
 20
25.87793914535432
 30
0.0
 10
12.65393748272671
 20
25.87816139534865
 30
0.0
 10
12.65393748272671
 20
25.87816139534865
 30
0.0
 10
12.65393748272671
 20
25.87816139534865
 30
0.0
 10
12.65455837159976
 20
25.88553445071611
 30
0.0
 10
12.65924326036913
 20
25.88840958953164
 30
0.0
 10
12.66403398246913
 20
25.89121770057112
 30
0.0
 10
12.6710260378463
 20
25.88940860463874
 30
0.0
 10
12.6710260378463
 20
25.88940860463874
 30
0.0
  0
SPLINE
  5
59
330
4B
100
AcDbEntity
  8
CALQUE_1
 62
     7
100
AcDbSpline
210
0.0
220
0.0
230
1.0
 70
    11
 71
     3
 72
    32
 73
    28
 74
     0
 42
0.0000000001
 43
0.0000000001
 12
1.0
 22
0.0
 32
0.0
 13
1.0
 23
0.0
 33
0.0
 40
0.0
 40
0.0
 40
0.0
 40
0.0
 40
1.0
 40
1.0
 40
1.0
 40
2.0
 40
2.0
 40
2.0
 40
3.0
 40
3.0
 40
3.0
 40
4.0
 40
4.0
 40
4.0
 40
5.0
 40
5.0
 40
5.0
 40
6.0
 40
6.0
 40
6.0
 40
7.0
 40
7.0
 40
7.0
 40
8.0
 40
8.0
 40
8.0
 40
9.0
 40
9.0
 40
9.0
 40
9.0
 10
13.80987028656974
 20
26.41423610450755
 30
0.0
 10
13.81018073100627
 20
26.413374659472
 30
0.0
 10
13.81056173099655
 20
26.41254563171537
 30
0.0
 10
13.81097448098602
 20
26.41172013173643
 30
0.0
 10
13.96865556029657
 20
26.01057300308166
 30
0.0
 10
13.73955814947467
 20
25.46156260042142
 30
0.0
 10
13.43825065716166
 20
25.18685166036994
 30
0.0
 10
13.43825065716166
 20
25.18685166036994
 30
0.0
 10
13.42994626848464
 20
25.18075502425208
 30
0.0
 10
13.42367740753346
 20
25.18268119086961
 30
0.0
 10
13.41730305220125
 20
25.18457913526563
 30
0.0
 10
13.41547885218706
 20
25.19381132947455
 30
0.0
 10
13.41547885218706
 20
25.19381132947455
 30
0.0
 10
13.31835913244257
 20
25.58975498603985
 30
0.0
 10
13.43408082393471
 20
26.17355986003463
 30
0.0
 10
13.78871773155383
 20
26.41861054895089
 30
0.0
 10
13.78913082988604
 20
26.41885329822112
 30
0.0
 10
13.78947620375671
 20
26.41909318710389
 30
0.0
 10
13.78978664819323
 20
26.41916021487996
 30
0.0
 10
13.78995950929993
 20
26.41936835376353
 30
0.0
 10
13.79013237040663
 20
26.41950593709336
 30
0.0
 10
13.79013237040663
 20
26.41950593709336
 30
0.0
 10
13.79013237040663
 20
26.41950593709336
 30
0.0
 10
13.79605550914441
 20
26.42391565920308
 30
0.0
 10
13.80132953678764
 20
26.42236696479814
 30
0.0
 10
13.80660003665318
 20
26.4206771592857
 30
0.0
 10
13.80987028656974
 20
26.41423610450755
 30
0.0
 10
13.80987028656974
 20
26.41423610450755
 30
0.0
  0
SPLINE
  5
5A
330
4B
100
AcDbEntity
  8
CALQUE_1
 62
     7
100
AcDbSpline
210
0.0
220
0.0
230
1.0
 70
    11
 71
     3
 72
    32
 73
    28
 74
     0
 42
0.0000000001
 43
0.0000000001
 12
1.0
 22
0.0
 32
0.0
 13
1.0
 23
0.0
 33
0.0
 40
0.0
 40
0.0
 40
0.0
 40
0.0
 40
1.0
 40
1.0
 40
1.0
 40
2.0
 40
2.0
 40
2.0
 40
3.0
 40
3.0
 40
3.0
 40
4.0
 40
4.0
 40
4.0
 40
5.0
 40
5.0
 40
5.0
 40
6.0
 40
6.0
 40
6.0
 40
7.0
 40
7.0
 40
7.0
 40
8.0
 40
8.0
 40
8.0
 40
9.0
 40
9.0
 40
9.0
 40
9.0
 10
13.10341869348171
 20
27.00339900553034
 30
0.0
 10
13.10403958235476
 20
27.00274283888041
 30
0.0
 10
13.10473102678157
 20
27.00215722778424
 30
0.0
 10
13.10545422120756
 20
27.00157161668807
 30
0.0
 10
13.4172004076987
 20
26.70391537428191
 30
0.0
 10
13.44017682377919
 20
26.10946366722542
 30
0.0
 10
13.28229113336274
 20
25.73351898237212
 30
0.0
 10
13.28229113336274
 20
25.73351898237212
 30
0.0
 10
13.27732755015604
 20
25.72450903815754
 30
0.0
 10
13.27081880032209
 20
25.72361298262485
 30
0.0
 10
13.2642359671567
 20
25.72265054912488
 30
0.0
 10
13.2587255784084
 20
25.7302628435663
 30
0.0
 10
13.2587255784084
 20
25.7302628435663
 30
0.0
 10
13.00413291823693
 20
26.0486588909989
 30
0.0
 10
12.86364269959891
 20
26.62702040402145
 30
0.0
 10
13.08237197179644
 20
26.99847138213926
 30
0.0
 10
13.08264713845609
 20
26.9988517000908
 30
0.0
 10
13.08285174956198
 20
26.99922917230339
 30
0.0
 10
13.08309516622243
 20
26.99940203341009
 30
0.0
 10
13.0831621939985
 20
26.99967720006973
 30
0.0
 10
13.08326802732913
 20
26.99986770006488
 30
0.0
 10
13.08326802732913
 20
26.99986770006488
 30
0.0
 10
13.08326802732913
 20
26.99986770006488
 30
0.0
 10
13.08681344390535
 20
27.00637997767651
 30
0.0
 10
13.09225680487759
 20
27.00718783876701
 30
0.0
 10
13.09773544362671
 20
27.00785811652769
 30
0.0
 10
13.10341869348171
 20
27.00339900553034
 30
0.0
 10
13.10341869348171
 20
27.00339900553034
 30
0.0
  0
SPLINE
  5
5B
330
4B
100
AcDbEntity
  8
CALQUE_1
 62
     7
100
AcDbSpline
210
0.0
220
0.0
230
1.0
 70
    11
 71
     3
 72
    32
 73
    28
 74
     0
 42
0.0000000001
 43
0.0000000001
 12
1.0
 22
0.0
 32
0.0
 13
1.0
 23
0.0
 33
0.0
 40
0.0
 40
0.0
 40
0.0
 40
0.0
 40
1.0
 40
1.0
 40
1.0
 40
2.0
 40
2.0
 40
2.0
 40
3.0
 40
3.0
 40
3.0
 40
4.0
 40
4.0
 40
4.0
 40
5.0
 40
5.0
 40
5.0
 40
6.0
 40
6.0
 40
6.0
 40
7.0
 40
7.0
 40
7.0
 40
8.0
 40
8.0
 40
8.0
 40
9.0
 40
9.0
 40
9.0
 40
9.0
 10
12.5445587355172
 20
27.55139340821651
 30
0.0
 10
12.54524665216631
 20
27.55082543600877
 30
0.0
 10
12.54600512436919
 20
27.55030685268867
 30
0.0
 10
12.54676359657206
 20
27.54982354714544
 30
0.0
 10
12.89230589331209
 20
27.29214760927486
 30
0.0
 10
12.98718194644716
 20
26.70488198536836
 30
0.0
 10
12.87604283817145
 20
26.31257193982147
 30
0.0
 10
12.87604283817145
 20
26.31257193982147
 30
0.0
 10
12.87218697715871
 20
26.3030116622876
 30
0.0
 10
12.86584756065377
 20
26.30133949566359
 30
0.0
 10
12.85940583859589
 20
26.29958332675844
 30
0.0
 10
12.85303114431408
 20
26.30647241219931
 30
0.0
 10
12.85303114431408
 20
26.30647241219931
 30
0.0
 10
12.56171431841286
 20
26.59167559936761
 30
0.0
 10
12.35214668487048
 20
27.14872933515599
 30
0.0
 10
12.52423168048023
 20
27.54394979729529
 30
0.0
 10
12.524471569363
 20
27.54436607506245
 30
0.0
 10
12.52460915269282
 20
27.54476118616348
 30
0.0
 10
12.52485256935328
 20
27.54496579726937
 30
0.0
 10
12.52488431935247
 20
27.54525860281746
 30
0.0
 10
12.52495487490622
 20
27.54543146392416
 30
0.0
 10
12.52495487490622
 20
27.54543146392416
 30
0.0
 10
12.52495487490622
 20
27.54543146392416
 30
0.0
 10
12.5276747915035
 20
27.55233885263683
 30
0.0
 10
12.53298056914591
 20
27.55380288037725
 30
0.0
 10
12.53835721908762
 20
27.55512932478786
 30
0.0
 10
12.5445587355172
 20
27.55139340821651
 30
0.0
 10
12.5445587355172
 20
27.55139340821651
 30
0.0
  0
SPLINE
  5
5C
330
4B
100
AcDbEntity
  8
CALQUE_1
 62
     7
100
AcDbSpline
210
0.0
220
0.0
230
1.0
 70
    11
 71
     3
 72
    32
 73
    28
 74
     0
 42
0.0000000001
 43
0.0000000001
 12
1.0
 22
0.0
 32
0.0
 13
1.0
 23
0.0
 33
0.0
 40
0.0
 40
0.0
 40
0.0
 40
0.0
 40
1.0
 40
1.0
 40
1.0
 40
2.0
 40
2.0
 40
2.0
 40
3.0
 40
3.0
 40
3.0
 40
4.0
 40
4.0
 40
4.0
 40
5.0
 40
5.0
 40
5.0
 40
6.0
 40
6.0
 40
6.0
 40
7.0
 40
7.0
 40
7.0
 40
8.0
 40
8.0
 40
8.0
 40
9.0
 40
9.0
 40
9.0
 40
9.0
 10
11.65579159152487
 20
27.53635449193351
 30
0.0
 10
11.65665236928069
 20
27.53618163082681
 30
0.0
 10
11.65754842481338
 20
27.53606168638543
 30
0.0
 10
11.65844448034608
 20
27.53597701972092
 30
0.0
 10
12.08363694172074
 20
27.46521332708181
 30
0.0
 10
12.43700032159457
 20
26.98665617262415
 30
0.0
 10
12.51792754175217
 20
26.58702246059744
 30
0.0
 10
12.51792754175217
 20
26.58702246059744
 30
0.0
 10
12.51889062506094
 20
26.576756627526
 30
0.0
 10
12.51399759740799
 20
26.57234690541628
 30
0.0
 10
12.50907281975585
 20
26.56787082669135
 30
0.0
 10
12.50025337553641
 20
26.57105573878256
 30
0.0
 10
12.50025337553641
 20
26.57105573878256
 30
0.0
 10
12.11064560769836
 20
26.6911342357191
 30
0.0
 10
11.66919361896073
 20
27.09028464220259
 30
0.0
 10
11.64111603634372
 20
27.52043715900626
 30
0.0
 10
11.6411513141206
 20
27.52092046454949
 30
0.0
 10
11.64108075856684
 20
27.52133321453896
 30
0.0
 10
11.64121834189666
 20
27.52164365897548
 30
0.0
 10
11.64111603634372
 20
27.52191882563513
 30
0.0
 10
11.64108075856684
 20
27.52209168674183
 30
0.0
 10
11.64108075856684
 20
27.52209168674183
 30
0.0
 10
11.64108075856684
 20
27.52209168674183
 30
0.0
 10
11.64035756414085
 20
27.52946474210928
 30
0.0
 10
11.64438628626029
 20
27.53321829756908
 30
0.0
 10
11.64855611948724
 20
27.53683779747674
 30
0.0
 10
11.65579159152487
 20
27.53635449193351
 30
0.0
 10
11.65579159152487
 20
27.53635449193351
 30
0.0
  0
SPLINE
  5
5D
330
4B
100
AcDbEntity
  8
CALQUE_1
 62
     7
100
AcDbSpline
210
0.0
220
0.0
230
1.0
 70
    11
 71
     3
 72
    32
 73
    28
 74
     0
 42
0.0000000001
 43
0.0000000001
 12
1.0
 22
0.0
 32
0.0
 13
1.0
 23
0.0
 33
0.0
 40
0.0
 40
0.0
 40
0.0
 40
0.0
 40
1.0
 40
1.0
 40
1.0
 40
2.0
 40
2.0
 40
2.0
 40
3.0
 40
3.0
 40
3.0
 40
4.0
 40
4.0
 40
4.0
 40
5.0
 40
5.0
 40
5.0
 40
6.0
 40
6.0
 40
6.0
 40
7.0
 40
7.0
 40
7.0
 40
8.0
 40
8.0
 40
8.0
 40
9.0
 40
9.0
 40
9.0
 40
9.0
 10
11.89322866880068
 20
26.60533582668201
 30
0.0
 10
11.8940894465565
 20
26.60540218235075
 30
0.0
 10
11.89498550208919
 20
26.60552565456982
 30
0.0
 10
11.89588155762189
 20
26.60568087678809
 30
0.0
 10
12.3241749355841
 20
26.6541349033297
 30
0.0
 10
12.79511914579154
 20
26.29069332676064
 30
0.0
 10
12.98243002990173
 20
25.9285098385086
 30
0.0
 10
12.98243002990173
 20
25.9285098385086
 30
0.0
 10
12.98618358536152
 20
25.9189008268536
 30
0.0
 10
12.9826699187845
 20
25.91331922778503
 30
0.0
 10
12.97915625220747
 20
25.90766772792922
 30
0.0
 10
12.96981822466793
 20
25.90832389457914
 30
0.0
 10
12.96981822466793
 20
25.90832389457914
 30
0.0
 10
12.56219762395608
 20
25.91707278324483
 30
0.0
 10
12.028311108104
 20
26.1800051098702
 30
0.0
 10
11.88344261349479
 20
26.58600646062336
 30
0.0
 10
11.88337558571872
 20
26.58648976616658
 30
0.0
 10
11.88316744683514
 20
26.58687076615686
 30
0.0
 10
11.88323800238889
 20
26.5871776828157
 30
0.0
 10
11.88302986350532
 20
26.58743873836459
 30
0.0
 10
11.88295930795156
 20
26.58759396058285
 30
0.0
 10
11.88295930795156
 20
26.58759396058285
 30
0.0
 10
11.88295930795156
 20
26.58759396058285
 30
0.0
 10
11.88027466913116
 20
26.59448371040708
 30
0.0
 10
11.88310041905907
 20
26.59920387695333
 30
0.0
 10
11.88613078009287
 20
26.60381888223792
 30
0.0
 10
11.89322866880068
 20
26.60533582668201
 30
0.0
 10
11.89322866880068
 20
26.60533582668201
 30
0.0
  0
ENDBLK
  5
4E
330
4B
100
AcDbEntity
  8
0
100
AcDbBlockEnd
  0
BLOCK
  5
60
330
5E
100
AcDbEntity
  8
0
100
AcDbBlockBegin
  2
BLOCK_4
 70
     0
 10
0.0
 20
0.0
 30
0.0
  3
BLOCK_4
  1

  0
SPLINE
  5
62
330
5E
100
AcDbEntity
  8
CALQUE_1
 62
     7
100
AcDbSpline
210
0.0
220
0.0
230
1.0
 70
    11
 71
     3
 72
    32
 73
    28
 74
     0
 42
0.0000000001
 43
0.0000000001
 12
1.0
 22
0.0
 32
0.0
 13
1.0
 23
0.0
 33
0.0
 40
0.0
 40
0.0
 40
0.0
 40
0.0
 40
1.0
 40
1.0
 40
1.0
 40
2.0
 40
2.0
 40
2.0
 40
3.0
 40
3.0
 40
3.0
 40
4.0
 40
4.0
 40
4.0
 40
5.0
 40
5.0
 40
5.0
 40
6.0
 40
6.0
 40
6.0
 40
7.0
 40
7.0
 40
7.0
 40
8.0
 40
8.0
 40
8.0
 40
9.0
 40
9.0
 40
9.0
 40
9.0
 10
7.837695438932619
 20
22.22510173854597
 30
0.0
 10
7.838418633358613
 20
22.22448437745061
 30
0.0
 10
7.839106550007729
 20
22.22393051635363
 30
0.0
 10
7.839829744433723
 20
22.22330962748058
 30
0.0
 10
8.17831295802052
 20
21.95652143984247
 30
0.0
 10
8.770143526254998
 20
22.01743204939962
 30
0.0
 10
9.120028517328688
 20
22.22668923850547
 30
0.0
 10
9.120028517328688
 20
22.22668923850547
 30
0.0
 10
9.128297628228836
 20
22.23280287723838
 30
0.0
 10
9.128297628228836
 20
22.23941746040297
 30
0.0
 10
9.128297628228836
 20
22.24603204356755
 30
0.0
 10
9.120028517328688
 20
22.25045940456571
 30
0.0
 10
9.120028517328688
 20
22.25045940456571
 30
0.0
 10
8.768940554063466
 20
22.45771634372259
 30
0.0
 10
8.176587874731197
 20
22.51538492558467
 30
0.0
 10
7.839625133327833
 20
22.24653298799921
 30
0.0
 10
7.839279411114431
 20
22.24628957133876
 30
0.0
 10
7.838969164706936
 20
22.24601440467911
 30
0.0
 10
7.838729077795137
 20
22.24579215468478
 30
0.0
 10
7.838489188912368
 20
22.2455840158012
 30
0.0
 10
7.838316327805668
 20
22.24542879358294
 30
0.0
 10
7.838316327805668
 20
22.24542879358294
 30
0.0
 10
7.838316327805668
 20
22.24542879358294
 30
0.0
 10
7.832389661290203
 20
22.24107198813854
 30
0.0
 10
7.832389661290203
 20
22.23555807161254
 30
0.0
 10
7.832389661290203
 20
22.23004768286423
 30
0.0
 10
7.837695438932619
 20
22.22510173854597
 30
0.0
 10
7.837695438932619
 20
22.22510173854597
 30
0.0
  0
SPLINE
  5
63
330
5E
100
AcDbEntity
  8
CALQUE_1
 62
     7
100
AcDbSpline
210
0.0
220
0.0
230
1.0
 70
    11
 71
     3
 72
    32
 73
    28
 74
     0
 42
0.0000000001
 43
0.0000000001
 12
1.0
 22
0.0
 32
0.0
 13
1.0
 23
0.0
 33
0.0
 40
0.0
 40
0.0
 40
0.0
 40
0.0
 40
1.0
 40
1.0
 40
1.0
 40
2.0
 40
2.0
 40
2.0
 40
3.0
 40
3.0
 40
3.0
 40
4.0
 40
4.0
 40
4.0
 40
5.0
 40
5.0
 40
5.0
 40
6.0
 40
6.0
 40
6.0
 40
7.0
 40
7.0
 40
7.0
 40
8.0
 40
8.0
 40
8.0
 40
9.0
 40
9.0
 40
9.0
 40
9.0
 10
8.832260635781369
 20
22.89849805469953
 30
0.0
 10
8.832327663557436
 20
22.89755261027921
 30
0.0
 10
8.832398219111193
 20
22.89667419363495
 30
0.0
 10
8.83246524688726
 20
22.89572522143694
 30
0.0
 10
8.88014669011525
 20
22.46737892680941
 30
0.0
 10
9.339032956185862
 20
22.08871079758115
 30
0.0
 10
9.733703330899912
 20
21.98647932796707
 30
0.0
 10
9.733703330899912
 20
21.98647932796707
 30
0.0
 10
9.743866612524362
 20
21.98489182800757
 30
0.0
 10
9.748586779070608
 20
21.98952732788931
 30
0.0
 10
9.753271667839975
 20
21.99417749450146
 30
0.0
 10
9.750654056795645
 20
22.00316924420794
 30
0.0
 10
9.750654056795645
 20
22.00316924420794
 30
0.0
 10
9.651710475986572
 20
22.39868251189533
 30
0.0
 10
9.276884096660302
 20
22.86099777787847
 30
0.0
 10
8.848866108898887
 20
22.9121576099066
 30
0.0
 10
8.848453135368263
 20
22.91224638316082
 30
0.0
 10
8.848036857601105
 20
22.91225991545955
 30
0.0
 10
8.847694663165392
 20
22.91227755434799
 30
0.0
 10
8.847384442232611
 20
22.91231283212487
 30
0.0
 10
8.847144329846099
 20
22.91231283212487
 30
0.0
 10
8.847144329846099
 20
22.91231283212487
 30
0.0
 10
8.847144329846099
 20
22.91231283212487
 30
0.0
 10
8.839908857808469
 20
22.91348405431721
 30
0.0
 10
8.835982441241974
 20
22.90961055441603
 30
0.0
 10
8.83205249689779
 20
22.90573352673716
 30
0.0
 10
8.832260635781369
 20
22.89849805469953
 30
0.0
 10
8.832260635781369
 20
22.89849805469953
 30
0.0
  0
SPLINE
  5
64
330
5E
100
AcDbEntity
  8
CALQUE_1
 62
     7
100
AcDbSpline
210
0.0
220
0.0
230
1.0
 70
    11
 71
     3
 72
    50
 73
    46
 74
     0
 42
0.0000000001
 43
0.0000000001
 12
1.0
 22
0.0
 32
0.0
 13
1.0
 23
0.0
 33
0.0
 40
0.0
 40
0.0
 40
0.0
 40
0.0
 40
1.0
 40
1.0
 40
1.0
 40
2.0
 40
2.0
 40
2.0
 40
3.0
 40
3.0
 40
3.0
 40
4.0
 40
4.0
 40
4.0
 40
5.0
 40
5.0
 40
5.0
 40
6.0
 40
6.0
 40
6.0
 40
7.0
 40
7.0
 40
7.0
 40
8.0
 40
8.0
 40
8.0
 40
9.0
 40
9.0
 40
9.0
 40
10.0
 40
10.0
 40
10.0
 40
11.0
 40
11.0
 40
11.0
 40
12.0
 40
12.0
 40
12.0
 40
13.0
 40
13.0
 40
13.0
 40
14.0
 40
14.0
 40
14.0
 40
15.0
 40
15.0
 40
15.0
 40
15.0
 10
8.417436313031086
 20
21.79294897179333
 30
0.0
 10
8.417951368573501
 20
21.7935527723294
 30
0.0
 10
8.418607535223428
 20
21.7940531662096
 30
0.0
 10
8.419193146319598
 20
21.79467405508265
 30
0.0
 10
8.707306750080319
 20
22.07352018685758
 30
0.0
 10
9.242191930878706
 20
22.09225974193505
 30
0.0
 10
9.61267914364901
 20
21.95452527228913
 30
0.0
 10
9.624218504465729
 20
21.95087346776434
 30
0.0
 10
9.65997958688672
 20
21.93969394027177
 30
0.0
 10
9.709072141189822
 20
21.9248808017608
 30
0.0
 10
9.822105666083873
 20
21.89170205260726
 30
0.0
 10
10.07177027525983
 20
21.82006347110158
 30
0.0
 10
10.07177027525983
 20
21.82006347110158
 30
0.0
 10
10.91843694171483
 20
21.59957736561554
 30
0.0
 10
11.29915471939741
 20
21.08658610583945
 30
0.0
 10
11.29915471939741
 20
21.08658610583945
 30
0.0
 10
11.29915471939741
 20
21.08658610583945
 30
0.0
 10
11.3418055527201
 20
21.03807916140713
 30
0.0
 10
11.30945583050599
 20
21.00426488080322
 30
0.0
 10
11.27710610829181
 20
20.97045166142406
 30
0.0
 10
11.19921277497799
 20
20.90284127227964
 30
0.0
 10
11.19921277497799
 20
20.90284127227964
 30
0.0
 10
11.19921277497799
 20
20.90284127227964
 30
0.0
 10
11.14629610832456
 20
20.86020860589606
 30
0.0
 10
11.09927083055852
 20
20.93370932704769
 30
0.0
 10
11.05228083057025
 20
21.00714055030377
 30
0.0
 10
10.78955636362437
 20
21.58956906031532
 30
0.0
 10
9.813011055204786
 20
21.80469647149362
 30
0.0
 10
9.813011055204786
 20
21.80469647149362
 30
0.0
 10
9.813011055204786
 20
21.80466527232661
 30
0.0
 10
9.813011055204786
 20
21.80466527232661
 30
0.0
 10
9.708243113433193
 20
21.81911449890357
 30
0.0
 10
9.610403727040396
 20
21.79701649946733
 30
0.0
 10
9.38333831616665
 20
21.73307552887638
 30
0.0
 10
9.068491213087958
 20
21.61780186515059
 30
0.0
 10
8.686221222840478
 20
21.60126364335029
 30
0.0
 10
8.421606146258037
 20
21.7716588334476
 30
0.0
 10
8.420879424054355
 20
21.77207158343706
 30
0.0
 10
8.420124479629171
 20
21.77262544453405
 30
0.0
 10
8.4193660074263
 20
21.77310522229958
 30
0.0
 10
8.416469701944635
 20
21.77544766668427
 30
0.0
 10
8.414575285326299
 20
21.7787567221554
 30
0.0
 10
8.414162535336828
 20
21.78254610566546
 30
0.0
 10
8.413785275674337
 20
21.7864049441825
 30
0.0
 10
8.415093868646402
 20
21.79012674964311
 30
0.0
 10
8.417436313031086
 20
21.79294897179333
 30
0.0
  0
SPLINE
  5
65
330
5E
100
AcDbEntity
  8
CALQUE_1
 62
     7
100
AcDbSpline
210
0.0
220
0.0
230
1.0
 70
    11
 71
     3
 72
    32
 73
    28
 74
     0
 42
0.0000000001
 43
0.0000000001
 12
1.0
 22
0.0
 32
0.0
 13
1.0
 23
0.0
 33
0.0
 40
0.0
 40
0.0
 40
0.0
 40
0.0
 40
1.0
 40
1.0
 40
1.0
 40
2.0
 40
2.0
 40
2.0
 40
3.0
 40
3.0
 40
3.0
 40
4.0
 40
4.0
 40
4.0
 40
5.0
 40
5.0
 40
5.0
 40
6.0
 40
6.0
 40
6.0
 40
7.0
 40
7.0
 40
7.0
 40
8.0
 40
8.0
 40
8.0
 40
9.0
 40
9.0
 40
9.0
 40
9.0
 10
7.167347122701296
 20
22.95520355325285
 30
0.0
 10
7.167900983798277
 20
22.95444508104998
 30
0.0
 10
7.168380761563815
 20
22.9536901366248
 30
0.0
 10
7.168899344883918
 20
22.95289638664505
 30
0.0
 10
7.419805477371658
 20
22.60246106225206
 30
0.0
 10
8.005194323548254
 20
22.49631728718224
 30
0.0
 10
8.399522257932556
 20
22.59994575676068
 30
0.0
 10
8.399522257932556
 20
22.59994575676068
 30
0.0
 10
8.409167202130938
 20
22.60356582768243
 30
0.0
 10
8.410994590973205
 20
22.60986939539639
 30
0.0
 10
8.412818452037786
 20
22.61624056190052
 30
0.0
 10
8.406136841097137
 20
22.62282339506591
 30
0.0
 10
8.406136841097137
 20
22.62282339506591
 30
0.0
 10
8.126532237119333
 20
22.919548883159
 30
0.0
 10
7.573627167891784
 20
23.13975924298889
 30
0.0
 10
7.175168205835097
 20
22.97525544163017
 30
0.0
 10
7.174755455845627
 20
22.97511785830035
 30
0.0
 10
7.174377983633034
 20
22.97494499719365
 30
0.0
 10
7.174102816973388
 20
22.97477213608695
 30
0.0
 10
7.173824122536054
 20
22.974669830534
 30
0.0
 10
7.173619511430163
 20
22.97456752498106
 30
0.0
 10
7.173619511430163
 20
22.97456752498106
 30
0.0
 10
7.173619511430163
 20
22.97456752498106
 30
0.0
 10
7.166694483829057
 20
22.9720169417128
 30
0.0
 10
7.165177539423313
 20
22.96674644184726
 30
0.0
 10
7.163664122795257
 20
22.96140538642797
 30
0.0
 10
7.167347122701296
 20
22.95520355325285
 30
0.0
 10
7.167347122701296
 20
22.95520355325285
 30
0.0
  0
SPLINE
  5
66
330
5E
100
AcDbEntity
  8
CALQUE_1
 62
     7
100
AcDbSpline
210
0.0
220
0.0
230
1.0
 70
    11
 71
     3
 72
    32
 73
    28
 74
     0
 42
0.0000000001
 43
0.0000000001
 12
1.0
 22
0.0
 32
0.0
 13
1.0
 23
0.0
 33
0.0
 40
0.0
 40
0.0
 40
0.0
 40
0.0
 40
1.0
 40
1.0
 40
1.0
 40
2.0
 40
2.0
 40
2.0
 40
3.0
 40
3.0
 40
3.0
 40
4.0
 40
4.0
 40
4.0
 40
5.0
 40
5.0
 40
5.0
 40
6.0
 40
6.0
 40
6.0
 40
7.0
 40
7.0
 40
7.0
 40
8.0
 40
8.0
 40
8.0
 40
9.0
 40
9.0
 40
9.0
 40
9.0
 10
7.154290817478834
 20
23.83859436404901
 30
0.0
 10
7.154498956362414
 20
23.837701836294
 30
0.0
 10
7.154636539692237
 20
23.83678814187287
 30
0.0
 10
7.15477412302206
 20
23.83587444745173
 30
0.0
 10
7.239179731979805
 20
23.41319729156846
 30
0.0
 10
7.729001080594532
 20
23.07550782796141
 30
0.0
 10
8.13101251478281
 20
23.00764044080397
 30
0.0
 10
8.13101251478281
 20
23.00764044080397
 30
0.0
 10
8.141310097853431
 20
23.00694899637716
 30
0.0
 10
8.145550486634137
 20
23.01194432958305
 30
0.0
 10
8.149854375413225
 20
23.0170102183427
 30
0.0
 10
8.146446542166833
 20
23.02575910700839
 30
0.0
 10
8.146446542166833
 20
23.02575910700839
 30
0.0
 10
8.013773878884928
 20
23.41126759717325
 30
0.0
 10
7.600533528316457
 20
23.83956097513546
 30
0.0
 10
7.169693094863668
 20
23.85365091922044
 30
0.0
 10
7.16924506709732
 20
23.85368619699732
 30
0.0
 10
7.168828789330162
 20
23.85368619699732
 30
0.0
 10
7.168518344893638
 20
23.85365091922044
 30
0.0
 10
7.168243178233991
 20
23.85366916070326
 30
0.0
 10
7.168003289351223
 20
23.85366916070326
 30
0.0
 10
7.168003289351223
 20
23.85366916070326
 30
0.0
 10
7.168003289351223
 20
23.85366916070326
 30
0.0
 10
7.16063023398377
 20
23.85418361365129
 30
0.0
 10
7.157081289629866
 20
23.85000027181528
 30
0.0
 10
7.153500595276772
 20
23.84576280831057
 30
0.0
 10
7.154290817478834
 20
23.83859436404901
 30
0.0
 10
7.154290817478834
 20
23.83859436404901
 30
0.0
  0
SPLINE
  5
67
330
5E
100
AcDbEntity
  8
CALQUE_1
 62
     7
100
AcDbSpline
210
0.0
220
0.0
230
1.0
 70
    11
 71
     3
 72
    32
 73
    28
 74
     0
 42
0.0000000001
 43
0.0000000001
 12
1.0
 22
0.0
 32
0.0
 13
1.0
 23
0.0
 33
0.0
 40
0.0
 40
0.0
 40
0.0
 40
0.0
 40
1.0
 40
1.0
 40
1.0
 40
2.0
 40
2.0
 40
2.0
 40
3.0
 40
3.0
 40
3.0
 40
4.0
 40
4.0
 40
4.0
 40
5.0
 40
5.0
 40
5.0
 40
6.0
 40
6.0
 40
6.0
 40
7.0
 40
7.0
 40
7.0
 40
8.0
 40
8.0
 40
8.0
 40
9.0
 40
9.0
 40
9.0
 40
9.0
 10
8.149579208753579
 20
23.80758872595114
 30
0.0
 10
8.149374597647688
 20
23.806679160715
 30
0.0
 10
8.149064153211164
 20
23.80580014266344
 30
0.0
 10
8.148788986551518
 20
23.80492172601918
 30
0.0
 10
8.036820850519174
 20
23.38870040330454
 30
0.0
 10
8.325865787589466
 20
22.86869891657088
 30
0.0
 10
8.655974056945482
 20
22.62943797823049
 30
0.0
 10
8.655974056945482
 20
22.62943797823049
 30
0.0
 10
8.664895806717867
 20
22.62423450614102
 30
0.0
 10
8.670924997832266
 20
22.62685211718535
 30
0.0
 10
8.677024306408445
 20
22.62946972822968
 30
0.0
 10
8.677849806387384
 20
22.63884360545139
 30
0.0
 10
8.677849806387384
 20
22.63884360545139
 30
0.0
 10
8.730078555054918
 20
23.04317574545294
 30
0.0
 10
8.549900837429412
 20
23.61037536987136
 30
0.0
 10
8.170043847120372
 20
23.8142385868926
 30
0.0
 10
8.169666374907779
 20
23.81446436466462
 30
0.0
 10
8.169285374917498
 20
23.81465193849077
 30
0.0
 10
8.169010208257852
 20
23.8147577718241
 30
0.0
 10
8.168770319375083
 20
23.81489475354253
 30
0.0
 10
8.168562180491504
 20
23.81499705909547
 30
0.0
 10
8.168562180491504
 20
23.81499705909547
 30
0.0
 10
8.168562180491504
 20
23.81499705909547
 30
0.0
 10
8.162187486209692
 20
23.81873650344452
 30
0.0
 10
8.15716040300461
 20
23.81654575350041
 30
0.0
 10
8.152059442406442
 20
23.81435853133398
 30
0.0
 10
8.149579208753579
 20
23.80758872595114
 30
0.0
 10
8.149579208753579
 20
23.80758872595114
 30
0.0
  0
SPLINE
  5
68
330
5E
100
AcDbEntity
  8
CALQUE_1
 62
     7
100
AcDbSpline
210
0.0
220
0.0
230
1.0
 70
    11
 71
     3
 72
    32
 73
    28
 74
     0
 42
0.0000000001
 43
0.0000000001
 12
1.0
 22
0.0
 32
0.0
 13
1.0
 23
0.0
 33
0.0
 40
0.0
 40
0.0
 40
0.0
 40
0.0
 40
1.0
 40
1.0
 40
1.0
 40
2.0
 40
2.0
 40
2.0
 40
3.0
 40
3.0
 40
3.0
 40
4.0
 40
4.0
 40
4.0
 40
5.0
 40
5.0
 40
5.0
 40
6.0
 40
6.0
 40
6.0
 40
7.0
 40
7.0
 40
7.0
 40
8.0
 40
8.0
 40
8.0
 40
9.0
 40
9.0
 40
9.0
 40
9.0
 10
7.89298982641083
 20
24.86208443822894
 30
0.0
 10
7.892439493091537
 20
24.86134360489577
 30
0.0
 10
7.891818604218488
 20
24.8606515324186
 30
0.0
 10
7.89119771534544
 20
24.85996361576949
 30
0.0
 10
7.621548500002542
 20
24.52370642990368
 30
0.0
 10
7.677534331907558
 20
23.93140666723673
 30
0.0
 10
7.883789382201109
 20
23.57973309287533
 30
0.0
 10
7.883789382201109
 20
23.57973309287533
 30
0.0
 10
7.889888909823275
 20
23.57139342642143
 30
0.0
 10
7.8964329374341
 20
23.57137638299604
 30
0.0
 10
7.903118076152437
 20
23.57132639864536
 30
0.0
 10
7.907630103815103
 20
23.57957787065707
 30
0.0
 10
7.907630103815103
 20
23.57957787065707
 30
0.0
 10
8.117783348453647
 20
23.92892663952222
 30
0.0
 10
8.180482541298502
 20
24.52076073553438
 30
0.0
 10
7.914417548086385
 20
24.85996361576949
 30
0.0
 10
7.914177659203617
 20
24.86032344909364
 30
0.0
 10
7.913867214767093
 20
24.8606515324186
 30
0.0
 10
7.913659075883514
 20
24.86084203241374
 30
0.0
 10
7.913521492553691
 20
24.86106428240807
 30
0.0
 10
7.913383909223867
 20
24.86123777156247
 30
0.0
 10
7.913383909223867
 20
24.86123777156247
 30
0.0
 10
7.913383909223867
 20
24.86123777156247
 30
0.0
 10
7.909044742667902
 20
24.86723083780631
 30
0.0
 10
7.903530826141907
 20
24.86726611558318
 30
0.0
 10
7.8980204373936
 20
24.86728375447163
 30
0.0
 10
7.89298982641083
 20
24.86208443822894
 30
0.0
 10
7.89298982641083
 20
24.86208443822894
 30
0.0
  0
SPLINE
  5
69
330
5E
100
AcDbEntity
  8
CALQUE_1
 62
     7
100
AcDbSpline
210
0.0
220
0.0
230
1.0
 70
    11
 71
     3
 72
    32
 73
    28
 74
     0
 42
0.0000000001
 43
0.0000000001
 12
1.0
 22
0.0
 32
0.0
 13
1.0
 23
0.0
 33
0.0
 40
0.0
 40
0.0
 40
0.0
 40
0.0
 40
1.0
 40
1.0
 40
1.0
 40
2.0
 40
2.0
 40
2.0
 40
3.0
 40
3.0
 40
3.0
 40
4.0
 40
4.0
 40
4.0
 40
5.0
 40
5.0
 40
5.0
 40
6.0
 40
6.0
 40
6.0
 40
7.0
 40
7.0
 40
7.0
 40
8.0
 40
8.0
 40
8.0
 40
9.0
 40
9.0
 40
9.0
 40
9.0
 10
6.70467202339401
 20
24.74327884096859
 30
0.0
 10
6.704809606723833
 20
24.74238278543589
 30
0.0
 10
6.704880162277589
 20
24.74148672990319
 30
0.0
 10
6.704947190053656
 20
24.74055539659362
 30
0.0
 10
6.758830466456757
 20
24.31291818528133
 30
0.0
 10
7.223089720416442
 20
23.94091402810528
 30
0.0
 10
7.619206055617859
 20
23.84431641945858
 30
0.0
 10
7.619206055617859
 20
23.84431641945858
 30
0.0
 10
7.629440138690098
 20
23.84290178060579
 30
0.0
 10
7.63402272190652
 20
23.84762194715203
 30
0.0
 10
7.638707610675888
 20
23.85237739147515
 30
0.0
 10
7.635917138524857
 20
23.86133441902442
 30
0.0
 10
7.635917138524857
 20
23.86133441902442
 30
0.0
 10
7.531290307860776
 20
24.25538365897139
 30
0.0
 10
7.149881095369113
 20
24.71223792509384
 30
0.0
 10
6.721139689640552
 20
24.75723120172374
 30
0.0
 10
6.720691661874204
 20
24.75729822949981
 30
0.0
 10
6.720243634107856
 20
24.75733350727669
 30
0.0
 10
6.71996846744821
 20
24.75726647950062
 30
0.0
 10
6.719693300788563
 20
24.75733350727669
 30
0.0
 10
6.719485161904984
 20
24.75736878505356
 30
0.0
 10
6.719485161904984
 20
24.75736878505356
 30
0.0
 10
6.719485161904984
 20
24.75736878505356
 30
0.0
 10
6.712182662091286
 20
24.75843832714373
 30
0.0
 10
6.708291523301669
 20
24.75450775734878
 30
0.0
 10
6.704467412288119
 20
24.75051431300622
 30
0.0
 10
6.70467202339401
 20
24.74327884096859
 30
0.0
 10
6.70467202339401
 20
24.74327884096859
 30
0.0
  0
SPLINE
  5
6A
330
5E
100
AcDbEntity
  8
CALQUE_1
 62
     7
100
AcDbSpline
210
0.0
220
0.0
230
1.0
 70
    11
 71
     3
 72
    32
 73
    28
 74
     0
 42
0.0000000001
 43
0.0000000001
 12
1.0
 22
0.0
 32
0.0
 13
1.0
 23
0.0
 33
0.0
 40
0.0
 40
0.0
 40
0.0
 40
0.0
 40
1.0
 40
1.0
 40
1.0
 40
2.0
 40
2.0
 40
2.0
 40
3.0
 40
3.0
 40
3.0
 40
4.0
 40
4.0
 40
4.0
 40
5.0
 40
5.0
 40
5.0
 40
6.0
 40
6.0
 40
6.0
 40
7.0
 40
7.0
 40
7.0
 40
8.0
 40
8.0
 40
8.0
 40
9.0
 40
9.0
 40
9.0
 40
9.0
 10
6.917612212405897
 20
25.51351618242931
 30
0.0
 10
6.917509906852952
 20
25.51262012689661
 30
0.0
 10
6.917305295747061
 20
25.51175999362205
 30
0.0
 10
6.917097156863482
 20
25.51084565471966
 30
0.0
 10
6.842615186541454
 20
25.08632347110568
 30
0.0
 10
7.176685150240841
 20
24.59405384477563
 30
0.0
 10
7.526774752420422
 20
24.38504007233024
 30
0.0
 10
7.526774752420422
 20
24.38504007233024
 30
0.0
 10
7.536112779959967
 20
24.38068388279371
 30
0.0
 10
7.541898335367921
 20
24.38383357236102
 30
0.0
 10
7.54775444632963
 20
24.38700504450233
 30
0.0
 10
7.54772269633044
 20
24.39637482204107
 30
0.0
 10
7.54772269633044
 20
24.39637482204107
 30
0.0
 10
7.56384464036358
 20
24.80375553387014
 30
0.0
 10
7.333918201785047
 20
25.35269890875432
 30
0.0
 10
6.937491239676519
 20
25.52200754332378
 30
0.0
 10
6.93707848968705
 20
25.52219804331892
 30
0.0
 10
6.936665739697579
 20
25.52237090442562
 30
0.0
 10
6.936355295261055
 20
25.52238501553638
 30
0.0
 10
6.936147156377476
 20
25.52254023775464
 30
0.0
 10
6.935942545271585
 20
25.52262843219683
 30
0.0
 10
6.935942545271585
 20
25.52262843219683
 30
0.0
 10
6.935942545271585
 20
25.52262843219683
 30
0.0
 10
6.929257406553249
 20
25.52579637656046
 30
0.0
 10
6.924399656677179
 20
25.52319640440457
 30
0.0
 10
6.919577184577989
 20
25.52049059891804
 30
0.0
 10
6.917612212405897
 20
25.51351618242931
 30
0.0
 10
6.917612212405897
 20
25.51351618242931
 30
0.0
  0
SPLINE
  5
6B
330
5E
100
AcDbEntity
  8
CALQUE_1
 62
     7
100
AcDbSpline
210
0.0
220
0.0
230
1.0
 70
    11
 71
     3
 72
    32
 73
    28
 74
     0
 42
0.0000000001
 43
0.0000000001
 12
1.0
 22
0.0
 32
0.0
 13
1.0
 23
0.0
 33
0.0
 40
0.0
 40
0.0
 40
0.0
 40
0.0
 40
1.0
 40
1.0
 40
1.0
 40
2.0
 40
2.0
 40
2.0
 40
3.0
 40
3.0
 40
3.0
 40
4.0
 40
4.0
 40
4.0
 40
5.0
 40
5.0
 40
5.0
 40
6.0
 40
6.0
 40
6.0
 40
7.0
 40
7.0
 40
7.0
 40
8.0
 40
8.0
 40
8.0
 40
9.0
 40
9.0
 40
9.0
 40
9.0
 10
8.260443150369648
 20
25.88940860463874
 30
0.0
 10
8.259617650390709
 20
25.88904811729313
 30
0.0
 10
8.258753344857203
 20
25.8887736046389
 30
0.0
 10
8.257860817102197
 20
25.88851542286228
 30
0.0
 10
7.853644720258796
 20
25.7388783268986
 30
0.0
 10
7.596850528410418
 20
25.202268049255
 30
0.0
 10
7.592715972960344
 20
24.79454097854967
 30
0.0
 10
7.592715972960344
 20
24.79454097854967
 30
0.0
 10
7.593679056269107
 20
24.78427514547824
 30
0.0
 10
7.599330556124925
 20
24.7808814233426
 30
0.0
 10
7.604978528203056
 20
24.77742067343089
 30
0.0
 10
7.613074777996503
 20
24.78217258997632
 30
0.0
 10
7.613074777996503
 20
24.78217258997632
 30
0.0
 10
7.973052741034921
 20
24.97354747398283
 30
0.0
 10
8.331344426338584
 20
25.44878146185861
 30
0.0
 10
8.277806872148885
 20
25.87650686761308
 30
0.0
 10
8.27773631659513
 20
25.87697253426787
 30
0.0
 10
8.277669288819062
 20
25.87740292314578
 30
0.0
 10
8.277531705489238
 20
25.87767808980543
 30
0.0
 10
8.277563455488428
 20
25.87793914535432
 30
0.0
 10
8.277531705489238
 20
25.87816139534865
 30
0.0
 10
8.277531705489238
 20
25.87816139534865
 30
0.0
 10
8.277531705489238
 20
25.87816139534865
 30
0.0
 10
8.27691081661619
 20
25.88553445071611
 30
0.0
 10
8.272225927846822
 20
25.88840958953164
 30
0.0
 10
8.267435205746821
 20
25.89121770057112
 30
0.0
 10
8.260443150369648
 20
25.88940860463874
 30
0.0
 10
8.260443150369648
 20
25.88940860463874
 30
0.0
  0
SPLINE
  5
6C
330
5E
100
AcDbEntity
  8
CALQUE_1
 62
     7
100
AcDbSpline
210
0.0
220
0.0
230
1.0
 70
    11
 71
     3
 72
    32
 73
    28
 74
     0
 42
0.0000000001
 43
0.0000000001
 12
1.0
 22
0.0
 32
0.0
 13
1.0
 23
0.0
 33
0.0
 40
0.0
 40
0.0
 40
0.0
 40
0.0
 40
1.0
 40
1.0
 40
1.0
 40
2.0
 40
2.0
 40
2.0
 40
3.0
 40
3.0
 40
3.0
 40
4.0
 40
4.0
 40
4.0
 40
5.0
 40
5.0
 40
5.0
 40
6.0
 40
6.0
 40
6.0
 40
7.0
 40
7.0
 40
7.0
 40
8.0
 40
8.0
 40
8.0
 40
9.0
 40
9.0
 40
9.0
 40
9.0
 10
7.121598901646208
 20
26.41423610450755
 30
0.0
 10
7.121288457209683
 20
26.413374659472
 30
0.0
 10
7.120907457219404
 20
26.41254563171537
 30
0.0
 10
7.120494707229934
 20
26.41172013173643
 30
0.0
 10
6.96281362791938
 20
26.01057300308166
 30
0.0
 10
7.191911038741285
 20
25.46156260042142
 30
0.0
 10
7.493222058831978
 20
25.18685166036994
 30
0.0
 10
7.493222058831978
 20
25.18685166036994
 30
0.0
 10
7.501522919731316
 20
25.18075502425208
 30
0.0
 10
7.507791780682496
 20
25.18268119086961
 30
0.0
 10
7.514166664788124
 20
25.18457913526563
 30
0.0
 10
7.515993863806576
 20
25.19381132947455
 30
0.0
 10
7.515993863806576
 20
25.19381132947455
 30
0.0
 10
7.61311005577338
 20
25.58975498603985
 30
0.0
 10
7.497388364281242
 20
26.17355986003463
 30
0.0
 10
7.142751456662117
 20
26.41861054895089
 30
0.0
 10
7.142338887103305
 20
26.41885329822112
 30
0.0
 10
7.141992984459245
 20
26.41909318710389
 30
0.0
 10
7.14168254002272
 20
26.41916021487996
 30
0.0
 10
7.14150967891602
 20
26.41936835376353
 30
0.0
 10
7.141336817809319
 20
26.41950593709336
 30
0.0
 10
7.141336817809319
 20
26.41950593709336
 30
0.0
 10
7.141336817809319
 20
26.41950593709336
 30
0.0
 10
7.135413679071542
 20
26.42391565920308
 30
0.0
 10
7.130143179206003
 20
26.42236696479814
 30
0.0
 10
7.124869151562777
 20
26.4206771592857
 30
0.0
 10
7.121598901646208
 20
26.41423610450755
 30
0.0
 10
7.121598901646208
 20
26.41423610450755
 30
0.0
  0
SPLINE
  5
6D
330
5E
100
AcDbEntity
  8
CALQUE_1
 62
     7
100
AcDbSpline
210
0.0
220
0.0
230
1.0
 70
    11
 71
     3
 72
    32
 73
    28
 74
     0
 42
0.0000000001
 43
0.0000000001
 12
1.0
 22
0.0
 32
0.0
 13
1.0
 23
0.0
 33
0.0
 40
0.0
 40
0.0
 40
0.0
 40
0.0
 40
1.0
 40
1.0
 40
1.0
 40
2.0
 40
2.0
 40
2.0
 40
3.0
 40
3.0
 40
3.0
 40
4.0
 40
4.0
 40
4.0
 40
5.0
 40
5.0
 40
5.0
 40
6.0
 40
6.0
 40
6.0
 40
7.0
 40
7.0
 40
7.0
 40
8.0
 40
8.0
 40
8.0
 40
9.0
 40
9.0
 40
9.0
 40
9.0
 10
7.828050494734238
 20
27.00339900553034
 30
0.0
 10
7.827429605861188
 20
27.00274283888041
 30
0.0
 10
7.826741689212072
 20
27.00215722778424
 30
0.0
 10
7.82601496700839
 20
27.00157161668807
 30
0.0
 10
7.514268780517254
 20
26.70391537428191
 30
0.0
 10
7.491292364436764
 20
26.10946366722542
 30
0.0
 10
7.649178054853209
 20
25.73351898237212
 30
0.0
 10
7.649178054853209
 20
25.73351898237212
 30
0.0
 10
7.654141638059911
 20
25.72450903815754
 30
0.0
 10
7.660650387893859
 20
25.72361298262485
 30
0.0
 10
7.66723322105925
 20
25.72265054912488
 30
0.0
 10
7.672743609807557
 20
25.7302628435663
 30
0.0
 10
7.672743609807557
 20
25.7302628435663
 30
0.0
 10
7.927336269979024
 20
26.0486588909989
 30
0.0
 10
8.067826488617042
 20
26.62702040402145
 30
0.0
 10
7.849097216419513
 20
26.99847138213926
 30
0.0
 10
7.848822049759867
 20
26.9988517000908
 30
0.0
 10
7.848617438653975
 20
26.99922917230339
 30
0.0
 10
7.848374021993519
 20
26.99940203341009
 30
0.0
 10
7.848306994217451
 20
26.99967720006973
 30
0.0
 10
7.848204688664506
 20
26.99986770006488
 30
0.0
 10
7.848204688664506
 20
26.99986770006488
 30
0.0
 10
7.848204688664506
 20
26.99986770006488
 30
0.0
 10
7.844655744310602
 20
27.00637997767651
 30
0.0
 10
7.839212383338363
 20
27.00718783876701
 30
0.0
 10
7.833733744589246
 20
27.00785811652769
 30
0.0
 10
7.828050494734238
 20
27.00339900553034
 30
0.0
 10
7.828050494734238
 20
27.00339900553034
 30
0.0
  0
SPLINE
  5
6E
330
5E
100
AcDbEntity
  8
CALQUE_1
 62
     7
100
AcDbSpline
210
0.0
220
0.0
230
1.0
 70
    11
 71
     3
 72
    32
 73
    28
 74
     0
 42
0.0000000001
 43
0.0000000001
 12
1.0
 22
0.0
 32
0.0
 13
1.0
 23
0.0
 33
0.0
 40
0.0
 40
0.0
 40
0.0
 40
0.0
 40
1.0
 40
1.0
 40
1.0
 40
2.0
 40
2.0
 40
2.0
 40
3.0
 40
3.0
 40
3.0
 40
4.0
 40
4.0
 40
4.0
 40
5.0
 40
5.0
 40
5.0
 40
6.0
 40
6.0
 40
6.0
 40
7.0
 40
7.0
 40
7.0
 40
8.0
 40
8.0
 40
8.0
 40
9.0
 40
9.0
 40
9.0
 40
9.0
 10
8.386913980476441
 20
27.55139340821651
 30
0.0
 10
8.386222536049639
 20
27.55082543600877
 30
0.0
 10
8.385464063846765
 20
27.55030685268867
 30
0.0
 10
8.384709119421581
 20
27.54982354714544
 30
0.0
 10
8.039163294903856
 20
27.29214760927486
 30
0.0
 10
7.944287241768791
 20
26.70488198536836
 30
0.0
 10
8.055426350044508
 20
26.31257193982147
 30
0.0
 10
8.055426350044508
 20
26.31257193982147
 30
0.0
 10
8.059282211057248
 20
26.3030116622876
 30
0.0
 10
8.065621627562182
 20
26.30133949566359
 30
0.0
 10
8.07206687739775
 20
26.29958332675844
 30
0.0
 10
8.078438043901874
 20
26.30647241219931
 30
0.0
 10
8.078438043901874
 20
26.30647241219931
 30
0.0
 10
8.369754869803096
 20
26.59167559936761
 30
0.0
 10
8.57932250334547
 20
27.14872933515599
 30
0.0
 10
8.407237507735724
 20
27.54394979729529
 30
0.0
 10
8.406997618852955
 20
27.54436607506245
 30
0.0
 10
8.406860035523131
 20
27.54476118616348
 30
0.0
 10
8.406620146640362
 20
27.54496579726937
 30
0.0
 10
8.406584868863485
 20
27.54525860281746
 30
0.0
 10
8.40651431330973
 20
27.54543146392416
 30
0.0
 10
8.40651431330973
 20
27.54543146392416
 30
0.0
 10
8.40651431330973
 20
27.54543146392416
 30
0.0
 10
8.403794396712453
 20
27.55233885263683
 30
0.0
 10
8.398488619070037
 20
27.55380288037725
 30
0.0
 10
8.39311249790172
 20
27.55512932478786
 30
0.0
 10
8.386913980476441
 20
27.55139340821651
 30
0.0
 10
8.386913980476441
 20
27.55139340821651
 30
0.0
  0
SPLINE
  5
6F
330
5E
100
AcDbEntity
  8
CALQUE_1
 62
     7
100
AcDbSpline
210
0.0
220
0.0
230
1.0
 70
    11
 71
     3
 72
    32
 73
    28
 74
     0
 42
0.0000000001
 43
0.0000000001
 12
1.0
 22
0.0
 32
0.0
 13
1.0
 23
0.0
 33
0.0
 40
0.0
 40
0.0
 40
0.0
 40
0.0
 40
1.0
 40
1.0
 40
1.0
 40
2.0
 40
2.0
 40
2.0
 40
3.0
 40
3.0
 40
3.0
 40
4.0
 40
4.0
 40
4.0
 40
5.0
 40
5.0
 40
5.0
 40
6.0
 40
6.0
 40
6.0
 40
7.0
 40
7.0
 40
7.0
 40
8.0
 40
8.0
 40
8.0
 40
9.0
 40
9.0
 40
9.0
 40
9.0
 10
9.275677596691082
 20
27.53635449193351
 30
0.0
 10
9.274816818935264
 20
27.53618163082681
 30
0.0
 10
9.27392076340257
 20
27.53606168638543
 30
0.0
 10
9.273024707869874
 20
27.53597701972092
 30
0.0
 10
8.847832246495216
 20
27.46521332708181
 30
0.0
 10
8.494468866621377
 20
26.98665617262415
 30
0.0
 10
8.41354164646378
 20
26.58702246059744
 30
0.0
 10
8.41354164646378
 20
26.58702246059744
 30
0.0
 10
8.412578563155018
 20
26.576756627526
 30
0.0
 10
8.417471590807963
 20
26.57234690541628
 30
0.0
 10
8.422396368460099
 20
26.56787082669135
 30
0.0
 10
8.431215812679541
 20
26.57105573878256
 30
0.0
 10
8.431215812679541
 20
26.57105573878256
 30
0.0
 10
8.820823580517597
 20
26.6911342357191
 30
0.0
 10
9.262275569255218
 20
27.09028464220259
 30
0.0
 10
9.290353151872234
 20
27.52043715900626
 30
0.0
 10
9.290321401873042
 20
27.52092046454949
 30
0.0
 10
9.290388429649111
 20
27.52133321453896
 30
0.0
 10
9.290250846319287
 20
27.52164365897548
 30
0.0
 10
9.290353151872234
 20
27.52191882563513
 30
0.0
 10
9.290388429649111
 20
27.52209168674183
 30
0.0
 10
9.290388429649111
 20
27.52209168674183
 30
0.0
 10
9.290388429649111
 20
27.52209168674183
 30
0.0
 10
9.291111624075105
 20
27.52946474210928
 30
0.0
 10
9.287082901955664
 20
27.53321829756908
 30
0.0
 10
9.282913068728712
 20
27.53683779747674
 30
0.0
 10
9.275677596691082
 20
27.53635449193351
 30
0.0
 10
9.275677596691082
 20
27.53635449193351
 30
0.0
  0
SPLINE
  5
70
330
5E
100
AcDbEntity
  8
CALQUE_1
 62
     7
100
AcDbSpline
210
0.0
220
0.0
230
1.0
 70
    11
 71
     3
 72
    32
 73
    28
 74
     0
 42
0.0000000001
 43
0.0000000001
 12
1.0
 22
0.0
 32
0.0
 13
1.0
 23
0.0
 33
0.0
 40
0.0
 40
0.0
 40
0.0
 40
0.0
 40
1.0
 40
1.0
 40
1.0
 40
2.0
 40
2.0
 40
2.0
 40
3.0
 40
3.0
 40
3.0
 40
4.0
 40
4.0
 40
4.0
 40
5.0
 40
5.0
 40
5.0
 40
6.0
 40
6.0
 40
6.0
 40
7.0
 40
7.0
 40
7.0
 40
8.0
 40
8.0
 40
8.0
 40
9.0
 40
9.0
 40
9.0
 40
9.0
 10
9.038240519415274
 20
26.60533582668201
 30
0.0
 10
9.037379741659455
 20
26.60540218235075
 30
0.0
 10
9.03648368612676
 20
26.60552565456982
 30
0.0
 10
9.035591386630005
 20
26.60568087678809
 30
0.0
 10
8.607294252631851
 20
26.6541349033297
 30
0.0
 10
8.136350042424416
 20
26.29069332676064
 30
0.0
 10
7.949039158314226
 20
25.9285098385086
 30
0.0
 10
7.949039158314226
 20
25.9285098385086
 30
0.0
 10
7.945285602854431
 20
25.9189008268536
 30
0.0
 10
7.948799269431457
 20
25.91331922778503
 30
0.0
 10
7.952312936008483
 20
25.90766772792922
 30
0.0
 10
7.961650963548028
 20
25.90832389457914
 30
0.0
 10
7.961650963548028
 20
25.90832389457914
 30
0.0
 10
8.369275092037558
 20
25.91707278324483
 30
0.0
 10
8.903158608885306
 20
26.1800051098702
 30
0.0
 10
9.048026574721165
 20
26.58600646062336
 30
0.0
 10
9.048093602497234
 20
26.58648976616658
 30
0.0
 10
9.048301741380811
 20
26.58687076615686
 30
0.0
 10
9.048234713604744
 20
26.5871776828157
 30
0.0
 10
9.048439324710635
 20
26.58743873836459
 30
0.0
 10
9.04850988026439
 20
26.58759396058285
 30
0.0
 10
9.04850988026439
 20
26.58759396058285
 30
0.0
 10
9.04850988026439
 20
26.58759396058285
 30
0.0
 10
9.051194519084788
 20
26.59448371040708
 30
0.0
 10
9.048372296934568
 20
26.59920387695333
 30
0.0
 10
9.04533840812308
 20
26.60381888223792
 30
0.0
 10
9.038240519415274
 20
26.60533582668201
 30
0.0
 10
9.038240519415274
 20
26.60533582668201
 30
0.0
  0
ENDBLK
  5
61
330
5E
100
AcDbEntity
  8
0
100
AcDbBlockEnd
  0
ENDSEC
  0
SECTION
  2
ENTITIES
  0
INSERT
  5
43
330
1F
100
AcDbEntity
  8
CALQUE_1
100
AcDbBlockReference
  2
BLOCK_2
 10
0.0
 20
0.0
 30
0.0
  0
INSERT
  5
4C
330
1F
100
AcDbEntity
  8
CALQUE_1
100
AcDbBlockReference
  2
BLOCK_3
 10
0.0
 20
0.0
 30
0.0
  0
INSERT
  5
5F
330
1F
100
AcDbEntity
  8
CALQUE_1
100
AcDbBlockReference
  2
BLOCK_4
 10
0.0
 20
0.0
 30
0.0
  0
ENDSEC
  0
SECTION
  2
OBJECTS
  0
DICTIONARY
  5
C
330
0
100
AcDbDictionary
  3
ACAD_GROUP
350
D
  3
ACAD_LAYOUT
350
1A
  3
ACAD_MATERIAL
350
3B
  3
ACAD_MLEADERSTYLE
350
73
  3
ACAD_MLINESTYLE
350
17
  3
ACAD_PLOTSETTINGS
350
19
  3
ACAD_VISUALSTYLE
350
2A
  3
ACDBVARIABLEDICTIONARY
350
71
1001
ACAD
1000
TREAT_AS_HARD
1070
     0
  0
DICTIONARY
  5
D
102
{ACAD_REACTORS
330
C
102
}
330
C
100
AcDbDictionary
1001
ACAD
1000
TREAT_AS_HARD
1070
     0
  0
DICTIONARY
  5
1A
102
{ACAD_REACTORS
330
C
102
}
330
C
100
AcDbDictionary
1001
ACAD
1000
TREAT_AS_HARD
1070
     0
  0
DICTIONARY
  5
3B
102
{ACAD_REACTORS
330
C
102
}
330
C
100
AcDbDictionary
  3
BYBLOCK
350
3D
  3
BYLAYER
350
3C
  3
GLOBAL
350
3E
1001
ACAD
1000
TREAT_AS_HARD
1070
     0
  0
DICTIONARY
  5
73
102
{ACAD_REACTORS
330
C
102
}
330
C
100
AcDbDictionary
1001
ACAD
1000
TREAT_AS_HARD
1070
     0
  0
DICTIONARY
  5
17
102
{ACAD_REACTORS
330
C
102
}
330
C
100
AcDbDictionary
  3
STANDARD
350
18
1001
ACAD
1000
TREAT_AS_HARD
1070
     0
  0
DICTIONARY
  5
19
102
{ACAD_REACTORS
330
C
102
}
330
C
100
AcDbDictionary
1001
ACAD
1000
TREAT_AS_HARD
1070
     0
  0
DICTIONARY
  5
2A
102
{ACAD_REACTORS
330
C
102
}
330
C
100
AcDbDictionary
  3
2DWIREFRAME
350
2F
  3
3D_HIDDEN
350
31
  3
3DWIREFRAME
350
30
  3
BASIC
350
32
  3
BRIGHTEN
350
36
  3
COLORCHANGE
350
3A
  3
CONCEPTUAL
350
34
  3
DIM
350
35
  3
FACEPATTERN
350
39
  3
FLAT
350
2B
  3
FLATWITHEDGES
350
2C
  3
GOURAUD
350
2D
  3
GOURAUDWITHEDGES
350
2E
  3
LINEPATTERN
350
38
  3
REALISTIC
350
33
  3
THICKEN
350
37
1001
ACAD
1000
TREAT_AS_HARD
1070
     0
  0
DICTIONARY
  5
71
102
{ACAD_REACTORS
330
C
102
}
330
C
100
AcDbDictionary
  3
DIMASSOC
350
74
  3
HIDETEXT
350
75
1001
ACAD
1000
TREAT_AS_HARD
1070
     0
  0
MATERIAL
  5
3D
102
{ACAD_REACTORS
330
3B
102
}
102
{ACAD_XDICTIONARY
360
78
102
}
330
3B
100
AcDbMaterial
  1
ByBlock
  0
MATERIAL
  5
3C
102
{ACAD_REACTORS
330
3B
102
}
102
{ACAD_XDICTIONARY
360
76
102
}
330
3B
100
AcDbMaterial
  1
ByLayer
  0
MATERIAL
  5
3E
102
{ACAD_REACTORS
330
3B
102
}
102
{ACAD_XDICTIONARY
360
7A
102
}
330
3B
100
AcDbMaterial
  1
Global
  0
MLINESTYLE
  5
18
102
{ACAD_REACTORS
330
17
102
}
330
17
100
AcDbMlineStyle
  2
Standard
 70
     0
  3

 62
   256
 51
90.0
 52
90.0
 71
     2
 49
0.5
 62
   256
  6
BYLAYER
 49
-0.5
 62
   256
  6
BYLAYER
  0
ACAD_PROXY_OBJECT
  5
2F
102
{ACAD_REACTORS
330
2A
102
}
330
2A
100
AcDbZombieObject
 90
      499
 91
      501
 93
      436
310
42CC9915DA5C99599C985B595049028333333333333E3BF0000000000000FB0107901411070040501600405405064090741402480A0340
1001
ACAD
1000
AcDbSavedByObjectVersion
1070
     0
  0
ACAD_PROXY_OBJECT
  5
31
102
{ACAD_REACTORS
330
2A
102
}
330
2A
100
AcDbZombieObject
 90
      499
 91
      501
 93
      500
310
424CD108121A5919195B90640502408333333333333E3BF0000000000000FB01079024090700405020000000000001110200405405064090740C02480A0340
1001
ACAD
1000
AcDbSavedByObjectVersion
1070
     0
  0
ACAD_PROXY_OBJECT
  5
30
102
{ACAD_REACTORS
330
2A
102
}
330
2A
100
AcDbZombieObject
 90
      499
 91
      501
 93
      436
310
42CCD915DA5C99599C985B595059028333333333333E3BF0000000000000FB0107901411070040501600405405064090741402480A0340
1001
ACAD
1000
AcDbSavedByObjectVersion
1070
     0
  0
ACAD_PROXY_OBJECT
  5
32
102
{ACAD_REACTORS
330
2A
102
}
330
2A
100
AcDbZombieObject
 90
      499
 91
      501
 93
      388
310
4150985CDA58D07406404333333333333E3BF0000000000000FB0107A41107004050150841D405064090741402480A0350
1001
ACAD
1000
AcDbSavedByObjectVersion
1070
     0
  0
ACAD_PROXY_OBJECT
  5
36
102
{ACAD_REACTORS
330
2A
102
}
330
2A
100
AcDbZombieObject
 90
      499
 91
      501
 93
      428
310
42109C9A59DA1D195B90C409028333333333333E3BF0000000000000FB010790141107004050150841D405064090741402480A029950
1001
ACAD
1000
AcDbSavedByObjectVersion
1070
     0
  0
ACAD_PROXY_OBJECT
  5
3A
102
{ACAD_REACTORS
330
2A
102
}
330
2A
100
AcDbZombieObject
 90
      499
 91
      501
 93
      452
310
42D0DBDB1BDC90DA185B99D95104090240C333333333333E3BF0000000000000FB0108901411070040501508421405064090741402480A0350
1001
ACAD
1000
AcDbSavedByObjectVersion
1070
     0
  0
ACAD_PROXY_OBJECT
  5
34
102
{ACAD_REACTORS
330
2A
102
}
330
2A
100
AcDbZombieObject
 90
      499
 91
      501
 93
      500
310
4290DBDB98D95C1D1D585B10940D028333333333333E3BF0000000000000FB0107902409070040501000000000000111010841D405064090740C02480A0340
1001
ACAD
1000
AcDbSavedByObjectVersion
1070
     0
  0
ACAD_PROXY_OBJECT
  5
35
102
{ACAD_REACTORS
330
2A
102
}
330
2A
100
AcDbZombieObject
 90
      499
 91
      501
 93
      412
310
40D11A5B50B409028333333333333E3BF0000000000000FB010790141107004050150841D405064090741402480A02677FFFFFD0
1001
ACAD
1000
AcDbSavedByObjectVersion
1070
     0
  0
ACAD_PROXY_OBJECT
  5
39
102
{ACAD_REACTORS
330
2A
102
}
330
2A
100
AcDbZombieObject
 90
      499
 91
      501
 93
      444
310
42D19858D95C185D1D195C9B90F409028333333333333E3BF0000000000000FB010790141107004050150841D405064090741402480A0350
1001
ACAD
1000
AcDbSavedByObjectVersion
1070
     0
  0
ACAD_PROXY_OBJECT
  5
2B
102
{ACAD_REACTORS
330
2A
102
}
330
2A
100
AcDbZombieObject
 90
      499
 91
      501
 93
      388
310
41119B185D240901404333333333333E3BF0000000000000F9010740A41107004050150841D405064090741402480A1B50
1001
ACAD
1000
AcDbSavedByObjectVersion
1070
     0
  0
ACAD_PROXY_OBJECT
  5
2C
102
{ACAD_REACTORS
330
2A
102
}
330
2A
100
AcDbZombieObject
 90
      499
 91
      501
 93
      476
310
43519B185D15DA5D1A115919D95CD0140901404333333333333E3BF0000000000000F9010740901411070040501600405405064090741402480A1B50
1001
ACAD
1000
AcDbSavedByObjectVersion
1070
     0
  0
ACAD_PROXY_OBJECT
  5
2D
102
{ACAD_REACTORS
330
2A
102
}
330
2A
100
AcDbZombieObject
 90
      499
 91
      501
 93
      412
310
41D1DBDD5C985D5910240902404333333333333E3BF0000000000000F9010740A411070040501641D405064090741402480A1B50
1001
ACAD
1000
AcDbSavedByObjectVersion
1070
     0
  0
ACAD_PROXY_OBJECT
  5
2E
102
{ACAD_REACTORS
330
2A
102
}
330
2A
100
AcDbZombieObject
 90
      499
 91
      501
 93
      500
310
4411DBDD5C985D5915DA5D1A115919D95CD0340902404333333333333E3BF0000000000000F9010740901411070040501600405405064090741402480A1B50
1001
ACAD
1000
AcDbSavedByObjectVersion
1070
     0
  0
ACAD_PROXY_OBJECT
  5
38
102
{ACAD_REACTORS
330
2A
102
}
330
2A
100
AcDbZombieObject
 90
      499
 91
      501
 93
      444
310
42D31A5B995C185D1D195C9B90E409028333333333333E3BF0000000000000FB010790141107004050750841D405064090741402483A0350
1001
ACAD
1000
AcDbSavedByObjectVersion
1070
     0
  0
ACAD_PROXY_OBJECT
  5
33
102
{ACAD_REACTORS
330
2A
102
}
330
2A
100
AcDbZombieObject
 90
      499
 91
      501
 93
      420
310
425499585B1A5CDD1A58D08409028333333333333E3BF0000000000000FB01079019070040501508421405064090741402480A1B40
1001
ACAD
1000
AcDbSavedByObjectVersion
1070
     0
  0
ACAD_PROXY_OBJECT
  5
37
102
{ACAD_REACTORS
330
2A
102
}
330
2A
100
AcDbZombieObject
 90
      499
 91
      501
 93
      412
310
41D51A1A58DAD95B90D409028333333333333E3BF0000000000000FB010790141107004050150C41D405064090741402480A0350
1001
ACAD
1000
AcDbSavedByObjectVersion
1070
     0
  0
DICTIONARYVAR
  5
74
102
{ACAD_REACTORS
330
71
102
}
330
71
100
DictionaryVariables
280
     0
  1
2
  0
DICTIONARYVAR
  5
75
102
{ACAD_REACTORS
330
71
102
}
330
71
100
DictionaryVariables
280
     0
  1
1
  0
DICTIONARY
  5
78
330
3D
100
AcDbDictionary
  3
ACAD_XREC_ROUNDTRIP
360
79
1001
ACAD
1000
TREAT_AS_HARD
1070
     1
  0
DICTIONARY
  5
76
330
3C
100
AcDbDictionary
  3
ACAD_XREC_ROUNDTRIP
360
77
1001
ACAD
1000
TREAT_AS_HARD
1070
     1
  0
DICTIONARY
  5
7A
330
3E
100
AcDbDictionary
  3
ACAD_XREC_ROUNDTRIP
360
7B
1001
ACAD
1000
TREAT_AS_HARD
1070
     1
  0
XRECORD
  5
79
102
{ACAD_REACTORS
330
78
102
}
330
78
100
AcDbXrecord
102
MATERIAL
148
0.0
149
0.0
149
0.0
 93
        0
 94
      127
282
     0
 72
     1
 77
     1
171
     1
175
     1
179
     1
273
     0
  0
XRECORD
  5
77
102
{ACAD_REACTORS
330
76
102
}
330
76
100
AcDbXrecord
102
MATERIAL
148
0.0
149
0.0
149
0.0
 93
        0
 94
      127
282
     0
 72
     1
 77
     1
171
     1
175
     1
179
     1
273
     0
  0
XRECORD
  5
7B
102
{ACAD_REACTORS
330
7A
102
}
330
7A
100
AcDbXrecord
102
MATERIAL
148
0.0
149
0.0
149
0.0
 93
        0
 94
      127
282
     0
 72
     1
 77
     1
171
     1
175
     1
179
     1
273
     0
  0
ENDSEC
  0
EOF
