<?xml version="1.0" encoding="utf-8" ?><!DOCTYPE svg PUBLIC "-//W3C//DTD SVG 1.1//EN" "http://www.w3.org/Graphics/SVG/1.1/DTD/svg11.dtd" 
[ <!ATTLIST svg 
  xmlns:dsy CDATA #FIXED "http://www.3ds.com/print"  
    dsy:text-version CDATA #IMPLIED > 

  <!ATTLIST text 
  xmlns:dsy CDATA #FIXED "http://www.3ds.com/print" 
    dsy:text-version CDATA #IMPLIED > 
]><svg xmlns="http://www.w3.org/2000/svg" xmlns:dsy="http://www.3ds.com/print" dsy:text-version="18000" width="841" height="594" viewBox="0 0 841 594" version="1.1"><g stroke="rgb(0, 0, 0)" stroke-width="0.13" stroke-linecap="butt" stroke-linejoin="miter" fill="none"><path d="M 672.693 250.934 L 711.332 250.934"/><path d="M 672.693 0.934021 L 711.332 0.934021"/></g><g stroke="rgb(0, 0, 0)" stroke-width="0.35" stroke-linecap="butt" stroke-linejoin="miter" fill="none"><circle cx="80.6932" cy="90.934" r="0.5"/><path d="M 700.693 30.934 L 700.693 220.934"/><path d="M 30.6932 250.934 L 670.693 250.934"/><path d="M 0.693192 220.934 L 0.693192 30.934"/><path d="M 670.693 0.934021 L 30.6932 0.934021"/><circle cx="620.693" cy="90.934" r="0.5"/><path d="M 700.693 30.934 A 30 30 0 0 0 670.693 0.934021"/><path d="M 30.6932 0.934021 A 30 30 0 0 0 0.69319 30.934"/><path d="M 0.69319 220.934 A 30 30 0 0 0 30.6932 250.934"/><path d="M 670.693 250.934 A 30 30 0 0 0 700.693 220.934"/><path d="M 42.1857 339.412 L 5.61714 276.073"/><path d="M 217.314 329.397 A 10 10 0 0 0 229.561 322.326"/><path d="M 230.855 317.497 L 229.561 322.326"/><path d="M 230.855 317.497 A 10 10 0 0 0 223.784 305.249"/><path d="M 125.804 361.818 A 10 10 0 0 0 130.981 342.499"/><path d="M 125.804 361.818 L 42.1857 339.412"/><path d="M 5.61714 276.073 L 36.671 258.145"/><path d="M 44.2592 257.146 L 223.784 305.249"/><path d="M 44.2592 257.146 A 10 10 0 0 0 36.671 258.145"/><path d="M 73.0253 326.97 L 130.981 342.499"/><path d="M 65.9542 314.723 A 10 10 0 0 0 73.0253 326.97"/><path d="M 82.084 293.163 A 10 10 0 0 0 69.8365 300.234"/><path d="M 217.314 329.397 L 82.084 293.163"/><path d="M 69.8365 300.234 L 65.9542 314.723"/><path d="M 258.772 288.591 L 295.34 351.93"/><path d="M 83.6438 298.606 A 10 10 0 0 0 71.3964 305.677"/><path d="M 70.1023 310.507 L 71.3964 305.677"/><path d="M 70.1023 310.507 A 10 10 0 0 0 77.1733 322.754"/><path d="M 175.153 266.186 A 10 10 0 1 0 169.977 285.504"/><path d="M 175.153 266.186 L 258.772 288.591"/><path d="M 295.34 351.93 L 264.286 369.859"/><path d="M 256.698 370.858 L 77.1733 322.754"/><path d="M 256.698 370.858 A 10 10 0 0 0 264.286 369.859"/><path d="M 227.932 301.034 L 169.977 285.504"/><path d="M 235.003 313.281 A 10 10 0 0 0 227.932 301.034"/><path d="M 218.873 334.841 A 10 10 0 0 0 231.121 327.77"/><path d="M 83.6438 298.606 L 218.873 334.841"/><path d="M 231.121 327.77 L 235.003 313.281"/><path d="M 289.176 335.512 L 252.607 272.173"/><path d="M 464.304 325.497 A 10 10 0 0 0 476.551 318.426"/><path d="M 477.845 313.596 L 476.551 318.426"/><path d="M 477.845 313.596 A 10 10 0 0 0 470.774 301.349"/><path d="M 372.794 357.918 A 10 10 0 0 0 377.971 338.599"/><path d="M 372.794 357.918 L 289.176 335.512"/><path d="M 252.607 272.173 L 283.661 254.244"/><path d="M 291.249 253.245 L 470.774 301.349"/><path d="M 291.249 253.245 A 10 10 0 0 0 283.661 254.244"/><path d="M 320.015 323.07 L 377.971 338.599"/><path d="M 312.944 310.822 A 10 10 0 0 0 320.015 323.07"/><path d="M 329.074 289.262 A 10 10 0 0 0 316.827 296.334"/><path d="M 464.304 325.497 L 329.074 289.262"/><path d="M 316.827 296.334 L 312.944 310.822"/><path d="M 507.364 284.801 L 543.932 348.14"/><path d="M 332.236 294.816 A 10 10 0 0 0 319.988 301.887"/><path d="M 318.694 306.716 L 319.988 301.887"/><path d="M 318.694 306.716 A 10 10 0 0 0 325.765 318.964"/><path d="M 423.745 262.395 A 10 10 0 1 0 418.568 281.714"/><path d="M 423.745 262.395 L 507.364 284.801"/><path d="M 543.932 348.14 L 512.878 366.068"/><path d="M 505.29 367.067 L 325.765 318.964"/><path d="M 505.29 367.068 A 10 10 0 0 0 512.878 366.068"/><path d="M 476.524 297.243 L 418.568 281.714"/><path d="M 483.595 309.49 A 10 10 0 0 0 476.524 297.243"/><path d="M 467.465 331.05 A 10 10 0 0 0 479.713 323.979"/><path d="M 332.236 294.816 L 467.465 331.05"/><path d="M 479.713 323.979 L 483.595 309.49"/></g><g stroke="rgb(0, 0, 0)" stroke-width="0.13" stroke-linecap="butt" stroke-linejoin="miter" fill="none"><path d="M 707.332 130.901 L 707.332 128.495 L 706.898 128.495 L 706.898 130.396 L 706.661 130.29 L 706.464 130.109 L 706.106 129.549 L 705.955 129.251 L 705.738 128.919 L 705.486 128.682 L 705.188 128.545 L 704.85 128.495 L 704.427 128.581 L 704.094 128.818 L 703.882 129.181 L 703.806 129.65 L 703.892 130.134 L 704.129 130.502 L 704.507 130.739 L 705.007 130.82 L 705.077 130.82 L 705.077 130.361 L 705.037 130.361 L 704.694 130.316 L 704.442 130.179 L 704.28 129.963 L 704.225 129.675 L 704.275 129.383 L 704.401 129.166 L 704.598 129.025 L 704.845 128.974 L 705.077 129.009 L 705.274 129.105 L 705.445 129.267 L 705.597 129.488 L 705.758 129.786 L 706.071 130.28 L 706.404 130.628 L 706.807 130.835 L 707.316 130.901 L 707.332 130.901 L 707.332 130.901 z M 706.419 127.185 L 706.832 127.074 L 707.155 126.827 L 707.357 126.464 L 707.432 126 L 707.342 125.49 L 707.094 125.092 L 706.701 124.84 L 706.197 124.744 L 705.728 124.83 L 705.36 125.072 L 705.123 125.45 L 705.037 125.939 L 705.097 126.317 L 705.264 126.61 L 704.321 126.469 L 704.321 124.935 L 703.907 124.935 L 703.907 126.807 L 705.763 127.084 L 705.763 126.68 L 705.526 126.388 L 705.44 126.015 L 705.496 125.692 L 705.657 125.445 L 705.904 125.289 L 706.222 125.233 L 706.54 125.289 L 706.787 125.45 L 706.943 125.697 L 706.999 126.015 L 706.963 126.282 L 706.847 126.489 L 706.666 126.64 L 706.419 126.716 L 706.419 127.185 L 706.419 127.185 z M 705.622 123.413 L 706.414 123.338 L 706.979 123.101 L 707.321 122.723 L 707.432 122.198 L 707.321 121.679 L 706.979 121.3 L 706.414 121.068 L 705.622 120.988 L 704.835 121.068 L 704.522 121.164 L 704.265 121.3 L 703.922 121.679 L 703.806 122.198 L 703.922 122.723 L 704.27 123.101 L 704.835 123.338 L 705.622 123.413 L 705.622 123.413 z M 705.622 122.929 L 705.012 122.889 L 704.573 122.763 L 704.316 122.536 L 704.225 122.198 L 704.316 121.865 L 704.573 121.638 L 705.012 121.512 L 705.622 121.472 L 706.237 121.512 L 706.676 121.638 L 706.933 121.865 L 707.019 122.198 L 706.933 122.536 L 706.676 122.763 L 706.237 122.889 L 705.622 122.929 L 705.622 122.929 z" stroke="none" fill-rule="evenodd" fill="rgb(0, 0, 0)"/><path d="M 708.814 249.002 L 709.332 250.934 L 709.849 249.002"/><path d="M 709.849 2.86584 L 709.332 0.934021 L 708.814 2.86584"/><path d="M 709.332 250.934 L 709.332 0.934021"/></g></svg>