solid CATIA STL
  facet normal  0.000000e+000  0.000000e+000  1.000000e+000
    outer loop
      vertex -1.500000e+001 -1.500000e+001  1.500000e+001
      vertex  1.500000e+001 -1.500000e+001  1.500000e+001
      vertex -2.038970e-015 -1.110000e+001  1.500000e+001
    endloop
  endfacet
  facet normal  0.000000e+000  0.000000e+000  1.000000e+000
    outer loop
      vertex -1.500000e+001 -1.500000e+001  1.500000e+001
      vertex -2.038970e-015 -1.110000e+001  1.500000e+001
      vertex -9.166307e-001 -1.106209e+001  1.500000e+001
    endloop
  endfacet
  facet normal  0.000000e+000  0.000000e+000  1.000000e+000
    outer loop
      vertex -1.500000e+001 -1.500000e+001  1.500000e+001
      vertex -9.166307e-001 -1.106209e+001  1.500000e+001
      vertex -1.827000e+000 -1.094861e+001  1.500000e+001
    endloop
  endfacet
  facet normal  0.000000e+000  0.000000e+000  1.000000e+000
    outer loop
      vertex -1.500000e+001 -1.500000e+001  1.500000e+001
      vertex -1.827000e+000 -1.094861e+001  1.500000e+001
      vertex -2.724889e+000 -1.076034e+001  1.500000e+001
    endloop
  endfacet
  facet normal  0.000000e+000  0.000000e+000  1.000000e+000
    outer loop
      vertex -1.500000e+001 -1.500000e+001  1.500000e+001
      vertex -2.724889e+000 -1.076034e+001  1.500000e+001
      vertex -3.604164e+000 -1.049857e+001  1.500000e+001
    endloop
  endfacet
  facet normal  0.000000e+000  0.000000e+000  1.000000e+000
    outer loop
      vertex -1.500000e+001 -1.500000e+001  1.500000e+001
      vertex -3.604164e+000 -1.049857e+001  1.500000e+001
      vertex -4.458819e+000 -1.016508e+001  1.500000e+001
    endloop
  endfacet
  facet normal  0.000000e+000  0.000000e+000  1.000000e+000
    outer loop
      vertex -1.500000e+001 -1.500000e+001  1.500000e+001
      vertex -4.458819e+000 -1.016508e+001  1.500000e+001
      vertex -5.283016e+000 -9.762158e+000  1.500000e+001
    endloop
  endfacet
  facet normal  0.000000e+000  0.000000e+000  1.000000e+000
    outer loop
      vertex -1.500000e+001 -1.500000e+001  1.500000e+001
      vertex -5.283016e+000 -9.762158e+000  1.500000e+001
      vertex -6.071125e+000 -9.292548e+000  1.500000e+001
    endloop
  endfacet
  facet normal  0.000000e+000  0.000000e+000  9.999999e-001
    outer loop
      vertex -1.500000e+001 -1.500000e+001  1.500000e+001
      vertex -6.071125e+000 -9.292548e+000  1.500000e+001
      vertex -6.817761e+000 -8.759459e+000  1.500000e+001
    endloop
  endfacet
  facet normal  0.000000e+000  0.000000e+000  1.000000e+000
    outer loop
      vertex -1.500000e+001 -1.500000e+001  1.500000e+001
      vertex -6.817761e+000 -8.759459e+000  1.500000e+001
      vertex -7.517826e+000 -8.166535e+000  1.500000e+001
    endloop
  endfacet
  facet normal  0.000000e+000  0.000000e+000  1.000000e+000
    outer loop
      vertex -1.500000e+001 -1.500000e+001  1.500000e+001
      vertex -7.517826e+000 -8.166535e+000  1.500000e+001
      vertex -8.166535e+000 -7.517826e+000  1.500000e+001
    endloop
  endfacet
  facet normal  0.000000e+000  0.000000e+000  1.000000e+000
    outer loop
      vertex -1.500000e+001 -1.500000e+001  1.500000e+001
      vertex -8.166535e+000 -7.517826e+000  1.500000e+001
      vertex -8.759459e+000 -6.817761e+000  1.500000e+001
    endloop
  endfacet
  facet normal  0.000000e+000  0.000000e+000  9.999999e-001
    outer loop
      vertex -1.500000e+001 -1.500000e+001  1.500000e+001
      vertex -8.759459e+000 -6.817761e+000  1.500000e+001
      vertex -9.292548e+000 -6.071125e+000  1.500000e+001
    endloop
  endfacet
  facet normal  0.000000e+000  0.000000e+000  1.000000e+000
    outer loop
      vertex -1.500000e+001 -1.500000e+001  1.500000e+001
      vertex -9.292548e+000 -6.071125e+000  1.500000e+001
      vertex -9.762158e+000 -5.283016e+000  1.500000e+001
    endloop
  endfacet
  facet normal  0.000000e+000  0.000000e+000  1.000000e+000
    outer loop
      vertex -1.500000e+001 -1.500000e+001  1.500000e+001
      vertex -9.762158e+000 -5.283016e+000  1.500000e+001
      vertex -1.016508e+001 -4.458819e+000  1.500000e+001
    endloop
  endfacet
  facet normal  0.000000e+000  0.000000e+000  1.000000e+000
    outer loop
      vertex -1.500000e+001 -1.500000e+001  1.500000e+001
      vertex -1.016508e+001 -4.458819e+000  1.500000e+001
      vertex -1.049857e+001 -3.604164e+000  1.500000e+001
    endloop
  endfacet
  facet normal  0.000000e+000  0.000000e+000  1.000000e+000
    outer loop
      vertex -1.500000e+001 -1.500000e+001  1.500000e+001
      vertex -1.049857e+001 -3.604164e+000  1.500000e+001
      vertex -1.076034e+001 -2.724889e+000  1.500000e+001
    endloop
  endfacet
  facet normal  0.000000e+000  0.000000e+000  1.000000e+000
    outer loop
      vertex -1.500000e+001 -1.500000e+001  1.500000e+001
      vertex -1.076034e+001 -2.724889e+000  1.500000e+001
      vertex -1.094861e+001 -1.827000e+000  1.500000e+001
    endloop
  endfacet
  facet normal  0.000000e+000  0.000000e+000  1.000000e+000
    outer loop
      vertex -1.500000e+001 -1.500000e+001  1.500000e+001
      vertex -1.094861e+001 -1.827000e+000  1.500000e+001
      vertex -1.106209e+001 -9.166307e-001  1.500000e+001
    endloop
  endfacet
  facet normal  0.000000e+000  0.000000e+000  1.000000e+000
    outer loop
      vertex -1.500000e+001 -1.500000e+001  1.500000e+001
      vertex -1.106209e+001 -9.166307e-001  1.500000e+001
      vertex -1.110000e+001  1.359313e-015  1.500000e+001
    endloop
  endfacet
  facet normal  0.000000e+000  -0.000000e+000  1.000000e+000
    outer loop
      vertex -1.500000e+001 -1.500000e+001  1.500000e+001
      vertex -1.110000e+001  1.359313e-015  1.500000e+001
      vertex -1.106209e+001  9.166307e-001  1.500000e+001
    endloop
  endfacet
  facet normal  0.000000e+000  -0.000000e+000  1.000000e+000
    outer loop
      vertex -1.500000e+001 -1.500000e+001  1.500000e+001
      vertex -1.106209e+001  9.166307e-001  1.500000e+001
      vertex -1.094861e+001  1.827000e+000  1.500000e+001
    endloop
  endfacet
  facet normal  0.000000e+000  -0.000000e+000  9.999999e-001
    outer loop
      vertex -1.500000e+001 -1.500000e+001  1.500000e+001
      vertex -1.094861e+001  1.827000e+000  1.500000e+001
      vertex -1.076034e+001  2.724889e+000  1.500000e+001
    endloop
  endfacet
  facet normal  0.000000e+000  0.000000e+000  1.000000e+000
    outer loop
      vertex -1.500000e+001  1.500000e+001  1.500000e+001
      vertex -1.500000e+001 -1.500000e+001  1.500000e+001
      vertex -1.076034e+001  2.724889e+000  1.500000e+001
    endloop
  endfacet
  facet normal  0.000000e+000  -0.000000e+000  1.000000e+000
    outer loop
      vertex -1.500000e+001  1.500000e+001  1.500000e+001
      vertex -1.076034e+001  2.724889e+000  1.500000e+001
      vertex -1.049857e+001  3.604164e+000  1.500000e+001
    endloop
  endfacet
  facet normal  0.000000e+000  -0.000000e+000  1.000000e+000
    outer loop
      vertex -1.500000e+001  1.500000e+001  1.500000e+001
      vertex -1.049857e+001  3.604164e+000  1.500000e+001
      vertex -1.016508e+001  4.458819e+000  1.500000e+001
    endloop
  endfacet
  facet normal  0.000000e+000  -0.000000e+000  1.000000e+000
    outer loop
      vertex -1.500000e+001  1.500000e+001  1.500000e+001
      vertex -1.016508e+001  4.458819e+000  1.500000e+001
      vertex -9.762158e+000  5.283016e+000  1.500000e+001
    endloop
  endfacet
  facet normal  0.000000e+000  -0.000000e+000  1.000000e+000
    outer loop
      vertex -1.500000e+001  1.500000e+001  1.500000e+001
      vertex -9.762158e+000  5.283016e+000  1.500000e+001
      vertex -9.292548e+000  6.071125e+000  1.500000e+001
    endloop
  endfacet
  facet normal  0.000000e+000  -0.000000e+000  9.999999e-001
    outer loop
      vertex -1.500000e+001  1.500000e+001  1.500000e+001
      vertex -9.292548e+000  6.071125e+000  1.500000e+001
      vertex -8.759459e+000  6.817761e+000  1.500000e+001
    endloop
  endfacet
  facet normal  0.000000e+000  -0.000000e+000  1.000000e+000
    outer loop
      vertex -1.500000e+001  1.500000e+001  1.500000e+001
      vertex -8.759459e+000  6.817761e+000  1.500000e+001
      vertex -8.166535e+000  7.517826e+000  1.500000e+001
    endloop
  endfacet
  facet normal  0.000000e+000  -0.000000e+000  1.000000e+000
    outer loop
      vertex -1.500000e+001  1.500000e+001  1.500000e+001
      vertex -8.166535e+000  7.517826e+000  1.500000e+001
      vertex -7.517826e+000  8.166535e+000  1.500000e+001
    endloop
  endfacet
  facet normal  0.000000e+000  -0.000000e+000  1.000000e+000
    outer loop
      vertex -1.500000e+001  1.500000e+001  1.500000e+001
      vertex -7.517826e+000  8.166535e+000  1.500000e+001
      vertex -6.817761e+000  8.759459e+000  1.500000e+001
    endloop
  endfacet
  facet normal  0.000000e+000  -0.000000e+000  9.999999e-001
    outer loop
      vertex -1.500000e+001  1.500000e+001  1.500000e+001
      vertex -6.817761e+000  8.759459e+000  1.500000e+001
      vertex -6.071125e+000  9.292548e+000  1.500000e+001
    endloop
  endfacet
  facet normal  0.000000e+000  -0.000000e+000  1.000000e+000
    outer loop
      vertex -1.500000e+001  1.500000e+001  1.500000e+001
      vertex -6.071125e+000  9.292548e+000  1.500000e+001
      vertex -5.283016e+000  9.762158e+000  1.500000e+001
    endloop
  endfacet
  facet normal  0.000000e+000  -0.000000e+000  1.000000e+000
    outer loop
      vertex -1.500000e+001  1.500000e+001  1.500000e+001
      vertex -5.283016e+000  9.762158e+000  1.500000e+001
      vertex -4.458819e+000  1.016508e+001  1.500000e+001
    endloop
  endfacet
  facet normal  0.000000e+000  -0.000000e+000  1.000000e+000
    outer loop
      vertex -1.500000e+001  1.500000e+001  1.500000e+001
      vertex -4.458819e+000  1.016508e+001  1.500000e+001
      vertex -3.604164e+000  1.049857e+001  1.500000e+001
    endloop
  endfacet
  facet normal  0.000000e+000  -0.000000e+000  1.000000e+000
    outer loop
      vertex -1.500000e+001  1.500000e+001  1.500000e+001
      vertex -3.604164e+000  1.049857e+001  1.500000e+001
      vertex -2.724889e+000  1.076034e+001  1.500000e+001
    endloop
  endfacet
  facet normal  0.000000e+000  -0.000000e+000  1.000000e+000
    outer loop
      vertex -1.500000e+001  1.500000e+001  1.500000e+001
      vertex -2.724889e+000  1.076034e+001  1.500000e+001
      vertex -1.827000e+000  1.094861e+001  1.500000e+001
    endloop
  endfacet
  facet normal  0.000000e+000  -0.000000e+000  1.000000e+000
    outer loop
      vertex -1.500000e+001  1.500000e+001  1.500000e+001
      vertex -1.827000e+000  1.094861e+001  1.500000e+001
      vertex -9.166307e-001  1.106209e+001  1.500000e+001
    endloop
  endfacet
  facet normal  0.000000e+000  -0.000000e+000  1.000000e+000
    outer loop
      vertex -1.500000e+001  1.500000e+001  1.500000e+001
      vertex -9.166307e-001  1.106209e+001  1.500000e+001
      vertex  6.796565e-016  1.110000e+001  1.500000e+001
    endloop
  endfacet
  facet normal  0.000000e+000  -0.000000e+000  1.000000e+000
    outer loop
      vertex -1.500000e+001  1.500000e+001  1.500000e+001
      vertex  6.796565e-016  1.110000e+001  1.500000e+001
      vertex  1.500000e+001  1.500000e+001  1.500000e+001
    endloop
  endfacet
  facet normal  0.000000e+000  0.000000e+000  1.000000e+000
    outer loop
      vertex  1.500000e+001 -1.500000e+001  1.500000e+001
      vertex  1.076034e+001  2.724889e+000  1.500000e+001
      vertex  1.094861e+001  1.827000e+000  1.500000e+001
    endloop
  endfacet
  facet normal  0.000000e+000  0.000000e+000  1.000000e+000
    outer loop
      vertex  1.500000e+001 -1.500000e+001  1.500000e+001
      vertex  1.094861e+001  1.827000e+000  1.500000e+001
      vertex  1.106209e+001  9.166307e-001  1.500000e+001
    endloop
  endfacet
  facet normal  0.000000e+000  0.000000e+000  1.000000e+000
    outer loop
      vertex  1.500000e+001 -1.500000e+001  1.500000e+001
      vertex  1.106209e+001  9.166307e-001  1.500000e+001
      vertex  1.110000e+001  0.000000e+000  1.500000e+001
    endloop
  endfacet
  facet normal  0.000000e+000  0.000000e+000  1.000000e+000
    outer loop
      vertex  1.500000e+001 -1.500000e+001  1.500000e+001
      vertex  1.110000e+001  0.000000e+000  1.500000e+001
      vertex  1.106209e+001 -9.166307e-001  1.500000e+001
    endloop
  endfacet
  facet normal  0.000000e+000  0.000000e+000  1.000000e+000
    outer loop
      vertex  1.500000e+001 -1.500000e+001  1.500000e+001
      vertex  1.106209e+001 -9.166307e-001  1.500000e+001
      vertex  1.094861e+001 -1.827000e+000  1.500000e+001
    endloop
  endfacet
  facet normal  0.000000e+000  0.000000e+000  1.000000e+000
    outer loop
      vertex  1.500000e+001 -1.500000e+001  1.500000e+001
      vertex  1.094861e+001 -1.827000e+000  1.500000e+001
      vertex  1.076034e+001 -2.724889e+000  1.500000e+001
    endloop
  endfacet
  facet normal  0.000000e+000  0.000000e+000  1.000000e+000
    outer loop
      vertex  1.500000e+001 -1.500000e+001  1.500000e+001
      vertex  1.076034e+001 -2.724889e+000  1.500000e+001
      vertex  1.049857e+001 -3.604164e+000  1.500000e+001
    endloop
  endfacet
  facet normal  0.000000e+000  0.000000e+000  1.000000e+000
    outer loop
      vertex  1.500000e+001 -1.500000e+001  1.500000e+001
      vertex  1.049857e+001 -3.604164e+000  1.500000e+001
      vertex  1.016508e+001 -4.458819e+000  1.500000e+001
    endloop
  endfacet
  facet normal  0.000000e+000  0.000000e+000  1.000000e+000
    outer loop
      vertex  1.500000e+001 -1.500000e+001  1.500000e+001
      vertex  1.016508e+001 -4.458819e+000  1.500000e+001
      vertex  9.762158e+000 -5.283016e+000  1.500000e+001
    endloop
  endfacet
  facet normal  0.000000e+000  0.000000e+000  1.000000e+000
    outer loop
      vertex  1.500000e+001 -1.500000e+001  1.500000e+001
      vertex  9.762158e+000 -5.283016e+000  1.500000e+001
      vertex  9.292548e+000 -6.071125e+000  1.500000e+001
    endloop
  endfacet
  facet normal  0.000000e+000  0.000000e+000  9.999999e-001
    outer loop
      vertex  1.500000e+001 -1.500000e+001  1.500000e+001
      vertex  9.292548e+000 -6.071125e+000  1.500000e+001
      vertex  8.759459e+000 -6.817761e+000  1.500000e+001
    endloop
  endfacet
  facet normal  0.000000e+000  0.000000e+000  1.000000e+000
    outer loop
      vertex  1.500000e+001 -1.500000e+001  1.500000e+001
      vertex  8.759459e+000 -6.817761e+000  1.500000e+001
      vertex  8.166535e+000 -7.517826e+000  1.500000e+001
    endloop
  endfacet
  facet normal  0.000000e+000  0.000000e+000  1.000000e+000
    outer loop
      vertex  1.500000e+001 -1.500000e+001  1.500000e+001
      vertex  8.166535e+000 -7.517826e+000  1.500000e+001
      vertex  7.517826e+000 -8.166535e+000  1.500000e+001
    endloop
  endfacet
  facet normal  0.000000e+000  0.000000e+000  1.000000e+000
    outer loop
      vertex  1.500000e+001 -1.500000e+001  1.500000e+001
      vertex  7.517826e+000 -8.166535e+000  1.500000e+001
      vertex  6.817761e+000 -8.759459e+000  1.500000e+001
    endloop
  endfacet
  facet normal  0.000000e+000  0.000000e+000  9.999999e-001
    outer loop
      vertex  1.500000e+001 -1.500000e+001  1.500000e+001
      vertex  6.817761e+000 -8.759459e+000  1.500000e+001
      vertex  6.071125e+000 -9.292548e+000  1.500000e+001
    endloop
  endfacet
  facet normal  0.000000e+000  0.000000e+000  1.000000e+000
    outer loop
      vertex  1.500000e+001 -1.500000e+001  1.500000e+001
      vertex  6.071125e+000 -9.292548e+000  1.500000e+001
      vertex  5.283016e+000 -9.762158e+000  1.500000e+001
    endloop
  endfacet
  facet normal  0.000000e+000  0.000000e+000  1.000000e+000
    outer loop
      vertex  1.500000e+001 -1.500000e+001  1.500000e+001
      vertex  5.283016e+000 -9.762158e+000  1.500000e+001
      vertex  4.458819e+000 -1.016508e+001  1.500000e+001
    endloop
  endfacet
  facet normal  0.000000e+000  0.000000e+000  1.000000e+000
    outer loop
      vertex  1.500000e+001 -1.500000e+001  1.500000e+001
      vertex  4.458819e+000 -1.016508e+001  1.500000e+001
      vertex  3.604164e+000 -1.049857e+001  1.500000e+001
    endloop
  endfacet
  facet normal  0.000000e+000  0.000000e+000  1.000000e+000
    outer loop
      vertex  1.500000e+001 -1.500000e+001  1.500000e+001
      vertex  3.604164e+000 -1.049857e+001  1.500000e+001
      vertex  2.724889e+000 -1.076034e+001  1.500000e+001
    endloop
  endfacet
  facet normal  0.000000e+000  0.000000e+000  1.000000e+000
    outer loop
      vertex  1.500000e+001 -1.500000e+001  1.500000e+001
      vertex  2.724889e+000 -1.076034e+001  1.500000e+001
      vertex  1.827000e+000 -1.094861e+001  1.500000e+001
    endloop
  endfacet
  facet normal  0.000000e+000  0.000000e+000  1.000000e+000
    outer loop
      vertex  1.500000e+001 -1.500000e+001  1.500000e+001
      vertex  1.827000e+000 -1.094861e+001  1.500000e+001
      vertex  9.166307e-001 -1.106209e+001  1.500000e+001
    endloop
  endfacet
  facet normal  0.000000e+000  0.000000e+000  1.000000e+000
    outer loop
      vertex  1.500000e+001 -1.500000e+001  1.500000e+001
      vertex  9.166307e-001 -1.106209e+001  1.500000e+001
      vertex -2.038970e-015 -1.110000e+001  1.500000e+001
    endloop
  endfacet
  facet normal  -0.000000e+000  0.000000e+000  1.000000e+000
    outer loop
      vertex  1.500000e+001  1.500000e+001  1.500000e+001
      vertex  6.796565e-016  1.110000e+001  1.500000e+001
      vertex  9.166307e-001  1.106209e+001  1.500000e+001
    endloop
  endfacet
  facet normal  -0.000000e+000  0.000000e+000  1.000000e+000
    outer loop
      vertex  1.500000e+001  1.500000e+001  1.500000e+001
      vertex  9.166307e-001  1.106209e+001  1.500000e+001
      vertex  1.827000e+000  1.094861e+001  1.500000e+001
    endloop
  endfacet
  facet normal  -0.000000e+000  0.000000e+000  1.000000e+000
    outer loop
      vertex  1.500000e+001  1.500000e+001  1.500000e+001
      vertex  1.827000e+000  1.094861e+001  1.500000e+001
      vertex  2.724889e+000  1.076034e+001  1.500000e+001
    endloop
  endfacet
  facet normal  -0.000000e+000  0.000000e+000  1.000000e+000
    outer loop
      vertex  1.500000e+001  1.500000e+001  1.500000e+001
      vertex  2.724889e+000  1.076034e+001  1.500000e+001
      vertex  3.604164e+000  1.049857e+001  1.500000e+001
    endloop
  endfacet
  facet normal  -0.000000e+000  0.000000e+000  1.000000e+000
    outer loop
      vertex  1.500000e+001  1.500000e+001  1.500000e+001
      vertex  3.604164e+000  1.049857e+001  1.500000e+001
      vertex  4.458819e+000  1.016508e+001  1.500000e+001
    endloop
  endfacet
  facet normal  -0.000000e+000  0.000000e+000  1.000000e+000
    outer loop
      vertex  1.500000e+001  1.500000e+001  1.500000e+001
      vertex  4.458819e+000  1.016508e+001  1.500000e+001
      vertex  5.283016e+000  9.762158e+000  1.500000e+001
    endloop
  endfacet
  facet normal  -0.000000e+000  0.000000e+000  1.000000e+000
    outer loop
      vertex  1.500000e+001  1.500000e+001  1.500000e+001
      vertex  5.283016e+000  9.762158e+000  1.500000e+001
      vertex  6.071125e+000  9.292548e+000  1.500000e+001
    endloop
  endfacet
  facet normal  -0.000000e+000  0.000000e+000  9.999999e-001
    outer loop
      vertex  1.500000e+001  1.500000e+001  1.500000e+001
      vertex  6.071125e+000  9.292548e+000  1.500000e+001
      vertex  6.817761e+000  8.759459e+000  1.500000e+001
    endloop
  endfacet
  facet normal  -0.000000e+000  0.000000e+000  1.000000e+000
    outer loop
      vertex  1.500000e+001  1.500000e+001  1.500000e+001
      vertex  6.817761e+000  8.759459e+000  1.500000e+001
      vertex  7.517826e+000  8.166535e+000  1.500000e+001
    endloop
  endfacet
  facet normal  -0.000000e+000  0.000000e+000  1.000000e+000
    outer loop
      vertex  1.500000e+001  1.500000e+001  1.500000e+001
      vertex  7.517826e+000  8.166535e+000  1.500000e+001
      vertex  8.166535e+000  7.517826e+000  1.500000e+001
    endloop
  endfacet
  facet normal  -0.000000e+000  0.000000e+000  1.000000e+000
    outer loop
      vertex  1.500000e+001  1.500000e+001  1.500000e+001
      vertex  8.166535e+000  7.517826e+000  1.500000e+001
      vertex  8.759459e+000  6.817761e+000  1.500000e+001
    endloop
  endfacet
  facet normal  -0.000000e+000  0.000000e+000  9.999999e-001
    outer loop
      vertex  1.500000e+001  1.500000e+001  1.500000e+001
      vertex  8.759459e+000  6.817761e+000  1.500000e+001
      vertex  9.292548e+000  6.071125e+000  1.500000e+001
    endloop
  endfacet
  facet normal  -0.000000e+000  0.000000e+000  1.000000e+000
    outer loop
      vertex  1.500000e+001  1.500000e+001  1.500000e+001
      vertex  9.292548e+000  6.071125e+000  1.500000e+001
      vertex  9.762158e+000  5.283016e+000  1.500000e+001
    endloop
  endfacet
  facet normal  -0.000000e+000  0.000000e+000  1.000000e+000
    outer loop
      vertex  1.500000e+001  1.500000e+001  1.500000e+001
      vertex  9.762158e+000  5.283016e+000  1.500000e+001
      vertex  1.016508e+001  4.458819e+000  1.500000e+001
    endloop
  endfacet
  facet normal  -0.000000e+000  0.000000e+000  1.000000e+000
    outer loop
      vertex  1.500000e+001  1.500000e+001  1.500000e+001
      vertex  1.016508e+001  4.458819e+000  1.500000e+001
      vertex  1.049857e+001  3.604164e+000  1.500000e+001
    endloop
  endfacet
  facet normal  -0.000000e+000  0.000000e+000  1.000000e+000
    outer loop
      vertex  1.500000e+001  1.500000e+001  1.500000e+001
      vertex  1.049857e+001  3.604164e+000  1.500000e+001
      vertex  1.076034e+001  2.724889e+000  1.500000e+001
    endloop
  endfacet
  facet normal  -0.000000e+000  0.000000e+000  1.000000e+000
    outer loop
      vertex  1.500000e+001  1.500000e+001  1.500000e+001
      vertex  1.076034e+001  2.724889e+000  1.500000e+001
      vertex  1.500000e+001 -1.500000e+001  1.500000e+001
    endloop
  endfacet
  facet normal  0.000000e+000  0.000000e+000 -1.000000e+000
    outer loop
      vertex -1.500000e+001 -1.500000e+001 -1.500000e+001
      vertex -1.076034e+001  2.724889e+000 -1.500000e+001
      vertex -1.094861e+001  1.827000e+000 -1.500000e+001
    endloop
  endfacet
  facet normal  0.000000e+000  0.000000e+000 -1.000000e+000
    outer loop
      vertex -1.500000e+001 -1.500000e+001 -1.500000e+001
      vertex -1.094861e+001  1.827000e+000 -1.500000e+001
      vertex -1.106209e+001  9.166307e-001 -1.500000e+001
    endloop
  endfacet
  facet normal  0.000000e+000  0.000000e+000 -1.000000e+000
    outer loop
      vertex -1.500000e+001 -1.500000e+001 -1.500000e+001
      vertex -1.106209e+001  9.166307e-001 -1.500000e+001
      vertex -1.110000e+001  1.359313e-015 -1.500000e+001
    endloop
  endfacet
  facet normal  0.000000e+000  -0.000000e+000 -1.000000e+000
    outer loop
      vertex -1.500000e+001 -1.500000e+001 -1.500000e+001
      vertex -1.110000e+001  1.359313e-015 -1.500000e+001
      vertex -1.106209e+001 -9.166307e-001 -1.500000e+001
    endloop
  endfacet
  facet normal  0.000000e+000  -0.000000e+000 -1.000000e+000
    outer loop
      vertex -1.500000e+001 -1.500000e+001 -1.500000e+001
      vertex -1.106209e+001 -9.166307e-001 -1.500000e+001
      vertex -1.094861e+001 -1.827000e+000 -1.500000e+001
    endloop
  endfacet
  facet normal  0.000000e+000  -0.000000e+000 -1.000000e+000
    outer loop
      vertex -1.500000e+001 -1.500000e+001 -1.500000e+001
      vertex -1.094861e+001 -1.827000e+000 -1.500000e+001
      vertex -1.076034e+001 -2.724889e+000 -1.500000e+001
    endloop
  endfacet
  facet normal  0.000000e+000  -0.000000e+000 -1.000000e+000
    outer loop
      vertex -1.500000e+001 -1.500000e+001 -1.500000e+001
      vertex -1.076034e+001 -2.724889e+000 -1.500000e+001
      vertex -1.049857e+001 -3.604164e+000 -1.500000e+001
    endloop
  endfacet
  facet normal  0.000000e+000  -0.000000e+000 -1.000000e+000
    outer loop
      vertex -1.500000e+001 -1.500000e+001 -1.500000e+001
      vertex -1.049857e+001 -3.604164e+000 -1.500000e+001
      vertex -1.016508e+001 -4.458819e+000 -1.500000e+001
    endloop
  endfacet
  facet normal  0.000000e+000  -0.000000e+000 -1.000000e+000
    outer loop
      vertex -1.500000e+001 -1.500000e+001 -1.500000e+001
      vertex -1.016508e+001 -4.458819e+000 -1.500000e+001
      vertex -9.762158e+000 -5.283016e+000 -1.500000e+001
    endloop
  endfacet
  facet normal  0.000000e+000  -0.000000e+000 -1.000000e+000
    outer loop
      vertex -1.500000e+001 -1.500000e+001 -1.500000e+001
      vertex -9.762158e+000 -5.283016e+000 -1.500000e+001
      vertex -9.292548e+000 -6.071125e+000 -1.500000e+001
    endloop
  endfacet
  facet normal  0.000000e+000  -0.000000e+000 -9.999999e-001
    outer loop
      vertex -1.500000e+001 -1.500000e+001 -1.500000e+001
      vertex -9.292548e+000 -6.071125e+000 -1.500000e+001
      vertex -8.759459e+000 -6.817761e+000 -1.500000e+001
    endloop
  endfacet
  facet normal  0.000000e+000  -0.000000e+000 -1.000000e+000
    outer loop
      vertex -1.500000e+001 -1.500000e+001 -1.500000e+001
      vertex -8.759459e+000 -6.817761e+000 -1.500000e+001
      vertex -8.166535e+000 -7.517826e+000 -1.500000e+001
    endloop
  endfacet
  facet normal  0.000000e+000  -0.000000e+000 -1.000000e+000
    outer loop
      vertex -1.500000e+001 -1.500000e+001 -1.500000e+001
      vertex -8.166535e+000 -7.517826e+000 -1.500000e+001
      vertex -7.517826e+000 -8.166535e+000 -1.500000e+001
    endloop
  endfacet
  facet normal  0.000000e+000  -0.000000e+000 -1.000000e+000
    outer loop
      vertex -1.500000e+001 -1.500000e+001 -1.500000e+001
      vertex -7.517826e+000 -8.166535e+000 -1.500000e+001
      vertex -6.817761e+000 -8.759459e+000 -1.500000e+001
    endloop
  endfacet
  facet normal  0.000000e+000  -0.000000e+000 -9.999999e-001
    outer loop
      vertex -1.500000e+001 -1.500000e+001 -1.500000e+001
      vertex -6.817761e+000 -8.759459e+000 -1.500000e+001
      vertex -6.071125e+000 -9.292548e+000 -1.500000e+001
    endloop
  endfacet
  facet normal  0.000000e+000  -0.000000e+000 -1.000000e+000
    outer loop
      vertex -1.500000e+001 -1.500000e+001 -1.500000e+001
      vertex -6.071125e+000 -9.292548e+000 -1.500000e+001
      vertex -5.283016e+000 -9.762158e+000 -1.500000e+001
    endloop
  endfacet
  facet normal  0.000000e+000  -0.000000e+000 -1.000000e+000
    outer loop
      vertex -1.500000e+001 -1.500000e+001 -1.500000e+001
      vertex -5.283016e+000 -9.762158e+000 -1.500000e+001
      vertex -4.458819e+000 -1.016508e+001 -1.500000e+001
    endloop
  endfacet
  facet normal  0.000000e+000  -0.000000e+000 -1.000000e+000
    outer loop
      vertex -1.500000e+001 -1.500000e+001 -1.500000e+001
      vertex -4.458819e+000 -1.016508e+001 -1.500000e+001
      vertex -3.604164e+000 -1.049857e+001 -1.500000e+001
    endloop
  endfacet
  facet normal  0.000000e+000  -0.000000e+000 -1.000000e+000
    outer loop
      vertex -1.500000e+001 -1.500000e+001 -1.500000e+001
      vertex -3.604164e+000 -1.049857e+001 -1.500000e+001
      vertex -2.724889e+000 -1.076034e+001 -1.500000e+001
    endloop
  endfacet
  facet normal  0.000000e+000  -0.000000e+000 -1.000000e+000
    outer loop
      vertex -1.500000e+001 -1.500000e+001 -1.500000e+001
      vertex -2.724889e+000 -1.076034e+001 -1.500000e+001
      vertex -1.827000e+000 -1.094861e+001 -1.500000e+001
    endloop
  endfacet
  facet normal  0.000000e+000  -0.000000e+000 -1.000000e+000
    outer loop
      vertex -1.500000e+001 -1.500000e+001 -1.500000e+001
      vertex -1.827000e+000 -1.094861e+001 -1.500000e+001
      vertex -9.166307e-001 -1.106209e+001 -1.500000e+001
    endloop
  endfacet
  facet normal  0.000000e+000  -0.000000e+000 -1.000000e+000
    outer loop
      vertex -1.500000e+001 -1.500000e+001 -1.500000e+001
      vertex -9.166307e-001 -1.106209e+001 -1.500000e+001
      vertex -2.038970e-015 -1.110000e+001 -1.500000e+001
    endloop
  endfacet
  facet normal  0.000000e+000  -0.000000e+000 -1.000000e+000
    outer loop
      vertex -1.500000e+001 -1.500000e+001 -1.500000e+001
      vertex -2.038970e-015 -1.110000e+001 -1.500000e+001
      vertex  1.500000e+001 -1.500000e+001 -1.500000e+001
    endloop
  endfacet
  facet normal  -0.000000e+000  0.000000e+000 -1.000000e+000
    outer loop
      vertex -1.500000e+001  1.500000e+001 -1.500000e+001
      vertex  1.500000e+001  1.500000e+001 -1.500000e+001
      vertex  6.796565e-016  1.110000e+001 -1.500000e+001
    endloop
  endfacet
  facet normal  -0.000000e+000  0.000000e+000 -1.000000e+000
    outer loop
      vertex -1.500000e+001  1.500000e+001 -1.500000e+001
      vertex  6.796565e-016  1.110000e+001 -1.500000e+001
      vertex -9.166307e-001  1.106209e+001 -1.500000e+001
    endloop
  endfacet
  facet normal  -0.000000e+000  0.000000e+000 -1.000000e+000
    outer loop
      vertex -1.500000e+001  1.500000e+001 -1.500000e+001
      vertex -9.166307e-001  1.106209e+001 -1.500000e+001
      vertex -1.827000e+000  1.094861e+001 -1.500000e+001
    endloop
  endfacet
  facet normal  -0.000000e+000  0.000000e+000 -1.000000e+000
    outer loop
      vertex -1.500000e+001  1.500000e+001 -1.500000e+001
      vertex -1.827000e+000  1.094861e+001 -1.500000e+001
      vertex -2.724889e+000  1.076034e+001 -1.500000e+001
    endloop
  endfacet
  facet normal  -0.000000e+000  0.000000e+000 -1.000000e+000
    outer loop
      vertex -1.500000e+001  1.500000e+001 -1.500000e+001
      vertex -2.724889e+000  1.076034e+001 -1.500000e+001
      vertex -3.604164e+000  1.049857e+001 -1.500000e+001
    endloop
  endfacet
  facet normal  -0.000000e+000  0.000000e+000 -1.000000e+000
    outer loop
      vertex -1.500000e+001  1.500000e+001 -1.500000e+001
      vertex -3.604164e+000  1.049857e+001 -1.500000e+001
      vertex -4.458819e+000  1.016508e+001 -1.500000e+001
    endloop
  endfacet
  facet normal  -0.000000e+000  0.000000e+000 -1.000000e+000
    outer loop
      vertex -1.500000e+001  1.500000e+001 -1.500000e+001
      vertex -4.458819e+000  1.016508e+001 -1.500000e+001
      vertex -5.283016e+000  9.762158e+000 -1.500000e+001
    endloop
  endfacet
  facet normal  -0.000000e+000  0.000000e+000 -1.000000e+000
    outer loop
      vertex -1.500000e+001  1.500000e+001 -1.500000e+001
      vertex -5.283016e+000  9.762158e+000 -1.500000e+001
      vertex -6.071125e+000  9.292548e+000 -1.500000e+001
    endloop
  endfacet
  facet normal  -0.000000e+000  0.000000e+000 -9.999999e-001
    outer loop
      vertex -1.500000e+001  1.500000e+001 -1.500000e+001
      vertex -6.071125e+000  9.292548e+000 -1.500000e+001
      vertex -6.817761e+000  8.759459e+000 -1.500000e+001
    endloop
  endfacet
  facet normal  -0.000000e+000  0.000000e+000 -1.000000e+000
    outer loop
      vertex -1.500000e+001  1.500000e+001 -1.500000e+001
      vertex -6.817761e+000  8.759459e+000 -1.500000e+001
      vertex -7.517826e+000  8.166535e+000 -1.500000e+001
    endloop
  endfacet
  facet normal  -0.000000e+000  0.000000e+000 -1.000000e+000
    outer loop
      vertex -1.500000e+001  1.500000e+001 -1.500000e+001
      vertex -7.517826e+000  8.166535e+000 -1.500000e+001
      vertex -8.166535e+000  7.517826e+000 -1.500000e+001
    endloop
  endfacet
  facet normal  -0.000000e+000  0.000000e+000 -1.000000e+000
    outer loop
      vertex -1.500000e+001  1.500000e+001 -1.500000e+001
      vertex -8.166535e+000  7.517826e+000 -1.500000e+001
      vertex -8.759459e+000  6.817761e+000 -1.500000e+001
    endloop
  endfacet
  facet normal  -0.000000e+000  0.000000e+000 -9.999999e-001
    outer loop
      vertex -1.500000e+001  1.500000e+001 -1.500000e+001
      vertex -8.759459e+000  6.817761e+000 -1.500000e+001
      vertex -9.292548e+000  6.071125e+000 -1.500000e+001
    endloop
  endfacet
  facet normal  -0.000000e+000  0.000000e+000 -1.000000e+000
    outer loop
      vertex -1.500000e+001  1.500000e+001 -1.500000e+001
      vertex -9.292548e+000  6.071125e+000 -1.500000e+001
      vertex -9.762158e+000  5.283016e+000 -1.500000e+001
    endloop
  endfacet
  facet normal  -0.000000e+000  0.000000e+000 -1.000000e+000
    outer loop
      vertex -1.500000e+001  1.500000e+001 -1.500000e+001
      vertex -9.762158e+000  5.283016e+000 -1.500000e+001
      vertex -1.016508e+001  4.458819e+000 -1.500000e+001
    endloop
  endfacet
  facet normal  -0.000000e+000  0.000000e+000 -1.000000e+000
    outer loop
      vertex -1.500000e+001  1.500000e+001 -1.500000e+001
      vertex -1.016508e+001  4.458819e+000 -1.500000e+001
      vertex -1.049857e+001  3.604164e+000 -1.500000e+001
    endloop
  endfacet
  facet normal  -0.000000e+000  0.000000e+000 -1.000000e+000
    outer loop
      vertex -1.500000e+001  1.500000e+001 -1.500000e+001
      vertex -1.049857e+001  3.604164e+000 -1.500000e+001
      vertex -1.076034e+001  2.724889e+000 -1.500000e+001
    endloop
  endfacet
  facet normal  -0.000000e+000  0.000000e+000 -1.000000e+000
    outer loop
      vertex -1.500000e+001  1.500000e+001 -1.500000e+001
      vertex -1.076034e+001  2.724889e+000 -1.500000e+001
      vertex -1.500000e+001 -1.500000e+001 -1.500000e+001
    endloop
  endfacet
  facet normal  0.000000e+000  0.000000e+000 -1.000000e+000
    outer loop
      vertex  1.500000e+001 -1.500000e+001 -1.500000e+001
      vertex -2.038970e-015 -1.110000e+001 -1.500000e+001
      vertex  9.166307e-001 -1.106209e+001 -1.500000e+001
    endloop
  endfacet
  facet normal  0.000000e+000  0.000000e+000 -1.000000e+000
    outer loop
      vertex  1.500000e+001 -1.500000e+001 -1.500000e+001
      vertex  9.166307e-001 -1.106209e+001 -1.500000e+001
      vertex  1.827000e+000 -1.094861e+001 -1.500000e+001
    endloop
  endfacet
  facet normal  0.000000e+000  0.000000e+000 -1.000000e+000
    outer loop
      vertex  1.500000e+001 -1.500000e+001 -1.500000e+001
      vertex  1.827000e+000 -1.094861e+001 -1.500000e+001
      vertex  2.724889e+000 -1.076034e+001 -1.500000e+001
    endloop
  endfacet
  facet normal  0.000000e+000  0.000000e+000 -1.000000e+000
    outer loop
      vertex  1.500000e+001 -1.500000e+001 -1.500000e+001
      vertex  2.724889e+000 -1.076034e+001 -1.500000e+001
      vertex  3.604164e+000 -1.049857e+001 -1.500000e+001
    endloop
  endfacet
  facet normal  0.000000e+000  0.000000e+000 -1.000000e+000
    outer loop
      vertex  1.500000e+001 -1.500000e+001 -1.500000e+001
      vertex  3.604164e+000 -1.049857e+001 -1.500000e+001
      vertex  4.458819e+000 -1.016508e+001 -1.500000e+001
    endloop
  endfacet
  facet normal  0.000000e+000  0.000000e+000 -1.000000e+000
    outer loop
      vertex  1.500000e+001 -1.500000e+001 -1.500000e+001
      vertex  4.458819e+000 -1.016508e+001 -1.500000e+001
      vertex  5.283016e+000 -9.762158e+000 -1.500000e+001
    endloop
  endfacet
  facet normal  0.000000e+000  0.000000e+000 -1.000000e+000
    outer loop
      vertex  1.500000e+001 -1.500000e+001 -1.500000e+001
      vertex  5.283016e+000 -9.762158e+000 -1.500000e+001
      vertex  6.071125e+000 -9.292548e+000 -1.500000e+001
    endloop
  endfacet
  facet normal  0.000000e+000  0.000000e+000 -9.999999e-001
    outer loop
      vertex  1.500000e+001 -1.500000e+001 -1.500000e+001
      vertex  6.071125e+000 -9.292548e+000 -1.500000e+001
      vertex  6.817761e+000 -8.759459e+000 -1.500000e+001
    endloop
  endfacet
  facet normal  0.000000e+000  0.000000e+000 -1.000000e+000
    outer loop
      vertex  1.500000e+001 -1.500000e+001 -1.500000e+001
      vertex  6.817761e+000 -8.759459e+000 -1.500000e+001
      vertex  7.517826e+000 -8.166535e+000 -1.500000e+001
    endloop
  endfacet
  facet normal  0.000000e+000  0.000000e+000 -1.000000e+000
    outer loop
      vertex  1.500000e+001 -1.500000e+001 -1.500000e+001
      vertex  7.517826e+000 -8.166535e+000 -1.500000e+001
      vertex  8.166535e+000 -7.517826e+000 -1.500000e+001
    endloop
  endfacet
  facet normal  0.000000e+000  0.000000e+000 -1.000000e+000
    outer loop
      vertex  1.500000e+001 -1.500000e+001 -1.500000e+001
      vertex  8.166535e+000 -7.517826e+000 -1.500000e+001
      vertex  8.759459e+000 -6.817761e+000 -1.500000e+001
    endloop
  endfacet
  facet normal  0.000000e+000  0.000000e+000 -9.999999e-001
    outer loop
      vertex  1.500000e+001 -1.500000e+001 -1.500000e+001
      vertex  8.759459e+000 -6.817761e+000 -1.500000e+001
      vertex  9.292548e+000 -6.071125e+000 -1.500000e+001
    endloop
  endfacet
  facet normal  0.000000e+000  0.000000e+000 -1.000000e+000
    outer loop
      vertex  1.500000e+001 -1.500000e+001 -1.500000e+001
      vertex  9.292548e+000 -6.071125e+000 -1.500000e+001
      vertex  9.762158e+000 -5.283016e+000 -1.500000e+001
    endloop
  endfacet
  facet normal  0.000000e+000  0.000000e+000 -1.000000e+000
    outer loop
      vertex  1.500000e+001 -1.500000e+001 -1.500000e+001
      vertex  9.762158e+000 -5.283016e+000 -1.500000e+001
      vertex  1.016508e+001 -4.458819e+000 -1.500000e+001
    endloop
  endfacet
  facet normal  0.000000e+000  0.000000e+000 -1.000000e+000
    outer loop
      vertex  1.500000e+001 -1.500000e+001 -1.500000e+001
      vertex  1.016508e+001 -4.458819e+000 -1.500000e+001
      vertex  1.049857e+001 -3.604164e+000 -1.500000e+001
    endloop
  endfacet
  facet normal  0.000000e+000  0.000000e+000 -1.000000e+000
    outer loop
      vertex  1.500000e+001 -1.500000e+001 -1.500000e+001
      vertex  1.049857e+001 -3.604164e+000 -1.500000e+001
      vertex  1.076034e+001 -2.724889e+000 -1.500000e+001
    endloop
  endfacet
  facet normal  0.000000e+000  0.000000e+000 -1.000000e+000
    outer loop
      vertex  1.500000e+001 -1.500000e+001 -1.500000e+001
      vertex  1.076034e+001 -2.724889e+000 -1.500000e+001
      vertex  1.094861e+001 -1.827000e+000 -1.500000e+001
    endloop
  endfacet
  facet normal  0.000000e+000  0.000000e+000 -1.000000e+000
    outer loop
      vertex  1.500000e+001 -1.500000e+001 -1.500000e+001
      vertex  1.094861e+001 -1.827000e+000 -1.500000e+001
      vertex  1.106209e+001 -9.166307e-001 -1.500000e+001
    endloop
  endfacet
  facet normal  0.000000e+000  0.000000e+000 -1.000000e+000
    outer loop
      vertex  1.500000e+001 -1.500000e+001 -1.500000e+001
      vertex  1.106209e+001 -9.166307e-001 -1.500000e+001
      vertex  1.110000e+001  0.000000e+000 -1.500000e+001
    endloop
  endfacet
  facet normal  0.000000e+000  0.000000e+000 -1.000000e+000
    outer loop
      vertex  1.500000e+001 -1.500000e+001 -1.500000e+001
      vertex  1.110000e+001  0.000000e+000 -1.500000e+001
      vertex  1.106209e+001  9.166307e-001 -1.500000e+001
    endloop
  endfacet
  facet normal  0.000000e+000  0.000000e+000 -1.000000e+000
    outer loop
      vertex  1.500000e+001 -1.500000e+001 -1.500000e+001
      vertex  1.106209e+001  9.166307e-001 -1.500000e+001
      vertex  1.094861e+001  1.827000e+000 -1.500000e+001
    endloop
  endfacet
  facet normal  0.000000e+000  0.000000e+000 -9.999999e-001
    outer loop
      vertex  1.500000e+001 -1.500000e+001 -1.500000e+001
      vertex  1.094861e+001  1.827000e+000 -1.500000e+001
      vertex  1.076034e+001  2.724889e+000 -1.500000e+001
    endloop
  endfacet
  facet normal  0.000000e+000  0.000000e+000 -1.000000e+000
    outer loop
      vertex  1.500000e+001  1.500000e+001 -1.500000e+001
      vertex  1.500000e+001 -1.500000e+001 -1.500000e+001
      vertex  1.076034e+001  2.724889e+000 -1.500000e+001
    endloop
  endfacet
  facet normal  0.000000e+000  0.000000e+000 -1.000000e+000
    outer loop
      vertex  1.500000e+001  1.500000e+001 -1.500000e+001
      vertex  1.076034e+001  2.724889e+000 -1.500000e+001
      vertex  1.049857e+001  3.604164e+000 -1.500000e+001
    endloop
  endfacet
  facet normal  0.000000e+000  0.000000e+000 -1.000000e+000
    outer loop
      vertex  1.500000e+001  1.500000e+001 -1.500000e+001
      vertex  1.049857e+001  3.604164e+000 -1.500000e+001
      vertex  1.016508e+001  4.458819e+000 -1.500000e+001
    endloop
  endfacet
  facet normal  0.000000e+000  0.000000e+000 -1.000000e+000
    outer loop
      vertex  1.500000e+001  1.500000e+001 -1.500000e+001
      vertex  1.016508e+001  4.458819e+000 -1.500000e+001
      vertex  9.762158e+000  5.283016e+000 -1.500000e+001
    endloop
  endfacet
  facet normal  0.000000e+000  0.000000e+000 -1.000000e+000
    outer loop
      vertex  1.500000e+001  1.500000e+001 -1.500000e+001
      vertex  9.762158e+000  5.283016e+000 -1.500000e+001
      vertex  9.292548e+000  6.071125e+000 -1.500000e+001
    endloop
  endfacet
  facet normal  0.000000e+000  0.000000e+000 -9.999999e-001
    outer loop
      vertex  1.500000e+001  1.500000e+001 -1.500000e+001
      vertex  9.292548e+000  6.071125e+000 -1.500000e+001
      vertex  8.759459e+000  6.817761e+000 -1.500000e+001
    endloop
  endfacet
  facet normal  0.000000e+000  0.000000e+000 -1.000000e+000
    outer loop
      vertex  1.500000e+001  1.500000e+001 -1.500000e+001
      vertex  8.759459e+000  6.817761e+000 -1.500000e+001
      vertex  8.166535e+000  7.517826e+000 -1.500000e+001
    endloop
  endfacet
  facet normal  0.000000e+000  0.000000e+000 -1.000000e+000
    outer loop
      vertex  1.500000e+001  1.500000e+001 -1.500000e+001
      vertex  8.166535e+000  7.517826e+000 -1.500000e+001
      vertex  7.517826e+000  8.166535e+000 -1.500000e+001
    endloop
  endfacet
  facet normal  0.000000e+000  0.000000e+000 -1.000000e+000
    outer loop
      vertex  1.500000e+001  1.500000e+001 -1.500000e+001
      vertex  7.517826e+000  8.166535e+000 -1.500000e+001
      vertex  6.817761e+000  8.759459e+000 -1.500000e+001
    endloop
  endfacet
  facet normal  0.000000e+000  0.000000e+000 -9.999999e-001
    outer loop
      vertex  1.500000e+001  1.500000e+001 -1.500000e+001
      vertex  6.817761e+000  8.759459e+000 -1.500000e+001
      vertex  6.071125e+000  9.292548e+000 -1.500000e+001
    endloop
  endfacet
  facet normal  0.000000e+000  0.000000e+000 -1.000000e+000
    outer loop
      vertex  1.500000e+001  1.500000e+001 -1.500000e+001
      vertex  6.071125e+000  9.292548e+000 -1.500000e+001
      vertex  5.283016e+000  9.762158e+000 -1.500000e+001
    endloop
  endfacet
  facet normal  0.000000e+000  0.000000e+000 -1.000000e+000
    outer loop
      vertex  1.500000e+001  1.500000e+001 -1.500000e+001
      vertex  5.283016e+000  9.762158e+000 -1.500000e+001
      vertex  4.458819e+000  1.016508e+001 -1.500000e+001
    endloop
  endfacet
  facet normal  0.000000e+000  0.000000e+000 -1.000000e+000
    outer loop
      vertex  1.500000e+001  1.500000e+001 -1.500000e+001
      vertex  4.458819e+000  1.016508e+001 -1.500000e+001
      vertex  3.604164e+000  1.049857e+001 -1.500000e+001
    endloop
  endfacet
  facet normal  0.000000e+000  0.000000e+000 -1.000000e+000
    outer loop
      vertex  1.500000e+001  1.500000e+001 -1.500000e+001
      vertex  3.604164e+000  1.049857e+001 -1.500000e+001
      vertex  2.724889e+000  1.076034e+001 -1.500000e+001
    endloop
  endfacet
  facet normal  0.000000e+000  0.000000e+000 -1.000000e+000
    outer loop
      vertex  1.500000e+001  1.500000e+001 -1.500000e+001
      vertex  2.724889e+000  1.076034e+001 -1.500000e+001
      vertex  1.827000e+000  1.094861e+001 -1.500000e+001
    endloop
  endfacet
  facet normal  0.000000e+000  0.000000e+000 -1.000000e+000
    outer loop
      vertex  1.500000e+001  1.500000e+001 -1.500000e+001
      vertex  1.827000e+000  1.094861e+001 -1.500000e+001
      vertex  9.166307e-001  1.106209e+001 -1.500000e+001
    endloop
  endfacet
  facet normal  0.000000e+000  0.000000e+000 -1.000000e+000
    outer loop
      vertex  1.500000e+001  1.500000e+001 -1.500000e+001
      vertex  9.166307e-001  1.106209e+001 -1.500000e+001
      vertex  6.796565e-016  1.110000e+001 -1.500000e+001
    endloop
  endfacet
  facet normal  4.132524e-002 -9.991457e-001  0.000000e+000
    outer loop
      vertex  6.796565e-016  1.110000e+001 -1.500000e+001
      vertex -9.166307e-001  1.106209e+001  1.500000e+001
      vertex -9.166307e-001  1.106209e+001 -1.500000e+001
    endloop
  endfacet
  facet normal  1.236930e-001 -9.923205e-001  0.000000e+000
    outer loop
      vertex -9.166307e-001  1.106209e+001 -1.500000e+001
      vertex -9.166307e-001  1.106209e+001  1.500000e+001
      vertex -1.827000e+000  1.094861e+001  1.500000e+001
    endloop
  endfacet
  facet normal  1.236930e-001 -9.923205e-001  0.000000e+000
    outer loop
      vertex -9.166307e-001  1.106209e+001 -1.500000e+001
      vertex -1.827000e+000  1.094861e+001  1.500000e+001
      vertex -1.827000e+000  1.094861e+001 -1.500000e+001
    endloop
  endfacet
  facet normal  2.052155e-001 -9.787167e-001  0.000000e+000
    outer loop
      vertex -1.827000e+000  1.094861e+001 -1.500000e+001
      vertex -1.827000e+000  1.094861e+001  1.500000e+001
      vertex -2.724889e+000  1.076034e+001  1.500000e+001
    endloop
  endfacet
  facet normal  2.052155e-001 -9.787167e-001  0.000000e+000
    outer loop
      vertex -1.827000e+000  1.094861e+001 -1.500000e+001
      vertex -2.724889e+000  1.076034e+001  1.500000e+001
      vertex -2.724889e+000  1.076034e+001 -1.500000e+001
    endloop
  endfacet
  facet normal  2.853358e-001 -9.584276e-001  0.000000e+000
    outer loop
      vertex -2.724889e+000  1.076034e+001 -1.500000e+001
      vertex -2.724889e+000  1.076034e+001  1.500000e+001
      vertex -3.604164e+000  1.049857e+001  1.500000e+001
    endloop
  endfacet
  facet normal  2.853358e-001 -9.584276e-001  0.000000e+000
    outer loop
      vertex -2.724889e+000  1.076034e+001 -1.500000e+001
      vertex -3.604164e+000  1.049857e+001  1.500000e+001
      vertex -3.604164e+000  1.049857e+001 -1.500000e+001
    endloop
  endfacet
  facet normal  3.635080e-001 -9.315910e-001  0.000000e+000
    outer loop
      vertex -3.604164e+000  1.049857e+001 -1.500000e+001
      vertex -3.604164e+000  1.049857e+001  1.500000e+001
      vertex -4.458819e+000  1.016508e+001  1.500000e+001
    endloop
  endfacet
  facet normal  3.635080e-001 -9.315910e-001  0.000000e+000
    outer loop
      vertex -3.604164e+000  1.049857e+001 -1.500000e+001
      vertex -4.458819e+000  1.016508e+001  1.500000e+001
      vertex -4.458819e+000  1.016508e+001 -1.500000e+001
    endloop
  endfacet
  facet normal  4.391968e-001 -8.983909e-001  0.000000e+000
    outer loop
      vertex -4.458819e+000  1.016508e+001 -1.500000e+001
      vertex -4.458819e+000  1.016508e+001  1.500000e+001
      vertex -5.283016e+000  9.762158e+000  1.500000e+001
    endloop
  endfacet
  facet normal  4.391968e-001 -8.983909e-001  0.000000e+000
    outer loop
      vertex -4.458819e+000  1.016508e+001 -1.500000e+001
      vertex -5.283016e+000  9.762158e+000  1.500000e+001
      vertex -5.283016e+000  9.762158e+000 -1.500000e+001
    endloop
  endfacet
  facet normal  5.118847e-001 -8.590541e-001  0.000000e+000
    outer loop
      vertex -5.283016e+000  9.762158e+000 -1.500000e+001
      vertex -5.283016e+000  9.762158e+000  1.500000e+001
      vertex -6.071125e+000  9.292548e+000  1.500000e+001
    endloop
  endfacet
  facet normal  5.118847e-001 -8.590541e-001  0.000000e+000
    outer loop
      vertex -5.283016e+000  9.762158e+000 -1.500000e+001
      vertex -6.071125e+000  9.292548e+000  1.500000e+001
      vertex -6.071125e+000  9.292548e+000 -1.500000e+001
    endloop
  endfacet
  facet normal  5.810772e-001 -8.138484e-001  0.000000e+000
    outer loop
      vertex -6.071125e+000  9.292548e+000 -1.500000e+001
      vertex -6.071125e+000  9.292548e+000  1.500000e+001
      vertex -6.817761e+000  8.759459e+000  1.500000e+001
    endloop
  endfacet
  facet normal  5.810772e-001 -8.138484e-001  0.000000e+000
    outer loop
      vertex -6.071125e+000  9.292548e+000 -1.500000e+001
      vertex -6.817761e+000  8.759459e+000  1.500000e+001
      vertex -6.817761e+000  8.759459e+000 -1.500000e+001
    endloop
  endfacet
  facet normal  6.462989e-001 -7.630842e-001  0.000000e+000
    outer loop
      vertex -6.817761e+000  8.759459e+000 -1.500000e+001
      vertex -6.817761e+000  8.759459e+000  1.500000e+001
      vertex -7.517826e+000  8.166535e+000  1.500000e+001
    endloop
  endfacet
  facet normal  6.462989e-001 -7.630842e-001  0.000000e+000
    outer loop
      vertex -6.817761e+000  8.759459e+000 -1.500000e+001
      vertex -7.517826e+000  8.166535e+000  1.500000e+001
      vertex -7.517826e+000  8.166535e+000 -1.500000e+001
    endloop
  endfacet
  facet normal  7.071068e-001 -7.071068e-001  0.000000e+000
    outer loop
      vertex -7.517826e+000  8.166535e+000 -1.500000e+001
      vertex -7.517826e+000  8.166535e+000  1.500000e+001
      vertex -8.166535e+000  7.517826e+000  1.500000e+001
    endloop
  endfacet
  facet normal  7.071068e-001 -7.071068e-001  0.000000e+000
    outer loop
      vertex -7.517826e+000  8.166535e+000 -1.500000e+001
      vertex -8.166535e+000  7.517826e+000  1.500000e+001
      vertex -8.166535e+000  7.517826e+000 -1.500000e+001
    endloop
  endfacet
  facet normal  7.630842e-001 -6.462989e-001  0.000000e+000
    outer loop
      vertex -8.166535e+000  7.517826e+000 -1.500000e+001
      vertex -8.166535e+000  7.517826e+000  1.500000e+001
      vertex -8.759459e+000  6.817761e+000  1.500000e+001
    endloop
  endfacet
  facet normal  7.630842e-001 -6.462989e-001  0.000000e+000
    outer loop
      vertex -8.166535e+000  7.517826e+000 -1.500000e+001
      vertex -8.759459e+000  6.817761e+000  1.500000e+001
      vertex -8.759459e+000  6.817761e+000 -1.500000e+001
    endloop
  endfacet
  facet normal  8.138484e-001 -5.810772e-001  0.000000e+000
    outer loop
      vertex -8.759459e+000  6.817761e+000 -1.500000e+001
      vertex -8.759459e+000  6.817761e+000  1.500000e+001
      vertex -9.292548e+000  6.071125e+000  1.500000e+001
    endloop
  endfacet
  facet normal  8.138484e-001 -5.810772e-001  0.000000e+000
    outer loop
      vertex -8.759459e+000  6.817761e+000 -1.500000e+001
      vertex -9.292548e+000  6.071125e+000  1.500000e+001
      vertex -9.292548e+000  6.071125e+000 -1.500000e+001
    endloop
  endfacet
  facet normal  8.590541e-001 -5.118847e-001  0.000000e+000
    outer loop
      vertex -9.292548e+000  6.071125e+000 -1.500000e+001
      vertex -9.292548e+000  6.071125e+000  1.500000e+001
      vertex -9.762158e+000  5.283016e+000  1.500000e+001
    endloop
  endfacet
  facet normal  8.590541e-001 -5.118847e-001  0.000000e+000
    outer loop
      vertex -9.292548e+000  6.071125e+000 -1.500000e+001
      vertex -9.762158e+000  5.283016e+000  1.500000e+001
      vertex -9.762158e+000  5.283016e+000 -1.500000e+001
    endloop
  endfacet
  facet normal  8.983909e-001 -4.391968e-001  0.000000e+000
    outer loop
      vertex -9.762158e+000  5.283016e+000 -1.500000e+001
      vertex -9.762158e+000  5.283016e+000  1.500000e+001
      vertex -1.016508e+001  4.458819e+000  1.500000e+001
    endloop
  endfacet
  facet normal  8.983909e-001 -4.391968e-001  0.000000e+000
    outer loop
      vertex -9.762158e+000  5.283016e+000 -1.500000e+001
      vertex -1.016508e+001  4.458819e+000  1.500000e+001
      vertex -1.016508e+001  4.458819e+000 -1.500000e+001
    endloop
  endfacet
  facet normal  9.315910e-001 -3.635080e-001  0.000000e+000
    outer loop
      vertex -1.016508e+001  4.458819e+000 -1.500000e+001
      vertex -1.016508e+001  4.458819e+000  1.500000e+001
      vertex -1.049857e+001  3.604164e+000  1.500000e+001
    endloop
  endfacet
  facet normal  9.315910e-001 -3.635080e-001  0.000000e+000
    outer loop
      vertex -1.016508e+001  4.458819e+000 -1.500000e+001
      vertex -1.049857e+001  3.604164e+000  1.500000e+001
      vertex -1.049857e+001  3.604164e+000 -1.500000e+001
    endloop
  endfacet
  facet normal  9.584276e-001 -2.853358e-001  0.000000e+000
    outer loop
      vertex -1.049857e+001  3.604164e+000 -1.500000e+001
      vertex -1.049857e+001  3.604164e+000  1.500000e+001
      vertex -1.076034e+001  2.724889e+000  1.500000e+001
    endloop
  endfacet
  facet normal  9.584276e-001 -2.853358e-001  0.000000e+000
    outer loop
      vertex -1.049857e+001  3.604164e+000 -1.500000e+001
      vertex -1.076034e+001  2.724889e+000  1.500000e+001
      vertex -1.076034e+001  2.724889e+000 -1.500000e+001
    endloop
  endfacet
  facet normal  9.787167e-001 -2.052155e-001  0.000000e+000
    outer loop
      vertex -1.076034e+001  2.724889e+000 -1.500000e+001
      vertex -1.076034e+001  2.724889e+000  1.500000e+001
      vertex -1.094861e+001  1.827000e+000  1.500000e+001
    endloop
  endfacet
  facet normal  9.787167e-001 -2.052155e-001  0.000000e+000
    outer loop
      vertex -1.076034e+001  2.724889e+000 -1.500000e+001
      vertex -1.094861e+001  1.827000e+000  1.500000e+001
      vertex -1.094861e+001  1.827000e+000 -1.500000e+001
    endloop
  endfacet
  facet normal  9.923205e-001 -1.236930e-001  0.000000e+000
    outer loop
      vertex -1.094861e+001  1.827000e+000 -1.500000e+001
      vertex -1.094861e+001  1.827000e+000  1.500000e+001
      vertex -1.106209e+001  9.166307e-001  1.500000e+001
    endloop
  endfacet
  facet normal  9.923205e-001 -1.236930e-001  0.000000e+000
    outer loop
      vertex -1.094861e+001  1.827000e+000 -1.500000e+001
      vertex -1.106209e+001  9.166307e-001  1.500000e+001
      vertex -1.106209e+001  9.166307e-001 -1.500000e+001
    endloop
  endfacet
  facet normal  9.991457e-001 -4.132524e-002  0.000000e+000
    outer loop
      vertex -1.106209e+001  9.166307e-001 -1.500000e+001
      vertex -1.106209e+001  9.166307e-001  1.500000e+001
      vertex -1.110000e+001  1.359313e-015  1.500000e+001
    endloop
  endfacet
  facet normal  9.991457e-001 -4.132524e-002  0.000000e+000
    outer loop
      vertex -1.106209e+001  9.166307e-001 -1.500000e+001
      vertex -1.110000e+001  1.359313e-015  1.500000e+001
      vertex -1.110000e+001  1.359313e-015 -1.500000e+001
    endloop
  endfacet
  facet normal  4.132524e-002 -9.991457e-001  0.000000e+000
    outer loop
      vertex -9.166307e-001  1.106209e+001  1.500000e+001
      vertex  6.796565e-016  1.110000e+001 -1.500000e+001
      vertex  6.796565e-016  1.110000e+001  1.500000e+001
    endloop
  endfacet
  facet normal -4.132524e-002 -9.991457e-001  -0.000000e+000
    outer loop
      vertex  6.796565e-016  1.110000e+001  1.500000e+001
      vertex  6.796565e-016  1.110000e+001 -1.500000e+001
      vertex  9.166307e-001  1.106209e+001 -1.500000e+001
    endloop
  endfacet
  facet normal -4.132524e-002 -9.991457e-001  0.000000e+000
    outer loop
      vertex  6.796565e-016  1.110000e+001  1.500000e+001
      vertex  9.166307e-001  1.106209e+001 -1.500000e+001
      vertex  9.166307e-001  1.106209e+001  1.500000e+001
    endloop
  endfacet
  facet normal -1.236930e-001 -9.923205e-001  -0.000000e+000
    outer loop
      vertex  9.166307e-001  1.106209e+001  1.500000e+001
      vertex  9.166307e-001  1.106209e+001 -1.500000e+001
      vertex  1.827000e+000  1.094861e+001 -1.500000e+001
    endloop
  endfacet
  facet normal -1.236930e-001 -9.923205e-001  0.000000e+000
    outer loop
      vertex  9.166307e-001  1.106209e+001  1.500000e+001
      vertex  1.827000e+000  1.094861e+001 -1.500000e+001
      vertex  1.827000e+000  1.094861e+001  1.500000e+001
    endloop
  endfacet
  facet normal -2.052155e-001 -9.787167e-001  -0.000000e+000
    outer loop
      vertex  1.827000e+000  1.094861e+001  1.500000e+001
      vertex  1.827000e+000  1.094861e+001 -1.500000e+001
      vertex  2.724889e+000  1.076034e+001 -1.500000e+001
    endloop
  endfacet
  facet normal -2.052155e-001 -9.787167e-001  0.000000e+000
    outer loop
      vertex  1.827000e+000  1.094861e+001  1.500000e+001
      vertex  2.724889e+000  1.076034e+001 -1.500000e+001
      vertex  2.724889e+000  1.076034e+001  1.500000e+001
    endloop
  endfacet
  facet normal -2.853358e-001 -9.584276e-001  -0.000000e+000
    outer loop
      vertex  2.724889e+000  1.076034e+001  1.500000e+001
      vertex  2.724889e+000  1.076034e+001 -1.500000e+001
      vertex  3.604164e+000  1.049857e+001 -1.500000e+001
    endloop
  endfacet
  facet normal -2.853358e-001 -9.584276e-001  0.000000e+000
    outer loop
      vertex  2.724889e+000  1.076034e+001  1.500000e+001
      vertex  3.604164e+000  1.049857e+001 -1.500000e+001
      vertex  3.604164e+000  1.049857e+001  1.500000e+001
    endloop
  endfacet
  facet normal -3.635080e-001 -9.315910e-001  -0.000000e+000
    outer loop
      vertex  3.604164e+000  1.049857e+001  1.500000e+001
      vertex  3.604164e+000  1.049857e+001 -1.500000e+001
      vertex  4.458819e+000  1.016508e+001 -1.500000e+001
    endloop
  endfacet
  facet normal -3.635080e-001 -9.315910e-001  0.000000e+000
    outer loop
      vertex  3.604164e+000  1.049857e+001  1.500000e+001
      vertex  4.458819e+000  1.016508e+001 -1.500000e+001
      vertex  4.458819e+000  1.016508e+001  1.500000e+001
    endloop
  endfacet
  facet normal -4.391968e-001 -8.983909e-001  -0.000000e+000
    outer loop
      vertex  4.458819e+000  1.016508e+001  1.500000e+001
      vertex  4.458819e+000  1.016508e+001 -1.500000e+001
      vertex  5.283016e+000  9.762158e+000 -1.500000e+001
    endloop
  endfacet
  facet normal -4.391968e-001 -8.983909e-001  0.000000e+000
    outer loop
      vertex  4.458819e+000  1.016508e+001  1.500000e+001
      vertex  5.283016e+000  9.762158e+000 -1.500000e+001
      vertex  5.283016e+000  9.762158e+000  1.500000e+001
    endloop
  endfacet
  facet normal -5.118847e-001 -8.590541e-001  -0.000000e+000
    outer loop
      vertex  5.283016e+000  9.762158e+000  1.500000e+001
      vertex  5.283016e+000  9.762158e+000 -1.500000e+001
      vertex  6.071125e+000  9.292548e+000 -1.500000e+001
    endloop
  endfacet
  facet normal -5.118847e-001 -8.590541e-001  0.000000e+000
    outer loop
      vertex  5.283016e+000  9.762158e+000  1.500000e+001
      vertex  6.071125e+000  9.292548e+000 -1.500000e+001
      vertex  6.071125e+000  9.292548e+000  1.500000e+001
    endloop
  endfacet
  facet normal -5.810772e-001 -8.138484e-001  -0.000000e+000
    outer loop
      vertex  6.071125e+000  9.292548e+000  1.500000e+001
      vertex  6.071125e+000  9.292548e+000 -1.500000e+001
      vertex  6.817761e+000  8.759459e+000 -1.500000e+001
    endloop
  endfacet
  facet normal -5.810772e-001 -8.138484e-001  0.000000e+000
    outer loop
      vertex  6.071125e+000  9.292548e+000  1.500000e+001
      vertex  6.817761e+000  8.759459e+000 -1.500000e+001
      vertex  6.817761e+000  8.759459e+000  1.500000e+001
    endloop
  endfacet
  facet normal -6.462989e-001 -7.630842e-001  -0.000000e+000
    outer loop
      vertex  6.817761e+000  8.759459e+000  1.500000e+001
      vertex  6.817761e+000  8.759459e+000 -1.500000e+001
      vertex  7.517826e+000  8.166535e+000 -1.500000e+001
    endloop
  endfacet
  facet normal -6.462989e-001 -7.630842e-001  0.000000e+000
    outer loop
      vertex  6.817761e+000  8.759459e+000  1.500000e+001
      vertex  7.517826e+000  8.166535e+000 -1.500000e+001
      vertex  7.517826e+000  8.166535e+000  1.500000e+001
    endloop
  endfacet
  facet normal -7.071068e-001 -7.071068e-001  -0.000000e+000
    outer loop
      vertex  7.517826e+000  8.166535e+000  1.500000e+001
      vertex  7.517826e+000  8.166535e+000 -1.500000e+001
      vertex  8.166535e+000  7.517826e+000 -1.500000e+001
    endloop
  endfacet
  facet normal -7.071068e-001 -7.071068e-001  0.000000e+000
    outer loop
      vertex  7.517826e+000  8.166535e+000  1.500000e+001
      vertex  8.166535e+000  7.517826e+000 -1.500000e+001
      vertex  8.166535e+000  7.517826e+000  1.500000e+001
    endloop
  endfacet
  facet normal -7.630842e-001 -6.462989e-001  -0.000000e+000
    outer loop
      vertex  8.166535e+000  7.517826e+000  1.500000e+001
      vertex  8.166535e+000  7.517826e+000 -1.500000e+001
      vertex  8.759459e+000  6.817761e+000 -1.500000e+001
    endloop
  endfacet
  facet normal -7.630842e-001 -6.462989e-001  0.000000e+000
    outer loop
      vertex  8.166535e+000  7.517826e+000  1.500000e+001
      vertex  8.759459e+000  6.817761e+000 -1.500000e+001
      vertex  8.759459e+000  6.817761e+000  1.500000e+001
    endloop
  endfacet
  facet normal -8.138484e-001 -5.810772e-001  -0.000000e+000
    outer loop
      vertex  8.759459e+000  6.817761e+000  1.500000e+001
      vertex  8.759459e+000  6.817761e+000 -1.500000e+001
      vertex  9.292548e+000  6.071125e+000 -1.500000e+001
    endloop
  endfacet
  facet normal -8.138484e-001 -5.810772e-001  0.000000e+000
    outer loop
      vertex  8.759459e+000  6.817761e+000  1.500000e+001
      vertex  9.292548e+000  6.071125e+000 -1.500000e+001
      vertex  9.292548e+000  6.071125e+000  1.500000e+001
    endloop
  endfacet
  facet normal -8.590541e-001 -5.118847e-001  -0.000000e+000
    outer loop
      vertex  9.292548e+000  6.071125e+000  1.500000e+001
      vertex  9.292548e+000  6.071125e+000 -1.500000e+001
      vertex  9.762158e+000  5.283016e+000 -1.500000e+001
    endloop
  endfacet
  facet normal -8.590541e-001 -5.118847e-001  0.000000e+000
    outer loop
      vertex  9.292548e+000  6.071125e+000  1.500000e+001
      vertex  9.762158e+000  5.283016e+000 -1.500000e+001
      vertex  9.762158e+000  5.283016e+000  1.500000e+001
    endloop
  endfacet
  facet normal -8.983909e-001 -4.391968e-001  -0.000000e+000
    outer loop
      vertex  9.762158e+000  5.283016e+000  1.500000e+001
      vertex  9.762158e+000  5.283016e+000 -1.500000e+001
      vertex  1.016508e+001  4.458819e+000 -1.500000e+001
    endloop
  endfacet
  facet normal -8.983909e-001 -4.391968e-001  0.000000e+000
    outer loop
      vertex  9.762158e+000  5.283016e+000  1.500000e+001
      vertex  1.016508e+001  4.458819e+000 -1.500000e+001
      vertex  1.016508e+001  4.458819e+000  1.500000e+001
    endloop
  endfacet
  facet normal -9.315910e-001 -3.635080e-001  -0.000000e+000
    outer loop
      vertex  1.016508e+001  4.458819e+000  1.500000e+001
      vertex  1.016508e+001  4.458819e+000 -1.500000e+001
      vertex  1.049857e+001  3.604164e+000 -1.500000e+001
    endloop
  endfacet
  facet normal -9.315910e-001 -3.635080e-001  0.000000e+000
    outer loop
      vertex  1.016508e+001  4.458819e+000  1.500000e+001
      vertex  1.049857e+001  3.604164e+000 -1.500000e+001
      vertex  1.049857e+001  3.604164e+000  1.500000e+001
    endloop
  endfacet
  facet normal -9.584276e-001 -2.853358e-001  -0.000000e+000
    outer loop
      vertex  1.049857e+001  3.604164e+000  1.500000e+001
      vertex  1.049857e+001  3.604164e+000 -1.500000e+001
      vertex  1.076034e+001  2.724889e+000 -1.500000e+001
    endloop
  endfacet
  facet normal -9.584276e-001 -2.853358e-001  0.000000e+000
    outer loop
      vertex  1.049857e+001  3.604164e+000  1.500000e+001
      vertex  1.076034e+001  2.724889e+000 -1.500000e+001
      vertex  1.076034e+001  2.724889e+000  1.500000e+001
    endloop
  endfacet
  facet normal -9.787167e-001 -2.052155e-001  -0.000000e+000
    outer loop
      vertex  1.076034e+001  2.724889e+000  1.500000e+001
      vertex  1.076034e+001  2.724889e+000 -1.500000e+001
      vertex  1.094861e+001  1.827000e+000 -1.500000e+001
    endloop
  endfacet
  facet normal -9.787167e-001 -2.052155e-001  0.000000e+000
    outer loop
      vertex  1.076034e+001  2.724889e+000  1.500000e+001
      vertex  1.094861e+001  1.827000e+000 -1.500000e+001
      vertex  1.094861e+001  1.827000e+000  1.500000e+001
    endloop
  endfacet
  facet normal -9.923205e-001 -1.236930e-001  -0.000000e+000
    outer loop
      vertex  1.094861e+001  1.827000e+000  1.500000e+001
      vertex  1.094861e+001  1.827000e+000 -1.500000e+001
      vertex  1.106209e+001  9.166307e-001 -1.500000e+001
    endloop
  endfacet
  facet normal -9.923205e-001 -1.236930e-001  0.000000e+000
    outer loop
      vertex  1.094861e+001  1.827000e+000  1.500000e+001
      vertex  1.106209e+001  9.166307e-001 -1.500000e+001
      vertex  1.106209e+001  9.166307e-001  1.500000e+001
    endloop
  endfacet
  facet normal -9.991457e-001 -4.132524e-002  -0.000000e+000
    outer loop
      vertex  1.106209e+001  9.166307e-001  1.500000e+001
      vertex  1.106209e+001  9.166307e-001 -1.500000e+001
      vertex  1.110000e+001  0.000000e+000 -1.500000e+001
    endloop
  endfacet
  facet normal -9.991457e-001 -4.132524e-002  0.000000e+000
    outer loop
      vertex  1.106209e+001  9.166307e-001  1.500000e+001
      vertex  1.110000e+001  0.000000e+000 -1.500000e+001
      vertex  1.110000e+001  0.000000e+000  1.500000e+001
    endloop
  endfacet
  facet normal -4.132524e-002  9.991457e-001  0.000000e+000
    outer loop
      vertex -2.038970e-015 -1.110000e+001 -1.500000e+001
      vertex  9.166307e-001 -1.106209e+001  1.500000e+001
      vertex  9.166307e-001 -1.106209e+001 -1.500000e+001
    endloop
  endfacet
  facet normal -1.236930e-001  9.923205e-001  0.000000e+000
    outer loop
      vertex  9.166307e-001 -1.106209e+001 -1.500000e+001
      vertex  9.166307e-001 -1.106209e+001  1.500000e+001
      vertex  1.827000e+000 -1.094861e+001  1.500000e+001
    endloop
  endfacet
  facet normal -1.236930e-001  9.923205e-001  0.000000e+000
    outer loop
      vertex  9.166307e-001 -1.106209e+001 -1.500000e+001
      vertex  1.827000e+000 -1.094861e+001  1.500000e+001
      vertex  1.827000e+000 -1.094861e+001 -1.500000e+001
    endloop
  endfacet
  facet normal -2.052155e-001  9.787167e-001  0.000000e+000
    outer loop
      vertex  1.827000e+000 -1.094861e+001 -1.500000e+001
      vertex  1.827000e+000 -1.094861e+001  1.500000e+001
      vertex  2.724889e+000 -1.076034e+001  1.500000e+001
    endloop
  endfacet
  facet normal -2.052155e-001  9.787167e-001  0.000000e+000
    outer loop
      vertex  1.827000e+000 -1.094861e+001 -1.500000e+001
      vertex  2.724889e+000 -1.076034e+001  1.500000e+001
      vertex  2.724889e+000 -1.076034e+001 -1.500000e+001
    endloop
  endfacet
  facet normal -2.853358e-001  9.584276e-001  0.000000e+000
    outer loop
      vertex  2.724889e+000 -1.076034e+001 -1.500000e+001
      vertex  2.724889e+000 -1.076034e+001  1.500000e+001
      vertex  3.604164e+000 -1.049857e+001  1.500000e+001
    endloop
  endfacet
  facet normal -2.853358e-001  9.584276e-001  0.000000e+000
    outer loop
      vertex  2.724889e+000 -1.076034e+001 -1.500000e+001
      vertex  3.604164e+000 -1.049857e+001  1.500000e+001
      vertex  3.604164e+000 -1.049857e+001 -1.500000e+001
    endloop
  endfacet
  facet normal -3.635080e-001  9.315910e-001  0.000000e+000
    outer loop
      vertex  3.604164e+000 -1.049857e+001 -1.500000e+001
      vertex  3.604164e+000 -1.049857e+001  1.500000e+001
      vertex  4.458819e+000 -1.016508e+001  1.500000e+001
    endloop
  endfacet
  facet normal -3.635080e-001  9.315910e-001  0.000000e+000
    outer loop
      vertex  3.604164e+000 -1.049857e+001 -1.500000e+001
      vertex  4.458819e+000 -1.016508e+001  1.500000e+001
      vertex  4.458819e+000 -1.016508e+001 -1.500000e+001
    endloop
  endfacet
  facet normal -4.391968e-001  8.983909e-001  0.000000e+000
    outer loop
      vertex  4.458819e+000 -1.016508e+001 -1.500000e+001
      vertex  4.458819e+000 -1.016508e+001  1.500000e+001
      vertex  5.283016e+000 -9.762158e+000  1.500000e+001
    endloop
  endfacet
  facet normal -4.391968e-001  8.983909e-001  0.000000e+000
    outer loop
      vertex  4.458819e+000 -1.016508e+001 -1.500000e+001
      vertex  5.283016e+000 -9.762158e+000  1.500000e+001
      vertex  5.283016e+000 -9.762158e+000 -1.500000e+001
    endloop
  endfacet
  facet normal -5.118847e-001  8.590541e-001  0.000000e+000
    outer loop
      vertex  5.283016e+000 -9.762158e+000 -1.500000e+001
      vertex  5.283016e+000 -9.762158e+000  1.500000e+001
      vertex  6.071125e+000 -9.292548e+000  1.500000e+001
    endloop
  endfacet
  facet normal -5.118847e-001  8.590541e-001  0.000000e+000
    outer loop
      vertex  5.283016e+000 -9.762158e+000 -1.500000e+001
      vertex  6.071125e+000 -9.292548e+000  1.500000e+001
      vertex  6.071125e+000 -9.292548e+000 -1.500000e+001
    endloop
  endfacet
  facet normal -5.810772e-001  8.138484e-001  0.000000e+000
    outer loop
      vertex  6.071125e+000 -9.292548e+000 -1.500000e+001
      vertex  6.071125e+000 -9.292548e+000  1.500000e+001
      vertex  6.817761e+000 -8.759459e+000  1.500000e+001
    endloop
  endfacet
  facet normal -5.810772e-001  8.138484e-001  0.000000e+000
    outer loop
      vertex  6.071125e+000 -9.292548e+000 -1.500000e+001
      vertex  6.817761e+000 -8.759459e+000  1.500000e+001
      vertex  6.817761e+000 -8.759459e+000 -1.500000e+001
    endloop
  endfacet
  facet normal -6.462989e-001  7.630842e-001  0.000000e+000
    outer loop
      vertex  6.817761e+000 -8.759459e+000 -1.500000e+001
      vertex  6.817761e+000 -8.759459e+000  1.500000e+001
      vertex  7.517826e+000 -8.166535e+000  1.500000e+001
    endloop
  endfacet
  facet normal -6.462989e-001  7.630842e-001  0.000000e+000
    outer loop
      vertex  6.817761e+000 -8.759459e+000 -1.500000e+001
      vertex  7.517826e+000 -8.166535e+000  1.500000e+001
      vertex  7.517826e+000 -8.166535e+000 -1.500000e+001
    endloop
  endfacet
  facet normal -7.071068e-001  7.071068e-001  0.000000e+000
    outer loop
      vertex  7.517826e+000 -8.166535e+000 -1.500000e+001
      vertex  7.517826e+000 -8.166535e+000  1.500000e+001
      vertex  8.166535e+000 -7.517826e+000  1.500000e+001
    endloop
  endfacet
  facet normal -7.071068e-001  7.071068e-001  0.000000e+000
    outer loop
      vertex  7.517826e+000 -8.166535e+000 -1.500000e+001
      vertex  8.166535e+000 -7.517826e+000  1.500000e+001
      vertex  8.166535e+000 -7.517826e+000 -1.500000e+001
    endloop
  endfacet
  facet normal -7.630842e-001  6.462989e-001  0.000000e+000
    outer loop
      vertex  8.166535e+000 -7.517826e+000 -1.500000e+001
      vertex  8.166535e+000 -7.517826e+000  1.500000e+001
      vertex  8.759459e+000 -6.817761e+000  1.500000e+001
    endloop
  endfacet
  facet normal -7.630842e-001  6.462989e-001  0.000000e+000
    outer loop
      vertex  8.166535e+000 -7.517826e+000 -1.500000e+001
      vertex  8.759459e+000 -6.817761e+000  1.500000e+001
      vertex  8.759459e+000 -6.817761e+000 -1.500000e+001
    endloop
  endfacet
  facet normal -8.138484e-001  5.810772e-001  0.000000e+000
    outer loop
      vertex  8.759459e+000 -6.817761e+000 -1.500000e+001
      vertex  8.759459e+000 -6.817761e+000  1.500000e+001
      vertex  9.292548e+000 -6.071125e+000  1.500000e+001
    endloop
  endfacet
  facet normal -8.138484e-001  5.810772e-001  0.000000e+000
    outer loop
      vertex  8.759459e+000 -6.817761e+000 -1.500000e+001
      vertex  9.292548e+000 -6.071125e+000  1.500000e+001
      vertex  9.292548e+000 -6.071125e+000 -1.500000e+001
    endloop
  endfacet
  facet normal -8.590541e-001  5.118847e-001  0.000000e+000
    outer loop
      vertex  9.292548e+000 -6.071125e+000 -1.500000e+001
      vertex  9.292548e+000 -6.071125e+000  1.500000e+001
      vertex  9.762158e+000 -5.283016e+000  1.500000e+001
    endloop
  endfacet
  facet normal -8.590541e-001  5.118847e-001  0.000000e+000
    outer loop
      vertex  9.292548e+000 -6.071125e+000 -1.500000e+001
      vertex  9.762158e+000 -5.283016e+000  1.500000e+001
      vertex  9.762158e+000 -5.283016e+000 -1.500000e+001
    endloop
  endfacet
  facet normal -8.983909e-001  4.391968e-001  0.000000e+000
    outer loop
      vertex  9.762158e+000 -5.283016e+000 -1.500000e+001
      vertex  9.762158e+000 -5.283016e+000  1.500000e+001
      vertex  1.016508e+001 -4.458819e+000  1.500000e+001
    endloop
  endfacet
  facet normal -8.983909e-001  4.391968e-001  0.000000e+000
    outer loop
      vertex  9.762158e+000 -5.283016e+000 -1.500000e+001
      vertex  1.016508e+001 -4.458819e+000  1.500000e+001
      vertex  1.016508e+001 -4.458819e+000 -1.500000e+001
    endloop
  endfacet
  facet normal -9.315910e-001  3.635080e-001  0.000000e+000
    outer loop
      vertex  1.016508e+001 -4.458819e+000 -1.500000e+001
      vertex  1.016508e+001 -4.458819e+000  1.500000e+001
      vertex  1.049857e+001 -3.604164e+000  1.500000e+001
    endloop
  endfacet
  facet normal -9.315910e-001  3.635080e-001  0.000000e+000
    outer loop
      vertex  1.016508e+001 -4.458819e+000 -1.500000e+001
      vertex  1.049857e+001 -3.604164e+000  1.500000e+001
      vertex  1.049857e+001 -3.604164e+000 -1.500000e+001
    endloop
  endfacet
  facet normal -9.584276e-001  2.853358e-001  0.000000e+000
    outer loop
      vertex  1.049857e+001 -3.604164e+000 -1.500000e+001
      vertex  1.049857e+001 -3.604164e+000  1.500000e+001
      vertex  1.076034e+001 -2.724889e+000  1.500000e+001
    endloop
  endfacet
  facet normal -9.584276e-001  2.853358e-001  0.000000e+000
    outer loop
      vertex  1.049857e+001 -3.604164e+000 -1.500000e+001
      vertex  1.076034e+001 -2.724889e+000  1.500000e+001
      vertex  1.076034e+001 -2.724889e+000 -1.500000e+001
    endloop
  endfacet
  facet normal -9.787167e-001  2.052155e-001  0.000000e+000
    outer loop
      vertex  1.076034e+001 -2.724889e+000 -1.500000e+001
      vertex  1.076034e+001 -2.724889e+000  1.500000e+001
      vertex  1.094861e+001 -1.827000e+000  1.500000e+001
    endloop
  endfacet
  facet normal -9.787167e-001  2.052155e-001  0.000000e+000
    outer loop
      vertex  1.076034e+001 -2.724889e+000 -1.500000e+001
      vertex  1.094861e+001 -1.827000e+000  1.500000e+001
      vertex  1.094861e+001 -1.827000e+000 -1.500000e+001
    endloop
  endfacet
  facet normal -9.923205e-001  1.236930e-001  0.000000e+000
    outer loop
      vertex  1.094861e+001 -1.827000e+000 -1.500000e+001
      vertex  1.094861e+001 -1.827000e+000  1.500000e+001
      vertex  1.106209e+001 -9.166307e-001  1.500000e+001
    endloop
  endfacet
  facet normal -9.923205e-001  1.236930e-001  0.000000e+000
    outer loop
      vertex  1.094861e+001 -1.827000e+000 -1.500000e+001
      vertex  1.106209e+001 -9.166307e-001  1.500000e+001
      vertex  1.106209e+001 -9.166307e-001 -1.500000e+001
    endloop
  endfacet
  facet normal -9.991457e-001  4.132524e-002  0.000000e+000
    outer loop
      vertex  1.106209e+001 -9.166307e-001 -1.500000e+001
      vertex  1.106209e+001 -9.166307e-001  1.500000e+001
      vertex  1.110000e+001  0.000000e+000  1.500000e+001
    endloop
  endfacet
  facet normal -9.991457e-001  4.132524e-002  0.000000e+000
    outer loop
      vertex  1.106209e+001 -9.166307e-001 -1.500000e+001
      vertex  1.110000e+001  0.000000e+000  1.500000e+001
      vertex  1.110000e+001  0.000000e+000 -1.500000e+001
    endloop
  endfacet
  facet normal -4.132524e-002  9.991457e-001  0.000000e+000
    outer loop
      vertex  9.166307e-001 -1.106209e+001  1.500000e+001
      vertex -2.038970e-015 -1.110000e+001 -1.500000e+001
      vertex -2.038970e-015 -1.110000e+001  1.500000e+001
    endloop
  endfacet
  facet normal  4.132524e-002  9.991457e-001  0.000000e+000
    outer loop
      vertex -2.038970e-015 -1.110000e+001  1.500000e+001
      vertex -2.038970e-015 -1.110000e+001 -1.500000e+001
      vertex -9.166307e-001 -1.106209e+001 -1.500000e+001
    endloop
  endfacet
  facet normal  4.132524e-002  9.991457e-001  -0.000000e+000
    outer loop
      vertex -2.038970e-015 -1.110000e+001  1.500000e+001
      vertex -9.166307e-001 -1.106209e+001 -1.500000e+001
      vertex -9.166307e-001 -1.106209e+001  1.500000e+001
    endloop
  endfacet
  facet normal  1.236930e-001  9.923205e-001  0.000000e+000
    outer loop
      vertex -9.166307e-001 -1.106209e+001  1.500000e+001
      vertex -9.166307e-001 -1.106209e+001 -1.500000e+001
      vertex -1.827000e+000 -1.094861e+001 -1.500000e+001
    endloop
  endfacet
  facet normal  1.236930e-001  9.923205e-001  -0.000000e+000
    outer loop
      vertex -9.166307e-001 -1.106209e+001  1.500000e+001
      vertex -1.827000e+000 -1.094861e+001 -1.500000e+001
      vertex -1.827000e+000 -1.094861e+001  1.500000e+001
    endloop
  endfacet
  facet normal  2.052155e-001  9.787167e-001  0.000000e+000
    outer loop
      vertex -1.827000e+000 -1.094861e+001  1.500000e+001
      vertex -1.827000e+000 -1.094861e+001 -1.500000e+001
      vertex -2.724889e+000 -1.076034e+001 -1.500000e+001
    endloop
  endfacet
  facet normal  2.052155e-001  9.787167e-001  -0.000000e+000
    outer loop
      vertex -1.827000e+000 -1.094861e+001  1.500000e+001
      vertex -2.724889e+000 -1.076034e+001 -1.500000e+001
      vertex -2.724889e+000 -1.076034e+001  1.500000e+001
    endloop
  endfacet
  facet normal  2.853358e-001  9.584276e-001  0.000000e+000
    outer loop
      vertex -2.724889e+000 -1.076034e+001  1.500000e+001
      vertex -2.724889e+000 -1.076034e+001 -1.500000e+001
      vertex -3.604164e+000 -1.049857e+001 -1.500000e+001
    endloop
  endfacet
  facet normal  2.853358e-001  9.584276e-001  -0.000000e+000
    outer loop
      vertex -2.724889e+000 -1.076034e+001  1.500000e+001
      vertex -3.604164e+000 -1.049857e+001 -1.500000e+001
      vertex -3.604164e+000 -1.049857e+001  1.500000e+001
    endloop
  endfacet
  facet normal  3.635080e-001  9.315910e-001  0.000000e+000
    outer loop
      vertex -3.604164e+000 -1.049857e+001  1.500000e+001
      vertex -3.604164e+000 -1.049857e+001 -1.500000e+001
      vertex -4.458819e+000 -1.016508e+001 -1.500000e+001
    endloop
  endfacet
  facet normal  3.635080e-001  9.315910e-001  -0.000000e+000
    outer loop
      vertex -3.604164e+000 -1.049857e+001  1.500000e+001
      vertex -4.458819e+000 -1.016508e+001 -1.500000e+001
      vertex -4.458819e+000 -1.016508e+001  1.500000e+001
    endloop
  endfacet
  facet normal  4.391968e-001  8.983909e-001  0.000000e+000
    outer loop
      vertex -4.458819e+000 -1.016508e+001  1.500000e+001
      vertex -4.458819e+000 -1.016508e+001 -1.500000e+001
      vertex -5.283016e+000 -9.762158e+000 -1.500000e+001
    endloop
  endfacet
  facet normal  4.391968e-001  8.983909e-001  -0.000000e+000
    outer loop
      vertex -4.458819e+000 -1.016508e+001  1.500000e+001
      vertex -5.283016e+000 -9.762158e+000 -1.500000e+001
      vertex -5.283016e+000 -9.762158e+000  1.500000e+001
    endloop
  endfacet
  facet normal  5.118847e-001  8.590541e-001  0.000000e+000
    outer loop
      vertex -5.283016e+000 -9.762158e+000  1.500000e+001
      vertex -5.283016e+000 -9.762158e+000 -1.500000e+001
      vertex -6.071125e+000 -9.292548e+000 -1.500000e+001
    endloop
  endfacet
  facet normal  5.118847e-001  8.590541e-001  -0.000000e+000
    outer loop
      vertex -5.283016e+000 -9.762158e+000  1.500000e+001
      vertex -6.071125e+000 -9.292548e+000 -1.500000e+001
      vertex -6.071125e+000 -9.292548e+000  1.500000e+001
    endloop
  endfacet
  facet normal  5.810772e-001  8.138484e-001  0.000000e+000
    outer loop
      vertex -6.071125e+000 -9.292548e+000  1.500000e+001
      vertex -6.071125e+000 -9.292548e+000 -1.500000e+001
      vertex -6.817761e+000 -8.759459e+000 -1.500000e+001
    endloop
  endfacet
  facet normal  5.810772e-001  8.138484e-001  -0.000000e+000
    outer loop
      vertex -6.071125e+000 -9.292548e+000  1.500000e+001
      vertex -6.817761e+000 -8.759459e+000 -1.500000e+001
      vertex -6.817761e+000 -8.759459e+000  1.500000e+001
    endloop
  endfacet
  facet normal  6.462989e-001  7.630842e-001  0.000000e+000
    outer loop
      vertex -6.817761e+000 -8.759459e+000  1.500000e+001
      vertex -6.817761e+000 -8.759459e+000 -1.500000e+001
      vertex -7.517826e+000 -8.166535e+000 -1.500000e+001
    endloop
  endfacet
  facet normal  6.462989e-001  7.630842e-001  -0.000000e+000
    outer loop
      vertex -6.817761e+000 -8.759459e+000  1.500000e+001
      vertex -7.517826e+000 -8.166535e+000 -1.500000e+001
      vertex -7.517826e+000 -8.166535e+000  1.500000e+001
    endloop
  endfacet
  facet normal  7.071068e-001  7.071068e-001  0.000000e+000
    outer loop
      vertex -7.517826e+000 -8.166535e+000  1.500000e+001
      vertex -7.517826e+000 -8.166535e+000 -1.500000e+001
      vertex -8.166535e+000 -7.517826e+000 -1.500000e+001
    endloop
  endfacet
  facet normal  7.071068e-001  7.071068e-001  -0.000000e+000
    outer loop
      vertex -7.517826e+000 -8.166535e+000  1.500000e+001
      vertex -8.166535e+000 -7.517826e+000 -1.500000e+001
      vertex -8.166535e+000 -7.517826e+000  1.500000e+001
    endloop
  endfacet
  facet normal  7.630842e-001  6.462989e-001  0.000000e+000
    outer loop
      vertex -8.166535e+000 -7.517826e+000  1.500000e+001
      vertex -8.166535e+000 -7.517826e+000 -1.500000e+001
      vertex -8.759459e+000 -6.817761e+000 -1.500000e+001
    endloop
  endfacet
  facet normal  7.630842e-001  6.462989e-001  -0.000000e+000
    outer loop
      vertex -8.166535e+000 -7.517826e+000  1.500000e+001
      vertex -8.759459e+000 -6.817761e+000 -1.500000e+001
      vertex -8.759459e+000 -6.817761e+000  1.500000e+001
    endloop
  endfacet
  facet normal  8.138484e-001  5.810772e-001  0.000000e+000
    outer loop
      vertex -8.759459e+000 -6.817761e+000  1.500000e+001
      vertex -8.759459e+000 -6.817761e+000 -1.500000e+001
      vertex -9.292548e+000 -6.071125e+000 -1.500000e+001
    endloop
  endfacet
  facet normal  8.138484e-001  5.810772e-001  -0.000000e+000
    outer loop
      vertex -8.759459e+000 -6.817761e+000  1.500000e+001
      vertex -9.292548e+000 -6.071125e+000 -1.500000e+001
      vertex -9.292548e+000 -6.071125e+000  1.500000e+001
    endloop
  endfacet
  facet normal  8.590541e-001  5.118847e-001  0.000000e+000
    outer loop
      vertex -9.292548e+000 -6.071125e+000  1.500000e+001
      vertex -9.292548e+000 -6.071125e+000 -1.500000e+001
      vertex -9.762158e+000 -5.283016e+000 -1.500000e+001
    endloop
  endfacet
  facet normal  8.590541e-001  5.118847e-001  -0.000000e+000
    outer loop
      vertex -9.292548e+000 -6.071125e+000  1.500000e+001
      vertex -9.762158e+000 -5.283016e+000 -1.500000e+001
      vertex -9.762158e+000 -5.283016e+000  1.500000e+001
    endloop
  endfacet
  facet normal  8.983909e-001  4.391968e-001  0.000000e+000
    outer loop
      vertex -9.762158e+000 -5.283016e+000  1.500000e+001
      vertex -9.762158e+000 -5.283016e+000 -1.500000e+001
      vertex -1.016508e+001 -4.458819e+000 -1.500000e+001
    endloop
  endfacet
  facet normal  8.983909e-001  4.391968e-001  -0.000000e+000
    outer loop
      vertex -9.762158e+000 -5.283016e+000  1.500000e+001
      vertex -1.016508e+001 -4.458819e+000 -1.500000e+001
      vertex -1.016508e+001 -4.458819e+000  1.500000e+001
    endloop
  endfacet
  facet normal  9.315910e-001  3.635080e-001  0.000000e+000
    outer loop
      vertex -1.016508e+001 -4.458819e+000  1.500000e+001
      vertex -1.016508e+001 -4.458819e+000 -1.500000e+001
      vertex -1.049857e+001 -3.604164e+000 -1.500000e+001
    endloop
  endfacet
  facet normal  9.315910e-001  3.635080e-001  -0.000000e+000
    outer loop
      vertex -1.016508e+001 -4.458819e+000  1.500000e+001
      vertex -1.049857e+001 -3.604164e+000 -1.500000e+001
      vertex -1.049857e+001 -3.604164e+000  1.500000e+001
    endloop
  endfacet
  facet normal  9.584276e-001  2.853358e-001  0.000000e+000
    outer loop
      vertex -1.049857e+001 -3.604164e+000  1.500000e+001
      vertex -1.049857e+001 -3.604164e+000 -1.500000e+001
      vertex -1.076034e+001 -2.724889e+000 -1.500000e+001
    endloop
  endfacet
  facet normal  9.584276e-001  2.853358e-001  -0.000000e+000
    outer loop
      vertex -1.049857e+001 -3.604164e+000  1.500000e+001
      vertex -1.076034e+001 -2.724889e+000 -1.500000e+001
      vertex -1.076034e+001 -2.724889e+000  1.500000e+001
    endloop
  endfacet
  facet normal  9.787167e-001  2.052155e-001  0.000000e+000
    outer loop
      vertex -1.076034e+001 -2.724889e+000  1.500000e+001
      vertex -1.076034e+001 -2.724889e+000 -1.500000e+001
      vertex -1.094861e+001 -1.827000e+000 -1.500000e+001
    endloop
  endfacet
  facet normal  9.787167e-001  2.052155e-001  -0.000000e+000
    outer loop
      vertex -1.076034e+001 -2.724889e+000  1.500000e+001
      vertex -1.094861e+001 -1.827000e+000 -1.500000e+001
      vertex -1.094861e+001 -1.827000e+000  1.500000e+001
    endloop
  endfacet
  facet normal  9.923205e-001  1.236930e-001  0.000000e+000
    outer loop
      vertex -1.094861e+001 -1.827000e+000  1.500000e+001
      vertex -1.094861e+001 -1.827000e+000 -1.500000e+001
      vertex -1.106209e+001 -9.166307e-001 -1.500000e+001
    endloop
  endfacet
  facet normal  9.923205e-001  1.236930e-001  -0.000000e+000
    outer loop
      vertex -1.094861e+001 -1.827000e+000  1.500000e+001
      vertex -1.106209e+001 -9.166307e-001 -1.500000e+001
      vertex -1.106209e+001 -9.166307e-001  1.500000e+001
    endloop
  endfacet
  facet normal  9.991457e-001  4.132524e-002  0.000000e+000
    outer loop
      vertex -1.106209e+001 -9.166307e-001  1.500000e+001
      vertex -1.106209e+001 -9.166307e-001 -1.500000e+001
      vertex -1.110000e+001  1.359313e-015 -1.500000e+001
    endloop
  endfacet
  facet normal  9.991457e-001  4.132524e-002  -0.000000e+000
    outer loop
      vertex -1.106209e+001 -9.166307e-001  1.500000e+001
      vertex -1.110000e+001  1.359313e-015 -1.500000e+001
      vertex -1.110000e+001  1.359313e-015  1.500000e+001
    endloop
  endfacet
  facet normal -1.000000e+000  0.000000e+000  0.000000e+000
    outer loop
      vertex -1.500000e+001  1.500000e+001 -1.500000e+001
      vertex -1.500000e+001 -1.500000e+001 -1.500000e+001
      vertex -1.500000e+001  1.500000e+001  1.500000e+001
    endloop
  endfacet
  facet normal -1.000000e+000  -0.000000e+000  0.000000e+000
    outer loop
      vertex -1.500000e+001  1.500000e+001  1.500000e+001
      vertex -1.500000e+001 -1.500000e+001 -1.500000e+001
      vertex -1.500000e+001 -1.500000e+001  1.500000e+001
    endloop
  endfacet
  facet normal  0.000000e+000  1.000000e+000  0.000000e+000
    outer loop
      vertex  1.500000e+001  1.500000e+001 -1.500000e+001
      vertex -1.500000e+001  1.500000e+001 -1.500000e+001
      vertex  1.500000e+001  1.500000e+001  1.500000e+001
    endloop
  endfacet
  facet normal  0.000000e+000  1.000000e+000  0.000000e+000
    outer loop
      vertex  1.500000e+001  1.500000e+001  1.500000e+001
      vertex -1.500000e+001  1.500000e+001 -1.500000e+001
      vertex -1.500000e+001  1.500000e+001  1.500000e+001
    endloop
  endfacet
  facet normal  1.000000e+000  0.000000e+000  0.000000e+000
    outer loop
      vertex  1.500000e+001 -1.500000e+001 -1.500000e+001
      vertex  1.500000e+001  1.500000e+001 -1.500000e+001
      vertex  1.500000e+001 -1.500000e+001  1.500000e+001
    endloop
  endfacet
  facet normal  1.000000e+000  -0.000000e+000  0.000000e+000
    outer loop
      vertex  1.500000e+001 -1.500000e+001  1.500000e+001
      vertex  1.500000e+001  1.500000e+001 -1.500000e+001
      vertex  1.500000e+001  1.500000e+001  1.500000e+001
    endloop
  endfacet
  facet normal  0.000000e+000 -1.000000e+000  0.000000e+000
    outer loop
      vertex -1.500000e+001 -1.500000e+001 -1.500000e+001
      vertex  1.500000e+001 -1.500000e+001 -1.500000e+001
      vertex -1.500000e+001 -1.500000e+001  1.500000e+001
    endloop
  endfacet
  facet normal  0.000000e+000 -1.000000e+000  0.000000e+000
    outer loop
      vertex -1.500000e+001 -1.500000e+001  1.500000e+001
      vertex  1.500000e+001 -1.500000e+001 -1.500000e+001
      vertex  1.500000e+001 -1.500000e+001  1.500000e+001
    endloop
  endfacet
endsolid CATIA STL
