solid CATIA STL
  facet normal -9.735762e-001  0.000000e+000 -2.283624e-001
    outer loop
      vertex -8.921749e+000 -1.550000e+001  1.200000e+001
      vertex -8.921749e+000 -1.650000e+001  1.200000e+001
      vertex -8.967637e+000  1.550000e+001  1.219563e+001
    endloop
  endfacet
  facet normal -9.637150e-001  2.580097e-004 -2.669333e-001
    outer loop
      vertex -8.921749e+000 -1.550000e+001  1.200000e+001
      vertex -8.967637e+000  1.550000e+001  1.219563e+001
      vertex -8.871596e+000  1.550000e+001  1.184890e+001
    endloop
  endfacet
  facet normal -9.408741e-001 -1.290319e-004 -3.387564e-001
    outer loop
      vertex -8.921749e+000 -1.550000e+001  1.200000e+001
      vertex -8.871596e+000  1.550000e+001  1.184890e+001
      vertex -8.833814e+000 -1.550000e+001  1.175576e+001
    endloop
  endfacet
  facet normal -8.890734e-001  2.916299e-004 -4.577645e-001
    outer loop
      vertex -8.833814e+000 -1.550000e+001  1.175576e+001
      vertex -8.871596e+000  1.550000e+001  1.184890e+001
      vertex -8.714986e+000 -1.550000e+001  1.152498e+001
    endloop
  endfacet
  facet normal -9.002950e-001  0.000000e+000 -4.352802e-001
    outer loop
      vertex -8.714986e+000 -1.550000e+001  1.152498e+001
      vertex -8.871596e+000  1.550000e+001  1.184890e+001
      vertex -8.714986e+000  1.550000e+001  1.152498e+001
    endloop
  endfacet
  facet normal -9.975396e-001  -0.000000e+000 -7.010505e-002
    outer loop
      vertex -9.000000e+000 -1.650000e+001  1.255397e+001
      vertex -9.000000e+000  1.550000e+001  1.255397e+001
      vertex -8.980341e+000 -1.650000e+001  1.227423e+001
    endloop
  endfacet
  facet normal -9.959463e-001  1.744477e-004 -8.994900e-002
    outer loop
      vertex -8.980341e+000 -1.650000e+001  1.227423e+001
      vertex -9.000000e+000  1.550000e+001  1.255397e+001
      vertex -8.967637e+000  1.550000e+001  1.219563e+001
    endloop
  endfacet
  facet normal -9.779284e-001 -1.249804e-004 -2.089400e-001
    outer loop
      vertex -8.980341e+000 -1.650000e+001  1.227423e+001
      vertex -8.967637e+000  1.550000e+001  1.219563e+001
      vertex -8.921749e+000 -1.650000e+001  1.200000e+001
    endloop
  endfacet
  facet normal  0.000000e+000 -1.000000e+000  0.000000e+000
    outer loop
      vertex  7.000000e+000 -1.850000e+001  1.500000e+001
      vertex -7.000000e+000 -1.850000e+001  1.500000e+001
      vertex  7.000000e+000 -1.850000e+001  1.400000e+001
    endloop
  endfacet
  facet normal  0.000000e+000 -1.000000e+000  0.000000e+000
    outer loop
      vertex  7.000000e+000 -1.850000e+001  1.400000e+001
      vertex -7.000000e+000 -1.850000e+001  1.500000e+001
      vertex -7.000000e+000 -1.850000e+001  1.400000e+001
    endloop
  endfacet
  facet normal  0.000000e+000  0.000000e+000 -1.000000e+000
    outer loop
      vertex -8.921749e+000 -1.650000e+001  1.200000e+001
      vertex -8.921749e+000 -1.550000e+001  1.200000e+001
      vertex  8.921749e+000 -1.650000e+001  1.200000e+001
    endloop
  endfacet
  facet normal  0.000000e+000  0.000000e+000 -1.000000e+000
    outer loop
      vertex  8.921749e+000 -1.650000e+001  1.200000e+001
      vertex -8.921749e+000 -1.550000e+001  1.200000e+001
      vertex  8.921749e+000 -1.550000e+001  1.200000e+001
    endloop
  endfacet
  facet normal -1.000000e+000  0.000000e+000  0.000000e+000
    outer loop
      vertex -9.000000e+000  1.550000e+001  1.700000e+001
      vertex -9.000000e+000  1.550000e+001  1.255397e+001
      vertex -9.000000e+000 -1.650000e+001  1.700000e+001
    endloop
  endfacet
  facet normal -1.000000e+000  0.000000e+000  0.000000e+000
    outer loop
      vertex -9.000000e+000 -1.650000e+001  1.700000e+001
      vertex -9.000000e+000  1.550000e+001  1.255397e+001
      vertex -9.000000e+000 -1.650000e+001  1.255397e+001
    endloop
  endfacet
  facet normal  9.408741e-001 -1.290319e-004 -3.387564e-001
    outer loop
      vertex  8.921749e+000 -1.550000e+001  1.200000e+001
      vertex  8.833814e+000 -1.550000e+001  1.175576e+001
      vertex  8.871596e+000  1.550000e+001  1.184890e+001
    endloop
  endfacet
  facet normal  9.637150e-001  2.580097e-004 -2.669333e-001
    outer loop
      vertex  8.921749e+000 -1.550000e+001  1.200000e+001
      vertex  8.871596e+000  1.550000e+001  1.184890e+001
      vertex  8.967637e+000  1.550000e+001  1.219563e+001
    endloop
  endfacet
  facet normal  9.735762e-001  0.000000e+000 -2.283624e-001
    outer loop
      vertex  8.921749e+000 -1.550000e+001  1.200000e+001
      vertex  8.967637e+000  1.550000e+001  1.219563e+001
      vertex  8.921749e+000 -1.650000e+001  1.200000e+001
    endloop
  endfacet
  facet normal  9.959463e-001  0.000000e+000 -8.994900e-002
    outer loop
      vertex  9.000000e+000  1.550000e+001  1.255397e+001
      vertex  9.000000e+000 -1.650000e+001  1.255397e+001
      vertex  8.967637e+000  1.550000e+001  1.219563e+001
    endloop
  endfacet
  facet normal  9.975396e-001  2.238225e-004 -7.010505e-002
    outer loop
      vertex  8.967637e+000  1.550000e+001  1.219563e+001
      vertex  9.000000e+000 -1.650000e+001  1.255397e+001
      vertex  8.980341e+000 -1.650000e+001  1.227423e+001
    endloop
  endfacet
  facet normal  9.779284e-001 -1.249804e-004 -2.089400e-001
    outer loop
      vertex  8.967637e+000  1.550000e+001  1.219563e+001
      vertex  8.980341e+000 -1.650000e+001  1.227423e+001
      vertex  8.921749e+000 -1.650000e+001  1.200000e+001
    endloop
  endfacet
  facet normal  8.890734e-001  2.916299e-004 -4.577645e-001
    outer loop
      vertex  8.833814e+000 -1.550000e+001  1.175576e+001
      vertex  8.714986e+000 -1.550000e+001  1.152498e+001
      vertex  8.871596e+000  1.550000e+001  1.184890e+001
    endloop
  endfacet
  facet normal  9.002950e-001  0.000000e+000 -4.352802e-001
    outer loop
      vertex  8.871596e+000  1.550000e+001  1.184890e+001
      vertex  8.714986e+000 -1.550000e+001  1.152498e+001
      vertex  8.714986e+000  1.550000e+001  1.152498e+001
    endloop
  endfacet
  facet normal  1.000000e+000  0.000000e+000  0.000000e+000
    outer loop
      vertex  9.000000e+000 -1.650000e+001  1.700000e+001
      vertex  9.000000e+000 -1.650000e+001  1.255397e+001
      vertex  9.000000e+000  1.550000e+001  1.700000e+001
    endloop
  endfacet
  facet normal  1.000000e+000  0.000000e+000  0.000000e+000
    outer loop
      vertex  9.000000e+000  1.550000e+001  1.700000e+001
      vertex  9.000000e+000 -1.650000e+001  1.255397e+001
      vertex  9.000000e+000  1.550000e+001  1.255397e+001
    endloop
  endfacet
  facet normal  0.000000e+000  0.000000e+000  1.000000e+000
    outer loop
      vertex -9.000000e+000 -1.650000e+001  1.700000e+001
      vertex  9.000000e+000 -1.650000e+001  1.700000e+001
      vertex -9.000000e+000  1.550000e+001  1.700000e+001
    endloop
  endfacet
  facet normal  -0.000000e+000  0.000000e+000  1.000000e+000
    outer loop
      vertex -9.000000e+000  1.550000e+001  1.700000e+001
      vertex  9.000000e+000 -1.650000e+001  1.700000e+001
      vertex  9.000000e+000  1.550000e+001  1.700000e+001
    endloop
  endfacet
  facet normal  8.885034e-001 -4.573191e-001  3.769607e-002
    outer loop
      vertex  8.634793e+000 -1.763446e+001  1.235288e+001
      vertex  8.714128e+000 -1.748790e+001  1.226102e+001
      vertex  8.838101e+000 -1.724429e+001  1.229433e+001
    endloop
  endfacet
  facet normal  8.913394e-001 -4.372344e-001 -1.197500e-001
    outer loop
      vertex  8.838101e+000 -1.724429e+001  1.229433e+001
      vertex  8.714128e+000 -1.748790e+001  1.226102e+001
      vertex  8.781673e+000 -1.732784e+001  1.217937e+001
    endloop
  endfacet
  facet normal  9.169752e-001 -3.459529e-001 -1.986781e-001
    outer loop
      vertex  8.838101e+000 -1.724429e+001  1.229433e+001
      vertex  8.781673e+000 -1.732784e+001  1.217937e+001
      vertex  8.858934e+000 -1.706720e+001  1.208211e+001
    endloop
  endfacet
  facet normal  9.487776e-001 -2.820997e-001 -1.422705e-001
    outer loop
      vertex  8.838101e+000 -1.724429e+001  1.229433e+001
      vertex  8.858934e+000 -1.706720e+001  1.208211e+001
      vertex  8.944456e+000 -1.687901e+001  1.227930e+001
    endloop
  endfacet
  facet normal  9.930325e-001 -9.495337e-002 -6.978828e-002
    outer loop
      vertex  8.980341e+000 -1.650000e+001  1.227423e+001
      vertex  9.000000e+000 -1.650000e+001  1.255397e+001
      vertex  8.944456e+000 -1.687901e+001  1.227930e+001
    endloop
  endfacet
  facet normal  9.930325e-001 -9.495456e-002 -6.978666e-002
    outer loop
      vertex  8.944456e+000 -1.687901e+001  1.227930e+001
      vertex  9.000000e+000 -1.650000e+001  1.255397e+001
      vertex  8.963758e+000 -1.687901e+001  1.255397e+001
    endloop
  endfacet
  facet normal  9.572092e-001 -2.814699e-001 -6.726913e-002
    outer loop
      vertex  8.944456e+000 -1.687901e+001  1.227930e+001
      vertex  8.963758e+000 -1.687901e+001  1.255397e+001
      vertex  8.838101e+000 -1.724429e+001  1.229433e+001
    endloop
  endfacet
  facet normal  9.572098e-001 -2.814675e-001 -6.727291e-002
    outer loop
      vertex  8.838101e+000 -1.724429e+001  1.229433e+001
      vertex  8.963758e+000 -1.687901e+001  1.255397e+001
      vertex  8.856349e+000 -1.724429e+001  1.255397e+001
    endloop
  endfacet
  facet normal  8.812845e-001 -4.685098e-001 -6.193686e-002
    outer loop
      vertex  8.838101e+000 -1.724429e+001  1.229433e+001
      vertex  8.856349e+000 -1.724429e+001  1.255397e+001
      vertex  8.634793e+000 -1.763446e+001  1.235288e+001
    endloop
  endfacet
  facet normal  8.850586e-001 -4.570051e-001 -8.841804e-002
    outer loop
      vertex  8.634793e+000 -1.763446e+001  1.235288e+001
      vertex  8.856349e+000 -1.724429e+001  1.255397e+001
      vertex  8.681664e+000 -1.758259e+001  1.255397e+001
    endloop
  endfacet
  facet normal  7.852740e-001 -6.187041e-001 -2.345233e-002
    outer loop
      vertex  8.634793e+000 -1.763446e+001  1.235288e+001
      vertex  8.681664e+000 -1.758259e+001  1.255397e+001
      vertex  8.446033e+000 -1.788166e+001  1.255397e+001
    endloop
  endfacet
  facet normal  9.756309e-001 -6.850844e-002 -2.084492e-001
    outer loop
      vertex  8.921749e+000 -1.650000e+001  1.200000e+001
      vertex  8.980341e+000 -1.650000e+001  1.227423e+001
      vertex  8.905969e+000 -1.678827e+001  1.202088e+001
    endloop
  endfacet
  facet normal  9.791991e-001 -9.510729e-002 -1.792311e-001
    outer loop
      vertex  8.905969e+000 -1.678827e+001  1.202088e+001
      vertex  8.980341e+000 -1.650000e+001  1.227423e+001
      vertex  8.944456e+000 -1.687901e+001  1.227930e+001
    endloop
  endfacet
  facet normal  9.541366e-001 -2.081320e-001 -2.151847e-001
    outer loop
      vertex  8.905969e+000 -1.678827e+001  1.202088e+001
      vertex  8.944456e+000 -1.687901e+001  1.227930e+001
      vertex  8.858934e+000 -1.706720e+001  1.208211e+001
    endloop
  endfacet
  facet normal  8.885366e-001 -4.588010e-001 -2.061522e-003
    outer loop
      vertex  8.681664e+000 -1.758259e+001  1.255397e+001
      vertex  8.856349e+000 -1.724429e+001  1.255397e+001
      vertex  8.793699e+000 -1.738467e+001  1.679370e+001
    endloop
  endfacet
  facet normal  8.598821e-001 -5.104915e-001  1.108755e-003
    outer loop
      vertex  8.793699e+000 -1.738467e+001  1.679370e+001
      vertex  8.636788e+000 -1.764931e+001  1.663679e+001
      vertex  8.681664e+000 -1.758259e+001  1.255397e+001
    endloop
  endfacet
  facet normal  9.954594e-001 -9.518662e-002  0.000000e+000
    outer loop
      vertex  9.000000e+000 -1.650000e+001  1.255397e+001
      vertex  9.000000e+000 -1.650000e+001  1.700000e+001
      vertex  8.963758e+000 -1.687901e+001  1.255397e+001
    endloop
  endfacet
  facet normal  9.979952e-001 -6.322876e-002 -2.744998e-003
    outer loop
      vertex  8.963758e+000 -1.687901e+001  1.255397e+001
      vertex  9.000000e+000 -1.650000e+001  1.700000e+001
      vertex  8.983920e+000 -1.675311e+001  1.698392e+001
    endloop
  endfacet
  facet normal  9.856621e-001 -1.687310e-001  3.097139e-004
    outer loop
      vertex  8.963758e+000 -1.687901e+001  1.255397e+001
      vertex  8.983920e+000 -1.675311e+001  1.698392e+001
      vertex  8.955191e+000 -1.692098e+001  1.695519e+001
    endloop
  endfacet
  facet normal  9.593828e-001 -2.821064e-001 -8.226208e-004
    outer loop
      vertex  8.963758e+000 -1.687901e+001  1.255397e+001
      vertex  8.955191e+000 -1.692098e+001  1.695519e+001
      vertex  8.856349e+000 -1.724429e+001  1.255397e+001
    endloop
  endfacet
  facet normal  9.681225e-001 -2.504551e-001 -3.343935e-003
    outer loop
      vertex  8.856349e+000 -1.724429e+001  1.255397e+001
      vertex  8.955191e+000 -1.692098e+001  1.695519e+001
      vertex  8.913072e+000 -1.708323e+001  1.691307e+001
    endloop
  endfacet
  facet normal  9.295428e-001 -3.687112e-001  1.527362e-003
    outer loop
      vertex  8.856349e+000 -1.724429e+001  1.255397e+001
      vertex  8.913072e+000 -1.708323e+001  1.691307e+001
      vertex  8.793699e+000 -1.738467e+001  1.679370e+001
    endloop
  endfacet
  facet normal  7.854891e-001 -6.188737e-001 -1.480082e-003
    outer loop
      vertex  8.681664e+000 -1.758259e+001  1.255397e+001
      vertex  8.636788e+000 -1.764931e+001  1.663679e+001
      vertex  8.446033e+000 -1.788166e+001  1.255397e+001
    endloop
  endfacet
  facet normal  7.741604e-001 -6.329895e-001 -1.474711e-004
    outer loop
      vertex  8.446033e+000 -1.788166e+001  1.255397e+001
      vertex  8.636788e+000 -1.764931e+001  1.663679e+001
      vertex  8.451305e+000 -1.787612e+001  1.645131e+001
    endloop
  endfacet
  facet normal  6.608187e-001 -7.505456e-001  1.730028e-004
    outer loop
      vertex  8.446033e+000 -1.788166e+001  1.255397e+001
      vertex  8.451305e+000 -1.787612e+001  1.645131e+001
      vertex  8.186999e+000 -1.810967e+001  1.281300e+001
    endloop
  endfacet
  facet normal  6.768473e-001 -7.361209e-001 -1.917341e-003
    outer loop
      vertex  8.186999e+000 -1.810967e+001  1.281300e+001
      vertex  8.451305e+000 -1.787612e+001  1.645131e+001
      vertex  8.245315e+000 -1.806499e+001  1.624532e+001
    endloop
  endfacet
  facet normal  5.680504e-001 -8.229930e-001  1.061969e-003
    outer loop
      vertex  8.186999e+000 -1.810967e+001  1.281300e+001
      vertex  8.245315e+000 -1.806499e+001  1.624532e+001
      vertex  8.024635e+000 -1.821759e+001  1.602464e+001
    endloop
  endfacet
  facet normal  5.238128e-001 -8.518306e-001 -2.143517e-003
    outer loop
      vertex  8.186999e+000 -1.810967e+001  1.281300e+001
      vertex  8.024635e+000 -1.821759e+001  1.602464e+001
      vertex  7.907367e+000 -1.828233e+001  1.309263e+001
    endloop
  endfacet
  facet normal  4.691949e-001 -8.830943e-001  7.312349e-004
    outer loop
      vertex  7.907367e+000 -1.828233e+001  1.309263e+001
      vertex  8.024635e+000 -1.821759e+001  1.602464e+001
      vertex  7.852193e+000 -1.830935e+001  1.585219e+001
    endloop
  endfacet
  facet normal  3.804173e-001 -9.248139e-001 -1.452376e-003
    outer loop
      vertex  7.907367e+000 -1.828233e+001  1.309263e+001
      vertex  7.852193e+000 -1.830935e+001  1.585219e+001
      vertex  7.614466e+000 -1.840327e+001  1.338553e+001
    endloop
  endfacet
  facet normal  3.839253e-001 -9.233623e-001 -1.845736e-003
    outer loop
      vertex  7.614466e+000 -1.840327e+001  1.338553e+001
      vertex  7.852193e+000 -1.830935e+001  1.585219e+001
      vertex  7.675449e+000 -1.838249e+001  1.567545e+001
    endloop
  endfacet
  facet normal  2.351114e-001 -9.719651e-001  2.558348e-003
    outer loop
      vertex  7.614466e+000 -1.840327e+001  1.338553e+001
      vertex  7.675449e+000 -1.838249e+001  1.567545e+001
      vertex  7.313513e+000 -1.847528e+001  1.368649e+001
    endloop
  endfacet
  facet normal  2.483273e-001 -9.686761e-001  0.000000e+000
    outer loop
      vertex  7.313513e+000 -1.847528e+001  1.368649e+001
      vertex  7.675449e+000 -1.838249e+001  1.567545e+001
      vertex  7.313513e+000 -1.847528e+001  1.531351e+001
    endloop
  endfacet
  facet normal  7.862005e-002 -9.969047e-001  0.000000e+000
    outer loop
      vertex  7.313513e+000 -1.847528e+001  1.368649e+001
      vertex  7.313513e+000 -1.847528e+001  1.531351e+001
      vertex  7.000000e+000 -1.850000e+001  1.400000e+001
    endloop
  endfacet
  facet normal  7.862005e-002 -9.969047e-001  0.000000e+000
    outer loop
      vertex  7.000000e+000 -1.850000e+001  1.400000e+001
      vertex  7.313513e+000 -1.847528e+001  1.531351e+001
      vertex  7.000000e+000 -1.850000e+001  1.500000e+001
    endloop
  endfacet
  facet normal  -0.000000e+000 -7.225718e-002 -9.973860e-001
    outer loop
      vertex -8.921749e+000 -1.650000e+001  1.200000e+001
      vertex  8.921749e+000 -1.650000e+001  1.200000e+001
      vertex -8.905969e+000 -1.678827e+001  1.202088e+001
    endloop
  endfacet
  facet normal  0.000000e+000 -7.225718e-002 -9.973860e-001
    outer loop
      vertex -8.905969e+000 -1.678827e+001  1.202088e+001
      vertex  8.921749e+000 -1.650000e+001  1.200000e+001
      vertex  8.905969e+000 -1.678827e+001  1.202088e+001
    endloop
  endfacet
  facet normal  -0.000000e+000 -2.144163e-001 -9.767424e-001
    outer loop
      vertex -8.905969e+000 -1.678827e+001  1.202088e+001
      vertex  8.905969e+000 -1.678827e+001  1.202088e+001
      vertex -8.858934e+000 -1.706720e+001  1.208211e+001
    endloop
  endfacet
  facet normal  0.000000e+000 -2.144163e-001 -9.767423e-001
    outer loop
      vertex -8.858934e+000 -1.706720e+001  1.208211e+001
      vertex  8.905969e+000 -1.678827e+001  1.202088e+001
      vertex  8.858934e+000 -1.706720e+001  1.208211e+001
    endloop
  endfacet
  facet normal  -0.000000e+000 -3.496045e-001 -9.368974e-001
    outer loop
      vertex -8.858934e+000 -1.706720e+001  1.208211e+001
      vertex  8.858934e+000 -1.706720e+001  1.208211e+001
      vertex -8.781673e+000 -1.732784e+001  1.217937e+001
    endloop
  endfacet
  facet normal  0.000000e+000 -3.496045e-001 -9.368974e-001
    outer loop
      vertex -8.781673e+000 -1.732784e+001  1.217937e+001
      vertex  8.858934e+000 -1.706720e+001  1.208211e+001
      vertex  8.781673e+000 -1.732784e+001  1.217937e+001
    endloop
  endfacet
  facet normal  -0.000000e+000 -4.543921e-001 -8.908018e-001
    outer loop
      vertex -8.781673e+000 -1.732784e+001  1.217937e+001
      vertex  8.781673e+000 -1.732784e+001  1.217937e+001
      vertex -8.714128e+000 -1.748790e+001  1.226102e+001
    endloop
  endfacet
  facet normal  0.000000e+000 -4.543920e-001 -8.908018e-001
    outer loop
      vertex -8.714128e+000 -1.748790e+001  1.226102e+001
      vertex  8.781673e+000 -1.732784e+001  1.217937e+001
      vertex  8.714128e+000 -1.748790e+001  1.226102e+001
    endloop
  endfacet
  facet normal  -0.000000e+000 -5.310879e-001 -8.473168e-001
    outer loop
      vertex -8.714128e+000 -1.748790e+001  1.226102e+001
      vertex  8.714128e+000 -1.748790e+001  1.226102e+001
      vertex -8.634793e+000 -1.763446e+001  1.235288e+001
    endloop
  endfacet
  facet normal  0.000000e+000 -5.310879e-001 -8.473168e-001
    outer loop
      vertex -8.634793e+000 -1.763446e+001  1.235288e+001
      vertex  8.714128e+000 -1.748790e+001  1.226102e+001
      vertex  8.634793e+000 -1.763446e+001  1.235288e+001
    endloop
  endfacet
  facet normal  -0.000000e+000 -6.310357e-001 -7.757537e-001
    outer loop
      vertex -8.634793e+000 -1.763446e+001  1.235288e+001
      vertex  8.634793e+000 -1.763446e+001  1.235288e+001
      vertex -8.446033e+000 -1.788166e+001  1.255397e+001
    endloop
  endfacet
  facet normal  0.000000e+000 -6.310357e-001 -7.757537e-001
    outer loop
      vertex -8.446033e+000 -1.788166e+001  1.255397e+001
      vertex  8.634793e+000 -1.763446e+001  1.235288e+001
      vertex  8.446033e+000 -1.788166e+001  1.255397e+001
    endloop
  endfacet
  facet normal  -0.000000e+000 -7.506314e-001 -6.607212e-001
    outer loop
      vertex -8.446033e+000 -1.788166e+001  1.255397e+001
      vertex  8.446033e+000 -1.788166e+001  1.255397e+001
      vertex -8.187001e+000 -1.810967e+001  1.281300e+001
    endloop
  endfacet
  facet normal -7.696537e-008 -7.506289e-001 -6.607240e-001
    outer loop
      vertex -8.187001e+000 -1.810967e+001  1.281300e+001
      vertex  8.446033e+000 -1.788166e+001  1.255397e+001
      vertex  8.186999e+000 -1.810967e+001  1.281300e+001
    endloop
  endfacet
  facet normal -6.119810e-008 -8.508759e-001 -5.253668e-001
    outer loop
      vertex -8.187001e+000 -1.810967e+001  1.281300e+001
      vertex  8.186999e+000 -1.810967e+001  1.281300e+001
      vertex -7.907367e+000 -1.828233e+001  1.309263e+001
    endloop
  endfacet
  facet normal  0.000000e+000 -8.508774e-001 -5.253642e-001
    outer loop
      vertex -7.907367e+000 -1.828233e+001  1.309263e+001
      vertex  8.186999e+000 -1.810967e+001  1.281300e+001
      vertex  7.907367e+000 -1.828233e+001  1.309263e+001
    endloop
  endfacet
  facet normal  -0.000000e+000 -9.243031e-001 -3.816593e-001
    outer loop
      vertex -7.907367e+000 -1.828233e+001  1.309263e+001
      vertex  7.907367e+000 -1.828233e+001  1.309263e+001
      vertex -7.614465e+000 -1.840327e+001  1.338553e+001
    endloop
  endfacet
  facet normal  2.390041e-008 -9.243035e-001 -3.816582e-001
    outer loop
      vertex -7.614465e+000 -1.840327e+001  1.338553e+001
      vertex  7.907367e+000 -1.828233e+001  1.309263e+001
      vertex  7.614466e+000 -1.840327e+001  1.338553e+001
    endloop
  endfacet
  facet normal  1.457179e-008 -9.725503e-001 -2.326924e-001
    outer loop
      vertex -7.614465e+000 -1.840327e+001  1.338553e+001
      vertex  7.614466e+000 -1.840327e+001  1.338553e+001
      vertex -7.313513e+000 -1.847528e+001  1.368649e+001
    endloop
  endfacet
  facet normal  0.000000e+000 -9.725502e-001 -2.326931e-001
    outer loop
      vertex -7.313513e+000 -1.847528e+001  1.368649e+001
      vertex  7.614466e+000 -1.840327e+001  1.338553e+001
      vertex  7.313513e+000 -1.847528e+001  1.368649e+001
    endloop
  endfacet
  facet normal  -0.000000e+000 -9.969046e-001 -7.862016e-002
    outer loop
      vertex -7.313513e+000 -1.847528e+001  1.368649e+001
      vertex  7.313513e+000 -1.847528e+001  1.368649e+001
      vertex -7.000000e+000 -1.850000e+001  1.400000e+001
    endloop
  endfacet
  facet normal  0.000000e+000 -9.969046e-001 -7.862016e-002
    outer loop
      vertex -7.000000e+000 -1.850000e+001  1.400000e+001
      vertex  7.313513e+000 -1.847528e+001  1.368649e+001
      vertex  7.000000e+000 -1.850000e+001  1.400000e+001
    endloop
  endfacet
  facet normal -8.885366e-001 -4.588010e-001 -2.061522e-003
    outer loop
      vertex -8.681664e+000 -1.758259e+001  1.255397e+001
      vertex -8.793699e+000 -1.738467e+001  1.679370e+001
      vertex -8.856349e+000 -1.724429e+001  1.255397e+001
    endloop
  endfacet
  facet normal -7.862005e-002 -9.969047e-001  -0.000000e+000
    outer loop
      vertex -7.000000e+000 -1.850000e+001  1.400000e+001
      vertex -7.000000e+000 -1.850000e+001  1.500000e+001
      vertex -7.313513e+000 -1.847528e+001  1.368649e+001
    endloop
  endfacet
  facet normal -7.862005e-002 -9.969047e-001  0.000000e+000
    outer loop
      vertex -7.313513e+000 -1.847528e+001  1.368649e+001
      vertex -7.000000e+000 -1.850000e+001  1.500000e+001
      vertex -7.313513e+000 -1.847528e+001  1.531351e+001
    endloop
  endfacet
  facet normal -2.326938e-001 -9.725500e-001  -0.000000e+000
    outer loop
      vertex -7.313513e+000 -1.847528e+001  1.368649e+001
      vertex -7.313513e+000 -1.847528e+001  1.531351e+001
      vertex -7.614465e+000 -1.840327e+001  1.338553e+001
    endloop
  endfacet
  facet normal -2.462269e-001 -9.692096e-001  2.237228e-003
    outer loop
      vertex -7.614465e+000 -1.840327e+001  1.338553e+001
      vertex -7.313513e+000 -1.847528e+001  1.531351e+001
      vertex -7.675449e+000 -1.838249e+001  1.567545e+001
    endloop
  endfacet
  facet normal -3.801769e-001 -9.249122e-001 -1.732008e-003
    outer loop
      vertex -7.614465e+000 -1.840327e+001  1.338553e+001
      vertex -7.675449e+000 -1.838249e+001  1.567545e+001
      vertex -7.907367e+000 -1.828233e+001  1.309263e+001
    endloop
  endfacet
  facet normal -3.835262e-001 -9.235290e-001 -1.377632e-003
    outer loop
      vertex -7.907367e+000 -1.828233e+001  1.309263e+001
      vertex -7.675449e+000 -1.838249e+001  1.567545e+001
      vertex -7.852193e+000 -1.830935e+001  1.585219e+001
    endloop
  endfacet
  facet normal -5.269631e-001 -8.498853e-001  2.211500e-003
    outer loop
      vertex -7.907367e+000 -1.828233e+001  1.309263e+001
      vertex -7.852193e+000 -1.830935e+001  1.585219e+001
      vertex -8.187001e+000 -1.810967e+001  1.281300e+001
    endloop
  endfacet
  facet normal -4.741288e-001 -8.804376e-001 -5.616319e-003
    outer loop
      vertex -8.187001e+000 -1.810967e+001  1.281300e+001
      vertex -7.852193e+000 -1.830935e+001  1.585219e+001
      vertex -8.024635e+000 -1.821759e+001  1.602464e+001
    endloop
  endfacet
  facet normal -5.680503e-001 -8.229932e-001  1.062291e-003
    outer loop
      vertex -8.187001e+000 -1.810967e+001  1.281300e+001
      vertex -8.024635e+000 -1.821759e+001  1.602464e+001
      vertex -8.245315e+000 -1.806499e+001  1.624532e+001
    endloop
  endfacet
  facet normal -6.599165e-001 -7.513376e-001 -1.431238e-003
    outer loop
      vertex -8.187001e+000 -1.810967e+001  1.281300e+001
      vertex -8.245315e+000 -1.806499e+001  1.624532e+001
      vertex -8.446033e+000 -1.788166e+001  1.255397e+001
    endloop
  endfacet
  facet normal -6.757349e-001 -7.371446e-001  1.337700e-004
    outer loop
      vertex -8.446033e+000 -1.788166e+001  1.255397e+001
      vertex -8.245315e+000 -1.806499e+001  1.624532e+001
      vertex -8.451305e+000 -1.787612e+001  1.645131e+001
    endloop
  endfacet
  facet normal -7.854900e-001 -6.188743e-001 -1.828669e-004
    outer loop
      vertex -8.446033e+000 -1.788166e+001  1.255397e+001
      vertex -8.451305e+000 -1.787612e+001  1.645131e+001
      vertex -8.681664e+000 -1.758259e+001  1.255397e+001
    endloop
  endfacet
  facet normal -7.748267e-001 -6.321711e-001 -1.814580e-003
    outer loop
      vertex -8.681664e+000 -1.758259e+001  1.255397e+001
      vertex -8.451305e+000 -1.787612e+001  1.645131e+001
      vertex -8.636788e+000 -1.764931e+001  1.663679e+001
    endloop
  endfacet
  facet normal -8.598821e-001 -5.104915e-001  1.108755e-003
    outer loop
      vertex -8.681664e+000 -1.758259e+001  1.255397e+001
      vertex -8.636788e+000 -1.764931e+001  1.663679e+001
      vertex -8.793699e+000 -1.738467e+001  1.679370e+001
    endloop
  endfacet
  facet normal -9.679491e-001 -2.511457e-001 -5.106953e-004
    outer loop
      vertex -8.955191e+000 -1.692098e+001  1.695519e+001
      vertex -8.963758e+000 -1.687901e+001  1.255397e+001
      vertex -8.913072e+000 -1.708323e+001  1.691307e+001
    endloop
  endfacet
  facet normal -9.593810e-001 -2.821059e-001 -2.060767e-003
    outer loop
      vertex -8.913072e+000 -1.708323e+001  1.691307e+001
      vertex -8.963758e+000 -1.687901e+001  1.255397e+001
      vertex -8.856349e+000 -1.724429e+001  1.255397e+001
    endloop
  endfacet
  facet normal -9.295428e-001 -3.687112e-001  1.527362e-003
    outer loop
      vertex -8.913072e+000 -1.708323e+001  1.691307e+001
      vertex -8.856349e+000 -1.724429e+001  1.255397e+001
      vertex -8.793699e+000 -1.738467e+001  1.679370e+001
    endloop
  endfacet
  facet normal -9.979880e-001 -6.340270e-002  0.000000e+000
    outer loop
      vertex -9.000000e+000 -1.650000e+001  1.700000e+001
      vertex -9.000000e+000 -1.650000e+001  1.255397e+001
      vertex -8.983920e+000 -1.675311e+001  1.698392e+001
    endloop
  endfacet
  facet normal -9.954578e-001 -9.518646e-002 -1.825149e-003
    outer loop
      vertex -8.983920e+000 -1.675311e+001  1.698392e+001
      vertex -9.000000e+000 -1.650000e+001  1.255397e+001
      vertex -8.963758e+000 -1.687901e+001  1.255397e+001
    endloop
  endfacet
  facet normal -9.856621e-001 -1.687310e-001  3.097139e-004
    outer loop
      vertex -8.983920e+000 -1.675311e+001  1.698392e+001
      vertex -8.963758e+000 -1.687901e+001  1.255397e+001
      vertex -8.955191e+000 -1.692098e+001  1.695519e+001
    endloop
  endfacet
  facet normal -8.850586e-001 -4.570051e-001 -8.841804e-002
    outer loop
      vertex -8.856349e+000 -1.724429e+001  1.255397e+001
      vertex -8.634793e+000 -1.763446e+001  1.235288e+001
      vertex -8.681664e+000 -1.758259e+001  1.255397e+001
    endloop
  endfacet
  facet normal -8.913394e-001 -4.372344e-001 -1.197500e-001
    outer loop
      vertex -8.838101e+000 -1.724429e+001  1.229433e+001
      vertex -8.781673e+000 -1.732784e+001  1.217937e+001
      vertex -8.714128e+000 -1.748790e+001  1.226102e+001
    endloop
  endfacet
  facet normal -9.169752e-001 -3.459529e-001 -1.986781e-001
    outer loop
      vertex -8.858934e+000 -1.706720e+001  1.208211e+001
      vertex -8.781673e+000 -1.732784e+001  1.217937e+001
      vertex -8.838101e+000 -1.724429e+001  1.229433e+001
    endloop
  endfacet
  facet normal -9.487776e-001 -2.820997e-001 -1.422705e-001
    outer loop
      vertex -8.838101e+000 -1.724429e+001  1.229433e+001
      vertex -8.944456e+000 -1.687901e+001  1.227930e+001
      vertex -8.858934e+000 -1.706720e+001  1.208211e+001
    endloop
  endfacet
  facet normal -7.852740e-001 -6.187041e-001 -2.345233e-002
    outer loop
      vertex -8.446033e+000 -1.788166e+001  1.255397e+001
      vertex -8.681664e+000 -1.758259e+001  1.255397e+001
      vertex -8.634793e+000 -1.763446e+001  1.235288e+001
    endloop
  endfacet
  facet normal -8.885034e-001 -4.573191e-001  3.769607e-002
    outer loop
      vertex -8.714128e+000 -1.748790e+001  1.226102e+001
      vertex -8.634793e+000 -1.763446e+001  1.235288e+001
      vertex -8.838101e+000 -1.724429e+001  1.229433e+001
    endloop
  endfacet
  facet normal -8.812845e-001 -4.685098e-001 -6.193686e-002
    outer loop
      vertex -8.838101e+000 -1.724429e+001  1.229433e+001
      vertex -8.634793e+000 -1.763446e+001  1.235288e+001
      vertex -8.856349e+000 -1.724429e+001  1.255397e+001
    endloop
  endfacet
  facet normal -9.572089e-001 -2.814700e-001 -6.727285e-002
    outer loop
      vertex -8.838101e+000 -1.724429e+001  1.229433e+001
      vertex -8.856349e+000 -1.724429e+001  1.255397e+001
      vertex -8.944456e+000 -1.687901e+001  1.227930e+001
    endloop
  endfacet
  facet normal -9.572099e-001 -2.814675e-001 -6.726918e-002
    outer loop
      vertex -8.944456e+000 -1.687901e+001  1.227930e+001
      vertex -8.856349e+000 -1.724429e+001  1.255397e+001
      vertex -8.963758e+000 -1.687901e+001  1.255397e+001
    endloop
  endfacet
  facet normal -9.930325e-001 -9.495336e-002 -6.978666e-002
    outer loop
      vertex -8.944456e+000 -1.687901e+001  1.227930e+001
      vertex -8.963758e+000 -1.687901e+001  1.255397e+001
      vertex -8.980341e+000 -1.650000e+001  1.227423e+001
    endloop
  endfacet
  facet normal -9.930323e-001 -9.495454e-002 -6.978828e-002
    outer loop
      vertex -8.980341e+000 -1.650000e+001  1.227423e+001
      vertex -8.963758e+000 -1.687901e+001  1.255397e+001
      vertex -9.000000e+000 -1.650000e+001  1.255397e+001
    endloop
  endfacet
  facet normal -9.735100e-001 -9.495333e-002 -2.079960e-001
    outer loop
      vertex -8.980341e+000 -1.650000e+001  1.227423e+001
      vertex -8.921749e+000 -1.650000e+001  1.200000e+001
      vertex -8.944456e+000 -1.687901e+001  1.227930e+001
    endloop
  endfacet
  facet normal -9.832823e-001 -6.611714e-002 -1.696600e-001
    outer loop
      vertex -8.944456e+000 -1.687901e+001  1.227930e+001
      vertex -8.921749e+000 -1.650000e+001  1.200000e+001
      vertex -8.905969e+000 -1.678827e+001  1.202088e+001
    endloop
  endfacet
  facet normal -9.541366e-001 -2.081320e-001 -2.151847e-001
    outer loop
      vertex -8.944456e+000 -1.687901e+001  1.227930e+001
      vertex -8.905969e+000 -1.678827e+001  1.202088e+001
      vertex -8.858934e+000 -1.706720e+001  1.208211e+001
    endloop
  endfacet
  facet normal  0.000000e+000 -6.340645e-002  9.979878e-001
    outer loop
      vertex  9.000000e+000 -1.650000e+001  1.700000e+001
      vertex -9.000000e+000 -1.650000e+001  1.700000e+001
      vertex  8.983920e+000 -1.675311e+001  1.698392e+001
    endloop
  endfacet
  facet normal  0.000000e+000 -6.340644e-002  9.979878e-001
    outer loop
      vertex  8.983920e+000 -1.675311e+001  1.698392e+001
      vertex -9.000000e+000 -1.650000e+001  1.700000e+001
      vertex -8.983920e+000 -1.675311e+001  1.698392e+001
    endloop
  endfacet
  facet normal  0.000000e+000 -1.686741e-001  9.856720e-001
    outer loop
      vertex  8.983920e+000 -1.675311e+001  1.698392e+001
      vertex -8.983920e+000 -1.675311e+001  1.698392e+001
      vertex  8.955191e+000 -1.692098e+001  1.695519e+001
    endloop
  endfacet
  facet normal  0.000000e+000 -1.686741e-001  9.856718e-001
    outer loop
      vertex  8.955191e+000 -1.692098e+001  1.695519e+001
      vertex -8.983920e+000 -1.675311e+001  1.698392e+001
      vertex -8.955191e+000 -1.692098e+001  1.695519e+001
    endloop
  endfacet
  facet normal  0.000000e+000 -2.512860e-001  9.679129e-001
    outer loop
      vertex  8.955191e+000 -1.692098e+001  1.695519e+001
      vertex -8.955191e+000 -1.692098e+001  1.695519e+001
      vertex  8.913072e+000 -1.708323e+001  1.691307e+001
    endloop
  endfacet
  facet normal  0.000000e+000 -2.512860e-001  9.679129e-001
    outer loop
      vertex  8.913072e+000 -1.708323e+001  1.691307e+001
      vertex -8.955191e+000 -1.692098e+001  1.695519e+001
      vertex -8.913072e+000 -1.708323e+001  1.691307e+001
    endloop
  endfacet
  facet normal  0.000000e+000 -3.681812e-001  9.297540e-001
    outer loop
      vertex  8.913072e+000 -1.708323e+001  1.691307e+001
      vertex -8.913072e+000 -1.708323e+001  1.691307e+001
      vertex  8.793699e+000 -1.738467e+001  1.679370e+001
    endloop
  endfacet
  facet normal  0.000000e+000 -3.681812e-001  9.297541e-001
    outer loop
      vertex  8.793699e+000 -1.738467e+001  1.679370e+001
      vertex -8.913072e+000 -1.708323e+001  1.691307e+001
      vertex -8.793699e+000 -1.738467e+001  1.679370e+001
    endloop
  endfacet
  facet normal  0.000000e+000 -5.100079e-001  8.601698e-001
    outer loop
      vertex  8.793699e+000 -1.738467e+001  1.679370e+001
      vertex -8.793699e+000 -1.738467e+001  1.679370e+001
      vertex  8.636788e+000 -1.764931e+001  1.663679e+001
    endloop
  endfacet
  facet normal  0.000000e+000 -5.100078e-001  8.601697e-001
    outer loop
      vertex  8.636788e+000 -1.764931e+001  1.663679e+001
      vertex -8.793699e+000 -1.738467e+001  1.679370e+001
      vertex -8.636788e+000 -1.764931e+001  1.663679e+001
    endloop
  endfacet
  facet normal  0.000000e+000 -6.330560e-001  7.741061e-001
    outer loop
      vertex  8.636788e+000 -1.764931e+001  1.663679e+001
      vertex -8.636788e+000 -1.764931e+001  1.663679e+001
      vertex  8.451305e+000 -1.787612e+001  1.645131e+001
    endloop
  endfacet
  facet normal  0.000000e+000 -6.330559e-001  7.741061e-001
    outer loop
      vertex  8.451305e+000 -1.787612e+001  1.645131e+001
      vertex -8.636788e+000 -1.764931e+001  1.663679e+001
      vertex -8.451305e+000 -1.787612e+001  1.645131e+001
    endloop
  endfacet
  facet normal  0.000000e+000 -7.370796e-001  6.758059e-001
    outer loop
      vertex  8.451305e+000 -1.787612e+001  1.645131e+001
      vertex -8.451305e+000 -1.787612e+001  1.645131e+001
      vertex  8.245315e+000 -1.806499e+001  1.624532e+001
    endloop
  endfacet
  facet normal  0.000000e+000 -7.370796e-001  6.758059e-001
    outer loop
      vertex  8.245315e+000 -1.806499e+001  1.624532e+001
      vertex -8.451305e+000 -1.787612e+001  1.645131e+001
      vertex -8.245315e+000 -1.806499e+001  1.624532e+001
    endloop
  endfacet
  facet normal  0.000000e+000 -8.224981e-001  5.687678e-001
    outer loop
      vertex  8.245315e+000 -1.806499e+001  1.624532e+001
      vertex -8.245315e+000 -1.806499e+001  1.624532e+001
      vertex  8.024635e+000 -1.821759e+001  1.602464e+001
    endloop
  endfacet
  facet normal  0.000000e+000 -8.224981e-001  5.687678e-001
    outer loop
      vertex  8.024635e+000 -1.821759e+001  1.602464e+001
      vertex -8.245315e+000 -1.806499e+001  1.624532e+001
      vertex -8.024635e+000 -1.821759e+001  1.602464e+001
    endloop
  endfacet
  facet normal  0.000000e+000 -8.827931e-001  4.697620e-001
    outer loop
      vertex  8.024635e+000 -1.821759e+001  1.602464e+001
      vertex -8.024635e+000 -1.821759e+001  1.602464e+001
      vertex  7.852193e+000 -1.830935e+001  1.585219e+001
    endloop
  endfacet
  facet normal  0.000000e+000 -8.827931e-001  4.697619e-001
    outer loop
      vertex  7.852193e+000 -1.830935e+001  1.585219e+001
      vertex -8.024635e+000 -1.821759e+001  1.602464e+001
      vertex -7.852193e+000 -1.830935e+001  1.585219e+001
    endloop
  endfacet
  facet normal  0.000000e+000 -9.240173e-001  3.823506e-001
    outer loop
      vertex  7.852193e+000 -1.830935e+001  1.585219e+001
      vertex -7.852193e+000 -1.830935e+001  1.585219e+001
      vertex  7.675449e+000 -1.838249e+001  1.567545e+001
    endloop
  endfacet
  facet normal  0.000000e+000 -9.240173e-001  3.823506e-001
    outer loop
      vertex  7.675449e+000 -1.838249e+001  1.567545e+001
      vertex -7.852193e+000 -1.830935e+001  1.585219e+001
      vertex -7.675449e+000 -1.838249e+001  1.567545e+001
    endloop
  endfacet
  facet normal  0.000000e+000 -9.686760e-001  2.483279e-001
    outer loop
      vertex  7.675449e+000 -1.838249e+001  1.567545e+001
      vertex -7.675449e+000 -1.838249e+001  1.567545e+001
      vertex  7.313513e+000 -1.847528e+001  1.531351e+001
    endloop
  endfacet
  facet normal  0.000000e+000 -9.686760e-001  2.483279e-001
    outer loop
      vertex  7.313513e+000 -1.847528e+001  1.531351e+001
      vertex -7.675449e+000 -1.838249e+001  1.567545e+001
      vertex -7.313513e+000 -1.847528e+001  1.531351e+001
    endloop
  endfacet
  facet normal  0.000000e+000 -9.969046e-001  7.862016e-002
    outer loop
      vertex  7.313513e+000 -1.847528e+001  1.531351e+001
      vertex -7.313513e+000 -1.847528e+001  1.531351e+001
      vertex  7.000000e+000 -1.850000e+001  1.500000e+001
    endloop
  endfacet
  facet normal  0.000000e+000 -9.969046e-001  7.862016e-002
    outer loop
      vertex  7.000000e+000 -1.850000e+001  1.500000e+001
      vertex -7.313513e+000 -1.847528e+001  1.531351e+001
      vertex -7.000000e+000 -1.850000e+001  1.500000e+001
    endloop
  endfacet
  facet normal  -0.000000e+000  1.000000e+000  0.000000e+000
    outer loop
      vertex -9.000000e+000  1.550000e+001  2.000000e+000
      vertex -9.000000e+000  1.550000e+001  7.000000e+000
      vertex -6.000000e+000  1.550000e+001  7.000000e+000
    endloop
  endfacet
  facet normal  -0.000000e+000  1.000000e+000  0.000000e+000
    outer loop
      vertex -9.000000e+000  1.550000e+001  2.000000e+000
      vertex -6.000000e+000  1.550000e+001  7.000000e+000
      vertex  6.000000e+000  1.550000e+001  7.000000e+000
    endloop
  endfacet
  facet normal  -0.000000e+000  1.000000e+000  0.000000e+000
    outer loop
      vertex -9.000000e+000  1.550000e+001  2.000000e+000
      vertex  6.000000e+000  1.550000e+001  7.000000e+000
      vertex  9.000000e+000  1.550000e+001  7.000000e+000
    endloop
  endfacet
  facet normal  0.000000e+000  1.000000e+000  0.000000e+000
    outer loop
      vertex -9.000000e+000  1.550000e+001  2.000000e+000
      vertex  9.000000e+000  1.550000e+001  7.000000e+000
      vertex  9.000000e+000  1.550000e+001  2.000000e+000
    endloop
  endfacet
  facet normal  -0.000000e+000  1.000000e+000  0.000000e+000
    outer loop
      vertex  8.967637e+000  1.550000e+001  1.219563e+001
      vertex -9.000000e+000  1.550000e+001  1.255397e+001
      vertex  9.000000e+000  1.550000e+001  1.255397e+001
    endloop
  endfacet
  facet normal  0.000000e+000  1.000000e+000  0.000000e+000
    outer loop
      vertex  9.000000e+000  1.550000e+001  1.255397e+001
      vertex -9.000000e+000  1.550000e+001  1.255397e+001
      vertex -9.000000e+000  1.550000e+001  1.700000e+001
    endloop
  endfacet
  facet normal  -0.000000e+000  1.000000e+000  0.000000e+000
    outer loop
      vertex  9.000000e+000  1.550000e+001  1.255397e+001
      vertex -9.000000e+000  1.550000e+001  1.700000e+001
      vertex  9.000000e+000  1.550000e+001  1.700000e+001
    endloop
  endfacet
  facet normal  0.000000e+000  1.000000e+000  0.000000e+000
    outer loop
      vertex -9.000000e+000  1.550000e+001  1.255397e+001
      vertex  8.967637e+000  1.550000e+001  1.219563e+001
      vertex -8.967637e+000  1.550000e+001  1.219563e+001
    endloop
  endfacet
  facet normal  -0.000000e+000  1.000000e+000  0.000000e+000
    outer loop
      vertex -8.967637e+000  1.550000e+001  1.219563e+001
      vertex  8.967637e+000  1.550000e+001  1.219563e+001
      vertex  8.871596e+000  1.550000e+001  1.184890e+001
    endloop
  endfacet
  facet normal  0.000000e+000  1.000000e+000  0.000000e+000
    outer loop
      vertex -8.967637e+000  1.550000e+001  1.219563e+001
      vertex  8.871596e+000  1.550000e+001  1.184890e+001
      vertex -8.871596e+000  1.550000e+001  1.184890e+001
    endloop
  endfacet
  facet normal  -0.000000e+000  9.999999e-001  0.000000e+000
    outer loop
      vertex -8.871596e+000  1.550000e+001  1.184890e+001
      vertex  8.871596e+000  1.550000e+001  1.184890e+001
      vertex  8.714986e+000  1.550000e+001  1.152498e+001
    endloop
  endfacet
  facet normal  0.000000e+000  1.000000e+000  0.000000e+000
    outer loop
      vertex -8.871596e+000  1.550000e+001  1.184890e+001
      vertex  8.714986e+000  1.550000e+001  1.152498e+001
      vertex -8.714986e+000  1.550000e+001  1.152498e+001
    endloop
  endfacet
  facet normal  -0.000000e+000  1.000000e+000  0.000000e+000
    outer loop
      vertex -8.714986e+000  1.550000e+001  1.152498e+001
      vertex  8.714986e+000  1.550000e+001  1.152498e+001
      vertex  6.000000e+000  1.550000e+001  7.000000e+000
    endloop
  endfacet
  facet normal  0.000000e+000  9.999999e-001  0.000000e+000
    outer loop
      vertex -8.714986e+000  1.550000e+001  1.152498e+001
      vertex  6.000000e+000  1.550000e+001  7.000000e+000
      vertex -6.000000e+000  1.550000e+001  7.000000e+000
    endloop
  endfacet
  facet normal  0.000000e+000 -1.000000e+000  0.000000e+000
    outer loop
      vertex  6.000000e+000 -1.550000e+001  7.000000e+000
      vertex -8.921749e+000 -1.550000e+001  1.200000e+001
      vertex -8.833814e+000 -1.550000e+001  1.175576e+001
    endloop
  endfacet
  facet normal  0.000000e+000 -9.999999e-001  0.000000e+000
    outer loop
      vertex  6.000000e+000 -1.550000e+001  7.000000e+000
      vertex -8.833814e+000 -1.550000e+001  1.175576e+001
      vertex -8.714986e+000 -1.550000e+001  1.152498e+001
    endloop
  endfacet
  facet normal  0.000000e+000 -9.999999e-001  0.000000e+000
    outer loop
      vertex  6.000000e+000 -1.550000e+001  7.000000e+000
      vertex -8.714986e+000 -1.550000e+001  1.152498e+001
      vertex -6.000000e+000 -1.550000e+001  7.000000e+000
    endloop
  endfacet
  facet normal  0.000000e+000 -1.000000e+000  0.000000e+000
    outer loop
      vertex  6.000000e+000 -1.550000e+001  7.000000e+000
      vertex -6.000000e+000 -1.550000e+001  7.000000e+000
      vertex  9.000000e+000 -1.550000e+001  2.000000e+000
    endloop
  endfacet
  facet normal  0.000000e+000 -1.000000e+000  0.000000e+000
    outer loop
      vertex  6.000000e+000 -1.550000e+001  7.000000e+000
      vertex  9.000000e+000 -1.550000e+001  2.000000e+000
      vertex  9.000000e+000 -1.550000e+001  7.000000e+000
    endloop
  endfacet
  facet normal  0.000000e+000 -9.999999e-001  0.000000e+000
    outer loop
      vertex  8.921749e+000 -1.550000e+001  1.200000e+001
      vertex -8.921749e+000 -1.550000e+001  1.200000e+001
      vertex  6.000000e+000 -1.550000e+001  7.000000e+000
    endloop
  endfacet
  facet normal  0.000000e+000 -1.000000e+000  0.000000e+000
    outer loop
      vertex  8.921749e+000 -1.550000e+001  1.200000e+001
      vertex  6.000000e+000 -1.550000e+001  7.000000e+000
      vertex  8.714986e+000 -1.550000e+001  1.152498e+001
    endloop
  endfacet
  facet normal  0.000000e+000 -1.000000e+000  0.000000e+000
    outer loop
      vertex  8.921749e+000 -1.550000e+001  1.200000e+001
      vertex  8.714986e+000 -1.550000e+001  1.152498e+001
      vertex  8.833814e+000 -1.550000e+001  1.175576e+001
    endloop
  endfacet
  facet normal  0.000000e+000 -1.000000e+000  0.000000e+000
    outer loop
      vertex -6.000000e+000 -1.550000e+001  7.000000e+000
      vertex -9.000000e+000 -1.550000e+001  7.000000e+000
      vertex  9.000000e+000 -1.550000e+001  2.000000e+000
    endloop
  endfacet
  facet normal  0.000000e+000 -1.000000e+000  0.000000e+000
    outer loop
      vertex  9.000000e+000 -1.550000e+001  2.000000e+000
      vertex -9.000000e+000 -1.550000e+001  7.000000e+000
      vertex -9.000000e+000 -1.550000e+001  2.000000e+000
    endloop
  endfacet
  facet normal -8.574930e-001  0.000000e+000 -5.144957e-001
    outer loop
      vertex -8.714986e+000  1.550000e+001  1.152498e+001
      vertex -6.000000e+000  1.550000e+001  7.000000e+000
      vertex -8.714986e+000 -1.550000e+001  1.152498e+001
    endloop
  endfacet
  facet normal -8.574930e-001  0.000000e+000 -5.144957e-001
    outer loop
      vertex -8.714986e+000 -1.550000e+001  1.152498e+001
      vertex -6.000000e+000  1.550000e+001  7.000000e+000
      vertex -6.000000e+000 -1.550000e+001  7.000000e+000
    endloop
  endfacet
  facet normal  8.574930e-001  0.000000e+000 -5.144957e-001
    outer loop
      vertex  8.714986e+000  1.550000e+001  1.152498e+001
      vertex  8.714986e+000 -1.550000e+001  1.152498e+001
      vertex  6.000000e+000  1.550000e+001  7.000000e+000
    endloop
  endfacet
  facet normal  8.574930e-001  0.000000e+000 -5.144957e-001
    outer loop
      vertex  6.000000e+000  1.550000e+001  7.000000e+000
      vertex  8.714986e+000 -1.550000e+001  1.152498e+001
      vertex  6.000000e+000 -1.550000e+001  7.000000e+000
    endloop
  endfacet
  facet normal  0.000000e+000  0.000000e+000 -9.999999e-001
    outer loop
      vertex -7.000000e+000 -1.350000e+001  0.000000e+000
      vertex -7.000000e+000  1.350000e+001  0.000000e+000
      vertex  7.000000e+000 -1.350000e+001  0.000000e+000
    endloop
  endfacet
  facet normal  0.000000e+000  0.000000e+000 -9.999999e-001
    outer loop
      vertex  7.000000e+000 -1.350000e+001  0.000000e+000
      vertex -7.000000e+000  1.350000e+001  0.000000e+000
      vertex  7.000000e+000  1.350000e+001  0.000000e+000
    endloop
  endfacet
  facet normal -1.000000e+000  0.000000e+000  0.000000e+000
    outer loop
      vertex -9.000000e+000  1.550000e+001  7.000000e+000
      vertex -9.000000e+000  1.550000e+001  2.000000e+000
      vertex -9.000000e+000 -1.550000e+001  7.000000e+000
    endloop
  endfacet
  facet normal -1.000000e+000  0.000000e+000  0.000000e+000
    outer loop
      vertex -9.000000e+000 -1.550000e+001  7.000000e+000
      vertex -9.000000e+000  1.550000e+001  2.000000e+000
      vertex -9.000000e+000 -1.550000e+001  2.000000e+000
    endloop
  endfacet
  facet normal  1.000000e+000  0.000000e+000  0.000000e+000
    outer loop
      vertex  9.000000e+000 -1.550000e+001  7.000000e+000
      vertex  9.000000e+000 -1.550000e+001  2.000000e+000
      vertex  9.000000e+000  1.550000e+001  7.000000e+000
    endloop
  endfacet
  facet normal  1.000000e+000  0.000000e+000  0.000000e+000
    outer loop
      vertex  9.000000e+000  1.550000e+001  7.000000e+000
      vertex  9.000000e+000 -1.550000e+001  2.000000e+000
      vertex  9.000000e+000  1.550000e+001  2.000000e+000
    endloop
  endfacet
  facet normal  7.862165e-002  0.000000e+000 -9.969045e-001
    outer loop
      vertex  7.000000e+000 -1.350000e+001  0.000000e+000
      vertex  7.000000e+000  1.350000e+001  0.000000e+000
      vertex  7.313513e+000 -1.381351e+001  2.472547e-002
    endloop
  endfacet
  facet normal  7.862166e-002  0.000000e+000 -9.969046e-001
    outer loop
      vertex  7.313513e+000 -1.381351e+001  2.472547e-002
      vertex  7.000000e+000  1.350000e+001  0.000000e+000
      vertex  7.313513e+000  1.381351e+001  2.472547e-002
    endloop
  endfacet
  facet normal  2.483261e-001  0.000000e+000 -9.686765e-001
    outer loop
      vertex  7.313513e+000 -1.381351e+001  2.472547e-002
      vertex  7.313513e+000  1.381351e+001  2.472547e-002
      vertex  7.675449e+000 -1.417545e+001  1.175099e-001
    endloop
  endfacet
  facet normal  2.483261e-001  0.000000e+000 -9.686765e-001
    outer loop
      vertex  7.675449e+000 -1.417545e+001  1.175099e-001
      vertex  7.313513e+000  1.381351e+001  2.472547e-002
      vertex  7.675449e+000  1.417545e+001  1.175099e-001
    endloop
  endfacet
  facet normal  3.823479e-001  0.000000e+000 -9.240185e-001
    outer loop
      vertex  7.675449e+000 -1.417545e+001  1.175099e-001
      vertex  7.675449e+000  1.417545e+001  1.175099e-001
      vertex  7.852193e+000 -1.435219e+001  1.906446e-001
    endloop
  endfacet
  facet normal  3.823479e-001  0.000000e+000 -9.240184e-001
    outer loop
      vertex  7.852193e+000 -1.435219e+001  1.906446e-001
      vertex  7.675449e+000  1.417545e+001  1.175099e-001
      vertex  7.852193e+000  1.435219e+001  1.906446e-001
    endloop
  endfacet
  facet normal  4.697671e-001  0.000000e+000 -8.827904e-001
    outer loop
      vertex  7.852193e+000 -1.435219e+001  1.906446e-001
      vertex  7.852193e+000  1.435219e+001  1.906446e-001
      vertex  8.024635e+000 -1.452463e+001  2.824077e-001
    endloop
  endfacet
  facet normal  4.697671e-001  0.000000e+000 -8.827904e-001
    outer loop
      vertex  8.024635e+000 -1.452463e+001  2.824077e-001
      vertex  7.852193e+000  1.435219e+001  1.906446e-001
      vertex  8.024635e+000  1.452463e+001  2.824077e-001
    endloop
  endfacet
  facet normal  5.687683e-001  0.000000e+000 -8.224978e-001
    outer loop
      vertex  8.024635e+000 -1.452463e+001  2.824077e-001
      vertex  8.024635e+000  1.452463e+001  2.824077e-001
      vertex  8.245315e+000 -1.474532e+001  4.350104e-001
    endloop
  endfacet
  facet normal  5.687683e-001  0.000000e+000 -8.224978e-001
    outer loop
      vertex  8.245315e+000 -1.474532e+001  4.350104e-001
      vertex  8.024635e+000  1.452463e+001  2.824077e-001
      vertex  8.245315e+000  1.474532e+001  4.350104e-001
    endloop
  endfacet
  facet normal  6.758075e-001  0.000000e+000 -7.370780e-001
    outer loop
      vertex  8.245315e+000 -1.474532e+001  4.350104e-001
      vertex  8.245315e+000  1.474532e+001  4.350104e-001
      vertex  8.451305e+000 -1.495131e+001  6.238779e-001
    endloop
  endfacet
  facet normal  6.758076e-001  0.000000e+000 -7.370781e-001
    outer loop
      vertex  8.451305e+000 -1.495131e+001  6.238779e-001
      vertex  8.245315e+000  1.474532e+001  4.350104e-001
      vertex  8.451305e+000  1.495131e+001  6.238779e-001
    endloop
  endfacet
  facet normal  7.741018e-001  0.000000e+000 -6.330612e-001
    outer loop
      vertex  8.451305e+000 -1.495131e+001  6.238779e-001
      vertex  8.451305e+000  1.495131e+001  6.238779e-001
      vertex  8.636788e+000 -1.513679e+001  8.506849e-001
    endloop
  endfacet
  facet normal  7.741017e-001  0.000000e+000 -6.330612e-001
    outer loop
      vertex  8.636788e+000 -1.513679e+001  8.506849e-001
      vertex  8.451305e+000  1.495131e+001  6.238779e-001
      vertex  8.636788e+000  1.513679e+001  8.506849e-001
    endloop
  endfacet
  facet normal  8.601713e-001  0.000000e+000 -5.100051e-001
    outer loop
      vertex  8.636788e+000 -1.513679e+001  8.506849e-001
      vertex  8.636788e+000  1.513679e+001  8.506849e-001
      vertex  8.793699e+000 -1.529370e+001  1.115330e+000
    endloop
  endfacet
  facet normal  8.601714e-001  0.000000e+000 -5.100051e-001
    outer loop
      vertex  8.793699e+000 -1.529370e+001  1.115330e+000
      vertex  8.636788e+000  1.513679e+001  8.506849e-001
      vertex  8.793699e+000  1.529370e+001  1.115330e+000
    endloop
  endfacet
  facet normal  9.297511e-001  0.000000e+000 -3.681886e-001
    outer loop
      vertex  8.793699e+000 -1.529370e+001  1.115330e+000
      vertex  8.793699e+000  1.529370e+001  1.115330e+000
      vertex  8.913072e+000 -1.541307e+001  1.416769e+000
    endloop
  endfacet
  facet normal  9.297511e-001  0.000000e+000 -3.681886e-001
    outer loop
      vertex  8.913072e+000 -1.541307e+001  1.416769e+000
      vertex  8.793699e+000  1.529370e+001  1.115330e+000
      vertex  8.913072e+000  1.541307e+001  1.416769e+000
    endloop
  endfacet
  facet normal  9.679167e-001  0.000000e+000 -2.512710e-001
    outer loop
      vertex  8.913072e+000 -1.541307e+001  1.416769e+000
      vertex  8.913072e+000  1.541307e+001  1.416769e+000
      vertex  8.955191e+000 -1.545519e+001  1.579015e+000
    endloop
  endfacet
  facet normal  9.679168e-001  0.000000e+000 -2.512710e-001
    outer loop
      vertex  8.955191e+000 -1.545519e+001  1.579015e+000
      vertex  8.913072e+000  1.541307e+001  1.416769e+000
      vertex  8.955191e+000  1.545519e+001  1.579015e+000
    endloop
  endfacet
  facet normal  9.856709e-001  0.000000e+000 -1.686796e-001
    outer loop
      vertex  8.955191e+000 -1.545519e+001  1.579015e+000
      vertex  8.955191e+000  1.545519e+001  1.579015e+000
      vertex  8.983920e+000 -1.548392e+001  1.746894e+000
    endloop
  endfacet
  facet normal  9.856709e-001  0.000000e+000 -1.686795e-001
    outer loop
      vertex  8.983920e+000 -1.548392e+001  1.746894e+000
      vertex  8.955191e+000  1.545519e+001  1.579015e+000
      vertex  8.983920e+000  1.548392e+001  1.746894e+000
    endloop
  endfacet
  facet normal  9.979880e-001  0.000000e+000 -6.340260e-002
    outer loop
      vertex  8.983920e+000 -1.548392e+001  1.746894e+000
      vertex  8.983920e+000  1.548392e+001  1.746894e+000
      vertex  9.000000e+000 -1.550000e+001  2.000000e+000
    endloop
  endfacet
  facet normal  9.979880e-001  0.000000e+000 -6.340261e-002
    outer loop
      vertex  9.000000e+000 -1.550000e+001  2.000000e+000
      vertex  8.983920e+000  1.548392e+001  1.746894e+000
      vertex  9.000000e+000  1.550000e+001  2.000000e+000
    endloop
  endfacet
  facet normal  0.000000e+000 -9.979880e-001 -6.340261e-002
    outer loop
      vertex  9.000000e+000 -1.550000e+001  2.000000e+000
      vertex -9.000000e+000 -1.550000e+001  2.000000e+000
      vertex  8.983920e+000 -1.548392e+001  1.746894e+000
    endloop
  endfacet
  facet normal  -0.000000e+000 -9.979880e-001 -6.340261e-002
    outer loop
      vertex  8.983920e+000 -1.548392e+001  1.746894e+000
      vertex -9.000000e+000 -1.550000e+001  2.000000e+000
      vertex -8.983920e+000 -1.548392e+001  1.746894e+000
    endloop
  endfacet
  facet normal  0.000000e+000 -9.856709e-001 -1.686796e-001
    outer loop
      vertex  8.983920e+000 -1.548392e+001  1.746894e+000
      vertex -8.983920e+000 -1.548392e+001  1.746894e+000
      vertex  8.955191e+000 -1.545519e+001  1.579015e+000
    endloop
  endfacet
  facet normal  -0.000000e+000 -9.856709e-001 -1.686796e-001
    outer loop
      vertex  8.955191e+000 -1.545519e+001  1.579015e+000
      vertex -8.983920e+000 -1.548392e+001  1.746894e+000
      vertex -8.955191e+000 -1.545519e+001  1.579015e+000
    endloop
  endfacet
  facet normal  0.000000e+000 -9.679140e-001 -2.512817e-001
    outer loop
      vertex  8.955191e+000 -1.545519e+001  1.579015e+000
      vertex -8.955191e+000 -1.545519e+001  1.579015e+000
      vertex  8.913072e+000 -1.541307e+001  1.416769e+000
    endloop
  endfacet
  facet normal  1.035645e-007 -9.679168e-001 -2.512710e-001
    outer loop
      vertex  8.913072e+000 -1.541307e+001  1.416769e+000
      vertex -8.955191e+000 -1.545519e+001  1.579015e+000
      vertex -8.913070e+000 -1.541307e+001  1.416769e+000
    endloop
  endfacet
  facet normal  9.948105e-008 -9.297531e-001 -3.681835e-001
    outer loop
      vertex  8.913072e+000 -1.541307e+001  1.416769e+000
      vertex -8.913070e+000 -1.541307e+001  1.416769e+000
      vertex  8.793699e+000 -1.529370e+001  1.115330e+000
    endloop
  endfacet
  facet normal  -0.000000e+000 -9.297512e-001 -3.681886e-001
    outer loop
      vertex  8.793699e+000 -1.529370e+001  1.115330e+000
      vertex -8.913070e+000 -1.541307e+001  1.416769e+000
      vertex -8.793699e+000 -1.529370e+001  1.115330e+000
    endloop
  endfacet
  facet normal  0.000000e+000 -8.601713e-001 -5.100051e-001
    outer loop
      vertex  8.793699e+000 -1.529370e+001  1.115330e+000
      vertex -8.793699e+000 -1.529370e+001  1.115330e+000
      vertex  8.636788e+000 -1.513679e+001  8.506849e-001
    endloop
  endfacet
  facet normal  -0.000000e+000 -8.601714e-001 -5.100052e-001
    outer loop
      vertex  8.636788e+000 -1.513679e+001  8.506849e-001
      vertex -8.793699e+000 -1.529370e+001  1.115330e+000
      vertex -8.636788e+000 -1.513679e+001  8.506849e-001
    endloop
  endfacet
  facet normal  0.000000e+000 -7.741033e-001 -6.330592e-001
    outer loop
      vertex  8.636788e+000 -1.513679e+001  8.506849e-001
      vertex -8.636788e+000 -1.513679e+001  8.506849e-001
      vertex  8.451305e+000 -1.495131e+001  6.238779e-001
    endloop
  endfacet
  facet normal -4.367615e-008 -7.741018e-001 -6.330612e-001
    outer loop
      vertex  8.451305e+000 -1.495131e+001  6.238779e-001
      vertex -8.636788e+000 -1.513679e+001  8.506849e-001
      vertex -8.451306e+000 -1.495131e+001  6.238779e-001
    endloop
  endfacet
  facet normal -3.813022e-008 -6.758076e-001 -7.370780e-001
    outer loop
      vertex  8.451305e+000 -1.495131e+001  6.238779e-001
      vertex -8.451306e+000 -1.495131e+001  6.238779e-001
      vertex  8.245315e+000 -1.474532e+001  4.350104e-001
    endloop
  endfacet
  facet normal -3.908282e-008 -6.758076e-001 -7.370781e-001
    outer loop
      vertex  8.245315e+000 -1.474532e+001  4.350104e-001
      vertex -8.451306e+000 -1.495131e+001  6.238779e-001
      vertex -8.245316e+000 -1.474531e+001  4.350104e-001
    endloop
  endfacet
  facet normal -3.289241e-008 -5.687649e-001 -8.225001e-001
    outer loop
      vertex  8.245315e+000 -1.474532e+001  4.350104e-001
      vertex -8.245316e+000 -1.474531e+001  4.350104e-001
      vertex  8.024635e+000 -1.452463e+001  2.824077e-001
    endloop
  endfacet
  facet normal  3.379715e-008 -5.687683e-001 -8.224978e-001
    outer loop
      vertex  8.024635e+000 -1.452463e+001  2.824077e-001
      vertex -8.245316e+000 -1.474531e+001  4.350104e-001
      vertex -8.024634e+000 -1.452464e+001  2.824077e-001
    endloop
  endfacet
  facet normal  2.791428e-008 -4.697660e-001 -8.827909e-001
    outer loop
      vertex  8.024635e+000 -1.452463e+001  2.824077e-001
      vertex -8.024634e+000 -1.452464e+001  2.824077e-001
      vertex  7.852193e+000 -1.435219e+001  1.906446e-001
    endloop
  endfacet
  facet normal  2.852731e-008 -4.697661e-001 -8.827909e-001
    outer loop
      vertex  7.852193e+000 -1.435219e+001  1.906446e-001
      vertex -8.024634e+000 -1.452464e+001  2.824077e-001
      vertex -7.852191e+000 -1.435219e+001  1.906446e-001
    endloop
  endfacet
  facet normal  2.321869e-008 -3.823478e-001 -9.240184e-001
    outer loop
      vertex  7.852193e+000 -1.435219e+001  1.906446e-001
      vertex -7.852191e+000 -1.435219e+001  1.906446e-001
      vertex  7.675449e+000 -1.417545e+001  1.175099e-001
    endloop
  endfacet
  facet normal  2.375336e-008 -3.823479e-001 -9.240184e-001
    outer loop
      vertex  7.675449e+000 -1.417545e+001  1.175099e-001
      vertex -7.852191e+000 -1.435219e+001  1.906446e-001
      vertex -7.675447e+000 -1.417545e+001  1.175099e-001
    endloop
  endfacet
  facet normal  1.542729e-008 -2.483267e-001 -9.686764e-001
    outer loop
      vertex  7.675449e+000 -1.417545e+001  1.175099e-001
      vertex -7.675447e+000 -1.417545e+001  1.175099e-001
      vertex  7.313513e+000 -1.381351e+001  2.472547e-002
    endloop
  endfacet
  facet normal  -0.000000e+000 -2.483261e-001 -9.686764e-001
    outer loop
      vertex  7.313513e+000 -1.381351e+001  2.472547e-002
      vertex -7.675447e+000 -1.417545e+001  1.175099e-001
      vertex -7.313513e+000 -1.381351e+001  2.472547e-002
    endloop
  endfacet
  facet normal  0.000000e+000 -7.862177e-002 -9.969045e-001
    outer loop
      vertex  7.313513e+000 -1.381351e+001  2.472547e-002
      vertex -7.313513e+000 -1.381351e+001  2.472547e-002
      vertex  7.000000e+000 -1.350000e+001  0.000000e+000
    endloop
  endfacet
  facet normal  -0.000000e+000 -7.862177e-002 -9.969045e-001
    outer loop
      vertex  7.000000e+000 -1.350000e+001  0.000000e+000
      vertex -7.313513e+000 -1.381351e+001  2.472547e-002
      vertex -7.000000e+000 -1.350000e+001  0.000000e+000
    endloop
  endfacet
  facet normal -7.862165e-002  0.000000e+000 -9.969045e-001
    outer loop
      vertex -7.000000e+000  1.350000e+001  0.000000e+000
      vertex -7.000000e+000 -1.350000e+001  0.000000e+000
      vertex -7.313513e+000  1.381351e+001  2.472547e-002
    endloop
  endfacet
  facet normal -7.862166e-002  -0.000000e+000 -9.969046e-001
    outer loop
      vertex -7.313513e+000  1.381351e+001  2.472547e-002
      vertex -7.000000e+000 -1.350000e+001  0.000000e+000
      vertex -7.313513e+000 -1.381351e+001  2.472547e-002
    endloop
  endfacet
  facet normal -2.483261e-001  0.000000e+000 -9.686765e-001
    outer loop
      vertex -7.313513e+000  1.381351e+001  2.472547e-002
      vertex -7.313513e+000 -1.381351e+001  2.472547e-002
      vertex -7.675449e+000  1.417545e+001  1.175099e-001
    endloop
  endfacet
  facet normal -2.483270e-001 -1.252993e-008 -9.686762e-001
    outer loop
      vertex -7.675449e+000  1.417545e+001  1.175099e-001
      vertex -7.313513e+000 -1.381351e+001  2.472547e-002
      vertex -7.675447e+000 -1.417545e+001  1.175099e-001
    endloop
  endfacet
  facet normal -3.823479e-001 -1.929227e-008 -9.240184e-001
    outer loop
      vertex -7.675449e+000  1.417545e+001  1.175099e-001
      vertex -7.675447e+000 -1.417545e+001  1.175099e-001
      vertex -7.852193e+000  1.435219e+001  1.906446e-001
    endloop
  endfacet
  facet normal -3.823488e-001 -2.540631e-008 -9.240181e-001
    outer loop
      vertex -7.852193e+000  1.435219e+001  1.906446e-001
      vertex -7.675447e+000 -1.417545e+001  1.175099e-001
      vertex -7.852191e+000 -1.435219e+001  1.906446e-001
    endloop
  endfacet
  facet normal -4.697671e-001 -3.121508e-008 -8.827904e-001
    outer loop
      vertex -7.852193e+000  1.435219e+001  1.906446e-001
      vertex -7.852191e+000 -1.435219e+001  1.906446e-001
      vertex -8.024635e+000  1.452463e+001  2.824077e-001
    endloop
  endfacet
  facet normal -4.697650e-001 -1.542217e-008 -8.827915e-001
    outer loop
      vertex -8.024635e+000  1.452463e+001  2.824077e-001
      vertex -7.852191e+000 -1.435219e+001  1.906446e-001
      vertex -8.024634e+000 -1.452464e+001  2.824077e-001
    endloop
  endfacet
  facet normal -5.687683e-001 -1.867240e-008 -8.224978e-001
    outer loop
      vertex -8.024635e+000  1.452463e+001  2.824077e-001
      vertex -8.024634e+000 -1.452464e+001  2.824077e-001
      vertex -8.245315e+000  1.474532e+001  4.350104e-001
    endloop
  endfacet
  facet normal -5.687649e-001  1.839284e-008 -8.225001e-001
    outer loop
      vertex -8.245315e+000  1.474532e+001  4.350104e-001
      vertex -8.024634e+000 -1.452464e+001  2.824077e-001
      vertex -8.245316e+000 -1.474531e+001  4.350104e-001
    endloop
  endfacet
  facet normal -6.758075e-001  2.185441e-008 -7.370780e-001
    outer loop
      vertex -8.245315e+000  1.474532e+001  4.350104e-001
      vertex -8.245316e+000 -1.474531e+001  4.350104e-001
      vertex -8.451305e+000  1.495131e+001  6.238779e-001
    endloop
  endfacet
  facet normal -6.758076e-001  2.155331e-008 -7.370780e-001
    outer loop
      vertex -8.451305e+000  1.495131e+001  6.238779e-001
      vertex -8.245316e+000 -1.474531e+001  4.350104e-001
      vertex -8.451306e+000 -1.495131e+001  6.238779e-001
    endloop
  endfacet
  facet normal -7.741018e-001  2.468818e-008 -6.330612e-001
    outer loop
      vertex -8.451305e+000  1.495131e+001  6.238779e-001
      vertex -8.451306e+000 -1.495131e+001  6.238779e-001
      vertex -8.636788e+000  1.513679e+001  8.506849e-001
    endloop
  endfacet
  facet normal -7.741033e-001  -0.000000e+000 -6.330592e-001
    outer loop
      vertex -8.636788e+000  1.513679e+001  8.506849e-001
      vertex -8.451306e+000 -1.495131e+001  6.238779e-001
      vertex -8.636788e+000 -1.513679e+001  8.506849e-001
    endloop
  endfacet
  facet normal -8.601713e-001  0.000000e+000 -5.100051e-001
    outer loop
      vertex -8.636788e+000  1.513679e+001  8.506849e-001
      vertex -8.636788e+000 -1.513679e+001  8.506849e-001
      vertex -8.793699e+000  1.529370e+001  1.115330e+000
    endloop
  endfacet
  facet normal -8.601714e-001  -0.000000e+000 -5.100051e-001
    outer loop
      vertex -8.793699e+000  1.529370e+001  1.115330e+000
      vertex -8.636788e+000 -1.513679e+001  8.506849e-001
      vertex -8.793699e+000 -1.529370e+001  1.115330e+000
    endloop
  endfacet
  facet normal -9.297511e-001  0.000000e+000 -3.681886e-001
    outer loop
      vertex -8.793699e+000  1.529370e+001  1.115330e+000
      vertex -8.793699e+000 -1.529370e+001  1.115330e+000
      vertex -8.913072e+000  1.541307e+001  1.416769e+000
    endloop
  endfacet
  facet normal -9.297531e-001 -5.752791e-008 -3.681835e-001
    outer loop
      vertex -8.913072e+000  1.541307e+001  1.416769e+000
      vertex -8.793699e+000 -1.529370e+001  1.115330e+000
      vertex -8.913070e+000 -1.541307e+001  1.416769e+000
    endloop
  endfacet
  facet normal -9.679167e-001 -5.988926e-008 -2.512710e-001
    outer loop
      vertex -8.913072e+000  1.541307e+001  1.416769e+000
      vertex -8.913070e+000 -1.541307e+001  1.416769e+000
      vertex -8.955191e+000  1.545519e+001  1.579015e+000
    endloop
  endfacet
  facet normal -9.679140e-001  -0.000000e+000 -2.512816e-001
    outer loop
      vertex -8.955191e+000  1.545519e+001  1.579015e+000
      vertex -8.913070e+000 -1.541307e+001  1.416769e+000
      vertex -8.955191e+000 -1.545519e+001  1.579015e+000
    endloop
  endfacet
  facet normal -9.856709e-001  0.000000e+000 -1.686796e-001
    outer loop
      vertex -8.955191e+000  1.545519e+001  1.579015e+000
      vertex -8.955191e+000 -1.545519e+001  1.579015e+000
      vertex -8.983920e+000  1.548392e+001  1.746894e+000
    endloop
  endfacet
  facet normal -9.856709e-001  -0.000000e+000 -1.686795e-001
    outer loop
      vertex -8.983920e+000  1.548392e+001  1.746894e+000
      vertex -8.955191e+000 -1.545519e+001  1.579015e+000
      vertex -8.983920e+000 -1.548392e+001  1.746894e+000
    endloop
  endfacet
  facet normal -9.979880e-001  0.000000e+000 -6.340260e-002
    outer loop
      vertex -8.983920e+000  1.548392e+001  1.746894e+000
      vertex -8.983920e+000 -1.548392e+001  1.746894e+000
      vertex -9.000000e+000  1.550000e+001  2.000000e+000
    endloop
  endfacet
  facet normal -9.979880e-001  -0.000000e+000 -6.340261e-002
    outer loop
      vertex -9.000000e+000  1.550000e+001  2.000000e+000
      vertex -8.983920e+000 -1.548392e+001  1.746894e+000
      vertex -9.000000e+000 -1.550000e+001  2.000000e+000
    endloop
  endfacet
  facet normal  0.000000e+000  9.979880e-001 -6.340261e-002
    outer loop
      vertex -9.000000e+000  1.550000e+001  2.000000e+000
      vertex  9.000000e+000  1.550000e+001  2.000000e+000
      vertex -8.983920e+000  1.548392e+001  1.746894e+000
    endloop
  endfacet
  facet normal  0.000000e+000  9.979880e-001 -6.340261e-002
    outer loop
      vertex -8.983920e+000  1.548392e+001  1.746894e+000
      vertex  9.000000e+000  1.550000e+001  2.000000e+000
      vertex  8.983920e+000  1.548392e+001  1.746894e+000
    endloop
  endfacet
  facet normal  0.000000e+000  9.856709e-001 -1.686796e-001
    outer loop
      vertex -8.983920e+000  1.548392e+001  1.746894e+000
      vertex  8.983920e+000  1.548392e+001  1.746894e+000
      vertex -8.955191e+000  1.545519e+001  1.579015e+000
    endloop
  endfacet
  facet normal  0.000000e+000  9.856709e-001 -1.686796e-001
    outer loop
      vertex -8.955191e+000  1.545519e+001  1.579015e+000
      vertex  8.983920e+000  1.548392e+001  1.746894e+000
      vertex  8.955191e+000  1.545519e+001  1.579015e+000
    endloop
  endfacet
  facet normal  0.000000e+000  9.679140e-001 -2.512817e-001
    outer loop
      vertex -8.955191e+000  1.545519e+001  1.579015e+000
      vertex  8.955191e+000  1.545519e+001  1.579015e+000
      vertex -8.913072e+000  1.541307e+001  1.416769e+000
    endloop
  endfacet
  facet normal  0.000000e+000  9.679140e-001 -2.512816e-001
    outer loop
      vertex -8.913072e+000  1.541307e+001  1.416769e+000
      vertex  8.955191e+000  1.545519e+001  1.579015e+000
      vertex  8.913072e+000  1.541307e+001  1.416769e+000
    endloop
  endfacet
  facet normal  0.000000e+000  9.297531e-001 -3.681835e-001
    outer loop
      vertex -8.913072e+000  1.541307e+001  1.416769e+000
      vertex  8.913072e+000  1.541307e+001  1.416769e+000
      vertex -8.793699e+000  1.529370e+001  1.115330e+000
    endloop
  endfacet
  facet normal  0.000000e+000  9.297532e-001 -3.681835e-001
    outer loop
      vertex -8.793699e+000  1.529370e+001  1.115330e+000
      vertex  8.913072e+000  1.541307e+001  1.416769e+000
      vertex  8.793699e+000  1.529370e+001  1.115330e+000
    endloop
  endfacet
  facet normal  0.000000e+000  8.601713e-001 -5.100051e-001
    outer loop
      vertex -8.793699e+000  1.529370e+001  1.115330e+000
      vertex  8.793699e+000  1.529370e+001  1.115330e+000
      vertex -8.636788e+000  1.513679e+001  8.506849e-001
    endloop
  endfacet
  facet normal  0.000000e+000  8.601714e-001 -5.100052e-001
    outer loop
      vertex -8.636788e+000  1.513679e+001  8.506849e-001
      vertex  8.793699e+000  1.529370e+001  1.115330e+000
      vertex  8.636788e+000  1.513679e+001  8.506849e-001
    endloop
  endfacet
  facet normal  0.000000e+000  7.741033e-001 -6.330592e-001
    outer loop
      vertex -8.636788e+000  1.513679e+001  8.506849e-001
      vertex  8.636788e+000  1.513679e+001  8.506849e-001
      vertex -8.451305e+000  1.495131e+001  6.238779e-001
    endloop
  endfacet
  facet normal  0.000000e+000  7.741034e-001 -6.330592e-001
    outer loop
      vertex -8.451305e+000  1.495131e+001  6.238779e-001
      vertex  8.636788e+000  1.513679e+001  8.506849e-001
      vertex  8.451305e+000  1.495131e+001  6.238779e-001
    endloop
  endfacet
  facet normal  0.000000e+000  6.758076e-001 -7.370781e-001
    outer loop
      vertex -8.451305e+000  1.495131e+001  6.238779e-001
      vertex  8.451305e+000  1.495131e+001  6.238779e-001
      vertex -8.245315e+000  1.474532e+001  4.350104e-001
    endloop
  endfacet
  facet normal  0.000000e+000  6.758077e-001 -7.370781e-001
    outer loop
      vertex -8.245315e+000  1.474532e+001  4.350104e-001
      vertex  8.451305e+000  1.495131e+001  6.238779e-001
      vertex  8.245315e+000  1.474532e+001  4.350104e-001
    endloop
  endfacet
  facet normal  0.000000e+000  5.687649e-001 -8.225002e-001
    outer loop
      vertex -8.245315e+000  1.474532e+001  4.350104e-001
      vertex  8.245315e+000  1.474532e+001  4.350104e-001
      vertex -8.024635e+000  1.452463e+001  2.824077e-001
    endloop
  endfacet
  facet normal  0.000000e+000  5.687649e-001 -8.225002e-001
    outer loop
      vertex -8.024635e+000  1.452463e+001  2.824077e-001
      vertex  8.245315e+000  1.474532e+001  4.350104e-001
      vertex  8.024635e+000  1.452463e+001  2.824077e-001
    endloop
  endfacet
  facet normal  0.000000e+000  4.697661e-001 -8.827910e-001
    outer loop
      vertex -8.024635e+000  1.452463e+001  2.824077e-001
      vertex  8.024635e+000  1.452463e+001  2.824077e-001
      vertex -7.852193e+000  1.435219e+001  1.906446e-001
    endloop
  endfacet
  facet normal  0.000000e+000  4.697660e-001 -8.827909e-001
    outer loop
      vertex -7.852193e+000  1.435219e+001  1.906446e-001
      vertex  8.024635e+000  1.452463e+001  2.824077e-001
      vertex  7.852193e+000  1.435219e+001  1.906446e-001
    endloop
  endfacet
  facet normal  0.000000e+000  3.823479e-001 -9.240184e-001
    outer loop
      vertex -7.852193e+000  1.435219e+001  1.906446e-001
      vertex  7.852193e+000  1.435219e+001  1.906446e-001
      vertex -7.675449e+000  1.417545e+001  1.175099e-001
    endloop
  endfacet
  facet normal  0.000000e+000  3.823479e-001 -9.240184e-001
    outer loop
      vertex -7.675449e+000  1.417545e+001  1.175099e-001
      vertex  7.852193e+000  1.435219e+001  1.906446e-001
      vertex  7.675449e+000  1.417545e+001  1.175099e-001
    endloop
  endfacet
  facet normal  0.000000e+000  2.483267e-001 -9.686764e-001
    outer loop
      vertex -7.675449e+000  1.417545e+001  1.175099e-001
      vertex  7.675449e+000  1.417545e+001  1.175099e-001
      vertex -7.313513e+000  1.381351e+001  2.472547e-002
    endloop
  endfacet
  facet normal  0.000000e+000  2.483267e-001 -9.686763e-001
    outer loop
      vertex -7.313513e+000  1.381351e+001  2.472547e-002
      vertex  7.675449e+000  1.417545e+001  1.175099e-001
      vertex  7.313513e+000  1.381351e+001  2.472547e-002
    endloop
  endfacet
  facet normal  0.000000e+000  7.862177e-002 -9.969045e-001
    outer loop
      vertex -7.313513e+000  1.381351e+001  2.472547e-002
      vertex  7.313513e+000  1.381351e+001  2.472547e-002
      vertex -7.000000e+000  1.350000e+001  0.000000e+000
    endloop
  endfacet
  facet normal  0.000000e+000  7.862177e-002 -9.969045e-001
    outer loop
      vertex -7.000000e+000  1.350000e+001  0.000000e+000
      vertex  7.313513e+000  1.381351e+001  2.472547e-002
      vertex  7.000000e+000  1.350000e+001  0.000000e+000
    endloop
  endfacet
  facet normal  -0.000000e+000  0.000000e+000  1.000000e+000
    outer loop
      vertex  9.000000e+000  1.550000e+001  7.000000e+000
      vertex  6.000000e+000  1.550000e+001  7.000000e+000
      vertex  9.000000e+000 -1.550000e+001  7.000000e+000
    endloop
  endfacet
  facet normal  0.000000e+000  0.000000e+000  1.000000e+000
    outer loop
      vertex  9.000000e+000 -1.550000e+001  7.000000e+000
      vertex  6.000000e+000  1.550000e+001  7.000000e+000
      vertex  6.000000e+000 -1.550000e+001  7.000000e+000
    endloop
  endfacet
  facet normal  -0.000000e+000  0.000000e+000  1.000000e+000
    outer loop
      vertex -6.000000e+000  1.550000e+001  7.000000e+000
      vertex -9.000000e+000  1.550000e+001  7.000000e+000
      vertex -6.000000e+000 -1.550000e+001  7.000000e+000
    endloop
  endfacet
  facet normal  0.000000e+000  0.000000e+000  1.000000e+000
    outer loop
      vertex -6.000000e+000 -1.550000e+001  7.000000e+000
      vertex -9.000000e+000  1.550000e+001  7.000000e+000
      vertex -9.000000e+000 -1.550000e+001  7.000000e+000
    endloop
  endfacet
endsolid CATIA STL
