solid CATIA STL
  facet normal -9.779285e-001  0.000000e+000 -2.089401e-001
    outer loop
      vertex -9.421749e+000 -1.600000e+001  1.200000e+001
      vertex -9.421749e+000 -2.100000e+001  1.200000e+001
      vertex -9.480341e+000 -2.100000e+001  1.227423e+001
    endloop
  endfacet
  facet normal -9.775078e-001 -1.123981e-004 -2.108995e-001
    outer loop
      vertex -9.421749e+000 -1.600000e+001  1.200000e+001
      vertex -9.480341e+000 -2.100000e+001  1.227423e+001
      vertex -9.467637e+000  1.600000e+001  1.219563e+001
    endloop
  endfacet
  facet normal -9.637149e-001  2.499469e-004 -2.669333e-001
    outer loop
      vertex -9.421749e+000 -1.600000e+001  1.200000e+001
      vertex -9.467637e+000  1.600000e+001  1.219563e+001
      vertex -9.371596e+000  1.600000e+001  1.184890e+001
    endloop
  endfacet
  facet normal -9.408742e-001 -1.249997e-004 -3.387564e-001
    outer loop
      vertex -9.421749e+000 -1.600000e+001  1.200000e+001
      vertex -9.371596e+000  1.600000e+001  1.184890e+001
      vertex -9.333814e+000 -1.600000e+001  1.175576e+001
    endloop
  endfacet
  facet normal -8.890734e-001  2.825165e-004 -4.577645e-001
    outer loop
      vertex -9.333814e+000 -1.600000e+001  1.175576e+001
      vertex -9.371596e+000  1.600000e+001  1.184890e+001
      vertex -9.214986e+000 -1.600000e+001  1.152498e+001
    endloop
  endfacet
  facet normal -9.002951e-001  0.000000e+000 -4.352802e-001
    outer loop
      vertex -9.214986e+000 -1.600000e+001  1.152498e+001
      vertex -9.371596e+000  1.600000e+001  1.184890e+001
      vertex -9.214986e+000  1.600000e+001  1.152498e+001
    endloop
  endfacet
  facet normal -9.975396e-001  1.935762e-004 -7.010505e-002
    outer loop
      vertex -9.480341e+000 -2.100000e+001  1.227423e+001
      vertex -9.500000e+000 -2.100000e+001  1.255397e+001
      vertex -9.467637e+000  1.600000e+001  1.219563e+001
    endloop
  endfacet
  facet normal -9.959464e-001  0.000000e+000 -8.994901e-002
    outer loop
      vertex -9.467637e+000  1.600000e+001  1.219563e+001
      vertex -9.500000e+000 -2.100000e+001  1.255397e+001
      vertex -9.500000e+000  1.600000e+001  1.255397e+001
    endloop
  endfacet
  facet normal  0.000000e+000 -1.000000e+000  0.000000e+000
    outer loop
      vertex  7.500000e+000 -2.300000e+001  1.500000e+001
      vertex -7.500000e+000 -2.300000e+001  1.500000e+001
      vertex  7.500000e+000 -2.300000e+001  1.400000e+001
    endloop
  endfacet
  facet normal  0.000000e+000 -1.000000e+000  0.000000e+000
    outer loop
      vertex  7.500000e+000 -2.300000e+001  1.400000e+001
      vertex -7.500000e+000 -2.300000e+001  1.500000e+001
      vertex -7.500000e+000 -2.300000e+001  1.400000e+001
    endloop
  endfacet
  facet normal  0.000000e+000  0.000000e+000 -1.000000e+000
    outer loop
      vertex -9.421749e+000 -2.100000e+001  1.200000e+001
      vertex -9.421749e+000 -1.600000e+001  1.200000e+001
      vertex  9.421749e+000 -2.100000e+001  1.200000e+001
    endloop
  endfacet
  facet normal  0.000000e+000  0.000000e+000 -1.000000e+000
    outer loop
      vertex  9.421749e+000 -2.100000e+001  1.200000e+001
      vertex -9.421749e+000 -1.600000e+001  1.200000e+001
      vertex  9.421749e+000 -1.600000e+001  1.200000e+001
    endloop
  endfacet
  facet normal -1.000000e+000  0.000000e+000  0.000000e+000
    outer loop
      vertex -9.500000e+000  1.600000e+001  1.700000e+001
      vertex -9.500000e+000  1.600000e+001  1.255397e+001
      vertex -9.500000e+000 -2.100000e+001  1.700000e+001
    endloop
  endfacet
  facet normal -1.000000e+000  0.000000e+000  0.000000e+000
    outer loop
      vertex -9.500000e+000 -2.100000e+001  1.700000e+001
      vertex -9.500000e+000  1.600000e+001  1.255397e+001
      vertex -9.500000e+000 -2.100000e+001  1.255397e+001
    endloop
  endfacet
  facet normal  9.408742e-001 -1.249997e-004 -3.387564e-001
    outer loop
      vertex  9.421749e+000 -1.600000e+001  1.200000e+001
      vertex  9.333814e+000 -1.600000e+001  1.175576e+001
      vertex  9.371596e+000  1.600000e+001  1.184890e+001
    endloop
  endfacet
  facet normal  9.637149e-001  2.499469e-004 -2.669333e-001
    outer loop
      vertex  9.421749e+000 -1.600000e+001  1.200000e+001
      vertex  9.371596e+000  1.600000e+001  1.184890e+001
      vertex  9.467637e+000  1.600000e+001  1.219563e+001
    endloop
  endfacet
  facet normal  9.775078e-001 -1.123981e-004 -2.108995e-001
    outer loop
      vertex  9.421749e+000 -1.600000e+001  1.200000e+001
      vertex  9.467637e+000  1.600000e+001  1.219563e+001
      vertex  9.480341e+000 -2.100000e+001  1.227423e+001
    endloop
  endfacet
  facet normal  9.779285e-001  0.000000e+000 -2.089401e-001
    outer loop
      vertex  9.421749e+000 -1.600000e+001  1.200000e+001
      vertex  9.480341e+000 -2.100000e+001  1.227423e+001
      vertex  9.421749e+000 -2.100000e+001  1.200000e+001
    endloop
  endfacet
  facet normal  9.975396e-001  1.935762e-004 -7.010505e-002
    outer loop
      vertex  9.480341e+000 -2.100000e+001  1.227423e+001
      vertex  9.467637e+000  1.600000e+001  1.219563e+001
      vertex  9.500000e+000 -2.100000e+001  1.255397e+001
    endloop
  endfacet
  facet normal  9.959464e-001  0.000000e+000 -8.994901e-002
    outer loop
      vertex  9.500000e+000 -2.100000e+001  1.255397e+001
      vertex  9.467637e+000  1.600000e+001  1.219563e+001
      vertex  9.500000e+000  1.600000e+001  1.255397e+001
    endloop
  endfacet
  facet normal  8.890734e-001  2.825165e-004 -4.577645e-001
    outer loop
      vertex  9.333814e+000 -1.600000e+001  1.175576e+001
      vertex  9.214986e+000 -1.600000e+001  1.152498e+001
      vertex  9.371596e+000  1.600000e+001  1.184890e+001
    endloop
  endfacet
  facet normal  9.002951e-001  0.000000e+000 -4.352802e-001
    outer loop
      vertex  9.371596e+000  1.600000e+001  1.184890e+001
      vertex  9.214986e+000 -1.600000e+001  1.152498e+001
      vertex  9.214986e+000  1.600000e+001  1.152498e+001
    endloop
  endfacet
  facet normal  1.000000e+000  0.000000e+000  0.000000e+000
    outer loop
      vertex  9.500000e+000 -2.100000e+001  1.700000e+001
      vertex  9.500000e+000 -2.100000e+001  1.255397e+001
      vertex  9.500000e+000  1.600000e+001  1.700000e+001
    endloop
  endfacet
  facet normal  1.000000e+000  0.000000e+000  0.000000e+000
    outer loop
      vertex  9.500000e+000  1.600000e+001  1.700000e+001
      vertex  9.500000e+000 -2.100000e+001  1.255397e+001
      vertex  9.500000e+000  1.600000e+001  1.255397e+001
    endloop
  endfacet
  facet normal  0.000000e+000  0.000000e+000  1.000000e+000
    outer loop
      vertex -9.500000e+000 -2.100000e+001  1.700000e+001
      vertex  9.500000e+000 -2.100000e+001  1.700000e+001
      vertex -9.500000e+000  1.600000e+001  1.700000e+001
    endloop
  endfacet
  facet normal  -0.000000e+000  0.000000e+000  1.000000e+000
    outer loop
      vertex -9.500000e+000  1.600000e+001  1.700000e+001
      vertex  9.500000e+000 -2.100000e+001  1.700000e+001
      vertex  9.500000e+000  1.600000e+001  1.700000e+001
    endloop
  endfacet
  facet normal  8.885034e-001 -4.573190e-001  3.769626e-002
    outer loop
      vertex  9.134793e+000 -2.213446e+001  1.235288e+001
      vertex  9.214128e+000 -2.198790e+001  1.226102e+001
      vertex  9.338101e+000 -2.174429e+001  1.229433e+001
    endloop
  endfacet
  facet normal  8.913392e-001 -4.372348e-001 -1.197507e-001
    outer loop
      vertex  9.338101e+000 -2.174429e+001  1.229433e+001
      vertex  9.214128e+000 -2.198790e+001  1.226102e+001
      vertex  9.281673e+000 -2.182784e+001  1.217937e+001
    endloop
  endfacet
  facet normal  9.169748e-001 -3.459533e-001 -1.986793e-001
    outer loop
      vertex  9.338101e+000 -2.174429e+001  1.229433e+001
      vertex  9.281673e+000 -2.182784e+001  1.217937e+001
      vertex  9.358934e+000 -2.156720e+001  1.208211e+001
    endloop
  endfacet
  facet normal  9.487776e-001 -2.820993e-001 -1.422708e-001
    outer loop
      vertex  9.338101e+000 -2.174429e+001  1.229433e+001
      vertex  9.358934e+000 -2.156720e+001  1.208211e+001
      vertex  9.444456e+000 -2.137901e+001  1.227930e+001
    endloop
  endfacet
  facet normal  9.930325e-001 -9.495337e-002 -6.978828e-002
    outer loop
      vertex  9.480341e+000 -2.100000e+001  1.227423e+001
      vertex  9.500000e+000 -2.100000e+001  1.255397e+001
      vertex  9.444456e+000 -2.137901e+001  1.227930e+001
    endloop
  endfacet
  facet normal  9.930325e-001 -9.495456e-002 -6.978666e-002
    outer loop
      vertex  9.444456e+000 -2.137901e+001  1.227930e+001
      vertex  9.500000e+000 -2.100000e+001  1.255397e+001
      vertex  9.463758e+000 -2.137901e+001  1.255397e+001
    endloop
  endfacet
  facet normal  9.572093e-001 -2.814698e-001 -6.726914e-002
    outer loop
      vertex  9.444456e+000 -2.137901e+001  1.227930e+001
      vertex  9.463758e+000 -2.137901e+001  1.255397e+001
      vertex  9.338101e+000 -2.174429e+001  1.229433e+001
    endloop
  endfacet
  facet normal  9.572098e-001 -2.814675e-001 -6.727266e-002
    outer loop
      vertex  9.338101e+000 -2.174429e+001  1.229433e+001
      vertex  9.463758e+000 -2.137901e+001  1.255397e+001
      vertex  9.356349e+000 -2.174429e+001  1.255397e+001
    endloop
  endfacet
  facet normal  8.812844e-001 -4.685099e-001 -6.193663e-002
    outer loop
      vertex  9.338101e+000 -2.174429e+001  1.229433e+001
      vertex  9.356349e+000 -2.174429e+001  1.255397e+001
      vertex  9.134793e+000 -2.213446e+001  1.235288e+001
    endloop
  endfacet
  facet normal  8.850586e-001 -4.570051e-001 -8.841804e-002
    outer loop
      vertex  9.134793e+000 -2.213446e+001  1.235288e+001
      vertex  9.356349e+000 -2.174429e+001  1.255397e+001
      vertex  9.181664e+000 -2.208259e+001  1.255397e+001
    endloop
  endfacet
  facet normal  7.852740e-001 -6.187041e-001 -2.345233e-002
    outer loop
      vertex  9.134793e+000 -2.213446e+001  1.235288e+001
      vertex  9.181664e+000 -2.208259e+001  1.255397e+001
      vertex  8.946033e+000 -2.238166e+001  1.255397e+001
    endloop
  endfacet
  facet normal  9.756309e-001 -6.850844e-002 -2.084492e-001
    outer loop
      vertex  9.421749e+000 -2.100000e+001  1.200000e+001
      vertex  9.480341e+000 -2.100000e+001  1.227423e+001
      vertex  9.405969e+000 -2.128827e+001  1.202088e+001
    endloop
  endfacet
  facet normal  9.791991e-001 -9.510729e-002 -1.792311e-001
    outer loop
      vertex  9.405969e+000 -2.128827e+001  1.202088e+001
      vertex  9.480341e+000 -2.100000e+001  1.227423e+001
      vertex  9.444456e+000 -2.137901e+001  1.227930e+001
    endloop
  endfacet
  facet normal  9.541366e-001 -2.081320e-001 -2.151847e-001
    outer loop
      vertex  9.405969e+000 -2.128827e+001  1.202088e+001
      vertex  9.444456e+000 -2.137901e+001  1.227930e+001
      vertex  9.358934e+000 -2.156720e+001  1.208211e+001
    endloop
  endfacet
  facet normal  8.885366e-001 -4.588010e-001 -2.061522e-003
    outer loop
      vertex  9.181664e+000 -2.208259e+001  1.255397e+001
      vertex  9.356349e+000 -2.174429e+001  1.255397e+001
      vertex  9.293699e+000 -2.188467e+001  1.679370e+001
    endloop
  endfacet
  facet normal  8.598821e-001 -5.104915e-001  1.108755e-003
    outer loop
      vertex  9.293699e+000 -2.188467e+001  1.679370e+001
      vertex  9.136788e+000 -2.214931e+001  1.663679e+001
      vertex  9.181664e+000 -2.208259e+001  1.255397e+001
    endloop
  endfacet
  facet normal  9.954594e-001 -9.518662e-002  0.000000e+000
    outer loop
      vertex  9.500000e+000 -2.100000e+001  1.255397e+001
      vertex  9.500000e+000 -2.100000e+001  1.700000e+001
      vertex  9.463758e+000 -2.137901e+001  1.255397e+001
    endloop
  endfacet
  facet normal  9.979952e-001 -6.322876e-002 -2.744998e-003
    outer loop
      vertex  9.463758e+000 -2.137901e+001  1.255397e+001
      vertex  9.500000e+000 -2.100000e+001  1.700000e+001
      vertex  9.483920e+000 -2.125311e+001  1.698392e+001
    endloop
  endfacet
  facet normal  9.856621e-001 -1.687310e-001  3.097139e-004
    outer loop
      vertex  9.463758e+000 -2.137901e+001  1.255397e+001
      vertex  9.483920e+000 -2.125311e+001  1.698392e+001
      vertex  9.455191e+000 -2.142098e+001  1.695519e+001
    endloop
  endfacet
  facet normal  9.593828e-001 -2.821064e-001 -8.226208e-004
    outer loop
      vertex  9.463758e+000 -2.137901e+001  1.255397e+001
      vertex  9.455191e+000 -2.142098e+001  1.695519e+001
      vertex  9.356349e+000 -2.174429e+001  1.255397e+001
    endloop
  endfacet
  facet normal  9.681225e-001 -2.504551e-001 -3.343935e-003
    outer loop
      vertex  9.356349e+000 -2.174429e+001  1.255397e+001
      vertex  9.455191e+000 -2.142098e+001  1.695519e+001
      vertex  9.413072e+000 -2.158323e+001  1.691307e+001
    endloop
  endfacet
  facet normal  9.295428e-001 -3.687112e-001  1.527362e-003
    outer loop
      vertex  9.356349e+000 -2.174429e+001  1.255397e+001
      vertex  9.413072e+000 -2.158323e+001  1.691307e+001
      vertex  9.293699e+000 -2.188467e+001  1.679370e+001
    endloop
  endfacet
  facet normal  7.854891e-001 -6.188737e-001 -1.480082e-003
    outer loop
      vertex  9.181664e+000 -2.208259e+001  1.255397e+001
      vertex  9.136788e+000 -2.214931e+001  1.663679e+001
      vertex  8.946033e+000 -2.238166e+001  1.255397e+001
    endloop
  endfacet
  facet normal  7.741604e-001 -6.329895e-001 -1.474711e-004
    outer loop
      vertex  8.946033e+000 -2.238166e+001  1.255397e+001
      vertex  9.136788e+000 -2.214931e+001  1.663679e+001
      vertex  8.951305e+000 -2.237612e+001  1.645131e+001
    endloop
  endfacet
  facet normal  6.608187e-001 -7.505456e-001  1.730028e-004
    outer loop
      vertex  8.946033e+000 -2.238166e+001  1.255397e+001
      vertex  8.951305e+000 -2.237612e+001  1.645131e+001
      vertex  8.686999e+000 -2.260967e+001  1.281300e+001
    endloop
  endfacet
  facet normal  6.768473e-001 -7.361209e-001 -1.917341e-003
    outer loop
      vertex  8.686999e+000 -2.260967e+001  1.281300e+001
      vertex  8.951305e+000 -2.237612e+001  1.645131e+001
      vertex  8.745315e+000 -2.256499e+001  1.624532e+001
    endloop
  endfacet
  facet normal  5.680504e-001 -8.229930e-001  1.061969e-003
    outer loop
      vertex  8.686999e+000 -2.260967e+001  1.281300e+001
      vertex  8.745315e+000 -2.256499e+001  1.624532e+001
      vertex  8.524635e+000 -2.271759e+001  1.602464e+001
    endloop
  endfacet
  facet normal  5.238128e-001 -8.518306e-001 -2.143517e-003
    outer loop
      vertex  8.686999e+000 -2.260967e+001  1.281300e+001
      vertex  8.524635e+000 -2.271759e+001  1.602464e+001
      vertex  8.407367e+000 -2.278233e+001  1.309263e+001
    endloop
  endfacet
  facet normal  4.691938e-001 -8.830949e-001  7.312894e-004
    outer loop
      vertex  8.407367e+000 -2.278233e+001  1.309263e+001
      vertex  8.524635e+000 -2.271759e+001  1.602464e+001
      vertex  8.352193e+000 -2.280935e+001  1.585219e+001
    endloop
  endfacet
  facet normal  3.804178e-001 -9.248136e-001 -1.452296e-003
    outer loop
      vertex  8.407367e+000 -2.278233e+001  1.309263e+001
      vertex  8.352193e+000 -2.280935e+001  1.585219e+001
      vertex  8.114467e+000 -2.290327e+001  1.338553e+001
    endloop
  endfacet
  facet normal  3.839252e-001 -9.233624e-001 -1.845572e-003
    outer loop
      vertex  8.114467e+000 -2.290327e+001  1.338553e+001
      vertex  8.352193e+000 -2.280935e+001  1.585219e+001
      vertex  8.175448e+000 -2.288249e+001  1.567545e+001
    endloop
  endfacet
  facet normal  2.351112e-001 -9.719651e-001  2.558453e-003
    outer loop
      vertex  8.114467e+000 -2.290327e+001  1.338553e+001
      vertex  8.175448e+000 -2.288249e+001  1.567545e+001
      vertex  7.813513e+000 -2.297528e+001  1.368649e+001
    endloop
  endfacet
  facet normal  2.483276e-001 -9.686761e-001  0.000000e+000
    outer loop
      vertex  7.813513e+000 -2.297528e+001  1.368649e+001
      vertex  8.175448e+000 -2.288249e+001  1.567545e+001
      vertex  7.813513e+000 -2.297528e+001  1.531351e+001
    endloop
  endfacet
  facet normal  7.862005e-002 -9.969047e-001  0.000000e+000
    outer loop
      vertex  7.813513e+000 -2.297528e+001  1.368649e+001
      vertex  7.813513e+000 -2.297528e+001  1.531351e+001
      vertex  7.500000e+000 -2.300000e+001  1.400000e+001
    endloop
  endfacet
  facet normal  7.862005e-002 -9.969047e-001  0.000000e+000
    outer loop
      vertex  7.500000e+000 -2.300000e+001  1.400000e+001
      vertex  7.813513e+000 -2.297528e+001  1.531351e+001
      vertex  7.500000e+000 -2.300000e+001  1.500000e+001
    endloop
  endfacet
  facet normal  -0.000000e+000 -7.225718e-002 -9.973860e-001
    outer loop
      vertex -9.421749e+000 -2.100000e+001  1.200000e+001
      vertex  9.421749e+000 -2.100000e+001  1.200000e+001
      vertex -9.405969e+000 -2.128827e+001  1.202088e+001
    endloop
  endfacet
  facet normal  0.000000e+000 -7.225718e-002 -9.973860e-001
    outer loop
      vertex -9.405969e+000 -2.128827e+001  1.202088e+001
      vertex  9.421749e+000 -2.100000e+001  1.200000e+001
      vertex  9.405969e+000 -2.128827e+001  1.202088e+001
    endloop
  endfacet
  facet normal  -0.000000e+000 -2.144163e-001 -9.767424e-001
    outer loop
      vertex -9.405969e+000 -2.128827e+001  1.202088e+001
      vertex  9.405969e+000 -2.128827e+001  1.202088e+001
      vertex -9.358934e+000 -2.156720e+001  1.208211e+001
    endloop
  endfacet
  facet normal  0.000000e+000 -2.144163e-001 -9.767424e-001
    outer loop
      vertex -9.358934e+000 -2.156720e+001  1.208211e+001
      vertex  9.405969e+000 -2.128827e+001  1.202088e+001
      vertex  9.358934e+000 -2.156720e+001  1.208211e+001
    endloop
  endfacet
  facet normal  -0.000000e+000 -3.496045e-001 -9.368973e-001
    outer loop
      vertex -9.358934e+000 -2.156720e+001  1.208211e+001
      vertex  9.358934e+000 -2.156720e+001  1.208211e+001
      vertex -9.281673e+000 -2.182784e+001  1.217937e+001
    endloop
  endfacet
  facet normal  0.000000e+000 -3.496045e-001 -9.368973e-001
    outer loop
      vertex -9.281673e+000 -2.182784e+001  1.217937e+001
      vertex  9.358934e+000 -2.156720e+001  1.208211e+001
      vertex  9.281673e+000 -2.182784e+001  1.217937e+001
    endloop
  endfacet
  facet normal  -0.000000e+000 -4.543920e-001 -8.908018e-001
    outer loop
      vertex -9.281673e+000 -2.182784e+001  1.217937e+001
      vertex  9.281673e+000 -2.182784e+001  1.217937e+001
      vertex -9.214128e+000 -2.198790e+001  1.226102e+001
    endloop
  endfacet
  facet normal  0.000000e+000 -4.543921e-001 -8.908018e-001
    outer loop
      vertex -9.214128e+000 -2.198790e+001  1.226102e+001
      vertex  9.281673e+000 -2.182784e+001  1.217937e+001
      vertex  9.214128e+000 -2.198790e+001  1.226102e+001
    endloop
  endfacet
  facet normal  -0.000000e+000 -5.310878e-001 -8.473168e-001
    outer loop
      vertex -9.214128e+000 -2.198790e+001  1.226102e+001
      vertex  9.214128e+000 -2.198790e+001  1.226102e+001
      vertex -9.134793e+000 -2.213446e+001  1.235288e+001
    endloop
  endfacet
  facet normal  0.000000e+000 -5.310878e-001 -8.473168e-001
    outer loop
      vertex -9.134793e+000 -2.213446e+001  1.235288e+001
      vertex  9.214128e+000 -2.198790e+001  1.226102e+001
      vertex  9.134793e+000 -2.213446e+001  1.235288e+001
    endloop
  endfacet
  facet normal  -0.000000e+000 -6.310357e-001 -7.757537e-001
    outer loop
      vertex -9.134793e+000 -2.213446e+001  1.235288e+001
      vertex  9.134793e+000 -2.213446e+001  1.235288e+001
      vertex -8.946033e+000 -2.238166e+001  1.255397e+001
    endloop
  endfacet
  facet normal  0.000000e+000 -6.310357e-001 -7.757537e-001
    outer loop
      vertex -8.946033e+000 -2.238166e+001  1.255397e+001
      vertex  9.134793e+000 -2.213446e+001  1.235288e+001
      vertex  8.946033e+000 -2.238166e+001  1.255397e+001
    endloop
  endfacet
  facet normal  -0.000000e+000 -7.506314e-001 -6.607212e-001
    outer loop
      vertex -8.946033e+000 -2.238166e+001  1.255397e+001
      vertex  8.946033e+000 -2.238166e+001  1.255397e+001
      vertex -8.687001e+000 -2.260967e+001  1.281300e+001
    endloop
  endfacet
  facet normal -7.253546e-008 -7.506290e-001 -6.607240e-001
    outer loop
      vertex -8.687001e+000 -2.260967e+001  1.281300e+001
      vertex  8.946033e+000 -2.238166e+001  1.255397e+001
      vertex  8.686999e+000 -2.260967e+001  1.281300e+001
    endloop
  endfacet
  facet normal -5.767570e-008 -8.508759e-001 -5.253668e-001
    outer loop
      vertex -8.687001e+000 -2.260967e+001  1.281300e+001
      vertex  8.686999e+000 -2.260967e+001  1.281300e+001
      vertex -8.407367e+000 -2.278233e+001  1.309263e+001
    endloop
  endfacet
  facet normal  0.000000e+000 -8.508774e-001 -5.253642e-001
    outer loop
      vertex -8.407367e+000 -2.278233e+001  1.309263e+001
      vertex  8.686999e+000 -2.260967e+001  1.281300e+001
      vertex  8.407367e+000 -2.278233e+001  1.309263e+001
    endloop
  endfacet
  facet normal  -0.000000e+000 -9.243031e-001 -3.816593e-001
    outer loop
      vertex -8.407367e+000 -2.278233e+001  1.309263e+001
      vertex  8.407367e+000 -2.278233e+001  1.309263e+001
      vertex -8.114466e+000 -2.290327e+001  1.338553e+001
    endloop
  endfacet
  facet normal  2.242770e-008 -9.243035e-001 -3.816583e-001
    outer loop
      vertex -8.114466e+000 -2.290327e+001  1.338553e+001
      vertex  8.407367e+000 -2.278233e+001  1.309263e+001
      vertex  8.114467e+000 -2.290327e+001  1.338553e+001
    endloop
  endfacet
  facet normal  1.367390e-008 -9.725504e-001 -2.326924e-001
    outer loop
      vertex -8.114466e+000 -2.290327e+001  1.338553e+001
      vertex  8.114467e+000 -2.290327e+001  1.338553e+001
      vertex -7.813513e+000 -2.297528e+001  1.368649e+001
    endloop
  endfacet
  facet normal  0.000000e+000 -9.725502e-001 -2.326931e-001
    outer loop
      vertex -7.813513e+000 -2.297528e+001  1.368649e+001
      vertex  8.114467e+000 -2.290327e+001  1.338553e+001
      vertex  7.813513e+000 -2.297528e+001  1.368649e+001
    endloop
  endfacet
  facet normal  -0.000000e+000 -9.969047e-001 -7.862017e-002
    outer loop
      vertex -7.813513e+000 -2.297528e+001  1.368649e+001
      vertex  7.813513e+000 -2.297528e+001  1.368649e+001
      vertex -7.500000e+000 -2.300000e+001  1.400000e+001
    endloop
  endfacet
  facet normal  0.000000e+000 -9.969046e-001 -7.862016e-002
    outer loop
      vertex -7.500000e+000 -2.300000e+001  1.400000e+001
      vertex  7.813513e+000 -2.297528e+001  1.368649e+001
      vertex  7.500000e+000 -2.300000e+001  1.400000e+001
    endloop
  endfacet
  facet normal -8.885366e-001 -4.588010e-001 -2.061522e-003
    outer loop
      vertex -9.181664e+000 -2.208259e+001  1.255397e+001
      vertex -9.293699e+000 -2.188467e+001  1.679370e+001
      vertex -9.356349e+000 -2.174429e+001  1.255397e+001
    endloop
  endfacet
  facet normal -7.862005e-002 -9.969047e-001  -0.000000e+000
    outer loop
      vertex -7.500000e+000 -2.300000e+001  1.400000e+001
      vertex -7.500000e+000 -2.300000e+001  1.500000e+001
      vertex -7.813513e+000 -2.297528e+001  1.368649e+001
    endloop
  endfacet
  facet normal -7.862005e-002 -9.969047e-001  0.000000e+000
    outer loop
      vertex -7.813513e+000 -2.297528e+001  1.368649e+001
      vertex -7.500000e+000 -2.300000e+001  1.500000e+001
      vertex -7.813513e+000 -2.297528e+001  1.531351e+001
    endloop
  endfacet
  facet normal -2.326935e-001 -9.725502e-001  -0.000000e+000
    outer loop
      vertex -7.813513e+000 -2.297528e+001  1.368649e+001
      vertex -7.813513e+000 -2.297528e+001  1.531351e+001
      vertex -8.114466e+000 -2.290327e+001  1.338553e+001
    endloop
  endfacet
  facet normal -2.462271e-001 -9.692096e-001  2.237324e-003
    outer loop
      vertex -8.114466e+000 -2.290327e+001  1.338553e+001
      vertex -7.813513e+000 -2.297528e+001  1.531351e+001
      vertex -8.175448e+000 -2.288249e+001  1.567545e+001
    endloop
  endfacet
  facet normal -3.801776e-001 -9.249119e-001 -1.731870e-003
    outer loop
      vertex -8.114466e+000 -2.290327e+001  1.338553e+001
      vertex -8.175448e+000 -2.288249e+001  1.567545e+001
      vertex -8.407367e+000 -2.278233e+001  1.309263e+001
    endloop
  endfacet
  facet normal -3.835261e-001 -9.235290e-001 -1.377567e-003
    outer loop
      vertex -8.407367e+000 -2.278233e+001  1.309263e+001
      vertex -8.175448e+000 -2.288249e+001  1.567545e+001
      vertex -8.352193e+000 -2.280935e+001  1.585219e+001
    endloop
  endfacet
  facet normal -5.269632e-001 -8.498853e-001  2.211593e-003
    outer loop
      vertex -8.407367e+000 -2.278233e+001  1.309263e+001
      vertex -8.352193e+000 -2.280935e+001  1.585219e+001
      vertex -8.687001e+000 -2.260967e+001  1.281300e+001
    endloop
  endfacet
  facet normal -4.741278e-001 -8.804381e-001 -5.616386e-003
    outer loop
      vertex -8.687001e+000 -2.260967e+001  1.281300e+001
      vertex -8.352193e+000 -2.280935e+001  1.585219e+001
      vertex -8.524635e+000 -2.271759e+001  1.602464e+001
    endloop
  endfacet
  facet normal -5.680503e-001 -8.229932e-001  1.062291e-003
    outer loop
      vertex -8.687001e+000 -2.260967e+001  1.281300e+001
      vertex -8.524635e+000 -2.271759e+001  1.602464e+001
      vertex -8.745315e+000 -2.256499e+001  1.624532e+001
    endloop
  endfacet
  facet normal -6.599165e-001 -7.513376e-001 -1.431238e-003
    outer loop
      vertex -8.687001e+000 -2.260967e+001  1.281300e+001
      vertex -8.745315e+000 -2.256499e+001  1.624532e+001
      vertex -8.946033e+000 -2.238166e+001  1.255397e+001
    endloop
  endfacet
  facet normal -6.757349e-001 -7.371446e-001  1.337700e-004
    outer loop
      vertex -8.946033e+000 -2.238166e+001  1.255397e+001
      vertex -8.745315e+000 -2.256499e+001  1.624532e+001
      vertex -8.951305e+000 -2.237612e+001  1.645131e+001
    endloop
  endfacet
  facet normal -7.854900e-001 -6.188743e-001 -1.828669e-004
    outer loop
      vertex -8.946033e+000 -2.238166e+001  1.255397e+001
      vertex -8.951305e+000 -2.237612e+001  1.645131e+001
      vertex -9.181664e+000 -2.208259e+001  1.255397e+001
    endloop
  endfacet
  facet normal -7.748267e-001 -6.321711e-001 -1.814580e-003
    outer loop
      vertex -9.181664e+000 -2.208259e+001  1.255397e+001
      vertex -8.951305e+000 -2.237612e+001  1.645131e+001
      vertex -9.136788e+000 -2.214931e+001  1.663679e+001
    endloop
  endfacet
  facet normal -8.598821e-001 -5.104915e-001  1.108755e-003
    outer loop
      vertex -9.181664e+000 -2.208259e+001  1.255397e+001
      vertex -9.136788e+000 -2.214931e+001  1.663679e+001
      vertex -9.293699e+000 -2.188467e+001  1.679370e+001
    endloop
  endfacet
  facet normal -9.679491e-001 -2.511457e-001 -5.106953e-004
    outer loop
      vertex -9.455191e+000 -2.142098e+001  1.695519e+001
      vertex -9.463758e+000 -2.137901e+001  1.255397e+001
      vertex -9.413072e+000 -2.158323e+001  1.691307e+001
    endloop
  endfacet
  facet normal -9.593810e-001 -2.821059e-001 -2.060767e-003
    outer loop
      vertex -9.413072e+000 -2.158323e+001  1.691307e+001
      vertex -9.463758e+000 -2.137901e+001  1.255397e+001
      vertex -9.356349e+000 -2.174429e+001  1.255397e+001
    endloop
  endfacet
  facet normal -9.295428e-001 -3.687112e-001  1.527362e-003
    outer loop
      vertex -9.413072e+000 -2.158323e+001  1.691307e+001
      vertex -9.356349e+000 -2.174429e+001  1.255397e+001
      vertex -9.293699e+000 -2.188467e+001  1.679370e+001
    endloop
  endfacet
  facet normal -9.979880e-001 -6.340270e-002  0.000000e+000
    outer loop
      vertex -9.500000e+000 -2.100000e+001  1.700000e+001
      vertex -9.500000e+000 -2.100000e+001  1.255397e+001
      vertex -9.483920e+000 -2.125311e+001  1.698392e+001
    endloop
  endfacet
  facet normal -9.954578e-001 -9.518646e-002 -1.825149e-003
    outer loop
      vertex -9.483920e+000 -2.125311e+001  1.698392e+001
      vertex -9.500000e+000 -2.100000e+001  1.255397e+001
      vertex -9.463758e+000 -2.137901e+001  1.255397e+001
    endloop
  endfacet
  facet normal -9.856621e-001 -1.687310e-001  3.097139e-004
    outer loop
      vertex -9.483920e+000 -2.125311e+001  1.698392e+001
      vertex -9.463758e+000 -2.137901e+001  1.255397e+001
      vertex -9.455191e+000 -2.142098e+001  1.695519e+001
    endloop
  endfacet
  facet normal -8.850586e-001 -4.570051e-001 -8.841804e-002
    outer loop
      vertex -9.356349e+000 -2.174429e+001  1.255397e+001
      vertex -9.134793e+000 -2.213446e+001  1.235288e+001
      vertex -9.181664e+000 -2.208259e+001  1.255397e+001
    endloop
  endfacet
  facet normal -8.913394e-001 -4.372344e-001 -1.197500e-001
    outer loop
      vertex -9.338101e+000 -2.174429e+001  1.229433e+001
      vertex -9.281673e+000 -2.182784e+001  1.217937e+001
      vertex -9.214128e+000 -2.198790e+001  1.226102e+001
    endloop
  endfacet
  facet normal -9.169752e-001 -3.459529e-001 -1.986781e-001
    outer loop
      vertex -9.358934e+000 -2.156720e+001  1.208211e+001
      vertex -9.281673e+000 -2.182784e+001  1.217937e+001
      vertex -9.338101e+000 -2.174429e+001  1.229433e+001
    endloop
  endfacet
  facet normal -9.487776e-001 -2.820997e-001 -1.422705e-001
    outer loop
      vertex -9.338101e+000 -2.174429e+001  1.229433e+001
      vertex -9.444456e+000 -2.137901e+001  1.227930e+001
      vertex -9.358934e+000 -2.156720e+001  1.208211e+001
    endloop
  endfacet
  facet normal -7.852740e-001 -6.187041e-001 -2.345233e-002
    outer loop
      vertex -8.946033e+000 -2.238166e+001  1.255397e+001
      vertex -9.181664e+000 -2.208259e+001  1.255397e+001
      vertex -9.134793e+000 -2.213446e+001  1.235288e+001
    endloop
  endfacet
  facet normal -8.885034e-001 -4.573191e-001  3.769607e-002
    outer loop
      vertex -9.214128e+000 -2.198790e+001  1.226102e+001
      vertex -9.134793e+000 -2.213446e+001  1.235288e+001
      vertex -9.338101e+000 -2.174429e+001  1.229433e+001
    endloop
  endfacet
  facet normal -8.812845e-001 -4.685098e-001 -6.193686e-002
    outer loop
      vertex -9.338101e+000 -2.174429e+001  1.229433e+001
      vertex -9.134793e+000 -2.213446e+001  1.235288e+001
      vertex -9.356349e+000 -2.174429e+001  1.255397e+001
    endloop
  endfacet
  facet normal -9.572089e-001 -2.814700e-001 -6.727285e-002
    outer loop
      vertex -9.338101e+000 -2.174429e+001  1.229433e+001
      vertex -9.356349e+000 -2.174429e+001  1.255397e+001
      vertex -9.444456e+000 -2.137901e+001  1.227930e+001
    endloop
  endfacet
  facet normal -9.572099e-001 -2.814675e-001 -6.726918e-002
    outer loop
      vertex -9.444456e+000 -2.137901e+001  1.227930e+001
      vertex -9.356349e+000 -2.174429e+001  1.255397e+001
      vertex -9.463758e+000 -2.137901e+001  1.255397e+001
    endloop
  endfacet
  facet normal -9.930325e-001 -9.495336e-002 -6.978666e-002
    outer loop
      vertex -9.444456e+000 -2.137901e+001  1.227930e+001
      vertex -9.463758e+000 -2.137901e+001  1.255397e+001
      vertex -9.480341e+000 -2.100000e+001  1.227423e+001
    endloop
  endfacet
  facet normal -9.930323e-001 -9.495454e-002 -6.978828e-002
    outer loop
      vertex -9.480341e+000 -2.100000e+001  1.227423e+001
      vertex -9.463758e+000 -2.137901e+001  1.255397e+001
      vertex -9.500000e+000 -2.100000e+001  1.255397e+001
    endloop
  endfacet
  facet normal -9.735100e-001 -9.495333e-002 -2.079960e-001
    outer loop
      vertex -9.480341e+000 -2.100000e+001  1.227423e+001
      vertex -9.421749e+000 -2.100000e+001  1.200000e+001
      vertex -9.444456e+000 -2.137901e+001  1.227930e+001
    endloop
  endfacet
  facet normal -9.832823e-001 -6.611714e-002 -1.696600e-001
    outer loop
      vertex -9.444456e+000 -2.137901e+001  1.227930e+001
      vertex -9.421749e+000 -2.100000e+001  1.200000e+001
      vertex -9.405969e+000 -2.128827e+001  1.202088e+001
    endloop
  endfacet
  facet normal -9.541366e-001 -2.081320e-001 -2.151847e-001
    outer loop
      vertex -9.444456e+000 -2.137901e+001  1.227930e+001
      vertex -9.405969e+000 -2.128827e+001  1.202088e+001
      vertex -9.358934e+000 -2.156720e+001  1.208211e+001
    endloop
  endfacet
  facet normal  0.000000e+000 -6.340645e-002  9.979878e-001
    outer loop
      vertex  9.500000e+000 -2.100000e+001  1.700000e+001
      vertex -9.500000e+000 -2.100000e+001  1.700000e+001
      vertex  9.483920e+000 -2.125311e+001  1.698392e+001
    endloop
  endfacet
  facet normal  0.000000e+000 -6.340645e-002  9.979878e-001
    outer loop
      vertex  9.483920e+000 -2.125311e+001  1.698392e+001
      vertex -9.500000e+000 -2.100000e+001  1.700000e+001
      vertex -9.483920e+000 -2.125311e+001  1.698392e+001
    endloop
  endfacet
  facet normal  0.000000e+000 -1.686741e-001  9.856719e-001
    outer loop
      vertex  9.483920e+000 -2.125311e+001  1.698392e+001
      vertex -9.483920e+000 -2.125311e+001  1.698392e+001
      vertex  9.455191e+000 -2.142098e+001  1.695519e+001
    endloop
  endfacet
  facet normal  0.000000e+000 -1.686741e-001  9.856719e-001
    outer loop
      vertex  9.455191e+000 -2.142098e+001  1.695519e+001
      vertex -9.483920e+000 -2.125311e+001  1.698392e+001
      vertex -9.455191e+000 -2.142098e+001  1.695519e+001
    endloop
  endfacet
  facet normal  0.000000e+000 -2.512860e-001  9.679129e-001
    outer loop
      vertex  9.455191e+000 -2.142098e+001  1.695519e+001
      vertex -9.455191e+000 -2.142098e+001  1.695519e+001
      vertex  9.413072e+000 -2.158323e+001  1.691307e+001
    endloop
  endfacet
  facet normal  0.000000e+000 -2.512860e-001  9.679129e-001
    outer loop
      vertex  9.413072e+000 -2.158323e+001  1.691307e+001
      vertex -9.455191e+000 -2.142098e+001  1.695519e+001
      vertex -9.413072e+000 -2.158323e+001  1.691307e+001
    endloop
  endfacet
  facet normal  0.000000e+000 -3.681813e-001  9.297541e-001
    outer loop
      vertex  9.413072e+000 -2.158323e+001  1.691307e+001
      vertex -9.413072e+000 -2.158323e+001  1.691307e+001
      vertex  9.293699e+000 -2.188467e+001  1.679370e+001
    endloop
  endfacet
  facet normal  0.000000e+000 -3.681812e-001  9.297541e-001
    outer loop
      vertex  9.293699e+000 -2.188467e+001  1.679370e+001
      vertex -9.413072e+000 -2.158323e+001  1.691307e+001
      vertex -9.293699e+000 -2.188467e+001  1.679370e+001
    endloop
  endfacet
  facet normal  0.000000e+000 -5.100078e-001  8.601697e-001
    outer loop
      vertex  9.293699e+000 -2.188467e+001  1.679370e+001
      vertex -9.293699e+000 -2.188467e+001  1.679370e+001
      vertex  9.136788e+000 -2.214931e+001  1.663679e+001
    endloop
  endfacet
  facet normal  0.000000e+000 -5.100079e-001  8.601698e-001
    outer loop
      vertex  9.136788e+000 -2.214931e+001  1.663679e+001
      vertex -9.293699e+000 -2.188467e+001  1.679370e+001
      vertex -9.136788e+000 -2.214931e+001  1.663679e+001
    endloop
  endfacet
  facet normal  0.000000e+000 -6.330560e-001  7.741061e-001
    outer loop
      vertex  9.136788e+000 -2.214931e+001  1.663679e+001
      vertex -9.136788e+000 -2.214931e+001  1.663679e+001
      vertex  8.951305e+000 -2.237612e+001  1.645131e+001
    endloop
  endfacet
  facet normal  0.000000e+000 -6.330559e-001  7.741060e-001
    outer loop
      vertex  8.951305e+000 -2.237612e+001  1.645131e+001
      vertex -9.136788e+000 -2.214931e+001  1.663679e+001
      vertex -8.951305e+000 -2.237612e+001  1.645131e+001
    endloop
  endfacet
  facet normal  0.000000e+000 -7.370796e-001  6.758059e-001
    outer loop
      vertex  8.951305e+000 -2.237612e+001  1.645131e+001
      vertex -8.951305e+000 -2.237612e+001  1.645131e+001
      vertex  8.745315e+000 -2.256499e+001  1.624532e+001
    endloop
  endfacet
  facet normal  0.000000e+000 -7.370796e-001  6.758059e-001
    outer loop
      vertex  8.745315e+000 -2.256499e+001  1.624532e+001
      vertex -8.951305e+000 -2.237612e+001  1.645131e+001
      vertex -8.745315e+000 -2.256499e+001  1.624532e+001
    endloop
  endfacet
  facet normal  0.000000e+000 -8.224981e-001  5.687678e-001
    outer loop
      vertex  8.745315e+000 -2.256499e+001  1.624532e+001
      vertex -8.745315e+000 -2.256499e+001  1.624532e+001
      vertex  8.524635e+000 -2.271759e+001  1.602464e+001
    endloop
  endfacet
  facet normal  0.000000e+000 -8.224981e-001  5.687677e-001
    outer loop
      vertex  8.524635e+000 -2.271759e+001  1.602464e+001
      vertex -8.745315e+000 -2.256499e+001  1.624532e+001
      vertex -8.524635e+000 -2.271759e+001  1.602464e+001
    endloop
  endfacet
  facet normal  0.000000e+000 -8.827932e-001  4.697620e-001
    outer loop
      vertex  8.524635e+000 -2.271759e+001  1.602464e+001
      vertex -8.524635e+000 -2.271759e+001  1.602464e+001
      vertex  8.352193e+000 -2.280935e+001  1.585219e+001
    endloop
  endfacet
  facet normal  0.000000e+000 -8.827931e-001  4.697620e-001
    outer loop
      vertex  8.352193e+000 -2.280935e+001  1.585219e+001
      vertex -8.524635e+000 -2.271759e+001  1.602464e+001
      vertex -8.352193e+000 -2.280935e+001  1.585219e+001
    endloop
  endfacet
  facet normal  0.000000e+000 -9.240173e-001  3.823506e-001
    outer loop
      vertex  8.352193e+000 -2.280935e+001  1.585219e+001
      vertex -8.352193e+000 -2.280935e+001  1.585219e+001
      vertex  8.175448e+000 -2.288249e+001  1.567545e+001
    endloop
  endfacet
  facet normal  0.000000e+000 -9.240173e-001  3.823506e-001
    outer loop
      vertex  8.175448e+000 -2.288249e+001  1.567545e+001
      vertex -8.352193e+000 -2.280935e+001  1.585219e+001
      vertex -8.175448e+000 -2.288249e+001  1.567545e+001
    endloop
  endfacet
  facet normal  0.000000e+000 -9.686760e-001  2.483279e-001
    outer loop
      vertex  8.175448e+000 -2.288249e+001  1.567545e+001
      vertex -8.175448e+000 -2.288249e+001  1.567545e+001
      vertex  7.813513e+000 -2.297528e+001  1.531351e+001
    endloop
  endfacet
  facet normal  0.000000e+000 -9.686760e-001  2.483279e-001
    outer loop
      vertex  7.813513e+000 -2.297528e+001  1.531351e+001
      vertex -8.175448e+000 -2.288249e+001  1.567545e+001
      vertex -7.813513e+000 -2.297528e+001  1.531351e+001
    endloop
  endfacet
  facet normal  0.000000e+000 -9.969047e-001  7.862017e-002
    outer loop
      vertex  7.813513e+000 -2.297528e+001  1.531351e+001
      vertex -7.813513e+000 -2.297528e+001  1.531351e+001
      vertex  7.500000e+000 -2.300000e+001  1.500000e+001
    endloop
  endfacet
  facet normal  0.000000e+000 -9.969046e-001  7.862016e-002
    outer loop
      vertex  7.500000e+000 -2.300000e+001  1.500000e+001
      vertex -7.813513e+000 -2.297528e+001  1.531351e+001
      vertex -7.500000e+000 -2.300000e+001  1.500000e+001
    endloop
  endfacet
  facet normal  0.000000e+000  1.000000e+000  0.000000e+000
    outer loop
      vertex  9.500000e+000  1.600000e+001  2.000000e+000
      vertex -9.500000e+000  1.600000e+001  2.000000e+000
      vertex -9.500000e+000  1.600000e+001  7.000000e+000
    endloop
  endfacet
  facet normal  -0.000000e+000  1.000000e+000  0.000000e+000
    outer loop
      vertex  9.500000e+000  1.600000e+001  2.000000e+000
      vertex -9.500000e+000  1.600000e+001  7.000000e+000
      vertex -6.500000e+000  1.600000e+001  7.000000e+000
    endloop
  endfacet
  facet normal  -0.000000e+000  1.000000e+000  0.000000e+000
    outer loop
      vertex  9.500000e+000  1.600000e+001  2.000000e+000
      vertex -6.500000e+000  1.600000e+001  7.000000e+000
      vertex  6.500000e+000  1.600000e+001  7.000000e+000
    endloop
  endfacet
  facet normal  -0.000000e+000  1.000000e+000  0.000000e+000
    outer loop
      vertex  9.500000e+000  1.600000e+001  2.000000e+000
      vertex  6.500000e+000  1.600000e+001  7.000000e+000
      vertex  9.500000e+000  1.600000e+001  7.000000e+000
    endloop
  endfacet
  facet normal  0.000000e+000  1.000000e+000  -0.000000e+000
    outer loop
      vertex  6.500000e+000  1.600000e+001  7.000000e+000
      vertex -6.500000e+000  1.600000e+001  7.000000e+000
      vertex -9.500000e+000  1.600000e+001  1.700000e+001
    endloop
  endfacet
  facet normal  -0.000000e+000  1.000000e+000  0.000000e+000
    outer loop
      vertex  6.500000e+000  1.600000e+001  7.000000e+000
      vertex -9.500000e+000  1.600000e+001  1.700000e+001
      vertex  9.500000e+000  1.600000e+001  1.700000e+001
    endloop
  endfacet
  facet normal  0.000000e+000  1.000000e+000  0.000000e+000
    outer loop
      vertex  6.500000e+000  1.600000e+001  7.000000e+000
      vertex  9.500000e+000  1.600000e+001  1.700000e+001
      vertex  9.500000e+000  1.600000e+001  1.255397e+001
    endloop
  endfacet
  facet normal  0.000000e+000  1.000000e+000  0.000000e+000
    outer loop
      vertex  6.500000e+000  1.600000e+001  7.000000e+000
      vertex  9.500000e+000  1.600000e+001  1.255397e+001
      vertex  9.467637e+000  1.600000e+001  1.219563e+001
    endloop
  endfacet
  facet normal  0.000000e+000  1.000000e+000  0.000000e+000
    outer loop
      vertex  6.500000e+000  1.600000e+001  7.000000e+000
      vertex  9.467637e+000  1.600000e+001  1.219563e+001
      vertex  9.371596e+000  1.600000e+001  1.184890e+001
    endloop
  endfacet
  facet normal  0.000000e+000  1.000000e+000  0.000000e+000
    outer loop
      vertex  6.500000e+000  1.600000e+001  7.000000e+000
      vertex  9.371596e+000  1.600000e+001  1.184890e+001
      vertex  9.214986e+000  1.600000e+001  1.152498e+001
    endloop
  endfacet
  facet normal  0.000000e+000  1.000000e+000  0.000000e+000
    outer loop
      vertex -9.500000e+000  1.600000e+001  1.700000e+001
      vertex -6.500000e+000  1.600000e+001  7.000000e+000
      vertex -9.214986e+000  1.600000e+001  1.152498e+001
    endloop
  endfacet
  facet normal  0.000000e+000  9.999999e-001  0.000000e+000
    outer loop
      vertex -9.500000e+000  1.600000e+001  1.700000e+001
      vertex -9.214986e+000  1.600000e+001  1.152498e+001
      vertex -9.371596e+000  1.600000e+001  1.184890e+001
    endloop
  endfacet
  facet normal  0.000000e+000  1.000000e+000  0.000000e+000
    outer loop
      vertex -9.500000e+000  1.600000e+001  1.700000e+001
      vertex -9.371596e+000  1.600000e+001  1.184890e+001
      vertex -9.467637e+000  1.600000e+001  1.219563e+001
    endloop
  endfacet
  facet normal  0.000000e+000  1.000000e+000  0.000000e+000
    outer loop
      vertex -9.500000e+000  1.600000e+001  1.700000e+001
      vertex -9.467637e+000  1.600000e+001  1.219563e+001
      vertex -9.500000e+000  1.600000e+001  1.255397e+001
    endloop
  endfacet
  facet normal  0.000000e+000 -1.000000e+000  0.000000e+000
    outer loop
      vertex  6.500000e+000 -1.600000e+001  7.000000e+000
      vertex -9.421749e+000 -1.600000e+001  1.200000e+001
      vertex -9.333814e+000 -1.600000e+001  1.175576e+001
    endloop
  endfacet
  facet normal  0.000000e+000 -1.000000e+000  0.000000e+000
    outer loop
      vertex  6.500000e+000 -1.600000e+001  7.000000e+000
      vertex -9.333814e+000 -1.600000e+001  1.175576e+001
      vertex -9.214986e+000 -1.600000e+001  1.152498e+001
    endloop
  endfacet
  facet normal  0.000000e+000 -1.000000e+000  0.000000e+000
    outer loop
      vertex  6.500000e+000 -1.600000e+001  7.000000e+000
      vertex -9.214986e+000 -1.600000e+001  1.152498e+001
      vertex -6.500000e+000 -1.600000e+001  7.000000e+000
    endloop
  endfacet
  facet normal  0.000000e+000 -1.000000e+000  0.000000e+000
    outer loop
      vertex  6.500000e+000 -1.600000e+001  7.000000e+000
      vertex -6.500000e+000 -1.600000e+001  7.000000e+000
      vertex  9.500000e+000 -1.600000e+001  2.000000e+000
    endloop
  endfacet
  facet normal  0.000000e+000 -1.000000e+000  0.000000e+000
    outer loop
      vertex  6.500000e+000 -1.600000e+001  7.000000e+000
      vertex  9.500000e+000 -1.600000e+001  2.000000e+000
      vertex  9.500000e+000 -1.600000e+001  7.000000e+000
    endloop
  endfacet
  facet normal  0.000000e+000 -1.000000e+000  0.000000e+000
    outer loop
      vertex  9.421749e+000 -1.600000e+001  1.200000e+001
      vertex -9.421749e+000 -1.600000e+001  1.200000e+001
      vertex  6.500000e+000 -1.600000e+001  7.000000e+000
    endloop
  endfacet
  facet normal  0.000000e+000 -1.000000e+000  0.000000e+000
    outer loop
      vertex  9.421749e+000 -1.600000e+001  1.200000e+001
      vertex  6.500000e+000 -1.600000e+001  7.000000e+000
      vertex  9.214986e+000 -1.600000e+001  1.152498e+001
    endloop
  endfacet
  facet normal  0.000000e+000 -1.000000e+000  0.000000e+000
    outer loop
      vertex  9.421749e+000 -1.600000e+001  1.200000e+001
      vertex  9.214986e+000 -1.600000e+001  1.152498e+001
      vertex  9.333814e+000 -1.600000e+001  1.175576e+001
    endloop
  endfacet
  facet normal  0.000000e+000 -1.000000e+000  0.000000e+000
    outer loop
      vertex -6.500000e+000 -1.600000e+001  7.000000e+000
      vertex -9.500000e+000 -1.600000e+001  7.000000e+000
      vertex  9.500000e+000 -1.600000e+001  2.000000e+000
    endloop
  endfacet
  facet normal  0.000000e+000 -1.000000e+000  0.000000e+000
    outer loop
      vertex  9.500000e+000 -1.600000e+001  2.000000e+000
      vertex -9.500000e+000 -1.600000e+001  7.000000e+000
      vertex -9.500000e+000 -1.600000e+001  2.000000e+000
    endloop
  endfacet
  facet normal -8.574929e-001  0.000000e+000 -5.144957e-001
    outer loop
      vertex -9.214986e+000  1.600000e+001  1.152498e+001
      vertex -6.500000e+000  1.600000e+001  7.000000e+000
      vertex -9.214986e+000 -1.600000e+001  1.152498e+001
    endloop
  endfacet
  facet normal -8.574929e-001  0.000000e+000 -5.144957e-001
    outer loop
      vertex -9.214986e+000 -1.600000e+001  1.152498e+001
      vertex -6.500000e+000  1.600000e+001  7.000000e+000
      vertex -6.500000e+000 -1.600000e+001  7.000000e+000
    endloop
  endfacet
  facet normal  8.574929e-001  0.000000e+000 -5.144957e-001
    outer loop
      vertex  9.214986e+000  1.600000e+001  1.152498e+001
      vertex  9.214986e+000 -1.600000e+001  1.152498e+001
      vertex  6.500000e+000  1.600000e+001  7.000000e+000
    endloop
  endfacet
  facet normal  8.574929e-001  0.000000e+000 -5.144957e-001
    outer loop
      vertex  6.500000e+000  1.600000e+001  7.000000e+000
      vertex  9.214986e+000 -1.600000e+001  1.152498e+001
      vertex  6.500000e+000 -1.600000e+001  7.000000e+000
    endloop
  endfacet
  facet normal  0.000000e+000  0.000000e+000 -1.000000e+000
    outer loop
      vertex -7.500000e+000 -1.400000e+001  0.000000e+000
      vertex -7.500000e+000  1.400000e+001  0.000000e+000
      vertex  7.500000e+000 -1.400000e+001  0.000000e+000
    endloop
  endfacet
  facet normal  0.000000e+000  0.000000e+000 -1.000000e+000
    outer loop
      vertex  7.500000e+000 -1.400000e+001  0.000000e+000
      vertex -7.500000e+000  1.400000e+001  0.000000e+000
      vertex  7.500000e+000  1.400000e+001  0.000000e+000
    endloop
  endfacet
  facet normal -1.000000e+000  0.000000e+000  0.000000e+000
    outer loop
      vertex -9.500000e+000  1.600000e+001  7.000000e+000
      vertex -9.500000e+000  1.600000e+001  2.000000e+000
      vertex -9.500000e+000 -1.600000e+001  7.000000e+000
    endloop
  endfacet
  facet normal -1.000000e+000  0.000000e+000  0.000000e+000
    outer loop
      vertex -9.500000e+000 -1.600000e+001  7.000000e+000
      vertex -9.500000e+000  1.600000e+001  2.000000e+000
      vertex -9.500000e+000 -1.600000e+001  2.000000e+000
    endloop
  endfacet
  facet normal  1.000000e+000  0.000000e+000  0.000000e+000
    outer loop
      vertex  9.500000e+000 -1.600000e+001  7.000000e+000
      vertex  9.500000e+000 -1.600000e+001  2.000000e+000
      vertex  9.500000e+000  1.600000e+001  7.000000e+000
    endloop
  endfacet
  facet normal  1.000000e+000  0.000000e+000  0.000000e+000
    outer loop
      vertex  9.500000e+000  1.600000e+001  7.000000e+000
      vertex  9.500000e+000 -1.600000e+001  2.000000e+000
      vertex  9.500000e+000  1.600000e+001  2.000000e+000
    endloop
  endfacet
  facet normal  7.862166e-002  0.000000e+000 -9.969044e-001
    outer loop
      vertex  7.500000e+000 -1.400000e+001  0.000000e+000
      vertex  7.500000e+000  1.400000e+001  0.000000e+000
      vertex  7.813513e+000 -1.431351e+001  2.472547e-002
    endloop
  endfacet
  facet normal  7.862166e-002  0.000000e+000 -9.969045e-001
    outer loop
      vertex  7.813513e+000 -1.431351e+001  2.472547e-002
      vertex  7.500000e+000  1.400000e+001  0.000000e+000
      vertex  7.813513e+000  1.431351e+001  2.472547e-002
    endloop
  endfacet
  facet normal  2.483264e-001  0.000000e+000 -9.686764e-001
    outer loop
      vertex  7.813513e+000 -1.431351e+001  2.472547e-002
      vertex  7.813513e+000  1.431351e+001  2.472547e-002
      vertex  8.175448e+000 -1.467545e+001  1.175099e-001
    endloop
  endfacet
  facet normal  2.483264e-001  0.000000e+000 -9.686764e-001
    outer loop
      vertex  8.175448e+000 -1.467545e+001  1.175099e-001
      vertex  7.813513e+000  1.431351e+001  2.472547e-002
      vertex  8.175448e+000  1.467545e+001  1.175099e-001
    endloop
  endfacet
  facet normal  3.823479e-001  0.000000e+000 -9.240185e-001
    outer loop
      vertex  8.175448e+000 -1.467545e+001  1.175099e-001
      vertex  8.175448e+000  1.467545e+001  1.175099e-001
      vertex  8.352193e+000 -1.485219e+001  1.906446e-001
    endloop
  endfacet
  facet normal  3.823479e-001  0.000000e+000 -9.240184e-001
    outer loop
      vertex  8.352193e+000 -1.485219e+001  1.906446e-001
      vertex  8.175448e+000  1.467545e+001  1.175099e-001
      vertex  8.352193e+000  1.485219e+001  1.906446e-001
    endloop
  endfacet
  facet normal  4.697661e-001  0.000000e+000 -8.827910e-001
    outer loop
      vertex  8.352193e+000 -1.485219e+001  1.906446e-001
      vertex  8.352193e+000  1.485219e+001  1.906446e-001
      vertex  8.524635e+000 -1.502463e+001  2.824077e-001
    endloop
  endfacet
  facet normal  4.697661e-001  0.000000e+000 -8.827909e-001
    outer loop
      vertex  8.524635e+000 -1.502463e+001  2.824077e-001
      vertex  8.352193e+000  1.485219e+001  1.906446e-001
      vertex  8.524635e+000  1.502463e+001  2.824077e-001
    endloop
  endfacet
  facet normal  5.687683e-001  0.000000e+000 -8.224978e-001
    outer loop
      vertex  8.524635e+000 -1.502463e+001  2.824077e-001
      vertex  8.524635e+000  1.502463e+001  2.824077e-001
      vertex  8.745315e+000 -1.524532e+001  4.350104e-001
    endloop
  endfacet
  facet normal  5.687682e-001  0.000000e+000 -8.224978e-001
    outer loop
      vertex  8.745315e+000 -1.524532e+001  4.350104e-001
      vertex  8.524635e+000  1.502463e+001  2.824077e-001
      vertex  8.745315e+000  1.524532e+001  4.350104e-001
    endloop
  endfacet
  facet normal  6.758076e-001  0.000000e+000 -7.370781e-001
    outer loop
      vertex  8.745315e+000 -1.524532e+001  4.350104e-001
      vertex  8.745315e+000  1.524532e+001  4.350104e-001
      vertex  8.951305e+000 -1.545131e+001  6.238779e-001
    endloop
  endfacet
  facet normal  6.758076e-001  0.000000e+000 -7.370781e-001
    outer loop
      vertex  8.951305e+000 -1.545131e+001  6.238779e-001
      vertex  8.745315e+000  1.524532e+001  4.350104e-001
      vertex  8.951305e+000  1.545131e+001  6.238779e-001
    endloop
  endfacet
  facet normal  7.741018e-001  0.000000e+000 -6.330612e-001
    outer loop
      vertex  8.951305e+000 -1.545131e+001  6.238779e-001
      vertex  8.951305e+000  1.545131e+001  6.238779e-001
      vertex  9.136788e+000 -1.563679e+001  8.506849e-001
    endloop
  endfacet
  facet normal  7.741017e-001  0.000000e+000 -6.330612e-001
    outer loop
      vertex  9.136788e+000 -1.563679e+001  8.506849e-001
      vertex  8.951305e+000  1.545131e+001  6.238779e-001
      vertex  9.136788e+000  1.563679e+001  8.506849e-001
    endloop
  endfacet
  facet normal  8.601713e-001  0.000000e+000 -5.100051e-001
    outer loop
      vertex  9.136788e+000 -1.563679e+001  8.506849e-001
      vertex  9.136788e+000  1.563679e+001  8.506849e-001
      vertex  9.293699e+000 -1.579370e+001  1.115330e+000
    endloop
  endfacet
  facet normal  8.601713e-001  0.000000e+000 -5.100051e-001
    outer loop
      vertex  9.293699e+000 -1.579370e+001  1.115330e+000
      vertex  9.136788e+000  1.563679e+001  8.506849e-001
      vertex  9.293699e+000  1.579370e+001  1.115330e+000
    endloop
  endfacet
  facet normal  9.297511e-001  0.000000e+000 -3.681886e-001
    outer loop
      vertex  9.293699e+000 -1.579370e+001  1.115330e+000
      vertex  9.293699e+000  1.579370e+001  1.115330e+000
      vertex  9.413072e+000 -1.591307e+001  1.416769e+000
    endloop
  endfacet
  facet normal  9.297510e-001  0.000000e+000 -3.681886e-001
    outer loop
      vertex  9.413072e+000 -1.591307e+001  1.416769e+000
      vertex  9.293699e+000  1.579370e+001  1.115330e+000
      vertex  9.413072e+000  1.591307e+001  1.416769e+000
    endloop
  endfacet
  facet normal  9.679167e-001  0.000000e+000 -2.512710e-001
    outer loop
      vertex  9.413072e+000 -1.591307e+001  1.416769e+000
      vertex  9.413072e+000  1.591307e+001  1.416769e+000
      vertex  9.455191e+000 -1.595519e+001  1.579015e+000
    endloop
  endfacet
  facet normal  9.679168e-001  0.000000e+000 -2.512710e-001
    outer loop
      vertex  9.455191e+000 -1.595519e+001  1.579015e+000
      vertex  9.413072e+000  1.591307e+001  1.416769e+000
      vertex  9.455191e+000  1.595519e+001  1.579015e+000
    endloop
  endfacet
  facet normal  9.856709e-001  0.000000e+000 -1.686796e-001
    outer loop
      vertex  9.455191e+000 -1.595519e+001  1.579015e+000
      vertex  9.455191e+000  1.595519e+001  1.579015e+000
      vertex  9.483920e+000 -1.598392e+001  1.746894e+000
    endloop
  endfacet
  facet normal  9.856709e-001  0.000000e+000 -1.686796e-001
    outer loop
      vertex  9.483920e+000 -1.598392e+001  1.746894e+000
      vertex  9.455191e+000  1.595519e+001  1.579015e+000
      vertex  9.483920e+000  1.598392e+001  1.746894e+000
    endloop
  endfacet
  facet normal  9.979881e-001  0.000000e+000 -6.340261e-002
    outer loop
      vertex  9.483920e+000 -1.598392e+001  1.746894e+000
      vertex  9.483920e+000  1.598392e+001  1.746894e+000
      vertex  9.500000e+000 -1.600000e+001  2.000000e+000
    endloop
  endfacet
  facet normal  9.979880e-001  0.000000e+000 -6.340261e-002
    outer loop
      vertex  9.500000e+000 -1.600000e+001  2.000000e+000
      vertex  9.483920e+000  1.598392e+001  1.746894e+000
      vertex  9.500000e+000  1.600000e+001  2.000000e+000
    endloop
  endfacet
  facet normal  0.000000e+000 -9.979880e-001 -6.340261e-002
    outer loop
      vertex  9.500000e+000 -1.600000e+001  2.000000e+000
      vertex -9.500000e+000 -1.600000e+001  2.000000e+000
      vertex  9.483920e+000 -1.598392e+001  1.746894e+000
    endloop
  endfacet
  facet normal  -0.000000e+000 -9.979880e-001 -6.340261e-002
    outer loop
      vertex  9.483920e+000 -1.598392e+001  1.746894e+000
      vertex -9.500000e+000 -1.600000e+001  2.000000e+000
      vertex -9.483920e+000 -1.598392e+001  1.746894e+000
    endloop
  endfacet
  facet normal  0.000000e+000 -9.856710e-001 -1.686796e-001
    outer loop
      vertex  9.483920e+000 -1.598392e+001  1.746894e+000
      vertex -9.483920e+000 -1.598392e+001  1.746894e+000
      vertex  9.455191e+000 -1.595519e+001  1.579015e+000
    endloop
  endfacet
  facet normal  -0.000000e+000 -9.856710e-001 -1.686796e-001
    outer loop
      vertex  9.455191e+000 -1.595519e+001  1.579015e+000
      vertex -9.483920e+000 -1.598392e+001  1.746894e+000
      vertex -9.455191e+000 -1.595519e+001  1.579015e+000
    endloop
  endfacet
  facet normal  0.000000e+000 -9.679140e-001 -2.512816e-001
    outer loop
      vertex  9.455191e+000 -1.595519e+001  1.579015e+000
      vertex -9.455191e+000 -1.595519e+001  1.579015e+000
      vertex  9.413072e+000 -1.591307e+001  1.416769e+000
    endloop
  endfacet
  facet normal  9.806337e-008 -9.679168e-001 -2.512710e-001
    outer loop
      vertex  9.413072e+000 -1.591307e+001  1.416769e+000
      vertex -9.455191e+000 -1.595519e+001  1.579015e+000
      vertex -9.413070e+000 -1.591307e+001  1.416769e+000
    endloop
  endfacet
  facet normal  9.419687e-008 -9.297532e-001 -3.681836e-001
    outer loop
      vertex  9.413072e+000 -1.591307e+001  1.416769e+000
      vertex -9.413070e+000 -1.591307e+001  1.416769e+000
      vertex  9.293699e+000 -1.579370e+001  1.115330e+000
    endloop
  endfacet
  facet normal  -0.000000e+000 -9.297512e-001 -3.681886e-001
    outer loop
      vertex  9.293699e+000 -1.579370e+001  1.115330e+000
      vertex -9.413070e+000 -1.591307e+001  1.416769e+000
      vertex -9.293699e+000 -1.579370e+001  1.115330e+000
    endloop
  endfacet
  facet normal  0.000000e+000 -8.601714e-001 -5.100051e-001
    outer loop
      vertex  9.293699e+000 -1.579370e+001  1.115330e+000
      vertex -9.293699e+000 -1.579370e+001  1.115330e+000
      vertex  9.136788e+000 -1.563679e+001  8.506849e-001
    endloop
  endfacet
  facet normal  -0.000000e+000 -8.601714e-001 -5.100051e-001
    outer loop
      vertex  9.136788e+000 -1.563679e+001  8.506849e-001
      vertex -9.293699e+000 -1.579370e+001  1.115330e+000
      vertex -9.136788e+000 -1.563679e+001  8.506849e-001
    endloop
  endfacet
  facet normal  0.000000e+000 -7.741034e-001 -6.330592e-001
    outer loop
      vertex  9.136788e+000 -1.563679e+001  8.506849e-001
      vertex -9.136788e+000 -1.563679e+001  8.506849e-001
      vertex  8.951305e+000 -1.545131e+001  6.238779e-001
    endloop
  endfacet
  facet normal -4.123650e-008 -7.741018e-001 -6.330612e-001
    outer loop
      vertex  8.951305e+000 -1.545131e+001  6.238779e-001
      vertex -9.136788e+000 -1.563679e+001  8.506849e-001
      vertex -8.951306e+000 -1.545131e+001  6.238779e-001
    endloop
  endfacet
  facet normal -3.600035e-008 -6.758076e-001 -7.370780e-001
    outer loop
      vertex  8.951305e+000 -1.545131e+001  6.238779e-001
      vertex -8.951306e+000 -1.545131e+001  6.238779e-001
      vertex  8.745315e+000 -1.524532e+001  4.350104e-001
    endloop
  endfacet
  facet normal -3.684832e-008 -6.758076e-001 -7.370781e-001
    outer loop
      vertex  8.745315e+000 -1.524532e+001  4.350104e-001
      vertex -8.951306e+000 -1.545131e+001  6.238779e-001
      vertex -8.745316e+000 -1.524531e+001  4.350104e-001
    endloop
  endfacet
  facet normal -3.101183e-008 -5.687649e-001 -8.225001e-001
    outer loop
      vertex  8.745315e+000 -1.524532e+001  4.350104e-001
      vertex -8.745316e+000 -1.524531e+001  4.350104e-001
      vertex  8.524635e+000 -1.502463e+001  2.824077e-001
    endloop
  endfacet
  facet normal  3.181483e-008 -5.687682e-001 -8.224978e-001
    outer loop
      vertex  8.524635e+000 -1.502463e+001  2.824077e-001
      vertex -8.745316e+000 -1.524531e+001  4.350104e-001
      vertex -8.524634e+000 -1.502464e+001  2.824077e-001
    endloop
  endfacet
  facet normal  2.627701e-008 -4.697660e-001 -8.827909e-001
    outer loop
      vertex  8.524635e+000 -1.502463e+001  2.824077e-001
      vertex -8.524634e+000 -1.502464e+001  2.824077e-001
      vertex  8.352193e+000 -1.485219e+001  1.906446e-001
    endloop
  endfacet
  facet normal  2.681954e-008 -4.697661e-001 -8.827909e-001
    outer loop
      vertex  8.352193e+000 -1.485219e+001  1.906446e-001
      vertex -8.524634e+000 -1.502464e+001  2.824077e-001
      vertex -8.352192e+000 -1.485219e+001  1.906446e-001
    endloop
  endfacet
  facet normal  2.182872e-008 -3.823479e-001 -9.240185e-001
    outer loop
      vertex  8.352193e+000 -1.485219e+001  1.906446e-001
      vertex -8.352192e+000 -1.485219e+001  1.906446e-001
      vertex  8.175448e+000 -1.467545e+001  1.175099e-001
    endloop
  endfacet
  facet normal  2.230064e-008 -3.823479e-001 -9.240184e-001
    outer loop
      vertex  8.175448e+000 -1.467545e+001  1.175099e-001
      vertex -8.352192e+000 -1.485219e+001  1.906446e-001
      vertex -8.175447e+000 -1.467545e+001  1.175099e-001
    endloop
  endfacet
  facet normal  1.448378e-008 -2.483267e-001 -9.686763e-001
    outer loop
      vertex  8.175448e+000 -1.467545e+001  1.175099e-001
      vertex -8.175447e+000 -1.467545e+001  1.175099e-001
      vertex  7.813513e+000 -1.431351e+001  2.472547e-002
    endloop
  endfacet
  facet normal  -0.000000e+000 -2.483261e-001 -9.686764e-001
    outer loop
      vertex  7.813513e+000 -1.431351e+001  2.472547e-002
      vertex -8.175447e+000 -1.467545e+001  1.175099e-001
      vertex -7.813513e+000 -1.431351e+001  2.472547e-002
    endloop
  endfacet
  facet normal  0.000000e+000 -7.862177e-002 -9.969045e-001
    outer loop
      vertex  7.813513e+000 -1.431351e+001  2.472547e-002
      vertex -7.813513e+000 -1.431351e+001  2.472547e-002
      vertex  7.500000e+000 -1.400000e+001  0.000000e+000
    endloop
  endfacet
  facet normal  -0.000000e+000 -7.862178e-002 -9.969046e-001
    outer loop
      vertex  7.500000e+000 -1.400000e+001  0.000000e+000
      vertex -7.813513e+000 -1.431351e+001  2.472547e-002
      vertex -7.500000e+000 -1.400000e+001  0.000000e+000
    endloop
  endfacet
  facet normal -7.862166e-002  0.000000e+000 -9.969044e-001
    outer loop
      vertex -7.500000e+000  1.400000e+001  0.000000e+000
      vertex -7.500000e+000 -1.400000e+001  0.000000e+000
      vertex -7.813513e+000  1.431351e+001  2.472547e-002
    endloop
  endfacet
  facet normal -7.862166e-002  -0.000000e+000 -9.969045e-001
    outer loop
      vertex -7.813513e+000  1.431351e+001  2.472547e-002
      vertex -7.500000e+000 -1.400000e+001  0.000000e+000
      vertex -7.813513e+000 -1.431351e+001  2.472547e-002
    endloop
  endfacet
  facet normal -2.483264e-001  0.000000e+000 -9.686764e-001
    outer loop
      vertex -7.813513e+000  1.431351e+001  2.472547e-002
      vertex -7.813513e+000 -1.431351e+001  2.472547e-002
      vertex -8.175448e+000  1.467545e+001  1.175099e-001
    endloop
  endfacet
  facet normal -2.483270e-001 -8.068684e-009 -9.686762e-001
    outer loop
      vertex -8.175448e+000  1.467545e+001  1.175099e-001
      vertex -7.813513e+000 -1.431351e+001  2.472547e-002
      vertex -8.175447e+000 -1.467545e+001  1.175099e-001
    endloop
  endfacet
  facet normal -3.823479e-001 -1.242331e-008 -9.240185e-001
    outer loop
      vertex -8.175448e+000  1.467545e+001  1.175099e-001
      vertex -8.175447e+000 -1.467545e+001  1.175099e-001
      vertex -8.352193e+000  1.485219e+001  1.906446e-001
    endloop
  endfacet
  facet normal -3.823479e-001 -1.227547e-008 -9.240184e-001
    outer loop
      vertex -8.352193e+000  1.485219e+001  1.906446e-001
      vertex -8.175447e+000 -1.467545e+001  1.175099e-001
      vertex -8.352192e+000 -1.485219e+001  1.906446e-001
    endloop
  endfacet
  facet normal -4.697661e-001 -1.508208e-008 -8.827910e-001
    outer loop
      vertex -8.352193e+000  1.485219e+001  1.906446e-001
      vertex -8.352192e+000 -1.485219e+001  1.906446e-001
      vertex -8.524635e+000  1.502463e+001  2.824077e-001
    endloop
  endfacet
  facet normal -4.697661e-001 -1.490898e-008 -8.827909e-001
    outer loop
      vertex -8.524635e+000  1.502463e+001  2.824077e-001
      vertex -8.352192e+000 -1.485219e+001  1.906446e-001
      vertex -8.524634e+000 -1.502464e+001  2.824077e-001
    endloop
  endfacet
  facet normal -5.687683e-001 -1.805101e-008 -8.224978e-001
    outer loop
      vertex -8.524635e+000  1.502463e+001  2.824077e-001
      vertex -8.524634e+000 -1.502464e+001  2.824077e-001
      vertex -8.745315e+000  1.524532e+001  4.350104e-001
    endloop
  endfacet
  facet normal -5.687649e-001  1.778961e-008 -8.225002e-001
    outer loop
      vertex -8.745315e+000  1.524532e+001  4.350104e-001
      vertex -8.524634e+000 -1.502464e+001  2.824077e-001
      vertex -8.745316e+000 -1.524531e+001  4.350104e-001
    endloop
  endfacet
  facet normal -6.758076e-001  2.113765e-008 -7.370781e-001
    outer loop
      vertex -8.745315e+000  1.524532e+001  4.350104e-001
      vertex -8.745316e+000 -1.524531e+001  4.350104e-001
      vertex -8.951305e+000  1.545131e+001  6.238779e-001
    endloop
  endfacet
  facet normal -6.758076e-001  2.085585e-008 -7.370780e-001
    outer loop
      vertex -8.951305e+000  1.545131e+001  6.238779e-001
      vertex -8.745316e+000 -1.524531e+001  4.350104e-001
      vertex -8.951306e+000 -1.545131e+001  6.238779e-001
    endloop
  endfacet
  facet normal -7.741018e-001  2.388928e-008 -6.330612e-001
    outer loop
      vertex -8.951305e+000  1.545131e+001  6.238779e-001
      vertex -8.951306e+000 -1.545131e+001  6.238779e-001
      vertex -9.136788e+000  1.563679e+001  8.506849e-001
    endloop
  endfacet
  facet normal -7.741033e-001  -0.000000e+000 -6.330591e-001
    outer loop
      vertex -9.136788e+000  1.563679e+001  8.506849e-001
      vertex -8.951306e+000 -1.545131e+001  6.238779e-001
      vertex -9.136788e+000 -1.563679e+001  8.506849e-001
    endloop
  endfacet
  facet normal -8.601713e-001  0.000000e+000 -5.100051e-001
    outer loop
      vertex -9.136788e+000  1.563679e+001  8.506849e-001
      vertex -9.136788e+000 -1.563679e+001  8.506849e-001
      vertex -9.293699e+000  1.579370e+001  1.115330e+000
    endloop
  endfacet
  facet normal -8.601713e-001  -0.000000e+000 -5.100051e-001
    outer loop
      vertex -9.293699e+000  1.579370e+001  1.115330e+000
      vertex -9.136788e+000 -1.563679e+001  8.506849e-001
      vertex -9.293699e+000 -1.579370e+001  1.115330e+000
    endloop
  endfacet
  facet normal -9.297511e-001  0.000000e+000 -3.681886e-001
    outer loop
      vertex -9.293699e+000  1.579370e+001  1.115330e+000
      vertex -9.293699e+000 -1.579370e+001  1.115330e+000
      vertex -9.413072e+000  1.591307e+001  1.416769e+000
    endloop
  endfacet
  facet normal -9.297531e-001 -5.572034e-008 -3.681835e-001
    outer loop
      vertex -9.413072e+000  1.591307e+001  1.416769e+000
      vertex -9.293699e+000 -1.579370e+001  1.115330e+000
      vertex -9.413070e+000 -1.591307e+001  1.416769e+000
    endloop
  endfacet
  facet normal -9.679167e-001 -5.800749e-008 -2.512710e-001
    outer loop
      vertex -9.413072e+000  1.591307e+001  1.416769e+000
      vertex -9.413070e+000 -1.591307e+001  1.416769e+000
      vertex -9.455191e+000  1.595519e+001  1.579015e+000
    endloop
  endfacet
  facet normal -9.679140e-001  -0.000000e+000 -2.512816e-001
    outer loop
      vertex -9.455191e+000  1.595519e+001  1.579015e+000
      vertex -9.413070e+000 -1.591307e+001  1.416769e+000
      vertex -9.455191e+000 -1.595519e+001  1.579015e+000
    endloop
  endfacet
  facet normal -9.856709e-001  0.000000e+000 -1.686796e-001
    outer loop
      vertex -9.455191e+000  1.595519e+001  1.579015e+000
      vertex -9.455191e+000 -1.595519e+001  1.579015e+000
      vertex -9.483920e+000  1.598392e+001  1.746894e+000
    endloop
  endfacet
  facet normal -9.856709e-001  -0.000000e+000 -1.686796e-001
    outer loop
      vertex -9.483920e+000  1.598392e+001  1.746894e+000
      vertex -9.455191e+000 -1.595519e+001  1.579015e+000
      vertex -9.483920e+000 -1.598392e+001  1.746894e+000
    endloop
  endfacet
  facet normal -9.979881e-001  0.000000e+000 -6.340261e-002
    outer loop
      vertex -9.483920e+000  1.598392e+001  1.746894e+000
      vertex -9.483920e+000 -1.598392e+001  1.746894e+000
      vertex -9.500000e+000  1.600000e+001  2.000000e+000
    endloop
  endfacet
  facet normal -9.979880e-001  -0.000000e+000 -6.340261e-002
    outer loop
      vertex -9.500000e+000  1.600000e+001  2.000000e+000
      vertex -9.483920e+000 -1.598392e+001  1.746894e+000
      vertex -9.500000e+000 -1.600000e+001  2.000000e+000
    endloop
  endfacet
  facet normal  0.000000e+000  9.979880e-001 -6.340261e-002
    outer loop
      vertex -9.500000e+000  1.600000e+001  2.000000e+000
      vertex  9.500000e+000  1.600000e+001  2.000000e+000
      vertex -9.483920e+000  1.598392e+001  1.746894e+000
    endloop
  endfacet
  facet normal  0.000000e+000  9.979880e-001 -6.340261e-002
    outer loop
      vertex -9.483920e+000  1.598392e+001  1.746894e+000
      vertex  9.500000e+000  1.600000e+001  2.000000e+000
      vertex  9.483920e+000  1.598392e+001  1.746894e+000
    endloop
  endfacet
  facet normal  0.000000e+000  9.856710e-001 -1.686796e-001
    outer loop
      vertex -9.483920e+000  1.598392e+001  1.746894e+000
      vertex  9.483920e+000  1.598392e+001  1.746894e+000
      vertex -9.455191e+000  1.595519e+001  1.579015e+000
    endloop
  endfacet
  facet normal  0.000000e+000  9.856710e-001 -1.686796e-001
    outer loop
      vertex -9.455191e+000  1.595519e+001  1.579015e+000
      vertex  9.483920e+000  1.598392e+001  1.746894e+000
      vertex  9.455191e+000  1.595519e+001  1.579015e+000
    endloop
  endfacet
  facet normal  0.000000e+000  9.679140e-001 -2.512816e-001
    outer loop
      vertex -9.455191e+000  1.595519e+001  1.579015e+000
      vertex  9.455191e+000  1.595519e+001  1.579015e+000
      vertex -9.413072e+000  1.591307e+001  1.416769e+000
    endloop
  endfacet
  facet normal  0.000000e+000  9.679140e-001 -2.512816e-001
    outer loop
      vertex -9.413072e+000  1.591307e+001  1.416769e+000
      vertex  9.455191e+000  1.595519e+001  1.579015e+000
      vertex  9.413072e+000  1.591307e+001  1.416769e+000
    endloop
  endfacet
  facet normal  0.000000e+000  9.297531e-001 -3.681835e-001
    outer loop
      vertex -9.413072e+000  1.591307e+001  1.416769e+000
      vertex  9.413072e+000  1.591307e+001  1.416769e+000
      vertex -9.293699e+000  1.579370e+001  1.115330e+000
    endloop
  endfacet
  facet normal  0.000000e+000  9.297531e-001 -3.681835e-001
    outer loop
      vertex -9.293699e+000  1.579370e+001  1.115330e+000
      vertex  9.413072e+000  1.591307e+001  1.416769e+000
      vertex  9.293699e+000  1.579370e+001  1.115330e+000
    endloop
  endfacet
  facet normal  0.000000e+000  8.601714e-001 -5.100051e-001
    outer loop
      vertex -9.293699e+000  1.579370e+001  1.115330e+000
      vertex  9.293699e+000  1.579370e+001  1.115330e+000
      vertex -9.136788e+000  1.563679e+001  8.506849e-001
    endloop
  endfacet
  facet normal  0.000000e+000  8.601714e-001 -5.100051e-001
    outer loop
      vertex -9.136788e+000  1.563679e+001  8.506849e-001
      vertex  9.293699e+000  1.579370e+001  1.115330e+000
      vertex  9.136788e+000  1.563679e+001  8.506849e-001
    endloop
  endfacet
  facet normal  0.000000e+000  7.741034e-001 -6.330592e-001
    outer loop
      vertex -9.136788e+000  1.563679e+001  8.506849e-001
      vertex  9.136788e+000  1.563679e+001  8.506849e-001
      vertex -8.951305e+000  1.545131e+001  6.238779e-001
    endloop
  endfacet
  facet normal  0.000000e+000  7.741033e-001 -6.330592e-001
    outer loop
      vertex -8.951305e+000  1.545131e+001  6.238779e-001
      vertex  9.136788e+000  1.563679e+001  8.506849e-001
      vertex  8.951305e+000  1.545131e+001  6.238779e-001
    endloop
  endfacet
  facet normal  0.000000e+000  6.758076e-001 -7.370781e-001
    outer loop
      vertex -8.951305e+000  1.545131e+001  6.238779e-001
      vertex  8.951305e+000  1.545131e+001  6.238779e-001
      vertex -8.745315e+000  1.524532e+001  4.350104e-001
    endloop
  endfacet
  facet normal  0.000000e+000  6.758076e-001 -7.370781e-001
    outer loop
      vertex -8.745315e+000  1.524532e+001  4.350104e-001
      vertex  8.951305e+000  1.545131e+001  6.238779e-001
      vertex  8.745315e+000  1.524532e+001  4.350104e-001
    endloop
  endfacet
  facet normal  0.000000e+000  5.687649e-001 -8.225001e-001
    outer loop
      vertex -8.745315e+000  1.524532e+001  4.350104e-001
      vertex  8.745315e+000  1.524532e+001  4.350104e-001
      vertex -8.524635e+000  1.502463e+001  2.824077e-001
    endloop
  endfacet
  facet normal  0.000000e+000  5.687649e-001 -8.225002e-001
    outer loop
      vertex -8.524635e+000  1.502463e+001  2.824077e-001
      vertex  8.745315e+000  1.524532e+001  4.350104e-001
      vertex  8.524635e+000  1.502463e+001  2.824077e-001
    endloop
  endfacet
  facet normal  0.000000e+000  4.697661e-001 -8.827909e-001
    outer loop
      vertex -8.524635e+000  1.502463e+001  2.824077e-001
      vertex  8.524635e+000  1.502463e+001  2.824077e-001
      vertex -8.352193e+000  1.485219e+001  1.906446e-001
    endloop
  endfacet
  facet normal  0.000000e+000  4.697661e-001 -8.827909e-001
    outer loop
      vertex -8.352193e+000  1.485219e+001  1.906446e-001
      vertex  8.524635e+000  1.502463e+001  2.824077e-001
      vertex  8.352193e+000  1.485219e+001  1.906446e-001
    endloop
  endfacet
  facet normal  0.000000e+000  3.823479e-001 -9.240185e-001
    outer loop
      vertex -8.352193e+000  1.485219e+001  1.906446e-001
      vertex  8.352193e+000  1.485219e+001  1.906446e-001
      vertex -8.175448e+000  1.467545e+001  1.175099e-001
    endloop
  endfacet
  facet normal  0.000000e+000  3.823479e-001 -9.240184e-001
    outer loop
      vertex -8.175448e+000  1.467545e+001  1.175099e-001
      vertex  8.352193e+000  1.485219e+001  1.906446e-001
      vertex  8.175448e+000  1.467545e+001  1.175099e-001
    endloop
  endfacet
  facet normal  0.000000e+000  2.483267e-001 -9.686763e-001
    outer loop
      vertex -8.175448e+000  1.467545e+001  1.175099e-001
      vertex  8.175448e+000  1.467545e+001  1.175099e-001
      vertex -7.813513e+000  1.431351e+001  2.472547e-002
    endloop
  endfacet
  facet normal  0.000000e+000  2.483267e-001 -9.686763e-001
    outer loop
      vertex -7.813513e+000  1.431351e+001  2.472547e-002
      vertex  8.175448e+000  1.467545e+001  1.175099e-001
      vertex  7.813513e+000  1.431351e+001  2.472547e-002
    endloop
  endfacet
  facet normal  0.000000e+000  7.862177e-002 -9.969045e-001
    outer loop
      vertex -7.813513e+000  1.431351e+001  2.472547e-002
      vertex  7.813513e+000  1.431351e+001  2.472547e-002
      vertex -7.500000e+000  1.400000e+001  0.000000e+000
    endloop
  endfacet
  facet normal  0.000000e+000  7.862178e-002 -9.969046e-001
    outer loop
      vertex -7.500000e+000  1.400000e+001  0.000000e+000
      vertex  7.813513e+000  1.431351e+001  2.472547e-002
      vertex  7.500000e+000  1.400000e+001  0.000000e+000
    endloop
  endfacet
  facet normal  -0.000000e+000  0.000000e+000  1.000000e+000
    outer loop
      vertex  9.500000e+000  1.600000e+001  7.000000e+000
      vertex  6.500000e+000  1.600000e+001  7.000000e+000
      vertex  9.500000e+000 -1.600000e+001  7.000000e+000
    endloop
  endfacet
  facet normal  0.000000e+000  0.000000e+000  1.000000e+000
    outer loop
      vertex  9.500000e+000 -1.600000e+001  7.000000e+000
      vertex  6.500000e+000  1.600000e+001  7.000000e+000
      vertex  6.500000e+000 -1.600000e+001  7.000000e+000
    endloop
  endfacet
  facet normal  -0.000000e+000  0.000000e+000  1.000000e+000
    outer loop
      vertex -6.500000e+000  1.600000e+001  7.000000e+000
      vertex -9.500000e+000  1.600000e+001  7.000000e+000
      vertex -6.500000e+000 -1.600000e+001  7.000000e+000
    endloop
  endfacet
  facet normal  0.000000e+000  0.000000e+000  1.000000e+000
    outer loop
      vertex -6.500000e+000 -1.600000e+001  7.000000e+000
      vertex -9.500000e+000  1.600000e+001  7.000000e+000
      vertex -9.500000e+000 -1.600000e+001  7.000000e+000
    endloop
  endfacet
endsolid CATIA STL
