999
"DXF R12 Output" (www.mydxf.blogspot.com)
 0 
SECTION
 2 
HEADER
 9 
$ACADVER
 1 
AC1009
 9 
$EXTMIN
 10 
 0 
 20 
 0 
 9 
$EXTMAX
 10 
 8.5 
 20 
 11 
 0 
ENDSEC
 0 
SECTION
 2 
ENTITIES
0
POLYLINE
8
Livello 1
62
7
70
1
10
0.000000
20
0.000000
66
1
0
VERTEX
8
Livello 1
10
1.861251
20
9.369404
70
0
0
VERTEX
8
Livello 1
10
2.384773
20
9.369404
70
0
0
VERTEX
8
Livello 1
10
2.384773
20
2.004832
70
0
0
VERTEX
8
Livello 1
10
1.861251
20
2.004832
70
0
0
VERTEX
8
Livello 1
10
1.861251
20
9.369404
70
0
0
SEQEND
8
Livello 1
0
POLYLINE
8
Livello 1
62
7
70
0
10
0.000000
20
0.000000
66
1
0
VERTEX
8
Livello 1
10
5.215490
20
2.094620
70
0
0
VERTEX
8
Livello 1
10
4.695805
20
2.403741
70
0
0
VERTEX
8
Livello 1
10
4.348364
20
2.790649
70
0
0
VERTEX
8
Livello 1
10
4.348364
20
3.657422
70
0
0
VERTEX
8
Livello 1
10
4.716443
20
3.046060
70
0
0
VERTEX
8
Livello 1
10
5.199615
20
2.618847
70
0
0
VERTEX
8
Livello 1
10
5.812874
20
2.366920
70
0
0
VERTEX
8
Livello 1
10
6.574034
20
2.283003
70
0
0
VERTEX
8
Livello 1
10
7.297977
20
2.407533
70
0
0
VERTEX
8
Livello 1
10
7.866609
20
2.781830
70
0
0
VERTEX
8
Livello 1
10
8.235217
20
3.352843
70
0
0
VERTEX
8
Livello 1
10
8.358028
20
4.066996
70
0
0
VERTEX
8
Livello 1
10
8.288310
20
4.662263
70
0
0
VERTEX
8
Livello 1
10
8.079686
20
5.105924
70
0
0
VERTEX
8
Livello 1
10
7.179400
20
5.850637
70
0
0
VERTEX
8
Livello 1
10
6.557454
20
6.210822
70
0
0
VERTEX
8
Livello 1
10
5.550981
20
6.857462
70
0
0
VERTEX
8
Livello 1
10
5.018993
20
7.397564
70
0
0
VERTEX
8
Livello 1
10
4.822496
20
8.109468
70
0
0
VERTEX
8
Livello 1
10
4.937193
20
8.698385
70
0
0
VERTEX
8
Livello 1
10
5.280754
20
9.156863
70
0
0
VERTEX
8
Livello 1
10
5.808596
20
9.451520
70
0
0
VERTEX
8
Livello 1
10
6.475609
20
9.549856
70
0
0
VERTEX
8
Livello 1
10
7.301990
20
9.447198
70
0
0
VERTEX
8
Livello 1
10
7.981262
20
9.140282
70
0
0
VERTEX
8
Livello 1
10
7.981262
20
8.420264
70
0
0
VERTEX
8
Livello 1
10
7.363417
20
8.923192
70
0
0
VERTEX
8
Livello 1
10
6.524645
20
9.090893
70
0
0
VERTEX
8
Livello 1
10
6.050249
20
9.025542
70
0
0
VERTEX
8
Livello 1
10
5.673747
20
8.829486
70
0
0
VERTEX
8
Livello 1
10
5.428347
20
8.530816
70
0
0
VERTEX
8
Livello 1
10
5.346723
20
8.158857
70
0
0
VERTEX
8
Livello 1
10
5.543220
20
7.528091
70
0
0
VERTEX
8
Livello 1
10
6.091083
20
7.029265
70
0
0
VERTEX
8
Livello 1
10
7.261244
20
6.342055
70
0
0
VERTEX
8
Livello 1
10
8.488555
20
5.367685
70
0
0
VERTEX
8
Livello 1
10
8.783477
20
4.792747
70
0
0
VERTEX
8
Livello 1
10
8.881549
20
4.066996
70
0
0
VERTEX
8
Livello 1
10
8.715787
20
3.152598
70
0
0
VERTEX
8
Livello 1
10
8.219033
20
2.438225
70
0
0
VERTEX
8
Livello 1
10
7.484199
20
1.978159
70
0
0
VERTEX
8
Livello 1
10
6.606490
20
1.824746
70
0
0
VERTEX
8
Livello 1
10
5.215490
20
2.094620
70
0
0
SEQEND
8
Livello 1
0
POLYLINE
8
Livello 1
62
7
70
0
10
0.000000
20
0.000000
66
1
0
VERTEX
8
Livello 1
10
15.722200
20
2.675990
70
0
0
VERTEX
8
Livello 1
10
16.407602
20
3.230026
70
0
0
VERTEX
8
Livello 1
10
16.925522
20
3.943871
70
0
0
VERTEX
8
Livello 1
10
17.250650
20
4.776689
70
0
0
VERTEX
8
Livello 1
10
17.359085
20
5.687294
70
0
0
VERTEX
8
Livello 1
10
17.248710
20
6.587317
70
0
0
VERTEX
8
Livello 1
10
16.917408
20
7.422252
70
0
0
VERTEX
8
Livello 1
10
16.393491
20
8.141961
70
0
0
VERTEX
8
Livello 1
10
15.706325
20
8.698952
70
0
0
VERTEX
8
Livello 1
10
14.896129
20
9.054551
70
0
0
VERTEX
8
Livello 1
10
14.004176
20
9.173084
70
0
0
VERTEX
8
Livello 1
10
13.110151
20
9.052258
70
0
0
VERTEX
8
Livello 1
10
12.293913
20
8.690132
70
0
0
VERTEX
8
Livello 1
10
11.597972
20
8.127673
70
0
0
VERTEX
8
Livello 1
10
11.066602
20
7.405671
70
0
0
VERTEX
8
Livello 1
10
10.728950
20
6.570869
70
0
0
VERTEX
8
Livello 1
10
10.616458
20
5.670714
70
0
0
VERTEX
8
Livello 1
10
10.728950
20
4.772632
70
0
0
VERTEX
8
Livello 1
10
11.066602
20
3.943871
70
0
0
VERTEX
8
Livello 1
10
11.597972
20
3.230026
70
0
0
VERTEX
8
Livello 1
10
12.293913
20
2.675990
70
0
0
VERTEX
8
Livello 1
10
13.114208
20
2.319641
70
0
0
VERTEX
8
Livello 1
10
14.020757
20
2.201152
70
0
0
VERTEX
8
Livello 1
10
14.912092
20
2.319641
70
0
0
VERTEX
8
Livello 1
10
15.722200
20
2.675990
70
0
0
SEQEND
8
Livello 1
0
POLYLINE
8
Livello 1
62
7
70
0
10
0.000000
20
0.000000
66
1
0
VERTEX
8
Livello 1
10
12.007458
20
2.291110
70
0
0
VERTEX
8
Livello 1
10
11.205376
20
2.929284
70
0
0
VERTEX
8
Livello 1
10
10.599878
20
3.747374
70
0
0
VERTEX
8
Livello 1
10
10.219187
20
4.694977
70
0
0
VERTEX
8
Livello 1
10
10.092232
20
5.720103
70
0
0
VERTEX
8
Livello 1
10
10.221084
20
6.730368
70
0
0
VERTEX
8
Livello 1
10
10.607639
20
7.667079
70
0
0
VERTEX
8
Livello 1
10
11.217679
20
8.475335
70
0
0
VERTEX
8
Livello 1
10
12.015572
20
9.099706
70
0
0
VERTEX
8
Livello 1
10
12.958677
20
9.498168
70
0
0
VERTEX
8
Livello 1
10
14.004176
20
9.630989
70
0
0
VERTEX
8
Livello 1
10
15.036842
20
9.498168
70
0
0
VERTEX
8
Livello 1
10
15.975847
20
9.099706
70
0
0
VERTEX
8
Livello 1
10
16.771932
20
8.475335
70
0
0
VERTEX
8
Livello 1
10
17.375666
20
7.667079
70
0
0
VERTEX
8
Livello 1
10
17.755739
20
6.730368
70
0
0
VERTEX
8
Livello 1
10
17.882606
20
5.720103
70
0
0
VERTEX
8
Livello 1
10
17.760016
20
4.670547
70
0
0
VERTEX
8
Livello 1
10
17.391894
20
3.714918
70
0
0
VERTEX
8
Livello 1
10
16.804740
20
2.900885
70
0
0
VERTEX
8
Livello 1
10
16.025235
20
2.275235
70
0
0
VERTEX
8
Livello 1
10
15.086099
20
1.875848
70
0
0
VERTEX
8
Livello 1
10
14.020757
20
1.742895
70
0
0
VERTEX
8
Livello 1
10
12.960662
20
1.879949
70
0
0
VERTEX
8
Livello 1
10
12.007458
20
2.291110
70
0
0
SEQEND
8
Livello 1
0
POLYLINE
8
Livello 1
62
255
70
0
10
0.000000
20
0.000000
66
1
0
VERTEX
8
Livello 1
10
21.033700
20
2.299090
70
0
0
VERTEX
8
Livello 1
10
20.233381
20
2.900795
70
0
0
VERTEX
8
Livello 1
10
19.618006
20
3.690090
70
0
0
VERTEX
8
Livello 1
10
19.224792
20
4.631387
70
0
0
VERTEX
8
Livello 1
10
19.093779
20
5.687513
70
0
0
VERTEX
8
Livello 1
10
19.224792
20
6.679478
70
0
0
VERTEX
8
Livello 1
10
19.618006
20
7.593920
70
0
0
VERTEX
8
Livello 1
10
20.237615
20
8.381186
70
0
0
VERTEX
8
Livello 1
10
21.049575
20
8.993034
70
0
0
VERTEX
8
Livello 1
10
22.005071
20
9.385763
70
0
0
VERTEX
8
Livello 1
10
23.054759
20
9.516555
70
0
0
VERTEX
8
Livello 1
10
23.905702
20
9.443133
70
0
0
VERTEX
8
Livello 1
10
24.625675
20
9.222339
70
0
0
VERTEX
8
Livello 1
10
25.902375
20
8.305824
70
0
0
VERTEX
8
Livello 1
10
25.902375
20
7.422118
70
0
0
VERTEX
8
Livello 1
10
25.331494
20
8.127804
70
0
0
VERTEX
8
Livello 1
10
24.699759
20
8.641668
70
0
0
VERTEX
8
Livello 1
10
23.956898
20
8.954096
70
0
0
VERTEX
8
Livello 1
10
23.054759
20
9.058297
70
0
0
VERTEX
8
Livello 1
10
22.181151
20
8.941969
70
0
0
VERTEX
8
Livello 1
10
21.360724
20
8.592279
70
0
0
VERTEX
8
Livello 1
10
20.646395
20
8.045916
70
0
0
VERTEX
8
Livello 1
10
20.092138
20
7.340273
70
0
0
VERTEX
8
Livello 1
10
19.736407
20
6.525579
70
0
0
VERTEX
8
Livello 1
10
19.618006
20
5.653999
70
0
0
VERTEX
8
Livello 1
10
19.732394
20
4.723638
70
0
0
VERTEX
8
Livello 1
10
20.075910
20
3.895406
70
0
0
VERTEX
8
Livello 1
10
20.613851
20
3.203434
70
0
0
VERTEX
8
Livello 1
10
21.311335
20
2.683970
70
0
0
VERTEX
8
Livello 1
10
22.119504
20
2.358842
70
0
0
VERTEX
8
Livello 1
10
22.988790
20
2.250407
70
0
0
VERTEX
8
Livello 1
10
23.858374
20
2.353677
70
0
0
VERTEX
8
Livello 1
10
24.633966
20
2.663553
70
0
0
VERTEX
8
Livello 1
10
25.315365
20
3.180134
70
0
0
VERTEX
8
Livello 1
10
25.902375
20
3.903520
70
0
0
VERTEX
8
Livello 1
10
25.902375
20
3.019813
70
0
0
VERTEX
8
Livello 1
10
25.282414
20
2.477110
70
0
0
VERTEX
8
Livello 1
10
24.601334
20
2.094479
70
0
0
VERTEX
8
Livello 1
10
23.842025
20
1.867644
70
0
0
VERTEX
8
Livello 1
10
22.988790
20
1.792149
70
0
0
VERTEX
8
Livello 1
10
21.968118
20
1.919017
70
0
0
VERTEX
8
Livello 1
10
21.033700
20
2.299090
70
0
0
SEQEND
8
Livello 1
0
POLYLINE
8
Livello 1
62
7
70
0
10
0.000000
20
0.000000
66
1
0
VERTEX
8
Livello 1
10
28.537700
20
3.428520
70
0
0
VERTEX
8
Livello 1
10
33.332998
20
8.191362
70
0
0
VERTEX
8
Livello 1
10
32.285603
20
8.870458
70
0
0
VERTEX
8
Livello 1
10
31.074872
20
9.075069
70
0
0
VERTEX
8
Livello 1
10
30.131502
20
8.966369
70
0
0
VERTEX
8
Livello 1
10
29.298993
20
8.641506
70
0
0
VERTEX
8
Livello 1
10
28.605610
20
8.127642
70
0
0
VERTEX
8
Livello 1
10
28.079443
20
7.454764
70
0
0
VERTEX
8
Livello 1
10
27.748450
20
6.652637
70
0
0
VERTEX
8
Livello 1
10
27.638119
20
5.752615
70
0
0
VERTEX
8
Livello 1
10
27.862882
20
4.492407
70
0
0
VERTEX
8
Livello 1
10
28.537700
20
3.428520
70
0
0
SEQEND
8
Livello 1
0
POLYLINE
8
Livello 1
62
7
70
0
10
0.000000
20
0.000000
66
1
0
VERTEX
8
Livello 1
10
32.662016
20
2.708502
70
0
0
VERTEX
8
Livello 1
10
33.365541
20
3.232111
70
0
0
VERTEX
8
Livello 1
10
33.938363
20
3.919233
70
0
0
VERTEX
8
Livello 1
10
33.938363
20
3.084915
70
0
0
VERTEX
8
Livello 1
10
33.304291
20
2.505876
70
0
0
VERTEX
8
Livello 1
10
32.613333
20
2.111251
70
0
0
VERTEX
8
Livello 1
10
31.844102
20
1.884062
70
0
0
VERTEX
8
Livello 1
10
30.976447
20
1.808215
70
0
0
VERTEX
8
Livello 1
10
29.992376
20
1.943197
70
0
0
VERTEX
8
Livello 1
10
29.069688
20
2.348317
70
0
0
VERTEX
8
Livello 1
10
28.267826
20
2.978553
70
0
0
VERTEX
8
Livello 1
10
27.645880
20
3.788705
70
0
0
VERTEX
8
Livello 1
10
27.246801
20
4.717391
70
0
0
VERTEX
8
Livello 1
10
27.113892
20
5.703226
70
0
0
VERTEX
8
Livello 1
10
27.244905
20
6.744756
70
0
0
VERTEX
8
Livello 1
10
27.638119
20
7.675955
70
0
0
VERTEX
8
Livello 1
10
28.257727
20
8.455151
70
0
0
VERTEX
8
Livello 1
10
29.069688
20
9.042260
70
0
0
VERTEX
8
Livello 1
10
30.029197
20
9.410427
70
0
0
VERTEX
8
Livello 1
10
31.091100
20
9.533326
70
0
0
VERTEX
8
Livello 1
10
31.910314
20
9.449404
70
0
0
VERTEX
8
Livello 1
10
32.666161
20
9.197703
70
0
0
VERTEX
8
Livello 1
10
33.358640
20
8.778323
70
0
0
VERTEX
8
Livello 1
10
33.987752
20
8.191362
70
0
0
VERTEX
8
Livello 1
10
28.848849
20
3.117371
70
0
0
VERTEX
8
Livello 1
10
29.896244
20
2.470730
70
0
0
VERTEX
8
Livello 1
10
31.041711
20
2.266473
70
0
0
VERTEX
8
Livello 1
10
31.872236
20
2.376892
70
0
0
VERTEX
8
Livello 1
10
32.662016
20
2.708502
70
0
0
SEQEND
8
Livello 1
0
POLYLINE
8
Livello 1
62
255
70
1
10
0.000000
20
0.000000
66
1
0
VERTEX
8
Livello 1
10
28.537700
20
3.428520
70
0
0
VERTEX
8
Livello 1
10
33.332998
20
8.191362
70
0
0
VERTEX
8
Livello 1
10
32.285603
20
8.870458
70
0
0
VERTEX
8
Livello 1
10
31.074872
20
9.075069
70
0
0
VERTEX
8
Livello 1
10
30.131502
20
8.966369
70
0
0
VERTEX
8
Livello 1
10
29.298993
20
8.641506
70
0
0
VERTEX
8
Livello 1
10
28.605610
20
8.127642
70
0
0
VERTEX
8
Livello 1
10
28.079443
20
7.454764
70
0
0
VERTEX
8
Livello 1
10
27.748450
20
6.652637
70
0
0
VERTEX
8
Livello 1
10
27.638119
20
5.752615
70
0
0
VERTEX
8
Livello 1
10
27.862882
20
4.492407
70
0
0
VERTEX
8
Livello 1
10
28.537700
20
3.428520
70
0
0
VERTEX
8
Livello 1
10
28.537700
20
3.428520
70
0
0
SEQEND
8
Livello 1
0
POLYLINE
8
Livello 1
62
255
70
0
10
0.000000
20
0.000000
66
1
0
VERTEX
8
Livello 1
10
32.662016
20
2.708502
70
0
0
VERTEX
8
Livello 1
10
33.365541
20
3.232111
70
0
0
VERTEX
8
Livello 1
10
33.938363
20
3.919233
70
0
0
VERTEX
8
Livello 1
10
33.938363
20
3.084915
70
0
0
VERTEX
8
Livello 1
10
33.304291
20
2.505876
70
0
0
VERTEX
8
Livello 1
10
32.613333
20
2.111251
70
0
0
VERTEX
8
Livello 1
10
31.844102
20
1.884062
70
0
0
VERTEX
8
Livello 1
10
30.976447
20
1.808215
70
0
0
VERTEX
8
Livello 1
10
29.992376
20
1.943197
70
0
0
VERTEX
8
Livello 1
10
29.069688
20
2.348317
70
0
0
VERTEX
8
Livello 1
10
28.267826
20
2.978553
70
0
0
VERTEX
8
Livello 1
10
27.645880
20
3.788705
70
0
0
VERTEX
8
Livello 1
10
27.246801
20
4.717391
70
0
0
VERTEX
8
Livello 1
10
27.113892
20
5.703226
70
0
0
VERTEX
8
Livello 1
10
27.244905
20
6.744756
70
0
0
VERTEX
8
Livello 1
10
27.638119
20
7.675955
70
0
0
VERTEX
8
Livello 1
10
28.257727
20
8.455151
70
0
0
VERTEX
8
Livello 1
10
29.069688
20
9.042260
70
0
0
VERTEX
8
Livello 1
10
30.029197
20
9.410427
70
0
0
VERTEX
8
Livello 1
10
31.091100
20
9.533326
70
0
0
VERTEX
8
Livello 1
10
31.910314
20
9.449404
70
0
0
VERTEX
8
Livello 1
10
32.666161
20
9.197703
70
0
0
VERTEX
8
Livello 1
10
33.358640
20
8.778323
70
0
0
VERTEX
8
Livello 1
10
33.987752
20
8.191362
70
0
0
VERTEX
8
Livello 1
10
28.848849
20
3.117371
70
0
0
VERTEX
8
Livello 1
10
29.896244
20
2.470730
70
0
0
VERTEX
8
Livello 1
10
31.041711
20
2.266473
70
0
0
VERTEX
8
Livello 1
10
31.872236
20
2.376892
70
0
0
VERTEX
8
Livello 1
10
32.662016
20
2.708502
70
0
0
VERTEX
8
Livello 1
10
32.662016
20
2.708502
70
0
0
SEQEND
8
Livello 1
0
POLYLINE
8
Livello 1
62
255
70
0
10
0.000000
20
0.000000
66
1
0
VERTEX
8
Livello 1
10
36.636100
20
2.158970
70
0
0
VERTEX
8
Livello 1
10
36.003218
20
2.776330
70
0
0
VERTEX
8
Livello 1
10
35.768621
20
3.664269
70
0
0
VERTEX
8
Livello 1
10
35.768621
20
9.684409
70
0
0
VERTEX
8
Livello 1
10
36.095293
20
9.684409
70
0
0
VERTEX
8
Livello 1
10
36.095293
20
3.664269
70
0
0
VERTEX
8
Livello 1
10
36.284029
20
2.929435
70
0
0
VERTEX
8
Livello 1
10
36.799436
20
2.414028
70
0
0
VERTEX
8
Livello 1
10
37.513456
20
2.225292
70
0
0
VERTEX
8
Livello 1
10
37.513456
20
1.939543
70
0
0
VERTEX
8
Livello 1
10
36.636100
20
2.158970
70
0
0
SEQEND
8
Livello 1
0
POLYLINE
8
Livello 1
62
255
70
0
10
0.000000
20
0.000000
66
1
0
VERTEX
8
Livello 1
10
39.431900
20
2.158970
70
0
0
VERTEX
8
Livello 1
10
38.799018
20
2.776330
70
0
0
VERTEX
8
Livello 1
10
38.564421
20
3.664269
70
0
0
VERTEX
8
Livello 1
10
38.564421
20
9.684409
70
0
0
VERTEX
8
Livello 1
10
38.891093
20
9.684409
70
0
0
VERTEX
8
Livello 1
10
38.891093
20
3.664269
70
0
0
VERTEX
8
Livello 1
10
39.079829
20
2.929435
70
0
0
VERTEX
8
Livello 1
10
39.595236
20
2.414028
70
0
0
VERTEX
8
Livello 1
10
40.309256
20
2.225292
70
0
0
VERTEX
8
Livello 1
10
40.309256
20
1.939543
70
0
0
VERTEX
8
Livello 1
10
39.431900
20
2.158970
70
0
0
SEQEND
8
Livello 1
 0 
ENDSEC
 0 
EOF