999
"DXF R12 Output" (www.mydxf.blogspot.com)
 0 
SECTION
 2 
HEADER
 9 
$ACADVER
 1 
AC1009
 9 
$EXTMIN
 10 
 0 
 20 
 0 
 9 
$EXTMAX
 10 
 8.5 
 20 
 11 
 0 
ENDSEC
 0 
SECTION
 2 
ENTITIES
0
POLYLINE
8
Livello 1
62
7
70
1
10
0.000000
20
0.000000
66
1
0
VERTEX
8
Livello 1
10
1.399466
20
97.359134
70
0
0
VERTEX
8
Livello 1
10
20.615582
20
97.359134
70
0
0
VERTEX
8
Livello 1
10
20.615582
20
88.819108
70
0
0
VERTEX
8
Livello 1
10
1.399466
20
88.819108
70
0
0
VERTEX
8
Livello 1
10
1.399466
20
97.359134
70
0
0
SEQEND
8
Livello 1
0
POLYLINE
8
Livello 1
62
7
70
0
10
0.000000
20
0.000000
66
1
0
VERTEX
8
Livello 1
10
151.449000
20
57.096900
70
0
0
VERTEX
8
Livello 1
10
151.449000
20
53.847118
70
0
0
VERTEX
8
Livello 1
10
151.408565
20
52.283840
70
0
0
VERTEX
8
Livello 1
10
151.251461
20
50.957153
70
0
0
VERTEX
8
Livello 1
10
150.923991
20
49.858378
70
0
0
VERTEX
8
Livello 1
10
150.372457
20
48.978840
70
0
0
VERTEX
8
Livello 1
10
149.543160
20
48.309860
70
0
0
VERTEX
8
Livello 1
10
148.382403
20
47.842760
70
0
0
VERTEX
8
Livello 1
10
146.836488
20
47.568864
70
0
0
VERTEX
8
Livello 1
10
144.851717
20
47.479493
70
0
0
VERTEX
8
Livello 1
10
143.323386
20
47.542492
70
0
0
VERTEX
8
Livello 1
10
142.029132
20
47.739534
70
0
0
VERTEX
8
Livello 1
10
140.959616
20
48.082692
70
0
0
VERTEX
8
Livello 1
10
140.105500
20
48.584038
70
0
0
VERTEX
8
Livello 1
10
139.457443
20
49.255643
70
0
0
VERTEX
8
Livello 1
10
139.006109
20
50.109578
70
0
0
VERTEX
8
Livello 1
10
138.742156
20
51.157916
70
0
0
VERTEX
8
Livello 1
10
138.656248
20
52.412727
70
0
0
VERTEX
8
Livello 1
10
138.656248
20
71.737145
70
0
0
VERTEX
8
Livello 1
10
167.874297
20
71.737145
70
0
0
VERTEX
8
Livello 1
10
167.874297
20
84.551417
70
0
0
VERTEX
8
Livello 1
10
138.656248
20
84.551417
70
0
0
VERTEX
8
Livello 1
10
138.656248
20
97.359339
70
0
0
VERTEX
8
Livello 1
10
120.195427
20
97.359339
70
0
0
VERTEX
8
Livello 1
10
120.195427
20
84.548595
70
0
0
VERTEX
8
Livello 1
10
103.929938
20
84.548595
70
0
0
VERTEX
8
Livello 1
10
91.149533
20
48.780535
70
0
0
VERTEX
8
Livello 1
10
90.891653
20
48.780535
70
0
0
VERTEX
8
Livello 1
10
78.217081
20
84.548595
70
0
0
VERTEX
8
Livello 1
10
59.069404
20
84.548595
70
0
0
VERTEX
8
Livello 1
10
46.095677
20
49.389428
70
0
0
VERTEX
8
Livello 1
10
36.151246
20
84.548595
70
0
0
VERTEX
8
Livello 1
10
1.400242
20
84.548595
70
0
0
VERTEX
8
Livello 1
10
1.400242
20
33.304208
70
0
0
VERTEX
8
Livello 1
10
20.567322
20
33.304208
70
0
0
VERTEX
8
Livello 1
10
20.567322
20
67.158806
70
0
0
VERTEX
8
Livello 1
10
23.917998
20
67.158806
70
0
0
VERTEX
8
Livello 1
10
36.134313
20
33.304208
70
0
0
VERTEX
8
Livello 1
10
59.091629
20
33.304208
70
0
0
VERTEX
8
Livello 1
10
68.340383
20
61.971925
70
0
0
VERTEX
8
Livello 1
10
68.531941
20
61.971925
70
0
0
VERTEX
8
Livello 1
10
78.220609
20
33.304208
70
0
0
VERTEX
8
Livello 1
10
103.543295
20
33.304208
70
0
0
VERTEX
8
Livello 1
10
116.710343
20
71.737145
70
0
0
VERTEX
8
Livello 1
10
120.142511
20
71.737145
70
0
0
VERTEX
8
Livello 1
10
120.195427
20
51.839112
70
0
0
VERTEX
8
Livello 1
10
120.285900
20
49.409875
70
0
0
VERTEX
8
Livello 1
10
120.553079
20
47.173074
70
0
0
VERTEX
8
Livello 1
10
120.990603
20
45.123780
70
0
0
VERTEX
8
Livello 1
10
121.592110
20
43.257067
70
0
0
VERTEX
8
Livello 1
10
122.351241
20
41.568006
70
0
0
VERTEX
8
Livello 1
10
123.261633
20
40.051671
70
0
0
VERTEX
8
Livello 1
10
124.316928
20
38.703134
70
0
0
VERTEX
8
Livello 1
10
125.510762
20
37.517468
70
0
0
VERTEX
8
Livello 1
10
126.836777
20
36.489745
70
0
0
VERTEX
8
Livello 1
10
128.288610
20
35.615039
70
0
0
VERTEX
8
Livello 1
10
129.859902
20
34.888421
70
0
0
VERTEX
8
Livello 1
10
131.544291
20
34.304965
70
0
0
VERTEX
8
Livello 1
10
133.335416
20
33.859743
70
0
0
VERTEX
8
Livello 1
10
135.226917
20
33.547827
70
0
0
VERTEX
8
Livello 1
10
139.285602
20
33.304208
70
0
0
VERTEX
8
Livello 1
10
151.449000
20
33.304208
70
0
0
VERTEX
8
Livello 1
10
154.044130
20
33.402986
70
0
0
VERTEX
8
Livello 1
10
156.356276
20
33.691590
70
0
0
VERTEX
8
Livello 1
10
158.401383
20
34.158424
70
0
0
VERTEX
8
Livello 1
10
160.195395
20
34.791891
70
0
0
VERTEX
8
Livello 1
10
161.754257
20
35.580395
70
0
0
VERTEX
8
Livello 1
10
163.093913
20
36.512340
70
0
0
VERTEX
8
Livello 1
10
164.230309
20
37.576130
70
0
0
VERTEX
8
Livello 1
10
165.179390
20
38.760169
70
0
0
VERTEX
8
Livello 1
10
165.957099
20
40.052860
70
0
0
VERTEX
8
Livello 1
10
166.579382
20
41.442608
70
0
0
VERTEX
8
Livello 1
10
167.421447
20
44.466888
70
0
0
VERTEX
8
Livello 1
10
167.833144
20
47.740240
70
0
0
VERTEX
8
Livello 1
10
167.942030
20
51.169894
70
0
0
VERTEX
8
Livello 1
10
167.942030
20
57.096900
70
0
0
VERTEX
8
Livello 1
10
151.449000
20
57.096900
70
0
0
SEQEND
8
Livello 1
 0 
ENDSEC
 0 
EOF