solid CATIA STL
  facet normal  0.000000e+000  0.000000e+000  1.000000e+000
    outer loop
      vertex  5.971919e+000 -1.050287e+000  6.000000e-001
      vertex  5.971919e+000  6.639591e-001  6.000000e-001
      vertex  5.401435e+000 -1.050287e+000  6.000000e-001
    endloop
  endfacet
  facet normal  0.000000e+000  0.000000e+000  1.000000e+000
    outer loop
      vertex  5.401435e+000  1.917957e+000  6.000000e-001
      vertex  5.401435e+000 -1.050287e+000  6.000000e-001
      vertex  5.971919e+000  1.917957e+000  6.000000e-001
    endloop
  endfacet
  facet normal  0.000000e+000  0.000000e+000  1.000000e+000
    outer loop
      vertex  5.971919e+000  1.917957e+000  6.000000e-001
      vertex  5.401435e+000 -1.050287e+000  6.000000e-001
      vertex  5.971919e+000  6.639591e-001  6.000000e-001
    endloop
  endfacet
  facet normal  -0.000000e+000  0.000000e+000  1.000000e+000
    outer loop
      vertex  5.971919e+000  1.917957e+000  6.000000e-001
      vertex  5.971919e+000  6.639591e-001  6.000000e-001
      vertex  6.903083e+000  2.547651e-001  6.000000e-001
    endloop
  endfacet
  facet normal  0.000000e+000  0.000000e+000  1.000000e+000
    outer loop
      vertex  6.903083e+000  2.547651e-001  6.000000e-001
      vertex  5.971919e+000  6.639591e-001  6.000000e-001
      vertex  6.903083e+000 -1.050287e+000  6.000000e-001
    endloop
  endfacet
  facet normal  0.000000e+000  0.000000e+000  9.999999e-001
    outer loop
      vertex  6.903083e+000  2.547651e-001  6.000000e-001
      vertex  6.903083e+000 -1.050287e+000  6.000000e-001
      vertex  7.438007e+000 -1.050287e+000  6.000000e-001
    endloop
  endfacet
  facet normal  0.000000e+000  0.000000e+000  1.000000e+000
    outer loop
      vertex  6.903083e+000  2.547651e-001  6.000000e-001
      vertex  7.438007e+000 -1.050287e+000  6.000000e-001
      vertex  6.903083e+000  1.917957e+000  6.000000e-001
    endloop
  endfacet
  facet normal  -0.000000e+000  0.000000e+000  1.000000e+000
    outer loop
      vertex  6.903083e+000  1.917957e+000  6.000000e-001
      vertex  7.438007e+000 -1.050287e+000  6.000000e-001
      vertex  7.438007e+000  1.917957e+000  6.000000e-001
    endloop
  endfacet
  facet normal  0.000000e+000  -0.000000e+000 -1.000000e+000
    outer loop
      vertex  5.401435e+000 -1.050287e+000  0.000000e+000
      vertex  5.971919e+000  6.639591e-001  0.000000e+000
      vertex  5.971919e+000 -1.050287e+000  0.000000e+000
    endloop
  endfacet
  facet normal  0.000000e+000  0.000000e+000 -9.999999e-001
    outer loop
      vertex  7.438007e+000 -1.050287e+000  0.000000e+000
      vertex  6.903083e+000 -1.050287e+000  0.000000e+000
      vertex  6.903083e+000  2.547651e-001  0.000000e+000
    endloop
  endfacet
  facet normal  -0.000000e+000  -0.000000e+000 -1.000000e+000
    outer loop
      vertex  6.903083e+000  2.547651e-001  0.000000e+000
      vertex  6.903083e+000 -1.050287e+000  0.000000e+000
      vertex  5.971919e+000  6.639591e-001  0.000000e+000
    endloop
  endfacet
  facet normal  0.000000e+000  0.000000e+000 -1.000000e+000
    outer loop
      vertex  6.903083e+000  2.547651e-001  0.000000e+000
      vertex  5.971919e+000  6.639591e-001  0.000000e+000
      vertex  5.971919e+000  1.917957e+000  0.000000e+000
    endloop
  endfacet
  facet normal  0.000000e+000  -0.000000e+000 -1.000000e+000
    outer loop
      vertex  5.971919e+000  1.917957e+000  0.000000e+000
      vertex  5.971919e+000  6.639591e-001  0.000000e+000
      vertex  5.401435e+000 -1.050287e+000  0.000000e+000
    endloop
  endfacet
  facet normal  0.000000e+000  0.000000e+000 -1.000000e+000
    outer loop
      vertex  5.971919e+000  1.917957e+000  0.000000e+000
      vertex  5.401435e+000 -1.050287e+000  0.000000e+000
      vertex  5.401435e+000  1.917957e+000  0.000000e+000
    endloop
  endfacet
  facet normal  0.000000e+000  0.000000e+000 -1.000000e+000
    outer loop
      vertex  6.903083e+000  2.547651e-001  0.000000e+000
      vertex  6.903083e+000  1.917957e+000  0.000000e+000
      vertex  7.438007e+000 -1.050287e+000  0.000000e+000
    endloop
  endfacet
  facet normal  0.000000e+000  0.000000e+000 -1.000000e+000
    outer loop
      vertex  7.438007e+000 -1.050287e+000  0.000000e+000
      vertex  6.903083e+000  1.917957e+000  0.000000e+000
      vertex  7.438007e+000  1.917957e+000  0.000000e+000
    endloop
  endfacet
  facet normal  0.000000e+000 -1.000000e+000  0.000000e+000
    outer loop
      vertex  5.971919e+000 -1.050287e+000  6.000000e-001
      vertex  5.401435e+000 -1.050287e+000  6.000000e-001
      vertex  5.971919e+000 -1.050287e+000  0.000000e+000
    endloop
  endfacet
  facet normal  0.000000e+000 -1.000000e+000  0.000000e+000
    outer loop
      vertex  5.971919e+000 -1.050287e+000  0.000000e+000
      vertex  5.401435e+000 -1.050287e+000  6.000000e-001
      vertex  5.401435e+000 -1.050287e+000  0.000000e+000
    endloop
  endfacet
  facet normal -1.000000e+000  -0.000000e+000  0.000000e+000
    outer loop
      vertex  5.401435e+000 -1.050287e+000  6.000000e-001
      vertex  5.401435e+000  1.917957e+000  6.000000e-001
      vertex  5.401435e+000 -1.050287e+000  0.000000e+000
    endloop
  endfacet
  facet normal -1.000000e+000  0.000000e+000  0.000000e+000
    outer loop
      vertex  5.401435e+000 -1.050287e+000  0.000000e+000
      vertex  5.401435e+000  1.917957e+000  6.000000e-001
      vertex  5.401435e+000  1.917957e+000  0.000000e+000
    endloop
  endfacet
  facet normal  0.000000e+000  1.000000e+000  0.000000e+000
    outer loop
      vertex  5.401435e+000  1.917957e+000  6.000000e-001
      vertex  5.971919e+000  1.917957e+000  6.000000e-001
      vertex  5.401435e+000  1.917957e+000  0.000000e+000
    endloop
  endfacet
  facet normal  0.000000e+000  1.000000e+000  0.000000e+000
    outer loop
      vertex  5.401435e+000  1.917957e+000  0.000000e+000
      vertex  5.971919e+000  1.917957e+000  6.000000e-001
      vertex  5.971919e+000  1.917957e+000  0.000000e+000
    endloop
  endfacet
  facet normal  8.725559e-001  4.885142e-001  0.000000e+000
    outer loop
      vertex  5.971919e+000  1.917957e+000  6.000000e-001
      vertex  6.903083e+000  2.547651e-001  6.000000e-001
      vertex  5.971919e+000  1.917957e+000  0.000000e+000
    endloop
  endfacet
  facet normal  8.725559e-001  4.885142e-001  0.000000e+000
    outer loop
      vertex  5.971919e+000  1.917957e+000  0.000000e+000
      vertex  6.903083e+000  2.547651e-001  6.000000e-001
      vertex  6.903083e+000  2.547651e-001  0.000000e+000
    endloop
  endfacet
  facet normal -1.000000e+000  -0.000000e+000  0.000000e+000
    outer loop
      vertex  6.903083e+000  2.547651e-001  6.000000e-001
      vertex  6.903083e+000  1.917957e+000  6.000000e-001
      vertex  6.903083e+000  2.547651e-001  0.000000e+000
    endloop
  endfacet
  facet normal -1.000000e+000  0.000000e+000  0.000000e+000
    outer loop
      vertex  6.903083e+000  2.547651e-001  0.000000e+000
      vertex  6.903083e+000  1.917957e+000  6.000000e-001
      vertex  6.903083e+000  1.917957e+000  0.000000e+000
    endloop
  endfacet
  facet normal  0.000000e+000  1.000000e+000  0.000000e+000
    outer loop
      vertex  6.903083e+000  1.917957e+000  6.000000e-001
      vertex  7.438007e+000  1.917957e+000  6.000000e-001
      vertex  6.903083e+000  1.917957e+000  0.000000e+000
    endloop
  endfacet
  facet normal  0.000000e+000  1.000000e+000  0.000000e+000
    outer loop
      vertex  6.903083e+000  1.917957e+000  0.000000e+000
      vertex  7.438007e+000  1.917957e+000  6.000000e-001
      vertex  7.438007e+000  1.917957e+000  0.000000e+000
    endloop
  endfacet
  facet normal  1.000000e+000  -0.000000e+000  0.000000e+000
    outer loop
      vertex  7.438007e+000  1.917957e+000  6.000000e-001
      vertex  7.438007e+000 -1.050287e+000  6.000000e-001
      vertex  7.438007e+000  1.917957e+000  0.000000e+000
    endloop
  endfacet
  facet normal  1.000000e+000  0.000000e+000  0.000000e+000
    outer loop
      vertex  7.438007e+000  1.917957e+000  0.000000e+000
      vertex  7.438007e+000 -1.050287e+000  6.000000e-001
      vertex  7.438007e+000 -1.050287e+000  0.000000e+000
    endloop
  endfacet
  facet normal  0.000000e+000 -1.000000e+000  0.000000e+000
    outer loop
      vertex  7.438007e+000 -1.050287e+000  6.000000e-001
      vertex  6.903083e+000 -1.050287e+000  6.000000e-001
      vertex  7.438007e+000 -1.050287e+000  0.000000e+000
    endloop
  endfacet
  facet normal  0.000000e+000 -1.000000e+000  0.000000e+000
    outer loop
      vertex  7.438007e+000 -1.050287e+000  0.000000e+000
      vertex  6.903083e+000 -1.050287e+000  6.000000e-001
      vertex  6.903083e+000 -1.050287e+000  0.000000e+000
    endloop
  endfacet
  facet normal -8.787301e-001 -4.773189e-001  0.000000e+000
    outer loop
      vertex  6.903083e+000 -1.050287e+000  6.000000e-001
      vertex  5.971919e+000  6.639591e-001  6.000000e-001
      vertex  6.903083e+000 -1.050287e+000  0.000000e+000
    endloop
  endfacet
  facet normal -8.787301e-001 -4.773189e-001  0.000000e+000
    outer loop
      vertex  6.903083e+000 -1.050287e+000  0.000000e+000
      vertex  5.971919e+000  6.639591e-001  6.000000e-001
      vertex  5.971919e+000  6.639591e-001  0.000000e+000
    endloop
  endfacet
  facet normal  1.000000e+000  -0.000000e+000  0.000000e+000
    outer loop
      vertex  5.971919e+000  6.639591e-001  6.000000e-001
      vertex  5.971919e+000 -1.050287e+000  6.000000e-001
      vertex  5.971919e+000  6.639591e-001  0.000000e+000
    endloop
  endfacet
  facet normal  1.000000e+000  0.000000e+000  0.000000e+000
    outer loop
      vertex  5.971919e+000  6.639591e-001  0.000000e+000
      vertex  5.971919e+000 -1.050287e+000  6.000000e-001
      vertex  5.971919e+000 -1.050287e+000  0.000000e+000
    endloop
  endfacet
  facet normal  0.000000e+000  0.000000e+000  1.000000e+000
    outer loop
      vertex  4.987923e+000 -1.050287e+000  6.000000e-001
      vertex  4.451729e+000 -5.417789e-001  6.000000e-001
      vertex  2.949573e+000 -1.050287e+000  6.000000e-001
    endloop
  endfacet
  facet normal  0.000000e+000  0.000000e+000  1.000000e+000
    outer loop
      vertex  2.949573e+000 -1.050287e+000  6.000000e-001
      vertex  4.451729e+000 -5.417789e-001  6.000000e-001
      vertex  3.519041e+000 -5.417789e-001  6.000000e-001
    endloop
  endfacet
  facet normal  0.000000e+000  0.000000e+000  1.000000e+000
    outer loop
      vertex  2.949573e+000 -1.050287e+000  6.000000e-001
      vertex  3.519041e+000 -5.417789e-001  6.000000e-001
      vertex  2.949573e+000  1.917957e+000  6.000000e-001
    endloop
  endfacet
  facet normal  0.000000e+000  0.000000e+000  1.000000e+000
    outer loop
      vertex  2.949573e+000  1.917957e+000  6.000000e-001
      vertex  3.519041e+000 -5.417789e-001  6.000000e-001
      vertex  3.519041e+000  1.409449e+000  6.000000e-001
    endloop
  endfacet
  facet normal  0.000000e+000  -0.000000e+000  1.000000e+000
    outer loop
      vertex  2.949573e+000  1.917957e+000  6.000000e-001
      vertex  3.519041e+000  1.409449e+000  6.000000e-001
      vertex  4.987923e+000  1.917957e+000  6.000000e-001
    endloop
  endfacet
  facet normal  0.000000e+000  0.000000e+000  1.000000e+000
    outer loop
      vertex  4.987923e+000  1.917957e+000  6.000000e-001
      vertex  3.519041e+000  1.409449e+000  6.000000e-001
      vertex  4.451729e+000  1.409449e+000  6.000000e-001
    endloop
  endfacet
  facet normal  -0.000000e+000  0.000000e+000  9.999999e-001
    outer loop
      vertex  4.987923e+000  1.917957e+000  6.000000e-001
      vertex  4.451729e+000  1.409449e+000  6.000000e-001
      vertex  4.987923e+000 -1.050287e+000  6.000000e-001
    endloop
  endfacet
  facet normal  0.000000e+000  0.000000e+000  1.000000e+000
    outer loop
      vertex  4.987923e+000 -1.050287e+000  6.000000e-001
      vertex  4.451729e+000  1.409449e+000  6.000000e-001
      vertex  4.451729e+000 -5.417789e-001  6.000000e-001
    endloop
  endfacet
  facet normal  -0.000000e+000  0.000000e+000 -1.000000e+000
    outer loop
      vertex  2.949573e+000  1.917957e+000  0.000000e+000
      vertex  3.519041e+000 -5.417789e-001  0.000000e+000
      vertex  2.949573e+000 -1.050287e+000  0.000000e+000
    endloop
  endfacet
  facet normal  0.000000e+000  0.000000e+000 -1.000000e+000
    outer loop
      vertex  2.949573e+000 -1.050287e+000  0.000000e+000
      vertex  3.519041e+000 -5.417789e-001  0.000000e+000
      vertex  4.451729e+000 -5.417789e-001  0.000000e+000
    endloop
  endfacet
  facet normal  0.000000e+000  -0.000000e+000 -1.000000e+000
    outer loop
      vertex  2.949573e+000 -1.050287e+000  0.000000e+000
      vertex  4.451729e+000 -5.417789e-001  0.000000e+000
      vertex  4.987923e+000 -1.050287e+000  0.000000e+000
    endloop
  endfacet
  facet normal  0.000000e+000  0.000000e+000 -1.000000e+000
    outer loop
      vertex  3.519041e+000 -5.417789e-001  0.000000e+000
      vertex  2.949573e+000  1.917957e+000  0.000000e+000
      vertex  3.519041e+000  1.409449e+000  0.000000e+000
    endloop
  endfacet
  facet normal  0.000000e+000  0.000000e+000 -1.000000e+000
    outer loop
      vertex  3.519041e+000  1.409449e+000  0.000000e+000
      vertex  2.949573e+000  1.917957e+000  0.000000e+000
      vertex  4.987923e+000  1.917957e+000  0.000000e+000
    endloop
  endfacet
  facet normal  0.000000e+000  0.000000e+000 -1.000000e+000
    outer loop
      vertex  3.519041e+000  1.409449e+000  0.000000e+000
      vertex  4.987923e+000  1.917957e+000  0.000000e+000
      vertex  4.451729e+000  1.409449e+000  0.000000e+000
    endloop
  endfacet
  facet normal  0.000000e+000  0.000000e+000 -9.999999e-001
    outer loop
      vertex  4.451729e+000  1.409449e+000  0.000000e+000
      vertex  4.987923e+000  1.917957e+000  0.000000e+000
      vertex  4.987923e+000 -1.050287e+000  0.000000e+000
    endloop
  endfacet
  facet normal  0.000000e+000  0.000000e+000 -1.000000e+000
    outer loop
      vertex  4.451729e+000  1.409449e+000  0.000000e+000
      vertex  4.987923e+000 -1.050287e+000  0.000000e+000
      vertex  4.451729e+000 -5.417789e-001  0.000000e+000
    endloop
  endfacet
  facet normal  0.000000e+000 -1.000000e+000  0.000000e+000
    outer loop
      vertex  4.451729e+000  1.409449e+000  6.000000e-001
      vertex  3.519041e+000  1.409449e+000  6.000000e-001
      vertex  4.451729e+000  1.409449e+000  0.000000e+000
    endloop
  endfacet
  facet normal  0.000000e+000 -1.000000e+000  0.000000e+000
    outer loop
      vertex  4.451729e+000  1.409449e+000  0.000000e+000
      vertex  3.519041e+000  1.409449e+000  6.000000e-001
      vertex  3.519041e+000  1.409449e+000  0.000000e+000
    endloop
  endfacet
  facet normal  9.999999e-001  -0.000000e+000  0.000000e+000
    outer loop
      vertex  3.519041e+000  1.409449e+000  6.000000e-001
      vertex  3.519041e+000 -5.417789e-001  6.000000e-001
      vertex  3.519041e+000  1.409449e+000  0.000000e+000
    endloop
  endfacet
  facet normal  9.999999e-001  0.000000e+000  0.000000e+000
    outer loop
      vertex  3.519041e+000  1.409449e+000  0.000000e+000
      vertex  3.519041e+000 -5.417789e-001  6.000000e-001
      vertex  3.519041e+000 -5.417789e-001  0.000000e+000
    endloop
  endfacet
  facet normal  0.000000e+000  1.000000e+000  0.000000e+000
    outer loop
      vertex  3.519041e+000 -5.417789e-001  6.000000e-001
      vertex  4.451729e+000 -5.417789e-001  6.000000e-001
      vertex  3.519041e+000 -5.417789e-001  0.000000e+000
    endloop
  endfacet
  facet normal  0.000000e+000  1.000000e+000  0.000000e+000
    outer loop
      vertex  3.519041e+000 -5.417789e-001  0.000000e+000
      vertex  4.451729e+000 -5.417789e-001  6.000000e-001
      vertex  4.451729e+000 -5.417789e-001  0.000000e+000
    endloop
  endfacet
  facet normal -9.999999e-001  -0.000000e+000  0.000000e+000
    outer loop
      vertex  4.451729e+000 -5.417789e-001  6.000000e-001
      vertex  4.451729e+000  1.409449e+000  6.000000e-001
      vertex  4.451729e+000 -5.417789e-001  0.000000e+000
    endloop
  endfacet
  facet normal -9.999999e-001  0.000000e+000  0.000000e+000
    outer loop
      vertex  4.451729e+000 -5.417789e-001  0.000000e+000
      vertex  4.451729e+000  1.409449e+000  6.000000e-001
      vertex  4.451729e+000  1.409449e+000  0.000000e+000
    endloop
  endfacet
  facet normal  0.000000e+000 -1.000000e+000  0.000000e+000
    outer loop
      vertex  4.987923e+000 -1.050287e+000  6.000000e-001
      vertex  2.949573e+000 -1.050287e+000  6.000000e-001
      vertex  4.987923e+000 -1.050287e+000  0.000000e+000
    endloop
  endfacet
  facet normal  0.000000e+000 -1.000000e+000  0.000000e+000
    outer loop
      vertex  4.987923e+000 -1.050287e+000  0.000000e+000
      vertex  2.949573e+000 -1.050287e+000  6.000000e-001
      vertex  2.949573e+000 -1.050287e+000  0.000000e+000
    endloop
  endfacet
  facet normal -1.000000e+000  -0.000000e+000  0.000000e+000
    outer loop
      vertex  2.949573e+000 -1.050287e+000  6.000000e-001
      vertex  2.949573e+000  1.917957e+000  6.000000e-001
      vertex  2.949573e+000 -1.050287e+000  0.000000e+000
    endloop
  endfacet
  facet normal -1.000000e+000  0.000000e+000  0.000000e+000
    outer loop
      vertex  2.949573e+000 -1.050287e+000  0.000000e+000
      vertex  2.949573e+000  1.917957e+000  6.000000e-001
      vertex  2.949573e+000  1.917957e+000  0.000000e+000
    endloop
  endfacet
  facet normal  0.000000e+000  1.000000e+000  0.000000e+000
    outer loop
      vertex  2.949573e+000  1.917957e+000  6.000000e-001
      vertex  4.987923e+000  1.917957e+000  6.000000e-001
      vertex  2.949573e+000  1.917957e+000  0.000000e+000
    endloop
  endfacet
  facet normal  0.000000e+000  1.000000e+000  0.000000e+000
    outer loop
      vertex  2.949573e+000  1.917957e+000  0.000000e+000
      vertex  4.987923e+000  1.917957e+000  6.000000e-001
      vertex  4.987923e+000  1.917957e+000  0.000000e+000
    endloop
  endfacet
  facet normal  1.000000e+000  -0.000000e+000  0.000000e+000
    outer loop
      vertex  4.987923e+000  1.917957e+000  6.000000e-001
      vertex  4.987923e+000 -1.050287e+000  6.000000e-001
      vertex  4.987923e+000  1.917957e+000  0.000000e+000
    endloop
  endfacet
  facet normal  1.000000e+000  0.000000e+000  0.000000e+000
    outer loop
      vertex  4.987923e+000  1.917957e+000  0.000000e+000
      vertex  4.987923e+000 -1.050287e+000  6.000000e-001
      vertex  4.987923e+000 -1.050287e+000  0.000000e+000
    endloop
  endfacet
  facet normal  0.000000e+000  0.000000e+000  1.000000e+000
    outer loop
      vertex  1.068449e+000  6.764051e-001  6.000000e-001
      vertex  1.068449e+000  1.917957e+000  6.000000e-001
      vertex  4.982192e-001  1.917957e+000  6.000000e-001
    endloop
  endfacet
  facet normal  0.000000e+000  0.000000e+000  1.000000e+000
    outer loop
      vertex  1.068449e+000  6.764051e-001  6.000000e-001
      vertex  4.982192e-001  1.917957e+000  6.000000e-001
      vertex  1.068449e+000  1.925351e-001  6.000000e-001
    endloop
  endfacet
  facet normal  0.000000e+000  0.000000e+000  1.000000e+000
    outer loop
      vertex  1.068449e+000  6.764051e-001  6.000000e-001
      vertex  1.068449e+000  1.925351e-001  6.000000e-001
      vertex  2.000121e+000  1.925351e-001  6.000000e-001
    endloop
  endfacet
  facet normal  0.000000e+000  -0.000000e+000  1.000000e+000
    outer loop
      vertex  1.068449e+000  6.764051e-001  6.000000e-001
      vertex  2.000121e+000  1.925351e-001  6.000000e-001
      vertex  2.000121e+000  6.764051e-001  6.000000e-001
    endloop
  endfacet
  facet normal  -0.000000e+000  0.000000e+000  1.000000e+000
    outer loop
      vertex  2.535045e+000  1.917957e+000  6.000000e-001
      vertex  2.000121e+000  1.917957e+000  6.000000e-001
      vertex  2.000121e+000  6.764051e-001  6.000000e-001
    endloop
  endfacet
  facet normal  -0.000000e+000  0.000000e+000  1.000000e+000
    outer loop
      vertex  2.535045e+000  1.917957e+000  6.000000e-001
      vertex  2.000121e+000  6.764051e-001  6.000000e-001
      vertex  2.000121e+000  1.925351e-001  6.000000e-001
    endloop
  endfacet
  facet normal  -0.000000e+000  0.000000e+000  9.999999e-001
    outer loop
      vertex  2.535045e+000  1.917957e+000  6.000000e-001
      vertex  2.000121e+000  1.925351e-001  6.000000e-001
      vertex  2.000121e+000 -1.050287e+000  6.000000e-001
    endloop
  endfacet
  facet normal  0.000000e+000  0.000000e+000  1.000000e+000
    outer loop
      vertex  2.535045e+000  1.917957e+000  6.000000e-001
      vertex  2.000121e+000 -1.050287e+000  6.000000e-001
      vertex  2.535045e+000 -1.050287e+000  6.000000e-001
    endloop
  endfacet
  facet normal  0.000000e+000  0.000000e+000  1.000000e+000
    outer loop
      vertex  4.982192e-001 -1.050287e+000  6.000000e-001
      vertex  1.068449e+000 -1.050287e+000  6.000000e-001
      vertex  4.982192e-001  1.917957e+000  6.000000e-001
    endloop
  endfacet
  facet normal  0.000000e+000  0.000000e+000  1.000000e+000
    outer loop
      vertex  4.982192e-001  1.917957e+000  6.000000e-001
      vertex  1.068449e+000 -1.050287e+000  6.000000e-001
      vertex  1.068449e+000  1.925351e-001  6.000000e-001
    endloop
  endfacet
  facet normal  -0.000000e+000  -0.000000e+000 -1.000000e+000
    outer loop
      vertex  1.068449e+000  6.764051e-001  0.000000e+000
      vertex  2.000121e+000  6.764051e-001  0.000000e+000
      vertex  2.000121e+000  1.925351e-001  0.000000e+000
    endloop
  endfacet
  facet normal  0.000000e+000  0.000000e+000 -1.000000e+000
    outer loop
      vertex  1.068449e+000  6.764051e-001  0.000000e+000
      vertex  2.000121e+000  1.925351e-001  0.000000e+000
      vertex  1.068449e+000  1.925351e-001  0.000000e+000
    endloop
  endfacet
  facet normal  0.000000e+000  0.000000e+000 -1.000000e+000
    outer loop
      vertex  1.068449e+000  6.764051e-001  0.000000e+000
      vertex  1.068449e+000  1.925351e-001  0.000000e+000
      vertex  4.982192e-001  1.917957e+000  0.000000e+000
    endloop
  endfacet
  facet normal  0.000000e+000  0.000000e+000 -1.000000e+000
    outer loop
      vertex  1.068449e+000  6.764051e-001  0.000000e+000
      vertex  4.982192e-001  1.917957e+000  0.000000e+000
      vertex  1.068449e+000  1.917957e+000  0.000000e+000
    endloop
  endfacet
  facet normal  0.000000e+000  0.000000e+000 -1.000000e+000
    outer loop
      vertex  2.535045e+000  1.917957e+000  0.000000e+000
      vertex  2.535045e+000 -1.050287e+000  0.000000e+000
      vertex  2.000121e+000 -1.050287e+000  0.000000e+000
    endloop
  endfacet
  facet normal  0.000000e+000  0.000000e+000 -9.999999e-001
    outer loop
      vertex  2.535045e+000  1.917957e+000  0.000000e+000
      vertex  2.000121e+000 -1.050287e+000  0.000000e+000
      vertex  2.000121e+000  1.925351e-001  0.000000e+000
    endloop
  endfacet
  facet normal  0.000000e+000  0.000000e+000 -1.000000e+000
    outer loop
      vertex  2.535045e+000  1.917957e+000  0.000000e+000
      vertex  2.000121e+000  1.925351e-001  0.000000e+000
      vertex  2.000121e+000  6.764051e-001  0.000000e+000
    endloop
  endfacet
  facet normal  0.000000e+000  0.000000e+000 -1.000000e+000
    outer loop
      vertex  2.535045e+000  1.917957e+000  0.000000e+000
      vertex  2.000121e+000  6.764051e-001  0.000000e+000
      vertex  2.000121e+000  1.917957e+000  0.000000e+000
    endloop
  endfacet
  facet normal  0.000000e+000  0.000000e+000 -1.000000e+000
    outer loop
      vertex  4.982192e-001 -1.050287e+000  0.000000e+000
      vertex  4.982192e-001  1.917957e+000  0.000000e+000
      vertex  1.068449e+000 -1.050287e+000  0.000000e+000
    endloop
  endfacet
  facet normal  0.000000e+000  0.000000e+000 -1.000000e+000
    outer loop
      vertex  1.068449e+000 -1.050287e+000  0.000000e+000
      vertex  4.982192e-001  1.917957e+000  0.000000e+000
      vertex  1.068449e+000  1.925351e-001  0.000000e+000
    endloop
  endfacet
  facet normal  0.000000e+000 -9.999999e-001  0.000000e+000
    outer loop
      vertex  1.068449e+000 -1.050287e+000  6.000000e-001
      vertex  4.982192e-001 -1.050287e+000  6.000000e-001
      vertex  1.068449e+000 -1.050287e+000  0.000000e+000
    endloop
  endfacet
  facet normal  0.000000e+000 -9.999999e-001  0.000000e+000
    outer loop
      vertex  1.068449e+000 -1.050287e+000  0.000000e+000
      vertex  4.982192e-001 -1.050287e+000  6.000000e-001
      vertex  4.982192e-001 -1.050287e+000  0.000000e+000
    endloop
  endfacet
  facet normal -1.000000e+000  -0.000000e+000  0.000000e+000
    outer loop
      vertex  4.982192e-001 -1.050287e+000  6.000000e-001
      vertex  4.982192e-001  1.917957e+000  6.000000e-001
      vertex  4.982192e-001 -1.050287e+000  0.000000e+000
    endloop
  endfacet
  facet normal -1.000000e+000  0.000000e+000  0.000000e+000
    outer loop
      vertex  4.982192e-001 -1.050287e+000  0.000000e+000
      vertex  4.982192e-001  1.917957e+000  6.000000e-001
      vertex  4.982192e-001  1.917957e+000  0.000000e+000
    endloop
  endfacet
  facet normal  0.000000e+000  9.999999e-001  0.000000e+000
    outer loop
      vertex  4.982192e-001  1.917957e+000  6.000000e-001
      vertex  1.068449e+000  1.917957e+000  6.000000e-001
      vertex  4.982192e-001  1.917957e+000  0.000000e+000
    endloop
  endfacet
  facet normal  0.000000e+000  9.999999e-001  0.000000e+000
    outer loop
      vertex  4.982192e-001  1.917957e+000  0.000000e+000
      vertex  1.068449e+000  1.917957e+000  6.000000e-001
      vertex  1.068449e+000  1.917957e+000  0.000000e+000
    endloop
  endfacet
  facet normal  1.000000e+000  -0.000000e+000  0.000000e+000
    outer loop
      vertex  1.068449e+000  1.917957e+000  6.000000e-001
      vertex  1.068449e+000  6.764051e-001  6.000000e-001
      vertex  1.068449e+000  1.917957e+000  0.000000e+000
    endloop
  endfacet
  facet normal  1.000000e+000  0.000000e+000  0.000000e+000
    outer loop
      vertex  1.068449e+000  1.917957e+000  0.000000e+000
      vertex  1.068449e+000  6.764051e-001  6.000000e-001
      vertex  1.068449e+000  6.764051e-001  0.000000e+000
    endloop
  endfacet
  facet normal  0.000000e+000  1.000000e+000  0.000000e+000
    outer loop
      vertex  1.068449e+000  6.764051e-001  6.000000e-001
      vertex  2.000121e+000  6.764051e-001  6.000000e-001
      vertex  1.068449e+000  6.764051e-001  0.000000e+000
    endloop
  endfacet
  facet normal  0.000000e+000  1.000000e+000  0.000000e+000
    outer loop
      vertex  1.068449e+000  6.764051e-001  0.000000e+000
      vertex  2.000121e+000  6.764051e-001  6.000000e-001
      vertex  2.000121e+000  6.764051e-001  0.000000e+000
    endloop
  endfacet
  facet normal -1.000000e+000  -0.000000e+000  0.000000e+000
    outer loop
      vertex  2.000121e+000  6.764051e-001  6.000000e-001
      vertex  2.000121e+000  1.917957e+000  6.000000e-001
      vertex  2.000121e+000  6.764051e-001  0.000000e+000
    endloop
  endfacet
  facet normal -1.000000e+000  0.000000e+000  0.000000e+000
    outer loop
      vertex  2.000121e+000  6.764051e-001  0.000000e+000
      vertex  2.000121e+000  1.917957e+000  6.000000e-001
      vertex  2.000121e+000  1.917957e+000  0.000000e+000
    endloop
  endfacet
  facet normal  0.000000e+000  1.000000e+000  0.000000e+000
    outer loop
      vertex  2.000121e+000  1.917957e+000  6.000000e-001
      vertex  2.535045e+000  1.917957e+000  6.000000e-001
      vertex  2.000121e+000  1.917957e+000  0.000000e+000
    endloop
  endfacet
  facet normal  0.000000e+000  1.000000e+000  0.000000e+000
    outer loop
      vertex  2.000121e+000  1.917957e+000  0.000000e+000
      vertex  2.535045e+000  1.917957e+000  6.000000e-001
      vertex  2.535045e+000  1.917957e+000  0.000000e+000
    endloop
  endfacet
  facet normal  1.000000e+000  -0.000000e+000  0.000000e+000
    outer loop
      vertex  2.535045e+000  1.917957e+000  6.000000e-001
      vertex  2.535045e+000 -1.050287e+000  6.000000e-001
      vertex  2.535045e+000  1.917957e+000  0.000000e+000
    endloop
  endfacet
  facet normal  1.000000e+000  0.000000e+000  0.000000e+000
    outer loop
      vertex  2.535045e+000  1.917957e+000  0.000000e+000
      vertex  2.535045e+000 -1.050287e+000  6.000000e-001
      vertex  2.535045e+000 -1.050287e+000  0.000000e+000
    endloop
  endfacet
  facet normal  0.000000e+000 -1.000000e+000  0.000000e+000
    outer loop
      vertex  2.535045e+000 -1.050287e+000  6.000000e-001
      vertex  2.000121e+000 -1.050287e+000  6.000000e-001
      vertex  2.535045e+000 -1.050287e+000  0.000000e+000
    endloop
  endfacet
  facet normal  0.000000e+000 -1.000000e+000  0.000000e+000
    outer loop
      vertex  2.535045e+000 -1.050287e+000  0.000000e+000
      vertex  2.000121e+000 -1.050287e+000  6.000000e-001
      vertex  2.000121e+000 -1.050287e+000  0.000000e+000
    endloop
  endfacet
  facet normal -1.000000e+000  -0.000000e+000  0.000000e+000
    outer loop
      vertex  2.000121e+000 -1.050287e+000  6.000000e-001
      vertex  2.000121e+000  1.925351e-001  6.000000e-001
      vertex  2.000121e+000 -1.050287e+000  0.000000e+000
    endloop
  endfacet
  facet normal -1.000000e+000  0.000000e+000  0.000000e+000
    outer loop
      vertex  2.000121e+000 -1.050287e+000  0.000000e+000
      vertex  2.000121e+000  1.925351e-001  6.000000e-001
      vertex  2.000121e+000  1.925351e-001  0.000000e+000
    endloop
  endfacet
  facet normal  0.000000e+000 -1.000000e+000  0.000000e+000
    outer loop
      vertex  2.000121e+000  1.925351e-001  6.000000e-001
      vertex  1.068449e+000  1.925351e-001  6.000000e-001
      vertex  2.000121e+000  1.925351e-001  0.000000e+000
    endloop
  endfacet
  facet normal  0.000000e+000 -1.000000e+000  0.000000e+000
    outer loop
      vertex  2.000121e+000  1.925351e-001  0.000000e+000
      vertex  1.068449e+000  1.925351e-001  6.000000e-001
      vertex  1.068449e+000  1.925351e-001  0.000000e+000
    endloop
  endfacet
  facet normal  1.000000e+000  -0.000000e+000  0.000000e+000
    outer loop
      vertex  1.068449e+000  1.925351e-001  6.000000e-001
      vertex  1.068449e+000 -1.050287e+000  6.000000e-001
      vertex  1.068449e+000  1.925351e-001  0.000000e+000
    endloop
  endfacet
  facet normal  1.000000e+000  0.000000e+000  0.000000e+000
    outer loop
      vertex  1.068449e+000  1.925351e-001  0.000000e+000
      vertex  1.068449e+000 -1.050287e+000  6.000000e-001
      vertex  1.068449e+000 -1.050287e+000  0.000000e+000
    endloop
  endfacet
  facet normal  0.000000e+000  0.000000e+000  1.000000e+000
    outer loop
      vertex  8.318318e-002 -1.050287e+000  6.000000e-001
      vertex  8.318318e-002 -5.417789e-001  6.000000e-001
      vertex -1.954659e+000 -1.050287e+000  6.000000e-001
    endloop
  endfacet
  facet normal  0.000000e+000  0.000000e+000  1.000000e+000
    outer loop
      vertex -1.954659e+000 -1.050287e+000  6.000000e-001
      vertex  8.318318e-002 -5.417789e-001  6.000000e-001
      vertex -1.384429e+000 -5.417789e-001  6.000000e-001
    endloop
  endfacet
  facet normal  0.000000e+000  0.000000e+000  9.999999e-001
    outer loop
      vertex -1.954659e+000 -1.050287e+000  6.000000e-001
      vertex -1.384429e+000 -5.417789e-001  6.000000e-001
      vertex -1.954659e+000  1.917957e+000  6.000000e-001
    endloop
  endfacet
  facet normal  0.000000e+000  0.000000e+000  1.000000e+000
    outer loop
      vertex -1.954659e+000  1.917957e+000  6.000000e-001
      vertex -1.384429e+000 -5.417789e-001  6.000000e-001
      vertex -1.384429e+000  1.409449e+000  6.000000e-001
    endloop
  endfacet
  facet normal  0.000000e+000  -0.000000e+000  1.000000e+000
    outer loop
      vertex -1.954659e+000  1.917957e+000  6.000000e-001
      vertex -1.384429e+000  1.409449e+000  6.000000e-001
      vertex  8.318318e-002  1.917957e+000  6.000000e-001
    endloop
  endfacet
  facet normal  0.000000e+000  0.000000e+000  1.000000e+000
    outer loop
      vertex  8.318318e-002  1.917957e+000  6.000000e-001
      vertex -1.384429e+000  1.409449e+000  6.000000e-001
      vertex  8.318318e-002  1.409449e+000  6.000000e-001
    endloop
  endfacet
  facet normal  0.000000e+000  -0.000000e+000 -1.000000e+000
    outer loop
      vertex -1.954659e+000 -1.050287e+000  0.000000e+000
      vertex  8.318318e-002 -5.417789e-001  0.000000e+000
      vertex  8.318318e-002 -1.050287e+000  0.000000e+000
    endloop
  endfacet
  facet normal  0.000000e+000  0.000000e+000 -1.000000e+000
    outer loop
      vertex  8.318318e-002 -5.417789e-001  0.000000e+000
      vertex -1.954659e+000 -1.050287e+000  0.000000e+000
      vertex -1.384429e+000 -5.417789e-001  0.000000e+000
    endloop
  endfacet
  facet normal  -0.000000e+000  0.000000e+000 -9.999999e-001
    outer loop
      vertex -1.384429e+000 -5.417789e-001  0.000000e+000
      vertex -1.954659e+000 -1.050287e+000  0.000000e+000
      vertex -1.954659e+000  1.917957e+000  0.000000e+000
    endloop
  endfacet
  facet normal  0.000000e+000  0.000000e+000 -1.000000e+000
    outer loop
      vertex -1.384429e+000 -5.417789e-001  0.000000e+000
      vertex -1.954659e+000  1.917957e+000  0.000000e+000
      vertex -1.384429e+000  1.409449e+000  0.000000e+000
    endloop
  endfacet
  facet normal  0.000000e+000  0.000000e+000 -1.000000e+000
    outer loop
      vertex -1.384429e+000  1.409449e+000  0.000000e+000
      vertex -1.954659e+000  1.917957e+000  0.000000e+000
      vertex  8.318318e-002  1.917957e+000  0.000000e+000
    endloop
  endfacet
  facet normal  0.000000e+000  -0.000000e+000 -1.000000e+000
    outer loop
      vertex -1.384429e+000  1.409449e+000  0.000000e+000
      vertex  8.318318e-002  1.917957e+000  0.000000e+000
      vertex  8.318318e-002  1.409449e+000  0.000000e+000
    endloop
  endfacet
  facet normal  0.000000e+000  9.999999e-001  0.000000e+000
    outer loop
      vertex -1.384429e+000 -5.417789e-001  6.000000e-001
      vertex  8.318318e-002 -5.417789e-001  6.000000e-001
      vertex -1.384429e+000 -5.417789e-001  0.000000e+000
    endloop
  endfacet
  facet normal  0.000000e+000  9.999999e-001  0.000000e+000
    outer loop
      vertex -1.384429e+000 -5.417789e-001  0.000000e+000
      vertex  8.318318e-002 -5.417789e-001  6.000000e-001
      vertex  8.318318e-002 -5.417789e-001  0.000000e+000
    endloop
  endfacet
  facet normal  1.000000e+000  -0.000000e+000  0.000000e+000
    outer loop
      vertex  8.318318e-002 -5.417789e-001  6.000000e-001
      vertex  8.318318e-002 -1.050287e+000  6.000000e-001
      vertex  8.318318e-002 -5.417789e-001  0.000000e+000
    endloop
  endfacet
  facet normal  1.000000e+000  0.000000e+000  0.000000e+000
    outer loop
      vertex  8.318318e-002 -5.417789e-001  0.000000e+000
      vertex  8.318318e-002 -1.050287e+000  6.000000e-001
      vertex  8.318318e-002 -1.050287e+000  0.000000e+000
    endloop
  endfacet
  facet normal  0.000000e+000 -1.000000e+000  0.000000e+000
    outer loop
      vertex  8.318318e-002 -1.050287e+000  6.000000e-001
      vertex -1.954659e+000 -1.050287e+000  6.000000e-001
      vertex  8.318318e-002 -1.050287e+000  0.000000e+000
    endloop
  endfacet
  facet normal  0.000000e+000 -1.000000e+000  0.000000e+000
    outer loop
      vertex  8.318318e-002 -1.050287e+000  0.000000e+000
      vertex -1.954659e+000 -1.050287e+000  6.000000e-001
      vertex -1.954659e+000 -1.050287e+000  0.000000e+000
    endloop
  endfacet
  facet normal -1.000000e+000  -0.000000e+000  0.000000e+000
    outer loop
      vertex -1.954659e+000 -1.050287e+000  6.000000e-001
      vertex -1.954659e+000  1.917957e+000  6.000000e-001
      vertex -1.954659e+000 -1.050287e+000  0.000000e+000
    endloop
  endfacet
  facet normal -1.000000e+000  0.000000e+000  0.000000e+000
    outer loop
      vertex -1.954659e+000 -1.050287e+000  0.000000e+000
      vertex -1.954659e+000  1.917957e+000  6.000000e-001
      vertex -1.954659e+000  1.917957e+000  0.000000e+000
    endloop
  endfacet
  facet normal  0.000000e+000  1.000000e+000  0.000000e+000
    outer loop
      vertex -1.954659e+000  1.917957e+000  6.000000e-001
      vertex  8.318318e-002  1.917957e+000  6.000000e-001
      vertex -1.954659e+000  1.917957e+000  0.000000e+000
    endloop
  endfacet
  facet normal  0.000000e+000  1.000000e+000  0.000000e+000
    outer loop
      vertex -1.954659e+000  1.917957e+000  0.000000e+000
      vertex  8.318318e-002  1.917957e+000  6.000000e-001
      vertex  8.318318e-002  1.917957e+000  0.000000e+000
    endloop
  endfacet
  facet normal  9.999999e-001  -0.000000e+000  0.000000e+000
    outer loop
      vertex  8.318318e-002  1.917957e+000  6.000000e-001
      vertex  8.318318e-002  1.409449e+000  6.000000e-001
      vertex  8.318318e-002  1.917957e+000  0.000000e+000
    endloop
  endfacet
  facet normal  9.999999e-001  0.000000e+000  0.000000e+000
    outer loop
      vertex  8.318318e-002  1.917957e+000  0.000000e+000
      vertex  8.318318e-002  1.409449e+000  6.000000e-001
      vertex  8.318318e-002  1.409449e+000  0.000000e+000
    endloop
  endfacet
  facet normal  0.000000e+000 -9.999999e-001  0.000000e+000
    outer loop
      vertex  8.318318e-002  1.409449e+000  6.000000e-001
      vertex -1.384429e+000  1.409449e+000  6.000000e-001
      vertex  8.318318e-002  1.409449e+000  0.000000e+000
    endloop
  endfacet
  facet normal  0.000000e+000 -9.999999e-001  0.000000e+000
    outer loop
      vertex  8.318318e-002  1.409449e+000  0.000000e+000
      vertex -1.384429e+000  1.409449e+000  6.000000e-001
      vertex -1.384429e+000  1.409449e+000  0.000000e+000
    endloop
  endfacet
  facet normal  9.999999e-001  -0.000000e+000  0.000000e+000
    outer loop
      vertex -1.384429e+000  1.409449e+000  6.000000e-001
      vertex -1.384429e+000 -5.417789e-001  6.000000e-001
      vertex -1.384429e+000  1.409449e+000  0.000000e+000
    endloop
  endfacet
  facet normal  9.999999e-001  0.000000e+000  0.000000e+000
    outer loop
      vertex -1.384429e+000  1.409449e+000  0.000000e+000
      vertex -1.384429e+000 -5.417789e-001  6.000000e-001
      vertex -1.384429e+000 -5.417789e-001  0.000000e+000
    endloop
  endfacet
  facet normal  -0.000000e+000  0.000000e+000  1.000000e+000
    outer loop
      vertex -2.368171e+000  1.917957e+000  6.000000e-001
      vertex -2.902587e+000  1.917957e+000  6.000000e-001
      vertex -2.368171e+000 -1.050287e+000  6.000000e-001
    endloop
  endfacet
  facet normal  0.000000e+000  0.000000e+000  1.000000e+000
    outer loop
      vertex -2.368171e+000 -1.050287e+000  6.000000e-001
      vertex -2.902587e+000  1.917957e+000  6.000000e-001
      vertex -2.902587e+000 -5.417789e-001  6.000000e-001
    endloop
  endfacet
  facet normal  0.000000e+000  0.000000e+000  1.000000e+000
    outer loop
      vertex -2.368171e+000 -1.050287e+000  6.000000e-001
      vertex -2.902587e+000 -5.417789e-001  6.000000e-001
      vertex -4.406267e+000 -1.050287e+000  6.000000e-001
    endloop
  endfacet
  facet normal  0.000000e+000  0.000000e+000  1.000000e+000
    outer loop
      vertex -4.406267e+000 -1.050287e+000  6.000000e-001
      vertex -2.902587e+000 -5.417789e-001  6.000000e-001
      vertex -3.835783e+000 -5.417789e-001  6.000000e-001
    endloop
  endfacet
  facet normal  0.000000e+000  0.000000e+000  1.000000e+000
    outer loop
      vertex -4.406267e+000 -1.050287e+000  6.000000e-001
      vertex -3.835783e+000 -5.417789e-001  6.000000e-001
      vertex -4.406267e+000  1.917957e+000  6.000000e-001
    endloop
  endfacet
  facet normal  -0.000000e+000  0.000000e+000  1.000000e+000
    outer loop
      vertex -4.406267e+000  1.917957e+000  6.000000e-001
      vertex -3.835783e+000 -5.417789e-001  6.000000e-001
      vertex -3.835783e+000  1.917957e+000  6.000000e-001
    endloop
  endfacet
  facet normal  0.000000e+000  0.000000e+000 -1.000000e+000
    outer loop
      vertex -2.368171e+000 -1.050287e+000  0.000000e+000
      vertex -2.902587e+000  1.917957e+000  0.000000e+000
      vertex -2.368171e+000  1.917957e+000  0.000000e+000
    endloop
  endfacet
  facet normal  0.000000e+000  0.000000e+000 -1.000000e+000
    outer loop
      vertex -2.902587e+000  1.917957e+000  0.000000e+000
      vertex -2.368171e+000 -1.050287e+000  0.000000e+000
      vertex -2.902587e+000 -5.417789e-001  0.000000e+000
    endloop
  endfacet
  facet normal  0.000000e+000  -0.000000e+000 -1.000000e+000
    outer loop
      vertex -2.902587e+000 -5.417789e-001  0.000000e+000
      vertex -2.368171e+000 -1.050287e+000  0.000000e+000
      vertex -4.406267e+000 -1.050287e+000  0.000000e+000
    endloop
  endfacet
  facet normal  0.000000e+000  0.000000e+000 -1.000000e+000
    outer loop
      vertex -2.902587e+000 -5.417789e-001  0.000000e+000
      vertex -4.406267e+000 -1.050287e+000  0.000000e+000
      vertex -3.835783e+000 -5.417789e-001  0.000000e+000
    endloop
  endfacet
  facet normal  -0.000000e+000  0.000000e+000 -1.000000e+000
    outer loop
      vertex -3.835783e+000 -5.417789e-001  0.000000e+000
      vertex -4.406267e+000 -1.050287e+000  0.000000e+000
      vertex -4.406267e+000  1.917957e+000  0.000000e+000
    endloop
  endfacet
  facet normal  0.000000e+000  0.000000e+000 -1.000000e+000
    outer loop
      vertex -3.835783e+000 -5.417789e-001  0.000000e+000
      vertex -4.406267e+000  1.917957e+000  0.000000e+000
      vertex -3.835783e+000  1.917957e+000  0.000000e+000
    endloop
  endfacet
  facet normal  0.000000e+000  1.000000e+000  0.000000e+000
    outer loop
      vertex -2.902587e+000  1.917957e+000  6.000000e-001
      vertex -2.368171e+000  1.917957e+000  6.000000e-001
      vertex -2.902587e+000  1.917957e+000  0.000000e+000
    endloop
  endfacet
  facet normal  0.000000e+000  1.000000e+000  0.000000e+000
    outer loop
      vertex -2.902587e+000  1.917957e+000  0.000000e+000
      vertex -2.368171e+000  1.917957e+000  6.000000e-001
      vertex -2.368171e+000  1.917957e+000  0.000000e+000
    endloop
  endfacet
  facet normal  1.000000e+000  -0.000000e+000  0.000000e+000
    outer loop
      vertex -2.368171e+000  1.917957e+000  6.000000e-001
      vertex -2.368171e+000 -1.050287e+000  6.000000e-001
      vertex -2.368171e+000  1.917957e+000  0.000000e+000
    endloop
  endfacet
  facet normal  1.000000e+000  0.000000e+000  0.000000e+000
    outer loop
      vertex -2.368171e+000  1.917957e+000  0.000000e+000
      vertex -2.368171e+000 -1.050287e+000  6.000000e-001
      vertex -2.368171e+000 -1.050287e+000  0.000000e+000
    endloop
  endfacet
  facet normal  0.000000e+000 -1.000000e+000  0.000000e+000
    outer loop
      vertex -2.368171e+000 -1.050287e+000  6.000000e-001
      vertex -4.406267e+000 -1.050287e+000  6.000000e-001
      vertex -2.368171e+000 -1.050287e+000  0.000000e+000
    endloop
  endfacet
  facet normal  0.000000e+000 -1.000000e+000  0.000000e+000
    outer loop
      vertex -2.368171e+000 -1.050287e+000  0.000000e+000
      vertex -4.406267e+000 -1.050287e+000  6.000000e-001
      vertex -4.406267e+000 -1.050287e+000  0.000000e+000
    endloop
  endfacet
  facet normal -1.000000e+000  -0.000000e+000  0.000000e+000
    outer loop
      vertex -4.406267e+000 -1.050287e+000  6.000000e-001
      vertex -4.406267e+000  1.917957e+000  6.000000e-001
      vertex -4.406267e+000 -1.050287e+000  0.000000e+000
    endloop
  endfacet
  facet normal -1.000000e+000  0.000000e+000  0.000000e+000
    outer loop
      vertex -4.406267e+000 -1.050287e+000  0.000000e+000
      vertex -4.406267e+000  1.917957e+000  6.000000e-001
      vertex -4.406267e+000  1.917957e+000  0.000000e+000
    endloop
  endfacet
  facet normal  0.000000e+000  1.000000e+000  0.000000e+000
    outer loop
      vertex -4.406267e+000  1.917957e+000  6.000000e-001
      vertex -3.835783e+000  1.917957e+000  6.000000e-001
      vertex -4.406267e+000  1.917957e+000  0.000000e+000
    endloop
  endfacet
  facet normal  0.000000e+000  1.000000e+000  0.000000e+000
    outer loop
      vertex -4.406267e+000  1.917957e+000  0.000000e+000
      vertex -3.835783e+000  1.917957e+000  6.000000e-001
      vertex -3.835783e+000  1.917957e+000  0.000000e+000
    endloop
  endfacet
  facet normal  1.000000e+000  -0.000000e+000  0.000000e+000
    outer loop
      vertex -3.835783e+000  1.917957e+000  6.000000e-001
      vertex -3.835783e+000 -5.417789e-001  6.000000e-001
      vertex -3.835783e+000  1.917957e+000  0.000000e+000
    endloop
  endfacet
  facet normal  1.000000e+000  0.000000e+000  0.000000e+000
    outer loop
      vertex -3.835783e+000  1.917957e+000  0.000000e+000
      vertex -3.835783e+000 -5.417789e-001  6.000000e-001
      vertex -3.835783e+000 -5.417789e-001  0.000000e+000
    endloop
  endfacet
  facet normal  0.000000e+000  1.000000e+000  0.000000e+000
    outer loop
      vertex -3.835783e+000 -5.417789e-001  6.000000e-001
      vertex -2.902587e+000 -5.417789e-001  6.000000e-001
      vertex -3.835783e+000 -5.417789e-001  0.000000e+000
    endloop
  endfacet
  facet normal  0.000000e+000  1.000000e+000  0.000000e+000
    outer loop
      vertex -3.835783e+000 -5.417789e-001  0.000000e+000
      vertex -2.902587e+000 -5.417789e-001  6.000000e-001
      vertex -2.902587e+000 -5.417789e-001  0.000000e+000
    endloop
  endfacet
  facet normal -1.000000e+000  -0.000000e+000  0.000000e+000
    outer loop
      vertex -2.902587e+000 -5.417789e-001  6.000000e-001
      vertex -2.902587e+000  1.917957e+000  6.000000e-001
      vertex -2.902587e+000 -5.417789e-001  0.000000e+000
    endloop
  endfacet
  facet normal -1.000000e+000  0.000000e+000  0.000000e+000
    outer loop
      vertex -2.902587e+000 -5.417789e-001  0.000000e+000
      vertex -2.902587e+000  1.917957e+000  6.000000e-001
      vertex -2.902587e+000  1.917957e+000  0.000000e+000
    endloop
  endfacet
  facet normal  0.000000e+000  0.000000e+000  1.000000e+000
    outer loop
      vertex -4.819779e+000 -1.050287e+000  6.000000e-001
      vertex -5.354449e+000 -5.417789e-001  6.000000e-001
      vertex -6.857875e+000 -1.050287e+000  6.000000e-001
    endloop
  endfacet
  facet normal  0.000000e+000  0.000000e+000  1.000000e+000
    outer loop
      vertex -6.857875e+000 -1.050287e+000  6.000000e-001
      vertex -5.354449e+000 -5.417789e-001  6.000000e-001
      vertex -6.287391e+000 -5.417789e-001  6.000000e-001
    endloop
  endfacet
  facet normal  0.000000e+000  0.000000e+000  1.000000e+000
    outer loop
      vertex -6.857875e+000 -1.050287e+000  6.000000e-001
      vertex -6.287391e+000 -5.417789e-001  6.000000e-001
      vertex -6.857875e+000  1.917957e+000  6.000000e-001
    endloop
  endfacet
  facet normal  0.000000e+000  0.000000e+000  1.000000e+000
    outer loop
      vertex -6.857875e+000  1.917957e+000  6.000000e-001
      vertex -6.287391e+000 -5.417789e-001  6.000000e-001
      vertex -6.287391e+000  1.409449e+000  6.000000e-001
    endloop
  endfacet
  facet normal  0.000000e+000  -0.000000e+000  1.000000e+000
    outer loop
      vertex -6.857875e+000  1.917957e+000  6.000000e-001
      vertex -6.287391e+000  1.409449e+000  6.000000e-001
      vertex -4.819779e+000  1.917957e+000  6.000000e-001
    endloop
  endfacet
  facet normal  0.000000e+000  0.000000e+000  1.000000e+000
    outer loop
      vertex -4.819779e+000  1.917957e+000  6.000000e-001
      vertex -6.287391e+000  1.409449e+000  6.000000e-001
      vertex -5.354449e+000  1.409449e+000  6.000000e-001
    endloop
  endfacet
  facet normal  -0.000000e+000  0.000000e+000  1.000000e+000
    outer loop
      vertex -4.819779e+000  1.917957e+000  6.000000e-001
      vertex -5.354449e+000  1.409449e+000  6.000000e-001
      vertex -4.819779e+000 -1.050287e+000  6.000000e-001
    endloop
  endfacet
  facet normal  0.000000e+000  0.000000e+000  1.000000e+000
    outer loop
      vertex -4.819779e+000 -1.050287e+000  6.000000e-001
      vertex -5.354449e+000  1.409449e+000  6.000000e-001
      vertex -5.354449e+000 -5.417789e-001  6.000000e-001
    endloop
  endfacet
  facet normal  -0.000000e+000  0.000000e+000 -1.000000e+000
    outer loop
      vertex -6.857875e+000  1.917957e+000  0.000000e+000
      vertex -6.287391e+000 -5.417789e-001  0.000000e+000
      vertex -6.857875e+000 -1.050287e+000  0.000000e+000
    endloop
  endfacet
  facet normal  0.000000e+000  0.000000e+000 -1.000000e+000
    outer loop
      vertex -6.857875e+000 -1.050287e+000  0.000000e+000
      vertex -6.287391e+000 -5.417789e-001  0.000000e+000
      vertex -5.354449e+000 -5.417789e-001  0.000000e+000
    endloop
  endfacet
  facet normal  0.000000e+000  -0.000000e+000 -1.000000e+000
    outer loop
      vertex -6.857875e+000 -1.050287e+000  0.000000e+000
      vertex -5.354449e+000 -5.417789e-001  0.000000e+000
      vertex -4.819779e+000 -1.050287e+000  0.000000e+000
    endloop
  endfacet
  facet normal  0.000000e+000  0.000000e+000 -1.000000e+000
    outer loop
      vertex -6.287391e+000 -5.417789e-001  0.000000e+000
      vertex -6.857875e+000  1.917957e+000  0.000000e+000
      vertex -6.287391e+000  1.409449e+000  0.000000e+000
    endloop
  endfacet
  facet normal  0.000000e+000  0.000000e+000 -1.000000e+000
    outer loop
      vertex -6.287391e+000  1.409449e+000  0.000000e+000
      vertex -6.857875e+000  1.917957e+000  0.000000e+000
      vertex -4.819779e+000  1.917957e+000  0.000000e+000
    endloop
  endfacet
  facet normal  0.000000e+000  0.000000e+000 -1.000000e+000
    outer loop
      vertex -6.287391e+000  1.409449e+000  0.000000e+000
      vertex -4.819779e+000  1.917957e+000  0.000000e+000
      vertex -5.354449e+000  1.409449e+000  0.000000e+000
    endloop
  endfacet
  facet normal  0.000000e+000  0.000000e+000 -1.000000e+000
    outer loop
      vertex -5.354449e+000  1.409449e+000  0.000000e+000
      vertex -4.819779e+000  1.917957e+000  0.000000e+000
      vertex -4.819779e+000 -1.050287e+000  0.000000e+000
    endloop
  endfacet
  facet normal  0.000000e+000  0.000000e+000 -1.000000e+000
    outer loop
      vertex -5.354449e+000  1.409449e+000  0.000000e+000
      vertex -4.819779e+000 -1.050287e+000  0.000000e+000
      vertex -5.354449e+000 -5.417789e-001  0.000000e+000
    endloop
  endfacet
  facet normal  0.000000e+000 -1.000000e+000  0.000000e+000
    outer loop
      vertex -5.354449e+000  1.409449e+000  6.000000e-001
      vertex -6.287391e+000  1.409449e+000  6.000000e-001
      vertex -5.354449e+000  1.409449e+000  0.000000e+000
    endloop
  endfacet
  facet normal  0.000000e+000 -1.000000e+000  0.000000e+000
    outer loop
      vertex -5.354449e+000  1.409449e+000  0.000000e+000
      vertex -6.287391e+000  1.409449e+000  6.000000e-001
      vertex -6.287391e+000  1.409449e+000  0.000000e+000
    endloop
  endfacet
  facet normal  9.999999e-001  -0.000000e+000  0.000000e+000
    outer loop
      vertex -6.287391e+000  1.409449e+000  6.000000e-001
      vertex -6.287391e+000 -5.417789e-001  6.000000e-001
      vertex -6.287391e+000  1.409449e+000  0.000000e+000
    endloop
  endfacet
  facet normal  9.999999e-001  0.000000e+000  0.000000e+000
    outer loop
      vertex -6.287391e+000  1.409449e+000  0.000000e+000
      vertex -6.287391e+000 -5.417789e-001  6.000000e-001
      vertex -6.287391e+000 -5.417789e-001  0.000000e+000
    endloop
  endfacet
  facet normal  0.000000e+000  1.000000e+000  0.000000e+000
    outer loop
      vertex -6.287391e+000 -5.417789e-001  6.000000e-001
      vertex -5.354449e+000 -5.417789e-001  6.000000e-001
      vertex -6.287391e+000 -5.417789e-001  0.000000e+000
    endloop
  endfacet
  facet normal  0.000000e+000  1.000000e+000  0.000000e+000
    outer loop
      vertex -6.287391e+000 -5.417789e-001  0.000000e+000
      vertex -5.354449e+000 -5.417789e-001  6.000000e-001
      vertex -5.354449e+000 -5.417789e-001  0.000000e+000
    endloop
  endfacet
  facet normal -9.999999e-001  -0.000000e+000  0.000000e+000
    outer loop
      vertex -5.354449e+000 -5.417789e-001  6.000000e-001
      vertex -5.354449e+000  1.409449e+000  6.000000e-001
      vertex -5.354449e+000 -5.417789e-001  0.000000e+000
    endloop
  endfacet
  facet normal -9.999999e-001  0.000000e+000  0.000000e+000
    outer loop
      vertex -5.354449e+000 -5.417789e-001  0.000000e+000
      vertex -5.354449e+000  1.409449e+000  6.000000e-001
      vertex -5.354449e+000  1.409449e+000  0.000000e+000
    endloop
  endfacet
  facet normal  0.000000e+000 -1.000000e+000  0.000000e+000
    outer loop
      vertex -4.819779e+000 -1.050287e+000  6.000000e-001
      vertex -6.857875e+000 -1.050287e+000  6.000000e-001
      vertex -4.819779e+000 -1.050287e+000  0.000000e+000
    endloop
  endfacet
  facet normal  0.000000e+000 -1.000000e+000  0.000000e+000
    outer loop
      vertex -4.819779e+000 -1.050287e+000  0.000000e+000
      vertex -6.857875e+000 -1.050287e+000  6.000000e-001
      vertex -6.857875e+000 -1.050287e+000  0.000000e+000
    endloop
  endfacet
  facet normal -1.000000e+000  -0.000000e+000  0.000000e+000
    outer loop
      vertex -6.857875e+000 -1.050287e+000  6.000000e-001
      vertex -6.857875e+000  1.917957e+000  6.000000e-001
      vertex -6.857875e+000 -1.050287e+000  0.000000e+000
    endloop
  endfacet
  facet normal -1.000000e+000  0.000000e+000  0.000000e+000
    outer loop
      vertex -6.857875e+000 -1.050287e+000  0.000000e+000
      vertex -6.857875e+000  1.917957e+000  6.000000e-001
      vertex -6.857875e+000  1.917957e+000  0.000000e+000
    endloop
  endfacet
  facet normal  0.000000e+000  1.000000e+000  0.000000e+000
    outer loop
      vertex -6.857875e+000  1.917957e+000  6.000000e-001
      vertex -4.819779e+000  1.917957e+000  6.000000e-001
      vertex -6.857875e+000  1.917957e+000  0.000000e+000
    endloop
  endfacet
  facet normal  0.000000e+000  1.000000e+000  0.000000e+000
    outer loop
      vertex -6.857875e+000  1.917957e+000  0.000000e+000
      vertex -4.819779e+000  1.917957e+000  6.000000e-001
      vertex -4.819779e+000  1.917957e+000  0.000000e+000
    endloop
  endfacet
  facet normal  1.000000e+000  -0.000000e+000  0.000000e+000
    outer loop
      vertex -4.819779e+000  1.917957e+000  6.000000e-001
      vertex -4.819779e+000 -1.050287e+000  6.000000e-001
      vertex -4.819779e+000  1.917957e+000  0.000000e+000
    endloop
  endfacet
  facet normal  1.000000e+000  0.000000e+000  0.000000e+000
    outer loop
      vertex -4.819779e+000  1.917957e+000  0.000000e+000
      vertex -4.819779e+000 -1.050287e+000  6.000000e-001
      vertex -4.819779e+000 -1.050287e+000  0.000000e+000
    endloop
  endfacet
  facet normal  0.000000e+000  0.000000e+000  1.000000e+000
    outer loop
      vertex -7.520561e+000  4.241831e-001  6.000000e-001
      vertex -7.271133e+000  7.934991e-001  6.000000e-001
      vertex -7.805803e+000  6.764051e-001  6.000000e-001
    endloop
  endfacet
  facet normal  0.000000e+000  0.000000e+000  1.000000e+000
    outer loop
      vertex -7.520561e+000  4.241831e-001  6.000000e-001
      vertex -7.805803e+000  6.764051e-001  6.000000e-001
      vertex -7.805803e+000  1.925351e-001  6.000000e-001
    endloop
  endfacet
  facet normal  -0.000000e+000  0.000000e+000  9.999999e-001
    outer loop
      vertex -7.520561e+000  4.241831e-001  6.000000e-001
      vertex -7.805803e+000  1.925351e-001  6.000000e-001
      vertex -7.271133e+000  5.207313e-002  6.000000e-001
    endloop
  endfacet
  facet normal  0.000000e+000  0.000000e+000  1.000000e+000
    outer loop
      vertex -9.309229e+000  1.917957e+000  6.000000e-001
      vertex -9.309229e+000 -1.050287e+000  6.000000e-001
      vertex -8.738745e+000 -5.417789e-001  6.000000e-001
    endloop
  endfacet
  facet normal  0.000000e+000  -0.000000e+000  1.000000e+000
    outer loop
      vertex -9.309229e+000  1.917957e+000  6.000000e-001
      vertex -8.738745e+000 -5.417789e-001  6.000000e-001
      vertex -8.738745e+000  1.925351e-001  6.000000e-001
    endloop
  endfacet
  facet normal  0.000000e+000  -0.000000e+000  1.000000e+000
    outer loop
      vertex -9.309229e+000  1.917957e+000  6.000000e-001
      vertex -8.738745e+000  1.925351e-001  6.000000e-001
      vertex -8.738745e+000  6.764051e-001  6.000000e-001
    endloop
  endfacet
  facet normal  0.000000e+000  -0.000000e+000  1.000000e+000
    outer loop
      vertex -9.309229e+000  1.917957e+000  6.000000e-001
      vertex -8.738745e+000  6.764051e-001  6.000000e-001
      vertex -8.738745e+000  1.409449e+000  6.000000e-001
    endloop
  endfacet
  facet normal  0.000000e+000  -0.000000e+000  1.000000e+000
    outer loop
      vertex -9.309229e+000  1.917957e+000  6.000000e-001
      vertex -8.738745e+000  1.409449e+000  6.000000e-001
      vertex -7.805803e+000  1.409449e+000  6.000000e-001
    endloop
  endfacet
  facet normal  0.000000e+000  -0.000000e+000  1.000000e+000
    outer loop
      vertex -9.309229e+000  1.917957e+000  6.000000e-001
      vertex -7.805803e+000  1.409449e+000  6.000000e-001
      vertex -7.271133e+000  1.917957e+000  6.000000e-001
    endloop
  endfacet
  facet normal  0.000000e+000  0.000000e+000  1.000000e+000
    outer loop
      vertex -7.271133e+000  5.207313e-002  6.000000e-001
      vertex -7.805803e+000  1.925351e-001  6.000000e-001
      vertex -7.271133e+000 -1.050287e+000  6.000000e-001
    endloop
  endfacet
  facet normal  0.000000e+000  0.000000e+000  1.000000e+000
    outer loop
      vertex -7.271133e+000 -1.050287e+000  6.000000e-001
      vertex -7.805803e+000  1.925351e-001  6.000000e-001
      vertex -7.805803e+000 -5.417789e-001  6.000000e-001
    endloop
  endfacet
  facet normal  0.000000e+000  0.000000e+000  1.000000e+000
    outer loop
      vertex -7.271133e+000 -1.050287e+000  6.000000e-001
      vertex -7.805803e+000 -5.417789e-001  6.000000e-001
      vertex -9.309229e+000 -1.050287e+000  6.000000e-001
    endloop
  endfacet
  facet normal  0.000000e+000  0.000000e+000  1.000000e+000
    outer loop
      vertex -9.309229e+000 -1.050287e+000  6.000000e-001
      vertex -7.805803e+000 -5.417789e-001  6.000000e-001
      vertex -8.738745e+000 -5.417789e-001  6.000000e-001
    endloop
  endfacet
  facet normal  0.000000e+000  0.000000e+000  1.000000e+000
    outer loop
      vertex -8.738745e+000  1.925351e-001  6.000000e-001
      vertex -7.805803e+000  1.925351e-001  6.000000e-001
      vertex -8.738745e+000  6.764051e-001  6.000000e-001
    endloop
  endfacet
  facet normal  -0.000000e+000  0.000000e+000  1.000000e+000
    outer loop
      vertex -8.738745e+000  6.764051e-001  6.000000e-001
      vertex -7.805803e+000  1.925351e-001  6.000000e-001
      vertex -7.805803e+000  6.764051e-001  6.000000e-001
    endloop
  endfacet
  facet normal  0.000000e+000  0.000000e+000  1.000000e+000
    outer loop
      vertex -7.805803e+000  1.409449e+000  6.000000e-001
      vertex -7.805803e+000  6.764051e-001  6.000000e-001
      vertex -7.271133e+000  1.917957e+000  6.000000e-001
    endloop
  endfacet
  facet normal  0.000000e+000  0.000000e+000  1.000000e+000
    outer loop
      vertex -7.271133e+000  1.917957e+000  6.000000e-001
      vertex -7.805803e+000  6.764051e-001  6.000000e-001
      vertex -7.271133e+000  7.934991e-001  6.000000e-001
    endloop
  endfacet
  facet normal  0.000000e+000  0.000000e+000 -9.999999e-001
    outer loop
      vertex -7.520561e+000  4.241831e-001  0.000000e+000
      vertex -7.271133e+000  5.207313e-002  0.000000e+000
      vertex -7.805803e+000  1.925351e-001  0.000000e+000
    endloop
  endfacet
  facet normal  0.000000e+000  0.000000e+000 -1.000000e+000
    outer loop
      vertex -7.520561e+000  4.241831e-001  0.000000e+000
      vertex -7.805803e+000  1.925351e-001  0.000000e+000
      vertex -7.805803e+000  6.764051e-001  0.000000e+000
    endloop
  endfacet
  facet normal  0.000000e+000  0.000000e+000 -1.000000e+000
    outer loop
      vertex -7.520561e+000  4.241831e-001  0.000000e+000
      vertex -7.805803e+000  6.764051e-001  0.000000e+000
      vertex -7.271133e+000  7.934991e-001  0.000000e+000
    endloop
  endfacet
  facet normal  -0.000000e+000  0.000000e+000 -1.000000e+000
    outer loop
      vertex -9.309229e+000  1.917957e+000  0.000000e+000
      vertex -7.271133e+000  1.917957e+000  0.000000e+000
      vertex -7.805803e+000  1.409449e+000  0.000000e+000
    endloop
  endfacet
  facet normal  0.000000e+000  0.000000e+000 -1.000000e+000
    outer loop
      vertex -9.309229e+000  1.917957e+000  0.000000e+000
      vertex -7.805803e+000  1.409449e+000  0.000000e+000
      vertex -8.738745e+000  1.409449e+000  0.000000e+000
    endloop
  endfacet
  facet normal  -0.000000e+000  -0.000000e+000 -1.000000e+000
    outer loop
      vertex -9.309229e+000  1.917957e+000  0.000000e+000
      vertex -8.738745e+000  1.409449e+000  0.000000e+000
      vertex -8.738745e+000  6.764051e-001  0.000000e+000
    endloop
  endfacet
  facet normal  -0.000000e+000  -0.000000e+000 -1.000000e+000
    outer loop
      vertex -9.309229e+000  1.917957e+000  0.000000e+000
      vertex -8.738745e+000  6.764051e-001  0.000000e+000
      vertex -8.738745e+000  1.925351e-001  0.000000e+000
    endloop
  endfacet
  facet normal  -0.000000e+000  -0.000000e+000 -1.000000e+000
    outer loop
      vertex -9.309229e+000  1.917957e+000  0.000000e+000
      vertex -8.738745e+000  1.925351e-001  0.000000e+000
      vertex -8.738745e+000 -5.417789e-001  0.000000e+000
    endloop
  endfacet
  facet normal  -0.000000e+000  0.000000e+000 -1.000000e+000
    outer loop
      vertex -9.309229e+000  1.917957e+000  0.000000e+000
      vertex -8.738745e+000 -5.417789e-001  0.000000e+000
      vertex -9.309229e+000 -1.050287e+000  0.000000e+000
    endloop
  endfacet
  facet normal  0.000000e+000  0.000000e+000 -1.000000e+000
    outer loop
      vertex -7.271133e+000  5.207313e-002  0.000000e+000
      vertex -7.271133e+000 -1.050287e+000  0.000000e+000
      vertex -7.805803e+000  1.925351e-001  0.000000e+000
    endloop
  endfacet
  facet normal  0.000000e+000  0.000000e+000 -1.000000e+000
    outer loop
      vertex -7.805803e+000  1.925351e-001  0.000000e+000
      vertex -7.271133e+000 -1.050287e+000  0.000000e+000
      vertex -7.805803e+000 -5.417789e-001  0.000000e+000
    endloop
  endfacet
  facet normal  0.000000e+000  0.000000e+000 -1.000000e+000
    outer loop
      vertex -7.271133e+000 -1.050287e+000  0.000000e+000
      vertex -9.309229e+000 -1.050287e+000  0.000000e+000
      vertex -7.805803e+000 -5.417789e-001  0.000000e+000
    endloop
  endfacet
  facet normal  -0.000000e+000  0.000000e+000 -1.000000e+000
    outer loop
      vertex -7.805803e+000 -5.417789e-001  0.000000e+000
      vertex -9.309229e+000 -1.050287e+000  0.000000e+000
      vertex -8.738745e+000 -5.417789e-001  0.000000e+000
    endloop
  endfacet
  facet normal  0.000000e+000  0.000000e+000 -1.000000e+000
    outer loop
      vertex -8.738745e+000  1.925351e-001  0.000000e+000
      vertex -8.738745e+000  6.764051e-001  0.000000e+000
      vertex -7.805803e+000  1.925351e-001  0.000000e+000
    endloop
  endfacet
  facet normal  0.000000e+000  0.000000e+000 -1.000000e+000
    outer loop
      vertex -7.805803e+000  1.925351e-001  0.000000e+000
      vertex -8.738745e+000  6.764051e-001  0.000000e+000
      vertex -7.805803e+000  6.764051e-001  0.000000e+000
    endloop
  endfacet
  facet normal  0.000000e+000  0.000000e+000 -1.000000e+000
    outer loop
      vertex -7.805803e+000  1.409449e+000  0.000000e+000
      vertex -7.271133e+000  1.917957e+000  0.000000e+000
      vertex -7.805803e+000  6.764051e-001  0.000000e+000
    endloop
  endfacet
  facet normal  0.000000e+000  0.000000e+000 -1.000000e+000
    outer loop
      vertex -7.805803e+000  6.764051e-001  0.000000e+000
      vertex -7.271133e+000  1.917957e+000  0.000000e+000
      vertex -7.271133e+000  7.934991e-001  0.000000e+000
    endloop
  endfacet
  facet normal  0.000000e+000  1.000000e+000  0.000000e+000
    outer loop
      vertex -8.738745e+000  6.764051e-001  6.000000e-001
      vertex -7.805803e+000  6.764051e-001  6.000000e-001
      vertex -8.738745e+000  6.764051e-001  0.000000e+000
    endloop
  endfacet
  facet normal  0.000000e+000  1.000000e+000  0.000000e+000
    outer loop
      vertex -8.738745e+000  6.764051e-001  0.000000e+000
      vertex -7.805803e+000  6.764051e-001  6.000000e-001
      vertex -7.805803e+000  6.764051e-001  0.000000e+000
    endloop
  endfacet
  facet normal -1.000000e+000  -0.000000e+000  0.000000e+000
    outer loop
      vertex -7.805803e+000  6.764051e-001  6.000000e-001
      vertex -7.805803e+000  1.409449e+000  6.000000e-001
      vertex -7.805803e+000  6.764051e-001  0.000000e+000
    endloop
  endfacet
  facet normal -1.000000e+000  0.000000e+000  0.000000e+000
    outer loop
      vertex -7.805803e+000  6.764051e-001  0.000000e+000
      vertex -7.805803e+000  1.409449e+000  6.000000e-001
      vertex -7.805803e+000  1.409449e+000  0.000000e+000
    endloop
  endfacet
  facet normal  0.000000e+000 -1.000000e+000  0.000000e+000
    outer loop
      vertex -7.805803e+000  1.409449e+000  6.000000e-001
      vertex -8.738745e+000  1.409449e+000  6.000000e-001
      vertex -7.805803e+000  1.409449e+000  0.000000e+000
    endloop
  endfacet
  facet normal  0.000000e+000 -1.000000e+000  0.000000e+000
    outer loop
      vertex -7.805803e+000  1.409449e+000  0.000000e+000
      vertex -8.738745e+000  1.409449e+000  6.000000e-001
      vertex -8.738745e+000  1.409449e+000  0.000000e+000
    endloop
  endfacet
  facet normal  1.000000e+000  -0.000000e+000  0.000000e+000
    outer loop
      vertex -8.738745e+000  1.409449e+000  6.000000e-001
      vertex -8.738745e+000  6.764051e-001  6.000000e-001
      vertex -8.738745e+000  1.409449e+000  0.000000e+000
    endloop
  endfacet
  facet normal  1.000000e+000  0.000000e+000  0.000000e+000
    outer loop
      vertex -8.738745e+000  1.409449e+000  0.000000e+000
      vertex -8.738745e+000  6.764051e-001  6.000000e-001
      vertex -8.738745e+000  6.764051e-001  0.000000e+000
    endloop
  endfacet
  facet normal  0.000000e+000  1.000000e+000  0.000000e+000
    outer loop
      vertex -8.738745e+000 -5.417789e-001  6.000000e-001
      vertex -7.805803e+000 -5.417789e-001  6.000000e-001
      vertex -8.738745e+000 -5.417789e-001  0.000000e+000
    endloop
  endfacet
  facet normal  0.000000e+000  1.000000e+000  0.000000e+000
    outer loop
      vertex -8.738745e+000 -5.417789e-001  0.000000e+000
      vertex -7.805803e+000 -5.417789e-001  6.000000e-001
      vertex -7.805803e+000 -5.417789e-001  0.000000e+000
    endloop
  endfacet
  facet normal -1.000000e+000  -0.000000e+000  0.000000e+000
    outer loop
      vertex -7.805803e+000 -5.417789e-001  6.000000e-001
      vertex -7.805803e+000  1.925351e-001  6.000000e-001
      vertex -7.805803e+000 -5.417789e-001  0.000000e+000
    endloop
  endfacet
  facet normal -1.000000e+000  0.000000e+000  0.000000e+000
    outer loop
      vertex -7.805803e+000 -5.417789e-001  0.000000e+000
      vertex -7.805803e+000  1.925351e-001  6.000000e-001
      vertex -7.805803e+000  1.925351e-001  0.000000e+000
    endloop
  endfacet
  facet normal  0.000000e+000 -1.000000e+000  0.000000e+000
    outer loop
      vertex -7.805803e+000  1.925351e-001  6.000000e-001
      vertex -8.738745e+000  1.925351e-001  6.000000e-001
      vertex -7.805803e+000  1.925351e-001  0.000000e+000
    endloop
  endfacet
  facet normal  0.000000e+000 -1.000000e+000  0.000000e+000
    outer loop
      vertex -7.805803e+000  1.925351e-001  0.000000e+000
      vertex -8.738745e+000  1.925351e-001  6.000000e-001
      vertex -8.738745e+000  1.925351e-001  0.000000e+000
    endloop
  endfacet
  facet normal  1.000000e+000  -0.000000e+000  0.000000e+000
    outer loop
      vertex -8.738745e+000  1.925351e-001  6.000000e-001
      vertex -8.738745e+000 -5.417789e-001  6.000000e-001
      vertex -8.738745e+000  1.925351e-001  0.000000e+000
    endloop
  endfacet
  facet normal  1.000000e+000  0.000000e+000  0.000000e+000
    outer loop
      vertex -8.738745e+000  1.925351e-001  0.000000e+000
      vertex -8.738745e+000 -5.417789e-001  6.000000e-001
      vertex -8.738745e+000 -5.417789e-001  0.000000e+000
    endloop
  endfacet
  facet normal  1.000000e+000  -0.000000e+000  0.000000e+000
    outer loop
      vertex -7.271133e+000  1.917957e+000  6.000000e-001
      vertex -7.271133e+000  7.934991e-001  6.000000e-001
      vertex -7.271133e+000  1.917957e+000  0.000000e+000
    endloop
  endfacet
  facet normal  1.000000e+000  0.000000e+000  0.000000e+000
    outer loop
      vertex -7.271133e+000  1.917957e+000  0.000000e+000
      vertex -7.271133e+000  7.934991e-001  6.000000e-001
      vertex -7.271133e+000  7.934991e-001  0.000000e+000
    endloop
  endfacet
  facet normal  8.287035e-001 -5.596879e-001  0.000000e+000
    outer loop
      vertex -7.271133e+000  7.934991e-001  0.000000e+000
      vertex -7.271133e+000  7.934991e-001  6.000000e-001
      vertex -7.520561e+000  4.241831e-001  0.000000e+000
    endloop
  endfacet
  facet normal  8.287035e-001 -5.596879e-001  0.000000e+000
    outer loop
      vertex -7.520561e+000  4.241831e-001  0.000000e+000
      vertex -7.271133e+000  7.934991e-001  6.000000e-001
      vertex -7.520561e+000  4.241831e-001  6.000000e-001
    endloop
  endfacet
  facet normal  8.306522e-001  5.567917e-001  0.000000e+000
    outer loop
      vertex -7.520561e+000  4.241831e-001  0.000000e+000
      vertex -7.520561e+000  4.241831e-001  6.000000e-001
      vertex -7.271133e+000  5.207313e-002  0.000000e+000
    endloop
  endfacet
  facet normal  8.306522e-001  5.567917e-001  -0.000000e+000
    outer loop
      vertex -7.271133e+000  5.207313e-002  0.000000e+000
      vertex -7.520561e+000  4.241831e-001  6.000000e-001
      vertex -7.271133e+000  5.207313e-002  6.000000e-001
    endloop
  endfacet
  facet normal  1.000000e+000  -0.000000e+000  0.000000e+000
    outer loop
      vertex -7.271133e+000  5.207313e-002  6.000000e-001
      vertex -7.271133e+000 -1.050287e+000  6.000000e-001
      vertex -7.271133e+000  5.207313e-002  0.000000e+000
    endloop
  endfacet
  facet normal  1.000000e+000  0.000000e+000  0.000000e+000
    outer loop
      vertex -7.271133e+000  5.207313e-002  0.000000e+000
      vertex -7.271133e+000 -1.050287e+000  6.000000e-001
      vertex -7.271133e+000 -1.050287e+000  0.000000e+000
    endloop
  endfacet
  facet normal  0.000000e+000 -1.000000e+000  0.000000e+000
    outer loop
      vertex -7.271133e+000 -1.050287e+000  6.000000e-001
      vertex -9.309229e+000 -1.050287e+000  6.000000e-001
      vertex -7.271133e+000 -1.050287e+000  0.000000e+000
    endloop
  endfacet
  facet normal  0.000000e+000 -1.000000e+000  0.000000e+000
    outer loop
      vertex -7.271133e+000 -1.050287e+000  0.000000e+000
      vertex -9.309229e+000 -1.050287e+000  6.000000e-001
      vertex -9.309229e+000 -1.050287e+000  0.000000e+000
    endloop
  endfacet
  facet normal -1.000000e+000  -0.000000e+000  0.000000e+000
    outer loop
      vertex -9.309229e+000 -1.050287e+000  6.000000e-001
      vertex -9.309229e+000  1.917957e+000  6.000000e-001
      vertex -9.309229e+000 -1.050287e+000  0.000000e+000
    endloop
  endfacet
  facet normal -1.000000e+000  0.000000e+000  0.000000e+000
    outer loop
      vertex -9.309229e+000 -1.050287e+000  0.000000e+000
      vertex -9.309229e+000  1.917957e+000  6.000000e-001
      vertex -9.309229e+000  1.917957e+000  0.000000e+000
    endloop
  endfacet
  facet normal  0.000000e+000  1.000000e+000  0.000000e+000
    outer loop
      vertex -9.309229e+000  1.917957e+000  6.000000e-001
      vertex -7.271133e+000  1.917957e+000  6.000000e-001
      vertex -9.309229e+000  1.917957e+000  0.000000e+000
    endloop
  endfacet
  facet normal  0.000000e+000  1.000000e+000  0.000000e+000
    outer loop
      vertex -9.309229e+000  1.917957e+000  0.000000e+000
      vertex -7.271133e+000  1.917957e+000  6.000000e-001
      vertex -7.271133e+000  1.917957e+000  0.000000e+000
    endloop
  endfacet
endsolid CATIA STL
