solid CATIA STL
  facet normal  0.000000e+000  -0.000000e+000  1.000000e+000
    outer loop
      vertex  4.878670e+000  2.039092e+000  6.000000e-001
      vertex  6.346307e+000  2.039092e+000  6.000000e-001
      vertex  6.346307e+000  2.547853e+000  6.000000e-001
    endloop
  endfacet
  facet normal  0.000000e+000  0.000000e+000  1.000000e+000
    outer loop
      vertex  4.308161e+000  2.547853e+000  6.000000e-001
      vertex  4.308161e+000 -4.206445e-001  6.000000e-001
      vertex  4.878670e+000  8.786348e-002  6.000000e-001
    endloop
  endfacet
  facet normal  0.000000e+000  -0.000000e+000  1.000000e+000
    outer loop
      vertex  4.308161e+000  2.547853e+000  6.000000e-001
      vertex  4.878670e+000  8.786348e-002  6.000000e-001
      vertex  4.878670e+000  8.211614e-001  6.000000e-001
    endloop
  endfacet
  facet normal  0.000000e+000  -0.000000e+000  1.000000e+000
    outer loop
      vertex  4.308161e+000  2.547853e+000  6.000000e-001
      vertex  4.878670e+000  8.211614e-001  6.000000e-001
      vertex  4.878670e+000  1.304778e+000  6.000000e-001
    endloop
  endfacet
  facet normal  0.000000e+000  -0.000000e+000  1.000000e+000
    outer loop
      vertex  4.308161e+000  2.547853e+000  6.000000e-001
      vertex  4.878670e+000  1.304778e+000  6.000000e-001
      vertex  4.878670e+000  2.039092e+000  6.000000e-001
    endloop
  endfacet
  facet normal  0.000000e+000  -0.000000e+000  1.000000e+000
    outer loop
      vertex  4.308161e+000  2.547853e+000  6.000000e-001
      vertex  4.878670e+000  2.039092e+000  6.000000e-001
      vertex  6.346307e+000  2.547853e+000  6.000000e-001
    endloop
  endfacet
  facet normal  0.000000e+000  0.000000e+000  9.999999e-001
    outer loop
      vertex  4.878670e+000  8.211614e-001  6.000000e-001
      vertex  6.346307e+000  8.211614e-001  6.000000e-001
      vertex  4.878670e+000  1.304778e+000  6.000000e-001
    endloop
  endfacet
  facet normal  -0.000000e+000  0.000000e+000  9.999999e-001
    outer loop
      vertex  4.878670e+000  1.304778e+000  6.000000e-001
      vertex  6.346307e+000  8.211614e-001  6.000000e-001
      vertex  6.346307e+000  1.304778e+000  6.000000e-001
    endloop
  endfacet
  facet normal  0.000000e+000  0.000000e+000  1.000000e+000
    outer loop
      vertex  4.308161e+000 -4.206445e-001  6.000000e-001
      vertex  6.346307e+000 -4.206445e-001  6.000000e-001
      vertex  4.878670e+000  8.786348e-002  6.000000e-001
    endloop
  endfacet
  facet normal  -0.000000e+000  0.000000e+000  1.000000e+000
    outer loop
      vertex  4.878670e+000  8.786348e-002  6.000000e-001
      vertex  6.346307e+000 -4.206445e-001  6.000000e-001
      vertex  6.346307e+000  8.786348e-002  6.000000e-001
    endloop
  endfacet
  facet normal  0.000000e+000  0.000000e+000 -1.000000e+000
    outer loop
      vertex  6.346307e+000  2.547853e+000  0.000000e+000
      vertex  6.346307e+000  2.039092e+000  0.000000e+000
      vertex  4.878670e+000  2.039092e+000  0.000000e+000
    endloop
  endfacet
  facet normal  -0.000000e+000  0.000000e+000 -1.000000e+000
    outer loop
      vertex  4.308161e+000  2.547853e+000  0.000000e+000
      vertex  6.346307e+000  2.547853e+000  0.000000e+000
      vertex  4.878670e+000  2.039092e+000  0.000000e+000
    endloop
  endfacet
  facet normal  -0.000000e+000  -0.000000e+000 -1.000000e+000
    outer loop
      vertex  4.308161e+000  2.547853e+000  0.000000e+000
      vertex  4.878670e+000  2.039092e+000  0.000000e+000
      vertex  4.878670e+000  1.304778e+000  0.000000e+000
    endloop
  endfacet
  facet normal  -0.000000e+000  -0.000000e+000 -1.000000e+000
    outer loop
      vertex  4.308161e+000  2.547853e+000  0.000000e+000
      vertex  4.878670e+000  1.304778e+000  0.000000e+000
      vertex  4.878670e+000  8.211614e-001  0.000000e+000
    endloop
  endfacet
  facet normal  -0.000000e+000  -0.000000e+000 -1.000000e+000
    outer loop
      vertex  4.308161e+000  2.547853e+000  0.000000e+000
      vertex  4.878670e+000  8.211614e-001  0.000000e+000
      vertex  4.878670e+000  8.786348e-002  0.000000e+000
    endloop
  endfacet
  facet normal  -0.000000e+000  0.000000e+000 -1.000000e+000
    outer loop
      vertex  4.308161e+000  2.547853e+000  0.000000e+000
      vertex  4.878670e+000  8.786348e-002  0.000000e+000
      vertex  4.308161e+000 -4.206445e-001  0.000000e+000
    endloop
  endfacet
  facet normal  0.000000e+000  0.000000e+000 -9.999999e-001
    outer loop
      vertex  4.878670e+000  8.211614e-001  0.000000e+000
      vertex  4.878670e+000  1.304778e+000  0.000000e+000
      vertex  6.346307e+000  8.211614e-001  0.000000e+000
    endloop
  endfacet
  facet normal  0.000000e+000  0.000000e+000 -9.999999e-001
    outer loop
      vertex  6.346307e+000  8.211614e-001  0.000000e+000
      vertex  4.878670e+000  1.304778e+000  0.000000e+000
      vertex  6.346307e+000  1.304778e+000  0.000000e+000
    endloop
  endfacet
  facet normal  0.000000e+000  -0.000000e+000 -1.000000e+000
    outer loop
      vertex  4.308161e+000 -4.206445e-001  0.000000e+000
      vertex  4.878670e+000  8.786348e-002  0.000000e+000
      vertex  6.346307e+000 -4.206445e-001  0.000000e+000
    endloop
  endfacet
  facet normal  0.000000e+000  0.000000e+000 -1.000000e+000
    outer loop
      vertex  6.346307e+000 -4.206445e-001  0.000000e+000
      vertex  4.878670e+000  8.786348e-002  0.000000e+000
      vertex  6.346307e+000  8.786348e-002  0.000000e+000
    endloop
  endfacet
  facet normal  1.000000e+000  -0.000000e+000  0.000000e+000
    outer loop
      vertex  4.878670e+000  2.039092e+000  6.000000e-001
      vertex  4.878670e+000  1.304778e+000  6.000000e-001
      vertex  4.878670e+000  2.039092e+000  0.000000e+000
    endloop
  endfacet
  facet normal  1.000000e+000  0.000000e+000  0.000000e+000
    outer loop
      vertex  4.878670e+000  2.039092e+000  0.000000e+000
      vertex  4.878670e+000  1.304778e+000  6.000000e-001
      vertex  4.878670e+000  1.304778e+000  0.000000e+000
    endloop
  endfacet
  facet normal  0.000000e+000  1.000000e+000  0.000000e+000
    outer loop
      vertex  4.878670e+000  1.304778e+000  6.000000e-001
      vertex  6.346307e+000  1.304778e+000  6.000000e-001
      vertex  4.878670e+000  1.304778e+000  0.000000e+000
    endloop
  endfacet
  facet normal  0.000000e+000  1.000000e+000  0.000000e+000
    outer loop
      vertex  4.878670e+000  1.304778e+000  0.000000e+000
      vertex  6.346307e+000  1.304778e+000  6.000000e-001
      vertex  6.346307e+000  1.304778e+000  0.000000e+000
    endloop
  endfacet
  facet normal  1.000000e+000  -0.000000e+000  0.000000e+000
    outer loop
      vertex  6.346307e+000  1.304778e+000  6.000000e-001
      vertex  6.346307e+000  8.211614e-001  6.000000e-001
      vertex  6.346307e+000  1.304778e+000  0.000000e+000
    endloop
  endfacet
  facet normal  1.000000e+000  0.000000e+000  0.000000e+000
    outer loop
      vertex  6.346307e+000  1.304778e+000  0.000000e+000
      vertex  6.346307e+000  8.211614e-001  6.000000e-001
      vertex  6.346307e+000  8.211614e-001  0.000000e+000
    endloop
  endfacet
  facet normal  0.000000e+000 -1.000000e+000  0.000000e+000
    outer loop
      vertex  6.346307e+000  8.211614e-001  6.000000e-001
      vertex  4.878670e+000  8.211614e-001  6.000000e-001
      vertex  6.346307e+000  8.211614e-001  0.000000e+000
    endloop
  endfacet
  facet normal  0.000000e+000 -1.000000e+000  0.000000e+000
    outer loop
      vertex  6.346307e+000  8.211614e-001  0.000000e+000
      vertex  4.878670e+000  8.211614e-001  6.000000e-001
      vertex  4.878670e+000  8.211614e-001  0.000000e+000
    endloop
  endfacet
  facet normal  1.000000e+000  -0.000000e+000  0.000000e+000
    outer loop
      vertex  4.878670e+000  8.211614e-001  6.000000e-001
      vertex  4.878670e+000  8.786348e-002  6.000000e-001
      vertex  4.878670e+000  8.211614e-001  0.000000e+000
    endloop
  endfacet
  facet normal  1.000000e+000  0.000000e+000  0.000000e+000
    outer loop
      vertex  4.878670e+000  8.211614e-001  0.000000e+000
      vertex  4.878670e+000  8.786348e-002  6.000000e-001
      vertex  4.878670e+000  8.786348e-002  0.000000e+000
    endloop
  endfacet
  facet normal  0.000000e+000  1.000000e+000  0.000000e+000
    outer loop
      vertex  4.878670e+000  8.786348e-002  6.000000e-001
      vertex  6.346307e+000  8.786348e-002  6.000000e-001
      vertex  4.878670e+000  8.786348e-002  0.000000e+000
    endloop
  endfacet
  facet normal  0.000000e+000  1.000000e+000  0.000000e+000
    outer loop
      vertex  4.878670e+000  8.786348e-002  0.000000e+000
      vertex  6.346307e+000  8.786348e-002  6.000000e-001
      vertex  6.346307e+000  8.786348e-002  0.000000e+000
    endloop
  endfacet
  facet normal  1.000000e+000  -0.000000e+000  0.000000e+000
    outer loop
      vertex  6.346307e+000  8.786348e-002  6.000000e-001
      vertex  6.346307e+000 -4.206445e-001  6.000000e-001
      vertex  6.346307e+000  8.786348e-002  0.000000e+000
    endloop
  endfacet
  facet normal  1.000000e+000  0.000000e+000  0.000000e+000
    outer loop
      vertex  6.346307e+000  8.786348e-002  0.000000e+000
      vertex  6.346307e+000 -4.206445e-001  6.000000e-001
      vertex  6.346307e+000 -4.206445e-001  0.000000e+000
    endloop
  endfacet
  facet normal  0.000000e+000 -1.000000e+000  0.000000e+000
    outer loop
      vertex  6.346307e+000 -4.206445e-001  6.000000e-001
      vertex  4.308161e+000 -4.206445e-001  6.000000e-001
      vertex  6.346307e+000 -4.206445e-001  0.000000e+000
    endloop
  endfacet
  facet normal  0.000000e+000 -1.000000e+000  0.000000e+000
    outer loop
      vertex  6.346307e+000 -4.206445e-001  0.000000e+000
      vertex  4.308161e+000 -4.206445e-001  6.000000e-001
      vertex  4.308161e+000 -4.206445e-001  0.000000e+000
    endloop
  endfacet
  facet normal -1.000000e+000  -0.000000e+000  0.000000e+000
    outer loop
      vertex  4.308161e+000 -4.206445e-001  6.000000e-001
      vertex  4.308161e+000  2.547853e+000  6.000000e-001
      vertex  4.308161e+000 -4.206445e-001  0.000000e+000
    endloop
  endfacet
  facet normal -1.000000e+000  0.000000e+000  0.000000e+000
    outer loop
      vertex  4.308161e+000 -4.206445e-001  0.000000e+000
      vertex  4.308161e+000  2.547853e+000  6.000000e-001
      vertex  4.308161e+000  2.547853e+000  0.000000e+000
    endloop
  endfacet
  facet normal  0.000000e+000  1.000000e+000  0.000000e+000
    outer loop
      vertex  4.308161e+000  2.547853e+000  6.000000e-001
      vertex  6.346307e+000  2.547853e+000  6.000000e-001
      vertex  4.308161e+000  2.547853e+000  0.000000e+000
    endloop
  endfacet
  facet normal  0.000000e+000  1.000000e+000  0.000000e+000
    outer loop
      vertex  4.308161e+000  2.547853e+000  0.000000e+000
      vertex  6.346307e+000  2.547853e+000  6.000000e-001
      vertex  6.346307e+000  2.547853e+000  0.000000e+000
    endloop
  endfacet
  facet normal  1.000000e+000  -0.000000e+000  0.000000e+000
    outer loop
      vertex  6.346307e+000  2.547853e+000  6.000000e-001
      vertex  6.346307e+000  2.039092e+000  6.000000e-001
      vertex  6.346307e+000  2.547853e+000  0.000000e+000
    endloop
  endfacet
  facet normal  1.000000e+000  0.000000e+000  0.000000e+000
    outer loop
      vertex  6.346307e+000  2.547853e+000  0.000000e+000
      vertex  6.346307e+000  2.039092e+000  6.000000e-001
      vertex  6.346307e+000  2.039092e+000  0.000000e+000
    endloop
  endfacet
  facet normal  0.000000e+000 -1.000000e+000  0.000000e+000
    outer loop
      vertex  6.346307e+000  2.039092e+000  6.000000e-001
      vertex  4.878670e+000  2.039092e+000  6.000000e-001
      vertex  6.346307e+000  2.039092e+000  0.000000e+000
    endloop
  endfacet
  facet normal  0.000000e+000 -1.000000e+000  0.000000e+000
    outer loop
      vertex  6.346307e+000  2.039092e+000  0.000000e+000
      vertex  4.878670e+000  2.039092e+000  6.000000e-001
      vertex  4.878670e+000  2.039092e+000  0.000000e+000
    endloop
  endfacet
  facet normal  0.000000e+000  0.000000e+000  1.000000e+000
    outer loop
      vertex  2.768921e+000  1.304778e+000  6.000000e-001
      vertex  2.768921e+000  8.211614e-001  6.000000e-001
      vertex  3.894776e+000  1.304778e+000  6.000000e-001
    endloop
  endfacet
  facet normal  0.000000e+000  0.000000e+000  1.000000e+000
    outer loop
      vertex  3.894776e+000  1.304778e+000  6.000000e-001
      vertex  2.768921e+000  8.211614e-001  6.000000e-001
      vertex  3.360080e+000  8.211614e-001  6.000000e-001
    endloop
  endfacet
  facet normal  -0.000000e+000  0.000000e+000  9.999999e-001
    outer loop
      vertex  3.894776e+000  1.304778e+000  6.000000e-001
      vertex  3.360080e+000  8.211614e-001  6.000000e-001
      vertex  3.894776e+000 -4.206445e-001  6.000000e-001
    endloop
  endfacet
  facet normal  0.000000e+000  0.000000e+000  1.000000e+000
    outer loop
      vertex  3.894776e+000 -4.206445e-001  6.000000e-001
      vertex  3.360080e+000  8.211614e-001  6.000000e-001
      vertex  3.360080e+000  8.786348e-002  6.000000e-001
    endloop
  endfacet
  facet normal  0.000000e+000  0.000000e+000  1.000000e+000
    outer loop
      vertex  3.894776e+000 -4.206445e-001  6.000000e-001
      vertex  3.360080e+000  8.786348e-002  6.000000e-001
      vertex  1.856629e+000 -4.206445e-001  6.000000e-001
    endloop
  endfacet
  facet normal  0.000000e+000  0.000000e+000  9.999999e-001
    outer loop
      vertex  1.856629e+000 -4.206445e-001  6.000000e-001
      vertex  3.360080e+000  8.786348e-002  6.000000e-001
      vertex  2.427138e+000  8.786348e-002  6.000000e-001
    endloop
  endfacet
  facet normal  0.000000e+000  0.000000e+000  1.000000e+000
    outer loop
      vertex  1.856629e+000 -4.206445e-001  6.000000e-001
      vertex  2.427138e+000  8.786348e-002  6.000000e-001
      vertex  1.856629e+000  2.547853e+000  6.000000e-001
    endloop
  endfacet
  facet normal  0.000000e+000  0.000000e+000  1.000000e+000
    outer loop
      vertex  1.856629e+000  2.547853e+000  6.000000e-001
      vertex  2.427138e+000  8.786348e-002  6.000000e-001
      vertex  2.427138e+000  2.039092e+000  6.000000e-001
    endloop
  endfacet
  facet normal  0.000000e+000  -0.000000e+000  1.000000e+000
    outer loop
      vertex  1.856629e+000  2.547853e+000  6.000000e-001
      vertex  2.427138e+000  2.039092e+000  6.000000e-001
      vertex  3.894776e+000  2.547853e+000  6.000000e-001
    endloop
  endfacet
  facet normal  0.000000e+000  0.000000e+000  1.000000e+000
    outer loop
      vertex  3.894776e+000  2.547853e+000  6.000000e-001
      vertex  2.427138e+000  2.039092e+000  6.000000e-001
      vertex  3.894776e+000  2.039092e+000  6.000000e-001
    endloop
  endfacet
  facet normal  0.000000e+000  0.000000e+000 -9.999999e-001
    outer loop
      vertex  3.894776e+000 -4.206445e-001  0.000000e+000
      vertex  3.360080e+000  8.211614e-001  0.000000e+000
      vertex  3.894776e+000  1.304778e+000  0.000000e+000
    endloop
  endfacet
  facet normal  0.000000e+000  0.000000e+000 -1.000000e+000
    outer loop
      vertex  3.894776e+000  1.304778e+000  0.000000e+000
      vertex  3.360080e+000  8.211614e-001  0.000000e+000
      vertex  2.768921e+000  8.211614e-001  0.000000e+000
    endloop
  endfacet
  facet normal  0.000000e+000  0.000000e+000 -1.000000e+000
    outer loop
      vertex  3.894776e+000  1.304778e+000  0.000000e+000
      vertex  2.768921e+000  8.211614e-001  0.000000e+000
      vertex  2.768921e+000  1.304778e+000  0.000000e+000
    endloop
  endfacet
  facet normal  0.000000e+000  0.000000e+000 -1.000000e+000
    outer loop
      vertex  3.360080e+000  8.211614e-001  0.000000e+000
      vertex  3.894776e+000 -4.206445e-001  0.000000e+000
      vertex  3.360080e+000  8.786348e-002  0.000000e+000
    endloop
  endfacet
  facet normal  0.000000e+000  -0.000000e+000 -1.000000e+000
    outer loop
      vertex  3.360080e+000  8.786348e-002  0.000000e+000
      vertex  3.894776e+000 -4.206445e-001  0.000000e+000
      vertex  1.856629e+000 -4.206445e-001  0.000000e+000
    endloop
  endfacet
  facet normal  0.000000e+000  0.000000e+000 -9.999999e-001
    outer loop
      vertex  3.360080e+000  8.786348e-002  0.000000e+000
      vertex  1.856629e+000 -4.206445e-001  0.000000e+000
      vertex  2.427138e+000  8.786348e-002  0.000000e+000
    endloop
  endfacet
  facet normal  -0.000000e+000  0.000000e+000 -1.000000e+000
    outer loop
      vertex  2.427138e+000  8.786348e-002  0.000000e+000
      vertex  1.856629e+000 -4.206445e-001  0.000000e+000
      vertex  1.856629e+000  2.547853e+000  0.000000e+000
    endloop
  endfacet
  facet normal  0.000000e+000  0.000000e+000 -1.000000e+000
    outer loop
      vertex  2.427138e+000  8.786348e-002  0.000000e+000
      vertex  1.856629e+000  2.547853e+000  0.000000e+000
      vertex  2.427138e+000  2.039092e+000  0.000000e+000
    endloop
  endfacet
  facet normal  0.000000e+000  0.000000e+000 -1.000000e+000
    outer loop
      vertex  2.427138e+000  2.039092e+000  0.000000e+000
      vertex  1.856629e+000  2.547853e+000  0.000000e+000
      vertex  3.894776e+000  2.547853e+000  0.000000e+000
    endloop
  endfacet
  facet normal  0.000000e+000  -0.000000e+000 -1.000000e+000
    outer loop
      vertex  2.427138e+000  2.039092e+000  0.000000e+000
      vertex  3.894776e+000  2.547853e+000  0.000000e+000
      vertex  3.894776e+000  2.039092e+000  0.000000e+000
    endloop
  endfacet
  facet normal  0.000000e+000  1.000000e+000  0.000000e+000
    outer loop
      vertex  2.768921e+000  1.304778e+000  6.000000e-001
      vertex  3.894776e+000  1.304778e+000  6.000000e-001
      vertex  2.768921e+000  1.304778e+000  0.000000e+000
    endloop
  endfacet
  facet normal  0.000000e+000  1.000000e+000  0.000000e+000
    outer loop
      vertex  2.768921e+000  1.304778e+000  0.000000e+000
      vertex  3.894776e+000  1.304778e+000  6.000000e-001
      vertex  3.894776e+000  1.304778e+000  0.000000e+000
    endloop
  endfacet
  facet normal  1.000000e+000  -0.000000e+000  0.000000e+000
    outer loop
      vertex  3.894776e+000  1.304778e+000  6.000000e-001
      vertex  3.894776e+000 -4.206445e-001  6.000000e-001
      vertex  3.894776e+000  1.304778e+000  0.000000e+000
    endloop
  endfacet
  facet normal  1.000000e+000  0.000000e+000  0.000000e+000
    outer loop
      vertex  3.894776e+000  1.304778e+000  0.000000e+000
      vertex  3.894776e+000 -4.206445e-001  6.000000e-001
      vertex  3.894776e+000 -4.206445e-001  0.000000e+000
    endloop
  endfacet
  facet normal  0.000000e+000 -1.000000e+000  0.000000e+000
    outer loop
      vertex  3.894776e+000 -4.206445e-001  6.000000e-001
      vertex  1.856629e+000 -4.206445e-001  6.000000e-001
      vertex  3.894776e+000 -4.206445e-001  0.000000e+000
    endloop
  endfacet
  facet normal  0.000000e+000 -1.000000e+000  0.000000e+000
    outer loop
      vertex  3.894776e+000 -4.206445e-001  0.000000e+000
      vertex  1.856629e+000 -4.206445e-001  6.000000e-001
      vertex  1.856629e+000 -4.206445e-001  0.000000e+000
    endloop
  endfacet
  facet normal -1.000000e+000  -0.000000e+000  0.000000e+000
    outer loop
      vertex  1.856629e+000 -4.206445e-001  6.000000e-001
      vertex  1.856629e+000  2.547853e+000  6.000000e-001
      vertex  1.856629e+000 -4.206445e-001  0.000000e+000
    endloop
  endfacet
  facet normal -1.000000e+000  0.000000e+000  0.000000e+000
    outer loop
      vertex  1.856629e+000 -4.206445e-001  0.000000e+000
      vertex  1.856629e+000  2.547853e+000  6.000000e-001
      vertex  1.856629e+000  2.547853e+000  0.000000e+000
    endloop
  endfacet
  facet normal  0.000000e+000  1.000000e+000  0.000000e+000
    outer loop
      vertex  1.856629e+000  2.547853e+000  6.000000e-001
      vertex  3.894776e+000  2.547853e+000  6.000000e-001
      vertex  1.856629e+000  2.547853e+000  0.000000e+000
    endloop
  endfacet
  facet normal  0.000000e+000  1.000000e+000  0.000000e+000
    outer loop
      vertex  1.856629e+000  2.547853e+000  0.000000e+000
      vertex  3.894776e+000  2.547853e+000  6.000000e-001
      vertex  3.894776e+000  2.547853e+000  0.000000e+000
    endloop
  endfacet
  facet normal  1.000000e+000  -0.000000e+000  0.000000e+000
    outer loop
      vertex  3.894776e+000  2.547853e+000  6.000000e-001
      vertex  3.894776e+000  2.039092e+000  6.000000e-001
      vertex  3.894776e+000  2.547853e+000  0.000000e+000
    endloop
  endfacet
  facet normal  1.000000e+000  0.000000e+000  0.000000e+000
    outer loop
      vertex  3.894776e+000  2.547853e+000  0.000000e+000
      vertex  3.894776e+000  2.039092e+000  6.000000e-001
      vertex  3.894776e+000  2.039092e+000  0.000000e+000
    endloop
  endfacet
  facet normal  0.000000e+000 -1.000000e+000  0.000000e+000
    outer loop
      vertex  3.894776e+000  2.039092e+000  6.000000e-001
      vertex  2.427138e+000  2.039092e+000  6.000000e-001
      vertex  3.894776e+000  2.039092e+000  0.000000e+000
    endloop
  endfacet
  facet normal  0.000000e+000 -1.000000e+000  0.000000e+000
    outer loop
      vertex  3.894776e+000  2.039092e+000  0.000000e+000
      vertex  2.427138e+000  2.039092e+000  6.000000e-001
      vertex  2.427138e+000  2.039092e+000  0.000000e+000
    endloop
  endfacet
  facet normal  1.000000e+000  -0.000000e+000  0.000000e+000
    outer loop
      vertex  2.427138e+000  2.039092e+000  6.000000e-001
      vertex  2.427138e+000  8.786348e-002  6.000000e-001
      vertex  2.427138e+000  2.039092e+000  0.000000e+000
    endloop
  endfacet
  facet normal  1.000000e+000  0.000000e+000  0.000000e+000
    outer loop
      vertex  2.427138e+000  2.039092e+000  0.000000e+000
      vertex  2.427138e+000  8.786348e-002  6.000000e-001
      vertex  2.427138e+000  8.786348e-002  0.000000e+000
    endloop
  endfacet
  facet normal  0.000000e+000  1.000000e+000  0.000000e+000
    outer loop
      vertex  2.427138e+000  8.786348e-002  6.000000e-001
      vertex  3.360080e+000  8.786348e-002  6.000000e-001
      vertex  2.427138e+000  8.786348e-002  0.000000e+000
    endloop
  endfacet
  facet normal  0.000000e+000  1.000000e+000  0.000000e+000
    outer loop
      vertex  2.427138e+000  8.786348e-002  0.000000e+000
      vertex  3.360080e+000  8.786348e-002  6.000000e-001
      vertex  3.360080e+000  8.786348e-002  0.000000e+000
    endloop
  endfacet
  facet normal -1.000000e+000  -0.000000e+000  0.000000e+000
    outer loop
      vertex  3.360080e+000  8.786348e-002  6.000000e-001
      vertex  3.360080e+000  8.211614e-001  6.000000e-001
      vertex  3.360080e+000  8.786348e-002  0.000000e+000
    endloop
  endfacet
  facet normal -1.000000e+000  0.000000e+000  0.000000e+000
    outer loop
      vertex  3.360080e+000  8.786348e-002  0.000000e+000
      vertex  3.360080e+000  8.211614e-001  6.000000e-001
      vertex  3.360080e+000  8.211614e-001  0.000000e+000
    endloop
  endfacet
  facet normal  0.000000e+000 -1.000000e+000  0.000000e+000
    outer loop
      vertex  3.360080e+000  8.211614e-001  6.000000e-001
      vertex  2.768921e+000  8.211614e-001  6.000000e-001
      vertex  3.360080e+000  8.211614e-001  0.000000e+000
    endloop
  endfacet
  facet normal  0.000000e+000 -1.000000e+000  0.000000e+000
    outer loop
      vertex  3.360080e+000  8.211614e-001  0.000000e+000
      vertex  2.768921e+000  8.211614e-001  6.000000e-001
      vertex  2.768921e+000  8.211614e-001  0.000000e+000
    endloop
  endfacet
  facet normal -1.000000e+000  0.000000e+000  0.000000e+000
    outer loop
      vertex  2.768921e+000  8.211614e-001  0.000000e+000
      vertex  2.768921e+000  8.211614e-001  6.000000e-001
      vertex  2.768921e+000  1.304778e+000  0.000000e+000
    endloop
  endfacet
  facet normal -1.000000e+000  0.000000e+000  0.000000e+000
    outer loop
      vertex  2.768921e+000  1.304778e+000  0.000000e+000
      vertex  2.768921e+000  8.211614e-001  6.000000e-001
      vertex  2.768921e+000  1.304778e+000  6.000000e-001
    endloop
  endfacet
  facet normal  0.000000e+000  0.000000e+000  1.000000e+000
    outer loop
      vertex -2.436810e-002  8.211614e-001  6.000000e-001
      vertex  1.768253e-001  8.211614e-001  6.000000e-001
      vertex -2.436810e-002  1.304778e+000  6.000000e-001
    endloop
  endfacet
  facet normal  0.000000e+000  0.000000e+000  1.000000e+000
    outer loop
      vertex -2.436810e-002  8.211614e-001  6.000000e-001
      vertex -2.436810e-002  1.304778e+000  6.000000e-001
      vertex -5.948775e-001  2.547853e+000  6.000000e-001
    endloop
  endfacet
  facet normal  0.000000e+000  0.000000e+000  9.999999e-001
    outer loop
      vertex -2.436810e-002  8.211614e-001  6.000000e-001
      vertex -5.948775e-001  2.547853e+000  6.000000e-001
      vertex -5.948775e-001 -4.206445e-001  6.000000e-001
    endloop
  endfacet
  facet normal  0.000000e+000  0.000000e+000  1.000000e+000
    outer loop
      vertex -2.436810e-002  8.211614e-001  6.000000e-001
      vertex -5.948775e-001 -4.206445e-001  6.000000e-001
      vertex -2.436810e-002 -4.206445e-001  6.000000e-001
    endloop
  endfacet
  facet normal  0.000000e+000  0.000000e+000  1.000000e+000
    outer loop
      vertex  9.085485e-001 -4.206445e-001  6.000000e-001
      vertex  1.443218e+000 -4.206445e-001  6.000000e-001
      vertex  1.768253e-001  8.211614e-001  6.000000e-001
    endloop
  endfacet
  facet normal  -0.000000e+000  0.000000e+000  1.000000e+000
    outer loop
      vertex  1.768253e-001  8.211614e-001  6.000000e-001
      vertex  1.443218e+000 -4.206445e-001  6.000000e-001
      vertex  7.473347e-001  8.211614e-001  6.000000e-001
    endloop
  endfacet
  facet normal  0.000000e+000  0.000000e+000  1.000000e+000
    outer loop
      vertex  1.768253e-001  8.211614e-001  6.000000e-001
      vertex  7.473347e-001  8.211614e-001  6.000000e-001
      vertex -2.436810e-002  1.304778e+000  6.000000e-001
    endloop
  endfacet
  facet normal  0.000000e+000  -0.000000e+000  1.000000e+000
    outer loop
      vertex -2.436810e-002  1.304778e+000  6.000000e-001
      vertex  7.473347e-001  8.211614e-001  6.000000e-001
      vertex  9.085485e-001  1.304778e+000  6.000000e-001
    endloop
  endfacet
  facet normal  0.000000e+000  0.000000e+000  9.999999e-001
    outer loop
      vertex  9.085485e-001  1.304778e+000  6.000000e-001
      vertex  7.473347e-001  8.211614e-001  6.000000e-001
      vertex  1.443218e+000  8.211614e-001  6.000000e-001
    endloop
  endfacet
  facet normal  0.000000e+000  0.000000e+000  9.999999e-001
    outer loop
      vertex  9.085485e-001  1.304778e+000  6.000000e-001
      vertex  1.443218e+000  8.211614e-001  6.000000e-001
      vertex  9.085485e-001  2.039092e+000  6.000000e-001
    endloop
  endfacet
  facet normal  -0.000000e+000  0.000000e+000  1.000000e+000
    outer loop
      vertex  9.085485e-001  2.039092e+000  6.000000e-001
      vertex  1.443218e+000  8.211614e-001  6.000000e-001
      vertex  1.443218e+000  2.547853e+000  6.000000e-001
    endloop
  endfacet
  facet normal  0.000000e+000  0.000000e+000  9.999999e-001
    outer loop
      vertex  9.085485e-001  2.039092e+000  6.000000e-001
      vertex  1.443218e+000  2.547853e+000  6.000000e-001
      vertex -2.436810e-002  2.039092e+000  6.000000e-001
    endloop
  endfacet
  facet normal  0.000000e+000  -0.000000e+000  1.000000e+000
    outer loop
      vertex -2.436810e-002  2.039092e+000  6.000000e-001
      vertex  1.443218e+000  2.547853e+000  6.000000e-001
      vertex -5.948775e-001  2.547853e+000  6.000000e-001
    endloop
  endfacet
  facet normal  0.000000e+000  0.000000e+000  9.999999e-001
    outer loop
      vertex -2.436810e-002  2.039092e+000  6.000000e-001
      vertex -5.948775e-001  2.547853e+000  6.000000e-001
      vertex -2.436810e-002  1.304778e+000  6.000000e-001
    endloop
  endfacet
  facet normal  0.000000e+000  0.000000e+000 -1.000000e+000
    outer loop
      vertex -2.436810e-002  8.211614e-001  0.000000e+000
      vertex -2.436810e-002 -4.206445e-001  0.000000e+000
      vertex -5.948775e-001 -4.206445e-001  0.000000e+000
    endloop
  endfacet
  facet normal  0.000000e+000  0.000000e+000 -9.999999e-001
    outer loop
      vertex -2.436810e-002  8.211614e-001  0.000000e+000
      vertex -5.948775e-001 -4.206445e-001  0.000000e+000
      vertex -5.948775e-001  2.547853e+000  0.000000e+000
    endloop
  endfacet
  facet normal  0.000000e+000  0.000000e+000 -1.000000e+000
    outer loop
      vertex -2.436810e-002  8.211614e-001  0.000000e+000
      vertex -5.948775e-001  2.547853e+000  0.000000e+000
      vertex -2.436810e-002  1.304778e+000  0.000000e+000
    endloop
  endfacet
  facet normal  0.000000e+000  0.000000e+000 -1.000000e+000
    outer loop
      vertex -2.436810e-002  8.211614e-001  0.000000e+000
      vertex -2.436810e-002  1.304778e+000  0.000000e+000
      vertex  1.768253e-001  8.211614e-001  0.000000e+000
    endloop
  endfacet
  facet normal  0.000000e+000  0.000000e+000 -1.000000e+000
    outer loop
      vertex -2.436810e-002  1.304778e+000  0.000000e+000
      vertex  7.473347e-001  8.211614e-001  0.000000e+000
      vertex  1.768253e-001  8.211614e-001  0.000000e+000
    endloop
  endfacet
  facet normal  0.000000e+000  0.000000e+000 -1.000000e+000
    outer loop
      vertex  1.768253e-001  8.211614e-001  0.000000e+000
      vertex  7.473347e-001  8.211614e-001  0.000000e+000
      vertex  1.443218e+000 -4.206445e-001  0.000000e+000
    endloop
  endfacet
  facet normal  0.000000e+000  0.000000e+000 -1.000000e+000
    outer loop
      vertex  1.768253e-001  8.211614e-001  0.000000e+000
      vertex  1.443218e+000 -4.206445e-001  0.000000e+000
      vertex  9.085485e-001 -4.206445e-001  0.000000e+000
    endloop
  endfacet
  facet normal  0.000000e+000  0.000000e+000 -9.999999e-001
    outer loop
      vertex -2.436810e-002  1.304778e+000  0.000000e+000
      vertex -5.948775e-001  2.547853e+000  0.000000e+000
      vertex -2.436810e-002  2.039092e+000  0.000000e+000
    endloop
  endfacet
  facet normal  0.000000e+000  0.000000e+000 -1.000000e+000
    outer loop
      vertex -2.436810e-002  2.039092e+000  0.000000e+000
      vertex -5.948775e-001  2.547853e+000  0.000000e+000
      vertex  1.443218e+000  2.547853e+000  0.000000e+000
    endloop
  endfacet
  facet normal  0.000000e+000  0.000000e+000 -9.999999e-001
    outer loop
      vertex -2.436810e-002  2.039092e+000  0.000000e+000
      vertex  1.443218e+000  2.547853e+000  0.000000e+000
      vertex  9.085485e-001  2.039092e+000  0.000000e+000
    endloop
  endfacet
  facet normal  0.000000e+000  0.000000e+000 -1.000000e+000
    outer loop
      vertex  9.085485e-001  2.039092e+000  0.000000e+000
      vertex  1.443218e+000  2.547853e+000  0.000000e+000
      vertex  1.443218e+000  8.211614e-001  0.000000e+000
    endloop
  endfacet
  facet normal  0.000000e+000  0.000000e+000 -9.999999e-001
    outer loop
      vertex  9.085485e-001  2.039092e+000  0.000000e+000
      vertex  1.443218e+000  8.211614e-001  0.000000e+000
      vertex  9.085485e-001  1.304778e+000  0.000000e+000
    endloop
  endfacet
  facet normal  0.000000e+000  -0.000000e+000 -9.999999e-001
    outer loop
      vertex  9.085485e-001  1.304778e+000  0.000000e+000
      vertex  1.443218e+000  8.211614e-001  0.000000e+000
      vertex  7.473347e-001  8.211614e-001  0.000000e+000
    endloop
  endfacet
  facet normal  0.000000e+000  0.000000e+000 -1.000000e+000
    outer loop
      vertex  9.085485e-001  1.304778e+000  0.000000e+000
      vertex  7.473347e-001  8.211614e-001  0.000000e+000
      vertex -2.436810e-002  1.304778e+000  0.000000e+000
    endloop
  endfacet
  facet normal  0.000000e+000  1.000000e+000  0.000000e+000
    outer loop
      vertex -2.436810e-002  1.304778e+000  6.000000e-001
      vertex  9.085485e-001  1.304778e+000  6.000000e-001
      vertex -2.436810e-002  1.304778e+000  0.000000e+000
    endloop
  endfacet
  facet normal  0.000000e+000  1.000000e+000  0.000000e+000
    outer loop
      vertex -2.436810e-002  1.304778e+000  0.000000e+000
      vertex  9.085485e-001  1.304778e+000  6.000000e-001
      vertex  9.085485e-001  1.304778e+000  0.000000e+000
    endloop
  endfacet
  facet normal -1.000000e+000  -0.000000e+000  0.000000e+000
    outer loop
      vertex  9.085485e-001  1.304778e+000  6.000000e-001
      vertex  9.085485e-001  2.039092e+000  6.000000e-001
      vertex  9.085485e-001  1.304778e+000  0.000000e+000
    endloop
  endfacet
  facet normal -1.000000e+000  0.000000e+000  0.000000e+000
    outer loop
      vertex  9.085485e-001  1.304778e+000  0.000000e+000
      vertex  9.085485e-001  2.039092e+000  6.000000e-001
      vertex  9.085485e-001  2.039092e+000  0.000000e+000
    endloop
  endfacet
  facet normal  0.000000e+000 -1.000000e+000  0.000000e+000
    outer loop
      vertex  9.085485e-001  2.039092e+000  6.000000e-001
      vertex -2.436810e-002  2.039092e+000  6.000000e-001
      vertex  9.085485e-001  2.039092e+000  0.000000e+000
    endloop
  endfacet
  facet normal  0.000000e+000 -1.000000e+000  0.000000e+000
    outer loop
      vertex  9.085485e-001  2.039092e+000  0.000000e+000
      vertex -2.436810e-002  2.039092e+000  6.000000e-001
      vertex -2.436810e-002  2.039092e+000  0.000000e+000
    endloop
  endfacet
  facet normal  1.000000e+000  -0.000000e+000  0.000000e+000
    outer loop
      vertex -2.436810e-002  2.039092e+000  6.000000e-001
      vertex -2.436810e-002  1.304778e+000  6.000000e-001
      vertex -2.436810e-002  2.039092e+000  0.000000e+000
    endloop
  endfacet
  facet normal  1.000000e+000  0.000000e+000  0.000000e+000
    outer loop
      vertex -2.436810e-002  2.039092e+000  0.000000e+000
      vertex -2.436810e-002  1.304778e+000  6.000000e-001
      vertex -2.436810e-002  1.304778e+000  0.000000e+000
    endloop
  endfacet
  facet normal -1.000000e+000  -0.000000e+000  0.000000e+000
    outer loop
      vertex -5.948775e-001 -4.206445e-001  6.000000e-001
      vertex -5.948775e-001  2.547853e+000  6.000000e-001
      vertex -5.948775e-001 -4.206445e-001  0.000000e+000
    endloop
  endfacet
  facet normal -1.000000e+000  0.000000e+000  0.000000e+000
    outer loop
      vertex -5.948775e-001 -4.206445e-001  0.000000e+000
      vertex -5.948775e-001  2.547853e+000  6.000000e-001
      vertex -5.948775e-001  2.547853e+000  0.000000e+000
    endloop
  endfacet
  facet normal  0.000000e+000  1.000000e+000  0.000000e+000
    outer loop
      vertex -5.948775e-001  2.547853e+000  6.000000e-001
      vertex  1.443218e+000  2.547853e+000  6.000000e-001
      vertex -5.948775e-001  2.547853e+000  0.000000e+000
    endloop
  endfacet
  facet normal  0.000000e+000  1.000000e+000  0.000000e+000
    outer loop
      vertex -5.948775e-001  2.547853e+000  0.000000e+000
      vertex  1.443218e+000  2.547853e+000  6.000000e-001
      vertex  1.443218e+000  2.547853e+000  0.000000e+000
    endloop
  endfacet
  facet normal  1.000000e+000  -0.000000e+000  0.000000e+000
    outer loop
      vertex  1.443218e+000  2.547853e+000  6.000000e-001
      vertex  1.443218e+000  8.211614e-001  6.000000e-001
      vertex  1.443218e+000  2.547853e+000  0.000000e+000
    endloop
  endfacet
  facet normal  1.000000e+000  0.000000e+000  0.000000e+000
    outer loop
      vertex  1.443218e+000  2.547853e+000  0.000000e+000
      vertex  1.443218e+000  8.211614e-001  6.000000e-001
      vertex  1.443218e+000  8.211614e-001  0.000000e+000
    endloop
  endfacet
  facet normal  0.000000e+000 -1.000000e+000  0.000000e+000
    outer loop
      vertex  1.443218e+000  8.211614e-001  6.000000e-001
      vertex  7.473347e-001  8.211614e-001  6.000000e-001
      vertex  1.443218e+000  8.211614e-001  0.000000e+000
    endloop
  endfacet
  facet normal  0.000000e+000 -1.000000e+000  0.000000e+000
    outer loop
      vertex  1.443218e+000  8.211614e-001  0.000000e+000
      vertex  7.473347e-001  8.211614e-001  6.000000e-001
      vertex  7.473347e-001  8.211614e-001  0.000000e+000
    endloop
  endfacet
  facet normal  8.723645e-001  4.888560e-001  0.000000e+000
    outer loop
      vertex  7.473347e-001  8.211614e-001  6.000000e-001
      vertex  1.443218e+000 -4.206445e-001  6.000000e-001
      vertex  7.473347e-001  8.211614e-001  0.000000e+000
    endloop
  endfacet
  facet normal  8.723645e-001  4.888560e-001  0.000000e+000
    outer loop
      vertex  7.473347e-001  8.211614e-001  0.000000e+000
      vertex  1.443218e+000 -4.206445e-001  6.000000e-001
      vertex  1.443218e+000 -4.206445e-001  0.000000e+000
    endloop
  endfacet
  facet normal  0.000000e+000 -1.000000e+000  0.000000e+000
    outer loop
      vertex  1.443218e+000 -4.206445e-001  6.000000e-001
      vertex  9.085485e-001 -4.206445e-001  6.000000e-001
      vertex  1.443218e+000 -4.206445e-001  0.000000e+000
    endloop
  endfacet
  facet normal  0.000000e+000 -1.000000e+000  0.000000e+000
    outer loop
      vertex  1.443218e+000 -4.206445e-001  0.000000e+000
      vertex  9.085485e-001 -4.206445e-001  6.000000e-001
      vertex  9.085485e-001 -4.206445e-001  0.000000e+000
    endloop
  endfacet
  facet normal -8.615553e-001 -5.076638e-001  0.000000e+000
    outer loop
      vertex  9.085485e-001 -4.206445e-001  6.000000e-001
      vertex  1.768253e-001  8.211614e-001  6.000000e-001
      vertex  9.085485e-001 -4.206445e-001  0.000000e+000
    endloop
  endfacet
  facet normal -8.615553e-001 -5.076638e-001  0.000000e+000
    outer loop
      vertex  9.085485e-001 -4.206445e-001  0.000000e+000
      vertex  1.768253e-001  8.211614e-001  6.000000e-001
      vertex  1.768253e-001  8.211614e-001  0.000000e+000
    endloop
  endfacet
  facet normal  0.000000e+000 -9.999999e-001  0.000000e+000
    outer loop
      vertex  1.768253e-001  8.211614e-001  6.000000e-001
      vertex -2.436810e-002  8.211614e-001  6.000000e-001
      vertex  1.768253e-001  8.211614e-001  0.000000e+000
    endloop
  endfacet
  facet normal  0.000000e+000 -9.999999e-001  0.000000e+000
    outer loop
      vertex  1.768253e-001  8.211614e-001  0.000000e+000
      vertex -2.436810e-002  8.211614e-001  6.000000e-001
      vertex -2.436810e-002  8.211614e-001  0.000000e+000
    endloop
  endfacet
  facet normal  1.000000e+000  -0.000000e+000  0.000000e+000
    outer loop
      vertex -2.436810e-002  8.211614e-001  6.000000e-001
      vertex -2.436810e-002 -4.206445e-001  6.000000e-001
      vertex -2.436810e-002  8.211614e-001  0.000000e+000
    endloop
  endfacet
  facet normal  1.000000e+000  0.000000e+000  0.000000e+000
    outer loop
      vertex -2.436810e-002  8.211614e-001  0.000000e+000
      vertex -2.436810e-002 -4.206445e-001  6.000000e-001
      vertex -2.436810e-002 -4.206445e-001  0.000000e+000
    endloop
  endfacet
  facet normal  0.000000e+000 -1.000000e+000  0.000000e+000
    outer loop
      vertex -2.436810e-002 -4.206445e-001  6.000000e-001
      vertex -5.948775e-001 -4.206445e-001  6.000000e-001
      vertex -2.436810e-002 -4.206445e-001  0.000000e+000
    endloop
  endfacet
  facet normal  0.000000e+000 -1.000000e+000  0.000000e+000
    outer loop
      vertex -2.436810e-002 -4.206445e-001  0.000000e+000
      vertex -5.948775e-001 -4.206445e-001  6.000000e-001
      vertex -5.948775e-001 -4.206445e-001  0.000000e+000
    endloop
  endfacet
  facet normal  0.000000e+000  -0.000000e+000  1.000000e+000
    outer loop
      vertex -2.475900e+000  2.039092e+000  6.000000e-001
      vertex -1.008313e+000  2.039092e+000  6.000000e-001
      vertex -1.008313e+000  2.547853e+000  6.000000e-001
    endloop
  endfacet
  facet normal  0.000000e+000  0.000000e+000  1.000000e+000
    outer loop
      vertex -3.046409e+000  2.547853e+000  6.000000e-001
      vertex -3.046409e+000 -4.206445e-001  6.000000e-001
      vertex -2.475900e+000  8.786348e-002  6.000000e-001
    endloop
  endfacet
  facet normal  0.000000e+000  -0.000000e+000  1.000000e+000
    outer loop
      vertex -3.046409e+000  2.547853e+000  6.000000e-001
      vertex -2.475900e+000  8.786348e-002  6.000000e-001
      vertex -2.475900e+000  8.211614e-001  6.000000e-001
    endloop
  endfacet
  facet normal  0.000000e+000  -0.000000e+000  1.000000e+000
    outer loop
      vertex -3.046409e+000  2.547853e+000  6.000000e-001
      vertex -2.475900e+000  8.211614e-001  6.000000e-001
      vertex -2.475900e+000  1.304778e+000  6.000000e-001
    endloop
  endfacet
  facet normal  0.000000e+000  -0.000000e+000  1.000000e+000
    outer loop
      vertex -3.046409e+000  2.547853e+000  6.000000e-001
      vertex -2.475900e+000  1.304778e+000  6.000000e-001
      vertex -2.475900e+000  2.039092e+000  6.000000e-001
    endloop
  endfacet
  facet normal  0.000000e+000  -0.000000e+000  1.000000e+000
    outer loop
      vertex -3.046409e+000  2.547853e+000  6.000000e-001
      vertex -2.475900e+000  2.039092e+000  6.000000e-001
      vertex -1.008313e+000  2.547853e+000  6.000000e-001
    endloop
  endfacet
  facet normal  0.000000e+000  0.000000e+000  9.999999e-001
    outer loop
      vertex -2.475900e+000  8.211614e-001  6.000000e-001
      vertex -1.008313e+000  8.211614e-001  6.000000e-001
      vertex -2.475900e+000  1.304778e+000  6.000000e-001
    endloop
  endfacet
  facet normal  -0.000000e+000  0.000000e+000  9.999999e-001
    outer loop
      vertex -2.475900e+000  1.304778e+000  6.000000e-001
      vertex -1.008313e+000  8.211614e-001  6.000000e-001
      vertex -1.008313e+000  1.304778e+000  6.000000e-001
    endloop
  endfacet
  facet normal  0.000000e+000  0.000000e+000  1.000000e+000
    outer loop
      vertex -3.046409e+000 -4.206445e-001  6.000000e-001
      vertex -1.008313e+000 -4.206445e-001  6.000000e-001
      vertex -2.475900e+000  8.786348e-002  6.000000e-001
    endloop
  endfacet
  facet normal  -0.000000e+000  0.000000e+000  1.000000e+000
    outer loop
      vertex -2.475900e+000  8.786348e-002  6.000000e-001
      vertex -1.008313e+000 -4.206445e-001  6.000000e-001
      vertex -1.008313e+000  8.786348e-002  6.000000e-001
    endloop
  endfacet
  facet normal  0.000000e+000  0.000000e+000 -1.000000e+000
    outer loop
      vertex -1.008313e+000  2.547853e+000  0.000000e+000
      vertex -1.008313e+000  2.039092e+000  0.000000e+000
      vertex -2.475900e+000  2.039092e+000  0.000000e+000
    endloop
  endfacet
  facet normal  -0.000000e+000  0.000000e+000 -1.000000e+000
    outer loop
      vertex -3.046409e+000  2.547853e+000  0.000000e+000
      vertex -1.008313e+000  2.547853e+000  0.000000e+000
      vertex -2.475900e+000  2.039092e+000  0.000000e+000
    endloop
  endfacet
  facet normal  -0.000000e+000  -0.000000e+000 -1.000000e+000
    outer loop
      vertex -3.046409e+000  2.547853e+000  0.000000e+000
      vertex -2.475900e+000  2.039092e+000  0.000000e+000
      vertex -2.475900e+000  1.304778e+000  0.000000e+000
    endloop
  endfacet
  facet normal  -0.000000e+000  -0.000000e+000 -1.000000e+000
    outer loop
      vertex -3.046409e+000  2.547853e+000  0.000000e+000
      vertex -2.475900e+000  1.304778e+000  0.000000e+000
      vertex -2.475900e+000  8.211614e-001  0.000000e+000
    endloop
  endfacet
  facet normal  -0.000000e+000  -0.000000e+000 -1.000000e+000
    outer loop
      vertex -3.046409e+000  2.547853e+000  0.000000e+000
      vertex -2.475900e+000  8.211614e-001  0.000000e+000
      vertex -2.475900e+000  8.786348e-002  0.000000e+000
    endloop
  endfacet
  facet normal  -0.000000e+000  0.000000e+000 -1.000000e+000
    outer loop
      vertex -3.046409e+000  2.547853e+000  0.000000e+000
      vertex -2.475900e+000  8.786348e-002  0.000000e+000
      vertex -3.046409e+000 -4.206445e-001  0.000000e+000
    endloop
  endfacet
  facet normal  0.000000e+000  0.000000e+000 -9.999999e-001
    outer loop
      vertex -2.475900e+000  8.211614e-001  0.000000e+000
      vertex -2.475900e+000  1.304778e+000  0.000000e+000
      vertex -1.008313e+000  8.211614e-001  0.000000e+000
    endloop
  endfacet
  facet normal  0.000000e+000  0.000000e+000 -9.999999e-001
    outer loop
      vertex -1.008313e+000  8.211614e-001  0.000000e+000
      vertex -2.475900e+000  1.304778e+000  0.000000e+000
      vertex -1.008313e+000  1.304778e+000  0.000000e+000
    endloop
  endfacet
  facet normal  0.000000e+000  -0.000000e+000 -1.000000e+000
    outer loop
      vertex -3.046409e+000 -4.206445e-001  0.000000e+000
      vertex -2.475900e+000  8.786348e-002  0.000000e+000
      vertex -1.008313e+000 -4.206445e-001  0.000000e+000
    endloop
  endfacet
  facet normal  0.000000e+000  0.000000e+000 -1.000000e+000
    outer loop
      vertex -1.008313e+000 -4.206445e-001  0.000000e+000
      vertex -2.475900e+000  8.786348e-002  0.000000e+000
      vertex -1.008313e+000  8.786348e-002  0.000000e+000
    endloop
  endfacet
  facet normal  1.000000e+000  -0.000000e+000  0.000000e+000
    outer loop
      vertex -2.475900e+000  2.039092e+000  6.000000e-001
      vertex -2.475900e+000  1.304778e+000  6.000000e-001
      vertex -2.475900e+000  2.039092e+000  0.000000e+000
    endloop
  endfacet
  facet normal  1.000000e+000  0.000000e+000  0.000000e+000
    outer loop
      vertex -2.475900e+000  2.039092e+000  0.000000e+000
      vertex -2.475900e+000  1.304778e+000  6.000000e-001
      vertex -2.475900e+000  1.304778e+000  0.000000e+000
    endloop
  endfacet
  facet normal  0.000000e+000  9.999999e-001  0.000000e+000
    outer loop
      vertex -2.475900e+000  1.304778e+000  6.000000e-001
      vertex -1.008313e+000  1.304778e+000  6.000000e-001
      vertex -2.475900e+000  1.304778e+000  0.000000e+000
    endloop
  endfacet
  facet normal  0.000000e+000  9.999999e-001  0.000000e+000
    outer loop
      vertex -2.475900e+000  1.304778e+000  0.000000e+000
      vertex -1.008313e+000  1.304778e+000  6.000000e-001
      vertex -1.008313e+000  1.304778e+000  0.000000e+000
    endloop
  endfacet
  facet normal  1.000000e+000  -0.000000e+000  0.000000e+000
    outer loop
      vertex -1.008313e+000  1.304778e+000  6.000000e-001
      vertex -1.008313e+000  8.211614e-001  6.000000e-001
      vertex -1.008313e+000  1.304778e+000  0.000000e+000
    endloop
  endfacet
  facet normal  1.000000e+000  0.000000e+000  0.000000e+000
    outer loop
      vertex -1.008313e+000  1.304778e+000  0.000000e+000
      vertex -1.008313e+000  8.211614e-001  6.000000e-001
      vertex -1.008313e+000  8.211614e-001  0.000000e+000
    endloop
  endfacet
  facet normal  0.000000e+000 -9.999999e-001  0.000000e+000
    outer loop
      vertex -1.008313e+000  8.211614e-001  6.000000e-001
      vertex -2.475900e+000  8.211614e-001  6.000000e-001
      vertex -1.008313e+000  8.211614e-001  0.000000e+000
    endloop
  endfacet
  facet normal  0.000000e+000 -9.999999e-001  0.000000e+000
    outer loop
      vertex -1.008313e+000  8.211614e-001  0.000000e+000
      vertex -2.475900e+000  8.211614e-001  6.000000e-001
      vertex -2.475900e+000  8.211614e-001  0.000000e+000
    endloop
  endfacet
  facet normal  1.000000e+000  -0.000000e+000  0.000000e+000
    outer loop
      vertex -2.475900e+000  8.211614e-001  6.000000e-001
      vertex -2.475900e+000  8.786348e-002  6.000000e-001
      vertex -2.475900e+000  8.211614e-001  0.000000e+000
    endloop
  endfacet
  facet normal  1.000000e+000  0.000000e+000  0.000000e+000
    outer loop
      vertex -2.475900e+000  8.211614e-001  0.000000e+000
      vertex -2.475900e+000  8.786348e-002  6.000000e-001
      vertex -2.475900e+000  8.786348e-002  0.000000e+000
    endloop
  endfacet
  facet normal  0.000000e+000  9.999999e-001  0.000000e+000
    outer loop
      vertex -2.475900e+000  8.786348e-002  6.000000e-001
      vertex -1.008313e+000  8.786348e-002  6.000000e-001
      vertex -2.475900e+000  8.786348e-002  0.000000e+000
    endloop
  endfacet
  facet normal  0.000000e+000  9.999999e-001  0.000000e+000
    outer loop
      vertex -2.475900e+000  8.786348e-002  0.000000e+000
      vertex -1.008313e+000  8.786348e-002  6.000000e-001
      vertex -1.008313e+000  8.786348e-002  0.000000e+000
    endloop
  endfacet
  facet normal  1.000000e+000  -0.000000e+000  0.000000e+000
    outer loop
      vertex -1.008313e+000  8.786348e-002  6.000000e-001
      vertex -1.008313e+000 -4.206445e-001  6.000000e-001
      vertex -1.008313e+000  8.786348e-002  0.000000e+000
    endloop
  endfacet
  facet normal  1.000000e+000  0.000000e+000  0.000000e+000
    outer loop
      vertex -1.008313e+000  8.786348e-002  0.000000e+000
      vertex -1.008313e+000 -4.206445e-001  6.000000e-001
      vertex -1.008313e+000 -4.206445e-001  0.000000e+000
    endloop
  endfacet
  facet normal  0.000000e+000 -1.000000e+000  0.000000e+000
    outer loop
      vertex -1.008313e+000 -4.206445e-001  6.000000e-001
      vertex -3.046409e+000 -4.206445e-001  6.000000e-001
      vertex -1.008313e+000 -4.206445e-001  0.000000e+000
    endloop
  endfacet
  facet normal  0.000000e+000 -1.000000e+000  0.000000e+000
    outer loop
      vertex -1.008313e+000 -4.206445e-001  0.000000e+000
      vertex -3.046409e+000 -4.206445e-001  6.000000e-001
      vertex -3.046409e+000 -4.206445e-001  0.000000e+000
    endloop
  endfacet
  facet normal -1.000000e+000  -0.000000e+000  0.000000e+000
    outer loop
      vertex -3.046409e+000 -4.206445e-001  6.000000e-001
      vertex -3.046409e+000  2.547853e+000  6.000000e-001
      vertex -3.046409e+000 -4.206445e-001  0.000000e+000
    endloop
  endfacet
  facet normal -1.000000e+000  0.000000e+000  0.000000e+000
    outer loop
      vertex -3.046409e+000 -4.206445e-001  0.000000e+000
      vertex -3.046409e+000  2.547853e+000  6.000000e-001
      vertex -3.046409e+000  2.547853e+000  0.000000e+000
    endloop
  endfacet
  facet normal  0.000000e+000  1.000000e+000  0.000000e+000
    outer loop
      vertex -3.046409e+000  2.547853e+000  6.000000e-001
      vertex -1.008313e+000  2.547853e+000  6.000000e-001
      vertex -3.046409e+000  2.547853e+000  0.000000e+000
    endloop
  endfacet
  facet normal  0.000000e+000  1.000000e+000  0.000000e+000
    outer loop
      vertex -3.046409e+000  2.547853e+000  0.000000e+000
      vertex -1.008313e+000  2.547853e+000  6.000000e-001
      vertex -1.008313e+000  2.547853e+000  0.000000e+000
    endloop
  endfacet
  facet normal  1.000000e+000  -0.000000e+000  0.000000e+000
    outer loop
      vertex -1.008313e+000  2.547853e+000  6.000000e-001
      vertex -1.008313e+000  2.039092e+000  6.000000e-001
      vertex -1.008313e+000  2.547853e+000  0.000000e+000
    endloop
  endfacet
  facet normal  1.000000e+000  0.000000e+000  0.000000e+000
    outer loop
      vertex -1.008313e+000  2.547853e+000  0.000000e+000
      vertex -1.008313e+000  2.039092e+000  6.000000e-001
      vertex -1.008313e+000  2.039092e+000  0.000000e+000
    endloop
  endfacet
  facet normal  0.000000e+000 -9.999999e-001  0.000000e+000
    outer loop
      vertex -1.008313e+000  2.039092e+000  6.000000e-001
      vertex -2.475900e+000  2.039092e+000  6.000000e-001
      vertex -1.008313e+000  2.039092e+000  0.000000e+000
    endloop
  endfacet
  facet normal  0.000000e+000 -9.999999e-001  0.000000e+000
    outer loop
      vertex -1.008313e+000  2.039092e+000  0.000000e+000
      vertex -2.475900e+000  2.039092e+000  6.000000e-001
      vertex -2.475900e+000  2.039092e+000  0.000000e+000
    endloop
  endfacet
  facet normal  0.000000e+000  0.000000e+000  9.999999e-001
    outer loop
      vertex -4.030354e+000 -4.206445e-001  6.000000e-001
      vertex -3.459820e+000 -4.206445e-001  6.000000e-001
      vertex -4.030354e+000  2.547853e+000  6.000000e-001
    endloop
  endfacet
  facet normal  -0.000000e+000  0.000000e+000  9.999999e-001
    outer loop
      vertex -4.030354e+000  2.547853e+000  6.000000e-001
      vertex -3.459820e+000 -4.206445e-001  6.000000e-001
      vertex -3.459820e+000  2.547853e+000  6.000000e-001
    endloop
  endfacet
  facet normal  0.000000e+000  0.000000e+000 -9.999999e-001
    outer loop
      vertex -4.030354e+000 -4.206445e-001  0.000000e+000
      vertex -4.030354e+000  2.547853e+000  0.000000e+000
      vertex -3.459820e+000 -4.206445e-001  0.000000e+000
    endloop
  endfacet
  facet normal  0.000000e+000  0.000000e+000 -9.999999e-001
    outer loop
      vertex -3.459820e+000 -4.206445e-001  0.000000e+000
      vertex -4.030354e+000  2.547853e+000  0.000000e+000
      vertex -3.459820e+000  2.547853e+000  0.000000e+000
    endloop
  endfacet
  facet normal  0.000000e+000  1.000000e+000  0.000000e+000
    outer loop
      vertex -4.030354e+000  2.547853e+000  6.000000e-001
      vertex -3.459820e+000  2.547853e+000  6.000000e-001
      vertex -4.030354e+000  2.547853e+000  0.000000e+000
    endloop
  endfacet
  facet normal  0.000000e+000  1.000000e+000  0.000000e+000
    outer loop
      vertex -4.030354e+000  2.547853e+000  0.000000e+000
      vertex -3.459820e+000  2.547853e+000  6.000000e-001
      vertex -3.459820e+000  2.547853e+000  0.000000e+000
    endloop
  endfacet
  facet normal  1.000000e+000  -0.000000e+000  0.000000e+000
    outer loop
      vertex -3.459820e+000  2.547853e+000  6.000000e-001
      vertex -3.459820e+000 -4.206445e-001  6.000000e-001
      vertex -3.459820e+000  2.547853e+000  0.000000e+000
    endloop
  endfacet
  facet normal  1.000000e+000  0.000000e+000  0.000000e+000
    outer loop
      vertex -3.459820e+000  2.547853e+000  0.000000e+000
      vertex -3.459820e+000 -4.206445e-001  6.000000e-001
      vertex -3.459820e+000 -4.206445e-001  0.000000e+000
    endloop
  endfacet
  facet normal  0.000000e+000 -1.000000e+000  0.000000e+000
    outer loop
      vertex -3.459820e+000 -4.206445e-001  6.000000e-001
      vertex -4.030354e+000 -4.206445e-001  6.000000e-001
      vertex -3.459820e+000 -4.206445e-001  0.000000e+000
    endloop
  endfacet
  facet normal  0.000000e+000 -1.000000e+000  0.000000e+000
    outer loop
      vertex -3.459820e+000 -4.206445e-001  0.000000e+000
      vertex -4.030354e+000 -4.206445e-001  6.000000e-001
      vertex -4.030354e+000 -4.206445e-001  0.000000e+000
    endloop
  endfacet
  facet normal -1.000000e+000  -0.000000e+000  0.000000e+000
    outer loop
      vertex -4.030354e+000 -4.206445e-001  6.000000e-001
      vertex -4.030354e+000  2.547853e+000  6.000000e-001
      vertex -4.030354e+000 -4.206445e-001  0.000000e+000
    endloop
  endfacet
  facet normal -1.000000e+000  0.000000e+000  0.000000e+000
    outer loop
      vertex -4.030354e+000 -4.206445e-001  0.000000e+000
      vertex -4.030354e+000  2.547853e+000  6.000000e-001
      vertex -4.030354e+000  2.547853e+000  0.000000e+000
    endloop
  endfacet
  facet normal  -0.000000e+000  0.000000e+000  1.000000e+000
    outer loop
      vertex -4.443765e+000  2.547853e+000  6.000000e-001
      vertex -4.978435e+000  2.547853e+000  6.000000e-001
      vertex -5.090043e+000 -4.206445e-001  6.000000e-001
    endloop
  endfacet
  facet normal  0.000000e+000  -0.000000e+000  1.000000e+000
    outer loop
      vertex -5.090043e+000 -4.206445e-001  6.000000e-001
      vertex -4.978435e+000  2.547853e+000  6.000000e-001
      vertex -5.464870e+000  2.628695e-001  6.000000e-001
    endloop
  endfacet
  facet normal  0.000000e+000  0.000000e+000  9.999999e-001
    outer loop
      vertex -5.090043e+000 -4.206445e-001  6.000000e-001
      vertex -5.464870e+000  2.628695e-001  6.000000e-001
      vertex -5.784554e+000 -4.206445e-001  6.000000e-001
    endloop
  endfacet
  facet normal  0.000000e+000  0.000000e+000  1.000000e+000
    outer loop
      vertex -5.784554e+000 -4.206445e-001  6.000000e-001
      vertex -5.464870e+000  2.628695e-001  6.000000e-001
      vertex -6.481861e+000  2.547853e+000  6.000000e-001
    endloop
  endfacet
  facet normal  -0.000000e+000  0.000000e+000  1.000000e+000
    outer loop
      vertex -6.481861e+000  2.547853e+000  6.000000e-001
      vertex -5.464870e+000  2.628695e-001  6.000000e-001
      vertex -5.911352e+000  2.547853e+000  6.000000e-001
    endloop
  endfacet
  facet normal  0.000000e+000  -0.000000e+000 -9.999999e-001
    outer loop
      vertex -5.784554e+000 -4.206445e-001  0.000000e+000
      vertex -5.464870e+000  2.628695e-001  0.000000e+000
      vertex -5.090043e+000 -4.206445e-001  0.000000e+000
    endloop
  endfacet
  facet normal  0.000000e+000  0.000000e+000 -1.000000e+000
    outer loop
      vertex -5.090043e+000 -4.206445e-001  0.000000e+000
      vertex -5.464870e+000  2.628695e-001  0.000000e+000
      vertex -4.978435e+000  2.547853e+000  0.000000e+000
    endloop
  endfacet
  facet normal  0.000000e+000  -0.000000e+000 -1.000000e+000
    outer loop
      vertex -5.090043e+000 -4.206445e-001  0.000000e+000
      vertex -4.978435e+000  2.547853e+000  0.000000e+000
      vertex -4.443765e+000  2.547853e+000  0.000000e+000
    endloop
  endfacet
  facet normal  0.000000e+000  0.000000e+000 -1.000000e+000
    outer loop
      vertex -5.784554e+000 -4.206445e-001  0.000000e+000
      vertex -6.481861e+000  2.547853e+000  0.000000e+000
      vertex -5.464870e+000  2.628695e-001  0.000000e+000
    endloop
  endfacet
  facet normal  0.000000e+000  0.000000e+000 -1.000000e+000
    outer loop
      vertex -5.464870e+000  2.628695e-001  0.000000e+000
      vertex -6.481861e+000  2.547853e+000  0.000000e+000
      vertex -5.911352e+000  2.547853e+000  0.000000e+000
    endloop
  endfacet
  facet normal  0.000000e+000  1.000000e+000  0.000000e+000
    outer loop
      vertex -4.978435e+000  2.547853e+000  6.000000e-001
      vertex -4.443765e+000  2.547853e+000  6.000000e-001
      vertex -4.978435e+000  2.547853e+000  0.000000e+000
    endloop
  endfacet
  facet normal  0.000000e+000  1.000000e+000  0.000000e+000
    outer loop
      vertex -4.978435e+000  2.547853e+000  0.000000e+000
      vertex -4.443765e+000  2.547853e+000  6.000000e-001
      vertex -4.443765e+000  2.547853e+000  0.000000e+000
    endloop
  endfacet
  facet normal  9.771113e-001 -2.127289e-001  0.000000e+000
    outer loop
      vertex -4.443765e+000  2.547853e+000  6.000000e-001
      vertex -5.090043e+000 -4.206445e-001  6.000000e-001
      vertex -4.443765e+000  2.547853e+000  0.000000e+000
    endloop
  endfacet
  facet normal  9.771113e-001 -2.127289e-001  0.000000e+000
    outer loop
      vertex -4.443765e+000  2.547853e+000  0.000000e+000
      vertex -5.090043e+000 -4.206445e-001  6.000000e-001
      vertex -5.090043e+000 -4.206445e-001  0.000000e+000
    endloop
  endfacet
  facet normal  0.000000e+000 -9.999999e-001  0.000000e+000
    outer loop
      vertex -5.090043e+000 -4.206445e-001  6.000000e-001
      vertex -5.784554e+000 -4.206445e-001  6.000000e-001
      vertex -5.090043e+000 -4.206445e-001  0.000000e+000
    endloop
  endfacet
  facet normal  0.000000e+000 -9.999999e-001  0.000000e+000
    outer loop
      vertex -5.090043e+000 -4.206445e-001  0.000000e+000
      vertex -5.784554e+000 -4.206445e-001  6.000000e-001
      vertex -5.784554e+000 -4.206445e-001  0.000000e+000
    endloop
  endfacet
  facet normal -9.735021e-001 -2.286778e-001  0.000000e+000
    outer loop
      vertex -5.784554e+000 -4.206445e-001  6.000000e-001
      vertex -6.481861e+000  2.547853e+000  6.000000e-001
      vertex -5.784554e+000 -4.206445e-001  0.000000e+000
    endloop
  endfacet
  facet normal -9.735021e-001 -2.286778e-001  0.000000e+000
    outer loop
      vertex -5.784554e+000 -4.206445e-001  0.000000e+000
      vertex -6.481861e+000  2.547853e+000  6.000000e-001
      vertex -6.481861e+000  2.547853e+000  0.000000e+000
    endloop
  endfacet
  facet normal  0.000000e+000  1.000000e+000  0.000000e+000
    outer loop
      vertex -6.481861e+000  2.547853e+000  6.000000e-001
      vertex -5.911352e+000  2.547853e+000  6.000000e-001
      vertex -6.481861e+000  2.547853e+000  0.000000e+000
    endloop
  endfacet
  facet normal  0.000000e+000  1.000000e+000  0.000000e+000
    outer loop
      vertex -6.481861e+000  2.547853e+000  0.000000e+000
      vertex -5.911352e+000  2.547853e+000  6.000000e-001
      vertex -5.911352e+000  2.547853e+000  0.000000e+000
    endloop
  endfacet
  facet normal  9.814397e-001  1.917713e-001  0.000000e+000
    outer loop
      vertex -5.911352e+000  2.547853e+000  6.000000e-001
      vertex -5.464870e+000  2.628695e-001  6.000000e-001
      vertex -5.911352e+000  2.547853e+000  0.000000e+000
    endloop
  endfacet
  facet normal  9.814397e-001  1.917713e-001  0.000000e+000
    outer loop
      vertex -5.911352e+000  2.547853e+000  0.000000e+000
      vertex -5.464870e+000  2.628695e-001  6.000000e-001
      vertex -5.464870e+000  2.628695e-001  0.000000e+000
    endloop
  endfacet
  facet normal -9.780825e-001  2.082176e-001  0.000000e+000
    outer loop
      vertex -5.464870e+000  2.628695e-001  6.000000e-001
      vertex -4.978435e+000  2.547853e+000  6.000000e-001
      vertex -5.464870e+000  2.628695e-001  0.000000e+000
    endloop
  endfacet
  facet normal -9.780825e-001  2.082176e-001  0.000000e+000
    outer loop
      vertex -5.464870e+000  2.628695e-001  0.000000e+000
      vertex -4.978435e+000  2.547853e+000  6.000000e-001
      vertex -4.978435e+000  2.547853e+000  0.000000e+000
    endloop
  endfacet
endsolid CATIA STL
