solid CATIA STL
  facet normal  0.000000e+000  0.000000e+000  1.000000e+000
    outer loop
      vertex  6.540479e+000  4.599563e-001  6.000000e-001
      vertex  6.741647e+000  4.599563e-001  6.000000e-001
      vertex  6.540479e+000  9.438263e-001  6.000000e-001
    endloop
  endfacet
  facet normal  0.000000e+000  0.000000e+000  1.000000e+000
    outer loop
      vertex  6.540479e+000  4.599563e-001  6.000000e-001
      vertex  6.540479e+000  9.438263e-001  6.000000e-001
      vertex  5.969741e+000  2.185378e+000  6.000000e-001
    endloop
  endfacet
  facet normal  0.000000e+000  0.000000e+000  1.000000e+000
    outer loop
      vertex  6.540479e+000  4.599563e-001  6.000000e-001
      vertex  5.969741e+000  2.185378e+000  6.000000e-001
      vertex  5.969741e+000 -7.828657e-001  6.000000e-001
    endloop
  endfacet
  facet normal  0.000000e+000  0.000000e+000  1.000000e+000
    outer loop
      vertex  6.540479e+000  4.599563e-001  6.000000e-001
      vertex  5.969741e+000 -7.828657e-001  6.000000e-001
      vertex  6.540479e+000 -7.828657e-001  6.000000e-001
    endloop
  endfacet
  facet normal  0.000000e+000  0.000000e+000  1.000000e+000
    outer loop
      vertex  7.473421e+000 -7.828657e-001  6.000000e-001
      vertex  8.008091e+000 -7.828657e-001  6.000000e-001
      vertex  6.741647e+000  4.599563e-001  6.000000e-001
    endloop
  endfacet
  facet normal  -0.000000e+000  0.000000e+000  1.000000e+000
    outer loop
      vertex  6.741647e+000  4.599563e-001  6.000000e-001
      vertex  8.008091e+000 -7.828657e-001  6.000000e-001
      vertex  7.312131e+000  4.599563e-001  6.000000e-001
    endloop
  endfacet
  facet normal  0.000000e+000  0.000000e+000  1.000000e+000
    outer loop
      vertex  6.741647e+000  4.599563e-001  6.000000e-001
      vertex  7.312131e+000  4.599563e-001  6.000000e-001
      vertex  6.540479e+000  9.438263e-001  6.000000e-001
    endloop
  endfacet
  facet normal  0.000000e+000  -0.000000e+000  1.000000e+000
    outer loop
      vertex  6.540479e+000  9.438263e-001  6.000000e-001
      vertex  7.312131e+000  4.599563e-001  6.000000e-001
      vertex  7.473421e+000  9.438263e-001  6.000000e-001
    endloop
  endfacet
  facet normal  0.000000e+000  0.000000e+000  1.000000e+000
    outer loop
      vertex  7.473421e+000  9.438263e-001  6.000000e-001
      vertex  7.312131e+000  4.599563e-001  6.000000e-001
      vertex  8.008091e+000  4.599563e-001  6.000000e-001
    endloop
  endfacet
  facet normal  0.000000e+000  0.000000e+000  1.000000e+000
    outer loop
      vertex  7.473421e+000  9.438263e-001  6.000000e-001
      vertex  8.008091e+000  4.599563e-001  6.000000e-001
      vertex  7.473421e+000  1.676870e+000  6.000000e-001
    endloop
  endfacet
  facet normal  -0.000000e+000  0.000000e+000  1.000000e+000
    outer loop
      vertex  7.473421e+000  1.676870e+000  6.000000e-001
      vertex  8.008091e+000  4.599563e-001  6.000000e-001
      vertex  8.008091e+000  2.185378e+000  6.000000e-001
    endloop
  endfacet
  facet normal  0.000000e+000  0.000000e+000  9.999999e-001
    outer loop
      vertex  7.473421e+000  1.676870e+000  6.000000e-001
      vertex  8.008091e+000  2.185378e+000  6.000000e-001
      vertex  6.540479e+000  1.676870e+000  6.000000e-001
    endloop
  endfacet
  facet normal  0.000000e+000  -0.000000e+000  1.000000e+000
    outer loop
      vertex  6.540479e+000  1.676870e+000  6.000000e-001
      vertex  8.008091e+000  2.185378e+000  6.000000e-001
      vertex  5.969741e+000  2.185378e+000  6.000000e-001
    endloop
  endfacet
  facet normal  0.000000e+000  0.000000e+000  1.000000e+000
    outer loop
      vertex  6.540479e+000  1.676870e+000  6.000000e-001
      vertex  5.969741e+000  2.185378e+000  6.000000e-001
      vertex  6.540479e+000  9.438263e-001  6.000000e-001
    endloop
  endfacet
  facet normal  0.000000e+000  0.000000e+000 -1.000000e+000
    outer loop
      vertex  6.540479e+000  4.599563e-001  0.000000e+000
      vertex  6.540479e+000 -7.828657e-001  0.000000e+000
      vertex  5.969741e+000 -7.828657e-001  0.000000e+000
    endloop
  endfacet
  facet normal  0.000000e+000  0.000000e+000 -1.000000e+000
    outer loop
      vertex  6.540479e+000  4.599563e-001  0.000000e+000
      vertex  5.969741e+000 -7.828657e-001  0.000000e+000
      vertex  5.969741e+000  2.185378e+000  0.000000e+000
    endloop
  endfacet
  facet normal  0.000000e+000  0.000000e+000 -1.000000e+000
    outer loop
      vertex  6.540479e+000  4.599563e-001  0.000000e+000
      vertex  5.969741e+000  2.185378e+000  0.000000e+000
      vertex  6.540479e+000  9.438263e-001  0.000000e+000
    endloop
  endfacet
  facet normal  0.000000e+000  0.000000e+000 -1.000000e+000
    outer loop
      vertex  6.540479e+000  4.599563e-001  0.000000e+000
      vertex  6.540479e+000  9.438263e-001  0.000000e+000
      vertex  6.741647e+000  4.599563e-001  0.000000e+000
    endloop
  endfacet
  facet normal  0.000000e+000  0.000000e+000 -1.000000e+000
    outer loop
      vertex  6.540479e+000  9.438263e-001  0.000000e+000
      vertex  7.312131e+000  4.599563e-001  0.000000e+000
      vertex  6.741647e+000  4.599563e-001  0.000000e+000
    endloop
  endfacet
  facet normal  0.000000e+000  0.000000e+000 -1.000000e+000
    outer loop
      vertex  6.741647e+000  4.599563e-001  0.000000e+000
      vertex  7.312131e+000  4.599563e-001  0.000000e+000
      vertex  8.008091e+000 -7.828657e-001  0.000000e+000
    endloop
  endfacet
  facet normal  0.000000e+000  0.000000e+000 -1.000000e+000
    outer loop
      vertex  6.741647e+000  4.599563e-001  0.000000e+000
      vertex  8.008091e+000 -7.828657e-001  0.000000e+000
      vertex  7.473421e+000 -7.828657e-001  0.000000e+000
    endloop
  endfacet
  facet normal  0.000000e+000  0.000000e+000 -1.000000e+000
    outer loop
      vertex  6.540479e+000  9.438263e-001  0.000000e+000
      vertex  5.969741e+000  2.185378e+000  0.000000e+000
      vertex  6.540479e+000  1.676870e+000  0.000000e+000
    endloop
  endfacet
  facet normal  0.000000e+000  0.000000e+000 -1.000000e+000
    outer loop
      vertex  6.540479e+000  1.676870e+000  0.000000e+000
      vertex  5.969741e+000  2.185378e+000  0.000000e+000
      vertex  8.008091e+000  2.185378e+000  0.000000e+000
    endloop
  endfacet
  facet normal  0.000000e+000  0.000000e+000 -9.999999e-001
    outer loop
      vertex  6.540479e+000  1.676870e+000  0.000000e+000
      vertex  8.008091e+000  2.185378e+000  0.000000e+000
      vertex  7.473421e+000  1.676870e+000  0.000000e+000
    endloop
  endfacet
  facet normal  0.000000e+000  0.000000e+000 -1.000000e+000
    outer loop
      vertex  7.473421e+000  1.676870e+000  0.000000e+000
      vertex  8.008091e+000  2.185378e+000  0.000000e+000
      vertex  8.008091e+000  4.599563e-001  0.000000e+000
    endloop
  endfacet
  facet normal  0.000000e+000  0.000000e+000 -1.000000e+000
    outer loop
      vertex  7.473421e+000  1.676870e+000  0.000000e+000
      vertex  8.008091e+000  4.599563e-001  0.000000e+000
      vertex  7.473421e+000  9.438263e-001  0.000000e+000
    endloop
  endfacet
  facet normal  0.000000e+000  -0.000000e+000 -1.000000e+000
    outer loop
      vertex  7.473421e+000  9.438263e-001  0.000000e+000
      vertex  8.008091e+000  4.599563e-001  0.000000e+000
      vertex  7.312131e+000  4.599563e-001  0.000000e+000
    endloop
  endfacet
  facet normal  0.000000e+000  0.000000e+000 -1.000000e+000
    outer loop
      vertex  7.473421e+000  9.438263e-001  0.000000e+000
      vertex  7.312131e+000  4.599563e-001  0.000000e+000
      vertex  6.540479e+000  9.438263e-001  0.000000e+000
    endloop
  endfacet
  facet normal  0.000000e+000  1.000000e+000  0.000000e+000
    outer loop
      vertex  6.540479e+000  9.438263e-001  6.000000e-001
      vertex  7.473421e+000  9.438263e-001  6.000000e-001
      vertex  6.540479e+000  9.438263e-001  0.000000e+000
    endloop
  endfacet
  facet normal  0.000000e+000  1.000000e+000  0.000000e+000
    outer loop
      vertex  6.540479e+000  9.438263e-001  0.000000e+000
      vertex  7.473421e+000  9.438263e-001  6.000000e-001
      vertex  7.473421e+000  9.438263e-001  0.000000e+000
    endloop
  endfacet
  facet normal -1.000000e+000  -0.000000e+000  0.000000e+000
    outer loop
      vertex  7.473421e+000  9.438263e-001  6.000000e-001
      vertex  7.473421e+000  1.676870e+000  6.000000e-001
      vertex  7.473421e+000  9.438263e-001  0.000000e+000
    endloop
  endfacet
  facet normal -1.000000e+000  0.000000e+000  0.000000e+000
    outer loop
      vertex  7.473421e+000  9.438263e-001  0.000000e+000
      vertex  7.473421e+000  1.676870e+000  6.000000e-001
      vertex  7.473421e+000  1.676870e+000  0.000000e+000
    endloop
  endfacet
  facet normal  0.000000e+000 -1.000000e+000  0.000000e+000
    outer loop
      vertex  7.473421e+000  1.676870e+000  6.000000e-001
      vertex  6.540479e+000  1.676870e+000  6.000000e-001
      vertex  7.473421e+000  1.676870e+000  0.000000e+000
    endloop
  endfacet
  facet normal  0.000000e+000 -1.000000e+000  0.000000e+000
    outer loop
      vertex  7.473421e+000  1.676870e+000  0.000000e+000
      vertex  6.540479e+000  1.676870e+000  6.000000e-001
      vertex  6.540479e+000  1.676870e+000  0.000000e+000
    endloop
  endfacet
  facet normal  1.000000e+000  -0.000000e+000  0.000000e+000
    outer loop
      vertex  6.540479e+000  1.676870e+000  6.000000e-001
      vertex  6.540479e+000  9.438263e-001  6.000000e-001
      vertex  6.540479e+000  1.676870e+000  0.000000e+000
    endloop
  endfacet
  facet normal  1.000000e+000  0.000000e+000  0.000000e+000
    outer loop
      vertex  6.540479e+000  1.676870e+000  0.000000e+000
      vertex  6.540479e+000  9.438263e-001  6.000000e-001
      vertex  6.540479e+000  9.438263e-001  0.000000e+000
    endloop
  endfacet
  facet normal -1.000000e+000  -0.000000e+000  0.000000e+000
    outer loop
      vertex  5.969741e+000 -7.828657e-001  6.000000e-001
      vertex  5.969741e+000  2.185378e+000  6.000000e-001
      vertex  5.969741e+000 -7.828657e-001  0.000000e+000
    endloop
  endfacet
  facet normal -1.000000e+000  0.000000e+000  0.000000e+000
    outer loop
      vertex  5.969741e+000 -7.828657e-001  0.000000e+000
      vertex  5.969741e+000  2.185378e+000  6.000000e-001
      vertex  5.969741e+000  2.185378e+000  0.000000e+000
    endloop
  endfacet
  facet normal  0.000000e+000  1.000000e+000  0.000000e+000
    outer loop
      vertex  5.969741e+000  2.185378e+000  6.000000e-001
      vertex  8.008091e+000  2.185378e+000  6.000000e-001
      vertex  5.969741e+000  2.185378e+000  0.000000e+000
    endloop
  endfacet
  facet normal  0.000000e+000  1.000000e+000  0.000000e+000
    outer loop
      vertex  5.969741e+000  2.185378e+000  0.000000e+000
      vertex  8.008091e+000  2.185378e+000  6.000000e-001
      vertex  8.008091e+000  2.185378e+000  0.000000e+000
    endloop
  endfacet
  facet normal  1.000000e+000  -0.000000e+000  0.000000e+000
    outer loop
      vertex  8.008091e+000  2.185378e+000  6.000000e-001
      vertex  8.008091e+000  4.599563e-001  6.000000e-001
      vertex  8.008091e+000  2.185378e+000  0.000000e+000
    endloop
  endfacet
  facet normal  1.000000e+000  0.000000e+000  0.000000e+000
    outer loop
      vertex  8.008091e+000  2.185378e+000  0.000000e+000
      vertex  8.008091e+000  4.599563e-001  6.000000e-001
      vertex  8.008091e+000  4.599563e-001  0.000000e+000
    endloop
  endfacet
  facet normal  0.000000e+000 -1.000000e+000  0.000000e+000
    outer loop
      vertex  8.008091e+000  4.599563e-001  6.000000e-001
      vertex  7.312131e+000  4.599563e-001  6.000000e-001
      vertex  8.008091e+000  4.599563e-001  0.000000e+000
    endloop
  endfacet
  facet normal  0.000000e+000 -1.000000e+000  0.000000e+000
    outer loop
      vertex  8.008091e+000  4.599563e-001  0.000000e+000
      vertex  7.312131e+000  4.599563e-001  6.000000e-001
      vertex  7.312131e+000  4.599563e-001  0.000000e+000
    endloop
  endfacet
  facet normal  8.725122e-001  4.885922e-001  0.000000e+000
    outer loop
      vertex  7.312131e+000  4.599563e-001  6.000000e-001
      vertex  8.008091e+000 -7.828657e-001  6.000000e-001
      vertex  7.312131e+000  4.599563e-001  0.000000e+000
    endloop
  endfacet
  facet normal  8.725122e-001  4.885922e-001  0.000000e+000
    outer loop
      vertex  7.312131e+000  4.599563e-001  0.000000e+000
      vertex  8.008091e+000 -7.828657e-001  6.000000e-001
      vertex  8.008091e+000 -7.828657e-001  0.000000e+000
    endloop
  endfacet
  facet normal  0.000000e+000 -1.000000e+000  0.000000e+000
    outer loop
      vertex  8.008091e+000 -7.828657e-001  6.000000e-001
      vertex  7.473421e+000 -7.828657e-001  6.000000e-001
      vertex  8.008091e+000 -7.828657e-001  0.000000e+000
    endloop
  endfacet
  facet normal  0.000000e+000 -1.000000e+000  0.000000e+000
    outer loop
      vertex  8.008091e+000 -7.828657e-001  0.000000e+000
      vertex  7.473421e+000 -7.828657e-001  6.000000e-001
      vertex  7.473421e+000 -7.828657e-001  0.000000e+000
    endloop
  endfacet
  facet normal -8.617214e-001 -5.073817e-001  0.000000e+000
    outer loop
      vertex  7.473421e+000 -7.828657e-001  6.000000e-001
      vertex  6.741647e+000  4.599563e-001  6.000000e-001
      vertex  7.473421e+000 -7.828657e-001  0.000000e+000
    endloop
  endfacet
  facet normal -8.617214e-001 -5.073817e-001  0.000000e+000
    outer loop
      vertex  7.473421e+000 -7.828657e-001  0.000000e+000
      vertex  6.741647e+000  4.599563e-001  6.000000e-001
      vertex  6.741647e+000  4.599563e-001  0.000000e+000
    endloop
  endfacet
  facet normal  0.000000e+000 -1.000000e+000  0.000000e+000
    outer loop
      vertex  6.741647e+000  4.599563e-001  6.000000e-001
      vertex  6.540479e+000  4.599563e-001  6.000000e-001
      vertex  6.741647e+000  4.599563e-001  0.000000e+000
    endloop
  endfacet
  facet normal  0.000000e+000 -1.000000e+000  0.000000e+000
    outer loop
      vertex  6.741647e+000  4.599563e-001  0.000000e+000
      vertex  6.540479e+000  4.599563e-001  6.000000e-001
      vertex  6.540479e+000  4.599563e-001  0.000000e+000
    endloop
  endfacet
  facet normal  1.000000e+000  -0.000000e+000  0.000000e+000
    outer loop
      vertex  6.540479e+000  4.599563e-001  6.000000e-001
      vertex  6.540479e+000 -7.828657e-001  6.000000e-001
      vertex  6.540479e+000  4.599563e-001  0.000000e+000
    endloop
  endfacet
  facet normal  1.000000e+000  0.000000e+000  0.000000e+000
    outer loop
      vertex  6.540479e+000  4.599563e-001  0.000000e+000
      vertex  6.540479e+000 -7.828657e-001  6.000000e-001
      vertex  6.540479e+000 -7.828657e-001  0.000000e+000
    endloop
  endfacet
  facet normal  0.000000e+000 -9.999999e-001  0.000000e+000
    outer loop
      vertex  6.540479e+000 -7.828657e-001  6.000000e-001
      vertex  5.969741e+000 -7.828657e-001  6.000000e-001
      vertex  6.540479e+000 -7.828657e-001  0.000000e+000
    endloop
  endfacet
  facet normal  0.000000e+000 -9.999999e-001  0.000000e+000
    outer loop
      vertex  6.540479e+000 -7.828657e-001  0.000000e+000
      vertex  5.969741e+000 -7.828657e-001  6.000000e-001
      vertex  5.969741e+000 -7.828657e-001  0.000000e+000
    endloop
  endfacet
  facet normal  0.000000e+000  -0.000000e+000  1.000000e+000
    outer loop
      vertex  4.088871e+000  1.676870e+000  6.000000e-001
      vertex  5.556737e+000  1.676870e+000  6.000000e-001
      vertex  5.556737e+000  2.185378e+000  6.000000e-001
    endloop
  endfacet
  facet normal  0.000000e+000  0.000000e+000  1.000000e+000
    outer loop
      vertex  3.518387e+000  2.185378e+000  6.000000e-001
      vertex  3.518387e+000 -7.828657e-001  6.000000e-001
      vertex  4.088871e+000 -2.743577e-001  6.000000e-001
    endloop
  endfacet
  facet normal  0.000000e+000  -0.000000e+000  1.000000e+000
    outer loop
      vertex  3.518387e+000  2.185378e+000  6.000000e-001
      vertex  4.088871e+000 -2.743577e-001  6.000000e-001
      vertex  4.088871e+000  4.599563e-001  6.000000e-001
    endloop
  endfacet
  facet normal  0.000000e+000  -0.000000e+000  9.999999e-001
    outer loop
      vertex  3.518387e+000  2.185378e+000  6.000000e-001
      vertex  4.088871e+000  4.599563e-001  6.000000e-001
      vertex  4.088871e+000  9.438263e-001  6.000000e-001
    endloop
  endfacet
  facet normal  0.000000e+000  -0.000000e+000  1.000000e+000
    outer loop
      vertex  3.518387e+000  2.185378e+000  6.000000e-001
      vertex  4.088871e+000  9.438263e-001  6.000000e-001
      vertex  4.088871e+000  1.676870e+000  6.000000e-001
    endloop
  endfacet
  facet normal  0.000000e+000  -0.000000e+000  1.000000e+000
    outer loop
      vertex  3.518387e+000  2.185378e+000  6.000000e-001
      vertex  4.088871e+000  1.676870e+000  6.000000e-001
      vertex  5.556737e+000  2.185378e+000  6.000000e-001
    endloop
  endfacet
  facet normal  0.000000e+000  0.000000e+000  1.000000e+000
    outer loop
      vertex  4.088871e+000  4.599563e-001  6.000000e-001
      vertex  5.556737e+000  4.599563e-001  6.000000e-001
      vertex  4.088871e+000  9.438263e-001  6.000000e-001
    endloop
  endfacet
  facet normal  -0.000000e+000  0.000000e+000  1.000000e+000
    outer loop
      vertex  4.088871e+000  9.438263e-001  6.000000e-001
      vertex  5.556737e+000  4.599563e-001  6.000000e-001
      vertex  5.556737e+000  9.438263e-001  6.000000e-001
    endloop
  endfacet
  facet normal  0.000000e+000  0.000000e+000  1.000000e+000
    outer loop
      vertex  3.518387e+000 -7.828657e-001  6.000000e-001
      vertex  5.556737e+000 -7.828657e-001  6.000000e-001
      vertex  4.088871e+000 -2.743577e-001  6.000000e-001
    endloop
  endfacet
  facet normal  -0.000000e+000  0.000000e+000  9.999999e-001
    outer loop
      vertex  4.088871e+000 -2.743577e-001  6.000000e-001
      vertex  5.556737e+000 -7.828657e-001  6.000000e-001
      vertex  5.556737e+000 -2.743577e-001  6.000000e-001
    endloop
  endfacet
  facet normal  0.000000e+000  0.000000e+000 -1.000000e+000
    outer loop
      vertex  5.556737e+000  2.185378e+000  0.000000e+000
      vertex  5.556737e+000  1.676870e+000  0.000000e+000
      vertex  4.088871e+000  1.676870e+000  0.000000e+000
    endloop
  endfacet
  facet normal  -0.000000e+000  0.000000e+000 -1.000000e+000
    outer loop
      vertex  3.518387e+000  2.185378e+000  0.000000e+000
      vertex  5.556737e+000  2.185378e+000  0.000000e+000
      vertex  4.088871e+000  1.676870e+000  0.000000e+000
    endloop
  endfacet
  facet normal  -0.000000e+000  -0.000000e+000 -1.000000e+000
    outer loop
      vertex  3.518387e+000  2.185378e+000  0.000000e+000
      vertex  4.088871e+000  1.676870e+000  0.000000e+000
      vertex  4.088871e+000  9.438263e-001  0.000000e+000
    endloop
  endfacet
  facet normal  -0.000000e+000  -0.000000e+000 -9.999999e-001
    outer loop
      vertex  3.518387e+000  2.185378e+000  0.000000e+000
      vertex  4.088871e+000  9.438263e-001  0.000000e+000
      vertex  4.088871e+000  4.599563e-001  0.000000e+000
    endloop
  endfacet
  facet normal  -0.000000e+000  -0.000000e+000 -1.000000e+000
    outer loop
      vertex  3.518387e+000  2.185378e+000  0.000000e+000
      vertex  4.088871e+000  4.599563e-001  0.000000e+000
      vertex  4.088871e+000 -2.743577e-001  0.000000e+000
    endloop
  endfacet
  facet normal  -0.000000e+000  0.000000e+000 -1.000000e+000
    outer loop
      vertex  3.518387e+000  2.185378e+000  0.000000e+000
      vertex  4.088871e+000 -2.743577e-001  0.000000e+000
      vertex  3.518387e+000 -7.828657e-001  0.000000e+000
    endloop
  endfacet
  facet normal  0.000000e+000  0.000000e+000 -1.000000e+000
    outer loop
      vertex  4.088871e+000  4.599563e-001  0.000000e+000
      vertex  4.088871e+000  9.438263e-001  0.000000e+000
      vertex  5.556737e+000  4.599563e-001  0.000000e+000
    endloop
  endfacet
  facet normal  0.000000e+000  0.000000e+000 -1.000000e+000
    outer loop
      vertex  5.556737e+000  4.599563e-001  0.000000e+000
      vertex  4.088871e+000  9.438263e-001  0.000000e+000
      vertex  5.556737e+000  9.438263e-001  0.000000e+000
    endloop
  endfacet
  facet normal  0.000000e+000  -0.000000e+000 -1.000000e+000
    outer loop
      vertex  3.518387e+000 -7.828657e-001  0.000000e+000
      vertex  4.088871e+000 -2.743577e-001  0.000000e+000
      vertex  5.556737e+000 -7.828657e-001  0.000000e+000
    endloop
  endfacet
  facet normal  0.000000e+000  0.000000e+000 -9.999999e-001
    outer loop
      vertex  5.556737e+000 -7.828657e-001  0.000000e+000
      vertex  4.088871e+000 -2.743577e-001  0.000000e+000
      vertex  5.556737e+000 -2.743577e-001  0.000000e+000
    endloop
  endfacet
  facet normal  1.000000e+000  -0.000000e+000  0.000000e+000
    outer loop
      vertex  4.088871e+000  1.676870e+000  6.000000e-001
      vertex  4.088871e+000  9.438263e-001  6.000000e-001
      vertex  4.088871e+000  1.676870e+000  0.000000e+000
    endloop
  endfacet
  facet normal  1.000000e+000  0.000000e+000  0.000000e+000
    outer loop
      vertex  4.088871e+000  1.676870e+000  0.000000e+000
      vertex  4.088871e+000  9.438263e-001  6.000000e-001
      vertex  4.088871e+000  9.438263e-001  0.000000e+000
    endloop
  endfacet
  facet normal  0.000000e+000  1.000000e+000  0.000000e+000
    outer loop
      vertex  4.088871e+000  9.438263e-001  6.000000e-001
      vertex  5.556737e+000  9.438263e-001  6.000000e-001
      vertex  4.088871e+000  9.438263e-001  0.000000e+000
    endloop
  endfacet
  facet normal  0.000000e+000  1.000000e+000  0.000000e+000
    outer loop
      vertex  4.088871e+000  9.438263e-001  0.000000e+000
      vertex  5.556737e+000  9.438263e-001  6.000000e-001
      vertex  5.556737e+000  9.438263e-001  0.000000e+000
    endloop
  endfacet
  facet normal  1.000000e+000  -0.000000e+000  0.000000e+000
    outer loop
      vertex  5.556737e+000  9.438263e-001  6.000000e-001
      vertex  5.556737e+000  4.599563e-001  6.000000e-001
      vertex  5.556737e+000  9.438263e-001  0.000000e+000
    endloop
  endfacet
  facet normal  1.000000e+000  0.000000e+000  0.000000e+000
    outer loop
      vertex  5.556737e+000  9.438263e-001  0.000000e+000
      vertex  5.556737e+000  4.599563e-001  6.000000e-001
      vertex  5.556737e+000  4.599563e-001  0.000000e+000
    endloop
  endfacet
  facet normal  0.000000e+000 -1.000000e+000  0.000000e+000
    outer loop
      vertex  5.556737e+000  4.599563e-001  6.000000e-001
      vertex  4.088871e+000  4.599563e-001  6.000000e-001
      vertex  5.556737e+000  4.599563e-001  0.000000e+000
    endloop
  endfacet
  facet normal  0.000000e+000 -1.000000e+000  0.000000e+000
    outer loop
      vertex  5.556737e+000  4.599563e-001  0.000000e+000
      vertex  4.088871e+000  4.599563e-001  6.000000e-001
      vertex  4.088871e+000  4.599563e-001  0.000000e+000
    endloop
  endfacet
  facet normal  1.000000e+000  -0.000000e+000  0.000000e+000
    outer loop
      vertex  4.088871e+000  4.599563e-001  6.000000e-001
      vertex  4.088871e+000 -2.743577e-001  6.000000e-001
      vertex  4.088871e+000  4.599563e-001  0.000000e+000
    endloop
  endfacet
  facet normal  1.000000e+000  0.000000e+000  0.000000e+000
    outer loop
      vertex  4.088871e+000  4.599563e-001  0.000000e+000
      vertex  4.088871e+000 -2.743577e-001  6.000000e-001
      vertex  4.088871e+000 -2.743577e-001  0.000000e+000
    endloop
  endfacet
  facet normal  0.000000e+000  1.000000e+000  0.000000e+000
    outer loop
      vertex  4.088871e+000 -2.743577e-001  6.000000e-001
      vertex  5.556737e+000 -2.743577e-001  6.000000e-001
      vertex  4.088871e+000 -2.743577e-001  0.000000e+000
    endloop
  endfacet
  facet normal  0.000000e+000  1.000000e+000  0.000000e+000
    outer loop
      vertex  4.088871e+000 -2.743577e-001  0.000000e+000
      vertex  5.556737e+000 -2.743577e-001  6.000000e-001
      vertex  5.556737e+000 -2.743577e-001  0.000000e+000
    endloop
  endfacet
  facet normal  1.000000e+000  -0.000000e+000  0.000000e+000
    outer loop
      vertex  5.556737e+000 -2.743577e-001  6.000000e-001
      vertex  5.556737e+000 -7.828657e-001  6.000000e-001
      vertex  5.556737e+000 -2.743577e-001  0.000000e+000
    endloop
  endfacet
  facet normal  1.000000e+000  0.000000e+000  0.000000e+000
    outer loop
      vertex  5.556737e+000 -2.743577e-001  0.000000e+000
      vertex  5.556737e+000 -7.828657e-001  6.000000e-001
      vertex  5.556737e+000 -7.828657e-001  0.000000e+000
    endloop
  endfacet
  facet normal  0.000000e+000 -1.000000e+000  0.000000e+000
    outer loop
      vertex  5.556737e+000 -7.828657e-001  6.000000e-001
      vertex  3.518387e+000 -7.828657e-001  6.000000e-001
      vertex  5.556737e+000 -7.828657e-001  0.000000e+000
    endloop
  endfacet
  facet normal  0.000000e+000 -1.000000e+000  0.000000e+000
    outer loop
      vertex  5.556737e+000 -7.828657e-001  0.000000e+000
      vertex  3.518387e+000 -7.828657e-001  6.000000e-001
      vertex  3.518387e+000 -7.828657e-001  0.000000e+000
    endloop
  endfacet
  facet normal -1.000000e+000  -0.000000e+000  0.000000e+000
    outer loop
      vertex  3.518387e+000 -7.828657e-001  6.000000e-001
      vertex  3.518387e+000  2.185378e+000  6.000000e-001
      vertex  3.518387e+000 -7.828657e-001  0.000000e+000
    endloop
  endfacet
  facet normal -1.000000e+000  0.000000e+000  0.000000e+000
    outer loop
      vertex  3.518387e+000 -7.828657e-001  0.000000e+000
      vertex  3.518387e+000  2.185378e+000  6.000000e-001
      vertex  3.518387e+000  2.185378e+000  0.000000e+000
    endloop
  endfacet
  facet normal  0.000000e+000  1.000000e+000  0.000000e+000
    outer loop
      vertex  3.518387e+000  2.185378e+000  6.000000e-001
      vertex  5.556737e+000  2.185378e+000  6.000000e-001
      vertex  3.518387e+000  2.185378e+000  0.000000e+000
    endloop
  endfacet
  facet normal  0.000000e+000  1.000000e+000  0.000000e+000
    outer loop
      vertex  3.518387e+000  2.185378e+000  0.000000e+000
      vertex  5.556737e+000  2.185378e+000  6.000000e-001
      vertex  5.556737e+000  2.185378e+000  0.000000e+000
    endloop
  endfacet
  facet normal  1.000000e+000  -0.000000e+000  0.000000e+000
    outer loop
      vertex  5.556737e+000  2.185378e+000  6.000000e-001
      vertex  5.556737e+000  1.676870e+000  6.000000e-001
      vertex  5.556737e+000  2.185378e+000  0.000000e+000
    endloop
  endfacet
  facet normal  1.000000e+000  0.000000e+000  0.000000e+000
    outer loop
      vertex  5.556737e+000  2.185378e+000  0.000000e+000
      vertex  5.556737e+000  1.676870e+000  6.000000e-001
      vertex  5.556737e+000  1.676870e+000  0.000000e+000
    endloop
  endfacet
  facet normal  0.000000e+000 -1.000000e+000  0.000000e+000
    outer loop
      vertex  5.556737e+000  1.676870e+000  6.000000e-001
      vertex  4.088871e+000  1.676870e+000  6.000000e-001
      vertex  5.556737e+000  1.676870e+000  0.000000e+000
    endloop
  endfacet
  facet normal  0.000000e+000 -1.000000e+000  0.000000e+000
    outer loop
      vertex  5.556737e+000  1.676870e+000  0.000000e+000
      vertex  4.088871e+000  1.676870e+000  6.000000e-001
      vertex  4.088871e+000  1.676870e+000  0.000000e+000
    endloop
  endfacet
  facet normal  0.000000e+000  0.000000e+000  1.000000e+000
    outer loop
      vertex  2.534391e+000 -7.828657e-001  6.000000e-001
      vertex  3.104875e+000 -7.828657e-001  6.000000e-001
      vertex  2.534391e+000  2.185378e+000  6.000000e-001
    endloop
  endfacet
  facet normal  -0.000000e+000  0.000000e+000  1.000000e+000
    outer loop
      vertex  2.534391e+000  2.185378e+000  6.000000e-001
      vertex  3.104875e+000 -7.828657e-001  6.000000e-001
      vertex  3.104875e+000  2.185378e+000  6.000000e-001
    endloop
  endfacet
  facet normal  0.000000e+000  0.000000e+000 -1.000000e+000
    outer loop
      vertex  2.534391e+000 -7.828657e-001  0.000000e+000
      vertex  2.534391e+000  2.185378e+000  0.000000e+000
      vertex  3.104875e+000 -7.828657e-001  0.000000e+000
    endloop
  endfacet
  facet normal  0.000000e+000  0.000000e+000 -1.000000e+000
    outer loop
      vertex  3.104875e+000 -7.828657e-001  0.000000e+000
      vertex  2.534391e+000  2.185378e+000  0.000000e+000
      vertex  3.104875e+000  2.185378e+000  0.000000e+000
    endloop
  endfacet
  facet normal  0.000000e+000  1.000000e+000  0.000000e+000
    outer loop
      vertex  2.534391e+000  2.185378e+000  6.000000e-001
      vertex  3.104875e+000  2.185378e+000  6.000000e-001
      vertex  2.534391e+000  2.185378e+000  0.000000e+000
    endloop
  endfacet
  facet normal  0.000000e+000  1.000000e+000  0.000000e+000
    outer loop
      vertex  2.534391e+000  2.185378e+000  0.000000e+000
      vertex  3.104875e+000  2.185378e+000  6.000000e-001
      vertex  3.104875e+000  2.185378e+000  0.000000e+000
    endloop
  endfacet
  facet normal  1.000000e+000  -0.000000e+000  0.000000e+000
    outer loop
      vertex  3.104875e+000  2.185378e+000  6.000000e-001
      vertex  3.104875e+000 -7.828657e-001  6.000000e-001
      vertex  3.104875e+000  2.185378e+000  0.000000e+000
    endloop
  endfacet
  facet normal  1.000000e+000  0.000000e+000  0.000000e+000
    outer loop
      vertex  3.104875e+000  2.185378e+000  0.000000e+000
      vertex  3.104875e+000 -7.828657e-001  6.000000e-001
      vertex  3.104875e+000 -7.828657e-001  0.000000e+000
    endloop
  endfacet
  facet normal  0.000000e+000 -1.000000e+000  0.000000e+000
    outer loop
      vertex  3.104875e+000 -7.828657e-001  6.000000e-001
      vertex  2.534391e+000 -7.828657e-001  6.000000e-001
      vertex  3.104875e+000 -7.828657e-001  0.000000e+000
    endloop
  endfacet
  facet normal  0.000000e+000 -1.000000e+000  0.000000e+000
    outer loop
      vertex  3.104875e+000 -7.828657e-001  0.000000e+000
      vertex  2.534391e+000 -7.828657e-001  6.000000e-001
      vertex  2.534391e+000 -7.828657e-001  0.000000e+000
    endloop
  endfacet
  facet normal -1.000000e+000  -0.000000e+000  0.000000e+000
    outer loop
      vertex  2.534391e+000 -7.828657e-001  6.000000e-001
      vertex  2.534391e+000  2.185378e+000  6.000000e-001
      vertex  2.534391e+000 -7.828657e-001  0.000000e+000
    endloop
  endfacet
  facet normal -1.000000e+000  0.000000e+000  0.000000e+000
    outer loop
      vertex  2.534391e+000 -7.828657e-001  0.000000e+000
      vertex  2.534391e+000  2.185378e+000  6.000000e-001
      vertex  2.534391e+000  2.185378e+000  0.000000e+000
    endloop
  endfacet
  facet normal  0.000000e+000  0.000000e+000  1.000000e+000
    outer loop
      vertex  2.120879e+000 -7.828657e-001  6.000000e-001
      vertex  2.120879e+000  9.438263e-001  6.000000e-001
      vertex  1.586463e+000  4.599563e-001  6.000000e-001
    endloop
  endfacet
  facet normal  0.000000e+000  0.000000e+000  1.000000e+000
    outer loop
      vertex  2.120879e+000 -7.828657e-001  6.000000e-001
      vertex  1.586463e+000  4.599563e-001  6.000000e-001
      vertex  1.586463e+000 -2.743577e-001  6.000000e-001
    endloop
  endfacet
  facet normal  0.000000e+000  0.000000e+000  1.000000e+000
    outer loop
      vertex  2.120879e+000 -7.828657e-001  6.000000e-001
      vertex  1.586463e+000 -2.743577e-001  6.000000e-001
      vertex  8.303722e-002 -2.743577e-001  6.000000e-001
    endloop
  endfacet
  facet normal  0.000000e+000  0.000000e+000  1.000000e+000
    outer loop
      vertex  2.120879e+000 -7.828657e-001  6.000000e-001
      vertex  8.303722e-002 -2.743577e-001  6.000000e-001
      vertex  8.303722e-002 -7.828657e-001  6.000000e-001
    endloop
  endfacet
  facet normal  0.000000e+000  0.000000e+000  1.000000e+000
    outer loop
      vertex  1.586463e+000  4.599563e-001  6.000000e-001
      vertex  2.120879e+000  9.438263e-001  6.000000e-001
      vertex  8.303722e-002  4.599563e-001  6.000000e-001
    endloop
  endfacet
  facet normal  0.000000e+000  0.000000e+000  1.000000e+000
    outer loop
      vertex  8.303722e-002  4.599563e-001  6.000000e-001
      vertex  2.120879e+000  9.438263e-001  6.000000e-001
      vertex  6.535212e-001  9.438263e-001  6.000000e-001
    endloop
  endfacet
  facet normal  0.000000e+000  0.000000e+000  9.999999e-001
    outer loop
      vertex  8.303722e-002  4.599563e-001  6.000000e-001
      vertex  6.535212e-001  9.438263e-001  6.000000e-001
      vertex  8.303722e-002  2.185378e+000  6.000000e-001
    endloop
  endfacet
  facet normal  0.000000e+000  0.000000e+000  1.000000e+000
    outer loop
      vertex  8.303722e-002  2.185378e+000  6.000000e-001
      vertex  6.535212e-001  9.438263e-001  6.000000e-001
      vertex  6.535212e-001  1.676870e+000  6.000000e-001
    endloop
  endfacet
  facet normal  0.000000e+000  -0.000000e+000  1.000000e+000
    outer loop
      vertex  8.303722e-002  2.185378e+000  6.000000e-001
      vertex  6.535212e-001  1.676870e+000  6.000000e-001
      vertex  2.120879e+000  2.185378e+000  6.000000e-001
    endloop
  endfacet
  facet normal  0.000000e+000  0.000000e+000  1.000000e+000
    outer loop
      vertex  2.120879e+000  2.185378e+000  6.000000e-001
      vertex  6.535212e-001  1.676870e+000  6.000000e-001
      vertex  2.120879e+000  1.676870e+000  6.000000e-001
    endloop
  endfacet
  facet normal  0.000000e+000  0.000000e+000 -1.000000e+000
    outer loop
      vertex  2.120879e+000 -7.828657e-001  0.000000e+000
      vertex  8.303722e-002 -7.828657e-001  0.000000e+000
      vertex  8.303722e-002 -2.743577e-001  0.000000e+000
    endloop
  endfacet
  facet normal  0.000000e+000  0.000000e+000 -1.000000e+000
    outer loop
      vertex  2.120879e+000 -7.828657e-001  0.000000e+000
      vertex  8.303722e-002 -2.743577e-001  0.000000e+000
      vertex  1.586463e+000 -2.743577e-001  0.000000e+000
    endloop
  endfacet
  facet normal  0.000000e+000  0.000000e+000 -1.000000e+000
    outer loop
      vertex  2.120879e+000 -7.828657e-001  0.000000e+000
      vertex  1.586463e+000 -2.743577e-001  0.000000e+000
      vertex  1.586463e+000  4.599563e-001  0.000000e+000
    endloop
  endfacet
  facet normal  0.000000e+000  0.000000e+000 -9.999999e-001
    outer loop
      vertex  2.120879e+000 -7.828657e-001  0.000000e+000
      vertex  1.586463e+000  4.599563e-001  0.000000e+000
      vertex  2.120879e+000  9.438263e-001  0.000000e+000
    endloop
  endfacet
  facet normal  0.000000e+000  0.000000e+000 -1.000000e+000
    outer loop
      vertex  8.303722e-002  4.599563e-001  0.000000e+000
      vertex  2.120879e+000  9.438263e-001  0.000000e+000
      vertex  1.586463e+000  4.599563e-001  0.000000e+000
    endloop
  endfacet
  facet normal  0.000000e+000  0.000000e+000 -1.000000e+000
    outer loop
      vertex  2.120879e+000  9.438263e-001  0.000000e+000
      vertex  8.303722e-002  4.599563e-001  0.000000e+000
      vertex  6.535212e-001  9.438263e-001  0.000000e+000
    endloop
  endfacet
  facet normal  -0.000000e+000  0.000000e+000 -9.999999e-001
    outer loop
      vertex  6.535212e-001  9.438263e-001  0.000000e+000
      vertex  8.303722e-002  4.599563e-001  0.000000e+000
      vertex  8.303722e-002  2.185378e+000  0.000000e+000
    endloop
  endfacet
  facet normal  0.000000e+000  0.000000e+000 -1.000000e+000
    outer loop
      vertex  6.535212e-001  9.438263e-001  0.000000e+000
      vertex  8.303722e-002  2.185378e+000  0.000000e+000
      vertex  6.535212e-001  1.676870e+000  0.000000e+000
    endloop
  endfacet
  facet normal  0.000000e+000  0.000000e+000 -1.000000e+000
    outer loop
      vertex  6.535212e-001  1.676870e+000  0.000000e+000
      vertex  8.303722e-002  2.185378e+000  0.000000e+000
      vertex  2.120879e+000  2.185378e+000  0.000000e+000
    endloop
  endfacet
  facet normal  0.000000e+000  -0.000000e+000 -1.000000e+000
    outer loop
      vertex  6.535212e-001  1.676870e+000  0.000000e+000
      vertex  2.120879e+000  2.185378e+000  0.000000e+000
      vertex  2.120879e+000  1.676870e+000  0.000000e+000
    endloop
  endfacet
  facet normal -1.000000e+000  -0.000000e+000  0.000000e+000
    outer loop
      vertex  8.303722e-002  4.599563e-001  6.000000e-001
      vertex  8.303722e-002  2.185378e+000  6.000000e-001
      vertex  8.303722e-002  4.599563e-001  0.000000e+000
    endloop
  endfacet
  facet normal -1.000000e+000  0.000000e+000  0.000000e+000
    outer loop
      vertex  8.303722e-002  4.599563e-001  0.000000e+000
      vertex  8.303722e-002  2.185378e+000  6.000000e-001
      vertex  8.303722e-002  2.185378e+000  0.000000e+000
    endloop
  endfacet
  facet normal  0.000000e+000  1.000000e+000  0.000000e+000
    outer loop
      vertex  8.303722e-002  2.185378e+000  6.000000e-001
      vertex  2.120879e+000  2.185378e+000  6.000000e-001
      vertex  8.303722e-002  2.185378e+000  0.000000e+000
    endloop
  endfacet
  facet normal  0.000000e+000  1.000000e+000  0.000000e+000
    outer loop
      vertex  8.303722e-002  2.185378e+000  0.000000e+000
      vertex  2.120879e+000  2.185378e+000  6.000000e-001
      vertex  2.120879e+000  2.185378e+000  0.000000e+000
    endloop
  endfacet
  facet normal  1.000000e+000  -0.000000e+000  0.000000e+000
    outer loop
      vertex  2.120879e+000  2.185378e+000  6.000000e-001
      vertex  2.120879e+000  1.676870e+000  6.000000e-001
      vertex  2.120879e+000  2.185378e+000  0.000000e+000
    endloop
  endfacet
  facet normal  1.000000e+000  0.000000e+000  0.000000e+000
    outer loop
      vertex  2.120879e+000  2.185378e+000  0.000000e+000
      vertex  2.120879e+000  1.676870e+000  6.000000e-001
      vertex  2.120879e+000  1.676870e+000  0.000000e+000
    endloop
  endfacet
  facet normal  0.000000e+000 -1.000000e+000  0.000000e+000
    outer loop
      vertex  2.120879e+000  1.676870e+000  6.000000e-001
      vertex  6.535212e-001  1.676870e+000  6.000000e-001
      vertex  2.120879e+000  1.676870e+000  0.000000e+000
    endloop
  endfacet
  facet normal  0.000000e+000 -1.000000e+000  0.000000e+000
    outer loop
      vertex  2.120879e+000  1.676870e+000  0.000000e+000
      vertex  6.535212e-001  1.676870e+000  6.000000e-001
      vertex  6.535212e-001  1.676870e+000  0.000000e+000
    endloop
  endfacet
  facet normal  1.000000e+000  -0.000000e+000  0.000000e+000
    outer loop
      vertex  6.535212e-001  1.676870e+000  6.000000e-001
      vertex  6.535212e-001  9.438263e-001  6.000000e-001
      vertex  6.535212e-001  1.676870e+000  0.000000e+000
    endloop
  endfacet
  facet normal  1.000000e+000  0.000000e+000  0.000000e+000
    outer loop
      vertex  6.535212e-001  1.676870e+000  0.000000e+000
      vertex  6.535212e-001  9.438263e-001  6.000000e-001
      vertex  6.535212e-001  9.438263e-001  0.000000e+000
    endloop
  endfacet
  facet normal  0.000000e+000  1.000000e+000  0.000000e+000
    outer loop
      vertex  6.535212e-001  9.438263e-001  6.000000e-001
      vertex  2.120879e+000  9.438263e-001  6.000000e-001
      vertex  6.535212e-001  9.438263e-001  0.000000e+000
    endloop
  endfacet
  facet normal  0.000000e+000  1.000000e+000  0.000000e+000
    outer loop
      vertex  6.535212e-001  9.438263e-001  0.000000e+000
      vertex  2.120879e+000  9.438263e-001  6.000000e-001
      vertex  2.120879e+000  9.438263e-001  0.000000e+000
    endloop
  endfacet
  facet normal  1.000000e+000  -0.000000e+000  0.000000e+000
    outer loop
      vertex  2.120879e+000  9.438263e-001  6.000000e-001
      vertex  2.120879e+000 -7.828657e-001  6.000000e-001
      vertex  2.120879e+000  9.438263e-001  0.000000e+000
    endloop
  endfacet
  facet normal  1.000000e+000  0.000000e+000  0.000000e+000
    outer loop
      vertex  2.120879e+000  9.438263e-001  0.000000e+000
      vertex  2.120879e+000 -7.828657e-001  6.000000e-001
      vertex  2.120879e+000 -7.828657e-001  0.000000e+000
    endloop
  endfacet
  facet normal  0.000000e+000 -1.000000e+000  0.000000e+000
    outer loop
      vertex  2.120879e+000 -7.828657e-001  6.000000e-001
      vertex  8.303722e-002 -7.828657e-001  6.000000e-001
      vertex  2.120879e+000 -7.828657e-001  0.000000e+000
    endloop
  endfacet
  facet normal  0.000000e+000 -1.000000e+000  0.000000e+000
    outer loop
      vertex  2.120879e+000 -7.828657e-001  0.000000e+000
      vertex  8.303722e-002 -7.828657e-001  6.000000e-001
      vertex  8.303722e-002 -7.828657e-001  0.000000e+000
    endloop
  endfacet
  facet normal -1.000000e+000  -0.000000e+000  0.000000e+000
    outer loop
      vertex  8.303722e-002 -7.828657e-001  6.000000e-001
      vertex  8.303722e-002 -2.743577e-001  6.000000e-001
      vertex  8.303722e-002 -7.828657e-001  0.000000e+000
    endloop
  endfacet
  facet normal -1.000000e+000  0.000000e+000  0.000000e+000
    outer loop
      vertex  8.303722e-002 -7.828657e-001  0.000000e+000
      vertex  8.303722e-002 -2.743577e-001  6.000000e-001
      vertex  8.303722e-002 -2.743577e-001  0.000000e+000
    endloop
  endfacet
  facet normal  0.000000e+000  9.999999e-001  0.000000e+000
    outer loop
      vertex  8.303722e-002 -2.743577e-001  6.000000e-001
      vertex  1.586463e+000 -2.743577e-001  6.000000e-001
      vertex  8.303722e-002 -2.743577e-001  0.000000e+000
    endloop
  endfacet
  facet normal  0.000000e+000  9.999999e-001  0.000000e+000
    outer loop
      vertex  8.303722e-002 -2.743577e-001  0.000000e+000
      vertex  1.586463e+000 -2.743577e-001  6.000000e-001
      vertex  1.586463e+000 -2.743577e-001  0.000000e+000
    endloop
  endfacet
  facet normal -1.000000e+000  -0.000000e+000  0.000000e+000
    outer loop
      vertex  1.586463e+000 -2.743577e-001  6.000000e-001
      vertex  1.586463e+000  4.599563e-001  6.000000e-001
      vertex  1.586463e+000 -2.743577e-001  0.000000e+000
    endloop
  endfacet
  facet normal -1.000000e+000  0.000000e+000  0.000000e+000
    outer loop
      vertex  1.586463e+000 -2.743577e-001  0.000000e+000
      vertex  1.586463e+000  4.599563e-001  6.000000e-001
      vertex  1.586463e+000  4.599563e-001  0.000000e+000
    endloop
  endfacet
  facet normal  0.000000e+000 -9.999999e-001  0.000000e+000
    outer loop
      vertex  1.586463e+000  4.599563e-001  6.000000e-001
      vertex  8.303722e-002  4.599563e-001  6.000000e-001
      vertex  1.586463e+000  4.599563e-001  0.000000e+000
    endloop
  endfacet
  facet normal  0.000000e+000 -9.999999e-001  0.000000e+000
    outer loop
      vertex  1.586463e+000  4.599563e-001  0.000000e+000
      vertex  8.303722e-002  4.599563e-001  6.000000e-001
      vertex  8.303722e-002  4.599563e-001  0.000000e+000
    endloop
  endfacet
  facet normal  0.000000e+000  0.000000e+000  1.000000e+000
    outer loop
      vertex -2.368571e+000  2.185378e+000  6.000000e-001
      vertex -2.368571e+000 -7.828657e-001  6.000000e-001
      vertex -1.798087e+000 -7.828657e-001  6.000000e-001
    endloop
  endfacet
  facet normal  0.000000e+000  -0.000000e+000  1.000000e+000
    outer loop
      vertex -2.368571e+000  2.185378e+000  6.000000e-001
      vertex -1.798087e+000 -7.828657e-001  6.000000e-001
      vertex -1.798087e+000  4.599563e-001  6.000000e-001
    endloop
  endfacet
  facet normal  0.000000e+000  -0.000000e+000  1.000000e+000
    outer loop
      vertex -2.368571e+000  2.185378e+000  6.000000e-001
      vertex -1.798087e+000  4.599563e-001  6.000000e-001
      vertex -1.798087e+000  9.438263e-001  6.000000e-001
    endloop
  endfacet
  facet normal  0.000000e+000  -0.000000e+000  1.000000e+000
    outer loop
      vertex -2.368571e+000  2.185378e+000  6.000000e-001
      vertex -1.798087e+000  9.438263e-001  6.000000e-001
      vertex -1.798087e+000  1.676870e+000  6.000000e-001
    endloop
  endfacet
  facet normal  0.000000e+000  -0.000000e+000  1.000000e+000
    outer loop
      vertex -2.368571e+000  2.185378e+000  6.000000e-001
      vertex -1.798087e+000  1.676870e+000  6.000000e-001
      vertex -8.653988e-001  1.676870e+000  6.000000e-001
    endloop
  endfacet
  facet normal  0.000000e+000  -0.000000e+000  1.000000e+000
    outer loop
      vertex -2.368571e+000  2.185378e+000  6.000000e-001
      vertex -8.653988e-001  1.676870e+000  6.000000e-001
      vertex -3.304748e-001  2.185378e+000  6.000000e-001
    endloop
  endfacet
  facet normal  -0.000000e+000  0.000000e+000  9.999999e-001
    outer loop
      vertex -3.304748e-001  2.185378e+000  6.000000e-001
      vertex -8.653988e-001  1.676870e+000  6.000000e-001
      vertex -8.653988e-001  9.438263e-001  6.000000e-001
    endloop
  endfacet
  facet normal  -0.000000e+000  0.000000e+000  1.000000e+000
    outer loop
      vertex -3.304748e-001  2.185378e+000  6.000000e-001
      vertex -8.653988e-001  9.438263e-001  6.000000e-001
      vertex -8.653988e-001  4.599563e-001  6.000000e-001
    endloop
  endfacet
  facet normal  -0.000000e+000  0.000000e+000  1.000000e+000
    outer loop
      vertex -3.304748e-001  2.185378e+000  6.000000e-001
      vertex -8.653988e-001  4.599563e-001  6.000000e-001
      vertex -8.653988e-001 -7.828657e-001  6.000000e-001
    endloop
  endfacet
  facet normal  0.000000e+000  0.000000e+000  1.000000e+000
    outer loop
      vertex -3.304748e-001  2.185378e+000  6.000000e-001
      vertex -8.653988e-001 -7.828657e-001  6.000000e-001
      vertex -3.304748e-001 -7.828657e-001  6.000000e-001
    endloop
  endfacet
  facet normal  0.000000e+000  0.000000e+000  9.999999e-001
    outer loop
      vertex -1.798087e+000  9.438263e-001  6.000000e-001
      vertex -1.798087e+000  4.599563e-001  6.000000e-001
      vertex -8.653988e-001  9.438263e-001  6.000000e-001
    endloop
  endfacet
  facet normal  0.000000e+000  0.000000e+000  9.999999e-001
    outer loop
      vertex -8.653988e-001  9.438263e-001  6.000000e-001
      vertex -1.798087e+000  4.599563e-001  6.000000e-001
      vertex -8.653988e-001  4.599563e-001  6.000000e-001
    endloop
  endfacet
  facet normal  -0.000000e+000  0.000000e+000 -1.000000e+000
    outer loop
      vertex -2.368571e+000  2.185378e+000  0.000000e+000
      vertex -3.304748e-001  2.185378e+000  0.000000e+000
      vertex -8.653988e-001  1.676870e+000  0.000000e+000
    endloop
  endfacet
  facet normal  0.000000e+000  0.000000e+000 -1.000000e+000
    outer loop
      vertex -2.368571e+000  2.185378e+000  0.000000e+000
      vertex -8.653988e-001  1.676870e+000  0.000000e+000
      vertex -1.798087e+000  1.676870e+000  0.000000e+000
    endloop
  endfacet
  facet normal  -0.000000e+000  -0.000000e+000 -1.000000e+000
    outer loop
      vertex -2.368571e+000  2.185378e+000  0.000000e+000
      vertex -1.798087e+000  1.676870e+000  0.000000e+000
      vertex -1.798087e+000  9.438263e-001  0.000000e+000
    endloop
  endfacet
  facet normal  -0.000000e+000  -0.000000e+000 -1.000000e+000
    outer loop
      vertex -2.368571e+000  2.185378e+000  0.000000e+000
      vertex -1.798087e+000  9.438263e-001  0.000000e+000
      vertex -1.798087e+000  4.599563e-001  0.000000e+000
    endloop
  endfacet
  facet normal  -0.000000e+000  -0.000000e+000 -1.000000e+000
    outer loop
      vertex -2.368571e+000  2.185378e+000  0.000000e+000
      vertex -1.798087e+000  4.599563e-001  0.000000e+000
      vertex -1.798087e+000 -7.828657e-001  0.000000e+000
    endloop
  endfacet
  facet normal  0.000000e+000  0.000000e+000 -1.000000e+000
    outer loop
      vertex -2.368571e+000  2.185378e+000  0.000000e+000
      vertex -1.798087e+000 -7.828657e-001  0.000000e+000
      vertex -2.368571e+000 -7.828657e-001  0.000000e+000
    endloop
  endfacet
  facet normal  0.000000e+000  0.000000e+000 -1.000000e+000
    outer loop
      vertex -3.304748e-001  2.185378e+000  0.000000e+000
      vertex -3.304748e-001 -7.828657e-001  0.000000e+000
      vertex -8.653988e-001 -7.828657e-001  0.000000e+000
    endloop
  endfacet
  facet normal  0.000000e+000  0.000000e+000 -1.000000e+000
    outer loop
      vertex -3.304748e-001  2.185378e+000  0.000000e+000
      vertex -8.653988e-001 -7.828657e-001  0.000000e+000
      vertex -8.653988e-001  4.599563e-001  0.000000e+000
    endloop
  endfacet
  facet normal  0.000000e+000  0.000000e+000 -1.000000e+000
    outer loop
      vertex -3.304748e-001  2.185378e+000  0.000000e+000
      vertex -8.653988e-001  4.599563e-001  0.000000e+000
      vertex -8.653988e-001  9.438263e-001  0.000000e+000
    endloop
  endfacet
  facet normal  0.000000e+000  0.000000e+000 -9.999999e-001
    outer loop
      vertex -3.304748e-001  2.185378e+000  0.000000e+000
      vertex -8.653988e-001  9.438263e-001  0.000000e+000
      vertex -8.653988e-001  1.676870e+000  0.000000e+000
    endloop
  endfacet
  facet normal  -0.000000e+000  0.000000e+000 -9.999999e-001
    outer loop
      vertex -1.798087e+000  9.438263e-001  0.000000e+000
      vertex -8.653988e-001  9.438263e-001  0.000000e+000
      vertex -1.798087e+000  4.599563e-001  0.000000e+000
    endloop
  endfacet
  facet normal  0.000000e+000  0.000000e+000 -9.999999e-001
    outer loop
      vertex -1.798087e+000  4.599563e-001  0.000000e+000
      vertex -8.653988e-001  9.438263e-001  0.000000e+000
      vertex -8.653988e-001  4.599563e-001  0.000000e+000
    endloop
  endfacet
  facet normal  0.000000e+000  1.000000e+000  0.000000e+000
    outer loop
      vertex -1.798087e+000  9.438263e-001  6.000000e-001
      vertex -8.653988e-001  9.438263e-001  6.000000e-001
      vertex -1.798087e+000  9.438263e-001  0.000000e+000
    endloop
  endfacet
  facet normal  0.000000e+000  1.000000e+000  0.000000e+000
    outer loop
      vertex -1.798087e+000  9.438263e-001  0.000000e+000
      vertex -8.653988e-001  9.438263e-001  6.000000e-001
      vertex -8.653988e-001  9.438263e-001  0.000000e+000
    endloop
  endfacet
  facet normal -1.000000e+000  -0.000000e+000  0.000000e+000
    outer loop
      vertex -8.653988e-001  9.438263e-001  6.000000e-001
      vertex -8.653988e-001  1.676870e+000  6.000000e-001
      vertex -8.653988e-001  9.438263e-001  0.000000e+000
    endloop
  endfacet
  facet normal -1.000000e+000  0.000000e+000  0.000000e+000
    outer loop
      vertex -8.653988e-001  9.438263e-001  0.000000e+000
      vertex -8.653988e-001  1.676870e+000  6.000000e-001
      vertex -8.653988e-001  1.676870e+000  0.000000e+000
    endloop
  endfacet
  facet normal  0.000000e+000 -1.000000e+000  0.000000e+000
    outer loop
      vertex -8.653988e-001  1.676870e+000  6.000000e-001
      vertex -1.798087e+000  1.676870e+000  6.000000e-001
      vertex -8.653988e-001  1.676870e+000  0.000000e+000
    endloop
  endfacet
  facet normal  0.000000e+000 -1.000000e+000  0.000000e+000
    outer loop
      vertex -8.653988e-001  1.676870e+000  0.000000e+000
      vertex -1.798087e+000  1.676870e+000  6.000000e-001
      vertex -1.798087e+000  1.676870e+000  0.000000e+000
    endloop
  endfacet
  facet normal  1.000000e+000  -0.000000e+000  0.000000e+000
    outer loop
      vertex -1.798087e+000  1.676870e+000  6.000000e-001
      vertex -1.798087e+000  9.438263e-001  6.000000e-001
      vertex -1.798087e+000  1.676870e+000  0.000000e+000
    endloop
  endfacet
  facet normal  1.000000e+000  0.000000e+000  0.000000e+000
    outer loop
      vertex -1.798087e+000  1.676870e+000  0.000000e+000
      vertex -1.798087e+000  9.438263e-001  6.000000e-001
      vertex -1.798087e+000  9.438263e-001  0.000000e+000
    endloop
  endfacet
  facet normal  0.000000e+000 -1.000000e+000  0.000000e+000
    outer loop
      vertex -8.653988e-001  4.599563e-001  6.000000e-001
      vertex -1.798087e+000  4.599563e-001  6.000000e-001
      vertex -8.653988e-001  4.599563e-001  0.000000e+000
    endloop
  endfacet
  facet normal  0.000000e+000 -1.000000e+000  0.000000e+000
    outer loop
      vertex -8.653988e-001  4.599563e-001  0.000000e+000
      vertex -1.798087e+000  4.599563e-001  6.000000e-001
      vertex -1.798087e+000  4.599563e-001  0.000000e+000
    endloop
  endfacet
  facet normal  1.000000e+000  -0.000000e+000  0.000000e+000
    outer loop
      vertex -1.798087e+000  4.599563e-001  6.000000e-001
      vertex -1.798087e+000 -7.828657e-001  6.000000e-001
      vertex -1.798087e+000  4.599563e-001  0.000000e+000
    endloop
  endfacet
  facet normal  1.000000e+000  0.000000e+000  0.000000e+000
    outer loop
      vertex -1.798087e+000  4.599563e-001  0.000000e+000
      vertex -1.798087e+000 -7.828657e-001  6.000000e-001
      vertex -1.798087e+000 -7.828657e-001  0.000000e+000
    endloop
  endfacet
  facet normal  0.000000e+000 -1.000000e+000  0.000000e+000
    outer loop
      vertex -1.798087e+000 -7.828657e-001  6.000000e-001
      vertex -2.368571e+000 -7.828657e-001  6.000000e-001
      vertex -1.798087e+000 -7.828657e-001  0.000000e+000
    endloop
  endfacet
  facet normal  0.000000e+000 -1.000000e+000  0.000000e+000
    outer loop
      vertex -1.798087e+000 -7.828657e-001  0.000000e+000
      vertex -2.368571e+000 -7.828657e-001  6.000000e-001
      vertex -2.368571e+000 -7.828657e-001  0.000000e+000
    endloop
  endfacet
  facet normal -1.000000e+000  -0.000000e+000  0.000000e+000
    outer loop
      vertex -2.368571e+000 -7.828657e-001  6.000000e-001
      vertex -2.368571e+000  2.185378e+000  6.000000e-001
      vertex -2.368571e+000 -7.828657e-001  0.000000e+000
    endloop
  endfacet
  facet normal -1.000000e+000  0.000000e+000  0.000000e+000
    outer loop
      vertex -2.368571e+000 -7.828657e-001  0.000000e+000
      vertex -2.368571e+000  2.185378e+000  6.000000e-001
      vertex -2.368571e+000  2.185378e+000  0.000000e+000
    endloop
  endfacet
  facet normal  0.000000e+000  1.000000e+000  0.000000e+000
    outer loop
      vertex -2.368571e+000  2.185378e+000  6.000000e-001
      vertex -3.304748e-001  2.185378e+000  6.000000e-001
      vertex -2.368571e+000  2.185378e+000  0.000000e+000
    endloop
  endfacet
  facet normal  0.000000e+000  1.000000e+000  0.000000e+000
    outer loop
      vertex -2.368571e+000  2.185378e+000  0.000000e+000
      vertex -3.304748e-001  2.185378e+000  6.000000e-001
      vertex -3.304748e-001  2.185378e+000  0.000000e+000
    endloop
  endfacet
  facet normal  1.000000e+000  -0.000000e+000  0.000000e+000
    outer loop
      vertex -3.304748e-001  2.185378e+000  6.000000e-001
      vertex -3.304748e-001 -7.828657e-001  6.000000e-001
      vertex -3.304748e-001  2.185378e+000  0.000000e+000
    endloop
  endfacet
  facet normal  1.000000e+000  0.000000e+000  0.000000e+000
    outer loop
      vertex -3.304748e-001  2.185378e+000  0.000000e+000
      vertex -3.304748e-001 -7.828657e-001  6.000000e-001
      vertex -3.304748e-001 -7.828657e-001  0.000000e+000
    endloop
  endfacet
  facet normal  0.000000e+000 -1.000000e+000  0.000000e+000
    outer loop
      vertex -3.304748e-001 -7.828657e-001  6.000000e-001
      vertex -8.653988e-001 -7.828657e-001  6.000000e-001
      vertex -3.304748e-001 -7.828657e-001  0.000000e+000
    endloop
  endfacet
  facet normal  0.000000e+000 -1.000000e+000  0.000000e+000
    outer loop
      vertex -3.304748e-001 -7.828657e-001  0.000000e+000
      vertex -8.653988e-001 -7.828657e-001  6.000000e-001
      vertex -8.653988e-001 -7.828657e-001  0.000000e+000
    endloop
  endfacet
  facet normal -1.000000e+000  -0.000000e+000  0.000000e+000
    outer loop
      vertex -8.653988e-001 -7.828657e-001  6.000000e-001
      vertex -8.653988e-001  4.599563e-001  6.000000e-001
      vertex -8.653988e-001 -7.828657e-001  0.000000e+000
    endloop
  endfacet
  facet normal -1.000000e+000  0.000000e+000  0.000000e+000
    outer loop
      vertex -8.653988e-001 -7.828657e-001  0.000000e+000
      vertex -8.653988e-001  4.599563e-001  6.000000e-001
      vertex -8.653988e-001  4.599563e-001  0.000000e+000
    endloop
  endfacet
  facet normal  0.000000e+000  0.000000e+000  1.000000e+000
    outer loop
      vertex -2.781829e+000 -7.828657e-001  6.000000e-001
      vertex -2.781829e+000 -2.743577e-001  6.000000e-001
      vertex -4.819925e+000 -7.828657e-001  6.000000e-001
    endloop
  endfacet
  facet normal  0.000000e+000  0.000000e+000  1.000000e+000
    outer loop
      vertex -4.819925e+000 -7.828657e-001  6.000000e-001
      vertex -2.781829e+000 -2.743577e-001  6.000000e-001
      vertex -4.249441e+000 -2.743577e-001  6.000000e-001
    endloop
  endfacet
  facet normal  0.000000e+000  0.000000e+000  9.999999e-001
    outer loop
      vertex -4.819925e+000 -7.828657e-001  6.000000e-001
      vertex -4.249441e+000 -2.743577e-001  6.000000e-001
      vertex -4.819925e+000  2.185378e+000  6.000000e-001
    endloop
  endfacet
  facet normal  0.000000e+000  0.000000e+000  1.000000e+000
    outer loop
      vertex -4.819925e+000  2.185378e+000  6.000000e-001
      vertex -4.249441e+000 -2.743577e-001  6.000000e-001
      vertex -4.249441e+000  1.676870e+000  6.000000e-001
    endloop
  endfacet
  facet normal  0.000000e+000  -0.000000e+000  1.000000e+000
    outer loop
      vertex -4.819925e+000  2.185378e+000  6.000000e-001
      vertex -4.249441e+000  1.676870e+000  6.000000e-001
      vertex -2.781829e+000  2.185378e+000  6.000000e-001
    endloop
  endfacet
  facet normal  0.000000e+000  0.000000e+000  1.000000e+000
    outer loop
      vertex -2.781829e+000  2.185378e+000  6.000000e-001
      vertex -4.249441e+000  1.676870e+000  6.000000e-001
      vertex -2.781829e+000  1.676870e+000  6.000000e-001
    endloop
  endfacet
  facet normal  0.000000e+000  -0.000000e+000 -1.000000e+000
    outer loop
      vertex -4.819925e+000 -7.828657e-001  0.000000e+000
      vertex -2.781829e+000 -2.743577e-001  0.000000e+000
      vertex -2.781829e+000 -7.828657e-001  0.000000e+000
    endloop
  endfacet
  facet normal  0.000000e+000  0.000000e+000 -1.000000e+000
    outer loop
      vertex -2.781829e+000 -2.743577e-001  0.000000e+000
      vertex -4.819925e+000 -7.828657e-001  0.000000e+000
      vertex -4.249441e+000 -2.743577e-001  0.000000e+000
    endloop
  endfacet
  facet normal  -0.000000e+000  0.000000e+000 -9.999999e-001
    outer loop
      vertex -4.249441e+000 -2.743577e-001  0.000000e+000
      vertex -4.819925e+000 -7.828657e-001  0.000000e+000
      vertex -4.819925e+000  2.185378e+000  0.000000e+000
    endloop
  endfacet
  facet normal  0.000000e+000  0.000000e+000 -1.000000e+000
    outer loop
      vertex -4.249441e+000 -2.743577e-001  0.000000e+000
      vertex -4.819925e+000  2.185378e+000  0.000000e+000
      vertex -4.249441e+000  1.676870e+000  0.000000e+000
    endloop
  endfacet
  facet normal  0.000000e+000  0.000000e+000 -1.000000e+000
    outer loop
      vertex -4.249441e+000  1.676870e+000  0.000000e+000
      vertex -4.819925e+000  2.185378e+000  0.000000e+000
      vertex -2.781829e+000  2.185378e+000  0.000000e+000
    endloop
  endfacet
  facet normal  0.000000e+000  -0.000000e+000 -1.000000e+000
    outer loop
      vertex -4.249441e+000  1.676870e+000  0.000000e+000
      vertex -2.781829e+000  2.185378e+000  0.000000e+000
      vertex -2.781829e+000  1.676870e+000  0.000000e+000
    endloop
  endfacet
  facet normal  0.000000e+000  1.000000e+000  0.000000e+000
    outer loop
      vertex -4.249441e+000 -2.743577e-001  6.000000e-001
      vertex -2.781829e+000 -2.743577e-001  6.000000e-001
      vertex -4.249441e+000 -2.743577e-001  0.000000e+000
    endloop
  endfacet
  facet normal  0.000000e+000  1.000000e+000  0.000000e+000
    outer loop
      vertex -4.249441e+000 -2.743577e-001  0.000000e+000
      vertex -2.781829e+000 -2.743577e-001  6.000000e-001
      vertex -2.781829e+000 -2.743577e-001  0.000000e+000
    endloop
  endfacet
  facet normal  1.000000e+000  -0.000000e+000  0.000000e+000
    outer loop
      vertex -2.781829e+000 -2.743577e-001  6.000000e-001
      vertex -2.781829e+000 -7.828657e-001  6.000000e-001
      vertex -2.781829e+000 -2.743577e-001  0.000000e+000
    endloop
  endfacet
  facet normal  1.000000e+000  0.000000e+000  0.000000e+000
    outer loop
      vertex -2.781829e+000 -2.743577e-001  0.000000e+000
      vertex -2.781829e+000 -7.828657e-001  6.000000e-001
      vertex -2.781829e+000 -7.828657e-001  0.000000e+000
    endloop
  endfacet
  facet normal  0.000000e+000 -1.000000e+000  0.000000e+000
    outer loop
      vertex -2.781829e+000 -7.828657e-001  6.000000e-001
      vertex -4.819925e+000 -7.828657e-001  6.000000e-001
      vertex -2.781829e+000 -7.828657e-001  0.000000e+000
    endloop
  endfacet
  facet normal  0.000000e+000 -1.000000e+000  0.000000e+000
    outer loop
      vertex -2.781829e+000 -7.828657e-001  0.000000e+000
      vertex -4.819925e+000 -7.828657e-001  6.000000e-001
      vertex -4.819925e+000 -7.828657e-001  0.000000e+000
    endloop
  endfacet
  facet normal -1.000000e+000  -0.000000e+000  0.000000e+000
    outer loop
      vertex -4.819925e+000 -7.828657e-001  6.000000e-001
      vertex -4.819925e+000  2.185378e+000  6.000000e-001
      vertex -4.819925e+000 -7.828657e-001  0.000000e+000
    endloop
  endfacet
  facet normal -1.000000e+000  0.000000e+000  0.000000e+000
    outer loop
      vertex -4.819925e+000 -7.828657e-001  0.000000e+000
      vertex -4.819925e+000  2.185378e+000  6.000000e-001
      vertex -4.819925e+000  2.185378e+000  0.000000e+000
    endloop
  endfacet
  facet normal  0.000000e+000  1.000000e+000  0.000000e+000
    outer loop
      vertex -4.819925e+000  2.185378e+000  6.000000e-001
      vertex -2.781829e+000  2.185378e+000  6.000000e-001
      vertex -4.819925e+000  2.185378e+000  0.000000e+000
    endloop
  endfacet
  facet normal  0.000000e+000  1.000000e+000  0.000000e+000
    outer loop
      vertex -4.819925e+000  2.185378e+000  0.000000e+000
      vertex -2.781829e+000  2.185378e+000  6.000000e-001
      vertex -2.781829e+000  2.185378e+000  0.000000e+000
    endloop
  endfacet
  facet normal  1.000000e+000  -0.000000e+000  0.000000e+000
    outer loop
      vertex -2.781829e+000  2.185378e+000  6.000000e-001
      vertex -2.781829e+000  1.676870e+000  6.000000e-001
      vertex -2.781829e+000  2.185378e+000  0.000000e+000
    endloop
  endfacet
  facet normal  1.000000e+000  0.000000e+000  0.000000e+000
    outer loop
      vertex -2.781829e+000  2.185378e+000  0.000000e+000
      vertex -2.781829e+000  1.676870e+000  6.000000e-001
      vertex -2.781829e+000  1.676870e+000  0.000000e+000
    endloop
  endfacet
  facet normal  0.000000e+000 -1.000000e+000  0.000000e+000
    outer loop
      vertex -2.781829e+000  1.676870e+000  6.000000e-001
      vertex -4.249441e+000  1.676870e+000  6.000000e-001
      vertex -2.781829e+000  1.676870e+000  0.000000e+000
    endloop
  endfacet
  facet normal  0.000000e+000 -1.000000e+000  0.000000e+000
    outer loop
      vertex -2.781829e+000  1.676870e+000  0.000000e+000
      vertex -4.249441e+000  1.676870e+000  6.000000e-001
      vertex -4.249441e+000  1.676870e+000  0.000000e+000
    endloop
  endfacet
  facet normal  1.000000e+000  -0.000000e+000  0.000000e+000
    outer loop
      vertex -4.249441e+000  1.676870e+000  6.000000e-001
      vertex -4.249441e+000 -2.743577e-001  6.000000e-001
      vertex -4.249441e+000  1.676870e+000  0.000000e+000
    endloop
  endfacet
  facet normal  1.000000e+000  0.000000e+000  0.000000e+000
    outer loop
      vertex -4.249441e+000  1.676870e+000  0.000000e+000
      vertex -4.249441e+000 -2.743577e-001  6.000000e-001
      vertex -4.249441e+000 -2.743577e-001  0.000000e+000
    endloop
  endfacet
endsolid CATIA STL
