solid CATIA STL
  facet normal  0.000000e+000  -0.000000e+000  1.000000e+000
    outer loop
      vertex  8.786650e+000  1.515909e+000  6.000000e-001
      vertex  1.025424e+001  1.515909e+000  6.000000e-001
      vertex  1.025424e+001  2.024417e+000  6.000000e-001
    endloop
  endfacet
  facet normal  0.000000e+000  0.000000e+000  9.999999e-001
    outer loop
      vertex  8.216141e+000  2.024417e+000  6.000000e-001
      vertex  8.216141e+000 -9.438270e-001  6.000000e-001
      vertex  8.786650e+000 -4.353189e-001  6.000000e-001
    endloop
  endfacet
  facet normal  0.000000e+000  -0.000000e+000  1.000000e+000
    outer loop
      vertex  8.216141e+000  2.024417e+000  6.000000e-001
      vertex  8.786650e+000 -4.353189e-001  6.000000e-001
      vertex  8.786650e+000  2.989950e-001  6.000000e-001
    endloop
  endfacet
  facet normal  0.000000e+000  -0.000000e+000  1.000000e+000
    outer loop
      vertex  8.216141e+000  2.024417e+000  6.000000e-001
      vertex  8.786650e+000  2.989950e-001  6.000000e-001
      vertex  8.786650e+000  7.828650e-001  6.000000e-001
    endloop
  endfacet
  facet normal  0.000000e+000  -0.000000e+000  1.000000e+000
    outer loop
      vertex  8.216141e+000  2.024417e+000  6.000000e-001
      vertex  8.786650e+000  7.828650e-001  6.000000e-001
      vertex  8.786650e+000  1.515909e+000  6.000000e-001
    endloop
  endfacet
  facet normal  0.000000e+000  -0.000000e+000  1.000000e+000
    outer loop
      vertex  8.216141e+000  2.024417e+000  6.000000e-001
      vertex  8.786650e+000  1.515909e+000  6.000000e-001
      vertex  1.025424e+001  2.024417e+000  6.000000e-001
    endloop
  endfacet
  facet normal  0.000000e+000  0.000000e+000  1.000000e+000
    outer loop
      vertex  8.786650e+000  2.989950e-001  6.000000e-001
      vertex  1.025424e+001  2.989950e-001  6.000000e-001
      vertex  8.786650e+000  7.828650e-001  6.000000e-001
    endloop
  endfacet
  facet normal  -0.000000e+000  0.000000e+000  1.000000e+000
    outer loop
      vertex  8.786650e+000  7.828650e-001  6.000000e-001
      vertex  1.025424e+001  2.989950e-001  6.000000e-001
      vertex  1.025424e+001  7.828650e-001  6.000000e-001
    endloop
  endfacet
  facet normal  0.000000e+000  0.000000e+000  1.000000e+000
    outer loop
      vertex  8.216141e+000 -9.438270e-001  6.000000e-001
      vertex  1.025424e+001 -9.438270e-001  6.000000e-001
      vertex  8.786650e+000 -4.353189e-001  6.000000e-001
    endloop
  endfacet
  facet normal  -0.000000e+000  0.000000e+000  1.000000e+000
    outer loop
      vertex  8.786650e+000 -4.353189e-001  6.000000e-001
      vertex  1.025424e+001 -9.438270e-001  6.000000e-001
      vertex  1.025424e+001 -4.353189e-001  6.000000e-001
    endloop
  endfacet
  facet normal  0.000000e+000  0.000000e+000 -1.000000e+000
    outer loop
      vertex  1.025424e+001  2.024417e+000  0.000000e+000
      vertex  1.025424e+001  1.515909e+000  0.000000e+000
      vertex  8.786650e+000  1.515909e+000  0.000000e+000
    endloop
  endfacet
  facet normal  -0.000000e+000  0.000000e+000 -1.000000e+000
    outer loop
      vertex  8.216141e+000  2.024417e+000  0.000000e+000
      vertex  1.025424e+001  2.024417e+000  0.000000e+000
      vertex  8.786650e+000  1.515909e+000  0.000000e+000
    endloop
  endfacet
  facet normal  -0.000000e+000  -0.000000e+000 -1.000000e+000
    outer loop
      vertex  8.216141e+000  2.024417e+000  0.000000e+000
      vertex  8.786650e+000  1.515909e+000  0.000000e+000
      vertex  8.786650e+000  7.828650e-001  0.000000e+000
    endloop
  endfacet
  facet normal  -0.000000e+000  -0.000000e+000 -1.000000e+000
    outer loop
      vertex  8.216141e+000  2.024417e+000  0.000000e+000
      vertex  8.786650e+000  7.828650e-001  0.000000e+000
      vertex  8.786650e+000  2.989950e-001  0.000000e+000
    endloop
  endfacet
  facet normal  -0.000000e+000  -0.000000e+000 -1.000000e+000
    outer loop
      vertex  8.216141e+000  2.024417e+000  0.000000e+000
      vertex  8.786650e+000  2.989950e-001  0.000000e+000
      vertex  8.786650e+000 -4.353189e-001  0.000000e+000
    endloop
  endfacet
  facet normal  -0.000000e+000  0.000000e+000 -1.000000e+000
    outer loop
      vertex  8.216141e+000  2.024417e+000  0.000000e+000
      vertex  8.786650e+000 -4.353189e-001  0.000000e+000
      vertex  8.216141e+000 -9.438270e-001  0.000000e+000
    endloop
  endfacet
  facet normal  0.000000e+000  0.000000e+000 -1.000000e+000
    outer loop
      vertex  8.786650e+000  2.989950e-001  0.000000e+000
      vertex  8.786650e+000  7.828650e-001  0.000000e+000
      vertex  1.025424e+001  2.989950e-001  0.000000e+000
    endloop
  endfacet
  facet normal  0.000000e+000  0.000000e+000 -1.000000e+000
    outer loop
      vertex  1.025424e+001  2.989950e-001  0.000000e+000
      vertex  8.786650e+000  7.828650e-001  0.000000e+000
      vertex  1.025424e+001  7.828650e-001  0.000000e+000
    endloop
  endfacet
  facet normal  0.000000e+000  -0.000000e+000 -1.000000e+000
    outer loop
      vertex  8.216141e+000 -9.438270e-001  0.000000e+000
      vertex  8.786650e+000 -4.353189e-001  0.000000e+000
      vertex  1.025424e+001 -9.438270e-001  0.000000e+000
    endloop
  endfacet
  facet normal  0.000000e+000  0.000000e+000 -1.000000e+000
    outer loop
      vertex  1.025424e+001 -9.438270e-001  0.000000e+000
      vertex  8.786650e+000 -4.353189e-001  0.000000e+000
      vertex  1.025424e+001 -4.353189e-001  0.000000e+000
    endloop
  endfacet
  facet normal  1.000000e+000  -0.000000e+000  0.000000e+000
    outer loop
      vertex  8.786650e+000  1.515909e+000  6.000000e-001
      vertex  8.786650e+000  7.828650e-001  6.000000e-001
      vertex  8.786650e+000  1.515909e+000  0.000000e+000
    endloop
  endfacet
  facet normal  1.000000e+000  0.000000e+000  0.000000e+000
    outer loop
      vertex  8.786650e+000  1.515909e+000  0.000000e+000
      vertex  8.786650e+000  7.828650e-001  6.000000e-001
      vertex  8.786650e+000  7.828650e-001  0.000000e+000
    endloop
  endfacet
  facet normal  0.000000e+000  1.000000e+000  0.000000e+000
    outer loop
      vertex  8.786650e+000  7.828650e-001  6.000000e-001
      vertex  1.025424e+001  7.828650e-001  6.000000e-001
      vertex  8.786650e+000  7.828650e-001  0.000000e+000
    endloop
  endfacet
  facet normal  0.000000e+000  1.000000e+000  0.000000e+000
    outer loop
      vertex  8.786650e+000  7.828650e-001  0.000000e+000
      vertex  1.025424e+001  7.828650e-001  6.000000e-001
      vertex  1.025424e+001  7.828650e-001  0.000000e+000
    endloop
  endfacet
  facet normal  1.000000e+000  -0.000000e+000  0.000000e+000
    outer loop
      vertex  1.025424e+001  7.828650e-001  6.000000e-001
      vertex  1.025424e+001  2.989950e-001  6.000000e-001
      vertex  1.025424e+001  7.828650e-001  0.000000e+000
    endloop
  endfacet
  facet normal  1.000000e+000  0.000000e+000  0.000000e+000
    outer loop
      vertex  1.025424e+001  7.828650e-001  0.000000e+000
      vertex  1.025424e+001  2.989950e-001  6.000000e-001
      vertex  1.025424e+001  2.989950e-001  0.000000e+000
    endloop
  endfacet
  facet normal  0.000000e+000 -1.000000e+000  0.000000e+000
    outer loop
      vertex  1.025424e+001  2.989950e-001  6.000000e-001
      vertex  8.786650e+000  2.989950e-001  6.000000e-001
      vertex  1.025424e+001  2.989950e-001  0.000000e+000
    endloop
  endfacet
  facet normal  0.000000e+000 -1.000000e+000  0.000000e+000
    outer loop
      vertex  1.025424e+001  2.989950e-001  0.000000e+000
      vertex  8.786650e+000  2.989950e-001  6.000000e-001
      vertex  8.786650e+000  2.989950e-001  0.000000e+000
    endloop
  endfacet
  facet normal  1.000000e+000  -0.000000e+000  0.000000e+000
    outer loop
      vertex  8.786650e+000  2.989950e-001  6.000000e-001
      vertex  8.786650e+000 -4.353189e-001  6.000000e-001
      vertex  8.786650e+000  2.989950e-001  0.000000e+000
    endloop
  endfacet
  facet normal  1.000000e+000  0.000000e+000  0.000000e+000
    outer loop
      vertex  8.786650e+000  2.989950e-001  0.000000e+000
      vertex  8.786650e+000 -4.353189e-001  6.000000e-001
      vertex  8.786650e+000 -4.353189e-001  0.000000e+000
    endloop
  endfacet
  facet normal  0.000000e+000  1.000000e+000  0.000000e+000
    outer loop
      vertex  8.786650e+000 -4.353189e-001  6.000000e-001
      vertex  1.025424e+001 -4.353189e-001  6.000000e-001
      vertex  8.786650e+000 -4.353189e-001  0.000000e+000
    endloop
  endfacet
  facet normal  0.000000e+000  1.000000e+000  0.000000e+000
    outer loop
      vertex  8.786650e+000 -4.353189e-001  0.000000e+000
      vertex  1.025424e+001 -4.353189e-001  6.000000e-001
      vertex  1.025424e+001 -4.353189e-001  0.000000e+000
    endloop
  endfacet
  facet normal  1.000000e+000  -0.000000e+000  0.000000e+000
    outer loop
      vertex  1.025424e+001 -4.353189e-001  6.000000e-001
      vertex  1.025424e+001 -9.438270e-001  6.000000e-001
      vertex  1.025424e+001 -4.353189e-001  0.000000e+000
    endloop
  endfacet
  facet normal  1.000000e+000  0.000000e+000  0.000000e+000
    outer loop
      vertex  1.025424e+001 -4.353189e-001  0.000000e+000
      vertex  1.025424e+001 -9.438270e-001  6.000000e-001
      vertex  1.025424e+001 -9.438270e-001  0.000000e+000
    endloop
  endfacet
  facet normal  0.000000e+000 -1.000000e+000  0.000000e+000
    outer loop
      vertex  1.025424e+001 -9.438270e-001  6.000000e-001
      vertex  8.216141e+000 -9.438270e-001  6.000000e-001
      vertex  1.025424e+001 -9.438270e-001  0.000000e+000
    endloop
  endfacet
  facet normal  0.000000e+000 -1.000000e+000  0.000000e+000
    outer loop
      vertex  1.025424e+001 -9.438270e-001  0.000000e+000
      vertex  8.216141e+000 -9.438270e-001  6.000000e-001
      vertex  8.216141e+000 -9.438270e-001  0.000000e+000
    endloop
  endfacet
  facet normal -1.000000e+000  -0.000000e+000  0.000000e+000
    outer loop
      vertex  8.216141e+000 -9.438270e-001  6.000000e-001
      vertex  8.216141e+000  2.024417e+000  6.000000e-001
      vertex  8.216141e+000 -9.438270e-001  0.000000e+000
    endloop
  endfacet
  facet normal -1.000000e+000  0.000000e+000  0.000000e+000
    outer loop
      vertex  8.216141e+000 -9.438270e-001  0.000000e+000
      vertex  8.216141e+000  2.024417e+000  6.000000e-001
      vertex  8.216141e+000  2.024417e+000  0.000000e+000
    endloop
  endfacet
  facet normal  0.000000e+000  1.000000e+000  0.000000e+000
    outer loop
      vertex  8.216141e+000  2.024417e+000  6.000000e-001
      vertex  1.025424e+001  2.024417e+000  6.000000e-001
      vertex  8.216141e+000  2.024417e+000  0.000000e+000
    endloop
  endfacet
  facet normal  0.000000e+000  1.000000e+000  0.000000e+000
    outer loop
      vertex  8.216141e+000  2.024417e+000  0.000000e+000
      vertex  1.025424e+001  2.024417e+000  6.000000e-001
      vertex  1.025424e+001  2.024417e+000  0.000000e+000
    endloop
  endfacet
  facet normal  9.999999e-001  -0.000000e+000  0.000000e+000
    outer loop
      vertex  1.025424e+001  2.024417e+000  6.000000e-001
      vertex  1.025424e+001  1.515909e+000  6.000000e-001
      vertex  1.025424e+001  2.024417e+000  0.000000e+000
    endloop
  endfacet
  facet normal  9.999999e-001  0.000000e+000  0.000000e+000
    outer loop
      vertex  1.025424e+001  2.024417e+000  0.000000e+000
      vertex  1.025424e+001  1.515909e+000  6.000000e-001
      vertex  1.025424e+001  1.515909e+000  0.000000e+000
    endloop
  endfacet
  facet normal  0.000000e+000 -1.000000e+000  0.000000e+000
    outer loop
      vertex  1.025424e+001  1.515909e+000  6.000000e-001
      vertex  8.786650e+000  1.515909e+000  6.000000e-001
      vertex  1.025424e+001  1.515909e+000  0.000000e+000
    endloop
  endfacet
  facet normal  0.000000e+000 -1.000000e+000  0.000000e+000
    outer loop
      vertex  1.025424e+001  1.515909e+000  0.000000e+000
      vertex  8.786650e+000  1.515909e+000  6.000000e-001
      vertex  8.786650e+000  1.515909e+000  0.000000e+000
    endloop
  endfacet
  facet normal  -0.000000e+000  0.000000e+000  1.000000e+000
    outer loop
      vertex  7.802731e+000  2.024417e+000  6.000000e-001
      vertex  5.764609e+000  2.024417e+000  6.000000e-001
      vertex  5.764609e+000  1.515909e+000  6.000000e-001
    endloop
  endfacet
  facet normal  0.000000e+000  0.000000e+000  1.000000e+000
    outer loop
      vertex  7.802731e+000  2.024417e+000  6.000000e-001
      vertex  5.764609e+000  1.515909e+000  6.000000e-001
      vertex  6.534940e+000  1.515909e+000  6.000000e-001
    endloop
  endfacet
  facet normal  0.000000e+000  0.000000e+000  1.000000e+000
    outer loop
      vertex  7.802731e+000  2.024417e+000  6.000000e-001
      vertex  6.534940e+000  1.515909e+000  6.000000e-001
      vertex  7.105450e+000  1.515909e+000  6.000000e-001
    endloop
  endfacet
  facet normal  0.000000e+000  0.000000e+000  1.000000e+000
    outer loop
      vertex  7.802731e+000  2.024417e+000  6.000000e-001
      vertex  7.105450e+000  1.515909e+000  6.000000e-001
      vertex  7.802731e+000  1.515909e+000  6.000000e-001
    endloop
  endfacet
  facet normal  0.000000e+000  0.000000e+000  1.000000e+000
    outer loop
      vertex  6.534940e+000 -9.438270e-001  6.000000e-001
      vertex  7.105450e+000 -9.438270e-001  6.000000e-001
      vertex  6.534940e+000  1.515909e+000  6.000000e-001
    endloop
  endfacet
  facet normal  -0.000000e+000  0.000000e+000  1.000000e+000
    outer loop
      vertex  6.534940e+000  1.515909e+000  6.000000e-001
      vertex  7.105450e+000 -9.438270e-001  6.000000e-001
      vertex  7.105450e+000  1.515909e+000  6.000000e-001
    endloop
  endfacet
  facet normal  0.000000e+000  0.000000e+000 -1.000000e+000
    outer loop
      vertex  7.802731e+000  2.024417e+000  0.000000e+000
      vertex  7.802731e+000  1.515909e+000  0.000000e+000
      vertex  7.105450e+000  1.515909e+000  0.000000e+000
    endloop
  endfacet
  facet normal  0.000000e+000  0.000000e+000 -1.000000e+000
    outer loop
      vertex  7.802731e+000  2.024417e+000  0.000000e+000
      vertex  7.105450e+000  1.515909e+000  0.000000e+000
      vertex  6.534940e+000  1.515909e+000  0.000000e+000
    endloop
  endfacet
  facet normal  0.000000e+000  0.000000e+000 -1.000000e+000
    outer loop
      vertex  7.802731e+000  2.024417e+000  0.000000e+000
      vertex  6.534940e+000  1.515909e+000  0.000000e+000
      vertex  5.764609e+000  1.515909e+000  0.000000e+000
    endloop
  endfacet
  facet normal  0.000000e+000  0.000000e+000 -1.000000e+000
    outer loop
      vertex  7.802731e+000  2.024417e+000  0.000000e+000
      vertex  5.764609e+000  1.515909e+000  0.000000e+000
      vertex  5.764609e+000  2.024417e+000  0.000000e+000
    endloop
  endfacet
  facet normal  0.000000e+000  0.000000e+000 -1.000000e+000
    outer loop
      vertex  6.534940e+000 -9.438270e-001  0.000000e+000
      vertex  6.534940e+000  1.515909e+000  0.000000e+000
      vertex  7.105450e+000 -9.438270e-001  0.000000e+000
    endloop
  endfacet
  facet normal  0.000000e+000  0.000000e+000 -1.000000e+000
    outer loop
      vertex  7.105450e+000 -9.438270e-001  0.000000e+000
      vertex  6.534940e+000  1.515909e+000  0.000000e+000
      vertex  7.105450e+000  1.515909e+000  0.000000e+000
    endloop
  endfacet
  facet normal  0.000000e+000 -1.000000e+000  0.000000e+000
    outer loop
      vertex  6.534940e+000  1.515909e+000  6.000000e-001
      vertex  5.764609e+000  1.515909e+000  6.000000e-001
      vertex  6.534940e+000  1.515909e+000  0.000000e+000
    endloop
  endfacet
  facet normal  0.000000e+000 -1.000000e+000  0.000000e+000
    outer loop
      vertex  6.534940e+000  1.515909e+000  0.000000e+000
      vertex  5.764609e+000  1.515909e+000  6.000000e-001
      vertex  5.764609e+000  1.515909e+000  0.000000e+000
    endloop
  endfacet
  facet normal -9.999999e-001  0.000000e+000  0.000000e+000
    outer loop
      vertex  5.764609e+000  1.515909e+000  0.000000e+000
      vertex  5.764609e+000  1.515909e+000  6.000000e-001
      vertex  5.764609e+000  2.024417e+000  0.000000e+000
    endloop
  endfacet
  facet normal -9.999999e-001  0.000000e+000  0.000000e+000
    outer loop
      vertex  5.764609e+000  2.024417e+000  0.000000e+000
      vertex  5.764609e+000  1.515909e+000  6.000000e-001
      vertex  5.764609e+000  2.024417e+000  6.000000e-001
    endloop
  endfacet
  facet normal  0.000000e+000  1.000000e+000  0.000000e+000
    outer loop
      vertex  5.764609e+000  2.024417e+000  6.000000e-001
      vertex  7.802731e+000  2.024417e+000  6.000000e-001
      vertex  5.764609e+000  2.024417e+000  0.000000e+000
    endloop
  endfacet
  facet normal  0.000000e+000  1.000000e+000  0.000000e+000
    outer loop
      vertex  5.764609e+000  2.024417e+000  0.000000e+000
      vertex  7.802731e+000  2.024417e+000  6.000000e-001
      vertex  7.802731e+000  2.024417e+000  0.000000e+000
    endloop
  endfacet
  facet normal  9.999999e-001  0.000000e+000  0.000000e+000
    outer loop
      vertex  7.802731e+000  2.024417e+000  0.000000e+000
      vertex  7.802731e+000  2.024417e+000  6.000000e-001
      vertex  7.802731e+000  1.515909e+000  0.000000e+000
    endloop
  endfacet
  facet normal  9.999999e-001  0.000000e+000  0.000000e+000
    outer loop
      vertex  7.802731e+000  1.515909e+000  0.000000e+000
      vertex  7.802731e+000  2.024417e+000  6.000000e-001
      vertex  7.802731e+000  1.515909e+000  6.000000e-001
    endloop
  endfacet
  facet normal  0.000000e+000 -1.000000e+000  0.000000e+000
    outer loop
      vertex  7.802731e+000  1.515909e+000  6.000000e-001
      vertex  7.105450e+000  1.515909e+000  6.000000e-001
      vertex  7.802731e+000  1.515909e+000  0.000000e+000
    endloop
  endfacet
  facet normal  0.000000e+000 -1.000000e+000  0.000000e+000
    outer loop
      vertex  7.802731e+000  1.515909e+000  0.000000e+000
      vertex  7.105450e+000  1.515909e+000  6.000000e-001
      vertex  7.105450e+000  1.515909e+000  0.000000e+000
    endloop
  endfacet
  facet normal  1.000000e+000  -0.000000e+000  0.000000e+000
    outer loop
      vertex  7.105450e+000  1.515909e+000  6.000000e-001
      vertex  7.105450e+000 -9.438270e-001  6.000000e-001
      vertex  7.105450e+000  1.515909e+000  0.000000e+000
    endloop
  endfacet
  facet normal  1.000000e+000  0.000000e+000  0.000000e+000
    outer loop
      vertex  7.105450e+000  1.515909e+000  0.000000e+000
      vertex  7.105450e+000 -9.438270e-001  6.000000e-001
      vertex  7.105450e+000 -9.438270e-001  0.000000e+000
    endloop
  endfacet
  facet normal  0.000000e+000 -1.000000e+000  0.000000e+000
    outer loop
      vertex  7.105450e+000 -9.438270e-001  6.000000e-001
      vertex  6.534940e+000 -9.438270e-001  6.000000e-001
      vertex  7.105450e+000 -9.438270e-001  0.000000e+000
    endloop
  endfacet
  facet normal  0.000000e+000 -1.000000e+000  0.000000e+000
    outer loop
      vertex  7.105450e+000 -9.438270e-001  0.000000e+000
      vertex  6.534940e+000 -9.438270e-001  6.000000e-001
      vertex  6.534940e+000 -9.438270e-001  0.000000e+000
    endloop
  endfacet
  facet normal -1.000000e+000  -0.000000e+000  0.000000e+000
    outer loop
      vertex  6.534940e+000 -9.438270e-001  6.000000e-001
      vertex  6.534940e+000  1.515909e+000  6.000000e-001
      vertex  6.534940e+000 -9.438270e-001  0.000000e+000
    endloop
  endfacet
  facet normal -1.000000e+000  0.000000e+000  0.000000e+000
    outer loop
      vertex  6.534940e+000 -9.438270e-001  0.000000e+000
      vertex  6.534940e+000  1.515909e+000  6.000000e-001
      vertex  6.534940e+000  1.515909e+000  0.000000e+000
    endloop
  endfacet
  facet normal  -0.000000e+000  0.000000e+000  1.000000e+000
    outer loop
      vertex  5.351199e+000  2.024417e+000  6.000000e-001
      vertex  3.313102e+000  2.024417e+000  6.000000e-001
      vertex  3.313102e+000  1.515909e+000  6.000000e-001
    endloop
  endfacet
  facet normal  0.000000e+000  0.000000e+000  1.000000e+000
    outer loop
      vertex  5.351199e+000  2.024417e+000  6.000000e-001
      vertex  3.313102e+000  1.515909e+000  6.000000e-001
      vertex  4.083383e+000  1.515909e+000  6.000000e-001
    endloop
  endfacet
  facet normal  0.000000e+000  0.000000e+000  1.000000e+000
    outer loop
      vertex  5.351199e+000  2.024417e+000  6.000000e-001
      vertex  4.083383e+000  1.515909e+000  6.000000e-001
      vertex  4.653893e+000  1.515909e+000  6.000000e-001
    endloop
  endfacet
  facet normal  0.000000e+000  0.000000e+000  1.000000e+000
    outer loop
      vertex  5.351199e+000  2.024417e+000  6.000000e-001
      vertex  4.653893e+000  1.515909e+000  6.000000e-001
      vertex  5.351199e+000  1.515909e+000  6.000000e-001
    endloop
  endfacet
  facet normal  0.000000e+000  0.000000e+000  1.000000e+000
    outer loop
      vertex  4.083383e+000 -9.438270e-001  6.000000e-001
      vertex  4.653893e+000 -9.438270e-001  6.000000e-001
      vertex  4.083383e+000  1.515909e+000  6.000000e-001
    endloop
  endfacet
  facet normal  -0.000000e+000  0.000000e+000  1.000000e+000
    outer loop
      vertex  4.083383e+000  1.515909e+000  6.000000e-001
      vertex  4.653893e+000 -9.438270e-001  6.000000e-001
      vertex  4.653893e+000  1.515909e+000  6.000000e-001
    endloop
  endfacet
  facet normal  0.000000e+000  0.000000e+000 -1.000000e+000
    outer loop
      vertex  5.351199e+000  2.024417e+000  0.000000e+000
      vertex  5.351199e+000  1.515909e+000  0.000000e+000
      vertex  4.653893e+000  1.515909e+000  0.000000e+000
    endloop
  endfacet
  facet normal  0.000000e+000  0.000000e+000 -1.000000e+000
    outer loop
      vertex  5.351199e+000  2.024417e+000  0.000000e+000
      vertex  4.653893e+000  1.515909e+000  0.000000e+000
      vertex  4.083383e+000  1.515909e+000  0.000000e+000
    endloop
  endfacet
  facet normal  0.000000e+000  0.000000e+000 -1.000000e+000
    outer loop
      vertex  5.351199e+000  2.024417e+000  0.000000e+000
      vertex  4.083383e+000  1.515909e+000  0.000000e+000
      vertex  3.313102e+000  1.515909e+000  0.000000e+000
    endloop
  endfacet
  facet normal  0.000000e+000  0.000000e+000 -1.000000e+000
    outer loop
      vertex  5.351199e+000  2.024417e+000  0.000000e+000
      vertex  3.313102e+000  1.515909e+000  0.000000e+000
      vertex  3.313102e+000  2.024417e+000  0.000000e+000
    endloop
  endfacet
  facet normal  0.000000e+000  0.000000e+000 -1.000000e+000
    outer loop
      vertex  4.083383e+000 -9.438270e-001  0.000000e+000
      vertex  4.083383e+000  1.515909e+000  0.000000e+000
      vertex  4.653893e+000 -9.438270e-001  0.000000e+000
    endloop
  endfacet
  facet normal  0.000000e+000  0.000000e+000 -1.000000e+000
    outer loop
      vertex  4.653893e+000 -9.438270e-001  0.000000e+000
      vertex  4.083383e+000  1.515909e+000  0.000000e+000
      vertex  4.653893e+000  1.515909e+000  0.000000e+000
    endloop
  endfacet
  facet normal  0.000000e+000 -1.000000e+000  0.000000e+000
    outer loop
      vertex  4.083383e+000  1.515909e+000  6.000000e-001
      vertex  3.313102e+000  1.515909e+000  6.000000e-001
      vertex  4.083383e+000  1.515909e+000  0.000000e+000
    endloop
  endfacet
  facet normal  0.000000e+000 -1.000000e+000  0.000000e+000
    outer loop
      vertex  4.083383e+000  1.515909e+000  0.000000e+000
      vertex  3.313102e+000  1.515909e+000  6.000000e-001
      vertex  3.313102e+000  1.515909e+000  0.000000e+000
    endloop
  endfacet
  facet normal -9.999999e-001  0.000000e+000  0.000000e+000
    outer loop
      vertex  3.313102e+000  1.515909e+000  0.000000e+000
      vertex  3.313102e+000  1.515909e+000  6.000000e-001
      vertex  3.313102e+000  2.024417e+000  0.000000e+000
    endloop
  endfacet
  facet normal -9.999999e-001  0.000000e+000  0.000000e+000
    outer loop
      vertex  3.313102e+000  2.024417e+000  0.000000e+000
      vertex  3.313102e+000  1.515909e+000  6.000000e-001
      vertex  3.313102e+000  2.024417e+000  6.000000e-001
    endloop
  endfacet
  facet normal  0.000000e+000  1.000000e+000  0.000000e+000
    outer loop
      vertex  3.313102e+000  2.024417e+000  6.000000e-001
      vertex  5.351199e+000  2.024417e+000  6.000000e-001
      vertex  3.313102e+000  2.024417e+000  0.000000e+000
    endloop
  endfacet
  facet normal  0.000000e+000  1.000000e+000  0.000000e+000
    outer loop
      vertex  3.313102e+000  2.024417e+000  0.000000e+000
      vertex  5.351199e+000  2.024417e+000  6.000000e-001
      vertex  5.351199e+000  2.024417e+000  0.000000e+000
    endloop
  endfacet
  facet normal  9.999999e-001  0.000000e+000  0.000000e+000
    outer loop
      vertex  5.351199e+000  2.024417e+000  0.000000e+000
      vertex  5.351199e+000  2.024417e+000  6.000000e-001
      vertex  5.351199e+000  1.515909e+000  0.000000e+000
    endloop
  endfacet
  facet normal  9.999999e-001  0.000000e+000  0.000000e+000
    outer loop
      vertex  5.351199e+000  1.515909e+000  0.000000e+000
      vertex  5.351199e+000  2.024417e+000  6.000000e-001
      vertex  5.351199e+000  1.515909e+000  6.000000e-001
    endloop
  endfacet
  facet normal  0.000000e+000 -1.000000e+000  0.000000e+000
    outer loop
      vertex  5.351199e+000  1.515909e+000  6.000000e-001
      vertex  4.653893e+000  1.515909e+000  6.000000e-001
      vertex  5.351199e+000  1.515909e+000  0.000000e+000
    endloop
  endfacet
  facet normal  0.000000e+000 -1.000000e+000  0.000000e+000
    outer loop
      vertex  5.351199e+000  1.515909e+000  0.000000e+000
      vertex  4.653893e+000  1.515909e+000  6.000000e-001
      vertex  4.653893e+000  1.515909e+000  0.000000e+000
    endloop
  endfacet
  facet normal  1.000000e+000  -0.000000e+000  0.000000e+000
    outer loop
      vertex  4.653893e+000  1.515909e+000  6.000000e-001
      vertex  4.653893e+000 -9.438270e-001  6.000000e-001
      vertex  4.653893e+000  1.515909e+000  0.000000e+000
    endloop
  endfacet
  facet normal  1.000000e+000  0.000000e+000  0.000000e+000
    outer loop
      vertex  4.653893e+000  1.515909e+000  0.000000e+000
      vertex  4.653893e+000 -9.438270e-001  6.000000e-001
      vertex  4.653893e+000 -9.438270e-001  0.000000e+000
    endloop
  endfacet
  facet normal  0.000000e+000 -1.000000e+000  0.000000e+000
    outer loop
      vertex  4.653893e+000 -9.438270e-001  6.000000e-001
      vertex  4.083383e+000 -9.438270e-001  6.000000e-001
      vertex  4.653893e+000 -9.438270e-001  0.000000e+000
    endloop
  endfacet
  facet normal  0.000000e+000 -1.000000e+000  0.000000e+000
    outer loop
      vertex  4.653893e+000 -9.438270e-001  0.000000e+000
      vertex  4.083383e+000 -9.438270e-001  6.000000e-001
      vertex  4.083383e+000 -9.438270e-001  0.000000e+000
    endloop
  endfacet
  facet normal -1.000000e+000  -0.000000e+000  0.000000e+000
    outer loop
      vertex  4.083383e+000 -9.438270e-001  6.000000e-001
      vertex  4.083383e+000  1.515909e+000  6.000000e-001
      vertex  4.083383e+000 -9.438270e-001  0.000000e+000
    endloop
  endfacet
  facet normal -1.000000e+000  0.000000e+000  0.000000e+000
    outer loop
      vertex  4.083383e+000 -9.438270e-001  0.000000e+000
      vertex  4.083383e+000  1.515909e+000  6.000000e-001
      vertex  4.083383e+000  1.515909e+000  0.000000e+000
    endloop
  endfacet
  facet normal  0.000000e+000  -0.000000e+000  1.000000e+000
    outer loop
      vertex  1.432055e+000  1.515909e+000  6.000000e-001
      vertex  2.899667e+000  1.515909e+000  6.000000e-001
      vertex  2.899667e+000  2.024417e+000  6.000000e-001
    endloop
  endfacet
  facet normal  0.000000e+000  0.000000e+000  1.000000e+000
    outer loop
      vertex  8.615454e-001  2.024417e+000  6.000000e-001
      vertex  8.615454e-001 -9.438270e-001  6.000000e-001
      vertex  1.432055e+000 -4.353189e-001  6.000000e-001
    endloop
  endfacet
  facet normal  0.000000e+000  -0.000000e+000  1.000000e+000
    outer loop
      vertex  8.615454e-001  2.024417e+000  6.000000e-001
      vertex  1.432055e+000 -4.353189e-001  6.000000e-001
      vertex  1.432055e+000  2.989950e-001  6.000000e-001
    endloop
  endfacet
  facet normal  0.000000e+000  -0.000000e+000  1.000000e+000
    outer loop
      vertex  8.615454e-001  2.024417e+000  6.000000e-001
      vertex  1.432055e+000  2.989950e-001  6.000000e-001
      vertex  1.432055e+000  7.828650e-001  6.000000e-001
    endloop
  endfacet
  facet normal  0.000000e+000  -0.000000e+000  1.000000e+000
    outer loop
      vertex  8.615454e-001  2.024417e+000  6.000000e-001
      vertex  1.432055e+000  7.828650e-001  6.000000e-001
      vertex  1.432055e+000  1.515909e+000  6.000000e-001
    endloop
  endfacet
  facet normal  0.000000e+000  -0.000000e+000  1.000000e+000
    outer loop
      vertex  8.615454e-001  2.024417e+000  6.000000e-001
      vertex  1.432055e+000  1.515909e+000  6.000000e-001
      vertex  2.899667e+000  2.024417e+000  6.000000e-001
    endloop
  endfacet
  facet normal  0.000000e+000  0.000000e+000  1.000000e+000
    outer loop
      vertex  1.432055e+000  2.989950e-001  6.000000e-001
      vertex  2.899667e+000  2.989950e-001  6.000000e-001
      vertex  1.432055e+000  7.828650e-001  6.000000e-001
    endloop
  endfacet
  facet normal  -0.000000e+000  0.000000e+000  1.000000e+000
    outer loop
      vertex  1.432055e+000  7.828650e-001  6.000000e-001
      vertex  2.899667e+000  2.989950e-001  6.000000e-001
      vertex  2.899667e+000  7.828650e-001  6.000000e-001
    endloop
  endfacet
  facet normal  0.000000e+000  0.000000e+000  1.000000e+000
    outer loop
      vertex  8.615454e-001 -9.438270e-001  6.000000e-001
      vertex  2.899667e+000 -9.438270e-001  6.000000e-001
      vertex  1.432055e+000 -4.353189e-001  6.000000e-001
    endloop
  endfacet
  facet normal  -0.000000e+000  0.000000e+000  1.000000e+000
    outer loop
      vertex  1.432055e+000 -4.353189e-001  6.000000e-001
      vertex  2.899667e+000 -9.438270e-001  6.000000e-001
      vertex  2.899667e+000 -4.353189e-001  6.000000e-001
    endloop
  endfacet
  facet normal  0.000000e+000  0.000000e+000 -1.000000e+000
    outer loop
      vertex  2.899667e+000  2.024417e+000  0.000000e+000
      vertex  2.899667e+000  1.515909e+000  0.000000e+000
      vertex  1.432055e+000  1.515909e+000  0.000000e+000
    endloop
  endfacet
  facet normal  -0.000000e+000  0.000000e+000 -1.000000e+000
    outer loop
      vertex  8.615454e-001  2.024417e+000  0.000000e+000
      vertex  2.899667e+000  2.024417e+000  0.000000e+000
      vertex  1.432055e+000  1.515909e+000  0.000000e+000
    endloop
  endfacet
  facet normal  -0.000000e+000  -0.000000e+000 -1.000000e+000
    outer loop
      vertex  8.615454e-001  2.024417e+000  0.000000e+000
      vertex  1.432055e+000  1.515909e+000  0.000000e+000
      vertex  1.432055e+000  7.828650e-001  0.000000e+000
    endloop
  endfacet
  facet normal  -0.000000e+000  -0.000000e+000 -1.000000e+000
    outer loop
      vertex  8.615454e-001  2.024417e+000  0.000000e+000
      vertex  1.432055e+000  7.828650e-001  0.000000e+000
      vertex  1.432055e+000  2.989950e-001  0.000000e+000
    endloop
  endfacet
  facet normal  -0.000000e+000  -0.000000e+000 -1.000000e+000
    outer loop
      vertex  8.615454e-001  2.024417e+000  0.000000e+000
      vertex  1.432055e+000  2.989950e-001  0.000000e+000
      vertex  1.432055e+000 -4.353189e-001  0.000000e+000
    endloop
  endfacet
  facet normal  -0.000000e+000  0.000000e+000 -1.000000e+000
    outer loop
      vertex  8.615454e-001  2.024417e+000  0.000000e+000
      vertex  1.432055e+000 -4.353189e-001  0.000000e+000
      vertex  8.615454e-001 -9.438270e-001  0.000000e+000
    endloop
  endfacet
  facet normal  0.000000e+000  0.000000e+000 -1.000000e+000
    outer loop
      vertex  1.432055e+000  2.989950e-001  0.000000e+000
      vertex  1.432055e+000  7.828650e-001  0.000000e+000
      vertex  2.899667e+000  2.989950e-001  0.000000e+000
    endloop
  endfacet
  facet normal  0.000000e+000  0.000000e+000 -1.000000e+000
    outer loop
      vertex  2.899667e+000  2.989950e-001  0.000000e+000
      vertex  1.432055e+000  7.828650e-001  0.000000e+000
      vertex  2.899667e+000  7.828650e-001  0.000000e+000
    endloop
  endfacet
  facet normal  0.000000e+000  -0.000000e+000 -1.000000e+000
    outer loop
      vertex  8.615454e-001 -9.438270e-001  0.000000e+000
      vertex  1.432055e+000 -4.353189e-001  0.000000e+000
      vertex  2.899667e+000 -9.438270e-001  0.000000e+000
    endloop
  endfacet
  facet normal  0.000000e+000  0.000000e+000 -1.000000e+000
    outer loop
      vertex  2.899667e+000 -9.438270e-001  0.000000e+000
      vertex  1.432055e+000 -4.353189e-001  0.000000e+000
      vertex  2.899667e+000 -4.353189e-001  0.000000e+000
    endloop
  endfacet
  facet normal  1.000000e+000  -0.000000e+000  0.000000e+000
    outer loop
      vertex  1.432055e+000  1.515909e+000  6.000000e-001
      vertex  1.432055e+000  7.828650e-001  6.000000e-001
      vertex  1.432055e+000  1.515909e+000  0.000000e+000
    endloop
  endfacet
  facet normal  1.000000e+000  0.000000e+000  0.000000e+000
    outer loop
      vertex  1.432055e+000  1.515909e+000  0.000000e+000
      vertex  1.432055e+000  7.828650e-001  6.000000e-001
      vertex  1.432055e+000  7.828650e-001  0.000000e+000
    endloop
  endfacet
  facet normal  0.000000e+000  9.999999e-001  0.000000e+000
    outer loop
      vertex  1.432055e+000  7.828650e-001  6.000000e-001
      vertex  2.899667e+000  7.828650e-001  6.000000e-001
      vertex  1.432055e+000  7.828650e-001  0.000000e+000
    endloop
  endfacet
  facet normal  0.000000e+000  9.999999e-001  0.000000e+000
    outer loop
      vertex  1.432055e+000  7.828650e-001  0.000000e+000
      vertex  2.899667e+000  7.828650e-001  6.000000e-001
      vertex  2.899667e+000  7.828650e-001  0.000000e+000
    endloop
  endfacet
  facet normal  1.000000e+000  -0.000000e+000  0.000000e+000
    outer loop
      vertex  2.899667e+000  7.828650e-001  6.000000e-001
      vertex  2.899667e+000  2.989950e-001  6.000000e-001
      vertex  2.899667e+000  7.828650e-001  0.000000e+000
    endloop
  endfacet
  facet normal  1.000000e+000  0.000000e+000  0.000000e+000
    outer loop
      vertex  2.899667e+000  7.828650e-001  0.000000e+000
      vertex  2.899667e+000  2.989950e-001  6.000000e-001
      vertex  2.899667e+000  2.989950e-001  0.000000e+000
    endloop
  endfacet
  facet normal  0.000000e+000 -9.999999e-001  0.000000e+000
    outer loop
      vertex  2.899667e+000  2.989950e-001  6.000000e-001
      vertex  1.432055e+000  2.989950e-001  6.000000e-001
      vertex  2.899667e+000  2.989950e-001  0.000000e+000
    endloop
  endfacet
  facet normal  0.000000e+000 -9.999999e-001  0.000000e+000
    outer loop
      vertex  2.899667e+000  2.989950e-001  0.000000e+000
      vertex  1.432055e+000  2.989950e-001  6.000000e-001
      vertex  1.432055e+000  2.989950e-001  0.000000e+000
    endloop
  endfacet
  facet normal  1.000000e+000  -0.000000e+000  0.000000e+000
    outer loop
      vertex  1.432055e+000  2.989950e-001  6.000000e-001
      vertex  1.432055e+000 -4.353189e-001  6.000000e-001
      vertex  1.432055e+000  2.989950e-001  0.000000e+000
    endloop
  endfacet
  facet normal  1.000000e+000  0.000000e+000  0.000000e+000
    outer loop
      vertex  1.432055e+000  2.989950e-001  0.000000e+000
      vertex  1.432055e+000 -4.353189e-001  6.000000e-001
      vertex  1.432055e+000 -4.353189e-001  0.000000e+000
    endloop
  endfacet
  facet normal  0.000000e+000  9.999999e-001  0.000000e+000
    outer loop
      vertex  1.432055e+000 -4.353189e-001  6.000000e-001
      vertex  2.899667e+000 -4.353189e-001  6.000000e-001
      vertex  1.432055e+000 -4.353189e-001  0.000000e+000
    endloop
  endfacet
  facet normal  0.000000e+000  9.999999e-001  0.000000e+000
    outer loop
      vertex  1.432055e+000 -4.353189e-001  0.000000e+000
      vertex  2.899667e+000 -4.353189e-001  6.000000e-001
      vertex  2.899667e+000 -4.353189e-001  0.000000e+000
    endloop
  endfacet
  facet normal  1.000000e+000  -0.000000e+000  0.000000e+000
    outer loop
      vertex  2.899667e+000 -4.353189e-001  6.000000e-001
      vertex  2.899667e+000 -9.438270e-001  6.000000e-001
      vertex  2.899667e+000 -4.353189e-001  0.000000e+000
    endloop
  endfacet
  facet normal  1.000000e+000  0.000000e+000  0.000000e+000
    outer loop
      vertex  2.899667e+000 -4.353189e-001  0.000000e+000
      vertex  2.899667e+000 -9.438270e-001  6.000000e-001
      vertex  2.899667e+000 -9.438270e-001  0.000000e+000
    endloop
  endfacet
  facet normal  0.000000e+000 -1.000000e+000  0.000000e+000
    outer loop
      vertex  2.899667e+000 -9.438270e-001  6.000000e-001
      vertex  8.615454e-001 -9.438270e-001  6.000000e-001
      vertex  2.899667e+000 -9.438270e-001  0.000000e+000
    endloop
  endfacet
  facet normal  0.000000e+000 -1.000000e+000  0.000000e+000
    outer loop
      vertex  2.899667e+000 -9.438270e-001  0.000000e+000
      vertex  8.615454e-001 -9.438270e-001  6.000000e-001
      vertex  8.615454e-001 -9.438270e-001  0.000000e+000
    endloop
  endfacet
  facet normal -1.000000e+000  -0.000000e+000  0.000000e+000
    outer loop
      vertex  8.615454e-001 -9.438270e-001  6.000000e-001
      vertex  8.615454e-001  2.024417e+000  6.000000e-001
      vertex  8.615454e-001 -9.438270e-001  0.000000e+000
    endloop
  endfacet
  facet normal -1.000000e+000  0.000000e+000  0.000000e+000
    outer loop
      vertex  8.615454e-001 -9.438270e-001  0.000000e+000
      vertex  8.615454e-001  2.024417e+000  6.000000e-001
      vertex  8.615454e-001  2.024417e+000  0.000000e+000
    endloop
  endfacet
  facet normal  0.000000e+000  1.000000e+000  0.000000e+000
    outer loop
      vertex  8.615454e-001  2.024417e+000  6.000000e-001
      vertex  2.899667e+000  2.024417e+000  6.000000e-001
      vertex  8.615454e-001  2.024417e+000  0.000000e+000
    endloop
  endfacet
  facet normal  0.000000e+000  1.000000e+000  0.000000e+000
    outer loop
      vertex  8.615454e-001  2.024417e+000  0.000000e+000
      vertex  2.899667e+000  2.024417e+000  6.000000e-001
      vertex  2.899667e+000  2.024417e+000  0.000000e+000
    endloop
  endfacet
  facet normal  9.999999e-001  -0.000000e+000  0.000000e+000
    outer loop
      vertex  2.899667e+000  2.024417e+000  6.000000e-001
      vertex  2.899667e+000  1.515909e+000  6.000000e-001
      vertex  2.899667e+000  2.024417e+000  0.000000e+000
    endloop
  endfacet
  facet normal  9.999999e-001  0.000000e+000  0.000000e+000
    outer loop
      vertex  2.899667e+000  2.024417e+000  0.000000e+000
      vertex  2.899667e+000  1.515909e+000  6.000000e-001
      vertex  2.899667e+000  1.515909e+000  0.000000e+000
    endloop
  endfacet
  facet normal  0.000000e+000 -9.999999e-001  0.000000e+000
    outer loop
      vertex  2.899667e+000  1.515909e+000  6.000000e-001
      vertex  1.432055e+000  1.515909e+000  6.000000e-001
      vertex  2.899667e+000  1.515909e+000  0.000000e+000
    endloop
  endfacet
  facet normal  0.000000e+000 -9.999999e-001  0.000000e+000
    outer loop
      vertex  2.899667e+000  1.515909e+000  0.000000e+000
      vertex  1.432055e+000  1.515909e+000  6.000000e-001
      vertex  1.432055e+000  1.515909e+000  0.000000e+000
    endloop
  endfacet
  facet normal  -0.000000e+000  0.000000e+000  1.000000e+000
    outer loop
      vertex -1.019477e+000  2.024417e+000  6.000000e-001
      vertex -1.589986e+000  2.024417e+000  6.000000e-001
      vertex -1.019477e+000 -4.353189e-001  6.000000e-001
    endloop
  endfacet
  facet normal  0.000000e+000  0.000000e+000  1.000000e+000
    outer loop
      vertex -1.019477e+000 -4.353189e-001  6.000000e-001
      vertex -1.589986e+000  2.024417e+000  6.000000e-001
      vertex -1.589986e+000 -9.438270e-001  6.000000e-001
    endloop
  endfacet
  facet normal  0.000000e+000  0.000000e+000  1.000000e+000
    outer loop
      vertex -1.019477e+000 -4.353189e-001  6.000000e-001
      vertex -1.589986e+000 -9.438270e-001  6.000000e-001
      vertex  4.481604e-001 -4.353189e-001  6.000000e-001
    endloop
  endfacet
  facet normal  0.000000e+000  0.000000e+000  1.000000e+000
    outer loop
      vertex  4.481604e-001 -4.353189e-001  6.000000e-001
      vertex -1.589986e+000 -9.438270e-001  6.000000e-001
      vertex  4.481604e-001 -9.438270e-001  6.000000e-001
    endloop
  endfacet
  facet normal  0.000000e+000  0.000000e+000 -1.000000e+000
    outer loop
      vertex -1.019477e+000  2.024417e+000  0.000000e+000
      vertex -1.019477e+000 -4.353189e-001  0.000000e+000
      vertex -1.589986e+000  2.024417e+000  0.000000e+000
    endloop
  endfacet
  facet normal  0.000000e+000  0.000000e+000 -1.000000e+000
    outer loop
      vertex -1.589986e+000  2.024417e+000  0.000000e+000
      vertex -1.019477e+000 -4.353189e-001  0.000000e+000
      vertex -1.589986e+000 -9.438270e-001  0.000000e+000
    endloop
  endfacet
  facet normal  -0.000000e+000  0.000000e+000 -1.000000e+000
    outer loop
      vertex -1.019477e+000 -4.353189e-001  0.000000e+000
      vertex  4.481604e-001 -4.353189e-001  0.000000e+000
      vertex -1.589986e+000 -9.438270e-001  0.000000e+000
    endloop
  endfacet
  facet normal  0.000000e+000  0.000000e+000 -1.000000e+000
    outer loop
      vertex -1.589986e+000 -9.438270e-001  0.000000e+000
      vertex  4.481604e-001 -4.353189e-001  0.000000e+000
      vertex  4.481604e-001 -9.438270e-001  0.000000e+000
    endloop
  endfacet
  facet normal  0.000000e+000  1.000000e+000  0.000000e+000
    outer loop
      vertex -1.019477e+000 -4.353189e-001  6.000000e-001
      vertex  4.481604e-001 -4.353189e-001  6.000000e-001
      vertex -1.019477e+000 -4.353189e-001  0.000000e+000
    endloop
  endfacet
  facet normal  0.000000e+000  1.000000e+000  0.000000e+000
    outer loop
      vertex -1.019477e+000 -4.353189e-001  0.000000e+000
      vertex  4.481604e-001 -4.353189e-001  6.000000e-001
      vertex  4.481604e-001 -4.353189e-001  0.000000e+000
    endloop
  endfacet
  facet normal  1.000000e+000  0.000000e+000  0.000000e+000
    outer loop
      vertex  4.481604e-001 -4.353189e-001  0.000000e+000
      vertex  4.481604e-001 -4.353189e-001  6.000000e-001
      vertex  4.481604e-001 -9.438270e-001  0.000000e+000
    endloop
  endfacet
  facet normal  1.000000e+000  0.000000e+000  0.000000e+000
    outer loop
      vertex  4.481604e-001 -9.438270e-001  0.000000e+000
      vertex  4.481604e-001 -4.353189e-001  6.000000e-001
      vertex  4.481604e-001 -9.438270e-001  6.000000e-001
    endloop
  endfacet
  facet normal  0.000000e+000 -1.000000e+000  0.000000e+000
    outer loop
      vertex  4.481604e-001 -9.438270e-001  6.000000e-001
      vertex -1.589986e+000 -9.438270e-001  6.000000e-001
      vertex  4.481604e-001 -9.438270e-001  0.000000e+000
    endloop
  endfacet
  facet normal  0.000000e+000 -1.000000e+000  0.000000e+000
    outer loop
      vertex  4.481604e-001 -9.438270e-001  0.000000e+000
      vertex -1.589986e+000 -9.438270e-001  6.000000e-001
      vertex -1.589986e+000 -9.438270e-001  0.000000e+000
    endloop
  endfacet
  facet normal -1.000000e+000  -0.000000e+000  0.000000e+000
    outer loop
      vertex -1.589986e+000 -9.438270e-001  6.000000e-001
      vertex -1.589986e+000  2.024417e+000  6.000000e-001
      vertex -1.589986e+000 -9.438270e-001  0.000000e+000
    endloop
  endfacet
  facet normal -1.000000e+000  0.000000e+000  0.000000e+000
    outer loop
      vertex -1.589986e+000 -9.438270e-001  0.000000e+000
      vertex -1.589986e+000  2.024417e+000  6.000000e-001
      vertex -1.589986e+000  2.024417e+000  0.000000e+000
    endloop
  endfacet
  facet normal  0.000000e+000  1.000000e+000  0.000000e+000
    outer loop
      vertex -1.589986e+000  2.024417e+000  6.000000e-001
      vertex -1.019477e+000  2.024417e+000  6.000000e-001
      vertex -1.589986e+000  2.024417e+000  0.000000e+000
    endloop
  endfacet
  facet normal  0.000000e+000  1.000000e+000  0.000000e+000
    outer loop
      vertex -1.589986e+000  2.024417e+000  0.000000e+000
      vertex -1.019477e+000  2.024417e+000  6.000000e-001
      vertex -1.019477e+000  2.024417e+000  0.000000e+000
    endloop
  endfacet
  facet normal  1.000000e+000  -0.000000e+000  0.000000e+000
    outer loop
      vertex -1.019477e+000  2.024417e+000  6.000000e-001
      vertex -1.019477e+000 -4.353189e-001  6.000000e-001
      vertex -1.019477e+000  2.024417e+000  0.000000e+000
    endloop
  endfacet
  facet normal  1.000000e+000  0.000000e+000  0.000000e+000
    outer loop
      vertex -1.019477e+000  2.024417e+000  0.000000e+000
      vertex -1.019477e+000 -4.353189e-001  6.000000e-001
      vertex -1.019477e+000 -4.353189e-001  0.000000e+000
    endloop
  endfacet
  facet normal  -0.000000e+000  0.000000e+000  1.000000e+000
    outer loop
      vertex -3.471009e+000  2.024417e+000  6.000000e-001
      vertex -4.041518e+000  2.024417e+000  6.000000e-001
      vertex -3.471009e+000 -4.353189e-001  6.000000e-001
    endloop
  endfacet
  facet normal  0.000000e+000  0.000000e+000  1.000000e+000
    outer loop
      vertex -3.471009e+000 -4.353189e-001  6.000000e-001
      vertex -4.041518e+000  2.024417e+000  6.000000e-001
      vertex -4.041518e+000 -9.438270e-001  6.000000e-001
    endloop
  endfacet
  facet normal  0.000000e+000  0.000000e+000  1.000000e+000
    outer loop
      vertex -3.471009e+000 -4.353189e-001  6.000000e-001
      vertex -4.041518e+000 -9.438270e-001  6.000000e-001
      vertex -2.003397e+000 -4.353189e-001  6.000000e-001
    endloop
  endfacet
  facet normal  0.000000e+000  0.000000e+000  1.000000e+000
    outer loop
      vertex -2.003397e+000 -4.353189e-001  6.000000e-001
      vertex -4.041518e+000 -9.438270e-001  6.000000e-001
      vertex -2.003397e+000 -9.438270e-001  6.000000e-001
    endloop
  endfacet
  facet normal  0.000000e+000  0.000000e+000 -1.000000e+000
    outer loop
      vertex -3.471009e+000  2.024417e+000  0.000000e+000
      vertex -3.471009e+000 -4.353189e-001  0.000000e+000
      vertex -4.041518e+000  2.024417e+000  0.000000e+000
    endloop
  endfacet
  facet normal  0.000000e+000  0.000000e+000 -1.000000e+000
    outer loop
      vertex -4.041518e+000  2.024417e+000  0.000000e+000
      vertex -3.471009e+000 -4.353189e-001  0.000000e+000
      vertex -4.041518e+000 -9.438270e-001  0.000000e+000
    endloop
  endfacet
  facet normal  -0.000000e+000  0.000000e+000 -1.000000e+000
    outer loop
      vertex -3.471009e+000 -4.353189e-001  0.000000e+000
      vertex -2.003397e+000 -4.353189e-001  0.000000e+000
      vertex -4.041518e+000 -9.438270e-001  0.000000e+000
    endloop
  endfacet
  facet normal  0.000000e+000  0.000000e+000 -1.000000e+000
    outer loop
      vertex -4.041518e+000 -9.438270e-001  0.000000e+000
      vertex -2.003397e+000 -4.353189e-001  0.000000e+000
      vertex -2.003397e+000 -9.438270e-001  0.000000e+000
    endloop
  endfacet
  facet normal  0.000000e+000  9.999999e-001  0.000000e+000
    outer loop
      vertex -3.471009e+000 -4.353189e-001  6.000000e-001
      vertex -2.003397e+000 -4.353189e-001  6.000000e-001
      vertex -3.471009e+000 -4.353189e-001  0.000000e+000
    endloop
  endfacet
  facet normal  0.000000e+000  9.999999e-001  0.000000e+000
    outer loop
      vertex -3.471009e+000 -4.353189e-001  0.000000e+000
      vertex -2.003397e+000 -4.353189e-001  6.000000e-001
      vertex -2.003397e+000 -4.353189e-001  0.000000e+000
    endloop
  endfacet
  facet normal  1.000000e+000  0.000000e+000  0.000000e+000
    outer loop
      vertex -2.003397e+000 -4.353189e-001  0.000000e+000
      vertex -2.003397e+000 -4.353189e-001  6.000000e-001
      vertex -2.003397e+000 -9.438270e-001  0.000000e+000
    endloop
  endfacet
  facet normal  1.000000e+000  0.000000e+000  0.000000e+000
    outer loop
      vertex -2.003397e+000 -9.438270e-001  0.000000e+000
      vertex -2.003397e+000 -4.353189e-001  6.000000e-001
      vertex -2.003397e+000 -9.438270e-001  6.000000e-001
    endloop
  endfacet
  facet normal  0.000000e+000 -1.000000e+000  0.000000e+000
    outer loop
      vertex -2.003397e+000 -9.438270e-001  6.000000e-001
      vertex -4.041518e+000 -9.438270e-001  6.000000e-001
      vertex -2.003397e+000 -9.438270e-001  0.000000e+000
    endloop
  endfacet
  facet normal  0.000000e+000 -1.000000e+000  0.000000e+000
    outer loop
      vertex -2.003397e+000 -9.438270e-001  0.000000e+000
      vertex -4.041518e+000 -9.438270e-001  6.000000e-001
      vertex -4.041518e+000 -9.438270e-001  0.000000e+000
    endloop
  endfacet
  facet normal -1.000000e+000  -0.000000e+000  0.000000e+000
    outer loop
      vertex -4.041518e+000 -9.438270e-001  6.000000e-001
      vertex -4.041518e+000  2.024417e+000  6.000000e-001
      vertex -4.041518e+000 -9.438270e-001  0.000000e+000
    endloop
  endfacet
  facet normal -1.000000e+000  0.000000e+000  0.000000e+000
    outer loop
      vertex -4.041518e+000 -9.438270e-001  0.000000e+000
      vertex -4.041518e+000  2.024417e+000  6.000000e-001
      vertex -4.041518e+000  2.024417e+000  0.000000e+000
    endloop
  endfacet
  facet normal  0.000000e+000  1.000000e+000  0.000000e+000
    outer loop
      vertex -4.041518e+000  2.024417e+000  6.000000e-001
      vertex -3.471009e+000  2.024417e+000  6.000000e-001
      vertex -4.041518e+000  2.024417e+000  0.000000e+000
    endloop
  endfacet
  facet normal  0.000000e+000  1.000000e+000  0.000000e+000
    outer loop
      vertex -4.041518e+000  2.024417e+000  0.000000e+000
      vertex -3.471009e+000  2.024417e+000  6.000000e-001
      vertex -3.471009e+000  2.024417e+000  0.000000e+000
    endloop
  endfacet
  facet normal  1.000000e+000  -0.000000e+000  0.000000e+000
    outer loop
      vertex -3.471009e+000  2.024417e+000  6.000000e-001
      vertex -3.471009e+000 -4.353189e-001  6.000000e-001
      vertex -3.471009e+000  2.024417e+000  0.000000e+000
    endloop
  endfacet
  facet normal  1.000000e+000  0.000000e+000  0.000000e+000
    outer loop
      vertex -3.471009e+000  2.024417e+000  0.000000e+000
      vertex -3.471009e+000 -4.353189e-001  6.000000e-001
      vertex -3.471009e+000 -4.353189e-001  0.000000e+000
    endloop
  endfacet
  facet normal  0.000000e+000  0.000000e+000  1.000000e+000
    outer loop
      vertex -5.025438e+000 -9.438270e-001  6.000000e-001
      vertex -4.454928e+000 -9.438270e-001  6.000000e-001
      vertex -5.025438e+000  2.024417e+000  6.000000e-001
    endloop
  endfacet
  facet normal  -0.000000e+000  0.000000e+000  1.000000e+000
    outer loop
      vertex -5.025438e+000  2.024417e+000  6.000000e-001
      vertex -4.454928e+000 -9.438270e-001  6.000000e-001
      vertex -4.454928e+000  2.024417e+000  6.000000e-001
    endloop
  endfacet
  facet normal  0.000000e+000  0.000000e+000 -1.000000e+000
    outer loop
      vertex -5.025438e+000 -9.438270e-001  0.000000e+000
      vertex -5.025438e+000  2.024417e+000  0.000000e+000
      vertex -4.454928e+000 -9.438270e-001  0.000000e+000
    endloop
  endfacet
  facet normal  0.000000e+000  0.000000e+000 -1.000000e+000
    outer loop
      vertex -4.454928e+000 -9.438270e-001  0.000000e+000
      vertex -5.025438e+000  2.024417e+000  0.000000e+000
      vertex -4.454928e+000  2.024417e+000  0.000000e+000
    endloop
  endfacet
  facet normal  0.000000e+000  1.000000e+000  0.000000e+000
    outer loop
      vertex -5.025438e+000  2.024417e+000  6.000000e-001
      vertex -4.454928e+000  2.024417e+000  6.000000e-001
      vertex -5.025438e+000  2.024417e+000  0.000000e+000
    endloop
  endfacet
  facet normal  0.000000e+000  1.000000e+000  0.000000e+000
    outer loop
      vertex -5.025438e+000  2.024417e+000  0.000000e+000
      vertex -4.454928e+000  2.024417e+000  6.000000e-001
      vertex -4.454928e+000  2.024417e+000  0.000000e+000
    endloop
  endfacet
  facet normal  1.000000e+000  -0.000000e+000  0.000000e+000
    outer loop
      vertex -4.454928e+000  2.024417e+000  6.000000e-001
      vertex -4.454928e+000 -9.438270e-001  6.000000e-001
      vertex -4.454928e+000  2.024417e+000  0.000000e+000
    endloop
  endfacet
  facet normal  1.000000e+000  0.000000e+000  0.000000e+000
    outer loop
      vertex -4.454928e+000  2.024417e+000  0.000000e+000
      vertex -4.454928e+000 -9.438270e-001  6.000000e-001
      vertex -4.454928e+000 -9.438270e-001  0.000000e+000
    endloop
  endfacet
  facet normal  0.000000e+000 -1.000000e+000  0.000000e+000
    outer loop
      vertex -4.454928e+000 -9.438270e-001  6.000000e-001
      vertex -5.025438e+000 -9.438270e-001  6.000000e-001
      vertex -4.454928e+000 -9.438270e-001  0.000000e+000
    endloop
  endfacet
  facet normal  0.000000e+000 -1.000000e+000  0.000000e+000
    outer loop
      vertex -4.454928e+000 -9.438270e-001  0.000000e+000
      vertex -5.025438e+000 -9.438270e-001  6.000000e-001
      vertex -5.025438e+000 -9.438270e-001  0.000000e+000
    endloop
  endfacet
  facet normal -1.000000e+000  -0.000000e+000  0.000000e+000
    outer loop
      vertex -5.025438e+000 -9.438270e-001  6.000000e-001
      vertex -5.025438e+000  2.024417e+000  6.000000e-001
      vertex -5.025438e+000 -9.438270e-001  0.000000e+000
    endloop
  endfacet
  facet normal -1.000000e+000  0.000000e+000  0.000000e+000
    outer loop
      vertex -5.025438e+000 -9.438270e-001  0.000000e+000
      vertex -5.025438e+000  2.024417e+000  6.000000e-001
      vertex -5.025438e+000  2.024417e+000  0.000000e+000
    endloop
  endfacet
  facet normal  0.000000e+000  0.000000e+000  1.000000e+000
    outer loop
      vertex -7.476970e+000  2.024417e+000  6.000000e-001
      vertex -7.476970e+000 -9.438270e-001  6.000000e-001
      vertex -6.906460e+000 -9.438270e-001  6.000000e-001
    endloop
  endfacet
  facet normal  0.000000e+000  -0.000000e+000  1.000000e+000
    outer loop
      vertex -7.476970e+000  2.024417e+000  6.000000e-001
      vertex -6.906460e+000 -9.438270e-001  6.000000e-001
      vertex -6.906460e+000  2.989950e-001  6.000000e-001
    endloop
  endfacet
  facet normal  0.000000e+000  -0.000000e+000  1.000000e+000
    outer loop
      vertex -7.476970e+000  2.024417e+000  6.000000e-001
      vertex -6.906460e+000  2.989950e-001  6.000000e-001
      vertex -6.906460e+000  7.828650e-001  6.000000e-001
    endloop
  endfacet
  facet normal  0.000000e+000  -0.000000e+000  1.000000e+000
    outer loop
      vertex -7.476970e+000  2.024417e+000  6.000000e-001
      vertex -6.906460e+000  7.828650e-001  6.000000e-001
      vertex -6.906460e+000  1.515909e+000  6.000000e-001
    endloop
  endfacet
  facet normal  0.000000e+000  -0.000000e+000  9.999999e-001
    outer loop
      vertex -7.476970e+000  2.024417e+000  6.000000e-001
      vertex -6.906460e+000  1.515909e+000  6.000000e-001
      vertex -5.973544e+000  1.515909e+000  6.000000e-001
    endloop
  endfacet
  facet normal  0.000000e+000  -0.000000e+000  1.000000e+000
    outer loop
      vertex -7.476970e+000  2.024417e+000  6.000000e-001
      vertex -5.973544e+000  1.515909e+000  6.000000e-001
      vertex -5.438823e+000  2.024417e+000  6.000000e-001
    endloop
  endfacet
  facet normal  -0.000000e+000  0.000000e+000  9.999999e-001
    outer loop
      vertex -5.438823e+000  2.024417e+000  6.000000e-001
      vertex -5.973544e+000  1.515909e+000  6.000000e-001
      vertex -5.973544e+000  7.828650e-001  6.000000e-001
    endloop
  endfacet
  facet normal  -0.000000e+000  0.000000e+000  1.000000e+000
    outer loop
      vertex -5.438823e+000  2.024417e+000  6.000000e-001
      vertex -5.973544e+000  7.828650e-001  6.000000e-001
      vertex -5.974916e+000  2.989950e-001  6.000000e-001
    endloop
  endfacet
  facet normal  -0.000000e+000  0.000000e+000  1.000000e+000
    outer loop
      vertex -5.438823e+000  2.024417e+000  6.000000e-001
      vertex -5.974916e+000  2.989950e-001  6.000000e-001
      vertex -5.974916e+000 -9.438270e-001  6.000000e-001
    endloop
  endfacet
  facet normal  0.000000e+000  0.000000e+000  1.000000e+000
    outer loop
      vertex -5.438823e+000  2.024417e+000  6.000000e-001
      vertex -5.974916e+000 -9.438270e-001  6.000000e-001
      vertex -5.438823e+000 -9.438270e-001  6.000000e-001
    endloop
  endfacet
  facet normal  0.000000e+000  0.000000e+000  1.000000e+000
    outer loop
      vertex -6.906460e+000  7.828650e-001  6.000000e-001
      vertex -6.906460e+000  2.989950e-001  6.000000e-001
      vertex -5.973544e+000  7.828650e-001  6.000000e-001
    endloop
  endfacet
  facet normal  0.000000e+000  0.000000e+000  1.000000e+000
    outer loop
      vertex -5.973544e+000  7.828650e-001  6.000000e-001
      vertex -6.906460e+000  2.989950e-001  6.000000e-001
      vertex -5.974916e+000  2.989950e-001  6.000000e-001
    endloop
  endfacet
  facet normal  -0.000000e+000  0.000000e+000 -1.000000e+000
    outer loop
      vertex -7.476970e+000  2.024417e+000  0.000000e+000
      vertex -5.438823e+000  2.024417e+000  0.000000e+000
      vertex -5.973544e+000  1.515909e+000  0.000000e+000
    endloop
  endfacet
  facet normal  0.000000e+000  0.000000e+000 -9.999999e-001
    outer loop
      vertex -7.476970e+000  2.024417e+000  0.000000e+000
      vertex -5.973544e+000  1.515909e+000  0.000000e+000
      vertex -6.906460e+000  1.515909e+000  0.000000e+000
    endloop
  endfacet
  facet normal  -0.000000e+000  -0.000000e+000 -1.000000e+000
    outer loop
      vertex -7.476970e+000  2.024417e+000  0.000000e+000
      vertex -6.906460e+000  1.515909e+000  0.000000e+000
      vertex -6.906460e+000  7.828650e-001  0.000000e+000
    endloop
  endfacet
  facet normal  -0.000000e+000  -0.000000e+000 -1.000000e+000
    outer loop
      vertex -7.476970e+000  2.024417e+000  0.000000e+000
      vertex -6.906460e+000  7.828650e-001  0.000000e+000
      vertex -6.906460e+000  2.989950e-001  0.000000e+000
    endloop
  endfacet
  facet normal  -0.000000e+000  -0.000000e+000 -1.000000e+000
    outer loop
      vertex -7.476970e+000  2.024417e+000  0.000000e+000
      vertex -6.906460e+000  2.989950e-001  0.000000e+000
      vertex -6.906460e+000 -9.438270e-001  0.000000e+000
    endloop
  endfacet
  facet normal  0.000000e+000  0.000000e+000 -1.000000e+000
    outer loop
      vertex -7.476970e+000  2.024417e+000  0.000000e+000
      vertex -6.906460e+000 -9.438270e-001  0.000000e+000
      vertex -7.476970e+000 -9.438270e-001  0.000000e+000
    endloop
  endfacet
  facet normal  0.000000e+000  0.000000e+000 -1.000000e+000
    outer loop
      vertex -5.438823e+000  2.024417e+000  0.000000e+000
      vertex -5.438823e+000 -9.438270e-001  0.000000e+000
      vertex -5.974916e+000 -9.438270e-001  0.000000e+000
    endloop
  endfacet
  facet normal  0.000000e+000  0.000000e+000 -1.000000e+000
    outer loop
      vertex -5.438823e+000  2.024417e+000  0.000000e+000
      vertex -5.974916e+000 -9.438270e-001  0.000000e+000
      vertex -5.974916e+000  2.989950e-001  0.000000e+000
    endloop
  endfacet
  facet normal  0.000000e+000  0.000000e+000 -1.000000e+000
    outer loop
      vertex -5.438823e+000  2.024417e+000  0.000000e+000
      vertex -5.974916e+000  2.989950e-001  0.000000e+000
      vertex -5.973544e+000  7.828650e-001  0.000000e+000
    endloop
  endfacet
  facet normal  0.000000e+000  0.000000e+000 -9.999999e-001
    outer loop
      vertex -5.438823e+000  2.024417e+000  0.000000e+000
      vertex -5.973544e+000  7.828650e-001  0.000000e+000
      vertex -5.973544e+000  1.515909e+000  0.000000e+000
    endloop
  endfacet
  facet normal  -0.000000e+000  0.000000e+000 -1.000000e+000
    outer loop
      vertex -6.906460e+000  7.828650e-001  0.000000e+000
      vertex -5.973544e+000  7.828650e-001  0.000000e+000
      vertex -6.906460e+000  2.989950e-001  0.000000e+000
    endloop
  endfacet
  facet normal  0.000000e+000  0.000000e+000 -1.000000e+000
    outer loop
      vertex -6.906460e+000  2.989950e-001  0.000000e+000
      vertex -5.973544e+000  7.828650e-001  0.000000e+000
      vertex -5.974916e+000  2.989950e-001  0.000000e+000
    endloop
  endfacet
  facet normal  0.000000e+000  1.000000e+000  0.000000e+000
    outer loop
      vertex -6.906460e+000  7.828650e-001  6.000000e-001
      vertex -5.973544e+000  7.828650e-001  6.000000e-001
      vertex -6.906460e+000  7.828650e-001  0.000000e+000
    endloop
  endfacet
  facet normal  0.000000e+000  1.000000e+000  0.000000e+000
    outer loop
      vertex -6.906460e+000  7.828650e-001  0.000000e+000
      vertex -5.973544e+000  7.828650e-001  6.000000e-001
      vertex -5.973544e+000  7.828650e-001  0.000000e+000
    endloop
  endfacet
  facet normal -1.000000e+000  -0.000000e+000  0.000000e+000
    outer loop
      vertex -5.973544e+000  7.828650e-001  6.000000e-001
      vertex -5.973544e+000  1.515909e+000  6.000000e-001
      vertex -5.973544e+000  7.828650e-001  0.000000e+000
    endloop
  endfacet
  facet normal -1.000000e+000  0.000000e+000  0.000000e+000
    outer loop
      vertex -5.973544e+000  7.828650e-001  0.000000e+000
      vertex -5.973544e+000  1.515909e+000  6.000000e-001
      vertex -5.973544e+000  1.515909e+000  0.000000e+000
    endloop
  endfacet
  facet normal  0.000000e+000 -1.000000e+000  0.000000e+000
    outer loop
      vertex -5.973544e+000  1.515909e+000  6.000000e-001
      vertex -6.906460e+000  1.515909e+000  6.000000e-001
      vertex -5.973544e+000  1.515909e+000  0.000000e+000
    endloop
  endfacet
  facet normal  0.000000e+000 -1.000000e+000  0.000000e+000
    outer loop
      vertex -5.973544e+000  1.515909e+000  0.000000e+000
      vertex -6.906460e+000  1.515909e+000  6.000000e-001
      vertex -6.906460e+000  1.515909e+000  0.000000e+000
    endloop
  endfacet
  facet normal  1.000000e+000  -0.000000e+000  0.000000e+000
    outer loop
      vertex -6.906460e+000  1.515909e+000  6.000000e-001
      vertex -6.906460e+000  7.828650e-001  6.000000e-001
      vertex -6.906460e+000  1.515909e+000  0.000000e+000
    endloop
  endfacet
  facet normal  1.000000e+000  0.000000e+000  0.000000e+000
    outer loop
      vertex -6.906460e+000  1.515909e+000  0.000000e+000
      vertex -6.906460e+000  7.828650e-001  6.000000e-001
      vertex -6.906460e+000  7.828650e-001  0.000000e+000
    endloop
  endfacet
  facet normal  0.000000e+000 -1.000000e+000  0.000000e+000
    outer loop
      vertex -5.974916e+000  2.989950e-001  6.000000e-001
      vertex -6.906460e+000  2.989950e-001  6.000000e-001
      vertex -5.974916e+000  2.989950e-001  0.000000e+000
    endloop
  endfacet
  facet normal  0.000000e+000 -1.000000e+000  0.000000e+000
    outer loop
      vertex -5.974916e+000  2.989950e-001  0.000000e+000
      vertex -6.906460e+000  2.989950e-001  6.000000e-001
      vertex -6.906460e+000  2.989950e-001  0.000000e+000
    endloop
  endfacet
  facet normal  1.000000e+000  -0.000000e+000  0.000000e+000
    outer loop
      vertex -6.906460e+000  2.989950e-001  6.000000e-001
      vertex -6.906460e+000 -9.438270e-001  6.000000e-001
      vertex -6.906460e+000  2.989950e-001  0.000000e+000
    endloop
  endfacet
  facet normal  1.000000e+000  0.000000e+000  0.000000e+000
    outer loop
      vertex -6.906460e+000  2.989950e-001  0.000000e+000
      vertex -6.906460e+000 -9.438270e-001  6.000000e-001
      vertex -6.906460e+000 -9.438270e-001  0.000000e+000
    endloop
  endfacet
  facet normal  0.000000e+000 -1.000000e+000  0.000000e+000
    outer loop
      vertex -6.906460e+000 -9.438270e-001  6.000000e-001
      vertex -7.476970e+000 -9.438270e-001  6.000000e-001
      vertex -6.906460e+000 -9.438270e-001  0.000000e+000
    endloop
  endfacet
  facet normal  0.000000e+000 -1.000000e+000  0.000000e+000
    outer loop
      vertex -6.906460e+000 -9.438270e-001  0.000000e+000
      vertex -7.476970e+000 -9.438270e-001  6.000000e-001
      vertex -7.476970e+000 -9.438270e-001  0.000000e+000
    endloop
  endfacet
  facet normal -1.000000e+000  -0.000000e+000  0.000000e+000
    outer loop
      vertex -7.476970e+000 -9.438270e-001  6.000000e-001
      vertex -7.476970e+000  2.024417e+000  6.000000e-001
      vertex -7.476970e+000 -9.438270e-001  0.000000e+000
    endloop
  endfacet
  facet normal -1.000000e+000  0.000000e+000  0.000000e+000
    outer loop
      vertex -7.476970e+000 -9.438270e-001  0.000000e+000
      vertex -7.476970e+000  2.024417e+000  6.000000e-001
      vertex -7.476970e+000  2.024417e+000  0.000000e+000
    endloop
  endfacet
  facet normal  0.000000e+000  1.000000e+000  0.000000e+000
    outer loop
      vertex -7.476970e+000  2.024417e+000  6.000000e-001
      vertex -5.438823e+000  2.024417e+000  6.000000e-001
      vertex -7.476970e+000  2.024417e+000  0.000000e+000
    endloop
  endfacet
  facet normal  0.000000e+000  1.000000e+000  0.000000e+000
    outer loop
      vertex -7.476970e+000  2.024417e+000  0.000000e+000
      vertex -5.438823e+000  2.024417e+000  6.000000e-001
      vertex -5.438823e+000  2.024417e+000  0.000000e+000
    endloop
  endfacet
  facet normal  1.000000e+000  -0.000000e+000  0.000000e+000
    outer loop
      vertex -5.438823e+000  2.024417e+000  6.000000e-001
      vertex -5.438823e+000 -9.438270e-001  6.000000e-001
      vertex -5.438823e+000  2.024417e+000  0.000000e+000
    endloop
  endfacet
  facet normal  1.000000e+000  0.000000e+000  0.000000e+000
    outer loop
      vertex -5.438823e+000  2.024417e+000  0.000000e+000
      vertex -5.438823e+000 -9.438270e-001  6.000000e-001
      vertex -5.438823e+000 -9.438270e-001  0.000000e+000
    endloop
  endfacet
  facet normal  0.000000e+000 -1.000000e+000  0.000000e+000
    outer loop
      vertex -5.438823e+000 -9.438270e-001  6.000000e-001
      vertex -5.974916e+000 -9.438270e-001  6.000000e-001
      vertex -5.438823e+000 -9.438270e-001  0.000000e+000
    endloop
  endfacet
  facet normal  0.000000e+000 -1.000000e+000  0.000000e+000
    outer loop
      vertex -5.438823e+000 -9.438270e-001  0.000000e+000
      vertex -5.974916e+000 -9.438270e-001  6.000000e-001
      vertex -5.974916e+000 -9.438270e-001  0.000000e+000
    endloop
  endfacet
  facet normal -1.000000e+000  -0.000000e+000  0.000000e+000
    outer loop
      vertex -5.974916e+000 -9.438270e-001  6.000000e-001
      vertex -5.974916e+000  2.989950e-001  6.000000e-001
      vertex -5.974916e+000 -9.438270e-001  0.000000e+000
    endloop
  endfacet
  facet normal -1.000000e+000  0.000000e+000  0.000000e+000
    outer loop
      vertex -5.974916e+000 -9.438270e-001  0.000000e+000
      vertex -5.974916e+000  2.989950e-001  6.000000e-001
      vertex -5.974916e+000  2.989950e-001  0.000000e+000
    endloop
  endfacet
  facet normal  0.000000e+000  0.000000e+000  1.000000e+000
    outer loop
      vertex -9.928502e+000  2.024417e+000  6.000000e-001
      vertex -9.928502e+000 -9.438270e-001  6.000000e-001
      vertex -9.357966e+000 -9.438270e-001  6.000000e-001
    endloop
  endfacet
  facet normal  0.000000e+000  -0.000000e+000  1.000000e+000
    outer loop
      vertex -9.928502e+000  2.024417e+000  6.000000e-001
      vertex -9.357966e+000 -9.438270e-001  6.000000e-001
      vertex -9.357966e+000  2.989950e-001  6.000000e-001
    endloop
  endfacet
  facet normal  0.000000e+000  -0.000000e+000  1.000000e+000
    outer loop
      vertex -9.928502e+000  2.024417e+000  6.000000e-001
      vertex -9.357966e+000  2.989950e-001  6.000000e-001
      vertex -9.357966e+000  7.828650e-001  6.000000e-001
    endloop
  endfacet
  facet normal  0.000000e+000  -0.000000e+000  1.000000e+000
    outer loop
      vertex -9.928502e+000  2.024417e+000  6.000000e-001
      vertex -9.357966e+000  7.828650e-001  6.000000e-001
      vertex -9.357966e+000  1.515909e+000  6.000000e-001
    endloop
  endfacet
  facet normal  0.000000e+000  -0.000000e+000  1.000000e+000
    outer loop
      vertex -9.928502e+000  2.024417e+000  6.000000e-001
      vertex -9.357966e+000  1.515909e+000  6.000000e-001
      vertex -8.426422e+000  1.515909e+000  6.000000e-001
    endloop
  endfacet
  facet normal  0.000000e+000  -0.000000e+000  1.000000e+000
    outer loop
      vertex -9.928502e+000  2.024417e+000  6.000000e-001
      vertex -8.426422e+000  1.515909e+000  6.000000e-001
      vertex -7.890380e+000  2.024417e+000  6.000000e-001
    endloop
  endfacet
  facet normal  -0.000000e+000  0.000000e+000  1.000000e+000
    outer loop
      vertex -7.890380e+000  2.024417e+000  6.000000e-001
      vertex -8.426422e+000  1.515909e+000  6.000000e-001
      vertex -7.890380e+000  2.989950e-001  6.000000e-001
    endloop
  endfacet
  facet normal  0.000000e+000  0.000000e+000  1.000000e+000
    outer loop
      vertex -7.890380e+000  2.989950e-001  6.000000e-001
      vertex -8.426422e+000  1.515909e+000  6.000000e-001
      vertex -8.426422e+000  7.828650e-001  6.000000e-001
    endloop
  endfacet
  facet normal  0.000000e+000  0.000000e+000  1.000000e+000
    outer loop
      vertex -7.890380e+000  2.989950e-001  6.000000e-001
      vertex -8.426422e+000  7.828650e-001  6.000000e-001
      vertex -9.357966e+000  2.989950e-001  6.000000e-001
    endloop
  endfacet
  facet normal  0.000000e+000  0.000000e+000  1.000000e+000
    outer loop
      vertex -9.357966e+000  2.989950e-001  6.000000e-001
      vertex -8.426422e+000  7.828650e-001  6.000000e-001
      vertex -9.357966e+000  7.828650e-001  6.000000e-001
    endloop
  endfacet
  facet normal  -0.000000e+000  0.000000e+000 -1.000000e+000
    outer loop
      vertex -9.928502e+000  2.024417e+000  0.000000e+000
      vertex -7.890380e+000  2.024417e+000  0.000000e+000
      vertex -8.426422e+000  1.515909e+000  0.000000e+000
    endloop
  endfacet
  facet normal  0.000000e+000  0.000000e+000 -1.000000e+000
    outer loop
      vertex -9.928502e+000  2.024417e+000  0.000000e+000
      vertex -8.426422e+000  1.515909e+000  0.000000e+000
      vertex -9.357966e+000  1.515909e+000  0.000000e+000
    endloop
  endfacet
  facet normal  -0.000000e+000  -0.000000e+000 -1.000000e+000
    outer loop
      vertex -9.928502e+000  2.024417e+000  0.000000e+000
      vertex -9.357966e+000  1.515909e+000  0.000000e+000
      vertex -9.357966e+000  7.828650e-001  0.000000e+000
    endloop
  endfacet
  facet normal  -0.000000e+000  -0.000000e+000 -1.000000e+000
    outer loop
      vertex -9.928502e+000  2.024417e+000  0.000000e+000
      vertex -9.357966e+000  7.828650e-001  0.000000e+000
      vertex -9.357966e+000  2.989950e-001  0.000000e+000
    endloop
  endfacet
  facet normal  -0.000000e+000  -0.000000e+000 -1.000000e+000
    outer loop
      vertex -9.928502e+000  2.024417e+000  0.000000e+000
      vertex -9.357966e+000  2.989950e-001  0.000000e+000
      vertex -9.357966e+000 -9.438270e-001  0.000000e+000
    endloop
  endfacet
  facet normal  0.000000e+000  0.000000e+000 -1.000000e+000
    outer loop
      vertex -9.928502e+000  2.024417e+000  0.000000e+000
      vertex -9.357966e+000 -9.438270e-001  0.000000e+000
      vertex -9.928502e+000 -9.438270e-001  0.000000e+000
    endloop
  endfacet
  facet normal  0.000000e+000  0.000000e+000 -1.000000e+000
    outer loop
      vertex -7.890380e+000  2.024417e+000  0.000000e+000
      vertex -7.890380e+000  2.989950e-001  0.000000e+000
      vertex -8.426422e+000  1.515909e+000  0.000000e+000
    endloop
  endfacet
  facet normal  0.000000e+000  0.000000e+000 -9.999999e-001
    outer loop
      vertex -8.426422e+000  1.515909e+000  0.000000e+000
      vertex -7.890380e+000  2.989950e-001  0.000000e+000
      vertex -8.426422e+000  7.828650e-001  0.000000e+000
    endloop
  endfacet
  facet normal  0.000000e+000  0.000000e+000 -1.000000e+000
    outer loop
      vertex -7.890380e+000  2.989950e-001  0.000000e+000
      vertex -9.357966e+000  2.989950e-001  0.000000e+000
      vertex -8.426422e+000  7.828650e-001  0.000000e+000
    endloop
  endfacet
  facet normal  -0.000000e+000  0.000000e+000 -1.000000e+000
    outer loop
      vertex -8.426422e+000  7.828650e-001  0.000000e+000
      vertex -9.357966e+000  2.989950e-001  0.000000e+000
      vertex -9.357966e+000  7.828650e-001  0.000000e+000
    endloop
  endfacet
  facet normal  0.000000e+000  1.000000e+000  0.000000e+000
    outer loop
      vertex -9.357966e+000  7.828650e-001  6.000000e-001
      vertex -8.426422e+000  7.828650e-001  6.000000e-001
      vertex -9.357966e+000  7.828650e-001  0.000000e+000
    endloop
  endfacet
  facet normal  0.000000e+000  1.000000e+000  0.000000e+000
    outer loop
      vertex -9.357966e+000  7.828650e-001  0.000000e+000
      vertex -8.426422e+000  7.828650e-001  6.000000e-001
      vertex -8.426422e+000  7.828650e-001  0.000000e+000
    endloop
  endfacet
  facet normal -1.000000e+000  -0.000000e+000  0.000000e+000
    outer loop
      vertex -8.426422e+000  7.828650e-001  6.000000e-001
      vertex -8.426422e+000  1.515909e+000  6.000000e-001
      vertex -8.426422e+000  7.828650e-001  0.000000e+000
    endloop
  endfacet
  facet normal -1.000000e+000  0.000000e+000  0.000000e+000
    outer loop
      vertex -8.426422e+000  7.828650e-001  0.000000e+000
      vertex -8.426422e+000  1.515909e+000  6.000000e-001
      vertex -8.426422e+000  1.515909e+000  0.000000e+000
    endloop
  endfacet
  facet normal  0.000000e+000 -1.000000e+000  0.000000e+000
    outer loop
      vertex -8.426422e+000  1.515909e+000  6.000000e-001
      vertex -9.357966e+000  1.515909e+000  6.000000e-001
      vertex -8.426422e+000  1.515909e+000  0.000000e+000
    endloop
  endfacet
  facet normal  0.000000e+000 -1.000000e+000  0.000000e+000
    outer loop
      vertex -8.426422e+000  1.515909e+000  0.000000e+000
      vertex -9.357966e+000  1.515909e+000  6.000000e-001
      vertex -9.357966e+000  1.515909e+000  0.000000e+000
    endloop
  endfacet
  facet normal  1.000000e+000  -0.000000e+000  0.000000e+000
    outer loop
      vertex -9.357966e+000  1.515909e+000  6.000000e-001
      vertex -9.357966e+000  7.828650e-001  6.000000e-001
      vertex -9.357966e+000  1.515909e+000  0.000000e+000
    endloop
  endfacet
  facet normal  1.000000e+000  0.000000e+000  0.000000e+000
    outer loop
      vertex -9.357966e+000  1.515909e+000  0.000000e+000
      vertex -9.357966e+000  7.828650e-001  6.000000e-001
      vertex -9.357966e+000  7.828650e-001  0.000000e+000
    endloop
  endfacet
  facet normal  0.000000e+000 -9.999999e-001  0.000000e+000
    outer loop
      vertex -9.357966e+000 -9.438270e-001  6.000000e-001
      vertex -9.928502e+000 -9.438270e-001  6.000000e-001
      vertex -9.357966e+000 -9.438270e-001  0.000000e+000
    endloop
  endfacet
  facet normal  0.000000e+000 -9.999999e-001  0.000000e+000
    outer loop
      vertex -9.357966e+000 -9.438270e-001  0.000000e+000
      vertex -9.928502e+000 -9.438270e-001  6.000000e-001
      vertex -9.928502e+000 -9.438270e-001  0.000000e+000
    endloop
  endfacet
  facet normal -1.000000e+000  -0.000000e+000  0.000000e+000
    outer loop
      vertex -9.928502e+000 -9.438270e-001  6.000000e-001
      vertex -9.928502e+000  2.024417e+000  6.000000e-001
      vertex -9.928502e+000 -9.438270e-001  0.000000e+000
    endloop
  endfacet
  facet normal -1.000000e+000  0.000000e+000  0.000000e+000
    outer loop
      vertex -9.928502e+000 -9.438270e-001  0.000000e+000
      vertex -9.928502e+000  2.024417e+000  6.000000e-001
      vertex -9.928502e+000  2.024417e+000  0.000000e+000
    endloop
  endfacet
  facet normal  0.000000e+000  1.000000e+000  0.000000e+000
    outer loop
      vertex -9.928502e+000  2.024417e+000  6.000000e-001
      vertex -7.890380e+000  2.024417e+000  6.000000e-001
      vertex -9.928502e+000  2.024417e+000  0.000000e+000
    endloop
  endfacet
  facet normal  0.000000e+000  1.000000e+000  0.000000e+000
    outer loop
      vertex -9.928502e+000  2.024417e+000  0.000000e+000
      vertex -7.890380e+000  2.024417e+000  6.000000e-001
      vertex -7.890380e+000  2.024417e+000  0.000000e+000
    endloop
  endfacet
  facet normal  1.000000e+000  -0.000000e+000  0.000000e+000
    outer loop
      vertex -7.890380e+000  2.024417e+000  6.000000e-001
      vertex -7.890380e+000  2.989950e-001  6.000000e-001
      vertex -7.890380e+000  2.024417e+000  0.000000e+000
    endloop
  endfacet
  facet normal  1.000000e+000  0.000000e+000  0.000000e+000
    outer loop
      vertex -7.890380e+000  2.024417e+000  0.000000e+000
      vertex -7.890380e+000  2.989950e-001  6.000000e-001
      vertex -7.890380e+000  2.989950e-001  0.000000e+000
    endloop
  endfacet
  facet normal  0.000000e+000 -9.999999e-001  0.000000e+000
    outer loop
      vertex -7.890380e+000  2.989950e-001  6.000000e-001
      vertex -9.357966e+000  2.989950e-001  6.000000e-001
      vertex -7.890380e+000  2.989950e-001  0.000000e+000
    endloop
  endfacet
  facet normal  0.000000e+000 -9.999999e-001  0.000000e+000
    outer loop
      vertex -7.890380e+000  2.989950e-001  0.000000e+000
      vertex -9.357966e+000  2.989950e-001  6.000000e-001
      vertex -9.357966e+000  2.989950e-001  0.000000e+000
    endloop
  endfacet
  facet normal  1.000000e+000  -0.000000e+000  0.000000e+000
    outer loop
      vertex -9.357966e+000  2.989950e-001  6.000000e-001
      vertex -9.357966e+000 -9.438270e-001  6.000000e-001
      vertex -9.357966e+000  2.989950e-001  0.000000e+000
    endloop
  endfacet
  facet normal  1.000000e+000  0.000000e+000  0.000000e+000
    outer loop
      vertex -9.357966e+000  2.989950e-001  0.000000e+000
      vertex -9.357966e+000 -9.438270e-001  6.000000e-001
      vertex -9.357966e+000 -9.438270e-001  0.000000e+000
    endloop
  endfacet
endsolid CATIA STL
