solid CATIA STL
  facet normal  1.000000e+000  0.000000e+000  0.000000e+000
    outer loop
      vertex -3.100000e+001  6.573011e+001  1.600000e+001
      vertex -3.100000e+001  6.973011e+001  1.600000e+001
      vertex -3.100000e+001  6.573011e+001  1.800000e+001
    endloop
  endfacet
  facet normal  1.000000e+000  0.000000e+000  0.000000e+000
    outer loop
      vertex -3.100000e+001  6.631590e+001  1.941421e+001
      vertex -3.100000e+001  7.714125e+001  1.966294e+001
      vertex -3.100000e+001  6.661897e+001  1.966294e+001
    endloop
  endfacet
  facet normal  1.000000e+000  0.000000e+000  0.000000e+000
    outer loop
      vertex -3.100000e+001  6.661897e+001  1.966294e+001
      vertex -3.100000e+001  7.714125e+001  1.966294e+001
      vertex -3.100000e+001  7.679548e+001  1.984776e+001
    endloop
  endfacet
  facet normal  1.000000e+000  0.000000e+000  0.000000e+000
    outer loop
      vertex -3.100000e+001  6.661897e+001  1.966294e+001
      vertex -3.100000e+001  7.679548e+001  1.984776e+001
      vertex -3.100000e+001  6.696474e+001  1.984776e+001
    endloop
  endfacet
  facet normal  1.000000e+000  0.000000e+000  0.000000e+000
    outer loop
      vertex -3.100000e+001  6.696474e+001  1.984776e+001
      vertex -3.100000e+001  7.679548e+001  1.984776e+001
      vertex -3.100000e+001  7.642029e+001  1.996157e+001
    endloop
  endfacet
  facet normal  1.000000e+000  0.000000e+000  0.000000e+000
    outer loop
      vertex -3.100000e+001  6.696474e+001  1.984776e+001
      vertex -3.100000e+001  7.642029e+001  1.996157e+001
      vertex -3.100000e+001  6.733993e+001  1.996157e+001
    endloop
  endfacet
  facet normal  1.000000e+000  0.000000e+000  0.000000e+000
    outer loop
      vertex -3.100000e+001  6.733993e+001  1.996157e+001
      vertex -3.100000e+001  7.642029e+001  1.996157e+001
      vertex -3.100000e+001  7.603011e+001  2.000000e+001
    endloop
  endfacet
  facet normal  1.000000e+000  0.000000e+000  0.000000e+000
    outer loop
      vertex -3.100000e+001  6.733993e+001  1.996157e+001
      vertex -3.100000e+001  7.603011e+001  2.000000e+001
      vertex -3.100000e+001  6.773011e+001  2.000000e+001
    endloop
  endfacet
  facet normal  1.000000e+000  0.000000e+000  0.000000e+000
    outer loop
      vertex -3.100000e+001  7.714125e+001  1.966294e+001
      vertex -3.100000e+001  6.631590e+001  1.941421e+001
      vertex -3.100000e+001  7.744432e+001  1.941421e+001
    endloop
  endfacet
  facet normal  9.999999e-001  0.000000e+000  0.000000e+000
    outer loop
      vertex -3.100000e+001  7.744432e+001  1.941421e+001
      vertex -3.100000e+001  6.631590e+001  1.941421e+001
      vertex -3.100000e+001  6.606717e+001  1.911114e+001
    endloop
  endfacet
  facet normal  1.000000e+000  0.000000e+000  0.000000e+000
    outer loop
      vertex -3.100000e+001  7.744432e+001  1.941421e+001
      vertex -3.100000e+001  6.606717e+001  1.911114e+001
      vertex -3.100000e+001  7.769305e+001  1.911114e+001
    endloop
  endfacet
  facet normal  1.000000e+000  0.000000e+000  0.000000e+000
    outer loop
      vertex -3.100000e+001  7.769305e+001  1.911114e+001
      vertex -3.100000e+001  6.606717e+001  1.911114e+001
      vertex -3.100000e+001  6.588235e+001  1.876537e+001
    endloop
  endfacet
  facet normal  1.000000e+000  0.000000e+000  0.000000e+000
    outer loop
      vertex -3.100000e+001  7.769305e+001  1.911114e+001
      vertex -3.100000e+001  6.588235e+001  1.876537e+001
      vertex -3.100000e+001  7.787787e+001  1.876537e+001
    endloop
  endfacet
  facet normal  1.000000e+000  0.000000e+000  0.000000e+000
    outer loop
      vertex -3.100000e+001  7.787787e+001  1.876537e+001
      vertex -3.100000e+001  6.588235e+001  1.876537e+001
      vertex -3.100000e+001  6.576854e+001  1.839018e+001
    endloop
  endfacet
  facet normal  1.000000e+000  0.000000e+000  0.000000e+000
    outer loop
      vertex -3.100000e+001  7.787787e+001  1.876537e+001
      vertex -3.100000e+001  6.576854e+001  1.839018e+001
      vertex -3.100000e+001  7.799168e+001  1.839018e+001
    endloop
  endfacet
  facet normal  1.000000e+000  0.000000e+000  0.000000e+000
    outer loop
      vertex -3.100000e+001  7.799168e+001  1.839018e+001
      vertex -3.100000e+001  6.576854e+001  1.839018e+001
      vertex -3.100000e+001  6.573011e+001  1.800000e+001
    endloop
  endfacet
  facet normal  9.999999e-001  0.000000e+000  0.000000e+000
    outer loop
      vertex -3.100000e+001  7.799168e+001  1.839018e+001
      vertex -3.100000e+001  6.573011e+001  1.800000e+001
      vertex -3.100000e+001  7.803011e+001  1.800000e+001
    endloop
  endfacet
  facet normal  1.000000e+000  0.000000e+000  0.000000e+000
    outer loop
      vertex -3.100000e+001  7.803011e+001  1.800000e+001
      vertex -3.100000e+001  6.573011e+001  1.800000e+001
      vertex -3.100000e+001  6.973011e+001  1.600000e+001
    endloop
  endfacet
  facet normal  9.999999e-001  0.000000e+000  0.000000e+000
    outer loop
      vertex -3.100000e+001  7.803011e+001  1.800000e+001
      vertex -3.100000e+001  6.973011e+001  1.600000e+001
      vertex -3.100000e+001  7.403011e+001  1.600000e+001
    endloop
  endfacet
  facet normal  1.000000e+000  0.000000e+000  0.000000e+000
    outer loop
      vertex -3.100000e+001  7.603011e+001  6.000000e+000
      vertex -3.100000e+001  7.642029e+001  6.038429e+000
      vertex -3.100000e+001  7.563993e+001  6.038429e+000
    endloop
  endfacet
  facet normal  1.000000e+000  0.000000e+000  0.000000e+000
    outer loop
      vertex -3.100000e+001  7.563993e+001  6.038429e+000
      vertex -3.100000e+001  7.642029e+001  6.038429e+000
      vertex -3.100000e+001  7.679548e+001  6.152241e+000
    endloop
  endfacet
  facet normal  1.000000e+000  0.000000e+000  0.000000e+000
    outer loop
      vertex -3.100000e+001  7.563993e+001  6.038429e+000
      vertex -3.100000e+001  7.679548e+001  6.152241e+000
      vertex -3.100000e+001  7.526474e+001  6.152241e+000
    endloop
  endfacet
  facet normal  1.000000e+000  0.000000e+000  0.000000e+000
    outer loop
      vertex -3.100000e+001  7.526474e+001  6.152241e+000
      vertex -3.100000e+001  7.679548e+001  6.152241e+000
      vertex -3.100000e+001  7.714125e+001  6.337061e+000
    endloop
  endfacet
  facet normal  9.999999e-001  0.000000e+000  0.000000e+000
    outer loop
      vertex -3.100000e+001  7.526474e+001  6.152241e+000
      vertex -3.100000e+001  7.714125e+001  6.337061e+000
      vertex -3.100000e+001  7.491897e+001  6.337061e+000
    endloop
  endfacet
  facet normal  1.000000e+000  0.000000e+000  0.000000e+000
    outer loop
      vertex -3.100000e+001  7.491897e+001  6.337061e+000
      vertex -3.100000e+001  7.714125e+001  6.337061e+000
      vertex -3.100000e+001  7.744432e+001  6.585786e+000
    endloop
  endfacet
  facet normal  1.000000e+000  0.000000e+000  0.000000e+000
    outer loop
      vertex -3.100000e+001  7.491897e+001  6.337061e+000
      vertex -3.100000e+001  7.744432e+001  6.585786e+000
      vertex -3.100000e+001  7.461590e+001  6.585786e+000
    endloop
  endfacet
  facet normal  1.000000e+000  0.000000e+000  0.000000e+000
    outer loop
      vertex -3.100000e+001  7.461590e+001  6.585786e+000
      vertex -3.100000e+001  7.744432e+001  6.585786e+000
      vertex -3.100000e+001  7.769305e+001  6.888860e+000
    endloop
  endfacet
  facet normal  1.000000e+000  0.000000e+000  0.000000e+000
    outer loop
      vertex -3.100000e+001  7.461590e+001  6.585786e+000
      vertex -3.100000e+001  7.769305e+001  6.888860e+000
      vertex -3.100000e+001  7.436717e+001  6.888860e+000
    endloop
  endfacet
  facet normal  1.000000e+000  0.000000e+000  0.000000e+000
    outer loop
      vertex -3.100000e+001  7.436717e+001  6.888860e+000
      vertex -3.100000e+001  7.769305e+001  6.888860e+000
      vertex -3.100000e+001  7.787787e+001  7.234633e+000
    endloop
  endfacet
  facet normal  1.000000e+000  0.000000e+000  0.000000e+000
    outer loop
      vertex -3.100000e+001  7.436717e+001  6.888860e+000
      vertex -3.100000e+001  7.787787e+001  7.234633e+000
      vertex -3.100000e+001  7.418235e+001  7.234633e+000
    endloop
  endfacet
  facet normal  1.000000e+000  0.000000e+000  0.000000e+000
    outer loop
      vertex -3.100000e+001  7.418235e+001  7.234633e+000
      vertex -3.100000e+001  7.787787e+001  7.234633e+000
      vertex -3.100000e+001  7.799168e+001  7.609819e+000
    endloop
  endfacet
  facet normal  1.000000e+000  0.000000e+000  0.000000e+000
    outer loop
      vertex -3.100000e+001  7.418235e+001  7.234633e+000
      vertex -3.100000e+001  7.799168e+001  7.609819e+000
      vertex -3.100000e+001  7.406854e+001  7.609819e+000
    endloop
  endfacet
  facet normal  1.000000e+000  0.000000e+000  0.000000e+000
    outer loop
      vertex -3.100000e+001  7.406854e+001  7.609819e+000
      vertex -3.100000e+001  7.799168e+001  7.609819e+000
      vertex -3.100000e+001  7.803011e+001  8.000000e+000
    endloop
  endfacet
  facet normal  1.000000e+000  0.000000e+000  0.000000e+000
    outer loop
      vertex -3.100000e+001  7.406854e+001  7.609819e+000
      vertex -3.100000e+001  7.803011e+001  8.000000e+000
      vertex -3.100000e+001  7.403011e+001  8.000000e+000
    endloop
  endfacet
  facet normal  1.000000e+000  0.000000e+000  0.000000e+000
    outer loop
      vertex -3.100000e+001  7.403011e+001  8.000000e+000
      vertex -3.100000e+001  7.803011e+001  8.000000e+000
      vertex -3.100000e+001  7.803011e+001  1.800000e+001
    endloop
  endfacet
  facet normal  1.000000e+000  0.000000e+000  0.000000e+000
    outer loop
      vertex -3.100000e+001  7.403011e+001  8.000000e+000
      vertex -3.100000e+001  7.803011e+001  1.800000e+001
      vertex -3.100000e+001  7.403011e+001  1.600000e+001
    endloop
  endfacet
  facet normal -1.000000e+000  0.000000e+000  0.000000e+000
    outer loop
      vertex -4.100000e+001  6.573011e+001  1.800000e+001
      vertex -4.100000e+001  6.973011e+001  1.600000e+001
      vertex -4.100000e+001  6.573011e+001  1.600000e+001
    endloop
  endfacet
  facet normal -1.000000e+000  -0.000000e+000  0.000000e+000
    outer loop
      vertex -4.100000e+001  6.773011e+001  2.000000e+001
      vertex -4.100000e+001  7.603011e+001  2.000000e+001
      vertex -4.100000e+001  6.733993e+001  1.996157e+001
    endloop
  endfacet
  facet normal -1.000000e+000  0.000000e+000  0.000000e+000
    outer loop
      vertex -4.100000e+001  6.733993e+001  1.996157e+001
      vertex -4.100000e+001  7.603011e+001  2.000000e+001
      vertex -4.100000e+001  7.642029e+001  1.996157e+001
    endloop
  endfacet
  facet normal -1.000000e+000  -0.000000e+000  0.000000e+000
    outer loop
      vertex -4.100000e+001  6.733993e+001  1.996157e+001
      vertex -4.100000e+001  7.642029e+001  1.996157e+001
      vertex -4.100000e+001  6.696474e+001  1.984776e+001
    endloop
  endfacet
  facet normal -1.000000e+000  0.000000e+000  0.000000e+000
    outer loop
      vertex -4.100000e+001  6.696474e+001  1.984776e+001
      vertex -4.100000e+001  7.642029e+001  1.996157e+001
      vertex -4.100000e+001  7.679548e+001  1.984776e+001
    endloop
  endfacet
  facet normal -1.000000e+000  -0.000000e+000  0.000000e+000
    outer loop
      vertex -4.100000e+001  6.696474e+001  1.984776e+001
      vertex -4.100000e+001  7.679548e+001  1.984776e+001
      vertex -4.100000e+001  6.661897e+001  1.966294e+001
    endloop
  endfacet
  facet normal -1.000000e+000  0.000000e+000  0.000000e+000
    outer loop
      vertex -4.100000e+001  6.661897e+001  1.966294e+001
      vertex -4.100000e+001  7.679548e+001  1.984776e+001
      vertex -4.100000e+001  7.714125e+001  1.966294e+001
    endloop
  endfacet
  facet normal -1.000000e+000  -0.000000e+000  0.000000e+000
    outer loop
      vertex -4.100000e+001  6.661897e+001  1.966294e+001
      vertex -4.100000e+001  7.714125e+001  1.966294e+001
      vertex -4.100000e+001  6.631590e+001  1.941421e+001
    endloop
  endfacet
  facet normal -1.000000e+000  0.000000e+000  0.000000e+000
    outer loop
      vertex -4.100000e+001  6.631590e+001  1.941421e+001
      vertex -4.100000e+001  7.714125e+001  1.966294e+001
      vertex -4.100000e+001  7.744432e+001  1.941421e+001
    endloop
  endfacet
  facet normal -9.999999e-001  -0.000000e+000  0.000000e+000
    outer loop
      vertex -4.100000e+001  6.631590e+001  1.941421e+001
      vertex -4.100000e+001  7.744432e+001  1.941421e+001
      vertex -4.100000e+001  6.606717e+001  1.911114e+001
    endloop
  endfacet
  facet normal -1.000000e+000  0.000000e+000  0.000000e+000
    outer loop
      vertex -4.100000e+001  6.606717e+001  1.911114e+001
      vertex -4.100000e+001  7.744432e+001  1.941421e+001
      vertex -4.100000e+001  7.769305e+001  1.911114e+001
    endloop
  endfacet
  facet normal -1.000000e+000  -0.000000e+000  0.000000e+000
    outer loop
      vertex -4.100000e+001  6.606717e+001  1.911114e+001
      vertex -4.100000e+001  7.769305e+001  1.911114e+001
      vertex -4.100000e+001  6.588235e+001  1.876537e+001
    endloop
  endfacet
  facet normal -1.000000e+000  0.000000e+000  0.000000e+000
    outer loop
      vertex -4.100000e+001  6.588235e+001  1.876537e+001
      vertex -4.100000e+001  7.769305e+001  1.911114e+001
      vertex -4.100000e+001  7.787787e+001  1.876537e+001
    endloop
  endfacet
  facet normal -1.000000e+000  -0.000000e+000  0.000000e+000
    outer loop
      vertex -4.100000e+001  6.588235e+001  1.876537e+001
      vertex -4.100000e+001  7.787787e+001  1.876537e+001
      vertex -4.100000e+001  6.576854e+001  1.839018e+001
    endloop
  endfacet
  facet normal -1.000000e+000  0.000000e+000  0.000000e+000
    outer loop
      vertex -4.100000e+001  6.576854e+001  1.839018e+001
      vertex -4.100000e+001  7.787787e+001  1.876537e+001
      vertex -4.100000e+001  7.799168e+001  1.839018e+001
    endloop
  endfacet
  facet normal -1.000000e+000  -0.000000e+000  0.000000e+000
    outer loop
      vertex -4.100000e+001  6.576854e+001  1.839018e+001
      vertex -4.100000e+001  7.799168e+001  1.839018e+001
      vertex -4.100000e+001  6.573011e+001  1.800000e+001
    endloop
  endfacet
  facet normal -9.999999e-001  0.000000e+000  0.000000e+000
    outer loop
      vertex -4.100000e+001  6.573011e+001  1.800000e+001
      vertex -4.100000e+001  7.799168e+001  1.839018e+001
      vertex -4.100000e+001  7.803011e+001  1.800000e+001
    endloop
  endfacet
  facet normal -1.000000e+000  -0.000000e+000  0.000000e+000
    outer loop
      vertex -4.100000e+001  6.573011e+001  1.800000e+001
      vertex -4.100000e+001  7.803011e+001  1.800000e+001
      vertex -4.100000e+001  6.973011e+001  1.600000e+001
    endloop
  endfacet
  facet normal -9.999999e-001  0.000000e+000  0.000000e+000
    outer loop
      vertex -4.100000e+001  6.973011e+001  1.600000e+001
      vertex -4.100000e+001  7.803011e+001  1.800000e+001
      vertex -4.100000e+001  7.403011e+001  1.600000e+001
    endloop
  endfacet
  facet normal -1.000000e+000  0.000000e+000  0.000000e+000
    outer loop
      vertex -4.100000e+001  7.403011e+001  1.600000e+001
      vertex -4.100000e+001  7.803011e+001  1.800000e+001
      vertex -4.100000e+001  7.403011e+001  8.000000e+000
    endloop
  endfacet
  facet normal -1.000000e+000  0.000000e+000  0.000000e+000
    outer loop
      vertex -4.100000e+001  7.403011e+001  8.000000e+000
      vertex -4.100000e+001  7.803011e+001  1.800000e+001
      vertex -4.100000e+001  7.803011e+001  8.000000e+000
    endloop
  endfacet
  facet normal -1.000000e+000  -0.000000e+000  0.000000e+000
    outer loop
      vertex -4.100000e+001  7.403011e+001  8.000000e+000
      vertex -4.100000e+001  7.803011e+001  8.000000e+000
      vertex -4.100000e+001  7.406854e+001  7.609819e+000
    endloop
  endfacet
  facet normal -1.000000e+000  0.000000e+000  0.000000e+000
    outer loop
      vertex -4.100000e+001  7.406854e+001  7.609819e+000
      vertex -4.100000e+001  7.803011e+001  8.000000e+000
      vertex -4.100000e+001  7.799168e+001  7.609819e+000
    endloop
  endfacet
  facet normal -1.000000e+000  -0.000000e+000  0.000000e+000
    outer loop
      vertex -4.100000e+001  7.406854e+001  7.609819e+000
      vertex -4.100000e+001  7.799168e+001  7.609819e+000
      vertex -4.100000e+001  7.418235e+001  7.234633e+000
    endloop
  endfacet
  facet normal -1.000000e+000  0.000000e+000  0.000000e+000
    outer loop
      vertex -4.100000e+001  7.418235e+001  7.234633e+000
      vertex -4.100000e+001  7.799168e+001  7.609819e+000
      vertex -4.100000e+001  7.787787e+001  7.234633e+000
    endloop
  endfacet
  facet normal -1.000000e+000  -0.000000e+000  0.000000e+000
    outer loop
      vertex -4.100000e+001  7.418235e+001  7.234633e+000
      vertex -4.100000e+001  7.787787e+001  7.234633e+000
      vertex -4.100000e+001  7.436717e+001  6.888860e+000
    endloop
  endfacet
  facet normal -1.000000e+000  0.000000e+000  0.000000e+000
    outer loop
      vertex -4.100000e+001  7.436717e+001  6.888860e+000
      vertex -4.100000e+001  7.787787e+001  7.234633e+000
      vertex -4.100000e+001  7.769305e+001  6.888860e+000
    endloop
  endfacet
  facet normal -1.000000e+000  -0.000000e+000  0.000000e+000
    outer loop
      vertex -4.100000e+001  7.436717e+001  6.888860e+000
      vertex -4.100000e+001  7.769305e+001  6.888860e+000
      vertex -4.100000e+001  7.461590e+001  6.585786e+000
    endloop
  endfacet
  facet normal -1.000000e+000  0.000000e+000  0.000000e+000
    outer loop
      vertex -4.100000e+001  7.461590e+001  6.585786e+000
      vertex -4.100000e+001  7.769305e+001  6.888860e+000
      vertex -4.100000e+001  7.744432e+001  6.585786e+000
    endloop
  endfacet
  facet normal -1.000000e+000  -0.000000e+000  0.000000e+000
    outer loop
      vertex -4.100000e+001  7.461590e+001  6.585786e+000
      vertex -4.100000e+001  7.744432e+001  6.585786e+000
      vertex -4.100000e+001  7.491897e+001  6.337061e+000
    endloop
  endfacet
  facet normal -1.000000e+000  0.000000e+000  0.000000e+000
    outer loop
      vertex -4.100000e+001  7.491897e+001  6.337061e+000
      vertex -4.100000e+001  7.744432e+001  6.585786e+000
      vertex -4.100000e+001  7.714125e+001  6.337061e+000
    endloop
  endfacet
  facet normal -9.999999e-001  -0.000000e+000  0.000000e+000
    outer loop
      vertex -4.100000e+001  7.491897e+001  6.337061e+000
      vertex -4.100000e+001  7.714125e+001  6.337061e+000
      vertex -4.100000e+001  7.526474e+001  6.152241e+000
    endloop
  endfacet
  facet normal -1.000000e+000  0.000000e+000  0.000000e+000
    outer loop
      vertex -4.100000e+001  7.526474e+001  6.152241e+000
      vertex -4.100000e+001  7.714125e+001  6.337061e+000
      vertex -4.100000e+001  7.679548e+001  6.152241e+000
    endloop
  endfacet
  facet normal -1.000000e+000  -0.000000e+000  0.000000e+000
    outer loop
      vertex -4.100000e+001  7.526474e+001  6.152241e+000
      vertex -4.100000e+001  7.679548e+001  6.152241e+000
      vertex -4.100000e+001  7.563993e+001  6.038429e+000
    endloop
  endfacet
  facet normal -1.000000e+000  0.000000e+000  0.000000e+000
    outer loop
      vertex -4.100000e+001  7.563993e+001  6.038429e+000
      vertex -4.100000e+001  7.679548e+001  6.152241e+000
      vertex -4.100000e+001  7.642029e+001  6.038429e+000
    endloop
  endfacet
  facet normal -1.000000e+000  -0.000000e+000  0.000000e+000
    outer loop
      vertex -4.100000e+001  7.563993e+001  6.038429e+000
      vertex -4.100000e+001  7.642029e+001  6.038429e+000
      vertex -4.100000e+001  7.603011e+001  6.000000e+000
    endloop
  endfacet
  facet normal  0.000000e+000 -1.000000e+000  -0.000000e+000
    outer loop
      vertex -3.100000e+001  7.403011e+001  8.000000e+000
      vertex -3.100000e+001  7.403011e+001  1.600000e+001
      vertex -4.100000e+001  7.403011e+001  8.000000e+000
    endloop
  endfacet
  facet normal  0.000000e+000 -1.000000e+000  0.000000e+000
    outer loop
      vertex -4.100000e+001  7.403011e+001  8.000000e+000
      vertex -3.100000e+001  7.403011e+001  1.600000e+001
      vertex -4.100000e+001  7.403011e+001  1.600000e+001
    endloop
  endfacet
  facet normal  0.000000e+000 -9.951848e-001 -9.801670e-002
    outer loop
      vertex -3.100000e+001  7.403011e+001  8.000000e+000
      vertex -4.100000e+001  7.403011e+001  8.000000e+000
      vertex -3.100000e+001  7.406854e+001  7.609819e+000
    endloop
  endfacet
  facet normal  -0.000000e+000 -9.951848e-001 -9.801670e-002
    outer loop
      vertex -3.100000e+001  7.406854e+001  7.609819e+000
      vertex -4.100000e+001  7.403011e+001  8.000000e+000
      vertex -4.100000e+001  7.406854e+001  7.609819e+000
    endloop
  endfacet
  facet normal  0.000000e+000 -9.569431e-001 -2.902756e-001
    outer loop
      vertex -3.100000e+001  7.406854e+001  7.609819e+000
      vertex -4.100000e+001  7.406854e+001  7.609819e+000
      vertex -3.100000e+001  7.418235e+001  7.234633e+000
    endloop
  endfacet
  facet normal  -0.000000e+000 -9.569431e-001 -2.902756e-001
    outer loop
      vertex -3.100000e+001  7.418235e+001  7.234633e+000
      vertex -4.100000e+001  7.406854e+001  7.609819e+000
      vertex -4.100000e+001  7.418235e+001  7.234633e+000
    endloop
  endfacet
  facet normal  0.000000e+000 -8.819187e-001 -4.714016e-001
    outer loop
      vertex -3.100000e+001  7.418235e+001  7.234633e+000
      vertex -4.100000e+001  7.418235e+001  7.234633e+000
      vertex -3.100000e+001  7.436717e+001  6.888860e+000
    endloop
  endfacet
  facet normal  -0.000000e+000 -8.819187e-001 -4.714016e-001
    outer loop
      vertex -3.100000e+001  7.436717e+001  6.888860e+000
      vertex -4.100000e+001  7.418235e+001  7.234633e+000
      vertex -4.100000e+001  7.436717e+001  6.888860e+000
    endloop
  endfacet
  facet normal  0.000000e+000 -7.730105e-001 -6.343933e-001
    outer loop
      vertex -3.100000e+001  7.436717e+001  6.888860e+000
      vertex -4.100000e+001  7.436717e+001  6.888860e+000
      vertex -3.100000e+001  7.461590e+001  6.585786e+000
    endloop
  endfacet
  facet normal  -0.000000e+000 -7.730105e-001 -6.343933e-001
    outer loop
      vertex -3.100000e+001  7.461590e+001  6.585786e+000
      vertex -4.100000e+001  7.436717e+001  6.888860e+000
      vertex -4.100000e+001  7.461590e+001  6.585786e+000
    endloop
  endfacet
  facet normal  0.000000e+000 -6.343967e-001 -7.730077e-001
    outer loop
      vertex -3.100000e+001  7.461590e+001  6.585786e+000
      vertex -4.100000e+001  7.461590e+001  6.585786e+000
      vertex -3.100000e+001  7.491897e+001  6.337061e+000
    endloop
  endfacet
  facet normal  -0.000000e+000 -6.343967e-001 -7.730077e-001
    outer loop
      vertex -3.100000e+001  7.491897e+001  6.337061e+000
      vertex -4.100000e+001  7.461590e+001  6.585786e+000
      vertex -4.100000e+001  7.491897e+001  6.337061e+000
    endloop
  endfacet
  facet normal  0.000000e+000 -4.713993e-001 -8.819199e-001
    outer loop
      vertex -3.100000e+001  7.491897e+001  6.337061e+000
      vertex -4.100000e+001  7.491897e+001  6.337061e+000
      vertex -3.100000e+001  7.526474e+001  6.152241e+000
    endloop
  endfacet
  facet normal  -0.000000e+000 -4.713993e-001 -8.819199e-001
    outer loop
      vertex -3.100000e+001  7.526474e+001  6.152241e+000
      vertex -4.100000e+001  7.491897e+001  6.337061e+000
      vertex -4.100000e+001  7.526474e+001  6.152241e+000
    endloop
  endfacet
  facet normal  0.000000e+000 -2.902815e-001 -9.569413e-001
    outer loop
      vertex -3.100000e+001  7.526474e+001  6.152241e+000
      vertex -4.100000e+001  7.526474e+001  6.152241e+000
      vertex -3.100000e+001  7.563993e+001  6.038429e+000
    endloop
  endfacet
  facet normal  -0.000000e+000 -2.902815e-001 -9.569413e-001
    outer loop
      vertex -3.100000e+001  7.563993e+001  6.038429e+000
      vertex -4.100000e+001  7.526474e+001  6.152241e+000
      vertex -4.100000e+001  7.563993e+001  6.038429e+000
    endloop
  endfacet
  facet normal  0.000000e+000 -9.801622e-002 -9.951848e-001
    outer loop
      vertex -3.100000e+001  7.563993e+001  6.038429e+000
      vertex -4.100000e+001  7.563993e+001  6.038429e+000
      vertex -3.100000e+001  7.603011e+001  6.000000e+000
    endloop
  endfacet
  facet normal  -0.000000e+000 -9.801622e-002 -9.951848e-001
    outer loop
      vertex -3.100000e+001  7.603011e+001  6.000000e+000
      vertex -4.100000e+001  7.563993e+001  6.038429e+000
      vertex -4.100000e+001  7.603011e+001  6.000000e+000
    endloop
  endfacet
  facet normal  0.000000e+000  1.000000e+000  -0.000000e+000
    outer loop
      vertex -3.100000e+001  7.803011e+001  1.800000e+001
      vertex -3.100000e+001  7.803011e+001  8.000000e+000
      vertex -4.100000e+001  7.803011e+001  1.800000e+001
    endloop
  endfacet
  facet normal  0.000000e+000  1.000000e+000  0.000000e+000
    outer loop
      vertex -4.100000e+001  7.803011e+001  1.800000e+001
      vertex -3.100000e+001  7.803011e+001  8.000000e+000
      vertex -4.100000e+001  7.803011e+001  8.000000e+000
    endloop
  endfacet
  facet normal  0.000000e+000  9.801812e-002 -9.951846e-001
    outer loop
      vertex -3.100000e+001  7.603011e+001  6.000000e+000
      vertex -4.100000e+001  7.603011e+001  6.000000e+000
      vertex -3.100000e+001  7.642029e+001  6.038429e+000
    endloop
  endfacet
  facet normal  0.000000e+000  9.801812e-002 -9.951846e-001
    outer loop
      vertex -3.100000e+001  7.642029e+001  6.038429e+000
      vertex -4.100000e+001  7.603011e+001  6.000000e+000
      vertex -4.100000e+001  7.642029e+001  6.038429e+000
    endloop
  endfacet
  facet normal  0.000000e+000  2.902815e-001 -9.569413e-001
    outer loop
      vertex -3.100000e+001  7.642029e+001  6.038429e+000
      vertex -4.100000e+001  7.642029e+001  6.038429e+000
      vertex -3.100000e+001  7.679548e+001  6.152241e+000
    endloop
  endfacet
  facet normal  0.000000e+000  2.902815e-001 -9.569413e-001
    outer loop
      vertex -3.100000e+001  7.679548e+001  6.152241e+000
      vertex -4.100000e+001  7.642029e+001  6.038429e+000
      vertex -4.100000e+001  7.679548e+001  6.152241e+000
    endloop
  endfacet
  facet normal  0.000000e+000  4.713993e-001 -8.819199e-001
    outer loop
      vertex -3.100000e+001  7.679548e+001  6.152241e+000
      vertex -4.100000e+001  7.679548e+001  6.152241e+000
      vertex -3.100000e+001  7.714125e+001  6.337061e+000
    endloop
  endfacet
  facet normal  0.000000e+000  4.713993e-001 -8.819199e-001
    outer loop
      vertex -3.100000e+001  7.714125e+001  6.337061e+000
      vertex -4.100000e+001  7.679548e+001  6.152241e+000
      vertex -4.100000e+001  7.714125e+001  6.337061e+000
    endloop
  endfacet
  facet normal  0.000000e+000  6.343967e-001 -7.730077e-001
    outer loop
      vertex -3.100000e+001  7.714125e+001  6.337061e+000
      vertex -4.100000e+001  7.714125e+001  6.337061e+000
      vertex -3.100000e+001  7.744432e+001  6.585786e+000
    endloop
  endfacet
  facet normal  0.000000e+000  6.343967e-001 -7.730077e-001
    outer loop
      vertex -3.100000e+001  7.744432e+001  6.585786e+000
      vertex -4.100000e+001  7.714125e+001  6.337061e+000
      vertex -4.100000e+001  7.744432e+001  6.585786e+000
    endloop
  endfacet
  facet normal  0.000000e+000  7.730105e-001 -6.343933e-001
    outer loop
      vertex -3.100000e+001  7.744432e+001  6.585786e+000
      vertex -4.100000e+001  7.744432e+001  6.585786e+000
      vertex -3.100000e+001  7.769305e+001  6.888860e+000
    endloop
  endfacet
  facet normal  0.000000e+000  7.730105e-001 -6.343933e-001
    outer loop
      vertex -3.100000e+001  7.769305e+001  6.888860e+000
      vertex -4.100000e+001  7.744432e+001  6.585786e+000
      vertex -4.100000e+001  7.769305e+001  6.888860e+000
    endloop
  endfacet
  facet normal  0.000000e+000  8.819187e-001 -4.714016e-001
    outer loop
      vertex -3.100000e+001  7.769305e+001  6.888860e+000
      vertex -4.100000e+001  7.769305e+001  6.888860e+000
      vertex -3.100000e+001  7.787787e+001  7.234633e+000
    endloop
  endfacet
  facet normal  0.000000e+000  8.819187e-001 -4.714016e-001
    outer loop
      vertex -3.100000e+001  7.787787e+001  7.234633e+000
      vertex -4.100000e+001  7.769305e+001  6.888860e+000
      vertex -4.100000e+001  7.787787e+001  7.234633e+000
    endloop
  endfacet
  facet normal  0.000000e+000  9.569376e-001 -2.902934e-001
    outer loop
      vertex -3.100000e+001  7.787787e+001  7.234633e+000
      vertex -4.100000e+001  7.787787e+001  7.234633e+000
      vertex -3.100000e+001  7.799168e+001  7.609819e+000
    endloop
  endfacet
  facet normal  0.000000e+000  9.569376e-001 -2.902934e-001
    outer loop
      vertex -3.100000e+001  7.799168e+001  7.609819e+000
      vertex -4.100000e+001  7.787787e+001  7.234633e+000
      vertex -4.100000e+001  7.799168e+001  7.609819e+000
    endloop
  endfacet
  facet normal  0.000000e+000  9.951848e-001 -9.801670e-002
    outer loop
      vertex -3.100000e+001  7.799168e+001  7.609819e+000
      vertex -4.100000e+001  7.799168e+001  7.609819e+000
      vertex -3.100000e+001  7.803011e+001  8.000000e+000
    endloop
  endfacet
  facet normal  0.000000e+000  9.951848e-001 -9.801670e-002
    outer loop
      vertex -3.100000e+001  7.803011e+001  8.000000e+000
      vertex -4.100000e+001  7.799168e+001  7.609819e+000
      vertex -4.100000e+001  7.803011e+001  8.000000e+000
    endloop
  endfacet
  facet normal  0.000000e+000  0.000000e+000  1.000000e+000
    outer loop
      vertex -3.100000e+001  6.773011e+001  2.000000e+001
      vertex -3.100000e+001  7.603011e+001  2.000000e+001
      vertex -4.100000e+001  6.773011e+001  2.000000e+001
    endloop
  endfacet
  facet normal  0.000000e+000  0.000000e+000  1.000000e+000
    outer loop
      vertex -4.100000e+001  6.773011e+001  2.000000e+001
      vertex -3.100000e+001  7.603011e+001  2.000000e+001
      vertex -4.100000e+001  7.603011e+001  2.000000e+001
    endloop
  endfacet
  facet normal  -0.000000e+000  9.951848e-001  9.801670e-002
    outer loop
      vertex -3.100000e+001  7.803011e+001  1.800000e+001
      vertex -4.100000e+001  7.803011e+001  1.800000e+001
      vertex -3.100000e+001  7.799168e+001  1.839018e+001
    endloop
  endfacet
  facet normal  0.000000e+000  9.951848e-001  9.801670e-002
    outer loop
      vertex -3.100000e+001  7.799168e+001  1.839018e+001
      vertex -4.100000e+001  7.803011e+001  1.800000e+001
      vertex -4.100000e+001  7.799168e+001  1.839018e+001
    endloop
  endfacet
  facet normal  -0.000000e+000  9.569377e-001  2.902931e-001
    outer loop
      vertex -3.100000e+001  7.799168e+001  1.839018e+001
      vertex -4.100000e+001  7.799168e+001  1.839018e+001
      vertex -3.100000e+001  7.787787e+001  1.876537e+001
    endloop
  endfacet
  facet normal  0.000000e+000  9.569377e-001  2.902931e-001
    outer loop
      vertex -3.100000e+001  7.787787e+001  1.876537e+001
      vertex -4.100000e+001  7.799168e+001  1.839018e+001
      vertex -4.100000e+001  7.787787e+001  1.876537e+001
    endloop
  endfacet
  facet normal  -0.000000e+000  8.819189e-001  4.714011e-001
    outer loop
      vertex -3.100000e+001  7.787787e+001  1.876537e+001
      vertex -4.100000e+001  7.787787e+001  1.876537e+001
      vertex -3.100000e+001  7.769305e+001  1.911114e+001
    endloop
  endfacet
  facet normal  0.000000e+000  8.819189e-001  4.714011e-001
    outer loop
      vertex -3.100000e+001  7.769305e+001  1.911114e+001
      vertex -4.100000e+001  7.787787e+001  1.876537e+001
      vertex -4.100000e+001  7.769305e+001  1.911114e+001
    endloop
  endfacet
  facet normal  -0.000000e+000  7.730090e-001  6.343951e-001
    outer loop
      vertex -3.100000e+001  7.769305e+001  1.911114e+001
      vertex -4.100000e+001  7.769305e+001  1.911114e+001
      vertex -3.100000e+001  7.744432e+001  1.941421e+001
    endloop
  endfacet
  facet normal  0.000000e+000  7.730090e-001  6.343951e-001
    outer loop
      vertex -3.100000e+001  7.744432e+001  1.941421e+001
      vertex -4.100000e+001  7.769305e+001  1.911114e+001
      vertex -4.100000e+001  7.744432e+001  1.941421e+001
    endloop
  endfacet
  facet normal  -0.000000e+000  6.343974e-001  7.730070e-001
    outer loop
      vertex -3.100000e+001  7.744432e+001  1.941421e+001
      vertex -4.100000e+001  7.744432e+001  1.941421e+001
      vertex -3.100000e+001  7.714125e+001  1.966294e+001
    endloop
  endfacet
  facet normal  0.000000e+000  6.343974e-001  7.730070e-001
    outer loop
      vertex -3.100000e+001  7.714125e+001  1.966294e+001
      vertex -4.100000e+001  7.744432e+001  1.941421e+001
      vertex -4.100000e+001  7.714125e+001  1.966294e+001
    endloop
  endfacet
  facet normal  -0.000000e+000  4.713993e-001  8.819199e-001
    outer loop
      vertex -3.100000e+001  7.714125e+001  1.966294e+001
      vertex -4.100000e+001  7.714125e+001  1.966294e+001
      vertex -3.100000e+001  7.679548e+001  1.984776e+001
    endloop
  endfacet
  facet normal  0.000000e+000  4.713993e-001  8.819199e-001
    outer loop
      vertex -3.100000e+001  7.679548e+001  1.984776e+001
      vertex -4.100000e+001  7.714125e+001  1.966294e+001
      vertex -4.100000e+001  7.679548e+001  1.984776e+001
    endloop
  endfacet
  facet normal  -0.000000e+000  2.902815e-001  9.569413e-001
    outer loop
      vertex -3.100000e+001  7.679548e+001  1.984776e+001
      vertex -4.100000e+001  7.679548e+001  1.984776e+001
      vertex -3.100000e+001  7.642029e+001  1.996157e+001
    endloop
  endfacet
  facet normal  0.000000e+000  2.902815e-001  9.569413e-001
    outer loop
      vertex -3.100000e+001  7.642029e+001  1.996157e+001
      vertex -4.100000e+001  7.679548e+001  1.984776e+001
      vertex -4.100000e+001  7.642029e+001  1.996157e+001
    endloop
  endfacet
  facet normal  -0.000000e+000  9.801812e-002  9.951846e-001
    outer loop
      vertex -3.100000e+001  7.642029e+001  1.996157e+001
      vertex -4.100000e+001  7.642029e+001  1.996157e+001
      vertex -3.100000e+001  7.603011e+001  2.000000e+001
    endloop
  endfacet
  facet normal  0.000000e+000  9.801812e-002  9.951846e-001
    outer loop
      vertex -3.100000e+001  7.603011e+001  2.000000e+001
      vertex -4.100000e+001  7.642029e+001  1.996157e+001
      vertex -4.100000e+001  7.603011e+001  2.000000e+001
    endloop
  endfacet
  facet normal  -0.000000e+000 -1.000000e+000  -0.000000e+000
    outer loop
      vertex  7.700000e+001  6.573011e+001  4.000000e+000
      vertex  7.700000e+001  6.573011e+001  1.600000e+001
      vertex  4.100000e+001  6.573011e+001  1.600000e+001
    endloop
  endfacet
  facet normal  -0.000000e+000 -1.000000e+000  -0.000000e+000
    outer loop
      vertex  7.700000e+001  6.573011e+001  4.000000e+000
      vertex  4.100000e+001  6.573011e+001  1.600000e+001
      vertex  3.100000e+001  6.573011e+001  1.600000e+001
    endloop
  endfacet
  facet normal  -0.000000e+000 -1.000000e+000  -0.000000e+000
    outer loop
      vertex  7.700000e+001  6.573011e+001  4.000000e+000
      vertex  3.100000e+001  6.573011e+001  1.600000e+001
      vertex -3.100000e+001  6.573011e+001  1.600000e+001
    endloop
  endfacet
  facet normal  -0.000000e+000 -1.000000e+000  -0.000000e+000
    outer loop
      vertex  7.700000e+001  6.573011e+001  4.000000e+000
      vertex -3.100000e+001  6.573011e+001  1.600000e+001
      vertex -4.100000e+001  6.573011e+001  1.600000e+001
    endloop
  endfacet
  facet normal  -0.000000e+000 -1.000000e+000  -0.000000e+000
    outer loop
      vertex  7.700000e+001  6.573011e+001  4.000000e+000
      vertex -4.100000e+001  6.573011e+001  1.600000e+001
      vertex -7.700000e+001  6.573011e+001  1.600000e+001
    endloop
  endfacet
  facet normal  0.000000e+000 -1.000000e+000  0.000000e+000
    outer loop
      vertex  7.700000e+001  6.573011e+001  4.000000e+000
      vertex -7.700000e+001  6.573011e+001  1.600000e+001
      vertex -7.700000e+001  6.573011e+001  4.000000e+000
    endloop
  endfacet
  facet normal  0.000000e+000 -1.000000e+000  0.000000e+000
    outer loop
      vertex -4.100000e+001  6.573011e+001  1.600000e+001
      vertex -3.100000e+001  6.573011e+001  1.600000e+001
      vertex -4.100000e+001  6.573011e+001  1.800000e+001
    endloop
  endfacet
  facet normal  0.000000e+000 -1.000000e+000  0.000000e+000
    outer loop
      vertex -4.100000e+001  6.573011e+001  1.800000e+001
      vertex -3.100000e+001  6.573011e+001  1.600000e+001
      vertex -3.100000e+001  6.573011e+001  1.800000e+001
    endloop
  endfacet
  facet normal  0.000000e+000 -1.000000e+000  0.000000e+000
    outer loop
      vertex  3.100000e+001  6.573011e+001  1.600000e+001
      vertex  4.100000e+001  6.573011e+001  1.600000e+001
      vertex  3.100000e+001  6.573011e+001  1.800000e+001
    endloop
  endfacet
  facet normal  0.000000e+000 -1.000000e+000  0.000000e+000
    outer loop
      vertex  3.100000e+001  6.573011e+001  1.800000e+001
      vertex  4.100000e+001  6.573011e+001  1.600000e+001
      vertex  4.100000e+001  6.573011e+001  1.800000e+001
    endloop
  endfacet
  facet normal  0.000000e+000 -9.801622e-002  9.951848e-001
    outer loop
      vertex -3.100000e+001  6.773011e+001  2.000000e+001
      vertex -4.100000e+001  6.773011e+001  2.000000e+001
      vertex -3.100000e+001  6.733993e+001  1.996157e+001
    endloop
  endfacet
  facet normal  0.000000e+000 -9.801622e-002  9.951848e-001
    outer loop
      vertex -3.100000e+001  6.733993e+001  1.996157e+001
      vertex -4.100000e+001  6.773011e+001  2.000000e+001
      vertex -4.100000e+001  6.733993e+001  1.996157e+001
    endloop
  endfacet
  facet normal  0.000000e+000 -2.902869e-001  9.569396e-001
    outer loop
      vertex -3.100000e+001  6.733993e+001  1.996157e+001
      vertex -4.100000e+001  6.733993e+001  1.996157e+001
      vertex -3.100000e+001  6.696474e+001  1.984776e+001
    endloop
  endfacet
  facet normal  0.000000e+000 -2.902869e-001  9.569396e-001
    outer loop
      vertex -3.100000e+001  6.696474e+001  1.984776e+001
      vertex -4.100000e+001  6.733993e+001  1.996157e+001
      vertex -4.100000e+001  6.696474e+001  1.984776e+001
    endloop
  endfacet
  facet normal  0.000000e+000 -4.713993e-001  8.819199e-001
    outer loop
      vertex -3.100000e+001  6.696474e+001  1.984776e+001
      vertex -4.100000e+001  6.696474e+001  1.984776e+001
      vertex -3.100000e+001  6.661897e+001  1.966294e+001
    endloop
  endfacet
  facet normal  0.000000e+000 -4.713993e-001  8.819199e-001
    outer loop
      vertex -3.100000e+001  6.661897e+001  1.966294e+001
      vertex -4.100000e+001  6.696474e+001  1.984776e+001
      vertex -4.100000e+001  6.661897e+001  1.966294e+001
    endloop
  endfacet
  facet normal  0.000000e+000 -6.343879e-001  7.730150e-001
    outer loop
      vertex -3.100000e+001  6.661897e+001  1.966294e+001
      vertex -4.100000e+001  6.661897e+001  1.966294e+001
      vertex -3.100000e+001  6.631590e+001  1.941421e+001
    endloop
  endfacet
  facet normal  0.000000e+000 -6.343879e-001  7.730150e-001
    outer loop
      vertex -3.100000e+001  6.631590e+001  1.941421e+001
      vertex -4.100000e+001  6.661897e+001  1.966294e+001
      vertex -4.100000e+001  6.631590e+001  1.941421e+001
    endloop
  endfacet
  facet normal  0.000000e+000 -7.730090e-001  6.343951e-001
    outer loop
      vertex -3.100000e+001  6.631590e+001  1.941421e+001
      vertex -4.100000e+001  6.631590e+001  1.941421e+001
      vertex -3.100000e+001  6.606717e+001  1.911114e+001
    endloop
  endfacet
  facet normal  0.000000e+000 -7.730090e-001  6.343951e-001
    outer loop
      vertex -3.100000e+001  6.606717e+001  1.911114e+001
      vertex -4.100000e+001  6.631590e+001  1.941421e+001
      vertex -4.100000e+001  6.606717e+001  1.911114e+001
    endloop
  endfacet
  facet normal  0.000000e+000 -8.819271e-001  4.713860e-001
    outer loop
      vertex -3.100000e+001  6.606717e+001  1.911114e+001
      vertex -4.100000e+001  6.606717e+001  1.911114e+001
      vertex -3.100000e+001  6.588235e+001  1.876537e+001
    endloop
  endfacet
  facet normal  0.000000e+000 -8.819271e-001  4.713860e-001
    outer loop
      vertex -3.100000e+001  6.588235e+001  1.876537e+001
      vertex -4.100000e+001  6.606717e+001  1.911114e+001
      vertex -4.100000e+001  6.588235e+001  1.876537e+001
    endloop
  endfacet
  facet normal  0.000000e+000 -9.569377e-001  2.902931e-001
    outer loop
      vertex -3.100000e+001  6.588235e+001  1.876537e+001
      vertex -4.100000e+001  6.588235e+001  1.876537e+001
      vertex -3.100000e+001  6.576854e+001  1.839018e+001
    endloop
  endfacet
  facet normal  0.000000e+000 -9.569377e-001  2.902931e-001
    outer loop
      vertex -3.100000e+001  6.576854e+001  1.839018e+001
      vertex -4.100000e+001  6.588235e+001  1.876537e+001
      vertex -4.100000e+001  6.576854e+001  1.839018e+001
    endloop
  endfacet
  facet normal  0.000000e+000 -9.951848e-001  9.801670e-002
    outer loop
      vertex -3.100000e+001  6.576854e+001  1.839018e+001
      vertex -4.100000e+001  6.576854e+001  1.839018e+001
      vertex -3.100000e+001  6.573011e+001  1.800000e+001
    endloop
  endfacet
  facet normal  0.000000e+000 -9.951848e-001  9.801670e-002
    outer loop
      vertex -3.100000e+001  6.573011e+001  1.800000e+001
      vertex -4.100000e+001  6.576854e+001  1.839018e+001
      vertex -4.100000e+001  6.573011e+001  1.800000e+001
    endloop
  endfacet
  facet normal -1.000000e+000  0.000000e+000  0.000000e+000
    outer loop
      vertex  3.100000e+001  6.573011e+001  1.800000e+001
      vertex  3.100000e+001  6.973011e+001  1.600000e+001
      vertex  3.100000e+001  6.573011e+001  1.600000e+001
    endloop
  endfacet
  facet normal -1.000000e+000  -0.000000e+000  0.000000e+000
    outer loop
      vertex  3.100000e+001  6.773011e+001  2.000000e+001
      vertex  3.100000e+001  7.603011e+001  2.000000e+001
      vertex  3.100000e+001  6.733993e+001  1.996157e+001
    endloop
  endfacet
  facet normal -1.000000e+000  0.000000e+000  0.000000e+000
    outer loop
      vertex  3.100000e+001  6.733993e+001  1.996157e+001
      vertex  3.100000e+001  7.603011e+001  2.000000e+001
      vertex  3.100000e+001  7.642029e+001  1.996157e+001
    endloop
  endfacet
  facet normal -1.000000e+000  -0.000000e+000  0.000000e+000
    outer loop
      vertex  3.100000e+001  6.733993e+001  1.996157e+001
      vertex  3.100000e+001  7.642029e+001  1.996157e+001
      vertex  3.100000e+001  6.696474e+001  1.984776e+001
    endloop
  endfacet
  facet normal -1.000000e+000  0.000000e+000  0.000000e+000
    outer loop
      vertex  3.100000e+001  6.696474e+001  1.984776e+001
      vertex  3.100000e+001  7.642029e+001  1.996157e+001
      vertex  3.100000e+001  7.679548e+001  1.984776e+001
    endloop
  endfacet
  facet normal -1.000000e+000  -0.000000e+000  0.000000e+000
    outer loop
      vertex  3.100000e+001  6.696474e+001  1.984776e+001
      vertex  3.100000e+001  7.679548e+001  1.984776e+001
      vertex  3.100000e+001  6.661897e+001  1.966294e+001
    endloop
  endfacet
  facet normal -1.000000e+000  0.000000e+000  0.000000e+000
    outer loop
      vertex  3.100000e+001  6.661897e+001  1.966294e+001
      vertex  3.100000e+001  7.679548e+001  1.984776e+001
      vertex  3.100000e+001  7.714125e+001  1.966294e+001
    endloop
  endfacet
  facet normal -1.000000e+000  -0.000000e+000  0.000000e+000
    outer loop
      vertex  3.100000e+001  6.661897e+001  1.966294e+001
      vertex  3.100000e+001  7.714125e+001  1.966294e+001
      vertex  3.100000e+001  6.631590e+001  1.941421e+001
    endloop
  endfacet
  facet normal -1.000000e+000  0.000000e+000  0.000000e+000
    outer loop
      vertex  3.100000e+001  6.631590e+001  1.941421e+001
      vertex  3.100000e+001  7.714125e+001  1.966294e+001
      vertex  3.100000e+001  7.744432e+001  1.941421e+001
    endloop
  endfacet
  facet normal -9.999999e-001  -0.000000e+000  0.000000e+000
    outer loop
      vertex  3.100000e+001  6.631590e+001  1.941421e+001
      vertex  3.100000e+001  7.744432e+001  1.941421e+001
      vertex  3.100000e+001  6.606717e+001  1.911114e+001
    endloop
  endfacet
  facet normal -1.000000e+000  0.000000e+000  0.000000e+000
    outer loop
      vertex  3.100000e+001  6.606717e+001  1.911114e+001
      vertex  3.100000e+001  7.744432e+001  1.941421e+001
      vertex  3.100000e+001  7.769305e+001  1.911114e+001
    endloop
  endfacet
  facet normal -1.000000e+000  -0.000000e+000  0.000000e+000
    outer loop
      vertex  3.100000e+001  6.606717e+001  1.911114e+001
      vertex  3.100000e+001  7.769305e+001  1.911114e+001
      vertex  3.100000e+001  6.588235e+001  1.876537e+001
    endloop
  endfacet
  facet normal -1.000000e+000  0.000000e+000  0.000000e+000
    outer loop
      vertex  3.100000e+001  6.588235e+001  1.876537e+001
      vertex  3.100000e+001  7.769305e+001  1.911114e+001
      vertex  3.100000e+001  7.787787e+001  1.876537e+001
    endloop
  endfacet
  facet normal -1.000000e+000  -0.000000e+000  0.000000e+000
    outer loop
      vertex  3.100000e+001  6.588235e+001  1.876537e+001
      vertex  3.100000e+001  7.787787e+001  1.876537e+001
      vertex  3.100000e+001  6.576854e+001  1.839018e+001
    endloop
  endfacet
  facet normal -1.000000e+000  0.000000e+000  0.000000e+000
    outer loop
      vertex  3.100000e+001  6.576854e+001  1.839018e+001
      vertex  3.100000e+001  7.787787e+001  1.876537e+001
      vertex  3.100000e+001  7.799168e+001  1.839018e+001
    endloop
  endfacet
  facet normal -1.000000e+000  -0.000000e+000  0.000000e+000
    outer loop
      vertex  3.100000e+001  6.576854e+001  1.839018e+001
      vertex  3.100000e+001  7.799168e+001  1.839018e+001
      vertex  3.100000e+001  6.573011e+001  1.800000e+001
    endloop
  endfacet
  facet normal -9.999999e-001  0.000000e+000  0.000000e+000
    outer loop
      vertex  3.100000e+001  6.573011e+001  1.800000e+001
      vertex  3.100000e+001  7.799168e+001  1.839018e+001
      vertex  3.100000e+001  7.803011e+001  1.800000e+001
    endloop
  endfacet
  facet normal -1.000000e+000  -0.000000e+000  0.000000e+000
    outer loop
      vertex  3.100000e+001  6.573011e+001  1.800000e+001
      vertex  3.100000e+001  7.803011e+001  1.800000e+001
      vertex  3.100000e+001  6.973011e+001  1.600000e+001
    endloop
  endfacet
  facet normal -9.999999e-001  0.000000e+000  0.000000e+000
    outer loop
      vertex  3.100000e+001  6.973011e+001  1.600000e+001
      vertex  3.100000e+001  7.803011e+001  1.800000e+001
      vertex  3.100000e+001  7.403011e+001  1.600000e+001
    endloop
  endfacet
  facet normal -1.000000e+000  0.000000e+000  0.000000e+000
    outer loop
      vertex  3.100000e+001  7.403011e+001  1.600000e+001
      vertex  3.100000e+001  7.803011e+001  1.800000e+001
      vertex  3.100000e+001  7.403011e+001  8.000000e+000
    endloop
  endfacet
  facet normal -1.000000e+000  0.000000e+000  0.000000e+000
    outer loop
      vertex  3.100000e+001  7.403011e+001  8.000000e+000
      vertex  3.100000e+001  7.803011e+001  1.800000e+001
      vertex  3.100000e+001  7.803011e+001  8.000000e+000
    endloop
  endfacet
  facet normal -1.000000e+000  -0.000000e+000  0.000000e+000
    outer loop
      vertex  3.100000e+001  7.403011e+001  8.000000e+000
      vertex  3.100000e+001  7.803011e+001  8.000000e+000
      vertex  3.100000e+001  7.406854e+001  7.609819e+000
    endloop
  endfacet
  facet normal -1.000000e+000  0.000000e+000  0.000000e+000
    outer loop
      vertex  3.100000e+001  7.406854e+001  7.609819e+000
      vertex  3.100000e+001  7.803011e+001  8.000000e+000
      vertex  3.100000e+001  7.799168e+001  7.609819e+000
    endloop
  endfacet
  facet normal -1.000000e+000  -0.000000e+000  0.000000e+000
    outer loop
      vertex  3.100000e+001  7.406854e+001  7.609819e+000
      vertex  3.100000e+001  7.799168e+001  7.609819e+000
      vertex  3.100000e+001  7.418235e+001  7.234633e+000
    endloop
  endfacet
  facet normal -1.000000e+000  0.000000e+000  0.000000e+000
    outer loop
      vertex  3.100000e+001  7.418235e+001  7.234633e+000
      vertex  3.100000e+001  7.799168e+001  7.609819e+000
      vertex  3.100000e+001  7.787787e+001  7.234633e+000
    endloop
  endfacet
  facet normal -1.000000e+000  -0.000000e+000  0.000000e+000
    outer loop
      vertex  3.100000e+001  7.418235e+001  7.234633e+000
      vertex  3.100000e+001  7.787787e+001  7.234633e+000
      vertex  3.100000e+001  7.436717e+001  6.888860e+000
    endloop
  endfacet
  facet normal -1.000000e+000  0.000000e+000  0.000000e+000
    outer loop
      vertex  3.100000e+001  7.436717e+001  6.888860e+000
      vertex  3.100000e+001  7.787787e+001  7.234633e+000
      vertex  3.100000e+001  7.769305e+001  6.888860e+000
    endloop
  endfacet
  facet normal -1.000000e+000  -0.000000e+000  0.000000e+000
    outer loop
      vertex  3.100000e+001  7.436717e+001  6.888860e+000
      vertex  3.100000e+001  7.769305e+001  6.888860e+000
      vertex  3.100000e+001  7.461590e+001  6.585786e+000
    endloop
  endfacet
  facet normal -1.000000e+000  0.000000e+000  0.000000e+000
    outer loop
      vertex  3.100000e+001  7.461590e+001  6.585786e+000
      vertex  3.100000e+001  7.769305e+001  6.888860e+000
      vertex  3.100000e+001  7.744432e+001  6.585786e+000
    endloop
  endfacet
  facet normal -1.000000e+000  -0.000000e+000  0.000000e+000
    outer loop
      vertex  3.100000e+001  7.461590e+001  6.585786e+000
      vertex  3.100000e+001  7.744432e+001  6.585786e+000
      vertex  3.100000e+001  7.491897e+001  6.337061e+000
    endloop
  endfacet
  facet normal -1.000000e+000  0.000000e+000  0.000000e+000
    outer loop
      vertex  3.100000e+001  7.491897e+001  6.337061e+000
      vertex  3.100000e+001  7.744432e+001  6.585786e+000
      vertex  3.100000e+001  7.714125e+001  6.337061e+000
    endloop
  endfacet
  facet normal -9.999999e-001  -0.000000e+000  0.000000e+000
    outer loop
      vertex  3.100000e+001  7.491897e+001  6.337061e+000
      vertex  3.100000e+001  7.714125e+001  6.337061e+000
      vertex  3.100000e+001  7.526474e+001  6.152241e+000
    endloop
  endfacet
  facet normal -1.000000e+000  0.000000e+000  0.000000e+000
    outer loop
      vertex  3.100000e+001  7.526474e+001  6.152241e+000
      vertex  3.100000e+001  7.714125e+001  6.337061e+000
      vertex  3.100000e+001  7.679548e+001  6.152241e+000
    endloop
  endfacet
  facet normal -1.000000e+000  -0.000000e+000  0.000000e+000
    outer loop
      vertex  3.100000e+001  7.526474e+001  6.152241e+000
      vertex  3.100000e+001  7.679548e+001  6.152241e+000
      vertex  3.100000e+001  7.563993e+001  6.038429e+000
    endloop
  endfacet
  facet normal -1.000000e+000  0.000000e+000  0.000000e+000
    outer loop
      vertex  3.100000e+001  7.563993e+001  6.038429e+000
      vertex  3.100000e+001  7.679548e+001  6.152241e+000
      vertex  3.100000e+001  7.642029e+001  6.038429e+000
    endloop
  endfacet
  facet normal -1.000000e+000  -0.000000e+000  0.000000e+000
    outer loop
      vertex  3.100000e+001  7.563993e+001  6.038429e+000
      vertex  3.100000e+001  7.642029e+001  6.038429e+000
      vertex  3.100000e+001  7.603011e+001  6.000000e+000
    endloop
  endfacet
  facet normal  1.000000e+000  0.000000e+000  0.000000e+000
    outer loop
      vertex  4.100000e+001  6.573011e+001  1.600000e+001
      vertex  4.100000e+001  6.973011e+001  1.600000e+001
      vertex  4.100000e+001  6.573011e+001  1.800000e+001
    endloop
  endfacet
  facet normal  1.000000e+000  0.000000e+000  0.000000e+000
    outer loop
      vertex  4.100000e+001  6.631590e+001  1.941421e+001
      vertex  4.100000e+001  7.714125e+001  1.966294e+001
      vertex  4.100000e+001  6.661897e+001  1.966294e+001
    endloop
  endfacet
  facet normal  1.000000e+000  0.000000e+000  0.000000e+000
    outer loop
      vertex  4.100000e+001  6.661897e+001  1.966294e+001
      vertex  4.100000e+001  7.714125e+001  1.966294e+001
      vertex  4.100000e+001  7.679548e+001  1.984776e+001
    endloop
  endfacet
  facet normal  1.000000e+000  0.000000e+000  0.000000e+000
    outer loop
      vertex  4.100000e+001  6.661897e+001  1.966294e+001
      vertex  4.100000e+001  7.679548e+001  1.984776e+001
      vertex  4.100000e+001  6.696474e+001  1.984776e+001
    endloop
  endfacet
  facet normal  1.000000e+000  0.000000e+000  0.000000e+000
    outer loop
      vertex  4.100000e+001  6.696474e+001  1.984776e+001
      vertex  4.100000e+001  7.679548e+001  1.984776e+001
      vertex  4.100000e+001  7.642029e+001  1.996157e+001
    endloop
  endfacet
  facet normal  1.000000e+000  0.000000e+000  0.000000e+000
    outer loop
      vertex  4.100000e+001  6.696474e+001  1.984776e+001
      vertex  4.100000e+001  7.642029e+001  1.996157e+001
      vertex  4.100000e+001  6.733993e+001  1.996157e+001
    endloop
  endfacet
  facet normal  1.000000e+000  0.000000e+000  0.000000e+000
    outer loop
      vertex  4.100000e+001  6.733993e+001  1.996157e+001
      vertex  4.100000e+001  7.642029e+001  1.996157e+001
      vertex  4.100000e+001  7.603011e+001  2.000000e+001
    endloop
  endfacet
  facet normal  1.000000e+000  0.000000e+000  0.000000e+000
    outer loop
      vertex  4.100000e+001  6.733993e+001  1.996157e+001
      vertex  4.100000e+001  7.603011e+001  2.000000e+001
      vertex  4.100000e+001  6.773011e+001  2.000000e+001
    endloop
  endfacet
  facet normal  1.000000e+000  0.000000e+000  0.000000e+000
    outer loop
      vertex  4.100000e+001  7.714125e+001  1.966294e+001
      vertex  4.100000e+001  6.631590e+001  1.941421e+001
      vertex  4.100000e+001  7.744432e+001  1.941421e+001
    endloop
  endfacet
  facet normal  9.999999e-001  0.000000e+000  0.000000e+000
    outer loop
      vertex  4.100000e+001  7.744432e+001  1.941421e+001
      vertex  4.100000e+001  6.631590e+001  1.941421e+001
      vertex  4.100000e+001  6.606717e+001  1.911114e+001
    endloop
  endfacet
  facet normal  1.000000e+000  0.000000e+000  0.000000e+000
    outer loop
      vertex  4.100000e+001  7.744432e+001  1.941421e+001
      vertex  4.100000e+001  6.606717e+001  1.911114e+001
      vertex  4.100000e+001  7.769305e+001  1.911114e+001
    endloop
  endfacet
  facet normal  1.000000e+000  0.000000e+000  0.000000e+000
    outer loop
      vertex  4.100000e+001  7.769305e+001  1.911114e+001
      vertex  4.100000e+001  6.606717e+001  1.911114e+001
      vertex  4.100000e+001  6.588235e+001  1.876537e+001
    endloop
  endfacet
  facet normal  1.000000e+000  0.000000e+000  0.000000e+000
    outer loop
      vertex  4.100000e+001  7.769305e+001  1.911114e+001
      vertex  4.100000e+001  6.588235e+001  1.876537e+001
      vertex  4.100000e+001  7.787787e+001  1.876537e+001
    endloop
  endfacet
  facet normal  1.000000e+000  0.000000e+000  0.000000e+000
    outer loop
      vertex  4.100000e+001  7.787787e+001  1.876537e+001
      vertex  4.100000e+001  6.588235e+001  1.876537e+001
      vertex  4.100000e+001  6.576854e+001  1.839018e+001
    endloop
  endfacet
  facet normal  1.000000e+000  0.000000e+000  0.000000e+000
    outer loop
      vertex  4.100000e+001  7.787787e+001  1.876537e+001
      vertex  4.100000e+001  6.576854e+001  1.839018e+001
      vertex  4.100000e+001  7.799168e+001  1.839018e+001
    endloop
  endfacet
  facet normal  1.000000e+000  0.000000e+000  0.000000e+000
    outer loop
      vertex  4.100000e+001  7.799168e+001  1.839018e+001
      vertex  4.100000e+001  6.576854e+001  1.839018e+001
      vertex  4.100000e+001  6.573011e+001  1.800000e+001
    endloop
  endfacet
  facet normal  9.999999e-001  0.000000e+000  0.000000e+000
    outer loop
      vertex  4.100000e+001  7.799168e+001  1.839018e+001
      vertex  4.100000e+001  6.573011e+001  1.800000e+001
      vertex  4.100000e+001  7.803011e+001  1.800000e+001
    endloop
  endfacet
  facet normal  1.000000e+000  0.000000e+000  0.000000e+000
    outer loop
      vertex  4.100000e+001  7.803011e+001  1.800000e+001
      vertex  4.100000e+001  6.573011e+001  1.800000e+001
      vertex  4.100000e+001  6.973011e+001  1.600000e+001
    endloop
  endfacet
  facet normal  9.999999e-001  0.000000e+000  0.000000e+000
    outer loop
      vertex  4.100000e+001  7.803011e+001  1.800000e+001
      vertex  4.100000e+001  6.973011e+001  1.600000e+001
      vertex  4.100000e+001  7.403011e+001  1.600000e+001
    endloop
  endfacet
  facet normal  1.000000e+000  0.000000e+000  0.000000e+000
    outer loop
      vertex  4.100000e+001  7.603011e+001  6.000000e+000
      vertex  4.100000e+001  7.642029e+001  6.038429e+000
      vertex  4.100000e+001  7.563993e+001  6.038429e+000
    endloop
  endfacet
  facet normal  1.000000e+000  0.000000e+000  0.000000e+000
    outer loop
      vertex  4.100000e+001  7.563993e+001  6.038429e+000
      vertex  4.100000e+001  7.642029e+001  6.038429e+000
      vertex  4.100000e+001  7.679548e+001  6.152241e+000
    endloop
  endfacet
  facet normal  1.000000e+000  0.000000e+000  0.000000e+000
    outer loop
      vertex  4.100000e+001  7.563993e+001  6.038429e+000
      vertex  4.100000e+001  7.679548e+001  6.152241e+000
      vertex  4.100000e+001  7.526474e+001  6.152241e+000
    endloop
  endfacet
  facet normal  1.000000e+000  0.000000e+000  0.000000e+000
    outer loop
      vertex  4.100000e+001  7.526474e+001  6.152241e+000
      vertex  4.100000e+001  7.679548e+001  6.152241e+000
      vertex  4.100000e+001  7.714125e+001  6.337061e+000
    endloop
  endfacet
  facet normal  9.999999e-001  0.000000e+000  0.000000e+000
    outer loop
      vertex  4.100000e+001  7.526474e+001  6.152241e+000
      vertex  4.100000e+001  7.714125e+001  6.337061e+000
      vertex  4.100000e+001  7.491897e+001  6.337061e+000
    endloop
  endfacet
  facet normal  1.000000e+000  0.000000e+000  0.000000e+000
    outer loop
      vertex  4.100000e+001  7.491897e+001  6.337061e+000
      vertex  4.100000e+001  7.714125e+001  6.337061e+000
      vertex  4.100000e+001  7.744432e+001  6.585786e+000
    endloop
  endfacet
  facet normal  1.000000e+000  0.000000e+000  0.000000e+000
    outer loop
      vertex  4.100000e+001  7.491897e+001  6.337061e+000
      vertex  4.100000e+001  7.744432e+001  6.585786e+000
      vertex  4.100000e+001  7.461590e+001  6.585786e+000
    endloop
  endfacet
  facet normal  1.000000e+000  0.000000e+000  0.000000e+000
    outer loop
      vertex  4.100000e+001  7.461590e+001  6.585786e+000
      vertex  4.100000e+001  7.744432e+001  6.585786e+000
      vertex  4.100000e+001  7.769305e+001  6.888860e+000
    endloop
  endfacet
  facet normal  1.000000e+000  0.000000e+000  0.000000e+000
    outer loop
      vertex  4.100000e+001  7.461590e+001  6.585786e+000
      vertex  4.100000e+001  7.769305e+001  6.888860e+000
      vertex  4.100000e+001  7.436717e+001  6.888860e+000
    endloop
  endfacet
  facet normal  1.000000e+000  0.000000e+000  0.000000e+000
    outer loop
      vertex  4.100000e+001  7.436717e+001  6.888860e+000
      vertex  4.100000e+001  7.769305e+001  6.888860e+000
      vertex  4.100000e+001  7.787787e+001  7.234633e+000
    endloop
  endfacet
  facet normal  1.000000e+000  0.000000e+000  0.000000e+000
    outer loop
      vertex  4.100000e+001  7.436717e+001  6.888860e+000
      vertex  4.100000e+001  7.787787e+001  7.234633e+000
      vertex  4.100000e+001  7.418235e+001  7.234633e+000
    endloop
  endfacet
  facet normal  1.000000e+000  0.000000e+000  0.000000e+000
    outer loop
      vertex  4.100000e+001  7.418235e+001  7.234633e+000
      vertex  4.100000e+001  7.787787e+001  7.234633e+000
      vertex  4.100000e+001  7.799168e+001  7.609819e+000
    endloop
  endfacet
  facet normal  1.000000e+000  0.000000e+000  0.000000e+000
    outer loop
      vertex  4.100000e+001  7.418235e+001  7.234633e+000
      vertex  4.100000e+001  7.799168e+001  7.609819e+000
      vertex  4.100000e+001  7.406854e+001  7.609819e+000
    endloop
  endfacet
  facet normal  1.000000e+000  0.000000e+000  0.000000e+000
    outer loop
      vertex  4.100000e+001  7.406854e+001  7.609819e+000
      vertex  4.100000e+001  7.799168e+001  7.609819e+000
      vertex  4.100000e+001  7.803011e+001  8.000000e+000
    endloop
  endfacet
  facet normal  1.000000e+000  0.000000e+000  0.000000e+000
    outer loop
      vertex  4.100000e+001  7.406854e+001  7.609819e+000
      vertex  4.100000e+001  7.803011e+001  8.000000e+000
      vertex  4.100000e+001  7.403011e+001  8.000000e+000
    endloop
  endfacet
  facet normal  1.000000e+000  0.000000e+000  0.000000e+000
    outer loop
      vertex  4.100000e+001  7.403011e+001  8.000000e+000
      vertex  4.100000e+001  7.803011e+001  8.000000e+000
      vertex  4.100000e+001  7.803011e+001  1.800000e+001
    endloop
  endfacet
  facet normal  1.000000e+000  0.000000e+000  0.000000e+000
    outer loop
      vertex  4.100000e+001  7.403011e+001  8.000000e+000
      vertex  4.100000e+001  7.803011e+001  1.800000e+001
      vertex  4.100000e+001  7.403011e+001  1.600000e+001
    endloop
  endfacet
  facet normal  0.000000e+000 -1.000000e+000  -0.000000e+000
    outer loop
      vertex  4.100000e+001  7.403011e+001  8.000000e+000
      vertex  4.100000e+001  7.403011e+001  1.600000e+001
      vertex  3.100000e+001  7.403011e+001  8.000000e+000
    endloop
  endfacet
  facet normal  0.000000e+000 -1.000000e+000  0.000000e+000
    outer loop
      vertex  3.100000e+001  7.403011e+001  8.000000e+000
      vertex  4.100000e+001  7.403011e+001  1.600000e+001
      vertex  3.100000e+001  7.403011e+001  1.600000e+001
    endloop
  endfacet
  facet normal  0.000000e+000 -9.951848e-001 -9.801670e-002
    outer loop
      vertex  4.100000e+001  7.403011e+001  8.000000e+000
      vertex  3.100000e+001  7.403011e+001  8.000000e+000
      vertex  4.100000e+001  7.406854e+001  7.609819e+000
    endloop
  endfacet
  facet normal  -0.000000e+000 -9.951848e-001 -9.801670e-002
    outer loop
      vertex  4.100000e+001  7.406854e+001  7.609819e+000
      vertex  3.100000e+001  7.403011e+001  8.000000e+000
      vertex  3.100000e+001  7.406854e+001  7.609819e+000
    endloop
  endfacet
  facet normal  0.000000e+000 -9.569431e-001 -2.902756e-001
    outer loop
      vertex  4.100000e+001  7.406854e+001  7.609819e+000
      vertex  3.100000e+001  7.406854e+001  7.609819e+000
      vertex  4.100000e+001  7.418235e+001  7.234633e+000
    endloop
  endfacet
  facet normal  -0.000000e+000 -9.569431e-001 -2.902756e-001
    outer loop
      vertex  4.100000e+001  7.418235e+001  7.234633e+000
      vertex  3.100000e+001  7.406854e+001  7.609819e+000
      vertex  3.100000e+001  7.418235e+001  7.234633e+000
    endloop
  endfacet
  facet normal  0.000000e+000 -8.819187e-001 -4.714016e-001
    outer loop
      vertex  4.100000e+001  7.418235e+001  7.234633e+000
      vertex  3.100000e+001  7.418235e+001  7.234633e+000
      vertex  4.100000e+001  7.436717e+001  6.888860e+000
    endloop
  endfacet
  facet normal  -0.000000e+000 -8.819187e-001 -4.714016e-001
    outer loop
      vertex  4.100000e+001  7.436717e+001  6.888860e+000
      vertex  3.100000e+001  7.418235e+001  7.234633e+000
      vertex  3.100000e+001  7.436717e+001  6.888860e+000
    endloop
  endfacet
  facet normal  0.000000e+000 -7.730105e-001 -6.343933e-001
    outer loop
      vertex  4.100000e+001  7.436717e+001  6.888860e+000
      vertex  3.100000e+001  7.436717e+001  6.888860e+000
      vertex  4.100000e+001  7.461590e+001  6.585786e+000
    endloop
  endfacet
  facet normal  -0.000000e+000 -7.730105e-001 -6.343933e-001
    outer loop
      vertex  4.100000e+001  7.461590e+001  6.585786e+000
      vertex  3.100000e+001  7.436717e+001  6.888860e+000
      vertex  3.100000e+001  7.461590e+001  6.585786e+000
    endloop
  endfacet
  facet normal  0.000000e+000 -6.343967e-001 -7.730077e-001
    outer loop
      vertex  4.100000e+001  7.461590e+001  6.585786e+000
      vertex  3.100000e+001  7.461590e+001  6.585786e+000
      vertex  4.100000e+001  7.491897e+001  6.337061e+000
    endloop
  endfacet
  facet normal  -0.000000e+000 -6.343967e-001 -7.730077e-001
    outer loop
      vertex  4.100000e+001  7.491897e+001  6.337061e+000
      vertex  3.100000e+001  7.461590e+001  6.585786e+000
      vertex  3.100000e+001  7.491897e+001  6.337061e+000
    endloop
  endfacet
  facet normal  0.000000e+000 -4.713993e-001 -8.819199e-001
    outer loop
      vertex  4.100000e+001  7.491897e+001  6.337061e+000
      vertex  3.100000e+001  7.491897e+001  6.337061e+000
      vertex  4.100000e+001  7.526474e+001  6.152241e+000
    endloop
  endfacet
  facet normal  -0.000000e+000 -4.713993e-001 -8.819199e-001
    outer loop
      vertex  4.100000e+001  7.526474e+001  6.152241e+000
      vertex  3.100000e+001  7.491897e+001  6.337061e+000
      vertex  3.100000e+001  7.526474e+001  6.152241e+000
    endloop
  endfacet
  facet normal  0.000000e+000 -2.902815e-001 -9.569413e-001
    outer loop
      vertex  4.100000e+001  7.526474e+001  6.152241e+000
      vertex  3.100000e+001  7.526474e+001  6.152241e+000
      vertex  4.100000e+001  7.563993e+001  6.038429e+000
    endloop
  endfacet
  facet normal  -0.000000e+000 -2.902815e-001 -9.569413e-001
    outer loop
      vertex  4.100000e+001  7.563993e+001  6.038429e+000
      vertex  3.100000e+001  7.526474e+001  6.152241e+000
      vertex  3.100000e+001  7.563993e+001  6.038429e+000
    endloop
  endfacet
  facet normal  0.000000e+000 -9.801622e-002 -9.951848e-001
    outer loop
      vertex  4.100000e+001  7.563993e+001  6.038429e+000
      vertex  3.100000e+001  7.563993e+001  6.038429e+000
      vertex  4.100000e+001  7.603011e+001  6.000000e+000
    endloop
  endfacet
  facet normal  -0.000000e+000 -9.801622e-002 -9.951848e-001
    outer loop
      vertex  4.100000e+001  7.603011e+001  6.000000e+000
      vertex  3.100000e+001  7.563993e+001  6.038429e+000
      vertex  3.100000e+001  7.603011e+001  6.000000e+000
    endloop
  endfacet
  facet normal  0.000000e+000  1.000000e+000  -0.000000e+000
    outer loop
      vertex  4.100000e+001  7.803011e+001  1.800000e+001
      vertex  4.100000e+001  7.803011e+001  8.000000e+000
      vertex  3.100000e+001  7.803011e+001  1.800000e+001
    endloop
  endfacet
  facet normal  0.000000e+000  1.000000e+000  0.000000e+000
    outer loop
      vertex  3.100000e+001  7.803011e+001  1.800000e+001
      vertex  4.100000e+001  7.803011e+001  8.000000e+000
      vertex  3.100000e+001  7.803011e+001  8.000000e+000
    endloop
  endfacet
  facet normal  0.000000e+000  9.801812e-002 -9.951846e-001
    outer loop
      vertex  4.100000e+001  7.603011e+001  6.000000e+000
      vertex  3.100000e+001  7.603011e+001  6.000000e+000
      vertex  4.100000e+001  7.642029e+001  6.038429e+000
    endloop
  endfacet
  facet normal  0.000000e+000  9.801812e-002 -9.951846e-001
    outer loop
      vertex  4.100000e+001  7.642029e+001  6.038429e+000
      vertex  3.100000e+001  7.603011e+001  6.000000e+000
      vertex  3.100000e+001  7.642029e+001  6.038429e+000
    endloop
  endfacet
  facet normal  0.000000e+000  2.902815e-001 -9.569413e-001
    outer loop
      vertex  4.100000e+001  7.642029e+001  6.038429e+000
      vertex  3.100000e+001  7.642029e+001  6.038429e+000
      vertex  4.100000e+001  7.679548e+001  6.152241e+000
    endloop
  endfacet
  facet normal  0.000000e+000  2.902815e-001 -9.569413e-001
    outer loop
      vertex  4.100000e+001  7.679548e+001  6.152241e+000
      vertex  3.100000e+001  7.642029e+001  6.038429e+000
      vertex  3.100000e+001  7.679548e+001  6.152241e+000
    endloop
  endfacet
  facet normal  0.000000e+000  4.713993e-001 -8.819199e-001
    outer loop
      vertex  4.100000e+001  7.679548e+001  6.152241e+000
      vertex  3.100000e+001  7.679548e+001  6.152241e+000
      vertex  4.100000e+001  7.714125e+001  6.337061e+000
    endloop
  endfacet
  facet normal  0.000000e+000  4.713993e-001 -8.819199e-001
    outer loop
      vertex  4.100000e+001  7.714125e+001  6.337061e+000
      vertex  3.100000e+001  7.679548e+001  6.152241e+000
      vertex  3.100000e+001  7.714125e+001  6.337061e+000
    endloop
  endfacet
  facet normal  0.000000e+000  6.343967e-001 -7.730077e-001
    outer loop
      vertex  4.100000e+001  7.714125e+001  6.337061e+000
      vertex  3.100000e+001  7.714125e+001  6.337061e+000
      vertex  4.100000e+001  7.744432e+001  6.585786e+000
    endloop
  endfacet
  facet normal  0.000000e+000  6.343967e-001 -7.730077e-001
    outer loop
      vertex  4.100000e+001  7.744432e+001  6.585786e+000
      vertex  3.100000e+001  7.714125e+001  6.337061e+000
      vertex  3.100000e+001  7.744432e+001  6.585786e+000
    endloop
  endfacet
  facet normal  0.000000e+000  7.730105e-001 -6.343933e-001
    outer loop
      vertex  4.100000e+001  7.744432e+001  6.585786e+000
      vertex  3.100000e+001  7.744432e+001  6.585786e+000
      vertex  4.100000e+001  7.769305e+001  6.888860e+000
    endloop
  endfacet
  facet normal  0.000000e+000  7.730105e-001 -6.343933e-001
    outer loop
      vertex  4.100000e+001  7.769305e+001  6.888860e+000
      vertex  3.100000e+001  7.744432e+001  6.585786e+000
      vertex  3.100000e+001  7.769305e+001  6.888860e+000
    endloop
  endfacet
  facet normal  0.000000e+000  8.819187e-001 -4.714016e-001
    outer loop
      vertex  4.100000e+001  7.769305e+001  6.888860e+000
      vertex  3.100000e+001  7.769305e+001  6.888860e+000
      vertex  4.100000e+001  7.787787e+001  7.234633e+000
    endloop
  endfacet
  facet normal  0.000000e+000  8.819187e-001 -4.714016e-001
    outer loop
      vertex  4.100000e+001  7.787787e+001  7.234633e+000
      vertex  3.100000e+001  7.769305e+001  6.888860e+000
      vertex  3.100000e+001  7.787787e+001  7.234633e+000
    endloop
  endfacet
  facet normal  0.000000e+000  9.569376e-001 -2.902934e-001
    outer loop
      vertex  4.100000e+001  7.787787e+001  7.234633e+000
      vertex  3.100000e+001  7.787787e+001  7.234633e+000
      vertex  4.100000e+001  7.799168e+001  7.609819e+000
    endloop
  endfacet
  facet normal  0.000000e+000  9.569376e-001 -2.902934e-001
    outer loop
      vertex  4.100000e+001  7.799168e+001  7.609819e+000
      vertex  3.100000e+001  7.787787e+001  7.234633e+000
      vertex  3.100000e+001  7.799168e+001  7.609819e+000
    endloop
  endfacet
  facet normal  0.000000e+000  9.951848e-001 -9.801670e-002
    outer loop
      vertex  4.100000e+001  7.799168e+001  7.609819e+000
      vertex  3.100000e+001  7.799168e+001  7.609819e+000
      vertex  4.100000e+001  7.803011e+001  8.000000e+000
    endloop
  endfacet
  facet normal  0.000000e+000  9.951848e-001 -9.801670e-002
    outer loop
      vertex  4.100000e+001  7.803011e+001  8.000000e+000
      vertex  3.100000e+001  7.799168e+001  7.609819e+000
      vertex  3.100000e+001  7.803011e+001  8.000000e+000
    endloop
  endfacet
  facet normal  0.000000e+000  0.000000e+000  1.000000e+000
    outer loop
      vertex  4.100000e+001  6.773011e+001  2.000000e+001
      vertex  4.100000e+001  7.603011e+001  2.000000e+001
      vertex  3.100000e+001  6.773011e+001  2.000000e+001
    endloop
  endfacet
  facet normal  0.000000e+000  0.000000e+000  1.000000e+000
    outer loop
      vertex  3.100000e+001  6.773011e+001  2.000000e+001
      vertex  4.100000e+001  7.603011e+001  2.000000e+001
      vertex  3.100000e+001  7.603011e+001  2.000000e+001
    endloop
  endfacet
  facet normal  -0.000000e+000  9.951848e-001  9.801670e-002
    outer loop
      vertex  4.100000e+001  7.803011e+001  1.800000e+001
      vertex  3.100000e+001  7.803011e+001  1.800000e+001
      vertex  4.100000e+001  7.799168e+001  1.839018e+001
    endloop
  endfacet
  facet normal  0.000000e+000  9.951848e-001  9.801670e-002
    outer loop
      vertex  4.100000e+001  7.799168e+001  1.839018e+001
      vertex  3.100000e+001  7.803011e+001  1.800000e+001
      vertex  3.100000e+001  7.799168e+001  1.839018e+001
    endloop
  endfacet
  facet normal  -0.000000e+000  9.569377e-001  2.902931e-001
    outer loop
      vertex  4.100000e+001  7.799168e+001  1.839018e+001
      vertex  3.100000e+001  7.799168e+001  1.839018e+001
      vertex  4.100000e+001  7.787787e+001  1.876537e+001
    endloop
  endfacet
  facet normal  0.000000e+000  9.569377e-001  2.902931e-001
    outer loop
      vertex  4.100000e+001  7.787787e+001  1.876537e+001
      vertex  3.100000e+001  7.799168e+001  1.839018e+001
      vertex  3.100000e+001  7.787787e+001  1.876537e+001
    endloop
  endfacet
  facet normal  -0.000000e+000  8.819189e-001  4.714011e-001
    outer loop
      vertex  4.100000e+001  7.787787e+001  1.876537e+001
      vertex  3.100000e+001  7.787787e+001  1.876537e+001
      vertex  4.100000e+001  7.769305e+001  1.911114e+001
    endloop
  endfacet
  facet normal  0.000000e+000  8.819189e-001  4.714011e-001
    outer loop
      vertex  4.100000e+001  7.769305e+001  1.911114e+001
      vertex  3.100000e+001  7.787787e+001  1.876537e+001
      vertex  3.100000e+001  7.769305e+001  1.911114e+001
    endloop
  endfacet
  facet normal  -0.000000e+000  7.730090e-001  6.343951e-001
    outer loop
      vertex  4.100000e+001  7.769305e+001  1.911114e+001
      vertex  3.100000e+001  7.769305e+001  1.911114e+001
      vertex  4.100000e+001  7.744432e+001  1.941421e+001
    endloop
  endfacet
  facet normal  0.000000e+000  7.730090e-001  6.343951e-001
    outer loop
      vertex  4.100000e+001  7.744432e+001  1.941421e+001
      vertex  3.100000e+001  7.769305e+001  1.911114e+001
      vertex  3.100000e+001  7.744432e+001  1.941421e+001
    endloop
  endfacet
  facet normal  -0.000000e+000  6.343974e-001  7.730070e-001
    outer loop
      vertex  4.100000e+001  7.744432e+001  1.941421e+001
      vertex  3.100000e+001  7.744432e+001  1.941421e+001
      vertex  4.100000e+001  7.714125e+001  1.966294e+001
    endloop
  endfacet
  facet normal  0.000000e+000  6.343974e-001  7.730070e-001
    outer loop
      vertex  4.100000e+001  7.714125e+001  1.966294e+001
      vertex  3.100000e+001  7.744432e+001  1.941421e+001
      vertex  3.100000e+001  7.714125e+001  1.966294e+001
    endloop
  endfacet
  facet normal  -0.000000e+000  4.713993e-001  8.819199e-001
    outer loop
      vertex  4.100000e+001  7.714125e+001  1.966294e+001
      vertex  3.100000e+001  7.714125e+001  1.966294e+001
      vertex  4.100000e+001  7.679548e+001  1.984776e+001
    endloop
  endfacet
  facet normal  0.000000e+000  4.713993e-001  8.819199e-001
    outer loop
      vertex  4.100000e+001  7.679548e+001  1.984776e+001
      vertex  3.100000e+001  7.714125e+001  1.966294e+001
      vertex  3.100000e+001  7.679548e+001  1.984776e+001
    endloop
  endfacet
  facet normal  -0.000000e+000  2.902815e-001  9.569413e-001
    outer loop
      vertex  4.100000e+001  7.679548e+001  1.984776e+001
      vertex  3.100000e+001  7.679548e+001  1.984776e+001
      vertex  4.100000e+001  7.642029e+001  1.996157e+001
    endloop
  endfacet
  facet normal  0.000000e+000  2.902815e-001  9.569413e-001
    outer loop
      vertex  4.100000e+001  7.642029e+001  1.996157e+001
      vertex  3.100000e+001  7.679548e+001  1.984776e+001
      vertex  3.100000e+001  7.642029e+001  1.996157e+001
    endloop
  endfacet
  facet normal  -0.000000e+000  9.801812e-002  9.951846e-001
    outer loop
      vertex  4.100000e+001  7.642029e+001  1.996157e+001
      vertex  3.100000e+001  7.642029e+001  1.996157e+001
      vertex  4.100000e+001  7.603011e+001  2.000000e+001
    endloop
  endfacet
  facet normal  0.000000e+000  9.801812e-002  9.951846e-001
    outer loop
      vertex  4.100000e+001  7.603011e+001  2.000000e+001
      vertex  3.100000e+001  7.642029e+001  1.996157e+001
      vertex  3.100000e+001  7.603011e+001  2.000000e+001
    endloop
  endfacet
  facet normal  0.000000e+000 -9.801622e-002  9.951848e-001
    outer loop
      vertex  4.100000e+001  6.773011e+001  2.000000e+001
      vertex  3.100000e+001  6.773011e+001  2.000000e+001
      vertex  4.100000e+001  6.733993e+001  1.996157e+001
    endloop
  endfacet
  facet normal  0.000000e+000 -9.801622e-002  9.951848e-001
    outer loop
      vertex  4.100000e+001  6.733993e+001  1.996157e+001
      vertex  3.100000e+001  6.773011e+001  2.000000e+001
      vertex  3.100000e+001  6.733993e+001  1.996157e+001
    endloop
  endfacet
  facet normal  0.000000e+000 -2.902869e-001  9.569396e-001
    outer loop
      vertex  4.100000e+001  6.733993e+001  1.996157e+001
      vertex  3.100000e+001  6.733993e+001  1.996157e+001
      vertex  4.100000e+001  6.696474e+001  1.984776e+001
    endloop
  endfacet
  facet normal  0.000000e+000 -2.902869e-001  9.569396e-001
    outer loop
      vertex  4.100000e+001  6.696474e+001  1.984776e+001
      vertex  3.100000e+001  6.733993e+001  1.996157e+001
      vertex  3.100000e+001  6.696474e+001  1.984776e+001
    endloop
  endfacet
  facet normal  0.000000e+000 -4.713993e-001  8.819199e-001
    outer loop
      vertex  4.100000e+001  6.696474e+001  1.984776e+001
      vertex  3.100000e+001  6.696474e+001  1.984776e+001
      vertex  4.100000e+001  6.661897e+001  1.966294e+001
    endloop
  endfacet
  facet normal  0.000000e+000 -4.713993e-001  8.819199e-001
    outer loop
      vertex  4.100000e+001  6.661897e+001  1.966294e+001
      vertex  3.100000e+001  6.696474e+001  1.984776e+001
      vertex  3.100000e+001  6.661897e+001  1.966294e+001
    endloop
  endfacet
  facet normal  0.000000e+000 -6.343879e-001  7.730150e-001
    outer loop
      vertex  4.100000e+001  6.661897e+001  1.966294e+001
      vertex  3.100000e+001  6.661897e+001  1.966294e+001
      vertex  4.100000e+001  6.631590e+001  1.941421e+001
    endloop
  endfacet
  facet normal  0.000000e+000 -6.343879e-001  7.730150e-001
    outer loop
      vertex  4.100000e+001  6.631590e+001  1.941421e+001
      vertex  3.100000e+001  6.661897e+001  1.966294e+001
      vertex  3.100000e+001  6.631590e+001  1.941421e+001
    endloop
  endfacet
  facet normal  0.000000e+000 -7.730090e-001  6.343951e-001
    outer loop
      vertex  4.100000e+001  6.631590e+001  1.941421e+001
      vertex  3.100000e+001  6.631590e+001  1.941421e+001
      vertex  4.100000e+001  6.606717e+001  1.911114e+001
    endloop
  endfacet
  facet normal  0.000000e+000 -7.730090e-001  6.343951e-001
    outer loop
      vertex  4.100000e+001  6.606717e+001  1.911114e+001
      vertex  3.100000e+001  6.631590e+001  1.941421e+001
      vertex  3.100000e+001  6.606717e+001  1.911114e+001
    endloop
  endfacet
  facet normal  0.000000e+000 -8.819271e-001  4.713860e-001
    outer loop
      vertex  4.100000e+001  6.606717e+001  1.911114e+001
      vertex  3.100000e+001  6.606717e+001  1.911114e+001
      vertex  4.100000e+001  6.588235e+001  1.876537e+001
    endloop
  endfacet
  facet normal  0.000000e+000 -8.819271e-001  4.713860e-001
    outer loop
      vertex  4.100000e+001  6.588235e+001  1.876537e+001
      vertex  3.100000e+001  6.606717e+001  1.911114e+001
      vertex  3.100000e+001  6.588235e+001  1.876537e+001
    endloop
  endfacet
  facet normal  0.000000e+000 -9.569377e-001  2.902931e-001
    outer loop
      vertex  4.100000e+001  6.588235e+001  1.876537e+001
      vertex  3.100000e+001  6.588235e+001  1.876537e+001
      vertex  4.100000e+001  6.576854e+001  1.839018e+001
    endloop
  endfacet
  facet normal  0.000000e+000 -9.569377e-001  2.902931e-001
    outer loop
      vertex  4.100000e+001  6.576854e+001  1.839018e+001
      vertex  3.100000e+001  6.588235e+001  1.876537e+001
      vertex  3.100000e+001  6.576854e+001  1.839018e+001
    endloop
  endfacet
  facet normal  0.000000e+000 -9.951848e-001  9.801670e-002
    outer loop
      vertex  4.100000e+001  6.576854e+001  1.839018e+001
      vertex  3.100000e+001  6.576854e+001  1.839018e+001
      vertex  4.100000e+001  6.573011e+001  1.800000e+001
    endloop
  endfacet
  facet normal  0.000000e+000 -9.951848e-001  9.801670e-002
    outer loop
      vertex  4.100000e+001  6.573011e+001  1.800000e+001
      vertex  3.100000e+001  6.576854e+001  1.839018e+001
      vertex  3.100000e+001  6.573011e+001  1.800000e+001
    endloop
  endfacet
  facet normal  0.000000e+000  0.000000e+000  1.000000e+000
    outer loop
      vertex -3.100000e+001  6.573011e+001  1.600000e+001
      vertex  3.100000e+001  6.573011e+001  1.600000e+001
      vertex -3.100000e+001  6.973011e+001  1.600000e+001
    endloop
  endfacet
  facet normal  -0.000000e+000  0.000000e+000  1.000000e+000
    outer loop
      vertex -3.100000e+001  6.973011e+001  1.600000e+001
      vertex  3.100000e+001  6.573011e+001  1.600000e+001
      vertex  3.100000e+001  6.973011e+001  1.600000e+001
    endloop
  endfacet
  facet normal  0.000000e+000  0.000000e+000  1.000000e+000
    outer loop
      vertex -4.100000e+001  6.973011e+001  1.600000e+001
      vertex -7.700000e+001  6.573011e+001  1.600000e+001
      vertex -4.100000e+001  6.573011e+001  1.600000e+001
    endloop
  endfacet
  facet normal  0.000000e+000  0.000000e+000  9.999999e-001
    outer loop
      vertex -8.100000e+001  6.973011e+001  1.600000e+001
      vertex -8.100000e+001 -1.226989e+001  1.600000e+001
      vertex -7.700000e+001 -8.269890e+000  1.600000e+001
    endloop
  endfacet
  facet normal  0.000000e+000  -0.000000e+000  1.000000e+000
    outer loop
      vertex -8.100000e+001  6.973011e+001  1.600000e+001
      vertex -7.700000e+001 -8.269890e+000  1.600000e+001
      vertex -7.700000e+001  2.173011e+001  1.600000e+001
    endloop
  endfacet
  facet normal  0.000000e+000  -0.000000e+000  1.000000e+000
    outer loop
      vertex -8.100000e+001  6.973011e+001  1.600000e+001
      vertex -7.700000e+001  2.173011e+001  1.600000e+001
      vertex -7.700000e+001  2.573011e+001  1.600000e+001
    endloop
  endfacet
  facet normal  0.000000e+000  -0.000000e+000  1.000000e+000
    outer loop
      vertex -8.100000e+001  6.973011e+001  1.600000e+001
      vertex -7.700000e+001  2.573011e+001  1.600000e+001
      vertex -7.700000e+001  6.573011e+001  1.600000e+001
    endloop
  endfacet
  facet normal  0.000000e+000  -0.000000e+000  1.000000e+000
    outer loop
      vertex -8.100000e+001  6.973011e+001  1.600000e+001
      vertex -7.700000e+001  6.573011e+001  1.600000e+001
      vertex -4.100000e+001  6.973011e+001  1.600000e+001
    endloop
  endfacet
  facet normal  -0.000000e+000  0.000000e+000  1.000000e+000
    outer loop
      vertex  8.100000e+001  6.973011e+001  1.600000e+001
      vertex  4.100000e+001  6.973011e+001  1.600000e+001
      vertex  4.100000e+001  6.573011e+001  1.600000e+001
    endloop
  endfacet
  facet normal  0.000000e+000  0.000000e+000  1.000000e+000
    outer loop
      vertex  8.100000e+001  6.973011e+001  1.600000e+001
      vertex  4.100000e+001  6.573011e+001  1.600000e+001
      vertex  7.700000e+001  6.573011e+001  1.600000e+001
    endloop
  endfacet
  facet normal  -0.000000e+000  0.000000e+000  1.000000e+000
    outer loop
      vertex  8.100000e+001  6.973011e+001  1.600000e+001
      vertex  7.700000e+001  6.573011e+001  1.600000e+001
      vertex  7.700000e+001  2.573011e+001  1.600000e+001
    endloop
  endfacet
  facet normal  -0.000000e+000  0.000000e+000  1.000000e+000
    outer loop
      vertex  8.100000e+001  6.973011e+001  1.600000e+001
      vertex  7.700000e+001  2.573011e+001  1.600000e+001
      vertex  7.700000e+001  2.173011e+001  1.600000e+001
    endloop
  endfacet
  facet normal  -0.000000e+000  0.000000e+000  1.000000e+000
    outer loop
      vertex  8.100000e+001  6.973011e+001  1.600000e+001
      vertex  7.700000e+001  2.173011e+001  1.600000e+001
      vertex  7.700000e+001 -8.269890e+000  1.600000e+001
    endloop
  endfacet
  facet normal  -0.000000e+000  0.000000e+000  9.999999e-001
    outer loop
      vertex  8.100000e+001  6.973011e+001  1.600000e+001
      vertex  7.700000e+001 -8.269890e+000  1.600000e+001
      vertex  8.100000e+001 -1.226989e+001  1.600000e+001
    endloop
  endfacet
  facet normal  0.000000e+000  0.000000e+000  1.000000e+000
    outer loop
      vertex  7.700000e+001  2.173011e+001  1.600000e+001
      vertex  7.700000e+001  2.573011e+001  1.600000e+001
      vertex -7.700000e+001  2.173011e+001  1.600000e+001
    endloop
  endfacet
  facet normal  0.000000e+000  0.000000e+000  1.000000e+000
    outer loop
      vertex -7.700000e+001  2.173011e+001  1.600000e+001
      vertex  7.700000e+001  2.573011e+001  1.600000e+001
      vertex -7.700000e+001  2.573011e+001  1.600000e+001
    endloop
  endfacet
  facet normal  -0.000000e+000  0.000000e+000  1.000000e+000
    outer loop
      vertex  7.700000e+001 -8.269890e+000  1.600000e+001
      vertex -7.700000e+001 -8.269890e+000  1.600000e+001
      vertex  8.100000e+001 -1.226989e+001  1.600000e+001
    endloop
  endfacet
  facet normal  0.000000e+000  0.000000e+000  1.000000e+000
    outer loop
      vertex  8.100000e+001 -1.226989e+001  1.600000e+001
      vertex -7.700000e+001 -8.269890e+000  1.600000e+001
      vertex -8.100000e+001 -1.226989e+001  1.600000e+001
    endloop
  endfacet
  facet normal  0.000000e+000  0.000000e+000 -1.000000e+000
    outer loop
      vertex -4.100000e+001  6.973011e+001  1.600000e+001
      vertex -4.100000e+001  7.403011e+001  1.600000e+001
      vertex -3.100000e+001  6.973011e+001  1.600000e+001
    endloop
  endfacet
  facet normal  0.000000e+000  0.000000e+000 -1.000000e+000
    outer loop
      vertex -3.100000e+001  6.973011e+001  1.600000e+001
      vertex -4.100000e+001  7.403011e+001  1.600000e+001
      vertex -3.100000e+001  7.403011e+001  1.600000e+001
    endloop
  endfacet
  facet normal  -0.000000e+000  1.000000e+000  0.000000e+000
    outer loop
      vertex -8.100000e+001  6.973011e+001  0.000000e+000
      vertex -8.100000e+001  6.973011e+001  1.600000e+001
      vertex -4.100000e+001  6.973011e+001  1.600000e+001
    endloop
  endfacet
  facet normal  -0.000000e+000  1.000000e+000  0.000000e+000
    outer loop
      vertex -8.100000e+001  6.973011e+001  0.000000e+000
      vertex -4.100000e+001  6.973011e+001  1.600000e+001
      vertex -3.100000e+001  6.973011e+001  1.600000e+001
    endloop
  endfacet
  facet normal  -0.000000e+000  1.000000e+000  0.000000e+000
    outer loop
      vertex -8.100000e+001  6.973011e+001  0.000000e+000
      vertex -3.100000e+001  6.973011e+001  1.600000e+001
      vertex  3.100000e+001  6.973011e+001  1.600000e+001
    endloop
  endfacet
  facet normal  -0.000000e+000  1.000000e+000  0.000000e+000
    outer loop
      vertex -8.100000e+001  6.973011e+001  0.000000e+000
      vertex  3.100000e+001  6.973011e+001  1.600000e+001
      vertex  4.100000e+001  6.973011e+001  1.600000e+001
    endloop
  endfacet
  facet normal  -0.000000e+000  1.000000e+000  0.000000e+000
    outer loop
      vertex -8.100000e+001  6.973011e+001  0.000000e+000
      vertex  4.100000e+001  6.973011e+001  1.600000e+001
      vertex  8.100000e+001  6.973011e+001  1.600000e+001
    endloop
  endfacet
  facet normal  0.000000e+000  1.000000e+000  0.000000e+000
    outer loop
      vertex -8.100000e+001  6.973011e+001  0.000000e+000
      vertex  8.100000e+001  6.973011e+001  1.600000e+001
      vertex  8.100000e+001  6.973011e+001  0.000000e+000
    endloop
  endfacet
  facet normal  0.000000e+000  0.000000e+000 -1.000000e+000
    outer loop
      vertex  3.100000e+001  6.973011e+001  1.600000e+001
      vertex  3.100000e+001  7.403011e+001  1.600000e+001
      vertex  4.100000e+001  6.973011e+001  1.600000e+001
    endloop
  endfacet
  facet normal  0.000000e+000  0.000000e+000 -1.000000e+000
    outer loop
      vertex  4.100000e+001  6.973011e+001  1.600000e+001
      vertex  3.100000e+001  7.403011e+001  1.600000e+001
      vertex  4.100000e+001  7.403011e+001  1.600000e+001
    endloop
  endfacet
  facet normal -1.000000e+000  0.000000e+000  0.000000e+000
    outer loop
      vertex  7.700000e+001  2.573011e+001  4.000000e+000
      vertex  7.700000e+001  2.573011e+001  1.600000e+001
      vertex  7.700000e+001  6.573011e+001  4.000000e+000
    endloop
  endfacet
  facet normal -1.000000e+000  0.000000e+000  0.000000e+000
    outer loop
      vertex  7.700000e+001  6.573011e+001  4.000000e+000
      vertex  7.700000e+001  2.573011e+001  1.600000e+001
      vertex  7.700000e+001  6.573011e+001  1.600000e+001
    endloop
  endfacet
  facet normal  0.000000e+000  1.000000e+000  0.000000e+000
    outer loop
      vertex  7.700000e+001  2.573011e+001  4.000000e+000
      vertex -7.700000e+001  2.573011e+001  4.000000e+000
      vertex  7.700000e+001  2.573011e+001  1.600000e+001
    endloop
  endfacet
  facet normal  0.000000e+000  1.000000e+000  0.000000e+000
    outer loop
      vertex  7.700000e+001  2.573011e+001  1.600000e+001
      vertex -7.700000e+001  2.573011e+001  4.000000e+000
      vertex -7.700000e+001  2.573011e+001  1.600000e+001
    endloop
  endfacet
  facet normal  1.000000e+000  0.000000e+000  0.000000e+000
    outer loop
      vertex -7.700000e+001  6.573011e+001  4.000000e+000
      vertex -7.700000e+001  6.573011e+001  1.600000e+001
      vertex -7.700000e+001  2.573011e+001  4.000000e+000
    endloop
  endfacet
  facet normal  1.000000e+000  0.000000e+000  0.000000e+000
    outer loop
      vertex -7.700000e+001  2.573011e+001  4.000000e+000
      vertex -7.700000e+001  6.573011e+001  1.600000e+001
      vertex -7.700000e+001  2.573011e+001  1.600000e+001
    endloop
  endfacet
  facet normal  0.000000e+000 -1.000000e+000  0.000000e+000
    outer loop
      vertex -7.700000e+001  2.173011e+001  4.000000e+000
      vertex  7.700000e+001  2.173011e+001  4.000000e+000
      vertex -7.700000e+001  2.173011e+001  1.600000e+001
    endloop
  endfacet
  facet normal  0.000000e+000 -1.000000e+000  0.000000e+000
    outer loop
      vertex -7.700000e+001  2.173011e+001  1.600000e+001
      vertex  7.700000e+001  2.173011e+001  4.000000e+000
      vertex  7.700000e+001  2.173011e+001  1.600000e+001
    endloop
  endfacet
  facet normal -1.000000e+000  0.000000e+000  0.000000e+000
    outer loop
      vertex  7.700000e+001 -8.269890e+000  4.000000e+000
      vertex  7.700000e+001 -8.269890e+000  1.600000e+001
      vertex  7.700000e+001  2.173011e+001  4.000000e+000
    endloop
  endfacet
  facet normal -1.000000e+000  0.000000e+000  0.000000e+000
    outer loop
      vertex  7.700000e+001  2.173011e+001  4.000000e+000
      vertex  7.700000e+001 -8.269890e+000  1.600000e+001
      vertex  7.700000e+001  2.173011e+001  1.600000e+001
    endloop
  endfacet
  facet normal  0.000000e+000  1.000000e+000  0.000000e+000
    outer loop
      vertex  7.700000e+001 -8.269890e+000  4.000000e+000
      vertex -7.700000e+001 -8.269890e+000  4.000000e+000
      vertex  7.700000e+001 -8.269890e+000  1.600000e+001
    endloop
  endfacet
  facet normal  0.000000e+000  1.000000e+000  0.000000e+000
    outer loop
      vertex  7.700000e+001 -8.269890e+000  1.600000e+001
      vertex -7.700000e+001 -8.269890e+000  4.000000e+000
      vertex -7.700000e+001 -8.269890e+000  1.600000e+001
    endloop
  endfacet
  facet normal  1.000000e+000  0.000000e+000  0.000000e+000
    outer loop
      vertex -7.700000e+001  2.173011e+001  4.000000e+000
      vertex -7.700000e+001  2.173011e+001  1.600000e+001
      vertex -7.700000e+001 -8.269890e+000  4.000000e+000
    endloop
  endfacet
  facet normal  1.000000e+000  0.000000e+000  0.000000e+000
    outer loop
      vertex -7.700000e+001 -8.269890e+000  4.000000e+000
      vertex -7.700000e+001  2.173011e+001  1.600000e+001
      vertex -7.700000e+001 -8.269890e+000  1.600000e+001
    endloop
  endfacet
  facet normal  0.000000e+000  0.000000e+000  1.000000e+000
    outer loop
      vertex -7.700000e+001  2.573011e+001  4.000000e+000
      vertex  7.700000e+001  2.573011e+001  4.000000e+000
      vertex -7.700000e+001  6.573011e+001  4.000000e+000
    endloop
  endfacet
  facet normal  -0.000000e+000  0.000000e+000  1.000000e+000
    outer loop
      vertex -7.700000e+001  6.573011e+001  4.000000e+000
      vertex  7.700000e+001  2.573011e+001  4.000000e+000
      vertex  7.700000e+001  6.573011e+001  4.000000e+000
    endloop
  endfacet
  facet normal  0.000000e+000  0.000000e+000  1.000000e+000
    outer loop
      vertex -7.700000e+001 -8.269890e+000  4.000000e+000
      vertex  7.700000e+001 -8.269890e+000  4.000000e+000
      vertex -7.700000e+001  2.173011e+001  4.000000e+000
    endloop
  endfacet
  facet normal  -0.000000e+000  0.000000e+000  1.000000e+000
    outer loop
      vertex -7.700000e+001  2.173011e+001  4.000000e+000
      vertex  7.700000e+001 -8.269890e+000  4.000000e+000
      vertex  7.700000e+001  2.173011e+001  4.000000e+000
    endloop
  endfacet
  facet normal  0.000000e+000  0.000000e+000 -9.999999e-001
    outer loop
      vertex -8.100000e+001 -1.226989e+001  0.000000e+000
      vertex -8.100000e+001  6.973011e+001  0.000000e+000
      vertex  8.100000e+001 -1.226989e+001  0.000000e+000
    endloop
  endfacet
  facet normal  0.000000e+000  0.000000e+000 -9.999999e-001
    outer loop
      vertex  8.100000e+001 -1.226989e+001  0.000000e+000
      vertex -8.100000e+001  6.973011e+001  0.000000e+000
      vertex  8.100000e+001  6.973011e+001  0.000000e+000
    endloop
  endfacet
  facet normal  9.999999e-001  0.000000e+000  0.000000e+000
    outer loop
      vertex  8.100000e+001 -1.226989e+001  1.600000e+001
      vertex  8.100000e+001 -1.226989e+001  0.000000e+000
      vertex  8.100000e+001  6.973011e+001  1.600000e+001
    endloop
  endfacet
  facet normal  9.999999e-001  0.000000e+000  0.000000e+000
    outer loop
      vertex  8.100000e+001  6.973011e+001  1.600000e+001
      vertex  8.100000e+001 -1.226989e+001  0.000000e+000
      vertex  8.100000e+001  6.973011e+001  0.000000e+000
    endloop
  endfacet
  facet normal  0.000000e+000 -1.000000e+000  0.000000e+000
    outer loop
      vertex  8.100000e+001 -1.226989e+001  1.600000e+001
      vertex -8.100000e+001 -1.226989e+001  1.600000e+001
      vertex  8.100000e+001 -1.226989e+001  0.000000e+000
    endloop
  endfacet
  facet normal  0.000000e+000 -1.000000e+000  0.000000e+000
    outer loop
      vertex  8.100000e+001 -1.226989e+001  0.000000e+000
      vertex -8.100000e+001 -1.226989e+001  1.600000e+001
      vertex -8.100000e+001 -1.226989e+001  0.000000e+000
    endloop
  endfacet
  facet normal -9.999999e-001  0.000000e+000  0.000000e+000
    outer loop
      vertex -8.100000e+001  6.973011e+001  1.600000e+001
      vertex -8.100000e+001  6.973011e+001  0.000000e+000
      vertex -8.100000e+001 -1.226989e+001  1.600000e+001
    endloop
  endfacet
  facet normal -9.999999e-001  0.000000e+000  0.000000e+000
    outer loop
      vertex -8.100000e+001 -1.226989e+001  1.600000e+001
      vertex -8.100000e+001  6.973011e+001  0.000000e+000
      vertex -8.100000e+001 -1.226989e+001  0.000000e+000
    endloop
  endfacet
endsolid CATIA STL
