solid CATIA STL
  facet normal  0.000000e+000  0.000000e+000 -1.000000e+000
    outer loop
      vertex  1.600000e+003  0.000000e+000  0.000000e+000
      vertex  0.000000e+000  0.000000e+000  0.000000e+000
      vertex  1.600000e+003  2.000000e+003  0.000000e+000
    endloop
  endfacet
  facet normal  -0.000000e+000  0.000000e+000 -1.000000e+000
    outer loop
      vertex  1.600000e+003  2.000000e+003  0.000000e+000
      vertex  0.000000e+000  0.000000e+000  0.000000e+000
      vertex  0.000000e+000  2.000000e+003  0.000000e+000
    endloop
  endfacet
  facet normal  0.000000e+000  0.000000e+000  1.000000e+000
    outer loop
      vertex  1.600000e+003  0.000000e+000  4.000000e+002
      vertex  1.600000e+003  2.000000e+003  4.000000e+002
      vertex  0.000000e+000  0.000000e+000  4.000000e+002
    endloop
  endfacet
  facet normal  0.000000e+000  0.000000e+000  1.000000e+000
    outer loop
      vertex  0.000000e+000  0.000000e+000  4.000000e+002
      vertex  1.600000e+003  2.000000e+003  4.000000e+002
      vertex  0.000000e+000  2.000000e+003  4.000000e+002
    endloop
  endfacet
  facet normal  0.000000e+000  1.000000e+000  0.000000e+000
    outer loop
      vertex  0.000000e+000  2.000000e+003  4.000000e+002
      vertex  1.600000e+003  2.000000e+003  4.000000e+002
      vertex  0.000000e+000  2.000000e+003  0.000000e+000
    endloop
  endfacet
  facet normal  0.000000e+000  1.000000e+000  0.000000e+000
    outer loop
      vertex  0.000000e+000  2.000000e+003  0.000000e+000
      vertex  1.600000e+003  2.000000e+003  4.000000e+002
      vertex  1.600000e+003  2.000000e+003  0.000000e+000
    endloop
  endfacet
  facet normal  1.000000e+000  0.000000e+000  0.000000e+000
    outer loop
      vertex  1.600000e+003  0.000000e+000  0.000000e+000
      vertex  1.600000e+003  2.000000e+003  0.000000e+000
      vertex  1.600000e+003  0.000000e+000  4.000000e+002
    endloop
  endfacet
  facet normal  1.000000e+000  -0.000000e+000  0.000000e+000
    outer loop
      vertex  1.600000e+003  0.000000e+000  4.000000e+002
      vertex  1.600000e+003  2.000000e+003  0.000000e+000
      vertex  1.600000e+003  2.000000e+003  4.000000e+002
    endloop
  endfacet
  facet normal  0.000000e+000 -1.000000e+000  0.000000e+000
    outer loop
      vertex  0.000000e+000  0.000000e+000  0.000000e+000
      vertex  1.600000e+003  0.000000e+000  0.000000e+000
      vertex  0.000000e+000  0.000000e+000  4.000000e+002
    endloop
  endfacet
  facet normal  0.000000e+000 -1.000000e+000  0.000000e+000
    outer loop
      vertex  0.000000e+000  0.000000e+000  4.000000e+002
      vertex  1.600000e+003  0.000000e+000  0.000000e+000
      vertex  1.600000e+003  0.000000e+000  4.000000e+002
    endloop
  endfacet
  facet normal -1.000000e+000  -0.000000e+000  0.000000e+000
    outer loop
      vertex  0.000000e+000  0.000000e+000  4.000000e+002
      vertex  0.000000e+000  2.000000e+003  4.000000e+002
      vertex  0.000000e+000  0.000000e+000  0.000000e+000
    endloop
  endfacet
  facet normal -1.000000e+000  0.000000e+000  0.000000e+000
    outer loop
      vertex  0.000000e+000  0.000000e+000  0.000000e+000
      vertex  0.000000e+000  2.000000e+003  4.000000e+002
      vertex  0.000000e+000  2.000000e+003  0.000000e+000
    endloop
  endfacet
endsolid CATIA STL
