solid CATIA STL
  facet normal  0.000000e+000  1.000000e+000  -0.000000e+000
    outer loop
      vertex  6.544285e+002  1.050000e+002 -1.207500e+003
      vertex  6.544285e+002  1.050000e+002 -1.889500e+003
      vertex  5.571533e+000  1.050000e+002 -1.207500e+003
    endloop
  endfacet
  facet normal  0.000000e+000  1.000000e+000  0.000000e+000
    outer loop
      vertex  5.571533e+000  1.050000e+002 -1.207500e+003
      vertex  6.544285e+002  1.050000e+002 -1.889500e+003
      vertex  5.571533e+000  1.050000e+002 -1.889500e+003
    endloop
  endfacet
  facet normal  0.000000e+000  7.071068e-001 -7.071068e-001
    outer loop
      vertex  6.544285e+002  1.200000e+002 -1.207500e+003
      vertex  5.571533e+000  1.200000e+002 -1.207500e+003
      vertex  6.544285e+002  1.465000e+002 -1.181000e+003
    endloop
  endfacet
  facet normal  0.000000e+000  7.071068e-001 -7.071068e-001
    outer loop
      vertex  6.544285e+002  1.465000e+002 -1.181000e+003
      vertex  5.571533e+000  1.200000e+002 -1.207500e+003
      vertex  5.571533e+000  1.465000e+002 -1.181000e+003
    endloop
  endfacet
  facet normal  0.000000e+000  0.000000e+000 -1.000000e+000
    outer loop
      vertex  6.544285e+002  1.050000e+002 -1.207500e+003
      vertex  5.571533e+000  1.050000e+002 -1.207500e+003
      vertex  6.544285e+002  1.200000e+002 -1.207500e+003
    endloop
  endfacet
  facet normal  -0.000000e+000  0.000000e+000 -1.000000e+000
    outer loop
      vertex  6.544285e+002  1.200000e+002 -1.207500e+003
      vertex  5.571533e+000  1.050000e+002 -1.207500e+003
      vertex  5.571533e+000  1.200000e+002 -1.207500e+003
    endloop
  endfacet
  facet normal  -0.000000e+000  0.000000e+000  1.000000e+000
    outer loop
      vertex  6.544285e+002  1.200000e+002 -1.889500e+003
      vertex  5.571533e+000  1.200000e+002 -1.889500e+003
      vertex  6.544285e+002  1.050000e+002 -1.889500e+003
    endloop
  endfacet
  facet normal  0.000000e+000  0.000000e+000  1.000000e+000
    outer loop
      vertex  6.544285e+002  1.050000e+002 -1.889500e+003
      vertex  5.571533e+000  1.200000e+002 -1.889500e+003
      vertex  5.571533e+000  1.050000e+002 -1.889500e+003
    endloop
  endfacet
  facet normal  -0.000000e+000  7.071068e-001  7.071068e-001
    outer loop
      vertex  6.544285e+002  1.465000e+002 -1.916000e+003
      vertex  5.571533e+000  1.465000e+002 -1.916000e+003
      vertex  6.544285e+002  1.200000e+002 -1.889500e+003
    endloop
  endfacet
  facet normal  0.000000e+000  7.071068e-001  7.071068e-001
    outer loop
      vertex  6.544285e+002  1.200000e+002 -1.889500e+003
      vertex  5.571533e+000  1.465000e+002 -1.916000e+003
      vertex  5.571533e+000  1.200000e+002 -1.889500e+003
    endloop
  endfacet
  facet normal  1.000000e+000  0.000000e+000  -0.000000e+000
    outer loop
      vertex  6.544285e+002  1.150000e+002 -2.500000e+001
      vertex  6.544285e+002  1.250000e+002 -1.500000e+001
      vertex  6.544285e+002  1.250000e+002  4.054073e-010
    endloop
  endfacet
  facet normal  1.000000e+000  0.000000e+000  0.000000e+000
    outer loop
      vertex  6.544285e+002  6.000000e+001  4.054073e-010
      vertex  6.544285e+002  6.000000e+001 -1.920000e+003
      vertex  6.544285e+002  1.050000e+002 -1.889500e+003
    endloop
  endfacet
  facet normal  1.000000e+000  0.000000e+000  -0.000000e+000
    outer loop
      vertex  6.544285e+002  6.000000e+001  4.054073e-010
      vertex  6.544285e+002  1.050000e+002 -1.889500e+003
      vertex  6.544285e+002  1.050000e+002 -1.207500e+003
    endloop
  endfacet
  facet normal  1.000000e+000  0.000000e+000  -0.000000e+000
    outer loop
      vertex  6.544285e+002  6.000000e+001  4.054073e-010
      vertex  6.544285e+002  1.050000e+002 -1.207500e+003
      vertex  6.544285e+002  1.050000e+002 -1.090500e+003
    endloop
  endfacet
  facet normal  1.000000e+000  0.000000e+000  -0.000000e+000
    outer loop
      vertex  6.544285e+002  6.000000e+001  4.054073e-010
      vertex  6.544285e+002  1.050000e+002 -1.090500e+003
      vertex  6.544285e+002  1.050000e+002 -4.085000e+002
    endloop
  endfacet
  facet normal  1.000000e+000  0.000000e+000  -0.000000e+000
    outer loop
      vertex  6.544285e+002  6.000000e+001  4.054073e-010
      vertex  6.544285e+002  1.050000e+002 -4.085000e+002
      vertex  6.544285e+002  1.050000e+002 -3.780000e+002
    endloop
  endfacet
  facet normal  1.000000e+000  0.000000e+000  -0.000000e+000
    outer loop
      vertex  6.544285e+002  6.000000e+001  4.054073e-010
      vertex  6.544285e+002  1.050000e+002 -3.780000e+002
      vertex  6.544285e+002  1.050000e+002 -2.500000e+001
    endloop
  endfacet
  facet normal  1.000000e+000  0.000000e+000  -0.000000e+000
    outer loop
      vertex  6.544285e+002  6.000000e+001  4.054073e-010
      vertex  6.544285e+002  1.050000e+002 -2.500000e+001
      vertex  6.544285e+002  1.150000e+002 -2.500000e+001
    endloop
  endfacet
  facet normal  1.000000e+000  0.000000e+000  -0.000000e+000
    outer loop
      vertex  6.544285e+002  6.000000e+001  4.054073e-010
      vertex  6.544285e+002  1.150000e+002 -2.500000e+001
      vertex  6.544285e+002  1.250000e+002  4.054073e-010
    endloop
  endfacet
  facet normal  1.000000e+000  0.000000e+000  0.000000e+000
    outer loop
      vertex  6.544285e+002  1.050000e+002 -1.889500e+003
      vertex  6.544285e+002  6.000000e+001 -1.920000e+003
      vertex  6.544285e+002  1.200000e+002 -1.889500e+003
    endloop
  endfacet
  facet normal  1.000000e+000  0.000000e+000  0.000000e+000
    outer loop
      vertex  6.544285e+002  1.200000e+002 -1.889500e+003
      vertex  6.544285e+002  6.000000e+001 -1.920000e+003
      vertex  6.544285e+002  1.465000e+002 -1.920000e+003
    endloop
  endfacet
  facet normal  1.000000e+000  0.000000e+000  -0.000000e+000
    outer loop
      vertex  6.544285e+002  1.200000e+002 -1.889500e+003
      vertex  6.544285e+002  1.465000e+002 -1.920000e+003
      vertex  6.544285e+002  1.465000e+002 -1.916000e+003
    endloop
  endfacet
  facet normal  1.000000e+000  0.000000e+000  0.000000e+000
    outer loop
      vertex  6.544285e+002  1.050000e+002 -3.780000e+002
      vertex  6.544285e+002  1.050000e+002 -4.085000e+002
      vertex  6.544285e+002  1.465000e+002 -3.780000e+002
    endloop
  endfacet
  facet normal  1.000000e+000  0.000000e+000  0.000000e+000
    outer loop
      vertex  6.544285e+002  1.465000e+002 -3.780000e+002
      vertex  6.544285e+002  1.050000e+002 -4.085000e+002
      vertex  6.544285e+002  1.200000e+002 -4.085000e+002
    endloop
  endfacet
  facet normal  1.000000e+000  0.000000e+000  0.000000e+000
    outer loop
      vertex  6.544285e+002  1.465000e+002 -3.780000e+002
      vertex  6.544285e+002  1.200000e+002 -4.085000e+002
      vertex  6.544285e+002  1.465000e+002 -3.820000e+002
    endloop
  endfacet
  facet normal  1.000000e+000  0.000000e+000  0.000000e+000
    outer loop
      vertex  6.544285e+002  1.050000e+002 -1.090500e+003
      vertex  6.544285e+002  1.050000e+002 -1.207500e+003
      vertex  6.544285e+002  1.200000e+002 -1.090500e+003
    endloop
  endfacet
  facet normal  1.000000e+000  0.000000e+000  0.000000e+000
    outer loop
      vertex  6.544285e+002  1.200000e+002 -1.090500e+003
      vertex  6.544285e+002  1.050000e+002 -1.207500e+003
      vertex  6.544285e+002  1.200000e+002 -1.207500e+003
    endloop
  endfacet
  facet normal  1.000000e+000  0.000000e+000  0.000000e+000
    outer loop
      vertex  6.544285e+002  1.200000e+002 -1.090500e+003
      vertex  6.544285e+002  1.200000e+002 -1.207500e+003
      vertex  6.544285e+002  1.465000e+002 -1.117000e+003
    endloop
  endfacet
  facet normal  1.000000e+000  0.000000e+000  0.000000e+000
    outer loop
      vertex  6.544285e+002  1.465000e+002 -1.117000e+003
      vertex  6.544285e+002  1.200000e+002 -1.207500e+003
      vertex  6.544285e+002  1.465000e+002 -1.181000e+003
    endloop
  endfacet
  facet normal -1.000000e+000  0.000000e+000  0.000000e+000
    outer loop
      vertex  5.571533e+000  1.465000e+002 -1.920000e+003
      vertex  5.571533e+000  1.200000e+002 -1.889500e+003
      vertex  5.571533e+000  1.465000e+002 -1.916000e+003
    endloop
  endfacet
  facet normal -1.000000e+000  0.000000e+000  0.000000e+000
    outer loop
      vertex  5.571533e+000  8.250000e+001 -1.920000e+003
      vertex  5.571533e+000  8.250000e+001  0.000000e+000
      vertex  5.571533e+000  1.050000e+002 -4.085000e+002
    endloop
  endfacet
  facet normal -1.000000e+000  0.000000e+000  -0.000000e+000
    outer loop
      vertex  5.571533e+000  8.250000e+001 -1.920000e+003
      vertex  5.571533e+000  1.050000e+002 -4.085000e+002
      vertex  5.571533e+000  1.050000e+002 -1.090500e+003
    endloop
  endfacet
  facet normal -1.000000e+000  0.000000e+000  -0.000000e+000
    outer loop
      vertex  5.571533e+000  8.250000e+001 -1.920000e+003
      vertex  5.571533e+000  1.050000e+002 -1.090500e+003
      vertex  5.571533e+000  1.050000e+002 -1.207500e+003
    endloop
  endfacet
  facet normal -1.000000e+000  0.000000e+000  -0.000000e+000
    outer loop
      vertex  5.571533e+000  8.250000e+001 -1.920000e+003
      vertex  5.571533e+000  1.050000e+002 -1.207500e+003
      vertex  5.571533e+000  1.050000e+002 -1.889500e+003
    endloop
  endfacet
  facet normal -1.000000e+000  0.000000e+000  -0.000000e+000
    outer loop
      vertex  5.571533e+000  8.250000e+001 -1.920000e+003
      vertex  5.571533e+000  1.050000e+002 -1.889500e+003
      vertex  5.571533e+000  1.200000e+002 -1.889500e+003
    endloop
  endfacet
  facet normal -9.999999e-001  0.000000e+000  -0.000000e+000
    outer loop
      vertex  5.571533e+000  8.250000e+001 -1.920000e+003
      vertex  5.571533e+000  1.200000e+002 -1.889500e+003
      vertex  5.571533e+000  1.465000e+002 -1.920000e+003
    endloop
  endfacet
  facet normal -1.000000e+000  0.000000e+000  0.000000e+000
    outer loop
      vertex  5.571533e+000  1.050000e+002 -4.085000e+002
      vertex  5.571533e+000  8.250000e+001  0.000000e+000
      vertex  5.571533e+000  1.200000e+002 -4.085000e+002
    endloop
  endfacet
  facet normal -1.000000e+000  0.000000e+000  0.000000e+000
    outer loop
      vertex  5.571533e+000  1.200000e+002 -4.085000e+002
      vertex  5.571533e+000  8.250000e+001  0.000000e+000
      vertex  5.571533e+000  1.250000e+002  0.000000e+000
    endloop
  endfacet
  facet normal -1.000000e+000  0.000000e+000  -0.000000e+000
    outer loop
      vertex  5.571533e+000  1.200000e+002 -4.085000e+002
      vertex  5.571533e+000  1.250000e+002  0.000000e+000
      vertex  5.571533e+000  1.250000e+002 -3.780000e+002
    endloop
  endfacet
  facet normal -1.000000e+000  0.000000e+000  0.000000e+000
    outer loop
      vertex  5.571533e+000  1.465000e+002 -3.780000e+002
      vertex  5.571533e+000  1.465000e+002 -3.820000e+002
      vertex  5.571533e+000  1.250000e+002 -3.780000e+002
    endloop
  endfacet
  facet normal -1.000000e+000  0.000000e+000  -0.000000e+000
    outer loop
      vertex  5.571533e+000  1.250000e+002 -3.780000e+002
      vertex  5.571533e+000  1.465000e+002 -3.820000e+002
      vertex  5.571533e+000  1.200000e+002 -4.085000e+002
    endloop
  endfacet
  facet normal -1.000000e+000  0.000000e+000  0.000000e+000
    outer loop
      vertex  5.571533e+000  1.050000e+002 -1.207500e+003
      vertex  5.571533e+000  1.050000e+002 -1.090500e+003
      vertex  5.571533e+000  1.200000e+002 -1.207500e+003
    endloop
  endfacet
  facet normal -1.000000e+000  0.000000e+000  0.000000e+000
    outer loop
      vertex  5.571533e+000  1.200000e+002 -1.207500e+003
      vertex  5.571533e+000  1.050000e+002 -1.090500e+003
      vertex  5.571533e+000  1.200000e+002 -1.090500e+003
    endloop
  endfacet
  facet normal -1.000000e+000  0.000000e+000  0.000000e+000
    outer loop
      vertex  5.571533e+000  1.200000e+002 -1.207500e+003
      vertex  5.571533e+000  1.200000e+002 -1.090500e+003
      vertex  5.571533e+000  1.465000e+002 -1.181000e+003
    endloop
  endfacet
  facet normal -1.000000e+000  0.000000e+000  0.000000e+000
    outer loop
      vertex  5.571533e+000  1.465000e+002 -1.181000e+003
      vertex  5.571533e+000  1.200000e+002 -1.090500e+003
      vertex  5.571533e+000  1.465000e+002 -1.117000e+003
    endloop
  endfacet
  facet normal  0.000000e+000  1.000000e+000  -0.000000e+000
    outer loop
      vertex  6.544285e+002  1.050000e+002 -4.085000e+002
      vertex  6.544285e+002  1.050000e+002 -1.090500e+003
      vertex  5.571533e+000  1.050000e+002 -4.085000e+002
    endloop
  endfacet
  facet normal  0.000000e+000  1.000000e+000  0.000000e+000
    outer loop
      vertex  5.571533e+000  1.050000e+002 -4.085000e+002
      vertex  6.544285e+002  1.050000e+002 -1.090500e+003
      vertex  5.571533e+000  1.050000e+002 -1.090500e+003
    endloop
  endfacet
  facet normal  -0.000000e+000  0.000000e+000  9.999999e-001
    outer loop
      vertex  6.544285e+002  1.465000e+002 -3.780000e+002
      vertex  5.571533e+000  1.465000e+002 -3.780000e+002
      vertex  5.571533e+000  1.250000e+002 -3.780000e+002
    endloop
  endfacet
  facet normal  0.000000e+000  0.000000e+000  1.000000e+000
    outer loop
      vertex  6.544285e+002  1.465000e+002 -3.780000e+002
      vertex  5.571533e+000  1.250000e+002 -3.780000e+002
      vertex  2.057153e+001  1.250000e+002 -3.780000e+002
    endloop
  endfacet
  facet normal  -0.000000e+000  0.000000e+000  1.000000e+000
    outer loop
      vertex  6.544285e+002  1.465000e+002 -3.780000e+002
      vertex  2.057153e+001  1.250000e+002 -3.780000e+002
      vertex  3.057153e+001  1.150000e+002 -3.780000e+002
    endloop
  endfacet
  facet normal  -0.000000e+000  0.000000e+000  1.000000e+000
    outer loop
      vertex  6.544285e+002  1.465000e+002 -3.780000e+002
      vertex  3.057153e+001  1.150000e+002 -3.780000e+002
      vertex  3.057153e+001  1.050000e+002 -3.780000e+002
    endloop
  endfacet
  facet normal  0.000000e+000  0.000000e+000  1.000000e+000
    outer loop
      vertex  6.544285e+002  1.465000e+002 -3.780000e+002
      vertex  3.057153e+001  1.050000e+002 -3.780000e+002
      vertex  6.544285e+002  1.050000e+002 -3.780000e+002
    endloop
  endfacet
  facet normal  1.000000e+000  0.000000e+000  0.000000e+000
    outer loop
      vertex  3.057153e+001  1.050000e+002 -3.780000e+002
      vertex  3.057153e+001  1.150000e+002 -3.780000e+002
      vertex  3.057153e+001  1.050000e+002 -2.500000e+001
    endloop
  endfacet
  facet normal  1.000000e+000  -0.000000e+000  0.000000e+000
    outer loop
      vertex  3.057153e+001  1.050000e+002 -2.500000e+001
      vertex  3.057153e+001  1.150000e+002 -3.780000e+002
      vertex  3.057153e+001  1.150000e+002 -2.500000e+001
    endloop
  endfacet
  facet normal  0.000000e+000  0.000000e+000 -1.000000e+000
    outer loop
      vertex  3.057153e+001  1.050000e+002 -2.500000e+001
      vertex  3.057153e+001  1.150000e+002 -2.500000e+001
      vertex  6.544285e+002  1.050000e+002 -2.500000e+001
    endloop
  endfacet
  facet normal  0.000000e+000  0.000000e+000 -1.000000e+000
    outer loop
      vertex  6.544285e+002  1.050000e+002 -2.500000e+001
      vertex  3.057153e+001  1.150000e+002 -2.500000e+001
      vertex  6.544285e+002  1.150000e+002 -2.500000e+001
    endloop
  endfacet
  facet normal  0.000000e+000  1.000000e+000  -0.000000e+000
    outer loop
      vertex  6.544285e+002  1.050000e+002 -2.500000e+001
      vertex  6.544285e+002  1.050000e+002 -3.780000e+002
      vertex  3.057153e+001  1.050000e+002 -2.500000e+001
    endloop
  endfacet
  facet normal  0.000000e+000  1.000000e+000  0.000000e+000
    outer loop
      vertex  3.057153e+001  1.050000e+002 -2.500000e+001
      vertex  6.544285e+002  1.050000e+002 -3.780000e+002
      vertex  3.057153e+001  1.050000e+002 -3.780000e+002
    endloop
  endfacet
  facet normal  0.000000e+000  7.071068e-001 -7.071068e-001
    outer loop
      vertex  6.544285e+002  1.200000e+002 -4.085000e+002
      vertex  5.571533e+000  1.200000e+002 -4.085000e+002
      vertex  6.544285e+002  1.465000e+002 -3.820000e+002
    endloop
  endfacet
  facet normal  0.000000e+000  7.071068e-001 -7.071068e-001
    outer loop
      vertex  6.544285e+002  1.465000e+002 -3.820000e+002
      vertex  5.571533e+000  1.200000e+002 -4.085000e+002
      vertex  5.571533e+000  1.465000e+002 -3.820000e+002
    endloop
  endfacet
  facet normal  0.000000e+000  0.000000e+000 -1.000000e+000
    outer loop
      vertex  6.544285e+002  1.050000e+002 -4.085000e+002
      vertex  5.571533e+000  1.050000e+002 -4.085000e+002
      vertex  6.544285e+002  1.200000e+002 -4.085000e+002
    endloop
  endfacet
  facet normal  -0.000000e+000  0.000000e+000 -1.000000e+000
    outer loop
      vertex  6.544285e+002  1.200000e+002 -4.085000e+002
      vertex  5.571533e+000  1.050000e+002 -4.085000e+002
      vertex  5.571533e+000  1.200000e+002 -4.085000e+002
    endloop
  endfacet
  facet normal  -0.000000e+000  0.000000e+000  1.000000e+000
    outer loop
      vertex  6.544285e+002  1.200000e+002 -1.090500e+003
      vertex  5.571533e+000  1.200000e+002 -1.090500e+003
      vertex  6.544285e+002  1.050000e+002 -1.090500e+003
    endloop
  endfacet
  facet normal  0.000000e+000  0.000000e+000  1.000000e+000
    outer loop
      vertex  6.544285e+002  1.050000e+002 -1.090500e+003
      vertex  5.571533e+000  1.200000e+002 -1.090500e+003
      vertex  5.571533e+000  1.050000e+002 -1.090500e+003
    endloop
  endfacet
  facet normal  -0.000000e+000  7.071068e-001  7.071068e-001
    outer loop
      vertex  6.544285e+002  1.465000e+002 -1.117000e+003
      vertex  5.571533e+000  1.465000e+002 -1.117000e+003
      vertex  6.544285e+002  1.200000e+002 -1.090500e+003
    endloop
  endfacet
  facet normal  0.000000e+000  7.071068e-001  7.071068e-001
    outer loop
      vertex  6.544285e+002  1.200000e+002 -1.090500e+003
      vertex  5.571533e+000  1.465000e+002 -1.117000e+003
      vertex  5.571533e+000  1.200000e+002 -1.090500e+003
    endloop
  endfacet
  facet normal  0.000000e+000  1.000000e+000  0.000000e+000
    outer loop
      vertex  6.544285e+002  1.465000e+002 -1.920000e+003
      vertex  5.571533e+000  1.465000e+002 -1.920000e+003
      vertex  6.544285e+002  1.465000e+002 -1.916000e+003
    endloop
  endfacet
  facet normal  0.000000e+000  1.000000e+000  0.000000e+000
    outer loop
      vertex  6.544285e+002  1.465000e+002 -1.916000e+003
      vertex  5.571533e+000  1.465000e+002 -1.920000e+003
      vertex  5.571533e+000  1.465000e+002 -1.916000e+003
    endloop
  endfacet
  facet normal  0.000000e+000  1.000000e+000  0.000000e+000
    outer loop
      vertex  6.544285e+002  1.465000e+002 -1.181000e+003
      vertex  5.571533e+000  1.465000e+002 -1.181000e+003
      vertex  6.544285e+002  1.465000e+002 -1.117000e+003
    endloop
  endfacet
  facet normal  0.000000e+000  1.000000e+000  0.000000e+000
    outer loop
      vertex  6.544285e+002  1.465000e+002 -1.117000e+003
      vertex  5.571533e+000  1.465000e+002 -1.181000e+003
      vertex  5.571533e+000  1.465000e+002 -1.117000e+003
    endloop
  endfacet
  facet normal  0.000000e+000  1.000000e+000  0.000000e+000
    outer loop
      vertex  6.544285e+002  1.465000e+002 -3.820000e+002
      vertex  5.571533e+000  1.465000e+002 -3.820000e+002
      vertex  6.544285e+002  1.465000e+002 -3.780000e+002
    endloop
  endfacet
  facet normal  0.000000e+000  1.000000e+000  0.000000e+000
    outer loop
      vertex  6.544285e+002  1.465000e+002 -3.780000e+002
      vertex  5.571533e+000  1.465000e+002 -3.820000e+002
      vertex  5.571533e+000  1.465000e+002 -3.780000e+002
    endloop
  endfacet
  facet normal -6.248022e-013  0.000000e+000  1.000000e+000
    outer loop
      vertex  5.571533e+000  1.250000e+002  0.000000e+000
      vertex  5.571533e+000  8.250000e+001  0.000000e+000
      vertex  6.544285e+002  1.250000e+002  4.054073e-010
    endloop
  endfacet
  facet normal  0.000000e+000 -9.538995e-012  1.000000e+000
    outer loop
      vertex  6.544285e+002  1.250000e+002  4.054073e-010
      vertex  5.571533e+000  8.250000e+001  0.000000e+000
      vertex  3.557153e+001  8.250000e+001  0.000000e+000
    endloop
  endfacet
  facet normal -6.550905e-013  0.000000e+000  1.000000e+000
    outer loop
      vertex  6.544285e+002  1.250000e+002  4.054073e-010
      vertex  3.557153e+001  8.250000e+001  0.000000e+000
      vertex  6.544285e+002  6.000000e+001  4.054073e-010
    endloop
  endfacet
  facet normal -6.550904e-013  0.000000e+000  1.000000e+000
    outer loop
      vertex  6.544285e+002  6.000000e+001  4.054073e-010
      vertex  3.557153e+001  8.250000e+001  0.000000e+000
      vertex  3.557153e+001  6.000000e+001  0.000000e+000
    endloop
  endfacet
  facet normal -6.550905e-013 -1.912651e-011  1.000000e+000
    outer loop
      vertex  6.544285e+002  6.000000e+001  4.054073e-010
      vertex  3.557153e+001  6.000000e+001  0.000000e+000
      vertex  6.444285e+002  5.000000e+001  2.075912e-010
    endloop
  endfacet
  facet normal -3.466458e-013 -3.466458e-013  9.999999e-001
    outer loop
      vertex  6.444285e+002  5.000000e+001  2.075912e-010
      vertex  3.557153e+001  6.000000e+001  0.000000e+000
      vertex  4.557153e+001  5.000000e+001  0.000000e+000
    endloop
  endfacet
  facet normal  0.000000e+000 -1.000000e+000  0.000000e+000
    outer loop
      vertex  5.571533e+000  8.250000e+001 -1.920000e+003
      vertex  3.557153e+001  8.250000e+001 -1.920000e+003
      vertex  5.571533e+000  8.250000e+001  0.000000e+000
    endloop
  endfacet
  facet normal  0.000000e+000 -1.000000e+000  0.000000e+000
    outer loop
      vertex  5.571533e+000  8.250000e+001  0.000000e+000
      vertex  3.557153e+001  8.250000e+001 -1.920000e+003
      vertex  3.557153e+001  8.250000e+001  0.000000e+000
    endloop
  endfacet
  facet normal -1.000000e+000  0.000000e+000  0.000000e+000
    outer loop
      vertex  3.557153e+001  8.250000e+001 -1.920000e+003
      vertex  3.557153e+001  6.000000e+001 -1.920000e+003
      vertex  3.557153e+001  8.250000e+001  0.000000e+000
    endloop
  endfacet
  facet normal -1.000000e+000  -0.000000e+000  0.000000e+000
    outer loop
      vertex  3.557153e+001  8.250000e+001  0.000000e+000
      vertex  3.557153e+001  6.000000e+001 -1.920000e+003
      vertex  3.557153e+001  6.000000e+001  0.000000e+000
    endloop
  endfacet
  facet normal -7.071068e-001 -7.071068e-001  0.000000e+000
    outer loop
      vertex  4.557153e+001  5.000000e+001  0.000000e+000
      vertex  3.557153e+001  6.000000e+001  0.000000e+000
      vertex  4.557153e+001  5.000000e+001 -1.920000e+003
    endloop
  endfacet
  facet normal -7.071068e-001 -7.071068e-001  0.000000e+000
    outer loop
      vertex  4.557153e+001  5.000000e+001 -1.920000e+003
      vertex  3.557153e+001  6.000000e+001  0.000000e+000
      vertex  3.557153e+001  6.000000e+001 -1.920000e+003
    endloop
  endfacet
  facet normal  0.000000e+000  1.000000e+000  0.000000e+000
    outer loop
      vertex  6.544285e+002  1.250000e+002 -1.500000e+001
      vertex  2.057153e+001  1.250000e+002 -1.500000e+001
      vertex  6.544285e+002  1.250000e+002  4.054073e-010
    endloop
  endfacet
  facet normal  0.000000e+000  1.000000e+000  0.000000e+000
    outer loop
      vertex  6.544285e+002  1.250000e+002  4.054073e-010
      vertex  2.057153e+001  1.250000e+002 -1.500000e+001
      vertex  5.571533e+000  1.250000e+002  0.000000e+000
    endloop
  endfacet
  facet normal  0.000000e+000  1.000000e+000  -0.000000e+000
    outer loop
      vertex  2.057153e+001  1.250000e+002 -1.500000e+001
      vertex  2.057153e+001  1.250000e+002 -3.780000e+002
      vertex  5.571533e+000  1.250000e+002  0.000000e+000
    endloop
  endfacet
  facet normal  0.000000e+000  1.000000e+000  0.000000e+000
    outer loop
      vertex  5.571533e+000  1.250000e+002  0.000000e+000
      vertex  2.057153e+001  1.250000e+002 -3.780000e+002
      vertex  5.571533e+000  1.250000e+002 -3.780000e+002
    endloop
  endfacet
  facet normal  0.000000e+000  0.000000e+000 -1.000000e+000
    outer loop
      vertex  6.544285e+002  1.465000e+002 -1.920000e+003
      vertex  5.571533e+000  8.250000e+001 -1.920000e+003
      vertex  5.571533e+000  1.465000e+002 -1.920000e+003
    endloop
  endfacet
  facet normal  0.000000e+000  0.000000e+000 -1.000000e+000
    outer loop
      vertex  5.571533e+000  8.250000e+001 -1.920000e+003
      vertex  6.544285e+002  1.465000e+002 -1.920000e+003
      vertex  3.557153e+001  8.250000e+001 -1.920000e+003
    endloop
  endfacet
  facet normal  0.000000e+000  0.000000e+000 -1.000000e+000
    outer loop
      vertex  3.557153e+001  8.250000e+001 -1.920000e+003
      vertex  6.544285e+002  1.465000e+002 -1.920000e+003
      vertex  6.544285e+002  6.000000e+001 -1.920000e+003
    endloop
  endfacet
  facet normal  0.000000e+000  0.000000e+000 -1.000000e+000
    outer loop
      vertex  3.557153e+001  8.250000e+001 -1.920000e+003
      vertex  6.544285e+002  6.000000e+001 -1.920000e+003
      vertex  3.557153e+001  6.000000e+001 -1.920000e+003
    endloop
  endfacet
  facet normal  0.000000e+000  0.000000e+000 -1.000000e+000
    outer loop
      vertex  3.557153e+001  6.000000e+001 -1.920000e+003
      vertex  6.544285e+002  6.000000e+001 -1.920000e+003
      vertex  6.444285e+002  5.000000e+001 -1.920000e+003
    endloop
  endfacet
  facet normal  0.000000e+000  0.000000e+000 -9.999999e-001
    outer loop
      vertex  3.557153e+001  6.000000e+001 -1.920000e+003
      vertex  6.444285e+002  5.000000e+001 -1.920000e+003
      vertex  4.557153e+001  5.000000e+001 -1.920000e+003
    endloop
  endfacet
  facet normal  0.000000e+000 -1.000000e+000  0.000000e+000
    outer loop
      vertex  4.557153e+001  5.000000e+001 -1.920000e+003
      vertex  6.444285e+002  5.000000e+001 -1.920000e+003
      vertex  4.557153e+001  5.000000e+001  0.000000e+000
    endloop
  endfacet
  facet normal  0.000000e+000 -9.999999e-001  0.000000e+000
    outer loop
      vertex  4.557153e+001  5.000000e+001  0.000000e+000
      vertex  6.444285e+002  5.000000e+001 -1.920000e+003
      vertex  6.444285e+002  5.000000e+001  2.075912e-010
    endloop
  endfacet
  facet normal  7.071068e-001 -7.071068e-001  0.000000e+000
    outer loop
      vertex  6.444285e+002  5.000000e+001 -1.920000e+003
      vertex  6.544285e+002  6.000000e+001 -1.920000e+003
      vertex  6.444285e+002  5.000000e+001  2.075912e-010
    endloop
  endfacet
  facet normal  7.071068e-001 -7.071068e-001  0.000000e+000
    outer loop
      vertex  6.444285e+002  5.000000e+001  2.075912e-010
      vertex  6.544285e+002  6.000000e+001 -1.920000e+003
      vertex  6.544285e+002  6.000000e+001  4.054073e-010
    endloop
  endfacet
  facet normal  7.071068e-001  7.071068e-001  0.000000e+000
    outer loop
      vertex  3.057153e+001  1.150000e+002 -3.780000e+002
      vertex  2.057153e+001  1.250000e+002 -3.780000e+002
      vertex  3.057153e+001  1.150000e+002 -2.500000e+001
    endloop
  endfacet
  facet normal  7.071068e-001  7.071068e-001  0.000000e+000
    outer loop
      vertex  3.057153e+001  1.150000e+002 -2.500000e+001
      vertex  2.057153e+001  1.250000e+002 -3.780000e+002
      vertex  2.057153e+001  1.250000e+002 -1.500000e+001
    endloop
  endfacet
  facet normal  0.000000e+000  7.071067e-001 -7.071067e-001
    outer loop
      vertex  3.057153e+001  1.150000e+002 -2.500000e+001
      vertex  2.057153e+001  1.250000e+002 -1.500000e+001
      vertex  6.544285e+002  1.150000e+002 -2.500000e+001
    endloop
  endfacet
  facet normal  0.000000e+000  7.071068e-001 -7.071068e-001
    outer loop
      vertex  6.544285e+002  1.150000e+002 -2.500000e+001
      vertex  2.057153e+001  1.250000e+002 -1.500000e+001
      vertex  6.544285e+002  1.250000e+002 -1.500000e+001
    endloop
  endfacet
endsolid CATIA STL
