solid CATIA STL
  facet normal  0.000000e+000  1.000000e+000  -0.000000e+000
    outer loop
      vertex  6.660000e+002  8.000000e+001  0.000000e+000
      vertex  6.660000e+002  8.000000e+001 -1.920000e+003
      vertex  3.400000e+001  8.000000e+001  0.000000e+000
    endloop
  endfacet
  facet normal  0.000000e+000  1.000000e+000  0.000000e+000
    outer loop
      vertex  3.400000e+001  8.000000e+001  0.000000e+000
      vertex  6.660000e+002  8.000000e+001 -1.920000e+003
      vertex  3.400000e+001  8.000000e+001 -1.920000e+003
    endloop
  endfacet
  facet normal  1.000000e+000  0.000000e+000  0.000000e+000
    outer loop
      vertex  6.660000e+002  0.000000e+000 -1.920000e+003
      vertex  6.660000e+002  8.000000e+001 -1.920000e+003
      vertex  6.660000e+002  0.000000e+000  0.000000e+000
    endloop
  endfacet
  facet normal  1.000000e+000  -0.000000e+000  0.000000e+000
    outer loop
      vertex  6.660000e+002  0.000000e+000  0.000000e+000
      vertex  6.660000e+002  8.000000e+001 -1.920000e+003
      vertex  6.660000e+002  8.000000e+001  0.000000e+000
    endloop
  endfacet
  facet normal -1.000000e+000  0.000000e+000  0.000000e+000
    outer loop
      vertex  3.400000e+001  8.000000e+001 -1.920000e+003
      vertex  3.400000e+001  4.713845e-015 -1.920000e+003
      vertex  3.400000e+001  8.000000e+001  0.000000e+000
    endloop
  endfacet
  facet normal -1.000000e+000  -0.000000e+000  0.000000e+000
    outer loop
      vertex  3.400000e+001  8.000000e+001  0.000000e+000
      vertex  3.400000e+001  4.713845e-015 -1.920000e+003
      vertex  3.400000e+001  0.000000e+000  0.000000e+000
    endloop
  endfacet
  facet normal  0.000000e+000  0.000000e+000 -1.000000e+000
    outer loop
      vertex  2.880000e+002 -3.939160e-011 -1.920000e+003
      vertex  3.400000e+001  4.713845e-015 -1.920000e+003
      vertex  2.980000e+002  1.000000e+001 -1.920000e+003
    endloop
  endfacet
  facet normal  0.000000e+000  0.000000e+000 -1.000000e+000
    outer loop
      vertex  4.080000e+002  5.575235e-014 -1.920000e+003
      vertex  3.980000e+002  1.000000e+001 -1.920000e+003
      vertex  6.660000e+002  0.000000e+000 -1.920000e+003
    endloop
  endfacet
  facet normal  0.000000e+000  0.000000e+000 -1.000000e+000
    outer loop
      vertex  6.660000e+002  0.000000e+000 -1.920000e+003
      vertex  3.980000e+002  1.000000e+001 -1.920000e+003
      vertex  3.980000e+002  5.000000e+001 -1.920000e+003
    endloop
  endfacet
  facet normal  0.000000e+000  0.000000e+000 -1.000000e+000
    outer loop
      vertex  6.660000e+002  0.000000e+000 -1.920000e+003
      vertex  3.980000e+002  5.000000e+001 -1.920000e+003
      vertex  6.660000e+002  8.000000e+001 -1.920000e+003
    endloop
  endfacet
  facet normal  0.000000e+000  0.000000e+000 -1.000000e+000
    outer loop
      vertex  6.660000e+002  8.000000e+001 -1.920000e+003
      vertex  3.980000e+002  5.000000e+001 -1.920000e+003
      vertex  2.980000e+002  5.000000e+001 -1.920000e+003
    endloop
  endfacet
  facet normal  0.000000e+000  0.000000e+000 -1.000000e+000
    outer loop
      vertex  6.660000e+002  8.000000e+001 -1.920000e+003
      vertex  2.980000e+002  5.000000e+001 -1.920000e+003
      vertex  3.400000e+001  8.000000e+001 -1.920000e+003
    endloop
  endfacet
  facet normal  0.000000e+000  0.000000e+000 -9.999999e-001
    outer loop
      vertex  3.400000e+001  8.000000e+001 -1.920000e+003
      vertex  2.980000e+002  5.000000e+001 -1.920000e+003
      vertex  2.980000e+002  1.000000e+001 -1.920000e+003
    endloop
  endfacet
  facet normal  -0.000000e+000  0.000000e+000 -9.999999e-001
    outer loop
      vertex  3.400000e+001  8.000000e+001 -1.920000e+003
      vertex  2.980000e+002  1.000000e+001 -1.920000e+003
      vertex  3.400000e+001  4.713845e-015 -1.920000e+003
    endloop
  endfacet
  facet normal  0.000000e+000  0.000000e+000  1.000000e+000
    outer loop
      vertex  2.980000e+002  1.000000e+001  0.000000e+000
      vertex  3.400000e+001  0.000000e+000  0.000000e+000
      vertex  2.880000e+002  0.000000e+000  0.000000e+000
    endloop
  endfacet
  facet normal  0.000000e+000  0.000000e+000  9.999999e-001
    outer loop
      vertex  3.400000e+001  0.000000e+000  0.000000e+000
      vertex  2.980000e+002  1.000000e+001  0.000000e+000
      vertex  3.400000e+001  8.000000e+001  0.000000e+000
    endloop
  endfacet
  facet normal  0.000000e+000  0.000000e+000  9.999999e-001
    outer loop
      vertex  3.400000e+001  8.000000e+001  0.000000e+000
      vertex  2.980000e+002  1.000000e+001  0.000000e+000
      vertex  2.980000e+002  5.000000e+001  0.000000e+000
    endloop
  endfacet
  facet normal  0.000000e+000  -0.000000e+000  1.000000e+000
    outer loop
      vertex  3.400000e+001  8.000000e+001  0.000000e+000
      vertex  2.980000e+002  5.000000e+001  0.000000e+000
      vertex  6.660000e+002  8.000000e+001  0.000000e+000
    endloop
  endfacet
  facet normal  0.000000e+000  0.000000e+000  1.000000e+000
    outer loop
      vertex  6.660000e+002  8.000000e+001  0.000000e+000
      vertex  2.980000e+002  5.000000e+001  0.000000e+000
      vertex  3.980000e+002  5.000000e+001  0.000000e+000
    endloop
  endfacet
  facet normal  -0.000000e+000  0.000000e+000  1.000000e+000
    outer loop
      vertex  6.660000e+002  8.000000e+001  0.000000e+000
      vertex  3.980000e+002  5.000000e+001  0.000000e+000
      vertex  6.660000e+002  0.000000e+000  0.000000e+000
    endloop
  endfacet
  facet normal  0.000000e+000  0.000000e+000  1.000000e+000
    outer loop
      vertex  6.660000e+002  0.000000e+000  0.000000e+000
      vertex  3.980000e+002  5.000000e+001  0.000000e+000
      vertex  3.980000e+002  1.000000e+001  0.000000e+000
    endloop
  endfacet
  facet normal  0.000000e+000  0.000000e+000  1.000000e+000
    outer loop
      vertex  6.660000e+002  0.000000e+000  0.000000e+000
      vertex  3.980000e+002  1.000000e+001  0.000000e+000
      vertex  4.080000e+002  0.000000e+000  0.000000e+000
    endloop
  endfacet
  facet normal  0.000000e+000 -9.999999e-001 -2.903768e-017
    outer loop
      vertex  4.080000e+002  0.000000e+000  0.000000e+000
      vertex  4.080000e+002  5.575235e-014 -1.920000e+003
      vertex  6.660000e+002  0.000000e+000  0.000000e+000
    endloop
  endfacet
  facet normal -2.160944e-016 -9.999999e-001  -0.000000e+000
    outer loop
      vertex  6.660000e+002  0.000000e+000  0.000000e+000
      vertex  4.080000e+002  5.575235e-014 -1.920000e+003
      vertex  6.660000e+002  0.000000e+000 -1.920000e+003
    endloop
  endfacet
  facet normal  0.000000e+000 -1.000000e+000 -2.455128e-018
    outer loop
      vertex  3.400000e+001  0.000000e+000  0.000000e+000
      vertex  3.400000e+001  4.713845e-015 -1.920000e+003
      vertex  2.880000e+002  0.000000e+000  0.000000e+000
    endloop
  endfacet
  facet normal -1.551036e-013 -1.000000e+000  2.051646e-014
    outer loop
      vertex  2.880000e+002  0.000000e+000  0.000000e+000
      vertex  3.400000e+001  4.713845e-015 -1.920000e+003
      vertex  2.880000e+002 -3.939160e-011 -1.920000e+003
    endloop
  endfacet
  facet normal  7.071068e-001 -7.071068e-001  0.000000e+000
    outer loop
      vertex  2.880000e+002 -3.939160e-011 -1.920000e+003
      vertex  2.980000e+002  1.000000e+001 -1.920000e+003
      vertex  2.880000e+002  0.000000e+000  0.000000e+000
    endloop
  endfacet
  facet normal  7.071068e-001 -7.071068e-001  0.000000e+000
    outer loop
      vertex  2.880000e+002  0.000000e+000  0.000000e+000
      vertex  2.980000e+002  1.000000e+001 -1.920000e+003
      vertex  2.980000e+002  1.000000e+001  0.000000e+000
    endloop
  endfacet
  facet normal -7.071068e-001 -7.071068e-001  0.000000e+000
    outer loop
      vertex  4.080000e+002  0.000000e+000  0.000000e+000
      vertex  3.980000e+002  1.000000e+001  0.000000e+000
      vertex  4.080000e+002  5.575235e-014 -1.920000e+003
    endloop
  endfacet
  facet normal -7.071068e-001 -7.071068e-001  0.000000e+000
    outer loop
      vertex  4.080000e+002  5.575235e-014 -1.920000e+003
      vertex  3.980000e+002  1.000000e+001  0.000000e+000
      vertex  3.980000e+002  1.000000e+001 -1.920000e+003
    endloop
  endfacet
  facet normal  0.000000e+000 -1.000000e+000  0.000000e+000
    outer loop
      vertex  2.980000e+002  5.000000e+001 -1.920000e+003
      vertex  3.980000e+002  5.000000e+001 -1.920000e+003
      vertex  2.980000e+002  5.000000e+001  0.000000e+000
    endloop
  endfacet
  facet normal  0.000000e+000 -1.000000e+000  0.000000e+000
    outer loop
      vertex  2.980000e+002  5.000000e+001  0.000000e+000
      vertex  3.980000e+002  5.000000e+001 -1.920000e+003
      vertex  3.980000e+002  5.000000e+001  0.000000e+000
    endloop
  endfacet
  facet normal -1.000000e+000  0.000000e+000  0.000000e+000
    outer loop
      vertex  3.980000e+002  5.000000e+001 -1.920000e+003
      vertex  3.980000e+002  1.000000e+001 -1.920000e+003
      vertex  3.980000e+002  5.000000e+001  0.000000e+000
    endloop
  endfacet
  facet normal -1.000000e+000  -0.000000e+000  0.000000e+000
    outer loop
      vertex  3.980000e+002  5.000000e+001  0.000000e+000
      vertex  3.980000e+002  1.000000e+001 -1.920000e+003
      vertex  3.980000e+002  1.000000e+001  0.000000e+000
    endloop
  endfacet
  facet normal  1.000000e+000  0.000000e+000  0.000000e+000
    outer loop
      vertex  2.980000e+002  1.000000e+001 -1.920000e+003
      vertex  2.980000e+002  5.000000e+001 -1.920000e+003
      vertex  2.980000e+002  1.000000e+001  0.000000e+000
    endloop
  endfacet
  facet normal  1.000000e+000  -0.000000e+000  0.000000e+000
    outer loop
      vertex  2.980000e+002  1.000000e+001  0.000000e+000
      vertex  2.980000e+002  5.000000e+001 -1.920000e+003
      vertex  2.980000e+002  5.000000e+001  0.000000e+000
    endloop
  endfacet
endsolid CATIA STL
