solid CATIA STL
  facet normal  -0.000000e+000  0.000000e+000  1.000000e+000
    outer loop
      vertex  3.702383e+001  6.263745e+001  4.000000e-001
      vertex -2.547617e+001  6.263745e+001  4.000000e-001
      vertex  3.854332e+001  6.259895e+001  4.000000e-001
    endloop
  endfacet
  facet normal  0.000000e+000  0.000000e+000  1.000000e+000
    outer loop
      vertex  3.854332e+001  6.259895e+001  4.000000e-001
      vertex -2.547617e+001  6.263745e+001  4.000000e-001
      vertex -2.699563e+001  6.259895e+001  4.000000e-001
    endloop
  endfacet
  facet normal  -0.000000e+000  0.000000e+000  1.000000e+000
    outer loop
      vertex  3.854332e+001  6.259895e+001  4.000000e-001
      vertex -2.699563e+001  6.259895e+001  4.000000e-001
      vertex  4.005890e+001  6.248353e+001  4.000000e-001
    endloop
  endfacet
  facet normal  0.000000e+000  0.000000e+000  1.000000e+000
    outer loop
      vertex  4.005890e+001  6.248353e+001  4.000000e-001
      vertex -2.699563e+001  6.259895e+001  4.000000e-001
      vertex -2.851120e+001  6.248353e+001  4.000000e-001
    endloop
  endfacet
  facet normal  0.000000e+000  0.000000e+000  1.000000e+000
    outer loop
      vertex  4.005890e+001  6.248353e+001  4.000000e-001
      vertex -2.851120e+001  6.248353e+001  4.000000e-001
      vertex  4.156670e+001  6.229150e+001  4.000000e-001
    endloop
  endfacet
  facet normal  0.000000e+000  0.000000e+000  1.000000e+000
    outer loop
      vertex  4.156670e+001  6.229150e+001  4.000000e-001
      vertex -2.851120e+001  6.248353e+001  4.000000e-001
      vertex -3.001897e+001  6.229150e+001  4.000000e-001
    endloop
  endfacet
  facet normal  0.000000e+000  0.000000e+000  1.000000e+000
    outer loop
      vertex  4.156670e+001  6.229150e+001  4.000000e-001
      vertex -3.001897e+001  6.229150e+001  4.000000e-001
      vertex  4.306282e+001  6.202334e+001  4.000000e-001
    endloop
  endfacet
  facet normal  0.000000e+000  0.000000e+000  1.000000e+000
    outer loop
      vertex  4.306282e+001  6.202334e+001  4.000000e-001
      vertex -3.001897e+001  6.229150e+001  4.000000e-001
      vertex -3.151509e+001  6.202336e+001  4.000000e-001
    endloop
  endfacet
  facet normal  0.000000e+000  0.000000e+000  1.000000e+000
    outer loop
      vertex  4.306282e+001  6.202334e+001  4.000000e-001
      vertex -3.151509e+001  6.202336e+001  4.000000e-001
      vertex  4.454345e+001  6.167975e+001  4.000000e-001
    endloop
  endfacet
  facet normal  0.000000e+000  0.000000e+000  1.000000e+000
    outer loop
      vertex  4.454345e+001  6.167975e+001  4.000000e-001
      vertex -3.151509e+001  6.202336e+001  4.000000e-001
      vertex -3.299570e+001  6.167978e+001  4.000000e-001
    endloop
  endfacet
  facet normal  0.000000e+000  0.000000e+000  1.000000e+000
    outer loop
      vertex  4.454345e+001  6.167975e+001  4.000000e-001
      vertex -3.299570e+001  6.167978e+001  4.000000e-001
      vertex  4.600478e+001  6.126161e+001  4.000000e-001
    endloop
  endfacet
  facet normal  0.000000e+000  0.000000e+000  1.000000e+000
    outer loop
      vertex  4.600478e+001  6.126161e+001  4.000000e-001
      vertex -3.299570e+001  6.167978e+001  4.000000e-001
      vertex -3.445700e+001  6.126165e+001  4.000000e-001
    endloop
  endfacet
  facet normal  0.000000e+000  0.000000e+000  1.000000e+000
    outer loop
      vertex  4.600478e+001  6.126161e+001  4.000000e-001
      vertex -3.445700e+001  6.126165e+001  4.000000e-001
      vertex  4.744305e+001  6.076999e+001  4.000000e-001
    endloop
  endfacet
  facet normal  0.000000e+000  0.000000e+000  9.999999e-001
    outer loop
      vertex  4.744305e+001  6.076999e+001  4.000000e-001
      vertex -3.445700e+001  6.126165e+001  4.000000e-001
      vertex -3.589526e+001  6.077003e+001  4.000000e-001
    endloop
  endfacet
  facet normal  0.000000e+000  0.000000e+000  1.000000e+000
    outer loop
      vertex  4.744305e+001  6.076999e+001  4.000000e-001
      vertex -3.589526e+001  6.077003e+001  4.000000e-001
      vertex  4.885458e+001  6.020615e+001  4.000000e-001
    endloop
  endfacet
  facet normal  0.000000e+000  0.000000e+000  1.000000e+000
    outer loop
      vertex  4.885458e+001  6.020615e+001  4.000000e-001
      vertex -3.589526e+001  6.077003e+001  4.000000e-001
      vertex -3.730677e+001  6.020621e+001  4.000000e-001
    endloop
  endfacet
  facet normal  0.000000e+000  0.000000e+000  9.999999e-001
    outer loop
      vertex  4.885458e+001  6.020615e+001  4.000000e-001
      vertex -3.730677e+001  6.020621e+001  4.000000e-001
      vertex  5.023573e+001  5.957155e+001  4.000000e-001
    endloop
  endfacet
  facet normal  0.000000e+000  0.000000e+000  1.000000e+000
    outer loop
      vertex  5.023573e+001  5.957155e+001  4.000000e-001
      vertex -3.730677e+001  6.020621e+001  4.000000e-001
      vertex -3.868792e+001  5.957162e+001  4.000000e-001
    endloop
  endfacet
  facet normal  0.000000e+000  0.000000e+000  1.000000e+000
    outer loop
      vertex  5.023573e+001  5.957155e+001  4.000000e-001
      vertex -3.868792e+001  5.957162e+001  4.000000e-001
      vertex  5.158297e+001  5.886780e+001  4.000000e-001
    endloop
  endfacet
  facet normal  0.000000e+000  0.000000e+000  1.000000e+000
    outer loop
      vertex  5.158297e+001  5.886780e+001  4.000000e-001
      vertex -3.868792e+001  5.957162e+001  4.000000e-001
      vertex -4.003514e+001  5.886789e+001  4.000000e-001
    endloop
  endfacet
  facet normal  0.000000e+000  0.000000e+000  1.000000e+000
    outer loop
      vertex  5.158297e+001  5.886780e+001  4.000000e-001
      vertex -4.003514e+001  5.886789e+001  4.000000e-001
      vertex  5.289284e+001  5.809672e+001  4.000000e-001
    endloop
  endfacet
  facet normal  0.000000e+000  0.000000e+000  1.000000e+000
    outer loop
      vertex  5.289284e+001  5.809672e+001  4.000000e-001
      vertex -4.003514e+001  5.886789e+001  4.000000e-001
      vertex -4.134500e+001  5.809683e+001  4.000000e-001
    endloop
  endfacet
  facet normal  0.000000e+000  0.000000e+000  1.000000e+000
    outer loop
      vertex  5.289284e+001  5.809672e+001  4.000000e-001
      vertex -4.134500e+001  5.809683e+001  4.000000e-001
      vertex  5.416197e+001  5.726029e+001  4.000000e-001
    endloop
  endfacet
  facet normal  0.000000e+000  0.000000e+000  1.000000e+000
    outer loop
      vertex  5.416197e+001  5.726029e+001  4.000000e-001
      vertex -4.134500e+001  5.809683e+001  4.000000e-001
      vertex -4.261412e+001  5.726042e+001  4.000000e-001
    endloop
  endfacet
  facet normal  0.000000e+000  0.000000e+000  1.000000e+000
    outer loop
      vertex  5.416197e+001  5.726029e+001  4.000000e-001
      vertex -4.261412e+001  5.726042e+001  4.000000e-001
      vertex  5.538711e+001  5.636065e+001  4.000000e-001
    endloop
  endfacet
  facet normal  0.000000e+000  0.000000e+000  1.000000e+000
    outer loop
      vertex  5.538711e+001  5.636065e+001  4.000000e-001
      vertex -4.261412e+001  5.726042e+001  4.000000e-001
      vertex -4.383925e+001  5.636080e+001  4.000000e-001
    endloop
  endfacet
  facet normal  0.000000e+000  0.000000e+000  1.000000e+000
    outer loop
      vertex  5.538711e+001  5.636065e+001  4.000000e-001
      vertex -4.383925e+001  5.636080e+001  4.000000e-001
      vertex  5.656511e+001  5.540011e+001  4.000000e-001
    endloop
  endfacet
  facet normal  0.000000e+000  0.000000e+000  1.000000e+000
    outer loop
      vertex  5.656511e+001  5.540011e+001  4.000000e-001
      vertex -4.383925e+001  5.636080e+001  4.000000e-001
      vertex -4.501724e+001  5.540028e+001  4.000000e-001
    endloop
  endfacet
  facet normal  0.000000e+000  0.000000e+000  1.000000e+000
    outer loop
      vertex  5.656511e+001  5.540011e+001  4.000000e-001
      vertex -4.501724e+001  5.540028e+001  4.000000e-001
      vertex  5.769294e+001  5.438113e+001  4.000000e-001
    endloop
  endfacet
  facet normal  0.000000e+000  0.000000e+000  1.000000e+000
    outer loop
      vertex  5.769294e+001  5.438113e+001  4.000000e-001
      vertex -4.501724e+001  5.540028e+001  4.000000e-001
      vertex -4.614507e+001  5.438133e+001  4.000000e-001
    endloop
  endfacet
  facet normal  0.000000e+000  0.000000e+000  1.000000e+000
    outer loop
      vertex  5.769294e+001  5.438113e+001  4.000000e-001
      vertex -4.614507e+001  5.438133e+001  4.000000e-001
      vertex  5.876772e+001  5.330635e+001  4.000000e-001
    endloop
  endfacet
  facet normal  0.000000e+000  0.000000e+000  1.000000e+000
    outer loop
      vertex  5.876772e+001  5.330635e+001  4.000000e-001
      vertex -4.614507e+001  5.438133e+001  4.000000e-001
      vertex -4.721984e+001  5.330657e+001  4.000000e-001
    endloop
  endfacet
  facet normal  0.000000e+000  0.000000e+000  1.000000e+000
    outer loop
      vertex  5.876772e+001  5.330635e+001  4.000000e-001
      vertex -4.721984e+001  5.330657e+001  4.000000e-001
      vertex  5.978668e+001  5.217850e+001  4.000000e-001
    endloop
  endfacet
  facet normal  0.000000e+000  0.000000e+000  1.000000e+000
    outer loop
      vertex  5.978668e+001  5.217850e+001  4.000000e-001
      vertex -4.721984e+001  5.330657e+001  4.000000e-001
      vertex -4.823880e+001  5.217875e+001  4.000000e-001
    endloop
  endfacet
  facet normal  0.000000e+000  0.000000e+000  9.999999e-001
    outer loop
      vertex  5.978668e+001  5.217850e+001  4.000000e-001
      vertex -4.823880e+001  5.217875e+001  4.000000e-001
      vertex  6.074721e+001  5.100050e+001  4.000000e-001
    endloop
  endfacet
  facet normal  0.000000e+000  0.000000e+000  1.000000e+000
    outer loop
      vertex  6.074721e+001  5.100050e+001  4.000000e-001
      vertex -4.823880e+001  5.217875e+001  4.000000e-001
      vertex -4.919933e+001  5.100076e+001  4.000000e-001
    endloop
  endfacet
  facet normal  0.000000e+000  0.000000e+000  1.000000e+000
    outer loop
      vertex  6.074721e+001  5.100050e+001  4.000000e-001
      vertex -4.919933e+001  5.100076e+001  4.000000e-001
      vertex  6.164684e+001  4.977535e+001  4.000000e-001
    endloop
  endfacet
  facet normal  0.000000e+000  0.000000e+000  1.000000e+000
    outer loop
      vertex  6.164684e+001  4.977535e+001  4.000000e-001
      vertex -4.919933e+001  5.100076e+001  4.000000e-001
      vertex -5.009897e+001  4.977564e+001  4.000000e-001
    endloop
  endfacet
  facet normal  0.000000e+000  0.000000e+000  1.000000e+000
    outer loop
      vertex  6.164684e+001  4.977535e+001  4.000000e-001
      vertex -5.009897e+001  4.977564e+001  4.000000e-001
      vertex  6.248326e+001  4.850621e+001  4.000000e-001
    endloop
  endfacet
  facet normal  0.000000e+000  0.000000e+000  1.000000e+000
    outer loop
      vertex  6.248326e+001  4.850621e+001  4.000000e-001
      vertex -5.009897e+001  4.977564e+001  4.000000e-001
      vertex -5.093539e+001  4.850653e+001  4.000000e-001
    endloop
  endfacet
  facet normal  0.000000e+000  0.000000e+000  1.000000e+000
    outer loop
      vertex  6.248326e+001  4.850621e+001  4.000000e-001
      vertex -5.093539e+001  4.850653e+001  4.000000e-001
      vertex  6.325433e+001  4.719633e+001  4.000000e-001
    endloop
  endfacet
  facet normal  0.000000e+000  0.000000e+000  1.000000e+000
    outer loop
      vertex  6.325433e+001  4.719633e+001  4.000000e-001
      vertex -5.093539e+001  4.850653e+001  4.000000e-001
      vertex -5.170647e+001  4.719668e+001  4.000000e-001
    endloop
  endfacet
  facet normal  0.000000e+000  0.000000e+000  1.000000e+000
    outer loop
      vertex  6.325433e+001  4.719633e+001  4.000000e-001
      vertex -5.170647e+001  4.719668e+001  4.000000e-001
      vertex  6.395806e+001  4.584909e+001  4.000000e-001
    endloop
  endfacet
  facet normal  0.000000e+000  0.000000e+000  1.000000e+000
    outer loop
      vertex  6.395806e+001  4.584909e+001  4.000000e-001
      vertex -5.170647e+001  4.719668e+001  4.000000e-001
      vertex -5.241021e+001  4.584946e+001  4.000000e-001
    endloop
  endfacet
  facet normal  0.000000e+000  0.000000e+000  1.000000e+000
    outer loop
      vertex  6.395806e+001  4.584909e+001  4.000000e-001
      vertex -5.241021e+001  4.584946e+001  4.000000e-001
      vertex  6.459265e+001  4.446793e+001  4.000000e-001
    endloop
  endfacet
  facet normal  0.000000e+000  0.000000e+000  1.000000e+000
    outer loop
      vertex  6.459265e+001  4.446793e+001  4.000000e-001
      vertex -5.241021e+001  4.584946e+001  4.000000e-001
      vertex -5.304482e+001  4.446833e+001  4.000000e-001
    endloop
  endfacet
  facet normal  0.000000e+000  0.000000e+000  9.999999e-001
    outer loop
      vertex  6.459265e+001  4.446793e+001  4.000000e-001
      vertex -5.304482e+001  4.446833e+001  4.000000e-001
      vertex  6.515648e+001  4.305639e+001  4.000000e-001
    endloop
  endfacet
  facet normal  0.000000e+000  0.000000e+000  1.000000e+000
    outer loop
      vertex  6.515648e+001  4.305639e+001  4.000000e-001
      vertex -5.304482e+001  4.446833e+001  4.000000e-001
      vertex -5.360865e+001  4.305682e+001  4.000000e-001
    endloop
  endfacet
  facet normal  0.000000e+000  0.000000e+000  1.000000e+000
    outer loop
      vertex  6.515648e+001  4.305639e+001  4.000000e-001
      vertex -5.360865e+001  4.305682e+001  4.000000e-001
      vertex  6.564808e+001  4.161812e+001  4.000000e-001
    endloop
  endfacet
  facet normal  0.000000e+000  0.000000e+000  1.000000e+000
    outer loop
      vertex  6.564808e+001  4.161812e+001  4.000000e-001
      vertex -5.360865e+001  4.305682e+001  4.000000e-001
      vertex -5.410027e+001  4.161857e+001  4.000000e-001
    endloop
  endfacet
  facet normal  0.000000e+000  0.000000e+000  1.000000e+000
    outer loop
      vertex  6.564808e+001  4.161812e+001  4.000000e-001
      vertex -5.410027e+001  4.161857e+001  4.000000e-001
      vertex  6.606621e+001  4.015679e+001  4.000000e-001
    endloop
  endfacet
  facet normal  0.000000e+000  0.000000e+000  1.000000e+000
    outer loop
      vertex  6.606621e+001  4.015679e+001  4.000000e-001
      vertex -5.410027e+001  4.161857e+001  4.000000e-001
      vertex -5.451842e+001  4.015726e+001  4.000000e-001
    endloop
  endfacet
  facet normal  0.000000e+000  0.000000e+000  1.000000e+000
    outer loop
      vertex  6.606621e+001  4.015679e+001  4.000000e-001
      vertex -5.451842e+001  4.015726e+001  4.000000e-001
      vertex  6.640978e+001  3.867616e+001  4.000000e-001
    endloop
  endfacet
  facet normal  0.000000e+000  0.000000e+000  1.000000e+000
    outer loop
      vertex  6.640978e+001  3.867616e+001  4.000000e-001
      vertex -5.451842e+001  4.015726e+001  4.000000e-001
      vertex -5.486201e+001  3.867665e+001  4.000000e-001
    endloop
  endfacet
  facet normal  0.000000e+000  0.000000e+000  1.000000e+000
    outer loop
      vertex  6.640978e+001  3.867616e+001  4.000000e-001
      vertex -5.486201e+001  3.867665e+001  4.000000e-001
      vertex  6.667793e+001  3.718002e+001  4.000000e-001
    endloop
  endfacet
  facet normal  0.000000e+000  0.000000e+000  1.000000e+000
    outer loop
      vertex  6.667793e+001  3.718002e+001  4.000000e-001
      vertex -5.486201e+001  3.867665e+001  4.000000e-001
      vertex -5.513018e+001  3.718055e+001  4.000000e-001
    endloop
  endfacet
  facet normal  0.000000e+000  0.000000e+000  1.000000e+000
    outer loop
      vertex  6.667793e+001  3.718002e+001  4.000000e-001
      vertex -5.513018e+001  3.718055e+001  4.000000e-001
      vertex  6.686994e+001  3.567223e+001  4.000000e-001
    endloop
  endfacet
  facet normal  0.000000e+000  0.000000e+000  1.000000e+000
    outer loop
      vertex  6.686994e+001  3.567223e+001  4.000000e-001
      vertex -5.513018e+001  3.718055e+001  4.000000e-001
      vertex -5.532222e+001  3.567277e+001  4.000000e-001
    endloop
  endfacet
  facet normal  0.000000e+000  0.000000e+000  1.000000e+000
    outer loop
      vertex  6.686994e+001  3.567223e+001  4.000000e-001
      vertex -5.532222e+001  3.567277e+001  4.000000e-001
      vertex  6.698534e+001  3.415664e+001  4.000000e-001
    endloop
  endfacet
  facet normal  0.000000e+000  0.000000e+000  1.000000e+000
    outer loop
      vertex  6.698534e+001  3.415664e+001  4.000000e-001
      vertex -5.532222e+001  3.567277e+001  4.000000e-001
      vertex -5.543765e+001  3.415721e+001  4.000000e-001
    endloop
  endfacet
  facet normal  0.000000e+000  0.000000e+000  1.000000e+000
    outer loop
      vertex  6.698534e+001  3.415664e+001  4.000000e-001
      vertex -5.543765e+001  3.415721e+001  4.000000e-001
      vertex  6.702383e+001  3.263716e+001  4.000000e-001
    endloop
  endfacet
  facet normal  0.000000e+000  0.000000e+000  1.000000e+000
    outer loop
      vertex  6.702383e+001  3.263716e+001  4.000000e-001
      vertex -5.543765e+001  3.415721e+001  4.000000e-001
      vertex -5.547617e+001  3.263774e+001  4.000000e-001
    endloop
  endfacet
  facet normal  0.000000e+000  0.000000e+000  9.999999e-001
    outer loop
      vertex  6.702383e+001  3.263716e+001  4.000000e-001
      vertex -5.547617e+001  3.263774e+001  4.000000e-001
      vertex  6.702354e+001  2.637450e+000  4.000000e-001
    endloop
  endfacet
  facet normal  0.000000e+000  0.000000e+000  1.000000e+000
    outer loop
      vertex  6.702354e+001  2.637450e+000  4.000000e-001
      vertex -5.547617e+001  3.263774e+001  4.000000e-001
      vertex -5.547646e+001  2.637450e+000  4.000000e-001
    endloop
  endfacet
  facet normal  0.000000e+000  0.000000e+000 -1.000000e+000
    outer loop
      vertex  5.876772e+001  5.330635e+001  0.000000e+000
      vertex -4.614507e+001  5.438133e+001  0.000000e+000
      vertex  5.769294e+001  5.438113e+001  0.000000e+000
    endloop
  endfacet
  facet normal  0.000000e+000  0.000000e+000 -1.000000e+000
    outer loop
      vertex  5.769294e+001  5.438113e+001  0.000000e+000
      vertex -4.614507e+001  5.438133e+001  0.000000e+000
      vertex -4.501724e+001  5.540028e+001  0.000000e+000
    endloop
  endfacet
  facet normal  0.000000e+000  0.000000e+000 -1.000000e+000
    outer loop
      vertex  5.769294e+001  5.438113e+001  0.000000e+000
      vertex -4.501724e+001  5.540028e+001  0.000000e+000
      vertex  5.656511e+001  5.540011e+001  0.000000e+000
    endloop
  endfacet
  facet normal  0.000000e+000  0.000000e+000 -1.000000e+000
    outer loop
      vertex  5.656511e+001  5.540011e+001  0.000000e+000
      vertex -4.501724e+001  5.540028e+001  0.000000e+000
      vertex -4.383925e+001  5.636080e+001  0.000000e+000
    endloop
  endfacet
  facet normal  0.000000e+000  0.000000e+000 -1.000000e+000
    outer loop
      vertex  5.656511e+001  5.540011e+001  0.000000e+000
      vertex -4.383925e+001  5.636080e+001  0.000000e+000
      vertex  5.538711e+001  5.636065e+001  0.000000e+000
    endloop
  endfacet
  facet normal  0.000000e+000  0.000000e+000 -1.000000e+000
    outer loop
      vertex  5.538711e+001  5.636065e+001  0.000000e+000
      vertex -4.383925e+001  5.636080e+001  0.000000e+000
      vertex -4.261412e+001  5.726042e+001  0.000000e+000
    endloop
  endfacet
  facet normal  0.000000e+000  0.000000e+000 -1.000000e+000
    outer loop
      vertex  5.538711e+001  5.636065e+001  0.000000e+000
      vertex -4.261412e+001  5.726042e+001  0.000000e+000
      vertex  5.416197e+001  5.726029e+001  0.000000e+000
    endloop
  endfacet
  facet normal  0.000000e+000  0.000000e+000 -1.000000e+000
    outer loop
      vertex  5.416197e+001  5.726029e+001  0.000000e+000
      vertex -4.261412e+001  5.726042e+001  0.000000e+000
      vertex -4.134500e+001  5.809683e+001  0.000000e+000
    endloop
  endfacet
  facet normal  0.000000e+000  0.000000e+000 -1.000000e+000
    outer loop
      vertex  5.416197e+001  5.726029e+001  0.000000e+000
      vertex -4.134500e+001  5.809683e+001  0.000000e+000
      vertex  5.289284e+001  5.809672e+001  0.000000e+000
    endloop
  endfacet
  facet normal  0.000000e+000  0.000000e+000 -1.000000e+000
    outer loop
      vertex  5.289284e+001  5.809672e+001  0.000000e+000
      vertex -4.134500e+001  5.809683e+001  0.000000e+000
      vertex -4.003514e+001  5.886789e+001  0.000000e+000
    endloop
  endfacet
  facet normal  0.000000e+000  0.000000e+000 -1.000000e+000
    outer loop
      vertex  5.289284e+001  5.809672e+001  0.000000e+000
      vertex -4.003514e+001  5.886789e+001  0.000000e+000
      vertex  5.158297e+001  5.886780e+001  0.000000e+000
    endloop
  endfacet
  facet normal  0.000000e+000  0.000000e+000 -1.000000e+000
    outer loop
      vertex  5.158297e+001  5.886780e+001  0.000000e+000
      vertex -4.003514e+001  5.886789e+001  0.000000e+000
      vertex -3.868792e+001  5.957162e+001  0.000000e+000
    endloop
  endfacet
  facet normal  0.000000e+000  0.000000e+000 -1.000000e+000
    outer loop
      vertex  5.158297e+001  5.886780e+001  0.000000e+000
      vertex -3.868792e+001  5.957162e+001  0.000000e+000
      vertex  5.023573e+001  5.957155e+001  0.000000e+000
    endloop
  endfacet
  facet normal  0.000000e+000  0.000000e+000 -1.000000e+000
    outer loop
      vertex  5.023573e+001  5.957155e+001  0.000000e+000
      vertex -3.868792e+001  5.957162e+001  0.000000e+000
      vertex -3.730677e+001  6.020621e+001  0.000000e+000
    endloop
  endfacet
  facet normal  0.000000e+000  0.000000e+000 -9.999999e-001
    outer loop
      vertex  5.023573e+001  5.957155e+001  0.000000e+000
      vertex -3.730677e+001  6.020621e+001  0.000000e+000
      vertex  4.885458e+001  6.020615e+001  0.000000e+000
    endloop
  endfacet
  facet normal  0.000000e+000  0.000000e+000 -1.000000e+000
    outer loop
      vertex  4.885458e+001  6.020615e+001  0.000000e+000
      vertex -3.730677e+001  6.020621e+001  0.000000e+000
      vertex -3.589526e+001  6.077003e+001  0.000000e+000
    endloop
  endfacet
  facet normal  0.000000e+000  0.000000e+000 -1.000000e+000
    outer loop
      vertex  4.885458e+001  6.020615e+001  0.000000e+000
      vertex -3.589526e+001  6.077003e+001  0.000000e+000
      vertex  4.744305e+001  6.076999e+001  0.000000e+000
    endloop
  endfacet
  facet normal  0.000000e+000  0.000000e+000 -9.999999e-001
    outer loop
      vertex  4.744305e+001  6.076999e+001  0.000000e+000
      vertex -3.589526e+001  6.077003e+001  0.000000e+000
      vertex -3.445700e+001  6.126165e+001  0.000000e+000
    endloop
  endfacet
  facet normal  0.000000e+000  0.000000e+000 -1.000000e+000
    outer loop
      vertex  4.744305e+001  6.076999e+001  0.000000e+000
      vertex -3.445700e+001  6.126165e+001  0.000000e+000
      vertex  4.600478e+001  6.126161e+001  0.000000e+000
    endloop
  endfacet
  facet normal  0.000000e+000  0.000000e+000 -1.000000e+000
    outer loop
      vertex  4.600478e+001  6.126161e+001  0.000000e+000
      vertex -3.445700e+001  6.126165e+001  0.000000e+000
      vertex -3.299570e+001  6.167978e+001  0.000000e+000
    endloop
  endfacet
  facet normal  0.000000e+000  0.000000e+000 -1.000000e+000
    outer loop
      vertex  4.600478e+001  6.126161e+001  0.000000e+000
      vertex -3.299570e+001  6.167978e+001  0.000000e+000
      vertex  4.454345e+001  6.167975e+001  0.000000e+000
    endloop
  endfacet
  facet normal  0.000000e+000  0.000000e+000 -1.000000e+000
    outer loop
      vertex  4.454345e+001  6.167975e+001  0.000000e+000
      vertex -3.299570e+001  6.167978e+001  0.000000e+000
      vertex -3.151509e+001  6.202336e+001  0.000000e+000
    endloop
  endfacet
  facet normal  0.000000e+000  0.000000e+000 -1.000000e+000
    outer loop
      vertex  4.454345e+001  6.167975e+001  0.000000e+000
      vertex -3.151509e+001  6.202336e+001  0.000000e+000
      vertex  4.306282e+001  6.202334e+001  0.000000e+000
    endloop
  endfacet
  facet normal  0.000000e+000  0.000000e+000 -1.000000e+000
    outer loop
      vertex  4.306282e+001  6.202334e+001  0.000000e+000
      vertex -3.151509e+001  6.202336e+001  0.000000e+000
      vertex -3.001897e+001  6.229150e+001  0.000000e+000
    endloop
  endfacet
  facet normal  0.000000e+000  0.000000e+000 -1.000000e+000
    outer loop
      vertex  4.306282e+001  6.202334e+001  0.000000e+000
      vertex -3.001897e+001  6.229150e+001  0.000000e+000
      vertex  4.156670e+001  6.229150e+001  0.000000e+000
    endloop
  endfacet
  facet normal  0.000000e+000  0.000000e+000 -1.000000e+000
    outer loop
      vertex  4.156670e+001  6.229150e+001  0.000000e+000
      vertex -3.001897e+001  6.229150e+001  0.000000e+000
      vertex -2.851120e+001  6.248353e+001  0.000000e+000
    endloop
  endfacet
  facet normal  0.000000e+000  0.000000e+000 -1.000000e+000
    outer loop
      vertex  4.156670e+001  6.229150e+001  0.000000e+000
      vertex -2.851120e+001  6.248353e+001  0.000000e+000
      vertex  4.005890e+001  6.248353e+001  0.000000e+000
    endloop
  endfacet
  facet normal  0.000000e+000  0.000000e+000 -1.000000e+000
    outer loop
      vertex  4.005890e+001  6.248353e+001  0.000000e+000
      vertex -2.851120e+001  6.248353e+001  0.000000e+000
      vertex -2.699563e+001  6.259895e+001  0.000000e+000
    endloop
  endfacet
  facet normal  0.000000e+000  0.000000e+000 -1.000000e+000
    outer loop
      vertex  4.005890e+001  6.248353e+001  0.000000e+000
      vertex -2.699563e+001  6.259895e+001  0.000000e+000
      vertex  3.854332e+001  6.259895e+001  0.000000e+000
    endloop
  endfacet
  facet normal  0.000000e+000  0.000000e+000 -1.000000e+000
    outer loop
      vertex  3.854332e+001  6.259895e+001  0.000000e+000
      vertex -2.699563e+001  6.259895e+001  0.000000e+000
      vertex -2.547617e+001  6.263745e+001  0.000000e+000
    endloop
  endfacet
  facet normal  0.000000e+000  0.000000e+000 -1.000000e+000
    outer loop
      vertex  3.854332e+001  6.259895e+001  0.000000e+000
      vertex -2.547617e+001  6.263745e+001  0.000000e+000
      vertex  3.702383e+001  6.263745e+001  0.000000e+000
    endloop
  endfacet
  facet normal  0.000000e+000  0.000000e+000 -1.000000e+000
    outer loop
      vertex -4.614507e+001  5.438133e+001  0.000000e+000
      vertex  5.876772e+001  5.330635e+001  0.000000e+000
      vertex -4.721984e+001  5.330657e+001  0.000000e+000
    endloop
  endfacet
  facet normal  0.000000e+000  0.000000e+000 -1.000000e+000
    outer loop
      vertex -4.721984e+001  5.330657e+001  0.000000e+000
      vertex  5.876772e+001  5.330635e+001  0.000000e+000
      vertex  5.978668e+001  5.217850e+001  0.000000e+000
    endloop
  endfacet
  facet normal  0.000000e+000  0.000000e+000 -1.000000e+000
    outer loop
      vertex -4.721984e+001  5.330657e+001  0.000000e+000
      vertex  5.978668e+001  5.217850e+001  0.000000e+000
      vertex -4.823880e+001  5.217875e+001  0.000000e+000
    endloop
  endfacet
  facet normal  0.000000e+000  0.000000e+000 -9.999999e-001
    outer loop
      vertex -4.823880e+001  5.217875e+001  0.000000e+000
      vertex  5.978668e+001  5.217850e+001  0.000000e+000
      vertex  6.074721e+001  5.100050e+001  0.000000e+000
    endloop
  endfacet
  facet normal  0.000000e+000  0.000000e+000 -1.000000e+000
    outer loop
      vertex -4.823880e+001  5.217875e+001  0.000000e+000
      vertex  6.074721e+001  5.100050e+001  0.000000e+000
      vertex -4.919933e+001  5.100076e+001  0.000000e+000
    endloop
  endfacet
  facet normal  0.000000e+000  0.000000e+000 -1.000000e+000
    outer loop
      vertex -4.919933e+001  5.100076e+001  0.000000e+000
      vertex  6.074721e+001  5.100050e+001  0.000000e+000
      vertex  6.164684e+001  4.977535e+001  0.000000e+000
    endloop
  endfacet
  facet normal  0.000000e+000  0.000000e+000 -1.000000e+000
    outer loop
      vertex -4.919933e+001  5.100076e+001  0.000000e+000
      vertex  6.164684e+001  4.977535e+001  0.000000e+000
      vertex -5.009897e+001  4.977564e+001  0.000000e+000
    endloop
  endfacet
  facet normal  0.000000e+000  0.000000e+000 -1.000000e+000
    outer loop
      vertex -5.009897e+001  4.977564e+001  0.000000e+000
      vertex  6.164684e+001  4.977535e+001  0.000000e+000
      vertex  6.248326e+001  4.850621e+001  0.000000e+000
    endloop
  endfacet
  facet normal  0.000000e+000  0.000000e+000 -1.000000e+000
    outer loop
      vertex -5.009897e+001  4.977564e+001  0.000000e+000
      vertex  6.248326e+001  4.850621e+001  0.000000e+000
      vertex -5.093539e+001  4.850653e+001  0.000000e+000
    endloop
  endfacet
  facet normal  0.000000e+000  0.000000e+000 -1.000000e+000
    outer loop
      vertex -5.093539e+001  4.850653e+001  0.000000e+000
      vertex  6.248326e+001  4.850621e+001  0.000000e+000
      vertex  6.325433e+001  4.719633e+001  0.000000e+000
    endloop
  endfacet
  facet normal  0.000000e+000  0.000000e+000 -1.000000e+000
    outer loop
      vertex -5.093539e+001  4.850653e+001  0.000000e+000
      vertex  6.325433e+001  4.719633e+001  0.000000e+000
      vertex -5.170647e+001  4.719668e+001  0.000000e+000
    endloop
  endfacet
  facet normal  0.000000e+000  0.000000e+000 -1.000000e+000
    outer loop
      vertex -5.170647e+001  4.719668e+001  0.000000e+000
      vertex  6.325433e+001  4.719633e+001  0.000000e+000
      vertex  6.395806e+001  4.584909e+001  0.000000e+000
    endloop
  endfacet
  facet normal  0.000000e+000  0.000000e+000 -1.000000e+000
    outer loop
      vertex -5.170647e+001  4.719668e+001  0.000000e+000
      vertex  6.395806e+001  4.584909e+001  0.000000e+000
      vertex -5.241021e+001  4.584946e+001  0.000000e+000
    endloop
  endfacet
  facet normal  0.000000e+000  0.000000e+000 -1.000000e+000
    outer loop
      vertex -5.241021e+001  4.584946e+001  0.000000e+000
      vertex  6.395806e+001  4.584909e+001  0.000000e+000
      vertex  6.459265e+001  4.446793e+001  0.000000e+000
    endloop
  endfacet
  facet normal  0.000000e+000  0.000000e+000 -1.000000e+000
    outer loop
      vertex -5.241021e+001  4.584946e+001  0.000000e+000
      vertex  6.459265e+001  4.446793e+001  0.000000e+000
      vertex -5.304482e+001  4.446833e+001  0.000000e+000
    endloop
  endfacet
  facet normal  0.000000e+000  0.000000e+000 -9.999999e-001
    outer loop
      vertex -5.304482e+001  4.446833e+001  0.000000e+000
      vertex  6.459265e+001  4.446793e+001  0.000000e+000
      vertex  6.515648e+001  4.305639e+001  0.000000e+000
    endloop
  endfacet
  facet normal  0.000000e+000  0.000000e+000 -1.000000e+000
    outer loop
      vertex -5.304482e+001  4.446833e+001  0.000000e+000
      vertex  6.515648e+001  4.305639e+001  0.000000e+000
      vertex -5.360865e+001  4.305682e+001  0.000000e+000
    endloop
  endfacet
  facet normal  0.000000e+000  0.000000e+000 -1.000000e+000
    outer loop
      vertex -5.360865e+001  4.305682e+001  0.000000e+000
      vertex  6.515648e+001  4.305639e+001  0.000000e+000
      vertex  6.564808e+001  4.161812e+001  0.000000e+000
    endloop
  endfacet
  facet normal  0.000000e+000  0.000000e+000 -1.000000e+000
    outer loop
      vertex -5.360865e+001  4.305682e+001  0.000000e+000
      vertex  6.564808e+001  4.161812e+001  0.000000e+000
      vertex -5.410027e+001  4.161857e+001  0.000000e+000
    endloop
  endfacet
  facet normal  0.000000e+000  0.000000e+000 -1.000000e+000
    outer loop
      vertex -5.410027e+001  4.161857e+001  0.000000e+000
      vertex  6.564808e+001  4.161812e+001  0.000000e+000
      vertex  6.606621e+001  4.015679e+001  0.000000e+000
    endloop
  endfacet
  facet normal  0.000000e+000  0.000000e+000 -1.000000e+000
    outer loop
      vertex -5.410027e+001  4.161857e+001  0.000000e+000
      vertex  6.606621e+001  4.015679e+001  0.000000e+000
      vertex -5.451842e+001  4.015726e+001  0.000000e+000
    endloop
  endfacet
  facet normal  0.000000e+000  0.000000e+000 -1.000000e+000
    outer loop
      vertex -5.451842e+001  4.015726e+001  0.000000e+000
      vertex  6.606621e+001  4.015679e+001  0.000000e+000
      vertex  6.640978e+001  3.867616e+001  0.000000e+000
    endloop
  endfacet
  facet normal  0.000000e+000  0.000000e+000 -1.000000e+000
    outer loop
      vertex -5.451842e+001  4.015726e+001  0.000000e+000
      vertex  6.640978e+001  3.867616e+001  0.000000e+000
      vertex -5.486201e+001  3.867665e+001  0.000000e+000
    endloop
  endfacet
  facet normal  0.000000e+000  0.000000e+000 -1.000000e+000
    outer loop
      vertex -5.486201e+001  3.867665e+001  0.000000e+000
      vertex  6.640978e+001  3.867616e+001  0.000000e+000
      vertex  6.667793e+001  3.718002e+001  0.000000e+000
    endloop
  endfacet
  facet normal  0.000000e+000  0.000000e+000 -1.000000e+000
    outer loop
      vertex -5.486201e+001  3.867665e+001  0.000000e+000
      vertex  6.667793e+001  3.718002e+001  0.000000e+000
      vertex -5.513018e+001  3.718055e+001  0.000000e+000
    endloop
  endfacet
  facet normal  0.000000e+000  0.000000e+000 -1.000000e+000
    outer loop
      vertex -5.513018e+001  3.718055e+001  0.000000e+000
      vertex  6.667793e+001  3.718002e+001  0.000000e+000
      vertex  6.686994e+001  3.567223e+001  0.000000e+000
    endloop
  endfacet
  facet normal  0.000000e+000  0.000000e+000 -1.000000e+000
    outer loop
      vertex -5.513018e+001  3.718055e+001  0.000000e+000
      vertex  6.686994e+001  3.567223e+001  0.000000e+000
      vertex -5.532222e+001  3.567277e+001  0.000000e+000
    endloop
  endfacet
  facet normal  0.000000e+000  0.000000e+000 -1.000000e+000
    outer loop
      vertex -5.532222e+001  3.567277e+001  0.000000e+000
      vertex  6.686994e+001  3.567223e+001  0.000000e+000
      vertex  6.698534e+001  3.415664e+001  0.000000e+000
    endloop
  endfacet
  facet normal  0.000000e+000  0.000000e+000 -1.000000e+000
    outer loop
      vertex -5.532222e+001  3.567277e+001  0.000000e+000
      vertex  6.698534e+001  3.415664e+001  0.000000e+000
      vertex -5.543765e+001  3.415721e+001  0.000000e+000
    endloop
  endfacet
  facet normal  0.000000e+000  0.000000e+000 -1.000000e+000
    outer loop
      vertex -5.543765e+001  3.415721e+001  0.000000e+000
      vertex  6.698534e+001  3.415664e+001  0.000000e+000
      vertex  6.702383e+001  3.263716e+001  0.000000e+000
    endloop
  endfacet
  facet normal  0.000000e+000  0.000000e+000 -1.000000e+000
    outer loop
      vertex -5.543765e+001  3.415721e+001  0.000000e+000
      vertex  6.702383e+001  3.263716e+001  0.000000e+000
      vertex -5.547617e+001  3.263774e+001  0.000000e+000
    endloop
  endfacet
  facet normal  0.000000e+000  0.000000e+000 -9.999999e-001
    outer loop
      vertex -5.547617e+001  3.263774e+001  0.000000e+000
      vertex  6.702383e+001  3.263716e+001  0.000000e+000
      vertex  6.702354e+001  2.637450e+000  0.000000e+000
    endloop
  endfacet
  facet normal  0.000000e+000  0.000000e+000 -1.000000e+000
    outer loop
      vertex -5.547617e+001  3.263774e+001  0.000000e+000
      vertex  6.702354e+001  2.637450e+000  0.000000e+000
      vertex -5.547646e+001  2.637450e+000  0.000000e+000
    endloop
  endfacet
  facet normal -9.999999e-001  9.790960e-006  0.000000e+000
    outer loop
      vertex -5.547617e+001  3.263774e+001  4.000000e-001
      vertex -5.547617e+001  3.263774e+001  0.000000e+000
      vertex -5.547646e+001  2.637450e+000  4.000000e-001
    endloop
  endfacet
  facet normal -9.999999e-001  9.790960e-006  0.000000e+000
    outer loop
      vertex -5.547646e+001  2.637450e+000  4.000000e-001
      vertex -5.547617e+001  3.263774e+001  0.000000e+000
      vertex -5.547646e+001  2.637450e+000  0.000000e+000
    endloop
  endfacet
  facet normal -9.996788e-001  2.534095e-002  0.000000e+000
    outer loop
      vertex -5.547617e+001  3.263774e+001  0.000000e+000
      vertex -5.547617e+001  3.263774e+001  4.000000e-001
      vertex -5.543765e+001  3.415721e+001  0.000000e+000
    endloop
  endfacet
  facet normal -9.996788e-001  2.534095e-002  0.000000e+000
    outer loop
      vertex -5.543765e+001  3.415721e+001  0.000000e+000
      vertex -5.547617e+001  3.263774e+001  4.000000e-001
      vertex -5.543765e+001  3.415721e+001  4.000000e-001
    endloop
  endfacet
  facet normal -9.971122e-001  7.594242e-002  0.000000e+000
    outer loop
      vertex -5.543765e+001  3.415721e+001  0.000000e+000
      vertex -5.543765e+001  3.415721e+001  4.000000e-001
      vertex -5.532222e+001  3.567277e+001  0.000000e+000
    endloop
  endfacet
  facet normal -9.971122e-001  7.594242e-002  0.000000e+000
    outer loop
      vertex -5.532222e+001  3.567277e+001  0.000000e+000
      vertex -5.543765e+001  3.415721e+001  4.000000e-001
      vertex -5.532222e+001  3.567277e+001  4.000000e-001
    endloop
  endfacet
  facet normal -9.919860e-001  1.263480e-001  0.000000e+000
    outer loop
      vertex -5.532222e+001  3.567277e+001  0.000000e+000
      vertex -5.532222e+001  3.567277e+001  4.000000e-001
      vertex -5.513018e+001  3.718055e+001  0.000000e+000
    endloop
  endfacet
  facet normal -9.919860e-001  1.263480e-001  0.000000e+000
    outer loop
      vertex -5.513018e+001  3.718055e+001  0.000000e+000
      vertex -5.532222e+001  3.567277e+001  4.000000e-001
      vertex -5.513018e+001  3.718055e+001  4.000000e-001
    endloop
  endfacet
  facet normal -9.843135e-001  1.764278e-001  0.000000e+000
    outer loop
      vertex -5.513018e+001  3.718055e+001  0.000000e+000
      vertex -5.513018e+001  3.718055e+001  4.000000e-001
      vertex -5.486201e+001  3.867665e+001  0.000000e+000
    endloop
  endfacet
  facet normal -9.843135e-001  1.764278e-001  0.000000e+000
    outer loop
      vertex -5.486201e+001  3.867665e+001  0.000000e+000
      vertex -5.513018e+001  3.718055e+001  4.000000e-001
      vertex -5.486201e+001  3.867665e+001  4.000000e-001
    endloop
  endfacet
  facet normal -9.741139e-001  2.260575e-001  0.000000e+000
    outer loop
      vertex -5.486201e+001  3.867665e+001  0.000000e+000
      vertex -5.486201e+001  3.867665e+001  4.000000e-001
      vertex -5.451842e+001  4.015726e+001  0.000000e+000
    endloop
  endfacet
  facet normal -9.741139e-001  2.260575e-001  0.000000e+000
    outer loop
      vertex -5.451842e+001  4.015726e+001  0.000000e+000
      vertex -5.486201e+001  3.867665e+001  4.000000e-001
      vertex -5.451842e+001  4.015726e+001  4.000000e-001
    endloop
  endfacet
  facet normal -9.614146e-001  2.751036e-001  0.000000e+000
    outer loop
      vertex -5.451842e+001  4.015726e+001  0.000000e+000
      vertex -5.451842e+001  4.015726e+001  4.000000e-001
      vertex -5.410027e+001  4.161857e+001  0.000000e+000
    endloop
  endfacet
  facet normal -9.614146e-001  2.751036e-001  0.000000e+000
    outer loop
      vertex -5.410027e+001  4.161857e+001  0.000000e+000
      vertex -5.451842e+001  4.015726e+001  4.000000e-001
      vertex -5.410027e+001  4.161857e+001  4.000000e-001
    endloop
  endfacet
  facet normal -9.462466e-001  3.234459e-001  0.000000e+000
    outer loop
      vertex -5.410027e+001  4.161857e+001  0.000000e+000
      vertex -5.410027e+001  4.161857e+001  4.000000e-001
      vertex -5.360865e+001  4.305682e+001  0.000000e+000
    endloop
  endfacet
  facet normal -9.462466e-001  3.234459e-001  0.000000e+000
    outer loop
      vertex -5.360865e+001  4.305682e+001  0.000000e+000
      vertex -5.410027e+001  4.161857e+001  4.000000e-001
      vertex -5.360865e+001  4.305682e+001  4.000000e-001
    endloop
  endfacet
  facet normal -9.286507e-001  3.709553e-001  0.000000e+000
    outer loop
      vertex -5.360865e+001  4.305682e+001  0.000000e+000
      vertex -5.360865e+001  4.305682e+001  4.000000e-001
      vertex -5.304482e+001  4.446833e+001  0.000000e+000
    endloop
  endfacet
  facet normal -9.286507e-001  3.709553e-001  0.000000e+000
    outer loop
      vertex -5.304482e+001  4.446833e+001  0.000000e+000
      vertex -5.360865e+001  4.305682e+001  4.000000e-001
      vertex -5.304482e+001  4.446833e+001  4.000000e-001
    endloop
  endfacet
  facet normal -9.086694e-001  4.175166e-001  0.000000e+000
    outer loop
      vertex -5.304482e+001  4.446833e+001  0.000000e+000
      vertex -5.304482e+001  4.446833e+001  4.000000e-001
      vertex -5.241021e+001  4.584946e+001  0.000000e+000
    endloop
  endfacet
  facet normal -9.086694e-001  4.175166e-001  0.000000e+000
    outer loop
      vertex -5.241021e+001  4.584946e+001  0.000000e+000
      vertex -5.304482e+001  4.446833e+001  4.000000e-001
      vertex -5.241021e+001  4.584946e+001  4.000000e-001
    endloop
  endfacet
  facet normal -8.863578e-001  4.630009e-001  0.000000e+000
    outer loop
      vertex -5.241021e+001  4.584946e+001  0.000000e+000
      vertex -5.241021e+001  4.584946e+001  4.000000e-001
      vertex -5.170647e+001  4.719668e+001  0.000000e+000
    endloop
  endfacet
  facet normal -8.863578e-001  4.630009e-001  0.000000e+000
    outer loop
      vertex -5.170647e+001  4.719668e+001  0.000000e+000
      vertex -5.241021e+001  4.584946e+001  4.000000e-001
      vertex -5.170647e+001  4.719668e+001  4.000000e-001
    endloop
  endfacet
  facet normal -8.617683e-001  5.073021e-001  0.000000e+000
    outer loop
      vertex -5.170647e+001  4.719668e+001  0.000000e+000
      vertex -5.170647e+001  4.719668e+001  4.000000e-001
      vertex -5.093539e+001  4.850653e+001  0.000000e+000
    endloop
  endfacet
  facet normal -8.617683e-001  5.073021e-001  0.000000e+000
    outer loop
      vertex -5.093539e+001  4.850653e+001  0.000000e+000
      vertex -5.170647e+001  4.719668e+001  4.000000e-001
      vertex -5.093539e+001  4.850653e+001  4.000000e-001
    endloop
  endfacet
  facet normal -8.349686e-001  5.502977e-001  0.000000e+000
    outer loop
      vertex -5.093539e+001  4.850653e+001  0.000000e+000
      vertex -5.093539e+001  4.850653e+001  4.000000e-001
      vertex -5.009897e+001  4.977564e+001  0.000000e+000
    endloop
  endfacet
  facet normal -8.349686e-001  5.502977e-001  0.000000e+000
    outer loop
      vertex -5.009897e+001  4.977564e+001  0.000000e+000
      vertex -5.093539e+001  4.850653e+001  4.000000e-001
      vertex -5.009897e+001  4.977564e+001  4.000000e-001
    endloop
  endfacet
  facet normal -8.060241e-001  5.918828e-001  0.000000e+000
    outer loop
      vertex -5.009897e+001  4.977564e+001  0.000000e+000
      vertex -5.009897e+001  4.977564e+001  4.000000e-001
      vertex -4.919933e+001  5.100076e+001  0.000000e+000
    endloop
  endfacet
  facet normal -8.060241e-001  5.918828e-001  0.000000e+000
    outer loop
      vertex -4.919933e+001  5.100076e+001  0.000000e+000
      vertex -5.009897e+001  4.977564e+001  4.000000e-001
      vertex -4.919933e+001  5.100076e+001  4.000000e-001
    endloop
  endfacet
  facet normal -7.750120e-001  6.319465e-001  0.000000e+000
    outer loop
      vertex -4.919933e+001  5.100076e+001  0.000000e+000
      vertex -4.919933e+001  5.100076e+001  4.000000e-001
      vertex -4.823880e+001  5.217875e+001  0.000000e+000
    endloop
  endfacet
  facet normal -7.750120e-001  6.319465e-001  0.000000e+000
    outer loop
      vertex -4.823880e+001  5.217875e+001  0.000000e+000
      vertex -4.919933e+001  5.100076e+001  4.000000e-001
      vertex -4.823880e+001  5.217875e+001  4.000000e-001
    endloop
  endfacet
  facet normal -7.420109e-001  6.703878e-001  0.000000e+000
    outer loop
      vertex -4.823880e+001  5.217875e+001  0.000000e+000
      vertex -4.823880e+001  5.217875e+001  4.000000e-001
      vertex -4.721984e+001  5.330657e+001  0.000000e+000
    endloop
  endfacet
  facet normal -7.420109e-001  6.703878e-001  0.000000e+000
    outer loop
      vertex -4.721984e+001  5.330657e+001  0.000000e+000
      vertex -4.823880e+001  5.217875e+001  4.000000e-001
      vertex -4.721984e+001  5.330657e+001  4.000000e-001
    endloop
  endfacet
  facet normal -7.071042e-001  7.071092e-001  0.000000e+000
    outer loop
      vertex -4.721984e+001  5.330657e+001  0.000000e+000
      vertex -4.721984e+001  5.330657e+001  4.000000e-001
      vertex -4.614507e+001  5.438133e+001  0.000000e+000
    endloop
  endfacet
  facet normal -7.071042e-001  7.071092e-001  0.000000e+000
    outer loop
      vertex -4.614507e+001  5.438133e+001  0.000000e+000
      vertex -4.721984e+001  5.330657e+001  4.000000e-001
      vertex -4.614507e+001  5.438133e+001  4.000000e-001
    endloop
  endfacet
  facet normal -6.703812e-001  7.420169e-001  0.000000e+000
    outer loop
      vertex -4.614507e+001  5.438133e+001  0.000000e+000
      vertex -4.614507e+001  5.438133e+001  4.000000e-001
      vertex -4.501724e+001  5.540028e+001  0.000000e+000
    endloop
  endfacet
  facet normal -6.703812e-001  7.420169e-001  0.000000e+000
    outer loop
      vertex -4.501724e+001  5.540028e+001  0.000000e+000
      vertex -4.614507e+001  5.438133e+001  4.000000e-001
      vertex -4.501724e+001  5.540028e+001  4.000000e-001
    endloop
  endfacet
  facet normal -6.319383e-001  7.750188e-001  0.000000e+000
    outer loop
      vertex -4.501724e+001  5.540028e+001  0.000000e+000
      vertex -4.501724e+001  5.540028e+001  4.000000e-001
      vertex -4.383925e+001  5.636080e+001  0.000000e+000
    endloop
  endfacet
  facet normal -6.319383e-001  7.750188e-001  0.000000e+000
    outer loop
      vertex -4.383925e+001  5.636080e+001  0.000000e+000
      vertex -4.501724e+001  5.540028e+001  4.000000e-001
      vertex -4.383925e+001  5.636080e+001  4.000000e-001
    endloop
  endfacet
  facet normal -5.918738e-001  8.060306e-001  0.000000e+000
    outer loop
      vertex -4.383925e+001  5.636080e+001  0.000000e+000
      vertex -4.383925e+001  5.636080e+001  4.000000e-001
      vertex -4.261412e+001  5.726042e+001  0.000000e+000
    endloop
  endfacet
  facet normal -5.918738e-001  8.060306e-001  0.000000e+000
    outer loop
      vertex -4.261412e+001  5.726042e+001  0.000000e+000
      vertex -4.383925e+001  5.636080e+001  4.000000e-001
      vertex -4.261412e+001  5.726042e+001  4.000000e-001
    endloop
  endfacet
  facet normal -5.502890e-001  8.349742e-001  0.000000e+000
    outer loop
      vertex -4.261412e+001  5.726042e+001  0.000000e+000
      vertex -4.261412e+001  5.726042e+001  4.000000e-001
      vertex -4.134500e+001  5.809683e+001  0.000000e+000
    endloop
  endfacet
  facet normal -5.502890e-001  8.349742e-001  0.000000e+000
    outer loop
      vertex -4.134500e+001  5.809683e+001  0.000000e+000
      vertex -4.261412e+001  5.726042e+001  4.000000e-001
      vertex -4.134500e+001  5.809683e+001  4.000000e-001
    endloop
  endfacet
  facet normal -5.072935e-001  8.617733e-001  0.000000e+000
    outer loop
      vertex -4.134500e+001  5.809683e+001  0.000000e+000
      vertex -4.134500e+001  5.809683e+001  4.000000e-001
      vertex -4.003514e+001  5.886789e+001  0.000000e+000
    endloop
  endfacet
  facet normal -5.072935e-001  8.617733e-001  0.000000e+000
    outer loop
      vertex -4.003514e+001  5.886789e+001  0.000000e+000
      vertex -4.134500e+001  5.809683e+001  4.000000e-001
      vertex -4.003514e+001  5.886789e+001  4.000000e-001
    endloop
  endfacet
  facet normal -4.629949e-001  8.863610e-001  0.000000e+000
    outer loop
      vertex -4.003514e+001  5.886789e+001  0.000000e+000
      vertex -4.003514e+001  5.886789e+001  4.000000e-001
      vertex -3.868792e+001  5.957162e+001  0.000000e+000
    endloop
  endfacet
  facet normal -4.629949e-001  8.863610e-001  0.000000e+000
    outer loop
      vertex -3.868792e+001  5.957162e+001  0.000000e+000
      vertex -4.003514e+001  5.886789e+001  4.000000e-001
      vertex -3.868792e+001  5.957162e+001  4.000000e-001
    endloop
  endfacet
  facet normal -4.175064e-001  9.086739e-001  0.000000e+000
    outer loop
      vertex -3.868792e+001  5.957162e+001  0.000000e+000
      vertex -3.868792e+001  5.957162e+001  4.000000e-001
      vertex -3.730677e+001  6.020621e+001  0.000000e+000
    endloop
  endfacet
  facet normal -4.175064e-001  9.086739e-001  0.000000e+000
    outer loop
      vertex -3.730677e+001  6.020621e+001  0.000000e+000
      vertex -3.868792e+001  5.957162e+001  4.000000e-001
      vertex -3.730677e+001  6.020621e+001  4.000000e-001
    endloop
  endfacet
  facet normal -3.709458e-001  9.286546e-001  0.000000e+000
    outer loop
      vertex -3.730677e+001  6.020621e+001  0.000000e+000
      vertex -3.730677e+001  6.020621e+001  4.000000e-001
      vertex -3.589526e+001  6.077003e+001  0.000000e+000
    endloop
  endfacet
  facet normal -3.709458e-001  9.286546e-001  0.000000e+000
    outer loop
      vertex -3.589526e+001  6.077003e+001  0.000000e+000
      vertex -3.730677e+001  6.020621e+001  4.000000e-001
      vertex -3.589526e+001  6.077003e+001  4.000000e-001
    endloop
  endfacet
  facet normal -3.234376e-001  9.462495e-001  0.000000e+000
    outer loop
      vertex -3.589526e+001  6.077003e+001  0.000000e+000
      vertex -3.589526e+001  6.077003e+001  4.000000e-001
      vertex -3.445700e+001  6.126165e+001  0.000000e+000
    endloop
  endfacet
  facet normal -3.234376e-001  9.462495e-001  0.000000e+000
    outer loop
      vertex -3.445700e+001  6.126165e+001  0.000000e+000
      vertex -3.589526e+001  6.077003e+001  4.000000e-001
      vertex -3.445700e+001  6.126165e+001  4.000000e-001
    endloop
  endfacet
  facet normal -2.750937e-001  9.614174e-001  0.000000e+000
    outer loop
      vertex -3.445700e+001  6.126165e+001  0.000000e+000
      vertex -3.445700e+001  6.126165e+001  4.000000e-001
      vertex -3.299570e+001  6.167978e+001  0.000000e+000
    endloop
  endfacet
  facet normal -2.750937e-001  9.614174e-001  0.000000e+000
    outer loop
      vertex -3.299570e+001  6.167978e+001  0.000000e+000
      vertex -3.445700e+001  6.126165e+001  4.000000e-001
      vertex -3.299570e+001  6.167978e+001  4.000000e-001
    endloop
  endfacet
  facet normal -2.260477e-001  9.741162e-001  0.000000e+000
    outer loop
      vertex -3.299570e+001  6.167978e+001  0.000000e+000
      vertex -3.299570e+001  6.167978e+001  4.000000e-001
      vertex -3.151509e+001  6.202336e+001  0.000000e+000
    endloop
  endfacet
  facet normal -2.260477e-001  9.741162e-001  0.000000e+000
    outer loop
      vertex -3.151509e+001  6.202336e+001  0.000000e+000
      vertex -3.299570e+001  6.167978e+001  4.000000e-001
      vertex -3.151509e+001  6.202336e+001  4.000000e-001
    endloop
  endfacet
  facet normal -1.764177e-001  9.843153e-001  0.000000e+000
    outer loop
      vertex -3.151509e+001  6.202336e+001  0.000000e+000
      vertex -3.151509e+001  6.202336e+001  4.000000e-001
      vertex -3.001897e+001  6.229150e+001  0.000000e+000
    endloop
  endfacet
  facet normal -1.764177e-001  9.843153e-001  0.000000e+000
    outer loop
      vertex -3.001897e+001  6.229150e+001  0.000000e+000
      vertex -3.151509e+001  6.202336e+001  4.000000e-001
      vertex -3.001897e+001  6.229150e+001  4.000000e-001
    endloop
  endfacet
  facet normal -1.263381e-001  9.919872e-001  0.000000e+000
    outer loop
      vertex -3.001897e+001  6.229150e+001  0.000000e+000
      vertex -3.001897e+001  6.229150e+001  4.000000e-001
      vertex -2.851120e+001  6.248353e+001  0.000000e+000
    endloop
  endfacet
  facet normal -1.263381e-001  9.919872e-001  0.000000e+000
    outer loop
      vertex -2.851120e+001  6.248353e+001  0.000000e+000
      vertex -3.001897e+001  6.229150e+001  4.000000e-001
      vertex -2.851120e+001  6.248353e+001  4.000000e-001
    endloop
  endfacet
  facet normal -7.593233e-002  9.971129e-001  0.000000e+000
    outer loop
      vertex -2.851120e+001  6.248353e+001  0.000000e+000
      vertex -2.851120e+001  6.248353e+001  4.000000e-001
      vertex -2.699563e+001  6.259895e+001  0.000000e+000
    endloop
  endfacet
  facet normal -7.593233e-002  9.971129e-001  0.000000e+000
    outer loop
      vertex -2.699563e+001  6.259895e+001  0.000000e+000
      vertex -2.851120e+001  6.248353e+001  4.000000e-001
      vertex -2.699563e+001  6.259895e+001  4.000000e-001
    endloop
  endfacet
  facet normal -2.533340e-002  9.996790e-001  0.000000e+000
    outer loop
      vertex -2.699563e+001  6.259895e+001  0.000000e+000
      vertex -2.699563e+001  6.259895e+001  4.000000e-001
      vertex -2.547617e+001  6.263745e+001  0.000000e+000
    endloop
  endfacet
  facet normal -2.533340e-002  9.996790e-001  0.000000e+000
    outer loop
      vertex -2.547617e+001  6.263745e+001  0.000000e+000
      vertex -2.699563e+001  6.259895e+001  4.000000e-001
      vertex -2.547617e+001  6.263745e+001  4.000000e-001
    endloop
  endfacet
  facet normal  0.000000e+000  1.000000e+000  -0.000000e+000
    outer loop
      vertex  3.702383e+001  6.263745e+001  4.000000e-001
      vertex  3.702383e+001  6.263745e+001  0.000000e+000
      vertex -2.547617e+001  6.263745e+001  4.000000e-001
    endloop
  endfacet
  facet normal  0.000000e+000  1.000000e+000  0.000000e+000
    outer loop
      vertex -2.547617e+001  6.263745e+001  4.000000e-001
      vertex  3.702383e+001  6.263745e+001  0.000000e+000
      vertex -2.547617e+001  6.263745e+001  0.000000e+000
    endloop
  endfacet
  facet normal  2.533311e-002  9.996790e-001  0.000000e+000
    outer loop
      vertex  3.702383e+001  6.263745e+001  0.000000e+000
      vertex  3.702383e+001  6.263745e+001  4.000000e-001
      vertex  3.854332e+001  6.259895e+001  0.000000e+000
    endloop
  endfacet
  facet normal  2.533311e-002  9.996790e-001  -0.000000e+000
    outer loop
      vertex  3.854332e+001  6.259895e+001  0.000000e+000
      vertex  3.702383e+001  6.263745e+001  4.000000e-001
      vertex  3.854332e+001  6.259895e+001  4.000000e-001
    endloop
  endfacet
  facet normal  7.593380e-002  9.971129e-001  0.000000e+000
    outer loop
      vertex  3.854332e+001  6.259895e+001  0.000000e+000
      vertex  3.854332e+001  6.259895e+001  4.000000e-001
      vertex  4.005890e+001  6.248353e+001  0.000000e+000
    endloop
  endfacet
  facet normal  7.593380e-002  9.971129e-001  -0.000000e+000
    outer loop
      vertex  4.005890e+001  6.248353e+001  0.000000e+000
      vertex  3.854332e+001  6.259895e+001  4.000000e-001
      vertex  4.005890e+001  6.248353e+001  4.000000e-001
    endloop
  endfacet
  facet normal  1.263390e-001  9.919871e-001  0.000000e+000
    outer loop
      vertex  4.005890e+001  6.248353e+001  0.000000e+000
      vertex  4.005890e+001  6.248353e+001  4.000000e-001
      vertex  4.156670e+001  6.229150e+001  0.000000e+000
    endloop
  endfacet
  facet normal  1.263390e-001  9.919871e-001  -0.000000e+000
    outer loop
      vertex  4.156670e+001  6.229150e+001  0.000000e+000
      vertex  4.005890e+001  6.248353e+001  4.000000e-001
      vertex  4.156670e+001  6.229150e+001  4.000000e-001
    endloop
  endfacet
  facet normal  1.764208e-001  9.843149e-001  0.000000e+000
    outer loop
      vertex  4.156670e+001  6.229150e+001  0.000000e+000
      vertex  4.156670e+001  6.229150e+001  4.000000e-001
      vertex  4.306282e+001  6.202334e+001  0.000000e+000
    endloop
  endfacet
  facet normal  1.764208e-001  9.843149e-001  -0.000000e+000
    outer loop
      vertex  4.306282e+001  6.202334e+001  0.000000e+000
      vertex  4.156670e+001  6.229150e+001  4.000000e-001
      vertex  4.306282e+001  6.202334e+001  4.000000e-001
    endloop
  endfacet
  facet normal  2.260500e-001  9.741157e-001  0.000000e+000
    outer loop
      vertex  4.306282e+001  6.202334e+001  0.000000e+000
      vertex  4.306282e+001  6.202334e+001  4.000000e-001
      vertex  4.454345e+001  6.167975e+001  0.000000e+000
    endloop
  endfacet
  facet normal  2.260500e-001  9.741157e-001  -0.000000e+000
    outer loop
      vertex  4.454345e+001  6.167975e+001  0.000000e+000
      vertex  4.306282e+001  6.202334e+001  4.000000e-001
      vertex  4.454345e+001  6.167975e+001  4.000000e-001
    endloop
  endfacet
  facet normal  2.750973e-001  9.614164e-001  0.000000e+000
    outer loop
      vertex  4.454345e+001  6.167975e+001  0.000000e+000
      vertex  4.454345e+001  6.167975e+001  4.000000e-001
      vertex  4.600478e+001  6.126161e+001  0.000000e+000
    endloop
  endfacet
  facet normal  2.750973e-001  9.614164e-001  -0.000000e+000
    outer loop
      vertex  4.600478e+001  6.126161e+001  0.000000e+000
      vertex  4.454345e+001  6.167975e+001  4.000000e-001
      vertex  4.600478e+001  6.126161e+001  4.000000e-001
    endloop
  endfacet
  facet normal  3.234413e-001  9.462482e-001  0.000000e+000
    outer loop
      vertex  4.600478e+001  6.126161e+001  0.000000e+000
      vertex  4.600478e+001  6.126161e+001  4.000000e-001
      vertex  4.744305e+001  6.076999e+001  0.000000e+000
    endloop
  endfacet
  facet normal  3.234413e-001  9.462482e-001  -0.000000e+000
    outer loop
      vertex  4.744305e+001  6.076999e+001  0.000000e+000
      vertex  4.600478e+001  6.126161e+001  4.000000e-001
      vertex  4.744305e+001  6.076999e+001  4.000000e-001
    endloop
  endfacet
  facet normal  3.709510e-001  9.286524e-001  0.000000e+000
    outer loop
      vertex  4.744305e+001  6.076999e+001  0.000000e+000
      vertex  4.744305e+001  6.076999e+001  4.000000e-001
      vertex  4.885458e+001  6.020615e+001  0.000000e+000
    endloop
  endfacet
  facet normal  3.709510e-001  9.286524e-001  -0.000000e+000
    outer loop
      vertex  4.885458e+001  6.020615e+001  0.000000e+000
      vertex  4.744305e+001  6.076999e+001  4.000000e-001
      vertex  4.885458e+001  6.020615e+001  4.000000e-001
    endloop
  endfacet
  facet normal  4.175119e-001  9.086716e-001  0.000000e+000
    outer loop
      vertex  4.885458e+001  6.020615e+001  0.000000e+000
      vertex  4.885458e+001  6.020615e+001  4.000000e-001
      vertex  5.023573e+001  5.957155e+001  0.000000e+000
    endloop
  endfacet
  facet normal  4.175119e-001  9.086716e-001  -0.000000e+000
    outer loop
      vertex  5.023573e+001  5.957155e+001  0.000000e+000
      vertex  4.885458e+001  6.020615e+001  4.000000e-001
      vertex  5.023573e+001  5.957155e+001  4.000000e-001
    endloop
  endfacet
  facet normal  4.629997e-001  8.863584e-001  0.000000e+000
    outer loop
      vertex  5.023573e+001  5.957155e+001  0.000000e+000
      vertex  5.023573e+001  5.957155e+001  4.000000e-001
      vertex  5.158297e+001  5.886780e+001  0.000000e+000
    endloop
  endfacet
  facet normal  4.629997e-001  8.863584e-001  -0.000000e+000
    outer loop
      vertex  5.158297e+001  5.886780e+001  0.000000e+000
      vertex  5.023573e+001  5.957155e+001  4.000000e-001
      vertex  5.158297e+001  5.886780e+001  4.000000e-001
    endloop
  endfacet
  facet normal  5.072985e-001  8.617705e-001  0.000000e+000
    outer loop
      vertex  5.158297e+001  5.886780e+001  0.000000e+000
      vertex  5.158297e+001  5.886780e+001  4.000000e-001
      vertex  5.289284e+001  5.809672e+001  0.000000e+000
    endloop
  endfacet
  facet normal  5.072985e-001  8.617705e-001  -0.000000e+000
    outer loop
      vertex  5.289284e+001  5.809672e+001  0.000000e+000
      vertex  5.158297e+001  5.886780e+001  4.000000e-001
      vertex  5.289284e+001  5.809672e+001  4.000000e-001
    endloop
  endfacet
  facet normal  5.502954e-001  8.349700e-001  0.000000e+000
    outer loop
      vertex  5.289284e+001  5.809672e+001  0.000000e+000
      vertex  5.289284e+001  5.809672e+001  4.000000e-001
      vertex  5.416197e+001  5.726029e+001  0.000000e+000
    endloop
  endfacet
  facet normal  5.502954e-001  8.349700e-001  -0.000000e+000
    outer loop
      vertex  5.416197e+001  5.726029e+001  0.000000e+000
      vertex  5.289284e+001  5.809672e+001  4.000000e-001
      vertex  5.416197e+001  5.726029e+001  4.000000e-001
    endloop
  endfacet
  facet normal  5.918800e-001  8.060261e-001  0.000000e+000
    outer loop
      vertex  5.416197e+001  5.726029e+001  0.000000e+000
      vertex  5.416197e+001  5.726029e+001  4.000000e-001
      vertex  5.538711e+001  5.636065e+001  0.000000e+000
    endloop
  endfacet
  facet normal  5.918800e-001  8.060261e-001  -0.000000e+000
    outer loop
      vertex  5.538711e+001  5.636065e+001  0.000000e+000
      vertex  5.416197e+001  5.726029e+001  4.000000e-001
      vertex  5.538711e+001  5.636065e+001  4.000000e-001
    endloop
  endfacet
  facet normal  6.319445e-001  7.750136e-001  0.000000e+000
    outer loop
      vertex  5.538711e+001  5.636065e+001  0.000000e+000
      vertex  5.538711e+001  5.636065e+001  4.000000e-001
      vertex  5.656511e+001  5.540011e+001  0.000000e+000
    endloop
  endfacet
  facet normal  6.319445e-001  7.750136e-001  -0.000000e+000
    outer loop
      vertex  5.656511e+001  5.540011e+001  0.000000e+000
      vertex  5.538711e+001  5.636065e+001  4.000000e-001
      vertex  5.656511e+001  5.540011e+001  4.000000e-001
    endloop
  endfacet
  facet normal  6.703897e-001  7.420093e-001  0.000000e+000
    outer loop
      vertex  5.656511e+001  5.540011e+001  0.000000e+000
      vertex  5.656511e+001  5.540011e+001  4.000000e-001
      vertex  5.769294e+001  5.438113e+001  0.000000e+000
    endloop
  endfacet
  facet normal  6.703897e-001  7.420093e-001  -0.000000e+000
    outer loop
      vertex  5.769294e+001  5.438113e+001  0.000000e+000
      vertex  5.656511e+001  5.540011e+001  4.000000e-001
      vertex  5.769294e+001  5.438113e+001  4.000000e-001
    endloop
  endfacet
  facet normal  7.071106e-001  7.071030e-001  0.000000e+000
    outer loop
      vertex  5.769294e+001  5.438113e+001  0.000000e+000
      vertex  5.769294e+001  5.438113e+001  4.000000e-001
      vertex  5.876772e+001  5.330635e+001  0.000000e+000
    endloop
  endfacet
  facet normal  7.071106e-001  7.071030e-001  -0.000000e+000
    outer loop
      vertex  5.876772e+001  5.330635e+001  0.000000e+000
      vertex  5.769294e+001  5.438113e+001  4.000000e-001
      vertex  5.876772e+001  5.330635e+001  4.000000e-001
    endloop
  endfacet
  facet normal  7.420164e-001  6.703817e-001  0.000000e+000
    outer loop
      vertex  5.876772e+001  5.330635e+001  0.000000e+000
      vertex  5.876772e+001  5.330635e+001  4.000000e-001
      vertex  5.978668e+001  5.217850e+001  0.000000e+000
    endloop
  endfacet
  facet normal  7.420164e-001  6.703817e-001  -0.000000e+000
    outer loop
      vertex  5.978668e+001  5.217850e+001  0.000000e+000
      vertex  5.876772e+001  5.330635e+001  4.000000e-001
      vertex  5.978668e+001  5.217850e+001  4.000000e-001
    endloop
  endfacet
  facet normal  7.750181e-001  6.319392e-001  0.000000e+000
    outer loop
      vertex  5.978668e+001  5.217850e+001  0.000000e+000
      vertex  5.978668e+001  5.217850e+001  4.000000e-001
      vertex  6.074721e+001  5.100050e+001  0.000000e+000
    endloop
  endfacet
  facet normal  7.750181e-001  6.319392e-001  -0.000000e+000
    outer loop
      vertex  6.074721e+001  5.100050e+001  0.000000e+000
      vertex  5.978668e+001  5.217850e+001  4.000000e-001
      vertex  6.074721e+001  5.100050e+001  4.000000e-001
    endloop
  endfacet
  facet normal  8.060325e-001  5.918711e-001  0.000000e+000
    outer loop
      vertex  6.074721e+001  5.100050e+001  0.000000e+000
      vertex  6.074721e+001  5.100050e+001  4.000000e-001
      vertex  6.164684e+001  4.977535e+001  0.000000e+000
    endloop
  endfacet
  facet normal  8.060325e-001  5.918711e-001  -0.000000e+000
    outer loop
      vertex  6.164684e+001  4.977535e+001  0.000000e+000
      vertex  6.074721e+001  5.100050e+001  4.000000e-001
      vertex  6.164684e+001  4.977535e+001  4.000000e-001
    endloop
  endfacet
  facet normal  8.349750e-001  5.502879e-001  0.000000e+000
    outer loop
      vertex  6.164684e+001  4.977535e+001  0.000000e+000
      vertex  6.164684e+001  4.977535e+001  4.000000e-001
      vertex  6.248326e+001  4.850621e+001  0.000000e+000
    endloop
  endfacet
  facet normal  8.349750e-001  5.502879e-001  -0.000000e+000
    outer loop
      vertex  6.248326e+001  4.850621e+001  0.000000e+000
      vertex  6.164684e+001  4.977535e+001  4.000000e-001
      vertex  6.248326e+001  4.850621e+001  4.000000e-001
    endloop
  endfacet
  facet normal  8.617750e-001  5.072907e-001  0.000000e+000
    outer loop
      vertex  6.248326e+001  4.850621e+001  0.000000e+000
      vertex  6.248326e+001  4.850621e+001  4.000000e-001
      vertex  6.325433e+001  4.719633e+001  0.000000e+000
    endloop
  endfacet
  facet normal  8.617750e-001  5.072907e-001  -0.000000e+000
    outer loop
      vertex  6.325433e+001  4.719633e+001  0.000000e+000
      vertex  6.248326e+001  4.850621e+001  4.000000e-001
      vertex  6.325433e+001  4.719633e+001  4.000000e-001
    endloop
  endfacet
  facet normal  8.863636e-001  4.629897e-001  0.000000e+000
    outer loop
      vertex  6.325433e+001  4.719633e+001  0.000000e+000
      vertex  6.325433e+001  4.719633e+001  4.000000e-001
      vertex  6.395806e+001  4.584909e+001  0.000000e+000
    endloop
  endfacet
  facet normal  8.863636e-001  4.629897e-001  -0.000000e+000
    outer loop
      vertex  6.395806e+001  4.584909e+001  0.000000e+000
      vertex  6.325433e+001  4.719633e+001  4.000000e-001
      vertex  6.395806e+001  4.584909e+001  4.000000e-001
    endloop
  endfacet
  facet normal  9.086761e-001  4.175017e-001  0.000000e+000
    outer loop
      vertex  6.395806e+001  4.584909e+001  0.000000e+000
      vertex  6.395806e+001  4.584909e+001  4.000000e-001
      vertex  6.459265e+001  4.446793e+001  0.000000e+000
    endloop
  endfacet
  facet normal  9.086761e-001  4.175017e-001  -0.000000e+000
    outer loop
      vertex  6.459265e+001  4.446793e+001  0.000000e+000
      vertex  6.395806e+001  4.584909e+001  4.000000e-001
      vertex  6.459265e+001  4.446793e+001  4.000000e-001
    endloop
  endfacet
  facet normal  9.286548e-001  3.709449e-001  0.000000e+000
    outer loop
      vertex  6.459265e+001  4.446793e+001  0.000000e+000
      vertex  6.459265e+001  4.446793e+001  4.000000e-001
      vertex  6.515648e+001  4.305639e+001  0.000000e+000
    endloop
  endfacet
  facet normal  9.286548e-001  3.709449e-001  -0.000000e+000
    outer loop
      vertex  6.515648e+001  4.305639e+001  0.000000e+000
      vertex  6.459265e+001  4.446793e+001  4.000000e-001
      vertex  6.515648e+001  4.305639e+001  4.000000e-001
    endloop
  endfacet
  facet normal  9.462529e-001  3.234278e-001  0.000000e+000
    outer loop
      vertex  6.515648e+001  4.305639e+001  0.000000e+000
      vertex  6.515648e+001  4.305639e+001  4.000000e-001
      vertex  6.564808e+001  4.161812e+001  0.000000e+000
    endloop
  endfacet
  facet normal  9.462529e-001  3.234278e-001  -0.000000e+000
    outer loop
      vertex  6.564808e+001  4.161812e+001  0.000000e+000
      vertex  6.515648e+001  4.305639e+001  4.000000e-001
      vertex  6.564808e+001  4.161812e+001  4.000000e-001
    endloop
  endfacet
  facet normal  9.614185e-001  2.750897e-001  0.000000e+000
    outer loop
      vertex  6.564808e+001  4.161812e+001  0.000000e+000
      vertex  6.564808e+001  4.161812e+001  4.000000e-001
      vertex  6.606621e+001  4.015679e+001  0.000000e+000
    endloop
  endfacet
  facet normal  9.614185e-001  2.750897e-001  -0.000000e+000
    outer loop
      vertex  6.606621e+001  4.015679e+001  0.000000e+000
      vertex  6.564808e+001  4.161812e+001  4.000000e-001
      vertex  6.606621e+001  4.015679e+001  4.000000e-001
    endloop
  endfacet
  facet normal  9.741180e-001  2.260399e-001  0.000000e+000
    outer loop
      vertex  6.606621e+001  4.015679e+001  0.000000e+000
      vertex  6.606621e+001  4.015679e+001  4.000000e-001
      vertex  6.640978e+001  3.867616e+001  0.000000e+000
    endloop
  endfacet
  facet normal  9.741180e-001  2.260399e-001  -0.000000e+000
    outer loop
      vertex  6.640978e+001  3.867616e+001  0.000000e+000
      vertex  6.606621e+001  4.015679e+001  4.000000e-001
      vertex  6.640978e+001  3.867616e+001  4.000000e-001
    endloop
  endfacet
  facet normal  9.843163e-001  1.764126e-001  0.000000e+000
    outer loop
      vertex  6.640978e+001  3.867616e+001  0.000000e+000
      vertex  6.640978e+001  3.867616e+001  4.000000e-001
      vertex  6.667793e+001  3.718002e+001  0.000000e+000
    endloop
  endfacet
  facet normal  9.843163e-001  1.764126e-001  -0.000000e+000
    outer loop
      vertex  6.667793e+001  3.718002e+001  0.000000e+000
      vertex  6.640978e+001  3.867616e+001  4.000000e-001
      vertex  6.667793e+001  3.718002e+001  4.000000e-001
    endloop
  endfacet
  facet normal  9.919884e-001  1.263291e-001  0.000000e+000
    outer loop
      vertex  6.667793e+001  3.718002e+001  0.000000e+000
      vertex  6.667793e+001  3.718002e+001  4.000000e-001
      vertex  6.686994e+001  3.567223e+001  0.000000e+000
    endloop
  endfacet
  facet normal  9.919884e-001  1.263291e-001  -0.000000e+000
    outer loop
      vertex  6.686994e+001  3.567223e+001  0.000000e+000
      vertex  6.667793e+001  3.718002e+001  4.000000e-001
      vertex  6.686994e+001  3.567223e+001  4.000000e-001
    endloop
  endfacet
  facet normal  9.971136e-001  7.592399e-002  0.000000e+000
    outer loop
      vertex  6.686994e+001  3.567223e+001  0.000000e+000
      vertex  6.686994e+001  3.567223e+001  4.000000e-001
      vertex  6.698534e+001  3.415664e+001  0.000000e+000
    endloop
  endfacet
  facet normal  9.971136e-001  7.592399e-002  -0.000000e+000
    outer loop
      vertex  6.698534e+001  3.415664e+001  0.000000e+000
      vertex  6.686994e+001  3.567223e+001  4.000000e-001
      vertex  6.698534e+001  3.415664e+001  4.000000e-001
    endloop
  endfacet
  facet normal  9.996793e-001  2.532301e-002  0.000000e+000
    outer loop
      vertex  6.698534e+001  3.415664e+001  0.000000e+000
      vertex  6.698534e+001  3.415664e+001  4.000000e-001
      vertex  6.702383e+001  3.263716e+001  0.000000e+000
    endloop
  endfacet
  facet normal  9.996793e-001  2.532301e-002  -0.000000e+000
    outer loop
      vertex  6.702383e+001  3.263716e+001  0.000000e+000
      vertex  6.698534e+001  3.415664e+001  4.000000e-001
      vertex  6.702383e+001  3.263716e+001  4.000000e-001
    endloop
  endfacet
  facet normal  1.000000e+000 -9.918309e-006  0.000000e+000
    outer loop
      vertex  6.702354e+001  2.637450e+000  4.000000e-001
      vertex  6.702354e+001  2.637450e+000  0.000000e+000
      vertex  6.702383e+001  3.263716e+001  4.000000e-001
    endloop
  endfacet
  facet normal  1.000000e+000 -9.918309e-006  0.000000e+000
    outer loop
      vertex  6.702383e+001  3.263716e+001  4.000000e-001
      vertex  6.702354e+001  2.637450e+000  0.000000e+000
      vertex  6.702383e+001  3.263716e+001  0.000000e+000
    endloop
  endfacet
  facet normal  0.000000e+000 -1.000000e+000  0.000000e+000
    outer loop
      vertex -5.547646e+001  2.637450e+000  4.000000e-001
      vertex -5.547646e+001  2.637450e+000  0.000000e+000
      vertex  6.702354e+001  2.637450e+000  4.000000e-001
    endloop
  endfacet
  facet normal  0.000000e+000 -1.000000e+000  -0.000000e+000
    outer loop
      vertex  6.702354e+001  2.637450e+000  4.000000e-001
      vertex -5.547646e+001  2.637450e+000  0.000000e+000
      vertex  6.702354e+001  2.637450e+000  0.000000e+000
    endloop
  endfacet
endsolid CATIA STL
