solid v3d.csg
  facet normal -0.3090169943749475 -0.9510565162951536 -6.395257710931197E-17
    outer loop
      vertex 8.16723602039512 -3.1794269589283672 18.2
      vertex 24.810725055560304 -8.587224360489948 18.2
      vertex 8.167236020395118 -3.179426958928369 53.2
    endloop
  endfacet
  facet normal -0.30901699437494756 -0.9510565162951536 5.800348863347758E-17
    outer loop
      vertex 8.16723602039512 -3.1794269589283672 18.2
      vertex 16.48898053797771 -5.883325659709158 11.2
      vertex 24.810725055560304 -8.587224360489948 18.2
    endloop
  endfacet
  facet normal -0.3090169943749476 -0.9510565162951535 -6.380383749682532E-17
    outer loop
      vertex 4.006363761603823 -1.8274776085379716 18.2
      vertex 8.16723602039512 -3.1794269589283672 18.2
      vertex 8.167236020395118 -3.179426958928369 53.2
    endloop
  endfacet
  facet normal -0.30901699437494745 -0.9510565162951536 0.0
    outer loop
      vertex 16.48898053797771 -5.883325659709158 11.2
      vertex 24.810725055560304 -8.587224360489948 -16.8
      vertex 24.810725055560304 -8.587224360489948 18.2
    endloop
  endfacet
  facet normal -0.30901699437494756 -0.9510565162951535 -6.817805456987894E-17
    outer loop
      vertex 4.006363761603822 -1.8274776085379738 53.2
      vertex 4.006363761603823 -1.8274776085379716 18.2
      vertex 8.167236020395118 -3.179426958928369 53.2
    endloop
  endfacet
  facet normal 0.0 0.0 -1.0
    outer loop
      vertex 4.006363761603823 -1.8274776085379716 18.2
      vertex 4.3153807559787705 -0.8764210922428182 18.2
      vertex 8.476253014770066 -2.2283704426332136 18.2
    endloop
  endfacet
  facet normal 0.0 0.0 -1.0
    outer loop
      vertex 4.006363761603823 -1.8274776085379716 18.2
      vertex 8.476253014770066 -2.2283704426332136 18.2
      vertex 8.16723602039512 -3.1794269589283672 18.2
    endloop
  endfacet
  facet normal -0.9510565162951536 0.30901699437494745 -6.3441315692866086E-18
    outer loop
      vertex 4.006363761603822 -1.8274776085379738 53.2
      vertex 4.31538075597877 -0.8764210922428202 53.2
      vertex 4.3153807559787705 -0.8764210922428182 18.2
    endloop
  endfacet
  facet normal -0.9510565162951536 0.3090169943749475 -4.530065982213643E-18
    outer loop
      vertex 4.006363761603822 -1.8274776085379738 53.2
      vertex 4.3153807559787705 -0.8764210922428182 18.2
      vertex 4.006363761603823 -1.8274776085379716 18.2
    endloop
  endfacet
  facet normal 0.0 -0.0 1.0
    outer loop
      vertex 8.167236020395118 -3.179426958928369 53.2
      vertex 8.476253014770066 -2.228370442633216 53.2
      vertex 4.31538075597877 -0.8764210922428202 53.2
    endloop
  endfacet
  facet normal 0.0 0.0 1.0
    outer loop
      vertex 8.167236020395118 -3.179426958928369 53.2
      vertex 4.31538075597877 -0.8764210922428202 53.2
      vertex 4.006363761603822 -1.8274776085379738 53.2
    endloop
  endfacet
  facet normal 0.8506508083520392 -0.2763932022500234 0.44721359549995787
    outer loop
      vertex 24.810725055560304 -8.587224360489948 18.2
      vertex 25.119742049935255 -7.636167844194795 18.2
      vertex 8.476253014770066 -2.228370442633216 53.2
    endloop
  endfacet
  facet normal 0.850650808352039 -0.2763932022500244 0.44721359549995776
    outer loop
      vertex 24.810725055560304 -8.587224360489948 18.2
      vertex 8.476253014770066 -2.228370442633216 53.2
      vertex 8.167236020395118 -3.179426958928369 53.2
    endloop
  endfacet
  facet normal 0.9510565162951529 -0.3090169943749496 -1.5860328923216496E-17
    outer loop
      vertex 24.810725055560304 -8.587224360489948 -16.8
      vertex 25.119742049935255 -7.6361678441947936 -16.8
      vertex 25.119742049935255 -7.636167844194795 18.2
    endloop
  endfacet
  facet normal 0.9510565162951528 -0.3090169943749501 0.0
    outer loop
      vertex 24.810725055560304 -8.587224360489948 -16.8
      vertex 25.119742049935255 -7.636167844194795 18.2
      vertex 24.810725055560304 -8.587224360489948 18.2
    endloop
  endfacet
  facet normal -0.9077644027834694 0.29495053400345306 -0.29827499313594685
    outer loop
      vertex 16.48898053797771 -5.883325659709158 11.2
      vertex 16.79799753235266 -4.932269143414004 11.2
      vertex 25.119742049935255 -7.6361678441947936 -16.8
    endloop
  endfacet
  facet normal -0.9077644027834695 0.2949505340034528 -0.29827499313594685
    outer loop
      vertex 16.48898053797771 -5.883325659709158 11.2
      vertex 25.119742049935255 -7.6361678441947936 -16.8
      vertex 24.810725055560304 -8.587224360489948 -16.8
    endloop
  endfacet
  facet normal -0.5941202956739463 0.19304138599618256 -0.7808688094430304
    outer loop
      vertex 8.16723602039512 -3.1794269589283672 18.2
      vertex 8.476253014770066 -2.2283704426332136 18.2
      vertex 16.79799753235266 -4.932269143414004 11.2
    endloop
  endfacet
  facet normal -0.5941202956739459 0.193041385996184 -0.7808688094430304
    outer loop
      vertex 8.16723602039512 -3.1794269589283672 18.2
      vertex 16.79799753235266 -4.932269143414004 11.2
      vertex 16.48898053797771 -5.883325659709158 11.2
    endloop
  endfacet
  facet normal 0.3090169943749475 0.9510565162951536 6.033627669203828E-17
    outer loop
      vertex 8.476253014770066 -2.228370442633216 53.2
      vertex 25.119742049935255 -7.636167844194795 18.2
      vertex 8.476253014770066 -2.2283704426332136 18.2
    endloop
  endfacet
  facet normal 0.3090169943749475 0.9510565162951535 5.800348863347756E-17
    outer loop
      vertex 25.119742049935255 -7.636167844194795 18.2
      vertex 16.79799753235266 -4.932269143414004 11.2
      vertex 8.476253014770066 -2.2283704426332136 18.2
    endloop
  endfacet
  facet normal 0.3090169943749477 0.9510565162951535 6.033627669203827E-17
    outer loop
      vertex 8.476253014770066 -2.228370442633216 53.2
      vertex 8.476253014770066 -2.2283704426332136 18.2
      vertex 4.3153807559787705 -0.8764210922428182 18.2
    endloop
  endfacet
  facet normal 0.3090169943749475 0.9510565162951535 4.826902135363062E-17
    outer loop
      vertex 25.119742049935255 -7.636167844194795 18.2
      vertex 25.119742049935255 -7.6361678441947936 -16.8
      vertex 16.79799753235266 -4.932269143414004 11.2
    endloop
  endfacet
  facet normal 0.3090169943749476 0.9510565162951535 5.800348863347757E-17
    outer loop
      vertex 8.476253014770066 -2.228370442633216 53.2
      vertex 4.3153807559787705 -0.8764210922428182 18.2
      vertex 4.31538075597877 -0.8764210922428202 53.2
    endloop
  endfacet
endsolid v3d.csg
