solid v3d.csg
  facet normal -4.2286721404373065E-14 9.277997546161179E-15 -1.0
    outer loop
      vertex -8.550097831481395 1.8550443069010307 15.5
      vertex -8.54134534384394 1.8949358895921065 15.5
      vertex -8.023908907937026 3.487441489917444 15.499999999999993
    endloop
  endfacet
  facet normal 1.6881215563039454E-12 -5.48503943278501E-13 -1.0
    outer loop
      vertex -8.550097831481395 1.8550443069010307 15.5
      vertex -8.023908907937026 3.487441489917444 15.499999999999993
      vertex -8.007542135182371 3.524859041401187 15.5
    endloop
  endfacet
  facet normal -2.0686459202853908E-14 6.7214380403257256E-15 -1.0
    outer loop
      vertex -8.550097831481395 1.8550443069010307 15.5
      vertex -8.007542135182371 3.524859041401187 15.5
      vertex -7.189365664920606 4.985818252256033 15.499999999999993
    endloop
  endfacet
  facet normal 8.170493165909313E-13 -3.5738470219781977E-13 -1.0
    outer loop
      vertex -8.550097831481395 1.8550443069010307 15.5
      vertex -7.189365664920606 4.985818252256033 15.499999999999993
      vertex -7.166013572947088 5.019323837012994 15.5
    endloop
  endfacet
  facet normal 0.0 0.0 -1.0
    outer loop
      vertex -8.550097831481395 1.8550443069010307 15.5
      vertex -7.166013572947088 5.019323837012994 15.5
      vertex -6.953889585750015 5.267689115384749 15.5
    endloop
  endfacet
  facet normal 0.0 0.0 -1.0
    outer loop
      vertex -8.550097831481395 1.8550443069010307 15.5
      vertex -6.953889585750015 5.267689115384749 15.5
      vertex -4.663415038642906 4.523468821309503 15.5
    endloop
  endfacet
  facet normal 3.847914009507157E-15 -5.6046633840751285E-15 -1.0
    outer loop
      vertex -8.550097831481395 1.8550443069010307 15.5
      vertex -4.663415038642906 4.523468821309503 15.5
      vertex -8.713419784206254 0.47514409567232674 15.500000000000007
    endloop
  endfacet
  facet normal 1.7695243259395035E-12 1.3926458471912215E-13 -1.0
    outer loop
      vertex -8.722084827563464 -0.17425627085612083 15.499999999999993
      vertex -8.74771129031204 0.15135881149124186 15.499999999999993
      vertex -8.746909440983247 0.19219141423825237 15.5
    endloop
  endfacet
  facet normal -1.0419041469228702E-13 1.2331748226637852E-14 -1.0
    outer loop
      vertex -8.722084827563464 -0.17425627085612083 15.499999999999993
      vertex -8.746909440983247 0.19219141423825237 15.5
      vertex -8.713419784206256 0.47514409567232807 15.5
    endloop
  endfacet
  facet normal -1.1084826743765958E-14 1.1089426851482062E-14 -1.0
    outer loop
      vertex -8.722084827563464 -0.17425627085612083 15.499999999999993
      vertex -8.713419784206256 0.47514409567232807 15.5
      vertex -4.663415038642906 4.523468821309503 15.5
    endloop
  endfacet
  facet normal 2.8059335691879694E-15 -9.117030829502696E-16 -1.0
    outer loop
      vertex -8.722084827563464 -0.17425627085612083 15.499999999999993
      vertex -4.663415038642906 4.523468821309503 15.5
      vertex -6.431610280456356 -0.918476564931366 15.5
    endloop
  endfacet
  facet normal 0.0 0.0 1.0
    outer loop
      vertex -6.945826739128399 5.265069337709681 89.5
      vertex -7.623487027814635 4.292762262833891 89.5
      vertex -7.6434425514795405 4.257129111349656 89.5
    endloop
  endfacet
  facet normal 0.0 0.0 1.0
    outer loop
      vertex -6.945826739128399 5.265069337709681 89.5
      vertex -7.6434425514795405 4.257129111349656 89.5
      vertex -8.314480234420508 2.7230095005158304 89.5
    endloop
  endfacet
  facet normal 0.0 0.0 1.0
    outer loop
      vertex -6.945826739128399 5.265069337709681 89.5
      vertex -8.314480234420508 2.7230095005158304 89.5
      vertex -8.327100635296286 2.6841679005078967 89.5
    endloop
  endfacet
  facet normal 0.0 0.0 1.0
    outer loop
      vertex -6.945826739128399 5.265069337709681 89.5
      vertex -8.327100635296286 2.6841679005078967 89.5
      vertex -8.685952628431846 1.048613010174248 89.5
    endloop
  endfacet
  facet normal 0.0 0.0 1.0
    outer loop
      vertex -6.945826739128399 5.265069337709681 89.5
      vertex -8.685952628431846 1.048613010174248 89.5
      vertex -8.690752911590428 1.0080556225483155 89.5
    endloop
  endfacet
  facet normal 0.0 0.0 1.0
    outer loop
      vertex -6.945826739128399 5.265069337709681 89.5
      vertex -8.690752911590428 1.0080556225483155 89.5
      vertex -8.700973640366914 0.4875850766116301 89.5
    endloop
  endfacet
  facet normal 0.0 0.0 1.0
    outer loop
      vertex -6.945826739128399 5.265069337709681 89.5
      vertex -8.700973640366914 0.4875850766116301 89.5
      vertex -4.663415038642906 4.523468821309503 89.5
    endloop
  endfacet
  facet normal 0.0 0.0 1.0
    outer loop
      vertex -4.663415038642906 4.523468821309503 89.5
      vertex -8.700973640366916 0.4875850766116292 89.5
      vertex -8.71402198094185 -0.176876048531188 89.5
    endloop
  endfacet
  facet normal 0.0 0.0 1.0
    outer loop
      vertex -4.663415038642906 4.523468821309503 89.5
      vertex -8.71402198094185 -0.176876048531188 89.5
      vertex -6.431610280456356 -0.918476564931366 89.5
    endloop
  endfacet
  facet normal 0.3090169943749136 0.9510565162951646 6.539164036709716E-18
    outer loop
      vertex -6.953889585750015 5.26768911538475 15.5
      vertex -6.970078082229106 5.272949076743203 44.50063834372289
      vertex -6.9527966310817915 5.267333992885954 76.56707964942726
    endloop
  endfacet
  facet normal 0.3090169943749478 0.9510565162951535 5.861458985999376E-18
    outer loop
      vertex -6.953889585750015 5.26768911538475 15.5
      vertex -6.9527966310817915 5.267333992885954 76.56707964942726
      vertex -4.663415038642906 4.523468821309503 15.5
    endloop
  endfacet
  facet normal 0.30901699437494357 0.9510565162951549 -1.4062517322700742E-16
    outer loop
      vertex -4.663415038642906 4.523468821309503 15.5
      vertex -6.952796631081792 5.267333992885952 76.56707964942734
      vertex -6.945826739128399 5.265069337709681 89.5
    endloop
  endfacet
  facet normal 0.3090169943749476 0.9510565162951536 -0.0
    outer loop
      vertex -4.663415038642906 4.523468821309503 15.5
      vertex -6.945826739128399 5.265069337709681 89.5
      vertex -4.663415038642906 4.523468821309503 89.5
    endloop
  endfacet
  facet normal -0.3090169943749477 -0.9510565162951535 -2.2477713587882815E-17
    outer loop
      vertex -8.738273324042556 -0.16899630949766697 44.50063834372531
      vertex -8.722084827563464 -0.1742562708561204 15.5
      vertex -6.431610280456356 -0.918476564931366 15.5
    endloop
  endfacet
  facet normal -0.3090169943749472 -0.9510565162951538 2.2044082293994692E-17
    outer loop
      vertex -8.738273324042556 -0.16899630949766697 44.50063834372531
      vertex -6.431610280456356 -0.918476564931366 15.5
      vertex -8.72099187289524 -0.17461139335491582 76.56707964942731
    endloop
  endfacet
  facet normal -0.30901699437494645 -0.951056516295154 4.9273742337744545E-17
    outer loop
      vertex -8.714021980941851 -0.17687604853118666 89.5
      vertex -8.720991872895242 -0.17461139335491538 76.56707964942733
      vertex -6.431610280456356 -0.918476564931366 15.5
    endloop
  endfacet
  facet normal -0.3090169943749479 -0.9510565162951535 0.0
    outer loop
      vertex -8.714021980941851 -0.17687604853118666 89.5
      vertex -6.431610280456356 -0.918476564931366 15.5
      vertex -6.431610280456356 -0.918476564931366 89.5
    endloop
  endfacet
  facet normal 0.9510565162951536 -0.3090169943749475 0.0
    outer loop
      vertex -4.663415038642906 4.523468821309503 15.5
      vertex -4.663415038642906 4.523468821309503 89.5
      vertex -6.431610280456356 -0.918476564931366 15.5
    endloop
  endfacet
  facet normal 0.9510565162951536 -0.3090169943749475 0.0
    outer loop
      vertex -6.431610280456356 -0.918476564931366 15.5
      vertex -4.663415038642906 4.523468821309503 89.5
      vertex -6.431610280456356 -0.918476564931366 89.5
    endloop
  endfacet
  facet normal -0.7604058538027137 0.6494479528462553 -5.422604301628787E-4
    outer loop
      vertex -6.953889585750015 5.267689115384748 15.5
      vertex -7.166013572947103 5.019323837012976 15.5
      vertex -6.970078082229108 5.272949076743203 44.50063834372393
    endloop
  endfacet
  facet normal -0.820401322907462 0.5717878761615293 5.42260430162766E-4
    outer loop
      vertex -6.970078082229106 5.272949076743203 44.50063834372391
      vertex -7.166013572947103 5.019323837012977 15.500000000000007
      vertex -7.189365664920596 4.985818252256054 15.5
    endloop
  endfacet
  facet normal -0.8204013229074686 0.5717878761615198 5.422604301629151E-4
    outer loop
      vertex -6.970078082229106 5.272949076743203 44.50063834372391
      vertex -7.189365664920596 4.985818252256054 15.5
      vertex -7.623487027814623 4.29276226283391 89.5
    endloop
  endfacet
  facet normal -0.8204013229074698 0.5717878761615178 5.422604301628537E-4
    outer loop
      vertex -6.970078082229106 5.272949076743203 44.50063834372391
      vertex -7.623487027814623 4.29276226283391 89.5
      vertex -6.9458267391284005 5.265069337709681 89.5
    endloop
  endfacet
  facet normal -0.8724958787956438 0.48862116965829777 -5.422604301628222E-4
    outer loop
      vertex -7.623487027814622 4.292762262833909 89.5
      vertex -7.1893656649205955 4.9858182522560535 15.500000000000007
      vertex -8.00754213518237 3.524859041401196 15.5
    endloop
  endfacet
  facet normal -0.8724958787956086 0.48862116965836083 -5.422604301636583E-4
    outer loop
      vertex -7.623487027814622 4.292762262833909 89.5
      vertex -8.00754213518237 3.524859041401196 15.5
      vertex -7.643442551479546 4.257129111349645 89.5
    endloop
  endfacet
  facet normal -0.9161878224162444 0.4007487741837846 5.422604301626195E-4
    outer loop
      vertex -7.643442551479544 4.257129111349645 89.5
      vertex -8.007542135182367 3.5248590414011955 15.500000000000007
      vertex -8.023908907937026 3.487441489917445 15.5
    endloop
  endfacet
  facet normal -0.9161878224162525 0.40074877418376614 5.422604301628758E-4
    outer loop
      vertex -7.643442551479544 4.257129111349645 89.5
      vertex -8.023908907937026 3.487441489917445 15.5
      vertex -8.314480234420506 2.723009500515831 89.5
    endloop
  endfacet
  facet normal -0.9510563764677826 0.3090169489422825 -5.422604301628852E-4
    outer loop
      vertex -8.314480234420508 2.7230095005158312 89.5
      vertex -8.023908907937024 3.487441489917444 15.500000000000007
      vertex -8.541345343843943 1.8949358895920898 15.5
    endloop
  endfacet
  facet normal -0.951056376467794 0.3090169489422477 -5.422604301624603E-4
    outer loop
      vertex -8.314480234420508 2.7230095005158312 89.5
      vertex -8.541345343843943 1.8949358895920898 15.5
      vertex -8.327100635296285 2.6841679005078953 89.5
    endloop
  endfacet
  facet normal -0.9767657377136162 0.2143091215566923 5.422604301621727E-4
    outer loop
      vertex -8.327100635296286 2.6841679005078958 89.5
      vertex -8.541345343843942 1.8949358895920896 15.500000000000007
      vertex -8.550097831481397 1.855044306901025 15.5
    endloop
  endfacet
  facet normal -0.9767657377136292 0.21430912155663293 5.422604301628772E-4
    outer loop
      vertex -8.327100635296286 2.6841679005078958 89.5
      vertex -8.550097831481397 1.855044306901025 15.5
      vertex -8.685952628431844 1.0486130101742495 89.5
    endloop
  endfacet
  facet normal -0.993068310950826 0.1175373801771138 -5.42260430162839E-4
    outer loop
      vertex -8.685952628431842 1.0486130101742492 89.5
      vertex -8.550097831481395 1.8550443069010245 15.500000000000007
      vertex -8.746909440983247 0.19219141423825237 15.5
    endloop
  endfacet
  facet normal -0.9930683109508245 0.1175373801771275 -5.42260430162999E-4
    outer loop
      vertex -8.685952628431842 1.0486130101742492 89.5
      vertex -8.746909440983247 0.19219141423825237 15.5
      vertex -8.690752911590424 1.0080556225483284 89.5
    endloop
  endfacet
  facet normal -0.9998070934872066 0.01963368957404764 5.422604301625998E-4
    outer loop
      vertex -8.690752911590423 1.008055622548328 89.5
      vertex -8.746909440983247 0.19219141423825148 15.500000000000007
      vertex -8.74771129031204 0.1513588114912352 15.5
    endloop
  endfacet
  facet normal -0.9998070934872072 0.01963368957402023 5.422604301629181E-4
    outer loop
      vertex -8.690752911590423 1.008055622548328 89.5
      vertex -8.74771129031204 0.1513588114912352 15.5
      vertex -8.738273324042556 -0.16899630949766653 44.50063834372404
    endloop
  endfacet
  facet normal -0.9998070934872071 0.019633689574023436 5.422604301628341E-4
    outer loop
      vertex -8.690752911590423 1.008055622548328 89.5
      vertex -8.738273324042556 -0.16899630949766653 44.50063834372404
      vertex -8.714021980941851 -0.17687604853118843 89.5
    endloop
  endfacet
  facet normal -0.9969171871631535 -0.07845908419253994 -5.422604301628384E-4
    outer loop
      vertex -8.738273324042556 -0.16899630949766653 44.50063834372402
      vertex -8.74771129031204 0.15135881149123476 15.500000000000007
      vertex -8.722084827563464 -0.17425627085612083 15.5
    endloop
  endfacet
endsolid v3d.csg
