solid CATIA STL
  facet normal  0.000000e+000  0.000000e+000  1.000000e+000
    outer loop
      vertex  0.000000e+000  0.000000e+000  2.400000e+000
      vertex  7.460000e+001 -8.881784e-015  2.400000e+000
      vertex  0.000000e+000  5.500000e+000  2.400000e+000
    endloop
  endfacet
  facet normal  -0.000000e+000  0.000000e+000  1.000000e+000
    outer loop
      vertex  0.000000e+000  5.500000e+000  2.400000e+000
      vertex  7.460000e+001 -8.881784e-015  2.400000e+000
      vertex  7.460000e+001  5.500000e+000  2.400000e+000
    endloop
  endfacet
  facet normal  0.000000e+000  0.000000e+000 -1.000000e+000
    outer loop
      vertex  0.000000e+000  0.000000e+000  0.000000e+000
      vertex  0.000000e+000  5.500000e+000  0.000000e+000
      vertex  7.460000e+001 -8.881784e-015  0.000000e+000
    endloop
  endfacet
  facet normal  0.000000e+000  0.000000e+000 -1.000000e+000
    outer loop
      vertex  7.460000e+001 -8.881784e-015  0.000000e+000
      vertex  0.000000e+000  5.500000e+000  0.000000e+000
      vertex  7.460000e+001  5.500000e+000  0.000000e+000
    endloop
  endfacet
  facet normal  0.000000e+000  9.999999e-001  0.000000e+000
    outer loop
      vertex  0.000000e+000  5.500000e+000  2.400000e+000
      vertex  7.460000e+001  5.500000e+000  2.400000e+000
      vertex  0.000000e+000  5.500000e+000  0.000000e+000
    endloop
  endfacet
  facet normal  0.000000e+000  9.999999e-001  0.000000e+000
    outer loop
      vertex  0.000000e+000  5.500000e+000  0.000000e+000
      vertex  7.460000e+001  5.500000e+000  2.400000e+000
      vertex  7.460000e+001  5.500000e+000  0.000000e+000
    endloop
  endfacet
  facet normal  1.000000e+000  0.000000e+000  0.000000e+000
    outer loop
      vertex  7.460000e+001 -8.881784e-015  2.400000e+000
      vertex  7.460000e+001 -8.881784e-015  0.000000e+000
      vertex  7.460000e+001  5.500000e+000  2.400000e+000
    endloop
  endfacet
  facet normal  1.000000e+000  0.000000e+000  0.000000e+000
    outer loop
      vertex  7.460000e+001  5.500000e+000  2.400000e+000
      vertex  7.460000e+001 -8.881784e-015  0.000000e+000
      vertex  7.460000e+001  5.500000e+000  0.000000e+000
    endloop
  endfacet
  facet normal -1.190588e-016 -9.999999e-001  0.000000e+000
    outer loop
      vertex  7.460000e+001 -8.881784e-015  2.400000e+000
      vertex  0.000000e+000  0.000000e+000  2.400000e+000
      vertex  7.460000e+001 -8.881784e-015  0.000000e+000
    endloop
  endfacet
  facet normal -1.190588e-016 -9.999999e-001  0.000000e+000
    outer loop
      vertex  7.460000e+001 -8.881784e-015  0.000000e+000
      vertex  0.000000e+000  0.000000e+000  2.400000e+000
      vertex  0.000000e+000  0.000000e+000  0.000000e+000
    endloop
  endfacet
  facet normal -1.000000e+000  0.000000e+000  0.000000e+000
    outer loop
      vertex  0.000000e+000  5.500000e+000  2.400000e+000
      vertex  0.000000e+000  5.500000e+000  0.000000e+000
      vertex  0.000000e+000  0.000000e+000  2.400000e+000
    endloop
  endfacet
  facet normal -1.000000e+000  0.000000e+000  0.000000e+000
    outer loop
      vertex  0.000000e+000  0.000000e+000  2.400000e+000
      vertex  0.000000e+000  5.500000e+000  0.000000e+000
      vertex  0.000000e+000  0.000000e+000  0.000000e+000
    endloop
  endfacet
endsolid CATIA STL
