solid CATIA STL
  facet normal  0.000000e+000  0.000000e+000  1.000000e+000
    outer loop
      vertex  0.000000e+000  4.000000e+001  2.400000e+000
      vertex  7.460000e+001  4.000000e+001  2.400000e+000
      vertex  0.000000e+000  4.530000e+001  2.400000e+000
    endloop
  endfacet
  facet normal  -0.000000e+000  0.000000e+000  1.000000e+000
    outer loop
      vertex  0.000000e+000  4.530000e+001  2.400000e+000
      vertex  7.460000e+001  4.000000e+001  2.400000e+000
      vertex  7.460000e+001  4.530000e+001  2.400000e+000
    endloop
  endfacet
  facet normal  0.000000e+000  0.000000e+000 -1.000000e+000
    outer loop
      vertex  0.000000e+000  4.000000e+001  0.000000e+000
      vertex  0.000000e+000  4.530000e+001  0.000000e+000
      vertex  7.460000e+001  4.000000e+001  0.000000e+000
    endloop
  endfacet
  facet normal  0.000000e+000  0.000000e+000 -1.000000e+000
    outer loop
      vertex  7.460000e+001  4.000000e+001  0.000000e+000
      vertex  0.000000e+000  4.530000e+001  0.000000e+000
      vertex  7.460000e+001  4.530000e+001  0.000000e+000
    endloop
  endfacet
  facet normal  0.000000e+000  9.999999e-001  0.000000e+000
    outer loop
      vertex  0.000000e+000  4.530000e+001  2.400000e+000
      vertex  7.460000e+001  4.530000e+001  2.400000e+000
      vertex  0.000000e+000  4.530000e+001  0.000000e+000
    endloop
  endfacet
  facet normal  0.000000e+000  9.999999e-001  0.000000e+000
    outer loop
      vertex  0.000000e+000  4.530000e+001  0.000000e+000
      vertex  7.460000e+001  4.530000e+001  2.400000e+000
      vertex  7.460000e+001  4.530000e+001  0.000000e+000
    endloop
  endfacet
  facet normal  1.000000e+000  0.000000e+000  0.000000e+000
    outer loop
      vertex  7.460000e+001  4.000000e+001  2.400000e+000
      vertex  7.460000e+001  4.000000e+001  0.000000e+000
      vertex  7.460000e+001  4.530000e+001  2.400000e+000
    endloop
  endfacet
  facet normal  1.000000e+000  0.000000e+000  0.000000e+000
    outer loop
      vertex  7.460000e+001  4.530000e+001  2.400000e+000
      vertex  7.460000e+001  4.000000e+001  0.000000e+000
      vertex  7.460000e+001  4.530000e+001  0.000000e+000
    endloop
  endfacet
  facet normal  0.000000e+000 -9.999999e-001  0.000000e+000
    outer loop
      vertex  7.460000e+001  4.000000e+001  2.400000e+000
      vertex  0.000000e+000  4.000000e+001  2.400000e+000
      vertex  7.460000e+001  4.000000e+001  0.000000e+000
    endloop
  endfacet
  facet normal  0.000000e+000 -9.999999e-001  0.000000e+000
    outer loop
      vertex  7.460000e+001  4.000000e+001  0.000000e+000
      vertex  0.000000e+000  4.000000e+001  2.400000e+000
      vertex  0.000000e+000  4.000000e+001  0.000000e+000
    endloop
  endfacet
  facet normal -1.000000e+000  0.000000e+000  0.000000e+000
    outer loop
      vertex  0.000000e+000  4.530000e+001  2.400000e+000
      vertex  0.000000e+000  4.530000e+001  0.000000e+000
      vertex  0.000000e+000  4.000000e+001  2.400000e+000
    endloop
  endfacet
  facet normal -1.000000e+000  0.000000e+000  0.000000e+000
    outer loop
      vertex  0.000000e+000  4.000000e+001  2.400000e+000
      vertex  0.000000e+000  4.530000e+001  0.000000e+000
      vertex  0.000000e+000  4.000000e+001  0.000000e+000
    endloop
  endfacet
  facet normal  0.000000e+000  0.000000e+000  1.000000e+000
    outer loop
      vertex  0.000000e+000  3.000000e+001  2.400000e+000
      vertex  7.460000e+001  3.000000e+001  2.400000e+000
      vertex  0.000000e+000  3.530000e+001  2.400000e+000
    endloop
  endfacet
  facet normal  -0.000000e+000  0.000000e+000  1.000000e+000
    outer loop
      vertex  0.000000e+000  3.530000e+001  2.400000e+000
      vertex  7.460000e+001  3.000000e+001  2.400000e+000
      vertex  7.460000e+001  3.530000e+001  2.400000e+000
    endloop
  endfacet
  facet normal  0.000000e+000  0.000000e+000 -1.000000e+000
    outer loop
      vertex  0.000000e+000  3.000000e+001  0.000000e+000
      vertex  0.000000e+000  3.530000e+001  0.000000e+000
      vertex  7.460000e+001  3.000000e+001  0.000000e+000
    endloop
  endfacet
  facet normal  0.000000e+000  0.000000e+000 -1.000000e+000
    outer loop
      vertex  7.460000e+001  3.000000e+001  0.000000e+000
      vertex  0.000000e+000  3.530000e+001  0.000000e+000
      vertex  7.460000e+001  3.530000e+001  0.000000e+000
    endloop
  endfacet
  facet normal  0.000000e+000  9.999999e-001  0.000000e+000
    outer loop
      vertex  0.000000e+000  3.530000e+001  2.400000e+000
      vertex  7.460000e+001  3.530000e+001  2.400000e+000
      vertex  0.000000e+000  3.530000e+001  0.000000e+000
    endloop
  endfacet
  facet normal  0.000000e+000  9.999999e-001  0.000000e+000
    outer loop
      vertex  0.000000e+000  3.530000e+001  0.000000e+000
      vertex  7.460000e+001  3.530000e+001  2.400000e+000
      vertex  7.460000e+001  3.530000e+001  0.000000e+000
    endloop
  endfacet
  facet normal  1.000000e+000  0.000000e+000  0.000000e+000
    outer loop
      vertex  7.460000e+001  3.000000e+001  2.400000e+000
      vertex  7.460000e+001  3.000000e+001  0.000000e+000
      vertex  7.460000e+001  3.530000e+001  2.400000e+000
    endloop
  endfacet
  facet normal  1.000000e+000  0.000000e+000  0.000000e+000
    outer loop
      vertex  7.460000e+001  3.530000e+001  2.400000e+000
      vertex  7.460000e+001  3.000000e+001  0.000000e+000
      vertex  7.460000e+001  3.530000e+001  0.000000e+000
    endloop
  endfacet
  facet normal  0.000000e+000 -9.999999e-001  0.000000e+000
    outer loop
      vertex  7.460000e+001  3.000000e+001  2.400000e+000
      vertex  0.000000e+000  3.000000e+001  2.400000e+000
      vertex  7.460000e+001  3.000000e+001  0.000000e+000
    endloop
  endfacet
  facet normal  0.000000e+000 -9.999999e-001  0.000000e+000
    outer loop
      vertex  7.460000e+001  3.000000e+001  0.000000e+000
      vertex  0.000000e+000  3.000000e+001  2.400000e+000
      vertex  0.000000e+000  3.000000e+001  0.000000e+000
    endloop
  endfacet
  facet normal -1.000000e+000  0.000000e+000  0.000000e+000
    outer loop
      vertex  0.000000e+000  3.530000e+001  2.400000e+000
      vertex  0.000000e+000  3.530000e+001  0.000000e+000
      vertex  0.000000e+000  3.000000e+001  2.400000e+000
    endloop
  endfacet
  facet normal -1.000000e+000  0.000000e+000  0.000000e+000
    outer loop
      vertex  0.000000e+000  3.000000e+001  2.400000e+000
      vertex  0.000000e+000  3.530000e+001  0.000000e+000
      vertex  0.000000e+000  3.000000e+001  0.000000e+000
    endloop
  endfacet
  facet normal  0.000000e+000  0.000000e+000  1.000000e+000
    outer loop
      vertex  0.000000e+000  2.000000e+001  2.400000e+000
      vertex  7.460000e+001  2.000000e+001  2.400000e+000
      vertex  0.000000e+000  2.530000e+001  2.400000e+000
    endloop
  endfacet
  facet normal  -0.000000e+000  0.000000e+000  1.000000e+000
    outer loop
      vertex  0.000000e+000  2.530000e+001  2.400000e+000
      vertex  7.460000e+001  2.000000e+001  2.400000e+000
      vertex  7.460000e+001  2.530000e+001  2.400000e+000
    endloop
  endfacet
  facet normal  0.000000e+000  0.000000e+000 -1.000000e+000
    outer loop
      vertex  0.000000e+000  2.000000e+001  0.000000e+000
      vertex  0.000000e+000  2.530000e+001  0.000000e+000
      vertex  7.460000e+001  2.000000e+001  0.000000e+000
    endloop
  endfacet
  facet normal  0.000000e+000  0.000000e+000 -1.000000e+000
    outer loop
      vertex  7.460000e+001  2.000000e+001  0.000000e+000
      vertex  0.000000e+000  2.530000e+001  0.000000e+000
      vertex  7.460000e+001  2.530000e+001  0.000000e+000
    endloop
  endfacet
  facet normal  0.000000e+000  9.999999e-001  0.000000e+000
    outer loop
      vertex  0.000000e+000  2.530000e+001  2.400000e+000
      vertex  7.460000e+001  2.530000e+001  2.400000e+000
      vertex  0.000000e+000  2.530000e+001  0.000000e+000
    endloop
  endfacet
  facet normal  0.000000e+000  9.999999e-001  0.000000e+000
    outer loop
      vertex  0.000000e+000  2.530000e+001  0.000000e+000
      vertex  7.460000e+001  2.530000e+001  2.400000e+000
      vertex  7.460000e+001  2.530000e+001  0.000000e+000
    endloop
  endfacet
  facet normal  1.000000e+000  0.000000e+000  0.000000e+000
    outer loop
      vertex  7.460000e+001  2.000000e+001  2.400000e+000
      vertex  7.460000e+001  2.000000e+001  0.000000e+000
      vertex  7.460000e+001  2.530000e+001  2.400000e+000
    endloop
  endfacet
  facet normal  1.000000e+000  0.000000e+000  0.000000e+000
    outer loop
      vertex  7.460000e+001  2.530000e+001  2.400000e+000
      vertex  7.460000e+001  2.000000e+001  0.000000e+000
      vertex  7.460000e+001  2.530000e+001  0.000000e+000
    endloop
  endfacet
  facet normal  0.000000e+000 -9.999999e-001  0.000000e+000
    outer loop
      vertex  7.460000e+001  2.000000e+001  2.400000e+000
      vertex  0.000000e+000  2.000000e+001  2.400000e+000
      vertex  7.460000e+001  2.000000e+001  0.000000e+000
    endloop
  endfacet
  facet normal  0.000000e+000 -9.999999e-001  0.000000e+000
    outer loop
      vertex  7.460000e+001  2.000000e+001  0.000000e+000
      vertex  0.000000e+000  2.000000e+001  2.400000e+000
      vertex  0.000000e+000  2.000000e+001  0.000000e+000
    endloop
  endfacet
  facet normal -1.000000e+000  0.000000e+000  0.000000e+000
    outer loop
      vertex  0.000000e+000  2.530000e+001  2.400000e+000
      vertex  0.000000e+000  2.530000e+001  0.000000e+000
      vertex  0.000000e+000  2.000000e+001  2.400000e+000
    endloop
  endfacet
  facet normal -1.000000e+000  0.000000e+000  0.000000e+000
    outer loop
      vertex  0.000000e+000  2.000000e+001  2.400000e+000
      vertex  0.000000e+000  2.530000e+001  0.000000e+000
      vertex  0.000000e+000  2.000000e+001  0.000000e+000
    endloop
  endfacet
  facet normal  0.000000e+000  0.000000e+000  9.999999e-001
    outer loop
      vertex  0.000000e+000  1.000000e+001  2.400000e+000
      vertex  7.460000e+001  1.000000e+001  2.400000e+000
      vertex  0.000000e+000  1.530000e+001  2.400000e+000
    endloop
  endfacet
  facet normal  -0.000000e+000  0.000000e+000  9.999999e-001
    outer loop
      vertex  0.000000e+000  1.530000e+001  2.400000e+000
      vertex  7.460000e+001  1.000000e+001  2.400000e+000
      vertex  7.460000e+001  1.530000e+001  2.400000e+000
    endloop
  endfacet
  facet normal  0.000000e+000  0.000000e+000 -9.999999e-001
    outer loop
      vertex  0.000000e+000  1.000000e+001  0.000000e+000
      vertex  0.000000e+000  1.530000e+001  0.000000e+000
      vertex  7.460000e+001  1.000000e+001  0.000000e+000
    endloop
  endfacet
  facet normal  0.000000e+000  0.000000e+000 -9.999999e-001
    outer loop
      vertex  7.460000e+001  1.000000e+001  0.000000e+000
      vertex  0.000000e+000  1.530000e+001  0.000000e+000
      vertex  7.460000e+001  1.530000e+001  0.000000e+000
    endloop
  endfacet
  facet normal  0.000000e+000  9.999999e-001  0.000000e+000
    outer loop
      vertex  0.000000e+000  1.530000e+001  2.400000e+000
      vertex  7.460000e+001  1.530000e+001  2.400000e+000
      vertex  0.000000e+000  1.530000e+001  0.000000e+000
    endloop
  endfacet
  facet normal  0.000000e+000  9.999999e-001  0.000000e+000
    outer loop
      vertex  0.000000e+000  1.530000e+001  0.000000e+000
      vertex  7.460000e+001  1.530000e+001  2.400000e+000
      vertex  7.460000e+001  1.530000e+001  0.000000e+000
    endloop
  endfacet
  facet normal  1.000000e+000  0.000000e+000  0.000000e+000
    outer loop
      vertex  7.460000e+001  1.000000e+001  2.400000e+000
      vertex  7.460000e+001  1.000000e+001  0.000000e+000
      vertex  7.460000e+001  1.530000e+001  2.400000e+000
    endloop
  endfacet
  facet normal  1.000000e+000  0.000000e+000  0.000000e+000
    outer loop
      vertex  7.460000e+001  1.530000e+001  2.400000e+000
      vertex  7.460000e+001  1.000000e+001  0.000000e+000
      vertex  7.460000e+001  1.530000e+001  0.000000e+000
    endloop
  endfacet
  facet normal  0.000000e+000 -9.999999e-001  0.000000e+000
    outer loop
      vertex  7.460000e+001  1.000000e+001  2.400000e+000
      vertex  0.000000e+000  1.000000e+001  2.400000e+000
      vertex  7.460000e+001  1.000000e+001  0.000000e+000
    endloop
  endfacet
  facet normal  0.000000e+000 -9.999999e-001  0.000000e+000
    outer loop
      vertex  7.460000e+001  1.000000e+001  0.000000e+000
      vertex  0.000000e+000  1.000000e+001  2.400000e+000
      vertex  0.000000e+000  1.000000e+001  0.000000e+000
    endloop
  endfacet
  facet normal -1.000000e+000  0.000000e+000  0.000000e+000
    outer loop
      vertex  0.000000e+000  1.530000e+001  2.400000e+000
      vertex  0.000000e+000  1.530000e+001  0.000000e+000
      vertex  0.000000e+000  1.000000e+001  2.400000e+000
    endloop
  endfacet
  facet normal -1.000000e+000  0.000000e+000  0.000000e+000
    outer loop
      vertex  0.000000e+000  1.000000e+001  2.400000e+000
      vertex  0.000000e+000  1.530000e+001  0.000000e+000
      vertex  0.000000e+000  1.000000e+001  0.000000e+000
    endloop
  endfacet
  facet normal  0.000000e+000  0.000000e+000  9.999999e-001
    outer loop
      vertex  0.000000e+000  4.440892e-016  2.400000e+000
      vertex  7.460000e+001 -8.881784e-015  2.400000e+000
      vertex  0.000000e+000  5.300000e+000  2.400000e+000
    endloop
  endfacet
  facet normal  -0.000000e+000  0.000000e+000  9.999999e-001
    outer loop
      vertex  0.000000e+000  5.300000e+000  2.400000e+000
      vertex  7.460000e+001 -8.881784e-015  2.400000e+000
      vertex  7.460000e+001  5.300000e+000  2.400000e+000
    endloop
  endfacet
  facet normal  0.000000e+000  0.000000e+000 -9.999999e-001
    outer loop
      vertex  0.000000e+000  4.440892e-016  0.000000e+000
      vertex  0.000000e+000  5.300000e+000  0.000000e+000
      vertex  7.460000e+001 -8.881784e-015  0.000000e+000
    endloop
  endfacet
  facet normal  0.000000e+000  0.000000e+000 -9.999999e-001
    outer loop
      vertex  7.460000e+001 -8.881784e-015  0.000000e+000
      vertex  0.000000e+000  5.300000e+000  0.000000e+000
      vertex  7.460000e+001  5.300000e+000  0.000000e+000
    endloop
  endfacet
  facet normal  0.000000e+000  9.999999e-001  0.000000e+000
    outer loop
      vertex  0.000000e+000  5.300000e+000  2.400000e+000
      vertex  7.460000e+001  5.300000e+000  2.400000e+000
      vertex  0.000000e+000  5.300000e+000  0.000000e+000
    endloop
  endfacet
  facet normal  0.000000e+000  9.999999e-001  0.000000e+000
    outer loop
      vertex  0.000000e+000  5.300000e+000  0.000000e+000
      vertex  7.460000e+001  5.300000e+000  2.400000e+000
      vertex  7.460000e+001  5.300000e+000  0.000000e+000
    endloop
  endfacet
  facet normal  1.000000e+000  0.000000e+000  0.000000e+000
    outer loop
      vertex  7.460000e+001 -8.881784e-015  2.400000e+000
      vertex  7.460000e+001 -8.881784e-015  0.000000e+000
      vertex  7.460000e+001  5.300000e+000  2.400000e+000
    endloop
  endfacet
  facet normal  1.000000e+000  0.000000e+000  0.000000e+000
    outer loop
      vertex  7.460000e+001  5.300000e+000  2.400000e+000
      vertex  7.460000e+001 -8.881784e-015  0.000000e+000
      vertex  7.460000e+001  5.300000e+000  0.000000e+000
    endloop
  endfacet
  facet normal -1.250117e-016 -9.999999e-001  0.000000e+000
    outer loop
      vertex  7.460000e+001 -8.881784e-015  2.400000e+000
      vertex  0.000000e+000  4.440892e-016  2.400000e+000
      vertex  7.460000e+001 -8.881784e-015  0.000000e+000
    endloop
  endfacet
  facet normal -1.250117e-016 -9.999999e-001  0.000000e+000
    outer loop
      vertex  7.460000e+001 -8.881784e-015  0.000000e+000
      vertex  0.000000e+000  4.440892e-016  2.400000e+000
      vertex  0.000000e+000  4.440892e-016  0.000000e+000
    endloop
  endfacet
  facet normal -1.000000e+000  0.000000e+000  0.000000e+000
    outer loop
      vertex  0.000000e+000  5.300000e+000  2.400000e+000
      vertex  0.000000e+000  5.300000e+000  0.000000e+000
      vertex  0.000000e+000  4.440892e-016  2.400000e+000
    endloop
  endfacet
  facet normal -1.000000e+000  0.000000e+000  0.000000e+000
    outer loop
      vertex  0.000000e+000  4.440892e-016  2.400000e+000
      vertex  0.000000e+000  5.300000e+000  0.000000e+000
      vertex  0.000000e+000  4.440892e-016  0.000000e+000
    endloop
  endfacet
endsolid CATIA STL
