solid v3d.csg
  facet normal 0.0 0.0 1.0
    outer loop
      vertex 0.0 0.0 3.5
      vertex 7.0 0.0 3.5
      vertex 6.865496962822613 1.3656322541128978 3.5
    endloop
  endfacet
  facet normal 0.0 0.0 1.0
    outer loop
      vertex 0.0 0.0 3.5
      vertex 6.865496962822613 1.3656322541128978 3.5
      vertex 6.467156727579007 2.6787840265556286 3.5
    endloop
  endfacet
  facet normal 0.0 0.0 1.0
    outer loop
      vertex 0.0 0.0 3.5
      vertex 6.467156727579007 2.6787840265556286 3.5
      vertex 5.820287286117817 3.8889916311372152 3.5
    endloop
  endfacet
  facet normal 0.0 0.0 1.0
    outer loop
      vertex 0.0 0.0 3.5
      vertex 5.820287286117817 3.8889916311372152 3.5
      vertex 4.949747468305833 4.949747468305832 3.5
    endloop
  endfacet
  facet normal 0.0 0.0 1.0
    outer loop
      vertex 0.0 0.0 3.5
      vertex 4.949747468305833 4.949747468305832 3.5
      vertex 3.888991631137216 5.820287286117817 3.5
    endloop
  endfacet
  facet normal 0.0 0.0 1.0
    outer loop
      vertex 0.0 0.0 3.5
      vertex 3.888991631137216 5.820287286117817 3.5
      vertex 2.678784026555629 6.467156727579007 3.5
    endloop
  endfacet
  facet normal 0.0 0.0 1.0
    outer loop
      vertex 0.0 0.0 3.5
      vertex 2.678784026555629 6.467156727579007 3.5
      vertex 1.3656322541128982 6.865496962822613 3.5
    endloop
  endfacet
  facet normal 0.0 0.0 1.0
    outer loop
      vertex 0.0 0.0 3.5
      vertex 1.3656322541128982 6.865496962822613 3.5
      vertex 4.286263797015736E-16 7.0 3.5
    endloop
  endfacet
  facet normal 0.0 -0.0 1.0
    outer loop
      vertex 0.0 0.0 3.5
      vertex 4.286263797015736E-16 7.0 3.5
      vertex -1.3656322541128973 6.865496962822613 3.5
    endloop
  endfacet
  facet normal 0.0 0.0 1.0
    outer loop
      vertex 0.0 0.0 3.5
      vertex -1.3656322541128973 6.865496962822613 3.5
      vertex -2.678784026555628 6.467156727579007 3.5
    endloop
  endfacet
  facet normal 0.0 0.0 1.0
    outer loop
      vertex 0.0 0.0 3.5
      vertex -2.678784026555628 6.467156727579007 3.5
      vertex -3.8889916311372135 5.820287286117818 3.5
    endloop
  endfacet
  facet normal 0.0 0.0 1.0
    outer loop
      vertex 0.0 0.0 3.5
      vertex -3.8889916311372135 5.820287286117818 3.5
      vertex -4.949747468305832 4.949747468305833 3.5
    endloop
  endfacet
  facet normal 0.0 0.0 1.0
    outer loop
      vertex 0.0 0.0 3.5
      vertex -4.949747468305832 4.949747468305833 3.5
      vertex -5.820287286117818 3.8889916311372152 3.5
    endloop
  endfacet
  facet normal 0.0 0.0 1.0
    outer loop
      vertex 0.0 0.0 3.5
      vertex -5.820287286117818 3.8889916311372152 3.5
      vertex -6.467156727579007 2.678784026555629 3.5
    endloop
  endfacet
  facet normal 0.0 0.0 1.0
    outer loop
      vertex 0.0 0.0 3.5
      vertex -6.467156727579007 2.678784026555629 3.5
      vertex -6.865496962822613 1.3656322541129002 3.5
    endloop
  endfacet
  facet normal 0.0 0.0 1.0
    outer loop
      vertex 0.0 0.0 3.5
      vertex -6.865496962822613 1.3656322541129002 3.5
      vertex -7.0 8.572527594031472E-16 3.5
    endloop
  endfacet
  facet normal 0.0 0.0 1.0
    outer loop
      vertex 0.0 0.0 3.5
      vertex -7.0 8.572527594031472E-16 3.5
      vertex -6.865496962822613 -1.3656322541128985 3.5
    endloop
  endfacet
  facet normal 0.0 0.0 1.0
    outer loop
      vertex 0.0 0.0 3.5
      vertex -6.865496962822613 -1.3656322541128985 3.5
      vertex -6.467156727579008 -2.6787840265556278 3.5
    endloop
  endfacet
  facet normal 0.0 0.0 1.0
    outer loop
      vertex 0.0 0.0 3.5
      vertex -6.467156727579008 -2.6787840265556278 3.5
      vertex -5.820287286117818 -3.8889916311372135 3.5
    endloop
  endfacet
  facet normal 0.0 0.0 1.0
    outer loop
      vertex 0.0 0.0 3.5
      vertex -5.820287286117818 -3.8889916311372135 3.5
      vertex -4.949747468305834 -4.949747468305832 3.5
    endloop
  endfacet
  facet normal 0.0 0.0 1.0
    outer loop
      vertex 0.0 0.0 3.5
      vertex -4.949747468305834 -4.949747468305832 3.5
      vertex -3.8889916311372152 -5.820287286117817 3.5
    endloop
  endfacet
  facet normal 0.0 0.0 1.0
    outer loop
      vertex 0.0 0.0 3.5
      vertex -3.8889916311372152 -5.820287286117817 3.5
      vertex -2.678784026555632 -6.467156727579006 3.5
    endloop
  endfacet
  facet normal 0.0 0.0 1.0
    outer loop
      vertex 0.0 0.0 3.5
      vertex -2.678784026555632 -6.467156727579006 3.5
      vertex -1.3656322541129007 -6.865496962822612 3.5
    endloop
  endfacet
  facet normal 0.0 0.0 1.0
    outer loop
      vertex 0.0 0.0 3.5
      vertex -1.3656322541129007 -6.865496962822612 3.5
      vertex -1.2858791391047208E-15 -7.0 3.5
    endloop
  endfacet
  facet normal 0.0 0.0 1.0
    outer loop
      vertex 0.0 0.0 3.5
      vertex -1.2858791391047208E-15 -7.0 3.5
      vertex 1.365632254112898 -6.865496962822613 3.5
    endloop
  endfacet
  facet normal 0.0 0.0 1.0
    outer loop
      vertex 0.0 0.0 3.5
      vertex 1.365632254112898 -6.865496962822613 3.5
      vertex 2.67878402655563 -6.467156727579006 3.5
    endloop
  endfacet
  facet normal 0.0 0.0 1.0
    outer loop
      vertex 0.0 0.0 3.5
      vertex 2.67878402655563 -6.467156727579006 3.5
      vertex 3.888991631137213 -5.820287286117818 3.5
    endloop
  endfacet
  facet normal 0.0 0.0 1.0
    outer loop
      vertex 0.0 0.0 3.5
      vertex 3.888991631137213 -5.820287286117818 3.5
      vertex 4.949747468305832 -4.949747468305834 3.5
    endloop
  endfacet
  facet normal 0.0 0.0 1.0
    outer loop
      vertex 0.0 0.0 3.5
      vertex 4.949747468305832 -4.949747468305834 3.5
      vertex 5.820287286117817 -3.8889916311372152 3.5
    endloop
  endfacet
  facet normal 0.0 0.0 1.0
    outer loop
      vertex 0.0 0.0 3.5
      vertex 5.820287286117817 -3.8889916311372152 3.5
      vertex 6.467156727579006 -2.6787840265556326 3.5
    endloop
  endfacet
  facet normal 0.0 0.0 1.0
    outer loop
      vertex 0.0 0.0 3.5
      vertex 6.467156727579006 -2.6787840265556326 3.5
      vertex 6.865496962822612 -1.3656322541129011 3.5
    endloop
  endfacet
  facet normal -0.0 0.0 1.0
    outer loop
      vertex 0.0 0.0 3.5
      vertex 6.865496962822612 -1.3656322541129011 3.5
      vertex 7.0 0.0 3.5
    endloop
  endfacet
  facet normal -0.0 0.0 -1.0
    outer loop
      vertex 6.966293086705378 0.6861199823069242 0.0
      vertex 0.0 0.0 0.0
      vertex 6.698582350125462 2.031992740781236 0.0
    endloop
  endfacet
  facet normal -0.0 0.0 -1.0
    outer loop
      vertex 6.698582350125462 2.031992740781236 0.0
      vertex 0.0 0.0 0.0
      vertex 6.1734488504384855 3.2997771577819837 0.0
    endloop
  endfacet
  facet normal -0.0 0.0 -1.0
    outer loop
      vertex 6.1734488504384855 3.2997771577819837 0.0
      vertex 0.0 0.0 0.0
      vertex 5.411073173539159 4.440752989145518 0.0
    endloop
  endfacet
  facet normal -0.0 0.0 -1.0
    outer loop
      vertex 5.411073173539159 4.440752989145518 0.0
      vertex 0.0 0.0 0.0
      vertex 4.440752989145518 5.411073173539159 0.0
    endloop
  endfacet
  facet normal -0.0 0.0 -1.0
    outer loop
      vertex 4.440752989145518 5.411073173539159 0.0
      vertex 0.0 0.0 0.0
      vertex 3.2997771577819845 6.173448850438485 0.0
    endloop
  endfacet
  facet normal -0.0 0.0 -1.0
    outer loop
      vertex 3.2997771577819845 6.173448850438485 0.0
      vertex 0.0 0.0 0.0
      vertex 2.031992740781236 6.698582350125463 0.0
    endloop
  endfacet
  facet normal -0.0 0.0 -1.0
    outer loop
      vertex 2.031992740781236 6.698582350125463 0.0
      vertex 0.0 0.0 0.0
      vertex 0.6861199823069254 6.966293086705377 0.0
    endloop
  endfacet
  facet normal -0.0 0.0 -1.0
    outer loop
      vertex 0.6861199823069254 6.966293086705377 0.0
      vertex 0.0 0.0 0.0
      vertex -0.6861199823069245 6.966293086705378 0.0
    endloop
  endfacet
  facet normal 0.0 -0.0 -1.0
    outer loop
      vertex -0.6861199823069245 6.966293086705378 0.0
      vertex 0.0 0.0 0.0
      vertex -2.0319927407812353 6.698582350125463 0.0
    endloop
  endfacet
  facet normal 0.0 -0.0 -1.0
    outer loop
      vertex -2.0319927407812353 6.698582350125463 0.0
      vertex 0.0 0.0 0.0
      vertex -3.2997771577819837 6.1734488504384855 0.0
    endloop
  endfacet
  facet normal 0.0 -0.0 -1.0
    outer loop
      vertex -3.2997771577819837 6.1734488504384855 0.0
      vertex 0.0 0.0 0.0
      vertex -4.440752989145517 5.41107317353916 0.0
    endloop
  endfacet
  facet normal 0.0 -0.0 -1.0
    outer loop
      vertex -4.440752989145517 5.41107317353916 0.0
      vertex 0.0 0.0 0.0
      vertex -5.411073173539159 4.440752989145518 0.0
    endloop
  endfacet
  facet normal 0.0 -0.0 -1.0
    outer loop
      vertex -5.411073173539159 4.440752989145518 0.0
      vertex 0.0 0.0 0.0
      vertex -6.173448850438485 3.299777157781985 0.0
    endloop
  endfacet
  facet normal 0.0 -0.0 -1.0
    outer loop
      vertex -6.173448850438485 3.299777157781985 0.0
      vertex 0.0 0.0 0.0
      vertex -6.698582350125462 2.0319927407812366 0.0
    endloop
  endfacet
  facet normal 0.0 -0.0 -1.0
    outer loop
      vertex -6.698582350125462 2.0319927407812366 0.0
      vertex 0.0 0.0 0.0
      vertex -6.966293086705377 0.6861199823069257 0.0
    endloop
  endfacet
  facet normal 0.0 -0.0 -1.0
    outer loop
      vertex -6.966293086705377 0.6861199823069257 0.0
      vertex 0.0 0.0 0.0
      vertex -6.966293086705378 -0.6861199823069242 0.0
    endloop
  endfacet
  facet normal 0.0 0.0 -1.0
    outer loop
      vertex -6.966293086705378 -0.6861199823069242 0.0
      vertex 0.0 0.0 0.0
      vertex -6.698582350125463 -2.031992740781235 0.0
    endloop
  endfacet
  facet normal 0.0 0.0 -1.0
    outer loop
      vertex -6.698582350125463 -2.031992740781235 0.0
      vertex 0.0 0.0 0.0
      vertex -6.1734488504384855 -3.2997771577819837 0.0
    endloop
  endfacet
  facet normal 0.0 0.0 -1.0
    outer loop
      vertex -6.1734488504384855 -3.2997771577819837 0.0
      vertex 0.0 0.0 0.0
      vertex -5.41107317353916 -4.440752989145517 0.0
    endloop
  endfacet
  facet normal 0.0 0.0 -1.0
    outer loop
      vertex -5.41107317353916 -4.440752989145517 0.0
      vertex 0.0 0.0 0.0
      vertex -4.440752989145522 -5.411073173539156 0.0
    endloop
  endfacet
  facet normal 0.0 0.0 -1.0
    outer loop
      vertex -4.440752989145522 -5.411073173539156 0.0
      vertex 0.0 0.0 0.0
      vertex -3.299777157781985 -6.173448850438485 0.0
    endloop
  endfacet
  facet normal 0.0 0.0 -1.0
    outer loop
      vertex -3.299777157781985 -6.173448850438485 0.0
      vertex 0.0 0.0 0.0
      vertex -2.031992740781237 -6.698582350125462 0.0
    endloop
  endfacet
  facet normal 0.0 0.0 -1.0
    outer loop
      vertex -2.031992740781237 -6.698582350125462 0.0
      vertex 0.0 0.0 0.0
      vertex -0.6861199823069232 -6.966293086705378 0.0
    endloop
  endfacet
  facet normal 0.0 0.0 -1.0
    outer loop
      vertex -0.6861199823069232 -6.966293086705378 0.0
      vertex 0.0 0.0 0.0
      vertex 0.6861199823069206 -6.966293086705378 0.0
    endloop
  endfacet
  facet normal 0.0 0.0 -1.0
    outer loop
      vertex 0.6861199823069206 -6.966293086705378 0.0
      vertex 0.0 0.0 0.0
      vertex 2.0319927407812344 -6.698582350125463 0.0
    endloop
  endfacet
  facet normal 0.0 0.0 -1.0
    outer loop
      vertex 2.0319927407812344 -6.698582350125463 0.0
      vertex 0.0 0.0 0.0
      vertex 3.299777157781983 -6.1734488504384855 0.0
    endloop
  endfacet
  facet normal 0.0 0.0 -1.0
    outer loop
      vertex 3.299777157781983 -6.1734488504384855 0.0
      vertex 0.0 0.0 0.0
      vertex 4.440752989145519 -5.411073173539158 0.0
    endloop
  endfacet
  facet normal 0.0 0.0 -1.0
    outer loop
      vertex 4.440752989145519 -5.411073173539158 0.0
      vertex 0.0 0.0 0.0
      vertex 5.411073173539156 -4.440752989145522 0.0
    endloop
  endfacet
  facet normal 0.0 0.0 -1.0
    outer loop
      vertex 5.411073173539156 -4.440752989145522 0.0
      vertex 0.0 0.0 0.0
      vertex 6.173448850438484 -3.2997771577819854 0.0
    endloop
  endfacet
  facet normal 0.0 0.0 -1.0
    outer loop
      vertex 6.173448850438484 -3.2997771577819854 0.0
      vertex 0.0 0.0 0.0
      vertex 6.698582350125462 -2.0319927407812375 0.0
    endloop
  endfacet
  facet normal 0.0 0.0 -1.0
    outer loop
      vertex 6.698582350125462 -2.0319927407812375 0.0
      vertex 0.0 0.0 0.0
      vertex 6.966293086705378 -0.6861199823069235 0.0
    endloop
  endfacet
  facet normal 0.0 0.0 -1.0
    outer loop
      vertex 6.966293086705378 -0.6861199823069235 0.0
      vertex 0.0 0.0 0.0
      vertex 6.966293086705378 0.6861199823069242 0.0
    endloop
  endfacet
  facet normal 0.9951385794698653 0.09801259522684205 0.009630100082449376
    outer loop
      vertex 7.0 0.0 3.5
      vertex 6.966293086705378 0.6861199823069242 0.0
      vertex 6.865496962822613 1.3656322541128978 3.5
    endloop
  endfacet
  facet normal 0.9807398009102624 0.19508127558251492 -0.009630100082449309
    outer loop
      vertex 6.865496962822613 1.3656322541128978 3.5
      vertex 6.966293086705378 0.6861199823069242 0.0
      vertex 6.698582350125462 2.031992740781236 0.0
    endloop
  endfacet
  facet normal 0.9568959619409831 0.2902712166120551 0.009630100082449345
    outer loop
      vertex 6.865496962822613 1.3656322541128978 3.5
      vertex 6.698582350125462 2.031992740781236 0.0
      vertex 6.467156727579007 2.6787840265556286 3.5
    endloop
  endfacet
  facet normal 0.9238366917656703 0.38266568714723287 -0.009630100082449262
    outer loop
      vertex 6.467156727579007 2.6787840265556286 3.5
      vertex 6.698582350125462 2.031992740781236 0.0
      vertex 6.1734488504384855 3.2997771577819837 0.0
    endloop
  endfacet
  facet normal 0.8818803692281472 0.47137487792884025 0.009630100082449428
    outer loop
      vertex 6.467156727579007 2.6787840265556286 3.5
      vertex 6.1734488504384855 3.2997771577819837 0.0
      vertex 5.820287286117817 3.8889916311372152 3.5
    endloop
  endfacet
  facet normal 0.8314310566501089 0.5555444709562734 -0.009630100082449307
    outer loop
      vertex 5.820287286117817 3.8889916311372152 3.5
      vertex 6.1734488504384855 3.2997771577819837 0.0
      vertex 5.411073173539159 4.440752989145518 0.0
    endloop
  endfacet
  facet normal 0.7729746084900817 0.634363867036898 0.009630100082449435
    outer loop
      vertex 5.820287286117817 3.8889916311372152 3.5
      vertex 5.411073173539159 4.440752989145518 0.0
      vertex 4.949747468305833 4.949747468305832 3.5
    endloop
  endfacet
  facet normal 0.7070739922993923 0.7070739922993923 -0.009630100082449149
    outer loop
      vertex 4.949747468305833 4.949747468305832 3.5
      vertex 5.411073173539159 4.440752989145518 0.0
      vertex 4.440752989145518 5.411073173539159 0.0
    endloop
  endfacet
  facet normal 0.6343638670368983 0.7729746084900813 0.009630100082449371
    outer loop
      vertex 4.949747468305833 4.949747468305832 3.5
      vertex 4.440752989145518 5.411073173539159 0.0
      vertex 3.888991631137216 5.820287286117817 3.5
    endloop
  endfacet
  facet normal 0.5555444709562731 0.831431056650109 -0.009630100082449484
    outer loop
      vertex 3.888991631137216 5.820287286117817 3.5
      vertex 4.440752989145518 5.411073173539159 0.0
      vertex 3.2997771577819845 6.173448850438485 0.0
    endloop
  endfacet
  facet normal 0.47137487792884014 0.8818803692281473 0.009630100082449229
    outer loop
      vertex 3.888991631137216 5.820287286117817 3.5
      vertex 3.2997771577819845 6.173448850438485 0.0
      vertex 2.678784026555629 6.467156727579007 3.5
    endloop
  endfacet
  facet normal 0.38266568714723376 0.9238366917656701 -0.009630100082449257
    outer loop
      vertex 2.678784026555629 6.467156727579007 3.5
      vertex 3.2997771577819845 6.173448850438485 0.0
      vertex 2.031992740781236 6.698582350125463 0.0
    endloop
  endfacet
  facet normal 0.2902712166120551 0.9568959619409831 0.009630100082449558
    outer loop
      vertex 2.678784026555629 6.467156727579007 3.5
      vertex 2.031992740781236 6.698582350125463 0.0
      vertex 1.3656322541128982 6.865496962822613 3.5
    endloop
  endfacet
  facet normal 0.19508127558251379 0.9807398009102625 -0.009630100082449293
    outer loop
      vertex 1.3656322541128982 6.865496962822613 3.5
      vertex 2.031992740781236 6.698582350125463 0.0
      vertex 0.6861199823069254 6.966293086705377 0.0
    endloop
  endfacet
  facet normal 0.09801259522684205 0.9951385794698653 0.009630100082449147
    outer loop
      vertex 1.3656322541128982 6.865496962822613 3.5
      vertex 0.6861199823069254 6.966293086705377 0.0
      vertex 4.286263797015736E-16 7.0 3.5
    endloop
  endfacet
  facet normal 6.472171466617264E-16 0.9999536295110899 -0.009630100082449442
    outer loop
      vertex 4.286263797015736E-16 7.0 3.5
      vertex 0.6861199823069254 6.966293086705377 0.0
      vertex -0.6861199823069245 6.966293086705378 0.0
    endloop
  endfacet
  facet normal -0.09801259522684205 0.9951385794698653 0.009630100082449397
    outer loop
      vertex 4.286263797015736E-16 7.0 3.5
      vertex -0.6861199823069245 6.966293086705378 0.0
      vertex -1.3656322541128973 6.865496962822613 3.5
    endloop
  endfacet
  facet normal -0.19508127558251445 0.9807398009102625 -0.009630100082449172
    outer loop
      vertex -1.3656322541128973 6.865496962822613 3.5
      vertex -0.6861199823069245 6.966293086705378 0.0
      vertex -2.0319927407812353 6.698582350125463 0.0
    endloop
  endfacet
  facet normal -0.2902712166120551 0.9568959619409831 0.009630100082449551
    outer loop
      vertex -1.3656322541128973 6.865496962822613 3.5
      vertex -2.0319927407812353 6.698582350125463 0.0
      vertex -2.678784026555628 6.467156727579007 3.5
    endloop
  endfacet
  facet normal -0.38266568714723315 0.9238366917656702 -0.009630100082449142
    outer loop
      vertex -2.678784026555628 6.467156727579007 3.5
      vertex -2.0319927407812353 6.698582350125463 0.0
      vertex -3.2997771577819837 6.1734488504384855 0.0
    endloop
  endfacet
  facet normal -0.4713748779288401 0.8818803692281472 0.00963010008244946
    outer loop
      vertex -2.678784026555628 6.467156727579007 3.5
      vertex -3.2997771577819837 6.1734488504384855 0.0
      vertex -3.8889916311372135 5.820287286117818 3.5
    endloop
  endfacet
  facet normal -0.5555444709562731 0.831431056650109 -0.009630100082449194
    outer loop
      vertex -3.8889916311372135 5.820287286117818 3.5
      vertex -3.2997771577819837 6.1734488504384855 0.0
      vertex -4.440752989145517 5.41107317353916 0.0
    endloop
  endfacet
  facet normal -0.6343638670368976 0.7729746084900819 0.009630100082449536
    outer loop
      vertex -3.8889916311372135 5.820287286117818 3.5
      vertex -4.440752989145517 5.41107317353916 0.0
      vertex -4.949747468305832 4.949747468305833 3.5
    endloop
  endfacet
  facet normal -0.7070739922993923 0.7070739922993923 -0.009630100082449146
    outer loop
      vertex -4.949747468305832 4.949747468305833 3.5
      vertex -4.440752989145517 5.41107317353916 0.0
      vertex -5.411073173539159 4.440752989145518 0.0
    endloop
  endfacet
  facet normal -0.7729746084900813 0.6343638670368983 0.00963010008244935
    outer loop
      vertex -4.949747468305832 4.949747468305833 3.5
      vertex -5.411073173539159 4.440752989145518 0.0
      vertex -5.820287286117818 3.8889916311372152 3.5
    endloop
  endfacet
  facet normal -0.8314310566501089 0.5555444709562734 -0.009630100082449517
    outer loop
      vertex -5.820287286117818 3.8889916311372152 3.5
      vertex -5.411073173539159 4.440752989145518 0.0
      vertex -6.173448850438485 3.299777157781985 0.0
    endloop
  endfacet
  facet normal -0.8818803692281472 0.4713748779288398 0.009630100082449236
    outer loop
      vertex -5.820287286117818 3.8889916311372152 3.5
      vertex -6.173448850438485 3.299777157781985 0.0
      vertex -6.467156727579007 2.678784026555629 3.5
    endloop
  endfacet
  facet normal -0.9238366917656702 0.38266568714723326 -0.009630100082449335
    outer loop
      vertex -6.467156727579007 2.678784026555629 3.5
      vertex -6.173448850438485 3.299777157781985 0.0
      vertex -6.698582350125462 2.0319927407812366 0.0
    endloop
  endfacet
  facet normal -0.956895961940983 0.29027121661205546 0.009630100082449258
    outer loop
      vertex -6.467156727579007 2.678784026555629 3.5
      vertex -6.698582350125462 2.0319927407812366 0.0
      vertex -6.865496962822613 1.3656322541129002 3.5
    endloop
  endfacet
  facet normal -0.9807398009102625 0.19508127558251445 -0.009630100082449513
    outer loop
      vertex -6.865496962822613 1.3656322541129002 3.5
      vertex -6.698582350125462 2.0319927407812366 0.0
      vertex -6.966293086705377 0.6861199823069257 0.0
    endloop
  endfacet
  facet normal -0.9951385794698653 0.09801259522684194 0.00963010008244912
    outer loop
      vertex -6.865496962822613 1.3656322541129002 3.5
      vertex -6.966293086705377 0.6861199823069257 0.0
      vertex -7.0 8.572527594031472E-16 3.5
    endloop
  endfacet
  facet normal -0.9999536295110899 6.472171466617264E-16 -0.00963010008244944
    outer loop
      vertex -7.0 8.572527594031472E-16 3.5
      vertex -6.966293086705377 0.6861199823069257 0.0
      vertex -6.966293086705378 -0.6861199823069242 0.0
    endloop
  endfacet
  facet normal -0.9951385794698653 -0.09801259522684194 0.009630100082449378
    outer loop
      vertex -7.0 8.572527594031472E-16 3.5
      vertex -6.966293086705378 -0.6861199823069242 0.0
      vertex -6.865496962822613 -1.3656322541128985 3.5
    endloop
  endfacet
  facet normal -0.9807398009102625 -0.19508127558251448 -0.009630100082449255
    outer loop
      vertex -6.865496962822613 -1.3656322541128985 3.5
      vertex -6.966293086705378 -0.6861199823069242 0.0
      vertex -6.698582350125463 -2.031992740781235 0.0
    endloop
  endfacet
  facet normal -0.9568959619409833 -0.2902712166120548 0.00963010008244936
    outer loop
      vertex -6.865496962822613 -1.3656322541128985 3.5
      vertex -6.698582350125463 -2.031992740781235 0.0
      vertex -6.467156727579008 -2.6787840265556278 3.5
    endloop
  endfacet
  facet normal -0.9238366917656702 -0.3826656871472331 -0.009630100082449355
    outer loop
      vertex -6.467156727579008 -2.6787840265556278 3.5
      vertex -6.698582350125463 -2.031992740781235 0.0
      vertex -6.1734488504384855 -3.2997771577819837 0.0
    endloop
  endfacet
  facet normal -0.881880369228147 -0.4713748779288405 0.009630100082449375
    outer loop
      vertex -6.467156727579008 -2.6787840265556278 3.5
      vertex -6.1734488504384855 -3.2997771577819837 0.0
      vertex -5.820287286117818 -3.8889916311372135 3.5
    endloop
  endfacet
  facet normal -0.831431056650109 -0.5555444709562731 -0.009630100082449194
    outer loop
      vertex -5.820287286117818 -3.8889916311372135 3.5
      vertex -6.1734488504384855 -3.2997771577819837 0.0
      vertex -5.41107317353916 -4.440752989145517 0.0
    endloop
  endfacet
  facet normal -0.7729746084900821 -0.6343638670368973 0.009630100082449435
    outer loop
      vertex -5.820287286117818 -3.8889916311372135 3.5
      vertex -5.41107317353916 -4.440752989145517 0.0
      vertex -4.949747468305834 -4.949747468305832 3.5
    endloop
  endfacet
  facet normal -0.7070739922993926 -0.707073992299392 -0.009630100082449241
    outer loop
      vertex -4.949747468305834 -4.949747468305832 3.5
      vertex -5.41107317353916 -4.440752989145517 0.0
      vertex -4.440752989145522 -5.411073173539156 0.0
    endloop
  endfacet
  facet normal -0.6343638670368976 -0.7729746084900819 0.00963010008244942
    outer loop
      vertex -4.949747468305834 -4.949747468305832 3.5
      vertex -4.440752989145522 -5.411073173539156 0.0
      vertex -3.8889916311372152 -5.820287286117817 3.5
    endloop
  endfacet
  facet normal -0.5555444709562736 -0.8314310566501087 -0.009630100082449336
    outer loop
      vertex -3.8889916311372152 -5.820287286117817 3.5
      vertex -4.440752989145522 -5.411073173539156 0.0
      vertex -3.299777157781985 -6.173448850438485 0.0
    endloop
  endfacet
  facet normal -0.4713748779288408 -0.8818803692281468 0.009630100082449255
    outer loop
      vertex -3.8889916311372152 -5.820287286117817 3.5
      vertex -3.299777157781985 -6.173448850438485 0.0
      vertex -2.678784026555632 -6.467156727579006 3.5
    endloop
  endfacet
  facet normal -0.3826656871472333 -0.9238366917656702 -0.009630100082449413
    outer loop
      vertex -2.678784026555632 -6.467156727579006 3.5
      vertex -3.299777157781985 -6.173448850438485 0.0
      vertex -2.031992740781237 -6.698582350125462 0.0
    endloop
  endfacet
  facet normal -0.2902712166120549 -0.9568959619409831 0.0096301000824494
    outer loop
      vertex -2.678784026555632 -6.467156727579006 3.5
      vertex -2.031992740781237 -6.698582350125462 0.0
      vertex -1.3656322541129007 -6.865496962822612 3.5
    endloop
  endfacet
  facet normal -0.19508127558251465 -0.9807398009102624 -0.00963010008244922
    outer loop
      vertex -1.3656322541129007 -6.865496962822612 3.5
      vertex -2.031992740781237 -6.698582350125462 0.0
      vertex -0.6861199823069232 -6.966293086705378 0.0
    endloop
  endfacet
  facet normal -0.0980125952268426 -0.9951385794698652 0.009630100082449416
    outer loop
      vertex -1.3656322541129007 -6.865496962822612 3.5
      vertex -0.6861199823069232 -6.966293086705378 0.0
      vertex -1.2858791391047208E-15 -7.0 3.5
    endloop
  endfacet
  facet normal 0.0 -0.9999536295110899 -0.009630100082449312
    outer loop
      vertex -1.2858791391047208E-15 -7.0 3.5
      vertex -0.6861199823069232 -6.966293086705378 0.0
      vertex 0.6861199823069206 -6.966293086705378 0.0
    endloop
  endfacet
  facet normal 0.09801259522684194 -0.9951385794698653 0.009630100082449291
    outer loop
      vertex -1.2858791391047208E-15 -7.0 3.5
      vertex 0.6861199823069206 -6.966293086705378 0.0
      vertex 1.365632254112898 -6.865496962822613 3.5
    endloop
  endfacet
  facet normal 0.19508127558251404 -0.9807398009102625 -0.009630100082449343
    outer loop
      vertex 1.365632254112898 -6.865496962822613 3.5
      vertex 0.6861199823069206 -6.966293086705378 0.0
      vertex 2.0319927407812344 -6.698582350125463 0.0
    endloop
  endfacet
  facet normal 0.2902712166120554 -0.9568959619409831 0.009630100082449489
    outer loop
      vertex 1.365632254112898 -6.865496962822613 3.5
      vertex 2.0319927407812344 -6.698582350125463 0.0
      vertex 2.67878402655563 -6.467156727579006 3.5
    endloop
  endfacet
  facet normal 0.3826656871472331 -0.9238366917656703 -0.009630100082449175
    outer loop
      vertex 2.67878402655563 -6.467156727579006 3.5
      vertex 2.0319927407812344 -6.698582350125463 0.0
      vertex 3.299777157781983 -6.1734488504384855 0.0
    endloop
  endfacet
  facet normal 0.4713748779288403 -0.881880369228147 0.00963010008244942
    outer loop
      vertex 2.67878402655563 -6.467156727579006 3.5
      vertex 3.299777157781983 -6.1734488504384855 0.0
      vertex 3.888991631137213 -5.820287286117818 3.5
    endloop
  endfacet
  facet normal 0.5555444709562734 -0.8314310566501089 -0.009630100082449234
    outer loop
      vertex 3.888991631137213 -5.820287286117818 3.5
      vertex 3.299777157781983 -6.1734488504384855 0.0
      vertex 4.440752989145519 -5.411073173539158 0.0
    endloop
  endfacet
  facet normal 0.6343638670368972 -0.7729746084900823 0.009630100082449399
    outer loop
      vertex 3.888991631137213 -5.820287286117818 3.5
      vertex 4.440752989145519 -5.411073173539158 0.0
      vertex 4.949747468305832 -4.949747468305834 3.5
    endloop
  endfacet
  facet normal 0.7070739922993919 -0.7070739922993926 -0.009630100082449244
    outer loop
      vertex 4.949747468305832 -4.949747468305834 3.5
      vertex 4.440752989145519 -5.411073173539158 0.0
      vertex 5.411073173539156 -4.440752989145522 0.0
    endloop
  endfacet
  facet normal 0.7729746084900819 -0.6343638670368976 0.00963010008244942
    outer loop
      vertex 4.949747468305832 -4.949747468305834 3.5
      vertex 5.411073173539156 -4.440752989145522 0.0
      vertex 5.820287286117817 -3.8889916311372152 3.5
    endloop
  endfacet
  facet normal 0.8314310566501089 -0.5555444709562731 -0.00963010008244941
    outer loop
      vertex 5.820287286117817 -3.8889916311372152 3.5
      vertex 5.411073173539156 -4.440752989145522 0.0
      vertex 6.173448850438484 -3.2997771577819854 0.0
    endloop
  endfacet
  facet normal 0.8818803692281467 -0.471374877928841 0.00963010008244905
    outer loop
      vertex 5.820287286117817 -3.8889916311372152 3.5
      vertex 6.173448850438484 -3.2997771577819854 0.0
      vertex 6.467156727579006 -2.6787840265556326 3.5
    endloop
  endfacet
  facet normal 0.92383669176567 -0.38266568714723387 -0.009630100082449532
    outer loop
      vertex 6.467156727579006 -2.6787840265556326 3.5
      vertex 6.173448850438484 -3.2997771577819854 0.0
      vertex 6.698582350125462 -2.0319927407812375 0.0
    endloop
  endfacet
  facet normal 0.9568959619409831 -0.2902712166120549 0.0096301000824494
    outer loop
      vertex 6.467156727579006 -2.6787840265556326 3.5
      vertex 6.698582350125462 -2.0319927407812375 0.0
      vertex 6.865496962822612 -1.3656322541129011 3.5
    endloop
  endfacet
  facet normal 0.9807398009102624 -0.19508127558251465 -0.009630100082449225
    outer loop
      vertex 6.865496962822612 -1.3656322541129011 3.5
      vertex 6.698582350125462 -2.0319927407812375 0.0
      vertex 6.966293086705378 -0.6861199823069235 0.0
    endloop
  endfacet
  facet normal 0.9951385794698652 -0.09801259522684244 0.009630100082449434
    outer loop
      vertex 6.865496962822612 -1.3656322541129011 3.5
      vertex 6.966293086705378 -0.6861199823069235 0.0
      vertex 7.0 0.0 3.5
    endloop
  endfacet
  facet normal 0.9999536295110899 0.0 -0.009630100082449316
    outer loop
      vertex 7.0 0.0 3.5
      vertex 6.966293086705378 -0.6861199823069235 0.0
      vertex 6.966293086705378 0.6861199823069242 0.0
    endloop
  endfacet
endsolid v3d.csg
