solid v3d.csg
  facet normal 0.0 -0.0 1.0
    outer loop
      vertex 3.061616997868383E-16 5.0 0.0
      vertex 4.133182947122317E-16 6.75 0.0
      vertex -0.341408063528224 6.716374240705653 0.0
    endloop
  endfacet
  facet normal 0.0 0.0 1.0
    outer loop
      vertex 3.061616997868383E-16 5.0 0.0
      vertex -0.341408063528224 6.716374240705653 0.0
      vertex -0.6696960066389067 6.6167891818947515 0.0
    endloop
  endfacet
  facet normal 0.0 0.0 1.0
    outer loop
      vertex 3.061616997868383E-16 5.0 0.0
      vertex -0.6696960066389067 6.6167891818947515 0.0
      vertex -0.9722479077843034 6.4550718215294545 0.0
    endloop
  endfacet
  facet normal 0.0 0.0 1.0
    outer loop
      vertex 3.061616997868383E-16 5.0 0.0
      vertex -0.9722479077843034 6.4550718215294545 0.0
      vertex -1.2374368670764577 6.237436867076458 0.0
    endloop
  endfacet
  facet normal 0.0 0.0 1.0
    outer loop
      vertex 3.061616997868383E-16 5.0 0.0
      vertex -1.2374368670764577 6.237436867076458 0.0
      vertex -1.455071821529454 5.972247907784304 0.0
    endloop
  endfacet
  facet normal 0.0 0.0 1.0
    outer loop
      vertex 3.061616997868383E-16 5.0 0.0
      vertex -1.455071821529454 5.972247907784304 0.0
      vertex -1.6167891818947515 5.669696006638907 0.0
    endloop
  endfacet
  facet normal 0.0 0.0 1.0
    outer loop
      vertex 3.061616997868383E-16 5.0 0.0
      vertex -1.6167891818947515 5.669696006638907 0.0
      vertex -1.716374240705653 5.341408063528225 0.0
    endloop
  endfacet
  facet normal 0.0 0.0 1.0
    outer loop
      vertex 3.061616997868383E-16 5.0 0.0
      vertex -1.716374240705653 5.341408063528225 0.0
      vertex -1.7499999999999998 5.0 0.0
    endloop
  endfacet
  facet normal 0.0 0.0 1.0
    outer loop
      vertex 3.061616997868383E-16 5.0 0.0
      vertex -1.7499999999999998 5.0 0.0
      vertex -1.716374240705653 4.658591936471776 0.0
    endloop
  endfacet
  facet normal 0.0 0.0 1.0
    outer loop
      vertex 3.061616997868383E-16 5.0 0.0
      vertex -1.716374240705653 4.658591936471776 0.0
      vertex -1.6167891818947515 4.330303993361093 0.0
    endloop
  endfacet
  facet normal 0.0 0.0 1.0
    outer loop
      vertex 3.061616997868383E-16 5.0 0.0
      vertex -1.6167891818947515 4.330303993361093 0.0
      vertex -1.4550718215294542 4.027752092215697 0.0
    endloop
  endfacet
  facet normal 0.0 0.0 1.0
    outer loop
      vertex 3.061616997868383E-16 5.0 0.0
      vertex -1.4550718215294542 4.027752092215697 0.0
      vertex -1.237436867076458 3.762563132923542 0.0
    endloop
  endfacet
  facet normal 0.0 0.0 1.0
    outer loop
      vertex 3.061616997868383E-16 5.0 0.0
      vertex -1.237436867076458 3.762563132923542 0.0
      vertex -0.9722479077843036 3.5449281784705455 0.0
    endloop
  endfacet
  facet normal 0.0 0.0 1.0
    outer loop
      vertex 3.061616997868383E-16 5.0 0.0
      vertex -0.9722479077843036 3.5449281784705455 0.0
      vertex -0.669696006638907 3.3832108181052485 0.0
    endloop
  endfacet
  facet normal 0.0 0.0 1.0
    outer loop
      vertex 3.061616997868383E-16 5.0 0.0
      vertex -0.669696006638907 3.3832108181052485 0.0
      vertex -0.34140806352822484 3.2836257592943467 0.0
    endloop
  endfacet
  facet normal 0.0 0.0 1.0
    outer loop
      vertex 3.061616997868383E-16 5.0 0.0
      vertex -0.34140806352822484 3.2836257592943467 0.0
      vertex -1.5308084989341894E-17 3.25 0.0
    endloop
  endfacet
  facet normal 0.0 0.0 1.0
    outer loop
      vertex 3.061616997868383E-16 5.0 0.0
      vertex -1.5308084989341894E-17 3.25 0.0
      vertex 0.34140806352822484 3.2836257592943467 0.0
    endloop
  endfacet
  facet normal 0.0 0.0 1.0
    outer loop
      vertex 3.061616997868383E-16 5.0 0.0
      vertex 0.34140806352822484 3.2836257592943467 0.0
      vertex 0.6696960066389072 3.383210818105248 0.0
    endloop
  endfacet
  facet normal 0.0 0.0 1.0
    outer loop
      vertex 3.061616997868383E-16 5.0 0.0
      vertex 0.6696960066389072 3.383210818105248 0.0
      vertex 0.9722479077843036 3.5449281784705455 0.0
    endloop
  endfacet
  facet normal 0.0 0.0 1.0
    outer loop
      vertex 3.061616997868383E-16 5.0 0.0
      vertex 0.9722479077843036 3.5449281784705455 0.0
      vertex 1.2374368670764582 3.7625631329235416 0.0
    endloop
  endfacet
  facet normal 0.0 0.0 1.0
    outer loop
      vertex 3.061616997868383E-16 5.0 0.0
      vertex 1.2374368670764582 3.7625631329235416 0.0
      vertex 1.4550718215294545 4.027752092215696 0.0
    endloop
  endfacet
  facet normal 0.0 0.0 1.0
    outer loop
      vertex 3.061616997868383E-16 5.0 0.0
      vertex 1.4550718215294545 4.027752092215696 0.0
      vertex 1.6167891818947517 4.330303993361092 0.0
    endloop
  endfacet
  facet normal 0.0 0.0 1.0
    outer loop
      vertex 3.061616997868383E-16 5.0 0.0
      vertex 1.6167891818947517 4.330303993361092 0.0
      vertex 1.7163742407056533 4.658591936471774 0.0
    endloop
  endfacet
  facet normal -0.0 0.0 1.0
    outer loop
      vertex 3.061616997868383E-16 5.0 0.0
      vertex 1.7163742407056533 4.658591936471774 0.0
      vertex 1.7500000000000002 5.0 0.0
    endloop
  endfacet
  facet normal 0.0 0.0 1.0
    outer loop
      vertex 3.061616997868383E-16 5.0 0.0
      vertex 1.7500000000000002 5.0 0.0
      vertex 1.7163742407056535 5.341408063528224 0.0
    endloop
  endfacet
  facet normal 0.0 0.0 1.0
    outer loop
      vertex 3.061616997868383E-16 5.0 0.0
      vertex 1.7163742407056535 5.341408063528224 0.0
      vertex 1.6167891818947517 5.669696006638907 0.0
    endloop
  endfacet
  facet normal 0.0 0.0 1.0
    outer loop
      vertex 3.061616997868383E-16 5.0 0.0
      vertex 1.6167891818947517 5.669696006638907 0.0
      vertex 1.4550718215294547 5.972247907784303 0.0
    endloop
  endfacet
  facet normal 0.0 0.0 1.0
    outer loop
      vertex 3.061616997868383E-16 5.0 0.0
      vertex 1.4550718215294547 5.972247907784303 0.0
      vertex 1.2374368670764586 6.2374368670764575 0.0
    endloop
  endfacet
  facet normal 0.0 0.0 1.0
    outer loop
      vertex 3.061616997868383E-16 5.0 0.0
      vertex 1.2374368670764586 6.2374368670764575 0.0
      vertex 0.9722479077843043 6.4550718215294545 0.0
    endloop
  endfacet
  facet normal 0.0 0.0 1.0
    outer loop
      vertex 3.061616997868383E-16 5.0 0.0
      vertex 0.9722479077843043 6.4550718215294545 0.0
      vertex 0.6696960066389086 6.6167891818947515 0.0
    endloop
  endfacet
  facet normal 0.0 0.0 1.0
    outer loop
      vertex 3.061616997868383E-16 5.0 0.0
      vertex 0.6696960066389086 6.6167891818947515 0.0
      vertex 0.3414080635282257 6.716374240705653 0.0
    endloop
  endfacet
  facet normal 0.0 0.0 1.0
    outer loop
      vertex 3.061616997868383E-16 5.0 0.0
      vertex 0.3414080635282257 6.716374240705653 0.0
      vertex 4.133182947122317E-16 6.75 0.0
    endloop
  endfacet
  facet normal 0.0 -0.0 -1.0
    outer loop
      vertex -0.34305999115346153 8.483146543352689 -14.0
      vertex 3.061616997868383E-16 5.0 -14.0
      vertex -1.0159963703906176 8.349291175062731 -14.0
    endloop
  endfacet
  facet normal 0.0 -0.0 -1.0
    outer loop
      vertex -1.0159963703906176 8.349291175062731 -14.0
      vertex 3.061616997868383E-16 5.0 -14.0
      vertex -1.6498885788909914 8.086724425219243 -14.0
    endloop
  endfacet
  facet normal 0.0 -0.0 -1.0
    outer loop
      vertex -1.6498885788909914 8.086724425219243 -14.0
      vertex 3.061616997868383E-16 5.0 -14.0
      vertex -2.2203764945727587 7.705536586769579 -14.0
    endloop
  endfacet
  facet normal 0.0 -0.0 -1.0
    outer loop
      vertex -2.2203764945727587 7.705536586769579 -14.0
      vertex 3.061616997868383E-16 5.0 -14.0
      vertex -2.705536586769579 7.2203764945727595 -14.0
    endloop
  endfacet
  facet normal 0.0 -0.0 -1.0
    outer loop
      vertex -2.705536586769579 7.2203764945727595 -14.0
      vertex 3.061616997868383E-16 5.0 -14.0
      vertex -3.086724425219242 6.649888578890993 -14.0
    endloop
  endfacet
  facet normal 0.0 -0.0 -1.0
    outer loop
      vertex -3.086724425219242 6.649888578890993 -14.0
      vertex 3.061616997868383E-16 5.0 -14.0
      vertex -3.349291175062731 6.015996370390618 -14.0
    endloop
  endfacet
  facet normal 0.0 -0.0 -1.0
    outer loop
      vertex -3.349291175062731 6.015996370390618 -14.0
      vertex 3.061616997868383E-16 5.0 -14.0
      vertex -3.4831465433526883 5.343059991153463 -14.0
    endloop
  endfacet
  facet normal 0.0 -0.0 -1.0
    outer loop
      vertex -3.4831465433526883 5.343059991153463 -14.0
      vertex 3.061616997868383E-16 5.0 -14.0
      vertex -3.4831465433526887 4.656940008846538 -14.0
    endloop
  endfacet
  facet normal 0.0 0.0 -1.0
    outer loop
      vertex -3.4831465433526887 4.656940008846538 -14.0
      vertex 3.061616997868383E-16 5.0 -14.0
      vertex -3.349291175062731 3.984003629609383 -14.0
    endloop
  endfacet
  facet normal 0.0 0.0 -1.0
    outer loop
      vertex -3.349291175062731 3.984003629609383 -14.0
      vertex 3.061616997868383E-16 5.0 -14.0
      vertex -3.0867244252192423 3.350111421109008 -14.0
    endloop
  endfacet
  facet normal 0.0 0.0 -1.0
    outer loop
      vertex -3.0867244252192423 3.350111421109008 -14.0
      vertex 3.061616997868383E-16 5.0 -14.0
      vertex -2.7055365867695795 2.7796235054272413 -14.0
    endloop
  endfacet
  facet normal 0.0 0.0 -1.0
    outer loop
      vertex -2.7055365867695795 2.7796235054272413 -14.0
      vertex 3.061616997868383E-16 5.0 -14.0
      vertex -2.2203764945727587 2.2944634132304205 -14.0
    endloop
  endfacet
  facet normal 0.0 0.0 -1.0
    outer loop
      vertex -2.2203764945727587 2.2944634132304205 -14.0
      vertex 3.061616997868383E-16 5.0 -14.0
      vertex -1.6498885788909925 1.9132755747807577 -14.0
    endloop
  endfacet
  facet normal 0.0 0.0 -1.0
    outer loop
      vertex -1.6498885788909925 1.9132755747807577 -14.0
      vertex 3.061616997868383E-16 5.0 -14.0
      vertex -1.0159963703906183 1.650708824937269 -14.0
    endloop
  endfacet
  facet normal 0.0 0.0 -1.0
    outer loop
      vertex -1.0159963703906183 1.650708824937269 -14.0
      vertex 3.061616997868383E-16 5.0 -14.0
      vertex -0.34305999115346275 1.5168534566473113 -14.0
    endloop
  endfacet
  facet normal 0.0 0.0 -1.0
    outer loop
      vertex -0.34305999115346275 1.5168534566473113 -14.0
      vertex 3.061616997868383E-16 5.0 -14.0
      vertex 0.3430599911534622 1.5168534566473109 -14.0
    endloop
  endfacet
  facet normal 0.0 0.0 -1.0
    outer loop
      vertex 0.3430599911534622 1.5168534566473109 -14.0
      vertex 3.061616997868383E-16 5.0 -14.0
      vertex 1.0159963703906174 1.6507088249372686 -14.0
    endloop
  endfacet
  facet normal 0.0 0.0 -1.0
    outer loop
      vertex 1.0159963703906174 1.6507088249372686 -14.0
      vertex 3.061616997868383E-16 5.0 -14.0
      vertex 1.6498885788909918 1.9132755747807573 -14.0
    endloop
  endfacet
  facet normal 0.0 0.0 -1.0
    outer loop
      vertex 1.6498885788909918 1.9132755747807573 -14.0
      vertex 3.061616997868383E-16 5.0 -14.0
      vertex 2.220376494572759 2.29446341323042 -14.0
    endloop
  endfacet
  facet normal 0.0 0.0 -1.0
    outer loop
      vertex 2.220376494572759 2.29446341323042 -14.0
      vertex 3.061616997868383E-16 5.0 -14.0
      vertex 2.7055365867695786 2.779623505427239 -14.0
    endloop
  endfacet
  facet normal 0.0 0.0 -1.0
    outer loop
      vertex 2.7055365867695786 2.779623505427239 -14.0
      vertex 3.061616997868383E-16 5.0 -14.0
      vertex 3.0867244252192427 3.3501114211090073 -14.0
    endloop
  endfacet
  facet normal 0.0 0.0 -1.0
    outer loop
      vertex 3.0867244252192427 3.3501114211090073 -14.0
      vertex 3.061616997868383E-16 5.0 -14.0
      vertex 3.3492911750627314 3.984003629609381 -14.0
    endloop
  endfacet
  facet normal 0.0 0.0 -1.0
    outer loop
      vertex 3.3492911750627314 3.984003629609381 -14.0
      vertex 3.061616997868383E-16 5.0 -14.0
      vertex 3.4831465433526896 4.656940008846538 -14.0
    endloop
  endfacet
  facet normal 0.0 0.0 -1.0
    outer loop
      vertex 3.4831465433526896 4.656940008846538 -14.0
      vertex 3.061616997868383E-16 5.0 -14.0
      vertex 3.4831465433526896 5.34305999115346 -14.0
    endloop
  endfacet
  facet normal -0.0 0.0 -1.0
    outer loop
      vertex 3.4831465433526896 5.34305999115346 -14.0
      vertex 3.061616997868383E-16 5.0 -14.0
      vertex 3.349291175062732 6.015996370390617 -14.0
    endloop
  endfacet
  facet normal -0.0 0.0 -1.0
    outer loop
      vertex 3.349291175062732 6.015996370390617 -14.0
      vertex 3.061616997868383E-16 5.0 -14.0
      vertex 3.086724425219243 6.649888578890991 -14.0
    endloop
  endfacet
  facet normal -0.0 0.0 -1.0
    outer loop
      vertex 3.086724425219243 6.649888578890991 -14.0
      vertex 3.061616997868383E-16 5.0 -14.0
      vertex 2.7055365867695795 7.2203764945727595 -14.0
    endloop
  endfacet
  facet normal -0.0 0.0 -1.0
    outer loop
      vertex 2.7055365867695795 7.2203764945727595 -14.0
      vertex 3.061616997868383E-16 5.0 -14.0
      vertex 2.2203764945727613 7.705536586769578 -14.0
    endloop
  endfacet
  facet normal -0.0 0.0 -1.0
    outer loop
      vertex 2.2203764945727613 7.705536586769578 -14.0
      vertex 3.061616997868383E-16 5.0 -14.0
      vertex 1.6498885788909932 8.086724425219241 -14.0
    endloop
  endfacet
  facet normal -0.0 0.0 -1.0
    outer loop
      vertex 1.6498885788909932 8.086724425219241 -14.0
      vertex 3.061616997868383E-16 5.0 -14.0
      vertex 1.0159963703906192 8.349291175062731 -14.0
    endloop
  endfacet
  facet normal -0.0 0.0 -1.0
    outer loop
      vertex 1.0159963703906192 8.349291175062731 -14.0
      vertex 3.061616997868383E-16 5.0 -14.0
      vertex 0.3430599911534623 8.483146543352689 -14.0
    endloop
  endfacet
  facet normal -0.0 0.0 -1.0
    outer loop
      vertex 0.3430599911534623 8.483146543352689 -14.0
      vertex 3.061616997868383E-16 5.0 -14.0
      vertex -0.34305999115346153 8.483146543352689 -14.0
    endloop
  endfacet
  facet normal -0.09725301819650077 0.9874264644582831 0.12462274166092706
    outer loop
      vertex 4.133182947122317E-16 6.75 0.0
      vertex -0.34305999115346153 8.483146543352689 -14.0
      vertex -0.341408063528224 6.716374240705653 0.0
    endloop
  endfacet
  facet normal -0.19361236051556321 0.9733550661836042 0.12285832894152053
    outer loop
      vertex -0.341408063528224 6.716374240705653 0.0
      vertex -0.34305999115346153 8.483146543352689 -14.0
      vertex -1.0159963703906176 8.349291175062731 -14.0
    endloop
  endfacet
  facet normal -0.28802167564032716 0.9494802191842925 0.12462274166092714
    outer loop
      vertex -0.341408063528224 6.716374240705653 0.0
      vertex -1.0159963703906176 8.349291175062731 -14.0
      vertex -0.6696960066389067 6.6167891818947515 0.0
    endloop
  endfacet
  facet normal -0.3797843065955783 0.9168804237595068 0.12285832894152053
    outer loop
      vertex -0.6696960066389067 6.6167891818947515 0.0
      vertex -1.0159963703906176 8.349291175062731 -14.0
      vertex -1.6498885788909914 8.086724425219243 -14.0
    endloop
  endfacet
  facet normal -0.46772182161371345 0.8750459815616911 0.12462274166092711
    outer loop
      vertex -0.6696960066389067 6.6167891818947515 0.0
      vertex -1.6498885788909914 8.086724425219243 -14.0
      vertex -0.9722479077843034 6.4550718215294545 0.0
    endloop
  endfacet
  facet normal -0.5513613547586181 0.8251705808427967 0.12285832894152053
    outer loop
      vertex -0.9722479077843034 6.4550718215294545 0.0
      vertex -1.6498885788909914 8.086724425219243 -14.0
      vertex -2.2203764945727587 7.705536586769579 -14.0
    endloop
  endfacet
  facet normal -0.6294476802839061 0.7669842175991128 0.12462274166092702
    outer loop
      vertex -0.9722479077843034 6.4550718215294545 0.0
      vertex -2.2203764945727587 7.705536586769579 -14.0
      vertex -1.2374368670764577 6.237436867076458 0.0
    endloop
  endfacet
  facet normal -0.7017498952652915 0.701749895265293 0.12285832894152053
    outer loop
      vertex -1.2374368670764577 6.237436867076458 0.0
      vertex -2.2203764945727587 7.705536586769579 -14.0
      vertex -2.705536586769579 7.2203764945727595 -14.0
    endloop
  endfacet
  facet normal -0.7669842175991126 0.6294476802839065 0.12462274166092707
    outer loop
      vertex -1.2374368670764577 6.237436867076458 0.0
      vertex -2.705536586769579 7.2203764945727595 -14.0
      vertex -1.455071821529454 5.972247907784304 0.0
    endloop
  endfacet
  facet normal -0.8251705808427974 0.5513613547586171 0.12285832894152052
    outer loop
      vertex -1.455071821529454 5.972247907784304 0.0
      vertex -2.705536586769579 7.2203764945727595 -14.0
      vertex -3.086724425219242 6.649888578890993 -14.0
    endloop
  endfacet
  facet normal -0.8750459815616907 0.4677218216137143 0.12462274166092706
    outer loop
      vertex -1.455071821529454 5.972247907784304 0.0
      vertex -3.086724425219242 6.649888578890993 -14.0
      vertex -1.6167891818947515 5.669696006638907 0.0
    endloop
  endfacet
  facet normal -0.9168804237595068 0.3797843065955788 0.12285832894152054
    outer loop
      vertex -1.6167891818947515 5.669696006638907 0.0
      vertex -3.086724425219242 6.649888578890993 -14.0
      vertex -3.349291175062731 6.015996370390618 -14.0
    endloop
  endfacet
  facet normal -0.9494802191842922 0.28802167564032793 0.12462274166092706
    outer loop
      vertex -1.6167891818947515 5.669696006638907 0.0
      vertex -3.349291175062731 6.015996370390618 -14.0
      vertex -1.716374240705653 5.341408063528225 0.0
    endloop
  endfacet
  facet normal -0.9733550661836042 0.19361236051556344 0.12285832894152052
    outer loop
      vertex -1.716374240705653 5.341408063528225 0.0
      vertex -3.349291175062731 6.015996370390618 -14.0
      vertex -3.4831465433526883 5.343059991153463 -14.0
    endloop
  endfacet
  facet normal -0.9874264644582833 0.09725301819649938 0.12462274166092704
    outer loop
      vertex -1.716374240705653 5.341408063528225 0.0
      vertex -3.4831465433526883 5.343059991153463 -14.0
      vertex -1.7499999999999998 5.0 0.0
    endloop
  endfacet
  facet normal -0.9924242192780753 7.341071511693955E-16 0.1228583289415205
    outer loop
      vertex -1.7499999999999998 5.0 0.0
      vertex -3.4831465433526883 5.343059991153463 -14.0
      vertex -3.4831465433526887 4.656940008846538 -14.0
    endloop
  endfacet
  facet normal -0.9874264644582832 -0.09725301819649963 0.12462274166092709
    outer loop
      vertex -1.7499999999999998 5.0 0.0
      vertex -3.4831465433526887 4.656940008846538 -14.0
      vertex -1.716374240705653 4.658591936471776 0.0
    endloop
  endfacet
  facet normal -0.9733550661836042 -0.19361236051556416 0.12285832894152053
    outer loop
      vertex -1.716374240705653 4.658591936471776 0.0
      vertex -3.4831465433526887 4.656940008846538 -14.0
      vertex -3.349291175062731 3.984003629609383 -14.0
    endloop
  endfacet
  facet normal -0.9494802191842925 -0.2880216756403272 0.12462274166092706
    outer loop
      vertex -1.716374240705653 4.658591936471776 0.0
      vertex -3.349291175062731 3.984003629609383 -14.0
      vertex -1.6167891818947515 4.330303993361093 0.0
    endloop
  endfacet
  facet normal -0.916880423759507 -0.37978430659557816 0.12285832894152052
    outer loop
      vertex -1.6167891818947515 4.330303993361093 0.0
      vertex -3.349291175062731 3.984003629609383 -14.0
      vertex -3.0867244252192423 3.350111421109008 -14.0
    endloop
  endfacet
  facet normal -0.8750459815616903 -0.46772182161371484 0.12462274166092709
    outer loop
      vertex -1.6167891818947515 4.330303993361093 0.0
      vertex -3.0867244252192423 3.350111421109008 -14.0
      vertex -1.4550718215294542 4.027752092215697 0.0
    endloop
  endfacet
  facet normal -0.8251705808427975 -0.5513613547586169 0.12285832894152054
    outer loop
      vertex -1.4550718215294542 4.027752092215697 0.0
      vertex -3.0867244252192423 3.350111421109008 -14.0
      vertex -2.7055365867695795 2.7796235054272413 -14.0
    endloop
  endfacet
  facet normal -0.7669842175991131 -0.6294476802839059 0.12462274166092709
    outer loop
      vertex -1.4550718215294542 4.027752092215697 0.0
      vertex -2.7055365867695795 2.7796235054272413 -14.0
      vertex -1.237436867076458 3.762563132923542 0.0
    endloop
  endfacet
  facet normal -0.7017498952652923 -0.7017498952652923 0.12285832894152056
    outer loop
      vertex -1.237436867076458 3.762563132923542 0.0
      vertex -2.7055365867695795 2.7796235054272413 -14.0
      vertex -2.2203764945727587 2.2944634132304205 -14.0
    endloop
  endfacet
  facet normal -0.6294476802839069 -0.7669842175991123 0.12462274166092706
    outer loop
      vertex -1.237436867076458 3.762563132923542 0.0
      vertex -2.2203764945727587 2.2944634132304205 -14.0
      vertex -0.9722479077843036 3.5449281784705455 0.0
    endloop
  endfacet
  facet normal -0.5513613547586176 -0.825170580842797 0.12285832894152053
    outer loop
      vertex -0.9722479077843036 3.5449281784705455 0.0
      vertex -2.2203764945727587 2.2944634132304205 -14.0
      vertex -1.6498885788909925 1.9132755747807577 -14.0
    endloop
  endfacet
  facet normal -0.4677218216137136 -0.875045981561691 0.12462274166092709
    outer loop
      vertex -0.9722479077843036 3.5449281784705455 0.0
      vertex -1.6498885788909925 1.9132755747807577 -14.0
      vertex -0.669696006638907 3.3832108181052485 0.0
    endloop
  endfacet
  facet normal -0.3797843065955784 -0.9168804237595068 0.12285832894152053
    outer loop
      vertex -0.669696006638907 3.3832108181052485 0.0
      vertex -1.6498885788909925 1.9132755747807577 -14.0
      vertex -1.0159963703906183 1.650708824937269 -14.0
    endloop
  endfacet
  facet normal -0.2880216756403287 -0.9494802191842919 0.12462274166092711
    outer loop
      vertex -0.669696006638907 3.3832108181052485 0.0
      vertex -1.0159963703906183 1.650708824937269 -14.0
      vertex -0.34140806352822484 3.2836257592943467 0.0
    endloop
  endfacet
  facet normal -0.19361236051556377 -0.9733550661836042 0.12285832894152052
    outer loop
      vertex -0.34140806352822484 3.2836257592943467 0.0
      vertex -1.0159963703906183 1.650708824937269 -14.0
      vertex -0.34305999115346275 1.5168534566473113 -14.0
    endloop
  endfacet
  facet normal -0.09725301819649938 -0.9874264644582833 0.12462274166092706
    outer loop
      vertex -0.34140806352822484 3.2836257592943467 0.0
      vertex -0.34305999115346275 1.5168534566473113 -14.0
      vertex -1.5308084989341894E-17 3.25 0.0
    endloop
  endfacet
  facet normal -7.341071511693948E-16 -0.9924242192780753 0.1228583289415205
    outer loop
      vertex -1.5308084989341894E-17 3.25 0.0
      vertex -0.34305999115346275 1.5168534566473113 -14.0
      vertex 0.3430599911534622 1.5168534566473109 -14.0
    endloop
  endfacet
  facet normal 0.09725301819649938 -0.9874264644582833 0.12462274166092709
    outer loop
      vertex -1.5308084989341894E-17 3.25 0.0
      vertex 0.3430599911534622 1.5168534566473109 -14.0
      vertex 0.34140806352822484 3.2836257592943467 0.0
    endloop
  endfacet
  facet normal 0.19361236051556424 -0.9733550661836041 0.12285832894152053
    outer loop
      vertex 0.34140806352822484 3.2836257592943467 0.0
      vertex 0.3430599911534622 1.5168534566473109 -14.0
      vertex 1.0159963703906174 1.6507088249372686 -14.0
    endloop
  endfacet
  facet normal 0.28802167564032743 -0.9494802191842924 0.12462274166092709
    outer loop
      vertex 0.34140806352822484 3.2836257592943467 0.0
      vertex 1.0159963703906174 1.6507088249372686 -14.0
      vertex 0.6696960066389072 3.383210818105248 0.0
    endloop
  endfacet
  facet normal 0.37978430659557827 -0.916880423759507 0.12285832894152049
    outer loop
      vertex 0.6696960066389072 3.383210818105248 0.0
      vertex 1.0159963703906174 1.6507088249372686 -14.0
      vertex 1.6498885788909918 1.9132755747807573 -14.0
    endloop
  endfacet
  facet normal 0.4677218216137147 -0.8750459815616906 0.12462274166092706
    outer loop
      vertex 0.6696960066389072 3.383210818105248 0.0
      vertex 1.6498885788909918 1.9132755747807573 -14.0
      vertex 0.9722479077843036 3.5449281784705455 0.0
    endloop
  endfacet
  facet normal 0.5513613547586165 -0.8251705808427977 0.12285832894152056
    outer loop
      vertex 0.9722479077843036 3.5449281784705455 0.0
      vertex 1.6498885788909918 1.9132755747807573 -14.0
      vertex 2.220376494572759 2.29446341323042 -14.0
    endloop
  endfacet
  facet normal 0.6294476802839059 -0.7669842175991132 0.12462274166092709
    outer loop
      vertex 0.9722479077843036 3.5449281784705455 0.0
      vertex 2.220376494572759 2.29446341323042 -14.0
      vertex 1.2374368670764582 3.7625631329235416 0.0
    endloop
  endfacet
  facet normal 0.7017498952652917 -0.7017498952652926 0.12285832894152053
    outer loop
      vertex 1.2374368670764582 3.7625631329235416 0.0
      vertex 2.220376494572759 2.29446341323042 -14.0
      vertex 2.7055365867695786 2.779623505427239 -14.0
    endloop
  endfacet
  facet normal 0.7669842175991126 -0.6294476802839065 0.1246227416609271
    outer loop
      vertex 1.2374368670764582 3.7625631329235416 0.0
      vertex 2.7055365867695786 2.779623505427239 -14.0
      vertex 1.4550718215294545 4.027752092215696 0.0
    endloop
  endfacet
  facet normal 0.8251705808427972 -0.5513613547586176 0.12285832894152052
    outer loop
      vertex 1.4550718215294545 4.027752092215696 0.0
      vertex 2.7055365867695786 2.779623505427239 -14.0
      vertex 3.0867244252192427 3.3501114211090073 -14.0
    endloop
  endfacet
  facet normal 0.8750459815616903 -0.46772182161371484 0.12462274166092709
    outer loop
      vertex 1.4550718215294545 4.027752092215696 0.0
      vertex 3.0867244252192427 3.3501114211090073 -14.0
      vertex 1.6167891818947517 4.330303993361092 0.0
    endloop
  endfacet
  facet normal 0.9168804237595067 -0.3797843065955786 0.12285832894152052
    outer loop
      vertex 1.6167891818947517 4.330303993361092 0.0
      vertex 3.0867244252192427 3.3501114211090073 -14.0
      vertex 3.3492911750627314 3.984003629609381 -14.0
    endloop
  endfacet
  facet normal 0.9494802191842922 -0.28802167564032793 0.12462274166092711
    outer loop
      vertex 1.6167891818947517 4.330303993361092 0.0
      vertex 3.3492911750627314 3.984003629609381 -14.0
      vertex 1.7163742407056533 4.658591936471774 0.0
    endloop
  endfacet
  facet normal 0.9733550661836041 -0.19361236051556438 0.12285832894152054
    outer loop
      vertex 1.7163742407056533 4.658591936471774 0.0
      vertex 3.3492911750627314 3.984003629609381 -14.0
      vertex 3.4831465433526896 4.656940008846538 -14.0
    endloop
  endfacet
  facet normal 0.9874264644582832 -0.09725301819649977 0.1246227416609271
    outer loop
      vertex 1.7163742407056533 4.658591936471774 0.0
      vertex 3.4831465433526896 4.656940008846538 -14.0
      vertex 1.7500000000000002 5.0 0.0
    endloop
  endfacet
  facet normal 0.9924242192780752 0.0 0.12285832894152053
    outer loop
      vertex 1.7500000000000002 5.0 0.0
      vertex 3.4831465433526896 4.656940008846538 -14.0
      vertex 3.4831465433526896 5.34305999115346 -14.0
    endloop
  endfacet
  facet normal 0.9874264644582832 0.09725301819649963 0.12462274166092709
    outer loop
      vertex 1.7500000000000002 5.0 0.0
      vertex 3.4831465433526896 5.34305999115346 -14.0
      vertex 1.7163742407056535 5.341408063528224 0.0
    endloop
  endfacet
  facet normal 0.9733550661836042 0.1936123605155637 0.12285832894152054
    outer loop
      vertex 1.7163742407056535 5.341408063528224 0.0
      vertex 3.4831465433526896 5.34305999115346 -14.0
      vertex 3.349291175062732 6.015996370390617 -14.0
    endloop
  endfacet
  facet normal 0.9494802191842923 0.2880216756403278 0.12462274166092713
    outer loop
      vertex 1.7163742407056535 5.341408063528224 0.0
      vertex 3.349291175062732 6.015996370390617 -14.0
      vertex 1.6167891818947517 5.669696006638907 0.0
    endloop
  endfacet
  facet normal 0.9168804237595068 0.3797843065955783 0.12285832894152053
    outer loop
      vertex 1.6167891818947517 5.669696006638907 0.0
      vertex 3.349291175062732 6.015996370390617 -14.0
      vertex 3.086724425219243 6.649888578890991 -14.0
    endloop
  endfacet
  facet normal 0.8750459815616907 0.4677218216137144 0.12462274166092709
    outer loop
      vertex 1.6167891818947517 5.669696006638907 0.0
      vertex 3.086724425219243 6.649888578890991 -14.0
      vertex 1.4550718215294547 5.972247907784303 0.0
    endloop
  endfacet
  facet normal 0.8251705808427977 0.5513613547586168 0.12285832894152056
    outer loop
      vertex 1.4550718215294547 5.972247907784303 0.0
      vertex 3.086724425219243 6.649888578890991 -14.0
      vertex 2.7055365867695795 7.2203764945727595 -14.0
    endloop
  endfacet
  facet normal 0.7669842175991128 0.6294476802839061 0.12462274166092709
    outer loop
      vertex 1.4550718215294547 5.972247907784303 0.0
      vertex 2.7055365867695795 7.2203764945727595 -14.0
      vertex 1.2374368670764586 6.2374368670764575 0.0
    endloop
  endfacet
  facet normal 0.7017498952652925 0.701749895265292 0.12285832894152061
    outer loop
      vertex 1.2374368670764586 6.2374368670764575 0.0
      vertex 2.7055365867695795 7.2203764945727595 -14.0
      vertex 2.2203764945727613 7.705536586769578 -14.0
    endloop
  endfacet
  facet normal 0.6294476802839076 0.7669842175991117 0.12462274166092709
    outer loop
      vertex 1.2374368670764586 6.2374368670764575 0.0
      vertex 2.2203764945727613 7.705536586769578 -14.0
      vertex 0.9722479077843043 6.4550718215294545 0.0
    endloop
  endfacet
  facet normal 0.5513613547586167 0.8251705808427976 0.12285832894152045
    outer loop
      vertex 0.9722479077843043 6.4550718215294545 0.0
      vertex 2.2203764945727613 7.705536586769578 -14.0
      vertex 1.6498885788909932 8.086724425219241 -14.0
    endloop
  endfacet
  facet normal 0.4677218216137147 0.8750459815616906 0.12462274166092704
    outer loop
      vertex 0.9722479077843043 6.4550718215294545 0.0
      vertex 1.6498885788909932 8.086724425219241 -14.0
      vertex 0.6696960066389086 6.6167891818947515 0.0
    endloop
  endfacet
  facet normal 0.3797843065955801 0.9168804237595062 0.12285832894152049
    outer loop
      vertex 0.6696960066389086 6.6167891818947515 0.0
      vertex 1.6498885788909932 8.086724425219241 -14.0
      vertex 1.0159963703906192 8.349291175062731 -14.0
    endloop
  endfacet
  facet normal 0.288021675640327 0.9494802191842925 0.12462274166092713
    outer loop
      vertex 0.6696960066389086 6.6167891818947515 0.0
      vertex 1.0159963703906192 8.349291175062731 -14.0
      vertex 0.3414080635282257 6.716374240705653 0.0
    endloop
  endfacet
  facet normal 0.19361236051556305 0.9733550661836043 0.12285832894152053
    outer loop
      vertex 0.3414080635282257 6.716374240705653 0.0
      vertex 1.0159963703906192 8.349291175062731 -14.0
      vertex 0.3430599911534623 8.483146543352689 -14.0
    endloop
  endfacet
  facet normal 0.09725301819650051 0.9874264644582831 0.12462274166092706
    outer loop
      vertex 0.3414080635282257 6.716374240705653 0.0
      vertex 0.3430599911534623 8.483146543352689 -14.0
      vertex 4.133182947122317E-16 6.75 0.0
    endloop
  endfacet
  facet normal 0.0 0.9924242192780753 0.1228583289415205
    outer loop
      vertex 4.133182947122317E-16 6.75 0.0
      vertex 0.3430599911534623 8.483146543352689 -14.0
      vertex -0.34305999115346153 8.483146543352689 -14.0
    endloop
  endfacet
endsolid v3d.csg
