solid CATIA STL
  facet normal  0.000000e+000  0.000000e+000  1.000000e+000
    outer loop
      vertex -2.588190e-001  9.659258e-001  1.600000e+001
      vertex  2.588190e-001  9.659258e-001  1.600000e+001
      vertex  6.123032e-017  1.000000e+000  1.600000e+001
    endloop
  endfacet
  facet normal  -0.000000e+000  0.000000e+000  1.000000e+000
    outer loop
      vertex  2.588190e-001  9.659258e-001  1.600000e+001
      vertex -2.588190e-001  9.659258e-001  1.600000e+001
      vertex  5.000000e-001  8.660254e-001  1.600000e+001
    endloop
  endfacet
  facet normal  0.000000e+000  0.000000e+000  1.000000e+000
    outer loop
      vertex  5.000000e-001  8.660254e-001  1.600000e+001
      vertex -2.588190e-001  9.659258e-001  1.600000e+001
      vertex -5.000000e-001  8.660254e-001  1.600000e+001
    endloop
  endfacet
  facet normal  -0.000000e+000  0.000000e+000  1.000000e+000
    outer loop
      vertex  5.000000e-001  8.660254e-001  1.600000e+001
      vertex -5.000000e-001  8.660254e-001  1.600000e+001
      vertex  7.071068e-001  7.071068e-001  1.600000e+001
    endloop
  endfacet
  facet normal  0.000000e+000  0.000000e+000  1.000000e+000
    outer loop
      vertex  7.071068e-001  7.071068e-001  1.600000e+001
      vertex -5.000000e-001  8.660254e-001  1.600000e+001
      vertex -7.071068e-001  7.071068e-001  1.600000e+001
    endloop
  endfacet
  facet normal  -0.000000e+000  0.000000e+000  9.999999e-001
    outer loop
      vertex  7.071068e-001  7.071068e-001  1.600000e+001
      vertex -7.071068e-001  7.071068e-001  1.600000e+001
      vertex  8.660254e-001  5.000000e-001  1.600000e+001
    endloop
  endfacet
  facet normal  0.000000e+000  0.000000e+000  1.000000e+000
    outer loop
      vertex  8.660254e-001  5.000000e-001  1.600000e+001
      vertex -7.071068e-001  7.071068e-001  1.600000e+001
      vertex -8.660254e-001  5.000000e-001  1.600000e+001
    endloop
  endfacet
  facet normal  -0.000000e+000  0.000000e+000  1.000000e+000
    outer loop
      vertex  8.660254e-001  5.000000e-001  1.600000e+001
      vertex -8.660254e-001  5.000000e-001  1.600000e+001
      vertex  9.659258e-001  2.588190e-001  1.600000e+001
    endloop
  endfacet
  facet normal  0.000000e+000  0.000000e+000  9.999999e-001
    outer loop
      vertex  9.659258e-001  2.588190e-001  1.600000e+001
      vertex -8.660254e-001  5.000000e-001  1.600000e+001
      vertex -9.659258e-001  2.588190e-001  1.600000e+001
    endloop
  endfacet
  facet normal  -0.000000e+000  0.000000e+000  1.000000e+000
    outer loop
      vertex  9.659258e-001  2.588190e-001  1.600000e+001
      vertex -9.659258e-001  2.588190e-001  1.600000e+001
      vertex  1.000000e+000  0.000000e+000  1.600000e+001
    endloop
  endfacet
  facet normal  0.000000e+000  0.000000e+000  1.000000e+000
    outer loop
      vertex  1.000000e+000  0.000000e+000  1.600000e+001
      vertex -9.659258e-001  2.588190e-001  1.600000e+001
      vertex -1.000000e+000  1.224606e-016  1.600000e+001
    endloop
  endfacet
  facet normal  0.000000e+000  0.000000e+000  1.000000e+000
    outer loop
      vertex  1.000000e+000  0.000000e+000  1.600000e+001
      vertex -1.000000e+000  1.224606e-016  1.600000e+001
      vertex  9.659258e-001 -2.588190e-001  1.600000e+001
    endloop
  endfacet
  facet normal  0.000000e+000  0.000000e+000  1.000000e+000
    outer loop
      vertex  9.659258e-001 -2.588190e-001  1.600000e+001
      vertex -1.000000e+000  1.224606e-016  1.600000e+001
      vertex -9.659258e-001 -2.588190e-001  1.600000e+001
    endloop
  endfacet
  facet normal  -0.000000e+000  0.000000e+000  9.999999e-001
    outer loop
      vertex  9.659258e-001 -2.588190e-001  1.600000e+001
      vertex -9.659258e-001 -2.588190e-001  1.600000e+001
      vertex  8.660254e-001 -5.000000e-001  1.600000e+001
    endloop
  endfacet
  facet normal  0.000000e+000  0.000000e+000  1.000000e+000
    outer loop
      vertex  8.660254e-001 -5.000000e-001  1.600000e+001
      vertex -9.659258e-001 -2.588190e-001  1.600000e+001
      vertex -8.660254e-001 -5.000000e-001  1.600000e+001
    endloop
  endfacet
  facet normal  -0.000000e+000  0.000000e+000  1.000000e+000
    outer loop
      vertex  8.660254e-001 -5.000000e-001  1.600000e+001
      vertex -8.660254e-001 -5.000000e-001  1.600000e+001
      vertex  7.071068e-001 -7.071068e-001  1.600000e+001
    endloop
  endfacet
  facet normal  0.000000e+000  0.000000e+000  9.999999e-001
    outer loop
      vertex  7.071068e-001 -7.071068e-001  1.600000e+001
      vertex -8.660254e-001 -5.000000e-001  1.600000e+001
      vertex -7.071068e-001 -7.071068e-001  1.600000e+001
    endloop
  endfacet
  facet normal  -0.000000e+000  0.000000e+000  1.000000e+000
    outer loop
      vertex  7.071068e-001 -7.071068e-001  1.600000e+001
      vertex -7.071068e-001 -7.071068e-001  1.600000e+001
      vertex  5.000000e-001 -8.660254e-001  1.600000e+001
    endloop
  endfacet
  facet normal  0.000000e+000  0.000000e+000  1.000000e+000
    outer loop
      vertex  5.000000e-001 -8.660254e-001  1.600000e+001
      vertex -7.071068e-001 -7.071068e-001  1.600000e+001
      vertex -5.000000e-001 -8.660254e-001  1.600000e+001
    endloop
  endfacet
  facet normal  -0.000000e+000  0.000000e+000  1.000000e+000
    outer loop
      vertex  5.000000e-001 -8.660254e-001  1.600000e+001
      vertex -5.000000e-001 -8.660254e-001  1.600000e+001
      vertex  2.588190e-001 -9.659258e-001  1.600000e+001
    endloop
  endfacet
  facet normal  0.000000e+000  0.000000e+000  1.000000e+000
    outer loop
      vertex  2.588190e-001 -9.659258e-001  1.600000e+001
      vertex -5.000000e-001 -8.660254e-001  1.600000e+001
      vertex -2.588190e-001 -9.659258e-001  1.600000e+001
    endloop
  endfacet
  facet normal  -0.000000e+000  0.000000e+000  1.000000e+000
    outer loop
      vertex  2.588190e-001 -9.659258e-001  1.600000e+001
      vertex -2.588190e-001 -9.659258e-001  1.600000e+001
      vertex -1.836910e-016 -1.000000e+000  1.600000e+001
    endloop
  endfacet
  facet normal  0.000000e+000  0.000000e+000 -1.000000e+000
    outer loop
      vertex  6.123032e-017  1.000000e+000  0.000000e+000
      vertex  2.588190e-001  9.659258e-001  0.000000e+000
      vertex -2.588190e-001  9.659258e-001  0.000000e+000
    endloop
  endfacet
  facet normal  0.000000e+000  0.000000e+000 -1.000000e+000
    outer loop
      vertex -1.836910e-016 -1.000000e+000  0.000000e+000
      vertex -2.588190e-001 -9.659258e-001  0.000000e+000
      vertex  2.588190e-001 -9.659258e-001  0.000000e+000
    endloop
  endfacet
  facet normal  0.000000e+000  0.000000e+000 -1.000000e+000
    outer loop
      vertex  2.588190e-001 -9.659258e-001  0.000000e+000
      vertex -2.588190e-001 -9.659258e-001  0.000000e+000
      vertex -5.000000e-001 -8.660254e-001  0.000000e+000
    endloop
  endfacet
  facet normal  0.000000e+000  0.000000e+000 -1.000000e+000
    outer loop
      vertex  2.588190e-001 -9.659258e-001  0.000000e+000
      vertex -5.000000e-001 -8.660254e-001  0.000000e+000
      vertex  5.000000e-001 -8.660254e-001  0.000000e+000
    endloop
  endfacet
  facet normal  0.000000e+000  0.000000e+000 -1.000000e+000
    outer loop
      vertex  5.000000e-001 -8.660254e-001  0.000000e+000
      vertex -5.000000e-001 -8.660254e-001  0.000000e+000
      vertex -7.071068e-001 -7.071068e-001  0.000000e+000
    endloop
  endfacet
  facet normal  0.000000e+000  0.000000e+000 -1.000000e+000
    outer loop
      vertex  5.000000e-001 -8.660254e-001  0.000000e+000
      vertex -7.071068e-001 -7.071068e-001  0.000000e+000
      vertex  7.071068e-001 -7.071068e-001  0.000000e+000
    endloop
  endfacet
  facet normal  0.000000e+000  0.000000e+000 -9.999999e-001
    outer loop
      vertex  7.071068e-001 -7.071068e-001  0.000000e+000
      vertex -7.071068e-001 -7.071068e-001  0.000000e+000
      vertex -8.660254e-001 -5.000000e-001  0.000000e+000
    endloop
  endfacet
  facet normal  0.000000e+000  0.000000e+000 -1.000000e+000
    outer loop
      vertex  7.071068e-001 -7.071068e-001  0.000000e+000
      vertex -8.660254e-001 -5.000000e-001  0.000000e+000
      vertex  8.660254e-001 -5.000000e-001  0.000000e+000
    endloop
  endfacet
  facet normal  0.000000e+000  0.000000e+000 -1.000000e+000
    outer loop
      vertex  8.660254e-001 -5.000000e-001  0.000000e+000
      vertex -8.660254e-001 -5.000000e-001  0.000000e+000
      vertex -9.659258e-001 -2.588190e-001  0.000000e+000
    endloop
  endfacet
  facet normal  0.000000e+000  0.000000e+000 -9.999999e-001
    outer loop
      vertex  8.660254e-001 -5.000000e-001  0.000000e+000
      vertex -9.659258e-001 -2.588190e-001  0.000000e+000
      vertex  9.659258e-001 -2.588190e-001  0.000000e+000
    endloop
  endfacet
  facet normal  0.000000e+000  0.000000e+000 -1.000000e+000
    outer loop
      vertex  9.659258e-001 -2.588190e-001  0.000000e+000
      vertex -9.659258e-001 -2.588190e-001  0.000000e+000
      vertex -1.000000e+000  1.224606e-016  0.000000e+000
    endloop
  endfacet
  facet normal  0.000000e+000  0.000000e+000 -1.000000e+000
    outer loop
      vertex  9.659258e-001 -2.588190e-001  0.000000e+000
      vertex -1.000000e+000  1.224606e-016  0.000000e+000
      vertex  1.000000e+000  0.000000e+000  0.000000e+000
    endloop
  endfacet
  facet normal  0.000000e+000  0.000000e+000 -1.000000e+000
    outer loop
      vertex  1.000000e+000  0.000000e+000  0.000000e+000
      vertex -1.000000e+000  1.224606e-016  0.000000e+000
      vertex -9.659258e-001  2.588190e-001  0.000000e+000
    endloop
  endfacet
  facet normal  0.000000e+000  0.000000e+000 -1.000000e+000
    outer loop
      vertex  1.000000e+000  0.000000e+000  0.000000e+000
      vertex -9.659258e-001  2.588190e-001  0.000000e+000
      vertex  9.659258e-001  2.588190e-001  0.000000e+000
    endloop
  endfacet
  facet normal  0.000000e+000  0.000000e+000 -9.999999e-001
    outer loop
      vertex  9.659258e-001  2.588190e-001  0.000000e+000
      vertex -9.659258e-001  2.588190e-001  0.000000e+000
      vertex -8.660254e-001  5.000000e-001  0.000000e+000
    endloop
  endfacet
  facet normal  0.000000e+000  0.000000e+000 -1.000000e+000
    outer loop
      vertex  9.659258e-001  2.588190e-001  0.000000e+000
      vertex -8.660254e-001  5.000000e-001  0.000000e+000
      vertex  8.660254e-001  5.000000e-001  0.000000e+000
    endloop
  endfacet
  facet normal  0.000000e+000  0.000000e+000 -1.000000e+000
    outer loop
      vertex  8.660254e-001  5.000000e-001  0.000000e+000
      vertex -8.660254e-001  5.000000e-001  0.000000e+000
      vertex -7.071068e-001  7.071068e-001  0.000000e+000
    endloop
  endfacet
  facet normal  0.000000e+000  0.000000e+000 -9.999999e-001
    outer loop
      vertex  8.660254e-001  5.000000e-001  0.000000e+000
      vertex -7.071068e-001  7.071068e-001  0.000000e+000
      vertex  7.071068e-001  7.071068e-001  0.000000e+000
    endloop
  endfacet
  facet normal  0.000000e+000  0.000000e+000 -1.000000e+000
    outer loop
      vertex  7.071068e-001  7.071068e-001  0.000000e+000
      vertex -7.071068e-001  7.071068e-001  0.000000e+000
      vertex -5.000000e-001  8.660254e-001  0.000000e+000
    endloop
  endfacet
  facet normal  0.000000e+000  0.000000e+000 -1.000000e+000
    outer loop
      vertex  7.071068e-001  7.071068e-001  0.000000e+000
      vertex -5.000000e-001  8.660254e-001  0.000000e+000
      vertex  5.000000e-001  8.660254e-001  0.000000e+000
    endloop
  endfacet
  facet normal  0.000000e+000  0.000000e+000 -1.000000e+000
    outer loop
      vertex  5.000000e-001  8.660254e-001  0.000000e+000
      vertex -5.000000e-001  8.660254e-001  0.000000e+000
      vertex -2.588190e-001  9.659258e-001  0.000000e+000
    endloop
  endfacet
  facet normal  0.000000e+000  0.000000e+000 -1.000000e+000
    outer loop
      vertex  5.000000e-001  8.660254e-001  0.000000e+000
      vertex -2.588190e-001  9.659258e-001  0.000000e+000
      vertex  2.588190e-001  9.659258e-001  0.000000e+000
    endloop
  endfacet
  facet normal  9.914449e-001 -1.305262e-001  0.000000e+000
    outer loop
      vertex  1.000000e+000  0.000000e+000  0.000000e+000
      vertex  1.000000e+000  0.000000e+000  1.600000e+001
      vertex  9.659258e-001 -2.588190e-001  0.000000e+000
    endloop
  endfacet
  facet normal  9.914449e-001 -1.305262e-001  0.000000e+000
    outer loop
      vertex  9.659258e-001 -2.588190e-001  0.000000e+000
      vertex  1.000000e+000  0.000000e+000  1.600000e+001
      vertex  9.659258e-001 -2.588190e-001  1.600000e+001
    endloop
  endfacet
  facet normal  9.238795e-001 -3.826834e-001  0.000000e+000
    outer loop
      vertex  9.659258e-001 -2.588190e-001  0.000000e+000
      vertex  9.659258e-001 -2.588190e-001  1.600000e+001
      vertex  8.660254e-001 -5.000000e-001  0.000000e+000
    endloop
  endfacet
  facet normal  9.238795e-001 -3.826834e-001  0.000000e+000
    outer loop
      vertex  8.660254e-001 -5.000000e-001  0.000000e+000
      vertex  9.659258e-001 -2.588190e-001  1.600000e+001
      vertex  8.660254e-001 -5.000000e-001  1.600000e+001
    endloop
  endfacet
  facet normal  7.933533e-001 -6.087614e-001  0.000000e+000
    outer loop
      vertex  8.660254e-001 -5.000000e-001  0.000000e+000
      vertex  8.660254e-001 -5.000000e-001  1.600000e+001
      vertex  7.071068e-001 -7.071068e-001  0.000000e+000
    endloop
  endfacet
  facet normal  7.933533e-001 -6.087614e-001  0.000000e+000
    outer loop
      vertex  7.071068e-001 -7.071068e-001  0.000000e+000
      vertex  8.660254e-001 -5.000000e-001  1.600000e+001
      vertex  7.071068e-001 -7.071068e-001  1.600000e+001
    endloop
  endfacet
  facet normal  6.087614e-001 -7.933533e-001  0.000000e+000
    outer loop
      vertex  7.071068e-001 -7.071068e-001  0.000000e+000
      vertex  7.071068e-001 -7.071068e-001  1.600000e+001
      vertex  5.000000e-001 -8.660254e-001  0.000000e+000
    endloop
  endfacet
  facet normal  6.087614e-001 -7.933533e-001  0.000000e+000
    outer loop
      vertex  5.000000e-001 -8.660254e-001  0.000000e+000
      vertex  7.071068e-001 -7.071068e-001  1.600000e+001
      vertex  5.000000e-001 -8.660254e-001  1.600000e+001
    endloop
  endfacet
  facet normal  3.826834e-001 -9.238795e-001  0.000000e+000
    outer loop
      vertex  5.000000e-001 -8.660254e-001  0.000000e+000
      vertex  5.000000e-001 -8.660254e-001  1.600000e+001
      vertex  2.588190e-001 -9.659258e-001  0.000000e+000
    endloop
  endfacet
  facet normal  3.826834e-001 -9.238795e-001  0.000000e+000
    outer loop
      vertex  2.588190e-001 -9.659258e-001  0.000000e+000
      vertex  5.000000e-001 -8.660254e-001  1.600000e+001
      vertex  2.588190e-001 -9.659258e-001  1.600000e+001
    endloop
  endfacet
  facet normal  1.305262e-001 -9.914449e-001  0.000000e+000
    outer loop
      vertex  2.588190e-001 -9.659258e-001  0.000000e+000
      vertex  2.588190e-001 -9.659258e-001  1.600000e+001
      vertex -1.836910e-016 -1.000000e+000  0.000000e+000
    endloop
  endfacet
  facet normal  1.305262e-001 -9.914449e-001  0.000000e+000
    outer loop
      vertex -1.836910e-016 -1.000000e+000  0.000000e+000
      vertex  2.588190e-001 -9.659258e-001  1.600000e+001
      vertex -1.836910e-016 -1.000000e+000  1.600000e+001
    endloop
  endfacet
  facet normal -1.305262e-001 -9.914449e-001  -0.000000e+000
    outer loop
      vertex -1.836910e-016 -1.000000e+000  0.000000e+000
      vertex -1.836910e-016 -1.000000e+000  1.600000e+001
      vertex -2.588190e-001 -9.659258e-001  0.000000e+000
    endloop
  endfacet
  facet normal -1.305262e-001 -9.914449e-001  0.000000e+000
    outer loop
      vertex -2.588190e-001 -9.659258e-001  0.000000e+000
      vertex -1.836910e-016 -1.000000e+000  1.600000e+001
      vertex -2.588190e-001 -9.659258e-001  1.600000e+001
    endloop
  endfacet
  facet normal -3.826834e-001 -9.238795e-001  -0.000000e+000
    outer loop
      vertex -2.588190e-001 -9.659258e-001  0.000000e+000
      vertex -2.588190e-001 -9.659258e-001  1.600000e+001
      vertex -5.000000e-001 -8.660254e-001  0.000000e+000
    endloop
  endfacet
  facet normal -3.826834e-001 -9.238795e-001  0.000000e+000
    outer loop
      vertex -5.000000e-001 -8.660254e-001  0.000000e+000
      vertex -2.588190e-001 -9.659258e-001  1.600000e+001
      vertex -5.000000e-001 -8.660254e-001  1.600000e+001
    endloop
  endfacet
  facet normal -6.087614e-001 -7.933533e-001  -0.000000e+000
    outer loop
      vertex -5.000000e-001 -8.660254e-001  0.000000e+000
      vertex -5.000000e-001 -8.660254e-001  1.600000e+001
      vertex -7.071068e-001 -7.071068e-001  0.000000e+000
    endloop
  endfacet
  facet normal -6.087614e-001 -7.933533e-001  0.000000e+000
    outer loop
      vertex -7.071068e-001 -7.071068e-001  0.000000e+000
      vertex -5.000000e-001 -8.660254e-001  1.600000e+001
      vertex -7.071068e-001 -7.071068e-001  1.600000e+001
    endloop
  endfacet
  facet normal -7.933533e-001 -6.087614e-001  -0.000000e+000
    outer loop
      vertex -7.071068e-001 -7.071068e-001  0.000000e+000
      vertex -7.071068e-001 -7.071068e-001  1.600000e+001
      vertex -8.660254e-001 -5.000000e-001  0.000000e+000
    endloop
  endfacet
  facet normal -7.933533e-001 -6.087614e-001  0.000000e+000
    outer loop
      vertex -8.660254e-001 -5.000000e-001  0.000000e+000
      vertex -7.071068e-001 -7.071068e-001  1.600000e+001
      vertex -8.660254e-001 -5.000000e-001  1.600000e+001
    endloop
  endfacet
  facet normal -9.238795e-001 -3.826834e-001  -0.000000e+000
    outer loop
      vertex -8.660254e-001 -5.000000e-001  0.000000e+000
      vertex -8.660254e-001 -5.000000e-001  1.600000e+001
      vertex -9.659258e-001 -2.588190e-001  0.000000e+000
    endloop
  endfacet
  facet normal -9.238795e-001 -3.826834e-001  0.000000e+000
    outer loop
      vertex -9.659258e-001 -2.588190e-001  0.000000e+000
      vertex -8.660254e-001 -5.000000e-001  1.600000e+001
      vertex -9.659258e-001 -2.588190e-001  1.600000e+001
    endloop
  endfacet
  facet normal -9.914449e-001 -1.305262e-001  -0.000000e+000
    outer loop
      vertex -9.659258e-001 -2.588190e-001  0.000000e+000
      vertex -9.659258e-001 -2.588190e-001  1.600000e+001
      vertex -1.000000e+000  1.224606e-016  0.000000e+000
    endloop
  endfacet
  facet normal -9.914449e-001 -1.305262e-001  0.000000e+000
    outer loop
      vertex -1.000000e+000  1.224606e-016  0.000000e+000
      vertex -9.659258e-001 -2.588190e-001  1.600000e+001
      vertex -1.000000e+000  1.224606e-016  1.600000e+001
    endloop
  endfacet
  facet normal -9.914449e-001  1.305262e-001  0.000000e+000
    outer loop
      vertex -1.000000e+000  1.224606e-016  0.000000e+000
      vertex -1.000000e+000  1.224606e-016  1.600000e+001
      vertex -9.659258e-001  2.588190e-001  0.000000e+000
    endloop
  endfacet
  facet normal -9.914449e-001  1.305262e-001  0.000000e+000
    outer loop
      vertex -9.659258e-001  2.588190e-001  0.000000e+000
      vertex -1.000000e+000  1.224606e-016  1.600000e+001
      vertex -9.659258e-001  2.588190e-001  1.600000e+001
    endloop
  endfacet
  facet normal -9.238795e-001  3.826834e-001  0.000000e+000
    outer loop
      vertex -9.659258e-001  2.588190e-001  0.000000e+000
      vertex -9.659258e-001  2.588190e-001  1.600000e+001
      vertex -8.660254e-001  5.000000e-001  0.000000e+000
    endloop
  endfacet
  facet normal -9.238795e-001  3.826834e-001  0.000000e+000
    outer loop
      vertex -8.660254e-001  5.000000e-001  0.000000e+000
      vertex -9.659258e-001  2.588190e-001  1.600000e+001
      vertex -8.660254e-001  5.000000e-001  1.600000e+001
    endloop
  endfacet
  facet normal -7.933533e-001  6.087614e-001  0.000000e+000
    outer loop
      vertex -8.660254e-001  5.000000e-001  0.000000e+000
      vertex -8.660254e-001  5.000000e-001  1.600000e+001
      vertex -7.071068e-001  7.071068e-001  0.000000e+000
    endloop
  endfacet
  facet normal -7.933533e-001  6.087614e-001  0.000000e+000
    outer loop
      vertex -7.071068e-001  7.071068e-001  0.000000e+000
      vertex -8.660254e-001  5.000000e-001  1.600000e+001
      vertex -7.071068e-001  7.071068e-001  1.600000e+001
    endloop
  endfacet
  facet normal -6.087614e-001  7.933533e-001  0.000000e+000
    outer loop
      vertex -7.071068e-001  7.071068e-001  0.000000e+000
      vertex -7.071068e-001  7.071068e-001  1.600000e+001
      vertex -5.000000e-001  8.660254e-001  0.000000e+000
    endloop
  endfacet
  facet normal -6.087614e-001  7.933533e-001  0.000000e+000
    outer loop
      vertex -5.000000e-001  8.660254e-001  0.000000e+000
      vertex -7.071068e-001  7.071068e-001  1.600000e+001
      vertex -5.000000e-001  8.660254e-001  1.600000e+001
    endloop
  endfacet
  facet normal -3.826834e-001  9.238795e-001  0.000000e+000
    outer loop
      vertex -5.000000e-001  8.660254e-001  0.000000e+000
      vertex -5.000000e-001  8.660254e-001  1.600000e+001
      vertex -2.588190e-001  9.659258e-001  0.000000e+000
    endloop
  endfacet
  facet normal -3.826834e-001  9.238795e-001  0.000000e+000
    outer loop
      vertex -2.588190e-001  9.659258e-001  0.000000e+000
      vertex -5.000000e-001  8.660254e-001  1.600000e+001
      vertex -2.588190e-001  9.659258e-001  1.600000e+001
    endloop
  endfacet
  facet normal -1.305262e-001  9.914449e-001  0.000000e+000
    outer loop
      vertex -2.588190e-001  9.659258e-001  0.000000e+000
      vertex -2.588190e-001  9.659258e-001  1.600000e+001
      vertex  6.123032e-017  1.000000e+000  0.000000e+000
    endloop
  endfacet
  facet normal -1.305262e-001  9.914449e-001  0.000000e+000
    outer loop
      vertex  6.123032e-017  1.000000e+000  0.000000e+000
      vertex -2.588190e-001  9.659258e-001  1.600000e+001
      vertex  6.123032e-017  1.000000e+000  1.600000e+001
    endloop
  endfacet
  facet normal  1.305262e-001  9.914449e-001  0.000000e+000
    outer loop
      vertex  6.123032e-017  1.000000e+000  0.000000e+000
      vertex  6.123032e-017  1.000000e+000  1.600000e+001
      vertex  2.588190e-001  9.659258e-001  0.000000e+000
    endloop
  endfacet
  facet normal  1.305262e-001  9.914449e-001  -0.000000e+000
    outer loop
      vertex  2.588190e-001  9.659258e-001  0.000000e+000
      vertex  6.123032e-017  1.000000e+000  1.600000e+001
      vertex  2.588190e-001  9.659258e-001  1.600000e+001
    endloop
  endfacet
  facet normal  3.826834e-001  9.238795e-001  0.000000e+000
    outer loop
      vertex  2.588190e-001  9.659258e-001  0.000000e+000
      vertex  2.588190e-001  9.659258e-001  1.600000e+001
      vertex  5.000000e-001  8.660254e-001  0.000000e+000
    endloop
  endfacet
  facet normal  3.826834e-001  9.238795e-001  -0.000000e+000
    outer loop
      vertex  5.000000e-001  8.660254e-001  0.000000e+000
      vertex  2.588190e-001  9.659258e-001  1.600000e+001
      vertex  5.000000e-001  8.660254e-001  1.600000e+001
    endloop
  endfacet
  facet normal  6.087614e-001  7.933533e-001  0.000000e+000
    outer loop
      vertex  5.000000e-001  8.660254e-001  0.000000e+000
      vertex  5.000000e-001  8.660254e-001  1.600000e+001
      vertex  7.071068e-001  7.071068e-001  0.000000e+000
    endloop
  endfacet
  facet normal  6.087614e-001  7.933533e-001  -0.000000e+000
    outer loop
      vertex  7.071068e-001  7.071068e-001  0.000000e+000
      vertex  5.000000e-001  8.660254e-001  1.600000e+001
      vertex  7.071068e-001  7.071068e-001  1.600000e+001
    endloop
  endfacet
  facet normal  7.933533e-001  6.087614e-001  0.000000e+000
    outer loop
      vertex  7.071068e-001  7.071068e-001  0.000000e+000
      vertex  7.071068e-001  7.071068e-001  1.600000e+001
      vertex  8.660254e-001  5.000000e-001  0.000000e+000
    endloop
  endfacet
  facet normal  7.933533e-001  6.087614e-001  -0.000000e+000
    outer loop
      vertex  8.660254e-001  5.000000e-001  0.000000e+000
      vertex  7.071068e-001  7.071068e-001  1.600000e+001
      vertex  8.660254e-001  5.000000e-001  1.600000e+001
    endloop
  endfacet
  facet normal  9.238795e-001  3.826834e-001  0.000000e+000
    outer loop
      vertex  8.660254e-001  5.000000e-001  0.000000e+000
      vertex  8.660254e-001  5.000000e-001  1.600000e+001
      vertex  9.659258e-001  2.588190e-001  0.000000e+000
    endloop
  endfacet
  facet normal  9.238795e-001  3.826834e-001  -0.000000e+000
    outer loop
      vertex  9.659258e-001  2.588190e-001  0.000000e+000
      vertex  8.660254e-001  5.000000e-001  1.600000e+001
      vertex  9.659258e-001  2.588190e-001  1.600000e+001
    endloop
  endfacet
  facet normal  9.914449e-001  1.305262e-001  0.000000e+000
    outer loop
      vertex  9.659258e-001  2.588190e-001  0.000000e+000
      vertex  9.659258e-001  2.588190e-001  1.600000e+001
      vertex  1.000000e+000  0.000000e+000  0.000000e+000
    endloop
  endfacet
  facet normal  9.914449e-001  1.305262e-001  -0.000000e+000
    outer loop
      vertex  1.000000e+000  0.000000e+000  0.000000e+000
      vertex  9.659258e-001  2.588190e-001  1.600000e+001
      vertex  1.000000e+000  0.000000e+000  1.600000e+001
    endloop
  endfacet
endsolid CATIA STL
