solid CATIA STL
  facet normal  0.000000e+000  0.000000e+000  1.000000e+000
    outer loop
      vertex -3.603236e+001 -2.652462e+001  2.500000e+000
      vertex  1.596764e+001 -2.652462e+001  2.500000e+000
      vertex -3.603236e+001  4.747538e+001  2.500000e+000
    endloop
  endfacet
  facet normal  -0.000000e+000  0.000000e+000  1.000000e+000
    outer loop
      vertex -3.603236e+001  4.747538e+001  2.500000e+000
      vertex  1.596764e+001 -2.652462e+001  2.500000e+000
      vertex  1.596764e+001  4.747538e+001  2.500000e+000
    endloop
  endfacet
  facet normal  0.000000e+000  0.000000e+000 -1.000000e+000
    outer loop
      vertex -3.603236e+001 -2.652462e+001  0.000000e+000
      vertex -3.603236e+001  4.747538e+001  0.000000e+000
      vertex  1.596764e+001 -2.652462e+001  0.000000e+000
    endloop
  endfacet
  facet normal  0.000000e+000  0.000000e+000 -1.000000e+000
    outer loop
      vertex  1.596764e+001 -2.652462e+001  0.000000e+000
      vertex -3.603236e+001  4.747538e+001  0.000000e+000
      vertex  1.596764e+001  4.747538e+001  0.000000e+000
    endloop
  endfacet
  facet normal  0.000000e+000  1.000000e+000  0.000000e+000
    outer loop
      vertex -3.603236e+001  4.747538e+001  2.500000e+000
      vertex  1.596764e+001  4.747538e+001  2.500000e+000
      vertex -3.603236e+001  4.747538e+001  0.000000e+000
    endloop
  endfacet
  facet normal  0.000000e+000  1.000000e+000  0.000000e+000
    outer loop
      vertex -3.603236e+001  4.747538e+001  0.000000e+000
      vertex  1.596764e+001  4.747538e+001  2.500000e+000
      vertex  1.596764e+001  4.747538e+001  0.000000e+000
    endloop
  endfacet
  facet normal  1.000000e+000  0.000000e+000  0.000000e+000
    outer loop
      vertex  1.596764e+001 -2.652462e+001  2.500000e+000
      vertex  1.596764e+001 -2.652462e+001  0.000000e+000
      vertex  1.596764e+001  4.747538e+001  2.500000e+000
    endloop
  endfacet
  facet normal  1.000000e+000  0.000000e+000  0.000000e+000
    outer loop
      vertex  1.596764e+001  4.747538e+001  2.500000e+000
      vertex  1.596764e+001 -2.652462e+001  0.000000e+000
      vertex  1.596764e+001  4.747538e+001  0.000000e+000
    endloop
  endfacet
  facet normal  0.000000e+000 -1.000000e+000  0.000000e+000
    outer loop
      vertex  1.596764e+001 -2.652462e+001  2.500000e+000
      vertex -3.603236e+001 -2.652462e+001  2.500000e+000
      vertex  1.596764e+001 -2.652462e+001  0.000000e+000
    endloop
  endfacet
  facet normal  0.000000e+000 -1.000000e+000  0.000000e+000
    outer loop
      vertex  1.596764e+001 -2.652462e+001  0.000000e+000
      vertex -3.603236e+001 -2.652462e+001  2.500000e+000
      vertex -3.603236e+001 -2.652462e+001  0.000000e+000
    endloop
  endfacet
  facet normal -1.000000e+000  0.000000e+000  0.000000e+000
    outer loop
      vertex -3.603236e+001  4.747538e+001  2.500000e+000
      vertex -3.603236e+001  4.747538e+001  0.000000e+000
      vertex -3.603236e+001 -2.652462e+001  2.500000e+000
    endloop
  endfacet
  facet normal -1.000000e+000  0.000000e+000  0.000000e+000
    outer loop
      vertex -3.603236e+001 -2.652462e+001  2.500000e+000
      vertex -3.603236e+001  4.747538e+001  0.000000e+000
      vertex -3.603236e+001 -2.652462e+001  0.000000e+000
    endloop
  endfacet
endsolid CATIA STL
