solid CATIA STL
  facet normal  -0.000000e+000 -9.999999e-001  -0.000000e+000
    outer loop
      vertex -4.300000e+001  0.000000e+000 -4.300000e+001
      vertex -4.300000e+001  0.000000e+000  3.800000e+001
      vertex -5.000000e+001  0.000000e+000  4.200000e+001
    endloop
  endfacet
  facet normal  0.000000e+000 -1.000000e+000  0.000000e+000
    outer loop
      vertex -4.300000e+001  0.000000e+000 -4.300000e+001
      vertex -5.000000e+001  0.000000e+000  4.200000e+001
      vertex -5.000000e+001  0.000000e+000 -4.700000e+001
    endloop
  endfacet
  facet normal  0.000000e+000 -1.000000e+000  0.000000e+000
    outer loop
      vertex -4.300000e+001  0.000000e+000 -4.300000e+001
      vertex -5.000000e+001  0.000000e+000 -4.700000e+001
      vertex -4.959808e+001  0.000000e+000 -4.850000e+001
    endloop
  endfacet
  facet normal  0.000000e+000 -1.000000e+000  0.000000e+000
    outer loop
      vertex -4.300000e+001  0.000000e+000 -4.300000e+001
      vertex -4.959808e+001  0.000000e+000 -4.850000e+001
      vertex -4.850000e+001  0.000000e+000 -4.959808e+001
    endloop
  endfacet
  facet normal  0.000000e+000 -1.000000e+000  0.000000e+000
    outer loop
      vertex -4.300000e+001  0.000000e+000 -4.300000e+001
      vertex -4.850000e+001  0.000000e+000 -4.959808e+001
      vertex -4.700000e+001  0.000000e+000 -5.000000e+001
    endloop
  endfacet
  facet normal  0.000000e+000 -1.000000e+000  0.000000e+000
    outer loop
      vertex  4.459808e+001  0.000000e+000 -4.850000e+001
      vertex  4.500000e+001  0.000000e+000 -4.700000e+001
      vertex  4.350000e+001  0.000000e+000 -4.959808e+001
    endloop
  endfacet
  facet normal  0.000000e+000 -1.000000e+000  0.000000e+000
    outer loop
      vertex  4.350000e+001  0.000000e+000 -4.959808e+001
      vertex  4.500000e+001  0.000000e+000 -4.700000e+001
      vertex  3.800000e+001  0.000000e+000 -4.300000e+001
    endloop
  endfacet
  facet normal  0.000000e+000 -1.000000e+000  0.000000e+000
    outer loop
      vertex  4.350000e+001  0.000000e+000 -4.959808e+001
      vertex  3.800000e+001  0.000000e+000 -4.300000e+001
      vertex  4.200000e+001  0.000000e+000 -5.000000e+001
    endloop
  endfacet
  facet normal  0.000000e+000 -9.999999e-001  0.000000e+000
    outer loop
      vertex  4.200000e+001  0.000000e+000 -5.000000e+001
      vertex  3.800000e+001  0.000000e+000 -4.300000e+001
      vertex -4.300000e+001  0.000000e+000 -4.300000e+001
    endloop
  endfacet
  facet normal  0.000000e+000 -1.000000e+000  -0.000000e+000
    outer loop
      vertex  4.200000e+001  0.000000e+000 -5.000000e+001
      vertex -4.300000e+001  0.000000e+000 -4.300000e+001
      vertex -4.700000e+001  0.000000e+000 -5.000000e+001
    endloop
  endfacet
  facet normal  -0.000000e+000 -1.000000e+000  0.000000e+000
    outer loop
      vertex  3.800000e+001  0.000000e+000  3.800000e+001
      vertex  4.500000e+001  0.000000e+000  4.200000e+001
      vertex  4.200000e+001  0.000000e+000  4.500000e+001
    endloop
  endfacet
  facet normal  0.000000e+000 -1.000000e+000  0.000000e+000
    outer loop
      vertex  4.200000e+001  0.000000e+000  4.500000e+001
      vertex  4.500000e+001  0.000000e+000  4.200000e+001
      vertex  4.459808e+001  0.000000e+000  4.350000e+001
    endloop
  endfacet
  facet normal  0.000000e+000 -1.000000e+000  0.000000e+000
    outer loop
      vertex  4.200000e+001  0.000000e+000  4.500000e+001
      vertex  4.459808e+001  0.000000e+000  4.350000e+001
      vertex  4.350000e+001  0.000000e+000  4.459808e+001
    endloop
  endfacet
  facet normal  0.000000e+000 -1.000000e+000  0.000000e+000
    outer loop
      vertex -4.850000e+001  0.000000e+000  4.459808e+001
      vertex -4.300000e+001  0.000000e+000  3.800000e+001
      vertex -4.700000e+001  0.000000e+000  4.500000e+001
    endloop
  endfacet
  facet normal  0.000000e+000 -9.999999e-001  0.000000e+000
    outer loop
      vertex -4.700000e+001  0.000000e+000  4.500000e+001
      vertex -4.300000e+001  0.000000e+000  3.800000e+001
      vertex  3.800000e+001  0.000000e+000  3.800000e+001
    endloop
  endfacet
  facet normal  0.000000e+000 -1.000000e+000  0.000000e+000
    outer loop
      vertex -4.700000e+001  0.000000e+000  4.500000e+001
      vertex  3.800000e+001  0.000000e+000  3.800000e+001
      vertex  4.200000e+001  0.000000e+000  4.500000e+001
    endloop
  endfacet
  facet normal  0.000000e+000 -1.000000e+000  0.000000e+000
    outer loop
      vertex -4.959808e+001  0.000000e+000  4.350000e+001
      vertex -5.000000e+001  0.000000e+000  4.200000e+001
      vertex -4.850000e+001  0.000000e+000  4.459808e+001
    endloop
  endfacet
  facet normal  0.000000e+000 -1.000000e+000  -0.000000e+000
    outer loop
      vertex -4.850000e+001  0.000000e+000  4.459808e+001
      vertex -5.000000e+001  0.000000e+000  4.200000e+001
      vertex -4.300000e+001  0.000000e+000  3.800000e+001
    endloop
  endfacet
  facet normal  0.000000e+000 -9.999999e-001  0.000000e+000
    outer loop
      vertex  3.800000e+001  0.000000e+000 -4.300000e+001
      vertex  4.500000e+001  0.000000e+000 -4.700000e+001
      vertex  3.800000e+001  0.000000e+000  3.800000e+001
    endloop
  endfacet
  facet normal  0.000000e+000 -1.000000e+000  0.000000e+000
    outer loop
      vertex  3.800000e+001  0.000000e+000  3.800000e+001
      vertex  4.500000e+001  0.000000e+000 -4.700000e+001
      vertex  4.500000e+001  0.000000e+000  4.200000e+001
    endloop
  endfacet
  facet normal  0.000000e+000  1.000000e+000  -0.000000e+000
    outer loop
      vertex  4.500000e+001  3.000000e+000  4.200000e+001
      vertex  4.500000e+001  3.000000e+000 -4.700000e+001
      vertex  3.800000e+001  3.000000e+000  3.800000e+001
    endloop
  endfacet
  facet normal  0.000000e+000  1.000000e+000  -0.000000e+000
    outer loop
      vertex  4.500000e+001  3.000000e+000  4.200000e+001
      vertex  3.800000e+001  3.000000e+000  3.800000e+001
      vertex  3.500000e+001  3.000000e+000  4.100000e+001
    endloop
  endfacet
  facet normal  0.000000e+000  1.000000e+000  0.000000e+000
    outer loop
      vertex  4.500000e+001  3.000000e+000  4.200000e+001
      vertex  3.500000e+001  3.000000e+000  4.100000e+001
      vertex  3.500000e+001  3.000000e+000  4.300000e+001
    endloop
  endfacet
  facet normal  -0.000000e+000  1.000000e+000  0.000000e+000
    outer loop
      vertex  4.500000e+001  3.000000e+000  4.200000e+001
      vertex  3.500000e+001  3.000000e+000  4.300000e+001
      vertex  4.459808e+001  3.000000e+000  4.350000e+001
    endloop
  endfacet
  facet normal  0.000000e+000  1.000000e+000  0.000000e+000
    outer loop
      vertex -5.000000e+001  3.000000e+000  4.200000e+001
      vertex -4.959808e+001  3.000000e+000  4.350000e+001
      vertex -4.000000e+001  3.000000e+000  4.300000e+001
    endloop
  endfacet
  facet normal  0.000000e+000  1.000000e+000  0.000000e+000
    outer loop
      vertex -5.000000e+001  3.000000e+000  4.200000e+001
      vertex -4.000000e+001  3.000000e+000  4.300000e+001
      vertex -4.000000e+001  3.000000e+000  4.100000e+001
    endloop
  endfacet
  facet normal  0.000000e+000  1.000000e+000  0.000000e+000
    outer loop
      vertex -5.000000e+001  3.000000e+000  4.200000e+001
      vertex -4.000000e+001  3.000000e+000  4.100000e+001
      vertex -4.300000e+001  3.000000e+000  3.800000e+001
    endloop
  endfacet
  facet normal  0.000000e+000  1.000000e+000  0.000000e+000
    outer loop
      vertex -5.000000e+001  3.000000e+000  4.200000e+001
      vertex -4.300000e+001  3.000000e+000  3.800000e+001
      vertex -5.000000e+001  3.000000e+000 -4.700000e+001
    endloop
  endfacet
  facet normal  0.000000e+000  9.999999e-001  0.000000e+000
    outer loop
      vertex -5.000000e+001  3.000000e+000 -4.700000e+001
      vertex -4.300000e+001  3.000000e+000  3.800000e+001
      vertex -4.300000e+001  3.000000e+000 -4.300000e+001
    endloop
  endfacet
  facet normal  0.000000e+000  1.000000e+000  0.000000e+000
    outer loop
      vertex -5.000000e+001  3.000000e+000 -4.700000e+001
      vertex -4.300000e+001  3.000000e+000 -4.300000e+001
      vertex -4.000000e+001  3.000000e+000 -4.600000e+001
    endloop
  endfacet
  facet normal  0.000000e+000  1.000000e+000  0.000000e+000
    outer loop
      vertex -5.000000e+001  3.000000e+000 -4.700000e+001
      vertex -4.000000e+001  3.000000e+000 -4.600000e+001
      vertex -4.000000e+001  3.000000e+000 -4.800000e+001
    endloop
  endfacet
  facet normal  0.000000e+000  1.000000e+000  0.000000e+000
    outer loop
      vertex -5.000000e+001  3.000000e+000 -4.700000e+001
      vertex -4.000000e+001  3.000000e+000 -4.800000e+001
      vertex -4.959808e+001  3.000000e+000 -4.850000e+001
    endloop
  endfacet
  facet normal  0.000000e+000  1.000000e+000  -0.000000e+000
    outer loop
      vertex  4.500000e+001  3.000000e+000 -4.700000e+001
      vertex  4.459808e+001  3.000000e+000 -4.850000e+001
      vertex  3.500000e+001  3.000000e+000 -4.800000e+001
    endloop
  endfacet
  facet normal  0.000000e+000  1.000000e+000  0.000000e+000
    outer loop
      vertex  4.500000e+001  3.000000e+000 -4.700000e+001
      vertex  3.500000e+001  3.000000e+000 -4.800000e+001
      vertex  3.500000e+001  3.000000e+000 -4.600000e+001
    endloop
  endfacet
  facet normal  -0.000000e+000  1.000000e+000  0.000000e+000
    outer loop
      vertex  4.500000e+001  3.000000e+000 -4.700000e+001
      vertex  3.500000e+001  3.000000e+000 -4.600000e+001
      vertex  3.800000e+001  3.000000e+000 -4.300000e+001
    endloop
  endfacet
  facet normal  -0.000000e+000  9.999999e-001  0.000000e+000
    outer loop
      vertex  4.500000e+001  3.000000e+000 -4.700000e+001
      vertex  3.800000e+001  3.000000e+000 -4.300000e+001
      vertex  3.800000e+001  3.000000e+000  3.800000e+001
    endloop
  endfacet
  facet normal  -0.000000e+000  1.000000e+000  0.000000e+000
    outer loop
      vertex  4.200000e+001  3.000000e+000 -5.000000e+001
      vertex -3.700000e+001  3.000000e+000 -4.800000e+001
      vertex -1.600000e+001  3.000000e+000 -4.800000e+001
    endloop
  endfacet
  facet normal  -0.000000e+000  1.000000e+000  0.000000e+000
    outer loop
      vertex  4.200000e+001  3.000000e+000 -5.000000e+001
      vertex -1.600000e+001  3.000000e+000 -4.800000e+001
      vertex -1.300000e+001  3.000000e+000 -4.800000e+001
    endloop
  endfacet
  facet normal  -0.000000e+000  1.000000e+000  0.000000e+000
    outer loop
      vertex  4.200000e+001  3.000000e+000 -5.000000e+001
      vertex -1.300000e+001  3.000000e+000 -4.800000e+001
      vertex  8.000000e+000  3.000000e+000 -4.800000e+001
    endloop
  endfacet
  facet normal  -0.000000e+000  1.000000e+000  0.000000e+000
    outer loop
      vertex  4.200000e+001  3.000000e+000 -5.000000e+001
      vertex  8.000000e+000  3.000000e+000 -4.800000e+001
      vertex  1.100000e+001  3.000000e+000 -4.800000e+001
    endloop
  endfacet
  facet normal  -0.000000e+000  1.000000e+000  0.000000e+000
    outer loop
      vertex  4.200000e+001  3.000000e+000 -5.000000e+001
      vertex  1.100000e+001  3.000000e+000 -4.800000e+001
      vertex  3.200000e+001  3.000000e+000 -4.800000e+001
    endloop
  endfacet
  facet normal  -0.000000e+000  1.000000e+000  0.000000e+000
    outer loop
      vertex  4.200000e+001  3.000000e+000 -5.000000e+001
      vertex  3.200000e+001  3.000000e+000 -4.800000e+001
      vertex  3.500000e+001  3.000000e+000 -4.800000e+001
    endloop
  endfacet
  facet normal  0.000000e+000  1.000000e+000  0.000000e+000
    outer loop
      vertex  4.200000e+001  3.000000e+000 -5.000000e+001
      vertex  3.500000e+001  3.000000e+000 -4.800000e+001
      vertex  4.459808e+001  3.000000e+000 -4.850000e+001
    endloop
  endfacet
  facet normal  0.000000e+000  1.000000e+000  0.000000e+000
    outer loop
      vertex  4.200000e+001  3.000000e+000 -5.000000e+001
      vertex  4.459808e+001  3.000000e+000 -4.850000e+001
      vertex  4.350000e+001  3.000000e+000 -4.959808e+001
    endloop
  endfacet
  facet normal  0.000000e+000  1.000000e+000  -0.000000e+000
    outer loop
      vertex  3.800000e+001  3.000000e+000 -4.300000e+001
      vertex  3.500000e+001  3.000000e+000 -4.600000e+001
      vertex  3.200000e+001  3.000000e+000 -4.600000e+001
    endloop
  endfacet
  facet normal  0.000000e+000  1.000000e+000  -0.000000e+000
    outer loop
      vertex  3.800000e+001  3.000000e+000 -4.300000e+001
      vertex  3.200000e+001  3.000000e+000 -4.600000e+001
      vertex  1.100000e+001  3.000000e+000 -4.600000e+001
    endloop
  endfacet
  facet normal  0.000000e+000  1.000000e+000  -0.000000e+000
    outer loop
      vertex  3.800000e+001  3.000000e+000 -4.300000e+001
      vertex  1.100000e+001  3.000000e+000 -4.600000e+001
      vertex  8.000000e+000  3.000000e+000 -4.600000e+001
    endloop
  endfacet
  facet normal  0.000000e+000  1.000000e+000  -0.000000e+000
    outer loop
      vertex  3.800000e+001  3.000000e+000 -4.300000e+001
      vertex  8.000000e+000  3.000000e+000 -4.600000e+001
      vertex -1.300000e+001  3.000000e+000 -4.600000e+001
    endloop
  endfacet
  facet normal  0.000000e+000  1.000000e+000  -0.000000e+000
    outer loop
      vertex  3.800000e+001  3.000000e+000 -4.300000e+001
      vertex -1.300000e+001  3.000000e+000 -4.600000e+001
      vertex -1.600000e+001  3.000000e+000 -4.600000e+001
    endloop
  endfacet
  facet normal  0.000000e+000  1.000000e+000  -0.000000e+000
    outer loop
      vertex  3.800000e+001  3.000000e+000 -4.300000e+001
      vertex -1.600000e+001  3.000000e+000 -4.600000e+001
      vertex -3.700000e+001  3.000000e+000 -4.600000e+001
    endloop
  endfacet
  facet normal  0.000000e+000  1.000000e+000  -0.000000e+000
    outer loop
      vertex  3.800000e+001  3.000000e+000 -4.300000e+001
      vertex -3.700000e+001  3.000000e+000 -4.600000e+001
      vertex -4.000000e+001  3.000000e+000 -4.600000e+001
    endloop
  endfacet
  facet normal  0.000000e+000  9.999999e-001  -0.000000e+000
    outer loop
      vertex  3.800000e+001  3.000000e+000 -4.300000e+001
      vertex -4.000000e+001  3.000000e+000 -4.600000e+001
      vertex -4.300000e+001  3.000000e+000 -4.300000e+001
    endloop
  endfacet
  facet normal  0.000000e+000  9.999999e-001  0.000000e+000
    outer loop
      vertex  3.800000e+001  3.000000e+000  3.800000e+001
      vertex -4.300000e+001  3.000000e+000  3.800000e+001
      vertex -4.000000e+001  3.000000e+000  4.100000e+001
    endloop
  endfacet
  facet normal  -0.000000e+000  1.000000e+000  0.000000e+000
    outer loop
      vertex  3.800000e+001  3.000000e+000  3.800000e+001
      vertex -4.000000e+001  3.000000e+000  4.100000e+001
      vertex -3.700000e+001  3.000000e+000  4.100000e+001
    endloop
  endfacet
  facet normal  -0.000000e+000  1.000000e+000  0.000000e+000
    outer loop
      vertex  3.800000e+001  3.000000e+000  3.800000e+001
      vertex -3.700000e+001  3.000000e+000  4.100000e+001
      vertex -1.600000e+001  3.000000e+000  4.100000e+001
    endloop
  endfacet
  facet normal  -0.000000e+000  1.000000e+000  0.000000e+000
    outer loop
      vertex  3.800000e+001  3.000000e+000  3.800000e+001
      vertex -1.600000e+001  3.000000e+000  4.100000e+001
      vertex -1.300000e+001  3.000000e+000  4.100000e+001
    endloop
  endfacet
  facet normal  -0.000000e+000  1.000000e+000  0.000000e+000
    outer loop
      vertex  3.800000e+001  3.000000e+000  3.800000e+001
      vertex -1.300000e+001  3.000000e+000  4.100000e+001
      vertex  8.000000e+000  3.000000e+000  4.100000e+001
    endloop
  endfacet
  facet normal  -0.000000e+000  1.000000e+000  0.000000e+000
    outer loop
      vertex  3.800000e+001  3.000000e+000  3.800000e+001
      vertex  8.000000e+000  3.000000e+000  4.100000e+001
      vertex  1.100000e+001  3.000000e+000  4.100000e+001
    endloop
  endfacet
  facet normal  -0.000000e+000  1.000000e+000  0.000000e+000
    outer loop
      vertex  3.800000e+001  3.000000e+000  3.800000e+001
      vertex  1.100000e+001  3.000000e+000  4.100000e+001
      vertex  3.200000e+001  3.000000e+000  4.100000e+001
    endloop
  endfacet
  facet normal  -0.000000e+000  1.000000e+000  0.000000e+000
    outer loop
      vertex  3.800000e+001  3.000000e+000  3.800000e+001
      vertex  3.200000e+001  3.000000e+000  4.100000e+001
      vertex  3.500000e+001  3.000000e+000  4.100000e+001
    endloop
  endfacet
  facet normal  0.000000e+000  1.000000e+000  0.000000e+000
    outer loop
      vertex  4.200000e+001  3.000000e+000  4.500000e+001
      vertex  4.350000e+001  3.000000e+000  4.459808e+001
      vertex  4.459808e+001  3.000000e+000  4.350000e+001
    endloop
  endfacet
  facet normal  0.000000e+000  1.000000e+000  0.000000e+000
    outer loop
      vertex  4.200000e+001  3.000000e+000  4.500000e+001
      vertex  4.459808e+001  3.000000e+000  4.350000e+001
      vertex  3.500000e+001  3.000000e+000  4.300000e+001
    endloop
  endfacet
  facet normal  0.000000e+000  1.000000e+000  -0.000000e+000
    outer loop
      vertex  4.200000e+001  3.000000e+000  4.500000e+001
      vertex  3.500000e+001  3.000000e+000  4.300000e+001
      vertex  3.200000e+001  3.000000e+000  4.300000e+001
    endloop
  endfacet
  facet normal  0.000000e+000  1.000000e+000  -0.000000e+000
    outer loop
      vertex  4.200000e+001  3.000000e+000  4.500000e+001
      vertex  3.200000e+001  3.000000e+000  4.300000e+001
      vertex  1.100000e+001  3.000000e+000  4.300000e+001
    endloop
  endfacet
  facet normal  0.000000e+000  1.000000e+000  -0.000000e+000
    outer loop
      vertex  4.200000e+001  3.000000e+000  4.500000e+001
      vertex  1.100000e+001  3.000000e+000  4.300000e+001
      vertex  8.000000e+000  3.000000e+000  4.300000e+001
    endloop
  endfacet
  facet normal  0.000000e+000  1.000000e+000  -0.000000e+000
    outer loop
      vertex  4.200000e+001  3.000000e+000  4.500000e+001
      vertex  8.000000e+000  3.000000e+000  4.300000e+001
      vertex -1.300000e+001  3.000000e+000  4.300000e+001
    endloop
  endfacet
  facet normal  0.000000e+000  1.000000e+000  -0.000000e+000
    outer loop
      vertex  4.200000e+001  3.000000e+000  4.500000e+001
      vertex -1.300000e+001  3.000000e+000  4.300000e+001
      vertex -1.600000e+001  3.000000e+000  4.300000e+001
    endloop
  endfacet
  facet normal  0.000000e+000  1.000000e+000  -0.000000e+000
    outer loop
      vertex  4.200000e+001  3.000000e+000  4.500000e+001
      vertex -1.600000e+001  3.000000e+000  4.300000e+001
      vertex -3.700000e+001  3.000000e+000  4.300000e+001
    endloop
  endfacet
  facet normal  0.000000e+000  1.000000e+000  0.000000e+000
    outer loop
      vertex -4.850000e+001  3.000000e+000 -4.959808e+001
      vertex -4.959808e+001  3.000000e+000 -4.850000e+001
      vertex -4.700000e+001  3.000000e+000 -5.000000e+001
    endloop
  endfacet
  facet normal  0.000000e+000  1.000000e+000  -0.000000e+000
    outer loop
      vertex -4.700000e+001  3.000000e+000 -5.000000e+001
      vertex -4.959808e+001  3.000000e+000 -4.850000e+001
      vertex -4.000000e+001  3.000000e+000 -4.800000e+001
    endloop
  endfacet
  facet normal  0.000000e+000  1.000000e+000  0.000000e+000
    outer loop
      vertex -4.700000e+001  3.000000e+000 -5.000000e+001
      vertex -4.000000e+001  3.000000e+000 -4.800000e+001
      vertex  4.200000e+001  3.000000e+000 -5.000000e+001
    endloop
  endfacet
  facet normal  0.000000e+000  1.000000e+000  0.000000e+000
    outer loop
      vertex  4.200000e+001  3.000000e+000 -5.000000e+001
      vertex -4.000000e+001  3.000000e+000 -4.800000e+001
      vertex -3.700000e+001  3.000000e+000 -4.800000e+001
    endloop
  endfacet
  facet normal  0.000000e+000  1.000000e+000  0.000000e+000
    outer loop
      vertex -4.959808e+001  3.000000e+000  4.350000e+001
      vertex -4.850000e+001  3.000000e+000  4.459808e+001
      vertex -4.000000e+001  3.000000e+000  4.300000e+001
    endloop
  endfacet
  facet normal  0.000000e+000  1.000000e+000  0.000000e+000
    outer loop
      vertex -4.000000e+001  3.000000e+000  4.300000e+001
      vertex -4.850000e+001  3.000000e+000  4.459808e+001
      vertex -4.700000e+001  3.000000e+000  4.500000e+001
    endloop
  endfacet
  facet normal  0.000000e+000  1.000000e+000  0.000000e+000
    outer loop
      vertex -4.000000e+001  3.000000e+000  4.300000e+001
      vertex -4.700000e+001  3.000000e+000  4.500000e+001
      vertex -3.700000e+001  3.000000e+000  4.300000e+001
    endloop
  endfacet
  facet normal  0.000000e+000  1.000000e+000  -0.000000e+000
    outer loop
      vertex -3.700000e+001  3.000000e+000  4.300000e+001
      vertex -4.700000e+001  3.000000e+000  4.500000e+001
      vertex  4.200000e+001  3.000000e+000  4.500000e+001
    endloop
  endfacet
  facet normal  0.000000e+000  1.000000e+000  0.000000e+000
    outer loop
      vertex  3.200000e+001  3.000000e+000 -4.800000e+001
      vertex  1.100000e+001  3.000000e+000 -4.800000e+001
      vertex  3.200000e+001  3.000000e+000 -4.600000e+001
    endloop
  endfacet
  facet normal  0.000000e+000  1.000000e+000  0.000000e+000
    outer loop
      vertex  3.200000e+001  3.000000e+000 -4.600000e+001
      vertex  1.100000e+001  3.000000e+000 -4.800000e+001
      vertex  1.100000e+001  3.000000e+000 -4.600000e+001
    endloop
  endfacet
  facet normal  0.000000e+000  1.000000e+000  0.000000e+000
    outer loop
      vertex  8.000000e+000  3.000000e+000 -4.800000e+001
      vertex -1.300000e+001  3.000000e+000 -4.800000e+001
      vertex  8.000000e+000  3.000000e+000 -4.600000e+001
    endloop
  endfacet
  facet normal  0.000000e+000  1.000000e+000  0.000000e+000
    outer loop
      vertex  8.000000e+000  3.000000e+000 -4.600000e+001
      vertex -1.300000e+001  3.000000e+000 -4.800000e+001
      vertex -1.300000e+001  3.000000e+000 -4.600000e+001
    endloop
  endfacet
  facet normal  0.000000e+000  1.000000e+000  0.000000e+000
    outer loop
      vertex  3.200000e+001  3.000000e+000  4.100000e+001
      vertex  1.100000e+001  3.000000e+000  4.100000e+001
      vertex  3.200000e+001  3.000000e+000  4.300000e+001
    endloop
  endfacet
  facet normal  0.000000e+000  1.000000e+000  0.000000e+000
    outer loop
      vertex  3.200000e+001  3.000000e+000  4.300000e+001
      vertex  1.100000e+001  3.000000e+000  4.100000e+001
      vertex  1.100000e+001  3.000000e+000  4.300000e+001
    endloop
  endfacet
  facet normal  0.000000e+000  1.000000e+000  0.000000e+000
    outer loop
      vertex  8.000000e+000  3.000000e+000  4.100000e+001
      vertex -1.300000e+001  3.000000e+000  4.100000e+001
      vertex  8.000000e+000  3.000000e+000  4.300000e+001
    endloop
  endfacet
  facet normal  0.000000e+000  1.000000e+000  0.000000e+000
    outer loop
      vertex  8.000000e+000  3.000000e+000  4.300000e+001
      vertex -1.300000e+001  3.000000e+000  4.100000e+001
      vertex -1.300000e+001  3.000000e+000  4.300000e+001
    endloop
  endfacet
  facet normal  0.000000e+000  1.000000e+000  0.000000e+000
    outer loop
      vertex -1.600000e+001  3.000000e+000  4.100000e+001
      vertex -3.700000e+001  3.000000e+000  4.100000e+001
      vertex -1.600000e+001  3.000000e+000  4.300000e+001
    endloop
  endfacet
  facet normal  0.000000e+000  1.000000e+000  0.000000e+000
    outer loop
      vertex -1.600000e+001  3.000000e+000  4.300000e+001
      vertex -3.700000e+001  3.000000e+000  4.100000e+001
      vertex -3.700000e+001  3.000000e+000  4.300000e+001
    endloop
  endfacet
  facet normal  0.000000e+000  1.000000e+000  0.000000e+000
    outer loop
      vertex -1.600000e+001  3.000000e+000 -4.800000e+001
      vertex -3.700000e+001  3.000000e+000 -4.800000e+001
      vertex -1.600000e+001  3.000000e+000 -4.600000e+001
    endloop
  endfacet
  facet normal  0.000000e+000  1.000000e+000  0.000000e+000
    outer loop
      vertex -1.600000e+001  3.000000e+000 -4.600000e+001
      vertex -3.700000e+001  3.000000e+000 -4.800000e+001
      vertex -3.700000e+001  3.000000e+000 -4.600000e+001
    endloop
  endfacet
  facet normal  1.000000e+000  -0.000000e+000  0.000000e+000
    outer loop
      vertex  4.500000e+001  3.000000e+000  4.200000e+001
      vertex  4.500000e+001  0.000000e+000  4.200000e+001
      vertex  4.500000e+001  3.000000e+000 -4.700000e+001
    endloop
  endfacet
  facet normal  1.000000e+000  0.000000e+000  0.000000e+000
    outer loop
      vertex  4.500000e+001  3.000000e+000 -4.700000e+001
      vertex  4.500000e+001  0.000000e+000  4.200000e+001
      vertex  4.500000e+001  0.000000e+000 -4.700000e+001
    endloop
  endfacet
  facet normal  -0.000000e+000  0.000000e+000  1.000000e+000
    outer loop
      vertex  4.200000e+001  3.000000e+000  4.500000e+001
      vertex -4.700000e+001  3.000000e+000  4.500000e+001
      vertex  4.200000e+001  0.000000e+000  4.500000e+001
    endloop
  endfacet
  facet normal  0.000000e+000  0.000000e+000  1.000000e+000
    outer loop
      vertex  4.200000e+001  0.000000e+000  4.500000e+001
      vertex -4.700000e+001  3.000000e+000  4.500000e+001
      vertex -4.700000e+001  0.000000e+000  4.500000e+001
    endloop
  endfacet
  facet normal  9.659257e-001  0.000000e+000  2.588192e-001
    outer loop
      vertex  4.500000e+001  0.000000e+000  4.200000e+001
      vertex  4.500000e+001  3.000000e+000  4.200000e+001
      vertex  4.459808e+001  0.000000e+000  4.350000e+001
    endloop
  endfacet
  facet normal  9.659257e-001  -0.000000e+000  2.588192e-001
    outer loop
      vertex  4.459808e+001  0.000000e+000  4.350000e+001
      vertex  4.500000e+001  3.000000e+000  4.200000e+001
      vertex  4.459808e+001  3.000000e+000  4.350000e+001
    endloop
  endfacet
  facet normal  7.071068e-001  0.000000e+000  7.071068e-001
    outer loop
      vertex  4.459808e+001  0.000000e+000  4.350000e+001
      vertex  4.459808e+001  3.000000e+000  4.350000e+001
      vertex  4.350000e+001  0.000000e+000  4.459808e+001
    endloop
  endfacet
  facet normal  7.071068e-001  -0.000000e+000  7.071068e-001
    outer loop
      vertex  4.350000e+001  0.000000e+000  4.459808e+001
      vertex  4.459808e+001  3.000000e+000  4.350000e+001
      vertex  4.350000e+001  3.000000e+000  4.459808e+001
    endloop
  endfacet
  facet normal  2.588192e-001  0.000000e+000  9.659257e-001
    outer loop
      vertex  4.350000e+001  0.000000e+000  4.459808e+001
      vertex  4.350000e+001  3.000000e+000  4.459808e+001
      vertex  4.200000e+001  0.000000e+000  4.500000e+001
    endloop
  endfacet
  facet normal  2.588192e-001  -0.000000e+000  9.659257e-001
    outer loop
      vertex  4.200000e+001  0.000000e+000  4.500000e+001
      vertex  4.350000e+001  3.000000e+000  4.459808e+001
      vertex  4.200000e+001  3.000000e+000  4.500000e+001
    endloop
  endfacet
  facet normal  -0.000000e+000  0.000000e+000 -1.000000e+000
    outer loop
      vertex -4.700000e+001  3.000000e+000 -5.000000e+001
      vertex  4.200000e+001  3.000000e+000 -5.000000e+001
      vertex -4.700000e+001  0.000000e+000 -5.000000e+001
    endloop
  endfacet
  facet normal  0.000000e+000  0.000000e+000 -1.000000e+000
    outer loop
      vertex -4.700000e+001  0.000000e+000 -5.000000e+001
      vertex  4.200000e+001  3.000000e+000 -5.000000e+001
      vertex  4.200000e+001  0.000000e+000 -5.000000e+001
    endloop
  endfacet
  facet normal  2.588192e-001  0.000000e+000 -9.659257e-001
    outer loop
      vertex  4.200000e+001  0.000000e+000 -5.000000e+001
      vertex  4.200000e+001  3.000000e+000 -5.000000e+001
      vertex  4.350000e+001  0.000000e+000 -4.959808e+001
    endloop
  endfacet
  facet normal  2.588192e-001  0.000000e+000 -9.659257e-001
    outer loop
      vertex  4.350000e+001  0.000000e+000 -4.959808e+001
      vertex  4.200000e+001  3.000000e+000 -5.000000e+001
      vertex  4.350000e+001  3.000000e+000 -4.959808e+001
    endloop
  endfacet
  facet normal  7.071068e-001  0.000000e+000 -7.071068e-001
    outer loop
      vertex  4.350000e+001  0.000000e+000 -4.959808e+001
      vertex  4.350000e+001  3.000000e+000 -4.959808e+001
      vertex  4.459808e+001  0.000000e+000 -4.850000e+001
    endloop
  endfacet
  facet normal  7.071068e-001  0.000000e+000 -7.071068e-001
    outer loop
      vertex  4.459808e+001  0.000000e+000 -4.850000e+001
      vertex  4.350000e+001  3.000000e+000 -4.959808e+001
      vertex  4.459808e+001  3.000000e+000 -4.850000e+001
    endloop
  endfacet
  facet normal  9.659257e-001  0.000000e+000 -2.588192e-001
    outer loop
      vertex  4.459808e+001  0.000000e+000 -4.850000e+001
      vertex  4.459808e+001  3.000000e+000 -4.850000e+001
      vertex  4.500000e+001  0.000000e+000 -4.700000e+001
    endloop
  endfacet
  facet normal  9.659257e-001  0.000000e+000 -2.588192e-001
    outer loop
      vertex  4.500000e+001  0.000000e+000 -4.700000e+001
      vertex  4.459808e+001  3.000000e+000 -4.850000e+001
      vertex  4.500000e+001  3.000000e+000 -4.700000e+001
    endloop
  endfacet
  facet normal -1.000000e+000  0.000000e+000  0.000000e+000
    outer loop
      vertex -5.000000e+001  3.000000e+000 -4.700000e+001
      vertex -5.000000e+001  0.000000e+000 -4.700000e+001
      vertex -5.000000e+001  3.000000e+000  4.200000e+001
    endloop
  endfacet
  facet normal -1.000000e+000  -0.000000e+000  0.000000e+000
    outer loop
      vertex -5.000000e+001  3.000000e+000  4.200000e+001
      vertex -5.000000e+001  0.000000e+000 -4.700000e+001
      vertex -5.000000e+001  0.000000e+000  4.200000e+001
    endloop
  endfacet
  facet normal -9.659257e-001  -0.000000e+000 -2.588192e-001
    outer loop
      vertex -5.000000e+001  0.000000e+000 -4.700000e+001
      vertex -5.000000e+001  3.000000e+000 -4.700000e+001
      vertex -4.959808e+001  0.000000e+000 -4.850000e+001
    endloop
  endfacet
  facet normal -9.659257e-001  0.000000e+000 -2.588192e-001
    outer loop
      vertex -4.959808e+001  0.000000e+000 -4.850000e+001
      vertex -5.000000e+001  3.000000e+000 -4.700000e+001
      vertex -4.959808e+001  3.000000e+000 -4.850000e+001
    endloop
  endfacet
  facet normal -7.071068e-001  -0.000000e+000 -7.071068e-001
    outer loop
      vertex -4.959808e+001  0.000000e+000 -4.850000e+001
      vertex -4.959808e+001  3.000000e+000 -4.850000e+001
      vertex -4.850000e+001  0.000000e+000 -4.959808e+001
    endloop
  endfacet
  facet normal -7.071068e-001  0.000000e+000 -7.071068e-001
    outer loop
      vertex -4.850000e+001  0.000000e+000 -4.959808e+001
      vertex -4.959808e+001  3.000000e+000 -4.850000e+001
      vertex -4.850000e+001  3.000000e+000 -4.959808e+001
    endloop
  endfacet
  facet normal -2.588192e-001  -0.000000e+000 -9.659257e-001
    outer loop
      vertex -4.850000e+001  0.000000e+000 -4.959808e+001
      vertex -4.850000e+001  3.000000e+000 -4.959808e+001
      vertex -4.700000e+001  0.000000e+000 -5.000000e+001
    endloop
  endfacet
  facet normal -2.588192e-001  0.000000e+000 -9.659257e-001
    outer loop
      vertex -4.700000e+001  0.000000e+000 -5.000000e+001
      vertex -4.850000e+001  3.000000e+000 -4.959808e+001
      vertex -4.700000e+001  3.000000e+000 -5.000000e+001
    endloop
  endfacet
  facet normal -2.588192e-001  0.000000e+000  9.659257e-001
    outer loop
      vertex -4.700000e+001  0.000000e+000  4.500000e+001
      vertex -4.700000e+001  3.000000e+000  4.500000e+001
      vertex -4.850000e+001  0.000000e+000  4.459808e+001
    endloop
  endfacet
  facet normal -2.588192e-001  0.000000e+000  9.659257e-001
    outer loop
      vertex -4.850000e+001  0.000000e+000  4.459808e+001
      vertex -4.700000e+001  3.000000e+000  4.500000e+001
      vertex -4.850000e+001  3.000000e+000  4.459808e+001
    endloop
  endfacet
  facet normal -7.071068e-001  0.000000e+000  7.071068e-001
    outer loop
      vertex -4.850000e+001  0.000000e+000  4.459808e+001
      vertex -4.850000e+001  3.000000e+000  4.459808e+001
      vertex -4.959808e+001  0.000000e+000  4.350000e+001
    endloop
  endfacet
  facet normal -7.071068e-001  0.000000e+000  7.071068e-001
    outer loop
      vertex -4.959808e+001  0.000000e+000  4.350000e+001
      vertex -4.850000e+001  3.000000e+000  4.459808e+001
      vertex -4.959808e+001  3.000000e+000  4.350000e+001
    endloop
  endfacet
  facet normal -9.659257e-001  0.000000e+000  2.588192e-001
    outer loop
      vertex -4.959808e+001  0.000000e+000  4.350000e+001
      vertex -4.959808e+001  3.000000e+000  4.350000e+001
      vertex -5.000000e+001  0.000000e+000  4.200000e+001
    endloop
  endfacet
  facet normal -9.659257e-001  0.000000e+000  2.588192e-001
    outer loop
      vertex -5.000000e+001  0.000000e+000  4.200000e+001
      vertex -4.959808e+001  3.000000e+000  4.350000e+001
      vertex -5.000000e+001  3.000000e+000  4.200000e+001
    endloop
  endfacet
  facet normal -1.000000e+000  0.000000e+000  0.000000e+000
    outer loop
      vertex -1.600000e+001  3.000000e+000  4.100000e+001
      vertex -1.600000e+001  3.000000e+000  4.300000e+001
      vertex -1.600000e+001  1.100000e+001  4.100000e+001
    endloop
  endfacet
  facet normal -1.000000e+000  0.000000e+000  0.000000e+000
    outer loop
      vertex -1.600000e+001  1.100000e+001  4.100000e+001
      vertex -1.600000e+001  3.000000e+000  4.300000e+001
      vertex -1.600000e+001  1.100000e+001  4.300000e+001
    endloop
  endfacet
  facet normal  0.000000e+000  0.000000e+000 -1.000000e+000
    outer loop
      vertex -1.600000e+001  3.000000e+000  4.100000e+001
      vertex -1.600000e+001  1.100000e+001  4.100000e+001
      vertex -1.300000e+001  3.000000e+000  4.100000e+001
    endloop
  endfacet
  facet normal  0.000000e+000  0.000000e+000 -1.000000e+000
    outer loop
      vertex -1.300000e+001  3.000000e+000  4.100000e+001
      vertex -1.600000e+001  1.100000e+001  4.100000e+001
      vertex -1.300000e+001  1.100000e+001  4.100000e+001
    endloop
  endfacet
  facet normal  0.000000e+000  0.000000e+000  1.000000e+000
    outer loop
      vertex -1.300000e+001  3.000000e+000  4.300000e+001
      vertex -1.300000e+001  1.100000e+001  4.300000e+001
      vertex -1.600000e+001  3.000000e+000  4.300000e+001
    endloop
  endfacet
  facet normal  0.000000e+000  0.000000e+000  1.000000e+000
    outer loop
      vertex -1.600000e+001  3.000000e+000  4.300000e+001
      vertex -1.300000e+001  1.100000e+001  4.300000e+001
      vertex -1.600000e+001  1.100000e+001  4.300000e+001
    endloop
  endfacet
  facet normal  1.000000e+000  0.000000e+000  0.000000e+000
    outer loop
      vertex -1.300000e+001  3.000000e+000  4.300000e+001
      vertex -1.300000e+001  3.000000e+000  4.100000e+001
      vertex -1.300000e+001  1.100000e+001  4.300000e+001
    endloop
  endfacet
  facet normal  1.000000e+000  0.000000e+000  0.000000e+000
    outer loop
      vertex -1.300000e+001  1.100000e+001  4.300000e+001
      vertex -1.300000e+001  3.000000e+000  4.100000e+001
      vertex -1.300000e+001  1.100000e+001  4.100000e+001
    endloop
  endfacet
  facet normal -1.000000e+000  0.000000e+000  0.000000e+000
    outer loop
      vertex -1.600000e+001  3.000000e+000 -4.800000e+001
      vertex -1.600000e+001  3.000000e+000 -4.600000e+001
      vertex -1.600000e+001  1.100000e+001 -4.800000e+001
    endloop
  endfacet
  facet normal -1.000000e+000  0.000000e+000  0.000000e+000
    outer loop
      vertex -1.600000e+001  1.100000e+001 -4.800000e+001
      vertex -1.600000e+001  3.000000e+000 -4.600000e+001
      vertex -1.600000e+001  1.100000e+001 -4.600000e+001
    endloop
  endfacet
  facet normal  0.000000e+000  0.000000e+000 -1.000000e+000
    outer loop
      vertex -1.600000e+001  3.000000e+000 -4.800000e+001
      vertex -1.600000e+001  1.100000e+001 -4.800000e+001
      vertex -1.300000e+001  3.000000e+000 -4.800000e+001
    endloop
  endfacet
  facet normal  0.000000e+000  0.000000e+000 -1.000000e+000
    outer loop
      vertex -1.300000e+001  3.000000e+000 -4.800000e+001
      vertex -1.600000e+001  1.100000e+001 -4.800000e+001
      vertex -1.300000e+001  1.100000e+001 -4.800000e+001
    endloop
  endfacet
  facet normal  0.000000e+000  0.000000e+000  1.000000e+000
    outer loop
      vertex -1.300000e+001  3.000000e+000 -4.600000e+001
      vertex -1.300000e+001  1.100000e+001 -4.600000e+001
      vertex -1.600000e+001  3.000000e+000 -4.600000e+001
    endloop
  endfacet
  facet normal  0.000000e+000  0.000000e+000  1.000000e+000
    outer loop
      vertex -1.600000e+001  3.000000e+000 -4.600000e+001
      vertex -1.300000e+001  1.100000e+001 -4.600000e+001
      vertex -1.600000e+001  1.100000e+001 -4.600000e+001
    endloop
  endfacet
  facet normal  1.000000e+000  0.000000e+000  0.000000e+000
    outer loop
      vertex -1.300000e+001  3.000000e+000 -4.600000e+001
      vertex -1.300000e+001  3.000000e+000 -4.800000e+001
      vertex -1.300000e+001  1.100000e+001 -4.600000e+001
    endloop
  endfacet
  facet normal  1.000000e+000  0.000000e+000  0.000000e+000
    outer loop
      vertex -1.300000e+001  1.100000e+001 -4.600000e+001
      vertex -1.300000e+001  3.000000e+000 -4.800000e+001
      vertex -1.300000e+001  1.100000e+001 -4.800000e+001
    endloop
  endfacet
  facet normal -1.000000e+000  0.000000e+000  0.000000e+000
    outer loop
      vertex  8.000000e+000  3.000000e+000  4.100000e+001
      vertex  8.000000e+000  3.000000e+000  4.300000e+001
      vertex  8.000000e+000  1.100000e+001  4.100000e+001
    endloop
  endfacet
  facet normal -1.000000e+000  0.000000e+000  0.000000e+000
    outer loop
      vertex  8.000000e+000  1.100000e+001  4.100000e+001
      vertex  8.000000e+000  3.000000e+000  4.300000e+001
      vertex  8.000000e+000  1.100000e+001  4.300000e+001
    endloop
  endfacet
  facet normal  0.000000e+000  0.000000e+000 -1.000000e+000
    outer loop
      vertex  8.000000e+000  3.000000e+000  4.100000e+001
      vertex  8.000000e+000  1.100000e+001  4.100000e+001
      vertex  1.100000e+001  3.000000e+000  4.100000e+001
    endloop
  endfacet
  facet normal  0.000000e+000  0.000000e+000 -1.000000e+000
    outer loop
      vertex  1.100000e+001  3.000000e+000  4.100000e+001
      vertex  8.000000e+000  1.100000e+001  4.100000e+001
      vertex  1.100000e+001  1.100000e+001  4.100000e+001
    endloop
  endfacet
  facet normal  0.000000e+000  0.000000e+000  1.000000e+000
    outer loop
      vertex  1.100000e+001  3.000000e+000  4.300000e+001
      vertex  1.100000e+001  1.100000e+001  4.300000e+001
      vertex  8.000000e+000  3.000000e+000  4.300000e+001
    endloop
  endfacet
  facet normal  0.000000e+000  0.000000e+000  1.000000e+000
    outer loop
      vertex  8.000000e+000  3.000000e+000  4.300000e+001
      vertex  1.100000e+001  1.100000e+001  4.300000e+001
      vertex  8.000000e+000  1.100000e+001  4.300000e+001
    endloop
  endfacet
  facet normal  1.000000e+000  0.000000e+000  0.000000e+000
    outer loop
      vertex  1.100000e+001  3.000000e+000  4.300000e+001
      vertex  1.100000e+001  3.000000e+000  4.100000e+001
      vertex  1.100000e+001  1.100000e+001  4.300000e+001
    endloop
  endfacet
  facet normal  1.000000e+000  0.000000e+000  0.000000e+000
    outer loop
      vertex  1.100000e+001  1.100000e+001  4.300000e+001
      vertex  1.100000e+001  3.000000e+000  4.100000e+001
      vertex  1.100000e+001  1.100000e+001  4.100000e+001
    endloop
  endfacet
  facet normal -1.000000e+000  0.000000e+000  0.000000e+000
    outer loop
      vertex  8.000000e+000  3.000000e+000 -4.800000e+001
      vertex  8.000000e+000  3.000000e+000 -4.600000e+001
      vertex  8.000000e+000  1.100000e+001 -4.800000e+001
    endloop
  endfacet
  facet normal -1.000000e+000  0.000000e+000  0.000000e+000
    outer loop
      vertex  8.000000e+000  1.100000e+001 -4.800000e+001
      vertex  8.000000e+000  3.000000e+000 -4.600000e+001
      vertex  8.000000e+000  1.100000e+001 -4.600000e+001
    endloop
  endfacet
  facet normal  0.000000e+000  0.000000e+000 -1.000000e+000
    outer loop
      vertex  8.000000e+000  3.000000e+000 -4.800000e+001
      vertex  8.000000e+000  1.100000e+001 -4.800000e+001
      vertex  1.100000e+001  3.000000e+000 -4.800000e+001
    endloop
  endfacet
  facet normal  0.000000e+000  0.000000e+000 -1.000000e+000
    outer loop
      vertex  1.100000e+001  3.000000e+000 -4.800000e+001
      vertex  8.000000e+000  1.100000e+001 -4.800000e+001
      vertex  1.100000e+001  1.100000e+001 -4.800000e+001
    endloop
  endfacet
  facet normal  0.000000e+000  0.000000e+000  1.000000e+000
    outer loop
      vertex  1.100000e+001  3.000000e+000 -4.600000e+001
      vertex  1.100000e+001  1.100000e+001 -4.600000e+001
      vertex  8.000000e+000  3.000000e+000 -4.600000e+001
    endloop
  endfacet
  facet normal  0.000000e+000  0.000000e+000  1.000000e+000
    outer loop
      vertex  8.000000e+000  3.000000e+000 -4.600000e+001
      vertex  1.100000e+001  1.100000e+001 -4.600000e+001
      vertex  8.000000e+000  1.100000e+001 -4.600000e+001
    endloop
  endfacet
  facet normal  1.000000e+000  0.000000e+000  0.000000e+000
    outer loop
      vertex  1.100000e+001  3.000000e+000 -4.600000e+001
      vertex  1.100000e+001  3.000000e+000 -4.800000e+001
      vertex  1.100000e+001  1.100000e+001 -4.600000e+001
    endloop
  endfacet
  facet normal  1.000000e+000  0.000000e+000  0.000000e+000
    outer loop
      vertex  1.100000e+001  1.100000e+001 -4.600000e+001
      vertex  1.100000e+001  3.000000e+000 -4.800000e+001
      vertex  1.100000e+001  1.100000e+001 -4.800000e+001
    endloop
  endfacet
  facet normal -1.000000e+000  0.000000e+000  0.000000e+000
    outer loop
      vertex  3.200000e+001  3.000000e+000  4.100000e+001
      vertex  3.200000e+001  3.000000e+000  4.300000e+001
      vertex  3.200000e+001  1.100000e+001  4.100000e+001
    endloop
  endfacet
  facet normal -1.000000e+000  0.000000e+000  0.000000e+000
    outer loop
      vertex  3.200000e+001  1.100000e+001  4.100000e+001
      vertex  3.200000e+001  3.000000e+000  4.300000e+001
      vertex  3.200000e+001  1.100000e+001  4.300000e+001
    endloop
  endfacet
  facet normal  0.000000e+000  0.000000e+000 -1.000000e+000
    outer loop
      vertex  3.200000e+001  3.000000e+000  4.100000e+001
      vertex  3.200000e+001  1.100000e+001  4.100000e+001
      vertex  3.500000e+001  3.000000e+000  4.100000e+001
    endloop
  endfacet
  facet normal  0.000000e+000  0.000000e+000 -1.000000e+000
    outer loop
      vertex  3.500000e+001  3.000000e+000  4.100000e+001
      vertex  3.200000e+001  1.100000e+001  4.100000e+001
      vertex  3.500000e+001  1.100000e+001  4.100000e+001
    endloop
  endfacet
  facet normal  0.000000e+000  0.000000e+000  1.000000e+000
    outer loop
      vertex  3.500000e+001  3.000000e+000  4.300000e+001
      vertex  3.500000e+001  1.100000e+001  4.300000e+001
      vertex  3.200000e+001  3.000000e+000  4.300000e+001
    endloop
  endfacet
  facet normal  0.000000e+000  0.000000e+000  1.000000e+000
    outer loop
      vertex  3.200000e+001  3.000000e+000  4.300000e+001
      vertex  3.500000e+001  1.100000e+001  4.300000e+001
      vertex  3.200000e+001  1.100000e+001  4.300000e+001
    endloop
  endfacet
  facet normal  1.000000e+000  0.000000e+000  0.000000e+000
    outer loop
      vertex  3.500000e+001  3.000000e+000  4.300000e+001
      vertex  3.500000e+001  3.000000e+000  4.100000e+001
      vertex  3.500000e+001  1.100000e+001  4.300000e+001
    endloop
  endfacet
  facet normal  1.000000e+000  0.000000e+000  0.000000e+000
    outer loop
      vertex  3.500000e+001  1.100000e+001  4.300000e+001
      vertex  3.500000e+001  3.000000e+000  4.100000e+001
      vertex  3.500000e+001  1.100000e+001  4.100000e+001
    endloop
  endfacet
  facet normal -1.000000e+000  0.000000e+000  0.000000e+000
    outer loop
      vertex  3.200000e+001  3.000000e+000 -4.800000e+001
      vertex  3.200000e+001  3.000000e+000 -4.600000e+001
      vertex  3.200000e+001  1.100000e+001 -4.800000e+001
    endloop
  endfacet
  facet normal -1.000000e+000  0.000000e+000  0.000000e+000
    outer loop
      vertex  3.200000e+001  1.100000e+001 -4.800000e+001
      vertex  3.200000e+001  3.000000e+000 -4.600000e+001
      vertex  3.200000e+001  1.100000e+001 -4.600000e+001
    endloop
  endfacet
  facet normal  0.000000e+000  0.000000e+000 -1.000000e+000
    outer loop
      vertex  3.200000e+001  3.000000e+000 -4.800000e+001
      vertex  3.200000e+001  1.100000e+001 -4.800000e+001
      vertex  3.500000e+001  3.000000e+000 -4.800000e+001
    endloop
  endfacet
  facet normal  0.000000e+000  0.000000e+000 -1.000000e+000
    outer loop
      vertex  3.500000e+001  3.000000e+000 -4.800000e+001
      vertex  3.200000e+001  1.100000e+001 -4.800000e+001
      vertex  3.500000e+001  1.100000e+001 -4.800000e+001
    endloop
  endfacet
  facet normal  0.000000e+000  0.000000e+000  1.000000e+000
    outer loop
      vertex  3.500000e+001  3.000000e+000 -4.600000e+001
      vertex  3.500000e+001  1.100000e+001 -4.600000e+001
      vertex  3.200000e+001  3.000000e+000 -4.600000e+001
    endloop
  endfacet
  facet normal  0.000000e+000  0.000000e+000  1.000000e+000
    outer loop
      vertex  3.200000e+001  3.000000e+000 -4.600000e+001
      vertex  3.500000e+001  1.100000e+001 -4.600000e+001
      vertex  3.200000e+001  1.100000e+001 -4.600000e+001
    endloop
  endfacet
  facet normal  1.000000e+000  0.000000e+000  0.000000e+000
    outer loop
      vertex  3.500000e+001  3.000000e+000 -4.600000e+001
      vertex  3.500000e+001  3.000000e+000 -4.800000e+001
      vertex  3.500000e+001  1.100000e+001 -4.600000e+001
    endloop
  endfacet
  facet normal  1.000000e+000  0.000000e+000  0.000000e+000
    outer loop
      vertex  3.500000e+001  1.100000e+001 -4.600000e+001
      vertex  3.500000e+001  3.000000e+000 -4.800000e+001
      vertex  3.500000e+001  1.100000e+001 -4.800000e+001
    endloop
  endfacet
  facet normal  0.000000e+000  1.000000e+000  0.000000e+000
    outer loop
      vertex -1.300000e+001  1.100000e+001  4.100000e+001
      vertex -1.600000e+001  1.100000e+001  4.100000e+001
      vertex -1.300000e+001  1.100000e+001  4.300000e+001
    endloop
  endfacet
  facet normal  0.000000e+000  1.000000e+000  0.000000e+000
    outer loop
      vertex -1.300000e+001  1.100000e+001  4.300000e+001
      vertex -1.600000e+001  1.100000e+001  4.100000e+001
      vertex -1.600000e+001  1.100000e+001  4.300000e+001
    endloop
  endfacet
  facet normal  0.000000e+000  1.000000e+000  0.000000e+000
    outer loop
      vertex -1.300000e+001  1.100000e+001 -4.800000e+001
      vertex -1.600000e+001  1.100000e+001 -4.800000e+001
      vertex -1.300000e+001  1.100000e+001 -4.600000e+001
    endloop
  endfacet
  facet normal  0.000000e+000  1.000000e+000  0.000000e+000
    outer loop
      vertex -1.300000e+001  1.100000e+001 -4.600000e+001
      vertex -1.600000e+001  1.100000e+001 -4.800000e+001
      vertex -1.600000e+001  1.100000e+001 -4.600000e+001
    endloop
  endfacet
  facet normal  0.000000e+000  1.000000e+000  0.000000e+000
    outer loop
      vertex  1.100000e+001  1.100000e+001  4.100000e+001
      vertex  8.000000e+000  1.100000e+001  4.100000e+001
      vertex  1.100000e+001  1.100000e+001  4.300000e+001
    endloop
  endfacet
  facet normal  0.000000e+000  1.000000e+000  0.000000e+000
    outer loop
      vertex  1.100000e+001  1.100000e+001  4.300000e+001
      vertex  8.000000e+000  1.100000e+001  4.100000e+001
      vertex  8.000000e+000  1.100000e+001  4.300000e+001
    endloop
  endfacet
  facet normal  0.000000e+000  1.000000e+000  0.000000e+000
    outer loop
      vertex  1.100000e+001  1.100000e+001 -4.800000e+001
      vertex  8.000000e+000  1.100000e+001 -4.800000e+001
      vertex  1.100000e+001  1.100000e+001 -4.600000e+001
    endloop
  endfacet
  facet normal  0.000000e+000  1.000000e+000  0.000000e+000
    outer loop
      vertex  1.100000e+001  1.100000e+001 -4.600000e+001
      vertex  8.000000e+000  1.100000e+001 -4.800000e+001
      vertex  8.000000e+000  1.100000e+001 -4.600000e+001
    endloop
  endfacet
  facet normal  0.000000e+000  1.000000e+000  0.000000e+000
    outer loop
      vertex  3.500000e+001  1.100000e+001  4.100000e+001
      vertex  3.200000e+001  1.100000e+001  4.100000e+001
      vertex  3.500000e+001  1.100000e+001  4.300000e+001
    endloop
  endfacet
  facet normal  0.000000e+000  1.000000e+000  0.000000e+000
    outer loop
      vertex  3.500000e+001  1.100000e+001  4.300000e+001
      vertex  3.200000e+001  1.100000e+001  4.100000e+001
      vertex  3.200000e+001  1.100000e+001  4.300000e+001
    endloop
  endfacet
  facet normal  0.000000e+000  1.000000e+000  0.000000e+000
    outer loop
      vertex  3.500000e+001  1.100000e+001 -4.800000e+001
      vertex  3.200000e+001  1.100000e+001 -4.800000e+001
      vertex  3.500000e+001  1.100000e+001 -4.600000e+001
    endloop
  endfacet
  facet normal  0.000000e+000  1.000000e+000  0.000000e+000
    outer loop
      vertex  3.500000e+001  1.100000e+001 -4.600000e+001
      vertex  3.200000e+001  1.100000e+001 -4.800000e+001
      vertex  3.200000e+001  1.100000e+001 -4.600000e+001
    endloop
  endfacet
  facet normal -1.000000e+000  0.000000e+000  0.000000e+000
    outer loop
      vertex -4.000000e+001  3.000000e+000 -4.800000e+001
      vertex -4.000000e+001  3.000000e+000 -4.600000e+001
      vertex -4.000000e+001  1.100000e+001 -4.800000e+001
    endloop
  endfacet
  facet normal -1.000000e+000  0.000000e+000  0.000000e+000
    outer loop
      vertex -4.000000e+001  1.100000e+001 -4.800000e+001
      vertex -4.000000e+001  3.000000e+000 -4.600000e+001
      vertex -4.000000e+001  1.100000e+001 -4.600000e+001
    endloop
  endfacet
  facet normal  0.000000e+000  0.000000e+000 -1.000000e+000
    outer loop
      vertex -4.000000e+001  3.000000e+000 -4.800000e+001
      vertex -4.000000e+001  1.100000e+001 -4.800000e+001
      vertex -3.700000e+001  3.000000e+000 -4.800000e+001
    endloop
  endfacet
  facet normal  0.000000e+000  0.000000e+000 -1.000000e+000
    outer loop
      vertex -3.700000e+001  3.000000e+000 -4.800000e+001
      vertex -4.000000e+001  1.100000e+001 -4.800000e+001
      vertex -3.700000e+001  1.100000e+001 -4.800000e+001
    endloop
  endfacet
  facet normal  0.000000e+000  0.000000e+000  1.000000e+000
    outer loop
      vertex -3.700000e+001  3.000000e+000 -4.600000e+001
      vertex -3.700000e+001  1.100000e+001 -4.600000e+001
      vertex -4.000000e+001  3.000000e+000 -4.600000e+001
    endloop
  endfacet
  facet normal  0.000000e+000  0.000000e+000  1.000000e+000
    outer loop
      vertex -4.000000e+001  3.000000e+000 -4.600000e+001
      vertex -3.700000e+001  1.100000e+001 -4.600000e+001
      vertex -4.000000e+001  1.100000e+001 -4.600000e+001
    endloop
  endfacet
  facet normal  1.000000e+000  0.000000e+000  0.000000e+000
    outer loop
      vertex -3.700000e+001  3.000000e+000 -4.600000e+001
      vertex -3.700000e+001  3.000000e+000 -4.800000e+001
      vertex -3.700000e+001  1.100000e+001 -4.600000e+001
    endloop
  endfacet
  facet normal  1.000000e+000  0.000000e+000  0.000000e+000
    outer loop
      vertex -3.700000e+001  1.100000e+001 -4.600000e+001
      vertex -3.700000e+001  3.000000e+000 -4.800000e+001
      vertex -3.700000e+001  1.100000e+001 -4.800000e+001
    endloop
  endfacet
  facet normal  0.000000e+000  1.000000e+000  0.000000e+000
    outer loop
      vertex -3.700000e+001  1.100000e+001 -4.800000e+001
      vertex -4.000000e+001  1.100000e+001 -4.800000e+001
      vertex -3.700000e+001  1.100000e+001 -4.600000e+001
    endloop
  endfacet
  facet normal  0.000000e+000  1.000000e+000  0.000000e+000
    outer loop
      vertex -3.700000e+001  1.100000e+001 -4.600000e+001
      vertex -4.000000e+001  1.100000e+001 -4.800000e+001
      vertex -4.000000e+001  1.100000e+001 -4.600000e+001
    endloop
  endfacet
  facet normal  0.000000e+000  0.000000e+000  1.000000e+000
    outer loop
      vertex -3.700000e+001  3.000000e+000  4.300000e+001
      vertex -3.700000e+001  1.100000e+001  4.300000e+001
      vertex -4.000000e+001  3.000000e+000  4.300000e+001
    endloop
  endfacet
  facet normal  0.000000e+000  0.000000e+000  1.000000e+000
    outer loop
      vertex -4.000000e+001  3.000000e+000  4.300000e+001
      vertex -3.700000e+001  1.100000e+001  4.300000e+001
      vertex -4.000000e+001  1.100000e+001  4.300000e+001
    endloop
  endfacet
  facet normal -1.000000e+000  0.000000e+000  0.000000e+000
    outer loop
      vertex -4.000000e+001  3.000000e+000  4.100000e+001
      vertex -4.000000e+001  3.000000e+000  4.300000e+001
      vertex -4.000000e+001  1.100000e+001  4.100000e+001
    endloop
  endfacet
  facet normal -1.000000e+000  0.000000e+000  0.000000e+000
    outer loop
      vertex -4.000000e+001  1.100000e+001  4.100000e+001
      vertex -4.000000e+001  3.000000e+000  4.300000e+001
      vertex -4.000000e+001  1.100000e+001  4.300000e+001
    endloop
  endfacet
  facet normal  0.000000e+000  0.000000e+000 -1.000000e+000
    outer loop
      vertex -4.000000e+001  3.000000e+000  4.100000e+001
      vertex -4.000000e+001  1.100000e+001  4.100000e+001
      vertex -3.700000e+001  3.000000e+000  4.100000e+001
    endloop
  endfacet
  facet normal  0.000000e+000  0.000000e+000 -1.000000e+000
    outer loop
      vertex -3.700000e+001  3.000000e+000  4.100000e+001
      vertex -4.000000e+001  1.100000e+001  4.100000e+001
      vertex -3.700000e+001  1.100000e+001  4.100000e+001
    endloop
  endfacet
  facet normal  1.000000e+000  0.000000e+000  0.000000e+000
    outer loop
      vertex -3.700000e+001  3.000000e+000  4.300000e+001
      vertex -3.700000e+001  3.000000e+000  4.100000e+001
      vertex -3.700000e+001  1.100000e+001  4.300000e+001
    endloop
  endfacet
  facet normal  1.000000e+000  0.000000e+000  0.000000e+000
    outer loop
      vertex -3.700000e+001  1.100000e+001  4.300000e+001
      vertex -3.700000e+001  3.000000e+000  4.100000e+001
      vertex -3.700000e+001  1.100000e+001  4.100000e+001
    endloop
  endfacet
  facet normal  0.000000e+000  1.000000e+000  0.000000e+000
    outer loop
      vertex -3.700000e+001  1.100000e+001  4.100000e+001
      vertex -4.000000e+001  1.100000e+001  4.100000e+001
      vertex -3.700000e+001  1.100000e+001  4.300000e+001
    endloop
  endfacet
  facet normal  0.000000e+000  1.000000e+000  0.000000e+000
    outer loop
      vertex -3.700000e+001  1.100000e+001  4.300000e+001
      vertex -4.000000e+001  1.100000e+001  4.100000e+001
      vertex -4.000000e+001  1.100000e+001  4.300000e+001
    endloop
  endfacet
  facet normal -9.999999e-001  0.000000e+000  0.000000e+000
    outer loop
      vertex  3.800000e+001  3.000000e+000  3.800000e+001
      vertex  3.800000e+001  3.000000e+000 -4.300000e+001
      vertex  3.800000e+001  0.000000e+000  3.800000e+001
    endloop
  endfacet
  facet normal -9.999999e-001  0.000000e+000  0.000000e+000
    outer loop
      vertex  3.800000e+001  0.000000e+000  3.800000e+001
      vertex  3.800000e+001  3.000000e+000 -4.300000e+001
      vertex  3.800000e+001  0.000000e+000 -4.300000e+001
    endloop
  endfacet
  facet normal  0.000000e+000  0.000000e+000  9.999999e-001
    outer loop
      vertex -4.300000e+001  3.000000e+000 -4.300000e+001
      vertex -4.300000e+001  0.000000e+000 -4.300000e+001
      vertex  3.800000e+001  3.000000e+000 -4.300000e+001
    endloop
  endfacet
  facet normal  0.000000e+000  0.000000e+000  9.999999e-001
    outer loop
      vertex  3.800000e+001  3.000000e+000 -4.300000e+001
      vertex -4.300000e+001  0.000000e+000 -4.300000e+001
      vertex  3.800000e+001  0.000000e+000 -4.300000e+001
    endloop
  endfacet
  facet normal  9.999999e-001  0.000000e+000  0.000000e+000
    outer loop
      vertex -4.300000e+001  3.000000e+000 -4.300000e+001
      vertex -4.300000e+001  3.000000e+000  3.800000e+001
      vertex -4.300000e+001  0.000000e+000 -4.300000e+001
    endloop
  endfacet
  facet normal  9.999999e-001  0.000000e+000  0.000000e+000
    outer loop
      vertex -4.300000e+001  0.000000e+000 -4.300000e+001
      vertex -4.300000e+001  3.000000e+000  3.800000e+001
      vertex -4.300000e+001  0.000000e+000  3.800000e+001
    endloop
  endfacet
  facet normal  0.000000e+000  0.000000e+000 -9.999999e-001
    outer loop
      vertex  3.800000e+001  3.000000e+000  3.800000e+001
      vertex  3.800000e+001  0.000000e+000  3.800000e+001
      vertex -4.300000e+001  3.000000e+000  3.800000e+001
    endloop
  endfacet
  facet normal  0.000000e+000  0.000000e+000 -9.999999e-001
    outer loop
      vertex -4.300000e+001  3.000000e+000  3.800000e+001
      vertex  3.800000e+001  0.000000e+000  3.800000e+001
      vertex -4.300000e+001  0.000000e+000  3.800000e+001
    endloop
  endfacet
endsolid CATIA STL
