solid CATIA STL
  facet normal  0.000000e+000  1.000000e+000  0.000000e+000
    outer loop
      vertex  4.035000e+001  1.500000e+000 -2.135000e+001
      vertex  4.165000e+001  1.500000e+000  2.135000e+001
      vertex  4.165000e+001  1.500000e+000 -2.135000e+001
    endloop
  endfacet
  facet normal  -0.000000e+000  1.000000e+000  0.000000e+000
    outer loop
      vertex -4.035000e+001  1.500000e+000  2.135000e+001
      vertex -4.035000e+001  1.500000e+000  2.365000e+001
      vertex -3.800000e+001  1.500000e+000  3.800000e+001
    endloop
  endfacet
  facet normal  0.000000e+000  1.000000e+000  0.000000e+000
    outer loop
      vertex -4.035000e+001  1.500000e+000  2.135000e+001
      vertex -3.800000e+001  1.500000e+000  3.800000e+001
      vertex -4.035000e+001  1.500000e+000 -2.135000e+001
    endloop
  endfacet
  facet normal  0.000000e+000  1.000000e+000  -0.000000e+000
    outer loop
      vertex -4.035000e+001  1.500000e+000  2.135000e+001
      vertex -4.035000e+001  1.500000e+000 -2.135000e+001
      vertex -4.165000e+001  1.500000e+000 -2.135000e+001
    endloop
  endfacet
  facet normal  0.000000e+000  1.000000e+000  0.000000e+000
    outer loop
      vertex -4.035000e+001  1.500000e+000  2.135000e+001
      vertex -4.165000e+001  1.500000e+000 -2.135000e+001
      vertex -4.165000e+001  1.500000e+000  2.135000e+001
    endloop
  endfacet
  facet normal  0.000000e+000  1.000000e+000  0.000000e+000
    outer loop
      vertex  4.035000e+001  1.500000e+000  2.135000e+001
      vertex  4.165000e+001  1.500000e+000  2.135000e+001
      vertex  4.035000e+001  1.500000e+000 -2.135000e+001
    endloop
  endfacet
  facet normal  0.000000e+000  1.000000e+000  -0.000000e+000
    outer loop
      vertex  4.035000e+001  1.500000e+000  2.135000e+001
      vertex  4.035000e+001  1.500000e+000 -2.135000e+001
      vertex  3.800000e+001  1.500000e+000  3.800000e+001
    endloop
  endfacet
  facet normal  0.000000e+000  1.000000e+000  0.000000e+000
    outer loop
      vertex  4.035000e+001  1.500000e+000  2.135000e+001
      vertex  3.800000e+001  1.500000e+000  3.800000e+001
      vertex  4.035000e+001  1.500000e+000  2.365000e+001
    endloop
  endfacet
  facet normal  0.000000e+000  1.000000e+000  -0.000000e+000
    outer loop
      vertex  4.400000e+001  1.500000e+000  4.100000e+001
      vertex  4.400000e+001  1.500000e+000 -4.100000e+001
      vertex  4.165000e+001  1.500000e+000 -2.365000e+001
    endloop
  endfacet
  facet normal  0.000000e+000  1.000000e+000  0.000000e+000
    outer loop
      vertex  4.400000e+001  1.500000e+000  4.100000e+001
      vertex  4.165000e+001  1.500000e+000 -2.365000e+001
      vertex  4.165000e+001  1.500000e+000 -2.135000e+001
    endloop
  endfacet
  facet normal  0.000000e+000  1.000000e+000  0.000000e+000
    outer loop
      vertex  4.400000e+001  1.500000e+000  4.100000e+001
      vertex  4.165000e+001  1.500000e+000 -2.135000e+001
      vertex  4.165000e+001  1.500000e+000  2.135000e+001
    endloop
  endfacet
  facet normal  0.000000e+000  1.000000e+000  0.000000e+000
    outer loop
      vertex  4.400000e+001  1.500000e+000  4.100000e+001
      vertex  4.165000e+001  1.500000e+000  2.135000e+001
      vertex  4.165000e+001  1.500000e+000  2.365000e+001
    endloop
  endfacet
  facet normal  0.000000e+000  1.000000e+000  0.000000e+000
    outer loop
      vertex -4.400000e+001  1.500000e+000  4.100000e+001
      vertex -4.165000e+001  1.500000e+000  2.365000e+001
      vertex -4.165000e+001  1.500000e+000  2.135000e+001
    endloop
  endfacet
  facet normal  0.000000e+000  1.000000e+000  0.000000e+000
    outer loop
      vertex -4.400000e+001  1.500000e+000  4.100000e+001
      vertex -4.165000e+001  1.500000e+000  2.135000e+001
      vertex -4.165000e+001  1.500000e+000 -2.135000e+001
    endloop
  endfacet
  facet normal  0.000000e+000  1.000000e+000  0.000000e+000
    outer loop
      vertex -4.400000e+001  1.500000e+000  4.100000e+001
      vertex -4.165000e+001  1.500000e+000 -2.135000e+001
      vertex -4.165000e+001  1.500000e+000 -2.365000e+001
    endloop
  endfacet
  facet normal  0.000000e+000  1.000000e+000  0.000000e+000
    outer loop
      vertex -4.400000e+001  1.500000e+000  4.100000e+001
      vertex -4.165000e+001  1.500000e+000 -2.365000e+001
      vertex -4.400000e+001  1.500000e+000 -4.100000e+001
    endloop
  endfacet
  facet normal  0.000000e+000  1.000000e+000  0.000000e+000
    outer loop
      vertex -4.250000e+001  1.500000e+000 -4.359808e+001
      vertex -4.359808e+001  1.500000e+000 -4.250000e+001
      vertex -4.100000e+001  1.500000e+000 -4.400000e+001
    endloop
  endfacet
  facet normal  0.000000e+000  1.000000e+000  0.000000e+000
    outer loop
      vertex -4.100000e+001  1.500000e+000 -4.400000e+001
      vertex -4.359808e+001  1.500000e+000 -4.250000e+001
      vertex -4.400000e+001  1.500000e+000 -4.100000e+001
    endloop
  endfacet
  facet normal  -0.000000e+000  9.999999e-001  0.000000e+000
    outer loop
      vertex -4.100000e+001  1.500000e+000 -4.400000e+001
      vertex -4.400000e+001  1.500000e+000 -4.100000e+001
      vertex -4.035000e+001  1.500000e+000 -2.365000e+001
    endloop
  endfacet
  facet normal  0.000000e+000  1.000000e+000  0.000000e+000
    outer loop
      vertex -4.035000e+001  1.500000e+000 -2.365000e+001
      vertex -4.400000e+001  1.500000e+000 -4.100000e+001
      vertex -4.165000e+001  1.500000e+000 -2.365000e+001
    endloop
  endfacet
  facet normal  0.000000e+000  1.000000e+000  0.000000e+000
    outer loop
      vertex -4.400000e+001  1.500000e+000  4.100000e+001
      vertex -4.359808e+001  1.500000e+000  4.250000e+001
      vertex -4.165000e+001  1.500000e+000  2.365000e+001
    endloop
  endfacet
  facet normal  0.000000e+000  1.000000e+000  0.000000e+000
    outer loop
      vertex -4.165000e+001  1.500000e+000  2.365000e+001
      vertex -4.359808e+001  1.500000e+000  4.250000e+001
      vertex -4.250000e+001  1.500000e+000  4.359808e+001
    endloop
  endfacet
  facet normal  0.000000e+000  1.000000e+000  0.000000e+000
    outer loop
      vertex -4.165000e+001  1.500000e+000  2.365000e+001
      vertex -4.250000e+001  1.500000e+000  4.359808e+001
      vertex -4.035000e+001  1.500000e+000  2.365000e+001
    endloop
  endfacet
  facet normal  0.000000e+000  1.000000e+000  0.000000e+000
    outer loop
      vertex -4.035000e+001  1.500000e+000  2.365000e+001
      vertex -4.250000e+001  1.500000e+000  4.359808e+001
      vertex -4.100000e+001  1.500000e+000  4.400000e+001
    endloop
  endfacet
  facet normal  0.000000e+000  1.000000e+000  0.000000e+000
    outer loop
      vertex -4.035000e+001  1.500000e+000  2.365000e+001
      vertex -4.100000e+001  1.500000e+000  4.400000e+001
      vertex -3.800000e+001  1.500000e+000  3.800000e+001
    endloop
  endfacet
  facet normal  0.000000e+000  1.000000e+000  0.000000e+000
    outer loop
      vertex  4.035000e+001  1.500000e+000 -2.365000e+001
      vertex  4.165000e+001  1.500000e+000 -2.365000e+001
      vertex  3.800000e+001  1.500000e+000 -3.800000e+001
    endloop
  endfacet
  facet normal  -0.000000e+000  1.000000e+000  0.000000e+000
    outer loop
      vertex  3.800000e+001  1.500000e+000 -3.800000e+001
      vertex  4.165000e+001  1.500000e+000 -2.365000e+001
      vertex  4.100000e+001  1.500000e+000 -4.400000e+001
    endloop
  endfacet
  facet normal  0.000000e+000  1.000000e+000  0.000000e+000
    outer loop
      vertex  3.800000e+001  1.500000e+000 -3.800000e+001
      vertex  4.100000e+001  1.500000e+000 -4.400000e+001
      vertex -3.800000e+001  1.500000e+000 -3.800000e+001
    endloop
  endfacet
  facet normal  0.000000e+000  9.999999e-001  0.000000e+000
    outer loop
      vertex -3.800000e+001  1.500000e+000 -3.800000e+001
      vertex  4.100000e+001  1.500000e+000 -4.400000e+001
      vertex -4.100000e+001  1.500000e+000 -4.400000e+001
    endloop
  endfacet
  facet normal  0.000000e+000  1.000000e+000  0.000000e+000
    outer loop
      vertex -3.800000e+001  1.500000e+000 -3.800000e+001
      vertex -4.100000e+001  1.500000e+000 -4.400000e+001
      vertex -4.035000e+001  1.500000e+000 -2.365000e+001
    endloop
  endfacet
  facet normal  0.000000e+000  1.000000e+000  0.000000e+000
    outer loop
      vertex  4.035000e+001  1.500000e+000  2.365000e+001
      vertex  3.800000e+001  1.500000e+000  3.800000e+001
      vertex  4.165000e+001  1.500000e+000  2.365000e+001
    endloop
  endfacet
  facet normal  0.000000e+000  1.000000e+000  0.000000e+000
    outer loop
      vertex  4.165000e+001  1.500000e+000  2.365000e+001
      vertex  3.800000e+001  1.500000e+000  3.800000e+001
      vertex  4.100000e+001  1.500000e+000  4.400000e+001
    endloop
  endfacet
  facet normal  0.000000e+000  9.999999e-001  0.000000e+000
    outer loop
      vertex  4.165000e+001  1.500000e+000  2.365000e+001
      vertex  4.100000e+001  1.500000e+000  4.400000e+001
      vertex  4.400000e+001  1.500000e+000  4.100000e+001
    endloop
  endfacet
  facet normal  0.000000e+000  1.000000e+000  0.000000e+000
    outer loop
      vertex  4.400000e+001  1.500000e+000  4.100000e+001
      vertex  4.100000e+001  1.500000e+000  4.400000e+001
      vertex  4.250000e+001  1.500000e+000  4.359808e+001
    endloop
  endfacet
  facet normal  0.000000e+000  1.000000e+000  0.000000e+000
    outer loop
      vertex  4.400000e+001  1.500000e+000  4.100000e+001
      vertex  4.250000e+001  1.500000e+000  4.359808e+001
      vertex  4.359808e+001  1.500000e+000  4.250000e+001
    endloop
  endfacet
  facet normal  0.000000e+000  9.999999e-001  -0.000000e+000
    outer loop
      vertex  4.100000e+001  1.500000e+000  4.400000e+001
      vertex  3.800000e+001  1.500000e+000  3.800000e+001
      vertex -4.100000e+001  1.500000e+000  4.400000e+001
    endloop
  endfacet
  facet normal  0.000000e+000  1.000000e+000  0.000000e+000
    outer loop
      vertex -4.100000e+001  1.500000e+000  4.400000e+001
      vertex  3.800000e+001  1.500000e+000  3.800000e+001
      vertex -3.800000e+001  1.500000e+000  3.800000e+001
    endloop
  endfacet
  facet normal  0.000000e+000  1.000000e+000  0.000000e+000
    outer loop
      vertex  4.359808e+001  1.500000e+000 -4.250000e+001
      vertex  4.250000e+001  1.500000e+000 -4.359808e+001
      vertex  4.400000e+001  1.500000e+000 -4.100000e+001
    endloop
  endfacet
  facet normal  0.000000e+000  1.000000e+000  0.000000e+000
    outer loop
      vertex  4.400000e+001  1.500000e+000 -4.100000e+001
      vertex  4.250000e+001  1.500000e+000 -4.359808e+001
      vertex  4.100000e+001  1.500000e+000 -4.400000e+001
    endloop
  endfacet
  facet normal  0.000000e+000  9.999999e-001  0.000000e+000
    outer loop
      vertex  4.400000e+001  1.500000e+000 -4.100000e+001
      vertex  4.100000e+001  1.500000e+000 -4.400000e+001
      vertex  4.165000e+001  1.500000e+000 -2.365000e+001
    endloop
  endfacet
  facet normal  0.000000e+000  1.000000e+000  -0.000000e+000
    outer loop
      vertex  4.035000e+001  1.500000e+000 -2.135000e+001
      vertex  4.035000e+001  1.500000e+000 -2.365000e+001
      vertex  3.800000e+001  1.500000e+000  3.800000e+001
    endloop
  endfacet
  facet normal  0.000000e+000  9.999999e-001  0.000000e+000
    outer loop
      vertex  3.800000e+001  1.500000e+000  3.800000e+001
      vertex  4.035000e+001  1.500000e+000 -2.365000e+001
      vertex  3.800000e+001  1.500000e+000 -3.800000e+001
    endloop
  endfacet
  facet normal  -0.000000e+000  9.999999e-001  0.000000e+000
    outer loop
      vertex -3.800000e+001  1.500000e+000 -3.800000e+001
      vertex -4.035000e+001  1.500000e+000 -2.365000e+001
      vertex -3.800000e+001  1.500000e+000  3.800000e+001
    endloop
  endfacet
  facet normal  0.000000e+000  1.000000e+000  0.000000e+000
    outer loop
      vertex -3.800000e+001  1.500000e+000  3.800000e+001
      vertex -4.035000e+001  1.500000e+000 -2.365000e+001
      vertex -4.035000e+001  1.500000e+000 -2.135000e+001
    endloop
  endfacet
  facet normal -1.000000e+000  0.000000e+000  0.000000e+000
    outer loop
      vertex -4.165000e+001  1.500000e+000 -2.365000e+001
      vertex -4.165000e+001  1.500000e+000 -2.135000e+001
      vertex -4.165000e+001  8.500000e+000 -2.365000e+001
    endloop
  endfacet
  facet normal -1.000000e+000  0.000000e+000  0.000000e+000
    outer loop
      vertex -4.165000e+001  8.500000e+000 -2.365000e+001
      vertex -4.165000e+001  1.500000e+000 -2.135000e+001
      vertex -4.165000e+001  8.500000e+000 -2.135000e+001
    endloop
  endfacet
  facet normal  0.000000e+000  0.000000e+000 -1.000000e+000
    outer loop
      vertex -4.165000e+001  1.500000e+000 -2.365000e+001
      vertex -4.165000e+001  8.500000e+000 -2.365000e+001
      vertex -4.035000e+001  1.500000e+000 -2.365000e+001
    endloop
  endfacet
  facet normal  0.000000e+000  0.000000e+000 -1.000000e+000
    outer loop
      vertex -4.035000e+001  1.500000e+000 -2.365000e+001
      vertex -4.165000e+001  8.500000e+000 -2.365000e+001
      vertex -4.035000e+001  8.500000e+000 -2.365000e+001
    endloop
  endfacet
  facet normal  0.000000e+000  0.000000e+000  1.000000e+000
    outer loop
      vertex -4.035000e+001  1.500000e+000 -2.135000e+001
      vertex -4.035000e+001  8.500000e+000 -2.135000e+001
      vertex -4.165000e+001  1.500000e+000 -2.135000e+001
    endloop
  endfacet
  facet normal  0.000000e+000  0.000000e+000  1.000000e+000
    outer loop
      vertex -4.165000e+001  1.500000e+000 -2.135000e+001
      vertex -4.035000e+001  8.500000e+000 -2.135000e+001
      vertex -4.165000e+001  8.500000e+000 -2.135000e+001
    endloop
  endfacet
  facet normal  1.000000e+000  0.000000e+000  0.000000e+000
    outer loop
      vertex -4.035000e+001  1.500000e+000 -2.135000e+001
      vertex -4.035000e+001  1.500000e+000 -2.365000e+001
      vertex -4.035000e+001  8.500000e+000 -2.135000e+001
    endloop
  endfacet
  facet normal  1.000000e+000  0.000000e+000  0.000000e+000
    outer loop
      vertex -4.035000e+001  8.500000e+000 -2.135000e+001
      vertex -4.035000e+001  1.500000e+000 -2.365000e+001
      vertex -4.035000e+001  8.500000e+000 -2.365000e+001
    endloop
  endfacet
  facet normal -1.000000e+000  0.000000e+000  0.000000e+000
    outer loop
      vertex  4.035000e+001  1.500000e+000 -2.365000e+001
      vertex  4.035000e+001  1.500000e+000 -2.135000e+001
      vertex  4.035000e+001  8.500000e+000 -2.365000e+001
    endloop
  endfacet
  facet normal -1.000000e+000  0.000000e+000  0.000000e+000
    outer loop
      vertex  4.035000e+001  8.500000e+000 -2.365000e+001
      vertex  4.035000e+001  1.500000e+000 -2.135000e+001
      vertex  4.035000e+001  8.500000e+000 -2.135000e+001
    endloop
  endfacet
  facet normal  0.000000e+000  0.000000e+000 -1.000000e+000
    outer loop
      vertex  4.035000e+001  1.500000e+000 -2.365000e+001
      vertex  4.035000e+001  8.500000e+000 -2.365000e+001
      vertex  4.165000e+001  1.500000e+000 -2.365000e+001
    endloop
  endfacet
  facet normal  0.000000e+000  0.000000e+000 -1.000000e+000
    outer loop
      vertex  4.165000e+001  1.500000e+000 -2.365000e+001
      vertex  4.035000e+001  8.500000e+000 -2.365000e+001
      vertex  4.165000e+001  8.500000e+000 -2.365000e+001
    endloop
  endfacet
  facet normal  0.000000e+000  0.000000e+000  1.000000e+000
    outer loop
      vertex  4.165000e+001  1.500000e+000 -2.135000e+001
      vertex  4.165000e+001  8.500000e+000 -2.135000e+001
      vertex  4.035000e+001  1.500000e+000 -2.135000e+001
    endloop
  endfacet
  facet normal  0.000000e+000  0.000000e+000  1.000000e+000
    outer loop
      vertex  4.035000e+001  1.500000e+000 -2.135000e+001
      vertex  4.165000e+001  8.500000e+000 -2.135000e+001
      vertex  4.035000e+001  8.500000e+000 -2.135000e+001
    endloop
  endfacet
  facet normal  1.000000e+000  0.000000e+000  0.000000e+000
    outer loop
      vertex  4.165000e+001  1.500000e+000 -2.135000e+001
      vertex  4.165000e+001  1.500000e+000 -2.365000e+001
      vertex  4.165000e+001  8.500000e+000 -2.135000e+001
    endloop
  endfacet
  facet normal  1.000000e+000  0.000000e+000  0.000000e+000
    outer loop
      vertex  4.165000e+001  8.500000e+000 -2.135000e+001
      vertex  4.165000e+001  1.500000e+000 -2.365000e+001
      vertex  4.165000e+001  8.500000e+000 -2.365000e+001
    endloop
  endfacet
  facet normal  0.000000e+000  1.000000e+000  0.000000e+000
    outer loop
      vertex -4.035000e+001  8.500000e+000 -2.365000e+001
      vertex -4.165000e+001  8.500000e+000 -2.365000e+001
      vertex -4.035000e+001  8.500000e+000 -2.135000e+001
    endloop
  endfacet
  facet normal  0.000000e+000  1.000000e+000  0.000000e+000
    outer loop
      vertex -4.035000e+001  8.500000e+000 -2.135000e+001
      vertex -4.165000e+001  8.500000e+000 -2.365000e+001
      vertex -4.165000e+001  8.500000e+000 -2.135000e+001
    endloop
  endfacet
  facet normal  0.000000e+000  1.000000e+000  0.000000e+000
    outer loop
      vertex  4.165000e+001  8.500000e+000 -2.365000e+001
      vertex  4.035000e+001  8.500000e+000 -2.365000e+001
      vertex  4.165000e+001  8.500000e+000 -2.135000e+001
    endloop
  endfacet
  facet normal  0.000000e+000  1.000000e+000  0.000000e+000
    outer loop
      vertex  4.165000e+001  8.500000e+000 -2.135000e+001
      vertex  4.035000e+001  8.500000e+000 -2.365000e+001
      vertex  4.035000e+001  8.500000e+000 -2.135000e+001
    endloop
  endfacet
  facet normal -1.000000e+000  0.000000e+000  0.000000e+000
    outer loop
      vertex  4.035000e+001  1.500000e+000  2.135000e+001
      vertex  4.035000e+001  1.500000e+000  2.365000e+001
      vertex  4.035000e+001  8.500000e+000  2.135000e+001
    endloop
  endfacet
  facet normal -1.000000e+000  0.000000e+000  0.000000e+000
    outer loop
      vertex  4.035000e+001  8.500000e+000  2.135000e+001
      vertex  4.035000e+001  1.500000e+000  2.365000e+001
      vertex  4.035000e+001  8.500000e+000  2.365000e+001
    endloop
  endfacet
  facet normal  0.000000e+000  0.000000e+000 -1.000000e+000
    outer loop
      vertex  4.035000e+001  1.500000e+000  2.135000e+001
      vertex  4.035000e+001  8.500000e+000  2.135000e+001
      vertex  4.165000e+001  1.500000e+000  2.135000e+001
    endloop
  endfacet
  facet normal  0.000000e+000  0.000000e+000 -1.000000e+000
    outer loop
      vertex  4.165000e+001  1.500000e+000  2.135000e+001
      vertex  4.035000e+001  8.500000e+000  2.135000e+001
      vertex  4.165000e+001  8.500000e+000  2.135000e+001
    endloop
  endfacet
  facet normal  0.000000e+000  0.000000e+000  1.000000e+000
    outer loop
      vertex  4.165000e+001  1.500000e+000  2.365000e+001
      vertex  4.165000e+001  8.500000e+000  2.365000e+001
      vertex  4.035000e+001  1.500000e+000  2.365000e+001
    endloop
  endfacet
  facet normal  0.000000e+000  0.000000e+000  1.000000e+000
    outer loop
      vertex  4.035000e+001  1.500000e+000  2.365000e+001
      vertex  4.165000e+001  8.500000e+000  2.365000e+001
      vertex  4.035000e+001  8.500000e+000  2.365000e+001
    endloop
  endfacet
  facet normal  1.000000e+000  0.000000e+000  0.000000e+000
    outer loop
      vertex  4.165000e+001  1.500000e+000  2.365000e+001
      vertex  4.165000e+001  1.500000e+000  2.135000e+001
      vertex  4.165000e+001  8.500000e+000  2.365000e+001
    endloop
  endfacet
  facet normal  1.000000e+000  0.000000e+000  0.000000e+000
    outer loop
      vertex  4.165000e+001  8.500000e+000  2.365000e+001
      vertex  4.165000e+001  1.500000e+000  2.135000e+001
      vertex  4.165000e+001  8.500000e+000  2.135000e+001
    endloop
  endfacet
  facet normal  0.000000e+000  1.000000e+000  0.000000e+000
    outer loop
      vertex  4.165000e+001  8.500000e+000  2.135000e+001
      vertex  4.035000e+001  8.500000e+000  2.135000e+001
      vertex  4.165000e+001  8.500000e+000  2.365000e+001
    endloop
  endfacet
  facet normal  0.000000e+000  1.000000e+000  0.000000e+000
    outer loop
      vertex  4.165000e+001  8.500000e+000  2.365000e+001
      vertex  4.035000e+001  8.500000e+000  2.135000e+001
      vertex  4.035000e+001  8.500000e+000  2.365000e+001
    endloop
  endfacet
  facet normal  0.000000e+000  0.000000e+000  1.000000e+000
    outer loop
      vertex -4.035000e+001  1.500000e+000  2.365000e+001
      vertex -4.035000e+001  8.500000e+000  2.365000e+001
      vertex -4.165000e+001  1.500000e+000  2.365000e+001
    endloop
  endfacet
  facet normal  0.000000e+000  0.000000e+000  1.000000e+000
    outer loop
      vertex -4.165000e+001  1.500000e+000  2.365000e+001
      vertex -4.035000e+001  8.500000e+000  2.365000e+001
      vertex -4.165000e+001  8.500000e+000  2.365000e+001
    endloop
  endfacet
  facet normal -1.000000e+000  0.000000e+000  0.000000e+000
    outer loop
      vertex -4.165000e+001  1.500000e+000  2.135000e+001
      vertex -4.165000e+001  1.500000e+000  2.365000e+001
      vertex -4.165000e+001  8.500000e+000  2.135000e+001
    endloop
  endfacet
  facet normal -1.000000e+000  0.000000e+000  0.000000e+000
    outer loop
      vertex -4.165000e+001  8.500000e+000  2.135000e+001
      vertex -4.165000e+001  1.500000e+000  2.365000e+001
      vertex -4.165000e+001  8.500000e+000  2.365000e+001
    endloop
  endfacet
  facet normal  0.000000e+000  0.000000e+000 -1.000000e+000
    outer loop
      vertex -4.165000e+001  1.500000e+000  2.135000e+001
      vertex -4.165000e+001  8.500000e+000  2.135000e+001
      vertex -4.035000e+001  1.500000e+000  2.135000e+001
    endloop
  endfacet
  facet normal  0.000000e+000  0.000000e+000 -1.000000e+000
    outer loop
      vertex -4.035000e+001  1.500000e+000  2.135000e+001
      vertex -4.165000e+001  8.500000e+000  2.135000e+001
      vertex -4.035000e+001  8.500000e+000  2.135000e+001
    endloop
  endfacet
  facet normal  1.000000e+000  0.000000e+000  0.000000e+000
    outer loop
      vertex -4.035000e+001  1.500000e+000  2.365000e+001
      vertex -4.035000e+001  1.500000e+000  2.135000e+001
      vertex -4.035000e+001  8.500000e+000  2.365000e+001
    endloop
  endfacet
  facet normal  1.000000e+000  0.000000e+000  0.000000e+000
    outer loop
      vertex -4.035000e+001  8.500000e+000  2.365000e+001
      vertex -4.035000e+001  1.500000e+000  2.135000e+001
      vertex -4.035000e+001  8.500000e+000  2.135000e+001
    endloop
  endfacet
  facet normal  0.000000e+000  1.000000e+000  0.000000e+000
    outer loop
      vertex -4.035000e+001  8.500000e+000  2.135000e+001
      vertex -4.165000e+001  8.500000e+000  2.135000e+001
      vertex -4.035000e+001  8.500000e+000  2.365000e+001
    endloop
  endfacet
  facet normal  0.000000e+000  1.000000e+000  0.000000e+000
    outer loop
      vertex -4.035000e+001  8.500000e+000  2.365000e+001
      vertex -4.165000e+001  8.500000e+000  2.135000e+001
      vertex -4.165000e+001  8.500000e+000  2.365000e+001
    endloop
  endfacet
  facet normal  -0.000000e+000 -1.000000e+000  -0.000000e+000
    outer loop
      vertex -3.800000e+001  0.000000e+000 -3.800000e+001
      vertex -3.800000e+001  0.000000e+000  3.800000e+001
      vertex -4.400000e+001  0.000000e+000  4.100000e+001
    endloop
  endfacet
  facet normal  0.000000e+000 -9.999999e-001  0.000000e+000
    outer loop
      vertex -3.800000e+001  0.000000e+000 -3.800000e+001
      vertex -4.400000e+001  0.000000e+000  4.100000e+001
      vertex -4.400000e+001  0.000000e+000 -4.100000e+001
    endloop
  endfacet
  facet normal  0.000000e+000 -1.000000e+000  0.000000e+000
    outer loop
      vertex -3.800000e+001  0.000000e+000 -3.800000e+001
      vertex -4.400000e+001  0.000000e+000 -4.100000e+001
      vertex -4.359808e+001  0.000000e+000 -4.250000e+001
    endloop
  endfacet
  facet normal  0.000000e+000 -1.000000e+000  0.000000e+000
    outer loop
      vertex -3.800000e+001  0.000000e+000 -3.800000e+001
      vertex -4.359808e+001  0.000000e+000 -4.250000e+001
      vertex -4.250000e+001  0.000000e+000 -4.359808e+001
    endloop
  endfacet
  facet normal  0.000000e+000 -1.000000e+000  0.000000e+000
    outer loop
      vertex -3.800000e+001  0.000000e+000 -3.800000e+001
      vertex -4.250000e+001  0.000000e+000 -4.359808e+001
      vertex -4.100000e+001  0.000000e+000 -4.400000e+001
    endloop
  endfacet
  facet normal  0.000000e+000 -1.000000e+000  0.000000e+000
    outer loop
      vertex  4.359808e+001  0.000000e+000 -4.250000e+001
      vertex  4.400000e+001  0.000000e+000 -4.100000e+001
      vertex  4.250000e+001  0.000000e+000 -4.359808e+001
    endloop
  endfacet
  facet normal  0.000000e+000 -1.000000e+000  0.000000e+000
    outer loop
      vertex  4.250000e+001  0.000000e+000 -4.359808e+001
      vertex  4.400000e+001  0.000000e+000 -4.100000e+001
      vertex  3.800000e+001  0.000000e+000 -3.800000e+001
    endloop
  endfacet
  facet normal  0.000000e+000 -1.000000e+000  0.000000e+000
    outer loop
      vertex  4.250000e+001  0.000000e+000 -4.359808e+001
      vertex  3.800000e+001  0.000000e+000 -3.800000e+001
      vertex  4.100000e+001  0.000000e+000 -4.400000e+001
    endloop
  endfacet
  facet normal  0.000000e+000 -1.000000e+000  0.000000e+000
    outer loop
      vertex  4.100000e+001  0.000000e+000 -4.400000e+001
      vertex  3.800000e+001  0.000000e+000 -3.800000e+001
      vertex -3.800000e+001  0.000000e+000 -3.800000e+001
    endloop
  endfacet
  facet normal  0.000000e+000 -9.999999e-001  -0.000000e+000
    outer loop
      vertex  4.100000e+001  0.000000e+000 -4.400000e+001
      vertex -3.800000e+001  0.000000e+000 -3.800000e+001
      vertex -4.100000e+001  0.000000e+000 -4.400000e+001
    endloop
  endfacet
  facet normal  -0.000000e+000 -1.000000e+000  0.000000e+000
    outer loop
      vertex  3.800000e+001  0.000000e+000  3.800000e+001
      vertex  4.400000e+001  0.000000e+000  4.100000e+001
      vertex  4.100000e+001  0.000000e+000  4.400000e+001
    endloop
  endfacet
  facet normal  0.000000e+000 -1.000000e+000  0.000000e+000
    outer loop
      vertex  4.100000e+001  0.000000e+000  4.400000e+001
      vertex  4.400000e+001  0.000000e+000  4.100000e+001
      vertex  4.359808e+001  0.000000e+000  4.250000e+001
    endloop
  endfacet
  facet normal  0.000000e+000 -1.000000e+000  0.000000e+000
    outer loop
      vertex  4.100000e+001  0.000000e+000  4.400000e+001
      vertex  4.359808e+001  0.000000e+000  4.250000e+001
      vertex  4.250000e+001  0.000000e+000  4.359808e+001
    endloop
  endfacet
  facet normal  0.000000e+000 -1.000000e+000  0.000000e+000
    outer loop
      vertex -4.250000e+001  0.000000e+000  4.359808e+001
      vertex -3.800000e+001  0.000000e+000  3.800000e+001
      vertex -4.100000e+001  0.000000e+000  4.400000e+001
    endloop
  endfacet
  facet normal  0.000000e+000 -1.000000e+000  0.000000e+000
    outer loop
      vertex -4.100000e+001  0.000000e+000  4.400000e+001
      vertex -3.800000e+001  0.000000e+000  3.800000e+001
      vertex  3.800000e+001  0.000000e+000  3.800000e+001
    endloop
  endfacet
  facet normal  0.000000e+000 -9.999999e-001  0.000000e+000
    outer loop
      vertex -4.100000e+001  0.000000e+000  4.400000e+001
      vertex  3.800000e+001  0.000000e+000  3.800000e+001
      vertex  4.100000e+001  0.000000e+000  4.400000e+001
    endloop
  endfacet
  facet normal  0.000000e+000 -1.000000e+000  0.000000e+000
    outer loop
      vertex -4.359808e+001  0.000000e+000  4.250000e+001
      vertex -4.400000e+001  0.000000e+000  4.100000e+001
      vertex -4.250000e+001  0.000000e+000  4.359808e+001
    endloop
  endfacet
  facet normal  0.000000e+000 -1.000000e+000  -0.000000e+000
    outer loop
      vertex -4.250000e+001  0.000000e+000  4.359808e+001
      vertex -4.400000e+001  0.000000e+000  4.100000e+001
      vertex -3.800000e+001  0.000000e+000  3.800000e+001
    endloop
  endfacet
  facet normal  0.000000e+000 -1.000000e+000  0.000000e+000
    outer loop
      vertex  3.800000e+001  0.000000e+000 -3.800000e+001
      vertex  4.400000e+001  0.000000e+000 -4.100000e+001
      vertex  3.800000e+001  0.000000e+000  3.800000e+001
    endloop
  endfacet
  facet normal  0.000000e+000 -9.999999e-001  0.000000e+000
    outer loop
      vertex  3.800000e+001  0.000000e+000  3.800000e+001
      vertex  4.400000e+001  0.000000e+000 -4.100000e+001
      vertex  4.400000e+001  0.000000e+000  4.100000e+001
    endloop
  endfacet
  facet normal  -0.000000e+000  0.000000e+000 -9.999999e-001
    outer loop
      vertex -4.100000e+001  1.500000e+000 -4.400000e+001
      vertex  4.100000e+001  1.500000e+000 -4.400000e+001
      vertex -4.100000e+001  0.000000e+000 -4.400000e+001
    endloop
  endfacet
  facet normal  0.000000e+000  0.000000e+000 -9.999999e-001
    outer loop
      vertex -4.100000e+001  0.000000e+000 -4.400000e+001
      vertex  4.100000e+001  1.500000e+000 -4.400000e+001
      vertex  4.100000e+001  0.000000e+000 -4.400000e+001
    endloop
  endfacet
  facet normal  9.999999e-001  -0.000000e+000  0.000000e+000
    outer loop
      vertex  4.400000e+001  1.500000e+000  4.100000e+001
      vertex  4.400000e+001  0.000000e+000  4.100000e+001
      vertex  4.400000e+001  1.500000e+000 -4.100000e+001
    endloop
  endfacet
  facet normal  9.999999e-001  0.000000e+000  0.000000e+000
    outer loop
      vertex  4.400000e+001  1.500000e+000 -4.100000e+001
      vertex  4.400000e+001  0.000000e+000  4.100000e+001
      vertex  4.400000e+001  0.000000e+000 -4.100000e+001
    endloop
  endfacet
  facet normal  2.588192e-001  0.000000e+000 -9.659257e-001
    outer loop
      vertex  4.100000e+001  0.000000e+000 -4.400000e+001
      vertex  4.100000e+001  1.500000e+000 -4.400000e+001
      vertex  4.250000e+001  0.000000e+000 -4.359808e+001
    endloop
  endfacet
  facet normal  2.588192e-001  0.000000e+000 -9.659257e-001
    outer loop
      vertex  4.250000e+001  0.000000e+000 -4.359808e+001
      vertex  4.100000e+001  1.500000e+000 -4.400000e+001
      vertex  4.250000e+001  1.500000e+000 -4.359808e+001
    endloop
  endfacet
  facet normal  7.071068e-001  0.000000e+000 -7.071068e-001
    outer loop
      vertex  4.250000e+001  0.000000e+000 -4.359808e+001
      vertex  4.250000e+001  1.500000e+000 -4.359808e+001
      vertex  4.359808e+001  0.000000e+000 -4.250000e+001
    endloop
  endfacet
  facet normal  7.071068e-001  0.000000e+000 -7.071068e-001
    outer loop
      vertex  4.359808e+001  0.000000e+000 -4.250000e+001
      vertex  4.250000e+001  1.500000e+000 -4.359808e+001
      vertex  4.359808e+001  1.500000e+000 -4.250000e+001
    endloop
  endfacet
  facet normal  9.659257e-001  0.000000e+000 -2.588192e-001
    outer loop
      vertex  4.359808e+001  0.000000e+000 -4.250000e+001
      vertex  4.359808e+001  1.500000e+000 -4.250000e+001
      vertex  4.400000e+001  0.000000e+000 -4.100000e+001
    endloop
  endfacet
  facet normal  9.659257e-001  0.000000e+000 -2.588192e-001
    outer loop
      vertex  4.400000e+001  0.000000e+000 -4.100000e+001
      vertex  4.359808e+001  1.500000e+000 -4.250000e+001
      vertex  4.400000e+001  1.500000e+000 -4.100000e+001
    endloop
  endfacet
  facet normal -9.999999e-001  0.000000e+000  0.000000e+000
    outer loop
      vertex -4.400000e+001  1.500000e+000 -4.100000e+001
      vertex -4.400000e+001  0.000000e+000 -4.100000e+001
      vertex -4.400000e+001  1.500000e+000  4.100000e+001
    endloop
  endfacet
  facet normal -9.999999e-001  -0.000000e+000  0.000000e+000
    outer loop
      vertex -4.400000e+001  1.500000e+000  4.100000e+001
      vertex -4.400000e+001  0.000000e+000 -4.100000e+001
      vertex -4.400000e+001  0.000000e+000  4.100000e+001
    endloop
  endfacet
  facet normal -9.659257e-001  -0.000000e+000 -2.588192e-001
    outer loop
      vertex -4.400000e+001  0.000000e+000 -4.100000e+001
      vertex -4.400000e+001  1.500000e+000 -4.100000e+001
      vertex -4.359808e+001  0.000000e+000 -4.250000e+001
    endloop
  endfacet
  facet normal -9.659257e-001  0.000000e+000 -2.588192e-001
    outer loop
      vertex -4.359808e+001  0.000000e+000 -4.250000e+001
      vertex -4.400000e+001  1.500000e+000 -4.100000e+001
      vertex -4.359808e+001  1.500000e+000 -4.250000e+001
    endloop
  endfacet
  facet normal -7.071068e-001  -0.000000e+000 -7.071068e-001
    outer loop
      vertex -4.359808e+001  0.000000e+000 -4.250000e+001
      vertex -4.359808e+001  1.500000e+000 -4.250000e+001
      vertex -4.250000e+001  0.000000e+000 -4.359808e+001
    endloop
  endfacet
  facet normal -7.071068e-001  0.000000e+000 -7.071068e-001
    outer loop
      vertex -4.250000e+001  0.000000e+000 -4.359808e+001
      vertex -4.359808e+001  1.500000e+000 -4.250000e+001
      vertex -4.250000e+001  1.500000e+000 -4.359808e+001
    endloop
  endfacet
  facet normal -2.588192e-001  -0.000000e+000 -9.659257e-001
    outer loop
      vertex -4.250000e+001  0.000000e+000 -4.359808e+001
      vertex -4.250000e+001  1.500000e+000 -4.359808e+001
      vertex -4.100000e+001  0.000000e+000 -4.400000e+001
    endloop
  endfacet
  facet normal -2.588192e-001  0.000000e+000 -9.659257e-001
    outer loop
      vertex -4.100000e+001  0.000000e+000 -4.400000e+001
      vertex -4.250000e+001  1.500000e+000 -4.359808e+001
      vertex -4.100000e+001  1.500000e+000 -4.400000e+001
    endloop
  endfacet
  facet normal  -0.000000e+000  0.000000e+000  9.999999e-001
    outer loop
      vertex  4.100000e+001  1.500000e+000  4.400000e+001
      vertex -4.100000e+001  1.500000e+000  4.400000e+001
      vertex  4.100000e+001  0.000000e+000  4.400000e+001
    endloop
  endfacet
  facet normal  0.000000e+000  0.000000e+000  9.999999e-001
    outer loop
      vertex  4.100000e+001  0.000000e+000  4.400000e+001
      vertex -4.100000e+001  1.500000e+000  4.400000e+001
      vertex -4.100000e+001  0.000000e+000  4.400000e+001
    endloop
  endfacet
  facet normal -2.588192e-001  0.000000e+000  9.659257e-001
    outer loop
      vertex -4.100000e+001  0.000000e+000  4.400000e+001
      vertex -4.100000e+001  1.500000e+000  4.400000e+001
      vertex -4.250000e+001  0.000000e+000  4.359808e+001
    endloop
  endfacet
  facet normal -2.588192e-001  0.000000e+000  9.659257e-001
    outer loop
      vertex -4.250000e+001  0.000000e+000  4.359808e+001
      vertex -4.100000e+001  1.500000e+000  4.400000e+001
      vertex -4.250000e+001  1.500000e+000  4.359808e+001
    endloop
  endfacet
  facet normal -7.071068e-001  0.000000e+000  7.071068e-001
    outer loop
      vertex -4.250000e+001  0.000000e+000  4.359808e+001
      vertex -4.250000e+001  1.500000e+000  4.359808e+001
      vertex -4.359808e+001  0.000000e+000  4.250000e+001
    endloop
  endfacet
  facet normal -7.071068e-001  0.000000e+000  7.071068e-001
    outer loop
      vertex -4.359808e+001  0.000000e+000  4.250000e+001
      vertex -4.250000e+001  1.500000e+000  4.359808e+001
      vertex -4.359808e+001  1.500000e+000  4.250000e+001
    endloop
  endfacet
  facet normal -9.659257e-001  0.000000e+000  2.588192e-001
    outer loop
      vertex -4.359808e+001  0.000000e+000  4.250000e+001
      vertex -4.359808e+001  1.500000e+000  4.250000e+001
      vertex -4.400000e+001  0.000000e+000  4.100000e+001
    endloop
  endfacet
  facet normal -9.659257e-001  0.000000e+000  2.588192e-001
    outer loop
      vertex -4.400000e+001  0.000000e+000  4.100000e+001
      vertex -4.359808e+001  1.500000e+000  4.250000e+001
      vertex -4.400000e+001  1.500000e+000  4.100000e+001
    endloop
  endfacet
  facet normal  9.659257e-001  0.000000e+000  2.588192e-001
    outer loop
      vertex  4.400000e+001  0.000000e+000  4.100000e+001
      vertex  4.400000e+001  1.500000e+000  4.100000e+001
      vertex  4.359808e+001  0.000000e+000  4.250000e+001
    endloop
  endfacet
  facet normal  9.659257e-001  -0.000000e+000  2.588192e-001
    outer loop
      vertex  4.359808e+001  0.000000e+000  4.250000e+001
      vertex  4.400000e+001  1.500000e+000  4.100000e+001
      vertex  4.359808e+001  1.500000e+000  4.250000e+001
    endloop
  endfacet
  facet normal  7.071068e-001  0.000000e+000  7.071068e-001
    outer loop
      vertex  4.359808e+001  0.000000e+000  4.250000e+001
      vertex  4.359808e+001  1.500000e+000  4.250000e+001
      vertex  4.250000e+001  0.000000e+000  4.359808e+001
    endloop
  endfacet
  facet normal  7.071068e-001  -0.000000e+000  7.071068e-001
    outer loop
      vertex  4.250000e+001  0.000000e+000  4.359808e+001
      vertex  4.359808e+001  1.500000e+000  4.250000e+001
      vertex  4.250000e+001  1.500000e+000  4.359808e+001
    endloop
  endfacet
  facet normal  2.588192e-001  0.000000e+000  9.659257e-001
    outer loop
      vertex  4.250000e+001  0.000000e+000  4.359808e+001
      vertex  4.250000e+001  1.500000e+000  4.359808e+001
      vertex  4.100000e+001  0.000000e+000  4.400000e+001
    endloop
  endfacet
  facet normal  2.588192e-001  -0.000000e+000  9.659257e-001
    outer loop
      vertex  4.100000e+001  0.000000e+000  4.400000e+001
      vertex  4.250000e+001  1.500000e+000  4.359808e+001
      vertex  4.100000e+001  1.500000e+000  4.400000e+001
    endloop
  endfacet
  facet normal -1.000000e+000  0.000000e+000  0.000000e+000
    outer loop
      vertex  3.800000e+001  1.500000e+000  3.800000e+001
      vertex  3.800000e+001  1.500000e+000 -3.800000e+001
      vertex  3.800000e+001  0.000000e+000  3.800000e+001
    endloop
  endfacet
  facet normal -1.000000e+000  0.000000e+000  0.000000e+000
    outer loop
      vertex  3.800000e+001  0.000000e+000  3.800000e+001
      vertex  3.800000e+001  1.500000e+000 -3.800000e+001
      vertex  3.800000e+001  0.000000e+000 -3.800000e+001
    endloop
  endfacet
  facet normal  0.000000e+000  0.000000e+000  1.000000e+000
    outer loop
      vertex -3.800000e+001  1.500000e+000 -3.800000e+001
      vertex -3.800000e+001  0.000000e+000 -3.800000e+001
      vertex  3.800000e+001  1.500000e+000 -3.800000e+001
    endloop
  endfacet
  facet normal  0.000000e+000  0.000000e+000  1.000000e+000
    outer loop
      vertex  3.800000e+001  1.500000e+000 -3.800000e+001
      vertex -3.800000e+001  0.000000e+000 -3.800000e+001
      vertex  3.800000e+001  0.000000e+000 -3.800000e+001
    endloop
  endfacet
  facet normal  1.000000e+000  0.000000e+000  0.000000e+000
    outer loop
      vertex -3.800000e+001  1.500000e+000 -3.800000e+001
      vertex -3.800000e+001  1.500000e+000  3.800000e+001
      vertex -3.800000e+001  0.000000e+000 -3.800000e+001
    endloop
  endfacet
  facet normal  1.000000e+000  0.000000e+000  0.000000e+000
    outer loop
      vertex -3.800000e+001  0.000000e+000 -3.800000e+001
      vertex -3.800000e+001  1.500000e+000  3.800000e+001
      vertex -3.800000e+001  0.000000e+000  3.800000e+001
    endloop
  endfacet
  facet normal  0.000000e+000  0.000000e+000 -1.000000e+000
    outer loop
      vertex  3.800000e+001  1.500000e+000  3.800000e+001
      vertex  3.800000e+001  0.000000e+000  3.800000e+001
      vertex -3.800000e+001  1.500000e+000  3.800000e+001
    endloop
  endfacet
  facet normal  0.000000e+000  0.000000e+000 -1.000000e+000
    outer loop
      vertex -3.800000e+001  1.500000e+000  3.800000e+001
      vertex  3.800000e+001  0.000000e+000  3.800000e+001
      vertex -3.800000e+001  0.000000e+000  3.800000e+001
    endloop
  endfacet
endsolid CATIA STL
