  0
SECTION
  2
HEADER
  9
$ACADVER
  1
AC1015
  9
$ACADMAINTVER
 70
     6
  9
$DWGCODEPAGE
  3
ANSI_1252
  9
$INSBASE
 10
0.0
 20
0.0
 30
0.0
  9
$EXTMIN
 10
0.0
 20
0.0
 30
0.0
  9
$EXTMAX
 10
122.340378
 20
111.0
 30
2.0
  9
$LIMMIN
 10
0.0
 20
0.0
  9
$LIMMAX
 10
420.0
 20
297.0
  9
$ORTHOMODE
 70
     0
  9
$REGENMODE
 70
     1
  9
$FILLMODE
 70
     1
  9
$QTEXTMODE
 70
     0
  9
$MIRRTEXT
 70
     1
  9
$LTSCALE
 40
1.0
  9
$ATTMODE
 70
     1
  9
$TEXTSIZE
 40
2.5
  9
$TRACEWID
 40
1.0
  9
$TEXTSTYLE
  7
Standard
  9
$CLAYER
  8
0
  9
$CELTYPE
  6
ByLayer
  9
$CECOLOR
 62
   256
  9
$CELTSCALE
 40
1.0
  9
$DISPSILH
 70
     0
  9
$DIMSCALE
 40
1.0
  9
$DIMASZ
 40
2.5
  9
$DIMEXO
 40
0.625
  9
$DIMDLI
 40
3.75
  9
$DIMRND
 40
0.0
  9
$DIMDLE
 40
0.0
  9
$DIMEXE
 40
1.25
  9
$DIMTP
 40
0.0
  9
$DIMTM
 40
0.0
  9
$DIMTXT
 40
2.5
  9
$DIMCEN
 40
2.5
  9
$DIMTSZ
 40
0.0
  9
$DIMTOL
 70
     0
  9
$DIMLIM
 70
     0
  9
$DIMTIH
 70
     0
  9
$DIMTOH
 70
     0
  9
$DIMSE1
 70
     0
  9
$DIMSE2
 70
     0
  9
$DIMTAD
 70
     1
  9
$DIMZIN
 70
     8
  9
$DIMBLK
  1

  9
$DIMASO
 70
     1
  9
$DIMSHO
 70
     1
  9
$DIMPOST
  1

  9
$DIMAPOST
  1

  9
$DIMALT
 70
     0
  9
$DIMALTD
 70
     3
  9
$DIMALTF
 40
0.03937
  9
$DIMLFAC
 40
1.0
  9
$DIMTOFL
 70
     1
  9
$DIMTVP
 40
0.0
  9
$DIMTIX
 70
     0
  9
$DIMSOXD
 70
     0
  9
$DIMSAH
 70
     0
  9
$DIMBLK1
  1

  9
$DIMBLK2
  1

  9
$DIMSTYLE
  2

  9
$DIMCLRD
 70
     0
  9
$DIMCLRE
 70
     0
  9
$DIMCLRT
 70
     0
  9
$DIMTFAC
 40
1.0
  9
$DIMGAP
 40
0.625
  9
$DIMJUST
 70
     0
  9
$DIMSD1
 70
     0
  9
$DIMSD2
 70
     0
  9
$DIMTOLJ
 70
     0
  9
$DIMTZIN
 70
     8
  9
$DIMALTZ
 70
     0
  9
$DIMALTTZ
 70
     0
  9
$DIMUPT
 70
     0
  9
$DIMDEC
 70
     2
  9
$DIMTDEC
 70
     2
  9
$DIMALTU
 70
     2
  9
$DIMALTTD
 70
     3
  9
$DIMTXSTY
  7
Standard
  9
$DIMAUNIT
 70
     0
  9
$DIMADEC
 70
     0
  9
$DIMALTRND
 40
0.0
  9
$DIMAZIN
 70
     0
  9
$DIMDSEP
 70
    44
  9
$DIMATFIT
 70
     0
  9
$DIMFRAC
 70
     0
  9
$DIMLDRBLK
  1

  9
$DIMLUNIT
 70
     2
  9
$DIMLWD
 70
    -2
  9
$DIMLWE
 70
    -2
  9
$DIMTMOVE
 70
     0
  9
$LUNITS
 70
     2
  9
$LUPREC
 70
     4
  9
$SKETCHINC
 40
1.0
  9
$FILLETRAD
 40
2.5
  9
$AUNITS
 70
     0
  9
$AUPREC
 70
     0
  9
$MENU
  1
.
  9
$ELEVATION
 40
0.0
  9
$PELEVATION
 40
0.0
  9
$THICKNESS
 40
0.0
  9
$LIMCHECK
 70
     0
  9
$CHAMFERA
 40
2.5
  9
$CHAMFERB
 40
2.5
  9
$CHAMFERC
 40
0.0
  9
$CHAMFERD
 40
0.0
  9
$SKPOLY
 70
     0
  9
$TDCREATE
 40
0.000000000
  9
$TDUCREATE
 40
0.000000000
  9
$TDUPDATE
 40
0.000000000
  9
$TDUUPDATE
 40
0.000000000
  9
$TDINDWG
 40
0.0000000000
  9
$TDUSRTIMER
 40
0.0000000000
  9
$USRTIMER
 70
     1
  9
$ANGBASE
 50
0.0
  9
$ANGDIR
 70
     0
  9
$PDMODE
 70
     0
  9
$PDSIZE
 40
0.0
  9
$PLINEWID
 40
0.0
  9
$SPLFRAME
 70
     0
  9
$SPLINETYPE
 70
     6
  9
$SPLINESEGS
 70
     8
  9
$HANDSEED
  5
281
  9
$SURFTAB1
 70
     6
  9
$SURFTAB2
 70
     6
  9
$SURFTYPE
 70
     6
  9
$SURFU
 70
     6
  9
$SURFV
 70
     6
  9
$UCSBASE
  2

  9
$UCSNAME
  2

  9
$UCSORG
 10
0.0
 20
0.0
 30
0.0
  9
$UCSXDIR
 10
1.0
 20
0.0
 30
0.0
  9
$UCSYDIR
 10
0.0
 20
1.0
 30
0.0
  9
$UCSORTHOREF
  2

  9
$UCSORTHOVIEW
 70
     1
  9
$UCSORGTOP
 10
0.0
 20
0.0
 30
0.0
  9
$UCSORGBOTTOM
 10
0.0
 20
0.0
 30
0.0
  9
$UCSORGLEFT
 10
0.0
 20
0.0
 30
0.0
  9
$UCSORGRIGHT
 10
0.0
 20
0.0
 30
0.0
  9
$UCSORGFRONT
 10
0.0
 20
0.0
 30
0.0
  9
$UCSORGBACK
 10
0.0
 20
0.0
 30
0.0
  9
$PUCSBASE
  2

  9
$PUCSNAME
  2

  9
$PUCSORG
 10
0.0
 20
0.0
 30
0.0
  9
$PUCSXDIR
 10
1.0
 20
0.0
 30
0.0
  9
$PUCSYDIR
 10
0.0
 20
1.0
 30
0.0
  9
$PUCSORTHOREF
  2

  9
$PUCSORTHOVIEW
 70
     0
  9
$PUCSORGTOP
 10
0.0
 20
0.0
 30
0.0
  9
$PUCSORGBOTTOM
 10
0.0
 20
0.0
 30
0.0
  9
$PUCSORGLEFT
 10
0.0
 20
0.0
 30
0.0
  9
$PUCSORGRIGHT
 10
0.0
 20
0.0
 30
0.0
  9
$PUCSORGFRONT
 10
0.0
 20
0.0
 30
0.0
  9
$PUCSORGBACK
 10
0.0
 20
0.0
 30
0.0
  9
$USERI1
 70
     0
  9
$USERI2
 70
     0
  9
$USERI3
 70
     0
  9
$USERI4
 70
     0
  9
$USERI5
 70
     0
  9
$USERR1
 40
0.0
  9
$USERR2
 40
0.0
  9
$USERR3
 40
0.0
  9
$USERR4
 40
0.0
  9
$USERR5
 40
0.0
  9
$WORLDVIEW
 70
     1
  9
$SHADEDGE
 70
     3
  9
$SHADEDIF
 70
    70
  9
$TILEMODE
 70
     1
  9
$MAXACTVP
 70
    48
  9
$PINSBASE
 10
0.0
 20
0.0
 30
0.0
  9
$PLIMCHECK
 70
     0
  9
$PEXTMIN
 10
0.0
 20
0.0
 30
0.0
  9
$PEXTMAX
 10
122.340378
 20
111.0
 30
2.0
  9
$PLIMMIN
 10
0.0
 20
0.0
  9
$PLIMMAX
 10
420.0
 20
297.0
  9
$UNITMODE
 70
     0
  9
$VISRETAIN
 70
     0
  9
$PLINEGEN
 70
     0
  9
$PSLTSCALE
 70
     1
  9
$TREEDEPTH
 70
  3020
  9
$CMLSTYLE
  2
Standard
  9
$CMLJUST
 70
     0
  9
$CMLSCALE
 40
20.0
  9
$PROXYGRAPHICS
 70
     1
  9
$MEASUREMENT
 70
     1
  9
$CELWEIGHT
370
    -1
  9
$ENDCAPS
280
     0
  9
$JOINSTYLE
280
     0
  9
$LWDISPLAY
290
     0
  9
$INSUNITS
 70
     0
  9
$HYPERLINKBASE
  1

  9
$STYLESHEET
  1

  9
$XEDIT
290
     1
  9
$CEPSNTYPE
380
     0
  9
$PSTYLEMODE
290
     0
  9
$FINGERPRINTGUID
  2

  9
$VERSIONGUID
  2

  9
$EXTNAMES
290
     0
  9
$PSVPSCALE
 40
0.0
  0
ENDSEC
  0
SECTION
  2
CLASSES
  0
CLASS
  1
LWPOLYLINE
  2
AcDbPolyline
  3
AutoCAD 2000
 90
        0
280
     0
281
     1
  0
CLASS
  1
IMAGE
  2
AcDbRasterImage
  3
ISM
 90
      127
280
     0
281
     1
  0
CLASS
  1
OLE2FRAME
  2
AcDbOle2Frame
  3
AutoCAD 2000
 90
        0
280
     0
281
     1
  0
CLASS
  1
HATCH
  2
AcDbHatch
  3
AutoCAD 2000
 90
        0
280
     0
281
     1
  0
CLASS
  1
DICTIONARYVAR
  2
AcDbDictionaryVar
  3
AutoCAD 2000
 90
        0
280
     0
281
     0
  0
CLASS
  1
RASTERVARIABLES
  2
AcDbRasterVariables
  3
ISM
 90
        0
280
     0
281
     0
  0
CLASS
  1
IMAGEDEF
  2
AcDbRasterImageDef
  3
ISM
 90
        0
280
     0
281
     0
  0
CLASS
  1
IMAGEDEF_REACTOR
  2
AcDbRasterImageDefReactor
  3
ISM
 90
        1
280
     0
281
     0
  0
CLASS
  1
IDBUFFER
  2
AcDbIdBuffer
  3
AutoCAD 2000
 90
        0
280
     0
281
     0
  0
CLASS
  1
SPATIAL_FILTER
  2
AcDbSpatialFilter
  3
AutoCAD 2000
 90
        0
280
     0
281
     0
  0
CLASS
  1
XRECORD
  2
AcDbXrecord
  3
AutoCAD 2000
 90
        0
280
     0
281
     0
  0
CLASS
  1
SORTENTSTABLE
  2
AcDbSortentsTable
  3
AutoCAD 2000
 90
        0
280
     0
281
     0
  0
CLASS
  1
LAYER_INDEX
  2
AcDbLayerIndex
  3
AutoCAD 2000
 90
        0
280
     0
281
     0
  0
CLASS
  1
SPATIAL_INDEX
  2
AcDbSpatialIndex
  3
AutoCAD 2000
 90
        0
280
     0
281
     0
  0
CLASS
  1
OBJECT_PTR
  2
CAseDLPNTableRecord
  3
"ASE-LPNTableRecord"
 90
        1
280
     0
281
     0
  0
CLASS
  1
LAYOUT
  2
AcDbLayout
  3
AutoCAD 2000
 90
        0
280
     0
281
     0
  0
CLASS
  1
PLOTSETTINGS
  2
AcDbPlotSettings
  3
AutoCAD 2000
 90
        0
280
     0
281
     0
  0
CLASS
  1
ACDBDICTIONARYWDFLT
  2
AcDbDictionaryWithDefault
  3
AutoCAD 2000
 90
        0
280
     0
281
     0
  0
CLASS
  1
ACDBPLACEHOLDER
  2
AcDbPlaceHolder
  3
AutoCAD 2000
 90
        0
280
     0
281
     0
  0
CLASS
  1
VBA_PROJECT
  2
AcDbVbaProject
  3
acadvba
 90
        0
280
     0
281
     0
  0
CLASS
  1
WIPEOUT
  2
AcDbWipeout
  3
WipeOut|AutoCAD Express Tool|expresstools@autodesk.com
 90
      127
280
     0
281
     1
  0
CLASS
  1
WIPEOUTVARIABLES
  2
AcDbWipeoutVariables
  3
WipeOut|AutoCAD Express Tool|expresstools@autodesk.com
 90
        0
280
     0
281
     0
  0
CLASS
  1
RTEXT
  2
RText
  3
RText|AutoCAD Express Tool|expresstools@autodesk.com
 90
        0
280
     0
281
     1
  0
CLASS
  1
ARCALIGNEDTEXT
  2
AcDbArcAlignedText
  3
ATEXT|AutoCAD Express Tool|expresstools@autodesk.com
 90
        0
280
     0
281
     1
  0
ENDSEC
  0
SECTION
  2
TABLES
  0
TABLE
  2
VPORT
  5
7
100
AcDbSymbolTable
 70
     1
  0
VPORT
  5
15
100
AcDbSymbolTableRecord
100
AcDbViewportTableRecord
  2
*ACTIVE
 70
     0
 10
0.0
 20
0.0
 11
1.0
 21
1.0
 12
6.591288
 22
4.579184
 13
0.0
 23
0.0
 14
1.0
 24
1.0
 15
0.0
 25
0.0
 16
0.0
 26
0.0
 36
1.0
 17
0.0
 27
0.0
 37
0.0
 40
9.158369
 41
0.688564
 42
50.0
 43
0.0
 44
0.0
 50
0.0
 51
0.0
 71
     0
 72
   100
 73
     1
 74
     1
 75
     0
 76
     0
 77
     0
 78
     0
281
     0
 65
     0
110
0.0
120
0.0
130
0.0
111
1.0
121
0.0
131
0.0
112
0.0
122
1.0
132
0.0
345
0
346
0
 79
     0
146
0.0
  0
ENDTAB
  0
TABLE
  2
LTYPE
  5
4
100
AcDbSymbolTable
 70
     3
  0
LTYPE
  5
11
100
AcDbSymbolTableRecord
100
AcDbLinetypeTableRecord
  2
ByBlock
 70
    64
  3

 72
    65
 73
     0
 40
0.0
  0
LTYPE
  5
12
100
AcDbSymbolTableRecord
100
AcDbLinetypeTableRecord
  2
ByLayer
 70
    64
  3

 72
    65
 73
     0
 40
0.0
  0
LTYPE
  5
13
100
AcDbSymbolTableRecord
100
AcDbLinetypeTableRecord
  2
Continuous
 70
    64
  3
Solid line
 72
    65
 73
     0
 40
0.0
  0
ENDTAB
  0
TABLE
  2
LAYER
  5
2
100
AcDbSymbolTable
 70
     1
  0
LAYER
  5
14
100
AcDbSymbolTableRecord
100
AcDbLayerTableRecord
  2
0
 70
     0
 62
     7
  6
Continuous
290
     1
370
    -3
390
1D
  0
ENDTAB
  0
TABLE
  2
STYLE
  5
3
100
AcDbSymbolTable
 70
     1
  0
STYLE
  5
17
100
AcDbSymbolTableRecord
100
AcDbTextStyleTableRecord
  2
Standard
 70
     0
 40
0.0
 41
1.0
 50
0.0
 71
     0
 42
0.0
  3
txt
  4

  0
ENDTAB
  0
TABLE
  2
VIEW
  5
5
100
AcDbSymbolTable
 70
     0
  0
ENDTAB
  0
TABLE
  2
UCS
  5
6
100
AcDbSymbolTable
 70
     0
  0
ENDTAB
  0
TABLE
  2
APPID
  5
8
100
AcDbSymbolTable
 70
     1
  0
APPID
  5
16
100
AcDbSymbolTableRecord
100
AcDbRegAppTableRecord
  2
ACAD
 70
     0
  0
ENDTAB
  0
TABLE
  2
DIMSTYLE
  5
9
100
AcDbSymbolTable
 70
     1
100
AcDbDimStyleTable
 71
     0
  0
DIMSTYLE
105
18
100
AcDbSymbolTableRecord
100
AcDbDimStyleTableRecord
  2
Standard
 70
     0
  3

  4

 40
1.0
 41
0.18
 42
0.0625
 43
0.38
 44
0.18
 45
0.0
 46
0.0
 47
0.0
 48
0.0
 71
     0
 72
     0
 73
     1
 74
     1
 75
     0
 76
     0
 77
     0
 78
     0
 79
     0
140
0.18
141
0.09
142
0.0
143
25.4
144
1.0
145
0.0
146
1.0
147
0.09
148
0.0
170
     0
171
     2
172
     0
173
     0
174
     0
175
     0
176
     0
177
     0
178
     0
179
     0
271
     4
272
     4
273
     2
274
     2
275
     0
276
     0
277
     2
278
    46
279
     0
280
     0
281
     0
282
     0
283
     1
284
     0
285
     0
286
     0
288
     0
289
     3
340
17
341
0
342
0
343
0
344
0
371
    -2
372
    -2
  0
ENDTAB
  0
TABLE
  2
BLOCK_RECORD
  5
1
100
AcDbSymbolTable
 70
     0
  0
BLOCK_RECORD
  5
A
100
AcDbSymbolTableRecord
100
AcDbBlockTableRecord
  2
*MODEL_SPACE
340
20
  0
BLOCK_RECORD
  5
B
100
AcDbSymbolTableRecord
100
AcDbBlockTableRecord
  2
*PAPER_SPACE
340
21
  0
ENDTAB
  0
ENDSEC
  0
SECTION
  2
BLOCKS
  0
BLOCK
  5
D
100
AcDbEntity
  8
0
390
0
100
AcDbBlockBegin
  2
*MODEL_SPACE
 70
     0
 10
0.0
 20
0.0
 30
0.0
  3
*MODEL_SPACE
  1

  0
ENDBLK
  5
E
100
AcDbEntity
  8
0
390
0
100
AcDbBlockEnd
  0
BLOCK
  5
F
100
AcDbEntity
 67
     1
  8
0
390
0
100
AcDbBlockBegin
  2
*PAPER_SPACE
 70
     0
 10
0.0
 20
0.0
 30
0.0
  3
*PAPER_SPACE
  1

  0
ENDBLK
  5
10
100
AcDbEntity
 67
     1
  8
0
390
0
100
AcDbBlockEnd
  0
ENDSEC
  0
SECTION
  2
ENTITIES
  0
VIEWPORT
  5
280
100
AcDbEntity
 67
     1
  8
0
370
     0
390
0
 62
     0
 48
0.0
100
AcDbViewport
 10
0.0
 20
0.0
 30
0.0
 40
1000.0
 41
1000.0
 68
     1
 69
     1
 12
0.0
 22
0.0
 13
0.0
 23
0.0
 14
1.0
 24
1.0
 15
1.0
 25
1.0
 16
0.0
 26
0.0
 36
1.0
 17
0.0
 27
0.0
 37
0.0
 42
50.0
 43
0.0
 44
0.0
 45
1000.0
 50
0.0
 51
0.0
 72
   100
 90
        0
340
0
  1

281
     0
 71
     0
 74
     1
110
0.0
120
0.0
130
0.0
111
1.0
121
0.0
131
0.0
112
0.0
122
1.0
132
0.0
345
0
346
0
 79
     0
146
0.0
  0
POLYLINE
  5
24
100
AcDbEntity
  8
0
370
    13
390
0
 62
     7
100
AcDb2dPolyline
 66
     1
 10
0.0
 20
0.0
 30
0.0
 70
     1
 71
   272
  0
VERTEX
  5
25
100
AcDbEntity
  8
0
370
     0
390
0
100
AcDbVertex
100
AcDb2dVertex
 10
100.242157
 20
103.966576
 30
0.0
  0
VERTEX
  5
26
100
AcDbEntity
  8
0
370
     0
390
0
100
AcDbVertex
100
AcDb2dVertex
 10
101.712143
 20
104.058662
 30
0.0
  0
VERTEX
  5
27
100
AcDbEntity
  8
0
370
     0
390
0
100
AcDbVertex
100
AcDb2dVertex
 10
101.722679
 20
103.988747
 30
0.0
  0
VERTEX
  5
28
100
AcDbEntity
  8
0
370
     0
390
0
100
AcDbVertex
100
AcDb2dVertex
 10
101.735199
 20
103.922241
 30
0.0
  0
VERTEX
  5
29
100
AcDbEntity
  8
0
370
     0
390
0
100
AcDbVertex
100
AcDb2dVertex
 10
101.749695
 20
103.859138
 30
0.0
  0
VERTEX
  5
2A
100
AcDbEntity
  8
0
370
     0
390
0
100
AcDbVertex
100
AcDb2dVertex
 10
101.766167
 20
103.799454
 30
0.0
  0
VERTEX
  5
2B
100
AcDbEntity
  8
0
370
     0
390
0
100
AcDbVertex
100
AcDb2dVertex
 10
101.784615
 20
103.743179
 30
0.0
  0
VERTEX
  5
2C
100
AcDbEntity
  8
0
370
     0
390
0
100
AcDbVertex
100
AcDb2dVertex
 10
101.805046
 20
103.690315
 30
0.0
  0
VERTEX
  5
2D
100
AcDbEntity
  8
0
370
     0
390
0
100
AcDbVertex
100
AcDb2dVertex
 10
101.827454
 20
103.640862
 30
0.0
  0
VERTEX
  5
2E
100
AcDbEntity
  8
0
370
     0
390
0
100
AcDbVertex
100
AcDb2dVertex
 10
101.851845
 20
103.594818
 30
0.0
  0
VERTEX
  5
2F
100
AcDbEntity
  8
0
370
     0
390
0
100
AcDbVertex
100
AcDb2dVertex
 10
101.878204
 20
103.552185
 30
0.0
  0
VERTEX
  5
30
100
AcDbEntity
  8
0
370
     0
390
0
100
AcDbVertex
100
AcDb2dVertex
 10
101.906548
 20
103.512962
 30
0.0
  0
VERTEX
  5
31
100
AcDbEntity
  8
0
370
     0
390
0
100
AcDbVertex
100
AcDb2dVertex
 10
101.956345
 20
103.455284
 30
0.0
  0
VERTEX
  5
32
100
AcDbEntity
  8
0
370
     0
390
0
100
AcDbVertex
100
AcDb2dVertex
 10
102.010231
 20
103.403687
 30
0.0
  0
VERTEX
  5
33
100
AcDbEntity
  8
0
370
     0
390
0
100
AcDbVertex
100
AcDb2dVertex
 10
102.068214
 20
103.358154
 30
0.0
  0
VERTEX
  5
34
100
AcDbEntity
  8
0
370
     0
390
0
100
AcDbVertex
100
AcDb2dVertex
 10
102.130287
 20
103.318695
 30
0.0
  0
VERTEX
  5
35
100
AcDbEntity
  8
0
370
     0
390
0
100
AcDbVertex
100
AcDb2dVertex
 10
102.196449
 20
103.285301
 30
0.0
  0
VERTEX
  5
36
100
AcDbEntity
  8
0
370
     0
390
0
100
AcDbVertex
100
AcDb2dVertex
 10
102.266708
 20
103.25798
 30
0.0
  0
VERTEX
  5
37
100
AcDbEntity
  8
0
370
     0
390
0
100
AcDbVertex
100
AcDb2dVertex
 10
102.341064
 20
103.236732
 30
0.0
  0
VERTEX
  5
38
100
AcDbEntity
  8
0
370
     0
390
0
100
AcDbVertex
100
AcDb2dVertex
 10
102.41951
 20
103.221558
 30
0.0
  0
VERTEX
  5
39
100
AcDbEntity
  8
0
370
     0
390
0
100
AcDbVertex
100
AcDb2dVertex
 10
102.502045
 20
103.212448
 30
0.0
  0
VERTEX
  5
3A
100
AcDbEntity
  8
0
370
     0
390
0
100
AcDbVertex
100
AcDb2dVertex
 10
102.588676
 20
103.209412
 30
0.0
  0
VERTEX
  5
3B
100
AcDbEntity
  8
0
370
     0
390
0
100
AcDbVertex
100
AcDb2dVertex
 10
102.653328
 20
103.210968
 30
0.0
  0
VERTEX
  5
3C
100
AcDbEntity
  8
0
370
     0
390
0
100
AcDbVertex
100
AcDb2dVertex
 10
102.714935
 20
103.215622
 30
0.0
  0
VERTEX
  5
3D
100
AcDbEntity
  8
0
370
     0
390
0
100
AcDbVertex
100
AcDb2dVertex
 10
102.773514
 20
103.223381
 30
0.0
  0
VERTEX
  5
3E
100
AcDbEntity
  8
0
370
     0
390
0
100
AcDbVertex
100
AcDb2dVertex
 10
102.829056
 20
103.234245
 30
0.0
  0
VERTEX
  5
3F
100
AcDbEntity
  8
0
370
     0
390
0
100
AcDbVertex
100
AcDb2dVertex
 10
102.881569
 20
103.248207
 30
0.0
  0
VERTEX
  5
40
100
AcDbEntity
  8
0
370
     0
390
0
100
AcDbVertex
100
AcDb2dVertex
 10
102.931038
 20
103.265282
 30
0.0
  0
VERTEX
  5
41
100
AcDbEntity
  8
0
370
     0
390
0
100
AcDbVertex
100
AcDb2dVertex
 10
102.97747
 20
103.285454
 30
0.0
  0
VERTEX
  5
42
100
AcDbEntity
  8
0
370
     0
390
0
100
AcDbVertex
100
AcDb2dVertex
 10
103.020874
 20
103.308731
 30
0.0
  0
VERTEX
  5
43
100
AcDbEntity
  8
0
370
     0
390
0
100
AcDbVertex
100
AcDb2dVertex
 10
103.061241
 20
103.335114
 30
0.0
  0
VERTEX
  5
44
100
AcDbEntity
  8
0
370
     0
390
0
100
AcDbVertex
100
AcDb2dVertex
 10
103.098564
 20
103.364601
 30
0.0
  0
VERTEX
  5
45
100
AcDbEntity
  8
0
370
     0
390
0
100
AcDbVertex
100
AcDb2dVertex
 10
103.132591
 20
103.396133
 30
0.0
  0
VERTEX
  5
46
100
AcDbEntity
  8
0
370
     0
390
0
100
AcDbVertex
100
AcDb2dVertex
 10
103.163025
 20
103.42865
 30
0.0
  0
VERTEX
  5
47
100
AcDbEntity
  8
0
370
     0
390
0
100
AcDbVertex
100
AcDb2dVertex
 10
103.189888
 20
103.462158
 30
0.0
  0
VERTEX
  5
48
100
AcDbEntity
  8
0
370
     0
390
0
100
AcDbVertex
100
AcDb2dVertex
 10
103.213165
 20
103.496658
 30
0.0
  0
VERTEX
  5
49
100
AcDbEntity
  8
0
370
     0
390
0
100
AcDbVertex
100
AcDb2dVertex
 10
103.232864
 20
103.53215
 30
0.0
  0
VERTEX
  5
4A
100
AcDbEntity
  8
0
370
     0
390
0
100
AcDbVertex
100
AcDb2dVertex
 10
103.248978
 20
103.568626
 30
0.0
  0
VERTEX
  5
4B
100
AcDbEntity
  8
0
370
     0
390
0
100
AcDbVertex
100
AcDb2dVertex
 10
103.261513
 20
103.606087
 30
0.0
  0
VERTEX
  5
4C
100
AcDbEntity
  8
0
370
     0
390
0
100
AcDbVertex
100
AcDb2dVertex
 10
103.270462
 20
103.644547
 30
0.0
  0
VERTEX
  5
4D
100
AcDbEntity
  8
0
370
     0
390
0
100
AcDbVertex
100
AcDb2dVertex
 10
103.275833
 20
103.68399
 30
0.0
  0
VERTEX
  5
4E
100
AcDbEntity
  8
0
370
     0
390
0
100
AcDbVertex
100
AcDb2dVertex
 10
103.277626
 20
103.724419
 30
0.0
  0
VERTEX
  5
4F
100
AcDbEntity
  8
0
370
     0
390
0
100
AcDbVertex
100
AcDb2dVertex
 10
103.275925
 20
103.762894
 30
0.0
  0
VERTEX
  5
50
100
AcDbEntity
  8
0
370
     0
390
0
100
AcDbVertex
100
AcDb2dVertex
 10
103.270805
 20
103.800545
 30
0.0
  0
VERTEX
  5
51
100
AcDbEntity
  8
0
370
     0
390
0
100
AcDbVertex
100
AcDb2dVertex
 10
103.262276
 20
103.837379
 30
0.0
  0
VERTEX
  5
52
100
AcDbEntity
  8
0
370
     0
390
0
100
AcDbVertex
100
AcDb2dVertex
 10
103.250343
 20
103.873398
 30
0.0
  0
VERTEX
  5
53
100
AcDbEntity
  8
0
370
     0
390
0
100
AcDbVertex
100
AcDb2dVertex
 10
103.234993
 20
103.9086
 30
0.0
  0
VERTEX
  5
54
100
AcDbEntity
  8
0
370
     0
390
0
100
AcDbVertex
100
AcDb2dVertex
 10
103.216232
 20
103.942978
 30
0.0
  0
VERTEX
  5
55
100
AcDbEntity
  8
0
370
     0
390
0
100
AcDbVertex
100
AcDb2dVertex
 10
103.194069
 20
103.97654
 30
0.0
  0
VERTEX
  5
56
100
AcDbEntity
  8
0
370
     0
390
0
100
AcDbVertex
100
AcDb2dVertex
 10
103.168488
 20
104.009277
 30
0.0
  0
VERTEX
  5
57
100
AcDbEntity
  8
0
370
     0
390
0
100
AcDbVertex
100
AcDb2dVertex
 10
103.139496
 20
104.041199
 30
0.0
  0
VERTEX
  5
58
100
AcDbEntity
  8
0
370
     0
390
0
100
AcDbVertex
100
AcDb2dVertex
 10
103.107094
 20
104.072304
 30
0.0
  0
VERTEX
  5
59
100
AcDbEntity
  8
0
370
     0
390
0
100
AcDbVertex
100
AcDb2dVertex
 10
103.068489
 20
104.102829
 30
0.0
  0
VERTEX
  5
5A
100
AcDbEntity
  8
0
370
     0
390
0
100
AcDbVertex
100
AcDb2dVertex
 10
103.020874
 20
104.133018
 30
0.0
  0
VERTEX
  5
5B
100
AcDbEntity
  8
0
370
     0
390
0
100
AcDbVertex
100
AcDb2dVertex
 10
102.964256
 20
104.162857
 30
0.0
  0
VERTEX
  5
5C
100
AcDbEntity
  8
0
370
     0
390
0
100
AcDbVertex
100
AcDb2dVertex
 10
102.898636
 20
104.19236
 30
0.0
  0
VERTEX
  5
5D
100
AcDbEntity
  8
0
370
     0
390
0
100
AcDbVertex
100
AcDb2dVertex
 10
102.824013
 20
104.221519
 30
0.0
  0
VERTEX
  5
5E
100
AcDbEntity
  8
0
370
     0
390
0
100
AcDbVertex
100
AcDb2dVertex
 10
102.740379
 20
104.250343
 30
0.0
  0
VERTEX
  5
5F
100
AcDbEntity
  8
0
370
     0
390
0
100
AcDbVertex
100
AcDb2dVertex
 10
102.647751
 20
104.278824
 30
0.0
  0
VERTEX
  5
60
100
AcDbEntity
  8
0
370
     0
390
0
100
AcDbVertex
100
AcDb2dVertex
 10
102.546112
 20
104.306961
 30
0.0
  0
VERTEX
  5
61
100
AcDbEntity
  8
0
370
     0
390
0
100
AcDbVertex
100
AcDb2dVertex
 10
102.435471
 20
104.334755
 30
0.0
  0
VERTEX
  5
62
100
AcDbEntity
  8
0
370
     0
390
0
100
AcDbVertex
100
AcDb2dVertex
 10
102.315826
 20
104.362213
 30
0.0
  0
VERTEX
  5
63
100
AcDbEntity
  8
0
370
     0
390
0
100
AcDbVertex
100
AcDb2dVertex
 10
102.118385
 20
104.409416
 30
0.0
  0
VERTEX
  5
64
100
AcDbEntity
  8
0
370
     0
390
0
100
AcDbVertex
100
AcDb2dVertex
 10
101.932602
 20
104.459618
 30
0.0
  0
VERTEX
  5
65
100
AcDbEntity
  8
0
370
     0
390
0
100
AcDbVertex
100
AcDb2dVertex
 10
101.758492
 20
104.512825
 30
0.0
  0
VERTEX
  5
66
100
AcDbEntity
  8
0
370
     0
390
0
100
AcDbVertex
100
AcDb2dVertex
 10
101.596046
 20
104.569031
 30
0.0
  0
VERTEX
  5
67
100
AcDbEntity
  8
0
370
     0
390
0
100
AcDbVertex
100
AcDb2dVertex
 10
101.445259
 20
104.628242
 30
0.0
  0
VERTEX
  5
68
100
AcDbEntity
  8
0
370
     0
390
0
100
AcDbVertex
100
AcDb2dVertex
 10
101.306137
 20
104.690453
 30
0.0
  0
VERTEX
  5
69
100
AcDbEntity
  8
0
370
     0
390
0
100
AcDbVertex
100
AcDb2dVertex
 10
101.17868
 20
104.755661
 30
0.0
  0
VERTEX
  5
6A
100
AcDbEntity
  8
0
370
     0
390
0
100
AcDbVertex
100
AcDb2dVertex
 10
101.062889
 20
104.823875
 30
0.0
  0
VERTEX
  5
6B
100
AcDbEntity
  8
0
370
     0
390
0
100
AcDbVertex
100
AcDb2dVertex
 10
100.958763
 20
104.895088
 30
0.0
  0
VERTEX
  5
6C
100
AcDbEntity
  8
0
370
     0
390
0
100
AcDbVertex
100
AcDb2dVertex
 10
100.866302
 20
104.969307
 30
0.0
  0
VERTEX
  5
6D
100
AcDbEntity
  8
0
370
     0
390
0
100
AcDbVertex
100
AcDb2dVertex
 10
100.783356
 20
105.047104
 30
0.0
  0
VERTEX
  5
6E
100
AcDbEntity
  8
0
370
     0
390
0
100
AcDbVertex
100
AcDb2dVertex
 10
100.709137
 20
105.129059
 30
0.0
  0
VERTEX
  5
6F
100
AcDbEntity
  8
0
370
     0
390
0
100
AcDbVertex
100
AcDb2dVertex
 10
100.643654
 20
105.215179
 30
0.0
  0
VERTEX
  5
70
100
AcDbEntity
  8
0
370
     0
390
0
100
AcDbVertex
100
AcDb2dVertex
 10
100.586906
 20
105.305458
 30
0.0
  0
VERTEX
  5
71
100
AcDbEntity
  8
0
370
     0
390
0
100
AcDbVertex
100
AcDb2dVertex
 10
100.538879
 20
105.399902
 30
0.0
  0
VERTEX
  5
72
100
AcDbEntity
  8
0
370
     0
390
0
100
AcDbVertex
100
AcDb2dVertex
 10
100.499588
 20
105.498497
 30
0.0
  0
VERTEX
  5
73
100
AcDbEntity
  8
0
370
     0
390
0
100
AcDbVertex
100
AcDb2dVertex
 10
100.469032
 20
105.601265
 30
0.0
  0
VERTEX
  5
74
100
AcDbEntity
  8
0
370
     0
390
0
100
AcDbVertex
100
AcDb2dVertex
 10
100.447205
 20
105.708183
 30
0.0
  0
VERTEX
  5
75
100
AcDbEntity
  8
0
370
     0
390
0
100
AcDbVertex
100
AcDb2dVertex
 10
100.434105
 20
105.819275
 30
0.0
  0
VERTEX
  5
76
100
AcDbEntity
  8
0
370
     0
390
0
100
AcDbVertex
100
AcDb2dVertex
 10
100.429741
 20
105.934517
 30
0.0
  0
VERTEX
  5
77
100
AcDbEntity
  8
0
370
     0
390
0
100
AcDbVertex
100
AcDb2dVertex
 10
100.431976
 20
106.011169
 30
0.0
  0
VERTEX
  5
78
100
AcDbEntity
  8
0
370
     0
390
0
100
AcDbVertex
100
AcDb2dVertex
 10
100.438675
 20
106.086975
 30
0.0
  0
VERTEX
  5
79
100
AcDbEntity
  8
0
370
     0
390
0
100
AcDbVertex
100
AcDb2dVertex
 10
100.449844
 20
106.161919
 30
0.0
  0
VERTEX
  5
7A
100
AcDbEntity
  8
0
370
     0
390
0
100
AcDbVertex
100
AcDb2dVertex
 10
100.465485
 20
106.236015
 30
0.0
  0
VERTEX
  5
7B
100
AcDbEntity
  8
0
370
     0
390
0
100
AcDbVertex
100
AcDb2dVertex
 10
100.485588
 20
106.309258
 30
0.0
  0
VERTEX
  5
7C
100
AcDbEntity
  8
0
370
     0
390
0
100
AcDbVertex
100
AcDb2dVertex
 10
100.510162
 20
106.381653
 30
0.0
  0
VERTEX
  5
7D
100
AcDbEntity
  8
0
370
     0
390
0
100
AcDbVertex
100
AcDb2dVertex
 10
100.539207
 20
106.453186
 30
0.0
  0
VERTEX
  5
7E
100
AcDbEntity
  8
0
370
     0
390
0
100
AcDbVertex
100
AcDb2dVertex
 10
100.572716
 20
106.523872
 30
0.0
  0
VERTEX
  5
7F
100
AcDbEntity
  8
0
370
     0
390
0
100
AcDbVertex
100
AcDb2dVertex
 10
100.610695
 20
106.593712
 30
0.0
  0
VERTEX
  5
80
100
AcDbEntity
  8
0
370
     0
390
0
100
AcDbVertex
100
AcDb2dVertex
 10
100.653137
 20
106.662689
 30
0.0
  0
VERTEX
  5
81
100
AcDbEntity
  8
0
370
     0
390
0
100
AcDbVertex
100
AcDb2dVertex
 10
100.700066
 20
106.729774
 30
0.0
  0
VERTEX
  5
82
100
AcDbEntity
  8
0
370
     0
390
0
100
AcDbVertex
100
AcDb2dVertex
 10
100.751503
 20
106.79393
 30
0.0
  0
VERTEX
  5
83
100
AcDbEntity
  8
0
370
     0
390
0
100
AcDbVertex
100
AcDb2dVertex
 10
100.807434
 20
106.855148
 30
0.0
  0
VERTEX
  5
84
100
AcDbEntity
  8
0
370
     0
390
0
100
AcDbVertex
100
AcDb2dVertex
 10
100.867874
 20
106.913437
 30
0.0
  0
VERTEX
  5
85
100
AcDbEntity
  8
0
370
     0
390
0
100
AcDbVertex
100
AcDb2dVertex
 10
100.932808
 20
106.968796
 30
0.0
  0
VERTEX
  5
86
100
AcDbEntity
  8
0
370
     0
390
0
100
AcDbVertex
100
AcDb2dVertex
 10
101.002251
 20
107.021217
 30
0.0
  0
VERTEX
  5
87
100
AcDbEntity
  8
0
370
     0
390
0
100
AcDbVertex
100
AcDb2dVertex
 10
101.076195
 20
107.070702
 30
0.0
  0
VERTEX
  5
88
100
AcDbEntity
  8
0
370
     0
390
0
100
AcDbVertex
100
AcDb2dVertex
 10
101.15464
 20
107.117256
 30
0.0
  0
VERTEX
  5
89
100
AcDbEntity
  8
0
370
     0
390
0
100
AcDbVertex
100
AcDb2dVertex
 10
101.237587
 20
107.160881
 30
0.0
  0
VERTEX
  5
8A
100
AcDbEntity
  8
0
370
     0
390
0
100
AcDbVertex
100
AcDb2dVertex
 10
101.325035
 20
107.201569
 30
0.0
  0
VERTEX
  5
8B
100
AcDbEntity
  8
0
370
     0
390
0
100
AcDbVertex
100
AcDb2dVertex
 10
101.41806
 20
107.238831
 30
0.0
  0
VERTEX
  5
8C
100
AcDbEntity
  8
0
370
     0
390
0
100
AcDbVertex
100
AcDb2dVertex
 10
101.517738
 20
107.272171
 30
0.0
  0
VERTEX
  5
8D
100
AcDbEntity
  8
0
370
     0
390
0
100
AcDbVertex
100
AcDb2dVertex
 10
101.624062
 20
107.30159
 30
0.0
  0
VERTEX
  5
8E
100
AcDbEntity
  8
0
370
     0
390
0
100
AcDbVertex
100
AcDb2dVertex
 10
101.737038
 20
107.32708
 30
0.0
  0
VERTEX
  5
8F
100
AcDbEntity
  8
0
370
     0
390
0
100
AcDbVertex
100
AcDb2dVertex
 10
101.856667
 20
107.348656
 30
0.0
  0
VERTEX
  5
90
100
AcDbEntity
  8
0
370
     0
390
0
100
AcDbVertex
100
AcDb2dVertex
 10
101.982948
 20
107.366302
 30
0.0
  0
VERTEX
  5
91
100
AcDbEntity
  8
0
370
     0
390
0
100
AcDbVertex
100
AcDb2dVertex
 10
102.115875
 20
107.380035
 30
0.0
  0
VERTEX
  5
92
100
AcDbEntity
  8
0
370
     0
390
0
100
AcDbVertex
100
AcDb2dVertex
 10
102.255455
 20
107.389839
 30
0.0
  0
VERTEX
  5
93
100
AcDbEntity
  8
0
370
     0
390
0
100
AcDbVertex
100
AcDb2dVertex
 10
102.401688
 20
107.395721
 30
0.0
  0
VERTEX
  5
94
100
AcDbEntity
  8
0
370
     0
390
0
100
AcDbVertex
100
AcDb2dVertex
 10
102.554573
 20
107.397682
 30
0.0
  0
VERTEX
  5
95
100
AcDbEntity
  8
0
370
     0
390
0
100
AcDbVertex
100
AcDb2dVertex
 10
102.741692
 20
107.394119
 30
0.0
  0
VERTEX
  5
96
100
AcDbEntity
  8
0
370
     0
390
0
100
AcDbVertex
100
AcDb2dVertex
 10
102.919716
 20
107.383423
 30
0.0
  0
VERTEX
  5
97
100
AcDbEntity
  8
0
370
     0
390
0
100
AcDbVertex
100
AcDb2dVertex
 10
103.088623
 20
107.365608
 30
0.0
  0
VERTEX
  5
98
100
AcDbEntity
  8
0
370
     0
390
0
100
AcDbVertex
100
AcDb2dVertex
 10
103.248428
 20
107.340652
 30
0.0
  0
VERTEX
  5
99
100
AcDbEntity
  8
0
370
     0
390
0
100
AcDbVertex
100
AcDb2dVertex
 10
103.399132
 20
107.308578
 30
0.0
  0
VERTEX
  5
9A
100
AcDbEntity
  8
0
370
     0
390
0
100
AcDbVertex
100
AcDb2dVertex
 10
103.540726
 20
107.269371
 30
0.0
  0
VERTEX
  5
9B
100
AcDbEntity
  8
0
370
     0
390
0
100
AcDbVertex
100
AcDb2dVertex
 10
103.67321
 20
107.223038
 30
0.0
  0
VERTEX
  5
9C
100
AcDbEntity
  8
0
370
     0
390
0
100
AcDbVertex
100
AcDb2dVertex
 10
103.796593
 20
107.169579
 30
0.0
  0
VERTEX
  5
9D
100
AcDbEntity
  8
0
370
     0
390
0
100
AcDbVertex
100
AcDb2dVertex
 10
103.910866
 20
107.108986
 30
0.0
  0
VERTEX
  5
9E
100
AcDbEntity
  8
0
370
     0
390
0
100
AcDbVertex
100
AcDb2dVertex
 10
104.016029
 20
107.041267
 30
0.0
  0
VERTEX
  5
9F
100
AcDbEntity
  8
0
370
     0
390
0
100
AcDbVertex
100
AcDb2dVertex
 10
104.112572
 20
106.965775
 30
0.0
  0
VERTEX
  5
A0
100
AcDbEntity
  8
0
370
     0
390
0
100
AcDbVertex
100
AcDb2dVertex
 10
104.200958
 20
106.881859
 30
0.0
  0
VERTEX
  5
A1
100
AcDbEntity
  8
0
370
     0
390
0
100
AcDbVertex
100
AcDb2dVertex
 10
104.281189
 20
106.789513
 30
0.0
  0
VERTEX
  5
A2
100
AcDbEntity
  8
0
370
     0
390
0
100
AcDbVertex
100
AcDb2dVertex
 10
104.353271
 20
106.688744
 30
0.0
  0
VERTEX
  5
A3
100
AcDbEntity
  8
0
370
     0
390
0
100
AcDbVertex
100
AcDb2dVertex
 10
104.417206
 20
106.579552
 30
0.0
  0
VERTEX
  5
A4
100
AcDbEntity
  8
0
370
     0
390
0
100
AcDbVertex
100
AcDb2dVertex
 10
104.472984
 20
106.461937
 30
0.0
  0
VERTEX
  5
A5
100
AcDbEntity
  8
0
370
     0
390
0
100
AcDbVertex
100
AcDb2dVertex
 10
104.520615
 20
106.335899
 30
0.0
  0
VERTEX
  5
A6
100
AcDbEntity
  8
0
370
     0
390
0
100
AcDbVertex
100
AcDb2dVertex
 10
104.560097
 20
106.201431
 30
0.0
  0
VERTEX
  5
A7
100
AcDbEntity
  8
0
370
     0
390
0
100
AcDbVertex
100
AcDb2dVertex
 10
104.591423
 20
106.058548
 30
0.0
  0
VERTEX
  5
A8
100
AcDbEntity
  8
0
370
     0
390
0
100
AcDbVertex
100
AcDb2dVertex
 10
104.614594
 20
105.907234
 30
0.0
  0
VERTEX
  5
A9
100
AcDbEntity
  8
0
370
     0
390
0
100
AcDbVertex
100
AcDb2dVertex
 10
103.158257
 20
105.821968
 30
0.0
  0
VERTEX
  5
AA
100
AcDbEntity
  8
0
370
     0
390
0
100
AcDbVertex
100
AcDb2dVertex
 10
103.145378
 20
105.887657
 30
0.0
  0
VERTEX
  5
AB
100
AcDbEntity
  8
0
370
     0
390
0
100
AcDbVertex
100
AcDb2dVertex
 10
103.129944
 20
105.949661
 30
0.0
  0
VERTEX
  5
AC
100
AcDbEntity
  8
0
370
     0
390
0
100
AcDbVertex
100
AcDb2dVertex
 10
103.111954
 20
106.00798
 30
0.0
  0
VERTEX
  5
AD
100
AcDbEntity
  8
0
370
     0
390
0
100
AcDbVertex
100
AcDb2dVertex
 10
103.091408
 20
106.062622
 30
0.0
  0
VERTEX
  5
AE
100
AcDbEntity
  8
0
370
     0
390
0
100
AcDbVertex
100
AcDb2dVertex
 10
103.068298
 20
106.113579
 30
0.0
  0
VERTEX
  5
AF
100
AcDbEntity
  8
0
370
     0
390
0
100
AcDbVertex
100
AcDb2dVertex
 10
103.042633
 20
106.160851
 30
0.0
  0
VERTEX
  5
B0
100
AcDbEntity
  8
0
370
     0
390
0
100
AcDbVertex
100
AcDb2dVertex
 10
103.014412
 20
106.204437
 30
0.0
  0
VERTEX
  5
B1
100
AcDbEntity
  8
0
370
     0
390
0
100
AcDbVertex
100
AcDb2dVertex
 10
102.983627
 20
106.244339
 30
0.0
  0
VERTEX
  5
B2
100
AcDbEntity
  8
0
370
     0
390
0
100
AcDbVertex
100
AcDb2dVertex
 10
102.950287
 20
106.280563
 30
0.0
  0
VERTEX
  5
B3
100
AcDbEntity
  8
0
370
     0
390
0
100
AcDbVertex
100
AcDb2dVertex
 10
102.914391
 20
106.313095
 30
0.0
  0
VERTEX
  5
B4
100
AcDbEntity
  8
0
370
     0
390
0
100
AcDbVertex
100
AcDb2dVertex
 10
102.875801
 20
106.342262
 30
0.0
  0
VERTEX
  5
B5
100
AcDbEntity
  8
0
370
     0
390
0
100
AcDbVertex
100
AcDb2dVertex
 10
102.834381
 20
106.368347
 30
0.0
  0
VERTEX
  5
B6
100
AcDbEntity
  8
0
370
     0
390
0
100
AcDbVertex
100
AcDb2dVertex
 10
102.790123
 20
106.391373
 30
0.0
  0
VERTEX
  5
B7
100
AcDbEntity
  8
0
370
     0
390
0
100
AcDbVertex
100
AcDb2dVertex
 10
102.743042
 20
106.411324
 30
0.0
  0
VERTEX
  5
B8
100
AcDbEntity
  8
0
370
     0
390
0
100
AcDbVertex
100
AcDb2dVertex
 10
102.69313
 20
106.428207
 30
0.0
  0
VERTEX
  5
B9
100
AcDbEntity
  8
0
370
     0
390
0
100
AcDbVertex
100
AcDb2dVertex
 10
102.640381
 20
106.442017
 30
0.0
  0
VERTEX
  5
BA
100
AcDbEntity
  8
0
370
     0
390
0
100
AcDbVertex
100
AcDb2dVertex
 10
102.584808
 20
106.452766
 30
0.0
  0
VERTEX
  5
BB
100
AcDbEntity
  8
0
370
     0
390
0
100
AcDbVertex
100
AcDb2dVertex
 10
102.526398
 20
106.460434
 30
0.0
  0
VERTEX
  5
BC
100
AcDbEntity
  8
0
370
     0
390
0
100
AcDbVertex
100
AcDb2dVertex
 10
102.465157
 20
106.465042
 30
0.0
  0
VERTEX
  5
BD
100
AcDbEntity
  8
0
370
     0
390
0
100
AcDbVertex
100
AcDb2dVertex
 10
102.401093
 20
106.466576
 30
0.0
  0
VERTEX
  5
BE
100
AcDbEntity
  8
0
370
     0
390
0
100
AcDbVertex
100
AcDb2dVertex
 10
102.348534
 20
106.465431
 30
0.0
  0
VERTEX
  5
BF
100
AcDbEntity
  8
0
370
     0
390
0
100
AcDbVertex
100
AcDb2dVertex
 10
102.298637
 20
106.462006
 30
0.0
  0
VERTEX
  5
C0
100
AcDbEntity
  8
0
370
     0
390
0
100
AcDbVertex
100
AcDb2dVertex
 10
102.251396
 20
106.456291
 30
0.0
  0
VERTEX
  5
C1
100
AcDbEntity
  8
0
370
     0
390
0
100
AcDbVertex
100
AcDb2dVertex
 10
102.206818
 20
106.448296
 30
0.0
  0
VERTEX
  5
C2
100
AcDbEntity
  8
0
370
     0
390
0
100
AcDbVertex
100
AcDb2dVertex
 10
102.164902
 20
106.438011
 30
0.0
  0
VERTEX
  5
C3
100
AcDbEntity
  8
0
370
     0
390
0
100
AcDbVertex
100
AcDb2dVertex
 10
102.125648
 20
106.425446
 30
0.0
  0
VERTEX
  5
C4
100
AcDbEntity
  8
0
370
     0
390
0
100
AcDbVertex
100
AcDb2dVertex
 10
102.08905
 20
106.410591
 30
0.0
  0
VERTEX
  5
C5
100
AcDbEntity
  8
0
370
     0
390
0
100
AcDbVertex
100
AcDb2dVertex
 10
102.055115
 20
106.393456
 30
0.0
  0
VERTEX
  5
C6
100
AcDbEntity
  8
0
370
     0
390
0
100
AcDbVertex
100
AcDb2dVertex
 10
102.023842
 20
106.374031
 30
0.0
  0
VERTEX
  5
C7
100
AcDbEntity
  8
0
370
     0
390
0
100
AcDbVertex
100
AcDb2dVertex
 10
101.995224
 20
106.352318
 30
0.0
  0
VERTEX
  5
C8
100
AcDbEntity
  8
0
370
     0
390
0
100
AcDbVertex
100
AcDb2dVertex
 10
101.969307
 20
106.328972
 30
0.0
  0
VERTEX
  5
C9
100
AcDbEntity
  8
0
370
     0
390
0
100
AcDbVertex
100
AcDb2dVertex
 10
101.946114
 20
106.304642
 30
0.0
  0
VERTEX
  5
CA
100
AcDbEntity
  8
0
370
     0
390
0
100
AcDbVertex
100
AcDb2dVertex
 10
101.925652
 20
106.279312
 30
0.0
  0
VERTEX
  5
CB
100
AcDbEntity
  8
0
370
     0
390
0
100
AcDbVertex
100
AcDb2dVertex
 10
101.907913
 20
106.253006
 30
0.0
  0
VERTEX
  5
CC
100
AcDbEntity
  8
0
370
     0
390
0
100
AcDbVertex
100
AcDb2dVertex
 10
101.892906
 20
106.2257
 30
0.0
  0
VERTEX
  5
CD
100
AcDbEntity
  8
0
370
     0
390
0
100
AcDbVertex
100
AcDb2dVertex
 10
101.88063
 20
106.197411
 30
0.0
  0
VERTEX
  5
CE
100
AcDbEntity
  8
0
370
     0
390
0
100
AcDbVertex
100
AcDb2dVertex
 10
101.871078
 20
106.168129
 30
0.0
  0
VERTEX
  5
CF
100
AcDbEntity
  8
0
370
     0
390
0
100
AcDbVertex
100
AcDb2dVertex
 10
101.864258
 20
106.137863
 30
0.0
  0
VERTEX
  5
D0
100
AcDbEntity
  8
0
370
     0
390
0
100
AcDbVertex
100
AcDb2dVertex
 10
101.860161
 20
106.106598
 30
0.0
  0
VERTEX
  5
D1
100
AcDbEntity
  8
0
370
     0
390
0
100
AcDbVertex
100
AcDb2dVertex
 10
101.858803
 20
106.074356
 30
0.0
  0
VERTEX
  5
D2
100
AcDbEntity
  8
0
370
     0
390
0
100
AcDbVertex
100
AcDb2dVertex
 10
101.859924
 20
106.05072
 30
0.0
  0
VERTEX
  5
D3
100
AcDbEntity
  8
0
370
     0
390
0
100
AcDbVertex
100
AcDb2dVertex
 10
101.863304
 20
106.027557
 30
0.0
  0
VERTEX
  5
D4
100
AcDbEntity
  8
0
370
     0
390
0
100
AcDbVertex
100
AcDb2dVertex
 10
101.868927
 20
106.004875
 30
0.0
  0
VERTEX
  5
D5
100
AcDbEntity
  8
0
370
     0
390
0
100
AcDbVertex
100
AcDb2dVertex
 10
101.876808
 20
105.982674
 30
0.0
  0
VERTEX
  5
D6
100
AcDbEntity
  8
0
370
     0
390
0
100
AcDbVertex
100
AcDb2dVertex
 10
101.88694
 20
105.960953
 30
0.0
  0
VERTEX
  5
D7
100
AcDbEntity
  8
0
370
     0
390
0
100
AcDbVertex
100
AcDb2dVertex
 10
101.899315
 20
105.939697
 30
0.0
  0
VERTEX
  5
D8
100
AcDbEntity
  8
0
370
     0
390
0
100
AcDbVertex
100
AcDb2dVertex
 10
101.913948
 20
105.91893
 30
0.0
  0
VERTEX
  5
D9
100
AcDbEntity
  8
0
370
     0
390
0
100
AcDbVertex
100
AcDb2dVertex
 10
101.930832
 20
105.898636
 30
0.0
  0
VERTEX
  5
DA
100
AcDbEntity
  8
0
370
     0
390
0
100
AcDbVertex
100
AcDb2dVertex
 10
101.949966
 20
105.878822
 30
0.0
  0
VERTEX
  5
DB
100
AcDbEntity
  8
0
370
     0
390
0
100
AcDbVertex
100
AcDb2dVertex
 10
101.971352
 20
105.859482
 30
0.0
  0
VERTEX
  5
DC
100
AcDbEntity
  8
0
370
     0
390
0
100
AcDbVertex
100
AcDb2dVertex
 10
101.996178
 20
105.839836
 30
0.0
  0
VERTEX
  5
DD
100
AcDbEntity
  8
0
370
     0
390
0
100
AcDbVertex
100
AcDb2dVertex
 10
102.027016
 20
105.820465
 30
0.0
  0
VERTEX
  5
DE
100
AcDbEntity
  8
0
370
     0
390
0
100
AcDbVertex
100
AcDb2dVertex
 10
102.06385
 20
105.801369
 30
0.0
  0
VERTEX
  5
DF
100
AcDbEntity
  8
0
370
     0
390
0
100
AcDbVertex
100
AcDb2dVertex
 10
102.106682
 20
105.782539
 30
0.0
  0
VERTEX
  5
E0
100
AcDbEntity
  8
0
370
     0
390
0
100
AcDbVertex
100
AcDb2dVertex
 10
102.155525
 20
105.763985
 30
0.0
  0
VERTEX
  5
E1
100
AcDbEntity
  8
0
370
     0
390
0
100
AcDbVertex
100
AcDb2dVertex
 10
102.210365
 20
105.745705
 30
0.0
  0
VERTEX
  5
E2
100
AcDbEntity
  8
0
370
     0
390
0
100
AcDbVertex
100
AcDb2dVertex
 10
102.271217
 20
105.727699
 30
0.0
  0
VERTEX
  5
E3
100
AcDbEntity
  8
0
370
     0
390
0
100
AcDbVertex
100
AcDb2dVertex
 10
102.338066
 20
105.709961
 30
0.0
  0
VERTEX
  5
E4
100
AcDbEntity
  8
0
370
     0
390
0
100
AcDbVertex
100
AcDb2dVertex
 10
102.410912
 20
105.692497
 30
0.0
  0
VERTEX
  5
E5
100
AcDbEntity
  8
0
370
     0
390
0
100
AcDbVertex
100
AcDb2dVertex
 10
102.489769
 20
105.675308
 30
0.0
  0
VERTEX
  5
E6
100
AcDbEntity
  8
0
370
     0
390
0
100
AcDbVertex
100
AcDb2dVertex
 10
102.686615
 20
105.631599
 30
0.0
  0
VERTEX
  5
E7
100
AcDbEntity
  8
0
370
     0
390
0
100
AcDbVertex
100
AcDb2dVertex
 10
102.871964
 20
105.587791
 30
0.0
  0
VERTEX
  5
E8
100
AcDbEntity
  8
0
370
     0
390
0
100
AcDbVertex
100
AcDb2dVertex
 10
103.045822
 20
105.543877
 30
0.0
  0
VERTEX
  5
E9
100
AcDbEntity
  8
0
370
     0
390
0
100
AcDbVertex
100
AcDb2dVertex
 10
103.208183
 20
105.499863
 30
0.0
  0
VERTEX
  5
EA
100
AcDbEntity
  8
0
370
     0
390
0
100
AcDbVertex
100
AcDb2dVertex
 10
103.359055
 20
105.45575
 30
0.0
  0
VERTEX
  5
EB
100
AcDbEntity
  8
0
370
     0
390
0
100
AcDbVertex
100
AcDb2dVertex
 10
103.498428
 20
105.41153
 30
0.0
  0
VERTEX
  5
EC
100
AcDbEntity
  8
0
370
     0
390
0
100
AcDbVertex
100
AcDb2dVertex
 10
103.626312
 20
105.36721
 30
0.0
  0
VERTEX
  5
ED
100
AcDbEntity
  8
0
370
     0
390
0
100
AcDbVertex
100
AcDb2dVertex
 10
103.742699
 20
105.322784
 30
0.0
  0
VERTEX
  5
EE
100
AcDbEntity
  8
0
370
     0
390
0
100
AcDbVertex
100
AcDb2dVertex
 10
103.847595
 20
105.278259
 30
0.0
  0
VERTEX
  5
EF
100
AcDbEntity
  8
0
370
     0
390
0
100
AcDbVertex
100
AcDb2dVertex
 10
103.940994
 20
105.233627
 30
0.0
  0
VERTEX
  5
F0
100
AcDbEntity
  8
0
370
     0
390
0
100
AcDbVertex
100
AcDb2dVertex
 10
104.02626
 20
105.187874
 30
0.0
  0
VERTEX
  5
F1
100
AcDbEntity
  8
0
370
     0
390
0
100
AcDbVertex
100
AcDb2dVertex
 10
104.10675
 20
105.139977
 30
0.0
  0
VERTEX
  5
F2
100
AcDbEntity
  8
0
370
     0
390
0
100
AcDbVertex
100
AcDb2dVertex
 10
104.182472
 20
105.08992
 30
0.0
  0
VERTEX
  5
F3
100
AcDbEntity
  8
0
370
     0
390
0
100
AcDbVertex
100
AcDb2dVertex
 10
104.25341
 20
105.03772
 30
0.0
  0
VERTEX
  5
F4
100
AcDbEntity
  8
0
370
     0
390
0
100
AcDbVertex
100
AcDb2dVertex
 10
104.31958
 20
104.983376
 30
0.0
  0
VERTEX
  5
F5
100
AcDbEntity
  8
0
370
     0
390
0
100
AcDbVertex
100
AcDb2dVertex
 10
104.380966
 20
104.92688
 30
0.0
  0
VERTEX
  5
F6
100
AcDbEntity
  8
0
370
     0
390
0
100
AcDbVertex
100
AcDb2dVertex
 10
104.437584
 20
104.868233
 30
0.0
  0
VERTEX
  5
F7
100
AcDbEntity
  8
0
370
     0
390
0
100
AcDbVertex
100
AcDb2dVertex
 10
104.489426
 20
104.807434
 30
0.0
  0
VERTEX
  5
F8
100
AcDbEntity
  8
0
370
     0
390
0
100
AcDbVertex
100
AcDb2dVertex
 10
104.536491
 20
104.744492
 30
0.0
  0
VERTEX
  5
F9
100
AcDbEntity
  8
0
370
     0
390
0
100
AcDbVertex
100
AcDb2dVertex
 10
104.578789
 20
104.679398
 30
0.0
  0
VERTEX
  5
FA
100
AcDbEntity
  8
0
370
     0
390
0
100
AcDbVertex
100
AcDb2dVertex
 10
104.616692
 20
104.61245
 30
0.0
  0
VERTEX
  5
FB
100
AcDbEntity
  8
0
370
     0
390
0
100
AcDbVertex
100
AcDb2dVertex
 10
104.650612
 20
104.54393
 30
0.0
  0
VERTEX
  5
FC
100
AcDbEntity
  8
0
370
     0
390
0
100
AcDbVertex
100
AcDb2dVertex
 10
104.680542
 20
104.473839
 30
0.0
  0
VERTEX
  5
FD
100
AcDbEntity
  8
0
370
     0
390
0
100
AcDbVertex
100
AcDb2dVertex
 10
104.706482
 20
104.402184
 30
0.0
  0
VERTEX
  5
FE
100
AcDbEntity
  8
0
370
     0
390
0
100
AcDbVertex
100
AcDb2dVertex
 10
104.728424
 20
104.328957
 30
0.0
  0
VERTEX
  5
FF
100
AcDbEntity
  8
0
370
     0
390
0
100
AcDbVertex
100
AcDb2dVertex
 10
104.746384
 20
104.254166
 30
0.0
  0
VERTEX
  5
100
100
AcDbEntity
  8
0
370
     0
390
0
100
AcDbVertex
100
AcDb2dVertex
 10
104.760353
 20
104.177795
 30
0.0
  0
VERTEX
  5
101
100
AcDbEntity
  8
0
370
     0
390
0
100
AcDbVertex
100
AcDb2dVertex
 10
104.770325
 20
104.099869
 30
0.0
  0
VERTEX
  5
102
100
AcDbEntity
  8
0
370
     0
390
0
100
AcDbVertex
100
AcDb2dVertex
 10
104.776314
 20
104.020363
 30
0.0
  0
VERTEX
  5
103
100
AcDbEntity
  8
0
370
     0
390
0
100
AcDbVertex
100
AcDb2dVertex
 10
104.778305
 20
103.939293
 30
0.0
  0
VERTEX
  5
104
100
AcDbEntity
  8
0
370
     0
390
0
100
AcDbVertex
100
AcDb2dVertex
 10
104.77565
 20
103.843864
 30
0.0
  0
VERTEX
  5
105
100
AcDbEntity
  8
0
370
     0
390
0
100
AcDbVertex
100
AcDb2dVertex
 10
104.76767
 20
103.749931
 30
0.0
  0
VERTEX
  5
106
100
AcDbEntity
  8
0
370
     0
390
0
100
AcDbVertex
100
AcDb2dVertex
 10
104.754364
 20
103.657501
 30
0.0
  0
VERTEX
  5
107
100
AcDbEntity
  8
0
370
     0
390
0
100
AcDbVertex
100
AcDb2dVertex
 10
104.735741
 20
103.566574
 30
0.0
  0
VERTEX
  5
108
100
AcDbEntity
  8
0
370
     0
390
0
100
AcDbVertex
100
AcDb2dVertex
 10
104.7118
 20
103.47715
 30
0.0
  0
VERTEX
  5
109
100
AcDbEntity
  8
0
370
     0
390
0
100
AcDbVertex
100
AcDb2dVertex
 10
104.682541
 20
103.389221
 30
0.0
  0
VERTEX
  5
10A
100
AcDbEntity
  8
0
370
     0
390
0
100
AcDbVertex
100
AcDb2dVertex
 10
104.647949
 20
103.302795
 30
0.0
  0
VERTEX
  5
10B
100
AcDbEntity
  8
0
370
     0
390
0
100
AcDbVertex
100
AcDb2dVertex
 10
104.608047
 20
103.217873
 30
0.0
  0
VERTEX
  5
10C
100
AcDbEntity
  8
0
370
     0
390
0
100
AcDbVertex
100
AcDb2dVertex
 10
104.56282
 20
103.134445
 30
0.0
  0
VERTEX
  5
10D
100
AcDbEntity
  8
0
370
     0
390
0
100
AcDbVertex
100
AcDb2dVertex
 10
104.512276
 20
103.052528
 30
0.0
  0
VERTEX
  5
10E
100
AcDbEntity
  8
0
370
     0
390
0
100
AcDbVertex
100
AcDb2dVertex
 10
104.456955
 20
102.973312
 30
0.0
  0
VERTEX
  5
10F
100
AcDbEntity
  8
0
370
     0
390
0
100
AcDbVertex
100
AcDb2dVertex
 10
104.397408
 20
102.898026
 30
0.0
  0
VERTEX
  5
110
100
AcDbEntity
  8
0
370
     0
390
0
100
AcDbVertex
100
AcDb2dVertex
 10
104.333626
 20
102.826653
 30
0.0
  0
VERTEX
  5
111
100
AcDbEntity
  8
0
370
     0
390
0
100
AcDbVertex
100
AcDb2dVertex
 10
104.265617
 20
102.759209
 30
0.0
  0
VERTEX
  5
112
100
AcDbEntity
  8
0
370
     0
390
0
100
AcDbVertex
100
AcDb2dVertex
 10
104.193382
 20
102.695686
 30
0.0
  0
VERTEX
  5
113
100
AcDbEntity
  8
0
370
     0
390
0
100
AcDbVertex
100
AcDb2dVertex
 10
104.116913
 20
102.636086
 30
0.0
  0
VERTEX
  5
114
100
AcDbEntity
  8
0
370
     0
390
0
100
AcDbVertex
100
AcDb2dVertex
 10
104.036224
 20
102.580406
 30
0.0
  0
VERTEX
  5
115
100
AcDbEntity
  8
0
370
     0
390
0
100
AcDbVertex
100
AcDb2dVertex
 10
103.951294
 20
102.528648
 30
0.0
  0
VERTEX
  5
116
100
AcDbEntity
  8
0
370
     0
390
0
100
AcDbVertex
100
AcDb2dVertex
 10
103.862144
 20
102.48082
 30
0.0
  0
VERTEX
  5
117
100
AcDbEntity
  8
0
370
     0
390
0
100
AcDbVertex
100
AcDb2dVertex
 10
103.768761
 20
102.436905
 30
0.0
  0
VERTEX
  5
118
100
AcDbEntity
  8
0
370
     0
390
0
100
AcDbVertex
100
AcDb2dVertex
 10
103.670769
 20
102.397049
 30
0.0
  0
VERTEX
  5
119
100
AcDbEntity
  8
0
370
     0
390
0
100
AcDbVertex
100
AcDb2dVertex
 10
103.567802
 20
102.361389
 30
0.0
  0
VERTEX
  5
11A
100
AcDbEntity
  8
0
370
     0
390
0
100
AcDbVertex
100
AcDb2dVertex
 10
103.459854
 20
102.329933
 30
0.0
  0
VERTEX
  5
11B
100
AcDbEntity
  8
0
370
     0
390
0
100
AcDbVertex
100
AcDb2dVertex
 10
103.346931
 20
102.302658
 30
0.0
  0
VERTEX
  5
11C
100
AcDbEntity
  8
0
370
     0
390
0
100
AcDbVertex
100
AcDb2dVertex
 10
103.229027
 20
102.279587
 30
0.0
  0
VERTEX
  5
11D
100
AcDbEntity
  8
0
370
     0
390
0
100
AcDbVertex
100
AcDb2dVertex
 10
103.10614
 20
102.260712
 30
0.0
  0
VERTEX
  5
11E
100
AcDbEntity
  8
0
370
     0
390
0
100
AcDbVertex
100
AcDb2dVertex
 10
102.978271
 20
102.246025
 30
0.0
  0
VERTEX
  5
11F
100
AcDbEntity
  8
0
370
     0
390
0
100
AcDbVertex
100
AcDb2dVertex
 10
102.845428
 20
102.235542
 30
0.0
  0
VERTEX
  5
120
100
AcDbEntity
  8
0
370
     0
390
0
100
AcDbVertex
100
AcDb2dVertex
 10
102.707603
 20
102.229248
 30
0.0
  0
VERTEX
  5
121
100
AcDbEntity
  8
0
370
     0
390
0
100
AcDbVertex
100
AcDb2dVertex
 10
102.564804
 20
102.22715
 30
0.0
  0
VERTEX
  5
122
100
AcDbEntity
  8
0
370
     0
390
0
100
AcDbVertex
100
AcDb2dVertex
 10
102.317528
 20
102.232063
 30
0.0
  0
VERTEX
  5
123
100
AcDbEntity
  8
0
370
     0
390
0
100
AcDbVertex
100
AcDb2dVertex
 10
102.085945
 20
102.246796
 30
0.0
  0
VERTEX
  5
124
100
AcDbEntity
  8
0
370
     0
390
0
100
AcDbVertex
100
AcDb2dVertex
 10
101.870056
 20
102.271355
 30
0.0
  0
VERTEX
  5
125
100
AcDbEntity
  8
0
370
     0
390
0
100
AcDbVertex
100
AcDb2dVertex
 10
101.669853
 20
102.305733
 30
0.0
  0
VERTEX
  5
126
100
AcDbEntity
  8
0
370
     0
390
0
100
AcDbVertex
100
AcDb2dVertex
 10
101.485336
 20
102.34993
 30
0.0
  0
VERTEX
  5
127
100
AcDbEntity
  8
0
370
     0
390
0
100
AcDbVertex
100
AcDb2dVertex
 10
101.316505
 20
102.403961
 30
0.0
  0
VERTEX
  5
128
100
AcDbEntity
  8
0
370
     0
390
0
100
AcDbVertex
100
AcDb2dVertex
 10
101.163368
 20
102.467804
 30
0.0
  0
VERTEX
  5
129
100
AcDbEntity
  8
0
370
     0
390
0
100
AcDbVertex
100
AcDb2dVertex
 10
101.025917
 20
102.541473
 30
0.0
  0
VERTEX
  5
12A
100
AcDbEntity
  8
0
370
     0
390
0
100
AcDbVertex
100
AcDb2dVertex
 10
100.90416
 20
102.624969
 30
0.0
  0
VERTEX
  5
12B
100
AcDbEntity
  8
0
370
     0
390
0
100
AcDbVertex
100
AcDb2dVertex
 10
100.798088
 20
102.718285
 30
0.0
  0
VERTEX
  5
12C
100
AcDbEntity
  8
0
370
     0
390
0
100
AcDbVertex
100
AcDb2dVertex
 10
100.704124
 20
102.819168
 30
0.0
  0
VERTEX
  5
12D
100
AcDbEntity
  8
0
370
     0
390
0
100
AcDbVertex
100
AcDb2dVertex
 10
100.61869
 20
102.925377
 30
0.0
  0
VERTEX
  5
12E
100
AcDbEntity
  8
0
370
     0
390
0
100
AcDbVertex
100
AcDb2dVertex
 10
100.541779
 20
103.036903
 30
0.0
  0
VERTEX
  5
12F
100
AcDbEntity
  8
0
370
     0
390
0
100
AcDbVertex
100
AcDb2dVertex
 10
100.473396
 20
103.153755
 30
0.0
  0
VERTEX
  5
130
100
AcDbEntity
  8
0
370
     0
390
0
100
AcDbVertex
100
AcDb2dVertex
 10
100.413544
 20
103.275925
 30
0.0
  0
VERTEX
  5
131
100
AcDbEntity
  8
0
370
     0
390
0
100
AcDbVertex
100
AcDb2dVertex
 10
100.362213
 20
103.403412
 30
0.0
  0
VERTEX
  5
132
100
AcDbEntity
  8
0
370
     0
390
0
100
AcDbVertex
100
AcDb2dVertex
 10
100.319405
 20
103.536224
 30
0.0
  0
VERTEX
  5
133
100
AcDbEntity
  8
0
370
     0
390
0
100
AcDbVertex
100
AcDb2dVertex
 10
100.285133
 20
103.674355
 30
0.0
  0
VERTEX
  5
134
100
AcDbEntity
  8
0
370
     0
390
0
100
AcDbVertex
100
AcDb2dVertex
 10
100.259377
 20
103.817802
 30
0.0
  0
SEQEND
  5
135
100
AcDbEntity
  8
0
370
     0
390
0
  0
POLYLINE
  5
136
100
AcDbEntity
  8
0
370
    13
390
0
 62
     7
100
AcDb2dPolyline
 66
     1
 10
0.0
 20
0.0
 30
0.0
 70
     1
 71
   136
  0
VERTEX
  5
137
100
AcDbEntity
  8
0
370
     0
390
0
100
AcDbVertex
100
AcDb2dVertex
 10
108.809685
 20
107.312416
 30
0.0
  0
VERTEX
  5
138
100
AcDbEntity
  8
0
370
     0
390
0
100
AcDbVertex
100
AcDb2dVertex
 10
110.351295
 20
107.312416
 30
0.0
  0
VERTEX
  5
139
100
AcDbEntity
  8
0
370
     0
390
0
100
AcDbVertex
100
AcDb2dVertex
 10
110.351295
 20
104.331512
 30
0.0
  0
VERTEX
  5
13A
100
AcDbEntity
  8
0
370
     0
390
0
100
AcDbVertex
100
AcDb2dVertex
 10
110.349915
 20
104.243332
 30
0.0
  0
VERTEX
  5
13B
100
AcDbEntity
  8
0
370
     0
390
0
100
AcDbVertex
100
AcDb2dVertex
 10
110.345772
 20
104.156143
 30
0.0
  0
VERTEX
  5
13C
100
AcDbEntity
  8
0
370
     0
390
0
100
AcDbVertex
100
AcDb2dVertex
 10
110.338867
 20
104.069939
 30
0.0
  0
VERTEX
  5
13D
100
AcDbEntity
  8
0
370
     0
390
0
100
AcDbVertex
100
AcDb2dVertex
 10
110.329193
 20
103.984718
 30
0.0
  0
VERTEX
  5
13E
100
AcDbEntity
  8
0
370
     0
390
0
100
AcDbVertex
100
AcDb2dVertex
 10
110.316765
 20
103.900497
 30
0.0
  0
VERTEX
  5
13F
100
AcDbEntity
  8
0
370
     0
390
0
100
AcDbVertex
100
AcDb2dVertex
 10
110.301567
 20
103.817261
 30
0.0
  0
VERTEX
  5
140
100
AcDbEntity
  8
0
370
     0
390
0
100
AcDbVertex
100
AcDb2dVertex
 10
110.283615
 20
103.735008
 30
0.0
  0
VERTEX
  5
141
100
AcDbEntity
  8
0
370
     0
390
0
100
AcDbVertex
100
AcDb2dVertex
 10
110.262894
 20
103.653755
 30
0.0
  0
VERTEX
  5
142
100
AcDbEntity
  8
0
370
     0
390
0
100
AcDbVertex
100
AcDb2dVertex
 10
110.23941
 20
103.573486
 30
0.0
  0
VERTEX
  5
143
100
AcDbEntity
  8
0
370
     0
390
0
100
AcDbVertex
100
AcDb2dVertex
 10
110.213165
 20
103.494202
 30
0.0
  0
VERTEX
  5
144
100
AcDbEntity
  8
0
370
     0
390
0
100
AcDbVertex
100
AcDb2dVertex
 10
110.183968
 20
103.416405
 30
0.0
  0
VERTEX
  5
145
100
AcDbEntity
  8
0
370
     0
390
0
100
AcDbVertex
100
AcDb2dVertex
 10
110.151634
 20
103.340591
 30
0.0
  0
VERTEX
  5
146
100
AcDbEntity
  8
0
370
     0
390
0
100
AcDbVertex
100
AcDb2dVertex
 10
110.116165
 20
103.266747
 30
0.0
  0
VERTEX
  5
147
100
AcDbEntity
  8
0
370
     0
390
0
100
AcDbVertex
100
AcDb2dVertex
 10
110.07756
 20
103.194885
 30
0.0
  0
VERTEX
  5
148
100
AcDbEntity
  8
0
370
     0
390
0
100
AcDbVertex
100
AcDb2dVertex
 10
110.035812
 20
103.125
 30
0.0
  0
VERTEX
  5
149
100
AcDbEntity
  8
0
370
     0
390
0
100
AcDbVertex
100
AcDb2dVertex
 10
109.990929
 20
103.057098
 30
0.0
  0
VERTEX
  5
14A
100
AcDbEntity
  8
0
370
     0
390
0
100
AcDbVertex
100
AcDb2dVertex
 10
109.942902
 20
102.991165
 30
0.0
  0
VERTEX
  5
14B
100
AcDbEntity
  8
0
370
     0
390
0
100
AcDbVertex
100
AcDb2dVertex
 10
109.891747
 20
102.927216
 30
0.0
  0
VERTEX
  5
14C
100
AcDbEntity
  8
0
370
     0
390
0
100
AcDbVertex
100
AcDb2dVertex
 10
109.837448
 20
102.86525
 30
0.0
  0
VERTEX
  5
14D
100
AcDbEntity
  8
0
370
     0
390
0
100
AcDbVertex
100
AcDb2dVertex
 10
109.780014
 20
102.805252
 30
0.0
  0
VERTEX
  5
14E
100
AcDbEntity
  8
0
370
     0
390
0
100
AcDbVertex
100
AcDb2dVertex
 10
109.720718
 20
102.748009
 30
0.0
  0
VERTEX
  5
14F
100
AcDbEntity
  8
0
370
     0
390
0
100
AcDbVertex
100
AcDb2dVertex
 10
109.660843
 20
102.694275
 30
0.0
  0
VERTEX
  5
150
100
AcDbEntity
  8
0
370
     0
390
0
100
AcDbVertex
100
AcDb2dVertex
 10
109.600388
 20
102.644051
 30
0.0
  0
VERTEX
  5
151
100
AcDbEntity
  8
0
370
     0
390
0
100
AcDbVertex
100
AcDb2dVertex
 10
109.53936
 20
102.597343
 30
0.0
  0
VERTEX
  5
152
100
AcDbEntity
  8
0
370
     0
390
0
100
AcDbVertex
100
AcDb2dVertex
 10
109.477745
 20
102.554146
 30
0.0
  0
VERTEX
  5
153
100
AcDbEntity
  8
0
370
     0
390
0
100
AcDbVertex
100
AcDb2dVertex
 10
109.41555
 20
102.514465
 30
0.0
  0
VERTEX
  5
154
100
AcDbEntity
  8
0
370
     0
390
0
100
AcDbVertex
100
AcDb2dVertex
 10
109.352783
 20
102.478294
 30
0.0
  0
VERTEX
  5
155
100
AcDbEntity
  8
0
370
     0
390
0
100
AcDbVertex
100
AcDb2dVertex
 10
109.289429
 20
102.445633
 30
0.0
  0
VERTEX
  5
156
100
AcDbEntity
  8
0
370
     0
390
0
100
AcDbVertex
100
AcDb2dVertex
 10
109.225494
 20
102.416489
 30
0.0
  0
VERTEX
  5
157
100
AcDbEntity
  8
0
370
     0
390
0
100
AcDbVertex
100
AcDb2dVertex
 10
109.16098
 20
102.390862
 30
0.0
  0
VERTEX
  5
158
100
AcDbEntity
  8
0
370
     0
390
0
100
AcDbVertex
100
AcDb2dVertex
 10
109.069138
 20
102.359108
 30
0.0
  0
VERTEX
  5
159
100
AcDbEntity
  8
0
370
     0
390
0
100
AcDbVertex
100
AcDb2dVertex
 10
108.973671
 20
102.330696
 30
0.0
  0
VERTEX
  5
15A
100
AcDbEntity
  8
0
370
     0
390
0
100
AcDbVertex
100
AcDb2dVertex
 10
108.874588
 20
102.305626
 30
0.0
  0
VERTEX
  5
15B
100
AcDbEntity
  8
0
370
     0
390
0
100
AcDbVertex
100
AcDb2dVertex
 10
108.771896
 20
102.283905
 30
0.0
  0
VERTEX
  5
15C
100
AcDbEntity
  8
0
370
     0
390
0
100
AcDbVertex
100
AcDb2dVertex
 10
108.665588
 20
102.265518
 30
0.0
  0
VERTEX
  5
15D
100
AcDbEntity
  8
0
370
     0
390
0
100
AcDbVertex
100
AcDb2dVertex
 10
108.555664
 20
102.250481
 30
0.0
  0
VERTEX
  5
15E
100
AcDbEntity
  8
0
370
     0
390
0
100
AcDbVertex
100
AcDb2dVertex
 10
108.442123
 20
102.238777
 30
0.0
  0
VERTEX
  5
15F
100
AcDbEntity
  8
0
370
     0
390
0
100
AcDbVertex
100
AcDb2dVertex
 10
108.324966
 20
102.230423
 30
0.0
  0
VERTEX
  5
160
100
AcDbEntity
  8
0
370
     0
390
0
100
AcDbVertex
100
AcDb2dVertex
 10
108.204193
 20
102.22541
 30
0.0
  0
VERTEX
  5
161
100
AcDbEntity
  8
0
370
     0
390
0
100
AcDbVertex
100
AcDb2dVertex
 10
108.079811
 20
102.22374
 30
0.0
  0
VERTEX
  5
162
100
AcDbEntity
  8
0
370
     0
390
0
100
AcDbVertex
100
AcDb2dVertex
 10
108.006157
 20
102.224251
 30
0.0
  0
VERTEX
  5
163
100
AcDbEntity
  8
0
370
     0
390
0
100
AcDbVertex
100
AcDb2dVertex
 10
107.931175
 20
102.225784
 30
0.0
  0
VERTEX
  5
164
100
AcDbEntity
  8
0
370
     0
390
0
100
AcDbVertex
100
AcDb2dVertex
 10
107.854858
 20
102.22834
 30
0.0
  0
VERTEX
  5
165
100
AcDbEntity
  8
0
370
     0
390
0
100
AcDbVertex
100
AcDb2dVertex
 10
107.777214
 20
102.231926
 30
0.0
  0
VERTEX
  5
166
100
AcDbEntity
  8
0
370
     0
390
0
100
AcDbVertex
100
AcDb2dVertex
 10
107.698242
 20
102.236526
 30
0.0
  0
VERTEX
  5
167
100
AcDbEntity
  8
0
370
     0
390
0
100
AcDbVertex
100
AcDb2dVertex
 10
107.617943
 20
102.242157
 30
0.0
  0
VERTEX
  5
168
100
AcDbEntity
  8
0
370
     0
390
0
100
AcDbVertex
100
AcDb2dVertex
 10
107.536308
 20
102.24881
 30
0.0
  0
VERTEX
  5
169
100
AcDbEntity
  8
0
370
     0
390
0
100
AcDbVertex
100
AcDb2dVertex
 10
107.453339
 20
102.256485
 30
0.0
  0
VERTEX
  5
16A
100
AcDbEntity
  8
0
370
     0
390
0
100
AcDbVertex
100
AcDb2dVertex
 10
107.369049
 20
102.265182
 30
0.0
  0
VERTEX
  5
16B
100
AcDbEntity
  8
0
370
     0
390
0
100
AcDbVertex
100
AcDb2dVertex
 10
107.283424
 20
102.274902
 30
0.0
  0
VERTEX
  5
16C
100
AcDbEntity
  8
0
370
     0
390
0
100
AcDbVertex
100
AcDb2dVertex
 10
107.198547
 20
102.28614
 30
0.0
  0
VERTEX
  5
16D
100
AcDbEntity
  8
0
370
     0
390
0
100
AcDbVertex
100
AcDb2dVertex
 10
107.116508
 20
102.299385
 30
0.0
  0
VERTEX
  5
16E
100
AcDbEntity
  8
0
370
     0
390
0
100
AcDbVertex
100
AcDb2dVertex
 10
107.037292
 20
102.314651
 30
0.0
  0
VERTEX
  5
16F
100
AcDbEntity
  8
0
370
     0
390
0
100
AcDbVertex
100
AcDb2dVertex
 10
106.960915
 20
102.331924
 30
0.0
  0
VERTEX
  5
170
100
AcDbEntity
  8
0
370
     0
390
0
100
AcDbVertex
100
AcDb2dVertex
 10
106.88736
 20
102.351212
 30
0.0
  0
VERTEX
  5
171
100
AcDbEntity
  8
0
370
     0
390
0
100
AcDbVertex
100
AcDb2dVertex
 10
106.816643
 20
102.372513
 30
0.0
  0
VERTEX
  5
172
100
AcDbEntity
  8
0
370
     0
390
0
100
AcDbVertex
100
AcDb2dVertex
 10
106.748756
 20
102.395821
 30
0.0
  0
VERTEX
  5
173
100
AcDbEntity
  8
0
370
     0
390
0
100
AcDbVertex
100
AcDb2dVertex
 10
106.683701
 20
102.42115
 30
0.0
  0
VERTEX
  5
174
100
AcDbEntity
  8
0
370
     0
390
0
100
AcDbVertex
100
AcDb2dVertex
 10
106.621468
 20
102.448486
 30
0.0
  0
VERTEX
  5
175
100
AcDbEntity
  8
0
370
     0
390
0
100
AcDbVertex
100
AcDb2dVertex
 10
106.562073
 20
102.477829
 30
0.0
  0
VERTEX
  5
176
100
AcDbEntity
  8
0
370
     0
390
0
100
AcDbVertex
100
AcDb2dVertex
 10
106.504585
 20
102.509468
 30
0.0
  0
VERTEX
  5
177
100
AcDbEntity
  8
0
370
     0
390
0
100
AcDbVertex
100
AcDb2dVertex
 10
106.44809
 20
102.543655
 30
0.0
  0
VERTEX
  5
178
100
AcDbEntity
  8
0
370
     0
390
0
100
AcDbVertex
100
AcDb2dVertex
 10
106.392578
 20
102.580406
 30
0.0
  0
VERTEX
  5
179
100
AcDbEntity
  8
0
370
     0
390
0
100
AcDbVertex
100
AcDb2dVertex
 10
106.338058
 20
102.619713
 30
0.0
  0
VERTEX
  5
17A
100
AcDbEntity
  8
0
370
     0
390
0
100
AcDbVertex
100
AcDb2dVertex
 10
106.284531
 20
102.661583
 30
0.0
  0
VERTEX
  5
17B
100
AcDbEntity
  8
0
370
     0
390
0
100
AcDbVertex
100
AcDb2dVertex
 10
106.231995
 20
102.706001
 30
0.0
  0
VERTEX
  5
17C
100
AcDbEntity
  8
0
370
     0
390
0
100
AcDbVertex
100
AcDb2dVertex
 10
106.180443
 20
102.752983
 30
0.0
  0
VERTEX
  5
17D
100
AcDbEntity
  8
0
370
     0
390
0
100
AcDbVertex
100
AcDb2dVertex
 10
106.129875
 20
102.802528
 30
0.0
  0
VERTEX
  5
17E
100
AcDbEntity
  8
0
370
     0
390
0
100
AcDbVertex
100
AcDb2dVertex
 10
106.080307
 20
102.854622
 30
0.0
  0
VERTEX
  5
17F
100
AcDbEntity
  8
0
370
     0
390
0
100
AcDbVertex
100
AcDb2dVertex
 10
106.031715
 20
102.909279
 30
0.0
  0
VERTEX
  5
180
100
AcDbEntity
  8
0
370
     0
390
0
100
AcDbVertex
100
AcDb2dVertex
 10
105.985146
 20
102.965385
 30
0.0
  0
VERTEX
  5
181
100
AcDbEntity
  8
0
370
     0
390
0
100
AcDbVertex
100
AcDb2dVertex
 10
105.941612
 20
103.021828
 30
0.0
  0
VERTEX
  5
182
100
AcDbEntity
  8
0
370
     0
390
0
100
AcDbVertex
100
AcDb2dVertex
 10
105.901108
 20
103.078613
 30
0.0
  0
VERTEX
  5
183
100
AcDbEntity
  8
0
370
     0
390
0
100
AcDbVertex
100
AcDb2dVertex
 10
105.86364
 20
103.135742
 30
0.0
  0
VERTEX
  5
184
100
AcDbEntity
  8
0
370
     0
390
0
100
AcDbVertex
100
AcDb2dVertex
 10
105.829208
 20
103.193214
 30
0.0
  0
VERTEX
  5
185
100
AcDbEntity
  8
0
370
     0
390
0
100
AcDbVertex
100
AcDb2dVertex
 10
105.797821
 20
103.251022
 30
0.0
  0
VERTEX
  5
186
100
AcDbEntity
  8
0
370
     0
390
0
100
AcDbVertex
100
AcDb2dVertex
 10
105.769455
 20
103.309174
 30
0.0
  0
VERTEX
  5
187
100
AcDbEntity
  8
0
370
     0
390
0
100
AcDbVertex
100
AcDb2dVertex
 10
105.744133
 20
103.367668
 30
0.0
  0
VERTEX
  5
188
100
AcDbEntity
  8
0
370
     0
390
0
100
AcDbVertex
100
AcDb2dVertex
 10
105.721848
 20
103.426498
 30
0.0
  0
VERTEX
  5
189
100
AcDbEntity
  8
0
370
     0
390
0
100
AcDbVertex
100
AcDb2dVertex
 10
105.702591
 20
103.48568
 30
0.0
  0
VERTEX
  5
18A
100
AcDbEntity
  8
0
370
     0
390
0
100
AcDbVertex
100
AcDb2dVertex
 10
105.675377
 20
103.580086
 30
0.0
  0
VERTEX
  5
18B
100
AcDbEntity
  8
0
370
     0
390
0
100
AcDbVertex
100
AcDb2dVertex
 10
105.651024
 20
103.67231
 30
0.0
  0
VERTEX
  5
18C
100
AcDbEntity
  8
0
370
     0
390
0
100
AcDbVertex
100
AcDb2dVertex
 10
105.629532
 20
103.762344
 30
0.0
  0
VERTEX
  5
18D
100
AcDbEntity
  8
0
370
     0
390
0
100
AcDbVertex
100
AcDb2dVertex
 10
105.610916
 20
103.850204
 30
0.0
  0
VERTEX
  5
18E
100
AcDbEntity
  8
0
370
     0
390
0
100
AcDbVertex
100
AcDb2dVertex
 10
105.595154
 20
103.935883
 30
0.0
  0
VERTEX
  5
18F
100
AcDbEntity
  8
0
370
     0
390
0
100
AcDbVertex
100
AcDb2dVertex
 10
105.582268
 20
104.019371
 30
0.0
  0
VERTEX
  5
190
100
AcDbEntity
  8
0
370
     0
390
0
100
AcDbVertex
100
AcDb2dVertex
 10
105.572235
 20
104.100685
 30
0.0
  0
VERTEX
  5
191
100
AcDbEntity
  8
0
370
     0
390
0
100
AcDbVertex
100
AcDb2dVertex
 10
105.565079
 20
104.17981
 30
0.0
  0
VERTEX
  5
192
100
AcDbEntity
  8
0
370
     0
390
0
100
AcDbVertex
100
AcDb2dVertex
 10
105.560776
 20
104.256752
 30
0.0
  0
VERTEX
  5
193
100
AcDbEntity
  8
0
370
     0
390
0
100
AcDbVertex
100
AcDb2dVertex
 10
105.559341
 20
104.331512
 30
0.0
  0
VERTEX
  5
194
100
AcDbEntity
  8
0
370
     0
390
0
100
AcDbVertex
100
AcDb2dVertex
 10
105.559341
 20
107.312416
 30
0.0
  0
VERTEX
  5
195
100
AcDbEntity
  8
0
370
     0
390
0
100
AcDbVertex
100
AcDb2dVertex
 10
107.100952
 20
107.312416
 30
0.0
  0
VERTEX
  5
196
100
AcDbEntity
  8
0
370
     0
390
0
100
AcDbVertex
100
AcDb2dVertex
 10
107.100952
 20
104.259895
 30
0.0
  0
VERTEX
  5
197
100
AcDbEntity
  8
0
370
     0
390
0
100
AcDbVertex
100
AcDb2dVertex
 10
107.103226
 20
104.179825
 30
0.0
  0
VERTEX
  5
198
100
AcDbEntity
  8
0
370
     0
390
0
100
AcDbVertex
100
AcDb2dVertex
 10
107.110031
 20
104.10334
 30
0.0
  0
VERTEX
  5
199
100
AcDbEntity
  8
0
370
     0
390
0
100
AcDbVertex
100
AcDb2dVertex
 10
107.121368
 20
104.030441
 30
0.0
  0
VERTEX
  5
19A
100
AcDbEntity
  8
0
370
     0
390
0
100
AcDbVertex
100
AcDb2dVertex
 10
107.137245
 20
103.961121
 30
0.0
  0
VERTEX
  5
19B
100
AcDbEntity
  8
0
370
     0
390
0
100
AcDbVertex
100
AcDb2dVertex
 10
107.157654
 20
103.895378
 30
0.0
  0
VERTEX
  5
19C
100
AcDbEntity
  8
0
370
     0
390
0
100
AcDbVertex
100
AcDb2dVertex
 10
107.182602
 20
103.833221
 30
0.0
  0
VERTEX
  5
19D
100
AcDbEntity
  8
0
370
     0
390
0
100
AcDbVertex
100
AcDb2dVertex
 10
107.21209
 20
103.774643
 30
0.0
  0
VERTEX
  5
19E
100
AcDbEntity
  8
0
370
     0
390
0
100
AcDbVertex
100
AcDb2dVertex
 10
107.246109
 20
103.71965
 30
0.0
  0
VERTEX
  5
19F
100
AcDbEntity
  8
0
370
     0
390
0
100
AcDbVertex
100
AcDb2dVertex
 10
107.284668
 20
103.668228
 30
0.0
  0
VERTEX
  5
1A0
100
AcDbEntity
  8
0
370
     0
390
0
100
AcDbVertex
100
AcDb2dVertex
 10
107.327759
 20
103.620399
 30
0.0
  0
VERTEX
  5
1A1
100
AcDbEntity
  8
0
370
     0
390
0
100
AcDbVertex
100
AcDb2dVertex
 10
107.374878
 20
103.576653
 30
0.0
  0
VERTEX
  5
1A2
100
AcDbEntity
  8
0
370
     0
390
0
100
AcDbVertex
100
AcDb2dVertex
 10
107.425514
 20
103.537521
 30
0.0
  0
VERTEX
  5
1A3
100
AcDbEntity
  8
0
370
     0
390
0
100
AcDbVertex
100
AcDb2dVertex
 10
107.479652
 20
103.502983
 30
0.0
  0
VERTEX
  5
1A4
100
AcDbEntity
  8
0
370
     0
390
0
100
AcDbVertex
100
AcDb2dVertex
 10
107.537315
 20
103.473061
 30
0.0
  0
VERTEX
  5
1A5
100
AcDbEntity
  8
0
370
     0
390
0
100
AcDbVertex
100
AcDb2dVertex
 10
107.59848
 20
103.447731
 30
0.0
  0
VERTEX
  5
1A6
100
AcDbEntity
  8
0
370
     0
390
0
100
AcDbVertex
100
AcDb2dVertex
 10
107.663162
 20
103.427017
 30
0.0
  0
VERTEX
  5
1A7
100
AcDbEntity
  8
0
370
     0
390
0
100
AcDbVertex
100
AcDb2dVertex
 10
107.731361
 20
103.410896
 30
0.0
  0
VERTEX
  5
1A8
100
AcDbEntity
  8
0
370
     0
390
0
100
AcDbVertex
100
AcDb2dVertex
 10
107.80307
 20
103.399391
 30
0.0
  0
VERTEX
  5
1A9
100
AcDbEntity
  8
0
370
     0
390
0
100
AcDbVertex
100
AcDb2dVertex
 10
107.878288
 20
103.392479
 30
0.0
  0
VERTEX
  5
1AA
100
AcDbEntity
  8
0
370
     0
390
0
100
AcDbVertex
100
AcDb2dVertex
 10
107.957024
 20
103.390182
 30
0.0
  0
VERTEX
  5
1AB
100
AcDbEntity
  8
0
370
     0
390
0
100
AcDbVertex
100
AcDb2dVertex
 10
108.03511
 20
103.392448
 30
0.0
  0
VERTEX
  5
1AC
100
AcDbEntity
  8
0
370
     0
390
0
100
AcDbVertex
100
AcDb2dVertex
 10
108.109756
 20
103.399254
 30
0.0
  0
VERTEX
  5
1AD
100
AcDbEntity
  8
0
370
     0
390
0
100
AcDbVertex
100
AcDb2dVertex
 10
108.180954
 20
103.410591
 30
0.0
  0
VERTEX
  5
1AE
100
AcDbEntity
  8
0
370
     0
390
0
100
AcDbVertex
100
AcDb2dVertex
 10
108.248703
 20
103.426468
 30
0.0
  0
VERTEX
  5
1AF
100
AcDbEntity
  8
0
370
     0
390
0
100
AcDbVertex
100
AcDb2dVertex
 10
108.313011
 20
103.446884
 30
0.0
  0
VERTEX
  5
1B0
100
AcDbEntity
  8
0
370
     0
390
0
100
AcDbVertex
100
AcDb2dVertex
 10
108.373871
 20
103.471832
 30
0.0
  0
VERTEX
  5
1B1
100
AcDbEntity
  8
0
370
     0
390
0
100
AcDbVertex
100
AcDb2dVertex
 10
108.43129
 20
103.501312
 30
0.0
  0
VERTEX
  5
1B2
100
AcDbEntity
  8
0
370
     0
390
0
100
AcDbVertex
100
AcDb2dVertex
 10
108.485268
 20
103.535339
 30
0.0
  0
VERTEX
  5
1B3
100
AcDbEntity
  8
0
370
     0
390
0
100
AcDbVertex
100
AcDb2dVertex
 10
108.535797
 20
103.573891
 30
0.0
  0
VERTEX
  5
1B4
100
AcDbEntity
  8
0
370
     0
390
0
100
AcDbVertex
100
AcDb2dVertex
 10
108.582878
 20
103.616989
 30
0.0
  0
VERTEX
  5
1B5
100
AcDbEntity
  8
0
370
     0
390
0
100
AcDbVertex
100
AcDb2dVertex
 10
108.625969
 20
103.664238
 30
0.0
  0
VERTEX
  5
1B6
100
AcDbEntity
  8
0
370
     0
390
0
100
AcDbVertex
100
AcDb2dVertex
 10
108.664528
 20
103.715279
 30
0.0
  0
VERTEX
  5
1B7
100
AcDbEntity
  8
0
370
     0
390
0
100
AcDbVertex
100
AcDb2dVertex
 10
108.698547
 20
103.770103
 30
0.0
  0
VERTEX
  5
1B8
100
AcDbEntity
  8
0
370
     0
390
0
100
AcDbVertex
100
AcDb2dVertex
 10
108.728035
 20
103.82872
 30
0.0
  0
VERTEX
  5
1B9
100
AcDbEntity
  8
0
370
     0
390
0
100
AcDbVertex
100
AcDb2dVertex
 10
108.752983
 20
103.891113
 30
0.0
  0
VERTEX
  5
1BA
100
AcDbEntity
  8
0
370
     0
390
0
100
AcDbVertex
100
AcDb2dVertex
 10
108.773399
 20
103.957298
 30
0.0
  0
VERTEX
  5
1BB
100
AcDbEntity
  8
0
370
     0
390
0
100
AcDbVertex
100
AcDb2dVertex
 10
108.789276
 20
104.027267
 30
0.0
  0
VERTEX
  5
1BC
100
AcDbEntity
  8
0
370
     0
390
0
100
AcDbVertex
100
AcDb2dVertex
 10
108.800613
 20
104.101021
 30
0.0
  0
VERTEX
  5
1BD
100
AcDbEntity
  8
0
370
     0
390
0
100
AcDbVertex
100
AcDb2dVertex
 10
108.807419
 20
104.178566
 30
0.0
  0
VERTEX
  5
1BE
100
AcDbEntity
  8
0
370
     0
390
0
100
AcDbVertex
100
AcDb2dVertex
 10
108.809685
 20
104.259895
 30
0.0
  0
SEQEND
  5
1BF
100
AcDbEntity
  8
0
370
     0
390
0
  0
POLYLINE
  5
1C0
100
AcDbEntity
  8
0
370
    13
390
0
 62
     7
100
AcDb2dPolyline
 66
     1
 10
0.0
 20
0.0
 30
0.0
 70
     1
 71
     6
  0
VERTEX
  5
1C1
100
AcDbEntity
  8
0
370
     0
390
0
100
AcDbVertex
100
AcDb2dVertex
 10
111.374489
 20
107.312416
 30
0.0
  0
VERTEX
  5
1C2
100
AcDbEntity
  8
0
370
     0
390
0
100
AcDbVertex
100
AcDb2dVertex
 10
112.91951
 20
107.312416
 30
0.0
  0
VERTEX
  5
1C3
100
AcDbEntity
  8
0
370
     0
390
0
100
AcDbVertex
100
AcDb2dVertex
 10
112.91951
 20
103.543655
 30
0.0
  0
VERTEX
  5
1C4
100
AcDbEntity
  8
0
370
     0
390
0
100
AcDbVertex
100
AcDb2dVertex
 10
115.330833
 20
103.543655
 30
0.0
  0
VERTEX
  5
1C5
100
AcDbEntity
  8
0
370
     0
390
0
100
AcDbVertex
100
AcDb2dVertex
 10
115.330833
 20
102.312416
 30
0.0
  0
VERTEX
  5
1C6
100
AcDbEntity
  8
0
370
     0
390
0
100
AcDbVertex
100
AcDb2dVertex
 10
111.374489
 20
102.312416
 30
0.0
  0
SEQEND
  5
1C7
100
AcDbEntity
  8
0
370
     0
390
0
  0
POLYLINE
  5
1C8
100
AcDbEntity
  8
0
370
    13
390
0
 62
     7
100
AcDb2dPolyline
 66
     1
 10
0.0
 20
0.0
 30
0.0
 70
     1
 71
   100
  0
VERTEX
  5
1C9
100
AcDbEntity
  8
0
370
     0
390
0
100
AcDbVertex
100
AcDb2dVertex
 10
115.83902
 20
104.809006
 30
0.0
  0
VERTEX
  5
1CA
100
AcDbEntity
  8
0
370
     0
390
0
100
AcDbVertex
100
AcDb2dVertex
 10
115.84584
 20
105.04847
 30
0.0
  0
VERTEX
  5
1CB
100
AcDbEntity
  8
0
370
     0
390
0
100
AcDbVertex
100
AcDb2dVertex
 10
115.866302
 20
105.277084
 30
0.0
  0
VERTEX
  5
1CC
100
AcDbEntity
  8
0
370
     0
390
0
100
AcDbVertex
100
AcDb2dVertex
 10
115.900406
 20
105.49485
 30
0.0
  0
VERTEX
  5
1CD
100
AcDbEntity
  8
0
370
     0
390
0
100
AcDbVertex
100
AcDb2dVertex
 10
115.948158
 20
105.701775
 30
0.0
  0
VERTEX
  5
1CE
100
AcDbEntity
  8
0
370
     0
390
0
100
AcDbVertex
100
AcDb2dVertex
 10
116.009552
 20
105.89785
 30
0.0
  0
VERTEX
  5
1CF
100
AcDbEntity
  8
0
370
     0
390
0
100
AcDbVertex
100
AcDb2dVertex
 10
116.084579
 20
106.083084
 30
0.0
  0
VERTEX
  5
1D0
100
AcDbEntity
  8
0
370
     0
390
0
100
AcDbVertex
100
AcDb2dVertex
 10
116.173264
 20
106.257469
 30
0.0
  0
VERTEX
  5
1D1
100
AcDbEntity
  8
0
370
     0
390
0
100
AcDbVertex
100
AcDb2dVertex
 10
116.275581
 20
106.421013
 30
0.0
  0
VERTEX
  5
1D2
100
AcDbEntity
  8
0
370
     0
390
0
100
AcDbVertex
100
AcDb2dVertex
 10
116.391541
 20
106.573708
 30
0.0
  0
VERTEX
  5
1D3
100
AcDbEntity
  8
0
370
     0
390
0
100
AcDbVertex
100
AcDb2dVertex
 10
116.521149
 20
106.715553
 30
0.0
  0
VERTEX
  5
1D4
100
AcDbEntity
  8
0
370
     0
390
0
100
AcDbVertex
100
AcDb2dVertex
 10
116.662926
 20
106.845161
 30
0.0
  0
VERTEX
  5
1D5
100
AcDbEntity
  8
0
370
     0
390
0
100
AcDbVertex
100
AcDb2dVertex
 10
116.815414
 20
106.961121
 30
0.0
  0
VERTEX
  5
1D6
100
AcDbEntity
  8
0
370
     0
390
0
100
AcDbVertex
100
AcDb2dVertex
 10
116.978615
 20
107.063438
 30
0.0
  0
VERTEX
  5
1D7
100
AcDbEntity
  8
0
370
     0
390
0
100
AcDbVertex
100
AcDb2dVertex
 10
117.152527
 20
107.152115
 30
0.0
  0
VERTEX
  5
1D8
100
AcDbEntity
  8
0
370
     0
390
0
100
AcDbVertex
100
AcDb2dVertex
 10
117.337143
 20
107.22715
 30
0.0
  0
VERTEX
  5
1D9
100
AcDbEntity
  8
0
370
     0
390
0
100
AcDbVertex
100
AcDb2dVertex
 10
117.532471
 20
107.288544
 30
0.0
  0
VERTEX
  5
1DA
100
AcDbEntity
  8
0
370
     0
390
0
100
AcDbVertex
100
AcDb2dVertex
 10
117.73851
 20
107.336288
 30
0.0
  0
VERTEX
  5
1DB
100
AcDbEntity
  8
0
370
     0
390
0
100
AcDbVertex
100
AcDb2dVertex
 10
117.955254
 20
107.370399
 30
0.0
  0
VERTEX
  5
1DC
100
AcDbEntity
  8
0
370
     0
390
0
100
AcDbVertex
100
AcDb2dVertex
 10
118.182709
 20
107.390862
 30
0.0
  0
VERTEX
  5
1DD
100
AcDbEntity
  8
0
370
     0
390
0
100
AcDbVertex
100
AcDb2dVertex
 10
118.420868
 20
107.397682
 30
0.0
  0
VERTEX
  5
1DE
100
AcDbEntity
  8
0
370
     0
390
0
100
AcDbVertex
100
AcDb2dVertex
 10
118.664803
 20
107.390984
 30
0.0
  0
VERTEX
  5
1DF
100
AcDbEntity
  8
0
370
     0
390
0
100
AcDbVertex
100
AcDb2dVertex
 10
118.89727
 20
107.370872
 30
0.0
  0
VERTEX
  5
1E0
100
AcDbEntity
  8
0
370
     0
390
0
100
AcDbVertex
100
AcDb2dVertex
 10
119.118279
 20
107.337364
 30
0.0
  0
VERTEX
  5
1E1
100
AcDbEntity
  8
0
370
     0
390
0
100
AcDbVertex
100
AcDb2dVertex
 10
119.327827
 20
107.290451
 30
0.0
  0
VERTEX
  5
1E2
100
AcDbEntity
  8
0
370
     0
390
0
100
AcDbVertex
100
AcDb2dVertex
 10
119.525925
 20
107.230133
 30
0.0
  0
VERTEX
  5
1E3
100
AcDbEntity
  8
0
370
     0
390
0
100
AcDbVertex
100
AcDb2dVertex
 10
119.712547
 20
107.15641
 30
0.0
  0
VERTEX
  5
1E4
100
AcDbEntity
  8
0
370
     0
390
0
100
AcDbVertex
100
AcDb2dVertex
 10
119.887726
 20
107.06929
 30
0.0
  0
VERTEX
  5
1E5
100
AcDbEntity
  8
0
370
     0
390
0
100
AcDbVertex
100
AcDb2dVertex
 10
120.05143
 20
106.968758
 30
0.0
  0
VERTEX
  5
1E6
100
AcDbEntity
  8
0
370
     0
390
0
100
AcDbVertex
100
AcDb2dVertex
 10
120.203682
 20
106.854828
 30
0.0
  0
VERTEX
  5
1E7
100
AcDbEntity
  8
0
370
     0
390
0
100
AcDbVertex
100
AcDb2dVertex
 10
120.344475
 20
106.727493
 30
0.0
  0
VERTEX
  5
1E8
100
AcDbEntity
  8
0
370
     0
390
0
100
AcDbVertex
100
AcDb2dVertex
 10
120.472778
 20
106.588081
 30
0.0
  0
VERTEX
  5
1E9
100
AcDbEntity
  8
0
370
     0
390
0
100
AcDbVertex
100
AcDb2dVertex
 10
120.587585
 20
106.437927
 30
0.0
  0
VERTEX
  5
1EA
100
AcDbEntity
  8
0
370
     0
390
0
100
AcDbVertex
100
AcDb2dVertex
 10
120.688881
 20
106.277031
 30
0.0
  0
VERTEX
  5
1EB
100
AcDbEntity
  8
0
370
     0
390
0
100
AcDbVertex
100
AcDb2dVertex
 10
120.776672
 20
106.105392
 30
0.0
  0
VERTEX
  5
1EC
100
AcDbEntity
  8
0
370
     0
390
0
100
AcDbVertex
100
AcDb2dVertex
 10
120.850952
 20
105.923004
 30
0.0
  0
VERTEX
  5
1ED
100
AcDbEntity
  8
0
370
     0
390
0
100
AcDbVertex
100
AcDb2dVertex
 10
120.911736
 20
105.729881
 30
0.0
  0
VERTEX
  5
1EE
100
AcDbEntity
  8
0
370
     0
390
0
100
AcDbVertex
100
AcDb2dVertex
 10
120.959
 20
105.526009
 30
0.0
  0
VERTEX
  5
1EF
100
AcDbEntity
  8
0
370
     0
390
0
100
AcDbVertex
100
AcDb2dVertex
 10
120.992767
 20
105.311394
 30
0.0
  0
VERTEX
  5
1F0
100
AcDbEntity
  8
0
370
     0
390
0
100
AcDbVertex
100
AcDb2dVertex
 10
121.013031
 20
105.086037
 30
0.0
  0
VERTEX
  5
1F1
100
AcDbEntity
  8
0
370
     0
390
0
100
AcDbVertex
100
AcDb2dVertex
 10
121.019783
 20
104.84993
 30
0.0
  0
VERTEX
  5
1F2
100
AcDbEntity
  8
0
370
     0
390
0
100
AcDbVertex
100
AcDb2dVertex
 10
121.01683
 20
104.67778
 30
0.0
  0
VERTEX
  5
1F3
100
AcDbEntity
  8
0
370
     0
390
0
100
AcDbVertex
100
AcDb2dVertex
 10
121.00798
 20
104.51194
 30
0.0
  0
VERTEX
  5
1F4
100
AcDbEntity
  8
0
370
     0
390
0
100
AcDbVertex
100
AcDb2dVertex
 10
120.993225
 20
104.352409
 30
0.0
  0
VERTEX
  5
1F5
100
AcDbEntity
  8
0
370
     0
390
0
100
AcDbVertex
100
AcDb2dVertex
 10
120.97258
 20
104.199181
 30
0.0
  0
VERTEX
  5
1F6
100
AcDbEntity
  8
0
370
     0
390
0
100
AcDbVertex
100
AcDb2dVertex
 10
120.94603
 20
104.052269
 30
0.0
  0
VERTEX
  5
1F7
100
AcDbEntity
  8
0
370
     0
390
0
100
AcDbVertex
100
AcDb2dVertex
 10
120.913574
 20
103.911667
 30
0.0
  0
VERTEX
  5
1F8
100
AcDbEntity
  8
0
370
     0
390
0
100
AcDbVertex
100
AcDb2dVertex
 10
120.875221
 20
103.777374
 30
0.0
  0
VERTEX
  5
1F9
100
AcDbEntity
  8
0
370
     0
390
0
100
AcDbVertex
100
AcDb2dVertex
 10
120.830971
 20
103.649384
 30
0.0
  0
VERTEX
  5
1FA
100
AcDbEntity
  8
0
370
     0
390
0
100
AcDbVertex
100
AcDb2dVertex
 10
120.780815
 20
103.52771
 30
0.0
  0
VERTEX
  5
1FB
100
AcDbEntity
  8
0
370
     0
390
0
100
AcDbVertex
100
AcDb2dVertex
 10
120.724762
 20
103.412346
 30
0.0
  0
VERTEX
  5
1FC
100
AcDbEntity
  8
0
370
     0
390
0
100
AcDbVertex
100
AcDb2dVertex
 10
120.663132
 20
103.302628
 30
0.0
  0
VERTEX
  5
1FD
100
AcDbEntity
  8
0
370
     0
390
0
100
AcDbVertex
100
AcDb2dVertex
 10
120.596245
 20
103.197884
 30
0.0
  0
VERTEX
  5
1FE
100
AcDbEntity
  8
0
370
     0
390
0
100
AcDbVertex
100
AcDb2dVertex
 10
120.524109
 20
103.098129
 30
0.0
  0
VERTEX
  5
1FF
100
AcDbEntity
  8
0
370
     0
390
0
100
AcDbVertex
100
AcDb2dVertex
 10
120.446724
 20
103.003342
 30
0.0
  0
VERTEX
  5
200
100
AcDbEntity
  8
0
370
     0
390
0
100
AcDbVertex
100
AcDb2dVertex
 10
120.36409
 20
102.913544
 30
0.0
  0
VERTEX
  5
201
100
AcDbEntity
  8
0
370
     0
390
0
100
AcDbVertex
100
AcDb2dVertex
 10
120.276192
 20
102.82872
 30
0.0
  0
VERTEX
  5
202
100
AcDbEntity
  8
0
370
     0
390
0
100
AcDbVertex
100
AcDb2dVertex
 10
120.183044
 20
102.748878
 30
0.0
  0
VERTEX
  5
203
100
AcDbEntity
  8
0
370
     0
390
0
100
AcDbVertex
100
AcDb2dVertex
 10
120.084656
 20
102.674011
 30
0.0
  0
VERTEX
  5
204
100
AcDbEntity
  8
0
370
     0
390
0
100
AcDbVertex
100
AcDb2dVertex
 10
119.981003
 20
102.604126
 30
0.0
  0
VERTEX
  5
205
100
AcDbEntity
  8
0
370
     0
390
0
100
AcDbVertex
100
AcDb2dVertex
 10
119.872101
 20
102.539223
 30
0.0
  0
VERTEX
  5
206
100
AcDbEntity
  8
0
370
     0
390
0
100
AcDbVertex
100
AcDb2dVertex
 10
119.757828
 20
102.479927
 30
0.0
  0
VERTEX
  5
207
100
AcDbEntity
  8
0
370
     0
390
0
100
AcDbVertex
100
AcDb2dVertex
 10
119.638062
 20
102.42688
 30
0.0
  0
VERTEX
  5
208
100
AcDbEntity
  8
0
370
     0
390
0
100
AcDbVertex
100
AcDb2dVertex
 10
119.51281
 20
102.380066
 30
0.0
  0
VERTEX
  5
209
100
AcDbEntity
  8
0
370
     0
390
0
100
AcDbVertex
100
AcDb2dVertex
 10
119.382057
 20
102.339493
 30
0.0
  0
VERTEX
  5
20A
100
AcDbEntity
  8
0
370
     0
390
0
100
AcDbVertex
100
AcDb2dVertex
 10
119.245819
 20
102.305168
 30
0.0
  0
VERTEX
  5
20B
100
AcDbEntity
  8
0
370
     0
390
0
100
AcDbVertex
100
AcDb2dVertex
 10
119.104095
 20
102.277084
 30
0.0
  0
VERTEX
  5
20C
100
AcDbEntity
  8
0
370
     0
390
0
100
AcDbVertex
100
AcDb2dVertex
 10
118.956871
 20
102.255234
 30
0.0
  0
VERTEX
  5
20D
100
AcDbEntity
  8
0
370
     0
390
0
100
AcDbVertex
100
AcDb2dVertex
 10
118.804161
 20
102.239632
 30
0.0
  0
VERTEX
  5
20E
100
AcDbEntity
  8
0
370
     0
390
0
100
AcDbVertex
100
AcDb2dVertex
 10
118.645958
 20
102.23027
 30
0.0
  0
VERTEX
  5
20F
100
AcDbEntity
  8
0
370
     0
390
0
100
AcDbVertex
100
AcDb2dVertex
 10
118.482262
 20
102.22715
 30
0.0
  0
VERTEX
  5
210
100
AcDbEntity
  8
0
370
     0
390
0
100
AcDbVertex
100
AcDb2dVertex
 10
118.31601
 20
102.229843
 30
0.0
  0
VERTEX
  5
211
100
AcDbEntity
  8
0
370
     0
390
0
100
AcDbVertex
100
AcDb2dVertex
 10
118.155594
 20
102.23793
 30
0.0
  0
VERTEX
  5
212
100
AcDbEntity
  8
0
370
     0
390
0
100
AcDbVertex
100
AcDb2dVertex
 10
118.001007
 20
102.251396
 30
0.0
  0
VERTEX
  5
213
100
AcDbEntity
  8
0
370
     0
390
0
100
AcDbVertex
100
AcDb2dVertex
 10
117.852249
 20
102.270264
 30
0.0
  0
VERTEX
  5
214
100
AcDbEntity
  8
0
370
     0
390
0
100
AcDbVertex
100
AcDb2dVertex
 10
117.709328
 20
102.29451
 30
0.0
  0
VERTEX
  5
215
100
AcDbEntity
  8
0
370
     0
390
0
100
AcDbVertex
100
AcDb2dVertex
 10
117.572235
 20
102.32415
 30
0.0
  0
VERTEX
  5
216
100
AcDbEntity
  8
0
370
     0
390
0
100
AcDbVertex
100
AcDb2dVertex
 10
117.440979
 20
102.359177
 30
0.0
  0
VERTEX
  5
217
100
AcDbEntity
  8
0
370
     0
390
0
100
AcDbVertex
100
AcDb2dVertex
 10
117.315552
 20
102.39959
 30
0.0
  0
VERTEX
  5
218
100
AcDbEntity
  8
0
370
     0
390
0
100
AcDbVertex
100
AcDb2dVertex
 10
117.195953
 20
102.445396
 30
0.0
  0
VERTEX
  5
219
100
AcDbEntity
  8
0
370
     0
390
0
100
AcDbVertex
100
AcDb2dVertex
 10
117.082199
 20
102.49659
 30
0.0
  0
VERTEX
  5
21A
100
AcDbEntity
  8
0
370
     0
390
0
100
AcDbVertex
100
AcDb2dVertex
 10
116.97345
 20
102.553619
 30
0.0
  0
VERTEX
  5
21B
100
AcDbEntity
  8
0
370
     0
390
0
100
AcDbVertex
100
AcDb2dVertex
 10
116.868896
 20
102.61692
 30
0.0
  0
VERTEX
  5
21C
100
AcDbEntity
  8
0
370
     0
390
0
100
AcDbVertex
100
AcDb2dVertex
 10
116.768539
 20
102.686493
 30
0.0
  0
VERTEX
  5
21D
100
AcDbEntity
  8
0
370
     0
390
0
100
AcDbVertex
100
AcDb2dVertex
 10
116.672371
 20
102.762344
 30
0.0
  0
VERTEX
  5
21E
100
AcDbEntity
  8
0
370
     0
390
0
100
AcDbVertex
100
AcDb2dVertex
 10
116.580406
 20
102.844475
 30
0.0
  0
VERTEX
  5
21F
100
AcDbEntity
  8
0
370
     0
390
0
100
AcDbVertex
100
AcDb2dVertex
 10
116.49263
 20
102.932877
 30
0.0
  0
VERTEX
  5
220
100
AcDbEntity
  8
0
370
     0
390
0
100
AcDbVertex
100
AcDb2dVertex
 10
116.409058
 20
103.027557
 30
0.0
  0
VERTEX
  5
221
100
AcDbEntity
  8
0
370
     0
390
0
100
AcDbVertex
100
AcDb2dVertex
 10
116.329674
 20
103.128517
 30
0.0
  0
VERTEX
  5
222
100
AcDbEntity
  8
0
370
     0
390
0
100
AcDbVertex
100
AcDb2dVertex
 10
116.254486
 20
103.235748
 30
0.0
  0
VERTEX
  5
223
100
AcDbEntity
  8
0
370
     0
390
0
100
AcDbVertex
100
AcDb2dVertex
 10
116.183495
 20
103.349251
 30
0.0
  0
VERTEX
  5
224
100
AcDbEntity
  8
0
370
     0
390
0
100
AcDbVertex
100
AcDb2dVertex
 10
116.118042
 20
103.468826
 30
0.0
  0
VERTEX
  5
225
100
AcDbEntity
  8
0
370
     0
390
0
100
AcDbVertex
100
AcDb2dVertex
 10
116.059479
 20
103.594269
 30
0.0
  0
VERTEX
  5
226
100
AcDbEntity
  8
0
370
     0
390
0
100
AcDbVertex
100
AcDb2dVertex
 10
116.007813
 20
103.725578
 30
0.0
  0
VERTEX
  5
227
100
AcDbEntity
  8
0
370
     0
390
0
100
AcDbVertex
100
AcDb2dVertex
 10
115.963028
 20
103.862755
 30
0.0
  0
VERTEX
  5
228
100
AcDbEntity
  8
0
370
     0
390
0
100
AcDbVertex
100
AcDb2dVertex
 10
115.925133
 20
104.005798
 30
0.0
  0
VERTEX
  5
229
100
AcDbEntity
  8
0
370
     0
390
0
100
AcDbVertex
100
AcDb2dVertex
 10
115.894135
 20
104.154709
 30
0.0
  0
VERTEX
  5
22A
100
AcDbEntity
  8
0
370
     0
390
0
100
AcDbVertex
100
AcDb2dVertex
 10
115.870018
 20
104.309486
 30
0.0
  0
VERTEX
  5
22B
100
AcDbEntity
  8
0
370
     0
390
0
100
AcDbVertex
100
AcDb2dVertex
 10
115.852798
 20
104.470123
 30
0.0
  0
VERTEX
  5
22C
100
AcDbEntity
  8
0
370
     0
390
0
100
AcDbVertex
100
AcDb2dVertex
 10
115.842461
 20
104.636635
 30
0.0
  0
SEQEND
  5
22D
100
AcDbEntity
  8
0
370
     0
390
0
  0
POLYLINE
  5
22E
100
AcDbEntity
  8
0
370
    13
390
0
 62
     7
100
AcDb2dPolyline
 66
     1
 10
0.0
 20
0.0
 30
0.0
 70
     1
 71
    80
  0
VERTEX
  5
22F
100
AcDbEntity
  8
0
370
     0
390
0
100
AcDbVertex
100
AcDb2dVertex
 10
117.384033
 20
104.802185
 30
0.0
  0
VERTEX
  5
230
100
AcDbEntity
  8
0
370
     0
390
0
100
AcDbVertex
100
AcDb2dVertex
 10
117.386856
 20
104.655014
 30
0.0
  0
VERTEX
  5
231
100
AcDbEntity
  8
0
370
     0
390
0
100
AcDbVertex
100
AcDb2dVertex
 10
117.395294
 20
104.516373
 30
0.0
  0
VERTEX
  5
232
100
AcDbEntity
  8
0
370
     0
390
0
100
AcDbVertex
100
AcDb2dVertex
 10
117.409363
 20
104.386253
 30
0.0
  0
VERTEX
  5
233
100
AcDbEntity
  8
0
370
     0
390
0
100
AcDbVertex
100
AcDb2dVertex
 10
117.429062
 20
104.264664
 30
0.0
  0
VERTEX
  5
234
100
AcDbEntity
  8
0
370
     0
390
0
100
AcDbVertex
100
AcDb2dVertex
 10
117.454384
 20
104.151604
 30
0.0
  0
VERTEX
  5
235
100
AcDbEntity
  8
0
370
     0
390
0
100
AcDbVertex
100
AcDb2dVertex
 10
117.485336
 20
104.047066
 30
0.0
  0
VERTEX
  5
236
100
AcDbEntity
  8
0
370
     0
390
0
100
AcDbVertex
100
AcDb2dVertex
 10
117.521912
 20
103.951057
 30
0.0
  0
VERTEX
  5
237
100
AcDbEntity
  8
0
370
     0
390
0
100
AcDbVertex
100
AcDb2dVertex
 10
117.564117
 20
103.863579
 30
0.0
  0
VERTEX
  5
238
100
AcDbEntity
  8
0
370
     0
390
0
100
AcDbVertex
100
AcDb2dVertex
 10
117.611954
 20
103.784622
 30
0.0
  0
VERTEX
  5
239
100
AcDbEntity
  8
0
370
     0
390
0
100
AcDbVertex
100
AcDb2dVertex
 10
117.665413
 20
103.714188
 30
0.0
  0
VERTEX
  5
23A
100
AcDbEntity
  8
0
370
     0
390
0
100
AcDbVertex
100
AcDb2dVertex
 10
117.723724
 20
103.651329
 30
0.0
  0
VERTEX
  5
23B
100
AcDbEntity
  8
0
370
     0
390
0
100
AcDbVertex
100
AcDb2dVertex
 10
117.786087
 20
103.595093
 30
0.0
  0
VERTEX
  5
23C
100
AcDbEntity
  8
0
370
     0
390
0
100
AcDbVertex
100
AcDb2dVertex
 10
117.852509
 20
103.545464
 30
0.0
  0
VERTEX
  5
23D
100
AcDbEntity
  8
0
370
     0
390
0
100
AcDbVertex
100
AcDb2dVertex
 10
117.922989
 20
103.502457
 30
0.0
  0
VERTEX
  5
23E
100
AcDbEntity
  8
0
370
     0
390
0
100
AcDbVertex
100
AcDb2dVertex
 10
117.997528
 20
103.466064
 30
0.0
  0
VERTEX
  5
23F
100
AcDbEntity
  8
0
370
     0
390
0
100
AcDbVertex
100
AcDb2dVertex
 10
118.076126
 20
103.436287
 30
0.0
  0
VERTEX
  5
240
100
AcDbEntity
  8
0
370
     0
390
0
100
AcDbVertex
100
AcDb2dVertex
 10
118.158783
 20
103.413132
 30
0.0
  0
VERTEX
  5
241
100
AcDbEntity
  8
0
370
     0
390
0
100
AcDbVertex
100
AcDb2dVertex
 10
118.245499
 20
103.396591
 30
0.0
  0
VERTEX
  5
242
100
AcDbEntity
  8
0
370
     0
390
0
100
AcDbVertex
100
AcDb2dVertex
 10
118.336273
 20
103.386665
 30
0.0
  0
VERTEX
  5
243
100
AcDbEntity
  8
0
370
     0
390
0
100
AcDbVertex
100
AcDb2dVertex
 10
118.431107
 20
103.383354
 30
0.0
  0
VERTEX
  5
244
100
AcDbEntity
  8
0
370
     0
390
0
100
AcDbVertex
100
AcDb2dVertex
 10
118.528442
 20
103.386597
 30
0.0
  0
VERTEX
  5
245
100
AcDbEntity
  8
0
370
     0
390
0
100
AcDbVertex
100
AcDb2dVertex
 10
118.621277
 20
103.396317
 30
0.0
  0
VERTEX
  5
246
100
AcDbEntity
  8
0
370
     0
390
0
100
AcDbVertex
100
AcDb2dVertex
 10
118.709618
 20
103.412521
 30
0.0
  0
VERTEX
  5
247
100
AcDbEntity
  8
0
370
     0
390
0
100
AcDbVertex
100
AcDb2dVertex
 10
118.793449
 20
103.435196
 30
0.0
  0
VERTEX
  5
248
100
AcDbEntity
  8
0
370
     0
390
0
100
AcDbVertex
100
AcDb2dVertex
 10
118.87278
 20
103.464363
 30
0.0
  0
VERTEX
  5
249
100
AcDbEntity
  8
0
370
     0
390
0
100
AcDbVertex
100
AcDb2dVertex
 10
118.947617
 20
103.5
 30
0.0
  0
VERTEX
  5
24A
100
AcDbEntity
  8
0
370
     0
390
0
100
AcDbVertex
100
AcDb2dVertex
 10
119.017944
 20
103.542122
 30
0.0
  0
VERTEX
  5
24B
100
AcDbEntity
  8
0
370
     0
390
0
100
AcDbVertex
100
AcDb2dVertex
 10
119.083763
 20
103.590721
 30
0.0
  0
VERTEX
  5
24C
100
AcDbEntity
  8
0
370
     0
390
0
100
AcDbVertex
100
AcDb2dVertex
 10
119.145088
 20
103.645805
 30
0.0
  0
VERTEX
  5
24D
100
AcDbEntity
  8
0
370
     0
390
0
100
AcDbVertex
100
AcDb2dVertex
 10
119.201912
 20
103.707367
 30
0.0
  0
VERTEX
  5
24E
100
AcDbEntity
  8
0
370
     0
390
0
100
AcDbVertex
100
AcDb2dVertex
 10
119.253754
 20
103.777321
 30
0.0
  0
VERTEX
  5
24F
100
AcDbEntity
  8
0
370
     0
390
0
100
AcDbVertex
100
AcDb2dVertex
 10
119.300133
 20
103.857574
 30
0.0
  0
VERTEX
  5
250
100
AcDbEntity
  8
0
370
     0
390
0
100
AcDbVertex
100
AcDb2dVertex
 10
119.341064
 20
103.948128
 30
0.0
  0
VERTEX
  5
251
100
AcDbEntity
  8
0
370
     0
390
0
100
AcDbVertex
100
AcDb2dVertex
 10
119.376534
 20
104.048981
 30
0.0
  0
VERTEX
  5
252
100
AcDbEntity
  8
0
370
     0
390
0
100
AcDbVertex
100
AcDb2dVertex
 10
119.406548
 20
104.160133
 30
0.0
  0
VERTEX
  5
253
100
AcDbEntity
  8
0
370
     0
390
0
100
AcDbVertex
100
AcDb2dVertex
 10
119.431107
 20
104.281586
 30
0.0
  0
VERTEX
  5
254
100
AcDbEntity
  8
0
370
     0
390
0
100
AcDbVertex
100
AcDb2dVertex
 10
119.450203
 20
104.413338
 30
0.0
  0
VERTEX
  5
255
100
AcDbEntity
  8
0
370
     0
390
0
100
AcDbVertex
100
AcDb2dVertex
 10
119.463844
 20
104.555389
 30
0.0
  0
VERTEX
  5
256
100
AcDbEntity
  8
0
370
     0
390
0
100
AcDbVertex
100
AcDb2dVertex
 10
119.472031
 20
104.707741
 30
0.0
  0
VERTEX
  5
257
100
AcDbEntity
  8
0
370
     0
390
0
100
AcDbVertex
100
AcDb2dVertex
 10
119.474762
 20
104.870399
 30
0.0
  0
VERTEX
  5
258
100
AcDbEntity
  8
0
370
     0
390
0
100
AcDbVertex
100
AcDb2dVertex
 10
119.471909
 20
105.007797
 30
0.0
  0
VERTEX
  5
259
100
AcDbEntity
  8
0
370
     0
390
0
100
AcDbVertex
100
AcDb2dVertex
 10
119.463371
 20
105.137589
 30
0.0
  0
VERTEX
  5
25A
100
AcDbEntity
  8
0
370
     0
390
0
100
AcDbVertex
100
AcDb2dVertex
 10
119.449127
 20
105.259773
 30
0.0
  0
VERTEX
  5
25B
100
AcDbEntity
  8
0
370
     0
390
0
100
AcDbVertex
100
AcDb2dVertex
 10
119.429199
 20
105.374352
 30
0.0
  0
VERTEX
  5
25C
100
AcDbEntity
  8
0
370
     0
390
0
100
AcDbVertex
100
AcDb2dVertex
 10
119.403564
 20
105.481331
 30
0.0
  0
VERTEX
  5
25D
100
AcDbEntity
  8
0
370
     0
390
0
100
AcDbVertex
100
AcDb2dVertex
 10
119.372238
 20
105.580696
 30
0.0
  0
VERTEX
  5
25E
100
AcDbEntity
  8
0
370
     0
390
0
100
AcDbVertex
100
AcDb2dVertex
 10
119.335213
 20
105.672462
 30
0.0
  0
VERTEX
  5
25F
100
AcDbEntity
  8
0
370
     0
390
0
100
AcDbVertex
100
AcDb2dVertex
 10
119.292496
 20
105.756615
 30
0.0
  0
VERTEX
  5
260
100
AcDbEntity
  8
0
370
     0
390
0
100
AcDbVertex
100
AcDb2dVertex
 10
119.24408
 20
105.833168
 30
0.0
  0
VERTEX
  5
261
100
AcDbEntity
  8
0
370
     0
390
0
100
AcDbVertex
100
AcDb2dVertex
 10
119.189972
 20
105.902115
 30
0.0
  0
VERTEX
  5
262
100
AcDbEntity
  8
0
370
     0
390
0
100
AcDbVertex
100
AcDb2dVertex
 10
119.130981
 20
105.964005
 30
0.0
  0
VERTEX
  5
263
100
AcDbEntity
  8
0
370
     0
390
0
100
AcDbVertex
100
AcDb2dVertex
 10
119.06794
 20
106.019371
 30
0.0
  0
VERTEX
  5
264
100
AcDbEntity
  8
0
370
     0
390
0
100
AcDbVertex
100
AcDb2dVertex
 10
119.000839
 20
106.06823
 30
0.0
  0
VERTEX
  5
265
100
AcDbEntity
  8
0
370
     0
390
0
100
AcDbVertex
100
AcDb2dVertex
 10
118.929672
 20
106.110573
 30
0.0
  0
VERTEX
  5
266
100
AcDbEntity
  8
0
370
     0
390
0
100
AcDbVertex
100
AcDb2dVertex
 10
118.854446
 20
106.1464
 30
0.0
  0
VERTEX
  5
267
100
AcDbEntity
  8
0
370
     0
390
0
100
AcDbVertex
100
AcDb2dVertex
 10
118.775169
 20
106.17572
 30
0.0
  0
VERTEX
  5
268
100
AcDbEntity
  8
0
370
     0
390
0
100
AcDbVertex
100
AcDb2dVertex
 10
118.691833
 20
106.198517
 30
0.0
  0
VERTEX
  5
269
100
AcDbEntity
  8
0
370
     0
390
0
100
AcDbVertex
100
AcDb2dVertex
 10
118.604431
 20
106.214806
 30
0.0
  0
VERTEX
  5
26A
100
AcDbEntity
  8
0
370
     0
390
0
100
AcDbVertex
100
AcDb2dVertex
 10
118.512978
 20
106.224571
 30
0.0
  0
VERTEX
  5
26B
100
AcDbEntity
  8
0
370
     0
390
0
100
AcDbVertex
100
AcDb2dVertex
 10
118.417465
 20
106.227829
 30
0.0
  0
VERTEX
  5
26C
100
AcDbEntity
  8
0
370
     0
390
0
100
AcDbVertex
100
AcDb2dVertex
 10
118.325851
 20
106.224525
 30
0.0
  0
VERTEX
  5
26D
100
AcDbEntity
  8
0
370
     0
390
0
100
AcDbVertex
100
AcDb2dVertex
 10
118.237923
 20
106.2146
 30
0.0
  0
VERTEX
  5
26E
100
AcDbEntity
  8
0
370
     0
390
0
100
AcDbVertex
100
AcDb2dVertex
 10
118.153687
 20
106.198059
 30
0.0
  0
VERTEX
  5
26F
100
AcDbEntity
  8
0
370
     0
390
0
100
AcDbVertex
100
AcDb2dVertex
 10
118.07312
 20
106.174896
 30
0.0
  0
VERTEX
  5
270
100
AcDbEntity
  8
0
370
     0
390
0
100
AcDbVertex
100
AcDb2dVertex
 10
117.996246
 20
106.145126
 30
0.0
  0
VERTEX
  5
271
100
AcDbEntity
  8
0
370
     0
390
0
100
AcDbVertex
100
AcDb2dVertex
 10
117.923058
 20
106.108734
 30
0.0
  0
VERTEX
  5
272
100
AcDbEntity
  8
0
370
     0
390
0
100
AcDbVertex
100
AcDb2dVertex
 10
117.853546
 20
106.065727
 30
0.0
  0
VERTEX
  5
273
100
AcDbEntity
  8
0
370
     0
390
0
100
AcDbVertex
100
AcDb2dVertex
 10
117.78772
 20
106.016098
 30
0.0
  0
VERTEX
  5
274
100
AcDbEntity
  8
0
370
     0
390
0
100
AcDbVertex
100
AcDb2dVertex
 10
117.725578
 20
105.959862
 30
0.0
  0
VERTEX
  5
275
100
AcDbEntity
  8
0
370
     0
390
0
100
AcDbVertex
100
AcDb2dVertex
 10
117.667122
 20
105.897003
 30
0.0
  0
VERTEX
  5
276
100
AcDbEntity
  8
0
370
     0
390
0
100
AcDbVertex
100
AcDb2dVertex
 10
117.613335
 20
105.8265
 30
0.0
  0
VERTEX
  5
277
100
AcDbEntity
  8
0
370
     0
390
0
100
AcDbVertex
100
AcDb2dVertex
 10
117.565216
 20
105.747337
 30
0.0
  0
VERTEX
  5
278
100
AcDbEntity
  8
0
370
     0
390
0
100
AcDbVertex
100
AcDb2dVertex
 10
117.522751
 20
105.659515
 30
0.0
  0
VERTEX
  5
279
100
AcDbEntity
  8
0
370
     0
390
0
100
AcDbVertex
100
AcDb2dVertex
 10
117.485947
 20
105.563026
 30
0.0
  0
VERTEX
  5
27A
100
AcDbEntity
  8
0
370
     0
390
0
100
AcDbVertex
100
AcDb2dVertex
 10
117.454811
 20
105.457878
 30
0.0
  0
VERTEX
  5
27B
100
AcDbEntity
  8
0
370
     0
390
0
100
AcDbVertex
100
AcDb2dVertex
 10
117.429337
 20
105.34407
 30
0.0
  0
VERTEX
  5
27C
100
AcDbEntity
  8
0
370
     0
390
0
100
AcDbVertex
100
AcDb2dVertex
 10
117.409515
 20
105.221588
 30
0.0
  0
VERTEX
  5
27D
100
AcDbEntity
  8
0
370
     0
390
0
100
AcDbVertex
100
AcDb2dVertex
 10
117.395363
 20
105.090454
 30
0.0
  0
VERTEX
  5
27E
100
AcDbEntity
  8
0
370
     0
390
0
100
AcDbVertex
100
AcDb2dVertex
 10
117.386871
 20
104.950653
 30
0.0
  0
SEQEND
  5
27F
100
AcDbEntity
  8
0
370
     0
390
0
  0
ENDSEC
  0
SECTION
  2
OBJECTS
  0
DICTIONARY
  5
19
100
AcDbDictionary
280
     0
281
     1
  3
ACAD_GROUP
350
1A
  3
ACAD_MLINESTYLE
350
1B
  3
ACAD_LAYOUT
350
1E
  3
ACAD_PLOTSETTINGS
350
22
  3
ACAD_PLOTSTYLENAME
350
1F
  3
ACAD_WIPEOUT_VARS
350
23
  0
DICTIONARY
  5
1A
102
{ACAD_REACTORS
330
19
102
}
100
AcDbDictionary
280
     0
281
     1
  0
DICTIONARY
  5
1B
102
{ACAD_REACTORS
330
19
102
}
100
AcDbDictionary
280
     0
281
     1
  3
Standard
350
1C
  0
MLINESTYLE
  5
1C
102
{ACAD_REACTORS
330
1B
102
}
100
AcDbMlineStyle
  2
Standard
 70
     0
  3

 62
     0
 51
90.0
 52
90.0
 71
     2
 49
0.5
 62
   256
  6
ByLayer
 49
-0.5
 62
   256
  6
ByLayer
  0
ACDBDICTIONARYWDFLT
  5
1F
102
{ACAD_REACTORS
330
19
102
}
100
AcDbDictionary
281
     1
  3
Normal
350
1D
100
AcDbDictionaryWithDefault
340
1D
  0
ACDBPLACEHOLDER
  5
1D
102
{ACAD_REACTORS
330
1F
102
}
  0
LAYOUT
  5
20
102
{ACAD_REACTORS
330
1E
102
}
100
AcDbPlotSettings
  1

  2

  4

  6

 40
0.0
 41
0.0
 42
0.0
 43
0.0
 44
0.0
 45
0.0
 46
0.0
 47
0.0
 48
0.0
 49
0.0
140
0.0
141
0.0
142
1.0
143
1.0
 70
  1024
 72
     0
 73
     0
 74
     0
  7

 75
     0
147
1.0
148
0.0
149
0.0
100
AcDbLayout
  1
Model
 70
     0
 71
     0
 10
0.0
 20
0.0
 11
0.0
 21
0.0
 12
0.0
 22
0.0
 32
0.0
 14
0.0
 24
0.0
 34
0.0
 15
0.0
 25
0.0
 35
0.0
146
0.0
 13
0.0
 23
0.0
 33
0.0
 16
0.0
 26
0.0
 36
0.0
 17
0.0
 27
0.0
 37
0.0
 76
     0
330
A
331
0
345
0
346
0
  0
LAYOUT
  5
21
102
{ACAD_REACTORS
330
1E
102
}
100
AcDbPlotSettings
  1

  2

  4

  6

 40
0.0
 41
0.0
 42
0.0
 43
0.0
 44
0.0
 45
0.0
 46
0.0
 47
0.0
 48
0.0
 49
0.0
140
0.0
141
0.0
142
1.0
143
1.0
 70
     0
 72
     0
 73
     0
 74
     0
  7

 75
     0
147
1.0
148
0.0
149
0.0
100
AcDbLayout
  1
Layout1
 70
     0
 71
     0
 10
0.0
 20
0.0
 11
0.0
 21
0.0
 12
0.0
 22
0.0
 32
0.0
 14
0.0
 24
0.0
 34
0.0
 15
0.0
 25
0.0
 35
0.0
146
0.0
 13
0.0
 23
0.0
 33
0.0
 16
0.0
 26
0.0
 36
0.0
 17
0.0
 27
0.0
 37
0.0
 76
     0
330
B
331
0
345
0
346
0
  0
DICTIONARY
  5
1E
102
{ACAD_REACTORS
330
19
102
}
100
AcDbDictionary
280
     0
281
     1
  3
Layout1
350
21
  3
Model
350
20
  0
DICTIONARY
  5
22
102
{ACAD_REACTORS
330
19
102
}
100
AcDbDictionary
280
     0
281
     1
  0
WIPEOUTVARIABLES
  5
23
100
AcDbWipeoutVariables
 70
     1
  0
ENDSEC
  0
EOF
