solid CATIA STL
  facet normal -9.268503e-001  3.754010e-001  4.781618e-003
    outer loop
      vertex  7.142857e-002  4.895737e+001  2.400000e-001
      vertex  1.571429e-001  4.916838e+001  2.880000e-001
      vertex  1.485467e-001  4.915083e+001  0.000000e+000
    endloop
  endfacet
  facet normal -9.432355e-001  3.300533e-001 -3.703714e-002
    outer loop
      vertex  7.142857e-002  4.895737e+001  2.400000e-001
      vertex  1.485467e-001  4.915083e+001  0.000000e+000
      vertex  3.760813e-002  4.883378e+001  0.000000e+000
    endloop
  endfacet
  facet normal -9.734502e-001  2.280452e-001  1.974838e-002
    outer loop
      vertex  7.142857e-002  4.895737e+001  2.400000e-001
      vertex  3.760813e-002  4.883378e+001  0.000000e+000
      vertex  1.809556e-002  4.873229e+001  2.101335e-001
    endloop
  endfacet
  facet normal -2.280451e-001  9.734502e-001  1.975121e-002
    outer loop
      vertex  1.042634e+000  4.992857e+001  2.400000e-001
      vertex  1.267710e+000  4.998190e+001  2.101335e-001
      vertex  1.166219e+000  4.996239e+001  0.000000e+000
    endloop
  endfacet
  facet normal -3.300537e-001  9.432354e-001 -3.703456e-002
    outer loop
      vertex  1.042634e+000  4.992857e+001  2.400000e-001
      vertex  1.166219e+000  4.996239e+001  0.000000e+000
      vertex  8.491744e-001  4.985145e+001  0.000000e+000
    endloop
  endfacet
  facet normal -3.753916e-001  9.268540e-001  4.775272e-003
    outer loop
      vertex  1.042634e+000  4.992857e+001  2.400000e-001
      vertex  8.491744e-001  4.985145e+001  0.000000e+000
      vertex  8.316178e-001  4.984286e+001  2.880000e-001
    endloop
  endfacet
  facet normal -9.953488e-001  7.988651e-002 -5.384258e-002
    outer loop
      vertex  1.809556e-002  4.873229e+001  2.101335e-001
      vertex  3.760813e-002  4.883378e+001  0.000000e+000
      vertex  0.000000e+000  4.850000e+001  2.000000e-001
    endloop
  endfacet
  facet normal -9.937122e-001  1.119642e-001  0.000000e+000
    outer loop
      vertex  0.000000e+000  4.850000e+001  2.000000e-001
      vertex  3.760813e-002  4.883378e+001  0.000000e+000
      vertex  0.000000e+000  4.850000e+001  0.000000e+000
    endloop
  endfacet
  facet normal -8.467020e-001  5.320191e-001 -7.157396e-003
    outer loop
      vertex  1.485467e-001  4.915083e+001  0.000000e+000
      vertex  1.571429e-001  4.916838e+001  2.880000e-001
      vertex  3.272528e-001  4.943523e+001  0.000000e+000
    endloop
  endfacet
  facet normal -8.579488e-001  5.127595e-001 -3.164590e-002
    outer loop
      vertex  3.272528e-001  4.943523e+001  0.000000e+000
      vertex  1.571429e-001  4.916838e+001  2.880000e-001
      vertex  2.600000e-001  4.934404e+001  3.456000e-001
    endloop
  endfacet
  facet normal -7.890675e-001  6.142472e-001  8.539088e-003
    outer loop
      vertex  3.272528e-001  4.943523e+001  0.000000e+000
      vertex  2.600000e-001  4.934404e+001  3.456000e-001
      vertex  3.834286e-001  4.950163e+001  4.147200e-001
    endloop
  endfacet
  facet normal -7.070024e-001  7.069965e-001 -1.742661e-002
    outer loop
      vertex  3.272528e-001  4.943523e+001  0.000000e+000
      vertex  3.834286e-001  4.950163e+001  4.147200e-001
      vertex  5.647653e-001  4.967275e+001  0.000000e+000
    endloop
  endfacet
  facet normal -7.184534e-001  6.950366e-001 -2.736827e-002
    outer loop
      vertex  5.647653e-001  4.967275e+001  0.000000e+000
      vertex  3.834286e-001  4.950163e+001  4.147200e-001
      vertex  4.393405e-001  4.956066e+001  4.460307e-001
    endloop
  endfacet
  facet normal -6.912049e-001  7.225456e-001 -1.279296e-002
    outer loop
      vertex  5.647653e-001  4.967275e+001  0.000000e+000
      vertex  4.393405e-001  4.956066e+001  4.460307e-001
      vertex  4.983672e-001  4.961657e+001  4.147200e-001
    endloop
  endfacet
  facet normal -5.065495e-001  8.621955e-001 -5.149692e-003
    outer loop
      vertex  8.316178e-001  4.984286e+001  2.880000e-001
      vertex  8.491744e-001  4.985145e+001  0.000000e+000
      vertex  6.559621e-001  4.974000e+001  3.456000e-001
    endloop
  endfacet
  facet normal -5.318681e-001  8.464764e-001 -2.437351e-002
    outer loop
      vertex  6.559621e-001  4.974000e+001  3.456000e-001
      vertex  8.491744e-001  4.985145e+001  0.000000e+000
      vertex  5.647653e-001  4.967275e+001  0.000000e+000
    endloop
  endfacet
  facet normal -6.142508e-001  7.890646e-001  8.537864e-003
    outer loop
      vertex  6.559621e-001  4.974000e+001  3.456000e-001
      vertex  5.647653e-001  4.967275e+001  0.000000e+000
      vertex  4.983672e-001  4.961657e+001  4.147200e-001
    endloop
  endfacet
  facet normal -7.989271e-002  9.953485e-001 -5.383733e-002
    outer loop
      vertex  1.267710e+000  4.998190e+001  2.101335e-001
      vertex  1.500000e+000  5.000000e+001  2.000000e-001
      vertex  1.166219e+000  4.996239e+001  0.000000e+000
    endloop
  endfacet
  facet normal -1.119673e-001  9.937119e-001  0.000000e+000
    outer loop
      vertex  1.166219e+000  4.996239e+001  0.000000e+000
      vertex  1.500000e+000  5.000000e+001  2.000000e-001
      vertex  1.500000e+000  5.000000e+001  0.000000e+000
    endloop
  endfacet
  facet normal -4.886034e-001 -7.079174e-008  8.725060e-001
    outer loop
      vertex  5.000000e+000  4.500000e+001  3.000000e+000
      vertex  4.393405e-001  4.956066e+001  4.460307e-001
      vertex  3.834286e-001  4.950163e+001  4.147200e-001
    endloop
  endfacet
  facet normal -4.886033e-001  4.758630e-008  8.725060e-001
    outer loop
      vertex  5.000000e+000  4.500000e+001  3.000000e+000
      vertex  3.834286e-001  4.950163e+001  4.147200e-001
      vertex  2.600000e-001  4.934404e+001  3.456000e-001
    endloop
  endfacet
  facet normal -4.886034e-001 -9.633481e-008  8.725060e-001
    outer loop
      vertex  5.000000e+000  4.500000e+001  3.000000e+000
      vertex  2.600000e-001  4.934404e+001  3.456000e-001
      vertex  1.571429e-001  4.916838e+001  2.880000e-001
    endloop
  endfacet
  facet normal -4.886033e-001  1.315434e-008  8.725060e-001
    outer loop
      vertex  5.000000e+000  4.500000e+001  3.000000e+000
      vertex  1.571429e-001  4.916838e+001  2.880000e-001
      vertex  7.142857e-002  4.895737e+001  2.400000e-001
    endloop
  endfacet
  facet normal -4.886034e-001  7.579621e-009  8.725060e-001
    outer loop
      vertex  5.000000e+000  4.500000e+001  3.000000e+000
      vertex  7.142857e-002  4.895737e+001  2.400000e-001
      vertex  1.809556e-002  4.873229e+001  2.101335e-001
    endloop
  endfacet
  facet normal -4.886034e-001  3.444848e-008  8.725060e-001
    outer loop
      vertex  5.000000e+000  4.500000e+001  3.000000e+000
      vertex  1.809556e-002  4.873229e+001  2.101335e-001
      vertex  0.000000e+000  4.850000e+001  2.000000e-001
    endloop
  endfacet
  facet normal -4.886034e-001  0.000000e+000  8.725060e-001
    outer loop
      vertex  5.000000e+000  4.500000e+001  3.000000e+000
      vertex  0.000000e+000  4.850000e+001  2.000000e-001
      vertex  0.000000e+000  1.000000e+001  2.000000e-001
    endloop
  endfacet
  facet normal -4.886034e-001  0.000000e+000  8.725060e-001
    outer loop
      vertex  5.000000e+000  4.500000e+001  3.000000e+000
      vertex  0.000000e+000  1.000000e+001  2.000000e-001
      vertex  5.000000e+000  1.000000e+001  3.000000e+000
    endloop
  endfacet
  facet normal  1.460243e-005  4.885898e-001  8.725136e-001
    outer loop
      vertex  6.559621e-001  4.974000e+001  3.456000e-001
      vertex  4.983672e-001  4.961657e+001  4.147200e-001
      vertex  8.316178e-001  4.984286e+001  2.880000e-001
    endloop
  endfacet
  facet normal  5.804267e-007  4.886037e-001  8.725059e-001
    outer loop
      vertex  4.393405e-001  4.956066e+001  4.460307e-001
      vertex  5.000000e+000  4.500000e+001  3.000000e+000
      vertex  1.500000e+000  5.000000e+001  2.000000e-001
    endloop
  endfacet
  facet normal -3.771821e-006  4.886119e-001  8.725013e-001
    outer loop
      vertex  4.393405e-001  4.956066e+001  4.460307e-001
      vertex  1.500000e+000  5.000000e+001  2.000000e-001
      vertex  1.267710e+000  4.998190e+001  2.101335e-001
    endloop
  endfacet
  facet normal -2.764845e-006  4.886104e-001  8.725021e-001
    outer loop
      vertex  4.393405e-001  4.956066e+001  4.460307e-001
      vertex  1.267710e+000  4.998190e+001  2.101335e-001
      vertex  1.042634e+000  4.992857e+001  2.400000e-001
    endloop
  endfacet
  facet normal  7.095082e-006  4.885980e-001  8.725089e-001
    outer loop
      vertex  4.393405e-001  4.956066e+001  4.460307e-001
      vertex  1.042634e+000  4.992857e+001  2.400000e-001
      vertex  8.316178e-001  4.984286e+001  2.880000e-001
    endloop
  endfacet
  facet normal  9.687804e-006  4.885953e-001  8.725106e-001
    outer loop
      vertex  4.393405e-001  4.956066e+001  4.460307e-001
      vertex  8.316178e-001  4.984286e+001  2.880000e-001
      vertex  4.983672e-001  4.961657e+001  4.147200e-001
    endloop
  endfacet
  facet normal  0.000000e+000  4.886034e-001  8.725060e-001
    outer loop
      vertex  3.992893e+001  4.500000e+001  3.000000e+000
      vertex  4.200000e+001  5.000000e+001  2.000000e-001
      vertex  5.000000e+000  4.500000e+001  3.000000e+000
    endloop
  endfacet
  facet normal  0.000000e+000  4.886034e-001  8.725060e-001
    outer loop
      vertex  5.000000e+000  4.500000e+001  3.000000e+000
      vertex  4.200000e+001  5.000000e+001  2.000000e-001
      vertex  1.500000e+000  5.000000e+001  2.000000e-001
    endloop
  endfacet
  facet normal  0.000000e+000  1.000000e+000  -0.000000e+000
    outer loop
      vertex  4.200000e+001  5.000000e+001  2.000000e-001
      vertex  4.200000e+001  5.000000e+001  0.000000e+000
      vertex  1.500000e+000  5.000000e+001  2.000000e-001
    endloop
  endfacet
  facet normal  0.000000e+000  1.000000e+000  0.000000e+000
    outer loop
      vertex  1.500000e+000  5.000000e+001  2.000000e-001
      vertex  4.200000e+001  5.000000e+001  0.000000e+000
      vertex  1.500000e+000  5.000000e+001  0.000000e+000
    endloop
  endfacet
  facet normal -1.000000e+000  0.000000e+000  0.000000e+000
    outer loop
      vertex  0.000000e+000  4.850000e+001  2.000000e-001
      vertex  0.000000e+000  4.850000e+001  0.000000e+000
      vertex  0.000000e+000  1.000000e+001  2.000000e-001
    endloop
  endfacet
  facet normal -1.000000e+000  0.000000e+000  0.000000e+000
    outer loop
      vertex  0.000000e+000  1.000000e+001  2.000000e-001
      vertex  0.000000e+000  4.850000e+001  0.000000e+000
      vertex  0.000000e+000  1.000000e+001  0.000000e+000
    endloop
  endfacet
  facet normal  0.000000e+000  0.000000e+000 -1.000000e+000
    outer loop
      vertex  5.000000e+001  4.200000e+001  0.000000e+000
      vertex  5.000000e+001  5.000000e+000  0.000000e+000
      vertex  0.000000e+000  1.000000e+001  0.000000e+000
    endloop
  endfacet
  facet normal  0.000000e+000  0.000000e+000 -9.999999e-001
    outer loop
      vertex  5.000000e+001  4.200000e+001  0.000000e+000
      vertex  0.000000e+000  1.000000e+001  0.000000e+000
      vertex  0.000000e+000  4.850000e+001  0.000000e+000
    endloop
  endfacet
  facet normal  0.000000e+000  0.000000e+000 -1.000000e+000
    outer loop
      vertex  5.000000e+001  4.200000e+001  0.000000e+000
      vertex  0.000000e+000  4.850000e+001  0.000000e+000
      vertex  3.760813e-002  4.883378e+001  0.000000e+000
    endloop
  endfacet
  facet normal  0.000000e+000  0.000000e+000 -1.000000e+000
    outer loop
      vertex  5.000000e+001  4.200000e+001  0.000000e+000
      vertex  3.760813e-002  4.883378e+001  0.000000e+000
      vertex  1.485467e-001  4.915083e+001  0.000000e+000
    endloop
  endfacet
  facet normal  0.000000e+000  0.000000e+000 -1.000000e+000
    outer loop
      vertex  5.000000e+001  4.200000e+001  0.000000e+000
      vertex  1.485467e-001  4.915083e+001  0.000000e+000
      vertex  3.272528e-001  4.943523e+001  0.000000e+000
    endloop
  endfacet
  facet normal  0.000000e+000  0.000000e+000 -9.999999e-001
    outer loop
      vertex  5.000000e+001  4.200000e+001  0.000000e+000
      vertex  3.272528e-001  4.943523e+001  0.000000e+000
      vertex  5.647653e-001  4.967275e+001  0.000000e+000
    endloop
  endfacet
  facet normal  0.000000e+000  0.000000e+000 -1.000000e+000
    outer loop
      vertex  5.000000e+001  4.200000e+001  0.000000e+000
      vertex  5.647653e-001  4.967275e+001  0.000000e+000
      vertex  8.491744e-001  4.985145e+001  0.000000e+000
    endloop
  endfacet
  facet normal  0.000000e+000  0.000000e+000 -1.000000e+000
    outer loop
      vertex  5.000000e+001  4.200000e+001  0.000000e+000
      vertex  8.491744e-001  4.985145e+001  0.000000e+000
      vertex  1.166219e+000  4.996239e+001  0.000000e+000
    endloop
  endfacet
  facet normal  0.000000e+000  0.000000e+000 -9.999999e-001
    outer loop
      vertex  5.000000e+001  4.200000e+001  0.000000e+000
      vertex  1.166219e+000  4.996239e+001  0.000000e+000
      vertex  1.500000e+000  5.000000e+001  0.000000e+000
    endloop
  endfacet
  facet normal  0.000000e+000  0.000000e+000 -1.000000e+000
    outer loop
      vertex  5.000000e+001  4.200000e+001  0.000000e+000
      vertex  1.500000e+000  5.000000e+001  0.000000e+000
      vertex  4.200000e+001  5.000000e+001  0.000000e+000
    endloop
  endfacet
  facet normal  0.000000e+000  0.000000e+000 -1.000000e+000
    outer loop
      vertex  5.000000e+001  5.000000e+000  0.000000e+000
      vertex  4.500000e+001  0.000000e+000  0.000000e+000
      vertex  1.808480e+000  4.264235e+000  0.000000e+000
    endloop
  endfacet
  facet normal  0.000000e+000  0.000000e+000 -1.000000e+000
    outer loop
      vertex  5.000000e+001  5.000000e+000  0.000000e+000
      vertex  1.808480e+000  4.264235e+000  0.000000e+000
      vertex  1.339746e+000  5.000000e+000  0.000000e+000
    endloop
  endfacet
  facet normal  0.000000e+000  0.000000e+000 -1.000000e+000
    outer loop
      vertex  5.000000e+001  5.000000e+000  0.000000e+000
      vertex  1.339746e+000  5.000000e+000  0.000000e+000
      vertex  9.369221e-001  5.773818e+000  0.000000e+000
    endloop
  endfacet
  facet normal  0.000000e+000  0.000000e+000 -1.000000e+000
    outer loop
      vertex  5.000000e+001  5.000000e+000  0.000000e+000
      vertex  9.369221e-001  5.773818e+000  0.000000e+000
      vertex  6.030738e-001  6.579799e+000  0.000000e+000
    endloop
  endfacet
  facet normal  0.000000e+000  0.000000e+000 -9.999999e-001
    outer loop
      vertex  5.000000e+001  5.000000e+000  0.000000e+000
      vertex  6.030738e-001  6.579799e+000  0.000000e+000
      vertex  3.407417e-001  7.411809e+000  0.000000e+000
    endloop
  endfacet
  facet normal  0.000000e+000  0.000000e+000 -1.000000e+000
    outer loop
      vertex  5.000000e+001  5.000000e+000  0.000000e+000
      vertex  3.407417e-001  7.411809e+000  0.000000e+000
      vertex  1.519225e-001  8.263518e+000  0.000000e+000
    endloop
  endfacet
  facet normal  0.000000e+000  0.000000e+000 -1.000000e+000
    outer loop
      vertex  5.000000e+001  5.000000e+000  0.000000e+000
      vertex  1.519225e-001  8.263518e+000  0.000000e+000
      vertex  3.805302e-002  9.128443e+000  0.000000e+000
    endloop
  endfacet
  facet normal  0.000000e+000  0.000000e+000 -1.000000e+000
    outer loop
      vertex  5.000000e+001  5.000000e+000  0.000000e+000
      vertex  3.805302e-002  9.128443e+000  0.000000e+000
      vertex  0.000000e+000  1.000000e+001  0.000000e+000
    endloop
  endfacet
  facet normal  0.000000e+000  0.000000e+000 -9.999999e-001
    outer loop
      vertex  4.500000e+001  0.000000e+000  0.000000e+000
      vertex  1.000000e+001  0.000000e+000  0.000000e+000
      vertex  9.128443e+000  3.805302e-002  0.000000e+000
    endloop
  endfacet
  facet normal  0.000000e+000  0.000000e+000 -1.000000e+000
    outer loop
      vertex  4.500000e+001  0.000000e+000  0.000000e+000
      vertex  9.128443e+000  3.805302e-002  0.000000e+000
      vertex  8.263518e+000  1.519225e-001  0.000000e+000
    endloop
  endfacet
  facet normal  0.000000e+000  0.000000e+000 -1.000000e+000
    outer loop
      vertex  4.500000e+001  0.000000e+000  0.000000e+000
      vertex  8.263518e+000  1.519225e-001  0.000000e+000
      vertex  7.411809e+000  3.407417e-001  0.000000e+000
    endloop
  endfacet
  facet normal  0.000000e+000  0.000000e+000 -9.999999e-001
    outer loop
      vertex  4.500000e+001  0.000000e+000  0.000000e+000
      vertex  7.411809e+000  3.407417e-001  0.000000e+000
      vertex  6.579799e+000  6.030738e-001  0.000000e+000
    endloop
  endfacet
  facet normal  0.000000e+000  0.000000e+000 -1.000000e+000
    outer loop
      vertex  4.500000e+001  0.000000e+000  0.000000e+000
      vertex  6.579799e+000  6.030738e-001  0.000000e+000
      vertex  5.773818e+000  9.369221e-001  0.000000e+000
    endloop
  endfacet
  facet normal  0.000000e+000  0.000000e+000 -1.000000e+000
    outer loop
      vertex  4.500000e+001  0.000000e+000  0.000000e+000
      vertex  5.773818e+000  9.369221e-001  0.000000e+000
      vertex  5.000000e+000  1.339746e+000  0.000000e+000
    endloop
  endfacet
  facet normal  0.000000e+000  0.000000e+000 -1.000000e+000
    outer loop
      vertex  4.500000e+001  0.000000e+000  0.000000e+000
      vertex  5.000000e+000  1.339746e+000  0.000000e+000
      vertex  4.264235e+000  1.808480e+000  0.000000e+000
    endloop
  endfacet
  facet normal  0.000000e+000  0.000000e+000 -1.000000e+000
    outer loop
      vertex  4.500000e+001  0.000000e+000  0.000000e+000
      vertex  4.264235e+000  1.808480e+000  0.000000e+000
      vertex  3.572124e+000  2.339556e+000  0.000000e+000
    endloop
  endfacet
  facet normal  0.000000e+000  0.000000e+000 -1.000000e+000
    outer loop
      vertex  4.500000e+001  0.000000e+000  0.000000e+000
      vertex  3.572124e+000  2.339556e+000  0.000000e+000
      vertex  2.928932e+000  2.928932e+000  0.000000e+000
    endloop
  endfacet
  facet normal  0.000000e+000  0.000000e+000 -1.000000e+000
    outer loop
      vertex  4.500000e+001  0.000000e+000  0.000000e+000
      vertex  2.928932e+000  2.928932e+000  0.000000e+000
      vertex  2.339556e+000  3.572124e+000  0.000000e+000
    endloop
  endfacet
  facet normal  0.000000e+000  0.000000e+000 -1.000000e+000
    outer loop
      vertex  4.500000e+001  0.000000e+000  0.000000e+000
      vertex  2.339556e+000  3.572124e+000  0.000000e+000
      vertex  1.808480e+000  4.264235e+000  0.000000e+000
    endloop
  endfacet
  facet normal  7.071068e-001  7.071068e-001  0.000000e+000
    outer loop
      vertex  4.200000e+001  5.000000e+001  2.000000e-001
      vertex  5.000000e+001  4.200000e+001  2.000000e-001
      vertex  4.200000e+001  5.000000e+001  0.000000e+000
    endloop
  endfacet
  facet normal  7.071068e-001  7.071068e-001  0.000000e+000
    outer loop
      vertex  4.200000e+001  5.000000e+001  0.000000e+000
      vertex  5.000000e+001  4.200000e+001  2.000000e-001
      vertex  5.000000e+001  4.200000e+001  0.000000e+000
    endloop
  endfacet
  facet normal  0.000000e+000  0.000000e+000  1.000000e+000
    outer loop
      vertex  4.500000e+001  3.992893e+001  3.000000e+000
      vertex  3.992893e+001  4.500000e+001  3.000000e+000
      vertex  5.000000e+000  4.500000e+001  3.000000e+000
    endloop
  endfacet
  facet normal  0.000000e+000  0.000000e+000  9.999999e-001
    outer loop
      vertex  4.500000e+001  5.000000e+000  3.000000e+000
      vertex  4.500000e+001  3.992893e+001  3.000000e+000
      vertex  5.000000e+000  4.500000e+001  3.000000e+000
    endloop
  endfacet
  facet normal  0.000000e+000  0.000000e+000  1.000000e+000
    outer loop
      vertex  4.500000e+001  5.000000e+000  3.000000e+000
      vertex  5.000000e+000  4.500000e+001  3.000000e+000
      vertex  5.000000e+000  1.000000e+001  3.000000e+000
    endloop
  endfacet
  facet normal  0.000000e+000  0.000000e+000  1.000000e+000
    outer loop
      vertex  4.500000e+001  5.000000e+000  3.000000e+000
      vertex  5.000000e+000  1.000000e+001  3.000000e+000
      vertex  5.036456e+000  9.397317e+000  3.000000e+000
    endloop
  endfacet
  facet normal  0.000000e+000  0.000000e+000  1.000000e+000
    outer loop
      vertex  4.500000e+001  5.000000e+000  3.000000e+000
      vertex  5.036456e+000  9.397317e+000  3.000000e+000
      vertex  5.145291e+000  8.803422e+000  3.000000e+000
    endloop
  endfacet
  facet normal  0.000000e+000  0.000000e+000  1.000000e+000
    outer loop
      vertex  4.500000e+001  5.000000e+000  3.000000e+000
      vertex  5.145291e+000  8.803422e+000  3.000000e+000
      vertex  5.324919e+000  8.226975e+000  3.000000e+000
    endloop
  endfacet
  facet normal  0.000000e+000  0.000000e+000  1.000000e+000
    outer loop
      vertex  4.500000e+001  5.000000e+000  3.000000e+000
      vertex  5.324919e+000  8.226975e+000  3.000000e+000
      vertex  5.572720e+000  7.676384e+000  3.000000e+000
    endloop
  endfacet
  facet normal  0.000000e+000  0.000000e+000  1.000000e+000
    outer loop
      vertex  4.500000e+001  5.000000e+000  3.000000e+000
      vertex  5.572720e+000  7.676384e+000  3.000000e+000
      vertex  5.885080e+000  7.159677e+000  3.000000e+000
    endloop
  endfacet
  facet normal  0.000000e+000  0.000000e+000  1.000000e+000
    outer loop
      vertex  4.500000e+001  5.000000e+000  3.000000e+000
      vertex  5.885080e+000  7.159677e+000  3.000000e+000
      vertex  6.257446e+000  6.684387e+000  3.000000e+000
    endloop
  endfacet
  facet normal  0.000000e+000  0.000000e+000  1.000000e+000
    outer loop
      vertex  4.500000e+001  5.000000e+000  3.000000e+000
      vertex  6.257446e+000  6.684387e+000  3.000000e+000
      vertex  6.684386e+000  6.257446e+000  3.000000e+000
    endloop
  endfacet
  facet normal  0.000000e+000  0.000000e+000  1.000000e+000
    outer loop
      vertex  4.500000e+001  5.000000e+000  3.000000e+000
      vertex  6.684386e+000  6.257446e+000  3.000000e+000
      vertex  7.159676e+000  5.885081e+000  3.000000e+000
    endloop
  endfacet
  facet normal  0.000000e+000  0.000000e+000  1.000000e+000
    outer loop
      vertex  4.500000e+001  5.000000e+000  3.000000e+000
      vertex  7.159676e+000  5.885081e+000  3.000000e+000
      vertex  7.676384e+000  5.572720e+000  3.000000e+000
    endloop
  endfacet
  facet normal  0.000000e+000  0.000000e+000  1.000000e+000
    outer loop
      vertex  4.500000e+001  5.000000e+000  3.000000e+000
      vertex  7.676384e+000  5.572720e+000  3.000000e+000
      vertex  8.226975e+000  5.324919e+000  3.000000e+000
    endloop
  endfacet
  facet normal  0.000000e+000  0.000000e+000  9.999999e-001
    outer loop
      vertex  4.500000e+001  5.000000e+000  3.000000e+000
      vertex  8.226975e+000  5.324919e+000  3.000000e+000
      vertex  8.803421e+000  5.145291e+000  3.000000e+000
    endloop
  endfacet
  facet normal  0.000000e+000  0.000000e+000  1.000000e+000
    outer loop
      vertex  4.500000e+001  5.000000e+000  3.000000e+000
      vertex  8.803421e+000  5.145291e+000  3.000000e+000
      vertex  9.397316e+000  5.036456e+000  3.000000e+000
    endloop
  endfacet
  facet normal  0.000000e+000  0.000000e+000  1.000000e+000
    outer loop
      vertex  4.500000e+001  5.000000e+000  3.000000e+000
      vertex  9.397316e+000  5.036456e+000  3.000000e+000
      vertex  9.999999e+000  5.000000e+000  3.000000e+000
    endloop
  endfacet
  facet normal  9.999999e-001  0.000000e+000  0.000000e+000
    outer loop
      vertex  5.000000e+001  5.000000e+000  2.000000e-001
      vertex  5.000000e+001  5.000000e+000  0.000000e+000
      vertex  5.000000e+001  4.200000e+001  2.000000e-001
    endloop
  endfacet
  facet normal  9.999999e-001  0.000000e+000  0.000000e+000
    outer loop
      vertex  5.000000e+001  4.200000e+001  2.000000e-001
      vertex  5.000000e+001  5.000000e+000  0.000000e+000
      vertex  5.000000e+001  4.200000e+001  0.000000e+000
    endloop
  endfacet
  facet normal  7.071068e-001 -7.071068e-001  0.000000e+000
    outer loop
      vertex  5.000000e+001  5.000000e+000  2.000000e-001
      vertex  4.750000e+001  2.500000e+000  1.600000e+000
      vertex  5.000000e+001  5.000000e+000  0.000000e+000
    endloop
  endfacet
  facet normal  7.071068e-001 -7.071068e-001  0.000000e+000
    outer loop
      vertex  5.000000e+001  5.000000e+000  0.000000e+000
      vertex  4.750000e+001  2.500000e+000  1.600000e+000
      vertex  4.500000e+001  0.000000e+000  2.000000e-001
    endloop
  endfacet
  facet normal  7.071068e-001 -7.071068e-001  0.000000e+000
    outer loop
      vertex  5.000000e+001  5.000000e+000  0.000000e+000
      vertex  4.500000e+001  0.000000e+000  2.000000e-001
      vertex  4.500000e+001  0.000000e+000  0.000000e+000
    endloop
  endfacet
  facet normal  0.000000e+000 -1.000000e+000  0.000000e+000
    outer loop
      vertex  1.000000e+001  0.000000e+000  2.000000e-001
      vertex  1.000000e+001  0.000000e+000  0.000000e+000
      vertex  4.500000e+001  0.000000e+000  2.000000e-001
    endloop
  endfacet
  facet normal  0.000000e+000 -1.000000e+000  -0.000000e+000
    outer loop
      vertex  4.500000e+001  0.000000e+000  2.000000e-001
      vertex  1.000000e+001  0.000000e+000  0.000000e+000
      vertex  4.500000e+001  0.000000e+000  0.000000e+000
    endloop
  endfacet
  facet normal -4.361940e-002 -9.990482e-001  -0.000000e+000
    outer loop
      vertex  1.000000e+001  0.000000e+000  0.000000e+000
      vertex  1.000000e+001  0.000000e+000  2.000000e-001
      vertex  9.128443e+000  3.805302e-002  0.000000e+000
    endloop
  endfacet
  facet normal -4.361940e-002 -9.990482e-001  0.000000e+000
    outer loop
      vertex  9.128443e+000  3.805302e-002  0.000000e+000
      vertex  1.000000e+001  0.000000e+000  2.000000e-001
      vertex  9.128443e+000  3.805302e-002  2.000000e-001
    endloop
  endfacet
  facet normal -1.305262e-001 -9.914449e-001  -0.000000e+000
    outer loop
      vertex  9.128443e+000  3.805302e-002  0.000000e+000
      vertex  9.128443e+000  3.805302e-002  2.000000e-001
      vertex  8.263518e+000  1.519225e-001  0.000000e+000
    endloop
  endfacet
  facet normal -1.305262e-001 -9.914449e-001  0.000000e+000
    outer loop
      vertex  8.263518e+000  1.519225e-001  0.000000e+000
      vertex  9.128443e+000  3.805302e-002  2.000000e-001
      vertex  8.263518e+000  1.519225e-001  2.000000e-001
    endloop
  endfacet
  facet normal -2.164395e-001 -9.762959e-001  -0.000000e+000
    outer loop
      vertex  8.263518e+000  1.519225e-001  0.000000e+000
      vertex  8.263518e+000  1.519225e-001  2.000000e-001
      vertex  7.411809e+000  3.407417e-001  0.000000e+000
    endloop
  endfacet
  facet normal -2.164395e-001 -9.762959e-001  0.000000e+000
    outer loop
      vertex  7.411809e+000  3.407417e-001  0.000000e+000
      vertex  8.263518e+000  1.519225e-001  2.000000e-001
      vertex  7.411809e+000  3.407417e-001  2.000000e-001
    endloop
  endfacet
  facet normal -3.007059e-001 -9.537169e-001  -0.000000e+000
    outer loop
      vertex  7.411809e+000  3.407417e-001  0.000000e+000
      vertex  7.411809e+000  3.407417e-001  2.000000e-001
      vertex  6.579799e+000  6.030738e-001  0.000000e+000
    endloop
  endfacet
  facet normal -3.007059e-001 -9.537169e-001  0.000000e+000
    outer loop
      vertex  6.579799e+000  6.030738e-001  0.000000e+000
      vertex  7.411809e+000  3.407417e-001  2.000000e-001
      vertex  6.579799e+000  6.030738e-001  2.000000e-001
    endloop
  endfacet
  facet normal -3.826835e-001 -9.238796e-001  -0.000000e+000
    outer loop
      vertex  6.579799e+000  6.030738e-001  0.000000e+000
      vertex  6.579799e+000  6.030738e-001  2.000000e-001
      vertex  5.773818e+000  9.369221e-001  0.000000e+000
    endloop
  endfacet
  facet normal -3.826835e-001 -9.238796e-001  0.000000e+000
    outer loop
      vertex  5.773818e+000  9.369221e-001  0.000000e+000
      vertex  6.579799e+000  6.030738e-001  2.000000e-001
      vertex  5.773818e+000  9.369221e-001  2.000000e-001
    endloop
  endfacet
  facet normal -4.617486e-001 -8.870109e-001  -0.000000e+000
    outer loop
      vertex  5.773818e+000  9.369221e-001  0.000000e+000
      vertex  5.773818e+000  9.369221e-001  2.000000e-001
      vertex  5.000000e+000  1.339746e+000  0.000000e+000
    endloop
  endfacet
  facet normal -4.617486e-001 -8.870109e-001  0.000000e+000
    outer loop
      vertex  5.000000e+000  1.339746e+000  0.000000e+000
      vertex  5.773818e+000  9.369221e-001  2.000000e-001
      vertex  5.000000e+000  1.339746e+000  2.000000e-001
    endloop
  endfacet
  facet normal -5.372996e-001 -8.433916e-001  -0.000000e+000
    outer loop
      vertex  5.000000e+000  1.339746e+000  0.000000e+000
      vertex  5.000000e+000  1.339746e+000  2.000000e-001
      vertex  4.264235e+000  1.808480e+000  0.000000e+000
    endloop
  endfacet
  facet normal -5.372996e-001 -8.433916e-001  0.000000e+000
    outer loop
      vertex  4.264235e+000  1.808480e+000  0.000000e+000
      vertex  5.000000e+000  1.339746e+000  2.000000e-001
      vertex  4.264235e+000  1.808480e+000  2.000000e-001
    endloop
  endfacet
  facet normal -6.087615e-001 -7.933533e-001  -0.000000e+000
    outer loop
      vertex  4.264235e+000  1.808480e+000  0.000000e+000
      vertex  4.264235e+000  1.808480e+000  2.000000e-001
      vertex  3.572124e+000  2.339556e+000  0.000000e+000
    endloop
  endfacet
  facet normal -6.087615e-001 -7.933533e-001  0.000000e+000
    outer loop
      vertex  3.572124e+000  2.339556e+000  0.000000e+000
      vertex  4.264235e+000  1.808480e+000  2.000000e-001
      vertex  3.572124e+000  2.339556e+000  2.000000e-001
    endloop
  endfacet
  facet normal -6.755902e-001 -7.372774e-001  -0.000000e+000
    outer loop
      vertex  3.572124e+000  2.339556e+000  0.000000e+000
      vertex  3.572124e+000  2.339556e+000  2.000000e-001
      vertex  2.928932e+000  2.928932e+000  0.000000e+000
    endloop
  endfacet
  facet normal -6.755902e-001 -7.372774e-001  0.000000e+000
    outer loop
      vertex  2.928932e+000  2.928932e+000  0.000000e+000
      vertex  3.572124e+000  2.339556e+000  2.000000e-001
      vertex  2.928932e+000  2.928932e+000  2.000000e-001
    endloop
  endfacet
  facet normal -7.372774e-001 -6.755902e-001  -0.000000e+000
    outer loop
      vertex  2.928932e+000  2.928932e+000  0.000000e+000
      vertex  2.928932e+000  2.928932e+000  2.000000e-001
      vertex  2.339556e+000  3.572124e+000  0.000000e+000
    endloop
  endfacet
  facet normal -7.372774e-001 -6.755902e-001  0.000000e+000
    outer loop
      vertex  2.339556e+000  3.572124e+000  0.000000e+000
      vertex  2.928932e+000  2.928932e+000  2.000000e-001
      vertex  2.339556e+000  3.572124e+000  2.000000e-001
    endloop
  endfacet
  facet normal -7.933533e-001 -6.087615e-001  -0.000000e+000
    outer loop
      vertex  2.339556e+000  3.572124e+000  0.000000e+000
      vertex  2.339556e+000  3.572124e+000  2.000000e-001
      vertex  1.808480e+000  4.264235e+000  0.000000e+000
    endloop
  endfacet
  facet normal -7.933533e-001 -6.087615e-001  0.000000e+000
    outer loop
      vertex  1.808480e+000  4.264235e+000  0.000000e+000
      vertex  2.339556e+000  3.572124e+000  2.000000e-001
      vertex  1.808480e+000  4.264235e+000  2.000000e-001
    endloop
  endfacet
  facet normal -8.433916e-001 -5.372996e-001  -0.000000e+000
    outer loop
      vertex  1.808480e+000  4.264235e+000  0.000000e+000
      vertex  1.808480e+000  4.264235e+000  2.000000e-001
      vertex  1.339746e+000  5.000000e+000  0.000000e+000
    endloop
  endfacet
  facet normal -8.433916e-001 -5.372996e-001  0.000000e+000
    outer loop
      vertex  1.339746e+000  5.000000e+000  0.000000e+000
      vertex  1.808480e+000  4.264235e+000  2.000000e-001
      vertex  1.339746e+000  5.000000e+000  2.000000e-001
    endloop
  endfacet
  facet normal -8.870109e-001 -4.617486e-001  -0.000000e+000
    outer loop
      vertex  1.339746e+000  5.000000e+000  0.000000e+000
      vertex  1.339746e+000  5.000000e+000  2.000000e-001
      vertex  9.369221e-001  5.773818e+000  0.000000e+000
    endloop
  endfacet
  facet normal -8.870109e-001 -4.617486e-001  0.000000e+000
    outer loop
      vertex  9.369221e-001  5.773818e+000  0.000000e+000
      vertex  1.339746e+000  5.000000e+000  2.000000e-001
      vertex  9.369221e-001  5.773818e+000  2.000000e-001
    endloop
  endfacet
  facet normal -9.238796e-001 -3.826835e-001  -0.000000e+000
    outer loop
      vertex  9.369221e-001  5.773818e+000  0.000000e+000
      vertex  9.369221e-001  5.773818e+000  2.000000e-001
      vertex  6.030738e-001  6.579799e+000  0.000000e+000
    endloop
  endfacet
  facet normal -9.238796e-001 -3.826835e-001  0.000000e+000
    outer loop
      vertex  6.030738e-001  6.579799e+000  0.000000e+000
      vertex  9.369221e-001  5.773818e+000  2.000000e-001
      vertex  6.030738e-001  6.579799e+000  2.000000e-001
    endloop
  endfacet
  facet normal -9.537169e-001 -3.007059e-001  -0.000000e+000
    outer loop
      vertex  6.030738e-001  6.579799e+000  0.000000e+000
      vertex  6.030738e-001  6.579799e+000  2.000000e-001
      vertex  3.407417e-001  7.411809e+000  0.000000e+000
    endloop
  endfacet
  facet normal -9.537169e-001 -3.007059e-001  0.000000e+000
    outer loop
      vertex  3.407417e-001  7.411809e+000  0.000000e+000
      vertex  6.030738e-001  6.579799e+000  2.000000e-001
      vertex  3.407417e-001  7.411809e+000  2.000000e-001
    endloop
  endfacet
  facet normal -9.762959e-001 -2.164395e-001  -0.000000e+000
    outer loop
      vertex  3.407417e-001  7.411809e+000  0.000000e+000
      vertex  3.407417e-001  7.411809e+000  2.000000e-001
      vertex  1.519225e-001  8.263518e+000  0.000000e+000
    endloop
  endfacet
  facet normal -9.762959e-001 -2.164395e-001  0.000000e+000
    outer loop
      vertex  1.519225e-001  8.263518e+000  0.000000e+000
      vertex  3.407417e-001  7.411809e+000  2.000000e-001
      vertex  1.519225e-001  8.263518e+000  2.000000e-001
    endloop
  endfacet
  facet normal -9.914449e-001 -1.305262e-001  -0.000000e+000
    outer loop
      vertex  1.519225e-001  8.263518e+000  0.000000e+000
      vertex  1.519225e-001  8.263518e+000  2.000000e-001
      vertex  3.805302e-002  9.128443e+000  0.000000e+000
    endloop
  endfacet
  facet normal -9.914449e-001 -1.305262e-001  0.000000e+000
    outer loop
      vertex  3.805302e-002  9.128443e+000  0.000000e+000
      vertex  1.519225e-001  8.263518e+000  2.000000e-001
      vertex  3.805302e-002  9.128443e+000  2.000000e-001
    endloop
  endfacet
  facet normal -9.990482e-001 -4.361940e-002  -0.000000e+000
    outer loop
      vertex  3.805302e-002  9.128443e+000  0.000000e+000
      vertex  3.805302e-002  9.128443e+000  2.000000e-001
      vertex  0.000000e+000  1.000000e+001  0.000000e+000
    endloop
  endfacet
  facet normal -9.990482e-001 -4.361940e-002  0.000000e+000
    outer loop
      vertex  0.000000e+000  1.000000e+001  0.000000e+000
      vertex  3.805302e-002  9.128443e+000  2.000000e-001
      vertex  0.000000e+000  1.000000e+001  2.000000e-001
    endloop
  endfacet
  facet normal  0.000000e+000 -4.886034e-001  8.725060e-001
    outer loop
      vertex  4.750000e+001  2.500000e+000  1.600000e+000
      vertex  4.500000e+001  5.000000e+000  3.000000e+000
      vertex  4.500000e+001  0.000000e+000  2.000000e-001
    endloop
  endfacet
  facet normal  0.000000e+000 -4.886034e-001  8.725060e-001
    outer loop
      vertex  4.500000e+001  0.000000e+000  2.000000e-001
      vertex  4.500000e+001  5.000000e+000  3.000000e+000
      vertex  9.999999e+000  5.000000e+000  3.000000e+000
    endloop
  endfacet
  facet normal  0.000000e+000 -4.886034e-001  8.725060e-001
    outer loop
      vertex  4.500000e+001  0.000000e+000  2.000000e-001
      vertex  9.999999e+000  5.000000e+000  3.000000e+000
      vertex  1.000000e+001  0.000000e+000  2.000000e-001
    endloop
  endfacet
  facet normal  3.454948e-001  3.454948e-001  8.725060e-001
    outer loop
      vertex  4.500000e+001  3.992893e+001  3.000000e+000
      vertex  5.000000e+001  4.200000e+001  2.000000e-001
      vertex  3.992893e+001  4.500000e+001  3.000000e+000
    endloop
  endfacet
  facet normal  3.454947e-001  3.454947e-001  8.725060e-001
    outer loop
      vertex  3.992893e+001  4.500000e+001  3.000000e+000
      vertex  5.000000e+001  4.200000e+001  2.000000e-001
      vertex  4.200000e+001  5.000000e+001  2.000000e-001
    endloop
  endfacet
  facet normal  4.886034e-001  0.000000e+000  8.725060e-001
    outer loop
      vertex  4.750000e+001  2.500000e+000  1.600000e+000
      vertex  5.000000e+001  5.000000e+000  2.000000e-001
      vertex  4.500000e+001  5.000000e+000  3.000000e+000
    endloop
  endfacet
  facet normal  4.886034e-001  0.000000e+000  8.725060e-001
    outer loop
      vertex  4.500000e+001  5.000000e+000  3.000000e+000
      vertex  5.000000e+001  5.000000e+000  2.000000e-001
      vertex  5.000000e+001  4.200000e+001  2.000000e-001
    endloop
  endfacet
  facet normal  4.886034e-001  0.000000e+000  8.725060e-001
    outer loop
      vertex  4.500000e+001  5.000000e+000  3.000000e+000
      vertex  5.000000e+001  4.200000e+001  2.000000e-001
      vertex  4.500000e+001  3.992893e+001  3.000000e+000
    endloop
  endfacet
  facet normal -2.132804e-002 -4.884922e-001  8.723075e-001
    outer loop
      vertex  9.128443e+000  3.805302e-002  2.000000e-001
      vertex  1.000000e+001  0.000000e+000  2.000000e-001
      vertex  9.999999e+000  5.000000e+000  3.000000e+000
    endloop
  endfacet
  facet normal -2.947639e-002 -4.873025e-001  8.727356e-001
    outer loop
      vertex  9.397316e+000  5.036456e+000  3.000000e+000
      vertex  9.128443e+000  3.805302e-002  2.000000e-001
      vertex  9.999999e+000  5.000000e+000  3.000000e+000
    endloop
  endfacet
  facet normal -4.873025e-001 -2.947639e-002  8.727356e-001
    outer loop
      vertex  3.805302e-002  9.128443e+000  2.000000e-001
      vertex  5.036456e+000  9.397317e+000  3.000000e+000
      vertex  5.000000e+000  1.000000e+001  3.000000e+000
    endloop
  endfacet
  facet normal -4.884922e-001 -2.132804e-002  8.723075e-001
    outer loop
      vertex  0.000000e+000  1.000000e+001  2.000000e-001
      vertex  3.805302e-002  9.128443e+000  2.000000e-001
      vertex  5.000000e+000  1.000000e+001  3.000000e+000
    endloop
  endfacet
  facet normal -4.851074e-001 -6.386558e-002  8.721192e-001
    outer loop
      vertex  3.805302e-002  9.128443e+000  2.000000e-001
      vertex  1.519225e-001  8.263518e+000  2.000000e-001
      vertex  5.036456e+000  9.397317e+000  3.000000e+000
    endloop
  endfacet
  facet normal -4.776132e-001 -1.058843e-001  8.721664e-001
    outer loop
      vertex  1.519225e-001  8.263518e+000  2.000000e-001
      vertex  3.407417e-001  7.411809e+000  2.000000e-001
      vertex  5.145291e+000  8.803422e+000  3.000000e+000
    endloop
  endfacet
  facet normal -4.799497e-001 -8.795400e-002  8.728759e-001
    outer loop
      vertex  5.036456e+000  9.397317e+000  3.000000e+000
      vertex  1.519225e-001  8.263518e+000  2.000000e-001
      vertex  5.145291e+000  8.803422e+000  3.000000e+000
    endloop
  endfacet
  facet normal -4.519085e-001 -1.871867e-001  8.722041e-001
    outer loop
      vertex  6.030738e-001  6.579799e+000  2.000000e-001
      vertex  9.369221e-001  5.773818e+000  2.000000e-001
      vertex  5.324919e+000  8.226975e+000  3.000000e+000
    endloop
  endfacet
  facet normal -4.666159e-001 -1.454033e-001  8.724262e-001
    outer loop
      vertex  5.145291e+000  8.803422e+000  3.000000e+000
      vertex  6.030738e-001  6.579799e+000  2.000000e-001
      vertex  5.324919e+000  8.226975e+000  3.000000e+000
    endloop
  endfacet
  facet normal -4.659435e-001 -1.469115e-001  8.725330e-001
    outer loop
      vertex  3.407417e-001  7.411809e+000  2.000000e-001
      vertex  6.030738e-001  6.579799e+000  2.000000e-001
      vertex  5.145291e+000  8.803422e+000  3.000000e+000
    endloop
  endfacet
  facet normal -4.340235e-001 -2.259383e-001  8.721099e-001
    outer loop
      vertex  9.369221e-001  5.773818e+000  2.000000e-001
      vertex  1.339746e+000  5.000000e+000  2.000000e-001
      vertex  5.572720e+000  7.676384e+000  3.000000e+000
    endloop
  endfacet
  facet normal -4.450003e-001 -2.002783e-001  8.728479e-001
    outer loop
      vertex  5.324919e+000  8.226975e+000  3.000000e+000
      vertex  9.369221e-001  5.773818e+000  2.000000e-001
      vertex  5.572720e+000  7.676384e+000  3.000000e+000
    endloop
  endfacet
  facet normal -4.124676e-001 -2.627707e-001  8.722511e-001
    outer loop
      vertex  1.339746e+000  5.000000e+000  2.000000e-001
      vertex  1.808480e+000  4.264235e+000  2.000000e-001
      vertex  5.885080e+000  7.159677e+000  3.000000e+000
    endloop
  endfacet
  facet normal -4.176864e-001 -2.525002e-001  8.728011e-001
    outer loop
      vertex  5.572720e+000  7.676384e+000  3.000000e+000
      vertex  1.339746e+000  5.000000e+000  2.000000e-001
      vertex  5.885080e+000  7.159677e+000  3.000000e+000
    endloop
  endfacet
  facet normal -3.607201e-001 -3.305391e-001  8.721381e-001
    outer loop
      vertex  2.339556e+000  3.572124e+000  2.000000e-001
      vertex  2.928932e+000  2.928932e+000  2.000000e-001
      vertex  6.257446e+000  6.684387e+000  3.000000e+000
    endloop
  endfacet
  facet normal -3.844162e-001 -3.011709e-001  8.726513e-001
    outer loop
      vertex  5.885080e+000  7.159677e+000  3.000000e+000
      vertex  2.339556e+000  3.572124e+000  2.000000e-001
      vertex  6.257446e+000  6.684387e+000  3.000000e+000
    endloop
  endfacet
  facet normal -3.878230e-001 -2.975871e-001  8.723734e-001
    outer loop
      vertex  1.808480e+000  4.264235e+000  2.000000e-001
      vertex  2.339556e+000  3.572124e+000  2.000000e-001
      vertex  5.885080e+000  7.159677e+000  3.000000e+000
    endloop
  endfacet
  facet normal -3.305391e-001 -3.607202e-001  8.721381e-001
    outer loop
      vertex  2.928932e+000  2.928932e+000  2.000000e-001
      vertex  3.572124e+000  2.339556e+000  2.000000e-001
      vertex  6.684386e+000  6.257446e+000  3.000000e+000
    endloop
  endfacet
  facet normal -3.450156e-001 -3.450152e-001  8.728852e-001
    outer loop
      vertex  6.257446e+000  6.684387e+000  3.000000e+000
      vertex  2.928932e+000  2.928932e+000  2.000000e-001
      vertex  6.684386e+000  6.257446e+000  3.000000e+000
    endloop
  endfacet
  facet normal -2.627707e-001 -4.124676e-001  8.722511e-001
    outer loop
      vertex  4.264235e+000  1.808480e+000  2.000000e-001
      vertex  5.000000e+000  1.339746e+000  2.000000e-001
      vertex  7.159676e+000  5.885081e+000  3.000000e+000
    endloop
  endfacet
  facet normal -3.015741e-001 -3.849307e-001  8.722852e-001
    outer loop
      vertex  6.684386e+000  6.257446e+000  3.000000e+000
      vertex  4.264235e+000  1.808480e+000  2.000000e-001
      vertex  7.159676e+000  5.885081e+000  3.000000e+000
    endloop
  endfacet
  facet normal -2.973118e-001 -3.874641e-001  8.726267e-001
    outer loop
      vertex  3.572124e+000  2.339556e+000  2.000000e-001
      vertex  4.264235e+000  1.808480e+000  2.000000e-001
      vertex  6.684386e+000  6.257446e+000  3.000000e+000
    endloop
  endfacet
  facet normal -2.259383e-001 -4.340234e-001  8.721098e-001
    outer loop
      vertex  5.000000e+000  1.339746e+000  2.000000e-001
      vertex  5.773818e+000  9.369221e-001  2.000000e-001
      vertex  7.676384e+000  5.572720e+000  3.000000e+000
    endloop
  endfacet
  facet normal -2.525002e-001 -4.176864e-001  8.728011e-001
    outer loop
      vertex  7.159676e+000  5.885081e+000  3.000000e+000
      vertex  5.000000e+000  1.339746e+000  2.000000e-001
      vertex  7.676384e+000  5.572720e+000  3.000000e+000
    endloop
  endfacet
  facet normal -1.871866e-001 -4.519085e-001  8.722041e-001
    outer loop
      vertex  5.773818e+000  9.369221e-001  2.000000e-001
      vertex  6.579799e+000  6.030738e-001  2.000000e-001
      vertex  8.226975e+000  5.324919e+000  3.000000e+000
    endloop
  endfacet
  facet normal -2.002785e-001 -4.450001e-001  8.728479e-001
    outer loop
      vertex  7.676384e+000  5.572720e+000  3.000000e+000
      vertex  5.773818e+000  9.369221e-001  2.000000e-001
      vertex  8.226975e+000  5.324919e+000  3.000000e+000
    endloop
  endfacet
  facet normal -1.058843e-001 -4.776132e-001  8.721664e-001
    outer loop
      vertex  7.411809e+000  3.407417e-001  2.000000e-001
      vertex  8.263518e+000  1.519225e-001  2.000000e-001
      vertex  8.803421e+000  5.145291e+000  3.000000e+000
    endloop
  endfacet
  facet normal -1.453387e-001 -4.664079e-001  8.725482e-001
    outer loop
      vertex  8.226975e+000  5.324919e+000  3.000000e+000
      vertex  7.411809e+000  3.407417e-001  2.000000e-001
      vertex  8.803421e+000  5.145291e+000  3.000000e+000
    endloop
  endfacet
  facet normal -1.469568e-001 -4.660873e-001  8.724484e-001
    outer loop
      vertex  6.579799e+000  6.030738e-001  2.000000e-001
      vertex  7.411809e+000  3.407417e-001  2.000000e-001
      vertex  8.226975e+000  5.324919e+000  3.000000e+000
    endloop
  endfacet
  facet normal -6.386558e-002 -4.851074e-001  8.721192e-001
    outer loop
      vertex  8.263518e+000  1.519225e-001  2.000000e-001
      vertex  9.128443e+000  3.805302e-002  2.000000e-001
      vertex  9.397316e+000  5.036456e+000  3.000000e+000
    endloop
  endfacet
  facet normal -8.795400e-002 -4.799497e-001  8.728759e-001
    outer loop
      vertex  8.803421e+000  5.145291e+000  3.000000e+000
      vertex  8.263518e+000  1.519225e-001  2.000000e-001
      vertex  9.397316e+000  5.036456e+000  3.000000e+000
    endloop
  endfacet
endsolid CATIA STL
