<?xml version="1.0" encoding="utf-8"?>
<!-- Generator: Adobe Illustrator 25.4.1, SVG Export Plug-In . SVG Version: 6.00 Build 0)  -->
<svg version="1.1" id="Calque_1" dsy:text-version="18000" xmlns:dsy="http://www.3ds.com/print"
	 xmlns="http://www.w3.org/2000/svg" xmlns:xlink="http://www.w3.org/1999/xlink" x="0px" y="0px" viewBox="0 0 297 210"
	 style="enable-background:new 0 0 297 210;" xml:space="preserve">
<style type="text/css">
	.st0{fill:none;stroke:#FF0000;stroke-width:2.834646e-02;}
</style>
<g>
	<path class="st0" d="M150.8,97.1h5.7"/>
	<path class="st0" d="M150.8,89.3v7.8"/>
	<path class="st0" d="M167.8,106.7V87.1"/>
	<path class="st0" d="M167.8,87.1c0-3.1-2.5-5.7-5.7-5.7"/>
	<path class="st0" d="M162.1,81.5h-32.9"/>
	<path class="st0" d="M129.2,81.5v47.1"/>
	<path class="st0" d="M129.2,128.5h9.4"/>
	<path class="st0" d="M138.6,128.5l26.6-17"/>
	<path class="st0" d="M165.2,111.5c1.6-1,2.6-2.8,2.6-4.8"/>
	<path class="st0" d="M156.4,102.7h-5.7"/>
	<path class="st0" d="M150.8,102.7v10.6"/>
	<path class="st0" d="M143.7,113.4c0,2,1.6,3.5,3.5,3.5s3.5-1.6,3.5-3.5"/>
	<path class="st0" d="M143.7,113.4V89.3"/>
	<path class="st0" d="M150.8,89.3c0-2-1.6-3.5-3.5-3.5s-3.5,1.6-3.5,3.5"/>
	<path class="st0" d="M156.4,97.1v-7.8"/>
	<path class="st0" d="M163.5,89.3c0-2-1.6-3.5-3.5-3.5c-2,0-3.5,1.6-3.5,3.5"/>
	<path class="st0" d="M163.5,89.3v16.2"/>
	<path class="st0" d="M156.4,105.4c0,2,1.6,3.5,3.5,3.5c2,0,3.5-1.6,3.5-3.5"/>
	<path class="st0" d="M156.4,105.4v-2.7"/>
	<circle class="st0" cx="134.9" cy="109.8" r="2.8"/>
	<circle class="st0" cx="134.9" cy="92.8" r="2.8"/>
</g>
</svg>
