<?xml version="1.0" encoding="utf-8" ?><!DOCTYPE svg PUBLIC "-//W3C//DTD SVG 1.1//EN" "http://www.w3.org/Graphics/SVG/1.1/DTD/svg11.dtd" 
[ <!ATTLIST svg 
  xmlns:dsy CDATA #FIXED "http://www.3ds.com/print"  
    dsy:text-version CDATA #IMPLIED > 

  <!ATTLIST text 
  xmlns:dsy CDATA #FIXED "http://www.3ds.com/print" 
    dsy:text-version CDATA #IMPLIED > 
]><svg xmlns="http://www.w3.org/2000/svg" xmlns:dsy="http://www.3ds.com/print" dsy:text-version="18000" width="297" height="210" viewBox="0 0 297 210" version="1.1"><g stroke="rgb(0, 0, 0)" stroke-width="0.13" stroke-linecap="butt" stroke-linejoin="miter" fill="none"><path d="M 139.7 113.3 L 133.147 113.3"/><path d="M 139.7 96.7 L 133.147 96.7"/></g><g stroke="rgb(0, 0, 0)" stroke-width="0.35" stroke-linecap="butt" stroke-linejoin="miter" fill="none"><path d="M 149.3 102.2 L 151.3 102.2"/><path d="M 149.3 99.45 L 149.3 102.2"/><path d="M 155.3 105.606 L 155.3 98.7"/><path d="M 155.3 98.7 A 2 2 0 0 0 153.3 96.7"/><path d="M 153.3 96.7 L 141.7 96.7"/><path d="M 141.7 96.7 L 141.7 113.3"/><path d="M 141.7 113.3 L 145 113.3"/><path d="M 145 113.3 L 154.379 107.29"/><path d="M 154.379 107.29 A 2 2 0 0 0 155.3 105.606"/><path d="M 151.3 104.2 L 149.3 104.2"/><path d="M 149.3 104.2 L 149.3 107.95"/><path d="M 146.8 107.95 A 1.25 1.25 0 1 0 149.3 107.95"/><path d="M 146.8 107.95 L 146.8 99.45"/><path d="M 149.3 99.45 A 1.25 1.25 0 1 0 146.8 99.45"/><path d="M 151.3 102.2 L 151.3 99.45"/><path d="M 153.8 99.45 A 1.25 1.25 0 1 0 151.3 99.45"/><path d="M 153.8 99.45 L 153.8 105.15"/><path d="M 151.3 105.15 A 1.25 1.25 0 1 0 153.8 105.15"/><path d="M 151.3 105.15 L 151.3 104.2"/><circle cx="143.7" cy="106.7" r="1"/><circle cx="143.7" cy="100.7" r="1"/></g><g stroke="rgb(0, 0, 0)" stroke-width="0.13" stroke-linecap="butt" stroke-linejoin="miter" fill="none"><path d="M 133.147 131.117 L 133.147 130.658 L 129.621 130.658 L 129.621 131.001 L 129.929 131.092 L 130.136 131.273 L 130.257 131.551 L 130.297 131.934 L 130.655 131.934 L 130.655 131.117 L 133.147 131.117 L 133.147 131.117 z M 130.59 126.08 L 130.181 126.176 L 129.879 126.397 L 129.687 126.74 L 129.621 127.184 L 129.657 127.482 L 129.752 127.739 L 129.909 127.966 L 130.131 128.157 L 130.408 128.309 L 130.746 128.42 L 131.144 128.49 L 131.593 128.511 L 132.309 128.43 L 132.829 128.183 L 133.141 127.784 L 133.247 127.24 L 133.157 126.75 L 132.92 126.377 L 132.546 126.135 L 132.072 126.049 L 131.593 126.135 L 131.225 126.367 L 130.993 126.725 L 130.912 127.169 L 131.013 127.648 L 131.301 128.006 L 130.746 127.931 L 130.348 127.769 L 130.111 127.522 L 130.03 127.179 L 130.07 126.927 L 130.176 126.735 L 130.353 126.609 L 130.59 126.544 L 130.59 126.08 L 130.59 126.08 z M 132.077 126.539 L 132.395 126.594 L 132.637 126.735 L 132.799 126.962 L 132.849 127.245 L 132.799 127.542 L 132.642 127.769 L 132.4 127.915 L 132.082 127.961 L 131.77 127.91 L 131.533 127.769 L 131.381 127.537 L 131.326 127.224 L 131.381 126.952 L 131.528 126.735 L 131.765 126.594 L 132.077 126.539 L 132.077 126.539 z M 133.147 123.902 L 133.147 123.206 L 132.395 123.206 L 132.395 123.902 L 133.147 123.902 L 133.147 123.902 z M 130.59 118.608 L 130.181 118.703 L 129.879 118.925 L 129.687 119.268 L 129.621 119.712 L 129.657 120.01 L 129.752 120.267 L 129.909 120.494 L 130.131 120.685 L 130.408 120.837 L 130.746 120.948 L 131.144 121.018 L 131.593 121.038 L 132.309 120.958 L 132.829 120.711 L 133.141 120.312 L 133.247 119.768 L 133.157 119.278 L 132.92 118.905 L 132.546 118.663 L 132.072 118.577 L 131.593 118.663 L 131.225 118.895 L 130.993 119.253 L 130.912 119.697 L 131.013 120.176 L 131.301 120.534 L 130.746 120.459 L 130.348 120.297 L 130.111 120.05 L 130.03 119.707 L 130.07 119.455 L 130.176 119.263 L 130.353 119.137 L 130.59 119.072 L 130.59 118.608 L 130.59 118.608 z M 132.077 119.067 L 132.395 119.122 L 132.637 119.263 L 132.799 119.49 L 132.849 119.773 L 132.799 120.07 L 132.642 120.297 L 132.4 120.443 L 132.082 120.489 L 131.77 120.438 L 131.533 120.297 L 131.381 120.065 L 131.326 119.752 L 131.381 119.48 L 131.528 119.263 L 131.765 119.122 L 132.077 119.067 L 132.077 119.067 z" stroke="none" fill-rule="evenodd" fill="rgb(0, 0, 0)"/><path d="M 135.664 98.6318 L 135.147 96.7 L 134.629 98.6318"/><path d="M 134.629 111.368 L 135.147 113.3 L 135.664 111.368"/><path d="M 135.147 132.544 L 135.147 96.7"/></g></svg>