<?xml version="1.0" encoding="utf-8" ?><!DOCTYPE svg PUBLIC "-//W3C//DTD SVG 1.1//EN" "http://www.w3.org/Graphics/SVG/1.1/DTD/svg11.dtd" 
[ <!ATTLIST svg 
  xmlns:dsy CDATA #FIXED "http://www.3ds.com/print"  
    dsy:text-version CDATA #IMPLIED > 

  <!ATTLIST text 
  xmlns:dsy CDATA #FIXED "http://www.3ds.com/print" 
    dsy:text-version CDATA #IMPLIED > 
]><svg xmlns="http://www.w3.org/2000/svg" xmlns:dsy="http://www.3ds.com/print" dsy:text-version="18000" width="297" height="210" viewBox="0 0 297 210" version="1.1"><g stroke="rgb(0, 0, 0)" stroke-width="0.13" stroke-linecap="butt" stroke-linejoin="miter" fill="none"><path d="M 178.25 113.65 L 191.944 113.65"/><path d="M 178.25 97.15 L 191.944 97.15"/></g><g stroke="rgb(0, 0, 0)" stroke-width="0.35" stroke-linecap="butt" stroke-linejoin="miter" fill="none"><circle cx="144.2" cy="107.607" r="0.799995"/><path d="M 171.15 98.85 A 1 1 0 1 0 169.15 98.85"/><path d="M 169.15 102.75 L 169.15 98.85"/><path d="M 167.65 102.75 L 169.15 102.75"/><path d="M 133.747 110.963 A 1 1 0 0 0 134.606 111.45"/><path d="M 139.897 102.837 A 1 1 0 0 0 139.039 102.35"/><path d="M 141.656 106.563 A 2.75 2.75 0 0 0 141.839 109.016"/><path d="M 139.897 102.837 L 141.589 105.671"/><path d="M 141.656 106.563 A 1 1 0 0 0 141.589 105.671"/><path d="M 143.541 101.137 L 146.561 106.197"/><path d="M 120.75 100.65 L 142.682 100.65"/><path d="M 143.541 101.137 A 1 1 0 0 0 142.682 100.65"/><path d="M 167.65 102.75 L 167.65 97.35"/><path d="M 168.65 96.35 A 1 1 0 0 0 167.65 97.35"/><path d="M 141.839 109.016 L 142.84 110.694"/><path d="M 142.411 111.45 L 134.606 111.45"/><path d="M 142.411 111.45 A 0.5 0.5 0 0 0 142.84 110.694"/><path d="M 146.659 108.837 A 2.75 2.75 0 0 0 146.561 106.197"/><path d="M 146.659 108.837 A 0.5 0.5 0 0 0 146.677 109.317"/><path d="M 146.677 109.317 L 147.805 111.206"/><path d="M 147.805 111.206 A 0.5 0.5 0 0 0 148.234 111.45"/><path d="M 148.234 111.45 L 162.74 111.45"/><path d="M 162.74 111.45 A 0.5 0.5 0 0 0 163.097 111.3"/><path d="M 168.65 96.35 L 172.4 96.35"/><path d="M 172.8 96.55 A 0.5 0.5 0 0 0 172.4 96.35"/><path d="M 173.1 96.95 A 0.5 0.5 0 0 0 173.5 97.15"/><path d="M 172.8 96.55 L 173.1 96.95"/><path d="M 171.15 98.85 L 171.15 108.65"/><path d="M 169.15 108.65 A 1 1 0 1 0 171.15 108.65"/><path d="M 169.15 108.65 L 169.15 104.45"/><path d="M 169.15 104.45 L 167.65 104.45"/><path d="M 167.65 106.446 L 167.65 104.45"/><path d="M 167.507 106.796 A 0.5 0.5 0 0 0 167.65 106.446"/><path d="M 167.507 106.796 L 163.097 111.3"/><path d="M 120.75 113.65 L 120.75 100.65"/><path d="M 176.25 113.65 L 120.75 113.65"/><path d="M 176.25 97.15 L 176.25 113.65"/><path d="M 173.5 97.15 L 176.25 97.15"/><path d="M 133.747 110.963 L 129.509 103.863"/><path d="M 130.368 102.35 A 1 1 0 0 0 129.509 103.863"/><path d="M 130.368 102.35 L 139.039 102.35"/></g><g stroke="rgb(0, 0, 0)" stroke-width="0.13" stroke-linecap="butt" stroke-linejoin="miter" fill="none"><path d="M 187.944 90.7228 L 187.944 90.2638 L 184.419 90.2638 L 184.419 90.6068 L 184.727 90.6975 L 184.933 90.8791 L 185.054 91.1565 L 185.095 91.5398 L 185.453 91.5398 L 185.453 90.7228 L 187.944 90.7228 L 187.944 90.7228 z M 185.387 85.6856 L 184.979 85.7814 L 184.676 86.0033 L 184.485 86.3463 L 184.419 86.7901 L 184.454 87.0876 L 184.55 87.3448 L 184.706 87.5718 L 184.928 87.7634 L 185.206 87.9147 L 185.544 88.0256 L 185.942 88.0962 L 186.391 88.1164 L 187.107 88.0357 L 187.626 87.7886 L 187.939 87.3902 L 188.045 86.8455 L 187.954 86.3563 L 187.717 85.9831 L 187.344 85.7411 L 186.87 85.6553 L 186.391 85.7411 L 186.023 85.9731 L 185.791 86.3311 L 185.71 86.7749 L 185.811 87.254 L 186.098 87.6121 L 185.544 87.5365 L 185.145 87.3751 L 184.908 87.128 L 184.827 86.785 L 184.868 86.5329 L 184.974 86.3412 L 185.15 86.2151 L 185.387 86.1496 L 185.387 85.6856 L 185.387 85.6856 z M 186.875 86.1445 L 187.193 86.2 L 187.435 86.3412 L 187.596 86.5682 L 187.647 86.8506 L 187.596 87.1481 L 187.44 87.3751 L 187.198 87.5213 L 186.88 87.5667 L 186.567 87.5163 L 186.33 87.3751 L 186.179 87.1431 L 186.124 86.8304 L 186.179 86.5581 L 186.325 86.3412 L 186.562 86.2 L 186.875 86.1445 L 186.875 86.1445 z M 187.944 83.5079 L 187.944 82.812 L 187.193 82.812 L 187.193 83.5079 L 187.944 83.5079 L 187.944 83.5079 z M 187.031 80.6747 L 187.445 80.5637 L 187.768 80.3166 L 187.969 79.9535 L 188.045 79.4895 L 187.954 78.9801 L 187.707 78.5817 L 187.314 78.3296 L 186.809 78.2337 L 186.34 78.3195 L 185.972 78.5615 L 185.735 78.9398 L 185.65 79.429 L 185.71 79.8072 L 185.876 80.0997 L 184.933 79.9585 L 184.933 78.4254 L 184.52 78.4254 L 184.52 80.2964 L 186.376 80.5738 L 186.376 80.1703 L 186.139 79.8778 L 186.053 79.5046 L 186.108 79.1819 L 186.27 78.9347 L 186.517 78.7784 L 186.835 78.7229 L 187.152 78.7784 L 187.4 78.9398 L 187.556 79.1869 L 187.611 79.5046 L 187.576 79.7719 L 187.46 79.9787 L 187.279 80.13 L 187.031 80.2056 L 187.031 80.6747 L 187.031 80.6747 z" stroke="none" fill-rule="evenodd" fill="rgb(0, 0, 0)"/><path d="M 189.427 111.718 L 189.944 113.65 L 190.462 111.718"/><path d="M 190.462 99.0818 L 189.944 97.15 L 189.427 99.0818"/><path d="M 189.944 113.65 L 189.944 77.9059"/></g></svg>