solid CATIA STL
  facet normal  1.000000e+000  0.000000e+000  0.000000e+000
    outer loop
      vertex  6.350000e+001  1.000000e+002  2.750000e+001
      vertex  6.350000e+001  1.000000e+002  7.200000e+002
      vertex  6.350000e+001  9.198863e+001  2.750000e+001
    endloop
  endfacet
  facet normal  1.000000e+000  0.000000e+000  -0.000000e+000
    outer loop
      vertex  6.350000e+001  9.198863e+001  2.750000e+001
      vertex  6.350000e+001  1.000000e+002  7.200000e+002
      vertex  6.350000e+001  9.198862e+001  7.200000e+002
    endloop
  endfacet
  facet normal  0.000000e+000  0.000000e+000 -1.000000e+000
    outer loop
      vertex  6.580000e+002  1.000000e+002  7.200000e+002
      vertex  6.580000e+002  8.000000e+001  7.200000e+002
      vertex  6.697366e+001  8.000000e+001  7.200000e+002
    endloop
  endfacet
  facet normal  0.000000e+000  0.000000e+000 -1.000000e+000
    outer loop
      vertex  6.580000e+002  1.000000e+002  7.200000e+002
      vertex  6.697366e+001  8.000000e+001  7.200000e+002
      vertex  6.693737e+001  8.254140e+001  7.200000e+002
    endloop
  endfacet
  facet normal  0.000000e+000  0.000000e+000 -1.000000e+000
    outer loop
      vertex  6.580000e+002  1.000000e+002  7.200000e+002
      vertex  6.693737e+001  8.254140e+001  7.200000e+002
      vertex  6.656219e+001  8.505523e+001  7.200000e+002
    endloop
  endfacet
  facet normal  0.000000e+000  0.000000e+000 -1.000000e+000
    outer loop
      vertex  6.580000e+002  1.000000e+002  7.200000e+002
      vertex  6.656219e+001  8.505523e+001  7.200000e+002
      vertex  6.585485e+001  8.749648e+001  7.200000e+002
    endloop
  endfacet
  facet normal  0.000000e+000  0.000000e+000 -1.000000e+000
    outer loop
      vertex  6.580000e+002  1.000000e+002  7.200000e+002
      vertex  6.585485e+001  8.749648e+001  7.200000e+002
      vertex  6.482800e+001  8.982148e+001  7.200000e+002
    endloop
  endfacet
  facet normal  0.000000e+000  0.000000e+000 -1.000000e+000
    outer loop
      vertex  6.580000e+002  1.000000e+002  7.200000e+002
      vertex  6.482800e+001  8.982148e+001  7.200000e+002
      vertex  6.350000e+001  9.198862e+001  7.200000e+002
    endloop
  endfacet
  facet normal  0.000000e+000  0.000000e+000 -1.000000e+000
    outer loop
      vertex  6.580000e+002  1.000000e+002  7.200000e+002
      vertex  6.350000e+001  9.198862e+001  7.200000e+002
      vertex  6.350000e+001  1.000000e+002  7.200000e+002
    endloop
  endfacet
  facet normal  -0.000000e+000  0.000000e+000  1.000000e+000
    outer loop
      vertex  6.580000e+002  1.000000e+002  2.750000e+001
      vertex  6.350000e+001  1.000000e+002  2.750000e+001
      vertex  6.350000e+001  9.198863e+001  2.750000e+001
    endloop
  endfacet
  facet normal  -0.000000e+000  0.000000e+000  1.000000e+000
    outer loop
      vertex  6.580000e+002  1.000000e+002  2.750000e+001
      vertex  6.350000e+001  9.198863e+001  2.750000e+001
      vertex  6.482800e+001  8.982149e+001  2.750000e+001
    endloop
  endfacet
  facet normal  -0.000000e+000  0.000000e+000  1.000000e+000
    outer loop
      vertex  6.580000e+002  1.000000e+002  2.750000e+001
      vertex  6.482800e+001  8.982149e+001  2.750000e+001
      vertex  6.585485e+001  8.749649e+001  2.750000e+001
    endloop
  endfacet
  facet normal  -0.000000e+000  0.000000e+000  1.000000e+000
    outer loop
      vertex  6.580000e+002  1.000000e+002  2.750000e+001
      vertex  6.585485e+001  8.749649e+001  2.750000e+001
      vertex  6.656219e+001  8.505523e+001  2.750000e+001
    endloop
  endfacet
  facet normal  -0.000000e+000  0.000000e+000  1.000000e+000
    outer loop
      vertex  6.580000e+002  1.000000e+002  2.750000e+001
      vertex  6.656219e+001  8.505523e+001  2.750000e+001
      vertex  6.693737e+001  8.254140e+001  2.750000e+001
    endloop
  endfacet
  facet normal  -0.000000e+000  0.000000e+000  9.999999e-001
    outer loop
      vertex  6.580000e+002  1.000000e+002  2.750000e+001
      vertex  6.693737e+001  8.254140e+001  2.750000e+001
      vertex  6.697366e+001  8.000000e+001  2.750000e+001
    endloop
  endfacet
  facet normal  0.000000e+000  0.000000e+000  1.000000e+000
    outer loop
      vertex  6.580000e+002  1.000000e+002  2.750000e+001
      vertex  6.697366e+001  8.000000e+001  2.750000e+001
      vertex  6.580000e+002  8.000000e+001  2.750000e+001
    endloop
  endfacet
  facet normal  8.526459e-001  5.224892e-001  1.151271e-008
    outer loop
      vertex  6.350000e+001  9.198863e+001  2.750000e+001
      vertex  6.350000e+001  9.198862e+001  7.200000e+002
      vertex  6.482800e+001  8.982149e+001  2.750000e+001
    endloop
  endfacet
  facet normal  8.526451e-001  5.224906e-001  5.756370e-009
    outer loop
      vertex  6.482800e+001  8.982149e+001  2.750000e+001
      vertex  6.350000e+001  9.198862e+001  7.200000e+002
      vertex  6.482800e+001  8.982148e+001  7.200000e+002
    endloop
  endfacet
  facet normal  9.147547e-001  4.040095e-001  4.451044e-009
    outer loop
      vertex  6.482800e+001  8.982149e+001  2.750000e+001
      vertex  6.482800e+001  8.982148e+001  7.200000e+002
      vertex  6.585485e+001  8.749649e+001  2.750000e+001
    endloop
  endfacet
  facet normal  9.147547e-001  4.040095e-001  4.451044e-009
    outer loop
      vertex  6.585485e+001  8.749649e+001  2.750000e+001
      vertex  6.482800e+001  8.982148e+001  7.200000e+002
      vertex  6.585485e+001  8.749648e+001  7.200000e+002
    endloop
  endfacet
  facet normal  9.604945e-001  2.782988e-001  3.066067e-009
    outer loop
      vertex  6.585485e+001  8.749649e+001  2.750000e+001
      vertex  6.585485e+001  8.749648e+001  7.200000e+002
      vertex  6.656219e+001  8.505523e+001  2.750000e+001
    endloop
  endfacet
  facet normal  9.604943e-001  2.782996e-001  -0.000000e+000
    outer loop
      vertex  6.656219e+001  8.505523e+001  2.750000e+001
      vertex  6.585485e+001  8.749648e+001  7.200000e+002
      vertex  6.656219e+001  8.505523e+001  7.200000e+002
    endloop
  endfacet
  facet normal  9.890456e-001  1.476100e-001  0.000000e+000
    outer loop
      vertex  6.656219e+001  8.505523e+001  2.750000e+001
      vertex  6.656219e+001  8.505523e+001  7.200000e+002
      vertex  6.693737e+001  8.254140e+001  2.750000e+001
    endloop
  endfacet
  facet normal  9.890456e-001  1.476100e-001  -0.000000e+000
    outer loop
      vertex  6.693737e+001  8.254140e+001  2.750000e+001
      vertex  6.656219e+001  8.505523e+001  7.200000e+002
      vertex  6.693737e+001  8.254140e+001  7.200000e+002
    endloop
  endfacet
  facet normal  9.998981e-001  1.427924e-002  0.000000e+000
    outer loop
      vertex  6.693737e+001  8.254140e+001  2.750000e+001
      vertex  6.693737e+001  8.254140e+001  7.200000e+002
      vertex  6.697366e+001  8.000000e+001  2.750000e+001
    endloop
  endfacet
  facet normal  9.998981e-001  1.427924e-002  -0.000000e+000
    outer loop
      vertex  6.697366e+001  8.000000e+001  2.750000e+001
      vertex  6.693737e+001  8.254140e+001  7.200000e+002
      vertex  6.697366e+001  8.000000e+001  7.200000e+002
    endloop
  endfacet
  facet normal  7.071067e-001  7.071067e-001  0.000000e+000
    outer loop
      vertex  6.350000e+001  1.000000e+002  2.750000e+001
      vertex  3.700000e+001  1.265000e+002  1.000000e+000
      vertex  6.350000e+001  1.000000e+002  7.200000e+002
    endloop
  endfacet
  facet normal  7.071067e-001  7.071067e-001  0.000000e+000
    outer loop
      vertex  6.350000e+001  1.000000e+002  7.200000e+002
      vertex  3.700000e+001  1.265000e+002  1.000000e+000
      vertex  3.700000e+001  1.265000e+002  7.400000e+002
    endloop
  endfacet
  facet normal  7.071068e-001  7.071068e-001  0.000000e+000
    outer loop
      vertex  6.350000e+001  1.000000e+002  7.200000e+002
      vertex  3.700000e+001  1.265000e+002  7.400000e+002
      vertex  6.350000e+001  1.000000e+002  7.400000e+002
    endloop
  endfacet
  facet normal  0.000000e+000  1.000000e+000  0.000000e+000
    outer loop
      vertex  6.350000e+001  1.000000e+002  7.200000e+002
      vertex  6.350000e+001  1.000000e+002  7.400000e+002
      vertex  6.580000e+002  1.000000e+002  7.200000e+002
    endloop
  endfacet
  facet normal  0.000000e+000  1.000000e+000  -0.000000e+000
    outer loop
      vertex  6.580000e+002  1.000000e+002  7.200000e+002
      vertex  6.350000e+001  1.000000e+002  7.400000e+002
      vertex  6.780000e+002  1.000000e+002  7.400000e+002
    endloop
  endfacet
  facet normal  0.000000e+000  1.000000e+000  0.000000e+000
    outer loop
      vertex  6.580000e+002  1.000000e+002  7.200000e+002
      vertex  6.780000e+002  1.000000e+002  7.400000e+002
      vertex  6.580000e+002  1.000000e+002  2.750000e+001
    endloop
  endfacet
  facet normal  0.000000e+000  1.000000e+000  0.000000e+000
    outer loop
      vertex  6.580000e+002  1.000000e+002  2.750000e+001
      vertex  6.780000e+002  1.000000e+002  7.400000e+002
      vertex  6.780000e+002  1.000000e+002  2.750000e+001
    endloop
  endfacet
  facet normal  0.000000e+000  7.071068e-001  7.071068e-001
    outer loop
      vertex  3.700000e+001  1.265000e+002  1.000000e+000
      vertex  6.350000e+001  1.000000e+002  2.750000e+001
      vertex  6.780000e+002  1.265000e+002  1.000000e+000
    endloop
  endfacet
  facet normal  0.000000e+000  7.071068e-001  7.071068e-001
    outer loop
      vertex  6.780000e+002  1.265000e+002  1.000000e+000
      vertex  6.350000e+001  1.000000e+002  2.750000e+001
      vertex  6.580000e+002  1.000000e+002  2.750000e+001
    endloop
  endfacet
  facet normal  -0.000000e+000  7.071068e-001  7.071068e-001
    outer loop
      vertex  6.780000e+002  1.265000e+002  1.000000e+000
      vertex  6.580000e+002  1.000000e+002  2.750000e+001
      vertex  6.780000e+002  1.000000e+002  2.750000e+001
    endloop
  endfacet
  facet normal -1.000000e+000  -0.000000e+000  0.000000e+000
    outer loop
      vertex  6.580000e+002  8.000000e+001  7.200000e+002
      vertex  6.580000e+002  1.000000e+002  7.200000e+002
      vertex  6.580000e+002  8.000000e+001  2.750000e+001
    endloop
  endfacet
  facet normal -1.000000e+000  0.000000e+000  0.000000e+000
    outer loop
      vertex  6.580000e+002  8.000000e+001  2.750000e+001
      vertex  6.580000e+002  1.000000e+002  7.200000e+002
      vertex  6.580000e+002  1.000000e+002  2.750000e+001
    endloop
  endfacet
  facet normal  0.000000e+000  9.999999e-001  0.000000e+000
    outer loop
      vertex  6.580000e+002  8.000000e+001  2.750000e+001
      vertex  6.697366e+001  8.000000e+001  2.750000e+001
      vertex  6.580000e+002  8.000000e+001  7.200000e+002
    endloop
  endfacet
  facet normal  0.000000e+000  9.999999e-001  0.000000e+000
    outer loop
      vertex  6.580000e+002  8.000000e+001  7.200000e+002
      vertex  6.697366e+001  8.000000e+001  2.750000e+001
      vertex  6.697366e+001  8.000000e+001  7.200000e+002
    endloop
  endfacet
  facet normal  0.000000e+000 -1.000000e+000  0.000000e+000
    outer loop
      vertex  2.980000e+002  5.000000e+001  7.400000e+002
      vertex  2.980000e+002  5.000000e+001 -3.000000e+000
      vertex  3.980000e+002  5.000000e+001  7.400000e+002
    endloop
  endfacet
  facet normal  0.000000e+000 -1.000000e+000  -0.000000e+000
    outer loop
      vertex  3.980000e+002  5.000000e+001  7.400000e+002
      vertex  2.980000e+002  5.000000e+001 -3.000000e+000
      vertex  3.980000e+002  5.000000e+001 -3.000000e+000
    endloop
  endfacet
  facet normal -1.000000e+000  0.000000e+000  0.000000e+000
    outer loop
      vertex  3.980000e+002  5.000000e+001  7.400000e+002
      vertex  3.980000e+002  5.000000e+001 -3.000000e+000
      vertex  3.980000e+002  1.000000e+001  7.400000e+002
    endloop
  endfacet
  facet normal -1.000000e+000  0.000000e+000  0.000000e+000
    outer loop
      vertex  3.980000e+002  1.000000e+001  7.400000e+002
      vertex  3.980000e+002  5.000000e+001 -3.000000e+000
      vertex  3.980000e+002  1.000000e+001 -3.000000e+000
    endloop
  endfacet
  facet normal  1.000000e+000  0.000000e+000  0.000000e+000
    outer loop
      vertex  2.980000e+002  1.000000e+001  7.400000e+002
      vertex  2.980000e+002  1.000000e+001 -3.000000e+000
      vertex  2.980000e+002  5.000000e+001  7.400000e+002
    endloop
  endfacet
  facet normal  1.000000e+000  0.000000e+000  0.000000e+000
    outer loop
      vertex  2.980000e+002  5.000000e+001  7.400000e+002
      vertex  2.980000e+002  1.000000e+001 -3.000000e+000
      vertex  2.980000e+002  5.000000e+001 -3.000000e+000
    endloop
  endfacet
  facet normal  0.000000e+000  1.000000e+000  0.000000e+000
    outer loop
      vertex  3.300000e+001  1.265000e+002  7.400000e+002
      vertex  3.700000e+001  1.265000e+002  7.400000e+002
      vertex  3.300000e+001  1.265000e+002 -3.000000e+000
    endloop
  endfacet
  facet normal  0.000000e+000  9.999999e-001  0.000000e+000
    outer loop
      vertex  3.300000e+001  1.265000e+002 -3.000000e+000
      vertex  3.700000e+001  1.265000e+002  7.400000e+002
      vertex  3.700000e+001  1.265000e+002  1.000000e+000
    endloop
  endfacet
  facet normal  0.000000e+000  1.000000e+000  0.000000e+000
    outer loop
      vertex  3.300000e+001  1.265000e+002 -3.000000e+000
      vertex  3.700000e+001  1.265000e+002  1.000000e+000
      vertex  6.780000e+002  1.265000e+002 -3.000000e+000
    endloop
  endfacet
  facet normal  0.000000e+000  1.000000e+000  -0.000000e+000
    outer loop
      vertex  6.780000e+002  1.265000e+002 -3.000000e+000
      vertex  3.700000e+001  1.265000e+002  1.000000e+000
      vertex  6.780000e+002  1.265000e+002  1.000000e+000
    endloop
  endfacet
  facet normal  8.659569e-017 -7.071068e-001 -7.071068e-001
    outer loop
      vertex  6.780000e+002  8.881784e-014  7.000000e+000
      vertex  4.080000e+002  5.575235e-014  7.000000e+000
      vertex  6.780000e+002  1.000000e+001 -3.000000e+000
    endloop
  endfacet
  facet normal  -0.000000e+000 -7.071068e-001 -7.071068e-001
    outer loop
      vertex  6.780000e+002  1.000000e+001 -3.000000e+000
      vertex  4.080000e+002  5.575235e-014  7.000000e+000
      vertex  3.980000e+002  1.000000e+001 -3.000000e+000
    endloop
  endfacet
  facet normal -1.543863e-013 -1.000000e+000  0.000000e+000
    outer loop
      vertex  3.300000e+001  0.000000e+000  7.000000e+000
      vertex  2.880000e+002 -3.936851e-011  7.000000e+000
      vertex  3.300000e+001  0.000000e+000  7.300000e+002
    endloop
  endfacet
  facet normal -1.544351e-013 -1.000000e+000 -1.719848e-017
    outer loop
      vertex  3.300000e+001  0.000000e+000  7.300000e+002
      vertex  2.880000e+002 -3.936851e-011  7.000000e+000
      vertex  2.880000e+002 -3.938094e-011  7.300000e+002
    endloop
  endfacet
  facet normal  7.071068e-001 -7.071068e-001 -1.216116e-017
    outer loop
      vertex  2.880000e+002 -3.938094e-011  7.300000e+002
      vertex  2.880000e+002 -3.936851e-011  7.000000e+000
      vertex  2.980000e+002  1.000000e+001  7.400000e+002
    endloop
  endfacet
  facet normal  7.071068e-001 -7.071068e-001  0.000000e+000
    outer loop
      vertex  2.980000e+002  1.000000e+001  7.400000e+002
      vertex  2.880000e+002 -3.936851e-011  7.000000e+000
      vertex  2.980000e+002  1.000000e+001 -3.000000e+000
    endloop
  endfacet
  facet normal -1.091676e-013 -7.071068e-001 -7.071068e-001
    outer loop
      vertex  2.880000e+002 -3.936851e-011  7.000000e+000
      vertex  3.300000e+001  0.000000e+000  7.000000e+000
      vertex  2.980000e+002  1.000000e+001 -3.000000e+000
    endloop
  endfacet
  facet normal  -0.000000e+000 -7.071068e-001 -7.071068e-001
    outer loop
      vertex  2.980000e+002  1.000000e+001 -3.000000e+000
      vertex  3.300000e+001  0.000000e+000  7.000000e+000
      vertex  3.300000e+001  1.000000e+001 -3.000000e+000
    endloop
  endfacet
  facet normal -7.071068e-001 -7.071068e-001 -3.857587e-014
    outer loop
      vertex  4.080000e+002  5.575235e-014  7.000000e+000
      vertex  4.080000e+002 -3.938716e-011  7.300000e+002
      vertex  3.980000e+002  1.000000e+001 -3.000000e+000
    endloop
  endfacet
  facet normal -7.071068e-001 -7.071068e-001  0.000000e+000
    outer loop
      vertex  3.980000e+002  1.000000e+001 -3.000000e+000
      vertex  4.080000e+002 -3.938716e-011  7.300000e+002
      vertex  3.980000e+002  1.000000e+001  7.400000e+002
    endloop
  endfacet
  facet normal  1.224648e-016 -1.000000e+000 -5.455451e-014
    outer loop
      vertex  4.080000e+002  5.575235e-014  7.000000e+000
      vertex  6.780000e+002  8.881784e-014  7.000000e+000
      vertex  4.080000e+002 -3.938716e-011  7.300000e+002
    endloop
  endfacet
  facet normal  1.462073e-013 -1.000000e+000  0.000000e+000
    outer loop
      vertex  4.080000e+002 -3.938716e-011  7.300000e+002
      vertex  6.780000e+002  8.881784e-014  7.000000e+000
      vertex  6.780000e+002  8.881784e-014  7.300000e+002
    endloop
  endfacet
  facet normal -1.092021e-013 -7.071068e-001  7.071068e-001
    outer loop
      vertex  3.300000e+001  0.000000e+000  7.300000e+002
      vertex  2.880000e+002 -3.938094e-011  7.300000e+002
      vertex  3.300000e+001  1.000000e+001  7.400000e+002
    endloop
  endfacet
  facet normal  0.000000e+000 -7.071068e-001  7.071068e-001
    outer loop
      vertex  3.300000e+001  1.000000e+001  7.400000e+002
      vertex  2.880000e+002 -3.938094e-011  7.300000e+002
      vertex  2.980000e+002  1.000000e+001  7.400000e+002
    endloop
  endfacet
  facet normal  1.033842e-013 -7.071068e-001  7.071068e-001
    outer loop
      vertex  4.080000e+002 -3.938716e-011  7.300000e+002
      vertex  6.780000e+002  8.881784e-014  7.300000e+002
      vertex  3.980000e+002  1.000000e+001  7.400000e+002
    endloop
  endfacet
  facet normal  0.000000e+000 -7.071068e-001  7.071068e-001
    outer loop
      vertex  3.980000e+002  1.000000e+001  7.400000e+002
      vertex  6.780000e+002  8.881784e-014  7.300000e+002
      vertex  6.780000e+002  1.000000e+001  7.400000e+002
    endloop
  endfacet
  facet normal -1.000000e+000  -0.000000e+000  0.000000e+000
    outer loop
      vertex  3.300000e+001  1.000000e+001  7.400000e+002
      vertex  3.300000e+001  1.265000e+002  7.400000e+002
      vertex  3.300000e+001  0.000000e+000  7.300000e+002
    endloop
  endfacet
  facet normal -1.000000e+000  0.000000e+000  0.000000e+000
    outer loop
      vertex  3.300000e+001  1.000000e+001 -3.000000e+000
      vertex  3.300000e+001  0.000000e+000  7.000000e+000
      vertex  3.300000e+001  1.265000e+002 -3.000000e+000
    endloop
  endfacet
  facet normal -1.000000e+000  0.000000e+000  0.000000e+000
    outer loop
      vertex  3.300000e+001  1.265000e+002 -3.000000e+000
      vertex  3.300000e+001  0.000000e+000  7.000000e+000
      vertex  3.300000e+001  0.000000e+000  7.300000e+002
    endloop
  endfacet
  facet normal -1.000000e+000  0.000000e+000  0.000000e+000
    outer loop
      vertex  3.300000e+001  1.265000e+002 -3.000000e+000
      vertex  3.300000e+001  0.000000e+000  7.300000e+002
      vertex  3.300000e+001  1.265000e+002  7.400000e+002
    endloop
  endfacet
  facet normal  1.000000e+000  0.000000e+000  0.000000e+000
    outer loop
      vertex  6.780000e+002  1.265000e+002 -3.000000e+000
      vertex  6.780000e+002  1.265000e+002  1.000000e+000
      vertex  6.780000e+002  1.000000e+001 -3.000000e+000
    endloop
  endfacet
  facet normal  1.000000e+000  0.000000e+000  0.000000e+000
    outer loop
      vertex  6.780000e+002  1.000000e+001  7.400000e+002
      vertex  6.780000e+002  8.881784e-014  7.300000e+002
      vertex  6.780000e+002  1.000000e+002  7.400000e+002
    endloop
  endfacet
  facet normal  1.000000e+000  0.000000e+000  0.000000e+000
    outer loop
      vertex  6.780000e+002  1.000000e+002  7.400000e+002
      vertex  6.780000e+002  8.881784e-014  7.300000e+002
      vertex  6.780000e+002  8.881784e-014  7.000000e+000
    endloop
  endfacet
  facet normal  1.000000e+000  0.000000e+000  0.000000e+000
    outer loop
      vertex  6.780000e+002  1.000000e+002  7.400000e+002
      vertex  6.780000e+002  8.881784e-014  7.000000e+000
      vertex  6.780000e+002  1.000000e+002  2.750000e+001
    endloop
  endfacet
  facet normal  1.000000e+000  0.000000e+000  0.000000e+000
    outer loop
      vertex  6.780000e+002  1.000000e+002  2.750000e+001
      vertex  6.780000e+002  8.881784e-014  7.000000e+000
      vertex  6.780000e+002  1.000000e+001 -3.000000e+000
    endloop
  endfacet
  facet normal  9.999999e-001  0.000000e+000  0.000000e+000
    outer loop
      vertex  6.780000e+002  1.000000e+002  2.750000e+001
      vertex  6.780000e+002  1.000000e+001 -3.000000e+000
      vertex  6.780000e+002  1.265000e+002  1.000000e+000
    endloop
  endfacet
  facet normal  0.000000e+000  0.000000e+000 -1.000000e+000
    outer loop
      vertex  6.780000e+002  1.000000e+001 -3.000000e+000
      vertex  3.980000e+002  1.000000e+001 -3.000000e+000
      vertex  6.780000e+002  1.265000e+002 -3.000000e+000
    endloop
  endfacet
  facet normal  0.000000e+000  0.000000e+000 -1.000000e+000
    outer loop
      vertex  6.780000e+002  1.265000e+002 -3.000000e+000
      vertex  3.980000e+002  1.000000e+001 -3.000000e+000
      vertex  3.980000e+002  5.000000e+001 -3.000000e+000
    endloop
  endfacet
  facet normal  0.000000e+000  0.000000e+000 -1.000000e+000
    outer loop
      vertex  6.780000e+002  1.265000e+002 -3.000000e+000
      vertex  3.980000e+002  5.000000e+001 -3.000000e+000
      vertex  3.300000e+001  1.265000e+002 -3.000000e+000
    endloop
  endfacet
  facet normal  0.000000e+000  0.000000e+000 -1.000000e+000
    outer loop
      vertex  3.300000e+001  1.265000e+002 -3.000000e+000
      vertex  3.980000e+002  5.000000e+001 -3.000000e+000
      vertex  2.980000e+002  5.000000e+001 -3.000000e+000
    endloop
  endfacet
  facet normal  -0.000000e+000  0.000000e+000 -1.000000e+000
    outer loop
      vertex  3.300000e+001  1.265000e+002 -3.000000e+000
      vertex  2.980000e+002  5.000000e+001 -3.000000e+000
      vertex  3.300000e+001  1.000000e+001 -3.000000e+000
    endloop
  endfacet
  facet normal  0.000000e+000  0.000000e+000 -1.000000e+000
    outer loop
      vertex  3.300000e+001  1.000000e+001 -3.000000e+000
      vertex  2.980000e+002  5.000000e+001 -3.000000e+000
      vertex  2.980000e+002  1.000000e+001 -3.000000e+000
    endloop
  endfacet
  facet normal  0.000000e+000  -0.000000e+000  1.000000e+000
    outer loop
      vertex  3.300000e+001  1.000000e+001  7.400000e+002
      vertex  2.980000e+002  1.000000e+001  7.400000e+002
      vertex  2.980000e+002  5.000000e+001  7.400000e+002
    endloop
  endfacet
  facet normal  0.000000e+000  0.000000e+000  9.999999e-001
    outer loop
      vertex  3.300000e+001  1.000000e+001  7.400000e+002
      vertex  2.980000e+002  5.000000e+001  7.400000e+002
      vertex  6.350000e+001  1.000000e+002  7.400000e+002
    endloop
  endfacet
  facet normal  0.000000e+000  0.000000e+000  9.999999e-001
    outer loop
      vertex  3.300000e+001  1.000000e+001  7.400000e+002
      vertex  6.350000e+001  1.000000e+002  7.400000e+002
      vertex  3.700000e+001  1.265000e+002  7.400000e+002
    endloop
  endfacet
  facet normal  0.000000e+000  0.000000e+000  1.000000e+000
    outer loop
      vertex  3.300000e+001  1.000000e+001  7.400000e+002
      vertex  3.700000e+001  1.265000e+002  7.400000e+002
      vertex  3.300000e+001  1.265000e+002  7.400000e+002
    endloop
  endfacet
  facet normal  0.000000e+000  -0.000000e+000  9.999999e-001
    outer loop
      vertex  6.350000e+001  1.000000e+002  7.400000e+002
      vertex  2.980000e+002  5.000000e+001  7.400000e+002
      vertex  6.780000e+002  1.000000e+002  7.400000e+002
    endloop
  endfacet
  facet normal  0.000000e+000  0.000000e+000  1.000000e+000
    outer loop
      vertex  6.780000e+002  1.000000e+002  7.400000e+002
      vertex  2.980000e+002  5.000000e+001  7.400000e+002
      vertex  3.980000e+002  5.000000e+001  7.400000e+002
    endloop
  endfacet
  facet normal  -0.000000e+000  0.000000e+000  9.999999e-001
    outer loop
      vertex  6.780000e+002  1.000000e+002  7.400000e+002
      vertex  3.980000e+002  5.000000e+001  7.400000e+002
      vertex  6.780000e+002  1.000000e+001  7.400000e+002
    endloop
  endfacet
  facet normal  0.000000e+000  0.000000e+000  1.000000e+000
    outer loop
      vertex  6.780000e+002  1.000000e+001  7.400000e+002
      vertex  3.980000e+002  5.000000e+001  7.400000e+002
      vertex  3.980000e+002  1.000000e+001  7.400000e+002
    endloop
  endfacet
endsolid CATIA STL
