solid CATIA STL
  facet normal  0.000000e+000  0.000000e+000  1.000000e+000
    outer loop
      vertex  6.760000e+002  8.000000e+001  2.750000e+001
      vertex  6.760000e+002  1.000000e+002  2.750000e+001
      vertex  2.000000e+001  8.000000e+001  2.750000e+001
    endloop
  endfacet
  facet normal  0.000000e+000  0.000000e+000  1.000000e+000
    outer loop
      vertex  2.000000e+001  8.000000e+001  2.750000e+001
      vertex  6.760000e+002  1.000000e+002  2.750000e+001
      vertex  2.000000e+001  1.000000e+002  2.750000e+001
    endloop
  endfacet
  facet normal  0.000000e+000  0.000000e+000 -1.000000e+000
    outer loop
      vertex  6.760000e+002  1.000000e+002  7.200000e+002
      vertex  6.760000e+002  8.000000e+001  7.200000e+002
      vertex  6.669737e+002  8.000000e+001  7.200000e+002
    endloop
  endfacet
  facet normal  0.000000e+000  0.000000e+000 -1.000000e+000
    outer loop
      vertex  6.760000e+002  1.000000e+002  7.200000e+002
      vertex  6.669737e+002  8.000000e+001  7.200000e+002
      vertex  2.902633e+001  8.000000e+001  7.200000e+002
    endloop
  endfacet
  facet normal  0.000000e+000  0.000000e+000 -1.000000e+000
    outer loop
      vertex  6.760000e+002  1.000000e+002  7.200000e+002
      vertex  2.902633e+001  8.000000e+001  7.200000e+002
      vertex  2.000000e+001  8.000000e+001  7.200000e+002
    endloop
  endfacet
  facet normal  0.000000e+000  0.000000e+000 -1.000000e+000
    outer loop
      vertex  6.760000e+002  1.000000e+002  7.200000e+002
      vertex  2.000000e+001  8.000000e+001  7.200000e+002
      vertex  2.000000e+001  1.000000e+002  7.200000e+002
    endloop
  endfacet
  facet normal  0.000000e+000  1.000000e+000  0.000000e+000
    outer loop
      vertex  6.760000e+002  8.000000e+001  2.750000e+001
      vertex  2.000000e+001  8.000000e+001  2.750000e+001
      vertex  2.000000e+001  8.000000e+001  7.200000e+002
    endloop
  endfacet
  facet normal  -0.000000e+000  1.000000e+000  0.000000e+000
    outer loop
      vertex  6.760000e+002  8.000000e+001  2.750000e+001
      vertex  2.000000e+001  8.000000e+001  7.200000e+002
      vertex  2.902633e+001  8.000000e+001  7.200000e+002
    endloop
  endfacet
  facet normal  -0.000000e+000  1.000000e+000  0.000000e+000
    outer loop
      vertex  6.760000e+002  8.000000e+001  2.750000e+001
      vertex  2.902633e+001  8.000000e+001  7.200000e+002
      vertex  6.669737e+002  8.000000e+001  7.200000e+002
    endloop
  endfacet
  facet normal  -0.000000e+000  9.999999e-001  0.000000e+000
    outer loop
      vertex  6.760000e+002  8.000000e+001  2.750000e+001
      vertex  6.669737e+002  8.000000e+001  7.200000e+002
      vertex  6.760000e+002  8.000000e+001  7.200000e+002
    endloop
  endfacet
  facet normal  1.000000e+000  0.000000e+000  0.000000e+000
    outer loop
      vertex  2.000000e+001  8.000000e+001  2.750000e+001
      vertex  2.000000e+001  1.000000e+002  2.750000e+001
      vertex  2.000000e+001  8.000000e+001  7.200000e+002
    endloop
  endfacet
  facet normal  1.000000e+000  -0.000000e+000  0.000000e+000
    outer loop
      vertex  2.000000e+001  8.000000e+001  7.200000e+002
      vertex  2.000000e+001  1.000000e+002  2.750000e+001
      vertex  2.000000e+001  1.000000e+002  7.200000e+002
    endloop
  endfacet
  facet normal -1.000000e+000  0.000000e+000  0.000000e+000
    outer loop
      vertex  6.760000e+002  1.000000e+002  2.750000e+001
      vertex  6.760000e+002  8.000000e+001  2.750000e+001
      vertex  6.760000e+002  1.000000e+002  7.200000e+002
    endloop
  endfacet
  facet normal -1.000000e+000  -0.000000e+000  0.000000e+000
    outer loop
      vertex  6.760000e+002  1.000000e+002  7.200000e+002
      vertex  6.760000e+002  8.000000e+001  2.750000e+001
      vertex  6.760000e+002  8.000000e+001  7.200000e+002
    endloop
  endfacet
  facet normal  -0.000000e+000  1.000000e+000  0.000000e+000
    outer loop
      vertex  6.960000e+002  1.000000e+002 -3.000000e+000
      vertex  6.760000e+002  1.000000e+002  2.750000e+001
      vertex  6.960000e+002  1.000000e+002  7.400000e+002
    endloop
  endfacet
  facet normal  0.000000e+000  1.000000e+000  0.000000e+000
    outer loop
      vertex  6.960000e+002  1.000000e+002  7.400000e+002
      vertex  6.760000e+002  1.000000e+002  2.750000e+001
      vertex  6.760000e+002  1.000000e+002  7.200000e+002
    endloop
  endfacet
  facet normal  0.000000e+000  1.000000e+000  -0.000000e+000
    outer loop
      vertex  6.960000e+002  1.000000e+002  7.400000e+002
      vertex  6.760000e+002  1.000000e+002  7.200000e+002
      vertex  0.000000e+000  1.000000e+002  7.400000e+002
    endloop
  endfacet
  facet normal  0.000000e+000  1.000000e+000  0.000000e+000
    outer loop
      vertex  0.000000e+000  1.000000e+002  7.400000e+002
      vertex  6.760000e+002  1.000000e+002  7.200000e+002
      vertex  2.000000e+001  1.000000e+002  7.200000e+002
    endloop
  endfacet
  facet normal  0.000000e+000  1.000000e+000  0.000000e+000
    outer loop
      vertex  0.000000e+000  1.000000e+002  7.400000e+002
      vertex  2.000000e+001  1.000000e+002  7.200000e+002
      vertex  0.000000e+000  1.000000e+002 -3.000000e+000
    endloop
  endfacet
  facet normal  0.000000e+000  1.000000e+000  0.000000e+000
    outer loop
      vertex  0.000000e+000  1.000000e+002 -3.000000e+000
      vertex  2.000000e+001  1.000000e+002  7.200000e+002
      vertex  2.000000e+001  1.000000e+002  2.750000e+001
    endloop
  endfacet
  facet normal  0.000000e+000  1.000000e+000  0.000000e+000
    outer loop
      vertex  0.000000e+000  1.000000e+002 -3.000000e+000
      vertex  2.000000e+001  1.000000e+002  2.750000e+001
      vertex  6.960000e+002  1.000000e+002 -3.000000e+000
    endloop
  endfacet
  facet normal  0.000000e+000  1.000000e+000  0.000000e+000
    outer loop
      vertex  6.960000e+002  1.000000e+002 -3.000000e+000
      vertex  2.000000e+001  1.000000e+002  2.750000e+001
      vertex  6.760000e+002  1.000000e+002  2.750000e+001
    endloop
  endfacet
  facet normal  0.000000e+000 -1.000000e+000  0.000000e+000
    outer loop
      vertex  2.980000e+002  5.000000e+001  7.400000e+002
      vertex  2.980000e+002  5.000000e+001 -3.000000e+000
      vertex  3.980000e+002  5.000000e+001  7.400000e+002
    endloop
  endfacet
  facet normal  0.000000e+000 -1.000000e+000  -0.000000e+000
    outer loop
      vertex  3.980000e+002  5.000000e+001  7.400000e+002
      vertex  2.980000e+002  5.000000e+001 -3.000000e+000
      vertex  3.980000e+002  5.000000e+001 -3.000000e+000
    endloop
  endfacet
  facet normal -1.000000e+000  0.000000e+000  0.000000e+000
    outer loop
      vertex  3.980000e+002  5.000000e+001  7.400000e+002
      vertex  3.980000e+002  5.000000e+001 -3.000000e+000
      vertex  3.980000e+002  1.000000e+001  7.400000e+002
    endloop
  endfacet
  facet normal -1.000000e+000  0.000000e+000  0.000000e+000
    outer loop
      vertex  3.980000e+002  1.000000e+001  7.400000e+002
      vertex  3.980000e+002  5.000000e+001 -3.000000e+000
      vertex  3.980000e+002  1.000000e+001 -3.000000e+000
    endloop
  endfacet
  facet normal  1.000000e+000  0.000000e+000  0.000000e+000
    outer loop
      vertex  2.980000e+002  1.000000e+001  7.400000e+002
      vertex  2.980000e+002  1.000000e+001 -3.000000e+000
      vertex  2.980000e+002  5.000000e+001  7.400000e+002
    endloop
  endfacet
  facet normal  1.000000e+000  0.000000e+000  0.000000e+000
    outer loop
      vertex  2.980000e+002  5.000000e+001  7.400000e+002
      vertex  2.980000e+002  1.000000e+001 -3.000000e+000
      vertex  2.980000e+002  5.000000e+001 -3.000000e+000
    endloop
  endfacet
  facet normal  7.071068e-001 -7.071068e-001 -3.861297e-014
    outer loop
      vertex  6.860000e+002 -3.938716e-011  7.300000e+002
      vertex  6.860000e+002  9.369006e-014  7.000000e+000
      vertex  6.960000e+002  1.000000e+001  7.400000e+002
    endloop
  endfacet
  facet normal  7.071068e-001 -7.071068e-001  0.000000e+000
    outer loop
      vertex  6.960000e+002  1.000000e+001  7.400000e+002
      vertex  6.860000e+002  9.369006e-014  7.000000e+000
      vertex  6.960000e+002  1.000000e+001 -3.000000e+000
    endloop
  endfacet
  facet normal  9.649644e-017 -7.071068e-001 -7.071068e-001
    outer loop
      vertex  6.860000e+002  9.369006e-014  7.000000e+000
      vertex  4.080000e+002  5.575235e-014  7.000000e+000
      vertex  6.960000e+002  1.000000e+001 -3.000000e+000
    endloop
  endfacet
  facet normal  -0.000000e+000 -7.071068e-001 -7.071068e-001
    outer loop
      vertex  6.960000e+002  1.000000e+001 -3.000000e+000
      vertex  4.080000e+002  5.575235e-014  7.000000e+000
      vertex  3.980000e+002  1.000000e+001 -3.000000e+000
    endloop
  endfacet
  facet normal  1.533545e-016 -1.000000e+000  0.000000e+000
    outer loop
      vertex  1.000000e+001 -3.941114e-011  7.000000e+000
      vertex  2.880000e+002 -3.936851e-011  7.000000e+000
      vertex  1.000000e+001 -3.941114e-011  7.300000e+002
    endloop
  endfacet
  facet normal  1.086261e-016 -1.000000e+000 -1.719848e-017
    outer loop
      vertex  1.000000e+001 -3.941114e-011  7.300000e+002
      vertex  2.880000e+002 -3.936851e-011  7.000000e+000
      vertex  2.880000e+002 -3.938094e-011  7.300000e+002
    endloop
  endfacet
  facet normal  7.071068e-001 -7.071068e-001 -1.216116e-017
    outer loop
      vertex  2.880000e+002 -3.938094e-011  7.300000e+002
      vertex  2.880000e+002 -3.936851e-011  7.000000e+000
      vertex  2.980000e+002  1.000000e+001  7.400000e+002
    endloop
  endfacet
  facet normal  7.071068e-001 -7.071068e-001  0.000000e+000
    outer loop
      vertex  2.980000e+002  1.000000e+001  7.400000e+002
      vertex  2.880000e+002 -3.936851e-011  7.000000e+000
      vertex  2.980000e+002  1.000000e+001 -3.000000e+000
    endloop
  endfacet
  facet normal  7.681028e-017 -7.071068e-001  7.071068e-001
    outer loop
      vertex  1.000000e+001 -3.941114e-011  7.300000e+002
      vertex  2.880000e+002 -3.938094e-011  7.300000e+002
      vertex  0.000000e+000  1.000000e+001  7.400000e+002
    endloop
  endfacet
  facet normal  0.000000e+000 -7.071068e-001  7.071068e-001
    outer loop
      vertex  0.000000e+000  1.000000e+001  7.400000e+002
      vertex  2.880000e+002 -3.938094e-011  7.300000e+002
      vertex  2.980000e+002  1.000000e+001  7.400000e+002
    endloop
  endfacet
  facet normal  1.084380e-016 -7.071068e-001 -7.071068e-001
    outer loop
      vertex  2.880000e+002 -3.936851e-011  7.000000e+000
      vertex  1.000000e+001 -3.941114e-011  7.000000e+000
      vertex  2.980000e+002  1.000000e+001 -3.000000e+000
    endloop
  endfacet
  facet normal  -0.000000e+000 -7.071068e-001 -7.071068e-001
    outer loop
      vertex  2.980000e+002  1.000000e+001 -3.000000e+000
      vertex  1.000000e+001 -3.941114e-011  7.000000e+000
      vertex  0.000000e+000  1.000000e+001 -3.000000e+000
    endloop
  endfacet
  facet normal -7.071068e-001 -7.071068e-001  -0.000000e+000
    outer loop
      vertex  1.000000e+001 -3.941114e-011  7.000000e+000
      vertex  1.000000e+001 -3.941114e-011  7.300000e+002
      vertex  0.000000e+000  1.000000e+001 -3.000000e+000
    endloop
  endfacet
  facet normal -7.071068e-001 -7.071068e-001  0.000000e+000
    outer loop
      vertex  0.000000e+000  1.000000e+001 -3.000000e+000
      vertex  1.000000e+001 -3.941114e-011  7.300000e+002
      vertex  0.000000e+000  1.000000e+001  7.400000e+002
    endloop
  endfacet
  facet normal  0.000000e+000  0.000000e+000  1.000000e+000
    outer loop
      vertex  0.000000e+000  1.000000e+001  7.400000e+002
      vertex  2.980000e+002  1.000000e+001  7.400000e+002
      vertex  0.000000e+000  1.000000e+002  7.400000e+002
    endloop
  endfacet
  facet normal  0.000000e+000  0.000000e+000  1.000000e+000
    outer loop
      vertex  0.000000e+000  1.000000e+002  7.400000e+002
      vertex  2.980000e+002  1.000000e+001  7.400000e+002
      vertex  2.980000e+002  5.000000e+001  7.400000e+002
    endloop
  endfacet
  facet normal  0.000000e+000  -0.000000e+000  1.000000e+000
    outer loop
      vertex  0.000000e+000  1.000000e+002  7.400000e+002
      vertex  2.980000e+002  5.000000e+001  7.400000e+002
      vertex  6.960000e+002  1.000000e+002  7.400000e+002
    endloop
  endfacet
  facet normal  0.000000e+000  0.000000e+000  1.000000e+000
    outer loop
      vertex  6.960000e+002  1.000000e+002  7.400000e+002
      vertex  2.980000e+002  5.000000e+001  7.400000e+002
      vertex  3.980000e+002  5.000000e+001  7.400000e+002
    endloop
  endfacet
  facet normal  -0.000000e+000  0.000000e+000  1.000000e+000
    outer loop
      vertex  6.960000e+002  1.000000e+002  7.400000e+002
      vertex  3.980000e+002  5.000000e+001  7.400000e+002
      vertex  6.960000e+002  1.000000e+001  7.400000e+002
    endloop
  endfacet
  facet normal  0.000000e+000  0.000000e+000  1.000000e+000
    outer loop
      vertex  6.960000e+002  1.000000e+001  7.400000e+002
      vertex  3.980000e+002  5.000000e+001  7.400000e+002
      vertex  3.980000e+002  1.000000e+001  7.400000e+002
    endloop
  endfacet
  facet normal -7.071068e-001 -7.071068e-001 -3.857587e-014
    outer loop
      vertex  4.080000e+002  5.575235e-014  7.000000e+000
      vertex  4.080000e+002 -3.938716e-011  7.300000e+002
      vertex  3.980000e+002  1.000000e+001 -3.000000e+000
    endloop
  endfacet
  facet normal -7.071068e-001 -7.071068e-001  0.000000e+000
    outer loop
      vertex  3.980000e+002  1.000000e+001 -3.000000e+000
      vertex  4.080000e+002 -3.938716e-011  7.300000e+002
      vertex  3.980000e+002  1.000000e+001  7.400000e+002
    endloop
  endfacet
  facet normal  1.364666e-016 -1.000000e+000 -5.455451e-014
    outer loop
      vertex  4.080000e+002  5.575235e-014  7.000000e+000
      vertex  6.860000e+002  9.369006e-014  7.000000e+000
      vertex  4.080000e+002 -3.938716e-011  7.300000e+002
    endloop
  endfacet
  facet normal  0.000000e+000 -1.000000e+000 -5.460699e-014
    outer loop
      vertex  4.080000e+002 -3.938716e-011  7.300000e+002
      vertex  6.860000e+002  9.369006e-014  7.000000e+000
      vertex  6.860000e+002 -3.938716e-011  7.300000e+002
    endloop
  endfacet
  facet normal  0.000000e+000 -7.071068e-001  7.071068e-001
    outer loop
      vertex  4.080000e+002 -3.938716e-011  7.300000e+002
      vertex  6.860000e+002 -3.938716e-011  7.300000e+002
      vertex  3.980000e+002  1.000000e+001  7.400000e+002
    endloop
  endfacet
  facet normal  0.000000e+000 -7.071068e-001  7.071068e-001
    outer loop
      vertex  3.980000e+002  1.000000e+001  7.400000e+002
      vertex  6.860000e+002 -3.938716e-011  7.300000e+002
      vertex  6.960000e+002  1.000000e+001  7.400000e+002
    endloop
  endfacet
  facet normal  1.000000e+000  0.000000e+000  0.000000e+000
    outer loop
      vertex  6.960000e+002  1.000000e+001 -3.000000e+000
      vertex  6.960000e+002  1.000000e+002 -3.000000e+000
      vertex  6.960000e+002  1.000000e+001  7.400000e+002
    endloop
  endfacet
  facet normal  1.000000e+000  -0.000000e+000  0.000000e+000
    outer loop
      vertex  6.960000e+002  1.000000e+001  7.400000e+002
      vertex  6.960000e+002  1.000000e+002 -3.000000e+000
      vertex  6.960000e+002  1.000000e+002  7.400000e+002
    endloop
  endfacet
  facet normal  0.000000e+000  0.000000e+000 -1.000000e+000
    outer loop
      vertex  6.960000e+002  1.000000e+001 -3.000000e+000
      vertex  3.980000e+002  1.000000e+001 -3.000000e+000
      vertex  6.960000e+002  1.000000e+002 -3.000000e+000
    endloop
  endfacet
  facet normal  0.000000e+000  0.000000e+000 -1.000000e+000
    outer loop
      vertex  6.960000e+002  1.000000e+002 -3.000000e+000
      vertex  3.980000e+002  1.000000e+001 -3.000000e+000
      vertex  3.980000e+002  5.000000e+001 -3.000000e+000
    endloop
  endfacet
  facet normal  0.000000e+000  0.000000e+000 -1.000000e+000
    outer loop
      vertex  6.960000e+002  1.000000e+002 -3.000000e+000
      vertex  3.980000e+002  5.000000e+001 -3.000000e+000
      vertex  0.000000e+000  1.000000e+002 -3.000000e+000
    endloop
  endfacet
  facet normal  0.000000e+000  0.000000e+000 -1.000000e+000
    outer loop
      vertex  0.000000e+000  1.000000e+002 -3.000000e+000
      vertex  3.980000e+002  5.000000e+001 -3.000000e+000
      vertex  2.980000e+002  5.000000e+001 -3.000000e+000
    endloop
  endfacet
  facet normal  -0.000000e+000  0.000000e+000 -1.000000e+000
    outer loop
      vertex  0.000000e+000  1.000000e+002 -3.000000e+000
      vertex  2.980000e+002  5.000000e+001 -3.000000e+000
      vertex  0.000000e+000  1.000000e+001 -3.000000e+000
    endloop
  endfacet
  facet normal  0.000000e+000  0.000000e+000 -1.000000e+000
    outer loop
      vertex  0.000000e+000  1.000000e+001 -3.000000e+000
      vertex  2.980000e+002  5.000000e+001 -3.000000e+000
      vertex  2.980000e+002  1.000000e+001 -3.000000e+000
    endloop
  endfacet
  facet normal -1.000000e+000  0.000000e+000  0.000000e+000
    outer loop
      vertex  0.000000e+000  1.000000e+002 -3.000000e+000
      vertex  0.000000e+000  1.000000e+001 -3.000000e+000
      vertex  0.000000e+000  1.000000e+002  7.400000e+002
    endloop
  endfacet
  facet normal -1.000000e+000  -0.000000e+000  0.000000e+000
    outer loop
      vertex  0.000000e+000  1.000000e+002  7.400000e+002
      vertex  0.000000e+000  1.000000e+001 -3.000000e+000
      vertex  0.000000e+000  1.000000e+001  7.400000e+002
    endloop
  endfacet
endsolid CATIA STL
