solid CATIA STL
  facet normal  1.000000e+000  -0.000000e+000  0.000000e+000
    outer loop
      vertex  5.000000e+000 -8.971751e+000 -1.111543e+001
      vertex  5.000000e+000 -1.437175e+001 -1.111543e+001
      vertex  5.000000e+000 -8.971751e+000 -2.251543e+001
    endloop
  endfacet
  facet normal  1.000000e+000  0.000000e+000  0.000000e+000
    outer loop
      vertex  5.000000e+000 -8.971751e+000 -2.251543e+001
      vertex  5.000000e+000 -1.437175e+001 -1.111543e+001
      vertex  5.000000e+000 -1.437175e+001 -1.711543e+001
    endloop
  endfacet
  facet normal  9.999999e-001  0.000000e+000  0.000000e+000
    outer loop
      vertex  5.000000e+000 -8.971751e+000 -2.251543e+001
      vertex  5.000000e+000 -1.437175e+001 -1.711543e+001
      vertex  5.000000e+000 -3.217175e+001 -2.251543e+001
    endloop
  endfacet
  facet normal  1.000000e+000  0.000000e+000  0.000000e+000
    outer loop
      vertex  5.000000e+000 -3.217175e+001 -2.251543e+001
      vertex  5.000000e+000 -1.437175e+001 -1.711543e+001
      vertex  5.000000e+000 -2.677175e+001 -1.711543e+001
    endloop
  endfacet
  facet normal  1.000000e+000  0.000000e+000  0.000000e+000
    outer loop
      vertex  5.000000e+000 -3.217175e+001 -2.251543e+001
      vertex  5.000000e+000 -2.677175e+001 -1.711543e+001
      vertex  5.000000e+000 -3.217175e+001 -1.111543e+001
    endloop
  endfacet
  facet normal  1.000000e+000  -0.000000e+000  0.000000e+000
    outer loop
      vertex  5.000000e+000 -3.217175e+001 -1.111543e+001
      vertex  5.000000e+000 -2.677175e+001 -1.711543e+001
      vertex  5.000000e+000 -2.677175e+001 -1.111543e+001
    endloop
  endfacet
  facet normal -1.000000e+000  0.000000e+000  0.000000e+000
    outer loop
      vertex  0.000000e+000 -8.971751e+000 -2.251543e+001
      vertex  0.000000e+000 -1.437175e+001 -1.111543e+001
      vertex  0.000000e+000 -8.971751e+000 -1.111543e+001
    endloop
  endfacet
  facet normal -1.000000e+000  0.000000e+000  0.000000e+000
    outer loop
      vertex  0.000000e+000 -1.437175e+001 -1.111543e+001
      vertex  0.000000e+000 -8.971751e+000 -2.251543e+001
      vertex  0.000000e+000 -1.437175e+001 -1.711543e+001
    endloop
  endfacet
  facet normal -9.999999e-001  0.000000e+000  -0.000000e+000
    outer loop
      vertex  0.000000e+000 -1.437175e+001 -1.711543e+001
      vertex  0.000000e+000 -8.971751e+000 -2.251543e+001
      vertex  0.000000e+000 -3.217175e+001 -2.251543e+001
    endloop
  endfacet
  facet normal -1.000000e+000  0.000000e+000  0.000000e+000
    outer loop
      vertex  0.000000e+000 -1.437175e+001 -1.711543e+001
      vertex  0.000000e+000 -3.217175e+001 -2.251543e+001
      vertex  0.000000e+000 -2.677175e+001 -1.711543e+001
    endloop
  endfacet
  facet normal -1.000000e+000  -0.000000e+000  0.000000e+000
    outer loop
      vertex  0.000000e+000 -2.677175e+001 -1.711543e+001
      vertex  0.000000e+000 -3.217175e+001 -2.251543e+001
      vertex  0.000000e+000 -3.217175e+001 -1.111543e+001
    endloop
  endfacet
  facet normal -1.000000e+000  0.000000e+000  0.000000e+000
    outer loop
      vertex  0.000000e+000 -2.677175e+001 -1.711543e+001
      vertex  0.000000e+000 -3.217175e+001 -1.111543e+001
      vertex  0.000000e+000 -2.677175e+001 -1.111543e+001
    endloop
  endfacet
  facet normal  0.000000e+000  0.000000e+000  1.000000e+000
    outer loop
      vertex  5.000000e+000 -3.217175e+001 -1.111543e+001
      vertex  5.000000e+000 -2.677175e+001 -1.111543e+001
      vertex  0.000000e+000 -3.217175e+001 -1.111543e+001
    endloop
  endfacet
  facet normal  0.000000e+000  0.000000e+000  1.000000e+000
    outer loop
      vertex  0.000000e+000 -3.217175e+001 -1.111543e+001
      vertex  5.000000e+000 -2.677175e+001 -1.111543e+001
      vertex  0.000000e+000 -2.677175e+001 -1.111543e+001
    endloop
  endfacet
  facet normal  0.000000e+000  1.000000e+000  -0.000000e+000
    outer loop
      vertex  5.000000e+000 -2.677175e+001 -1.111543e+001
      vertex  5.000000e+000 -2.677175e+001 -1.711543e+001
      vertex  0.000000e+000 -2.677175e+001 -1.111543e+001
    endloop
  endfacet
  facet normal  0.000000e+000  1.000000e+000  0.000000e+000
    outer loop
      vertex  0.000000e+000 -2.677175e+001 -1.111543e+001
      vertex  5.000000e+000 -2.677175e+001 -1.711543e+001
      vertex  0.000000e+000 -2.677175e+001 -1.711543e+001
    endloop
  endfacet
  facet normal  0.000000e+000  0.000000e+000  1.000000e+000
    outer loop
      vertex  5.000000e+000 -2.677175e+001 -1.711543e+001
      vertex  5.000000e+000 -1.437175e+001 -1.711543e+001
      vertex  0.000000e+000 -2.677175e+001 -1.711543e+001
    endloop
  endfacet
  facet normal  0.000000e+000  0.000000e+000  1.000000e+000
    outer loop
      vertex  0.000000e+000 -2.677175e+001 -1.711543e+001
      vertex  5.000000e+000 -1.437175e+001 -1.711543e+001
      vertex  0.000000e+000 -1.437175e+001 -1.711543e+001
    endloop
  endfacet
  facet normal  0.000000e+000 -1.000000e+000  -0.000000e+000
    outer loop
      vertex  5.000000e+000 -1.437175e+001 -1.711543e+001
      vertex  5.000000e+000 -1.437175e+001 -1.111543e+001
      vertex  0.000000e+000 -1.437175e+001 -1.711543e+001
    endloop
  endfacet
  facet normal  0.000000e+000 -1.000000e+000  0.000000e+000
    outer loop
      vertex  0.000000e+000 -1.437175e+001 -1.711543e+001
      vertex  5.000000e+000 -1.437175e+001 -1.111543e+001
      vertex  0.000000e+000 -1.437175e+001 -1.111543e+001
    endloop
  endfacet
  facet normal  0.000000e+000  0.000000e+000  1.000000e+000
    outer loop
      vertex  5.000000e+000 -1.437175e+001 -1.111543e+001
      vertex  5.000000e+000 -8.971751e+000 -1.111543e+001
      vertex  0.000000e+000 -1.437175e+001 -1.111543e+001
    endloop
  endfacet
  facet normal  0.000000e+000  0.000000e+000  1.000000e+000
    outer loop
      vertex  0.000000e+000 -1.437175e+001 -1.111543e+001
      vertex  5.000000e+000 -8.971751e+000 -1.111543e+001
      vertex  0.000000e+000 -8.971751e+000 -1.111543e+001
    endloop
  endfacet
  facet normal  0.000000e+000  1.000000e+000  -0.000000e+000
    outer loop
      vertex  5.000000e+000 -8.971751e+000 -1.111543e+001
      vertex  5.000000e+000 -8.971751e+000 -2.251543e+001
      vertex  0.000000e+000 -8.971751e+000 -1.111543e+001
    endloop
  endfacet
  facet normal  0.000000e+000  1.000000e+000  0.000000e+000
    outer loop
      vertex  0.000000e+000 -8.971751e+000 -1.111543e+001
      vertex  5.000000e+000 -8.971751e+000 -2.251543e+001
      vertex  0.000000e+000 -8.971751e+000 -2.251543e+001
    endloop
  endfacet
  facet normal  0.000000e+000  0.000000e+000 -1.000000e+000
    outer loop
      vertex  5.000000e+000 -8.971751e+000 -2.251543e+001
      vertex  5.000000e+000 -3.217175e+001 -2.251543e+001
      vertex  0.000000e+000 -8.971751e+000 -2.251543e+001
    endloop
  endfacet
  facet normal  0.000000e+000  0.000000e+000 -1.000000e+000
    outer loop
      vertex  0.000000e+000 -8.971751e+000 -2.251543e+001
      vertex  5.000000e+000 -3.217175e+001 -2.251543e+001
      vertex  0.000000e+000 -3.217175e+001 -2.251543e+001
    endloop
  endfacet
  facet normal  0.000000e+000 -1.000000e+000  -0.000000e+000
    outer loop
      vertex  5.000000e+000 -3.217175e+001 -2.251543e+001
      vertex  5.000000e+000 -3.217175e+001 -1.111543e+001
      vertex  0.000000e+000 -3.217175e+001 -2.251543e+001
    endloop
  endfacet
  facet normal  0.000000e+000 -1.000000e+000  0.000000e+000
    outer loop
      vertex  0.000000e+000 -3.217175e+001 -2.251543e+001
      vertex  5.000000e+000 -3.217175e+001 -1.111543e+001
      vertex  0.000000e+000 -3.217175e+001 -1.111543e+001
    endloop
  endfacet
endsolid CATIA STL
