solid CATIA STL
  facet normal  0.000000e+000  0.000000e+000  9.999999e-001
    outer loop
      vertex -9.239727e+001  5.585598e+001  4.000000e+000
      vertex -8.139727e+001  5.585598e+001  4.000000e+000
      vertex -9.239727e+001  6.085598e+001  4.000000e+000
    endloop
  endfacet
  facet normal  -0.000000e+000  0.000000e+000  9.999999e-001
    outer loop
      vertex -9.239727e+001  6.085598e+001  4.000000e+000
      vertex -8.139727e+001  5.585598e+001  4.000000e+000
      vertex -8.139727e+001  6.085598e+001  4.000000e+000
    endloop
  endfacet
  facet normal  0.000000e+000  0.000000e+000 -9.999999e-001
    outer loop
      vertex -9.239727e+001  5.585598e+001  0.000000e+000
      vertex -9.239727e+001  6.085598e+001  0.000000e+000
      vertex -8.139727e+001  5.585598e+001  0.000000e+000
    endloop
  endfacet
  facet normal  0.000000e+000  0.000000e+000 -9.999999e-001
    outer loop
      vertex -8.139727e+001  5.585598e+001  0.000000e+000
      vertex -9.239727e+001  6.085598e+001  0.000000e+000
      vertex -8.139727e+001  6.085598e+001  0.000000e+000
    endloop
  endfacet
  facet normal  0.000000e+000  1.000000e+000  0.000000e+000
    outer loop
      vertex -9.239727e+001  6.085598e+001  4.000000e+000
      vertex -8.139727e+001  6.085598e+001  4.000000e+000
      vertex -9.239727e+001  6.085598e+001  0.000000e+000
    endloop
  endfacet
  facet normal  0.000000e+000  1.000000e+000  0.000000e+000
    outer loop
      vertex -9.239727e+001  6.085598e+001  0.000000e+000
      vertex -8.139727e+001  6.085598e+001  4.000000e+000
      vertex -8.139727e+001  6.085598e+001  0.000000e+000
    endloop
  endfacet
  facet normal  1.000000e+000  0.000000e+000  0.000000e+000
    outer loop
      vertex -8.139727e+001  5.585598e+001  4.000000e+000
      vertex -8.139727e+001  5.585598e+001  0.000000e+000
      vertex -8.139727e+001  6.085598e+001  4.000000e+000
    endloop
  endfacet
  facet normal  1.000000e+000  0.000000e+000  0.000000e+000
    outer loop
      vertex -8.139727e+001  6.085598e+001  4.000000e+000
      vertex -8.139727e+001  5.585598e+001  0.000000e+000
      vertex -8.139727e+001  6.085598e+001  0.000000e+000
    endloop
  endfacet
  facet normal  0.000000e+000 -1.000000e+000  0.000000e+000
    outer loop
      vertex -8.139727e+001  5.585598e+001  4.000000e+000
      vertex -9.239727e+001  5.585598e+001  4.000000e+000
      vertex -8.139727e+001  5.585598e+001  0.000000e+000
    endloop
  endfacet
  facet normal  0.000000e+000 -1.000000e+000  0.000000e+000
    outer loop
      vertex -8.139727e+001  5.585598e+001  0.000000e+000
      vertex -9.239727e+001  5.585598e+001  4.000000e+000
      vertex -9.239727e+001  5.585598e+001  0.000000e+000
    endloop
  endfacet
  facet normal -1.000000e+000  0.000000e+000  0.000000e+000
    outer loop
      vertex -9.239727e+001  6.085598e+001  4.000000e+000
      vertex -9.239727e+001  6.085598e+001  0.000000e+000
      vertex -9.239727e+001  5.585598e+001  4.000000e+000
    endloop
  endfacet
  facet normal -1.000000e+000  0.000000e+000  0.000000e+000
    outer loop
      vertex -9.239727e+001  5.585598e+001  4.000000e+000
      vertex -9.239727e+001  6.085598e+001  0.000000e+000
      vertex -9.239727e+001  5.585598e+001  0.000000e+000
    endloop
  endfacet
endsolid CATIA STL
