solid CATIA STL
  facet normal  0.000000e+000  0.000000e+000  1.000000e+000
    outer loop
      vertex -3.114225e+001  2.125521e+001  3.000000e+000
      vertex -2.602225e+001  2.125521e+001  3.000000e+000
      vertex -3.114225e+001  2.637521e+001  3.000000e+000
    endloop
  endfacet
  facet normal  -0.000000e+000  0.000000e+000  1.000000e+000
    outer loop
      vertex -3.114225e+001  2.637521e+001  3.000000e+000
      vertex -2.602225e+001  2.125521e+001  3.000000e+000
      vertex -2.602225e+001  2.637521e+001  3.000000e+000
    endloop
  endfacet
  facet normal  0.000000e+000  0.000000e+000 -1.000000e+000
    outer loop
      vertex -3.114225e+001  2.125521e+001  0.000000e+000
      vertex -3.114225e+001  2.637521e+001  0.000000e+000
      vertex -2.602225e+001  2.125521e+001  0.000000e+000
    endloop
  endfacet
  facet normal  0.000000e+000  0.000000e+000 -1.000000e+000
    outer loop
      vertex -2.602225e+001  2.125521e+001  0.000000e+000
      vertex -3.114225e+001  2.637521e+001  0.000000e+000
      vertex -2.602225e+001  2.637521e+001  0.000000e+000
    endloop
  endfacet
  facet normal  0.000000e+000  1.000000e+000  0.000000e+000
    outer loop
      vertex -3.114225e+001  2.637521e+001  3.000000e+000
      vertex -2.602225e+001  2.637521e+001  3.000000e+000
      vertex -3.114225e+001  2.637521e+001  0.000000e+000
    endloop
  endfacet
  facet normal  0.000000e+000  1.000000e+000  0.000000e+000
    outer loop
      vertex -3.114225e+001  2.637521e+001  0.000000e+000
      vertex -2.602225e+001  2.637521e+001  3.000000e+000
      vertex -2.602225e+001  2.637521e+001  0.000000e+000
    endloop
  endfacet
  facet normal  1.000000e+000  0.000000e+000  0.000000e+000
    outer loop
      vertex -2.602225e+001  2.125521e+001  3.000000e+000
      vertex -2.602225e+001  2.125521e+001  0.000000e+000
      vertex -2.602225e+001  2.637521e+001  3.000000e+000
    endloop
  endfacet
  facet normal  1.000000e+000  0.000000e+000  0.000000e+000
    outer loop
      vertex -2.602225e+001  2.637521e+001  3.000000e+000
      vertex -2.602225e+001  2.125521e+001  0.000000e+000
      vertex -2.602225e+001  2.637521e+001  0.000000e+000
    endloop
  endfacet
  facet normal  0.000000e+000 -1.000000e+000  0.000000e+000
    outer loop
      vertex -2.602225e+001  2.125521e+001  3.000000e+000
      vertex -3.114225e+001  2.125521e+001  3.000000e+000
      vertex -2.602225e+001  2.125521e+001  0.000000e+000
    endloop
  endfacet
  facet normal  0.000000e+000 -1.000000e+000  0.000000e+000
    outer loop
      vertex -2.602225e+001  2.125521e+001  0.000000e+000
      vertex -3.114225e+001  2.125521e+001  3.000000e+000
      vertex -3.114225e+001  2.125521e+001  0.000000e+000
    endloop
  endfacet
  facet normal -1.000000e+000  0.000000e+000  0.000000e+000
    outer loop
      vertex -3.114225e+001  2.637521e+001  3.000000e+000
      vertex -3.114225e+001  2.637521e+001  0.000000e+000
      vertex -3.114225e+001  2.125521e+001  3.000000e+000
    endloop
  endfacet
  facet normal -1.000000e+000  0.000000e+000  0.000000e+000
    outer loop
      vertex -3.114225e+001  2.125521e+001  3.000000e+000
      vertex -3.114225e+001  2.637521e+001  0.000000e+000
      vertex -3.114225e+001  2.125521e+001  0.000000e+000
    endloop
  endfacet
endsolid CATIA STL
