solid CATIA STL
  facet normal  0.000000e+000  0.000000e+000  1.000000e+000
    outer loop
      vertex  7.300000e+001  0.000000e+000  3.000000e+001
      vertex  7.121077e+001  1.316956e+000  3.000000e+001
      vertex  0.000000e+000  0.000000e+000  3.000000e+001
    endloop
  endfacet
  facet normal  0.000000e+000  0.000000e+000  1.000000e+000
    outer loop
      vertex  0.000000e+000  0.000000e+000  3.000000e+001
      vertex  7.121077e+001  1.316956e+000  3.000000e+001
      vertex  1.910770e+000  1.316956e+000  3.000000e+001
    endloop
  endfacet
  facet normal  0.000000e+000  0.000000e+000  1.000000e+000
    outer loop
      vertex  0.000000e+000  0.000000e+000  3.000000e+001
      vertex  1.910770e+000  1.316956e+000  3.000000e+001
      vertex  1.421085e-014  5.600000e+001  3.000000e+001
    endloop
  endfacet
  facet normal  0.000000e+000  0.000000e+000  1.000000e+000
    outer loop
      vertex  1.421085e-014  5.600000e+001  3.000000e+001
      vertex  1.910770e+000  1.316956e+000  3.000000e+001
      vertex  1.910770e+000  5.461695e+001  3.000000e+001
    endloop
  endfacet
  facet normal  0.000000e+000  -0.000000e+000  1.000000e+000
    outer loop
      vertex  1.421085e-014  5.600000e+001  3.000000e+001
      vertex  1.910770e+000  5.461695e+001  3.000000e+001
      vertex  7.300000e+001  5.600000e+001  3.000000e+001
    endloop
  endfacet
  facet normal  0.000000e+000  0.000000e+000  1.000000e+000
    outer loop
      vertex  7.300000e+001  5.600000e+001  3.000000e+001
      vertex  1.910770e+000  5.461695e+001  3.000000e+001
      vertex  7.121077e+001  5.461695e+001  3.000000e+001
    endloop
  endfacet
  facet normal  -0.000000e+000  0.000000e+000  1.000000e+000
    outer loop
      vertex  7.300000e+001  5.600000e+001  3.000000e+001
      vertex  7.121077e+001  5.461695e+001  3.000000e+001
      vertex  7.300000e+001  0.000000e+000  3.000000e+001
    endloop
  endfacet
  facet normal  0.000000e+000  0.000000e+000  1.000000e+000
    outer loop
      vertex  7.300000e+001  0.000000e+000  3.000000e+001
      vertex  7.121077e+001  5.461695e+001  3.000000e+001
      vertex  7.121077e+001  1.316956e+000  3.000000e+001
    endloop
  endfacet
  facet normal  1.000000e+000  0.000000e+000  0.000000e+000
    outer loop
      vertex  1.910770e+000  5.461695e+001  2.000000e+000
      vertex  1.910770e+000  5.461695e+001  3.000000e+001
      vertex  1.910770e+000  1.316956e+000  2.000000e+000
    endloop
  endfacet
  facet normal  1.000000e+000  0.000000e+000  0.000000e+000
    outer loop
      vertex  1.910770e+000  1.316956e+000  2.000000e+000
      vertex  1.910770e+000  5.461695e+001  3.000000e+001
      vertex  1.910770e+000  1.316956e+000  3.000000e+001
    endloop
  endfacet
  facet normal  0.000000e+000 -9.999999e-001  -0.000000e+000
    outer loop
      vertex  7.121077e+001  5.461695e+001  2.000000e+000
      vertex  7.121077e+001  5.461695e+001  3.000000e+001
      vertex  1.910770e+000  5.461695e+001  2.000000e+000
    endloop
  endfacet
  facet normal  0.000000e+000 -9.999999e-001  0.000000e+000
    outer loop
      vertex  1.910770e+000  5.461695e+001  2.000000e+000
      vertex  7.121077e+001  5.461695e+001  3.000000e+001
      vertex  1.910770e+000  5.461695e+001  3.000000e+001
    endloop
  endfacet
  facet normal -1.000000e+000  0.000000e+000  0.000000e+000
    outer loop
      vertex  7.121077e+001  1.316956e+000  2.000000e+000
      vertex  7.121077e+001  1.316956e+000  3.000000e+001
      vertex  7.121077e+001  5.461695e+001  2.000000e+000
    endloop
  endfacet
  facet normal -1.000000e+000  0.000000e+000  0.000000e+000
    outer loop
      vertex  7.121077e+001  5.461695e+001  2.000000e+000
      vertex  7.121077e+001  1.316956e+000  3.000000e+001
      vertex  7.121077e+001  5.461695e+001  3.000000e+001
    endloop
  endfacet
  facet normal  0.000000e+000  9.999999e-001  0.000000e+000
    outer loop
      vertex  1.910770e+000  1.316956e+000  2.000000e+000
      vertex  1.910770e+000  1.316956e+000  3.000000e+001
      vertex  7.121077e+001  1.316956e+000  2.000000e+000
    endloop
  endfacet
  facet normal  0.000000e+000  9.999999e-001  -0.000000e+000
    outer loop
      vertex  7.121077e+001  1.316956e+000  2.000000e+000
      vertex  1.910770e+000  1.316956e+000  3.000000e+001
      vertex  7.121077e+001  1.316956e+000  3.000000e+001
    endloop
  endfacet
  facet normal  0.000000e+000  0.000000e+000  9.999999e-001
    outer loop
      vertex  1.910770e+000  1.316956e+000  2.000000e+000
      vertex  7.121077e+001  1.316956e+000  2.000000e+000
      vertex  1.910770e+000  5.461695e+001  2.000000e+000
    endloop
  endfacet
  facet normal  -0.000000e+000  0.000000e+000  9.999999e-001
    outer loop
      vertex  1.910770e+000  5.461695e+001  2.000000e+000
      vertex  7.121077e+001  1.316956e+000  2.000000e+000
      vertex  7.121077e+001  5.461695e+001  2.000000e+000
    endloop
  endfacet
  facet normal  0.000000e+000  -0.000000e+000 -1.000000e+000
    outer loop
      vertex  0.000000e+000  0.000000e+000  0.000000e+000
      vertex  1.421085e-014  5.600000e+001  0.000000e+000
      vertex  7.300000e+001  0.000000e+000  0.000000e+000
    endloop
  endfacet
  facet normal  0.000000e+000  0.000000e+000 -1.000000e+000
    outer loop
      vertex  7.300000e+001  0.000000e+000  0.000000e+000
      vertex  1.421085e-014  5.600000e+001  0.000000e+000
      vertex  7.300000e+001  5.600000e+001  0.000000e+000
    endloop
  endfacet
  facet normal -1.000000e+000  2.537653e-016  0.000000e+000
    outer loop
      vertex  1.421085e-014  5.600000e+001  3.000000e+001
      vertex  1.421085e-014  5.600000e+001  0.000000e+000
      vertex  0.000000e+000  0.000000e+000  3.000000e+001
    endloop
  endfacet
  facet normal -1.000000e+000  2.537653e-016  0.000000e+000
    outer loop
      vertex  0.000000e+000  0.000000e+000  3.000000e+001
      vertex  1.421085e-014  5.600000e+001  0.000000e+000
      vertex  0.000000e+000  0.000000e+000  0.000000e+000
    endloop
  endfacet
  facet normal  0.000000e+000  1.000000e+000  -0.000000e+000
    outer loop
      vertex  7.300000e+001  5.600000e+001  3.000000e+001
      vertex  7.300000e+001  5.600000e+001  0.000000e+000
      vertex  1.421085e-014  5.600000e+001  3.000000e+001
    endloop
  endfacet
  facet normal  0.000000e+000  1.000000e+000  0.000000e+000
    outer loop
      vertex  1.421085e-014  5.600000e+001  3.000000e+001
      vertex  7.300000e+001  5.600000e+001  0.000000e+000
      vertex  1.421085e-014  5.600000e+001  0.000000e+000
    endloop
  endfacet
  facet normal  1.000000e+000  0.000000e+000  0.000000e+000
    outer loop
      vertex  7.300000e+001  0.000000e+000  3.000000e+001
      vertex  7.300000e+001  0.000000e+000  0.000000e+000
      vertex  7.300000e+001  5.600000e+001  3.000000e+001
    endloop
  endfacet
  facet normal  1.000000e+000  0.000000e+000  0.000000e+000
    outer loop
      vertex  7.300000e+001  5.600000e+001  3.000000e+001
      vertex  7.300000e+001  0.000000e+000  0.000000e+000
      vertex  7.300000e+001  5.600000e+001  0.000000e+000
    endloop
  endfacet
  facet normal  0.000000e+000 -1.000000e+000  0.000000e+000
    outer loop
      vertex  0.000000e+000  0.000000e+000  3.000000e+001
      vertex  0.000000e+000  0.000000e+000  0.000000e+000
      vertex  7.300000e+001  0.000000e+000  3.000000e+001
    endloop
  endfacet
  facet normal  0.000000e+000 -1.000000e+000  -0.000000e+000
    outer loop
      vertex  7.300000e+001  0.000000e+000  3.000000e+001
      vertex  0.000000e+000  0.000000e+000  0.000000e+000
      vertex  7.300000e+001  0.000000e+000  0.000000e+000
    endloop
  endfacet
endsolid CATIA STL
