solid CATIA STL
  facet normal  0.000000e+000  0.000000e+000 -1.000000e+000
    outer loop
      vertex -5.000000e+000 -4.333013e+001  0.000000e+000
      vertex -6.830127e+000 -4.150000e+001  0.000000e+000
      vertex -2.500000e+000 -4.400000e+001  0.000000e+000
    endloop
  endfacet
  facet normal  0.000000e+000  0.000000e+000 -9.999999e-001
    outer loop
      vertex -7.500000e+000 -3.900000e+001  0.000000e+000
      vertex -7.500000e+000  4.400000e+001  0.000000e+000
      vertex -1.767767e+000 -3.473223e+001  0.000000e+000
    endloop
  endfacet
  facet normal  0.000000e+000  0.000000e+000 -1.000000e+000
    outer loop
      vertex -7.500000e+000 -3.900000e+001  0.000000e+000
      vertex -1.767767e+000 -3.473223e+001  0.000000e+000
      vertex -2.500000e+000 -3.650000e+001  0.000000e+000
    endloop
  endfacet
  facet normal  0.000000e+000  -0.000000e+000 -1.000000e+000
    outer loop
      vertex -7.500000e+000 -3.900000e+001  0.000000e+000
      vertex -2.500000e+000 -3.650000e+001  0.000000e+000
      vertex -1.767767e+000 -3.826777e+001  0.000000e+000
    endloop
  endfacet
  facet normal  0.000000e+000  -0.000000e+000 -1.000000e+000
    outer loop
      vertex -7.500000e+000 -3.900000e+001  0.000000e+000
      vertex -1.767767e+000 -3.826777e+001  0.000000e+000
      vertex -4.592274e-016 -3.900000e+001  0.000000e+000
    endloop
  endfacet
  facet normal  -0.000000e+000  0.000000e+000 -1.000000e+000
    outer loop
      vertex -7.500000e+000 -3.900000e+001  0.000000e+000
      vertex -4.592274e-016 -3.900000e+001  0.000000e+000
      vertex -6.830127e+000 -4.150000e+001  0.000000e+000
    endloop
  endfacet
  facet normal  0.000000e+000  0.000000e+000 -9.999999e-001
    outer loop
      vertex  7.500000e+000  4.400000e+001  0.000000e+000
      vertex  7.500000e+000 -3.900000e+001  0.000000e+000
      vertex  1.767767e+000 -3.473223e+001  0.000000e+000
    endloop
  endfacet
  facet normal  0.000000e+000  0.000000e+000 -1.000000e+000
    outer loop
      vertex  7.500000e+000  4.400000e+001  0.000000e+000
      vertex  1.767767e+000 -3.473223e+001  0.000000e+000
      vertex  5.971650e-016 -3.400000e+001  0.000000e+000
    endloop
  endfacet
  facet normal  -0.000000e+000  0.000000e+000 -1.000000e+000
    outer loop
      vertex  7.500000e+000  4.400000e+001  0.000000e+000
      vertex  5.971650e-016 -3.400000e+001  0.000000e+000
      vertex -1.767767e+000 -3.473223e+001  0.000000e+000
    endloop
  endfacet
  facet normal  0.000000e+000  0.000000e+000 -1.000000e+000
    outer loop
      vertex  7.500000e+000  4.400000e+001  0.000000e+000
      vertex -1.767767e+000 -3.473223e+001  0.000000e+000
      vertex -7.500000e+000  4.400000e+001  0.000000e+000
    endloop
  endfacet
  facet normal  -0.000000e+000  0.000000e+000 -1.000000e+000
    outer loop
      vertex -4.592274e-016 -3.900000e+001  0.000000e+000
      vertex  7.500000e+000 -3.900000e+001  0.000000e+000
      vertex  6.830127e+000 -4.150000e+001  0.000000e+000
    endloop
  endfacet
  facet normal  -0.000000e+000  0.000000e+000 -1.000000e+000
    outer loop
      vertex -4.592274e-016 -3.900000e+001  0.000000e+000
      vertex  6.830127e+000 -4.150000e+001  0.000000e+000
      vertex  5.000000e+000 -4.333013e+001  0.000000e+000
    endloop
  endfacet
  facet normal  -0.000000e+000  0.000000e+000 -1.000000e+000
    outer loop
      vertex -4.592274e-016 -3.900000e+001  0.000000e+000
      vertex  5.000000e+000 -4.333013e+001  0.000000e+000
      vertex  2.500000e+000 -4.400000e+001  0.000000e+000
    endloop
  endfacet
  facet normal  0.000000e+000  0.000000e+000 -1.000000e+000
    outer loop
      vertex -4.592274e-016 -3.900000e+001  0.000000e+000
      vertex  2.500000e+000 -4.400000e+001  0.000000e+000
      vertex -2.500000e+000 -4.400000e+001  0.000000e+000
    endloop
  endfacet
  facet normal  0.000000e+000  0.000000e+000 -1.000000e+000
    outer loop
      vertex -4.592274e-016 -3.900000e+001  0.000000e+000
      vertex -2.500000e+000 -4.400000e+001  0.000000e+000
      vertex -6.830127e+000 -4.150000e+001  0.000000e+000
    endloop
  endfacet
  facet normal  0.000000e+000  0.000000e+000 -1.000000e+000
    outer loop
      vertex  7.500000e+000 -3.900000e+001  0.000000e+000
      vertex -4.592274e-016 -3.900000e+001  0.000000e+000
      vertex  1.767767e+000 -3.826777e+001  0.000000e+000
    endloop
  endfacet
  facet normal  0.000000e+000  0.000000e+000 -1.000000e+000
    outer loop
      vertex  7.500000e+000 -3.900000e+001  0.000000e+000
      vertex  1.767767e+000 -3.826777e+001  0.000000e+000
      vertex  2.500000e+000 -3.650000e+001  0.000000e+000
    endloop
  endfacet
  facet normal  0.000000e+000  0.000000e+000 -1.000000e+000
    outer loop
      vertex  7.500000e+000 -3.900000e+001  0.000000e+000
      vertex  2.500000e+000 -3.650000e+001  0.000000e+000
      vertex  1.767767e+000 -3.473223e+001  0.000000e+000
    endloop
  endfacet
  facet normal  0.000000e+000 -1.000000e+000  0.000000e+000
    outer loop
      vertex  2.500000e+000 -4.400000e+001  3.000000e+000
      vertex -2.500000e+000 -4.400000e+001  3.000000e+000
      vertex  2.500000e+000 -4.400000e+001  0.000000e+000
    endloop
  endfacet
  facet normal  0.000000e+000 -1.000000e+000  0.000000e+000
    outer loop
      vertex  2.500000e+000 -4.400000e+001  0.000000e+000
      vertex -2.500000e+000 -4.400000e+001  3.000000e+000
      vertex -2.500000e+000 -4.400000e+001  0.000000e+000
    endloop
  endfacet
  facet normal  0.000000e+000  0.000000e+000  1.000000e+000
    outer loop
      vertex -2.500000e+000 -4.400000e+001  3.000000e+000
      vertex -6.830127e+000 -4.150000e+001  3.000000e+000
      vertex -5.000000e+000 -4.333013e+001  3.000000e+000
    endloop
  endfacet
  facet normal  0.000000e+000  -0.000000e+000  1.000000e+000
    outer loop
      vertex -7.500000e+000 -3.900000e+001  3.000000e+000
      vertex -6.830127e+000 -4.150000e+001  3.000000e+000
      vertex -4.592274e-016 -3.900000e+001  3.000000e+000
    endloop
  endfacet
  facet normal  0.000000e+000  0.000000e+000  1.000000e+000
    outer loop
      vertex -7.500000e+000 -3.900000e+001  3.000000e+000
      vertex -4.592274e-016 -3.900000e+001  3.000000e+000
      vertex -1.767767e+000 -3.826777e+001  3.000000e+000
    endloop
  endfacet
  facet normal  0.000000e+000  0.000000e+000  1.000000e+000
    outer loop
      vertex -7.500000e+000 -3.900000e+001  3.000000e+000
      vertex -1.767767e+000 -3.826777e+001  3.000000e+000
      vertex -2.500000e+000 -3.650000e+001  3.000000e+000
    endloop
  endfacet
  facet normal  0.000000e+000  -0.000000e+000  1.000000e+000
    outer loop
      vertex -7.500000e+000 -3.900000e+001  3.000000e+000
      vertex -2.500000e+000 -3.650000e+001  3.000000e+000
      vertex -1.767767e+000 -3.473223e+001  3.000000e+000
    endloop
  endfacet
  facet normal  0.000000e+000  0.000000e+000  1.000000e+000
    outer loop
      vertex -7.500000e+000 -3.900000e+001  3.000000e+000
      vertex -1.767767e+000 -3.473223e+001  3.000000e+000
      vertex -7.500000e+000  4.100000e+001  3.000000e+000
    endloop
  endfacet
  facet normal  -0.000000e+000  0.000000e+000  1.000000e+000
    outer loop
      vertex  7.500000e+000  4.100000e+001  3.000000e+000
      vertex -7.500000e+000  4.100000e+001  3.000000e+000
      vertex -1.767767e+000 -3.473223e+001  3.000000e+000
    endloop
  endfacet
  facet normal  0.000000e+000  0.000000e+000  9.999999e-001
    outer loop
      vertex  7.500000e+000  4.100000e+001  3.000000e+000
      vertex -1.767767e+000 -3.473223e+001  3.000000e+000
      vertex  1.530758e-016 -3.400000e+001  3.000000e+000
    endloop
  endfacet
  facet normal  -0.000000e+000  0.000000e+000  1.000000e+000
    outer loop
      vertex  7.500000e+000  4.100000e+001  3.000000e+000
      vertex  1.530758e-016 -3.400000e+001  3.000000e+000
      vertex  1.767767e+000 -3.473223e+001  3.000000e+000
    endloop
  endfacet
  facet normal  -0.000000e+000  0.000000e+000  1.000000e+000
    outer loop
      vertex  7.500000e+000  4.100000e+001  3.000000e+000
      vertex  1.767767e+000 -3.473223e+001  3.000000e+000
      vertex  7.500000e+000 -3.900000e+001  3.000000e+000
    endloop
  endfacet
  facet normal  -0.000000e+000  0.000000e+000  1.000000e+000
    outer loop
      vertex -4.592274e-016 -3.900000e+001  3.000000e+000
      vertex -6.830127e+000 -4.150000e+001  3.000000e+000
      vertex -2.500000e+000 -4.400000e+001  3.000000e+000
    endloop
  endfacet
  facet normal  0.000000e+000  0.000000e+000  1.000000e+000
    outer loop
      vertex -4.592274e-016 -3.900000e+001  3.000000e+000
      vertex -2.500000e+000 -4.400000e+001  3.000000e+000
      vertex  2.500000e+000 -4.400000e+001  3.000000e+000
    endloop
  endfacet
  facet normal  0.000000e+000  -0.000000e+000  1.000000e+000
    outer loop
      vertex -4.592274e-016 -3.900000e+001  3.000000e+000
      vertex  2.500000e+000 -4.400000e+001  3.000000e+000
      vertex  5.000000e+000 -4.333013e+001  3.000000e+000
    endloop
  endfacet
  facet normal  0.000000e+000  -0.000000e+000  1.000000e+000
    outer loop
      vertex -4.592274e-016 -3.900000e+001  3.000000e+000
      vertex  5.000000e+000 -4.333013e+001  3.000000e+000
      vertex  6.830127e+000 -4.150000e+001  3.000000e+000
    endloop
  endfacet
  facet normal  0.000000e+000  -0.000000e+000  1.000000e+000
    outer loop
      vertex -4.592274e-016 -3.900000e+001  3.000000e+000
      vertex  6.830127e+000 -4.150000e+001  3.000000e+000
      vertex  7.500000e+000 -3.900000e+001  3.000000e+000
    endloop
  endfacet
  facet normal  0.000000e+000  0.000000e+000  1.000000e+000
    outer loop
      vertex  7.500000e+000 -3.900000e+001  3.000000e+000
      vertex  1.767767e+000 -3.473223e+001  3.000000e+000
      vertex  2.500000e+000 -3.650000e+001  3.000000e+000
    endloop
  endfacet
  facet normal  0.000000e+000  0.000000e+000  1.000000e+000
    outer loop
      vertex  7.500000e+000 -3.900000e+001  3.000000e+000
      vertex  2.500000e+000 -3.650000e+001  3.000000e+000
      vertex  1.767767e+000 -3.826777e+001  3.000000e+000
    endloop
  endfacet
  facet normal  0.000000e+000  0.000000e+000  1.000000e+000
    outer loop
      vertex  7.500000e+000 -3.900000e+001  3.000000e+000
      vertex  1.767767e+000 -3.826777e+001  3.000000e+000
      vertex -4.592274e-016 -3.900000e+001  3.000000e+000
    endloop
  endfacet
  facet normal -9.999999e-001  0.000000e+000  0.000000e+000
    outer loop
      vertex -7.500000e+000 -3.900000e+001  0.000000e+000
      vertex -7.500000e+000 -3.900000e+001  3.000000e+000
      vertex -7.500000e+000  4.400000e+001  0.000000e+000
    endloop
  endfacet
  facet normal -1.000000e+000  0.000000e+000  0.000000e+000
    outer loop
      vertex -7.500000e+000  4.400000e+001  0.000000e+000
      vertex -7.500000e+000 -3.900000e+001  3.000000e+000
      vertex -7.500000e+000  4.100000e+001  3.000000e+000
    endloop
  endfacet
  facet normal -1.000000e+000  0.000000e+000  0.000000e+000
    outer loop
      vertex -7.500000e+000  4.400000e+001  0.000000e+000
      vertex -7.500000e+000  4.100000e+001  3.000000e+000
      vertex -7.500000e+000  4.400000e+001  8.000000e+000
    endloop
  endfacet
  facet normal -1.000000e+000  -0.000000e+000  0.000000e+000
    outer loop
      vertex -7.500000e+000  4.400000e+001  8.000000e+000
      vertex -7.500000e+000  4.100000e+001  3.000000e+000
      vertex -7.500000e+000  4.100000e+001  8.000000e+000
    endloop
  endfacet
  facet normal -2.588188e-001 -9.659259e-001  -0.000000e+000
    outer loop
      vertex -2.500000e+000 -4.400000e+001  0.000000e+000
      vertex -2.500000e+000 -4.400000e+001  3.000000e+000
      vertex -5.000000e+000 -4.333013e+001  0.000000e+000
    endloop
  endfacet
  facet normal -2.588188e-001 -9.659259e-001  0.000000e+000
    outer loop
      vertex -5.000000e+000 -4.333013e+001  0.000000e+000
      vertex -2.500000e+000 -4.400000e+001  3.000000e+000
      vertex -5.000000e+000 -4.333013e+001  3.000000e+000
    endloop
  endfacet
  facet normal -7.071069e-001 -7.071067e-001  -0.000000e+000
    outer loop
      vertex -5.000000e+000 -4.333013e+001  0.000000e+000
      vertex -5.000000e+000 -4.333013e+001  3.000000e+000
      vertex -6.830127e+000 -4.150000e+001  0.000000e+000
    endloop
  endfacet
  facet normal -7.071069e-001 -7.071067e-001  0.000000e+000
    outer loop
      vertex -6.830127e+000 -4.150000e+001  0.000000e+000
      vertex -5.000000e+000 -4.333013e+001  3.000000e+000
      vertex -6.830127e+000 -4.150000e+001  3.000000e+000
    endloop
  endfacet
  facet normal -9.659258e-001 -2.588190e-001  -0.000000e+000
    outer loop
      vertex -6.830127e+000 -4.150000e+001  0.000000e+000
      vertex -6.830127e+000 -4.150000e+001  3.000000e+000
      vertex -7.500000e+000 -3.900000e+001  0.000000e+000
    endloop
  endfacet
  facet normal -9.659258e-001 -2.588190e-001  0.000000e+000
    outer loop
      vertex -7.500000e+000 -3.900000e+001  0.000000e+000
      vertex -6.830127e+000 -4.150000e+001  3.000000e+000
      vertex -7.500000e+000 -3.900000e+001  3.000000e+000
    endloop
  endfacet
  facet normal  1.000000e+000  -0.000000e+000  0.000000e+000
    outer loop
      vertex  7.500000e+000  4.400000e+001  8.000000e+000
      vertex  7.500000e+000  4.100000e+001  8.000000e+000
      vertex  7.500000e+000  4.400000e+001  0.000000e+000
    endloop
  endfacet
  facet normal  1.000000e+000  0.000000e+000  0.000000e+000
    outer loop
      vertex  7.500000e+000  4.400000e+001  0.000000e+000
      vertex  7.500000e+000  4.100000e+001  8.000000e+000
      vertex  7.500000e+000  4.100000e+001  3.000000e+000
    endloop
  endfacet
  facet normal  9.999999e-001  0.000000e+000  0.000000e+000
    outer loop
      vertex  7.500000e+000  4.400000e+001  0.000000e+000
      vertex  7.500000e+000  4.100000e+001  3.000000e+000
      vertex  7.500000e+000 -3.900000e+001  0.000000e+000
    endloop
  endfacet
  facet normal  1.000000e+000  0.000000e+000  0.000000e+000
    outer loop
      vertex  7.500000e+000 -3.900000e+001  0.000000e+000
      vertex  7.500000e+000  4.100000e+001  3.000000e+000
      vertex  7.500000e+000 -3.900000e+001  3.000000e+000
    endloop
  endfacet
  facet normal  9.659258e-001 -2.588190e-001  0.000000e+000
    outer loop
      vertex  7.500000e+000 -3.900000e+001  0.000000e+000
      vertex  7.500000e+000 -3.900000e+001  3.000000e+000
      vertex  6.830127e+000 -4.150000e+001  0.000000e+000
    endloop
  endfacet
  facet normal  9.659258e-001 -2.588190e-001  0.000000e+000
    outer loop
      vertex  6.830127e+000 -4.150000e+001  0.000000e+000
      vertex  7.500000e+000 -3.900000e+001  3.000000e+000
      vertex  6.830127e+000 -4.150000e+001  3.000000e+000
    endloop
  endfacet
  facet normal  7.071069e-001 -7.071067e-001  0.000000e+000
    outer loop
      vertex  6.830127e+000 -4.150000e+001  0.000000e+000
      vertex  6.830127e+000 -4.150000e+001  3.000000e+000
      vertex  5.000000e+000 -4.333013e+001  0.000000e+000
    endloop
  endfacet
  facet normal  7.071069e-001 -7.071067e-001  0.000000e+000
    outer loop
      vertex  5.000000e+000 -4.333013e+001  0.000000e+000
      vertex  6.830127e+000 -4.150000e+001  3.000000e+000
      vertex  5.000000e+000 -4.333013e+001  3.000000e+000
    endloop
  endfacet
  facet normal  2.588188e-001 -9.659259e-001  0.000000e+000
    outer loop
      vertex  5.000000e+000 -4.333013e+001  0.000000e+000
      vertex  5.000000e+000 -4.333013e+001  3.000000e+000
      vertex  2.500000e+000 -4.400000e+001  0.000000e+000
    endloop
  endfacet
  facet normal  2.588188e-001 -9.659259e-001  0.000000e+000
    outer loop
      vertex  2.500000e+000 -4.400000e+001  0.000000e+000
      vertex  5.000000e+000 -4.333013e+001  3.000000e+000
      vertex  2.500000e+000 -4.400000e+001  3.000000e+000
    endloop
  endfacet
  facet normal  3.826826e-001 -9.238799e-001  0.000000e+000
    outer loop
      vertex  5.971650e-016 -3.400000e+001  0.000000e+000
      vertex -1.767767e+000 -3.473223e+001  3.000000e+000
      vertex -1.767767e+000 -3.473223e+001  0.000000e+000
    endloop
  endfacet
  facet normal  9.238797e-001 -3.826831e-001  0.000000e+000
    outer loop
      vertex -1.767767e+000 -3.473223e+001  0.000000e+000
      vertex -1.767767e+000 -3.473223e+001  3.000000e+000
      vertex -2.500000e+000 -3.650000e+001  3.000000e+000
    endloop
  endfacet
  facet normal  9.238797e-001 -3.826831e-001  0.000000e+000
    outer loop
      vertex -1.767767e+000 -3.473223e+001  0.000000e+000
      vertex -2.500000e+000 -3.650000e+001  3.000000e+000
      vertex -2.500000e+000 -3.650000e+001  0.000000e+000
    endloop
  endfacet
  facet normal  3.826826e-001 -9.238799e-001  5.664840e-017
    outer loop
      vertex -1.767767e+000 -3.473223e+001  3.000000e+000
      vertex  5.971650e-016 -3.400000e+001  0.000000e+000
      vertex  1.530758e-016 -3.400000e+001  3.000000e+000
    endloop
  endfacet
  facet normal -3.826826e-001 -9.238799e-001 -5.664840e-017
    outer loop
      vertex  1.530758e-016 -3.400000e+001  3.000000e+000
      vertex  5.971650e-016 -3.400000e+001  0.000000e+000
      vertex  1.767767e+000 -3.473223e+001  0.000000e+000
    endloop
  endfacet
  facet normal -3.826826e-001 -9.238799e-001  0.000000e+000
    outer loop
      vertex  1.530758e-016 -3.400000e+001  3.000000e+000
      vertex  1.767767e+000 -3.473223e+001  0.000000e+000
      vertex  1.767767e+000 -3.473223e+001  3.000000e+000
    endloop
  endfacet
  facet normal -9.238797e-001 -3.826831e-001  -0.000000e+000
    outer loop
      vertex  1.767767e+000 -3.473223e+001  3.000000e+000
      vertex  1.767767e+000 -3.473223e+001  0.000000e+000
      vertex  2.500000e+000 -3.650000e+001  0.000000e+000
    endloop
  endfacet
  facet normal -9.238797e-001 -3.826831e-001  0.000000e+000
    outer loop
      vertex  1.767767e+000 -3.473223e+001  3.000000e+000
      vertex  2.500000e+000 -3.650000e+001  0.000000e+000
      vertex  2.500000e+000 -3.650000e+001  3.000000e+000
    endloop
  endfacet
  facet normal -3.826826e-001  9.238799e-001  0.000000e+000
    outer loop
      vertex -4.592274e-016 -3.900000e+001  0.000000e+000
      vertex  1.767767e+000 -3.826777e+001  3.000000e+000
      vertex  1.767767e+000 -3.826777e+001  0.000000e+000
    endloop
  endfacet
  facet normal -9.238797e-001  3.826831e-001  0.000000e+000
    outer loop
      vertex  1.767767e+000 -3.826777e+001  0.000000e+000
      vertex  1.767767e+000 -3.826777e+001  3.000000e+000
      vertex  2.500000e+000 -3.650000e+001  3.000000e+000
    endloop
  endfacet
  facet normal -9.238797e-001  3.826831e-001  0.000000e+000
    outer loop
      vertex  1.767767e+000 -3.826777e+001  0.000000e+000
      vertex  2.500000e+000 -3.650000e+001  3.000000e+000
      vertex  2.500000e+000 -3.650000e+001  0.000000e+000
    endloop
  endfacet
  facet normal -3.826826e-001  9.238799e-001  0.000000e+000
    outer loop
      vertex  1.767767e+000 -3.826777e+001  3.000000e+000
      vertex -4.592274e-016 -3.900000e+001  0.000000e+000
      vertex -4.592274e-016 -3.900000e+001  3.000000e+000
    endloop
  endfacet
  facet normal  3.826826e-001  9.238799e-001  0.000000e+000
    outer loop
      vertex -4.592274e-016 -3.900000e+001  3.000000e+000
      vertex -4.592274e-016 -3.900000e+001  0.000000e+000
      vertex -1.767767e+000 -3.826777e+001  0.000000e+000
    endloop
  endfacet
  facet normal  3.826826e-001  9.238799e-001  -0.000000e+000
    outer loop
      vertex -4.592274e-016 -3.900000e+001  3.000000e+000
      vertex -1.767767e+000 -3.826777e+001  0.000000e+000
      vertex -1.767767e+000 -3.826777e+001  3.000000e+000
    endloop
  endfacet
  facet normal  9.238797e-001  3.826831e-001  0.000000e+000
    outer loop
      vertex -1.767767e+000 -3.826777e+001  3.000000e+000
      vertex -1.767767e+000 -3.826777e+001  0.000000e+000
      vertex -2.500000e+000 -3.650000e+001  0.000000e+000
    endloop
  endfacet
  facet normal  9.238797e-001  3.826831e-001  -0.000000e+000
    outer loop
      vertex -1.767767e+000 -3.826777e+001  3.000000e+000
      vertex -2.500000e+000 -3.650000e+001  0.000000e+000
      vertex -2.500000e+000 -3.650000e+001  3.000000e+000
    endloop
  endfacet
  facet normal  0.000000e+000  0.000000e+000  1.000000e+000
    outer loop
      vertex -7.500000e+000  4.100000e+001  8.000000e+000
      vertex  7.500000e+000  4.100000e+001  8.000000e+000
      vertex -7.500000e+000  4.400000e+001  8.000000e+000
    endloop
  endfacet
  facet normal  -0.000000e+000  0.000000e+000  1.000000e+000
    outer loop
      vertex -7.500000e+000  4.400000e+001  8.000000e+000
      vertex  7.500000e+000  4.100000e+001  8.000000e+000
      vertex  7.500000e+000  4.400000e+001  8.000000e+000
    endloop
  endfacet
  facet normal  0.000000e+000  1.000000e+000  0.000000e+000
    outer loop
      vertex -7.500000e+000  4.400000e+001  8.000000e+000
      vertex  7.500000e+000  4.400000e+001  8.000000e+000
      vertex -7.500000e+000  4.400000e+001  0.000000e+000
    endloop
  endfacet
  facet normal  0.000000e+000  1.000000e+000  0.000000e+000
    outer loop
      vertex -7.500000e+000  4.400000e+001  0.000000e+000
      vertex  7.500000e+000  4.400000e+001  8.000000e+000
      vertex  7.500000e+000  4.400000e+001  0.000000e+000
    endloop
  endfacet
  facet normal  0.000000e+000 -1.000000e+000  0.000000e+000
    outer loop
      vertex  7.500000e+000  4.100000e+001  8.000000e+000
      vertex -7.500000e+000  4.100000e+001  8.000000e+000
      vertex  7.500000e+000  4.100000e+001  3.000000e+000
    endloop
  endfacet
  facet normal  0.000000e+000 -1.000000e+000  0.000000e+000
    outer loop
      vertex  7.500000e+000  4.100000e+001  3.000000e+000
      vertex -7.500000e+000  4.100000e+001  8.000000e+000
      vertex -7.500000e+000  4.100000e+001  3.000000e+000
    endloop
  endfacet
endsolid CATIA STL
