solid CATIA STL
  facet normal -1.000000e+000  0.000000e+000  0.000000e+000
    outer loop
      vertex  1.450000e+002  3.500000e+001  4.900000e+000
      vertex  1.450000e+002  0.000000e+000  4.900000e+000
      vertex  1.450000e+002  3.500000e+001  5.100000e+000
    endloop
  endfacet
  facet normal -1.000000e+000  -0.000000e+000  0.000000e+000
    outer loop
      vertex  1.450000e+002  3.500000e+001  5.100000e+000
      vertex  1.450000e+002  0.000000e+000  4.900000e+000
      vertex  1.450000e+002  0.000000e+000  5.100000e+000
    endloop
  endfacet
  facet normal  0.000000e+000  0.000000e+000  1.000000e+000
    outer loop
      vertex  1.430000e+002  0.000000e+000  2.900000e+000
      vertex  1.430000e+002  3.500000e+001  2.900000e+000
      vertex  0.000000e+000  0.000000e+000  2.900000e+000
    endloop
  endfacet
  facet normal  0.000000e+000  0.000000e+000  1.000000e+000
    outer loop
      vertex  0.000000e+000  0.000000e+000  2.900000e+000
      vertex  1.430000e+002  3.500000e+001  2.900000e+000
      vertex  0.000000e+000  3.500000e+001  2.900000e+000
    endloop
  endfacet
  facet normal  0.000000e+000  1.000000e+000  0.000000e+000
    outer loop
      vertex  1.500000e+002  3.500000e+001  0.000000e+000
      vertex  0.000000e+000  3.500000e+001  0.000000e+000
      vertex  0.000000e+000  3.500000e+001  2.900000e+000
    endloop
  endfacet
  facet normal  -0.000000e+000  9.999999e-001  0.000000e+000
    outer loop
      vertex  1.500000e+002  3.500000e+001  0.000000e+000
      vertex  0.000000e+000  3.500000e+001  2.900000e+000
      vertex  1.430000e+002  3.500000e+001  2.900000e+000
    endloop
  endfacet
  facet normal  -0.000000e+000  1.000000e+000  0.000000e+000
    outer loop
      vertex  1.500000e+002  3.500000e+001  0.000000e+000
      vertex  1.430000e+002  3.500000e+001  2.900000e+000
      vertex  1.433902e+002  3.500000e+001  2.938429e+000
    endloop
  endfacet
  facet normal  -0.000000e+000  1.000000e+000  0.000000e+000
    outer loop
      vertex  1.500000e+002  3.500000e+001  0.000000e+000
      vertex  1.433902e+002  3.500000e+001  2.938429e+000
      vertex  1.437654e+002  3.500000e+001  3.052241e+000
    endloop
  endfacet
  facet normal  -0.000000e+000  1.000000e+000  0.000000e+000
    outer loop
      vertex  1.500000e+002  3.500000e+001  0.000000e+000
      vertex  1.437654e+002  3.500000e+001  3.052241e+000
      vertex  1.441111e+002  3.500000e+001  3.237061e+000
    endloop
  endfacet
  facet normal  -0.000000e+000  1.000000e+000  0.000000e+000
    outer loop
      vertex  1.500000e+002  3.500000e+001  0.000000e+000
      vertex  1.441111e+002  3.500000e+001  3.237061e+000
      vertex  1.444142e+002  3.500000e+001  3.485786e+000
    endloop
  endfacet
  facet normal  -0.000000e+000  1.000000e+000  0.000000e+000
    outer loop
      vertex  1.500000e+002  3.500000e+001  0.000000e+000
      vertex  1.444142e+002  3.500000e+001  3.485786e+000
      vertex  1.446629e+002  3.500000e+001  3.788860e+000
    endloop
  endfacet
  facet normal  -0.000000e+000  1.000000e+000  0.000000e+000
    outer loop
      vertex  1.500000e+002  3.500000e+001  0.000000e+000
      vertex  1.446629e+002  3.500000e+001  3.788860e+000
      vertex  1.448478e+002  3.500000e+001  4.134633e+000
    endloop
  endfacet
  facet normal  -0.000000e+000  1.000000e+000  0.000000e+000
    outer loop
      vertex  1.500000e+002  3.500000e+001  0.000000e+000
      vertex  1.448478e+002  3.500000e+001  4.134633e+000
      vertex  1.449616e+002  3.500000e+001  4.509820e+000
    endloop
  endfacet
  facet normal  -0.000000e+000  1.000000e+000  0.000000e+000
    outer loop
      vertex  1.500000e+002  3.500000e+001  0.000000e+000
      vertex  1.449616e+002  3.500000e+001  4.509820e+000
      vertex  1.450000e+002  3.500000e+001  4.900000e+000
    endloop
  endfacet
  facet normal  -0.000000e+000  1.000000e+000  0.000000e+000
    outer loop
      vertex  1.500000e+002  3.500000e+001  0.000000e+000
      vertex  1.450000e+002  3.500000e+001  4.900000e+000
      vertex  1.500000e+002  3.500000e+001  1.000000e+001
    endloop
  endfacet
  facet normal  0.000000e+000  1.000000e+000  0.000000e+000
    outer loop
      vertex  1.500000e+002  3.500000e+001  1.000000e+001
      vertex  1.450000e+002  3.500000e+001  4.900000e+000
      vertex  1.450000e+002  3.500000e+001  5.100000e+000
    endloop
  endfacet
  facet normal  0.000000e+000  1.000000e+000  -0.000000e+000
    outer loop
      vertex  1.500000e+002  3.500000e+001  1.000000e+001
      vertex  1.450000e+002  3.500000e+001  5.100000e+000
      vertex  1.449616e+002  3.500000e+001  5.490180e+000
    endloop
  endfacet
  facet normal  0.000000e+000  1.000000e+000  -0.000000e+000
    outer loop
      vertex  1.500000e+002  3.500000e+001  1.000000e+001
      vertex  1.449616e+002  3.500000e+001  5.490180e+000
      vertex  1.448478e+002  3.500000e+001  5.865367e+000
    endloop
  endfacet
  facet normal  0.000000e+000  1.000000e+000  -0.000000e+000
    outer loop
      vertex  1.500000e+002  3.500000e+001  1.000000e+001
      vertex  1.448478e+002  3.500000e+001  5.865367e+000
      vertex  1.446629e+002  3.500000e+001  6.211141e+000
    endloop
  endfacet
  facet normal  0.000000e+000  9.999999e-001  -0.000000e+000
    outer loop
      vertex  1.500000e+002  3.500000e+001  1.000000e+001
      vertex  1.446629e+002  3.500000e+001  6.211141e+000
      vertex  1.444142e+002  3.500000e+001  6.514214e+000
    endloop
  endfacet
  facet normal  0.000000e+000  1.000000e+000  -0.000000e+000
    outer loop
      vertex  1.500000e+002  3.500000e+001  1.000000e+001
      vertex  1.444142e+002  3.500000e+001  6.514214e+000
      vertex  1.441111e+002  3.500000e+001  6.762939e+000
    endloop
  endfacet
  facet normal  0.000000e+000  1.000000e+000  -0.000000e+000
    outer loop
      vertex  1.500000e+002  3.500000e+001  1.000000e+001
      vertex  1.441111e+002  3.500000e+001  6.762939e+000
      vertex  1.437654e+002  3.500000e+001  6.947759e+000
    endloop
  endfacet
  facet normal  0.000000e+000  1.000000e+000  -0.000000e+000
    outer loop
      vertex  1.500000e+002  3.500000e+001  1.000000e+001
      vertex  1.437654e+002  3.500000e+001  6.947759e+000
      vertex  1.433902e+002  3.500000e+001  7.061571e+000
    endloop
  endfacet
  facet normal  0.000000e+000  1.000000e+000  -0.000000e+000
    outer loop
      vertex  1.500000e+002  3.500000e+001  1.000000e+001
      vertex  1.433902e+002  3.500000e+001  7.061571e+000
      vertex  1.430000e+002  3.500000e+001  7.100000e+000
    endloop
  endfacet
  facet normal  0.000000e+000  9.999999e-001  -0.000000e+000
    outer loop
      vertex  1.500000e+002  3.500000e+001  1.000000e+001
      vertex  1.430000e+002  3.500000e+001  7.100000e+000
      vertex  0.000000e+000  3.500000e+001  7.100000e+000
    endloop
  endfacet
  facet normal  0.000000e+000  1.000000e+000  0.000000e+000
    outer loop
      vertex  1.500000e+002  3.500000e+001  1.000000e+001
      vertex  0.000000e+000  3.500000e+001  7.100000e+000
      vertex  0.000000e+000  3.500000e+001  1.000000e+001
    endloop
  endfacet
  facet normal  0.000000e+000 -1.000000e+000  2.450147e-015
    outer loop
      vertex  1.500000e+002  7.105427e-015  1.000000e+001
      vertex  0.000000e+000  7.105427e-015  1.000000e+001
      vertex  0.000000e+000  0.000000e+000  7.100000e+000
    endloop
  endfacet
  facet normal  0.000000e+000 -9.999999e-001  2.450147e-015
    outer loop
      vertex  1.500000e+002  7.105427e-015  1.000000e+001
      vertex  0.000000e+000  0.000000e+000  7.100000e+000
      vertex  1.430000e+002  0.000000e+000  7.100000e+000
    endloop
  endfacet
  facet normal  1.949658e-016 -1.000000e+000  1.979540e-015
    outer loop
      vertex  1.500000e+002  7.105427e-015  1.000000e+001
      vertex  1.430000e+002  0.000000e+000  7.100000e+000
      vertex  1.433902e+002  0.000000e+000  7.061571e+000
    endloop
  endfacet
  facet normal  4.360110e-016 -1.000000e+000  1.437324e-015
    outer loop
      vertex  1.500000e+002  7.105427e-015  1.000000e+001
      vertex  1.433902e+002  0.000000e+000  7.061571e+000
      vertex  1.437654e+002  0.000000e+000  6.947759e+000
    endloop
  endfacet
  facet normal  5.948415e-016 -1.000000e+000  1.112890e-015
    outer loop
      vertex  1.500000e+002  7.105427e-015  1.000000e+001
      vertex  1.437654e+002  0.000000e+000  6.947759e+000
      vertex  1.441111e+002  0.000000e+000  6.762939e+000
    endloop
  endfacet
  facet normal  7.225970e-016 -1.000000e+000  8.804774e-016
    outer loop
      vertex  1.500000e+002  7.105427e-015  1.000000e+001
      vertex  1.441111e+002  0.000000e+000  6.762939e+000
      vertex  1.444142e+002  0.000000e+000  6.514214e+000
    endloop
  endfacet
  facet normal  8.412362e-016 -9.999999e-001  6.903645e-016
    outer loop
      vertex  1.500000e+002  7.105427e-015  1.000000e+001
      vertex  1.444142e+002  0.000000e+000  6.514214e+000
      vertex  1.446629e+002  0.000000e+000  6.211141e+000
    endloop
  endfacet
  facet normal  9.651016e-016 -1.000000e+000  5.158850e-016
    outer loop
      vertex  1.500000e+002  7.105427e-015  1.000000e+001
      vertex  1.446629e+002  0.000000e+000  6.211141e+000
      vertex  1.448478e+002  0.000000e+000  5.865367e+000
    endloop
  endfacet
  facet normal  1.109125e-015 -1.000000e+000  3.364153e-016
    outer loop
      vertex  1.500000e+002  7.105427e-015  1.000000e+001
      vertex  1.448478e+002  0.000000e+000  5.865367e+000
      vertex  1.449616e+002  0.000000e+000  5.490180e+000
    endloop
  endfacet
  facet normal  1.295972e-015 -1.000000e+000  1.276669e-016
    outer loop
      vertex  1.500000e+002  7.105427e-015  1.000000e+001
      vertex  1.449616e+002  0.000000e+000  5.490180e+000
      vertex  1.450000e+002  0.000000e+000  5.100000e+000
    endloop
  endfacet
  facet normal  7.247536e-016 -1.000000e+000  7.105427e-016
    outer loop
      vertex  1.500000e+002  7.105427e-015  1.000000e+001
      vertex  1.450000e+002  0.000000e+000  5.100000e+000
      vertex  1.500000e+002  0.000000e+000  0.000000e+000
    endloop
  endfacet
  facet normal  0.000000e+000 -1.000000e+000  0.000000e+000
    outer loop
      vertex  1.500000e+002  0.000000e+000  0.000000e+000
      vertex  1.450000e+002  0.000000e+000  5.100000e+000
      vertex  1.450000e+002  0.000000e+000  4.900000e+000
    endloop
  endfacet
  facet normal  0.000000e+000 -1.000000e+000  -0.000000e+000
    outer loop
      vertex  1.500000e+002  0.000000e+000  0.000000e+000
      vertex  1.450000e+002  0.000000e+000  4.900000e+000
      vertex  1.449616e+002  0.000000e+000  4.509820e+000
    endloop
  endfacet
  facet normal  0.000000e+000 -1.000000e+000  -0.000000e+000
    outer loop
      vertex  1.500000e+002  0.000000e+000  0.000000e+000
      vertex  1.449616e+002  0.000000e+000  4.509820e+000
      vertex  1.448478e+002  0.000000e+000  4.134633e+000
    endloop
  endfacet
  facet normal  0.000000e+000 -1.000000e+000  -0.000000e+000
    outer loop
      vertex  1.500000e+002  0.000000e+000  0.000000e+000
      vertex  1.448478e+002  0.000000e+000  4.134633e+000
      vertex  1.446629e+002  0.000000e+000  3.788860e+000
    endloop
  endfacet
  facet normal  0.000000e+000 -1.000000e+000  -0.000000e+000
    outer loop
      vertex  1.500000e+002  0.000000e+000  0.000000e+000
      vertex  1.446629e+002  0.000000e+000  3.788860e+000
      vertex  1.444142e+002  0.000000e+000  3.485786e+000
    endloop
  endfacet
  facet normal  0.000000e+000 -1.000000e+000  -0.000000e+000
    outer loop
      vertex  1.500000e+002  0.000000e+000  0.000000e+000
      vertex  1.444142e+002  0.000000e+000  3.485786e+000
      vertex  1.441111e+002  0.000000e+000  3.237061e+000
    endloop
  endfacet
  facet normal  0.000000e+000 -1.000000e+000  -0.000000e+000
    outer loop
      vertex  1.500000e+002  0.000000e+000  0.000000e+000
      vertex  1.441111e+002  0.000000e+000  3.237061e+000
      vertex  1.437654e+002  0.000000e+000  3.052241e+000
    endloop
  endfacet
  facet normal  0.000000e+000 -1.000000e+000  -0.000000e+000
    outer loop
      vertex  1.500000e+002  0.000000e+000  0.000000e+000
      vertex  1.437654e+002  0.000000e+000  3.052241e+000
      vertex  1.433902e+002  0.000000e+000  2.938429e+000
    endloop
  endfacet
  facet normal  0.000000e+000 -1.000000e+000  -0.000000e+000
    outer loop
      vertex  1.500000e+002  0.000000e+000  0.000000e+000
      vertex  1.433902e+002  0.000000e+000  2.938429e+000
      vertex  1.430000e+002  0.000000e+000  2.900000e+000
    endloop
  endfacet
  facet normal  -0.000000e+000 -9.999999e-001  -0.000000e+000
    outer loop
      vertex  1.500000e+002  0.000000e+000  0.000000e+000
      vertex  1.430000e+002  0.000000e+000  2.900000e+000
      vertex  0.000000e+000  0.000000e+000  2.900000e+000
    endloop
  endfacet
  facet normal  0.000000e+000 -1.000000e+000  0.000000e+000
    outer loop
      vertex  1.500000e+002  0.000000e+000  0.000000e+000
      vertex  0.000000e+000  0.000000e+000  2.900000e+000
      vertex  0.000000e+000  0.000000e+000  0.000000e+000
    endloop
  endfacet
  facet normal -7.730198e-001  0.000000e+000  6.343819e-001
    outer loop
      vertex  1.444142e+002  3.500000e+001  3.485786e+000
      vertex  1.446629e+002  0.000000e+000  3.788860e+000
      vertex  1.446629e+002  3.500000e+001  3.788860e+000
    endloop
  endfacet
  facet normal -8.819107e-001  0.000000e+000  4.714165e-001
    outer loop
      vertex  1.446629e+002  3.500000e+001  3.788860e+000
      vertex  1.446629e+002  0.000000e+000  3.788860e+000
      vertex  1.448478e+002  0.000000e+000  4.134633e+000
    endloop
  endfacet
  facet normal -8.819107e-001  0.000000e+000  4.714165e-001
    outer loop
      vertex  1.446629e+002  3.500000e+001  3.788860e+000
      vertex  1.448478e+002  0.000000e+000  4.134633e+000
      vertex  1.448478e+002  3.500000e+001  4.134633e+000
    endloop
  endfacet
  facet normal -9.569485e-001  0.000000e+000  2.902578e-001
    outer loop
      vertex  1.448478e+002  3.500000e+001  4.134633e+000
      vertex  1.448478e+002  0.000000e+000  4.134633e+000
      vertex  1.449616e+002  0.000000e+000  4.509820e+000
    endloop
  endfacet
  facet normal -9.569485e-001  0.000000e+000  2.902578e-001
    outer loop
      vertex  1.448478e+002  3.500000e+001  4.134633e+000
      vertex  1.449616e+002  0.000000e+000  4.509820e+000
      vertex  1.449616e+002  3.500000e+001  4.509820e+000
    endloop
  endfacet
  facet normal -9.951828e-001  0.000000e+000  9.803597e-002
    outer loop
      vertex  1.449616e+002  3.500000e+001  4.509820e+000
      vertex  1.449616e+002  0.000000e+000  4.509820e+000
      vertex  1.450000e+002  0.000000e+000  4.900000e+000
    endloop
  endfacet
  facet normal -9.951828e-001  0.000000e+000  9.803597e-002
    outer loop
      vertex  1.449616e+002  3.500000e+001  4.509820e+000
      vertex  1.450000e+002  0.000000e+000  4.900000e+000
      vertex  1.450000e+002  3.500000e+001  4.900000e+000
    endloop
  endfacet
  facet normal -7.730198e-001  0.000000e+000  6.343819e-001
    outer loop
      vertex  1.446629e+002  0.000000e+000  3.788860e+000
      vertex  1.444142e+002  3.500000e+001  3.485786e+000
      vertex  1.444142e+002  0.000000e+000  3.485786e+000
    endloop
  endfacet
  facet normal -6.343971e-001  0.000000e+000  7.730075e-001
    outer loop
      vertex  1.444142e+002  0.000000e+000  3.485786e+000
      vertex  1.444142e+002  3.500000e+001  3.485786e+000
      vertex  1.441111e+002  3.500000e+001  3.237061e+000
    endloop
  endfacet
  facet normal -6.343971e-001  0.000000e+000  7.730075e-001
    outer loop
      vertex  1.444142e+002  0.000000e+000  3.485786e+000
      vertex  1.441111e+002  3.500000e+001  3.237061e+000
      vertex  1.441111e+002  0.000000e+000  3.237061e+000
    endloop
  endfacet
  facet normal -4.713907e-001  0.000000e+000  8.819245e-001
    outer loop
      vertex  1.441111e+002  0.000000e+000  3.237061e+000
      vertex  1.441111e+002  3.500000e+001  3.237061e+000
      vertex  1.437654e+002  3.500000e+001  3.052241e+000
    endloop
  endfacet
  facet normal -4.713907e-001  0.000000e+000  8.819245e-001
    outer loop
      vertex  1.441111e+002  0.000000e+000  3.237061e+000
      vertex  1.437654e+002  3.500000e+001  3.052241e+000
      vertex  1.437654e+002  0.000000e+000  3.052241e+000
    endloop
  endfacet
  facet normal -2.902869e-001  0.000000e+000  9.569397e-001
    outer loop
      vertex  1.437654e+002  0.000000e+000  3.052241e+000
      vertex  1.437654e+002  3.500000e+001  3.052241e+000
      vertex  1.433902e+002  3.500000e+001  2.938429e+000
    endloop
  endfacet
  facet normal -2.902869e-001  0.000000e+000  9.569397e-001
    outer loop
      vertex  1.437654e+002  0.000000e+000  3.052241e+000
      vertex  1.433902e+002  3.500000e+001  2.938429e+000
      vertex  1.433902e+002  0.000000e+000  2.938429e+000
    endloop
  endfacet
  facet normal -9.801622e-002  0.000000e+000  9.951848e-001
    outer loop
      vertex  1.433902e+002  0.000000e+000  2.938429e+000
      vertex  1.433902e+002  3.500000e+001  2.938429e+000
      vertex  1.430000e+002  3.500000e+001  2.900000e+000
    endloop
  endfacet
  facet normal -9.801622e-002  0.000000e+000  9.951848e-001
    outer loop
      vertex  1.433902e+002  0.000000e+000  2.938429e+000
      vertex  1.430000e+002  3.500000e+001  2.900000e+000
      vertex  1.430000e+002  0.000000e+000  2.900000e+000
    endloop
  endfacet
  facet normal  0.000000e+000  0.000000e+000 -1.000000e+000
    outer loop
      vertex  0.000000e+000  0.000000e+000  7.100000e+000
      vertex  0.000000e+000  3.500000e+001  7.100000e+000
      vertex  1.430000e+002  0.000000e+000  7.100000e+000
    endloop
  endfacet
  facet normal  0.000000e+000  0.000000e+000 -1.000000e+000
    outer loop
      vertex  1.430000e+002  0.000000e+000  7.100000e+000
      vertex  0.000000e+000  3.500000e+001  7.100000e+000
      vertex  1.430000e+002  3.500000e+001  7.100000e+000
    endloop
  endfacet
  facet normal -6.343974e-001  0.000000e+000 -7.730071e-001
    outer loop
      vertex  1.444142e+002  3.500000e+001  6.514214e+000
      vertex  1.441111e+002  0.000000e+000  6.762939e+000
      vertex  1.441111e+002  3.500000e+001  6.762939e+000
    endloop
  endfacet
  facet normal -4.713903e-001  -0.000000e+000 -8.819247e-001
    outer loop
      vertex  1.441111e+002  3.500000e+001  6.762939e+000
      vertex  1.441111e+002  0.000000e+000  6.762939e+000
      vertex  1.437654e+002  0.000000e+000  6.947759e+000
    endloop
  endfacet
  facet normal -4.713903e-001  0.000000e+000 -8.819247e-001
    outer loop
      vertex  1.441111e+002  3.500000e+001  6.762939e+000
      vertex  1.437654e+002  0.000000e+000  6.947759e+000
      vertex  1.437654e+002  3.500000e+001  6.947759e+000
    endloop
  endfacet
  facet normal -2.902869e-001  -0.000000e+000 -9.569397e-001
    outer loop
      vertex  1.437654e+002  3.500000e+001  6.947759e+000
      vertex  1.437654e+002  0.000000e+000  6.947759e+000
      vertex  1.433902e+002  0.000000e+000  7.061571e+000
    endloop
  endfacet
  facet normal -2.902869e-001  0.000000e+000 -9.569397e-001
    outer loop
      vertex  1.437654e+002  3.500000e+001  6.947759e+000
      vertex  1.433902e+002  0.000000e+000  7.061571e+000
      vertex  1.433902e+002  3.500000e+001  7.061571e+000
    endloop
  endfacet
  facet normal -9.801622e-002  -0.000000e+000 -9.951848e-001
    outer loop
      vertex  1.433902e+002  3.500000e+001  7.061571e+000
      vertex  1.433902e+002  0.000000e+000  7.061571e+000
      vertex  1.430000e+002  0.000000e+000  7.100000e+000
    endloop
  endfacet
  facet normal -9.801622e-002  0.000000e+000 -9.951848e-001
    outer loop
      vertex  1.433902e+002  3.500000e+001  7.061571e+000
      vertex  1.430000e+002  0.000000e+000  7.100000e+000
      vertex  1.430000e+002  3.500000e+001  7.100000e+000
    endloop
  endfacet
  facet normal -6.343974e-001  -0.000000e+000 -7.730071e-001
    outer loop
      vertex  1.441111e+002  0.000000e+000  6.762939e+000
      vertex  1.444142e+002  3.500000e+001  6.514214e+000
      vertex  1.444142e+002  0.000000e+000  6.514214e+000
    endloop
  endfacet
  facet normal -7.730196e-001  0.000000e+000 -6.343822e-001
    outer loop
      vertex  1.444142e+002  0.000000e+000  6.514214e+000
      vertex  1.444142e+002  3.500000e+001  6.514214e+000
      vertex  1.446629e+002  3.500000e+001  6.211141e+000
    endloop
  endfacet
  facet normal -7.730196e-001  -0.000000e+000 -6.343822e-001
    outer loop
      vertex  1.444142e+002  0.000000e+000  6.514214e+000
      vertex  1.446629e+002  3.500000e+001  6.211141e+000
      vertex  1.446629e+002  0.000000e+000  6.211141e+000
    endloop
  endfacet
  facet normal -8.819108e-001  0.000000e+000 -4.714162e-001
    outer loop
      vertex  1.446629e+002  0.000000e+000  6.211141e+000
      vertex  1.446629e+002  3.500000e+001  6.211141e+000
      vertex  1.448478e+002  3.500000e+001  5.865367e+000
    endloop
  endfacet
  facet normal -8.819108e-001  -0.000000e+000 -4.714162e-001
    outer loop
      vertex  1.446629e+002  0.000000e+000  6.211141e+000
      vertex  1.448478e+002  3.500000e+001  5.865367e+000
      vertex  1.448478e+002  0.000000e+000  5.865367e+000
    endloop
  endfacet
  facet normal -9.569485e-001  0.000000e+000 -2.902578e-001
    outer loop
      vertex  1.448478e+002  0.000000e+000  5.865367e+000
      vertex  1.448478e+002  3.500000e+001  5.865367e+000
      vertex  1.449616e+002  3.500000e+001  5.490180e+000
    endloop
  endfacet
  facet normal -9.569485e-001  -0.000000e+000 -2.902578e-001
    outer loop
      vertex  1.448478e+002  0.000000e+000  5.865367e+000
      vertex  1.449616e+002  3.500000e+001  5.490180e+000
      vertex  1.449616e+002  0.000000e+000  5.490180e+000
    endloop
  endfacet
  facet normal -9.951828e-001  0.000000e+000 -9.803597e-002
    outer loop
      vertex  1.449616e+002  0.000000e+000  5.490180e+000
      vertex  1.449616e+002  3.500000e+001  5.490180e+000
      vertex  1.450000e+002  3.500000e+001  5.100000e+000
    endloop
  endfacet
  facet normal -9.951828e-001  -0.000000e+000 -9.803597e-002
    outer loop
      vertex  1.449616e+002  0.000000e+000  5.490180e+000
      vertex  1.450000e+002  3.500000e+001  5.100000e+000
      vertex  1.450000e+002  0.000000e+000  5.100000e+000
    endloop
  endfacet
  facet normal -1.000000e+000  0.000000e+000  0.000000e+000
    outer loop
      vertex  0.000000e+000  0.000000e+000  0.000000e+000
      vertex  0.000000e+000  0.000000e+000  2.900000e+000
      vertex  0.000000e+000  3.500000e+001  0.000000e+000
    endloop
  endfacet
  facet normal -1.000000e+000  0.000000e+000  0.000000e+000
    outer loop
      vertex  0.000000e+000  3.500000e+001  0.000000e+000
      vertex  0.000000e+000  0.000000e+000  2.900000e+000
      vertex  0.000000e+000  3.500000e+001  2.900000e+000
    endloop
  endfacet
  facet normal -1.000000e+000  0.000000e+000  -0.000000e+000
    outer loop
      vertex  0.000000e+000  0.000000e+000  7.100000e+000
      vertex  0.000000e+000  7.105427e-015  1.000000e+001
      vertex  0.000000e+000  3.500000e+001  7.100000e+000
    endloop
  endfacet
  facet normal -1.000000e+000  0.000000e+000  0.000000e+000
    outer loop
      vertex  0.000000e+000  3.500000e+001  7.100000e+000
      vertex  0.000000e+000  7.105427e-015  1.000000e+001
      vertex  0.000000e+000  3.500000e+001  1.000000e+001
    endloop
  endfacet
  facet normal  1.000000e+000  0.000000e+000  0.000000e+000
    outer loop
      vertex  1.500000e+002  0.000000e+000  0.000000e+000
      vertex  1.500000e+002  3.500000e+001  0.000000e+000
      vertex  1.500000e+002  7.105427e-015  1.000000e+001
    endloop
  endfacet
  facet normal  1.000000e+000  -0.000000e+000  0.000000e+000
    outer loop
      vertex  1.500000e+002  7.105427e-015  1.000000e+001
      vertex  1.500000e+002  3.500000e+001  0.000000e+000
      vertex  1.500000e+002  3.500000e+001  1.000000e+001
    endloop
  endfacet
  facet normal  0.000000e+000  0.000000e+000  1.000000e+000
    outer loop
      vertex  0.000000e+000  3.500000e+001  1.000000e+001
      vertex  0.000000e+000  7.105427e-015  1.000000e+001
      vertex  1.500000e+002  3.500000e+001  1.000000e+001
    endloop
  endfacet
  facet normal  0.000000e+000  0.000000e+000  1.000000e+000
    outer loop
      vertex  1.500000e+002  3.500000e+001  1.000000e+001
      vertex  0.000000e+000  7.105427e-015  1.000000e+001
      vertex  1.500000e+002  7.105427e-015  1.000000e+001
    endloop
  endfacet
  facet normal  0.000000e+000  0.000000e+000 -1.000000e+000
    outer loop
      vertex  0.000000e+000  0.000000e+000  0.000000e+000
      vertex  0.000000e+000  3.500000e+001  0.000000e+000
      vertex  1.500000e+002  0.000000e+000  0.000000e+000
    endloop
  endfacet
  facet normal  0.000000e+000  0.000000e+000 -1.000000e+000
    outer loop
      vertex  1.500000e+002  0.000000e+000  0.000000e+000
      vertex  0.000000e+000  3.500000e+001  0.000000e+000
      vertex  1.500000e+002  3.500000e+001  0.000000e+000
    endloop
  endfacet
endsolid CATIA STL
