solid CATIA STL
  facet normal  1.000000e+000  -0.000000e+000  0.000000e+000
    outer loop
      vertex  4.420000e+001 -3.650000e+001  1.600000e+000
      vertex  4.420000e+001 -4.350000e+001  1.600000e+000
      vertex  4.420000e+001 -4.379264e+001  1.571178e+000
    endloop
  endfacet
  facet normal  1.000000e+000  0.000000e+000  0.000000e+000
    outer loop
      vertex  4.420000e+001 -3.650000e+001  1.600000e+000
      vertex  4.420000e+001 -4.379264e+001  1.571178e+000
      vertex  4.420000e+001 -3.640245e+001  1.590393e+000
    endloop
  endfacet
  facet normal  9.999999e-001  -0.000000e+000  0.000000e+000
    outer loop
      vertex  4.420000e+001 -3.640245e+001  1.590393e+000
      vertex  4.420000e+001 -4.379264e+001  1.571178e+000
      vertex  4.420000e+001 -3.630866e+001  1.561940e+000
    endloop
  endfacet
  facet normal  1.000000e+000  0.000000e+000  0.000000e+000
    outer loop
      vertex  4.420000e+001 -4.500000e+001  1.000000e-001
      vertex  4.420000e+001 -4.488582e+001  6.740252e-001
      vertex  4.420000e+001 -4.497118e+001  3.926355e-001
    endloop
  endfacet
  facet normal  1.000000e+000  0.000000e+000  -0.000000e+000
    outer loop
      vertex  4.420000e+001 -3.750000e+001  1.000000e+000
      vertex  4.420000e+001 -3.600000e+001  1.000000e+000
      vertex  4.420000e+001 -3.600000e+001  1.100000e+000
    endloop
  endfacet
  facet normal  1.000000e+000  0.000000e+000  0.000000e+000
    outer loop
      vertex  4.420000e+001 -3.750000e+001  1.000000e+000
      vertex  4.420000e+001 -3.600000e+001  1.100000e+000
      vertex  4.420000e+001 -4.474720e+001  9.333553e-001
    endloop
  endfacet
  facet normal  1.000000e+000  -0.000000e+000  0.000000e+000
    outer loop
      vertex  4.420000e+001 -3.750000e+001  1.000000e+000
      vertex  4.420000e+001 -4.474720e+001  9.333553e-001
      vertex  4.420000e+001 -4.488582e+001  6.740252e-001
    endloop
  endfacet
  facet normal  1.000000e+000  -0.000000e+000  0.000000e+000
    outer loop
      vertex  4.420000e+001 -3.750000e+001  1.000000e+000
      vertex  4.420000e+001 -4.488582e+001  6.740252e-001
      vertex  4.420000e+001 -4.500000e+001  1.000000e-001
    endloop
  endfacet
  facet normal  1.000000e+000  -0.000000e+000  0.000000e+000
    outer loop
      vertex  4.420000e+001 -3.750000e+001  1.000000e+000
      vertex  4.420000e+001 -4.500000e+001  1.000000e-001
      vertex  4.420000e+001 -4.500000e+001  0.000000e+000
    endloop
  endfacet
  facet normal  1.000000e+000  0.000000e+000  0.000000e+000
    outer loop
      vertex  4.420000e+001 -3.750000e+001  1.000000e+000
      vertex  4.420000e+001 -4.500000e+001  0.000000e+000
      vertex  4.420000e+001 -3.750000e+001  0.000000e+000
    endloop
  endfacet
  facet normal  1.000000e+000  0.000000e+000  0.000000e+000
    outer loop
      vertex  4.420000e+001 -3.630866e+001  1.561940e+000
      vertex  4.420000e+001 -4.379264e+001  1.571178e+000
      vertex  4.420000e+001 -3.622221e+001  1.515735e+000
    endloop
  endfacet
  facet normal  1.000000e+000  0.000000e+000  0.000000e+000
    outer loop
      vertex  4.420000e+001 -3.622221e+001  1.515735e+000
      vertex  4.420000e+001 -4.379264e+001  1.571178e+000
      vertex  4.420000e+001 -4.407402e+001  1.485819e+000
    endloop
  endfacet
  facet normal  1.000000e+000  -0.000000e+000  0.000000e+000
    outer loop
      vertex  4.420000e+001 -3.622221e+001  1.515735e+000
      vertex  4.420000e+001 -4.407402e+001  1.485819e+000
      vertex  4.420000e+001 -3.614645e+001  1.453553e+000
    endloop
  endfacet
  facet normal  1.000000e+000  0.000000e+000  0.000000e+000
    outer loop
      vertex  4.420000e+001 -3.614645e+001  1.453553e+000
      vertex  4.420000e+001 -4.407402e+001  1.485819e+000
      vertex  4.420000e+001 -4.433335e+001  1.347204e+000
    endloop
  endfacet
  facet normal  1.000000e+000  0.000000e+000  0.000000e+000
    outer loop
      vertex  4.420000e+001 -3.614645e+001  1.453553e+000
      vertex  4.420000e+001 -4.433335e+001  1.347204e+000
      vertex  4.420000e+001 -3.608427e+001  1.377785e+000
    endloop
  endfacet
  facet normal  1.000000e+000  -0.000000e+000  0.000000e+000
    outer loop
      vertex  4.420000e+001 -3.608427e+001  1.377785e+000
      vertex  4.420000e+001 -4.433335e+001  1.347204e+000
      vertex  4.420000e+001 -3.603806e+001  1.291342e+000
    endloop
  endfacet
  facet normal  1.000000e+000  0.000000e+000  0.000000e+000
    outer loop
      vertex  4.420000e+001 -3.603806e+001  1.291342e+000
      vertex  4.420000e+001 -4.433335e+001  1.347204e+000
      vertex  4.420000e+001 -4.456066e+001  1.160660e+000
    endloop
  endfacet
  facet normal  1.000000e+000  0.000000e+000  0.000000e+000
    outer loop
      vertex  4.420000e+001 -3.603806e+001  1.291342e+000
      vertex  4.420000e+001 -4.456066e+001  1.160660e+000
      vertex  4.420000e+001 -3.600961e+001  1.197545e+000
    endloop
  endfacet
  facet normal  1.000000e+000  0.000000e+000  0.000000e+000
    outer loop
      vertex  4.420000e+001 -4.474720e+001  9.333553e-001
      vertex  4.420000e+001 -3.600000e+001  1.100000e+000
      vertex  4.420000e+001 -4.456066e+001  1.160660e+000
    endloop
  endfacet
  facet normal  1.000000e+000  -0.000000e+000  0.000000e+000
    outer loop
      vertex  4.420000e+001 -4.456066e+001  1.160660e+000
      vertex  4.420000e+001 -3.600000e+001  1.100000e+000
      vertex  4.420000e+001 -3.600961e+001  1.197545e+000
    endloop
  endfacet
  facet normal -1.000000e+000  0.000000e+000  -0.000000e+000
    outer loop
      vertex -4.420000e+001 -4.379264e+001  1.571178e+000
      vertex -4.420000e+001 -4.350000e+001  1.600000e+000
      vertex -4.420000e+001 -3.650000e+001  1.600000e+000
    endloop
  endfacet
  facet normal -1.000000e+000  0.000000e+000  0.000000e+000
    outer loop
      vertex -4.420000e+001 -3.640245e+001  1.590393e+000
      vertex -4.420000e+001 -4.379264e+001  1.571178e+000
      vertex -4.420000e+001 -3.650000e+001  1.600000e+000
    endloop
  endfacet
  facet normal -9.999999e-001  0.000000e+000  0.000000e+000
    outer loop
      vertex -4.420000e+001 -3.630866e+001  1.561940e+000
      vertex -4.420000e+001 -4.379264e+001  1.571178e+000
      vertex -4.420000e+001 -3.640245e+001  1.590393e+000
    endloop
  endfacet
  facet normal -1.000000e+000  0.000000e+000  0.000000e+000
    outer loop
      vertex -4.420000e+001 -4.497118e+001  3.926355e-001
      vertex -4.420000e+001 -4.488582e+001  6.740252e-001
      vertex -4.420000e+001 -4.500000e+001  1.000000e-001
    endloop
  endfacet
  facet normal -1.000000e+000  0.000000e+000  0.000000e+000
    outer loop
      vertex -4.420000e+001 -3.750000e+001  1.000000e+000
      vertex -4.420000e+001 -3.750000e+001  0.000000e+000
      vertex -4.420000e+001 -4.500000e+001  0.000000e+000
    endloop
  endfacet
  facet normal -1.000000e+000  0.000000e+000  0.000000e+000
    outer loop
      vertex -4.420000e+001 -3.750000e+001  1.000000e+000
      vertex -4.420000e+001 -4.500000e+001  0.000000e+000
      vertex -4.420000e+001 -4.500000e+001  1.000000e-001
    endloop
  endfacet
  facet normal -1.000000e+000  0.000000e+000  0.000000e+000
    outer loop
      vertex -4.420000e+001 -3.750000e+001  1.000000e+000
      vertex -4.420000e+001 -4.500000e+001  1.000000e-001
      vertex -4.420000e+001 -4.488582e+001  6.740252e-001
    endloop
  endfacet
  facet normal -1.000000e+000  0.000000e+000  0.000000e+000
    outer loop
      vertex -4.420000e+001 -3.750000e+001  1.000000e+000
      vertex -4.420000e+001 -4.488582e+001  6.740252e-001
      vertex -4.420000e+001 -4.474720e+001  9.333553e-001
    endloop
  endfacet
  facet normal -1.000000e+000  0.000000e+000  0.000000e+000
    outer loop
      vertex -4.420000e+001 -3.750000e+001  1.000000e+000
      vertex -4.420000e+001 -4.474720e+001  9.333553e-001
      vertex -4.420000e+001 -3.600000e+001  1.100000e+000
    endloop
  endfacet
  facet normal -1.000000e+000  0.000000e+000  -0.000000e+000
    outer loop
      vertex -4.420000e+001 -3.750000e+001  1.000000e+000
      vertex -4.420000e+001 -3.600000e+001  1.100000e+000
      vertex -4.420000e+001 -3.600000e+001  1.000000e+000
    endloop
  endfacet
  facet normal -1.000000e+000  0.000000e+000  0.000000e+000
    outer loop
      vertex -4.420000e+001 -3.608427e+001  1.377785e+000
      vertex -4.420000e+001 -4.433335e+001  1.347204e+000
      vertex -4.420000e+001 -3.614645e+001  1.453553e+000
    endloop
  endfacet
  facet normal -1.000000e+000  -0.000000e+000  0.000000e+000
    outer loop
      vertex -4.420000e+001 -3.614645e+001  1.453553e+000
      vertex -4.420000e+001 -4.433335e+001  1.347204e+000
      vertex -4.420000e+001 -4.407402e+001  1.485819e+000
    endloop
  endfacet
  facet normal -1.000000e+000  0.000000e+000  0.000000e+000
    outer loop
      vertex -4.420000e+001 -3.614645e+001  1.453553e+000
      vertex -4.420000e+001 -4.407402e+001  1.485819e+000
      vertex -4.420000e+001 -3.622221e+001  1.515735e+000
    endloop
  endfacet
  facet normal -1.000000e+000  -0.000000e+000  0.000000e+000
    outer loop
      vertex -4.420000e+001 -3.622221e+001  1.515735e+000
      vertex -4.420000e+001 -4.407402e+001  1.485819e+000
      vertex -4.420000e+001 -4.379264e+001  1.571178e+000
    endloop
  endfacet
  facet normal -1.000000e+000  0.000000e+000  0.000000e+000
    outer loop
      vertex -4.420000e+001 -3.622221e+001  1.515735e+000
      vertex -4.420000e+001 -4.379264e+001  1.571178e+000
      vertex -4.420000e+001 -3.630866e+001  1.561940e+000
    endloop
  endfacet
  facet normal -1.000000e+000  0.000000e+000  0.000000e+000
    outer loop
      vertex -4.420000e+001 -3.600961e+001  1.197545e+000
      vertex -4.420000e+001 -4.456066e+001  1.160660e+000
      vertex -4.420000e+001 -3.603806e+001  1.291342e+000
    endloop
  endfacet
  facet normal -1.000000e+000  -0.000000e+000  0.000000e+000
    outer loop
      vertex -4.420000e+001 -3.603806e+001  1.291342e+000
      vertex -4.420000e+001 -4.456066e+001  1.160660e+000
      vertex -4.420000e+001 -4.433335e+001  1.347204e+000
    endloop
  endfacet
  facet normal -1.000000e+000  0.000000e+000  0.000000e+000
    outer loop
      vertex -4.420000e+001 -3.603806e+001  1.291342e+000
      vertex -4.420000e+001 -4.433335e+001  1.347204e+000
      vertex -4.420000e+001 -3.608427e+001  1.377785e+000
    endloop
  endfacet
  facet normal -1.000000e+000  0.000000e+000  -0.000000e+000
    outer loop
      vertex -4.420000e+001 -4.474720e+001  9.333553e-001
      vertex -4.420000e+001 -4.456066e+001  1.160660e+000
      vertex -4.420000e+001 -3.600000e+001  1.100000e+000
    endloop
  endfacet
  facet normal -1.000000e+000  0.000000e+000  0.000000e+000
    outer loop
      vertex -4.420000e+001 -3.600000e+001  1.100000e+000
      vertex -4.420000e+001 -4.456066e+001  1.160660e+000
      vertex -4.420000e+001 -3.600961e+001  1.197545e+000
    endloop
  endfacet
  facet normal  0.000000e+000  0.000000e+000  1.000000e+000
    outer loop
      vertex -4.420000e+001 -3.650000e+001  1.600000e+000
      vertex -4.420000e+001 -4.350000e+001  1.600000e+000
      vertex  4.420000e+001 -3.650000e+001  1.600000e+000
    endloop
  endfacet
  facet normal  0.000000e+000  0.000000e+000  1.000000e+000
    outer loop
      vertex  4.420000e+001 -3.650000e+001  1.600000e+000
      vertex -4.420000e+001 -4.350000e+001  1.600000e+000
      vertex  4.420000e+001 -4.350000e+001  1.600000e+000
    endloop
  endfacet
  facet normal  0.000000e+000  1.000000e+000  0.000000e+000
    outer loop
      vertex -4.420000e+001 -3.600000e+001  1.100000e+000
      vertex  4.420000e+001 -3.600000e+001  1.100000e+000
      vertex -4.420000e+001 -3.600000e+001  1.000000e+000
    endloop
  endfacet
  facet normal  0.000000e+000  1.000000e+000  0.000000e+000
    outer loop
      vertex -4.420000e+001 -3.600000e+001  1.000000e+000
      vertex  4.420000e+001 -3.600000e+001  1.100000e+000
      vertex  4.420000e+001 -3.600000e+001  1.000000e+000
    endloop
  endfacet
  facet normal  0.000000e+000  9.801744e-002  9.951848e-001
    outer loop
      vertex -4.420000e+001 -3.650000e+001  1.600000e+000
      vertex  4.420000e+001 -3.650000e+001  1.600000e+000
      vertex -4.420000e+001 -3.640245e+001  1.590393e+000
    endloop
  endfacet
  facet normal  -0.000000e+000  9.801744e-002  9.951848e-001
    outer loop
      vertex -4.420000e+001 -3.640245e+001  1.590393e+000
      vertex  4.420000e+001 -3.650000e+001  1.600000e+000
      vertex  4.420000e+001 -3.640245e+001  1.590393e+000
    endloop
  endfacet
  facet normal  0.000000e+000  2.902869e-001  9.569397e-001
    outer loop
      vertex -4.420000e+001 -3.640245e+001  1.590393e+000
      vertex  4.420000e+001 -3.640245e+001  1.590393e+000
      vertex -4.420000e+001 -3.630866e+001  1.561940e+000
    endloop
  endfacet
  facet normal  -0.000000e+000  2.902869e-001  9.569397e-001
    outer loop
      vertex -4.420000e+001 -3.630866e+001  1.561940e+000
      vertex  4.420000e+001 -3.640245e+001  1.590393e+000
      vertex  4.420000e+001 -3.630866e+001  1.561940e+000
    endloop
  endfacet
  facet normal  0.000000e+000  4.713903e-001  8.819246e-001
    outer loop
      vertex -4.420000e+001 -3.630866e+001  1.561940e+000
      vertex  4.420000e+001 -3.630866e+001  1.561940e+000
      vertex -4.420000e+001 -3.622221e+001  1.515735e+000
    endloop
  endfacet
  facet normal  -0.000000e+000  4.713903e-001  8.819246e-001
    outer loop
      vertex -4.420000e+001 -3.622221e+001  1.515735e+000
      vertex  4.420000e+001 -3.630866e+001  1.561940e+000
      vertex  4.420000e+001 -3.622221e+001  1.515735e+000
    endloop
  endfacet
  facet normal  0.000000e+000  6.343967e-001  7.730077e-001
    outer loop
      vertex -4.420000e+001 -3.622221e+001  1.515735e+000
      vertex  4.420000e+001 -3.622221e+001  1.515735e+000
      vertex -4.420000e+001 -3.614645e+001  1.453553e+000
    endloop
  endfacet
  facet normal  -0.000000e+000  6.343967e-001  7.730077e-001
    outer loop
      vertex -4.420000e+001 -3.614645e+001  1.453553e+000
      vertex  4.420000e+001 -3.622221e+001  1.515735e+000
      vertex  4.420000e+001 -3.614645e+001  1.453553e+000
    endloop
  endfacet
  facet normal  0.000000e+000  7.730200e-001  6.343817e-001
    outer loop
      vertex -4.420000e+001 -3.614645e+001  1.453553e+000
      vertex  4.420000e+001 -3.614645e+001  1.453553e+000
      vertex -4.420000e+001 -3.608427e+001  1.377785e+000
    endloop
  endfacet
  facet normal  -0.000000e+000  7.730200e-001  6.343817e-001
    outer loop
      vertex -4.420000e+001 -3.608427e+001  1.377785e+000
      vertex  4.420000e+001 -3.614645e+001  1.453553e+000
      vertex  4.420000e+001 -3.608427e+001  1.377785e+000
    endloop
  endfacet
  facet normal  0.000000e+000  8.819107e-001  4.714162e-001
    outer loop
      vertex -4.420000e+001 -3.608427e+001  1.377785e+000
      vertex  4.420000e+001 -3.608427e+001  1.377785e+000
      vertex -4.420000e+001 -3.603806e+001  1.291342e+000
    endloop
  endfacet
  facet normal  -0.000000e+000  8.819107e-001  4.714162e-001
    outer loop
      vertex -4.420000e+001 -3.603806e+001  1.291342e+000
      vertex  4.420000e+001 -3.608427e+001  1.377785e+000
      vertex  4.420000e+001 -3.603806e+001  1.291342e+000
    endloop
  endfacet
  facet normal  0.000000e+000  9.569483e-001  2.902581e-001
    outer loop
      vertex -4.420000e+001 -3.603806e+001  1.291342e+000
      vertex  4.420000e+001 -3.603806e+001  1.291342e+000
      vertex -4.420000e+001 -3.600961e+001  1.197545e+000
    endloop
  endfacet
  facet normal  -0.000000e+000  9.569483e-001  2.902581e-001
    outer loop
      vertex -4.420000e+001 -3.600961e+001  1.197545e+000
      vertex  4.420000e+001 -3.603806e+001  1.291342e+000
      vertex  4.420000e+001 -3.600961e+001  1.197545e+000
    endloop
  endfacet
  facet normal  0.000000e+000  9.951829e-001  9.803597e-002
    outer loop
      vertex -4.420000e+001 -3.600961e+001  1.197545e+000
      vertex  4.420000e+001 -3.600961e+001  1.197545e+000
      vertex -4.420000e+001 -3.600000e+001  1.100000e+000
    endloop
  endfacet
  facet normal  -0.000000e+000  9.951829e-001  9.803597e-002
    outer loop
      vertex -4.420000e+001 -3.600000e+001  1.100000e+000
      vertex  4.420000e+001 -3.600961e+001  1.197545e+000
      vertex  4.420000e+001 -3.600000e+001  1.100000e+000
    endloop
  endfacet
  facet normal  0.000000e+000 -1.000000e+000  0.000000e+000
    outer loop
      vertex -4.420000e+001 -4.500000e+001  0.000000e+000
      vertex  4.420000e+001 -4.500000e+001  0.000000e+000
      vertex -4.420000e+001 -4.500000e+001  1.000000e-001
    endloop
  endfacet
  facet normal  0.000000e+000 -1.000000e+000  0.000000e+000
    outer loop
      vertex -4.420000e+001 -4.500000e+001  1.000000e-001
      vertex  4.420000e+001 -4.500000e+001  0.000000e+000
      vertex  4.420000e+001 -4.500000e+001  1.000000e-001
    endloop
  endfacet
  facet normal  0.000000e+000 -9.951842e-001  9.802312e-002
    outer loop
      vertex -4.420000e+001 -4.500000e+001  1.000000e-001
      vertex  4.420000e+001 -4.500000e+001  1.000000e-001
      vertex -4.420000e+001 -4.497118e+001  3.926355e-001
    endloop
  endfacet
  facet normal  0.000000e+000 -9.951842e-001  9.802312e-002
    outer loop
      vertex -4.420000e+001 -4.497118e+001  3.926355e-001
      vertex  4.420000e+001 -4.500000e+001  1.000000e-001
      vertex  4.420000e+001 -4.497118e+001  3.926355e-001
    endloop
  endfacet
  facet normal  0.000000e+000 -9.569413e-001  2.902817e-001
    outer loop
      vertex -4.420000e+001 -4.497118e+001  3.926355e-001
      vertex  4.420000e+001 -4.497118e+001  3.926355e-001
      vertex -4.420000e+001 -4.488582e+001  6.740252e-001
    endloop
  endfacet
  facet normal  0.000000e+000 -9.569413e-001  2.902817e-001
    outer loop
      vertex -4.420000e+001 -4.488582e+001  6.740252e-001
      vertex  4.420000e+001 -4.497118e+001  3.926355e-001
      vertex  4.420000e+001 -4.488582e+001  6.740252e-001
    endloop
  endfacet
  facet normal  0.000000e+000 -8.819215e-001  4.713962e-001
    outer loop
      vertex -4.420000e+001 -4.488582e+001  6.740252e-001
      vertex  4.420000e+001 -4.488582e+001  6.740252e-001
      vertex -4.420000e+001 -4.474720e+001  9.333553e-001
    endloop
  endfacet
  facet normal  0.000000e+000 -8.819215e-001  4.713962e-001
    outer loop
      vertex -4.420000e+001 -4.474720e+001  9.333553e-001
      vertex  4.420000e+001 -4.488582e+001  6.740252e-001
      vertex  4.420000e+001 -4.474720e+001  9.333553e-001
    endloop
  endfacet
  facet normal  0.000000e+000 -7.730133e-001  6.343898e-001
    outer loop
      vertex -4.420000e+001 -4.474720e+001  9.333553e-001
      vertex  4.420000e+001 -4.474720e+001  9.333553e-001
      vertex -4.420000e+001 -4.456066e+001  1.160660e+000
    endloop
  endfacet
  facet normal  0.000000e+000 -7.730133e-001  6.343898e-001
    outer loop
      vertex -4.420000e+001 -4.456066e+001  1.160660e+000
      vertex  4.420000e+001 -4.474720e+001  9.333553e-001
      vertex  4.420000e+001 -4.456066e+001  1.160660e+000
    endloop
  endfacet
  facet normal  0.000000e+000 -6.343908e-001  7.730125e-001
    outer loop
      vertex -4.420000e+001 -4.456066e+001  1.160660e+000
      vertex  4.420000e+001 -4.456066e+001  1.160660e+000
      vertex -4.420000e+001 -4.433335e+001  1.347204e+000
    endloop
  endfacet
  facet normal  0.000000e+000 -6.343908e-001  7.730125e-001
    outer loop
      vertex -4.420000e+001 -4.433335e+001  1.347204e+000
      vertex  4.420000e+001 -4.456066e+001  1.160660e+000
      vertex  4.420000e+001 -4.433335e+001  1.347204e+000
    endloop
  endfacet
  facet normal  0.000000e+000 -4.713960e-001  8.819216e-001
    outer loop
      vertex -4.420000e+001 -4.433335e+001  1.347204e+000
      vertex  4.420000e+001 -4.433335e+001  1.347204e+000
      vertex -4.420000e+001 -4.407402e+001  1.485819e+000
    endloop
  endfacet
  facet normal  0.000000e+000 -4.713960e-001  8.819216e-001
    outer loop
      vertex -4.420000e+001 -4.407402e+001  1.485819e+000
      vertex  4.420000e+001 -4.433335e+001  1.347204e+000
      vertex  4.420000e+001 -4.407402e+001  1.485819e+000
    endloop
  endfacet
  facet normal  0.000000e+000 -2.902869e-001  9.569396e-001
    outer loop
      vertex -4.420000e+001 -4.407402e+001  1.485819e+000
      vertex  4.420000e+001 -4.407402e+001  1.485819e+000
      vertex -4.420000e+001 -4.379264e+001  1.571178e+000
    endloop
  endfacet
  facet normal  0.000000e+000 -2.902869e-001  9.569396e-001
    outer loop
      vertex -4.420000e+001 -4.379264e+001  1.571178e+000
      vertex  4.420000e+001 -4.407402e+001  1.485819e+000
      vertex  4.420000e+001 -4.379264e+001  1.571178e+000
    endloop
  endfacet
  facet normal  0.000000e+000 -9.801663e-002  9.951848e-001
    outer loop
      vertex -4.420000e+001 -4.379264e+001  1.571178e+000
      vertex  4.420000e+001 -4.379264e+001  1.571178e+000
      vertex -4.420000e+001 -4.350000e+001  1.600000e+000
    endloop
  endfacet
  facet normal  0.000000e+000 -9.801663e-002  9.951848e-001
    outer loop
      vertex -4.420000e+001 -4.350000e+001  1.600000e+000
      vertex  4.420000e+001 -4.379264e+001  1.571178e+000
      vertex  4.420000e+001 -4.350000e+001  1.600000e+000
    endloop
  endfacet
  facet normal  0.000000e+000  0.000000e+000 -9.999999e-001
    outer loop
      vertex -6.150000e+001 -3.750000e+001  0.000000e+000
      vertex -6.150000e+001  3.750000e+001  0.000000e+000
      vertex -5.810000e+001  3.410000e+001  0.000000e+000
    endloop
  endfacet
  facet normal  0.000000e+000  -0.000000e+000 -9.999999e-001
    outer loop
      vertex -6.150000e+001 -3.750000e+001  0.000000e+000
      vertex -5.810000e+001  3.410000e+001  0.000000e+000
      vertex -5.810000e+001 -3.410000e+001  0.000000e+000
    endloop
  endfacet
  facet normal  0.000000e+000  -0.000000e+000 -1.000000e+000
    outer loop
      vertex -6.150000e+001 -3.750000e+001  0.000000e+000
      vertex -5.810000e+001 -3.410000e+001  0.000000e+000
      vertex -4.420000e+001 -3.750000e+001  0.000000e+000
    endloop
  endfacet
  facet normal  0.000000e+000  0.000000e+000 -9.999999e-001
    outer loop
      vertex  4.510000e+001  3.410000e+001  0.000000e+000
      vertex -5.810000e+001  3.410000e+001  0.000000e+000
      vertex -6.150000e+001  3.750000e+001  0.000000e+000
    endloop
  endfacet
  facet normal  0.000000e+000  0.000000e+000 -1.000000e+000
    outer loop
      vertex  4.510000e+001  3.410000e+001  0.000000e+000
      vertex -6.150000e+001  3.750000e+001  0.000000e+000
      vertex  6.150000e+001  3.750000e+001  0.000000e+000
    endloop
  endfacet
  facet normal  0.000000e+000  0.000000e+000 -1.000000e+000
    outer loop
      vertex  4.510000e+001  3.410000e+001  0.000000e+000
      vertex  6.150000e+001  3.750000e+001  0.000000e+000
      vertex  5.354826e+001  2.624063e+001  0.000000e+000
    endloop
  endfacet
  facet normal  0.000000e+000  0.000000e+000 -1.000000e+000
    outer loop
      vertex  4.510000e+001  3.410000e+001  0.000000e+000
      vertex  5.354826e+001  2.624063e+001  0.000000e+000
      vertex  5.295174e+001  2.624063e+001  0.000000e+000
    endloop
  endfacet
  facet normal  -0.000000e+000  0.000000e+000 -9.999999e-001
    outer loop
      vertex  4.510000e+001  3.410000e+001  0.000000e+000
      vertex  5.295174e+001  2.624063e+001  0.000000e+000
      vertex  5.235994e+001  2.616586e+001  0.000000e+000
    endloop
  endfacet
  facet normal  -0.000000e+000  0.000000e+000 -1.000000e+000
    outer loop
      vertex  4.510000e+001  3.410000e+001  0.000000e+000
      vertex  5.235994e+001  2.616586e+001  0.000000e+000
      vertex  5.178217e+001  2.601752e+001  0.000000e+000
    endloop
  endfacet
  facet normal  -0.000000e+000  0.000000e+000 -1.000000e+000
    outer loop
      vertex  4.510000e+001  3.410000e+001  0.000000e+000
      vertex  5.178217e+001  2.601752e+001  0.000000e+000
      vertex  5.122755e+001  2.579793e+001  0.000000e+000
    endloop
  endfacet
  facet normal  -0.000000e+000  0.000000e+000 -1.000000e+000
    outer loop
      vertex  4.510000e+001  3.410000e+001  0.000000e+000
      vertex  5.122755e+001  2.579793e+001  0.000000e+000
      vertex  5.070482e+001  2.551056e+001  0.000000e+000
    endloop
  endfacet
  facet normal  -0.000000e+000  0.000000e+000 -9.999999e-001
    outer loop
      vertex  4.510000e+001  3.410000e+001  0.000000e+000
      vertex  5.070482e+001  2.551056e+001  0.000000e+000
      vertex  5.022224e+001  2.515994e+001  0.000000e+000
    endloop
  endfacet
  facet normal  -0.000000e+000  0.000000e+000 -1.000000e+000
    outer loop
      vertex  4.510000e+001  3.410000e+001  0.000000e+000
      vertex  5.022224e+001  2.515994e+001  0.000000e+000
      vertex  4.978740e+001  2.475160e+001  0.000000e+000
    endloop
  endfacet
  facet normal  -0.000000e+000  0.000000e+000 -1.000000e+000
    outer loop
      vertex  4.510000e+001  3.410000e+001  0.000000e+000
      vertex  4.978740e+001  2.475160e+001  0.000000e+000
      vertex  4.940717e+001  2.429198e+001  0.000000e+000
    endloop
  endfacet
  facet normal  -0.000000e+000  0.000000e+000 -1.000000e+000
    outer loop
      vertex  4.510000e+001  3.410000e+001  0.000000e+000
      vertex  4.940717e+001  2.429198e+001  0.000000e+000
      vertex  4.908754e+001  2.378833e+001  0.000000e+000
    endloop
  endfacet
  facet normal  -0.000000e+000  0.000000e+000 -1.000000e+000
    outer loop
      vertex  4.510000e+001  3.410000e+001  0.000000e+000
      vertex  4.908754e+001  2.378833e+001  0.000000e+000
      vertex  4.883356e+001  2.324859e+001  0.000000e+000
    endloop
  endfacet
  facet normal  -0.000000e+000  0.000000e+000 -1.000000e+000
    outer loop
      vertex  4.510000e+001  3.410000e+001  0.000000e+000
      vertex  4.883356e+001  2.324859e+001  0.000000e+000
      vertex  4.864923e+001  2.268128e+001  0.000000e+000
    endloop
  endfacet
  facet normal  -0.000000e+000  0.000000e+000 -1.000000e+000
    outer loop
      vertex  4.510000e+001  3.410000e+001  0.000000e+000
      vertex  4.864923e+001  2.268128e+001  0.000000e+000
      vertex  4.853746e+001  2.209533e+001  0.000000e+000
    endloop
  endfacet
  facet normal  -0.000000e+000  0.000000e+000 -1.000000e+000
    outer loop
      vertex  4.510000e+001  3.410000e+001  0.000000e+000
      vertex  4.853746e+001  2.209533e+001  0.000000e+000
      vertex  4.850000e+001  2.150000e+001  0.000000e+000
    endloop
  endfacet
  facet normal  -0.000000e+000  -0.000000e+000 -1.000000e+000
    outer loop
      vertex  4.510000e+001  3.410000e+001  0.000000e+000
      vertex  4.850000e+001  2.150000e+001  0.000000e+000
      vertex  4.850000e+001  6.500000e+000  0.000000e+000
    endloop
  endfacet
  facet normal  -0.000000e+000  0.000000e+000 -9.999999e-001
    outer loop
      vertex  4.510000e+001  3.410000e+001  0.000000e+000
      vertex  4.850000e+001  6.500000e+000  0.000000e+000
      vertex  4.510000e+001 -2.750000e+000  0.000000e+000
    endloop
  endfacet
  facet normal  0.000000e+000  -0.000000e+000 -1.000000e+000
    outer loop
      vertex  4.510000e+001 -2.750000e+000  0.000000e+000
      vertex  4.850000e+001  6.500000e+000  0.000000e+000
      vertex  4.853746e+001  5.904667e+000  0.000000e+000
    endloop
  endfacet
  facet normal  0.000000e+000  -0.000000e+000 -1.000000e+000
    outer loop
      vertex  4.510000e+001 -2.750000e+000  0.000000e+000
      vertex  4.853746e+001  5.904667e+000  0.000000e+000
      vertex  4.864923e+001  5.318723e+000  0.000000e+000
    endloop
  endfacet
  facet normal  0.000000e+000  -0.000000e+000 -9.999999e-001
    outer loop
      vertex  4.510000e+001 -2.750000e+000  0.000000e+000
      vertex  4.864923e+001  5.318723e+000  0.000000e+000
      vertex  4.883356e+001  4.751409e+000  0.000000e+000
    endloop
  endfacet
  facet normal  0.000000e+000  -0.000000e+000 -1.000000e+000
    outer loop
      vertex  4.510000e+001 -2.750000e+000  0.000000e+000
      vertex  4.883356e+001  4.751409e+000  0.000000e+000
      vertex  4.908754e+001  4.211670e+000  0.000000e+000
    endloop
  endfacet
  facet normal  0.000000e+000  -0.000000e+000 -1.000000e+000
    outer loop
      vertex  4.510000e+001 -2.750000e+000  0.000000e+000
      vertex  4.908754e+001  4.211670e+000  0.000000e+000
      vertex  4.940717e+001  3.708020e+000  0.000000e+000
    endloop
  endfacet
  facet normal  0.000000e+000  -0.000000e+000 -9.999999e-001
    outer loop
      vertex  4.510000e+001 -2.750000e+000  0.000000e+000
      vertex  4.940717e+001  3.708020e+000  0.000000e+000
      vertex  4.978740e+001  3.248401e+000  0.000000e+000
    endloop
  endfacet
  facet normal  0.000000e+000  -0.000000e+000 -1.000000e+000
    outer loop
      vertex  4.510000e+001 -2.750000e+000  0.000000e+000
      vertex  4.978740e+001  3.248401e+000  0.000000e+000
      vertex  5.022224e+001  2.840062e+000  0.000000e+000
    endloop
  endfacet
  facet normal  0.000000e+000  -0.000000e+000 -1.000000e+000
    outer loop
      vertex  4.510000e+001 -2.750000e+000  0.000000e+000
      vertex  5.022224e+001  2.840062e+000  0.000000e+000
      vertex  5.070482e+001  2.489442e+000  0.000000e+000
    endloop
  endfacet
  facet normal  0.000000e+000  -0.000000e+000 -1.000000e+000
    outer loop
      vertex  4.510000e+001 -2.750000e+000  0.000000e+000
      vertex  5.070482e+001  2.489442e+000  0.000000e+000
      vertex  5.122755e+001  2.202071e+000  0.000000e+000
    endloop
  endfacet
  facet normal  0.000000e+000  -0.000000e+000 -1.000000e+000
    outer loop
      vertex  4.510000e+001 -2.750000e+000  0.000000e+000
      vertex  5.122755e+001  2.202071e+000  0.000000e+000
      vertex  5.178217e+001  1.982482e+000  0.000000e+000
    endloop
  endfacet
  facet normal  0.000000e+000  -0.000000e+000 -1.000000e+000
    outer loop
      vertex  4.510000e+001 -2.750000e+000  0.000000e+000
      vertex  5.178217e+001  1.982482e+000  0.000000e+000
      vertex  5.235994e+001  1.834136e+000  0.000000e+000
    endloop
  endfacet
  facet normal  0.000000e+000  -0.000000e+000 -1.000000e+000
    outer loop
      vertex  4.510000e+001 -2.750000e+000  0.000000e+000
      vertex  5.235994e+001  1.834136e+000  0.000000e+000
      vertex  5.295174e+001  1.759373e+000  0.000000e+000
    endloop
  endfacet
  facet normal  0.000000e+000  -0.000000e+000 -1.000000e+000
    outer loop
      vertex  4.510000e+001 -2.750000e+000  0.000000e+000
      vertex  5.295174e+001  1.759373e+000  0.000000e+000
      vertex  5.354826e+001  1.759373e+000  0.000000e+000
    endloop
  endfacet
  facet normal  0.000000e+000  -0.000000e+000 -9.999999e-001
    outer loop
      vertex  4.510000e+001 -2.750000e+000  0.000000e+000
      vertex  5.354826e+001  1.759373e+000  0.000000e+000
      vertex  5.810000e+001 -2.750000e+000  0.000000e+000
    endloop
  endfacet
  facet normal  0.000000e+000  0.000000e+000 -1.000000e+000
    outer loop
      vertex  5.810000e+001 -2.750000e+000  0.000000e+000
      vertex  5.354826e+001  1.759373e+000  0.000000e+000
      vertex  5.414006e+001  1.834136e+000  0.000000e+000
    endloop
  endfacet
  facet normal  0.000000e+000  0.000000e+000 -1.000000e+000
    outer loop
      vertex  5.810000e+001 -2.750000e+000  0.000000e+000
      vertex  5.414006e+001  1.834136e+000  0.000000e+000
      vertex  5.471783e+001  1.982482e+000  0.000000e+000
    endloop
  endfacet
  facet normal  0.000000e+000  0.000000e+000 -1.000000e+000
    outer loop
      vertex  5.810000e+001 -2.750000e+000  0.000000e+000
      vertex  5.471783e+001  1.982482e+000  0.000000e+000
      vertex  5.527245e+001  2.202071e+000  0.000000e+000
    endloop
  endfacet
  facet normal  0.000000e+000  0.000000e+000 -1.000000e+000
    outer loop
      vertex  5.810000e+001 -2.750000e+000  0.000000e+000
      vertex  5.527245e+001  2.202071e+000  0.000000e+000
      vertex  5.579518e+001  2.489442e+000  0.000000e+000
    endloop
  endfacet
  facet normal  0.000000e+000  0.000000e+000 -9.999999e-001
    outer loop
      vertex  5.810000e+001 -2.750000e+000  0.000000e+000
      vertex  5.579518e+001  2.489442e+000  0.000000e+000
      vertex  5.627776e+001  2.840062e+000  0.000000e+000
    endloop
  endfacet
  facet normal  0.000000e+000  0.000000e+000 -1.000000e+000
    outer loop
      vertex  5.810000e+001 -2.750000e+000  0.000000e+000
      vertex  5.627776e+001  2.840062e+000  0.000000e+000
      vertex  5.671260e+001  3.248401e+000  0.000000e+000
    endloop
  endfacet
  facet normal  0.000000e+000  0.000000e+000 -1.000000e+000
    outer loop
      vertex  5.810000e+001 -2.750000e+000  0.000000e+000
      vertex  5.671260e+001  3.248401e+000  0.000000e+000
      vertex  5.709283e+001  3.708020e+000  0.000000e+000
    endloop
  endfacet
  facet normal  0.000000e+000  0.000000e+000 -1.000000e+000
    outer loop
      vertex  5.810000e+001 -2.750000e+000  0.000000e+000
      vertex  5.709283e+001  3.708020e+000  0.000000e+000
      vertex  5.741246e+001  4.211670e+000  0.000000e+000
    endloop
  endfacet
  facet normal  0.000000e+000  0.000000e+000 -1.000000e+000
    outer loop
      vertex  5.810000e+001 -2.750000e+000  0.000000e+000
      vertex  5.741246e+001  4.211670e+000  0.000000e+000
      vertex  5.766644e+001  4.751409e+000  0.000000e+000
    endloop
  endfacet
  facet normal  0.000000e+000  0.000000e+000 -1.000000e+000
    outer loop
      vertex  5.810000e+001 -2.750000e+000  0.000000e+000
      vertex  5.766644e+001  4.751409e+000  0.000000e+000
      vertex  5.785077e+001  5.318723e+000  0.000000e+000
    endloop
  endfacet
  facet normal  0.000000e+000  0.000000e+000 -1.000000e+000
    outer loop
      vertex  5.810000e+001 -2.750000e+000  0.000000e+000
      vertex  5.785077e+001  5.318723e+000  0.000000e+000
      vertex  5.796254e+001  5.904667e+000  0.000000e+000
    endloop
  endfacet
  facet normal  0.000000e+000  0.000000e+000 -1.000000e+000
    outer loop
      vertex  5.810000e+001 -2.750000e+000  0.000000e+000
      vertex  5.796254e+001  5.904667e+000  0.000000e+000
      vertex  5.800000e+001  6.500000e+000  0.000000e+000
    endloop
  endfacet
  facet normal  0.000000e+000  0.000000e+000 -9.999999e-001
    outer loop
      vertex  5.810000e+001 -2.750000e+000  0.000000e+000
      vertex  5.800000e+001  6.500000e+000  0.000000e+000
      vertex  5.800000e+001  2.150000e+001  0.000000e+000
    endloop
  endfacet
  facet normal  0.000000e+000  0.000000e+000 -9.999999e-001
    outer loop
      vertex  6.150000e+001  3.750000e+001  0.000000e+000
      vertex  6.150000e+001 -3.750000e+001  0.000000e+000
      vertex  5.810000e+001 -3.410000e+001  0.000000e+000
    endloop
  endfacet
  facet normal  0.000000e+000  0.000000e+000 -1.000000e+000
    outer loop
      vertex  6.150000e+001  3.750000e+001  0.000000e+000
      vertex  5.810000e+001 -3.410000e+001  0.000000e+000
      vertex  5.810000e+001 -2.750000e+000  0.000000e+000
    endloop
  endfacet
  facet normal  0.000000e+000  0.000000e+000 -9.999999e-001
    outer loop
      vertex  6.150000e+001  3.750000e+001  0.000000e+000
      vertex  5.810000e+001 -2.750000e+000  0.000000e+000
      vertex  5.800000e+001  2.150000e+001  0.000000e+000
    endloop
  endfacet
  facet normal  0.000000e+000  0.000000e+000 -9.999999e-001
    outer loop
      vertex  6.150000e+001  3.750000e+001  0.000000e+000
      vertex  5.800000e+001  2.150000e+001  0.000000e+000
      vertex  5.796254e+001  2.209533e+001  0.000000e+000
    endloop
  endfacet
  facet normal  0.000000e+000  0.000000e+000 -9.999999e-001
    outer loop
      vertex  6.150000e+001  3.750000e+001  0.000000e+000
      vertex  5.796254e+001  2.209533e+001  0.000000e+000
      vertex  5.785077e+001  2.268128e+001  0.000000e+000
    endloop
  endfacet
  facet normal  0.000000e+000  0.000000e+000 -1.000000e+000
    outer loop
      vertex  6.150000e+001  3.750000e+001  0.000000e+000
      vertex  5.785077e+001  2.268128e+001  0.000000e+000
      vertex  5.766644e+001  2.324859e+001  0.000000e+000
    endloop
  endfacet
  facet normal  0.000000e+000  0.000000e+000 -1.000000e+000
    outer loop
      vertex  6.150000e+001  3.750000e+001  0.000000e+000
      vertex  5.766644e+001  2.324859e+001  0.000000e+000
      vertex  5.741246e+001  2.378833e+001  0.000000e+000
    endloop
  endfacet
  facet normal  0.000000e+000  0.000000e+000 -1.000000e+000
    outer loop
      vertex  6.150000e+001  3.750000e+001  0.000000e+000
      vertex  5.741246e+001  2.378833e+001  0.000000e+000
      vertex  5.709283e+001  2.429198e+001  0.000000e+000
    endloop
  endfacet
  facet normal  0.000000e+000  0.000000e+000 -1.000000e+000
    outer loop
      vertex  6.150000e+001  3.750000e+001  0.000000e+000
      vertex  5.709283e+001  2.429198e+001  0.000000e+000
      vertex  5.671260e+001  2.475160e+001  0.000000e+000
    endloop
  endfacet
  facet normal  0.000000e+000  0.000000e+000 -1.000000e+000
    outer loop
      vertex  6.150000e+001  3.750000e+001  0.000000e+000
      vertex  5.671260e+001  2.475160e+001  0.000000e+000
      vertex  5.627776e+001  2.515994e+001  0.000000e+000
    endloop
  endfacet
  facet normal  0.000000e+000  0.000000e+000 -1.000000e+000
    outer loop
      vertex  6.150000e+001  3.750000e+001  0.000000e+000
      vertex  5.627776e+001  2.515994e+001  0.000000e+000
      vertex  5.579518e+001  2.551056e+001  0.000000e+000
    endloop
  endfacet
  facet normal  0.000000e+000  0.000000e+000 -1.000000e+000
    outer loop
      vertex  6.150000e+001  3.750000e+001  0.000000e+000
      vertex  5.579518e+001  2.551056e+001  0.000000e+000
      vertex  5.527245e+001  2.579793e+001  0.000000e+000
    endloop
  endfacet
  facet normal  0.000000e+000  0.000000e+000 -1.000000e+000
    outer loop
      vertex  6.150000e+001  3.750000e+001  0.000000e+000
      vertex  5.527245e+001  2.579793e+001  0.000000e+000
      vertex  5.471783e+001  2.601752e+001  0.000000e+000
    endloop
  endfacet
  facet normal  0.000000e+000  0.000000e+000 -1.000000e+000
    outer loop
      vertex  6.150000e+001  3.750000e+001  0.000000e+000
      vertex  5.471783e+001  2.601752e+001  0.000000e+000
      vertex  5.414006e+001  2.616586e+001  0.000000e+000
    endloop
  endfacet
  facet normal  0.000000e+000  0.000000e+000 -1.000000e+000
    outer loop
      vertex  6.150000e+001  3.750000e+001  0.000000e+000
      vertex  5.414006e+001  2.616586e+001  0.000000e+000
      vertex  5.354826e+001  2.624063e+001  0.000000e+000
    endloop
  endfacet
  facet normal  0.000000e+000  0.000000e+000 -1.000000e+000
    outer loop
      vertex -4.420000e+001 -3.750000e+001  0.000000e+000
      vertex -5.810000e+001 -3.410000e+001  0.000000e+000
      vertex  4.420000e+001 -3.750000e+001  0.000000e+000
    endloop
  endfacet
  facet normal  0.000000e+000  0.000000e+000 -1.000000e+000
    outer loop
      vertex  4.420000e+001 -3.750000e+001  0.000000e+000
      vertex -5.810000e+001 -3.410000e+001  0.000000e+000
      vertex  5.810000e+001 -3.410000e+001  0.000000e+000
    endloop
  endfacet
  facet normal  0.000000e+000  -0.000000e+000 -1.000000e+000
    outer loop
      vertex  4.420000e+001 -3.750000e+001  0.000000e+000
      vertex  5.810000e+001 -3.410000e+001  0.000000e+000
      vertex  6.150000e+001 -3.750000e+001  0.000000e+000
    endloop
  endfacet
  facet normal  0.000000e+000  0.000000e+000 -1.000000e+000
    outer loop
      vertex -4.420000e+001 -4.500000e+001  0.000000e+000
      vertex -4.420000e+001 -3.750000e+001  0.000000e+000
      vertex  4.420000e+001 -4.500000e+001  0.000000e+000
    endloop
  endfacet
  facet normal  0.000000e+000  0.000000e+000 -1.000000e+000
    outer loop
      vertex  4.420000e+001 -4.500000e+001  0.000000e+000
      vertex -4.420000e+001 -3.750000e+001  0.000000e+000
      vertex  4.420000e+001 -3.750000e+001  0.000000e+000
    endloop
  endfacet
  facet normal  0.000000e+000  0.000000e+000  1.000000e+000
    outer loop
      vertex  4.420000e+001 -3.600000e+001  1.000000e+000
      vertex  4.420000e+001 -3.750000e+001  1.000000e+000
      vertex  6.150000e+001 -3.750000e+001  1.000000e+000
    endloop
  endfacet
  facet normal  0.000000e+000  0.000000e+000  1.000000e+000
    outer loop
      vertex  4.420000e+001 -3.600000e+001  1.000000e+000
      vertex  6.150000e+001 -3.750000e+001  1.000000e+000
      vertex  5.810000e+001 -3.410000e+001  1.000000e+000
    endloop
  endfacet
  facet normal  0.000000e+000  0.000000e+000  1.000000e+000
    outer loop
      vertex  4.420000e+001 -3.600000e+001  1.000000e+000
      vertex  5.810000e+001 -3.410000e+001  1.000000e+000
      vertex -5.810000e+001 -3.410000e+001  1.000000e+000
    endloop
  endfacet
  facet normal  0.000000e+000  0.000000e+000  1.000000e+000
    outer loop
      vertex  4.420000e+001 -3.600000e+001  1.000000e+000
      vertex -5.810000e+001 -3.410000e+001  1.000000e+000
      vertex -4.420000e+001 -3.600000e+001  1.000000e+000
    endloop
  endfacet
  facet normal  0.000000e+000  -0.000000e+000  1.000000e+000
    outer loop
      vertex -6.150000e+001 -3.750000e+001  1.000000e+000
      vertex -4.420000e+001 -3.750000e+001  1.000000e+000
      vertex -4.420000e+001 -3.600000e+001  1.000000e+000
    endloop
  endfacet
  facet normal  0.000000e+000  0.000000e+000  1.000000e+000
    outer loop
      vertex -6.150000e+001 -3.750000e+001  1.000000e+000
      vertex -4.420000e+001 -3.600000e+001  1.000000e+000
      vertex -5.810000e+001 -3.410000e+001  1.000000e+000
    endloop
  endfacet
  facet normal  0.000000e+000  -0.000000e+000  9.999999e-001
    outer loop
      vertex -6.150000e+001 -3.750000e+001  1.000000e+000
      vertex -5.810000e+001 -3.410000e+001  1.000000e+000
      vertex -5.810000e+001  3.410000e+001  1.000000e+000
    endloop
  endfacet
  facet normal  0.000000e+000  0.000000e+000  9.999999e-001
    outer loop
      vertex -6.150000e+001  3.750000e+001  1.000000e+000
      vertex -6.150000e+001 -3.750000e+001  1.000000e+000
      vertex -5.810000e+001  3.410000e+001  1.000000e+000
    endloop
  endfacet
  facet normal  0.000000e+000  -0.000000e+000  9.999999e-001
    outer loop
      vertex -6.150000e+001  3.750000e+001  1.000000e+000
      vertex -5.810000e+001  3.410000e+001  1.000000e+000
      vertex  4.510000e+001  3.410000e+001  1.000000e+000
    endloop
  endfacet
  facet normal  0.000000e+000  -0.000000e+000  1.000000e+000
    outer loop
      vertex -6.150000e+001  3.750000e+001  1.000000e+000
      vertex  4.510000e+001  3.410000e+001  1.000000e+000
      vertex  6.150000e+001  3.750000e+001  1.000000e+000
    endloop
  endfacet
  facet normal  0.000000e+000  0.000000e+000  9.999999e-001
    outer loop
      vertex  4.510000e+001 -2.750000e+000  1.000000e+000
      vertex  5.810000e+001 -2.750000e+000  1.000000e+000
      vertex  5.354826e+001  1.759373e+000  1.000000e+000
    endloop
  endfacet
  facet normal  0.000000e+000  0.000000e+000  1.000000e+000
    outer loop
      vertex  4.510000e+001 -2.750000e+000  1.000000e+000
      vertex  5.354826e+001  1.759373e+000  1.000000e+000
      vertex  5.295174e+001  1.759373e+000  1.000000e+000
    endloop
  endfacet
  facet normal  0.000000e+000  0.000000e+000  1.000000e+000
    outer loop
      vertex  4.510000e+001 -2.750000e+000  1.000000e+000
      vertex  5.295174e+001  1.759373e+000  1.000000e+000
      vertex  5.235994e+001  1.834136e+000  1.000000e+000
    endloop
  endfacet
  facet normal  0.000000e+000  0.000000e+000  1.000000e+000
    outer loop
      vertex  4.510000e+001 -2.750000e+000  1.000000e+000
      vertex  5.235994e+001  1.834136e+000  1.000000e+000
      vertex  5.178217e+001  1.982482e+000  1.000000e+000
    endloop
  endfacet
  facet normal  0.000000e+000  0.000000e+000  1.000000e+000
    outer loop
      vertex  4.510000e+001 -2.750000e+000  1.000000e+000
      vertex  5.178217e+001  1.982482e+000  1.000000e+000
      vertex  5.122755e+001  2.202071e+000  1.000000e+000
    endloop
  endfacet
  facet normal  0.000000e+000  0.000000e+000  1.000000e+000
    outer loop
      vertex  4.510000e+001 -2.750000e+000  1.000000e+000
      vertex  5.122755e+001  2.202071e+000  1.000000e+000
      vertex  5.070482e+001  2.489442e+000  1.000000e+000
    endloop
  endfacet
  facet normal  0.000000e+000  0.000000e+000  1.000000e+000
    outer loop
      vertex  4.510000e+001 -2.750000e+000  1.000000e+000
      vertex  5.070482e+001  2.489442e+000  1.000000e+000
      vertex  5.022224e+001  2.840062e+000  1.000000e+000
    endloop
  endfacet
  facet normal  0.000000e+000  0.000000e+000  1.000000e+000
    outer loop
      vertex  4.510000e+001 -2.750000e+000  1.000000e+000
      vertex  5.022224e+001  2.840062e+000  1.000000e+000
      vertex  4.978740e+001  3.248401e+000  1.000000e+000
    endloop
  endfacet
  facet normal  0.000000e+000  0.000000e+000  9.999999e-001
    outer loop
      vertex  4.510000e+001 -2.750000e+000  1.000000e+000
      vertex  4.978740e+001  3.248401e+000  1.000000e+000
      vertex  4.940717e+001  3.708020e+000  1.000000e+000
    endloop
  endfacet
  facet normal  0.000000e+000  0.000000e+000  1.000000e+000
    outer loop
      vertex  4.510000e+001 -2.750000e+000  1.000000e+000
      vertex  4.940717e+001  3.708020e+000  1.000000e+000
      vertex  4.908754e+001  4.211670e+000  1.000000e+000
    endloop
  endfacet
  facet normal  0.000000e+000  0.000000e+000  1.000000e+000
    outer loop
      vertex  4.510000e+001 -2.750000e+000  1.000000e+000
      vertex  4.908754e+001  4.211670e+000  1.000000e+000
      vertex  4.883356e+001  4.751409e+000  1.000000e+000
    endloop
  endfacet
  facet normal  0.000000e+000  0.000000e+000  9.999999e-001
    outer loop
      vertex  4.510000e+001 -2.750000e+000  1.000000e+000
      vertex  4.883356e+001  4.751409e+000  1.000000e+000
      vertex  4.864923e+001  5.318723e+000  1.000000e+000
    endloop
  endfacet
  facet normal  0.000000e+000  0.000000e+000  1.000000e+000
    outer loop
      vertex  4.510000e+001 -2.750000e+000  1.000000e+000
      vertex  4.864923e+001  5.318723e+000  1.000000e+000
      vertex  4.853746e+001  5.904667e+000  1.000000e+000
    endloop
  endfacet
  facet normal  0.000000e+000  0.000000e+000  1.000000e+000
    outer loop
      vertex  4.510000e+001 -2.750000e+000  1.000000e+000
      vertex  4.853746e+001  5.904667e+000  1.000000e+000
      vertex  4.850000e+001  6.500000e+000  1.000000e+000
    endloop
  endfacet
  facet normal  0.000000e+000  -0.000000e+000  1.000000e+000
    outer loop
      vertex  4.510000e+001 -2.750000e+000  1.000000e+000
      vertex  4.850000e+001  6.500000e+000  1.000000e+000
      vertex  4.850000e+001  2.150000e+001  1.000000e+000
    endloop
  endfacet
  facet normal  0.000000e+000  -0.000000e+000  1.000000e+000
    outer loop
      vertex  4.510000e+001 -2.750000e+000  1.000000e+000
      vertex  4.850000e+001  2.150000e+001  1.000000e+000
      vertex  4.853746e+001  2.209533e+001  1.000000e+000
    endloop
  endfacet
  facet normal  0.000000e+000  0.000000e+000  1.000000e+000
    outer loop
      vertex  4.510000e+001  3.410000e+001  1.000000e+000
      vertex  4.510000e+001 -2.750000e+000  1.000000e+000
      vertex  4.853746e+001  2.209533e+001  1.000000e+000
    endloop
  endfacet
  facet normal  0.000000e+000  -0.000000e+000  1.000000e+000
    outer loop
      vertex  4.510000e+001  3.410000e+001  1.000000e+000
      vertex  4.853746e+001  2.209533e+001  1.000000e+000
      vertex  4.864923e+001  2.268128e+001  1.000000e+000
    endloop
  endfacet
  facet normal  0.000000e+000  -0.000000e+000  1.000000e+000
    outer loop
      vertex  4.510000e+001  3.410000e+001  1.000000e+000
      vertex  4.864923e+001  2.268128e+001  1.000000e+000
      vertex  4.883356e+001  2.324859e+001  1.000000e+000
    endloop
  endfacet
  facet normal  0.000000e+000  -0.000000e+000  1.000000e+000
    outer loop
      vertex  4.510000e+001  3.410000e+001  1.000000e+000
      vertex  4.883356e+001  2.324859e+001  1.000000e+000
      vertex  4.908754e+001  2.378833e+001  1.000000e+000
    endloop
  endfacet
  facet normal  0.000000e+000  -0.000000e+000  1.000000e+000
    outer loop
      vertex  4.510000e+001  3.410000e+001  1.000000e+000
      vertex  4.908754e+001  2.378833e+001  1.000000e+000
      vertex  4.940717e+001  2.429198e+001  1.000000e+000
    endloop
  endfacet
  facet normal  0.000000e+000  -0.000000e+000  1.000000e+000
    outer loop
      vertex  4.510000e+001  3.410000e+001  1.000000e+000
      vertex  4.940717e+001  2.429198e+001  1.000000e+000
      vertex  4.978740e+001  2.475160e+001  1.000000e+000
    endloop
  endfacet
  facet normal  0.000000e+000  -0.000000e+000  1.000000e+000
    outer loop
      vertex  4.510000e+001  3.410000e+001  1.000000e+000
      vertex  4.978740e+001  2.475160e+001  1.000000e+000
      vertex  5.022224e+001  2.515994e+001  1.000000e+000
    endloop
  endfacet
  facet normal  0.000000e+000  -0.000000e+000  9.999999e-001
    outer loop
      vertex  4.510000e+001  3.410000e+001  1.000000e+000
      vertex  5.022224e+001  2.515994e+001  1.000000e+000
      vertex  5.070482e+001  2.551056e+001  1.000000e+000
    endloop
  endfacet
  facet normal  0.000000e+000  -0.000000e+000  1.000000e+000
    outer loop
      vertex  4.510000e+001  3.410000e+001  1.000000e+000
      vertex  5.070482e+001  2.551056e+001  1.000000e+000
      vertex  5.122755e+001  2.579793e+001  1.000000e+000
    endloop
  endfacet
  facet normal  0.000000e+000  -0.000000e+000  1.000000e+000
    outer loop
      vertex  4.510000e+001  3.410000e+001  1.000000e+000
      vertex  5.122755e+001  2.579793e+001  1.000000e+000
      vertex  5.178217e+001  2.601752e+001  1.000000e+000
    endloop
  endfacet
  facet normal  0.000000e+000  -0.000000e+000  1.000000e+000
    outer loop
      vertex  4.510000e+001  3.410000e+001  1.000000e+000
      vertex  5.178217e+001  2.601752e+001  1.000000e+000
      vertex  5.235994e+001  2.616586e+001  1.000000e+000
    endloop
  endfacet
  facet normal  0.000000e+000  -0.000000e+000  9.999999e-001
    outer loop
      vertex  4.510000e+001  3.410000e+001  1.000000e+000
      vertex  5.235994e+001  2.616586e+001  1.000000e+000
      vertex  5.295174e+001  2.624063e+001  1.000000e+000
    endloop
  endfacet
  facet normal  0.000000e+000  -0.000000e+000  1.000000e+000
    outer loop
      vertex  4.510000e+001  3.410000e+001  1.000000e+000
      vertex  5.295174e+001  2.624063e+001  1.000000e+000
      vertex  5.354826e+001  2.624063e+001  1.000000e+000
    endloop
  endfacet
  facet normal  0.000000e+000  -0.000000e+000  1.000000e+000
    outer loop
      vertex  4.510000e+001  3.410000e+001  1.000000e+000
      vertex  5.354826e+001  2.624063e+001  1.000000e+000
      vertex  6.150000e+001  3.750000e+001  1.000000e+000
    endloop
  endfacet
  facet normal  0.000000e+000  0.000000e+000  9.999999e-001
    outer loop
      vertex  5.810000e+001 -2.750000e+000  1.000000e+000
      vertex  5.800000e+001  2.150000e+001  1.000000e+000
      vertex  5.800000e+001  6.500000e+000  1.000000e+000
    endloop
  endfacet
  facet normal  0.000000e+000  0.000000e+000  1.000000e+000
    outer loop
      vertex  5.810000e+001 -2.750000e+000  1.000000e+000
      vertex  5.800000e+001  6.500000e+000  1.000000e+000
      vertex  5.796254e+001  5.904667e+000  1.000000e+000
    endloop
  endfacet
  facet normal  0.000000e+000  0.000000e+000  1.000000e+000
    outer loop
      vertex  5.810000e+001 -2.750000e+000  1.000000e+000
      vertex  5.796254e+001  5.904667e+000  1.000000e+000
      vertex  5.785077e+001  5.318723e+000  1.000000e+000
    endloop
  endfacet
  facet normal  0.000000e+000  0.000000e+000  1.000000e+000
    outer loop
      vertex  5.810000e+001 -2.750000e+000  1.000000e+000
      vertex  5.785077e+001  5.318723e+000  1.000000e+000
      vertex  5.766644e+001  4.751409e+000  1.000000e+000
    endloop
  endfacet
  facet normal  0.000000e+000  0.000000e+000  1.000000e+000
    outer loop
      vertex  5.810000e+001 -2.750000e+000  1.000000e+000
      vertex  5.766644e+001  4.751409e+000  1.000000e+000
      vertex  5.741246e+001  4.211670e+000  1.000000e+000
    endloop
  endfacet
  facet normal  0.000000e+000  0.000000e+000  1.000000e+000
    outer loop
      vertex  5.810000e+001 -2.750000e+000  1.000000e+000
      vertex  5.741246e+001  4.211670e+000  1.000000e+000
      vertex  5.709283e+001  3.708020e+000  1.000000e+000
    endloop
  endfacet
  facet normal  0.000000e+000  0.000000e+000  9.999999e-001
    outer loop
      vertex  5.810000e+001 -2.750000e+000  1.000000e+000
      vertex  5.709283e+001  3.708020e+000  1.000000e+000
      vertex  5.671260e+001  3.248401e+000  1.000000e+000
    endloop
  endfacet
  facet normal  0.000000e+000  0.000000e+000  1.000000e+000
    outer loop
      vertex  5.810000e+001 -2.750000e+000  1.000000e+000
      vertex  5.671260e+001  3.248401e+000  1.000000e+000
      vertex  5.627776e+001  2.840062e+000  1.000000e+000
    endloop
  endfacet
  facet normal  0.000000e+000  0.000000e+000  9.999999e-001
    outer loop
      vertex  5.810000e+001 -2.750000e+000  1.000000e+000
      vertex  5.627776e+001  2.840062e+000  1.000000e+000
      vertex  5.579518e+001  2.489442e+000  1.000000e+000
    endloop
  endfacet
  facet normal  0.000000e+000  0.000000e+000  1.000000e+000
    outer loop
      vertex  5.810000e+001 -2.750000e+000  1.000000e+000
      vertex  5.579518e+001  2.489442e+000  1.000000e+000
      vertex  5.527245e+001  2.202071e+000  1.000000e+000
    endloop
  endfacet
  facet normal  0.000000e+000  0.000000e+000  1.000000e+000
    outer loop
      vertex  5.810000e+001 -2.750000e+000  1.000000e+000
      vertex  5.527245e+001  2.202071e+000  1.000000e+000
      vertex  5.471783e+001  1.982482e+000  1.000000e+000
    endloop
  endfacet
  facet normal  0.000000e+000  0.000000e+000  1.000000e+000
    outer loop
      vertex  5.810000e+001 -2.750000e+000  1.000000e+000
      vertex  5.471783e+001  1.982482e+000  1.000000e+000
      vertex  5.414006e+001  1.834136e+000  1.000000e+000
    endloop
  endfacet
  facet normal  0.000000e+000  0.000000e+000  1.000000e+000
    outer loop
      vertex  5.810000e+001 -2.750000e+000  1.000000e+000
      vertex  5.414006e+001  1.834136e+000  1.000000e+000
      vertex  5.354826e+001  1.759373e+000  1.000000e+000
    endloop
  endfacet
  facet normal  -0.000000e+000  0.000000e+000  1.000000e+000
    outer loop
      vertex  6.150000e+001  3.750000e+001  1.000000e+000
      vertex  5.354826e+001  2.624063e+001  1.000000e+000
      vertex  5.414006e+001  2.616586e+001  1.000000e+000
    endloop
  endfacet
  facet normal  -0.000000e+000  0.000000e+000  1.000000e+000
    outer loop
      vertex  6.150000e+001  3.750000e+001  1.000000e+000
      vertex  5.414006e+001  2.616586e+001  1.000000e+000
      vertex  5.471783e+001  2.601752e+001  1.000000e+000
    endloop
  endfacet
  facet normal  -0.000000e+000  0.000000e+000  1.000000e+000
    outer loop
      vertex  6.150000e+001  3.750000e+001  1.000000e+000
      vertex  5.471783e+001  2.601752e+001  1.000000e+000
      vertex  5.527245e+001  2.579793e+001  1.000000e+000
    endloop
  endfacet
  facet normal  -0.000000e+000  0.000000e+000  1.000000e+000
    outer loop
      vertex  6.150000e+001  3.750000e+001  1.000000e+000
      vertex  5.527245e+001  2.579793e+001  1.000000e+000
      vertex  5.579518e+001  2.551056e+001  1.000000e+000
    endloop
  endfacet
  facet normal  -0.000000e+000  0.000000e+000  1.000000e+000
    outer loop
      vertex  6.150000e+001  3.750000e+001  1.000000e+000
      vertex  5.579518e+001  2.551056e+001  1.000000e+000
      vertex  5.627776e+001  2.515994e+001  1.000000e+000
    endloop
  endfacet
  facet normal  -0.000000e+000  0.000000e+000  1.000000e+000
    outer loop
      vertex  6.150000e+001  3.750000e+001  1.000000e+000
      vertex  5.627776e+001  2.515994e+001  1.000000e+000
      vertex  5.671260e+001  2.475160e+001  1.000000e+000
    endloop
  endfacet
  facet normal  -0.000000e+000  0.000000e+000  1.000000e+000
    outer loop
      vertex  6.150000e+001  3.750000e+001  1.000000e+000
      vertex  5.671260e+001  2.475160e+001  1.000000e+000
      vertex  5.709283e+001  2.429198e+001  1.000000e+000
    endloop
  endfacet
  facet normal  -0.000000e+000  0.000000e+000  1.000000e+000
    outer loop
      vertex  6.150000e+001  3.750000e+001  1.000000e+000
      vertex  5.709283e+001  2.429198e+001  1.000000e+000
      vertex  5.741246e+001  2.378833e+001  1.000000e+000
    endloop
  endfacet
  facet normal  -0.000000e+000  0.000000e+000  1.000000e+000
    outer loop
      vertex  6.150000e+001  3.750000e+001  1.000000e+000
      vertex  5.741246e+001  2.378833e+001  1.000000e+000
      vertex  5.766644e+001  2.324859e+001  1.000000e+000
    endloop
  endfacet
  facet normal  -0.000000e+000  0.000000e+000  1.000000e+000
    outer loop
      vertex  6.150000e+001  3.750000e+001  1.000000e+000
      vertex  5.766644e+001  2.324859e+001  1.000000e+000
      vertex  5.785077e+001  2.268128e+001  1.000000e+000
    endloop
  endfacet
  facet normal  -0.000000e+000  0.000000e+000  9.999999e-001
    outer loop
      vertex  6.150000e+001  3.750000e+001  1.000000e+000
      vertex  5.785077e+001  2.268128e+001  1.000000e+000
      vertex  5.796254e+001  2.209533e+001  1.000000e+000
    endloop
  endfacet
  facet normal  -0.000000e+000  0.000000e+000  9.999999e-001
    outer loop
      vertex  6.150000e+001  3.750000e+001  1.000000e+000
      vertex  5.796254e+001  2.209533e+001  1.000000e+000
      vertex  5.800000e+001  2.150000e+001  1.000000e+000
    endloop
  endfacet
  facet normal  -0.000000e+000  0.000000e+000  9.999999e-001
    outer loop
      vertex  6.150000e+001  3.750000e+001  1.000000e+000
      vertex  5.800000e+001  2.150000e+001  1.000000e+000
      vertex  5.810000e+001 -2.750000e+000  1.000000e+000
    endloop
  endfacet
  facet normal  -0.000000e+000  0.000000e+000  1.000000e+000
    outer loop
      vertex  6.150000e+001  3.750000e+001  1.000000e+000
      vertex  5.810000e+001 -2.750000e+000  1.000000e+000
      vertex  5.810000e+001 -3.410000e+001  1.000000e+000
    endloop
  endfacet
  facet normal  -0.000000e+000  0.000000e+000  9.999999e-001
    outer loop
      vertex  6.150000e+001  3.750000e+001  1.000000e+000
      vertex  5.810000e+001 -3.410000e+001  1.000000e+000
      vertex  6.150000e+001 -3.750000e+001  1.000000e+000
    endloop
  endfacet
  facet normal  0.000000e+000 -1.000000e+000  0.000000e+000
    outer loop
      vertex -4.420000e+001 -3.750000e+001  1.000000e+000
      vertex -6.150000e+001 -3.750000e+001  1.000000e+000
      vertex -4.420000e+001 -3.750000e+001  0.000000e+000
    endloop
  endfacet
  facet normal  0.000000e+000 -1.000000e+000  0.000000e+000
    outer loop
      vertex -4.420000e+001 -3.750000e+001  0.000000e+000
      vertex -6.150000e+001 -3.750000e+001  1.000000e+000
      vertex -6.150000e+001 -3.750000e+001  0.000000e+000
    endloop
  endfacet
  facet normal  0.000000e+000 -1.000000e+000  0.000000e+000
    outer loop
      vertex  6.150000e+001 -3.750000e+001  1.000000e+000
      vertex  4.420000e+001 -3.750000e+001  1.000000e+000
      vertex  6.150000e+001 -3.750000e+001  0.000000e+000
    endloop
  endfacet
  facet normal  0.000000e+000 -1.000000e+000  0.000000e+000
    outer loop
      vertex  6.150000e+001 -3.750000e+001  0.000000e+000
      vertex  4.420000e+001 -3.750000e+001  1.000000e+000
      vertex  4.420000e+001 -3.750000e+001  0.000000e+000
    endloop
  endfacet
  facet normal -1.253335e-001  9.921147e-001  0.000000e+000
    outer loop
      vertex  5.354826e+001  1.759373e+000  0.000000e+000
      vertex  5.414006e+001  1.834136e+000  1.000000e+000
      vertex  5.414006e+001  1.834136e+000  0.000000e+000
    endloop
  endfacet
  facet normal -2.486897e-001  9.685832e-001  0.000000e+000
    outer loop
      vertex  5.414006e+001  1.834136e+000  0.000000e+000
      vertex  5.414006e+001  1.834136e+000  1.000000e+000
      vertex  5.471783e+001  1.982482e+000  1.000000e+000
    endloop
  endfacet
  facet normal -2.486897e-001  9.685832e-001  0.000000e+000
    outer loop
      vertex  5.414006e+001  1.834136e+000  0.000000e+000
      vertex  5.471783e+001  1.982482e+000  1.000000e+000
      vertex  5.471783e+001  1.982482e+000  0.000000e+000
    endloop
  endfacet
  facet normal -3.681234e-001  9.297769e-001  0.000000e+000
    outer loop
      vertex  5.471783e+001  1.982482e+000  0.000000e+000
      vertex  5.471783e+001  1.982482e+000  1.000000e+000
      vertex  5.527245e+001  2.202071e+000  1.000000e+000
    endloop
  endfacet
  facet normal -3.681234e-001  9.297769e-001  0.000000e+000
    outer loop
      vertex  5.471783e+001  1.982482e+000  0.000000e+000
      vertex  5.527245e+001  2.202071e+000  1.000000e+000
      vertex  5.527245e+001  2.202071e+000  0.000000e+000
    endloop
  endfacet
  facet normal -4.817548e-001  8.763060e-001  0.000000e+000
    outer loop
      vertex  5.527245e+001  2.202071e+000  0.000000e+000
      vertex  5.527245e+001  2.202071e+000  1.000000e+000
      vertex  5.579518e+001  2.489442e+000  1.000000e+000
    endloop
  endfacet
  facet normal -4.817548e-001  8.763060e-001  0.000000e+000
    outer loop
      vertex  5.527245e+001  2.202071e+000  0.000000e+000
      vertex  5.579518e+001  2.489442e+000  1.000000e+000
      vertex  5.579518e+001  2.489442e+000  0.000000e+000
    endloop
  endfacet
  facet normal -5.877860e-001  8.090165e-001  0.000000e+000
    outer loop
      vertex  5.579518e+001  2.489442e+000  0.000000e+000
      vertex  5.579518e+001  2.489442e+000  1.000000e+000
      vertex  5.627776e+001  2.840062e+000  1.000000e+000
    endloop
  endfacet
  facet normal -5.877860e-001  8.090165e-001  0.000000e+000
    outer loop
      vertex  5.579518e+001  2.489442e+000  0.000000e+000
      vertex  5.627776e+001  2.840062e+000  1.000000e+000
      vertex  5.627776e+001  2.840062e+000  0.000000e+000
    endloop
  endfacet
  facet normal -6.845468e-001  7.289690e-001  0.000000e+000
    outer loop
      vertex  5.627776e+001  2.840062e+000  0.000000e+000
      vertex  5.627776e+001  2.840062e+000  1.000000e+000
      vertex  5.671260e+001  3.248401e+000  1.000000e+000
    endloop
  endfacet
  facet normal -6.845468e-001  7.289690e-001  0.000000e+000
    outer loop
      vertex  5.627776e+001  2.840062e+000  0.000000e+000
      vertex  5.671260e+001  3.248401e+000  1.000000e+000
      vertex  5.671260e+001  3.248401e+000  0.000000e+000
    endloop
  endfacet
  facet normal -7.705131e-001  6.374242e-001  0.000000e+000
    outer loop
      vertex  5.671260e+001  3.248401e+000  0.000000e+000
      vertex  5.671260e+001  3.248401e+000  1.000000e+000
      vertex  5.709283e+001  3.708020e+000  1.000000e+000
    endloop
  endfacet
  facet normal -7.705131e-001  6.374242e-001  0.000000e+000
    outer loop
      vertex  5.671260e+001  3.248401e+000  0.000000e+000
      vertex  5.709283e+001  3.708020e+000  1.000000e+000
      vertex  5.709283e+001  3.708020e+000  0.000000e+000
    endloop
  endfacet
  facet normal -8.443280e-001  5.358266e-001  0.000000e+000
    outer loop
      vertex  5.709283e+001  3.708020e+000  0.000000e+000
      vertex  5.709283e+001  3.708020e+000  1.000000e+000
      vertex  5.741246e+001  4.211670e+000  1.000000e+000
    endloop
  endfacet
  facet normal -8.443280e-001  5.358266e-001  0.000000e+000
    outer loop
      vertex  5.709283e+001  3.708020e+000  0.000000e+000
      vertex  5.741246e+001  4.211670e+000  1.000000e+000
      vertex  5.741246e+001  4.211670e+000  0.000000e+000
    endloop
  endfacet
  facet normal -9.048265e-001  4.257804e-001  0.000000e+000
    outer loop
      vertex  5.741246e+001  4.211670e+000  0.000000e+000
      vertex  5.741246e+001  4.211670e+000  1.000000e+000
      vertex  5.766644e+001  4.751409e+000  1.000000e+000
    endloop
  endfacet
  facet normal -9.048265e-001  4.257804e-001  0.000000e+000
    outer loop
      vertex  5.741246e+001  4.211670e+000  0.000000e+000
      vertex  5.766644e+001  4.751409e+000  1.000000e+000
      vertex  5.766644e+001  4.751409e+000  0.000000e+000
    endloop
  endfacet
  facet normal -9.510573e-001  3.090144e-001  0.000000e+000
    outer loop
      vertex  5.766644e+001  4.751409e+000  0.000000e+000
      vertex  5.766644e+001  4.751409e+000  1.000000e+000
      vertex  5.785077e+001  5.318723e+000  1.000000e+000
    endloop
  endfacet
  facet normal -9.510573e-001  3.090144e-001  0.000000e+000
    outer loop
      vertex  5.766644e+001  4.751409e+000  0.000000e+000
      vertex  5.785077e+001  5.318723e+000  1.000000e+000
      vertex  5.785077e+001  5.318723e+000  0.000000e+000
    endloop
  endfacet
  facet normal -9.822874e-001  1.873807e-001  0.000000e+000
    outer loop
      vertex  5.785077e+001  5.318723e+000  0.000000e+000
      vertex  5.785077e+001  5.318723e+000  1.000000e+000
      vertex  5.796254e+001  5.904667e+000  1.000000e+000
    endloop
  endfacet
  facet normal -9.822874e-001  1.873807e-001  0.000000e+000
    outer loop
      vertex  5.785077e+001  5.318723e+000  0.000000e+000
      vertex  5.796254e+001  5.904667e+000  1.000000e+000
      vertex  5.796254e+001  5.904667e+000  0.000000e+000
    endloop
  endfacet
  facet normal -9.980265e-001  6.279279e-002  0.000000e+000
    outer loop
      vertex  5.796254e+001  5.904667e+000  0.000000e+000
      vertex  5.796254e+001  5.904667e+000  1.000000e+000
      vertex  5.800000e+001  6.500000e+000  1.000000e+000
    endloop
  endfacet
  facet normal -9.980265e-001  6.279279e-002  0.000000e+000
    outer loop
      vertex  5.796254e+001  5.904667e+000  0.000000e+000
      vertex  5.800000e+001  6.500000e+000  1.000000e+000
      vertex  5.800000e+001  6.500000e+000  0.000000e+000
    endloop
  endfacet
  facet normal -1.253335e-001  9.921147e-001  0.000000e+000
    outer loop
      vertex  5.414006e+001  1.834136e+000  1.000000e+000
      vertex  5.354826e+001  1.759373e+000  0.000000e+000
      vertex  5.354826e+001  1.759373e+000  1.000000e+000
    endloop
  endfacet
  facet normal  0.000000e+000  1.000000e+000  0.000000e+000
    outer loop
      vertex  5.354826e+001  1.759373e+000  1.000000e+000
      vertex  5.354826e+001  1.759373e+000  0.000000e+000
      vertex  5.295174e+001  1.759373e+000  0.000000e+000
    endloop
  endfacet
  facet normal  0.000000e+000  1.000000e+000  0.000000e+000
    outer loop
      vertex  5.354826e+001  1.759373e+000  1.000000e+000
      vertex  5.295174e+001  1.759373e+000  0.000000e+000
      vertex  5.295174e+001  1.759373e+000  1.000000e+000
    endloop
  endfacet
  facet normal  1.253335e-001  9.921147e-001  0.000000e+000
    outer loop
      vertex  5.295174e+001  1.759373e+000  1.000000e+000
      vertex  5.295174e+001  1.759373e+000  0.000000e+000
      vertex  5.235994e+001  1.834136e+000  0.000000e+000
    endloop
  endfacet
  facet normal  1.253335e-001  9.921147e-001  -0.000000e+000
    outer loop
      vertex  5.295174e+001  1.759373e+000  1.000000e+000
      vertex  5.235994e+001  1.834136e+000  0.000000e+000
      vertex  5.235994e+001  1.834136e+000  1.000000e+000
    endloop
  endfacet
  facet normal  2.486897e-001  9.685832e-001  0.000000e+000
    outer loop
      vertex  5.235994e+001  1.834136e+000  1.000000e+000
      vertex  5.235994e+001  1.834136e+000  0.000000e+000
      vertex  5.178217e+001  1.982482e+000  0.000000e+000
    endloop
  endfacet
  facet normal  2.486897e-001  9.685832e-001  -0.000000e+000
    outer loop
      vertex  5.235994e+001  1.834136e+000  1.000000e+000
      vertex  5.178217e+001  1.982482e+000  0.000000e+000
      vertex  5.178217e+001  1.982482e+000  1.000000e+000
    endloop
  endfacet
  facet normal  3.681234e-001  9.297769e-001  0.000000e+000
    outer loop
      vertex  5.178217e+001  1.982482e+000  1.000000e+000
      vertex  5.178217e+001  1.982482e+000  0.000000e+000
      vertex  5.122755e+001  2.202071e+000  0.000000e+000
    endloop
  endfacet
  facet normal  3.681234e-001  9.297769e-001  -0.000000e+000
    outer loop
      vertex  5.178217e+001  1.982482e+000  1.000000e+000
      vertex  5.122755e+001  2.202071e+000  0.000000e+000
      vertex  5.122755e+001  2.202071e+000  1.000000e+000
    endloop
  endfacet
  facet normal  4.817548e-001  8.763060e-001  0.000000e+000
    outer loop
      vertex  5.122755e+001  2.202071e+000  1.000000e+000
      vertex  5.122755e+001  2.202071e+000  0.000000e+000
      vertex  5.070482e+001  2.489442e+000  0.000000e+000
    endloop
  endfacet
  facet normal  4.817548e-001  8.763060e-001  -0.000000e+000
    outer loop
      vertex  5.122755e+001  2.202071e+000  1.000000e+000
      vertex  5.070482e+001  2.489442e+000  0.000000e+000
      vertex  5.070482e+001  2.489442e+000  1.000000e+000
    endloop
  endfacet
  facet normal  5.877860e-001  8.090165e-001  0.000000e+000
    outer loop
      vertex  5.070482e+001  2.489442e+000  1.000000e+000
      vertex  5.070482e+001  2.489442e+000  0.000000e+000
      vertex  5.022224e+001  2.840062e+000  0.000000e+000
    endloop
  endfacet
  facet normal  5.877860e-001  8.090165e-001  -0.000000e+000
    outer loop
      vertex  5.070482e+001  2.489442e+000  1.000000e+000
      vertex  5.022224e+001  2.840062e+000  0.000000e+000
      vertex  5.022224e+001  2.840062e+000  1.000000e+000
    endloop
  endfacet
  facet normal  6.845468e-001  7.289690e-001  0.000000e+000
    outer loop
      vertex  5.022224e+001  2.840062e+000  1.000000e+000
      vertex  5.022224e+001  2.840062e+000  0.000000e+000
      vertex  4.978740e+001  3.248401e+000  0.000000e+000
    endloop
  endfacet
  facet normal  6.845468e-001  7.289690e-001  -0.000000e+000
    outer loop
      vertex  5.022224e+001  2.840062e+000  1.000000e+000
      vertex  4.978740e+001  3.248401e+000  0.000000e+000
      vertex  4.978740e+001  3.248401e+000  1.000000e+000
    endloop
  endfacet
  facet normal  7.705131e-001  6.374242e-001  0.000000e+000
    outer loop
      vertex  4.978740e+001  3.248401e+000  1.000000e+000
      vertex  4.978740e+001  3.248401e+000  0.000000e+000
      vertex  4.940717e+001  3.708020e+000  0.000000e+000
    endloop
  endfacet
  facet normal  7.705131e-001  6.374242e-001  -0.000000e+000
    outer loop
      vertex  4.978740e+001  3.248401e+000  1.000000e+000
      vertex  4.940717e+001  3.708020e+000  0.000000e+000
      vertex  4.940717e+001  3.708020e+000  1.000000e+000
    endloop
  endfacet
  facet normal  8.443280e-001  5.358266e-001  0.000000e+000
    outer loop
      vertex  4.940717e+001  3.708020e+000  1.000000e+000
      vertex  4.940717e+001  3.708020e+000  0.000000e+000
      vertex  4.908754e+001  4.211670e+000  0.000000e+000
    endloop
  endfacet
  facet normal  8.443280e-001  5.358266e-001  -0.000000e+000
    outer loop
      vertex  4.940717e+001  3.708020e+000  1.000000e+000
      vertex  4.908754e+001  4.211670e+000  0.000000e+000
      vertex  4.908754e+001  4.211670e+000  1.000000e+000
    endloop
  endfacet
  facet normal  9.048265e-001  4.257804e-001  0.000000e+000
    outer loop
      vertex  4.908754e+001  4.211670e+000  1.000000e+000
      vertex  4.908754e+001  4.211670e+000  0.000000e+000
      vertex  4.883356e+001  4.751409e+000  0.000000e+000
    endloop
  endfacet
  facet normal  9.048265e-001  4.257804e-001  -0.000000e+000
    outer loop
      vertex  4.908754e+001  4.211670e+000  1.000000e+000
      vertex  4.883356e+001  4.751409e+000  0.000000e+000
      vertex  4.883356e+001  4.751409e+000  1.000000e+000
    endloop
  endfacet
  facet normal  9.510573e-001  3.090144e-001  0.000000e+000
    outer loop
      vertex  4.883356e+001  4.751409e+000  1.000000e+000
      vertex  4.883356e+001  4.751409e+000  0.000000e+000
      vertex  4.864923e+001  5.318723e+000  0.000000e+000
    endloop
  endfacet
  facet normal  9.510573e-001  3.090144e-001  -0.000000e+000
    outer loop
      vertex  4.883356e+001  4.751409e+000  1.000000e+000
      vertex  4.864923e+001  5.318723e+000  0.000000e+000
      vertex  4.864923e+001  5.318723e+000  1.000000e+000
    endloop
  endfacet
  facet normal  9.822874e-001  1.873807e-001  0.000000e+000
    outer loop
      vertex  4.864923e+001  5.318723e+000  1.000000e+000
      vertex  4.864923e+001  5.318723e+000  0.000000e+000
      vertex  4.853746e+001  5.904667e+000  0.000000e+000
    endloop
  endfacet
  facet normal  9.822874e-001  1.873807e-001  -0.000000e+000
    outer loop
      vertex  4.864923e+001  5.318723e+000  1.000000e+000
      vertex  4.853746e+001  5.904667e+000  0.000000e+000
      vertex  4.853746e+001  5.904667e+000  1.000000e+000
    endloop
  endfacet
  facet normal  9.980265e-001  6.279279e-002  0.000000e+000
    outer loop
      vertex  4.853746e+001  5.904667e+000  1.000000e+000
      vertex  4.853746e+001  5.904667e+000  0.000000e+000
      vertex  4.850000e+001  6.500000e+000  0.000000e+000
    endloop
  endfacet
  facet normal  9.980265e-001  6.279279e-002  -0.000000e+000
    outer loop
      vertex  4.853746e+001  5.904667e+000  1.000000e+000
      vertex  4.850000e+001  6.500000e+000  0.000000e+000
      vertex  4.850000e+001  6.500000e+000  1.000000e+000
    endloop
  endfacet
  facet normal -1.000000e+000  0.000000e+000  0.000000e+000
    outer loop
      vertex  5.800000e+001  2.150000e+001  0.000000e+000
      vertex  5.800000e+001  6.500000e+000  0.000000e+000
      vertex  5.800000e+001  2.150000e+001  1.000000e+000
    endloop
  endfacet
  facet normal -1.000000e+000  -0.000000e+000  0.000000e+000
    outer loop
      vertex  5.800000e+001  2.150000e+001  1.000000e+000
      vertex  5.800000e+001  6.500000e+000  0.000000e+000
      vertex  5.800000e+001  6.500000e+000  1.000000e+000
    endloop
  endfacet
  facet normal  1.253333e-001 -9.921147e-001  0.000000e+000
    outer loop
      vertex  5.295174e+001  2.624063e+001  0.000000e+000
      vertex  5.235994e+001  2.616586e+001  1.000000e+000
      vertex  5.235994e+001  2.616586e+001  0.000000e+000
    endloop
  endfacet
  facet normal  2.486895e-001 -9.685833e-001  0.000000e+000
    outer loop
      vertex  5.235994e+001  2.616586e+001  0.000000e+000
      vertex  5.235994e+001  2.616586e+001  1.000000e+000
      vertex  5.178217e+001  2.601752e+001  1.000000e+000
    endloop
  endfacet
  facet normal  2.486895e-001 -9.685833e-001  0.000000e+000
    outer loop
      vertex  5.235994e+001  2.616586e+001  0.000000e+000
      vertex  5.178217e+001  2.601752e+001  1.000000e+000
      vertex  5.178217e+001  2.601752e+001  0.000000e+000
    endloop
  endfacet
  facet normal  3.681253e-001 -9.297761e-001  0.000000e+000
    outer loop
      vertex  5.178217e+001  2.601752e+001  0.000000e+000
      vertex  5.178217e+001  2.601752e+001  1.000000e+000
      vertex  5.122755e+001  2.579793e+001  1.000000e+000
    endloop
  endfacet
  facet normal  3.681253e-001 -9.297761e-001  0.000000e+000
    outer loop
      vertex  5.178217e+001  2.601752e+001  0.000000e+000
      vertex  5.122755e+001  2.579793e+001  1.000000e+000
      vertex  5.122755e+001  2.579793e+001  0.000000e+000
    endloop
  endfacet
  facet normal  4.817545e-001 -8.763062e-001  0.000000e+000
    outer loop
      vertex  5.122755e+001  2.579793e+001  0.000000e+000
      vertex  5.122755e+001  2.579793e+001  1.000000e+000
      vertex  5.070482e+001  2.551056e+001  1.000000e+000
    endloop
  endfacet
  facet normal  4.817545e-001 -8.763062e-001  0.000000e+000
    outer loop
      vertex  5.122755e+001  2.579793e+001  0.000000e+000
      vertex  5.070482e+001  2.551056e+001  1.000000e+000
      vertex  5.070482e+001  2.551056e+001  0.000000e+000
    endloop
  endfacet
  facet normal  5.877843e-001 -8.090177e-001  0.000000e+000
    outer loop
      vertex  5.070482e+001  2.551056e+001  0.000000e+000
      vertex  5.070482e+001  2.551056e+001  1.000000e+000
      vertex  5.022224e+001  2.515994e+001  1.000000e+000
    endloop
  endfacet
  facet normal  5.877843e-001 -8.090177e-001  0.000000e+000
    outer loop
      vertex  5.070482e+001  2.551056e+001  0.000000e+000
      vertex  5.022224e+001  2.515994e+001  1.000000e+000
      vertex  5.022224e+001  2.515994e+001  0.000000e+000
    endloop
  endfacet
  facet normal  6.845480e-001 -7.289678e-001  0.000000e+000
    outer loop
      vertex  5.022224e+001  2.515994e+001  0.000000e+000
      vertex  5.022224e+001  2.515994e+001  1.000000e+000
      vertex  4.978740e+001  2.475160e+001  1.000000e+000
    endloop
  endfacet
  facet normal  6.845480e-001 -7.289678e-001  0.000000e+000
    outer loop
      vertex  5.022224e+001  2.515994e+001  0.000000e+000
      vertex  4.978740e+001  2.475160e+001  1.000000e+000
      vertex  4.978740e+001  2.475160e+001  0.000000e+000
    endloop
  endfacet
  facet normal  7.705123e-001 -6.374252e-001  0.000000e+000
    outer loop
      vertex  4.978740e+001  2.475160e+001  0.000000e+000
      vertex  4.978740e+001  2.475160e+001  1.000000e+000
      vertex  4.940717e+001  2.429198e+001  1.000000e+000
    endloop
  endfacet
  facet normal  7.705123e-001 -6.374252e-001  0.000000e+000
    outer loop
      vertex  4.978740e+001  2.475160e+001  0.000000e+000
      vertex  4.940717e+001  2.429198e+001  1.000000e+000
      vertex  4.940717e+001  2.429198e+001  0.000000e+000
    endloop
  endfacet
  facet normal  8.443283e-001 -5.358261e-001  0.000000e+000
    outer loop
      vertex  4.940717e+001  2.429198e+001  0.000000e+000
      vertex  4.940717e+001  2.429198e+001  1.000000e+000
      vertex  4.908754e+001  2.378833e+001  1.000000e+000
    endloop
  endfacet
  facet normal  8.443283e-001 -5.358261e-001  0.000000e+000
    outer loop
      vertex  4.940717e+001  2.429198e+001  0.000000e+000
      vertex  4.908754e+001  2.378833e+001  1.000000e+000
      vertex  4.908754e+001  2.378833e+001  0.000000e+000
    endloop
  endfacet
  facet normal  9.048263e-001 -4.257810e-001  0.000000e+000
    outer loop
      vertex  4.908754e+001  2.378833e+001  0.000000e+000
      vertex  4.908754e+001  2.378833e+001  1.000000e+000
      vertex  4.883356e+001  2.324859e+001  1.000000e+000
    endloop
  endfacet
  facet normal  9.048263e-001 -4.257810e-001  0.000000e+000
    outer loop
      vertex  4.908754e+001  2.378833e+001  0.000000e+000
      vertex  4.883356e+001  2.324859e+001  1.000000e+000
      vertex  4.883356e+001  2.324859e+001  0.000000e+000
    endloop
  endfacet
  facet normal  9.510576e-001 -3.090137e-001  0.000000e+000
    outer loop
      vertex  4.883356e+001  2.324859e+001  0.000000e+000
      vertex  4.883356e+001  2.324859e+001  1.000000e+000
      vertex  4.864923e+001  2.268128e+001  1.000000e+000
    endloop
  endfacet
  facet normal  9.510576e-001 -3.090137e-001  0.000000e+000
    outer loop
      vertex  4.883356e+001  2.324859e+001  0.000000e+000
      vertex  4.864923e+001  2.268128e+001  1.000000e+000
      vertex  4.864923e+001  2.268128e+001  0.000000e+000
    endloop
  endfacet
  facet normal  9.822873e-001 -1.873810e-001  0.000000e+000
    outer loop
      vertex  4.864923e+001  2.268128e+001  0.000000e+000
      vertex  4.864923e+001  2.268128e+001  1.000000e+000
      vertex  4.853746e+001  2.209533e+001  1.000000e+000
    endloop
  endfacet
  facet normal  9.822873e-001 -1.873810e-001  0.000000e+000
    outer loop
      vertex  4.864923e+001  2.268128e+001  0.000000e+000
      vertex  4.853746e+001  2.209533e+001  1.000000e+000
      vertex  4.853746e+001  2.209533e+001  0.000000e+000
    endloop
  endfacet
  facet normal  9.980265e-001 -6.279273e-002  0.000000e+000
    outer loop
      vertex  4.853746e+001  2.209533e+001  0.000000e+000
      vertex  4.853746e+001  2.209533e+001  1.000000e+000
      vertex  4.850000e+001  2.150000e+001  1.000000e+000
    endloop
  endfacet
  facet normal  9.980265e-001 -6.279273e-002  0.000000e+000
    outer loop
      vertex  4.853746e+001  2.209533e+001  0.000000e+000
      vertex  4.850000e+001  2.150000e+001  1.000000e+000
      vertex  4.850000e+001  2.150000e+001  0.000000e+000
    endloop
  endfacet
  facet normal  1.253333e-001 -9.921147e-001  0.000000e+000
    outer loop
      vertex  5.235994e+001  2.616586e+001  1.000000e+000
      vertex  5.295174e+001  2.624063e+001  0.000000e+000
      vertex  5.295174e+001  2.624063e+001  1.000000e+000
    endloop
  endfacet
  facet normal  0.000000e+000 -1.000000e+000  0.000000e+000
    outer loop
      vertex  5.295174e+001  2.624063e+001  1.000000e+000
      vertex  5.295174e+001  2.624063e+001  0.000000e+000
      vertex  5.354826e+001  2.624063e+001  0.000000e+000
    endloop
  endfacet
  facet normal  0.000000e+000 -1.000000e+000  0.000000e+000
    outer loop
      vertex  5.295174e+001  2.624063e+001  1.000000e+000
      vertex  5.354826e+001  2.624063e+001  0.000000e+000
      vertex  5.354826e+001  2.624063e+001  1.000000e+000
    endloop
  endfacet
  facet normal -1.253333e-001 -9.921147e-001  -0.000000e+000
    outer loop
      vertex  5.354826e+001  2.624063e+001  1.000000e+000
      vertex  5.354826e+001  2.624063e+001  0.000000e+000
      vertex  5.414006e+001  2.616586e+001  0.000000e+000
    endloop
  endfacet
  facet normal -1.253333e-001 -9.921147e-001  0.000000e+000
    outer loop
      vertex  5.354826e+001  2.624063e+001  1.000000e+000
      vertex  5.414006e+001  2.616586e+001  0.000000e+000
      vertex  5.414006e+001  2.616586e+001  1.000000e+000
    endloop
  endfacet
  facet normal -2.486895e-001 -9.685833e-001  -0.000000e+000
    outer loop
      vertex  5.414006e+001  2.616586e+001  1.000000e+000
      vertex  5.414006e+001  2.616586e+001  0.000000e+000
      vertex  5.471783e+001  2.601752e+001  0.000000e+000
    endloop
  endfacet
  facet normal -2.486895e-001 -9.685833e-001  0.000000e+000
    outer loop
      vertex  5.414006e+001  2.616586e+001  1.000000e+000
      vertex  5.471783e+001  2.601752e+001  0.000000e+000
      vertex  5.471783e+001  2.601752e+001  1.000000e+000
    endloop
  endfacet
  facet normal -3.681253e-001 -9.297761e-001  -0.000000e+000
    outer loop
      vertex  5.471783e+001  2.601752e+001  1.000000e+000
      vertex  5.471783e+001  2.601752e+001  0.000000e+000
      vertex  5.527245e+001  2.579793e+001  0.000000e+000
    endloop
  endfacet
  facet normal -3.681253e-001 -9.297761e-001  0.000000e+000
    outer loop
      vertex  5.471783e+001  2.601752e+001  1.000000e+000
      vertex  5.527245e+001  2.579793e+001  0.000000e+000
      vertex  5.527245e+001  2.579793e+001  1.000000e+000
    endloop
  endfacet
  facet normal -4.817545e-001 -8.763062e-001  -0.000000e+000
    outer loop
      vertex  5.527245e+001  2.579793e+001  1.000000e+000
      vertex  5.527245e+001  2.579793e+001  0.000000e+000
      vertex  5.579518e+001  2.551056e+001  0.000000e+000
    endloop
  endfacet
  facet normal -4.817545e-001 -8.763062e-001  0.000000e+000
    outer loop
      vertex  5.527245e+001  2.579793e+001  1.000000e+000
      vertex  5.579518e+001  2.551056e+001  0.000000e+000
      vertex  5.579518e+001  2.551056e+001  1.000000e+000
    endloop
  endfacet
  facet normal -5.877843e-001 -8.090177e-001  -0.000000e+000
    outer loop
      vertex  5.579518e+001  2.551056e+001  1.000000e+000
      vertex  5.579518e+001  2.551056e+001  0.000000e+000
      vertex  5.627776e+001  2.515994e+001  0.000000e+000
    endloop
  endfacet
  facet normal -5.877843e-001 -8.090177e-001  0.000000e+000
    outer loop
      vertex  5.579518e+001  2.551056e+001  1.000000e+000
      vertex  5.627776e+001  2.515994e+001  0.000000e+000
      vertex  5.627776e+001  2.515994e+001  1.000000e+000
    endloop
  endfacet
  facet normal -6.845480e-001 -7.289678e-001  -0.000000e+000
    outer loop
      vertex  5.627776e+001  2.515994e+001  1.000000e+000
      vertex  5.627776e+001  2.515994e+001  0.000000e+000
      vertex  5.671260e+001  2.475160e+001  0.000000e+000
    endloop
  endfacet
  facet normal -6.845480e-001 -7.289678e-001  0.000000e+000
    outer loop
      vertex  5.627776e+001  2.515994e+001  1.000000e+000
      vertex  5.671260e+001  2.475160e+001  0.000000e+000
      vertex  5.671260e+001  2.475160e+001  1.000000e+000
    endloop
  endfacet
  facet normal -7.705123e-001 -6.374252e-001  -0.000000e+000
    outer loop
      vertex  5.671260e+001  2.475160e+001  1.000000e+000
      vertex  5.671260e+001  2.475160e+001  0.000000e+000
      vertex  5.709283e+001  2.429198e+001  0.000000e+000
    endloop
  endfacet
  facet normal -7.705123e-001 -6.374252e-001  0.000000e+000
    outer loop
      vertex  5.671260e+001  2.475160e+001  1.000000e+000
      vertex  5.709283e+001  2.429198e+001  0.000000e+000
      vertex  5.709283e+001  2.429198e+001  1.000000e+000
    endloop
  endfacet
  facet normal -8.443283e-001 -5.358261e-001  -0.000000e+000
    outer loop
      vertex  5.709283e+001  2.429198e+001  1.000000e+000
      vertex  5.709283e+001  2.429198e+001  0.000000e+000
      vertex  5.741246e+001  2.378833e+001  0.000000e+000
    endloop
  endfacet
  facet normal -8.443283e-001 -5.358261e-001  0.000000e+000
    outer loop
      vertex  5.709283e+001  2.429198e+001  1.000000e+000
      vertex  5.741246e+001  2.378833e+001  0.000000e+000
      vertex  5.741246e+001  2.378833e+001  1.000000e+000
    endloop
  endfacet
  facet normal -9.048263e-001 -4.257810e-001  -0.000000e+000
    outer loop
      vertex  5.741246e+001  2.378833e+001  1.000000e+000
      vertex  5.741246e+001  2.378833e+001  0.000000e+000
      vertex  5.766644e+001  2.324859e+001  0.000000e+000
    endloop
  endfacet
  facet normal -9.048263e-001 -4.257810e-001  0.000000e+000
    outer loop
      vertex  5.741246e+001  2.378833e+001  1.000000e+000
      vertex  5.766644e+001  2.324859e+001  0.000000e+000
      vertex  5.766644e+001  2.324859e+001  1.000000e+000
    endloop
  endfacet
  facet normal -9.510576e-001 -3.090137e-001  -0.000000e+000
    outer loop
      vertex  5.766644e+001  2.324859e+001  1.000000e+000
      vertex  5.766644e+001  2.324859e+001  0.000000e+000
      vertex  5.785077e+001  2.268128e+001  0.000000e+000
    endloop
  endfacet
  facet normal -9.510576e-001 -3.090137e-001  0.000000e+000
    outer loop
      vertex  5.766644e+001  2.324859e+001  1.000000e+000
      vertex  5.785077e+001  2.268128e+001  0.000000e+000
      vertex  5.785077e+001  2.268128e+001  1.000000e+000
    endloop
  endfacet
  facet normal -9.822873e-001 -1.873810e-001  -0.000000e+000
    outer loop
      vertex  5.785077e+001  2.268128e+001  1.000000e+000
      vertex  5.785077e+001  2.268128e+001  0.000000e+000
      vertex  5.796254e+001  2.209533e+001  0.000000e+000
    endloop
  endfacet
  facet normal -9.822873e-001 -1.873810e-001  0.000000e+000
    outer loop
      vertex  5.785077e+001  2.268128e+001  1.000000e+000
      vertex  5.796254e+001  2.209533e+001  0.000000e+000
      vertex  5.796254e+001  2.209533e+001  1.000000e+000
    endloop
  endfacet
  facet normal -9.980265e-001 -6.279273e-002  -0.000000e+000
    outer loop
      vertex  5.796254e+001  2.209533e+001  1.000000e+000
      vertex  5.796254e+001  2.209533e+001  0.000000e+000
      vertex  5.800000e+001  2.150000e+001  0.000000e+000
    endloop
  endfacet
  facet normal -9.980265e-001 -6.279273e-002  0.000000e+000
    outer loop
      vertex  5.796254e+001  2.209533e+001  1.000000e+000
      vertex  5.800000e+001  2.150000e+001  0.000000e+000
      vertex  5.800000e+001  2.150000e+001  1.000000e+000
    endloop
  endfacet
  facet normal  1.000000e+000  0.000000e+000  0.000000e+000
    outer loop
      vertex  4.850000e+001  6.500000e+000  0.000000e+000
      vertex  4.850000e+001  2.150000e+001  0.000000e+000
      vertex  4.850000e+001  6.500000e+000  1.000000e+000
    endloop
  endfacet
  facet normal  1.000000e+000  -0.000000e+000  0.000000e+000
    outer loop
      vertex  4.850000e+001  6.500000e+000  1.000000e+000
      vertex  4.850000e+001  2.150000e+001  0.000000e+000
      vertex  4.850000e+001  2.150000e+001  1.000000e+000
    endloop
  endfacet
  facet normal  1.000000e+000  0.000000e+000  0.000000e+000
    outer loop
      vertex -5.810000e+001 -3.410000e+001  0.000000e+000
      vertex -5.810000e+001  3.410000e+001  0.000000e+000
      vertex -5.810000e+001 -3.410000e+001  1.000000e+000
    endloop
  endfacet
  facet normal  1.000000e+000  -0.000000e+000  0.000000e+000
    outer loop
      vertex -5.810000e+001 -3.410000e+001  1.000000e+000
      vertex -5.810000e+001  3.410000e+001  0.000000e+000
      vertex -5.810000e+001  3.410000e+001  1.000000e+000
    endloop
  endfacet
  facet normal  0.000000e+000  9.999999e-001  0.000000e+000
    outer loop
      vertex  5.810000e+001 -3.410000e+001  0.000000e+000
      vertex -5.810000e+001 -3.410000e+001  0.000000e+000
      vertex  5.810000e+001 -3.410000e+001  1.000000e+000
    endloop
  endfacet
  facet normal  0.000000e+000  9.999999e-001  0.000000e+000
    outer loop
      vertex  5.810000e+001 -3.410000e+001  1.000000e+000
      vertex -5.810000e+001 -3.410000e+001  0.000000e+000
      vertex -5.810000e+001 -3.410000e+001  1.000000e+000
    endloop
  endfacet
  facet normal -1.000000e+000  0.000000e+000  0.000000e+000
    outer loop
      vertex  5.810000e+001 -2.750000e+000  0.000000e+000
      vertex  5.810000e+001 -3.410000e+001  0.000000e+000
      vertex  5.810000e+001 -2.750000e+000  1.000000e+000
    endloop
  endfacet
  facet normal -1.000000e+000  -0.000000e+000  0.000000e+000
    outer loop
      vertex  5.810000e+001 -2.750000e+000  1.000000e+000
      vertex  5.810000e+001 -3.410000e+001  0.000000e+000
      vertex  5.810000e+001 -3.410000e+001  1.000000e+000
    endloop
  endfacet
  facet normal  0.000000e+000 -1.000000e+000  0.000000e+000
    outer loop
      vertex  4.510000e+001 -2.750000e+000  0.000000e+000
      vertex  5.810000e+001 -2.750000e+000  0.000000e+000
      vertex  4.510000e+001 -2.750000e+000  1.000000e+000
    endloop
  endfacet
  facet normal  0.000000e+000 -1.000000e+000  0.000000e+000
    outer loop
      vertex  4.510000e+001 -2.750000e+000  1.000000e+000
      vertex  5.810000e+001 -2.750000e+000  0.000000e+000
      vertex  5.810000e+001 -2.750000e+000  1.000000e+000
    endloop
  endfacet
  facet normal -1.000000e+000  0.000000e+000  0.000000e+000
    outer loop
      vertex  4.510000e+001  3.410000e+001  0.000000e+000
      vertex  4.510000e+001 -2.750000e+000  0.000000e+000
      vertex  4.510000e+001  3.410000e+001  1.000000e+000
    endloop
  endfacet
  facet normal -1.000000e+000  -0.000000e+000  0.000000e+000
    outer loop
      vertex  4.510000e+001  3.410000e+001  1.000000e+000
      vertex  4.510000e+001 -2.750000e+000  0.000000e+000
      vertex  4.510000e+001 -2.750000e+000  1.000000e+000
    endloop
  endfacet
  facet normal  0.000000e+000 -9.999999e-001  0.000000e+000
    outer loop
      vertex -5.810000e+001  3.410000e+001  0.000000e+000
      vertex  4.510000e+001  3.410000e+001  0.000000e+000
      vertex -5.810000e+001  3.410000e+001  1.000000e+000
    endloop
  endfacet
  facet normal  0.000000e+000 -9.999999e-001  0.000000e+000
    outer loop
      vertex -5.810000e+001  3.410000e+001  1.000000e+000
      vertex  4.510000e+001  3.410000e+001  0.000000e+000
      vertex  4.510000e+001  3.410000e+001  1.000000e+000
    endloop
  endfacet
  facet normal  0.000000e+000  9.999999e-001  0.000000e+000
    outer loop
      vertex -6.150000e+001  3.750000e+001  1.000000e+000
      vertex  6.150000e+001  3.750000e+001  1.000000e+000
      vertex -6.150000e+001  3.750000e+001  0.000000e+000
    endloop
  endfacet
  facet normal  0.000000e+000  9.999999e-001  0.000000e+000
    outer loop
      vertex -6.150000e+001  3.750000e+001  0.000000e+000
      vertex  6.150000e+001  3.750000e+001  1.000000e+000
      vertex  6.150000e+001  3.750000e+001  0.000000e+000
    endloop
  endfacet
  facet normal  1.000000e+000  0.000000e+000  0.000000e+000
    outer loop
      vertex  6.150000e+001 -3.750000e+001  1.000000e+000
      vertex  6.150000e+001 -3.750000e+001  0.000000e+000
      vertex  6.150000e+001  3.750000e+001  1.000000e+000
    endloop
  endfacet
  facet normal  1.000000e+000  0.000000e+000  0.000000e+000
    outer loop
      vertex  6.150000e+001  3.750000e+001  1.000000e+000
      vertex  6.150000e+001 -3.750000e+001  0.000000e+000
      vertex  6.150000e+001  3.750000e+001  0.000000e+000
    endloop
  endfacet
  facet normal -1.000000e+000  0.000000e+000  0.000000e+000
    outer loop
      vertex -6.150000e+001  3.750000e+001  1.000000e+000
      vertex -6.150000e+001  3.750000e+001  0.000000e+000
      vertex -6.150000e+001 -3.750000e+001  1.000000e+000
    endloop
  endfacet
  facet normal -1.000000e+000  0.000000e+000  0.000000e+000
    outer loop
      vertex -6.150000e+001 -3.750000e+001  1.000000e+000
      vertex -6.150000e+001  3.750000e+001  0.000000e+000
      vertex -6.150000e+001 -3.750000e+001  0.000000e+000
    endloop
  endfacet
endsolid CATIA STL
