solid CATIA STL
  facet normal  0.000000e+000  0.000000e+000  9.999999e-001
    outer loop
      vertex -4.580000e+001  4.550900e+001  1.230000e+002
      vertex -4.580000e+001  4.650900e+001  1.230000e+002
      vertex -6.150000e+001  4.650900e+001  1.230000e+002
    endloop
  endfacet
  facet normal  0.000000e+000  0.000000e+000  1.000000e+000
    outer loop
      vertex -4.580000e+001  4.550900e+001  1.230000e+002
      vertex -6.150000e+001  4.650900e+001  1.230000e+002
      vertex -6.150000e+001  4.230900e+001  1.230000e+002
    endloop
  endfacet
  facet normal  0.000000e+000  0.000000e+000  1.000000e+000
    outer loop
      vertex -4.580000e+001  4.550900e+001  1.230000e+002
      vertex -6.150000e+001  4.230900e+001  1.230000e+002
      vertex -6.100000e+001  4.230900e+001  1.230000e+002
    endloop
  endfacet
  facet normal  0.000000e+000  0.000000e+000  1.000000e+000
    outer loop
      vertex -4.580000e+001  4.550900e+001  1.230000e+002
      vertex -6.100000e+001  4.230900e+001  1.230000e+002
      vertex  6.100000e+001  4.230900e+001  1.230000e+002
    endloop
  endfacet
  facet normal  0.000000e+000  -0.000000e+000  1.000000e+000
    outer loop
      vertex -4.430000e+001 -4.100000e+001  1.230000e+002
      vertex  4.430000e+001 -4.100000e+001  1.230000e+002
      vertex  6.150000e+001 -3.500000e+001  1.230000e+002
    endloop
  endfacet
  facet normal  0.000000e+000  0.000000e+000  1.000000e+000
    outer loop
      vertex -4.430000e+001 -4.100000e+001  1.230000e+002
      vertex  6.150000e+001 -3.500000e+001  1.230000e+002
      vertex  6.100000e+001 -3.500000e+001  1.230000e+002
    endloop
  endfacet
  facet normal  0.000000e+000  0.000000e+000  1.000000e+000
    outer loop
      vertex -4.430000e+001 -4.100000e+001  1.230000e+002
      vertex  6.100000e+001 -3.500000e+001  1.230000e+002
      vertex -6.100000e+001 -3.500000e+001  1.230000e+002
    endloop
  endfacet
  facet normal  0.000000e+000  0.000000e+000  1.000000e+000
    outer loop
      vertex -4.430000e+001 -4.100000e+001  1.230000e+002
      vertex -6.100000e+001 -3.500000e+001  1.230000e+002
      vertex -6.150000e+001 -3.500000e+001  1.230000e+002
    endloop
  endfacet
  facet normal  0.000000e+000  0.000000e+000  1.000000e+000
    outer loop
      vertex -4.430000e+001 -4.100000e+001  1.230000e+002
      vertex -6.150000e+001 -3.500000e+001  1.230000e+002
      vertex -6.150000e+001 -5.300000e+001  1.230000e+002
    endloop
  endfacet
  facet normal  0.000000e+000  0.000000e+000  9.999999e-001
    outer loop
      vertex -4.430000e+001 -4.100000e+001  1.230000e+002
      vertex -6.150000e+001 -5.300000e+001  1.230000e+002
      vertex -4.430000e+001 -4.839127e+001  1.230000e+002
    endloop
  endfacet
  facet normal  -0.000000e+000  0.000000e+000  1.000000e+000
    outer loop
      vertex  6.150000e+001  4.650900e+001  1.230000e+002
      vertex  4.580000e+001  4.650900e+001  1.230000e+002
      vertex  6.150000e+001  4.230900e+001  1.230000e+002
    endloop
  endfacet
  facet normal  0.000000e+000  0.000000e+000  9.999999e-001
    outer loop
      vertex  6.150000e+001  4.230900e+001  1.230000e+002
      vertex  4.580000e+001  4.650900e+001  1.230000e+002
      vertex  4.580000e+001  4.550900e+001  1.230000e+002
    endloop
  endfacet
  facet normal  0.000000e+000  0.000000e+000  1.000000e+000
    outer loop
      vertex  6.150000e+001  4.230900e+001  1.230000e+002
      vertex  4.580000e+001  4.550900e+001  1.230000e+002
      vertex  6.100000e+001  4.230900e+001  1.230000e+002
    endloop
  endfacet
  facet normal  0.000000e+000  0.000000e+000  1.000000e+000
    outer loop
      vertex  6.100000e+001  4.230900e+001  1.230000e+002
      vertex  4.580000e+001  4.550900e+001  1.230000e+002
      vertex -4.580000e+001  4.550900e+001  1.230000e+002
    endloop
  endfacet
  facet normal  0.000000e+000  0.000000e+000  1.000000e+000
    outer loop
      vertex -6.100000e+001 -3.500000e+001  1.230000e+002
      vertex  6.100000e+001 -3.500000e+001  1.230000e+002
      vertex -6.100000e+001  4.230900e+001  1.230000e+002
    endloop
  endfacet
  facet normal  -0.000000e+000  0.000000e+000  1.000000e+000
    outer loop
      vertex -6.100000e+001  4.230900e+001  1.230000e+002
      vertex  6.100000e+001 -3.500000e+001  1.230000e+002
      vertex  6.100000e+001  4.230900e+001  1.230000e+002
    endloop
  endfacet
  facet normal  0.000000e+000  0.000000e+000  9.999999e-001
    outer loop
      vertex  4.430000e+001 -4.100000e+001  1.230000e+002
      vertex  4.430000e+001 -4.839127e+001  1.230000e+002
      vertex  6.150000e+001 -3.500000e+001  1.230000e+002
    endloop
  endfacet
  facet normal  0.000000e+000  0.000000e+000  1.000000e+000
    outer loop
      vertex  6.150000e+001 -3.500000e+001  1.230000e+002
      vertex  4.430000e+001 -4.839127e+001  1.230000e+002
      vertex  6.150000e+001 -5.300000e+001  1.230000e+002
    endloop
  endfacet
  facet normal  0.000000e+000 -1.000000e+000  -0.000000e+000
    outer loop
      vertex  4.430000e+001 -4.100000e+001  1.050000e+002
      vertex  4.430000e+001 -4.100000e+001  1.230000e+002
      vertex -4.430000e+001 -4.100000e+001  1.050000e+002
    endloop
  endfacet
  facet normal  0.000000e+000 -1.000000e+000  0.000000e+000
    outer loop
      vertex -4.430000e+001 -4.100000e+001  1.050000e+002
      vertex  4.430000e+001 -4.100000e+001  1.230000e+002
      vertex -4.430000e+001 -4.100000e+001  1.230000e+002
    endloop
  endfacet
  facet normal -1.000000e+000  0.000000e+000  0.000000e+000
    outer loop
      vertex -4.430000e+001 -3.500000e+001  1.186000e+002
      vertex -4.430000e+001 -3.500000e+001  1.206000e+002
      vertex -4.430000e+001 -3.386724e+001  1.206000e+002
    endloop
  endfacet
  facet normal -9.999999e-001  0.000000e+000  0.000000e+000
    outer loop
      vertex -4.430000e+001 -3.500000e+001  1.174652e+002
      vertex -4.430000e+001 -3.500000e+001  1.186000e+002
      vertex -4.430000e+001 -3.386724e+001  1.206000e+002
    endloop
  endfacet
  facet normal  0.000000e+000  9.404811e-001 -3.398460e-001
    outer loop
      vertex  4.430000e+001 -3.386724e+001  1.206000e+002
      vertex  4.430000e+001 -3.500000e+001  1.174652e+002
      vertex -4.430000e+001 -3.386724e+001  1.206000e+002
    endloop
  endfacet
  facet normal  0.000000e+000  9.404813e-001 -3.398454e-001
    outer loop
      vertex -4.430000e+001 -3.855090e+001  1.076385e+002
      vertex -4.430000e+001 -3.500000e+001  1.174652e+002
      vertex  4.430000e+001 -3.855090e+001  1.076385e+002
    endloop
  endfacet
  facet normal -7.384777e-008  9.404811e-001 -3.398460e-001
    outer loop
      vertex  4.430000e+001 -3.855090e+001  1.076385e+002
      vertex -4.430000e+001 -3.500000e+001  1.174652e+002
      vertex -4.430000e+001 -3.386724e+001  1.206000e+002
    endloop
  endfacet
  facet normal  2.355775e-008  9.404813e-001 -3.398454e-001
    outer loop
      vertex  4.430000e+001 -3.855090e+001  1.076385e+002
      vertex -4.430000e+001 -3.386724e+001  1.206000e+002
      vertex  4.430000e+001 -3.500000e+001  1.174652e+002
    endloop
  endfacet
  facet normal  9.999999e-001  0.000000e+000  0.000000e+000
    outer loop
      vertex  4.430000e+001 -3.500000e+001  1.186000e+002
      vertex  4.430000e+001 -3.500000e+001  1.174652e+002
      vertex  4.430000e+001 -3.386724e+001  1.206000e+002
    endloop
  endfacet
  facet normal  1.000000e+000  0.000000e+000  0.000000e+000
    outer loop
      vertex  4.430000e+001 -3.500000e+001  1.186000e+002
      vertex  4.430000e+001 -3.386724e+001  1.206000e+002
      vertex  4.430000e+001 -3.500000e+001  1.206000e+002
    endloop
  endfacet
  facet normal  1.000000e+000  0.000000e+000  0.000000e+000
    outer loop
      vertex -4.430000e+001 -3.500000e+001  0.000000e+000
      vertex -4.430000e+001 -3.500000e+001  1.174652e+002
      vertex -4.430000e+001 -3.855090e+001  1.076385e+002
    endloop
  endfacet
  facet normal  1.000000e+000  0.000000e+000  0.000000e+000
    outer loop
      vertex -4.430000e+001 -3.500000e+001  0.000000e+000
      vertex -4.430000e+001 -3.855090e+001  1.076385e+002
      vertex -4.430000e+001 -4.100000e+001  1.050000e+002
    endloop
  endfacet
  facet normal  9.999999e-001  0.000000e+000  0.000000e+000
    outer loop
      vertex -4.430000e+001 -3.500000e+001  0.000000e+000
      vertex -4.430000e+001 -4.100000e+001  1.050000e+002
      vertex -4.430000e+001 -4.839127e+001  0.000000e+000
    endloop
  endfacet
  facet normal  1.000000e+000  0.000000e+000  0.000000e+000
    outer loop
      vertex -4.430000e+001 -4.839127e+001  0.000000e+000
      vertex -4.430000e+001 -4.100000e+001  1.050000e+002
      vertex -4.430000e+001 -4.839127e+001  1.230000e+002
    endloop
  endfacet
  facet normal  1.000000e+000  -0.000000e+000  0.000000e+000
    outer loop
      vertex -4.430000e+001 -4.839127e+001  1.230000e+002
      vertex -4.430000e+001 -4.100000e+001  1.050000e+002
      vertex -4.430000e+001 -4.100000e+001  1.230000e+002
    endloop
  endfacet
  facet normal -9.999999e-001  0.000000e+000  0.000000e+000
    outer loop
      vertex  4.430000e+001 -3.500000e+001  0.000000e+000
      vertex  4.430000e+001 -4.839127e+001  0.000000e+000
      vertex  4.430000e+001 -4.100000e+001  1.050000e+002
    endloop
  endfacet
  facet normal -1.000000e+000  0.000000e+000  0.000000e+000
    outer loop
      vertex  4.430000e+001 -3.500000e+001  0.000000e+000
      vertex  4.430000e+001 -4.100000e+001  1.050000e+002
      vertex  4.430000e+001 -3.855090e+001  1.076385e+002
    endloop
  endfacet
  facet normal -1.000000e+000  0.000000e+000  0.000000e+000
    outer loop
      vertex  4.430000e+001 -3.500000e+001  0.000000e+000
      vertex  4.430000e+001 -3.855090e+001  1.076385e+002
      vertex  4.430000e+001 -3.500000e+001  1.174652e+002
    endloop
  endfacet
  facet normal -1.000000e+000  0.000000e+000  0.000000e+000
    outer loop
      vertex  4.430000e+001 -4.839127e+001  0.000000e+000
      vertex  4.430000e+001 -4.839127e+001  1.230000e+002
      vertex  4.430000e+001 -4.100000e+001  1.050000e+002
    endloop
  endfacet
  facet normal -1.000000e+000  0.000000e+000  0.000000e+000
    outer loop
      vertex  4.430000e+001 -4.100000e+001  1.050000e+002
      vertex  4.430000e+001 -4.839127e+001  1.230000e+002
      vertex  4.430000e+001 -4.100000e+001  1.230000e+002
    endloop
  endfacet
  facet normal  0.000000e+000  0.000000e+000 -1.000000e+000
    outer loop
      vertex  5.950000e+001 -3.500000e+001  1.206000e+002
      vertex  4.430000e+001 -3.500000e+001  1.206000e+002
      vertex  5.950000e+001  3.850900e+001  1.206000e+002
    endloop
  endfacet
  facet normal  0.000000e+000  0.000000e+000 -1.000000e+000
    outer loop
      vertex  5.950000e+001  3.850900e+001  1.206000e+002
      vertex  4.430000e+001 -3.500000e+001  1.206000e+002
      vertex  4.430000e+001 -3.386724e+001  1.206000e+002
    endloop
  endfacet
  facet normal  0.000000e+000  0.000000e+000 -1.000000e+000
    outer loop
      vertex  5.950000e+001  3.850900e+001  1.206000e+002
      vertex  4.430000e+001 -3.386724e+001  1.206000e+002
      vertex -5.950000e+001  3.850900e+001  1.206000e+002
    endloop
  endfacet
  facet normal  0.000000e+000  0.000000e+000 -1.000000e+000
    outer loop
      vertex -5.950000e+001  3.850900e+001  1.206000e+002
      vertex  4.430000e+001 -3.386724e+001  1.206000e+002
      vertex -4.430000e+001 -3.386724e+001  1.206000e+002
    endloop
  endfacet
  facet normal  -0.000000e+000  0.000000e+000 -1.000000e+000
    outer loop
      vertex -5.950000e+001  3.850900e+001  1.206000e+002
      vertex -4.430000e+001 -3.386724e+001  1.206000e+002
      vertex -5.950000e+001 -3.500000e+001  1.206000e+002
    endloop
  endfacet
  facet normal  0.000000e+000  0.000000e+000 -1.000000e+000
    outer loop
      vertex -5.950000e+001 -3.500000e+001  1.206000e+002
      vertex -4.430000e+001 -3.386724e+001  1.206000e+002
      vertex -4.430000e+001 -3.500000e+001  1.206000e+002
    endloop
  endfacet
  facet normal  -0.000000e+000  1.000000e+000  0.000000e+000
    outer loop
      vertex  6.100000e+001 -3.500000e+001  1.186000e+002
      vertex  6.100000e+001 -3.500000e+001  1.230000e+002
      vertex  6.150000e+001 -3.500000e+001  1.230000e+002
    endloop
  endfacet
  facet normal  -0.000000e+000  9.999999e-001  0.000000e+000
    outer loop
      vertex  6.150000e+001 -3.500000e+001  0.000000e+000
      vertex  6.100000e+001 -3.500000e+001  1.186000e+002
      vertex  6.150000e+001 -3.500000e+001  1.230000e+002
    endloop
  endfacet
  facet normal  -0.000000e+000  1.000000e+000  0.000000e+000
    outer loop
      vertex  4.430000e+001 -3.500000e+001  1.174652e+002
      vertex  4.430000e+001 -3.500000e+001  1.186000e+002
      vertex  5.950000e+001 -3.500000e+001  1.186000e+002
    endloop
  endfacet
  facet normal  -0.000000e+000  9.999999e-001  0.000000e+000
    outer loop
      vertex  4.430000e+001 -3.500000e+001  1.174652e+002
      vertex  5.950000e+001 -3.500000e+001  1.186000e+002
      vertex  6.100000e+001 -3.500000e+001  1.186000e+002
    endloop
  endfacet
  facet normal  0.000000e+000  1.000000e+000  0.000000e+000
    outer loop
      vertex  4.430000e+001 -3.500000e+001  1.174652e+002
      vertex  6.100000e+001 -3.500000e+001  1.186000e+002
      vertex  6.150000e+001 -3.500000e+001  0.000000e+000
    endloop
  endfacet
  facet normal  0.000000e+000  1.000000e+000  0.000000e+000
    outer loop
      vertex  4.430000e+001 -3.500000e+001  1.174652e+002
      vertex  6.150000e+001 -3.500000e+001  0.000000e+000
      vertex  4.430000e+001 -3.500000e+001  0.000000e+000
    endloop
  endfacet
  facet normal  0.000000e+000  1.000000e+000  0.000000e+000
    outer loop
      vertex  4.430000e+001 -3.500000e+001  1.186000e+002
      vertex  4.430000e+001 -3.500000e+001  1.206000e+002
      vertex  5.950000e+001 -3.500000e+001  1.186000e+002
    endloop
  endfacet
  facet normal  0.000000e+000  1.000000e+000  -0.000000e+000
    outer loop
      vertex  5.950000e+001 -3.500000e+001  1.186000e+002
      vertex  4.430000e+001 -3.500000e+001  1.206000e+002
      vertex  5.950000e+001 -3.500000e+001  1.206000e+002
    endloop
  endfacet
  facet normal  -0.000000e+000  9.999999e-001  0.000000e+000
    outer loop
      vertex -6.150000e+001 -3.500000e+001  0.000000e+000
      vertex -6.150000e+001 -3.500000e+001  1.230000e+002
      vertex -6.100000e+001 -3.500000e+001  1.230000e+002
    endloop
  endfacet
  facet normal  0.000000e+000  1.000000e+000  0.000000e+000
    outer loop
      vertex -6.150000e+001 -3.500000e+001  0.000000e+000
      vertex -6.100000e+001 -3.500000e+001  1.230000e+002
      vertex -6.100000e+001 -3.500000e+001  1.186000e+002
    endloop
  endfacet
  facet normal  -0.000000e+000  1.000000e+000  0.000000e+000
    outer loop
      vertex -6.150000e+001 -3.500000e+001  0.000000e+000
      vertex -6.100000e+001 -3.500000e+001  1.186000e+002
      vertex -5.950000e+001 -3.500000e+001  1.186000e+002
    endloop
  endfacet
  facet normal  -0.000000e+000  9.999999e-001  0.000000e+000
    outer loop
      vertex -6.150000e+001 -3.500000e+001  0.000000e+000
      vertex -5.950000e+001 -3.500000e+001  1.186000e+002
      vertex -4.430000e+001 -3.500000e+001  1.186000e+002
    endloop
  endfacet
  facet normal  0.000000e+000  1.000000e+000  0.000000e+000
    outer loop
      vertex -6.150000e+001 -3.500000e+001  0.000000e+000
      vertex -4.430000e+001 -3.500000e+001  1.186000e+002
      vertex -4.430000e+001 -3.500000e+001  1.174652e+002
    endloop
  endfacet
  facet normal  0.000000e+000  1.000000e+000  0.000000e+000
    outer loop
      vertex -6.150000e+001 -3.500000e+001  0.000000e+000
      vertex -4.430000e+001 -3.500000e+001  1.174652e+002
      vertex -4.430000e+001 -3.500000e+001  0.000000e+000
    endloop
  endfacet
  facet normal  0.000000e+000  1.000000e+000  0.000000e+000
    outer loop
      vertex -5.950000e+001 -3.500000e+001  1.186000e+002
      vertex -5.950000e+001 -3.500000e+001  1.206000e+002
      vertex -4.430000e+001 -3.500000e+001  1.186000e+002
    endloop
  endfacet
  facet normal  0.000000e+000  1.000000e+000  -0.000000e+000
    outer loop
      vertex -4.430000e+001 -3.500000e+001  1.186000e+002
      vertex -5.950000e+001 -3.500000e+001  1.206000e+002
      vertex -4.430000e+001 -3.500000e+001  1.206000e+002
    endloop
  endfacet
  facet normal  0.000000e+000  7.329289e-001 -6.803051e-001
    outer loop
      vertex -4.430000e+001 -3.855090e+001  1.076385e+002
      vertex  4.430000e+001 -3.855090e+001  1.076385e+002
      vertex -4.430000e+001 -4.100000e+001  1.050000e+002
    endloop
  endfacet
  facet normal  0.000000e+000  7.329289e-001 -6.803051e-001
    outer loop
      vertex -4.430000e+001 -4.100000e+001  1.050000e+002
      vertex  4.430000e+001 -3.855090e+001  1.076385e+002
      vertex  4.430000e+001 -4.100000e+001  1.050000e+002
    endloop
  endfacet
  facet normal -1.000000e+000  0.000000e+000  0.000000e+000
    outer loop
      vertex  5.950000e+001  3.850900e+001  1.206000e+002
      vertex  5.950000e+001  3.850900e+001  1.186000e+002
      vertex  5.950000e+001 -3.500000e+001  1.206000e+002
    endloop
  endfacet
  facet normal -1.000000e+000  0.000000e+000  0.000000e+000
    outer loop
      vertex  5.950000e+001 -3.500000e+001  1.206000e+002
      vertex  5.950000e+001  3.850900e+001  1.186000e+002
      vertex  5.950000e+001 -3.500000e+001  1.186000e+002
    endloop
  endfacet
  facet normal  1.000000e+000  0.000000e+000  0.000000e+000
    outer loop
      vertex -5.950000e+001 -3.500000e+001  1.206000e+002
      vertex -5.950000e+001 -3.500000e+001  1.186000e+002
      vertex -5.950000e+001  3.850900e+001  1.206000e+002
    endloop
  endfacet
  facet normal  1.000000e+000  0.000000e+000  0.000000e+000
    outer loop
      vertex -5.950000e+001  3.850900e+001  1.206000e+002
      vertex -5.950000e+001 -3.500000e+001  1.186000e+002
      vertex -5.950000e+001  3.850900e+001  1.186000e+002
    endloop
  endfacet
  facet normal  0.000000e+000  0.000000e+000 -1.000000e+000
    outer loop
      vertex -6.100000e+001  4.000900e+001  1.186000e+002
      vertex -5.950000e+001 -3.500000e+001  1.186000e+002
      vertex -6.100000e+001 -3.500000e+001  1.186000e+002
    endloop
  endfacet
  facet normal  0.000000e+000  0.000000e+000 -1.000000e+000
    outer loop
      vertex -5.950000e+001 -3.500000e+001  1.186000e+002
      vertex -6.100000e+001  4.000900e+001  1.186000e+002
      vertex -5.950000e+001  3.850900e+001  1.186000e+002
    endloop
  endfacet
  facet normal  0.000000e+000  0.000000e+000 -1.000000e+000
    outer loop
      vertex -5.950000e+001  3.850900e+001  1.186000e+002
      vertex -6.100000e+001  4.000900e+001  1.186000e+002
      vertex  6.100000e+001  4.000900e+001  1.186000e+002
    endloop
  endfacet
  facet normal  0.000000e+000  0.000000e+000 -1.000000e+000
    outer loop
      vertex -5.950000e+001  3.850900e+001  1.186000e+002
      vertex  6.100000e+001  4.000900e+001  1.186000e+002
      vertex  5.950000e+001  3.850900e+001  1.186000e+002
    endloop
  endfacet
  facet normal  0.000000e+000  0.000000e+000 -1.000000e+000
    outer loop
      vertex  5.950000e+001  3.850900e+001  1.186000e+002
      vertex  6.100000e+001  4.000900e+001  1.186000e+002
      vertex  6.100000e+001 -3.500000e+001  1.186000e+002
    endloop
  endfacet
  facet normal  0.000000e+000  0.000000e+000 -1.000000e+000
    outer loop
      vertex  5.950000e+001  3.850900e+001  1.186000e+002
      vertex  6.100000e+001 -3.500000e+001  1.186000e+002
      vertex  5.950000e+001 -3.500000e+001  1.186000e+002
    endloop
  endfacet
  facet normal  0.000000e+000 -1.000000e+000  0.000000e+000
    outer loop
      vertex  5.950000e+001  3.850900e+001  1.206000e+002
      vertex -5.950000e+001  3.850900e+001  1.206000e+002
      vertex  5.950000e+001  3.850900e+001  1.186000e+002
    endloop
  endfacet
  facet normal  0.000000e+000 -1.000000e+000  0.000000e+000
    outer loop
      vertex  5.950000e+001  3.850900e+001  1.186000e+002
      vertex -5.950000e+001  3.850900e+001  1.206000e+002
      vertex -5.950000e+001  3.850900e+001  1.186000e+002
    endloop
  endfacet
  facet normal  0.000000e+000  0.000000e+000 -1.000000e+000
    outer loop
      vertex -4.580000e+001  4.550900e+001  0.000000e+000
      vertex  6.100000e+001  4.230900e+001  0.000000e+000
      vertex -6.100000e+001  4.230900e+001  0.000000e+000
    endloop
  endfacet
  facet normal  0.000000e+000  0.000000e+000 -1.000000e+000
    outer loop
      vertex -4.580000e+001  4.550900e+001  0.000000e+000
      vertex -6.100000e+001  4.230900e+001  0.000000e+000
      vertex -6.150000e+001  4.230900e+001  0.000000e+000
    endloop
  endfacet
  facet normal  0.000000e+000  0.000000e+000 -1.000000e+000
    outer loop
      vertex -4.580000e+001  4.550900e+001  0.000000e+000
      vertex -6.150000e+001  4.230900e+001  0.000000e+000
      vertex -6.150000e+001  4.650900e+001  0.000000e+000
    endloop
  endfacet
  facet normal  0.000000e+000  0.000000e+000 -9.999999e-001
    outer loop
      vertex -4.580000e+001  4.550900e+001  0.000000e+000
      vertex -6.150000e+001  4.650900e+001  0.000000e+000
      vertex -4.580000e+001  4.650900e+001  0.000000e+000
    endloop
  endfacet
  facet normal  0.000000e+000  0.000000e+000 -1.000000e+000
    outer loop
      vertex  6.150000e+001  4.650900e+001  0.000000e+000
      vertex  6.150000e+001  4.230900e+001  0.000000e+000
      vertex  4.580000e+001  4.650900e+001  0.000000e+000
    endloop
  endfacet
  facet normal  0.000000e+000  0.000000e+000 -9.999999e-001
    outer loop
      vertex  4.580000e+001  4.650900e+001  0.000000e+000
      vertex  6.150000e+001  4.230900e+001  0.000000e+000
      vertex  4.580000e+001  4.550900e+001  0.000000e+000
    endloop
  endfacet
  facet normal  0.000000e+000  0.000000e+000 -1.000000e+000
    outer loop
      vertex  6.150000e+001  4.230900e+001  0.000000e+000
      vertex  6.100000e+001  4.230900e+001  0.000000e+000
      vertex  4.580000e+001  4.550900e+001  0.000000e+000
    endloop
  endfacet
  facet normal  -0.000000e+000  -0.000000e+000 -1.000000e+000
    outer loop
      vertex  4.580000e+001  4.550900e+001  0.000000e+000
      vertex  6.100000e+001  4.230900e+001  0.000000e+000
      vertex -4.580000e+001  4.550900e+001  0.000000e+000
    endloop
  endfacet
  facet normal  0.000000e+000  0.000000e+000 -1.000000e+000
    outer loop
      vertex -6.100000e+001  4.000900e+001  0.000000e+000
      vertex -6.100000e+001  4.230900e+001  0.000000e+000
      vertex  6.100000e+001  4.000900e+001  0.000000e+000
    endloop
  endfacet
  facet normal  0.000000e+000  0.000000e+000 -1.000000e+000
    outer loop
      vertex  6.100000e+001  4.000900e+001  0.000000e+000
      vertex -6.100000e+001  4.230900e+001  0.000000e+000
      vertex  6.100000e+001  4.230900e+001  0.000000e+000
    endloop
  endfacet
  facet normal -1.000000e+000  0.000000e+000  0.000000e+000
    outer loop
      vertex -6.100000e+001  4.000900e+001  0.000000e+000
      vertex -6.100000e+001  4.000900e+001  1.186000e+002
      vertex -6.100000e+001  4.230900e+001  0.000000e+000
    endloop
  endfacet
  facet normal -1.000000e+000  0.000000e+000  0.000000e+000
    outer loop
      vertex -6.100000e+001  4.230900e+001  0.000000e+000
      vertex -6.100000e+001  4.000900e+001  1.186000e+002
      vertex -6.100000e+001  4.230900e+001  1.230000e+002
    endloop
  endfacet
  facet normal -1.000000e+000  0.000000e+000  0.000000e+000
    outer loop
      vertex -6.100000e+001  4.000900e+001  1.186000e+002
      vertex -6.100000e+001 -3.500000e+001  1.186000e+002
      vertex -6.100000e+001  4.230900e+001  1.230000e+002
    endloop
  endfacet
  facet normal -1.000000e+000  -0.000000e+000  0.000000e+000
    outer loop
      vertex -6.100000e+001  4.230900e+001  1.230000e+002
      vertex -6.100000e+001 -3.500000e+001  1.186000e+002
      vertex -6.100000e+001 -3.500000e+001  1.230000e+002
    endloop
  endfacet
  facet normal  1.000000e+000  0.000000e+000  0.000000e+000
    outer loop
      vertex  6.100000e+001  4.230900e+001  0.000000e+000
      vertex  6.100000e+001  4.230900e+001  1.230000e+002
      vertex  6.100000e+001  4.000900e+001  0.000000e+000
    endloop
  endfacet
  facet normal  1.000000e+000  0.000000e+000  0.000000e+000
    outer loop
      vertex  6.100000e+001  4.000900e+001  0.000000e+000
      vertex  6.100000e+001  4.230900e+001  1.230000e+002
      vertex  6.100000e+001  4.000900e+001  1.186000e+002
    endloop
  endfacet
  facet normal  1.000000e+000  -0.000000e+000  0.000000e+000
    outer loop
      vertex  6.100000e+001  4.230900e+001  1.230000e+002
      vertex  6.100000e+001 -3.500000e+001  1.230000e+002
      vertex  6.100000e+001  4.000900e+001  1.186000e+002
    endloop
  endfacet
  facet normal  1.000000e+000  0.000000e+000  0.000000e+000
    outer loop
      vertex  6.100000e+001  4.000900e+001  1.186000e+002
      vertex  6.100000e+001 -3.500000e+001  1.230000e+002
      vertex  6.100000e+001 -3.500000e+001  1.186000e+002
    endloop
  endfacet
  facet normal  0.000000e+000  1.000000e+000  0.000000e+000
    outer loop
      vertex -4.580000e+001  4.550900e+001  0.000000e+000
      vertex -4.580000e+001  4.550900e+001  1.230000e+002
      vertex  4.580000e+001  4.550900e+001  0.000000e+000
    endloop
  endfacet
  facet normal  0.000000e+000  1.000000e+000  -0.000000e+000
    outer loop
      vertex  4.580000e+001  4.550900e+001  0.000000e+000
      vertex -4.580000e+001  4.550900e+001  1.230000e+002
      vertex  4.580000e+001  4.550900e+001  1.230000e+002
    endloop
  endfacet
  facet normal  0.000000e+000 -1.000000e+000  -0.000000e+000
    outer loop
      vertex  6.100000e+001  4.000900e+001  0.000000e+000
      vertex  6.100000e+001  4.000900e+001  1.186000e+002
      vertex -6.100000e+001  4.000900e+001  0.000000e+000
    endloop
  endfacet
  facet normal  0.000000e+000 -1.000000e+000  0.000000e+000
    outer loop
      vertex -6.100000e+001  4.000900e+001  0.000000e+000
      vertex  6.100000e+001  4.000900e+001  1.186000e+002
      vertex -6.100000e+001  4.000900e+001  1.186000e+002
    endloop
  endfacet
  facet normal  0.000000e+000 -9.999999e-001  0.000000e+000
    outer loop
      vertex -6.150000e+001  4.230900e+001  0.000000e+000
      vertex -6.100000e+001  4.230900e+001  0.000000e+000
      vertex -6.150000e+001  4.230900e+001  1.230000e+002
    endloop
  endfacet
  facet normal  0.000000e+000 -9.999999e-001  0.000000e+000
    outer loop
      vertex -6.150000e+001  4.230900e+001  1.230000e+002
      vertex -6.100000e+001  4.230900e+001  0.000000e+000
      vertex -6.100000e+001  4.230900e+001  1.230000e+002
    endloop
  endfacet
  facet normal  9.999999e-001  0.000000e+000  0.000000e+000
    outer loop
      vertex -4.580000e+001  4.550900e+001  0.000000e+000
      vertex -4.580000e+001  4.650900e+001  0.000000e+000
      vertex -4.580000e+001  4.550900e+001  1.230000e+002
    endloop
  endfacet
  facet normal  9.999999e-001  -0.000000e+000  0.000000e+000
    outer loop
      vertex -4.580000e+001  4.550900e+001  1.230000e+002
      vertex -4.580000e+001  4.650900e+001  0.000000e+000
      vertex -4.580000e+001  4.650900e+001  1.230000e+002
    endloop
  endfacet
  facet normal  0.000000e+000 -9.999999e-001  0.000000e+000
    outer loop
      vertex  6.100000e+001  4.230900e+001  0.000000e+000
      vertex  6.150000e+001  4.230900e+001  0.000000e+000
      vertex  6.100000e+001  4.230900e+001  1.230000e+002
    endloop
  endfacet
  facet normal  0.000000e+000 -9.999999e-001  0.000000e+000
    outer loop
      vertex  6.100000e+001  4.230900e+001  1.230000e+002
      vertex  6.150000e+001  4.230900e+001  0.000000e+000
      vertex  6.150000e+001  4.230900e+001  1.230000e+002
    endloop
  endfacet
  facet normal -9.999999e-001  0.000000e+000  0.000000e+000
    outer loop
      vertex  4.580000e+001  4.550900e+001  0.000000e+000
      vertex  4.580000e+001  4.550900e+001  1.230000e+002
      vertex  4.580000e+001  4.650900e+001  0.000000e+000
    endloop
  endfacet
  facet normal -9.999999e-001  0.000000e+000  0.000000e+000
    outer loop
      vertex  4.580000e+001  4.650900e+001  0.000000e+000
      vertex  4.580000e+001  4.550900e+001  1.230000e+002
      vertex  4.580000e+001  4.650900e+001  1.230000e+002
    endloop
  endfacet
  facet normal  0.000000e+000  1.000000e+000  0.000000e+000
    outer loop
      vertex -4.580000e+001  4.650900e+001  0.000000e+000
      vertex -6.150000e+001  4.650900e+001  0.000000e+000
      vertex -4.580000e+001  4.650900e+001  1.230000e+002
    endloop
  endfacet
  facet normal  0.000000e+000  1.000000e+000  0.000000e+000
    outer loop
      vertex -4.580000e+001  4.650900e+001  1.230000e+002
      vertex -6.150000e+001  4.650900e+001  0.000000e+000
      vertex -6.150000e+001  4.650900e+001  1.230000e+002
    endloop
  endfacet
  facet normal -1.000000e+000  0.000000e+000  0.000000e+000
    outer loop
      vertex -6.150000e+001  4.650900e+001  0.000000e+000
      vertex -6.150000e+001  4.230900e+001  0.000000e+000
      vertex -6.150000e+001  4.650900e+001  1.230000e+002
    endloop
  endfacet
  facet normal -1.000000e+000  -0.000000e+000  0.000000e+000
    outer loop
      vertex -6.150000e+001  4.650900e+001  1.230000e+002
      vertex -6.150000e+001  4.230900e+001  0.000000e+000
      vertex -6.150000e+001  4.230900e+001  1.230000e+002
    endloop
  endfacet
  facet normal  0.000000e+000  0.000000e+000 -1.000000e+000
    outer loop
      vertex -6.150000e+001 -5.300000e+001  0.000000e+000
      vertex -6.150000e+001 -3.500000e+001  0.000000e+000
      vertex -4.430000e+001 -4.839127e+001  0.000000e+000
    endloop
  endfacet
  facet normal  0.000000e+000  0.000000e+000 -1.000000e+000
    outer loop
      vertex -4.430000e+001 -4.839127e+001  0.000000e+000
      vertex -6.150000e+001 -3.500000e+001  0.000000e+000
      vertex -4.430000e+001 -3.500000e+001  0.000000e+000
    endloop
  endfacet
  facet normal -1.000000e+000  0.000000e+000  0.000000e+000
    outer loop
      vertex -6.150000e+001 -3.500000e+001  0.000000e+000
      vertex -6.150000e+001 -5.300000e+001  0.000000e+000
      vertex -6.150000e+001 -3.500000e+001  1.230000e+002
    endloop
  endfacet
  facet normal -1.000000e+000  -0.000000e+000  0.000000e+000
    outer loop
      vertex -6.150000e+001 -3.500000e+001  1.230000e+002
      vertex -6.150000e+001 -5.300000e+001  0.000000e+000
      vertex -6.150000e+001 -5.300000e+001  1.230000e+002
    endloop
  endfacet
  facet normal  2.588190e-001 -9.659258e-001  0.000000e+000
    outer loop
      vertex -6.150000e+001 -5.300000e+001  0.000000e+000
      vertex -4.430000e+001 -4.839127e+001  0.000000e+000
      vertex -6.150000e+001 -5.300000e+001  1.230000e+002
    endloop
  endfacet
  facet normal  2.588190e-001 -9.659258e-001  0.000000e+000
    outer loop
      vertex -6.150000e+001 -5.300000e+001  1.230000e+002
      vertex -4.430000e+001 -4.839127e+001  0.000000e+000
      vertex -4.430000e+001 -4.839127e+001  1.230000e+002
    endloop
  endfacet
  facet normal  0.000000e+000  1.000000e+000  0.000000e+000
    outer loop
      vertex  6.150000e+001  4.650900e+001  0.000000e+000
      vertex  4.580000e+001  4.650900e+001  0.000000e+000
      vertex  6.150000e+001  4.650900e+001  1.230000e+002
    endloop
  endfacet
  facet normal  0.000000e+000  1.000000e+000  0.000000e+000
    outer loop
      vertex  6.150000e+001  4.650900e+001  1.230000e+002
      vertex  4.580000e+001  4.650900e+001  0.000000e+000
      vertex  4.580000e+001  4.650900e+001  1.230000e+002
    endloop
  endfacet
  facet normal  1.000000e+000  0.000000e+000  0.000000e+000
    outer loop
      vertex  6.150000e+001  4.650900e+001  0.000000e+000
      vertex  6.150000e+001  4.650900e+001  1.230000e+002
      vertex  6.150000e+001  4.230900e+001  0.000000e+000
    endloop
  endfacet
  facet normal  1.000000e+000  0.000000e+000  0.000000e+000
    outer loop
      vertex  6.150000e+001  4.230900e+001  0.000000e+000
      vertex  6.150000e+001  4.650900e+001  1.230000e+002
      vertex  6.150000e+001  4.230900e+001  1.230000e+002
    endloop
  endfacet
  facet normal  0.000000e+000  0.000000e+000 -1.000000e+000
    outer loop
      vertex  4.430000e+001 -4.839127e+001  0.000000e+000
      vertex  4.430000e+001 -3.500000e+001  0.000000e+000
      vertex  6.150000e+001 -5.300000e+001  0.000000e+000
    endloop
  endfacet
  facet normal  0.000000e+000  0.000000e+000 -1.000000e+000
    outer loop
      vertex  6.150000e+001 -5.300000e+001  0.000000e+000
      vertex  4.430000e+001 -3.500000e+001  0.000000e+000
      vertex  6.150000e+001 -3.500000e+001  0.000000e+000
    endloop
  endfacet
  facet normal  1.000000e+000  0.000000e+000  0.000000e+000
    outer loop
      vertex  6.150000e+001 -3.500000e+001  0.000000e+000
      vertex  6.150000e+001 -3.500000e+001  1.230000e+002
      vertex  6.150000e+001 -5.300000e+001  0.000000e+000
    endloop
  endfacet
  facet normal  1.000000e+000  0.000000e+000  0.000000e+000
    outer loop
      vertex  6.150000e+001 -5.300000e+001  0.000000e+000
      vertex  6.150000e+001 -3.500000e+001  1.230000e+002
      vertex  6.150000e+001 -5.300000e+001  1.230000e+002
    endloop
  endfacet
  facet normal -2.588190e-001 -9.659258e-001  -0.000000e+000
    outer loop
      vertex  6.150000e+001 -5.300000e+001  0.000000e+000
      vertex  6.150000e+001 -5.300000e+001  1.230000e+002
      vertex  4.430000e+001 -4.839127e+001  0.000000e+000
    endloop
  endfacet
  facet normal -2.588190e-001 -9.659258e-001  0.000000e+000
    outer loop
      vertex  4.430000e+001 -4.839127e+001  0.000000e+000
      vertex  6.150000e+001 -5.300000e+001  1.230000e+002
      vertex  4.430000e+001 -4.839127e+001  1.230000e+002
    endloop
  endfacet
endsolid CATIA STL
