<?xml version="1.0" encoding="utf-8" ?><!DOCTYPE svg PUBLIC "-//W3C//DTD SVG 1.1//EN" "http://www.w3.org/Graphics/SVG/1.1/DTD/svg11.dtd" 
[ <!ATTLIST svg 
  xmlns:dsy CDATA #FIXED "http://www.3ds.com/print"  
    dsy:text-version CDATA #IMPLIED > 

  <!ATTLIST text 
  xmlns:dsy CDATA #FIXED "http://www.3ds.com/print" 
    dsy:text-version CDATA #IMPLIED > 
]><svg xmlns="http://www.w3.org/2000/svg" xmlns:dsy="http://www.3ds.com/print" dsy:text-version="18000" width="420" height="297" viewBox="0 0 420 297" version="1.1"><g stroke="rgb(0, 0, 0)" stroke-width="0.13" stroke-linecap="butt" stroke-linejoin="miter" fill="none"><path d="M 167.825 139.946 L 167.825 124.428"/><path d="M 257.825 139.946 L 257.825 124.428"/></g><g stroke="rgb(0, 0, 0)" stroke-width="0.35" stroke-linecap="butt" stroke-linejoin="miter" fill="none"><path d="M 47.626 16.1096 A 5 5 0 0 0 42.626 21.1096"/><path d="M 47.626 16.1096 L 137.626 16.1096"/><path d="M 142.626 21.1096 A 5 5 0 0 0 137.626 16.1096"/><path d="M 42.626 21.1096 L 42.626 191.11"/><path d="M 42.626 191.11 A 5 5 0 0 0 47.626 196.11"/><path d="M 142.626 191.11 L 142.626 21.1096"/><path d="M 137.626 196.11 L 47.626 196.11"/><path d="M 137.626 196.11 A 5 5 0 0 0 142.626 191.11"/><path d="M 397.822 38.8617 L 397.822 180.233"/><path d="M 390.336 184.571 A 5 5 0 0 0 397.822 180.233"/><path d="M 291.769 77.4618 L 397.822 38.8617"/><path d="M 285.059 72.7633 A 5 5 0 0 0 291.769 77.4618"/><path d="M 262.573 111.345 L 390.336 184.571"/><path d="M 260.059 107.007 A 5 5 0 0 0 262.573 111.345"/><path d="M 285.059 34.9041 L 285.059 72.7633"/><path d="M 285.059 34.9041 A 5 5 0 0 0 280.059 29.9041"/><path d="M 260.059 34.9041 L 260.059 107.007"/><path d="M 265.059 29.9041 L 280.059 29.9041"/><path d="M 265.059 29.9041 A 5 5 0 0 0 260.059 34.9041"/><path d="M 257.825 141.946 A 5 5 0 0 0 252.825 136.946"/><path d="M 172.825 136.946 L 252.825 136.946"/><path d="M 172.825 136.946 A 5 5 0 0 0 167.825 141.946"/><path d="M 167.825 141.946 L 167.825 246.946"/><path d="M 167.825 246.946 A 5 5 0 0 0 172.825 251.946"/><path d="M 257.825 246.946 L 257.825 141.946"/><path d="M 252.825 251.946 L 172.825 251.946"/><path d="M 252.825 251.946 A 5 5 0 0 0 257.825 246.946"/></g><g stroke="rgb(0, 0, 0)" stroke-width="0.13" stroke-linecap="butt" stroke-linejoin="miter" fill="none"><path d="M 95.0215 204.461 L 94.144 207.442 L 93.2413 204.461 L 92.7622 204.461 L 93.8919 207.966 L 94.3962 207.966 L 95.5007 204.461 L 95.0215 204.461 L 95.0215 204.461 z M 98.224 205.258 L 97.7802 205.258 L 97.7802 206.821 L 97.7298 207.185 L 97.5835 207.447 L 97.3566 207.608 L 97.059 207.659 L 96.822 207.618 L 96.6707 207.497 L 96.585 207.29 L 96.5648 206.998 L 96.5648 205.258 L 96.121 205.258 L 96.121 207.038 L 96.1361 207.396 L 96.2319 207.694 L 96.5244 207.966 L 96.9935 208.062 L 97.2456 208.027 L 97.4625 207.936 L 97.6491 207.78 L 97.8004 207.553 L 97.8004 207.966 L 98.224 207.966 L 98.224 205.258 L 98.224 205.258 z M 99.5605 206.741 L 101.336 206.741 L 101.341 206.534 L 101.26 205.954 L 101.038 205.52 L 100.685 205.258 L 100.216 205.162 L 99.7571 205.263 L 99.4041 205.546 L 99.1772 206.004 L 99.0965 206.61 L 99.1721 207.23 L 99.3991 207.684 L 99.7471 207.966 L 100.201 208.062 L 100.594 207.997 L 100.917 207.825 L 101.154 207.553 L 101.29 207.19 L 100.852 207.19 L 100.761 207.391 L 100.63 207.543 L 100.256 207.664 L 99.969 207.608 L 99.7521 207.432 L 99.6109 207.144 L 99.5605 206.756 L 99.5605 206.741 L 99.5605 206.741 z M 99.5605 206.368 L 99.6159 206.02 L 99.7521 205.762 L 99.9589 205.606 L 100.231 205.551 L 100.498 205.606 L 100.705 205.762 L 100.831 206.02 L 100.877 206.368 L 99.5605 206.368 L 99.5605 206.368 z M 106.908 207.548 L 106.908 207.966 L 107.352 207.966 L 107.352 204.345 L 106.913 204.345 L 106.913 205.672 L 106.576 205.288 L 106.369 205.198 L 106.132 205.162 L 105.703 205.263 L 105.37 205.546 L 105.153 205.999 L 105.078 206.61 L 105.153 207.22 L 105.37 207.679 L 105.703 207.966 L 106.132 208.062 L 106.369 208.027 L 106.581 207.936 L 106.908 207.548 L 106.908 207.548 z M 106.207 205.561 L 106.5 205.631 L 106.722 205.828 L 106.853 206.156 L 106.903 206.61 L 106.853 207.069 L 106.722 207.396 L 106.5 207.598 L 106.207 207.664 L 105.93 207.598 L 105.718 207.396 L 105.577 207.064 L 105.532 206.61 L 105.577 206.161 L 105.718 205.833 L 105.93 205.631 L 106.207 205.561 L 106.207 205.561 z M 108.669 206.741 L 110.444 206.741 L 110.449 206.534 L 110.368 205.954 L 110.146 205.52 L 109.793 205.258 L 109.324 205.162 L 108.865 205.263 L 108.512 205.546 L 108.285 206.004 L 108.205 206.61 L 108.28 207.23 L 108.507 207.684 L 108.855 207.966 L 109.309 208.062 L 109.702 207.997 L 110.025 207.825 L 110.262 207.553 L 110.398 207.19 L 109.96 207.19 L 109.869 207.391 L 109.738 207.543 L 109.365 207.664 L 109.077 207.608 L 108.86 207.432 L 108.719 207.144 L 108.669 206.756 L 108.669 206.741 L 108.669 206.741 z M 108.669 206.368 L 108.724 206.02 L 108.86 205.762 L 109.067 205.606 L 109.339 205.551 L 109.607 205.606 L 109.813 205.762 L 109.939 206.02 L 109.985 206.368 L 108.669 206.368 L 108.669 206.368 z M 114.968 205.727 L 114.968 207.966 L 115.411 207.966 L 115.411 205.727 L 116.42 205.727 L 116.42 205.349 L 115.411 205.349 L 115.411 205.182 L 115.447 204.981 L 115.563 204.845 L 115.759 204.764 L 116.042 204.734 L 116.42 204.754 L 116.42 204.37 L 115.941 204.345 L 115.507 204.391 L 115.205 204.527 L 115.023 204.764 L 114.968 205.102 L 114.968 205.349 L 114.156 205.349 L 114.156 205.727 L 114.968 205.727 L 114.968 205.727 z M 118.997 207.613 L 118.997 207.628 L 119.022 207.8 L 119.098 207.921 L 119.416 208.017 L 119.663 207.976 L 119.663 207.633 L 119.557 207.649 L 119.416 207.583 L 119.39 207.381 L 119.39 205.979 L 119.33 205.621 L 119.153 205.369 L 118.846 205.218 L 118.412 205.162 L 117.988 205.223 L 117.676 205.394 L 117.479 205.662 L 117.414 206.015 L 117.414 206.045 L 117.812 206.045 L 117.847 205.833 L 117.958 205.682 L 118.14 205.591 L 118.397 205.556 L 118.644 205.581 L 118.821 205.656 L 118.926 205.788 L 118.962 205.969 L 118.942 206.181 L 118.861 206.287 L 118.659 206.337 L 118.281 206.378 L 117.847 206.468 L 117.54 206.63 L 117.358 206.882 L 117.303 207.255 L 117.353 207.588 L 117.509 207.835 L 117.761 207.991 L 118.109 208.047 L 118.578 207.941 L 118.997 207.613 L 118.997 207.613 z M 118.947 207.018 L 118.886 207.28 L 118.725 207.482 L 118.483 207.613 L 118.185 207.659 L 117.993 207.633 L 117.857 207.553 L 117.772 207.412 L 117.746 207.215 L 117.767 207.038 L 117.847 206.912 L 118.17 206.771 L 118.578 206.711 L 118.947 206.589 L 118.947 207.018 L 118.947 207.018 z M 122.149 206.156 L 122.588 206.156 L 122.497 205.752 L 122.28 205.435 L 121.942 205.238 L 121.504 205.162 L 121.019 205.263 L 120.651 205.546 L 120.419 206.004 L 120.339 206.62 L 120.414 207.23 L 120.641 207.684 L 120.999 207.966 L 121.488 208.062 L 121.922 207.986 L 122.26 207.775 L 122.492 207.442 L 122.593 206.998 L 122.169 206.998 L 122.094 207.28 L 121.952 207.492 L 121.751 207.623 L 121.504 207.664 L 121.196 207.598 L 120.974 207.396 L 120.838 207.069 L 120.792 206.605 L 120.838 206.151 L 120.979 205.823 L 121.206 205.621 L 121.504 205.551 L 121.766 205.596 L 121.962 205.712 L 122.094 205.904 L 122.149 206.156 L 122.149 206.156 z M 123.849 206.741 L 125.624 206.741 L 125.629 206.534 L 125.548 205.954 L 125.326 205.52 L 124.973 205.258 L 124.504 205.162 L 124.045 205.263 L 123.692 205.546 L 123.465 206.004 L 123.385 206.61 L 123.46 207.23 L 123.687 207.684 L 124.035 207.966 L 124.489 208.062 L 124.883 207.997 L 125.205 207.825 L 125.442 207.553 L 125.578 207.19 L 125.14 207.19 L 125.049 207.391 L 124.918 207.543 L 124.545 207.664 L 124.257 207.608 L 124.04 207.432 L 123.899 207.144 L 123.849 206.756 L 123.849 206.741 L 123.849 206.741 z M 123.849 206.368 L 123.904 206.02 L 124.04 205.762 L 124.247 205.606 L 124.519 205.551 L 124.787 205.606 L 124.993 205.762 L 125.12 206.02 L 125.165 206.368 L 123.849 206.368 L 123.849 206.368 z" stroke="none" fill-rule="evenodd" fill="rgb(0, 0, 0)"/></g><g stroke="rgb(0, 0, 0)" stroke-width="0.13" stroke-linecap="butt" stroke-linejoin="miter" fill="none"><path d="M 130.944 208.94 L 131.262 208.94 L 130.975 208.405 L 130.773 207.845 L 130.647 207.255 L 130.607 206.66 L 130.647 206.065 L 130.773 205.48 L 130.975 204.915 L 131.262 204.381 L 130.944 204.381 L 130.576 204.935 L 130.319 205.485 L 130.168 206.06 L 130.122 206.66 L 130.168 207.265 L 130.319 207.835 L 130.576 208.385 L 130.944 208.94 L 130.944 208.94 z M 132.891 207.966 L 133.587 206.912 L 134.303 207.966 L 134.838 207.966 L 133.87 206.569 L 134.782 205.258 L 134.268 205.258 L 133.607 206.241 L 132.947 205.258 L 132.422 205.258 L 133.32 206.574 L 132.372 207.966 L 132.891 207.966 L 132.891 207.966 z M 136.558 207.966 L 137.017 207.966 L 137.017 204.441 L 136.674 204.441 L 136.583 204.749 L 136.401 204.955 L 136.124 205.076 L 135.741 205.117 L 135.741 205.475 L 136.558 205.475 L 136.558 207.966 L 136.558 207.966 z M 139.321 208.94 L 139.684 208.385 L 139.942 207.835 L 140.093 207.265 L 140.143 206.66 L 140.093 206.06 L 139.942 205.485 L 139.684 204.935 L 139.321 204.381 L 139.004 204.381 L 139.286 204.915 L 139.488 205.48 L 139.609 206.065 L 139.654 206.66 L 139.609 207.255 L 139.488 207.845 L 139.281 208.405 L 139.004 208.94 L 139.321 208.94 L 139.321 208.94 z" stroke="none" fill-rule="evenodd" fill="rgb(0, 0, 0)"/></g><g stroke="rgb(0, 0, 0)" stroke-width="0.13" stroke-linecap="butt" stroke-linejoin="miter" fill="none"><path d="M 93.0849 214.013 L 95.304 214.013 L 95.304 213.589 L 93.5489 213.589 L 93.5489 212.404 L 95.1123 212.404 L 95.1123 211.986 L 93.5489 211.986 L 93.5489 210.937 L 95.2636 210.937 L 95.2636 210.513 L 93.0849 210.513 L 93.0849 214.013 L 93.0849 214.013 z M 97.8609 212.203 L 98.2997 212.203 L 98.2089 211.799 L 97.992 211.481 L 97.6541 211.285 L 97.2154 211.209 L 96.7312 211.31 L 96.3631 211.592 L 96.1311 212.051 L 96.0504 212.667 L 96.126 213.277 L 96.353 213.731 L 96.711 214.013 L 97.2002 214.109 L 97.6339 214.033 L 97.9718 213.821 L 98.2038 213.489 L 98.3047 213.045 L 97.8811 213.045 L 97.8054 213.327 L 97.6642 213.539 L 97.4625 213.67 L 97.2154 213.71 L 96.9077 213.645 L 96.6858 213.443 L 96.5497 213.115 L 96.5043 212.651 L 96.5497 212.198 L 96.6909 211.87 L 96.9178 211.668 L 97.2154 211.597 L 97.4776 211.643 L 97.6743 211.759 L 97.8054 211.95 L 97.8609 212.203 L 97.8609 212.203 z M 99.1721 214.013 L 99.6159 214.013 L 99.6159 212.45 L 99.6613 212.092 L 99.8076 211.829 L 100.035 211.668 L 100.337 211.607 L 100.579 211.658 L 100.73 211.794 L 100.806 212.021 L 100.831 212.324 L 100.831 214.013 L 101.275 214.013 L 101.275 212.233 L 101.255 211.875 L 101.164 211.577 L 100.867 211.305 L 100.403 211.209 L 100.151 211.244 L 99.9337 211.34 L 99.7521 211.491 L 99.6159 211.698 L 99.6159 210.392 L 99.1721 210.392 L 99.1721 214.013 L 99.1721 214.013 z M 102.596 212.788 L 104.372 212.788 L 104.377 212.581 L 104.296 212.001 L 104.074 211.567 L 103.721 211.305 L 103.252 211.209 L 102.793 211.31 L 102.44 211.592 L 102.213 212.051 L 102.133 212.656 L 102.208 213.277 L 102.435 213.731 L 102.783 214.013 L 103.237 214.109 L 103.63 214.043 L 103.953 213.872 L 104.19 213.6 L 104.326 213.236 L 103.888 213.236 L 103.797 213.438 L 103.666 213.589 L 103.292 213.71 L 103.005 213.655 L 102.788 213.479 L 102.647 213.191 L 102.596 212.803 L 102.596 212.788 L 102.596 212.788 z M 102.596 212.414 L 102.652 212.066 L 102.788 211.809 L 102.995 211.653 L 103.267 211.597 L 103.535 211.653 L 103.741 211.809 L 103.867 212.066 L 103.913 212.414 L 102.596 212.414 L 102.596 212.414 z M 106.127 210.765 L 106.127 213.64 L 105.214 213.64 L 105.214 214.013 L 107.478 214.013 L 107.478 213.64 L 106.571 213.64 L 106.571 210.392 L 105.431 210.392 L 105.431 210.765 L 106.127 210.765 L 106.127 210.765 z M 109.163 210.765 L 109.163 213.64 L 108.25 213.64 L 108.25 214.013 L 110.514 214.013 L 110.514 213.64 L 109.607 213.64 L 109.607 210.392 L 108.467 210.392 L 108.467 210.765 L 109.163 210.765 L 109.163 210.765 z M 111.705 212.788 L 113.48 212.788 L 113.485 212.581 L 113.404 212.001 L 113.182 211.567 L 112.829 211.305 L 112.36 211.209 L 111.901 211.31 L 111.548 211.592 L 111.321 212.051 L 111.241 212.656 L 111.316 213.277 L 111.543 213.731 L 111.891 214.013 L 112.345 214.109 L 112.738 214.043 L 113.061 213.872 L 113.298 213.6 L 113.434 213.236 L 112.996 213.236 L 112.905 213.438 L 112.774 213.589 L 112.401 213.71 L 112.113 213.655 L 111.896 213.479 L 111.755 213.191 L 111.705 212.803 L 111.705 212.788 L 111.705 212.788 z M 111.705 212.414 L 111.76 212.066 L 111.896 211.809 L 112.103 211.653 L 112.375 211.597 L 112.643 211.653 L 112.849 211.809 L 112.975 212.066 L 113.021 212.414 L 111.705 212.414 L 111.705 212.414 z M 118.084 214.013 L 118.78 214.013 L 118.78 213.262 L 118.084 213.262 L 118.084 214.013 L 118.084 214.013 z M 118.084 212.056 L 118.78 212.056 L 118.78 211.305 L 118.084 211.305 L 118.084 212.056 L 118.084 212.056 z" stroke="none" fill-rule="evenodd" fill="rgb(0, 0, 0)"/></g><g stroke="rgb(0, 0, 0)" stroke-width="0.13" stroke-linecap="butt" stroke-linejoin="miter" fill="none"><path d="M 127.449 214.013 L 127.908 214.013 L 127.908 210.488 L 127.565 210.488 L 127.475 210.796 L 127.293 211.002 L 127.016 211.123 L 126.632 211.164 L 126.632 211.522 L 127.449 211.522 L 127.449 214.013 L 127.449 214.013 z M 130.228 214.013 L 130.924 214.013 L 130.924 213.262 L 130.228 213.262 L 130.228 214.013 L 130.228 214.013 z M 130.228 212.056 L 130.924 212.056 L 130.924 211.305 L 130.228 211.305 L 130.228 212.056 L 130.228 212.056 z M 133.522 214.013 L 133.98 214.013 L 133.98 210.488 L 133.638 210.488 L 133.547 210.796 L 133.365 211.002 L 133.088 211.123 L 132.705 211.164 L 132.705 211.522 L 133.522 211.522 L 133.522 214.013 L 133.522 214.013 z" stroke="none" fill-rule="evenodd" fill="rgb(0, 0, 0)"/></g><g stroke="rgb(0, 0, 0)" stroke-width="0.13" stroke-linecap="butt" stroke-linejoin="miter" fill="none"><path d="M 282.455 171.256 L 281.577 174.236 L 280.674 171.256 L 280.195 171.256 L 281.325 174.761 L 281.829 174.761 L 282.934 171.256 L 282.455 171.256 L 282.455 171.256 z M 285.657 172.052 L 285.213 172.052 L 285.213 173.616 L 285.163 173.979 L 285.017 174.241 L 284.79 174.403 L 284.492 174.453 L 284.255 174.413 L 284.104 174.292 L 284.018 174.085 L 283.998 173.792 L 283.998 172.052 L 283.554 172.052 L 283.554 173.833 L 283.569 174.191 L 283.665 174.488 L 283.957 174.761 L 284.426 174.857 L 284.679 174.821 L 284.895 174.73 L 285.082 174.574 L 285.233 174.347 L 285.233 174.761 L 285.657 174.761 L 285.657 172.052 L 285.657 172.052 z M 286.993 173.535 L 288.769 173.535 L 288.774 173.328 L 288.693 172.748 L 288.471 172.315 L 288.118 172.052 L 287.649 171.957 L 287.19 172.058 L 286.837 172.34 L 286.61 172.799 L 286.529 173.404 L 286.605 174.024 L 286.832 174.478 L 287.18 174.761 L 287.634 174.857 L 288.027 174.791 L 288.35 174.619 L 288.587 174.347 L 288.723 173.984 L 288.285 173.984 L 288.194 174.186 L 288.063 174.337 L 287.689 174.458 L 287.402 174.403 L 287.185 174.226 L 287.044 173.939 L 286.993 173.55 L 286.993 173.535 L 286.993 173.535 z M 286.993 173.162 L 287.049 172.814 L 287.185 172.557 L 287.392 172.4 L 287.664 172.345 L 287.932 172.4 L 288.138 172.557 L 288.264 172.814 L 288.31 173.162 L 286.993 173.162 L 286.993 173.162 z M 294.341 174.342 L 294.341 174.761 L 294.785 174.761 L 294.785 171.14 L 294.347 171.14 L 294.347 172.466 L 294.009 172.083 L 293.802 171.992 L 293.565 171.957 L 293.136 172.058 L 292.803 172.34 L 292.586 172.794 L 292.511 173.404 L 292.586 174.014 L 292.803 174.473 L 293.136 174.761 L 293.565 174.857 L 293.802 174.821 L 294.014 174.73 L 294.341 174.342 L 294.341 174.342 z M 293.64 172.355 L 293.933 172.426 L 294.155 172.622 L 294.286 172.95 L 294.336 173.404 L 294.286 173.863 L 294.155 174.191 L 293.933 174.393 L 293.64 174.458 L 293.363 174.393 L 293.151 174.191 L 293.01 173.858 L 292.965 173.404 L 293.01 172.955 L 293.151 172.627 L 293.363 172.426 L 293.64 172.355 L 293.64 172.355 z M 296.102 173.535 L 297.877 173.535 L 297.882 173.328 L 297.801 172.748 L 297.579 172.315 L 297.226 172.052 L 296.757 171.957 L 296.298 172.058 L 295.945 172.34 L 295.718 172.799 L 295.638 173.404 L 295.713 174.024 L 295.94 174.478 L 296.288 174.761 L 296.742 174.857 L 297.135 174.791 L 297.458 174.619 L 297.695 174.347 L 297.831 173.984 L 297.393 173.984 L 297.302 174.186 L 297.171 174.337 L 296.798 174.458 L 296.51 174.403 L 296.293 174.226 L 296.152 173.939 L 296.102 173.55 L 296.102 173.535 L 296.102 173.535 z M 296.102 173.162 L 296.157 172.814 L 296.293 172.557 L 296.5 172.4 L 296.772 172.345 L 297.04 172.4 L 297.246 172.557 L 297.372 172.814 L 297.418 173.162 L 296.102 173.162 L 296.102 173.162 z M 302.401 172.522 L 302.401 174.761 L 302.844 174.761 L 302.844 172.522 L 303.853 172.522 L 303.853 172.143 L 302.844 172.143 L 302.844 171.977 L 302.88 171.775 L 302.996 171.639 L 303.192 171.558 L 303.475 171.528 L 303.853 171.548 L 303.853 171.165 L 303.374 171.14 L 302.94 171.185 L 302.638 171.321 L 302.456 171.558 L 302.401 171.896 L 302.401 172.143 L 301.589 172.143 L 301.589 172.522 L 302.401 172.522 L 302.401 172.522 z M 306.43 174.408 L 306.43 174.423 L 306.455 174.594 L 306.531 174.715 L 306.849 174.811 L 307.096 174.771 L 307.096 174.428 L 306.99 174.443 L 306.849 174.377 L 306.824 174.176 L 306.824 172.774 L 306.763 172.416 L 306.587 172.163 L 306.279 172.012 L 305.845 171.957 L 305.422 172.017 L 305.109 172.189 L 304.912 172.456 L 304.847 172.809 L 304.847 172.839 L 305.245 172.839 L 305.28 172.627 L 305.391 172.476 L 305.573 172.385 L 305.83 172.35 L 306.077 172.375 L 306.254 172.451 L 306.36 172.582 L 306.395 172.764 L 306.375 172.975 L 306.294 173.081 L 306.092 173.132 L 305.714 173.172 L 305.28 173.263 L 304.973 173.424 L 304.791 173.676 L 304.736 174.05 L 304.786 174.382 L 304.942 174.63 L 305.195 174.786 L 305.543 174.841 L 306.012 174.735 L 306.43 174.408 L 306.43 174.408 z M 306.38 173.813 L 306.319 174.075 L 306.158 174.277 L 305.916 174.408 L 305.618 174.453 L 305.427 174.428 L 305.29 174.347 L 305.205 174.206 L 305.179 174.009 L 305.2 173.833 L 305.28 173.707 L 305.603 173.565 L 306.012 173.505 L 306.38 173.384 L 306.38 173.813 L 306.38 173.813 z M 309.582 172.95 L 310.021 172.95 L 309.93 172.547 L 309.713 172.229 L 309.375 172.032 L 308.937 171.957 L 308.453 172.058 L 308.084 172.34 L 307.852 172.799 L 307.772 173.414 L 307.847 174.024 L 308.074 174.478 L 308.432 174.761 L 308.922 174.857 L 309.355 174.781 L 309.693 174.569 L 309.925 174.236 L 310.026 173.792 L 309.602 173.792 L 309.527 174.075 L 309.386 174.287 L 309.184 174.418 L 308.937 174.458 L 308.629 174.393 L 308.407 174.191 L 308.271 173.863 L 308.226 173.399 L 308.271 172.945 L 308.412 172.617 L 308.639 172.416 L 308.937 172.345 L 309.199 172.39 L 309.396 172.506 L 309.527 172.698 L 309.582 172.95 L 309.582 172.95 z M 311.282 173.535 L 313.057 173.535 L 313.062 173.328 L 312.981 172.748 L 312.759 172.315 L 312.406 172.052 L 311.937 171.957 L 311.478 172.058 L 311.125 172.34 L 310.898 172.799 L 310.818 173.404 L 310.893 174.024 L 311.12 174.478 L 311.468 174.761 L 311.922 174.857 L 312.316 174.791 L 312.638 174.619 L 312.875 174.347 L 313.012 173.984 L 312.573 173.984 L 312.482 174.186 L 312.351 174.337 L 311.978 174.458 L 311.69 174.403 L 311.473 174.226 L 311.332 173.939 L 311.282 173.55 L 311.282 173.535 L 311.282 173.535 z M 311.282 173.162 L 311.337 172.814 L 311.473 172.557 L 311.68 172.4 L 311.953 172.345 L 312.22 172.4 L 312.427 172.557 L 312.553 172.814 L 312.598 173.162 L 311.282 173.162 L 311.282 173.162 z" stroke="none" fill-rule="evenodd" fill="rgb(0, 0, 0)"/></g><g stroke="rgb(0, 0, 0)" stroke-width="0.13" stroke-linecap="butt" stroke-linejoin="miter" fill="none"><path d="M 318.377 175.734 L 318.695 175.734 L 318.408 175.199 L 318.206 174.64 L 318.08 174.05 L 318.04 173.455 L 318.08 172.859 L 318.206 172.274 L 318.408 171.71 L 318.695 171.175 L 318.377 171.175 L 318.009 171.73 L 317.752 172.279 L 317.601 172.854 L 317.555 173.455 L 317.601 174.06 L 317.752 174.63 L 318.009 175.179 L 318.377 175.734 L 318.377 175.734 z M 320.324 174.761 L 321.02 173.707 L 321.736 174.761 L 322.271 174.761 L 321.303 173.364 L 322.215 172.052 L 321.701 172.052 L 321.04 173.036 L 320.38 172.052 L 319.855 172.052 L 320.753 173.369 L 319.805 174.761 L 320.324 174.761 L 320.324 174.761 z M 324.359 174.761 L 324.813 174.761 L 324.813 173.893 L 325.312 173.893 L 325.312 173.49 L 324.813 173.49 L 324.813 171.336 L 324.354 171.336 L 322.821 173.449 L 322.821 173.893 L 324.359 173.893 L 324.359 174.761 L 324.359 174.761 z M 323.244 173.49 L 324.359 171.921 L 324.359 173.49 L 323.244 173.49 L 323.244 173.49 z M 326.754 175.734 L 327.117 175.179 L 327.375 174.63 L 327.526 174.06 L 327.576 173.455 L 327.526 172.854 L 327.375 172.279 L 327.117 171.73 L 326.754 171.175 L 326.437 171.175 L 326.719 171.71 L 326.921 172.274 L 327.042 172.859 L 327.087 173.455 L 327.042 174.05 L 326.921 174.64 L 326.714 175.199 L 326.437 175.734 L 326.754 175.734 L 326.754 175.734 z" stroke="none" fill-rule="evenodd" fill="rgb(0, 0, 0)"/></g><g stroke="rgb(0, 0, 0)" stroke-width="0.13" stroke-linecap="butt" stroke-linejoin="miter" fill="none"><path d="M 280.518 180.808 L 282.737 180.808 L 282.737 180.384 L 280.982 180.384 L 280.982 179.199 L 282.545 179.199 L 282.545 178.78 L 280.982 178.78 L 280.982 177.731 L 282.697 177.731 L 282.697 177.308 L 280.518 177.308 L 280.518 180.808 L 280.518 180.808 z M 285.294 178.997 L 285.733 178.997 L 285.642 178.594 L 285.425 178.276 L 285.087 178.079 L 284.648 178.004 L 284.164 178.104 L 283.796 178.387 L 283.564 178.846 L 283.483 179.461 L 283.559 180.071 L 283.786 180.525 L 284.144 180.808 L 284.633 180.903 L 285.067 180.828 L 285.405 180.616 L 285.637 180.283 L 285.738 179.839 L 285.314 179.839 L 285.238 180.122 L 285.097 180.333 L 284.895 180.465 L 284.648 180.505 L 284.341 180.439 L 284.119 180.238 L 283.983 179.91 L 283.937 179.446 L 283.983 178.992 L 284.124 178.664 L 284.351 178.462 L 284.648 178.392 L 284.911 178.437 L 285.107 178.553 L 285.238 178.745 L 285.294 178.997 L 285.294 178.997 z M 286.605 180.808 L 287.049 180.808 L 287.049 179.244 L 287.094 178.886 L 287.241 178.624 L 287.468 178.462 L 287.77 178.402 L 288.012 178.452 L 288.164 178.589 L 288.239 178.815 L 288.264 179.118 L 288.264 180.808 L 288.708 180.808 L 288.708 179.027 L 288.688 178.669 L 288.597 178.372 L 288.3 178.099 L 287.836 178.004 L 287.584 178.039 L 287.367 178.135 L 287.185 178.286 L 287.049 178.493 L 287.049 177.186 L 286.605 177.186 L 286.605 180.808 L 286.605 180.808 z M 290.03 179.582 L 291.805 179.582 L 291.81 179.375 L 291.729 178.795 L 291.507 178.362 L 291.154 178.099 L 290.685 178.004 L 290.226 178.104 L 289.873 178.387 L 289.646 178.846 L 289.566 179.451 L 289.641 180.071 L 289.868 180.525 L 290.216 180.808 L 290.67 180.903 L 291.063 180.838 L 291.386 180.666 L 291.623 180.394 L 291.759 180.031 L 291.321 180.031 L 291.23 180.233 L 291.099 180.384 L 290.725 180.505 L 290.438 180.449 L 290.221 180.273 L 290.08 179.985 L 290.03 179.597 L 290.03 179.582 L 290.03 179.582 z M 290.03 179.209 L 290.085 178.861 L 290.221 178.604 L 290.428 178.447 L 290.7 178.392 L 290.968 178.447 L 291.174 178.604 L 291.3 178.861 L 291.346 179.209 L 290.03 179.209 L 290.03 179.209 z M 293.56 177.56 L 293.56 180.434 L 292.647 180.434 L 292.647 180.808 L 294.911 180.808 L 294.911 180.434 L 294.004 180.434 L 294.004 177.186 L 292.864 177.186 L 292.864 177.56 L 293.56 177.56 L 293.56 177.56 z M 296.596 177.56 L 296.596 180.434 L 295.683 180.434 L 295.683 180.808 L 297.947 180.808 L 297.947 180.434 L 297.04 180.434 L 297.04 177.186 L 295.9 177.186 L 295.9 177.56 L 296.596 177.56 L 296.596 177.56 z M 299.138 179.582 L 300.913 179.582 L 300.918 179.375 L 300.837 178.795 L 300.615 178.362 L 300.262 178.099 L 299.793 178.004 L 299.334 178.104 L 298.981 178.387 L 298.754 178.846 L 298.674 179.451 L 298.749 180.071 L 298.976 180.525 L 299.324 180.808 L 299.778 180.903 L 300.172 180.838 L 300.494 180.666 L 300.731 180.394 L 300.867 180.031 L 300.429 180.031 L 300.338 180.233 L 300.207 180.384 L 299.834 180.505 L 299.546 180.449 L 299.329 180.273 L 299.188 179.985 L 299.138 179.597 L 299.138 179.582 L 299.138 179.582 z M 299.138 179.209 L 299.193 178.861 L 299.329 178.604 L 299.536 178.447 L 299.808 178.392 L 300.076 178.447 L 300.282 178.604 L 300.409 178.861 L 300.454 179.209 L 299.138 179.209 L 299.138 179.209 z M 305.517 180.808 L 306.213 180.808 L 306.213 180.056 L 305.517 180.056 L 305.517 180.808 L 305.517 180.808 z M 305.517 178.851 L 306.213 178.851 L 306.213 178.099 L 305.517 178.099 L 305.517 178.851 L 305.517 178.851 z" stroke="none" fill-rule="evenodd" fill="rgb(0, 0, 0)"/></g><g stroke="rgb(0, 0, 0)" stroke-width="0.13" stroke-linecap="butt" stroke-linejoin="miter" fill="none"><path d="M 314.883 180.808 L 315.341 180.808 L 315.341 177.282 L 314.999 177.282 L 314.908 177.59 L 314.726 177.797 L 314.449 177.918 L 314.066 177.958 L 314.066 178.316 L 314.883 178.316 L 314.883 180.808 L 314.883 180.808 z M 317.661 180.808 L 318.357 180.808 L 318.357 180.056 L 317.661 180.056 L 317.661 180.808 L 317.661 180.808 z M 317.661 178.851 L 318.357 178.851 L 318.357 178.099 L 317.661 178.099 L 317.661 178.851 L 317.661 178.851 z M 320.955 180.808 L 321.414 180.808 L 321.414 177.282 L 321.071 177.282 L 320.98 177.59 L 320.798 177.797 L 320.521 177.918 L 320.138 177.958 L 320.138 178.316 L 320.955 178.316 L 320.955 180.808 L 320.955 180.808 z" stroke="none" fill-rule="evenodd" fill="rgb(0, 0, 0)"/></g><g stroke="rgb(0, 0, 0)" stroke-width="0.13" stroke-linecap="butt" stroke-linejoin="miter" fill="none"><path d="M 295.693 243.78 L 297.019 243.78 L 297.019 239.558 L 298.488 239.558 L 299.973 239.486 L 301.154 238.982 L 301.918 238.002 L 302.177 236.662 L 301.975 235.423 L 301.399 234.515 L 300.448 233.967 L 299.151 233.78 L 295.693 233.78 L 295.693 243.78 L 295.693 243.78 z M 298.791 235.005 L 299.656 235.091 L 300.29 235.365 L 300.664 235.87 L 300.794 236.662 L 300.65 237.498 L 300.261 238.002 L 299.598 238.261 L 298.69 238.333 L 297.019 238.333 L 297.019 235.005 L 298.791 235.005 L 298.791 235.005 z M 304.05 239.918 L 304.281 241.676 L 304.944 242.973 L 305.996 243.78 L 307.408 244.054 L 308.805 243.78 L 309.857 242.988 L 310.52 241.691 L 310.765 239.918 L 310.52 238.161 L 309.857 236.849 L 308.805 236.057 L 307.408 235.769 L 305.996 236.057 L 304.944 236.864 L 304.281 238.161 L 304.05 239.918 L 304.05 239.918 z M 305.347 239.904 L 305.477 238.607 L 305.88 237.671 L 306.529 237.094 L 307.408 236.893 L 308.272 237.094 L 308.921 237.656 L 309.324 238.607 L 309.468 239.904 L 309.324 241.215 L 308.921 242.166 L 308.272 242.743 L 307.408 242.93 L 306.529 242.743 L 305.88 242.166 L 305.477 241.215 L 305.347 239.904 L 305.347 239.904 z M 313.575 243.78 L 314.843 243.78 L 314.843 239.357 L 314.973 238.29 L 315.362 237.527 L 315.996 237.065 L 316.846 236.907 L 317.48 237.008 L 317.955 237.296 L 318.243 237.786 L 318.344 238.449 L 319.627 238.449 L 319.454 237.282 L 318.978 236.446 L 318.186 235.942 L 317.105 235.769 L 316.37 235.884 L 315.736 236.172 L 315.174 236.662 L 314.728 237.325 L 314.728 236.042 L 313.575 236.042 L 313.575 243.78 L 313.575 243.78 z M 323.474 237.382 L 323.474 241.259 L 323.56 242.512 L 323.964 243.377 L 324.771 243.881 L 326.14 244.054 L 327.638 243.982 L 327.638 242.887 L 326.543 242.973 L 325.549 242.858 L 325.016 242.498 L 324.785 241.893 L 324.742 241.042 L 324.742 237.382 L 327.638 237.382 L 327.638 236.302 L 324.742 236.302 L 324.742 234.04 L 323.474 234.04 L 323.474 236.302 L 321.284 236.302 L 321.284 237.382 L 323.474 237.382 L 323.474 237.382 z M 331.558 240.279 L 336.63 240.279 L 336.644 239.688 L 336.413 238.031 L 335.779 236.792 L 334.771 236.042 L 333.431 235.769 L 332.12 236.057 L 331.111 236.864 L 330.462 238.175 L 330.232 239.904 L 330.448 241.676 L 331.096 242.973 L 332.091 243.78 L 333.388 244.054 L 334.511 243.867 L 335.434 243.377 L 336.111 242.599 L 336.5 241.561 L 335.246 241.561 L 334.987 242.138 L 334.612 242.57 L 333.546 242.916 L 332.725 242.757 L 332.105 242.253 L 331.702 241.431 L 331.558 240.322 L 331.558 240.279 L 331.558 240.279 z M 331.558 239.212 L 331.716 238.218 L 332.105 237.483 L 332.696 237.037 L 333.474 236.878 L 334.238 237.037 L 334.828 237.483 L 335.189 238.218 L 335.318 239.212 L 331.558 239.212 L 331.558 239.212 z M 350.117 243.78 L 351.457 243.78 L 354.281 236.042 L 352.97 236.042 L 350.794 242.282 L 348.575 236.042 L 347.249 236.042 L 350.117 243.78 L 350.117 243.78 z M 358.46 234.991 L 359.31 234.991 L 361.313 232.541 L 359.9 232.541 L 358.46 234.991 L 358.46 234.991 z M 357.581 240.279 L 362.653 240.279 L 362.667 239.688 L 362.436 238.031 L 361.802 236.792 L 360.794 236.042 L 359.454 235.769 L 358.143 236.057 L 357.134 236.864 L 356.485 238.175 L 356.255 239.904 L 356.471 241.676 L 357.119 242.973 L 358.114 243.78 L 359.411 244.054 L 360.534 243.867 L 361.457 243.377 L 362.134 242.599 L 362.523 241.561 L 361.269 241.561 L 361.01 242.138 L 360.635 242.57 L 359.569 242.916 L 358.748 242.757 L 358.128 242.253 L 357.725 241.431 L 357.581 240.322 L 357.581 240.279 L 357.581 240.279 z M 357.581 239.212 L 357.739 238.218 L 358.128 237.483 L 358.719 237.037 L 359.497 236.878 L 360.261 237.037 L 360.851 237.483 L 361.212 238.218 L 361.341 239.212 L 357.581 239.212 L 357.581 239.212 z M 367.667 234.501 L 367.667 242.714 L 365.059 242.714 L 365.059 243.78 L 371.529 243.78 L 371.529 242.714 L 368.935 242.714 L 368.935 233.434 L 365.679 233.434 L 365.679 234.501 L 367.667 234.501 L 367.667 234.501 z M 373.445 239.918 L 373.676 241.676 L 374.339 242.973 L 375.39 243.78 L 376.802 244.054 L 378.2 243.78 L 379.252 242.988 L 379.915 241.691 L 380.16 239.918 L 379.915 238.161 L 379.252 236.849 L 378.2 236.057 L 376.802 235.769 L 375.39 236.057 L 374.339 236.864 L 373.676 238.161 L 373.445 239.918 L 373.445 239.918 z M 374.742 239.904 L 374.872 238.607 L 375.275 237.671 L 375.924 237.094 L 376.802 236.893 L 377.667 237.094 L 378.315 237.656 L 378.719 238.607 L 378.863 239.904 L 378.719 241.215 L 378.315 242.166 L 377.667 242.743 L 376.802 242.93 L 375.924 242.743 L 375.275 242.166 L 374.872 241.215 L 374.742 239.904 L 374.742 239.904 z M 393.157 243.78 L 395.145 243.78 L 395.145 241.633 L 393.157 241.633 L 393.157 243.78 L 393.157 243.78 z M 393.157 238.189 L 395.145 238.189 L 395.145 236.042 L 393.157 236.042 L 393.157 238.189 L 393.157 238.189 z" stroke="none" fill-rule="evenodd" fill="rgb(0, 0, 0)"/></g><g stroke="rgb(0, 0, 0)" stroke-width="0.13" stroke-linecap="butt" stroke-linejoin="miter" fill="none"><path d="M 291.889 261.057 L 293.157 261.057 L 293.157 256.633 L 293.287 255.567 L 293.676 254.803 L 294.31 254.342 L 295.16 254.184 L 295.794 254.284 L 296.269 254.573 L 296.558 255.063 L 296.658 255.725 L 297.941 255.725 L 297.768 254.558 L 297.292 253.723 L 296.5 253.218 L 295.419 253.045 L 294.684 253.161 L 294.05 253.449 L 293.488 253.939 L 293.042 254.601 L 293.042 253.319 L 291.889 253.319 L 291.889 261.057 L 291.889 261.057 z M 301.197 257.555 L 306.269 257.555 L 306.284 256.965 L 306.053 255.308 L 305.419 254.068 L 304.411 253.319 L 303.07 253.045 L 301.759 253.333 L 300.751 254.14 L 300.102 255.452 L 299.872 257.181 L 300.088 258.953 L 300.736 260.25 L 301.73 261.057 L 303.027 261.331 L 304.151 261.143 L 305.073 260.653 L 305.751 259.875 L 306.14 258.838 L 304.886 258.838 L 304.627 259.414 L 304.252 259.846 L 303.186 260.192 L 302.364 260.034 L 301.745 259.529 L 301.341 258.708 L 301.197 257.599 L 301.197 257.555 L 301.197 257.555 z M 301.197 256.489 L 301.356 255.495 L 301.745 254.76 L 302.336 254.313 L 303.114 254.155 L 303.877 254.313 L 304.468 254.76 L 304.828 255.495 L 304.958 256.489 L 301.197 256.489 L 301.197 256.489 z M 309.958 254.515 L 309.958 253.319 L 308.69 253.319 L 308.69 264.054 L 309.958 264.054 L 309.958 259.875 L 310.405 260.552 L 310.909 260.999 L 312.177 261.331 L 313.388 261.057 L 314.339 260.235 L 314.958 258.939 L 315.189 257.181 L 314.958 255.437 L 314.339 254.14 L 313.388 253.333 L 312.177 253.045 L 311.486 253.132 L 310.895 253.406 L 310.39 253.867 L 309.958 254.515 L 309.958 254.515 z M 311.961 260.192 L 311.111 260.005 L 310.491 259.429 L 310.102 258.492 L 309.973 257.181 L 310.102 255.884 L 310.491 254.947 L 311.111 254.385 L 311.961 254.184 L 312.739 254.385 L 313.359 254.962 L 313.748 255.898 L 313.892 257.181 L 313.748 258.478 L 313.359 259.429 L 312.739 260.005 L 311.961 260.192 L 311.961 260.192 z M 317.062 257.195 L 317.292 258.953 L 317.955 260.25 L 319.007 261.057 L 320.419 261.331 L 321.817 261.057 L 322.869 260.264 L 323.532 258.967 L 323.777 257.195 L 323.532 255.437 L 322.869 254.126 L 321.817 253.333 L 320.419 253.045 L 319.007 253.333 L 317.955 254.14 L 317.292 255.437 L 317.062 257.195 L 317.062 257.195 z M 318.359 257.181 L 318.488 255.884 L 318.892 254.947 L 319.54 254.371 L 320.419 254.169 L 321.284 254.371 L 321.932 254.933 L 322.336 255.884 L 322.48 257.181 L 322.336 258.492 L 321.932 259.443 L 321.284 260.019 L 320.419 260.207 L 319.54 260.019 L 318.892 259.443 L 318.488 258.492 L 318.359 257.181 L 318.359 257.181 z M 329.9 256.547 L 328.676 256.259 L 327.768 255.927 L 327.465 255.25 L 327.552 254.774 L 327.854 254.429 L 328.344 254.212 L 329.05 254.126 L 329.728 254.212 L 330.261 254.472 L 330.607 254.861 L 330.751 255.38 L 331.99 255.38 L 331.99 255.351 L 331.774 254.414 L 331.183 253.679 L 330.261 253.218 L 329.05 253.045 L 327.826 253.218 L 326.932 253.694 L 326.37 254.4 L 326.197 255.293 L 326.327 256.158 L 326.73 256.763 L 327.393 257.195 L 328.359 257.498 L 329.771 257.844 L 330.635 258.204 L 330.866 258.492 L 330.952 258.924 L 330.823 259.457 L 330.477 259.861 L 329.915 260.12 L 329.166 260.207 L 328.373 260.12 L 327.797 259.818 L 327.408 259.328 L 327.249 258.65 L 326.024 258.65 L 326.226 259.803 L 326.817 260.639 L 327.753 261.143 L 329.05 261.331 L 330.405 261.143 L 331.399 260.639 L 332.004 259.832 L 332.22 258.78 L 332.062 257.872 L 331.615 257.253 L 330.88 256.849 L 329.9 256.547 L 329.9 256.547 z M 335.895 257.555 L 340.967 257.555 L 340.981 256.965 L 340.751 255.308 L 340.117 254.068 L 339.108 253.319 L 337.768 253.045 L 336.457 253.333 L 335.448 254.14 L 334.8 255.452 L 334.569 257.181 L 334.785 258.953 L 335.434 260.25 L 336.428 261.057 L 337.725 261.331 L 338.849 261.143 L 339.771 260.653 L 340.448 259.875 L 340.837 258.838 L 339.583 258.838 L 339.324 259.414 L 338.949 259.846 L 337.883 260.192 L 337.062 260.034 L 336.442 259.529 L 336.039 258.708 L 335.895 257.599 L 335.895 257.555 L 335.895 257.555 z M 335.895 256.489 L 336.053 255.495 L 336.442 254.76 L 337.033 254.313 L 337.811 254.155 L 338.575 254.313 L 339.166 254.76 L 339.526 255.495 L 339.656 256.489 L 335.895 256.489 L 335.895 256.489 z M 344.699 257.757 L 348.186 257.757 L 348.186 256.619 L 344.699 256.619 L 344.699 257.757 L 344.699 257.757 z M 353.33 254.515 L 353.33 253.319 L 352.062 253.319 L 352.062 264.054 L 353.33 264.054 L 353.33 259.875 L 353.777 260.552 L 354.281 260.999 L 355.549 261.331 L 356.759 261.057 L 357.71 260.235 L 358.33 258.939 L 358.56 257.181 L 358.33 255.437 L 357.71 254.14 L 356.759 253.333 L 355.549 253.045 L 354.857 253.132 L 354.266 253.406 L 353.762 253.867 L 353.33 254.515 L 353.33 254.515 z M 355.333 260.192 L 354.483 260.005 L 353.863 259.429 L 353.474 258.492 L 353.344 257.181 L 353.474 255.884 L 353.863 254.947 L 354.483 254.385 L 355.333 254.184 L 356.111 254.385 L 356.73 254.962 L 357.119 255.898 L 357.264 257.181 L 357.119 258.478 L 356.73 259.429 L 356.111 260.005 L 355.333 260.192 L 355.333 260.192 z M 362.797 252.267 L 363.647 252.267 L 365.65 249.818 L 364.238 249.818 L 362.797 252.267 L 362.797 252.267 z M 361.918 257.555 L 366.99 257.555 L 367.004 256.965 L 366.774 255.308 L 366.14 254.068 L 365.131 253.319 L 363.791 253.045 L 362.48 253.333 L 361.471 254.14 L 360.823 255.452 L 360.592 257.181 L 360.808 258.953 L 361.457 260.25 L 362.451 261.057 L 363.748 261.331 L 364.872 261.143 L 365.794 260.653 L 366.471 259.875 L 366.86 258.838 L 365.607 258.838 L 365.347 259.414 L 364.973 259.846 L 363.906 260.192 L 363.085 260.034 L 362.465 259.529 L 362.062 258.708 L 361.918 257.599 L 361.918 257.555 L 361.918 257.555 z M 361.918 256.489 L 362.076 255.495 L 362.465 254.76 L 363.056 254.313 L 363.834 254.155 L 364.598 254.313 L 365.189 254.76 L 365.549 255.495 L 365.679 256.489 L 361.918 256.489 L 361.918 256.489 z M 374.238 259.861 L 374.238 261.057 L 375.506 261.057 L 375.506 250.711 L 374.252 250.711 L 374.252 254.501 L 373.287 253.406 L 372.696 253.146 L 372.019 253.045 L 370.794 253.333 L 369.843 254.14 L 369.223 255.437 L 369.007 257.181 L 369.223 258.924 L 369.843 260.235 L 370.794 261.057 L 372.019 261.331 L 372.696 261.23 L 373.301 260.97 L 374.238 259.861 L 374.238 259.861 z M 372.235 254.184 L 373.07 254.385 L 373.704 254.947 L 374.079 255.884 L 374.223 257.181 L 374.079 258.492 L 373.704 259.429 L 373.07 260.005 L 372.235 260.192 L 371.442 260.005 L 370.837 259.429 L 370.434 258.478 L 370.304 257.181 L 370.434 255.898 L 370.837 254.962 L 371.442 254.385 L 372.235 254.184 L 372.235 254.184 z M 382.753 260.048 L 382.753 260.091 L 382.826 260.581 L 383.042 260.927 L 383.949 261.201 L 384.655 261.086 L 384.655 260.106 L 384.353 260.149 L 383.949 259.962 L 383.877 259.385 L 383.877 255.38 L 383.704 254.357 L 383.2 253.636 L 382.321 253.204 L 381.082 253.045 L 379.872 253.218 L 378.978 253.708 L 378.416 254.472 L 378.229 255.48 L 378.229 255.567 L 379.367 255.567 L 379.468 254.962 L 379.785 254.529 L 380.304 254.27 L 381.039 254.169 L 381.745 254.241 L 382.249 254.457 L 382.552 254.832 L 382.653 255.351 L 382.595 255.956 L 382.364 256.259 L 381.788 256.403 L 380.707 256.518 L 379.468 256.777 L 378.589 257.238 L 378.07 257.959 L 377.912 259.025 L 378.056 259.976 L 378.503 260.682 L 379.223 261.129 L 380.217 261.287 L 381.557 260.985 L 382.753 260.048 L 382.753 260.048 z M 382.609 258.348 L 382.436 259.097 L 381.975 259.674 L 381.284 260.048 L 380.434 260.178 L 379.886 260.106 L 379.497 259.875 L 379.252 259.472 L 379.18 258.91 L 379.238 258.406 L 379.468 258.045 L 380.39 257.642 L 381.557 257.469 L 382.609 257.123 L 382.609 258.348 L 382.609 258.348 z M 389.353 251.777 L 389.353 259.991 L 386.745 259.991 L 386.745 261.057 L 393.215 261.057 L 393.215 259.991 L 390.621 259.991 L 390.621 250.711 L 387.364 250.711 L 387.364 251.777 L 389.353 251.777 L 389.353 251.777 z M 396.615 257.555 L 401.687 257.555 L 401.702 256.965 L 401.471 255.308 L 400.837 254.068 L 399.828 253.319 L 398.488 253.045 L 397.177 253.333 L 396.168 254.14 L 395.52 255.452 L 395.289 257.181 L 395.506 258.953 L 396.154 260.25 L 397.148 261.057 L 398.445 261.331 L 399.569 261.143 L 400.491 260.653 L 401.168 259.875 L 401.557 258.838 L 400.304 258.838 L 400.045 259.414 L 399.67 259.846 L 398.604 260.192 L 397.782 260.034 L 397.163 259.529 L 396.759 258.708 L 396.615 257.599 L 396.615 257.555 L 396.615 257.555 z M 396.615 256.489 L 396.774 255.495 L 397.163 254.76 L 397.753 254.313 L 398.532 254.155 L 399.295 254.313 L 399.886 254.76 L 400.246 255.495 L 400.376 256.489 L 396.615 256.489 L 396.615 256.489 z" stroke="none" fill-rule="evenodd" fill="rgb(0, 0, 0)"/></g><g stroke="rgb(0, 0, 0)" stroke-width="0.13" stroke-linecap="butt" stroke-linejoin="miter" fill="none"><path d="M 209.747 123.561 L 209.822 123.959 L 210.039 124.267 L 210.382 124.458 L 210.836 124.529 L 211.134 124.494 L 211.401 124.403 L 211.628 124.247 L 211.819 124.025 L 211.971 123.747 L 212.082 123.404 L 212.147 123.011 L 212.172 122.557 L 212.087 121.846 L 211.84 121.327 L 211.446 121.014 L 210.907 120.903 L 210.412 120.994 L 210.039 121.236 L 209.797 121.609 L 209.716 122.078 L 209.797 122.562 L 210.034 122.93 L 210.387 123.162 L 210.836 123.238 L 211.31 123.142 L 211.668 122.85 L 211.587 123.409 L 211.426 123.808 L 211.179 124.045 L 210.841 124.12 L 210.579 124.085 L 210.387 123.974 L 210.261 123.798 L 210.211 123.561 L 209.747 123.561 L 209.747 123.561 z M 210.206 122.073 L 210.256 121.76 L 210.397 121.513 L 210.619 121.357 L 210.907 121.301 L 211.204 121.357 L 211.431 121.513 L 211.572 121.755 L 211.628 122.068 L 211.572 122.386 L 211.431 122.623 L 211.199 122.769 L 210.891 122.819 L 210.614 122.769 L 210.397 122.623 L 210.256 122.391 L 210.206 122.073 L 210.206 122.073 z M 213.478 122.718 L 213.553 123.51 L 213.79 124.075 L 214.169 124.418 L 214.693 124.529 L 215.213 124.418 L 215.591 124.075 L 215.823 123.51 L 215.903 122.718 L 215.823 121.932 L 215.727 121.619 L 215.591 121.362 L 215.213 121.019 L 214.693 120.903 L 214.169 121.019 L 213.79 121.367 L 213.553 121.932 L 213.478 122.718 L 213.478 122.718 z M 213.962 122.718 L 214.002 122.108 L 214.128 121.669 L 214.355 121.412 L 214.693 121.321 L 215.026 121.412 L 215.253 121.669 L 215.379 122.108 L 215.419 122.718 L 215.379 123.334 L 215.253 123.772 L 215.026 124.03 L 214.693 124.115 L 214.355 124.03 L 214.128 123.772 L 214.002 123.334 L 213.962 122.718 L 213.962 122.718 z" stroke="none" fill-rule="evenodd" fill="rgb(0, 0, 0)"/><path d="M 255.893 126.946 L 257.825 126.428 L 255.893 125.91"/><path d="M 169.757 125.91 L 167.825 126.428 L 169.757 126.946"/><path d="M 167.825 126.428 L 257.825 126.428"/></g><g stroke="rgb(0, 0, 0)" stroke-width="0.13" stroke-linecap="butt" stroke-linejoin="miter" fill="none"><path d="M 193.684 261.693 L 192.806 264.673 L 191.903 261.693 L 191.424 261.693 L 192.554 265.198 L 193.058 265.198 L 194.163 261.693 L 193.684 261.693 L 193.684 261.693 z M 196.886 262.49 L 196.442 262.49 L 196.442 264.053 L 196.392 264.416 L 196.245 264.678 L 196.019 264.84 L 195.721 264.89 L 195.484 264.85 L 195.333 264.729 L 195.247 264.522 L 195.227 264.23 L 195.227 262.49 L 194.783 262.49 L 194.783 264.27 L 194.798 264.628 L 194.894 264.926 L 195.186 265.198 L 195.655 265.294 L 195.908 265.258 L 196.124 265.168 L 196.311 265.011 L 196.462 264.784 L 196.462 265.198 L 196.886 265.198 L 196.886 262.49 L 196.886 262.49 z M 198.222 263.972 L 199.998 263.972 L 200.003 263.766 L 199.922 263.186 L 199.7 262.752 L 199.347 262.49 L 198.878 262.394 L 198.419 262.495 L 198.066 262.777 L 197.839 263.236 L 197.758 263.841 L 197.834 264.462 L 198.061 264.915 L 198.409 265.198 L 198.863 265.294 L 199.256 265.228 L 199.579 265.057 L 199.816 264.784 L 199.952 264.421 L 199.513 264.421 L 199.423 264.623 L 199.292 264.774 L 198.918 264.895 L 198.631 264.84 L 198.414 264.663 L 198.273 264.376 L 198.222 263.988 L 198.222 263.972 L 198.222 263.972 z M 198.222 263.599 L 198.278 263.251 L 198.414 262.994 L 198.621 262.838 L 198.893 262.782 L 199.16 262.838 L 199.367 262.994 L 199.493 263.251 L 199.539 263.599 L 198.222 263.599 L 198.222 263.599 z M 205.57 264.779 L 205.57 265.198 L 206.014 265.198 L 206.014 261.577 L 205.575 261.577 L 205.575 262.903 L 205.238 262.52 L 205.031 262.429 L 204.794 262.394 L 204.365 262.495 L 204.032 262.777 L 203.815 263.231 L 203.74 263.841 L 203.815 264.451 L 204.032 264.91 L 204.365 265.198 L 204.794 265.294 L 205.031 265.258 L 205.243 265.168 L 205.57 264.779 L 205.57 264.779 z M 204.869 262.792 L 205.162 262.863 L 205.384 263.06 L 205.515 263.387 L 205.565 263.841 L 205.515 264.3 L 205.384 264.628 L 205.162 264.83 L 204.869 264.895 L 204.592 264.83 L 204.38 264.628 L 204.239 264.295 L 204.194 263.841 L 204.239 263.392 L 204.38 263.065 L 204.592 262.863 L 204.869 262.792 L 204.869 262.792 z M 207.33 263.972 L 209.106 263.972 L 209.111 263.766 L 209.03 263.186 L 208.808 262.752 L 208.455 262.49 L 207.986 262.394 L 207.527 262.495 L 207.174 262.777 L 206.947 263.236 L 206.867 263.841 L 206.942 264.462 L 207.169 264.915 L 207.517 265.198 L 207.971 265.294 L 208.364 265.228 L 208.687 265.057 L 208.924 264.784 L 209.06 264.421 L 208.622 264.421 L 208.531 264.623 L 208.4 264.774 L 208.026 264.895 L 207.739 264.84 L 207.522 264.663 L 207.381 264.376 L 207.33 263.988 L 207.33 263.972 L 207.33 263.972 z M 207.33 263.599 L 207.386 263.251 L 207.522 262.994 L 207.729 262.838 L 208.001 262.782 L 208.269 262.838 L 208.475 262.994 L 208.601 263.251 L 208.647 263.599 L 207.33 263.599 L 207.33 263.599 z M 213.629 262.959 L 213.629 265.198 L 214.073 265.198 L 214.073 262.959 L 215.082 262.959 L 215.082 262.58 L 214.073 262.58 L 214.073 262.414 L 214.109 262.212 L 214.225 262.076 L 214.421 261.995 L 214.704 261.965 L 215.082 261.985 L 215.082 261.602 L 214.603 261.577 L 214.169 261.622 L 213.867 261.758 L 213.685 261.995 L 213.629 262.333 L 213.629 262.58 L 212.818 262.58 L 212.818 262.959 L 213.629 262.959 L 213.629 262.959 z M 217.659 264.845 L 217.659 264.86 L 217.684 265.031 L 217.76 265.153 L 218.078 265.248 L 218.325 265.208 L 218.325 264.865 L 218.219 264.88 L 218.078 264.815 L 218.052 264.613 L 218.052 263.211 L 217.992 262.853 L 217.815 262.601 L 217.508 262.449 L 217.074 262.394 L 216.65 262.454 L 216.338 262.626 L 216.141 262.893 L 216.075 263.246 L 216.075 263.276 L 216.474 263.276 L 216.509 263.065 L 216.62 262.913 L 216.802 262.823 L 217.059 262.787 L 217.306 262.812 L 217.483 262.888 L 217.588 263.019 L 217.624 263.201 L 217.604 263.413 L 217.523 263.519 L 217.321 263.569 L 216.943 263.609 L 216.509 263.7 L 216.202 263.861 L 216.02 264.114 L 215.964 264.487 L 216.015 264.82 L 216.171 265.067 L 216.423 265.223 L 216.771 265.279 L 217.24 265.173 L 217.659 264.845 L 217.659 264.845 z M 217.609 264.25 L 217.548 264.512 L 217.387 264.714 L 217.145 264.845 L 216.847 264.89 L 216.655 264.865 L 216.519 264.784 L 216.434 264.643 L 216.408 264.446 L 216.428 264.27 L 216.509 264.144 L 216.832 264.003 L 217.24 263.942 L 217.609 263.821 L 217.609 264.25 L 217.609 264.25 z M 220.811 263.387 L 221.25 263.387 L 221.159 262.984 L 220.942 262.666 L 220.604 262.47 L 220.166 262.394 L 219.681 262.495 L 219.313 262.777 L 219.081 263.236 L 219.001 263.851 L 219.076 264.462 L 219.303 264.915 L 219.661 265.198 L 220.15 265.294 L 220.584 265.218 L 220.922 265.006 L 221.154 264.673 L 221.255 264.23 L 220.831 264.23 L 220.756 264.512 L 220.614 264.724 L 220.413 264.855 L 220.166 264.895 L 219.858 264.83 L 219.636 264.628 L 219.5 264.3 L 219.454 263.836 L 219.5 263.382 L 219.641 263.055 L 219.868 262.853 L 220.166 262.782 L 220.428 262.828 L 220.624 262.944 L 220.756 263.135 L 220.811 263.387 L 220.811 263.387 z M 222.511 263.972 L 224.286 263.972 L 224.291 263.766 L 224.21 263.186 L 223.988 262.752 L 223.635 262.49 L 223.166 262.394 L 222.707 262.495 L 222.354 262.777 L 222.127 263.236 L 222.047 263.841 L 222.122 264.462 L 222.349 264.915 L 222.697 265.198 L 223.151 265.294 L 223.544 265.228 L 223.867 265.057 L 224.104 264.784 L 224.24 264.421 L 223.802 264.421 L 223.711 264.623 L 223.58 264.774 L 223.207 264.895 L 222.919 264.84 L 222.702 264.663 L 222.561 264.376 L 222.511 263.988 L 222.511 263.972 L 222.511 263.972 z M 222.511 263.599 L 222.566 263.251 L 222.702 262.994 L 222.909 262.838 L 223.181 262.782 L 223.449 262.838 L 223.655 262.994 L 223.782 263.251 L 223.827 263.599 L 222.511 263.599 L 222.511 263.599 z" stroke="none" fill-rule="evenodd" fill="rgb(0, 0, 0)"/></g><g stroke="rgb(0, 0, 0)" stroke-width="0.13" stroke-linecap="butt" stroke-linejoin="miter" fill="none"><path d="M 229.606 266.171 L 229.924 266.171 L 229.637 265.637 L 229.435 265.077 L 229.309 264.487 L 229.269 263.892 L 229.309 263.297 L 229.435 262.712 L 229.637 262.147 L 229.924 261.612 L 229.606 261.612 L 229.238 262.167 L 228.981 262.717 L 228.83 263.292 L 228.784 263.892 L 228.83 264.497 L 228.981 265.067 L 229.238 265.616 L 229.606 266.171 L 229.606 266.171 z M 231.553 265.198 L 232.249 264.144 L 232.965 265.198 L 233.5 265.198 L 232.532 263.801 L 233.444 262.49 L 232.93 262.49 L 232.269 263.473 L 231.609 262.49 L 231.084 262.49 L 231.982 263.806 L 231.034 265.198 L 231.553 265.198 L 231.553 265.198 z M 235.22 265.198 L 235.678 265.198 L 235.678 261.673 L 235.336 261.673 L 235.245 261.98 L 235.063 262.187 L 234.786 262.308 L 234.403 262.348 L 234.403 262.707 L 235.22 262.707 L 235.22 265.198 L 235.22 265.198 z M 237.983 266.171 L 238.346 265.616 L 238.604 265.067 L 238.755 264.497 L 238.805 263.892 L 238.755 263.292 L 238.604 262.717 L 238.346 262.167 L 237.983 261.612 L 237.666 261.612 L 237.948 262.147 L 238.15 262.712 L 238.271 263.297 L 238.316 263.892 L 238.271 264.487 L 238.15 265.077 L 237.943 265.637 L 237.666 266.171 L 237.983 266.171 L 237.983 266.171 z" stroke="none" fill-rule="evenodd" fill="rgb(0, 0, 0)"/></g><g stroke="rgb(0, 0, 0)" stroke-width="0.13" stroke-linecap="butt" stroke-linejoin="miter" fill="none"><path d="M 191.747 271.245 L 193.966 271.245 L 193.966 270.821 L 192.211 270.821 L 192.211 269.636 L 193.774 269.636 L 193.774 269.217 L 192.211 269.217 L 192.211 268.168 L 193.926 268.168 L 193.926 267.745 L 191.747 267.745 L 191.747 271.245 L 191.747 271.245 z M 196.523 269.434 L 196.962 269.434 L 196.871 269.031 L 196.654 268.713 L 196.316 268.516 L 195.877 268.441 L 195.393 268.542 L 195.025 268.824 L 194.793 269.283 L 194.712 269.898 L 194.788 270.508 L 195.015 270.962 L 195.373 271.245 L 195.862 271.341 L 196.296 271.265 L 196.634 271.053 L 196.866 270.72 L 196.967 270.276 L 196.543 270.276 L 196.467 270.559 L 196.326 270.771 L 196.124 270.902 L 195.877 270.942 L 195.57 270.877 L 195.348 270.675 L 195.212 270.347 L 195.166 269.883 L 195.212 269.429 L 195.353 269.101 L 195.58 268.9 L 195.877 268.829 L 196.14 268.874 L 196.336 268.99 L 196.467 269.182 L 196.523 269.434 L 196.523 269.434 z M 197.834 271.245 L 198.278 271.245 L 198.278 269.681 L 198.323 269.323 L 198.47 269.061 L 198.696 268.9 L 198.999 268.839 L 199.241 268.89 L 199.392 269.026 L 199.468 269.253 L 199.493 269.555 L 199.493 271.245 L 199.937 271.245 L 199.937 269.464 L 199.917 269.106 L 199.826 268.809 L 199.529 268.537 L 199.065 268.441 L 198.812 268.476 L 198.596 268.572 L 198.414 268.723 L 198.278 268.93 L 198.278 267.624 L 197.834 267.624 L 197.834 271.245 L 197.834 271.245 z M 201.258 270.019 L 203.034 270.019 L 203.039 269.812 L 202.958 269.232 L 202.736 268.799 L 202.383 268.537 L 201.914 268.441 L 201.455 268.542 L 201.102 268.824 L 200.875 269.283 L 200.794 269.888 L 200.87 270.508 L 201.097 270.962 L 201.445 271.245 L 201.899 271.341 L 202.292 271.275 L 202.615 271.104 L 202.852 270.831 L 202.988 270.468 L 202.549 270.468 L 202.459 270.67 L 202.328 270.821 L 201.954 270.942 L 201.667 270.887 L 201.45 270.71 L 201.309 270.423 L 201.258 270.034 L 201.258 270.019 L 201.258 270.019 z M 201.258 269.646 L 201.314 269.298 L 201.45 269.041 L 201.657 268.884 L 201.929 268.829 L 202.196 268.884 L 202.403 269.041 L 202.529 269.298 L 202.575 269.646 L 201.258 269.646 L 201.258 269.646 z M 204.789 267.997 L 204.789 270.872 L 203.876 270.872 L 203.876 271.245 L 206.14 271.245 L 206.14 270.872 L 205.232 270.872 L 205.232 267.624 L 204.093 267.624 L 204.093 267.997 L 204.789 267.997 L 204.789 267.997 z M 207.825 267.997 L 207.825 270.872 L 206.912 270.872 L 206.912 271.245 L 209.176 271.245 L 209.176 270.872 L 208.269 270.872 L 208.269 267.624 L 207.129 267.624 L 207.129 267.997 L 207.825 267.997 L 207.825 267.997 z M 210.367 270.019 L 212.142 270.019 L 212.147 269.812 L 212.066 269.232 L 211.844 268.799 L 211.491 268.537 L 211.022 268.441 L 210.563 268.542 L 210.21 268.824 L 209.983 269.283 L 209.903 269.888 L 209.978 270.508 L 210.205 270.962 L 210.553 271.245 L 211.007 271.341 L 211.4 271.275 L 211.723 271.104 L 211.96 270.831 L 212.096 270.468 L 211.658 270.468 L 211.567 270.67 L 211.436 270.821 L 211.062 270.942 L 210.775 270.887 L 210.558 270.71 L 210.417 270.423 L 210.367 270.034 L 210.367 270.019 L 210.367 270.019 z M 210.367 269.646 L 210.422 269.298 L 210.558 269.041 L 210.765 268.884 L 211.037 268.829 L 211.305 268.884 L 211.511 269.041 L 211.637 269.298 L 211.683 269.646 L 210.367 269.646 L 210.367 269.646 z M 216.746 271.245 L 217.442 271.245 L 217.442 270.493 L 216.746 270.493 L 216.746 271.245 L 216.746 271.245 z M 216.746 269.288 L 217.442 269.288 L 217.442 268.537 L 216.746 268.537 L 216.746 269.288 L 216.746 269.288 z" stroke="none" fill-rule="evenodd" fill="rgb(0, 0, 0)"/></g><g stroke="rgb(0, 0, 0)" stroke-width="0.13" stroke-linecap="butt" stroke-linejoin="miter" fill="none"><path d="M 226.111 271.245 L 226.57 271.245 L 226.57 267.72 L 226.227 267.72 L 226.137 268.027 L 225.955 268.234 L 225.678 268.355 L 225.294 268.395 L 225.294 268.753 L 226.111 268.753 L 226.111 271.245 L 226.111 271.245 z M 228.89 271.245 L 229.586 271.245 L 229.586 270.493 L 228.89 270.493 L 228.89 271.245 L 228.89 271.245 z M 228.89 269.288 L 229.586 269.288 L 229.586 268.537 L 228.89 268.537 L 228.89 269.288 L 228.89 269.288 z M 232.183 271.245 L 232.642 271.245 L 232.642 267.72 L 232.299 267.72 L 232.209 268.027 L 232.027 268.234 L 231.75 268.355 L 231.366 268.395 L 231.366 268.753 L 232.183 268.753 L 232.183 271.245 L 232.183 271.245 z" stroke="none" fill-rule="evenodd" fill="rgb(0, 0, 0)"/></g></svg>