<?xml version="1.0" encoding="utf-8" ?><!DOCTYPE svg PUBLIC "-//W3C//DTD SVG 1.1//EN" "http://www.w3.org/Graphics/SVG/1.1/DTD/svg11.dtd" 
[ <!ATTLIST svg 
  xmlns:dsy CDATA #FIXED "http://www.3ds.com/print"  
    dsy:text-version CDATA #IMPLIED > 

  <!ATTLIST text 
  xmlns:dsy CDATA #FIXED "http://www.3ds.com/print" 
    dsy:text-version CDATA #IMPLIED > 
]><svg xmlns="http://www.w3.org/2000/svg" xmlns:dsy="http://www.3ds.com/print" dsy:text-version="18000" width="420" height="297" viewBox="0 0 420 297" version="1.1"><g stroke="rgb(0, 0, 0)" stroke-width="0.13" stroke-linecap="butt" stroke-linejoin="miter" fill="none"><path d="M 141.493 239.105 L 161.125 239.105"/><path d="M 141.493 189.105 L 161.125 189.105"/></g><g stroke="rgb(0, 0, 0)" stroke-width="0.35" stroke-linecap="butt" stroke-linejoin="miter" fill="none"><path d="M 25.5813 14.9037 A 5 5 0 0 0 20.5813 19.9037"/><path d="M 20.5813 19.9037 L 20.5813 129.904"/><path d="M 20.5813 129.904 A 5 5 0 0 0 25.5813 134.904"/><path d="M 165.581 134.904 L 25.5813 134.904"/><path d="M 165.581 134.904 A 5 5 0 0 0 170.581 129.904"/><path d="M 25.5813 14.9037 L 165.581 14.9037"/><path d="M 170.581 129.904 L 170.581 19.9037"/><path d="M 170.581 19.9037 A 5 5 0 0 0 165.581 14.9037"/><path d="M 139.493 239.105 L 59.4934 189.105"/><path d="M 139.493 189.105 L 139.493 239.105"/><path d="M 59.4934 189.105 L 139.493 189.105"/><path d="M 368.394 157.285 L 218.394 157.285"/><path d="M 218.394 82.2847 L 218.394 157.285"/><path d="M 223.394 77.2847 A 5 5 0 0 0 218.394 82.2847"/><path d="M 368.394 157.285 L 368.394 82.2847"/><path d="M 223.394 77.2847 L 363.394 77.2847"/><path d="M 368.394 82.2847 A 5 5 0 0 0 363.394 77.2847"/></g><g stroke="rgb(0, 0, 0)" stroke-width="0.13" stroke-linecap="butt" stroke-linejoin="miter" fill="none"><path d="M 97.9769 143.255 L 97.0994 146.236 L 96.1966 143.255 L 95.7175 143.255 L 96.8472 146.76 L 97.3515 146.76 L 98.456 143.255 L 97.9769 143.255 L 97.9769 143.255 z M 101.179 144.052 L 100.736 144.052 L 100.736 145.616 L 100.685 145.979 L 100.539 146.241 L 100.312 146.402 L 100.014 146.453 L 99.7773 146.412 L 99.626 146.291 L 99.5403 146.085 L 99.5201 145.792 L 99.5201 144.052 L 99.0763 144.052 L 99.0763 145.832 L 99.0914 146.19 L 99.1873 146.488 L 99.4798 146.76 L 99.9488 146.856 L 100.201 146.821 L 100.418 146.73 L 100.604 146.574 L 100.756 146.347 L 100.756 146.76 L 101.179 146.76 L 101.179 144.052 L 101.179 144.052 z M 102.516 145.535 L 104.291 145.535 L 104.296 145.328 L 104.215 144.748 L 103.993 144.314 L 103.64 144.052 L 103.171 143.956 L 102.712 144.057 L 102.359 144.34 L 102.133 144.798 L 102.052 145.404 L 102.127 146.024 L 102.354 146.478 L 102.702 146.76 L 103.156 146.856 L 103.55 146.791 L 103.872 146.619 L 104.109 146.347 L 104.246 145.984 L 103.807 145.984 L 103.716 146.185 L 103.585 146.337 L 103.212 146.458 L 102.924 146.402 L 102.707 146.226 L 102.566 145.938 L 102.516 145.55 L 102.516 145.535 L 102.516 145.535 z M 102.516 145.162 L 102.571 144.814 L 102.707 144.556 L 102.914 144.4 L 103.187 144.345 L 103.454 144.4 L 103.661 144.556 L 103.787 144.814 L 103.832 145.162 L 102.516 145.162 L 102.516 145.162 z M 109.864 146.342 L 109.864 146.76 L 110.308 146.76 L 110.308 143.139 L 109.869 143.139 L 109.869 144.466 L 109.531 144.082 L 109.324 143.992 L 109.087 143.956 L 108.658 144.057 L 108.326 144.34 L 108.109 144.793 L 108.033 145.404 L 108.109 146.014 L 108.326 146.473 L 108.658 146.76 L 109.087 146.856 L 109.324 146.821 L 109.536 146.73 L 109.864 146.342 L 109.864 146.342 z M 109.163 144.355 L 109.455 144.425 L 109.677 144.622 L 109.808 144.95 L 109.859 145.404 L 109.808 145.863 L 109.677 146.19 L 109.455 146.392 L 109.163 146.458 L 108.885 146.392 L 108.674 146.19 L 108.532 145.858 L 108.487 145.404 L 108.532 144.955 L 108.674 144.627 L 108.885 144.425 L 109.163 144.355 L 109.163 144.355 z M 111.624 145.535 L 113.399 145.535 L 113.404 145.328 L 113.323 144.748 L 113.102 144.314 L 112.749 144.052 L 112.279 143.956 L 111.821 144.057 L 111.468 144.34 L 111.241 144.798 L 111.16 145.404 L 111.236 146.024 L 111.462 146.478 L 111.81 146.76 L 112.264 146.856 L 112.658 146.791 L 112.98 146.619 L 113.218 146.347 L 113.354 145.984 L 112.915 145.984 L 112.824 146.185 L 112.693 146.337 L 112.32 146.458 L 112.032 146.402 L 111.816 146.226 L 111.674 145.938 L 111.624 145.55 L 111.624 145.535 L 111.624 145.535 z M 111.624 145.162 L 111.679 144.814 L 111.816 144.556 L 112.022 144.4 L 112.295 144.345 L 112.562 144.4 L 112.769 144.556 L 112.895 144.814 L 112.94 145.162 L 111.624 145.162 L 111.624 145.162 z M 117.923 144.521 L 117.923 146.76 L 118.367 146.76 L 118.367 144.521 L 119.375 144.521 L 119.375 144.143 L 118.367 144.143 L 118.367 143.976 L 118.402 143.775 L 118.518 143.639 L 118.715 143.558 L 118.997 143.528 L 119.375 143.548 L 119.375 143.164 L 118.896 143.139 L 118.462 143.185 L 118.16 143.321 L 117.978 143.558 L 117.923 143.896 L 117.923 144.143 L 117.111 144.143 L 117.111 144.521 L 117.923 144.521 L 117.923 144.521 z M 121.952 146.407 L 121.952 146.422 L 121.978 146.594 L 122.053 146.715 L 122.371 146.811 L 122.618 146.77 L 122.618 146.427 L 122.512 146.443 L 122.371 146.377 L 122.346 146.175 L 122.346 144.773 L 122.285 144.415 L 122.109 144.163 L 121.801 144.012 L 121.367 143.956 L 120.944 144.017 L 120.631 144.188 L 120.434 144.456 L 120.369 144.809 L 120.369 144.839 L 120.767 144.839 L 120.803 144.627 L 120.914 144.476 L 121.095 144.385 L 121.352 144.35 L 121.599 144.375 L 121.776 144.451 L 121.882 144.582 L 121.917 144.763 L 121.897 144.975 L 121.816 145.081 L 121.615 145.131 L 121.236 145.172 L 120.803 145.262 L 120.495 145.424 L 120.313 145.676 L 120.258 146.049 L 120.308 146.382 L 120.465 146.629 L 120.717 146.786 L 121.065 146.841 L 121.534 146.735 L 121.952 146.407 L 121.952 146.407 z M 121.902 145.812 L 121.841 146.074 L 121.68 146.276 L 121.438 146.407 L 121.14 146.453 L 120.949 146.427 L 120.813 146.347 L 120.727 146.206 L 120.702 146.009 L 120.722 145.832 L 120.803 145.706 L 121.125 145.565 L 121.534 145.505 L 121.902 145.384 L 121.902 145.812 L 121.902 145.812 z M 125.104 144.95 L 125.543 144.95 L 125.452 144.546 L 125.236 144.229 L 124.898 144.032 L 124.459 143.956 L 123.975 144.057 L 123.607 144.34 L 123.375 144.798 L 123.294 145.414 L 123.37 146.024 L 123.597 146.478 L 123.955 146.76 L 124.444 146.856 L 124.877 146.78 L 125.215 146.569 L 125.447 146.236 L 125.548 145.792 L 125.125 145.792 L 125.049 146.074 L 124.908 146.286 L 124.706 146.417 L 124.459 146.458 L 124.151 146.392 L 123.929 146.19 L 123.793 145.863 L 123.748 145.399 L 123.793 144.945 L 123.934 144.617 L 124.161 144.415 L 124.459 144.345 L 124.721 144.39 L 124.918 144.506 L 125.049 144.698 L 125.104 144.95 L 125.104 144.95 z M 126.804 145.535 L 128.579 145.535 L 128.584 145.328 L 128.504 144.748 L 128.282 144.314 L 127.929 144.052 L 127.46 143.956 L 127.001 144.057 L 126.648 144.34 L 126.421 144.798 L 126.34 145.404 L 126.416 146.024 L 126.643 146.478 L 126.991 146.76 L 127.444 146.856 L 127.838 146.791 L 128.161 146.619 L 128.398 146.347 L 128.534 145.984 L 128.095 145.984 L 128.004 146.185 L 127.873 146.337 L 127.5 146.458 L 127.213 146.402 L 126.996 146.226 L 126.854 145.938 L 126.804 145.55 L 126.804 145.535 L 126.804 145.535 z M 126.804 145.162 L 126.859 144.814 L 126.996 144.556 L 127.202 144.4 L 127.475 144.345 L 127.742 144.4 L 127.949 144.556 L 128.075 144.814 L 128.12 145.162 L 126.804 145.162 L 126.804 145.162 z" stroke="none" fill-rule="evenodd" fill="rgb(0, 0, 0)"/></g><g stroke="rgb(0, 0, 0)" stroke-width="0.13" stroke-linecap="butt" stroke-linejoin="miter" fill="none"><path d="M 133.9 147.734 L 134.218 147.734 L 133.93 147.199 L 133.728 146.639 L 133.602 146.049 L 133.562 145.454 L 133.602 144.859 L 133.728 144.274 L 133.93 143.709 L 134.218 143.175 L 133.9 143.175 L 133.532 143.729 L 133.274 144.279 L 133.123 144.854 L 133.078 145.454 L 133.123 146.059 L 133.274 146.629 L 133.532 147.179 L 133.9 147.734 L 133.9 147.734 z M 135.846 146.76 L 136.542 145.706 L 137.259 146.76 L 137.793 146.76 L 136.825 145.363 L 137.738 144.052 L 137.223 144.052 L 136.563 145.036 L 135.902 144.052 L 135.377 144.052 L 136.275 145.368 L 135.327 146.76 L 135.846 146.76 L 135.846 146.76 z M 139.513 146.76 L 139.972 146.76 L 139.972 143.235 L 139.629 143.235 L 139.538 143.543 L 139.357 143.75 L 139.079 143.871 L 138.696 143.911 L 138.696 144.269 L 139.513 144.269 L 139.513 146.76 L 139.513 146.76 z M 142.277 147.734 L 142.64 147.179 L 142.897 146.629 L 143.048 146.059 L 143.099 145.454 L 143.048 144.854 L 142.897 144.279 L 142.64 143.729 L 142.277 143.175 L 141.959 143.175 L 142.241 143.709 L 142.443 144.274 L 142.564 144.859 L 142.609 145.454 L 142.564 146.049 L 142.443 146.639 L 142.236 147.199 L 141.959 147.734 L 142.277 147.734 L 142.277 147.734 z" stroke="none" fill-rule="evenodd" fill="rgb(0, 0, 0)"/></g><g stroke="rgb(0, 0, 0)" stroke-width="0.13" stroke-linecap="butt" stroke-linejoin="miter" fill="none"><path d="M 96.0403 152.807 L 98.2593 152.807 L 98.2593 152.384 L 96.5043 152.384 L 96.5043 151.198 L 98.0677 151.198 L 98.0677 150.78 L 96.5043 150.78 L 96.5043 149.731 L 98.219 149.731 L 98.219 149.307 L 96.0403 149.307 L 96.0403 152.807 L 96.0403 152.807 z M 100.816 150.997 L 101.255 150.997 L 101.164 150.593 L 100.947 150.275 L 100.609 150.079 L 100.171 150.003 L 99.6865 150.104 L 99.3184 150.386 L 99.0864 150.845 L 99.0057 151.461 L 99.0814 152.071 L 99.3083 152.525 L 99.6664 152.807 L 100.156 152.903 L 100.589 152.827 L 100.927 152.616 L 101.159 152.283 L 101.26 151.839 L 100.836 151.839 L 100.761 152.121 L 100.62 152.333 L 100.418 152.464 L 100.171 152.505 L 99.8631 152.439 L 99.6412 152.237 L 99.505 151.909 L 99.4596 151.445 L 99.505 150.992 L 99.6462 150.664 L 99.8731 150.462 L 100.171 150.391 L 100.433 150.437 L 100.63 150.553 L 100.761 150.744 L 100.816 150.997 L 100.816 150.997 z M 102.127 152.807 L 102.571 152.807 L 102.571 151.244 L 102.617 150.886 L 102.763 150.623 L 102.99 150.462 L 103.292 150.402 L 103.535 150.452 L 103.686 150.588 L 103.761 150.815 L 103.787 151.118 L 103.787 152.807 L 104.23 152.807 L 104.23 151.027 L 104.21 150.669 L 104.12 150.371 L 103.822 150.099 L 103.358 150.003 L 103.106 150.038 L 102.889 150.134 L 102.707 150.286 L 102.571 150.492 L 102.571 149.186 L 102.127 149.186 L 102.127 152.807 L 102.127 152.807 z M 105.552 151.582 L 107.327 151.582 L 107.332 151.375 L 107.251 150.795 L 107.029 150.361 L 106.676 150.099 L 106.207 150.003 L 105.749 150.104 L 105.395 150.386 L 105.169 150.845 L 105.088 151.451 L 105.163 152.071 L 105.39 152.525 L 105.738 152.807 L 106.192 152.903 L 106.586 152.837 L 106.908 152.666 L 107.145 152.394 L 107.282 152.03 L 106.843 152.03 L 106.752 152.232 L 106.621 152.384 L 106.248 152.505 L 105.96 152.449 L 105.743 152.273 L 105.602 151.985 L 105.552 151.597 L 105.552 151.582 L 105.552 151.582 z M 105.552 151.208 L 105.607 150.86 L 105.743 150.603 L 105.95 150.447 L 106.223 150.391 L 106.49 150.447 L 106.697 150.603 L 106.823 150.86 L 106.868 151.208 L 105.552 151.208 L 105.552 151.208 z M 109.082 149.559 L 109.082 152.434 L 108.169 152.434 L 108.169 152.807 L 110.434 152.807 L 110.434 152.434 L 109.526 152.434 L 109.526 149.186 L 108.386 149.186 L 108.386 149.559 L 109.082 149.559 L 109.082 149.559 z M 112.118 149.559 L 112.118 152.434 L 111.205 152.434 L 111.205 152.807 L 113.47 152.807 L 113.47 152.434 L 112.562 152.434 L 112.562 149.186 L 111.422 149.186 L 111.422 149.559 L 112.118 149.559 L 112.118 149.559 z M 114.66 151.582 L 116.435 151.582 L 116.44 151.375 L 116.359 150.795 L 116.138 150.361 L 115.785 150.099 L 115.316 150.003 L 114.857 150.104 L 114.504 150.386 L 114.277 150.845 L 114.196 151.451 L 114.272 152.071 L 114.499 152.525 L 114.846 152.807 L 115.3 152.903 L 115.694 152.837 L 116.017 152.666 L 116.254 152.394 L 116.39 152.03 L 115.951 152.03 L 115.86 152.232 L 115.729 152.384 L 115.356 152.505 L 115.068 152.449 L 114.852 152.273 L 114.71 151.985 L 114.66 151.597 L 114.66 151.582 L 114.66 151.582 z M 114.66 151.208 L 114.715 150.86 L 114.852 150.603 L 115.058 150.447 L 115.331 150.391 L 115.598 150.447 L 115.805 150.603 L 115.931 150.86 L 115.976 151.208 L 114.66 151.208 L 114.66 151.208 z M 121.04 152.807 L 121.736 152.807 L 121.736 152.056 L 121.04 152.056 L 121.04 152.807 L 121.04 152.807 z M 121.04 150.85 L 121.736 150.85 L 121.736 150.099 L 121.04 150.099 L 121.04 150.85 L 121.04 150.85 z" stroke="none" fill-rule="evenodd" fill="rgb(0, 0, 0)"/></g><g stroke="rgb(0, 0, 0)" stroke-width="0.13" stroke-linecap="butt" stroke-linejoin="miter" fill="none"><path d="M 130.405 152.807 L 130.864 152.807 L 130.864 149.282 L 130.521 149.282 L 130.43 149.59 L 130.249 149.796 L 129.971 149.917 L 129.588 149.958 L 129.588 150.316 L 130.405 150.316 L 130.405 152.807 L 130.405 152.807 z M 133.184 152.807 L 133.88 152.807 L 133.88 152.056 L 133.184 152.056 L 133.184 152.807 L 133.184 152.807 z M 133.184 150.85 L 133.88 150.85 L 133.88 150.099 L 133.184 150.099 L 133.184 150.85 L 133.184 150.85 z M 136.477 152.807 L 136.936 152.807 L 136.936 149.282 L 136.593 149.282 L 136.502 149.59 L 136.321 149.796 L 136.043 149.917 L 135.66 149.958 L 135.66 150.316 L 136.477 150.316 L 136.477 152.807 L 136.477 152.807 z" stroke="none" fill-rule="evenodd" fill="rgb(0, 0, 0)"/></g><g stroke="rgb(0, 0, 0)" stroke-width="0.13" stroke-linecap="butt" stroke-linejoin="miter" fill="none"><path d="M 101.889 247.457 L 101.011 250.437 L 100.109 247.457 L 99.6296 247.457 L 100.759 250.962 L 101.264 250.962 L 102.368 247.457 L 101.889 247.457 L 101.889 247.457 z M 105.091 248.253 L 104.648 248.253 L 104.648 249.817 L 104.597 250.18 L 104.451 250.442 L 104.224 250.604 L 103.926 250.654 L 103.689 250.614 L 103.538 250.493 L 103.452 250.286 L 103.432 249.993 L 103.432 248.253 L 102.988 248.253 L 102.988 250.034 L 103.003 250.392 L 103.099 250.689 L 103.392 250.962 L 103.861 251.057 L 104.113 251.022 L 104.33 250.931 L 104.516 250.775 L 104.668 250.548 L 104.668 250.962 L 105.091 250.962 L 105.091 248.253 L 105.091 248.253 z M 106.428 249.736 L 108.203 249.736 L 108.208 249.529 L 108.127 248.949 L 107.906 248.516 L 107.552 248.253 L 107.083 248.158 L 106.625 248.258 L 106.272 248.541 L 106.045 249 L 105.964 249.605 L 106.04 250.225 L 106.266 250.679 L 106.614 250.962 L 107.068 251.057 L 107.462 250.992 L 107.784 250.82 L 108.021 250.548 L 108.158 250.185 L 107.719 250.185 L 107.628 250.387 L 107.497 250.538 L 107.124 250.659 L 106.836 250.604 L 106.619 250.427 L 106.478 250.14 L 106.428 249.751 L 106.428 249.736 L 106.428 249.736 z M 106.428 249.363 L 106.483 249.015 L 106.619 248.758 L 106.826 248.601 L 107.099 248.546 L 107.366 248.601 L 107.573 248.758 L 107.699 249.015 L 107.744 249.363 L 106.428 249.363 L 106.428 249.363 z M 113.776 250.543 L 113.776 250.962 L 114.22 250.962 L 114.22 247.341 L 113.781 247.341 L 113.781 248.667 L 113.443 248.284 L 113.236 248.193 L 112.999 248.158 L 112.57 248.258 L 112.238 248.541 L 112.021 248.995 L 111.945 249.605 L 112.021 250.215 L 112.238 250.674 L 112.57 250.962 L 112.999 251.057 L 113.236 251.022 L 113.448 250.931 L 113.776 250.543 L 113.776 250.543 z M 113.075 248.556 L 113.367 248.627 L 113.589 248.823 L 113.72 249.151 L 113.771 249.605 L 113.72 250.064 L 113.589 250.392 L 113.367 250.593 L 113.075 250.659 L 112.797 250.593 L 112.586 250.392 L 112.444 250.059 L 112.399 249.605 L 112.444 249.156 L 112.586 248.828 L 112.797 248.627 L 113.075 248.556 L 113.075 248.556 z M 115.536 249.736 L 117.311 249.736 L 117.316 249.529 L 117.235 248.949 L 117.014 248.516 L 116.661 248.253 L 116.192 248.158 L 115.733 248.258 L 115.38 248.541 L 115.153 249 L 115.072 249.605 L 115.148 250.225 L 115.375 250.679 L 115.722 250.962 L 116.176 251.057 L 116.57 250.992 L 116.893 250.82 L 117.13 250.548 L 117.266 250.185 L 116.827 250.185 L 116.736 250.387 L 116.605 250.538 L 116.232 250.659 L 115.944 250.604 L 115.728 250.427 L 115.586 250.14 L 115.536 249.751 L 115.536 249.736 L 115.536 249.736 z M 115.536 249.363 L 115.591 249.015 L 115.728 248.758 L 115.934 248.601 L 116.207 248.546 L 116.474 248.601 L 116.681 248.758 L 116.807 249.015 L 116.852 249.363 L 115.536 249.363 L 115.536 249.363 z M 121.835 248.722 L 121.835 250.962 L 122.279 250.962 L 122.279 248.722 L 123.287 248.722 L 123.287 248.344 L 122.279 248.344 L 122.279 248.178 L 122.314 247.976 L 122.43 247.84 L 122.627 247.759 L 122.909 247.729 L 123.287 247.749 L 123.287 247.366 L 122.808 247.341 L 122.375 247.386 L 122.072 247.522 L 121.89 247.759 L 121.835 248.097 L 121.835 248.344 L 121.023 248.344 L 121.023 248.722 L 121.835 248.722 L 121.835 248.722 z M 125.864 250.609 L 125.864 250.624 L 125.89 250.795 L 125.965 250.916 L 126.283 251.012 L 126.53 250.972 L 126.53 250.629 L 126.424 250.644 L 126.283 250.578 L 126.258 250.377 L 126.258 248.975 L 126.197 248.617 L 126.021 248.364 L 125.713 248.213 L 125.279 248.158 L 124.856 248.218 L 124.543 248.39 L 124.346 248.657 L 124.281 249.01 L 124.281 249.04 L 124.679 249.04 L 124.715 248.828 L 124.826 248.677 L 125.007 248.586 L 125.264 248.551 L 125.511 248.576 L 125.688 248.652 L 125.794 248.783 L 125.829 248.965 L 125.809 249.176 L 125.728 249.282 L 125.527 249.333 L 125.148 249.373 L 124.715 249.464 L 124.407 249.625 L 124.225 249.877 L 124.17 250.251 L 124.22 250.583 L 124.377 250.83 L 124.629 250.987 L 124.977 251.042 L 125.446 250.936 L 125.864 250.609 L 125.864 250.609 z M 125.814 250.013 L 125.753 250.276 L 125.592 250.477 L 125.35 250.609 L 125.052 250.654 L 124.861 250.629 L 124.725 250.548 L 124.639 250.407 L 124.614 250.21 L 124.634 250.034 L 124.715 249.908 L 125.037 249.766 L 125.446 249.706 L 125.814 249.585 L 125.814 250.013 L 125.814 250.013 z M 129.016 249.151 L 129.455 249.151 L 129.364 248.748 L 129.148 248.43 L 128.81 248.233 L 128.371 248.158 L 127.887 248.258 L 127.519 248.541 L 127.287 249 L 127.206 249.615 L 127.282 250.225 L 127.508 250.679 L 127.867 250.962 L 128.356 251.057 L 128.789 250.982 L 129.127 250.77 L 129.359 250.437 L 129.46 249.993 L 129.037 249.993 L 128.961 250.276 L 128.82 250.488 L 128.618 250.619 L 128.371 250.659 L 128.063 250.593 L 127.841 250.392 L 127.705 250.064 L 127.66 249.6 L 127.705 249.146 L 127.846 248.818 L 128.073 248.617 L 128.371 248.546 L 128.633 248.591 L 128.83 248.707 L 128.961 248.899 L 129.016 249.151 L 129.016 249.151 z M 130.716 249.736 L 132.491 249.736 L 132.496 249.529 L 132.416 248.949 L 132.194 248.516 L 131.841 248.253 L 131.372 248.158 L 130.913 248.258 L 130.56 248.541 L 130.333 249 L 130.252 249.605 L 130.328 250.225 L 130.555 250.679 L 130.903 250.962 L 131.356 251.057 L 131.75 250.992 L 132.073 250.82 L 132.31 250.548 L 132.446 250.185 L 132.007 250.185 L 131.916 250.387 L 131.785 250.538 L 131.412 250.659 L 131.124 250.604 L 130.908 250.427 L 130.766 250.14 L 130.716 249.751 L 130.716 249.736 L 130.716 249.736 z M 130.716 249.363 L 130.771 249.015 L 130.908 248.758 L 131.114 248.601 L 131.387 248.546 L 131.654 248.601 L 131.861 248.758 L 131.987 249.015 L 132.032 249.363 L 130.716 249.363 L 130.716 249.363 z" stroke="none" fill-rule="evenodd" fill="rgb(0, 0, 0)"/></g><g stroke="rgb(0, 0, 0)" stroke-width="0.13" stroke-linecap="butt" stroke-linejoin="miter" fill="none"><path d="M 137.812 251.935 L 138.13 251.935 L 137.842 251.4 L 137.64 250.841 L 137.514 250.251 L 137.474 249.655 L 137.514 249.06 L 137.64 248.475 L 137.842 247.91 L 138.13 247.376 L 137.812 247.376 L 137.444 247.931 L 137.186 248.48 L 137.035 249.055 L 136.99 249.655 L 137.035 250.261 L 137.186 250.83 L 137.444 251.38 L 137.812 251.935 L 137.812 251.935 z M 139.759 250.962 L 140.455 249.908 L 141.171 250.962 L 141.705 250.962 L 140.737 249.565 L 141.65 248.253 L 141.135 248.253 L 140.475 249.237 L 139.814 248.253 L 139.29 248.253 L 140.187 249.57 L 139.239 250.962 L 139.759 250.962 L 139.759 250.962 z M 142.245 249.862 L 142.245 249.897 L 142.326 250.382 L 142.563 250.745 L 142.936 250.977 L 143.43 251.062 L 143.955 250.977 L 144.348 250.755 L 144.6 250.402 L 144.691 249.948 L 144.65 249.65 L 144.54 249.408 L 144.358 249.222 L 144.116 249.086 L 144.444 248.813 L 144.56 248.379 L 144.484 247.986 L 144.267 247.689 L 143.914 247.502 L 143.43 247.436 L 142.976 247.517 L 142.628 247.739 L 142.401 248.092 L 142.326 248.561 L 142.326 248.596 L 142.774 248.596 L 142.815 248.274 L 142.946 248.042 L 143.158 247.9 L 143.455 247.85 L 143.717 247.89 L 143.909 247.996 L 144.025 248.168 L 144.071 248.4 L 144.025 248.647 L 143.904 248.813 L 143.692 248.914 L 143.405 248.944 L 143.208 248.939 L 143.208 249.338 L 143.455 249.328 L 143.773 249.373 L 144.01 249.494 L 144.151 249.691 L 144.202 249.948 L 144.146 250.24 L 144 250.457 L 143.768 250.593 L 143.46 250.639 L 143.143 250.588 L 142.911 250.437 L 142.764 250.195 L 142.709 249.862 L 142.245 249.862 L 142.245 249.862 z M 146.189 251.935 L 146.552 251.38 L 146.809 250.83 L 146.96 250.261 L 147.011 249.655 L 146.96 249.055 L 146.809 248.48 L 146.552 247.931 L 146.189 247.376 L 145.871 247.376 L 146.153 247.91 L 146.355 248.475 L 146.476 249.06 L 146.522 249.655 L 146.476 250.251 L 146.355 250.841 L 146.148 251.4 L 145.871 251.935 L 146.189 251.935 L 146.189 251.935 z" stroke="none" fill-rule="evenodd" fill="rgb(0, 0, 0)"/></g><g stroke="rgb(0, 0, 0)" stroke-width="0.13" stroke-linecap="butt" stroke-linejoin="miter" fill="none"><path d="M 99.9523 257.008 L 102.171 257.008 L 102.171 256.585 L 100.416 256.585 L 100.416 255.4 L 101.98 255.4 L 101.98 254.981 L 100.416 254.981 L 100.416 253.932 L 102.131 253.932 L 102.131 253.508 L 99.9523 253.508 L 99.9523 257.008 L 99.9523 257.008 z M 104.728 255.198 L 105.167 255.198 L 105.076 254.794 L 104.859 254.477 L 104.522 254.28 L 104.083 254.204 L 103.599 254.305 L 103.23 254.588 L 102.998 255.047 L 102.918 255.662 L 102.993 256.272 L 103.22 256.726 L 103.578 257.008 L 104.068 257.104 L 104.501 257.029 L 104.839 256.817 L 105.071 256.484 L 105.172 256.04 L 104.748 256.04 L 104.673 256.323 L 104.532 256.534 L 104.33 256.666 L 104.083 256.706 L 103.775 256.64 L 103.553 256.439 L 103.417 256.111 L 103.372 255.647 L 103.417 255.193 L 103.558 254.865 L 103.785 254.663 L 104.083 254.593 L 104.345 254.638 L 104.542 254.754 L 104.673 254.946 L 104.728 255.198 L 104.728 255.198 z M 106.04 257.008 L 106.483 257.008 L 106.483 255.445 L 106.529 255.087 L 106.675 254.825 L 106.902 254.663 L 107.204 254.603 L 107.447 254.653 L 107.598 254.789 L 107.674 255.016 L 107.699 255.319 L 107.699 257.008 L 108.143 257.008 L 108.143 255.228 L 108.122 254.87 L 108.032 254.573 L 107.734 254.3 L 107.27 254.204 L 107.018 254.24 L 106.801 254.336 L 106.619 254.487 L 106.483 254.694 L 106.483 253.387 L 106.04 253.387 L 106.04 257.008 L 106.04 257.008 z M 109.464 255.783 L 111.239 255.783 L 111.244 255.576 L 111.163 254.996 L 110.942 254.562 L 110.589 254.3 L 110.119 254.204 L 109.661 254.305 L 109.308 254.588 L 109.081 255.047 L 109 255.652 L 109.076 256.272 L 109.302 256.726 L 109.65 257.008 L 110.104 257.104 L 110.498 257.039 L 110.82 256.867 L 111.058 256.595 L 111.194 256.232 L 110.755 256.232 L 110.664 256.434 L 110.533 256.585 L 110.16 256.706 L 109.872 256.65 L 109.656 256.474 L 109.514 256.186 L 109.464 255.798 L 109.464 255.783 L 109.464 255.783 z M 109.464 255.41 L 109.519 255.062 L 109.656 254.805 L 109.862 254.648 L 110.135 254.593 L 110.402 254.648 L 110.609 254.805 L 110.735 255.062 L 110.78 255.41 L 109.464 255.41 L 109.464 255.41 z M 112.994 253.761 L 112.994 256.635 L 112.081 256.635 L 112.081 257.008 L 114.346 257.008 L 114.346 256.635 L 113.438 256.635 L 113.438 253.387 L 112.298 253.387 L 112.298 253.761 L 112.994 253.761 L 112.994 253.761 z M 116.03 253.761 L 116.03 256.635 L 115.117 256.635 L 115.117 257.008 L 117.382 257.008 L 117.382 256.635 L 116.474 256.635 L 116.474 253.387 L 115.334 253.387 L 115.334 253.761 L 116.03 253.761 L 116.03 253.761 z M 118.572 255.783 L 120.347 255.783 L 120.352 255.576 L 120.271 254.996 L 120.05 254.562 L 119.697 254.3 L 119.228 254.204 L 118.769 254.305 L 118.416 254.588 L 118.189 255.047 L 118.108 255.652 L 118.184 256.272 L 118.411 256.726 L 118.759 257.008 L 119.212 257.104 L 119.606 257.039 L 119.929 256.867 L 120.166 256.595 L 120.302 256.232 L 119.863 256.232 L 119.772 256.434 L 119.641 256.585 L 119.268 256.706 L 118.98 256.65 L 118.764 256.474 L 118.622 256.186 L 118.572 255.798 L 118.572 255.783 L 118.572 255.783 z M 118.572 255.41 L 118.627 255.062 L 118.764 254.805 L 118.97 254.648 L 119.243 254.593 L 119.51 254.648 L 119.717 254.805 L 119.843 255.062 L 119.888 255.41 L 118.572 255.41 L 118.572 255.41 z M 124.952 257.008 L 125.648 257.008 L 125.648 256.257 L 124.952 256.257 L 124.952 257.008 L 124.952 257.008 z M 124.952 255.052 L 125.648 255.052 L 125.648 254.3 L 124.952 254.3 L 124.952 255.052 L 124.952 255.052 z" stroke="none" fill-rule="evenodd" fill="rgb(0, 0, 0)"/></g><g stroke="rgb(0, 0, 0)" stroke-width="0.13" stroke-linecap="butt" stroke-linejoin="miter" fill="none"><path d="M 134.317 257.008 L 134.776 257.008 L 134.776 253.483 L 134.433 253.483 L 134.342 253.791 L 134.161 253.998 L 133.883 254.119 L 133.5 254.159 L 133.5 254.517 L 134.317 254.517 L 134.317 257.008 L 134.317 257.008 z M 137.096 257.008 L 137.792 257.008 L 137.792 256.257 L 137.096 256.257 L 137.096 257.008 L 137.096 257.008 z M 137.096 255.052 L 137.792 255.052 L 137.792 254.3 L 137.096 254.3 L 137.096 255.052 L 137.096 255.052 z M 140.389 257.008 L 140.848 257.008 L 140.848 253.483 L 140.505 253.483 L 140.414 253.791 L 140.233 253.998 L 139.955 254.119 L 139.572 254.159 L 139.572 254.517 L 140.389 254.517 L 140.389 257.008 L 140.389 257.008 z" stroke="none" fill-rule="evenodd" fill="rgb(0, 0, 0)"/></g><g stroke="rgb(0, 0, 0)" stroke-width="0.13" stroke-linecap="butt" stroke-linejoin="miter" fill="none"><path d="M 156.213 217.224 L 156.626 217.113 L 156.949 216.866 L 157.151 216.503 L 157.226 216.039 L 157.135 215.529 L 156.888 215.131 L 156.495 214.879 L 155.991 214.783 L 155.522 214.869 L 155.153 215.111 L 154.916 215.489 L 154.831 215.978 L 154.891 216.356 L 155.058 216.649 L 154.115 216.508 L 154.115 214.974 L 153.701 214.974 L 153.701 216.845 L 155.557 217.123 L 155.557 216.719 L 155.32 216.427 L 155.234 216.054 L 155.29 215.731 L 155.451 215.484 L 155.698 215.327 L 156.016 215.272 L 156.334 215.327 L 156.581 215.489 L 156.737 215.736 L 156.792 216.054 L 156.757 216.321 L 156.641 216.528 L 156.46 216.679 L 156.213 216.755 L 156.213 217.224 L 156.213 217.224 z M 155.416 213.452 L 156.207 213.377 L 156.772 213.14 L 157.115 212.761 L 157.226 212.237 L 157.115 211.718 L 156.772 211.339 L 156.207 211.107 L 155.416 211.027 L 154.629 211.107 L 154.316 211.203 L 154.059 211.339 L 153.716 211.718 L 153.6 212.237 L 153.716 212.761 L 154.064 213.14 L 154.629 213.377 L 155.416 213.452 L 155.416 213.452 z M 155.416 212.968 L 154.805 212.928 L 154.367 212.802 L 154.109 212.575 L 154.019 212.237 L 154.109 211.904 L 154.367 211.677 L 154.805 211.551 L 155.416 211.511 L 156.031 211.551 L 156.47 211.677 L 156.727 211.904 L 156.813 212.237 L 156.727 212.575 L 156.47 212.802 L 156.031 212.928 L 155.416 212.968 L 155.416 212.968 z" stroke="none" fill-rule="evenodd" fill="rgb(0, 0, 0)"/><path d="M 158.608 237.173 L 159.125 239.105 L 159.643 237.173"/><path d="M 159.643 191.037 L 159.125 189.105 L 158.608 191.037"/><path d="M 159.125 239.105 L 159.125 189.105"/></g><g stroke="rgb(0, 0, 0)" stroke-width="0.13" stroke-linecap="butt" stroke-linejoin="miter" fill="none"><path d="M 295.789 165.636 L 294.912 168.617 L 294.009 165.636 L 293.53 165.636 L 294.66 169.141 L 295.164 169.141 L 296.268 165.636 L 295.789 165.636 L 295.789 165.636 z M 298.992 166.433 L 298.548 166.433 L 298.548 167.997 L 298.498 168.36 L 298.351 168.622 L 298.124 168.783 L 297.827 168.834 L 297.59 168.793 L 297.439 168.672 L 297.353 168.466 L 297.333 168.173 L 297.333 166.433 L 296.889 166.433 L 296.889 168.213 L 296.904 168.571 L 297 168.869 L 297.292 169.141 L 297.761 169.237 L 298.013 169.202 L 298.23 169.111 L 298.417 168.955 L 298.568 168.728 L 298.568 169.141 L 298.992 169.141 L 298.992 166.433 L 298.992 166.433 z M 300.328 167.916 L 302.104 167.916 L 302.109 167.709 L 302.028 167.129 L 301.806 166.695 L 301.453 166.433 L 300.984 166.337 L 300.525 166.438 L 300.172 166.721 L 299.945 167.18 L 299.864 167.785 L 299.94 168.405 L 300.167 168.859 L 300.515 169.141 L 300.969 169.237 L 301.362 169.172 L 301.685 169 L 301.922 168.728 L 302.058 168.365 L 301.619 168.365 L 301.529 168.566 L 301.397 168.718 L 301.024 168.839 L 300.737 168.783 L 300.52 168.607 L 300.379 168.319 L 300.328 167.931 L 300.328 167.916 L 300.328 167.916 z M 300.328 167.543 L 300.384 167.195 L 300.52 166.937 L 300.727 166.781 L 300.999 166.726 L 301.266 166.781 L 301.473 166.937 L 301.599 167.195 L 301.645 167.543 L 300.328 167.543 L 300.328 167.543 z M 307.676 168.723 L 307.676 169.141 L 308.12 169.141 L 308.12 165.52 L 307.681 165.52 L 307.681 166.847 L 307.343 166.463 L 307.137 166.373 L 306.9 166.337 L 306.471 166.438 L 306.138 166.721 L 305.921 167.174 L 305.846 167.785 L 305.921 168.395 L 306.138 168.854 L 306.471 169.141 L 306.9 169.237 L 307.137 169.202 L 307.349 169.111 L 307.676 168.723 L 307.676 168.723 z M 306.975 166.736 L 307.268 166.806 L 307.49 167.003 L 307.621 167.331 L 307.671 167.785 L 307.621 168.244 L 307.49 168.571 L 307.268 168.773 L 306.975 168.839 L 306.698 168.773 L 306.486 168.571 L 306.345 168.239 L 306.3 167.785 L 306.345 167.336 L 306.486 167.008 L 306.698 166.806 L 306.975 166.736 L 306.975 166.736 z M 309.436 167.916 L 311.212 167.916 L 311.217 167.709 L 311.136 167.129 L 310.914 166.695 L 310.561 166.433 L 310.092 166.337 L 309.633 166.438 L 309.28 166.721 L 309.053 167.18 L 308.972 167.785 L 309.048 168.405 L 309.275 168.859 L 309.623 169.141 L 310.077 169.237 L 310.47 169.172 L 310.793 169 L 311.03 168.728 L 311.166 168.365 L 310.728 168.365 L 310.637 168.566 L 310.506 168.718 L 310.132 168.839 L 309.845 168.783 L 309.628 168.607 L 309.487 168.319 L 309.436 167.931 L 309.436 167.916 L 309.436 167.916 z M 309.436 167.543 L 309.492 167.195 L 309.628 166.937 L 309.835 166.781 L 310.107 166.726 L 310.374 166.781 L 310.581 166.937 L 310.707 167.195 L 310.753 167.543 L 309.436 167.543 L 309.436 167.543 z M 315.735 166.902 L 315.735 169.141 L 316.179 169.141 L 316.179 166.902 L 317.188 166.902 L 317.188 166.524 L 316.179 166.524 L 316.179 166.357 L 316.215 166.156 L 316.331 166.02 L 316.527 165.939 L 316.81 165.909 L 317.188 165.929 L 317.188 165.546 L 316.709 165.52 L 316.275 165.566 L 315.973 165.702 L 315.791 165.939 L 315.735 166.277 L 315.735 166.524 L 314.923 166.524 L 314.923 166.902 L 315.735 166.902 L 315.735 166.902 z M 319.765 168.788 L 319.765 168.803 L 319.79 168.975 L 319.866 169.096 L 320.184 169.192 L 320.431 169.151 L 320.431 168.809 L 320.325 168.824 L 320.184 168.758 L 320.158 168.556 L 320.158 167.154 L 320.098 166.796 L 319.921 166.544 L 319.614 166.393 L 319.18 166.337 L 318.756 166.398 L 318.444 166.569 L 318.247 166.837 L 318.181 167.19 L 318.181 167.22 L 318.58 167.22 L 318.615 167.008 L 318.726 166.857 L 318.908 166.766 L 319.165 166.731 L 319.412 166.756 L 319.589 166.832 L 319.694 166.963 L 319.73 167.144 L 319.71 167.356 L 319.629 167.462 L 319.427 167.512 L 319.049 167.553 L 318.615 167.644 L 318.308 167.805 L 318.126 168.057 L 318.07 168.43 L 318.121 168.763 L 318.277 169.01 L 318.529 169.167 L 318.877 169.222 L 319.346 169.116 L 319.765 168.788 L 319.765 168.788 z M 319.715 168.193 L 319.654 168.455 L 319.493 168.657 L 319.251 168.788 L 318.953 168.834 L 318.761 168.809 L 318.625 168.728 L 318.54 168.587 L 318.514 168.39 L 318.534 168.213 L 318.615 168.087 L 318.938 167.946 L 319.346 167.886 L 319.715 167.765 L 319.715 168.193 L 319.715 168.193 z M 322.917 167.331 L 323.356 167.331 L 323.265 166.927 L 323.048 166.61 L 322.71 166.413 L 322.272 166.337 L 321.787 166.438 L 321.419 166.721 L 321.187 167.18 L 321.107 167.795 L 321.182 168.405 L 321.409 168.859 L 321.767 169.141 L 322.256 169.237 L 322.69 169.162 L 323.028 168.95 L 323.26 168.617 L 323.361 168.173 L 322.937 168.173 L 322.862 168.455 L 322.72 168.667 L 322.519 168.798 L 322.272 168.839 L 321.964 168.773 L 321.742 168.571 L 321.606 168.244 L 321.56 167.78 L 321.606 167.326 L 321.747 166.998 L 321.974 166.796 L 322.272 166.726 L 322.534 166.771 L 322.73 166.887 L 322.862 167.079 L 322.917 167.331 L 322.917 167.331 z M 324.617 167.916 L 326.392 167.916 L 326.397 167.709 L 326.316 167.129 L 326.094 166.695 L 325.741 166.433 L 325.272 166.337 L 324.813 166.438 L 324.46 166.721 L 324.233 167.18 L 324.153 167.785 L 324.228 168.405 L 324.455 168.859 L 324.803 169.141 L 325.257 169.237 L 325.651 169.172 L 325.973 169 L 326.21 168.728 L 326.346 168.365 L 325.908 168.365 L 325.817 168.566 L 325.686 168.718 L 325.313 168.839 L 325.025 168.783 L 324.808 168.607 L 324.667 168.319 L 324.617 167.931 L 324.617 167.916 L 324.617 167.916 z M 324.617 167.543 L 324.672 167.195 L 324.808 166.937 L 325.015 166.781 L 325.287 166.726 L 325.555 166.781 L 325.761 166.937 L 325.888 167.195 L 325.933 167.543 L 324.617 167.543 L 324.617 167.543 z" stroke="none" fill-rule="evenodd" fill="rgb(0, 0, 0)"/></g><g stroke="rgb(0, 0, 0)" stroke-width="0.13" stroke-linecap="butt" stroke-linejoin="miter" fill="none"><path d="M 331.712 170.115 L 332.03 170.115 L 331.743 169.58 L 331.541 169.02 L 331.415 168.43 L 331.374 167.835 L 331.415 167.24 L 331.541 166.655 L 331.743 166.09 L 332.03 165.556 L 331.712 165.556 L 331.344 166.11 L 331.087 166.66 L 330.936 167.235 L 330.89 167.835 L 330.936 168.44 L 331.087 169.01 L 331.344 169.56 L 331.712 170.115 L 331.712 170.115 z M 333.659 169.141 L 334.355 168.087 L 335.071 169.141 L 335.606 169.141 L 334.637 167.744 L 335.55 166.433 L 335.036 166.433 L 334.375 167.417 L 333.714 166.433 L 333.19 166.433 L 334.088 167.749 L 333.14 169.141 L 333.659 169.141 L 333.659 169.141 z M 337.325 169.141 L 337.784 169.141 L 337.784 165.616 L 337.441 165.616 L 337.351 165.924 L 337.169 166.131 L 336.892 166.252 L 336.508 166.292 L 336.508 166.65 L 337.325 166.65 L 337.325 169.141 L 337.325 169.141 z M 340.089 170.115 L 340.452 169.56 L 340.709 169.01 L 340.861 168.44 L 340.911 167.835 L 340.861 167.235 L 340.709 166.66 L 340.452 166.11 L 340.089 165.556 L 339.771 165.556 L 340.054 166.09 L 340.256 166.655 L 340.377 167.24 L 340.422 167.835 L 340.377 168.43 L 340.256 169.02 L 340.049 169.58 L 339.771 170.115 L 340.089 170.115 L 340.089 170.115 z" stroke="none" fill-rule="evenodd" fill="rgb(0, 0, 0)"/></g><g stroke="rgb(0, 0, 0)" stroke-width="0.13" stroke-linecap="butt" stroke-linejoin="miter" fill="none"><path d="M 293.853 175.188 L 296.072 175.188 L 296.072 174.765 L 294.317 174.765 L 294.317 173.579 L 295.88 173.579 L 295.88 173.161 L 294.317 173.161 L 294.317 172.112 L 296.031 172.112 L 296.031 171.688 L 293.853 171.688 L 293.853 175.188 L 293.853 175.188 z M 298.629 173.378 L 299.067 173.378 L 298.977 172.974 L 298.76 172.656 L 298.422 172.46 L 297.983 172.384 L 297.499 172.485 L 297.131 172.767 L 296.899 173.226 L 296.818 173.842 L 296.894 174.452 L 297.121 174.906 L 297.479 175.188 L 297.968 175.284 L 298.402 175.208 L 298.74 174.997 L 298.972 174.664 L 299.073 174.22 L 298.649 174.22 L 298.573 174.502 L 298.432 174.714 L 298.23 174.845 L 297.983 174.886 L 297.676 174.82 L 297.454 174.618 L 297.317 174.29 L 297.272 173.827 L 297.317 173.373 L 297.459 173.045 L 297.686 172.843 L 297.983 172.772 L 298.245 172.818 L 298.442 172.934 L 298.573 173.126 L 298.629 173.378 L 298.629 173.378 z M 299.94 175.188 L 300.384 175.188 L 300.384 173.625 L 300.429 173.267 L 300.575 173.004 L 300.802 172.843 L 301.105 172.783 L 301.347 172.833 L 301.498 172.969 L 301.574 173.196 L 301.599 173.499 L 301.599 175.188 L 302.043 175.188 L 302.043 173.408 L 302.023 173.05 L 301.932 172.752 L 301.634 172.48 L 301.171 172.384 L 300.918 172.419 L 300.702 172.515 L 300.52 172.667 L 300.384 172.873 L 300.384 171.567 L 299.94 171.567 L 299.94 175.188 L 299.94 175.188 z M 303.364 173.963 L 305.14 173.963 L 305.145 173.756 L 305.064 173.176 L 304.842 172.742 L 304.489 172.48 L 304.02 172.384 L 303.561 172.485 L 303.208 172.767 L 302.981 173.226 L 302.9 173.832 L 302.976 174.452 L 303.203 174.906 L 303.551 175.188 L 304.005 175.284 L 304.398 175.218 L 304.721 175.047 L 304.958 174.775 L 305.094 174.412 L 304.655 174.412 L 304.565 174.613 L 304.434 174.765 L 304.06 174.886 L 303.773 174.83 L 303.556 174.654 L 303.415 174.366 L 303.364 173.978 L 303.364 173.963 L 303.364 173.963 z M 303.364 173.589 L 303.42 173.241 L 303.556 172.984 L 303.763 172.828 L 304.035 172.772 L 304.302 172.828 L 304.509 172.984 L 304.635 173.241 L 304.681 173.589 L 303.364 173.589 L 303.364 173.589 z M 306.895 171.94 L 306.895 174.815 L 305.982 174.815 L 305.982 175.188 L 308.246 175.188 L 308.246 174.815 L 307.338 174.815 L 307.338 171.567 L 306.199 171.567 L 306.199 171.94 L 306.895 171.94 L 306.895 171.94 z M 309.931 171.94 L 309.931 174.815 L 309.018 174.815 L 309.018 175.188 L 311.282 175.188 L 311.282 174.815 L 310.374 174.815 L 310.374 171.567 L 309.235 171.567 L 309.235 171.94 L 309.931 171.94 L 309.931 171.94 z M 312.472 173.963 L 314.248 173.963 L 314.253 173.756 L 314.172 173.176 L 313.95 172.742 L 313.597 172.48 L 313.128 172.384 L 312.669 172.485 L 312.316 172.767 L 312.089 173.226 L 312.008 173.832 L 312.084 174.452 L 312.311 174.906 L 312.659 175.188 L 313.113 175.284 L 313.506 175.218 L 313.829 175.047 L 314.066 174.775 L 314.202 174.412 L 313.764 174.412 L 313.673 174.613 L 313.542 174.765 L 313.168 174.886 L 312.881 174.83 L 312.664 174.654 L 312.523 174.366 L 312.472 173.978 L 312.472 173.963 L 312.472 173.963 z M 312.472 173.589 L 312.528 173.241 L 312.664 172.984 L 312.871 172.828 L 313.143 172.772 L 313.411 172.828 L 313.617 172.984 L 313.743 173.241 L 313.789 173.589 L 312.472 173.589 L 312.472 173.589 z M 318.852 175.188 L 319.548 175.188 L 319.548 174.437 L 318.852 174.437 L 318.852 175.188 L 318.852 175.188 z M 318.852 173.231 L 319.548 173.231 L 319.548 172.48 L 318.852 172.48 L 318.852 173.231 L 318.852 173.231 z" stroke="none" fill-rule="evenodd" fill="rgb(0, 0, 0)"/></g><g stroke="rgb(0, 0, 0)" stroke-width="0.13" stroke-linecap="butt" stroke-linejoin="miter" fill="none"><path d="M 328.217 175.188 L 328.676 175.188 L 328.676 171.663 L 328.333 171.663 L 328.243 171.971 L 328.061 172.177 L 327.784 172.298 L 327.4 172.339 L 327.4 172.697 L 328.217 172.697 L 328.217 175.188 L 328.217 175.188 z M 330.996 175.188 L 331.692 175.188 L 331.692 174.437 L 330.996 174.437 L 330.996 175.188 L 330.996 175.188 z M 330.996 173.231 L 331.692 173.231 L 331.692 172.48 L 330.996 172.48 L 330.996 173.231 L 330.996 173.231 z M 334.289 175.188 L 334.748 175.188 L 334.748 171.663 L 334.405 171.663 L 334.315 171.971 L 334.133 172.177 L 333.856 172.298 L 333.472 172.339 L 333.472 172.697 L 334.289 172.697 L 334.289 175.188 L 334.289 175.188 z" stroke="none" fill-rule="evenodd" fill="rgb(0, 0, 0)"/></g><g stroke="rgb(0, 0, 0)" stroke-width="0.13" stroke-linecap="butt" stroke-linejoin="miter" fill="none"><path d="M 204.855 228.036 L 206.18 228.036 L 206.18 223.814 L 207.65 223.814 L 209.134 223.742 L 210.316 223.237 L 211.08 222.258 L 211.339 220.918 L 211.137 219.678 L 210.561 218.771 L 209.61 218.223 L 208.313 218.036 L 204.855 218.036 L 204.855 228.036 L 204.855 228.036 z M 207.953 219.26 L 208.817 219.347 L 209.451 219.621 L 209.826 220.125 L 209.956 220.918 L 209.812 221.753 L 209.422 222.258 L 208.76 222.517 L 207.852 222.589 L 206.18 222.589 L 206.18 219.26 L 207.953 219.26 L 207.953 219.26 z M 213.212 224.174 L 213.443 225.932 L 214.105 227.229 L 215.157 228.036 L 216.569 228.309 L 217.967 228.036 L 219.019 227.243 L 219.682 225.946 L 219.927 224.174 L 219.682 222.416 L 219.019 221.105 L 217.967 220.312 L 216.569 220.024 L 215.157 220.312 L 214.105 221.119 L 213.443 222.416 L 213.212 224.174 L 213.212 224.174 z M 214.509 224.16 L 214.639 222.863 L 215.042 221.926 L 215.69 221.35 L 216.569 221.148 L 217.434 221.35 L 218.082 221.912 L 218.486 222.863 L 218.63 224.16 L 218.486 225.471 L 218.082 226.422 L 217.434 226.998 L 216.569 227.186 L 215.69 226.998 L 215.042 226.422 L 214.639 225.471 L 214.509 224.16 L 214.509 224.16 z M 222.737 228.036 L 224.005 228.036 L 224.005 223.612 L 224.134 222.546 L 224.523 221.782 L 225.157 221.321 L 226.007 221.162 L 226.641 221.263 L 227.117 221.552 L 227.405 222.041 L 227.506 222.704 L 228.788 222.704 L 228.616 221.537 L 228.14 220.701 L 227.348 220.197 L 226.267 220.024 L 225.532 220.139 L 224.898 220.428 L 224.336 220.918 L 223.889 221.58 L 223.889 220.298 L 222.737 220.298 L 222.737 228.036 L 222.737 228.036 z M 232.636 221.638 L 232.636 225.514 L 232.722 226.768 L 233.126 227.632 L 233.933 228.137 L 235.301 228.309 L 236.8 228.237 L 236.8 227.142 L 235.705 227.229 L 234.711 227.113 L 234.178 226.753 L 233.947 226.148 L 233.904 225.298 L 233.904 221.638 L 236.8 221.638 L 236.8 220.557 L 233.904 220.557 L 233.904 218.295 L 232.636 218.295 L 232.636 220.557 L 230.446 220.557 L 230.446 221.638 L 232.636 221.638 L 232.636 221.638 z M 240.719 224.534 L 245.791 224.534 L 245.806 223.943 L 245.575 222.286 L 244.941 221.047 L 243.933 220.298 L 242.592 220.024 L 241.281 220.312 L 240.273 221.119 L 239.624 222.43 L 239.394 224.16 L 239.61 225.932 L 240.258 227.229 L 241.252 228.036 L 242.549 228.309 L 243.673 228.122 L 244.595 227.632 L 245.273 226.854 L 245.662 225.817 L 244.408 225.817 L 244.149 226.393 L 243.774 226.825 L 242.708 227.171 L 241.886 227.013 L 241.267 226.508 L 240.863 225.687 L 240.719 224.577 L 240.719 224.534 L 240.719 224.534 z M 240.719 223.468 L 240.878 222.474 L 241.267 221.739 L 241.858 221.292 L 242.636 221.134 L 243.399 221.292 L 243.99 221.739 L 244.35 222.474 L 244.48 223.468 L 240.719 223.468 L 240.719 223.468 z M 259.278 228.036 L 260.618 228.036 L 263.443 220.298 L 262.131 220.298 L 259.956 226.537 L 257.737 220.298 L 256.411 220.298 L 259.278 228.036 L 259.278 228.036 z M 267.621 219.246 L 268.471 219.246 L 270.474 216.796 L 269.062 216.796 L 267.621 219.246 L 267.621 219.246 z M 266.742 224.534 L 271.814 224.534 L 271.829 223.943 L 271.598 222.286 L 270.964 221.047 L 269.956 220.298 L 268.616 220.024 L 267.304 220.312 L 266.296 221.119 L 265.647 222.43 L 265.417 224.16 L 265.633 225.932 L 266.281 227.229 L 267.276 228.036 L 268.572 228.309 L 269.696 228.122 L 270.618 227.632 L 271.296 226.854 L 271.685 225.817 L 270.431 225.817 L 270.172 226.393 L 269.797 226.825 L 268.731 227.171 L 267.91 227.013 L 267.29 226.508 L 266.886 225.687 L 266.742 224.577 L 266.742 224.534 L 266.742 224.534 z M 266.742 223.468 L 266.901 222.474 L 267.29 221.739 L 267.881 221.292 L 268.659 221.134 L 269.422 221.292 L 270.013 221.739 L 270.373 222.474 L 270.503 223.468 L 266.742 223.468 L 266.742 223.468 z M 276.829 218.756 L 276.829 226.969 L 274.221 226.969 L 274.221 228.036 L 280.69 228.036 L 280.69 226.969 L 278.097 226.969 L 278.097 217.69 L 274.84 217.69 L 274.84 218.756 L 276.829 218.756 L 276.829 218.756 z M 282.607 224.174 L 282.837 225.932 L 283.5 227.229 L 284.552 228.036 L 285.964 228.309 L 287.362 228.036 L 288.414 227.243 L 289.077 225.946 L 289.322 224.174 L 289.077 222.416 L 288.414 221.105 L 287.362 220.312 L 285.964 220.024 L 284.552 220.312 L 283.5 221.119 L 282.837 222.416 L 282.607 224.174 L 282.607 224.174 z M 283.904 224.16 L 284.033 222.863 L 284.437 221.926 L 285.085 221.35 L 285.964 221.148 L 286.829 221.35 L 287.477 221.912 L 287.881 222.863 L 288.025 224.16 L 287.881 225.471 L 287.477 226.422 L 286.829 226.998 L 285.964 227.186 L 285.085 226.998 L 284.437 226.422 L 284.033 225.471 L 283.904 224.16 L 283.904 224.16 z M 302.319 228.036 L 304.307 228.036 L 304.307 225.889 L 302.319 225.889 L 302.319 228.036 L 302.319 228.036 z M 302.319 222.445 L 304.307 222.445 L 304.307 220.298 L 302.319 220.298 L 302.319 222.445 L 302.319 222.445 z M 318.154 228.036 L 319.422 228.036 L 319.422 223.612 L 319.552 222.546 L 319.941 221.782 L 320.575 221.321 L 321.425 221.162 L 322.059 221.263 L 322.535 221.552 L 322.823 222.041 L 322.924 222.704 L 324.206 222.704 L 324.033 221.537 L 323.558 220.701 L 322.765 220.197 L 321.685 220.024 L 320.95 220.139 L 320.316 220.428 L 319.754 220.918 L 319.307 221.58 L 319.307 220.298 L 318.154 220.298 L 318.154 228.036 L 318.154 228.036 z M 327.463 224.534 L 332.535 224.534 L 332.549 223.943 L 332.319 222.286 L 331.685 221.047 L 330.676 220.298 L 329.336 220.024 L 328.025 220.312 L 327.016 221.119 L 326.368 222.43 L 326.137 224.16 L 326.353 225.932 L 327.002 227.229 L 327.996 228.036 L 329.293 228.309 L 330.417 228.122 L 331.339 227.632 L 332.016 226.854 L 332.405 225.817 L 331.152 225.817 L 330.892 226.393 L 330.518 226.825 L 329.451 227.171 L 328.63 227.013 L 328.01 226.508 L 327.607 225.687 L 327.463 224.577 L 327.463 224.534 L 327.463 224.534 z M 327.463 223.468 L 327.621 222.474 L 328.01 221.739 L 328.601 221.292 L 329.379 221.134 L 330.143 221.292 L 330.734 221.739 L 331.094 222.474 L 331.224 223.468 L 327.463 223.468 L 327.463 223.468 z M 336.224 221.494 L 336.224 220.298 L 334.956 220.298 L 334.956 231.033 L 336.224 231.033 L 336.224 226.854 L 336.67 227.531 L 337.175 227.978 L 338.443 228.309 L 339.653 228.036 L 340.604 227.214 L 341.224 225.918 L 341.454 224.16 L 341.224 222.416 L 340.604 221.119 L 339.653 220.312 L 338.443 220.024 L 337.751 220.111 L 337.16 220.384 L 336.656 220.845 L 336.224 221.494 L 336.224 221.494 z M 338.226 227.171 L 337.376 226.984 L 336.757 226.407 L 336.368 225.471 L 336.238 224.16 L 336.368 222.863 L 336.757 221.926 L 337.376 221.364 L 338.226 221.162 L 339.005 221.364 L 339.624 221.941 L 340.013 222.877 L 340.157 224.16 L 340.013 225.456 L 339.624 226.407 L 339.005 226.984 L 338.226 227.171 L 338.226 227.171 z M 343.327 224.174 L 343.558 225.932 L 344.221 227.229 L 345.273 228.036 L 346.685 228.309 L 348.082 228.036 L 349.134 227.243 L 349.797 225.946 L 350.042 224.174 L 349.797 222.416 L 349.134 221.105 L 348.082 220.312 L 346.685 220.024 L 345.273 220.312 L 344.221 221.119 L 343.558 222.416 L 343.327 224.174 L 343.327 224.174 z M 344.624 224.16 L 344.754 222.863 L 345.157 221.926 L 345.806 221.35 L 346.685 221.148 L 347.549 221.35 L 348.198 221.912 L 348.601 222.863 L 348.745 224.16 L 348.601 225.471 L 348.198 226.422 L 347.549 226.998 L 346.685 227.186 L 345.806 226.998 L 345.157 226.422 L 344.754 225.471 L 344.624 224.16 L 344.624 224.16 z M 356.166 223.526 L 354.941 223.237 L 354.033 222.906 L 353.731 222.229 L 353.817 221.753 L 354.12 221.407 L 354.61 221.191 L 355.316 221.105 L 355.993 221.191 L 356.526 221.451 L 356.872 221.84 L 357.016 222.358 L 358.255 222.358 L 358.255 222.33 L 358.039 221.393 L 357.448 220.658 L 356.526 220.197 L 355.316 220.024 L 354.091 220.197 L 353.198 220.673 L 352.636 221.379 L 352.463 222.272 L 352.592 223.137 L 352.996 223.742 L 353.659 224.174 L 354.624 224.477 L 356.036 224.822 L 356.901 225.183 L 357.131 225.471 L 357.218 225.903 L 357.088 226.436 L 356.742 226.84 L 356.18 227.099 L 355.431 227.186 L 354.639 227.099 L 354.062 226.796 L 353.673 226.307 L 353.515 225.629 L 352.29 225.629 L 352.492 226.782 L 353.082 227.618 L 354.019 228.122 L 355.316 228.309 L 356.67 228.122 L 357.664 227.618 L 358.27 226.811 L 358.486 225.759 L 358.327 224.851 L 357.881 224.232 L 357.146 223.828 L 356.166 223.526 L 356.166 223.526 z M 362.16 224.534 L 367.232 224.534 L 367.247 223.943 L 367.016 222.286 L 366.382 221.047 L 365.373 220.298 L 364.033 220.024 L 362.722 220.312 L 361.714 221.119 L 361.065 222.43 L 360.835 224.16 L 361.051 225.932 L 361.699 227.229 L 362.693 228.036 L 363.99 228.309 L 365.114 228.122 L 366.036 227.632 L 366.714 226.854 L 367.103 225.817 L 365.849 225.817 L 365.59 226.393 L 365.215 226.825 L 364.149 227.171 L 363.327 227.013 L 362.708 226.508 L 362.304 225.687 L 362.16 224.577 L 362.16 224.534 L 362.16 224.534 z M 362.16 223.468 L 362.319 222.474 L 362.708 221.739 L 363.298 221.292 L 364.077 221.134 L 364.84 221.292 L 365.431 221.739 L 365.791 222.474 L 365.921 223.468 L 362.16 223.468 L 362.16 223.468 z M 370.964 224.736 L 374.451 224.736 L 374.451 223.598 L 370.964 223.598 L 370.964 224.736 L 370.964 224.736 z M 378.875 228.036 L 380.143 228.036 L 380.143 223.612 L 380.273 222.546 L 380.662 221.782 L 381.296 221.321 L 382.146 221.162 L 382.78 221.263 L 383.255 221.552 L 383.543 222.041 L 383.644 222.704 L 384.927 222.704 L 384.754 221.537 L 384.278 220.701 L 383.486 220.197 L 382.405 220.024 L 381.67 220.139 L 381.036 220.428 L 380.474 220.918 L 380.028 221.58 L 380.028 220.298 L 378.875 220.298 L 378.875 228.036 L 378.875 228.036 z M 386.699 224.174 L 386.93 225.932 L 387.592 227.229 L 388.644 228.036 L 390.056 228.309 L 391.454 228.036 L 392.506 227.243 L 393.169 225.946 L 393.414 224.174 L 393.169 222.416 L 392.506 221.105 L 391.454 220.312 L 390.056 220.024 L 388.644 220.312 L 387.592 221.119 L 386.93 222.416 L 386.699 224.174 L 386.699 224.174 z M 387.996 224.16 L 388.126 222.863 L 388.529 221.926 L 389.177 221.35 L 390.056 221.148 L 390.921 221.35 L 391.569 221.912 L 391.973 222.863 L 392.117 224.16 L 391.973 225.471 L 391.569 226.422 L 390.921 226.998 L 390.056 227.186 L 389.177 226.998 L 388.529 226.422 L 388.126 225.471 L 387.996 224.16 L 387.996 224.16 z M 401.713 220.298 L 400.445 220.298 L 400.445 224.765 L 400.301 225.802 L 399.883 226.552 L 399.235 227.013 L 398.385 227.157 L 397.708 227.041 L 397.275 226.696 L 397.03 226.105 L 396.973 225.269 L 396.973 220.298 L 395.705 220.298 L 395.705 225.384 L 395.748 226.407 L 396.022 227.258 L 396.858 228.036 L 398.198 228.309 L 398.918 228.209 L 399.538 227.949 L 400.071 227.503 L 400.503 226.854 L 400.503 228.036 L 401.713 228.036 L 401.713 220.298 L 401.713 220.298 z M 405.532 224.534 L 410.604 224.534 L 410.618 223.943 L 410.388 222.286 L 409.754 221.047 L 408.745 220.298 L 407.405 220.024 L 406.094 220.312 L 405.085 221.119 L 404.437 222.43 L 404.206 224.16 L 404.422 225.932 L 405.071 227.229 L 406.065 228.036 L 407.362 228.309 L 408.486 228.122 L 409.408 227.632 L 410.085 226.854 L 410.474 225.817 L 409.221 225.817 L 408.961 226.393 L 408.587 226.825 L 407.52 227.171 L 406.699 227.013 L 406.079 226.508 L 405.676 225.687 L 405.532 224.577 L 405.532 224.534 L 405.532 224.534 z M 405.532 223.468 L 405.69 222.474 L 406.079 221.739 L 406.67 221.292 L 407.448 221.134 L 408.212 221.292 L 408.803 221.739 L 409.163 222.474 L 409.293 223.468 L 405.532 223.468 L 405.532 223.468 z" stroke="none" fill-rule="evenodd" fill="rgb(0, 0, 0)"/></g></svg>