solid CATIA STL
  facet normal  0.000000e+000  1.000000e+000  0.000000e+000
    outer loop
      vertex  8.691454e+000  8.000000e+000  0.000000e+000
      vertex -5.308546e+000  8.000000e+000  0.000000e+000
      vertex -5.308546e+000  8.000000e+000  3.000000e+000
    endloop
  endfacet
  facet normal  -0.000000e+000  1.000000e+000  0.000000e+000
    outer loop
      vertex  8.691454e+000  8.000000e+000  0.000000e+000
      vertex -5.308546e+000  8.000000e+000  3.000000e+000
      vertex  0.000000e+000  8.000000e+000  3.000000e+000
    endloop
  endfacet
  facet normal  -0.000000e+000  1.000000e+000  0.000000e+000
    outer loop
      vertex  8.691454e+000  8.000000e+000  0.000000e+000
      vertex  0.000000e+000  8.000000e+000  3.000000e+000
      vertex  3.000000e+000  8.000000e+000  3.000000e+000
    endloop
  endfacet
  facet normal  -0.000000e+000  1.000000e+000  0.000000e+000
    outer loop
      vertex  8.691454e+000  8.000000e+000  0.000000e+000
      vertex  3.000000e+000  8.000000e+000  3.000000e+000
      vertex  8.691454e+000  8.000000e+000  3.000000e+000
    endloop
  endfacet
  facet normal  0.000000e+000  1.000000e+000  -0.000000e+000
    outer loop
      vertex  3.213591e+001  8.000000e+000  2.330000e+001
      vertex  3.213591e+001  8.000000e+000  2.030000e+001
      vertex  0.000000e+000  8.000000e+000  2.330000e+001
    endloop
  endfacet
  facet normal  0.000000e+000  1.000000e+000  0.000000e+000
    outer loop
      vertex  0.000000e+000  8.000000e+000  2.330000e+001
      vertex  3.213591e+001  8.000000e+000  2.030000e+001
      vertex  3.000000e+000  8.000000e+000  2.030000e+001
    endloop
  endfacet
  facet normal  0.000000e+000  1.000000e+000  0.000000e+000
    outer loop
      vertex  0.000000e+000  8.000000e+000  2.330000e+001
      vertex  3.000000e+000  8.000000e+000  2.030000e+001
      vertex  0.000000e+000  8.000000e+000  3.000000e+000
    endloop
  endfacet
  facet normal  0.000000e+000  1.000000e+000  0.000000e+000
    outer loop
      vertex  0.000000e+000  8.000000e+000  3.000000e+000
      vertex  3.000000e+000  8.000000e+000  2.030000e+001
      vertex  3.000000e+000  8.000000e+000  3.000000e+000
    endloop
  endfacet
  facet normal  0.000000e+000 -9.999999e-001  0.000000e+000
    outer loop
      vertex  2.413591e+001 -1.600000e+002  2.030000e+001
      vertex  3.213591e+001 -1.600000e+002  2.030000e+001
      vertex  2.413591e+001 -1.600000e+002  2.330000e+001
    endloop
  endfacet
  facet normal  0.000000e+000 -9.999999e-001  0.000000e+000
    outer loop
      vertex  2.413591e+001 -1.600000e+002  2.330000e+001
      vertex  3.213591e+001 -1.600000e+002  2.030000e+001
      vertex  3.213591e+001 -1.600000e+002  2.330000e+001
    endloop
  endfacet
  facet normal  0.000000e+000  0.000000e+000  1.000000e+000
    outer loop
      vertex  0.000000e+000  8.000000e+000  2.330000e+001
      vertex  0.000000e+000  0.000000e+000  2.330000e+001
      vertex  3.213591e+001  8.000000e+000  2.330000e+001
    endloop
  endfacet
  facet normal  0.000000e+000  0.000000e+000  1.000000e+000
    outer loop
      vertex  3.213591e+001  8.000000e+000  2.330000e+001
      vertex  0.000000e+000  0.000000e+000  2.330000e+001
      vertex  2.413591e+001  0.000000e+000  2.330000e+001
    endloop
  endfacet
  facet normal  -0.000000e+000  0.000000e+000  1.000000e+000
    outer loop
      vertex  3.213591e+001  8.000000e+000  2.330000e+001
      vertex  2.413591e+001  0.000000e+000  2.330000e+001
      vertex  3.213591e+001 -1.600000e+002  2.330000e+001
    endloop
  endfacet
  facet normal  0.000000e+000  0.000000e+000  1.000000e+000
    outer loop
      vertex  3.213591e+001 -1.600000e+002  2.330000e+001
      vertex  2.413591e+001  0.000000e+000  2.330000e+001
      vertex  2.413591e+001 -1.600000e+002  2.330000e+001
    endloop
  endfacet
  facet normal  0.000000e+000  0.000000e+000 -1.000000e+000
    outer loop
      vertex  3.213591e+001 -1.600000e+002  2.030000e+001
      vertex  2.413591e+001 -1.600000e+002  2.030000e+001
      vertex  3.213591e+001  8.000000e+000  2.030000e+001
    endloop
  endfacet
  facet normal  0.000000e+000  0.000000e+000 -1.000000e+000
    outer loop
      vertex  3.213591e+001  8.000000e+000  2.030000e+001
      vertex  2.413591e+001 -1.600000e+002  2.030000e+001
      vertex  2.413591e+001  0.000000e+000  2.030000e+001
    endloop
  endfacet
  facet normal  0.000000e+000  0.000000e+000 -1.000000e+000
    outer loop
      vertex  3.213591e+001  8.000000e+000  2.030000e+001
      vertex  2.413591e+001  0.000000e+000  2.030000e+001
      vertex  3.000000e+000  8.000000e+000  2.030000e+001
    endloop
  endfacet
  facet normal  0.000000e+000  0.000000e+000 -1.000000e+000
    outer loop
      vertex  3.000000e+000  8.000000e+000  2.030000e+001
      vertex  2.413591e+001  0.000000e+000  2.030000e+001
      vertex  3.000000e+000  0.000000e+000  2.030000e+001
    endloop
  endfacet
  facet normal  1.000000e+000  0.000000e+000  0.000000e+000
    outer loop
      vertex  3.213591e+001 -1.600000e+002  2.330000e+001
      vertex  3.213591e+001 -1.600000e+002  2.030000e+001
      vertex  3.213591e+001  8.000000e+000  2.330000e+001
    endloop
  endfacet
  facet normal  1.000000e+000  0.000000e+000  0.000000e+000
    outer loop
      vertex  3.213591e+001  8.000000e+000  2.330000e+001
      vertex  3.213591e+001 -1.600000e+002  2.030000e+001
      vertex  3.213591e+001  8.000000e+000  2.030000e+001
    endloop
  endfacet
  facet normal -1.000000e+000  0.000000e+000  0.000000e+000
    outer loop
      vertex  2.413591e+001  0.000000e+000  2.030000e+001
      vertex  2.413591e+001 -1.600000e+002  2.030000e+001
      vertex  2.413591e+001  0.000000e+000  2.330000e+001
    endloop
  endfacet
  facet normal -1.000000e+000  -0.000000e+000  0.000000e+000
    outer loop
      vertex  2.413591e+001  0.000000e+000  2.330000e+001
      vertex  2.413591e+001 -1.600000e+002  2.030000e+001
      vertex  2.413591e+001 -1.600000e+002  2.330000e+001
    endloop
  endfacet
  facet normal  -0.000000e+000 -1.000000e+000  -0.000000e+000
    outer loop
      vertex  8.691454e+000  0.000000e+000  0.000000e+000
      vertex  8.691454e+000  0.000000e+000  3.000000e+000
      vertex  3.000000e+000  0.000000e+000  3.000000e+000
    endloop
  endfacet
  facet normal  -0.000000e+000 -1.000000e+000  -0.000000e+000
    outer loop
      vertex  8.691454e+000  0.000000e+000  0.000000e+000
      vertex  3.000000e+000  0.000000e+000  3.000000e+000
      vertex  0.000000e+000  0.000000e+000  3.000000e+000
    endloop
  endfacet
  facet normal  -0.000000e+000 -1.000000e+000  -0.000000e+000
    outer loop
      vertex  8.691454e+000  0.000000e+000  0.000000e+000
      vertex  0.000000e+000  0.000000e+000  3.000000e+000
      vertex -5.308546e+000  0.000000e+000  3.000000e+000
    endloop
  endfacet
  facet normal  0.000000e+000 -1.000000e+000  0.000000e+000
    outer loop
      vertex  8.691454e+000  0.000000e+000  0.000000e+000
      vertex -5.308546e+000  0.000000e+000  3.000000e+000
      vertex -5.308546e+000  0.000000e+000  0.000000e+000
    endloop
  endfacet
  facet normal  0.000000e+000 -1.000000e+000  0.000000e+000
    outer loop
      vertex  2.413591e+001  0.000000e+000  2.330000e+001
      vertex  0.000000e+000  0.000000e+000  2.330000e+001
      vertex  2.413591e+001  0.000000e+000  2.030000e+001
    endloop
  endfacet
  facet normal  0.000000e+000 -1.000000e+000  0.000000e+000
    outer loop
      vertex  2.413591e+001  0.000000e+000  2.030000e+001
      vertex  0.000000e+000  0.000000e+000  2.330000e+001
      vertex  3.000000e+000  0.000000e+000  2.030000e+001
    endloop
  endfacet
  facet normal  0.000000e+000 -1.000000e+000  0.000000e+000
    outer loop
      vertex  0.000000e+000  0.000000e+000  2.330000e+001
      vertex  0.000000e+000  0.000000e+000  3.000000e+000
      vertex  3.000000e+000  0.000000e+000  2.030000e+001
    endloop
  endfacet
  facet normal  0.000000e+000 -1.000000e+000  -0.000000e+000
    outer loop
      vertex  3.000000e+000  0.000000e+000  2.030000e+001
      vertex  0.000000e+000  0.000000e+000  3.000000e+000
      vertex  3.000000e+000  0.000000e+000  3.000000e+000
    endloop
  endfacet
  facet normal  1.000000e+000  0.000000e+000  0.000000e+000
    outer loop
      vertex  8.691454e+000  0.000000e+000  3.000000e+000
      vertex  8.691454e+000  0.000000e+000  0.000000e+000
      vertex  8.691454e+000  8.000000e+000  3.000000e+000
    endloop
  endfacet
  facet normal  1.000000e+000  0.000000e+000  0.000000e+000
    outer loop
      vertex  8.691454e+000  8.000000e+000  3.000000e+000
      vertex  8.691454e+000  0.000000e+000  0.000000e+000
      vertex  8.691454e+000  8.000000e+000  0.000000e+000
    endloop
  endfacet
  facet normal  0.000000e+000  0.000000e+000  1.000000e+000
    outer loop
      vertex  3.000000e+000  8.000000e+000  3.000000e+000
      vertex  3.000000e+000  0.000000e+000  3.000000e+000
      vertex  8.691454e+000  8.000000e+000  3.000000e+000
    endloop
  endfacet
  facet normal  0.000000e+000  0.000000e+000  1.000000e+000
    outer loop
      vertex  8.691454e+000  8.000000e+000  3.000000e+000
      vertex  3.000000e+000  0.000000e+000  3.000000e+000
      vertex  8.691454e+000  0.000000e+000  3.000000e+000
    endloop
  endfacet
  facet normal  1.000000e+000  -0.000000e+000  0.000000e+000
    outer loop
      vertex  3.000000e+000  8.000000e+000  2.030000e+001
      vertex  3.000000e+000  0.000000e+000  2.030000e+001
      vertex  3.000000e+000  8.000000e+000  3.000000e+000
    endloop
  endfacet
  facet normal  1.000000e+000  0.000000e+000  0.000000e+000
    outer loop
      vertex  3.000000e+000  8.000000e+000  3.000000e+000
      vertex  3.000000e+000  0.000000e+000  2.030000e+001
      vertex  3.000000e+000  0.000000e+000  3.000000e+000
    endloop
  endfacet
  facet normal -1.000000e+000  0.000000e+000  0.000000e+000
    outer loop
      vertex  0.000000e+000  8.000000e+000  3.000000e+000
      vertex  0.000000e+000  0.000000e+000  3.000000e+000
      vertex  0.000000e+000  8.000000e+000  2.330000e+001
    endloop
  endfacet
  facet normal -1.000000e+000  -0.000000e+000  0.000000e+000
    outer loop
      vertex  0.000000e+000  8.000000e+000  2.330000e+001
      vertex  0.000000e+000  0.000000e+000  3.000000e+000
      vertex  0.000000e+000  0.000000e+000  2.330000e+001
    endloop
  endfacet
  facet normal  0.000000e+000  0.000000e+000  1.000000e+000
    outer loop
      vertex -5.308546e+000  8.000000e+000  3.000000e+000
      vertex -5.308546e+000  0.000000e+000  3.000000e+000
      vertex  0.000000e+000  8.000000e+000  3.000000e+000
    endloop
  endfacet
  facet normal  0.000000e+000  0.000000e+000  1.000000e+000
    outer loop
      vertex  0.000000e+000  8.000000e+000  3.000000e+000
      vertex -5.308546e+000  0.000000e+000  3.000000e+000
      vertex  0.000000e+000  0.000000e+000  3.000000e+000
    endloop
  endfacet
  facet normal -1.000000e+000  0.000000e+000  0.000000e+000
    outer loop
      vertex -5.308546e+000  0.000000e+000  0.000000e+000
      vertex -5.308546e+000  0.000000e+000  3.000000e+000
      vertex -5.308546e+000  8.000000e+000  0.000000e+000
    endloop
  endfacet
  facet normal -1.000000e+000  0.000000e+000  0.000000e+000
    outer loop
      vertex -5.308546e+000  8.000000e+000  0.000000e+000
      vertex -5.308546e+000  0.000000e+000  3.000000e+000
      vertex -5.308546e+000  8.000000e+000  3.000000e+000
    endloop
  endfacet
  facet normal  0.000000e+000  0.000000e+000 -1.000000e+000
    outer loop
      vertex  8.691454e+000  8.000000e+000  0.000000e+000
      vertex  8.691454e+000  0.000000e+000  0.000000e+000
      vertex -5.308546e+000  8.000000e+000  0.000000e+000
    endloop
  endfacet
  facet normal  0.000000e+000  0.000000e+000 -1.000000e+000
    outer loop
      vertex -5.308546e+000  8.000000e+000  0.000000e+000
      vertex  8.691454e+000  0.000000e+000  0.000000e+000
      vertex -5.308546e+000  0.000000e+000  0.000000e+000
    endloop
  endfacet
endsolid CATIA STL
