solid CATIA STL
  facet normal  0.000000e+000  0.000000e+000  1.000000e+000
    outer loop
      vertex  0.000000e+000  0.000000e+000 -1.100000e+001
      vertex  5.075691e+000  0.000000e+000 -1.100000e+001
      vertex  0.000000e+000  8.000000e+000 -1.100000e+001
    endloop
  endfacet
  facet normal  -0.000000e+000  0.000000e+000  1.000000e+000
    outer loop
      vertex  0.000000e+000  8.000000e+000 -1.100000e+001
      vertex  5.075691e+000  0.000000e+000 -1.100000e+001
      vertex  5.075691e+000  8.000000e+000 -1.100000e+001
    endloop
  endfacet
  facet normal  0.000000e+000  0.000000e+000  1.000000e+000
    outer loop
      vertex -9.166243e+001  2.405933e-001  2.000000e+000
      vertex -9.166243e+001 -7.759407e+000  2.000000e+000
      vertex -3.096068e+001 -7.759407e+000  2.000000e+000
    endloop
  endfacet
  facet normal  0.000000e+000  -0.000000e+000  1.000000e+000
    outer loop
      vertex -9.166243e+001  2.405933e-001  2.000000e+000
      vertex -3.096068e+001 -7.759407e+000  2.000000e+000
      vertex -2.040822e+001 -2.131628e-014  2.000000e+000
    endloop
  endfacet
  facet normal  0.000000e+000  -0.000000e+000  1.000000e+000
    outer loop
      vertex -9.166243e+001  2.405933e-001  2.000000e+000
      vertex -2.040822e+001 -2.131628e-014  2.000000e+000
      vertex  0.000000e+000  0.000000e+000  2.000000e+000
    endloop
  endfacet
  facet normal  0.000000e+000  0.000000e+000  1.000000e+000
    outer loop
      vertex -9.166243e+001  2.405933e-001  2.000000e+000
      vertex  0.000000e+000  0.000000e+000  2.000000e+000
      vertex -3.358535e+001  2.405933e-001  2.000000e+000
    endloop
  endfacet
  facet normal  0.000000e+000  0.000000e+000  1.000000e+000
    outer loop
      vertex -3.358535e+001  2.405933e-001  2.000000e+000
      vertex  0.000000e+000  0.000000e+000  2.000000e+000
      vertex -2.303289e+001  8.000000e+000  2.000000e+000
    endloop
  endfacet
  facet normal  -0.000000e+000  0.000000e+000  1.000000e+000
    outer loop
      vertex -2.303289e+001  8.000000e+000  2.000000e+000
      vertex  0.000000e+000  0.000000e+000  2.000000e+000
      vertex  0.000000e+000  8.000000e+000  2.000000e+000
    endloop
  endfacet
  facet normal  0.000000e+000  1.000000e+000  0.000000e+000
    outer loop
      vertex  5.075691e+000  8.000000e+000 -1.300000e+001
      vertex -6.924309e+000  8.000000e+000 -1.300000e+001
      vertex -6.924309e+000  8.000000e+000 -1.100000e+001
    endloop
  endfacet
  facet normal  -0.000000e+000  1.000000e+000  0.000000e+000
    outer loop
      vertex  5.075691e+000  8.000000e+000 -1.300000e+001
      vertex -6.924309e+000  8.000000e+000 -1.100000e+001
      vertex -2.000000e+000  8.000000e+000 -1.100000e+001
    endloop
  endfacet
  facet normal  -0.000000e+000  1.000000e+000  0.000000e+000
    outer loop
      vertex  5.075691e+000  8.000000e+000 -1.300000e+001
      vertex -2.000000e+000  8.000000e+000 -1.100000e+001
      vertex  0.000000e+000  8.000000e+000 -1.100000e+001
    endloop
  endfacet
  facet normal  -0.000000e+000  1.000000e+000  0.000000e+000
    outer loop
      vertex  5.075691e+000  8.000000e+000 -1.300000e+001
      vertex  0.000000e+000  8.000000e+000 -1.100000e+001
      vertex  5.075691e+000  8.000000e+000 -1.100000e+001
    endloop
  endfacet
  facet normal  0.000000e+000  1.000000e+000  0.000000e+000
    outer loop
      vertex -2.000000e+000  8.000000e+000 -1.100000e+001
      vertex -2.000000e+000  8.000000e+000  0.000000e+000
      vertex  0.000000e+000  8.000000e+000 -1.100000e+001
    endloop
  endfacet
  facet normal  0.000000e+000  1.000000e+000  -0.000000e+000
    outer loop
      vertex  0.000000e+000  8.000000e+000 -1.100000e+001
      vertex -2.000000e+000  8.000000e+000  0.000000e+000
      vertex  0.000000e+000  8.000000e+000  2.000000e+000
    endloop
  endfacet
  facet normal  0.000000e+000  1.000000e+000  0.000000e+000
    outer loop
      vertex -2.000000e+000  8.000000e+000  0.000000e+000
      vertex -2.303289e+001  8.000000e+000  0.000000e+000
      vertex  0.000000e+000  8.000000e+000  2.000000e+000
    endloop
  endfacet
  facet normal  0.000000e+000  1.000000e+000  0.000000e+000
    outer loop
      vertex  0.000000e+000  8.000000e+000  2.000000e+000
      vertex -2.303289e+001  8.000000e+000  0.000000e+000
      vertex -2.303289e+001  8.000000e+000  2.000000e+000
    endloop
  endfacet
  facet normal  0.000000e+000 -1.000000e+000  0.000000e+000
    outer loop
      vertex -6.924309e+000  0.000000e+000 -1.300000e+001
      vertex  5.075691e+000  0.000000e+000 -1.300000e+001
      vertex  5.075691e+000  0.000000e+000 -1.100000e+001
    endloop
  endfacet
  facet normal  -0.000000e+000 -1.000000e+000  0.000000e+000
    outer loop
      vertex -6.924309e+000  0.000000e+000 -1.300000e+001
      vertex  5.075691e+000  0.000000e+000 -1.100000e+001
      vertex  0.000000e+000  0.000000e+000 -1.100000e+001
    endloop
  endfacet
  facet normal  -0.000000e+000 -1.000000e+000  0.000000e+000
    outer loop
      vertex -6.924309e+000  0.000000e+000 -1.300000e+001
      vertex  0.000000e+000  0.000000e+000 -1.100000e+001
      vertex -2.000000e+000  0.000000e+000 -1.100000e+001
    endloop
  endfacet
  facet normal  -0.000000e+000 -1.000000e+000  0.000000e+000
    outer loop
      vertex -6.924309e+000  0.000000e+000 -1.300000e+001
      vertex -2.000000e+000  0.000000e+000 -1.100000e+001
      vertex -6.924309e+000  0.000000e+000 -1.100000e+001
    endloop
  endfacet
  facet normal  0.000000e+000 -1.000000e+000  -0.000000e+000
    outer loop
      vertex  0.000000e+000  0.000000e+000 -1.100000e+001
      vertex  0.000000e+000  0.000000e+000  2.000000e+000
      vertex -2.000000e+000  0.000000e+000 -1.100000e+001
    endloop
  endfacet
  facet normal  0.000000e+000 -1.000000e+000  0.000000e+000
    outer loop
      vertex -2.000000e+000  0.000000e+000 -1.100000e+001
      vertex  0.000000e+000  0.000000e+000  2.000000e+000
      vertex -2.000000e+000  0.000000e+000  0.000000e+000
    endloop
  endfacet
  facet normal  1.044495e-015 -1.000000e+000 -1.044495e-015
    outer loop
      vertex  0.000000e+000  0.000000e+000  2.000000e+000
      vertex -2.040822e+001 -2.131628e-014  2.000000e+000
      vertex -2.000000e+000  0.000000e+000  0.000000e+000
    endloop
  endfacet
  facet normal  1.157977e-015 -1.000000e+000  0.000000e+000
    outer loop
      vertex -2.000000e+000  0.000000e+000  0.000000e+000
      vertex -2.040822e+001 -2.131628e-014  2.000000e+000
      vertex -2.040822e+001 -2.131628e-014  0.000000e+000
    endloop
  endfacet
  facet normal  1.000000e+000  0.000000e+000  0.000000e+000
    outer loop
      vertex  0.000000e+000  8.000000e+000 -1.100000e+001
      vertex  0.000000e+000  8.000000e+000  2.000000e+000
      vertex  0.000000e+000  0.000000e+000 -1.100000e+001
    endloop
  endfacet
  facet normal  1.000000e+000  0.000000e+000  0.000000e+000
    outer loop
      vertex  0.000000e+000  0.000000e+000 -1.100000e+001
      vertex  0.000000e+000  8.000000e+000  2.000000e+000
      vertex  0.000000e+000  0.000000e+000  2.000000e+000
    endloop
  endfacet
  facet normal  0.000000e+000  0.000000e+000 -1.000000e+000
    outer loop
      vertex -3.096068e+001 -7.759407e+000  0.000000e+000
      vertex -9.166243e+001 -7.759407e+000  0.000000e+000
      vertex -5.190482e+001 -4.596592e+000  0.000000e+000
    endloop
  endfacet
  facet normal  0.000000e+000  0.000000e+000 -1.000000e+000
    outer loop
      vertex -3.096068e+001 -7.759407e+000  0.000000e+000
      vertex -5.190482e+001 -4.596592e+000  0.000000e+000
      vertex -4.447964e+001 -4.596592e+000  0.000000e+000
    endloop
  endfacet
  facet normal  0.000000e+000  0.000000e+000 -1.000000e+000
    outer loop
      vertex -3.096068e+001 -7.759407e+000  0.000000e+000
      vertex -4.447964e+001 -4.596592e+000  0.000000e+000
      vertex -4.447964e+001 -2.475761e+000  0.000000e+000
    endloop
  endfacet
  facet normal  0.000000e+000  0.000000e+000 -1.000000e+000
    outer loop
      vertex -3.096068e+001 -7.759407e+000  0.000000e+000
      vertex -4.447964e+001 -2.475761e+000  0.000000e+000
      vertex -2.040822e+001 -2.131628e-014  0.000000e+000
    endloop
  endfacet
  facet normal  0.000000e+000  0.000000e+000 -1.000000e+000
    outer loop
      vertex -9.166243e+001 -7.759407e+000  0.000000e+000
      vertex -9.166243e+001  2.405933e-001  0.000000e+000
      vertex -8.433703e+001 -2.475761e+000  0.000000e+000
    endloop
  endfacet
  facet normal  0.000000e+000  -0.000000e+000 -9.999999e-001
    outer loop
      vertex -9.166243e+001 -7.759407e+000  0.000000e+000
      vertex -8.433703e+001 -2.475761e+000  0.000000e+000
      vertex -8.433703e+001 -4.596592e+000  0.000000e+000
    endloop
  endfacet
  facet normal  0.000000e+000  -0.000000e+000 -1.000000e+000
    outer loop
      vertex -9.166243e+001 -7.759407e+000  0.000000e+000
      vertex -8.433703e+001 -4.596592e+000  0.000000e+000
      vertex -7.688406e+001 -4.596592e+000  0.000000e+000
    endloop
  endfacet
  facet normal  0.000000e+000  -0.000000e+000 -1.000000e+000
    outer loop
      vertex -9.166243e+001 -7.759407e+000  0.000000e+000
      vertex -7.688406e+001 -4.596592e+000  0.000000e+000
      vertex -6.802811e+001 -4.596592e+000  0.000000e+000
    endloop
  endfacet
  facet normal  0.000000e+000  -0.000000e+000 -9.999999e-001
    outer loop
      vertex -9.166243e+001 -7.759407e+000  0.000000e+000
      vertex -6.802811e+001 -4.596592e+000  0.000000e+000
      vertex -6.043594e+001 -4.596592e+000  0.000000e+000
    endloop
  endfacet
  facet normal  0.000000e+000  -0.000000e+000 -1.000000e+000
    outer loop
      vertex -9.166243e+001 -7.759407e+000  0.000000e+000
      vertex -6.043594e+001 -4.596592e+000  0.000000e+000
      vertex -5.190482e+001 -4.596592e+000  0.000000e+000
    endloop
  endfacet
  facet normal  -0.000000e+000  -0.000000e+000 -1.000000e+000
    outer loop
      vertex -9.166243e+001  2.405933e-001  0.000000e+000
      vertex -3.358535e+001  2.405933e-001  0.000000e+000
      vertex -2.040822e+001 -2.131628e-014  0.000000e+000
    endloop
  endfacet
  facet normal  -0.000000e+000  0.000000e+000 -1.000000e+000
    outer loop
      vertex -9.166243e+001  2.405933e-001  0.000000e+000
      vertex -2.040822e+001 -2.131628e-014  0.000000e+000
      vertex -4.447964e+001 -2.475761e+000  0.000000e+000
    endloop
  endfacet
  facet normal  0.000000e+000  0.000000e+000 -1.000000e+000
    outer loop
      vertex -9.166243e+001  2.405933e-001  0.000000e+000
      vertex -4.447964e+001 -2.475761e+000  0.000000e+000
      vertex -5.190482e+001 -2.475761e+000  0.000000e+000
    endloop
  endfacet
  facet normal  0.000000e+000  0.000000e+000 -1.000000e+000
    outer loop
      vertex -9.166243e+001  2.405933e-001  0.000000e+000
      vertex -5.190482e+001 -2.475761e+000  0.000000e+000
      vertex -6.043594e+001 -2.475761e+000  0.000000e+000
    endloop
  endfacet
  facet normal  0.000000e+000  0.000000e+000 -1.000000e+000
    outer loop
      vertex -9.166243e+001  2.405933e-001  0.000000e+000
      vertex -6.043594e+001 -2.475761e+000  0.000000e+000
      vertex -6.802811e+001 -2.475761e+000  0.000000e+000
    endloop
  endfacet
  facet normal  0.000000e+000  0.000000e+000 -1.000000e+000
    outer loop
      vertex -9.166243e+001  2.405933e-001  0.000000e+000
      vertex -6.802811e+001 -2.475761e+000  0.000000e+000
      vertex -7.688406e+001 -2.475761e+000  0.000000e+000
    endloop
  endfacet
  facet normal  0.000000e+000  0.000000e+000 -1.000000e+000
    outer loop
      vertex -9.166243e+001  2.405933e-001  0.000000e+000
      vertex -7.688406e+001 -2.475761e+000  0.000000e+000
      vertex -8.433703e+001 -2.475761e+000  0.000000e+000
    endloop
  endfacet
  facet normal  0.000000e+000  0.000000e+000 -1.000000e+000
    outer loop
      vertex -7.688406e+001 -4.596592e+000  0.000000e+000
      vertex -7.688406e+001 -2.475761e+000  0.000000e+000
      vertex -6.802811e+001 -4.596592e+000  0.000000e+000
    endloop
  endfacet
  facet normal  0.000000e+000  0.000000e+000 -1.000000e+000
    outer loop
      vertex -6.802811e+001 -4.596592e+000  0.000000e+000
      vertex -7.688406e+001 -2.475761e+000  0.000000e+000
      vertex -6.802811e+001 -2.475761e+000  0.000000e+000
    endloop
  endfacet
  facet normal  0.000000e+000  0.000000e+000 -1.000000e+000
    outer loop
      vertex -6.043594e+001 -4.596592e+000  0.000000e+000
      vertex -6.043594e+001 -2.475761e+000  0.000000e+000
      vertex -5.190482e+001 -4.596592e+000  0.000000e+000
    endloop
  endfacet
  facet normal  0.000000e+000  0.000000e+000 -1.000000e+000
    outer loop
      vertex -5.190482e+001 -4.596592e+000  0.000000e+000
      vertex -6.043594e+001 -2.475761e+000  0.000000e+000
      vertex -5.190482e+001 -2.475761e+000  0.000000e+000
    endloop
  endfacet
  facet normal  0.000000e+000  0.000000e+000 -1.000000e+000
    outer loop
      vertex -2.040822e+001 -2.131628e-014  0.000000e+000
      vertex -3.358535e+001  2.405933e-001  0.000000e+000
      vertex -2.000000e+000  0.000000e+000  0.000000e+000
    endloop
  endfacet
  facet normal  0.000000e+000  0.000000e+000 -1.000000e+000
    outer loop
      vertex -2.000000e+000  0.000000e+000  0.000000e+000
      vertex -3.358535e+001  2.405933e-001  0.000000e+000
      vertex -2.303289e+001  8.000000e+000  0.000000e+000
    endloop
  endfacet
  facet normal  0.000000e+000  0.000000e+000 -1.000000e+000
    outer loop
      vertex -2.000000e+000  0.000000e+000  0.000000e+000
      vertex -2.303289e+001  8.000000e+000  0.000000e+000
      vertex -2.000000e+000  8.000000e+000  0.000000e+000
    endloop
  endfacet
  facet normal -1.000000e+000  0.000000e+000  0.000000e+000
    outer loop
      vertex -2.000000e+000  0.000000e+000 -1.100000e+001
      vertex -2.000000e+000  0.000000e+000  0.000000e+000
      vertex -2.000000e+000  8.000000e+000 -1.100000e+001
    endloop
  endfacet
  facet normal -1.000000e+000  0.000000e+000  0.000000e+000
    outer loop
      vertex -2.000000e+000  8.000000e+000 -1.100000e+001
      vertex -2.000000e+000  0.000000e+000  0.000000e+000
      vertex -2.000000e+000  8.000000e+000  0.000000e+000
    endloop
  endfacet
  facet normal  1.000000e+000  -0.000000e+000  0.000000e+000
    outer loop
      vertex  5.075691e+000  8.000000e+000 -1.100000e+001
      vertex  5.075691e+000  0.000000e+000 -1.100000e+001
      vertex  5.075691e+000  8.000000e+000 -1.300000e+001
    endloop
  endfacet
  facet normal  1.000000e+000  0.000000e+000  0.000000e+000
    outer loop
      vertex  5.075691e+000  8.000000e+000 -1.300000e+001
      vertex  5.075691e+000  0.000000e+000 -1.100000e+001
      vertex  5.075691e+000  0.000000e+000 -1.300000e+001
    endloop
  endfacet
  facet normal  0.000000e+000  0.000000e+000 -1.000000e+000
    outer loop
      vertex  5.075691e+000  0.000000e+000 -1.300000e+001
      vertex -6.924309e+000  0.000000e+000 -1.300000e+001
      vertex  5.075691e+000  8.000000e+000 -1.300000e+001
    endloop
  endfacet
  facet normal  -0.000000e+000  0.000000e+000 -1.000000e+000
    outer loop
      vertex  5.075691e+000  8.000000e+000 -1.300000e+001
      vertex -6.924309e+000  0.000000e+000 -1.300000e+001
      vertex -6.924309e+000  8.000000e+000 -1.300000e+001
    endloop
  endfacet
  facet normal -1.000000e+000  0.000000e+000  0.000000e+000
    outer loop
      vertex -6.924309e+000  8.000000e+000 -1.300000e+001
      vertex -6.924309e+000  0.000000e+000 -1.300000e+001
      vertex -6.924309e+000  8.000000e+000 -1.100000e+001
    endloop
  endfacet
  facet normal -1.000000e+000  -0.000000e+000  0.000000e+000
    outer loop
      vertex -6.924309e+000  8.000000e+000 -1.100000e+001
      vertex -6.924309e+000  0.000000e+000 -1.300000e+001
      vertex -6.924309e+000  0.000000e+000 -1.100000e+001
    endloop
  endfacet
  facet normal  0.000000e+000  0.000000e+000  1.000000e+000
    outer loop
      vertex -6.924309e+000  0.000000e+000 -1.100000e+001
      vertex -2.000000e+000  0.000000e+000 -1.100000e+001
      vertex -6.924309e+000  8.000000e+000 -1.100000e+001
    endloop
  endfacet
  facet normal  -0.000000e+000  0.000000e+000  1.000000e+000
    outer loop
      vertex -6.924309e+000  8.000000e+000 -1.100000e+001
      vertex -2.000000e+000  0.000000e+000 -1.100000e+001
      vertex -2.000000e+000  8.000000e+000 -1.100000e+001
    endloop
  endfacet
  facet normal -9.999999e-001  0.000000e+000  0.000000e+000
    outer loop
      vertex -5.190482e+001 -4.596592e+000 -2.000000e+000
      vertex -5.190482e+001 -4.596592e+000  0.000000e+000
      vertex -5.190482e+001 -2.475761e+000 -2.000000e+000
    endloop
  endfacet
  facet normal -9.999999e-001  0.000000e+000  0.000000e+000
    outer loop
      vertex -5.190482e+001 -2.475761e+000 -2.000000e+000
      vertex -5.190482e+001 -4.596592e+000  0.000000e+000
      vertex -5.190482e+001 -2.475761e+000  0.000000e+000
    endloop
  endfacet
  facet normal  0.000000e+000 -1.000000e+000  -0.000000e+000
    outer loop
      vertex -4.447964e+001 -4.596592e+000 -2.000000e+000
      vertex -4.447964e+001 -4.596592e+000  0.000000e+000
      vertex -5.190482e+001 -4.596592e+000 -2.000000e+000
    endloop
  endfacet
  facet normal  0.000000e+000 -1.000000e+000  0.000000e+000
    outer loop
      vertex -5.190482e+001 -4.596592e+000 -2.000000e+000
      vertex -4.447964e+001 -4.596592e+000  0.000000e+000
      vertex -5.190482e+001 -4.596592e+000  0.000000e+000
    endloop
  endfacet
  facet normal  9.999999e-001  0.000000e+000  0.000000e+000
    outer loop
      vertex -4.447964e+001 -2.475761e+000 -2.000000e+000
      vertex -4.447964e+001 -2.475761e+000  0.000000e+000
      vertex -4.447964e+001 -4.596592e+000 -2.000000e+000
    endloop
  endfacet
  facet normal  9.999999e-001  0.000000e+000  0.000000e+000
    outer loop
      vertex -4.447964e+001 -4.596592e+000 -2.000000e+000
      vertex -4.447964e+001 -2.475761e+000  0.000000e+000
      vertex -4.447964e+001 -4.596592e+000  0.000000e+000
    endloop
  endfacet
  facet normal  0.000000e+000  1.000000e+000  0.000000e+000
    outer loop
      vertex -5.190482e+001 -2.475761e+000 -2.000000e+000
      vertex -5.190482e+001 -2.475761e+000  0.000000e+000
      vertex -4.447964e+001 -2.475761e+000 -2.000000e+000
    endloop
  endfacet
  facet normal  0.000000e+000  1.000000e+000  -0.000000e+000
    outer loop
      vertex -4.447964e+001 -2.475761e+000 -2.000000e+000
      vertex -5.190482e+001 -2.475761e+000  0.000000e+000
      vertex -4.447964e+001 -2.475761e+000  0.000000e+000
    endloop
  endfacet
  facet normal -9.999999e-001  0.000000e+000  0.000000e+000
    outer loop
      vertex -6.802811e+001 -4.596592e+000 -2.000000e+000
      vertex -6.802811e+001 -4.596592e+000  0.000000e+000
      vertex -6.802811e+001 -2.475761e+000 -2.000000e+000
    endloop
  endfacet
  facet normal -9.999999e-001  0.000000e+000  0.000000e+000
    outer loop
      vertex -6.802811e+001 -2.475761e+000 -2.000000e+000
      vertex -6.802811e+001 -4.596592e+000  0.000000e+000
      vertex -6.802811e+001 -2.475761e+000  0.000000e+000
    endloop
  endfacet
  facet normal  0.000000e+000 -1.000000e+000  -0.000000e+000
    outer loop
      vertex -6.043594e+001 -4.596592e+000 -2.000000e+000
      vertex -6.043594e+001 -4.596592e+000  0.000000e+000
      vertex -6.802811e+001 -4.596592e+000 -2.000000e+000
    endloop
  endfacet
  facet normal  0.000000e+000 -1.000000e+000  0.000000e+000
    outer loop
      vertex -6.802811e+001 -4.596592e+000 -2.000000e+000
      vertex -6.043594e+001 -4.596592e+000  0.000000e+000
      vertex -6.802811e+001 -4.596592e+000  0.000000e+000
    endloop
  endfacet
  facet normal  9.999999e-001  0.000000e+000  0.000000e+000
    outer loop
      vertex -6.043594e+001 -2.475761e+000 -2.000000e+000
      vertex -6.043594e+001 -2.475761e+000  0.000000e+000
      vertex -6.043594e+001 -4.596592e+000 -2.000000e+000
    endloop
  endfacet
  facet normal  9.999999e-001  0.000000e+000  0.000000e+000
    outer loop
      vertex -6.043594e+001 -4.596592e+000 -2.000000e+000
      vertex -6.043594e+001 -2.475761e+000  0.000000e+000
      vertex -6.043594e+001 -4.596592e+000  0.000000e+000
    endloop
  endfacet
  facet normal  0.000000e+000  1.000000e+000  0.000000e+000
    outer loop
      vertex -6.802811e+001 -2.475761e+000 -2.000000e+000
      vertex -6.802811e+001 -2.475761e+000  0.000000e+000
      vertex -6.043594e+001 -2.475761e+000 -2.000000e+000
    endloop
  endfacet
  facet normal  0.000000e+000  1.000000e+000  -0.000000e+000
    outer loop
      vertex -6.043594e+001 -2.475761e+000 -2.000000e+000
      vertex -6.802811e+001 -2.475761e+000  0.000000e+000
      vertex -6.043594e+001 -2.475761e+000  0.000000e+000
    endloop
  endfacet
  facet normal -9.999999e-001  0.000000e+000  0.000000e+000
    outer loop
      vertex -8.433703e+001 -4.596592e+000 -2.000000e+000
      vertex -8.433703e+001 -4.596592e+000  0.000000e+000
      vertex -8.433703e+001 -2.475761e+000 -2.000000e+000
    endloop
  endfacet
  facet normal -9.999999e-001  0.000000e+000  0.000000e+000
    outer loop
      vertex -8.433703e+001 -2.475761e+000 -2.000000e+000
      vertex -8.433703e+001 -4.596592e+000  0.000000e+000
      vertex -8.433703e+001 -2.475761e+000  0.000000e+000
    endloop
  endfacet
  facet normal  0.000000e+000 -1.000000e+000  -0.000000e+000
    outer loop
      vertex -7.688406e+001 -4.596592e+000 -2.000000e+000
      vertex -7.688406e+001 -4.596592e+000  0.000000e+000
      vertex -8.433703e+001 -4.596592e+000 -2.000000e+000
    endloop
  endfacet
  facet normal  0.000000e+000 -1.000000e+000  0.000000e+000
    outer loop
      vertex -8.433703e+001 -4.596592e+000 -2.000000e+000
      vertex -7.688406e+001 -4.596592e+000  0.000000e+000
      vertex -8.433703e+001 -4.596592e+000  0.000000e+000
    endloop
  endfacet
  facet normal  9.999999e-001  0.000000e+000  0.000000e+000
    outer loop
      vertex -7.688406e+001 -2.475761e+000 -2.000000e+000
      vertex -7.688406e+001 -2.475761e+000  0.000000e+000
      vertex -7.688406e+001 -4.596592e+000 -2.000000e+000
    endloop
  endfacet
  facet normal  9.999999e-001  0.000000e+000  0.000000e+000
    outer loop
      vertex -7.688406e+001 -4.596592e+000 -2.000000e+000
      vertex -7.688406e+001 -2.475761e+000  0.000000e+000
      vertex -7.688406e+001 -4.596592e+000  0.000000e+000
    endloop
  endfacet
  facet normal  0.000000e+000  1.000000e+000  0.000000e+000
    outer loop
      vertex -8.433703e+001 -2.475761e+000 -2.000000e+000
      vertex -8.433703e+001 -2.475761e+000  0.000000e+000
      vertex -7.688406e+001 -2.475761e+000 -2.000000e+000
    endloop
  endfacet
  facet normal  0.000000e+000  1.000000e+000  -0.000000e+000
    outer loop
      vertex -7.688406e+001 -2.475761e+000 -2.000000e+000
      vertex -8.433703e+001 -2.475761e+000  0.000000e+000
      vertex -7.688406e+001 -2.475761e+000  0.000000e+000
    endloop
  endfacet
  facet normal  -0.000000e+000  0.000000e+000 -1.000000e+000
    outer loop
      vertex -5.190482e+001 -2.475761e+000 -2.000000e+000
      vertex -4.447964e+001 -2.475761e+000 -2.000000e+000
      vertex -5.190482e+001 -4.596592e+000 -2.000000e+000
    endloop
  endfacet
  facet normal  0.000000e+000  0.000000e+000 -1.000000e+000
    outer loop
      vertex -5.190482e+001 -4.596592e+000 -2.000000e+000
      vertex -4.447964e+001 -2.475761e+000 -2.000000e+000
      vertex -4.447964e+001 -4.596592e+000 -2.000000e+000
    endloop
  endfacet
  facet normal  -0.000000e+000  0.000000e+000 -1.000000e+000
    outer loop
      vertex -6.802811e+001 -2.475761e+000 -2.000000e+000
      vertex -6.043594e+001 -2.475761e+000 -2.000000e+000
      vertex -6.802811e+001 -4.596592e+000 -2.000000e+000
    endloop
  endfacet
  facet normal  0.000000e+000  0.000000e+000 -1.000000e+000
    outer loop
      vertex -6.802811e+001 -4.596592e+000 -2.000000e+000
      vertex -6.043594e+001 -2.475761e+000 -2.000000e+000
      vertex -6.043594e+001 -4.596592e+000 -2.000000e+000
    endloop
  endfacet
  facet normal  -0.000000e+000  0.000000e+000 -1.000000e+000
    outer loop
      vertex -8.433703e+001 -2.475761e+000 -2.000000e+000
      vertex -7.688406e+001 -2.475761e+000 -2.000000e+000
      vertex -8.433703e+001 -4.596592e+000 -2.000000e+000
    endloop
  endfacet
  facet normal  0.000000e+000  0.000000e+000 -1.000000e+000
    outer loop
      vertex -8.433703e+001 -4.596592e+000 -2.000000e+000
      vertex -7.688406e+001 -2.475761e+000 -2.000000e+000
      vertex -7.688406e+001 -4.596592e+000 -2.000000e+000
    endloop
  endfacet
  facet normal  5.924025e-001 -8.056422e-001  0.000000e+000
    outer loop
      vertex -2.040822e+001 -2.131628e-014  2.000000e+000
      vertex -3.096068e+001 -7.759407e+000  2.000000e+000
      vertex -2.040822e+001 -2.131628e-014  0.000000e+000
    endloop
  endfacet
  facet normal  5.924025e-001 -8.056422e-001  0.000000e+000
    outer loop
      vertex -2.040822e+001 -2.131628e-014  0.000000e+000
      vertex -3.096068e+001 -7.759407e+000  2.000000e+000
      vertex -3.096068e+001 -7.759407e+000  0.000000e+000
    endloop
  endfacet
  facet normal  0.000000e+000 -1.000000e+000  0.000000e+000
    outer loop
      vertex -3.096068e+001 -7.759407e+000  2.000000e+000
      vertex -9.166243e+001 -7.759407e+000  2.000000e+000
      vertex -3.096068e+001 -7.759407e+000  0.000000e+000
    endloop
  endfacet
  facet normal  0.000000e+000 -1.000000e+000  0.000000e+000
    outer loop
      vertex -3.096068e+001 -7.759407e+000  0.000000e+000
      vertex -9.166243e+001 -7.759407e+000  2.000000e+000
      vertex -9.166243e+001 -7.759407e+000  0.000000e+000
    endloop
  endfacet
  facet normal -1.000000e+000  -0.000000e+000  0.000000e+000
    outer loop
      vertex -9.166243e+001 -7.759407e+000  2.000000e+000
      vertex -9.166243e+001  2.405933e-001  2.000000e+000
      vertex -9.166243e+001 -7.759407e+000  0.000000e+000
    endloop
  endfacet
  facet normal -1.000000e+000  0.000000e+000  0.000000e+000
    outer loop
      vertex -9.166243e+001 -7.759407e+000  0.000000e+000
      vertex -9.166243e+001  2.405933e-001  2.000000e+000
      vertex -9.166243e+001  2.405933e-001  0.000000e+000
    endloop
  endfacet
  facet normal  0.000000e+000  1.000000e+000  0.000000e+000
    outer loop
      vertex -9.166243e+001  2.405933e-001  2.000000e+000
      vertex -3.358535e+001  2.405933e-001  2.000000e+000
      vertex -9.166243e+001  2.405933e-001  0.000000e+000
    endloop
  endfacet
  facet normal  0.000000e+000  1.000000e+000  0.000000e+000
    outer loop
      vertex -9.166243e+001  2.405933e-001  0.000000e+000
      vertex -3.358535e+001  2.405933e-001  2.000000e+000
      vertex -3.358535e+001  2.405933e-001  0.000000e+000
    endloop
  endfacet
  facet normal -5.924024e-001  8.056422e-001  0.000000e+000
    outer loop
      vertex -3.358535e+001  2.405933e-001  2.000000e+000
      vertex -2.303289e+001  8.000000e+000  2.000000e+000
      vertex -3.358535e+001  2.405933e-001  0.000000e+000
    endloop
  endfacet
  facet normal -5.924024e-001  8.056422e-001  0.000000e+000
    outer loop
      vertex -3.358535e+001  2.405933e-001  0.000000e+000
      vertex -2.303289e+001  8.000000e+000  2.000000e+000
      vertex -2.303289e+001  8.000000e+000  0.000000e+000
    endloop
  endfacet
endsolid CATIA STL
