solid CATIA STL
  facet normal  0.000000e+000  0.000000e+000  1.000000e+000
    outer loop
      vertex  1.650000e+001  0.000000e+000  3.800000e+001
      vertex  3.750000e+000  7.500000e-001  3.800000e+001
      vertex  4.500000e+000  0.000000e+000  3.800000e+001
    endloop
  endfacet
  facet normal  0.000000e+000  0.000000e+000  1.000000e+000
    outer loop
      vertex  1.725000e+001  7.500000e-001  3.800000e+001
      vertex  1.800000e+001  0.000000e+000  3.800000e+001
      vertex  1.775486e+001  1.000000e+000  3.800000e+001
    endloop
  endfacet
  facet normal  0.000000e+000  0.000000e+000  1.000000e+000
    outer loop
      vertex  1.725000e+001  7.500000e-001  3.800000e+001
      vertex  1.775486e+001  1.000000e+000  3.800000e+001
      vertex  1.675486e+001  1.000000e+000  3.800000e+001
    endloop
  endfacet
  facet normal  0.000000e+000  0.000000e+000  1.000000e+000
    outer loop
      vertex  1.725000e+001  7.500000e-001  3.800000e+001
      vertex  1.675486e+001  1.000000e+000  3.800000e+001
      vertex  3.750000e+000  7.500000e-001  3.800000e+001
    endloop
  endfacet
  facet normal  -0.000000e+000  0.000000e+000  1.000000e+000
    outer loop
      vertex  1.725000e+001  7.500000e-001  3.800000e+001
      vertex  3.750000e+000  7.500000e-001  3.800000e+001
      vertex  1.650000e+001  0.000000e+000  3.800000e+001
    endloop
  endfacet
  facet normal  0.000000e+000  0.000000e+000  1.000000e+000
    outer loop
      vertex  0.000000e+000  1.600000e+001  3.800000e+001
      vertex  0.000000e+000  0.000000e+000  3.800000e+001
      vertex  1.000000e+000  1.000000e+000  3.800000e+001
    endloop
  endfacet
  facet normal  0.000000e+000  -0.000000e+000  1.000000e+000
    outer loop
      vertex  0.000000e+000  1.600000e+001  3.800000e+001
      vertex  1.000000e+000  1.000000e+000  3.800000e+001
      vertex  1.000000e+000  1.500000e+001  3.800000e+001
    endloop
  endfacet
  facet normal  0.000000e+000  -0.000000e+000  1.000000e+000
    outer loop
      vertex  0.000000e+000  1.600000e+001  3.800000e+001
      vertex  1.000000e+000  1.500000e+001  3.800000e+001
      vertex  1.675486e+001  1.500000e+001  3.800000e+001
    endloop
  endfacet
  facet normal  0.000000e+000  -0.000000e+000  1.000000e+000
    outer loop
      vertex  0.000000e+000  1.600000e+001  3.800000e+001
      vertex  1.675486e+001  1.500000e+001  3.800000e+001
      vertex  1.775486e+001  1.500000e+001  3.800000e+001
    endloop
  endfacet
  facet normal  0.000000e+000  -0.000000e+000  1.000000e+000
    outer loop
      vertex  0.000000e+000  1.600000e+001  3.800000e+001
      vertex  1.775486e+001  1.500000e+001  3.800000e+001
      vertex  5.160000e+001  1.500000e+001  3.800000e+001
    endloop
  endfacet
  facet normal  0.000000e+000  -0.000000e+000  1.000000e+000
    outer loop
      vertex  0.000000e+000  1.600000e+001  3.800000e+001
      vertex  5.160000e+001  1.500000e+001  3.800000e+001
      vertex  5.260000e+001  1.600000e+001  3.800000e+001
    endloop
  endfacet
  facet normal  -0.000000e+000  0.000000e+000  1.000000e+000
    outer loop
      vertex  5.260000e+001  1.600000e+001  3.800000e+001
      vertex  5.160000e+001  1.500000e+001  3.800000e+001
      vertex  5.260000e+001  0.000000e+000  3.800000e+001
    endloop
  endfacet
  facet normal  0.000000e+000  0.000000e+000  1.000000e+000
    outer loop
      vertex  5.260000e+001  0.000000e+000  3.800000e+001
      vertex  5.160000e+001  1.500000e+001  3.800000e+001
      vertex  5.160000e+001  1.000000e+000  3.800000e+001
    endloop
  endfacet
  facet normal  0.000000e+000  0.000000e+000  1.000000e+000
    outer loop
      vertex  5.260000e+001  0.000000e+000  3.800000e+001
      vertex  5.160000e+001  1.000000e+000  3.800000e+001
      vertex  1.800000e+001  0.000000e+000  3.800000e+001
    endloop
  endfacet
  facet normal  0.000000e+000  -0.000000e+000  1.000000e+000
    outer loop
      vertex  1.800000e+001  0.000000e+000  3.800000e+001
      vertex  5.160000e+001  1.000000e+000  3.800000e+001
      vertex  1.775486e+001  1.000000e+000  3.800000e+001
    endloop
  endfacet
  facet normal  0.000000e+000  0.000000e+000  1.000000e+000
    outer loop
      vertex  0.000000e+000  0.000000e+000  3.800000e+001
      vertex  3.000000e+000  0.000000e+000  3.800000e+001
      vertex  1.000000e+000  1.000000e+000  3.800000e+001
    endloop
  endfacet
  facet normal  0.000000e+000  0.000000e+000  1.000000e+000
    outer loop
      vertex  1.000000e+000  1.000000e+000  3.800000e+001
      vertex  3.000000e+000  0.000000e+000  3.800000e+001
      vertex  3.750000e+000  7.500000e-001  3.800000e+001
    endloop
  endfacet
  facet normal  0.000000e+000  -0.000000e+000  1.000000e+000
    outer loop
      vertex  1.000000e+000  1.000000e+000  3.800000e+001
      vertex  3.750000e+000  7.500000e-001  3.800000e+001
      vertex  1.675486e+001  1.000000e+000  3.800000e+001
    endloop
  endfacet
  facet normal  0.000000e+000  0.000000e+000  1.000000e+000
    outer loop
      vertex  1.675486e+001  1.000000e+000  3.800000e+001
      vertex  1.775486e+001  1.000000e+000  3.800000e+001
      vertex  1.675486e+001  1.500000e+001  3.800000e+001
    endloop
  endfacet
  facet normal  -0.000000e+000  0.000000e+000  1.000000e+000
    outer loop
      vertex  1.675486e+001  1.500000e+001  3.800000e+001
      vertex  1.775486e+001  1.000000e+000  3.800000e+001
      vertex  1.775486e+001  1.500000e+001  3.800000e+001
    endloop
  endfacet
  facet normal  0.000000e+000 -1.000000e+000  0.000000e+000
    outer loop
      vertex  1.775486e+001  1.500000e+001  3.700000e+001
      vertex  5.160000e+001  1.500000e+001  3.700000e+001
      vertex  1.775486e+001  1.500000e+001  3.800000e+001
    endloop
  endfacet
  facet normal  0.000000e+000 -1.000000e+000  0.000000e+000
    outer loop
      vertex  1.775486e+001  1.500000e+001  3.800000e+001
      vertex  5.160000e+001  1.500000e+001  3.700000e+001
      vertex  5.160000e+001  1.500000e+001  3.800000e+001
    endloop
  endfacet
  facet normal -1.000000e+000  0.000000e+000  0.000000e+000
    outer loop
      vertex  5.160000e+001  1.000000e+000  3.700000e+001
      vertex  5.160000e+001  1.000000e+000  3.800000e+001
      vertex  5.160000e+001  1.500000e+001  3.700000e+001
    endloop
  endfacet
  facet normal -1.000000e+000  0.000000e+000  0.000000e+000
    outer loop
      vertex  5.160000e+001  1.500000e+001  3.700000e+001
      vertex  5.160000e+001  1.000000e+000  3.800000e+001
      vertex  5.160000e+001  1.500000e+001  3.800000e+001
    endloop
  endfacet
  facet normal  0.000000e+000  1.000000e+000  0.000000e+000
    outer loop
      vertex  1.775486e+001  1.000000e+000  3.700000e+001
      vertex  1.775486e+001  1.000000e+000  3.800000e+001
      vertex  5.160000e+001  1.000000e+000  3.700000e+001
    endloop
  endfacet
  facet normal  0.000000e+000  1.000000e+000  -0.000000e+000
    outer loop
      vertex  5.160000e+001  1.000000e+000  3.700000e+001
      vertex  1.775486e+001  1.000000e+000  3.800000e+001
      vertex  5.160000e+001  1.000000e+000  3.800000e+001
    endloop
  endfacet
  facet normal  1.000000e+000  0.000000e+000  0.000000e+000
    outer loop
      vertex  1.775486e+001  1.500000e+001  3.700000e+001
      vertex  1.775486e+001  1.500000e+001  3.800000e+001
      vertex  1.775486e+001  1.000000e+000  3.700000e+001
    endloop
  endfacet
  facet normal  1.000000e+000  0.000000e+000  0.000000e+000
    outer loop
      vertex  1.775486e+001  1.000000e+000  3.700000e+001
      vertex  1.775486e+001  1.500000e+001  3.800000e+001
      vertex  1.775486e+001  1.000000e+000  3.800000e+001
    endloop
  endfacet
  facet normal  0.000000e+000 -1.000000e+000  0.000000e+000
    outer loop
      vertex  1.000000e+000  1.500000e+001  3.700000e+001
      vertex  1.675486e+001  1.500000e+001  3.700000e+001
      vertex  1.000000e+000  1.500000e+001  3.800000e+001
    endloop
  endfacet
  facet normal  0.000000e+000 -1.000000e+000  0.000000e+000
    outer loop
      vertex  1.000000e+000  1.500000e+001  3.800000e+001
      vertex  1.675486e+001  1.500000e+001  3.700000e+001
      vertex  1.675486e+001  1.500000e+001  3.800000e+001
    endloop
  endfacet
  facet normal -1.000000e+000  0.000000e+000  0.000000e+000
    outer loop
      vertex  1.675486e+001  1.000000e+000  3.700000e+001
      vertex  1.675486e+001  1.000000e+000  3.800000e+001
      vertex  1.675486e+001  1.500000e+001  3.700000e+001
    endloop
  endfacet
  facet normal -1.000000e+000  0.000000e+000  0.000000e+000
    outer loop
      vertex  1.675486e+001  1.500000e+001  3.700000e+001
      vertex  1.675486e+001  1.000000e+000  3.800000e+001
      vertex  1.675486e+001  1.500000e+001  3.800000e+001
    endloop
  endfacet
  facet normal  0.000000e+000  1.000000e+000  0.000000e+000
    outer loop
      vertex  1.000000e+000  1.000000e+000  3.700000e+001
      vertex  1.000000e+000  1.000000e+000  3.800000e+001
      vertex  1.675486e+001  1.000000e+000  3.700000e+001
    endloop
  endfacet
  facet normal  0.000000e+000  1.000000e+000  -0.000000e+000
    outer loop
      vertex  1.675486e+001  1.000000e+000  3.700000e+001
      vertex  1.000000e+000  1.000000e+000  3.800000e+001
      vertex  1.675486e+001  1.000000e+000  3.800000e+001
    endloop
  endfacet
  facet normal  1.000000e+000  0.000000e+000  0.000000e+000
    outer loop
      vertex  1.000000e+000  1.500000e+001  3.700000e+001
      vertex  1.000000e+000  1.500000e+001  3.800000e+001
      vertex  1.000000e+000  1.000000e+000  3.700000e+001
    endloop
  endfacet
  facet normal  1.000000e+000  0.000000e+000  0.000000e+000
    outer loop
      vertex  1.000000e+000  1.000000e+000  3.700000e+001
      vertex  1.000000e+000  1.500000e+001  3.800000e+001
      vertex  1.000000e+000  1.000000e+000  3.800000e+001
    endloop
  endfacet
  facet normal  0.000000e+000  0.000000e+000  1.000000e+000
    outer loop
      vertex  1.775486e+001  1.000000e+000  3.700000e+001
      vertex  5.160000e+001  1.000000e+000  3.700000e+001
      vertex  1.775486e+001  1.500000e+001  3.700000e+001
    endloop
  endfacet
  facet normal  -0.000000e+000  0.000000e+000  1.000000e+000
    outer loop
      vertex  1.775486e+001  1.500000e+001  3.700000e+001
      vertex  5.160000e+001  1.000000e+000  3.700000e+001
      vertex  5.160000e+001  1.500000e+001  3.700000e+001
    endloop
  endfacet
  facet normal  0.000000e+000  0.000000e+000  1.000000e+000
    outer loop
      vertex  1.000000e+000  1.000000e+000  3.700000e+001
      vertex  1.675486e+001  1.000000e+000  3.700000e+001
      vertex  1.000000e+000  1.500000e+001  3.700000e+001
    endloop
  endfacet
  facet normal  -0.000000e+000  0.000000e+000  1.000000e+000
    outer loop
      vertex  1.000000e+000  1.500000e+001  3.700000e+001
      vertex  1.675486e+001  1.000000e+000  3.700000e+001
      vertex  1.675486e+001  1.500000e+001  3.700000e+001
    endloop
  endfacet
  facet normal  0.000000e+000 -1.000000e+000  -0.000000e+000
    outer loop
      vertex  1.650000e+001  0.000000e+000  0.000000e+000
      vertex  1.650000e+001  0.000000e+000  3.800000e+001
      vertex  7.278903e+000  0.000000e+000  2.784634e+001
    endloop
  endfacet
  facet normal  0.000000e+000 -1.000000e+000  -0.000000e+000
    outer loop
      vertex  1.650000e+001  0.000000e+000  0.000000e+000
      vertex  7.278903e+000  0.000000e+000  2.784634e+001
      vertex  7.269722e+000  0.000000e+000  2.775313e+001
    endloop
  endfacet
  facet normal  0.000000e+000 -1.000000e+000  -0.000000e+000
    outer loop
      vertex  1.650000e+001  0.000000e+000  0.000000e+000
      vertex  7.269722e+000  0.000000e+000  2.775313e+001
      vertex  4.500000e+000  0.000000e+000  0.000000e+000
    endloop
  endfacet
  facet normal  0.000000e+000 -1.000000e+000  0.000000e+000
    outer loop
      vertex  4.500000e+000  0.000000e+000  0.000000e+000
      vertex  7.269722e+000  0.000000e+000  2.775313e+001
      vertex  7.242534e+000  0.000000e+000  2.766350e+001
    endloop
  endfacet
  facet normal  0.000000e+000 -1.000000e+000  0.000000e+000
    outer loop
      vertex  4.500000e+000  0.000000e+000  0.000000e+000
      vertex  7.242534e+000  0.000000e+000  2.766350e+001
      vertex  7.198382e+000  0.000000e+000  2.758090e+001
    endloop
  endfacet
  facet normal  0.000000e+000 -1.000000e+000  0.000000e+000
    outer loop
      vertex  4.500000e+000  0.000000e+000  0.000000e+000
      vertex  7.198382e+000  0.000000e+000  2.758090e+001
      vertex  7.138964e+000  0.000000e+000  2.750850e+001
    endloop
  endfacet
  facet normal  0.000000e+000 -9.999999e-001  0.000000e+000
    outer loop
      vertex  4.500000e+000  0.000000e+000  0.000000e+000
      vertex  7.138964e+000  0.000000e+000  2.750850e+001
      vertex  7.066562e+000  0.000000e+000  2.744908e+001
    endloop
  endfacet
  facet normal  0.000000e+000 -1.000000e+000  0.000000e+000
    outer loop
      vertex  4.500000e+000  0.000000e+000  0.000000e+000
      vertex  7.066562e+000  0.000000e+000  2.744908e+001
      vertex  6.983960e+000  0.000000e+000  2.740493e+001
    endloop
  endfacet
  facet normal  0.000000e+000 -1.000000e+000  0.000000e+000
    outer loop
      vertex  4.500000e+000  0.000000e+000  0.000000e+000
      vertex  6.983960e+000  0.000000e+000  2.740493e+001
      vertex  6.894331e+000  0.000000e+000  2.737774e+001
    endloop
  endfacet
  facet normal  0.000000e+000 -1.000000e+000  0.000000e+000
    outer loop
      vertex  4.500000e+000  0.000000e+000  0.000000e+000
      vertex  6.894331e+000  0.000000e+000  2.737774e+001
      vertex  6.801121e+000  0.000000e+000  2.736856e+001
    endloop
  endfacet
  facet normal  -0.000000e+000 -1.000000e+000  0.000000e+000
    outer loop
      vertex  4.500000e+000  0.000000e+000  0.000000e+000
      vertex  6.801121e+000  0.000000e+000  2.736856e+001
      vertex  6.707910e+000  0.000000e+000  2.737774e+001
    endloop
  endfacet
  facet normal  -0.000000e+000 -9.999999e-001  0.000000e+000
    outer loop
      vertex  4.500000e+000  0.000000e+000  0.000000e+000
      vertex  6.707910e+000  0.000000e+000  2.737774e+001
      vertex  6.618281e+000  0.000000e+000  2.740493e+001
    endloop
  endfacet
  facet normal  -0.000000e+000 -1.000000e+000  0.000000e+000
    outer loop
      vertex  4.500000e+000  0.000000e+000  0.000000e+000
      vertex  6.618281e+000  0.000000e+000  2.740493e+001
      vertex  6.535679e+000  0.000000e+000  2.744908e+001
    endloop
  endfacet
  facet normal  -0.000000e+000 -1.000000e+000  0.000000e+000
    outer loop
      vertex  4.500000e+000  0.000000e+000  0.000000e+000
      vertex  6.535679e+000  0.000000e+000  2.744908e+001
      vertex  6.463278e+000  0.000000e+000  2.750850e+001
    endloop
  endfacet
  facet normal  -0.000000e+000 -1.000000e+000  0.000000e+000
    outer loop
      vertex  4.500000e+000  0.000000e+000  0.000000e+000
      vertex  6.463278e+000  0.000000e+000  2.750850e+001
      vertex  6.403859e+000  0.000000e+000  2.758090e+001
    endloop
  endfacet
  facet normal  -0.000000e+000 -1.000000e+000  0.000000e+000
    outer loop
      vertex  4.500000e+000  0.000000e+000  0.000000e+000
      vertex  6.403859e+000  0.000000e+000  2.758090e+001
      vertex  6.359707e+000  0.000000e+000  2.766350e+001
    endloop
  endfacet
  facet normal  -0.000000e+000 -1.000000e+000  0.000000e+000
    outer loop
      vertex  4.500000e+000  0.000000e+000  0.000000e+000
      vertex  6.359707e+000  0.000000e+000  2.766350e+001
      vertex  6.332519e+000  0.000000e+000  2.775313e+001
    endloop
  endfacet
  facet normal  -0.000000e+000 -9.999999e-001  0.000000e+000
    outer loop
      vertex  4.500000e+000  0.000000e+000  0.000000e+000
      vertex  6.332519e+000  0.000000e+000  2.775313e+001
      vertex  6.323339e+000  0.000000e+000  2.784634e+001
    endloop
  endfacet
  facet normal  -0.000000e+000 -1.000000e+000  0.000000e+000
    outer loop
      vertex  4.500000e+000  0.000000e+000  0.000000e+000
      vertex  6.323339e+000  0.000000e+000  2.784634e+001
      vertex  4.500000e+000  0.000000e+000  3.800000e+001
    endloop
  endfacet
  facet normal  0.000000e+000 -1.000000e+000  0.000000e+000
    outer loop
      vertex  4.500000e+000  0.000000e+000  3.800000e+001
      vertex  6.323339e+000  0.000000e+000  2.784634e+001
      vertex  6.332519e+000  0.000000e+000  2.793955e+001
    endloop
  endfacet
  facet normal  0.000000e+000 -9.999999e-001  0.000000e+000
    outer loop
      vertex  4.500000e+000  0.000000e+000  3.800000e+001
      vertex  6.332519e+000  0.000000e+000  2.793955e+001
      vertex  6.359707e+000  0.000000e+000  2.802918e+001
    endloop
  endfacet
  facet normal  0.000000e+000 -1.000000e+000  0.000000e+000
    outer loop
      vertex  4.500000e+000  0.000000e+000  3.800000e+001
      vertex  6.359707e+000  0.000000e+000  2.802918e+001
      vertex  6.403859e+000  0.000000e+000  2.811178e+001
    endloop
  endfacet
  facet normal  0.000000e+000 -1.000000e+000  0.000000e+000
    outer loop
      vertex  4.500000e+000  0.000000e+000  3.800000e+001
      vertex  6.403859e+000  0.000000e+000  2.811178e+001
      vertex  6.463278e+000  0.000000e+000  2.818419e+001
    endloop
  endfacet
  facet normal  0.000000e+000 -9.999999e-001  0.000000e+000
    outer loop
      vertex  4.500000e+000  0.000000e+000  3.800000e+001
      vertex  6.463278e+000  0.000000e+000  2.818419e+001
      vertex  6.535679e+000  0.000000e+000  2.824360e+001
    endloop
  endfacet
  facet normal  0.000000e+000 -9.999999e-001  0.000000e+000
    outer loop
      vertex  4.500000e+000  0.000000e+000  3.800000e+001
      vertex  6.535679e+000  0.000000e+000  2.824360e+001
      vertex  6.618281e+000  0.000000e+000  2.828776e+001
    endloop
  endfacet
  facet normal  0.000000e+000 -9.999999e-001  0.000000e+000
    outer loop
      vertex  4.500000e+000  0.000000e+000  3.800000e+001
      vertex  6.618281e+000  0.000000e+000  2.828776e+001
      vertex  6.707910e+000  0.000000e+000  2.831494e+001
    endloop
  endfacet
  facet normal  0.000000e+000 -1.000000e+000  0.000000e+000
    outer loop
      vertex  4.500000e+000  0.000000e+000  3.800000e+001
      vertex  6.707910e+000  0.000000e+000  2.831494e+001
      vertex  6.801121e+000  0.000000e+000  2.832413e+001
    endloop
  endfacet
  facet normal  0.000000e+000 -9.999999e-001  0.000000e+000
    outer loop
      vertex  4.500000e+000  0.000000e+000  3.800000e+001
      vertex  6.801121e+000  0.000000e+000  2.832413e+001
      vertex  6.894331e+000  0.000000e+000  2.831494e+001
    endloop
  endfacet
  facet normal  0.000000e+000 -1.000000e+000  0.000000e+000
    outer loop
      vertex  4.500000e+000  0.000000e+000  3.800000e+001
      vertex  6.894331e+000  0.000000e+000  2.831494e+001
      vertex  6.983960e+000  0.000000e+000  2.828776e+001
    endloop
  endfacet
  facet normal  0.000000e+000 -1.000000e+000  0.000000e+000
    outer loop
      vertex  4.500000e+000  0.000000e+000  3.800000e+001
      vertex  6.983960e+000  0.000000e+000  2.828776e+001
      vertex  7.066562e+000  0.000000e+000  2.824360e+001
    endloop
  endfacet
  facet normal  0.000000e+000 -1.000000e+000  0.000000e+000
    outer loop
      vertex  4.500000e+000  0.000000e+000  3.800000e+001
      vertex  7.066562e+000  0.000000e+000  2.824360e+001
      vertex  7.138964e+000  0.000000e+000  2.818419e+001
    endloop
  endfacet
  facet normal  0.000000e+000 -1.000000e+000  0.000000e+000
    outer loop
      vertex  4.500000e+000  0.000000e+000  3.800000e+001
      vertex  7.138964e+000  0.000000e+000  2.818419e+001
      vertex  7.198382e+000  0.000000e+000  2.811178e+001
    endloop
  endfacet
  facet normal  0.000000e+000 -1.000000e+000  0.000000e+000
    outer loop
      vertex  4.500000e+000  0.000000e+000  3.800000e+001
      vertex  7.198382e+000  0.000000e+000  2.811178e+001
      vertex  7.242534e+000  0.000000e+000  2.802918e+001
    endloop
  endfacet
  facet normal  0.000000e+000 -1.000000e+000  0.000000e+000
    outer loop
      vertex  1.650000e+001  0.000000e+000  3.800000e+001
      vertex  4.500000e+000  0.000000e+000  3.800000e+001
      vertex  7.242534e+000  0.000000e+000  2.802918e+001
    endloop
  endfacet
  facet normal  0.000000e+000 -1.000000e+000  0.000000e+000
    outer loop
      vertex  1.650000e+001  0.000000e+000  3.800000e+001
      vertex  7.242534e+000  0.000000e+000  2.802918e+001
      vertex  7.269722e+000  0.000000e+000  2.793955e+001
    endloop
  endfacet
  facet normal  0.000000e+000 -1.000000e+000  0.000000e+000
    outer loop
      vertex  1.650000e+001  0.000000e+000  3.800000e+001
      vertex  7.269722e+000  0.000000e+000  2.793955e+001
      vertex  7.278903e+000  0.000000e+000  2.784634e+001
    endloop
  endfacet
  facet normal -9.803326e-002  0.000000e+000  9.951832e-001
    outer loop
      vertex  6.801121e+000  1.000000e+000  2.736856e+001
      vertex  6.894331e+000  0.000000e+000  2.737774e+001
      vertex  6.894331e+000  1.000000e+000  2.737774e+001
    endloop
  endfacet
  facet normal -2.902727e-001  0.000000e+000  9.569440e-001
    outer loop
      vertex  6.894331e+000  1.000000e+000  2.737774e+001
      vertex  6.894331e+000  0.000000e+000  2.737774e+001
      vertex  6.983960e+000  0.000000e+000  2.740493e+001
    endloop
  endfacet
  facet normal -2.902727e-001  0.000000e+000  9.569440e-001
    outer loop
      vertex  6.894331e+000  1.000000e+000  2.737774e+001
      vertex  6.983960e+000  0.000000e+000  2.740493e+001
      vertex  6.983960e+000  1.000000e+000  2.740493e+001
    endloop
  endfacet
  facet normal -4.714093e-001  0.000000e+000  8.819146e-001
    outer loop
      vertex  6.983960e+000  1.000000e+000  2.740493e+001
      vertex  6.983960e+000  0.000000e+000  2.740493e+001
      vertex  7.066562e+000  0.000000e+000  2.744908e+001
    endloop
  endfacet
  facet normal -4.714093e-001  0.000000e+000  8.819146e-001
    outer loop
      vertex  6.983960e+000  1.000000e+000  2.740493e+001
      vertex  7.066562e+000  0.000000e+000  2.744908e+001
      vertex  7.066562e+000  1.000000e+000  2.744908e+001
    endloop
  endfacet
  facet normal -6.343890e-001  0.000000e+000  7.730139e-001
    outer loop
      vertex  7.066562e+000  1.000000e+000  2.744908e+001
      vertex  7.066562e+000  0.000000e+000  2.744908e+001
      vertex  7.138964e+000  0.000000e+000  2.750850e+001
    endloop
  endfacet
  facet normal -6.343890e-001  0.000000e+000  7.730139e-001
    outer loop
      vertex  7.066562e+000  1.000000e+000  2.744908e+001
      vertex  7.138964e+000  0.000000e+000  2.750850e+001
      vertex  7.138964e+000  1.000000e+000  2.750850e+001
    endloop
  endfacet
  facet normal -7.730069e-001  0.000000e+000  6.343976e-001
    outer loop
      vertex  7.138964e+000  1.000000e+000  2.750850e+001
      vertex  7.138964e+000  0.000000e+000  2.750850e+001
      vertex  7.198382e+000  0.000000e+000  2.758090e+001
    endloop
  endfacet
  facet normal -7.730069e-001  0.000000e+000  6.343976e-001
    outer loop
      vertex  7.138964e+000  1.000000e+000  2.750850e+001
      vertex  7.198382e+000  0.000000e+000  2.758090e+001
      vertex  7.198382e+000  1.000000e+000  2.758090e+001
    endloop
  endfacet
  facet normal -8.819243e-001  0.000000e+000  4.713911e-001
    outer loop
      vertex  7.198382e+000  1.000000e+000  2.758090e+001
      vertex  7.198382e+000  0.000000e+000  2.758090e+001
      vertex  7.242534e+000  0.000000e+000  2.766350e+001
    endloop
  endfacet
  facet normal -8.819243e-001  0.000000e+000  4.713911e-001
    outer loop
      vertex  7.198382e+000  1.000000e+000  2.758090e+001
      vertex  7.242534e+000  0.000000e+000  2.766350e+001
      vertex  7.242534e+000  1.000000e+000  2.766350e+001
    endloop
  endfacet
  facet normal -9.569407e-001  0.000000e+000  2.902835e-001
    outer loop
      vertex  7.242534e+000  1.000000e+000  2.766350e+001
      vertex  7.242534e+000  0.000000e+000  2.766350e+001
      vertex  7.269722e+000  0.000000e+000  2.775313e+001
    endloop
  endfacet
  facet normal -9.569407e-001  0.000000e+000  2.902835e-001
    outer loop
      vertex  7.242534e+000  1.000000e+000  2.766350e+001
      vertex  7.269722e+000  0.000000e+000  2.775313e+001
      vertex  7.269722e+000  1.000000e+000  2.775313e+001
    endloop
  endfacet
  facet normal -9.951847e-001  0.000000e+000  9.801863e-002
    outer loop
      vertex  7.269722e+000  1.000000e+000  2.775313e+001
      vertex  7.269722e+000  0.000000e+000  2.775313e+001
      vertex  7.278903e+000  0.000000e+000  2.784634e+001
    endloop
  endfacet
  facet normal -9.951847e-001  0.000000e+000  9.801863e-002
    outer loop
      vertex  7.269722e+000  1.000000e+000  2.775313e+001
      vertex  7.278903e+000  0.000000e+000  2.784634e+001
      vertex  7.278903e+000  1.000000e+000  2.784634e+001
    endloop
  endfacet
  facet normal -9.803326e-002  0.000000e+000  9.951832e-001
    outer loop
      vertex  6.894331e+000  0.000000e+000  2.737774e+001
      vertex  6.801121e+000  1.000000e+000  2.736856e+001
      vertex  6.801121e+000  0.000000e+000  2.736856e+001
    endloop
  endfacet
  facet normal  9.803326e-002  -0.000000e+000  9.951832e-001
    outer loop
      vertex  6.801121e+000  0.000000e+000  2.736856e+001
      vertex  6.801121e+000  1.000000e+000  2.736856e+001
      vertex  6.707910e+000  1.000000e+000  2.737774e+001
    endloop
  endfacet
  facet normal  9.803326e-002  0.000000e+000  9.951832e-001
    outer loop
      vertex  6.801121e+000  0.000000e+000  2.736856e+001
      vertex  6.707910e+000  1.000000e+000  2.737774e+001
      vertex  6.707910e+000  0.000000e+000  2.737774e+001
    endloop
  endfacet
  facet normal  2.902727e-001  -0.000000e+000  9.569440e-001
    outer loop
      vertex  6.707910e+000  0.000000e+000  2.737774e+001
      vertex  6.707910e+000  1.000000e+000  2.737774e+001
      vertex  6.618281e+000  1.000000e+000  2.740493e+001
    endloop
  endfacet
  facet normal  2.902727e-001  0.000000e+000  9.569440e-001
    outer loop
      vertex  6.707910e+000  0.000000e+000  2.737774e+001
      vertex  6.618281e+000  1.000000e+000  2.740493e+001
      vertex  6.618281e+000  0.000000e+000  2.740493e+001
    endloop
  endfacet
  facet normal  4.714093e-001  -0.000000e+000  8.819146e-001
    outer loop
      vertex  6.618281e+000  0.000000e+000  2.740493e+001
      vertex  6.618281e+000  1.000000e+000  2.740493e+001
      vertex  6.535679e+000  1.000000e+000  2.744908e+001
    endloop
  endfacet
  facet normal  4.714093e-001  0.000000e+000  8.819146e-001
    outer loop
      vertex  6.618281e+000  0.000000e+000  2.740493e+001
      vertex  6.535679e+000  1.000000e+000  2.744908e+001
      vertex  6.535679e+000  0.000000e+000  2.744908e+001
    endloop
  endfacet
  facet normal  6.343890e-001  -0.000000e+000  7.730139e-001
    outer loop
      vertex  6.535679e+000  0.000000e+000  2.744908e+001
      vertex  6.535679e+000  1.000000e+000  2.744908e+001
      vertex  6.463278e+000  1.000000e+000  2.750850e+001
    endloop
  endfacet
  facet normal  6.343890e-001  0.000000e+000  7.730139e-001
    outer loop
      vertex  6.535679e+000  0.000000e+000  2.744908e+001
      vertex  6.463278e+000  1.000000e+000  2.750850e+001
      vertex  6.463278e+000  0.000000e+000  2.750850e+001
    endloop
  endfacet
  facet normal  7.730069e-001  -0.000000e+000  6.343976e-001
    outer loop
      vertex  6.463278e+000  0.000000e+000  2.750850e+001
      vertex  6.463278e+000  1.000000e+000  2.750850e+001
      vertex  6.403859e+000  1.000000e+000  2.758090e+001
    endloop
  endfacet
  facet normal  7.730069e-001  0.000000e+000  6.343976e-001
    outer loop
      vertex  6.463278e+000  0.000000e+000  2.750850e+001
      vertex  6.403859e+000  1.000000e+000  2.758090e+001
      vertex  6.403859e+000  0.000000e+000  2.758090e+001
    endloop
  endfacet
  facet normal  8.819243e-001  -0.000000e+000  4.713911e-001
    outer loop
      vertex  6.403859e+000  0.000000e+000  2.758090e+001
      vertex  6.403859e+000  1.000000e+000  2.758090e+001
      vertex  6.359707e+000  1.000000e+000  2.766350e+001
    endloop
  endfacet
  facet normal  8.819243e-001  0.000000e+000  4.713911e-001
    outer loop
      vertex  6.403859e+000  0.000000e+000  2.758090e+001
      vertex  6.359707e+000  1.000000e+000  2.766350e+001
      vertex  6.359707e+000  0.000000e+000  2.766350e+001
    endloop
  endfacet
  facet normal  9.569407e-001  -0.000000e+000  2.902835e-001
    outer loop
      vertex  6.359707e+000  0.000000e+000  2.766350e+001
      vertex  6.359707e+000  1.000000e+000  2.766350e+001
      vertex  6.332519e+000  1.000000e+000  2.775313e+001
    endloop
  endfacet
  facet normal  9.569407e-001  0.000000e+000  2.902835e-001
    outer loop
      vertex  6.359707e+000  0.000000e+000  2.766350e+001
      vertex  6.332519e+000  1.000000e+000  2.775313e+001
      vertex  6.332519e+000  0.000000e+000  2.775313e+001
    endloop
  endfacet
  facet normal  9.951847e-001  -0.000000e+000  9.801863e-002
    outer loop
      vertex  6.332519e+000  0.000000e+000  2.775313e+001
      vertex  6.332519e+000  1.000000e+000  2.775313e+001
      vertex  6.323339e+000  1.000000e+000  2.784634e+001
    endloop
  endfacet
  facet normal  9.951847e-001  0.000000e+000  9.801863e-002
    outer loop
      vertex  6.332519e+000  0.000000e+000  2.775313e+001
      vertex  6.323339e+000  1.000000e+000  2.784634e+001
      vertex  6.323339e+000  0.000000e+000  2.784634e+001
    endloop
  endfacet
  facet normal  9.803326e-002  0.000000e+000 -9.951832e-001
    outer loop
      vertex  6.801121e+000  1.000000e+000  2.832413e+001
      vertex  6.707910e+000  0.000000e+000  2.831494e+001
      vertex  6.707910e+000  1.000000e+000  2.831494e+001
    endloop
  endfacet
  facet normal  2.902727e-001  0.000000e+000 -9.569440e-001
    outer loop
      vertex  6.707910e+000  1.000000e+000  2.831494e+001
      vertex  6.707910e+000  0.000000e+000  2.831494e+001
      vertex  6.618281e+000  0.000000e+000  2.828776e+001
    endloop
  endfacet
  facet normal  2.902727e-001  0.000000e+000 -9.569440e-001
    outer loop
      vertex  6.707910e+000  1.000000e+000  2.831494e+001
      vertex  6.618281e+000  0.000000e+000  2.828776e+001
      vertex  6.618281e+000  1.000000e+000  2.828776e+001
    endloop
  endfacet
  facet normal  4.714093e-001  0.000000e+000 -8.819146e-001
    outer loop
      vertex  6.618281e+000  1.000000e+000  2.828776e+001
      vertex  6.618281e+000  0.000000e+000  2.828776e+001
      vertex  6.535679e+000  0.000000e+000  2.824360e+001
    endloop
  endfacet
  facet normal  4.714093e-001  0.000000e+000 -8.819146e-001
    outer loop
      vertex  6.618281e+000  1.000000e+000  2.828776e+001
      vertex  6.535679e+000  0.000000e+000  2.824360e+001
      vertex  6.535679e+000  1.000000e+000  2.824360e+001
    endloop
  endfacet
  facet normal  6.343890e-001  0.000000e+000 -7.730139e-001
    outer loop
      vertex  6.535679e+000  1.000000e+000  2.824360e+001
      vertex  6.535679e+000  0.000000e+000  2.824360e+001
      vertex  6.463278e+000  0.000000e+000  2.818419e+001
    endloop
  endfacet
  facet normal  6.343890e-001  0.000000e+000 -7.730139e-001
    outer loop
      vertex  6.535679e+000  1.000000e+000  2.824360e+001
      vertex  6.463278e+000  0.000000e+000  2.818419e+001
      vertex  6.463278e+000  1.000000e+000  2.818419e+001
    endloop
  endfacet
  facet normal  7.730069e-001  0.000000e+000 -6.343976e-001
    outer loop
      vertex  6.463278e+000  1.000000e+000  2.818419e+001
      vertex  6.463278e+000  0.000000e+000  2.818419e+001
      vertex  6.403859e+000  0.000000e+000  2.811178e+001
    endloop
  endfacet
  facet normal  7.730069e-001  0.000000e+000 -6.343976e-001
    outer loop
      vertex  6.463278e+000  1.000000e+000  2.818419e+001
      vertex  6.403859e+000  0.000000e+000  2.811178e+001
      vertex  6.403859e+000  1.000000e+000  2.811178e+001
    endloop
  endfacet
  facet normal  8.819243e-001  0.000000e+000 -4.713911e-001
    outer loop
      vertex  6.403859e+000  1.000000e+000  2.811178e+001
      vertex  6.403859e+000  0.000000e+000  2.811178e+001
      vertex  6.359707e+000  0.000000e+000  2.802918e+001
    endloop
  endfacet
  facet normal  8.819243e-001  0.000000e+000 -4.713911e-001
    outer loop
      vertex  6.403859e+000  1.000000e+000  2.811178e+001
      vertex  6.359707e+000  0.000000e+000  2.802918e+001
      vertex  6.359707e+000  1.000000e+000  2.802918e+001
    endloop
  endfacet
  facet normal  9.569407e-001  0.000000e+000 -2.902835e-001
    outer loop
      vertex  6.359707e+000  1.000000e+000  2.802918e+001
      vertex  6.359707e+000  0.000000e+000  2.802918e+001
      vertex  6.332519e+000  0.000000e+000  2.793955e+001
    endloop
  endfacet
  facet normal  9.569407e-001  0.000000e+000 -2.902835e-001
    outer loop
      vertex  6.359707e+000  1.000000e+000  2.802918e+001
      vertex  6.332519e+000  0.000000e+000  2.793955e+001
      vertex  6.332519e+000  1.000000e+000  2.793955e+001
    endloop
  endfacet
  facet normal  9.951847e-001  0.000000e+000 -9.801863e-002
    outer loop
      vertex  6.332519e+000  1.000000e+000  2.793955e+001
      vertex  6.332519e+000  0.000000e+000  2.793955e+001
      vertex  6.323339e+000  0.000000e+000  2.784634e+001
    endloop
  endfacet
  facet normal  9.951847e-001  0.000000e+000 -9.801863e-002
    outer loop
      vertex  6.332519e+000  1.000000e+000  2.793955e+001
      vertex  6.323339e+000  0.000000e+000  2.784634e+001
      vertex  6.323339e+000  1.000000e+000  2.784634e+001
    endloop
  endfacet
  facet normal  9.803326e-002  0.000000e+000 -9.951832e-001
    outer loop
      vertex  6.707910e+000  0.000000e+000  2.831494e+001
      vertex  6.801121e+000  1.000000e+000  2.832413e+001
      vertex  6.801121e+000  0.000000e+000  2.832413e+001
    endloop
  endfacet
  facet normal -9.803326e-002  0.000000e+000 -9.951832e-001
    outer loop
      vertex  6.801121e+000  0.000000e+000  2.832413e+001
      vertex  6.801121e+000  1.000000e+000  2.832413e+001
      vertex  6.894331e+000  1.000000e+000  2.831494e+001
    endloop
  endfacet
  facet normal -9.803326e-002  -0.000000e+000 -9.951832e-001
    outer loop
      vertex  6.801121e+000  0.000000e+000  2.832413e+001
      vertex  6.894331e+000  1.000000e+000  2.831494e+001
      vertex  6.894331e+000  0.000000e+000  2.831494e+001
    endloop
  endfacet
  facet normal -2.902727e-001  0.000000e+000 -9.569440e-001
    outer loop
      vertex  6.894331e+000  0.000000e+000  2.831494e+001
      vertex  6.894331e+000  1.000000e+000  2.831494e+001
      vertex  6.983960e+000  1.000000e+000  2.828776e+001
    endloop
  endfacet
  facet normal -2.902727e-001  -0.000000e+000 -9.569440e-001
    outer loop
      vertex  6.894331e+000  0.000000e+000  2.831494e+001
      vertex  6.983960e+000  1.000000e+000  2.828776e+001
      vertex  6.983960e+000  0.000000e+000  2.828776e+001
    endloop
  endfacet
  facet normal -4.714093e-001  0.000000e+000 -8.819146e-001
    outer loop
      vertex  6.983960e+000  0.000000e+000  2.828776e+001
      vertex  6.983960e+000  1.000000e+000  2.828776e+001
      vertex  7.066562e+000  1.000000e+000  2.824360e+001
    endloop
  endfacet
  facet normal -4.714093e-001  -0.000000e+000 -8.819146e-001
    outer loop
      vertex  6.983960e+000  0.000000e+000  2.828776e+001
      vertex  7.066562e+000  1.000000e+000  2.824360e+001
      vertex  7.066562e+000  0.000000e+000  2.824360e+001
    endloop
  endfacet
  facet normal -6.343890e-001  0.000000e+000 -7.730139e-001
    outer loop
      vertex  7.066562e+000  0.000000e+000  2.824360e+001
      vertex  7.066562e+000  1.000000e+000  2.824360e+001
      vertex  7.138964e+000  1.000000e+000  2.818419e+001
    endloop
  endfacet
  facet normal -6.343890e-001  -0.000000e+000 -7.730139e-001
    outer loop
      vertex  7.066562e+000  0.000000e+000  2.824360e+001
      vertex  7.138964e+000  1.000000e+000  2.818419e+001
      vertex  7.138964e+000  0.000000e+000  2.818419e+001
    endloop
  endfacet
  facet normal -7.730069e-001  0.000000e+000 -6.343976e-001
    outer loop
      vertex  7.138964e+000  0.000000e+000  2.818419e+001
      vertex  7.138964e+000  1.000000e+000  2.818419e+001
      vertex  7.198382e+000  1.000000e+000  2.811178e+001
    endloop
  endfacet
  facet normal -7.730069e-001  -0.000000e+000 -6.343976e-001
    outer loop
      vertex  7.138964e+000  0.000000e+000  2.818419e+001
      vertex  7.198382e+000  1.000000e+000  2.811178e+001
      vertex  7.198382e+000  0.000000e+000  2.811178e+001
    endloop
  endfacet
  facet normal -8.819243e-001  0.000000e+000 -4.713911e-001
    outer loop
      vertex  7.198382e+000  0.000000e+000  2.811178e+001
      vertex  7.198382e+000  1.000000e+000  2.811178e+001
      vertex  7.242534e+000  1.000000e+000  2.802918e+001
    endloop
  endfacet
  facet normal -8.819243e-001  -0.000000e+000 -4.713911e-001
    outer loop
      vertex  7.198382e+000  0.000000e+000  2.811178e+001
      vertex  7.242534e+000  1.000000e+000  2.802918e+001
      vertex  7.242534e+000  0.000000e+000  2.802918e+001
    endloop
  endfacet
  facet normal -9.569407e-001  0.000000e+000 -2.902835e-001
    outer loop
      vertex  7.242534e+000  0.000000e+000  2.802918e+001
      vertex  7.242534e+000  1.000000e+000  2.802918e+001
      vertex  7.269722e+000  1.000000e+000  2.793955e+001
    endloop
  endfacet
  facet normal -9.569407e-001  -0.000000e+000 -2.902835e-001
    outer loop
      vertex  7.242534e+000  0.000000e+000  2.802918e+001
      vertex  7.269722e+000  1.000000e+000  2.793955e+001
      vertex  7.269722e+000  0.000000e+000  2.793955e+001
    endloop
  endfacet
  facet normal -9.951847e-001  0.000000e+000 -9.801863e-002
    outer loop
      vertex  7.269722e+000  0.000000e+000  2.793955e+001
      vertex  7.269722e+000  1.000000e+000  2.793955e+001
      vertex  7.278903e+000  1.000000e+000  2.784634e+001
    endloop
  endfacet
  facet normal -9.951847e-001  -0.000000e+000 -9.801863e-002
    outer loop
      vertex  7.269722e+000  0.000000e+000  2.793955e+001
      vertex  7.278903e+000  1.000000e+000  2.784634e+001
      vertex  7.278903e+000  0.000000e+000  2.784634e+001
    endloop
  endfacet
  facet normal  0.000000e+000 -9.999999e-001  0.000000e+000
    outer loop
      vertex  6.707910e+000  1.000000e+000  2.831494e+001
      vertex  6.894331e+000  1.000000e+000  2.831494e+001
      vertex  6.801121e+000  1.000000e+000  2.832413e+001
    endloop
  endfacet
  facet normal  0.000000e+000 -1.000000e+000  0.000000e+000
    outer loop
      vertex  6.894331e+000  1.000000e+000  2.831494e+001
      vertex  6.707910e+000  1.000000e+000  2.831494e+001
      vertex  6.983960e+000  1.000000e+000  2.828776e+001
    endloop
  endfacet
  facet normal  0.000000e+000 -1.000000e+000  0.000000e+000
    outer loop
      vertex  6.983960e+000  1.000000e+000  2.828776e+001
      vertex  6.707910e+000  1.000000e+000  2.831494e+001
      vertex  6.618281e+000  1.000000e+000  2.828776e+001
    endloop
  endfacet
  facet normal  0.000000e+000 -1.000000e+000  0.000000e+000
    outer loop
      vertex  6.983960e+000  1.000000e+000  2.828776e+001
      vertex  6.618281e+000  1.000000e+000  2.828776e+001
      vertex  7.066562e+000  1.000000e+000  2.824360e+001
    endloop
  endfacet
  facet normal  0.000000e+000 -1.000000e+000  0.000000e+000
    outer loop
      vertex  7.066562e+000  1.000000e+000  2.824360e+001
      vertex  6.618281e+000  1.000000e+000  2.828776e+001
      vertex  6.535679e+000  1.000000e+000  2.824360e+001
    endloop
  endfacet
  facet normal  0.000000e+000 -1.000000e+000  0.000000e+000
    outer loop
      vertex  7.066562e+000  1.000000e+000  2.824360e+001
      vertex  6.535679e+000  1.000000e+000  2.824360e+001
      vertex  7.138964e+000  1.000000e+000  2.818419e+001
    endloop
  endfacet
  facet normal  0.000000e+000 -1.000000e+000  0.000000e+000
    outer loop
      vertex  7.138964e+000  1.000000e+000  2.818419e+001
      vertex  6.535679e+000  1.000000e+000  2.824360e+001
      vertex  6.463278e+000  1.000000e+000  2.818419e+001
    endloop
  endfacet
  facet normal  0.000000e+000 -1.000000e+000  0.000000e+000
    outer loop
      vertex  7.138964e+000  1.000000e+000  2.818419e+001
      vertex  6.463278e+000  1.000000e+000  2.818419e+001
      vertex  7.198382e+000  1.000000e+000  2.811178e+001
    endloop
  endfacet
  facet normal  0.000000e+000 -1.000000e+000  0.000000e+000
    outer loop
      vertex  7.198382e+000  1.000000e+000  2.811178e+001
      vertex  6.463278e+000  1.000000e+000  2.818419e+001
      vertex  6.403859e+000  1.000000e+000  2.811178e+001
    endloop
  endfacet
  facet normal  0.000000e+000 -1.000000e+000  0.000000e+000
    outer loop
      vertex  7.198382e+000  1.000000e+000  2.811178e+001
      vertex  6.403859e+000  1.000000e+000  2.811178e+001
      vertex  7.242534e+000  1.000000e+000  2.802918e+001
    endloop
  endfacet
  facet normal  0.000000e+000 -1.000000e+000  0.000000e+000
    outer loop
      vertex  7.242534e+000  1.000000e+000  2.802918e+001
      vertex  6.403859e+000  1.000000e+000  2.811178e+001
      vertex  6.359707e+000  1.000000e+000  2.802918e+001
    endloop
  endfacet
  facet normal  0.000000e+000 -1.000000e+000  0.000000e+000
    outer loop
      vertex  7.242534e+000  1.000000e+000  2.802918e+001
      vertex  6.359707e+000  1.000000e+000  2.802918e+001
      vertex  7.269722e+000  1.000000e+000  2.793955e+001
    endloop
  endfacet
  facet normal  0.000000e+000 -1.000000e+000  0.000000e+000
    outer loop
      vertex  7.269722e+000  1.000000e+000  2.793955e+001
      vertex  6.359707e+000  1.000000e+000  2.802918e+001
      vertex  6.332519e+000  1.000000e+000  2.793955e+001
    endloop
  endfacet
  facet normal  0.000000e+000 -1.000000e+000  0.000000e+000
    outer loop
      vertex  7.269722e+000  1.000000e+000  2.793955e+001
      vertex  6.332519e+000  1.000000e+000  2.793955e+001
      vertex  7.278903e+000  1.000000e+000  2.784634e+001
    endloop
  endfacet
  facet normal  0.000000e+000 -1.000000e+000  0.000000e+000
    outer loop
      vertex  7.278903e+000  1.000000e+000  2.784634e+001
      vertex  6.332519e+000  1.000000e+000  2.793955e+001
      vertex  6.323339e+000  1.000000e+000  2.784634e+001
    endloop
  endfacet
  facet normal  0.000000e+000 -1.000000e+000  0.000000e+000
    outer loop
      vertex  7.278903e+000  1.000000e+000  2.784634e+001
      vertex  6.323339e+000  1.000000e+000  2.784634e+001
      vertex  7.269722e+000  1.000000e+000  2.775313e+001
    endloop
  endfacet
  facet normal  0.000000e+000 -1.000000e+000  0.000000e+000
    outer loop
      vertex  7.269722e+000  1.000000e+000  2.775313e+001
      vertex  6.323339e+000  1.000000e+000  2.784634e+001
      vertex  6.332519e+000  1.000000e+000  2.775313e+001
    endloop
  endfacet
  facet normal  0.000000e+000 -1.000000e+000  0.000000e+000
    outer loop
      vertex  7.269722e+000  1.000000e+000  2.775313e+001
      vertex  6.332519e+000  1.000000e+000  2.775313e+001
      vertex  7.242534e+000  1.000000e+000  2.766350e+001
    endloop
  endfacet
  facet normal  0.000000e+000 -1.000000e+000  0.000000e+000
    outer loop
      vertex  7.242534e+000  1.000000e+000  2.766350e+001
      vertex  6.332519e+000  1.000000e+000  2.775313e+001
      vertex  6.359707e+000  1.000000e+000  2.766350e+001
    endloop
  endfacet
  facet normal  0.000000e+000 -1.000000e+000  0.000000e+000
    outer loop
      vertex  7.242534e+000  1.000000e+000  2.766350e+001
      vertex  6.359707e+000  1.000000e+000  2.766350e+001
      vertex  7.198382e+000  1.000000e+000  2.758090e+001
    endloop
  endfacet
  facet normal  0.000000e+000 -1.000000e+000  0.000000e+000
    outer loop
      vertex  7.198382e+000  1.000000e+000  2.758090e+001
      vertex  6.359707e+000  1.000000e+000  2.766350e+001
      vertex  6.403859e+000  1.000000e+000  2.758090e+001
    endloop
  endfacet
  facet normal  0.000000e+000 -1.000000e+000  0.000000e+000
    outer loop
      vertex  7.198382e+000  1.000000e+000  2.758090e+001
      vertex  6.403859e+000  1.000000e+000  2.758090e+001
      vertex  7.138964e+000  1.000000e+000  2.750850e+001
    endloop
  endfacet
  facet normal  0.000000e+000 -1.000000e+000  0.000000e+000
    outer loop
      vertex  7.138964e+000  1.000000e+000  2.750850e+001
      vertex  6.403859e+000  1.000000e+000  2.758090e+001
      vertex  6.463278e+000  1.000000e+000  2.750850e+001
    endloop
  endfacet
  facet normal  0.000000e+000 -1.000000e+000  0.000000e+000
    outer loop
      vertex  7.138964e+000  1.000000e+000  2.750850e+001
      vertex  6.463278e+000  1.000000e+000  2.750850e+001
      vertex  7.066562e+000  1.000000e+000  2.744908e+001
    endloop
  endfacet
  facet normal  0.000000e+000 -1.000000e+000  0.000000e+000
    outer loop
      vertex  7.066562e+000  1.000000e+000  2.744908e+001
      vertex  6.463278e+000  1.000000e+000  2.750850e+001
      vertex  6.535679e+000  1.000000e+000  2.744908e+001
    endloop
  endfacet
  facet normal  0.000000e+000 -1.000000e+000  0.000000e+000
    outer loop
      vertex  7.066562e+000  1.000000e+000  2.744908e+001
      vertex  6.535679e+000  1.000000e+000  2.744908e+001
      vertex  6.983960e+000  1.000000e+000  2.740493e+001
    endloop
  endfacet
  facet normal  0.000000e+000 -1.000000e+000  0.000000e+000
    outer loop
      vertex  6.983960e+000  1.000000e+000  2.740493e+001
      vertex  6.535679e+000  1.000000e+000  2.744908e+001
      vertex  6.618281e+000  1.000000e+000  2.740493e+001
    endloop
  endfacet
  facet normal  0.000000e+000 -1.000000e+000  0.000000e+000
    outer loop
      vertex  6.983960e+000  1.000000e+000  2.740493e+001
      vertex  6.618281e+000  1.000000e+000  2.740493e+001
      vertex  6.894331e+000  1.000000e+000  2.737774e+001
    endloop
  endfacet
  facet normal  0.000000e+000 -1.000000e+000  0.000000e+000
    outer loop
      vertex  6.894331e+000  1.000000e+000  2.737774e+001
      vertex  6.618281e+000  1.000000e+000  2.740493e+001
      vertex  6.707910e+000  1.000000e+000  2.737774e+001
    endloop
  endfacet
  facet normal  0.000000e+000 -9.999999e-001  0.000000e+000
    outer loop
      vertex  6.894331e+000  1.000000e+000  2.737774e+001
      vertex  6.707910e+000  1.000000e+000  2.737774e+001
      vertex  6.801121e+000  1.000000e+000  2.736856e+001
    endloop
  endfacet
  facet normal  0.000000e+000  0.000000e+000 -1.000000e+000
    outer loop
      vertex  0.000000e+000  1.600000e+001  0.000000e+000
      vertex  3.000000e+000  0.000000e+000  0.000000e+000
      vertex  0.000000e+000  0.000000e+000  0.000000e+000
    endloop
  endfacet
  facet normal  0.000000e+000  0.000000e+000 -1.000000e+000
    outer loop
      vertex  3.000000e+000  0.000000e+000  0.000000e+000
      vertex  0.000000e+000  1.600000e+001  0.000000e+000
      vertex  3.750000e+000  7.500000e-001  0.000000e+000
    endloop
  endfacet
  facet normal  0.000000e+000  0.000000e+000 -1.000000e+000
    outer loop
      vertex  3.750000e+000  7.500000e-001  0.000000e+000
      vertex  0.000000e+000  1.600000e+001  0.000000e+000
      vertex  5.260000e+001  1.600000e+001  0.000000e+000
    endloop
  endfacet
  facet normal  0.000000e+000  0.000000e+000 -9.999999e-001
    outer loop
      vertex  3.750000e+000  7.500000e-001  0.000000e+000
      vertex  5.260000e+001  1.600000e+001  0.000000e+000
      vertex  1.725000e+001  7.500000e-001  0.000000e+000
    endloop
  endfacet
  facet normal  0.000000e+000  0.000000e+000 -1.000000e+000
    outer loop
      vertex  1.725000e+001  7.500000e-001  0.000000e+000
      vertex  5.260000e+001  1.600000e+001  0.000000e+000
      vertex  5.260000e+001  0.000000e+000  0.000000e+000
    endloop
  endfacet
  facet normal  0.000000e+000  0.000000e+000 -1.000000e+000
    outer loop
      vertex  1.725000e+001  7.500000e-001  0.000000e+000
      vertex  5.260000e+001  0.000000e+000  0.000000e+000
      vertex  1.800000e+001  0.000000e+000  0.000000e+000
    endloop
  endfacet
  facet normal  0.000000e+000  0.000000e+000 -1.000000e+000
    outer loop
      vertex  4.500000e+000  0.000000e+000  0.000000e+000
      vertex  3.750000e+000  7.500000e-001  0.000000e+000
      vertex  1.650000e+001  0.000000e+000  0.000000e+000
    endloop
  endfacet
  facet normal  0.000000e+000  0.000000e+000 -1.000000e+000
    outer loop
      vertex  1.650000e+001  0.000000e+000  0.000000e+000
      vertex  3.750000e+000  7.500000e-001  0.000000e+000
      vertex  1.725000e+001  7.500000e-001  0.000000e+000
    endloop
  endfacet
  facet normal  0.000000e+000 -1.000000e+000  0.000000e+000
    outer loop
      vertex  1.800000e+001  0.000000e+000  3.800000e+001
      vertex  1.800000e+001  0.000000e+000  0.000000e+000
      vertex  5.260000e+001  0.000000e+000  3.800000e+001
    endloop
  endfacet
  facet normal  0.000000e+000 -1.000000e+000  -0.000000e+000
    outer loop
      vertex  5.260000e+001  0.000000e+000  3.800000e+001
      vertex  1.800000e+001  0.000000e+000  0.000000e+000
      vertex  5.260000e+001  0.000000e+000  0.000000e+000
    endloop
  endfacet
  facet normal -7.071068e-001 -7.071068e-001  0.000000e+000
    outer loop
      vertex  1.725000e+001  7.500000e-001  3.800000e+001
      vertex  1.725000e+001  7.500000e-001  0.000000e+000
      vertex  1.800000e+001  0.000000e+000  3.800000e+001
    endloop
  endfacet
  facet normal -7.071068e-001 -7.071068e-001  -0.000000e+000
    outer loop
      vertex  1.800000e+001  0.000000e+000  3.800000e+001
      vertex  1.725000e+001  7.500000e-001  0.000000e+000
      vertex  1.800000e+001  0.000000e+000  0.000000e+000
    endloop
  endfacet
  facet normal  7.071068e-001 -7.071068e-001  0.000000e+000
    outer loop
      vertex  1.650000e+001  0.000000e+000  3.800000e+001
      vertex  1.650000e+001  0.000000e+000  0.000000e+000
      vertex  1.725000e+001  7.500000e-001  3.800000e+001
    endloop
  endfacet
  facet normal  7.071068e-001 -7.071068e-001  0.000000e+000
    outer loop
      vertex  1.725000e+001  7.500000e-001  3.800000e+001
      vertex  1.650000e+001  0.000000e+000  0.000000e+000
      vertex  1.725000e+001  7.500000e-001  0.000000e+000
    endloop
  endfacet
  facet normal  0.000000e+000 -1.000000e+000  0.000000e+000
    outer loop
      vertex  0.000000e+000  0.000000e+000  3.800000e+001
      vertex  0.000000e+000  0.000000e+000  0.000000e+000
      vertex  3.000000e+000  0.000000e+000  3.800000e+001
    endloop
  endfacet
  facet normal  0.000000e+000 -1.000000e+000  -0.000000e+000
    outer loop
      vertex  3.000000e+000  0.000000e+000  3.800000e+001
      vertex  0.000000e+000  0.000000e+000  0.000000e+000
      vertex  3.000000e+000  0.000000e+000  0.000000e+000
    endloop
  endfacet
  facet normal -7.071068e-001 -7.071068e-001  0.000000e+000
    outer loop
      vertex  4.500000e+000  0.000000e+000  3.800000e+001
      vertex  3.750000e+000  7.500000e-001  3.800000e+001
      vertex  4.500000e+000  0.000000e+000  0.000000e+000
    endloop
  endfacet
  facet normal -7.071068e-001 -7.071068e-001  0.000000e+000
    outer loop
      vertex  4.500000e+000  0.000000e+000  0.000000e+000
      vertex  3.750000e+000  7.500000e-001  3.800000e+001
      vertex  3.750000e+000  7.500000e-001  0.000000e+000
    endloop
  endfacet
  facet normal  7.071068e-001 -7.071068e-001  0.000000e+000
    outer loop
      vertex  3.750000e+000  7.500000e-001  3.800000e+001
      vertex  3.000000e+000  0.000000e+000  3.800000e+001
      vertex  3.750000e+000  7.500000e-001  0.000000e+000
    endloop
  endfacet
  facet normal  7.071068e-001 -7.071068e-001  0.000000e+000
    outer loop
      vertex  3.750000e+000  7.500000e-001  0.000000e+000
      vertex  3.000000e+000  0.000000e+000  3.800000e+001
      vertex  3.000000e+000  0.000000e+000  0.000000e+000
    endloop
  endfacet
  facet normal -1.000000e+000  0.000000e+000  0.000000e+000
    outer loop
      vertex  0.000000e+000  1.600000e+001  0.000000e+000
      vertex  0.000000e+000  0.000000e+000  0.000000e+000
      vertex  0.000000e+000  1.600000e+001  3.800000e+001
    endloop
  endfacet
  facet normal -1.000000e+000  -0.000000e+000  0.000000e+000
    outer loop
      vertex  0.000000e+000  1.600000e+001  3.800000e+001
      vertex  0.000000e+000  0.000000e+000  0.000000e+000
      vertex  0.000000e+000  0.000000e+000  3.800000e+001
    endloop
  endfacet
  facet normal  0.000000e+000  1.000000e+000  -0.000000e+000
    outer loop
      vertex  5.260000e+001  1.600000e+001  3.800000e+001
      vertex  5.260000e+001  1.600000e+001  0.000000e+000
      vertex  0.000000e+000  1.600000e+001  3.800000e+001
    endloop
  endfacet
  facet normal  0.000000e+000  1.000000e+000  0.000000e+000
    outer loop
      vertex  0.000000e+000  1.600000e+001  3.800000e+001
      vertex  5.260000e+001  1.600000e+001  0.000000e+000
      vertex  0.000000e+000  1.600000e+001  0.000000e+000
    endloop
  endfacet
  facet normal  1.000000e+000  0.000000e+000  0.000000e+000
    outer loop
      vertex  5.260000e+001  0.000000e+000  0.000000e+000
      vertex  5.260000e+001  1.600000e+001  0.000000e+000
      vertex  5.260000e+001  0.000000e+000  3.800000e+001
    endloop
  endfacet
  facet normal  1.000000e+000  -0.000000e+000  0.000000e+000
    outer loop
      vertex  5.260000e+001  0.000000e+000  3.800000e+001
      vertex  5.260000e+001  1.600000e+001  0.000000e+000
      vertex  5.260000e+001  1.600000e+001  3.800000e+001
    endloop
  endfacet
endsolid CATIA STL
