solid CATIA STL
  facet normal -1.490560e-016 -1.000000e+000  9.868649e-017
    outer loop
      vertex  3.400000e+001  3.552714e-015  4.100000e+001
      vertex  3.400000e+001  0.000000e+000  5.000000e+000
      vertex  4.400629e+001  0.000000e+000  2.011350e+001
    endloop
  endfacet
  facet normal -1.166745e-015 -9.999999e-001 -3.888672e-016
    outer loop
      vertex  3.400000e+001  3.552714e-015  4.100000e+001
      vertex  4.400629e+001  0.000000e+000  2.011350e+001
      vertex  4.400629e+001 -1.240098e-015  2.330250e+001
    endloop
  endfacet
  facet normal  1.490337e-015 -1.000000e+000  1.113466e-015
    outer loop
      vertex  3.400000e+001  3.552714e-015  4.100000e+001
      vertex  4.400629e+001 -1.240098e-015  2.330250e+001
      vertex  4.483839e+001  0.000000e+000  2.330250e+001
    endloop
  endfacet
  facet normal  0.000000e+000 -1.000000e+000  2.007466e-016
    outer loop
      vertex  3.400000e+001  3.552714e-015  4.100000e+001
      vertex  4.483839e+001  0.000000e+000  2.330250e+001
      vertex  4.550000e+001  3.552714e-015  4.100000e+001
    endloop
  endfacet
  facet normal  2.730007e-015 -1.000000e+000  9.868649e-017
    outer loop
      vertex  4.550000e+001  3.552714e-015  4.100000e+001
      vertex  4.483839e+001  0.000000e+000  2.330250e+001
      vertex  4.550000e+001  0.000000e+000  5.000000e+000
    endloop
  endfacet
  facet normal  0.000000e+000 -1.000000e+000  0.000000e+000
    outer loop
      vertex  4.550000e+001  0.000000e+000  5.000000e+000
      vertex  4.483839e+001  0.000000e+000  2.330250e+001
      vertex  4.483839e+001  0.000000e+000  2.011350e+001
    endloop
  endfacet
  facet normal  0.000000e+000 -1.000000e+000  -0.000000e+000
    outer loop
      vertex  4.550000e+001  0.000000e+000  5.000000e+000
      vertex  4.483839e+001  0.000000e+000  2.011350e+001
      vertex  3.400000e+001  0.000000e+000  5.000000e+000
    endloop
  endfacet
  facet normal  0.000000e+000 -1.000000e+000  0.000000e+000
    outer loop
      vertex  3.400000e+001  0.000000e+000  5.000000e+000
      vertex  4.483839e+001  0.000000e+000  2.011350e+001
      vertex  4.400629e+001  0.000000e+000  2.011350e+001
    endloop
  endfacet
  facet normal  3.607657e-016 -1.000000e+000  9.868649e-017
    outer loop
      vertex  5.300000e+001  3.552714e-015  4.100000e+001
      vertex  4.799340e+001  0.000000e+000  2.330250e+001
      vertex  5.300000e+001  0.000000e+000  5.000000e+000
    endloop
  endfacet
  facet normal  0.000000e+000 -1.000000e+000  0.000000e+000
    outer loop
      vertex  5.300000e+001  0.000000e+000  5.000000e+000
      vertex  4.799340e+001  0.000000e+000  2.330250e+001
      vertex  4.799340e+001  0.000000e+000  2.011350e+001
    endloop
  endfacet
  facet normal  0.000000e+000 -1.000000e+000  -0.000000e+000
    outer loop
      vertex  5.300000e+001  0.000000e+000  5.000000e+000
      vertex  4.799340e+001  0.000000e+000  2.011350e+001
      vertex  4.650000e+001  0.000000e+000  5.000000e+000
    endloop
  endfacet
  facet normal  0.000000e+000 -1.000000e+000  0.000000e+000
    outer loop
      vertex  4.650000e+001  0.000000e+000  5.000000e+000
      vertex  4.799340e+001  0.000000e+000  2.011350e+001
      vertex  4.716131e+001  0.000000e+000  2.011350e+001
    endloop
  endfacet
  facet normal -2.255375e-015 -1.000000e+000  9.868649e-017
    outer loop
      vertex  4.650000e+001  0.000000e+000  5.000000e+000
      vertex  4.716131e+001  0.000000e+000  2.011350e+001
      vertex  4.650000e+001  3.552714e-015  4.100000e+001
    endloop
  endfacet
  facet normal -1.765408e-014 -1.000000e+000 -3.888673e-016
    outer loop
      vertex  4.650000e+001  3.552714e-015  4.100000e+001
      vertex  4.716131e+001  0.000000e+000  2.011350e+001
      vertex  4.716131e+001 -1.240098e-015  2.330250e+001
    endloop
  endfacet
  facet normal  0.000000e+000 -1.000000e+000  2.708185e-016
    outer loop
      vertex  4.650000e+001  3.552714e-015  4.100000e+001
      vertex  4.716131e+001 -1.240098e-015  2.330250e+001
      vertex  5.300000e+001  3.552714e-015  4.100000e+001
    endloop
  endfacet
  facet normal  1.490337e-015 -1.000000e+000 -2.208678e-016
    outer loop
      vertex  5.300000e+001  3.552714e-015  4.100000e+001
      vertex  4.716131e+001 -1.240098e-015  2.330250e+001
      vertex  4.799340e+001  0.000000e+000  2.330250e+001
    endloop
  endfacet
  facet normal  1.000000e+000  0.000000e+000  0.000000e+000
    outer loop
      vertex  4.799340e+001 -1.000000e+000  2.011350e+001
      vertex  4.799340e+001  0.000000e+000  2.011350e+001
      vertex  4.799340e+001 -1.000000e+000  2.330250e+001
    endloop
  endfacet
  facet normal  1.000000e+000  -0.000000e+000  0.000000e+000
    outer loop
      vertex  4.799340e+001 -1.000000e+000  2.330250e+001
      vertex  4.799340e+001  0.000000e+000  2.011350e+001
      vertex  4.799340e+001  0.000000e+000  2.330250e+001
    endloop
  endfacet
  facet normal  0.000000e+000  0.000000e+000 -9.999999e-001
    outer loop
      vertex  4.799340e+001 -1.000000e+000  2.011350e+001
      vertex  4.716131e+001 -1.000000e+000  2.011350e+001
      vertex  4.799340e+001  0.000000e+000  2.011350e+001
    endloop
  endfacet
  facet normal  -0.000000e+000  0.000000e+000 -9.999999e-001
    outer loop
      vertex  4.799340e+001  0.000000e+000  2.011350e+001
      vertex  4.716131e+001 -1.000000e+000  2.011350e+001
      vertex  4.716131e+001  0.000000e+000  2.011350e+001
    endloop
  endfacet
  facet normal  0.000000e+000  0.000000e+000  9.999999e-001
    outer loop
      vertex  4.716131e+001 -1.000000e+000  2.330250e+001
      vertex  4.799340e+001 -1.000000e+000  2.330250e+001
      vertex  4.716131e+001 -1.240098e-015  2.330250e+001
    endloop
  endfacet
  facet normal  -0.000000e+000  0.000000e+000  9.999999e-001
    outer loop
      vertex  4.716131e+001 -1.240098e-015  2.330250e+001
      vertex  4.799340e+001 -1.000000e+000  2.330250e+001
      vertex  4.799340e+001  0.000000e+000  2.330250e+001
    endloop
  endfacet
  facet normal -1.000000e+000  -0.000000e+000  0.000000e+000
    outer loop
      vertex  4.716131e+001 -1.000000e+000  2.330250e+001
      vertex  4.716131e+001 -1.240098e-015  2.330250e+001
      vertex  4.716131e+001 -1.000000e+000  2.011350e+001
    endloop
  endfacet
  facet normal -1.000000e+000  0.000000e+000  0.000000e+000
    outer loop
      vertex  4.716131e+001 -1.000000e+000  2.011350e+001
      vertex  4.716131e+001 -1.240098e-015  2.330250e+001
      vertex  4.716131e+001  0.000000e+000  2.011350e+001
    endloop
  endfacet
  facet normal  1.000000e+000  0.000000e+000  0.000000e+000
    outer loop
      vertex  4.483839e+001 -1.000000e+000  2.011350e+001
      vertex  4.483839e+001  0.000000e+000  2.011350e+001
      vertex  4.483839e+001 -1.000000e+000  2.330250e+001
    endloop
  endfacet
  facet normal  1.000000e+000  -0.000000e+000  0.000000e+000
    outer loop
      vertex  4.483839e+001 -1.000000e+000  2.330250e+001
      vertex  4.483839e+001  0.000000e+000  2.011350e+001
      vertex  4.483839e+001  0.000000e+000  2.330250e+001
    endloop
  endfacet
  facet normal  0.000000e+000  0.000000e+000 -9.999999e-001
    outer loop
      vertex  4.483839e+001 -1.000000e+000  2.011350e+001
      vertex  4.400629e+001 -1.000000e+000  2.011350e+001
      vertex  4.483839e+001  0.000000e+000  2.011350e+001
    endloop
  endfacet
  facet normal  -0.000000e+000  0.000000e+000 -9.999999e-001
    outer loop
      vertex  4.483839e+001  0.000000e+000  2.011350e+001
      vertex  4.400629e+001 -1.000000e+000  2.011350e+001
      vertex  4.400629e+001  0.000000e+000  2.011350e+001
    endloop
  endfacet
  facet normal  0.000000e+000  0.000000e+000  9.999999e-001
    outer loop
      vertex  4.400629e+001 -1.000000e+000  2.330250e+001
      vertex  4.483839e+001 -1.000000e+000  2.330250e+001
      vertex  4.400629e+001 -1.240098e-015  2.330250e+001
    endloop
  endfacet
  facet normal  -0.000000e+000  0.000000e+000  9.999999e-001
    outer loop
      vertex  4.400629e+001 -1.240098e-015  2.330250e+001
      vertex  4.483839e+001 -1.000000e+000  2.330250e+001
      vertex  4.483839e+001  0.000000e+000  2.330250e+001
    endloop
  endfacet
  facet normal -1.000000e+000  -0.000000e+000  0.000000e+000
    outer loop
      vertex  4.400629e+001 -1.000000e+000  2.330250e+001
      vertex  4.400629e+001 -1.240098e-015  2.330250e+001
      vertex  4.400629e+001 -1.000000e+000  2.011350e+001
    endloop
  endfacet
  facet normal -1.000000e+000  0.000000e+000  0.000000e+000
    outer loop
      vertex  4.400629e+001 -1.000000e+000  2.011350e+001
      vertex  4.400629e+001 -1.240098e-015  2.330250e+001
      vertex  4.400629e+001  0.000000e+000  2.011350e+001
    endloop
  endfacet
  facet normal  0.000000e+000 -9.999999e-001  0.000000e+000
    outer loop
      vertex  4.716131e+001 -1.000000e+000  2.011350e+001
      vertex  4.799340e+001 -1.000000e+000  2.011350e+001
      vertex  4.716131e+001 -1.000000e+000  2.330250e+001
    endloop
  endfacet
  facet normal  0.000000e+000 -9.999999e-001  0.000000e+000
    outer loop
      vertex  4.716131e+001 -1.000000e+000  2.330250e+001
      vertex  4.799340e+001 -1.000000e+000  2.011350e+001
      vertex  4.799340e+001 -1.000000e+000  2.330250e+001
    endloop
  endfacet
  facet normal  0.000000e+000 -9.999999e-001  0.000000e+000
    outer loop
      vertex  4.400629e+001 -1.000000e+000  2.011350e+001
      vertex  4.483839e+001 -1.000000e+000  2.011350e+001
      vertex  4.400629e+001 -1.000000e+000  2.330250e+001
    endloop
  endfacet
  facet normal  0.000000e+000 -9.999999e-001  0.000000e+000
    outer loop
      vertex  4.400629e+001 -1.000000e+000  2.330250e+001
      vertex  4.483839e+001 -1.000000e+000  2.011350e+001
      vertex  4.483839e+001 -1.000000e+000  2.330250e+001
    endloop
  endfacet
  facet normal  5.150883e-016 -1.000000e+000  9.868649e-017
    outer loop
      vertex  3.300000e+001  3.552714e-015  4.100000e+001
      vertex  2.949340e+001  0.000000e+000  2.330250e+001
      vertex  3.300000e+001  0.000000e+000  5.000000e+000
    endloop
  endfacet
  facet normal  0.000000e+000 -1.000000e+000  0.000000e+000
    outer loop
      vertex  3.300000e+001  0.000000e+000  5.000000e+000
      vertex  2.949340e+001  0.000000e+000  2.330250e+001
      vertex  2.949340e+001  0.000000e+000  2.011350e+001
    endloop
  endfacet
  facet normal  0.000000e+000 -1.000000e+000  -0.000000e+000
    outer loop
      vertex  3.300000e+001  0.000000e+000  5.000000e+000
      vertex  2.949340e+001  0.000000e+000  2.011350e+001
      vertex  2.800000e+001  0.000000e+000  5.000000e+000
    endloop
  endfacet
  facet normal  0.000000e+000 -1.000000e+000  0.000000e+000
    outer loop
      vertex  2.800000e+001  0.000000e+000  5.000000e+000
      vertex  2.949340e+001  0.000000e+000  2.011350e+001
      vertex  2.866131e+001  0.000000e+000  2.011350e+001
    endloop
  endfacet
  facet normal -2.255381e-015 -1.000000e+000  9.868649e-017
    outer loop
      vertex  2.800000e+001  0.000000e+000  5.000000e+000
      vertex  2.866131e+001  0.000000e+000  2.011350e+001
      vertex  2.800000e+001  3.552714e-015  4.100000e+001
    endloop
  endfacet
  facet normal -5.372266e-015 -1.000000e+000  0.000000e+000
    outer loop
      vertex  2.800000e+001  3.552714e-015  4.100000e+001
      vertex  2.866131e+001  0.000000e+000  2.011350e+001
      vertex  2.866131e+001  0.000000e+000  2.330250e+001
    endloop
  endfacet
  facet normal  0.000000e+000 -9.999999e-001  2.007466e-016
    outer loop
      vertex  2.800000e+001  3.552714e-015  4.100000e+001
      vertex  2.866131e+001  0.000000e+000  2.330250e+001
      vertex  3.300000e+001  3.552714e-015  4.100000e+001
    endloop
  endfacet
  facet normal  0.000000e+000 -1.000000e+000  2.007466e-016
    outer loop
      vertex  3.300000e+001  3.552714e-015  4.100000e+001
      vertex  2.866131e+001  0.000000e+000  2.330250e+001
      vertex  2.949340e+001  0.000000e+000  2.330250e+001
    endloop
  endfacet
  facet normal  2.730007e-015 -1.000000e+000  9.868649e-017
    outer loop
      vertex  2.700000e+001  3.552714e-015  4.100000e+001
      vertex  2.633839e+001  0.000000e+000  2.330250e+001
      vertex  2.700000e+001  0.000000e+000  5.000000e+000
    endloop
  endfacet
  facet normal  0.000000e+000 -1.000000e+000  0.000000e+000
    outer loop
      vertex  2.700000e+001  0.000000e+000  5.000000e+000
      vertex  2.633839e+001  0.000000e+000  2.330250e+001
      vertex  2.633839e+001  0.000000e+000  2.011350e+001
    endloop
  endfacet
  facet normal  0.000000e+000 -1.000000e+000  -0.000000e+000
    outer loop
      vertex  2.700000e+001  0.000000e+000  5.000000e+000
      vertex  2.633839e+001  0.000000e+000  2.011350e+001
      vertex  1.550000e+001  0.000000e+000  5.000000e+000
    endloop
  endfacet
  facet normal  0.000000e+000 -1.000000e+000  0.000000e+000
    outer loop
      vertex  1.550000e+001  0.000000e+000  5.000000e+000
      vertex  2.633839e+001  0.000000e+000  2.011350e+001
      vertex  2.550630e+001  0.000000e+000  2.011350e+001
    endloop
  endfacet
  facet normal  -0.000000e+000 -1.000000e+000  0.000000e+000
    outer loop
      vertex  1.550000e+001  0.000000e+000  5.000000e+000
      vertex  2.550630e+001  0.000000e+000  2.011350e+001
      vertex  1.550000e+001  0.000000e+000  4.100000e+001
    endloop
  endfacet
  facet normal  0.000000e+000 -1.000000e+000  0.000000e+000
    outer loop
      vertex  1.550000e+001  0.000000e+000  4.100000e+001
      vertex  2.550630e+001  0.000000e+000  2.011350e+001
      vertex  2.550630e+001  0.000000e+000  2.330250e+001
    endloop
  endfacet
  facet normal  3.089316e-016 -1.000000e+000  1.746722e-016
    outer loop
      vertex  1.550000e+001  0.000000e+000  4.100000e+001
      vertex  2.550630e+001  0.000000e+000  2.330250e+001
      vertex  2.700000e+001  3.552714e-015  4.100000e+001
    endloop
  endfacet
  facet normal  0.000000e+000 -1.000000e+000  2.007466e-016
    outer loop
      vertex  2.700000e+001  3.552714e-015  4.100000e+001
      vertex  2.550630e+001  0.000000e+000  2.330250e+001
      vertex  2.633839e+001  0.000000e+000  2.330250e+001
    endloop
  endfacet
  facet normal  0.000000e+000  0.000000e+000  9.999999e-001
    outer loop
      vertex  2.866131e+001 -1.000000e+000  2.330250e+001
      vertex  2.949340e+001 -1.000000e+000  2.330250e+001
      vertex  2.866131e+001  0.000000e+000  2.330250e+001
    endloop
  endfacet
  facet normal  -0.000000e+000  0.000000e+000  9.999999e-001
    outer loop
      vertex  2.866131e+001  0.000000e+000  2.330250e+001
      vertex  2.949340e+001 -1.000000e+000  2.330250e+001
      vertex  2.949340e+001  0.000000e+000  2.330250e+001
    endloop
  endfacet
  facet normal  1.000000e+000  0.000000e+000  0.000000e+000
    outer loop
      vertex  2.949340e+001 -1.000000e+000  2.011350e+001
      vertex  2.949340e+001  0.000000e+000  2.011350e+001
      vertex  2.949340e+001 -1.000000e+000  2.330250e+001
    endloop
  endfacet
  facet normal  1.000000e+000  -0.000000e+000  0.000000e+000
    outer loop
      vertex  2.949340e+001 -1.000000e+000  2.330250e+001
      vertex  2.949340e+001  0.000000e+000  2.011350e+001
      vertex  2.949340e+001  0.000000e+000  2.330250e+001
    endloop
  endfacet
  facet normal  0.000000e+000  0.000000e+000 -9.999999e-001
    outer loop
      vertex  2.949340e+001 -1.000000e+000  2.011350e+001
      vertex  2.866131e+001 -1.000000e+000  2.011350e+001
      vertex  2.949340e+001  0.000000e+000  2.011350e+001
    endloop
  endfacet
  facet normal  -0.000000e+000  0.000000e+000 -9.999999e-001
    outer loop
      vertex  2.949340e+001  0.000000e+000  2.011350e+001
      vertex  2.866131e+001 -1.000000e+000  2.011350e+001
      vertex  2.866131e+001  0.000000e+000  2.011350e+001
    endloop
  endfacet
  facet normal -1.000000e+000  -0.000000e+000  0.000000e+000
    outer loop
      vertex  2.866131e+001 -1.000000e+000  2.330250e+001
      vertex  2.866131e+001  0.000000e+000  2.330250e+001
      vertex  2.866131e+001 -1.000000e+000  2.011350e+001
    endloop
  endfacet
  facet normal -1.000000e+000  0.000000e+000  0.000000e+000
    outer loop
      vertex  2.866131e+001 -1.000000e+000  2.011350e+001
      vertex  2.866131e+001  0.000000e+000  2.330250e+001
      vertex  2.866131e+001  0.000000e+000  2.011350e+001
    endloop
  endfacet
  facet normal  0.000000e+000  0.000000e+000  9.999999e-001
    outer loop
      vertex  2.550630e+001 -1.000000e+000  2.330250e+001
      vertex  2.633839e+001 -1.000000e+000  2.330250e+001
      vertex  2.550630e+001  0.000000e+000  2.330250e+001
    endloop
  endfacet
  facet normal  -0.000000e+000  0.000000e+000  9.999999e-001
    outer loop
      vertex  2.550630e+001  0.000000e+000  2.330250e+001
      vertex  2.633839e+001 -1.000000e+000  2.330250e+001
      vertex  2.633839e+001  0.000000e+000  2.330250e+001
    endloop
  endfacet
  facet normal  1.000000e+000  0.000000e+000  0.000000e+000
    outer loop
      vertex  2.633839e+001 -1.000000e+000  2.011350e+001
      vertex  2.633839e+001  0.000000e+000  2.011350e+001
      vertex  2.633839e+001 -1.000000e+000  2.330250e+001
    endloop
  endfacet
  facet normal  1.000000e+000  -0.000000e+000  0.000000e+000
    outer loop
      vertex  2.633839e+001 -1.000000e+000  2.330250e+001
      vertex  2.633839e+001  0.000000e+000  2.011350e+001
      vertex  2.633839e+001  0.000000e+000  2.330250e+001
    endloop
  endfacet
  facet normal  0.000000e+000  0.000000e+000 -9.999999e-001
    outer loop
      vertex  2.633839e+001 -1.000000e+000  2.011350e+001
      vertex  2.550630e+001 -1.000000e+000  2.011350e+001
      vertex  2.633839e+001  0.000000e+000  2.011350e+001
    endloop
  endfacet
  facet normal  -0.000000e+000  0.000000e+000 -9.999999e-001
    outer loop
      vertex  2.633839e+001  0.000000e+000  2.011350e+001
      vertex  2.550630e+001 -1.000000e+000  2.011350e+001
      vertex  2.550630e+001  0.000000e+000  2.011350e+001
    endloop
  endfacet
  facet normal -1.000000e+000  -0.000000e+000  0.000000e+000
    outer loop
      vertex  2.550630e+001 -1.000000e+000  2.330250e+001
      vertex  2.550630e+001  0.000000e+000  2.330250e+001
      vertex  2.550630e+001 -1.000000e+000  2.011350e+001
    endloop
  endfacet
  facet normal -1.000000e+000  0.000000e+000  0.000000e+000
    outer loop
      vertex  2.550630e+001 -1.000000e+000  2.011350e+001
      vertex  2.550630e+001  0.000000e+000  2.330250e+001
      vertex  2.550630e+001  0.000000e+000  2.011350e+001
    endloop
  endfacet
  facet normal  0.000000e+000 -9.999999e-001  0.000000e+000
    outer loop
      vertex  2.866131e+001 -1.000000e+000  2.011350e+001
      vertex  2.949340e+001 -1.000000e+000  2.011350e+001
      vertex  2.866131e+001 -1.000000e+000  2.330250e+001
    endloop
  endfacet
  facet normal  0.000000e+000 -9.999999e-001  0.000000e+000
    outer loop
      vertex  2.866131e+001 -1.000000e+000  2.330250e+001
      vertex  2.949340e+001 -1.000000e+000  2.011350e+001
      vertex  2.949340e+001 -1.000000e+000  2.330250e+001
    endloop
  endfacet
  facet normal  0.000000e+000 -1.000000e+000  0.000000e+000
    outer loop
      vertex  2.550630e+001 -1.000000e+000  2.011350e+001
      vertex  2.633839e+001 -1.000000e+000  2.011350e+001
      vertex  2.550630e+001 -1.000000e+000  2.330250e+001
    endloop
  endfacet
  facet normal  0.000000e+000 -1.000000e+000  0.000000e+000
    outer loop
      vertex  2.550630e+001 -1.000000e+000  2.330250e+001
      vertex  2.633839e+001 -1.000000e+000  2.011350e+001
      vertex  2.633839e+001 -1.000000e+000  2.330250e+001
    endloop
  endfacet
  facet normal  0.000000e+000 -1.000000e+000 -1.082467e-014
    outer loop
      vertex  3.400000e+001 -5.395684e-014  4.600000e+001
      vertex  3.400000e+001 -1.065814e-014  4.200000e+001
      vertex  4.550000e+001 -5.395684e-014  4.600000e+001
    endloop
  endfacet
  facet normal  0.000000e+000 -1.000000e+000 -1.082467e-014
    outer loop
      vertex  4.550000e+001 -5.395684e-014  4.600000e+001
      vertex  3.400000e+001 -1.065814e-014  4.200000e+001
      vertex  4.550000e+001 -1.065814e-014  4.200000e+001
    endloop
  endfacet
  facet normal  0.000000e+000 -1.000000e+000 -1.082467e-014
    outer loop
      vertex  2.800000e+001 -5.395684e-014  4.600000e+001
      vertex  2.800000e+001 -1.065814e-014  4.200000e+001
      vertex  3.300000e+001 -5.395684e-014  4.600000e+001
    endloop
  endfacet
  facet normal  0.000000e+000 -1.000000e+000 -1.082467e-014
    outer loop
      vertex  3.300000e+001 -5.395684e-014  4.600000e+001
      vertex  2.800000e+001 -1.065814e-014  4.200000e+001
      vertex  3.300000e+001 -1.065814e-014  4.200000e+001
    endloop
  endfacet
  facet normal  0.000000e+000 -7.071068e-001  7.071068e-001
    outer loop
      vertex  3.350000e+001  5.000000e-001  4.150000e+001
      vertex  3.400000e+001  3.552714e-015  4.100000e+001
      vertex  4.600000e+001  5.000000e-001  4.150000e+001
    endloop
  endfacet
  facet normal  0.000000e+000 -7.071068e-001  7.071068e-001
    outer loop
      vertex  4.600000e+001  5.000000e-001  4.150000e+001
      vertex  3.400000e+001  3.552714e-015  4.100000e+001
      vertex  4.550000e+001  3.552714e-015  4.100000e+001
    endloop
  endfacet
  facet normal  0.000000e+000 -7.071068e-001  7.071068e-001
    outer loop
      vertex  2.750000e+001  5.000000e-001  4.150000e+001
      vertex  2.800000e+001  3.552714e-015  4.100000e+001
      vertex  3.350000e+001  5.000000e-001  4.150000e+001
    endloop
  endfacet
  facet normal  0.000000e+000 -7.071068e-001  7.071068e-001
    outer loop
      vertex  3.350000e+001  5.000000e-001  4.150000e+001
      vertex  2.800000e+001  3.552714e-015  4.100000e+001
      vertex  3.300000e+001  3.552714e-015  4.100000e+001
    endloop
  endfacet
  facet normal  0.000000e+000 -7.071068e-001 -7.071068e-001
    outer loop
      vertex  3.400000e+001  0.000000e+000  5.000000e+000
      vertex  3.350000e+001  5.000000e-001  4.500000e+000
      vertex  4.550000e+001  0.000000e+000  5.000000e+000
    endloop
  endfacet
  facet normal  0.000000e+000 -7.071068e-001 -7.071068e-001
    outer loop
      vertex  4.550000e+001  0.000000e+000  5.000000e+000
      vertex  3.350000e+001  5.000000e-001  4.500000e+000
      vertex  4.600000e+001  5.000000e-001  4.500000e+000
    endloop
  endfacet
  facet normal  0.000000e+000 -7.071068e-001 -7.071068e-001
    outer loop
      vertex  2.800000e+001  0.000000e+000  5.000000e+000
      vertex  2.750000e+001  5.000000e-001  4.500000e+000
      vertex  3.300000e+001  0.000000e+000  5.000000e+000
    endloop
  endfacet
  facet normal  0.000000e+000 -7.071068e-001 -7.071068e-001
    outer loop
      vertex  3.300000e+001  0.000000e+000  5.000000e+000
      vertex  2.750000e+001  5.000000e-001  4.500000e+000
      vertex  3.350000e+001  5.000000e-001  4.500000e+000
    endloop
  endfacet
  facet normal  0.000000e+000 -7.071068e-001  7.071068e-001
    outer loop
      vertex  3.350000e+001  5.000000e-001  4.500000e+000
      vertex  3.400000e+001  0.000000e+000  4.000000e+000
      vertex  4.600000e+001  5.000000e-001  4.500000e+000
    endloop
  endfacet
  facet normal  0.000000e+000 -7.071068e-001  7.071068e-001
    outer loop
      vertex  4.600000e+001  5.000000e-001  4.500000e+000
      vertex  3.400000e+001  0.000000e+000  4.000000e+000
      vertex  4.550000e+001  0.000000e+000  4.000000e+000
    endloop
  endfacet
  facet normal  0.000000e+000 -7.071068e-001  7.071068e-001
    outer loop
      vertex  2.750000e+001  5.000000e-001  4.500000e+000
      vertex  2.800000e+001  0.000000e+000  4.000000e+000
      vertex  3.350000e+001  5.000000e-001  4.500000e+000
    endloop
  endfacet
  facet normal  0.000000e+000 -7.071068e-001  7.071068e-001
    outer loop
      vertex  3.350000e+001  5.000000e-001  4.500000e+000
      vertex  2.800000e+001  0.000000e+000  4.000000e+000
      vertex  3.300000e+001  0.000000e+000  4.000000e+000
    endloop
  endfacet
  facet normal  0.000000e+000 -1.000000e+000  0.000000e+000
    outer loop
      vertex  3.400000e+001  0.000000e+000  4.000000e+000
      vertex  3.400000e+001  0.000000e+000  2.000000e+000
      vertex  4.550000e+001  0.000000e+000  4.000000e+000
    endloop
  endfacet
  facet normal  0.000000e+000 -1.000000e+000  -0.000000e+000
    outer loop
      vertex  4.550000e+001  0.000000e+000  4.000000e+000
      vertex  3.400000e+001  0.000000e+000  2.000000e+000
      vertex  4.550000e+001  0.000000e+000  2.000000e+000
    endloop
  endfacet
  facet normal  0.000000e+000 -1.000000e+000  0.000000e+000
    outer loop
      vertex  2.800000e+001  0.000000e+000  4.000000e+000
      vertex  2.800000e+001  0.000000e+000  2.000000e+000
      vertex  3.300000e+001  0.000000e+000  4.000000e+000
    endloop
  endfacet
  facet normal  0.000000e+000 -1.000000e+000  -0.000000e+000
    outer loop
      vertex  3.300000e+001  0.000000e+000  4.000000e+000
      vertex  2.800000e+001  0.000000e+000  2.000000e+000
      vertex  3.300000e+001  0.000000e+000  2.000000e+000
    endloop
  endfacet
  facet normal  0.000000e+000  0.000000e+000 -1.000000e+000
    outer loop
      vertex  2.750000e+001  5.000000e-001  2.000000e+000
      vertex  2.700000e+001  0.000000e+000  2.000000e+000
      vertex  1.550000e+001  0.000000e+000  2.000000e+000
    endloop
  endfacet
  facet normal  0.000000e+000  0.000000e+000 -1.000000e+000
    outer loop
      vertex  2.750000e+001  5.000000e-001  2.000000e+000
      vertex  1.550000e+001  0.000000e+000  2.000000e+000
      vertex  1.500000e+001  5.000000e-001  2.000000e+000
    endloop
  endfacet
  facet normal  0.000000e+000  0.000000e+000 -1.000000e+000
    outer loop
      vertex  2.750000e+001  5.000000e-001  2.000000e+000
      vertex  1.500000e+001  5.000000e-001  2.000000e+000
      vertex  0.000000e+000  1.000000e+000  2.000000e+000
    endloop
  endfacet
  facet normal  0.000000e+000  0.000000e+000 -1.000000e+000
    outer loop
      vertex  2.750000e+001  5.000000e-001  2.000000e+000
      vertex  0.000000e+000  1.000000e+000  2.000000e+000
      vertex  3.350000e+001  5.000000e-001  2.000000e+000
    endloop
  endfacet
  facet normal  -0.000000e+000  0.000000e+000 -1.000000e+000
    outer loop
      vertex  2.750000e+001  5.000000e-001  2.000000e+000
      vertex  3.350000e+001  5.000000e-001  2.000000e+000
      vertex  3.300000e+001  0.000000e+000  2.000000e+000
    endloop
  endfacet
  facet normal  0.000000e+000  0.000000e+000 -1.000000e+000
    outer loop
      vertex  2.750000e+001  5.000000e-001  2.000000e+000
      vertex  3.300000e+001  0.000000e+000  2.000000e+000
      vertex  2.800000e+001  0.000000e+000  2.000000e+000
    endloop
  endfacet
  facet normal  -0.000000e+000  0.000000e+000 -1.000000e+000
    outer loop
      vertex  0.000000e+000  1.000000e+000  2.000000e+000
      vertex  5.300000e+001  1.000000e+000  2.000000e+000
      vertex  3.350000e+001  5.000000e-001  2.000000e+000
    endloop
  endfacet
  facet normal  0.000000e+000  0.000000e+000 -1.000000e+000
    outer loop
      vertex  3.350000e+001  5.000000e-001  2.000000e+000
      vertex  5.300000e+001  1.000000e+000  2.000000e+000
      vertex  4.600000e+001  5.000000e-001  2.000000e+000
    endloop
  endfacet
  facet normal  -0.000000e+000  0.000000e+000 -1.000000e+000
    outer loop
      vertex  3.350000e+001  5.000000e-001  2.000000e+000
      vertex  4.600000e+001  5.000000e-001  2.000000e+000
      vertex  3.400000e+001  0.000000e+000  2.000000e+000
    endloop
  endfacet
  facet normal  0.000000e+000  0.000000e+000 -1.000000e+000
    outer loop
      vertex  3.400000e+001  0.000000e+000  2.000000e+000
      vertex  4.600000e+001  5.000000e-001  2.000000e+000
      vertex  4.550000e+001  0.000000e+000  2.000000e+000
    endloop
  endfacet
  facet normal  0.000000e+000  0.000000e+000 -1.000000e+000
    outer loop
      vertex  7.040005e+000  0.000000e+000  2.000000e+000
      vertex  0.000000e+000  0.000000e+000  2.000000e+000
      vertex  7.540005e+000  5.000000e-001  2.000000e+000
    endloop
  endfacet
  facet normal  -0.000000e+000  0.000000e+000 -1.000000e+000
    outer loop
      vertex  7.540005e+000  5.000000e-001  2.000000e+000
      vertex  0.000000e+000  0.000000e+000  2.000000e+000
      vertex  0.000000e+000  1.000000e+000  2.000000e+000
    endloop
  endfacet
  facet normal  0.000000e+000  0.000000e+000 -1.000000e+000
    outer loop
      vertex  7.540005e+000  5.000000e-001  2.000000e+000
      vertex  0.000000e+000  1.000000e+000  2.000000e+000
      vertex  1.500000e+001  5.000000e-001  2.000000e+000
    endloop
  endfacet
  facet normal  0.000000e+000  0.000000e+000 -1.000000e+000
    outer loop
      vertex  1.450000e+001  0.000000e+000  2.000000e+000
      vertex  8.040005e+000  0.000000e+000  2.000000e+000
      vertex  1.500000e+001  5.000000e-001  2.000000e+000
    endloop
  endfacet
  facet normal  -0.000000e+000  0.000000e+000 -1.000000e+000
    outer loop
      vertex  1.500000e+001  5.000000e-001  2.000000e+000
      vertex  8.040005e+000  0.000000e+000  2.000000e+000
      vertex  7.540005e+000  5.000000e-001  2.000000e+000
    endloop
  endfacet
  facet normal  0.000000e+000  0.000000e+000 -1.000000e+000
    outer loop
      vertex  4.650000e+001  0.000000e+000  2.000000e+000
      vertex  4.600000e+001  5.000000e-001  2.000000e+000
      vertex  5.300000e+001  0.000000e+000  2.000000e+000
    endloop
  endfacet
  facet normal  0.000000e+000  0.000000e+000 -1.000000e+000
    outer loop
      vertex  5.300000e+001  0.000000e+000  2.000000e+000
      vertex  4.600000e+001  5.000000e-001  2.000000e+000
      vertex  5.300000e+001  1.000000e+000  2.000000e+000
    endloop
  endfacet
  facet normal  0.000000e+000  -0.000000e+000  1.000000e+000
    outer loop
      vertex  2.750000e+001  5.000000e-001  4.600000e+001
      vertex  2.800000e+001 -5.395684e-014  4.600000e+001
      vertex  3.300000e+001 -5.395684e-014  4.600000e+001
    endloop
  endfacet
  facet normal  0.000000e+000  -0.000000e+000  1.000000e+000
    outer loop
      vertex  2.750000e+001  5.000000e-001  4.600000e+001
      vertex  3.300000e+001 -5.395684e-014  4.600000e+001
      vertex  3.350000e+001  5.000000e-001  4.600000e+001
    endloop
  endfacet
  facet normal  0.000000e+000  0.000000e+000  1.000000e+000
    outer loop
      vertex  2.750000e+001  5.000000e-001  4.600000e+001
      vertex  3.350000e+001  5.000000e-001  4.600000e+001
      vertex  0.000000e+000  1.000000e+000  4.600000e+001
    endloop
  endfacet
  facet normal  0.000000e+000  0.000000e+000  1.000000e+000
    outer loop
      vertex  2.750000e+001  5.000000e-001  4.600000e+001
      vertex  0.000000e+000  1.000000e+000  4.600000e+001
      vertex  1.500000e+001  5.000000e-001  4.600000e+001
    endloop
  endfacet
  facet normal  -0.000000e+000  0.000000e+000  1.000000e+000
    outer loop
      vertex  2.750000e+001  5.000000e-001  4.600000e+001
      vertex  1.500000e+001  5.000000e-001  4.600000e+001
      vertex  1.550000e+001 -5.395684e-014  4.600000e+001
    endloop
  endfacet
  facet normal  0.000000e+000  0.000000e+000  1.000000e+000
    outer loop
      vertex  2.750000e+001  5.000000e-001  4.600000e+001
      vertex  1.550000e+001 -5.395684e-014  4.600000e+001
      vertex  2.700000e+001 -5.395684e-014  4.600000e+001
    endloop
  endfacet
  facet normal  0.000000e+000  -0.000000e+000  1.000000e+000
    outer loop
      vertex  0.000000e+000  1.000000e+000  4.600000e+001
      vertex  3.350000e+001  5.000000e-001  4.600000e+001
      vertex  5.300000e+001  1.000000e+000  4.600000e+001
    endloop
  endfacet
  facet normal  0.000000e+000  0.000000e+000  1.000000e+000
    outer loop
      vertex  5.300000e+001  1.000000e+000  4.600000e+001
      vertex  3.350000e+001  5.000000e-001  4.600000e+001
      vertex  4.600000e+001  5.000000e-001  4.600000e+001
    endloop
  endfacet
  facet normal  0.000000e+000  -0.000000e+000  1.000000e+000
    outer loop
      vertex  3.350000e+001  5.000000e-001  4.600000e+001
      vertex  3.400000e+001 -5.395684e-014  4.600000e+001
      vertex  4.600000e+001  5.000000e-001  4.600000e+001
    endloop
  endfacet
  facet normal  0.000000e+000  0.000000e+000  1.000000e+000
    outer loop
      vertex  4.600000e+001  5.000000e-001  4.600000e+001
      vertex  3.400000e+001 -5.395684e-014  4.600000e+001
      vertex  4.550000e+001 -5.395684e-014  4.600000e+001
    endloop
  endfacet
  facet normal  0.000000e+000  0.000000e+000  1.000000e+000
    outer loop
      vertex  1.500000e+001  5.000000e-001  4.600000e+001
      vertex  0.000000e+000  1.000000e+000  4.600000e+001
      vertex  7.540005e+000  5.000000e-001  4.600000e+001
    endloop
  endfacet
  facet normal  0.000000e+000  0.000000e+000  1.000000e+000
    outer loop
      vertex  7.540005e+000  5.000000e-001  4.600000e+001
      vertex  0.000000e+000  1.000000e+000  4.600000e+001
      vertex  0.000000e+000 -5.329071e-014  4.600000e+001
    endloop
  endfacet
  facet normal  -0.000000e+000  0.000000e+000  1.000000e+000
    outer loop
      vertex  7.540005e+000  5.000000e-001  4.600000e+001
      vertex  0.000000e+000 -5.329071e-014  4.600000e+001
      vertex  7.040005e+000 -5.395684e-014  4.600000e+001
    endloop
  endfacet
  facet normal  0.000000e+000  0.000000e+000  1.000000e+000
    outer loop
      vertex  1.450000e+001 -5.395684e-014  4.600000e+001
      vertex  1.500000e+001  5.000000e-001  4.600000e+001
      vertex  8.040005e+000 -5.395684e-014  4.600000e+001
    endloop
  endfacet
  facet normal  0.000000e+000  -0.000000e+000  1.000000e+000
    outer loop
      vertex  8.040005e+000 -5.395684e-014  4.600000e+001
      vertex  1.500000e+001  5.000000e-001  4.600000e+001
      vertex  7.540005e+000  5.000000e-001  4.600000e+001
    endloop
  endfacet
  facet normal  0.000000e+000  0.000000e+000  1.000000e+000
    outer loop
      vertex  4.650000e+001 -5.395684e-014  4.600000e+001
      vertex  5.300000e+001 -5.395684e-014  4.600000e+001
      vertex  4.600000e+001  5.000000e-001  4.600000e+001
    endloop
  endfacet
  facet normal  -0.000000e+000  0.000000e+000  1.000000e+000
    outer loop
      vertex  4.600000e+001  5.000000e-001  4.600000e+001
      vertex  5.300000e+001 -5.395684e-014  4.600000e+001
      vertex  5.300000e+001  1.000000e+000  4.600000e+001
    endloop
  endfacet
  facet normal  0.000000e+000 -7.071068e-001 -7.071068e-001
    outer loop
      vertex  3.400000e+001 -1.065814e-014  4.200000e+001
      vertex  3.350000e+001  5.000000e-001  4.150000e+001
      vertex  4.550000e+001 -1.065814e-014  4.200000e+001
    endloop
  endfacet
  facet normal  0.000000e+000 -7.071068e-001 -7.071068e-001
    outer loop
      vertex  4.550000e+001 -1.065814e-014  4.200000e+001
      vertex  3.350000e+001  5.000000e-001  4.150000e+001
      vertex  4.600000e+001  5.000000e-001  4.150000e+001
    endloop
  endfacet
  facet normal  0.000000e+000 -7.071068e-001 -7.071068e-001
    outer loop
      vertex  2.800000e+001 -1.065814e-014  4.200000e+001
      vertex  2.750000e+001  5.000000e-001  4.150000e+001
      vertex  3.300000e+001 -1.065814e-014  4.200000e+001
    endloop
  endfacet
  facet normal  0.000000e+000 -7.071068e-001 -7.071068e-001
    outer loop
      vertex  3.300000e+001 -1.065814e-014  4.200000e+001
      vertex  2.750000e+001  5.000000e-001  4.150000e+001
      vertex  3.350000e+001  5.000000e-001  4.150000e+001
    endloop
  endfacet
  facet normal -7.071068e-001 -7.071068e-001  0.000000e+000
    outer loop
      vertex  3.400000e+001 -5.395684e-014  4.600000e+001
      vertex  3.350000e+001  5.000000e-001  4.600000e+001
      vertex  3.400000e+001 -1.065814e-014  4.200000e+001
    endloop
  endfacet
  facet normal -7.071067e-001 -7.071067e-001  0.000000e+000
    outer loop
      vertex  3.400000e+001 -1.065814e-014  4.200000e+001
      vertex  3.350000e+001  5.000000e-001  4.600000e+001
      vertex  3.350000e+001  5.000000e-001  4.150000e+001
    endloop
  endfacet
  facet normal -7.071067e-001 -7.071067e-001  0.000000e+000
    outer loop
      vertex  3.400000e+001  3.552714e-015  4.100000e+001
      vertex  3.350000e+001  5.000000e-001  4.150000e+001
      vertex  3.400000e+001  0.000000e+000  5.000000e+000
    endloop
  endfacet
  facet normal -7.071068e-001 -7.071068e-001  0.000000e+000
    outer loop
      vertex  3.400000e+001  0.000000e+000  5.000000e+000
      vertex  3.350000e+001  5.000000e-001  4.150000e+001
      vertex  3.350000e+001  5.000000e-001  4.500000e+000
    endloop
  endfacet
  facet normal -7.071068e-001 -7.071068e-001  0.000000e+000
    outer loop
      vertex  3.400000e+001  0.000000e+000  4.000000e+000
      vertex  3.350000e+001  5.000000e-001  4.500000e+000
      vertex  3.400000e+001  0.000000e+000  2.000000e+000
    endloop
  endfacet
  facet normal -7.071068e-001 -7.071068e-001  0.000000e+000
    outer loop
      vertex  3.400000e+001  0.000000e+000  2.000000e+000
      vertex  3.350000e+001  5.000000e-001  4.500000e+000
      vertex  3.350000e+001  5.000000e-001  2.000000e+000
    endloop
  endfacet
  facet normal  7.071067e-001 -7.071067e-001  0.000000e+000
    outer loop
      vertex  3.350000e+001  5.000000e-001  4.600000e+001
      vertex  3.300000e+001 -5.395684e-014  4.600000e+001
      vertex  3.350000e+001  5.000000e-001  4.150000e+001
    endloop
  endfacet
  facet normal  7.071068e-001 -7.071068e-001  0.000000e+000
    outer loop
      vertex  3.350000e+001  5.000000e-001  4.150000e+001
      vertex  3.300000e+001 -5.395684e-014  4.600000e+001
      vertex  3.300000e+001 -1.065814e-014  4.200000e+001
    endloop
  endfacet
  facet normal  7.071068e-001 -7.071068e-001  0.000000e+000
    outer loop
      vertex  3.350000e+001  5.000000e-001  4.500000e+000
      vertex  3.300000e+001  0.000000e+000  4.000000e+000
      vertex  3.350000e+001  5.000000e-001  2.000000e+000
    endloop
  endfacet
  facet normal  7.071068e-001 -7.071068e-001  0.000000e+000
    outer loop
      vertex  3.350000e+001  5.000000e-001  2.000000e+000
      vertex  3.300000e+001  0.000000e+000  4.000000e+000
      vertex  3.300000e+001  0.000000e+000  2.000000e+000
    endloop
  endfacet
  facet normal  7.071068e-001 -7.071068e-001  0.000000e+000
    outer loop
      vertex  3.350000e+001  5.000000e-001  4.150000e+001
      vertex  3.300000e+001  3.552714e-015  4.100000e+001
      vertex  3.350000e+001  5.000000e-001  4.500000e+000
    endloop
  endfacet
  facet normal  7.071067e-001 -7.071067e-001  0.000000e+000
    outer loop
      vertex  3.350000e+001  5.000000e-001  4.500000e+000
      vertex  3.300000e+001  3.552714e-015  4.100000e+001
      vertex  3.300000e+001  0.000000e+000  5.000000e+000
    endloop
  endfacet
  facet normal  0.000000e+000 -7.071068e-001  7.071068e-001
    outer loop
      vertex  4.600000e+001  5.000000e-001  4.500000e+000
      vertex  4.650000e+001  0.000000e+000  4.000000e+000
      vertex  5.300000e+001  5.000000e-001  4.500000e+000
    endloop
  endfacet
  facet normal  0.000000e+000 -7.071067e-001  7.071067e-001
    outer loop
      vertex  5.300000e+001  5.000000e-001  4.500000e+000
      vertex  4.650000e+001  0.000000e+000  4.000000e+000
      vertex  5.300000e+001  0.000000e+000  4.000000e+000
    endloop
  endfacet
  facet normal  0.000000e+000 -7.071068e-001  7.071068e-001
    outer loop
      vertex  4.600000e+001  5.000000e-001  4.150000e+001
      vertex  4.650000e+001  3.552714e-015  4.100000e+001
      vertex  5.300000e+001  5.000000e-001  4.150000e+001
    endloop
  endfacet
  facet normal  0.000000e+000 -7.071067e-001  7.071067e-001
    outer loop
      vertex  5.300000e+001  5.000000e-001  4.150000e+001
      vertex  4.650000e+001  3.552714e-015  4.100000e+001
      vertex  5.300000e+001  3.552714e-015  4.100000e+001
    endloop
  endfacet
  facet normal  0.000000e+000 -1.000000e+000 -1.082467e-014
    outer loop
      vertex  4.650000e+001 -5.395684e-014  4.600000e+001
      vertex  4.650000e+001 -1.065814e-014  4.200000e+001
      vertex  5.300000e+001 -5.395684e-014  4.600000e+001
    endloop
  endfacet
  facet normal  0.000000e+000 -1.000000e+000 -1.082467e-014
    outer loop
      vertex  5.300000e+001 -5.395684e-014  4.600000e+001
      vertex  4.650000e+001 -1.065814e-014  4.200000e+001
      vertex  5.300000e+001 -1.065814e-014  4.200000e+001
    endloop
  endfacet
  facet normal  0.000000e+000 -7.071067e-001 -7.071067e-001
    outer loop
      vertex  4.650000e+001 -1.065814e-014  4.200000e+001
      vertex  4.600000e+001  5.000000e-001  4.150000e+001
      vertex  5.300000e+001 -1.065814e-014  4.200000e+001
    endloop
  endfacet
  facet normal  0.000000e+000 -7.071068e-001 -7.071068e-001
    outer loop
      vertex  5.300000e+001 -1.065814e-014  4.200000e+001
      vertex  4.600000e+001  5.000000e-001  4.150000e+001
      vertex  5.300000e+001  5.000000e-001  4.150000e+001
    endloop
  endfacet
  facet normal  0.000000e+000 -7.071067e-001 -7.071067e-001
    outer loop
      vertex  4.650000e+001  0.000000e+000  5.000000e+000
      vertex  4.600000e+001  5.000000e-001  4.500000e+000
      vertex  5.300000e+001  0.000000e+000  5.000000e+000
    endloop
  endfacet
  facet normal  0.000000e+000 -7.071068e-001 -7.071068e-001
    outer loop
      vertex  5.300000e+001  0.000000e+000  5.000000e+000
      vertex  4.600000e+001  5.000000e-001  4.500000e+000
      vertex  5.300000e+001  5.000000e-001  4.500000e+000
    endloop
  endfacet
  facet normal  0.000000e+000 -1.000000e+000  0.000000e+000
    outer loop
      vertex  4.650000e+001  0.000000e+000  4.000000e+000
      vertex  4.650000e+001  0.000000e+000  2.000000e+000
      vertex  5.300000e+001  0.000000e+000  4.000000e+000
    endloop
  endfacet
  facet normal  0.000000e+000 -1.000000e+000  -0.000000e+000
    outer loop
      vertex  5.300000e+001  0.000000e+000  4.000000e+000
      vertex  4.650000e+001  0.000000e+000  2.000000e+000
      vertex  5.300000e+001  0.000000e+000  2.000000e+000
    endloop
  endfacet
  facet normal -7.071068e-001 -7.071068e-001  0.000000e+000
    outer loop
      vertex  4.650000e+001 -5.395684e-014  4.600000e+001
      vertex  4.600000e+001  5.000000e-001  4.600000e+001
      vertex  4.650000e+001 -1.065814e-014  4.200000e+001
    endloop
  endfacet
  facet normal -7.071067e-001 -7.071067e-001  0.000000e+000
    outer loop
      vertex  4.650000e+001 -1.065814e-014  4.200000e+001
      vertex  4.600000e+001  5.000000e-001  4.600000e+001
      vertex  4.600000e+001  5.000000e-001  4.150000e+001
    endloop
  endfacet
  facet normal -7.071067e-001 -7.071067e-001  0.000000e+000
    outer loop
      vertex  4.650000e+001  3.552714e-015  4.100000e+001
      vertex  4.600000e+001  5.000000e-001  4.150000e+001
      vertex  4.650000e+001  0.000000e+000  5.000000e+000
    endloop
  endfacet
  facet normal -7.071068e-001 -7.071068e-001  0.000000e+000
    outer loop
      vertex  4.650000e+001  0.000000e+000  5.000000e+000
      vertex  4.600000e+001  5.000000e-001  4.150000e+001
      vertex  4.600000e+001  5.000000e-001  4.500000e+000
    endloop
  endfacet
  facet normal -7.071068e-001 -7.071068e-001  0.000000e+000
    outer loop
      vertex  4.650000e+001  0.000000e+000  4.000000e+000
      vertex  4.600000e+001  5.000000e-001  4.500000e+000
      vertex  4.650000e+001  0.000000e+000  2.000000e+000
    endloop
  endfacet
  facet normal -7.071068e-001 -7.071068e-001  0.000000e+000
    outer loop
      vertex  4.650000e+001  0.000000e+000  2.000000e+000
      vertex  4.600000e+001  5.000000e-001  4.500000e+000
      vertex  4.600000e+001  5.000000e-001  2.000000e+000
    endloop
  endfacet
  facet normal  7.071067e-001 -7.071067e-001  0.000000e+000
    outer loop
      vertex  4.600000e+001  5.000000e-001  4.600000e+001
      vertex  4.550000e+001 -5.395684e-014  4.600000e+001
      vertex  4.600000e+001  5.000000e-001  4.150000e+001
    endloop
  endfacet
  facet normal  7.071068e-001 -7.071068e-001  0.000000e+000
    outer loop
      vertex  4.600000e+001  5.000000e-001  4.150000e+001
      vertex  4.550000e+001 -5.395684e-014  4.600000e+001
      vertex  4.550000e+001 -1.065814e-014  4.200000e+001
    endloop
  endfacet
  facet normal  7.071068e-001 -7.071068e-001  0.000000e+000
    outer loop
      vertex  4.600000e+001  5.000000e-001  4.500000e+000
      vertex  4.550000e+001  0.000000e+000  4.000000e+000
      vertex  4.600000e+001  5.000000e-001  2.000000e+000
    endloop
  endfacet
  facet normal  7.071068e-001 -7.071068e-001  0.000000e+000
    outer loop
      vertex  4.600000e+001  5.000000e-001  2.000000e+000
      vertex  4.550000e+001  0.000000e+000  4.000000e+000
      vertex  4.550000e+001  0.000000e+000  2.000000e+000
    endloop
  endfacet
  facet normal  7.071068e-001 -7.071068e-001  0.000000e+000
    outer loop
      vertex  4.600000e+001  5.000000e-001  4.150000e+001
      vertex  4.550000e+001  3.552714e-015  4.100000e+001
      vertex  4.600000e+001  5.000000e-001  4.500000e+000
    endloop
  endfacet
  facet normal  7.071067e-001 -7.071067e-001  0.000000e+000
    outer loop
      vertex  4.600000e+001  5.000000e-001  4.500000e+000
      vertex  4.550000e+001  3.552714e-015  4.100000e+001
      vertex  4.550000e+001  0.000000e+000  5.000000e+000
    endloop
  endfacet
  facet normal  0.000000e+000 -7.071068e-001  7.071068e-001
    outer loop
      vertex  1.500000e+001  5.000000e-001  4.500000e+000
      vertex  1.550000e+001  0.000000e+000  4.000000e+000
      vertex  2.750000e+001  5.000000e-001  4.500000e+000
    endloop
  endfacet
  facet normal  0.000000e+000 -7.071068e-001  7.071068e-001
    outer loop
      vertex  2.750000e+001  5.000000e-001  4.500000e+000
      vertex  1.550000e+001  0.000000e+000  4.000000e+000
      vertex  2.700000e+001  0.000000e+000  4.000000e+000
    endloop
  endfacet
  facet normal  0.000000e+000 -7.071068e-001  7.071068e-001
    outer loop
      vertex  1.500000e+001  5.000000e-001  4.150000e+001
      vertex  1.550000e+001  0.000000e+000  4.100000e+001
      vertex  2.750000e+001  5.000000e-001  4.150000e+001
    endloop
  endfacet
  facet normal  0.000000e+000 -7.071068e-001  7.071068e-001
    outer loop
      vertex  2.750000e+001  5.000000e-001  4.150000e+001
      vertex  1.550000e+001  0.000000e+000  4.100000e+001
      vertex  2.700000e+001  3.552714e-015  4.100000e+001
    endloop
  endfacet
  facet normal  0.000000e+000 -1.000000e+000 -1.082467e-014
    outer loop
      vertex  1.550000e+001 -5.395684e-014  4.600000e+001
      vertex  1.550000e+001 -1.065814e-014  4.200000e+001
      vertex  2.700000e+001 -5.395684e-014  4.600000e+001
    endloop
  endfacet
  facet normal  0.000000e+000 -1.000000e+000 -1.082467e-014
    outer loop
      vertex  2.700000e+001 -5.395684e-014  4.600000e+001
      vertex  1.550000e+001 -1.065814e-014  4.200000e+001
      vertex  2.700000e+001 -1.065814e-014  4.200000e+001
    endloop
  endfacet
  facet normal  0.000000e+000 -7.071068e-001 -7.071068e-001
    outer loop
      vertex  1.550000e+001 -1.065814e-014  4.200000e+001
      vertex  1.500000e+001  5.000000e-001  4.150000e+001
      vertex  2.700000e+001 -1.065814e-014  4.200000e+001
    endloop
  endfacet
  facet normal  0.000000e+000 -7.071068e-001 -7.071068e-001
    outer loop
      vertex  2.700000e+001 -1.065814e-014  4.200000e+001
      vertex  1.500000e+001  5.000000e-001  4.150000e+001
      vertex  2.750000e+001  5.000000e-001  4.150000e+001
    endloop
  endfacet
  facet normal  0.000000e+000 -7.071068e-001 -7.071068e-001
    outer loop
      vertex  1.550000e+001  0.000000e+000  5.000000e+000
      vertex  1.500000e+001  5.000000e-001  4.500000e+000
      vertex  2.700000e+001  0.000000e+000  5.000000e+000
    endloop
  endfacet
  facet normal  0.000000e+000 -7.071068e-001 -7.071068e-001
    outer loop
      vertex  2.700000e+001  0.000000e+000  5.000000e+000
      vertex  1.500000e+001  5.000000e-001  4.500000e+000
      vertex  2.750000e+001  5.000000e-001  4.500000e+000
    endloop
  endfacet
  facet normal  0.000000e+000 -1.000000e+000  0.000000e+000
    outer loop
      vertex  1.550000e+001  0.000000e+000  4.000000e+000
      vertex  1.550000e+001  0.000000e+000  2.000000e+000
      vertex  2.700000e+001  0.000000e+000  4.000000e+000
    endloop
  endfacet
  facet normal  0.000000e+000 -1.000000e+000  -0.000000e+000
    outer loop
      vertex  2.700000e+001  0.000000e+000  4.000000e+000
      vertex  1.550000e+001  0.000000e+000  2.000000e+000
      vertex  2.700000e+001  0.000000e+000  2.000000e+000
    endloop
  endfacet
  facet normal -7.071068e-001 -7.071068e-001  0.000000e+000
    outer loop
      vertex  2.800000e+001 -5.395684e-014  4.600000e+001
      vertex  2.750000e+001  5.000000e-001  4.600000e+001
      vertex  2.800000e+001 -1.065814e-014  4.200000e+001
    endloop
  endfacet
  facet normal -7.071067e-001 -7.071067e-001  0.000000e+000
    outer loop
      vertex  2.800000e+001 -1.065814e-014  4.200000e+001
      vertex  2.750000e+001  5.000000e-001  4.600000e+001
      vertex  2.750000e+001  5.000000e-001  4.150000e+001
    endloop
  endfacet
  facet normal -7.071067e-001 -7.071067e-001  0.000000e+000
    outer loop
      vertex  2.800000e+001  3.552714e-015  4.100000e+001
      vertex  2.750000e+001  5.000000e-001  4.150000e+001
      vertex  2.800000e+001  0.000000e+000  5.000000e+000
    endloop
  endfacet
  facet normal -7.071068e-001 -7.071068e-001  0.000000e+000
    outer loop
      vertex  2.800000e+001  0.000000e+000  5.000000e+000
      vertex  2.750000e+001  5.000000e-001  4.150000e+001
      vertex  2.750000e+001  5.000000e-001  4.500000e+000
    endloop
  endfacet
  facet normal -7.071068e-001 -7.071068e-001  0.000000e+000
    outer loop
      vertex  2.800000e+001  0.000000e+000  4.000000e+000
      vertex  2.750000e+001  5.000000e-001  4.500000e+000
      vertex  2.800000e+001  0.000000e+000  2.000000e+000
    endloop
  endfacet
  facet normal -7.071068e-001 -7.071068e-001  0.000000e+000
    outer loop
      vertex  2.800000e+001  0.000000e+000  2.000000e+000
      vertex  2.750000e+001  5.000000e-001  4.500000e+000
      vertex  2.750000e+001  5.000000e-001  2.000000e+000
    endloop
  endfacet
  facet normal  7.071067e-001 -7.071067e-001  0.000000e+000
    outer loop
      vertex  2.750000e+001  5.000000e-001  4.600000e+001
      vertex  2.700000e+001 -5.395684e-014  4.600000e+001
      vertex  2.750000e+001  5.000000e-001  4.150000e+001
    endloop
  endfacet
  facet normal  7.071068e-001 -7.071068e-001  0.000000e+000
    outer loop
      vertex  2.750000e+001  5.000000e-001  4.150000e+001
      vertex  2.700000e+001 -5.395684e-014  4.600000e+001
      vertex  2.700000e+001 -1.065814e-014  4.200000e+001
    endloop
  endfacet
  facet normal  7.071068e-001 -7.071068e-001  0.000000e+000
    outer loop
      vertex  2.750000e+001  5.000000e-001  4.500000e+000
      vertex  2.700000e+001  0.000000e+000  4.000000e+000
      vertex  2.750000e+001  5.000000e-001  2.000000e+000
    endloop
  endfacet
  facet normal  7.071068e-001 -7.071068e-001  0.000000e+000
    outer loop
      vertex  2.750000e+001  5.000000e-001  2.000000e+000
      vertex  2.700000e+001  0.000000e+000  4.000000e+000
      vertex  2.700000e+001  0.000000e+000  2.000000e+000
    endloop
  endfacet
  facet normal  7.071068e-001 -7.071068e-001  0.000000e+000
    outer loop
      vertex  2.750000e+001  5.000000e-001  4.150000e+001
      vertex  2.700000e+001  3.552714e-015  4.100000e+001
      vertex  2.750000e+001  5.000000e-001  4.500000e+000
    endloop
  endfacet
  facet normal  7.071067e-001 -7.071067e-001  0.000000e+000
    outer loop
      vertex  2.750000e+001  5.000000e-001  4.500000e+000
      vertex  2.700000e+001  3.552714e-015  4.100000e+001
      vertex  2.700000e+001  0.000000e+000  5.000000e+000
    endloop
  endfacet
  facet normal  0.000000e+000 -7.071068e-001  7.071068e-001
    outer loop
      vertex  7.540005e+000  5.000000e-001  4.500000e+000
      vertex  8.040005e+000  0.000000e+000  4.000000e+000
      vertex  1.500000e+001  5.000000e-001  4.500000e+000
    endloop
  endfacet
  facet normal  0.000000e+000 -7.071068e-001  7.071068e-001
    outer loop
      vertex  1.500000e+001  5.000000e-001  4.500000e+000
      vertex  8.040005e+000  0.000000e+000  4.000000e+000
      vertex  1.450000e+001  0.000000e+000  4.000000e+000
    endloop
  endfacet
  facet normal  0.000000e+000 -7.071068e-001  7.071068e-001
    outer loop
      vertex  7.540005e+000  5.000000e-001  2.358867e+001
      vertex  8.040005e+000  0.000000e+000  2.308867e+001
      vertex  1.500000e+001  5.000000e-001  2.358867e+001
    endloop
  endfacet
  facet normal  0.000000e+000 -7.071068e-001  7.071068e-001
    outer loop
      vertex  1.500000e+001  5.000000e-001  2.358867e+001
      vertex  8.040005e+000  0.000000e+000  2.308867e+001
      vertex  1.450000e+001  0.000000e+000  2.308867e+001
    endloop
  endfacet
  facet normal  0.000000e+000 -7.071068e-001  7.071068e-001
    outer loop
      vertex  7.540005e+000  5.000000e-001  1.796102e+001
      vertex  8.040005e+000  0.000000e+000  1.746102e+001
      vertex  1.500000e+001  5.000000e-001  1.796102e+001
    endloop
  endfacet
  facet normal  0.000000e+000 -7.071068e-001  7.071068e-001
    outer loop
      vertex  1.500000e+001  5.000000e-001  1.796102e+001
      vertex  8.040005e+000  0.000000e+000  1.746102e+001
      vertex  1.450000e+001  0.000000e+000  1.746102e+001
    endloop
  endfacet
  facet normal  0.000000e+000 -7.071068e-001 -7.071068e-001
    outer loop
      vertex  8.040005e+000  0.000000e+000  1.846102e+001
      vertex  7.540005e+000  5.000000e-001  1.796102e+001
      vertex  1.450000e+001  0.000000e+000  1.846102e+001
    endloop
  endfacet
  facet normal  0.000000e+000 -7.071068e-001 -7.071068e-001
    outer loop
      vertex  1.450000e+001  0.000000e+000  1.846102e+001
      vertex  7.540005e+000  5.000000e-001  1.796102e+001
      vertex  1.500000e+001  5.000000e-001  1.796102e+001
    endloop
  endfacet
  facet normal  0.000000e+000 -7.071068e-001 -7.071068e-001
    outer loop
      vertex  8.040005e+000  0.000000e+000  2.408867e+001
      vertex  7.540005e+000  5.000000e-001  2.358867e+001
      vertex  1.450000e+001  0.000000e+000  2.408867e+001
    endloop
  endfacet
  facet normal  0.000000e+000 -7.071068e-001 -7.071068e-001
    outer loop
      vertex  1.450000e+001  0.000000e+000  2.408867e+001
      vertex  7.540005e+000  5.000000e-001  2.358867e+001
      vertex  1.500000e+001  5.000000e-001  2.358867e+001
    endloop
  endfacet
  facet normal  0.000000e+000 -1.000000e+000  0.000000e+000
    outer loop
      vertex  8.040005e+000  0.000000e+000  4.100000e+001
      vertex  8.040005e+000  0.000000e+000  2.408867e+001
      vertex  1.450000e+001  0.000000e+000  4.100000e+001
    endloop
  endfacet
  facet normal  0.000000e+000 -1.000000e+000  -0.000000e+000
    outer loop
      vertex  1.450000e+001  0.000000e+000  4.100000e+001
      vertex  8.040005e+000  0.000000e+000  2.408867e+001
      vertex  1.450000e+001  0.000000e+000  2.408867e+001
    endloop
  endfacet
  facet normal  0.000000e+000 -9.999999e-001  0.000000e+000
    outer loop
      vertex  8.040005e+000  0.000000e+000  2.308867e+001
      vertex  8.040005e+000  0.000000e+000  1.846102e+001
      vertex  1.450000e+001  0.000000e+000  2.308867e+001
    endloop
  endfacet
  facet normal  0.000000e+000 -9.999999e-001  -0.000000e+000
    outer loop
      vertex  1.450000e+001  0.000000e+000  2.308867e+001
      vertex  8.040005e+000  0.000000e+000  1.846102e+001
      vertex  1.450000e+001  0.000000e+000  1.846102e+001
    endloop
  endfacet
  facet normal  0.000000e+000 -9.999999e-001  0.000000e+000
    outer loop
      vertex  8.040005e+000  0.000000e+000  1.746102e+001
      vertex  8.040005e+000  0.000000e+000  5.000000e+000
      vertex  1.450000e+001  0.000000e+000  1.746102e+001
    endloop
  endfacet
  facet normal  0.000000e+000 -9.999999e-001  -0.000000e+000
    outer loop
      vertex  1.450000e+001  0.000000e+000  1.746102e+001
      vertex  8.040005e+000  0.000000e+000  5.000000e+000
      vertex  1.450000e+001  0.000000e+000  5.000000e+000
    endloop
  endfacet
  facet normal  0.000000e+000 -7.071068e-001  7.071068e-001
    outer loop
      vertex  7.540005e+000  5.000000e-001  4.150000e+001
      vertex  8.040005e+000  0.000000e+000  4.100000e+001
      vertex  1.500000e+001  5.000000e-001  4.150000e+001
    endloop
  endfacet
  facet normal  0.000000e+000 -7.071068e-001  7.071068e-001
    outer loop
      vertex  1.500000e+001  5.000000e-001  4.150000e+001
      vertex  8.040005e+000  0.000000e+000  4.100000e+001
      vertex  1.450000e+001  0.000000e+000  4.100000e+001
    endloop
  endfacet
  facet normal  0.000000e+000 -1.000000e+000 -1.082468e-014
    outer loop
      vertex  8.040005e+000 -5.395684e-014  4.600000e+001
      vertex  8.040005e+000 -1.065814e-014  4.200000e+001
      vertex  1.450000e+001 -5.395684e-014  4.600000e+001
    endloop
  endfacet
  facet normal  0.000000e+000 -1.000000e+000 -1.082468e-014
    outer loop
      vertex  1.450000e+001 -5.395684e-014  4.600000e+001
      vertex  8.040005e+000 -1.065814e-014  4.200000e+001
      vertex  1.450000e+001 -1.065814e-014  4.200000e+001
    endloop
  endfacet
  facet normal  0.000000e+000 -7.071068e-001 -7.071068e-001
    outer loop
      vertex  8.040005e+000 -1.065814e-014  4.200000e+001
      vertex  7.540005e+000  5.000000e-001  4.150000e+001
      vertex  1.450000e+001 -1.065814e-014  4.200000e+001
    endloop
  endfacet
  facet normal  0.000000e+000 -7.071068e-001 -7.071068e-001
    outer loop
      vertex  1.450000e+001 -1.065814e-014  4.200000e+001
      vertex  7.540005e+000  5.000000e-001  4.150000e+001
      vertex  1.500000e+001  5.000000e-001  4.150000e+001
    endloop
  endfacet
  facet normal  0.000000e+000 -7.071068e-001 -7.071068e-001
    outer loop
      vertex  8.040005e+000  0.000000e+000  5.000000e+000
      vertex  7.540005e+000  5.000000e-001  4.500000e+000
      vertex  1.450000e+001  0.000000e+000  5.000000e+000
    endloop
  endfacet
  facet normal  0.000000e+000 -7.071068e-001 -7.071068e-001
    outer loop
      vertex  1.450000e+001  0.000000e+000  5.000000e+000
      vertex  7.540005e+000  5.000000e-001  4.500000e+000
      vertex  1.500000e+001  5.000000e-001  4.500000e+000
    endloop
  endfacet
  facet normal  0.000000e+000 -1.000000e+000  0.000000e+000
    outer loop
      vertex  8.040005e+000  0.000000e+000  4.000000e+000
      vertex  8.040005e+000  0.000000e+000  2.000000e+000
      vertex  1.450000e+001  0.000000e+000  4.000000e+000
    endloop
  endfacet
  facet normal  0.000000e+000 -1.000000e+000  -0.000000e+000
    outer loop
      vertex  1.450000e+001  0.000000e+000  4.000000e+000
      vertex  8.040005e+000  0.000000e+000  2.000000e+000
      vertex  1.450000e+001  0.000000e+000  2.000000e+000
    endloop
  endfacet
  facet normal -7.071068e-001 -7.071068e-001  0.000000e+000
    outer loop
      vertex  1.550000e+001 -5.395684e-014  4.600000e+001
      vertex  1.500000e+001  5.000000e-001  4.600000e+001
      vertex  1.550000e+001 -1.065814e-014  4.200000e+001
    endloop
  endfacet
  facet normal -7.071067e-001 -7.071067e-001  0.000000e+000
    outer loop
      vertex  1.550000e+001 -1.065814e-014  4.200000e+001
      vertex  1.500000e+001  5.000000e-001  4.600000e+001
      vertex  1.500000e+001  5.000000e-001  4.150000e+001
    endloop
  endfacet
  facet normal -7.071068e-001 -7.071068e-001  -0.000000e+000
    outer loop
      vertex  1.550000e+001  0.000000e+000  4.100000e+001
      vertex  1.500000e+001  5.000000e-001  4.150000e+001
      vertex  1.500000e+001  5.000000e-001  2.358867e+001
    endloop
  endfacet
  facet normal -7.071068e-001 -7.071068e-001  -0.000000e+000
    outer loop
      vertex  1.550000e+001  0.000000e+000  4.100000e+001
      vertex  1.500000e+001  5.000000e-001  2.358867e+001
      vertex  1.500000e+001  5.000000e-001  1.796102e+001
    endloop
  endfacet
  facet normal -7.071068e-001 -7.071068e-001  -0.000000e+000
    outer loop
      vertex  1.550000e+001  0.000000e+000  4.100000e+001
      vertex  1.500000e+001  5.000000e-001  1.796102e+001
      vertex  1.500000e+001  5.000000e-001  4.500000e+000
    endloop
  endfacet
  facet normal -7.071067e-001 -7.071067e-001  0.000000e+000
    outer loop
      vertex  1.550000e+001  0.000000e+000  4.100000e+001
      vertex  1.500000e+001  5.000000e-001  4.500000e+000
      vertex  1.550000e+001  0.000000e+000  5.000000e+000
    endloop
  endfacet
  facet normal -7.071068e-001 -7.071068e-001  0.000000e+000
    outer loop
      vertex  1.550000e+001  0.000000e+000  4.000000e+000
      vertex  1.500000e+001  5.000000e-001  4.500000e+000
      vertex  1.550000e+001  0.000000e+000  2.000000e+000
    endloop
  endfacet
  facet normal -7.071068e-001 -7.071068e-001  0.000000e+000
    outer loop
      vertex  1.550000e+001  0.000000e+000  2.000000e+000
      vertex  1.500000e+001  5.000000e-001  4.500000e+000
      vertex  1.500000e+001  5.000000e-001  2.000000e+000
    endloop
  endfacet
  facet normal  7.071068e-001 -7.071068e-001  0.000000e+000
    outer loop
      vertex  1.500000e+001  5.000000e-001  2.358867e+001
      vertex  1.450000e+001  0.000000e+000  2.308867e+001
      vertex  1.500000e+001  5.000000e-001  1.796102e+001
    endloop
  endfacet
  facet normal  7.071068e-001 -7.071068e-001  0.000000e+000
    outer loop
      vertex  1.500000e+001  5.000000e-001  1.796102e+001
      vertex  1.450000e+001  0.000000e+000  2.308867e+001
      vertex  1.450000e+001  0.000000e+000  1.846102e+001
    endloop
  endfacet
  facet normal  7.071067e-001 -7.071067e-001  0.000000e+000
    outer loop
      vertex  1.500000e+001  5.000000e-001  4.600000e+001
      vertex  1.450000e+001 -5.395684e-014  4.600000e+001
      vertex  1.500000e+001  5.000000e-001  4.150000e+001
    endloop
  endfacet
  facet normal  7.071068e-001 -7.071068e-001  0.000000e+000
    outer loop
      vertex  1.500000e+001  5.000000e-001  4.150000e+001
      vertex  1.450000e+001 -5.395684e-014  4.600000e+001
      vertex  1.450000e+001 -1.065814e-014  4.200000e+001
    endloop
  endfacet
  facet normal  7.071068e-001 -7.071068e-001  0.000000e+000
    outer loop
      vertex  1.500000e+001  5.000000e-001  4.150000e+001
      vertex  1.450000e+001  0.000000e+000  4.100000e+001
      vertex  1.500000e+001  5.000000e-001  2.358867e+001
    endloop
  endfacet
  facet normal  7.071068e-001 -7.071068e-001  0.000000e+000
    outer loop
      vertex  1.500000e+001  5.000000e-001  2.358867e+001
      vertex  1.450000e+001  0.000000e+000  4.100000e+001
      vertex  1.450000e+001  0.000000e+000  2.408867e+001
    endloop
  endfacet
  facet normal  7.071068e-001 -7.071068e-001  0.000000e+000
    outer loop
      vertex  1.500000e+001  5.000000e-001  4.500000e+000
      vertex  1.450000e+001  0.000000e+000  4.000000e+000
      vertex  1.500000e+001  5.000000e-001  2.000000e+000
    endloop
  endfacet
  facet normal  7.071068e-001 -7.071068e-001  0.000000e+000
    outer loop
      vertex  1.500000e+001  5.000000e-001  2.000000e+000
      vertex  1.450000e+001  0.000000e+000  4.000000e+000
      vertex  1.450000e+001  0.000000e+000  2.000000e+000
    endloop
  endfacet
  facet normal  7.071068e-001 -7.071068e-001  0.000000e+000
    outer loop
      vertex  1.500000e+001  5.000000e-001  1.796102e+001
      vertex  1.450000e+001  0.000000e+000  1.746102e+001
      vertex  1.500000e+001  5.000000e-001  4.500000e+000
    endloop
  endfacet
  facet normal  7.071068e-001 -7.071068e-001  0.000000e+000
    outer loop
      vertex  1.500000e+001  5.000000e-001  4.500000e+000
      vertex  1.450000e+001  0.000000e+000  1.746102e+001
      vertex  1.450000e+001  0.000000e+000  5.000000e+000
    endloop
  endfacet
  facet normal  0.000000e+000 -7.071068e-001  7.071068e-001
    outer loop
      vertex  0.000000e+000  5.000000e-001  4.500000e+000
      vertex  0.000000e+000  0.000000e+000  4.000000e+000
      vertex  7.540005e+000  5.000000e-001  4.500000e+000
    endloop
  endfacet
  facet normal  0.000000e+000 -7.071068e-001  7.071068e-001
    outer loop
      vertex  7.540005e+000  5.000000e-001  4.500000e+000
      vertex  0.000000e+000  0.000000e+000  4.000000e+000
      vertex  7.040005e+000  0.000000e+000  4.000000e+000
    endloop
  endfacet
  facet normal  0.000000e+000 -1.000000e+000  0.000000e+000
    outer loop
      vertex  0.000000e+000  0.000000e+000  4.000000e+000
      vertex  0.000000e+000  0.000000e+000  2.000000e+000
      vertex  7.040005e+000  0.000000e+000  4.000000e+000
    endloop
  endfacet
  facet normal  0.000000e+000 -1.000000e+000  -0.000000e+000
    outer loop
      vertex  7.040005e+000  0.000000e+000  4.000000e+000
      vertex  0.000000e+000  0.000000e+000  2.000000e+000
      vertex  7.040005e+000  0.000000e+000  2.000000e+000
    endloop
  endfacet
  facet normal -9.462121e-017 -1.000000e+000 -1.065814e-014
    outer loop
      vertex  0.000000e+000 -5.329071e-014  4.600000e+001
      vertex  0.000000e+000 -1.065814e-014  4.200000e+001
      vertex  7.040005e+000 -5.395684e-014  4.600000e+001
    endloop
  endfacet
  facet normal  0.000000e+000 -1.000000e+000 -1.082467e-014
    outer loop
      vertex  7.040005e+000 -5.395684e-014  4.600000e+001
      vertex  0.000000e+000 -1.065814e-014  4.200000e+001
      vertex  7.040005e+000 -1.065814e-014  4.200000e+001
    endloop
  endfacet
  facet normal  0.000000e+000 -7.071068e-001 -7.071068e-001
    outer loop
      vertex  0.000000e+000 -1.065814e-014  4.200000e+001
      vertex  0.000000e+000  5.000000e-001  4.150000e+001
      vertex  7.040005e+000 -1.065814e-014  4.200000e+001
    endloop
  endfacet
  facet normal  0.000000e+000 -7.071068e-001 -7.071068e-001
    outer loop
      vertex  7.040005e+000 -1.065814e-014  4.200000e+001
      vertex  0.000000e+000  5.000000e-001  4.150000e+001
      vertex  7.540005e+000  5.000000e-001  4.150000e+001
    endloop
  endfacet
  facet normal  0.000000e+000 -7.071068e-001  7.071068e-001
    outer loop
      vertex  0.000000e+000  5.000000e-001  4.150000e+001
      vertex  0.000000e+000  7.105427e-015  4.100000e+001
      vertex  7.540005e+000  5.000000e-001  4.150000e+001
    endloop
  endfacet
  facet normal  0.000000e+000 -7.071068e-001  7.071068e-001
    outer loop
      vertex  7.540005e+000  5.000000e-001  4.150000e+001
      vertex  0.000000e+000  7.105427e-015  4.100000e+001
      vertex  7.040005e+000  0.000000e+000  4.100000e+001
    endloop
  endfacet
  facet normal  0.000000e+000 -7.071068e-001 -7.071068e-001
    outer loop
      vertex  0.000000e+000  0.000000e+000  5.000000e+000
      vertex  0.000000e+000  5.000000e-001  4.500000e+000
      vertex  7.040005e+000  0.000000e+000  5.000000e+000
    endloop
  endfacet
  facet normal  0.000000e+000 -7.071068e-001 -7.071068e-001
    outer loop
      vertex  7.040005e+000  0.000000e+000  5.000000e+000
      vertex  0.000000e+000  5.000000e-001  4.500000e+000
      vertex  7.540005e+000  5.000000e-001  4.500000e+000
    endloop
  endfacet
  facet normal  0.000000e+000 -1.000000e+000  0.000000e+000
    outer loop
      vertex  0.000000e+000  0.000000e+000  1.746102e+001
      vertex  0.000000e+000  0.000000e+000  5.000000e+000
      vertex  7.040005e+000  0.000000e+000  1.746102e+001
    endloop
  endfacet
  facet normal  0.000000e+000 -1.000000e+000  -0.000000e+000
    outer loop
      vertex  7.040005e+000  0.000000e+000  1.746102e+001
      vertex  0.000000e+000  0.000000e+000  5.000000e+000
      vertex  7.040005e+000  0.000000e+000  5.000000e+000
    endloop
  endfacet
  facet normal -1.009293e-015 -1.000000e+000 -2.100789e-016
    outer loop
      vertex  0.000000e+000  7.105427e-015  4.100000e+001
      vertex  0.000000e+000  1.065814e-014  2.408867e+001
      vertex  7.040005e+000  0.000000e+000  4.100000e+001
    endloop
  endfacet
  facet normal -1.513939e-015 -1.000000e+000  -0.000000e+000
    outer loop
      vertex  7.040005e+000  0.000000e+000  4.100000e+001
      vertex  0.000000e+000  1.065814e-014  2.408867e+001
      vertex  7.040005e+000  0.000000e+000  2.408867e+001
    endloop
  endfacet
  facet normal  0.000000e+000 -1.000000e+000  0.000000e+000
    outer loop
      vertex  0.000000e+000  0.000000e+000  2.308867e+001
      vertex  0.000000e+000  0.000000e+000  1.846102e+001
      vertex  7.040005e+000  0.000000e+000  2.308867e+001
    endloop
  endfacet
  facet normal  0.000000e+000 -1.000000e+000  -0.000000e+000
    outer loop
      vertex  7.040005e+000  0.000000e+000  2.308867e+001
      vertex  0.000000e+000  0.000000e+000  1.846102e+001
      vertex  7.040005e+000  0.000000e+000  1.846102e+001
    endloop
  endfacet
  facet normal  0.000000e+000 -7.071068e-001 -7.071068e-001
    outer loop
      vertex  0.000000e+000  1.065814e-014  2.408867e+001
      vertex  0.000000e+000  5.000000e-001  2.358867e+001
      vertex  7.040005e+000  0.000000e+000  2.408867e+001
    endloop
  endfacet
  facet normal  0.000000e+000 -7.071068e-001 -7.071068e-001
    outer loop
      vertex  7.040005e+000  0.000000e+000  2.408867e+001
      vertex  0.000000e+000  5.000000e-001  2.358867e+001
      vertex  7.540005e+000  5.000000e-001  2.358867e+001
    endloop
  endfacet
  facet normal  0.000000e+000 -7.071068e-001  7.071068e-001
    outer loop
      vertex  0.000000e+000  5.000000e-001  2.358867e+001
      vertex  0.000000e+000  0.000000e+000  2.308867e+001
      vertex  7.540005e+000  5.000000e-001  2.358867e+001
    endloop
  endfacet
  facet normal  0.000000e+000 -7.071068e-001  7.071068e-001
    outer loop
      vertex  7.540005e+000  5.000000e-001  2.358867e+001
      vertex  0.000000e+000  0.000000e+000  2.308867e+001
      vertex  7.040005e+000  0.000000e+000  2.308867e+001
    endloop
  endfacet
  facet normal  0.000000e+000 -7.071068e-001 -7.071068e-001
    outer loop
      vertex  0.000000e+000  0.000000e+000  1.846102e+001
      vertex  0.000000e+000  5.000000e-001  1.796102e+001
      vertex  7.040005e+000  0.000000e+000  1.846102e+001
    endloop
  endfacet
  facet normal  0.000000e+000 -7.071068e-001 -7.071068e-001
    outer loop
      vertex  7.040005e+000  0.000000e+000  1.846102e+001
      vertex  0.000000e+000  5.000000e-001  1.796102e+001
      vertex  7.540005e+000  5.000000e-001  1.796102e+001
    endloop
  endfacet
  facet normal  0.000000e+000 -7.071068e-001  7.071068e-001
    outer loop
      vertex  0.000000e+000  5.000000e-001  1.796102e+001
      vertex  0.000000e+000  0.000000e+000  1.746102e+001
      vertex  7.540005e+000  5.000000e-001  1.796102e+001
    endloop
  endfacet
  facet normal  0.000000e+000 -7.071068e-001  7.071068e-001
    outer loop
      vertex  7.540005e+000  5.000000e-001  1.796102e+001
      vertex  0.000000e+000  0.000000e+000  1.746102e+001
      vertex  7.040005e+000  0.000000e+000  1.746102e+001
    endloop
  endfacet
  facet normal -7.071071e-001 -7.071065e-001  0.000000e+000
    outer loop
      vertex  8.040005e+000  0.000000e+000  4.100000e+001
      vertex  7.540005e+000  5.000000e-001  4.150000e+001
      vertex  8.040005e+000  0.000000e+000  2.408867e+001
    endloop
  endfacet
  facet normal -7.071071e-001 -7.071064e-001  0.000000e+000
    outer loop
      vertex  8.040005e+000  0.000000e+000  2.408867e+001
      vertex  7.540005e+000  5.000000e-001  4.150000e+001
      vertex  7.540005e+000  5.000000e-001  2.358867e+001
    endloop
  endfacet
  facet normal -7.071071e-001 -7.071064e-001  0.000000e+000
    outer loop
      vertex  8.040005e+000 -5.395684e-014  4.600000e+001
      vertex  7.540005e+000  5.000000e-001  4.600000e+001
      vertex  8.040005e+000 -1.065814e-014  4.200000e+001
    endloop
  endfacet
  facet normal -7.071071e-001 -7.071065e-001  0.000000e+000
    outer loop
      vertex  8.040005e+000 -1.065814e-014  4.200000e+001
      vertex  7.540005e+000  5.000000e-001  4.600000e+001
      vertex  7.540005e+000  5.000000e-001  4.150000e+001
    endloop
  endfacet
  facet normal -7.071071e-001 -7.071064e-001  0.000000e+000
    outer loop
      vertex  8.040005e+000  0.000000e+000  2.308867e+001
      vertex  7.540005e+000  5.000000e-001  2.358867e+001
      vertex  8.040005e+000  0.000000e+000  1.846102e+001
    endloop
  endfacet
  facet normal -7.071071e-001 -7.071065e-001  0.000000e+000
    outer loop
      vertex  8.040005e+000  0.000000e+000  1.846102e+001
      vertex  7.540005e+000  5.000000e-001  2.358867e+001
      vertex  7.540005e+000  5.000000e-001  1.796102e+001
    endloop
  endfacet
  facet normal -7.071071e-001 -7.071064e-001  0.000000e+000
    outer loop
      vertex  8.040005e+000  0.000000e+000  1.746102e+001
      vertex  7.540005e+000  5.000000e-001  1.796102e+001
      vertex  8.040005e+000  0.000000e+000  5.000000e+000
    endloop
  endfacet
  facet normal -7.071071e-001 -7.071065e-001  0.000000e+000
    outer loop
      vertex  8.040005e+000  0.000000e+000  5.000000e+000
      vertex  7.540005e+000  5.000000e-001  1.796102e+001
      vertex  7.540005e+000  5.000000e-001  4.500000e+000
    endloop
  endfacet
  facet normal -7.071071e-001 -7.071064e-001  0.000000e+000
    outer loop
      vertex  8.040005e+000  0.000000e+000  4.000000e+000
      vertex  7.540005e+000  5.000000e-001  4.500000e+000
      vertex  8.040005e+000  0.000000e+000  2.000000e+000
    endloop
  endfacet
  facet normal -7.071071e-001 -7.071064e-001  0.000000e+000
    outer loop
      vertex  8.040005e+000  0.000000e+000  2.000000e+000
      vertex  7.540005e+000  5.000000e-001  4.500000e+000
      vertex  7.540005e+000  5.000000e-001  2.000000e+000
    endloop
  endfacet
  facet normal  7.071067e-001 -7.071067e-001  0.000000e+000
    outer loop
      vertex  7.540005e+000  5.000000e-001  4.600000e+001
      vertex  7.040005e+000 -5.395684e-014  4.600000e+001
      vertex  7.540005e+000  5.000000e-001  4.150000e+001
    endloop
  endfacet
  facet normal  7.071068e-001 -7.071068e-001  0.000000e+000
    outer loop
      vertex  7.540005e+000  5.000000e-001  4.150000e+001
      vertex  7.040005e+000 -5.395684e-014  4.600000e+001
      vertex  7.040005e+000 -1.065814e-014  4.200000e+001
    endloop
  endfacet
  facet normal  7.071068e-001 -7.071068e-001  0.000000e+000
    outer loop
      vertex  7.540005e+000  5.000000e-001  4.150000e+001
      vertex  7.040005e+000  0.000000e+000  4.100000e+001
      vertex  7.540005e+000  5.000000e-001  2.358867e+001
    endloop
  endfacet
  facet normal  7.071068e-001 -7.071068e-001  0.000000e+000
    outer loop
      vertex  7.540005e+000  5.000000e-001  2.358867e+001
      vertex  7.040005e+000  0.000000e+000  4.100000e+001
      vertex  7.040005e+000  0.000000e+000  2.408867e+001
    endloop
  endfacet
  facet normal  7.071068e-001 -7.071068e-001  0.000000e+000
    outer loop
      vertex  7.540005e+000  5.000000e-001  2.358867e+001
      vertex  7.040005e+000  0.000000e+000  2.308867e+001
      vertex  7.540005e+000  5.000000e-001  1.796102e+001
    endloop
  endfacet
  facet normal  7.071068e-001 -7.071068e-001  0.000000e+000
    outer loop
      vertex  7.540005e+000  5.000000e-001  1.796102e+001
      vertex  7.040005e+000  0.000000e+000  2.308867e+001
      vertex  7.040005e+000  0.000000e+000  1.846102e+001
    endloop
  endfacet
  facet normal  7.071068e-001 -7.071068e-001  0.000000e+000
    outer loop
      vertex  7.540005e+000  5.000000e-001  4.500000e+000
      vertex  7.040005e+000  0.000000e+000  4.000000e+000
      vertex  7.540005e+000  5.000000e-001  2.000000e+000
    endloop
  endfacet
  facet normal  7.071068e-001 -7.071068e-001  0.000000e+000
    outer loop
      vertex  7.540005e+000  5.000000e-001  2.000000e+000
      vertex  7.040005e+000  0.000000e+000  4.000000e+000
      vertex  7.040005e+000  0.000000e+000  2.000000e+000
    endloop
  endfacet
  facet normal  7.071068e-001 -7.071068e-001  0.000000e+000
    outer loop
      vertex  7.540005e+000  5.000000e-001  1.796102e+001
      vertex  7.040005e+000  0.000000e+000  1.746102e+001
      vertex  7.540005e+000  5.000000e-001  4.500000e+000
    endloop
  endfacet
  facet normal  7.071068e-001 -7.071068e-001  0.000000e+000
    outer loop
      vertex  7.540005e+000  5.000000e-001  4.500000e+000
      vertex  7.040005e+000  0.000000e+000  1.746102e+001
      vertex  7.040005e+000  0.000000e+000  5.000000e+000
    endloop
  endfacet
  facet normal -1.000000e+000  0.000000e+000  0.000000e+000
    outer loop
      vertex  0.000000e+000  1.900000e+001  4.800000e+001
      vertex  0.000000e+000  1.000000e+000  4.600000e+001
      vertex  0.000000e+000  1.000000e+000  4.800000e+001
    endloop
  endfacet
  facet normal -1.000000e+000  0.000000e+000  0.000000e+000
    outer loop
      vertex  0.000000e+000  0.000000e+000  1.746102e+001
      vertex  0.000000e+000  5.000000e-001  4.500000e+000
      vertex  0.000000e+000  0.000000e+000  5.000000e+000
    endloop
  endfacet
  facet normal -1.000000e+000  0.000000e+000  0.000000e+000
    outer loop
      vertex  0.000000e+000  5.000000e-001  2.358867e+001
      vertex  0.000000e+000  1.065814e-014  2.408867e+001
      vertex  0.000000e+000  7.105427e-015  4.100000e+001
    endloop
  endfacet
  facet normal -1.000000e+000  0.000000e+000  0.000000e+000
    outer loop
      vertex  0.000000e+000  5.000000e-001  2.358867e+001
      vertex  0.000000e+000  7.105427e-015  4.100000e+001
      vertex  0.000000e+000  5.000000e-001  4.150000e+001
    endloop
  endfacet
  facet normal -1.000000e+000  0.000000e+000  0.000000e+000
    outer loop
      vertex  0.000000e+000  5.000000e-001  2.358867e+001
      vertex  0.000000e+000  5.000000e-001  4.150000e+001
      vertex  0.000000e+000  1.000000e+000  2.000000e+000
    endloop
  endfacet
  facet normal -1.000000e+000  0.000000e+000  0.000000e+000
    outer loop
      vertex  0.000000e+000  5.000000e-001  2.358867e+001
      vertex  0.000000e+000  1.000000e+000  2.000000e+000
      vertex  0.000000e+000  5.000000e-001  1.796102e+001
    endloop
  endfacet
  facet normal -1.000000e+000  0.000000e+000  0.000000e+000
    outer loop
      vertex  0.000000e+000  5.000000e-001  2.358867e+001
      vertex  0.000000e+000  5.000000e-001  1.796102e+001
      vertex  0.000000e+000  0.000000e+000  1.846102e+001
    endloop
  endfacet
  facet normal -1.000000e+000  0.000000e+000  0.000000e+000
    outer loop
      vertex  0.000000e+000  5.000000e-001  2.358867e+001
      vertex  0.000000e+000  0.000000e+000  1.846102e+001
      vertex  0.000000e+000  0.000000e+000  2.308867e+001
    endloop
  endfacet
  facet normal -1.000000e+000  0.000000e+000  -0.000000e+000
    outer loop
      vertex  0.000000e+000  0.000000e+000  1.746102e+001
      vertex  0.000000e+000  5.000000e-001  1.796102e+001
      vertex  0.000000e+000  5.000000e-001  4.500000e+000
    endloop
  endfacet
  facet normal -1.000000e+000  0.000000e+000  0.000000e+000
    outer loop
      vertex  0.000000e+000  5.000000e-001  4.500000e+000
      vertex  0.000000e+000  5.000000e-001  1.796102e+001
      vertex  0.000000e+000  1.000000e+000  2.000000e+000
    endloop
  endfacet
  facet normal -1.000000e+000  0.000000e+000  0.000000e+000
    outer loop
      vertex  0.000000e+000  5.000000e-001  4.500000e+000
      vertex  0.000000e+000  1.000000e+000  2.000000e+000
      vertex  0.000000e+000  0.000000e+000  4.000000e+000
    endloop
  endfacet
  facet normal -1.000000e+000  0.000000e+000  0.000000e+000
    outer loop
      vertex  0.000000e+000  0.000000e+000  4.000000e+000
      vertex  0.000000e+000  1.000000e+000  2.000000e+000
      vertex  0.000000e+000  0.000000e+000  2.000000e+000
    endloop
  endfacet
  facet normal -1.000000e+000  0.000000e+000  0.000000e+000
    outer loop
      vertex  0.000000e+000  1.900000e+001  0.000000e+000
      vertex  0.000000e+000  1.000000e+000  0.000000e+000
      vertex  0.000000e+000  1.900000e+001  4.800000e+001
    endloop
  endfacet
  facet normal -1.000000e+000  0.000000e+000  0.000000e+000
    outer loop
      vertex  0.000000e+000  1.900000e+001  4.800000e+001
      vertex  0.000000e+000  1.000000e+000  0.000000e+000
      vertex  0.000000e+000  1.000000e+000  2.000000e+000
    endloop
  endfacet
  facet normal -1.000000e+000  0.000000e+000  0.000000e+000
    outer loop
      vertex  0.000000e+000  1.900000e+001  4.800000e+001
      vertex  0.000000e+000  1.000000e+000  2.000000e+000
      vertex  0.000000e+000  1.000000e+000  4.600000e+001
    endloop
  endfacet
  facet normal -1.000000e+000  0.000000e+000  -0.000000e+000
    outer loop
      vertex  0.000000e+000  1.000000e+000  4.600000e+001
      vertex  0.000000e+000  1.000000e+000  2.000000e+000
      vertex  0.000000e+000  5.000000e-001  4.150000e+001
    endloop
  endfacet
  facet normal -1.000000e+000  0.000000e+000  0.000000e+000
    outer loop
      vertex  0.000000e+000  1.000000e+000  4.600000e+001
      vertex  0.000000e+000  5.000000e-001  4.150000e+001
      vertex  0.000000e+000 -5.329071e-014  4.600000e+001
    endloop
  endfacet
  facet normal -1.000000e+000  0.000000e+000  0.000000e+000
    outer loop
      vertex  0.000000e+000 -5.329071e-014  4.600000e+001
      vertex  0.000000e+000  5.000000e-001  4.150000e+001
      vertex  0.000000e+000 -1.065814e-014  4.200000e+001
    endloop
  endfacet
  facet normal  1.000000e+000  0.000000e+000  0.000000e+000
    outer loop
      vertex  5.300000e+001  1.000000e+000  4.600000e+001
      vertex  5.300000e+001  1.900000e+001  4.800000e+001
      vertex  5.300000e+001  1.000000e+000  4.800000e+001
    endloop
  endfacet
  facet normal  1.000000e+000  0.000000e+000  0.000000e+000
    outer loop
      vertex  5.300000e+001  5.000000e-001  4.500000e+000
      vertex  5.300000e+001  3.552714e-015  4.100000e+001
      vertex  5.300000e+001  0.000000e+000  5.000000e+000
    endloop
  endfacet
  facet normal  1.000000e+000  0.000000e+000  -0.000000e+000
    outer loop
      vertex  5.300000e+001 -5.395684e-014  4.600000e+001
      vertex  5.300000e+001 -1.065814e-014  4.200000e+001
      vertex  5.300000e+001  1.000000e+000  4.600000e+001
    endloop
  endfacet
  facet normal  1.000000e+000  0.000000e+000  0.000000e+000
    outer loop
      vertex  5.300000e+001  1.000000e+000  4.600000e+001
      vertex  5.300000e+001 -1.065814e-014  4.200000e+001
      vertex  5.300000e+001  5.000000e-001  4.150000e+001
    endloop
  endfacet
  facet normal  1.000000e+000  0.000000e+000  0.000000e+000
    outer loop
      vertex  5.300000e+001  1.000000e+000  4.600000e+001
      vertex  5.300000e+001  5.000000e-001  4.150000e+001
      vertex  5.300000e+001  1.900000e+001  4.800000e+001
    endloop
  endfacet
  facet normal  1.000000e+000  0.000000e+000  0.000000e+000
    outer loop
      vertex  5.300000e+001  1.900000e+001  4.800000e+001
      vertex  5.300000e+001  5.000000e-001  4.150000e+001
      vertex  5.300000e+001  1.000000e+000  2.000000e+000
    endloop
  endfacet
  facet normal  1.000000e+000  -0.000000e+000  0.000000e+000
    outer loop
      vertex  5.300000e+001  1.900000e+001  4.800000e+001
      vertex  5.300000e+001  1.000000e+000  2.000000e+000
      vertex  5.300000e+001  1.900000e+001  0.000000e+000
    endloop
  endfacet
  facet normal  1.000000e+000  0.000000e+000  0.000000e+000
    outer loop
      vertex  5.300000e+001  1.900000e+001  0.000000e+000
      vertex  5.300000e+001  1.000000e+000  2.000000e+000
      vertex  5.300000e+001  1.000000e+000  0.000000e+000
    endloop
  endfacet
  facet normal  1.000000e+000  -0.000000e+000  0.000000e+000
    outer loop
      vertex  5.300000e+001  5.000000e-001  4.150000e+001
      vertex  5.300000e+001  3.552714e-015  4.100000e+001
      vertex  5.300000e+001  1.000000e+000  2.000000e+000
    endloop
  endfacet
  facet normal  1.000000e+000  0.000000e+000  0.000000e+000
    outer loop
      vertex  5.300000e+001  1.000000e+000  2.000000e+000
      vertex  5.300000e+001  3.552714e-015  4.100000e+001
      vertex  5.300000e+001  5.000000e-001  4.500000e+000
    endloop
  endfacet
  facet normal  1.000000e+000  0.000000e+000  0.000000e+000
    outer loop
      vertex  5.300000e+001  1.000000e+000  2.000000e+000
      vertex  5.300000e+001  5.000000e-001  4.500000e+000
      vertex  5.300000e+001  0.000000e+000  2.000000e+000
    endloop
  endfacet
  facet normal  1.000000e+000  0.000000e+000  0.000000e+000
    outer loop
      vertex  5.300000e+001  0.000000e+000  2.000000e+000
      vertex  5.300000e+001  5.000000e-001  4.500000e+000
      vertex  5.300000e+001  0.000000e+000  4.000000e+000
    endloop
  endfacet
  facet normal  0.000000e+000  0.000000e+000 -9.999999e-001
    outer loop
      vertex  0.000000e+000  1.000000e+000  0.000000e+000
      vertex  0.000000e+000  1.900000e+001  0.000000e+000
      vertex  5.300000e+001  1.000000e+000  0.000000e+000
    endloop
  endfacet
  facet normal  0.000000e+000  0.000000e+000 -9.999999e-001
    outer loop
      vertex  5.300000e+001  1.000000e+000  0.000000e+000
      vertex  0.000000e+000  1.900000e+001  0.000000e+000
      vertex  5.300000e+001  1.900000e+001  0.000000e+000
    endloop
  endfacet
  facet normal  0.000000e+000 -1.000000e+000  0.000000e+000
    outer loop
      vertex  0.000000e+000  1.000000e+000  0.000000e+000
      vertex  5.300000e+001  1.000000e+000  0.000000e+000
      vertex  0.000000e+000  1.000000e+000  2.000000e+000
    endloop
  endfacet
  facet normal  0.000000e+000 -1.000000e+000  0.000000e+000
    outer loop
      vertex  0.000000e+000  1.000000e+000  2.000000e+000
      vertex  5.300000e+001  1.000000e+000  0.000000e+000
      vertex  5.300000e+001  1.000000e+000  2.000000e+000
    endloop
  endfacet
  facet normal  0.000000e+000  0.000000e+000  9.999999e-001
    outer loop
      vertex  0.000000e+000  1.000000e+000  4.800000e+001
      vertex  5.300000e+001  1.000000e+000  4.800000e+001
      vertex  0.000000e+000  1.900000e+001  4.800000e+001
    endloop
  endfacet
  facet normal  -0.000000e+000  0.000000e+000  9.999999e-001
    outer loop
      vertex  0.000000e+000  1.900000e+001  4.800000e+001
      vertex  5.300000e+001  1.000000e+000  4.800000e+001
      vertex  5.300000e+001  1.900000e+001  4.800000e+001
    endloop
  endfacet
  facet normal  0.000000e+000 -1.000000e+000  0.000000e+000
    outer loop
      vertex  0.000000e+000  1.000000e+000  4.600000e+001
      vertex  5.300000e+001  1.000000e+000  4.600000e+001
      vertex  0.000000e+000  1.000000e+000  4.800000e+001
    endloop
  endfacet
  facet normal  0.000000e+000 -1.000000e+000  0.000000e+000
    outer loop
      vertex  0.000000e+000  1.000000e+000  4.800000e+001
      vertex  5.300000e+001  1.000000e+000  4.600000e+001
      vertex  5.300000e+001  1.000000e+000  4.800000e+001
    endloop
  endfacet
  facet normal  0.000000e+000  9.999999e-001  -0.000000e+000
    outer loop
      vertex  5.300000e+001  1.900000e+001  4.800000e+001
      vertex  5.300000e+001  1.900000e+001  0.000000e+000
      vertex  0.000000e+000  1.900000e+001  4.800000e+001
    endloop
  endfacet
  facet normal  0.000000e+000  9.999999e-001  0.000000e+000
    outer loop
      vertex  0.000000e+000  1.900000e+001  4.800000e+001
      vertex  5.300000e+001  1.900000e+001  0.000000e+000
      vertex  0.000000e+000  1.900000e+001  0.000000e+000
    endloop
  endfacet
endsolid CATIA STL
