solid CATIA STL
  facet normal  0.000000e+000 -1.000000e+000  0.000000e+000
    outer loop
      vertex  0.000000e+000  0.000000e+000  0.000000e+000
      vertex  1.050000e+001  0.000000e+000  0.000000e+000
      vertex  1.019519e+001  0.000000e+000  1.856751e+001
    endloop
  endfacet
  facet normal  -0.000000e+000 -9.999999e-001  0.000000e+000
    outer loop
      vertex  0.000000e+000  0.000000e+000  0.000000e+000
      vertex  1.019519e+001  0.000000e+000  1.856751e+001
      vertex  9.611250e+000  0.000000e+000  1.856751e+001
    endloop
  endfacet
  facet normal  -0.000000e+000 -1.000000e+000  0.000000e+000
    outer loop
      vertex  0.000000e+000  0.000000e+000  0.000000e+000
      vertex  9.611250e+000  0.000000e+000  1.856751e+001
      vertex  9.611250e+000  0.000000e+000  2.089441e+001
    endloop
  endfacet
  facet normal  -0.000000e+000 -1.000000e+000  0.000000e+000
    outer loop
      vertex  0.000000e+000  0.000000e+000  0.000000e+000
      vertex  9.611250e+000  0.000000e+000  2.089441e+001
      vertex  0.000000e+000  0.000000e+000  3.700000e+001
    endloop
  endfacet
  facet normal  0.000000e+000 -1.000000e+000  0.000000e+000
    outer loop
      vertex  1.019519e+001  0.000000e+000  1.856751e+001
      vertex  1.050000e+001  0.000000e+000  0.000000e+000
      vertex  1.019519e+001  0.000000e+000  2.089441e+001
    endloop
  endfacet
  facet normal  0.000000e+000 -1.000000e+000  0.000000e+000
    outer loop
      vertex  1.019519e+001  0.000000e+000  2.089441e+001
      vertex  1.050000e+001  0.000000e+000  0.000000e+000
      vertex  1.050000e+001  0.000000e+000  3.700000e+001
    endloop
  endfacet
  facet normal  0.000000e+000 -9.999999e-001  0.000000e+000
    outer loop
      vertex  1.019519e+001  0.000000e+000  2.089441e+001
      vertex  1.050000e+001  0.000000e+000  3.700000e+001
      vertex  9.611250e+000  0.000000e+000  2.089441e+001
    endloop
  endfacet
  facet normal  0.000000e+000 -1.000000e+000  0.000000e+000
    outer loop
      vertex  9.611250e+000  0.000000e+000  2.089441e+001
      vertex  1.050000e+001  0.000000e+000  3.700000e+001
      vertex  0.000000e+000  0.000000e+000  3.700000e+001
    endloop
  endfacet
  facet normal  0.000000e+000 -1.000000e+000  0.000000e+000
    outer loop
      vertex  1.150000e+001  0.000000e+000  0.000000e+000
      vertex  2.270000e+001  0.000000e+000  0.000000e+000
      vertex  1.246076e+001  0.000000e+000  1.856751e+001
    endloop
  endfacet
  facet normal  -0.000000e+000 -1.000000e+000  0.000000e+000
    outer loop
      vertex  1.150000e+001  0.000000e+000  0.000000e+000
      vertex  1.246076e+001  0.000000e+000  1.856751e+001
      vertex  1.185733e+001  0.000000e+000  1.856751e+001
    endloop
  endfacet
  facet normal  -0.000000e+000 -9.999999e-001  0.000000e+000
    outer loop
      vertex  1.150000e+001  0.000000e+000  0.000000e+000
      vertex  1.185733e+001  0.000000e+000  1.856751e+001
      vertex  1.185733e+001  0.000000e+000  2.089441e+001
    endloop
  endfacet
  facet normal  -0.000000e+000 -1.000000e+000  0.000000e+000
    outer loop
      vertex  1.150000e+001  0.000000e+000  0.000000e+000
      vertex  1.185733e+001  0.000000e+000  2.089441e+001
      vertex  1.150000e+001  0.000000e+000  3.700000e+001
    endloop
  endfacet
  facet normal  0.000000e+000 -1.000000e+000  0.000000e+000
    outer loop
      vertex  1.246076e+001  0.000000e+000  1.856751e+001
      vertex  2.270000e+001  0.000000e+000  0.000000e+000
      vertex  1.246076e+001  0.000000e+000  2.089441e+001
    endloop
  endfacet
  facet normal  0.000000e+000 -1.000000e+000  0.000000e+000
    outer loop
      vertex  1.246076e+001  0.000000e+000  2.089441e+001
      vertex  2.270000e+001  0.000000e+000  0.000000e+000
      vertex  2.270000e+001  0.000000e+000  3.700000e+001
    endloop
  endfacet
  facet normal  0.000000e+000 -1.000000e+000  0.000000e+000
    outer loop
      vertex  1.246076e+001  0.000000e+000  2.089441e+001
      vertex  2.270000e+001  0.000000e+000  3.700000e+001
      vertex  1.185733e+001  0.000000e+000  2.089441e+001
    endloop
  endfacet
  facet normal  0.000000e+000 -1.000000e+000  0.000000e+000
    outer loop
      vertex  1.185733e+001  0.000000e+000  2.089441e+001
      vertex  2.270000e+001  0.000000e+000  3.700000e+001
      vertex  1.150000e+001  0.000000e+000  3.700000e+001
    endloop
  endfacet
  facet normal  1.000000e+000  0.000000e+000  0.000000e+000
    outer loop
      vertex  1.019519e+001 -1.000000e+000  2.089441e+001
      vertex  1.019519e+001 -1.000000e+000  1.856751e+001
      vertex  1.019519e+001  0.000000e+000  2.089441e+001
    endloop
  endfacet
  facet normal  1.000000e+000  0.000000e+000  0.000000e+000
    outer loop
      vertex  1.019519e+001  0.000000e+000  2.089441e+001
      vertex  1.019519e+001 -1.000000e+000  1.856751e+001
      vertex  1.019519e+001  0.000000e+000  1.856751e+001
    endloop
  endfacet
  facet normal  0.000000e+000  0.000000e+000 -1.000000e+000
    outer loop
      vertex  1.019519e+001 -1.000000e+000  1.856751e+001
      vertex  9.611250e+000 -1.000000e+000  1.856751e+001
      vertex  1.019519e+001  0.000000e+000  1.856751e+001
    endloop
  endfacet
  facet normal  -0.000000e+000  0.000000e+000 -1.000000e+000
    outer loop
      vertex  1.019519e+001  0.000000e+000  1.856751e+001
      vertex  9.611250e+000 -1.000000e+000  1.856751e+001
      vertex  9.611250e+000  0.000000e+000  1.856751e+001
    endloop
  endfacet
  facet normal -1.000000e+000  0.000000e+000  0.000000e+000
    outer loop
      vertex  9.611250e+000 -1.000000e+000  1.856751e+001
      vertex  9.611250e+000 -1.000000e+000  2.089441e+001
      vertex  9.611250e+000  0.000000e+000  1.856751e+001
    endloop
  endfacet
  facet normal -1.000000e+000  0.000000e+000  0.000000e+000
    outer loop
      vertex  9.611250e+000  0.000000e+000  1.856751e+001
      vertex  9.611250e+000 -1.000000e+000  2.089441e+001
      vertex  9.611250e+000  0.000000e+000  2.089441e+001
    endloop
  endfacet
  facet normal  0.000000e+000  0.000000e+000  1.000000e+000
    outer loop
      vertex  9.611250e+000 -1.000000e+000  2.089441e+001
      vertex  1.019519e+001 -1.000000e+000  2.089441e+001
      vertex  9.611250e+000  0.000000e+000  2.089441e+001
    endloop
  endfacet
  facet normal  -0.000000e+000  0.000000e+000  1.000000e+000
    outer loop
      vertex  9.611250e+000  0.000000e+000  2.089441e+001
      vertex  1.019519e+001 -1.000000e+000  2.089441e+001
      vertex  1.019519e+001  0.000000e+000  2.089441e+001
    endloop
  endfacet
  facet normal  1.000000e+000  0.000000e+000  0.000000e+000
    outer loop
      vertex  1.246076e+001 -1.000000e+000  2.089441e+001
      vertex  1.246076e+001 -1.000000e+000  1.856751e+001
      vertex  1.246076e+001  0.000000e+000  2.089441e+001
    endloop
  endfacet
  facet normal  1.000000e+000  0.000000e+000  0.000000e+000
    outer loop
      vertex  1.246076e+001  0.000000e+000  2.089441e+001
      vertex  1.246076e+001 -1.000000e+000  1.856751e+001
      vertex  1.246076e+001  0.000000e+000  1.856751e+001
    endloop
  endfacet
  facet normal  0.000000e+000  0.000000e+000 -1.000000e+000
    outer loop
      vertex  1.246076e+001 -1.000000e+000  1.856751e+001
      vertex  1.185733e+001 -1.000000e+000  1.856751e+001
      vertex  1.246076e+001  0.000000e+000  1.856751e+001
    endloop
  endfacet
  facet normal  -0.000000e+000  0.000000e+000 -1.000000e+000
    outer loop
      vertex  1.246076e+001  0.000000e+000  1.856751e+001
      vertex  1.185733e+001 -1.000000e+000  1.856751e+001
      vertex  1.185733e+001  0.000000e+000  1.856751e+001
    endloop
  endfacet
  facet normal -1.000000e+000  0.000000e+000  0.000000e+000
    outer loop
      vertex  1.185733e+001 -1.000000e+000  1.856751e+001
      vertex  1.185733e+001 -1.000000e+000  2.089441e+001
      vertex  1.185733e+001  0.000000e+000  1.856751e+001
    endloop
  endfacet
  facet normal -1.000000e+000  0.000000e+000  0.000000e+000
    outer loop
      vertex  1.185733e+001  0.000000e+000  1.856751e+001
      vertex  1.185733e+001 -1.000000e+000  2.089441e+001
      vertex  1.185733e+001  0.000000e+000  2.089441e+001
    endloop
  endfacet
  facet normal  0.000000e+000  0.000000e+000  1.000000e+000
    outer loop
      vertex  1.185733e+001 -1.000000e+000  2.089441e+001
      vertex  1.246076e+001 -1.000000e+000  2.089441e+001
      vertex  1.185733e+001  0.000000e+000  2.089441e+001
    endloop
  endfacet
  facet normal  -0.000000e+000  0.000000e+000  1.000000e+000
    outer loop
      vertex  1.185733e+001  0.000000e+000  2.089441e+001
      vertex  1.246076e+001 -1.000000e+000  2.089441e+001
      vertex  1.246076e+001  0.000000e+000  2.089441e+001
    endloop
  endfacet
  facet normal  0.000000e+000 -9.999999e-001  0.000000e+000
    outer loop
      vertex  9.611250e+000 -1.000000e+000  1.856751e+001
      vertex  1.019519e+001 -1.000000e+000  1.856751e+001
      vertex  9.611250e+000 -1.000000e+000  2.089441e+001
    endloop
  endfacet
  facet normal  0.000000e+000 -9.999999e-001  0.000000e+000
    outer loop
      vertex  9.611250e+000 -1.000000e+000  2.089441e+001
      vertex  1.019519e+001 -1.000000e+000  1.856751e+001
      vertex  1.019519e+001 -1.000000e+000  2.089441e+001
    endloop
  endfacet
  facet normal  0.000000e+000 -9.999999e-001  0.000000e+000
    outer loop
      vertex  1.185733e+001 -1.000000e+000  1.856751e+001
      vertex  1.246076e+001 -1.000000e+000  1.856751e+001
      vertex  1.185733e+001 -1.000000e+000  2.089441e+001
    endloop
  endfacet
  facet normal  0.000000e+000 -9.999999e-001  0.000000e+000
    outer loop
      vertex  1.185733e+001 -1.000000e+000  2.089441e+001
      vertex  1.246076e+001 -1.000000e+000  1.856751e+001
      vertex  1.246076e+001 -1.000000e+000  2.089441e+001
    endloop
  endfacet
  facet normal  0.000000e+000  0.000000e+000 -1.000000e+000
    outer loop
      vertex  1.100000e+001  5.000000e-001  0.000000e+000
      vertex  2.270000e+001  0.000000e+000  0.000000e+000
      vertex  1.150000e+001  0.000000e+000  0.000000e+000
    endloop
  endfacet
  facet normal  0.000000e+000  0.000000e+000 -1.000000e+000
    outer loop
      vertex  2.270000e+001  0.000000e+000  0.000000e+000
      vertex  1.100000e+001  5.000000e-001  0.000000e+000
      vertex  2.270000e+001  1.900000e+001  0.000000e+000
    endloop
  endfacet
  facet normal  -0.000000e+000  0.000000e+000 -1.000000e+000
    outer loop
      vertex  2.270000e+001  1.900000e+001  0.000000e+000
      vertex  1.100000e+001  5.000000e-001  0.000000e+000
      vertex  1.421085e-014  1.900000e+001  0.000000e+000
    endloop
  endfacet
  facet normal  0.000000e+000  0.000000e+000 -1.000000e+000
    outer loop
      vertex  1.100000e+001  5.000000e-001  0.000000e+000
      vertex  1.050000e+001  0.000000e+000  0.000000e+000
      vertex  1.421085e-014  1.900000e+001  0.000000e+000
    endloop
  endfacet
  facet normal  0.000000e+000  -0.000000e+000 -1.000000e+000
    outer loop
      vertex  1.421085e-014  1.900000e+001  0.000000e+000
      vertex  1.050000e+001  0.000000e+000  0.000000e+000
      vertex  0.000000e+000  0.000000e+000  0.000000e+000
    endloop
  endfacet
  facet normal  0.000000e+000  0.000000e+000  1.000000e+000
    outer loop
      vertex  1.150000e+001  0.000000e+000  3.700000e+001
      vertex  2.270000e+001  0.000000e+000  3.700000e+001
      vertex  1.100000e+001  5.000000e-001  3.700000e+001
    endloop
  endfacet
  facet normal  0.000000e+000  0.000000e+000  1.000000e+000
    outer loop
      vertex  2.270000e+001  0.000000e+000  3.700000e+001
      vertex  2.270000e+001  1.900000e+001  3.700000e+001
      vertex  1.100000e+001  5.000000e-001  3.700000e+001
    endloop
  endfacet
  facet normal  0.000000e+000  -0.000000e+000  1.000000e+000
    outer loop
      vertex  1.100000e+001  5.000000e-001  3.700000e+001
      vertex  2.270000e+001  1.900000e+001  3.700000e+001
      vertex  1.421085e-014  1.900000e+001  3.700000e+001
    endloop
  endfacet
  facet normal  0.000000e+000  0.000000e+000  1.000000e+000
    outer loop
      vertex  1.100000e+001  5.000000e-001  3.700000e+001
      vertex  1.421085e-014  1.900000e+001  3.700000e+001
      vertex  1.050000e+001  0.000000e+000  3.700000e+001
    endloop
  endfacet
  facet normal  0.000000e+000  0.000000e+000  1.000000e+000
    outer loop
      vertex  1.050000e+001  0.000000e+000  3.700000e+001
      vertex  1.421085e-014  1.900000e+001  3.700000e+001
      vertex  0.000000e+000  0.000000e+000  3.700000e+001
    endloop
  endfacet
  facet normal -7.071068e-001 -7.071068e-001  0.000000e+000
    outer loop
      vertex  1.150000e+001  0.000000e+000  3.700000e+001
      vertex  1.100000e+001  5.000000e-001  3.700000e+001
      vertex  1.150000e+001  0.000000e+000  0.000000e+000
    endloop
  endfacet
  facet normal -7.071068e-001 -7.071068e-001  0.000000e+000
    outer loop
      vertex  1.150000e+001  0.000000e+000  0.000000e+000
      vertex  1.100000e+001  5.000000e-001  3.700000e+001
      vertex  1.100000e+001  5.000000e-001  0.000000e+000
    endloop
  endfacet
  facet normal  7.071068e-001 -7.071068e-001  0.000000e+000
    outer loop
      vertex  1.100000e+001  5.000000e-001  3.700000e+001
      vertex  1.050000e+001  0.000000e+000  3.700000e+001
      vertex  1.100000e+001  5.000000e-001  0.000000e+000
    endloop
  endfacet
  facet normal  7.071068e-001 -7.071068e-001  0.000000e+000
    outer loop
      vertex  1.100000e+001  5.000000e-001  0.000000e+000
      vertex  1.050000e+001  0.000000e+000  3.700000e+001
      vertex  1.050000e+001  0.000000e+000  0.000000e+000
    endloop
  endfacet
  facet normal -1.000000e+000  7.479397e-016  0.000000e+000
    outer loop
      vertex  1.421085e-014  1.900000e+001  0.000000e+000
      vertex  0.000000e+000  0.000000e+000  0.000000e+000
      vertex  1.421085e-014  1.900000e+001  3.700000e+001
    endloop
  endfacet
  facet normal -1.000000e+000  7.479397e-016  0.000000e+000
    outer loop
      vertex  1.421085e-014  1.900000e+001  3.700000e+001
      vertex  0.000000e+000  0.000000e+000  0.000000e+000
      vertex  0.000000e+000  0.000000e+000  3.700000e+001
    endloop
  endfacet
  facet normal  0.000000e+000  1.000000e+000  0.000000e+000
    outer loop
      vertex  2.270000e+001  1.900000e+001  0.000000e+000
      vertex  1.421085e-014  1.900000e+001  0.000000e+000
      vertex  2.270000e+001  1.900000e+001  3.700000e+001
    endloop
  endfacet
  facet normal  0.000000e+000  1.000000e+000  0.000000e+000
    outer loop
      vertex  2.270000e+001  1.900000e+001  3.700000e+001
      vertex  1.421085e-014  1.900000e+001  0.000000e+000
      vertex  1.421085e-014  1.900000e+001  3.700000e+001
    endloop
  endfacet
  facet normal  1.000000e+000  0.000000e+000  0.000000e+000
    outer loop
      vertex  2.270000e+001  0.000000e+000  0.000000e+000
      vertex  2.270000e+001  1.900000e+001  0.000000e+000
      vertex  2.270000e+001  0.000000e+000  3.700000e+001
    endloop
  endfacet
  facet normal  1.000000e+000  -0.000000e+000  0.000000e+000
    outer loop
      vertex  2.270000e+001  0.000000e+000  3.700000e+001
      vertex  2.270000e+001  1.900000e+001  0.000000e+000
      vertex  2.270000e+001  1.900000e+001  3.700000e+001
    endloop
  endfacet
endsolid CATIA STL
