solid CATIA STL
  facet normal  0.000000e+000  0.000000e+000  1.000000e+000
    outer loop
      vertex  3.798460e+001  8.000000e+000  0.000000e+000
      vertex  4.314090e+001  8.000000e+000  0.000000e+000
      vertex  3.798460e+001  1.681031e+001  0.000000e+000
    endloop
  endfacet
  facet normal  -0.000000e+000  0.000000e+000  1.000000e+000
    outer loop
      vertex  3.798460e+001  1.681031e+001  0.000000e+000
      vertex  4.314090e+001  8.000000e+000  0.000000e+000
      vertex  4.314090e+001  1.681031e+001  0.000000e+000
    endloop
  endfacet
  facet normal  0.000000e+000  0.000000e+000  1.000000e+000
    outer loop
      vertex  3.798460e+001 -8.447287e+000  0.000000e+000
      vertex  4.314090e+001 -8.447287e+000  0.000000e+000
      vertex  3.798460e+001 -8.881784e-016  0.000000e+000
    endloop
  endfacet
  facet normal  -0.000000e+000  0.000000e+000  1.000000e+000
    outer loop
      vertex  3.798460e+001 -8.881784e-016  0.000000e+000
      vertex  4.314090e+001 -8.447287e+000  0.000000e+000
      vertex  4.314090e+001 -8.881784e-016  0.000000e+000
    endloop
  endfacet
  facet normal  0.000000e+000  0.000000e+000 -1.000000e+000
    outer loop
      vertex  1.514089e+001  0.000000e+000  0.000000e+000
      vertex  1.514089e+001  8.000000e+000  0.000000e+000
      vertex  3.798460e+001 -8.881784e-016  0.000000e+000
    endloop
  endfacet
  facet normal  0.000000e+000  0.000000e+000 -1.000000e+000
    outer loop
      vertex  3.798460e+001 -8.881784e-016  0.000000e+000
      vertex  1.514089e+001  8.000000e+000  0.000000e+000
      vertex  3.798460e+001  8.000000e+000  0.000000e+000
    endloop
  endfacet
  facet normal  0.000000e+000  0.000000e+000 -9.999999e-001
    outer loop
      vertex  4.314090e+001 -8.881784e-016  0.000000e+000
      vertex  4.314090e+001  8.000000e+000  0.000000e+000
      vertex  5.400000e+001  0.000000e+000  0.000000e+000
    endloop
  endfacet
  facet normal  0.000000e+000  0.000000e+000 -9.999999e-001
    outer loop
      vertex  5.400000e+001  0.000000e+000  0.000000e+000
      vertex  4.314090e+001  8.000000e+000  0.000000e+000
      vertex  5.400000e+001  8.000000e+000  0.000000e+000
    endloop
  endfacet
  facet normal  0.000000e+000  9.999999e-001  -0.000000e+000
    outer loop
      vertex  5.400000e+001  8.000000e+000  4.000000e+000
      vertex  5.400000e+001  8.000000e+000  0.000000e+000
      vertex  4.314090e+001  8.000000e+000  0.000000e+000
    endloop
  endfacet
  facet normal  0.000000e+000  1.000000e+000  -0.000000e+000
    outer loop
      vertex  5.400000e+001  8.000000e+000  4.000000e+000
      vertex  4.314090e+001  8.000000e+000  0.000000e+000
      vertex  3.798460e+001  8.000000e+000  0.000000e+000
    endloop
  endfacet
  facet normal  0.000000e+000  1.000000e+000  -0.000000e+000
    outer loop
      vertex  5.400000e+001  8.000000e+000  4.000000e+000
      vertex  3.798460e+001  8.000000e+000  0.000000e+000
      vertex  1.514089e+001  8.000000e+000  0.000000e+000
    endloop
  endfacet
  facet normal  0.000000e+000  1.000000e+000  -0.000000e+000
    outer loop
      vertex  5.400000e+001  8.000000e+000  4.000000e+000
      vertex  1.514089e+001  8.000000e+000  0.000000e+000
      vertex  9.984596e+000  8.000000e+000  0.000000e+000
    endloop
  endfacet
  facet normal  0.000000e+000  1.000000e+000  -0.000000e+000
    outer loop
      vertex  5.400000e+001  8.000000e+000  4.000000e+000
      vertex  9.984596e+000  8.000000e+000  0.000000e+000
      vertex  0.000000e+000  8.000000e+000  0.000000e+000
    endloop
  endfacet
  facet normal  0.000000e+000  1.000000e+000  0.000000e+000
    outer loop
      vertex  5.400000e+001  8.000000e+000  4.000000e+000
      vertex  0.000000e+000  8.000000e+000  0.000000e+000
      vertex  0.000000e+000  8.000000e+000  4.000000e+000
    endloop
  endfacet
  facet normal  0.000000e+000 -1.000000e+000  0.000000e+000
    outer loop
      vertex  0.000000e+000  0.000000e+000  4.000000e+000
      vertex  0.000000e+000  0.000000e+000  0.000000e+000
      vertex  9.984596e+000  0.000000e+000  0.000000e+000
    endloop
  endfacet
  facet normal  0.000000e+000 -1.000000e+000  0.000000e+000
    outer loop
      vertex  0.000000e+000  0.000000e+000  4.000000e+000
      vertex  9.984596e+000  0.000000e+000  0.000000e+000
      vertex  1.514089e+001  0.000000e+000  0.000000e+000
    endloop
  endfacet
  facet normal -3.888067e-017 -1.000000e+000 -1.471720e-016
    outer loop
      vertex  0.000000e+000  0.000000e+000  4.000000e+000
      vertex  1.514089e+001  0.000000e+000  0.000000e+000
      vertex  3.798460e+001 -8.881784e-016  0.000000e+000
    endloop
  endfacet
  facet normal  0.000000e+000 -1.000000e+000  2.220446e-016
    outer loop
      vertex  0.000000e+000  0.000000e+000  4.000000e+000
      vertex  3.798460e+001 -8.881784e-016  0.000000e+000
      vertex  4.314090e+001 -8.881784e-016  0.000000e+000
    endloop
  endfacet
  facet normal  8.179113e-017 -9.999999e-001  1.104180e-015
    outer loop
      vertex  0.000000e+000  0.000000e+000  4.000000e+000
      vertex  4.314090e+001 -8.881784e-016  0.000000e+000
      vertex  5.400000e+001  0.000000e+000  0.000000e+000
    endloop
  endfacet
  facet normal  0.000000e+000 -1.000000e+000  0.000000e+000
    outer loop
      vertex  0.000000e+000  0.000000e+000  4.000000e+000
      vertex  5.400000e+001  0.000000e+000  0.000000e+000
      vertex  5.400000e+001  0.000000e+000  4.000000e+000
    endloop
  endfacet
  facet normal  1.000000e+000  0.000000e+000  0.000000e+000
    outer loop
      vertex  4.314090e+001  1.681031e+001 -2.000000e+000
      vertex  4.314090e+001  1.681031e+001  0.000000e+000
      vertex  4.314090e+001  8.000000e+000  0.000000e+000
    endloop
  endfacet
  facet normal  1.000000e+000  0.000000e+000  0.000000e+000
    outer loop
      vertex  4.314090e+001  1.681031e+001 -2.000000e+000
      vertex  4.314090e+001  8.000000e+000  0.000000e+000
      vertex  4.314090e+001 -8.881784e-016  0.000000e+000
    endloop
  endfacet
  facet normal  1.000000e+000  0.000000e+000  0.000000e+000
    outer loop
      vertex  4.314090e+001  1.681031e+001 -2.000000e+000
      vertex  4.314090e+001 -8.881784e-016  0.000000e+000
      vertex  4.314090e+001 -8.447287e+000  0.000000e+000
    endloop
  endfacet
  facet normal  1.000000e+000  0.000000e+000  0.000000e+000
    outer loop
      vertex  4.314090e+001  1.681031e+001 -2.000000e+000
      vertex  4.314090e+001 -8.447287e+000  0.000000e+000
      vertex  4.314090e+001 -8.447287e+000 -2.000000e+000
    endloop
  endfacet
  facet normal -1.000000e+000  0.000000e+000  0.000000e+000
    outer loop
      vertex  3.798460e+001 -8.447287e+000 -2.000000e+000
      vertex  3.798460e+001 -8.447287e+000  0.000000e+000
      vertex  3.798460e+001 -8.881784e-016  0.000000e+000
    endloop
  endfacet
  facet normal -1.000000e+000  0.000000e+000  -0.000000e+000
    outer loop
      vertex  3.798460e+001 -8.447287e+000 -2.000000e+000
      vertex  3.798460e+001 -8.881784e-016  0.000000e+000
      vertex  3.798460e+001  8.000000e+000  0.000000e+000
    endloop
  endfacet
  facet normal -1.000000e+000  0.000000e+000  -0.000000e+000
    outer loop
      vertex  3.798460e+001 -8.447287e+000 -2.000000e+000
      vertex  3.798460e+001  8.000000e+000  0.000000e+000
      vertex  3.798460e+001  1.681031e+001  0.000000e+000
    endloop
  endfacet
  facet normal -1.000000e+000  0.000000e+000  -0.000000e+000
    outer loop
      vertex  3.798460e+001 -8.447287e+000 -2.000000e+000
      vertex  3.798460e+001  1.681031e+001  0.000000e+000
      vertex  3.798460e+001  1.681031e+001 -2.000000e+000
    endloop
  endfacet
  facet normal  -0.000000e+000  0.000000e+000 -1.000000e+000
    outer loop
      vertex  3.798460e+001  1.681031e+001 -2.000000e+000
      vertex  4.314090e+001  1.681031e+001 -2.000000e+000
      vertex  3.798460e+001 -8.447287e+000 -2.000000e+000
    endloop
  endfacet
  facet normal  0.000000e+000  0.000000e+000 -1.000000e+000
    outer loop
      vertex  3.798460e+001 -8.447287e+000 -2.000000e+000
      vertex  4.314090e+001  1.681031e+001 -2.000000e+000
      vertex  4.314090e+001 -8.447287e+000 -2.000000e+000
    endloop
  endfacet
  facet normal  0.000000e+000  1.000000e+000  0.000000e+000
    outer loop
      vertex  4.314090e+001  1.681031e+001 -2.000000e+000
      vertex  3.798460e+001  1.681031e+001 -2.000000e+000
      vertex  4.314090e+001  1.681031e+001  0.000000e+000
    endloop
  endfacet
  facet normal  0.000000e+000  1.000000e+000  0.000000e+000
    outer loop
      vertex  4.314090e+001  1.681031e+001  0.000000e+000
      vertex  3.798460e+001  1.681031e+001 -2.000000e+000
      vertex  3.798460e+001  1.681031e+001  0.000000e+000
    endloop
  endfacet
  facet normal  0.000000e+000 -1.000000e+000  0.000000e+000
    outer loop
      vertex  3.798460e+001 -8.447287e+000 -2.000000e+000
      vertex  4.314090e+001 -8.447287e+000 -2.000000e+000
      vertex  3.798460e+001 -8.447287e+000  0.000000e+000
    endloop
  endfacet
  facet normal  0.000000e+000 -1.000000e+000  0.000000e+000
    outer loop
      vertex  3.798460e+001 -8.447287e+000  0.000000e+000
      vertex  4.314090e+001 -8.447287e+000 -2.000000e+000
      vertex  4.314090e+001 -8.447287e+000  0.000000e+000
    endloop
  endfacet
  facet normal  0.000000e+000  0.000000e+000 -1.000000e+000
    outer loop
      vertex  0.000000e+000  0.000000e+000  0.000000e+000
      vertex  0.000000e+000  8.000000e+000  0.000000e+000
      vertex  9.984596e+000  0.000000e+000  0.000000e+000
    endloop
  endfacet
  facet normal  0.000000e+000  0.000000e+000 -1.000000e+000
    outer loop
      vertex  9.984596e+000  0.000000e+000  0.000000e+000
      vertex  0.000000e+000  8.000000e+000  0.000000e+000
      vertex  9.984596e+000  8.000000e+000  0.000000e+000
    endloop
  endfacet
  facet normal  0.000000e+000  0.000000e+000  1.000000e+000
    outer loop
      vertex  9.984596e+000 -8.447287e+000  0.000000e+000
      vertex  1.514089e+001 -8.447287e+000  0.000000e+000
      vertex  9.984596e+000  0.000000e+000  0.000000e+000
    endloop
  endfacet
  facet normal  -0.000000e+000  0.000000e+000  1.000000e+000
    outer loop
      vertex  9.984596e+000  0.000000e+000  0.000000e+000
      vertex  1.514089e+001 -8.447287e+000  0.000000e+000
      vertex  1.514089e+001  0.000000e+000  0.000000e+000
    endloop
  endfacet
  facet normal  0.000000e+000  0.000000e+000  1.000000e+000
    outer loop
      vertex  9.984596e+000  8.000000e+000  0.000000e+000
      vertex  1.514089e+001  8.000000e+000  0.000000e+000
      vertex  9.984596e+000  1.681031e+001  0.000000e+000
    endloop
  endfacet
  facet normal  -0.000000e+000  0.000000e+000  1.000000e+000
    outer loop
      vertex  9.984596e+000  1.681031e+001  0.000000e+000
      vertex  1.514089e+001  8.000000e+000  0.000000e+000
      vertex  1.514089e+001  1.681031e+001  0.000000e+000
    endloop
  endfacet
  facet normal  1.000000e+000  0.000000e+000  0.000000e+000
    outer loop
      vertex  1.514089e+001  1.681031e+001 -2.000000e+000
      vertex  1.514089e+001  1.681031e+001  0.000000e+000
      vertex  1.514089e+001  8.000000e+000  0.000000e+000
    endloop
  endfacet
  facet normal  1.000000e+000  0.000000e+000  0.000000e+000
    outer loop
      vertex  1.514089e+001  1.681031e+001 -2.000000e+000
      vertex  1.514089e+001  8.000000e+000  0.000000e+000
      vertex  1.514089e+001  0.000000e+000  0.000000e+000
    endloop
  endfacet
  facet normal  1.000000e+000  0.000000e+000  0.000000e+000
    outer loop
      vertex  1.514089e+001  1.681031e+001 -2.000000e+000
      vertex  1.514089e+001  0.000000e+000  0.000000e+000
      vertex  1.514089e+001 -8.447287e+000  0.000000e+000
    endloop
  endfacet
  facet normal  1.000000e+000  0.000000e+000  0.000000e+000
    outer loop
      vertex  1.514089e+001  1.681031e+001 -2.000000e+000
      vertex  1.514089e+001 -8.447287e+000  0.000000e+000
      vertex  1.514089e+001 -8.447287e+000 -2.000000e+000
    endloop
  endfacet
  facet normal -1.000000e+000  0.000000e+000  0.000000e+000
    outer loop
      vertex  9.984596e+000 -8.447287e+000 -2.000000e+000
      vertex  9.984596e+000 -8.447287e+000  0.000000e+000
      vertex  9.984596e+000  0.000000e+000  0.000000e+000
    endloop
  endfacet
  facet normal -1.000000e+000  0.000000e+000  -0.000000e+000
    outer loop
      vertex  9.984596e+000 -8.447287e+000 -2.000000e+000
      vertex  9.984596e+000  0.000000e+000  0.000000e+000
      vertex  9.984596e+000  8.000000e+000  0.000000e+000
    endloop
  endfacet
  facet normal -1.000000e+000  0.000000e+000  -0.000000e+000
    outer loop
      vertex  9.984596e+000 -8.447287e+000 -2.000000e+000
      vertex  9.984596e+000  8.000000e+000  0.000000e+000
      vertex  9.984596e+000  1.681031e+001  0.000000e+000
    endloop
  endfacet
  facet normal -1.000000e+000  0.000000e+000  -0.000000e+000
    outer loop
      vertex  9.984596e+000 -8.447287e+000 -2.000000e+000
      vertex  9.984596e+000  1.681031e+001  0.000000e+000
      vertex  9.984596e+000  1.681031e+001 -2.000000e+000
    endloop
  endfacet
  facet normal  -0.000000e+000  0.000000e+000 -1.000000e+000
    outer loop
      vertex  9.984596e+000  1.681031e+001 -2.000000e+000
      vertex  1.514089e+001  1.681031e+001 -2.000000e+000
      vertex  9.984596e+000 -8.447287e+000 -2.000000e+000
    endloop
  endfacet
  facet normal  0.000000e+000  0.000000e+000 -1.000000e+000
    outer loop
      vertex  9.984596e+000 -8.447287e+000 -2.000000e+000
      vertex  1.514089e+001  1.681031e+001 -2.000000e+000
      vertex  1.514089e+001 -8.447287e+000 -2.000000e+000
    endloop
  endfacet
  facet normal  0.000000e+000 -1.000000e+000  0.000000e+000
    outer loop
      vertex  9.984596e+000 -8.447287e+000 -2.000000e+000
      vertex  1.514089e+001 -8.447287e+000 -2.000000e+000
      vertex  9.984596e+000 -8.447287e+000  0.000000e+000
    endloop
  endfacet
  facet normal  0.000000e+000 -1.000000e+000  0.000000e+000
    outer loop
      vertex  9.984596e+000 -8.447287e+000  0.000000e+000
      vertex  1.514089e+001 -8.447287e+000 -2.000000e+000
      vertex  1.514089e+001 -8.447287e+000  0.000000e+000
    endloop
  endfacet
  facet normal  0.000000e+000  1.000000e+000  0.000000e+000
    outer loop
      vertex  1.514089e+001  1.681031e+001 -2.000000e+000
      vertex  9.984596e+000  1.681031e+001 -2.000000e+000
      vertex  1.514089e+001  1.681031e+001  0.000000e+000
    endloop
  endfacet
  facet normal  0.000000e+000  1.000000e+000  0.000000e+000
    outer loop
      vertex  1.514089e+001  1.681031e+001  0.000000e+000
      vertex  9.984596e+000  1.681031e+001 -2.000000e+000
      vertex  9.984596e+000  1.681031e+001  0.000000e+000
    endloop
  endfacet
  facet normal  0.000000e+000  0.000000e+000  1.000000e+000
    outer loop
      vertex  0.000000e+000  0.000000e+000  4.000000e+000
      vertex  5.400000e+001  0.000000e+000  4.000000e+000
      vertex  0.000000e+000  8.000000e+000  4.000000e+000
    endloop
  endfacet
  facet normal  -0.000000e+000  0.000000e+000  1.000000e+000
    outer loop
      vertex  0.000000e+000  8.000000e+000  4.000000e+000
      vertex  5.400000e+001  0.000000e+000  4.000000e+000
      vertex  5.400000e+001  8.000000e+000  4.000000e+000
    endloop
  endfacet
  facet normal -1.000000e+000  0.000000e+000  0.000000e+000
    outer loop
      vertex  0.000000e+000  8.000000e+000  4.000000e+000
      vertex  0.000000e+000  8.000000e+000  0.000000e+000
      vertex  0.000000e+000  0.000000e+000  4.000000e+000
    endloop
  endfacet
  facet normal -1.000000e+000  0.000000e+000  0.000000e+000
    outer loop
      vertex  0.000000e+000  0.000000e+000  4.000000e+000
      vertex  0.000000e+000  8.000000e+000  0.000000e+000
      vertex  0.000000e+000  0.000000e+000  0.000000e+000
    endloop
  endfacet
  facet normal  1.000000e+000  0.000000e+000  0.000000e+000
    outer loop
      vertex  5.400000e+001  0.000000e+000  4.000000e+000
      vertex  5.400000e+001  0.000000e+000  0.000000e+000
      vertex  5.400000e+001  8.000000e+000  4.000000e+000
    endloop
  endfacet
  facet normal  1.000000e+000  0.000000e+000  0.000000e+000
    outer loop
      vertex  5.400000e+001  8.000000e+000  4.000000e+000
      vertex  5.400000e+001  0.000000e+000  0.000000e+000
      vertex  5.400000e+001  8.000000e+000  0.000000e+000
    endloop
  endfacet
endsolid CATIA STL
