solid CATIA STL
  facet normal  -0.000000e+000  0.000000e+000 -9.999999e-001
    outer loop
      vertex  1.421085e-014  6.800000e+001  0.000000e+000
      vertex  1.215000e+002  6.800000e+001  0.000000e+000
      vertex  1.175000e+002  6.400000e+001  0.000000e+000
    endloop
  endfacet
  facet normal  0.000000e+000  0.000000e+000 -9.999999e-001
    outer loop
      vertex  1.421085e-014  6.800000e+001  0.000000e+000
      vertex  1.175000e+002  6.400000e+001  0.000000e+000
      vertex  4.000000e+000  6.400000e+001  0.000000e+000
    endloop
  endfacet
  facet normal  -0.000000e+000  -0.000000e+000 -1.000000e+000
    outer loop
      vertex  1.421085e-014  6.800000e+001  0.000000e+000
      vertex  4.000000e+000  6.400000e+001  0.000000e+000
      vertex  4.000000e+000  3.550000e+001  0.000000e+000
    endloop
  endfacet
  facet normal  -0.000000e+000  -0.000000e+000 -1.000000e+000
    outer loop
      vertex  1.421085e-014  6.800000e+001  0.000000e+000
      vertex  4.000000e+000  3.550000e+001  0.000000e+000
      vertex  4.000000e+000  3.150000e+001  0.000000e+000
    endloop
  endfacet
  facet normal  -0.000000e+000  -0.000000e+000 -9.999999e-001
    outer loop
      vertex  1.421085e-014  6.800000e+001  0.000000e+000
      vertex  4.000000e+000  3.150000e+001  0.000000e+000
      vertex  4.000000e+000  4.000000e+000  0.000000e+000
    endloop
  endfacet
  facet normal  -0.000000e+000  0.000000e+000 -1.000000e+000
    outer loop
      vertex  1.421085e-014  6.800000e+001  0.000000e+000
      vertex  4.000000e+000  4.000000e+000  0.000000e+000
      vertex  0.000000e+000  0.000000e+000  0.000000e+000
    endloop
  endfacet
  facet normal  0.000000e+000  0.000000e+000 -1.000000e+000
    outer loop
      vertex  1.215000e+002  6.800000e+001  0.000000e+000
      vertex  1.215000e+002  0.000000e+000  0.000000e+000
      vertex  1.175000e+002  4.000000e+000  0.000000e+000
    endloop
  endfacet
  facet normal  0.000000e+000  0.000000e+000 -9.999999e-001
    outer loop
      vertex  1.215000e+002  6.800000e+001  0.000000e+000
      vertex  1.175000e+002  4.000000e+000  0.000000e+000
      vertex  1.175000e+002  3.150000e+001  0.000000e+000
    endloop
  endfacet
  facet normal  0.000000e+000  0.000000e+000 -1.000000e+000
    outer loop
      vertex  1.215000e+002  6.800000e+001  0.000000e+000
      vertex  1.175000e+002  3.150000e+001  0.000000e+000
      vertex  1.175000e+002  3.550000e+001  0.000000e+000
    endloop
  endfacet
  facet normal  0.000000e+000  0.000000e+000 -1.000000e+000
    outer loop
      vertex  1.215000e+002  6.800000e+001  0.000000e+000
      vertex  1.175000e+002  3.550000e+001  0.000000e+000
      vertex  1.175000e+002  6.400000e+001  0.000000e+000
    endloop
  endfacet
  facet normal  0.000000e+000  -0.000000e+000 -1.000000e+000
    outer loop
      vertex  0.000000e+000  0.000000e+000  0.000000e+000
      vertex  4.000000e+000  4.000000e+000  0.000000e+000
      vertex  2.900000e+001  4.000000e+000  0.000000e+000
    endloop
  endfacet
  facet normal  0.000000e+000  -0.000000e+000 -1.000000e+000
    outer loop
      vertex  0.000000e+000  0.000000e+000  0.000000e+000
      vertex  2.900000e+001  4.000000e+000  0.000000e+000
      vertex  3.300000e+001  4.000000e+000  0.000000e+000
    endloop
  endfacet
  facet normal  0.000000e+000  -0.000000e+000 -1.000000e+000
    outer loop
      vertex  0.000000e+000  0.000000e+000  0.000000e+000
      vertex  3.300000e+001  4.000000e+000  0.000000e+000
      vertex  5.800000e+001  4.000000e+000  0.000000e+000
    endloop
  endfacet
  facet normal  0.000000e+000  -0.000000e+000 -1.000000e+000
    outer loop
      vertex  0.000000e+000  0.000000e+000  0.000000e+000
      vertex  5.800000e+001  4.000000e+000  0.000000e+000
      vertex  6.200000e+001  4.000000e+000  0.000000e+000
    endloop
  endfacet
  facet normal  0.000000e+000  -0.000000e+000 -1.000000e+000
    outer loop
      vertex  0.000000e+000  0.000000e+000  0.000000e+000
      vertex  6.200000e+001  4.000000e+000  0.000000e+000
      vertex  8.700000e+001  4.000000e+000  0.000000e+000
    endloop
  endfacet
  facet normal  0.000000e+000  -0.000000e+000 -1.000000e+000
    outer loop
      vertex  0.000000e+000  0.000000e+000  0.000000e+000
      vertex  8.700000e+001  4.000000e+000  0.000000e+000
      vertex  9.100000e+001  4.000000e+000  0.000000e+000
    endloop
  endfacet
  facet normal  0.000000e+000  -0.000000e+000 -1.000000e+000
    outer loop
      vertex  0.000000e+000  0.000000e+000  0.000000e+000
      vertex  9.100000e+001  4.000000e+000  0.000000e+000
      vertex  1.160000e+002  4.000000e+000  0.000000e+000
    endloop
  endfacet
  facet normal  0.000000e+000  -0.000000e+000 -1.000000e+000
    outer loop
      vertex  0.000000e+000  0.000000e+000  0.000000e+000
      vertex  1.160000e+002  4.000000e+000  0.000000e+000
      vertex  1.175000e+002  4.000000e+000  0.000000e+000
    endloop
  endfacet
  facet normal  0.000000e+000  -0.000000e+000 -9.999999e-001
    outer loop
      vertex  0.000000e+000  0.000000e+000  0.000000e+000
      vertex  1.175000e+002  4.000000e+000  0.000000e+000
      vertex  1.215000e+002  0.000000e+000  0.000000e+000
    endloop
  endfacet
  facet normal  -0.000000e+000  -0.000000e+000 -9.999999e-001
    outer loop
      vertex  4.000000e+000  3.550000e+001  0.000000e+000
      vertex  1.175000e+002  3.550000e+001  0.000000e+000
      vertex  1.175000e+002  3.150000e+001  0.000000e+000
    endloop
  endfacet
  facet normal  0.000000e+000  0.000000e+000 -1.000000e+000
    outer loop
      vertex  4.000000e+000  3.550000e+001  0.000000e+000
      vertex  1.175000e+002  3.150000e+001  0.000000e+000
      vertex  1.160000e+002  3.150000e+001  0.000000e+000
    endloop
  endfacet
  facet normal  0.000000e+000  0.000000e+000 -1.000000e+000
    outer loop
      vertex  4.000000e+000  3.550000e+001  0.000000e+000
      vertex  1.160000e+002  3.150000e+001  0.000000e+000
      vertex  9.100000e+001  3.150000e+001  0.000000e+000
    endloop
  endfacet
  facet normal  0.000000e+000  0.000000e+000 -1.000000e+000
    outer loop
      vertex  4.000000e+000  3.550000e+001  0.000000e+000
      vertex  9.100000e+001  3.150000e+001  0.000000e+000
      vertex  8.700000e+001  3.150000e+001  0.000000e+000
    endloop
  endfacet
  facet normal  0.000000e+000  0.000000e+000 -1.000000e+000
    outer loop
      vertex  4.000000e+000  3.550000e+001  0.000000e+000
      vertex  8.700000e+001  3.150000e+001  0.000000e+000
      vertex  6.200000e+001  3.150000e+001  0.000000e+000
    endloop
  endfacet
  facet normal  0.000000e+000  0.000000e+000 -1.000000e+000
    outer loop
      vertex  4.000000e+000  3.550000e+001  0.000000e+000
      vertex  6.200000e+001  3.150000e+001  0.000000e+000
      vertex  5.800000e+001  3.150000e+001  0.000000e+000
    endloop
  endfacet
  facet normal  0.000000e+000  0.000000e+000 -1.000000e+000
    outer loop
      vertex  4.000000e+000  3.550000e+001  0.000000e+000
      vertex  5.800000e+001  3.150000e+001  0.000000e+000
      vertex  3.300000e+001  3.150000e+001  0.000000e+000
    endloop
  endfacet
  facet normal  0.000000e+000  0.000000e+000 -1.000000e+000
    outer loop
      vertex  4.000000e+000  3.550000e+001  0.000000e+000
      vertex  3.300000e+001  3.150000e+001  0.000000e+000
      vertex  2.900000e+001  3.150000e+001  0.000000e+000
    endloop
  endfacet
  facet normal  0.000000e+000  0.000000e+000 -1.000000e+000
    outer loop
      vertex  4.000000e+000  3.550000e+001  0.000000e+000
      vertex  2.900000e+001  3.150000e+001  0.000000e+000
      vertex  4.000000e+000  3.150000e+001  0.000000e+000
    endloop
  endfacet
  facet normal  0.000000e+000  0.000000e+000 -9.999999e-001
    outer loop
      vertex  2.900000e+001  4.000000e+000  0.000000e+000
      vertex  2.900000e+001  3.150000e+001  0.000000e+000
      vertex  3.300000e+001  4.000000e+000  0.000000e+000
    endloop
  endfacet
  facet normal  0.000000e+000  0.000000e+000 -9.999999e-001
    outer loop
      vertex  3.300000e+001  4.000000e+000  0.000000e+000
      vertex  2.900000e+001  3.150000e+001  0.000000e+000
      vertex  3.300000e+001  3.150000e+001  0.000000e+000
    endloop
  endfacet
  facet normal  0.000000e+000  0.000000e+000 -9.999999e-001
    outer loop
      vertex  5.800000e+001  4.000000e+000  0.000000e+000
      vertex  5.800000e+001  3.150000e+001  0.000000e+000
      vertex  6.200000e+001  4.000000e+000  0.000000e+000
    endloop
  endfacet
  facet normal  0.000000e+000  0.000000e+000 -9.999999e-001
    outer loop
      vertex  6.200000e+001  4.000000e+000  0.000000e+000
      vertex  5.800000e+001  3.150000e+001  0.000000e+000
      vertex  6.200000e+001  3.150000e+001  0.000000e+000
    endloop
  endfacet
  facet normal  0.000000e+000  0.000000e+000 -9.999999e-001
    outer loop
      vertex  8.700000e+001  4.000000e+000  0.000000e+000
      vertex  8.700000e+001  3.150000e+001  0.000000e+000
      vertex  9.100000e+001  4.000000e+000  0.000000e+000
    endloop
  endfacet
  facet normal  0.000000e+000  0.000000e+000 -9.999999e-001
    outer loop
      vertex  9.100000e+001  4.000000e+000  0.000000e+000
      vertex  8.700000e+001  3.150000e+001  0.000000e+000
      vertex  9.100000e+001  3.150000e+001  0.000000e+000
    endloop
  endfacet
  facet normal -1.000000e+000  1.480297e-016  0.000000e+000
    outer loop
      vertex  0.000000e+000  0.000000e+000  6.000000e+000
      vertex  8.881784e-016  6.000000e+000  6.000000e+000
      vertex  0.000000e+000  0.000000e+000  0.000000e+000
    endloop
  endfacet
  facet normal -1.000000e+000 -7.401487e-016  8.881784e-016
    outer loop
      vertex  0.000000e+000  0.000000e+000  0.000000e+000
      vertex  8.881784e-016  6.000000e+000  6.000000e+000
      vertex  0.000000e+000  6.000000e+000  5.000000e+000
    endloop
  endfacet
  facet normal -1.000000e+000  2.089832e-016 -2.507798e-016
    outer loop
      vertex  0.000000e+000  0.000000e+000  0.000000e+000
      vertex  0.000000e+000  6.000000e+000  5.000000e+000
      vertex  1.421085e-014  6.800000e+001  0.000000e+000
    endloop
  endfacet
  facet normal -1.000000e+000  0.000000e+000 -2.842171e-015
    outer loop
      vertex  1.421085e-014  6.800000e+001  0.000000e+000
      vertex  0.000000e+000  6.000000e+000  5.000000e+000
      vertex  0.000000e+000  6.200000e+001  5.000000e+000
    endloop
  endfacet
  facet normal -1.000000e+000  5.181041e-016 -2.220446e-015
    outer loop
      vertex  1.421085e-014  6.800000e+001  0.000000e+000
      vertex  0.000000e+000  6.200000e+001  5.000000e+000
      vertex  8.881784e-016  6.800000e+001  6.000000e+000
    endloop
  endfacet
  facet normal -1.000000e+000  1.480297e-016  0.000000e+000
    outer loop
      vertex  8.881784e-016  6.800000e+001  6.000000e+000
      vertex  0.000000e+000  6.200000e+001  5.000000e+000
      vertex  0.000000e+000  6.200000e+001  6.000000e+000
    endloop
  endfacet
  facet normal  0.000000e+000 -1.000000e+000  0.000000e+000
    outer loop
      vertex  1.215000e+002  0.000000e+000  6.000000e+000
      vertex  1.175000e+002  0.000000e+000  6.000000e+000
      vertex  1.215000e+002  0.000000e+000  0.000000e+000
    endloop
  endfacet
  facet normal  0.000000e+000 -1.000000e+000  0.000000e+000
    outer loop
      vertex  1.215000e+002  0.000000e+000  0.000000e+000
      vertex  1.175000e+002  0.000000e+000  6.000000e+000
      vertex  1.175000e+002  0.000000e+000  5.000000e+000
    endloop
  endfacet
  facet normal  0.000000e+000 -1.000000e+000  -0.000000e+000
    outer loop
      vertex  1.215000e+002  0.000000e+000  0.000000e+000
      vertex  1.175000e+002  0.000000e+000  5.000000e+000
      vertex  0.000000e+000  0.000000e+000  0.000000e+000
    endloop
  endfacet
  facet normal  0.000000e+000 -1.000000e+000  0.000000e+000
    outer loop
      vertex  0.000000e+000  0.000000e+000  0.000000e+000
      vertex  1.175000e+002  0.000000e+000  5.000000e+000
      vertex  4.000000e+000  0.000000e+000  5.000000e+000
    endloop
  endfacet
  facet normal  -0.000000e+000 -1.000000e+000  0.000000e+000
    outer loop
      vertex  0.000000e+000  0.000000e+000  0.000000e+000
      vertex  4.000000e+000  0.000000e+000  5.000000e+000
      vertex  0.000000e+000  0.000000e+000  6.000000e+000
    endloop
  endfacet
  facet normal  0.000000e+000 -1.000000e+000  0.000000e+000
    outer loop
      vertex  0.000000e+000  0.000000e+000  6.000000e+000
      vertex  4.000000e+000  0.000000e+000  5.000000e+000
      vertex  4.000000e+000  0.000000e+000  6.000000e+000
    endloop
  endfacet
  facet normal  1.000000e+000  -0.000000e+000  0.000000e+000
    outer loop
      vertex  1.215000e+002  6.800000e+001  6.000000e+000
      vertex  1.215000e+002  6.200000e+001  6.000000e+000
      vertex  1.215000e+002  6.800000e+001  0.000000e+000
    endloop
  endfacet
  facet normal  1.000000e+000  0.000000e+000  0.000000e+000
    outer loop
      vertex  1.215000e+002  6.800000e+001  0.000000e+000
      vertex  1.215000e+002  6.200000e+001  6.000000e+000
      vertex  1.215000e+002  6.200000e+001  5.000000e+000
    endloop
  endfacet
  facet normal  1.000000e+000  0.000000e+000  0.000000e+000
    outer loop
      vertex  1.215000e+002  6.800000e+001  0.000000e+000
      vertex  1.215000e+002  6.200000e+001  5.000000e+000
      vertex  1.215000e+002  0.000000e+000  0.000000e+000
    endloop
  endfacet
  facet normal  1.000000e+000  0.000000e+000  0.000000e+000
    outer loop
      vertex  1.215000e+002  0.000000e+000  0.000000e+000
      vertex  1.215000e+002  6.200000e+001  5.000000e+000
      vertex  1.215000e+002  6.000000e+000  5.000000e+000
    endloop
  endfacet
  facet normal  1.000000e+000  0.000000e+000  0.000000e+000
    outer loop
      vertex  1.215000e+002  0.000000e+000  0.000000e+000
      vertex  1.215000e+002  6.000000e+000  5.000000e+000
      vertex  1.215000e+002  0.000000e+000  6.000000e+000
    endloop
  endfacet
  facet normal  1.000000e+000  -0.000000e+000  0.000000e+000
    outer loop
      vertex  1.215000e+002  0.000000e+000  6.000000e+000
      vertex  1.215000e+002  6.000000e+000  5.000000e+000
      vertex  1.215000e+002  6.000000e+000  6.000000e+000
    endloop
  endfacet
  facet normal -1.000000e+000  0.000000e+000  0.000000e+000
    outer loop
      vertex  1.175000e+002  6.800000e+001  6.000000e+000
      vertex  1.175000e+002  6.800000e+001  5.000000e+000
      vertex  1.175000e+002  6.200000e+001  6.000000e+000
    endloop
  endfacet
  facet normal -1.000000e+000  0.000000e+000  0.000000e+000
    outer loop
      vertex  1.175000e+002  6.200000e+001  6.000000e+000
      vertex  1.175000e+002  6.800000e+001  5.000000e+000
      vertex  1.175000e+002  6.400000e+001  5.000000e+000
    endloop
  endfacet
  facet normal -1.000000e+000  0.000000e+000  0.000000e+000
    outer loop
      vertex  1.175000e+002  6.200000e+001  6.000000e+000
      vertex  1.175000e+002  6.400000e+001  5.000000e+000
      vertex  1.175000e+002  6.200000e+001  5.000000e+000
    endloop
  endfacet
  facet normal -1.000000e+000  0.000000e+000  0.000000e+000
    outer loop
      vertex  1.175000e+002  6.200000e+001  5.000000e+000
      vertex  1.175000e+002  6.400000e+001  5.000000e+000
      vertex  1.175000e+002  6.400000e+001  0.000000e+000
    endloop
  endfacet
  facet normal -1.000000e+000  0.000000e+000  0.000000e+000
    outer loop
      vertex  1.175000e+002  6.200000e+001  5.000000e+000
      vertex  1.175000e+002  6.400000e+001  0.000000e+000
      vertex  1.175000e+002  3.550000e+001  5.000000e+000
    endloop
  endfacet
  facet normal -1.000000e+000  0.000000e+000  0.000000e+000
    outer loop
      vertex  1.175000e+002  3.550000e+001  5.000000e+000
      vertex  1.175000e+002  6.400000e+001  0.000000e+000
      vertex  1.175000e+002  3.550000e+001  0.000000e+000
    endloop
  endfacet
  facet normal  1.000000e+000  0.000000e+000  0.000000e+000
    outer loop
      vertex  4.000000e+000  3.550000e+001  5.000000e+000
      vertex  4.000000e+000  3.550000e+001  0.000000e+000
      vertex  4.000000e+000  6.200000e+001  5.000000e+000
    endloop
  endfacet
  facet normal  1.000000e+000  0.000000e+000  0.000000e+000
    outer loop
      vertex  4.000000e+000  6.200000e+001  5.000000e+000
      vertex  4.000000e+000  3.550000e+001  0.000000e+000
      vertex  4.000000e+000  6.400000e+001  0.000000e+000
    endloop
  endfacet
  facet normal  1.000000e+000  0.000000e+000  0.000000e+000
    outer loop
      vertex  4.000000e+000  6.200000e+001  5.000000e+000
      vertex  4.000000e+000  6.400000e+001  0.000000e+000
      vertex  4.000000e+000  6.200000e+001  6.000000e+000
    endloop
  endfacet
  facet normal  1.000000e+000  0.000000e+000  0.000000e+000
    outer loop
      vertex  4.000000e+000  6.200000e+001  6.000000e+000
      vertex  4.000000e+000  6.400000e+001  0.000000e+000
      vertex  4.000000e+000  6.400000e+001  5.000000e+000
    endloop
  endfacet
  facet normal  1.000000e+000  0.000000e+000  -0.000000e+000
    outer loop
      vertex  4.000000e+000  6.200000e+001  6.000000e+000
      vertex  4.000000e+000  6.400000e+001  5.000000e+000
      vertex  4.000000e+000  6.800000e+001  6.000000e+000
    endloop
  endfacet
  facet normal  1.000000e+000  0.000000e+000  0.000000e+000
    outer loop
      vertex  4.000000e+000  6.800000e+001  6.000000e+000
      vertex  4.000000e+000  6.400000e+001  5.000000e+000
      vertex  4.000000e+000  6.800000e+001  5.000000e+000
    endloop
  endfacet
  facet normal -1.000000e+000  0.000000e+000  0.000000e+000
    outer loop
      vertex  1.175000e+002  3.150000e+001  5.000000e+000
      vertex  1.175000e+002  3.150000e+001  0.000000e+000
      vertex  1.175000e+002  6.000000e+000  5.000000e+000
    endloop
  endfacet
  facet normal -1.000000e+000  0.000000e+000  -0.000000e+000
    outer loop
      vertex  1.175000e+002  6.000000e+000  5.000000e+000
      vertex  1.175000e+002  3.150000e+001  0.000000e+000
      vertex  1.175000e+002  4.000000e+000  0.000000e+000
    endloop
  endfacet
  facet normal -1.000000e+000  0.000000e+000  0.000000e+000
    outer loop
      vertex  1.175000e+002  6.000000e+000  5.000000e+000
      vertex  1.175000e+002  4.000000e+000  0.000000e+000
      vertex  1.175000e+002  6.000000e+000  6.000000e+000
    endloop
  endfacet
  facet normal -1.000000e+000  0.000000e+000  0.000000e+000
    outer loop
      vertex  1.175000e+002  6.000000e+000  6.000000e+000
      vertex  1.175000e+002  4.000000e+000  0.000000e+000
      vertex  1.175000e+002  4.000000e+000  5.000000e+000
    endloop
  endfacet
  facet normal -1.000000e+000  0.000000e+000  0.000000e+000
    outer loop
      vertex  1.175000e+002  6.000000e+000  6.000000e+000
      vertex  1.175000e+002  4.000000e+000  5.000000e+000
      vertex  1.175000e+002  0.000000e+000  6.000000e+000
    endloop
  endfacet
  facet normal -1.000000e+000  0.000000e+000  0.000000e+000
    outer loop
      vertex  1.175000e+002  0.000000e+000  6.000000e+000
      vertex  1.175000e+002  4.000000e+000  5.000000e+000
      vertex  1.175000e+002  0.000000e+000  5.000000e+000
    endloop
  endfacet
  facet normal  0.000000e+000  1.000000e+000  0.000000e+000
    outer loop
      vertex  8.881784e-016  6.800000e+001  6.000000e+000
      vertex  4.000000e+000  6.800000e+001  6.000000e+000
      vertex  1.421085e-014  6.800000e+001  0.000000e+000
    endloop
  endfacet
  facet normal  0.000000e+000  1.000000e+000  0.000000e+000
    outer loop
      vertex  1.421085e-014  6.800000e+001  0.000000e+000
      vertex  4.000000e+000  6.800000e+001  6.000000e+000
      vertex  4.000000e+000  6.800000e+001  5.000000e+000
    endloop
  endfacet
  facet normal  0.000000e+000  1.000000e+000  0.000000e+000
    outer loop
      vertex  1.421085e-014  6.800000e+001  0.000000e+000
      vertex  4.000000e+000  6.800000e+001  5.000000e+000
      vertex  1.215000e+002  6.800000e+001  0.000000e+000
    endloop
  endfacet
  facet normal  0.000000e+000  1.000000e+000  0.000000e+000
    outer loop
      vertex  1.215000e+002  6.800000e+001  0.000000e+000
      vertex  4.000000e+000  6.800000e+001  5.000000e+000
      vertex  1.175000e+002  6.800000e+001  5.000000e+000
    endloop
  endfacet
  facet normal  -0.000000e+000  1.000000e+000  0.000000e+000
    outer loop
      vertex  1.215000e+002  6.800000e+001  0.000000e+000
      vertex  1.175000e+002  6.800000e+001  5.000000e+000
      vertex  1.215000e+002  6.800000e+001  6.000000e+000
    endloop
  endfacet
  facet normal  0.000000e+000  1.000000e+000  0.000000e+000
    outer loop
      vertex  1.215000e+002  6.800000e+001  6.000000e+000
      vertex  1.175000e+002  6.800000e+001  5.000000e+000
      vertex  1.175000e+002  6.800000e+001  6.000000e+000
    endloop
  endfacet
  facet normal  0.000000e+000  0.000000e+000  1.000000e+000
    outer loop
      vertex  1.175000e+002  6.200000e+001  6.000000e+000
      vertex  1.215000e+002  6.200000e+001  6.000000e+000
      vertex  1.175000e+002  6.800000e+001  6.000000e+000
    endloop
  endfacet
  facet normal  -0.000000e+000  0.000000e+000  1.000000e+000
    outer loop
      vertex  1.175000e+002  6.800000e+001  6.000000e+000
      vertex  1.215000e+002  6.200000e+001  6.000000e+000
      vertex  1.215000e+002  6.800000e+001  6.000000e+000
    endloop
  endfacet
  facet normal  0.000000e+000  0.000000e+000  1.000000e+000
    outer loop
      vertex  0.000000e+000  6.200000e+001  6.000000e+000
      vertex  4.000000e+000  6.200000e+001  6.000000e+000
      vertex  8.881784e-016  6.800000e+001  6.000000e+000
    endloop
  endfacet
  facet normal  -0.000000e+000  0.000000e+000  1.000000e+000
    outer loop
      vertex  8.881784e-016  6.800000e+001  6.000000e+000
      vertex  4.000000e+000  6.200000e+001  6.000000e+000
      vertex  4.000000e+000  6.800000e+001  6.000000e+000
    endloop
  endfacet
  facet normal  0.000000e+000  0.000000e+000  1.000000e+000
    outer loop
      vertex  1.175000e+002  0.000000e+000  6.000000e+000
      vertex  1.215000e+002  0.000000e+000  6.000000e+000
      vertex  1.175000e+002  6.000000e+000  6.000000e+000
    endloop
  endfacet
  facet normal  -0.000000e+000  0.000000e+000  1.000000e+000
    outer loop
      vertex  1.175000e+002  6.000000e+000  6.000000e+000
      vertex  1.215000e+002  0.000000e+000  6.000000e+000
      vertex  1.215000e+002  6.000000e+000  6.000000e+000
    endloop
  endfacet
  facet normal  -0.000000e+000  0.000000e+000  1.000000e+000
    outer loop
      vertex  2.900000e+001  4.000000e+000  5.000000e+000
      vertex  4.000000e+000  4.000000e+000  5.000000e+000
      vertex  4.000000e+000  0.000000e+000  5.000000e+000
    endloop
  endfacet
  facet normal  0.000000e+000  0.000000e+000  1.000000e+000
    outer loop
      vertex  2.900000e+001  4.000000e+000  5.000000e+000
      vertex  4.000000e+000  0.000000e+000  5.000000e+000
      vertex  3.300000e+001  4.000000e+000  5.000000e+000
    endloop
  endfacet
  facet normal  0.000000e+000  -0.000000e+000  9.999999e-001
    outer loop
      vertex  2.900000e+001  4.000000e+000  5.000000e+000
      vertex  3.300000e+001  4.000000e+000  5.000000e+000
      vertex  3.300000e+001  3.150000e+001  5.000000e+000
    endloop
  endfacet
  facet normal  0.000000e+000  0.000000e+000  9.999999e-001
    outer loop
      vertex  2.900000e+001  4.000000e+000  5.000000e+000
      vertex  3.300000e+001  3.150000e+001  5.000000e+000
      vertex  2.900000e+001  3.150000e+001  5.000000e+000
    endloop
  endfacet
  facet normal  0.000000e+000  0.000000e+000  1.000000e+000
    outer loop
      vertex  4.000000e+000  3.550000e+001  5.000000e+000
      vertex  4.000000e+000  6.200000e+001  5.000000e+000
      vertex  0.000000e+000  6.200000e+001  5.000000e+000
    endloop
  endfacet
  facet normal  0.000000e+000  0.000000e+000  1.000000e+000
    outer loop
      vertex  4.000000e+000  3.550000e+001  5.000000e+000
      vertex  0.000000e+000  6.200000e+001  5.000000e+000
      vertex  4.000000e+000  3.150000e+001  5.000000e+000
    endloop
  endfacet
  facet normal  0.000000e+000  0.000000e+000  1.000000e+000
    outer loop
      vertex  4.000000e+000  3.550000e+001  5.000000e+000
      vertex  4.000000e+000  3.150000e+001  5.000000e+000
      vertex  2.900000e+001  3.150000e+001  5.000000e+000
    endloop
  endfacet
  facet normal  0.000000e+000  -0.000000e+000  1.000000e+000
    outer loop
      vertex  4.000000e+000  3.550000e+001  5.000000e+000
      vertex  2.900000e+001  3.150000e+001  5.000000e+000
      vertex  3.300000e+001  3.150000e+001  5.000000e+000
    endloop
  endfacet
  facet normal  0.000000e+000  -0.000000e+000  1.000000e+000
    outer loop
      vertex  4.000000e+000  3.550000e+001  5.000000e+000
      vertex  3.300000e+001  3.150000e+001  5.000000e+000
      vertex  5.800000e+001  3.150000e+001  5.000000e+000
    endloop
  endfacet
  facet normal  0.000000e+000  -0.000000e+000  1.000000e+000
    outer loop
      vertex  4.000000e+000  3.550000e+001  5.000000e+000
      vertex  5.800000e+001  3.150000e+001  5.000000e+000
      vertex  6.200000e+001  3.150000e+001  5.000000e+000
    endloop
  endfacet
  facet normal  0.000000e+000  -0.000000e+000  1.000000e+000
    outer loop
      vertex  4.000000e+000  3.550000e+001  5.000000e+000
      vertex  6.200000e+001  3.150000e+001  5.000000e+000
      vertex  8.700000e+001  3.150000e+001  5.000000e+000
    endloop
  endfacet
  facet normal  0.000000e+000  -0.000000e+000  1.000000e+000
    outer loop
      vertex  4.000000e+000  3.550000e+001  5.000000e+000
      vertex  8.700000e+001  3.150000e+001  5.000000e+000
      vertex  9.100000e+001  3.150000e+001  5.000000e+000
    endloop
  endfacet
  facet normal  0.000000e+000  -0.000000e+000  1.000000e+000
    outer loop
      vertex  4.000000e+000  3.550000e+001  5.000000e+000
      vertex  9.100000e+001  3.150000e+001  5.000000e+000
      vertex  1.160000e+002  3.150000e+001  5.000000e+000
    endloop
  endfacet
  facet normal  0.000000e+000  -0.000000e+000  1.000000e+000
    outer loop
      vertex  4.000000e+000  3.550000e+001  5.000000e+000
      vertex  1.160000e+002  3.150000e+001  5.000000e+000
      vertex  1.175000e+002  3.150000e+001  5.000000e+000
    endloop
  endfacet
  facet normal  0.000000e+000  -0.000000e+000  9.999999e-001
    outer loop
      vertex  4.000000e+000  3.550000e+001  5.000000e+000
      vertex  1.175000e+002  3.150000e+001  5.000000e+000
      vertex  1.175000e+002  3.550000e+001  5.000000e+000
    endloop
  endfacet
  facet normal  -0.000000e+000  0.000000e+000  1.000000e+000
    outer loop
      vertex  1.215000e+002  6.200000e+001  5.000000e+000
      vertex  1.175000e+002  6.200000e+001  5.000000e+000
      vertex  1.175000e+002  3.550000e+001  5.000000e+000
    endloop
  endfacet
  facet normal  -0.000000e+000  0.000000e+000  1.000000e+000
    outer loop
      vertex  1.215000e+002  6.200000e+001  5.000000e+000
      vertex  1.175000e+002  3.550000e+001  5.000000e+000
      vertex  1.175000e+002  3.150000e+001  5.000000e+000
    endloop
  endfacet
  facet normal  -0.000000e+000  0.000000e+000  1.000000e+000
    outer loop
      vertex  1.215000e+002  6.200000e+001  5.000000e+000
      vertex  1.175000e+002  3.150000e+001  5.000000e+000
      vertex  1.175000e+002  6.000000e+000  5.000000e+000
    endloop
  endfacet
  facet normal  0.000000e+000  0.000000e+000  1.000000e+000
    outer loop
      vertex  1.215000e+002  6.200000e+001  5.000000e+000
      vertex  1.175000e+002  6.000000e+000  5.000000e+000
      vertex  1.215000e+002  6.000000e+000  5.000000e+000
    endloop
  endfacet
  facet normal  0.000000e+000  -0.000000e+000  9.999999e-001
    outer loop
      vertex  4.000000e+000  0.000000e+000  5.000000e+000
      vertex  1.175000e+002  0.000000e+000  5.000000e+000
      vertex  1.175000e+002  4.000000e+000  5.000000e+000
    endloop
  endfacet
  facet normal  0.000000e+000  0.000000e+000  1.000000e+000
    outer loop
      vertex  4.000000e+000  0.000000e+000  5.000000e+000
      vertex  1.175000e+002  4.000000e+000  5.000000e+000
      vertex  1.160000e+002  4.000000e+000  5.000000e+000
    endloop
  endfacet
  facet normal  0.000000e+000  0.000000e+000  1.000000e+000
    outer loop
      vertex  4.000000e+000  0.000000e+000  5.000000e+000
      vertex  1.160000e+002  4.000000e+000  5.000000e+000
      vertex  9.100000e+001  4.000000e+000  5.000000e+000
    endloop
  endfacet
  facet normal  0.000000e+000  0.000000e+000  1.000000e+000
    outer loop
      vertex  4.000000e+000  0.000000e+000  5.000000e+000
      vertex  9.100000e+001  4.000000e+000  5.000000e+000
      vertex  8.700000e+001  4.000000e+000  5.000000e+000
    endloop
  endfacet
  facet normal  0.000000e+000  0.000000e+000  1.000000e+000
    outer loop
      vertex  4.000000e+000  0.000000e+000  5.000000e+000
      vertex  8.700000e+001  4.000000e+000  5.000000e+000
      vertex  6.200000e+001  4.000000e+000  5.000000e+000
    endloop
  endfacet
  facet normal  0.000000e+000  0.000000e+000  1.000000e+000
    outer loop
      vertex  4.000000e+000  0.000000e+000  5.000000e+000
      vertex  6.200000e+001  4.000000e+000  5.000000e+000
      vertex  5.800000e+001  4.000000e+000  5.000000e+000
    endloop
  endfacet
  facet normal  0.000000e+000  0.000000e+000  1.000000e+000
    outer loop
      vertex  4.000000e+000  0.000000e+000  5.000000e+000
      vertex  5.800000e+001  4.000000e+000  5.000000e+000
      vertex  3.300000e+001  4.000000e+000  5.000000e+000
    endloop
  endfacet
  facet normal  0.000000e+000  0.000000e+000  1.000000e+000
    outer loop
      vertex  0.000000e+000  6.000000e+000  5.000000e+000
      vertex  4.000000e+000  6.000000e+000  5.000000e+000
      vertex  0.000000e+000  6.200000e+001  5.000000e+000
    endloop
  endfacet
  facet normal  0.000000e+000  0.000000e+000  1.000000e+000
    outer loop
      vertex  0.000000e+000  6.200000e+001  5.000000e+000
      vertex  4.000000e+000  6.000000e+000  5.000000e+000
      vertex  4.000000e+000  3.150000e+001  5.000000e+000
    endloop
  endfacet
  facet normal  0.000000e+000  0.000000e+000  9.999999e-001
    outer loop
      vertex  5.800000e+001  4.000000e+000  5.000000e+000
      vertex  6.200000e+001  4.000000e+000  5.000000e+000
      vertex  5.800000e+001  3.150000e+001  5.000000e+000
    endloop
  endfacet
  facet normal  -0.000000e+000  0.000000e+000  9.999999e-001
    outer loop
      vertex  5.800000e+001  3.150000e+001  5.000000e+000
      vertex  6.200000e+001  4.000000e+000  5.000000e+000
      vertex  6.200000e+001  3.150000e+001  5.000000e+000
    endloop
  endfacet
  facet normal  0.000000e+000  0.000000e+000  9.999999e-001
    outer loop
      vertex  8.700000e+001  4.000000e+000  5.000000e+000
      vertex  9.100000e+001  4.000000e+000  5.000000e+000
      vertex  8.700000e+001  3.150000e+001  5.000000e+000
    endloop
  endfacet
  facet normal  -0.000000e+000  0.000000e+000  9.999999e-001
    outer loop
      vertex  8.700000e+001  3.150000e+001  5.000000e+000
      vertex  9.100000e+001  4.000000e+000  5.000000e+000
      vertex  9.100000e+001  3.150000e+001  5.000000e+000
    endloop
  endfacet
  facet normal  0.000000e+000  0.000000e+000  9.999999e-001
    outer loop
      vertex  4.000000e+000  6.400000e+001  5.000000e+000
      vertex  1.175000e+002  6.400000e+001  5.000000e+000
      vertex  4.000000e+000  6.800000e+001  5.000000e+000
    endloop
  endfacet
  facet normal  -0.000000e+000  0.000000e+000  9.999999e-001
    outer loop
      vertex  4.000000e+000  6.800000e+001  5.000000e+000
      vertex  1.175000e+002  6.400000e+001  5.000000e+000
      vertex  1.175000e+002  6.800000e+001  5.000000e+000
    endloop
  endfacet
  facet normal  0.000000e+000  1.000000e+000  -0.000000e+000
    outer loop
      vertex  1.175000e+002  4.000000e+000  5.000000e+000
      vertex  1.175000e+002  4.000000e+000  0.000000e+000
      vertex  1.160000e+002  4.000000e+000  5.000000e+000
    endloop
  endfacet
  facet normal  0.000000e+000  1.000000e+000  0.000000e+000
    outer loop
      vertex  1.160000e+002  4.000000e+000  5.000000e+000
      vertex  1.175000e+002  4.000000e+000  0.000000e+000
      vertex  1.160000e+002  4.000000e+000  0.000000e+000
    endloop
  endfacet
  facet normal  0.000000e+000  1.000000e+000  -0.000000e+000
    outer loop
      vertex  1.160000e+002  4.000000e+000  5.000000e+000
      vertex  1.160000e+002  4.000000e+000  0.000000e+000
      vertex  9.100000e+001  4.000000e+000  5.000000e+000
    endloop
  endfacet
  facet normal  0.000000e+000  1.000000e+000  0.000000e+000
    outer loop
      vertex  9.100000e+001  4.000000e+000  5.000000e+000
      vertex  1.160000e+002  4.000000e+000  0.000000e+000
      vertex  9.100000e+001  4.000000e+000  0.000000e+000
    endloop
  endfacet
  facet normal  0.000000e+000 -1.000000e+000  0.000000e+000
    outer loop
      vertex  4.000000e+000  6.400000e+001  0.000000e+000
      vertex  1.175000e+002  6.400000e+001  0.000000e+000
      vertex  4.000000e+000  6.400000e+001  5.000000e+000
    endloop
  endfacet
  facet normal  0.000000e+000 -1.000000e+000  0.000000e+000
    outer loop
      vertex  4.000000e+000  6.400000e+001  5.000000e+000
      vertex  1.175000e+002  6.400000e+001  0.000000e+000
      vertex  1.175000e+002  6.400000e+001  5.000000e+000
    endloop
  endfacet
  facet normal  0.000000e+000 -1.000000e+000  0.000000e+000
    outer loop
      vertex  1.175000e+002  6.200000e+001  6.000000e+000
      vertex  1.175000e+002  6.200000e+001  5.000000e+000
      vertex  1.215000e+002  6.200000e+001  6.000000e+000
    endloop
  endfacet
  facet normal  0.000000e+000 -1.000000e+000  -0.000000e+000
    outer loop
      vertex  1.215000e+002  6.200000e+001  6.000000e+000
      vertex  1.175000e+002  6.200000e+001  5.000000e+000
      vertex  1.215000e+002  6.200000e+001  5.000000e+000
    endloop
  endfacet
  facet normal  0.000000e+000  1.000000e+000  -0.000000e+000
    outer loop
      vertex  1.215000e+002  6.000000e+000  6.000000e+000
      vertex  1.215000e+002  6.000000e+000  5.000000e+000
      vertex  1.175000e+002  6.000000e+000  6.000000e+000
    endloop
  endfacet
  facet normal  0.000000e+000  1.000000e+000  0.000000e+000
    outer loop
      vertex  1.175000e+002  6.000000e+000  6.000000e+000
      vertex  1.215000e+002  6.000000e+000  5.000000e+000
      vertex  1.175000e+002  6.000000e+000  5.000000e+000
    endloop
  endfacet
  facet normal  0.000000e+000 -1.000000e+000  0.000000e+000
    outer loop
      vertex  0.000000e+000  6.200000e+001  6.000000e+000
      vertex  0.000000e+000  6.200000e+001  5.000000e+000
      vertex  4.000000e+000  6.200000e+001  6.000000e+000
    endloop
  endfacet
  facet normal  0.000000e+000 -1.000000e+000  -0.000000e+000
    outer loop
      vertex  4.000000e+000  6.200000e+001  6.000000e+000
      vertex  0.000000e+000  6.200000e+001  5.000000e+000
      vertex  4.000000e+000  6.200000e+001  5.000000e+000
    endloop
  endfacet
  facet normal  0.000000e+000  0.000000e+000  1.000000e+000
    outer loop
      vertex  0.000000e+000  0.000000e+000  6.000000e+000
      vertex  4.000000e+000  0.000000e+000  6.000000e+000
      vertex  8.881784e-016  6.000000e+000  6.000000e+000
    endloop
  endfacet
  facet normal  -0.000000e+000  0.000000e+000  1.000000e+000
    outer loop
      vertex  8.881784e-016  6.000000e+000  6.000000e+000
      vertex  4.000000e+000  0.000000e+000  6.000000e+000
      vertex  4.000000e+000  6.000000e+000  6.000000e+000
    endloop
  endfacet
  facet normal  1.000000e+000  0.000000e+000  0.000000e+000
    outer loop
      vertex  4.000000e+000  0.000000e+000  6.000000e+000
      vertex  4.000000e+000  0.000000e+000  5.000000e+000
      vertex  4.000000e+000  6.000000e+000  6.000000e+000
    endloop
  endfacet
  facet normal  1.000000e+000  0.000000e+000  0.000000e+000
    outer loop
      vertex  4.000000e+000  6.000000e+000  6.000000e+000
      vertex  4.000000e+000  0.000000e+000  5.000000e+000
      vertex  4.000000e+000  4.000000e+000  5.000000e+000
    endloop
  endfacet
  facet normal  1.000000e+000  0.000000e+000  0.000000e+000
    outer loop
      vertex  4.000000e+000  6.000000e+000  6.000000e+000
      vertex  4.000000e+000  4.000000e+000  5.000000e+000
      vertex  4.000000e+000  6.000000e+000  5.000000e+000
    endloop
  endfacet
  facet normal  1.000000e+000  0.000000e+000  0.000000e+000
    outer loop
      vertex  4.000000e+000  6.000000e+000  5.000000e+000
      vertex  4.000000e+000  4.000000e+000  5.000000e+000
      vertex  4.000000e+000  4.000000e+000  0.000000e+000
    endloop
  endfacet
  facet normal  1.000000e+000  0.000000e+000  0.000000e+000
    outer loop
      vertex  4.000000e+000  6.000000e+000  5.000000e+000
      vertex  4.000000e+000  4.000000e+000  0.000000e+000
      vertex  4.000000e+000  3.150000e+001  5.000000e+000
    endloop
  endfacet
  facet normal  1.000000e+000  0.000000e+000  0.000000e+000
    outer loop
      vertex  4.000000e+000  3.150000e+001  5.000000e+000
      vertex  4.000000e+000  4.000000e+000  0.000000e+000
      vertex  4.000000e+000  3.150000e+001  0.000000e+000
    endloop
  endfacet
  facet normal  0.000000e+000  1.000000e+000  -0.000000e+000
    outer loop
      vertex  4.000000e+000  6.000000e+000  6.000000e+000
      vertex  4.000000e+000  6.000000e+000  5.000000e+000
      vertex  8.881784e-016  6.000000e+000  6.000000e+000
    endloop
  endfacet
  facet normal  0.000000e+000  1.000000e+000  0.000000e+000
    outer loop
      vertex  8.881784e-016  6.000000e+000  6.000000e+000
      vertex  4.000000e+000  6.000000e+000  5.000000e+000
      vertex  0.000000e+000  6.000000e+000  5.000000e+000
    endloop
  endfacet
  facet normal  0.000000e+000  1.000000e+000  0.000000e+000
    outer loop
      vertex  4.000000e+000  4.000000e+000  0.000000e+000
      vertex  4.000000e+000  4.000000e+000  5.000000e+000
      vertex  2.900000e+001  4.000000e+000  0.000000e+000
    endloop
  endfacet
  facet normal  0.000000e+000  1.000000e+000  -0.000000e+000
    outer loop
      vertex  2.900000e+001  4.000000e+000  0.000000e+000
      vertex  4.000000e+000  4.000000e+000  5.000000e+000
      vertex  2.900000e+001  4.000000e+000  5.000000e+000
    endloop
  endfacet
  facet normal  0.000000e+000 -1.000000e+000  0.000000e+000
    outer loop
      vertex  9.100000e+001  3.150000e+001  5.000000e+000
      vertex  9.100000e+001  3.150000e+001  0.000000e+000
      vertex  1.160000e+002  3.150000e+001  5.000000e+000
    endloop
  endfacet
  facet normal  0.000000e+000 -1.000000e+000  -0.000000e+000
    outer loop
      vertex  1.160000e+002  3.150000e+001  5.000000e+000
      vertex  9.100000e+001  3.150000e+001  0.000000e+000
      vertex  1.160000e+002  3.150000e+001  0.000000e+000
    endloop
  endfacet
  facet normal  0.000000e+000 -1.000000e+000  0.000000e+000
    outer loop
      vertex  1.160000e+002  3.150000e+001  5.000000e+000
      vertex  1.160000e+002  3.150000e+001  0.000000e+000
      vertex  1.175000e+002  3.150000e+001  5.000000e+000
    endloop
  endfacet
  facet normal  0.000000e+000 -1.000000e+000  -0.000000e+000
    outer loop
      vertex  1.175000e+002  3.150000e+001  5.000000e+000
      vertex  1.160000e+002  3.150000e+001  0.000000e+000
      vertex  1.175000e+002  3.150000e+001  0.000000e+000
    endloop
  endfacet
  facet normal  1.000000e+000  0.000000e+000  0.000000e+000
    outer loop
      vertex  9.100000e+001  3.150000e+001  0.000000e+000
      vertex  9.100000e+001  3.150000e+001  5.000000e+000
      vertex  9.100000e+001  4.000000e+000  0.000000e+000
    endloop
  endfacet
  facet normal  1.000000e+000  0.000000e+000  0.000000e+000
    outer loop
      vertex  9.100000e+001  4.000000e+000  0.000000e+000
      vertex  9.100000e+001  3.150000e+001  5.000000e+000
      vertex  9.100000e+001  4.000000e+000  5.000000e+000
    endloop
  endfacet
  facet normal  1.000000e+000  0.000000e+000  0.000000e+000
    outer loop
      vertex  6.200000e+001  3.150000e+001  0.000000e+000
      vertex  6.200000e+001  3.150000e+001  5.000000e+000
      vertex  6.200000e+001  4.000000e+000  0.000000e+000
    endloop
  endfacet
  facet normal  1.000000e+000  0.000000e+000  0.000000e+000
    outer loop
      vertex  6.200000e+001  4.000000e+000  0.000000e+000
      vertex  6.200000e+001  3.150000e+001  5.000000e+000
      vertex  6.200000e+001  4.000000e+000  5.000000e+000
    endloop
  endfacet
  facet normal  0.000000e+000 -1.000000e+000  -0.000000e+000
    outer loop
      vertex  8.700000e+001  3.150000e+001  0.000000e+000
      vertex  8.700000e+001  3.150000e+001  5.000000e+000
      vertex  6.200000e+001  3.150000e+001  0.000000e+000
    endloop
  endfacet
  facet normal  0.000000e+000 -1.000000e+000  0.000000e+000
    outer loop
      vertex  6.200000e+001  3.150000e+001  0.000000e+000
      vertex  8.700000e+001  3.150000e+001  5.000000e+000
      vertex  6.200000e+001  3.150000e+001  5.000000e+000
    endloop
  endfacet
  facet normal -1.000000e+000  0.000000e+000  0.000000e+000
    outer loop
      vertex  8.700000e+001  4.000000e+000  0.000000e+000
      vertex  8.700000e+001  4.000000e+000  5.000000e+000
      vertex  8.700000e+001  3.150000e+001  0.000000e+000
    endloop
  endfacet
  facet normal -1.000000e+000  0.000000e+000  0.000000e+000
    outer loop
      vertex  8.700000e+001  3.150000e+001  0.000000e+000
      vertex  8.700000e+001  4.000000e+000  5.000000e+000
      vertex  8.700000e+001  3.150000e+001  5.000000e+000
    endloop
  endfacet
  facet normal  0.000000e+000  1.000000e+000  0.000000e+000
    outer loop
      vertex  6.200000e+001  4.000000e+000  0.000000e+000
      vertex  6.200000e+001  4.000000e+000  5.000000e+000
      vertex  8.700000e+001  4.000000e+000  0.000000e+000
    endloop
  endfacet
  facet normal  0.000000e+000  1.000000e+000  -0.000000e+000
    outer loop
      vertex  8.700000e+001  4.000000e+000  0.000000e+000
      vertex  6.200000e+001  4.000000e+000  5.000000e+000
      vertex  8.700000e+001  4.000000e+000  5.000000e+000
    endloop
  endfacet
  facet normal  1.000000e+000  0.000000e+000  0.000000e+000
    outer loop
      vertex  3.300000e+001  3.150000e+001  0.000000e+000
      vertex  3.300000e+001  3.150000e+001  5.000000e+000
      vertex  3.300000e+001  4.000000e+000  0.000000e+000
    endloop
  endfacet
  facet normal  1.000000e+000  0.000000e+000  0.000000e+000
    outer loop
      vertex  3.300000e+001  4.000000e+000  0.000000e+000
      vertex  3.300000e+001  3.150000e+001  5.000000e+000
      vertex  3.300000e+001  4.000000e+000  5.000000e+000
    endloop
  endfacet
  facet normal  0.000000e+000 -1.000000e+000  -0.000000e+000
    outer loop
      vertex  5.800000e+001  3.150000e+001  0.000000e+000
      vertex  5.800000e+001  3.150000e+001  5.000000e+000
      vertex  3.300000e+001  3.150000e+001  0.000000e+000
    endloop
  endfacet
  facet normal  0.000000e+000 -1.000000e+000  0.000000e+000
    outer loop
      vertex  3.300000e+001  3.150000e+001  0.000000e+000
      vertex  5.800000e+001  3.150000e+001  5.000000e+000
      vertex  3.300000e+001  3.150000e+001  5.000000e+000
    endloop
  endfacet
  facet normal -1.000000e+000  0.000000e+000  0.000000e+000
    outer loop
      vertex  5.800000e+001  4.000000e+000  0.000000e+000
      vertex  5.800000e+001  4.000000e+000  5.000000e+000
      vertex  5.800000e+001  3.150000e+001  0.000000e+000
    endloop
  endfacet
  facet normal -1.000000e+000  0.000000e+000  0.000000e+000
    outer loop
      vertex  5.800000e+001  3.150000e+001  0.000000e+000
      vertex  5.800000e+001  4.000000e+000  5.000000e+000
      vertex  5.800000e+001  3.150000e+001  5.000000e+000
    endloop
  endfacet
  facet normal  0.000000e+000  1.000000e+000  0.000000e+000
    outer loop
      vertex  3.300000e+001  4.000000e+000  0.000000e+000
      vertex  3.300000e+001  4.000000e+000  5.000000e+000
      vertex  5.800000e+001  4.000000e+000  0.000000e+000
    endloop
  endfacet
  facet normal  0.000000e+000  1.000000e+000  -0.000000e+000
    outer loop
      vertex  5.800000e+001  4.000000e+000  0.000000e+000
      vertex  3.300000e+001  4.000000e+000  5.000000e+000
      vertex  5.800000e+001  4.000000e+000  5.000000e+000
    endloop
  endfacet
  facet normal -1.000000e+000  0.000000e+000  0.000000e+000
    outer loop
      vertex  2.900000e+001  4.000000e+000  0.000000e+000
      vertex  2.900000e+001  4.000000e+000  5.000000e+000
      vertex  2.900000e+001  3.150000e+001  0.000000e+000
    endloop
  endfacet
  facet normal -1.000000e+000  0.000000e+000  0.000000e+000
    outer loop
      vertex  2.900000e+001  3.150000e+001  0.000000e+000
      vertex  2.900000e+001  4.000000e+000  5.000000e+000
      vertex  2.900000e+001  3.150000e+001  5.000000e+000
    endloop
  endfacet
  facet normal  0.000000e+000 -1.000000e+000  -0.000000e+000
    outer loop
      vertex  2.900000e+001  3.150000e+001  0.000000e+000
      vertex  2.900000e+001  3.150000e+001  5.000000e+000
      vertex  4.000000e+000  3.150000e+001  0.000000e+000
    endloop
  endfacet
  facet normal  0.000000e+000 -1.000000e+000  0.000000e+000
    outer loop
      vertex  4.000000e+000  3.150000e+001  0.000000e+000
      vertex  2.900000e+001  3.150000e+001  5.000000e+000
      vertex  4.000000e+000  3.150000e+001  5.000000e+000
    endloop
  endfacet
  facet normal  0.000000e+000  1.000000e+000  0.000000e+000
    outer loop
      vertex  1.175000e+002  3.550000e+001  0.000000e+000
      vertex  4.000000e+000  3.550000e+001  0.000000e+000
      vertex  1.175000e+002  3.550000e+001  5.000000e+000
    endloop
  endfacet
  facet normal  0.000000e+000  1.000000e+000  0.000000e+000
    outer loop
      vertex  1.175000e+002  3.550000e+001  5.000000e+000
      vertex  4.000000e+000  3.550000e+001  0.000000e+000
      vertex  4.000000e+000  3.550000e+001  5.000000e+000
    endloop
  endfacet
endsolid CATIA STL
