solid CATIA STL
  facet normal  0.000000e+000  0.000000e+000 -1.000000e+000
    outer loop
      vertex  0.000000e+000  0.000000e+000  0.000000e+000
      vertex  0.000000e+000  6.800000e+001  0.000000e+000
      vertex  4.000000e+000  6.400000e+001  0.000000e+000
    endloop
  endfacet
  facet normal  0.000000e+000  -0.000000e+000 -1.000000e+000
    outer loop
      vertex  0.000000e+000  0.000000e+000  0.000000e+000
      vertex  4.000000e+000  6.400000e+001  0.000000e+000
      vertex  4.000000e+000  4.000000e+000  0.000000e+000
    endloop
  endfacet
  facet normal  0.000000e+000  -0.000000e+000 -1.000000e+000
    outer loop
      vertex  0.000000e+000  0.000000e+000  0.000000e+000
      vertex  4.000000e+000  4.000000e+000  0.000000e+000
      vertex  1.600000e+001  4.000000e+000  0.000000e+000
    endloop
  endfacet
  facet normal  0.000000e+000  -0.000000e+000 -1.000000e+000
    outer loop
      vertex  0.000000e+000  0.000000e+000  0.000000e+000
      vertex  1.600000e+001  4.000000e+000  0.000000e+000
      vertex  2.000000e+001  4.000000e+000  0.000000e+000
    endloop
  endfacet
  facet normal  0.000000e+000  -0.000000e+000 -1.000000e+000
    outer loop
      vertex  0.000000e+000  0.000000e+000  0.000000e+000
      vertex  2.000000e+001  4.000000e+000  0.000000e+000
      vertex  4.300000e+001  4.000000e+000  0.000000e+000
    endloop
  endfacet
  facet normal  0.000000e+000  -0.000000e+000 -1.000000e+000
    outer loop
      vertex  0.000000e+000  0.000000e+000  0.000000e+000
      vertex  4.300000e+001  4.000000e+000  0.000000e+000
      vertex  4.700000e+001  4.000000e+000  0.000000e+000
    endloop
  endfacet
  facet normal  0.000000e+000  -0.000000e+000 -1.000000e+000
    outer loop
      vertex  0.000000e+000  0.000000e+000  0.000000e+000
      vertex  4.700000e+001  4.000000e+000  0.000000e+000
      vertex  7.000000e+001  4.000000e+000  0.000000e+000
    endloop
  endfacet
  facet normal  0.000000e+000  -0.000000e+000 -1.000000e+000
    outer loop
      vertex  0.000000e+000  0.000000e+000  0.000000e+000
      vertex  7.000000e+001  4.000000e+000  0.000000e+000
      vertex  7.400000e+001  4.000000e+000  0.000000e+000
    endloop
  endfacet
  facet normal  0.000000e+000  -0.000000e+000 -1.000000e+000
    outer loop
      vertex  0.000000e+000  0.000000e+000  0.000000e+000
      vertex  7.400000e+001  4.000000e+000  0.000000e+000
      vertex  9.700000e+001  4.000000e+000  0.000000e+000
    endloop
  endfacet
  facet normal  0.000000e+000  -0.000000e+000 -1.000000e+000
    outer loop
      vertex  0.000000e+000  0.000000e+000  0.000000e+000
      vertex  9.700000e+001  4.000000e+000  0.000000e+000
      vertex  1.010000e+002  4.000000e+000  0.000000e+000
    endloop
  endfacet
  facet normal  0.000000e+000  -0.000000e+000 -1.000000e+000
    outer loop
      vertex  0.000000e+000  0.000000e+000  0.000000e+000
      vertex  1.010000e+002  4.000000e+000  0.000000e+000
      vertex  1.240000e+002  4.000000e+000  0.000000e+000
    endloop
  endfacet
  facet normal  0.000000e+000  -0.000000e+000 -1.000000e+000
    outer loop
      vertex  0.000000e+000  0.000000e+000  0.000000e+000
      vertex  1.240000e+002  4.000000e+000  0.000000e+000
      vertex  1.280000e+002  4.000000e+000  0.000000e+000
    endloop
  endfacet
  facet normal  0.000000e+000  -0.000000e+000 -1.000000e+000
    outer loop
      vertex  0.000000e+000  0.000000e+000  0.000000e+000
      vertex  1.280000e+002  4.000000e+000  0.000000e+000
      vertex  1.510000e+002  4.000000e+000  0.000000e+000
    endloop
  endfacet
  facet normal  0.000000e+000  -0.000000e+000 -1.000000e+000
    outer loop
      vertex  0.000000e+000  0.000000e+000  0.000000e+000
      vertex  1.510000e+002  4.000000e+000  0.000000e+000
      vertex  1.550000e+002  4.000000e+000  0.000000e+000
    endloop
  endfacet
  facet normal  0.000000e+000  -0.000000e+000 -1.000000e+000
    outer loop
      vertex  0.000000e+000  0.000000e+000  0.000000e+000
      vertex  1.550000e+002  4.000000e+000  0.000000e+000
      vertex  1.780000e+002  4.000000e+000  0.000000e+000
    endloop
  endfacet
  facet normal  0.000000e+000  -0.000000e+000 -1.000000e+000
    outer loop
      vertex  0.000000e+000  0.000000e+000  0.000000e+000
      vertex  1.780000e+002  4.000000e+000  0.000000e+000
      vertex  1.820000e+002  4.000000e+000  0.000000e+000
    endloop
  endfacet
  facet normal  0.000000e+000  -0.000000e+000 -1.000000e+000
    outer loop
      vertex  0.000000e+000  0.000000e+000  0.000000e+000
      vertex  1.820000e+002  4.000000e+000  0.000000e+000
      vertex  2.050000e+002  4.000000e+000  0.000000e+000
    endloop
  endfacet
  facet normal  0.000000e+000  -0.000000e+000 -1.000000e+000
    outer loop
      vertex  0.000000e+000  0.000000e+000  0.000000e+000
      vertex  2.050000e+002  4.000000e+000  0.000000e+000
      vertex  2.090000e+002  4.000000e+000  0.000000e+000
    endloop
  endfacet
  facet normal  0.000000e+000  -0.000000e+000 -1.000000e+000
    outer loop
      vertex  0.000000e+000  0.000000e+000  0.000000e+000
      vertex  2.090000e+002  4.000000e+000  0.000000e+000
      vertex  2.230000e+002  4.000000e+000  0.000000e+000
    endloop
  endfacet
  facet normal  0.000000e+000  -0.000000e+000 -9.999999e-001
    outer loop
      vertex  0.000000e+000  0.000000e+000  0.000000e+000
      vertex  2.230000e+002  4.000000e+000  0.000000e+000
      vertex  2.270000e+002  0.000000e+000  0.000000e+000
    endloop
  endfacet
  facet normal  -0.000000e+000  0.000000e+000 -9.999999e-001
    outer loop
      vertex  0.000000e+000  6.800000e+001  0.000000e+000
      vertex  2.270000e+002  6.800000e+001  0.000000e+000
      vertex  2.230000e+002  6.400000e+001  0.000000e+000
    endloop
  endfacet
  facet normal  0.000000e+000  0.000000e+000 -1.000000e+000
    outer loop
      vertex  0.000000e+000  6.800000e+001  0.000000e+000
      vertex  2.230000e+002  6.400000e+001  0.000000e+000
      vertex  2.090000e+002  6.400000e+001  0.000000e+000
    endloop
  endfacet
  facet normal  0.000000e+000  0.000000e+000 -1.000000e+000
    outer loop
      vertex  0.000000e+000  6.800000e+001  0.000000e+000
      vertex  2.090000e+002  6.400000e+001  0.000000e+000
      vertex  2.050000e+002  6.400000e+001  0.000000e+000
    endloop
  endfacet
  facet normal  0.000000e+000  0.000000e+000 -1.000000e+000
    outer loop
      vertex  0.000000e+000  6.800000e+001  0.000000e+000
      vertex  2.050000e+002  6.400000e+001  0.000000e+000
      vertex  1.820000e+002  6.400000e+001  0.000000e+000
    endloop
  endfacet
  facet normal  0.000000e+000  0.000000e+000 -1.000000e+000
    outer loop
      vertex  0.000000e+000  6.800000e+001  0.000000e+000
      vertex  1.820000e+002  6.400000e+001  0.000000e+000
      vertex  1.780000e+002  6.400000e+001  0.000000e+000
    endloop
  endfacet
  facet normal  0.000000e+000  0.000000e+000 -1.000000e+000
    outer loop
      vertex  0.000000e+000  6.800000e+001  0.000000e+000
      vertex  1.780000e+002  6.400000e+001  0.000000e+000
      vertex  1.550000e+002  6.400000e+001  0.000000e+000
    endloop
  endfacet
  facet normal  0.000000e+000  0.000000e+000 -1.000000e+000
    outer loop
      vertex  0.000000e+000  6.800000e+001  0.000000e+000
      vertex  1.550000e+002  6.400000e+001  0.000000e+000
      vertex  1.510000e+002  6.400000e+001  0.000000e+000
    endloop
  endfacet
  facet normal  0.000000e+000  0.000000e+000 -1.000000e+000
    outer loop
      vertex  0.000000e+000  6.800000e+001  0.000000e+000
      vertex  1.510000e+002  6.400000e+001  0.000000e+000
      vertex  1.280000e+002  6.400000e+001  0.000000e+000
    endloop
  endfacet
  facet normal  0.000000e+000  0.000000e+000 -1.000000e+000
    outer loop
      vertex  0.000000e+000  6.800000e+001  0.000000e+000
      vertex  1.280000e+002  6.400000e+001  0.000000e+000
      vertex  1.240000e+002  6.400000e+001  0.000000e+000
    endloop
  endfacet
  facet normal  0.000000e+000  0.000000e+000 -1.000000e+000
    outer loop
      vertex  0.000000e+000  6.800000e+001  0.000000e+000
      vertex  1.240000e+002  6.400000e+001  0.000000e+000
      vertex  1.010000e+002  6.400000e+001  0.000000e+000
    endloop
  endfacet
  facet normal  0.000000e+000  0.000000e+000 -1.000000e+000
    outer loop
      vertex  0.000000e+000  6.800000e+001  0.000000e+000
      vertex  1.010000e+002  6.400000e+001  0.000000e+000
      vertex  9.700000e+001  6.400000e+001  0.000000e+000
    endloop
  endfacet
  facet normal  0.000000e+000  0.000000e+000 -1.000000e+000
    outer loop
      vertex  0.000000e+000  6.800000e+001  0.000000e+000
      vertex  9.700000e+001  6.400000e+001  0.000000e+000
      vertex  7.400000e+001  6.400000e+001  0.000000e+000
    endloop
  endfacet
  facet normal  0.000000e+000  0.000000e+000 -1.000000e+000
    outer loop
      vertex  0.000000e+000  6.800000e+001  0.000000e+000
      vertex  7.400000e+001  6.400000e+001  0.000000e+000
      vertex  7.000000e+001  6.400000e+001  0.000000e+000
    endloop
  endfacet
  facet normal  0.000000e+000  0.000000e+000 -1.000000e+000
    outer loop
      vertex  0.000000e+000  6.800000e+001  0.000000e+000
      vertex  7.000000e+001  6.400000e+001  0.000000e+000
      vertex  4.700000e+001  6.400000e+001  0.000000e+000
    endloop
  endfacet
  facet normal  0.000000e+000  0.000000e+000 -1.000000e+000
    outer loop
      vertex  0.000000e+000  6.800000e+001  0.000000e+000
      vertex  4.700000e+001  6.400000e+001  0.000000e+000
      vertex  4.300000e+001  6.400000e+001  0.000000e+000
    endloop
  endfacet
  facet normal  0.000000e+000  0.000000e+000 -1.000000e+000
    outer loop
      vertex  0.000000e+000  6.800000e+001  0.000000e+000
      vertex  4.300000e+001  6.400000e+001  0.000000e+000
      vertex  2.000000e+001  6.400000e+001  0.000000e+000
    endloop
  endfacet
  facet normal  0.000000e+000  0.000000e+000 -1.000000e+000
    outer loop
      vertex  0.000000e+000  6.800000e+001  0.000000e+000
      vertex  2.000000e+001  6.400000e+001  0.000000e+000
      vertex  1.600000e+001  6.400000e+001  0.000000e+000
    endloop
  endfacet
  facet normal  0.000000e+000  0.000000e+000 -1.000000e+000
    outer loop
      vertex  0.000000e+000  6.800000e+001  0.000000e+000
      vertex  1.600000e+001  6.400000e+001  0.000000e+000
      vertex  4.000000e+000  6.400000e+001  0.000000e+000
    endloop
  endfacet
  facet normal  0.000000e+000  0.000000e+000 -1.000000e+000
    outer loop
      vertex  1.600000e+001  4.000000e+000  0.000000e+000
      vertex  1.600000e+001  6.400000e+001  0.000000e+000
      vertex  2.000000e+001  4.000000e+000  0.000000e+000
    endloop
  endfacet
  facet normal  0.000000e+000  0.000000e+000 -1.000000e+000
    outer loop
      vertex  2.000000e+001  4.000000e+000  0.000000e+000
      vertex  1.600000e+001  6.400000e+001  0.000000e+000
      vertex  2.000000e+001  6.400000e+001  0.000000e+000
    endloop
  endfacet
  facet normal  0.000000e+000  0.000000e+000 -1.000000e+000
    outer loop
      vertex  4.300000e+001  4.000000e+000  0.000000e+000
      vertex  4.300000e+001  6.400000e+001  0.000000e+000
      vertex  4.700000e+001  4.000000e+000  0.000000e+000
    endloop
  endfacet
  facet normal  0.000000e+000  0.000000e+000 -1.000000e+000
    outer loop
      vertex  4.700000e+001  4.000000e+000  0.000000e+000
      vertex  4.300000e+001  6.400000e+001  0.000000e+000
      vertex  4.700000e+001  6.400000e+001  0.000000e+000
    endloop
  endfacet
  facet normal  0.000000e+000  0.000000e+000 -1.000000e+000
    outer loop
      vertex  7.000000e+001  4.000000e+000  0.000000e+000
      vertex  7.000000e+001  6.400000e+001  0.000000e+000
      vertex  7.400000e+001  4.000000e+000  0.000000e+000
    endloop
  endfacet
  facet normal  0.000000e+000  0.000000e+000 -1.000000e+000
    outer loop
      vertex  7.400000e+001  4.000000e+000  0.000000e+000
      vertex  7.000000e+001  6.400000e+001  0.000000e+000
      vertex  7.400000e+001  6.400000e+001  0.000000e+000
    endloop
  endfacet
  facet normal  0.000000e+000  0.000000e+000 -1.000000e+000
    outer loop
      vertex  9.700000e+001  4.000000e+000  0.000000e+000
      vertex  9.700000e+001  6.400000e+001  0.000000e+000
      vertex  1.010000e+002  4.000000e+000  0.000000e+000
    endloop
  endfacet
  facet normal  0.000000e+000  0.000000e+000 -1.000000e+000
    outer loop
      vertex  1.010000e+002  4.000000e+000  0.000000e+000
      vertex  9.700000e+001  6.400000e+001  0.000000e+000
      vertex  1.010000e+002  6.400000e+001  0.000000e+000
    endloop
  endfacet
  facet normal  0.000000e+000  0.000000e+000 -1.000000e+000
    outer loop
      vertex  1.240000e+002  4.000000e+000  0.000000e+000
      vertex  1.240000e+002  6.400000e+001  0.000000e+000
      vertex  1.280000e+002  4.000000e+000  0.000000e+000
    endloop
  endfacet
  facet normal  0.000000e+000  0.000000e+000 -1.000000e+000
    outer loop
      vertex  1.280000e+002  4.000000e+000  0.000000e+000
      vertex  1.240000e+002  6.400000e+001  0.000000e+000
      vertex  1.280000e+002  6.400000e+001  0.000000e+000
    endloop
  endfacet
  facet normal  0.000000e+000  0.000000e+000 -1.000000e+000
    outer loop
      vertex  1.510000e+002  4.000000e+000  0.000000e+000
      vertex  1.510000e+002  6.400000e+001  0.000000e+000
      vertex  1.550000e+002  4.000000e+000  0.000000e+000
    endloop
  endfacet
  facet normal  0.000000e+000  0.000000e+000 -1.000000e+000
    outer loop
      vertex  1.550000e+002  4.000000e+000  0.000000e+000
      vertex  1.510000e+002  6.400000e+001  0.000000e+000
      vertex  1.550000e+002  6.400000e+001  0.000000e+000
    endloop
  endfacet
  facet normal  0.000000e+000  0.000000e+000 -1.000000e+000
    outer loop
      vertex  1.780000e+002  4.000000e+000  0.000000e+000
      vertex  1.780000e+002  6.400000e+001  0.000000e+000
      vertex  1.820000e+002  4.000000e+000  0.000000e+000
    endloop
  endfacet
  facet normal  0.000000e+000  0.000000e+000 -1.000000e+000
    outer loop
      vertex  1.820000e+002  4.000000e+000  0.000000e+000
      vertex  1.780000e+002  6.400000e+001  0.000000e+000
      vertex  1.820000e+002  6.400000e+001  0.000000e+000
    endloop
  endfacet
  facet normal  0.000000e+000  0.000000e+000 -1.000000e+000
    outer loop
      vertex  2.050000e+002  4.000000e+000  0.000000e+000
      vertex  2.050000e+002  6.400000e+001  0.000000e+000
      vertex  2.090000e+002  4.000000e+000  0.000000e+000
    endloop
  endfacet
  facet normal  0.000000e+000  0.000000e+000 -1.000000e+000
    outer loop
      vertex  2.090000e+002  4.000000e+000  0.000000e+000
      vertex  2.050000e+002  6.400000e+001  0.000000e+000
      vertex  2.090000e+002  6.400000e+001  0.000000e+000
    endloop
  endfacet
  facet normal  0.000000e+000  0.000000e+000 -1.000000e+000
    outer loop
      vertex  2.230000e+002  6.400000e+001  0.000000e+000
      vertex  2.270000e+002  6.800000e+001  0.000000e+000
      vertex  2.230000e+002  4.000000e+000  0.000000e+000
    endloop
  endfacet
  facet normal  0.000000e+000  0.000000e+000 -1.000000e+000
    outer loop
      vertex  2.230000e+002  4.000000e+000  0.000000e+000
      vertex  2.270000e+002  6.800000e+001  0.000000e+000
      vertex  2.270000e+002  0.000000e+000  0.000000e+000
    endloop
  endfacet
  facet normal -1.000000e+000  0.000000e+000  0.000000e+000
    outer loop
      vertex  2.230000e+002  6.800000e+001  6.000000e+000
      vertex  2.230000e+002  6.800000e+001  5.000000e+000
      vertex  2.230000e+002  6.200000e+001  6.000000e+000
    endloop
  endfacet
  facet normal -1.000000e+000  0.000000e+000  0.000000e+000
    outer loop
      vertex  2.230000e+002  6.200000e+001  6.000000e+000
      vertex  2.230000e+002  6.800000e+001  5.000000e+000
      vertex  2.230000e+002  6.400000e+001  5.000000e+000
    endloop
  endfacet
  facet normal -1.000000e+000  0.000000e+000  0.000000e+000
    outer loop
      vertex  2.230000e+002  6.200000e+001  6.000000e+000
      vertex  2.230000e+002  6.400000e+001  5.000000e+000
      vertex  2.230000e+002  6.200000e+001  5.000000e+000
    endloop
  endfacet
  facet normal -1.000000e+000  0.000000e+000  0.000000e+000
    outer loop
      vertex  2.230000e+002  6.200000e+001  5.000000e+000
      vertex  2.230000e+002  6.400000e+001  5.000000e+000
      vertex  2.230000e+002  6.400000e+001  0.000000e+000
    endloop
  endfacet
  facet normal -1.000000e+000  0.000000e+000  0.000000e+000
    outer loop
      vertex  2.230000e+002  6.200000e+001  5.000000e+000
      vertex  2.230000e+002  6.400000e+001  0.000000e+000
      vertex  2.230000e+002  6.000000e+000  5.000000e+000
    endloop
  endfacet
  facet normal -1.000000e+000  0.000000e+000  -0.000000e+000
    outer loop
      vertex  2.230000e+002  6.000000e+000  5.000000e+000
      vertex  2.230000e+002  6.400000e+001  0.000000e+000
      vertex  2.230000e+002  4.000000e+000  0.000000e+000
    endloop
  endfacet
  facet normal -1.000000e+000  0.000000e+000  0.000000e+000
    outer loop
      vertex  2.230000e+002  6.000000e+000  5.000000e+000
      vertex  2.230000e+002  4.000000e+000  0.000000e+000
      vertex  2.230000e+002  6.000000e+000  6.000000e+000
    endloop
  endfacet
  facet normal -1.000000e+000  0.000000e+000  0.000000e+000
    outer loop
      vertex  2.230000e+002  6.000000e+000  6.000000e+000
      vertex  2.230000e+002  4.000000e+000  0.000000e+000
      vertex  2.230000e+002  4.000000e+000  5.000000e+000
    endloop
  endfacet
  facet normal -1.000000e+000  0.000000e+000  0.000000e+000
    outer loop
      vertex  2.230000e+002  6.000000e+000  6.000000e+000
      vertex  2.230000e+002  4.000000e+000  5.000000e+000
      vertex  2.230000e+002 -5.684342e-014  6.000000e+000
    endloop
  endfacet
  facet normal -1.000000e+000  0.000000e+000  0.000000e+000
    outer loop
      vertex  2.230000e+002 -5.684342e-014  6.000000e+000
      vertex  2.230000e+002  4.000000e+000  5.000000e+000
      vertex  2.230000e+002 -5.684342e-014  5.000000e+000
    endloop
  endfacet
  facet normal  0.000000e+000 -1.000000e+000 -9.473903e-015
    outer loop
      vertex  2.270000e+002 -5.684342e-014  6.000000e+000
      vertex  2.230000e+002 -5.684342e-014  6.000000e+000
      vertex  2.270000e+002  0.000000e+000  0.000000e+000
    endloop
  endfacet
  facet normal  1.421085e-014 -1.000000e+000  0.000000e+000
    outer loop
      vertex  2.270000e+002  0.000000e+000  0.000000e+000
      vertex  2.230000e+002 -5.684342e-014  6.000000e+000
      vertex  2.230000e+002 -5.684342e-014  5.000000e+000
    endloop
  endfacet
  facet normal  0.000000e+000 -1.000000e+000 -1.136868e-014
    outer loop
      vertex  2.270000e+002  0.000000e+000  0.000000e+000
      vertex  2.230000e+002 -5.684342e-014  5.000000e+000
      vertex  0.000000e+000  0.000000e+000  0.000000e+000
    endloop
  endfacet
  facet normal -2.595590e-016 -1.000000e+000  2.076472e-016
    outer loop
      vertex  0.000000e+000  0.000000e+000  0.000000e+000
      vertex  2.230000e+002 -5.684342e-014  5.000000e+000
      vertex  4.000000e+000  0.000000e+000  5.000000e+000
    endloop
  endfacet
  facet normal  -0.000000e+000 -1.000000e+000  0.000000e+000
    outer loop
      vertex  0.000000e+000  0.000000e+000  0.000000e+000
      vertex  4.000000e+000  0.000000e+000  5.000000e+000
      vertex  0.000000e+000  0.000000e+000  6.000000e+000
    endloop
  endfacet
  facet normal  0.000000e+000 -1.000000e+000  0.000000e+000
    outer loop
      vertex  0.000000e+000  0.000000e+000  6.000000e+000
      vertex  4.000000e+000  0.000000e+000  5.000000e+000
      vertex  4.000000e+000  0.000000e+000  6.000000e+000
    endloop
  endfacet
  facet normal  1.000000e+000  0.000000e+000  0.000000e+000
    outer loop
      vertex  4.000000e+000  0.000000e+000  6.000000e+000
      vertex  4.000000e+000  0.000000e+000  5.000000e+000
      vertex  4.000000e+000  6.000000e+000  6.000000e+000
    endloop
  endfacet
  facet normal  1.000000e+000  0.000000e+000  0.000000e+000
    outer loop
      vertex  4.000000e+000  6.000000e+000  6.000000e+000
      vertex  4.000000e+000  0.000000e+000  5.000000e+000
      vertex  4.000000e+000  4.000000e+000  5.000000e+000
    endloop
  endfacet
  facet normal  1.000000e+000  0.000000e+000  0.000000e+000
    outer loop
      vertex  4.000000e+000  6.000000e+000  6.000000e+000
      vertex  4.000000e+000  4.000000e+000  5.000000e+000
      vertex  4.000000e+000  6.000000e+000  5.000000e+000
    endloop
  endfacet
  facet normal  1.000000e+000  0.000000e+000  0.000000e+000
    outer loop
      vertex  4.000000e+000  6.000000e+000  5.000000e+000
      vertex  4.000000e+000  4.000000e+000  5.000000e+000
      vertex  4.000000e+000  4.000000e+000  0.000000e+000
    endloop
  endfacet
  facet normal  1.000000e+000  0.000000e+000  0.000000e+000
    outer loop
      vertex  4.000000e+000  6.000000e+000  5.000000e+000
      vertex  4.000000e+000  4.000000e+000  0.000000e+000
      vertex  4.000000e+000  6.200000e+001  5.000000e+000
    endloop
  endfacet
  facet normal  1.000000e+000  0.000000e+000  0.000000e+000
    outer loop
      vertex  4.000000e+000  6.200000e+001  5.000000e+000
      vertex  4.000000e+000  4.000000e+000  0.000000e+000
      vertex  4.000000e+000  6.400000e+001  0.000000e+000
    endloop
  endfacet
  facet normal  1.000000e+000  0.000000e+000  0.000000e+000
    outer loop
      vertex  4.000000e+000  6.200000e+001  5.000000e+000
      vertex  4.000000e+000  6.400000e+001  0.000000e+000
      vertex  4.000000e+000  6.200000e+001  6.000000e+000
    endloop
  endfacet
  facet normal  1.000000e+000  0.000000e+000  0.000000e+000
    outer loop
      vertex  4.000000e+000  6.200000e+001  6.000000e+000
      vertex  4.000000e+000  6.400000e+001  0.000000e+000
      vertex  4.000000e+000  6.400000e+001  5.000000e+000
    endloop
  endfacet
  facet normal  1.000000e+000  0.000000e+000  -0.000000e+000
    outer loop
      vertex  4.000000e+000  6.200000e+001  6.000000e+000
      vertex  4.000000e+000  6.400000e+001  5.000000e+000
      vertex  4.000000e+000  6.800000e+001  6.000000e+000
    endloop
  endfacet
  facet normal  1.000000e+000  0.000000e+000  0.000000e+000
    outer loop
      vertex  4.000000e+000  6.800000e+001  6.000000e+000
      vertex  4.000000e+000  6.400000e+001  5.000000e+000
      vertex  4.000000e+000  6.800000e+001  5.000000e+000
    endloop
  endfacet
  facet normal -1.000000e+000  -0.000000e+000  0.000000e+000
    outer loop
      vertex  0.000000e+000  0.000000e+000  6.000000e+000
      vertex  0.000000e+000  6.000000e+000  6.000000e+000
      vertex  0.000000e+000  0.000000e+000  0.000000e+000
    endloop
  endfacet
  facet normal -1.000000e+000  0.000000e+000  0.000000e+000
    outer loop
      vertex  0.000000e+000  0.000000e+000  0.000000e+000
      vertex  0.000000e+000  6.000000e+000  6.000000e+000
      vertex  0.000000e+000  6.000000e+000  5.000000e+000
    endloop
  endfacet
  facet normal -1.000000e+000  0.000000e+000  -0.000000e+000
    outer loop
      vertex  0.000000e+000  0.000000e+000  0.000000e+000
      vertex  0.000000e+000  6.000000e+000  5.000000e+000
      vertex  0.000000e+000  6.800000e+001  0.000000e+000
    endloop
  endfacet
  facet normal -1.000000e+000  0.000000e+000  0.000000e+000
    outer loop
      vertex  0.000000e+000  6.800000e+001  0.000000e+000
      vertex  0.000000e+000  6.000000e+000  5.000000e+000
      vertex  0.000000e+000  6.200000e+001  5.000000e+000
    endloop
  endfacet
  facet normal -1.000000e+000  0.000000e+000  0.000000e+000
    outer loop
      vertex  0.000000e+000  6.800000e+001  0.000000e+000
      vertex  0.000000e+000  6.200000e+001  5.000000e+000
      vertex  0.000000e+000  6.800000e+001  6.000000e+000
    endloop
  endfacet
  facet normal -1.000000e+000  -0.000000e+000  0.000000e+000
    outer loop
      vertex  0.000000e+000  6.800000e+001  6.000000e+000
      vertex  0.000000e+000  6.200000e+001  5.000000e+000
      vertex  0.000000e+000  6.200000e+001  6.000000e+000
    endloop
  endfacet
  facet normal  1.000000e+000  -0.000000e+000  0.000000e+000
    outer loop
      vertex  2.270000e+002  6.800000e+001  6.000000e+000
      vertex  2.270000e+002  6.200000e+001  6.000000e+000
      vertex  2.270000e+002  6.800000e+001  0.000000e+000
    endloop
  endfacet
  facet normal  1.000000e+000  0.000000e+000  0.000000e+000
    outer loop
      vertex  2.270000e+002  6.800000e+001  0.000000e+000
      vertex  2.270000e+002  6.200000e+001  6.000000e+000
      vertex  2.270000e+002  6.200000e+001  5.000000e+000
    endloop
  endfacet
  facet normal  1.000000e+000  0.000000e+000  0.000000e+000
    outer loop
      vertex  2.270000e+002  6.800000e+001  0.000000e+000
      vertex  2.270000e+002  6.200000e+001  5.000000e+000
      vertex  2.270000e+002  0.000000e+000  0.000000e+000
    endloop
  endfacet
  facet normal  1.000000e+000  0.000000e+000  0.000000e+000
    outer loop
      vertex  2.270000e+002  0.000000e+000  0.000000e+000
      vertex  2.270000e+002  6.200000e+001  5.000000e+000
      vertex  2.270000e+002  6.000000e+000  5.000000e+000
    endloop
  endfacet
  facet normal  1.000000e+000  0.000000e+000  0.000000e+000
    outer loop
      vertex  2.270000e+002  0.000000e+000  0.000000e+000
      vertex  2.270000e+002  6.000000e+000  5.000000e+000
      vertex  2.270000e+002 -5.684342e-014  6.000000e+000
    endloop
  endfacet
  facet normal  1.000000e+000  -0.000000e+000  0.000000e+000
    outer loop
      vertex  2.270000e+002 -5.684342e-014  6.000000e+000
      vertex  2.270000e+002  6.000000e+000  5.000000e+000
      vertex  2.270000e+002  6.000000e+000  6.000000e+000
    endloop
  endfacet
  facet normal  0.000000e+000  0.000000e+000  1.000000e+000
    outer loop
      vertex  0.000000e+000  0.000000e+000  6.000000e+000
      vertex  4.000000e+000  0.000000e+000  6.000000e+000
      vertex  0.000000e+000  6.000000e+000  6.000000e+000
    endloop
  endfacet
  facet normal  -0.000000e+000  0.000000e+000  1.000000e+000
    outer loop
      vertex  0.000000e+000  6.000000e+000  6.000000e+000
      vertex  4.000000e+000  0.000000e+000  6.000000e+000
      vertex  4.000000e+000  6.000000e+000  6.000000e+000
    endloop
  endfacet
  facet normal  0.000000e+000  0.000000e+000  1.000000e+000
    outer loop
      vertex  2.230000e+002 -5.684342e-014  6.000000e+000
      vertex  2.270000e+002 -5.684342e-014  6.000000e+000
      vertex  2.230000e+002  6.000000e+000  6.000000e+000
    endloop
  endfacet
  facet normal  -0.000000e+000  0.000000e+000  1.000000e+000
    outer loop
      vertex  2.230000e+002  6.000000e+000  6.000000e+000
      vertex  2.270000e+002 -5.684342e-014  6.000000e+000
      vertex  2.270000e+002  6.000000e+000  6.000000e+000
    endloop
  endfacet
  facet normal  0.000000e+000  0.000000e+000  1.000000e+000
    outer loop
      vertex  2.230000e+002  6.000000e+000  5.000000e+000
      vertex  2.270000e+002  6.000000e+000  5.000000e+000
      vertex  2.230000e+002  6.200000e+001  5.000000e+000
    endloop
  endfacet
  facet normal  -0.000000e+000  0.000000e+000  1.000000e+000
    outer loop
      vertex  2.230000e+002  6.200000e+001  5.000000e+000
      vertex  2.270000e+002  6.000000e+000  5.000000e+000
      vertex  2.270000e+002  6.200000e+001  5.000000e+000
    endloop
  endfacet
  facet normal  0.000000e+000  0.000000e+000  1.000000e+000
    outer loop
      vertex  0.000000e+000  6.000000e+000  5.000000e+000
      vertex  4.000000e+000  6.000000e+000  5.000000e+000
      vertex  0.000000e+000  6.200000e+001  5.000000e+000
    endloop
  endfacet
  facet normal  -0.000000e+000  0.000000e+000  1.000000e+000
    outer loop
      vertex  0.000000e+000  6.200000e+001  5.000000e+000
      vertex  4.000000e+000  6.000000e+000  5.000000e+000
      vertex  4.000000e+000  6.200000e+001  5.000000e+000
    endloop
  endfacet
  facet normal  -0.000000e+000  0.000000e+000  1.000000e+000
    outer loop
      vertex  1.600000e+001  4.000000e+000  5.000000e+000
      vertex  4.000000e+000  4.000000e+000  5.000000e+000
      vertex  4.000000e+000  0.000000e+000  5.000000e+000
    endloop
  endfacet
  facet normal  0.000000e+000  0.000000e+000  1.000000e+000
    outer loop
      vertex  1.600000e+001  4.000000e+000  5.000000e+000
      vertex  4.000000e+000  0.000000e+000  5.000000e+000
      vertex  2.000000e+001  4.000000e+000  5.000000e+000
    endloop
  endfacet
  facet normal  0.000000e+000  -0.000000e+000  1.000000e+000
    outer loop
      vertex  1.600000e+001  4.000000e+000  5.000000e+000
      vertex  2.000000e+001  4.000000e+000  5.000000e+000
      vertex  2.000000e+001  6.400000e+001  5.000000e+000
    endloop
  endfacet
  facet normal  0.000000e+000  0.000000e+000  1.000000e+000
    outer loop
      vertex  1.600000e+001  4.000000e+000  5.000000e+000
      vertex  2.000000e+001  6.400000e+001  5.000000e+000
      vertex  1.600000e+001  6.400000e+001  5.000000e+000
    endloop
  endfacet
  facet normal  0.000000e+000  -0.000000e+000  1.000000e+000
    outer loop
      vertex  2.090000e+002  6.400000e+001  5.000000e+000
      vertex  2.230000e+002  6.400000e+001  5.000000e+000
      vertex  2.230000e+002  6.800000e+001  5.000000e+000
    endloop
  endfacet
  facet normal  0.000000e+000  0.000000e+000  1.000000e+000
    outer loop
      vertex  2.090000e+002  6.400000e+001  5.000000e+000
      vertex  2.230000e+002  6.800000e+001  5.000000e+000
      vertex  2.050000e+002  6.400000e+001  5.000000e+000
    endloop
  endfacet
  facet normal  -0.000000e+000  0.000000e+000  1.000000e+000
    outer loop
      vertex  2.090000e+002  6.400000e+001  5.000000e+000
      vertex  2.050000e+002  6.400000e+001  5.000000e+000
      vertex  2.050000e+002  4.000000e+000  5.000000e+000
    endloop
  endfacet
  facet normal  0.000000e+000  0.000000e+000  1.000000e+000
    outer loop
      vertex  2.090000e+002  6.400000e+001  5.000000e+000
      vertex  2.050000e+002  4.000000e+000  5.000000e+000
      vertex  2.090000e+002  4.000000e+000  5.000000e+000
    endloop
  endfacet
  facet normal  0.000000e+000  -0.000000e+000  9.999999e-001
    outer loop
      vertex  4.000000e+000  0.000000e+000  5.000000e+000
      vertex  2.230000e+002 -5.684342e-014  5.000000e+000
      vertex  2.230000e+002  4.000000e+000  5.000000e+000
    endloop
  endfacet
  facet normal  0.000000e+000  0.000000e+000  1.000000e+000
    outer loop
      vertex  4.000000e+000  0.000000e+000  5.000000e+000
      vertex  2.230000e+002  4.000000e+000  5.000000e+000
      vertex  2.090000e+002  4.000000e+000  5.000000e+000
    endloop
  endfacet
  facet normal  0.000000e+000  0.000000e+000  1.000000e+000
    outer loop
      vertex  4.000000e+000  0.000000e+000  5.000000e+000
      vertex  2.090000e+002  4.000000e+000  5.000000e+000
      vertex  2.050000e+002  4.000000e+000  5.000000e+000
    endloop
  endfacet
  facet normal  0.000000e+000  0.000000e+000  1.000000e+000
    outer loop
      vertex  4.000000e+000  0.000000e+000  5.000000e+000
      vertex  2.050000e+002  4.000000e+000  5.000000e+000
      vertex  1.820000e+002  4.000000e+000  5.000000e+000
    endloop
  endfacet
  facet normal  0.000000e+000  0.000000e+000  1.000000e+000
    outer loop
      vertex  4.000000e+000  0.000000e+000  5.000000e+000
      vertex  1.820000e+002  4.000000e+000  5.000000e+000
      vertex  1.780000e+002  4.000000e+000  5.000000e+000
    endloop
  endfacet
  facet normal  0.000000e+000  0.000000e+000  1.000000e+000
    outer loop
      vertex  4.000000e+000  0.000000e+000  5.000000e+000
      vertex  1.780000e+002  4.000000e+000  5.000000e+000
      vertex  1.550000e+002  4.000000e+000  5.000000e+000
    endloop
  endfacet
  facet normal  0.000000e+000  0.000000e+000  1.000000e+000
    outer loop
      vertex  4.000000e+000  0.000000e+000  5.000000e+000
      vertex  1.550000e+002  4.000000e+000  5.000000e+000
      vertex  1.510000e+002  4.000000e+000  5.000000e+000
    endloop
  endfacet
  facet normal  0.000000e+000  0.000000e+000  1.000000e+000
    outer loop
      vertex  4.000000e+000  0.000000e+000  5.000000e+000
      vertex  1.510000e+002  4.000000e+000  5.000000e+000
      vertex  1.280000e+002  4.000000e+000  5.000000e+000
    endloop
  endfacet
  facet normal  0.000000e+000  0.000000e+000  1.000000e+000
    outer loop
      vertex  4.000000e+000  0.000000e+000  5.000000e+000
      vertex  1.280000e+002  4.000000e+000  5.000000e+000
      vertex  1.240000e+002  4.000000e+000  5.000000e+000
    endloop
  endfacet
  facet normal  0.000000e+000  0.000000e+000  1.000000e+000
    outer loop
      vertex  4.000000e+000  0.000000e+000  5.000000e+000
      vertex  1.240000e+002  4.000000e+000  5.000000e+000
      vertex  1.010000e+002  4.000000e+000  5.000000e+000
    endloop
  endfacet
  facet normal  0.000000e+000  0.000000e+000  1.000000e+000
    outer loop
      vertex  4.000000e+000  0.000000e+000  5.000000e+000
      vertex  1.010000e+002  4.000000e+000  5.000000e+000
      vertex  9.700000e+001  4.000000e+000  5.000000e+000
    endloop
  endfacet
  facet normal  0.000000e+000  0.000000e+000  1.000000e+000
    outer loop
      vertex  4.000000e+000  0.000000e+000  5.000000e+000
      vertex  9.700000e+001  4.000000e+000  5.000000e+000
      vertex  7.400000e+001  4.000000e+000  5.000000e+000
    endloop
  endfacet
  facet normal  0.000000e+000  0.000000e+000  1.000000e+000
    outer loop
      vertex  4.000000e+000  0.000000e+000  5.000000e+000
      vertex  7.400000e+001  4.000000e+000  5.000000e+000
      vertex  7.000000e+001  4.000000e+000  5.000000e+000
    endloop
  endfacet
  facet normal  0.000000e+000  0.000000e+000  1.000000e+000
    outer loop
      vertex  4.000000e+000  0.000000e+000  5.000000e+000
      vertex  7.000000e+001  4.000000e+000  5.000000e+000
      vertex  4.700000e+001  4.000000e+000  5.000000e+000
    endloop
  endfacet
  facet normal  0.000000e+000  0.000000e+000  1.000000e+000
    outer loop
      vertex  4.000000e+000  0.000000e+000  5.000000e+000
      vertex  4.700000e+001  4.000000e+000  5.000000e+000
      vertex  4.300000e+001  4.000000e+000  5.000000e+000
    endloop
  endfacet
  facet normal  0.000000e+000  0.000000e+000  1.000000e+000
    outer loop
      vertex  4.000000e+000  0.000000e+000  5.000000e+000
      vertex  4.300000e+001  4.000000e+000  5.000000e+000
      vertex  2.000000e+001  4.000000e+000  5.000000e+000
    endloop
  endfacet
  facet normal  0.000000e+000  0.000000e+000  1.000000e+000
    outer loop
      vertex  4.000000e+000  6.800000e+001  5.000000e+000
      vertex  4.000000e+000  6.400000e+001  5.000000e+000
      vertex  1.600000e+001  6.400000e+001  5.000000e+000
    endloop
  endfacet
  facet normal  0.000000e+000  -0.000000e+000  1.000000e+000
    outer loop
      vertex  4.000000e+000  6.800000e+001  5.000000e+000
      vertex  1.600000e+001  6.400000e+001  5.000000e+000
      vertex  2.000000e+001  6.400000e+001  5.000000e+000
    endloop
  endfacet
  facet normal  0.000000e+000  -0.000000e+000  1.000000e+000
    outer loop
      vertex  4.000000e+000  6.800000e+001  5.000000e+000
      vertex  2.000000e+001  6.400000e+001  5.000000e+000
      vertex  4.300000e+001  6.400000e+001  5.000000e+000
    endloop
  endfacet
  facet normal  0.000000e+000  -0.000000e+000  1.000000e+000
    outer loop
      vertex  4.000000e+000  6.800000e+001  5.000000e+000
      vertex  4.300000e+001  6.400000e+001  5.000000e+000
      vertex  4.700000e+001  6.400000e+001  5.000000e+000
    endloop
  endfacet
  facet normal  0.000000e+000  -0.000000e+000  1.000000e+000
    outer loop
      vertex  4.000000e+000  6.800000e+001  5.000000e+000
      vertex  4.700000e+001  6.400000e+001  5.000000e+000
      vertex  7.000000e+001  6.400000e+001  5.000000e+000
    endloop
  endfacet
  facet normal  0.000000e+000  -0.000000e+000  1.000000e+000
    outer loop
      vertex  4.000000e+000  6.800000e+001  5.000000e+000
      vertex  7.000000e+001  6.400000e+001  5.000000e+000
      vertex  7.400000e+001  6.400000e+001  5.000000e+000
    endloop
  endfacet
  facet normal  0.000000e+000  -0.000000e+000  1.000000e+000
    outer loop
      vertex  4.000000e+000  6.800000e+001  5.000000e+000
      vertex  7.400000e+001  6.400000e+001  5.000000e+000
      vertex  9.700000e+001  6.400000e+001  5.000000e+000
    endloop
  endfacet
  facet normal  0.000000e+000  -0.000000e+000  1.000000e+000
    outer loop
      vertex  4.000000e+000  6.800000e+001  5.000000e+000
      vertex  9.700000e+001  6.400000e+001  5.000000e+000
      vertex  1.010000e+002  6.400000e+001  5.000000e+000
    endloop
  endfacet
  facet normal  0.000000e+000  -0.000000e+000  1.000000e+000
    outer loop
      vertex  4.000000e+000  6.800000e+001  5.000000e+000
      vertex  1.010000e+002  6.400000e+001  5.000000e+000
      vertex  1.240000e+002  6.400000e+001  5.000000e+000
    endloop
  endfacet
  facet normal  0.000000e+000  -0.000000e+000  1.000000e+000
    outer loop
      vertex  4.000000e+000  6.800000e+001  5.000000e+000
      vertex  1.240000e+002  6.400000e+001  5.000000e+000
      vertex  1.280000e+002  6.400000e+001  5.000000e+000
    endloop
  endfacet
  facet normal  0.000000e+000  -0.000000e+000  1.000000e+000
    outer loop
      vertex  4.000000e+000  6.800000e+001  5.000000e+000
      vertex  1.280000e+002  6.400000e+001  5.000000e+000
      vertex  1.510000e+002  6.400000e+001  5.000000e+000
    endloop
  endfacet
  facet normal  0.000000e+000  -0.000000e+000  1.000000e+000
    outer loop
      vertex  4.000000e+000  6.800000e+001  5.000000e+000
      vertex  1.510000e+002  6.400000e+001  5.000000e+000
      vertex  1.550000e+002  6.400000e+001  5.000000e+000
    endloop
  endfacet
  facet normal  0.000000e+000  -0.000000e+000  1.000000e+000
    outer loop
      vertex  4.000000e+000  6.800000e+001  5.000000e+000
      vertex  1.550000e+002  6.400000e+001  5.000000e+000
      vertex  1.780000e+002  6.400000e+001  5.000000e+000
    endloop
  endfacet
  facet normal  0.000000e+000  -0.000000e+000  1.000000e+000
    outer loop
      vertex  4.000000e+000  6.800000e+001  5.000000e+000
      vertex  1.780000e+002  6.400000e+001  5.000000e+000
      vertex  1.820000e+002  6.400000e+001  5.000000e+000
    endloop
  endfacet
  facet normal  0.000000e+000  -0.000000e+000  1.000000e+000
    outer loop
      vertex  4.000000e+000  6.800000e+001  5.000000e+000
      vertex  1.820000e+002  6.400000e+001  5.000000e+000
      vertex  2.050000e+002  6.400000e+001  5.000000e+000
    endloop
  endfacet
  facet normal  0.000000e+000  -0.000000e+000  9.999999e-001
    outer loop
      vertex  4.000000e+000  6.800000e+001  5.000000e+000
      vertex  2.050000e+002  6.400000e+001  5.000000e+000
      vertex  2.230000e+002  6.800000e+001  5.000000e+000
    endloop
  endfacet
  facet normal  0.000000e+000  0.000000e+000  1.000000e+000
    outer loop
      vertex  4.300000e+001  4.000000e+000  5.000000e+000
      vertex  4.700000e+001  4.000000e+000  5.000000e+000
      vertex  4.300000e+001  6.400000e+001  5.000000e+000
    endloop
  endfacet
  facet normal  -0.000000e+000  0.000000e+000  1.000000e+000
    outer loop
      vertex  4.300000e+001  6.400000e+001  5.000000e+000
      vertex  4.700000e+001  4.000000e+000  5.000000e+000
      vertex  4.700000e+001  6.400000e+001  5.000000e+000
    endloop
  endfacet
  facet normal  0.000000e+000  0.000000e+000  1.000000e+000
    outer loop
      vertex  7.000000e+001  4.000000e+000  5.000000e+000
      vertex  7.400000e+001  4.000000e+000  5.000000e+000
      vertex  7.000000e+001  6.400000e+001  5.000000e+000
    endloop
  endfacet
  facet normal  -0.000000e+000  0.000000e+000  1.000000e+000
    outer loop
      vertex  7.000000e+001  6.400000e+001  5.000000e+000
      vertex  7.400000e+001  4.000000e+000  5.000000e+000
      vertex  7.400000e+001  6.400000e+001  5.000000e+000
    endloop
  endfacet
  facet normal  0.000000e+000  0.000000e+000  1.000000e+000
    outer loop
      vertex  9.700000e+001  4.000000e+000  5.000000e+000
      vertex  1.010000e+002  4.000000e+000  5.000000e+000
      vertex  9.700000e+001  6.400000e+001  5.000000e+000
    endloop
  endfacet
  facet normal  -0.000000e+000  0.000000e+000  1.000000e+000
    outer loop
      vertex  9.700000e+001  6.400000e+001  5.000000e+000
      vertex  1.010000e+002  4.000000e+000  5.000000e+000
      vertex  1.010000e+002  6.400000e+001  5.000000e+000
    endloop
  endfacet
  facet normal  0.000000e+000  0.000000e+000  1.000000e+000
    outer loop
      vertex  1.240000e+002  4.000000e+000  5.000000e+000
      vertex  1.280000e+002  4.000000e+000  5.000000e+000
      vertex  1.240000e+002  6.400000e+001  5.000000e+000
    endloop
  endfacet
  facet normal  -0.000000e+000  0.000000e+000  1.000000e+000
    outer loop
      vertex  1.240000e+002  6.400000e+001  5.000000e+000
      vertex  1.280000e+002  4.000000e+000  5.000000e+000
      vertex  1.280000e+002  6.400000e+001  5.000000e+000
    endloop
  endfacet
  facet normal  0.000000e+000  0.000000e+000  1.000000e+000
    outer loop
      vertex  1.510000e+002  4.000000e+000  5.000000e+000
      vertex  1.550000e+002  4.000000e+000  5.000000e+000
      vertex  1.510000e+002  6.400000e+001  5.000000e+000
    endloop
  endfacet
  facet normal  -0.000000e+000  0.000000e+000  1.000000e+000
    outer loop
      vertex  1.510000e+002  6.400000e+001  5.000000e+000
      vertex  1.550000e+002  4.000000e+000  5.000000e+000
      vertex  1.550000e+002  6.400000e+001  5.000000e+000
    endloop
  endfacet
  facet normal  0.000000e+000  0.000000e+000  1.000000e+000
    outer loop
      vertex  1.780000e+002  4.000000e+000  5.000000e+000
      vertex  1.820000e+002  4.000000e+000  5.000000e+000
      vertex  1.780000e+002  6.400000e+001  5.000000e+000
    endloop
  endfacet
  facet normal  -0.000000e+000  0.000000e+000  1.000000e+000
    outer loop
      vertex  1.780000e+002  6.400000e+001  5.000000e+000
      vertex  1.820000e+002  4.000000e+000  5.000000e+000
      vertex  1.820000e+002  6.400000e+001  5.000000e+000
    endloop
  endfacet
  facet normal  0.000000e+000  1.000000e+000  0.000000e+000
    outer loop
      vertex  1.600000e+001  4.000000e+000  0.000000e+000
      vertex  4.000000e+000  4.000000e+000  0.000000e+000
      vertex  1.600000e+001  4.000000e+000  5.000000e+000
    endloop
  endfacet
  facet normal  0.000000e+000  1.000000e+000  0.000000e+000
    outer loop
      vertex  1.600000e+001  4.000000e+000  5.000000e+000
      vertex  4.000000e+000  4.000000e+000  0.000000e+000
      vertex  4.000000e+000  4.000000e+000  5.000000e+000
    endloop
  endfacet
  facet normal  0.000000e+000  1.000000e+000  0.000000e+000
    outer loop
      vertex  2.230000e+002  4.000000e+000  0.000000e+000
      vertex  2.090000e+002  4.000000e+000  0.000000e+000
      vertex  2.230000e+002  4.000000e+000  5.000000e+000
    endloop
  endfacet
  facet normal  0.000000e+000  1.000000e+000  0.000000e+000
    outer loop
      vertex  2.230000e+002  4.000000e+000  5.000000e+000
      vertex  2.090000e+002  4.000000e+000  0.000000e+000
      vertex  2.090000e+002  4.000000e+000  5.000000e+000
    endloop
  endfacet
  facet normal  0.000000e+000  1.000000e+000  -0.000000e+000
    outer loop
      vertex  4.000000e+000  6.000000e+000  6.000000e+000
      vertex  4.000000e+000  6.000000e+000  5.000000e+000
      vertex  0.000000e+000  6.000000e+000  6.000000e+000
    endloop
  endfacet
  facet normal  0.000000e+000  1.000000e+000  0.000000e+000
    outer loop
      vertex  0.000000e+000  6.000000e+000  6.000000e+000
      vertex  4.000000e+000  6.000000e+000  5.000000e+000
      vertex  0.000000e+000  6.000000e+000  5.000000e+000
    endloop
  endfacet
  facet normal  0.000000e+000  1.000000e+000  -0.000000e+000
    outer loop
      vertex  2.270000e+002  6.000000e+000  6.000000e+000
      vertex  2.270000e+002  6.000000e+000  5.000000e+000
      vertex  2.230000e+002  6.000000e+000  6.000000e+000
    endloop
  endfacet
  facet normal  0.000000e+000  1.000000e+000  0.000000e+000
    outer loop
      vertex  2.230000e+002  6.000000e+000  6.000000e+000
      vertex  2.270000e+002  6.000000e+000  5.000000e+000
      vertex  2.230000e+002  6.000000e+000  5.000000e+000
    endloop
  endfacet
  facet normal  0.000000e+000  0.000000e+000  1.000000e+000
    outer loop
      vertex  0.000000e+000  6.200000e+001  6.000000e+000
      vertex  4.000000e+000  6.200000e+001  6.000000e+000
      vertex  0.000000e+000  6.800000e+001  6.000000e+000
    endloop
  endfacet
  facet normal  -0.000000e+000  0.000000e+000  1.000000e+000
    outer loop
      vertex  0.000000e+000  6.800000e+001  6.000000e+000
      vertex  4.000000e+000  6.200000e+001  6.000000e+000
      vertex  4.000000e+000  6.800000e+001  6.000000e+000
    endloop
  endfacet
  facet normal  0.000000e+000  0.000000e+000  1.000000e+000
    outer loop
      vertex  2.230000e+002  6.200000e+001  6.000000e+000
      vertex  2.270000e+002  6.200000e+001  6.000000e+000
      vertex  2.230000e+002  6.800000e+001  6.000000e+000
    endloop
  endfacet
  facet normal  -0.000000e+000  0.000000e+000  1.000000e+000
    outer loop
      vertex  2.230000e+002  6.800000e+001  6.000000e+000
      vertex  2.270000e+002  6.200000e+001  6.000000e+000
      vertex  2.270000e+002  6.800000e+001  6.000000e+000
    endloop
  endfacet
  facet normal  0.000000e+000  1.000000e+000  0.000000e+000
    outer loop
      vertex  0.000000e+000  6.800000e+001  6.000000e+000
      vertex  4.000000e+000  6.800000e+001  6.000000e+000
      vertex  0.000000e+000  6.800000e+001  0.000000e+000
    endloop
  endfacet
  facet normal  0.000000e+000  1.000000e+000  0.000000e+000
    outer loop
      vertex  0.000000e+000  6.800000e+001  0.000000e+000
      vertex  4.000000e+000  6.800000e+001  6.000000e+000
      vertex  4.000000e+000  6.800000e+001  5.000000e+000
    endloop
  endfacet
  facet normal  0.000000e+000  1.000000e+000  0.000000e+000
    outer loop
      vertex  0.000000e+000  6.800000e+001  0.000000e+000
      vertex  4.000000e+000  6.800000e+001  5.000000e+000
      vertex  2.270000e+002  6.800000e+001  0.000000e+000
    endloop
  endfacet
  facet normal  0.000000e+000  1.000000e+000  0.000000e+000
    outer loop
      vertex  2.270000e+002  6.800000e+001  0.000000e+000
      vertex  4.000000e+000  6.800000e+001  5.000000e+000
      vertex  2.230000e+002  6.800000e+001  5.000000e+000
    endloop
  endfacet
  facet normal  -0.000000e+000  1.000000e+000  0.000000e+000
    outer loop
      vertex  2.270000e+002  6.800000e+001  0.000000e+000
      vertex  2.230000e+002  6.800000e+001  5.000000e+000
      vertex  2.270000e+002  6.800000e+001  6.000000e+000
    endloop
  endfacet
  facet normal  0.000000e+000  1.000000e+000  0.000000e+000
    outer loop
      vertex  2.270000e+002  6.800000e+001  6.000000e+000
      vertex  2.230000e+002  6.800000e+001  5.000000e+000
      vertex  2.230000e+002  6.800000e+001  6.000000e+000
    endloop
  endfacet
  facet normal  0.000000e+000 -1.000000e+000  0.000000e+000
    outer loop
      vertex  4.000000e+000  6.200000e+001  6.000000e+000
      vertex  0.000000e+000  6.200000e+001  6.000000e+000
      vertex  4.000000e+000  6.200000e+001  5.000000e+000
    endloop
  endfacet
  facet normal  0.000000e+000 -1.000000e+000  0.000000e+000
    outer loop
      vertex  4.000000e+000  6.200000e+001  5.000000e+000
      vertex  0.000000e+000  6.200000e+001  6.000000e+000
      vertex  0.000000e+000  6.200000e+001  5.000000e+000
    endloop
  endfacet
  facet normal  0.000000e+000 -1.000000e+000  0.000000e+000
    outer loop
      vertex  2.270000e+002  6.200000e+001  6.000000e+000
      vertex  2.230000e+002  6.200000e+001  6.000000e+000
      vertex  2.270000e+002  6.200000e+001  5.000000e+000
    endloop
  endfacet
  facet normal  0.000000e+000 -1.000000e+000  0.000000e+000
    outer loop
      vertex  2.270000e+002  6.200000e+001  5.000000e+000
      vertex  2.230000e+002  6.200000e+001  6.000000e+000
      vertex  2.230000e+002  6.200000e+001  5.000000e+000
    endloop
  endfacet
  facet normal  0.000000e+000 -1.000000e+000  0.000000e+000
    outer loop
      vertex  4.000000e+000  6.400000e+001  0.000000e+000
      vertex  1.600000e+001  6.400000e+001  0.000000e+000
      vertex  4.000000e+000  6.400000e+001  5.000000e+000
    endloop
  endfacet
  facet normal  0.000000e+000 -1.000000e+000  0.000000e+000
    outer loop
      vertex  4.000000e+000  6.400000e+001  5.000000e+000
      vertex  1.600000e+001  6.400000e+001  0.000000e+000
      vertex  1.600000e+001  6.400000e+001  5.000000e+000
    endloop
  endfacet
  facet normal  0.000000e+000 -1.000000e+000  0.000000e+000
    outer loop
      vertex  2.090000e+002  6.400000e+001  0.000000e+000
      vertex  2.230000e+002  6.400000e+001  0.000000e+000
      vertex  2.090000e+002  6.400000e+001  5.000000e+000
    endloop
  endfacet
  facet normal  0.000000e+000 -1.000000e+000  0.000000e+000
    outer loop
      vertex  2.090000e+002  6.400000e+001  5.000000e+000
      vertex  2.230000e+002  6.400000e+001  0.000000e+000
      vertex  2.230000e+002  6.400000e+001  5.000000e+000
    endloop
  endfacet
  facet normal  1.000000e+000  0.000000e+000  0.000000e+000
    outer loop
      vertex  2.090000e+002  6.400000e+001  0.000000e+000
      vertex  2.090000e+002  6.400000e+001  5.000000e+000
      vertex  2.090000e+002  4.000000e+000  0.000000e+000
    endloop
  endfacet
  facet normal  1.000000e+000  0.000000e+000  0.000000e+000
    outer loop
      vertex  2.090000e+002  4.000000e+000  0.000000e+000
      vertex  2.090000e+002  6.400000e+001  5.000000e+000
      vertex  2.090000e+002  4.000000e+000  5.000000e+000
    endloop
  endfacet
  facet normal -1.000000e+000  0.000000e+000  0.000000e+000
    outer loop
      vertex  1.600000e+001  4.000000e+000  0.000000e+000
      vertex  1.600000e+001  4.000000e+000  5.000000e+000
      vertex  1.600000e+001  6.400000e+001  0.000000e+000
    endloop
  endfacet
  facet normal -1.000000e+000  0.000000e+000  0.000000e+000
    outer loop
      vertex  1.600000e+001  6.400000e+001  0.000000e+000
      vertex  1.600000e+001  4.000000e+000  5.000000e+000
      vertex  1.600000e+001  6.400000e+001  5.000000e+000
    endloop
  endfacet
  facet normal -1.000000e+000  0.000000e+000  0.000000e+000
    outer loop
      vertex  2.050000e+002  4.000000e+000  0.000000e+000
      vertex  2.050000e+002  4.000000e+000  5.000000e+000
      vertex  2.050000e+002  6.400000e+001  0.000000e+000
    endloop
  endfacet
  facet normal -1.000000e+000  0.000000e+000  0.000000e+000
    outer loop
      vertex  2.050000e+002  6.400000e+001  0.000000e+000
      vertex  2.050000e+002  4.000000e+000  5.000000e+000
      vertex  2.050000e+002  6.400000e+001  5.000000e+000
    endloop
  endfacet
  facet normal  0.000000e+000  9.999999e-001  0.000000e+000
    outer loop
      vertex  2.050000e+002  4.000000e+000  0.000000e+000
      vertex  1.820000e+002  4.000000e+000  0.000000e+000
      vertex  2.050000e+002  4.000000e+000  5.000000e+000
    endloop
  endfacet
  facet normal  0.000000e+000  9.999999e-001  0.000000e+000
    outer loop
      vertex  2.050000e+002  4.000000e+000  5.000000e+000
      vertex  1.820000e+002  4.000000e+000  0.000000e+000
      vertex  1.820000e+002  4.000000e+000  5.000000e+000
    endloop
  endfacet
  facet normal  0.000000e+000 -9.999999e-001  0.000000e+000
    outer loop
      vertex  1.820000e+002  6.400000e+001  0.000000e+000
      vertex  2.050000e+002  6.400000e+001  0.000000e+000
      vertex  1.820000e+002  6.400000e+001  5.000000e+000
    endloop
  endfacet
  facet normal  0.000000e+000 -9.999999e-001  0.000000e+000
    outer loop
      vertex  1.820000e+002  6.400000e+001  5.000000e+000
      vertex  2.050000e+002  6.400000e+001  0.000000e+000
      vertex  2.050000e+002  6.400000e+001  5.000000e+000
    endloop
  endfacet
  facet normal  1.000000e+000  0.000000e+000  0.000000e+000
    outer loop
      vertex  1.820000e+002  6.400000e+001  0.000000e+000
      vertex  1.820000e+002  6.400000e+001  5.000000e+000
      vertex  1.820000e+002  4.000000e+000  0.000000e+000
    endloop
  endfacet
  facet normal  1.000000e+000  0.000000e+000  0.000000e+000
    outer loop
      vertex  1.820000e+002  4.000000e+000  0.000000e+000
      vertex  1.820000e+002  6.400000e+001  5.000000e+000
      vertex  1.820000e+002  4.000000e+000  5.000000e+000
    endloop
  endfacet
  facet normal -1.000000e+000  0.000000e+000  0.000000e+000
    outer loop
      vertex  1.780000e+002  4.000000e+000  0.000000e+000
      vertex  1.780000e+002  4.000000e+000  5.000000e+000
      vertex  1.780000e+002  6.400000e+001  0.000000e+000
    endloop
  endfacet
  facet normal -1.000000e+000  0.000000e+000  0.000000e+000
    outer loop
      vertex  1.780000e+002  6.400000e+001  0.000000e+000
      vertex  1.780000e+002  4.000000e+000  5.000000e+000
      vertex  1.780000e+002  6.400000e+001  5.000000e+000
    endloop
  endfacet
  facet normal  0.000000e+000  9.999999e-001  0.000000e+000
    outer loop
      vertex  1.780000e+002  4.000000e+000  0.000000e+000
      vertex  1.550000e+002  4.000000e+000  0.000000e+000
      vertex  1.780000e+002  4.000000e+000  5.000000e+000
    endloop
  endfacet
  facet normal  0.000000e+000  9.999999e-001  0.000000e+000
    outer loop
      vertex  1.780000e+002  4.000000e+000  5.000000e+000
      vertex  1.550000e+002  4.000000e+000  0.000000e+000
      vertex  1.550000e+002  4.000000e+000  5.000000e+000
    endloop
  endfacet
  facet normal  0.000000e+000 -9.999999e-001  0.000000e+000
    outer loop
      vertex  1.550000e+002  6.400000e+001  0.000000e+000
      vertex  1.780000e+002  6.400000e+001  0.000000e+000
      vertex  1.550000e+002  6.400000e+001  5.000000e+000
    endloop
  endfacet
  facet normal  0.000000e+000 -9.999999e-001  0.000000e+000
    outer loop
      vertex  1.550000e+002  6.400000e+001  5.000000e+000
      vertex  1.780000e+002  6.400000e+001  0.000000e+000
      vertex  1.780000e+002  6.400000e+001  5.000000e+000
    endloop
  endfacet
  facet normal  1.000000e+000  0.000000e+000  0.000000e+000
    outer loop
      vertex  1.550000e+002  6.400000e+001  0.000000e+000
      vertex  1.550000e+002  6.400000e+001  5.000000e+000
      vertex  1.550000e+002  4.000000e+000  0.000000e+000
    endloop
  endfacet
  facet normal  1.000000e+000  0.000000e+000  0.000000e+000
    outer loop
      vertex  1.550000e+002  4.000000e+000  0.000000e+000
      vertex  1.550000e+002  6.400000e+001  5.000000e+000
      vertex  1.550000e+002  4.000000e+000  5.000000e+000
    endloop
  endfacet
  facet normal -1.000000e+000  0.000000e+000  0.000000e+000
    outer loop
      vertex  1.510000e+002  4.000000e+000  0.000000e+000
      vertex  1.510000e+002  4.000000e+000  5.000000e+000
      vertex  1.510000e+002  6.400000e+001  0.000000e+000
    endloop
  endfacet
  facet normal -1.000000e+000  0.000000e+000  0.000000e+000
    outer loop
      vertex  1.510000e+002  6.400000e+001  0.000000e+000
      vertex  1.510000e+002  4.000000e+000  5.000000e+000
      vertex  1.510000e+002  6.400000e+001  5.000000e+000
    endloop
  endfacet
  facet normal  0.000000e+000  9.999999e-001  0.000000e+000
    outer loop
      vertex  1.510000e+002  4.000000e+000  0.000000e+000
      vertex  1.280000e+002  4.000000e+000  0.000000e+000
      vertex  1.510000e+002  4.000000e+000  5.000000e+000
    endloop
  endfacet
  facet normal  0.000000e+000  9.999999e-001  0.000000e+000
    outer loop
      vertex  1.510000e+002  4.000000e+000  5.000000e+000
      vertex  1.280000e+002  4.000000e+000  0.000000e+000
      vertex  1.280000e+002  4.000000e+000  5.000000e+000
    endloop
  endfacet
  facet normal  0.000000e+000 -9.999999e-001  0.000000e+000
    outer loop
      vertex  1.280000e+002  6.400000e+001  0.000000e+000
      vertex  1.510000e+002  6.400000e+001  0.000000e+000
      vertex  1.280000e+002  6.400000e+001  5.000000e+000
    endloop
  endfacet
  facet normal  0.000000e+000 -9.999999e-001  0.000000e+000
    outer loop
      vertex  1.280000e+002  6.400000e+001  5.000000e+000
      vertex  1.510000e+002  6.400000e+001  0.000000e+000
      vertex  1.510000e+002  6.400000e+001  5.000000e+000
    endloop
  endfacet
  facet normal  1.000000e+000  0.000000e+000  0.000000e+000
    outer loop
      vertex  1.280000e+002  6.400000e+001  0.000000e+000
      vertex  1.280000e+002  6.400000e+001  5.000000e+000
      vertex  1.280000e+002  4.000000e+000  0.000000e+000
    endloop
  endfacet
  facet normal  1.000000e+000  0.000000e+000  0.000000e+000
    outer loop
      vertex  1.280000e+002  4.000000e+000  0.000000e+000
      vertex  1.280000e+002  6.400000e+001  5.000000e+000
      vertex  1.280000e+002  4.000000e+000  5.000000e+000
    endloop
  endfacet
  facet normal -1.000000e+000  0.000000e+000  0.000000e+000
    outer loop
      vertex  1.240000e+002  4.000000e+000  0.000000e+000
      vertex  1.240000e+002  4.000000e+000  5.000000e+000
      vertex  1.240000e+002  6.400000e+001  0.000000e+000
    endloop
  endfacet
  facet normal -1.000000e+000  0.000000e+000  0.000000e+000
    outer loop
      vertex  1.240000e+002  6.400000e+001  0.000000e+000
      vertex  1.240000e+002  4.000000e+000  5.000000e+000
      vertex  1.240000e+002  6.400000e+001  5.000000e+000
    endloop
  endfacet
  facet normal  0.000000e+000  9.999999e-001  0.000000e+000
    outer loop
      vertex  1.240000e+002  4.000000e+000  0.000000e+000
      vertex  1.010000e+002  4.000000e+000  0.000000e+000
      vertex  1.240000e+002  4.000000e+000  5.000000e+000
    endloop
  endfacet
  facet normal  0.000000e+000  9.999999e-001  0.000000e+000
    outer loop
      vertex  1.240000e+002  4.000000e+000  5.000000e+000
      vertex  1.010000e+002  4.000000e+000  0.000000e+000
      vertex  1.010000e+002  4.000000e+000  5.000000e+000
    endloop
  endfacet
  facet normal  0.000000e+000 -9.999999e-001  0.000000e+000
    outer loop
      vertex  1.010000e+002  6.400000e+001  0.000000e+000
      vertex  1.240000e+002  6.400000e+001  0.000000e+000
      vertex  1.010000e+002  6.400000e+001  5.000000e+000
    endloop
  endfacet
  facet normal  0.000000e+000 -9.999999e-001  0.000000e+000
    outer loop
      vertex  1.010000e+002  6.400000e+001  5.000000e+000
      vertex  1.240000e+002  6.400000e+001  0.000000e+000
      vertex  1.240000e+002  6.400000e+001  5.000000e+000
    endloop
  endfacet
  facet normal  1.000000e+000  0.000000e+000  0.000000e+000
    outer loop
      vertex  1.010000e+002  6.400000e+001  0.000000e+000
      vertex  1.010000e+002  6.400000e+001  5.000000e+000
      vertex  1.010000e+002  4.000000e+000  0.000000e+000
    endloop
  endfacet
  facet normal  1.000000e+000  0.000000e+000  0.000000e+000
    outer loop
      vertex  1.010000e+002  4.000000e+000  0.000000e+000
      vertex  1.010000e+002  6.400000e+001  5.000000e+000
      vertex  1.010000e+002  4.000000e+000  5.000000e+000
    endloop
  endfacet
  facet normal -1.000000e+000  0.000000e+000  0.000000e+000
    outer loop
      vertex  9.700000e+001  4.000000e+000  0.000000e+000
      vertex  9.700000e+001  4.000000e+000  5.000000e+000
      vertex  9.700000e+001  6.400000e+001  0.000000e+000
    endloop
  endfacet
  facet normal -1.000000e+000  0.000000e+000  0.000000e+000
    outer loop
      vertex  9.700000e+001  6.400000e+001  0.000000e+000
      vertex  9.700000e+001  4.000000e+000  5.000000e+000
      vertex  9.700000e+001  6.400000e+001  5.000000e+000
    endloop
  endfacet
  facet normal  0.000000e+000  9.999999e-001  0.000000e+000
    outer loop
      vertex  9.700000e+001  4.000000e+000  0.000000e+000
      vertex  7.400000e+001  4.000000e+000  0.000000e+000
      vertex  9.700000e+001  4.000000e+000  5.000000e+000
    endloop
  endfacet
  facet normal  0.000000e+000  9.999999e-001  0.000000e+000
    outer loop
      vertex  9.700000e+001  4.000000e+000  5.000000e+000
      vertex  7.400000e+001  4.000000e+000  0.000000e+000
      vertex  7.400000e+001  4.000000e+000  5.000000e+000
    endloop
  endfacet
  facet normal  0.000000e+000 -9.999999e-001  0.000000e+000
    outer loop
      vertex  7.400000e+001  6.400000e+001  0.000000e+000
      vertex  9.700000e+001  6.400000e+001  0.000000e+000
      vertex  7.400000e+001  6.400000e+001  5.000000e+000
    endloop
  endfacet
  facet normal  0.000000e+000 -9.999999e-001  0.000000e+000
    outer loop
      vertex  7.400000e+001  6.400000e+001  5.000000e+000
      vertex  9.700000e+001  6.400000e+001  0.000000e+000
      vertex  9.700000e+001  6.400000e+001  5.000000e+000
    endloop
  endfacet
  facet normal  1.000000e+000  0.000000e+000  0.000000e+000
    outer loop
      vertex  7.400000e+001  6.400000e+001  0.000000e+000
      vertex  7.400000e+001  6.400000e+001  5.000000e+000
      vertex  7.400000e+001  4.000000e+000  0.000000e+000
    endloop
  endfacet
  facet normal  1.000000e+000  0.000000e+000  0.000000e+000
    outer loop
      vertex  7.400000e+001  4.000000e+000  0.000000e+000
      vertex  7.400000e+001  6.400000e+001  5.000000e+000
      vertex  7.400000e+001  4.000000e+000  5.000000e+000
    endloop
  endfacet
  facet normal  0.000000e+000 -9.999999e-001  0.000000e+000
    outer loop
      vertex  4.700000e+001  6.400000e+001  0.000000e+000
      vertex  7.000000e+001  6.400000e+001  0.000000e+000
      vertex  4.700000e+001  6.400000e+001  5.000000e+000
    endloop
  endfacet
  facet normal  0.000000e+000 -9.999999e-001  0.000000e+000
    outer loop
      vertex  4.700000e+001  6.400000e+001  5.000000e+000
      vertex  7.000000e+001  6.400000e+001  0.000000e+000
      vertex  7.000000e+001  6.400000e+001  5.000000e+000
    endloop
  endfacet
  facet normal -1.000000e+000  0.000000e+000  0.000000e+000
    outer loop
      vertex  7.000000e+001  4.000000e+000  0.000000e+000
      vertex  7.000000e+001  4.000000e+000  5.000000e+000
      vertex  7.000000e+001  6.400000e+001  0.000000e+000
    endloop
  endfacet
  facet normal -1.000000e+000  0.000000e+000  0.000000e+000
    outer loop
      vertex  7.000000e+001  6.400000e+001  0.000000e+000
      vertex  7.000000e+001  4.000000e+000  5.000000e+000
      vertex  7.000000e+001  6.400000e+001  5.000000e+000
    endloop
  endfacet
  facet normal  0.000000e+000  9.999999e-001  0.000000e+000
    outer loop
      vertex  7.000000e+001  4.000000e+000  0.000000e+000
      vertex  4.700000e+001  4.000000e+000  0.000000e+000
      vertex  7.000000e+001  4.000000e+000  5.000000e+000
    endloop
  endfacet
  facet normal  0.000000e+000  9.999999e-001  0.000000e+000
    outer loop
      vertex  7.000000e+001  4.000000e+000  5.000000e+000
      vertex  4.700000e+001  4.000000e+000  0.000000e+000
      vertex  4.700000e+001  4.000000e+000  5.000000e+000
    endloop
  endfacet
  facet normal  1.000000e+000  0.000000e+000  0.000000e+000
    outer loop
      vertex  4.700000e+001  6.400000e+001  0.000000e+000
      vertex  4.700000e+001  6.400000e+001  5.000000e+000
      vertex  4.700000e+001  4.000000e+000  0.000000e+000
    endloop
  endfacet
  facet normal  1.000000e+000  0.000000e+000  0.000000e+000
    outer loop
      vertex  4.700000e+001  4.000000e+000  0.000000e+000
      vertex  4.700000e+001  6.400000e+001  5.000000e+000
      vertex  4.700000e+001  4.000000e+000  5.000000e+000
    endloop
  endfacet
  facet normal  1.000000e+000  0.000000e+000  0.000000e+000
    outer loop
      vertex  2.000000e+001  6.400000e+001  0.000000e+000
      vertex  2.000000e+001  6.400000e+001  5.000000e+000
      vertex  2.000000e+001  4.000000e+000  0.000000e+000
    endloop
  endfacet
  facet normal  1.000000e+000  0.000000e+000  0.000000e+000
    outer loop
      vertex  2.000000e+001  4.000000e+000  0.000000e+000
      vertex  2.000000e+001  6.400000e+001  5.000000e+000
      vertex  2.000000e+001  4.000000e+000  5.000000e+000
    endloop
  endfacet
  facet normal  0.000000e+000  9.999999e-001  0.000000e+000
    outer loop
      vertex  4.300000e+001  4.000000e+000  0.000000e+000
      vertex  2.000000e+001  4.000000e+000  0.000000e+000
      vertex  4.300000e+001  4.000000e+000  5.000000e+000
    endloop
  endfacet
  facet normal  0.000000e+000  9.999999e-001  0.000000e+000
    outer loop
      vertex  4.300000e+001  4.000000e+000  5.000000e+000
      vertex  2.000000e+001  4.000000e+000  0.000000e+000
      vertex  2.000000e+001  4.000000e+000  5.000000e+000
    endloop
  endfacet
  facet normal -1.000000e+000  0.000000e+000  0.000000e+000
    outer loop
      vertex  4.300000e+001  4.000000e+000  0.000000e+000
      vertex  4.300000e+001  4.000000e+000  5.000000e+000
      vertex  4.300000e+001  6.400000e+001  0.000000e+000
    endloop
  endfacet
  facet normal -1.000000e+000  0.000000e+000  0.000000e+000
    outer loop
      vertex  4.300000e+001  6.400000e+001  0.000000e+000
      vertex  4.300000e+001  4.000000e+000  5.000000e+000
      vertex  4.300000e+001  6.400000e+001  5.000000e+000
    endloop
  endfacet
  facet normal  0.000000e+000 -9.999999e-001  0.000000e+000
    outer loop
      vertex  2.000000e+001  6.400000e+001  0.000000e+000
      vertex  4.300000e+001  6.400000e+001  0.000000e+000
      vertex  2.000000e+001  6.400000e+001  5.000000e+000
    endloop
  endfacet
  facet normal  0.000000e+000 -9.999999e-001  0.000000e+000
    outer loop
      vertex  2.000000e+001  6.400000e+001  5.000000e+000
      vertex  4.300000e+001  6.400000e+001  0.000000e+000
      vertex  4.300000e+001  6.400000e+001  5.000000e+000
    endloop
  endfacet
endsolid CATIA STL
