solid CATIA STL
  facet normal  1.000000e+000  0.000000e+000  -0.000000e+000
    outer loop
      vertex -1.280000e+001 -1.570000e+001  9.700000e+001
      vertex -1.280000e+001 -2.800000e+000  8.200000e+001
      vertex -1.280000e+001 -2.207953e+000  8.382214e+001
    endloop
  endfacet
  facet normal  1.000000e+000  0.000000e+000  -0.000000e+000
    outer loop
      vertex -1.280000e+001 -1.570000e+001  9.700000e+001
      vertex -1.280000e+001 -2.207953e+000  8.382214e+001
      vertex -1.280000e+001 -6.579527e-001  8.494827e+001
    endloop
  endfacet
  facet normal  1.000000e+000  0.000000e+000  -0.000000e+000
    outer loop
      vertex -1.280000e+001 -1.570000e+001  9.700000e+001
      vertex -1.280000e+001 -6.579527e-001  8.494827e+001
      vertex -1.280000e+001  1.257953e+000  8.494827e+001
    endloop
  endfacet
  facet normal  9.999999e-001  0.000000e+000  -0.000000e+000
    outer loop
      vertex -1.280000e+001 -1.570000e+001  9.700000e+001
      vertex -1.280000e+001  1.257953e+000  8.494827e+001
      vertex -1.280000e+001  1.280000e+001  9.700000e+001
    endloop
  endfacet
  facet normal  1.000000e+000  0.000000e+000  0.000000e+000
    outer loop
      vertex -1.280000e+001  1.280000e+001  0.000000e+000
      vertex -1.280000e+001  3.400000e+000  8.200000e+001
      vertex -1.280000e+001  2.807953e+000  8.017786e+001
    endloop
  endfacet
  facet normal  1.000000e+000  0.000000e+000  0.000000e+000
    outer loop
      vertex -1.280000e+001  1.280000e+001  0.000000e+000
      vertex -1.280000e+001  2.807953e+000  8.017786e+001
      vertex -1.280000e+001  1.257953e+000  7.905173e+001
    endloop
  endfacet
  facet normal  1.000000e+000  0.000000e+000  0.000000e+000
    outer loop
      vertex -1.280000e+001  1.280000e+001  0.000000e+000
      vertex -1.280000e+001  1.257953e+000  7.905173e+001
      vertex -1.280000e+001 -6.579527e-001  7.905173e+001
    endloop
  endfacet
  facet normal  1.000000e+000  0.000000e+000  0.000000e+000
    outer loop
      vertex -1.280000e+001  1.280000e+001  0.000000e+000
      vertex -1.280000e+001 -6.579527e-001  7.905173e+001
      vertex -1.280000e+001 -1.570000e+001  0.000000e+000
    endloop
  endfacet
  facet normal  1.000000e+000  0.000000e+000  0.000000e+000
    outer loop
      vertex -1.280000e+001 -1.570000e+001  0.000000e+000
      vertex -1.280000e+001 -6.579527e-001  7.905173e+001
      vertex -1.280000e+001 -2.207953e+000  8.017786e+001
    endloop
  endfacet
  facet normal  1.000000e+000  0.000000e+000  0.000000e+000
    outer loop
      vertex -1.280000e+001 -1.570000e+001  0.000000e+000
      vertex -1.280000e+001 -2.207953e+000  8.017786e+001
      vertex -1.280000e+001 -2.800000e+000  8.200000e+001
    endloop
  endfacet
  facet normal  1.000000e+000  0.000000e+000  0.000000e+000
    outer loop
      vertex -1.280000e+001 -1.570000e+001  0.000000e+000
      vertex -1.280000e+001 -2.800000e+000  8.200000e+001
      vertex -1.280000e+001 -1.570000e+001  9.700000e+001
    endloop
  endfacet
  facet normal  9.999999e-001  -0.000000e+000  0.000000e+000
    outer loop
      vertex -1.280000e+001  1.280000e+001  9.700000e+001
      vertex -1.280000e+001  1.257953e+000  8.494827e+001
      vertex -1.280000e+001  2.807953e+000  8.382214e+001
    endloop
  endfacet
  facet normal  1.000000e+000  -0.000000e+000  0.000000e+000
    outer loop
      vertex -1.280000e+001  1.280000e+001  9.700000e+001
      vertex -1.280000e+001  2.807953e+000  8.382214e+001
      vertex -1.280000e+001  3.400000e+000  8.200000e+001
    endloop
  endfacet
  facet normal  1.000000e+000  -0.000000e+000  0.000000e+000
    outer loop
      vertex -1.280000e+001  1.280000e+001  9.700000e+001
      vertex -1.280000e+001  3.400000e+000  8.200000e+001
      vertex -1.280000e+001  1.280000e+001  0.000000e+000
    endloop
  endfacet
  facet normal  1.000000e+000  0.000000e+000  -0.000000e+000
    outer loop
      vertex  1.970000e+001 -1.970000e+001  9.700000e+001
      vertex  1.970000e+001 -2.800000e+000  8.200000e+001
      vertex  1.970000e+001 -2.207953e+000  8.382214e+001
    endloop
  endfacet
  facet normal  9.999999e-001  0.000000e+000  -0.000000e+000
    outer loop
      vertex  1.970000e+001 -1.970000e+001  9.700000e+001
      vertex  1.970000e+001 -2.207953e+000  8.382214e+001
      vertex  1.970000e+001 -6.579527e-001  8.494827e+001
    endloop
  endfacet
  facet normal  1.000000e+000  0.000000e+000  -0.000000e+000
    outer loop
      vertex  1.970000e+001 -1.970000e+001  9.700000e+001
      vertex  1.970000e+001 -6.579527e-001  8.494827e+001
      vertex  1.970000e+001  1.257953e+000  8.494827e+001
    endloop
  endfacet
  facet normal  1.000000e+000  0.000000e+000  -0.000000e+000
    outer loop
      vertex  1.970000e+001 -1.970000e+001  9.700000e+001
      vertex  1.970000e+001  1.257953e+000  8.494827e+001
      vertex  1.970000e+001  1.680000e+001  9.700000e+001
    endloop
  endfacet
  facet normal  1.000000e+000  0.000000e+000  0.000000e+000
    outer loop
      vertex  1.970000e+001  1.680000e+001  0.000000e+000
      vertex  1.970000e+001  3.400000e+000  8.200000e+001
      vertex  1.970000e+001  2.807953e+000  8.017786e+001
    endloop
  endfacet
  facet normal  1.000000e+000  0.000000e+000  0.000000e+000
    outer loop
      vertex  1.970000e+001  1.680000e+001  0.000000e+000
      vertex  1.970000e+001  2.807953e+000  8.017786e+001
      vertex  1.970000e+001  1.257953e+000  7.905173e+001
    endloop
  endfacet
  facet normal  1.000000e+000  0.000000e+000  0.000000e+000
    outer loop
      vertex  1.970000e+001  1.680000e+001  0.000000e+000
      vertex  1.970000e+001  1.257953e+000  7.905173e+001
      vertex  1.970000e+001 -6.579527e-001  7.905173e+001
    endloop
  endfacet
  facet normal  1.000000e+000  0.000000e+000  0.000000e+000
    outer loop
      vertex  1.970000e+001  1.680000e+001  0.000000e+000
      vertex  1.970000e+001 -6.579527e-001  7.905173e+001
      vertex  1.970000e+001 -1.970000e+001  0.000000e+000
    endloop
  endfacet
  facet normal  1.000000e+000  0.000000e+000  0.000000e+000
    outer loop
      vertex  1.970000e+001 -1.970000e+001  0.000000e+000
      vertex  1.970000e+001 -6.579527e-001  7.905173e+001
      vertex  1.970000e+001 -2.207953e+000  8.017786e+001
    endloop
  endfacet
  facet normal  1.000000e+000  0.000000e+000  0.000000e+000
    outer loop
      vertex  1.970000e+001 -1.970000e+001  0.000000e+000
      vertex  1.970000e+001 -2.207953e+000  8.017786e+001
      vertex  1.970000e+001 -2.800000e+000  8.200000e+001
    endloop
  endfacet
  facet normal  1.000000e+000  0.000000e+000  0.000000e+000
    outer loop
      vertex  1.970000e+001 -1.970000e+001  0.000000e+000
      vertex  1.970000e+001 -2.800000e+000  8.200000e+001
      vertex  1.970000e+001 -1.970000e+001  9.700000e+001
    endloop
  endfacet
  facet normal  1.000000e+000  -0.000000e+000  0.000000e+000
    outer loop
      vertex  1.970000e+001  1.680000e+001  9.700000e+001
      vertex  1.970000e+001  1.257953e+000  8.494827e+001
      vertex  1.970000e+001  2.807953e+000  8.382214e+001
    endloop
  endfacet
  facet normal  1.000000e+000  -0.000000e+000  0.000000e+000
    outer loop
      vertex  1.970000e+001  1.680000e+001  9.700000e+001
      vertex  1.970000e+001  2.807953e+000  8.382214e+001
      vertex  1.970000e+001  3.400000e+000  8.200000e+001
    endloop
  endfacet
  facet normal  1.000000e+000  -0.000000e+000  0.000000e+000
    outer loop
      vertex  1.970000e+001  1.680000e+001  9.700000e+001
      vertex  1.970000e+001  3.400000e+000  8.200000e+001
      vertex  1.970000e+001  1.680000e+001  0.000000e+000
    endloop
  endfacet
  facet normal -1.000000e+000  0.000000e+000  0.000000e+000
    outer loop
      vertex -1.680000e+001  1.680000e+001  9.700000e+001
      vertex -1.680000e+001  3.400000e+000  8.200000e+001
      vertex -1.680000e+001  2.807953e+000  8.382214e+001
    endloop
  endfacet
  facet normal -1.000000e+000  0.000000e+000  0.000000e+000
    outer loop
      vertex -1.680000e+001  1.680000e+001  9.700000e+001
      vertex -1.680000e+001  2.807953e+000  8.382214e+001
      vertex -1.680000e+001  1.257953e+000  8.494827e+001
    endloop
  endfacet
  facet normal -1.000000e+000  0.000000e+000  0.000000e+000
    outer loop
      vertex -1.680000e+001  1.680000e+001  9.700000e+001
      vertex -1.680000e+001  1.257953e+000  8.494827e+001
      vertex -1.680000e+001 -6.579527e-001  8.494827e+001
    endloop
  endfacet
  facet normal -1.000000e+000  0.000000e+000  0.000000e+000
    outer loop
      vertex -1.680000e+001  1.680000e+001  9.700000e+001
      vertex -1.680000e+001 -6.579527e-001  8.494827e+001
      vertex -1.680000e+001 -1.970000e+001  9.700000e+001
    endloop
  endfacet
  facet normal -1.000000e+000  0.000000e+000  -0.000000e+000
    outer loop
      vertex -1.680000e+001 -1.970000e+001  0.000000e+000
      vertex -1.680000e+001 -2.800000e+000  8.200000e+001
      vertex -1.680000e+001 -2.207953e+000  8.017786e+001
    endloop
  endfacet
  facet normal -1.000000e+000  0.000000e+000  -0.000000e+000
    outer loop
      vertex -1.680000e+001 -1.970000e+001  0.000000e+000
      vertex -1.680000e+001 -2.207953e+000  8.017786e+001
      vertex -1.680000e+001 -6.579527e-001  7.905173e+001
    endloop
  endfacet
  facet normal -1.000000e+000  0.000000e+000  -0.000000e+000
    outer loop
      vertex -1.680000e+001 -1.970000e+001  0.000000e+000
      vertex -1.680000e+001 -6.579527e-001  7.905173e+001
      vertex -1.680000e+001  1.257953e+000  7.905173e+001
    endloop
  endfacet
  facet normal -1.000000e+000  0.000000e+000  -0.000000e+000
    outer loop
      vertex -1.680000e+001 -1.970000e+001  0.000000e+000
      vertex -1.680000e+001  1.257953e+000  7.905173e+001
      vertex -1.680000e+001  1.680000e+001  0.000000e+000
    endloop
  endfacet
  facet normal -1.000000e+000  0.000000e+000  0.000000e+000
    outer loop
      vertex -1.680000e+001  1.680000e+001  0.000000e+000
      vertex -1.680000e+001  1.257953e+000  7.905173e+001
      vertex -1.680000e+001  2.807953e+000  8.017786e+001
    endloop
  endfacet
  facet normal -1.000000e+000  0.000000e+000  0.000000e+000
    outer loop
      vertex -1.680000e+001  1.680000e+001  0.000000e+000
      vertex -1.680000e+001  2.807953e+000  8.017786e+001
      vertex -1.680000e+001  3.400000e+000  8.200000e+001
    endloop
  endfacet
  facet normal -1.000000e+000  0.000000e+000  0.000000e+000
    outer loop
      vertex -1.680000e+001  1.680000e+001  0.000000e+000
      vertex -1.680000e+001  3.400000e+000  8.200000e+001
      vertex -1.680000e+001  1.680000e+001  9.700000e+001
    endloop
  endfacet
  facet normal -1.000000e+000  -0.000000e+000  0.000000e+000
    outer loop
      vertex -1.680000e+001 -1.970000e+001  9.700000e+001
      vertex -1.680000e+001 -6.579527e-001  8.494827e+001
      vertex -1.680000e+001 -2.207953e+000  8.382214e+001
    endloop
  endfacet
  facet normal -1.000000e+000  -0.000000e+000  0.000000e+000
    outer loop
      vertex -1.680000e+001 -1.970000e+001  9.700000e+001
      vertex -1.680000e+001 -2.207953e+000  8.382214e+001
      vertex -1.680000e+001 -2.800000e+000  8.200000e+001
    endloop
  endfacet
  facet normal -1.000000e+000  -0.000000e+000  0.000000e+000
    outer loop
      vertex -1.680000e+001 -1.970000e+001  9.700000e+001
      vertex -1.680000e+001 -2.800000e+000  8.200000e+001
      vertex -1.680000e+001 -1.970000e+001  0.000000e+000
    endloop
  endfacet
  facet normal -1.000000e+000  0.000000e+000  0.000000e+000
    outer loop
      vertex  1.570000e+001  1.280000e+001  9.700000e+001
      vertex  1.570000e+001  3.400000e+000  8.200000e+001
      vertex  1.570000e+001  2.807953e+000  8.382214e+001
    endloop
  endfacet
  facet normal -9.999999e-001  0.000000e+000  0.000000e+000
    outer loop
      vertex  1.570000e+001  1.280000e+001  9.700000e+001
      vertex  1.570000e+001  2.807953e+000  8.382214e+001
      vertex  1.570000e+001  1.257953e+000  8.494827e+001
    endloop
  endfacet
  facet normal -1.000000e+000  0.000000e+000  0.000000e+000
    outer loop
      vertex  1.570000e+001  1.280000e+001  9.700000e+001
      vertex  1.570000e+001  1.257953e+000  8.494827e+001
      vertex  1.570000e+001 -6.579527e-001  8.494827e+001
    endloop
  endfacet
  facet normal -9.999999e-001  0.000000e+000  0.000000e+000
    outer loop
      vertex  1.570000e+001  1.280000e+001  9.700000e+001
      vertex  1.570000e+001 -6.579527e-001  8.494827e+001
      vertex  1.570000e+001 -1.570000e+001  9.700000e+001
    endloop
  endfacet
  facet normal -1.000000e+000  0.000000e+000  -0.000000e+000
    outer loop
      vertex  1.570000e+001 -1.570000e+001  0.000000e+000
      vertex  1.570000e+001 -2.800000e+000  8.200000e+001
      vertex  1.570000e+001 -2.207953e+000  8.017786e+001
    endloop
  endfacet
  facet normal -1.000000e+000  0.000000e+000  -0.000000e+000
    outer loop
      vertex  1.570000e+001 -1.570000e+001  0.000000e+000
      vertex  1.570000e+001 -2.207953e+000  8.017786e+001
      vertex  1.570000e+001 -6.579527e-001  7.905173e+001
    endloop
  endfacet
  facet normal -1.000000e+000  0.000000e+000  -0.000000e+000
    outer loop
      vertex  1.570000e+001 -1.570000e+001  0.000000e+000
      vertex  1.570000e+001 -6.579527e-001  7.905173e+001
      vertex  1.570000e+001  1.257953e+000  7.905173e+001
    endloop
  endfacet
  facet normal -1.000000e+000  0.000000e+000  -0.000000e+000
    outer loop
      vertex  1.570000e+001 -1.570000e+001  0.000000e+000
      vertex  1.570000e+001  1.257953e+000  7.905173e+001
      vertex  1.570000e+001  1.280000e+001  0.000000e+000
    endloop
  endfacet
  facet normal -1.000000e+000  0.000000e+000  0.000000e+000
    outer loop
      vertex  1.570000e+001  1.280000e+001  0.000000e+000
      vertex  1.570000e+001  1.257953e+000  7.905173e+001
      vertex  1.570000e+001  2.807953e+000  8.017786e+001
    endloop
  endfacet
  facet normal -1.000000e+000  0.000000e+000  0.000000e+000
    outer loop
      vertex  1.570000e+001  1.280000e+001  0.000000e+000
      vertex  1.570000e+001  2.807953e+000  8.017786e+001
      vertex  1.570000e+001  3.400000e+000  8.200000e+001
    endloop
  endfacet
  facet normal -1.000000e+000  0.000000e+000  0.000000e+000
    outer loop
      vertex  1.570000e+001  1.280000e+001  0.000000e+000
      vertex  1.570000e+001  3.400000e+000  8.200000e+001
      vertex  1.570000e+001  1.280000e+001  9.700000e+001
    endloop
  endfacet
  facet normal -1.000000e+000  -0.000000e+000  0.000000e+000
    outer loop
      vertex  1.570000e+001 -1.570000e+001  9.700000e+001
      vertex  1.570000e+001 -6.579527e-001  8.494827e+001
      vertex  1.570000e+001 -2.207953e+000  8.382214e+001
    endloop
  endfacet
  facet normal -1.000000e+000  -0.000000e+000  0.000000e+000
    outer loop
      vertex  1.570000e+001 -1.570000e+001  9.700000e+001
      vertex  1.570000e+001 -2.207953e+000  8.382214e+001
      vertex  1.570000e+001 -2.800000e+000  8.200000e+001
    endloop
  endfacet
  facet normal -1.000000e+000  -0.000000e+000  0.000000e+000
    outer loop
      vertex  1.570000e+001 -1.570000e+001  9.700000e+001
      vertex  1.570000e+001 -2.800000e+000  8.200000e+001
      vertex  1.570000e+001 -1.570000e+001  0.000000e+000
    endloop
  endfacet
  facet normal  0.000000e+000 -5.877838e-001 -8.090180e-001
    outer loop
      vertex -1.280000e+001  1.257953e+000  8.494827e+001
      vertex -1.680000e+001  2.807953e+000  8.382214e+001
      vertex -1.280000e+001  2.807953e+000  8.382214e+001
    endloop
  endfacet
  facet normal  -0.000000e+000 -9.510565e-001 -3.090168e-001
    outer loop
      vertex -1.280000e+001  2.807953e+000  8.382214e+001
      vertex -1.680000e+001  2.807953e+000  8.382214e+001
      vertex -1.680000e+001  3.400000e+000  8.200000e+001
    endloop
  endfacet
  facet normal  0.000000e+000 -9.510565e-001 -3.090168e-001
    outer loop
      vertex -1.280000e+001  2.807953e+000  8.382214e+001
      vertex -1.680000e+001  3.400000e+000  8.200000e+001
      vertex -1.280000e+001  3.400000e+000  8.200000e+001
    endloop
  endfacet
  facet normal  -0.000000e+000 -5.877838e-001 -8.090180e-001
    outer loop
      vertex -1.680000e+001  2.807953e+000  8.382214e+001
      vertex -1.280000e+001  1.257953e+000  8.494827e+001
      vertex -1.680000e+001  1.257953e+000  8.494827e+001
    endloop
  endfacet
  facet normal  0.000000e+000  0.000000e+000 -1.000000e+000
    outer loop
      vertex -1.680000e+001  1.257953e+000  8.494827e+001
      vertex -1.280000e+001  1.257953e+000  8.494827e+001
      vertex -1.280000e+001 -6.579527e-001  8.494827e+001
    endloop
  endfacet
  facet normal  0.000000e+000  0.000000e+000 -1.000000e+000
    outer loop
      vertex -1.680000e+001  1.257953e+000  8.494827e+001
      vertex -1.280000e+001 -6.579527e-001  8.494827e+001
      vertex -1.680000e+001 -6.579527e-001  8.494827e+001
    endloop
  endfacet
  facet normal  0.000000e+000  5.877838e-001 -8.090180e-001
    outer loop
      vertex -1.680000e+001 -6.579527e-001  8.494827e+001
      vertex -1.280000e+001 -6.579527e-001  8.494827e+001
      vertex -1.280000e+001 -2.207953e+000  8.382214e+001
    endloop
  endfacet
  facet normal  0.000000e+000  5.877838e-001 -8.090180e-001
    outer loop
      vertex -1.680000e+001 -6.579527e-001  8.494827e+001
      vertex -1.280000e+001 -2.207953e+000  8.382214e+001
      vertex -1.680000e+001 -2.207953e+000  8.382214e+001
    endloop
  endfacet
  facet normal  0.000000e+000  9.510565e-001 -3.090167e-001
    outer loop
      vertex -1.680000e+001 -2.207953e+000  8.382214e+001
      vertex -1.280000e+001 -2.207953e+000  8.382214e+001
      vertex -1.280000e+001 -2.800000e+000  8.200000e+001
    endloop
  endfacet
  facet normal  0.000000e+000  9.510565e-001 -3.090167e-001
    outer loop
      vertex -1.680000e+001 -2.207953e+000  8.382214e+001
      vertex -1.280000e+001 -2.800000e+000  8.200000e+001
      vertex -1.680000e+001 -2.800000e+000  8.200000e+001
    endloop
  endfacet
  facet normal  0.000000e+000 -5.877839e-001 -8.090181e-001
    outer loop
      vertex  1.970000e+001  1.257953e+000  8.494827e+001
      vertex  1.570000e+001  2.807953e+000  8.382214e+001
      vertex  1.970000e+001  2.807953e+000  8.382214e+001
    endloop
  endfacet
  facet normal  -0.000000e+000 -9.510566e-001 -3.090168e-001
    outer loop
      vertex  1.970000e+001  2.807953e+000  8.382214e+001
      vertex  1.570000e+001  2.807953e+000  8.382214e+001
      vertex  1.570000e+001  3.400000e+000  8.200000e+001
    endloop
  endfacet
  facet normal  0.000000e+000 -9.510566e-001 -3.090168e-001
    outer loop
      vertex  1.970000e+001  2.807953e+000  8.382214e+001
      vertex  1.570000e+001  3.400000e+000  8.200000e+001
      vertex  1.970000e+001  3.400000e+000  8.200000e+001
    endloop
  endfacet
  facet normal  -0.000000e+000 -5.877839e-001 -8.090181e-001
    outer loop
      vertex  1.570000e+001  2.807953e+000  8.382214e+001
      vertex  1.970000e+001  1.257953e+000  8.494827e+001
      vertex  1.570000e+001  1.257953e+000  8.494827e+001
    endloop
  endfacet
  facet normal  0.000000e+000  0.000000e+000 -1.000000e+000
    outer loop
      vertex  1.570000e+001  1.257953e+000  8.494827e+001
      vertex  1.970000e+001  1.257953e+000  8.494827e+001
      vertex  1.970000e+001 -6.579527e-001  8.494827e+001
    endloop
  endfacet
  facet normal  0.000000e+000  0.000000e+000 -1.000000e+000
    outer loop
      vertex  1.570000e+001  1.257953e+000  8.494827e+001
      vertex  1.970000e+001 -6.579527e-001  8.494827e+001
      vertex  1.570000e+001 -6.579527e-001  8.494827e+001
    endloop
  endfacet
  facet normal  0.000000e+000  5.877838e-001 -8.090180e-001
    outer loop
      vertex  1.570000e+001 -6.579527e-001  8.494827e+001
      vertex  1.970000e+001 -6.579527e-001  8.494827e+001
      vertex  1.970000e+001 -2.207953e+000  8.382214e+001
    endloop
  endfacet
  facet normal  0.000000e+000  5.877838e-001 -8.090180e-001
    outer loop
      vertex  1.570000e+001 -6.579527e-001  8.494827e+001
      vertex  1.970000e+001 -2.207953e+000  8.382214e+001
      vertex  1.570000e+001 -2.207953e+000  8.382214e+001
    endloop
  endfacet
  facet normal  0.000000e+000  9.510566e-001 -3.090167e-001
    outer loop
      vertex  1.570000e+001 -2.207953e+000  8.382214e+001
      vertex  1.970000e+001 -2.207953e+000  8.382214e+001
      vertex  1.970000e+001 -2.800000e+000  8.200000e+001
    endloop
  endfacet
  facet normal  0.000000e+000  9.510566e-001 -3.090167e-001
    outer loop
      vertex  1.570000e+001 -2.207953e+000  8.382214e+001
      vertex  1.970000e+001 -2.800000e+000  8.200000e+001
      vertex  1.570000e+001 -2.800000e+000  8.200000e+001
    endloop
  endfacet
  facet normal  -0.000000e+000  5.877838e-001  8.090180e-001
    outer loop
      vertex -1.280000e+001 -6.579527e-001  7.905173e+001
      vertex -1.680000e+001 -2.207953e+000  8.017786e+001
      vertex -1.280000e+001 -2.207953e+000  8.017786e+001
    endloop
  endfacet
  facet normal  0.000000e+000  9.510565e-001  3.090167e-001
    outer loop
      vertex -1.280000e+001 -2.207953e+000  8.017786e+001
      vertex -1.680000e+001 -2.207953e+000  8.017786e+001
      vertex -1.680000e+001 -2.800000e+000  8.200000e+001
    endloop
  endfacet
  facet normal  -0.000000e+000  9.510565e-001  3.090167e-001
    outer loop
      vertex -1.280000e+001 -2.207953e+000  8.017786e+001
      vertex -1.680000e+001 -2.800000e+000  8.200000e+001
      vertex -1.280000e+001 -2.800000e+000  8.200000e+001
    endloop
  endfacet
  facet normal  0.000000e+000  5.877838e-001  8.090180e-001
    outer loop
      vertex -1.680000e+001 -2.207953e+000  8.017786e+001
      vertex -1.280000e+001 -6.579527e-001  7.905173e+001
      vertex -1.680000e+001 -6.579527e-001  7.905173e+001
    endloop
  endfacet
  facet normal  0.000000e+000  0.000000e+000  1.000000e+000
    outer loop
      vertex -1.680000e+001 -6.579527e-001  7.905173e+001
      vertex -1.280000e+001 -6.579527e-001  7.905173e+001
      vertex -1.280000e+001  1.257953e+000  7.905173e+001
    endloop
  endfacet
  facet normal  0.000000e+000  0.000000e+000  1.000000e+000
    outer loop
      vertex -1.680000e+001 -6.579527e-001  7.905173e+001
      vertex -1.280000e+001  1.257953e+000  7.905173e+001
      vertex -1.680000e+001  1.257953e+000  7.905173e+001
    endloop
  endfacet
  facet normal  0.000000e+000 -5.877838e-001  8.090180e-001
    outer loop
      vertex -1.680000e+001  1.257953e+000  7.905173e+001
      vertex -1.280000e+001  1.257953e+000  7.905173e+001
      vertex -1.280000e+001  2.807953e+000  8.017786e+001
    endloop
  endfacet
  facet normal  0.000000e+000 -5.877838e-001  8.090180e-001
    outer loop
      vertex -1.680000e+001  1.257953e+000  7.905173e+001
      vertex -1.280000e+001  2.807953e+000  8.017786e+001
      vertex -1.680000e+001  2.807953e+000  8.017786e+001
    endloop
  endfacet
  facet normal  0.000000e+000 -9.510565e-001  3.090168e-001
    outer loop
      vertex -1.680000e+001  2.807953e+000  8.017786e+001
      vertex -1.280000e+001  2.807953e+000  8.017786e+001
      vertex -1.280000e+001  3.400000e+000  8.200000e+001
    endloop
  endfacet
  facet normal  0.000000e+000 -9.510565e-001  3.090168e-001
    outer loop
      vertex -1.680000e+001  2.807953e+000  8.017786e+001
      vertex -1.280000e+001  3.400000e+000  8.200000e+001
      vertex -1.680000e+001  3.400000e+000  8.200000e+001
    endloop
  endfacet
  facet normal  -0.000000e+000  5.877838e-001  8.090180e-001
    outer loop
      vertex  1.970000e+001 -6.579527e-001  7.905173e+001
      vertex  1.570000e+001 -2.207953e+000  8.017786e+001
      vertex  1.970000e+001 -2.207953e+000  8.017786e+001
    endloop
  endfacet
  facet normal  0.000000e+000  9.510566e-001  3.090167e-001
    outer loop
      vertex  1.970000e+001 -2.207953e+000  8.017786e+001
      vertex  1.570000e+001 -2.207953e+000  8.017786e+001
      vertex  1.570000e+001 -2.800000e+000  8.200000e+001
    endloop
  endfacet
  facet normal  -0.000000e+000  9.510566e-001  3.090167e-001
    outer loop
      vertex  1.970000e+001 -2.207953e+000  8.017786e+001
      vertex  1.570000e+001 -2.800000e+000  8.200000e+001
      vertex  1.970000e+001 -2.800000e+000  8.200000e+001
    endloop
  endfacet
  facet normal  0.000000e+000  5.877838e-001  8.090180e-001
    outer loop
      vertex  1.570000e+001 -2.207953e+000  8.017786e+001
      vertex  1.970000e+001 -6.579527e-001  7.905173e+001
      vertex  1.570000e+001 -6.579527e-001  7.905173e+001
    endloop
  endfacet
  facet normal  0.000000e+000  0.000000e+000  1.000000e+000
    outer loop
      vertex  1.570000e+001 -6.579527e-001  7.905173e+001
      vertex  1.970000e+001 -6.579527e-001  7.905173e+001
      vertex  1.970000e+001  1.257953e+000  7.905173e+001
    endloop
  endfacet
  facet normal  0.000000e+000  0.000000e+000  1.000000e+000
    outer loop
      vertex  1.570000e+001 -6.579527e-001  7.905173e+001
      vertex  1.970000e+001  1.257953e+000  7.905173e+001
      vertex  1.570000e+001  1.257953e+000  7.905173e+001
    endloop
  endfacet
  facet normal  0.000000e+000 -5.877839e-001  8.090181e-001
    outer loop
      vertex  1.570000e+001  1.257953e+000  7.905173e+001
      vertex  1.970000e+001  1.257953e+000  7.905173e+001
      vertex  1.970000e+001  2.807953e+000  8.017786e+001
    endloop
  endfacet
  facet normal  0.000000e+000 -5.877839e-001  8.090181e-001
    outer loop
      vertex  1.570000e+001  1.257953e+000  7.905173e+001
      vertex  1.970000e+001  2.807953e+000  8.017786e+001
      vertex  1.570000e+001  2.807953e+000  8.017786e+001
    endloop
  endfacet
  facet normal  0.000000e+000 -9.510566e-001  3.090168e-001
    outer loop
      vertex  1.570000e+001  2.807953e+000  8.017786e+001
      vertex  1.970000e+001  2.807953e+000  8.017786e+001
      vertex  1.970000e+001  3.400000e+000  8.200000e+001
    endloop
  endfacet
  facet normal  0.000000e+000 -9.510566e-001  3.090168e-001
    outer loop
      vertex  1.570000e+001  2.807953e+000  8.017786e+001
      vertex  1.970000e+001  3.400000e+000  8.200000e+001
      vertex  1.570000e+001  3.400000e+000  8.200000e+001
    endloop
  endfacet
  facet normal  -0.000000e+000  0.000000e+000 -1.000000e+000
    outer loop
      vertex -1.680000e+001  1.680000e+001  0.000000e+000
      vertex -1.280000e+001 -1.570000e+001  0.000000e+000
      vertex -1.680000e+001 -1.970000e+001  0.000000e+000
    endloop
  endfacet
  facet normal  0.000000e+000  0.000000e+000 -9.999999e-001
    outer loop
      vertex -1.680000e+001 -1.970000e+001  0.000000e+000
      vertex -1.280000e+001 -1.570000e+001  0.000000e+000
      vertex  1.570000e+001 -1.570000e+001  0.000000e+000
    endloop
  endfacet
  facet normal  0.000000e+000  -0.000000e+000 -9.999999e-001
    outer loop
      vertex -1.680000e+001 -1.970000e+001  0.000000e+000
      vertex  1.570000e+001 -1.570000e+001  0.000000e+000
      vertex  1.970000e+001 -1.970000e+001  0.000000e+000
    endloop
  endfacet
  facet normal  0.000000e+000  0.000000e+000 -1.000000e+000
    outer loop
      vertex -1.280000e+001 -1.570000e+001  0.000000e+000
      vertex -1.680000e+001  1.680000e+001  0.000000e+000
      vertex -1.280000e+001  1.280000e+001  0.000000e+000
    endloop
  endfacet
  facet normal  0.000000e+000  0.000000e+000 -1.000000e+000
    outer loop
      vertex -1.280000e+001  1.280000e+001  0.000000e+000
      vertex -1.680000e+001  1.680000e+001  0.000000e+000
      vertex  1.970000e+001  1.680000e+001  0.000000e+000
    endloop
  endfacet
  facet normal  0.000000e+000  0.000000e+000 -9.999999e-001
    outer loop
      vertex -1.280000e+001  1.280000e+001  0.000000e+000
      vertex  1.970000e+001  1.680000e+001  0.000000e+000
      vertex  1.570000e+001  1.280000e+001  0.000000e+000
    endloop
  endfacet
  facet normal  0.000000e+000  0.000000e+000 -1.000000e+000
    outer loop
      vertex  1.570000e+001  1.280000e+001  0.000000e+000
      vertex  1.970000e+001  1.680000e+001  0.000000e+000
      vertex  1.970000e+001 -1.970000e+001  0.000000e+000
    endloop
  endfacet
  facet normal  0.000000e+000  0.000000e+000 -1.000000e+000
    outer loop
      vertex  1.570000e+001  1.280000e+001  0.000000e+000
      vertex  1.970000e+001 -1.970000e+001  0.000000e+000
      vertex  1.570000e+001 -1.570000e+001  0.000000e+000
    endloop
  endfacet
  facet normal  0.000000e+000  0.000000e+000  9.999999e-001
    outer loop
      vertex  1.970000e+001 -1.970000e+001  9.700000e+001
      vertex  1.570000e+001 -1.570000e+001  9.700000e+001
      vertex -1.680000e+001 -1.970000e+001  9.700000e+001
    endloop
  endfacet
  facet normal  0.000000e+000  0.000000e+000  9.999999e-001
    outer loop
      vertex -1.680000e+001 -1.970000e+001  9.700000e+001
      vertex  1.570000e+001 -1.570000e+001  9.700000e+001
      vertex -1.280000e+001 -1.570000e+001  9.700000e+001
    endloop
  endfacet
  facet normal  0.000000e+000  0.000000e+000  1.000000e+000
    outer loop
      vertex -1.680000e+001 -1.970000e+001  9.700000e+001
      vertex -1.280000e+001 -1.570000e+001  9.700000e+001
      vertex -1.680000e+001  1.680000e+001  9.700000e+001
    endloop
  endfacet
  facet normal  0.000000e+000  0.000000e+000  1.000000e+000
    outer loop
      vertex -1.680000e+001  1.680000e+001  9.700000e+001
      vertex -1.280000e+001 -1.570000e+001  9.700000e+001
      vertex -1.280000e+001  1.280000e+001  9.700000e+001
    endloop
  endfacet
  facet normal  0.000000e+000  -0.000000e+000  1.000000e+000
    outer loop
      vertex -1.680000e+001  1.680000e+001  9.700000e+001
      vertex -1.280000e+001  1.280000e+001  9.700000e+001
      vertex  1.970000e+001  1.680000e+001  9.700000e+001
    endloop
  endfacet
  facet normal  0.000000e+000  0.000000e+000  9.999999e-001
    outer loop
      vertex  1.970000e+001  1.680000e+001  9.700000e+001
      vertex -1.280000e+001  1.280000e+001  9.700000e+001
      vertex  1.570000e+001  1.280000e+001  9.700000e+001
    endloop
  endfacet
  facet normal  -0.000000e+000  0.000000e+000  1.000000e+000
    outer loop
      vertex  1.970000e+001  1.680000e+001  9.700000e+001
      vertex  1.570000e+001  1.280000e+001  9.700000e+001
      vertex  1.970000e+001 -1.970000e+001  9.700000e+001
    endloop
  endfacet
  facet normal  0.000000e+000  0.000000e+000  1.000000e+000
    outer loop
      vertex  1.970000e+001 -1.970000e+001  9.700000e+001
      vertex  1.570000e+001  1.280000e+001  9.700000e+001
      vertex  1.570000e+001 -1.570000e+001  9.700000e+001
    endloop
  endfacet
  facet normal  0.000000e+000 -1.000000e+000  -0.000000e+000
    outer loop
      vertex  1.570000e+001  1.280000e+001  0.000000e+000
      vertex  1.570000e+001  1.280000e+001  9.700000e+001
      vertex -1.280000e+001  1.280000e+001  0.000000e+000
    endloop
  endfacet
  facet normal  0.000000e+000 -1.000000e+000  0.000000e+000
    outer loop
      vertex -1.280000e+001  1.280000e+001  0.000000e+000
      vertex  1.570000e+001  1.280000e+001  9.700000e+001
      vertex -1.280000e+001  1.280000e+001  9.700000e+001
    endloop
  endfacet
  facet normal  0.000000e+000  1.000000e+000  0.000000e+000
    outer loop
      vertex -1.280000e+001 -1.570000e+001  0.000000e+000
      vertex -1.280000e+001 -1.570000e+001  9.700000e+001
      vertex  1.570000e+001 -1.570000e+001  0.000000e+000
    endloop
  endfacet
  facet normal  0.000000e+000  1.000000e+000  -0.000000e+000
    outer loop
      vertex  1.570000e+001 -1.570000e+001  0.000000e+000
      vertex -1.280000e+001 -1.570000e+001  9.700000e+001
      vertex  1.570000e+001 -1.570000e+001  9.700000e+001
    endloop
  endfacet
  facet normal  0.000000e+000  1.000000e+000  0.000000e+000
    outer loop
      vertex -1.680000e+001  1.680000e+001  0.000000e+000
      vertex -1.680000e+001  1.680000e+001  9.700000e+001
      vertex  1.970000e+001  1.680000e+001  0.000000e+000
    endloop
  endfacet
  facet normal  0.000000e+000  1.000000e+000  -0.000000e+000
    outer loop
      vertex  1.970000e+001  1.680000e+001  0.000000e+000
      vertex -1.680000e+001  1.680000e+001  9.700000e+001
      vertex  1.970000e+001  1.680000e+001  9.700000e+001
    endloop
  endfacet
  facet normal  0.000000e+000 -1.000000e+000  -0.000000e+000
    outer loop
      vertex  1.970000e+001 -1.970000e+001  0.000000e+000
      vertex  1.970000e+001 -1.970000e+001  9.700000e+001
      vertex -1.680000e+001 -1.970000e+001  0.000000e+000
    endloop
  endfacet
  facet normal  0.000000e+000 -1.000000e+000  0.000000e+000
    outer loop
      vertex -1.680000e+001 -1.970000e+001  0.000000e+000
      vertex  1.970000e+001 -1.970000e+001  9.700000e+001
      vertex -1.680000e+001 -1.970000e+001  9.700000e+001
    endloop
  endfacet
endsolid CATIA STL
