solid CATIA STL
  facet normal  -0.000000e+000  1.000000e+000  0.000000e+000
    outer loop
      vertex  4.000000e+000  2.500000e+001  0.000000e+000
      vertex  2.800000e+000  2.500000e+001  2.200000e+001
      vertex  4.000000e+000  2.500000e+001  2.200000e+001
    endloop
  endfacet
  facet normal  0.000000e+000  1.000000e+000  0.000000e+000
    outer loop
      vertex  2.800000e+000  2.500000e+001  2.200000e+001
      vertex  4.000000e+000  2.500000e+001  0.000000e+000
      vertex  2.800000e+000  2.500000e+001  7.861487e+000
    endloop
  endfacet
  facet normal  0.000000e+000  1.000000e+000  0.000000e+000
    outer loop
      vertex  2.800000e+000  2.500000e+001  7.861487e+000
      vertex  4.000000e+000  2.500000e+001  0.000000e+000
      vertex -4.000000e+000  2.500000e+001  0.000000e+000
    endloop
  endfacet
  facet normal  0.000000e+000  9.999999e-001  0.000000e+000
    outer loop
      vertex  2.800000e+000  2.500000e+001  7.861487e+000
      vertex -4.000000e+000  2.500000e+001  0.000000e+000
      vertex -2.800000e+000  2.500000e+001  7.861487e+000
    endloop
  endfacet
  facet normal  0.000000e+000  1.000000e+000  0.000000e+000
    outer loop
      vertex -2.800000e+000  2.500000e+001  7.861487e+000
      vertex -4.000000e+000  2.500000e+001  0.000000e+000
      vertex -4.000000e+000  2.500000e+001  2.200000e+001
    endloop
  endfacet
  facet normal  -0.000000e+000  1.000000e+000  0.000000e+000
    outer loop
      vertex -2.800000e+000  2.500000e+001  7.861487e+000
      vertex -4.000000e+000  2.500000e+001  2.200000e+001
      vertex -2.800000e+000  2.500000e+001  2.200000e+001
    endloop
  endfacet
  facet normal  0.000000e+000 -1.000000e+000  0.000000e+000
    outer loop
      vertex  6.000000e+000 -2.500000e+001  7.583736e+000
      vertex -2.800000e+000 -2.500000e+001  7.583736e+000
      vertex  6.000000e+000 -2.500000e+001  0.000000e+000
    endloop
  endfacet
  facet normal  0.000000e+000 -1.000000e+000  0.000000e+000
    outer loop
      vertex  6.000000e+000 -2.500000e+001  0.000000e+000
      vertex -2.800000e+000 -2.500000e+001  7.583736e+000
      vertex -6.000000e+000 -2.500000e+001  7.583736e+000
    endloop
  endfacet
  facet normal  0.000000e+000 -1.000000e+000  0.000000e+000
    outer loop
      vertex  6.000000e+000 -2.500000e+001  0.000000e+000
      vertex -6.000000e+000 -2.500000e+001  7.583736e+000
      vertex -6.000000e+000 -2.500000e+001  0.000000e+000
    endloop
  endfacet
  facet normal  0.000000e+000  0.000000e+000 -9.999999e-001
    outer loop
      vertex  9.000000e+000  2.000000e+001  0.000000e+000
      vertex -8.330127e+000  2.250000e+001  0.000000e+000
      vertex  8.330127e+000  2.250000e+001  0.000000e+000
    endloop
  endfacet
  facet normal  0.000000e+000  0.000000e+000 -1.000000e+000
    outer loop
      vertex  8.330127e+000  2.250000e+001  0.000000e+000
      vertex -8.330127e+000  2.250000e+001  0.000000e+000
      vertex -6.500000e+000  2.433013e+001  0.000000e+000
    endloop
  endfacet
  facet normal  0.000000e+000  0.000000e+000 -1.000000e+000
    outer loop
      vertex  8.330127e+000  2.250000e+001  0.000000e+000
      vertex -6.500000e+000  2.433013e+001  0.000000e+000
      vertex  6.500000e+000  2.433013e+001  0.000000e+000
    endloop
  endfacet
  facet normal  0.000000e+000  0.000000e+000 -1.000000e+000
    outer loop
      vertex  6.500000e+000  2.433013e+001  0.000000e+000
      vertex -6.500000e+000  2.433013e+001  0.000000e+000
      vertex -4.000000e+000  2.500000e+001  0.000000e+000
    endloop
  endfacet
  facet normal  0.000000e+000  0.000000e+000 -1.000000e+000
    outer loop
      vertex  6.500000e+000  2.433013e+001  0.000000e+000
      vertex -4.000000e+000  2.500000e+001  0.000000e+000
      vertex  4.000000e+000  2.500000e+001  0.000000e+000
    endloop
  endfacet
  facet normal  0.000000e+000  0.000000e+000 -1.000000e+000
    outer loop
      vertex -8.330127e+000  2.250000e+001  0.000000e+000
      vertex  9.000000e+000  2.000000e+001  0.000000e+000
      vertex -9.000000e+000  2.000000e+001  0.000000e+000
    endloop
  endfacet
  facet normal  0.000000e+000  0.000000e+000 -9.999999e-001
    outer loop
      vertex -9.000000e+000  2.000000e+001  0.000000e+000
      vertex  9.000000e+000  2.000000e+001  0.000000e+000
      vertex  9.000000e+000 -2.200000e+001  0.000000e+000
    endloop
  endfacet
  facet normal  0.000000e+000  0.000000e+000 -9.999999e-001
    outer loop
      vertex -9.000000e+000  2.000000e+001  0.000000e+000
      vertex  9.000000e+000 -2.200000e+001  0.000000e+000
      vertex -9.000000e+000 -2.200000e+001  0.000000e+000
    endloop
  endfacet
  facet normal  0.000000e+000  0.000000e+000 -1.000000e+000
    outer loop
      vertex -9.000000e+000 -2.200000e+001  0.000000e+000
      vertex  9.000000e+000 -2.200000e+001  0.000000e+000
      vertex  8.598076e+000 -2.350000e+001  0.000000e+000
    endloop
  endfacet
  facet normal  0.000000e+000  0.000000e+000 -9.999999e-001
    outer loop
      vertex -9.000000e+000 -2.200000e+001  0.000000e+000
      vertex  8.598076e+000 -2.350000e+001  0.000000e+000
      vertex -8.598076e+000 -2.350000e+001  0.000000e+000
    endloop
  endfacet
  facet normal  0.000000e+000  0.000000e+000 -9.999999e-001
    outer loop
      vertex -8.598076e+000 -2.350000e+001  0.000000e+000
      vertex  8.598076e+000 -2.350000e+001  0.000000e+000
      vertex  7.500000e+000 -2.459808e+001  0.000000e+000
    endloop
  endfacet
  facet normal  0.000000e+000  0.000000e+000 -1.000000e+000
    outer loop
      vertex -8.598076e+000 -2.350000e+001  0.000000e+000
      vertex  7.500000e+000 -2.459808e+001  0.000000e+000
      vertex -7.500000e+000 -2.459808e+001  0.000000e+000
    endloop
  endfacet
  facet normal  0.000000e+000  0.000000e+000 -1.000000e+000
    outer loop
      vertex -7.500000e+000 -2.459808e+001  0.000000e+000
      vertex  7.500000e+000 -2.459808e+001  0.000000e+000
      vertex  6.000000e+000 -2.500000e+001  0.000000e+000
    endloop
  endfacet
  facet normal  0.000000e+000  0.000000e+000 -1.000000e+000
    outer loop
      vertex -7.500000e+000 -2.459808e+001  0.000000e+000
      vertex  6.000000e+000 -2.500000e+001  0.000000e+000
      vertex -6.000000e+000 -2.500000e+001  0.000000e+000
    endloop
  endfacet
  facet normal  0.000000e+000  0.000000e+000  1.000000e+000
    outer loop
      vertex -4.000000e+000  2.200000e+001  2.500000e+001
      vertex -5.414214e+000  2.141421e+001  2.500000e+001
      vertex -2.800000e+000  2.200000e+001  2.500000e+001
    endloop
  endfacet
  facet normal  0.000000e+000  0.000000e+000  1.000000e+000
    outer loop
      vertex -2.800000e+000  2.200000e+001  2.500000e+001
      vertex -5.414214e+000  2.141421e+001  2.500000e+001
      vertex -6.000000e+000  2.000000e+001  2.500000e+001
    endloop
  endfacet
  facet normal  -0.000000e+000  0.000000e+000  9.999999e-001
    outer loop
      vertex -2.800000e+000  2.200000e+001  2.500000e+001
      vertex -6.000000e+000  2.000000e+001  2.500000e+001
      vertex -2.800000e+000  5.000000e+000  2.500000e+001
    endloop
  endfacet
  facet normal  0.000000e+000  0.000000e+000  1.000000e+000
    outer loop
      vertex -2.800000e+000  5.000000e+000  2.500000e+001
      vertex -6.000000e+000  2.000000e+001  2.500000e+001
      vertex -6.000000e+000  5.000000e+000  2.500000e+001
    endloop
  endfacet
  facet normal  0.000000e+000 -3.713907e-001  9.284767e-001
    outer loop
      vertex -6.000000e+000  5.000000e+000  2.500000e+001
      vertex -6.000000e+000 -1.997112e+001  1.501155e+001
      vertex -2.800000e+000  5.000000e+000  2.500000e+001
    endloop
  endfacet
  facet normal  0.000000e+000 -3.713907e-001  9.284767e-001
    outer loop
      vertex -2.800000e+000  5.000000e+000  2.500000e+001
      vertex -6.000000e+000 -1.997112e+001  1.501155e+001
      vertex -2.800000e+000 -1.997112e+001  1.501155e+001
    endloop
  endfacet
  facet normal  0.000000e+000 -5.677661e-001  8.231899e-001
    outer loop
      vertex -2.800000e+000 -1.997112e+001  1.501155e+001
      vertex -6.000000e+000 -1.997112e+001  1.501155e+001
      vertex -2.800000e+000 -2.288762e+001  1.300000e+001
    endloop
  endfacet
  facet normal  2.755698e-002 -5.468855e-001  8.367538e-001
    outer loop
      vertex -2.800000e+000 -2.288762e+001  1.300000e+001
      vertex -6.000000e+000 -1.997112e+001  1.501155e+001
      vertex -6.000000e+000 -2.261069e+001  1.328638e+001
    endloop
  endfacet
  facet normal -2.604424e-002 -8.481375e-001  5.291355e-001
    outer loop
      vertex -2.800000e+000 -2.288762e+001  1.300000e+001
      vertex -6.000000e+000 -2.261069e+001  1.328638e+001
      vertex -2.800000e+000 -2.445322e+001  1.049054e+001
    endloop
  endfacet
  facet normal  1.302642e-002 -8.279971e-001  5.605810e-001
    outer loop
      vertex -2.800000e+000 -2.445322e+001  1.049054e+001
      vertex -6.000000e+000 -2.261069e+001  1.328638e+001
      vertex -6.000000e+000 -2.437853e+001  1.067522e+001
    endloop
  endfacet
  facet normal -1.226821e-002 -9.826906e-001  1.848474e-001
    outer loop
      vertex -2.800000e+000 -2.445322e+001  1.049054e+001
      vertex -6.000000e+000 -2.437853e+001  1.067522e+001
      vertex -2.800000e+000 -2.500000e+001  7.583736e+000
    endloop
  endfacet
  facet normal  0.000000e+000 -9.803868e-001  1.970831e-001
    outer loop
      vertex -2.800000e+000 -2.500000e+001  7.583736e+000
      vertex -6.000000e+000 -2.437853e+001  1.067522e+001
      vertex -6.000000e+000 -2.500000e+001  7.583736e+000
    endloop
  endfacet
  facet normal -9.659259e-001  2.588192e-001  0.000000e+000
    outer loop
      vertex -9.000000e+000  2.000000e+001  0.000000e+000
      vertex -9.000000e+000  2.000000e+001  2.200000e+001
      vertex -8.330127e+000  2.250000e+001  0.000000e+000
    endloop
  endfacet
  facet normal -9.659259e-001  2.588192e-001  0.000000e+000
    outer loop
      vertex -8.330127e+000  2.250000e+001  0.000000e+000
      vertex -9.000000e+000  2.000000e+001  2.200000e+001
      vertex -8.330127e+000  2.250000e+001  2.200000e+001
    endloop
  endfacet
  facet normal -7.071070e-001  7.071066e-001  0.000000e+000
    outer loop
      vertex -8.330127e+000  2.250000e+001  0.000000e+000
      vertex -8.330127e+000  2.250000e+001  2.200000e+001
      vertex -6.500000e+000  2.433013e+001  0.000000e+000
    endloop
  endfacet
  facet normal -7.071070e-001  7.071066e-001  0.000000e+000
    outer loop
      vertex -6.500000e+000  2.433013e+001  0.000000e+000
      vertex -8.330127e+000  2.250000e+001  2.200000e+001
      vertex -6.500000e+000  2.433013e+001  2.200000e+001
    endloop
  endfacet
  facet normal -2.588188e-001  9.659259e-001  0.000000e+000
    outer loop
      vertex -6.500000e+000  2.433013e+001  0.000000e+000
      vertex -6.500000e+000  2.433013e+001  2.200000e+001
      vertex -4.000000e+000  2.500000e+001  0.000000e+000
    endloop
  endfacet
  facet normal -2.588188e-001  9.659259e-001  0.000000e+000
    outer loop
      vertex -4.000000e+000  2.500000e+001  0.000000e+000
      vertex -6.500000e+000  2.433013e+001  2.200000e+001
      vertex -4.000000e+000  2.500000e+001  2.200000e+001
    endloop
  endfacet
  facet normal -1.000000e+000  0.000000e+000  -0.000000e+000
    outer loop
      vertex -9.000000e+000 -1.885695e+001  1.222612e+001
      vertex -9.000000e+000  9.992047e+000  1.317787e+001
      vertex -9.000000e+000  1.154205e+001  1.205172e+001
    endloop
  endfacet
  facet normal -1.000000e+000  0.000000e+000  0.000000e+000
    outer loop
      vertex -9.000000e+000  2.000000e+001  2.200000e+001
      vertex -9.000000e+000  1.560000e+001  1.500000e+001
      vertex -9.000000e+000  1.500795e+001  1.682213e+001
    endloop
  endfacet
  facet normal -1.000000e+000  0.000000e+000  0.000000e+000
    outer loop
      vertex -9.000000e+000  2.000000e+001  2.200000e+001
      vertex -9.000000e+000  1.500795e+001  1.682213e+001
      vertex -9.000000e+000  1.345795e+001  1.794827e+001
    endloop
  endfacet
  facet normal -1.000000e+000  0.000000e+000  0.000000e+000
    outer loop
      vertex -9.000000e+000  2.000000e+001  2.200000e+001
      vertex -9.000000e+000  1.345795e+001  1.794827e+001
      vertex -9.000000e+000  1.154205e+001  1.794827e+001
    endloop
  endfacet
  facet normal -9.999999e-001  0.000000e+000  0.000000e+000
    outer loop
      vertex -9.000000e+000  2.000000e+001  2.200000e+001
      vertex -9.000000e+000  1.154205e+001  1.794827e+001
      vertex -9.000000e+000  5.577747e+000  2.200000e+001
    endloop
  endfacet
  facet normal -1.000000e+000  -0.000000e+000  0.000000e+000
    outer loop
      vertex -9.000000e+000  5.577747e+000  2.200000e+001
      vertex -9.000000e+000  1.154205e+001  1.794827e+001
      vertex -9.000000e+000  9.992047e+000  1.682213e+001
    endloop
  endfacet
  facet normal -1.000000e+000  -0.000000e+000  0.000000e+000
    outer loop
      vertex -9.000000e+000  5.577747e+000  2.200000e+001
      vertex -9.000000e+000  9.992047e+000  1.682213e+001
      vertex -9.000000e+000  9.400000e+000  1.500000e+001
    endloop
  endfacet
  facet normal -1.000000e+000  -0.000000e+000  -0.000000e+000
    outer loop
      vertex -9.000000e+000  5.577747e+000  2.200000e+001
      vertex -9.000000e+000  9.400000e+000  1.500000e+001
      vertex -9.000000e+000  9.992047e+000  1.317787e+001
    endloop
  endfacet
  facet normal -1.000000e+000  -0.000000e+000  0.000000e+000
    outer loop
      vertex -9.000000e+000  5.577747e+000  2.200000e+001
      vertex -9.000000e+000  9.992047e+000  1.317787e+001
      vertex -9.000000e+000 -1.885695e+001  1.222612e+001
    endloop
  endfacet
  facet normal -1.000000e+000  0.000000e+000  0.000000e+000
    outer loop
      vertex -9.000000e+000  2.000000e+001  0.000000e+000
      vertex -9.000000e+000 -2.200000e+001  0.000000e+000
      vertex -9.000000e+000  1.154205e+001  1.205172e+001
    endloop
  endfacet
  facet normal -1.000000e+000  0.000000e+000  0.000000e+000
    outer loop
      vertex -9.000000e+000  2.000000e+001  0.000000e+000
      vertex -9.000000e+000  1.154205e+001  1.205172e+001
      vertex -9.000000e+000  1.345795e+001  1.205172e+001
    endloop
  endfacet
  facet normal -1.000000e+000  0.000000e+000  0.000000e+000
    outer loop
      vertex -9.000000e+000  2.000000e+001  0.000000e+000
      vertex -9.000000e+000  1.345795e+001  1.205172e+001
      vertex -9.000000e+000  1.500795e+001  1.317787e+001
    endloop
  endfacet
  facet normal -1.000000e+000  0.000000e+000  0.000000e+000
    outer loop
      vertex -9.000000e+000  2.000000e+001  0.000000e+000
      vertex -9.000000e+000  1.500795e+001  1.317787e+001
      vertex -9.000000e+000  1.560000e+001  1.500000e+001
    endloop
  endfacet
  facet normal -1.000000e+000  0.000000e+000  0.000000e+000
    outer loop
      vertex -9.000000e+000  2.000000e+001  0.000000e+000
      vertex -9.000000e+000  1.560000e+001  1.500000e+001
      vertex -9.000000e+000  2.000000e+001  2.200000e+001
    endloop
  endfacet
  facet normal -1.000000e+000  0.000000e+000  0.000000e+000
    outer loop
      vertex -9.000000e+000 -2.200000e+001  0.000000e+000
      vertex -9.000000e+000 -2.200000e+001  7.583737e+000
      vertex -9.000000e+000  1.154205e+001  1.205172e+001
    endloop
  endfacet
  facet normal -1.000000e+000  0.000000e+000  0.000000e+000
    outer loop
      vertex -9.000000e+000  1.154205e+001  1.205172e+001
      vertex -9.000000e+000 -2.200000e+001  7.583737e+000
      vertex -9.000000e+000 -2.161158e+001  9.515912e+000
    endloop
  endfacet
  facet normal -9.999999e-001  0.000000e+000  0.000000e+000
    outer loop
      vertex -9.000000e+000  1.154205e+001  1.205172e+001
      vertex -9.000000e+000 -2.161158e+001  9.515912e+000
      vertex -9.000000e+000 -1.885695e+001  1.222612e+001
    endloop
  endfacet
  facet normal -1.000000e+000  0.000000e+000  0.000000e+000
    outer loop
      vertex -9.000000e+000 -1.885695e+001  1.222612e+001
      vertex -9.000000e+000 -2.161158e+001  9.515912e+000
      vertex -9.000000e+000 -2.050668e+001  1.114789e+001
    endloop
  endfacet
  facet normal  1.000000e+000  0.000000e+000  0.000000e+000
    outer loop
      vertex -2.800000e+000  1.016224e+001  4.891420e+000
      vertex -2.800000e+000  1.345795e+001  1.205172e+001
      vertex -2.800000e+000  1.154205e+001  1.205172e+001
    endloop
  endfacet
  facet normal  1.000000e+000  -0.000000e+000  0.000000e+000
    outer loop
      vertex -2.800000e+000  2.200000e+001  2.500000e+001
      vertex -2.800000e+000  5.000000e+000  2.500000e+001
      vertex -2.800000e+000  1.500795e+001  1.682213e+001
    endloop
  endfacet
  facet normal  1.000000e+000  -0.000000e+000  0.000000e+000
    outer loop
      vertex -2.800000e+000  2.200000e+001  2.500000e+001
      vertex -2.800000e+000  1.500795e+001  1.682213e+001
      vertex -2.800000e+000  1.560000e+001  1.500000e+001
    endloop
  endfacet
  facet normal  1.000000e+000  0.000000e+000  0.000000e+000
    outer loop
      vertex -2.800000e+000  2.200000e+001  2.500000e+001
      vertex -2.800000e+000  1.560000e+001  1.500000e+001
      vertex -2.800000e+000  2.459808e+001  2.350000e+001
    endloop
  endfacet
  facet normal  1.000000e+000  0.000000e+000  0.000000e+000
    outer loop
      vertex -2.800000e+000  2.200000e+001  2.500000e+001
      vertex -2.800000e+000  2.459808e+001  2.350000e+001
      vertex -2.800000e+000  2.350000e+001  2.459808e+001
    endloop
  endfacet
  facet normal  1.000000e+000  -0.000000e+000  0.000000e+000
    outer loop
      vertex -2.800000e+000  5.000000e+000  2.500000e+001
      vertex -2.800000e+000 -1.997112e+001  1.501155e+001
      vertex -2.800000e+000  9.400000e+000  1.500000e+001
    endloop
  endfacet
  facet normal  9.999999e-001  0.000000e+000  -0.000000e+000
    outer loop
      vertex -2.800000e+000  5.000000e+000  2.500000e+001
      vertex -2.800000e+000  9.400000e+000  1.500000e+001
      vertex -2.800000e+000  9.992047e+000  1.682213e+001
    endloop
  endfacet
  facet normal  1.000000e+000  0.000000e+000  -0.000000e+000
    outer loop
      vertex -2.800000e+000  5.000000e+000  2.500000e+001
      vertex -2.800000e+000  9.992047e+000  1.682213e+001
      vertex -2.800000e+000  1.154205e+001  1.794827e+001
    endloop
  endfacet
  facet normal  1.000000e+000  0.000000e+000  -0.000000e+000
    outer loop
      vertex -2.800000e+000  5.000000e+000  2.500000e+001
      vertex -2.800000e+000  1.154205e+001  1.794827e+001
      vertex -2.800000e+000  1.345795e+001  1.794827e+001
    endloop
  endfacet
  facet normal  1.000000e+000  -0.000000e+000  -0.000000e+000
    outer loop
      vertex -2.800000e+000  5.000000e+000  2.500000e+001
      vertex -2.800000e+000  1.345795e+001  1.794827e+001
      vertex -2.800000e+000  1.500795e+001  1.682213e+001
    endloop
  endfacet
  facet normal  1.000000e+000  -0.000000e+000  -0.000000e+000
    outer loop
      vertex -2.800000e+000 -4.660294e+000  1.300000e+001
      vertex -2.800000e+000 -3.925246e+000  1.148052e+001
      vertex -2.800000e+000 -2.796717e+000  1.004536e+001
    endloop
  endfacet
  facet normal  9.999999e-001  -0.000000e+000  -0.000000e+000
    outer loop
      vertex -2.800000e+000 -4.660294e+000  1.300000e+001
      vertex -2.800000e+000 -2.796717e+000  1.004536e+001
      vertex -2.800000e+000  5.238622e-001  7.562640e+000
    endloop
  endfacet
  facet normal  1.000000e+000  -0.000000e+000  -0.000000e+000
    outer loop
      vertex -2.800000e+000 -4.660294e+000  1.300000e+001
      vertex -2.800000e+000  5.238622e-001  7.562640e+000
      vertex -2.800000e+000  4.985162e+000  5.788327e+000
    endloop
  endfacet
  facet normal  1.000000e+000  0.000000e+000  -0.000000e+000
    outer loop
      vertex -2.800000e+000 -4.660294e+000  1.300000e+001
      vertex -2.800000e+000  4.985162e+000  5.788327e+000
      vertex -2.800000e+000  9.400000e+000  1.500000e+001
    endloop
  endfacet
  facet normal  9.999999e-001  0.000000e+000  0.000000e+000
    outer loop
      vertex -2.800000e+000 -4.660294e+000  1.300000e+001
      vertex -2.800000e+000  9.400000e+000  1.500000e+001
      vertex -2.800000e+000 -1.997112e+001  1.501155e+001
    endloop
  endfacet
  facet normal  1.000000e+000  0.000000e+000  0.000000e+000
    outer loop
      vertex -2.800000e+000 -4.660294e+000  1.300000e+001
      vertex -2.800000e+000 -1.997112e+001  1.501155e+001
      vertex -2.800000e+000 -2.288762e+001  1.300000e+001
    endloop
  endfacet
  facet normal  1.000000e+000  0.000000e+000  0.000000e+000
    outer loop
      vertex -2.800000e+000  1.556200e+001  4.957350e+000
      vertex -2.800000e+000  2.067010e+001  5.979836e+000
      vertex -2.800000e+000  1.560000e+001  1.500000e+001
    endloop
  endfacet
  facet normal  1.000000e+000  0.000000e+000  0.000000e+000
    outer loop
      vertex -2.800000e+000  1.560000e+001  1.500000e+001
      vertex -2.800000e+000  2.067010e+001  5.979836e+000
      vertex -2.800000e+000  2.500000e+001  7.861487e+000
    endloop
  endfacet
  facet normal  1.000000e+000  0.000000e+000  0.000000e+000
    outer loop
      vertex -2.800000e+000  1.560000e+001  1.500000e+001
      vertex -2.800000e+000  2.500000e+001  7.861487e+000
      vertex -2.800000e+000  2.459808e+001  2.350000e+001
    endloop
  endfacet
  facet normal  1.000000e+000  0.000000e+000  0.000000e+000
    outer loop
      vertex -2.800000e+000  2.459808e+001  2.350000e+001
      vertex -2.800000e+000  2.500000e+001  7.861487e+000
      vertex -2.800000e+000  2.500000e+001  2.200000e+001
    endloop
  endfacet
  facet normal  1.000000e+000  0.000000e+000  0.000000e+000
    outer loop
      vertex -2.800000e+000  1.345795e+001  1.205172e+001
      vertex -2.800000e+000  1.016224e+001  4.891420e+000
      vertex -2.800000e+000  1.500795e+001  1.317787e+001
    endloop
  endfacet
  facet normal  1.000000e+000  0.000000e+000  0.000000e+000
    outer loop
      vertex -2.800000e+000  1.500795e+001  1.317787e+001
      vertex -2.800000e+000  1.016224e+001  4.891420e+000
      vertex -2.800000e+000  1.556200e+001  4.957350e+000
    endloop
  endfacet
  facet normal  1.000000e+000  0.000000e+000  -0.000000e+000
    outer loop
      vertex -2.800000e+000  1.500795e+001  1.317787e+001
      vertex -2.800000e+000  1.556200e+001  4.957350e+000
      vertex -2.800000e+000  1.560000e+001  1.500000e+001
    endloop
  endfacet
  facet normal  1.000000e+000  0.000000e+000  0.000000e+000
    outer loop
      vertex -2.800000e+000  9.400000e+000  1.500000e+001
      vertex -2.800000e+000  4.985162e+000  5.788327e+000
      vertex -2.800000e+000  9.992047e+000  1.317787e+001
    endloop
  endfacet
  facet normal  1.000000e+000  0.000000e+000  0.000000e+000
    outer loop
      vertex -2.800000e+000  9.992047e+000  1.317787e+001
      vertex -2.800000e+000  4.985162e+000  5.788327e+000
      vertex -2.800000e+000  1.016224e+001  4.891420e+000
    endloop
  endfacet
  facet normal  1.000000e+000  0.000000e+000  -0.000000e+000
    outer loop
      vertex -2.800000e+000  9.992047e+000  1.317787e+001
      vertex -2.800000e+000  1.016224e+001  4.891420e+000
      vertex -2.800000e+000  1.154205e+001  1.205172e+001
    endloop
  endfacet
  facet normal -7.071020e-001 -2.661620e-001  6.551065e-001
    outer loop
      vertex -8.126232e+000  5.170166e+000  2.411640e+001
      vertex -8.598076e+000 -1.941404e+001  1.361883e+001
      vertex -7.500000e+000 -1.982186e+001  1.463837e+001
    endloop
  endfacet
  facet normal -9.969164e-001 -2.914340e-002  7.285851e-002
    outer loop
      vertex -9.000000e+000  5.577747e+000  2.200000e+001
      vertex -9.000000e+000 -1.885695e+001  1.222612e+001
      vertex -8.963054e+000  5.487354e+000  2.246938e+001
    endloop
  endfacet
  facet normal -9.659207e-001 -9.913911e-002  2.390998e-001
    outer loop
      vertex -8.963054e+000  5.487354e+000  2.246938e+001
      vertex -9.000000e+000 -1.885695e+001  1.222612e+001
      vertex -8.598076e+000 -1.941404e+001  1.361883e+001
    endloop
  endfacet
  facet normal -8.919274e-001 -1.629848e-001  4.217837e-001
    outer loop
      vertex -8.963054e+000  5.487354e+000  2.246938e+001
      vertex -8.598076e+000 -1.941404e+001  1.361883e+001
      vertex -8.126232e+000  5.170166e+000  2.411640e+001
    endloop
  endfacet
  facet normal -2.588185e-001 -3.587359e-001  8.968397e-001
    outer loop
      vertex -6.000000e+000 -1.997112e+001  1.501155e+001
      vertex -6.000000e+000  5.000000e+000  2.500000e+001
      vertex -7.500000e+000 -1.982186e+001  1.463837e+001
    endloop
  endfacet
  facet normal -7.750231e-002 -3.800723e-001  9.217041e-001
    outer loop
      vertex -7.500000e+000 -1.982186e+001  1.463837e+001
      vertex -6.000000e+000  5.000000e+000  2.500000e+001
      vertex -6.464572e+000  5.006969e+000  2.496381e+001
    endloop
  endfacet
  facet normal -4.547254e-001 -3.257554e-001  8.289199e-001
    outer loop
      vertex -7.500000e+000 -1.982186e+001  1.463837e+001
      vertex -6.464572e+000  5.006969e+000  2.496381e+001
      vertex -8.126232e+000  5.170166e+000  2.411640e+001
    endloop
  endfacet
  facet normal -9.659257e-001 -2.588192e-001  0.000000e+000
    outer loop
      vertex -9.000000e+000 -2.200000e+001  7.583737e+000
      vertex -9.000000e+000 -2.200000e+001  0.000000e+000
      vertex -8.598076e+000 -2.350000e+001  7.583737e+000
    endloop
  endfacet
  facet normal -9.659257e-001 -2.588192e-001  -0.000000e+000
    outer loop
      vertex -8.598076e+000 -2.350000e+001  7.583737e+000
      vertex -9.000000e+000 -2.200000e+001  0.000000e+000
      vertex -8.598076e+000 -2.350000e+001  0.000000e+000
    endloop
  endfacet
  facet normal -7.071068e-001 -7.071068e-001  0.000000e+000
    outer loop
      vertex -8.598076e+000 -2.350000e+001  7.583737e+000
      vertex -8.598076e+000 -2.350000e+001  0.000000e+000
      vertex -7.500000e+000 -2.459808e+001  7.583737e+000
    endloop
  endfacet
  facet normal -7.071068e-001 -7.071068e-001  -0.000000e+000
    outer loop
      vertex -7.500000e+000 -2.459808e+001  7.583737e+000
      vertex -8.598076e+000 -2.350000e+001  0.000000e+000
      vertex -7.500000e+000 -2.459808e+001  0.000000e+000
    endloop
  endfacet
  facet normal -2.588192e-001 -9.659257e-001  0.000000e+000
    outer loop
      vertex -7.500000e+000 -2.459808e+001  7.583737e+000
      vertex -7.500000e+000 -2.459808e+001  0.000000e+000
      vertex -6.000000e+000 -2.500000e+001  7.583736e+000
    endloop
  endfacet
  facet normal -2.588193e-001 -9.659258e-001  -0.000000e+000
    outer loop
      vertex -6.000000e+000 -2.500000e+001  7.583736e+000
      vertex -7.500000e+000 -2.459808e+001  0.000000e+000
      vertex -6.000000e+000 -2.500000e+001  0.000000e+000
    endloop
  endfacet
  facet normal  -0.000000e+000  9.659258e-001  2.588193e-001
    outer loop
      vertex -2.800000e+000  2.500000e+001  2.200000e+001
      vertex -4.000000e+000  2.500000e+001  2.200000e+001
      vertex -2.800000e+000  2.459808e+001  2.350000e+001
    endloop
  endfacet
  facet normal  0.000000e+000  9.659258e-001  2.588193e-001
    outer loop
      vertex -2.800000e+000  2.459808e+001  2.350000e+001
      vertex -4.000000e+000  2.500000e+001  2.200000e+001
      vertex -4.000000e+000  2.459808e+001  2.350000e+001
    endloop
  endfacet
  facet normal  -0.000000e+000  7.071068e-001  7.071068e-001
    outer loop
      vertex -2.800000e+000  2.459808e+001  2.350000e+001
      vertex -4.000000e+000  2.459808e+001  2.350000e+001
      vertex -2.800000e+000  2.350000e+001  2.459808e+001
    endloop
  endfacet
  facet normal  0.000000e+000  7.071068e-001  7.071068e-001
    outer loop
      vertex -2.800000e+000  2.350000e+001  2.459808e+001
      vertex -4.000000e+000  2.459808e+001  2.350000e+001
      vertex -4.000000e+000  2.350000e+001  2.459808e+001
    endloop
  endfacet
  facet normal  -0.000000e+000  2.588193e-001  9.659258e-001
    outer loop
      vertex -2.800000e+000  2.350000e+001  2.459808e+001
      vertex -4.000000e+000  2.350000e+001  2.459808e+001
      vertex -2.800000e+000  2.200000e+001  2.500000e+001
    endloop
  endfacet
  facet normal  0.000000e+000  2.588193e-001  9.659258e-001
    outer loop
      vertex -2.800000e+000  2.200000e+001  2.500000e+001
      vertex -4.000000e+000  2.350000e+001  2.459808e+001
      vertex -4.000000e+000  2.200000e+001  2.500000e+001
    endloop
  endfacet
  facet normal -7.070900e-001  6.892376e-003  7.070900e-001
    outer loop
      vertex -7.500000e+000  2.000000e+001  2.459808e+001
      vertex -8.598076e+000  2.000000e+001  2.350000e+001
      vertex -8.126232e+000  5.170166e+000  2.411640e+001
    endloop
  endfacet
  facet normal -7.766444e-002  0.000000e+000  9.969796e-001
    outer loop
      vertex -6.000000e+000  5.000000e+000  2.500000e+001
      vertex -6.000000e+000  2.000000e+001  2.500000e+001
      vertex -6.464572e+000  5.006969e+000  2.496381e+001
    endloop
  endfacet
  facet normal -2.588151e-001  5.688103e-003  9.659102e-001
    outer loop
      vertex -6.464572e+000  5.006969e+000  2.496381e+001
      vertex -6.000000e+000  2.000000e+001  2.500000e+001
      vertex -7.500000e+000  2.000000e+001  2.459808e+001
    endloop
  endfacet
  facet normal -4.550463e-001 -9.705347e-003  8.904150e-001
    outer loop
      vertex -6.464572e+000  5.006969e+000  2.496381e+001
      vertex -7.500000e+000  2.000000e+001  2.459808e+001
      vertex -8.126232e+000  5.170166e+000  2.411640e+001
    endloop
  endfacet
  facet normal -9.659258e-001  0.000000e+000  2.588193e-001
    outer loop
      vertex -9.000000e+000  2.000000e+001  2.200000e+001
      vertex -9.000000e+000  5.577747e+000  2.200000e+001
      vertex -8.598076e+000  2.000000e+001  2.350000e+001
    endloop
  endfacet
  facet normal -9.964356e-001  1.922639e-002  8.213579e-002
    outer loop
      vertex -8.598076e+000  2.000000e+001  2.350000e+001
      vertex -9.000000e+000  5.577747e+000  2.200000e+001
      vertex -8.963054e+000  5.487354e+000  2.246938e+001
    endloop
  endfacet
  facet normal -8.922326e-001 -9.622963e-003  4.514737e-001
    outer loop
      vertex -8.598076e+000  2.000000e+001  2.350000e+001
      vertex -8.963054e+000  5.487354e+000  2.246938e+001
      vertex -8.126232e+000  5.170166e+000  2.411640e+001
    endloop
  endfacet
  facet normal -2.221741e-001  9.202752e-002  9.706542e-001
    outer loop
      vertex -6.000000e+000  2.000000e+001  2.500000e+001
      vertex -5.414214e+000  2.141421e+001  2.500000e+001
      vertex -7.031089e+000  2.175000e+001  2.459808e+001
    endloop
  endfacet
  facet normal -9.202751e-002  2.221739e-001  9.706542e-001
    outer loop
      vertex -4.000000e+000  2.200000e+001  2.500000e+001
      vertex -5.750000e+000  2.303109e+001  2.459808e+001
      vertex -5.414214e+000  2.141421e+001  2.500000e+001
    endloop
  endfacet
  facet normal -9.351131e-001  2.505629e-001  2.505626e-001
    outer loop
      vertex -8.330127e+000  2.250000e+001  2.200000e+001
      vertex -9.000000e+000  2.000000e+001  2.200000e+001
      vertex -7.982051e+000  2.229904e+001  2.350000e+001
    endloop
  endfacet
  facet normal -9.351131e-001  2.505626e-001  2.505630e-001
    outer loop
      vertex -7.982051e+000  2.229904e+001  2.350000e+001
      vertex -9.000000e+000  2.000000e+001  2.200000e+001
      vertex -8.598076e+000  2.000000e+001  2.350000e+001
    endloop
  endfacet
  facet normal -6.947465e-001  1.861566e-001  6.947467e-001
    outer loop
      vertex -7.982051e+000  2.229904e+001  2.350000e+001
      vertex -8.598076e+000  2.000000e+001  2.350000e+001
      vertex -7.031089e+000  2.175000e+001  2.459808e+001
    endloop
  endfacet
  facet normal -6.947466e-001  1.861568e-001  6.947466e-001
    outer loop
      vertex -7.031089e+000  2.175000e+001  2.459808e+001
      vertex -8.598076e+000  2.000000e+001  2.350000e+001
      vertex -7.500000e+000  2.000000e+001  2.459808e+001
    endloop
  endfacet
  facet normal -2.581991e-001  6.918425e-002  9.636113e-001
    outer loop
      vertex -7.031089e+000  2.175000e+001  2.459808e+001
      vertex -7.500000e+000  2.000000e+001  2.459808e+001
      vertex -6.000000e+000  2.000000e+001  2.500000e+001
    endloop
  endfacet
  facet normal -2.505625e-001  9.351131e-001  2.505630e-001
    outer loop
      vertex -4.000000e+000  2.500000e+001  2.200000e+001
      vertex -6.500000e+000  2.433013e+001  2.200000e+001
      vertex -4.000000e+000  2.459808e+001  2.350000e+001
    endloop
  endfacet
  facet normal -2.505630e-001  9.351129e-001  2.505638e-001
    outer loop
      vertex -4.000000e+000  2.459808e+001  2.350000e+001
      vertex -6.500000e+000  2.433013e+001  2.200000e+001
      vertex -6.299038e+000  2.398205e+001  2.350000e+001
    endloop
  endfacet
  facet normal -1.861570e-001  6.947466e-001  6.947466e-001
    outer loop
      vertex -4.000000e+000  2.459808e+001  2.350000e+001
      vertex -6.299038e+000  2.398205e+001  2.350000e+001
      vertex -4.000000e+000  2.350000e+001  2.459808e+001
    endloop
  endfacet
  facet normal -1.861566e-001  6.947471e-001  6.947461e-001
    outer loop
      vertex -4.000000e+000  2.350000e+001  2.459808e+001
      vertex -6.299038e+000  2.398205e+001  2.350000e+001
      vertex -5.750000e+000  2.303109e+001  2.459808e+001
    endloop
  endfacet
  facet normal -6.918411e-002  2.581991e-001  9.636114e-001
    outer loop
      vertex -4.000000e+000  2.350000e+001  2.459808e+001
      vertex -5.750000e+000  2.303109e+001  2.459808e+001
      vertex -4.000000e+000  2.200000e+001  2.500000e+001
    endloop
  endfacet
  facet normal -6.845503e-001  6.845500e-001  2.505635e-001
    outer loop
      vertex -6.500000e+000  2.433013e+001  2.200000e+001
      vertex -8.330127e+000  2.250000e+001  2.200000e+001
      vertex -6.299038e+000  2.398205e+001  2.350000e+001
    endloop
  endfacet
  facet normal -6.845501e-001  6.845505e-001  2.505627e-001
    outer loop
      vertex -6.299038e+000  2.398205e+001  2.350000e+001
      vertex -8.330127e+000  2.250000e+001  2.200000e+001
      vertex -7.982051e+000  2.229904e+001  2.350000e+001
    endloop
  endfacet
  facet normal -5.085899e-001  5.085902e-001  6.947463e-001
    outer loop
      vertex -6.299038e+000  2.398205e+001  2.350000e+001
      vertex -7.982051e+000  2.229904e+001  2.350000e+001
      vertex -5.750000e+000  2.303109e+001  2.459808e+001
    endloop
  endfacet
  facet normal -5.085899e-001  5.085895e-001  6.947468e-001
    outer loop
      vertex -5.750000e+000  2.303109e+001  2.459808e+001
      vertex -7.982051e+000  2.229904e+001  2.350000e+001
      vertex -7.031089e+000  2.175000e+001  2.459808e+001
    endloop
  endfacet
  facet normal -1.976311e-001  1.976309e-001  9.601479e-001
    outer loop
      vertex -5.750000e+000  2.303109e+001  2.459808e+001
      vertex -7.031089e+000  2.175000e+001  2.459808e+001
      vertex -5.414214e+000  2.141421e+001  2.500000e+001
    endloop
  endfacet
  facet normal -9.646211e-001 -1.442359e-001  2.206860e-001
    outer loop
      vertex -9.000000e+000 -1.885695e+001  1.222612e+001
      vertex -9.000000e+000 -2.050668e+001  1.114789e+001
      vertex -8.598076e+000 -1.941404e+001  1.361883e+001
    endloop
  endfacet
  facet normal -9.646209e-001 -1.442360e-001  2.206860e-001
    outer loop
      vertex -8.598076e+000 -1.941404e+001  1.361883e+001
      vertex -9.000000e+000 -2.050668e+001  1.114789e+001
      vertex -8.598076e+000 -2.155868e+001  1.221714e+001
    endloop
  endfacet
  facet normal -7.000699e-001 -3.906652e-001  5.977314e-001
    outer loop
      vertex -8.598076e+000 -1.941404e+001  1.361883e+001
      vertex -8.598076e+000 -2.155868e+001  1.221714e+001
      vertex -7.500000e+000 -1.982186e+001  1.463837e+001
    endloop
  endfacet
  facet normal -7.000693e-001 -3.906660e-001  5.977316e-001
    outer loop
      vertex -7.500000e+000 -1.982186e+001  1.463837e+001
      vertex -8.598076e+000 -2.155868e+001  1.221714e+001
      vertex -7.500000e+000 -2.232880e+001  1.299988e+001
    endloop
  endfacet
  facet normal -2.540728e-001 -5.291410e-001  8.096029e-001
    outer loop
      vertex -7.500000e+000 -1.982186e+001  1.463837e+001
      vertex -7.500000e+000 -2.232880e+001  1.299988e+001
      vertex -6.000000e+000 -1.997112e+001  1.501155e+001
    endloop
  endfacet
  facet normal -2.540741e-001 -5.291403e-001  8.096030e-001
    outer loop
      vertex -6.000000e+000 -1.997112e+001  1.501155e+001
      vertex -7.500000e+000 -2.232880e+001  1.299988e+001
      vertex -6.000000e+000 -2.261069e+001  1.328638e+001
    endloop
  endfacet
  facet normal -9.646209e-001 -2.584698e-001  5.195898e-002
    outer loop
      vertex -9.000000e+000 -2.161158e+001  9.515912e+000
      vertex -9.000000e+000 -2.200000e+001  7.583737e+000
      vertex -8.598076e+000 -2.299506e+001  1.009556e+001
    endloop
  endfacet
  facet normal -9.646210e-001 -2.584696e-001  5.195904e-002
    outer loop
      vertex -8.598076e+000 -2.299506e+001  1.009556e+001
      vertex -9.000000e+000 -2.200000e+001  7.583737e+000
      vertex -8.598076e+000 -2.350000e+001  7.583737e+000
    endloop
  endfacet
  facet normal -7.000694e-001 -7.000695e-001  1.407320e-001
    outer loop
      vertex -8.598076e+000 -2.299506e+001  1.009556e+001
      vertex -8.598076e+000 -2.350000e+001  7.583737e+000
      vertex -7.500000e+000 -2.400783e+001  1.051990e+001
    endloop
  endfacet
  facet normal -7.000694e-001 -7.000694e-001  1.407319e-001
    outer loop
      vertex -7.500000e+000 -2.400783e+001  1.051990e+001
      vertex -8.598076e+000 -2.350000e+001  7.583737e+000
      vertex -7.500000e+000 -2.459808e+001  7.583737e+000
    endloop
  endfacet
  facet normal -2.540734e-001 -9.482153e-001  1.906156e-001
    outer loop
      vertex -7.500000e+000 -2.400783e+001  1.051990e+001
      vertex -7.500000e+000 -2.459808e+001  7.583737e+000
      vertex -6.000000e+000 -2.437853e+001  1.067522e+001
    endloop
  endfacet
  facet normal -2.540736e-001 -9.482152e-001  1.906158e-001
    outer loop
      vertex -6.000000e+000 -2.437853e+001  1.067522e+001
      vertex -7.500000e+000 -2.459808e+001  7.583737e+000
      vertex -6.000000e+000 -2.500000e+001  7.583736e+000
    endloop
  endfacet
  facet normal -9.646211e-001 -2.183121e-001  1.478045e-001
    outer loop
      vertex -9.000000e+000 -2.050668e+001  1.114789e+001
      vertex -9.000000e+000 -2.161158e+001  9.515912e+000
      vertex -8.598076e+000 -2.155868e+001  1.221714e+001
    endloop
  endfacet
  facet normal -9.646210e-001 -2.183121e-001  1.478045e-001
    outer loop
      vertex -8.598076e+000 -2.155868e+001  1.221714e+001
      vertex -9.000000e+000 -2.161158e+001  9.515912e+000
      vertex -8.598076e+000 -2.299506e+001  1.009556e+001
    endloop
  endfacet
  facet normal -7.000691e-001 -5.913022e-001  4.003310e-001
    outer loop
      vertex -8.598076e+000 -2.155868e+001  1.221714e+001
      vertex -8.598076e+000 -2.299506e+001  1.009556e+001
      vertex -7.500000e+000 -2.232880e+001  1.299988e+001
    endloop
  endfacet
  facet normal -7.000695e-001 -5.913017e-001  4.003310e-001
    outer loop
      vertex -7.500000e+000 -2.232880e+001  1.299988e+001
      vertex -8.598076e+000 -2.299506e+001  1.009556e+001
      vertex -7.500000e+000 -2.400783e+001  1.051990e+001
    endloop
  endfacet
  facet normal -2.540744e-001 -8.008938e-001  5.422318e-001
    outer loop
      vertex -7.500000e+000 -2.232880e+001  1.299988e+001
      vertex -7.500000e+000 -2.400783e+001  1.051990e+001
      vertex -6.000000e+000 -2.261069e+001  1.328638e+001
    endloop
  endfacet
  facet normal -2.540734e-001 -8.008943e-001  5.422316e-001
    outer loop
      vertex -6.000000e+000 -2.261069e+001  1.328638e+001
      vertex -7.500000e+000 -2.400783e+001  1.051990e+001
      vertex -6.000000e+000 -2.437853e+001  1.067522e+001
    endloop
  endfacet
  facet normal  0.000000e+000 -5.470933e-001  8.370717e-001
    outer loop
      vertex  6.000000e+000 -1.997112e+001  1.501155e+001
      vertex  2.800000e+000 -1.997112e+001  1.501155e+001
      vertex  6.000000e+000 -2.261069e+001  1.328638e+001
    endloop
  endfacet
  facet normal -2.452867e-002 -5.675952e-001  8.229423e-001
    outer loop
      vertex  6.000000e+000 -2.261069e+001  1.328638e+001
      vertex  2.800000e+000 -1.997112e+001  1.501155e+001
      vertex  2.800000e+000 -2.288762e+001  1.300000e+001
    endloop
  endfacet
  facet normal  2.148390e-002 -8.278763e-001  5.604992e-001
    outer loop
      vertex  6.000000e+000 -2.261069e+001  1.328638e+001
      vertex  2.800000e+000 -2.288762e+001  1.300000e+001
      vertex  6.000000e+000 -2.437853e+001  1.067522e+001
    endloop
  endfacet
  facet normal  0.000000e+000 -8.417695e-001  5.398371e-001
    outer loop
      vertex  2.800000e+000 -2.288762e+001  1.300000e+001
      vertex -2.800000e+000 -2.288762e+001  1.300000e+001
      vertex  6.000000e+000 -2.437853e+001  1.067522e+001
    endloop
  endfacet
  facet normal -3.907326e-003 -8.484188e-001  5.293111e-001
    outer loop
      vertex  6.000000e+000 -2.437853e+001  1.067522e+001
      vertex -2.800000e+000 -2.288762e+001  1.300000e+001
      vertex -2.800000e+000 -2.445322e+001  1.049054e+001
    endloop
  endfacet
  facet normal  4.184797e-003 -9.803782e-001  1.970813e-001
    outer loop
      vertex  6.000000e+000 -2.437853e+001  1.067522e+001
      vertex -2.800000e+000 -2.445322e+001  1.049054e+001
      vertex  6.000000e+000 -2.500000e+001  7.583736e+000
    endloop
  endfacet
  facet normal  0.000000e+000 -9.827647e-001  1.848613e-001
    outer loop
      vertex  6.000000e+000 -2.500000e+001  7.583736e+000
      vertex -2.800000e+000 -2.445322e+001  1.049054e+001
      vertex -2.800000e+000 -2.500000e+001  7.583736e+000
    endloop
  endfacet
  facet normal  9.999999e-001  -0.000000e+000  0.000000e+000
    outer loop
      vertex  9.000000e+000  2.000000e+001  2.200000e+001
      vertex  9.000000e+000  5.577747e+000  2.200000e+001
      vertex  9.000000e+000  1.345795e+001  1.794827e+001
    endloop
  endfacet
  facet normal  1.000000e+000  -0.000000e+000  0.000000e+000
    outer loop
      vertex  9.000000e+000  2.000000e+001  2.200000e+001
      vertex  9.000000e+000  1.345795e+001  1.794827e+001
      vertex  9.000000e+000  1.500795e+001  1.682213e+001
    endloop
  endfacet
  facet normal  1.000000e+000  -0.000000e+000  0.000000e+000
    outer loop
      vertex  9.000000e+000  2.000000e+001  2.200000e+001
      vertex  9.000000e+000  1.500795e+001  1.682213e+001
      vertex  9.000000e+000  1.560000e+001  1.500000e+001
    endloop
  endfacet
  facet normal  1.000000e+000  -0.000000e+000  0.000000e+000
    outer loop
      vertex  9.000000e+000  2.000000e+001  2.200000e+001
      vertex  9.000000e+000  1.560000e+001  1.500000e+001
      vertex  9.000000e+000  2.000000e+001  0.000000e+000
    endloop
  endfacet
  facet normal  1.000000e+000  0.000000e+000  0.000000e+000
    outer loop
      vertex  9.000000e+000 -2.200000e+001  0.000000e+000
      vertex  9.000000e+000  1.345795e+001  1.205172e+001
      vertex  9.000000e+000  1.154205e+001  1.205172e+001
    endloop
  endfacet
  facet normal  1.000000e+000  0.000000e+000  0.000000e+000
    outer loop
      vertex  9.000000e+000 -2.200000e+001  0.000000e+000
      vertex  9.000000e+000  1.154205e+001  1.205172e+001
      vertex  9.000000e+000  9.992047e+000  1.317787e+001
    endloop
  endfacet
  facet normal  1.000000e+000  0.000000e+000  0.000000e+000
    outer loop
      vertex  9.000000e+000 -2.200000e+001  0.000000e+000
      vertex  9.000000e+000  9.992047e+000  1.317787e+001
      vertex  9.000000e+000  9.400000e+000  1.500000e+001
    endloop
  endfacet
  facet normal  1.000000e+000  0.000000e+000  0.000000e+000
    outer loop
      vertex  9.000000e+000 -2.200000e+001  0.000000e+000
      vertex  9.000000e+000  9.400000e+000  1.500000e+001
      vertex  9.000000e+000  5.577747e+000  2.200000e+001
    endloop
  endfacet
  facet normal  1.000000e+000  0.000000e+000  0.000000e+000
    outer loop
      vertex  9.000000e+000 -2.200000e+001  0.000000e+000
      vertex  9.000000e+000  5.577747e+000  2.200000e+001
      vertex  9.000000e+000 -1.885695e+001  1.222612e+001
    endloop
  endfacet
  facet normal  1.000000e+000  0.000000e+000  0.000000e+000
    outer loop
      vertex  9.000000e+000 -2.200000e+001  0.000000e+000
      vertex  9.000000e+000 -1.885695e+001  1.222612e+001
      vertex  9.000000e+000 -2.050668e+001  1.114789e+001
    endloop
  endfacet
  facet normal  1.000000e+000  0.000000e+000  0.000000e+000
    outer loop
      vertex  9.000000e+000 -2.200000e+001  0.000000e+000
      vertex  9.000000e+000 -2.050668e+001  1.114789e+001
      vertex  9.000000e+000 -2.161158e+001  9.515912e+000
    endloop
  endfacet
  facet normal  9.999999e-001  0.000000e+000  0.000000e+000
    outer loop
      vertex  9.000000e+000 -2.200000e+001  0.000000e+000
      vertex  9.000000e+000 -2.161158e+001  9.515912e+000
      vertex  9.000000e+000 -2.200000e+001  7.583736e+000
    endloop
  endfacet
  facet normal  1.000000e+000  0.000000e+000  0.000000e+000
    outer loop
      vertex  9.000000e+000  2.000000e+001  0.000000e+000
      vertex  9.000000e+000  1.560000e+001  1.500000e+001
      vertex  9.000000e+000  1.500795e+001  1.317787e+001
    endloop
  endfacet
  facet normal  1.000000e+000  0.000000e+000  0.000000e+000
    outer loop
      vertex  9.000000e+000  2.000000e+001  0.000000e+000
      vertex  9.000000e+000  1.500795e+001  1.317787e+001
      vertex  9.000000e+000  1.345795e+001  1.205172e+001
    endloop
  endfacet
  facet normal  1.000000e+000  0.000000e+000  0.000000e+000
    outer loop
      vertex  9.000000e+000  2.000000e+001  0.000000e+000
      vertex  9.000000e+000  1.345795e+001  1.205172e+001
      vertex  9.000000e+000 -2.200000e+001  0.000000e+000
    endloop
  endfacet
  facet normal  1.000000e+000  0.000000e+000  -0.000000e+000
    outer loop
      vertex  9.000000e+000  5.577747e+000  2.200000e+001
      vertex  9.000000e+000  9.400000e+000  1.500000e+001
      vertex  9.000000e+000  9.992047e+000  1.682213e+001
    endloop
  endfacet
  facet normal  1.000000e+000  0.000000e+000  -0.000000e+000
    outer loop
      vertex  9.000000e+000  5.577747e+000  2.200000e+001
      vertex  9.000000e+000  9.992047e+000  1.682213e+001
      vertex  9.000000e+000  1.154205e+001  1.794827e+001
    endloop
  endfacet
  facet normal  1.000000e+000  0.000000e+000  -0.000000e+000
    outer loop
      vertex  9.000000e+000  5.577747e+000  2.200000e+001
      vertex  9.000000e+000  1.154205e+001  1.794827e+001
      vertex  9.000000e+000  1.345795e+001  1.794827e+001
    endloop
  endfacet
  facet normal  2.588188e-001  9.659259e-001  0.000000e+000
    outer loop
      vertex  4.000000e+000  2.500000e+001  0.000000e+000
      vertex  4.000000e+000  2.500000e+001  2.200000e+001
      vertex  6.500000e+000  2.433013e+001  0.000000e+000
    endloop
  endfacet
  facet normal  2.588188e-001  9.659259e-001  -0.000000e+000
    outer loop
      vertex  6.500000e+000  2.433013e+001  0.000000e+000
      vertex  4.000000e+000  2.500000e+001  2.200000e+001
      vertex  6.500000e+000  2.433013e+001  2.200000e+001
    endloop
  endfacet
  facet normal  7.071070e-001  7.071066e-001  0.000000e+000
    outer loop
      vertex  6.500000e+000  2.433013e+001  0.000000e+000
      vertex  6.500000e+000  2.433013e+001  2.200000e+001
      vertex  8.330127e+000  2.250000e+001  0.000000e+000
    endloop
  endfacet
  facet normal  7.071070e-001  7.071066e-001  -0.000000e+000
    outer loop
      vertex  8.330127e+000  2.250000e+001  0.000000e+000
      vertex  6.500000e+000  2.433013e+001  2.200000e+001
      vertex  8.330127e+000  2.250000e+001  2.200000e+001
    endloop
  endfacet
  facet normal  9.659259e-001  2.588192e-001  0.000000e+000
    outer loop
      vertex  8.330127e+000  2.250000e+001  0.000000e+000
      vertex  8.330127e+000  2.250000e+001  2.200000e+001
      vertex  9.000000e+000  2.000000e+001  0.000000e+000
    endloop
  endfacet
  facet normal  9.659259e-001  2.588192e-001  -0.000000e+000
    outer loop
      vertex  9.000000e+000  2.000000e+001  0.000000e+000
      vertex  8.330127e+000  2.250000e+001  2.200000e+001
      vertex  9.000000e+000  2.000000e+001  2.200000e+001
    endloop
  endfacet
  facet normal  0.000000e+000  0.000000e+000  9.999999e-001
    outer loop
      vertex  6.000000e+000  2.000000e+001  2.500000e+001
      vertex  5.732050e+000  2.100000e+001  2.500000e+001
      vertex  5.000000e+000  2.173205e+001  2.500000e+001
    endloop
  endfacet
  facet normal  0.000000e+000  0.000000e+000  1.000000e+000
    outer loop
      vertex  6.000000e+000  2.000000e+001  2.500000e+001
      vertex  5.000000e+000  2.173205e+001  2.500000e+001
      vertex  3.999999e+000  2.200000e+001  2.500000e+001
    endloop
  endfacet
  facet normal  0.000000e+000  0.000000e+000  1.000000e+000
    outer loop
      vertex  6.000000e+000  2.000000e+001  2.500000e+001
      vertex  3.999999e+000  2.200000e+001  2.500000e+001
      vertex  2.800000e+000  2.200000e+001  2.500000e+001
    endloop
  endfacet
  facet normal  0.000000e+000  0.000000e+000  9.999999e-001
    outer loop
      vertex  6.000000e+000  2.000000e+001  2.500000e+001
      vertex  2.800000e+000  2.200000e+001  2.500000e+001
      vertex  2.800000e+000  5.000000e+000  2.500000e+001
    endloop
  endfacet
  facet normal  0.000000e+000  0.000000e+000  1.000000e+000
    outer loop
      vertex  6.000000e+000  2.000000e+001  2.500000e+001
      vertex  2.800000e+000  5.000000e+000  2.500000e+001
      vertex  6.000000e+000  5.000000e+000  2.500000e+001
    endloop
  endfacet
  facet normal  0.000000e+000 -3.713907e-001  9.284767e-001
    outer loop
      vertex  2.800000e+000  5.000000e+000  2.500000e+001
      vertex  2.800000e+000 -1.997112e+001  1.501155e+001
      vertex  6.000000e+000  5.000000e+000  2.500000e+001
    endloop
  endfacet
  facet normal  0.000000e+000 -3.713907e-001  9.284767e-001
    outer loop
      vertex  6.000000e+000  5.000000e+000  2.500000e+001
      vertex  2.800000e+000 -1.997112e+001  1.501155e+001
      vertex  6.000000e+000 -1.997112e+001  1.501155e+001
    endloop
  endfacet
  facet normal -1.000000e+000  0.000000e+000  0.000000e+000
    outer loop
      vertex  2.800000e+000  2.200000e+001  2.500000e+001
      vertex  2.800000e+000  1.560000e+001  1.500000e+001
      vertex  2.800000e+000  1.500795e+001  1.682213e+001
    endloop
  endfacet
  facet normal -1.000000e+000  0.000000e+000  -0.000000e+000
    outer loop
      vertex  2.800000e+000  1.560000e+001  1.500000e+001
      vertex  2.800000e+000  2.200000e+001  2.500000e+001
      vertex  2.800000e+000  2.350000e+001  2.459808e+001
    endloop
  endfacet
  facet normal -9.999999e-001  0.000000e+000  -0.000000e+000
    outer loop
      vertex  2.800000e+000  1.560000e+001  1.500000e+001
      vertex  2.800000e+000  2.350000e+001  2.459808e+001
      vertex  2.800000e+000  2.459808e+001  2.350000e+001
    endloop
  endfacet
  facet normal -1.000000e+000  0.000000e+000  -0.000000e+000
    outer loop
      vertex  2.800000e+000  1.560000e+001  1.500000e+001
      vertex  2.800000e+000  2.459808e+001  2.350000e+001
      vertex  2.800000e+000  2.500000e+001  2.200000e+001
    endloop
  endfacet
  facet normal -1.000000e+000  0.000000e+000  -0.000000e+000
    outer loop
      vertex  2.800000e+000  1.560000e+001  1.500000e+001
      vertex  2.800000e+000  2.500000e+001  2.200000e+001
      vertex  2.800000e+000  2.500000e+001  7.861487e+000
    endloop
  endfacet
  facet normal -1.000000e+000  -0.000000e+000  0.000000e+000
    outer loop
      vertex  2.800000e+000  1.560000e+001  1.500000e+001
      vertex  2.800000e+000  2.500000e+001  7.861487e+000
      vertex  2.800000e+000  2.067010e+001  5.979836e+000
    endloop
  endfacet
  facet normal -1.000000e+000  -0.000000e+000  0.000000e+000
    outer loop
      vertex  2.800000e+000  1.560000e+001  1.500000e+001
      vertex  2.800000e+000  2.067010e+001  5.979836e+000
      vertex  2.800000e+000  1.556200e+001  4.957350e+000
    endloop
  endfacet
  facet normal -1.000000e+000  0.000000e+000  0.000000e+000
    outer loop
      vertex  2.800000e+000  1.560000e+001  1.500000e+001
      vertex  2.800000e+000  1.556200e+001  4.957350e+000
      vertex  2.800000e+000  1.500795e+001  1.317787e+001
    endloop
  endfacet
  facet normal -1.000000e+000  0.000000e+000  0.000000e+000
    outer loop
      vertex  2.800000e+000 -4.660294e+000  1.300000e+001
      vertex  2.800000e+000 -2.288762e+001  1.300000e+001
      vertex  2.800000e+000 -1.997112e+001  1.501155e+001
    endloop
  endfacet
  facet normal -9.999999e-001  0.000000e+000  0.000000e+000
    outer loop
      vertex  2.800000e+000 -4.660294e+000  1.300000e+001
      vertex  2.800000e+000 -1.997112e+001  1.501155e+001
      vertex  2.800000e+000  9.400000e+000  1.500000e+001
    endloop
  endfacet
  facet normal -1.000000e+000  0.000000e+000  0.000000e+000
    outer loop
      vertex  2.800000e+000 -4.660294e+000  1.300000e+001
      vertex  2.800000e+000  9.400000e+000  1.500000e+001
      vertex  2.800000e+000  4.985162e+000  5.788327e+000
    endloop
  endfacet
  facet normal -1.000000e+000  0.000000e+000  0.000000e+000
    outer loop
      vertex  2.800000e+000 -4.660294e+000  1.300000e+001
      vertex  2.800000e+000  4.985162e+000  5.788327e+000
      vertex  2.800000e+000  5.238622e-001  7.562640e+000
    endloop
  endfacet
  facet normal -1.000000e+000  0.000000e+000  0.000000e+000
    outer loop
      vertex  2.800000e+000 -4.660294e+000  1.300000e+001
      vertex  2.800000e+000  5.238622e-001  7.562640e+000
      vertex  2.800000e+000 -2.796717e+000  1.004536e+001
    endloop
  endfacet
  facet normal -1.000000e+000  0.000000e+000  0.000000e+000
    outer loop
      vertex  2.800000e+000 -4.660294e+000  1.300000e+001
      vertex  2.800000e+000 -2.796717e+000  1.004536e+001
      vertex  2.800000e+000 -3.925246e+000  1.148052e+001
    endloop
  endfacet
  facet normal -1.000000e+000  -0.000000e+000  0.000000e+000
    outer loop
      vertex  2.800000e+000  5.000000e+000  2.500000e+001
      vertex  2.800000e+000  2.200000e+001  2.500000e+001
      vertex  2.800000e+000  1.500795e+001  1.682213e+001
    endloop
  endfacet
  facet normal -1.000000e+000  0.000000e+000  0.000000e+000
    outer loop
      vertex  2.800000e+000  5.000000e+000  2.500000e+001
      vertex  2.800000e+000  1.500795e+001  1.682213e+001
      vertex  2.800000e+000  1.345795e+001  1.794827e+001
    endloop
  endfacet
  facet normal -1.000000e+000  0.000000e+000  0.000000e+000
    outer loop
      vertex  2.800000e+000  5.000000e+000  2.500000e+001
      vertex  2.800000e+000  1.345795e+001  1.794827e+001
      vertex  2.800000e+000  1.154205e+001  1.794827e+001
    endloop
  endfacet
  facet normal -1.000000e+000  -0.000000e+000  0.000000e+000
    outer loop
      vertex  2.800000e+000  5.000000e+000  2.500000e+001
      vertex  2.800000e+000  1.154205e+001  1.794827e+001
      vertex  2.800000e+000  9.992047e+000  1.682213e+001
    endloop
  endfacet
  facet normal -9.999999e-001  -0.000000e+000  0.000000e+000
    outer loop
      vertex  2.800000e+000  5.000000e+000  2.500000e+001
      vertex  2.800000e+000  9.992047e+000  1.682213e+001
      vertex  2.800000e+000  9.400000e+000  1.500000e+001
    endloop
  endfacet
  facet normal -1.000000e+000  0.000000e+000  0.000000e+000
    outer loop
      vertex  2.800000e+000  5.000000e+000  2.500000e+001
      vertex  2.800000e+000  9.400000e+000  1.500000e+001
      vertex  2.800000e+000 -1.997112e+001  1.501155e+001
    endloop
  endfacet
  facet normal -1.000000e+000  0.000000e+000  0.000000e+000
    outer loop
      vertex  2.800000e+000  1.500795e+001  1.317787e+001
      vertex  2.800000e+000  1.556200e+001  4.957350e+000
      vertex  2.800000e+000  1.345795e+001  1.205172e+001
    endloop
  endfacet
  facet normal -1.000000e+000  0.000000e+000  -0.000000e+000
    outer loop
      vertex  2.800000e+000  1.345795e+001  1.205172e+001
      vertex  2.800000e+000  1.556200e+001  4.957350e+000
      vertex  2.800000e+000  1.016224e+001  4.891420e+000
    endloop
  endfacet
  facet normal -1.000000e+000  0.000000e+000  0.000000e+000
    outer loop
      vertex  2.800000e+000  1.345795e+001  1.205172e+001
      vertex  2.800000e+000  1.016224e+001  4.891420e+000
      vertex  2.800000e+000  1.154205e+001  1.205172e+001
    endloop
  endfacet
  facet normal -9.999999e-001  0.000000e+000  -0.000000e+000
    outer loop
      vertex  2.800000e+000  4.985162e+000  5.788327e+000
      vertex  2.800000e+000  9.400000e+000  1.500000e+001
      vertex  2.800000e+000  1.016224e+001  4.891420e+000
    endloop
  endfacet
  facet normal -1.000000e+000  0.000000e+000  0.000000e+000
    outer loop
      vertex  2.800000e+000  1.016224e+001  4.891420e+000
      vertex  2.800000e+000  9.400000e+000  1.500000e+001
      vertex  2.800000e+000  9.992047e+000  1.317787e+001
    endloop
  endfacet
  facet normal -1.000000e+000  0.000000e+000  0.000000e+000
    outer loop
      vertex  2.800000e+000  1.016224e+001  4.891420e+000
      vertex  2.800000e+000  9.992047e+000  1.317787e+001
      vertex  2.800000e+000  1.154205e+001  1.205172e+001
    endloop
  endfacet
  facet normal  7.070900e-001  6.892376e-003  7.070900e-001
    outer loop
      vertex  8.126232e+000  5.170166e+000  2.411640e+001
      vertex  8.598076e+000  2.000000e+001  2.350000e+001
      vertex  7.500000e+000  2.000000e+001  2.459808e+001
    endloop
  endfacet
  facet normal  9.969164e-001  0.000000e+000  7.847099e-002
    outer loop
      vertex  9.000000e+000  5.577747e+000  2.200000e+001
      vertex  9.000000e+000  2.000000e+001  2.200000e+001
      vertex  8.963054e+000  5.487354e+000  2.246938e+001
    endloop
  endfacet
  facet normal  9.659088e-001  5.911710e-003  2.588147e-001
    outer loop
      vertex  8.963054e+000  5.487354e+000  2.246938e+001
      vertex  9.000000e+000  2.000000e+001  2.200000e+001
      vertex  8.598076e+000  2.000000e+001  2.350000e+001
    endloop
  endfacet
  facet normal  8.922326e-001 -9.622962e-003  4.514737e-001
    outer loop
      vertex  8.963054e+000  5.487354e+000  2.246938e+001
      vertex  8.598076e+000  2.000000e+001  2.350000e+001
      vertex  8.126232e+000  5.170166e+000  2.411640e+001
    endloop
  endfacet
  facet normal  2.588193e-001  -0.000000e+000  9.659258e-001
    outer loop
      vertex  6.000000e+000  2.000000e+001  2.500000e+001
      vertex  6.000000e+000  5.000000e+000  2.500000e+001
      vertex  7.500000e+000  2.000000e+001  2.459808e+001
    endloop
  endfacet
  facet normal  7.736755e-002  1.897304e-002  9.968222e-001
    outer loop
      vertex  7.500000e+000  2.000000e+001  2.459808e+001
      vertex  6.000000e+000  5.000000e+000  2.500000e+001
      vertex  6.464572e+000  5.006969e+000  2.496381e+001
    endloop
  endfacet
  facet normal  4.550463e-001 -9.705347e-003  8.904150e-001
    outer loop
      vertex  7.500000e+000  2.000000e+001  2.459808e+001
      vertex  6.464572e+000  5.006969e+000  2.496381e+001
      vertex  8.126232e+000  5.170166e+000  2.411640e+001
    endloop
  endfacet
  facet normal  -0.000000e+000  9.659258e-001  2.588193e-001
    outer loop
      vertex  4.000000e+000  2.500000e+001  2.200000e+001
      vertex  2.800000e+000  2.500000e+001  2.200000e+001
      vertex  4.000000e+000  2.459808e+001  2.350000e+001
    endloop
  endfacet
  facet normal  0.000000e+000  9.659258e-001  2.588193e-001
    outer loop
      vertex  4.000000e+000  2.459808e+001  2.350000e+001
      vertex  2.800000e+000  2.500000e+001  2.200000e+001
      vertex  2.800000e+000  2.459808e+001  2.350000e+001
    endloop
  endfacet
  facet normal  -0.000000e+000  7.071068e-001  7.071068e-001
    outer loop
      vertex  4.000000e+000  2.459808e+001  2.350000e+001
      vertex  2.800000e+000  2.459808e+001  2.350000e+001
      vertex  4.000000e+000  2.350000e+001  2.459808e+001
    endloop
  endfacet
  facet normal  0.000000e+000  7.071068e-001  7.071068e-001
    outer loop
      vertex  4.000000e+000  2.350000e+001  2.459808e+001
      vertex  2.800000e+000  2.459808e+001  2.350000e+001
      vertex  2.800000e+000  2.350000e+001  2.459808e+001
    endloop
  endfacet
  facet normal  -0.000000e+000  2.588193e-001  9.659258e-001
    outer loop
      vertex  4.000000e+000  2.350000e+001  2.459808e+001
      vertex  2.800000e+000  2.350000e+001  2.459808e+001
      vertex  3.999999e+000  2.200000e+001  2.500000e+001
    endloop
  endfacet
  facet normal  0.000000e+000  2.588193e-001  9.659258e-001
    outer loop
      vertex  3.999999e+000  2.200000e+001  2.500000e+001
      vertex  2.800000e+000  2.350000e+001  2.459808e+001
      vertex  2.800000e+000  2.200000e+001  2.500000e+001
    endloop
  endfacet
  facet normal  9.659258e-001 -2.588193e-001  0.000000e+000
    outer loop
      vertex  9.000000e+000 -2.200000e+001  0.000000e+000
      vertex  9.000000e+000 -2.200000e+001  7.583736e+000
      vertex  8.598076e+000 -2.350000e+001  0.000000e+000
    endloop
  endfacet
  facet normal  9.659258e-001 -2.588193e-001  0.000000e+000
    outer loop
      vertex  8.598076e+000 -2.350000e+001  0.000000e+000
      vertex  9.000000e+000 -2.200000e+001  7.583736e+000
      vertex  8.598076e+000 -2.350000e+001  7.583736e+000
    endloop
  endfacet
  facet normal  7.071068e-001 -7.071068e-001  0.000000e+000
    outer loop
      vertex  8.598076e+000 -2.350000e+001  0.000000e+000
      vertex  8.598076e+000 -2.350000e+001  7.583736e+000
      vertex  7.500000e+000 -2.459808e+001  0.000000e+000
    endloop
  endfacet
  facet normal  7.071068e-001 -7.071068e-001  0.000000e+000
    outer loop
      vertex  7.500000e+000 -2.459808e+001  0.000000e+000
      vertex  8.598076e+000 -2.350000e+001  7.583736e+000
      vertex  7.500000e+000 -2.459808e+001  7.583736e+000
    endloop
  endfacet
  facet normal  2.588193e-001 -9.659258e-001  0.000000e+000
    outer loop
      vertex  7.500000e+000 -2.459808e+001  0.000000e+000
      vertex  7.500000e+000 -2.459808e+001  7.583736e+000
      vertex  6.000000e+000 -2.500000e+001  0.000000e+000
    endloop
  endfacet
  facet normal  2.588193e-001 -9.659258e-001  0.000000e+000
    outer loop
      vertex  6.000000e+000 -2.500000e+001  0.000000e+000
      vertex  7.500000e+000 -2.459808e+001  7.583736e+000
      vertex  6.000000e+000 -2.500000e+001  7.583736e+000
    endloop
  endfacet
  facet normal  7.071020e-001 -2.661620e-001  6.551065e-001
    outer loop
      vertex  7.500000e+000 -1.982186e+001  1.463837e+001
      vertex  8.598076e+000 -1.941404e+001  1.361883e+001
      vertex  8.126232e+000  5.170166e+000  2.411640e+001
    endloop
  endfacet
  facet normal  9.659258e-001 -9.612306e-002  2.403076e-001
    outer loop
      vertex  9.000000e+000 -1.885695e+001  1.222612e+001
      vertex  9.000000e+000  5.577747e+000  2.200000e+001
      vertex  8.598076e+000 -1.941404e+001  1.361883e+001
    endloop
  endfacet
  facet normal  9.966977e-001 -3.977062e-002  7.079469e-002
    outer loop
      vertex  8.598076e+000 -1.941404e+001  1.361883e+001
      vertex  9.000000e+000  5.577747e+000  2.200000e+001
      vertex  8.963054e+000  5.487354e+000  2.246938e+001
    endloop
  endfacet
  facet normal  8.919273e-001 -1.629848e-001  4.217838e-001
    outer loop
      vertex  8.598076e+000 -1.941404e+001  1.361883e+001
      vertex  8.963054e+000  5.487354e+000  2.246938e+001
      vertex  8.126232e+000  5.170166e+000  2.411640e+001
    endloop
  endfacet
  facet normal  7.766435e-002 -3.702689e-001  9.256722e-001
    outer loop
      vertex  6.000000e+000  5.000000e+000  2.500000e+001
      vertex  6.000000e+000 -1.997112e+001  1.501155e+001
      vertex  6.464572e+000  5.006969e+000  2.496381e+001
    endloop
  endfacet
  facet normal  2.588172e-001 -3.616790e-001  8.956572e-001
    outer loop
      vertex  6.464572e+000  5.006969e+000  2.496381e+001
      vertex  6.000000e+000 -1.997112e+001  1.501155e+001
      vertex  7.500000e+000 -1.982186e+001  1.463837e+001
    endloop
  endfacet
  facet normal  4.547253e-001 -3.257554e-001  8.289199e-001
    outer loop
      vertex  6.464572e+000  5.006969e+000  2.496381e+001
      vertex  7.500000e+000 -1.982186e+001  1.463837e+001
      vertex  8.126232e+000  5.170166e+000  2.411640e+001
    endloop
  endfacet
  facet normal  9.646210e-001 -2.584696e-001  5.195895e-002
    outer loop
      vertex  9.000000e+000 -2.200000e+001  7.583736e+000
      vertex  9.000000e+000 -2.161158e+001  9.515912e+000
      vertex  8.598076e+000 -2.350000e+001  7.583736e+000
    endloop
  endfacet
  facet normal  9.646209e-001 -2.584697e-001  5.195904e-002
    outer loop
      vertex  8.598076e+000 -2.350000e+001  7.583736e+000
      vertex  9.000000e+000 -2.161158e+001  9.515912e+000
      vertex  8.598076e+000 -2.299506e+001  1.009556e+001
    endloop
  endfacet
  facet normal  7.000695e-001 -7.000695e-001  1.407319e-001
    outer loop
      vertex  8.598076e+000 -2.350000e+001  7.583736e+000
      vertex  8.598076e+000 -2.299506e+001  1.009556e+001
      vertex  7.500000e+000 -2.459808e+001  7.583736e+000
    endloop
  endfacet
  facet normal  7.000694e-001 -7.000694e-001  1.407319e-001
    outer loop
      vertex  7.500000e+000 -2.459808e+001  7.583736e+000
      vertex  8.598076e+000 -2.299506e+001  1.009556e+001
      vertex  7.500000e+000 -2.400783e+001  1.051990e+001
    endloop
  endfacet
  facet normal  2.540737e-001 -9.482153e-001  1.906156e-001
    outer loop
      vertex  7.500000e+000 -2.459808e+001  7.583736e+000
      vertex  7.500000e+000 -2.400783e+001  1.051990e+001
      vertex  6.000000e+000 -2.500000e+001  7.583736e+000
    endloop
  endfacet
  facet normal  2.540734e-001 -9.482154e-001  1.906158e-001
    outer loop
      vertex  6.000000e+000 -2.500000e+001  7.583736e+000
      vertex  7.500000e+000 -2.400783e+001  1.051990e+001
      vertex  6.000000e+000 -2.437853e+001  1.067522e+001
    endloop
  endfacet
  facet normal  9.646210e-001 -1.442359e-001  2.206860e-001
    outer loop
      vertex  9.000000e+000 -2.050668e+001  1.114789e+001
      vertex  9.000000e+000 -1.885695e+001  1.222612e+001
      vertex  8.598076e+000 -2.155868e+001  1.221714e+001
    endloop
  endfacet
  facet normal  9.646210e-001 -1.442359e-001  2.206859e-001
    outer loop
      vertex  8.598076e+000 -2.155868e+001  1.221714e+001
      vertex  9.000000e+000 -1.885695e+001  1.222612e+001
      vertex  8.598076e+000 -1.941404e+001  1.361883e+001
    endloop
  endfacet
  facet normal  7.000692e-001 -3.906657e-001  5.977319e-001
    outer loop
      vertex  8.598076e+000 -2.155868e+001  1.221714e+001
      vertex  8.598076e+000 -1.941404e+001  1.361883e+001
      vertex  7.500000e+000 -2.232880e+001  1.299988e+001
    endloop
  endfacet
  facet normal  7.000698e-001 -3.906657e-001  5.977312e-001
    outer loop
      vertex  7.500000e+000 -2.232880e+001  1.299988e+001
      vertex  8.598076e+000 -1.941404e+001  1.361883e+001
      vertex  7.500000e+000 -1.982186e+001  1.463837e+001
    endloop
  endfacet
  facet normal  2.540741e-001 -5.291408e-001  8.096026e-001
    outer loop
      vertex  7.500000e+000 -2.232880e+001  1.299988e+001
      vertex  7.500000e+000 -1.982186e+001  1.463837e+001
      vertex  6.000000e+000 -2.261069e+001  1.328638e+001
    endloop
  endfacet
  facet normal  2.540728e-001 -5.291405e-001  8.096032e-001
    outer loop
      vertex  6.000000e+000 -2.261069e+001  1.328638e+001
      vertex  7.500000e+000 -1.982186e+001  1.463837e+001
      vertex  6.000000e+000 -1.997112e+001  1.501155e+001
    endloop
  endfacet
  facet normal  9.646209e-001 -2.183121e-001  1.478045e-001
    outer loop
      vertex  9.000000e+000 -2.161158e+001  9.515912e+000
      vertex  9.000000e+000 -2.050668e+001  1.114789e+001
      vertex  8.598076e+000 -2.299506e+001  1.009556e+001
    endloop
  endfacet
  facet normal  9.646209e-001 -2.183121e-001  1.478044e-001
    outer loop
      vertex  8.598076e+000 -2.299506e+001  1.009556e+001
      vertex  9.000000e+000 -2.050668e+001  1.114789e+001
      vertex  8.598076e+000 -2.155868e+001  1.221714e+001
    endloop
  endfacet
  facet normal  7.000695e-001 -5.913019e-001  4.003307e-001
    outer loop
      vertex  8.598076e+000 -2.299506e+001  1.009556e+001
      vertex  8.598076e+000 -2.155868e+001  1.221714e+001
      vertex  7.500000e+000 -2.400783e+001  1.051990e+001
    endloop
  endfacet
  facet normal  7.000691e-001 -5.913020e-001  4.003312e-001
    outer loop
      vertex  7.500000e+000 -2.400783e+001  1.051990e+001
      vertex  8.598076e+000 -2.155868e+001  1.221714e+001
      vertex  7.500000e+000 -2.232880e+001  1.299988e+001
    endloop
  endfacet
  facet normal  2.540734e-001 -8.008940e-001  5.422320e-001
    outer loop
      vertex  7.500000e+000 -2.400783e+001  1.051990e+001
      vertex  7.500000e+000 -2.232880e+001  1.299988e+001
      vertex  6.000000e+000 -2.437853e+001  1.067522e+001
    endloop
  endfacet
  facet normal  2.540743e-001 -8.008941e-001  5.422314e-001
    outer loop
      vertex  6.000000e+000 -2.437853e+001  1.067522e+001
      vertex  7.500000e+000 -2.232880e+001  1.299988e+001
      vertex  6.000000e+000 -2.261069e+001  1.328638e+001
    endloop
  endfacet
  facet normal  6.918390e-002  2.581990e-001  9.636113e-001
    outer loop
      vertex  3.999999e+000  2.200000e+001  2.500000e+001
      vertex  5.000000e+000  2.173205e+001  2.500000e+001
      vertex  4.000000e+000  2.350000e+001  2.459808e+001
    endloop
  endfacet
  facet normal  6.918412e-002  2.581992e-001  9.636112e-001
    outer loop
      vertex  4.000000e+000  2.350000e+001  2.459808e+001
      vertex  5.000000e+000  2.173205e+001  2.500000e+001
      vertex  5.750000e+000  2.303109e+001  2.459808e+001
    endloop
  endfacet
  facet normal  1.861565e-001  6.947466e-001  6.947466e-001
    outer loop
      vertex  4.000000e+000  2.350000e+001  2.459808e+001
      vertex  5.750000e+000  2.303109e+001  2.459808e+001
      vertex  4.000000e+000  2.459808e+001  2.350000e+001
    endloop
  endfacet
  facet normal  1.861571e-001  6.947469e-001  6.947461e-001
    outer loop
      vertex  4.000000e+000  2.459808e+001  2.350000e+001
      vertex  5.750000e+000  2.303109e+001  2.459808e+001
      vertex  6.299038e+000  2.398205e+001  2.350000e+001
    endloop
  endfacet
  facet normal  2.505630e-001  9.351130e-001  2.505630e-001
    outer loop
      vertex  4.000000e+000  2.459808e+001  2.350000e+001
      vertex  6.299038e+000  2.398205e+001  2.350000e+001
      vertex  4.000000e+000  2.500000e+001  2.200000e+001
    endloop
  endfacet
  facet normal  2.505625e-001  9.351130e-001  2.505637e-001
    outer loop
      vertex  4.000000e+000  2.500000e+001  2.200000e+001
      vertex  6.299038e+000  2.398205e+001  2.350000e+001
      vertex  6.500000e+000  2.433013e+001  2.200000e+001
    endloop
  endfacet
  facet normal  2.581990e-001  6.918431e-002  9.636113e-001
    outer loop
      vertex  5.732050e+000  2.100000e+001  2.500000e+001
      vertex  6.000000e+000  2.000000e+001  2.500000e+001
      vertex  7.031089e+000  2.175000e+001  2.459808e+001
    endloop
  endfacet
  facet normal  2.581991e-001  6.918425e-002  9.636113e-001
    outer loop
      vertex  7.031089e+000  2.175000e+001  2.459808e+001
      vertex  6.000000e+000  2.000000e+001  2.500000e+001
      vertex  7.500000e+000  2.000000e+001  2.459808e+001
    endloop
  endfacet
  facet normal  6.947464e-001  1.861568e-001  6.947467e-001
    outer loop
      vertex  7.031089e+000  2.175000e+001  2.459808e+001
      vertex  7.500000e+000  2.000000e+001  2.459808e+001
      vertex  7.982051e+000  2.229904e+001  2.350000e+001
    endloop
  endfacet
  facet normal  6.947466e-001  1.861567e-001  6.947466e-001
    outer loop
      vertex  7.982051e+000  2.229904e+001  2.350000e+001
      vertex  7.500000e+000  2.000000e+001  2.459808e+001
      vertex  8.598076e+000  2.000000e+001  2.350000e+001
    endloop
  endfacet
  facet normal  9.351132e-001  2.505627e-001  2.505626e-001
    outer loop
      vertex  7.982051e+000  2.229904e+001  2.350000e+001
      vertex  8.598076e+000  2.000000e+001  2.350000e+001
      vertex  8.330127e+000  2.250000e+001  2.200000e+001
    endloop
  endfacet
  facet normal  9.351130e-001  2.505629e-001  2.505630e-001
    outer loop
      vertex  8.330127e+000  2.250000e+001  2.200000e+001
      vertex  8.598076e+000  2.000000e+001  2.350000e+001
      vertex  9.000000e+000  2.000000e+001  2.200000e+001
    endloop
  endfacet
  facet normal  1.890150e-001  1.890147e-001  9.636113e-001
    outer loop
      vertex  5.000000e+000  2.173205e+001  2.500000e+001
      vertex  5.732050e+000  2.100000e+001  2.500000e+001
      vertex  5.750000e+000  2.303109e+001  2.459808e+001
    endloop
  endfacet
  facet normal  1.890149e-001  1.890147e-001  9.636114e-001
    outer loop
      vertex  5.750000e+000  2.303109e+001  2.459808e+001
      vertex  5.732050e+000  2.100000e+001  2.500000e+001
      vertex  7.031089e+000  2.175000e+001  2.459808e+001
    endloop
  endfacet
  facet normal  5.085903e-001  5.085899e-001  6.947463e-001
    outer loop
      vertex  5.750000e+000  2.303109e+001  2.459808e+001
      vertex  7.031089e+000  2.175000e+001  2.459808e+001
      vertex  6.299038e+000  2.398205e+001  2.350000e+001
    endloop
  endfacet
  facet normal  5.085896e-001  5.085899e-001  6.947467e-001
    outer loop
      vertex  6.299038e+000  2.398205e+001  2.350000e+001
      vertex  7.031089e+000  2.175000e+001  2.459808e+001
      vertex  7.982051e+000  2.229904e+001  2.350000e+001
    endloop
  endfacet
  facet normal  6.845500e-001  6.845503e-001  2.505636e-001
    outer loop
      vertex  6.299038e+000  2.398205e+001  2.350000e+001
      vertex  7.982051e+000  2.229904e+001  2.350000e+001
      vertex  6.500000e+000  2.433013e+001  2.200000e+001
    endloop
  endfacet
  facet normal  6.845505e-001  6.845501e-001  2.505628e-001
    outer loop
      vertex  6.500000e+000  2.433013e+001  2.200000e+001
      vertex  7.982051e+000  2.229904e+001  2.350000e+001
      vertex  8.330127e+000  2.250000e+001  2.200000e+001
    endloop
  endfacet
  facet normal  0.000000e+000  5.877851e-001 -8.090171e-001
    outer loop
      vertex -9.000000e+000  1.154205e+001  1.794827e+001
      vertex -2.800000e+000  9.992047e+000  1.682213e+001
      vertex -9.000000e+000  9.992047e+000  1.682213e+001
    endloop
  endfacet
  facet normal  0.000000e+000  9.510564e-001 -3.090172e-001
    outer loop
      vertex -9.000000e+000  9.992047e+000  1.682213e+001
      vertex -2.800000e+000  9.992047e+000  1.682213e+001
      vertex -2.800000e+000  9.400000e+000  1.500000e+001
    endloop
  endfacet
  facet normal  0.000000e+000  9.510564e-001 -3.090172e-001
    outer loop
      vertex -9.000000e+000  9.992047e+000  1.682213e+001
      vertex -2.800000e+000  9.400000e+000  1.500000e+001
      vertex -9.000000e+000  9.400000e+000  1.500000e+001
    endloop
  endfacet
  facet normal  0.000000e+000  5.877851e-001 -8.090171e-001
    outer loop
      vertex -2.800000e+000  9.992047e+000  1.682213e+001
      vertex -9.000000e+000  1.154205e+001  1.794827e+001
      vertex -2.800000e+000  1.154205e+001  1.794827e+001
    endloop
  endfacet
  facet normal  0.000000e+000  0.000000e+000 -1.000000e+000
    outer loop
      vertex -2.800000e+000  1.154205e+001  1.794827e+001
      vertex -9.000000e+000  1.154205e+001  1.794827e+001
      vertex -9.000000e+000  1.345795e+001  1.794827e+001
    endloop
  endfacet
  facet normal  0.000000e+000  0.000000e+000 -1.000000e+000
    outer loop
      vertex -2.800000e+000  1.154205e+001  1.794827e+001
      vertex -9.000000e+000  1.345795e+001  1.794827e+001
      vertex -2.800000e+000  1.345795e+001  1.794827e+001
    endloop
  endfacet
  facet normal  -0.000000e+000 -5.877851e-001 -8.090171e-001
    outer loop
      vertex -2.800000e+000  1.345795e+001  1.794827e+001
      vertex -9.000000e+000  1.345795e+001  1.794827e+001
      vertex -9.000000e+000  1.500795e+001  1.682213e+001
    endloop
  endfacet
  facet normal  0.000000e+000 -5.877851e-001 -8.090171e-001
    outer loop
      vertex -2.800000e+000  1.345795e+001  1.794827e+001
      vertex -9.000000e+000  1.500795e+001  1.682213e+001
      vertex -2.800000e+000  1.500795e+001  1.682213e+001
    endloop
  endfacet
  facet normal  -0.000000e+000 -9.510564e-001 -3.090172e-001
    outer loop
      vertex -2.800000e+000  1.500795e+001  1.682213e+001
      vertex -9.000000e+000  1.500795e+001  1.682213e+001
      vertex -9.000000e+000  1.560000e+001  1.500000e+001
    endloop
  endfacet
  facet normal  0.000000e+000 -9.510564e-001 -3.090172e-001
    outer loop
      vertex -2.800000e+000  1.500795e+001  1.682213e+001
      vertex -9.000000e+000  1.560000e+001  1.500000e+001
      vertex -2.800000e+000  1.560000e+001  1.500000e+001
    endloop
  endfacet
  facet normal  0.000000e+000  5.877851e-001 -8.090171e-001
    outer loop
      vertex  2.800000e+000  1.154205e+001  1.794827e+001
      vertex  9.000000e+000  9.992047e+000  1.682213e+001
      vertex  2.800000e+000  9.992047e+000  1.682213e+001
    endloop
  endfacet
  facet normal  0.000000e+000  9.510564e-001 -3.090172e-001
    outer loop
      vertex  2.800000e+000  9.992047e+000  1.682213e+001
      vertex  9.000000e+000  9.992047e+000  1.682213e+001
      vertex  9.000000e+000  9.400000e+000  1.500000e+001
    endloop
  endfacet
  facet normal  0.000000e+000  9.510564e-001 -3.090172e-001
    outer loop
      vertex  2.800000e+000  9.992047e+000  1.682213e+001
      vertex  9.000000e+000  9.400000e+000  1.500000e+001
      vertex  2.800000e+000  9.400000e+000  1.500000e+001
    endloop
  endfacet
  facet normal  0.000000e+000  5.877851e-001 -8.090171e-001
    outer loop
      vertex  9.000000e+000  9.992047e+000  1.682213e+001
      vertex  2.800000e+000  1.154205e+001  1.794827e+001
      vertex  9.000000e+000  1.154205e+001  1.794827e+001
    endloop
  endfacet
  facet normal  0.000000e+000  0.000000e+000 -1.000000e+000
    outer loop
      vertex  9.000000e+000  1.154205e+001  1.794827e+001
      vertex  2.800000e+000  1.154205e+001  1.794827e+001
      vertex  2.800000e+000  1.345795e+001  1.794827e+001
    endloop
  endfacet
  facet normal  0.000000e+000  0.000000e+000 -1.000000e+000
    outer loop
      vertex  9.000000e+000  1.154205e+001  1.794827e+001
      vertex  2.800000e+000  1.345795e+001  1.794827e+001
      vertex  9.000000e+000  1.345795e+001  1.794827e+001
    endloop
  endfacet
  facet normal  -0.000000e+000 -5.877851e-001 -8.090171e-001
    outer loop
      vertex  9.000000e+000  1.345795e+001  1.794827e+001
      vertex  2.800000e+000  1.345795e+001  1.794827e+001
      vertex  2.800000e+000  1.500795e+001  1.682213e+001
    endloop
  endfacet
  facet normal  0.000000e+000 -5.877851e-001 -8.090171e-001
    outer loop
      vertex  9.000000e+000  1.345795e+001  1.794827e+001
      vertex  2.800000e+000  1.500795e+001  1.682213e+001
      vertex  9.000000e+000  1.500795e+001  1.682213e+001
    endloop
  endfacet
  facet normal  -0.000000e+000 -9.510564e-001 -3.090172e-001
    outer loop
      vertex  9.000000e+000  1.500795e+001  1.682213e+001
      vertex  2.800000e+000  1.500795e+001  1.682213e+001
      vertex  2.800000e+000  1.560000e+001  1.500000e+001
    endloop
  endfacet
  facet normal  0.000000e+000 -9.510564e-001 -3.090172e-001
    outer loop
      vertex  9.000000e+000  1.500795e+001  1.682213e+001
      vertex  2.800000e+000  1.560000e+001  1.500000e+001
      vertex  9.000000e+000  1.560000e+001  1.500000e+001
    endloop
  endfacet
  facet normal  0.000000e+000 -5.877854e-001  8.090169e-001
    outer loop
      vertex -9.000000e+000  1.345795e+001  1.205172e+001
      vertex -2.800000e+000  1.500795e+001  1.317787e+001
      vertex -9.000000e+000  1.500795e+001  1.317787e+001
    endloop
  endfacet
  facet normal  0.000000e+000 -9.510564e-001  3.090172e-001
    outer loop
      vertex -9.000000e+000  1.500795e+001  1.317787e+001
      vertex -2.800000e+000  1.500795e+001  1.317787e+001
      vertex -2.800000e+000  1.560000e+001  1.500000e+001
    endloop
  endfacet
  facet normal  0.000000e+000 -9.510564e-001  3.090172e-001
    outer loop
      vertex -9.000000e+000  1.500795e+001  1.317787e+001
      vertex -2.800000e+000  1.560000e+001  1.500000e+001
      vertex -9.000000e+000  1.560000e+001  1.500000e+001
    endloop
  endfacet
  facet normal  0.000000e+000 -5.877854e-001  8.090169e-001
    outer loop
      vertex -2.800000e+000  1.500795e+001  1.317787e+001
      vertex -9.000000e+000  1.345795e+001  1.205172e+001
      vertex -2.800000e+000  1.345795e+001  1.205172e+001
    endloop
  endfacet
  facet normal  0.000000e+000  0.000000e+000  1.000000e+000
    outer loop
      vertex -2.800000e+000  1.345795e+001  1.205172e+001
      vertex -9.000000e+000  1.345795e+001  1.205172e+001
      vertex -9.000000e+000  1.154205e+001  1.205172e+001
    endloop
  endfacet
  facet normal  0.000000e+000  0.000000e+000  1.000000e+000
    outer loop
      vertex -2.800000e+000  1.345795e+001  1.205172e+001
      vertex -9.000000e+000  1.154205e+001  1.205172e+001
      vertex -2.800000e+000  1.154205e+001  1.205172e+001
    endloop
  endfacet
  facet normal  0.000000e+000  5.877854e-001  8.090169e-001
    outer loop
      vertex -2.800000e+000  1.154205e+001  1.205172e+001
      vertex -9.000000e+000  1.154205e+001  1.205172e+001
      vertex -9.000000e+000  9.992047e+000  1.317787e+001
    endloop
  endfacet
  facet normal  -0.000000e+000  5.877854e-001  8.090169e-001
    outer loop
      vertex -2.800000e+000  1.154205e+001  1.205172e+001
      vertex -9.000000e+000  9.992047e+000  1.317787e+001
      vertex -2.800000e+000  9.992047e+000  1.317787e+001
    endloop
  endfacet
  facet normal  0.000000e+000  9.510564e-001  3.090172e-001
    outer loop
      vertex -2.800000e+000  9.992047e+000  1.317787e+001
      vertex -9.000000e+000  9.992047e+000  1.317787e+001
      vertex -9.000000e+000  9.400000e+000  1.500000e+001
    endloop
  endfacet
  facet normal  -0.000000e+000  9.510564e-001  3.090172e-001
    outer loop
      vertex -2.800000e+000  9.992047e+000  1.317787e+001
      vertex -9.000000e+000  9.400000e+000  1.500000e+001
      vertex -2.800000e+000  9.400000e+000  1.500000e+001
    endloop
  endfacet
  facet normal  0.000000e+000 -5.877854e-001  8.090169e-001
    outer loop
      vertex  2.800000e+000  1.345795e+001  1.205172e+001
      vertex  9.000000e+000  1.500795e+001  1.317787e+001
      vertex  2.800000e+000  1.500795e+001  1.317787e+001
    endloop
  endfacet
  facet normal  0.000000e+000 -9.510564e-001  3.090172e-001
    outer loop
      vertex  2.800000e+000  1.500795e+001  1.317787e+001
      vertex  9.000000e+000  1.500795e+001  1.317787e+001
      vertex  9.000000e+000  1.560000e+001  1.500000e+001
    endloop
  endfacet
  facet normal  0.000000e+000 -9.510564e-001  3.090172e-001
    outer loop
      vertex  2.800000e+000  1.500795e+001  1.317787e+001
      vertex  9.000000e+000  1.560000e+001  1.500000e+001
      vertex  2.800000e+000  1.560000e+001  1.500000e+001
    endloop
  endfacet
  facet normal  0.000000e+000 -5.877854e-001  8.090169e-001
    outer loop
      vertex  9.000000e+000  1.500795e+001  1.317787e+001
      vertex  2.800000e+000  1.345795e+001  1.205172e+001
      vertex  9.000000e+000  1.345795e+001  1.205172e+001
    endloop
  endfacet
  facet normal  0.000000e+000  0.000000e+000  1.000000e+000
    outer loop
      vertex  9.000000e+000  1.345795e+001  1.205172e+001
      vertex  2.800000e+000  1.345795e+001  1.205172e+001
      vertex  2.800000e+000  1.154205e+001  1.205172e+001
    endloop
  endfacet
  facet normal  0.000000e+000  0.000000e+000  1.000000e+000
    outer loop
      vertex  9.000000e+000  1.345795e+001  1.205172e+001
      vertex  2.800000e+000  1.154205e+001  1.205172e+001
      vertex  9.000000e+000  1.154205e+001  1.205172e+001
    endloop
  endfacet
  facet normal  0.000000e+000  5.877854e-001  8.090169e-001
    outer loop
      vertex  9.000000e+000  1.154205e+001  1.205172e+001
      vertex  2.800000e+000  1.154205e+001  1.205172e+001
      vertex  2.800000e+000  9.992047e+000  1.317787e+001
    endloop
  endfacet
  facet normal  -0.000000e+000  5.877854e-001  8.090169e-001
    outer loop
      vertex  9.000000e+000  1.154205e+001  1.205172e+001
      vertex  2.800000e+000  9.992047e+000  1.317787e+001
      vertex  9.000000e+000  9.992047e+000  1.317787e+001
    endloop
  endfacet
  facet normal  0.000000e+000  9.510564e-001  3.090172e-001
    outer loop
      vertex  9.000000e+000  9.992047e+000  1.317787e+001
      vertex  2.800000e+000  9.992047e+000  1.317787e+001
      vertex  2.800000e+000  9.400000e+000  1.500000e+001
    endloop
  endfacet
  facet normal  -0.000000e+000  9.510564e-001  3.090172e-001
    outer loop
      vertex  9.000000e+000  9.992047e+000  1.317787e+001
      vertex  2.800000e+000  9.400000e+000  1.500000e+001
      vertex  9.000000e+000  9.400000e+000  1.500000e+001
    endloop
  endfacet
  facet normal  0.000000e+000  1.707027e-001  9.853225e-001
    outer loop
      vertex -2.800000e+000  4.985162e+000  5.788327e+000
      vertex  2.800000e+000  1.016224e+001  4.891420e+000
      vertex -2.800000e+000  1.016224e+001  4.891420e+000
    endloop
  endfacet
  facet normal  0.000000e+000 -1.220880e-002  9.999255e-001
    outer loop
      vertex -2.800000e+000  1.016224e+001  4.891420e+000
      vertex  2.800000e+000  1.016224e+001  4.891420e+000
      vertex  2.800000e+000  1.556200e+001  4.957350e+000
    endloop
  endfacet
  facet normal  0.000000e+000 -1.220880e-002  9.999255e-001
    outer loop
      vertex -2.800000e+000  1.016224e+001  4.891420e+000
      vertex  2.800000e+000  1.556200e+001  4.957350e+000
      vertex -2.800000e+000  1.556200e+001  4.957350e+000
    endloop
  endfacet
  facet normal  0.000000e+000 -1.962760e-001  9.805486e-001
    outer loop
      vertex -2.800000e+000  1.556200e+001  4.957350e+000
      vertex  2.800000e+000  1.556200e+001  4.957350e+000
      vertex  2.800000e+000  2.067010e+001  5.979836e+000
    endloop
  endfacet
  facet normal  0.000000e+000 -1.962760e-001  9.805486e-001
    outer loop
      vertex -2.800000e+000  1.556200e+001  4.957350e+000
      vertex  2.800000e+000  2.067010e+001  5.979836e+000
      vertex -2.800000e+000  2.067010e+001  5.979836e+000
    endloop
  endfacet
  facet normal  0.000000e+000 -3.985630e-001  9.171410e-001
    outer loop
      vertex -2.800000e+000  2.067010e+001  5.979836e+000
      vertex  2.800000e+000  2.067010e+001  5.979836e+000
      vertex  2.800000e+000  2.500000e+001  7.861487e+000
    endloop
  endfacet
  facet normal  0.000000e+000 -3.985630e-001  9.171410e-001
    outer loop
      vertex -2.800000e+000  2.067010e+001  5.979836e+000
      vertex  2.800000e+000  2.500000e+001  7.861487e+000
      vertex -2.800000e+000  2.500000e+001  7.861487e+000
    endloop
  endfacet
  facet normal  -0.000000e+000  1.707027e-001  9.853225e-001
    outer loop
      vertex  2.800000e+000  1.016224e+001  4.891420e+000
      vertex -2.800000e+000  4.985162e+000  5.788327e+000
      vertex  2.800000e+000  4.985162e+000  5.788327e+000
    endloop
  endfacet
  facet normal  0.000000e+000  3.695573e-001  9.292079e-001
    outer loop
      vertex  2.800000e+000  4.985162e+000  5.788327e+000
      vertex -2.800000e+000  4.985162e+000  5.788327e+000
      vertex -2.800000e+000  5.238622e-001  7.562640e+000
    endloop
  endfacet
  facet normal  -0.000000e+000  3.695573e-001  9.292079e-001
    outer loop
      vertex  2.800000e+000  4.985162e+000  5.788327e+000
      vertex -2.800000e+000  5.238622e-001  7.562640e+000
      vertex  2.800000e+000  5.238622e-001  7.562640e+000
    endloop
  endfacet
  facet normal  0.000000e+000  5.988080e-001  8.008926e-001
    outer loop
      vertex  2.800000e+000  5.238622e-001  7.562640e+000
      vertex -2.800000e+000  5.238622e-001  7.562640e+000
      vertex -2.800000e+000 -2.796717e+000  1.004536e+001
    endloop
  endfacet
  facet normal  -0.000000e+000  5.988080e-001  8.008926e-001
    outer loop
      vertex  2.800000e+000  5.238622e-001  7.562640e+000
      vertex -2.800000e+000 -2.796717e+000  1.004536e+001
      vertex  2.800000e+000 -2.796717e+000  1.004536e+001
    endloop
  endfacet
  facet normal  0.000000e+000  7.860792e-001  6.181257e-001
    outer loop
      vertex  2.800000e+000 -2.796717e+000  1.004536e+001
      vertex -2.800000e+000 -2.796717e+000  1.004536e+001
      vertex -2.800000e+000 -3.925246e+000  1.148052e+001
    endloop
  endfacet
  facet normal  -0.000000e+000  7.860792e-001  6.181257e-001
    outer loop
      vertex  2.800000e+000 -2.796717e+000  1.004536e+001
      vertex -2.800000e+000 -3.925246e+000  1.148052e+001
      vertex  2.800000e+000 -3.925246e+000  1.148052e+001
    endloop
  endfacet
  facet normal  0.000000e+000  9.002019e-001  4.354729e-001
    outer loop
      vertex  2.800000e+000 -3.925246e+000  1.148052e+001
      vertex -2.800000e+000 -3.925246e+000  1.148052e+001
      vertex -2.800000e+000 -4.660294e+000  1.300000e+001
    endloop
  endfacet
  facet normal  -0.000000e+000  9.002019e-001  4.354729e-001
    outer loop
      vertex  2.800000e+000 -3.925246e+000  1.148052e+001
      vertex -2.800000e+000 -4.660294e+000  1.300000e+001
      vertex  2.800000e+000 -4.660294e+000  1.300000e+001
    endloop
  endfacet
  facet normal  0.000000e+000  0.000000e+000  1.000000e+000
    outer loop
      vertex  2.800000e+000 -2.288762e+001  1.300000e+001
      vertex  2.800000e+000 -4.660294e+000  1.300000e+001
      vertex -2.800000e+000 -2.288762e+001  1.300000e+001
    endloop
  endfacet
  facet normal  0.000000e+000  0.000000e+000  1.000000e+000
    outer loop
      vertex -2.800000e+000 -2.288762e+001  1.300000e+001
      vertex  2.800000e+000 -4.660294e+000  1.300000e+001
      vertex -2.800000e+000 -4.660294e+000  1.300000e+001
    endloop
  endfacet
endsolid CATIA STL
