solid CATIA STL
  facet normal  0.000000e+000  -0.000000e+000  1.000000e+000
    outer loop
      vertex -7.000000e+001  1.500000e+002  2.000000e+000
      vertex -4.030000e+001  9.030000e+001  2.000000e+000
      vertex -2.000000e+001  9.030000e+001  2.000000e+000
    endloop
  endfacet
  facet normal  0.000000e+000  -0.000000e+000  1.000000e+000
    outer loop
      vertex -7.000000e+001  1.500000e+002  2.000000e+000
      vertex -2.000000e+001  9.030000e+001  2.000000e+000
      vertex  2.000000e+001  9.030000e+001  2.000000e+000
    endloop
  endfacet
  facet normal  0.000000e+000  -0.000000e+000  1.000000e+000
    outer loop
      vertex -7.000000e+001  1.500000e+002  2.000000e+000
      vertex  2.000000e+001  9.030000e+001  2.000000e+000
      vertex  4.030000e+001  9.030000e+001  2.000000e+000
    endloop
  endfacet
  facet normal  0.000000e+000  -0.000000e+000  1.000000e+000
    outer loop
      vertex -7.000000e+001  1.500000e+002  2.000000e+000
      vertex  4.030000e+001  9.030000e+001  2.000000e+000
      vertex  7.000000e+001  1.500000e+002  2.000000e+000
    endloop
  endfacet
  facet normal  0.000000e+000  0.000000e+000  1.000000e+000
    outer loop
      vertex -7.000000e+001 -1.500000e+002  2.000000e+000
      vertex  7.000000e+001 -1.500000e+002  2.000000e+000
      vertex  4.030000e+001  4.000000e+001  2.000000e+000
    endloop
  endfacet
  facet normal  0.000000e+000  0.000000e+000  1.000000e+000
    outer loop
      vertex -7.000000e+001 -1.500000e+002  2.000000e+000
      vertex  4.030000e+001  4.000000e+001  2.000000e+000
      vertex  2.000000e+001  4.000000e+001  2.000000e+000
    endloop
  endfacet
  facet normal  0.000000e+000  0.000000e+000  9.999999e-001
    outer loop
      vertex -7.000000e+001 -1.500000e+002  2.000000e+000
      vertex  2.000000e+001  4.000000e+001  2.000000e+000
      vertex -2.000000e+001  4.000000e+001  2.000000e+000
    endloop
  endfacet
  facet normal  0.000000e+000  0.000000e+000  1.000000e+000
    outer loop
      vertex -7.000000e+001 -1.500000e+002  2.000000e+000
      vertex -2.000000e+001  4.000000e+001  2.000000e+000
      vertex -4.030000e+001  4.000000e+001  2.000000e+000
    endloop
  endfacet
  facet normal  0.000000e+000  -0.000000e+000  1.000000e+000
    outer loop
      vertex -7.000000e+001 -1.500000e+002  2.000000e+000
      vertex -4.030000e+001  4.000000e+001  2.000000e+000
      vertex -4.030000e+001  9.030000e+001  2.000000e+000
    endloop
  endfacet
  facet normal  0.000000e+000  0.000000e+000  1.000000e+000
    outer loop
      vertex -7.000000e+001 -1.500000e+002  2.000000e+000
      vertex -4.030000e+001  9.030000e+001  2.000000e+000
      vertex -7.000000e+001  1.500000e+002  2.000000e+000
    endloop
  endfacet
  facet normal  0.000000e+000  0.000000e+000  1.000000e+000
    outer loop
      vertex -2.000000e+001  4.000000e+001  2.000000e+000
      vertex  2.000000e+001  4.000000e+001  2.000000e+000
      vertex -2.000000e+001  9.030000e+001  2.000000e+000
    endloop
  endfacet
  facet normal  -0.000000e+000  0.000000e+000  1.000000e+000
    outer loop
      vertex -2.000000e+001  9.030000e+001  2.000000e+000
      vertex  2.000000e+001  4.000000e+001  2.000000e+000
      vertex  2.000000e+001  9.030000e+001  2.000000e+000
    endloop
  endfacet
  facet normal  0.000000e+000  0.000000e+000  1.000000e+000
    outer loop
      vertex  4.030000e+001  4.000000e+001  2.000000e+000
      vertex  7.000000e+001 -1.500000e+002  2.000000e+000
      vertex  4.030000e+001  9.030000e+001  2.000000e+000
    endloop
  endfacet
  facet normal  -0.000000e+000  0.000000e+000  1.000000e+000
    outer loop
      vertex  4.030000e+001  9.030000e+001  2.000000e+000
      vertex  7.000000e+001 -1.500000e+002  2.000000e+000
      vertex  7.000000e+001  1.500000e+002  2.000000e+000
    endloop
  endfacet
  facet normal  0.000000e+000 -1.000000e+000  0.000000e+000
    outer loop
      vertex  2.000000e+001  9.030000e+001  1.000000e+000
      vertex  4.030000e+001  9.030000e+001  1.000000e+000
      vertex  2.000000e+001  9.030000e+001  2.000000e+000
    endloop
  endfacet
  facet normal  0.000000e+000 -1.000000e+000  0.000000e+000
    outer loop
      vertex  2.000000e+001  9.030000e+001  2.000000e+000
      vertex  4.030000e+001  9.030000e+001  1.000000e+000
      vertex  4.030000e+001  9.030000e+001  2.000000e+000
    endloop
  endfacet
  facet normal -9.999999e-001  0.000000e+000  0.000000e+000
    outer loop
      vertex  4.030000e+001  4.000000e+001  1.000000e+000
      vertex  4.030000e+001  4.000000e+001  2.000000e+000
      vertex  4.030000e+001  9.030000e+001  1.000000e+000
    endloop
  endfacet
  facet normal -9.999999e-001  0.000000e+000  0.000000e+000
    outer loop
      vertex  4.030000e+001  9.030000e+001  1.000000e+000
      vertex  4.030000e+001  4.000000e+001  2.000000e+000
      vertex  4.030000e+001  9.030000e+001  2.000000e+000
    endloop
  endfacet
  facet normal  0.000000e+000  1.000000e+000  0.000000e+000
    outer loop
      vertex  4.030000e+001  4.000000e+001  1.000000e+000
      vertex  2.000000e+001  4.000000e+001  1.000000e+000
      vertex  4.030000e+001  4.000000e+001  2.000000e+000
    endloop
  endfacet
  facet normal  0.000000e+000  1.000000e+000  0.000000e+000
    outer loop
      vertex  4.030000e+001  4.000000e+001  2.000000e+000
      vertex  2.000000e+001  4.000000e+001  1.000000e+000
      vertex  2.000000e+001  4.000000e+001  2.000000e+000
    endloop
  endfacet
  facet normal  9.999999e-001  0.000000e+000  0.000000e+000
    outer loop
      vertex  2.000000e+001  9.030000e+001  1.000000e+000
      vertex  2.000000e+001  9.030000e+001  2.000000e+000
      vertex  2.000000e+001  4.000000e+001  1.000000e+000
    endloop
  endfacet
  facet normal  9.999999e-001  0.000000e+000  0.000000e+000
    outer loop
      vertex  2.000000e+001  4.000000e+001  1.000000e+000
      vertex  2.000000e+001  9.030000e+001  2.000000e+000
      vertex  2.000000e+001  4.000000e+001  2.000000e+000
    endloop
  endfacet
  facet normal  0.000000e+000 -1.000000e+000  0.000000e+000
    outer loop
      vertex -4.030000e+001  9.030000e+001  1.000000e+000
      vertex -2.000000e+001  9.030000e+001  1.000000e+000
      vertex -4.030000e+001  9.030000e+001  2.000000e+000
    endloop
  endfacet
  facet normal  0.000000e+000 -1.000000e+000  0.000000e+000
    outer loop
      vertex -4.030000e+001  9.030000e+001  2.000000e+000
      vertex -2.000000e+001  9.030000e+001  1.000000e+000
      vertex -2.000000e+001  9.030000e+001  2.000000e+000
    endloop
  endfacet
  facet normal -9.999999e-001  0.000000e+000  0.000000e+000
    outer loop
      vertex -2.000000e+001  4.000000e+001  1.000000e+000
      vertex -2.000000e+001  4.000000e+001  2.000000e+000
      vertex -2.000000e+001  9.030000e+001  1.000000e+000
    endloop
  endfacet
  facet normal -9.999999e-001  0.000000e+000  0.000000e+000
    outer loop
      vertex -2.000000e+001  9.030000e+001  1.000000e+000
      vertex -2.000000e+001  4.000000e+001  2.000000e+000
      vertex -2.000000e+001  9.030000e+001  2.000000e+000
    endloop
  endfacet
  facet normal  0.000000e+000  1.000000e+000  0.000000e+000
    outer loop
      vertex -2.000000e+001  4.000000e+001  1.000000e+000
      vertex -4.030000e+001  4.000000e+001  1.000000e+000
      vertex -2.000000e+001  4.000000e+001  2.000000e+000
    endloop
  endfacet
  facet normal  0.000000e+000  1.000000e+000  0.000000e+000
    outer loop
      vertex -2.000000e+001  4.000000e+001  2.000000e+000
      vertex -4.030000e+001  4.000000e+001  1.000000e+000
      vertex -4.030000e+001  4.000000e+001  2.000000e+000
    endloop
  endfacet
  facet normal  9.999999e-001  0.000000e+000  0.000000e+000
    outer loop
      vertex -4.030000e+001  9.030000e+001  1.000000e+000
      vertex -4.030000e+001  9.030000e+001  2.000000e+000
      vertex -4.030000e+001  4.000000e+001  1.000000e+000
    endloop
  endfacet
  facet normal  9.999999e-001  0.000000e+000  0.000000e+000
    outer loop
      vertex -4.030000e+001  4.000000e+001  1.000000e+000
      vertex -4.030000e+001  9.030000e+001  2.000000e+000
      vertex -4.030000e+001  4.000000e+001  2.000000e+000
    endloop
  endfacet
  facet normal  0.000000e+000  0.000000e+000  9.999999e-001
    outer loop
      vertex  2.000000e+001  4.000000e+001  1.000000e+000
      vertex  4.030000e+001  4.000000e+001  1.000000e+000
      vertex  2.000000e+001  9.030000e+001  1.000000e+000
    endloop
  endfacet
  facet normal  -0.000000e+000  0.000000e+000  9.999999e-001
    outer loop
      vertex  2.000000e+001  9.030000e+001  1.000000e+000
      vertex  4.030000e+001  4.000000e+001  1.000000e+000
      vertex  4.030000e+001  9.030000e+001  1.000000e+000
    endloop
  endfacet
  facet normal  0.000000e+000  0.000000e+000  9.999999e-001
    outer loop
      vertex -4.030000e+001  4.000000e+001  1.000000e+000
      vertex -2.000000e+001  4.000000e+001  1.000000e+000
      vertex -4.030000e+001  9.030000e+001  1.000000e+000
    endloop
  endfacet
  facet normal  -0.000000e+000  0.000000e+000  9.999999e-001
    outer loop
      vertex -4.030000e+001  9.030000e+001  1.000000e+000
      vertex -2.000000e+001  4.000000e+001  1.000000e+000
      vertex -2.000000e+001  9.030000e+001  1.000000e+000
    endloop
  endfacet
  facet normal  0.000000e+000  0.000000e+000 -1.000000e+000
    outer loop
      vertex -7.000000e+001 -1.500000e+002  0.000000e+000
      vertex -7.000000e+001  1.500000e+002  0.000000e+000
      vertex  7.000000e+001 -1.500000e+002  0.000000e+000
    endloop
  endfacet
  facet normal  0.000000e+000  0.000000e+000 -1.000000e+000
    outer loop
      vertex  7.000000e+001 -1.500000e+002  0.000000e+000
      vertex -7.000000e+001  1.500000e+002  0.000000e+000
      vertex  7.000000e+001  1.500000e+002  0.000000e+000
    endloop
  endfacet
  facet normal  0.000000e+000  1.000000e+000  0.000000e+000
    outer loop
      vertex -7.000000e+001  1.500000e+002  2.000000e+000
      vertex  7.000000e+001  1.500000e+002  2.000000e+000
      vertex -7.000000e+001  1.500000e+002  0.000000e+000
    endloop
  endfacet
  facet normal  0.000000e+000  1.000000e+000  0.000000e+000
    outer loop
      vertex -7.000000e+001  1.500000e+002  0.000000e+000
      vertex  7.000000e+001  1.500000e+002  2.000000e+000
      vertex  7.000000e+001  1.500000e+002  0.000000e+000
    endloop
  endfacet
  facet normal  1.000000e+000  0.000000e+000  0.000000e+000
    outer loop
      vertex  7.000000e+001 -1.500000e+002  2.000000e+000
      vertex  7.000000e+001 -1.500000e+002  0.000000e+000
      vertex  7.000000e+001  1.500000e+002  2.000000e+000
    endloop
  endfacet
  facet normal  1.000000e+000  0.000000e+000  0.000000e+000
    outer loop
      vertex  7.000000e+001  1.500000e+002  2.000000e+000
      vertex  7.000000e+001 -1.500000e+002  0.000000e+000
      vertex  7.000000e+001  1.500000e+002  0.000000e+000
    endloop
  endfacet
  facet normal  0.000000e+000 -1.000000e+000  0.000000e+000
    outer loop
      vertex  7.000000e+001 -1.500000e+002  2.000000e+000
      vertex -7.000000e+001 -1.500000e+002  2.000000e+000
      vertex  7.000000e+001 -1.500000e+002  0.000000e+000
    endloop
  endfacet
  facet normal  0.000000e+000 -1.000000e+000  0.000000e+000
    outer loop
      vertex  7.000000e+001 -1.500000e+002  0.000000e+000
      vertex -7.000000e+001 -1.500000e+002  2.000000e+000
      vertex -7.000000e+001 -1.500000e+002  0.000000e+000
    endloop
  endfacet
  facet normal -1.000000e+000  0.000000e+000  0.000000e+000
    outer loop
      vertex -7.000000e+001  1.500000e+002  2.000000e+000
      vertex -7.000000e+001  1.500000e+002  0.000000e+000
      vertex -7.000000e+001 -1.500000e+002  2.000000e+000
    endloop
  endfacet
  facet normal -1.000000e+000  0.000000e+000  0.000000e+000
    outer loop
      vertex -7.000000e+001 -1.500000e+002  2.000000e+000
      vertex -7.000000e+001  1.500000e+002  0.000000e+000
      vertex -7.000000e+001 -1.500000e+002  0.000000e+000
    endloop
  endfacet
endsolid CATIA STL
