solid CATIA STL
  facet normal  -0.000000e+000 -3.269431e-001 -9.450441e-001
    outer loop
      vertex -1.000000e+000 -3.382806e+001  1.988998e+001
      vertex  1.000000e+000 -3.382806e+001  1.988998e+001
      vertex -1.000000e+000 -3.444601e+001  2.010376e+001
    endloop
  endfacet
  facet normal  0.000000e+000 -3.269431e-001 -9.450441e-001
    outer loop
      vertex -1.000000e+000 -3.444601e+001  2.010376e+001
      vertex  1.000000e+000 -3.382806e+001  1.988998e+001
      vertex  1.000000e+000 -3.444601e+001  2.010376e+001
    endloop
  endfacet
  facet normal  -0.000000e+000 -8.410391e-001 -5.409743e-001
    outer loop
      vertex -1.000000e+000 -3.444601e+001  2.010376e+001
      vertex  1.000000e+000 -3.444601e+001  2.010376e+001
      vertex -1.000000e+000 -3.479975e+001  2.065371e+001
    endloop
  endfacet
  facet normal  0.000000e+000 -8.410391e-001 -5.409743e-001
    outer loop
      vertex -1.000000e+000 -3.479975e+001  2.065371e+001
      vertex  1.000000e+000 -3.444601e+001  2.010376e+001
      vertex  1.000000e+000 -3.479975e+001  2.065371e+001
    endloop
  endfacet
  facet normal  0.000000e+000 -9.955340e-001  9.440383e-002
    outer loop
      vertex -1.000000e+000 -3.479975e+001  2.065371e+001
      vertex  1.000000e+000 -3.479975e+001  2.065371e+001
      vertex -1.000000e+000 -3.473802e+001  2.130467e+001
    endloop
  endfacet
  facet normal  0.000000e+000 -9.955340e-001  9.440383e-002
    outer loop
      vertex -1.000000e+000 -3.473802e+001  2.130467e+001
      vertex  1.000000e+000 -3.479975e+001  2.065371e+001
      vertex  1.000000e+000 -3.473802e+001  2.130467e+001
    endloop
  endfacet
  facet normal  0.000000e+000 -9.099599e-001  4.146964e-001
    outer loop
      vertex  1.000000e+000 -3.473802e+001  2.130467e+001
      vertex  1.000000e+000 -2.969241e+001  3.237614e+001
      vertex -1.000000e+000 -3.473802e+001  2.130467e+001
    endloop
  endfacet
  facet normal  3.511027e-005 -9.099623e-001  4.146911e-001
    outer loop
      vertex -1.000000e+000 -3.473802e+001  2.130467e+001
      vertex  1.000000e+000 -2.969241e+001  3.237614e+001
      vertex -3.756854e-003 -2.969927e+001  3.236118e+001
    endloop
  endfacet
  facet normal -3.527973e-005 -9.099599e-001  4.146964e-001
    outer loop
      vertex -1.000000e+000 -3.473802e+001  2.130467e+001
      vertex -3.756854e-003 -2.969927e+001  3.236118e+001
      vertex -1.000000e+000 -2.969241e+001  3.237614e+001
    endloop
  endfacet
  facet normal  0.000000e+000  0.000000e+000 -1.000000e+000
    outer loop
      vertex  1.000000e+000 -2.969242e+001  1.988998e+001
      vertex  1.000000e+000 -3.382806e+001  1.988998e+001
      vertex -3.756854e-003 -2.969927e+001  1.988998e+001
    endloop
  endfacet
  facet normal  0.000000e+000  -0.000000e+000 -1.000000e+000
    outer loop
      vertex -3.756854e-003 -2.969927e+001  1.988998e+001
      vertex  1.000000e+000 -3.382806e+001  1.988998e+001
      vertex -1.000000e+000 -3.382806e+001  1.988998e+001
    endloop
  endfacet
  facet normal  0.000000e+000  0.000000e+000 -1.000000e+000
    outer loop
      vertex -3.756854e-003 -2.969927e+001  1.988998e+001
      vertex -1.000000e+000 -3.382806e+001  1.988998e+001
      vertex -1.000000e+000 -2.969242e+001  1.988998e+001
    endloop
  endfacet
  facet normal -1.000000e+000  0.000000e+000  -0.000000e+000
    outer loop
      vertex -2.000000e+000 -3.382806e+001  2.088998e+001
      vertex -2.000000e+000 -2.966146e+001  3.003267e+001
      vertex -2.000000e+000 -2.966146e+001  2.088998e+001
    endloop
  endfacet
  facet normal -9.742339e-001 -2.255396e-001 -3.236798e-004
    outer loop
      vertex -1.492978e+001 -1.963006e+001  4.417586e+001
      vertex -1.504530e+001 -1.908581e+001  1.263307e+001
      vertex -1.460495e+001 -2.098530e+001  1.082002e+001
    endloop
  endfacet
  facet normal -7.047538e-001 -7.094440e-001 -3.388544e-003
    outer loop
      vertex -1.258125e+001 -2.570048e+001  6.000093e+000
      vertex -1.055959e+001 -2.770877e+001  6.000000e+000
      vertex -1.161108e+001 -2.685011e+001  4.491475e+001
    endloop
  endfacet
  facet normal -7.888832e-001 -6.145412e-001  1.512481e-003
    outer loop
      vertex -1.258125e+001 -2.570048e+001  6.000093e+000
      vertex -1.161108e+001 -2.685011e+001  4.491475e+001
      vertex -1.297490e+001 -2.509580e+001  4.637093e+001
    endloop
  endfacet
  facet normal -8.877895e-001 -4.602464e-001 -1.762975e-003
    outer loop
      vertex -1.258125e+001 -2.570048e+001  6.000093e+000
      vertex -1.297490e+001 -2.509580e+001  4.637093e+001
      vertex -1.364376e+001 -2.380333e+001  4.577607e+001
    endloop
  endfacet
  facet normal -8.732925e-001 -4.871962e-001 -9.032551e-005
    outer loop
      vertex -1.258125e+001 -2.570048e+001  6.000093e+000
      vertex -1.364376e+001 -2.380333e+001  4.577607e+001
      vertex -1.365996e+001 -2.376718e+001  7.419868e+000
    endloop
  endfacet
  facet normal -1.020823e-001 -9.947757e-001  6.212906e-004
    outer loop
      vertex -2.942303e+000 -2.960961e+001  3.793719e+001
      vertex -5.544640e+000 -2.934173e+001  3.925985e+001
      vertex -4.797762e+000 -2.943915e+001  6.000000e+000
    endloop
  endfacet
  facet normal -7.370255e-002 -9.972798e-001 -1.040858e-003
    outer loop
      vertex -2.942303e+000 -2.960961e+001  3.793719e+001
      vertex -4.797762e+000 -2.943915e+001  6.000000e+000
      vertex -2.000000e+000 -2.966146e+001  2.088998e+001
    endloop
  endfacet
  facet normal -5.493895e-002 -9.984897e-001  0.000000e+000
    outer loop
      vertex -2.942303e+000 -2.960961e+001  3.793719e+001
      vertex -2.000000e+000 -2.966146e+001  2.088998e+001
      vertex -2.000000e+000 -2.966146e+001  3.003267e+001
    endloop
  endfacet
  facet normal -5.150355e-002 -9.986727e-001  4.107373e-004
    outer loop
      vertex -2.942303e+000 -2.960961e+001  3.793719e+001
      vertex -2.000000e+000 -2.966146e+001  3.003267e+001
      vertex -1.972943e+000 -2.966262e+001  3.058725e+001
    endloop
  endfacet
  facet normal -4.448954e-002 -9.990089e-001  1.338217e-003
    outer loop
      vertex -2.942303e+000 -2.960961e+001  3.793719e+001
      vertex -1.972943e+000 -2.966262e+001  3.058725e+001
      vertex -1.689531e+000 -2.967368e+001  3.175231e+001
    endloop
  endfacet
  facet normal -3.664320e-002 -9.993241e-001  2.930788e-003
    outer loop
      vertex -2.942303e+000 -2.960961e+001  3.793719e+001
      vertex -1.689531e+000 -2.967368e+001  3.175231e+001
      vertex -1.408118e+000 -2.968273e+001  3.218744e+001
    endloop
  endfacet
  facet normal -3.028669e-002 -9.995305e-001  4.629494e-003
    outer loop
      vertex -2.942303e+000 -2.960961e+001  3.793719e+001
      vertex -1.408118e+000 -2.968273e+001  3.218744e+001
      vertex -1.244187e+000 -2.968710e+001  3.231480e+001
    endloop
  endfacet
  facet normal -2.341661e-002 -9.997033e-001  6.706827e-003
    outer loop
      vertex -2.942303e+000 -2.960961e+001  3.793719e+001
      vertex -1.244187e+000 -2.968710e+001  3.231480e+001
      vertex -1.000000e+000 -2.969241e+001  3.237614e+001
    endloop
  endfacet
  facet normal -6.693599e-003 -9.998989e-001  1.255057e-002
    outer loop
      vertex -2.942303e+000 -2.960961e+001  3.793719e+001
      vertex -1.000000e+000 -2.969241e+001  3.237614e+001
      vertex -3.756854e-003 -2.969927e+001  3.236118e+001
    endloop
  endfacet
  facet normal -3.049771e-002 -9.995347e-001  0.000000e+000
    outer loop
      vertex -2.942303e+000 -2.960961e+001  3.793719e+001
      vertex -3.756854e-003 -2.969927e+001  3.236118e+001
      vertex -3.756854e-003 -2.969927e+001  3.743753e+001
    endloop
  endfacet
  facet normal -5.413315e-002 -9.985338e-001 -1.601812e-005
    outer loop
      vertex -4.797762e+000 -2.943915e+001  6.000000e+000
      vertex  1.392723e-006 -2.969925e+001  6.000000e+000
      vertex -3.756854e-003 -2.969927e+001  1.988998e+001
    endloop
  endfacet
  facet normal -6.875951e-003 -9.998426e-001 -1.635094e-002
    outer loop
      vertex -4.797762e+000 -2.943915e+001  6.000000e+000
      vertex -3.756854e-003 -2.969927e+001  1.988998e+001
      vertex -1.000000e+000 -2.969242e+001  1.988998e+001
    endloop
  endfacet
  facet normal -2.305318e-002 -9.996632e-001 -1.192453e-002
    outer loop
      vertex -4.797762e+000 -2.943915e+001  6.000000e+000
      vertex -1.000000e+000 -2.969242e+001  1.988998e+001
      vertex -1.234419e+000 -2.968734e+001  1.991784e+001
    endloop
  endfacet
  facet normal -3.707919e-002 -9.992777e-001 -8.326620e-003
    outer loop
      vertex -4.797762e+000 -2.943915e+001  6.000000e+000
      vertex -1.234419e+000 -2.968734e+001  1.991784e+001
      vertex -1.811534e+000 -2.966916e+001  2.030567e+001
    endloop
  endfacet
  facet normal -5.500077e-002 -9.984758e-001 -4.572698e-003
    outer loop
      vertex -4.797762e+000 -2.943915e+001  6.000000e+000
      vertex -1.811534e+000 -2.966916e+001  2.030567e+001
      vertex -2.000000e+000 -2.966146e+001  2.088998e+001
    endloop
  endfacet
  facet normal -5.862243e-001 -8.101463e-001  2.036203e-003
    outer loop
      vertex -1.161108e+001 -2.685011e+001  4.491475e+001
      vertex -1.055959e+001 -2.770877e+001  6.000000e+000
      vertex -9.846740e+000 -2.813158e+001  4.300983e+001
    endloop
  endfacet
  facet normal -4.285921e-001 -9.034958e-001 -2.066417e-003
    outer loop
      vertex -9.846740e+000 -2.813158e+001  4.300983e+001
      vertex -1.055959e+001 -2.770877e+001  6.000000e+000
      vertex -8.452150e+000 -2.870848e+001  6.000000e+000
    endloop
  endfacet
  facet normal -3.525886e-001 -9.357775e-001  1.300724e-003
    outer loop
      vertex -9.846740e+000 -2.813158e+001  4.300983e+001
      vertex -8.452150e+000 -2.870848e+001  6.000000e+000
      vertex -7.850714e+000 -2.888639e+001  4.103867e+001
    endloop
  endfacet
  facet normal -1.960611e-001 -9.805903e-001 -1.613599e-003
    outer loop
      vertex -7.850714e+000 -2.888639e+001  4.103867e+001
      vertex -8.452150e+000 -2.870848e+001  6.000000e+000
      vertex -4.797762e+000 -2.943915e+001  6.000000e+000
    endloop
  endfacet
  facet normal -1.948271e-001 -9.808365e-001 -1.502196e-003
    outer loop
      vertex -7.850714e+000 -2.888639e+001  4.103867e+001
      vertex -4.797762e+000 -2.943915e+001  6.000000e+000
      vertex -5.544640e+000 -2.934173e+001  3.925985e+001
    endloop
  endfacet
  facet normal -9.563735e-001 -2.921357e-001  2.556044e-003
    outer loop
      vertex -1.460495e+001 -2.098530e+001  1.082002e+001
      vertex -1.411540e+001 -2.260629e+001  8.727134e+000
      vertex -1.492978e+001 -1.963006e+001  4.417586e+001
    endloop
  endfacet
  facet normal -9.269154e-001 -3.751318e-001  1.020105e-002
    outer loop
      vertex -1.492978e+001 -1.963006e+001  4.417586e+001
      vertex -1.411540e+001 -2.260629e+001  8.727134e+000
      vertex -1.365996e+001 -2.376718e+001  7.419868e+000
    endloop
  endfacet
  facet normal -9.556679e-001 -2.944468e-001  1.261058e-004
    outer loop
      vertex -1.492978e+001 -1.963006e+001  4.417586e+001
      vertex -1.365996e+001 -2.376718e+001  7.419868e+000
      vertex -1.364376e+001 -2.380333e+001  4.577607e+001
    endloop
  endfacet
  facet normal -9.928132e-001 -1.196736e-001  0.000000e+000
    outer loop
      vertex -1.600000e+001 -1.258010e+001  1.660255e+001
      vertex -1.559374e+001 -1.595047e+001  1.478363e+001
      vertex -1.600000e+001 -1.258010e+001  4.169383e+001
    endloop
  endfacet
  facet normal -9.841511e-001 -1.771800e-001  7.333147e-003
    outer loop
      vertex -1.600000e+001 -1.258010e+001  4.169383e+001
      vertex -1.559374e+001 -1.595047e+001  1.478363e+001
      vertex -1.504530e+001 -1.908581e+001  1.263307e+001
    endloop
  endfacet
  facet normal -9.887266e-001 -1.497288e-001  1.037462e-003
    outer loop
      vertex -1.600000e+001 -1.258010e+001  4.169383e+001
      vertex -1.504530e+001 -1.908581e+001  1.263307e+001
      vertex -1.492978e+001 -1.963006e+001  4.417586e+001
    endloop
  endfacet
  facet normal -3.826800e-001 -8.406945e-001  3.831301e-001
    outer loop
      vertex -1.000000e+000 -3.473802e+001  2.130467e+001
      vertex -1.000000e+000 -2.969241e+001  3.237614e+001
      vertex -1.707107e+000 -3.447150e+001  2.118321e+001
    endloop
  endfacet
  facet normal -1.193379e-001 -9.103590e-001  3.962385e-001
    outer loop
      vertex -1.707107e+000 -3.447150e+001  2.118321e+001
      vertex -1.000000e+000 -2.969241e+001  3.237614e+001
      vertex -1.244187e+000 -2.968710e+001  3.231480e+001
    endloop
  endfacet
  facet normal -4.822333e-001 -7.973975e-001  3.627786e-001
    outer loop
      vertex -1.707107e+000 -3.447150e+001  2.118321e+001
      vertex -1.244187e+000 -2.968710e+001  3.231480e+001
      vertex -1.689531e+000 -2.967368e+001  3.175231e+001
    endloop
  endfacet
  facet normal -2.121259e-002 -9.997501e-001 -7.057634e-003
    outer loop
      vertex -1.689531e+000 -2.967368e+001  3.175231e+001
      vertex -1.244187e+000 -2.968710e+001  3.231480e+001
      vertex -1.408118e+000 -2.968273e+001  3.218744e+001
    endloop
  endfacet
  facet normal -9.932126e-001 -1.058401e-001  4.823455e-002
    outer loop
      vertex -2.000000e+000 -2.966146e+001  3.003267e+001
      vertex -2.000000e+000 -3.382806e+001  2.088998e+001
      vertex -1.972943e+000 -2.966262e+001  3.058725e+001
    endloop
  endfacet
  facet normal -9.238631e-001 -3.507122e-001  1.532252e-001
    outer loop
      vertex -1.972943e+000 -2.966262e+001  3.058725e+001
      vertex -2.000000e+000 -3.382806e+001  2.088998e+001
      vertex -1.707107e+000 -3.447150e+001  2.118321e+001
    endloop
  endfacet
  facet normal -8.675810e-001 -4.522788e-001  2.067536e-001
    outer loop
      vertex -1.972943e+000 -2.966262e+001  3.058725e+001
      vertex -1.707107e+000 -3.447150e+001  2.118321e+001
      vertex -1.689531e+000 -2.967368e+001  3.175231e+001
    endloop
  endfacet
  facet normal -9.238797e-001  -0.000000e+000 -3.826830e-001
    outer loop
      vertex -2.000000e+000 -3.382806e+001  2.088998e+001
      vertex -2.000000e+000 -2.966146e+001  2.088998e+001
      vertex -1.707107e+000 -3.382806e+001  2.018287e+001
    endloop
  endfacet
  facet normal -9.516701e-001 -1.483770e-002 -3.067635e-001
    outer loop
      vertex -1.707107e+000 -3.382806e+001  2.018287e+001
      vertex -2.000000e+000 -2.966146e+001  2.088998e+001
      vertex -1.811534e+000 -2.966916e+001  2.030567e+001
    endloop
  endfacet
  facet normal -5.575117e-001  1.051231e-002 -8.301024e-001
    outer loop
      vertex -1.707107e+000 -3.382806e+001  2.018287e+001
      vertex -1.811534e+000 -2.966916e+001  2.030567e+001
      vertex -1.234419e+000 -2.968734e+001  1.991784e+001
    endloop
  endfacet
  facet normal -1.180350e-001  0.000000e+000 -9.930094e-001
    outer loop
      vertex -1.000000e+000 -2.969242e+001  1.988998e+001
      vertex -1.000000e+000 -3.382806e+001  1.988998e+001
      vertex -1.234419e+000 -2.968734e+001  1.991784e+001
    endloop
  endfacet
  facet normal -3.826369e-001 -1.544590e-002 -9.237697e-001
    outer loop
      vertex -1.234419e+000 -2.968734e+001  1.991784e+001
      vertex -1.000000e+000 -3.382806e+001  1.988998e+001
      vertex -1.707107e+000 -3.382806e+001  2.018287e+001
    endloop
  endfacet
  facet normal -9.043643e-001 -2.044513e-001 -3.745995e-001
    outer loop
      vertex -2.000000e+000 -3.382806e+001  2.088998e+001
      vertex -1.707107e+000 -3.382806e+001  2.018287e+001
      vertex -1.707107e+000 -3.442276e+001  2.050745e+001
    endloop
  endfacet
  facet normal -9.043642e-001 -4.256558e-001 -3.069876e-002
    outer loop
      vertex -2.000000e+000 -3.382806e+001  2.088998e+001
      vertex -1.707107e+000 -3.442276e+001  2.050745e+001
      vertex -1.707107e+000 -3.447150e+001  2.118321e+001
    endloop
  endfacet
  facet normal -4.591665e-001 -8.860489e-001 -6.390282e-002
    outer loop
      vertex -1.000000e+000 -3.479975e+001  2.065371e+001
      vertex -1.707107e+000 -3.447150e+001  2.118321e+001
      vertex -1.707107e+000 -3.442276e+001  2.050745e+001
    endloop
  endfacet
  facet normal -3.645134e-001 -9.270394e-001  8.790867e-002
    outer loop
      vertex -1.000000e+000 -3.473802e+001  2.130467e+001
      vertex -1.707107e+000 -3.447150e+001  2.118321e+001
      vertex -1.000000e+000 -3.479975e+001  2.065371e+001
    endloop
  endfacet
  facet normal -3.417000e-001 -4.502405e-001 -8.249391e-001
    outer loop
      vertex -1.707107e+000 -3.382806e+001  2.018287e+001
      vertex -1.000000e+000 -3.382806e+001  1.988998e+001
      vertex -1.707107e+000 -3.442276e+001  2.050745e+001
    endloop
  endfacet
  facet normal -4.821059e-001 -2.864390e-001 -8.279653e-001
    outer loop
      vertex -1.707107e+000 -3.442276e+001  2.050745e+001
      vertex -1.000000e+000 -3.382806e+001  1.988998e+001
      vertex -1.000000e+000 -3.444601e+001  2.010376e+001
    endloop
  endfacet
  facet normal -3.189229e-001 -7.971206e-001 -5.127249e-001
    outer loop
      vertex -1.707107e+000 -3.442276e+001  2.050745e+001
      vertex -1.000000e+000 -3.444601e+001  2.010376e+001
      vertex -1.000000e+000 -3.479975e+001  2.065371e+001
    endloop
  endfacet
  facet normal  1.000000e+000  0.000000e+000  0.000000e+000
    outer loop
      vertex  2.000000e+000 -2.966146e+001  2.088998e+001
      vertex  2.000000e+000 -2.966146e+001  3.003267e+001
      vertex  2.000000e+000 -3.382806e+001  2.088998e+001
    endloop
  endfacet
  facet normal  4.830145e-001 -8.756003e-001 -4.573366e-003
    outer loop
      vertex  8.447163e+000 -2.871010e+001  6.000000e+000
      vertex  1.130843e+001 -2.713172e+001  6.000000e+000
      vertex  9.837906e+000 -2.813618e+001  4.300049e+001
    endloop
  endfacet
  facet normal  5.855426e-001 -8.106408e-001  1.264927e-003
    outer loop
      vertex  9.837906e+000 -2.813618e+001  4.300049e+001
      vertex  1.130843e+001 -2.713172e+001  6.000000e+000
      vertex  1.160223e+001 -2.685879e+001  4.490514e+001
    endloop
  endfacet
  facet normal  9.742339e-001 -2.255396e-001 -3.236798e-004
    outer loop
      vertex  1.460495e+001 -2.098530e+001  1.082002e+001
      vertex  1.504530e+001 -1.908581e+001  1.263307e+001
      vertex  1.492978e+001 -1.963006e+001  4.417586e+001
    endloop
  endfacet
  facet normal  3.032873e-002 -9.995400e-001  0.000000e+000
    outer loop
      vertex  2.934959e+000 -2.961010e+001  3.793455e+001
      vertex -3.756854e-003 -2.969927e+001  3.743753e+001
      vertex -3.756854e-003 -2.969927e+001  3.236118e+001
    endloop
  endfacet
  facet normal  6.644343e-003 -9.998998e-001  1.249403e-002
    outer loop
      vertex  2.934959e+000 -2.961010e+001  3.793455e+001
      vertex -3.756854e-003 -2.969927e+001  3.236118e+001
      vertex  1.000000e+000 -2.969241e+001  3.237614e+001
    endloop
  endfacet
  facet normal  1.917072e-002 -9.997832e-001  8.131689e-003
    outer loop
      vertex  2.934959e+000 -2.961010e+001  3.793455e+001
      vertex  1.000000e+000 -2.969241e+001  3.237614e+001
      vertex  1.037146e+000 -2.969170e+001  3.237604e+001
    endloop
  endfacet
  facet normal  2.564592e-002 -9.996536e-001  5.918992e-003
    outer loop
      vertex  2.934959e+000 -2.961010e+001  3.793455e+001
      vertex  1.037146e+000 -2.969170e+001  3.237604e+001
      vertex  1.330706e+000 -2.968487e+001  3.225700e+001
    endloop
  endfacet
  facet normal  3.383943e-002 -9.994208e-001  3.600760e-003
    outer loop
      vertex  2.934959e+000 -2.961010e+001  3.793455e+001
      vertex  1.330706e+000 -2.968487e+001  3.225700e+001
      vertex  1.567539e+000 -2.967785e+001  3.198213e+001
    endloop
  endfacet
  facet normal  4.024976e-002 -9.991874e-001  2.125490e-003
    outer loop
      vertex  2.934959e+000 -2.961010e+001  3.793455e+001
      vertex  1.567539e+000 -2.967785e+001  3.198213e+001
      vertex  1.803977e+000 -2.966945e+001  3.144908e+001
    endloop
  endfacet
  facet normal  4.726340e-002 -9.988821e-001  8.996080e-004
    outer loop
      vertex  2.934959e+000 -2.961010e+001  3.793455e+001
      vertex  1.803977e+000 -2.966945e+001  3.144908e+001
      vertex  2.000000e+000 -2.966146e+001  3.003267e+001
    endloop
  endfacet
  facet normal  5.484523e-002 -9.984949e-001  0.000000e+000
    outer loop
      vertex  2.934959e+000 -2.961010e+001  3.793455e+001
      vertex  2.000000e+000 -2.966146e+001  3.003267e+001
      vertex  2.000000e+000 -2.966146e+001  2.088998e+001
    endloop
  endfacet
  facet normal  7.366741e-002 -9.972824e-001 -1.036121e-003
    outer loop
      vertex  2.934959e+000 -2.961010e+001  3.793455e+001
      vertex  2.000000e+000 -2.966146e+001  2.088998e+001
      vertex  4.793917e+000 -2.943960e+001  6.000000e+000
    endloop
  endfacet
  facet normal  1.018609e-001 -9.947985e-001  6.183241e-004
    outer loop
      vertex  2.934959e+000 -2.961010e+001  3.793455e+001
      vertex  4.793917e+000 -2.943960e+001  6.000000e+000
      vertex  5.536492e+000 -2.934290e+001  3.925457e+001
    endloop
  endfacet
  facet normal  6.881244e-002 -9.976277e-001 -1.952240e-003
    outer loop
      vertex  4.793917e+000 -2.943960e+001  6.000000e+000
      vertex  2.000000e+000 -2.966146e+001  2.088998e+001
      vertex  1.988729e+000 -2.966194e+001  2.074026e+001
    endloop
  endfacet
  facet normal  4.908160e-002 -9.987785e-001 -5.724533e-003
    outer loop
      vertex  4.793917e+000 -2.943960e+001  6.000000e+000
      vertex  1.988729e+000 -2.966194e+001  2.074026e+001
      vertex  1.651787e+000 -2.967501e+001  2.013157e+001
    endloop
  endfacet
  facet normal  3.036401e-002 -9.994899e-001 -9.898207e-003
    outer loop
      vertex  4.793917e+000 -2.943960e+001  6.000000e+000
      vertex  1.651787e+000 -2.967501e+001  2.013157e+001
      vertex  1.000000e+000 -2.969242e+001  1.988998e+001
    endloop
  endfacet
  facet normal  6.824485e-003 -9.998434e-001 -1.633424e-002
    outer loop
      vertex  4.793917e+000 -2.943960e+001  6.000000e+000
      vertex  1.000000e+000 -2.969242e+001  1.988998e+001
      vertex -3.756854e-003 -2.969927e+001  1.988998e+001
    endloop
  endfacet
  facet normal  5.408219e-002 -9.985365e-001  1.326199e-005
    outer loop
      vertex  4.793917e+000 -2.943960e+001  6.000000e+000
      vertex -3.756854e-003 -2.969927e+001  1.988998e+001
      vertex  1.392723e-006 -2.969925e+001  6.000000e+000
    endloop
  endfacet
  facet normal  1.943846e-001 -9.809242e-001 -1.488079e-003
    outer loop
      vertex  5.536492e+000 -2.934290e+001  3.925457e+001
      vertex  4.793917e+000 -2.943960e+001  6.000000e+000
      vertex  7.842155e+000 -2.888869e+001  4.103099e+001
    endloop
  endfacet
  facet normal  1.958192e-001 -9.806387e-001 -1.617400e-003
    outer loop
      vertex  7.842155e+000 -2.888869e+001  4.103099e+001
      vertex  4.793917e+000 -2.943960e+001  6.000000e+000
      vertex  8.447163e+000 -2.871010e+001  6.000000e+000
    endloop
  endfacet
  facet normal  3.516877e-001 -9.361166e-001  1.301522e-003
    outer loop
      vertex  7.842155e+000 -2.888869e+001  4.103099e+001
      vertex  8.447163e+000 -2.871010e+001  6.000000e+000
      vertex  9.837906e+000 -2.813618e+001  4.300049e+001
    endloop
  endfacet
  facet normal  7.897050e-001 -6.134845e-001 -1.659914e-003
    outer loop
      vertex  1.160223e+001 -2.685879e+001  4.490514e+001
      vertex  1.130843e+001 -2.713172e+001  6.000000e+000
      vertex  1.297490e+001 -2.509580e+001  4.637093e+001
    endloop
  endfacet
  facet normal  7.472489e-001 -6.645390e-001  2.667313e-003
    outer loop
      vertex  1.297490e+001 -2.509580e+001  4.637093e+001
      vertex  1.130843e+001 -2.713172e+001  6.000000e+000
      vertex  1.258125e+001 -2.570048e+001  6.000093e+000
    endloop
  endfacet
  facet normal  8.877898e-001 -4.602459e-001 -1.763005e-003
    outer loop
      vertex  1.297490e+001 -2.509580e+001  4.637093e+001
      vertex  1.258125e+001 -2.570048e+001  6.000093e+000
      vertex  1.364376e+001 -2.380333e+001  4.577607e+001
    endloop
  endfacet
  facet normal  8.732925e-001 -4.871962e-001 -9.032551e-005
    outer loop
      vertex  1.364376e+001 -2.380333e+001  4.577607e+001
      vertex  1.258125e+001 -2.570048e+001  6.000093e+000
      vertex  1.365996e+001 -2.376718e+001  7.419868e+000
    endloop
  endfacet
  facet normal  9.556679e-001 -2.944468e-001  1.261058e-004
    outer loop
      vertex  1.364376e+001 -2.380333e+001  4.577607e+001
      vertex  1.365996e+001 -2.376718e+001  7.419868e+000
      vertex  1.492978e+001 -1.963006e+001  4.417586e+001
    endloop
  endfacet
  facet normal  9.269154e-001 -3.751318e-001  1.020105e-002
    outer loop
      vertex  1.492978e+001 -1.963006e+001  4.417586e+001
      vertex  1.365996e+001 -2.376718e+001  7.419868e+000
      vertex  1.411540e+001 -2.260629e+001  8.727134e+000
    endloop
  endfacet
  facet normal  9.563735e-001 -2.921357e-001  2.556044e-003
    outer loop
      vertex  1.492978e+001 -1.963006e+001  4.417586e+001
      vertex  1.411540e+001 -2.260629e+001  8.727134e+000
      vertex  1.460495e+001 -2.098530e+001  1.082002e+001
    endloop
  endfacet
  facet normal  9.887266e-001 -1.497288e-001  1.037462e-003
    outer loop
      vertex  1.492978e+001 -1.963006e+001  4.417586e+001
      vertex  1.504530e+001 -1.908581e+001  1.263307e+001
      vertex  1.600000e+001 -1.258010e+001  4.169383e+001
    endloop
  endfacet
  facet normal  9.841511e-001 -1.771800e-001  7.333147e-003
    outer loop
      vertex  1.600000e+001 -1.258010e+001  4.169383e+001
      vertex  1.504530e+001 -1.908581e+001  1.263307e+001
      vertex  1.559374e+001 -1.595047e+001  1.478363e+001
    endloop
  endfacet
  facet normal  9.928132e-001 -1.196736e-001  0.000000e+000
    outer loop
      vertex  1.600000e+001 -1.258010e+001  4.169383e+001
      vertex  1.559374e+001 -1.595047e+001  1.478363e+001
      vertex  1.600000e+001 -1.258010e+001  1.660255e+001
    endloop
  endfacet
  facet normal  9.238798e-001 -3.482261e-001  1.586972e-001
    outer loop
      vertex  1.707107e+000 -3.447150e+001  2.118321e+001
      vertex  2.000000e+000 -3.382806e+001  2.088998e+001
      vertex  2.000000e+000 -2.966146e+001  3.003267e+001
    endloop
  endfacet
  facet normal  9.465284e-001 -2.955658e-001  1.293246e-001
    outer loop
      vertex  1.707107e+000 -3.447150e+001  2.118321e+001
      vertex  2.000000e+000 -2.966146e+001  3.003267e+001
      vertex  1.803977e+000 -2.966945e+001  3.144908e+001
    endloop
  endfacet
  facet normal  6.964536e-001 -6.525039e-001  2.986487e-001
    outer loop
      vertex  1.707107e+000 -3.447150e+001  2.118321e+001
      vertex  1.803977e+000 -2.966945e+001  3.144908e+001
      vertex  1.567539e+000 -2.967785e+001  3.198213e+001
    endloop
  endfacet
  facet normal  4.502565e-001 -8.139336e-001  3.671256e-001
    outer loop
      vertex  1.707107e+000 -3.447150e+001  2.118321e+001
      vertex  1.567539e+000 -2.967785e+001  3.198213e+001
      vertex  1.330706e+000 -2.968487e+001  3.225700e+001
    endloop
  endfacet
  facet normal  1.812646e-001 -9.004539e-001  3.953808e-001
    outer loop
      vertex  1.707107e+000 -3.447150e+001  2.118321e+001
      vertex  1.330706e+000 -2.968487e+001  3.225700e+001
      vertex  1.037146e+000 -2.969170e+001  3.237604e+001
    endloop
  endfacet
  facet normal  1.869405e-002 -9.190884e-001  3.936076e-001
    outer loop
      vertex  1.707107e+000 -3.447150e+001  2.118321e+001
      vertex  1.037146e+000 -2.969170e+001  3.237604e+001
      vertex  1.000000e+000 -2.969241e+001  3.237614e+001
    endloop
  endfacet
  facet normal  3.826800e-001 -8.406945e-001  3.831301e-001
    outer loop
      vertex  1.707107e+000 -3.447150e+001  2.118321e+001
      vertex  1.000000e+000 -2.969241e+001  3.237614e+001
      vertex  1.000000e+000 -3.473802e+001  2.130467e+001
    endloop
  endfacet
  facet normal  9.971782e-001  0.000000e+000 -7.507102e-002
    outer loop
      vertex  2.000000e+000 -2.966146e+001  2.088998e+001
      vertex  2.000000e+000 -3.382806e+001  2.088998e+001
      vertex  1.988729e+000 -2.966194e+001  2.074026e+001
    endloop
  endfacet
  facet normal  9.238212e-001 -1.125220e-002 -3.826588e-001
    outer loop
      vertex  1.988729e+000 -2.966194e+001  2.074026e+001
      vertex  2.000000e+000 -3.382806e+001  2.088998e+001
      vertex  1.707107e+000 -3.382806e+001  2.018287e+001
    endloop
  endfacet
  facet normal  8.748330e-001  5.670225e-003 -4.843914e-001
    outer loop
      vertex  1.988729e+000 -2.966194e+001  2.074026e+001
      vertex  1.707107e+000 -3.382806e+001  2.018287e+001
      vertex  1.651787e+000 -2.967501e+001  2.013157e+001
    endloop
  endfacet
  facet normal  3.826825e-001  0.000000e+000 -9.238799e-001
    outer loop
      vertex  1.000000e+000 -3.382806e+001  1.988998e+001
      vertex  1.000000e+000 -2.969242e+001  1.988998e+001
      vertex  1.707107e+000 -3.382806e+001  2.018287e+001
    endloop
  endfacet
  facet normal  3.477163e-001 -6.948328e-003 -9.375741e-001
    outer loop
      vertex  1.707107e+000 -3.382806e+001  2.018287e+001
      vertex  1.000000e+000 -2.969242e+001  1.988998e+001
      vertex  1.651787e+000 -2.967501e+001  2.013157e+001
    endloop
  endfacet
  facet normal  9.043642e-001 -4.256558e-001 -3.069876e-002
    outer loop
      vertex  2.000000e+000 -3.382806e+001  2.088998e+001
      vertex  1.707107e+000 -3.447150e+001  2.118321e+001
      vertex  1.707107e+000 -3.442276e+001  2.050745e+001
    endloop
  endfacet
  facet normal  9.043643e-001 -2.044513e-001 -3.745995e-001
    outer loop
      vertex  2.000000e+000 -3.382806e+001  2.088998e+001
      vertex  1.707107e+000 -3.442276e+001  2.050745e+001
      vertex  1.707107e+000 -3.382806e+001  2.018287e+001
    endloop
  endfacet
  facet normal  4.591658e-001 -4.255880e-001 -7.797703e-001
    outer loop
      vertex  1.000000e+000 -3.444601e+001  2.010376e+001
      vertex  1.707107e+000 -3.382806e+001  2.018287e+001
      vertex  1.707107e+000 -3.442276e+001  2.050745e+001
    endloop
  endfacet
  facet normal  3.645162e-001 -3.044484e-001 -8.800222e-001
    outer loop
      vertex  1.000000e+000 -3.382806e+001  1.988998e+001
      vertex  1.707107e+000 -3.382806e+001  2.018287e+001
      vertex  1.000000e+000 -3.444601e+001  2.010376e+001
    endloop
  endfacet
  facet normal  3.416963e-001 -9.373757e-001 -6.760456e-002
    outer loop
      vertex  1.707107e+000 -3.447150e+001  2.118321e+001
      vertex  1.000000e+000 -3.473802e+001  2.130467e+001
      vertex  1.707107e+000 -3.442276e+001  2.050745e+001
    endloop
  endfacet
  facet normal  4.821074e-001 -8.721994e-001  8.270834e-002
    outer loop
      vertex  1.707107e+000 -3.442276e+001  2.050745e+001
      vertex  1.000000e+000 -3.473802e+001  2.130467e+001
      vertex  1.000000e+000 -3.479975e+001  2.065371e+001
    endloop
  endfacet
  facet normal  3.189229e-001 -7.971206e-001 -5.127249e-001
    outer loop
      vertex  1.707107e+000 -3.442276e+001  2.050745e+001
      vertex  1.000000e+000 -3.479975e+001  2.065371e+001
      vertex  1.000000e+000 -3.444601e+001  2.010376e+001
    endloop
  endfacet
  facet normal  3.446375e-001  -0.000000e+000  9.387359e-001
    outer loop
      vertex  9.784376e+000  5.634546e+000  4.800000e+001
      vertex  9.784376e+000 -1.942632e+001  4.800000e+001
      vertex  1.117311e+001  6.698397e+000  4.749015e+001
    endloop
  endfacet
  facet normal  3.378628e-001  4.081341e-004  9.411954e-001
    outer loop
      vertex  1.117311e+001  6.698397e+000  4.749015e+001
      vertex  9.784376e+000 -1.942632e+001  4.800000e+001
      vertex  1.104300e+001 -2.231353e+001  4.754944e+001
    endloop
  endfacet
  facet normal  5.166550e-001 -5.674324e-004  8.561935e-001
    outer loop
      vertex  1.117311e+001  6.698397e+000  4.749015e+001
      vertex  1.104300e+001 -2.231353e+001  4.754944e+001
      vertex  1.280119e+001  5.091537e+000  4.650665e+001
    endloop
  endfacet
  facet normal  5.198835e-001 -8.490154e-004  8.542367e-001
    outer loop
      vertex  1.280119e+001  5.091537e+000  4.650665e+001
      vertex  1.104300e+001 -2.231353e+001  4.754944e+001
      vertex  1.297490e+001 -2.509580e+001  4.637093e+001
    endloop
  endfacet
  facet normal  7.055556e-001  8.739174e-004  7.086540e-001
    outer loop
      vertex  1.280119e+001  5.091537e+000  4.650665e+001
      vertex  1.297490e+001 -2.509580e+001  4.637093e+001
      vertex  1.443715e+001  1.918153e+000  4.488176e+001
    endloop
  endfacet
  facet normal  6.581921e-001  5.872773e-003  7.528272e-001
    outer loop
      vertex  1.443715e+001  1.918153e+000  4.488176e+001
      vertex  1.297490e+001 -2.509580e+001  4.637093e+001
      vertex  1.364376e+001 -2.380333e+001  4.577607e+001
    endloop
  endfacet
  facet normal  7.826464e-001 -2.498769e-003  6.224614e-001
    outer loop
      vertex  1.443715e+001  1.918153e+000  4.488176e+001
      vertex  1.364376e+001 -2.380333e+001  4.577607e+001
      vertex  1.492978e+001 -1.963006e+001  4.417586e+001
    endloop
  endfacet
  facet normal  8.588879e-001  2.857768e-003  5.121557e-001
    outer loop
      vertex  1.443715e+001  1.918153e+000  4.488176e+001
      vertex  1.492978e+001 -1.963006e+001  4.417586e+001
      vertex  1.547643e+001 -2.664054e+000  4.316445e+001
    endloop
  endfacet
  facet normal  9.255816e-001 -7.260157e-003  3.784785e-001
    outer loop
      vertex  1.547643e+001 -2.664054e+000  4.316445e+001
      vertex  1.492978e+001 -1.963006e+001  4.417586e+001
      vertex  1.600000e+001 -1.258010e+001  4.169383e+001
    endloop
  endfacet
  facet normal  9.420768e-001  -0.000000e+000  3.353974e-001
    outer loop
      vertex  1.547643e+001 -2.664054e+000  4.316445e+001
      vertex  1.600000e+001 -1.258010e+001  4.169383e+001
      vertex  1.600000e+001 -7.255691e+000  4.169383e+001
    endloop
  endfacet
  facet normal  9.935618e-001  1.132921e-001  -0.000000e+000
    outer loop
      vertex  1.600000e+001 -7.255691e+000  4.169383e+001
      vertex  1.600000e+001 -7.255691e+000  1.660255e+001
      vertex  1.547643e+001 -2.664054e+000  4.316445e+001
    endloop
  endfacet
  facet normal  9.949874e-001  9.997279e-002  2.330558e-003
    outer loop
      vertex  1.547643e+001 -2.664054e+000  4.316445e+001
      vertex  1.600000e+001 -7.255691e+000  1.660255e+001
      vertex  1.570437e+001 -4.281777e+000  1.524627e+001
    endloop
  endfacet
  facet normal  9.886715e-001  1.500950e-001 -6.253450e-004
    outer loop
      vertex  1.547643e+001 -2.664054e+000  4.316445e+001
      vertex  1.570437e+001 -4.281777e+000  1.524627e+001
      vertex  1.528164e+001 -1.504365e+000  1.354789e+001
    endloop
  endfacet
  facet normal  9.754071e-001  2.204000e-001  2.214815e-003
    outer loop
      vertex  1.547643e+001 -2.664054e+000  4.316445e+001
      vertex  1.528164e+001 -1.504365e+000  1.354789e+001
      vertex  1.443715e+001  1.918153e+000  4.488176e+001
    endloop
  endfacet
  facet normal  9.709237e-001  2.393894e-001  1.981586e-005
    outer loop
      vertex  1.443715e+001  1.918153e+000  4.488176e+001
      vertex  1.528164e+001 -1.504365e+000  1.354789e+001
      vertex  1.443994e+001  1.909731e+000  1.008793e+001
    endloop
  endfacet
  facet normal  8.888310e-001  4.582352e-001 -3.973165e-005
    outer loop
      vertex  1.443715e+001  1.918153e+000  4.488176e+001
      vertex  1.443994e+001  1.909731e+000  1.008793e+001
      vertex  1.280119e+001  5.091537e+000  4.650665e+001
    endloop
  endfacet
  facet normal  9.181599e-001  3.961532e-001  6.703937e-003
    outer loop
      vertex  1.280119e+001  5.091537e+000  4.650665e+001
      vertex  1.443994e+001  1.909731e+000  1.008793e+001
      vertex  1.370574e+001  3.654832e+000  7.520092e+000
    endloop
  endfacet
  facet normal  8.568637e-001  5.155424e-001  8.821290e-004
    outer loop
      vertex  1.280119e+001  5.091537e+000  4.650665e+001
      vertex  1.370574e+001  3.654832e+000  7.520092e+000
      vertex  1.303761e+001  4.767126e+000  6.450915e+000
    endloop
  endfacet
  facet normal  7.019550e-001  7.122194e-001 -1.625080e-003
    outer loop
      vertex  1.280119e+001  5.091537e+000  4.650665e+001
      vertex  1.303761e+001  4.767126e+000  6.450915e+000
      vertex  1.117311e+001  6.698397e+000  4.749015e+001
    endloop
  endfacet
  facet normal  7.495798e-001  6.619076e-001  2.906258e-003
    outer loop
      vertex  1.117311e+001  6.698397e+000  4.749015e+001
      vertex  1.303761e+001  4.767126e+000  6.450915e+000
      vertex  1.174098e+001  6.240038e+000  5.417146e+000
    endloop
  endfacet
  facet normal  4.716865e-001  8.817603e-001 -3.239715e-003
    outer loop
      vertex  1.117311e+001  6.698397e+000  4.749015e+001
      vertex  1.174098e+001  6.240038e+000  5.417146e+000
      vertex  9.472352e+000  7.604492e+000  4.648165e+001
    endloop
  endfacet
  facet normal  5.508921e-001  8.345721e-001  2.703971e-003
    outer loop
      vertex  9.472352e+000  7.604492e+000  4.648165e+001
      vertex  1.174098e+001  6.240038e+000  5.417146e+000
      vertex  1.001996e+001  7.378634e+000  4.625801e+000
    endloop
  endfacet
  facet normal  2.302582e-001  9.731271e-001 -2.238579e-003
    outer loop
      vertex  9.472352e+000  7.604492e+000  4.648165e+001
      vertex  1.001996e+001  7.378634e+000  4.625801e+000
      vertex  7.789897e+000  8.000000e+000  4.535632e+001
    endloop
  endfacet
  facet normal  2.684077e-001  9.633055e-001  0.000000e+000
    outer loop
      vertex  7.789897e+000  8.000000e+000  4.535632e+001
      vertex  1.001996e+001  7.378634e+000  4.625801e+000
      vertex  7.789897e+000  8.000000e+000  3.553725e+000
    endloop
  endfacet
  facet normal -3.370329e-001  0.000000e+000  9.414928e-001
    outer loop
      vertex -9.784376e+000 -1.942632e+001  4.800000e+001
      vertex -9.784376e+000  5.634546e+000  4.800000e+001
      vertex -1.104300e+001 -2.231353e+001  4.754944e+001
    endloop
  endfacet
  facet normal -3.443850e-001  3.740457e-004  9.388283e-001
    outer loop
      vertex -1.104300e+001 -2.231353e+001  4.754944e+001
      vertex -9.784376e+000  5.634546e+000  4.800000e+001
      vertex -1.117311e+001  6.698397e+000  4.749015e+001
    endloop
  endfacet
  facet normal -5.201585e-001 -5.874862e-004  8.540695e-001
    outer loop
      vertex -1.104300e+001 -2.231353e+001  4.754944e+001
      vertex -1.117311e+001  6.698397e+000  4.749015e+001
      vertex -1.297490e+001 -2.509580e+001  4.637093e+001
    endloop
  endfacet
  facet normal -4.696733e-001 -4.460895e-003  8.828291e-001
    outer loop
      vertex -1.297490e+001 -2.509580e+001  4.637093e+001
      vertex -1.117311e+001  6.698397e+000  4.749015e+001
      vertex -1.205545e+001  5.944017e+000  4.701693e+001
    endloop
  endfacet
  facet normal -6.603068e-001  3.929856e-003  7.509856e-001
    outer loop
      vertex -1.297490e+001 -2.509580e+001  4.637093e+001
      vertex -1.205545e+001  5.944017e+000  4.701693e+001
      vertex -1.364376e+001 -2.380333e+001  4.577607e+001
    endloop
  endfacet
  facet normal -6.012625e-001 -1.227664e-003  7.990506e-001
    outer loop
      vertex -1.364376e+001 -2.380333e+001  4.577607e+001
      vertex -1.205545e+001  5.944017e+000  4.701693e+001
      vertex -1.342804e+001  4.157281e+000  4.598135e+001
    endloop
  endfacet
  facet normal -7.777095e-001  1.384937e-003  6.286224e-001
    outer loop
      vertex -1.364376e+001 -2.380333e+001  4.577607e+001
      vertex -1.342804e+001  4.157281e+000  4.598135e+001
      vertex -1.492978e+001 -1.963006e+001  4.417586e+001
    endloop
  endfacet
  facet normal -7.310085e-001 -5.641039e-003  6.823452e-001
    outer loop
      vertex -1.492978e+001 -1.963006e+001  4.417586e+001
      vertex -1.342804e+001  4.157281e+000  4.598135e+001
      vertex -1.443715e+001  1.918153e+000  4.488176e+001
    endloop
  endfacet
  facet normal -8.213636e-001  9.169488e-005  5.704051e-001
    outer loop
      vertex -1.492978e+001 -1.963006e+001  4.417586e+001
      vertex -1.443715e+001  1.918153e+000  4.488176e+001
      vertex -1.494953e+001  1.080880e-001  4.414424e+001
    endloop
  endfacet
  facet normal -9.185679e-001 -2.861673e-004  3.952632e-001
    outer loop
      vertex -1.492978e+001 -1.963006e+001  4.417586e+001
      vertex -1.494953e+001  1.080880e-001  4.414424e+001
      vertex -1.600000e+001 -1.258010e+001  4.169383e+001
    endloop
  endfacet
  facet normal -8.504661e-001 -3.100207e-002  5.251154e-001
    outer loop
      vertex -1.600000e+001 -1.258010e+001  4.169383e+001
      vertex -1.494953e+001  1.080880e-001  4.414424e+001
      vertex -1.561299e+001 -3.593106e+000  4.285120e+001
    endloop
  endfacet
  facet normal -9.483836e-001  0.000000e+000  3.171255e-001
    outer loop
      vertex -1.600000e+001 -1.258010e+001  4.169383e+001
      vertex -1.561299e+001 -3.593106e+000  4.285120e+001
      vertex -1.600000e+001 -7.255691e+000  4.169383e+001
    endloop
  endfacet
  facet normal  0.000000e+000  1.000000e+000  0.000000e+000
    outer loop
      vertex -1.136342e-001  8.000000e+000  0.000000e+000
      vertex -1.136342e-001  8.000000e+000  4.535632e+001
      vertex  1.136342e-001  8.000000e+000  0.000000e+000
    endloop
  endfacet
  facet normal  0.000000e+000  1.000000e+000  -0.000000e+000
    outer loop
      vertex  1.136342e-001  8.000000e+000  0.000000e+000
      vertex -1.136342e-001  8.000000e+000  4.535632e+001
      vertex  1.136342e-001  8.000000e+000  4.535632e+001
    endloop
  endfacet
  facet normal -2.658641e-002  9.996466e-001  0.000000e+000
    outer loop
      vertex -1.136342e-001  8.000000e+000  4.535632e+001
      vertex -1.136342e-001  8.000000e+000  0.000000e+000
      vertex -1.910123e+000  7.952221e+000  4.560188e+001
    endloop
  endfacet
  facet normal  0.000000e+000  9.999994e-001  1.047743e-003
    outer loop
      vertex -1.910123e+000  7.952221e+000  4.560188e+001
      vertex -1.136342e-001  8.000000e+000  0.000000e+000
      vertex -3.722938e+000  8.000000e+000  0.000000e+000
    endloop
  endfacet
  facet normal  2.634715e-002  9.996529e-001  -0.000000e+000
    outer loop
      vertex -1.910123e+000  7.952221e+000  4.560188e+001
      vertex -3.722938e+000  8.000000e+000  0.000000e+000
      vertex -3.722938e+000  8.000000e+000  4.535632e+001
    endloop
  endfacet
  facet normal -1.624621e-002  9.998680e-001  0.000000e+000
    outer loop
      vertex  3.722938e+000  8.000000e+000  4.535632e+001
      vertex  3.722938e+000  8.000000e+000  0.000000e+000
      vertex  1.184851e+000  7.958760e+000  4.557345e+001
    endloop
  endfacet
  facet normal  0.000000e+000  9.999995e-001  9.049067e-004
    outer loop
      vertex  1.184851e+000  7.958760e+000  4.557345e+001
      vertex  3.722938e+000  8.000000e+000  0.000000e+000
      vertex  1.136342e-001  8.000000e+000  0.000000e+000
    endloop
  endfacet
  facet normal  3.846954e-002  9.992598e-001  -0.000000e+000
    outer loop
      vertex  1.184851e+000  7.958760e+000  4.557345e+001
      vertex  1.136342e-001  8.000000e+000  0.000000e+000
      vertex  1.136342e-001  8.000000e+000  4.535632e+001
    endloop
  endfacet
  facet normal  0.000000e+000  1.000000e+000  -0.000000e+000
    outer loop
      vertex -3.722938e+000  8.000000e+000  0.000000e+000
      vertex -5.726310e+000  8.000000e+000 -1.110223e-016
      vertex -6.092410e+000  8.000000e+000  1.787161e+000
    endloop
  endfacet
  facet normal  -0.000000e+000  1.000000e+000  -0.000000e+000
    outer loop
      vertex -3.722938e+000  8.000000e+000  0.000000e+000
      vertex -6.092410e+000  8.000000e+000  1.787161e+000
      vertex -7.695538e+000  8.000000e+000  3.491690e+000
    endloop
  endfacet
  facet normal  -0.000000e+000  1.000000e+000  0.000000e+000
    outer loop
      vertex -3.722938e+000  8.000000e+000  0.000000e+000
      vertex -7.695538e+000  8.000000e+000  3.491690e+000
      vertex -3.722938e+000  8.000000e+000  4.535632e+001
    endloop
  endfacet
  facet normal  0.000000e+000  1.000000e+000  0.000000e+000
    outer loop
      vertex -7.789897e+000  8.000000e+000  3.553725e+000
      vertex -7.789897e+000  8.000000e+000  4.535632e+001
      vertex -7.695538e+000  8.000000e+000  3.491690e+000
    endloop
  endfacet
  facet normal  0.000000e+000  1.000000e+000  -0.000000e+000
    outer loop
      vertex -7.695538e+000  8.000000e+000  3.491690e+000
      vertex -7.789897e+000  8.000000e+000  4.535632e+001
      vertex -3.722938e+000  8.000000e+000  4.535632e+001
    endloop
  endfacet
  facet normal -7.509353e-001  6.603750e-001 -9.773879e-004
    outer loop
      vertex -1.174098e+001  6.240038e+000  5.417146e+000
      vertex -1.303761e+001  4.767126e+000  6.450915e+000
      vertex -1.205545e+001  5.944017e+000  4.701693e+001
    endloop
  endfacet
  facet normal -8.548214e-001  5.188915e-001  5.642537e-003
    outer loop
      vertex -1.205545e+001  5.944017e+000  4.701693e+001
      vertex -1.303761e+001  4.767126e+000  6.450915e+000
      vertex -1.370574e+001  3.654832e+000  7.520092e+000
    endloop
  endfacet
  facet normal -7.923840e-001  6.100186e-001 -2.247882e-003
    outer loop
      vertex -1.205545e+001  5.944017e+000  4.701693e+001
      vertex -1.370574e+001  3.654832e+000  7.520092e+000
      vertex -1.342804e+001  4.157281e+000  4.598135e+001
    endloop
  endfacet
  facet normal -9.209223e-001  3.897431e-001  1.557833e-003
    outer loop
      vertex -1.342804e+001  4.157281e+000  4.598135e+001
      vertex -1.370574e+001  3.654832e+000  7.520092e+000
      vertex -1.443994e+001  1.909731e+000  1.008793e+001
    endloop
  endfacet
  facet normal -9.116867e-001  4.108859e-001 -2.644000e-005
    outer loop
      vertex -1.342804e+001  4.157281e+000  4.598135e+001
      vertex -1.443994e+001  1.909731e+000  1.008793e+001
      vertex -1.443715e+001  1.918153e+000  4.488176e+001
    endloop
  endfacet
  facet normal -9.709237e-001  2.393894e-001  1.981586e-005
    outer loop
      vertex -1.443715e+001  1.918153e+000  4.488176e+001
      vertex -1.443994e+001  1.909731e+000  1.008793e+001
      vertex -1.528164e+001 -1.504365e+000  1.354789e+001
    endloop
  endfacet
  facet normal -9.617568e-001  2.738758e-001 -3.994105e-003
    outer loop
      vertex -1.443715e+001  1.918153e+000  4.488176e+001
      vertex -1.528164e+001 -1.504365e+000  1.354789e+001
      vertex -1.494953e+001  1.080880e-001  4.414424e+001
    endloop
  endfacet
  facet normal -9.883630e-001  1.520894e-001  2.712935e-003
    outer loop
      vertex -1.494953e+001  1.080880e-001  4.414424e+001
      vertex -1.528164e+001 -1.504365e+000  1.354789e+001
      vertex -1.570437e+001 -4.281777e+000  1.524627e+001
    endloop
  endfacet
  facet normal -9.842402e-001  1.768333e-001 -1.153588e-003
    outer loop
      vertex -1.494953e+001  1.080880e-001  4.414424e+001
      vertex -1.570437e+001 -4.281777e+000  1.524627e+001
      vertex -1.561299e+001 -3.593106e+000  4.285120e+001
    endloop
  endfacet
  facet normal -9.950582e-001  9.928944e-002  8.167389e-004
    outer loop
      vertex -1.561299e+001 -3.593106e+000  4.285120e+001
      vertex -1.570437e+001 -4.281777e+000  1.524627e+001
      vertex -1.600000e+001 -7.255691e+000  1.660255e+001
    endloop
  endfacet
  facet normal -9.944637e-001  1.050800e-001  0.000000e+000
    outer loop
      vertex -1.561299e+001 -3.593106e+000  4.285120e+001
      vertex -1.600000e+001 -7.255691e+000  1.660255e+001
      vertex -1.600000e+001 -7.255691e+000  4.169383e+001
    endloop
  endfacet
  facet normal -4.447754e-001  8.956393e-001  2.247839e-003
    outer loop
      vertex -9.116851e+000  7.722635e+000  4.625645e+001
      vertex -1.001996e+001  7.378634e+000  4.625801e+000
      vertex -1.117311e+001  6.698397e+000  4.749015e+001
    endloop
  endfacet
  facet normal -5.522789e-001  8.336577e-001 -1.627885e-003
    outer loop
      vertex -1.117311e+001  6.698397e+000  4.749015e+001
      vertex -1.001996e+001  7.378634e+000  4.625801e+000
      vertex -1.174098e+001  6.240038e+000  5.417146e+000
    endloop
  endfacet
  facet normal -6.499948e-001  7.599385e-001  4.941414e-004
    outer loop
      vertex -1.117311e+001  6.698397e+000  4.749015e+001
      vertex -1.174098e+001  6.240038e+000  5.417146e+000
      vertex -1.205545e+001  5.944017e+000  4.701693e+001
    endloop
  endfacet
  facet normal -2.684077e-001  9.633055e-001  0.000000e+000
    outer loop
      vertex -7.789897e+000  8.000000e+000  3.553725e+000
      vertex -1.001996e+001  7.378634e+000  4.625801e+000
      vertex -7.789897e+000  8.000000e+000  4.535632e+001
    endloop
  endfacet
  facet normal -2.069369e-001  9.783477e-001 -3.595099e-003
    outer loop
      vertex -7.789897e+000  8.000000e+000  4.535632e+001
      vertex -1.001996e+001  7.378634e+000  4.625801e+000
      vertex -9.116851e+000  7.722635e+000  4.625645e+001
    endloop
  endfacet
  facet normal  0.000000e+000  9.999999e-001  0.000000e+000
    outer loop
      vertex  7.789897e+000  8.000000e+000  3.553725e+000
      vertex  7.602180e+000  8.000000e+000  3.428060e+000
      vertex  7.789897e+000  8.000000e+000  4.535632e+001
    endloop
  endfacet
  facet normal  -0.000000e+000  1.000000e+000  0.000000e+000
    outer loop
      vertex  3.722938e+000  8.000000e+000  0.000000e+000
      vertex  3.722938e+000  8.000000e+000  4.535632e+001
      vertex  7.789897e+000  8.000000e+000  4.535632e+001
    endloop
  endfacet
  facet normal  0.000000e+000  1.000000e+000  0.000000e+000
    outer loop
      vertex  3.722938e+000  8.000000e+000  0.000000e+000
      vertex  7.789897e+000  8.000000e+000  4.535632e+001
      vertex  7.602180e+000  8.000000e+000  3.428060e+000
    endloop
  endfacet
  facet normal  0.000000e+000  1.000000e+000  0.000000e+000
    outer loop
      vertex  3.722938e+000  8.000000e+000  0.000000e+000
      vertex  7.602180e+000  8.000000e+000  3.428060e+000
      vertex  6.092410e+000  8.000000e+000  1.787161e+000
    endloop
  endfacet
  facet normal  0.000000e+000  1.000000e+000  0.000000e+000
    outer loop
      vertex  3.722938e+000  8.000000e+000  0.000000e+000
      vertex  6.092410e+000  8.000000e+000  1.787161e+000
      vertex  5.726310e+000  8.000000e+000 -2.220446e-016
    endloop
  endfacet
  facet normal  0.000000e+000  0.000000e+000  1.000000e+000
    outer loop
      vertex -9.784376e+000 -1.942632e+001  4.800000e+001
      vertex  9.784376e+000 -1.942632e+001  4.800000e+001
      vertex -9.784376e+000  5.634546e+000  4.800000e+001
    endloop
  endfacet
  facet normal  -0.000000e+000  0.000000e+000  1.000000e+000
    outer loop
      vertex -9.784376e+000  5.634546e+000  4.800000e+001
      vertex  9.784376e+000 -1.942632e+001  4.800000e+001
      vertex  9.784376e+000  5.634546e+000  4.800000e+001
    endloop
  endfacet
  facet normal  0.000000e+000  4.321780e-001  9.017884e-001
    outer loop
      vertex -9.784376e+000  5.634546e+000  4.800000e+001
      vertex  9.784376e+000  5.634546e+000  4.800000e+001
      vertex -1.117311e+001  6.698397e+000  4.749015e+001
    endloop
  endfacet
  facet normal  -0.000000e+000  4.321780e-001  9.017884e-001
    outer loop
      vertex -1.117311e+001  6.698397e+000  4.749015e+001
      vertex  9.784376e+000  5.634546e+000  4.800000e+001
      vertex  1.117311e+001  6.698397e+000  4.749015e+001
    endloop
  endfacet
  facet normal  0.000000e+000  7.694014e-001  6.387656e-001
    outer loop
      vertex -1.117311e+001  6.698397e+000  4.749015e+001
      vertex  1.117311e+001  6.698397e+000  4.749015e+001
      vertex -9.116851e+000  7.722635e+000  4.625645e+001
    endloop
  endfacet
  facet normal -3.425836e-003  7.409831e-001  6.715149e-001
    outer loop
      vertex -9.116851e+000  7.722635e+000  4.625645e+001
      vertex  1.117311e+001  6.698397e+000  4.749015e+001
      vertex  9.472352e+000  7.604492e+000  4.648165e+001
    endloop
  endfacet
  facet normal  1.716631e-003  9.368323e-001  3.497745e-001
    outer loop
      vertex -9.116851e+000  7.722635e+000  4.625645e+001
      vertex  9.472352e+000  7.604492e+000  4.648165e+001
      vertex  1.184851e+000  7.958760e+000  4.557345e+001
    endloop
  endfacet
  facet normal  4.786072e-003  9.456337e-001  3.251984e-001
    outer loop
      vertex  1.184851e+000  7.958760e+000  4.557345e+001
      vertex  9.472352e+000  7.604492e+000  4.648165e+001
      vertex  7.789897e+000  8.000000e+000  4.535632e+001
    endloop
  endfacet
  facet normal  0.000000e+000  9.824366e-001  1.865963e-001
    outer loop
      vertex  1.184851e+000  7.958760e+000  4.557345e+001
      vertex  7.789897e+000  8.000000e+000  4.535632e+001
      vertex  3.722938e+000  8.000000e+000  4.535632e+001
    endloop
  endfacet
  facet normal  -0.000000e+000  9.824367e-001  1.865963e-001
    outer loop
      vertex  1.136342e-001  8.000000e+000  4.535632e+001
      vertex -1.136342e-001  8.000000e+000  4.535632e+001
      vertex  1.184851e+000  7.958760e+000  4.557345e+001
    endloop
  endfacet
  facet normal -3.431520e-004  9.820585e-001  1.885766e-001
    outer loop
      vertex  1.184851e+000  7.958760e+000  4.557345e+001
      vertex -1.136342e-001  8.000000e+000  4.535632e+001
      vertex -1.910123e+000  7.952221e+000  4.560188e+001
    endloop
  endfacet
  facet normal  1.158399e-003  9.395874e-001  3.423071e-001
    outer loop
      vertex  1.184851e+000  7.958760e+000  4.557345e+001
      vertex -1.910123e+000  7.952221e+000  4.560188e+001
      vertex -9.116851e+000  7.722635e+000  4.625645e+001
    endloop
  endfacet
  facet normal -8.222650e-003  9.684324e-001  2.491405e-001
    outer loop
      vertex -1.910123e+000  7.952221e+000  4.560188e+001
      vertex -3.722938e+000  8.000000e+000  4.535632e+001
      vertex -9.116851e+000  7.722635e+000  4.625645e+001
    endloop
  endfacet
  facet normal  0.000000e+000  9.556583e-001  2.944778e-001
    outer loop
      vertex -9.116851e+000  7.722635e+000  4.625645e+001
      vertex -3.722938e+000  8.000000e+000  4.535632e+001
      vertex -7.789897e+000  8.000000e+000  4.535632e+001
    endloop
  endfacet
  facet normal  1.000000e+000  0.000000e+000  0.000000e+000
    outer loop
      vertex  1.600000e+001 -1.258010e+001  1.660255e+001
      vertex  1.600000e+001 -7.255691e+000  1.660255e+001
      vertex  1.600000e+001 -1.258010e+001  4.169383e+001
    endloop
  endfacet
  facet normal  1.000000e+000  -0.000000e+000  0.000000e+000
    outer loop
      vertex  1.600000e+001 -1.258010e+001  4.169383e+001
      vertex  1.600000e+001 -7.255691e+000  1.660255e+001
      vertex  1.600000e+001 -7.255691e+000  4.169383e+001
    endloop
  endfacet
  facet normal  0.000000e+000 -1.541870e-001  9.880416e-001
    outer loop
      vertex  9.784376e+000 -1.942632e+001  4.800000e+001
      vertex -9.784376e+000 -1.942632e+001  4.800000e+001
      vertex  1.104300e+001 -2.231353e+001  4.754944e+001
    endloop
  endfacet
  facet normal  0.000000e+000 -1.541870e-001  9.880416e-001
    outer loop
      vertex  1.104300e+001 -2.231353e+001  4.754944e+001
      vertex -9.784376e+000 -1.942632e+001  4.800000e+001
      vertex -1.104300e+001 -2.231353e+001  4.754944e+001
    endloop
  endfacet
  facet normal  0.000000e+000 -3.900309e-001  9.208018e-001
    outer loop
      vertex  1.104300e+001 -2.231353e+001  4.754944e+001
      vertex -1.104300e+001 -2.231353e+001  4.754944e+001
      vertex  1.297490e+001 -2.509580e+001  4.637093e+001
    endloop
  endfacet
  facet normal  2.866784e-008 -3.900307e-001  9.208019e-001
    outer loop
      vertex  1.297490e+001 -2.509580e+001  4.637093e+001
      vertex -1.104300e+001 -2.231353e+001  4.754944e+001
      vertex -1.297490e+001 -2.509580e+001  4.637093e+001
    endloop
  endfacet
  facet normal  4.699073e-008 -6.393167e-001  7.689435e-001
    outer loop
      vertex  1.297490e+001 -2.509580e+001  4.637093e+001
      vertex -1.297490e+001 -2.509580e+001  4.637093e+001
      vertex  1.160223e+001 -2.685879e+001  4.490514e+001
    endloop
  endfacet
  facet normal  7.950197e-005 -6.386616e-001  7.694877e-001
    outer loop
      vertex  1.160223e+001 -2.685879e+001  4.490514e+001
      vertex -1.297490e+001 -2.509580e+001  4.637093e+001
      vertex -1.161108e+001 -2.685011e+001  4.491475e+001
    endloop
  endfacet
  facet normal -8.023006e-005 -8.304809e-001  5.570471e-001
    outer loop
      vertex  1.160223e+001 -2.685879e+001  4.490514e+001
      vertex -1.161108e+001 -2.685011e+001  4.491475e+001
      vertex  9.837906e+000 -2.813618e+001  4.300049e+001
    endloop
  endfacet
  facet normal  7.106819e-005 -8.296962e-001  5.582153e-001
    outer loop
      vertex  9.837906e+000 -2.813618e+001  4.300049e+001
      vertex -1.161108e+001 -2.685011e+001  4.491475e+001
      vertex -9.846740e+000 -2.813158e+001  4.300983e+001
    endloop
  endfacet
  facet normal -4.879005e-005 -9.341185e-001  3.569632e-001
    outer loop
      vertex  9.837906e+000 -2.813618e+001  4.300049e+001
      vertex -9.846740e+000 -2.813158e+001  4.300983e+001
      vertex  7.842155e+000 -2.888869e+001  4.103099e+001
    endloop
  endfacet
  facet normal  3.814574e-005 -9.338592e-001  3.576410e-001
    outer loop
      vertex  7.842155e+000 -2.888869e+001  4.103099e+001
      vertex -9.846740e+000 -2.813158e+001  4.300983e+001
      vertex -7.850714e+000 -2.888639e+001  4.103867e+001
    endloop
  endfacet
  facet normal -2.072510e-005 -9.688258e-001  2.477430e-001
    outer loop
      vertex  7.842155e+000 -2.888869e+001  4.103099e+001
      vertex -7.850714e+000 -2.888639e+001  4.103867e+001
      vertex  5.536492e+000 -2.934290e+001  3.925457e+001
    endloop
  endfacet
  facet normal  1.610520e-005 -9.687594e-001  2.480023e-001
    outer loop
      vertex  5.536492e+000 -2.934290e+001  3.925457e+001
      vertex -7.850714e+000 -2.888639e+001  4.103867e+001
      vertex -5.544640e+000 -2.934173e+001  3.925985e+001
    endloop
  endfacet
  facet normal -8.681719e-006 -9.801184e-001  1.984132e-001
    outer loop
      vertex  5.536492e+000 -2.934290e+001  3.925457e+001
      vertex -5.544640e+000 -2.934173e+001  3.925985e+001
      vertex  2.934959e+000 -2.961010e+001  3.793455e+001
    endloop
  endfacet
  facet normal  7.356763e-006 -9.800985e-001  1.985118e-001
    outer loop
      vertex  2.934959e+000 -2.961010e+001  3.793455e+001
      vertex -5.544640e+000 -2.934173e+001  3.925985e+001
      vertex -2.942303e+000 -2.960961e+001  3.793719e+001
    endloop
  endfacet
  facet normal -2.861017e-006 -9.842817e-001  1.766058e-001
    outer loop
      vertex  2.934959e+000 -2.961010e+001  3.793455e+001
      vertex -2.942303e+000 -2.960961e+001  3.793719e+001
      vertex -3.756854e-003 -2.969927e+001  3.743753e+001
    endloop
  endfacet
  facet normal -1.000000e+000  0.000000e+000  0.000000e+000
    outer loop
      vertex -1.600000e+001 -7.255691e+000  1.660255e+001
      vertex -1.600000e+001 -1.258010e+001  1.660255e+001
      vertex -1.600000e+001 -7.255691e+000  4.169383e+001
    endloop
  endfacet
  facet normal -1.000000e+000  -0.000000e+000  0.000000e+000
    outer loop
      vertex -1.600000e+001 -7.255691e+000  4.169383e+001
      vertex -1.600000e+001 -1.258010e+001  1.660255e+001
      vertex -1.600000e+001 -1.258010e+001  4.169383e+001
    endloop
  endfacet
  facet normal  0.000000e+000  0.000000e+000 -1.000000e+000
    outer loop
      vertex  4.081420e+000 -2.348205e+001  0.000000e+000
      vertex  4.053624e-005 -2.369916e+001  0.000000e+000
      vertex  5.726310e+000 -2.322512e+001  0.000000e+000
    endloop
  endfacet
  facet normal  1.785178e-016 -3.555544e-018 -1.000000e+000
    outer loop
      vertex -5.726310e+000 -2.322512e+001  0.000000e+000
      vertex -5.726310e+000  8.000000e+000 -1.110223e-016
      vertex -5.200000e+000  3.200000e+000  0.000000e+000
    endloop
  endfacet
  facet normal  0.000000e+000  -0.000000e+000 -1.000000e+000
    outer loop
      vertex -5.726310e+000 -2.322512e+001  0.000000e+000
      vertex -5.200000e+000  3.200000e+000  0.000000e+000
      vertex -5.200000e+000 -3.200000e+000  0.000000e+000
    endloop
  endfacet
  facet normal  0.000000e+000  -0.000000e+000 -1.000000e+000
    outer loop
      vertex -5.726310e+000 -2.322512e+001  0.000000e+000
      vertex -5.200000e+000 -3.200000e+000  0.000000e+000
      vertex  4.053624e-005 -2.369916e+001  0.000000e+000
    endloop
  endfacet
  facet normal  0.000000e+000  0.000000e+000 -1.000000e+000
    outer loop
      vertex -5.726310e+000 -2.322512e+001  0.000000e+000
      vertex  4.053624e-005 -2.369916e+001  0.000000e+000
      vertex -2.495117e+000 -2.362608e+001  0.000000e+000
    endloop
  endfacet
  facet normal  5.541772e-017 -1.705321e-017 -1.000000e+000
    outer loop
      vertex -5.200000e+000  3.200000e+000  0.000000e+000
      vertex -5.726310e+000  8.000000e+000 -1.110223e-016
      vertex -3.722938e+000  8.000000e+000  0.000000e+000
    endloop
  endfacet
  facet normal  0.000000e+000  -0.000000e+000 -1.000000e+000
    outer loop
      vertex -5.200000e+000  3.200000e+000  0.000000e+000
      vertex -3.722938e+000  8.000000e+000  0.000000e+000
      vertex -1.136342e-001  8.000000e+000  0.000000e+000
    endloop
  endfacet
  facet normal  0.000000e+000  -0.000000e+000 -1.000000e+000
    outer loop
      vertex -5.200000e+000  3.200000e+000  0.000000e+000
      vertex -1.136342e-001  8.000000e+000  0.000000e+000
      vertex  1.136342e-001  8.000000e+000  0.000000e+000
    endloop
  endfacet
  facet normal  0.000000e+000  -0.000000e+000 -1.000000e+000
    outer loop
      vertex -5.200000e+000  3.200000e+000  0.000000e+000
      vertex  1.136342e-001  8.000000e+000  0.000000e+000
      vertex  3.722938e+000  8.000000e+000  0.000000e+000
    endloop
  endfacet
  facet normal -1.108354e-016  2.060370e-016 -1.000000e+000
    outer loop
      vertex -5.200000e+000  3.200000e+000  0.000000e+000
      vertex  3.722938e+000  8.000000e+000  0.000000e+000
      vertex  5.726310e+000  8.000000e+000 -2.220446e-016
    endloop
  endfacet
  facet normal  0.000000e+000 -4.625929e-017 -1.000000e+000
    outer loop
      vertex -5.200000e+000  3.200000e+000  0.000000e+000
      vertex  5.726310e+000  8.000000e+000 -2.220446e-016
      vertex  5.200000e+000  3.200000e+000  0.000000e+000
    endloop
  endfacet
  facet normal -3.570356e-016 -7.111088e-018 -1.000000e+000
    outer loop
      vertex  5.726310e+000  8.000000e+000 -2.220446e-016
      vertex  5.726310e+000 -2.322512e+001  0.000000e+000
      vertex  5.200000e+000  3.200000e+000  0.000000e+000
    endloop
  endfacet
  facet normal  0.000000e+000  0.000000e+000 -1.000000e+000
    outer loop
      vertex  5.200000e+000  3.200000e+000  0.000000e+000
      vertex  5.726310e+000 -2.322512e+001  0.000000e+000
      vertex  5.200000e+000 -3.200000e+000  0.000000e+000
    endloop
  endfacet
  facet normal  0.000000e+000  0.000000e+000 -9.999999e-001
    outer loop
      vertex  5.726310e+000 -2.322512e+001  0.000000e+000
      vertex  4.053624e-005 -2.369916e+001  0.000000e+000
      vertex  5.200000e+000 -3.200000e+000  0.000000e+000
    endloop
  endfacet
  facet normal  -0.000000e+000  0.000000e+000 -1.000000e+000
    outer loop
      vertex  5.200000e+000 -3.200000e+000  0.000000e+000
      vertex  4.053624e-005 -2.369916e+001  0.000000e+000
      vertex -5.200000e+000 -3.200000e+000  0.000000e+000
    endloop
  endfacet
  facet normal -8.551273e-001  1.839786e-003 -5.184148e-001
    outer loop
      vertex -6.092410e+000  8.000000e+000  1.787161e+000
      vertex -5.915213e+000 -2.707317e+001  1.370403e+000
      vertex -6.683790e+000 -2.809939e+001  2.634532e+000
    endloop
  endfacet
  facet normal -4.181023e-001  6.219593e-004 -9.083997e-001
    outer loop
      vertex -1.174098e+001  6.240038e+000  5.417146e+000
      vertex -1.001996e+001  7.378634e+000  4.625801e+000
      vertex -1.047816e+001 -2.762052e+001  4.812732e+000
    endloop
  endfacet
  facet normal -7.956679e-001  8.854960e-004 -6.057326e-001
    outer loop
      vertex -1.258125e+001 -2.570048e+001  6.000093e+000
      vertex -1.365996e+001 -2.376718e+001  7.419868e+000
      vertex -1.370574e+001  3.654832e+000  7.520092e+000
    endloop
  endfacet
  facet normal -8.457885e-001 -4.774733e-003 -5.334971e-001
    outer loop
      vertex -1.258125e+001 -2.570048e+001  6.000093e+000
      vertex -1.370574e+001  3.654832e+000  7.520092e+000
      vertex -1.303761e+001  4.767126e+000  6.450915e+000
    endloop
  endfacet
  facet normal -6.249138e-001  2.191338e-003 -7.806907e-001
    outer loop
      vertex -1.258125e+001 -2.570048e+001  6.000093e+000
      vertex -1.303761e+001  4.767126e+000  6.450915e+000
      vertex -1.174098e+001  6.240038e+000  5.417146e+000
    endloop
  endfacet
  facet normal -4.936309e-001 -2.886255e-003 -8.696668e-001
    outer loop
      vertex -1.258125e+001 -2.570048e+001  6.000093e+000
      vertex -1.174098e+001  6.240038e+000  5.417146e+000
      vertex -1.047816e+001 -2.762052e+001  4.812732e+000
    endloop
  endfacet
  facet normal -9.796562e-001 -7.135367e-019 -2.006828e-001
    outer loop
      vertex -5.726310e+000  8.000000e+000 -1.110223e-016
      vertex -5.726310e+000 -2.322512e+001  0.000000e+000
      vertex -6.092410e+000  8.000000e+000  1.787161e+000
    endloop
  endfacet
  facet normal -9.987637e-001 -8.911083e-003 -4.890332e-002
    outer loop
      vertex -6.092410e+000  8.000000e+000  1.787161e+000
      vertex -5.726310e+000 -2.322512e+001  0.000000e+000
      vertex -5.723940e+000 -2.512921e+001  2.985691e-001
    endloop
  endfacet
  facet normal -9.835458e-001 -2.822661e-003 -1.806368e-001
    outer loop
      vertex -6.092410e+000  8.000000e+000  1.787161e+000
      vertex -5.723940e+000 -2.512921e+001  2.985691e-001
      vertex -5.915213e+000 -2.707317e+001  1.370403e+000
    endloop
  endfacet
  facet normal -4.024279e-001  3.790892e-004 -9.154516e-001
    outer loop
      vertex -1.047816e+001 -2.762052e+001  4.812732e+000
      vertex -1.001996e+001  7.378634e+000  4.625801e+000
      vertex -8.296646e+000 -2.834140e+001  3.853450e+000
    endloop
  endfacet
  facet normal -4.329553e-001 -1.397220e-003 -9.014143e-001
    outer loop
      vertex -8.296646e+000 -2.834140e+001  3.853450e+000
      vertex -1.001996e+001  7.378634e+000  4.625801e+000
      vertex -7.789897e+000  8.000000e+000  3.553725e+000
    endloop
  endfacet
  facet normal -6.031063e-001  1.831108e-003 -7.976587e-001
    outer loop
      vertex -8.296646e+000 -2.834140e+001  3.853450e+000
      vertex -7.789897e+000  8.000000e+000  3.553725e+000
      vertex -6.683790e+000 -2.809939e+001  2.634532e+000
    endloop
  endfacet
  facet normal -5.493409e-001  4.444261e-003 -8.355865e-001
    outer loop
      vertex -6.683790e+000 -2.809939e+001  2.634532e+000
      vertex -7.789897e+000  8.000000e+000  3.553725e+000
      vertex -7.695538e+000  8.000000e+000  3.491690e+000
    endloop
  endfacet
  facet normal -7.284359e-001 -4.148360e-003 -6.851014e-001
    outer loop
      vertex -6.683790e+000 -2.809939e+001  2.634532e+000
      vertex -7.695538e+000  8.000000e+000  3.491690e+000
      vertex -6.092410e+000  8.000000e+000  1.787161e+000
    endloop
  endfacet
  facet normal -9.613634e-001 -5.988847e-004 -2.752815e-001
    outer loop
      vertex -1.370574e+001  3.654832e+000  7.520092e+000
      vertex -1.365996e+001 -2.376718e+001  7.419868e+000
      vertex -1.443994e+001  1.909731e+000  1.008793e+001
    endloop
  endfacet
  facet normal -9.426336e-001  6.048020e-003 -3.337746e-001
    outer loop
      vertex -1.443994e+001  1.909731e+000  1.008793e+001
      vertex -1.365996e+001 -2.376718e+001  7.419868e+000
      vertex -1.411540e+001 -2.260629e+001  8.727134e+000
    endloop
  endfacet
  facet normal -9.737603e-001 -2.587461e-004 -2.275757e-001
    outer loop
      vertex -1.443994e+001  1.909731e+000  1.008793e+001
      vertex -1.411540e+001 -2.260629e+001  8.727134e+000
      vertex -1.460495e+001 -2.098530e+001  1.082002e+001
    endloop
  endfacet
  facet normal -9.715315e-001 -5.732830e-004 -2.369099e-001
    outer loop
      vertex -1.443994e+001  1.909731e+000  1.008793e+001
      vertex -1.460495e+001 -2.098530e+001  1.082002e+001
      vertex -1.528164e+001 -1.504365e+000  1.354789e+001
    endloop
  endfacet
  facet normal -9.719479e-001 -8.278885e-004 -2.351950e-001
    outer loop
      vertex -1.528164e+001 -1.504365e+000  1.354789e+001
      vertex -1.460495e+001 -2.098530e+001  1.082002e+001
      vertex -1.504530e+001 -1.908581e+001  1.263307e+001
    endloop
  endfacet
  facet normal -9.702243e-001 -4.398249e-004 -2.422077e-001
    outer loop
      vertex -1.528164e+001 -1.504365e+000  1.354789e+001
      vertex -1.504530e+001 -1.908581e+001  1.263307e+001
      vertex -1.570437e+001 -4.281777e+000  1.524627e+001
    endloop
  endfacet
  facet normal -9.687601e-001  6.476761e-004 -2.479992e-001
    outer loop
      vertex -1.570437e+001 -4.281777e+000  1.524627e+001
      vertex -1.504530e+001 -1.908581e+001  1.263307e+001
      vertex -1.559374e+001 -1.595047e+001  1.478363e+001
    endloop
  endfacet
  facet normal -9.767129e-001 -7.539351e-004 -2.145493e-001
    outer loop
      vertex -1.570437e+001 -4.281777e+000  1.524627e+001
      vertex -1.559374e+001 -1.595047e+001  1.478363e+001
      vertex -1.600000e+001 -7.255691e+000  1.660255e+001
    endloop
  endfacet
  facet normal -9.759525e-001  -0.000000e+000 -2.179834e-001
    outer loop
      vertex -1.600000e+001 -7.255691e+000  1.660255e+001
      vertex -1.559374e+001 -1.595047e+001  1.478363e+001
      vertex -1.600000e+001 -1.258010e+001  1.660255e+001
    endloop
  endfacet
  facet normal  8.310530e-001  2.410256e-003 -5.561881e-001
    outer loop
      vertex  6.936753e+000 -2.821474e+001  2.891835e+000
      vertex  5.915213e+000 -2.707317e+001  1.370403e+000
      vertex  6.092410e+000  8.000000e+000  1.787161e+000
    endloop
  endfacet
  facet normal  7.358948e-001 -3.496175e-003 -6.770869e-001
    outer loop
      vertex  7.602180e+000  8.000000e+000  3.428060e+000
      vertex  6.936753e+000 -2.821474e+001  2.891835e+000
      vertex  6.092410e+000  8.000000e+000  1.787161e+000
    endloop
  endfacet
  facet normal  5.057603e-001 -2.439477e-003 -8.626706e-001
    outer loop
      vertex  1.258125e+001 -2.570048e+001  6.000093e+000
      vertex  1.072818e+001 -2.747104e+001  4.918697e+000
      vertex  1.174098e+001  6.240038e+000  5.417146e+000
    endloop
  endfacet
  facet normal  6.249139e-001  2.191338e-003 -7.806907e-001
    outer loop
      vertex  1.258125e+001 -2.570048e+001  6.000093e+000
      vertex  1.174098e+001  6.240038e+000  5.417146e+000
      vertex  1.303761e+001  4.767126e+000  6.450915e+000
    endloop
  endfacet
  facet normal  8.457885e-001 -4.774733e-003 -5.334971e-001
    outer loop
      vertex  1.258125e+001 -2.570048e+001  6.000093e+000
      vertex  1.303761e+001  4.767126e+000  6.450915e+000
      vertex  1.370574e+001  3.654832e+000  7.520092e+000
    endloop
  endfacet
  facet normal  7.956679e-001  8.854960e-004 -6.057326e-001
    outer loop
      vertex  1.258125e+001 -2.570048e+001  6.000093e+000
      vertex  1.370574e+001  3.654832e+000  7.520092e+000
      vertex  1.365996e+001 -2.376718e+001  7.419868e+000
    endloop
  endfacet
  facet normal  9.835458e-001 -2.822660e-003 -1.806368e-001
    outer loop
      vertex  5.915213e+000 -2.707317e+001  1.370403e+000
      vertex  5.723940e+000 -2.512921e+001  2.985691e-001
      vertex  6.092410e+000  8.000000e+000  1.787161e+000
    endloop
  endfacet
  facet normal  9.987637e-001 -8.911083e-003 -4.890332e-002
    outer loop
      vertex  6.092410e+000  8.000000e+000  1.787161e+000
      vertex  5.723940e+000 -2.512921e+001  2.985691e-001
      vertex  5.726310e+000 -2.322512e+001  0.000000e+000
    endloop
  endfacet
  facet normal  9.796562e-001 -1.427073e-018 -2.006828e-001
    outer loop
      vertex  6.092410e+000  8.000000e+000  1.787161e+000
      vertex  5.726310e+000 -2.322512e+001  0.000000e+000
      vertex  5.726310e+000  8.000000e+000 -2.220446e-016
    endloop
  endfacet
  facet normal  4.182350e-001  8.653317e-004 -9.083384e-001
    outer loop
      vertex  1.174098e+001  6.240038e+000  5.417146e+000
      vertex  1.072818e+001 -2.747104e+001  4.918697e+000
      vertex  1.001996e+001  7.378634e+000  4.625801e+000
    endloop
  endfacet
  facet normal  3.894441e-001  1.733959e-004 -9.210501e-001
    outer loop
      vertex  1.001996e+001  7.378634e+000  4.625801e+000
      vertex  1.072818e+001 -2.747104e+001  4.918697e+000
      vertex  8.719588e+000 -2.827837e+001  4.069258e+000
    endloop
  endfacet
  facet normal  4.328828e-001 -1.716707e-003 -9.014486e-001
    outer loop
      vertex  1.001996e+001  7.378634e+000  4.625801e+000
      vertex  8.719588e+000 -2.827837e+001  4.069258e+000
      vertex  7.789897e+000  8.000000e+000  3.553725e+000
    endloop
  endfacet
  facet normal  5.511423e-001  2.266557e-003 -8.344082e-001
    outer loop
      vertex  7.789897e+000  8.000000e+000  3.553725e+000
      vertex  8.719588e+000 -2.827837e+001  4.069258e+000
      vertex  6.936753e+000 -2.821474e+001  2.891835e+000
    endloop
  endfacet
  facet normal  5.562915e-001  2.082676e-003 -8.309845e-001
    outer loop
      vertex  7.789897e+000  8.000000e+000  3.553725e+000
      vertex  6.936753e+000 -2.821474e+001  2.891835e+000
      vertex  7.602180e+000  8.000000e+000  3.428060e+000
    endloop
  endfacet
  facet normal  9.737603e-001 -2.587461e-004 -2.275757e-001
    outer loop
      vertex  1.460495e+001 -2.098530e+001  1.082002e+001
      vertex  1.411540e+001 -2.260629e+001  8.727134e+000
      vertex  1.443994e+001  1.909731e+000  1.008793e+001
    endloop
  endfacet
  facet normal  9.426336e-001  6.048020e-003 -3.337746e-001
    outer loop
      vertex  1.443994e+001  1.909731e+000  1.008793e+001
      vertex  1.411540e+001 -2.260629e+001  8.727134e+000
      vertex  1.365996e+001 -2.376718e+001  7.419868e+000
    endloop
  endfacet
  facet normal  9.613634e-001 -5.988847e-004 -2.752815e-001
    outer loop
      vertex  1.443994e+001  1.909731e+000  1.008793e+001
      vertex  1.365996e+001 -2.376718e+001  7.419868e+000
      vertex  1.370574e+001  3.654832e+000  7.520092e+000
    endloop
  endfacet
  facet normal  9.715315e-001 -5.732830e-004 -2.369099e-001
    outer loop
      vertex  1.528164e+001 -1.504365e+000  1.354789e+001
      vertex  1.460495e+001 -2.098530e+001  1.082002e+001
      vertex  1.443994e+001  1.909731e+000  1.008793e+001
    endloop
  endfacet
  facet normal  9.719479e-001 -8.278885e-004 -2.351950e-001
    outer loop
      vertex  1.460495e+001 -2.098530e+001  1.082002e+001
      vertex  1.528164e+001 -1.504365e+000  1.354789e+001
      vertex  1.504530e+001 -1.908581e+001  1.263307e+001
    endloop
  endfacet
  facet normal  9.702243e-001 -4.398249e-004 -2.422077e-001
    outer loop
      vertex  1.504530e+001 -1.908581e+001  1.263307e+001
      vertex  1.528164e+001 -1.504365e+000  1.354789e+001
      vertex  1.570437e+001 -4.281777e+000  1.524627e+001
    endloop
  endfacet
  facet normal  9.687601e-001  6.476761e-004 -2.479992e-001
    outer loop
      vertex  1.504530e+001 -1.908581e+001  1.263307e+001
      vertex  1.570437e+001 -4.281777e+000  1.524627e+001
      vertex  1.559374e+001 -1.595047e+001  1.478363e+001
    endloop
  endfacet
  facet normal  9.767129e-001 -7.539351e-004 -2.145493e-001
    outer loop
      vertex  1.559374e+001 -1.595047e+001  1.478363e+001
      vertex  1.570437e+001 -4.281777e+000  1.524627e+001
      vertex  1.600000e+001 -7.255691e+000  1.660255e+001
    endloop
  endfacet
  facet normal  9.759525e-001  0.000000e+000 -2.179834e-001
    outer loop
      vertex  1.559374e+001 -1.595047e+001  1.478363e+001
      vertex  1.600000e+001 -7.255691e+000  1.660255e+001
      vertex  1.600000e+001 -1.258010e+001  1.660255e+001
    endloop
  endfacet
  facet normal  4.791322e-001 -8.685627e-001 -1.266138e-001
    outer loop
      vertex  8.719588e+000 -2.827837e+001  4.069258e+000
      vertex  1.130843e+001 -2.713172e+001  6.000000e+000
      vertex  8.447163e+000 -2.871010e+001  6.000000e+000
    endloop
  endfacet
  facet normal  9.977169e-002 -9.739355e-001 -2.037035e-001
    outer loop
      vertex  8.719588e+000 -2.827837e+001  4.069258e+000
      vertex  8.447163e+000 -2.871010e+001  6.000000e+000
      vertex  6.936753e+000 -2.821474e+001  2.891835e+000
    endloop
  endfacet
  facet normal  7.337919e-001 -6.525590e-001 -1.889872e-001
    outer loop
      vertex  1.258125e+001 -2.570048e+001  6.000093e+000
      vertex  1.130843e+001 -2.713172e+001  6.000000e+000
      vertex  1.072818e+001 -2.747104e+001  4.918697e+000
    endloop
  endfacet
  facet normal  3.265460e-001 -9.376581e-001  1.190175e-001
    outer loop
      vertex  1.130843e+001 -2.713172e+001  6.000000e+000
      vertex  8.719588e+000 -2.827837e+001  4.069258e+000
      vertex  1.072818e+001 -2.747104e+001  4.918697e+000
    endloop
  endfacet
  facet normal  1.920672e-001 -9.618490e-001 -1.948245e-001
    outer loop
      vertex  8.447163e+000 -2.871010e+001  6.000000e+000
      vertex  4.793917e+000 -2.943960e+001  6.000000e+000
      vertex  4.730399e+000 -2.898721e+001  3.703899e+000
    endloop
  endfacet
  facet normal  5.304988e-002 -9.794765e-001 -1.944519e-001
    outer loop
      vertex  4.793917e+000 -2.943960e+001  6.000000e+000
      vertex  1.392723e-006 -2.969925e+001  6.000000e+000
      vertex  4.730399e+000 -2.898721e+001  3.703899e+000
    endloop
  endfacet
  facet normal  8.126140e-002 -9.870000e-001 -1.386640e-001
    outer loop
      vertex  4.730399e+000 -2.898721e+001  3.703899e+000
      vertex  1.392723e-006 -2.969925e+001  6.000000e+000
      vertex  1.902031e-006 -2.946699e+001  4.346766e+000
    endloop
  endfacet
  facet normal  9.265126e-003 -8.328642e-001 -5.534000e-001
    outer loop
      vertex  4.730399e+000 -2.898721e+001  3.703899e+000
      vertex  1.902031e-006 -2.946699e+001  4.346766e+000
      vertex  4.578127e+000 -2.769551e+001  1.757359e+000
    endloop
  endfacet
  facet normal  1.225510e-001 -9.066857e-001 -4.036113e-001
    outer loop
      vertex  4.578127e+000 -2.769551e+001  1.757359e+000
      vertex  1.902031e-006 -2.946699e+001  4.346766e+000
      vertex  3.919288e-006 -2.878765e+001  2.820678e+000
    endloop
  endfacet
  facet normal  3.343077e-002 -7.656171e-001 -6.424274e-001
    outer loop
      vertex  4.578127e+000 -2.769551e+001  1.757359e+000
      vertex  3.919288e-006 -2.878765e+001  2.820678e+000
      vertex  8.549353e-006 -2.771391e+001  1.541044e+000
    endloop
  endfacet
  facet normal  1.162903e-001 -4.707617e-001 -8.745627e-001
    outer loop
      vertex  5.723940e+000 -2.512921e+001  2.985691e-001
      vertex  5.915213e+000 -2.707317e+001  1.370403e+000
      vertex  4.350236e+000 -2.576236e+001  4.567228e-001
    endloop
  endfacet
  facet normal  1.870235e-002 -5.566052e-001 -8.305665e-001
    outer loop
      vertex  4.350236e+000 -2.576236e+001  4.567228e-001
      vertex  5.915213e+000 -2.707317e+001  1.370403e+000
      vertex  4.578127e+000 -2.769551e+001  1.757359e+000
    endloop
  endfacet
  facet normal  4.349253e-002 -5.541587e-001 -8.312740e-001
    outer loop
      vertex  4.350236e+000 -2.576236e+001  4.567228e-001
      vertex  4.578127e+000 -2.769551e+001  1.757359e+000
      vertex  1.696084e-005 -2.632993e+001  6.074814e-001
    endloop
  endfacet
  facet normal  4.138254e-002 -5.587378e-001 -8.283113e-001
    outer loop
      vertex  1.696084e-005 -2.632993e+001  6.074814e-001
      vertex  4.578127e+000 -2.769551e+001  1.757359e+000
      vertex  8.549353e-006 -2.771391e+001  1.541044e+000
    endloop
  endfacet
  facet normal -4.412137e-003 -2.249908e-001 -9.743509e-001
    outer loop
      vertex  1.696084e-005 -2.632993e+001  6.074814e-001
      vertex  4.053624e-005 -2.369916e+001  0.000000e+000
      vertex  4.350236e+000 -2.576236e+001  4.567228e-001
    endloop
  endfacet
  facet normal  1.038361e-002 -1.952018e-001 -9.807081e-001
    outer loop
      vertex  4.350236e+000 -2.576236e+001  4.567228e-001
      vertex  4.053624e-005 -2.369916e+001  0.000000e+000
      vertex  4.081420e+000 -2.348205e+001  0.000000e+000
    endloop
  endfacet
  facet normal -2.120171e-002 -1.987476e-001 -9.798214e-001
    outer loop
      vertex  4.350236e+000 -2.576236e+001  4.567228e-001
      vertex  4.081420e+000 -2.348205e+001  0.000000e+000
      vertex  5.723940e+000 -2.512921e+001  2.985691e-001
    endloop
  endfacet
  facet normal  2.419446e-002 -1.548955e-001 -9.876345e-001
    outer loop
      vertex  5.723940e+000 -2.512921e+001  2.985691e-001
      vertex  4.081420e+000 -2.348205e+001  0.000000e+000
      vertex  5.726310e+000 -2.322512e+001  0.000000e+000
    endloop
  endfacet
  facet normal  2.154373e-001 -8.058192e-001 -5.515816e-001
    outer loop
      vertex  4.578127e+000 -2.769551e+001  1.757359e+000
      vertex  5.915213e+000 -2.707317e+001  1.370403e+000
      vertex  4.730399e+000 -2.898721e+001  3.703899e+000
    endloop
  endfacet
  facet normal  4.647192e-002 -7.837812e-001 -6.192959e-001
    outer loop
      vertex  4.730399e+000 -2.898721e+001  3.703899e+000
      vertex  5.915213e+000 -2.707317e+001  1.370403e+000
      vertex  6.936753e+000 -2.821474e+001  2.891835e+000
    endloop
  endfacet
  facet normal  2.316289e-001 -9.368933e-001 -2.618759e-001
    outer loop
      vertex  4.730399e+000 -2.898721e+001  3.703899e+000
      vertex  6.936753e+000 -2.821474e+001  2.891835e+000
      vertex  8.447163e+000 -2.871010e+001  6.000000e+000
    endloop
  endfacet
  facet normal -7.242885e-002 -8.284271e-001 -5.553942e-001
    outer loop
      vertex -4.581668e+000 -2.769510e+001  1.757359e+000
      vertex -4.734087e+000 -2.898677e+001  3.703899e+000
      vertex -6.683790e+000 -2.809939e+001  2.634532e+000
    endloop
  endfacet
  facet normal -7.011873e-001 -7.058492e-001 -1.005642e-001
    outer loop
      vertex -1.047816e+001 -2.762052e+001  4.812732e+000
      vertex -1.055959e+001 -2.770877e+001  6.000000e+000
      vertex -1.258125e+001 -2.570048e+001  6.000093e+000
    endloop
  endfacet
  facet normal -1.421352e-001 -7.244460e-001 -6.745188e-001
    outer loop
      vertex -6.683790e+000 -2.809939e+001  2.634532e+000
      vertex -5.915213e+000 -2.707317e+001  1.370403e+000
      vertex -4.581668e+000 -2.769510e+001  1.757359e+000
    endloop
  endfacet
  facet normal  2.760850e-002 -4.847345e-001 -8.742255e-001
    outer loop
      vertex -4.581668e+000 -2.769510e+001  1.757359e+000
      vertex -5.915213e+000 -2.707317e+001  1.370403e+000
      vertex -5.723940e+000 -2.512921e+001  2.985691e-001
    endloop
  endfacet
  facet normal -1.533490e-001 -5.391036e-001 -8.281615e-001
    outer loop
      vertex -4.581668e+000 -2.769510e+001  1.757359e+000
      vertex -5.723940e+000 -2.512921e+001  2.985691e-001
      vertex -4.353557e+000 -2.576197e+001  4.567228e-001
    endloop
  endfacet
  facet normal  4.247282e-002 -1.547200e-001 -9.870450e-001
    outer loop
      vertex -4.353557e+000 -2.576197e+001  4.567228e-001
      vertex -5.723940e+000 -2.512921e+001  2.985691e-001
      vertex -5.726310e+000 -2.322512e+001  0.000000e+000
    endloop
  endfacet
  facet normal -2.350844e-002 -1.894456e-001 -9.816098e-001
    outer loop
      vertex -4.353557e+000 -2.576197e+001  4.567228e-001
      vertex -5.726310e+000 -2.322512e+001  0.000000e+000
      vertex -2.495117e+000 -2.362608e+001  0.000000e+000
    endloop
  endfacet
  facet normal -3.174914e-001 -9.286675e-001 -1.917705e-001
    outer loop
      vertex -4.734087e+000 -2.898677e+001  3.703899e+000
      vertex -4.797762e+000 -2.943915e+001  6.000000e+000
      vertex -6.683790e+000 -2.809939e+001  2.634532e+000
    endloop
  endfacet
  facet normal -1.887759e-001 -9.441540e-001 -2.700684e-001
    outer loop
      vertex -6.683790e+000 -2.809939e+001  2.634532e+000
      vertex -4.797762e+000 -2.943915e+001  6.000000e+000
      vertex -8.452150e+000 -2.870848e+001  6.000000e+000
    endloop
  endfacet
  facet normal  2.170578e-002 -9.857187e-001 -1.669950e-001
    outer loop
      vertex -6.683790e+000 -2.809939e+001  2.634532e+000
      vertex -8.452150e+000 -2.870848e+001  6.000000e+000
      vertex -8.296646e+000 -2.834140e+001  3.853450e+000
    endloop
  endfacet
  facet normal -4.213999e-001 -8.883340e-001 -1.824415e-001
    outer loop
      vertex -8.296646e+000 -2.834140e+001  3.853450e+000
      vertex -8.452150e+000 -2.870848e+001  6.000000e+000
      vertex -1.055959e+001 -2.770877e+001  6.000000e+000
    endloop
  endfacet
  facet normal -3.491310e-001 -9.324217e-001 -9.326027e-002
    outer loop
      vertex -8.296646e+000 -2.834140e+001  3.853450e+000
      vertex -1.055959e+001 -2.770877e+001  6.000000e+000
      vertex -1.047816e+001 -2.762052e+001  4.812732e+000
    endloop
  endfacet
  facet normal -3.347424e-002 -7.656158e-001 -6.424265e-001
    outer loop
      vertex  8.549353e-006 -2.771391e+001  1.541044e+000
      vertex  3.919288e-006 -2.878765e+001  2.820678e+000
      vertex -4.581668e+000 -2.769510e+001  1.757359e+000
    endloop
  endfacet
  facet normal -1.225385e-001 -9.066871e-001 -4.036123e-001
    outer loop
      vertex -4.581668e+000 -2.769510e+001  1.757359e+000
      vertex  3.919288e-006 -2.878765e+001  2.820678e+000
      vertex  1.902031e-006 -2.946699e+001  4.346766e+000
    endloop
  endfacet
  facet normal -9.334684e-003 -8.328645e-001 -5.533983e-001
    outer loop
      vertex -4.581668e+000 -2.769510e+001  1.757359e+000
      vertex  1.902031e-006 -2.946699e+001  4.346766e+000
      vertex -4.734087e+000 -2.898677e+001  3.703899e+000
    endloop
  endfacet
  facet normal -8.128850e-002 -9.869978e-001 -1.386638e-001
    outer loop
      vertex -4.734087e+000 -2.898677e+001  3.703899e+000
      vertex  1.902031e-006 -2.946699e+001  4.346766e+000
      vertex  1.392723e-006 -2.969925e+001  6.000000e+000
    endloop
  endfacet
  facet normal -5.309989e-002 -9.794744e-001 -1.944484e-001
    outer loop
      vertex -4.734087e+000 -2.898677e+001  3.703899e+000
      vertex  1.392723e-006 -2.969925e+001  6.000000e+000
      vertex -4.797762e+000 -2.943915e+001  6.000000e+000
    endloop
  endfacet
  facet normal -4.152125e-002 -5.543677e-001 -8.312355e-001
    outer loop
      vertex -4.581668e+000 -2.769510e+001  1.757359e+000
      vertex -4.353557e+000 -2.576197e+001  4.567228e-001
      vertex  8.549353e-006 -2.771391e+001  1.541044e+000
    endloop
  endfacet
  facet normal -4.420336e-002 -5.586698e-001 -8.282114e-001
    outer loop
      vertex  8.549353e-006 -2.771391e+001  1.541044e+000
      vertex -4.353557e+000 -2.576197e+001  4.567228e-001
      vertex  1.696084e-005 -2.632993e+001  6.074814e-001
    endloop
  endfacet
  facet normal  5.905884e-003 -2.140134e-001 -9.768128e-001
    outer loop
      vertex -4.353557e+000 -2.576197e+001  4.567228e-001
      vertex -2.495117e+000 -2.362608e+001  0.000000e+000
      vertex  1.696084e-005 -2.632993e+001  6.074814e-001
    endloop
  endfacet
  facet normal -6.589106e-003 -2.249881e-001 -9.743393e-001
    outer loop
      vertex  1.696084e-005 -2.632993e+001  6.074814e-001
      vertex -2.495117e+000 -2.362608e+001  0.000000e+000
      vertex  4.053624e-005 -2.369916e+001  0.000000e+000
    endloop
  endfacet
  facet normal  0.000000e+000  1.000000e+000  0.000000e+000
    outer loop
      vertex -5.200000e+000 -3.200000e+000  1.000000e+001
      vertex  5.200000e+000 -3.200000e+000  1.000000e+001
      vertex -5.200000e+000 -3.200000e+000  0.000000e+000
    endloop
  endfacet
  facet normal  0.000000e+000  1.000000e+000  0.000000e+000
    outer loop
      vertex -5.200000e+000 -3.200000e+000  0.000000e+000
      vertex  5.200000e+000 -3.200000e+000  1.000000e+001
      vertex  5.200000e+000 -3.200000e+000  0.000000e+000
    endloop
  endfacet
  facet normal -1.000000e+000  0.000000e+000  0.000000e+000
    outer loop
      vertex  5.200000e+000  3.200000e+000  0.000000e+000
      vertex  5.200000e+000 -3.200000e+000  0.000000e+000
      vertex  5.200000e+000  3.200000e+000  1.000000e+001
    endloop
  endfacet
  facet normal -1.000000e+000  -0.000000e+000  0.000000e+000
    outer loop
      vertex  5.200000e+000  3.200000e+000  1.000000e+001
      vertex  5.200000e+000 -3.200000e+000  0.000000e+000
      vertex  5.200000e+000 -3.200000e+000  1.000000e+001
    endloop
  endfacet
  facet normal  0.000000e+000 -1.000000e+000  0.000000e+000
    outer loop
      vertex  5.200000e+000  3.200000e+000  1.000000e+001
      vertex -5.200000e+000  3.200000e+000  1.000000e+001
      vertex  5.200000e+000  3.200000e+000  0.000000e+000
    endloop
  endfacet
  facet normal  0.000000e+000 -1.000000e+000  0.000000e+000
    outer loop
      vertex  5.200000e+000  3.200000e+000  0.000000e+000
      vertex -5.200000e+000  3.200000e+000  1.000000e+001
      vertex -5.200000e+000  3.200000e+000  0.000000e+000
    endloop
  endfacet
  facet normal  1.000000e+000  0.000000e+000  0.000000e+000
    outer loop
      vertex -5.200000e+000 -3.200000e+000  0.000000e+000
      vertex -5.200000e+000  3.200000e+000  0.000000e+000
      vertex -5.200000e+000 -3.200000e+000  1.000000e+001
    endloop
  endfacet
  facet normal  1.000000e+000  -0.000000e+000  0.000000e+000
    outer loop
      vertex -5.200000e+000 -3.200000e+000  1.000000e+001
      vertex -5.200000e+000  3.200000e+000  0.000000e+000
      vertex -5.200000e+000  3.200000e+000  1.000000e+001
    endloop
  endfacet
  facet normal  -0.000000e+000  0.000000e+000 -1.000000e+000
    outer loop
      vertex -5.200000e+000  3.200000e+000  1.000000e+001
      vertex  5.200000e+000  3.200000e+000  1.000000e+001
      vertex -5.200000e+000 -3.200000e+000  1.000000e+001
    endloop
  endfacet
  facet normal  0.000000e+000  0.000000e+000 -1.000000e+000
    outer loop
      vertex -5.200000e+000 -3.200000e+000  1.000000e+001
      vertex  5.200000e+000  3.200000e+000  1.000000e+001
      vertex  5.200000e+000 -3.200000e+000  1.000000e+001
    endloop
  endfacet
endsolid CATIA STL
