solid CATIA STL
  facet normal  0.000000e+000  -0.000000e+000  1.000000e+000
    outer loop
      vertex -1.000000e+001  4.900000e+000  9.800000e+000
      vertex -2.800000e+000  3.428898e-016  9.800000e+000
      vertex -2.265248e+000  1.645799e+000  9.800000e+000
    endloop
  endfacet
  facet normal  0.000000e+000  -0.000000e+000  1.000000e+000
    outer loop
      vertex -1.000000e+001  4.900000e+000  9.800000e+000
      vertex -2.265248e+000  1.645799e+000  9.800000e+000
      vertex -8.652476e-001  2.662958e+000  9.800000e+000
    endloop
  endfacet
  facet normal  0.000000e+000  -0.000000e+000  1.000000e+000
    outer loop
      vertex -1.000000e+001  4.900000e+000  9.800000e+000
      vertex -8.652476e-001  2.662958e+000  9.800000e+000
      vertex  8.652476e-001  2.662958e+000  9.800000e+000
    endloop
  endfacet
  facet normal  0.000000e+000  -0.000000e+000  1.000000e+000
    outer loop
      vertex -1.000000e+001  4.900000e+000  9.800000e+000
      vertex  8.652476e-001  2.662958e+000  9.800000e+000
      vertex  7.500000e+001  4.900000e+000  9.800000e+000
    endloop
  endfacet
  facet normal  0.000000e+000  0.000000e+000  1.000000e+000
    outer loop
      vertex -1.000000e+001 -4.900000e+000  9.800000e+000
      vertex  7.500000e+001 -4.900000e+000  9.800000e+000
      vertex  8.652476e-001 -2.662958e+000  9.800000e+000
    endloop
  endfacet
  facet normal  0.000000e+000  0.000000e+000  1.000000e+000
    outer loop
      vertex -1.000000e+001 -4.900000e+000  9.800000e+000
      vertex  8.652476e-001 -2.662958e+000  9.800000e+000
      vertex -8.652476e-001 -2.662958e+000  9.800000e+000
    endloop
  endfacet
  facet normal  0.000000e+000  0.000000e+000  9.999999e-001
    outer loop
      vertex -1.000000e+001 -4.900000e+000  9.800000e+000
      vertex -8.652476e-001 -2.662958e+000  9.800000e+000
      vertex -2.265248e+000 -1.645799e+000  9.800000e+000
    endloop
  endfacet
  facet normal  0.000000e+000  0.000000e+000  1.000000e+000
    outer loop
      vertex -1.000000e+001 -4.900000e+000  9.800000e+000
      vertex -2.265248e+000 -1.645799e+000  9.800000e+000
      vertex -2.800000e+000  3.428898e-016  9.800000e+000
    endloop
  endfacet
  facet normal  0.000000e+000  0.000000e+000  1.000000e+000
    outer loop
      vertex -1.000000e+001 -4.900000e+000  9.800000e+000
      vertex -2.800000e+000  3.428898e-016  9.800000e+000
      vertex -1.000000e+001  4.900000e+000  9.800000e+000
    endloop
  endfacet
  facet normal  0.000000e+000  0.000000e+000  1.000000e+000
    outer loop
      vertex  7.500000e+001 -4.900000e+000  9.800000e+000
      vertex  7.500000e+001  4.900000e+000  9.800000e+000
      vertex  6.780000e+001  2.000000e-001  9.800000e+000
    endloop
  endfacet
  facet normal  0.000000e+000  0.000000e+000  9.999999e-001
    outer loop
      vertex  7.500000e+001 -4.900000e+000  9.800000e+000
      vertex  6.780000e+001  2.000000e-001  9.800000e+000
      vertex  6.726525e+001 -1.445799e+000  9.800000e+000
    endloop
  endfacet
  facet normal  0.000000e+000  0.000000e+000  1.000000e+000
    outer loop
      vertex  7.500000e+001 -4.900000e+000  9.800000e+000
      vertex  6.726525e+001 -1.445799e+000  9.800000e+000
      vertex  6.586525e+001 -2.462958e+000  9.800000e+000
    endloop
  endfacet
  facet normal  0.000000e+000  0.000000e+000  1.000000e+000
    outer loop
      vertex  7.500000e+001 -4.900000e+000  9.800000e+000
      vertex  6.586525e+001 -2.462958e+000  9.800000e+000
      vertex  6.413475e+001 -2.462958e+000  9.800000e+000
    endloop
  endfacet
  facet normal  0.000000e+000  0.000000e+000  1.000000e+000
    outer loop
      vertex  7.500000e+001 -4.900000e+000  9.800000e+000
      vertex  6.413475e+001 -2.462958e+000  9.800000e+000
      vertex  8.652476e-001 -2.662958e+000  9.800000e+000
    endloop
  endfacet
  facet normal  -0.000000e+000  -0.000000e+000  1.000000e+000
    outer loop
      vertex  8.652476e-001  2.662958e+000  9.800000e+000
      vertex  2.265248e+000  1.645799e+000  9.800000e+000
      vertex  6.220000e+001  2.000000e-001  9.800000e+000
    endloop
  endfacet
  facet normal  0.000000e+000  -0.000000e+000  1.000000e+000
    outer loop
      vertex  8.652476e-001  2.662958e+000  9.800000e+000
      vertex  6.220000e+001  2.000000e-001  9.800000e+000
      vertex  6.273475e+001  1.845799e+000  9.800000e+000
    endloop
  endfacet
  facet normal  0.000000e+000  -0.000000e+000  1.000000e+000
    outer loop
      vertex  8.652476e-001  2.662958e+000  9.800000e+000
      vertex  6.273475e+001  1.845799e+000  9.800000e+000
      vertex  6.413475e+001  2.862958e+000  9.800000e+000
    endloop
  endfacet
  facet normal  0.000000e+000  0.000000e+000  9.999999e-001
    outer loop
      vertex  7.500000e+001  4.900000e+000  9.800000e+000
      vertex  8.652476e-001  2.662958e+000  9.800000e+000
      vertex  6.413475e+001  2.862958e+000  9.800000e+000
    endloop
  endfacet
  facet normal  0.000000e+000  0.000000e+000  1.000000e+000
    outer loop
      vertex  7.500000e+001  4.900000e+000  9.800000e+000
      vertex  6.413475e+001  2.862958e+000  9.800000e+000
      vertex  6.586525e+001  2.862958e+000  9.800000e+000
    endloop
  endfacet
  facet normal  -0.000000e+000  0.000000e+000  1.000000e+000
    outer loop
      vertex  7.500000e+001  4.900000e+000  9.800000e+000
      vertex  6.586525e+001  2.862958e+000  9.800000e+000
      vertex  6.726525e+001  1.845799e+000  9.800000e+000
    endloop
  endfacet
  facet normal  -0.000000e+000  0.000000e+000  1.000000e+000
    outer loop
      vertex  7.500000e+001  4.900000e+000  9.800000e+000
      vertex  6.726525e+001  1.845799e+000  9.800000e+000
      vertex  6.780000e+001  2.000000e-001  9.800000e+000
    endloop
  endfacet
  facet normal  0.000000e+000  -0.000000e+000  1.000000e+000
    outer loop
      vertex  2.265248e+000  1.645799e+000  9.800000e+000
      vertex  2.800000e+000  0.000000e+000  9.800000e+000
      vertex  6.220000e+001  2.000000e-001  9.800000e+000
    endloop
  endfacet
  facet normal  0.000000e+000  0.000000e+000  9.999999e-001
    outer loop
      vertex  6.220000e+001  2.000000e-001  9.800000e+000
      vertex  2.800000e+000  0.000000e+000  9.800000e+000
      vertex  2.265248e+000 -1.645799e+000  9.800000e+000
    endloop
  endfacet
  facet normal  0.000000e+000  0.000000e+000  9.999999e-001
    outer loop
      vertex  6.220000e+001  2.000000e-001  9.800000e+000
      vertex  2.265248e+000 -1.645799e+000  9.800000e+000
      vertex  6.273475e+001 -1.445799e+000  9.800000e+000
    endloop
  endfacet
  facet normal  0.000000e+000  0.000000e+000  9.999999e-001
    outer loop
      vertex  6.273475e+001 -1.445799e+000  9.800000e+000
      vertex  2.265248e+000 -1.645799e+000  9.800000e+000
      vertex  8.652476e-001 -2.662958e+000  9.800000e+000
    endloop
  endfacet
  facet normal  0.000000e+000  0.000000e+000  1.000000e+000
    outer loop
      vertex  6.273475e+001 -1.445799e+000  9.800000e+000
      vertex  8.652476e-001 -2.662958e+000  9.800000e+000
      vertex  6.413475e+001 -2.462958e+000  9.800000e+000
    endloop
  endfacet
  facet normal  -0.000000e+000  0.000000e+000 -1.000000e+000
    outer loop
      vertex -1.000000e+001  4.100000e+000  9.000000e+000
      vertex  7.500000e+001  4.100000e+000  9.000000e+000
      vertex  8.652476e-001  2.662958e+000  9.000000e+000
    endloop
  endfacet
  facet normal  0.000000e+000  0.000000e+000 -1.000000e+000
    outer loop
      vertex -1.000000e+001  4.100000e+000  9.000000e+000
      vertex  8.652476e-001  2.662958e+000  9.000000e+000
      vertex -8.652476e-001  2.662958e+000  9.000000e+000
    endloop
  endfacet
  facet normal  -0.000000e+000  0.000000e+000 -1.000000e+000
    outer loop
      vertex -1.000000e+001  4.100000e+000  9.000000e+000
      vertex -8.652476e-001  2.662958e+000  9.000000e+000
      vertex -2.265248e+000  1.645799e+000  9.000000e+000
    endloop
  endfacet
  facet normal  -0.000000e+000  0.000000e+000 -9.999999e-001
    outer loop
      vertex -1.000000e+001  4.100000e+000  9.000000e+000
      vertex -2.265248e+000  1.645799e+000  9.000000e+000
      vertex -2.800000e+000  3.428898e-016  9.000000e+000
    endloop
  endfacet
  facet normal  0.000000e+000  0.000000e+000 -9.999999e-001
    outer loop
      vertex -1.000000e+001 -4.100000e+000  9.000000e+000
      vertex -1.000000e+001  4.100000e+000  9.000000e+000
      vertex -2.800000e+000  3.428898e-016  9.000000e+000
    endloop
  endfacet
  facet normal  0.000000e+000  -0.000000e+000 -1.000000e+000
    outer loop
      vertex -1.000000e+001 -4.100000e+000  9.000000e+000
      vertex -2.800000e+000  3.428898e-016  9.000000e+000
      vertex -2.265248e+000 -1.645799e+000  9.000000e+000
    endloop
  endfacet
  facet normal  0.000000e+000  -0.000000e+000 -1.000000e+000
    outer loop
      vertex -1.000000e+001 -4.100000e+000  9.000000e+000
      vertex -2.265248e+000 -1.645799e+000  9.000000e+000
      vertex -8.652476e-001 -2.662958e+000  9.000000e+000
    endloop
  endfacet
  facet normal  0.000000e+000  -0.000000e+000 -1.000000e+000
    outer loop
      vertex -1.000000e+001 -4.100000e+000  9.000000e+000
      vertex -8.652476e-001 -2.662958e+000  9.000000e+000
      vertex  8.652476e-001 -2.662958e+000  9.000000e+000
    endloop
  endfacet
  facet normal  0.000000e+000  -0.000000e+000 -9.999999e-001
    outer loop
      vertex -1.000000e+001 -4.100000e+000  9.000000e+000
      vertex  8.652476e-001 -2.662958e+000  9.000000e+000
      vertex  7.500000e+001 -4.100000e+000  9.000000e+000
    endloop
  endfacet
  facet normal  0.000000e+000  0.000000e+000 -1.000000e+000
    outer loop
      vertex  7.500000e+001 -4.100000e+000  9.000000e+000
      vertex  8.652476e-001 -2.662958e+000  9.000000e+000
      vertex  6.413475e+001 -2.462958e+000  9.000000e+000
    endloop
  endfacet
  facet normal  0.000000e+000  0.000000e+000 -1.000000e+000
    outer loop
      vertex  7.500000e+001 -4.100000e+000  9.000000e+000
      vertex  6.413475e+001 -2.462958e+000  9.000000e+000
      vertex  6.586525e+001 -2.462958e+000  9.000000e+000
    endloop
  endfacet
  facet normal  0.000000e+000  0.000000e+000 -1.000000e+000
    outer loop
      vertex  7.500000e+001 -4.100000e+000  9.000000e+000
      vertex  6.586525e+001 -2.462958e+000  9.000000e+000
      vertex  6.726525e+001 -1.445799e+000  9.000000e+000
    endloop
  endfacet
  facet normal  0.000000e+000  0.000000e+000 -1.000000e+000
    outer loop
      vertex  7.500000e+001 -4.100000e+000  9.000000e+000
      vertex  6.726525e+001 -1.445799e+000  9.000000e+000
      vertex  6.780000e+001  2.000000e-001  9.000000e+000
    endloop
  endfacet
  facet normal  0.000000e+000  0.000000e+000 -1.000000e+000
    outer loop
      vertex  7.500000e+001 -4.100000e+000  9.000000e+000
      vertex  6.780000e+001  2.000000e-001  9.000000e+000
      vertex  7.500000e+001  4.100000e+000  9.000000e+000
    endloop
  endfacet
  facet normal  0.000000e+000  0.000000e+000 -1.000000e+000
    outer loop
      vertex  8.652476e-001  2.662958e+000  9.000000e+000
      vertex  6.413475e+001  2.862958e+000  9.000000e+000
      vertex  6.273475e+001  1.845799e+000  9.000000e+000
    endloop
  endfacet
  facet normal  -0.000000e+000  0.000000e+000 -1.000000e+000
    outer loop
      vertex  8.652476e-001  2.662958e+000  9.000000e+000
      vertex  6.273475e+001  1.845799e+000  9.000000e+000
      vertex  6.220000e+001  2.000000e-001  9.000000e+000
    endloop
  endfacet
  facet normal  0.000000e+000  0.000000e+000 -1.000000e+000
    outer loop
      vertex  8.652476e-001  2.662958e+000  9.000000e+000
      vertex  6.220000e+001  2.000000e-001  9.000000e+000
      vertex  2.265248e+000  1.645799e+000  9.000000e+000
    endloop
  endfacet
  facet normal  0.000000e+000  0.000000e+000 -1.000000e+000
    outer loop
      vertex  7.500000e+001  4.100000e+000  9.000000e+000
      vertex  6.780000e+001  2.000000e-001  9.000000e+000
      vertex  6.726525e+001  1.845799e+000  9.000000e+000
    endloop
  endfacet
  facet normal  0.000000e+000  0.000000e+000 -1.000000e+000
    outer loop
      vertex  7.500000e+001  4.100000e+000  9.000000e+000
      vertex  6.726525e+001  1.845799e+000  9.000000e+000
      vertex  6.586525e+001  2.862958e+000  9.000000e+000
    endloop
  endfacet
  facet normal  0.000000e+000  0.000000e+000 -1.000000e+000
    outer loop
      vertex  7.500000e+001  4.100000e+000  9.000000e+000
      vertex  6.586525e+001  2.862958e+000  9.000000e+000
      vertex  6.413475e+001  2.862958e+000  9.000000e+000
    endloop
  endfacet
  facet normal  -0.000000e+000  0.000000e+000 -1.000000e+000
    outer loop
      vertex  7.500000e+001  4.100000e+000  9.000000e+000
      vertex  6.413475e+001  2.862958e+000  9.000000e+000
      vertex  8.652476e-001  2.662958e+000  9.000000e+000
    endloop
  endfacet
  facet normal  0.000000e+000  0.000000e+000 -1.000000e+000
    outer loop
      vertex  6.413475e+001 -2.462958e+000  9.000000e+000
      vertex  8.652476e-001 -2.662958e+000  9.000000e+000
      vertex  6.273475e+001 -1.445799e+000  9.000000e+000
    endloop
  endfacet
  facet normal  0.000000e+000  0.000000e+000 -9.999999e-001
    outer loop
      vertex  6.273475e+001 -1.445799e+000  9.000000e+000
      vertex  8.652476e-001 -2.662958e+000  9.000000e+000
      vertex  2.265248e+000 -1.645799e+000  9.000000e+000
    endloop
  endfacet
  facet normal  0.000000e+000  0.000000e+000 -9.999999e-001
    outer loop
      vertex  6.273475e+001 -1.445799e+000  9.000000e+000
      vertex  2.265248e+000 -1.645799e+000  9.000000e+000
      vertex  6.220000e+001  2.000000e-001  9.000000e+000
    endloop
  endfacet
  facet normal  0.000000e+000  0.000000e+000 -9.999999e-001
    outer loop
      vertex  6.220000e+001  2.000000e-001  9.000000e+000
      vertex  2.265248e+000 -1.645799e+000  9.000000e+000
      vertex  2.800000e+000  0.000000e+000  9.000000e+000
    endloop
  endfacet
  facet normal  0.000000e+000  0.000000e+000 -1.000000e+000
    outer loop
      vertex  6.220000e+001  2.000000e-001  9.000000e+000
      vertex  2.800000e+000  0.000000e+000  9.000000e+000
      vertex  2.265248e+000  1.645799e+000  9.000000e+000
    endloop
  endfacet
  facet normal  -0.000000e+000  0.000000e+000 -1.000000e+000
    outer loop
      vertex  2.265248e+000  1.645799e+000 -9.800000e+000
      vertex  6.220000e+001  2.000000e-001 -9.800000e+000
      vertex  2.800000e+000  0.000000e+000 -9.800000e+000
    endloop
  endfacet
  facet normal  -0.000000e+000  0.000000e+000 -1.000000e+000
    outer loop
      vertex  6.273475e+001 -1.445799e+000 -9.800000e+000
      vertex  6.413475e+001 -2.462958e+000 -9.800000e+000
      vertex  8.652476e-001 -2.662958e+000 -9.800000e+000
    endloop
  endfacet
  facet normal  0.000000e+000  -0.000000e+000 -1.000000e+000
    outer loop
      vertex -1.000000e+001 -4.900000e+000 -9.800000e+000
      vertex -2.800000e+000  3.428898e-016 -9.800000e+000
      vertex -2.265248e+000 -1.645799e+000 -9.800000e+000
    endloop
  endfacet
  facet normal  0.000000e+000  -0.000000e+000 -1.000000e+000
    outer loop
      vertex -1.000000e+001 -4.900000e+000 -9.800000e+000
      vertex -2.265248e+000 -1.645799e+000 -9.800000e+000
      vertex -8.652476e-001 -2.662958e+000 -9.800000e+000
    endloop
  endfacet
  facet normal  0.000000e+000  -0.000000e+000 -1.000000e+000
    outer loop
      vertex -1.000000e+001 -4.900000e+000 -9.800000e+000
      vertex -8.652476e-001 -2.662958e+000 -9.800000e+000
      vertex  8.652476e-001 -2.662958e+000 -9.800000e+000
    endloop
  endfacet
  facet normal  0.000000e+000  -0.000000e+000 -1.000000e+000
    outer loop
      vertex -1.000000e+001 -4.900000e+000 -9.800000e+000
      vertex  8.652476e-001 -2.662958e+000 -9.800000e+000
      vertex  7.500000e+001 -4.900000e+000 -9.800000e+000
    endloop
  endfacet
  facet normal  -0.000000e+000  0.000000e+000 -1.000000e+000
    outer loop
      vertex -1.000000e+001  4.900000e+000 -9.800000e+000
      vertex  7.500000e+001  4.900000e+000 -9.800000e+000
      vertex  8.652476e-001  2.662958e+000 -9.800000e+000
    endloop
  endfacet
  facet normal  0.000000e+000  0.000000e+000 -1.000000e+000
    outer loop
      vertex -1.000000e+001  4.900000e+000 -9.800000e+000
      vertex  8.652476e-001  2.662958e+000 -9.800000e+000
      vertex -8.652476e-001  2.662958e+000 -9.800000e+000
    endloop
  endfacet
  facet normal  -0.000000e+000  0.000000e+000 -9.999999e-001
    outer loop
      vertex -1.000000e+001  4.900000e+000 -9.800000e+000
      vertex -8.652476e-001  2.662958e+000 -9.800000e+000
      vertex -2.265248e+000  1.645799e+000 -9.800000e+000
    endloop
  endfacet
  facet normal  -0.000000e+000  0.000000e+000 -1.000000e+000
    outer loop
      vertex -1.000000e+001  4.900000e+000 -9.800000e+000
      vertex -2.265248e+000  1.645799e+000 -9.800000e+000
      vertex -2.800000e+000  3.428898e-016 -9.800000e+000
    endloop
  endfacet
  facet normal  -0.000000e+000  0.000000e+000 -1.000000e+000
    outer loop
      vertex -1.000000e+001  4.900000e+000 -9.800000e+000
      vertex -2.800000e+000  3.428898e-016 -9.800000e+000
      vertex -1.000000e+001 -4.900000e+000 -9.800000e+000
    endloop
  endfacet
  facet normal  0.000000e+000  0.000000e+000 -1.000000e+000
    outer loop
      vertex  7.500000e+001  4.900000e+000 -9.800000e+000
      vertex  7.500000e+001 -4.900000e+000 -9.800000e+000
      vertex  6.726525e+001 -1.445799e+000 -9.800000e+000
    endloop
  endfacet
  facet normal  0.000000e+000  0.000000e+000 -1.000000e+000
    outer loop
      vertex  7.500000e+001  4.900000e+000 -9.800000e+000
      vertex  6.726525e+001 -1.445799e+000 -9.800000e+000
      vertex  6.780000e+001  2.000000e-001 -9.800000e+000
    endloop
  endfacet
  facet normal  0.000000e+000  0.000000e+000 -1.000000e+000
    outer loop
      vertex  7.500000e+001  4.900000e+000 -9.800000e+000
      vertex  6.780000e+001  2.000000e-001 -9.800000e+000
      vertex  6.726525e+001  1.845799e+000 -9.800000e+000
    endloop
  endfacet
  facet normal  0.000000e+000  0.000000e+000 -1.000000e+000
    outer loop
      vertex  7.500000e+001  4.900000e+000 -9.800000e+000
      vertex  6.726525e+001  1.845799e+000 -9.800000e+000
      vertex  6.586525e+001  2.862958e+000 -9.800000e+000
    endloop
  endfacet
  facet normal  0.000000e+000  0.000000e+000 -1.000000e+000
    outer loop
      vertex  7.500000e+001  4.900000e+000 -9.800000e+000
      vertex  6.586525e+001  2.862958e+000 -9.800000e+000
      vertex  6.413475e+001  2.862958e+000 -9.800000e+000
    endloop
  endfacet
  facet normal  -0.000000e+000  0.000000e+000 -9.999999e-001
    outer loop
      vertex  7.500000e+001  4.900000e+000 -9.800000e+000
      vertex  6.413475e+001  2.862958e+000 -9.800000e+000
      vertex  8.652476e-001  2.662958e+000 -9.800000e+000
    endloop
  endfacet
  facet normal  0.000000e+000  0.000000e+000 -1.000000e+000
    outer loop
      vertex  8.652476e-001  2.662958e+000 -9.800000e+000
      vertex  6.413475e+001  2.862958e+000 -9.800000e+000
      vertex  6.273475e+001  1.845799e+000 -9.800000e+000
    endloop
  endfacet
  facet normal  -0.000000e+000  0.000000e+000 -1.000000e+000
    outer loop
      vertex  8.652476e-001  2.662958e+000 -9.800000e+000
      vertex  6.273475e+001  1.845799e+000 -9.800000e+000
      vertex  6.220000e+001  2.000000e-001 -9.800000e+000
    endloop
  endfacet
  facet normal  0.000000e+000  0.000000e+000 -1.000000e+000
    outer loop
      vertex  8.652476e-001  2.662958e+000 -9.800000e+000
      vertex  6.220000e+001  2.000000e-001 -9.800000e+000
      vertex  2.265248e+000  1.645799e+000 -9.800000e+000
    endloop
  endfacet
  facet normal  0.000000e+000  0.000000e+000 -1.000000e+000
    outer loop
      vertex  7.500000e+001 -4.900000e+000 -9.800000e+000
      vertex  8.652476e-001 -2.662958e+000 -9.800000e+000
      vertex  6.413475e+001 -2.462958e+000 -9.800000e+000
    endloop
  endfacet
  facet normal  0.000000e+000  0.000000e+000 -1.000000e+000
    outer loop
      vertex  7.500000e+001 -4.900000e+000 -9.800000e+000
      vertex  6.413475e+001 -2.462958e+000 -9.800000e+000
      vertex  6.586525e+001 -2.462958e+000 -9.800000e+000
    endloop
  endfacet
  facet normal  0.000000e+000  0.000000e+000 -9.999999e-001
    outer loop
      vertex  7.500000e+001 -4.900000e+000 -9.800000e+000
      vertex  6.586525e+001 -2.462958e+000 -9.800000e+000
      vertex  6.726525e+001 -1.445799e+000 -9.800000e+000
    endloop
  endfacet
  facet normal  0.000000e+000  -0.000000e+000 -9.999999e-001
    outer loop
      vertex  8.652476e-001 -2.662958e+000 -9.800000e+000
      vertex  2.265248e+000 -1.645799e+000 -9.800000e+000
      vertex  6.273475e+001 -1.445799e+000 -9.800000e+000
    endloop
  endfacet
  facet normal  -0.000000e+000  0.000000e+000 -1.000000e+000
    outer loop
      vertex  6.273475e+001 -1.445799e+000 -9.800000e+000
      vertex  2.265248e+000 -1.645799e+000 -9.800000e+000
      vertex  2.800000e+000  0.000000e+000 -9.800000e+000
    endloop
  endfacet
  facet normal  0.000000e+000  0.000000e+000 -1.000000e+000
    outer loop
      vertex  6.273475e+001 -1.445799e+000 -9.800000e+000
      vertex  2.800000e+000  0.000000e+000 -9.800000e+000
      vertex  6.220000e+001  2.000000e-001 -9.800000e+000
    endloop
  endfacet
  facet normal  0.000000e+000  0.000000e+000  1.000000e+000
    outer loop
      vertex  2.800000e+000  0.000000e+000 -9.000000e+000
      vertex  6.220000e+001  2.000000e-001 -9.000000e+000
      vertex  2.265248e+000  1.645799e+000 -9.000000e+000
    endloop
  endfacet
  facet normal  0.000000e+000  0.000000e+000  1.000000e+000
    outer loop
      vertex  8.652476e-001 -2.662958e+000 -9.000000e+000
      vertex  6.413475e+001 -2.462958e+000 -9.000000e+000
      vertex  6.273475e+001 -1.445799e+000 -9.000000e+000
    endloop
  endfacet
  facet normal  0.000000e+000  0.000000e+000  1.000000e+000
    outer loop
      vertex -1.000000e+001 -4.100000e+000 -9.000000e+000
      vertex  7.500000e+001 -4.100000e+000 -9.000000e+000
      vertex  8.652476e-001 -2.662958e+000 -9.000000e+000
    endloop
  endfacet
  facet normal  0.000000e+000  0.000000e+000  1.000000e+000
    outer loop
      vertex -1.000000e+001 -4.100000e+000 -9.000000e+000
      vertex  8.652476e-001 -2.662958e+000 -9.000000e+000
      vertex -8.652476e-001 -2.662958e+000 -9.000000e+000
    endloop
  endfacet
  facet normal  0.000000e+000  0.000000e+000  1.000000e+000
    outer loop
      vertex -1.000000e+001 -4.100000e+000 -9.000000e+000
      vertex -8.652476e-001 -2.662958e+000 -9.000000e+000
      vertex -2.265248e+000 -1.645799e+000 -9.000000e+000
    endloop
  endfacet
  facet normal  0.000000e+000  0.000000e+000  9.999999e-001
    outer loop
      vertex -1.000000e+001 -4.100000e+000 -9.000000e+000
      vertex -2.265248e+000 -1.645799e+000 -9.000000e+000
      vertex -2.800000e+000  3.428898e-016 -9.000000e+000
    endloop
  endfacet
  facet normal  0.000000e+000  0.000000e+000  9.999999e-001
    outer loop
      vertex -1.000000e+001  4.100000e+000 -9.000000e+000
      vertex -1.000000e+001 -4.100000e+000 -9.000000e+000
      vertex -2.800000e+000  3.428898e-016 -9.000000e+000
    endloop
  endfacet
  facet normal  0.000000e+000  -0.000000e+000  1.000000e+000
    outer loop
      vertex -1.000000e+001  4.100000e+000 -9.000000e+000
      vertex -2.800000e+000  3.428898e-016 -9.000000e+000
      vertex -2.265248e+000  1.645799e+000 -9.000000e+000
    endloop
  endfacet
  facet normal  0.000000e+000  -0.000000e+000  1.000000e+000
    outer loop
      vertex -1.000000e+001  4.100000e+000 -9.000000e+000
      vertex -2.265248e+000  1.645799e+000 -9.000000e+000
      vertex -8.652476e-001  2.662958e+000 -9.000000e+000
    endloop
  endfacet
  facet normal  0.000000e+000  -0.000000e+000  1.000000e+000
    outer loop
      vertex -1.000000e+001  4.100000e+000 -9.000000e+000
      vertex -8.652476e-001  2.662958e+000 -9.000000e+000
      vertex  8.652476e-001  2.662958e+000 -9.000000e+000
    endloop
  endfacet
  facet normal  0.000000e+000  -0.000000e+000  9.999999e-001
    outer loop
      vertex -1.000000e+001  4.100000e+000 -9.000000e+000
      vertex  8.652476e-001  2.662958e+000 -9.000000e+000
      vertex  7.500000e+001  4.100000e+000 -9.000000e+000
    endloop
  endfacet
  facet normal  0.000000e+000  0.000000e+000  1.000000e+000
    outer loop
      vertex  7.500000e+001  4.100000e+000 -9.000000e+000
      vertex  8.652476e-001  2.662958e+000 -9.000000e+000
      vertex  6.413475e+001  2.862958e+000 -9.000000e+000
    endloop
  endfacet
  facet normal  0.000000e+000  0.000000e+000  1.000000e+000
    outer loop
      vertex  7.500000e+001  4.100000e+000 -9.000000e+000
      vertex  6.413475e+001  2.862958e+000 -9.000000e+000
      vertex  6.586525e+001  2.862958e+000 -9.000000e+000
    endloop
  endfacet
  facet normal  -0.000000e+000  0.000000e+000  1.000000e+000
    outer loop
      vertex  7.500000e+001  4.100000e+000 -9.000000e+000
      vertex  6.586525e+001  2.862958e+000 -9.000000e+000
      vertex  6.726525e+001  1.845799e+000 -9.000000e+000
    endloop
  endfacet
  facet normal  -0.000000e+000  0.000000e+000  1.000000e+000
    outer loop
      vertex  7.500000e+001  4.100000e+000 -9.000000e+000
      vertex  6.726525e+001  1.845799e+000 -9.000000e+000
      vertex  6.780000e+001  2.000000e-001 -9.000000e+000
    endloop
  endfacet
  facet normal  -0.000000e+000  0.000000e+000  1.000000e+000
    outer loop
      vertex  7.500000e+001  4.100000e+000 -9.000000e+000
      vertex  6.780000e+001  2.000000e-001 -9.000000e+000
      vertex  6.726525e+001 -1.445799e+000 -9.000000e+000
    endloop
  endfacet
  facet normal  -0.000000e+000  0.000000e+000  1.000000e+000
    outer loop
      vertex  7.500000e+001  4.100000e+000 -9.000000e+000
      vertex  6.726525e+001 -1.445799e+000 -9.000000e+000
      vertex  7.500000e+001 -4.100000e+000 -9.000000e+000
    endloop
  endfacet
  facet normal  -0.000000e+000  -0.000000e+000  1.000000e+000
    outer loop
      vertex  8.652476e-001  2.662958e+000 -9.000000e+000
      vertex  2.265248e+000  1.645799e+000 -9.000000e+000
      vertex  6.220000e+001  2.000000e-001 -9.000000e+000
    endloop
  endfacet
  facet normal  0.000000e+000  -0.000000e+000  1.000000e+000
    outer loop
      vertex  8.652476e-001  2.662958e+000 -9.000000e+000
      vertex  6.220000e+001  2.000000e-001 -9.000000e+000
      vertex  6.273475e+001  1.845799e+000 -9.000000e+000
    endloop
  endfacet
  facet normal  0.000000e+000  -0.000000e+000  1.000000e+000
    outer loop
      vertex  8.652476e-001  2.662958e+000 -9.000000e+000
      vertex  6.273475e+001  1.845799e+000 -9.000000e+000
      vertex  6.413475e+001  2.862958e+000 -9.000000e+000
    endloop
  endfacet
  facet normal  0.000000e+000  0.000000e+000  1.000000e+000
    outer loop
      vertex  7.500000e+001 -4.100000e+000 -9.000000e+000
      vertex  6.726525e+001 -1.445799e+000 -9.000000e+000
      vertex  6.586525e+001 -2.462958e+000 -9.000000e+000
    endloop
  endfacet
  facet normal  0.000000e+000  0.000000e+000  1.000000e+000
    outer loop
      vertex  7.500000e+001 -4.100000e+000 -9.000000e+000
      vertex  6.586525e+001 -2.462958e+000 -9.000000e+000
      vertex  6.413475e+001 -2.462958e+000 -9.000000e+000
    endloop
  endfacet
  facet normal  0.000000e+000  0.000000e+000  1.000000e+000
    outer loop
      vertex  7.500000e+001 -4.100000e+000 -9.000000e+000
      vertex  6.413475e+001 -2.462958e+000 -9.000000e+000
      vertex  8.652476e-001 -2.662958e+000 -9.000000e+000
    endloop
  endfacet
  facet normal  -0.000000e+000  0.000000e+000  1.000000e+000
    outer loop
      vertex  6.220000e+001  2.000000e-001 -9.000000e+000
      vertex  2.800000e+000  0.000000e+000 -9.000000e+000
      vertex  6.273475e+001 -1.445799e+000 -9.000000e+000
    endloop
  endfacet
  facet normal  0.000000e+000  0.000000e+000  1.000000e+000
    outer loop
      vertex  6.273475e+001 -1.445799e+000 -9.000000e+000
      vertex  2.800000e+000  0.000000e+000 -9.000000e+000
      vertex  2.265248e+000 -1.645799e+000 -9.000000e+000
    endloop
  endfacet
  facet normal  -0.000000e+000  0.000000e+000  9.999999e-001
    outer loop
      vertex  6.273475e+001 -1.445799e+000 -9.000000e+000
      vertex  2.265248e+000 -1.645799e+000 -9.000000e+000
      vertex  8.652476e-001 -2.662958e+000 -9.000000e+000
    endloop
  endfacet
  facet normal  5.877859e-001  8.090165e-001  -0.000000e+000
    outer loop
      vertex  6.413475e+001 -2.462958e+000 -9.000000e+000
      vertex  6.273475e+001 -1.445799e+000 -9.800000e+000
      vertex  6.273475e+001 -1.445799e+000 -9.000000e+000
    endloop
  endfacet
  facet normal  9.510567e-001  3.090167e-001  0.000000e+000
    outer loop
      vertex  6.273475e+001 -1.445799e+000 -9.000000e+000
      vertex  6.273475e+001 -1.445799e+000 -9.800000e+000
      vertex  6.220000e+001  2.000000e-001 -9.800000e+000
    endloop
  endfacet
  facet normal  9.510567e-001  3.090167e-001  -0.000000e+000
    outer loop
      vertex  6.273475e+001 -1.445799e+000 -9.000000e+000
      vertex  6.220000e+001  2.000000e-001 -9.800000e+000
      vertex  6.220000e+001  2.000000e-001 -9.000000e+000
    endloop
  endfacet
  facet normal  5.877859e-001  8.090165e-001  0.000000e+000
    outer loop
      vertex  6.273475e+001 -1.445799e+000 -9.800000e+000
      vertex  6.413475e+001 -2.462958e+000 -9.000000e+000
      vertex  6.413475e+001 -2.462958e+000 -9.800000e+000
    endloop
  endfacet
  facet normal  0.000000e+000  9.999999e-001  0.000000e+000
    outer loop
      vertex  6.413475e+001 -2.462958e+000 -9.800000e+000
      vertex  6.413475e+001 -2.462958e+000 -9.000000e+000
      vertex  6.586525e+001 -2.462958e+000 -9.000000e+000
    endloop
  endfacet
  facet normal  0.000000e+000  9.999999e-001  0.000000e+000
    outer loop
      vertex  6.413475e+001 -2.462958e+000 -9.800000e+000
      vertex  6.586525e+001 -2.462958e+000 -9.000000e+000
      vertex  6.586525e+001 -2.462958e+000 -9.800000e+000
    endloop
  endfacet
  facet normal -5.877849e-001  8.090173e-001  0.000000e+000
    outer loop
      vertex  6.586525e+001 -2.462958e+000 -9.800000e+000
      vertex  6.586525e+001 -2.462958e+000 -9.000000e+000
      vertex  6.726525e+001 -1.445799e+000 -9.000000e+000
    endloop
  endfacet
  facet normal -5.877849e-001  8.090173e-001  0.000000e+000
    outer loop
      vertex  6.586525e+001 -2.462958e+000 -9.800000e+000
      vertex  6.726525e+001 -1.445799e+000 -9.000000e+000
      vertex  6.726525e+001 -1.445799e+000 -9.800000e+000
    endloop
  endfacet
  facet normal -9.510567e-001  3.090167e-001  0.000000e+000
    outer loop
      vertex  6.726525e+001 -1.445799e+000 -9.800000e+000
      vertex  6.726525e+001 -1.445799e+000 -9.000000e+000
      vertex  6.780000e+001  2.000000e-001 -9.000000e+000
    endloop
  endfacet
  facet normal -9.510567e-001  3.090167e-001  0.000000e+000
    outer loop
      vertex  6.726525e+001 -1.445799e+000 -9.800000e+000
      vertex  6.780000e+001  2.000000e-001 -9.000000e+000
      vertex  6.780000e+001  2.000000e-001 -9.800000e+000
    endloop
  endfacet
  facet normal  5.877859e-001  8.090165e-001  -0.000000e+000
    outer loop
      vertex  6.413475e+001 -2.462958e+000  9.800000e+000
      vertex  6.273475e+001 -1.445799e+000  9.000000e+000
      vertex  6.273475e+001 -1.445799e+000  9.800000e+000
    endloop
  endfacet
  facet normal  9.510567e-001  3.090167e-001  0.000000e+000
    outer loop
      vertex  6.273475e+001 -1.445799e+000  9.800000e+000
      vertex  6.273475e+001 -1.445799e+000  9.000000e+000
      vertex  6.220000e+001  2.000000e-001  9.000000e+000
    endloop
  endfacet
  facet normal  9.510567e-001  3.090167e-001  -0.000000e+000
    outer loop
      vertex  6.273475e+001 -1.445799e+000  9.800000e+000
      vertex  6.220000e+001  2.000000e-001  9.000000e+000
      vertex  6.220000e+001  2.000000e-001  9.800000e+000
    endloop
  endfacet
  facet normal  5.877859e-001  8.090165e-001  0.000000e+000
    outer loop
      vertex  6.273475e+001 -1.445799e+000  9.000000e+000
      vertex  6.413475e+001 -2.462958e+000  9.800000e+000
      vertex  6.413475e+001 -2.462958e+000  9.000000e+000
    endloop
  endfacet
  facet normal  0.000000e+000  9.999999e-001  0.000000e+000
    outer loop
      vertex  6.413475e+001 -2.462958e+000  9.000000e+000
      vertex  6.413475e+001 -2.462958e+000  9.800000e+000
      vertex  6.586525e+001 -2.462958e+000  9.800000e+000
    endloop
  endfacet
  facet normal  0.000000e+000  9.999999e-001  0.000000e+000
    outer loop
      vertex  6.413475e+001 -2.462958e+000  9.000000e+000
      vertex  6.586525e+001 -2.462958e+000  9.800000e+000
      vertex  6.586525e+001 -2.462958e+000  9.000000e+000
    endloop
  endfacet
  facet normal -5.877849e-001  8.090173e-001  0.000000e+000
    outer loop
      vertex  6.586525e+001 -2.462958e+000  9.000000e+000
      vertex  6.586525e+001 -2.462958e+000  9.800000e+000
      vertex  6.726525e+001 -1.445799e+000  9.800000e+000
    endloop
  endfacet
  facet normal -5.877849e-001  8.090173e-001  0.000000e+000
    outer loop
      vertex  6.586525e+001 -2.462958e+000  9.000000e+000
      vertex  6.726525e+001 -1.445799e+000  9.800000e+000
      vertex  6.726525e+001 -1.445799e+000  9.000000e+000
    endloop
  endfacet
  facet normal -9.510567e-001  3.090167e-001  0.000000e+000
    outer loop
      vertex  6.726525e+001 -1.445799e+000  9.000000e+000
      vertex  6.726525e+001 -1.445799e+000  9.800000e+000
      vertex  6.780000e+001  2.000000e-001  9.800000e+000
    endloop
  endfacet
  facet normal -9.510567e-001  3.090167e-001  0.000000e+000
    outer loop
      vertex  6.726525e+001 -1.445799e+000  9.000000e+000
      vertex  6.780000e+001  2.000000e-001  9.800000e+000
      vertex  6.780000e+001  2.000000e-001  9.000000e+000
    endloop
  endfacet
  facet normal -5.877848e-001 -8.090173e-001  0.000000e+000
    outer loop
      vertex  6.586525e+001  2.862958e+000 -9.000000e+000
      vertex  6.726525e+001  1.845799e+000 -9.800000e+000
      vertex  6.726525e+001  1.845799e+000 -9.000000e+000
    endloop
  endfacet
  facet normal -9.510567e-001 -3.090167e-001  -0.000000e+000
    outer loop
      vertex  6.726525e+001  1.845799e+000 -9.000000e+000
      vertex  6.726525e+001  1.845799e+000 -9.800000e+000
      vertex  6.780000e+001  2.000000e-001 -9.800000e+000
    endloop
  endfacet
  facet normal -9.510567e-001 -3.090167e-001  0.000000e+000
    outer loop
      vertex  6.726525e+001  1.845799e+000 -9.000000e+000
      vertex  6.780000e+001  2.000000e-001 -9.800000e+000
      vertex  6.780000e+001  2.000000e-001 -9.000000e+000
    endloop
  endfacet
  facet normal -5.877848e-001 -8.090173e-001  -0.000000e+000
    outer loop
      vertex  6.726525e+001  1.845799e+000 -9.800000e+000
      vertex  6.586525e+001  2.862958e+000 -9.000000e+000
      vertex  6.586525e+001  2.862958e+000 -9.800000e+000
    endloop
  endfacet
  facet normal  0.000000e+000 -9.999999e-001  0.000000e+000
    outer loop
      vertex  6.586525e+001  2.862958e+000 -9.800000e+000
      vertex  6.586525e+001  2.862958e+000 -9.000000e+000
      vertex  6.413475e+001  2.862958e+000 -9.000000e+000
    endloop
  endfacet
  facet normal  0.000000e+000 -9.999999e-001  0.000000e+000
    outer loop
      vertex  6.586525e+001  2.862958e+000 -9.800000e+000
      vertex  6.413475e+001  2.862958e+000 -9.000000e+000
      vertex  6.413475e+001  2.862958e+000 -9.800000e+000
    endloop
  endfacet
  facet normal  5.877858e-001 -8.090166e-001  0.000000e+000
    outer loop
      vertex  6.413475e+001  2.862958e+000 -9.800000e+000
      vertex  6.413475e+001  2.862958e+000 -9.000000e+000
      vertex  6.273475e+001  1.845799e+000 -9.000000e+000
    endloop
  endfacet
  facet normal  5.877858e-001 -8.090166e-001  0.000000e+000
    outer loop
      vertex  6.413475e+001  2.862958e+000 -9.800000e+000
      vertex  6.273475e+001  1.845799e+000 -9.000000e+000
      vertex  6.273475e+001  1.845799e+000 -9.800000e+000
    endloop
  endfacet
  facet normal  9.510567e-001 -3.090167e-001  0.000000e+000
    outer loop
      vertex  6.273475e+001  1.845799e+000 -9.800000e+000
      vertex  6.273475e+001  1.845799e+000 -9.000000e+000
      vertex  6.220000e+001  2.000000e-001 -9.000000e+000
    endloop
  endfacet
  facet normal  9.510567e-001 -3.090167e-001  0.000000e+000
    outer loop
      vertex  6.273475e+001  1.845799e+000 -9.800000e+000
      vertex  6.220000e+001  2.000000e-001 -9.000000e+000
      vertex  6.220000e+001  2.000000e-001 -9.800000e+000
    endloop
  endfacet
  facet normal -5.877848e-001 -8.090173e-001  0.000000e+000
    outer loop
      vertex  6.586525e+001  2.862958e+000  9.800000e+000
      vertex  6.726525e+001  1.845799e+000  9.000000e+000
      vertex  6.726525e+001  1.845799e+000  9.800000e+000
    endloop
  endfacet
  facet normal -9.510567e-001 -3.090167e-001  -0.000000e+000
    outer loop
      vertex  6.726525e+001  1.845799e+000  9.800000e+000
      vertex  6.726525e+001  1.845799e+000  9.000000e+000
      vertex  6.780000e+001  2.000000e-001  9.000000e+000
    endloop
  endfacet
  facet normal -9.510567e-001 -3.090167e-001  0.000000e+000
    outer loop
      vertex  6.726525e+001  1.845799e+000  9.800000e+000
      vertex  6.780000e+001  2.000000e-001  9.000000e+000
      vertex  6.780000e+001  2.000000e-001  9.800000e+000
    endloop
  endfacet
  facet normal -5.877848e-001 -8.090173e-001  -0.000000e+000
    outer loop
      vertex  6.726525e+001  1.845799e+000  9.000000e+000
      vertex  6.586525e+001  2.862958e+000  9.800000e+000
      vertex  6.586525e+001  2.862958e+000  9.000000e+000
    endloop
  endfacet
  facet normal  0.000000e+000 -9.999999e-001  0.000000e+000
    outer loop
      vertex  6.586525e+001  2.862958e+000  9.000000e+000
      vertex  6.586525e+001  2.862958e+000  9.800000e+000
      vertex  6.413475e+001  2.862958e+000  9.800000e+000
    endloop
  endfacet
  facet normal  0.000000e+000 -9.999999e-001  0.000000e+000
    outer loop
      vertex  6.586525e+001  2.862958e+000  9.000000e+000
      vertex  6.413475e+001  2.862958e+000  9.800000e+000
      vertex  6.413475e+001  2.862958e+000  9.000000e+000
    endloop
  endfacet
  facet normal  5.877858e-001 -8.090166e-001  0.000000e+000
    outer loop
      vertex  6.413475e+001  2.862958e+000  9.000000e+000
      vertex  6.413475e+001  2.862958e+000  9.800000e+000
      vertex  6.273475e+001  1.845799e+000  9.800000e+000
    endloop
  endfacet
  facet normal  5.877858e-001 -8.090166e-001  0.000000e+000
    outer loop
      vertex  6.413475e+001  2.862958e+000  9.000000e+000
      vertex  6.273475e+001  1.845799e+000  9.800000e+000
      vertex  6.273475e+001  1.845799e+000  9.000000e+000
    endloop
  endfacet
  facet normal  9.510567e-001 -3.090167e-001  0.000000e+000
    outer loop
      vertex  6.273475e+001  1.845799e+000  9.000000e+000
      vertex  6.273475e+001  1.845799e+000  9.800000e+000
      vertex  6.220000e+001  2.000000e-001  9.800000e+000
    endloop
  endfacet
  facet normal  9.510567e-001 -3.090167e-001  0.000000e+000
    outer loop
      vertex  6.273475e+001  1.845799e+000  9.000000e+000
      vertex  6.220000e+001  2.000000e-001  9.800000e+000
      vertex  6.220000e+001  2.000000e-001  9.000000e+000
    endloop
  endfacet
  facet normal  5.877852e-001 -8.090170e-001  0.000000e+000
    outer loop
      vertex -8.652476e-001  2.662958e+000  9.000000e+000
      vertex -2.265248e+000  1.645799e+000  9.800000e+000
      vertex -2.265248e+000  1.645799e+000  9.000000e+000
    endloop
  endfacet
  facet normal  9.510566e-001 -3.090170e-001  0.000000e+000
    outer loop
      vertex -2.265248e+000  1.645799e+000  9.000000e+000
      vertex -2.265248e+000  1.645799e+000  9.800000e+000
      vertex -2.800000e+000  3.428898e-016  9.800000e+000
    endloop
  endfacet
  facet normal  9.510566e-001 -3.090170e-001  0.000000e+000
    outer loop
      vertex -2.265248e+000  1.645799e+000  9.000000e+000
      vertex -2.800000e+000  3.428898e-016  9.800000e+000
      vertex -2.800000e+000  3.428898e-016  9.000000e+000
    endloop
  endfacet
  facet normal  5.877852e-001 -8.090170e-001  0.000000e+000
    outer loop
      vertex -2.265248e+000  1.645799e+000  9.800000e+000
      vertex -8.652476e-001  2.662958e+000  9.000000e+000
      vertex -8.652476e-001  2.662958e+000  9.800000e+000
    endloop
  endfacet
  facet normal  0.000000e+000 -1.000000e+000  0.000000e+000
    outer loop
      vertex -8.652476e-001  2.662958e+000  9.800000e+000
      vertex -8.652476e-001  2.662958e+000  9.000000e+000
      vertex  8.652476e-001  2.662958e+000  9.000000e+000
    endloop
  endfacet
  facet normal  0.000000e+000 -1.000000e+000  0.000000e+000
    outer loop
      vertex -8.652476e-001  2.662958e+000  9.800000e+000
      vertex  8.652476e-001  2.662958e+000  9.000000e+000
      vertex  8.652476e-001  2.662958e+000  9.800000e+000
    endloop
  endfacet
  facet normal -5.877852e-001 -8.090170e-001  -0.000000e+000
    outer loop
      vertex  8.652476e-001  2.662958e+000  9.800000e+000
      vertex  8.652476e-001  2.662958e+000  9.000000e+000
      vertex  2.265248e+000  1.645799e+000  9.000000e+000
    endloop
  endfacet
  facet normal -5.877852e-001 -8.090170e-001  0.000000e+000
    outer loop
      vertex  8.652476e-001  2.662958e+000  9.800000e+000
      vertex  2.265248e+000  1.645799e+000  9.000000e+000
      vertex  2.265248e+000  1.645799e+000  9.800000e+000
    endloop
  endfacet
  facet normal -9.510566e-001 -3.090170e-001  -0.000000e+000
    outer loop
      vertex  2.265248e+000  1.645799e+000  9.800000e+000
      vertex  2.265248e+000  1.645799e+000  9.000000e+000
      vertex  2.800000e+000  0.000000e+000  9.000000e+000
    endloop
  endfacet
  facet normal -9.510566e-001 -3.090170e-001  0.000000e+000
    outer loop
      vertex  2.265248e+000  1.645799e+000  9.800000e+000
      vertex  2.800000e+000  0.000000e+000  9.000000e+000
      vertex  2.800000e+000  0.000000e+000  9.800000e+000
    endloop
  endfacet
  facet normal  5.877852e-001 -8.090170e-001  0.000000e+000
    outer loop
      vertex -8.652476e-001  2.662958e+000 -9.800000e+000
      vertex -2.265248e+000  1.645799e+000 -9.000000e+000
      vertex -2.265248e+000  1.645799e+000 -9.800000e+000
    endloop
  endfacet
  facet normal  9.510566e-001 -3.090170e-001  0.000000e+000
    outer loop
      vertex -2.265248e+000  1.645799e+000 -9.800000e+000
      vertex -2.265248e+000  1.645799e+000 -9.000000e+000
      vertex -2.800000e+000  3.428898e-016 -9.000000e+000
    endloop
  endfacet
  facet normal  9.510566e-001 -3.090170e-001  0.000000e+000
    outer loop
      vertex -2.265248e+000  1.645799e+000 -9.800000e+000
      vertex -2.800000e+000  3.428898e-016 -9.000000e+000
      vertex -2.800000e+000  3.428898e-016 -9.800000e+000
    endloop
  endfacet
  facet normal  5.877852e-001 -8.090170e-001  0.000000e+000
    outer loop
      vertex -2.265248e+000  1.645799e+000 -9.000000e+000
      vertex -8.652476e-001  2.662958e+000 -9.800000e+000
      vertex -8.652476e-001  2.662958e+000 -9.000000e+000
    endloop
  endfacet
  facet normal  0.000000e+000 -1.000000e+000  0.000000e+000
    outer loop
      vertex -8.652476e-001  2.662958e+000 -9.000000e+000
      vertex -8.652476e-001  2.662958e+000 -9.800000e+000
      vertex  8.652476e-001  2.662958e+000 -9.800000e+000
    endloop
  endfacet
  facet normal  0.000000e+000 -1.000000e+000  0.000000e+000
    outer loop
      vertex -8.652476e-001  2.662958e+000 -9.000000e+000
      vertex  8.652476e-001  2.662958e+000 -9.800000e+000
      vertex  8.652476e-001  2.662958e+000 -9.000000e+000
    endloop
  endfacet
  facet normal -5.877852e-001 -8.090170e-001  -0.000000e+000
    outer loop
      vertex  8.652476e-001  2.662958e+000 -9.000000e+000
      vertex  8.652476e-001  2.662958e+000 -9.800000e+000
      vertex  2.265248e+000  1.645799e+000 -9.800000e+000
    endloop
  endfacet
  facet normal -5.877852e-001 -8.090170e-001  0.000000e+000
    outer loop
      vertex  8.652476e-001  2.662958e+000 -9.000000e+000
      vertex  2.265248e+000  1.645799e+000 -9.800000e+000
      vertex  2.265248e+000  1.645799e+000 -9.000000e+000
    endloop
  endfacet
  facet normal -9.510566e-001 -3.090170e-001  -0.000000e+000
    outer loop
      vertex  2.265248e+000  1.645799e+000 -9.000000e+000
      vertex  2.265248e+000  1.645799e+000 -9.800000e+000
      vertex  2.800000e+000  0.000000e+000 -9.800000e+000
    endloop
  endfacet
  facet normal -9.510566e-001 -3.090170e-001  0.000000e+000
    outer loop
      vertex  2.265248e+000  1.645799e+000 -9.000000e+000
      vertex  2.800000e+000  0.000000e+000 -9.800000e+000
      vertex  2.800000e+000  0.000000e+000 -9.000000e+000
    endloop
  endfacet
  facet normal -5.877852e-001  8.090170e-001  0.000000e+000
    outer loop
      vertex  8.652476e-001 -2.662958e+000  9.000000e+000
      vertex  2.265248e+000 -1.645799e+000  9.800000e+000
      vertex  2.265248e+000 -1.645799e+000  9.000000e+000
    endloop
  endfacet
  facet normal -9.510566e-001  3.090170e-001  0.000000e+000
    outer loop
      vertex  2.265248e+000 -1.645799e+000  9.000000e+000
      vertex  2.265248e+000 -1.645799e+000  9.800000e+000
      vertex  2.800000e+000  0.000000e+000  9.800000e+000
    endloop
  endfacet
  facet normal -9.510566e-001  3.090170e-001  0.000000e+000
    outer loop
      vertex  2.265248e+000 -1.645799e+000  9.000000e+000
      vertex  2.800000e+000  0.000000e+000  9.800000e+000
      vertex  2.800000e+000  0.000000e+000  9.000000e+000
    endloop
  endfacet
  facet normal -5.877852e-001  8.090170e-001  0.000000e+000
    outer loop
      vertex  2.265248e+000 -1.645799e+000  9.800000e+000
      vertex  8.652476e-001 -2.662958e+000  9.000000e+000
      vertex  8.652476e-001 -2.662958e+000  9.800000e+000
    endloop
  endfacet
  facet normal  0.000000e+000  1.000000e+000  0.000000e+000
    outer loop
      vertex  8.652476e-001 -2.662958e+000  9.800000e+000
      vertex  8.652476e-001 -2.662958e+000  9.000000e+000
      vertex -8.652476e-001 -2.662958e+000  9.000000e+000
    endloop
  endfacet
  facet normal  0.000000e+000  1.000000e+000  0.000000e+000
    outer loop
      vertex  8.652476e-001 -2.662958e+000  9.800000e+000
      vertex -8.652476e-001 -2.662958e+000  9.000000e+000
      vertex -8.652476e-001 -2.662958e+000  9.800000e+000
    endloop
  endfacet
  facet normal  5.877852e-001  8.090170e-001  0.000000e+000
    outer loop
      vertex -8.652476e-001 -2.662958e+000  9.800000e+000
      vertex -8.652476e-001 -2.662958e+000  9.000000e+000
      vertex -2.265248e+000 -1.645799e+000  9.000000e+000
    endloop
  endfacet
  facet normal  5.877852e-001  8.090170e-001  -0.000000e+000
    outer loop
      vertex -8.652476e-001 -2.662958e+000  9.800000e+000
      vertex -2.265248e+000 -1.645799e+000  9.000000e+000
      vertex -2.265248e+000 -1.645799e+000  9.800000e+000
    endloop
  endfacet
  facet normal  9.510566e-001  3.090170e-001  0.000000e+000
    outer loop
      vertex -2.265248e+000 -1.645799e+000  9.800000e+000
      vertex -2.265248e+000 -1.645799e+000  9.000000e+000
      vertex -2.800000e+000  3.428898e-016  9.000000e+000
    endloop
  endfacet
  facet normal  9.510566e-001  3.090170e-001  -0.000000e+000
    outer loop
      vertex -2.265248e+000 -1.645799e+000  9.800000e+000
      vertex -2.800000e+000  3.428898e-016  9.000000e+000
      vertex -2.800000e+000  3.428898e-016  9.800000e+000
    endloop
  endfacet
  facet normal -5.877852e-001  8.090170e-001  0.000000e+000
    outer loop
      vertex  8.652476e-001 -2.662958e+000 -9.800000e+000
      vertex  2.265248e+000 -1.645799e+000 -9.000000e+000
      vertex  2.265248e+000 -1.645799e+000 -9.800000e+000
    endloop
  endfacet
  facet normal -9.510566e-001  3.090170e-001  0.000000e+000
    outer loop
      vertex  2.265248e+000 -1.645799e+000 -9.800000e+000
      vertex  2.265248e+000 -1.645799e+000 -9.000000e+000
      vertex  2.800000e+000  0.000000e+000 -9.000000e+000
    endloop
  endfacet
  facet normal -9.510566e-001  3.090170e-001  0.000000e+000
    outer loop
      vertex  2.265248e+000 -1.645799e+000 -9.800000e+000
      vertex  2.800000e+000  0.000000e+000 -9.000000e+000
      vertex  2.800000e+000  0.000000e+000 -9.800000e+000
    endloop
  endfacet
  facet normal -5.877852e-001  8.090170e-001  0.000000e+000
    outer loop
      vertex  2.265248e+000 -1.645799e+000 -9.000000e+000
      vertex  8.652476e-001 -2.662958e+000 -9.800000e+000
      vertex  8.652476e-001 -2.662958e+000 -9.000000e+000
    endloop
  endfacet
  facet normal  0.000000e+000  1.000000e+000  0.000000e+000
    outer loop
      vertex  8.652476e-001 -2.662958e+000 -9.000000e+000
      vertex  8.652476e-001 -2.662958e+000 -9.800000e+000
      vertex -8.652476e-001 -2.662958e+000 -9.800000e+000
    endloop
  endfacet
  facet normal  0.000000e+000  1.000000e+000  0.000000e+000
    outer loop
      vertex  8.652476e-001 -2.662958e+000 -9.000000e+000
      vertex -8.652476e-001 -2.662958e+000 -9.800000e+000
      vertex -8.652476e-001 -2.662958e+000 -9.000000e+000
    endloop
  endfacet
  facet normal  5.877852e-001  8.090170e-001  0.000000e+000
    outer loop
      vertex -8.652476e-001 -2.662958e+000 -9.000000e+000
      vertex -8.652476e-001 -2.662958e+000 -9.800000e+000
      vertex -2.265248e+000 -1.645799e+000 -9.800000e+000
    endloop
  endfacet
  facet normal  5.877852e-001  8.090170e-001  -0.000000e+000
    outer loop
      vertex -8.652476e-001 -2.662958e+000 -9.000000e+000
      vertex -2.265248e+000 -1.645799e+000 -9.800000e+000
      vertex -2.265248e+000 -1.645799e+000 -9.000000e+000
    endloop
  endfacet
  facet normal  9.510566e-001  3.090170e-001  0.000000e+000
    outer loop
      vertex -2.265248e+000 -1.645799e+000 -9.000000e+000
      vertex -2.265248e+000 -1.645799e+000 -9.800000e+000
      vertex -2.800000e+000  3.428898e-016 -9.800000e+000
    endloop
  endfacet
  facet normal  9.510566e-001  3.090170e-001  -0.000000e+000
    outer loop
      vertex -2.265248e+000 -1.645799e+000 -9.000000e+000
      vertex -2.800000e+000  3.428898e-016 -9.800000e+000
      vertex -2.800000e+000  3.428898e-016 -9.000000e+000
    endloop
  endfacet
  facet normal  1.000000e+000  0.000000e+000  0.000000e+000
    outer loop
      vertex  7.500000e+001  4.900000e+000 -9.800000e+000
      vertex  7.500000e+001  4.100000e+000 -9.000000e+000
      vertex  7.500000e+001 -4.900000e+000 -9.800000e+000
    endloop
  endfacet
  facet normal  1.000000e+000  0.000000e+000  0.000000e+000
    outer loop
      vertex  7.500000e+001 -4.900000e+000 -9.800000e+000
      vertex  7.500000e+001  4.100000e+000 -9.000000e+000
      vertex  7.500000e+001 -4.100000e+000 -9.000000e+000
    endloop
  endfacet
  facet normal  9.999999e-001  0.000000e+000  0.000000e+000
    outer loop
      vertex  7.500000e+001 -4.900000e+000 -9.800000e+000
      vertex  7.500000e+001 -4.100000e+000 -9.000000e+000
      vertex  7.500000e+001 -4.900000e+000  9.800000e+000
    endloop
  endfacet
  facet normal  1.000000e+000  0.000000e+000  0.000000e+000
    outer loop
      vertex  7.500000e+001 -4.900000e+000  9.800000e+000
      vertex  7.500000e+001 -4.100000e+000 -9.000000e+000
      vertex  7.500000e+001 -4.100000e+000  9.000000e+000
    endloop
  endfacet
  facet normal  1.000000e+000  0.000000e+000  -0.000000e+000
    outer loop
      vertex  7.500000e+001 -4.900000e+000  9.800000e+000
      vertex  7.500000e+001 -4.100000e+000  9.000000e+000
      vertex  7.500000e+001  4.900000e+000  9.800000e+000
    endloop
  endfacet
  facet normal  1.000000e+000  0.000000e+000  0.000000e+000
    outer loop
      vertex  7.500000e+001  4.900000e+000  9.800000e+000
      vertex  7.500000e+001 -4.100000e+000  9.000000e+000
      vertex  7.500000e+001  4.100000e+000  9.000000e+000
    endloop
  endfacet
  facet normal  9.999999e-001  -0.000000e+000  0.000000e+000
    outer loop
      vertex  7.500000e+001  4.900000e+000  9.800000e+000
      vertex  7.500000e+001  4.100000e+000  9.000000e+000
      vertex  7.500000e+001  4.900000e+000 -9.800000e+000
    endloop
  endfacet
  facet normal  1.000000e+000  0.000000e+000  0.000000e+000
    outer loop
      vertex  7.500000e+001  4.900000e+000 -9.800000e+000
      vertex  7.500000e+001  4.100000e+000  9.000000e+000
      vertex  7.500000e+001  4.100000e+000 -9.000000e+000
    endloop
  endfacet
  facet normal -9.999999e-001  -0.000000e+000  0.000000e+000
    outer loop
      vertex -1.000000e+001 -4.900000e+000  9.800000e+000
      vertex -1.000000e+001 -4.100000e+000 -9.000000e+000
      vertex -1.000000e+001 -4.900000e+000 -9.800000e+000
    endloop
  endfacet
  facet normal -1.000000e+000  0.000000e+000  0.000000e+000
    outer loop
      vertex -1.000000e+001 -4.900000e+000 -9.800000e+000
      vertex -1.000000e+001 -4.100000e+000 -9.000000e+000
      vertex -1.000000e+001  4.100000e+000 -9.000000e+000
    endloop
  endfacet
  facet normal -1.000000e+000  0.000000e+000  -0.000000e+000
    outer loop
      vertex -1.000000e+001 -4.900000e+000 -9.800000e+000
      vertex -1.000000e+001  4.100000e+000 -9.000000e+000
      vertex -1.000000e+001  4.900000e+000 -9.800000e+000
    endloop
  endfacet
  facet normal -1.000000e+000  0.000000e+000  0.000000e+000
    outer loop
      vertex -1.000000e+001 -4.100000e+000 -9.000000e+000
      vertex -1.000000e+001 -4.900000e+000  9.800000e+000
      vertex -1.000000e+001 -4.100000e+000  9.000000e+000
    endloop
  endfacet
  facet normal -1.000000e+000  0.000000e+000  0.000000e+000
    outer loop
      vertex -1.000000e+001 -4.100000e+000  9.000000e+000
      vertex -1.000000e+001 -4.900000e+000  9.800000e+000
      vertex -1.000000e+001  4.900000e+000  9.800000e+000
    endloop
  endfacet
  facet normal -1.000000e+000  0.000000e+000  0.000000e+000
    outer loop
      vertex -1.000000e+001 -4.100000e+000  9.000000e+000
      vertex -1.000000e+001  4.900000e+000  9.800000e+000
      vertex -1.000000e+001  4.100000e+000  9.000000e+000
    endloop
  endfacet
  facet normal -9.999999e-001  0.000000e+000  0.000000e+000
    outer loop
      vertex -1.000000e+001  4.100000e+000  9.000000e+000
      vertex -1.000000e+001  4.900000e+000  9.800000e+000
      vertex -1.000000e+001  4.900000e+000 -9.800000e+000
    endloop
  endfacet
  facet normal -1.000000e+000  0.000000e+000  0.000000e+000
    outer loop
      vertex -1.000000e+001  4.100000e+000  9.000000e+000
      vertex -1.000000e+001  4.900000e+000 -9.800000e+000
      vertex -1.000000e+001  4.100000e+000 -9.000000e+000
    endloop
  endfacet
  facet normal  0.000000e+000  1.000000e+000  0.000000e+000
    outer loop
      vertex -1.000000e+001 -4.100000e+000  9.000000e+000
      vertex  7.500000e+001 -4.100000e+000  9.000000e+000
      vertex -1.000000e+001 -4.100000e+000 -9.000000e+000
    endloop
  endfacet
  facet normal  0.000000e+000  1.000000e+000  0.000000e+000
    outer loop
      vertex -1.000000e+001 -4.100000e+000 -9.000000e+000
      vertex  7.500000e+001 -4.100000e+000  9.000000e+000
      vertex  7.500000e+001 -4.100000e+000 -9.000000e+000
    endloop
  endfacet
  facet normal  0.000000e+000 -1.000000e+000  0.000000e+000
    outer loop
      vertex -1.000000e+001  4.100000e+000 -9.000000e+000
      vertex  7.500000e+001  4.100000e+000 -9.000000e+000
      vertex -1.000000e+001  4.100000e+000  9.000000e+000
    endloop
  endfacet
  facet normal  0.000000e+000 -1.000000e+000  0.000000e+000
    outer loop
      vertex -1.000000e+001  4.100000e+000  9.000000e+000
      vertex  7.500000e+001  4.100000e+000 -9.000000e+000
      vertex  7.500000e+001  4.100000e+000  9.000000e+000
    endloop
  endfacet
  facet normal  0.000000e+000  9.999999e-001  0.000000e+000
    outer loop
      vertex -1.000000e+001  4.900000e+000 -9.800000e+000
      vertex -1.000000e+001  4.900000e+000  9.800000e+000
      vertex  7.500000e+001  4.900000e+000 -9.800000e+000
    endloop
  endfacet
  facet normal  0.000000e+000  9.999999e-001  -0.000000e+000
    outer loop
      vertex  7.500000e+001  4.900000e+000 -9.800000e+000
      vertex -1.000000e+001  4.900000e+000  9.800000e+000
      vertex  7.500000e+001  4.900000e+000  9.800000e+000
    endloop
  endfacet
  facet normal  0.000000e+000 -9.999999e-001  0.000000e+000
    outer loop
      vertex -1.000000e+001 -4.900000e+000  9.800000e+000
      vertex -1.000000e+001 -4.900000e+000 -9.800000e+000
      vertex  7.500000e+001 -4.900000e+000  9.800000e+000
    endloop
  endfacet
  facet normal  0.000000e+000 -9.999999e-001  -0.000000e+000
    outer loop
      vertex  7.500000e+001 -4.900000e+000  9.800000e+000
      vertex -1.000000e+001 -4.900000e+000 -9.800000e+000
      vertex  7.500000e+001 -4.900000e+000 -9.800000e+000
    endloop
  endfacet
endsolid CATIA STL
