solid CATIA STL
  facet normal  0.000000e+000  0.000000e+000  9.999999e-001
    outer loop
      vertex  2.265248e+000 -3.485420e+001  5.200000e+000
      vertex  8.652476e-001  3.383704e+001  5.200000e+000
      vertex  8.652476e-001 -3.383704e+001  5.200000e+000
    endloop
  endfacet
  facet normal  -0.000000e+000  0.000000e+000  1.000000e+000
    outer loop
      vertex  8.500000e+000  4.230000e+001  5.200000e+000
      vertex -8.500000e+000  4.230000e+001  5.200000e+000
      vertex -8.652476e-001  3.916296e+001  5.200000e+000
    endloop
  endfacet
  facet normal  0.000000e+000  0.000000e+000  1.000000e+000
    outer loop
      vertex  8.500000e+000  4.230000e+001  5.200000e+000
      vertex -8.652476e-001  3.916296e+001  5.200000e+000
      vertex  8.652476e-001  3.916296e+001  5.200000e+000
    endloop
  endfacet
  facet normal  -0.000000e+000  0.000000e+000  1.000000e+000
    outer loop
      vertex  8.500000e+000  4.230000e+001  5.200000e+000
      vertex  8.652476e-001  3.916296e+001  5.200000e+000
      vertex  2.265248e+000  3.814580e+001  5.200000e+000
    endloop
  endfacet
  facet normal  -0.000000e+000  0.000000e+000  9.999999e-001
    outer loop
      vertex  8.500000e+000  4.230000e+001  5.200000e+000
      vertex  2.265248e+000  3.814580e+001  5.200000e+000
      vertex  2.800000e+000  3.650000e+001  5.200000e+000
    endloop
  endfacet
  facet normal  -0.000000e+000  0.000000e+000  1.000000e+000
    outer loop
      vertex  8.500000e+000  4.230000e+001  5.200000e+000
      vertex  2.800000e+000  3.650000e+001  5.200000e+000
      vertex  8.500000e+000 -4.230000e+001  5.200000e+000
    endloop
  endfacet
  facet normal  0.000000e+000  0.000000e+000  1.000000e+000
    outer loop
      vertex  8.500000e+000 -4.230000e+001  5.200000e+000
      vertex  2.800000e+000  3.650000e+001  5.200000e+000
      vertex  2.265248e+000  3.485420e+001  5.200000e+000
    endloop
  endfacet
  facet normal  0.000000e+000  0.000000e+000  1.000000e+000
    outer loop
      vertex  8.500000e+000 -4.230000e+001  5.200000e+000
      vertex  2.265248e+000  3.485420e+001  5.200000e+000
      vertex  8.652476e-001  3.383704e+001  5.200000e+000
    endloop
  endfacet
  facet normal  0.000000e+000  0.000000e+000  1.000000e+000
    outer loop
      vertex  8.500000e+000 -4.230000e+001  5.200000e+000
      vertex  8.652476e-001  3.383704e+001  5.200000e+000
      vertex  2.265248e+000 -3.485420e+001  5.200000e+000
    endloop
  endfacet
  facet normal  0.000000e+000  0.000000e+000  9.999999e-001
    outer loop
      vertex  8.500000e+000 -4.230000e+001  5.200000e+000
      vertex  2.265248e+000 -3.485420e+001  5.200000e+000
      vertex  2.800000e+000 -3.650000e+001  5.200000e+000
    endloop
  endfacet
  facet normal  0.000000e+000  0.000000e+000  1.000000e+000
    outer loop
      vertex  8.500000e+000 -4.230000e+001  5.200000e+000
      vertex  2.800000e+000 -3.650000e+001  5.200000e+000
      vertex  2.265248e+000 -3.814580e+001  5.200000e+000
    endloop
  endfacet
  facet normal  0.000000e+000  0.000000e+000  1.000000e+000
    outer loop
      vertex  8.500000e+000 -4.230000e+001  5.200000e+000
      vertex  2.265248e+000 -3.814580e+001  5.200000e+000
      vertex  8.652476e-001 -3.916296e+001  5.200000e+000
    endloop
  endfacet
  facet normal  0.000000e+000  0.000000e+000  1.000000e+000
    outer loop
      vertex  8.500000e+000 -4.230000e+001  5.200000e+000
      vertex  8.652476e-001 -3.916296e+001  5.200000e+000
      vertex -8.652476e-001 -3.916296e+001  5.200000e+000
    endloop
  endfacet
  facet normal  0.000000e+000  0.000000e+000  1.000000e+000
    outer loop
      vertex  8.500000e+000 -4.230000e+001  5.200000e+000
      vertex -8.652476e-001 -3.916296e+001  5.200000e+000
      vertex -8.500000e+000 -4.230000e+001  5.200000e+000
    endloop
  endfacet
  facet normal  0.000000e+000  0.000000e+000  1.000000e+000
    outer loop
      vertex -8.500000e+000 -4.230000e+001  5.200000e+000
      vertex -8.652476e-001 -3.916296e+001  5.200000e+000
      vertex -2.265248e+000 -3.814580e+001  5.200000e+000
    endloop
  endfacet
  facet normal  0.000000e+000  0.000000e+000  9.999999e-001
    outer loop
      vertex -8.500000e+000 -4.230000e+001  5.200000e+000
      vertex -2.265248e+000 -3.814580e+001  5.200000e+000
      vertex -2.800000e+000 -3.650000e+001  5.200000e+000
    endloop
  endfacet
  facet normal  0.000000e+000  -0.000000e+000  1.000000e+000
    outer loop
      vertex -8.500000e+000 -4.230000e+001  5.200000e+000
      vertex -2.800000e+000 -3.650000e+001  5.200000e+000
      vertex -2.265248e+000 -3.485420e+001  5.200000e+000
    endloop
  endfacet
  facet normal  0.000000e+000  -0.000000e+000  1.000000e+000
    outer loop
      vertex -8.500000e+000 -4.230000e+001  5.200000e+000
      vertex -2.265248e+000 -3.485420e+001  5.200000e+000
      vertex -8.652476e-001  3.383704e+001  5.200000e+000
    endloop
  endfacet
  facet normal  0.000000e+000  0.000000e+000  1.000000e+000
    outer loop
      vertex -8.500000e+000 -4.230000e+001  5.200000e+000
      vertex -8.652476e-001  3.383704e+001  5.200000e+000
      vertex -2.265248e+000  3.485420e+001  5.200000e+000
    endloop
  endfacet
  facet normal  0.000000e+000  0.000000e+000  1.000000e+000
    outer loop
      vertex -8.500000e+000 -4.230000e+001  5.200000e+000
      vertex -2.265248e+000  3.485420e+001  5.200000e+000
      vertex -2.800000e+000  3.650000e+001  5.200000e+000
    endloop
  endfacet
  facet normal  0.000000e+000  0.000000e+000  1.000000e+000
    outer loop
      vertex -8.500000e+000  4.230000e+001  5.200000e+000
      vertex -8.500000e+000 -4.230000e+001  5.200000e+000
      vertex -2.800000e+000  3.650000e+001  5.200000e+000
    endloop
  endfacet
  facet normal  0.000000e+000  -0.000000e+000  1.000000e+000
    outer loop
      vertex -8.500000e+000  4.230000e+001  5.200000e+000
      vertex -2.800000e+000  3.650000e+001  5.200000e+000
      vertex -2.265248e+000  3.814580e+001  5.200000e+000
    endloop
  endfacet
  facet normal  0.000000e+000  -0.000000e+000  1.000000e+000
    outer loop
      vertex -8.500000e+000  4.230000e+001  5.200000e+000
      vertex -2.265248e+000  3.814580e+001  5.200000e+000
      vertex -8.652476e-001  3.916296e+001  5.200000e+000
    endloop
  endfacet
  facet normal  0.000000e+000  -0.000000e+000  9.999999e-001
    outer loop
      vertex -2.265248e+000 -3.485420e+001  5.200000e+000
      vertex -8.652476e-001 -3.383704e+001  5.200000e+000
      vertex -8.652476e-001  3.383704e+001  5.200000e+000
    endloop
  endfacet
  facet normal  0.000000e+000  0.000000e+000  1.000000e+000
    outer loop
      vertex -8.652476e-001  3.383704e+001  5.200000e+000
      vertex -8.652476e-001 -3.383704e+001  5.200000e+000
      vertex  8.652476e-001 -3.383704e+001  5.200000e+000
    endloop
  endfacet
  facet normal  0.000000e+000  -0.000000e+000  1.000000e+000
    outer loop
      vertex -8.652476e-001  3.383704e+001  5.200000e+000
      vertex  8.652476e-001 -3.383704e+001  5.200000e+000
      vertex  8.652476e-001  3.383704e+001  5.200000e+000
    endloop
  endfacet
  facet normal  0.000000e+000  0.000000e+000 -9.999999e-001
    outer loop
      vertex  8.652476e-001 -3.383704e+001  4.200000e+000
      vertex  8.652476e-001  3.383704e+001  4.200000e+000
      vertex  2.265248e+000 -3.485420e+001  4.200000e+000
    endloop
  endfacet
  facet normal  0.000000e+000  0.000000e+000 -1.000000e+000
    outer loop
      vertex  8.500000e+000  4.230000e+001  4.200000e+000
      vertex  8.500000e+000 -4.230000e+001  4.200000e+000
      vertex  2.800000e+000  3.650000e+001  4.200000e+000
    endloop
  endfacet
  facet normal  0.000000e+000  0.000000e+000 -1.000000e+000
    outer loop
      vertex  8.500000e+000  4.230000e+001  4.200000e+000
      vertex  2.800000e+000  3.650000e+001  4.200000e+000
      vertex  2.265248e+000  3.814580e+001  4.200000e+000
    endloop
  endfacet
  facet normal  0.000000e+000  0.000000e+000 -1.000000e+000
    outer loop
      vertex  8.500000e+000  4.230000e+001  4.200000e+000
      vertex  2.265248e+000  3.814580e+001  4.200000e+000
      vertex  8.652476e-001  3.916296e+001  4.200000e+000
    endloop
  endfacet
  facet normal  0.000000e+000  0.000000e+000 -1.000000e+000
    outer loop
      vertex  8.500000e+000  4.230000e+001  4.200000e+000
      vertex  8.652476e-001  3.916296e+001  4.200000e+000
      vertex -8.652476e-001  3.916296e+001  4.200000e+000
    endloop
  endfacet
  facet normal  0.000000e+000  0.000000e+000 -1.000000e+000
    outer loop
      vertex  8.500000e+000  4.230000e+001  4.200000e+000
      vertex -8.652476e-001  3.916296e+001  4.200000e+000
      vertex -8.500000e+000  4.230000e+001  4.200000e+000
    endloop
  endfacet
  facet normal  0.000000e+000  0.000000e+000 -1.000000e+000
    outer loop
      vertex  8.500000e+000 -4.230000e+001  4.200000e+000
      vertex -8.500000e+000 -4.230000e+001  4.200000e+000
      vertex -8.652476e-001 -3.916296e+001  4.200000e+000
    endloop
  endfacet
  facet normal  0.000000e+000  0.000000e+000 -1.000000e+000
    outer loop
      vertex  8.500000e+000 -4.230000e+001  4.200000e+000
      vertex -8.652476e-001 -3.916296e+001  4.200000e+000
      vertex  8.652476e-001 -3.916296e+001  4.200000e+000
    endloop
  endfacet
  facet normal  0.000000e+000  0.000000e+000 -1.000000e+000
    outer loop
      vertex  8.500000e+000 -4.230000e+001  4.200000e+000
      vertex  8.652476e-001 -3.916296e+001  4.200000e+000
      vertex  2.265248e+000 -3.814580e+001  4.200000e+000
    endloop
  endfacet
  facet normal  0.000000e+000  0.000000e+000 -9.999999e-001
    outer loop
      vertex  8.500000e+000 -4.230000e+001  4.200000e+000
      vertex  2.265248e+000 -3.814580e+001  4.200000e+000
      vertex  2.800000e+000 -3.650000e+001  4.200000e+000
    endloop
  endfacet
  facet normal  0.000000e+000  0.000000e+000 -1.000000e+000
    outer loop
      vertex  8.500000e+000 -4.230000e+001  4.200000e+000
      vertex  2.800000e+000 -3.650000e+001  4.200000e+000
      vertex  2.265248e+000 -3.485420e+001  4.200000e+000
    endloop
  endfacet
  facet normal  0.000000e+000  0.000000e+000 -1.000000e+000
    outer loop
      vertex  8.500000e+000 -4.230000e+001  4.200000e+000
      vertex  2.265248e+000 -3.485420e+001  4.200000e+000
      vertex  8.652476e-001  3.383704e+001  4.200000e+000
    endloop
  endfacet
  facet normal  0.000000e+000  0.000000e+000 -1.000000e+000
    outer loop
      vertex  8.500000e+000 -4.230000e+001  4.200000e+000
      vertex  8.652476e-001  3.383704e+001  4.200000e+000
      vertex  2.265248e+000  3.485420e+001  4.200000e+000
    endloop
  endfacet
  facet normal  0.000000e+000  0.000000e+000 -1.000000e+000
    outer loop
      vertex  8.500000e+000 -4.230000e+001  4.200000e+000
      vertex  2.265248e+000  3.485420e+001  4.200000e+000
      vertex  2.800000e+000  3.650000e+001  4.200000e+000
    endloop
  endfacet
  facet normal  0.000000e+000  -0.000000e+000 -1.000000e+000
    outer loop
      vertex -8.500000e+000 -4.230000e+001  4.200000e+000
      vertex -2.800000e+000  3.650000e+001  4.200000e+000
      vertex -2.265248e+000  3.485420e+001  4.200000e+000
    endloop
  endfacet
  facet normal  0.000000e+000  -0.000000e+000 -1.000000e+000
    outer loop
      vertex -8.500000e+000 -4.230000e+001  4.200000e+000
      vertex -2.265248e+000  3.485420e+001  4.200000e+000
      vertex -8.652476e-001  3.383704e+001  4.200000e+000
    endloop
  endfacet
  facet normal  0.000000e+000  0.000000e+000 -1.000000e+000
    outer loop
      vertex -8.500000e+000 -4.230000e+001  4.200000e+000
      vertex -8.652476e-001  3.383704e+001  4.200000e+000
      vertex -2.265248e+000 -3.485420e+001  4.200000e+000
    endloop
  endfacet
  facet normal  0.000000e+000  0.000000e+000 -9.999999e-001
    outer loop
      vertex -8.500000e+000 -4.230000e+001  4.200000e+000
      vertex -2.265248e+000 -3.485420e+001  4.200000e+000
      vertex -2.800000e+000 -3.650000e+001  4.200000e+000
    endloop
  endfacet
  facet normal  0.000000e+000  -0.000000e+000 -1.000000e+000
    outer loop
      vertex -8.500000e+000 -4.230000e+001  4.200000e+000
      vertex -2.800000e+000 -3.650000e+001  4.200000e+000
      vertex -2.265248e+000 -3.814580e+001  4.200000e+000
    endloop
  endfacet
  facet normal  0.000000e+000  -0.000000e+000 -1.000000e+000
    outer loop
      vertex -8.500000e+000 -4.230000e+001  4.200000e+000
      vertex -2.265248e+000 -3.814580e+001  4.200000e+000
      vertex -8.652476e-001 -3.916296e+001  4.200000e+000
    endloop
  endfacet
  facet normal  -0.000000e+000  0.000000e+000 -1.000000e+000
    outer loop
      vertex -8.500000e+000  4.230000e+001  4.200000e+000
      vertex -8.652476e-001  3.916296e+001  4.200000e+000
      vertex -2.265248e+000  3.814580e+001  4.200000e+000
    endloop
  endfacet
  facet normal  -0.000000e+000  0.000000e+000 -9.999999e-001
    outer loop
      vertex -8.500000e+000  4.230000e+001  4.200000e+000
      vertex -2.265248e+000  3.814580e+001  4.200000e+000
      vertex -2.800000e+000  3.650000e+001  4.200000e+000
    endloop
  endfacet
  facet normal  -0.000000e+000  0.000000e+000 -1.000000e+000
    outer loop
      vertex -8.500000e+000  4.230000e+001  4.200000e+000
      vertex -2.800000e+000  3.650000e+001  4.200000e+000
      vertex -8.500000e+000 -4.230000e+001  4.200000e+000
    endloop
  endfacet
  facet normal  0.000000e+000  0.000000e+000 -1.000000e+000
    outer loop
      vertex  8.652476e-001  3.383704e+001  4.200000e+000
      vertex  8.652476e-001 -3.383704e+001  4.200000e+000
      vertex -8.652476e-001  3.383704e+001  4.200000e+000
    endloop
  endfacet
  facet normal  0.000000e+000  0.000000e+000 -1.000000e+000
    outer loop
      vertex -8.652476e-001  3.383704e+001  4.200000e+000
      vertex  8.652476e-001 -3.383704e+001  4.200000e+000
      vertex -8.652476e-001 -3.383704e+001  4.200000e+000
    endloop
  endfacet
  facet normal  -0.000000e+000  0.000000e+000 -9.999999e-001
    outer loop
      vertex -8.652476e-001  3.383704e+001  4.200000e+000
      vertex -8.652476e-001 -3.383704e+001  4.200000e+000
      vertex -2.265248e+000 -3.485420e+001  4.200000e+000
    endloop
  endfacet
  facet normal  0.000000e+000  0.000000e+000  9.999999e-001
    outer loop
      vertex -8.652476e-001 -3.383704e+001 -4.200000e+000
      vertex -8.652476e-001  3.383704e+001 -4.200000e+000
      vertex -2.265248e+000 -3.485420e+001 -4.200000e+000
    endloop
  endfacet
  facet normal  0.000000e+000  0.000000e+000  1.000000e+000
    outer loop
      vertex -8.500000e+000  4.230000e+001 -4.200000e+000
      vertex -8.500000e+000 -4.230000e+001 -4.200000e+000
      vertex -2.800000e+000  3.650000e+001 -4.200000e+000
    endloop
  endfacet
  facet normal  0.000000e+000  -0.000000e+000  1.000000e+000
    outer loop
      vertex -8.500000e+000  4.230000e+001 -4.200000e+000
      vertex -2.800000e+000  3.650000e+001 -4.200000e+000
      vertex -2.265248e+000  3.814580e+001 -4.200000e+000
    endloop
  endfacet
  facet normal  0.000000e+000  -0.000000e+000  1.000000e+000
    outer loop
      vertex -8.500000e+000  4.230000e+001 -4.200000e+000
      vertex -2.265248e+000  3.814580e+001 -4.200000e+000
      vertex -8.652476e-001  3.916296e+001 -4.200000e+000
    endloop
  endfacet
  facet normal  0.000000e+000  -0.000000e+000  1.000000e+000
    outer loop
      vertex -8.500000e+000  4.230000e+001 -4.200000e+000
      vertex -8.652476e-001  3.916296e+001 -4.200000e+000
      vertex  8.652476e-001  3.916296e+001 -4.200000e+000
    endloop
  endfacet
  facet normal  0.000000e+000  -0.000000e+000  1.000000e+000
    outer loop
      vertex -8.500000e+000  4.230000e+001 -4.200000e+000
      vertex  8.652476e-001  3.916296e+001 -4.200000e+000
      vertex  8.500000e+000  4.230000e+001 -4.200000e+000
    endloop
  endfacet
  facet normal  0.000000e+000  0.000000e+000  1.000000e+000
    outer loop
      vertex -8.500000e+000 -4.230000e+001 -4.200000e+000
      vertex  8.500000e+000 -4.230000e+001 -4.200000e+000
      vertex  8.652476e-001 -3.916296e+001 -4.200000e+000
    endloop
  endfacet
  facet normal  0.000000e+000  0.000000e+000  1.000000e+000
    outer loop
      vertex -8.500000e+000 -4.230000e+001 -4.200000e+000
      vertex  8.652476e-001 -3.916296e+001 -4.200000e+000
      vertex -8.652476e-001 -3.916296e+001 -4.200000e+000
    endloop
  endfacet
  facet normal  0.000000e+000  0.000000e+000  1.000000e+000
    outer loop
      vertex -8.500000e+000 -4.230000e+001 -4.200000e+000
      vertex -8.652476e-001 -3.916296e+001 -4.200000e+000
      vertex -2.265248e+000 -3.814580e+001 -4.200000e+000
    endloop
  endfacet
  facet normal  0.000000e+000  0.000000e+000  9.999999e-001
    outer loop
      vertex -8.500000e+000 -4.230000e+001 -4.200000e+000
      vertex -2.265248e+000 -3.814580e+001 -4.200000e+000
      vertex -2.800000e+000 -3.650000e+001 -4.200000e+000
    endloop
  endfacet
  facet normal  0.000000e+000  -0.000000e+000  1.000000e+000
    outer loop
      vertex -8.500000e+000 -4.230000e+001 -4.200000e+000
      vertex -2.800000e+000 -3.650000e+001 -4.200000e+000
      vertex -2.265248e+000 -3.485420e+001 -4.200000e+000
    endloop
  endfacet
  facet normal  0.000000e+000  -0.000000e+000  1.000000e+000
    outer loop
      vertex -8.500000e+000 -4.230000e+001 -4.200000e+000
      vertex -2.265248e+000 -3.485420e+001 -4.200000e+000
      vertex -8.652476e-001  3.383704e+001 -4.200000e+000
    endloop
  endfacet
  facet normal  0.000000e+000  0.000000e+000  1.000000e+000
    outer loop
      vertex -8.500000e+000 -4.230000e+001 -4.200000e+000
      vertex -8.652476e-001  3.383704e+001 -4.200000e+000
      vertex -2.265248e+000  3.485420e+001 -4.200000e+000
    endloop
  endfacet
  facet normal  0.000000e+000  0.000000e+000  1.000000e+000
    outer loop
      vertex -8.500000e+000 -4.230000e+001 -4.200000e+000
      vertex -2.265248e+000  3.485420e+001 -4.200000e+000
      vertex -2.800000e+000  3.650000e+001 -4.200000e+000
    endloop
  endfacet
  facet normal  0.000000e+000  0.000000e+000  1.000000e+000
    outer loop
      vertex  8.500000e+000 -4.230000e+001 -4.200000e+000
      vertex  2.800000e+000  3.650000e+001 -4.200000e+000
      vertex  2.265248e+000  3.485420e+001 -4.200000e+000
    endloop
  endfacet
  facet normal  0.000000e+000  0.000000e+000  1.000000e+000
    outer loop
      vertex  8.500000e+000 -4.230000e+001 -4.200000e+000
      vertex  2.265248e+000  3.485420e+001 -4.200000e+000
      vertex  8.652476e-001  3.383704e+001 -4.200000e+000
    endloop
  endfacet
  facet normal  0.000000e+000  0.000000e+000  1.000000e+000
    outer loop
      vertex  8.500000e+000 -4.230000e+001 -4.200000e+000
      vertex  8.652476e-001  3.383704e+001 -4.200000e+000
      vertex  2.265248e+000 -3.485420e+001 -4.200000e+000
    endloop
  endfacet
  facet normal  0.000000e+000  0.000000e+000  9.999999e-001
    outer loop
      vertex  8.500000e+000 -4.230000e+001 -4.200000e+000
      vertex  2.265248e+000 -3.485420e+001 -4.200000e+000
      vertex  2.800000e+000 -3.650000e+001 -4.200000e+000
    endloop
  endfacet
  facet normal  0.000000e+000  0.000000e+000  1.000000e+000
    outer loop
      vertex  8.500000e+000 -4.230000e+001 -4.200000e+000
      vertex  2.800000e+000 -3.650000e+001 -4.200000e+000
      vertex  2.265248e+000 -3.814580e+001 -4.200000e+000
    endloop
  endfacet
  facet normal  0.000000e+000  0.000000e+000  1.000000e+000
    outer loop
      vertex  8.500000e+000 -4.230000e+001 -4.200000e+000
      vertex  2.265248e+000 -3.814580e+001 -4.200000e+000
      vertex  8.652476e-001 -3.916296e+001 -4.200000e+000
    endloop
  endfacet
  facet normal  -0.000000e+000  0.000000e+000  1.000000e+000
    outer loop
      vertex  8.500000e+000  4.230000e+001 -4.200000e+000
      vertex  8.652476e-001  3.916296e+001 -4.200000e+000
      vertex  2.265248e+000  3.814580e+001 -4.200000e+000
    endloop
  endfacet
  facet normal  -0.000000e+000  0.000000e+000  9.999999e-001
    outer loop
      vertex  8.500000e+000  4.230000e+001 -4.200000e+000
      vertex  2.265248e+000  3.814580e+001 -4.200000e+000
      vertex  2.800000e+000  3.650000e+001 -4.200000e+000
    endloop
  endfacet
  facet normal  -0.000000e+000  0.000000e+000  1.000000e+000
    outer loop
      vertex  8.500000e+000  4.230000e+001 -4.200000e+000
      vertex  2.800000e+000  3.650000e+001 -4.200000e+000
      vertex  8.500000e+000 -4.230000e+001 -4.200000e+000
    endloop
  endfacet
  facet normal  0.000000e+000  0.000000e+000  1.000000e+000
    outer loop
      vertex -8.652476e-001  3.383704e+001 -4.200000e+000
      vertex -8.652476e-001 -3.383704e+001 -4.200000e+000
      vertex  8.652476e-001  3.383704e+001 -4.200000e+000
    endloop
  endfacet
  facet normal  0.000000e+000  0.000000e+000  1.000000e+000
    outer loop
      vertex  8.652476e-001  3.383704e+001 -4.200000e+000
      vertex -8.652476e-001 -3.383704e+001 -4.200000e+000
      vertex  8.652476e-001 -3.383704e+001 -4.200000e+000
    endloop
  endfacet
  facet normal  -0.000000e+000  0.000000e+000  9.999999e-001
    outer loop
      vertex  8.652476e-001  3.383704e+001 -4.200000e+000
      vertex  8.652476e-001 -3.383704e+001 -4.200000e+000
      vertex  2.265248e+000 -3.485420e+001 -4.200000e+000
    endloop
  endfacet
  facet normal  0.000000e+000  -0.000000e+000 -9.999999e-001
    outer loop
      vertex -2.265248e+000 -3.485420e+001 -5.200000e+000
      vertex -8.652476e-001  3.383704e+001 -5.200000e+000
      vertex -8.652476e-001 -3.383704e+001 -5.200000e+000
    endloop
  endfacet
  facet normal  -0.000000e+000  0.000000e+000 -1.000000e+000
    outer loop
      vertex -8.500000e+000  4.230000e+001 -5.200000e+000
      vertex  8.500000e+000  4.230000e+001 -5.200000e+000
      vertex  8.652476e-001  3.916296e+001 -5.200000e+000
    endloop
  endfacet
  facet normal  0.000000e+000  0.000000e+000 -1.000000e+000
    outer loop
      vertex -8.500000e+000  4.230000e+001 -5.200000e+000
      vertex  8.652476e-001  3.916296e+001 -5.200000e+000
      vertex -8.652476e-001  3.916296e+001 -5.200000e+000
    endloop
  endfacet
  facet normal  -0.000000e+000  0.000000e+000 -1.000000e+000
    outer loop
      vertex -8.500000e+000  4.230000e+001 -5.200000e+000
      vertex -8.652476e-001  3.916296e+001 -5.200000e+000
      vertex -2.265248e+000  3.814580e+001 -5.200000e+000
    endloop
  endfacet
  facet normal  -0.000000e+000  0.000000e+000 -9.999999e-001
    outer loop
      vertex -8.500000e+000  4.230000e+001 -5.200000e+000
      vertex -2.265248e+000  3.814580e+001 -5.200000e+000
      vertex -2.800000e+000  3.650000e+001 -5.200000e+000
    endloop
  endfacet
  facet normal  -0.000000e+000  0.000000e+000 -1.000000e+000
    outer loop
      vertex -8.500000e+000  4.230000e+001 -5.200000e+000
      vertex -2.800000e+000  3.650000e+001 -5.200000e+000
      vertex -8.500000e+000 -4.230000e+001 -5.200000e+000
    endloop
  endfacet
  facet normal  0.000000e+000  -0.000000e+000 -1.000000e+000
    outer loop
      vertex -8.500000e+000 -4.230000e+001 -5.200000e+000
      vertex -2.800000e+000  3.650000e+001 -5.200000e+000
      vertex -2.265248e+000  3.485420e+001 -5.200000e+000
    endloop
  endfacet
  facet normal  0.000000e+000  -0.000000e+000 -1.000000e+000
    outer loop
      vertex -8.500000e+000 -4.230000e+001 -5.200000e+000
      vertex -2.265248e+000  3.485420e+001 -5.200000e+000
      vertex -8.652476e-001  3.383704e+001 -5.200000e+000
    endloop
  endfacet
  facet normal  0.000000e+000  0.000000e+000 -1.000000e+000
    outer loop
      vertex -8.500000e+000 -4.230000e+001 -5.200000e+000
      vertex -8.652476e-001  3.383704e+001 -5.200000e+000
      vertex -2.265248e+000 -3.485420e+001 -5.200000e+000
    endloop
  endfacet
  facet normal  0.000000e+000  0.000000e+000 -9.999999e-001
    outer loop
      vertex -8.500000e+000 -4.230000e+001 -5.200000e+000
      vertex -2.265248e+000 -3.485420e+001 -5.200000e+000
      vertex -2.800000e+000 -3.650000e+001 -5.200000e+000
    endloop
  endfacet
  facet normal  0.000000e+000  -0.000000e+000 -1.000000e+000
    outer loop
      vertex -8.500000e+000 -4.230000e+001 -5.200000e+000
      vertex -2.800000e+000 -3.650000e+001 -5.200000e+000
      vertex -2.265248e+000 -3.814580e+001 -5.200000e+000
    endloop
  endfacet
  facet normal  0.000000e+000  -0.000000e+000 -1.000000e+000
    outer loop
      vertex -8.500000e+000 -4.230000e+001 -5.200000e+000
      vertex -2.265248e+000 -3.814580e+001 -5.200000e+000
      vertex -8.652476e-001 -3.916296e+001 -5.200000e+000
    endloop
  endfacet
  facet normal  0.000000e+000  -0.000000e+000 -1.000000e+000
    outer loop
      vertex -8.500000e+000 -4.230000e+001 -5.200000e+000
      vertex -8.652476e-001 -3.916296e+001 -5.200000e+000
      vertex  8.652476e-001 -3.916296e+001 -5.200000e+000
    endloop
  endfacet
  facet normal  0.000000e+000  -0.000000e+000 -1.000000e+000
    outer loop
      vertex -8.500000e+000 -4.230000e+001 -5.200000e+000
      vertex  8.652476e-001 -3.916296e+001 -5.200000e+000
      vertex  8.500000e+000 -4.230000e+001 -5.200000e+000
    endloop
  endfacet
  facet normal  0.000000e+000  0.000000e+000 -1.000000e+000
    outer loop
      vertex  8.500000e+000 -4.230000e+001 -5.200000e+000
      vertex  8.652476e-001 -3.916296e+001 -5.200000e+000
      vertex  2.265248e+000 -3.814580e+001 -5.200000e+000
    endloop
  endfacet
  facet normal  0.000000e+000  0.000000e+000 -9.999999e-001
    outer loop
      vertex  8.500000e+000 -4.230000e+001 -5.200000e+000
      vertex  2.265248e+000 -3.814580e+001 -5.200000e+000
      vertex  2.800000e+000 -3.650000e+001 -5.200000e+000
    endloop
  endfacet
  facet normal  0.000000e+000  0.000000e+000 -1.000000e+000
    outer loop
      vertex  8.500000e+000 -4.230000e+001 -5.200000e+000
      vertex  2.800000e+000 -3.650000e+001 -5.200000e+000
      vertex  2.265248e+000 -3.485420e+001 -5.200000e+000
    endloop
  endfacet
  facet normal  0.000000e+000  0.000000e+000 -1.000000e+000
    outer loop
      vertex  8.500000e+000 -4.230000e+001 -5.200000e+000
      vertex  2.265248e+000 -3.485420e+001 -5.200000e+000
      vertex  8.652476e-001  3.383704e+001 -5.200000e+000
    endloop
  endfacet
  facet normal  0.000000e+000  0.000000e+000 -1.000000e+000
    outer loop
      vertex  8.500000e+000 -4.230000e+001 -5.200000e+000
      vertex  8.652476e-001  3.383704e+001 -5.200000e+000
      vertex  2.265248e+000  3.485420e+001 -5.200000e+000
    endloop
  endfacet
  facet normal  0.000000e+000  0.000000e+000 -1.000000e+000
    outer loop
      vertex  8.500000e+000 -4.230000e+001 -5.200000e+000
      vertex  2.265248e+000  3.485420e+001 -5.200000e+000
      vertex  2.800000e+000  3.650000e+001 -5.200000e+000
    endloop
  endfacet
  facet normal  0.000000e+000  0.000000e+000 -1.000000e+000
    outer loop
      vertex  8.500000e+000  4.230000e+001 -5.200000e+000
      vertex  8.500000e+000 -4.230000e+001 -5.200000e+000
      vertex  2.800000e+000  3.650000e+001 -5.200000e+000
    endloop
  endfacet
  facet normal  0.000000e+000  0.000000e+000 -1.000000e+000
    outer loop
      vertex  8.500000e+000  4.230000e+001 -5.200000e+000
      vertex  2.800000e+000  3.650000e+001 -5.200000e+000
      vertex  2.265248e+000  3.814580e+001 -5.200000e+000
    endloop
  endfacet
  facet normal  0.000000e+000  0.000000e+000 -1.000000e+000
    outer loop
      vertex  8.500000e+000  4.230000e+001 -5.200000e+000
      vertex  2.265248e+000  3.814580e+001 -5.200000e+000
      vertex  8.652476e-001  3.916296e+001 -5.200000e+000
    endloop
  endfacet
  facet normal  0.000000e+000  0.000000e+000 -9.999999e-001
    outer loop
      vertex  2.265248e+000 -3.485420e+001 -5.200000e+000
      vertex  8.652476e-001 -3.383704e+001 -5.200000e+000
      vertex  8.652476e-001  3.383704e+001 -5.200000e+000
    endloop
  endfacet
  facet normal  0.000000e+000  -0.000000e+000 -1.000000e+000
    outer loop
      vertex  8.652476e-001  3.383704e+001 -5.200000e+000
      vertex  8.652476e-001 -3.383704e+001 -5.200000e+000
      vertex -8.652476e-001 -3.383704e+001 -5.200000e+000
    endloop
  endfacet
  facet normal  0.000000e+000  0.000000e+000 -1.000000e+000
    outer loop
      vertex  8.652476e-001  3.383704e+001 -5.200000e+000
      vertex -8.652476e-001 -3.383704e+001 -5.200000e+000
      vertex -8.652476e-001  3.383704e+001 -5.200000e+000
    endloop
  endfacet
  facet normal  5.877863e-001  8.090162e-001  -0.000000e+000
    outer loop
      vertex -8.652476e-001  3.383704e+001  5.200000e+000
      vertex -2.265248e+000  3.485420e+001  4.200000e+000
      vertex -2.265248e+000  3.485420e+001  5.200000e+000
    endloop
  endfacet
  facet normal  9.510565e-001  3.090171e-001  0.000000e+000
    outer loop
      vertex -2.265248e+000  3.485420e+001  5.200000e+000
      vertex -2.265248e+000  3.485420e+001  4.200000e+000
      vertex -2.800000e+000  3.650000e+001  4.200000e+000
    endloop
  endfacet
  facet normal  9.510565e-001  3.090171e-001  -0.000000e+000
    outer loop
      vertex -2.265248e+000  3.485420e+001  5.200000e+000
      vertex -2.800000e+000  3.650000e+001  4.200000e+000
      vertex -2.800000e+000  3.650000e+001  5.200000e+000
    endloop
  endfacet
  facet normal  5.877863e-001  8.090162e-001  0.000000e+000
    outer loop
      vertex -2.265248e+000  3.485420e+001  4.200000e+000
      vertex -8.652476e-001  3.383704e+001  5.200000e+000
      vertex -8.652476e-001  3.383704e+001  4.200000e+000
    endloop
  endfacet
  facet normal  0.000000e+000  1.000000e+000  0.000000e+000
    outer loop
      vertex -8.652476e-001  3.383704e+001  4.200000e+000
      vertex -8.652476e-001  3.383704e+001  5.200000e+000
      vertex  8.652476e-001  3.383704e+001  5.200000e+000
    endloop
  endfacet
  facet normal  0.000000e+000  1.000000e+000  0.000000e+000
    outer loop
      vertex -8.652476e-001  3.383704e+001  4.200000e+000
      vertex  8.652476e-001  3.383704e+001  5.200000e+000
      vertex  8.652476e-001  3.383704e+001  4.200000e+000
    endloop
  endfacet
  facet normal -5.877863e-001  8.090162e-001  0.000000e+000
    outer loop
      vertex  8.652476e-001  3.383704e+001  4.200000e+000
      vertex  8.652476e-001  3.383704e+001  5.200000e+000
      vertex  2.265248e+000  3.485420e+001  5.200000e+000
    endloop
  endfacet
  facet normal -5.877863e-001  8.090162e-001  0.000000e+000
    outer loop
      vertex  8.652476e-001  3.383704e+001  4.200000e+000
      vertex  2.265248e+000  3.485420e+001  5.200000e+000
      vertex  2.265248e+000  3.485420e+001  4.200000e+000
    endloop
  endfacet
  facet normal -9.510565e-001  3.090171e-001  0.000000e+000
    outer loop
      vertex  2.265248e+000  3.485420e+001  4.200000e+000
      vertex  2.265248e+000  3.485420e+001  5.200000e+000
      vertex  2.800000e+000  3.650000e+001  5.200000e+000
    endloop
  endfacet
  facet normal -9.510565e-001  3.090171e-001  0.000000e+000
    outer loop
      vertex  2.265248e+000  3.485420e+001  4.200000e+000
      vertex  2.800000e+000  3.650000e+001  5.200000e+000
      vertex  2.800000e+000  3.650000e+001  4.200000e+000
    endloop
  endfacet
  facet normal  5.877863e-001  8.090162e-001  -0.000000e+000
    outer loop
      vertex -8.652476e-001  3.383704e+001 -4.200000e+000
      vertex -2.265248e+000  3.485420e+001 -5.200000e+000
      vertex -2.265248e+000  3.485420e+001 -4.200000e+000
    endloop
  endfacet
  facet normal  9.510565e-001  3.090171e-001  0.000000e+000
    outer loop
      vertex -2.265248e+000  3.485420e+001 -4.200000e+000
      vertex -2.265248e+000  3.485420e+001 -5.200000e+000
      vertex -2.800000e+000  3.650000e+001 -5.200000e+000
    endloop
  endfacet
  facet normal  9.510565e-001  3.090171e-001  -0.000000e+000
    outer loop
      vertex -2.265248e+000  3.485420e+001 -4.200000e+000
      vertex -2.800000e+000  3.650000e+001 -5.200000e+000
      vertex -2.800000e+000  3.650000e+001 -4.200000e+000
    endloop
  endfacet
  facet normal  5.877863e-001  8.090162e-001  0.000000e+000
    outer loop
      vertex -2.265248e+000  3.485420e+001 -5.200000e+000
      vertex -8.652476e-001  3.383704e+001 -4.200000e+000
      vertex -8.652476e-001  3.383704e+001 -5.200000e+000
    endloop
  endfacet
  facet normal  0.000000e+000  1.000000e+000  0.000000e+000
    outer loop
      vertex -8.652476e-001  3.383704e+001 -5.200000e+000
      vertex -8.652476e-001  3.383704e+001 -4.200000e+000
      vertex  8.652476e-001  3.383704e+001 -4.200000e+000
    endloop
  endfacet
  facet normal  0.000000e+000  1.000000e+000  0.000000e+000
    outer loop
      vertex -8.652476e-001  3.383704e+001 -5.200000e+000
      vertex  8.652476e-001  3.383704e+001 -4.200000e+000
      vertex  8.652476e-001  3.383704e+001 -5.200000e+000
    endloop
  endfacet
  facet normal -5.877863e-001  8.090162e-001  0.000000e+000
    outer loop
      vertex  8.652476e-001  3.383704e+001 -5.200000e+000
      vertex  8.652476e-001  3.383704e+001 -4.200000e+000
      vertex  2.265248e+000  3.485420e+001 -4.200000e+000
    endloop
  endfacet
  facet normal -5.877863e-001  8.090162e-001  0.000000e+000
    outer loop
      vertex  8.652476e-001  3.383704e+001 -5.200000e+000
      vertex  2.265248e+000  3.485420e+001 -4.200000e+000
      vertex  2.265248e+000  3.485420e+001 -5.200000e+000
    endloop
  endfacet
  facet normal -9.510565e-001  3.090171e-001  0.000000e+000
    outer loop
      vertex  2.265248e+000  3.485420e+001 -5.200000e+000
      vertex  2.265248e+000  3.485420e+001 -4.200000e+000
      vertex  2.800000e+000  3.650000e+001 -4.200000e+000
    endloop
  endfacet
  facet normal -9.510565e-001  3.090171e-001  0.000000e+000
    outer loop
      vertex  2.265248e+000  3.485420e+001 -5.200000e+000
      vertex  2.800000e+000  3.650000e+001 -4.200000e+000
      vertex  2.800000e+000  3.650000e+001 -5.200000e+000
    endloop
  endfacet
  facet normal -5.877863e-001 -8.090162e-001  0.000000e+000
    outer loop
      vertex  8.652476e-001  3.916296e+001  5.200000e+000
      vertex  2.265248e+000  3.814580e+001  4.200000e+000
      vertex  2.265248e+000  3.814580e+001  5.200000e+000
    endloop
  endfacet
  facet normal -9.510565e-001 -3.090171e-001  -0.000000e+000
    outer loop
      vertex  2.265248e+000  3.814580e+001  5.200000e+000
      vertex  2.265248e+000  3.814580e+001  4.200000e+000
      vertex  2.800000e+000  3.650000e+001  4.200000e+000
    endloop
  endfacet
  facet normal -9.510565e-001 -3.090171e-001  0.000000e+000
    outer loop
      vertex  2.265248e+000  3.814580e+001  5.200000e+000
      vertex  2.800000e+000  3.650000e+001  4.200000e+000
      vertex  2.800000e+000  3.650000e+001  5.200000e+000
    endloop
  endfacet
  facet normal -5.877863e-001 -8.090162e-001  -0.000000e+000
    outer loop
      vertex  2.265248e+000  3.814580e+001  4.200000e+000
      vertex  8.652476e-001  3.916296e+001  5.200000e+000
      vertex  8.652476e-001  3.916296e+001  4.200000e+000
    endloop
  endfacet
  facet normal  0.000000e+000 -1.000000e+000  0.000000e+000
    outer loop
      vertex  8.652476e-001  3.916296e+001  4.200000e+000
      vertex  8.652476e-001  3.916296e+001  5.200000e+000
      vertex -8.652476e-001  3.916296e+001  5.200000e+000
    endloop
  endfacet
  facet normal  0.000000e+000 -1.000000e+000  0.000000e+000
    outer loop
      vertex  8.652476e-001  3.916296e+001  4.200000e+000
      vertex -8.652476e-001  3.916296e+001  5.200000e+000
      vertex -8.652476e-001  3.916296e+001  4.200000e+000
    endloop
  endfacet
  facet normal  5.877863e-001 -8.090162e-001  0.000000e+000
    outer loop
      vertex -8.652476e-001  3.916296e+001  4.200000e+000
      vertex -8.652476e-001  3.916296e+001  5.200000e+000
      vertex -2.265248e+000  3.814580e+001  5.200000e+000
    endloop
  endfacet
  facet normal  5.877863e-001 -8.090162e-001  0.000000e+000
    outer loop
      vertex -8.652476e-001  3.916296e+001  4.200000e+000
      vertex -2.265248e+000  3.814580e+001  5.200000e+000
      vertex -2.265248e+000  3.814580e+001  4.200000e+000
    endloop
  endfacet
  facet normal  9.510565e-001 -3.090171e-001  0.000000e+000
    outer loop
      vertex -2.265248e+000  3.814580e+001  4.200000e+000
      vertex -2.265248e+000  3.814580e+001  5.200000e+000
      vertex -2.800000e+000  3.650000e+001  5.200000e+000
    endloop
  endfacet
  facet normal  9.510565e-001 -3.090171e-001  0.000000e+000
    outer loop
      vertex -2.265248e+000  3.814580e+001  4.200000e+000
      vertex -2.800000e+000  3.650000e+001  5.200000e+000
      vertex -2.800000e+000  3.650000e+001  4.200000e+000
    endloop
  endfacet
  facet normal -5.877863e-001 -8.090162e-001  0.000000e+000
    outer loop
      vertex  8.652476e-001  3.916296e+001 -4.200000e+000
      vertex  2.265248e+000  3.814580e+001 -5.200000e+000
      vertex  2.265248e+000  3.814580e+001 -4.200000e+000
    endloop
  endfacet
  facet normal -9.510565e-001 -3.090171e-001  -0.000000e+000
    outer loop
      vertex  2.265248e+000  3.814580e+001 -4.200000e+000
      vertex  2.265248e+000  3.814580e+001 -5.200000e+000
      vertex  2.800000e+000  3.650000e+001 -5.200000e+000
    endloop
  endfacet
  facet normal -9.510565e-001 -3.090171e-001  0.000000e+000
    outer loop
      vertex  2.265248e+000  3.814580e+001 -4.200000e+000
      vertex  2.800000e+000  3.650000e+001 -5.200000e+000
      vertex  2.800000e+000  3.650000e+001 -4.200000e+000
    endloop
  endfacet
  facet normal -5.877863e-001 -8.090162e-001  -0.000000e+000
    outer loop
      vertex  2.265248e+000  3.814580e+001 -5.200000e+000
      vertex  8.652476e-001  3.916296e+001 -4.200000e+000
      vertex  8.652476e-001  3.916296e+001 -5.200000e+000
    endloop
  endfacet
  facet normal  0.000000e+000 -1.000000e+000  0.000000e+000
    outer loop
      vertex  8.652476e-001  3.916296e+001 -5.200000e+000
      vertex  8.652476e-001  3.916296e+001 -4.200000e+000
      vertex -8.652476e-001  3.916296e+001 -4.200000e+000
    endloop
  endfacet
  facet normal  0.000000e+000 -1.000000e+000  0.000000e+000
    outer loop
      vertex  8.652476e-001  3.916296e+001 -5.200000e+000
      vertex -8.652476e-001  3.916296e+001 -4.200000e+000
      vertex -8.652476e-001  3.916296e+001 -5.200000e+000
    endloop
  endfacet
  facet normal  5.877863e-001 -8.090162e-001  0.000000e+000
    outer loop
      vertex -8.652476e-001  3.916296e+001 -5.200000e+000
      vertex -8.652476e-001  3.916296e+001 -4.200000e+000
      vertex -2.265248e+000  3.814580e+001 -4.200000e+000
    endloop
  endfacet
  facet normal  5.877863e-001 -8.090162e-001  0.000000e+000
    outer loop
      vertex -8.652476e-001  3.916296e+001 -5.200000e+000
      vertex -2.265248e+000  3.814580e+001 -4.200000e+000
      vertex -2.265248e+000  3.814580e+001 -5.200000e+000
    endloop
  endfacet
  facet normal  9.510565e-001 -3.090171e-001  0.000000e+000
    outer loop
      vertex -2.265248e+000  3.814580e+001 -5.200000e+000
      vertex -2.265248e+000  3.814580e+001 -4.200000e+000
      vertex -2.800000e+000  3.650000e+001 -4.200000e+000
    endloop
  endfacet
  facet normal  9.510565e-001 -3.090171e-001  0.000000e+000
    outer loop
      vertex -2.265248e+000  3.814580e+001 -5.200000e+000
      vertex -2.800000e+000  3.650000e+001 -4.200000e+000
      vertex -2.800000e+000  3.650000e+001 -5.200000e+000
    endloop
  endfacet
  facet normal  5.877863e-001 -8.090162e-001  0.000000e+000
    outer loop
      vertex -8.652476e-001 -3.383704e+001  4.200000e+000
      vertex -2.265248e+000 -3.485420e+001  5.200000e+000
      vertex -2.265248e+000 -3.485420e+001  4.200000e+000
    endloop
  endfacet
  facet normal  9.510565e-001 -3.090171e-001  0.000000e+000
    outer loop
      vertex -2.265248e+000 -3.485420e+001  4.200000e+000
      vertex -2.265248e+000 -3.485420e+001  5.200000e+000
      vertex -2.800000e+000 -3.650000e+001  5.200000e+000
    endloop
  endfacet
  facet normal  9.510565e-001 -3.090171e-001  0.000000e+000
    outer loop
      vertex -2.265248e+000 -3.485420e+001  4.200000e+000
      vertex -2.800000e+000 -3.650000e+001  5.200000e+000
      vertex -2.800000e+000 -3.650000e+001  4.200000e+000
    endloop
  endfacet
  facet normal  5.877863e-001 -8.090162e-001  0.000000e+000
    outer loop
      vertex -2.265248e+000 -3.485420e+001  5.200000e+000
      vertex -8.652476e-001 -3.383704e+001  4.200000e+000
      vertex -8.652476e-001 -3.383704e+001  5.200000e+000
    endloop
  endfacet
  facet normal  0.000000e+000 -1.000000e+000  0.000000e+000
    outer loop
      vertex -8.652476e-001 -3.383704e+001  5.200000e+000
      vertex -8.652476e-001 -3.383704e+001  4.200000e+000
      vertex  8.652476e-001 -3.383704e+001  4.200000e+000
    endloop
  endfacet
  facet normal  0.000000e+000 -1.000000e+000  0.000000e+000
    outer loop
      vertex -8.652476e-001 -3.383704e+001  5.200000e+000
      vertex  8.652476e-001 -3.383704e+001  4.200000e+000
      vertex  8.652476e-001 -3.383704e+001  5.200000e+000
    endloop
  endfacet
  facet normal -5.877863e-001 -8.090162e-001  -0.000000e+000
    outer loop
      vertex  8.652476e-001 -3.383704e+001  5.200000e+000
      vertex  8.652476e-001 -3.383704e+001  4.200000e+000
      vertex  2.265248e+000 -3.485420e+001  4.200000e+000
    endloop
  endfacet
  facet normal -5.877863e-001 -8.090162e-001  0.000000e+000
    outer loop
      vertex  8.652476e-001 -3.383704e+001  5.200000e+000
      vertex  2.265248e+000 -3.485420e+001  4.200000e+000
      vertex  2.265248e+000 -3.485420e+001  5.200000e+000
    endloop
  endfacet
  facet normal -9.510565e-001 -3.090171e-001  -0.000000e+000
    outer loop
      vertex  2.265248e+000 -3.485420e+001  5.200000e+000
      vertex  2.265248e+000 -3.485420e+001  4.200000e+000
      vertex  2.800000e+000 -3.650000e+001  4.200000e+000
    endloop
  endfacet
  facet normal -9.510565e-001 -3.090171e-001  0.000000e+000
    outer loop
      vertex  2.265248e+000 -3.485420e+001  5.200000e+000
      vertex  2.800000e+000 -3.650000e+001  4.200000e+000
      vertex  2.800000e+000 -3.650000e+001  5.200000e+000
    endloop
  endfacet
  facet normal  5.877863e-001 -8.090162e-001  0.000000e+000
    outer loop
      vertex -8.652476e-001 -3.383704e+001 -5.200000e+000
      vertex -2.265248e+000 -3.485420e+001 -4.200000e+000
      vertex -2.265248e+000 -3.485420e+001 -5.200000e+000
    endloop
  endfacet
  facet normal  9.510565e-001 -3.090171e-001  0.000000e+000
    outer loop
      vertex -2.265248e+000 -3.485420e+001 -5.200000e+000
      vertex -2.265248e+000 -3.485420e+001 -4.200000e+000
      vertex -2.800000e+000 -3.650000e+001 -4.200000e+000
    endloop
  endfacet
  facet normal  9.510565e-001 -3.090171e-001  0.000000e+000
    outer loop
      vertex -2.265248e+000 -3.485420e+001 -5.200000e+000
      vertex -2.800000e+000 -3.650000e+001 -4.200000e+000
      vertex -2.800000e+000 -3.650000e+001 -5.200000e+000
    endloop
  endfacet
  facet normal  5.877863e-001 -8.090162e-001  0.000000e+000
    outer loop
      vertex -2.265248e+000 -3.485420e+001 -4.200000e+000
      vertex -8.652476e-001 -3.383704e+001 -5.200000e+000
      vertex -8.652476e-001 -3.383704e+001 -4.200000e+000
    endloop
  endfacet
  facet normal  0.000000e+000 -1.000000e+000  0.000000e+000
    outer loop
      vertex -8.652476e-001 -3.383704e+001 -4.200000e+000
      vertex -8.652476e-001 -3.383704e+001 -5.200000e+000
      vertex  8.652476e-001 -3.383704e+001 -5.200000e+000
    endloop
  endfacet
  facet normal  0.000000e+000 -1.000000e+000  0.000000e+000
    outer loop
      vertex -8.652476e-001 -3.383704e+001 -4.200000e+000
      vertex  8.652476e-001 -3.383704e+001 -5.200000e+000
      vertex  8.652476e-001 -3.383704e+001 -4.200000e+000
    endloop
  endfacet
  facet normal -5.877863e-001 -8.090162e-001  -0.000000e+000
    outer loop
      vertex  8.652476e-001 -3.383704e+001 -4.200000e+000
      vertex  8.652476e-001 -3.383704e+001 -5.200000e+000
      vertex  2.265248e+000 -3.485420e+001 -5.200000e+000
    endloop
  endfacet
  facet normal -5.877863e-001 -8.090162e-001  0.000000e+000
    outer loop
      vertex  8.652476e-001 -3.383704e+001 -4.200000e+000
      vertex  2.265248e+000 -3.485420e+001 -5.200000e+000
      vertex  2.265248e+000 -3.485420e+001 -4.200000e+000
    endloop
  endfacet
  facet normal -9.510565e-001 -3.090171e-001  -0.000000e+000
    outer loop
      vertex  2.265248e+000 -3.485420e+001 -4.200000e+000
      vertex  2.265248e+000 -3.485420e+001 -5.200000e+000
      vertex  2.800000e+000 -3.650000e+001 -5.200000e+000
    endloop
  endfacet
  facet normal -9.510565e-001 -3.090171e-001  0.000000e+000
    outer loop
      vertex  2.265248e+000 -3.485420e+001 -4.200000e+000
      vertex  2.800000e+000 -3.650000e+001 -5.200000e+000
      vertex  2.800000e+000 -3.650000e+001 -4.200000e+000
    endloop
  endfacet
  facet normal -5.877863e-001  8.090162e-001  0.000000e+000
    outer loop
      vertex  8.652476e-001 -3.916296e+001  4.200000e+000
      vertex  2.265248e+000 -3.814580e+001  5.200000e+000
      vertex  2.265248e+000 -3.814580e+001  4.200000e+000
    endloop
  endfacet
  facet normal -9.510565e-001  3.090171e-001  0.000000e+000
    outer loop
      vertex  2.265248e+000 -3.814580e+001  4.200000e+000
      vertex  2.265248e+000 -3.814580e+001  5.200000e+000
      vertex  2.800000e+000 -3.650000e+001  5.200000e+000
    endloop
  endfacet
  facet normal -9.510565e-001  3.090171e-001  0.000000e+000
    outer loop
      vertex  2.265248e+000 -3.814580e+001  4.200000e+000
      vertex  2.800000e+000 -3.650000e+001  5.200000e+000
      vertex  2.800000e+000 -3.650000e+001  4.200000e+000
    endloop
  endfacet
  facet normal -5.877863e-001  8.090162e-001  0.000000e+000
    outer loop
      vertex  2.265248e+000 -3.814580e+001  5.200000e+000
      vertex  8.652476e-001 -3.916296e+001  4.200000e+000
      vertex  8.652476e-001 -3.916296e+001  5.200000e+000
    endloop
  endfacet
  facet normal  0.000000e+000  1.000000e+000  0.000000e+000
    outer loop
      vertex  8.652476e-001 -3.916296e+001  5.200000e+000
      vertex  8.652476e-001 -3.916296e+001  4.200000e+000
      vertex -8.652476e-001 -3.916296e+001  4.200000e+000
    endloop
  endfacet
  facet normal  0.000000e+000  1.000000e+000  0.000000e+000
    outer loop
      vertex  8.652476e-001 -3.916296e+001  5.200000e+000
      vertex -8.652476e-001 -3.916296e+001  4.200000e+000
      vertex -8.652476e-001 -3.916296e+001  5.200000e+000
    endloop
  endfacet
  facet normal  5.877863e-001  8.090162e-001  0.000000e+000
    outer loop
      vertex -8.652476e-001 -3.916296e+001  5.200000e+000
      vertex -8.652476e-001 -3.916296e+001  4.200000e+000
      vertex -2.265248e+000 -3.814580e+001  4.200000e+000
    endloop
  endfacet
  facet normal  5.877863e-001  8.090162e-001  -0.000000e+000
    outer loop
      vertex -8.652476e-001 -3.916296e+001  5.200000e+000
      vertex -2.265248e+000 -3.814580e+001  4.200000e+000
      vertex -2.265248e+000 -3.814580e+001  5.200000e+000
    endloop
  endfacet
  facet normal  9.510565e-001  3.090171e-001  0.000000e+000
    outer loop
      vertex -2.265248e+000 -3.814580e+001  5.200000e+000
      vertex -2.265248e+000 -3.814580e+001  4.200000e+000
      vertex -2.800000e+000 -3.650000e+001  4.200000e+000
    endloop
  endfacet
  facet normal  9.510565e-001  3.090171e-001  -0.000000e+000
    outer loop
      vertex -2.265248e+000 -3.814580e+001  5.200000e+000
      vertex -2.800000e+000 -3.650000e+001  4.200000e+000
      vertex -2.800000e+000 -3.650000e+001  5.200000e+000
    endloop
  endfacet
  facet normal -5.877863e-001  8.090162e-001  0.000000e+000
    outer loop
      vertex  8.652476e-001 -3.916296e+001 -5.200000e+000
      vertex  2.265248e+000 -3.814580e+001 -4.200000e+000
      vertex  2.265248e+000 -3.814580e+001 -5.200000e+000
    endloop
  endfacet
  facet normal -9.510565e-001  3.090171e-001  0.000000e+000
    outer loop
      vertex  2.265248e+000 -3.814580e+001 -5.200000e+000
      vertex  2.265248e+000 -3.814580e+001 -4.200000e+000
      vertex  2.800000e+000 -3.650000e+001 -4.200000e+000
    endloop
  endfacet
  facet normal -9.510565e-001  3.090171e-001  0.000000e+000
    outer loop
      vertex  2.265248e+000 -3.814580e+001 -5.200000e+000
      vertex  2.800000e+000 -3.650000e+001 -4.200000e+000
      vertex  2.800000e+000 -3.650000e+001 -5.200000e+000
    endloop
  endfacet
  facet normal -5.877863e-001  8.090162e-001  0.000000e+000
    outer loop
      vertex  2.265248e+000 -3.814580e+001 -4.200000e+000
      vertex  8.652476e-001 -3.916296e+001 -5.200000e+000
      vertex  8.652476e-001 -3.916296e+001 -4.200000e+000
    endloop
  endfacet
  facet normal  0.000000e+000  1.000000e+000  0.000000e+000
    outer loop
      vertex  8.652476e-001 -3.916296e+001 -4.200000e+000
      vertex  8.652476e-001 -3.916296e+001 -5.200000e+000
      vertex -8.652476e-001 -3.916296e+001 -5.200000e+000
    endloop
  endfacet
  facet normal  0.000000e+000  1.000000e+000  0.000000e+000
    outer loop
      vertex  8.652476e-001 -3.916296e+001 -4.200000e+000
      vertex -8.652476e-001 -3.916296e+001 -5.200000e+000
      vertex -8.652476e-001 -3.916296e+001 -4.200000e+000
    endloop
  endfacet
  facet normal  5.877863e-001  8.090162e-001  0.000000e+000
    outer loop
      vertex -8.652476e-001 -3.916296e+001 -4.200000e+000
      vertex -8.652476e-001 -3.916296e+001 -5.200000e+000
      vertex -2.265248e+000 -3.814580e+001 -5.200000e+000
    endloop
  endfacet
  facet normal  5.877863e-001  8.090162e-001  -0.000000e+000
    outer loop
      vertex -8.652476e-001 -3.916296e+001 -4.200000e+000
      vertex -2.265248e+000 -3.814580e+001 -5.200000e+000
      vertex -2.265248e+000 -3.814580e+001 -4.200000e+000
    endloop
  endfacet
  facet normal  9.510565e-001  3.090171e-001  0.000000e+000
    outer loop
      vertex -2.265248e+000 -3.814580e+001 -4.200000e+000
      vertex -2.265248e+000 -3.814580e+001 -5.200000e+000
      vertex -2.800000e+000 -3.650000e+001 -5.200000e+000
    endloop
  endfacet
  facet normal  9.510565e-001  3.090171e-001  -0.000000e+000
    outer loop
      vertex -2.265248e+000 -3.814580e+001 -4.200000e+000
      vertex -2.800000e+000 -3.650000e+001 -5.200000e+000
      vertex -2.800000e+000 -3.650000e+001 -4.200000e+000
    endloop
  endfacet
  facet normal  0.000000e+000  1.000000e+000  0.000000e+000
    outer loop
      vertex  8.500000e+000  4.230000e+001  4.200000e+000
      vertex -8.500000e+000  4.230000e+001  4.200000e+000
      vertex -8.500000e+000  4.230000e+001  5.200000e+000
    endloop
  endfacet
  facet normal  -0.000000e+000  1.000000e+000  0.000000e+000
    outer loop
      vertex  8.500000e+000  4.230000e+001  4.200000e+000
      vertex -8.500000e+000  4.230000e+001  5.200000e+000
      vertex  8.500000e+000  4.230000e+001  5.200000e+000
    endloop
  endfacet
  facet normal  0.000000e+000  1.000000e+000  0.000000e+000
    outer loop
      vertex  8.500000e+000  4.230000e+001  4.200000e+000
      vertex  8.500000e+000  4.230000e+001  5.200000e+000
      vertex  1.110000e+001  4.230000e+001  4.503332e+000
    endloop
  endfacet
  facet normal  0.000000e+000  1.000000e+000  0.000000e+000
    outer loop
      vertex  8.500000e+000  4.230000e+001  4.200000e+000
      vertex  1.110000e+001  4.230000e+001  4.503332e+000
      vertex  1.060000e+001  4.230000e+001  3.637307e+000
    endloop
  endfacet
  facet normal  0.000000e+000  1.000000e+000  0.000000e+000
    outer loop
      vertex  8.500000e+000  4.230000e+001 -4.200000e+000
      vertex  1.060000e+001  4.230000e+001 -3.637307e+000
      vertex  1.110000e+001  4.230000e+001 -4.503332e+000
    endloop
  endfacet
  facet normal  0.000000e+000  1.000000e+000  0.000000e+000
    outer loop
      vertex  8.500000e+000  4.230000e+001 -4.200000e+000
      vertex  1.110000e+001  4.230000e+001 -4.503332e+000
      vertex  8.500000e+000  4.230000e+001 -5.200000e+000
    endloop
  endfacet
  facet normal  0.000000e+000  1.000000e+000  -0.000000e+000
    outer loop
      vertex  8.500000e+000  4.230000e+001 -4.200000e+000
      vertex  8.500000e+000  4.230000e+001 -5.200000e+000
      vertex -8.500000e+000  4.230000e+001 -5.200000e+000
    endloop
  endfacet
  facet normal  0.000000e+000  1.000000e+000  0.000000e+000
    outer loop
      vertex  8.500000e+000  4.230000e+001 -4.200000e+000
      vertex -8.500000e+000  4.230000e+001 -5.200000e+000
      vertex -8.500000e+000  4.230000e+001 -4.200000e+000
    endloop
  endfacet
  facet normal  0.000000e+000  1.000000e+000  -0.000000e+000
    outer loop
      vertex -8.500000e+000  4.230000e+001 -4.200000e+000
      vertex -8.500000e+000  4.230000e+001 -5.200000e+000
      vertex -1.060000e+001  4.230000e+001 -3.637307e+000
    endloop
  endfacet
  facet normal  0.000000e+000  1.000000e+000  0.000000e+000
    outer loop
      vertex -1.060000e+001  4.230000e+001 -3.637307e+000
      vertex -8.500000e+000  4.230000e+001 -5.200000e+000
      vertex -1.110000e+001  4.230000e+001 -4.503332e+000
    endloop
  endfacet
  facet normal  0.000000e+000  1.000000e+000  -0.000000e+000
    outer loop
      vertex -1.060000e+001  4.230000e+001 -3.637307e+000
      vertex -1.110000e+001  4.230000e+001 -4.503332e+000
      vertex -1.213731e+001  4.230000e+001 -2.100000e+000
    endloop
  endfacet
  facet normal  0.000000e+000  1.000000e+000  0.000000e+000
    outer loop
      vertex -1.213731e+001  4.230000e+001 -2.100000e+000
      vertex -1.110000e+001  4.230000e+001 -4.503332e+000
      vertex -1.300333e+001  4.230000e+001 -2.600000e+000
    endloop
  endfacet
  facet normal  0.000000e+000  1.000000e+000  0.000000e+000
    outer loop
      vertex -1.213731e+001  4.230000e+001 -2.100000e+000
      vertex -1.300333e+001  4.230000e+001 -2.600000e+000
      vertex -1.270000e+001  4.230000e+001 -3.537773e-015
    endloop
  endfacet
  facet normal  0.000000e+000  1.000000e+000  0.000000e+000
    outer loop
      vertex -1.270000e+001  4.230000e+001 -3.537773e-015
      vertex -1.300333e+001  4.230000e+001 -2.600000e+000
      vertex -1.370000e+001  4.230000e+001  5.867702e-017
    endloop
  endfacet
  facet normal  -0.000000e+000  1.000000e+000  0.000000e+000
    outer loop
      vertex -1.270000e+001  4.230000e+001 -3.537773e-015
      vertex -1.370000e+001  4.230000e+001  5.867702e-017
      vertex -1.213731e+001  4.230000e+001  2.100000e+000
    endloop
  endfacet
  facet normal  0.000000e+000  1.000000e+000  0.000000e+000
    outer loop
      vertex -1.213731e+001  4.230000e+001  2.100000e+000
      vertex -1.370000e+001  4.230000e+001  5.867702e-017
      vertex -1.300333e+001  4.230000e+001  2.600000e+000
    endloop
  endfacet
  facet normal  -0.000000e+000  1.000000e+000  0.000000e+000
    outer loop
      vertex -1.213731e+001  4.230000e+001  2.100000e+000
      vertex -1.300333e+001  4.230000e+001  2.600000e+000
      vertex -1.060000e+001  4.230000e+001  3.637307e+000
    endloop
  endfacet
  facet normal  0.000000e+000  1.000000e+000  0.000000e+000
    outer loop
      vertex -1.060000e+001  4.230000e+001  3.637307e+000
      vertex -1.300333e+001  4.230000e+001  2.600000e+000
      vertex -1.110000e+001  4.230000e+001  4.503332e+000
    endloop
  endfacet
  facet normal  0.000000e+000  1.000000e+000  0.000000e+000
    outer loop
      vertex -1.060000e+001  4.230000e+001  3.637307e+000
      vertex -1.110000e+001  4.230000e+001  4.503332e+000
      vertex -8.500000e+000  4.230000e+001  4.200000e+000
    endloop
  endfacet
  facet normal  0.000000e+000  1.000000e+000  -0.000000e+000
    outer loop
      vertex -8.500000e+000  4.230000e+001  4.200000e+000
      vertex -1.110000e+001  4.230000e+001  4.503332e+000
      vertex -8.500000e+000  4.230000e+001  5.200000e+000
    endloop
  endfacet
  facet normal  -0.000000e+000  1.000000e+000  0.000000e+000
    outer loop
      vertex  1.110000e+001  4.230000e+001 -4.503332e+000
      vertex  1.060000e+001  4.230000e+001 -3.637307e+000
      vertex  1.300333e+001  4.230000e+001 -2.600000e+000
    endloop
  endfacet
  facet normal  0.000000e+000  1.000000e+000  0.000000e+000
    outer loop
      vertex  1.300333e+001  4.230000e+001 -2.600000e+000
      vertex  1.060000e+001  4.230000e+001 -3.637307e+000
      vertex  1.213731e+001  4.230000e+001 -2.100000e+000
    endloop
  endfacet
  facet normal  -0.000000e+000  1.000000e+000  0.000000e+000
    outer loop
      vertex  1.300333e+001  4.230000e+001 -2.600000e+000
      vertex  1.213731e+001  4.230000e+001 -2.100000e+000
      vertex  1.370000e+001  4.230000e+001  6.367953e-016
    endloop
  endfacet
  facet normal  0.000000e+000  1.000000e+000  0.000000e+000
    outer loop
      vertex  1.370000e+001  4.230000e+001  6.367953e-016
      vertex  1.213731e+001  4.230000e+001 -2.100000e+000
      vertex  1.270000e+001  4.230000e+001  5.143347e-016
    endloop
  endfacet
  facet normal  0.000000e+000  1.000000e+000  0.000000e+000
    outer loop
      vertex  1.370000e+001  4.230000e+001  6.367953e-016
      vertex  1.270000e+001  4.230000e+001  5.143347e-016
      vertex  1.300333e+001  4.230000e+001  2.600000e+000
    endloop
  endfacet
  facet normal  0.000000e+000  1.000000e+000  0.000000e+000
    outer loop
      vertex  1.300333e+001  4.230000e+001  2.600000e+000
      vertex  1.270000e+001  4.230000e+001  5.143347e-016
      vertex  1.213731e+001  4.230000e+001  2.100000e+000
    endloop
  endfacet
  facet normal  0.000000e+000  1.000000e+000  -0.000000e+000
    outer loop
      vertex  1.300333e+001  4.230000e+001  2.600000e+000
      vertex  1.213731e+001  4.230000e+001  2.100000e+000
      vertex  1.110000e+001  4.230000e+001  4.503332e+000
    endloop
  endfacet
  facet normal  0.000000e+000  1.000000e+000  0.000000e+000
    outer loop
      vertex  1.110000e+001  4.230000e+001  4.503332e+000
      vertex  1.213731e+001  4.230000e+001  2.100000e+000
      vertex  1.060000e+001  4.230000e+001  3.637307e+000
    endloop
  endfacet
  facet normal  0.000000e+000 -1.000000e+000  0.000000e+000
    outer loop
      vertex  8.500000e+000 -4.230000e+001  4.200000e+000
      vertex  1.060000e+001 -4.230000e+001  3.637307e+000
      vertex  1.110000e+001 -4.230000e+001  4.503332e+000
    endloop
  endfacet
  facet normal  -0.000000e+000 -1.000000e+000  0.000000e+000
    outer loop
      vertex  8.500000e+000 -4.230000e+001  4.200000e+000
      vertex  1.110000e+001 -4.230000e+001  4.503332e+000
      vertex  8.500000e+000 -4.230000e+001  5.200000e+000
    endloop
  endfacet
  facet normal  -0.000000e+000 -1.000000e+000  -0.000000e+000
    outer loop
      vertex  8.500000e+000 -4.230000e+001  4.200000e+000
      vertex  8.500000e+000 -4.230000e+001  5.200000e+000
      vertex -8.500000e+000 -4.230000e+001  5.200000e+000
    endloop
  endfacet
  facet normal  0.000000e+000 -1.000000e+000  0.000000e+000
    outer loop
      vertex  8.500000e+000 -4.230000e+001  4.200000e+000
      vertex -8.500000e+000 -4.230000e+001  5.200000e+000
      vertex -8.500000e+000 -4.230000e+001  4.200000e+000
    endloop
  endfacet
  facet normal  0.000000e+000 -1.000000e+000  0.000000e+000
    outer loop
      vertex  8.500000e+000 -4.230000e+001 -4.200000e+000
      vertex -8.500000e+000 -4.230000e+001 -4.200000e+000
      vertex -8.500000e+000 -4.230000e+001 -5.200000e+000
    endloop
  endfacet
  facet normal  0.000000e+000 -1.000000e+000  0.000000e+000
    outer loop
      vertex  8.500000e+000 -4.230000e+001 -4.200000e+000
      vertex -8.500000e+000 -4.230000e+001 -5.200000e+000
      vertex  8.500000e+000 -4.230000e+001 -5.200000e+000
    endloop
  endfacet
  facet normal  0.000000e+000 -1.000000e+000  0.000000e+000
    outer loop
      vertex  8.500000e+000 -4.230000e+001 -4.200000e+000
      vertex  8.500000e+000 -4.230000e+001 -5.200000e+000
      vertex  1.110000e+001 -4.230000e+001 -4.503332e+000
    endloop
  endfacet
  facet normal  0.000000e+000 -1.000000e+000  0.000000e+000
    outer loop
      vertex  8.500000e+000 -4.230000e+001 -4.200000e+000
      vertex  1.110000e+001 -4.230000e+001 -4.503332e+000
      vertex  1.060000e+001 -4.230000e+001 -3.637307e+000
    endloop
  endfacet
  facet normal  0.000000e+000 -1.000000e+000  0.000000e+000
    outer loop
      vertex -1.270000e+001 -4.230000e+001 -3.537773e-015
      vertex -1.300333e+001 -4.230000e+001 -2.600000e+000
      vertex -1.213731e+001 -4.230000e+001 -2.100000e+000
    endloop
  endfacet
  facet normal  0.000000e+000 -1.000000e+000  -0.000000e+000
    outer loop
      vertex -1.213731e+001 -4.230000e+001 -2.100000e+000
      vertex -1.300333e+001 -4.230000e+001 -2.600000e+000
      vertex -1.110000e+001 -4.230000e+001 -4.503332e+000
    endloop
  endfacet
  facet normal  0.000000e+000 -1.000000e+000  0.000000e+000
    outer loop
      vertex -1.213731e+001 -4.230000e+001 -2.100000e+000
      vertex -1.110000e+001 -4.230000e+001 -4.503332e+000
      vertex -1.060000e+001 -4.230000e+001 -3.637307e+000
    endloop
  endfacet
  facet normal  0.000000e+000 -1.000000e+000  -0.000000e+000
    outer loop
      vertex -1.060000e+001 -4.230000e+001 -3.637307e+000
      vertex -1.110000e+001 -4.230000e+001 -4.503332e+000
      vertex -8.500000e+000 -4.230000e+001 -5.200000e+000
    endloop
  endfacet
  facet normal  0.000000e+000 -1.000000e+000  0.000000e+000
    outer loop
      vertex -1.060000e+001 -4.230000e+001 -3.637307e+000
      vertex -8.500000e+000 -4.230000e+001 -5.200000e+000
      vertex -8.500000e+000 -4.230000e+001 -4.200000e+000
    endloop
  endfacet
  facet normal  -0.000000e+000 -1.000000e+000  0.000000e+000
    outer loop
      vertex -1.300333e+001 -4.230000e+001 -2.600000e+000
      vertex -1.270000e+001 -4.230000e+001 -3.537773e-015
      vertex -1.370000e+001 -4.230000e+001  5.867702e-017
    endloop
  endfacet
  facet normal  0.000000e+000 -1.000000e+000  0.000000e+000
    outer loop
      vertex -1.370000e+001 -4.230000e+001  5.867702e-017
      vertex -1.270000e+001 -4.230000e+001 -3.537773e-015
      vertex -1.213731e+001 -4.230000e+001  2.100000e+000
    endloop
  endfacet
  facet normal  -0.000000e+000 -1.000000e+000  0.000000e+000
    outer loop
      vertex -1.370000e+001 -4.230000e+001  5.867702e-017
      vertex -1.213731e+001 -4.230000e+001  2.100000e+000
      vertex -1.300333e+001 -4.230000e+001  2.600000e+000
    endloop
  endfacet
  facet normal  0.000000e+000 -1.000000e+000  0.000000e+000
    outer loop
      vertex -1.300333e+001 -4.230000e+001  2.600000e+000
      vertex -1.213731e+001 -4.230000e+001  2.100000e+000
      vertex -1.060000e+001 -4.230000e+001  3.637307e+000
    endloop
  endfacet
  facet normal  -0.000000e+000 -1.000000e+000  0.000000e+000
    outer loop
      vertex -1.300333e+001 -4.230000e+001  2.600000e+000
      vertex -1.060000e+001 -4.230000e+001  3.637307e+000
      vertex -1.110000e+001 -4.230000e+001  4.503332e+000
    endloop
  endfacet
  facet normal  0.000000e+000 -1.000000e+000  0.000000e+000
    outer loop
      vertex -1.110000e+001 -4.230000e+001  4.503332e+000
      vertex -1.060000e+001 -4.230000e+001  3.637307e+000
      vertex -8.500000e+000 -4.230000e+001  4.200000e+000
    endloop
  endfacet
  facet normal  0.000000e+000 -1.000000e+000  0.000000e+000
    outer loop
      vertex -1.110000e+001 -4.230000e+001  4.503332e+000
      vertex -8.500000e+000 -4.230000e+001  4.200000e+000
      vertex -8.500000e+000 -4.230000e+001  5.200000e+000
    endloop
  endfacet
  facet normal  0.000000e+000 -1.000000e+000  0.000000e+000
    outer loop
      vertex  1.370000e+001 -4.230000e+001  6.367953e-016
      vertex  1.213731e+001 -4.230000e+001 -2.100000e+000
      vertex  1.300333e+001 -4.230000e+001 -2.600000e+000
    endloop
  endfacet
  facet normal  -0.000000e+000 -1.000000e+000  0.000000e+000
    outer loop
      vertex  1.300333e+001 -4.230000e+001 -2.600000e+000
      vertex  1.213731e+001 -4.230000e+001 -2.100000e+000
      vertex  1.060000e+001 -4.230000e+001 -3.637307e+000
    endloop
  endfacet
  facet normal  0.000000e+000 -1.000000e+000  0.000000e+000
    outer loop
      vertex  1.300333e+001 -4.230000e+001 -2.600000e+000
      vertex  1.060000e+001 -4.230000e+001 -3.637307e+000
      vertex  1.110000e+001 -4.230000e+001 -4.503332e+000
    endloop
  endfacet
  facet normal  0.000000e+000 -1.000000e+000  0.000000e+000
    outer loop
      vertex  1.213731e+001 -4.230000e+001 -2.100000e+000
      vertex  1.370000e+001 -4.230000e+001  6.367953e-016
      vertex  1.270000e+001 -4.230000e+001  5.143347e-016
    endloop
  endfacet
  facet normal  0.000000e+000 -1.000000e+000  0.000000e+000
    outer loop
      vertex  1.270000e+001 -4.230000e+001  5.143347e-016
      vertex  1.370000e+001 -4.230000e+001  6.367953e-016
      vertex  1.300333e+001 -4.230000e+001  2.600000e+000
    endloop
  endfacet
  facet normal  0.000000e+000 -1.000000e+000  0.000000e+000
    outer loop
      vertex  1.270000e+001 -4.230000e+001  5.143347e-016
      vertex  1.300333e+001 -4.230000e+001  2.600000e+000
      vertex  1.213731e+001 -4.230000e+001  2.100000e+000
    endloop
  endfacet
  facet normal  0.000000e+000 -1.000000e+000  0.000000e+000
    outer loop
      vertex  1.213731e+001 -4.230000e+001  2.100000e+000
      vertex  1.300333e+001 -4.230000e+001  2.600000e+000
      vertex  1.110000e+001 -4.230000e+001  4.503332e+000
    endloop
  endfacet
  facet normal  0.000000e+000 -1.000000e+000  -0.000000e+000
    outer loop
      vertex  1.213731e+001 -4.230000e+001  2.100000e+000
      vertex  1.110000e+001 -4.230000e+001  4.503332e+000
      vertex  1.060000e+001 -4.230000e+001  3.637307e+000
    endloop
  endfacet
  facet normal -9.659259e-001  -0.000000e+000 -2.588188e-001
    outer loop
      vertex  1.213731e+001 -4.230000e+001  2.100000e+000
      vertex  1.270000e+001  4.230000e+001  5.143347e-016
      vertex  1.270000e+001 -4.230000e+001  5.143347e-016
    endloop
  endfacet
  facet normal -9.659259e-001  0.000000e+000 -2.588188e-001
    outer loop
      vertex  1.270000e+001  4.230000e+001  5.143347e-016
      vertex  1.213731e+001 -4.230000e+001  2.100000e+000
      vertex  1.213731e+001  4.230000e+001  2.100000e+000
    endloop
  endfacet
  facet normal -7.071067e-001  -0.000000e+000 -7.071067e-001
    outer loop
      vertex  1.213731e+001  4.230000e+001  2.100000e+000
      vertex  1.213731e+001 -4.230000e+001  2.100000e+000
      vertex  1.060000e+001 -4.230000e+001  3.637307e+000
    endloop
  endfacet
  facet normal -7.071067e-001  0.000000e+000 -7.071067e-001
    outer loop
      vertex  1.213731e+001  4.230000e+001  2.100000e+000
      vertex  1.060000e+001 -4.230000e+001  3.637307e+000
      vertex  1.060000e+001  4.230000e+001  3.637307e+000
    endloop
  endfacet
  facet normal -2.588189e-001  -0.000000e+000 -9.659258e-001
    outer loop
      vertex  1.060000e+001  4.230000e+001  3.637307e+000
      vertex  1.060000e+001 -4.230000e+001  3.637307e+000
      vertex  8.500000e+000 -4.230000e+001  4.200000e+000
    endloop
  endfacet
  facet normal -2.588189e-001  0.000000e+000 -9.659258e-001
    outer loop
      vertex  1.060000e+001  4.230000e+001  3.637307e+000
      vertex  8.500000e+000 -4.230000e+001  4.200000e+000
      vertex  8.500000e+000  4.230000e+001  4.200000e+000
    endloop
  endfacet
  facet normal -2.588189e-001  0.000000e+000  9.659258e-001
    outer loop
      vertex  1.060000e+001 -4.230000e+001 -3.637307e+000
      vertex  8.500000e+000  4.230000e+001 -4.200000e+000
      vertex  8.500000e+000 -4.230000e+001 -4.200000e+000
    endloop
  endfacet
  facet normal -2.588189e-001  0.000000e+000  9.659258e-001
    outer loop
      vertex  8.500000e+000  4.230000e+001 -4.200000e+000
      vertex  1.060000e+001 -4.230000e+001 -3.637307e+000
      vertex  1.060000e+001  4.230000e+001 -3.637307e+000
    endloop
  endfacet
  facet normal -7.071067e-001  0.000000e+000  7.071067e-001
    outer loop
      vertex  1.060000e+001  4.230000e+001 -3.637307e+000
      vertex  1.060000e+001 -4.230000e+001 -3.637307e+000
      vertex  1.213731e+001 -4.230000e+001 -2.100000e+000
    endloop
  endfacet
  facet normal -7.071067e-001  0.000000e+000  7.071067e-001
    outer loop
      vertex  1.060000e+001  4.230000e+001 -3.637307e+000
      vertex  1.213731e+001 -4.230000e+001 -2.100000e+000
      vertex  1.213731e+001  4.230000e+001 -2.100000e+000
    endloop
  endfacet
  facet normal -9.659259e-001  0.000000e+000  2.588188e-001
    outer loop
      vertex  1.213731e+001  4.230000e+001 -2.100000e+000
      vertex  1.213731e+001 -4.230000e+001 -2.100000e+000
      vertex  1.270000e+001 -4.230000e+001  5.143347e-016
    endloop
  endfacet
  facet normal -9.659259e-001  0.000000e+000  2.588188e-001
    outer loop
      vertex  1.213731e+001  4.230000e+001 -2.100000e+000
      vertex  1.270000e+001 -4.230000e+001  5.143347e-016
      vertex  1.270000e+001  4.230000e+001  5.143347e-016
    endloop
  endfacet
  facet normal  9.659259e-001  0.000000e+000  2.588188e-001
    outer loop
      vertex -1.213731e+001 -4.230000e+001 -2.100000e+000
      vertex -1.270000e+001  4.230000e+001 -3.537773e-015
      vertex -1.270000e+001 -4.230000e+001 -3.537773e-015
    endloop
  endfacet
  facet normal  9.659259e-001  -0.000000e+000  2.588188e-001
    outer loop
      vertex -1.270000e+001  4.230000e+001 -3.537773e-015
      vertex -1.213731e+001 -4.230000e+001 -2.100000e+000
      vertex -1.213731e+001  4.230000e+001 -2.100000e+000
    endloop
  endfacet
  facet normal  7.071067e-001  0.000000e+000  7.071067e-001
    outer loop
      vertex -1.213731e+001  4.230000e+001 -2.100000e+000
      vertex -1.213731e+001 -4.230000e+001 -2.100000e+000
      vertex -1.060000e+001 -4.230000e+001 -3.637307e+000
    endloop
  endfacet
  facet normal  7.071067e-001  -0.000000e+000  7.071067e-001
    outer loop
      vertex -1.213731e+001  4.230000e+001 -2.100000e+000
      vertex -1.060000e+001 -4.230000e+001 -3.637307e+000
      vertex -1.060000e+001  4.230000e+001 -3.637307e+000
    endloop
  endfacet
  facet normal  2.588189e-001  0.000000e+000  9.659258e-001
    outer loop
      vertex -1.060000e+001  4.230000e+001 -3.637307e+000
      vertex -1.060000e+001 -4.230000e+001 -3.637307e+000
      vertex -8.500000e+000 -4.230000e+001 -4.200000e+000
    endloop
  endfacet
  facet normal  2.588189e-001  -0.000000e+000  9.659258e-001
    outer loop
      vertex -1.060000e+001  4.230000e+001 -3.637307e+000
      vertex -8.500000e+000 -4.230000e+001 -4.200000e+000
      vertex -8.500000e+000  4.230000e+001 -4.200000e+000
    endloop
  endfacet
  facet normal  2.588189e-001  0.000000e+000 -9.659258e-001
    outer loop
      vertex -1.060000e+001 -4.230000e+001  3.637307e+000
      vertex -8.500000e+000  4.230000e+001  4.200000e+000
      vertex -8.500000e+000 -4.230000e+001  4.200000e+000
    endloop
  endfacet
  facet normal  2.588189e-001  0.000000e+000 -9.659258e-001
    outer loop
      vertex -8.500000e+000  4.230000e+001  4.200000e+000
      vertex -1.060000e+001 -4.230000e+001  3.637307e+000
      vertex -1.060000e+001  4.230000e+001  3.637307e+000
    endloop
  endfacet
  facet normal  7.071067e-001  0.000000e+000 -7.071067e-001
    outer loop
      vertex -1.060000e+001  4.230000e+001  3.637307e+000
      vertex -1.060000e+001 -4.230000e+001  3.637307e+000
      vertex -1.213731e+001 -4.230000e+001  2.100000e+000
    endloop
  endfacet
  facet normal  7.071067e-001  0.000000e+000 -7.071067e-001
    outer loop
      vertex -1.060000e+001  4.230000e+001  3.637307e+000
      vertex -1.213731e+001 -4.230000e+001  2.100000e+000
      vertex -1.213731e+001  4.230000e+001  2.100000e+000
    endloop
  endfacet
  facet normal  9.659259e-001  0.000000e+000 -2.588188e-001
    outer loop
      vertex -1.213731e+001  4.230000e+001  2.100000e+000
      vertex -1.213731e+001 -4.230000e+001  2.100000e+000
      vertex -1.270000e+001 -4.230000e+001 -3.537773e-015
    endloop
  endfacet
  facet normal  9.659259e-001  0.000000e+000 -2.588188e-001
    outer loop
      vertex -1.213731e+001  4.230000e+001  2.100000e+000
      vertex -1.270000e+001 -4.230000e+001 -3.537773e-015
      vertex -1.270000e+001  4.230000e+001 -3.537773e-015
    endloop
  endfacet
  facet normal -2.588190e-001  0.000000e+000  9.659259e-001
    outer loop
      vertex -8.500000e+000 -4.230000e+001  5.200000e+000
      vertex -8.500000e+000  4.230000e+001  5.200000e+000
      vertex -1.110000e+001 -4.230000e+001  4.503332e+000
    endloop
  endfacet
  facet normal -2.588190e-001  0.000000e+000  9.659259e-001
    outer loop
      vertex -1.110000e+001 -4.230000e+001  4.503332e+000
      vertex -8.500000e+000  4.230000e+001  5.200000e+000
      vertex -1.110000e+001  4.230000e+001  4.503332e+000
    endloop
  endfacet
  facet normal -7.071068e-001  0.000000e+000  7.071066e-001
    outer loop
      vertex -1.110000e+001 -4.230000e+001  4.503332e+000
      vertex -1.110000e+001  4.230000e+001  4.503332e+000
      vertex -1.300333e+001 -4.230000e+001  2.600000e+000
    endloop
  endfacet
  facet normal -7.071068e-001  0.000000e+000  7.071066e-001
    outer loop
      vertex -1.300333e+001 -4.230000e+001  2.600000e+000
      vertex -1.110000e+001  4.230000e+001  4.503332e+000
      vertex -1.300333e+001  4.230000e+001  2.600000e+000
    endloop
  endfacet
  facet normal -9.659259e-001  0.000000e+000  2.588190e-001
    outer loop
      vertex -1.300333e+001 -4.230000e+001  2.600000e+000
      vertex -1.300333e+001  4.230000e+001  2.600000e+000
      vertex -1.370000e+001 -4.230000e+001  5.867702e-017
    endloop
  endfacet
  facet normal -9.659259e-001  0.000000e+000  2.588190e-001
    outer loop
      vertex -1.370000e+001 -4.230000e+001  5.867702e-017
      vertex -1.300333e+001  4.230000e+001  2.600000e+000
      vertex -1.370000e+001  4.230000e+001  5.867702e-017
    endloop
  endfacet
  facet normal -9.659259e-001  -0.000000e+000 -2.588190e-001
    outer loop
      vertex -1.370000e+001 -4.230000e+001  5.867702e-017
      vertex -1.370000e+001  4.230000e+001  5.867702e-017
      vertex -1.300333e+001 -4.230000e+001 -2.600000e+000
    endloop
  endfacet
  facet normal -9.659259e-001  0.000000e+000 -2.588190e-001
    outer loop
      vertex -1.300333e+001 -4.230000e+001 -2.600000e+000
      vertex -1.370000e+001  4.230000e+001  5.867702e-017
      vertex -1.300333e+001  4.230000e+001 -2.600000e+000
    endloop
  endfacet
  facet normal -7.071068e-001  -0.000000e+000 -7.071066e-001
    outer loop
      vertex -1.300333e+001 -4.230000e+001 -2.600000e+000
      vertex -1.300333e+001  4.230000e+001 -2.600000e+000
      vertex -1.110000e+001 -4.230000e+001 -4.503332e+000
    endloop
  endfacet
  facet normal -7.071068e-001  0.000000e+000 -7.071066e-001
    outer loop
      vertex -1.110000e+001 -4.230000e+001 -4.503332e+000
      vertex -1.300333e+001  4.230000e+001 -2.600000e+000
      vertex -1.110000e+001  4.230000e+001 -4.503332e+000
    endloop
  endfacet
  facet normal -2.588190e-001  -0.000000e+000 -9.659259e-001
    outer loop
      vertex -1.110000e+001 -4.230000e+001 -4.503332e+000
      vertex -1.110000e+001  4.230000e+001 -4.503332e+000
      vertex -8.500000e+000 -4.230000e+001 -5.200000e+000
    endloop
  endfacet
  facet normal -2.588190e-001  0.000000e+000 -9.659259e-001
    outer loop
      vertex -8.500000e+000 -4.230000e+001 -5.200000e+000
      vertex -1.110000e+001  4.230000e+001 -4.503332e+000
      vertex -8.500000e+000  4.230000e+001 -5.200000e+000
    endloop
  endfacet
  facet normal  2.588190e-001  0.000000e+000 -9.659259e-001
    outer loop
      vertex  8.500000e+000 -4.230000e+001 -5.200000e+000
      vertex  8.500000e+000  4.230000e+001 -5.200000e+000
      vertex  1.110000e+001 -4.230000e+001 -4.503332e+000
    endloop
  endfacet
  facet normal  2.588190e-001  0.000000e+000 -9.659259e-001
    outer loop
      vertex  1.110000e+001 -4.230000e+001 -4.503332e+000
      vertex  8.500000e+000  4.230000e+001 -5.200000e+000
      vertex  1.110000e+001  4.230000e+001 -4.503332e+000
    endloop
  endfacet
  facet normal  7.071068e-001  0.000000e+000 -7.071066e-001
    outer loop
      vertex  1.110000e+001 -4.230000e+001 -4.503332e+000
      vertex  1.110000e+001  4.230000e+001 -4.503332e+000
      vertex  1.300333e+001 -4.230000e+001 -2.600000e+000
    endloop
  endfacet
  facet normal  7.071068e-001  0.000000e+000 -7.071066e-001
    outer loop
      vertex  1.300333e+001 -4.230000e+001 -2.600000e+000
      vertex  1.110000e+001  4.230000e+001 -4.503332e+000
      vertex  1.300333e+001  4.230000e+001 -2.600000e+000
    endloop
  endfacet
  facet normal  9.659259e-001  0.000000e+000 -2.588190e-001
    outer loop
      vertex  1.300333e+001 -4.230000e+001 -2.600000e+000
      vertex  1.300333e+001  4.230000e+001 -2.600000e+000
      vertex  1.370000e+001 -4.230000e+001  6.367953e-016
    endloop
  endfacet
  facet normal  9.659259e-001  0.000000e+000 -2.588190e-001
    outer loop
      vertex  1.370000e+001 -4.230000e+001  6.367953e-016
      vertex  1.300333e+001  4.230000e+001 -2.600000e+000
      vertex  1.370000e+001  4.230000e+001  6.367953e-016
    endloop
  endfacet
  facet normal  9.659259e-001  0.000000e+000  2.588190e-001
    outer loop
      vertex  1.370000e+001 -4.230000e+001  6.367953e-016
      vertex  1.370000e+001  4.230000e+001  6.367953e-016
      vertex  1.300333e+001 -4.230000e+001  2.600000e+000
    endloop
  endfacet
  facet normal  9.659259e-001  -0.000000e+000  2.588190e-001
    outer loop
      vertex  1.300333e+001 -4.230000e+001  2.600000e+000
      vertex  1.370000e+001  4.230000e+001  6.367953e-016
      vertex  1.300333e+001  4.230000e+001  2.600000e+000
    endloop
  endfacet
  facet normal  7.071068e-001  0.000000e+000  7.071066e-001
    outer loop
      vertex  1.300333e+001 -4.230000e+001  2.600000e+000
      vertex  1.300333e+001  4.230000e+001  2.600000e+000
      vertex  1.110000e+001 -4.230000e+001  4.503332e+000
    endloop
  endfacet
  facet normal  7.071068e-001  -0.000000e+000  7.071066e-001
    outer loop
      vertex  1.110000e+001 -4.230000e+001  4.503332e+000
      vertex  1.300333e+001  4.230000e+001  2.600000e+000
      vertex  1.110000e+001  4.230000e+001  4.503332e+000
    endloop
  endfacet
  facet normal  2.588190e-001  0.000000e+000  9.659259e-001
    outer loop
      vertex  1.110000e+001 -4.230000e+001  4.503332e+000
      vertex  1.110000e+001  4.230000e+001  4.503332e+000
      vertex  8.500000e+000 -4.230000e+001  5.200000e+000
    endloop
  endfacet
  facet normal  2.588190e-001  -0.000000e+000  9.659259e-001
    outer loop
      vertex  8.500000e+000 -4.230000e+001  5.200000e+000
      vertex  1.110000e+001  4.230000e+001  4.503332e+000
      vertex  8.500000e+000  4.230000e+001  5.200000e+000
    endloop
  endfacet
endsolid CATIA STL
