solid CATIA STL
  facet normal  0.000000e+000  0.000000e+000  9.999999e-001
    outer loop
      vertex -8.652476e-001 -3.383704e+001  3.000000e+000
      vertex -8.652476e-001  3.383704e+001  3.000000e+000
      vertex -2.265248e+000 -3.485420e+001  3.000000e+000
    endloop
  endfacet
  facet normal  0.000000e+000  0.000000e+000  1.000000e+000
    outer loop
      vertex -9.000000e+000  4.230000e+001  3.000000e+000
      vertex -9.000000e+000 -4.230000e+001  3.000000e+000
      vertex -2.800000e+000  3.650000e+001  3.000000e+000
    endloop
  endfacet
  facet normal  0.000000e+000  -0.000000e+000  9.999999e-001
    outer loop
      vertex -9.000000e+000  4.230000e+001  3.000000e+000
      vertex -2.800000e+000  3.650000e+001  3.000000e+000
      vertex -2.265248e+000  3.814580e+001  3.000000e+000
    endloop
  endfacet
  facet normal  0.000000e+000  -0.000000e+000  1.000000e+000
    outer loop
      vertex -9.000000e+000  4.230000e+001  3.000000e+000
      vertex -2.265248e+000  3.814580e+001  3.000000e+000
      vertex -8.652476e-001  3.916296e+001  3.000000e+000
    endloop
  endfacet
  facet normal  0.000000e+000  -0.000000e+000  1.000000e+000
    outer loop
      vertex -9.000000e+000  4.230000e+001  3.000000e+000
      vertex -8.652476e-001  3.916296e+001  3.000000e+000
      vertex  8.652476e-001  3.916296e+001  3.000000e+000
    endloop
  endfacet
  facet normal  0.000000e+000  -0.000000e+000  1.000000e+000
    outer loop
      vertex -9.000000e+000  4.230000e+001  3.000000e+000
      vertex  8.652476e-001  3.916296e+001  3.000000e+000
      vertex  9.000000e+000  4.230000e+001  3.000000e+000
    endloop
  endfacet
  facet normal  0.000000e+000  0.000000e+000  1.000000e+000
    outer loop
      vertex -9.000000e+000 -4.230000e+001  3.000000e+000
      vertex  9.000000e+000 -4.230000e+001  3.000000e+000
      vertex  8.652476e-001 -3.916296e+001  3.000000e+000
    endloop
  endfacet
  facet normal  0.000000e+000  0.000000e+000  1.000000e+000
    outer loop
      vertex -9.000000e+000 -4.230000e+001  3.000000e+000
      vertex  8.652476e-001 -3.916296e+001  3.000000e+000
      vertex -8.652476e-001 -3.916296e+001  3.000000e+000
    endloop
  endfacet
  facet normal  0.000000e+000  0.000000e+000  1.000000e+000
    outer loop
      vertex -9.000000e+000 -4.230000e+001  3.000000e+000
      vertex -8.652476e-001 -3.916296e+001  3.000000e+000
      vertex -2.265248e+000 -3.814580e+001  3.000000e+000
    endloop
  endfacet
  facet normal  0.000000e+000  0.000000e+000  1.000000e+000
    outer loop
      vertex -9.000000e+000 -4.230000e+001  3.000000e+000
      vertex -2.265248e+000 -3.814580e+001  3.000000e+000
      vertex -2.800000e+000 -3.650000e+001  3.000000e+000
    endloop
  endfacet
  facet normal  0.000000e+000  -0.000000e+000  9.999999e-001
    outer loop
      vertex -9.000000e+000 -4.230000e+001  3.000000e+000
      vertex -2.800000e+000 -3.650000e+001  3.000000e+000
      vertex -2.265248e+000 -3.485420e+001  3.000000e+000
    endloop
  endfacet
  facet normal  0.000000e+000  -0.000000e+000  1.000000e+000
    outer loop
      vertex -9.000000e+000 -4.230000e+001  3.000000e+000
      vertex -2.265248e+000 -3.485420e+001  3.000000e+000
      vertex -8.652476e-001  3.383704e+001  3.000000e+000
    endloop
  endfacet
  facet normal  0.000000e+000  0.000000e+000  1.000000e+000
    outer loop
      vertex -9.000000e+000 -4.230000e+001  3.000000e+000
      vertex -8.652476e-001  3.383704e+001  3.000000e+000
      vertex -2.265248e+000  3.485420e+001  3.000000e+000
    endloop
  endfacet
  facet normal  0.000000e+000  0.000000e+000  1.000000e+000
    outer loop
      vertex -9.000000e+000 -4.230000e+001  3.000000e+000
      vertex -2.265248e+000  3.485420e+001  3.000000e+000
      vertex -2.800000e+000  3.650000e+001  3.000000e+000
    endloop
  endfacet
  facet normal  0.000000e+000  0.000000e+000  1.000000e+000
    outer loop
      vertex  9.000000e+000 -4.230000e+001  3.000000e+000
      vertex  2.800000e+000  3.650000e+001  3.000000e+000
      vertex  2.265248e+000  3.485420e+001  3.000000e+000
    endloop
  endfacet
  facet normal  0.000000e+000  0.000000e+000  1.000000e+000
    outer loop
      vertex  9.000000e+000 -4.230000e+001  3.000000e+000
      vertex  2.265248e+000  3.485420e+001  3.000000e+000
      vertex  8.652476e-001  3.383704e+001  3.000000e+000
    endloop
  endfacet
  facet normal  0.000000e+000  0.000000e+000  1.000000e+000
    outer loop
      vertex  9.000000e+000 -4.230000e+001  3.000000e+000
      vertex  8.652476e-001  3.383704e+001  3.000000e+000
      vertex  2.265248e+000 -3.485420e+001  3.000000e+000
    endloop
  endfacet
  facet normal  0.000000e+000  0.000000e+000  1.000000e+000
    outer loop
      vertex  9.000000e+000 -4.230000e+001  3.000000e+000
      vertex  2.265248e+000 -3.485420e+001  3.000000e+000
      vertex  2.800000e+000 -3.650000e+001  3.000000e+000
    endloop
  endfacet
  facet normal  0.000000e+000  0.000000e+000  9.999999e-001
    outer loop
      vertex  9.000000e+000 -4.230000e+001  3.000000e+000
      vertex  2.800000e+000 -3.650000e+001  3.000000e+000
      vertex  2.265248e+000 -3.814580e+001  3.000000e+000
    endloop
  endfacet
  facet normal  0.000000e+000  0.000000e+000  1.000000e+000
    outer loop
      vertex  9.000000e+000 -4.230000e+001  3.000000e+000
      vertex  2.265248e+000 -3.814580e+001  3.000000e+000
      vertex  8.652476e-001 -3.916296e+001  3.000000e+000
    endloop
  endfacet
  facet normal  -0.000000e+000  0.000000e+000  1.000000e+000
    outer loop
      vertex  9.000000e+000  4.230000e+001  3.000000e+000
      vertex  8.652476e-001  3.916296e+001  3.000000e+000
      vertex  2.265248e+000  3.814580e+001  3.000000e+000
    endloop
  endfacet
  facet normal  -0.000000e+000  0.000000e+000  1.000000e+000
    outer loop
      vertex  9.000000e+000  4.230000e+001  3.000000e+000
      vertex  2.265248e+000  3.814580e+001  3.000000e+000
      vertex  2.800000e+000  3.650000e+001  3.000000e+000
    endloop
  endfacet
  facet normal  -0.000000e+000  0.000000e+000  1.000000e+000
    outer loop
      vertex  9.000000e+000  4.230000e+001  3.000000e+000
      vertex  2.800000e+000  3.650000e+001  3.000000e+000
      vertex  9.000000e+000 -4.230000e+001  3.000000e+000
    endloop
  endfacet
  facet normal  0.000000e+000  0.000000e+000  1.000000e+000
    outer loop
      vertex -8.652476e-001  3.383704e+001  3.000000e+000
      vertex -8.652476e-001 -3.383704e+001  3.000000e+000
      vertex  8.652476e-001  3.383704e+001  3.000000e+000
    endloop
  endfacet
  facet normal  0.000000e+000  0.000000e+000  1.000000e+000
    outer loop
      vertex  8.652476e-001  3.383704e+001  3.000000e+000
      vertex -8.652476e-001 -3.383704e+001  3.000000e+000
      vertex  8.652476e-001 -3.383704e+001  3.000000e+000
    endloop
  endfacet
  facet normal  -0.000000e+000  0.000000e+000  9.999999e-001
    outer loop
      vertex  8.652476e-001  3.383704e+001  3.000000e+000
      vertex  8.652476e-001 -3.383704e+001  3.000000e+000
      vertex  2.265248e+000 -3.485420e+001  3.000000e+000
    endloop
  endfacet
  facet normal  0.000000e+000  -0.000000e+000 -9.999999e-001
    outer loop
      vertex -2.265248e+000 -3.485420e+001  0.000000e+000
      vertex -8.652476e-001  3.383704e+001  0.000000e+000
      vertex -8.652476e-001 -3.383704e+001  0.000000e+000
    endloop
  endfacet
  facet normal  -0.000000e+000  0.000000e+000 -1.000000e+000
    outer loop
      vertex -9.000000e+000  4.230000e+001  0.000000e+000
      vertex  9.000000e+000  4.230000e+001  0.000000e+000
      vertex  8.652476e-001  3.916296e+001  0.000000e+000
    endloop
  endfacet
  facet normal  0.000000e+000  0.000000e+000 -1.000000e+000
    outer loop
      vertex -9.000000e+000  4.230000e+001  0.000000e+000
      vertex  8.652476e-001  3.916296e+001  0.000000e+000
      vertex -8.652476e-001  3.916296e+001  0.000000e+000
    endloop
  endfacet
  facet normal  -0.000000e+000  0.000000e+000 -1.000000e+000
    outer loop
      vertex -9.000000e+000  4.230000e+001  0.000000e+000
      vertex -8.652476e-001  3.916296e+001  0.000000e+000
      vertex -2.265248e+000  3.814580e+001  0.000000e+000
    endloop
  endfacet
  facet normal  -0.000000e+000  0.000000e+000 -1.000000e+000
    outer loop
      vertex -9.000000e+000  4.230000e+001  0.000000e+000
      vertex -2.265248e+000  3.814580e+001  0.000000e+000
      vertex -2.800000e+000  3.650000e+001  0.000000e+000
    endloop
  endfacet
  facet normal  -0.000000e+000  0.000000e+000 -1.000000e+000
    outer loop
      vertex -9.000000e+000  4.230000e+001  0.000000e+000
      vertex -2.800000e+000  3.650000e+001  0.000000e+000
      vertex -9.000000e+000 -4.230000e+001  0.000000e+000
    endloop
  endfacet
  facet normal  0.000000e+000  -0.000000e+000 -1.000000e+000
    outer loop
      vertex -9.000000e+000 -4.230000e+001  0.000000e+000
      vertex -2.800000e+000  3.650000e+001  0.000000e+000
      vertex -2.265248e+000  3.485420e+001  0.000000e+000
    endloop
  endfacet
  facet normal  0.000000e+000  -0.000000e+000 -1.000000e+000
    outer loop
      vertex -9.000000e+000 -4.230000e+001  0.000000e+000
      vertex -2.265248e+000  3.485420e+001  0.000000e+000
      vertex -8.652476e-001  3.383704e+001  0.000000e+000
    endloop
  endfacet
  facet normal  0.000000e+000  0.000000e+000 -1.000000e+000
    outer loop
      vertex -9.000000e+000 -4.230000e+001  0.000000e+000
      vertex -8.652476e-001  3.383704e+001  0.000000e+000
      vertex -2.265248e+000 -3.485420e+001  0.000000e+000
    endloop
  endfacet
  facet normal  0.000000e+000  0.000000e+000 -1.000000e+000
    outer loop
      vertex -9.000000e+000 -4.230000e+001  0.000000e+000
      vertex -2.265248e+000 -3.485420e+001  0.000000e+000
      vertex -2.800000e+000 -3.650000e+001  0.000000e+000
    endloop
  endfacet
  facet normal  0.000000e+000  -0.000000e+000 -9.999999e-001
    outer loop
      vertex -9.000000e+000 -4.230000e+001  0.000000e+000
      vertex -2.800000e+000 -3.650000e+001  0.000000e+000
      vertex -2.265248e+000 -3.814580e+001  0.000000e+000
    endloop
  endfacet
  facet normal  0.000000e+000  -0.000000e+000 -1.000000e+000
    outer loop
      vertex -9.000000e+000 -4.230000e+001  0.000000e+000
      vertex -2.265248e+000 -3.814580e+001  0.000000e+000
      vertex -8.652476e-001 -3.916296e+001  0.000000e+000
    endloop
  endfacet
  facet normal  0.000000e+000  -0.000000e+000 -1.000000e+000
    outer loop
      vertex -9.000000e+000 -4.230000e+001  0.000000e+000
      vertex -8.652476e-001 -3.916296e+001  0.000000e+000
      vertex  8.652476e-001 -3.916296e+001  0.000000e+000
    endloop
  endfacet
  facet normal  0.000000e+000  -0.000000e+000 -1.000000e+000
    outer loop
      vertex -9.000000e+000 -4.230000e+001  0.000000e+000
      vertex  8.652476e-001 -3.916296e+001  0.000000e+000
      vertex  9.000000e+000 -4.230000e+001  0.000000e+000
    endloop
  endfacet
  facet normal  0.000000e+000  0.000000e+000 -1.000000e+000
    outer loop
      vertex  9.000000e+000 -4.230000e+001  0.000000e+000
      vertex  8.652476e-001 -3.916296e+001  0.000000e+000
      vertex  2.265248e+000 -3.814580e+001  0.000000e+000
    endloop
  endfacet
  facet normal  0.000000e+000  0.000000e+000 -1.000000e+000
    outer loop
      vertex  9.000000e+000 -4.230000e+001  0.000000e+000
      vertex  2.265248e+000 -3.814580e+001  0.000000e+000
      vertex  2.800000e+000 -3.650000e+001  0.000000e+000
    endloop
  endfacet
  facet normal  0.000000e+000  0.000000e+000 -9.999999e-001
    outer loop
      vertex  9.000000e+000 -4.230000e+001  0.000000e+000
      vertex  2.800000e+000 -3.650000e+001  0.000000e+000
      vertex  2.265248e+000 -3.485420e+001  0.000000e+000
    endloop
  endfacet
  facet normal  0.000000e+000  0.000000e+000 -1.000000e+000
    outer loop
      vertex  9.000000e+000 -4.230000e+001  0.000000e+000
      vertex  2.265248e+000 -3.485420e+001  0.000000e+000
      vertex  8.652476e-001  3.383704e+001  0.000000e+000
    endloop
  endfacet
  facet normal  0.000000e+000  0.000000e+000 -1.000000e+000
    outer loop
      vertex  9.000000e+000 -4.230000e+001  0.000000e+000
      vertex  8.652476e-001  3.383704e+001  0.000000e+000
      vertex  2.265248e+000  3.485420e+001  0.000000e+000
    endloop
  endfacet
  facet normal  0.000000e+000  0.000000e+000 -1.000000e+000
    outer loop
      vertex  9.000000e+000 -4.230000e+001  0.000000e+000
      vertex  2.265248e+000  3.485420e+001  0.000000e+000
      vertex  2.800000e+000  3.650000e+001  0.000000e+000
    endloop
  endfacet
  facet normal  0.000000e+000  0.000000e+000 -1.000000e+000
    outer loop
      vertex  9.000000e+000  4.230000e+001  0.000000e+000
      vertex  9.000000e+000 -4.230000e+001  0.000000e+000
      vertex  2.800000e+000  3.650000e+001  0.000000e+000
    endloop
  endfacet
  facet normal  0.000000e+000  0.000000e+000 -9.999999e-001
    outer loop
      vertex  9.000000e+000  4.230000e+001  0.000000e+000
      vertex  2.800000e+000  3.650000e+001  0.000000e+000
      vertex  2.265248e+000  3.814580e+001  0.000000e+000
    endloop
  endfacet
  facet normal  0.000000e+000  0.000000e+000 -1.000000e+000
    outer loop
      vertex  9.000000e+000  4.230000e+001  0.000000e+000
      vertex  2.265248e+000  3.814580e+001  0.000000e+000
      vertex  8.652476e-001  3.916296e+001  0.000000e+000
    endloop
  endfacet
  facet normal  0.000000e+000  0.000000e+000 -9.999999e-001
    outer loop
      vertex  2.265248e+000 -3.485420e+001  0.000000e+000
      vertex  8.652476e-001 -3.383704e+001  0.000000e+000
      vertex  8.652476e-001  3.383704e+001  0.000000e+000
    endloop
  endfacet
  facet normal  0.000000e+000  -0.000000e+000 -1.000000e+000
    outer loop
      vertex  8.652476e-001  3.383704e+001  0.000000e+000
      vertex  8.652476e-001 -3.383704e+001  0.000000e+000
      vertex -8.652476e-001 -3.383704e+001  0.000000e+000
    endloop
  endfacet
  facet normal  0.000000e+000  0.000000e+000 -1.000000e+000
    outer loop
      vertex  8.652476e-001  3.383704e+001  0.000000e+000
      vertex -8.652476e-001 -3.383704e+001  0.000000e+000
      vertex -8.652476e-001  3.383704e+001  0.000000e+000
    endloop
  endfacet
  facet normal  5.877863e-001  8.090162e-001  -0.000000e+000
    outer loop
      vertex -8.652476e-001 -3.916296e+001  3.000000e+000
      vertex -2.265248e+000 -3.814580e+001  0.000000e+000
      vertex -2.265248e+000 -3.814580e+001  3.000000e+000
    endloop
  endfacet
  facet normal  9.510565e-001  3.090171e-001  0.000000e+000
    outer loop
      vertex -2.265248e+000 -3.814580e+001  3.000000e+000
      vertex -2.265248e+000 -3.814580e+001  0.000000e+000
      vertex -2.800000e+000 -3.650000e+001  0.000000e+000
    endloop
  endfacet
  facet normal  9.510565e-001  3.090171e-001  -0.000000e+000
    outer loop
      vertex -2.265248e+000 -3.814580e+001  3.000000e+000
      vertex -2.800000e+000 -3.650000e+001  0.000000e+000
      vertex -2.800000e+000 -3.650000e+001  3.000000e+000
    endloop
  endfacet
  facet normal  5.877863e-001  8.090162e-001  0.000000e+000
    outer loop
      vertex -2.265248e+000 -3.814580e+001  0.000000e+000
      vertex -8.652476e-001 -3.916296e+001  3.000000e+000
      vertex -8.652476e-001 -3.916296e+001  0.000000e+000
    endloop
  endfacet
  facet normal  0.000000e+000  1.000000e+000  0.000000e+000
    outer loop
      vertex -8.652476e-001 -3.916296e+001  0.000000e+000
      vertex -8.652476e-001 -3.916296e+001  3.000000e+000
      vertex  8.652476e-001 -3.916296e+001  3.000000e+000
    endloop
  endfacet
  facet normal  0.000000e+000  1.000000e+000  0.000000e+000
    outer loop
      vertex -8.652476e-001 -3.916296e+001  0.000000e+000
      vertex  8.652476e-001 -3.916296e+001  3.000000e+000
      vertex  8.652476e-001 -3.916296e+001  0.000000e+000
    endloop
  endfacet
  facet normal -5.877863e-001  8.090162e-001  0.000000e+000
    outer loop
      vertex  8.652476e-001 -3.916296e+001  0.000000e+000
      vertex  8.652476e-001 -3.916296e+001  3.000000e+000
      vertex  2.265248e+000 -3.814580e+001  3.000000e+000
    endloop
  endfacet
  facet normal -5.877863e-001  8.090162e-001  0.000000e+000
    outer loop
      vertex  8.652476e-001 -3.916296e+001  0.000000e+000
      vertex  2.265248e+000 -3.814580e+001  3.000000e+000
      vertex  2.265248e+000 -3.814580e+001  0.000000e+000
    endloop
  endfacet
  facet normal -9.510565e-001  3.090171e-001  0.000000e+000
    outer loop
      vertex  2.265248e+000 -3.814580e+001  0.000000e+000
      vertex  2.265248e+000 -3.814580e+001  3.000000e+000
      vertex  2.800000e+000 -3.650000e+001  3.000000e+000
    endloop
  endfacet
  facet normal -9.510565e-001  3.090171e-001  0.000000e+000
    outer loop
      vertex  2.265248e+000 -3.814580e+001  0.000000e+000
      vertex  2.800000e+000 -3.650000e+001  3.000000e+000
      vertex  2.800000e+000 -3.650000e+001  0.000000e+000
    endloop
  endfacet
  facet normal -5.877863e-001 -8.090162e-001  0.000000e+000
    outer loop
      vertex  8.652476e-001 -3.383704e+001  3.000000e+000
      vertex  2.265248e+000 -3.485420e+001  0.000000e+000
      vertex  2.265248e+000 -3.485420e+001  3.000000e+000
    endloop
  endfacet
  facet normal -9.510565e-001 -3.090171e-001  -0.000000e+000
    outer loop
      vertex  2.265248e+000 -3.485420e+001  3.000000e+000
      vertex  2.265248e+000 -3.485420e+001  0.000000e+000
      vertex  2.800000e+000 -3.650000e+001  0.000000e+000
    endloop
  endfacet
  facet normal -9.510565e-001 -3.090171e-001  0.000000e+000
    outer loop
      vertex  2.265248e+000 -3.485420e+001  3.000000e+000
      vertex  2.800000e+000 -3.650000e+001  0.000000e+000
      vertex  2.800000e+000 -3.650000e+001  3.000000e+000
    endloop
  endfacet
  facet normal -5.877863e-001 -8.090162e-001  -0.000000e+000
    outer loop
      vertex  2.265248e+000 -3.485420e+001  0.000000e+000
      vertex  8.652476e-001 -3.383704e+001  3.000000e+000
      vertex  8.652476e-001 -3.383704e+001  0.000000e+000
    endloop
  endfacet
  facet normal  0.000000e+000 -1.000000e+000  0.000000e+000
    outer loop
      vertex  8.652476e-001 -3.383704e+001  0.000000e+000
      vertex  8.652476e-001 -3.383704e+001  3.000000e+000
      vertex -8.652476e-001 -3.383704e+001  3.000000e+000
    endloop
  endfacet
  facet normal  0.000000e+000 -1.000000e+000  0.000000e+000
    outer loop
      vertex  8.652476e-001 -3.383704e+001  0.000000e+000
      vertex -8.652476e-001 -3.383704e+001  3.000000e+000
      vertex -8.652476e-001 -3.383704e+001  0.000000e+000
    endloop
  endfacet
  facet normal  5.877863e-001 -8.090162e-001  0.000000e+000
    outer loop
      vertex -8.652476e-001 -3.383704e+001  0.000000e+000
      vertex -8.652476e-001 -3.383704e+001  3.000000e+000
      vertex -2.265248e+000 -3.485420e+001  3.000000e+000
    endloop
  endfacet
  facet normal  5.877863e-001 -8.090162e-001  0.000000e+000
    outer loop
      vertex -8.652476e-001 -3.383704e+001  0.000000e+000
      vertex -2.265248e+000 -3.485420e+001  3.000000e+000
      vertex -2.265248e+000 -3.485420e+001  0.000000e+000
    endloop
  endfacet
  facet normal  9.510565e-001 -3.090171e-001  0.000000e+000
    outer loop
      vertex -2.265248e+000 -3.485420e+001  0.000000e+000
      vertex -2.265248e+000 -3.485420e+001  3.000000e+000
      vertex -2.800000e+000 -3.650000e+001  3.000000e+000
    endloop
  endfacet
  facet normal  9.510565e-001 -3.090171e-001  0.000000e+000
    outer loop
      vertex -2.265248e+000 -3.485420e+001  0.000000e+000
      vertex -2.800000e+000 -3.650000e+001  3.000000e+000
      vertex -2.800000e+000 -3.650000e+001  0.000000e+000
    endloop
  endfacet
  facet normal  5.877863e-001 -8.090162e-001  0.000000e+000
    outer loop
      vertex -8.652476e-001  3.916296e+001  0.000000e+000
      vertex -2.265248e+000  3.814580e+001  3.000000e+000
      vertex -2.265248e+000  3.814580e+001  0.000000e+000
    endloop
  endfacet
  facet normal  9.510565e-001 -3.090171e-001  0.000000e+000
    outer loop
      vertex -2.265248e+000  3.814580e+001  0.000000e+000
      vertex -2.265248e+000  3.814580e+001  3.000000e+000
      vertex -2.800000e+000  3.650000e+001  3.000000e+000
    endloop
  endfacet
  facet normal  9.510565e-001 -3.090171e-001  0.000000e+000
    outer loop
      vertex -2.265248e+000  3.814580e+001  0.000000e+000
      vertex -2.800000e+000  3.650000e+001  3.000000e+000
      vertex -2.800000e+000  3.650000e+001  0.000000e+000
    endloop
  endfacet
  facet normal  5.877863e-001 -8.090162e-001  0.000000e+000
    outer loop
      vertex -2.265248e+000  3.814580e+001  3.000000e+000
      vertex -8.652476e-001  3.916296e+001  0.000000e+000
      vertex -8.652476e-001  3.916296e+001  3.000000e+000
    endloop
  endfacet
  facet normal  0.000000e+000 -1.000000e+000  0.000000e+000
    outer loop
      vertex -8.652476e-001  3.916296e+001  3.000000e+000
      vertex -8.652476e-001  3.916296e+001  0.000000e+000
      vertex  8.652476e-001  3.916296e+001  0.000000e+000
    endloop
  endfacet
  facet normal  0.000000e+000 -1.000000e+000  0.000000e+000
    outer loop
      vertex -8.652476e-001  3.916296e+001  3.000000e+000
      vertex  8.652476e-001  3.916296e+001  0.000000e+000
      vertex  8.652476e-001  3.916296e+001  3.000000e+000
    endloop
  endfacet
  facet normal -5.877863e-001 -8.090162e-001  -0.000000e+000
    outer loop
      vertex  8.652476e-001  3.916296e+001  3.000000e+000
      vertex  8.652476e-001  3.916296e+001  0.000000e+000
      vertex  2.265248e+000  3.814580e+001  0.000000e+000
    endloop
  endfacet
  facet normal -5.877863e-001 -8.090162e-001  0.000000e+000
    outer loop
      vertex  8.652476e-001  3.916296e+001  3.000000e+000
      vertex  2.265248e+000  3.814580e+001  0.000000e+000
      vertex  2.265248e+000  3.814580e+001  3.000000e+000
    endloop
  endfacet
  facet normal -9.510565e-001 -3.090171e-001  -0.000000e+000
    outer loop
      vertex  2.265248e+000  3.814580e+001  3.000000e+000
      vertex  2.265248e+000  3.814580e+001  0.000000e+000
      vertex  2.800000e+000  3.650000e+001  0.000000e+000
    endloop
  endfacet
  facet normal -9.510565e-001 -3.090171e-001  0.000000e+000
    outer loop
      vertex  2.265248e+000  3.814580e+001  3.000000e+000
      vertex  2.800000e+000  3.650000e+001  0.000000e+000
      vertex  2.800000e+000  3.650000e+001  3.000000e+000
    endloop
  endfacet
  facet normal -5.877863e-001  8.090162e-001  0.000000e+000
    outer loop
      vertex  8.652476e-001  3.383704e+001  0.000000e+000
      vertex  2.265248e+000  3.485420e+001  3.000000e+000
      vertex  2.265248e+000  3.485420e+001  0.000000e+000
    endloop
  endfacet
  facet normal -9.510565e-001  3.090171e-001  0.000000e+000
    outer loop
      vertex  2.265248e+000  3.485420e+001  0.000000e+000
      vertex  2.265248e+000  3.485420e+001  3.000000e+000
      vertex  2.800000e+000  3.650000e+001  3.000000e+000
    endloop
  endfacet
  facet normal -9.510565e-001  3.090171e-001  0.000000e+000
    outer loop
      vertex  2.265248e+000  3.485420e+001  0.000000e+000
      vertex  2.800000e+000  3.650000e+001  3.000000e+000
      vertex  2.800000e+000  3.650000e+001  0.000000e+000
    endloop
  endfacet
  facet normal -5.877863e-001  8.090162e-001  0.000000e+000
    outer loop
      vertex  2.265248e+000  3.485420e+001  3.000000e+000
      vertex  8.652476e-001  3.383704e+001  0.000000e+000
      vertex  8.652476e-001  3.383704e+001  3.000000e+000
    endloop
  endfacet
  facet normal  0.000000e+000  1.000000e+000  0.000000e+000
    outer loop
      vertex  8.652476e-001  3.383704e+001  3.000000e+000
      vertex  8.652476e-001  3.383704e+001  0.000000e+000
      vertex -8.652476e-001  3.383704e+001  0.000000e+000
    endloop
  endfacet
  facet normal  0.000000e+000  1.000000e+000  0.000000e+000
    outer loop
      vertex  8.652476e-001  3.383704e+001  3.000000e+000
      vertex -8.652476e-001  3.383704e+001  0.000000e+000
      vertex -8.652476e-001  3.383704e+001  3.000000e+000
    endloop
  endfacet
  facet normal  5.877863e-001  8.090162e-001  0.000000e+000
    outer loop
      vertex -8.652476e-001  3.383704e+001  3.000000e+000
      vertex -8.652476e-001  3.383704e+001  0.000000e+000
      vertex -2.265248e+000  3.485420e+001  0.000000e+000
    endloop
  endfacet
  facet normal  5.877863e-001  8.090162e-001  -0.000000e+000
    outer loop
      vertex -8.652476e-001  3.383704e+001  3.000000e+000
      vertex -2.265248e+000  3.485420e+001  0.000000e+000
      vertex -2.265248e+000  3.485420e+001  3.000000e+000
    endloop
  endfacet
  facet normal  9.510565e-001  3.090171e-001  0.000000e+000
    outer loop
      vertex -2.265248e+000  3.485420e+001  3.000000e+000
      vertex -2.265248e+000  3.485420e+001  0.000000e+000
      vertex -2.800000e+000  3.650000e+001  0.000000e+000
    endloop
  endfacet
  facet normal  9.510565e-001  3.090171e-001  -0.000000e+000
    outer loop
      vertex -2.265248e+000  3.485420e+001  3.000000e+000
      vertex -2.800000e+000  3.650000e+001  0.000000e+000
      vertex -2.800000e+000  3.650000e+001  3.000000e+000
    endloop
  endfacet
  facet normal  0.000000e+000  1.000000e+000  0.000000e+000
    outer loop
      vertex -9.000000e+000  4.230000e+001  3.000000e+000
      vertex  9.000000e+000  4.230000e+001  3.000000e+000
      vertex -9.000000e+000  4.230000e+001  0.000000e+000
    endloop
  endfacet
  facet normal  0.000000e+000  1.000000e+000  0.000000e+000
    outer loop
      vertex -9.000000e+000  4.230000e+001  0.000000e+000
      vertex  9.000000e+000  4.230000e+001  3.000000e+000
      vertex  9.000000e+000  4.230000e+001  0.000000e+000
    endloop
  endfacet
  facet normal  1.000000e+000  0.000000e+000  0.000000e+000
    outer loop
      vertex  9.000000e+000 -4.230000e+001  3.000000e+000
      vertex  9.000000e+000 -4.230000e+001  0.000000e+000
      vertex  9.000000e+000  4.230000e+001  3.000000e+000
    endloop
  endfacet
  facet normal  1.000000e+000  0.000000e+000  0.000000e+000
    outer loop
      vertex  9.000000e+000  4.230000e+001  3.000000e+000
      vertex  9.000000e+000 -4.230000e+001  0.000000e+000
      vertex  9.000000e+000  4.230000e+001  0.000000e+000
    endloop
  endfacet
  facet normal  0.000000e+000 -1.000000e+000  0.000000e+000
    outer loop
      vertex  9.000000e+000 -4.230000e+001  3.000000e+000
      vertex -9.000000e+000 -4.230000e+001  3.000000e+000
      vertex  9.000000e+000 -4.230000e+001  0.000000e+000
    endloop
  endfacet
  facet normal  0.000000e+000 -1.000000e+000  0.000000e+000
    outer loop
      vertex  9.000000e+000 -4.230000e+001  0.000000e+000
      vertex -9.000000e+000 -4.230000e+001  3.000000e+000
      vertex -9.000000e+000 -4.230000e+001  0.000000e+000
    endloop
  endfacet
  facet normal -1.000000e+000  0.000000e+000  0.000000e+000
    outer loop
      vertex -9.000000e+000  4.230000e+001  3.000000e+000
      vertex -9.000000e+000  4.230000e+001  0.000000e+000
      vertex -9.000000e+000 -4.230000e+001  3.000000e+000
    endloop
  endfacet
  facet normal -1.000000e+000  0.000000e+000  0.000000e+000
    outer loop
      vertex -9.000000e+000 -4.230000e+001  3.000000e+000
      vertex -9.000000e+000  4.230000e+001  0.000000e+000
      vertex -9.000000e+000 -4.230000e+001  0.000000e+000
    endloop
  endfacet
endsolid CATIA STL
