solid CATIA STL
  facet normal  0.000000e+000  0.000000e+000 -1.000000e+000
    outer loop
      vertex  1.459808e+001 -8.500000e+000  0.000000e+000
      vertex -1.500000e+001 -7.000000e+000  0.000000e+000
      vertex  1.500000e+001 -7.000000e+000  0.000000e+000
    endloop
  endfacet
  facet normal  0.000000e+000  0.000000e+000 -1.000000e+000
    outer loop
      vertex  1.500000e+001 -7.000000e+000  0.000000e+000
      vertex -1.500000e+001 -7.000000e+000  0.000000e+000
      vertex -1.500000e+001 -3.919183e+000  0.000000e+000
    endloop
  endfacet
  facet normal  0.000000e+000  0.000000e+000 -1.000000e+000
    outer loop
      vertex  1.500000e+001 -7.000000e+000  0.000000e+000
      vertex -1.500000e+001 -3.919183e+000  0.000000e+000
      vertex  1.500000e+001 -3.919183e+000  0.000000e+000
    endloop
  endfacet
  facet normal  0.000000e+000  0.000000e+000 -1.000000e+000
    outer loop
      vertex -1.500000e+001 -7.000000e+000  0.000000e+000
      vertex  1.459808e+001 -8.500000e+000  0.000000e+000
      vertex -1.459808e+001 -8.500000e+000  0.000000e+000
    endloop
  endfacet
  facet normal  0.000000e+000  0.000000e+000 -1.000000e+000
    outer loop
      vertex -1.459808e+001 -8.500000e+000  0.000000e+000
      vertex  1.459808e+001 -8.500000e+000  0.000000e+000
      vertex  1.350000e+001 -9.598076e+000  0.000000e+000
    endloop
  endfacet
  facet normal  0.000000e+000  0.000000e+000 -9.999999e-001
    outer loop
      vertex -1.459808e+001 -8.500000e+000  0.000000e+000
      vertex  1.350000e+001 -9.598076e+000  0.000000e+000
      vertex -1.350000e+001 -9.598076e+000  0.000000e+000
    endloop
  endfacet
  facet normal  0.000000e+000  0.000000e+000 -1.000000e+000
    outer loop
      vertex -1.350000e+001 -9.598076e+000  0.000000e+000
      vertex  1.350000e+001 -9.598076e+000  0.000000e+000
      vertex  1.200000e+001 -1.000000e+001  0.000000e+000
    endloop
  endfacet
  facet normal  0.000000e+000  0.000000e+000 -1.000000e+000
    outer loop
      vertex -1.350000e+001 -9.598076e+000  0.000000e+000
      vertex  1.200000e+001 -1.000000e+001  0.000000e+000
      vertex -1.200000e+001 -1.000000e+001  0.000000e+000
    endloop
  endfacet
  facet normal  -0.000000e+000  0.000000e+000  1.000000e+000
    outer loop
      vertex  1.500000e+001 -2.291288e+000  1.200000e+001
      vertex -1.500000e+001 -2.291288e+000  1.200000e+001
      vertex  1.500000e+001 -7.000000e+000  1.200000e+001
    endloop
  endfacet
  facet normal  0.000000e+000  0.000000e+000  1.000000e+000
    outer loop
      vertex  1.500000e+001 -7.000000e+000  1.200000e+001
      vertex -1.500000e+001 -2.291288e+000  1.200000e+001
      vertex -1.500000e+001 -7.000000e+000  1.200000e+001
    endloop
  endfacet
  facet normal  -0.000000e+000  0.000000e+000  1.000000e+000
    outer loop
      vertex  1.500000e+001 -7.000000e+000  1.200000e+001
      vertex -1.500000e+001 -7.000000e+000  1.200000e+001
      vertex  1.459808e+001 -8.500000e+000  1.200000e+001
    endloop
  endfacet
  facet normal  0.000000e+000  0.000000e+000  1.000000e+000
    outer loop
      vertex  1.459808e+001 -8.500000e+000  1.200000e+001
      vertex -1.500000e+001 -7.000000e+000  1.200000e+001
      vertex -1.459808e+001 -8.500000e+000  1.200000e+001
    endloop
  endfacet
  facet normal  -0.000000e+000  0.000000e+000  1.000000e+000
    outer loop
      vertex  1.459808e+001 -8.500000e+000  1.200000e+001
      vertex -1.459808e+001 -8.500000e+000  1.200000e+001
      vertex  1.350000e+001 -9.598076e+000  1.200000e+001
    endloop
  endfacet
  facet normal  0.000000e+000  0.000000e+000  9.999999e-001
    outer loop
      vertex  1.350000e+001 -9.598076e+000  1.200000e+001
      vertex -1.459808e+001 -8.500000e+000  1.200000e+001
      vertex -1.350000e+001 -9.598076e+000  1.200000e+001
    endloop
  endfacet
  facet normal  -0.000000e+000  0.000000e+000  1.000000e+000
    outer loop
      vertex  1.350000e+001 -9.598076e+000  1.200000e+001
      vertex -1.350000e+001 -9.598076e+000  1.200000e+001
      vertex  1.200000e+001 -1.000000e+001  1.200000e+001
    endloop
  endfacet
  facet normal  0.000000e+000  0.000000e+000  1.000000e+000
    outer loop
      vertex  1.200000e+001 -1.000000e+001  1.200000e+001
      vertex -1.350000e+001 -9.598076e+000  1.200000e+001
      vertex -1.200000e+001 -1.000000e+001  1.200000e+001
    endloop
  endfacet
  facet normal  0.000000e+000 -1.000000e+000  0.000000e+000
    outer loop
      vertex  1.200000e+001 -1.000000e+001  1.200000e+001
      vertex -1.200000e+001 -1.000000e+001  1.200000e+001
      vertex  1.200000e+001 -1.000000e+001  0.000000e+000
    endloop
  endfacet
  facet normal  0.000000e+000 -1.000000e+000  0.000000e+000
    outer loop
      vertex  1.200000e+001 -1.000000e+001  0.000000e+000
      vertex -1.200000e+001 -1.000000e+001  1.200000e+001
      vertex -1.200000e+001 -1.000000e+001  0.000000e+000
    endloop
  endfacet
  facet normal -1.000000e+000  0.000000e+000  0.000000e+000
    outer loop
      vertex -1.500000e+001 -1.147258e+000  1.322122e+001
      vertex -1.500000e+001  5.107741e-001  1.344727e+001
      vertex -1.500000e+001 -3.552714e-015  1.600000e+000
    endloop
  endfacet
  facet normal -1.000000e+000  0.000000e+000  -0.000000e+000
    outer loop
      vertex -1.500000e+001 -2.291288e+000  1.200000e+001
      vertex -1.500000e+001 -1.147258e+000  1.322122e+001
      vertex -1.500000e+001 -3.552714e-015  1.600000e+000
    endloop
  endfacet
  facet normal -1.000000e+000  -0.000000e+000  0.000000e+000
    outer loop
      vertex -1.500000e+001 -2.291288e+000  1.200000e+001
      vertex -1.500000e+001 -3.552714e-015  1.600000e+000
      vertex -1.500000e+001 -1.819621e+000  8.571429e-001
    endloop
  endfacet
  facet normal -1.000000e+000  -0.000000e+000  0.000000e+000
    outer loop
      vertex -1.500000e+001 -2.291288e+000  1.200000e+001
      vertex -1.500000e+001 -1.819621e+000  8.571429e-001
      vertex -1.500000e+001 -2.785290e+000  2.225397e-001
    endloop
  endfacet
  facet normal -9.999999e-001  -0.000000e+000  0.000000e+000
    outer loop
      vertex -1.500000e+001 -2.291288e+000  1.200000e+001
      vertex -1.500000e+001 -2.785290e+000  2.225397e-001
      vertex -1.500000e+001 -3.919183e+000  0.000000e+000
    endloop
  endfacet
  facet normal -1.000000e+000  0.000000e+000  0.000000e+000
    outer loop
      vertex -1.500000e+001 -2.291288e+000  1.200000e+001
      vertex -1.500000e+001 -3.919183e+000  0.000000e+000
      vertex -1.500000e+001 -7.000000e+000  0.000000e+000
    endloop
  endfacet
  facet normal -9.999999e-001  0.000000e+000  0.000000e+000
    outer loop
      vertex -1.500000e+001 -2.291288e+000  1.200000e+001
      vertex -1.500000e+001 -7.000000e+000  0.000000e+000
      vertex -1.500000e+001 -7.000000e+000  1.200000e+001
    endloop
  endfacet
  facet normal -1.000000e+000  0.000000e+000  -0.000000e+000
    outer loop
      vertex -1.500000e+001 -3.552714e-015  1.600000e+000
      vertex -1.500000e+001  5.107741e-001  1.344727e+001
      vertex -1.500000e+001  1.819621e+000  8.571429e-001
    endloop
  endfacet
  facet normal -1.000000e+000  0.000000e+000  0.000000e+000
    outer loop
      vertex -1.500000e+001  1.819621e+000  8.571429e-001
      vertex -1.500000e+001  5.107741e-001  1.344727e+001
      vertex -1.500000e+001  1.939966e+000  1.257687e+001
    endloop
  endfacet
  facet normal -1.000000e+000  0.000000e+000  -0.000000e+000
    outer loop
      vertex -1.500000e+001  1.819621e+000  8.571429e-001
      vertex -1.500000e+001  1.939966e+000  1.257687e+001
      vertex -1.500000e+001  2.785290e+000  2.225397e-001
    endloop
  endfacet
  facet normal -1.000000e+000  0.000000e+000  0.000000e+000
    outer loop
      vertex -1.500000e+001  2.785290e+000  2.225397e-001
      vertex -1.500000e+001  1.939966e+000  1.257687e+001
      vertex -1.500000e+001  2.500000e+000  1.100000e+001
    endloop
  endfacet
  facet normal -9.999999e-001  0.000000e+000  0.000000e+000
    outer loop
      vertex -1.500000e+001  2.785290e+000  2.225397e-001
      vertex -1.500000e+001  2.500000e+000  1.100000e+001
      vertex -1.500000e+001  3.919183e+000  0.000000e+000
    endloop
  endfacet
  facet normal -1.000000e+000  0.000000e+000  0.000000e+000
    outer loop
      vertex -1.500000e+001  3.919183e+000  0.000000e+000
      vertex -1.500000e+001  2.500000e+000  1.100000e+001
      vertex -1.500000e+001  7.000000e+000  9.200000e+000
    endloop
  endfacet
  facet normal -9.999999e-001  0.000000e+000  -0.000000e+000
    outer loop
      vertex -1.500000e+001  3.919183e+000  0.000000e+000
      vertex -1.500000e+001  7.000000e+000  9.200000e+000
      vertex -1.500000e+001  7.000000e+000  0.000000e+000
    endloop
  endfacet
  facet normal -2.588192e-001 -9.659257e-001  -0.000000e+000
    outer loop
      vertex -1.200000e+001 -1.000000e+001  0.000000e+000
      vertex -1.200000e+001 -1.000000e+001  1.200000e+001
      vertex -1.350000e+001 -9.598076e+000  0.000000e+000
    endloop
  endfacet
  facet normal -2.588192e-001 -9.659257e-001  0.000000e+000
    outer loop
      vertex -1.350000e+001 -9.598076e+000  0.000000e+000
      vertex -1.200000e+001 -1.000000e+001  1.200000e+001
      vertex -1.350000e+001 -9.598076e+000  1.200000e+001
    endloop
  endfacet
  facet normal -7.071068e-001 -7.071068e-001  -0.000000e+000
    outer loop
      vertex -1.350000e+001 -9.598076e+000  0.000000e+000
      vertex -1.350000e+001 -9.598076e+000  1.200000e+001
      vertex -1.459808e+001 -8.500000e+000  0.000000e+000
    endloop
  endfacet
  facet normal -7.071068e-001 -7.071068e-001  0.000000e+000
    outer loop
      vertex -1.459808e+001 -8.500000e+000  0.000000e+000
      vertex -1.350000e+001 -9.598076e+000  1.200000e+001
      vertex -1.459808e+001 -8.500000e+000  1.200000e+001
    endloop
  endfacet
  facet normal -9.659257e-001 -2.588192e-001  -0.000000e+000
    outer loop
      vertex -1.459808e+001 -8.500000e+000  0.000000e+000
      vertex -1.459808e+001 -8.500000e+000  1.200000e+001
      vertex -1.500000e+001 -7.000000e+000  0.000000e+000
    endloop
  endfacet
  facet normal -9.659257e-001 -2.588192e-001  0.000000e+000
    outer loop
      vertex -1.500000e+001 -7.000000e+000  0.000000e+000
      vertex -1.459808e+001 -8.500000e+000  1.200000e+001
      vertex -1.500000e+001 -7.000000e+000  1.200000e+001
    endloop
  endfacet
  facet normal  9.999999e-001  0.000000e+000  0.000000e+000
    outer loop
      vertex  1.500000e+001  2.500000e+000  1.100000e+001
      vertex  1.500000e+001  1.939966e+000  1.257687e+001
      vertex  1.500000e+001  1.819621e+000  8.571429e-001
    endloop
  endfacet
  facet normal  1.000000e+000  -0.000000e+000  0.000000e+000
    outer loop
      vertex  1.500000e+001  2.500000e+000  1.100000e+001
      vertex  1.500000e+001  1.819621e+000  8.571429e-001
      vertex  1.500000e+001  2.785290e+000  2.225397e-001
    endloop
  endfacet
  facet normal  9.999999e-001  -0.000000e+000  -0.000000e+000
    outer loop
      vertex  1.500000e+001  2.500000e+000  1.100000e+001
      vertex  1.500000e+001  2.785290e+000  2.225397e-001
      vertex  1.500000e+001  3.919183e+000  0.000000e+000
    endloop
  endfacet
  facet normal  9.999999e-001  0.000000e+000  -0.000000e+000
    outer loop
      vertex  1.500000e+001  2.500000e+000  1.100000e+001
      vertex  1.500000e+001  3.919183e+000  0.000000e+000
      vertex  1.500000e+001  7.000000e+000  0.000000e+000
    endloop
  endfacet
  facet normal  1.000000e+000  0.000000e+000  -0.000000e+000
    outer loop
      vertex  1.500000e+001  2.500000e+000  1.100000e+001
      vertex  1.500000e+001  7.000000e+000  0.000000e+000
      vertex  1.500000e+001  7.000000e+000  9.200000e+000
    endloop
  endfacet
  facet normal  1.000000e+000  0.000000e+000  0.000000e+000
    outer loop
      vertex  1.500000e+001  1.819621e+000  8.571429e-001
      vertex  1.500000e+001  1.939966e+000  1.257687e+001
      vertex  1.500000e+001  1.591988e-016  1.600000e+000
    endloop
  endfacet
  facet normal  1.000000e+000  0.000000e+000  0.000000e+000
    outer loop
      vertex  1.500000e+001  1.591988e-016  1.600000e+000
      vertex  1.500000e+001  1.939966e+000  1.257687e+001
      vertex  1.500000e+001  5.107741e-001  1.344727e+001
    endloop
  endfacet
  facet normal  1.000000e+000  0.000000e+000  0.000000e+000
    outer loop
      vertex  1.500000e+001  1.591988e-016  1.600000e+000
      vertex  1.500000e+001  5.107741e-001  1.344727e+001
      vertex  1.500000e+001 -1.819621e+000  8.571429e-001
    endloop
  endfacet
  facet normal  1.000000e+000  0.000000e+000  0.000000e+000
    outer loop
      vertex  1.500000e+001 -1.819621e+000  8.571429e-001
      vertex  1.500000e+001  5.107741e-001  1.344727e+001
      vertex  1.500000e+001 -1.147258e+000  1.322122e+001
    endloop
  endfacet
  facet normal  1.000000e+000  0.000000e+000  0.000000e+000
    outer loop
      vertex  1.500000e+001 -1.819621e+000  8.571429e-001
      vertex  1.500000e+001 -1.147258e+000  1.322122e+001
      vertex  1.500000e+001 -2.291288e+000  1.200000e+001
    endloop
  endfacet
  facet normal  1.000000e+000  0.000000e+000  0.000000e+000
    outer loop
      vertex  1.500000e+001 -2.785290e+000  2.225397e-001
      vertex  1.500000e+001 -1.819621e+000  8.571429e-001
      vertex  1.500000e+001 -3.919183e+000  0.000000e+000
    endloop
  endfacet
  facet normal  9.999999e-001  0.000000e+000  0.000000e+000
    outer loop
      vertex  1.500000e+001 -3.919183e+000  0.000000e+000
      vertex  1.500000e+001 -1.819621e+000  8.571429e-001
      vertex  1.500000e+001 -2.291288e+000  1.200000e+001
    endloop
  endfacet
  facet normal  1.000000e+000  0.000000e+000  0.000000e+000
    outer loop
      vertex  1.500000e+001 -3.919183e+000  0.000000e+000
      vertex  1.500000e+001 -2.291288e+000  1.200000e+001
      vertex  1.500000e+001 -7.000000e+000  0.000000e+000
    endloop
  endfacet
  facet normal  9.999999e-001  0.000000e+000  0.000000e+000
    outer loop
      vertex  1.500000e+001 -7.000000e+000  0.000000e+000
      vertex  1.500000e+001 -2.291288e+000  1.200000e+001
      vertex  1.500000e+001 -7.000000e+000  1.200000e+001
    endloop
  endfacet
  facet normal  9.659257e-001 -2.588192e-001  0.000000e+000
    outer loop
      vertex  1.500000e+001 -7.000000e+000  0.000000e+000
      vertex  1.500000e+001 -7.000000e+000  1.200000e+001
      vertex  1.459808e+001 -8.500000e+000  0.000000e+000
    endloop
  endfacet
  facet normal  9.659257e-001 -2.588192e-001  0.000000e+000
    outer loop
      vertex  1.459808e+001 -8.500000e+000  0.000000e+000
      vertex  1.500000e+001 -7.000000e+000  1.200000e+001
      vertex  1.459808e+001 -8.500000e+000  1.200000e+001
    endloop
  endfacet
  facet normal  7.071068e-001 -7.071068e-001  0.000000e+000
    outer loop
      vertex  1.459808e+001 -8.500000e+000  0.000000e+000
      vertex  1.459808e+001 -8.500000e+000  1.200000e+001
      vertex  1.350000e+001 -9.598076e+000  0.000000e+000
    endloop
  endfacet
  facet normal  7.071068e-001 -7.071068e-001  0.000000e+000
    outer loop
      vertex  1.350000e+001 -9.598076e+000  0.000000e+000
      vertex  1.459808e+001 -8.500000e+000  1.200000e+001
      vertex  1.350000e+001 -9.598076e+000  1.200000e+001
    endloop
  endfacet
  facet normal  2.588192e-001 -9.659257e-001  0.000000e+000
    outer loop
      vertex  1.350000e+001 -9.598076e+000  0.000000e+000
      vertex  1.350000e+001 -9.598076e+000  1.200000e+001
      vertex  1.200000e+001 -1.000000e+001  0.000000e+000
    endloop
  endfacet
  facet normal  2.588192e-001 -9.659257e-001  0.000000e+000
    outer loop
      vertex  1.200000e+001 -1.000000e+001  0.000000e+000
      vertex  1.350000e+001 -9.598076e+000  1.200000e+001
      vertex  1.200000e+001 -1.000000e+001  1.200000e+001
    endloop
  endfacet
  facet normal  0.000000e+000  0.000000e+000 -9.999999e-001
    outer loop
      vertex  1.459808e+001  8.500000e+000  0.000000e+000
      vertex -1.350000e+001  9.598076e+000  0.000000e+000
      vertex  1.350000e+001  9.598076e+000  0.000000e+000
    endloop
  endfacet
  facet normal  0.000000e+000  0.000000e+000 -1.000000e+000
    outer loop
      vertex  1.350000e+001  9.598076e+000  0.000000e+000
      vertex -1.350000e+001  9.598076e+000  0.000000e+000
      vertex -1.200000e+001  1.000000e+001  0.000000e+000
    endloop
  endfacet
  facet normal  0.000000e+000  0.000000e+000 -1.000000e+000
    outer loop
      vertex  1.350000e+001  9.598076e+000  0.000000e+000
      vertex -1.200000e+001  1.000000e+001  0.000000e+000
      vertex  1.200000e+001  1.000000e+001  0.000000e+000
    endloop
  endfacet
  facet normal  0.000000e+000  0.000000e+000 -1.000000e+000
    outer loop
      vertex -1.350000e+001  9.598076e+000  0.000000e+000
      vertex  1.459808e+001  8.500000e+000  0.000000e+000
      vertex -1.459808e+001  8.500000e+000  0.000000e+000
    endloop
  endfacet
  facet normal  0.000000e+000  0.000000e+000 -1.000000e+000
    outer loop
      vertex -1.459808e+001  8.500000e+000  0.000000e+000
      vertex  1.459808e+001  8.500000e+000  0.000000e+000
      vertex  1.500000e+001  7.000000e+000  0.000000e+000
    endloop
  endfacet
  facet normal  0.000000e+000  0.000000e+000 -1.000000e+000
    outer loop
      vertex -1.459808e+001  8.500000e+000  0.000000e+000
      vertex  1.500000e+001  7.000000e+000  0.000000e+000
      vertex -1.500000e+001  7.000000e+000  0.000000e+000
    endloop
  endfacet
  facet normal  0.000000e+000  0.000000e+000 -1.000000e+000
    outer loop
      vertex -1.500000e+001  7.000000e+000  0.000000e+000
      vertex  1.500000e+001  7.000000e+000  0.000000e+000
      vertex  1.500000e+001  3.919183e+000  0.000000e+000
    endloop
  endfacet
  facet normal  0.000000e+000  0.000000e+000 -1.000000e+000
    outer loop
      vertex -1.500000e+001  7.000000e+000  0.000000e+000
      vertex  1.500000e+001  3.919183e+000  0.000000e+000
      vertex -1.500000e+001  3.919183e+000  0.000000e+000
    endloop
  endfacet
  facet normal  0.000000e+000  3.713906e-001  9.284766e-001
    outer loop
      vertex -9.500000e+000  2.500000e+000  1.100000e+001
      vertex  9.500000e+000  2.500000e+000  1.100000e+001
      vertex  1.200000e+001  1.000000e+001  8.000000e+000
    endloop
  endfacet
  facet normal  0.000000e+000  3.713907e-001  9.284766e-001
    outer loop
      vertex -9.500000e+000  2.500000e+000  1.100000e+001
      vertex  1.200000e+001  1.000000e+001  8.000000e+000
      vertex -1.200000e+001  1.000000e+001  8.000000e+000
    endloop
  endfacet
  facet normal  1.200421e-007  3.713907e-001  9.284766e-001
    outer loop
      vertex -9.500000e+000  2.500000e+000  1.100000e+001
      vertex -1.200000e+001  1.000000e+001  8.000000e+000
      vertex -1.336564e+001  9.671147e+000  8.131541e+000
    endloop
  endfacet
  facet normal -3.270913e-007  3.713905e-001  9.284767e-001
    outer loop
      vertex -9.500000e+000  2.500000e+000  1.100000e+001
      vertex -1.336564e+001  9.671147e+000  8.131541e+000
      vertex -1.442973e+001  8.759660e+000  8.496136e+000
    endloop
  endfacet
  facet normal  3.963423e-008  3.713908e-001  9.284768e-001
    outer loop
      vertex -9.500000e+000  2.500000e+000  1.100000e+001
      vertex -1.442973e+001  8.759660e+000  8.496136e+000
      vertex -1.500000e+001  7.000000e+000  9.200000e+000
    endloop
  endfacet
  facet normal  0.000000e+000  3.713907e-001  9.284767e-001
    outer loop
      vertex -9.500000e+000  2.500000e+000  1.100000e+001
      vertex -1.500000e+001  7.000000e+000  9.200000e+000
      vertex -1.500000e+001  2.500000e+000  1.100000e+001
    endloop
  endfacet
  facet normal -1.891099e-007  3.713907e-001  9.284767e-001
    outer loop
      vertex  1.500000e+001  2.500000e+000  1.100000e+001
      vertex  1.500000e+001  7.000000e+000  9.200000e+000
      vertex  1.442973e+001  8.759660e+000  8.496136e+000
    endloop
  endfacet
  facet normal  5.941079e-007  3.713908e-001  9.284767e-001
    outer loop
      vertex  1.500000e+001  2.500000e+000  1.100000e+001
      vertex  1.442973e+001  8.759660e+000  8.496136e+000
      vertex  1.336564e+001  9.671147e+000  8.131541e+000
    endloop
  endfacet
  facet normal -1.434999e-007  3.713906e-001  9.284767e-001
    outer loop
      vertex  1.500000e+001  2.500000e+000  1.100000e+001
      vertex  1.336564e+001  9.671147e+000  8.131541e+000
      vertex  1.200000e+001  1.000000e+001  8.000000e+000
    endloop
  endfacet
  facet normal  0.000000e+000  3.713907e-001  9.284767e-001
    outer loop
      vertex  1.500000e+001  2.500000e+000  1.100000e+001
      vertex  1.200000e+001  1.000000e+001  8.000000e+000
      vertex  9.500000e+000  2.500000e+000  1.100000e+001
    endloop
  endfacet
  facet normal  0.000000e+000  1.000000e+000  0.000000e+000
    outer loop
      vertex -1.200000e+001  1.000000e+001  8.000000e+000
      vertex  1.200000e+001  1.000000e+001  8.000000e+000
      vertex -1.200000e+001  1.000000e+001  0.000000e+000
    endloop
  endfacet
  facet normal  0.000000e+000  1.000000e+000  0.000000e+000
    outer loop
      vertex -1.200000e+001  1.000000e+001  0.000000e+000
      vertex  1.200000e+001  1.000000e+001  8.000000e+000
      vertex  1.200000e+001  1.000000e+001  0.000000e+000
    endloop
  endfacet
  facet normal -9.659258e-001  2.588193e-001  0.000000e+000
    outer loop
      vertex -1.500000e+001  7.000000e+000  0.000000e+000
      vertex -1.500000e+001  7.000000e+000  9.200000e+000
      vertex -1.459808e+001  8.500000e+000  0.000000e+000
    endloop
  endfacet
  facet normal -9.501532e-001  3.116449e-001  9.301936e-003
    outer loop
      vertex -1.459808e+001  8.500000e+000  0.000000e+000
      vertex -1.500000e+001  7.000000e+000  9.200000e+000
      vertex -1.442973e+001  8.759660e+000  8.496136e+000
    endloop
  endfacet
  facet normal -7.070863e-001  7.070863e-001 -7.599743e-003
    outer loop
      vertex -1.459808e+001  8.500000e+000  0.000000e+000
      vertex -1.442973e+001  8.759660e+000  8.496136e+000
      vertex -1.350000e+001  9.598076e+000  0.000000e+000
    endloop
  endfacet
  facet normal -6.497703e-001  7.601205e-001  3.905880e-003
    outer loop
      vertex -1.350000e+001  9.598076e+000  0.000000e+000
      vertex -1.442973e+001  8.759660e+000  8.496136e+000
      vertex -1.336564e+001  9.671147e+000  8.131541e+000
    endloop
  endfacet
  facet normal -2.588167e-001  9.659164e-001 -4.403347e-003
    outer loop
      vertex -1.350000e+001  9.598076e+000  0.000000e+000
      vertex -1.336564e+001  9.671147e+000  8.131541e+000
      vertex -1.200000e+001  1.000000e+001  0.000000e+000
    endloop
  endfacet
  facet normal -2.341129e-001  9.722095e-001  0.000000e+000
    outer loop
      vertex -1.200000e+001  1.000000e+001  0.000000e+000
      vertex -1.336564e+001  9.671147e+000  8.131541e+000
      vertex -1.200000e+001  1.000000e+001  8.000000e+000
    endloop
  endfacet
  facet normal  2.588193e-001  9.659258e-001  0.000000e+000
    outer loop
      vertex  1.200000e+001  1.000000e+001  0.000000e+000
      vertex  1.200000e+001  1.000000e+001  8.000000e+000
      vertex  1.350000e+001  9.598076e+000  0.000000e+000
    endloop
  endfacet
  facet normal  2.345526e-001  9.720913e-001 -4.859764e-003
    outer loop
      vertex  1.350000e+001  9.598076e+000  0.000000e+000
      vertex  1.200000e+001  1.000000e+001  8.000000e+000
      vertex  1.336564e+001  9.671147e+000  8.131541e+000
    endloop
  endfacet
  facet normal  7.070968e-001  7.070968e-001  5.329593e-003
    outer loop
      vertex  1.350000e+001  9.598076e+000  0.000000e+000
      vertex  1.336564e+001  9.671147e+000  8.131541e+000
      vertex  1.459808e+001  8.500000e+000  0.000000e+000
    endloop
  endfacet
  facet normal  6.525324e-001  7.576918e-001 -1.022729e-002
    outer loop
      vertex  1.459808e+001  8.500000e+000  0.000000e+000
      vertex  1.336564e+001  9.671147e+000  8.131541e+000
      vertex  1.442973e+001  8.759660e+000  8.496136e+000
    endloop
  endfacet
  facet normal  9.658649e-001  2.588030e-001  1.122821e-002
    outer loop
      vertex  1.459808e+001  8.500000e+000  0.000000e+000
      vertex  1.442973e+001  8.759660e+000  8.496136e+000
      vertex  1.500000e+001  7.000000e+000  0.000000e+000
    endloop
  endfacet
  facet normal  9.512915e-001  3.082930e-001  -0.000000e+000
    outer loop
      vertex  1.500000e+001  7.000000e+000  0.000000e+000
      vertex  1.442973e+001  8.759660e+000  8.496136e+000
      vertex  1.500000e+001  7.000000e+000  9.200000e+000
    endloop
  endfacet
  facet normal  1.000000e+000  0.000000e+000  0.000000e+000
    outer loop
      vertex -9.500000e+000  2.000000e+000  9.762457e+000
      vertex -9.500000e+000 -1.819621e+000  8.571429e-001
      vertex -9.500000e+000 -1.110223e-015  1.600000e+000
    endloop
  endfacet
  facet normal  1.000000e+000  -0.000000e+000  0.000000e+000
    outer loop
      vertex -9.500000e+000  2.000000e+000  9.762457e+000
      vertex -9.500000e+000 -1.110223e-015  1.600000e+000
      vertex -9.500000e+000  1.819621e+000  8.571429e-001
    endloop
  endfacet
  facet normal  9.999999e-001  -0.000000e+000  0.000000e+000
    outer loop
      vertex -9.500000e+000  2.000000e+000  9.762457e+000
      vertex -9.500000e+000  1.819621e+000  8.571429e-001
      vertex -9.500000e+000  2.000000e+000  6.941955e-001
    endloop
  endfacet
  facet normal  1.000000e+000  0.000000e+000  -0.000000e+000
    outer loop
      vertex -9.500000e+000 -2.000000e+000  6.941955e-001
      vertex -9.500000e+000 -1.819621e+000  8.571429e-001
      vertex -9.500000e+000  2.000000e+000  9.762457e+000
    endloop
  endfacet
  facet normal  9.999999e-001  0.000000e+000  -0.000000e+000
    outer loop
      vertex -9.500000e+000 -2.000000e+000  6.941955e-001
      vertex -9.500000e+000  2.000000e+000  9.762457e+000
      vertex -9.500000e+000  2.500000e+000  1.100000e+001
    endloop
  endfacet
  facet normal  1.000000e+000  0.000000e+000  0.000000e+000
    outer loop
      vertex -9.500000e+000 -2.000000e+000  6.941955e-001
      vertex -9.500000e+000  2.500000e+000  1.100000e+001
      vertex -9.500000e+000  2.000000e+000  1.250000e+001
    endloop
  endfacet
  facet normal  1.000000e+000  0.000000e+000  0.000000e+000
    outer loop
      vertex -9.500000e+000 -2.000000e+000  6.941955e-001
      vertex -9.500000e+000  2.000000e+000  1.250000e+001
      vertex -9.500000e+000 -2.000000e+000  1.250000e+001
    endloop
  endfacet
  facet normal  9.999999e-001  0.000000e+000  0.000000e+000
    outer loop
      vertex -9.500000e+000 -2.000000e+000  1.250000e+001
      vertex -9.500000e+000  2.000000e+000  1.250000e+001
      vertex -9.500000e+000 -7.604997e-001  1.338152e+001
    endloop
  endfacet
  facet normal  9.999999e-001  -0.000000e+000  0.000000e+000
    outer loop
      vertex -9.500000e+000 -7.604997e-001  1.338152e+001
      vertex -9.500000e+000  2.000000e+000  1.250000e+001
      vertex -9.500000e+000  7.604997e-001  1.338152e+001
    endloop
  endfacet
  facet normal -1.000000e+000  0.000000e+000  0.000000e+000
    outer loop
      vertex  9.500000e+000  2.000000e+000  9.762457e+000
      vertex  9.500000e+000  2.000000e+000  6.941955e-001
      vertex  9.500000e+000  1.819621e+000  8.571429e-001
    endloop
  endfacet
  facet normal -1.000000e+000  0.000000e+000  0.000000e+000
    outer loop
      vertex  9.500000e+000  2.000000e+000  9.762457e+000
      vertex  9.500000e+000  1.819621e+000  8.571429e-001
      vertex  9.500000e+000 -2.664535e-015  1.600000e+000
    endloop
  endfacet
  facet normal -1.000000e+000  -0.000000e+000  0.000000e+000
    outer loop
      vertex  9.500000e+000  2.000000e+000  9.762457e+000
      vertex  9.500000e+000 -2.664535e-015  1.600000e+000
      vertex  9.500000e+000 -1.819621e+000  8.571429e-001
    endloop
  endfacet
  facet normal -9.999999e-001  -0.000000e+000  0.000000e+000
    outer loop
      vertex  9.500000e+000 -7.604997e-001  1.338152e+001
      vertex  9.500000e+000  7.604997e-001  1.338152e+001
      vertex  9.500000e+000 -2.000000e+000  1.250000e+001
    endloop
  endfacet
  facet normal -9.999999e-001  0.000000e+000  0.000000e+000
    outer loop
      vertex  9.500000e+000 -2.000000e+000  1.250000e+001
      vertex  9.500000e+000  7.604997e-001  1.338152e+001
      vertex  9.500000e+000  2.000000e+000  1.250000e+001
    endloop
  endfacet
  facet normal -1.000000e+000  -0.000000e+000  0.000000e+000
    outer loop
      vertex  9.500000e+000 -2.000000e+000  1.250000e+001
      vertex  9.500000e+000  2.000000e+000  1.250000e+001
      vertex  9.500000e+000 -2.000000e+000  6.941955e-001
    endloop
  endfacet
  facet normal -1.000000e+000  0.000000e+000  0.000000e+000
    outer loop
      vertex  9.500000e+000 -2.000000e+000  6.941955e-001
      vertex  9.500000e+000  2.000000e+000  1.250000e+001
      vertex  9.500000e+000  2.500000e+000  1.100000e+001
    endloop
  endfacet
  facet normal -1.000000e+000  0.000000e+000  0.000000e+000
    outer loop
      vertex  9.500000e+000 -2.000000e+000  6.941955e-001
      vertex  9.500000e+000  2.500000e+000  1.100000e+001
      vertex  9.500000e+000 -1.819621e+000  8.571429e-001
    endloop
  endfacet
  facet normal -1.000000e+000  0.000000e+000  0.000000e+000
    outer loop
      vertex  9.500000e+000 -1.819621e+000  8.571429e-001
      vertex  9.500000e+000  2.500000e+000  1.100000e+001
      vertex  9.500000e+000  2.000000e+000  9.762457e+000
    endloop
  endfacet
  facet normal  0.000000e+000  3.779645e-001 -9.258201e-001
    outer loop
      vertex  9.500000e+000 -1.819621e+000  8.571429e-001
      vertex  9.500000e+000 -2.664535e-015  1.600000e+000
      vertex  1.500000e+001 -1.819621e+000  8.571429e-001
    endloop
  endfacet
  facet normal  0.000000e+000  3.779645e-001 -9.258201e-001
    outer loop
      vertex  1.500000e+001 -1.819621e+000  8.571429e-001
      vertex  9.500000e+000 -2.664535e-015  1.600000e+000
      vertex  1.500000e+001  1.591988e-016  1.600000e+000
    endloop
  endfacet
  facet normal  0.000000e+000 -3.779645e-001 -9.258201e-001
    outer loop
      vertex  9.500000e+000 -2.664535e-015  1.600000e+000
      vertex  9.500000e+000  1.819621e+000  8.571429e-001
      vertex  1.500000e+001  1.591988e-016  1.600000e+000
    endloop
  endfacet
  facet normal  0.000000e+000 -3.779645e-001 -9.258201e-001
    outer loop
      vertex  1.500000e+001  1.591988e-016  1.600000e+000
      vertex  9.500000e+000  1.819621e+000  8.571429e-001
      vertex  1.500000e+001  1.819621e+000  8.571429e-001
    endloop
  endfacet
  facet normal  0.000000e+000  3.779645e-001 -9.258201e-001
    outer loop
      vertex -1.500000e+001 -1.819621e+000  8.571429e-001
      vertex -1.500000e+001 -3.552714e-015  1.600000e+000
      vertex -9.500000e+000 -1.819621e+000  8.571429e-001
    endloop
  endfacet
  facet normal  0.000000e+000  3.779645e-001 -9.258201e-001
    outer loop
      vertex -9.500000e+000 -1.819621e+000  8.571429e-001
      vertex -1.500000e+001 -3.552714e-015  1.600000e+000
      vertex -9.500000e+000 -1.110223e-015  1.600000e+000
    endloop
  endfacet
  facet normal  0.000000e+000 -3.779645e-001 -9.258201e-001
    outer loop
      vertex -1.500000e+001 -3.552714e-015  1.600000e+000
      vertex -1.500000e+001  1.819621e+000  8.571429e-001
      vertex -9.500000e+000 -1.110223e-015  1.600000e+000
    endloop
  endfacet
  facet normal  0.000000e+000 -3.779645e-001 -9.258201e-001
    outer loop
      vertex -9.500000e+000 -1.110223e-015  1.600000e+000
      vertex -1.500000e+001  1.819621e+000  8.571429e-001
      vertex -9.500000e+000  1.819621e+000  8.571429e-001
    endloop
  endfacet
  facet normal  0.000000e+000 -1.000000e+000  0.000000e+000
    outer loop
      vertex  9.500000e+000  2.000000e+000  9.762457e+000
      vertex -9.500000e+000  2.000000e+000  9.762457e+000
      vertex  9.500000e+000  2.000000e+000  6.941955e-001
    endloop
  endfacet
  facet normal  0.000000e+000 -1.000000e+000  0.000000e+000
    outer loop
      vertex  9.500000e+000  2.000000e+000  6.941955e-001
      vertex -9.500000e+000  2.000000e+000  9.762457e+000
      vertex -9.500000e+000  2.000000e+000  6.941955e-001
    endloop
  endfacet
  facet normal  -0.000000e+000 -1.925876e-001 -9.812799e-001
    outer loop
      vertex -1.500000e+001  3.919183e+000  0.000000e+000
      vertex  1.500000e+001  3.919183e+000  0.000000e+000
      vertex -1.500000e+001  2.785290e+000  2.225397e-001
    endloop
  endfacet
  facet normal  0.000000e+000 -1.925876e-001 -9.812799e-001
    outer loop
      vertex -1.500000e+001  2.785290e+000  2.225397e-001
      vertex  1.500000e+001  3.919183e+000  0.000000e+000
      vertex  1.500000e+001  2.785290e+000  2.225397e-001
    endloop
  endfacet
  facet normal  -0.000000e+000 -5.148823e-001 -8.572608e-001
    outer loop
      vertex -1.500000e+001  2.785290e+000  2.225397e-001
      vertex  1.500000e+001  2.785290e+000  2.225397e-001
      vertex -9.500000e+000  2.000000e+000  6.941955e-001
    endloop
  endfacet
  facet normal  0.000000e+000 -5.148823e-001 -8.572609e-001
    outer loop
      vertex -9.500000e+000  2.000000e+000  6.941955e-001
      vertex  1.500000e+001  2.785290e+000  2.225397e-001
      vertex  9.500000e+000  2.000000e+000  6.941955e-001
    endloop
  endfacet
  facet normal  0.000000e+000 -5.491903e-001 -8.356974e-001
    outer loop
      vertex  1.500000e+001  1.819621e+000  8.571429e-001
      vertex  9.500000e+000  1.819621e+000  8.571429e-001
      vertex  1.500000e+001  2.785290e+000  2.225397e-001
    endloop
  endfacet
  facet normal  3.205971e-002 -6.699969e-001 -7.416713e-001
    outer loop
      vertex  1.500000e+001  2.785290e+000  2.225397e-001
      vertex  9.500000e+000  1.819621e+000  8.571429e-001
      vertex  9.500000e+000  2.000000e+000  6.941955e-001
    endloop
  endfacet
  facet normal  0.000000e+000 -6.703414e-001 -7.420527e-001
    outer loop
      vertex -9.500000e+000  1.819621e+000  8.571429e-001
      vertex -1.500000e+001  1.819621e+000  8.571429e-001
      vertex -9.500000e+000  2.000000e+000  6.941955e-001
    endloop
  endfacet
  facet normal -6.747531e-003 -5.491777e-001 -8.356783e-001
    outer loop
      vertex -9.500000e+000  2.000000e+000  6.941955e-001
      vertex -1.500000e+001  1.819621e+000  8.571429e-001
      vertex -1.500000e+001  2.785290e+000  2.225397e-001
    endloop
  endfacet
  facet normal  0.000000e+000  1.000000e+000  0.000000e+000
    outer loop
      vertex -9.500000e+000 -2.000000e+000  1.250000e+001
      vertex  9.500000e+000 -2.000000e+000  1.250000e+001
      vertex -9.500000e+000 -2.000000e+000  6.941955e-001
    endloop
  endfacet
  facet normal  0.000000e+000  1.000000e+000  0.000000e+000
    outer loop
      vertex -9.500000e+000 -2.000000e+000  6.941955e-001
      vertex  9.500000e+000 -2.000000e+000  1.250000e+001
      vertex  9.500000e+000 -2.000000e+000  6.941955e-001
    endloop
  endfacet
  facet normal  0.000000e+000  1.925876e-001 -9.812799e-001
    outer loop
      vertex  1.500000e+001 -2.785290e+000  2.225397e-001
      vertex  1.500000e+001 -3.919183e+000  0.000000e+000
      vertex -1.500000e+001 -3.919183e+000  0.000000e+000
    endloop
  endfacet
  facet normal  0.000000e+000  1.925876e-001 -9.812799e-001
    outer loop
      vertex  1.500000e+001 -2.785290e+000  2.225397e-001
      vertex -1.500000e+001 -3.919183e+000  0.000000e+000
      vertex -1.500000e+001 -2.785290e+000  2.225397e-001
    endloop
  endfacet
  facet normal  0.000000e+000  5.148823e-001 -8.572608e-001
    outer loop
      vertex  1.500000e+001 -2.785290e+000  2.225397e-001
      vertex -1.500000e+001 -2.785290e+000  2.225397e-001
      vertex -9.500000e+000 -2.000000e+000  6.941955e-001
    endloop
  endfacet
  facet normal  0.000000e+000  5.148823e-001 -8.572609e-001
    outer loop
      vertex  1.500000e+001 -2.785290e+000  2.225397e-001
      vertex -9.500000e+000 -2.000000e+000  6.941955e-001
      vertex  9.500000e+000 -2.000000e+000  6.941955e-001
    endloop
  endfacet
  facet normal  3.205971e-002  6.699969e-001 -7.416713e-001
    outer loop
      vertex  1.500000e+001 -2.785290e+000  2.225397e-001
      vertex  9.500000e+000 -2.000000e+000  6.941955e-001
      vertex  9.500000e+000 -1.819621e+000  8.571429e-001
    endloop
  endfacet
  facet normal  0.000000e+000  5.491903e-001 -8.356974e-001
    outer loop
      vertex  1.500000e+001 -2.785290e+000  2.225397e-001
      vertex  9.500000e+000 -1.819621e+000  8.571429e-001
      vertex  1.500000e+001 -1.819621e+000  8.571429e-001
    endloop
  endfacet
  facet normal -3.205971e-002  6.699969e-001 -7.416713e-001
    outer loop
      vertex -9.500000e+000 -2.000000e+000  6.941955e-001
      vertex -1.500000e+001 -2.785290e+000  2.225397e-001
      vertex -9.500000e+000 -1.819621e+000  8.571429e-001
    endloop
  endfacet
  facet normal  0.000000e+000  5.491903e-001 -8.356974e-001
    outer loop
      vertex -9.500000e+000 -1.819621e+000  8.571429e-001
      vertex -1.500000e+001 -2.785290e+000  2.225397e-001
      vertex -1.500000e+001 -1.819621e+000  8.571429e-001
    endloop
  endfacet
  facet normal  0.000000e+000 -9.271839e-001  3.746067e-001
    outer loop
      vertex  9.500000e+000  2.000000e+000  9.762457e+000
      vertex  9.500000e+000  2.500000e+000  1.100000e+001
      vertex -9.500000e+000  2.000000e+000  9.762457e+000
    endloop
  endfacet
  facet normal  0.000000e+000 -9.271839e-001  3.746067e-001
    outer loop
      vertex -9.500000e+000  2.000000e+000  9.762457e+000
      vertex  9.500000e+000  2.500000e+000  1.100000e+001
      vertex -9.500000e+000  2.500000e+000  1.100000e+001
    endloop
  endfacet
  facet normal  2.349420e-002 -7.295920e-001  6.834789e-001
    outer loop
      vertex  9.500000e+000 -2.000000e+000  1.250000e+001
      vertex  1.500000e+001 -2.291288e+000  1.200000e+001
      vertex  1.500000e+001 -1.147258e+000  1.322122e+001
    endloop
  endfacet
  facet normal -1.700042e-002 -5.794827e-001  8.148071e-001
    outer loop
      vertex  9.500000e+000 -2.000000e+000  1.250000e+001
      vertex  1.500000e+001 -1.147258e+000  1.322122e+001
      vertex  9.500000e+000 -7.604997e-001  1.338152e+001
    endloop
  endfacet
  facet normal  1.937629e-002 -1.350615e-001  9.906477e-001
    outer loop
      vertex  9.500000e+000 -7.604997e-001  1.338152e+001
      vertex  1.500000e+001 -1.147258e+000  1.322122e+001
      vertex  1.500000e+001  5.107741e-001  1.344727e+001
    endloop
  endfacet
  facet normal -1.937629e-002 -1.350615e-001  9.906477e-001
    outer loop
      vertex -1.500000e+001  5.107741e-001  1.344727e+001
      vertex -1.500000e+001 -1.147258e+000  1.322122e+001
      vertex -9.500000e+000 -7.604997e-001  1.338152e+001
    endloop
  endfacet
  facet normal  1.700042e-002 -5.794827e-001  8.148071e-001
    outer loop
      vertex -9.500000e+000 -2.000000e+000  1.250000e+001
      vertex -9.500000e+000 -7.604997e-001  1.338152e+001
      vertex -1.500000e+001 -1.147258e+000  1.322122e+001
    endloop
  endfacet
  facet normal -2.349420e-002 -7.295920e-001  6.834789e-001
    outer loop
      vertex -9.500000e+000 -2.000000e+000  1.250000e+001
      vertex -1.500000e+001 -1.147258e+000  1.322122e+001
      vertex -1.500000e+001 -2.291288e+000  1.200000e+001
    endloop
  endfacet
  facet normal  0.000000e+000 -8.640636e-001  5.033826e-001
    outer loop
      vertex -9.500000e+000 -2.000000e+000  1.250000e+001
      vertex -1.500000e+001 -2.291288e+000  1.200000e+001
      vertex  1.500000e+001 -2.291288e+000  1.200000e+001
    endloop
  endfacet
  facet normal  0.000000e+000 -8.640637e-001  5.033826e-001
    outer loop
      vertex -9.500000e+000 -2.000000e+000  1.250000e+001
      vertex  1.500000e+001 -2.291288e+000  1.200000e+001
      vertex  9.500000e+000 -2.000000e+000  1.250000e+001
    endloop
  endfacet
  facet normal  -0.000000e+000  9.423339e-001  3.346743e-001
    outer loop
      vertex  1.500000e+001  2.500000e+000  1.100000e+001
      vertex  9.500000e+000  2.500000e+000  1.100000e+001
      vertex  1.500000e+001  1.939966e+000  1.257687e+001
    endloop
  endfacet
  facet normal  5.935128e-003  9.486666e-001  3.162222e-001
    outer loop
      vertex  1.500000e+001  1.939966e+000  1.257687e+001
      vertex  9.500000e+000  2.500000e+000  1.100000e+001
      vertex  9.500000e+000  2.000000e+000  1.250000e+001
    endloop
  endfacet
  facet normal -6.259874e-003  5.201325e-001  8.540626e-001
    outer loop
      vertex  1.500000e+001  1.939966e+000  1.257687e+001
      vertex  9.500000e+000  2.000000e+000  1.250000e+001
      vertex  1.500000e+001  5.107741e-001  1.344727e+001
    endloop
  endfacet
  facet normal  1.657137e-002  5.794869e-001  8.148130e-001
    outer loop
      vertex  1.500000e+001  5.107741e-001  1.344727e+001
      vertex  9.500000e+000  2.000000e+000  1.250000e+001
      vertex  9.500000e+000  7.604997e-001  1.338152e+001
    endloop
  endfacet
  facet normal -1.195285e-002  0.000000e+000  9.999285e-001
    outer loop
      vertex  1.500000e+001  5.107741e-001  1.344727e+001
      vertex  9.500000e+000  7.604997e-001  1.338152e+001
      vertex  9.500000e+000 -7.604997e-001  1.338152e+001
    endloop
  endfacet
  facet normal  -0.000000e+000  9.486833e-001  3.162278e-001
    outer loop
      vertex -9.500000e+000  2.500000e+000  1.100000e+001
      vertex -1.500000e+001  2.500000e+000  1.100000e+001
      vertex -9.500000e+000  2.000000e+000  1.250000e+001
    endloop
  endfacet
  facet normal -5.608010e-003  9.423191e-001  3.346691e-001
    outer loop
      vertex -9.500000e+000  2.000000e+000  1.250000e+001
      vertex -1.500000e+001  2.500000e+000  1.100000e+001
      vertex -1.500000e+001  1.939966e+000  1.257687e+001
    endloop
  endfacet
  facet normal  5.064039e-003  5.795591e-001  8.149145e-001
    outer loop
      vertex -9.500000e+000  2.000000e+000  1.250000e+001
      vertex -1.500000e+001  1.939966e+000  1.257687e+001
      vertex -9.500000e+000  7.604997e-001  1.338152e+001
    endloop
  endfacet
  facet normal -1.340629e-002  5.200961e-001  8.540027e-001
    outer loop
      vertex -9.500000e+000  7.604997e-001  1.338152e+001
      vertex -1.500000e+001  1.939966e+000  1.257687e+001
      vertex -1.500000e+001  5.107741e-001  1.344727e+001
    endloop
  endfacet
  facet normal  1.195285e-002  0.000000e+000  9.999285e-001
    outer loop
      vertex -9.500000e+000  7.604997e-001  1.338152e+001
      vertex -1.500000e+001  5.107741e-001  1.344727e+001
      vertex -9.500000e+000 -7.604997e-001  1.338152e+001
    endloop
  endfacet
endsolid CATIA STL
