solid CATIA STL
  facet normal  0.000000e+000  1.000000e+000  0.000000e+000
    outer loop
      vertex  3.050000e+001  8.000000e+001  0.000000e+000
      vertex  6.655000e+002  8.000000e+001  0.000000e+000
      vertex  6.655000e+002  8.000000e+001 -3.557537e+001
    endloop
  endfacet
  facet normal  0.000000e+000  1.000000e+000  0.000000e+000
    outer loop
      vertex  3.050000e+001  8.000000e+001  0.000000e+000
      vertex  6.655000e+002  8.000000e+001 -3.557537e+001
      vertex  6.655000e+002  8.000000e+001 -8.442463e+001
    endloop
  endfacet
  facet normal  0.000000e+000  1.000000e+000  0.000000e+000
    outer loop
      vertex  3.050000e+001  8.000000e+001  0.000000e+000
      vertex  6.655000e+002  8.000000e+001 -8.442463e+001
      vertex  6.655000e+002  8.000000e+001 -1.555754e+002
    endloop
  endfacet
  facet normal  0.000000e+000  1.000000e+000  0.000000e+000
    outer loop
      vertex  3.050000e+001  8.000000e+001  0.000000e+000
      vertex  6.655000e+002  8.000000e+001 -1.555754e+002
      vertex  6.655000e+002  8.000000e+001 -2.044246e+002
    endloop
  endfacet
  facet normal  0.000000e+000  1.000000e+000  0.000000e+000
    outer loop
      vertex  3.050000e+001  8.000000e+001  0.000000e+000
      vertex  6.655000e+002  8.000000e+001 -2.044246e+002
      vertex  6.655000e+002  8.000000e+001 -2.755754e+002
    endloop
  endfacet
  facet normal  0.000000e+000  1.000000e+000  0.000000e+000
    outer loop
      vertex  3.050000e+001  8.000000e+001  0.000000e+000
      vertex  6.655000e+002  8.000000e+001 -2.755754e+002
      vertex  6.655000e+002  8.000000e+001 -3.244246e+002
    endloop
  endfacet
  facet normal  0.000000e+000  1.000000e+000  0.000000e+000
    outer loop
      vertex  3.050000e+001  8.000000e+001  0.000000e+000
      vertex  6.655000e+002  8.000000e+001 -3.244246e+002
      vertex  6.655000e+002  8.000000e+001 -3.955754e+002
    endloop
  endfacet
  facet normal  0.000000e+000  1.000000e+000  0.000000e+000
    outer loop
      vertex  3.050000e+001  8.000000e+001  0.000000e+000
      vertex  6.655000e+002  8.000000e+001 -3.955754e+002
      vertex  6.655000e+002  8.000000e+001 -4.444246e+002
    endloop
  endfacet
  facet normal  0.000000e+000  1.000000e+000  0.000000e+000
    outer loop
      vertex  3.050000e+001  8.000000e+001  0.000000e+000
      vertex  6.655000e+002  8.000000e+001 -4.444246e+002
      vertex  6.655000e+002  8.000000e+001 -5.155754e+002
    endloop
  endfacet
  facet normal  0.000000e+000  1.000000e+000  0.000000e+000
    outer loop
      vertex  3.050000e+001  8.000000e+001  0.000000e+000
      vertex  6.655000e+002  8.000000e+001 -5.155754e+002
      vertex  6.655000e+002  8.000000e+001 -5.644246e+002
    endloop
  endfacet
  facet normal  0.000000e+000  1.000000e+000  0.000000e+000
    outer loop
      vertex  3.050000e+001  8.000000e+001  0.000000e+000
      vertex  6.655000e+002  8.000000e+001 -5.644246e+002
      vertex  6.655000e+002  8.000000e+001 -6.355754e+002
    endloop
  endfacet
  facet normal  0.000000e+000  1.000000e+000  0.000000e+000
    outer loop
      vertex  3.050000e+001  8.000000e+001  0.000000e+000
      vertex  6.655000e+002  8.000000e+001 -6.355754e+002
      vertex  6.655000e+002  8.000000e+001 -6.844246e+002
    endloop
  endfacet
  facet normal  0.000000e+000  1.000000e+000  0.000000e+000
    outer loop
      vertex  3.050000e+001  8.000000e+001  0.000000e+000
      vertex  6.655000e+002  8.000000e+001 -6.844246e+002
      vertex  6.655000e+002  8.000000e+001 -7.430000e+002
    endloop
  endfacet
  facet normal  0.000000e+000  9.999999e-001  0.000000e+000
    outer loop
      vertex  3.050000e+001  8.000000e+001  0.000000e+000
      vertex  6.655000e+002  8.000000e+001 -7.430000e+002
      vertex  3.050000e+001  8.000000e+001 -7.430000e+002
    endloop
  endfacet
  facet normal  1.000000e+000  0.000000e+000  -0.000000e+000
    outer loop
      vertex  6.655000e+002 -8.526513e-014 -7.430000e+002
      vertex  6.655000e+002  8.000000e+001 -7.430000e+002
      vertex  6.655000e+002  8.000000e+001 -6.844246e+002
    endloop
  endfacet
  facet normal  9.999999e-001  0.000000e+000  -0.000000e+000
    outer loop
      vertex  6.655000e+002 -8.526513e-014 -7.430000e+002
      vertex  6.655000e+002  8.000000e+001 -6.844246e+002
      vertex  6.655000e+002  8.000000e+001 -6.355754e+002
    endloop
  endfacet
  facet normal  1.000000e+000  0.000000e+000  -0.000000e+000
    outer loop
      vertex  6.655000e+002 -8.526513e-014 -7.430000e+002
      vertex  6.655000e+002  8.000000e+001 -6.355754e+002
      vertex  6.655000e+002  8.000000e+001 -5.644246e+002
    endloop
  endfacet
  facet normal  9.999999e-001  0.000000e+000  -0.000000e+000
    outer loop
      vertex  6.655000e+002 -8.526513e-014 -7.430000e+002
      vertex  6.655000e+002  8.000000e+001 -5.644246e+002
      vertex  6.655000e+002  8.000000e+001 -5.155754e+002
    endloop
  endfacet
  facet normal  1.000000e+000  0.000000e+000  -0.000000e+000
    outer loop
      vertex  6.655000e+002 -8.526513e-014 -7.430000e+002
      vertex  6.655000e+002  8.000000e+001 -5.155754e+002
      vertex  6.655000e+002  8.000000e+001 -4.444246e+002
    endloop
  endfacet
  facet normal  9.999999e-001  0.000000e+000  -0.000000e+000
    outer loop
      vertex  6.655000e+002 -8.526513e-014 -7.430000e+002
      vertex  6.655000e+002  8.000000e+001 -4.444246e+002
      vertex  6.655000e+002  8.000000e+001 -3.955754e+002
    endloop
  endfacet
  facet normal  1.000000e+000  0.000000e+000  -0.000000e+000
    outer loop
      vertex  6.655000e+002 -8.526513e-014 -7.430000e+002
      vertex  6.655000e+002  8.000000e+001 -3.955754e+002
      vertex  6.655000e+002  8.000000e+001 -3.244246e+002
    endloop
  endfacet
  facet normal  9.999999e-001  0.000000e+000  -0.000000e+000
    outer loop
      vertex  6.655000e+002 -8.526513e-014 -7.430000e+002
      vertex  6.655000e+002  8.000000e+001 -3.244246e+002
      vertex  6.655000e+002  8.000000e+001 -2.755754e+002
    endloop
  endfacet
  facet normal  1.000000e+000  0.000000e+000  -0.000000e+000
    outer loop
      vertex  6.655000e+002 -8.526513e-014 -7.430000e+002
      vertex  6.655000e+002  8.000000e+001 -2.755754e+002
      vertex  6.655000e+002  8.000000e+001 -2.044246e+002
    endloop
  endfacet
  facet normal  9.999999e-001  0.000000e+000  -0.000000e+000
    outer loop
      vertex  6.655000e+002 -8.526513e-014 -7.430000e+002
      vertex  6.655000e+002  8.000000e+001 -2.044246e+002
      vertex  6.655000e+002  8.000000e+001 -1.555754e+002
    endloop
  endfacet
  facet normal  1.000000e+000  0.000000e+000  -0.000000e+000
    outer loop
      vertex  6.655000e+002 -8.526513e-014 -7.430000e+002
      vertex  6.655000e+002  8.000000e+001 -1.555754e+002
      vertex  6.655000e+002  8.000000e+001 -8.442463e+001
    endloop
  endfacet
  facet normal  1.000000e+000  0.000000e+000  -0.000000e+000
    outer loop
      vertex  6.655000e+002 -8.526513e-014 -7.430000e+002
      vertex  6.655000e+002  8.000000e+001 -8.442463e+001
      vertex  6.655000e+002  8.000000e+001 -3.557537e+001
    endloop
  endfacet
  facet normal  1.000000e+000  0.000000e+000  -0.000000e+000
    outer loop
      vertex  6.655000e+002 -8.526513e-014 -7.430000e+002
      vertex  6.655000e+002  8.000000e+001 -3.557537e+001
      vertex  6.655000e+002  8.000000e+001  0.000000e+000
    endloop
  endfacet
  facet normal  1.000000e+000  0.000000e+000  0.000000e+000
    outer loop
      vertex  6.655000e+002 -8.526513e-014 -7.430000e+002
      vertex  6.655000e+002  8.000000e+001  0.000000e+000
      vertex  6.655000e+002  0.000000e+000  0.000000e+000
    endloop
  endfacet
  facet normal -1.000000e+000  0.000000e+000  0.000000e+000
    outer loop
      vertex  3.050000e+001  8.000000e+001 -7.430000e+002
      vertex  3.050000e+001  0.000000e+000 -7.430000e+002
      vertex  3.050000e+001  8.000000e+001  0.000000e+000
    endloop
  endfacet
  facet normal -1.000000e+000  -0.000000e+000  0.000000e+000
    outer loop
      vertex  3.050000e+001  8.000000e+001  0.000000e+000
      vertex  3.050000e+001  0.000000e+000 -7.430000e+002
      vertex  3.050000e+001  0.000000e+000  0.000000e+000
    endloop
  endfacet
  facet normal  0.000000e+000  0.000000e+000  1.000000e+000
    outer loop
      vertex  2.980000e+002  1.000000e+001  0.000000e+000
      vertex  3.050000e+001  0.000000e+000  0.000000e+000
      vertex  2.880000e+002  0.000000e+000  0.000000e+000
    endloop
  endfacet
  facet normal  0.000000e+000  0.000000e+000  1.000000e+000
    outer loop
      vertex  3.050000e+001  0.000000e+000  0.000000e+000
      vertex  2.980000e+002  1.000000e+001  0.000000e+000
      vertex  3.050000e+001  8.000000e+001  0.000000e+000
    endloop
  endfacet
  facet normal  0.000000e+000  0.000000e+000  1.000000e+000
    outer loop
      vertex  3.050000e+001  8.000000e+001  0.000000e+000
      vertex  2.980000e+002  1.000000e+001  0.000000e+000
      vertex  2.980000e+002  5.000000e+001  0.000000e+000
    endloop
  endfacet
  facet normal  0.000000e+000  -0.000000e+000  9.999999e-001
    outer loop
      vertex  3.050000e+001  8.000000e+001  0.000000e+000
      vertex  2.980000e+002  5.000000e+001  0.000000e+000
      vertex  6.655000e+002  8.000000e+001  0.000000e+000
    endloop
  endfacet
  facet normal  0.000000e+000  0.000000e+000  1.000000e+000
    outer loop
      vertex  6.655000e+002  8.000000e+001  0.000000e+000
      vertex  2.980000e+002  5.000000e+001  0.000000e+000
      vertex  3.980000e+002  5.000000e+001  0.000000e+000
    endloop
  endfacet
  facet normal  -0.000000e+000  0.000000e+000  1.000000e+000
    outer loop
      vertex  6.655000e+002  8.000000e+001  0.000000e+000
      vertex  3.980000e+002  5.000000e+001  0.000000e+000
      vertex  6.655000e+002  0.000000e+000  0.000000e+000
    endloop
  endfacet
  facet normal  0.000000e+000  0.000000e+000  1.000000e+000
    outer loop
      vertex  6.655000e+002  0.000000e+000  0.000000e+000
      vertex  3.980000e+002  5.000000e+001  0.000000e+000
      vertex  3.980000e+002  1.000000e+001  0.000000e+000
    endloop
  endfacet
  facet normal  0.000000e+000  0.000000e+000  1.000000e+000
    outer loop
      vertex  6.655000e+002  0.000000e+000  0.000000e+000
      vertex  3.980000e+002  1.000000e+001  0.000000e+000
      vertex  4.080000e+002  0.000000e+000  0.000000e+000
    endloop
  endfacet
  facet normal  0.000000e+000 -1.000000e+000 -7.503681e-017
    outer loop
      vertex  4.080000e+002  0.000000e+000  0.000000e+000
      vertex  4.080000e+002  5.575235e-014 -7.430000e+002
      vertex  6.655000e+002  0.000000e+000  0.000000e+000
    endloop
  endfacet
  facet normal -5.476407e-016 -1.000000e+000  1.147579e-016
    outer loop
      vertex  6.655000e+002  0.000000e+000  0.000000e+000
      vertex  4.080000e+002  5.575235e-014 -7.430000e+002
      vertex  6.655000e+002 -8.526513e-014 -7.430000e+002
    endloop
  endfacet
  facet normal  0.000000e+000  -0.000000e+000 -1.000000e+000
    outer loop
      vertex  2.880000e+002  0.000000e+000 -7.430000e+002
      vertex  2.980000e+002  5.000000e+001 -7.430000e+002
      vertex  2.980000e+002  1.000000e+001 -7.430000e+002
    endloop
  endfacet
  facet normal  0.000000e+000  -0.000000e+000 -1.000000e+000
    outer loop
      vertex  4.080000e+002  5.575235e-014 -7.430000e+002
      vertex  6.655000e+002  8.000000e+001 -7.430000e+002
      vertex  6.655000e+002 -8.526513e-014 -7.430000e+002
    endloop
  endfacet
  facet normal  0.000000e+000  0.000000e+000 -1.000000e+000
    outer loop
      vertex  4.080000e+002  5.575235e-014 -7.430000e+002
      vertex  3.980000e+002  1.000000e+001 -7.430000e+002
      vertex  6.655000e+002  8.000000e+001 -7.430000e+002
    endloop
  endfacet
  facet normal  0.000000e+000  0.000000e+000 -1.000000e+000
    outer loop
      vertex  6.655000e+002  8.000000e+001 -7.430000e+002
      vertex  3.980000e+002  1.000000e+001 -7.430000e+002
      vertex  3.980000e+002  5.000000e+001 -7.430000e+002
    endloop
  endfacet
  facet normal  0.000000e+000  0.000000e+000 -9.999999e-001
    outer loop
      vertex  6.655000e+002  8.000000e+001 -7.430000e+002
      vertex  3.980000e+002  5.000000e+001 -7.430000e+002
      vertex  3.050000e+001  8.000000e+001 -7.430000e+002
    endloop
  endfacet
  facet normal  0.000000e+000  0.000000e+000 -1.000000e+000
    outer loop
      vertex  3.050000e+001  8.000000e+001 -7.430000e+002
      vertex  3.980000e+002  5.000000e+001 -7.430000e+002
      vertex  2.980000e+002  5.000000e+001 -7.430000e+002
    endloop
  endfacet
  facet normal  -0.000000e+000  0.000000e+000 -1.000000e+000
    outer loop
      vertex  3.050000e+001  8.000000e+001 -7.430000e+002
      vertex  2.980000e+002  5.000000e+001 -7.430000e+002
      vertex  3.050000e+001  0.000000e+000 -7.430000e+002
    endloop
  endfacet
  facet normal  0.000000e+000  0.000000e+000 -1.000000e+000
    outer loop
      vertex  3.050000e+001  0.000000e+000 -7.430000e+002
      vertex  2.980000e+002  5.000000e+001 -7.430000e+002
      vertex  2.880000e+002  0.000000e+000 -7.430000e+002
    endloop
  endfacet
  facet normal  0.000000e+000 -1.000000e+000  0.000000e+000
    outer loop
      vertex  3.050000e+001  0.000000e+000  0.000000e+000
      vertex  3.050000e+001  0.000000e+000 -7.430000e+002
      vertex  2.880000e+002  0.000000e+000  0.000000e+000
    endloop
  endfacet
  facet normal  0.000000e+000 -1.000000e+000  -0.000000e+000
    outer loop
      vertex  2.880000e+002  0.000000e+000  0.000000e+000
      vertex  3.050000e+001  0.000000e+000 -7.430000e+002
      vertex  2.880000e+002  0.000000e+000 -7.430000e+002
    endloop
  endfacet
  facet normal -7.071068e-001 -7.071068e-001  0.000000e+000
    outer loop
      vertex  4.080000e+002  0.000000e+000  0.000000e+000
      vertex  3.980000e+002  1.000000e+001  0.000000e+000
      vertex  4.080000e+002  5.575235e-014 -7.430000e+002
    endloop
  endfacet
  facet normal -7.071068e-001 -7.071068e-001  0.000000e+000
    outer loop
      vertex  4.080000e+002  5.575235e-014 -7.430000e+002
      vertex  3.980000e+002  1.000000e+001  0.000000e+000
      vertex  3.980000e+002  1.000000e+001 -7.430000e+002
    endloop
  endfacet
  facet normal  7.071068e-001 -7.071068e-001  0.000000e+000
    outer loop
      vertex  2.880000e+002  0.000000e+000 -7.430000e+002
      vertex  2.980000e+002  1.000000e+001 -7.430000e+002
      vertex  2.880000e+002  0.000000e+000  0.000000e+000
    endloop
  endfacet
  facet normal  7.071068e-001 -7.071068e-001  0.000000e+000
    outer loop
      vertex  2.880000e+002  0.000000e+000  0.000000e+000
      vertex  2.980000e+002  1.000000e+001 -7.430000e+002
      vertex  2.980000e+002  1.000000e+001  0.000000e+000
    endloop
  endfacet
  facet normal  0.000000e+000 -1.000000e+000  0.000000e+000
    outer loop
      vertex  2.980000e+002  5.000000e+001 -7.430000e+002
      vertex  3.980000e+002  5.000000e+001 -7.430000e+002
      vertex  2.980000e+002  5.000000e+001  0.000000e+000
    endloop
  endfacet
  facet normal  0.000000e+000 -1.000000e+000  0.000000e+000
    outer loop
      vertex  2.980000e+002  5.000000e+001  0.000000e+000
      vertex  3.980000e+002  5.000000e+001 -7.430000e+002
      vertex  3.980000e+002  5.000000e+001  0.000000e+000
    endloop
  endfacet
  facet normal -1.000000e+000  0.000000e+000  0.000000e+000
    outer loop
      vertex  3.980000e+002  5.000000e+001 -7.430000e+002
      vertex  3.980000e+002  1.000000e+001 -7.430000e+002
      vertex  3.980000e+002  5.000000e+001  0.000000e+000
    endloop
  endfacet
  facet normal -1.000000e+000  -0.000000e+000  0.000000e+000
    outer loop
      vertex  3.980000e+002  5.000000e+001  0.000000e+000
      vertex  3.980000e+002  1.000000e+001 -7.430000e+002
      vertex  3.980000e+002  1.000000e+001  0.000000e+000
    endloop
  endfacet
  facet normal  1.000000e+000  0.000000e+000  0.000000e+000
    outer loop
      vertex  2.980000e+002  1.000000e+001 -7.430000e+002
      vertex  2.980000e+002  5.000000e+001 -7.430000e+002
      vertex  2.980000e+002  1.000000e+001  0.000000e+000
    endloop
  endfacet
  facet normal  1.000000e+000  -0.000000e+000  0.000000e+000
    outer loop
      vertex  2.980000e+002  1.000000e+001  0.000000e+000
      vertex  2.980000e+002  5.000000e+001 -7.430000e+002
      vertex  2.980000e+002  5.000000e+001  0.000000e+000
    endloop
  endfacet
endsolid CATIA STL
