  0
SECTION
  2
HEADER
  9
$ACADVER
  1
AC1009
  9
$EXTMIN
 10
0.0
 20
0.0
 30
0.0
  9
$EXTMAX
 10
1000.0
 20
1000.0
 30
0.0
  9
$FILLMODE
 70
 0
  9
$SPLFRAME
 70
 1
  0
ENDSEC
  0
SECTION
  2
TABLES
  0
TABLE
  2
LAYER
 70
1
  0
LAYER
  2
0
 70
     0
 62
     7
  6
CONTINUOUS
  0
ENDTAB
  0
ENDSEC
  0
SECTION
  2
ENTITIES
  0
POLYLINE
  8
0
 62
     250
 66
     1
 10
0
 20
0
 30
0.0
 70
     1
 40
0
 41
0
  0
VERTEX
  8
0
 10
2.65196
 20
1.43153
 30
0.0
 40
0
 41
0
  0
VERTEX
  8
0
 10
2.70975
 20
1.43153
 30
0.0
 40
0
 41
0
  0
VERTEX
  8
0
 10
2.70975
 20
1.41151
 30
0.0
 40
0
 41
0
  0
VERTEX
  8
0
 10
2.6295
 20
1.41151
 30
0.0
 40
0
 41
0
  0
VERTEX
  8
0
 10
2.6295
 20
1.52838
 30
0.0
 40
0
 41
0
  0
VERTEX
  8
0
 10
2.70975
 20
1.52838
 30
0.0
 40
0
 41
0
  0
VERTEX
  8
0
 10
2.70975
 20
1.50836
 30
0.0
 40
0
 41
0
  0
VERTEX
  8
0
 10
2.65196
 20
1.50836
 30
0.0
 40
0
 41
0
  0
VERTEX
  8
0
 10
2.65196
 20
1.43153
 30
0.0
 40
0
 41
0
  0
SEQEND
 8
0
  0
POLYLINE
  8
0
 62
     250
 66
     1
 10
0
 20
0
 30
0.0
 70
     1
 40
0
 41
0
  0
VERTEX
  8
0
 10
2.74849
 20
1.47949
 30
0.0
 40
0
 41
0
  0
VERTEX
  8
0
 10
2.78521
 20
1.47949
 30
0.0
 40
0
 41
0
  0
VERTEX
  8
0
 10
2.78521
 20
1.50836
 30
0.0
 40
0
 41
0
  0
VERTEX
  8
0
 10
2.74849
 20
1.50836
 30
0.0
 40
0
 41
0
  0
VERTEX
  8
0
 10
2.74849
 20
1.47949
 30
0.0
 40
0
 41
0
  0
SEQEND
 8
0
  0
POLYLINE
  8
0
 62
     250
 66
     1
 10
0
 20
0
 30
0.0
 70
     1
 40
0
 41
0
  0
VERTEX
  8
0
 10
2.72601
 20
1.41151
 30
0.0
 40
0
 41
0
  0
VERTEX
  8
0
 10
2.72601
 20
1.52838
 30
0.0
 40
0
 41
0
  0
VERTEX
  8
0
 10
2.80626
 20
1.52838
 30
0.0
 40
0
 41
0
  0
VERTEX
  8
0
 10
2.80626
 20
1.46044
 30
0.0
 40
0
 41
0
  0
VERTEX
  8
0
 10
2.77886
 20
1.46044
 30
0.0
 40
0
 41
0
  0
VERTEX
  8
0
 10
2.80626
 20
1.41151
 30
0.0
 40
0
 41
0
  0
VERTEX
  8
0
 10
2.78521
 20
1.41151
 30
0.0
 40
0
 41
0
  0
VERTEX
  8
0
 10
2.7564
 20
1.46044
 30
0.0
 40
0
 41
0
  0
VERTEX
  8
0
 10
2.74849
 20
1.46044
 30
0.0
 40
0
 41
0
  0
VERTEX
  8
0
 10
2.74849
 20
1.41151
 30
0.0
 40
0
 41
0
  0
VERTEX
  8
0
 10
2.72601
 20
1.41151
 30
0.0
 40
0
 41
0
  0
SEQEND
 8
0
  0
POLYLINE
  8
0
 62
     250
 66
     1
 10
0
 20
0
 30
0.0
 70
     1
 40
0
 41
0
  0
VERTEX
  8
0
 10
2.845
 20
1.47949
 30
0.0
 40
0
 41
0
  0
VERTEX
  8
0
 10
2.88172
 20
1.47949
 30
0.0
 40
0
 41
0
  0
VERTEX
  8
0
 10
2.88172
 20
1.50836
 30
0.0
 40
0
 41
0
  0
VERTEX
  8
0
 10
2.845
 20
1.50836
 30
0.0
 40
0
 41
0
  0
VERTEX
  8
0
 10
2.845
 20
1.47949
 30
0.0
 40
0
 41
0
  0
SEQEND
 8
0
  0
POLYLINE
  8
0
 62
     250
 66
     1
 10
0
 20
0
 30
0.0
 70
     1
 40
0
 41
0
  0
VERTEX
  8
0
 10
2.88172
 20
1.46044
 30
0.0
 40
0
 41
0
  0
VERTEX
  8
0
 10
2.845
 20
1.46044
 30
0.0
 40
0
 41
0
  0
VERTEX
  8
0
 10
2.845
 20
1.41151
 30
0.0
 40
0
 41
0
  0
VERTEX
  8
0
 10
2.82254
 20
1.41151
 30
0.0
 40
0
 41
0
  0
VERTEX
  8
0
 10
2.82254
 20
1.52838
 30
0.0
 40
0
 41
0
  0
VERTEX
  8
0
 10
2.90278
 20
1.52838
 30
0.0
 40
0
 41
0
  0
VERTEX
  8
0
 10
2.90278
 20
1.41151
 30
0.0
 40
0
 41
0
  0
VERTEX
  8
0
 10
2.88172
 20
1.41151
 30
0.0
 40
0
 41
0
  0
VERTEX
  8
0
 10
2.88172
 20
1.46044
 30
0.0
 40
0
 41
0
  0
SEQEND
 8
0
  0
POLYLINE
  8
0
 62
     250
 66
     1
 10
0
 20
0
 30
0.0
 70
     1
 40
0
 41
0
  0
VERTEX
  8
0
 10
2.94943
 20
1.50836
 30
0.0
 40
0
 41
0
  0
VERTEX
  8
0
 10
2.91906
 20
1.50836
 30
0.0
 40
0
 41
0
  0
VERTEX
  8
0
 10
2.91906
 20
1.52838
 30
0.0
 40
0
 41
0
  0
VERTEX
  8
0
 10
2.99929
 20
1.52838
 30
0.0
 40
0
 41
0
  0
VERTEX
  8
0
 10
2.99929
 20
1.50836
 30
0.0
 40
0
 41
0
  0
VERTEX
  8
0
 10
2.9719
 20
1.50836
 30
0.0
 40
0
 41
0
  0
VERTEX
  8
0
 10
2.9719
 20
1.41151
 30
0.0
 40
0
 41
0
  0
VERTEX
  8
0
 10
2.94943
 20
1.41151
 30
0.0
 40
0
 41
0
  0
VERTEX
  8
0
 10
2.94943
 20
1.50836
 30
0.0
 40
0
 41
0
  0
SEQEND
 8
0
  0
POLYLINE
  8
0
 62
     250
 66
     1
 10
0
 20
0
 30
0.0
 70
     1
 40
0
 41
0
  0
VERTEX
  8
0
 10
3.03803
 20
1.50836
 30
0.0
 40
0
 41
0
  0
VERTEX
  8
0
 10
3.03803
 20
1.47949
 30
0.0
 40
0
 41
0
  0
VERTEX
  8
0
 10
3.09581
 20
1.47949
 30
0.0
 40
0
 41
0
  0
VERTEX
  8
0
 10
3.09581
 20
1.46044
 30
0.0
 40
0
 41
0
  0
VERTEX
  8
0
 10
3.03803
 20
1.46044
 30
0.0
 40
0
 41
0
  0
VERTEX
  8
0
 10
3.03803
 20
1.43153
 30
0.0
 40
0
 41
0
  0
VERTEX
  8
0
 10
3.09581
 20
1.43153
 30
0.0
 40
0
 41
0
  0
VERTEX
  8
0
 10
3.09581
 20
1.41151
 30
0.0
 40
0
 41
0
  0
VERTEX
  8
0
 10
3.01557
 20
1.41151
 30
0.0
 40
0
 41
0
  0
VERTEX
  8
0
 10
3.01557
 20
1.52838
 30
0.0
 40
0
 41
0
  0
VERTEX
  8
0
 10
3.09581
 20
1.52838
 30
0.0
 40
0
 41
0
  0
VERTEX
  8
0
 10
3.09581
 20
1.50836
 30
0.0
 40
0
 41
0
  0
VERTEX
  8
0
 10
3.03803
 20
1.50836
 30
0.0
 40
0
 41
0
  0
SEQEND
 8
0
  0
POLYLINE
  8
0
 62
     250
 66
     1
 10
0
 20
0
 30
0.0
 70
     1
 40
0
 41
0
  0
VERTEX
  8
0
 10
3.11208
 20
1.46044
 30
0.0
 40
0
 41
0
  0
VERTEX
  8
0
 10
3.11208
 20
1.52838
 30
0.0
 40
0
 41
0
  0
VERTEX
  8
0
 10
3.19233
 20
1.52838
 30
0.0
 40
0
 41
0
  0
VERTEX
  8
0
 10
3.19233
 20
1.50836
 30
0.0
 40
0
 41
0
  0
VERTEX
  8
0
 10
3.13456
 20
1.50836
 30
0.0
 40
0
 41
0
  0
VERTEX
  8
0
 10
3.13456
 20
1.47949
 30
0.0
 40
0
 41
0
  0
VERTEX
  8
0
 10
3.19233
 20
1.47949
 30
0.0
 40
0
 41
0
  0
VERTEX
  8
0
 10
3.19233
 20
1.41151
 30
0.0
 40
0
 41
0
  0
VERTEX
  8
0
 10
3.11208
 20
1.41151
 30
0.0
 40
0
 41
0
  0
VERTEX
  8
0
 10
3.11208
 20
1.43153
 30
0.0
 40
0
 41
0
  0
VERTEX
  8
0
 10
3.17128
 20
1.43153
 30
0.0
 40
0
 41
0
  0
VERTEX
  8
0
 10
3.17128
 20
1.46044
 30
0.0
 40
0
 41
0
  0
VERTEX
  8
0
 10
3.11208
 20
1.46044
 30
0.0
 40
0
 41
0
  0
SEQEND
 8
0
  0
POLYLINE
  8
0
 62
     250
 66
     1
 10
0
 20
0
 30
0.0
 70
     1
 40
0
 41
0
  0
VERTEX
  8
0
 10
1.6486
 20
1.43153
 30
0.0
 40
0
 41
0
  0
VERTEX
  8
0
 10
1.70638
 20
1.43153
 30
0.0
 40
0
 41
0
  0
VERTEX
  8
0
 10
1.70638
 20
1.41151
 30
0.0
 40
0
 41
0
  0
VERTEX
  8
0
 10
1.62614
 20
1.41151
 30
0.0
 40
0
 41
0
  0
VERTEX
  8
0
 10
1.62614
 20
1.52838
 30
0.0
 40
0
 41
0
  0
VERTEX
  8
0
 10
1.70638
 20
1.52838
 30
0.0
 40
0
 41
0
  0
VERTEX
  8
0
 10
1.70638
 20
1.50836
 30
0.0
 40
0
 41
0
  0
VERTEX
  8
0
 10
1.6486
 20
1.50836
 30
0.0
 40
0
 41
0
  0
VERTEX
  8
0
 10
1.6486
 20
1.43153
 30
0.0
 40
0
 41
0
  0
SEQEND
 8
0
  0
POLYLINE
  8
0
 62
     250
 66
     1
 10
0
 20
0
 30
0.0
 70
     1
 40
0
 41
0
  0
VERTEX
  8
0
 10
1.74511
 20
1.47949
 30
0.0
 40
0
 41
0
  0
VERTEX
  8
0
 10
1.78179
 20
1.47949
 30
0.0
 40
0
 41
0
  0
VERTEX
  8
0
 10
1.78179
 20
1.50836
 30
0.0
 40
0
 41
0
  0
VERTEX
  8
0
 10
1.74511
 20
1.50836
 30
0.0
 40
0
 41
0
  0
VERTEX
  8
0
 10
1.74511
 20
1.47949
 30
0.0
 40
0
 41
0
  0
SEQEND
 8
0
  0
POLYLINE
  8
0
 62
     250
 66
     1
 10
0
 20
0
 30
0.0
 70
     1
 40
0
 41
0
  0
VERTEX
  8
0
 10
1.78179
 20
1.46044
 30
0.0
 40
0
 41
0
  0
VERTEX
  8
0
 10
1.74511
 20
1.46044
 30
0.0
 40
0
 41
0
  0
VERTEX
  8
0
 10
1.74511
 20
1.41151
 30
0.0
 40
0
 41
0
  0
VERTEX
  8
0
 10
1.72265
 20
1.41151
 30
0.0
 40
0
 41
0
  0
VERTEX
  8
0
 10
1.72265
 20
1.52838
 30
0.0
 40
0
 41
0
  0
VERTEX
  8
0
 10
1.8029
 20
1.52838
 30
0.0
 40
0
 41
0
  0
VERTEX
  8
0
 10
1.8029
 20
1.41151
 30
0.0
 40
0
 41
0
  0
VERTEX
  8
0
 10
1.78179
 20
1.41151
 30
0.0
 40
0
 41
0
  0
VERTEX
  8
0
 10
1.78179
 20
1.46044
 30
0.0
 40
0
 41
0
  0
SEQEND
 8
0
  0
POLYLINE
  8
0
 62
     250
 66
     1
 10
0
 20
0
 30
0.0
 70
     1
 40
0
 41
0
  0
VERTEX
  8
0
 10
1.84164
 20
1.47949
 30
0.0
 40
0
 41
0
  0
VERTEX
  8
0
 10
1.87831
 20
1.47949
 30
0.0
 40
0
 41
0
  0
VERTEX
  8
0
 10
1.87831
 20
1.50836
 30
0.0
 40
0
 41
0
  0
VERTEX
  8
0
 10
1.84164
 20
1.50836
 30
0.0
 40
0
 41
0
  0
VERTEX
  8
0
 10
1.84164
 20
1.47949
 30
0.0
 40
0
 41
0
  0
SEQEND
 8
0
  0
POLYLINE
  8
0
 62
     250
 66
     1
 10
0
 20
0
 30
0.0
 70
     1
 40
0
 41
0
  0
VERTEX
  8
0
 10
1.84164
 20
1.41151
 30
0.0
 40
0
 41
0
  0
VERTEX
  8
0
 10
1.81917
 20
1.41151
 30
0.0
 40
0
 41
0
  0
VERTEX
  8
0
 10
1.81917
 20
1.52838
 30
0.0
 40
0
 41
0
  0
VERTEX
  8
0
 10
1.89942
 20
1.52838
 30
0.0
 40
0
 41
0
  0
VERTEX
  8
0
 10
1.89942
 20
1.46044
 30
0.0
 40
0
 41
0
  0
VERTEX
  8
0
 10
1.84164
 20
1.46044
 30
0.0
 40
0
 41
0
  0
VERTEX
  8
0
 10
1.84164
 20
1.41151
 30
0.0
 40
0
 41
0
  0
SEQEND
 8
0
  0
POLYLINE
  8
0
 62
     250
 66
     1
 10
0
 20
0
 30
0.0
 70
     1
 40
0
 41
0
  0
VERTEX
  8
0
 10
1.91569
 20
1.46044
 30
0.0
 40
0
 41
0
  0
VERTEX
  8
0
 10
1.91569
 20
1.52838
 30
0.0
 40
0
 41
0
  0
VERTEX
  8
0
 10
1.99593
 20
1.52838
 30
0.0
 40
0
 41
0
  0
VERTEX
  8
0
 10
1.99593
 20
1.50836
 30
0.0
 40
0
 41
0
  0
VERTEX
  8
0
 10
1.93815
 20
1.50836
 30
0.0
 40
0
 41
0
  0
VERTEX
  8
0
 10
1.93815
 20
1.47949
 30
0.0
 40
0
 41
0
  0
VERTEX
  8
0
 10
1.99593
 20
1.47949
 30
0.0
 40
0
 41
0
  0
VERTEX
  8
0
 10
1.99593
 20
1.41151
 30
0.0
 40
0
 41
0
  0
VERTEX
  8
0
 10
1.91569
 20
1.41151
 30
0.0
 40
0
 41
0
  0
VERTEX
  8
0
 10
1.91569
 20
1.43153
 30
0.0
 40
0
 41
0
  0
VERTEX
  8
0
 10
1.97483
 20
1.43153
 30
0.0
 40
0
 41
0
  0
VERTEX
  8
0
 10
1.97483
 20
1.46044
 30
0.0
 40
0
 41
0
  0
VERTEX
  8
0
 10
1.91569
 20
1.46044
 30
0.0
 40
0
 41
0
  0
SEQEND
 8
0
  0
POLYLINE
  8
0
 62
     250
 66
     1
 10
0
 20
0
 30
0.0
 70
     1
 40
0
 41
0
  0
VERTEX
  8
0
 10
0.456976
 20
1.41644
 30
0.0
 40
0
 41
0
  0
VERTEX
  8
0
 10
0.434517
 20
1.41644
 30
0.0
 40
0
 41
0
  0
VERTEX
  8
0
 10
0.434517
 20
1.53331
 30
0.0
 40
0
 41
0
  0
VERTEX
  8
0
 10
0.514757
 20
1.53331
 30
0.0
 40
0
 41
0
  0
VERTEX
  8
0
 10
0.514757
 20
1.51329
 30
0.0
 40
0
 41
0
  0
VERTEX
  8
0
 10
0.456976
 20
1.51329
 30
0.0
 40
0
 41
0
  0
VERTEX
  8
0
 10
0.456976
 20
1.48443
 30
0.0
 40
0
 41
0
  0
VERTEX
  8
0
 10
0.514757
 20
1.48443
 30
0.0
 40
0
 41
0
  0
VERTEX
  8
0
 10
0.514757
 20
1.46533
 30
0.0
 40
0
 41
0
  0
VERTEX
  8
0
 10
0.456976
 20
1.46533
 30
0.0
 40
0
 41
0
  0
VERTEX
  8
0
 10
0.456976
 20
1.41644
 30
0.0
 40
0
 41
0
  0
SEQEND
 8
0
  0
POLYLINE
  8
0
 62
     250
 66
     1
 10
0
 20
0
 30
0.0
 70
     1
 40
0
 41
0
  0
VERTEX
  8
0
 10
0.553494
 20
1.43647
 30
0.0
 40
0
 41
0
  0
VERTEX
  8
0
 10
0.611274
 20
1.43647
 30
0.0
 40
0
 41
0
  0
VERTEX
  8
0
 10
0.611274
 20
1.41644
 30
0.0
 40
0
 41
0
  0
VERTEX
  8
0
 10
0.531033
 20
1.41644
 30
0.0
 40
0
 41
0
  0
VERTEX
  8
0
 10
0.531033
 20
1.53331
 30
0.0
 40
0
 41
0
  0
VERTEX
  8
0
 10
0.553494
 20
1.53331
 30
0.0
 40
0
 41
0
  0
VERTEX
  8
0
 10
0.553494
 20
1.43647
 30
0.0
 40
0
 41
0
  0
SEQEND
 8
0
  0
POLYLINE
  8
0
 62
     250
 66
     1
 10
0
 20
0
 30
0.0
 70
     1
 40
0
 41
0
  0
VERTEX
  8
0
 10
0.650011
 20
1.48443
 30
0.0
 40
0
 41
0
  0
VERTEX
  8
0
 10
0.68674
 20
1.48443
 30
0.0
 40
0
 41
0
  0
VERTEX
  8
0
 10
0.68674
 20
1.51329
 30
0.0
 40
0
 41
0
  0
VERTEX
  8
0
 10
0.650011
 20
1.51329
 30
0.0
 40
0
 41
0
  0
VERTEX
  8
0
 10
0.650011
 20
1.48443
 30
0.0
 40
0
 41
0
  0
SEQEND
 8
0
  0
POLYLINE
  8
0
 62
     250
 66
     1
 10
0
 20
0
 30
0.0
 70
     1
 40
0
 41
0
  0
VERTEX
  8
0
 10
0.68674
 20
1.46539
 30
0.0
 40
0
 41
0
  0
VERTEX
  8
0
 10
0.650011
 20
1.46539
 30
0.0
 40
0
 41
0
  0
VERTEX
  8
0
 10
0.650011
 20
1.41644
 30
0.0
 40
0
 41
0
  0
VERTEX
  8
0
 10
0.62755
 20
1.41644
 30
0.0
 40
0
 41
0
  0
VERTEX
  8
0
 10
0.62755
 20
1.53331
 30
0.0
 40
0
 41
0
  0
VERTEX
  8
0
 10
0.70779
 20
1.53331
 30
0.0
 40
0
 41
0
  0
VERTEX
  8
0
 10
0.70779
 20
1.41644
 30
0.0
 40
0
 41
0
  0
VERTEX
  8
0
 10
0.68674
 20
1.41644
 30
0.0
 40
0
 41
0
  0
VERTEX
  8
0
 10
0.68674
 20
1.46539
 30
0.0
 40
0
 41
0
  0
SEQEND
 8
0
  0
POLYLINE
  8
0
 62
     250
 66
     1
 10
0
 20
0
 30
0.0
 70
     1
 40
0
 41
0
  0
VERTEX
  8
0
 10
0.746528
 20
1.41644
 30
0.0
 40
0
 41
0
  0
VERTEX
  8
0
 10
0.724067
 20
1.41644
 30
0.0
 40
0
 41
0
  0
VERTEX
  8
0
 10
0.724067
 20
1.53331
 30
0.0
 40
0
 41
0
  0
VERTEX
  8
0
 10
0.746528
 20
1.53331
 30
0.0
 40
0
 41
0
  0
VERTEX
  8
0
 10
0.746528
 20
1.48443
 30
0.0
 40
0
 41
0
  0
VERTEX
  8
0
 10
0.783257
 20
1.53331
 30
0.0
 40
0
 41
0
  0
VERTEX
  8
0
 10
0.804308
 20
1.53331
 30
0.0
 40
0
 41
0
  0
VERTEX
  8
0
 10
0.765192
 20
1.47635
 30
0.0
 40
0
 41
0
  0
VERTEX
  8
0
 10
0.804308
 20
1.41644
 30
0.0
 40
0
 41
0
  0
VERTEX
  8
0
 10
0.783257
 20
1.41644
 30
0.0
 40
0
 41
0
  0
VERTEX
  8
0
 10
0.746528
 20
1.46533
 30
0.0
 40
0
 41
0
  0
VERTEX
  8
0
 10
0.746528
 20
1.41644
 30
0.0
 40
0
 41
0
  0
SEQEND
 8
0
  0
POLYLINE
  8
0
 62
     250
 66
     1
 10
0
 20
0
 30
0.0
 70
     1
 40
0
 41
0
  0
VERTEX
  8
0
 10
0.843044
 20
1.51329
 30
0.0
 40
0
 41
0
  0
VERTEX
  8
0
 10
0.843044
 20
1.48443
 30
0.0
 40
0
 41
0
  0
VERTEX
  8
0
 10
0.900825
 20
1.48443
 30
0.0
 40
0
 41
0
  0
VERTEX
  8
0
 10
0.900825
 20
1.46539
 30
0.0
 40
0
 41
0
  0
VERTEX
  8
0
 10
0.843044
 20
1.46539
 30
0.0
 40
0
 41
0
  0
VERTEX
  8
0
 10
0.843044
 20
1.43647
 30
0.0
 40
0
 41
0
  0
VERTEX
  8
0
 10
0.900825
 20
1.43647
 30
0.0
 40
0
 41
0
  0
VERTEX
  8
0
 10
0.900825
 20
1.41644
 30
0.0
 40
0
 41
0
  0
VERTEX
  8
0
 10
0.820583
 20
1.41644
 30
0.0
 40
0
 41
0
  0
VERTEX
  8
0
 10
0.820583
 20
1.53331
 30
0.0
 40
0
 41
0
  0
VERTEX
  8
0
 10
0.900825
 20
1.53331
 30
0.0
 40
0
 41
0
  0
VERTEX
  8
0
 10
0.900825
 20
1.51329
 30
0.0
 40
0
 41
0
  0
VERTEX
  8
0
 10
0.843044
 20
1.51329
 30
0.0
 40
0
 41
0
  0
SEQEND
 8
0
  0
POLYLINE
  8
0
 62
     250
 66
     1
 10
0
 20
0
 30
0.0
 70
     1
 40
0
 41
0
  0
VERTEX
  8
0
 10
0.917101
 20
1.46539
 30
0.0
 40
0
 41
0
  0
VERTEX
  8
0
 10
0.917101
 20
1.53331
 30
0.0
 40
0
 41
0
  0
VERTEX
  8
0
 10
0.997342
 20
1.53331
 30
0.0
 40
0
 41
0
  0
VERTEX
  8
0
 10
0.997342
 20
1.51329
 30
0.0
 40
0
 41
0
  0
VERTEX
  8
0
 10
0.939561
 20
1.51329
 30
0.0
 40
0
 41
0
  0
VERTEX
  8
0
 10
0.939561
 20
1.48443
 30
0.0
 40
0
 41
0
  0
VERTEX
  8
0
 10
0.997342
 20
1.48443
 30
0.0
 40
0
 41
0
  0
VERTEX
  8
0
 10
0.997342
 20
1.41644
 30
0.0
 40
0
 41
0
  0
VERTEX
  8
0
 10
0.917101
 20
1.41644
 30
0.0
 40
0
 41
0
  0
VERTEX
  8
0
 10
0.917101
 20
1.43647
 30
0.0
 40
0
 41
0
  0
VERTEX
  8
0
 10
0.976292
 20
1.43647
 30
0.0
 40
0
 41
0
  0
VERTEX
  8
0
 10
0.976292
 20
1.46539
 30
0.0
 40
0
 41
0
  0
VERTEX
  8
0
 10
0.917101
 20
1.46539
 30
0.0
 40
0
 41
0
  0
SEQEND
 8
0
  0
POLYLINE
  8
0
 62
     250
 66
     1
 10
0
 20
0
 30
0.0
 70
     1
 40
0
 41
0
  0
VERTEX
  8
0
 10
2.38026
 20
0.386447
 30
0.0
 40
0
 41
0
  0
VERTEX
  8
0
 10
2.38026
 20
0.443088
 30
0.0
 40
0
 41
0
  0
VERTEX
  8
0
 10
2.44715
 20
0.443088
 30
0.0
 40
0
 41
0
  0
VERTEX
  8
0
 10
2.44715
 20
0.426378
 30
0.0
 40
0
 41
0
  0
VERTEX
  8
0
 10
2.39899
 20
0.426378
 30
0.0
 40
0
 41
0
  0
VERTEX
  8
0
 10
2.39899
 20
0.402344
 30
0.0
 40
0
 41
0
  0
VERTEX
  8
0
 10
2.44715
 20
0.402344
 30
0.0
 40
0
 41
0
  0
VERTEX
  8
0
 10
2.44715
 20
0.345649
 30
0.0
 40
0
 41
0
  0
VERTEX
  8
0
 10
2.38026
 20
0.345649
 30
0.0
 40
0
 41
0
  0
VERTEX
  8
0
 10
2.38026
 20
0.362358
 30
0.0
 40
0
 41
0
  0
VERTEX
  8
0
 10
2.42958
 20
0.362358
 30
0.0
 40
0
 41
0
  0
VERTEX
  8
0
 10
2.42958
 20
0.386447
 30
0.0
 40
0
 41
0
  0
VERTEX
  8
0
 10
2.38026
 20
0.386447
 30
0.0
 40
0
 41
0
  0
SEQEND
 8
0
  0
POLYLINE
  8
0
 62
     250
 66
     1
 10
0
 20
0
 30
0.0
 70
     1
 40
0
 41
0
  0
VERTEX
  8
0
 10
2.50999
 20
0.426378
 30
0.0
 40
0
 41
0
  0
VERTEX
  8
0
 10
2.47944
 20
0.426378
 30
0.0
 40
0
 41
0
  0
VERTEX
  8
0
 10
2.47944
 20
0.362358
 30
0.0
 40
0
 41
0
  0
VERTEX
  8
0
 10
2.50999
 20
0.362358
 30
0.0
 40
0
 41
0
  0
VERTEX
  8
0
 10
2.50999
 20
0.426378
 30
0.0
 40
0
 41
0
  0
SEQEND
 8
0
  0
POLYLINE
  8
0
 62
     250
 66
     1
 10
0
 20
0
 30
0.0
 70
     1
 40
0
 41
0
  0
VERTEX
  8
0
 10
2.52756
 20
0.345703
 30
0.0
 40
0
 41
0
  0
VERTEX
  8
0
 10
2.46072
 20
0.345703
 30
0.0
 40
0
 41
0
  0
VERTEX
  8
0
 10
2.46072
 20
0.443088
 30
0.0
 40
0
 41
0
  0
VERTEX
  8
0
 10
2.52756
 20
0.443088
 30
0.0
 40
0
 41
0
  0
VERTEX
  8
0
 10
2.52756
 20
0.345703
 30
0.0
 40
0
 41
0
  0
SEQEND
 8
0
  0
POLYLINE
  8
0
 62
     250
 66
     1
 10
0
 20
0
 30
0.0
 70
     1
 40
0
 41
0
  0
VERTEX
  8
0
 10
2.55985
 20
0.402344
 30
0.0
 40
0
 41
0
  0
VERTEX
  8
0
 10
2.59044
 20
0.402344
 30
0.0
 40
0
 41
0
  0
VERTEX
  8
0
 10
2.59044
 20
0.426378
 30
0.0
 40
0
 41
0
  0
VERTEX
  8
0
 10
2.55985
 20
0.426378
 30
0.0
 40
0
 41
0
  0
VERTEX
  8
0
 10
2.55985
 20
0.402344
 30
0.0
 40
0
 41
0
  0
SEQEND
 8
0
  0
POLYLINE
  8
0
 62
     250
 66
     1
 10
0
 20
0
 30
0.0
 70
     1
 40
0
 41
0
  0
VERTEX
  8
0
 10
2.54112
 20
0.345703
 30
0.0
 40
0
 41
0
  0
VERTEX
  8
0
 10
2.54112
 20
0.443088
 30
0.0
 40
0
 41
0
  0
VERTEX
  8
0
 10
2.60801
 20
0.443088
 30
0.0
 40
0
 41
0
  0
VERTEX
  8
0
 10
2.60801
 20
0.386447
 30
0.0
 40
0
 41
0
  0
VERTEX
  8
0
 10
2.58512
 20
0.386447
 30
0.0
 40
0
 41
0
  0
VERTEX
  8
0
 10
2.60801
 20
0.345703
 30
0.0
 40
0
 41
0
  0
VERTEX
  8
0
 10
2.59044
 20
0.345703
 30
0.0
 40
0
 41
0
  0
VERTEX
  8
0
 10
2.5664
 20
0.386447
 30
0.0
 40
0
 41
0
  0
VERTEX
  8
0
 10
2.55985
 20
0.386447
 30
0.0
 40
0
 41
0
  0
VERTEX
  8
0
 10
2.55985
 20
0.345703
 30
0.0
 40
0
 41
0
  0
VERTEX
  8
0
 10
2.54112
 20
0.345703
 30
0.0
 40
0
 41
0
  0
SEQEND
 8
0
  0
POLYLINE
  8
0
 62
     250
 66
     1
 10
0
 20
0
 30
0.0
 70
     1
 40
0
 41
0
  0
VERTEX
  8
0
 10
2.64686
 20
0.426378
 30
0.0
 40
0
 41
0
  0
VERTEX
  8
0
 10
2.62158
 20
0.426378
 30
0.0
 40
0
 41
0
  0
VERTEX
  8
0
 10
2.62158
 20
0.443088
 30
0.0
 40
0
 41
0
  0
VERTEX
  8
0
 10
2.68842
 20
0.443088
 30
0.0
 40
0
 41
0
  0
VERTEX
  8
0
 10
2.68842
 20
0.426378
 30
0.0
 40
0
 41
0
  0
VERTEX
  8
0
 10
2.66558
 20
0.426378
 30
0.0
 40
0
 41
0
  0
VERTEX
  8
0
 10
2.66558
 20
0.345649
 30
0.0
 40
0
 41
0
  0
VERTEX
  8
0
 10
2.64686
 20
0.345649
 30
0.0
 40
0
 41
0
  0
VERTEX
  8
0
 10
2.64686
 20
0.426378
 30
0.0
 40
0
 41
0
  0
SEQEND
 8
0
  0
POLYLINE
  8
0
 62
     250
 66
     1
 10
0
 20
0
 30
0.0
 70
     1
 40
0
 41
0
  0
VERTEX
  8
0
 10
2.72071
 20
0.426378
 30
0.0
 40
0
 41
0
  0
VERTEX
  8
0
 10
2.72071
 20
0.402344
 30
0.0
 40
0
 41
0
  0
VERTEX
  8
0
 10
2.76887
 20
0.402344
 30
0.0
 40
0
 41
0
  0
VERTEX
  8
0
 10
2.76887
 20
0.386447
 30
0.0
 40
0
 41
0
  0
VERTEX
  8
0
 10
2.72071
 20
0.386447
 30
0.0
 40
0
 41
0
  0
VERTEX
  8
0
 10
2.72071
 20
0.362358
 30
0.0
 40
0
 41
0
  0
VERTEX
  8
0
 10
2.76887
 20
0.362358
 30
0.0
 40
0
 41
0
  0
VERTEX
  8
0
 10
2.76887
 20
0.345649
 30
0.0
 40
0
 41
0
  0
VERTEX
  8
0
 10
2.70199
 20
0.345649
 30
0.0
 40
0
 41
0
  0
VERTEX
  8
0
 10
2.70199
 20
0.443088
 30
0.0
 40
0
 41
0
  0
VERTEX
  8
0
 10
2.76887
 20
0.443088
 30
0.0
 40
0
 41
0
  0
VERTEX
  8
0
 10
2.76887
 20
0.426378
 30
0.0
 40
0
 41
0
  0
VERTEX
  8
0
 10
2.72071
 20
0.426378
 30
0.0
 40
0
 41
0
  0
SEQEND
 8
0
  0
POLYLINE
  8
0
 62
     250
 66
     1
 10
0
 20
0
 30
0.0
 70
     1
 40
0
 41
0
  0
VERTEX
  8
0
 10
2.83171
 20
0.426378
 30
0.0
 40
0
 41
0
  0
VERTEX
  8
0
 10
2.80117
 20
0.426378
 30
0.0
 40
0
 41
0
  0
VERTEX
  8
0
 10
2.80117
 20
0.362358
 30
0.0
 40
0
 41
0
  0
VERTEX
  8
0
 10
2.83171
 20
0.362358
 30
0.0
 40
0
 41
0
  0
VERTEX
  8
0
 10
2.83171
 20
0.426378
 30
0.0
 40
0
 41
0
  0
SEQEND
 8
0
  0
POLYLINE
  8
0
 62
     250
 66
     1
 10
0
 20
0
 30
0.0
 70
     1
 40
0
 41
0
  0
VERTEX
  8
0
 10
2.78244
 20
0.345703
 30
0.0
 40
0
 41
0
  0
VERTEX
  8
0
 10
2.78244
 20
0.443088
 30
0.0
 40
0
 41
0
  0
VERTEX
  8
0
 10
2.84224
 20
0.443088
 30
0.0
 40
0
 41
0
  0
VERTEX
  8
0
 10
2.84928
 20
0.434517
 30
0.0
 40
0
 41
0
  0
VERTEX
  8
0
 10
2.84928
 20
0.354221
 30
0.0
 40
0
 41
0
  0
VERTEX
  8
0
 10
2.84229
 20
0.345703
 30
0.0
 40
0
 41
0
  0
VERTEX
  8
0
 10
2.78244
 20
0.345703
 30
0.0
 40
0
 41
0
  0
SEQEND
 8
0
  0
POLYLINE
  8
0
 62
     250
 66
     1
 10
0
 20
0
 30
0.0
 70
     1
 40
0
 41
0
  0
VERTEX
  8
0
 10
2.91601
 20
0.362358
 30
0.0
 40
0
 41
0
  0
VERTEX
  8
0
 10
2.96419
 20
0.362358
 30
0.0
 40
0
 41
0
  0
VERTEX
  8
0
 10
2.96419
 20
0.345703
 30
0.0
 40
0
 41
0
  0
VERTEX
  8
0
 10
2.89729
 20
0.345703
 30
0.0
 40
0
 41
0
  0
VERTEX
  8
0
 10
2.89729
 20
0.443088
 30
0.0
 40
0
 41
0
  0
VERTEX
  8
0
 10
2.96419
 20
0.443088
 30
0.0
 40
0
 41
0
  0
VERTEX
  8
0
 10
2.96419
 20
0.426378
 30
0.0
 40
0
 41
0
  0
VERTEX
  8
0
 10
2.91601
 20
0.426378
 30
0.0
 40
0
 41
0
  0
VERTEX
  8
0
 10
2.91601
 20
0.362358
 30
0.0
 40
0
 41
0
  0
SEQEND
 8
0
  0
POLYLINE
  8
0
 62
     250
 66
     1
 10
0
 20
0
 30
0.0
 70
     1
 40
0
 41
0
  0
VERTEX
  8
0
 10
2.99647
 20
0.402344
 30
0.0
 40
0
 41
0
  0
VERTEX
  8
0
 10
3.02701
 20
0.402344
 30
0.0
 40
0
 41
0
  0
VERTEX
  8
0
 10
3.02701
 20
0.426378
 30
0.0
 40
0
 41
0
  0
VERTEX
  8
0
 10
2.99647
 20
0.426378
 30
0.0
 40
0
 41
0
  0
VERTEX
  8
0
 10
2.99647
 20
0.402344
 30
0.0
 40
0
 41
0
  0
SEQEND
 8
0
  0
POLYLINE
  8
0
 62
     250
 66
     1
 10
0
 20
0
 30
0.0
 70
     1
 40
0
 41
0
  0
VERTEX
  8
0
 10
2.97775
 20
0.345703
 30
0.0
 40
0
 41
0
  0
VERTEX
  8
0
 10
2.97775
 20
0.443088
 30
0.0
 40
0
 41
0
  0
VERTEX
  8
0
 10
3.0446
 20
0.443088
 30
0.0
 40
0
 41
0
  0
VERTEX
  8
0
 10
3.0446
 20
0.386447
 30
0.0
 40
0
 41
0
  0
VERTEX
  8
0
 10
3.02175
 20
0.386447
 30
0.0
 40
0
 41
0
  0
VERTEX
  8
0
 10
3.0446
 20
0.345703
 30
0.0
 40
0
 41
0
  0
VERTEX
  8
0
 10
3.02701
 20
0.345703
 30
0.0
 40
0
 41
0
  0
VERTEX
  8
0
 10
3.00304
 20
0.386447
 30
0.0
 40
0
 41
0
  0
VERTEX
  8
0
 10
2.99647
 20
0.386447
 30
0.0
 40
0
 41
0
  0
VERTEX
  8
0
 10
2.99647
 20
0.345703
 30
0.0
 40
0
 41
0
  0
VERTEX
  8
0
 10
2.97775
 20
0.345703
 30
0.0
 40
0
 41
0
  0
SEQEND
 8
0
  0
POLYLINE
  8
0
 62
     250
 66
     1
 10
0
 20
0
 30
0.0
 70
     1
 40
0
 41
0
  0
VERTEX
  8
0
 10
3.07688
 20
0.402344
 30
0.0
 40
0
 41
0
  0
VERTEX
  8
0
 10
3.10747
 20
0.402344
 30
0.0
 40
0
 41
0
  0
VERTEX
  8
0
 10
3.10747
 20
0.426378
 30
0.0
 40
0
 41
0
  0
VERTEX
  8
0
 10
3.07688
 20
0.426378
 30
0.0
 40
0
 41
0
  0
VERTEX
  8
0
 10
3.07688
 20
0.402344
 30
0.0
 40
0
 41
0
  0
SEQEND
 8
0
  0
POLYLINE
  8
0
 62
     250
 66
     1
 10
0
 20
0
 30
0.0
 70
     1
 40
0
 41
0
  0
VERTEX
  8
0
 10
3.10747
 20
0.386447
 30
0.0
 40
0
 41
0
  0
VERTEX
  8
0
 10
3.07688
 20
0.386447
 30
0.0
 40
0
 41
0
  0
VERTEX
  8
0
 10
3.07688
 20
0.345703
 30
0.0
 40
0
 41
0
  0
VERTEX
  8
0
 10
3.05817
 20
0.345703
 30
0.0
 40
0
 41
0
  0
VERTEX
  8
0
 10
3.05817
 20
0.443088
 30
0.0
 40
0
 41
0
  0
VERTEX
  8
0
 10
3.12506
 20
0.443088
 30
0.0
 40
0
 41
0
  0
VERTEX
  8
0
 10
3.12506
 20
0.345703
 30
0.0
 40
0
 41
0
  0
VERTEX
  8
0
 10
3.10747
 20
0.345703
 30
0.0
 40
0
 41
0
  0
VERTEX
  8
0
 10
3.10747
 20
0.386447
 30
0.0
 40
0
 41
0
  0
SEQEND
 8
0
  0
POLYLINE
  8
0
 62
     250
 66
     1
 10
0
 20
0
 30
0.0
 70
     1
 40
0
 41
0
  0
VERTEX
  8
0
 10
3.1639
 20
0.426378
 30
0.0
 40
0
 41
0
  0
VERTEX
  8
0
 10
3.13861
 20
0.426378
 30
0.0
 40
0
 41
0
  0
VERTEX
  8
0
 10
3.13861
 20
0.443088
 30
0.0
 40
0
 41
0
  0
VERTEX
  8
0
 10
3.20546
 20
0.443088
 30
0.0
 40
0
 41
0
  0
VERTEX
  8
0
 10
3.20546
 20
0.426378
 30
0.0
 40
0
 41
0
  0
VERTEX
  8
0
 10
3.18261
 20
0.426378
 30
0.0
 40
0
 41
0
  0
VERTEX
  8
0
 10
3.18261
 20
0.345649
 30
0.0
 40
0
 41
0
  0
VERTEX
  8
0
 10
3.1639
 20
0.345649
 30
0.0
 40
0
 41
0
  0
VERTEX
  8
0
 10
3.1639
 20
0.426378
 30
0.0
 40
0
 41
0
  0
SEQEND
 8
0
  0
POLYLINE
  8
0
 62
     250
 66
     1
 10
0
 20
0
 30
0.0
 70
     1
 40
0
 41
0
  0
VERTEX
  8
0
 10
3.23774
 20
0.426378
 30
0.0
 40
0
 41
0
  0
VERTEX
  8
0
 10
3.23774
 20
0.402344
 30
0.0
 40
0
 41
0
  0
VERTEX
  8
0
 10
3.28592
 20
0.402344
 30
0.0
 40
0
 41
0
  0
VERTEX
  8
0
 10
3.28592
 20
0.386447
 30
0.0
 40
0
 41
0
  0
VERTEX
  8
0
 10
3.23774
 20
0.386447
 30
0.0
 40
0
 41
0
  0
VERTEX
  8
0
 10
3.23774
 20
0.362358
 30
0.0
 40
0
 41
0
  0
VERTEX
  8
0
 10
3.28592
 20
0.362358
 30
0.0
 40
0
 41
0
  0
VERTEX
  8
0
 10
3.28592
 20
0.345649
 30
0.0
 40
0
 41
0
  0
VERTEX
  8
0
 10
3.21903
 20
0.345649
 30
0.0
 40
0
 41
0
  0
VERTEX
  8
0
 10
3.21903
 20
0.443088
 30
0.0
 40
0
 41
0
  0
VERTEX
  8
0
 10
3.28592
 20
0.443088
 30
0.0
 40
0
 41
0
  0
VERTEX
  8
0
 10
3.28592
 20
0.426378
 30
0.0
 40
0
 41
0
  0
VERTEX
  8
0
 10
3.23774
 20
0.426378
 30
0.0
 40
0
 41
0
  0
SEQEND
 8
0
  0
POLYLINE
  8
0
 62
     250
 66
     1
 10
0
 20
0
 30
0.0
 70
     1
 40
0
 41
0
  0
VERTEX
  8
0
 10
3.29949
 20
0.386447
 30
0.0
 40
0
 41
0
  0
VERTEX
  8
0
 10
3.29949
 20
0.443088
 30
0.0
 40
0
 41
0
  0
VERTEX
  8
0
 10
3.36632
 20
0.443088
 30
0.0
 40
0
 41
0
  0
VERTEX
  8
0
 10
3.36632
 20
0.426378
 30
0.0
 40
0
 41
0
  0
VERTEX
  8
0
 10
3.31819
 20
0.426378
 30
0.0
 40
0
 41
0
  0
VERTEX
  8
0
 10
3.31819
 20
0.402344
 30
0.0
 40
0
 41
0
  0
VERTEX
  8
0
 10
3.36632
 20
0.402344
 30
0.0
 40
0
 41
0
  0
VERTEX
  8
0
 10
3.36632
 20
0.345649
 30
0.0
 40
0
 41
0
  0
VERTEX
  8
0
 10
3.29949
 20
0.345649
 30
0.0
 40
0
 41
0
  0
VERTEX
  8
0
 10
3.29949
 20
0.362358
 30
0.0
 40
0
 41
0
  0
VERTEX
  8
0
 10
3.34874
 20
0.362358
 30
0.0
 40
0
 41
0
  0
VERTEX
  8
0
 10
3.34874
 20
0.386447
 30
0.0
 40
0
 41
0
  0
VERTEX
  8
0
 10
3.29949
 20
0.386447
 30
0.0
 40
0
 41
0
  0
SEQEND
 8
0
  0
POLYLINE
  8
0
 62
     250
 66
     1
 10
0
 20
0
 30
0.0
 70
     1
 40
0
 41
0
  0
VERTEX
  8
0
 10
1.39844
 20
0.386447
 30
0.0
 40
0
 41
0
  0
VERTEX
  8
0
 10
1.39844
 20
0.443088
 30
0.0
 40
0
 41
0
  0
VERTEX
  8
0
 10
1.46528
 20
0.443088
 30
0.0
 40
0
 41
0
  0
VERTEX
  8
0
 10
1.46528
 20
0.426378
 30
0.0
 40
0
 41
0
  0
VERTEX
  8
0
 10
1.41715
 20
0.426378
 30
0.0
 40
0
 41
0
  0
VERTEX
  8
0
 10
1.41715
 20
0.402344
 30
0.0
 40
0
 41
0
  0
VERTEX
  8
0
 10
1.46528
 20
0.402344
 30
0.0
 40
0
 41
0
  0
VERTEX
  8
0
 10
1.46528
 20
0.345649
 30
0.0
 40
0
 41
0
  0
VERTEX
  8
0
 10
1.39844
 20
0.345649
 30
0.0
 40
0
 41
0
  0
VERTEX
  8
0
 10
1.39844
 20
0.362358
 30
0.0
 40
0
 41
0
  0
VERTEX
  8
0
 10
1.44775
 20
0.362358
 30
0.0
 40
0
 41
0
  0
VERTEX
  8
0
 10
1.44775
 20
0.386447
 30
0.0
 40
0
 41
0
  0
VERTEX
  8
0
 10
1.39844
 20
0.386447
 30
0.0
 40
0
 41
0
  0
SEQEND
 8
0
  0
POLYLINE
  8
0
 62
     250
 66
     1
 10
0
 20
0
 30
0.0
 70
     1
 40
0
 41
0
  0
VERTEX
  8
0
 10
1.52815
 20
0.426378
 30
0.0
 40
0
 41
0
  0
VERTEX
  8
0
 10
1.49756
 20
0.426378
 30
0.0
 40
0
 41
0
  0
VERTEX
  8
0
 10
1.49756
 20
0.362358
 30
0.0
 40
0
 41
0
  0
VERTEX
  8
0
 10
1.52815
 20
0.362358
 30
0.0
 40
0
 41
0
  0
VERTEX
  8
0
 10
1.52815
 20
0.426378
 30
0.0
 40
0
 41
0
  0
SEQEND
 8
0
  0
POLYLINE
  8
0
 62
     250
 66
     1
 10
0
 20
0
 30
0.0
 70
     1
 40
0
 41
0
  0
VERTEX
  8
0
 10
1.54574
 20
0.345703
 30
0.0
 40
0
 41
0
  0
VERTEX
  8
0
 10
1.47885
 20
0.345703
 30
0.0
 40
0
 41
0
  0
VERTEX
  8
0
 10
1.47885
 20
0.443088
 30
0.0
 40
0
 41
0
  0
VERTEX
  8
0
 10
1.54574
 20
0.443088
 30
0.0
 40
0
 41
0
  0
VERTEX
  8
0
 10
1.54574
 20
0.345703
 30
0.0
 40
0
 41
0
  0
SEQEND
 8
0
  0
POLYLINE
  8
0
 62
     250
 66
     1
 10
0
 20
0
 30
0.0
 70
     1
 40
0
 41
0
  0
VERTEX
  8
0
 10
1.57801
 20
0.402344
 30
0.0
 40
0
 41
0
  0
VERTEX
  8
0
 10
1.60856
 20
0.402344
 30
0.0
 40
0
 41
0
  0
VERTEX
  8
0
 10
1.60856
 20
0.426378
 30
0.0
 40
0
 41
0
  0
VERTEX
  8
0
 10
1.57801
 20
0.426378
 30
0.0
 40
0
 41
0
  0
VERTEX
  8
0
 10
1.57801
 20
0.402344
 30
0.0
 40
0
 41
0
  0
SEQEND
 8
0
  0
POLYLINE
  8
0
 62
     250
 66
     1
 10
0
 20
0
 30
0.0
 70
     1
 40
0
 41
0
  0
VERTEX
  8
0
 10
1.55931
 20
0.345703
 30
0.0
 40
0
 41
0
  0
VERTEX
  8
0
 10
1.55931
 20
0.443088
 30
0.0
 40
0
 41
0
  0
VERTEX
  8
0
 10
1.62614
 20
0.443088
 30
0.0
 40
0
 41
0
  0
VERTEX
  8
0
 10
1.62614
 20
0.386447
 30
0.0
 40
0
 41
0
  0
VERTEX
  8
0
 10
1.60331
 20
0.386447
 30
0.0
 40
0
 41
0
  0
VERTEX
  8
0
 10
1.62614
 20
0.345703
 30
0.0
 40
0
 41
0
  0
VERTEX
  8
0
 10
1.60856
 20
0.345703
 30
0.0
 40
0
 41
0
  0
VERTEX
  8
0
 10
1.58458
 20
0.386447
 30
0.0
 40
0
 41
0
  0
VERTEX
  8
0
 10
1.57801
 20
0.386447
 30
0.0
 40
0
 41
0
  0
VERTEX
  8
0
 10
1.57801
 20
0.345703
 30
0.0
 40
0
 41
0
  0
VERTEX
  8
0
 10
1.55931
 20
0.345703
 30
0.0
 40
0
 41
0
  0
SEQEND
 8
0
  0
POLYLINE
  8
0
 62
     250
 66
     1
 10
0
 20
0
 30
0.0
 70
     1
 40
0
 41
0
  0
VERTEX
  8
0
 10
1.66504
 20
0.426378
 30
0.0
 40
0
 41
0
  0
VERTEX
  8
0
 10
1.63971
 20
0.426378
 30
0.0
 40
0
 41
0
  0
VERTEX
  8
0
 10
1.63971
 20
0.443088
 30
0.0
 40
0
 41
0
  0
VERTEX
  8
0
 10
1.7066
 20
0.443088
 30
0.0
 40
0
 41
0
  0
VERTEX
  8
0
 10
1.7066
 20
0.426378
 30
0.0
 40
0
 41
0
  0
VERTEX
  8
0
 10
1.68375
 20
0.426378
 30
0.0
 40
0
 41
0
  0
VERTEX
  8
0
 10
1.68375
 20
0.345649
 30
0.0
 40
0
 41
0
  0
VERTEX
  8
0
 10
1.66504
 20
0.345649
 30
0.0
 40
0
 41
0
  0
VERTEX
  8
0
 10
1.66504
 20
0.426378
 30
0.0
 40
0
 41
0
  0
SEQEND
 8
0
  0
POLYLINE
  8
0
 62
     250
 66
     1
 10
0
 20
0
 30
0.0
 70
     1
 40
0
 41
0
  0
VERTEX
  8
0
 10
1.73887
 20
0.426378
 30
0.0
 40
0
 41
0
  0
VERTEX
  8
0
 10
1.73887
 20
0.402344
 30
0.0
 40
0
 41
0
  0
VERTEX
  8
0
 10
1.787
 20
0.402344
 30
0.0
 40
0
 41
0
  0
VERTEX
  8
0
 10
1.787
 20
0.386447
 30
0.0
 40
0
 41
0
  0
VERTEX
  8
0
 10
1.73887
 20
0.386447
 30
0.0
 40
0
 41
0
  0
VERTEX
  8
0
 10
1.73887
 20
0.362358
 30
0.0
 40
0
 41
0
  0
VERTEX
  8
0
 10
1.787
 20
0.362358
 30
0.0
 40
0
 41
0
  0
VERTEX
  8
0
 10
1.787
 20
0.345649
 30
0.0
 40
0
 41
0
  0
VERTEX
  8
0
 10
1.72017
 20
0.345649
 30
0.0
 40
0
 41
0
  0
VERTEX
  8
0
 10
1.72017
 20
0.443088
 30
0.0
 40
0
 41
0
  0
VERTEX
  8
0
 10
1.787
 20
0.443088
 30
0.0
 40
0
 41
0
  0
VERTEX
  8
0
 10
1.787
 20
0.426378
 30
0.0
 40
0
 41
0
  0
VERTEX
  8
0
 10
1.73887
 20
0.426378
 30
0.0
 40
0
 41
0
  0
SEQEND
 8
0
  0
POLYLINE
  8
0
 62
     250
 66
     1
 10
0
 20
0
 30
0.0
 70
     1
 40
0
 41
0
  0
VERTEX
  8
0
 10
1.84987
 20
0.426378
 30
0.0
 40
0
 41
0
  0
VERTEX
  8
0
 10
1.81928
 20
0.426378
 30
0.0
 40
0
 41
0
  0
VERTEX
  8
0
 10
1.81928
 20
0.362358
 30
0.0
 40
0
 41
0
  0
VERTEX
  8
0
 10
1.84987
 20
0.362358
 30
0.0
 40
0
 41
0
  0
VERTEX
  8
0
 10
1.84987
 20
0.426378
 30
0.0
 40
0
 41
0
  0
SEQEND
 8
0
  0
POLYLINE
  8
0
 62
     250
 66
     1
 10
0
 20
0
 30
0.0
 70
     1
 40
0
 41
0
  0
VERTEX
  8
0
 10
1.80057
 20
0.345703
 30
0.0
 40
0
 41
0
  0
VERTEX
  8
0
 10
1.80057
 20
0.443088
 30
0.0
 40
0
 41
0
  0
VERTEX
  8
0
 10
1.8604
 20
0.443088
 30
0.0
 40
0
 41
0
  0
VERTEX
  8
0
 10
1.86746
 20
0.434517
 30
0.0
 40
0
 41
0
  0
VERTEX
  8
0
 10
1.86746
 20
0.354221
 30
0.0
 40
0
 41
0
  0
VERTEX
  8
0
 10
1.86046
 20
0.345703
 30
0.0
 40
0
 41
0
  0
VERTEX
  8
0
 10
1.80057
 20
0.345703
 30
0.0
 40
0
 41
0
  0
SEQEND
 8
0
  0
POLYLINE
  8
0
 62
     250
 66
     1
 10
0
 20
0
 30
0.0
 70
     1
 40
0
 41
0
  0
VERTEX
  8
0
 10
1.93419
 20
0.362358
 30
0.0
 40
0
 41
0
  0
VERTEX
  8
0
 10
1.98232
 20
0.362358
 30
0.0
 40
0
 41
0
  0
VERTEX
  8
0
 10
1.98232
 20
0.345703
 30
0.0
 40
0
 41
0
  0
VERTEX
  8
0
 10
1.91547
 20
0.345703
 30
0.0
 40
0
 41
0
  0
VERTEX
  8
0
 10
1.91547
 20
0.443088
 30
0.0
 40
0
 41
0
  0
VERTEX
  8
0
 10
1.98232
 20
0.443088
 30
0.0
 40
0
 41
0
  0
VERTEX
  8
0
 10
1.98232
 20
0.426378
 30
0.0
 40
0
 41
0
  0
VERTEX
  8
0
 10
1.93419
 20
0.426378
 30
0.0
 40
0
 41
0
  0
VERTEX
  8
0
 10
1.93419
 20
0.362358
 30
0.0
 40
0
 41
0
  0
SEQEND
 8
0
  0
POLYLINE
  8
0
 62
     250
 66
     1
 10
0
 20
0
 30
0.0
 70
     1
 40
0
 41
0
  0
VERTEX
  8
0
 10
2.0146
 20
0.402344
 30
0.0
 40
0
 41
0
  0
VERTEX
  8
0
 10
2.04519
 20
0.402344
 30
0.0
 40
0
 41
0
  0
VERTEX
  8
0
 10
2.04519
 20
0.426378
 30
0.0
 40
0
 41
0
  0
VERTEX
  8
0
 10
2.0146
 20
0.426378
 30
0.0
 40
0
 41
0
  0
VERTEX
  8
0
 10
2.0146
 20
0.402344
 30
0.0
 40
0
 41
0
  0
SEQEND
 8
0
  0
POLYLINE
  8
0
 62
     250
 66
     1
 10
0
 20
0
 30
0.0
 70
     1
 40
0
 41
0
  0
VERTEX
  8
0
 10
2.04519
 20
0.386447
 30
0.0
 40
0
 41
0
  0
VERTEX
  8
0
 10
2.0146
 20
0.386447
 30
0.0
 40
0
 41
0
  0
VERTEX
  8
0
 10
2.0146
 20
0.345703
 30
0.0
 40
0
 41
0
  0
VERTEX
  8
0
 10
1.99588
 20
0.345703
 30
0.0
 40
0
 41
0
  0
VERTEX
  8
0
 10
1.99588
 20
0.443088
 30
0.0
 40
0
 41
0
  0
VERTEX
  8
0
 10
2.06278
 20
0.443088
 30
0.0
 40
0
 41
0
  0
VERTEX
  8
0
 10
2.06278
 20
0.345703
 30
0.0
 40
0
 41
0
  0
VERTEX
  8
0
 10
2.04519
 20
0.345703
 30
0.0
 40
0
 41
0
  0
VERTEX
  8
0
 10
2.04519
 20
0.386447
 30
0.0
 40
0
 41
0
  0
SEQEND
 8
0
  0
POLYLINE
  8
0
 62
     250
 66
     1
 10
0
 20
0
 30
0.0
 70
     1
 40
0
 41
0
  0
VERTEX
  8
0
 10
2.09506
 20
0.402344
 30
0.0
 40
0
 41
0
  0
VERTEX
  8
0
 10
2.12565
 20
0.402344
 30
0.0
 40
0
 41
0
  0
VERTEX
  8
0
 10
2.12565
 20
0.426378
 30
0.0
 40
0
 41
0
  0
VERTEX
  8
0
 10
2.09506
 20
0.426378
 30
0.0
 40
0
 41
0
  0
VERTEX
  8
0
 10
2.09506
 20
0.402344
 30
0.0
 40
0
 41
0
  0
SEQEND
 8
0
  0
POLYLINE
  8
0
 62
     250
 66
     1
 10
0
 20
0
 30
0.0
 70
     1
 40
0
 41
0
  0
VERTEX
  8
0
 10
2.09506
 20
0.345703
 30
0.0
 40
0
 41
0
  0
VERTEX
  8
0
 10
2.07633
 20
0.345703
 30
0.0
 40
0
 41
0
  0
VERTEX
  8
0
 10
2.07633
 20
0.443088
 30
0.0
 40
0
 41
0
  0
VERTEX
  8
0
 10
2.14318
 20
0.443088
 30
0.0
 40
0
 41
0
  0
VERTEX
  8
0
 10
2.14318
 20
0.386447
 30
0.0
 40
0
 41
0
  0
VERTEX
  8
0
 10
2.09506
 20
0.386447
 30
0.0
 40
0
 41
0
  0
VERTEX
  8
0
 10
2.09506
 20
0.345703
 30
0.0
 40
0
 41
0
  0
SEQEND
 8
0
  0
POLYLINE
  8
0
 62
     250
 66
     1
 10
0
 20
0
 30
0.0
 70
     1
 40
0
 41
0
  0
VERTEX
  8
0
 10
2.15674
 20
0.386447
 30
0.0
 40
0
 41
0
  0
VERTEX
  8
0
 10
2.15674
 20
0.443088
 30
0.0
 40
0
 41
0
  0
VERTEX
  8
0
 10
2.22364
 20
0.443088
 30
0.0
 40
0
 41
0
  0
VERTEX
  8
0
 10
2.22364
 20
0.426378
 30
0.0
 40
0
 41
0
  0
VERTEX
  8
0
 10
2.17546
 20
0.426378
 30
0.0
 40
0
 41
0
  0
VERTEX
  8
0
 10
2.17546
 20
0.402344
 30
0.0
 40
0
 41
0
  0
VERTEX
  8
0
 10
2.22364
 20
0.402344
 30
0.0
 40
0
 41
0
  0
VERTEX
  8
0
 10
2.22364
 20
0.345649
 30
0.0
 40
0
 41
0
  0
VERTEX
  8
0
 10
2.15674
 20
0.345649
 30
0.0
 40
0
 41
0
  0
VERTEX
  8
0
 10
2.15674
 20
0.362358
 30
0.0
 40
0
 41
0
  0
VERTEX
  8
0
 10
2.20606
 20
0.362358
 30
0.0
 40
0
 41
0
  0
VERTEX
  8
0
 10
2.20606
 20
0.386447
 30
0.0
 40
0
 41
0
  0
VERTEX
  8
0
 10
2.15674
 20
0.386447
 30
0.0
 40
0
 41
0
  0
SEQEND
 8
0
  0
POLYLINE
  8
0
 62
     250
 66
     1
 10
0
 20
0
 30
0.0
 70
     1
 40
0
 41
0
  0
VERTEX
  8
0
 10
0.255046
 20
0.378526
 30
0.0
 40
0
 41
0
  0
VERTEX
  8
0
 10
0.255046
 20
0.435167
 30
0.0
 40
0
 41
0
  0
VERTEX
  8
0
 10
0.32194
 20
0.435167
 30
0.0
 40
0
 41
0
  0
VERTEX
  8
0
 10
0.32194
 20
0.418457
 30
0.0
 40
0
 41
0
  0
VERTEX
  8
0
 10
0.273762
 20
0.418457
 30
0.0
 40
0
 41
0
  0
VERTEX
  8
0
 10
0.273762
 20
0.394368
 30
0.0
 40
0
 41
0
  0
VERTEX
  8
0
 10
0.32194
 20
0.394368
 30
0.0
 40
0
 41
0
  0
VERTEX
  8
0
 10
0.32194
 20
0.337728
 30
0.0
 40
0
 41
0
  0
VERTEX
  8
0
 10
0.255046
 20
0.337728
 30
0.0
 40
0
 41
0
  0
VERTEX
  8
0
 10
0.255046
 20
0.354438
 30
0.0
 40
0
 41
0
  0
VERTEX
  8
0
 10
0.304363
 20
0.354438
 30
0.0
 40
0
 41
0
  0
VERTEX
  8
0
 10
0.304363
 20
0.378526
 30
0.0
 40
0
 41
0
  0
VERTEX
  8
0
 10
0.255046
 20
0.378526
 30
0.0
 40
0
 41
0
  0
SEQEND
 8
0
  0
POLYLINE
  8
0
 62
     250
 66
     1
 10
0
 20
0
 30
0.0
 70
     1
 40
0
 41
0
  0
VERTEX
  8
0
 10
0.384819
 20
0.418457
 30
0.0
 40
0
 41
0
  0
VERTEX
  8
0
 10
0.354221
 20
0.418457
 30
0.0
 40
0
 41
0
  0
VERTEX
  8
0
 10
0.354221
 20
0.354438
 30
0.0
 40
0
 41
0
  0
VERTEX
  8
0
 10
0.384819
 20
0.354438
 30
0.0
 40
0
 41
0
  0
VERTEX
  8
0
 10
0.384819
 20
0.418457
 30
0.0
 40
0
 41
0
  0
SEQEND
 8
0
  0
POLYLINE
  8
0
 62
     250
 66
     1
 10
0
 20
0
 30
0.0
 70
     1
 40
0
 41
0
  0
VERTEX
  8
0
 10
0.402344
 20
0.337782
 30
0.0
 40
0
 41
0
  0
VERTEX
  8
0
 10
0.335504
 20
0.337782
 30
0.0
 40
0
 41
0
  0
VERTEX
  8
0
 10
0.335504
 20
0.435167
 30
0.0
 40
0
 41
0
  0
VERTEX
  8
0
 10
0.402344
 20
0.435167
 30
0.0
 40
0
 41
0
  0
VERTEX
  8
0
 10
0.402344
 20
0.337782
 30
0.0
 40
0
 41
0
  0
SEQEND
 8
0
  0
POLYLINE
  8
0
 62
     250
 66
     1
 10
0
 20
0
 30
0.0
 70
     1
 40
0
 41
0
  0
VERTEX
  8
0
 10
0.434625
 20
0.394368
 30
0.0
 40
0
 41
0
  0
VERTEX
  8
0
 10
0.465224
 20
0.394368
 30
0.0
 40
0
 41
0
  0
VERTEX
  8
0
 10
0.465224
 20
0.418457
 30
0.0
 40
0
 41
0
  0
VERTEX
  8
0
 10
0.434625
 20
0.418457
 30
0.0
 40
0
 41
0
  0
VERTEX
  8
0
 10
0.434625
 20
0.394368
 30
0.0
 40
0
 41
0
  0
SEQEND
 8
0
  0
POLYLINE
  8
0
 62
     250
 66
     1
 10
0
 20
0
 30
0.0
 70
     1
 40
0
 41
0
  0
VERTEX
  8
0
 10
0.415907
 20
0.337782
 30
0.0
 40
0
 41
0
  0
VERTEX
  8
0
 10
0.415907
 20
0.435113
 30
0.0
 40
0
 41
0
  0
VERTEX
  8
0
 10
0.482801
 20
0.435113
 30
0.0
 40
0
 41
0
  0
VERTEX
  8
0
 10
0.482801
 20
0.378526
 30
0.0
 40
0
 41
0
  0
VERTEX
  8
0
 10
0.459961
 20
0.378526
 30
0.0
 40
0
 41
0
  0
VERTEX
  8
0
 10
0.482801
 20
0.337782
 30
0.0
 40
0
 41
0
  0
VERTEX
  8
0
 10
0.465224
 20
0.337782
 30
0.0
 40
0
 41
0
  0
VERTEX
  8
0
 10
0.441243
 20
0.378526
 30
0.0
 40
0
 41
0
  0
VERTEX
  8
0
 10
0.434625
 20
0.378526
 30
0.0
 40
0
 41
0
  0
VERTEX
  8
0
 10
0.434625
 20
0.337782
 30
0.0
 40
0
 41
0
  0
VERTEX
  8
0
 10
0.415907
 20
0.337782
 30
0.0
 40
0
 41
0
  0
SEQEND
 8
0
  0
POLYLINE
  8
0
 62
     250
 66
     1
 10
0
 20
0
 30
0.0
 70
     1
 40
0
 41
0
  0
VERTEX
  8
0
 10
0.521647
 20
0.418457
 30
0.0
 40
0
 41
0
  0
VERTEX
  8
0
 10
0.496365
 20
0.418457
 30
0.0
 40
0
 41
0
  0
VERTEX
  8
0
 10
0.496365
 20
0.435167
 30
0.0
 40
0
 41
0
  0
VERTEX
  8
0
 10
0.563206
 20
0.435167
 30
0.0
 40
0
 41
0
  0
VERTEX
  8
0
 10
0.563206
 20
0.418457
 30
0.0
 40
0
 41
0
  0
VERTEX
  8
0
 10
0.540365
 20
0.418457
 30
0.0
 40
0
 41
0
  0
VERTEX
  8
0
 10
0.540365
 20
0.337728
 30
0.0
 40
0
 41
0
  0
VERTEX
  8
0
 10
0.521647
 20
0.337728
 30
0.0
 40
0
 41
0
  0
VERTEX
  8
0
 10
0.521647
 20
0.418457
 30
0.0
 40
0
 41
0
  0
SEQEND
 8
0
  0
POLYLINE
  8
0
 62
     250
 66
     1
 10
0
 20
0
 30
0.0
 70
     1
 40
0
 41
0
  0
VERTEX
  8
0
 10
0.595486
 20
0.418457
 30
0.0
 40
0
 41
0
  0
VERTEX
  8
0
 10
0.595486
 20
0.394368
 30
0.0
 40
0
 41
0
  0
VERTEX
  8
0
 10
0.643664
 20
0.394368
 30
0.0
 40
0
 41
0
  0
VERTEX
  8
0
 10
0.643664
 20
0.378526
 30
0.0
 40
0
 41
0
  0
VERTEX
  8
0
 10
0.595486
 20
0.378526
 30
0.0
 40
0
 41
0
  0
VERTEX
  8
0
 10
0.595486
 20
0.354438
 30
0.0
 40
0
 41
0
  0
VERTEX
  8
0
 10
0.643664
 20
0.354438
 30
0.0
 40
0
 41
0
  0
VERTEX
  8
0
 10
0.643664
 20
0.337728
 30
0.0
 40
0
 41
0
  0
VERTEX
  8
0
 10
0.576768
 20
0.337728
 30
0.0
 40
0
 41
0
  0
VERTEX
  8
0
 10
0.576768
 20
0.435167
 30
0.0
 40
0
 41
0
  0
VERTEX
  8
0
 10
0.643664
 20
0.435167
 30
0.0
 40
0
 41
0
  0
VERTEX
  8
0
 10
0.643664
 20
0.418457
 30
0.0
 40
0
 41
0
  0
VERTEX
  8
0
 10
0.595486
 20
0.418457
 30
0.0
 40
0
 41
0
  0
SEQEND
 8
0
  0
POLYLINE
  8
0
 62
     250
 66
     1
 10
0
 20
0
 30
0.0
 70
     1
 40
0
 41
0
  0
VERTEX
  8
0
 10
0.706543
 20
0.418457
 30
0.0
 40
0
 41
0
  0
VERTEX
  8
0
 10
0.675944
 20
0.418457
 30
0.0
 40
0
 41
0
  0
VERTEX
  8
0
 10
0.675944
 20
0.354438
 30
0.0
 40
0
 41
0
  0
VERTEX
  8
0
 10
0.706543
 20
0.354438
 30
0.0
 40
0
 41
0
  0
VERTEX
  8
0
 10
0.706543
 20
0.418457
 30
0.0
 40
0
 41
0
  0
SEQEND
 8
0
  0
POLYLINE
  8
0
 62
     250
 66
     1
 10
0
 20
0
 30
0.0
 70
     1
 40
0
 41
0
  0
VERTEX
  8
0
 10
0.657226
 20
0.337782
 30
0.0
 40
0
 41
0
  0
VERTEX
  8
0
 10
0.657226
 20
0.435113
 30
0.0
 40
0
 41
0
  0
VERTEX
  8
0
 10
0.717014
 20
0.435113
 30
0.0
 40
0
 41
0
  0
VERTEX
  8
0
 10
0.724067
 20
0.426594
 30
0.0
 40
0
 41
0
  0
VERTEX
  8
0
 10
0.724067
 20
0.3463
 30
0.0
 40
0
 41
0
  0
VERTEX
  8
0
 10
0.717122
 20
0.337782
 30
0.0
 40
0
 41
0
  0
VERTEX
  8
0
 10
0.657226
 20
0.337782
 30
0.0
 40
0
 41
0
  0
SEQEND
 8
0
  0
POLYLINE
  8
0
 62
     250
 66
     1
 10
0
 20
0
 30
0.0
 70
     1
 40
0
 41
0
  0
VERTEX
  8
0
 10
0.790799
 20
0.337782
 30
0.0
 40
0
 41
0
  0
VERTEX
  8
0
 10
0.772081
 20
0.337782
 30
0.0
 40
0
 41
0
  0
VERTEX
  8
0
 10
0.772081
 20
0.435167
 30
0.0
 40
0
 41
0
  0
VERTEX
  8
0
 10
0.838976
 20
0.435167
 30
0.0
 40
0
 41
0
  0
VERTEX
  8
0
 10
0.838976
 20
0.418457
 30
0.0
 40
0
 41
0
  0
VERTEX
  8
0
 10
0.790799
 20
0.418457
 30
0.0
 40
0
 41
0
  0
VERTEX
  8
0
 10
0.790799
 20
0.394368
 30
0.0
 40
0
 41
0
  0
VERTEX
  8
0
 10
0.838976
 20
0.394368
 30
0.0
 40
0
 41
0
  0
VERTEX
  8
0
 10
0.838976
 20
0.378526
 30
0.0
 40
0
 41
0
  0
VERTEX
  8
0
 10
0.790799
 20
0.378526
 30
0.0
 40
0
 41
0
  0
VERTEX
  8
0
 10
0.790799
 20
0.337782
 30
0.0
 40
0
 41
0
  0
SEQEND
 8
0
  0
POLYLINE
  8
0
 62
     250
 66
     1
 10
0
 20
0
 30
0.0
 70
     1
 40
0
 41
0
  0
VERTEX
  8
0
 10
0.871257
 20
0.354438
 30
0.0
 40
0
 41
0
  0
VERTEX
  8
0
 10
0.919379
 20
0.354438
 30
0.0
 40
0
 41
0
  0
VERTEX
  8
0
 10
0.919379
 20
0.337782
 30
0.0
 40
0
 41
0
  0
VERTEX
  8
0
 10
0.852539
 20
0.337782
 30
0.0
 40
0
 41
0
  0
VERTEX
  8
0
 10
0.852539
 20
0.435167
 30
0.0
 40
0
 41
0
  0
VERTEX
  8
0
 10
0.871257
 20
0.435167
 30
0.0
 40
0
 41
0
  0
VERTEX
  8
0
 10
0.871257
 20
0.354438
 30
0.0
 40
0
 41
0
  0
SEQEND
 8
0
  0
POLYLINE
  8
0
 62
     250
 66
     1
 10
0
 20
0
 30
0.0
 70
     1
 40
0
 41
0
  0
VERTEX
  8
0
 10
0.95166
 20
0.394368
 30
0.0
 40
0
 41
0
  0
VERTEX
  8
0
 10
0.98226
 20
0.394368
 30
0.0
 40
0
 41
0
  0
VERTEX
  8
0
 10
0.98226
 20
0.418457
 30
0.0
 40
0
 41
0
  0
VERTEX
  8
0
 10
0.95166
 20
0.418457
 30
0.0
 40
0
 41
0
  0
VERTEX
  8
0
 10
0.95166
 20
0.394368
 30
0.0
 40
0
 41
0
  0
SEQEND
 8
0
  0
POLYLINE
  8
0
 62
     250
 66
     1
 10
0
 20
0
 30
0.0
 70
     1
 40
0
 41
0
  0
VERTEX
  8
0
 10
0.98226
 20
0.378526
 30
0.0
 40
0
 41
0
  0
VERTEX
  8
0
 10
0.95166
 20
0.378526
 30
0.0
 40
0
 41
0
  0
VERTEX
  8
0
 10
0.95166
 20
0.337782
 30
0.0
 40
0
 41
0
  0
VERTEX
  8
0
 10
0.932943
 20
0.337782
 30
0.0
 40
0
 41
0
  0
VERTEX
  8
0
 10
0.932943
 20
0.435113
 30
0.0
 40
0
 41
0
  0
VERTEX
  8
0
 10
0.999837
 20
0.435113
 30
0.0
 40
0
 41
0
  0
VERTEX
  8
0
 10
0.999837
 20
0.337782
 30
0.0
 40
0
 41
0
  0
VERTEX
  8
0
 10
0.98226
 20
0.337782
 30
0.0
 40
0
 41
0
  0
VERTEX
  8
0
 10
0.98226
 20
0.378526
 30
0.0
 40
0
 41
0
  0
SEQEND
 8
0
  0
POLYLINE
  8
0
 62
     250
 66
     1
 10
0
 20
0
 30
0.0
 70
     1
 40
0
 41
0
  0
VERTEX
  8
0
 10
1.03212
 20
0.337782
 30
0.0
 40
0
 41
0
  0
VERTEX
  8
0
 10
1.0134
 20
0.337782
 30
0.0
 40
0
 41
0
  0
VERTEX
  8
0
 10
1.0134
 20
0.435167
 30
0.0
 40
0
 41
0
  0
VERTEX
  8
0
 10
1.03212
 20
0.435167
 30
0.0
 40
0
 41
0
  0
VERTEX
  8
0
 10
1.03212
 20
0.394368
 30
0.0
 40
0
 41
0
  0
VERTEX
  8
0
 10
1.06272
 20
0.435167
 30
0.0
 40
0
 41
0
  0
VERTEX
  8
0
 10
1.08024
 20
0.435167
 30
0.0
 40
0
 41
0
  0
VERTEX
  8
0
 10
1.04763
 20
0.387696
 30
0.0
 40
0
 41
0
  0
VERTEX
  8
0
 10
1.08024
 20
0.337782
 30
0.0
 40
0
 41
0
  0
VERTEX
  8
0
 10
1.06272
 20
0.337782
 30
0.0
 40
0
 41
0
  0
VERTEX
  8
0
 10
1.03212
 20
0.378526
 30
0.0
 40
0
 41
0
  0
VERTEX
  8
0
 10
1.03212
 20
0.337782
 30
0.0
 40
0
 41
0
  0
SEQEND
 8
0
  0
POLYLINE
  8
0
 62
     250
 66
     1
 10
0
 20
0
 30
0.0
 70
     1
 40
0
 41
0
  0
VERTEX
  8
0
 10
1.11252
 20
0.418457
 30
0.0
 40
0
 41
0
  0
VERTEX
  8
0
 10
1.11252
 20
0.394368
 30
0.0
 40
0
 41
0
  0
VERTEX
  8
0
 10
1.1607
 20
0.394368
 30
0.0
 40
0
 41
0
  0
VERTEX
  8
0
 10
1.1607
 20
0.378526
 30
0.0
 40
0
 41
0
  0
VERTEX
  8
0
 10
1.11252
 20
0.378526
 30
0.0
 40
0
 41
0
  0
VERTEX
  8
0
 10
1.11252
 20
0.354438
 30
0.0
 40
0
 41
0
  0
VERTEX
  8
0
 10
1.1607
 20
0.354438
 30
0.0
 40
0
 41
0
  0
VERTEX
  8
0
 10
1.1607
 20
0.337728
 30
0.0
 40
0
 41
0
  0
VERTEX
  8
0
 10
1.0938
 20
0.337728
 30
0.0
 40
0
 41
0
  0
VERTEX
  8
0
 10
1.0938
 20
0.435167
 30
0.0
 40
0
 41
0
  0
VERTEX
  8
0
 10
1.1607
 20
0.435167
 30
0.0
 40
0
 41
0
  0
VERTEX
  8
0
 10
1.1607
 20
0.418457
 30
0.0
 40
0
 41
0
  0
VERTEX
  8
0
 10
1.11252
 20
0.418457
 30
0.0
 40
0
 41
0
  0
SEQEND
 8
0
  0
POLYLINE
  8
0
 62
     250
 66
     1
 10
0
 20
0
 30
0.0
 70
     1
 40
0
 41
0
  0
VERTEX
  8
0
 10
1.17426
 20
0.378526
 30
0.0
 40
0
 41
0
  0
VERTEX
  8
0
 10
1.17426
 20
0.435167
 30
0.0
 40
0
 41
0
  0
VERTEX
  8
0
 10
1.2411
 20
0.435167
 30
0.0
 40
0
 41
0
  0
VERTEX
  8
0
 10
1.2411
 20
0.418457
 30
0.0
 40
0
 41
0
  0
VERTEX
  8
0
 10
1.19298
 20
0.418457
 30
0.0
 40
0
 41
0
  0
VERTEX
  8
0
 10
1.19298
 20
0.394368
 30
0.0
 40
0
 41
0
  0
VERTEX
  8
0
 10
1.2411
 20
0.394368
 30
0.0
 40
0
 41
0
  0
VERTEX
  8
0
 10
1.2411
 20
0.337728
 30
0.0
 40
0
 41
0
  0
VERTEX
  8
0
 10
1.17426
 20
0.337728
 30
0.0
 40
0
 41
0
  0
VERTEX
  8
0
 10
1.17426
 20
0.354438
 30
0.0
 40
0
 41
0
  0
VERTEX
  8
0
 10
1.22358
 20
0.354438
 30
0.0
 40
0
 41
0
  0
VERTEX
  8
0
 10
1.22358
 20
0.378526
 30
0.0
 40
0
 41
0
  0
VERTEX
  8
0
 10
1.17426
 20
0.378526
 30
0.0
 40
0
 41
0
  0
SEQEND
 8
0
  0
POLYLINE
  8
0
 62
     250
 66
     1
 10
0
 20
0
 30
0.0
 70
     1
 40
0
 41
0
  0
VERTEX
  8
0
 10
0.582086
 20
2.55643
 30
0.0
 40
0
 41
0
  0
VERTEX
  8
0
 10
0.603136
 20
2.55643
 30
0.0
 40
0
 41
0
  0
VERTEX
  8
0
 10
0.577692
 20
2.43956
 30
0.0
 40
0
 41
0
  0
VERTEX
  8
0
 10
0.550347
 20
2.43956
 30
0.0
 40
0
 41
0
  0
VERTEX
  8
0
 10
0.522894
 20
2.55643
 30
0.0
 40
0
 41
0
  0
VERTEX
  8
0
 10
0.545356
 20
2.55643
 30
0.0
 40
0
 41
0
  0
VERTEX
  8
0
 10
0.562935
 20
2.46653
 30
0.0
 40
0
 41
0
  0
VERTEX
  8
0
 10
0.582086
 20
2.55643
 30
0.0
 40
0
 41
0
  0
SEQEND
 8
0
  0
POLYLINE
  8
0
 62
     250
 66
     1
 10
0
 20
0
 30
0.0
 70
     1
 40
0
 41
0
  0
VERTEX
  8
0
 10
0.619412
 20
2.55643
 30
0.0
 40
0
 41
0
  0
VERTEX
  8
0
 10
0.641872
 20
2.55643
 30
0.0
 40
0
 41
0
  0
VERTEX
  8
0
 10
0.641872
 20
2.43956
 30
0.0
 40
0
 41
0
  0
VERTEX
  8
0
 10
0.619412
 20
2.43956
 30
0.0
 40
0
 41
0
  0
VERTEX
  8
0
 10
0.619412
 20
2.55643
 30
0.0
 40
0
 41
0
  0
SEQEND
 8
0
  0
POLYLINE
  8
0
 62
     250
 66
     1
 10
0
 20
0
 30
0.0
 70
     1
 40
0
 41
0
  0
VERTEX
  8
0
 10
0.68061
 20
2.50754
 30
0.0
 40
0
 41
0
  0
VERTEX
  8
0
 10
0.717339
 20
2.50754
 30
0.0
 40
0
 41
0
  0
VERTEX
  8
0
 10
0.717339
 20
2.5364
 30
0.0
 40
0
 41
0
  0
VERTEX
  8
0
 10
0.68061
 20
2.5364
 30
0.0
 40
0
 41
0
  0
VERTEX
  8
0
 10
0.68061
 20
2.50754
 30
0.0
 40
0
 41
0
  0
SEQEND
 8
0
  0
POLYLINE
  8
0
 62
     250
 66
     1
 10
0
 20
0
 30
0.0
 70
     1
 40
0
 41
0
  0
VERTEX
  8
0
 10
0.658149
 20
2.43956
 30
0.0
 40
0
 41
0
  0
VERTEX
  8
0
 10
0.658149
 20
2.55643
 30
0.0
 40
0
 41
0
  0
VERTEX
  8
0
 10
0.73839
 20
2.55643
 30
0.0
 40
0
 41
0
  0
VERTEX
  8
0
 10
0.73839
 20
2.4885
 30
0.0
 40
0
 41
0
  0
VERTEX
  8
0
 10
0.710992
 20
2.4885
 30
0.0
 40
0
 41
0
  0
VERTEX
  8
0
 10
0.73839
 20
2.43956
 30
0.0
 40
0
 41
0
  0
VERTEX
  8
0
 10
0.717339
 20
2.43956
 30
0.0
 40
0
 41
0
  0
VERTEX
  8
0
 10
0.688531
 20
2.4885
 30
0.0
 40
0
 41
0
  0
VERTEX
  8
0
 10
0.68061
 20
2.4885
 30
0.0
 40
0
 41
0
  0
VERTEX
  8
0
 10
0.68061
 20
2.43956
 30
0.0
 40
0
 41
0
  0
VERTEX
  8
0
 10
0.658149
 20
2.43956
 30
0.0
 40
0
 41
0
  0
SEQEND
 8
0
  0
POLYLINE
  8
0
 62
     250
 66
     1
 10
0
 20
0
 30
0.0
 70
     1
 40
0
 41
0
  0
VERTEX
  8
0
 10
0.790582
 20
2.50754
 30
0.0
 40
0
 41
0
  0
VERTEX
  8
0
 10
0.834907
 20
2.50754
 30
0.0
 40
0
 41
0
  0
VERTEX
  8
0
 10
0.834907
 20
2.43956
 30
0.0
 40
0
 41
0
  0
VERTEX
  8
0
 10
0.754665
 20
2.43956
 30
0.0
 40
0
 41
0
  0
VERTEX
  8
0
 10
0.754665
 20
2.55643
 30
0.0
 40
0
 41
0
  0
VERTEX
  8
0
 10
0.834907
 20
2.55643
 30
0.0
 40
0
 41
0
  0
VERTEX
  8
0
 10
0.834907
 20
2.5364
 30
0.0
 40
0
 41
0
  0
VERTEX
  8
0
 10
0.777126
 20
2.5364
 30
0.0
 40
0
 41
0
  0
VERTEX
  8
0
 10
0.777126
 20
2.45958
 30
0.0
 40
0
 41
0
  0
VERTEX
  8
0
 10
0.813857
 20
2.45958
 30
0.0
 40
0
 41
0
  0
VERTEX
  8
0
 10
0.813857
 20
2.4885
 30
0.0
 40
0
 41
0
  0
VERTEX
  8
0
 10
0.790582
 20
2.4885
 30
0.0
 40
0
 41
0
  0
VERTEX
  8
0
 10
0.790582
 20
2.50754
 30
0.0
 40
0
 41
0
  0
SEQEND
 8
0
  0
POLYLINE
  8
0
 62
     250
 66
     1
 10
0
 20
0
 30
0.0
 70
     1
 40
0
 41
0
  0
VERTEX
  8
0
 10
0.851183
 20
2.55643
 30
0.0
 40
0
 41
0
  0
VERTEX
  8
0
 10
0.873643
 20
2.55643
 30
0.0
 40
0
 41
0
  0
VERTEX
  8
0
 10
0.873643
 20
2.43956
 30
0.0
 40
0
 41
0
  0
VERTEX
  8
0
 10
0.851183
 20
2.43956
 30
0.0
 40
0
 41
0
  0
VERTEX
  8
0
 10
0.851183
 20
2.55643
 30
0.0
 40
0
 41
0
  0
SEQEND
 8
0
  0
POLYLINE
  8
0
 62
     250
 66
     1
 10
0
 20
0
 30
0.0
 70
     1
 40
0
 41
0
  0
VERTEX
  8
0
 10
0.912381
 20
2.43956
 30
0.0
 40
0
 41
0
  0
VERTEX
  8
0
 10
0.889919
 20
2.43956
 30
0.0
 40
0
 41
0
  0
VERTEX
  8
0
 10
0.889919
 20
2.55643
 30
0.0
 40
0
 41
0
  0
VERTEX
  8
0
 10
0.912381
 20
2.55643
 30
0.0
 40
0
 41
0
  0
VERTEX
  8
0
 10
0.94911
 20
2.49094
 30
0.0
 40
0
 41
0
  0
VERTEX
  8
0
 10
0.94911
 20
2.55643
 30
0.0
 40
0
 41
0
  0
VERTEX
  8
0
 10
0.970161
 20
2.55643
 30
0.0
 40
0
 41
0
  0
VERTEX
  8
0
 10
0.970161
 20
2.43956
 30
0.0
 40
0
 41
0
  0
VERTEX
  8
0
 10
0.94911
 20
2.43956
 30
0.0
 40
0
 41
0
  0
VERTEX
  8
0
 10
0.912381
 20
2.50706
 30
0.0
 40
0
 41
0
  0
VERTEX
  8
0
 10
0.912381
 20
2.43956
 30
0.0
 40
0
 41
0
  0
SEQEND
 8
0
  0
POLYLINE
  8
0
 62
     250
 66
     1
 10
0
 20
0
 30
0.0
 70
     1
 40
0
 41
0
  0
VERTEX
  8
0
 10
1.39415
 20
2.49621
 30
0.0
 40
0
 41
0
  0
VERTEX
  8
0
 10
1.42469
 20
2.49621
 30
0.0
 40
0
 41
0
  0
VERTEX
  8
0
 10
1.42469
 20
2.52029
 30
0.0
 40
0
 41
0
  0
VERTEX
  8
0
 10
1.39415
 20
2.52029
 30
0.0
 40
0
 41
0
  0
VERTEX
  8
0
 10
1.39415
 20
2.49621
 30
0.0
 40
0
 41
0
  0
SEQEND
 8
0
  0
POLYLINE
  8
0
 62
     250
 66
     1
 10
0
 20
0
 30
0.0
 70
     1
 40
0
 41
0
  0
VERTEX
  8
0
 10
1.37543
 20
2.43956
 30
0.0
 40
0
 41
0
  0
VERTEX
  8
0
 10
1.37543
 20
2.53694
 30
0.0
 40
0
 41
0
  0
VERTEX
  8
0
 10
1.44228
 20
2.53694
 30
0.0
 40
0
 41
0
  0
VERTEX
  8
0
 10
1.44228
 20
2.48036
 30
0.0
 40
0
 41
0
  0
VERTEX
  8
0
 10
1.41943
 20
2.48036
 30
0.0
 40
0
 41
0
  0
VERTEX
  8
0
 10
1.44228
 20
2.43956
 30
0.0
 40
0
 41
0
  0
VERTEX
  8
0
 10
1.42469
 20
2.43956
 30
0.0
 40
0
 41
0
  0
VERTEX
  8
0
 10
1.40072
 20
2.48036
 30
0.0
 40
0
 41
0
  0
VERTEX
  8
0
 10
1.39415
 20
2.48036
 30
0.0
 40
0
 41
0
  0
VERTEX
  8
0
 10
1.39415
 20
2.43956
 30
0.0
 40
0
 41
0
  0
VERTEX
  8
0
 10
1.37543
 20
2.43956
 30
0.0
 40
0
 41
0
  0
SEQEND
 8
0
  0
POLYLINE
  8
0
 62
     250
 66
     1
 10
0
 20
0
 30
0.0
 70
     1
 40
0
 41
0
  0
VERTEX
  8
0
 10
1.47456
 20
2.52029
 30
0.0
 40
0
 41
0
  0
VERTEX
  8
0
 10
1.47456
 20
2.49621
 30
0.0
 40
0
 41
0
  0
VERTEX
  8
0
 10
1.52274
 20
2.49621
 30
0.0
 40
0
 41
0
  0
VERTEX
  8
0
 10
1.52274
 20
2.48036
 30
0.0
 40
0
 41
0
  0
VERTEX
  8
0
 10
1.47456
 20
2.48036
 30
0.0
 40
0
 41
0
  0
VERTEX
  8
0
 10
1.47456
 20
2.45628
 30
0.0
 40
0
 41
0
  0
VERTEX
  8
0
 10
1.52274
 20
2.45628
 30
0.0
 40
0
 41
0
  0
VERTEX
  8
0
 10
1.52274
 20
2.43956
 30
0.0
 40
0
 41
0
  0
VERTEX
  8
0
 10
1.45583
 20
2.43956
 30
0.0
 40
0
 41
0
  0
VERTEX
  8
0
 10
1.45583
 20
2.53694
 30
0.0
 40
0
 41
0
  0
VERTEX
  8
0
 10
1.52274
 20
2.53694
 30
0.0
 40
0
 41
0
  0
VERTEX
  8
0
 10
1.52274
 20
2.52029
 30
0.0
 40
0
 41
0
  0
VERTEX
  8
0
 10
1.47456
 20
2.52029
 30
0.0
 40
0
 41
0
  0
SEQEND
 8
0
  0
POLYLINE
  8
0
 62
     250
 66
     1
 10
0
 20
0
 30
0.0
 70
     1
 40
0
 41
0
  0
VERTEX
  8
0
 10
1.56619
 20
2.49621
 30
0.0
 40
0
 41
0
  0
VERTEX
  8
0
 10
1.60314
 20
2.49621
 30
0.0
 40
0
 41
0
  0
VERTEX
  8
0
 10
1.60314
 20
2.43956
 30
0.0
 40
0
 41
0
  0
VERTEX
  8
0
 10
1.53629
 20
2.43956
 30
0.0
 40
0
 41
0
  0
VERTEX
  8
0
 10
1.53629
 20
2.53694
 30
0.0
 40
0
 41
0
  0
VERTEX
  8
0
 10
1.60314
 20
2.53694
 30
0.0
 40
0
 41
0
  0
VERTEX
  8
0
 10
1.60314
 20
2.52029
 30
0.0
 40
0
 41
0
  0
VERTEX
  8
0
 10
1.55501
 20
2.52029
 30
0.0
 40
0
 41
0
  0
VERTEX
  8
0
 10
1.55501
 20
2.45628
 30
0.0
 40
0
 41
0
  0
VERTEX
  8
0
 10
1.58556
 20
2.45628
 30
0.0
 40
0
 41
0
  0
VERTEX
  8
0
 10
1.58556
 20
2.48031
 30
0.0
 40
0
 41
0
  0
VERTEX
  8
0
 10
1.56619
 20
2.48031
 30
0.0
 40
0
 41
0
  0
VERTEX
  8
0
 10
1.56619
 20
2.49621
 30
0.0
 40
0
 41
0
  0
SEQEND
 8
0
  0
POLYLINE
  8
0
 62
     250
 66
     1
 10
0
 20
0
 30
0.0
 70
     1
 40
0
 41
0
  0
VERTEX
  8
0
 10
1.63542
 20
2.52029
 30
0.0
 40
0
 41
0
  0
VERTEX
  8
0
 10
1.63542
 20
2.49621
 30
0.0
 40
0
 41
0
  0
VERTEX
  8
0
 10
1.6836
 20
2.49621
 30
0.0
 40
0
 41
0
  0
VERTEX
  8
0
 10
1.6836
 20
2.48036
 30
0.0
 40
0
 41
0
  0
VERTEX
  8
0
 10
1.63542
 20
2.48036
 30
0.0
 40
0
 41
0
  0
VERTEX
  8
0
 10
1.63542
 20
2.45628
 30
0.0
 40
0
 41
0
  0
VERTEX
  8
0
 10
1.6836
 20
2.45628
 30
0.0
 40
0
 41
0
  0
VERTEX
  8
0
 10
1.6836
 20
2.43956
 30
0.0
 40
0
 41
0
  0
VERTEX
  8
0
 10
1.61669
 20
2.43956
 30
0.0
 40
0
 41
0
  0
VERTEX
  8
0
 10
1.61669
 20
2.53694
 30
0.0
 40
0
 41
0
  0
VERTEX
  8
0
 10
1.6836
 20
2.53694
 30
0.0
 40
0
 41
0
  0
VERTEX
  8
0
 10
1.6836
 20
2.52029
 30
0.0
 40
0
 41
0
  0
VERTEX
  8
0
 10
1.63542
 20
2.52029
 30
0.0
 40
0
 41
0
  0
SEQEND
 8
0
  0
POLYLINE
  8
0
 62
     250
 66
     1
 10
0
 20
0
 30
0.0
 70
     1
 40
0
 41
0
  0
VERTEX
  8
0
 10
1.71588
 20
2.43956
 30
0.0
 40
0
 41
0
  0
VERTEX
  8
0
 10
1.69715
 20
2.43956
 30
0.0
 40
0
 41
0
  0
VERTEX
  8
0
 10
1.69715
 20
2.53694
 30
0.0
 40
0
 41
0
  0
VERTEX
  8
0
 10
1.71588
 20
2.53694
 30
0.0
 40
0
 41
0
  0
VERTEX
  8
0
 10
1.74642
 20
2.48236
 30
0.0
 40
0
 41
0
  0
VERTEX
  8
0
 10
1.74642
 20
2.53694
 30
0.0
 40
0
 41
0
  0
VERTEX
  8
0
 10
1.764
 20
2.53694
 30
0.0
 40
0
 41
0
  0
VERTEX
  8
0
 10
1.764
 20
2.43956
 30
0.0
 40
0
 41
0
  0
VERTEX
  8
0
 10
1.74642
 20
2.43956
 30
0.0
 40
0
 41
0
  0
VERTEX
  8
0
 10
1.71588
 20
2.49582
 30
0.0
 40
0
 41
0
  0
VERTEX
  8
0
 10
1.71588
 20
2.43956
 30
0.0
 40
0
 41
0
  0
SEQEND
 8
0
  0
POLYLINE
  8
0
 62
     250
 66
     1
 10
0
 20
0
 30
0.0
 70
     1
 40
0
 41
0
  0
VERTEX
  8
0
 10
1.79628
 20
2.52029
 30
0.0
 40
0
 41
0
  0
VERTEX
  8
0
 10
1.79628
 20
2.49621
 30
0.0
 40
0
 41
0
  0
VERTEX
  8
0
 10
1.84446
 20
2.49621
 30
0.0
 40
0
 41
0
  0
VERTEX
  8
0
 10
1.84446
 20
2.48036
 30
0.0
 40
0
 41
0
  0
VERTEX
  8
0
 10
1.79628
 20
2.48036
 30
0.0
 40
0
 41
0
  0
VERTEX
  8
0
 10
1.79628
 20
2.45628
 30
0.0
 40
0
 41
0
  0
VERTEX
  8
0
 10
1.84446
 20
2.45628
 30
0.0
 40
0
 41
0
  0
VERTEX
  8
0
 10
1.84446
 20
2.43956
 30
0.0
 40
0
 41
0
  0
VERTEX
  8
0
 10
1.77756
 20
2.43956
 30
0.0
 40
0
 41
0
  0
VERTEX
  8
0
 10
1.77756
 20
2.53694
 30
0.0
 40
0
 41
0
  0
VERTEX
  8
0
 10
1.84446
 20
2.53694
 30
0.0
 40
0
 41
0
  0
VERTEX
  8
0
 10
1.84446
 20
2.52029
 30
0.0
 40
0
 41
0
  0
VERTEX
  8
0
 10
1.79628
 20
2.52029
 30
0.0
 40
0
 41
0
  0
SEQEND
 8
0
  0
POLYLINE
  8
0
 62
     250
 66
     1
 10
0
 20
0
 30
0.0
 70
     1
 40
0
 41
0
  0
VERTEX
  8
0
 10
1.87674
 20
2.49621
 30
0.0
 40
0
 41
0
  0
VERTEX
  8
0
 10
1.90728
 20
2.49621
 30
0.0
 40
0
 41
0
  0
VERTEX
  8
0
 10
1.90728
 20
2.52029
 30
0.0
 40
0
 41
0
  0
VERTEX
  8
0
 10
1.87674
 20
2.52029
 30
0.0
 40
0
 41
0
  0
VERTEX
  8
0
 10
1.87674
 20
2.49621
 30
0.0
 40
0
 41
0
  0
SEQEND
 8
0
  0
POLYLINE
  8
0
 62
     250
 66
     1
 10
0
 20
0
 30
0.0
 70
     1
 40
0
 41
0
  0
VERTEX
  8
0
 10
1.85801
 20
2.43956
 30
0.0
 40
0
 41
0
  0
VERTEX
  8
0
 10
1.85801
 20
2.53694
 30
0.0
 40
0
 41
0
  0
VERTEX
  8
0
 10
1.92486
 20
2.53694
 30
0.0
 40
0
 41
0
  0
VERTEX
  8
0
 10
1.92486
 20
2.48036
 30
0.0
 40
0
 41
0
  0
VERTEX
  8
0
 10
1.90201
 20
2.48036
 30
0.0
 40
0
 41
0
  0
VERTEX
  8
0
 10
1.92486
 20
2.43956
 30
0.0
 40
0
 41
0
  0
VERTEX
  8
0
 10
1.90728
 20
2.43956
 30
0.0
 40
0
 41
0
  0
VERTEX
  8
0
 10
1.88331
 20
2.48036
 30
0.0
 40
0
 41
0
  0
VERTEX
  8
0
 10
1.87674
 20
2.48036
 30
0.0
 40
0
 41
0
  0
VERTEX
  8
0
 10
1.87674
 20
2.43956
 30
0.0
 40
0
 41
0
  0
VERTEX
  8
0
 10
1.85801
 20
2.43956
 30
0.0
 40
0
 41
0
  0
SEQEND
 8
0
  0
POLYLINE
  8
0
 62
     250
 66
     1
 10
0
 20
0
 30
0.0
 70
     1
 40
0
 41
0
  0
VERTEX
  8
0
 10
1.95714
 20
2.49621
 30
0.0
 40
0
 41
0
  0
VERTEX
  8
0
 10
1.98774
 20
2.49621
 30
0.0
 40
0
 41
0
  0
VERTEX
  8
0
 10
1.98774
 20
2.52029
 30
0.0
 40
0
 41
0
  0
VERTEX
  8
0
 10
1.95714
 20
2.52029
 30
0.0
 40
0
 41
0
  0
VERTEX
  8
0
 10
1.95714
 20
2.49621
 30
0.0
 40
0
 41
0
  0
SEQEND
 8
0
  0
POLYLINE
  8
0
 62
     250
 66
     1
 10
0
 20
0
 30
0.0
 70
     1
 40
0
 41
0
  0
VERTEX
  8
0
 10
1.98774
 20
2.48036
 30
0.0
 40
0
 41
0
  0
VERTEX
  8
0
 10
1.95714
 20
2.48036
 30
0.0
 40
0
 41
0
  0
VERTEX
  8
0
 10
1.95714
 20
2.43956
 30
0.0
 40
0
 41
0
  0
VERTEX
  8
0
 10
1.93842
 20
2.43956
 30
0.0
 40
0
 41
0
  0
VERTEX
  8
0
 10
1.93842
 20
2.53694
 30
0.0
 40
0
 41
0
  0
VERTEX
  8
0
 10
2.00532
 20
2.53694
 30
0.0
 40
0
 41
0
  0
VERTEX
  8
0
 10
2.00532
 20
2.43956
 30
0.0
 40
0
 41
0
  0
VERTEX
  8
0
 10
1.98774
 20
2.43956
 30
0.0
 40
0
 41
0
  0
VERTEX
  8
0
 10
1.98774
 20
2.48036
 30
0.0
 40
0
 41
0
  0
SEQEND
 8
0
  0
POLYLINE
  8
0
 62
     250
 66
     1
 10
0
 20
0
 30
0.0
 70
     1
 40
0
 41
0
  0
VERTEX
  8
0
 10
2.04417
 20
2.52029
 30
0.0
 40
0
 41
0
  0
VERTEX
  8
0
 10
2.01887
 20
2.52029
 30
0.0
 40
0
 41
0
  0
VERTEX
  8
0
 10
2.01887
 20
2.53694
 30
0.0
 40
0
 41
0
  0
VERTEX
  8
0
 10
2.08572
 20
2.53694
 30
0.0
 40
0
 41
0
  0
VERTEX
  8
0
 10
2.08572
 20
2.52029
 30
0.0
 40
0
 41
0
  0
VERTEX
  8
0
 10
2.06287
 20
2.52029
 30
0.0
 40
0
 41
0
  0
VERTEX
  8
0
 10
2.06287
 20
2.43956
 30
0.0
 40
0
 41
0
  0
VERTEX
  8
0
 10
2.04417
 20
2.43956
 30
0.0
 40
0
 41
0
  0
VERTEX
  8
0
 10
2.04417
 20
2.52029
 30
0.0
 40
0
 41
0
  0
SEQEND
 8
0
  0
POLYLINE
  8
0
 62
     250
 66
     1
 10
0
 20
0
 30
0.0
 70
     1
 40
0
 41
0
  0
VERTEX
  8
0
 10
2.118
 20
2.52029
 30
0.0
 40
0
 41
0
  0
VERTEX
  8
0
 10
2.118
 20
2.49621
 30
0.0
 40
0
 41
0
  0
VERTEX
  8
0
 10
2.16618
 20
2.49621
 30
0.0
 40
0
 41
0
  0
VERTEX
  8
0
 10
2.16618
 20
2.48036
 30
0.0
 40
0
 41
0
  0
VERTEX
  8
0
 10
2.118
 20
2.48036
 30
0.0
 40
0
 41
0
  0
VERTEX
  8
0
 10
2.118
 20
2.45628
 30
0.0
 40
0
 41
0
  0
VERTEX
  8
0
 10
2.16618
 20
2.45628
 30
0.0
 40
0
 41
0
  0
VERTEX
  8
0
 10
2.16618
 20
2.43956
 30
0.0
 40
0
 41
0
  0
VERTEX
  8
0
 10
2.09928
 20
2.43956
 30
0.0
 40
0
 41
0
  0
VERTEX
  8
0
 10
2.09928
 20
2.53694
 30
0.0
 40
0
 41
0
  0
VERTEX
  8
0
 10
2.16618
 20
2.53694
 30
0.0
 40
0
 41
0
  0
VERTEX
  8
0
 10
2.16618
 20
2.52029
 30
0.0
 40
0
 41
0
  0
VERTEX
  8
0
 10
2.118
 20
2.52029
 30
0.0
 40
0
 41
0
  0
SEQEND
 8
0
  0
POLYLINE
  8
0
 62
     250
 66
     1
 10
0
 20
0
 30
0.0
 70
     1
 40
0
 41
0
  0
VERTEX
  8
0
 10
2.229
 20
2.52029
 30
0.0
 40
0
 41
0
  0
VERTEX
  8
0
 10
2.19846
 20
2.52029
 30
0.0
 40
0
 41
0
  0
VERTEX
  8
0
 10
2.19846
 20
2.45628
 30
0.0
 40
0
 41
0
  0
VERTEX
  8
0
 10
2.229
 20
2.45628
 30
0.0
 40
0
 41
0
  0
VERTEX
  8
0
 10
2.229
 20
2.52029
 30
0.0
 40
0
 41
0
  0
SEQEND
 8
0
  0
POLYLINE
  8
0
 62
     250
 66
     1
 10
0
 20
0
 30
0.0
 70
     1
 40
0
 41
0
  0
VERTEX
  8
0
 10
2.17974
 20
2.43956
 30
0.0
 40
0
 41
0
  0
VERTEX
  8
0
 10
2.17974
 20
2.53694
 30
0.0
 40
0
 41
0
  0
VERTEX
  8
0
 10
2.23953
 20
2.53694
 30
0.0
 40
0
 41
0
  0
VERTEX
  8
0
 10
2.24658
 20
2.52843
 30
0.0
 40
0
 41
0
  0
VERTEX
  8
0
 10
2.24658
 20
2.44814
 30
0.0
 40
0
 41
0
  0
VERTEX
  8
0
 10
2.23958
 20
2.43956
 30
0.0
 40
0
 41
0
  0
VERTEX
  8
0
 10
2.17974
 20
2.43956
 30
0.0
 40
0
 41
0
  0
SEQEND
 8
0
  0
POLYLINE
  8
0
 62
     250
 66
     1
 10
0
 20
0
 30
0.0
 70
     1
 40
0
 41
0
  0
VERTEX
  8
0
 10
2.50217
 20
2.49621
 30
0.0
 40
0
 41
0
  0
VERTEX
  8
0
 10
2.53276
 20
2.49621
 30
0.0
 40
0
 41
0
  0
VERTEX
  8
0
 10
2.53276
 20
2.52029
 30
0.0
 40
0
 41
0
  0
VERTEX
  8
0
 10
2.50217
 20
2.52029
 30
0.0
 40
0
 41
0
  0
VERTEX
  8
0
 10
2.50217
 20
2.49621
 30
0.0
 40
0
 41
0
  0
SEQEND
 8
0
  0
POLYLINE
  8
0
 62
     250
 66
     1
 10
0
 20
0
 30
0.0
 70
     1
 40
0
 41
0
  0
VERTEX
  8
0
 10
2.48346
 20
2.43956
 30
0.0
 40
0
 41
0
  0
VERTEX
  8
0
 10
2.48346
 20
2.53694
 30
0.0
 40
0
 41
0
  0
VERTEX
  8
0
 10
2.55035
 20
2.53694
 30
0.0
 40
0
 41
0
  0
VERTEX
  8
0
 10
2.55035
 20
2.48036
 30
0.0
 40
0
 41
0
  0
VERTEX
  8
0
 10
2.5275
 20
2.48036
 30
0.0
 40
0
 41
0
  0
VERTEX
  8
0
 10
2.55035
 20
2.43956
 30
0.0
 40
0
 41
0
  0
VERTEX
  8
0
 10
2.53276
 20
2.43956
 30
0.0
 40
0
 41
0
  0
VERTEX
  8
0
 10
2.50879
 20
2.48036
 30
0.0
 40
0
 41
0
  0
VERTEX
  8
0
 10
2.50217
 20
2.48036
 30
0.0
 40
0
 41
0
  0
VERTEX
  8
0
 10
2.50217
 20
2.43956
 30
0.0
 40
0
 41
0
  0
VERTEX
  8
0
 10
2.48346
 20
2.43956
 30
0.0
 40
0
 41
0
  0
SEQEND
 8
0
  0
POLYLINE
  8
0
 62
     250
 66
     1
 10
0
 20
0
 30
0.0
 70
     1
 40
0
 41
0
  0
VERTEX
  8
0
 10
2.58263
 20
2.52029
 30
0.0
 40
0
 41
0
  0
VERTEX
  8
0
 10
2.58263
 20
2.49621
 30
0.0
 40
0
 41
0
  0
VERTEX
  8
0
 10
2.63075
 20
2.49621
 30
0.0
 40
0
 41
0
  0
VERTEX
  8
0
 10
2.63075
 20
2.48036
 30
0.0
 40
0
 41
0
  0
VERTEX
  8
0
 10
2.58263
 20
2.48036
 30
0.0
 40
0
 41
0
  0
VERTEX
  8
0
 10
2.58263
 20
2.45628
 30
0.0
 40
0
 41
0
  0
VERTEX
  8
0
 10
2.63075
 20
2.45628
 30
0.0
 40
0
 41
0
  0
VERTEX
  8
0
 10
2.63075
 20
2.43956
 30
0.0
 40
0
 41
0
  0
VERTEX
  8
0
 10
2.56392
 20
2.43956
 30
0.0
 40
0
 41
0
  0
VERTEX
  8
0
 10
2.56392
 20
2.53694
 30
0.0
 40
0
 41
0
  0
VERTEX
  8
0
 10
2.63075
 20
2.53694
 30
0.0
 40
0
 41
0
  0
VERTEX
  8
0
 10
2.63075
 20
2.52029
 30
0.0
 40
0
 41
0
  0
VERTEX
  8
0
 10
2.58263
 20
2.52029
 30
0.0
 40
0
 41
0
  0
SEQEND
 8
0
  0
POLYLINE
  8
0
 62
     250
 66
     1
 10
0
 20
0
 30
0.0
 70
     1
 40
0
 41
0
  0
VERTEX
  8
0
 10
2.67426
 20
2.49621
 30
0.0
 40
0
 41
0
  0
VERTEX
  8
0
 10
2.71121
 20
2.49621
 30
0.0
 40
0
 41
0
  0
VERTEX
  8
0
 10
2.71121
 20
2.43956
 30
0.0
 40
0
 41
0
  0
VERTEX
  8
0
 10
2.64432
 20
2.43956
 30
0.0
 40
0
 41
0
  0
VERTEX
  8
0
 10
2.64432
 20
2.53694
 30
0.0
 40
0
 41
0
  0
VERTEX
  8
0
 10
2.71121
 20
2.53694
 30
0.0
 40
0
 41
0
  0
VERTEX
  8
0
 10
2.71121
 20
2.52029
 30
0.0
 40
0
 41
0
  0
VERTEX
  8
0
 10
2.66303
 20
2.52029
 30
0.0
 40
0
 41
0
  0
VERTEX
  8
0
 10
2.66303
 20
2.45628
 30
0.0
 40
0
 41
0
  0
VERTEX
  8
0
 10
2.69362
 20
2.45628
 30
0.0
 40
0
 41
0
  0
VERTEX
  8
0
 10
2.69362
 20
2.48031
 30
0.0
 40
0
 41
0
  0
VERTEX
  8
0
 10
2.67426
 20
2.48031
 30
0.0
 40
0
 41
0
  0
VERTEX
  8
0
 10
2.67426
 20
2.49621
 30
0.0
 40
0
 41
0
  0
SEQEND
 8
0
  0
POLYLINE
  8
0
 62
     250
 66
     1
 10
0
 20
0
 30
0.0
 70
     1
 40
0
 41
0
  0
VERTEX
  8
0
 10
2.74349
 20
2.49621
 30
0.0
 40
0
 41
0
  0
VERTEX
  8
0
 10
2.77408
 20
2.49621
 30
0.0
 40
0
 41
0
  0
VERTEX
  8
0
 10
2.77408
 20
2.52029
 30
0.0
 40
0
 41
0
  0
VERTEX
  8
0
 10
2.74349
 20
2.52029
 30
0.0
 40
0
 41
0
  0
VERTEX
  8
0
 10
2.74349
 20
2.49621
 30
0.0
 40
0
 41
0
  0
SEQEND
 8
0
  0
POLYLINE
  8
0
 62
     250
 66
     1
 10
0
 20
0
 30
0.0
 70
     1
 40
0
 41
0
  0
VERTEX
  8
0
 10
2.72478
 20
2.43956
 30
0.0
 40
0
 41
0
  0
VERTEX
  8
0
 10
2.72478
 20
2.53694
 30
0.0
 40
0
 41
0
  0
VERTEX
  8
0
 10
2.79161
 20
2.53694
 30
0.0
 40
0
 41
0
  0
VERTEX
  8
0
 10
2.79161
 20
2.48036
 30
0.0
 40
0
 41
0
  0
VERTEX
  8
0
 10
2.76878
 20
2.48036
 30
0.0
 40
0
 41
0
  0
VERTEX
  8
0
 10
2.79161
 20
2.43956
 30
0.0
 40
0
 41
0
  0
VERTEX
  8
0
 10
2.77408
 20
2.43956
 30
0.0
 40
0
 41
0
  0
VERTEX
  8
0
 10
2.75006
 20
2.48036
 30
0.0
 40
0
 41
0
  0
VERTEX
  8
0
 10
2.74349
 20
2.48036
 30
0.0
 40
0
 41
0
  0
VERTEX
  8
0
 10
2.74349
 20
2.43956
 30
0.0
 40
0
 41
0
  0
VERTEX
  8
0
 10
2.72478
 20
2.43956
 30
0.0
 40
0
 41
0
  0
SEQEND
 8
0
  0
POLYLINE
  8
0
 62
     250
 66
     1
 10
0
 20
0
 30
0.0
 70
     1
 40
0
 41
0
  0
VERTEX
  8
0
 10
2.80518
 20
2.53694
 30
0.0
 40
0
 41
0
  0
VERTEX
  8
0
 10
2.82389
 20
2.53694
 30
0.0
 40
0
 41
0
  0
VERTEX
  8
0
 10
2.82389
 20
2.43956
 30
0.0
 40
0
 41
0
  0
VERTEX
  8
0
 10
2.80518
 20
2.43956
 30
0.0
 40
0
 41
0
  0
VERTEX
  8
0
 10
2.80518
 20
2.53694
 30
0.0
 40
0
 41
0
  0
SEQEND
 8
0
  0
POLYLINE
  8
0
 62
     250
 66
     1
 10
0
 20
0
 30
0.0
 70
     1
 40
0
 41
0
  0
VERTEX
  8
0
 10
2.85618
 20
2.43956
 30
0.0
 40
0
 41
0
  0
VERTEX
  8
0
 10
2.83746
 20
2.43956
 30
0.0
 40
0
 41
0
  0
VERTEX
  8
0
 10
2.83746
 20
2.53694
 30
0.0
 40
0
 41
0
  0
VERTEX
  8
0
 10
2.85618
 20
2.53694
 30
0.0
 40
0
 41
0
  0
VERTEX
  8
0
 10
2.88678
 20
2.48236
 30
0.0
 40
0
 41
0
  0
VERTEX
  8
0
 10
2.88678
 20
2.53694
 30
0.0
 40
0
 41
0
  0
VERTEX
  8
0
 10
2.90435
 20
2.53694
 30
0.0
 40
0
 41
0
  0
VERTEX
  8
0
 10
2.90435
 20
2.43956
 30
0.0
 40
0
 41
0
  0
VERTEX
  8
0
 10
2.88678
 20
2.43956
 30
0.0
 40
0
 41
0
  0
VERTEX
  8
0
 10
2.85618
 20
2.49582
 30
0.0
 40
0
 41
0
  0
VERTEX
  8
0
 10
2.85618
 20
2.43956
 30
0.0
 40
0
 41
0
  0
SEQEND
 8
0
  0
POLYLINE
  8
0
 62
     250
 66
     1
 10
0
 20
0
 30
0.0
 70
     1
 40
0
 41
0
  0
VERTEX
  8
0
 10
2.93664
 20
2.52029
 30
0.0
 40
0
 41
0
  0
VERTEX
  8
0
 10
2.93664
 20
2.49621
 30
0.0
 40
0
 41
0
  0
VERTEX
  8
0
 10
2.98475
 20
2.49621
 30
0.0
 40
0
 41
0
  0
VERTEX
  8
0
 10
2.98475
 20
2.48036
 30
0.0
 40
0
 41
0
  0
VERTEX
  8
0
 10
2.93664
 20
2.48036
 30
0.0
 40
0
 41
0
  0
VERTEX
  8
0
 10
2.93664
 20
2.45628
 30
0.0
 40
0
 41
0
  0
VERTEX
  8
0
 10
2.98475
 20
2.45628
 30
0.0
 40
0
 41
0
  0
VERTEX
  8
0
 10
2.98475
 20
2.43956
 30
0.0
 40
0
 41
0
  0
VERTEX
  8
0
 10
2.91792
 20
2.43956
 30
0.0
 40
0
 41
0
  0
VERTEX
  8
0
 10
2.91792
 20
2.53694
 30
0.0
 40
0
 41
0
  0
VERTEX
  8
0
 10
2.98475
 20
2.53694
 30
0.0
 40
0
 41
0
  0
VERTEX
  8
0
 10
2.98475
 20
2.52029
 30
0.0
 40
0
 41
0
  0
VERTEX
  8
0
 10
2.93664
 20
2.52029
 30
0.0
 40
0
 41
0
  0
SEQEND
 8
0
  0
POLYLINE
  8
0
 62
     250
 66
     1
 10
0
 20
0
 30
0.0
 70
     1
 40
0
 41
0
  0
VERTEX
  8
0
 10
3.04764
 20
2.52029
 30
0.0
 40
0
 41
0
  0
VERTEX
  8
0
 10
3.01704
 20
2.52029
 30
0.0
 40
0
 41
0
  0
VERTEX
  8
0
 10
3.01704
 20
2.45628
 30
0.0
 40
0
 41
0
  0
VERTEX
  8
0
 10
3.04764
 20
2.45628
 30
0.0
 40
0
 41
0
  0
VERTEX
  8
0
 10
3.04764
 20
2.52029
 30
0.0
 40
0
 41
0
  0
SEQEND
 8
0
  0
POLYLINE
  8
0
 62
     250
 66
     1
 10
0
 20
0
 30
0.0
 70
     1
 40
0
 41
0
  0
VERTEX
  8
0
 10
2.99832
 20
2.43956
 30
0.0
 40
0
 41
0
  0
VERTEX
  8
0
 10
2.99832
 20
2.53694
 30
0.0
 40
0
 41
0
  0
VERTEX
  8
0
 10
3.05817
 20
2.53694
 30
0.0
 40
0
 41
0
  0
VERTEX
  8
0
 10
3.06521
 20
2.52843
 30
0.0
 40
0
 41
0
  0
VERTEX
  8
0
 10
3.06521
 20
2.44814
 30
0.0
 40
0
 41
0
  0
VERTEX
  8
0
 10
3.05821
 20
2.43956
 30
0.0
 40
0
 41
0
  0
VERTEX
  8
0
 10
2.99832
 20
2.43956
 30
0.0
 40
0
 41
0
  0
SEQEND
 8
0
  0
POLYLINE
  8
0
 62
     250
 66
     1
 10
0
 20
0
 30
0.0
 70
     1
 40
0
 41
0
  0
VERTEX
  8
0
 10
3.13194
 20
2.45628
 30
0.0
 40
0
 41
0
  0
VERTEX
  8
0
 10
3.16254
 20
2.45628
 30
0.0
 40
0
 41
0
  0
VERTEX
  8
0
 10
3.16254
 20
2.48036
 30
0.0
 40
0
 41
0
  0
VERTEX
  8
0
 10
3.13194
 20
2.48036
 30
0.0
 40
0
 41
0
  0
VERTEX
  8
0
 10
3.13194
 20
2.45628
 30
0.0
 40
0
 41
0
  0
SEQEND
 8
0
  0
POLYLINE
  8
0
 62
     250
 66
     1
 10
0
 20
0
 30
0.0
 70
     1
 40
0
 41
0
  0
VERTEX
  8
0
 10
3.13194
 20
2.49621
 30
0.0
 40
0
 41
0
  0
VERTEX
  8
0
 10
3.16254
 20
2.49621
 30
0.0
 40
0
 41
0
  0
VERTEX
  8
0
 10
3.16254
 20
2.52029
 30
0.0
 40
0
 41
0
  0
VERTEX
  8
0
 10
3.13194
 20
2.52029
 30
0.0
 40
0
 41
0
  0
VERTEX
  8
0
 10
3.13194
 20
2.49621
 30
0.0
 40
0
 41
0
  0
SEQEND
 8
0
  0
POLYLINE
  8
0
 62
     250
 66
     1
 10
0
 20
0
 30
0.0
 70
     1
 40
0
 41
0
  0
VERTEX
  8
0
 10
3.18007
 20
2.53694
 30
0.0
 40
0
 41
0
  0
VERTEX
  8
0
 10
3.18007
 20
2.50006
 30
0.0
 40
0
 41
0
  0
VERTEX
  8
0
 10
3.17188
 20
2.48796
 30
0.0
 40
0
 41
0
  0
VERTEX
  8
0
 10
3.18007
 20
2.47575
 30
0.0
 40
0
 41
0
  0
VERTEX
  8
0
 10
3.18007
 20
2.43956
 30
0.0
 40
0
 41
0
  0
VERTEX
  8
0
 10
3.11322
 20
2.43956
 30
0.0
 40
0
 41
0
  0
VERTEX
  8
0
 10
3.11322
 20
2.53694
 30
0.0
 40
0
 41
0
  0
VERTEX
  8
0
 10
3.18007
 20
2.53694
 30
0.0
 40
0
 41
0
  0
SEQEND
 8
0
  0
POLYLINE
  8
0
 62
     250
 66
     1
 10
0
 20
0
 30
0.0
 70
     1
 40
0
 41
0
  0
VERTEX
  8
0
 10
3.19362
 20
2.53694
 30
0.0
 40
0
 41
0
  0
VERTEX
  8
0
 10
3.21235
 20
2.53694
 30
0.0
 40
0
 41
0
  0
VERTEX
  8
0
 10
3.21235
 20
2.43956
 30
0.0
 40
0
 41
0
  0
VERTEX
  8
0
 10
3.19362
 20
2.43956
 30
0.0
 40
0
 41
0
  0
VERTEX
  8
0
 10
3.19362
 20
2.53694
 30
0.0
 40
0
 41
0
  0
SEQEND
 8
0
  0
POLYLINE
  8
0
 62
     250
 66
     1
 10
0
 20
0
 30
0.0
 70
     1
 40
0
 41
0
  0
VERTEX
  8
0
 10
3.24463
 20
2.43956
 30
0.0
 40
0
 41
0
  0
VERTEX
  8
0
 10
3.22592
 20
2.43956
 30
0.0
 40
0
 41
0
  0
VERTEX
  8
0
 10
3.22592
 20
2.53694
 30
0.0
 40
0
 41
0
  0
VERTEX
  8
0
 10
3.24463
 20
2.53694
 30
0.0
 40
0
 41
0
  0
VERTEX
  8
0
 10
3.27522
 20
2.48236
 30
0.0
 40
0
 41
0
  0
VERTEX
  8
0
 10
3.27522
 20
2.53694
 30
0.0
 40
0
 41
0
  0
VERTEX
  8
0
 10
3.29281
 20
2.53694
 30
0.0
 40
0
 41
0
  0
VERTEX
  8
0
 10
3.29281
 20
2.43956
 30
0.0
 40
0
 41
0
  0
VERTEX
  8
0
 10
3.27522
 20
2.43956
 30
0.0
 40
0
 41
0
  0
VERTEX
  8
0
 10
3.24463
 20
2.49582
 30
0.0
 40
0
 41
0
  0
VERTEX
  8
0
 10
3.24463
 20
2.43956
 30
0.0
 40
0
 41
0
  0
SEQEND
 8
0
  0
POLYLINE
  8
0
 62
     250
 66
     1
 10
0
 20
0
 30
0.0
 40
0.5
 41
0.5
  0
VERTEX
  8
0
 10
0.236219
 20
3.62511
 30
0.0
 40
0.00694444
 41
0.00694444
  0
VERTEX
  8
0
 10
0.236219
 20
0.00303819
 30
0.0
 40
0.00694444
 41
0.00694444
  0
SEQEND
 8
0
  0
POLYLINE
  8
0
 62
     250
 66
     1
 10
0
 20
0
 30
0.0
 40
0.5
 41
0.5
  0
VERTEX
  8
0
 10
1.22049
 20
3.62511
 30
0.0
 40
0.00694444
 41
0.00694444
  0
VERTEX
  8
0
 10
1.22049
 20
0.00303819
 30
0.0
 40
0.00694444
 41
0.00694444
  0
SEQEND
 8
0
  0
POLYLINE
  8
0
 62
     250
 66
     1
 10
0
 20
0
 30
0.0
 40
0.5
 41
0.5
  0
VERTEX
  8
0
 10
1.3189
 20
3.62511
 30
0.0
 40
0.00694444
 41
0.00694444
  0
VERTEX
  8
0
 10
1.3189
 20
0.00303819
 30
0.0
 40
0.00694444
 41
0.00694444
  0
SEQEND
 8
0
  0
POLYLINE
  8
0
 62
     250
 66
     1
 10
0
 20
0
 30
0.0
 40
0.5
 41
0.5
  0
VERTEX
  8
0
 10
2.30317
 20
3.62511
 30
0.0
 40
0.00694444
 41
0.00694444
  0
VERTEX
  8
0
 10
2.30317
 20
0.00303819
 30
0.0
 40
0.00694444
 41
0.00694444
  0
SEQEND
 8
0
  0
POLYLINE
  8
0
 62
     250
 66
     1
 10
0
 20
0
 30
0.0
 40
0.5
 41
0.5
  0
VERTEX
  8
0
 10
2.40158
 20
3.62511
 30
0.0
 40
0.00694444
 41
0.00694444
  0
VERTEX
  8
0
 10
2.40158
 20
0.00303819
 30
0.0
 40
0.00694444
 41
0.00694444
  0
SEQEND
 8
0
  0
POLYLINE
  8
0
 62
     250
 66
     1
 10
0
 20
0
 30
0.0
 40
0.5
 41
0.5
  0
VERTEX
  8
0
 10
3.38585
 20
3.62511
 30
0.0
 40
0.00694444
 41
0.00694444
  0
VERTEX
  8
0
 10
3.38585
 20
0.00303819
 30
0.0
 40
0.00694444
 41
0.00694444
  0
SEQEND
 8
0
  0
POLYLINE
  8
0
 62
     250
 66
     1
 10
0
 20
0
 30
0.0
 40
0.5
 41
0.5
  0
VERTEX
  8
0
 10
0
 20
2.60161
 30
0.0
 40
0.00694444
 41
0.00694444
  0
VERTEX
  8
0
 10
3.62207
 20
2.60161
 30
0.0
 40
0.00694444
 41
0.00694444
  0
SEQEND
 8
0
  0
POLYLINE
  8
0
 62
     250
 66
     1
 10
0
 20
0
 30
0.0
 40
0.5
 41
0.5
  0
VERTEX
  8
0
 10
0
 20
2.36518
 30
0.0
 40
0.00694444
 41
0.00694444
  0
VERTEX
  8
0
 10
3.62207
 20
2.36518
 30
0.0
 40
0.00694444
 41
0.00694444
  0
SEQEND
 8
0
  0
POLYLINE
  8
0
 62
     250
 66
     1
 10
0
 20
0
 30
0.0
 40
0.5
 41
0.5
  0
VERTEX
  8
0
 10
0
 20
1.57775
 30
0.0
 40
0.00694444
 41
0.00694444
  0
VERTEX
  8
0
 10
3.62207
 20
1.57775
 30
0.0
 40
0.00694444
 41
0.00694444
  0
SEQEND
 8
0
  0
POLYLINE
  8
0
 62
     250
 66
     1
 10
0
 20
0
 30
0.0
 40
0.5
 41
0.5
  0
VERTEX
  8
0
 10
0
 20
1.34152
 30
0.0
 40
0.00694444
 41
0.00694444
  0
VERTEX
  8
0
 10
3.62207
 20
1.34152
 30
0.0
 40
0.00694444
 41
0.00694444
  0
SEQEND
 8
0
  0
POLYLINE
  8
0
 62
     250
 66
     1
 10
0
 20
0
 30
0.0
 40
0.5
 41
0.5
  0
VERTEX
  8
0
 10
0
 20
0.554144
 30
0.0
 40
0.00694444
 41
0.00694444
  0
VERTEX
  8
0
 10
3.62207
 20
0.554144
 30
0.0
 40
0.00694444
 41
0.00694444
  0
SEQEND
 8
0
  0
POLYLINE
  8
0
 62
     250
 66
     1
 10
0
 20
0
 30
0.0
 40
0.5
 41
0.5
  0
VERTEX
  8
0
 10
0
 20
0.239204
 30
0.0
 40
0.00694444
 41
0.00694444
  0
VERTEX
  8
0
 10
3.62207
 20
0.239204
 30
0.0
 40
0.00694444
 41
0.00694444
  0
SEQEND
 8
0
  0
ENDSEC
  0
EOF
