solid CATIA STL
  facet normal  -0.000000e+000  0.000000e+000  1.000000e+000
    outer loop
      vertex  1.450000e+001  2.920000e+001  7.225000e+001
      vertex  1.420736e+001  2.917118e+001  7.225000e+001
      vertex  1.392597e+001  2.908582e+001  7.225000e+001
    endloop
  endfacet
  facet normal  -0.000000e+000  0.000000e+000  9.999999e-001
    outer loop
      vertex  1.450000e+001  2.920000e+001  7.225000e+001
      vertex  1.392597e+001  2.908582e+001  7.225000e+001
      vertex  1.366665e+001  2.894720e+001  7.225000e+001
    endloop
  endfacet
  facet normal  -0.000000e+000  0.000000e+000  1.000000e+000
    outer loop
      vertex  1.450000e+001  2.920000e+001  7.225000e+001
      vertex  1.366665e+001  2.894720e+001  7.225000e+001
      vertex  1.343934e+001  2.876066e+001  7.225000e+001
    endloop
  endfacet
  facet normal  -0.000000e+000  0.000000e+000  1.000000e+000
    outer loop
      vertex  1.450000e+001  2.920000e+001  7.225000e+001
      vertex  1.343934e+001  2.876066e+001  7.225000e+001
      vertex  1.325280e+001  2.853336e+001  7.225000e+001
    endloop
  endfacet
  facet normal  -0.000000e+000  0.000000e+000  9.999999e-001
    outer loop
      vertex  1.450000e+001  2.920000e+001  7.225000e+001
      vertex  1.325280e+001  2.853336e+001  7.225000e+001
      vertex  1.311418e+001  2.827402e+001  7.225000e+001
    endloop
  endfacet
  facet normal  -0.000000e+000  0.000000e+000  1.000000e+000
    outer loop
      vertex  1.450000e+001  2.920000e+001  7.225000e+001
      vertex  1.311418e+001  2.827402e+001  7.225000e+001
      vertex  1.302882e+001  2.799264e+001  7.225000e+001
    endloop
  endfacet
  facet normal  -0.000000e+000  0.000000e+000  1.000000e+000
    outer loop
      vertex  1.450000e+001  2.920000e+001  7.225000e+001
      vertex  1.302882e+001  2.799264e+001  7.225000e+001
      vertex  1.300000e+001  2.770000e+001  7.225000e+001
    endloop
  endfacet
  facet normal  -0.000000e+000  0.000000e+000  1.000000e+000
    outer loop
      vertex  1.450000e+001  2.920000e+001  7.225000e+001
      vertex  1.300000e+001  2.770000e+001  7.225000e+001
      vertex  1.300000e+001  2.650000e+001  7.225000e+001
    endloop
  endfacet
  facet normal  0.000000e+000  0.000000e+000  1.000000e+000
    outer loop
      vertex  1.450000e+001  2.920000e+001  7.225000e+001
      vertex  1.300000e+001  2.650000e+001  7.225000e+001
      vertex  3.000000e+001  2.650000e+001  7.225000e+001
    endloop
  endfacet
  facet normal  0.000000e+000  0.000000e+000  1.000000e+000
    outer loop
      vertex  1.450000e+001  2.920000e+001  7.225000e+001
      vertex  3.000000e+001  2.650000e+001  7.225000e+001
      vertex  2.850000e+001  2.920000e+001  7.225000e+001
    endloop
  endfacet
  facet normal  0.000000e+000  0.000000e+000  1.000000e+000
    outer loop
      vertex  3.000000e+001  2.650000e+001  7.225000e+001
      vertex  3.000000e+001  2.770000e+001  7.225000e+001
      vertex  2.997118e+001  2.799264e+001  7.225000e+001
    endloop
  endfacet
  facet normal  0.000000e+000  0.000000e+000  1.000000e+000
    outer loop
      vertex  3.000000e+001  2.650000e+001  7.225000e+001
      vertex  2.997118e+001  2.799264e+001  7.225000e+001
      vertex  2.988582e+001  2.827402e+001  7.225000e+001
    endloop
  endfacet
  facet normal  0.000000e+000  0.000000e+000  1.000000e+000
    outer loop
      vertex  3.000000e+001  2.650000e+001  7.225000e+001
      vertex  2.988582e+001  2.827402e+001  7.225000e+001
      vertex  2.974720e+001  2.853336e+001  7.225000e+001
    endloop
  endfacet
  facet normal  0.000000e+000  0.000000e+000  1.000000e+000
    outer loop
      vertex  3.000000e+001  2.650000e+001  7.225000e+001
      vertex  2.974720e+001  2.853336e+001  7.225000e+001
      vertex  2.956066e+001  2.876066e+001  7.225000e+001
    endloop
  endfacet
  facet normal  0.000000e+000  0.000000e+000  1.000000e+000
    outer loop
      vertex  3.000000e+001  2.650000e+001  7.225000e+001
      vertex  2.956066e+001  2.876066e+001  7.225000e+001
      vertex  2.933335e+001  2.894720e+001  7.225000e+001
    endloop
  endfacet
  facet normal  0.000000e+000  0.000000e+000  1.000000e+000
    outer loop
      vertex  3.000000e+001  2.650000e+001  7.225000e+001
      vertex  2.933335e+001  2.894720e+001  7.225000e+001
      vertex  2.907402e+001  2.908582e+001  7.225000e+001
    endloop
  endfacet
  facet normal  0.000000e+000  0.000000e+000  9.999999e-001
    outer loop
      vertex  3.000000e+001  2.650000e+001  7.225000e+001
      vertex  2.907402e+001  2.908582e+001  7.225000e+001
      vertex  2.879263e+001  2.917118e+001  7.225000e+001
    endloop
  endfacet
  facet normal  0.000000e+000  0.000000e+000  1.000000e+000
    outer loop
      vertex  3.000000e+001  2.650000e+001  7.225000e+001
      vertex  2.879263e+001  2.917118e+001  7.225000e+001
      vertex  2.850000e+001  2.920000e+001  7.225000e+001
    endloop
  endfacet
  facet normal  -0.000000e+000  -0.000000e+000 -1.000000e+000
    outer loop
      vertex  2.850000e+001  2.920000e+001  6.975000e+001
      vertex  2.879263e+001  2.917118e+001  6.975000e+001
      vertex  2.907402e+001  2.908582e+001  6.975000e+001
    endloop
  endfacet
  facet normal  -0.000000e+000  -0.000000e+000 -1.000000e+000
    outer loop
      vertex  2.850000e+001  2.920000e+001  6.975000e+001
      vertex  2.907402e+001  2.908582e+001  6.975000e+001
      vertex  2.933335e+001  2.894720e+001  6.975000e+001
    endloop
  endfacet
  facet normal  -0.000000e+000  -0.000000e+000 -1.000000e+000
    outer loop
      vertex  2.850000e+001  2.920000e+001  6.975000e+001
      vertex  2.933335e+001  2.894720e+001  6.975000e+001
      vertex  2.956066e+001  2.876066e+001  6.975000e+001
    endloop
  endfacet
  facet normal  -0.000000e+000  -0.000000e+000 -1.000000e+000
    outer loop
      vertex  2.850000e+001  2.920000e+001  6.975000e+001
      vertex  2.956066e+001  2.876066e+001  6.975000e+001
      vertex  2.974720e+001  2.853336e+001  6.975000e+001
    endloop
  endfacet
  facet normal  -0.000000e+000  -0.000000e+000 -1.000000e+000
    outer loop
      vertex  2.850000e+001  2.920000e+001  6.975000e+001
      vertex  2.974720e+001  2.853336e+001  6.975000e+001
      vertex  2.988582e+001  2.827402e+001  6.975000e+001
    endloop
  endfacet
  facet normal  -0.000000e+000  -0.000000e+000 -1.000000e+000
    outer loop
      vertex  2.850000e+001  2.920000e+001  6.975000e+001
      vertex  2.988582e+001  2.827402e+001  6.975000e+001
      vertex  2.997118e+001  2.799264e+001  6.975000e+001
    endloop
  endfacet
  facet normal  -0.000000e+000  -0.000000e+000 -1.000000e+000
    outer loop
      vertex  2.850000e+001  2.920000e+001  6.975000e+001
      vertex  2.997118e+001  2.799264e+001  6.975000e+001
      vertex  3.000000e+001  2.770000e+001  6.975000e+001
    endloop
  endfacet
  facet normal  -0.000000e+000  -0.000000e+000 -1.000000e+000
    outer loop
      vertex  2.850000e+001  2.920000e+001  6.975000e+001
      vertex  3.000000e+001  2.770000e+001  6.975000e+001
      vertex  3.000000e+001  2.650000e+001  6.975000e+001
    endloop
  endfacet
  facet normal  0.000000e+000  0.000000e+000 -1.000000e+000
    outer loop
      vertex  2.850000e+001  2.920000e+001  6.975000e+001
      vertex  3.000000e+001  2.650000e+001  6.975000e+001
      vertex  1.300000e+001  2.650000e+001  6.975000e+001
    endloop
  endfacet
  facet normal  0.000000e+000  0.000000e+000 -1.000000e+000
    outer loop
      vertex  2.850000e+001  2.920000e+001  6.975000e+001
      vertex  1.300000e+001  2.650000e+001  6.975000e+001
      vertex  1.450000e+001  2.920000e+001  6.975000e+001
    endloop
  endfacet
  facet normal  0.000000e+000  0.000000e+000 -1.000000e+000
    outer loop
      vertex  1.300000e+001  2.650000e+001  6.975000e+001
      vertex  1.300000e+001  2.770000e+001  6.975000e+001
      vertex  1.302882e+001  2.799264e+001  6.975000e+001
    endloop
  endfacet
  facet normal  0.000000e+000  -0.000000e+000 -1.000000e+000
    outer loop
      vertex  1.300000e+001  2.650000e+001  6.975000e+001
      vertex  1.302882e+001  2.799264e+001  6.975000e+001
      vertex  1.311418e+001  2.827402e+001  6.975000e+001
    endloop
  endfacet
  facet normal  0.000000e+000  -0.000000e+000 -1.000000e+000
    outer loop
      vertex  1.300000e+001  2.650000e+001  6.975000e+001
      vertex  1.311418e+001  2.827402e+001  6.975000e+001
      vertex  1.325280e+001  2.853336e+001  6.975000e+001
    endloop
  endfacet
  facet normal  0.000000e+000  -0.000000e+000 -1.000000e+000
    outer loop
      vertex  1.300000e+001  2.650000e+001  6.975000e+001
      vertex  1.325280e+001  2.853336e+001  6.975000e+001
      vertex  1.343934e+001  2.876066e+001  6.975000e+001
    endloop
  endfacet
  facet normal  0.000000e+000  -0.000000e+000 -1.000000e+000
    outer loop
      vertex  1.300000e+001  2.650000e+001  6.975000e+001
      vertex  1.343934e+001  2.876066e+001  6.975000e+001
      vertex  1.366665e+001  2.894720e+001  6.975000e+001
    endloop
  endfacet
  facet normal  0.000000e+000  -0.000000e+000 -1.000000e+000
    outer loop
      vertex  1.300000e+001  2.650000e+001  6.975000e+001
      vertex  1.366665e+001  2.894720e+001  6.975000e+001
      vertex  1.392597e+001  2.908582e+001  6.975000e+001
    endloop
  endfacet
  facet normal  0.000000e+000  -0.000000e+000 -1.000000e+000
    outer loop
      vertex  1.300000e+001  2.650000e+001  6.975000e+001
      vertex  1.392597e+001  2.908582e+001  6.975000e+001
      vertex  1.420736e+001  2.917118e+001  6.975000e+001
    endloop
  endfacet
  facet normal  0.000000e+000  -0.000000e+000 -9.999999e-001
    outer loop
      vertex  1.300000e+001  2.650000e+001  6.975000e+001
      vertex  1.420736e+001  2.917118e+001  6.975000e+001
      vertex  1.450000e+001  2.920000e+001  6.975000e+001
    endloop
  endfacet
  facet normal  0.000000e+000  1.000000e+000  0.000000e+000
    outer loop
      vertex  2.850000e+001  2.920000e+001  6.975000e+001
      vertex  1.450000e+001  2.920000e+001  6.975000e+001
      vertex  2.850000e+001  2.920000e+001  7.225000e+001
    endloop
  endfacet
  facet normal  0.000000e+000  1.000000e+000  0.000000e+000
    outer loop
      vertex  2.850000e+001  2.920000e+001  7.225000e+001
      vertex  1.450000e+001  2.920000e+001  6.975000e+001
      vertex  1.450000e+001  2.920000e+001  7.225000e+001
    endloop
  endfacet
  facet normal  1.000000e+000  0.000000e+000  0.000000e+000
    outer loop
      vertex  3.000000e+001  2.650000e+001  7.225000e+001
      vertex  3.000000e+001  2.650000e+001  6.975000e+001
      vertex  3.000000e+001  2.770000e+001  7.225000e+001
    endloop
  endfacet
  facet normal  1.000000e+000  0.000000e+000  0.000000e+000
    outer loop
      vertex  3.000000e+001  2.770000e+001  7.225000e+001
      vertex  3.000000e+001  2.650000e+001  6.975000e+001
      vertex  3.000000e+001  2.770000e+001  6.975000e+001
    endloop
  endfacet
  facet normal  9.801685e-002  9.951847e-001  0.000000e+000
    outer loop
      vertex  2.850000e+001  2.920000e+001  6.975000e+001
      vertex  2.850000e+001  2.920000e+001  7.225000e+001
      vertex  2.879263e+001  2.917118e+001  6.975000e+001
    endloop
  endfacet
  facet normal  9.801685e-002  9.951847e-001  -0.000000e+000
    outer loop
      vertex  2.879263e+001  2.917118e+001  6.975000e+001
      vertex  2.850000e+001  2.920000e+001  7.225000e+001
      vertex  2.879263e+001  2.917118e+001  7.225000e+001
    endloop
  endfacet
  facet normal  2.902880e-001  9.569393e-001  0.000000e+000
    outer loop
      vertex  2.879263e+001  2.917118e+001  6.975000e+001
      vertex  2.879263e+001  2.917118e+001  7.225000e+001
      vertex  2.907402e+001  2.908582e+001  6.975000e+001
    endloop
  endfacet
  facet normal  2.902880e-001  9.569393e-001  -0.000000e+000
    outer loop
      vertex  2.907402e+001  2.908582e+001  6.975000e+001
      vertex  2.879263e+001  2.917118e+001  7.225000e+001
      vertex  2.907402e+001  2.908582e+001  7.225000e+001
    endloop
  endfacet
  facet normal  4.713954e-001  8.819220e-001  0.000000e+000
    outer loop
      vertex  2.907402e+001  2.908582e+001  6.975000e+001
      vertex  2.907402e+001  2.908582e+001  7.225000e+001
      vertex  2.933335e+001  2.894720e+001  6.975000e+001
    endloop
  endfacet
  facet normal  4.713954e-001  8.819220e-001  -0.000000e+000
    outer loop
      vertex  2.933335e+001  2.894720e+001  6.975000e+001
      vertex  2.907402e+001  2.908582e+001  7.225000e+001
      vertex  2.933335e+001  2.894720e+001  7.225000e+001
    endloop
  endfacet
  facet normal  6.343942e-001  7.730096e-001  0.000000e+000
    outer loop
      vertex  2.933335e+001  2.894720e+001  6.975000e+001
      vertex  2.933335e+001  2.894720e+001  7.225000e+001
      vertex  2.956066e+001  2.876066e+001  6.975000e+001
    endloop
  endfacet
  facet normal  6.343942e-001  7.730096e-001  -0.000000e+000
    outer loop
      vertex  2.956066e+001  2.876066e+001  6.975000e+001
      vertex  2.933335e+001  2.894720e+001  7.225000e+001
      vertex  2.956066e+001  2.876066e+001  7.225000e+001
    endloop
  endfacet
  facet normal  7.730096e-001  6.343942e-001  0.000000e+000
    outer loop
      vertex  2.956066e+001  2.876066e+001  6.975000e+001
      vertex  2.956066e+001  2.876066e+001  7.225000e+001
      vertex  2.974720e+001  2.853336e+001  6.975000e+001
    endloop
  endfacet
  facet normal  7.730096e-001  6.343942e-001  -0.000000e+000
    outer loop
      vertex  2.974720e+001  2.853336e+001  6.975000e+001
      vertex  2.956066e+001  2.876066e+001  7.225000e+001
      vertex  2.974720e+001  2.853336e+001  7.225000e+001
    endloop
  endfacet
  facet normal  8.819220e-001  4.713954e-001  0.000000e+000
    outer loop
      vertex  2.974720e+001  2.853336e+001  6.975000e+001
      vertex  2.974720e+001  2.853336e+001  7.225000e+001
      vertex  2.988582e+001  2.827402e+001  6.975000e+001
    endloop
  endfacet
  facet normal  8.819220e-001  4.713954e-001  -0.000000e+000
    outer loop
      vertex  2.988582e+001  2.827402e+001  6.975000e+001
      vertex  2.974720e+001  2.853336e+001  7.225000e+001
      vertex  2.988582e+001  2.827402e+001  7.225000e+001
    endloop
  endfacet
  facet normal  9.569393e-001  2.902880e-001  0.000000e+000
    outer loop
      vertex  2.988582e+001  2.827402e+001  6.975000e+001
      vertex  2.988582e+001  2.827402e+001  7.225000e+001
      vertex  2.997118e+001  2.799264e+001  6.975000e+001
    endloop
  endfacet
  facet normal  9.569393e-001  2.902880e-001  -0.000000e+000
    outer loop
      vertex  2.997118e+001  2.799264e+001  6.975000e+001
      vertex  2.988582e+001  2.827402e+001  7.225000e+001
      vertex  2.997118e+001  2.799264e+001  7.225000e+001
    endloop
  endfacet
  facet normal  9.951847e-001  9.801685e-002  0.000000e+000
    outer loop
      vertex  2.997118e+001  2.799264e+001  6.975000e+001
      vertex  2.997118e+001  2.799264e+001  7.225000e+001
      vertex  3.000000e+001  2.770000e+001  6.975000e+001
    endloop
  endfacet
  facet normal  9.951847e-001  9.801685e-002  -0.000000e+000
    outer loop
      vertex  3.000000e+001  2.770000e+001  6.975000e+001
      vertex  2.997118e+001  2.799264e+001  7.225000e+001
      vertex  3.000000e+001  2.770000e+001  7.225000e+001
    endloop
  endfacet
  facet normal -1.000000e+000  0.000000e+000  0.000000e+000
    outer loop
      vertex  1.300000e+001  2.650000e+001  6.975000e+001
      vertex  1.300000e+001  2.650000e+001  7.225000e+001
      vertex  1.300000e+001  2.770000e+001  6.975000e+001
    endloop
  endfacet
  facet normal -1.000000e+000  0.000000e+000  0.000000e+000
    outer loop
      vertex  1.300000e+001  2.770000e+001  6.975000e+001
      vertex  1.300000e+001  2.650000e+001  7.225000e+001
      vertex  1.300000e+001  2.770000e+001  7.225000e+001
    endloop
  endfacet
  facet normal -9.951847e-001  9.801685e-002  0.000000e+000
    outer loop
      vertex  1.300000e+001  2.770000e+001  6.975000e+001
      vertex  1.300000e+001  2.770000e+001  7.225000e+001
      vertex  1.302882e+001  2.799264e+001  6.975000e+001
    endloop
  endfacet
  facet normal -9.951847e-001  9.801685e-002  0.000000e+000
    outer loop
      vertex  1.302882e+001  2.799264e+001  6.975000e+001
      vertex  1.300000e+001  2.770000e+001  7.225000e+001
      vertex  1.302882e+001  2.799264e+001  7.225000e+001
    endloop
  endfacet
  facet normal -9.569402e-001  2.902851e-001  0.000000e+000
    outer loop
      vertex  1.302882e+001  2.799264e+001  6.975000e+001
      vertex  1.302882e+001  2.799264e+001  7.225000e+001
      vertex  1.311418e+001  2.827402e+001  6.975000e+001
    endloop
  endfacet
  facet normal -9.569402e-001  2.902851e-001  0.000000e+000
    outer loop
      vertex  1.311418e+001  2.827402e+001  6.975000e+001
      vertex  1.302882e+001  2.799264e+001  7.225000e+001
      vertex  1.311418e+001  2.827402e+001  7.225000e+001
    endloop
  endfacet
  facet normal -8.819220e-001  4.713954e-001  0.000000e+000
    outer loop
      vertex  1.311418e+001  2.827402e+001  6.975000e+001
      vertex  1.311418e+001  2.827402e+001  7.225000e+001
      vertex  1.325280e+001  2.853336e+001  6.975000e+001
    endloop
  endfacet
  facet normal -8.819220e-001  4.713954e-001  0.000000e+000
    outer loop
      vertex  1.325280e+001  2.853336e+001  6.975000e+001
      vertex  1.311418e+001  2.827402e+001  7.225000e+001
      vertex  1.325280e+001  2.853336e+001  7.225000e+001
    endloop
  endfacet
  facet normal -7.730096e-001  6.343942e-001  0.000000e+000
    outer loop
      vertex  1.325280e+001  2.853336e+001  6.975000e+001
      vertex  1.325280e+001  2.853336e+001  7.225000e+001
      vertex  1.343934e+001  2.876066e+001  6.975000e+001
    endloop
  endfacet
  facet normal -7.730096e-001  6.343942e-001  0.000000e+000
    outer loop
      vertex  1.343934e+001  2.876066e+001  6.975000e+001
      vertex  1.325280e+001  2.853336e+001  7.225000e+001
      vertex  1.343934e+001  2.876066e+001  7.225000e+001
    endloop
  endfacet
  facet normal -6.343927e-001  7.730110e-001  0.000000e+000
    outer loop
      vertex  1.343934e+001  2.876066e+001  6.975000e+001
      vertex  1.343934e+001  2.876066e+001  7.225000e+001
      vertex  1.366665e+001  2.894720e+001  6.975000e+001
    endloop
  endfacet
  facet normal -6.343927e-001  7.730110e-001  0.000000e+000
    outer loop
      vertex  1.366665e+001  2.894720e+001  6.975000e+001
      vertex  1.343934e+001  2.876066e+001  7.225000e+001
      vertex  1.366665e+001  2.894720e+001  7.225000e+001
    endloop
  endfacet
  facet normal -4.713967e-001  8.819212e-001  0.000000e+000
    outer loop
      vertex  1.366665e+001  2.894720e+001  6.975000e+001
      vertex  1.366665e+001  2.894720e+001  7.225000e+001
      vertex  1.392597e+001  2.908582e+001  6.975000e+001
    endloop
  endfacet
  facet normal -4.713967e-001  8.819212e-001  0.000000e+000
    outer loop
      vertex  1.392597e+001  2.908582e+001  6.975000e+001
      vertex  1.366665e+001  2.894720e+001  7.225000e+001
      vertex  1.392597e+001  2.908582e+001  7.225000e+001
    endloop
  endfacet
  facet normal -2.902880e-001  9.569393e-001  0.000000e+000
    outer loop
      vertex  1.392597e+001  2.908582e+001  6.975000e+001
      vertex  1.392597e+001  2.908582e+001  7.225000e+001
      vertex  1.420736e+001  2.917118e+001  6.975000e+001
    endloop
  endfacet
  facet normal -2.902880e-001  9.569393e-001  0.000000e+000
    outer loop
      vertex  1.420736e+001  2.917118e+001  6.975000e+001
      vertex  1.392597e+001  2.908582e+001  7.225000e+001
      vertex  1.420736e+001  2.917118e+001  7.225000e+001
    endloop
  endfacet
  facet normal -9.801655e-002  9.951848e-001  0.000000e+000
    outer loop
      vertex  1.420736e+001  2.917118e+001  6.975000e+001
      vertex  1.420736e+001  2.917118e+001  7.225000e+001
      vertex  1.450000e+001  2.920000e+001  6.975000e+001
    endloop
  endfacet
  facet normal -9.801655e-002  9.951848e-001  0.000000e+000
    outer loop
      vertex  1.450000e+001  2.920000e+001  6.975000e+001
      vertex  1.420736e+001  2.917118e+001  7.225000e+001
      vertex  1.450000e+001  2.920000e+001  7.225000e+001
    endloop
  endfacet
  facet normal  0.000000e+000  1.000000e+000  0.000000e+000
    outer loop
      vertex -1.450000e+001  2.920000e+001  6.975000e+001
      vertex -2.850000e+001  2.920000e+001  6.975000e+001
      vertex -1.450000e+001  2.920000e+001  7.225000e+001
    endloop
  endfacet
  facet normal  0.000000e+000  1.000000e+000  0.000000e+000
    outer loop
      vertex -1.450000e+001  2.920000e+001  7.225000e+001
      vertex -2.850000e+001  2.920000e+001  6.975000e+001
      vertex -2.850000e+001  2.920000e+001  7.225000e+001
    endloop
  endfacet
  facet normal  -0.000000e+000  -0.000000e+000 -1.000000e+000
    outer loop
      vertex -1.450000e+001  2.920000e+001  6.975000e+001
      vertex -1.420736e+001  2.917118e+001  6.975000e+001
      vertex -1.392597e+001  2.908582e+001  6.975000e+001
    endloop
  endfacet
  facet normal  -0.000000e+000  -0.000000e+000 -9.999999e-001
    outer loop
      vertex -1.450000e+001  2.920000e+001  6.975000e+001
      vertex -1.392597e+001  2.908582e+001  6.975000e+001
      vertex -1.366665e+001  2.894720e+001  6.975000e+001
    endloop
  endfacet
  facet normal  -0.000000e+000  -0.000000e+000 -1.000000e+000
    outer loop
      vertex -1.450000e+001  2.920000e+001  6.975000e+001
      vertex -1.366665e+001  2.894720e+001  6.975000e+001
      vertex -1.343934e+001  2.876066e+001  6.975000e+001
    endloop
  endfacet
  facet normal  -0.000000e+000  -0.000000e+000 -1.000000e+000
    outer loop
      vertex -1.450000e+001  2.920000e+001  6.975000e+001
      vertex -1.343934e+001  2.876066e+001  6.975000e+001
      vertex -1.325280e+001  2.853336e+001  6.975000e+001
    endloop
  endfacet
  facet normal  -0.000000e+000  -0.000000e+000 -9.999999e-001
    outer loop
      vertex -1.450000e+001  2.920000e+001  6.975000e+001
      vertex -1.325280e+001  2.853336e+001  6.975000e+001
      vertex -1.311418e+001  2.827402e+001  6.975000e+001
    endloop
  endfacet
  facet normal  -0.000000e+000  -0.000000e+000 -1.000000e+000
    outer loop
      vertex -1.450000e+001  2.920000e+001  6.975000e+001
      vertex -1.311418e+001  2.827402e+001  6.975000e+001
      vertex -1.302882e+001  2.799264e+001  6.975000e+001
    endloop
  endfacet
  facet normal  -0.000000e+000  -0.000000e+000 -1.000000e+000
    outer loop
      vertex -1.450000e+001  2.920000e+001  6.975000e+001
      vertex -1.302882e+001  2.799264e+001  6.975000e+001
      vertex -1.300000e+001  2.770000e+001  6.975000e+001
    endloop
  endfacet
  facet normal  -0.000000e+000  -0.000000e+000 -1.000000e+000
    outer loop
      vertex -1.450000e+001  2.920000e+001  6.975000e+001
      vertex -1.300000e+001  2.770000e+001  6.975000e+001
      vertex -1.300000e+001  2.650000e+001  6.975000e+001
    endloop
  endfacet
  facet normal  0.000000e+000  0.000000e+000 -1.000000e+000
    outer loop
      vertex -1.450000e+001  2.920000e+001  6.975000e+001
      vertex -1.300000e+001  2.650000e+001  6.975000e+001
      vertex -3.000000e+001  2.650000e+001  6.975000e+001
    endloop
  endfacet
  facet normal  0.000000e+000  0.000000e+000 -1.000000e+000
    outer loop
      vertex -1.450000e+001  2.920000e+001  6.975000e+001
      vertex -3.000000e+001  2.650000e+001  6.975000e+001
      vertex -2.850000e+001  2.920000e+001  6.975000e+001
    endloop
  endfacet
  facet normal  0.000000e+000  0.000000e+000 -1.000000e+000
    outer loop
      vertex -3.000000e+001  2.650000e+001  6.975000e+001
      vertex -3.000000e+001  2.770000e+001  6.975000e+001
      vertex -2.997118e+001  2.799264e+001  6.975000e+001
    endloop
  endfacet
  facet normal  0.000000e+000  -0.000000e+000 -1.000000e+000
    outer loop
      vertex -3.000000e+001  2.650000e+001  6.975000e+001
      vertex -2.997118e+001  2.799264e+001  6.975000e+001
      vertex -2.988582e+001  2.827402e+001  6.975000e+001
    endloop
  endfacet
  facet normal  0.000000e+000  -0.000000e+000 -1.000000e+000
    outer loop
      vertex -3.000000e+001  2.650000e+001  6.975000e+001
      vertex -2.988582e+001  2.827402e+001  6.975000e+001
      vertex -2.974720e+001  2.853336e+001  6.975000e+001
    endloop
  endfacet
  facet normal  0.000000e+000  -0.000000e+000 -1.000000e+000
    outer loop
      vertex -3.000000e+001  2.650000e+001  6.975000e+001
      vertex -2.974720e+001  2.853336e+001  6.975000e+001
      vertex -2.956066e+001  2.876066e+001  6.975000e+001
    endloop
  endfacet
  facet normal  0.000000e+000  -0.000000e+000 -1.000000e+000
    outer loop
      vertex -3.000000e+001  2.650000e+001  6.975000e+001
      vertex -2.956066e+001  2.876066e+001  6.975000e+001
      vertex -2.933335e+001  2.894720e+001  6.975000e+001
    endloop
  endfacet
  facet normal  0.000000e+000  -0.000000e+000 -1.000000e+000
    outer loop
      vertex -3.000000e+001  2.650000e+001  6.975000e+001
      vertex -2.933335e+001  2.894720e+001  6.975000e+001
      vertex -2.907402e+001  2.908582e+001  6.975000e+001
    endloop
  endfacet
  facet normal  0.000000e+000  -0.000000e+000 -9.999999e-001
    outer loop
      vertex -3.000000e+001  2.650000e+001  6.975000e+001
      vertex -2.907402e+001  2.908582e+001  6.975000e+001
      vertex -2.879263e+001  2.917118e+001  6.975000e+001
    endloop
  endfacet
  facet normal  0.000000e+000  -0.000000e+000 -1.000000e+000
    outer loop
      vertex -3.000000e+001  2.650000e+001  6.975000e+001
      vertex -2.879263e+001  2.917118e+001  6.975000e+001
      vertex -2.850000e+001  2.920000e+001  6.975000e+001
    endloop
  endfacet
  facet normal  -0.000000e+000  0.000000e+000  1.000000e+000
    outer loop
      vertex -2.850000e+001  2.920000e+001  7.225000e+001
      vertex -2.879263e+001  2.917118e+001  7.225000e+001
      vertex -2.907402e+001  2.908582e+001  7.225000e+001
    endloop
  endfacet
  facet normal  -0.000000e+000  0.000000e+000  1.000000e+000
    outer loop
      vertex -2.850000e+001  2.920000e+001  7.225000e+001
      vertex -2.907402e+001  2.908582e+001  7.225000e+001
      vertex -2.933335e+001  2.894720e+001  7.225000e+001
    endloop
  endfacet
  facet normal  -0.000000e+000  0.000000e+000  1.000000e+000
    outer loop
      vertex -2.850000e+001  2.920000e+001  7.225000e+001
      vertex -2.933335e+001  2.894720e+001  7.225000e+001
      vertex -2.956066e+001  2.876066e+001  7.225000e+001
    endloop
  endfacet
  facet normal  -0.000000e+000  0.000000e+000  1.000000e+000
    outer loop
      vertex -2.850000e+001  2.920000e+001  7.225000e+001
      vertex -2.956066e+001  2.876066e+001  7.225000e+001
      vertex -2.974720e+001  2.853336e+001  7.225000e+001
    endloop
  endfacet
  facet normal  -0.000000e+000  0.000000e+000  1.000000e+000
    outer loop
      vertex -2.850000e+001  2.920000e+001  7.225000e+001
      vertex -2.974720e+001  2.853336e+001  7.225000e+001
      vertex -2.988582e+001  2.827402e+001  7.225000e+001
    endloop
  endfacet
  facet normal  -0.000000e+000  0.000000e+000  1.000000e+000
    outer loop
      vertex -2.850000e+001  2.920000e+001  7.225000e+001
      vertex -2.988582e+001  2.827402e+001  7.225000e+001
      vertex -2.997118e+001  2.799264e+001  7.225000e+001
    endloop
  endfacet
  facet normal  -0.000000e+000  0.000000e+000  1.000000e+000
    outer loop
      vertex -2.850000e+001  2.920000e+001  7.225000e+001
      vertex -2.997118e+001  2.799264e+001  7.225000e+001
      vertex -3.000000e+001  2.770000e+001  7.225000e+001
    endloop
  endfacet
  facet normal  -0.000000e+000  0.000000e+000  1.000000e+000
    outer loop
      vertex -2.850000e+001  2.920000e+001  7.225000e+001
      vertex -3.000000e+001  2.770000e+001  7.225000e+001
      vertex -3.000000e+001  2.650000e+001  7.225000e+001
    endloop
  endfacet
  facet normal  0.000000e+000  0.000000e+000  1.000000e+000
    outer loop
      vertex -2.850000e+001  2.920000e+001  7.225000e+001
      vertex -3.000000e+001  2.650000e+001  7.225000e+001
      vertex -1.300000e+001  2.650000e+001  7.225000e+001
    endloop
  endfacet
  facet normal  0.000000e+000  0.000000e+000  1.000000e+000
    outer loop
      vertex -2.850000e+001  2.920000e+001  7.225000e+001
      vertex -1.300000e+001  2.650000e+001  7.225000e+001
      vertex -1.450000e+001  2.920000e+001  7.225000e+001
    endloop
  endfacet
  facet normal  0.000000e+000  0.000000e+000  1.000000e+000
    outer loop
      vertex -1.300000e+001  2.650000e+001  7.225000e+001
      vertex -1.300000e+001  2.770000e+001  7.225000e+001
      vertex -1.302882e+001  2.799264e+001  7.225000e+001
    endloop
  endfacet
  facet normal  0.000000e+000  0.000000e+000  1.000000e+000
    outer loop
      vertex -1.300000e+001  2.650000e+001  7.225000e+001
      vertex -1.302882e+001  2.799264e+001  7.225000e+001
      vertex -1.311418e+001  2.827402e+001  7.225000e+001
    endloop
  endfacet
  facet normal  0.000000e+000  0.000000e+000  1.000000e+000
    outer loop
      vertex -1.300000e+001  2.650000e+001  7.225000e+001
      vertex -1.311418e+001  2.827402e+001  7.225000e+001
      vertex -1.325280e+001  2.853336e+001  7.225000e+001
    endloop
  endfacet
  facet normal  0.000000e+000  0.000000e+000  1.000000e+000
    outer loop
      vertex -1.300000e+001  2.650000e+001  7.225000e+001
      vertex -1.325280e+001  2.853336e+001  7.225000e+001
      vertex -1.343934e+001  2.876066e+001  7.225000e+001
    endloop
  endfacet
  facet normal  0.000000e+000  0.000000e+000  1.000000e+000
    outer loop
      vertex -1.300000e+001  2.650000e+001  7.225000e+001
      vertex -1.343934e+001  2.876066e+001  7.225000e+001
      vertex -1.366665e+001  2.894720e+001  7.225000e+001
    endloop
  endfacet
  facet normal  0.000000e+000  0.000000e+000  1.000000e+000
    outer loop
      vertex -1.300000e+001  2.650000e+001  7.225000e+001
      vertex -1.366665e+001  2.894720e+001  7.225000e+001
      vertex -1.392597e+001  2.908582e+001  7.225000e+001
    endloop
  endfacet
  facet normal  0.000000e+000  0.000000e+000  1.000000e+000
    outer loop
      vertex -1.300000e+001  2.650000e+001  7.225000e+001
      vertex -1.392597e+001  2.908582e+001  7.225000e+001
      vertex -1.420736e+001  2.917118e+001  7.225000e+001
    endloop
  endfacet
  facet normal  0.000000e+000  0.000000e+000  9.999999e-001
    outer loop
      vertex -1.300000e+001  2.650000e+001  7.225000e+001
      vertex -1.420736e+001  2.917118e+001  7.225000e+001
      vertex -1.450000e+001  2.920000e+001  7.225000e+001
    endloop
  endfacet
  facet normal -1.000000e+000  -0.000000e+000  0.000000e+000
    outer loop
      vertex -3.000000e+001  2.650000e+001  7.225000e+001
      vertex -3.000000e+001  2.770000e+001  7.225000e+001
      vertex -3.000000e+001  2.650000e+001  6.975000e+001
    endloop
  endfacet
  facet normal -1.000000e+000  0.000000e+000  0.000000e+000
    outer loop
      vertex -3.000000e+001  2.650000e+001  6.975000e+001
      vertex -3.000000e+001  2.770000e+001  7.225000e+001
      vertex -3.000000e+001  2.770000e+001  6.975000e+001
    endloop
  endfacet
  facet normal -9.801685e-002  9.951847e-001  0.000000e+000
    outer loop
      vertex -2.850000e+001  2.920000e+001  7.225000e+001
      vertex -2.850000e+001  2.920000e+001  6.975000e+001
      vertex -2.879263e+001  2.917118e+001  7.225000e+001
    endloop
  endfacet
  facet normal -9.801685e-002  9.951847e-001  0.000000e+000
    outer loop
      vertex -2.879263e+001  2.917118e+001  7.225000e+001
      vertex -2.850000e+001  2.920000e+001  6.975000e+001
      vertex -2.879263e+001  2.917118e+001  6.975000e+001
    endloop
  endfacet
  facet normal -2.902880e-001  9.569393e-001  0.000000e+000
    outer loop
      vertex -2.879263e+001  2.917118e+001  7.225000e+001
      vertex -2.879263e+001  2.917118e+001  6.975000e+001
      vertex -2.907402e+001  2.908582e+001  7.225000e+001
    endloop
  endfacet
  facet normal -2.902880e-001  9.569393e-001  0.000000e+000
    outer loop
      vertex -2.907402e+001  2.908582e+001  7.225000e+001
      vertex -2.879263e+001  2.917118e+001  6.975000e+001
      vertex -2.907402e+001  2.908582e+001  6.975000e+001
    endloop
  endfacet
  facet normal -4.713954e-001  8.819220e-001  0.000000e+000
    outer loop
      vertex -2.907402e+001  2.908582e+001  7.225000e+001
      vertex -2.907402e+001  2.908582e+001  6.975000e+001
      vertex -2.933335e+001  2.894720e+001  7.225000e+001
    endloop
  endfacet
  facet normal -4.713954e-001  8.819220e-001  0.000000e+000
    outer loop
      vertex -2.933335e+001  2.894720e+001  7.225000e+001
      vertex -2.907402e+001  2.908582e+001  6.975000e+001
      vertex -2.933335e+001  2.894720e+001  6.975000e+001
    endloop
  endfacet
  facet normal -6.343942e-001  7.730096e-001  0.000000e+000
    outer loop
      vertex -2.933335e+001  2.894720e+001  7.225000e+001
      vertex -2.933335e+001  2.894720e+001  6.975000e+001
      vertex -2.956066e+001  2.876066e+001  7.225000e+001
    endloop
  endfacet
  facet normal -6.343942e-001  7.730096e-001  0.000000e+000
    outer loop
      vertex -2.956066e+001  2.876066e+001  7.225000e+001
      vertex -2.933335e+001  2.894720e+001  6.975000e+001
      vertex -2.956066e+001  2.876066e+001  6.975000e+001
    endloop
  endfacet
  facet normal -7.730096e-001  6.343942e-001  0.000000e+000
    outer loop
      vertex -2.956066e+001  2.876066e+001  7.225000e+001
      vertex -2.956066e+001  2.876066e+001  6.975000e+001
      vertex -2.974720e+001  2.853336e+001  7.225000e+001
    endloop
  endfacet
  facet normal -7.730096e-001  6.343942e-001  0.000000e+000
    outer loop
      vertex -2.974720e+001  2.853336e+001  7.225000e+001
      vertex -2.956066e+001  2.876066e+001  6.975000e+001
      vertex -2.974720e+001  2.853336e+001  6.975000e+001
    endloop
  endfacet
  facet normal -8.819220e-001  4.713954e-001  0.000000e+000
    outer loop
      vertex -2.974720e+001  2.853336e+001  7.225000e+001
      vertex -2.974720e+001  2.853336e+001  6.975000e+001
      vertex -2.988582e+001  2.827402e+001  7.225000e+001
    endloop
  endfacet
  facet normal -8.819220e-001  4.713954e-001  0.000000e+000
    outer loop
      vertex -2.988582e+001  2.827402e+001  7.225000e+001
      vertex -2.974720e+001  2.853336e+001  6.975000e+001
      vertex -2.988582e+001  2.827402e+001  6.975000e+001
    endloop
  endfacet
  facet normal -9.569393e-001  2.902880e-001  0.000000e+000
    outer loop
      vertex -2.988582e+001  2.827402e+001  7.225000e+001
      vertex -2.988582e+001  2.827402e+001  6.975000e+001
      vertex -2.997118e+001  2.799264e+001  7.225000e+001
    endloop
  endfacet
  facet normal -9.569393e-001  2.902880e-001  0.000000e+000
    outer loop
      vertex -2.997118e+001  2.799264e+001  7.225000e+001
      vertex -2.988582e+001  2.827402e+001  6.975000e+001
      vertex -2.997118e+001  2.799264e+001  6.975000e+001
    endloop
  endfacet
  facet normal -9.951847e-001  9.801685e-002  0.000000e+000
    outer loop
      vertex -2.997118e+001  2.799264e+001  7.225000e+001
      vertex -2.997118e+001  2.799264e+001  6.975000e+001
      vertex -3.000000e+001  2.770000e+001  7.225000e+001
    endloop
  endfacet
  facet normal -9.951847e-001  9.801685e-002  0.000000e+000
    outer loop
      vertex -3.000000e+001  2.770000e+001  7.225000e+001
      vertex -2.997118e+001  2.799264e+001  6.975000e+001
      vertex -3.000000e+001  2.770000e+001  6.975000e+001
    endloop
  endfacet
  facet normal  1.000000e+000  0.000000e+000  0.000000e+000
    outer loop
      vertex -1.300000e+001  2.650000e+001  6.975000e+001
      vertex -1.300000e+001  2.770000e+001  6.975000e+001
      vertex -1.300000e+001  2.650000e+001  7.225000e+001
    endloop
  endfacet
  facet normal  1.000000e+000  -0.000000e+000  0.000000e+000
    outer loop
      vertex -1.300000e+001  2.650000e+001  7.225000e+001
      vertex -1.300000e+001  2.770000e+001  6.975000e+001
      vertex -1.300000e+001  2.770000e+001  7.225000e+001
    endloop
  endfacet
  facet normal  9.801655e-002  9.951848e-001  0.000000e+000
    outer loop
      vertex -1.450000e+001  2.920000e+001  6.975000e+001
      vertex -1.450000e+001  2.920000e+001  7.225000e+001
      vertex -1.420736e+001  2.917118e+001  6.975000e+001
    endloop
  endfacet
  facet normal  9.801655e-002  9.951848e-001  -0.000000e+000
    outer loop
      vertex -1.420736e+001  2.917118e+001  6.975000e+001
      vertex -1.450000e+001  2.920000e+001  7.225000e+001
      vertex -1.420736e+001  2.917118e+001  7.225000e+001
    endloop
  endfacet
  facet normal  2.902880e-001  9.569393e-001  0.000000e+000
    outer loop
      vertex -1.420736e+001  2.917118e+001  6.975000e+001
      vertex -1.420736e+001  2.917118e+001  7.225000e+001
      vertex -1.392597e+001  2.908582e+001  6.975000e+001
    endloop
  endfacet
  facet normal  2.902880e-001  9.569393e-001  -0.000000e+000
    outer loop
      vertex -1.392597e+001  2.908582e+001  6.975000e+001
      vertex -1.420736e+001  2.917118e+001  7.225000e+001
      vertex -1.392597e+001  2.908582e+001  7.225000e+001
    endloop
  endfacet
  facet normal  4.713967e-001  8.819212e-001  0.000000e+000
    outer loop
      vertex -1.392597e+001  2.908582e+001  6.975000e+001
      vertex -1.392597e+001  2.908582e+001  7.225000e+001
      vertex -1.366665e+001  2.894720e+001  6.975000e+001
    endloop
  endfacet
  facet normal  4.713967e-001  8.819212e-001  -0.000000e+000
    outer loop
      vertex -1.366665e+001  2.894720e+001  6.975000e+001
      vertex -1.392597e+001  2.908582e+001  7.225000e+001
      vertex -1.366665e+001  2.894720e+001  7.225000e+001
    endloop
  endfacet
  facet normal  6.343927e-001  7.730110e-001  0.000000e+000
    outer loop
      vertex -1.366665e+001  2.894720e+001  6.975000e+001
      vertex -1.366665e+001  2.894720e+001  7.225000e+001
      vertex -1.343934e+001  2.876066e+001  6.975000e+001
    endloop
  endfacet
  facet normal  6.343927e-001  7.730110e-001  -0.000000e+000
    outer loop
      vertex -1.343934e+001  2.876066e+001  6.975000e+001
      vertex -1.366665e+001  2.894720e+001  7.225000e+001
      vertex -1.343934e+001  2.876066e+001  7.225000e+001
    endloop
  endfacet
  facet normal  7.730096e-001  6.343942e-001  0.000000e+000
    outer loop
      vertex -1.343934e+001  2.876066e+001  6.975000e+001
      vertex -1.343934e+001  2.876066e+001  7.225000e+001
      vertex -1.325280e+001  2.853336e+001  6.975000e+001
    endloop
  endfacet
  facet normal  7.730096e-001  6.343942e-001  -0.000000e+000
    outer loop
      vertex -1.325280e+001  2.853336e+001  6.975000e+001
      vertex -1.343934e+001  2.876066e+001  7.225000e+001
      vertex -1.325280e+001  2.853336e+001  7.225000e+001
    endloop
  endfacet
  facet normal  8.819220e-001  4.713954e-001  0.000000e+000
    outer loop
      vertex -1.325280e+001  2.853336e+001  6.975000e+001
      vertex -1.325280e+001  2.853336e+001  7.225000e+001
      vertex -1.311418e+001  2.827402e+001  6.975000e+001
    endloop
  endfacet
  facet normal  8.819220e-001  4.713954e-001  -0.000000e+000
    outer loop
      vertex -1.311418e+001  2.827402e+001  6.975000e+001
      vertex -1.325280e+001  2.853336e+001  7.225000e+001
      vertex -1.311418e+001  2.827402e+001  7.225000e+001
    endloop
  endfacet
  facet normal  9.569402e-001  2.902851e-001  0.000000e+000
    outer loop
      vertex -1.311418e+001  2.827402e+001  6.975000e+001
      vertex -1.311418e+001  2.827402e+001  7.225000e+001
      vertex -1.302882e+001  2.799264e+001  6.975000e+001
    endloop
  endfacet
  facet normal  9.569402e-001  2.902851e-001  -0.000000e+000
    outer loop
      vertex -1.302882e+001  2.799264e+001  6.975000e+001
      vertex -1.311418e+001  2.827402e+001  7.225000e+001
      vertex -1.302882e+001  2.799264e+001  7.225000e+001
    endloop
  endfacet
  facet normal  9.951847e-001  9.801685e-002  0.000000e+000
    outer loop
      vertex -1.302882e+001  2.799264e+001  6.975000e+001
      vertex -1.302882e+001  2.799264e+001  7.225000e+001
      vertex -1.300000e+001  2.770000e+001  6.975000e+001
    endloop
  endfacet
  facet normal  9.951847e-001  9.801685e-002  -0.000000e+000
    outer loop
      vertex -1.300000e+001  2.770000e+001  6.975000e+001
      vertex -1.302882e+001  2.799264e+001  7.225000e+001
      vertex -1.300000e+001  2.770000e+001  7.225000e+001
    endloop
  endfacet
  facet normal  0.000000e+000  1.000000e+000  0.000000e+000
    outer loop
      vertex -4.300000e+001  2.650000e+001  7.900000e+001
      vertex -3.000000e+001  2.650000e+001  7.225000e+001
      vertex -4.300000e+001  2.650000e+001  1.000000e+001
    endloop
  endfacet
  facet normal  0.000000e+000  1.000000e+000  0.000000e+000
    outer loop
      vertex -4.300000e+001  2.650000e+001  1.000000e+001
      vertex -3.000000e+001  2.650000e+001  7.225000e+001
      vertex -3.000000e+001  2.650000e+001  6.975000e+001
    endloop
  endfacet
  facet normal  0.000000e+000  1.000000e+000  0.000000e+000
    outer loop
      vertex -4.300000e+001  2.650000e+001  1.000000e+001
      vertex -3.000000e+001  2.650000e+001  6.975000e+001
      vertex -3.000000e-001  2.650000e+001  1.000000e+001
    endloop
  endfacet
  facet normal  0.000000e+000  9.999999e-001  0.000000e+000
    outer loop
      vertex -3.000000e-001  2.650000e+001  1.000000e+001
      vertex -3.000000e+001  2.650000e+001  6.975000e+001
      vertex -1.300000e+001  2.650000e+001  6.975000e+001
    endloop
  endfacet
  facet normal  -0.000000e+000  1.000000e+000  0.000000e+000
    outer loop
      vertex -3.000000e-001  2.650000e+001  1.000000e+001
      vertex -1.300000e+001  2.650000e+001  6.975000e+001
      vertex -3.000000e-001  2.650000e+001  7.900000e+001
    endloop
  endfacet
  facet normal  0.000000e+000  1.000000e+000  0.000000e+000
    outer loop
      vertex -3.000000e-001  2.650000e+001  7.900000e+001
      vertex -1.300000e+001  2.650000e+001  6.975000e+001
      vertex -1.300000e+001  2.650000e+001  7.225000e+001
    endloop
  endfacet
  facet normal  0.000000e+000  1.000000e+000  -0.000000e+000
    outer loop
      vertex -3.000000e-001  2.650000e+001  7.900000e+001
      vertex -1.300000e+001  2.650000e+001  7.225000e+001
      vertex -4.300000e+001  2.650000e+001  7.900000e+001
    endloop
  endfacet
  facet normal  0.000000e+000  1.000000e+000  0.000000e+000
    outer loop
      vertex -4.300000e+001  2.650000e+001  7.900000e+001
      vertex -1.300000e+001  2.650000e+001  7.225000e+001
      vertex -3.000000e+001  2.650000e+001  7.225000e+001
    endloop
  endfacet
  facet normal  0.000000e+000  1.000000e+000  0.000000e+000
    outer loop
      vertex  3.000000e-001  2.650000e+001  7.900000e+001
      vertex  1.300000e+001  2.650000e+001  7.225000e+001
      vertex  3.000000e-001  2.650000e+001  1.000000e+001
    endloop
  endfacet
  facet normal  0.000000e+000  1.000000e+000  0.000000e+000
    outer loop
      vertex  3.000000e-001  2.650000e+001  1.000000e+001
      vertex  1.300000e+001  2.650000e+001  7.225000e+001
      vertex  1.300000e+001  2.650000e+001  6.975000e+001
    endloop
  endfacet
  facet normal  0.000000e+000  1.000000e+000  0.000000e+000
    outer loop
      vertex  3.000000e-001  2.650000e+001  1.000000e+001
      vertex  1.300000e+001  2.650000e+001  6.975000e+001
      vertex  4.300000e+001  2.650000e+001  1.000000e+001
    endloop
  endfacet
  facet normal  0.000000e+000  1.000000e+000  0.000000e+000
    outer loop
      vertex  4.300000e+001  2.650000e+001  1.000000e+001
      vertex  1.300000e+001  2.650000e+001  6.975000e+001
      vertex  3.000000e+001  2.650000e+001  6.975000e+001
    endloop
  endfacet
  facet normal  -0.000000e+000  1.000000e+000  0.000000e+000
    outer loop
      vertex  4.300000e+001  2.650000e+001  1.000000e+001
      vertex  3.000000e+001  2.650000e+001  6.975000e+001
      vertex  4.300000e+001  2.650000e+001  7.900000e+001
    endloop
  endfacet
  facet normal  0.000000e+000  1.000000e+000  0.000000e+000
    outer loop
      vertex  4.300000e+001  2.650000e+001  7.900000e+001
      vertex  3.000000e+001  2.650000e+001  6.975000e+001
      vertex  3.000000e+001  2.650000e+001  7.225000e+001
    endloop
  endfacet
  facet normal  0.000000e+000  1.000000e+000  -0.000000e+000
    outer loop
      vertex  4.300000e+001  2.650000e+001  7.900000e+001
      vertex  3.000000e+001  2.650000e+001  7.225000e+001
      vertex  3.000000e-001  2.650000e+001  7.900000e+001
    endloop
  endfacet
  facet normal  0.000000e+000  1.000000e+000  0.000000e+000
    outer loop
      vertex  3.000000e-001  2.650000e+001  7.900000e+001
      vertex  3.000000e+001  2.650000e+001  7.225000e+001
      vertex  1.300000e+001  2.650000e+001  7.225000e+001
    endloop
  endfacet
  facet normal  0.000000e+000  0.000000e+000 -1.000000e+000
    outer loop
      vertex -4.300000e+001  2.350000e+001  1.000000e+001
      vertex -4.300000e+001  2.650000e+001  1.000000e+001
      vertex -3.000000e-001  2.650000e+001  1.000000e+001
    endloop
  endfacet
  facet normal  0.000000e+000  -0.000000e+000 -1.000000e+000
    outer loop
      vertex -4.300000e+001  2.350000e+001  1.000000e+001
      vertex -3.000000e-001  2.650000e+001  1.000000e+001
      vertex -3.000000e-001  2.600000e+001  1.000000e+001
    endloop
  endfacet
  facet normal  0.000000e+000  -0.000000e+000 -1.000000e+000
    outer loop
      vertex -4.300000e+001  2.350000e+001  1.000000e+001
      vertex -3.000000e-001  2.600000e+001  1.000000e+001
      vertex  3.000000e-001  2.600000e+001  1.000000e+001
    endloop
  endfacet
  facet normal  0.000000e+000  -0.000000e+000 -1.000000e+000
    outer loop
      vertex -4.300000e+001  2.350000e+001  1.000000e+001
      vertex  3.000000e-001  2.600000e+001  1.000000e+001
      vertex  4.300000e+001  2.350000e+001  1.000000e+001
    endloop
  endfacet
  facet normal  0.000000e+000  0.000000e+000 -1.000000e+000
    outer loop
      vertex  3.000000e-001  2.600000e+001  1.000000e+001
      vertex  3.000000e-001  2.650000e+001  1.000000e+001
      vertex  4.300000e+001  2.350000e+001  1.000000e+001
    endloop
  endfacet
  facet normal  0.000000e+000  0.000000e+000 -1.000000e+000
    outer loop
      vertex  4.300000e+001  2.350000e+001  1.000000e+001
      vertex  3.000000e-001  2.650000e+001  1.000000e+001
      vertex  4.300000e+001  2.650000e+001  1.000000e+001
    endloop
  endfacet
  facet normal  0.000000e+000  0.000000e+000  1.000000e+000
    outer loop
      vertex -4.300000e+001 -2.350000e+001  7.900000e+001
      vertex  4.300000e+001 -2.350000e+001  7.900000e+001
      vertex  3.000000e-001  2.600000e+001  7.900000e+001
    endloop
  endfacet
  facet normal  0.000000e+000  0.000000e+000  1.000000e+000
    outer loop
      vertex -4.300000e+001 -2.350000e+001  7.900000e+001
      vertex  3.000000e-001  2.600000e+001  7.900000e+001
      vertex -3.000000e-001  2.600000e+001  7.900000e+001
    endloop
  endfacet
  facet normal  0.000000e+000  -0.000000e+000  1.000000e+000
    outer loop
      vertex -4.300000e+001 -2.350000e+001  7.900000e+001
      vertex -3.000000e-001  2.600000e+001  7.900000e+001
      vertex -3.000000e-001  2.650000e+001  7.900000e+001
    endloop
  endfacet
  facet normal  0.000000e+000  0.000000e+000  1.000000e+000
    outer loop
      vertex -4.300000e+001 -2.350000e+001  7.900000e+001
      vertex -3.000000e-001  2.650000e+001  7.900000e+001
      vertex -4.300000e+001  2.650000e+001  7.900000e+001
    endloop
  endfacet
  facet normal  0.000000e+000  0.000000e+000  1.000000e+000
    outer loop
      vertex  3.000000e-001  2.600000e+001  7.900000e+001
      vertex  4.300000e+001 -2.350000e+001  7.900000e+001
      vertex  3.000000e-001  2.650000e+001  7.900000e+001
    endloop
  endfacet
  facet normal  -0.000000e+000  0.000000e+000  1.000000e+000
    outer loop
      vertex  3.000000e-001  2.650000e+001  7.900000e+001
      vertex  4.300000e+001 -2.350000e+001  7.900000e+001
      vertex  4.300000e+001  2.650000e+001  7.900000e+001
    endloop
  endfacet
  facet normal  0.000000e+000  1.000000e+000  0.000000e+000
    outer loop
      vertex  3.000000e-001  2.600000e+001  1.000000e+001
      vertex -3.000000e-001  2.600000e+001  1.000000e+001
      vertex  3.000000e-001  2.600000e+001  7.900000e+001
    endloop
  endfacet
  facet normal  0.000000e+000  1.000000e+000  0.000000e+000
    outer loop
      vertex  3.000000e-001  2.600000e+001  7.900000e+001
      vertex -3.000000e-001  2.600000e+001  1.000000e+001
      vertex -3.000000e-001  2.600000e+001  7.900000e+001
    endloop
  endfacet
  facet normal -1.000000e+000  -0.000000e+000  0.000000e+000
    outer loop
      vertex  3.000000e-001  2.600000e+001  7.900000e+001
      vertex  3.000000e-001  2.650000e+001  7.900000e+001
      vertex  3.000000e-001  2.600000e+001  1.000000e+001
    endloop
  endfacet
  facet normal -1.000000e+000  0.000000e+000  0.000000e+000
    outer loop
      vertex  3.000000e-001  2.600000e+001  1.000000e+001
      vertex  3.000000e-001  2.650000e+001  7.900000e+001
      vertex  3.000000e-001  2.650000e+001  1.000000e+001
    endloop
  endfacet
  facet normal  1.000000e+000  0.000000e+000  0.000000e+000
    outer loop
      vertex -3.000000e-001  2.600000e+001  1.000000e+001
      vertex -3.000000e-001  2.650000e+001  1.000000e+001
      vertex -3.000000e-001  2.600000e+001  7.900000e+001
    endloop
  endfacet
  facet normal  1.000000e+000  -0.000000e+000  0.000000e+000
    outer loop
      vertex -3.000000e-001  2.600000e+001  7.900000e+001
      vertex -3.000000e-001  2.650000e+001  1.000000e+001
      vertex -3.000000e-001  2.650000e+001  7.900000e+001
    endloop
  endfacet
  facet normal  0.000000e+000  0.000000e+000 -9.999999e-001
    outer loop
      vertex -4.300000e+001 -2.350000e+001  0.000000e+000
      vertex -4.300000e+001  2.350000e+001  0.000000e+000
      vertex  4.300000e+001 -2.350000e+001  0.000000e+000
    endloop
  endfacet
  facet normal  0.000000e+000  0.000000e+000 -9.999999e-001
    outer loop
      vertex  4.300000e+001 -2.350000e+001  0.000000e+000
      vertex -4.300000e+001  2.350000e+001  0.000000e+000
      vertex  4.300000e+001  2.350000e+001  0.000000e+000
    endloop
  endfacet
  facet normal  0.000000e+000 -1.000000e+000  0.000000e+000
    outer loop
      vertex -4.300000e+001 -2.350000e+001  7.900000e+001
      vertex -4.300000e+001 -2.350000e+001  0.000000e+000
      vertex  4.300000e+001 -2.350000e+001  7.900000e+001
    endloop
  endfacet
  facet normal  0.000000e+000 -1.000000e+000  -0.000000e+000
    outer loop
      vertex  4.300000e+001 -2.350000e+001  7.900000e+001
      vertex -4.300000e+001 -2.350000e+001  0.000000e+000
      vertex  4.300000e+001 -2.350000e+001  0.000000e+000
    endloop
  endfacet
  facet normal -9.999999e-001  0.000000e+000  0.000000e+000
    outer loop
      vertex -4.300000e+001  2.650000e+001  7.900000e+001
      vertex -4.300000e+001  2.650000e+001  1.000000e+001
      vertex -4.300000e+001 -2.350000e+001  7.900000e+001
    endloop
  endfacet
  facet normal -1.000000e+000  0.000000e+000  0.000000e+000
    outer loop
      vertex -4.300000e+001 -2.350000e+001  7.900000e+001
      vertex -4.300000e+001  2.650000e+001  1.000000e+001
      vertex -4.300000e+001  2.350000e+001  1.000000e+001
    endloop
  endfacet
  facet normal -1.000000e+000  -0.000000e+000  0.000000e+000
    outer loop
      vertex -4.300000e+001 -2.350000e+001  7.900000e+001
      vertex -4.300000e+001  2.350000e+001  1.000000e+001
      vertex -4.300000e+001 -2.350000e+001  0.000000e+000
    endloop
  endfacet
  facet normal -9.999999e-001  0.000000e+000  0.000000e+000
    outer loop
      vertex -4.300000e+001 -2.350000e+001  0.000000e+000
      vertex -4.300000e+001  2.350000e+001  1.000000e+001
      vertex -4.300000e+001  2.350000e+001  0.000000e+000
    endloop
  endfacet
  facet normal  1.000000e+000  0.000000e+000  0.000000e+000
    outer loop
      vertex  4.300000e+001 -2.350000e+001  0.000000e+000
      vertex  4.300000e+001  2.350000e+001  0.000000e+000
      vertex  4.300000e+001 -2.350000e+001  7.900000e+001
    endloop
  endfacet
  facet normal  9.999999e-001  0.000000e+000  0.000000e+000
    outer loop
      vertex  4.300000e+001 -2.350000e+001  7.900000e+001
      vertex  4.300000e+001  2.350000e+001  0.000000e+000
      vertex  4.300000e+001  2.350000e+001  1.000000e+001
    endloop
  endfacet
  facet normal  9.999999e-001  0.000000e+000  -0.000000e+000
    outer loop
      vertex  4.300000e+001 -2.350000e+001  7.900000e+001
      vertex  4.300000e+001  2.350000e+001  1.000000e+001
      vertex  4.300000e+001  2.650000e+001  7.900000e+001
    endloop
  endfacet
  facet normal  1.000000e+000  0.000000e+000  0.000000e+000
    outer loop
      vertex  4.300000e+001  2.650000e+001  7.900000e+001
      vertex  4.300000e+001  2.350000e+001  1.000000e+001
      vertex  4.300000e+001  2.650000e+001  1.000000e+001
    endloop
  endfacet
  facet normal  0.000000e+000  1.000000e+000  -0.000000e+000
    outer loop
      vertex  4.300000e+001  2.350000e+001  1.000000e+001
      vertex  4.300000e+001  2.350000e+001  0.000000e+000
      vertex -4.300000e+001  2.350000e+001  1.000000e+001
    endloop
  endfacet
  facet normal  0.000000e+000  1.000000e+000  0.000000e+000
    outer loop
      vertex -4.300000e+001  2.350000e+001  1.000000e+001
      vertex  4.300000e+001  2.350000e+001  0.000000e+000
      vertex -4.300000e+001  2.350000e+001  0.000000e+000
    endloop
  endfacet
endsolid CATIA STL
