solid CATIA STL
  facet normal  -0.000000e+000  0.000000e+000  1.000000e+000
    outer loop
      vertex  2.150000e+001  2.920000e+001  7.325000e+001
      vertex  2.120737e+001  2.917118e+001  7.325000e+001
      vertex  2.092598e+001  2.908582e+001  7.325000e+001
    endloop
  endfacet
  facet normal  -0.000000e+000  0.000000e+000  1.000000e+000
    outer loop
      vertex  2.150000e+001  2.920000e+001  7.325000e+001
      vertex  2.092598e+001  2.908582e+001  7.325000e+001
      vertex  2.066665e+001  2.894720e+001  7.325000e+001
    endloop
  endfacet
  facet normal  -0.000000e+000  0.000000e+000  1.000000e+000
    outer loop
      vertex  2.150000e+001  2.920000e+001  7.325000e+001
      vertex  2.066665e+001  2.894720e+001  7.325000e+001
      vertex  2.043934e+001  2.876066e+001  7.325000e+001
    endloop
  endfacet
  facet normal  -0.000000e+000  0.000000e+000  1.000000e+000
    outer loop
      vertex  2.150000e+001  2.920000e+001  7.325000e+001
      vertex  2.043934e+001  2.876066e+001  7.325000e+001
      vertex  2.025280e+001  2.853336e+001  7.325000e+001
    endloop
  endfacet
  facet normal  -0.000000e+000  0.000000e+000  1.000000e+000
    outer loop
      vertex  2.150000e+001  2.920000e+001  7.325000e+001
      vertex  2.025280e+001  2.853336e+001  7.325000e+001
      vertex  2.011418e+001  2.827402e+001  7.325000e+001
    endloop
  endfacet
  facet normal  -0.000000e+000  0.000000e+000  1.000000e+000
    outer loop
      vertex  2.150000e+001  2.920000e+001  7.325000e+001
      vertex  2.011418e+001  2.827402e+001  7.325000e+001
      vertex  2.002882e+001  2.799264e+001  7.325000e+001
    endloop
  endfacet
  facet normal  -0.000000e+000  0.000000e+000  1.000000e+000
    outer loop
      vertex  2.150000e+001  2.920000e+001  7.325000e+001
      vertex  2.002882e+001  2.799264e+001  7.325000e+001
      vertex  2.000000e+001  2.770000e+001  7.325000e+001
    endloop
  endfacet
  facet normal  -0.000000e+000  0.000000e+000  1.000000e+000
    outer loop
      vertex  2.150000e+001  2.920000e+001  7.325000e+001
      vertex  2.000000e+001  2.770000e+001  7.325000e+001
      vertex  2.000000e+001  2.650000e+001  7.325000e+001
    endloop
  endfacet
  facet normal  0.000000e+000  0.000000e+000  1.000000e+000
    outer loop
      vertex  2.150000e+001  2.920000e+001  7.325000e+001
      vertex  2.000000e+001  2.650000e+001  7.325000e+001
      vertex  3.700000e+001  2.650000e+001  7.325000e+001
    endloop
  endfacet
  facet normal  0.000000e+000  0.000000e+000  1.000000e+000
    outer loop
      vertex  2.150000e+001  2.920000e+001  7.325000e+001
      vertex  3.700000e+001  2.650000e+001  7.325000e+001
      vertex  3.550000e+001  2.920000e+001  7.325000e+001
    endloop
  endfacet
  facet normal  0.000000e+000  0.000000e+000  1.000000e+000
    outer loop
      vertex  3.700000e+001  2.650000e+001  7.325000e+001
      vertex  3.700000e+001  2.770000e+001  7.325000e+001
      vertex  3.697118e+001  2.799264e+001  7.325000e+001
    endloop
  endfacet
  facet normal  0.000000e+000  0.000000e+000  1.000000e+000
    outer loop
      vertex  3.700000e+001  2.650000e+001  7.325000e+001
      vertex  3.697118e+001  2.799264e+001  7.325000e+001
      vertex  3.688582e+001  2.827402e+001  7.325000e+001
    endloop
  endfacet
  facet normal  0.000000e+000  0.000000e+000  1.000000e+000
    outer loop
      vertex  3.700000e+001  2.650000e+001  7.325000e+001
      vertex  3.688582e+001  2.827402e+001  7.325000e+001
      vertex  3.674720e+001  2.853336e+001  7.325000e+001
    endloop
  endfacet
  facet normal  0.000000e+000  0.000000e+000  1.000000e+000
    outer loop
      vertex  3.700000e+001  2.650000e+001  7.325000e+001
      vertex  3.674720e+001  2.853336e+001  7.325000e+001
      vertex  3.656066e+001  2.876066e+001  7.325000e+001
    endloop
  endfacet
  facet normal  0.000000e+000  0.000000e+000  1.000000e+000
    outer loop
      vertex  3.700000e+001  2.650000e+001  7.325000e+001
      vertex  3.656066e+001  2.876066e+001  7.325000e+001
      vertex  3.633335e+001  2.894720e+001  7.325000e+001
    endloop
  endfacet
  facet normal  0.000000e+000  0.000000e+000  1.000000e+000
    outer loop
      vertex  3.700000e+001  2.650000e+001  7.325000e+001
      vertex  3.633335e+001  2.894720e+001  7.325000e+001
      vertex  3.607402e+001  2.908582e+001  7.325000e+001
    endloop
  endfacet
  facet normal  0.000000e+000  0.000000e+000  1.000000e+000
    outer loop
      vertex  3.700000e+001  2.650000e+001  7.325000e+001
      vertex  3.607402e+001  2.908582e+001  7.325000e+001
      vertex  3.579264e+001  2.917118e+001  7.325000e+001
    endloop
  endfacet
  facet normal  0.000000e+000  0.000000e+000  1.000000e+000
    outer loop
      vertex  3.700000e+001  2.650000e+001  7.325000e+001
      vertex  3.579264e+001  2.917118e+001  7.325000e+001
      vertex  3.550000e+001  2.920000e+001  7.325000e+001
    endloop
  endfacet
  facet normal  -0.000000e+000  -0.000000e+000 -1.000000e+000
    outer loop
      vertex  3.550000e+001  2.920000e+001  7.075000e+001
      vertex  3.579264e+001  2.917118e+001  7.075000e+001
      vertex  3.607402e+001  2.908582e+001  7.075000e+001
    endloop
  endfacet
  facet normal  -0.000000e+000  -0.000000e+000 -1.000000e+000
    outer loop
      vertex  3.550000e+001  2.920000e+001  7.075000e+001
      vertex  3.607402e+001  2.908582e+001  7.075000e+001
      vertex  3.633335e+001  2.894720e+001  7.075000e+001
    endloop
  endfacet
  facet normal  -0.000000e+000  -0.000000e+000 -1.000000e+000
    outer loop
      vertex  3.550000e+001  2.920000e+001  7.075000e+001
      vertex  3.633335e+001  2.894720e+001  7.075000e+001
      vertex  3.656066e+001  2.876066e+001  7.075000e+001
    endloop
  endfacet
  facet normal  -0.000000e+000  -0.000000e+000 -1.000000e+000
    outer loop
      vertex  3.550000e+001  2.920000e+001  7.075000e+001
      vertex  3.656066e+001  2.876066e+001  7.075000e+001
      vertex  3.674720e+001  2.853336e+001  7.075000e+001
    endloop
  endfacet
  facet normal  -0.000000e+000  -0.000000e+000 -1.000000e+000
    outer loop
      vertex  3.550000e+001  2.920000e+001  7.075000e+001
      vertex  3.674720e+001  2.853336e+001  7.075000e+001
      vertex  3.688582e+001  2.827402e+001  7.075000e+001
    endloop
  endfacet
  facet normal  -0.000000e+000  -0.000000e+000 -1.000000e+000
    outer loop
      vertex  3.550000e+001  2.920000e+001  7.075000e+001
      vertex  3.688582e+001  2.827402e+001  7.075000e+001
      vertex  3.697118e+001  2.799264e+001  7.075000e+001
    endloop
  endfacet
  facet normal  -0.000000e+000  -0.000000e+000 -9.999999e-001
    outer loop
      vertex  3.550000e+001  2.920000e+001  7.075000e+001
      vertex  3.697118e+001  2.799264e+001  7.075000e+001
      vertex  3.700000e+001  2.770000e+001  7.075000e+001
    endloop
  endfacet
  facet normal  -0.000000e+000  -0.000000e+000 -1.000000e+000
    outer loop
      vertex  3.550000e+001  2.920000e+001  7.075000e+001
      vertex  3.700000e+001  2.770000e+001  7.075000e+001
      vertex  3.700000e+001  2.650000e+001  7.075000e+001
    endloop
  endfacet
  facet normal  0.000000e+000  0.000000e+000 -1.000000e+000
    outer loop
      vertex  3.550000e+001  2.920000e+001  7.075000e+001
      vertex  3.700000e+001  2.650000e+001  7.075000e+001
      vertex  2.000000e+001  2.650000e+001  7.075000e+001
    endloop
  endfacet
  facet normal  0.000000e+000  0.000000e+000 -1.000000e+000
    outer loop
      vertex  3.550000e+001  2.920000e+001  7.075000e+001
      vertex  2.000000e+001  2.650000e+001  7.075000e+001
      vertex  2.150000e+001  2.920000e+001  7.075000e+001
    endloop
  endfacet
  facet normal  0.000000e+000  0.000000e+000 -1.000000e+000
    outer loop
      vertex  2.000000e+001  2.650000e+001  7.075000e+001
      vertex  2.000000e+001  2.770000e+001  7.075000e+001
      vertex  2.002882e+001  2.799264e+001  7.075000e+001
    endloop
  endfacet
  facet normal  0.000000e+000  -0.000000e+000 -1.000000e+000
    outer loop
      vertex  2.000000e+001  2.650000e+001  7.075000e+001
      vertex  2.002882e+001  2.799264e+001  7.075000e+001
      vertex  2.011418e+001  2.827402e+001  7.075000e+001
    endloop
  endfacet
  facet normal  0.000000e+000  -0.000000e+000 -1.000000e+000
    outer loop
      vertex  2.000000e+001  2.650000e+001  7.075000e+001
      vertex  2.011418e+001  2.827402e+001  7.075000e+001
      vertex  2.025280e+001  2.853336e+001  7.075000e+001
    endloop
  endfacet
  facet normal  0.000000e+000  -0.000000e+000 -1.000000e+000
    outer loop
      vertex  2.000000e+001  2.650000e+001  7.075000e+001
      vertex  2.025280e+001  2.853336e+001  7.075000e+001
      vertex  2.043934e+001  2.876066e+001  7.075000e+001
    endloop
  endfacet
  facet normal  0.000000e+000  -0.000000e+000 -1.000000e+000
    outer loop
      vertex  2.000000e+001  2.650000e+001  7.075000e+001
      vertex  2.043934e+001  2.876066e+001  7.075000e+001
      vertex  2.066665e+001  2.894720e+001  7.075000e+001
    endloop
  endfacet
  facet normal  0.000000e+000  -0.000000e+000 -1.000000e+000
    outer loop
      vertex  2.000000e+001  2.650000e+001  7.075000e+001
      vertex  2.066665e+001  2.894720e+001  7.075000e+001
      vertex  2.092598e+001  2.908582e+001  7.075000e+001
    endloop
  endfacet
  facet normal  0.000000e+000  -0.000000e+000 -9.999999e-001
    outer loop
      vertex  2.000000e+001  2.650000e+001  7.075000e+001
      vertex  2.092598e+001  2.908582e+001  7.075000e+001
      vertex  2.120737e+001  2.917118e+001  7.075000e+001
    endloop
  endfacet
  facet normal  0.000000e+000  -0.000000e+000 -1.000000e+000
    outer loop
      vertex  2.000000e+001  2.650000e+001  7.075000e+001
      vertex  2.120737e+001  2.917118e+001  7.075000e+001
      vertex  2.150000e+001  2.920000e+001  7.075000e+001
    endloop
  endfacet
  facet normal  0.000000e+000  1.000000e+000  0.000000e+000
    outer loop
      vertex  3.550000e+001  2.920000e+001  7.075000e+001
      vertex  2.150000e+001  2.920000e+001  7.075000e+001
      vertex  3.550000e+001  2.920000e+001  7.325000e+001
    endloop
  endfacet
  facet normal  0.000000e+000  1.000000e+000  0.000000e+000
    outer loop
      vertex  3.550000e+001  2.920000e+001  7.325000e+001
      vertex  2.150000e+001  2.920000e+001  7.075000e+001
      vertex  2.150000e+001  2.920000e+001  7.325000e+001
    endloop
  endfacet
  facet normal  1.000000e+000  0.000000e+000  0.000000e+000
    outer loop
      vertex  3.700000e+001  2.650000e+001  7.325000e+001
      vertex  3.700000e+001  2.650000e+001  7.075000e+001
      vertex  3.700000e+001  2.770000e+001  7.325000e+001
    endloop
  endfacet
  facet normal  1.000000e+000  0.000000e+000  0.000000e+000
    outer loop
      vertex  3.700000e+001  2.770000e+001  7.325000e+001
      vertex  3.700000e+001  2.650000e+001  7.075000e+001
      vertex  3.700000e+001  2.770000e+001  7.075000e+001
    endloop
  endfacet
  facet normal  9.801622e-002  9.951848e-001  0.000000e+000
    outer loop
      vertex  3.550000e+001  2.920000e+001  7.075000e+001
      vertex  3.550000e+001  2.920000e+001  7.325000e+001
      vertex  3.579264e+001  2.917118e+001  7.075000e+001
    endloop
  endfacet
  facet normal  9.801622e-002  9.951848e-001  -0.000000e+000
    outer loop
      vertex  3.579264e+001  2.917118e+001  7.075000e+001
      vertex  3.550000e+001  2.920000e+001  7.325000e+001
      vertex  3.579264e+001  2.917118e+001  7.325000e+001
    endloop
  endfacet
  facet normal  2.902899e-001  9.569388e-001  0.000000e+000
    outer loop
      vertex  3.579264e+001  2.917118e+001  7.075000e+001
      vertex  3.579264e+001  2.917118e+001  7.325000e+001
      vertex  3.607402e+001  2.908582e+001  7.075000e+001
    endloop
  endfacet
  facet normal  2.902899e-001  9.569388e-001  -0.000000e+000
    outer loop
      vertex  3.607402e+001  2.908582e+001  7.075000e+001
      vertex  3.579264e+001  2.917118e+001  7.325000e+001
      vertex  3.607402e+001  2.908582e+001  7.325000e+001
    endloop
  endfacet
  facet normal  4.713954e-001  8.819220e-001  0.000000e+000
    outer loop
      vertex  3.607402e+001  2.908582e+001  7.075000e+001
      vertex  3.607402e+001  2.908582e+001  7.325000e+001
      vertex  3.633335e+001  2.894720e+001  7.075000e+001
    endloop
  endfacet
  facet normal  4.713954e-001  8.819220e-001  -0.000000e+000
    outer loop
      vertex  3.633335e+001  2.894720e+001  7.075000e+001
      vertex  3.607402e+001  2.908582e+001  7.325000e+001
      vertex  3.633335e+001  2.894720e+001  7.325000e+001
    endloop
  endfacet
  facet normal  6.343911e-001  7.730123e-001  0.000000e+000
    outer loop
      vertex  3.633335e+001  2.894720e+001  7.075000e+001
      vertex  3.633335e+001  2.894720e+001  7.325000e+001
      vertex  3.656066e+001  2.876066e+001  7.075000e+001
    endloop
  endfacet
  facet normal  6.343911e-001  7.730123e-001  -0.000000e+000
    outer loop
      vertex  3.656066e+001  2.876066e+001  7.075000e+001
      vertex  3.633335e+001  2.894720e+001  7.325000e+001
      vertex  3.656066e+001  2.876066e+001  7.325000e+001
    endloop
  endfacet
  facet normal  7.730129e-001  6.343904e-001  0.000000e+000
    outer loop
      vertex  3.656066e+001  2.876066e+001  7.075000e+001
      vertex  3.656066e+001  2.876066e+001  7.325000e+001
      vertex  3.674720e+001  2.853336e+001  7.075000e+001
    endloop
  endfacet
  facet normal  7.730129e-001  6.343904e-001  -0.000000e+000
    outer loop
      vertex  3.674720e+001  2.853336e+001  7.075000e+001
      vertex  3.656066e+001  2.876066e+001  7.325000e+001
      vertex  3.674720e+001  2.853336e+001  7.325000e+001
    endloop
  endfacet
  facet normal  8.819220e-001  4.713954e-001  0.000000e+000
    outer loop
      vertex  3.674720e+001  2.853336e+001  7.075000e+001
      vertex  3.674720e+001  2.853336e+001  7.325000e+001
      vertex  3.688582e+001  2.827402e+001  7.075000e+001
    endloop
  endfacet
  facet normal  8.819220e-001  4.713954e-001  -0.000000e+000
    outer loop
      vertex  3.688582e+001  2.827402e+001  7.075000e+001
      vertex  3.674720e+001  2.853336e+001  7.325000e+001
      vertex  3.688582e+001  2.827402e+001  7.325000e+001
    endloop
  endfacet
  facet normal  9.569411e-001  2.902821e-001  0.000000e+000
    outer loop
      vertex  3.688582e+001  2.827402e+001  7.075000e+001
      vertex  3.688582e+001  2.827402e+001  7.325000e+001
      vertex  3.697118e+001  2.799264e+001  7.075000e+001
    endloop
  endfacet
  facet normal  9.569411e-001  2.902821e-001  -0.000000e+000
    outer loop
      vertex  3.697118e+001  2.799264e+001  7.075000e+001
      vertex  3.688582e+001  2.827402e+001  7.325000e+001
      vertex  3.697118e+001  2.799264e+001  7.325000e+001
    endloop
  endfacet
  facet normal  9.951842e-001  9.802329e-002  0.000000e+000
    outer loop
      vertex  3.697118e+001  2.799264e+001  7.075000e+001
      vertex  3.697118e+001  2.799264e+001  7.325000e+001
      vertex  3.700000e+001  2.770000e+001  7.075000e+001
    endloop
  endfacet
  facet normal  9.951842e-001  9.802329e-002  -0.000000e+000
    outer loop
      vertex  3.700000e+001  2.770000e+001  7.075000e+001
      vertex  3.697118e+001  2.799264e+001  7.325000e+001
      vertex  3.700000e+001  2.770000e+001  7.325000e+001
    endloop
  endfacet
  facet normal -1.000000e+000  0.000000e+000  0.000000e+000
    outer loop
      vertex  2.000000e+001  2.650000e+001  7.075000e+001
      vertex  2.000000e+001  2.650000e+001  7.325000e+001
      vertex  2.000000e+001  2.770000e+001  7.075000e+001
    endloop
  endfacet
  facet normal -1.000000e+000  0.000000e+000  0.000000e+000
    outer loop
      vertex  2.000000e+001  2.770000e+001  7.075000e+001
      vertex  2.000000e+001  2.650000e+001  7.325000e+001
      vertex  2.000000e+001  2.770000e+001  7.325000e+001
    endloop
  endfacet
  facet normal -9.951847e-001  9.801685e-002  0.000000e+000
    outer loop
      vertex  2.000000e+001  2.770000e+001  7.075000e+001
      vertex  2.000000e+001  2.770000e+001  7.325000e+001
      vertex  2.002882e+001  2.799264e+001  7.075000e+001
    endloop
  endfacet
  facet normal -9.951847e-001  9.801685e-002  0.000000e+000
    outer loop
      vertex  2.002882e+001  2.799264e+001  7.075000e+001
      vertex  2.000000e+001  2.770000e+001  7.325000e+001
      vertex  2.002882e+001  2.799264e+001  7.325000e+001
    endloop
  endfacet
  facet normal -9.569393e-001  2.902880e-001  0.000000e+000
    outer loop
      vertex  2.002882e+001  2.799264e+001  7.075000e+001
      vertex  2.002882e+001  2.799264e+001  7.325000e+001
      vertex  2.011418e+001  2.827402e+001  7.075000e+001
    endloop
  endfacet
  facet normal -9.569393e-001  2.902880e-001  0.000000e+000
    outer loop
      vertex  2.011418e+001  2.827402e+001  7.075000e+001
      vertex  2.002882e+001  2.799264e+001  7.325000e+001
      vertex  2.011418e+001  2.827402e+001  7.325000e+001
    endloop
  endfacet
  facet normal -8.819220e-001  4.713954e-001  0.000000e+000
    outer loop
      vertex  2.011418e+001  2.827402e+001  7.075000e+001
      vertex  2.011418e+001  2.827402e+001  7.325000e+001
      vertex  2.025280e+001  2.853336e+001  7.075000e+001
    endloop
  endfacet
  facet normal -8.819220e-001  4.713954e-001  0.000000e+000
    outer loop
      vertex  2.025280e+001  2.853336e+001  7.075000e+001
      vertex  2.011418e+001  2.827402e+001  7.325000e+001
      vertex  2.025280e+001  2.853336e+001  7.325000e+001
    endloop
  endfacet
  facet normal -7.730096e-001  6.343942e-001  0.000000e+000
    outer loop
      vertex  2.025280e+001  2.853336e+001  7.075000e+001
      vertex  2.025280e+001  2.853336e+001  7.325000e+001
      vertex  2.043934e+001  2.876066e+001  7.075000e+001
    endloop
  endfacet
  facet normal -7.730096e-001  6.343942e-001  0.000000e+000
    outer loop
      vertex  2.043934e+001  2.876066e+001  7.075000e+001
      vertex  2.025280e+001  2.853336e+001  7.325000e+001
      vertex  2.043934e+001  2.876066e+001  7.325000e+001
    endloop
  endfacet
  facet normal -6.343942e-001  7.730096e-001  0.000000e+000
    outer loop
      vertex  2.043934e+001  2.876066e+001  7.075000e+001
      vertex  2.043934e+001  2.876066e+001  7.325000e+001
      vertex  2.066665e+001  2.894720e+001  7.075000e+001
    endloop
  endfacet
  facet normal -6.343942e-001  7.730096e-001  0.000000e+000
    outer loop
      vertex  2.066665e+001  2.894720e+001  7.075000e+001
      vertex  2.043934e+001  2.876066e+001  7.325000e+001
      vertex  2.066665e+001  2.894720e+001  7.325000e+001
    endloop
  endfacet
  facet normal -4.713954e-001  8.819220e-001  0.000000e+000
    outer loop
      vertex  2.066665e+001  2.894720e+001  7.075000e+001
      vertex  2.066665e+001  2.894720e+001  7.325000e+001
      vertex  2.092598e+001  2.908582e+001  7.075000e+001
    endloop
  endfacet
  facet normal -4.713954e-001  8.819220e-001  0.000000e+000
    outer loop
      vertex  2.092598e+001  2.908582e+001  7.075000e+001
      vertex  2.066665e+001  2.894720e+001  7.325000e+001
      vertex  2.092598e+001  2.908582e+001  7.325000e+001
    endloop
  endfacet
  facet normal -2.902880e-001  9.569393e-001  0.000000e+000
    outer loop
      vertex  2.092598e+001  2.908582e+001  7.075000e+001
      vertex  2.092598e+001  2.908582e+001  7.325000e+001
      vertex  2.120737e+001  2.917118e+001  7.075000e+001
    endloop
  endfacet
  facet normal -2.902880e-001  9.569393e-001  0.000000e+000
    outer loop
      vertex  2.120737e+001  2.917118e+001  7.075000e+001
      vertex  2.092598e+001  2.908582e+001  7.325000e+001
      vertex  2.120737e+001  2.917118e+001  7.325000e+001
    endloop
  endfacet
  facet normal -9.801685e-002  9.951847e-001  0.000000e+000
    outer loop
      vertex  2.120737e+001  2.917118e+001  7.075000e+001
      vertex  2.120737e+001  2.917118e+001  7.325000e+001
      vertex  2.150000e+001  2.920000e+001  7.075000e+001
    endloop
  endfacet
  facet normal -9.801685e-002  9.951847e-001  0.000000e+000
    outer loop
      vertex  2.150000e+001  2.920000e+001  7.075000e+001
      vertex  2.120737e+001  2.917118e+001  7.325000e+001
      vertex  2.150000e+001  2.920000e+001  7.325000e+001
    endloop
  endfacet
  facet normal  0.000000e+000  1.000000e+000  0.000000e+000
    outer loop
      vertex -2.150000e+001  2.920000e+001  7.075000e+001
      vertex -3.550000e+001  2.920000e+001  7.075000e+001
      vertex -2.150000e+001  2.920000e+001  7.325000e+001
    endloop
  endfacet
  facet normal  0.000000e+000  1.000000e+000  0.000000e+000
    outer loop
      vertex -2.150000e+001  2.920000e+001  7.325000e+001
      vertex -3.550000e+001  2.920000e+001  7.075000e+001
      vertex -3.550000e+001  2.920000e+001  7.325000e+001
    endloop
  endfacet
  facet normal  -0.000000e+000  -0.000000e+000 -1.000000e+000
    outer loop
      vertex -2.150000e+001  2.920000e+001  7.075000e+001
      vertex -2.120737e+001  2.917118e+001  7.075000e+001
      vertex -2.092598e+001  2.908582e+001  7.075000e+001
    endloop
  endfacet
  facet normal  -0.000000e+000  -0.000000e+000 -1.000000e+000
    outer loop
      vertex -2.150000e+001  2.920000e+001  7.075000e+001
      vertex -2.092598e+001  2.908582e+001  7.075000e+001
      vertex -2.066665e+001  2.894720e+001  7.075000e+001
    endloop
  endfacet
  facet normal  -0.000000e+000  -0.000000e+000 -1.000000e+000
    outer loop
      vertex -2.150000e+001  2.920000e+001  7.075000e+001
      vertex -2.066665e+001  2.894720e+001  7.075000e+001
      vertex -2.043934e+001  2.876066e+001  7.075000e+001
    endloop
  endfacet
  facet normal  -0.000000e+000  -0.000000e+000 -1.000000e+000
    outer loop
      vertex -2.150000e+001  2.920000e+001  7.075000e+001
      vertex -2.043934e+001  2.876066e+001  7.075000e+001
      vertex -2.025280e+001  2.853336e+001  7.075000e+001
    endloop
  endfacet
  facet normal  -0.000000e+000  -0.000000e+000 -1.000000e+000
    outer loop
      vertex -2.150000e+001  2.920000e+001  7.075000e+001
      vertex -2.025280e+001  2.853336e+001  7.075000e+001
      vertex -2.011418e+001  2.827402e+001  7.075000e+001
    endloop
  endfacet
  facet normal  -0.000000e+000  -0.000000e+000 -1.000000e+000
    outer loop
      vertex -2.150000e+001  2.920000e+001  7.075000e+001
      vertex -2.011418e+001  2.827402e+001  7.075000e+001
      vertex -2.002882e+001  2.799264e+001  7.075000e+001
    endloop
  endfacet
  facet normal  -0.000000e+000  -0.000000e+000 -1.000000e+000
    outer loop
      vertex -2.150000e+001  2.920000e+001  7.075000e+001
      vertex -2.002882e+001  2.799264e+001  7.075000e+001
      vertex -2.000000e+001  2.770000e+001  7.075000e+001
    endloop
  endfacet
  facet normal  -0.000000e+000  -0.000000e+000 -1.000000e+000
    outer loop
      vertex -2.150000e+001  2.920000e+001  7.075000e+001
      vertex -2.000000e+001  2.770000e+001  7.075000e+001
      vertex -2.000000e+001  2.650000e+001  7.075000e+001
    endloop
  endfacet
  facet normal  0.000000e+000  0.000000e+000 -1.000000e+000
    outer loop
      vertex -2.150000e+001  2.920000e+001  7.075000e+001
      vertex -2.000000e+001  2.650000e+001  7.075000e+001
      vertex -3.700000e+001  2.650000e+001  7.075000e+001
    endloop
  endfacet
  facet normal  0.000000e+000  0.000000e+000 -1.000000e+000
    outer loop
      vertex -2.150000e+001  2.920000e+001  7.075000e+001
      vertex -3.700000e+001  2.650000e+001  7.075000e+001
      vertex -3.550000e+001  2.920000e+001  7.075000e+001
    endloop
  endfacet
  facet normal  0.000000e+000  0.000000e+000 -1.000000e+000
    outer loop
      vertex -3.700000e+001  2.650000e+001  7.075000e+001
      vertex -3.700000e+001  2.770000e+001  7.075000e+001
      vertex -3.697118e+001  2.799264e+001  7.075000e+001
    endloop
  endfacet
  facet normal  0.000000e+000  -0.000000e+000 -1.000000e+000
    outer loop
      vertex -3.700000e+001  2.650000e+001  7.075000e+001
      vertex -3.697118e+001  2.799264e+001  7.075000e+001
      vertex -3.688582e+001  2.827402e+001  7.075000e+001
    endloop
  endfacet
  facet normal  0.000000e+000  -0.000000e+000 -1.000000e+000
    outer loop
      vertex -3.700000e+001  2.650000e+001  7.075000e+001
      vertex -3.688582e+001  2.827402e+001  7.075000e+001
      vertex -3.674720e+001  2.853336e+001  7.075000e+001
    endloop
  endfacet
  facet normal  0.000000e+000  -0.000000e+000 -1.000000e+000
    outer loop
      vertex -3.700000e+001  2.650000e+001  7.075000e+001
      vertex -3.674720e+001  2.853336e+001  7.075000e+001
      vertex -3.656066e+001  2.876066e+001  7.075000e+001
    endloop
  endfacet
  facet normal  0.000000e+000  -0.000000e+000 -1.000000e+000
    outer loop
      vertex -3.700000e+001  2.650000e+001  7.075000e+001
      vertex -3.656066e+001  2.876066e+001  7.075000e+001
      vertex -3.633335e+001  2.894720e+001  7.075000e+001
    endloop
  endfacet
  facet normal  0.000000e+000  -0.000000e+000 -1.000000e+000
    outer loop
      vertex -3.700000e+001  2.650000e+001  7.075000e+001
      vertex -3.633335e+001  2.894720e+001  7.075000e+001
      vertex -3.607402e+001  2.908582e+001  7.075000e+001
    endloop
  endfacet
  facet normal  0.000000e+000  -0.000000e+000 -1.000000e+000
    outer loop
      vertex -3.700000e+001  2.650000e+001  7.075000e+001
      vertex -3.607402e+001  2.908582e+001  7.075000e+001
      vertex -3.579264e+001  2.917118e+001  7.075000e+001
    endloop
  endfacet
  facet normal  0.000000e+000  -0.000000e+000 -1.000000e+000
    outer loop
      vertex -3.700000e+001  2.650000e+001  7.075000e+001
      vertex -3.579264e+001  2.917118e+001  7.075000e+001
      vertex -3.550000e+001  2.920000e+001  7.075000e+001
    endloop
  endfacet
  facet normal  -0.000000e+000  0.000000e+000  1.000000e+000
    outer loop
      vertex -3.550000e+001  2.920000e+001  7.325000e+001
      vertex -3.579264e+001  2.917118e+001  7.325000e+001
      vertex -3.607402e+001  2.908582e+001  7.325000e+001
    endloop
  endfacet
  facet normal  -0.000000e+000  0.000000e+000  1.000000e+000
    outer loop
      vertex -3.550000e+001  2.920000e+001  7.325000e+001
      vertex -3.607402e+001  2.908582e+001  7.325000e+001
      vertex -3.633335e+001  2.894720e+001  7.325000e+001
    endloop
  endfacet
  facet normal  -0.000000e+000  0.000000e+000  1.000000e+000
    outer loop
      vertex -3.550000e+001  2.920000e+001  7.325000e+001
      vertex -3.633335e+001  2.894720e+001  7.325000e+001
      vertex -3.656066e+001  2.876066e+001  7.325000e+001
    endloop
  endfacet
  facet normal  -0.000000e+000  0.000000e+000  1.000000e+000
    outer loop
      vertex -3.550000e+001  2.920000e+001  7.325000e+001
      vertex -3.656066e+001  2.876066e+001  7.325000e+001
      vertex -3.674720e+001  2.853336e+001  7.325000e+001
    endloop
  endfacet
  facet normal  -0.000000e+000  0.000000e+000  1.000000e+000
    outer loop
      vertex -3.550000e+001  2.920000e+001  7.325000e+001
      vertex -3.674720e+001  2.853336e+001  7.325000e+001
      vertex -3.688582e+001  2.827402e+001  7.325000e+001
    endloop
  endfacet
  facet normal  -0.000000e+000  0.000000e+000  1.000000e+000
    outer loop
      vertex -3.550000e+001  2.920000e+001  7.325000e+001
      vertex -3.688582e+001  2.827402e+001  7.325000e+001
      vertex -3.697118e+001  2.799264e+001  7.325000e+001
    endloop
  endfacet
  facet normal  -0.000000e+000  0.000000e+000  9.999999e-001
    outer loop
      vertex -3.550000e+001  2.920000e+001  7.325000e+001
      vertex -3.697118e+001  2.799264e+001  7.325000e+001
      vertex -3.700000e+001  2.770000e+001  7.325000e+001
    endloop
  endfacet
  facet normal  -0.000000e+000  0.000000e+000  1.000000e+000
    outer loop
      vertex -3.550000e+001  2.920000e+001  7.325000e+001
      vertex -3.700000e+001  2.770000e+001  7.325000e+001
      vertex -3.700000e+001  2.650000e+001  7.325000e+001
    endloop
  endfacet
  facet normal  0.000000e+000  0.000000e+000  1.000000e+000
    outer loop
      vertex -3.550000e+001  2.920000e+001  7.325000e+001
      vertex -3.700000e+001  2.650000e+001  7.325000e+001
      vertex -2.000000e+001  2.650000e+001  7.325000e+001
    endloop
  endfacet
  facet normal  0.000000e+000  0.000000e+000  1.000000e+000
    outer loop
      vertex -3.550000e+001  2.920000e+001  7.325000e+001
      vertex -2.000000e+001  2.650000e+001  7.325000e+001
      vertex -2.150000e+001  2.920000e+001  7.325000e+001
    endloop
  endfacet
  facet normal  0.000000e+000  0.000000e+000  1.000000e+000
    outer loop
      vertex -2.000000e+001  2.650000e+001  7.325000e+001
      vertex -2.000000e+001  2.770000e+001  7.325000e+001
      vertex -2.002882e+001  2.799264e+001  7.325000e+001
    endloop
  endfacet
  facet normal  0.000000e+000  0.000000e+000  1.000000e+000
    outer loop
      vertex -2.000000e+001  2.650000e+001  7.325000e+001
      vertex -2.002882e+001  2.799264e+001  7.325000e+001
      vertex -2.011418e+001  2.827402e+001  7.325000e+001
    endloop
  endfacet
  facet normal  0.000000e+000  0.000000e+000  1.000000e+000
    outer loop
      vertex -2.000000e+001  2.650000e+001  7.325000e+001
      vertex -2.011418e+001  2.827402e+001  7.325000e+001
      vertex -2.025280e+001  2.853336e+001  7.325000e+001
    endloop
  endfacet
  facet normal  0.000000e+000  0.000000e+000  1.000000e+000
    outer loop
      vertex -2.000000e+001  2.650000e+001  7.325000e+001
      vertex -2.025280e+001  2.853336e+001  7.325000e+001
      vertex -2.043934e+001  2.876066e+001  7.325000e+001
    endloop
  endfacet
  facet normal  0.000000e+000  0.000000e+000  1.000000e+000
    outer loop
      vertex -2.000000e+001  2.650000e+001  7.325000e+001
      vertex -2.043934e+001  2.876066e+001  7.325000e+001
      vertex -2.066665e+001  2.894720e+001  7.325000e+001
    endloop
  endfacet
  facet normal  0.000000e+000  0.000000e+000  1.000000e+000
    outer loop
      vertex -2.000000e+001  2.650000e+001  7.325000e+001
      vertex -2.066665e+001  2.894720e+001  7.325000e+001
      vertex -2.092598e+001  2.908582e+001  7.325000e+001
    endloop
  endfacet
  facet normal  0.000000e+000  0.000000e+000  9.999999e-001
    outer loop
      vertex -2.000000e+001  2.650000e+001  7.325000e+001
      vertex -2.092598e+001  2.908582e+001  7.325000e+001
      vertex -2.120737e+001  2.917118e+001  7.325000e+001
    endloop
  endfacet
  facet normal  0.000000e+000  0.000000e+000  1.000000e+000
    outer loop
      vertex -2.000000e+001  2.650000e+001  7.325000e+001
      vertex -2.120737e+001  2.917118e+001  7.325000e+001
      vertex -2.150000e+001  2.920000e+001  7.325000e+001
    endloop
  endfacet
  facet normal -1.000000e+000  -0.000000e+000  0.000000e+000
    outer loop
      vertex -3.700000e+001  2.650000e+001  7.325000e+001
      vertex -3.700000e+001  2.770000e+001  7.325000e+001
      vertex -3.700000e+001  2.650000e+001  7.075000e+001
    endloop
  endfacet
  facet normal -1.000000e+000  0.000000e+000  0.000000e+000
    outer loop
      vertex -3.700000e+001  2.650000e+001  7.075000e+001
      vertex -3.700000e+001  2.770000e+001  7.325000e+001
      vertex -3.700000e+001  2.770000e+001  7.075000e+001
    endloop
  endfacet
  facet normal -9.801622e-002  9.951848e-001  0.000000e+000
    outer loop
      vertex -3.550000e+001  2.920000e+001  7.325000e+001
      vertex -3.550000e+001  2.920000e+001  7.075000e+001
      vertex -3.579264e+001  2.917118e+001  7.325000e+001
    endloop
  endfacet
  facet normal -9.801622e-002  9.951848e-001  0.000000e+000
    outer loop
      vertex -3.579264e+001  2.917118e+001  7.325000e+001
      vertex -3.550000e+001  2.920000e+001  7.075000e+001
      vertex -3.579264e+001  2.917118e+001  7.075000e+001
    endloop
  endfacet
  facet normal -2.902899e-001  9.569388e-001  0.000000e+000
    outer loop
      vertex -3.579264e+001  2.917118e+001  7.325000e+001
      vertex -3.579264e+001  2.917118e+001  7.075000e+001
      vertex -3.607402e+001  2.908582e+001  7.325000e+001
    endloop
  endfacet
  facet normal -2.902899e-001  9.569388e-001  0.000000e+000
    outer loop
      vertex -3.607402e+001  2.908582e+001  7.325000e+001
      vertex -3.579264e+001  2.917118e+001  7.075000e+001
      vertex -3.607402e+001  2.908582e+001  7.075000e+001
    endloop
  endfacet
  facet normal -4.713954e-001  8.819220e-001  0.000000e+000
    outer loop
      vertex -3.607402e+001  2.908582e+001  7.325000e+001
      vertex -3.607402e+001  2.908582e+001  7.075000e+001
      vertex -3.633335e+001  2.894720e+001  7.325000e+001
    endloop
  endfacet
  facet normal -4.713954e-001  8.819220e-001  0.000000e+000
    outer loop
      vertex -3.633335e+001  2.894720e+001  7.325000e+001
      vertex -3.607402e+001  2.908582e+001  7.075000e+001
      vertex -3.633335e+001  2.894720e+001  7.075000e+001
    endloop
  endfacet
  facet normal -6.343911e-001  7.730123e-001  0.000000e+000
    outer loop
      vertex -3.633335e+001  2.894720e+001  7.325000e+001
      vertex -3.633335e+001  2.894720e+001  7.075000e+001
      vertex -3.656066e+001  2.876066e+001  7.325000e+001
    endloop
  endfacet
  facet normal -6.343911e-001  7.730123e-001  0.000000e+000
    outer loop
      vertex -3.656066e+001  2.876066e+001  7.325000e+001
      vertex -3.633335e+001  2.894720e+001  7.075000e+001
      vertex -3.656066e+001  2.876066e+001  7.075000e+001
    endloop
  endfacet
  facet normal -7.730129e-001  6.343904e-001  0.000000e+000
    outer loop
      vertex -3.656066e+001  2.876066e+001  7.325000e+001
      vertex -3.656066e+001  2.876066e+001  7.075000e+001
      vertex -3.674720e+001  2.853336e+001  7.325000e+001
    endloop
  endfacet
  facet normal -7.730129e-001  6.343904e-001  0.000000e+000
    outer loop
      vertex -3.674720e+001  2.853336e+001  7.325000e+001
      vertex -3.656066e+001  2.876066e+001  7.075000e+001
      vertex -3.674720e+001  2.853336e+001  7.075000e+001
    endloop
  endfacet
  facet normal -8.819220e-001  4.713954e-001  0.000000e+000
    outer loop
      vertex -3.674720e+001  2.853336e+001  7.325000e+001
      vertex -3.674720e+001  2.853336e+001  7.075000e+001
      vertex -3.688582e+001  2.827402e+001  7.325000e+001
    endloop
  endfacet
  facet normal -8.819220e-001  4.713954e-001  0.000000e+000
    outer loop
      vertex -3.688582e+001  2.827402e+001  7.325000e+001
      vertex -3.674720e+001  2.853336e+001  7.075000e+001
      vertex -3.688582e+001  2.827402e+001  7.075000e+001
    endloop
  endfacet
  facet normal -9.569411e-001  2.902821e-001  0.000000e+000
    outer loop
      vertex -3.688582e+001  2.827402e+001  7.325000e+001
      vertex -3.688582e+001  2.827402e+001  7.075000e+001
      vertex -3.697118e+001  2.799264e+001  7.325000e+001
    endloop
  endfacet
  facet normal -9.569411e-001  2.902821e-001  0.000000e+000
    outer loop
      vertex -3.697118e+001  2.799264e+001  7.325000e+001
      vertex -3.688582e+001  2.827402e+001  7.075000e+001
      vertex -3.697118e+001  2.799264e+001  7.075000e+001
    endloop
  endfacet
  facet normal -9.951842e-001  9.802329e-002  0.000000e+000
    outer loop
      vertex -3.697118e+001  2.799264e+001  7.325000e+001
      vertex -3.697118e+001  2.799264e+001  7.075000e+001
      vertex -3.700000e+001  2.770000e+001  7.325000e+001
    endloop
  endfacet
  facet normal -9.951842e-001  9.802329e-002  0.000000e+000
    outer loop
      vertex -3.700000e+001  2.770000e+001  7.325000e+001
      vertex -3.697118e+001  2.799264e+001  7.075000e+001
      vertex -3.700000e+001  2.770000e+001  7.075000e+001
    endloop
  endfacet
  facet normal  1.000000e+000  0.000000e+000  0.000000e+000
    outer loop
      vertex -2.000000e+001  2.650000e+001  7.075000e+001
      vertex -2.000000e+001  2.770000e+001  7.075000e+001
      vertex -2.000000e+001  2.650000e+001  7.325000e+001
    endloop
  endfacet
  facet normal  1.000000e+000  -0.000000e+000  0.000000e+000
    outer loop
      vertex -2.000000e+001  2.650000e+001  7.325000e+001
      vertex -2.000000e+001  2.770000e+001  7.075000e+001
      vertex -2.000000e+001  2.770000e+001  7.325000e+001
    endloop
  endfacet
  facet normal  9.801685e-002  9.951847e-001  0.000000e+000
    outer loop
      vertex -2.150000e+001  2.920000e+001  7.075000e+001
      vertex -2.150000e+001  2.920000e+001  7.325000e+001
      vertex -2.120737e+001  2.917118e+001  7.075000e+001
    endloop
  endfacet
  facet normal  9.801685e-002  9.951847e-001  -0.000000e+000
    outer loop
      vertex -2.120737e+001  2.917118e+001  7.075000e+001
      vertex -2.150000e+001  2.920000e+001  7.325000e+001
      vertex -2.120737e+001  2.917118e+001  7.325000e+001
    endloop
  endfacet
  facet normal  2.902880e-001  9.569393e-001  0.000000e+000
    outer loop
      vertex -2.120737e+001  2.917118e+001  7.075000e+001
      vertex -2.120737e+001  2.917118e+001  7.325000e+001
      vertex -2.092598e+001  2.908582e+001  7.075000e+001
    endloop
  endfacet
  facet normal  2.902880e-001  9.569393e-001  -0.000000e+000
    outer loop
      vertex -2.092598e+001  2.908582e+001  7.075000e+001
      vertex -2.120737e+001  2.917118e+001  7.325000e+001
      vertex -2.092598e+001  2.908582e+001  7.325000e+001
    endloop
  endfacet
  facet normal  4.713954e-001  8.819220e-001  0.000000e+000
    outer loop
      vertex -2.092598e+001  2.908582e+001  7.075000e+001
      vertex -2.092598e+001  2.908582e+001  7.325000e+001
      vertex -2.066665e+001  2.894720e+001  7.075000e+001
    endloop
  endfacet
  facet normal  4.713954e-001  8.819220e-001  -0.000000e+000
    outer loop
      vertex -2.066665e+001  2.894720e+001  7.075000e+001
      vertex -2.092598e+001  2.908582e+001  7.325000e+001
      vertex -2.066665e+001  2.894720e+001  7.325000e+001
    endloop
  endfacet
  facet normal  6.343942e-001  7.730096e-001  0.000000e+000
    outer loop
      vertex -2.066665e+001  2.894720e+001  7.075000e+001
      vertex -2.066665e+001  2.894720e+001  7.325000e+001
      vertex -2.043934e+001  2.876066e+001  7.075000e+001
    endloop
  endfacet
  facet normal  6.343942e-001  7.730096e-001  -0.000000e+000
    outer loop
      vertex -2.043934e+001  2.876066e+001  7.075000e+001
      vertex -2.066665e+001  2.894720e+001  7.325000e+001
      vertex -2.043934e+001  2.876066e+001  7.325000e+001
    endloop
  endfacet
  facet normal  7.730096e-001  6.343942e-001  0.000000e+000
    outer loop
      vertex -2.043934e+001  2.876066e+001  7.075000e+001
      vertex -2.043934e+001  2.876066e+001  7.325000e+001
      vertex -2.025280e+001  2.853336e+001  7.075000e+001
    endloop
  endfacet
  facet normal  7.730096e-001  6.343942e-001  -0.000000e+000
    outer loop
      vertex -2.025280e+001  2.853336e+001  7.075000e+001
      vertex -2.043934e+001  2.876066e+001  7.325000e+001
      vertex -2.025280e+001  2.853336e+001  7.325000e+001
    endloop
  endfacet
  facet normal  8.819220e-001  4.713954e-001  0.000000e+000
    outer loop
      vertex -2.025280e+001  2.853336e+001  7.075000e+001
      vertex -2.025280e+001  2.853336e+001  7.325000e+001
      vertex -2.011418e+001  2.827402e+001  7.075000e+001
    endloop
  endfacet
  facet normal  8.819220e-001  4.713954e-001  -0.000000e+000
    outer loop
      vertex -2.011418e+001  2.827402e+001  7.075000e+001
      vertex -2.025280e+001  2.853336e+001  7.325000e+001
      vertex -2.011418e+001  2.827402e+001  7.325000e+001
    endloop
  endfacet
  facet normal  9.569393e-001  2.902880e-001  0.000000e+000
    outer loop
      vertex -2.011418e+001  2.827402e+001  7.075000e+001
      vertex -2.011418e+001  2.827402e+001  7.325000e+001
      vertex -2.002882e+001  2.799264e+001  7.075000e+001
    endloop
  endfacet
  facet normal  9.569393e-001  2.902880e-001  -0.000000e+000
    outer loop
      vertex -2.002882e+001  2.799264e+001  7.075000e+001
      vertex -2.011418e+001  2.827402e+001  7.325000e+001
      vertex -2.002882e+001  2.799264e+001  7.325000e+001
    endloop
  endfacet
  facet normal  9.951847e-001  9.801685e-002  0.000000e+000
    outer loop
      vertex -2.002882e+001  2.799264e+001  7.075000e+001
      vertex -2.002882e+001  2.799264e+001  7.325000e+001
      vertex -2.000000e+001  2.770000e+001  7.075000e+001
    endloop
  endfacet
  facet normal  9.951847e-001  9.801685e-002  -0.000000e+000
    outer loop
      vertex -2.000000e+001  2.770000e+001  7.075000e+001
      vertex -2.002882e+001  2.799264e+001  7.325000e+001
      vertex -2.000000e+001  2.770000e+001  7.325000e+001
    endloop
  endfacet
  facet normal  0.000000e+000  1.000000e+000  0.000000e+000
    outer loop
      vertex -5.700000e+001  2.650000e+001  8.000000e+001
      vertex -3.700000e+001  2.650000e+001  7.325000e+001
      vertex -5.700000e+001  2.650000e+001  1.000000e+001
    endloop
  endfacet
  facet normal  0.000000e+000  1.000000e+000  0.000000e+000
    outer loop
      vertex -5.700000e+001  2.650000e+001  1.000000e+001
      vertex -3.700000e+001  2.650000e+001  7.325000e+001
      vertex -3.700000e+001  2.650000e+001  7.075000e+001
    endloop
  endfacet
  facet normal  0.000000e+000  1.000000e+000  0.000000e+000
    outer loop
      vertex -5.700000e+001  2.650000e+001  1.000000e+001
      vertex -3.700000e+001  2.650000e+001  7.075000e+001
      vertex -3.000000e-001  2.650000e+001  1.000000e+001
    endloop
  endfacet
  facet normal  0.000000e+000  1.000000e+000  0.000000e+000
    outer loop
      vertex -3.000000e-001  2.650000e+001  1.000000e+001
      vertex -3.700000e+001  2.650000e+001  7.075000e+001
      vertex -2.000000e+001  2.650000e+001  7.075000e+001
    endloop
  endfacet
  facet normal  -0.000000e+000  1.000000e+000  0.000000e+000
    outer loop
      vertex -3.000000e-001  2.650000e+001  1.000000e+001
      vertex -2.000000e+001  2.650000e+001  7.075000e+001
      vertex -3.000000e-001  2.650000e+001  8.000000e+001
    endloop
  endfacet
  facet normal  0.000000e+000  1.000000e+000  0.000000e+000
    outer loop
      vertex -3.000000e-001  2.650000e+001  8.000000e+001
      vertex -2.000000e+001  2.650000e+001  7.075000e+001
      vertex -2.000000e+001  2.650000e+001  7.325000e+001
    endloop
  endfacet
  facet normal  0.000000e+000  1.000000e+000  -0.000000e+000
    outer loop
      vertex -3.000000e-001  2.650000e+001  8.000000e+001
      vertex -2.000000e+001  2.650000e+001  7.325000e+001
      vertex -5.700000e+001  2.650000e+001  8.000000e+001
    endloop
  endfacet
  facet normal  0.000000e+000  1.000000e+000  0.000000e+000
    outer loop
      vertex -5.700000e+001  2.650000e+001  8.000000e+001
      vertex -2.000000e+001  2.650000e+001  7.325000e+001
      vertex -3.700000e+001  2.650000e+001  7.325000e+001
    endloop
  endfacet
  facet normal  0.000000e+000  1.000000e+000  0.000000e+000
    outer loop
      vertex  3.000000e-001  2.650000e+001  8.000000e+001
      vertex  2.000000e+001  2.650000e+001  7.325000e+001
      vertex  3.000000e-001  2.650000e+001  1.000000e+001
    endloop
  endfacet
  facet normal  0.000000e+000  1.000000e+000  0.000000e+000
    outer loop
      vertex  3.000000e-001  2.650000e+001  1.000000e+001
      vertex  2.000000e+001  2.650000e+001  7.325000e+001
      vertex  2.000000e+001  2.650000e+001  7.075000e+001
    endloop
  endfacet
  facet normal  0.000000e+000  1.000000e+000  0.000000e+000
    outer loop
      vertex  3.000000e-001  2.650000e+001  1.000000e+001
      vertex  2.000000e+001  2.650000e+001  7.075000e+001
      vertex  5.700000e+001  2.650000e+001  1.000000e+001
    endloop
  endfacet
  facet normal  0.000000e+000  1.000000e+000  0.000000e+000
    outer loop
      vertex  5.700000e+001  2.650000e+001  1.000000e+001
      vertex  2.000000e+001  2.650000e+001  7.075000e+001
      vertex  3.700000e+001  2.650000e+001  7.075000e+001
    endloop
  endfacet
  facet normal  -0.000000e+000  1.000000e+000  0.000000e+000
    outer loop
      vertex  5.700000e+001  2.650000e+001  1.000000e+001
      vertex  3.700000e+001  2.650000e+001  7.075000e+001
      vertex  5.700000e+001  2.650000e+001  8.000000e+001
    endloop
  endfacet
  facet normal  0.000000e+000  1.000000e+000  0.000000e+000
    outer loop
      vertex  5.700000e+001  2.650000e+001  8.000000e+001
      vertex  3.700000e+001  2.650000e+001  7.075000e+001
      vertex  3.700000e+001  2.650000e+001  7.325000e+001
    endloop
  endfacet
  facet normal  0.000000e+000  1.000000e+000  -0.000000e+000
    outer loop
      vertex  5.700000e+001  2.650000e+001  8.000000e+001
      vertex  3.700000e+001  2.650000e+001  7.325000e+001
      vertex  3.000000e-001  2.650000e+001  8.000000e+001
    endloop
  endfacet
  facet normal  0.000000e+000  1.000000e+000  0.000000e+000
    outer loop
      vertex  3.000000e-001  2.650000e+001  8.000000e+001
      vertex  3.700000e+001  2.650000e+001  7.325000e+001
      vertex  2.000000e+001  2.650000e+001  7.325000e+001
    endloop
  endfacet
  facet normal  0.000000e+000  0.000000e+000 -1.000000e+000
    outer loop
      vertex -5.700000e+001  2.350000e+001  1.000000e+001
      vertex -5.700000e+001  2.650000e+001  1.000000e+001
      vertex -3.000000e-001  2.650000e+001  1.000000e+001
    endloop
  endfacet
  facet normal  0.000000e+000  -0.000000e+000 -1.000000e+000
    outer loop
      vertex -5.700000e+001  2.350000e+001  1.000000e+001
      vertex -3.000000e-001  2.650000e+001  1.000000e+001
      vertex -3.000000e-001  2.600000e+001  1.000000e+001
    endloop
  endfacet
  facet normal  0.000000e+000  -0.000000e+000 -1.000000e+000
    outer loop
      vertex -5.700000e+001  2.350000e+001  1.000000e+001
      vertex -3.000000e-001  2.600000e+001  1.000000e+001
      vertex  3.000000e-001  2.600000e+001  1.000000e+001
    endloop
  endfacet
  facet normal  0.000000e+000  -0.000000e+000 -1.000000e+000
    outer loop
      vertex -5.700000e+001  2.350000e+001  1.000000e+001
      vertex  3.000000e-001  2.600000e+001  1.000000e+001
      vertex  5.700000e+001  2.350000e+001  1.000000e+001
    endloop
  endfacet
  facet normal  0.000000e+000  0.000000e+000 -1.000000e+000
    outer loop
      vertex  3.000000e-001  2.600000e+001  1.000000e+001
      vertex  3.000000e-001  2.650000e+001  1.000000e+001
      vertex  5.700000e+001  2.350000e+001  1.000000e+001
    endloop
  endfacet
  facet normal  0.000000e+000  0.000000e+000 -1.000000e+000
    outer loop
      vertex  5.700000e+001  2.350000e+001  1.000000e+001
      vertex  3.000000e-001  2.650000e+001  1.000000e+001
      vertex  5.700000e+001  2.650000e+001  1.000000e+001
    endloop
  endfacet
  facet normal  0.000000e+000  0.000000e+000  1.000000e+000
    outer loop
      vertex -5.700000e+001 -2.350000e+001  8.000000e+001
      vertex  5.700000e+001 -2.350000e+001  8.000000e+001
      vertex  3.000000e-001  2.600000e+001  8.000000e+001
    endloop
  endfacet
  facet normal  0.000000e+000  0.000000e+000  1.000000e+000
    outer loop
      vertex -5.700000e+001 -2.350000e+001  8.000000e+001
      vertex  3.000000e-001  2.600000e+001  8.000000e+001
      vertex -3.000000e-001  2.600000e+001  8.000000e+001
    endloop
  endfacet
  facet normal  0.000000e+000  -0.000000e+000  1.000000e+000
    outer loop
      vertex -5.700000e+001 -2.350000e+001  8.000000e+001
      vertex -3.000000e-001  2.600000e+001  8.000000e+001
      vertex -3.000000e-001  2.650000e+001  8.000000e+001
    endloop
  endfacet
  facet normal  0.000000e+000  0.000000e+000  1.000000e+000
    outer loop
      vertex -5.700000e+001 -2.350000e+001  8.000000e+001
      vertex -3.000000e-001  2.650000e+001  8.000000e+001
      vertex -5.700000e+001  2.650000e+001  8.000000e+001
    endloop
  endfacet
  facet normal  0.000000e+000  0.000000e+000  1.000000e+000
    outer loop
      vertex  3.000000e-001  2.600000e+001  8.000000e+001
      vertex  5.700000e+001 -2.350000e+001  8.000000e+001
      vertex  3.000000e-001  2.650000e+001  8.000000e+001
    endloop
  endfacet
  facet normal  -0.000000e+000  0.000000e+000  1.000000e+000
    outer loop
      vertex  3.000000e-001  2.650000e+001  8.000000e+001
      vertex  5.700000e+001 -2.350000e+001  8.000000e+001
      vertex  5.700000e+001  2.650000e+001  8.000000e+001
    endloop
  endfacet
  facet normal  0.000000e+000  1.000000e+000  0.000000e+000
    outer loop
      vertex  3.000000e-001  2.600000e+001  1.000000e+001
      vertex -3.000000e-001  2.600000e+001  1.000000e+001
      vertex  3.000000e-001  2.600000e+001  8.000000e+001
    endloop
  endfacet
  facet normal  0.000000e+000  1.000000e+000  0.000000e+000
    outer loop
      vertex  3.000000e-001  2.600000e+001  8.000000e+001
      vertex -3.000000e-001  2.600000e+001  1.000000e+001
      vertex -3.000000e-001  2.600000e+001  8.000000e+001
    endloop
  endfacet
  facet normal -1.000000e+000  -0.000000e+000  0.000000e+000
    outer loop
      vertex  3.000000e-001  2.600000e+001  8.000000e+001
      vertex  3.000000e-001  2.650000e+001  8.000000e+001
      vertex  3.000000e-001  2.600000e+001  1.000000e+001
    endloop
  endfacet
  facet normal -1.000000e+000  0.000000e+000  0.000000e+000
    outer loop
      vertex  3.000000e-001  2.600000e+001  1.000000e+001
      vertex  3.000000e-001  2.650000e+001  8.000000e+001
      vertex  3.000000e-001  2.650000e+001  1.000000e+001
    endloop
  endfacet
  facet normal  1.000000e+000  0.000000e+000  0.000000e+000
    outer loop
      vertex -3.000000e-001  2.600000e+001  1.000000e+001
      vertex -3.000000e-001  2.650000e+001  1.000000e+001
      vertex -3.000000e-001  2.600000e+001  8.000000e+001
    endloop
  endfacet
  facet normal  1.000000e+000  -0.000000e+000  0.000000e+000
    outer loop
      vertex -3.000000e-001  2.600000e+001  8.000000e+001
      vertex -3.000000e-001  2.650000e+001  1.000000e+001
      vertex -3.000000e-001  2.650000e+001  8.000000e+001
    endloop
  endfacet
  facet normal  0.000000e+000  0.000000e+000 -1.000000e+000
    outer loop
      vertex -5.700000e+001 -2.350000e+001  0.000000e+000
      vertex -5.700000e+001  2.350000e+001  0.000000e+000
      vertex  5.700000e+001 -2.350000e+001  0.000000e+000
    endloop
  endfacet
  facet normal  0.000000e+000  0.000000e+000 -1.000000e+000
    outer loop
      vertex  5.700000e+001 -2.350000e+001  0.000000e+000
      vertex -5.700000e+001  2.350000e+001  0.000000e+000
      vertex  5.700000e+001  2.350000e+001  0.000000e+000
    endloop
  endfacet
  facet normal  0.000000e+000 -1.000000e+000  0.000000e+000
    outer loop
      vertex -5.700000e+001 -2.350000e+001  8.000000e+001
      vertex -5.700000e+001 -2.350000e+001  0.000000e+000
      vertex  5.700000e+001 -2.350000e+001  8.000000e+001
    endloop
  endfacet
  facet normal  0.000000e+000 -1.000000e+000  -0.000000e+000
    outer loop
      vertex  5.700000e+001 -2.350000e+001  8.000000e+001
      vertex -5.700000e+001 -2.350000e+001  0.000000e+000
      vertex  5.700000e+001 -2.350000e+001  0.000000e+000
    endloop
  endfacet
  facet normal -1.000000e+000  0.000000e+000  0.000000e+000
    outer loop
      vertex -5.700000e+001  2.650000e+001  8.000000e+001
      vertex -5.700000e+001  2.650000e+001  1.000000e+001
      vertex -5.700000e+001 -2.350000e+001  8.000000e+001
    endloop
  endfacet
  facet normal -1.000000e+000  0.000000e+000  0.000000e+000
    outer loop
      vertex -5.700000e+001 -2.350000e+001  8.000000e+001
      vertex -5.700000e+001  2.650000e+001  1.000000e+001
      vertex -5.700000e+001  2.350000e+001  1.000000e+001
    endloop
  endfacet
  facet normal -9.999999e-001  -0.000000e+000  0.000000e+000
    outer loop
      vertex -5.700000e+001 -2.350000e+001  8.000000e+001
      vertex -5.700000e+001  2.350000e+001  1.000000e+001
      vertex -5.700000e+001 -2.350000e+001  0.000000e+000
    endloop
  endfacet
  facet normal -9.999999e-001  0.000000e+000  0.000000e+000
    outer loop
      vertex -5.700000e+001 -2.350000e+001  0.000000e+000
      vertex -5.700000e+001  2.350000e+001  1.000000e+001
      vertex -5.700000e+001  2.350000e+001  0.000000e+000
    endloop
  endfacet
  facet normal  9.999999e-001  0.000000e+000  0.000000e+000
    outer loop
      vertex  5.700000e+001 -2.350000e+001  0.000000e+000
      vertex  5.700000e+001  2.350000e+001  0.000000e+000
      vertex  5.700000e+001 -2.350000e+001  8.000000e+001
    endloop
  endfacet
  facet normal  9.999999e-001  0.000000e+000  0.000000e+000
    outer loop
      vertex  5.700000e+001 -2.350000e+001  8.000000e+001
      vertex  5.700000e+001  2.350000e+001  0.000000e+000
      vertex  5.700000e+001  2.350000e+001  1.000000e+001
    endloop
  endfacet
  facet normal  1.000000e+000  0.000000e+000  -0.000000e+000
    outer loop
      vertex  5.700000e+001 -2.350000e+001  8.000000e+001
      vertex  5.700000e+001  2.350000e+001  1.000000e+001
      vertex  5.700000e+001  2.650000e+001  8.000000e+001
    endloop
  endfacet
  facet normal  1.000000e+000  0.000000e+000  0.000000e+000
    outer loop
      vertex  5.700000e+001  2.650000e+001  8.000000e+001
      vertex  5.700000e+001  2.350000e+001  1.000000e+001
      vertex  5.700000e+001  2.650000e+001  1.000000e+001
    endloop
  endfacet
  facet normal  0.000000e+000  1.000000e+000  -0.000000e+000
    outer loop
      vertex  5.700000e+001  2.350000e+001  1.000000e+001
      vertex  5.700000e+001  2.350000e+001  0.000000e+000
      vertex -5.700000e+001  2.350000e+001  1.000000e+001
    endloop
  endfacet
  facet normal  0.000000e+000  1.000000e+000  0.000000e+000
    outer loop
      vertex -5.700000e+001  2.350000e+001  1.000000e+001
      vertex  5.700000e+001  2.350000e+001  0.000000e+000
      vertex -5.700000e+001  2.350000e+001  0.000000e+000
    endloop
  endfacet
endsolid CATIA STL
