solid CATIA STL
  facet normal  0.000000e+000  1.000000e+000  -0.000000e+000
    outer loop
      vertex -1.000000e+002  5.500000e+001  2.500000e+001
      vertex -1.000000e+002  5.500000e+001  0.000000e+000
      vertex -1.150000e+002  5.500000e+001  0.000000e+000
    endloop
  endfacet
  facet normal  0.000000e+000  9.999999e-001  0.000000e+000
    outer loop
      vertex -1.000000e+002  5.500000e+001  2.500000e+001
      vertex -1.150000e+002  5.500000e+001  0.000000e+000
      vertex -1.150000e+002  5.500000e+001  6.500000e+001
    endloop
  endfacet
  facet normal  0.000000e+000  1.000000e+000  0.000000e+000
    outer loop
      vertex -1.000000e+002  5.500000e+001  2.500000e+001
      vertex -1.150000e+002  5.500000e+001  6.500000e+001
      vertex -8.500000e+001  5.500000e+001  4.500000e+001
    endloop
  endfacet
  facet normal  0.000000e+000  1.000000e+000  0.000000e+000
    outer loop
      vertex -1.000000e+002  5.500000e+001  2.500000e+001
      vertex -8.500000e+001  5.500000e+001  4.500000e+001
      vertex -8.500000e+001  5.500000e+001  3.500000e+001
    endloop
  endfacet
  facet normal  -0.000000e+000  9.999999e-001  0.000000e+000
    outer loop
      vertex -1.000000e+002  5.500000e+001  2.500000e+001
      vertex -8.500000e+001  5.500000e+001  3.500000e+001
      vertex  0.000000e+000  5.500000e+001  3.500000e+001
    endloop
  endfacet
  facet normal  0.000000e+000  9.999999e-001  0.000000e+000
    outer loop
      vertex -1.000000e+002  5.500000e+001  2.500000e+001
      vertex  0.000000e+000  5.500000e+001  3.500000e+001
      vertex -1.500000e+001  5.500000e+001  2.500000e+001
    endloop
  endfacet
  facet normal  0.000000e+000  1.000000e+000  0.000000e+000
    outer loop
      vertex  0.000000e+000  5.500000e+001  0.000000e+000
      vertex -1.500000e+001  5.500000e+001  0.000000e+000
      vertex  0.000000e+000  5.500000e+001  3.500000e+001
    endloop
  endfacet
  facet normal  0.000000e+000  1.000000e+000  0.000000e+000
    outer loop
      vertex  0.000000e+000  5.500000e+001  3.500000e+001
      vertex -1.500000e+001  5.500000e+001  0.000000e+000
      vertex -1.500000e+001  5.500000e+001  2.500000e+001
    endloop
  endfacet
  facet normal  0.000000e+000  1.000000e+000  0.000000e+000
    outer loop
      vertex -6.500000e+001  5.500000e+001  4.500000e+001
      vertex -8.500000e+001  5.500000e+001  4.500000e+001
      vertex -6.500000e+001  5.500000e+001  6.500000e+001
    endloop
  endfacet
  facet normal  0.000000e+000  1.000000e+000  0.000000e+000
    outer loop
      vertex -6.500000e+001  5.500000e+001  6.500000e+001
      vertex -8.500000e+001  5.500000e+001  4.500000e+001
      vertex -1.150000e+002  5.500000e+001  6.500000e+001
    endloop
  endfacet
  facet normal -1.000000e+000  -0.000000e+000  0.000000e+000
    outer loop
      vertex -3.250000e+001  2.000000e+001  1.100000e+001
      vertex -3.250000e+001  2.500000e+001  1.100000e+001
      vertex -3.250000e+001  2.000000e+001  6.000000e+000
    endloop
  endfacet
  facet normal -1.000000e+000  0.000000e+000  0.000000e+000
    outer loop
      vertex -3.250000e+001  2.000000e+001  6.000000e+000
      vertex -3.250000e+001  2.500000e+001  1.100000e+001
      vertex -3.250000e+001  2.500000e+001  6.000000e+000
    endloop
  endfacet
  facet normal  0.000000e+000  0.000000e+000  1.000000e+000
    outer loop
      vertex -8.250000e+001  2.000000e+001  6.000000e+000
      vertex -3.250000e+001  2.000000e+001  6.000000e+000
      vertex -8.250000e+001  2.500000e+001  6.000000e+000
    endloop
  endfacet
  facet normal  -0.000000e+000  0.000000e+000  1.000000e+000
    outer loop
      vertex -8.250000e+001  2.500000e+001  6.000000e+000
      vertex -3.250000e+001  2.000000e+001  6.000000e+000
      vertex -3.250000e+001  2.500000e+001  6.000000e+000
    endloop
  endfacet
  facet normal  1.000000e+000  0.000000e+000  0.000000e+000
    outer loop
      vertex -8.250000e+001  2.000000e+001  6.000000e+000
      vertex -8.250000e+001  2.500000e+001  6.000000e+000
      vertex -8.250000e+001  2.000000e+001  1.100000e+001
    endloop
  endfacet
  facet normal  1.000000e+000  -0.000000e+000  0.000000e+000
    outer loop
      vertex -8.250000e+001  2.000000e+001  1.100000e+001
      vertex -8.250000e+001  2.500000e+001  6.000000e+000
      vertex -8.250000e+001  2.500000e+001  1.100000e+001
    endloop
  endfacet
  facet normal  0.000000e+000  0.000000e+000 -1.000000e+000
    outer loop
      vertex -3.250000e+001  2.000000e+001  1.100000e+001
      vertex -8.250000e+001  2.000000e+001  1.100000e+001
      vertex -3.250000e+001  2.500000e+001  1.100000e+001
    endloop
  endfacet
  facet normal  -0.000000e+000  0.000000e+000 -1.000000e+000
    outer loop
      vertex -3.250000e+001  2.500000e+001  1.100000e+001
      vertex -8.250000e+001  2.000000e+001  1.100000e+001
      vertex -8.250000e+001  2.500000e+001  1.100000e+001
    endloop
  endfacet
  facet normal  0.000000e+000  0.000000e+000 -9.999999e-001
    outer loop
      vertex  0.000000e+000  2.000000e+001  0.000000e+000
      vertex -8.500000e+001  2.000000e+001  0.000000e+000
      vertex -1.000000e+002  2.500000e+001  0.000000e+000
    endloop
  endfacet
  facet normal -3.343730e-016 -6.687461e-015 -9.999999e-001
    outer loop
      vertex  0.000000e+000  2.000000e+001  0.000000e+000
      vertex -1.000000e+002  2.500000e+001  0.000000e+000
      vertex -1.500000e+001  2.500000e+001 -2.842171e-014
    endloop
  endfacet
  facet normal  2.210577e-015  9.473904e-016 -1.000000e+000
    outer loop
      vertex  0.000000e+000  2.000000e+001  0.000000e+000
      vertex -1.500000e+001  2.500000e+001 -2.842171e-014
      vertex -1.500000e+001  5.500000e+001  0.000000e+000
    endloop
  endfacet
  facet normal  0.000000e+000  0.000000e+000 -1.000000e+000
    outer loop
      vertex  0.000000e+000  2.000000e+001  0.000000e+000
      vertex -1.500000e+001  5.500000e+001  0.000000e+000
      vertex  0.000000e+000  5.500000e+001  0.000000e+000
    endloop
  endfacet
  facet normal  -0.000000e+000  0.000000e+000 -1.000000e+000
    outer loop
      vertex -1.150000e+002  5.500000e+001  0.000000e+000
      vertex -1.000000e+002  5.500000e+001  0.000000e+000
      vertex -1.150000e+002  0.000000e+000  0.000000e+000
    endloop
  endfacet
  facet normal  0.000000e+000  0.000000e+000 -1.000000e+000
    outer loop
      vertex -1.150000e+002  0.000000e+000  0.000000e+000
      vertex -1.000000e+002  5.500000e+001  0.000000e+000
      vertex -1.000000e+002  2.500000e+001  0.000000e+000
    endloop
  endfacet
  facet normal  0.000000e+000  -0.000000e+000 -1.000000e+000
    outer loop
      vertex -1.150000e+002  0.000000e+000  0.000000e+000
      vertex -1.000000e+002  2.500000e+001  0.000000e+000
      vertex -8.500000e+001  0.000000e+000  0.000000e+000
    endloop
  endfacet
  facet normal  0.000000e+000  0.000000e+000 -1.000000e+000
    outer loop
      vertex -8.500000e+001  0.000000e+000  0.000000e+000
      vertex -1.000000e+002  2.500000e+001  0.000000e+000
      vertex -8.500000e+001  2.000000e+001  0.000000e+000
    endloop
  endfacet
  facet normal  0.000000e+000  1.000000e+000  0.000000e+000
    outer loop
      vertex -1.000000e+002  2.500000e+001  0.000000e+000
      vertex -8.250000e+001  2.500000e+001  6.000000e+000
      vertex -1.500000e+001  2.500000e+001 -2.842171e-014
    endloop
  endfacet
  facet normal  0.000000e+000  1.000000e+000  0.000000e+000
    outer loop
      vertex -1.500000e+001  2.500000e+001 -2.842171e-014
      vertex -8.250000e+001  2.500000e+001  6.000000e+000
      vertex -3.250000e+001  2.500000e+001  6.000000e+000
    endloop
  endfacet
  facet normal  -0.000000e+000  1.000000e+000  0.000000e+000
    outer loop
      vertex -1.500000e+001  2.500000e+001 -2.842171e-014
      vertex -3.250000e+001  2.500000e+001  6.000000e+000
      vertex -1.500000e+001  2.500000e+001  2.500000e+001
    endloop
  endfacet
  facet normal  0.000000e+000  1.000000e+000  0.000000e+000
    outer loop
      vertex -1.500000e+001  2.500000e+001  2.500000e+001
      vertex -3.250000e+001  2.500000e+001  6.000000e+000
      vertex -3.250000e+001  2.500000e+001  1.100000e+001
    endloop
  endfacet
  facet normal  0.000000e+000  1.000000e+000  -0.000000e+000
    outer loop
      vertex -1.500000e+001  2.500000e+001  2.500000e+001
      vertex -3.250000e+001  2.500000e+001  1.100000e+001
      vertex -1.000000e+002  2.500000e+001  2.500000e+001
    endloop
  endfacet
  facet normal  0.000000e+000  1.000000e+000  0.000000e+000
    outer loop
      vertex -1.000000e+002  2.500000e+001  2.500000e+001
      vertex -3.250000e+001  2.500000e+001  1.100000e+001
      vertex -8.250000e+001  2.500000e+001  1.100000e+001
    endloop
  endfacet
  facet normal  0.000000e+000  1.000000e+000  0.000000e+000
    outer loop
      vertex -1.000000e+002  2.500000e+001  2.500000e+001
      vertex -8.250000e+001  2.500000e+001  1.100000e+001
      vertex -1.000000e+002  2.500000e+001  0.000000e+000
    endloop
  endfacet
  facet normal  0.000000e+000  1.000000e+000  0.000000e+000
    outer loop
      vertex -1.000000e+002  2.500000e+001  0.000000e+000
      vertex -8.250000e+001  2.500000e+001  1.100000e+001
      vertex -8.250000e+001  2.500000e+001  6.000000e+000
    endloop
  endfacet
  facet normal  0.000000e+000  0.000000e+000 -1.000000e+000
    outer loop
      vertex -1.500000e+001  2.500000e+001  2.500000e+001
      vertex -1.000000e+002  2.500000e+001  2.500000e+001
      vertex -1.500000e+001  5.500000e+001  2.500000e+001
    endloop
  endfacet
  facet normal  -0.000000e+000  0.000000e+000 -1.000000e+000
    outer loop
      vertex -1.500000e+001  5.500000e+001  2.500000e+001
      vertex -1.000000e+002  2.500000e+001  2.500000e+001
      vertex -1.000000e+002  5.500000e+001  2.500000e+001
    endloop
  endfacet
  facet normal  1.000000e+000  0.000000e+000  0.000000e+000
    outer loop
      vertex -1.000000e+002  5.500000e+001  0.000000e+000
      vertex -1.000000e+002  5.500000e+001  2.500000e+001
      vertex -1.000000e+002  2.500000e+001  0.000000e+000
    endloop
  endfacet
  facet normal  1.000000e+000  0.000000e+000  0.000000e+000
    outer loop
      vertex -1.000000e+002  2.500000e+001  0.000000e+000
      vertex -1.000000e+002  5.500000e+001  2.500000e+001
      vertex -1.000000e+002  2.500000e+001  2.500000e+001
    endloop
  endfacet
  facet normal -1.000000e+000  0.000000e+000  0.000000e+000
    outer loop
      vertex -1.500000e+001  5.500000e+001  2.500000e+001
      vertex -1.500000e+001  5.500000e+001  0.000000e+000
      vertex -1.500000e+001  2.500000e+001  2.500000e+001
    endloop
  endfacet
  facet normal -1.000000e+000  0.000000e+000  0.000000e+000
    outer loop
      vertex -1.500000e+001  2.500000e+001  2.500000e+001
      vertex -1.500000e+001  5.500000e+001  0.000000e+000
      vertex -1.500000e+001  2.500000e+001 -2.842171e-014
    endloop
  endfacet
  facet normal  1.000000e+000  0.000000e+000  0.000000e+000
    outer loop
      vertex -8.500000e+001  2.000000e+001  0.000000e+000
      vertex -8.500000e+001  0.000000e+000  4.500000e+001
      vertex -8.500000e+001  0.000000e+000  4.000000e+001
    endloop
  endfacet
  facet normal  1.000000e+000  0.000000e+000  0.000000e+000
    outer loop
      vertex -8.500000e+001  2.000000e+001  0.000000e+000
      vertex -8.500000e+001  0.000000e+000  4.000000e+001
      vertex -8.500000e+001  0.000000e+000  3.500000e+001
    endloop
  endfacet
  facet normal  1.000000e+000  0.000000e+000  0.000000e+000
    outer loop
      vertex -8.500000e+001  2.000000e+001  0.000000e+000
      vertex -8.500000e+001  0.000000e+000  3.500000e+001
      vertex -8.500000e+001  0.000000e+000  0.000000e+000
    endloop
  endfacet
  facet normal  1.000000e+000  0.000000e+000  -0.000000e+000
    outer loop
      vertex -8.500000e+001  0.000000e+000  4.500000e+001
      vertex -8.500000e+001  2.000000e+001  0.000000e+000
      vertex -8.500000e+001  2.000000e+001  3.500000e+001
    endloop
  endfacet
  facet normal  1.000000e+000  0.000000e+000  -0.000000e+000
    outer loop
      vertex -8.500000e+001  0.000000e+000  4.500000e+001
      vertex -8.500000e+001  2.000000e+001  3.500000e+001
      vertex -8.500000e+001  5.500000e+001  3.500000e+001
    endloop
  endfacet
  facet normal  1.000000e+000  0.000000e+000  -0.000000e+000
    outer loop
      vertex -8.500000e+001  0.000000e+000  4.500000e+001
      vertex -8.500000e+001  5.500000e+001  3.500000e+001
      vertex -8.500000e+001  5.500000e+001  4.500000e+001
    endloop
  endfacet
  facet normal  0.000000e+000 -1.000000e+000  -0.000000e+000
    outer loop
      vertex  0.000000e+000  2.000000e+001  0.000000e+000
      vertex -8.250000e+001  2.000000e+001  6.000000e+000
      vertex -8.500000e+001  2.000000e+001  0.000000e+000
    endloop
  endfacet
  facet normal  0.000000e+000 -1.000000e+000  0.000000e+000
    outer loop
      vertex -8.500000e+001  2.000000e+001  0.000000e+000
      vertex -8.250000e+001  2.000000e+001  6.000000e+000
      vertex -8.250000e+001  2.000000e+001  1.100000e+001
    endloop
  endfacet
  facet normal  -0.000000e+000 -1.000000e+000  0.000000e+000
    outer loop
      vertex -8.500000e+001  2.000000e+001  0.000000e+000
      vertex -8.250000e+001  2.000000e+001  1.100000e+001
      vertex -8.500000e+001  2.000000e+001  3.500000e+001
    endloop
  endfacet
  facet normal  0.000000e+000 -1.000000e+000  0.000000e+000
    outer loop
      vertex -8.250000e+001  2.000000e+001  6.000000e+000
      vertex  0.000000e+000  2.000000e+001  0.000000e+000
      vertex -3.250000e+001  2.000000e+001  6.000000e+000
    endloop
  endfacet
  facet normal  0.000000e+000 -1.000000e+000  0.000000e+000
    outer loop
      vertex -3.250000e+001  2.000000e+001  6.000000e+000
      vertex  0.000000e+000  2.000000e+001  0.000000e+000
      vertex  0.000000e+000  2.000000e+001  3.500000e+001
    endloop
  endfacet
  facet normal  0.000000e+000 -1.000000e+000  0.000000e+000
    outer loop
      vertex -3.250000e+001  2.000000e+001  6.000000e+000
      vertex  0.000000e+000  2.000000e+001  3.500000e+001
      vertex -3.250000e+001  2.000000e+001  1.100000e+001
    endloop
  endfacet
  facet normal  0.000000e+000 -1.000000e+000  0.000000e+000
    outer loop
      vertex -3.250000e+001  2.000000e+001  1.100000e+001
      vertex  0.000000e+000  2.000000e+001  3.500000e+001
      vertex -8.500000e+001  2.000000e+001  3.500000e+001
    endloop
  endfacet
  facet normal  0.000000e+000 -1.000000e+000  0.000000e+000
    outer loop
      vertex -3.250000e+001  2.000000e+001  1.100000e+001
      vertex -8.500000e+001  2.000000e+001  3.500000e+001
      vertex -8.250000e+001  2.000000e+001  1.100000e+001
    endloop
  endfacet
  facet normal  0.000000e+000  0.000000e+000  1.000000e+000
    outer loop
      vertex -8.500000e+001  5.500000e+001  3.500000e+001
      vertex -8.500000e+001  2.000000e+001  3.500000e+001
      vertex  0.000000e+000  5.500000e+001  3.500000e+001
    endloop
  endfacet
  facet normal  0.000000e+000  0.000000e+000  1.000000e+000
    outer loop
      vertex  0.000000e+000  5.500000e+001  3.500000e+001
      vertex -8.500000e+001  2.000000e+001  3.500000e+001
      vertex  0.000000e+000  2.000000e+001  3.500000e+001
    endloop
  endfacet
  facet normal  1.000000e+000  0.000000e+000  0.000000e+000
    outer loop
      vertex  0.000000e+000  2.000000e+001  3.500000e+001
      vertex  0.000000e+000  2.000000e+001  0.000000e+000
      vertex  0.000000e+000  5.500000e+001  3.500000e+001
    endloop
  endfacet
  facet normal  1.000000e+000  0.000000e+000  0.000000e+000
    outer loop
      vertex  0.000000e+000  5.500000e+001  3.500000e+001
      vertex  0.000000e+000  2.000000e+001  0.000000e+000
      vertex  0.000000e+000  5.500000e+001  0.000000e+000
    endloop
  endfacet
  facet normal  0.000000e+000 -1.000000e+000  0.000000e+000
    outer loop
      vertex -1.150000e+002  0.000000e+000  0.000000e+000
      vertex -8.500000e+001  0.000000e+000  0.000000e+000
      vertex -8.500000e+001  0.000000e+000  3.500000e+001
    endloop
  endfacet
  facet normal  -0.000000e+000 -1.000000e+000  0.000000e+000
    outer loop
      vertex -1.150000e+002  0.000000e+000  0.000000e+000
      vertex -8.500000e+001  0.000000e+000  3.500000e+001
      vertex -8.500000e+001  0.000000e+000  4.000000e+001
    endloop
  endfacet
  facet normal  -0.000000e+000 -1.000000e+000  0.000000e+000
    outer loop
      vertex -1.150000e+002  0.000000e+000  0.000000e+000
      vertex -8.500000e+001  0.000000e+000  4.000000e+001
      vertex -8.500000e+001  0.000000e+000  4.500000e+001
    endloop
  endfacet
  facet normal  -0.000000e+000 -9.999999e-001  0.000000e+000
    outer loop
      vertex -1.150000e+002  0.000000e+000  0.000000e+000
      vertex -8.500000e+001  0.000000e+000  4.500000e+001
      vertex -1.150000e+002  0.000000e+000  6.500000e+001
    endloop
  endfacet
  facet normal  0.000000e+000 -1.000000e+000  -0.000000e+000
    outer loop
      vertex -6.500000e+001  0.000000e+000  4.500000e+001
      vertex -6.500000e+001  0.000000e+000  6.500000e+001
      vertex -8.500000e+001  0.000000e+000  4.500000e+001
    endloop
  endfacet
  facet normal  0.000000e+000 -1.000000e+000  0.000000e+000
    outer loop
      vertex -8.500000e+001  0.000000e+000  4.500000e+001
      vertex -6.500000e+001  0.000000e+000  6.500000e+001
      vertex -1.150000e+002  0.000000e+000  6.500000e+001
    endloop
  endfacet
  facet normal  0.000000e+000  0.000000e+000 -1.000000e+000
    outer loop
      vertex -6.500000e+001  0.000000e+000  4.500000e+001
      vertex -8.500000e+001  0.000000e+000  4.500000e+001
      vertex -6.500000e+001  5.500000e+001  4.500000e+001
    endloop
  endfacet
  facet normal  -0.000000e+000  0.000000e+000 -1.000000e+000
    outer loop
      vertex -6.500000e+001  5.500000e+001  4.500000e+001
      vertex -8.500000e+001  0.000000e+000  4.500000e+001
      vertex -8.500000e+001  5.500000e+001  4.500000e+001
    endloop
  endfacet
  facet normal  1.000000e+000  0.000000e+000  0.000000e+000
    outer loop
      vertex -6.500000e+001  0.000000e+000  6.500000e+001
      vertex -6.500000e+001  0.000000e+000  4.500000e+001
      vertex -6.500000e+001  5.500000e+001  6.500000e+001
    endloop
  endfacet
  facet normal  1.000000e+000  0.000000e+000  0.000000e+000
    outer loop
      vertex -6.500000e+001  5.500000e+001  6.500000e+001
      vertex -6.500000e+001  0.000000e+000  4.500000e+001
      vertex -6.500000e+001  5.500000e+001  4.500000e+001
    endloop
  endfacet
  facet normal  0.000000e+000  0.000000e+000  1.000000e+000
    outer loop
      vertex -1.150000e+002  0.000000e+000  6.500000e+001
      vertex -6.500000e+001  0.000000e+000  6.500000e+001
      vertex -1.150000e+002  5.500000e+001  6.500000e+001
    endloop
  endfacet
  facet normal  -0.000000e+000  0.000000e+000  1.000000e+000
    outer loop
      vertex -1.150000e+002  5.500000e+001  6.500000e+001
      vertex -6.500000e+001  0.000000e+000  6.500000e+001
      vertex -6.500000e+001  5.500000e+001  6.500000e+001
    endloop
  endfacet
  facet normal -1.000000e+000  0.000000e+000  0.000000e+000
    outer loop
      vertex -1.150000e+002  5.500000e+001  0.000000e+000
      vertex -1.150000e+002  0.000000e+000  0.000000e+000
      vertex -1.150000e+002  5.500000e+001  6.500000e+001
    endloop
  endfacet
  facet normal -1.000000e+000  -0.000000e+000  0.000000e+000
    outer loop
      vertex -1.150000e+002  5.500000e+001  6.500000e+001
      vertex -1.150000e+002  0.000000e+000  0.000000e+000
      vertex -1.150000e+002  0.000000e+000  6.500000e+001
    endloop
  endfacet
endsolid CATIA STL
