solid CATIA STL
  facet normal  0.000000e+000  1.000000e+000  -0.000000e+000
    outer loop
      vertex  4.350000e+001  4.055000e+002  0.000000e+000
      vertex  4.350000e+001  4.055000e+002 -7.430000e+002
      vertex  1.850000e+001  4.055000e+002  0.000000e+000
    endloop
  endfacet
  facet normal  0.000000e+000  1.000000e+000  0.000000e+000
    outer loop
      vertex  1.850000e+001  4.055000e+002  0.000000e+000
      vertex  4.350000e+001  4.055000e+002 -7.430000e+002
      vertex  1.850000e+001  4.055000e+002 -7.430000e+002
    endloop
  endfacet
  facet normal  0.000000e+000  1.000000e+000  0.000000e+000
    outer loop
      vertex  6.325000e+002  8.000000e+001 -7.430000e+002
      vertex  4.900000e+001  8.000000e+001 -7.430000e+002
      vertex  6.325000e+002  8.000000e+001 -6.844246e+002
    endloop
  endfacet
  facet normal  0.000000e+000  9.999999e-001  0.000000e+000
    outer loop
      vertex  4.350000e+001  8.000000e+001  0.000000e+000
      vertex  6.325000e+002  8.000000e+001  0.000000e+000
      vertex  6.325000e+002  8.000000e+001 -3.557537e+001
    endloop
  endfacet
  facet normal  0.000000e+000  9.999999e-001  0.000000e+000
    outer loop
      vertex  4.350000e+001  8.000000e+001  0.000000e+000
      vertex  6.325000e+002  8.000000e+001 -3.557537e+001
      vertex  6.325000e+002  8.000000e+001 -8.442463e+001
    endloop
  endfacet
  facet normal  0.000000e+000  1.000000e+000  0.000000e+000
    outer loop
      vertex  4.350000e+001  8.000000e+001  0.000000e+000
      vertex  6.325000e+002  8.000000e+001 -8.442463e+001
      vertex  6.325000e+002  8.000000e+001 -1.555754e+002
    endloop
  endfacet
  facet normal  0.000000e+000  1.000000e+000  0.000000e+000
    outer loop
      vertex  4.350000e+001  8.000000e+001  0.000000e+000
      vertex  6.325000e+002  8.000000e+001 -1.555754e+002
      vertex  6.325000e+002  8.000000e+001 -2.044246e+002
    endloop
  endfacet
  facet normal  0.000000e+000  1.000000e+000  0.000000e+000
    outer loop
      vertex  4.350000e+001  8.000000e+001  0.000000e+000
      vertex  6.325000e+002  8.000000e+001 -2.044246e+002
      vertex  6.325000e+002  8.000000e+001 -2.755754e+002
    endloop
  endfacet
  facet normal  0.000000e+000  1.000000e+000  0.000000e+000
    outer loop
      vertex  4.350000e+001  8.000000e+001  0.000000e+000
      vertex  6.325000e+002  8.000000e+001 -2.755754e+002
      vertex  6.325000e+002  8.000000e+001 -3.244246e+002
    endloop
  endfacet
  facet normal  0.000000e+000  1.000000e+000  0.000000e+000
    outer loop
      vertex  4.350000e+001  8.000000e+001  0.000000e+000
      vertex  6.325000e+002  8.000000e+001 -3.244246e+002
      vertex  6.325000e+002  8.000000e+001 -3.955754e+002
    endloop
  endfacet
  facet normal  0.000000e+000  1.000000e+000  0.000000e+000
    outer loop
      vertex  4.350000e+001  8.000000e+001  0.000000e+000
      vertex  6.325000e+002  8.000000e+001 -3.955754e+002
      vertex  6.325000e+002  8.000000e+001 -4.444246e+002
    endloop
  endfacet
  facet normal  0.000000e+000  1.000000e+000  0.000000e+000
    outer loop
      vertex  4.350000e+001  8.000000e+001  0.000000e+000
      vertex  6.325000e+002  8.000000e+001 -4.444246e+002
      vertex  6.325000e+002  8.000000e+001 -5.155754e+002
    endloop
  endfacet
  facet normal  0.000000e+000  1.000000e+000  0.000000e+000
    outer loop
      vertex  4.350000e+001  8.000000e+001  0.000000e+000
      vertex  6.325000e+002  8.000000e+001 -5.155754e+002
      vertex  6.325000e+002  8.000000e+001 -5.644246e+002
    endloop
  endfacet
  facet normal  0.000000e+000  1.000000e+000  0.000000e+000
    outer loop
      vertex  4.350000e+001  8.000000e+001  0.000000e+000
      vertex  6.325000e+002  8.000000e+001 -5.644246e+002
      vertex  6.325000e+002  8.000000e+001 -6.355754e+002
    endloop
  endfacet
  facet normal  0.000000e+000  1.000000e+000  0.000000e+000
    outer loop
      vertex  4.350000e+001  8.000000e+001  0.000000e+000
      vertex  6.325000e+002  8.000000e+001 -6.355754e+002
      vertex  6.325000e+002  8.000000e+001 -6.844246e+002
    endloop
  endfacet
  facet normal  0.000000e+000  1.000000e+000  0.000000e+000
    outer loop
      vertex  4.350000e+001  8.000000e+001  0.000000e+000
      vertex  6.325000e+002  8.000000e+001 -6.844246e+002
      vertex  4.900000e+001  8.000000e+001 -7.430000e+002
    endloop
  endfacet
  facet normal  0.000000e+000  1.000000e+000  0.000000e+000
    outer loop
      vertex  4.350000e+001  8.000000e+001  0.000000e+000
      vertex  4.900000e+001  8.000000e+001 -7.430000e+002
      vertex  4.350000e+001  8.000000e+001 -7.430000e+002
    endloop
  endfacet
  facet normal  1.000000e+000  0.000000e+000  0.000000e+000
    outer loop
      vertex  4.350000e+001  8.000000e+001 -7.430000e+002
      vertex  4.350000e+001  1.055000e+002 -7.430000e+002
      vertex  4.350000e+001  8.000000e+001  0.000000e+000
    endloop
  endfacet
  facet normal  1.000000e+000  0.000000e+000  0.000000e+000
    outer loop
      vertex  4.350000e+001  8.000000e+001  0.000000e+000
      vertex  4.350000e+001  1.055000e+002 -7.430000e+002
      vertex  4.350000e+001  4.055000e+002 -7.430000e+002
    endloop
  endfacet
  facet normal  9.999999e-001  0.000000e+000  -0.000000e+000
    outer loop
      vertex  4.350000e+001  8.000000e+001  0.000000e+000
      vertex  4.350000e+001  4.055000e+002 -7.430000e+002
      vertex  4.350000e+001  4.055000e+002  0.000000e+000
    endloop
  endfacet
  facet normal  1.000000e+000  0.000000e+000  0.000000e+000
    outer loop
      vertex  6.325000e+002 -7.105427e-014  0.000000e+000
      vertex  6.325000e+002 -7.105427e-014 -7.430000e+002
      vertex  6.325000e+002  8.000000e+001 -7.430000e+002
    endloop
  endfacet
  facet normal  1.000000e+000  0.000000e+000  -0.000000e+000
    outer loop
      vertex  6.325000e+002 -7.105427e-014  0.000000e+000
      vertex  6.325000e+002  8.000000e+001 -7.430000e+002
      vertex  6.325000e+002  8.000000e+001 -6.844246e+002
    endloop
  endfacet
  facet normal  9.999999e-001  0.000000e+000  -0.000000e+000
    outer loop
      vertex  6.325000e+002 -7.105427e-014  0.000000e+000
      vertex  6.325000e+002  8.000000e+001 -6.844246e+002
      vertex  6.325000e+002  8.000000e+001 -6.355754e+002
    endloop
  endfacet
  facet normal  1.000000e+000  0.000000e+000  -0.000000e+000
    outer loop
      vertex  6.325000e+002 -7.105427e-014  0.000000e+000
      vertex  6.325000e+002  8.000000e+001 -6.355754e+002
      vertex  6.325000e+002  8.000000e+001 -5.644246e+002
    endloop
  endfacet
  facet normal  9.999999e-001  0.000000e+000  -0.000000e+000
    outer loop
      vertex  6.325000e+002 -7.105427e-014  0.000000e+000
      vertex  6.325000e+002  8.000000e+001 -5.644246e+002
      vertex  6.325000e+002  8.000000e+001 -5.155754e+002
    endloop
  endfacet
  facet normal  1.000000e+000  0.000000e+000  -0.000000e+000
    outer loop
      vertex  6.325000e+002 -7.105427e-014  0.000000e+000
      vertex  6.325000e+002  8.000000e+001 -5.155754e+002
      vertex  6.325000e+002  8.000000e+001 -4.444246e+002
    endloop
  endfacet
  facet normal  9.999999e-001  0.000000e+000  -0.000000e+000
    outer loop
      vertex  6.325000e+002 -7.105427e-014  0.000000e+000
      vertex  6.325000e+002  8.000000e+001 -4.444246e+002
      vertex  6.325000e+002  8.000000e+001 -3.955754e+002
    endloop
  endfacet
  facet normal  1.000000e+000  0.000000e+000  -0.000000e+000
    outer loop
      vertex  6.325000e+002 -7.105427e-014  0.000000e+000
      vertex  6.325000e+002  8.000000e+001 -3.955754e+002
      vertex  6.325000e+002  8.000000e+001 -3.244246e+002
    endloop
  endfacet
  facet normal  9.999999e-001  0.000000e+000  -0.000000e+000
    outer loop
      vertex  6.325000e+002 -7.105427e-014  0.000000e+000
      vertex  6.325000e+002  8.000000e+001 -3.244246e+002
      vertex  6.325000e+002  8.000000e+001 -2.755754e+002
    endloop
  endfacet
  facet normal  1.000000e+000  0.000000e+000  -0.000000e+000
    outer loop
      vertex  6.325000e+002 -7.105427e-014  0.000000e+000
      vertex  6.325000e+002  8.000000e+001 -2.755754e+002
      vertex  6.325000e+002  8.000000e+001 -2.044246e+002
    endloop
  endfacet
  facet normal  9.999999e-001  0.000000e+000  -0.000000e+000
    outer loop
      vertex  6.325000e+002 -7.105427e-014  0.000000e+000
      vertex  6.325000e+002  8.000000e+001 -2.044246e+002
      vertex  6.325000e+002  8.000000e+001 -1.555754e+002
    endloop
  endfacet
  facet normal  1.000000e+000  0.000000e+000  -0.000000e+000
    outer loop
      vertex  6.325000e+002 -7.105427e-014  0.000000e+000
      vertex  6.325000e+002  8.000000e+001 -1.555754e+002
      vertex  6.325000e+002  8.000000e+001 -8.442463e+001
    endloop
  endfacet
  facet normal  1.000000e+000  0.000000e+000  -0.000000e+000
    outer loop
      vertex  6.325000e+002 -7.105427e-014  0.000000e+000
      vertex  6.325000e+002  8.000000e+001 -8.442463e+001
      vertex  6.325000e+002  8.000000e+001 -3.557537e+001
    endloop
  endfacet
  facet normal  1.000000e+000  0.000000e+000  -0.000000e+000
    outer loop
      vertex  6.325000e+002 -7.105427e-014  0.000000e+000
      vertex  6.325000e+002  8.000000e+001 -3.557537e+001
      vertex  6.325000e+002  8.000000e+001  0.000000e+000
    endloop
  endfacet
  facet normal  0.000000e+000  0.000000e+000 -1.000000e+000
    outer loop
      vertex  2.000000e+001  0.000000e+000 -7.430000e+002
      vertex  1.850000e+001  1.500000e+000 -7.430000e+002
      vertex  1.850000e+001  4.055000e+002 -7.430000e+002
    endloop
  endfacet
  facet normal  0.000000e+000  0.000000e+000 -1.000000e+000
    outer loop
      vertex  2.000000e+001  0.000000e+000 -7.430000e+002
      vertex  1.850000e+001  4.055000e+002 -7.430000e+002
      vertex  4.350000e+001  4.055000e+002 -7.430000e+002
    endloop
  endfacet
  facet normal  0.000000e+000  -0.000000e+000 -1.000000e+000
    outer loop
      vertex  2.000000e+001  0.000000e+000 -7.430000e+002
      vertex  4.350000e+001  4.055000e+002 -7.430000e+002
      vertex  4.350000e+001  1.055000e+002 -7.430000e+002
    endloop
  endfacet
  facet normal  0.000000e+000  -0.000000e+000 -1.000000e+000
    outer loop
      vertex  2.000000e+001  0.000000e+000 -7.430000e+002
      vertex  4.350000e+001  1.055000e+002 -7.430000e+002
      vertex  4.350000e+001  8.000000e+001 -7.430000e+002
    endloop
  endfacet
  facet normal  0.000000e+000  -0.000000e+000 -1.000000e+000
    outer loop
      vertex  2.000000e+001  0.000000e+000 -7.430000e+002
      vertex  4.350000e+001  8.000000e+001 -7.430000e+002
      vertex  2.880000e+002  0.000000e+000 -7.430000e+002
    endloop
  endfacet
  facet normal  0.000000e+000  0.000000e+000 -1.000000e+000
    outer loop
      vertex  6.325000e+002  8.000000e+001 -7.430000e+002
      vertex  6.325000e+002 -7.105427e-014 -7.430000e+002
      vertex  4.080000e+002  0.000000e+000 -7.430000e+002
    endloop
  endfacet
  facet normal  0.000000e+000  0.000000e+000 -1.000000e+000
    outer loop
      vertex  6.325000e+002  8.000000e+001 -7.430000e+002
      vertex  4.080000e+002  0.000000e+000 -7.430000e+002
      vertex  3.980000e+002  1.000000e+001 -7.430000e+002
    endloop
  endfacet
  facet normal  0.000000e+000  0.000000e+000 -9.999999e-001
    outer loop
      vertex  6.325000e+002  8.000000e+001 -7.430000e+002
      vertex  3.980000e+002  1.000000e+001 -7.430000e+002
      vertex  3.980000e+002  5.000000e+001 -7.430000e+002
    endloop
  endfacet
  facet normal  0.000000e+000  0.000000e+000 -1.000000e+000
    outer loop
      vertex  6.325000e+002  8.000000e+001 -7.430000e+002
      vertex  3.980000e+002  5.000000e+001 -7.430000e+002
      vertex  2.980000e+002  5.000000e+001 -7.430000e+002
    endloop
  endfacet
  facet normal  0.000000e+000  0.000000e+000 -1.000000e+000
    outer loop
      vertex  6.325000e+002  8.000000e+001 -7.430000e+002
      vertex  2.980000e+002  5.000000e+001 -7.430000e+002
      vertex  4.900000e+001  8.000000e+001 -7.430000e+002
    endloop
  endfacet
  facet normal  -0.000000e+000  -0.000000e+000 -9.999999e-001
    outer loop
      vertex  4.350000e+001  8.000000e+001 -7.430000e+002
      vertex  4.900000e+001  8.000000e+001 -7.430000e+002
      vertex  2.880000e+002  0.000000e+000 -7.430000e+002
    endloop
  endfacet
  facet normal  0.000000e+000  0.000000e+000 -1.000000e+000
    outer loop
      vertex  2.880000e+002  0.000000e+000 -7.430000e+002
      vertex  4.900000e+001  8.000000e+001 -7.430000e+002
      vertex  2.980000e+002  5.000000e+001 -7.430000e+002
    endloop
  endfacet
  facet normal  0.000000e+000  -0.000000e+000 -1.000000e+000
    outer loop
      vertex  2.880000e+002  0.000000e+000 -7.430000e+002
      vertex  2.980000e+002  5.000000e+001 -7.430000e+002
      vertex  2.980000e+002  1.000000e+001 -7.430000e+002
    endloop
  endfacet
  facet normal  0.000000e+000  0.000000e+000  1.000000e+000
    outer loop
      vertex  6.325000e+002 -7.105427e-014  0.000000e+000
      vertex  3.980000e+002  1.000000e+001  0.000000e+000
      vertex  4.080000e+002  0.000000e+000  0.000000e+000
    endloop
  endfacet
  facet normal  -0.000000e+000  0.000000e+000  1.000000e+000
    outer loop
      vertex  6.325000e+002  8.000000e+001  0.000000e+000
      vertex  4.350000e+001  8.000000e+001  0.000000e+000
      vertex  2.980000e+002  5.000000e+001  0.000000e+000
    endloop
  endfacet
  facet normal  0.000000e+000  0.000000e+000  1.000000e+000
    outer loop
      vertex  6.325000e+002  8.000000e+001  0.000000e+000
      vertex  2.980000e+002  5.000000e+001  0.000000e+000
      vertex  3.980000e+002  5.000000e+001  0.000000e+000
    endloop
  endfacet
  facet normal  -0.000000e+000  0.000000e+000  9.999999e-001
    outer loop
      vertex  6.325000e+002  8.000000e+001  0.000000e+000
      vertex  3.980000e+002  5.000000e+001  0.000000e+000
      vertex  3.980000e+002  1.000000e+001  0.000000e+000
    endloop
  endfacet
  facet normal  -0.000000e+000  0.000000e+000  9.999999e-001
    outer loop
      vertex  6.325000e+002  8.000000e+001  0.000000e+000
      vertex  3.980000e+002  1.000000e+001  0.000000e+000
      vertex  6.325000e+002 -7.105427e-014  0.000000e+000
    endloop
  endfacet
  facet normal  -0.000000e+000  0.000000e+000  1.000000e+000
    outer loop
      vertex  4.350000e+001  4.055000e+002  0.000000e+000
      vertex  1.850000e+001  4.055000e+002  0.000000e+000
      vertex  4.350000e+001  8.000000e+001  0.000000e+000
    endloop
  endfacet
  facet normal  0.000000e+000  0.000000e+000  1.000000e+000
    outer loop
      vertex  4.350000e+001  8.000000e+001  0.000000e+000
      vertex  1.850000e+001  4.055000e+002  0.000000e+000
      vertex  1.850000e+001  1.500000e+000  0.000000e+000
    endloop
  endfacet
  facet normal  0.000000e+000  0.000000e+000  1.000000e+000
    outer loop
      vertex  4.350000e+001  8.000000e+001  0.000000e+000
      vertex  1.850000e+001  1.500000e+000  0.000000e+000
      vertex  2.980000e+002  5.000000e+001  0.000000e+000
    endloop
  endfacet
  facet normal  0.000000e+000  0.000000e+000  9.999999e-001
    outer loop
      vertex  2.980000e+002  5.000000e+001  0.000000e+000
      vertex  1.850000e+001  1.500000e+000  0.000000e+000
      vertex  2.980000e+002  1.000000e+001  0.000000e+000
    endloop
  endfacet
  facet normal  0.000000e+000  -0.000000e+000  1.000000e+000
    outer loop
      vertex  1.850000e+001  1.500000e+000  0.000000e+000
      vertex  2.000000e+001 -7.886314e-011  0.000000e+000
      vertex  2.980000e+002  1.000000e+001  0.000000e+000
    endloop
  endfacet
  facet normal  0.000000e+000  0.000000e+000  1.000000e+000
    outer loop
      vertex  2.980000e+002  1.000000e+001  0.000000e+000
      vertex  2.000000e+001 -7.886314e-011  0.000000e+000
      vertex  2.880000e+002  0.000000e+000  0.000000e+000
    endloop
  endfacet
  facet normal -3.165001e-016 -1.000000e+000  0.000000e+000
    outer loop
      vertex  4.080000e+002  0.000000e+000  0.000000e+000
      vertex  4.080000e+002  0.000000e+000 -7.430000e+002
      vertex  6.325000e+002 -7.105427e-014  0.000000e+000
    endloop
  endfacet
  facet normal -3.165001e-016 -1.000000e+000  -0.000000e+000
    outer loop
      vertex  6.325000e+002 -7.105427e-014  0.000000e+000
      vertex  4.080000e+002  0.000000e+000 -7.430000e+002
      vertex  6.325000e+002 -7.105427e-014 -7.430000e+002
    endloop
  endfacet
  facet normal  0.000000e+000 -1.000000e+000  0.000000e+000
    outer loop
      vertex  2.980000e+002  5.000000e+001 -7.430000e+002
      vertex  3.980000e+002  5.000000e+001 -7.430000e+002
      vertex  2.980000e+002  5.000000e+001  0.000000e+000
    endloop
  endfacet
  facet normal  0.000000e+000 -1.000000e+000  0.000000e+000
    outer loop
      vertex  2.980000e+002  5.000000e+001  0.000000e+000
      vertex  3.980000e+002  5.000000e+001 -7.430000e+002
      vertex  3.980000e+002  5.000000e+001  0.000000e+000
    endloop
  endfacet
  facet normal -1.000000e+000  0.000000e+000  0.000000e+000
    outer loop
      vertex  3.980000e+002  5.000000e+001 -7.430000e+002
      vertex  3.980000e+002  1.000000e+001 -7.430000e+002
      vertex  3.980000e+002  5.000000e+001  0.000000e+000
    endloop
  endfacet
  facet normal -1.000000e+000  -0.000000e+000  0.000000e+000
    outer loop
      vertex  3.980000e+002  5.000000e+001  0.000000e+000
      vertex  3.980000e+002  1.000000e+001 -7.430000e+002
      vertex  3.980000e+002  1.000000e+001  0.000000e+000
    endloop
  endfacet
  facet normal  1.000000e+000  0.000000e+000  0.000000e+000
    outer loop
      vertex  2.980000e+002  1.000000e+001 -7.430000e+002
      vertex  2.980000e+002  5.000000e+001 -7.430000e+002
      vertex  2.980000e+002  1.000000e+001  0.000000e+000
    endloop
  endfacet
  facet normal  1.000000e+000  -0.000000e+000  0.000000e+000
    outer loop
      vertex  2.980000e+002  1.000000e+001  0.000000e+000
      vertex  2.980000e+002  5.000000e+001 -7.430000e+002
      vertex  2.980000e+002  5.000000e+001  0.000000e+000
    endloop
  endfacet
  facet normal -7.071068e-001 -7.071068e-001  0.000000e+000
    outer loop
      vertex  4.080000e+002  0.000000e+000  0.000000e+000
      vertex  3.980000e+002  1.000000e+001  0.000000e+000
      vertex  4.080000e+002  0.000000e+000 -7.430000e+002
    endloop
  endfacet
  facet normal -7.071068e-001 -7.071068e-001  0.000000e+000
    outer loop
      vertex  4.080000e+002  0.000000e+000 -7.430000e+002
      vertex  3.980000e+002  1.000000e+001  0.000000e+000
      vertex  3.980000e+002  1.000000e+001 -7.430000e+002
    endloop
  endfacet
  facet normal  2.942655e-013 -1.000000e+000 -1.061415e-013
    outer loop
      vertex  2.000000e+001 -7.886314e-011  0.000000e+000
      vertex  2.000000e+001  0.000000e+000 -7.430000e+002
      vertex  2.880000e+002  0.000000e+000  0.000000e+000
    endloop
  endfacet
  facet normal  0.000000e+000 -1.000000e+000  -0.000000e+000
    outer loop
      vertex  2.880000e+002  0.000000e+000  0.000000e+000
      vertex  2.000000e+001  0.000000e+000 -7.430000e+002
      vertex  2.880000e+002  0.000000e+000 -7.430000e+002
    endloop
  endfacet
  facet normal  7.071068e-001 -7.071068e-001  0.000000e+000
    outer loop
      vertex  2.880000e+002  0.000000e+000 -7.430000e+002
      vertex  2.980000e+002  1.000000e+001 -7.430000e+002
      vertex  2.880000e+002  0.000000e+000  0.000000e+000
    endloop
  endfacet
  facet normal  7.071068e-001 -7.071068e-001  0.000000e+000
    outer loop
      vertex  2.880000e+002  0.000000e+000  0.000000e+000
      vertex  2.980000e+002  1.000000e+001 -7.430000e+002
      vertex  2.980000e+002  1.000000e+001  0.000000e+000
    endloop
  endfacet
  facet normal -7.071068e-001 -7.071068e-001  0.000000e+000
    outer loop
      vertex  2.000000e+001 -7.886314e-011  0.000000e+000
      vertex  1.850000e+001  1.500000e+000  0.000000e+000
      vertex  2.000000e+001  0.000000e+000 -7.430000e+002
    endloop
  endfacet
  facet normal -7.071068e-001 -7.071068e-001  0.000000e+000
    outer loop
      vertex  2.000000e+001  0.000000e+000 -7.430000e+002
      vertex  1.850000e+001  1.500000e+000  0.000000e+000
      vertex  1.850000e+001  1.500000e+000 -7.430000e+002
    endloop
  endfacet
  facet normal -1.000000e+000  -0.000000e+000  0.000000e+000
    outer loop
      vertex  1.850000e+001  1.500000e+000  0.000000e+000
      vertex  1.850000e+001  4.055000e+002  0.000000e+000
      vertex  1.850000e+001  1.500000e+000 -7.430000e+002
    endloop
  endfacet
  facet normal -1.000000e+000  0.000000e+000  0.000000e+000
    outer loop
      vertex  1.850000e+001  1.500000e+000 -7.430000e+002
      vertex  1.850000e+001  4.055000e+002  0.000000e+000
      vertex  1.850000e+001  4.055000e+002 -7.430000e+002
    endloop
  endfacet
endsolid CATIA STL
