solid CATIA STL
  facet normal  0.000000e+000  0.000000e+000 -9.999999e-001
    outer loop
      vertex -1.051188e+001 -3.743993e+001  0.000000e+000
      vertex -1.051188e+001  7.560066e+000  0.000000e+000
      vertex -1.847759e+000 -1.428880e+001  0.000000e+000
    endloop
  endfacet
  facet normal  0.000000e+000  0.000000e+000 -1.000000e+000
    outer loop
      vertex -1.051188e+001 -3.743993e+001  0.000000e+000
      vertex -1.847759e+000 -1.428880e+001  0.000000e+000
      vertex -1.961571e+000 -1.466398e+001  0.000000e+000
    endloop
  endfacet
  facet normal  0.000000e+000  0.000000e+000 -1.000000e+000
    outer loop
      vertex -1.051188e+001 -3.743993e+001  0.000000e+000
      vertex -1.961571e+000 -1.466398e+001  0.000000e+000
      vertex -2.000000e+000 -1.505416e+001  0.000000e+000
    endloop
  endfacet
  facet normal  0.000000e+000  -0.000000e+000 -1.000000e+000
    outer loop
      vertex -1.051188e+001 -3.743993e+001  0.000000e+000
      vertex -2.000000e+000 -1.505416e+001  0.000000e+000
      vertex -1.961571e+000 -1.544434e+001  0.000000e+000
    endloop
  endfacet
  facet normal  0.000000e+000  -0.000000e+000 -1.000000e+000
    outer loop
      vertex -1.051188e+001 -3.743993e+001  0.000000e+000
      vertex -1.961571e+000 -1.544434e+001  0.000000e+000
      vertex -1.847759e+000 -1.581953e+001  0.000000e+000
    endloop
  endfacet
  facet normal  0.000000e+000  -0.000000e+000 -1.000000e+000
    outer loop
      vertex -1.051188e+001 -3.743993e+001  0.000000e+000
      vertex -1.847759e+000 -1.581953e+001  0.000000e+000
      vertex -1.662939e+000 -1.616530e+001  0.000000e+000
    endloop
  endfacet
  facet normal  0.000000e+000  -0.000000e+000 -9.999999e-001
    outer loop
      vertex -1.051188e+001 -3.743993e+001  0.000000e+000
      vertex -1.662939e+000 -1.616530e+001  0.000000e+000
      vertex -1.414214e+000 -1.646838e+001  0.000000e+000
    endloop
  endfacet
  facet normal  0.000000e+000  -0.000000e+000 -1.000000e+000
    outer loop
      vertex -1.051188e+001 -3.743993e+001  0.000000e+000
      vertex -1.414214e+000 -1.646838e+001  0.000000e+000
      vertex -1.111140e+000 -1.671710e+001  0.000000e+000
    endloop
  endfacet
  facet normal  0.000000e+000  -0.000000e+000 -1.000000e+000
    outer loop
      vertex -1.051188e+001 -3.743993e+001  0.000000e+000
      vertex -1.111140e+000 -1.671710e+001  0.000000e+000
      vertex -7.653669e-001 -1.690192e+001  0.000000e+000
    endloop
  endfacet
  facet normal  0.000000e+000  -0.000000e+000 -1.000000e+000
    outer loop
      vertex -1.051188e+001 -3.743993e+001  0.000000e+000
      vertex -7.653669e-001 -1.690192e+001  0.000000e+000
      vertex -3.901806e-001 -1.701573e+001  0.000000e+000
    endloop
  endfacet
  facet normal  0.000000e+000  -0.000000e+000 -1.000000e+000
    outer loop
      vertex -1.051188e+001 -3.743993e+001  0.000000e+000
      vertex -3.901806e-001 -1.701573e+001  0.000000e+000
      vertex  1.224606e-016 -1.705416e+001  0.000000e+000
    endloop
  endfacet
  facet normal  0.000000e+000  -0.000000e+000 -1.000000e+000
    outer loop
      vertex -1.051188e+001 -3.743993e+001  0.000000e+000
      vertex  1.224606e-016 -1.705416e+001  0.000000e+000
      vertex  1.506605e+001 -2.286098e+001  0.000000e+000
    endloop
  endfacet
  facet normal  0.000000e+000  -0.000000e+000 -1.000000e+000
    outer loop
      vertex -1.051188e+001 -3.743993e+001  0.000000e+000
      vertex  1.506605e+001 -2.286098e+001  0.000000e+000
      vertex  1.510455e+001 -2.344834e+001  0.000000e+000
    endloop
  endfacet
  facet normal  0.000000e+000  -0.000000e+000 -1.000000e+000
    outer loop
      vertex -1.051188e+001 -3.743993e+001  0.000000e+000
      vertex  1.510455e+001 -2.344834e+001  0.000000e+000
      vertex  1.521939e+001 -2.402566e+001  0.000000e+000
    endloop
  endfacet
  facet normal  0.000000e+000  -0.000000e+000 -1.000000e+000
    outer loop
      vertex -1.051188e+001 -3.743993e+001  0.000000e+000
      vertex  1.521939e+001 -2.402566e+001  0.000000e+000
      vertex  1.540859e+001 -2.458305e+001  0.000000e+000
    endloop
  endfacet
  facet normal  0.000000e+000  -0.000000e+000 -1.000000e+000
    outer loop
      vertex -1.051188e+001 -3.743993e+001  0.000000e+000
      vertex  1.540859e+001 -2.458305e+001  0.000000e+000
      vertex  1.566894e+001 -2.511098e+001  0.000000e+000
    endloop
  endfacet
  facet normal  0.000000e+000  -0.000000e+000 -1.000000e+000
    outer loop
      vertex -1.051188e+001 -3.743993e+001  0.000000e+000
      vertex  1.566894e+001 -2.511098e+001  0.000000e+000
      vertex  1.599596e+001 -2.560040e+001  0.000000e+000
    endloop
  endfacet
  facet normal  0.000000e+000  -0.000000e+000 -1.000000e+000
    outer loop
      vertex -1.051188e+001 -3.743993e+001  0.000000e+000
      vertex  1.599596e+001 -2.560040e+001  0.000000e+000
      vertex  1.638407e+001 -2.604296e+001  0.000000e+000
    endloop
  endfacet
  facet normal  0.000000e+000  -0.000000e+000 -1.000000e+000
    outer loop
      vertex -1.051188e+001 -3.743993e+001  0.000000e+000
      vertex  1.638407e+001 -2.604296e+001  0.000000e+000
      vertex  1.682663e+001 -2.643106e+001  0.000000e+000
    endloop
  endfacet
  facet normal  0.000000e+000  -0.000000e+000 -1.000000e+000
    outer loop
      vertex -1.051188e+001 -3.743993e+001  0.000000e+000
      vertex  1.682663e+001 -2.643106e+001  0.000000e+000
      vertex  1.731605e+001 -2.675809e+001  0.000000e+000
    endloop
  endfacet
  facet normal  0.000000e+000  -0.000000e+000 -1.000000e+000
    outer loop
      vertex -1.051188e+001 -3.743993e+001  0.000000e+000
      vertex  1.731605e+001 -2.675809e+001  0.000000e+000
      vertex  1.784398e+001 -2.701843e+001  0.000000e+000
    endloop
  endfacet
  facet normal  0.000000e+000  -0.000000e+000 -1.000000e+000
    outer loop
      vertex -1.051188e+001 -3.743993e+001  0.000000e+000
      vertex  1.784398e+001 -2.701843e+001  0.000000e+000
      vertex  1.840137e+001 -2.720764e+001  0.000000e+000
    endloop
  endfacet
  facet normal  0.000000e+000  -0.000000e+000 -1.000000e+000
    outer loop
      vertex -1.051188e+001 -3.743993e+001  0.000000e+000
      vertex  1.840137e+001 -2.720764e+001  0.000000e+000
      vertex  1.897868e+001 -2.732248e+001  0.000000e+000
    endloop
  endfacet
  facet normal  0.000000e+000  -0.000000e+000 -1.000000e+000
    outer loop
      vertex -1.051188e+001 -3.743993e+001  0.000000e+000
      vertex  1.897868e+001 -2.732248e+001  0.000000e+000
      vertex  1.956605e+001 -2.736098e+001  0.000000e+000
    endloop
  endfacet
  facet normal  0.000000e+000  -0.000000e+000 -1.000000e+000
    outer loop
      vertex -1.051188e+001 -3.743993e+001  0.000000e+000
      vertex  1.956605e+001 -2.736098e+001  0.000000e+000
      vertex  3.448812e+001 -3.743993e+001  0.000000e+000
    endloop
  endfacet
  facet normal  -0.000000e+000  0.000000e+000 -1.000000e+000
    outer loop
      vertex  1.224606e-016 -1.705416e+001  0.000000e+000
      vertex  1.956605e+001 -1.836098e+001  0.000000e+000
      vertex  1.897868e+001 -1.839947e+001  0.000000e+000
    endloop
  endfacet
  facet normal  -0.000000e+000  0.000000e+000 -9.999999e-001
    outer loop
      vertex  1.224606e-016 -1.705416e+001  0.000000e+000
      vertex  1.897868e+001 -1.839947e+001  0.000000e+000
      vertex  1.840137e+001 -1.851431e+001  0.000000e+000
    endloop
  endfacet
  facet normal  -0.000000e+000  0.000000e+000 -1.000000e+000
    outer loop
      vertex  1.224606e-016 -1.705416e+001  0.000000e+000
      vertex  1.840137e+001 -1.851431e+001  0.000000e+000
      vertex  1.784398e+001 -1.870352e+001  0.000000e+000
    endloop
  endfacet
  facet normal  -0.000000e+000  0.000000e+000 -1.000000e+000
    outer loop
      vertex  1.224606e-016 -1.705416e+001  0.000000e+000
      vertex  1.784398e+001 -1.870352e+001  0.000000e+000
      vertex  1.731605e+001 -1.896386e+001  0.000000e+000
    endloop
  endfacet
  facet normal  -0.000000e+000  0.000000e+000 -1.000000e+000
    outer loop
      vertex  1.224606e-016 -1.705416e+001  0.000000e+000
      vertex  1.731605e+001 -1.896386e+001  0.000000e+000
      vertex  1.682663e+001 -1.929089e+001  0.000000e+000
    endloop
  endfacet
  facet normal  -0.000000e+000  0.000000e+000 -1.000000e+000
    outer loop
      vertex  1.224606e-016 -1.705416e+001  0.000000e+000
      vertex  1.682663e+001 -1.929089e+001  0.000000e+000
      vertex  1.638407e+001 -1.967900e+001  0.000000e+000
    endloop
  endfacet
  facet normal  -0.000000e+000  0.000000e+000 -1.000000e+000
    outer loop
      vertex  1.224606e-016 -1.705416e+001  0.000000e+000
      vertex  1.638407e+001 -1.967900e+001  0.000000e+000
      vertex  1.599596e+001 -2.012155e+001  0.000000e+000
    endloop
  endfacet
  facet normal  -0.000000e+000  0.000000e+000 -1.000000e+000
    outer loop
      vertex  1.224606e-016 -1.705416e+001  0.000000e+000
      vertex  1.599596e+001 -2.012155e+001  0.000000e+000
      vertex  1.566894e+001 -2.061098e+001  0.000000e+000
    endloop
  endfacet
  facet normal  -0.000000e+000  0.000000e+000 -1.000000e+000
    outer loop
      vertex  1.224606e-016 -1.705416e+001  0.000000e+000
      vertex  1.566894e+001 -2.061098e+001  0.000000e+000
      vertex  1.540859e+001 -2.113890e+001  0.000000e+000
    endloop
  endfacet
  facet normal  -0.000000e+000  0.000000e+000 -1.000000e+000
    outer loop
      vertex  1.224606e-016 -1.705416e+001  0.000000e+000
      vertex  1.540859e+001 -2.113890e+001  0.000000e+000
      vertex  1.521939e+001 -2.169629e+001  0.000000e+000
    endloop
  endfacet
  facet normal  -0.000000e+000  0.000000e+000 -1.000000e+000
    outer loop
      vertex  1.224606e-016 -1.705416e+001  0.000000e+000
      vertex  1.521939e+001 -2.169629e+001  0.000000e+000
      vertex  1.510455e+001 -2.227361e+001  0.000000e+000
    endloop
  endfacet
  facet normal  -0.000000e+000  0.000000e+000 -1.000000e+000
    outer loop
      vertex  1.224606e-016 -1.705416e+001  0.000000e+000
      vertex  1.510455e+001 -2.227361e+001  0.000000e+000
      vertex  1.506605e+001 -2.286098e+001  0.000000e+000
    endloop
  endfacet
  facet normal  -0.000000e+000  0.000000e+000 -1.000000e+000
    outer loop
      vertex -1.051188e+001  7.560066e+000  0.000000e+000
      vertex  3.448812e+001  7.560066e+000  0.000000e+000
      vertex  1.956605e+001 -1.836098e+001  0.000000e+000
    endloop
  endfacet
  facet normal  0.000000e+000  0.000000e+000 -1.000000e+000
    outer loop
      vertex -1.051188e+001  7.560066e+000  0.000000e+000
      vertex  1.956605e+001 -1.836098e+001  0.000000e+000
      vertex  3.901806e-001 -1.309259e+001  0.000000e+000
    endloop
  endfacet
  facet normal  0.000000e+000  0.000000e+000 -1.000000e+000
    outer loop
      vertex -1.051188e+001  7.560066e+000  0.000000e+000
      vertex  3.901806e-001 -1.309259e+001  0.000000e+000
      vertex -3.673819e-016 -1.305416e+001  0.000000e+000
    endloop
  endfacet
  facet normal  -0.000000e+000  0.000000e+000 -1.000000e+000
    outer loop
      vertex -1.051188e+001  7.560066e+000  0.000000e+000
      vertex -3.673819e-016 -1.305416e+001  0.000000e+000
      vertex -3.901806e-001 -1.309259e+001  0.000000e+000
    endloop
  endfacet
  facet normal  -0.000000e+000  0.000000e+000 -1.000000e+000
    outer loop
      vertex -1.051188e+001  7.560066e+000  0.000000e+000
      vertex -3.901806e-001 -1.309259e+001  0.000000e+000
      vertex -7.653669e-001 -1.320640e+001  0.000000e+000
    endloop
  endfacet
  facet normal  -0.000000e+000  0.000000e+000 -1.000000e+000
    outer loop
      vertex -1.051188e+001  7.560066e+000  0.000000e+000
      vertex -7.653669e-001 -1.320640e+001  0.000000e+000
      vertex -1.111140e+000 -1.339122e+001  0.000000e+000
    endloop
  endfacet
  facet normal  -0.000000e+000  0.000000e+000 -1.000000e+000
    outer loop
      vertex -1.051188e+001  7.560066e+000  0.000000e+000
      vertex -1.111140e+000 -1.339122e+001  0.000000e+000
      vertex -1.414214e+000 -1.363995e+001  0.000000e+000
    endloop
  endfacet
  facet normal  -0.000000e+000  0.000000e+000 -1.000000e+000
    outer loop
      vertex -1.051188e+001  7.560066e+000  0.000000e+000
      vertex -1.414214e+000 -1.363995e+001  0.000000e+000
      vertex -1.662939e+000 -1.394302e+001  0.000000e+000
    endloop
  endfacet
  facet normal  -0.000000e+000  0.000000e+000 -1.000000e+000
    outer loop
      vertex -1.051188e+001  7.560066e+000  0.000000e+000
      vertex -1.662939e+000 -1.394302e+001  0.000000e+000
      vertex -1.847759e+000 -1.428880e+001  0.000000e+000
    endloop
  endfacet
  facet normal  0.000000e+000  0.000000e+000 -1.000000e+000
    outer loop
      vertex  1.956605e+001 -1.836098e+001  0.000000e+000
      vertex  1.224606e-016 -1.705416e+001  0.000000e+000
      vertex  3.901806e-001 -1.701573e+001  0.000000e+000
    endloop
  endfacet
  facet normal  0.000000e+000  0.000000e+000 -1.000000e+000
    outer loop
      vertex  1.956605e+001 -1.836098e+001  0.000000e+000
      vertex  3.901806e-001 -1.701573e+001  0.000000e+000
      vertex  7.653669e-001 -1.690192e+001  0.000000e+000
    endloop
  endfacet
  facet normal  0.000000e+000  0.000000e+000 -9.999999e-001
    outer loop
      vertex  1.956605e+001 -1.836098e+001  0.000000e+000
      vertex  7.653669e-001 -1.690192e+001  0.000000e+000
      vertex  1.111140e+000 -1.671710e+001  0.000000e+000
    endloop
  endfacet
  facet normal  0.000000e+000  0.000000e+000 -1.000000e+000
    outer loop
      vertex  1.956605e+001 -1.836098e+001  0.000000e+000
      vertex  1.111140e+000 -1.671710e+001  0.000000e+000
      vertex  1.414214e+000 -1.646838e+001  0.000000e+000
    endloop
  endfacet
  facet normal  0.000000e+000  0.000000e+000 -1.000000e+000
    outer loop
      vertex  1.956605e+001 -1.836098e+001  0.000000e+000
      vertex  1.414214e+000 -1.646838e+001  0.000000e+000
      vertex  1.662939e+000 -1.616530e+001  0.000000e+000
    endloop
  endfacet
  facet normal  0.000000e+000  0.000000e+000 -1.000000e+000
    outer loop
      vertex  1.956605e+001 -1.836098e+001  0.000000e+000
      vertex  1.662939e+000 -1.616530e+001  0.000000e+000
      vertex  1.847759e+000 -1.581953e+001  0.000000e+000
    endloop
  endfacet
  facet normal  0.000000e+000  0.000000e+000 -1.000000e+000
    outer loop
      vertex  1.956605e+001 -1.836098e+001  0.000000e+000
      vertex  1.847759e+000 -1.581953e+001  0.000000e+000
      vertex  1.961571e+000 -1.544434e+001  0.000000e+000
    endloop
  endfacet
  facet normal -1.855383e-016 -1.119889e-015 -1.000000e+000
    outer loop
      vertex  1.956605e+001 -1.836098e+001  0.000000e+000
      vertex  1.961571e+000 -1.544434e+001  0.000000e+000
      vertex  2.000000e+000 -1.505416e+001 -4.440892e-016
    endloop
  endfacet
  facet normal  2.440658e-016  1.162202e-015 -1.000000e+000
    outer loop
      vertex  1.956605e+001 -1.836098e+001  0.000000e+000
      vertex  2.000000e+000 -1.505416e+001 -4.440892e-016
      vertex  1.961571e+000 -1.466398e+001  0.000000e+000
    endloop
  endfacet
  facet normal  0.000000e+000  0.000000e+000 -1.000000e+000
    outer loop
      vertex  1.956605e+001 -1.836098e+001  0.000000e+000
      vertex  1.961571e+000 -1.466398e+001  0.000000e+000
      vertex  1.847759e+000 -1.428880e+001  0.000000e+000
    endloop
  endfacet
  facet normal  0.000000e+000  0.000000e+000 -1.000000e+000
    outer loop
      vertex  1.956605e+001 -1.836098e+001  0.000000e+000
      vertex  1.847759e+000 -1.428880e+001  0.000000e+000
      vertex  1.662939e+000 -1.394302e+001  0.000000e+000
    endloop
  endfacet
  facet normal  0.000000e+000  0.000000e+000 -1.000000e+000
    outer loop
      vertex  1.956605e+001 -1.836098e+001  0.000000e+000
      vertex  1.662939e+000 -1.394302e+001  0.000000e+000
      vertex  1.414214e+000 -1.363995e+001  0.000000e+000
    endloop
  endfacet
  facet normal  0.000000e+000  0.000000e+000 -1.000000e+000
    outer loop
      vertex  1.956605e+001 -1.836098e+001  0.000000e+000
      vertex  1.414214e+000 -1.363995e+001  0.000000e+000
      vertex  1.111140e+000 -1.339122e+001  0.000000e+000
    endloop
  endfacet
  facet normal  0.000000e+000  0.000000e+000 -1.000000e+000
    outer loop
      vertex  1.956605e+001 -1.836098e+001  0.000000e+000
      vertex  1.111140e+000 -1.339122e+001  0.000000e+000
      vertex  7.653669e-001 -1.320640e+001  0.000000e+000
    endloop
  endfacet
  facet normal  0.000000e+000  0.000000e+000 -9.999999e-001
    outer loop
      vertex  1.956605e+001 -1.836098e+001  0.000000e+000
      vertex  7.653669e-001 -1.320640e+001  0.000000e+000
      vertex  3.901806e-001 -1.309259e+001  0.000000e+000
    endloop
  endfacet
  facet normal  0.000000e+000  0.000000e+000 -1.000000e+000
    outer loop
      vertex  3.448812e+001 -3.743993e+001  0.000000e+000
      vertex  1.956605e+001 -2.736098e+001  0.000000e+000
      vertex  2.015342e+001 -2.732248e+001  0.000000e+000
    endloop
  endfacet
  facet normal  0.000000e+000  0.000000e+000 -1.000000e+000
    outer loop
      vertex  3.448812e+001 -3.743993e+001  0.000000e+000
      vertex  2.015342e+001 -2.732248e+001  0.000000e+000
      vertex  2.073074e+001 -2.720764e+001  0.000000e+000
    endloop
  endfacet
  facet normal  0.000000e+000  0.000000e+000 -1.000000e+000
    outer loop
      vertex  3.448812e+001 -3.743993e+001  0.000000e+000
      vertex  2.073074e+001 -2.720764e+001  0.000000e+000
      vertex  2.128813e+001 -2.701843e+001  0.000000e+000
    endloop
  endfacet
  facet normal  0.000000e+000  0.000000e+000 -1.000000e+000
    outer loop
      vertex  3.448812e+001 -3.743993e+001  0.000000e+000
      vertex  2.128813e+001 -2.701843e+001  0.000000e+000
      vertex  2.181605e+001 -2.675809e+001  0.000000e+000
    endloop
  endfacet
  facet normal  0.000000e+000  0.000000e+000 -1.000000e+000
    outer loop
      vertex  3.448812e+001 -3.743993e+001  0.000000e+000
      vertex  2.181605e+001 -2.675809e+001  0.000000e+000
      vertex  2.230548e+001 -2.643106e+001  0.000000e+000
    endloop
  endfacet
  facet normal  0.000000e+000  0.000000e+000 -1.000000e+000
    outer loop
      vertex  3.448812e+001 -3.743993e+001  0.000000e+000
      vertex  2.230548e+001 -2.643106e+001  0.000000e+000
      vertex  2.274803e+001 -2.604296e+001  0.000000e+000
    endloop
  endfacet
  facet normal  0.000000e+000  0.000000e+000 -9.999999e-001
    outer loop
      vertex  3.448812e+001 -3.743993e+001  0.000000e+000
      vertex  2.274803e+001 -2.604296e+001  0.000000e+000
      vertex  2.313614e+001 -2.560040e+001  0.000000e+000
    endloop
  endfacet
  facet normal  0.000000e+000  0.000000e+000 -1.000000e+000
    outer loop
      vertex  3.448812e+001 -3.743993e+001  0.000000e+000
      vertex  2.313614e+001 -2.560040e+001  0.000000e+000
      vertex  2.346317e+001 -2.511098e+001  0.000000e+000
    endloop
  endfacet
  facet normal  0.000000e+000  0.000000e+000 -1.000000e+000
    outer loop
      vertex  3.448812e+001 -3.743993e+001  0.000000e+000
      vertex  2.346317e+001 -2.511098e+001  0.000000e+000
      vertex  2.372351e+001 -2.458305e+001  0.000000e+000
    endloop
  endfacet
  facet normal  0.000000e+000  0.000000e+000 -1.000000e+000
    outer loop
      vertex  3.448812e+001 -3.743993e+001  0.000000e+000
      vertex  2.372351e+001 -2.458305e+001  0.000000e+000
      vertex  2.391272e+001 -2.402566e+001  0.000000e+000
    endloop
  endfacet
  facet normal  0.000000e+000  0.000000e+000 -1.000000e+000
    outer loop
      vertex  3.448812e+001 -3.743993e+001  0.000000e+000
      vertex  2.391272e+001 -2.402566e+001  0.000000e+000
      vertex  2.402755e+001 -2.344834e+001  0.000000e+000
    endloop
  endfacet
  facet normal -9.297702e-016 -6.951264e-016 -1.000000e+000
    outer loop
      vertex  3.448812e+001 -3.743993e+001  0.000000e+000
      vertex  2.402755e+001 -2.344834e+001  0.000000e+000
      vertex  2.406605e+001 -2.286098e+001 -4.440892e-016
    endloop
  endfacet
  facet normal  1.211295e-015  8.354585e-016 -9.999999e-001
    outer loop
      vertex  3.448812e+001 -3.743993e+001  0.000000e+000
      vertex  2.406605e+001 -2.286098e+001 -4.440892e-016
      vertex  2.402755e+001 -2.227361e+001  0.000000e+000
    endloop
  endfacet
  facet normal  0.000000e+000  0.000000e+000 -1.000000e+000
    outer loop
      vertex  3.448812e+001 -3.743993e+001  0.000000e+000
      vertex  2.402755e+001 -2.227361e+001  0.000000e+000
      vertex  2.391272e+001 -2.169629e+001  0.000000e+000
    endloop
  endfacet
  facet normal  0.000000e+000  0.000000e+000 -1.000000e+000
    outer loop
      vertex  3.448812e+001 -3.743993e+001  0.000000e+000
      vertex  2.391272e+001 -2.169629e+001  0.000000e+000
      vertex  2.372351e+001 -2.113890e+001  0.000000e+000
    endloop
  endfacet
  facet normal  0.000000e+000  0.000000e+000 -1.000000e+000
    outer loop
      vertex  3.448812e+001 -3.743993e+001  0.000000e+000
      vertex  2.372351e+001 -2.113890e+001  0.000000e+000
      vertex  2.346317e+001 -2.061098e+001  0.000000e+000
    endloop
  endfacet
  facet normal  0.000000e+000  0.000000e+000 -1.000000e+000
    outer loop
      vertex  3.448812e+001  7.560066e+000  0.000000e+000
      vertex  3.448812e+001 -3.743993e+001  0.000000e+000
      vertex  2.346317e+001 -2.061098e+001  0.000000e+000
    endloop
  endfacet
  facet normal  0.000000e+000  0.000000e+000 -1.000000e+000
    outer loop
      vertex  3.448812e+001  7.560066e+000  0.000000e+000
      vertex  2.346317e+001 -2.061098e+001  0.000000e+000
      vertex  2.313614e+001 -2.012155e+001  0.000000e+000
    endloop
  endfacet
  facet normal  0.000000e+000  0.000000e+000 -1.000000e+000
    outer loop
      vertex  3.448812e+001  7.560066e+000  0.000000e+000
      vertex  2.313614e+001 -2.012155e+001  0.000000e+000
      vertex  2.274803e+001 -1.967900e+001  0.000000e+000
    endloop
  endfacet
  facet normal  0.000000e+000  0.000000e+000 -1.000000e+000
    outer loop
      vertex  3.448812e+001  7.560066e+000  0.000000e+000
      vertex  2.274803e+001 -1.967900e+001  0.000000e+000
      vertex  2.230548e+001 -1.929089e+001  0.000000e+000
    endloop
  endfacet
  facet normal  0.000000e+000  0.000000e+000 -1.000000e+000
    outer loop
      vertex  3.448812e+001  7.560066e+000  0.000000e+000
      vertex  2.230548e+001 -1.929089e+001  0.000000e+000
      vertex  2.181605e+001 -1.896386e+001  0.000000e+000
    endloop
  endfacet
  facet normal  0.000000e+000  0.000000e+000 -9.999999e-001
    outer loop
      vertex  3.448812e+001  7.560066e+000  0.000000e+000
      vertex  2.181605e+001 -1.896386e+001  0.000000e+000
      vertex  2.128813e+001 -1.870352e+001  0.000000e+000
    endloop
  endfacet
  facet normal  0.000000e+000  0.000000e+000 -1.000000e+000
    outer loop
      vertex  3.448812e+001  7.560066e+000  0.000000e+000
      vertex  2.128813e+001 -1.870352e+001  0.000000e+000
      vertex  2.073074e+001 -1.851431e+001  0.000000e+000
    endloop
  endfacet
  facet normal  0.000000e+000  0.000000e+000 -1.000000e+000
    outer loop
      vertex  3.448812e+001  7.560066e+000  0.000000e+000
      vertex  2.073074e+001 -1.851431e+001  0.000000e+000
      vertex  2.015342e+001 -1.839947e+001  0.000000e+000
    endloop
  endfacet
  facet normal  0.000000e+000  0.000000e+000 -1.000000e+000
    outer loop
      vertex  3.448812e+001  7.560066e+000  0.000000e+000
      vertex  2.015342e+001 -1.839947e+001  0.000000e+000
      vertex  1.956605e+001 -1.836098e+001  0.000000e+000
    endloop
  endfacet
  facet normal  0.000000e+000  0.000000e+000  1.000000e+000
    outer loop
      vertex -7.711879e+000 -3.463993e+001  6.000000e+000
      vertex  3.168812e+001 -3.463993e+001  6.000000e+000
      vertex  1.956605e+001 -2.736098e+001  6.000000e+000
    endloop
  endfacet
  facet normal  0.000000e+000  0.000000e+000  1.000000e+000
    outer loop
      vertex -7.711879e+000 -3.463993e+001  6.000000e+000
      vertex  1.956605e+001 -2.736098e+001  6.000000e+000
      vertex  1.897868e+001 -2.732248e+001  6.000000e+000
    endloop
  endfacet
  facet normal  0.000000e+000  0.000000e+000  1.000000e+000
    outer loop
      vertex -7.711879e+000 -3.463993e+001  6.000000e+000
      vertex  1.897868e+001 -2.732248e+001  6.000000e+000
      vertex  1.840137e+001 -2.720764e+001  6.000000e+000
    endloop
  endfacet
  facet normal  0.000000e+000  0.000000e+000  1.000000e+000
    outer loop
      vertex -7.711879e+000 -3.463993e+001  6.000000e+000
      vertex  1.840137e+001 -2.720764e+001  6.000000e+000
      vertex  1.784398e+001 -2.701843e+001  6.000000e+000
    endloop
  endfacet
  facet normal  0.000000e+000  0.000000e+000  1.000000e+000
    outer loop
      vertex -7.711879e+000 -3.463993e+001  6.000000e+000
      vertex  1.784398e+001 -2.701843e+001  6.000000e+000
      vertex  1.731605e+001 -2.675809e+001  6.000000e+000
    endloop
  endfacet
  facet normal  0.000000e+000  0.000000e+000  1.000000e+000
    outer loop
      vertex -7.711879e+000 -3.463993e+001  6.000000e+000
      vertex  1.731605e+001 -2.675809e+001  6.000000e+000
      vertex  1.682663e+001 -2.643106e+001  6.000000e+000
    endloop
  endfacet
  facet normal  0.000000e+000  0.000000e+000  1.000000e+000
    outer loop
      vertex -7.711879e+000 -3.463993e+001  6.000000e+000
      vertex  1.682663e+001 -2.643106e+001  6.000000e+000
      vertex  1.638407e+001 -2.604296e+001  6.000000e+000
    endloop
  endfacet
  facet normal  0.000000e+000  0.000000e+000  1.000000e+000
    outer loop
      vertex -7.711879e+000 -3.463993e+001  6.000000e+000
      vertex  1.638407e+001 -2.604296e+001  6.000000e+000
      vertex  1.599596e+001 -2.560040e+001  6.000000e+000
    endloop
  endfacet
  facet normal  0.000000e+000  0.000000e+000  1.000000e+000
    outer loop
      vertex -7.711879e+000 -3.463993e+001  6.000000e+000
      vertex  1.599596e+001 -2.560040e+001  6.000000e+000
      vertex  1.566894e+001 -2.511098e+001  6.000000e+000
    endloop
  endfacet
  facet normal  0.000000e+000  0.000000e+000  1.000000e+000
    outer loop
      vertex -7.711879e+000 -3.463993e+001  6.000000e+000
      vertex  1.566894e+001 -2.511098e+001  6.000000e+000
      vertex  1.540859e+001 -2.458305e+001  6.000000e+000
    endloop
  endfacet
  facet normal  0.000000e+000  0.000000e+000  1.000000e+000
    outer loop
      vertex -7.711879e+000 -3.463993e+001  6.000000e+000
      vertex  1.540859e+001 -2.458305e+001  6.000000e+000
      vertex  1.521939e+001 -2.402566e+001  6.000000e+000
    endloop
  endfacet
  facet normal  0.000000e+000  0.000000e+000  9.999999e-001
    outer loop
      vertex -7.711879e+000 -3.463993e+001  6.000000e+000
      vertex  1.521939e+001 -2.402566e+001  6.000000e+000
      vertex  1.510455e+001 -2.344834e+001  6.000000e+000
    endloop
  endfacet
  facet normal  0.000000e+000  0.000000e+000  1.000000e+000
    outer loop
      vertex -7.711879e+000 -3.463993e+001  6.000000e+000
      vertex  1.510455e+001 -2.344834e+001  6.000000e+000
      vertex  1.506605e+001 -2.286098e+001  6.000000e+000
    endloop
  endfacet
  facet normal  0.000000e+000  0.000000e+000  1.000000e+000
    outer loop
      vertex -7.711879e+000 -3.463993e+001  6.000000e+000
      vertex  1.506605e+001 -2.286098e+001  6.000000e+000
      vertex -3.673819e-016 -1.705416e+001  6.000000e+000
    endloop
  endfacet
  facet normal  0.000000e+000  0.000000e+000  1.000000e+000
    outer loop
      vertex -7.711879e+000 -3.463993e+001  6.000000e+000
      vertex -3.673819e-016 -1.705416e+001  6.000000e+000
      vertex -3.901806e-001 -1.701573e+001  6.000000e+000
    endloop
  endfacet
  facet normal  0.000000e+000  0.000000e+000  1.000000e+000
    outer loop
      vertex -7.711879e+000 -3.463993e+001  6.000000e+000
      vertex -3.901806e-001 -1.701573e+001  6.000000e+000
      vertex -7.653669e-001 -1.690192e+001  6.000000e+000
    endloop
  endfacet
  facet normal  0.000000e+000  0.000000e+000  1.000000e+000
    outer loop
      vertex -7.711879e+000 -3.463993e+001  6.000000e+000
      vertex -7.653669e-001 -1.690192e+001  6.000000e+000
      vertex -1.111140e+000 -1.671710e+001  6.000000e+000
    endloop
  endfacet
  facet normal  0.000000e+000  0.000000e+000  1.000000e+000
    outer loop
      vertex -7.711879e+000 -3.463993e+001  6.000000e+000
      vertex -1.111140e+000 -1.671710e+001  6.000000e+000
      vertex -1.414214e+000 -1.646838e+001  6.000000e+000
    endloop
  endfacet
  facet normal  0.000000e+000  0.000000e+000  1.000000e+000
    outer loop
      vertex -7.711879e+000 -3.463993e+001  6.000000e+000
      vertex -1.414214e+000 -1.646838e+001  6.000000e+000
      vertex -1.662939e+000 -1.616530e+001  6.000000e+000
    endloop
  endfacet
  facet normal  0.000000e+000  0.000000e+000  1.000000e+000
    outer loop
      vertex -7.711879e+000 -3.463993e+001  6.000000e+000
      vertex -1.662939e+000 -1.616530e+001  6.000000e+000
      vertex -1.847759e+000 -1.581953e+001  6.000000e+000
    endloop
  endfacet
  facet normal  0.000000e+000  0.000000e+000  1.000000e+000
    outer loop
      vertex -7.711879e+000 -3.463993e+001  6.000000e+000
      vertex -1.847759e+000 -1.581953e+001  6.000000e+000
      vertex -1.961571e+000 -1.544434e+001  6.000000e+000
    endloop
  endfacet
  facet normal  0.000000e+000  0.000000e+000  1.000000e+000
    outer loop
      vertex -7.711879e+000 -3.463993e+001  6.000000e+000
      vertex -1.961571e+000 -1.544434e+001  6.000000e+000
      vertex -2.000000e+000 -1.505416e+001  6.000000e+000
    endloop
  endfacet
  facet normal  0.000000e+000  -0.000000e+000  1.000000e+000
    outer loop
      vertex -7.711879e+000 -3.463993e+001  6.000000e+000
      vertex -2.000000e+000 -1.505416e+001  6.000000e+000
      vertex -1.961571e+000 -1.466398e+001  6.000000e+000
    endloop
  endfacet
  facet normal  0.000000e+000  0.000000e+000  1.000000e+000
    outer loop
      vertex -7.711879e+000 -3.463993e+001  6.000000e+000
      vertex -1.961571e+000 -1.466398e+001  6.000000e+000
      vertex -7.711879e+000  4.760066e+000  6.000000e+000
    endloop
  endfacet
  facet normal  0.000000e+000  -0.000000e+000  1.000000e+000
    outer loop
      vertex -3.673819e-016 -1.705416e+001  6.000000e+000
      vertex  1.506605e+001 -2.286098e+001  6.000000e+000
      vertex  1.510455e+001 -2.227361e+001  6.000000e+000
    endloop
  endfacet
  facet normal  0.000000e+000  -0.000000e+000  1.000000e+000
    outer loop
      vertex -3.673819e-016 -1.705416e+001  6.000000e+000
      vertex  1.510455e+001 -2.227361e+001  6.000000e+000
      vertex  1.521939e+001 -2.169629e+001  6.000000e+000
    endloop
  endfacet
  facet normal  0.000000e+000  -0.000000e+000  1.000000e+000
    outer loop
      vertex -3.673819e-016 -1.705416e+001  6.000000e+000
      vertex  1.521939e+001 -2.169629e+001  6.000000e+000
      vertex  1.540859e+001 -2.113890e+001  6.000000e+000
    endloop
  endfacet
  facet normal  0.000000e+000  -0.000000e+000  1.000000e+000
    outer loop
      vertex -3.673819e-016 -1.705416e+001  6.000000e+000
      vertex  1.540859e+001 -2.113890e+001  6.000000e+000
      vertex  1.566894e+001 -2.061098e+001  6.000000e+000
    endloop
  endfacet
  facet normal  0.000000e+000  -0.000000e+000  1.000000e+000
    outer loop
      vertex -3.673819e-016 -1.705416e+001  6.000000e+000
      vertex  1.566894e+001 -2.061098e+001  6.000000e+000
      vertex  1.599596e+001 -2.012155e+001  6.000000e+000
    endloop
  endfacet
  facet normal  0.000000e+000  -0.000000e+000  1.000000e+000
    outer loop
      vertex -3.673819e-016 -1.705416e+001  6.000000e+000
      vertex  1.599596e+001 -2.012155e+001  6.000000e+000
      vertex  1.638407e+001 -1.967900e+001  6.000000e+000
    endloop
  endfacet
  facet normal  0.000000e+000  -0.000000e+000  1.000000e+000
    outer loop
      vertex -3.673819e-016 -1.705416e+001  6.000000e+000
      vertex  1.638407e+001 -1.967900e+001  6.000000e+000
      vertex  1.682663e+001 -1.929089e+001  6.000000e+000
    endloop
  endfacet
  facet normal  0.000000e+000  -0.000000e+000  1.000000e+000
    outer loop
      vertex -3.673819e-016 -1.705416e+001  6.000000e+000
      vertex  1.682663e+001 -1.929089e+001  6.000000e+000
      vertex  1.731605e+001 -1.896386e+001  6.000000e+000
    endloop
  endfacet
  facet normal  0.000000e+000  -0.000000e+000  1.000000e+000
    outer loop
      vertex -3.673819e-016 -1.705416e+001  6.000000e+000
      vertex  1.731605e+001 -1.896386e+001  6.000000e+000
      vertex  1.784398e+001 -1.870352e+001  6.000000e+000
    endloop
  endfacet
  facet normal  0.000000e+000  -0.000000e+000  1.000000e+000
    outer loop
      vertex -3.673819e-016 -1.705416e+001  6.000000e+000
      vertex  1.784398e+001 -1.870352e+001  6.000000e+000
      vertex  1.840137e+001 -1.851431e+001  6.000000e+000
    endloop
  endfacet
  facet normal  0.000000e+000  -0.000000e+000  9.999999e-001
    outer loop
      vertex -3.673819e-016 -1.705416e+001  6.000000e+000
      vertex  1.840137e+001 -1.851431e+001  6.000000e+000
      vertex  1.897868e+001 -1.839947e+001  6.000000e+000
    endloop
  endfacet
  facet normal  0.000000e+000  -0.000000e+000  1.000000e+000
    outer loop
      vertex -3.673819e-016 -1.705416e+001  6.000000e+000
      vertex  1.897868e+001 -1.839947e+001  6.000000e+000
      vertex  1.956605e+001 -1.836098e+001  6.000000e+000
    endloop
  endfacet
  facet normal  0.000000e+000  -0.000000e+000  1.000000e+000
    outer loop
      vertex -7.711879e+000  4.760066e+000  6.000000e+000
      vertex -1.961571e+000 -1.466398e+001  6.000000e+000
      vertex -1.847759e+000 -1.428880e+001  6.000000e+000
    endloop
  endfacet
  facet normal  0.000000e+000  -0.000000e+000  9.999999e-001
    outer loop
      vertex -7.711879e+000  4.760066e+000  6.000000e+000
      vertex -1.847759e+000 -1.428880e+001  6.000000e+000
      vertex -1.662939e+000 -1.394302e+001  6.000000e+000
    endloop
  endfacet
  facet normal  0.000000e+000  -0.000000e+000  9.999999e-001
    outer loop
      vertex -7.711879e+000  4.760066e+000  6.000000e+000
      vertex -1.662939e+000 -1.394302e+001  6.000000e+000
      vertex -1.414214e+000 -1.363995e+001  6.000000e+000
    endloop
  endfacet
  facet normal  0.000000e+000  -0.000000e+000  1.000000e+000
    outer loop
      vertex -7.711879e+000  4.760066e+000  6.000000e+000
      vertex -1.414214e+000 -1.363995e+001  6.000000e+000
      vertex -1.111140e+000 -1.339122e+001  6.000000e+000
    endloop
  endfacet
  facet normal  0.000000e+000  -0.000000e+000  1.000000e+000
    outer loop
      vertex -7.711879e+000  4.760066e+000  6.000000e+000
      vertex -1.111140e+000 -1.339122e+001  6.000000e+000
      vertex -7.653669e-001 -1.320640e+001  6.000000e+000
    endloop
  endfacet
  facet normal  0.000000e+000  -0.000000e+000  1.000000e+000
    outer loop
      vertex -7.711879e+000  4.760066e+000  6.000000e+000
      vertex -7.653669e-001 -1.320640e+001  6.000000e+000
      vertex -3.901806e-001 -1.309259e+001  6.000000e+000
    endloop
  endfacet
  facet normal  0.000000e+000  -0.000000e+000  1.000000e+000
    outer loop
      vertex -7.711879e+000  4.760066e+000  6.000000e+000
      vertex -3.901806e-001 -1.309259e+001  6.000000e+000
      vertex  1.224606e-016 -1.305416e+001  6.000000e+000
    endloop
  endfacet
  facet normal  -0.000000e+000  -0.000000e+000  1.000000e+000
    outer loop
      vertex -7.711879e+000  4.760066e+000  6.000000e+000
      vertex  1.224606e-016 -1.305416e+001  6.000000e+000
      vertex  3.901806e-001 -1.309259e+001  6.000000e+000
    endloop
  endfacet
  facet normal  -0.000000e+000  -0.000000e+000  1.000000e+000
    outer loop
      vertex -7.711879e+000  4.760066e+000  6.000000e+000
      vertex  3.901806e-001 -1.309259e+001  6.000000e+000
      vertex  1.956605e+001 -1.836098e+001  6.000000e+000
    endloop
  endfacet
  facet normal  0.000000e+000  -0.000000e+000  1.000000e+000
    outer loop
      vertex -7.711879e+000  4.760066e+000  6.000000e+000
      vertex  1.956605e+001 -1.836098e+001  6.000000e+000
      vertex  3.168812e+001  4.760066e+000  6.000000e+000
    endloop
  endfacet
  facet normal  0.000000e+000  0.000000e+000  1.000000e+000
    outer loop
      vertex  1.956605e+001 -1.836098e+001  6.000000e+000
      vertex  3.901806e-001 -1.309259e+001  6.000000e+000
      vertex  7.653669e-001 -1.320640e+001  6.000000e+000
    endloop
  endfacet
  facet normal  0.000000e+000  0.000000e+000  1.000000e+000
    outer loop
      vertex  1.956605e+001 -1.836098e+001  6.000000e+000
      vertex  7.653669e-001 -1.320640e+001  6.000000e+000
      vertex  1.111140e+000 -1.339122e+001  6.000000e+000
    endloop
  endfacet
  facet normal  0.000000e+000  0.000000e+000  9.999999e-001
    outer loop
      vertex  1.956605e+001 -1.836098e+001  6.000000e+000
      vertex  1.111140e+000 -1.339122e+001  6.000000e+000
      vertex  1.414214e+000 -1.363995e+001  6.000000e+000
    endloop
  endfacet
  facet normal  0.000000e+000  0.000000e+000  1.000000e+000
    outer loop
      vertex  1.956605e+001 -1.836098e+001  6.000000e+000
      vertex  1.414214e+000 -1.363995e+001  6.000000e+000
      vertex  1.662939e+000 -1.394302e+001  6.000000e+000
    endloop
  endfacet
  facet normal  0.000000e+000  0.000000e+000  1.000000e+000
    outer loop
      vertex  1.956605e+001 -1.836098e+001  6.000000e+000
      vertex  1.662939e+000 -1.394302e+001  6.000000e+000
      vertex  1.847759e+000 -1.428880e+001  6.000000e+000
    endloop
  endfacet
  facet normal  0.000000e+000  0.000000e+000  1.000000e+000
    outer loop
      vertex  1.956605e+001 -1.836098e+001  6.000000e+000
      vertex  1.847759e+000 -1.428880e+001  6.000000e+000
      vertex  1.961571e+000 -1.466398e+001  6.000000e+000
    endloop
  endfacet
  facet normal  0.000000e+000  0.000000e+000  1.000000e+000
    outer loop
      vertex  1.956605e+001 -1.836098e+001  6.000000e+000
      vertex  1.961571e+000 -1.466398e+001  6.000000e+000
      vertex  2.000000e+000 -1.505416e+001  6.000000e+000
    endloop
  endfacet
  facet normal  0.000000e+000  0.000000e+000  1.000000e+000
    outer loop
      vertex  1.956605e+001 -1.836098e+001  6.000000e+000
      vertex  2.000000e+000 -1.505416e+001  6.000000e+000
      vertex  1.961571e+000 -1.544434e+001  6.000000e+000
    endloop
  endfacet
  facet normal  0.000000e+000  0.000000e+000  1.000000e+000
    outer loop
      vertex  1.956605e+001 -1.836098e+001  6.000000e+000
      vertex  1.961571e+000 -1.544434e+001  6.000000e+000
      vertex  1.847759e+000 -1.581953e+001  6.000000e+000
    endloop
  endfacet
  facet normal  0.000000e+000  0.000000e+000  1.000000e+000
    outer loop
      vertex  1.956605e+001 -1.836098e+001  6.000000e+000
      vertex  1.847759e+000 -1.581953e+001  6.000000e+000
      vertex  1.662939e+000 -1.616530e+001  6.000000e+000
    endloop
  endfacet
  facet normal  0.000000e+000  0.000000e+000  1.000000e+000
    outer loop
      vertex  1.956605e+001 -1.836098e+001  6.000000e+000
      vertex  1.662939e+000 -1.616530e+001  6.000000e+000
      vertex  1.414214e+000 -1.646838e+001  6.000000e+000
    endloop
  endfacet
  facet normal  0.000000e+000  0.000000e+000  1.000000e+000
    outer loop
      vertex  1.956605e+001 -1.836098e+001  6.000000e+000
      vertex  1.414214e+000 -1.646838e+001  6.000000e+000
      vertex  1.111140e+000 -1.671710e+001  6.000000e+000
    endloop
  endfacet
  facet normal  0.000000e+000  0.000000e+000  9.999999e-001
    outer loop
      vertex  1.956605e+001 -1.836098e+001  6.000000e+000
      vertex  1.111140e+000 -1.671710e+001  6.000000e+000
      vertex  7.653669e-001 -1.690192e+001  6.000000e+000
    endloop
  endfacet
  facet normal  0.000000e+000  0.000000e+000  1.000000e+000
    outer loop
      vertex  1.956605e+001 -1.836098e+001  6.000000e+000
      vertex  7.653669e-001 -1.690192e+001  6.000000e+000
      vertex  3.901806e-001 -1.701573e+001  6.000000e+000
    endloop
  endfacet
  facet normal  0.000000e+000  0.000000e+000  1.000000e+000
    outer loop
      vertex  1.956605e+001 -1.836098e+001  6.000000e+000
      vertex  3.901806e-001 -1.701573e+001  6.000000e+000
      vertex -3.673819e-016 -1.705416e+001  6.000000e+000
    endloop
  endfacet
  facet normal  0.000000e+000  0.000000e+000  1.000000e+000
    outer loop
      vertex  3.168812e+001 -3.463993e+001  6.000000e+000
      vertex  2.346317e+001 -2.061098e+001  6.000000e+000
      vertex  2.372351e+001 -2.113890e+001  6.000000e+000
    endloop
  endfacet
  facet normal  0.000000e+000  0.000000e+000  1.000000e+000
    outer loop
      vertex  3.168812e+001 -3.463993e+001  6.000000e+000
      vertex  2.372351e+001 -2.113890e+001  6.000000e+000
      vertex  2.391272e+001 -2.169629e+001  6.000000e+000
    endloop
  endfacet
  facet normal  0.000000e+000  0.000000e+000  9.999999e-001
    outer loop
      vertex  3.168812e+001 -3.463993e+001  6.000000e+000
      vertex  2.391272e+001 -2.169629e+001  6.000000e+000
      vertex  2.402755e+001 -2.227361e+001  6.000000e+000
    endloop
  endfacet
  facet normal  0.000000e+000  0.000000e+000  1.000000e+000
    outer loop
      vertex  3.168812e+001 -3.463993e+001  6.000000e+000
      vertex  2.402755e+001 -2.227361e+001  6.000000e+000
      vertex  2.406605e+001 -2.286098e+001  6.000000e+000
    endloop
  endfacet
  facet normal  0.000000e+000  0.000000e+000  9.999999e-001
    outer loop
      vertex  3.168812e+001 -3.463993e+001  6.000000e+000
      vertex  2.406605e+001 -2.286098e+001  6.000000e+000
      vertex  2.402755e+001 -2.344834e+001  6.000000e+000
    endloop
  endfacet
  facet normal  0.000000e+000  0.000000e+000  1.000000e+000
    outer loop
      vertex  3.168812e+001 -3.463993e+001  6.000000e+000
      vertex  2.402755e+001 -2.344834e+001  6.000000e+000
      vertex  2.391272e+001 -2.402566e+001  6.000000e+000
    endloop
  endfacet
  facet normal  0.000000e+000  0.000000e+000  1.000000e+000
    outer loop
      vertex  3.168812e+001 -3.463993e+001  6.000000e+000
      vertex  2.391272e+001 -2.402566e+001  6.000000e+000
      vertex  2.372351e+001 -2.458305e+001  6.000000e+000
    endloop
  endfacet
  facet normal  0.000000e+000  0.000000e+000  1.000000e+000
    outer loop
      vertex  3.168812e+001 -3.463993e+001  6.000000e+000
      vertex  2.372351e+001 -2.458305e+001  6.000000e+000
      vertex  2.346317e+001 -2.511098e+001  6.000000e+000
    endloop
  endfacet
  facet normal  0.000000e+000  0.000000e+000  9.999999e-001
    outer loop
      vertex  3.168812e+001 -3.463993e+001  6.000000e+000
      vertex  2.346317e+001 -2.511098e+001  6.000000e+000
      vertex  2.313614e+001 -2.560040e+001  6.000000e+000
    endloop
  endfacet
  facet normal  0.000000e+000  0.000000e+000  1.000000e+000
    outer loop
      vertex  3.168812e+001 -3.463993e+001  6.000000e+000
      vertex  2.313614e+001 -2.560040e+001  6.000000e+000
      vertex  2.274803e+001 -2.604296e+001  6.000000e+000
    endloop
  endfacet
  facet normal  0.000000e+000  0.000000e+000  1.000000e+000
    outer loop
      vertex  3.168812e+001 -3.463993e+001  6.000000e+000
      vertex  2.274803e+001 -2.604296e+001  6.000000e+000
      vertex  2.230548e+001 -2.643106e+001  6.000000e+000
    endloop
  endfacet
  facet normal  0.000000e+000  0.000000e+000  9.999999e-001
    outer loop
      vertex  3.168812e+001 -3.463993e+001  6.000000e+000
      vertex  2.230548e+001 -2.643106e+001  6.000000e+000
      vertex  2.181605e+001 -2.675809e+001  6.000000e+000
    endloop
  endfacet
  facet normal  0.000000e+000  0.000000e+000  1.000000e+000
    outer loop
      vertex  3.168812e+001 -3.463993e+001  6.000000e+000
      vertex  2.181605e+001 -2.675809e+001  6.000000e+000
      vertex  2.128813e+001 -2.701843e+001  6.000000e+000
    endloop
  endfacet
  facet normal  0.000000e+000  0.000000e+000  1.000000e+000
    outer loop
      vertex  3.168812e+001 -3.463993e+001  6.000000e+000
      vertex  2.128813e+001 -2.701843e+001  6.000000e+000
      vertex  2.073074e+001 -2.720764e+001  6.000000e+000
    endloop
  endfacet
  facet normal  0.000000e+000  0.000000e+000  1.000000e+000
    outer loop
      vertex  3.168812e+001 -3.463993e+001  6.000000e+000
      vertex  2.073074e+001 -2.720764e+001  6.000000e+000
      vertex  2.015342e+001 -2.732248e+001  6.000000e+000
    endloop
  endfacet
  facet normal  0.000000e+000  0.000000e+000  1.000000e+000
    outer loop
      vertex  3.168812e+001 -3.463993e+001  6.000000e+000
      vertex  2.015342e+001 -2.732248e+001  6.000000e+000
      vertex  1.956605e+001 -2.736098e+001  6.000000e+000
    endloop
  endfacet
  facet normal  -0.000000e+000  0.000000e+000  1.000000e+000
    outer loop
      vertex  3.168812e+001  4.760066e+000  6.000000e+000
      vertex  1.956605e+001 -1.836098e+001  6.000000e+000
      vertex  2.015342e+001 -1.839947e+001  6.000000e+000
    endloop
  endfacet
  facet normal  -0.000000e+000  0.000000e+000  1.000000e+000
    outer loop
      vertex  3.168812e+001  4.760066e+000  6.000000e+000
      vertex  2.015342e+001 -1.839947e+001  6.000000e+000
      vertex  2.073074e+001 -1.851431e+001  6.000000e+000
    endloop
  endfacet
  facet normal  -0.000000e+000  0.000000e+000  1.000000e+000
    outer loop
      vertex  3.168812e+001  4.760066e+000  6.000000e+000
      vertex  2.073074e+001 -1.851431e+001  6.000000e+000
      vertex  2.128813e+001 -1.870352e+001  6.000000e+000
    endloop
  endfacet
  facet normal  -0.000000e+000  0.000000e+000  1.000000e+000
    outer loop
      vertex  3.168812e+001  4.760066e+000  6.000000e+000
      vertex  2.128813e+001 -1.870352e+001  6.000000e+000
      vertex  2.181605e+001 -1.896386e+001  6.000000e+000
    endloop
  endfacet
  facet normal  -0.000000e+000  0.000000e+000  1.000000e+000
    outer loop
      vertex  3.168812e+001  4.760066e+000  6.000000e+000
      vertex  2.181605e+001 -1.896386e+001  6.000000e+000
      vertex  2.230548e+001 -1.929089e+001  6.000000e+000
    endloop
  endfacet
  facet normal  -0.000000e+000  0.000000e+000  1.000000e+000
    outer loop
      vertex  3.168812e+001  4.760066e+000  6.000000e+000
      vertex  2.230548e+001 -1.929089e+001  6.000000e+000
      vertex  2.274803e+001 -1.967900e+001  6.000000e+000
    endloop
  endfacet
  facet normal  -0.000000e+000  0.000000e+000  9.999999e-001
    outer loop
      vertex  3.168812e+001  4.760066e+000  6.000000e+000
      vertex  2.274803e+001 -1.967900e+001  6.000000e+000
      vertex  2.313614e+001 -2.012155e+001  6.000000e+000
    endloop
  endfacet
  facet normal  -0.000000e+000  0.000000e+000  1.000000e+000
    outer loop
      vertex  3.168812e+001  4.760066e+000  6.000000e+000
      vertex  2.313614e+001 -2.012155e+001  6.000000e+000
      vertex  2.346317e+001 -2.061098e+001  6.000000e+000
    endloop
  endfacet
  facet normal  -0.000000e+000  0.000000e+000  1.000000e+000
    outer loop
      vertex  3.168812e+001  4.760066e+000  6.000000e+000
      vertex  2.346317e+001 -2.061098e+001  6.000000e+000
      vertex  3.168812e+001 -3.463993e+001  6.000000e+000
    endloop
  endfacet
  facet normal  9.801669e-002  9.951848e-001  -0.000000e+000
    outer loop
      vertex -3.673819e-016 -1.705416e+001  6.000000e+000
      vertex -3.901806e-001 -1.701573e+001  0.000000e+000
      vertex -3.901806e-001 -1.701573e+001  6.000000e+000
    endloop
  endfacet
  facet normal  2.902847e-001  9.569404e-001  0.000000e+000
    outer loop
      vertex -3.901806e-001 -1.701573e+001  6.000000e+000
      vertex -3.901806e-001 -1.701573e+001  0.000000e+000
      vertex -7.653669e-001 -1.690192e+001  0.000000e+000
    endloop
  endfacet
  facet normal  2.902847e-001  9.569404e-001  -0.000000e+000
    outer loop
      vertex -3.901806e-001 -1.701573e+001  6.000000e+000
      vertex -7.653669e-001 -1.690192e+001  0.000000e+000
      vertex -7.653669e-001 -1.690192e+001  6.000000e+000
    endloop
  endfacet
  facet normal  4.713974e-001  8.819209e-001  0.000000e+000
    outer loop
      vertex -7.653669e-001 -1.690192e+001  6.000000e+000
      vertex -7.653669e-001 -1.690192e+001  0.000000e+000
      vertex -1.111140e+000 -1.671710e+001  0.000000e+000
    endloop
  endfacet
  facet normal  4.713974e-001  8.819209e-001  -0.000000e+000
    outer loop
      vertex -7.653669e-001 -1.690192e+001  6.000000e+000
      vertex -1.111140e+000 -1.671710e+001  0.000000e+000
      vertex -1.111140e+000 -1.671710e+001  6.000000e+000
    endloop
  endfacet
  facet normal  6.343937e-001  7.730101e-001  0.000000e+000
    outer loop
      vertex -1.111140e+000 -1.671710e+001  6.000000e+000
      vertex -1.111140e+000 -1.671710e+001  0.000000e+000
      vertex -1.414214e+000 -1.646838e+001  0.000000e+000
    endloop
  endfacet
  facet normal  6.343937e-001  7.730101e-001  -0.000000e+000
    outer loop
      vertex -1.111140e+000 -1.671710e+001  6.000000e+000
      vertex -1.414214e+000 -1.646838e+001  0.000000e+000
      vertex -1.414214e+000 -1.646838e+001  6.000000e+000
    endloop
  endfacet
  facet normal  7.730094e-001  6.343947e-001  0.000000e+000
    outer loop
      vertex -1.414214e+000 -1.646838e+001  6.000000e+000
      vertex -1.414214e+000 -1.646838e+001  0.000000e+000
      vertex -1.662939e+000 -1.616530e+001  0.000000e+000
    endloop
  endfacet
  facet normal  7.730094e-001  6.343947e-001  -0.000000e+000
    outer loop
      vertex -1.414214e+000 -1.646838e+001  6.000000e+000
      vertex -1.662939e+000 -1.616530e+001  0.000000e+000
      vertex -1.662939e+000 -1.616530e+001  6.000000e+000
    endloop
  endfacet
  facet normal  8.819219e-001  4.713956e-001  0.000000e+000
    outer loop
      vertex -1.662939e+000 -1.616530e+001  6.000000e+000
      vertex -1.662939e+000 -1.616530e+001  0.000000e+000
      vertex -1.847759e+000 -1.581953e+001  0.000000e+000
    endloop
  endfacet
  facet normal  8.819219e-001  4.713956e-001  -0.000000e+000
    outer loop
      vertex -1.662939e+000 -1.616530e+001  6.000000e+000
      vertex -1.847759e+000 -1.581953e+001  0.000000e+000
      vertex -1.847759e+000 -1.581953e+001  6.000000e+000
    endloop
  endfacet
  facet normal  9.569404e-001  2.902849e-001  0.000000e+000
    outer loop
      vertex -1.847759e+000 -1.581953e+001  6.000000e+000
      vertex -1.847759e+000 -1.581953e+001  0.000000e+000
      vertex -1.961571e+000 -1.544434e+001  0.000000e+000
    endloop
  endfacet
  facet normal  9.569404e-001  2.902849e-001  -0.000000e+000
    outer loop
      vertex -1.847759e+000 -1.581953e+001  6.000000e+000
      vertex -1.961571e+000 -1.544434e+001  0.000000e+000
      vertex -1.961571e+000 -1.544434e+001  6.000000e+000
    endloop
  endfacet
  facet normal  9.951847e-001  9.801731e-002  0.000000e+000
    outer loop
      vertex -1.961571e+000 -1.544434e+001  6.000000e+000
      vertex -1.961571e+000 -1.544434e+001  0.000000e+000
      vertex -2.000000e+000 -1.505416e+001  0.000000e+000
    endloop
  endfacet
  facet normal  9.951847e-001  9.801731e-002  -0.000000e+000
    outer loop
      vertex -1.961571e+000 -1.544434e+001  6.000000e+000
      vertex -2.000000e+000 -1.505416e+001  0.000000e+000
      vertex -2.000000e+000 -1.505416e+001  6.000000e+000
    endloop
  endfacet
  facet normal  9.801669e-002  9.951848e-001  8.002124e-018
    outer loop
      vertex -3.901806e-001 -1.701573e+001  0.000000e+000
      vertex -3.673819e-016 -1.705416e+001  6.000000e+000
      vertex  1.224606e-016 -1.705416e+001  0.000000e+000
    endloop
  endfacet
  facet normal -9.801669e-002  9.951848e-001 -8.002124e-018
    outer loop
      vertex  1.224606e-016 -1.705416e+001  0.000000e+000
      vertex -3.673819e-016 -1.705416e+001  6.000000e+000
      vertex  3.901806e-001 -1.701573e+001  6.000000e+000
    endloop
  endfacet
  facet normal -9.801669e-002  9.951848e-001  0.000000e+000
    outer loop
      vertex  1.224606e-016 -1.705416e+001  0.000000e+000
      vertex  3.901806e-001 -1.701573e+001  6.000000e+000
      vertex  3.901806e-001 -1.701573e+001  0.000000e+000
    endloop
  endfacet
  facet normal -2.902847e-001  9.569404e-001  0.000000e+000
    outer loop
      vertex  3.901806e-001 -1.701573e+001  0.000000e+000
      vertex  3.901806e-001 -1.701573e+001  6.000000e+000
      vertex  7.653669e-001 -1.690192e+001  6.000000e+000
    endloop
  endfacet
  facet normal -2.902847e-001  9.569404e-001  0.000000e+000
    outer loop
      vertex  3.901806e-001 -1.701573e+001  0.000000e+000
      vertex  7.653669e-001 -1.690192e+001  6.000000e+000
      vertex  7.653669e-001 -1.690192e+001  0.000000e+000
    endloop
  endfacet
  facet normal -4.713974e-001  8.819209e-001  0.000000e+000
    outer loop
      vertex  7.653669e-001 -1.690192e+001  0.000000e+000
      vertex  7.653669e-001 -1.690192e+001  6.000000e+000
      vertex  1.111140e+000 -1.671710e+001  6.000000e+000
    endloop
  endfacet
  facet normal -4.713974e-001  8.819209e-001  0.000000e+000
    outer loop
      vertex  7.653669e-001 -1.690192e+001  0.000000e+000
      vertex  1.111140e+000 -1.671710e+001  6.000000e+000
      vertex  1.111140e+000 -1.671710e+001  0.000000e+000
    endloop
  endfacet
  facet normal -6.343937e-001  7.730101e-001  0.000000e+000
    outer loop
      vertex  1.111140e+000 -1.671710e+001  0.000000e+000
      vertex  1.111140e+000 -1.671710e+001  6.000000e+000
      vertex  1.414214e+000 -1.646838e+001  6.000000e+000
    endloop
  endfacet
  facet normal -6.343937e-001  7.730101e-001  0.000000e+000
    outer loop
      vertex  1.111140e+000 -1.671710e+001  0.000000e+000
      vertex  1.414214e+000 -1.646838e+001  6.000000e+000
      vertex  1.414214e+000 -1.646838e+001  0.000000e+000
    endloop
  endfacet
  facet normal -7.730094e-001  6.343947e-001  0.000000e+000
    outer loop
      vertex  1.414214e+000 -1.646838e+001  0.000000e+000
      vertex  1.414214e+000 -1.646838e+001  6.000000e+000
      vertex  1.662939e+000 -1.616530e+001  6.000000e+000
    endloop
  endfacet
  facet normal -7.730094e-001  6.343947e-001  0.000000e+000
    outer loop
      vertex  1.414214e+000 -1.646838e+001  0.000000e+000
      vertex  1.662939e+000 -1.616530e+001  6.000000e+000
      vertex  1.662939e+000 -1.616530e+001  0.000000e+000
    endloop
  endfacet
  facet normal -8.819219e-001  4.713956e-001  0.000000e+000
    outer loop
      vertex  1.662939e+000 -1.616530e+001  0.000000e+000
      vertex  1.662939e+000 -1.616530e+001  6.000000e+000
      vertex  1.847759e+000 -1.581953e+001  6.000000e+000
    endloop
  endfacet
  facet normal -8.819219e-001  4.713956e-001  0.000000e+000
    outer loop
      vertex  1.662939e+000 -1.616530e+001  0.000000e+000
      vertex  1.847759e+000 -1.581953e+001  6.000000e+000
      vertex  1.847759e+000 -1.581953e+001  0.000000e+000
    endloop
  endfacet
  facet normal -9.569404e-001  2.902849e-001  0.000000e+000
    outer loop
      vertex  1.847759e+000 -1.581953e+001  0.000000e+000
      vertex  1.847759e+000 -1.581953e+001  6.000000e+000
      vertex  1.961571e+000 -1.544434e+001  6.000000e+000
    endloop
  endfacet
  facet normal -9.569404e-001  2.902849e-001  0.000000e+000
    outer loop
      vertex  1.847759e+000 -1.581953e+001  0.000000e+000
      vertex  1.961571e+000 -1.544434e+001  6.000000e+000
      vertex  1.961571e+000 -1.544434e+001  0.000000e+000
    endloop
  endfacet
  facet normal -9.951847e-001  9.801731e-002  0.000000e+000
    outer loop
      vertex  1.961571e+000 -1.544434e+001  0.000000e+000
      vertex  1.961571e+000 -1.544434e+001  6.000000e+000
      vertex  2.000000e+000 -1.505416e+001  6.000000e+000
    endloop
  endfacet
  facet normal -9.951847e-001  9.801731e-002  0.000000e+000
    outer loop
      vertex  1.961571e+000 -1.544434e+001  0.000000e+000
      vertex  2.000000e+000 -1.505416e+001  6.000000e+000
      vertex  2.000000e+000 -1.505416e+001 -4.440892e-016
    endloop
  endfacet
  facet normal -9.801669e-002 -9.951848e-001  0.000000e+000
    outer loop
      vertex  1.224606e-016 -1.305416e+001  6.000000e+000
      vertex  3.901806e-001 -1.309259e+001  0.000000e+000
      vertex  3.901806e-001 -1.309259e+001  6.000000e+000
    endloop
  endfacet
  facet normal -2.902847e-001 -9.569404e-001  -0.000000e+000
    outer loop
      vertex  3.901806e-001 -1.309259e+001  6.000000e+000
      vertex  3.901806e-001 -1.309259e+001  0.000000e+000
      vertex  7.653669e-001 -1.320640e+001  0.000000e+000
    endloop
  endfacet
  facet normal -2.902847e-001 -9.569404e-001  0.000000e+000
    outer loop
      vertex  3.901806e-001 -1.309259e+001  6.000000e+000
      vertex  7.653669e-001 -1.320640e+001  0.000000e+000
      vertex  7.653669e-001 -1.320640e+001  6.000000e+000
    endloop
  endfacet
  facet normal -4.713974e-001 -8.819209e-001  -0.000000e+000
    outer loop
      vertex  7.653669e-001 -1.320640e+001  6.000000e+000
      vertex  7.653669e-001 -1.320640e+001  0.000000e+000
      vertex  1.111140e+000 -1.339122e+001  0.000000e+000
    endloop
  endfacet
  facet normal -4.713974e-001 -8.819209e-001  0.000000e+000
    outer loop
      vertex  7.653669e-001 -1.320640e+001  6.000000e+000
      vertex  1.111140e+000 -1.339122e+001  0.000000e+000
      vertex  1.111140e+000 -1.339122e+001  6.000000e+000
    endloop
  endfacet
  facet normal -6.343937e-001 -7.730101e-001  -0.000000e+000
    outer loop
      vertex  1.111140e+000 -1.339122e+001  6.000000e+000
      vertex  1.111140e+000 -1.339122e+001  0.000000e+000
      vertex  1.414214e+000 -1.363995e+001  0.000000e+000
    endloop
  endfacet
  facet normal -6.343937e-001 -7.730101e-001  0.000000e+000
    outer loop
      vertex  1.111140e+000 -1.339122e+001  6.000000e+000
      vertex  1.414214e+000 -1.363995e+001  0.000000e+000
      vertex  1.414214e+000 -1.363995e+001  6.000000e+000
    endloop
  endfacet
  facet normal -7.730103e-001 -6.343935e-001  -0.000000e+000
    outer loop
      vertex  1.414214e+000 -1.363995e+001  6.000000e+000
      vertex  1.414214e+000 -1.363995e+001  0.000000e+000
      vertex  1.662939e+000 -1.394302e+001  0.000000e+000
    endloop
  endfacet
  facet normal -7.730103e-001 -6.343935e-001  0.000000e+000
    outer loop
      vertex  1.414214e+000 -1.363995e+001  6.000000e+000
      vertex  1.662939e+000 -1.394302e+001  0.000000e+000
      vertex  1.662939e+000 -1.394302e+001  6.000000e+000
    endloop
  endfacet
  facet normal -8.819214e-001 -4.713966e-001  -0.000000e+000
    outer loop
      vertex  1.662939e+000 -1.394302e+001  6.000000e+000
      vertex  1.662939e+000 -1.394302e+001  0.000000e+000
      vertex  1.847759e+000 -1.428880e+001  0.000000e+000
    endloop
  endfacet
  facet normal -8.819214e-001 -4.713966e-001  0.000000e+000
    outer loop
      vertex  1.662939e+000 -1.394302e+001  6.000000e+000
      vertex  1.847759e+000 -1.428880e+001  0.000000e+000
      vertex  1.847759e+000 -1.428880e+001  6.000000e+000
    endloop
  endfacet
  facet normal -9.569404e-001 -2.902849e-001  -0.000000e+000
    outer loop
      vertex  1.847759e+000 -1.428880e+001  6.000000e+000
      vertex  1.847759e+000 -1.428880e+001  0.000000e+000
      vertex  1.961571e+000 -1.466398e+001  0.000000e+000
    endloop
  endfacet
  facet normal -9.569404e-001 -2.902849e-001  0.000000e+000
    outer loop
      vertex  1.847759e+000 -1.428880e+001  6.000000e+000
      vertex  1.961571e+000 -1.466398e+001  0.000000e+000
      vertex  1.961571e+000 -1.466398e+001  6.000000e+000
    endloop
  endfacet
  facet normal -9.951847e-001 -9.801731e-002  -0.000000e+000
    outer loop
      vertex  1.961571e+000 -1.466398e+001  6.000000e+000
      vertex  1.961571e+000 -1.466398e+001  0.000000e+000
      vertex  2.000000e+000 -1.505416e+001 -4.440892e-016
    endloop
  endfacet
  facet normal -9.951847e-001 -9.801731e-002  0.000000e+000
    outer loop
      vertex  1.961571e+000 -1.466398e+001  6.000000e+000
      vertex  2.000000e+000 -1.505416e+001 -4.440892e-016
      vertex  2.000000e+000 -1.505416e+001  6.000000e+000
    endloop
  endfacet
  facet normal -9.801669e-002 -9.951848e-001  8.002124e-018
    outer loop
      vertex  3.901806e-001 -1.309259e+001  0.000000e+000
      vertex  1.224606e-016 -1.305416e+001  6.000000e+000
      vertex -3.673819e-016 -1.305416e+001  0.000000e+000
    endloop
  endfacet
  facet normal  9.801669e-002 -9.951848e-001 -8.002124e-018
    outer loop
      vertex -3.673819e-016 -1.305416e+001  0.000000e+000
      vertex  1.224606e-016 -1.305416e+001  6.000000e+000
      vertex -3.901806e-001 -1.309259e+001  6.000000e+000
    endloop
  endfacet
  facet normal  9.801669e-002 -9.951848e-001  0.000000e+000
    outer loop
      vertex -3.673819e-016 -1.305416e+001  0.000000e+000
      vertex -3.901806e-001 -1.309259e+001  6.000000e+000
      vertex -3.901806e-001 -1.309259e+001  0.000000e+000
    endloop
  endfacet
  facet normal  2.902847e-001 -9.569404e-001  0.000000e+000
    outer loop
      vertex -3.901806e-001 -1.309259e+001  0.000000e+000
      vertex -3.901806e-001 -1.309259e+001  6.000000e+000
      vertex -7.653669e-001 -1.320640e+001  6.000000e+000
    endloop
  endfacet
  facet normal  2.902847e-001 -9.569404e-001  0.000000e+000
    outer loop
      vertex -3.901806e-001 -1.309259e+001  0.000000e+000
      vertex -7.653669e-001 -1.320640e+001  6.000000e+000
      vertex -7.653669e-001 -1.320640e+001  0.000000e+000
    endloop
  endfacet
  facet normal  4.713974e-001 -8.819209e-001  0.000000e+000
    outer loop
      vertex -7.653669e-001 -1.320640e+001  0.000000e+000
      vertex -7.653669e-001 -1.320640e+001  6.000000e+000
      vertex -1.111140e+000 -1.339122e+001  6.000000e+000
    endloop
  endfacet
  facet normal  4.713974e-001 -8.819209e-001  0.000000e+000
    outer loop
      vertex -7.653669e-001 -1.320640e+001  0.000000e+000
      vertex -1.111140e+000 -1.339122e+001  6.000000e+000
      vertex -1.111140e+000 -1.339122e+001  0.000000e+000
    endloop
  endfacet
  facet normal  6.343937e-001 -7.730101e-001  0.000000e+000
    outer loop
      vertex -1.111140e+000 -1.339122e+001  0.000000e+000
      vertex -1.111140e+000 -1.339122e+001  6.000000e+000
      vertex -1.414214e+000 -1.363995e+001  6.000000e+000
    endloop
  endfacet
  facet normal  6.343937e-001 -7.730101e-001  0.000000e+000
    outer loop
      vertex -1.111140e+000 -1.339122e+001  0.000000e+000
      vertex -1.414214e+000 -1.363995e+001  6.000000e+000
      vertex -1.414214e+000 -1.363995e+001  0.000000e+000
    endloop
  endfacet
  facet normal  7.730103e-001 -6.343935e-001  0.000000e+000
    outer loop
      vertex -1.414214e+000 -1.363995e+001  0.000000e+000
      vertex -1.414214e+000 -1.363995e+001  6.000000e+000
      vertex -1.662939e+000 -1.394302e+001  6.000000e+000
    endloop
  endfacet
  facet normal  7.730103e-001 -6.343935e-001  0.000000e+000
    outer loop
      vertex -1.414214e+000 -1.363995e+001  0.000000e+000
      vertex -1.662939e+000 -1.394302e+001  6.000000e+000
      vertex -1.662939e+000 -1.394302e+001  0.000000e+000
    endloop
  endfacet
  facet normal  8.819214e-001 -4.713966e-001  0.000000e+000
    outer loop
      vertex -1.662939e+000 -1.394302e+001  0.000000e+000
      vertex -1.662939e+000 -1.394302e+001  6.000000e+000
      vertex -1.847759e+000 -1.428880e+001  6.000000e+000
    endloop
  endfacet
  facet normal  8.819214e-001 -4.713966e-001  0.000000e+000
    outer loop
      vertex -1.662939e+000 -1.394302e+001  0.000000e+000
      vertex -1.847759e+000 -1.428880e+001  6.000000e+000
      vertex -1.847759e+000 -1.428880e+001  0.000000e+000
    endloop
  endfacet
  facet normal  9.569404e-001 -2.902849e-001  0.000000e+000
    outer loop
      vertex -1.847759e+000 -1.428880e+001  0.000000e+000
      vertex -1.847759e+000 -1.428880e+001  6.000000e+000
      vertex -1.961571e+000 -1.466398e+001  6.000000e+000
    endloop
  endfacet
  facet normal  9.569404e-001 -2.902849e-001  0.000000e+000
    outer loop
      vertex -1.847759e+000 -1.428880e+001  0.000000e+000
      vertex -1.961571e+000 -1.466398e+001  6.000000e+000
      vertex -1.961571e+000 -1.466398e+001  0.000000e+000
    endloop
  endfacet
  facet normal  9.951847e-001 -9.801731e-002  0.000000e+000
    outer loop
      vertex -1.961571e+000 -1.466398e+001  0.000000e+000
      vertex -1.961571e+000 -1.466398e+001  6.000000e+000
      vertex -2.000000e+000 -1.505416e+001  6.000000e+000
    endloop
  endfacet
  facet normal  9.951847e-001 -9.801731e-002  0.000000e+000
    outer loop
      vertex -1.961571e+000 -1.466398e+001  0.000000e+000
      vertex -2.000000e+000 -1.505416e+001  6.000000e+000
      vertex -2.000000e+000 -1.505416e+001  0.000000e+000
    endloop
  endfacet
  facet normal  6.540278e-002  9.978590e-001  -0.000000e+000
    outer loop
      vertex  1.956605e+001 -2.736098e+001  6.000000e+000
      vertex  1.897868e+001 -2.732248e+001  0.000000e+000
      vertex  1.897868e+001 -2.732248e+001  6.000000e+000
    endloop
  endfacet
  facet normal  1.950903e-001  9.807853e-001  0.000000e+000
    outer loop
      vertex  1.897868e+001 -2.732248e+001  6.000000e+000
      vertex  1.897868e+001 -2.732248e+001  0.000000e+000
      vertex  1.840137e+001 -2.720764e+001  0.000000e+000
    endloop
  endfacet
  facet normal  1.950903e-001  9.807853e-001  -0.000000e+000
    outer loop
      vertex  1.897868e+001 -2.732248e+001  6.000000e+000
      vertex  1.840137e+001 -2.720764e+001  0.000000e+000
      vertex  1.840137e+001 -2.720764e+001  6.000000e+000
    endloop
  endfacet
  facet normal  3.214412e-001  9.469295e-001  0.000000e+000
    outer loop
      vertex  1.840137e+001 -2.720764e+001  6.000000e+000
      vertex  1.840137e+001 -2.720764e+001  0.000000e+000
      vertex  1.784398e+001 -2.701843e+001  0.000000e+000
    endloop
  endfacet
  facet normal  3.214412e-001  9.469295e-001  -0.000000e+000
    outer loop
      vertex  1.840137e+001 -2.720764e+001  6.000000e+000
      vertex  1.784398e+001 -2.701843e+001  0.000000e+000
      vertex  1.784398e+001 -2.701843e+001  6.000000e+000
    endloop
  endfacet
  facet normal  4.422880e-001  8.968731e-001  0.000000e+000
    outer loop
      vertex  1.784398e+001 -2.701843e+001  6.000000e+000
      vertex  1.784398e+001 -2.701843e+001  0.000000e+000
      vertex  1.731605e+001 -2.675809e+001  0.000000e+000
    endloop
  endfacet
  facet normal  4.422880e-001  8.968731e-001  -0.000000e+000
    outer loop
      vertex  1.784398e+001 -2.701843e+001  6.000000e+000
      vertex  1.731605e+001 -2.675809e+001  0.000000e+000
      vertex  1.731605e+001 -2.675809e+001  6.000000e+000
    endloop
  endfacet
  facet normal  5.555711e-001  8.314691e-001  0.000000e+000
    outer loop
      vertex  1.731605e+001 -2.675809e+001  6.000000e+000
      vertex  1.731605e+001 -2.675809e+001  0.000000e+000
      vertex  1.682663e+001 -2.643106e+001  0.000000e+000
    endloop
  endfacet
  facet normal  5.555711e-001  8.314691e-001  -0.000000e+000
    outer loop
      vertex  1.731605e+001 -2.675809e+001  6.000000e+000
      vertex  1.682663e+001 -2.643106e+001  0.000000e+000
      vertex  1.682663e+001 -2.643106e+001  6.000000e+000
    endloop
  endfacet
  facet normal  6.593451e-001  7.518404e-001  0.000000e+000
    outer loop
      vertex  1.682663e+001 -2.643106e+001  6.000000e+000
      vertex  1.682663e+001 -2.643106e+001  0.000000e+000
      vertex  1.638407e+001 -2.604296e+001  0.000000e+000
    endloop
  endfacet
  facet normal  6.593451e-001  7.518404e-001  -0.000000e+000
    outer loop
      vertex  1.682663e+001 -2.643106e+001  6.000000e+000
      vertex  1.638407e+001 -2.604296e+001  0.000000e+000
      vertex  1.638407e+001 -2.604296e+001  6.000000e+000
    endloop
  endfacet
  facet normal  7.518395e-001  6.593461e-001  0.000000e+000
    outer loop
      vertex  1.638407e+001 -2.604296e+001  6.000000e+000
      vertex  1.638407e+001 -2.604296e+001  0.000000e+000
      vertex  1.599596e+001 -2.560040e+001  0.000000e+000
    endloop
  endfacet
  facet normal  7.518395e-001  6.593461e-001  -0.000000e+000
    outer loop
      vertex  1.638407e+001 -2.604296e+001  6.000000e+000
      vertex  1.599596e+001 -2.560040e+001  0.000000e+000
      vertex  1.599596e+001 -2.560040e+001  6.000000e+000
    endloop
  endfacet
  facet normal  8.314691e-001  5.555711e-001  0.000000e+000
    outer loop
      vertex  1.599596e+001 -2.560040e+001  6.000000e+000
      vertex  1.599596e+001 -2.560040e+001  0.000000e+000
      vertex  1.566894e+001 -2.511098e+001  0.000000e+000
    endloop
  endfacet
  facet normal  8.314691e-001  5.555711e-001  -0.000000e+000
    outer loop
      vertex  1.599596e+001 -2.560040e+001  6.000000e+000
      vertex  1.566894e+001 -2.511098e+001  0.000000e+000
      vertex  1.566894e+001 -2.511098e+001  6.000000e+000
    endloop
  endfacet
  facet normal  8.968731e-001  4.422880e-001  0.000000e+000
    outer loop
      vertex  1.566894e+001 -2.511098e+001  6.000000e+000
      vertex  1.566894e+001 -2.511098e+001  0.000000e+000
      vertex  1.540859e+001 -2.458305e+001  0.000000e+000
    endloop
  endfacet
  facet normal  8.968731e-001  4.422880e-001  -0.000000e+000
    outer loop
      vertex  1.566894e+001 -2.511098e+001  6.000000e+000
      vertex  1.540859e+001 -2.458305e+001  0.000000e+000
      vertex  1.540859e+001 -2.458305e+001  6.000000e+000
    endloop
  endfacet
  facet normal  9.469300e-001  3.214397e-001  0.000000e+000
    outer loop
      vertex  1.540859e+001 -2.458305e+001  6.000000e+000
      vertex  1.540859e+001 -2.458305e+001  0.000000e+000
      vertex  1.521939e+001 -2.402566e+001  0.000000e+000
    endloop
  endfacet
  facet normal  9.469300e-001  3.214397e-001  -0.000000e+000
    outer loop
      vertex  1.540859e+001 -2.458305e+001  6.000000e+000
      vertex  1.521939e+001 -2.402566e+001  0.000000e+000
      vertex  1.521939e+001 -2.402566e+001  6.000000e+000
    endloop
  endfacet
  facet normal  9.807853e-001  1.950903e-001  0.000000e+000
    outer loop
      vertex  1.521939e+001 -2.402566e+001  6.000000e+000
      vertex  1.521939e+001 -2.402566e+001  0.000000e+000
      vertex  1.510455e+001 -2.344834e+001  0.000000e+000
    endloop
  endfacet
  facet normal  9.807853e-001  1.950903e-001  -0.000000e+000
    outer loop
      vertex  1.521939e+001 -2.402566e+001  6.000000e+000
      vertex  1.510455e+001 -2.344834e+001  0.000000e+000
      vertex  1.510455e+001 -2.344834e+001  6.000000e+000
    endloop
  endfacet
  facet normal  9.978590e-001  6.540278e-002  0.000000e+000
    outer loop
      vertex  1.510455e+001 -2.344834e+001  6.000000e+000
      vertex  1.510455e+001 -2.344834e+001  0.000000e+000
      vertex  1.506605e+001 -2.286098e+001  0.000000e+000
    endloop
  endfacet
  facet normal  9.978590e-001  6.540278e-002  -0.000000e+000
    outer loop
      vertex  1.510455e+001 -2.344834e+001  6.000000e+000
      vertex  1.506605e+001 -2.286098e+001  0.000000e+000
      vertex  1.506605e+001 -2.286098e+001  6.000000e+000
    endloop
  endfacet
  facet normal  6.540278e-002  9.978590e-001  0.000000e+000
    outer loop
      vertex  1.897868e+001 -2.732248e+001  0.000000e+000
      vertex  1.956605e+001 -2.736098e+001  6.000000e+000
      vertex  1.956605e+001 -2.736098e+001  0.000000e+000
    endloop
  endfacet
  facet normal -6.540278e-002  9.978590e-001  0.000000e+000
    outer loop
      vertex  1.956605e+001 -2.736098e+001  0.000000e+000
      vertex  1.956605e+001 -2.736098e+001  6.000000e+000
      vertex  2.015342e+001 -2.732248e+001  6.000000e+000
    endloop
  endfacet
  facet normal -6.540278e-002  9.978590e-001  0.000000e+000
    outer loop
      vertex  1.956605e+001 -2.736098e+001  0.000000e+000
      vertex  2.015342e+001 -2.732248e+001  6.000000e+000
      vertex  2.015342e+001 -2.732248e+001  0.000000e+000
    endloop
  endfacet
  facet normal -1.950903e-001  9.807853e-001  0.000000e+000
    outer loop
      vertex  2.015342e+001 -2.732248e+001  0.000000e+000
      vertex  2.015342e+001 -2.732248e+001  6.000000e+000
      vertex  2.073074e+001 -2.720764e+001  6.000000e+000
    endloop
  endfacet
  facet normal -1.950903e-001  9.807853e-001  0.000000e+000
    outer loop
      vertex  2.015342e+001 -2.732248e+001  0.000000e+000
      vertex  2.073074e+001 -2.720764e+001  6.000000e+000
      vertex  2.073074e+001 -2.720764e+001  0.000000e+000
    endloop
  endfacet
  facet normal -3.214412e-001  9.469295e-001  0.000000e+000
    outer loop
      vertex  2.073074e+001 -2.720764e+001  0.000000e+000
      vertex  2.073074e+001 -2.720764e+001  6.000000e+000
      vertex  2.128813e+001 -2.701843e+001  6.000000e+000
    endloop
  endfacet
  facet normal -3.214412e-001  9.469295e-001  0.000000e+000
    outer loop
      vertex  2.073074e+001 -2.720764e+001  0.000000e+000
      vertex  2.128813e+001 -2.701843e+001  6.000000e+000
      vertex  2.128813e+001 -2.701843e+001  0.000000e+000
    endloop
  endfacet
  facet normal -4.422880e-001  8.968731e-001  0.000000e+000
    outer loop
      vertex  2.128813e+001 -2.701843e+001  0.000000e+000
      vertex  2.128813e+001 -2.701843e+001  6.000000e+000
      vertex  2.181605e+001 -2.675809e+001  6.000000e+000
    endloop
  endfacet
  facet normal -4.422880e-001  8.968731e-001  0.000000e+000
    outer loop
      vertex  2.128813e+001 -2.701843e+001  0.000000e+000
      vertex  2.181605e+001 -2.675809e+001  6.000000e+000
      vertex  2.181605e+001 -2.675809e+001  0.000000e+000
    endloop
  endfacet
  facet normal -5.555711e-001  8.314691e-001  0.000000e+000
    outer loop
      vertex  2.181605e+001 -2.675809e+001  0.000000e+000
      vertex  2.181605e+001 -2.675809e+001  6.000000e+000
      vertex  2.230548e+001 -2.643106e+001  6.000000e+000
    endloop
  endfacet
  facet normal -5.555711e-001  8.314691e-001  0.000000e+000
    outer loop
      vertex  2.181605e+001 -2.675809e+001  0.000000e+000
      vertex  2.230548e+001 -2.643106e+001  6.000000e+000
      vertex  2.230548e+001 -2.643106e+001  0.000000e+000
    endloop
  endfacet
  facet normal -6.593451e-001  7.518404e-001  0.000000e+000
    outer loop
      vertex  2.230548e+001 -2.643106e+001  0.000000e+000
      vertex  2.230548e+001 -2.643106e+001  6.000000e+000
      vertex  2.274803e+001 -2.604296e+001  6.000000e+000
    endloop
  endfacet
  facet normal -6.593451e-001  7.518404e-001  0.000000e+000
    outer loop
      vertex  2.230548e+001 -2.643106e+001  0.000000e+000
      vertex  2.274803e+001 -2.604296e+001  6.000000e+000
      vertex  2.274803e+001 -2.604296e+001  0.000000e+000
    endloop
  endfacet
  facet normal -7.518404e-001  6.593451e-001  0.000000e+000
    outer loop
      vertex  2.274803e+001 -2.604296e+001  0.000000e+000
      vertex  2.274803e+001 -2.604296e+001  6.000000e+000
      vertex  2.313614e+001 -2.560040e+001  6.000000e+000
    endloop
  endfacet
  facet normal -7.518404e-001  6.593451e-001  0.000000e+000
    outer loop
      vertex  2.274803e+001 -2.604296e+001  0.000000e+000
      vertex  2.313614e+001 -2.560040e+001  6.000000e+000
      vertex  2.313614e+001 -2.560040e+001  0.000000e+000
    endloop
  endfacet
  facet normal -8.314691e-001  5.555711e-001  0.000000e+000
    outer loop
      vertex  2.313614e+001 -2.560040e+001  0.000000e+000
      vertex  2.313614e+001 -2.560040e+001  6.000000e+000
      vertex  2.346317e+001 -2.511098e+001  6.000000e+000
    endloop
  endfacet
  facet normal -8.314691e-001  5.555711e-001  0.000000e+000
    outer loop
      vertex  2.313614e+001 -2.560040e+001  0.000000e+000
      vertex  2.346317e+001 -2.511098e+001  6.000000e+000
      vertex  2.346317e+001 -2.511098e+001  0.000000e+000
    endloop
  endfacet
  facet normal -8.968731e-001  4.422880e-001  0.000000e+000
    outer loop
      vertex  2.346317e+001 -2.511098e+001  0.000000e+000
      vertex  2.346317e+001 -2.511098e+001  6.000000e+000
      vertex  2.372351e+001 -2.458305e+001  6.000000e+000
    endloop
  endfacet
  facet normal -8.968731e-001  4.422880e-001  0.000000e+000
    outer loop
      vertex  2.346317e+001 -2.511098e+001  0.000000e+000
      vertex  2.372351e+001 -2.458305e+001  6.000000e+000
      vertex  2.372351e+001 -2.458305e+001  0.000000e+000
    endloop
  endfacet
  facet normal -9.469295e-001  3.214412e-001  0.000000e+000
    outer loop
      vertex  2.372351e+001 -2.458305e+001  0.000000e+000
      vertex  2.372351e+001 -2.458305e+001  6.000000e+000
      vertex  2.391272e+001 -2.402566e+001  6.000000e+000
    endloop
  endfacet
  facet normal -9.469295e-001  3.214412e-001  0.000000e+000
    outer loop
      vertex  2.372351e+001 -2.458305e+001  0.000000e+000
      vertex  2.391272e+001 -2.402566e+001  6.000000e+000
      vertex  2.391272e+001 -2.402566e+001  0.000000e+000
    endloop
  endfacet
  facet normal -9.807853e-001  1.950903e-001  0.000000e+000
    outer loop
      vertex  2.391272e+001 -2.402566e+001  0.000000e+000
      vertex  2.391272e+001 -2.402566e+001  6.000000e+000
      vertex  2.402755e+001 -2.344834e+001  6.000000e+000
    endloop
  endfacet
  facet normal -9.807853e-001  1.950903e-001  0.000000e+000
    outer loop
      vertex  2.391272e+001 -2.402566e+001  0.000000e+000
      vertex  2.402755e+001 -2.344834e+001  6.000000e+000
      vertex  2.402755e+001 -2.344834e+001  0.000000e+000
    endloop
  endfacet
  facet normal -9.978590e-001  6.540278e-002  0.000000e+000
    outer loop
      vertex  2.402755e+001 -2.344834e+001  0.000000e+000
      vertex  2.402755e+001 -2.344834e+001  6.000000e+000
      vertex  2.406605e+001 -2.286098e+001  6.000000e+000
    endloop
  endfacet
  facet normal -9.978590e-001  6.540278e-002  0.000000e+000
    outer loop
      vertex  2.402755e+001 -2.344834e+001  0.000000e+000
      vertex  2.406605e+001 -2.286098e+001  6.000000e+000
      vertex  2.406605e+001 -2.286098e+001 -4.440892e-016
    endloop
  endfacet
  facet normal -6.540278e-002 -9.978590e-001  0.000000e+000
    outer loop
      vertex  1.956605e+001 -1.836098e+001  6.000000e+000
      vertex  2.015342e+001 -1.839947e+001  0.000000e+000
      vertex  2.015342e+001 -1.839947e+001  6.000000e+000
    endloop
  endfacet
  facet normal -1.950903e-001 -9.807853e-001  -0.000000e+000
    outer loop
      vertex  2.015342e+001 -1.839947e+001  6.000000e+000
      vertex  2.015342e+001 -1.839947e+001  0.000000e+000
      vertex  2.073074e+001 -1.851431e+001  0.000000e+000
    endloop
  endfacet
  facet normal -1.950903e-001 -9.807853e-001  0.000000e+000
    outer loop
      vertex  2.015342e+001 -1.839947e+001  6.000000e+000
      vertex  2.073074e+001 -1.851431e+001  0.000000e+000
      vertex  2.073074e+001 -1.851431e+001  6.000000e+000
    endloop
  endfacet
  facet normal -3.214412e-001 -9.469295e-001  -0.000000e+000
    outer loop
      vertex  2.073074e+001 -1.851431e+001  6.000000e+000
      vertex  2.073074e+001 -1.851431e+001  0.000000e+000
      vertex  2.128813e+001 -1.870352e+001  0.000000e+000
    endloop
  endfacet
  facet normal -3.214412e-001 -9.469295e-001  0.000000e+000
    outer loop
      vertex  2.073074e+001 -1.851431e+001  6.000000e+000
      vertex  2.128813e+001 -1.870352e+001  0.000000e+000
      vertex  2.128813e+001 -1.870352e+001  6.000000e+000
    endloop
  endfacet
  facet normal -4.422880e-001 -8.968731e-001  -0.000000e+000
    outer loop
      vertex  2.128813e+001 -1.870352e+001  6.000000e+000
      vertex  2.128813e+001 -1.870352e+001  0.000000e+000
      vertex  2.181605e+001 -1.896386e+001  0.000000e+000
    endloop
  endfacet
  facet normal -4.422880e-001 -8.968731e-001  0.000000e+000
    outer loop
      vertex  2.128813e+001 -1.870352e+001  6.000000e+000
      vertex  2.181605e+001 -1.896386e+001  0.000000e+000
      vertex  2.181605e+001 -1.896386e+001  6.000000e+000
    endloop
  endfacet
  facet normal -5.555711e-001 -8.314691e-001  -0.000000e+000
    outer loop
      vertex  2.181605e+001 -1.896386e+001  6.000000e+000
      vertex  2.181605e+001 -1.896386e+001  0.000000e+000
      vertex  2.230548e+001 -1.929089e+001  0.000000e+000
    endloop
  endfacet
  facet normal -5.555711e-001 -8.314691e-001  0.000000e+000
    outer loop
      vertex  2.181605e+001 -1.896386e+001  6.000000e+000
      vertex  2.230548e+001 -1.929089e+001  0.000000e+000
      vertex  2.230548e+001 -1.929089e+001  6.000000e+000
    endloop
  endfacet
  facet normal -6.593451e-001 -7.518404e-001  -0.000000e+000
    outer loop
      vertex  2.230548e+001 -1.929089e+001  6.000000e+000
      vertex  2.230548e+001 -1.929089e+001  0.000000e+000
      vertex  2.274803e+001 -1.967900e+001  0.000000e+000
    endloop
  endfacet
  facet normal -6.593451e-001 -7.518404e-001  0.000000e+000
    outer loop
      vertex  2.230548e+001 -1.929089e+001  6.000000e+000
      vertex  2.274803e+001 -1.967900e+001  0.000000e+000
      vertex  2.274803e+001 -1.967900e+001  6.000000e+000
    endloop
  endfacet
  facet normal -7.518404e-001 -6.593451e-001  -0.000000e+000
    outer loop
      vertex  2.274803e+001 -1.967900e+001  6.000000e+000
      vertex  2.274803e+001 -1.967900e+001  0.000000e+000
      vertex  2.313614e+001 -2.012155e+001  0.000000e+000
    endloop
  endfacet
  facet normal -7.518404e-001 -6.593451e-001  0.000000e+000
    outer loop
      vertex  2.274803e+001 -1.967900e+001  6.000000e+000
      vertex  2.313614e+001 -2.012155e+001  0.000000e+000
      vertex  2.313614e+001 -2.012155e+001  6.000000e+000
    endloop
  endfacet
  facet normal -8.314691e-001 -5.555711e-001  -0.000000e+000
    outer loop
      vertex  2.313614e+001 -2.012155e+001  6.000000e+000
      vertex  2.313614e+001 -2.012155e+001  0.000000e+000
      vertex  2.346317e+001 -2.061098e+001  0.000000e+000
    endloop
  endfacet
  facet normal -8.314691e-001 -5.555711e-001  0.000000e+000
    outer loop
      vertex  2.313614e+001 -2.012155e+001  6.000000e+000
      vertex  2.346317e+001 -2.061098e+001  0.000000e+000
      vertex  2.346317e+001 -2.061098e+001  6.000000e+000
    endloop
  endfacet
  facet normal -8.968731e-001 -4.422880e-001  -0.000000e+000
    outer loop
      vertex  2.346317e+001 -2.061098e+001  6.000000e+000
      vertex  2.346317e+001 -2.061098e+001  0.000000e+000
      vertex  2.372351e+001 -2.113890e+001  0.000000e+000
    endloop
  endfacet
  facet normal -8.968731e-001 -4.422880e-001  0.000000e+000
    outer loop
      vertex  2.346317e+001 -2.061098e+001  6.000000e+000
      vertex  2.372351e+001 -2.113890e+001  0.000000e+000
      vertex  2.372351e+001 -2.113890e+001  6.000000e+000
    endloop
  endfacet
  facet normal -9.469295e-001 -3.214412e-001  -0.000000e+000
    outer loop
      vertex  2.372351e+001 -2.113890e+001  6.000000e+000
      vertex  2.372351e+001 -2.113890e+001  0.000000e+000
      vertex  2.391272e+001 -2.169629e+001  0.000000e+000
    endloop
  endfacet
  facet normal -9.469295e-001 -3.214412e-001  0.000000e+000
    outer loop
      vertex  2.372351e+001 -2.113890e+001  6.000000e+000
      vertex  2.391272e+001 -2.169629e+001  0.000000e+000
      vertex  2.391272e+001 -2.169629e+001  6.000000e+000
    endloop
  endfacet
  facet normal -9.807853e-001 -1.950903e-001  -0.000000e+000
    outer loop
      vertex  2.391272e+001 -2.169629e+001  6.000000e+000
      vertex  2.391272e+001 -2.169629e+001  0.000000e+000
      vertex  2.402755e+001 -2.227361e+001  0.000000e+000
    endloop
  endfacet
  facet normal -9.807853e-001 -1.950903e-001  0.000000e+000
    outer loop
      vertex  2.391272e+001 -2.169629e+001  6.000000e+000
      vertex  2.402755e+001 -2.227361e+001  0.000000e+000
      vertex  2.402755e+001 -2.227361e+001  6.000000e+000
    endloop
  endfacet
  facet normal -9.978590e-001 -6.540278e-002  -0.000000e+000
    outer loop
      vertex  2.402755e+001 -2.227361e+001  6.000000e+000
      vertex  2.402755e+001 -2.227361e+001  0.000000e+000
      vertex  2.406605e+001 -2.286098e+001 -4.440892e-016
    endloop
  endfacet
  facet normal -9.978590e-001 -6.540278e-002  0.000000e+000
    outer loop
      vertex  2.402755e+001 -2.227361e+001  6.000000e+000
      vertex  2.406605e+001 -2.286098e+001 -4.440892e-016
      vertex  2.406605e+001 -2.286098e+001  6.000000e+000
    endloop
  endfacet
  facet normal -6.540278e-002 -9.978590e-001  -0.000000e+000
    outer loop
      vertex  2.015342e+001 -1.839947e+001  0.000000e+000
      vertex  1.956605e+001 -1.836098e+001  6.000000e+000
      vertex  1.956605e+001 -1.836098e+001  0.000000e+000
    endloop
  endfacet
  facet normal  6.540278e-002 -9.978590e-001  0.000000e+000
    outer loop
      vertex  1.956605e+001 -1.836098e+001  0.000000e+000
      vertex  1.956605e+001 -1.836098e+001  6.000000e+000
      vertex  1.897868e+001 -1.839947e+001  6.000000e+000
    endloop
  endfacet
  facet normal  6.540278e-002 -9.978590e-001  0.000000e+000
    outer loop
      vertex  1.956605e+001 -1.836098e+001  0.000000e+000
      vertex  1.897868e+001 -1.839947e+001  6.000000e+000
      vertex  1.897868e+001 -1.839947e+001  0.000000e+000
    endloop
  endfacet
  facet normal  1.950903e-001 -9.807853e-001  0.000000e+000
    outer loop
      vertex  1.897868e+001 -1.839947e+001  0.000000e+000
      vertex  1.897868e+001 -1.839947e+001  6.000000e+000
      vertex  1.840137e+001 -1.851431e+001  6.000000e+000
    endloop
  endfacet
  facet normal  1.950903e-001 -9.807853e-001  0.000000e+000
    outer loop
      vertex  1.897868e+001 -1.839947e+001  0.000000e+000
      vertex  1.840137e+001 -1.851431e+001  6.000000e+000
      vertex  1.840137e+001 -1.851431e+001  0.000000e+000
    endloop
  endfacet
  facet normal  3.214412e-001 -9.469295e-001  0.000000e+000
    outer loop
      vertex  1.840137e+001 -1.851431e+001  0.000000e+000
      vertex  1.840137e+001 -1.851431e+001  6.000000e+000
      vertex  1.784398e+001 -1.870352e+001  6.000000e+000
    endloop
  endfacet
  facet normal  3.214412e-001 -9.469295e-001  0.000000e+000
    outer loop
      vertex  1.840137e+001 -1.851431e+001  0.000000e+000
      vertex  1.784398e+001 -1.870352e+001  6.000000e+000
      vertex  1.784398e+001 -1.870352e+001  0.000000e+000
    endloop
  endfacet
  facet normal  4.422880e-001 -8.968731e-001  0.000000e+000
    outer loop
      vertex  1.784398e+001 -1.870352e+001  0.000000e+000
      vertex  1.784398e+001 -1.870352e+001  6.000000e+000
      vertex  1.731605e+001 -1.896386e+001  6.000000e+000
    endloop
  endfacet
  facet normal  4.422880e-001 -8.968731e-001  0.000000e+000
    outer loop
      vertex  1.784398e+001 -1.870352e+001  0.000000e+000
      vertex  1.731605e+001 -1.896386e+001  6.000000e+000
      vertex  1.731605e+001 -1.896386e+001  0.000000e+000
    endloop
  endfacet
  facet normal  5.555711e-001 -8.314691e-001  0.000000e+000
    outer loop
      vertex  1.731605e+001 -1.896386e+001  0.000000e+000
      vertex  1.731605e+001 -1.896386e+001  6.000000e+000
      vertex  1.682663e+001 -1.929089e+001  6.000000e+000
    endloop
  endfacet
  facet normal  5.555711e-001 -8.314691e-001  0.000000e+000
    outer loop
      vertex  1.731605e+001 -1.896386e+001  0.000000e+000
      vertex  1.682663e+001 -1.929089e+001  6.000000e+000
      vertex  1.682663e+001 -1.929089e+001  0.000000e+000
    endloop
  endfacet
  facet normal  6.593451e-001 -7.518404e-001  0.000000e+000
    outer loop
      vertex  1.682663e+001 -1.929089e+001  0.000000e+000
      vertex  1.682663e+001 -1.929089e+001  6.000000e+000
      vertex  1.638407e+001 -1.967900e+001  6.000000e+000
    endloop
  endfacet
  facet normal  6.593451e-001 -7.518404e-001  0.000000e+000
    outer loop
      vertex  1.682663e+001 -1.929089e+001  0.000000e+000
      vertex  1.638407e+001 -1.967900e+001  6.000000e+000
      vertex  1.638407e+001 -1.967900e+001  0.000000e+000
    endloop
  endfacet
  facet normal  7.518395e-001 -6.593461e-001  0.000000e+000
    outer loop
      vertex  1.638407e+001 -1.967900e+001  0.000000e+000
      vertex  1.638407e+001 -1.967900e+001  6.000000e+000
      vertex  1.599596e+001 -2.012155e+001  6.000000e+000
    endloop
  endfacet
  facet normal  7.518395e-001 -6.593461e-001  0.000000e+000
    outer loop
      vertex  1.638407e+001 -1.967900e+001  0.000000e+000
      vertex  1.599596e+001 -2.012155e+001  6.000000e+000
      vertex  1.599596e+001 -2.012155e+001  0.000000e+000
    endloop
  endfacet
  facet normal  8.314691e-001 -5.555711e-001  0.000000e+000
    outer loop
      vertex  1.599596e+001 -2.012155e+001  0.000000e+000
      vertex  1.599596e+001 -2.012155e+001  6.000000e+000
      vertex  1.566894e+001 -2.061098e+001  6.000000e+000
    endloop
  endfacet
  facet normal  8.314691e-001 -5.555711e-001  0.000000e+000
    outer loop
      vertex  1.599596e+001 -2.012155e+001  0.000000e+000
      vertex  1.566894e+001 -2.061098e+001  6.000000e+000
      vertex  1.566894e+001 -2.061098e+001  0.000000e+000
    endloop
  endfacet
  facet normal  8.968731e-001 -4.422880e-001  0.000000e+000
    outer loop
      vertex  1.566894e+001 -2.061098e+001  0.000000e+000
      vertex  1.566894e+001 -2.061098e+001  6.000000e+000
      vertex  1.540859e+001 -2.113890e+001  6.000000e+000
    endloop
  endfacet
  facet normal  8.968731e-001 -4.422880e-001  0.000000e+000
    outer loop
      vertex  1.566894e+001 -2.061098e+001  0.000000e+000
      vertex  1.540859e+001 -2.113890e+001  6.000000e+000
      vertex  1.540859e+001 -2.113890e+001  0.000000e+000
    endloop
  endfacet
  facet normal  9.469300e-001 -3.214397e-001  0.000000e+000
    outer loop
      vertex  1.540859e+001 -2.113890e+001  0.000000e+000
      vertex  1.540859e+001 -2.113890e+001  6.000000e+000
      vertex  1.521939e+001 -2.169629e+001  6.000000e+000
    endloop
  endfacet
  facet normal  9.469300e-001 -3.214397e-001  0.000000e+000
    outer loop
      vertex  1.540859e+001 -2.113890e+001  0.000000e+000
      vertex  1.521939e+001 -2.169629e+001  6.000000e+000
      vertex  1.521939e+001 -2.169629e+001  0.000000e+000
    endloop
  endfacet
  facet normal  9.807853e-001 -1.950903e-001  0.000000e+000
    outer loop
      vertex  1.521939e+001 -2.169629e+001  0.000000e+000
      vertex  1.521939e+001 -2.169629e+001  6.000000e+000
      vertex  1.510455e+001 -2.227361e+001  6.000000e+000
    endloop
  endfacet
  facet normal  9.807853e-001 -1.950903e-001  0.000000e+000
    outer loop
      vertex  1.521939e+001 -2.169629e+001  0.000000e+000
      vertex  1.510455e+001 -2.227361e+001  6.000000e+000
      vertex  1.510455e+001 -2.227361e+001  0.000000e+000
    endloop
  endfacet
  facet normal  9.978590e-001 -6.540278e-002  0.000000e+000
    outer loop
      vertex  1.510455e+001 -2.227361e+001  0.000000e+000
      vertex  1.510455e+001 -2.227361e+001  6.000000e+000
      vertex  1.506605e+001 -2.286098e+001  6.000000e+000
    endloop
  endfacet
  facet normal  9.978590e-001 -6.540278e-002  0.000000e+000
    outer loop
      vertex  1.510455e+001 -2.227361e+001  0.000000e+000
      vertex  1.506605e+001 -2.286098e+001  6.000000e+000
      vertex  1.506605e+001 -2.286098e+001  0.000000e+000
    endloop
  endfacet
  facet normal  0.000000e+000  0.000000e+000  1.000000e+000
    outer loop
      vertex  3.448812e+001 -3.743993e+001  5.000000e+000
      vertex  3.168812e+001 -3.463993e+001  5.000000e+000
      vertex -1.051188e+001 -3.743993e+001  5.000000e+000
    endloop
  endfacet
  facet normal  0.000000e+000  0.000000e+000  1.000000e+000
    outer loop
      vertex -1.051188e+001 -3.743993e+001  5.000000e+000
      vertex  3.168812e+001 -3.463993e+001  5.000000e+000
      vertex -7.711879e+000 -3.463993e+001  5.000000e+000
    endloop
  endfacet
  facet normal  0.000000e+000  0.000000e+000  1.000000e+000
    outer loop
      vertex -1.051188e+001 -3.743993e+001  5.000000e+000
      vertex -7.711879e+000 -3.463993e+001  5.000000e+000
      vertex -1.051188e+001  7.560066e+000  5.000000e+000
    endloop
  endfacet
  facet normal  0.000000e+000  0.000000e+000  1.000000e+000
    outer loop
      vertex -1.051188e+001  7.560066e+000  5.000000e+000
      vertex -7.711879e+000 -3.463993e+001  5.000000e+000
      vertex -7.711879e+000  4.760066e+000  5.000000e+000
    endloop
  endfacet
  facet normal  0.000000e+000  -0.000000e+000  1.000000e+000
    outer loop
      vertex -1.051188e+001  7.560066e+000  5.000000e+000
      vertex -7.711879e+000  4.760066e+000  5.000000e+000
      vertex  3.448812e+001  7.560066e+000  5.000000e+000
    endloop
  endfacet
  facet normal  0.000000e+000  0.000000e+000  1.000000e+000
    outer loop
      vertex  3.448812e+001  7.560066e+000  5.000000e+000
      vertex -7.711879e+000  4.760066e+000  5.000000e+000
      vertex  3.168812e+001  4.760066e+000  5.000000e+000
    endloop
  endfacet
  facet normal  -0.000000e+000  0.000000e+000  1.000000e+000
    outer loop
      vertex  3.448812e+001  7.560066e+000  5.000000e+000
      vertex  3.168812e+001  4.760066e+000  5.000000e+000
      vertex  3.448812e+001 -3.743993e+001  5.000000e+000
    endloop
  endfacet
  facet normal  0.000000e+000  0.000000e+000  1.000000e+000
    outer loop
      vertex  3.448812e+001 -3.743993e+001  5.000000e+000
      vertex  3.168812e+001  4.760066e+000  5.000000e+000
      vertex  3.168812e+001 -3.463993e+001  5.000000e+000
    endloop
  endfacet
  facet normal  0.000000e+000  1.000000e+000  0.000000e+000
    outer loop
      vertex -7.711879e+000  4.760066e+000  6.000000e+000
      vertex  3.168812e+001  4.760066e+000  6.000000e+000
      vertex -7.711879e+000  4.760066e+000  5.000000e+000
    endloop
  endfacet
  facet normal  0.000000e+000  1.000000e+000  0.000000e+000
    outer loop
      vertex -7.711879e+000  4.760066e+000  5.000000e+000
      vertex  3.168812e+001  4.760066e+000  6.000000e+000
      vertex  3.168812e+001  4.760066e+000  5.000000e+000
    endloop
  endfacet
  facet normal  1.000000e+000  0.000000e+000  0.000000e+000
    outer loop
      vertex  3.168812e+001 -3.463993e+001  6.000000e+000
      vertex  3.168812e+001 -3.463993e+001  5.000000e+000
      vertex  3.168812e+001  4.760066e+000  6.000000e+000
    endloop
  endfacet
  facet normal  1.000000e+000  0.000000e+000  0.000000e+000
    outer loop
      vertex  3.168812e+001  4.760066e+000  6.000000e+000
      vertex  3.168812e+001 -3.463993e+001  5.000000e+000
      vertex  3.168812e+001  4.760066e+000  5.000000e+000
    endloop
  endfacet
  facet normal  0.000000e+000 -1.000000e+000  0.000000e+000
    outer loop
      vertex  3.168812e+001 -3.463993e+001  6.000000e+000
      vertex -7.711879e+000 -3.463993e+001  6.000000e+000
      vertex  3.168812e+001 -3.463993e+001  5.000000e+000
    endloop
  endfacet
  facet normal  0.000000e+000 -1.000000e+000  0.000000e+000
    outer loop
      vertex  3.168812e+001 -3.463993e+001  5.000000e+000
      vertex -7.711879e+000 -3.463993e+001  6.000000e+000
      vertex -7.711879e+000 -3.463993e+001  5.000000e+000
    endloop
  endfacet
  facet normal -1.000000e+000  0.000000e+000  0.000000e+000
    outer loop
      vertex -7.711879e+000  4.760066e+000  6.000000e+000
      vertex -7.711879e+000  4.760066e+000  5.000000e+000
      vertex -7.711879e+000 -3.463993e+001  6.000000e+000
    endloop
  endfacet
  facet normal -1.000000e+000  0.000000e+000  0.000000e+000
    outer loop
      vertex -7.711879e+000 -3.463993e+001  6.000000e+000
      vertex -7.711879e+000  4.760066e+000  5.000000e+000
      vertex -7.711879e+000 -3.463993e+001  5.000000e+000
    endloop
  endfacet
  facet normal  0.000000e+000  1.000000e+000  0.000000e+000
    outer loop
      vertex -1.051188e+001  7.560066e+000  5.000000e+000
      vertex  3.448812e+001  7.560066e+000  5.000000e+000
      vertex -1.051188e+001  7.560066e+000  0.000000e+000
    endloop
  endfacet
  facet normal  0.000000e+000  1.000000e+000  0.000000e+000
    outer loop
      vertex -1.051188e+001  7.560066e+000  0.000000e+000
      vertex  3.448812e+001  7.560066e+000  5.000000e+000
      vertex  3.448812e+001  7.560066e+000  0.000000e+000
    endloop
  endfacet
  facet normal  1.000000e+000  0.000000e+000  0.000000e+000
    outer loop
      vertex  3.448812e+001 -3.743993e+001  5.000000e+000
      vertex  3.448812e+001 -3.743993e+001  0.000000e+000
      vertex  3.448812e+001  7.560066e+000  5.000000e+000
    endloop
  endfacet
  facet normal  1.000000e+000  0.000000e+000  0.000000e+000
    outer loop
      vertex  3.448812e+001  7.560066e+000  5.000000e+000
      vertex  3.448812e+001 -3.743993e+001  0.000000e+000
      vertex  3.448812e+001  7.560066e+000  0.000000e+000
    endloop
  endfacet
  facet normal  0.000000e+000 -1.000000e+000  0.000000e+000
    outer loop
      vertex  3.448812e+001 -3.743993e+001  5.000000e+000
      vertex -1.051188e+001 -3.743993e+001  5.000000e+000
      vertex  3.448812e+001 -3.743993e+001  0.000000e+000
    endloop
  endfacet
  facet normal  0.000000e+000 -1.000000e+000  0.000000e+000
    outer loop
      vertex  3.448812e+001 -3.743993e+001  0.000000e+000
      vertex -1.051188e+001 -3.743993e+001  5.000000e+000
      vertex -1.051188e+001 -3.743993e+001  0.000000e+000
    endloop
  endfacet
  facet normal -1.000000e+000  0.000000e+000  0.000000e+000
    outer loop
      vertex -1.051188e+001  7.560066e+000  5.000000e+000
      vertex -1.051188e+001  7.560066e+000  0.000000e+000
      vertex -1.051188e+001 -3.743993e+001  5.000000e+000
    endloop
  endfacet
  facet normal -1.000000e+000  0.000000e+000  0.000000e+000
    outer loop
      vertex -1.051188e+001 -3.743993e+001  5.000000e+000
      vertex -1.051188e+001  7.560066e+000  0.000000e+000
      vertex -1.051188e+001 -3.743993e+001  0.000000e+000
    endloop
  endfacet
endsolid CATIA STL
