  0
SECTION
  2
HEADER
  9
$ACADVER
  1
AC1006
  9
$EXTMIN
 10
0.000000
 20
0.000000
 30
0.000000
  9
$EXTMAX
 10
3508.000000
 20
2480.000000
 30
0.000000
  0
ENDSEC
  0
SECTION
  2
ENTITIES
  0
POLYLINE
  8
0
 66
1
 70
1
  0
VERTEX
  8
0
 10
859.712557
 20
1768.737968
 42
0.001113
  0
VERTEX
  8
0
 10
854.072545
 20
1754.747755
 42
0.001776
  0
VERTEX
  8
0
 10
849.321814
 20
1742.764255
 42
0.000337
  0
VERTEX
  8
0
 10
845.177576
 20
1732.180260
 42
0.093403
  0
VERTEX
  8
0
 10
845.000000
 20
1731.237968
 42
0.412319
  0
VERTEX
  8
0
 10
845.722169
 20
1730.511109
 42
0.000148
  0
VERTEX
  8
0
 10
887.752078
 20
1730.251471
 42
0.001239
  0
VERTEX
  8
0
 10
946.904461
 20
1730.050167
 42
0.000231
  0
VERTEX
  8
0
 10
1055.464816
 20
1730.000000
 42
0.000145
  0
VERTEX
  8
0
 10
1187.078066
 20
1730.038202
 42
0.001924
  0
VERTEX
  8
0
 10
1235.614929
 20
1730.253187
 42
0.000926
  0
VERTEX
  8
0
 10
1264.889419
 20
1730.549739
 42
0.273835
  0
VERTEX
  8
0
 10
1266.862352
 20
1731.750000
 42
0.026304
  0
VERTEX
  8
0
 10
1268.986035
 20
1736.295267
 42
0.000276
  0
VERTEX
  8
0
 10
1282.070756
 20
1768.683869
 42
0.000080
  0
VERTEX
  8
0
 10
1295.717780
 20
1802.533674
 42
0.096062
  0
VERTEX
  8
0
 10
1296.000000
 20
1803.989070
 42
0.412754
  0
VERTEX
  8
0
 10
1295.496459
 20
1804.495128
 42
0.000047
  0
VERTEX
  8
0
 10
1243.622864
 20
1804.748801
 42
0.000895
  0
VERTEX
  8
0
 10
1179.052748
 20
1804.942917
 42
0.000304
  0
VERTEX
  8
0
 10
1085.212557
 20
1805.000000
 42
0.000000
  0
VERTEX
  8
0
 10
874.425114
 20
1805.000000
 42
0.000000
  0
SEQEND
  0
POLYLINE
  8
0
 66
1
 70
1
  0
VERTEX
  8
0
 10
1350.579041
 20
1804.127891
 42
0.042415
  0
VERTEX
  8
0
 10
1349.353430
 20
1801.707888
 42
0.000113
  0
VERTEX
  8
0
 10
1335.417639
 20
1767.197270
 42
0.000052
  0
VERTEX
  8
0
 10
1321.235209
 20
1732.042500
 42
0.096133
  0
VERTEX
  8
0
 10
1321.000000
 20
1730.830458
 42
0.413040
  0
VERTEX
  8
0
 10
1321.340652
 20
1730.488438
 42
0.000015
  0
VERTEX
  8
0
 10
1382.798407
 20
1730.243947
 42
0.000617
  0
VERTEX
  8
0
 10
1450.708102
 20
1730.059675
 42
0.000370
  0
VERTEX
  8
0
 10
1531.377555
 20
1730.000000
 42
0.000225
  0
VERTEX
  8
0
 10
1641.755831
 20
1730.049580
 42
0.001285
  0
VERTEX
  8
0
 10
1700.325930
 20
1730.252777
 42
0.000219
  0
VERTEX
  8
0
 10
1741.212224
 20
1730.517672
 42
0.221299
  0
VERTEX
  8
0
 10
1742.815040
 20
1731.277137
 42
0.070463
  0
VERTEX
  8
0
 10
1743.438467
 20
1732.289355
 42
0.001843
  0
VERTEX
  8
0
 10
1745.543920
 20
1737.164893
 42
0.003851
  0
VERTEX
  8
0
 10
1747.956380
 20
1742.930903
 42
0.002619
  0
VERTEX
  8
0
 10
1750.616432
 20
1749.527137
 42
0.003623
  0
VERTEX
  8
0
 10
1754.710151
 20
1760.055578
 42
0.025571
  0
VERTEX
  8
0
 10
1756.398135
 20
1765.280897
 42
0.042424
  0
VERTEX
  8
0
 10
1757.154533
 20
1769.521155
 42
0.020846
  0
VERTEX
  8
0
 10
1757.428948
 20
1775.000000
 42
0.011432
  0
VERTEX
  8
0
 10
1757.358599
 20
1779.849989
 42
0.038148
  0
VERTEX
  8
0
 10
1756.997851
 20
1783.011180
 42
0.045258
  0
VERTEX
  8
0
 10
1756.198179
 20
1785.788581
 42
0.021424
  0
VERTEX
  8
0
 10
1754.698910
 20
1789.204096
 42
0.034857
  0
VERTEX
  8
0
 10
1752.286574
 20
1793.357763
 42
0.047315
  0
VERTEX
  8
0
 10
1749.526320
 20
1796.699385
 42
0.045266
  0
VERTEX
  8
0
 10
1746.088266
 20
1799.568039
 42
0.028421
  0
VERTEX
  8
0
 10
1741.616470
 20
1802.297798
 42
0.000000
  0
VERTEX
  8
0
 10
1737.500000
 20
1804.500000
 42
0.000000
  0
VERTEX
  8
0
 10
1544.315198
 20
1804.760001
 42
0.000393
  0
VERTEX
  8
0
 10
1467.155083
 20
1804.803179
 42
0.000759
  0
VERTEX
  8
0
 10
1405.398492
 20
1804.695432
 42
0.000030
  0
VERTEX
  8
0
 10
1351.271677
 20
1804.515598
 42
0.259031
  0
SEQEND
  0
POLYLINE
  8
0
 66
1
 70
1
  0
VERTEX
  8
0
 10
1862.500000
 20
1801.926596
 42
0.048533
  0
VERTEX
  8
0
 10
1848.078293
 20
1795.452330
 42
0.048250
  0
VERTEX
  8
0
 10
1835.144560
 20
1786.308846
 42
0.048411
  0
VERTEX
  8
0
 10
1824.240854
 20
1774.888294
 42
0.049547
  0
VERTEX
  8
0
 10
1815.832607
 20
1761.668395
 42
0.018139
  0
VERTEX
  8
0
 10
1812.416262
 20
1754.242871
 42
0.006408
  0
VERTEX
  8
0
 10
1808.048738
 20
1743.374870
 42
0.001334
  0
VERTEX
  8
0
 10
1803.549139
 20
1731.657034
 42
0.295519
  0
VERTEX
  8
0
 10
1803.786629
 20
1730.546705
 42
0.199057
  0
VERTEX
  8
0
 10
1805.327602
 20
1729.908916
 42
0.000007
  0
VERTEX
  8
0
 10
2014.058091
 20
1730.028033
 42
0.000009
  0
VERTEX
  8
0
 10
2222.504361
 20
1730.153388
 42
0.142358
  0
VERTEX
  8
0
 10
2224.698464
 20
1730.792479
 42
0.153899
  0
VERTEX
  8
0
 10
2225.760846
 20
1732.055977
 42
0.000167
  0
VERTEX
  8
0
 10
2239.521538
 20
1765.210756
 42
0.000754
  0
VERTEX
  8
0
 10
2252.313476
 20
1796.192446
 42
0.029258
  0
VERTEX
  8
0
 10
2254.743166
 20
1803.250000
 42
0.492512
  0
VERTEX
  8
0
 10
2253.844039
 20
1804.452045
 42
0.001066
  0
VERTEX
  8
0
 10
2227.575402
 20
1804.745418
 42
0.002130
  0
VERTEX
  8
0
 10
2183.752502
 20
1804.954750
 42
0.000156
  0
VERTEX
  8
0
 10
2063.366631
 20
1804.979414
 42
0.000000
  0
VERTEX
  8
0
 10
1871.500000
 20
1804.958828
 42
0.000000
  0
SEQEND
  0
POLYLINE
  8
0
 66
1
 70
1
  0
VERTEX
  8
0
 10
2346.332577
 20
1803.475817
 42
0.055564
  0
VERTEX
  8
0
 10
2329.787757
 20
1796.977669
 42
0.054389
  0
VERTEX
  8
0
 10
2314.950183
 20
1786.958313
 42
0.054371
  0
VERTEX
  8
0
 10
2302.617942
 20
1773.971665
 42
0.055454
  0
VERTEX
  8
0
 10
2293.469216
 20
1758.713726
 42
0.010308
  0
VERTEX
  8
0
 10
2290.005302
 20
1750.715940
 42
0.006411
  0
VERTEX
  8
0
 10
2286.257693
 20
1741.203124
 42
0.001291
  0
VERTEX
  8
0
 10
2282.589842
 20
1731.455070
 42
0.293707
  0
VERTEX
  8
0
 10
2282.787491
 20
1730.545842
 42
0.199092
  0
VERTEX
  8
0
 10
2284.394216
 20
1729.880967
 42
0.000007
  0
VERTEX
  8
0
 10
2493.095701
 20
1730.028613
 42
0.000010
  0
VERTEX
  8
0
 10
2701.498882
 20
1730.183014
 42
0.142092
  0
VERTEX
  8
0
 10
2703.791116
 20
1730.849741
 42
0.141214
  0
VERTEX
  8
0
 10
2704.499136
 20
1731.649103
 42
0.003294
  0
VERTEX
  8
0
 10
2706.652461
 20
1736.250315
 42
0.007044
  0
VERTEX
  8
0
 10
2709.082042
 20
1741.734401
 42
0.004689
  0
VERTEX
  8
0
 10
2711.718808
 20
1748.084428
 42
0.000000
  0
VERTEX
  8
0
 10
2718.355383
 20
1764.500000
 42
0.000000
  0
VERTEX
  8
0
 10
2718.427692
 20
1775.000000
 42
0.024221
  0
VERTEX
  8
0
 10
2718.089359
 20
1783.138963
 42
0.071611
  0
VERTEX
  8
0
 10
2716.800947
 20
1788.569292
 42
0.081082
  0
VERTEX
  8
0
 10
2714.138968
 20
1793.032972
 42
0.037382
  0
VERTEX
  8
0
 10
2709.395754
 20
1797.882846
 42
0.130838
  0
VERTEX
  8
0
 10
2700.206972
 20
1802.453613
 42
0.040914
  0
VERTEX
  8
0
 10
2684.800299
 20
1804.305211
 42
0.009271
  0
VERTEX
  8
0
 10
2653.397492
 20
1804.910851
 42
0.000281
  0
VERTEX
  8
0
 10
2523.068499
 20
1804.934189
 42
0.000264
  0
VERTEX
  8
0
 10
2429.715075
 20
1804.849084
 42
0.001703
  0
VERTEX
  8
0
 10
2382.571117
 20
1804.620641
 42
0.001241
  0
VERTEX
  8
0
 10
2352.220429
 20
1804.294885
 42
0.062587
  0
SEQEND
  0
POLYLINE
  8
0
 66
1
 70
1
  0
VERTEX
  8
0
 10
836.039288
 20
1710.250000
 42
-0.000512
  0
VERTEX
  8
0
 10
834.638114
 20
1706.551244
 42
-0.000443
  0
VERTEX
  8
0
 10
833.160503
 20
1702.673107
 42
-0.000446
  0
VERTEX
  8
0
 10
831.815500
 20
1699.161801
 42
-0.001305
  0
VERTEX
  8
0
 10
830.879468
 20
1696.743555
 42
0.000000
  0
VERTEX
  8
0
 10
829.024103
 20
1691.987110
 42
0.000000
  0
VERTEX
  8
0
 10
902.648615
 20
1692.243555
 42
0.000000
  0
VERTEX
  8
0
 10
976.273127
 20
1692.500000
 42
0.000000
  0
VERTEX
  8
0
 10
980.639112
 20
1704.000000
 42
0.000700
  0
VERTEX
  8
0
 10
982.352607
 20
1708.532458
 42
0.000946
  0
VERTEX
  8
0
 10
983.888510
 20
1712.635937
 42
0.000636
  0
VERTEX
  8
0
 10
985.166840
 20
1716.084440
 42
0.010377
  0
VERTEX
  8
0
 10
985.569936
 20
1717.250000
 42
0.492427
  0
VERTEX
  8
0
 10
984.788227
 20
1718.385464
 42
0.007175
  0
VERTEX
  8
0
 10
975.398399
 20
1718.745963
 42
0.005590
  0
VERTEX
  8
0
 10
958.591103
 20
1718.961847
 42
0.000416
  0
VERTEX
  8
0
 10
912.739260
 20
1719.000000
 42
0.000000
  0
VERTEX
  8
0
 10
839.343744
 20
1719.000000
 42
0.000000
  0
SEQEND
  0
POLYLINE
  8
0
 66
1
 70
1
  0
VERTEX
  8
0
 10
1316.000000
 20
1718.719868
 42
-0.090507
  0
VERTEX
  8
0
 10
1315.960344
 20
1718.502583
 42
-0.000137
  0
VERTEX
  8
0
 10
1314.531250
 20
1714.720977
 42
-0.001105
  0
VERTEX
  8
0
 10
1312.916914
 20
1710.481049
 42
-0.000681
  0
VERTEX
  8
0
 10
1311.000000
 20
1705.500000
 42
0.000697
  0
VERTEX
  8
0
 10
1309.083094
 20
1700.518505
 42
0.001129
  0
VERTEX
  8
0
 10
1307.468750
 20
1696.277129
 42
0.000143
  0
VERTEX
  8
0
 10
1306.040522
 20
1692.495828
 42
0.090460
  0
VERTEX
  8
0
 10
1306.000000
 20
1692.273684
 42
0.414076
  0
VERTEX
  8
0
 10
1306.117566
 20
1692.156063
 42
0.000015
  0
VERTEX
  8
0
 10
1327.653114
 20
1692.146618
 42
0.000608
  0
VERTEX
  8
0
 10
1351.447516
 20
1692.165810
 42
0.000364
  0
VERTEX
  8
0
 10
1379.712729
 20
1692.243552
 42
0.000000
  0
VERTEX
  8
0
 10
1453.425457
 20
1692.500000
 42
0.000000
  0
VERTEX
  8
0
 10
1458.151811
 20
1704.500000
 42
0.002897
  0
VERTEX
  8
0
 10
1459.967188
 20
1709.188654
 42
0.004227
  0
VERTEX
  8
0
 10
1461.507693
 20
1713.342187
 42
0.002129
  0
VERTEX
  8
0
 10
1462.768334
 20
1716.878366
 42
0.072501
  0
VERTEX
  8
0
 10
1462.939082
 20
1717.750000
 42
0.422070
  0
VERTEX
  8
0
 10
1462.269262
 20
1718.468891
 42
0.001232
  0
VERTEX
  8
0
 10
1448.049803
 20
1718.745956
 42
0.003586
  0
VERTEX
  8
0
 10
1427.398580
 20
1718.949315
 42
0.000669
  0
VERTEX
  8
0
 10
1389.500000
 20
1719.000000
 42
0.000357
  0
VERTEX
  8
0
 10
1361.316362
 20
1718.979870
 42
0.000596
  0
VERTEX
  8
0
 10
1337.590625
 20
1718.917711
 42
0.000014
  0
VERTEX
  8
0
 10
1316.114932
 20
1718.835245
 42
0.413081
  0
SEQEND
  0
POLYLINE
  8
0
 66
1
 70
1
  0
VERTEX
  8
0
 10
1590.080892
 20
1716.750000
 42
0.001110
  0
VERTEX
  8
0
 10
1586.713746
 20
1707.980050
 42
0.001569
  0
VERTEX
  8
0
 10
1583.756423
 20
1700.152414
 42
0.000258
  0
VERTEX
  8
0
 10
1581.101578
 20
1693.047001
 42
0.089503
  0
VERTEX
  8
0
 10
1581.000000
 20
1692.484089
 42
0.413199
  0
VERTEX
  8
0
 10
1581.203068
 20
1692.280316
 42
0.000045
  0
VERTEX
  8
0
 10
1602.517188
 20
1692.208378
 42
0.001061
  0
VERTEX
  8
0
 10
1626.162226
 20
1692.180877
 42
0.000636
  0
VERTEX
  8
0
 10
1654.250000
 20
1692.243510
 42
0.000000
  0
VERTEX
  8
0
 10
1727.500000
 20
1692.500000
 42
0.000000
  0
VERTEX
  8
0
 10
1732.162861
 20
1704.000000
 42
0.004309
  0
VERTEX
  8
0
 10
1733.955375
 20
1708.532654
 42
0.005939
  0
VERTEX
  8
0
 10
1735.481604
 20
1712.635937
 42
0.003890
  0
VERTEX
  8
0
 10
1736.692071
 20
1716.097029
 42
0.069840
  0
VERTEX
  8
0
 10
1736.912861
 20
1717.250000
 42
0.414033
  0
VERTEX
  8
0
 10
1735.882986
 20
1718.388517
 42
0.006595
  0
VERTEX
  8
0
 10
1726.317609
 20
1718.744307
 42
0.005571
  0
VERTEX
  8
0
 10
1709.435981
 20
1718.961207
 42
0.000427
  0
VERTEX
  8
0
 10
1663.975249
 20
1719.000000
 42
0.000000
  0
VERTEX
  8
0
 10
1590.950498
 20
1719.000000
 42
0.000000
  0
SEQEND
  0
POLYLINE
  8
0
 66
1
 70
1
  0
VERTEX
  8
0
 10
1792.203302
 20
1705.750000
 42
0.000000
  0
VERTEX
  8
0
 10
1787.166800
 20
1692.500000
 42
0.000000
  0
VERTEX
  8
0
 10
1860.243533
 20
1692.243467
 42
0.000557
  0
VERTEX
  8
0
 10
1888.294398
 20
1692.176233
 42
0.000921
  0
VERTEX
  8
0
 10
1911.981131
 20
1692.189445
 42
0.000048
  0
VERTEX
  8
0
 10
1933.327156
 20
1692.242707
 42
0.198239
  0
VERTEX
  8
0
 10
1933.753132
 20
1692.419799
 42
0.103631
  0
VERTEX
  8
0
 10
1934.195105
 20
1693.096055
 42
0.000194
  0
VERTEX
  8
0
 10
1939.027296
 20
1705.482488
 42
0.000215
  0
VERTEX
  8
0
 10
1943.835010
 20
1717.835977
 42
0.092945
  0
VERTEX
  8
0
 10
1944.000000
 20
1718.715881
 42
0.413063
  0
VERTEX
  8
0
 10
1943.883442
 20
1718.832898
 42
0.000015
  0
VERTEX
  8
0
 10
1922.444596
 20
1718.916540
 42
0.000605
  0
VERTEX
  8
0
 10
1898.757564
 20
1718.979584
 42
0.000363
  0
VERTEX
  8
0
 10
1870.619902
 20
1719.000000
 42
0.000000
  0
VERTEX
  8
0
 10
1797.239804
 20
1719.000000
 42
0.000000
  0
SEQEND
  0
POLYLINE
  8
0
 66
1
 70
1
  0
VERTEX
  8
0
 10
2273.239743
 20
1710.750000
 42
-0.001502
  0
VERTEX
  8
0
 10
2271.927381
 20
1707.206431
 42
-0.001186
  0
VERTEX
  8
0
 10
2270.486583
 20
1703.379357
 42
-0.001198
  0
VERTEX
  8
0
 10
2269.131755
 20
1699.832023
 42
-0.002976
  0
VERTEX
  8
0
 10
2268.118303
 20
1697.243555
 42
0.000000
  0
VERTEX
  8
0
 10
2266.024103
 20
1691.987110
 42
0.000000
  0
VERTEX
  8
0
 10
2339.628096
 20
1692.243555
 42
0.000000
  0
VERTEX
  8
0
 10
2413.232088
 20
1692.500000
 42
0.000000
  0
VERTEX
  8
0
 10
2417.474660
 20
1703.500000
 42
0.001157
  0
VERTEX
  8
0
 10
2419.151163
 20
1707.876919
 42
0.001465
  0
VERTEX
  8
0
 10
2420.679178
 20
1711.929688
 42
0.001152
  0
VERTEX
  8
0
 10
2421.942901
 20
1715.335382
 42
0.011960
  0
VERTEX
  8
0
 10
2422.426004
 20
1716.750000
 42
0.000000
  0
VERTEX
  8
0
 10
2423.134775
 20
1719.000000
 42
0.000000
  0
VERTEX
  8
0
 10
2349.700880
 20
1719.000000
 42
0.000000
  0
VERTEX
  8
0
 10
2276.266984
 20
1719.000000
 42
0.000000
  0
SEQEND
  0
POLYLINE
  8
0
 66
1
 70
1
  0
VERTEX
  8
0
 10
2546.673824
 20
1706.698084
 42
0.003028
  0
VERTEX
  8
0
 10
2544.882920
 20
1701.896895
 42
0.004457
  0
VERTEX
  8
0
 10
2543.372936
 20
1697.656012
 42
0.002149
  0
VERTEX
  8
0
 10
2542.138783
 20
1694.039311
 42
0.081316
  0
VERTEX
  8
0
 10
2542.000000
 20
1693.191594
 42
0.409222
  0
VERTEX
  8
0
 10
2542.665059
 20
1692.515083
 42
0.001027
  0
VERTEX
  8
0
 10
2557.371433
 20
1692.294184
 42
0.003416
  0
VERTEX
  8
0
 10
2578.264380
 20
1692.166020
 42
0.000703
  0
VERTEX
  8
0
 10
2615.116045
 20
1692.243510
 42
0.000000
  0
VERTEX
  8
0
 10
2688.232090
 20
1692.500000
 42
0.000000
  0
VERTEX
  8
0
 10
2692.474661
 20
1703.500000
 42
0.001157
  0
VERTEX
  8
0
 10
2694.151163
 20
1707.876919
 42
0.001465
  0
VERTEX
  8
0
 10
2695.679179
 20
1711.929688
 42
0.001152
  0
VERTEX
  8
0
 10
2696.942902
 20
1715.335382
 42
0.011960
  0
VERTEX
  8
0
 10
2697.426004
 20
1716.750000
 42
0.000000
  0
VERTEX
  8
0
 10
2698.134775
 20
1719.000000
 42
0.000000
  0
VERTEX
  8
0
 10
2624.741211
 20
1719.000000
 42
0.000000
  0
VERTEX
  8
0
 10
2551.347647
 20
1719.000000
 42
0.000000
  0
SEQEND
  0
POLYLINE
  8
0
 66
1
 70
1
  0
VERTEX
  8
0
 10
824.138867
 20
1679.250000
 42
0.027509
  0
VERTEX
  8
0
 10
820.469955
 20
1671.336687
 42
0.001033
  0
VERTEX
  8
0
 10
808.427565
 20
1640.927755
 42
0.000190
  0
VERTEX
  8
0
 10
795.437336
 20
1607.889459
 42
0.187307
  0
VERTEX
  8
0
 10
795.431186
 20
1606.318731
 42
0.310458
  0
VERTEX
  8
0
 10
797.486391
 20
1604.905615
 42
0.000029
  0
VERTEX
  8
0
 10
989.295292
 20
1604.860523
 42
0.000035
  0
VERTEX
  8
0
 10
1180.802121
 20
1604.840049
 42
0.224924
  0
VERTEX
  8
0
 10
1183.778118
 20
1606.250000
 42
0.075799
  0
VERTEX
  8
0
 10
1185.795632
 20
1609.657666
 42
0.000449
  0
VERTEX
  8
0
 10
1199.477177
 20
1643.679660
 42
0.000169
  0
VERTEX
  8
0
 10
1213.533896
 20
1678.759748
 42
0.237930
  0
VERTEX
  8
0
 10
1213.414486
 20
1680.138364
 42
0.258726
  0
VERTEX
  8
0
 10
1212.777098
 20
1680.495624
 42
0.000023
  0
VERTEX
  8
0
 10
1156.372128
 20
1680.748203
 42
0.000696
  0
VERTEX
  8
0
 10
1093.747704
 20
1680.938483
 42
0.000411
  0
VERTEX
  8
0
 10
1018.976167
 20
1681.000000
 42
0.000158
  0
VERTEX
  8
0
 10
897.782883
 20
1680.961711
 42
0.002087
  0
VERTEX
  8
0
 10
853.019356
 20
1680.746543
 42
0.001085
  0
VERTEX
  8
0
 10
826.101252
 20
1680.446375
 42
0.273621
  0
SEQEND
  0
POLYLINE
  8
0
 66
1
 70
1
  0
VERTEX
  8
0
 10
1301.230250
 20
1679.750000
 42
0.075703
  0
VERTEX
  8
0
 10
1298.973190
 20
1675.904197
 42
0.000578
  0
VERTEX
  8
0
 10
1285.525362
 20
1642.083005
 42
0.000193
  0
VERTEX
  8
0
 10
1271.638034
 20
1606.998980
 42
0.295791
  0
VERTEX
  8
0
 10
1271.894950
 20
1605.722806
 42
0.201215
  0
VERTEX
  8
0
 10
1272.650346
 20
1605.403585
 42
0.000023
  0
VERTEX
  8
0
 10
1328.514878
 20
1605.255338
 42
0.000633
  0
VERTEX
  8
0
 10
1390.315897
 20
1605.172396
 42
0.000382
  0
VERTEX
  8
0
 10
1463.577194
 20
1605.222806
 42
0.000000
  0
VERTEX
  8
0
 10
1654.500000
 20
1605.500000
 42
0.000000
  0
VERTEX
  8
0
 10
1661.500000
 20
1607.865499
 42
0.038529
  0
VERTEX
  8
0
 10
1676.154379
 20
1614.111433
 42
0.047953
  0
VERTEX
  8
0
 10
1688.569031
 20
1622.169963
 42
0.048864
  0
VERTEX
  8
0
 10
1699.039079
 20
1632.306908
 42
0.042528
  0
VERTEX
  8
0
 10
1707.897455
 20
1644.743900
 42
0.027341
  0
VERTEX
  8
0
 10
1711.957433
 20
1652.556961
 42
0.008189
  0
VERTEX
  8
0
 10
1717.284853
 20
1664.875228
 42
0.002522
  0
VERTEX
  8
0
 10
1722.649794
 20
1678.047758
 42
0.238181
  0
VERTEX
  8
0
 10
1722.478660
 20
1680.034529
 42
0.258665
  0
VERTEX
  8
0
 10
1721.658739
 20
1680.494223
 42
0.000041
  0
VERTEX
  8
0
 10
1667.302519
 20
1680.748139
 42
0.000820
  0
VERTEX
  8
0
 10
1601.809748
 20
1680.941259
 42
0.000327
  0
VERTEX
  8
0
 10
1512.063428
 20
1681.000000
 42
0.000232
  0
VERTEX
  8
0
 10
1403.486179
 20
1680.949659
 42
0.001250
  0
VERTEX
  8
0
 10
1344.456407
 20
1680.747302
 42
0.000195
  0
VERTEX
  8
0
 10
1302.757769
 20
1680.483796
 42
0.224209
  0
SEQEND
  0
POLYLINE
  8
0
 66
1
 70
1
  0
VERTEX
  8
0
 10
1780.199444
 20
1679.740315
 42
0.069938
  0
VERTEX
  8
0
 10
1779.567367
 20
1678.716451
 42
0.001872
  0
VERTEX
  8
0
 10
1777.449852
 20
1673.840233
 42
0.003873
  0
VERTEX
  8
0
 10
1775.022645
 20
1668.070321
 42
0.002638
  0
VERTEX
  8
0
 10
1772.347880
 20
1661.472863
 42
0.003426
  0
VERTEX
  8
0
 10
1768.110256
 20
1650.645239
 42
0.027738
  0
VERTEX
  8
0
 10
1766.480576
 20
1645.570507
 42
0.045656
  0
VERTEX
  8
0
 10
1765.783426
 20
1641.358367
 42
0.018172
  0
VERTEX
  8
0
 10
1765.569886
 20
1635.500000
 42
0.009882
  0
VERTEX
  8
0
 10
1765.670145
 20
1630.403307
 42
0.036433
  0
VERTEX
  8
0
 10
1766.030813
 20
1627.204168
 42
0.047662
  0
VERTEX
  8
0
 10
1766.795044
 20
1624.549979
 42
0.026859
  0
VERTEX
  8
0
 10
1768.191274
 20
1621.500000
 42
0.034508
  0
VERTEX
  8
0
 10
1770.882785
 20
1617.129694
 42
0.051279
  0
VERTEX
  8
0
 10
1773.855611
 20
1613.763749
 42
0.048877
  0
VERTEX
  8
0
 10
1777.560849
 20
1610.963389
 42
0.028006
  0
VERTEX
  8
0
 10
1782.500000
 20
1608.306536
 42
0.000000
  0
VERTEX
  8
0
 10
1788.500000
 20
1605.500000
 42
0.000000
  0
VERTEX
  8
0
 10
1979.713909
 20
1605.230101
 42
0.000000
  0
VERTEX
  8
0
 10
2170.927818
 20
1604.960202
 42
0.000000
  0
VERTEX
  8
0
 10
2172.390590
 20
1607.230101
 42
0.046197
  0
VERTEX
  8
0
 10
2174.549705
 20
1611.376205
 42
0.003680
  0
VERTEX
  8
0
 10
2179.146517
 20
1622.870889
 42
0.004886
  0
VERTEX
  8
0
 10
2183.500760
 20
1634.324324
 42
0.024684
  0
VERTEX
  8
0
 10
2185.548896
 20
1640.849034
 42
0.029285
  0
VERTEX
  8
0
 10
2186.597349
 20
1646.122639
 42
0.036075
  0
VERTEX
  8
0
 10
2186.925930
 20
1651.125818
 42
0.036972
  0
VERTEX
  8
0
 10
2186.531343
 20
1656.019960
 42
0.033590
  0
VERTEX
  8
0
 10
2185.417347
 20
1660.966370
 42
0.073304
  0
VERTEX
  8
0
 10
2183.030599
 20
1666.102374
 42
0.046108
  0
VERTEX
  8
0
 10
2178.895231
 20
1671.284594
 42
0.045539
  0
VERTEX
  8
0
 10
2173.792194
 20
1675.707443
 42
0.063785
  0
VERTEX
  8
0
 10
2168.491510
 20
1678.573707
 42
0.086043
  0
VERTEX
  8
0
 10
2162.104273
 20
1679.846144
 42
0.003448
  0
VERTEX
  8
0
 10
2138.345206
 20
1680.275804
 42
0.002295
  0
VERTEX
  8
0
 10
2095.601315
 20
1680.557724
 42
0.000151
  0
VERTEX
  8
0
 10
1972.386929
 20
1680.767452
 42
0.000242
  0
VERTEX
  8
0
 10
1871.157695
 20
1680.860079
 42
0.001444
  0
VERTEX
  8
0
 10
1818.333016
 20
1680.730293
 42
0.000286
  0
VERTEX
  8
0
 10
1781.833853
 20
1680.514322
 42
0.221411
  0
SEQEND
  0
POLYLINE
  8
0
 66
1
 70
1
  0
VERTEX
  8
0
 10
2261.101672
 20
1679.622508
 42
0.077622
  0
VERTEX
  8
0
 10
2259.001702
 20
1676.101620
 42
0.000498
  0
VERTEX
  8
0
 10
2245.411959
 20
1642.260468
 42
0.000193
  0
VERTEX
  8
0
 10
2231.446642
 20
1607.344618
 42
0.237751
  0
VERTEX
  8
0
 10
2231.573974
 20
1605.880307
 42
0.258792
  0
VERTEX
  8
0
 10
2232.244987
 20
1605.504310
 42
0.000023
  0
VERTEX
  8
0
 10
2291.953752
 20
1605.251697
 42
0.000677
  0
VERTEX
  8
0
 10
2359.300470
 20
1605.061039
 42
0.000369
  0
VERTEX
  8
0
 10
2441.936572
 20
1605.000000
 42
0.000232
  0
VERTEX
  8
0
 10
2550.516437
 20
1605.050337
 42
0.001250
  0
VERTEX
  8
0
 10
2609.543568
 20
1605.252689
 42
0.000195
  0
VERTEX
  8
0
 10
2651.241671
 20
1605.516154
 42
0.225215
  0
VERTEX
  8
0
 10
2652.761834
 20
1606.250000
 42
0.074026
  0
VERTEX
  8
0
 10
2654.692965
 20
1609.544178
 42
0.000404
  0
VERTEX
  8
0
 10
2668.403151
 20
1643.707287
 42
0.000149
  0
VERTEX
  8
0
 10
2682.485107
 20
1678.909263
 42
0.237789
  0
VERTEX
  8
0
 10
2682.372399
 20
1680.206463
 42
0.258909
  0
VERTEX
  8
0
 10
2681.788973
 20
1680.533214
 42
0.000016
  0
VERTEX
  8
0
 10
2620.391835
 20
1680.766899
 42
0.000589
  0
VERTEX
  8
0
 10
2552.551953
 20
1680.942961
 42
0.000354
  0
VERTEX
  8
0
 10
2472.063428
 20
1681.000000
 42
0.000203
  0
VERTEX
  8
0
 10
2356.727564
 20
1680.953144
 42
0.001429
  0
VERTEX
  8
0
 10
2300.572197
 20
1680.746997
 42
0.000326
  0
VERTEX
  8
0
 10
2262.901806
 20
1680.476477
 42
0.221059
  0
SEQEND
  0
POLYLINE
  8
0
 66
1
 70
1
  0
VERTEX
  8
0
 10
789.989081
 20
1593.487404
 42
0.078994
  0
VERTEX
  8
0
 10
788.936072
 20
1591.709789
 42
0.001251
  0
VERTEX
  8
0
 10
784.625437
 20
1580.746755
 42
0.001094
  0
VERTEX
  8
0
 10
780.330317
 20
1569.670865
 42
0.092197
  0
VERTEX
  8
0
 10
780.000000
 20
1567.894727
 42
0.411382
  0
VERTEX
  8
0
 10
780.395100
 20
1567.495784
 42
0.000196
  0
VERTEX
  8
0
 10
800.345424
 20
1567.310514
 42
0.002078
  0
VERTEX
  8
0
 10
823.612176
 20
1567.200273
 42
0.001021
  0
VERTEX
  8
0
 10
853.219498
 20
1567.243510
 42
0.000000
  0
VERTEX
  8
0
 10
926.438995
 20
1567.500000
 42
0.000000
  0
VERTEX
  8
0
 10
931.371337
 20
1580.264828
 42
0.003958
  0
VERTEX
  8
0
 10
933.230058
 20
1585.190799
 42
0.006411
  0
VERTEX
  8
0
 10
934.723398
 20
1589.411391
 42
0.001794
  0
VERTEX
  8
0
 10
935.951932
 20
1593.073581
 42
0.283628
  0
VERTEX
  8
0
 10
935.856345
 20
1593.476989
 42
0.198816
  0
VERTEX
  8
0
 10
934.081953
 20
1594.212353
 42
0.000075
  0
VERTEX
  8
0
 10
862.859062
 20
1594.228167
 42
0.000069
  0
VERTEX
  8
0
 10
791.555359
 20
1594.223390
 42
0.223131
  0
SEQEND
  0
POLYLINE
  8
0
 66
1
 70
1
  0
VERTEX
  8
0
 10
1337.061609
 20
1594.010003
 42
0.000000
  0
VERTEX
  8
0
 10
1265.623217
 20
1593.500000
 42
0.000000
  0
VERTEX
  8
0
 10
1260.825698
 20
1581.000000
 42
0.001783
  0
VERTEX
  8
0
 10
1258.985925
 20
1576.154874
 42
0.002750
  0
VERTEX
  8
0
 10
1257.433312
 20
1571.951562
 42
0.000880
  0
VERTEX
  8
0
 10
1256.115862
 20
1568.303625
 42
0.081688
  0
VERTEX
  8
0
 10
1256.014090
 20
1567.750000
 42
0.416584
  0
VERTEX
  8
0
 10
1256.313246
 20
1567.441892
 42
0.000104
  0
VERTEX
  8
0
 10
1277.437554
 20
1567.220313
 42
0.001607
  0
VERTEX
  8
0
 10
1300.987379
 20
1567.053893
 42
0.000963
  0
VERTEX
  8
0
 10
1328.964816
 20
1567.000000
 42
0.000445
  0
VERTEX
  8
0
 10
1374.055037
 20
1567.040162
 42
0.005474
  0
VERTEX
  8
0
 10
1391.260987
 20
1567.259192
 42
0.006709
  0
VERTEX
  8
0
 10
1401.089231
 20
1567.623930
 42
0.263501
  0
VERTEX
  8
0
 10
1402.862401
 20
1568.750000
 42
0.024968
  0
VERTEX
  8
0
 10
1403.421959
 20
1569.939255
 42
0.001678
  0
VERTEX
  8
0
 10
1404.838287
 20
1573.419442
 42
0.002410
  0
VERTEX
  8
0
 10
1406.493568
 20
1577.583970
 42
0.001802
  0
VERTEX
  8
0
 10
1408.278977
 20
1582.188525
 42
0.004458
  0
VERTEX
  8
0
 10
1410.600522
 20
1588.405584
 42
0.026683
  0
VERTEX
  8
0
 10
1411.605619
 20
1591.711946
 42
0.057085
  0
VERTEX
  8
0
 10
1411.851177
 20
1593.624215
 42
0.314289
  0
VERTEX
  8
0
 10
1411.299605
 20
1594.438525
 42
0.026671
  0
VERTEX
  8
0
 10
1410.690394
 20
1594.635742
 42
0.027519
  0
VERTEX
  8
0
 10
1410.069947
 20
1594.764568
 42
0.028587
  0
VERTEX
  8
0
 10
1409.522971
 20
1594.815331
 42
0.095337
  0
VERTEX
  8
0
 10
1409.168213
 20
1594.760003
 42
-0.083767
  0
VERTEX
  8
0
 10
1408.607676
 20
1594.659351
 42
-0.000031
  0
VERTEX
  8
0
 10
1387.711260
 20
1594.440692
 42
-0.000507
  0
VERTEX
  8
0
 10
1364.500335
 20
1594.222813
 42
-0.000308
  0
SEQEND
  0
POLYLINE
  8
0
 66
1
 70
1
  0
VERTEX
  8
0
 10
2020.962011
 20
1593.977214
 42
0.144234
  0
VERTEX
  8
0
 10
2020.519749
 20
1593.483157
 42
0.005746
  0
VERTEX
  8
0
 10
2019.496530
 20
1591.264690
 42
0.009718
  0
VERTEX
  8
0
 10
2018.354034
 20
1588.571637
 42
0.006680
  0
VERTEX
  8
0
 10
2017.159405
 20
1585.477214
 42
-0.001303
  0
VERTEX
  8
0
 10
2015.874070
 20
1582.038225
 42
-0.001009
  0
VERTEX
  8
0
 10
2014.456864
 20
1578.299226
 42
-0.001020
  0
VERTEX
  8
0
 10
2013.120058
 20
1574.815078
 42
-0.002458
  0
VERTEX
  8
0
 10
2012.112833
 20
1572.243555
 42
0.000000
  0
VERTEX
  8
0
 10
2010.024103
 20
1566.987110
 42
0.000000
  0
VERTEX
  8
0
 10
2083.644558
 20
1567.243555
 42
0.000000
  0
VERTEX
  8
0
 10
2157.265013
 20
1567.500000
 42
0.000000
  0
VERTEX
  8
0
 10
2162.180310
 20
1580.368864
 42
0.002911
  0
VERTEX
  8
0
 10
2164.040939
 20
1585.326627
 42
0.004752
  0
VERTEX
  8
0
 10
2165.554299
 20
1589.554938
 42
0.000993
  0
VERTEX
  8
0
 10
2166.834355
 20
1593.265211
 42
0.286372
  0
VERTEX
  8
0
 10
2166.763898
 20
1593.569435
 42
0.198161
  0
VERTEX
  8
0
 10
2165.756276
 20
1593.988514
 42
0.000024
  0
VERTEX
  8
0
 10
2093.990080
 20
1594.192653
 42
0.000032
  0
VERTEX
  8
0
 10
2022.414766
 20
1594.388282
 42
0.140116
  0
SEQEND
  0
POLYLINE
  8
0
 66
1
 70
1
  0
VERTEX
  8
0
 10
2224.296886
 20
1591.750000
 42
0.069484
  0
VERTEX
  8
0
 10
2223.015012
 20
1589.458919
 42
0.002211
  0
VERTEX
  8
0
 10
2219.184965
 20
1579.494037
 42
0.001809
  0
VERTEX
  8
0
 10
2215.378780
 20
1569.348408
 42
0.089056
  0
VERTEX
  8
0
 10
2215.000000
 20
1567.238640
 42
0.408765
  0
VERTEX
  8
0
 10
2215.705647
 20
1566.519717
 42
0.001258
  0
VERTEX
  8
0
 10
2229.807150
 20
1566.292350
 42
0.003611
  0
VERTEX
  8
0
 10
2250.329195
 20
1566.161352
 42
0.000667
  0
VERTEX
  8
0
 10
2288.136564
 20
1566.243510
 42
0.000000
  0
VERTEX
  8
0
 10
2361.273129
 20
1566.500000
 42
0.000000
  0
VERTEX
  8
0
 10
2365.639113
 20
1578.000000
 42
0.000700
  0
VERTEX
  8
0
 10
2367.352608
 20
1582.532458
 42
0.000946
  0
VERTEX
  8
0
 10
2368.888510
 20
1586.635937
 42
0.000636
  0
VERTEX
  8
0
 10
2370.166840
 20
1590.084440
 42
0.010377
  0
VERTEX
  8
0
 10
2370.569936
 20
1591.250000
 42
0.492273
  0
VERTEX
  8
0
 10
2369.789050
 20
1592.384870
 42
0.007261
  0
VERTEX
  8
0
 10
2360.462758
 20
1592.745938
 42
0.005625
  0
VERTEX
  8
0
 10
2343.758127
 20
1592.961841
 42
0.000419
  0
VERTEX
  8
0
 10
2298.189832
 20
1593.000000
 42
0.000700
  0
VERTEX
  8
0
 10
2260.908600
 20
1592.947807
 42
0.003529
  0
VERTEX
  8
0
 10
2240.078165
 20
1592.742467
 42
0.001423
  0
VERTEX
  8
0
 10
2225.682800
 20
1592.457965
 42
0.228700
  0
SEQEND
  0
POLYLINE
  8
0
 66
1
 70
1
  0
VERTEX
  8
0
 10
2496.431441
 20
1583.250000
 42
-0.000530
  0
VERTEX
  8
0
 10
2494.906494
 20
1579.269925
 42
-0.000564
  0
VERTEX
  8
0
 10
2493.403815
 20
1575.373501
 42
-0.000536
  0
VERTEX
  8
0
 10
2492.103040
 20
1572.022578
 42
-0.002606
  0
VERTEX
  8
0
 10
2491.353814
 20
1570.127876
 42
0.003605
  0
VERTEX
  8
0
 10
2490.835102
 20
1568.808416
 42
0.005225
  0
VERTEX
  8
0
 10
2490.397683
 20
1567.635312
 42
0.002779
  0
VERTEX
  8
0
 10
2490.044156
 20
1566.638752
 42
0.084032
  0
VERTEX
  8
0
 10
2490.000000
 20
1566.377876
 42
0.412675
  0
VERTEX
  8
0
 10
2490.154736
 20
1566.222324
 42
0.000026
  0
VERTEX
  8
0
 10
2511.549858
 20
1566.111001
 42
0.000805
  0
VERTEX
  8
0
 10
2535.230799
 20
1566.027154
 42
0.000483
  0
VERTEX
  8
0
 10
2563.361217
 20
1566.000000
 42
0.000000
  0
VERTEX
  8
0
 10
2636.722435
 20
1566.000000
 42
0.000000
  0
VERTEX
  8
0
 10
2638.950820
 20
1571.750000
 42
0.001307
  0
VERTEX
  8
0
 10
2640.008707
 20
1574.501032
 42
0.000602
  0
VERTEX
  8
0
 10
2641.372157
 20
1578.087500
 42
0.000596
  0
VERTEX
  8
0
 10
2642.796985
 20
1581.862640
 42
0.000827
  0
VERTEX
  8
0
 10
2644.064449
 20
1585.250000
 42
0.000000
  0
VERTEX
  8
0
 10
2646.949694
 20
1593.000000
 42
0.000000
  0
VERTEX
  8
0
 10
2573.552474
 20
1593.000000
 42
0.000000
  0
VERTEX
  8
0
 10
2500.155255
 20
1593.000000
 42
0.000000
  0
SEQEND
  0
POLYLINE
  8
0
 66
1
 70
1
  0
VERTEX
  8
0
 10
775.355161
 20
1555.234687
 42
0.152725
  0
VERTEX
  8
0
 10
774.338376
 20
1554.020493
 42
0.000152
  0
VERTEX
  8
0
 10
760.543433
 20
1520.813447
 42
0.000718
  0
VERTEX
  8
0
 10
747.730568
 20
1489.818380
 42
0.027742
  0
VERTEX
  8
0
 10
745.269232
 20
1482.750000
 42
0.495002
  0
VERTEX
  8
0
 10
746.166678
 20
1481.543793
 42
0.000884
  0
VERTEX
  8
0
 10
775.161688
 20
1481.251478
 42
0.001937
  0
VERTEX
  8
0
 10
823.344797
 20
1481.037544
 42
0.000142
  0
VERTEX
  8
0
 10
955.778420
 20
1481.000000
 42
0.000000
  0
VERTEX
  8
0
 10
1166.790103
 20
1481.000000
 42
0.000000
  0
VERTEX
  8
0
 10
1170.320800
 20
1489.750000
 42
-0.000415
  0
VERTEX
  8
0
 10
1172.357742
 20
1494.786019
 42
-0.000074
  0
VERTEX
  8
0
 10
1176.181163
 20
1504.212296
 42
-0.000080
  0
VERTEX
  8
0
 10
1180.666016
 20
1515.259535
 42
-0.000072
  0
VERTEX
  8
0
 10
1185.312969
 20
1526.696113
 42
0.002221
  0
VERTEX
  8
0
 10
1189.667583
 20
1537.546702
 42
0.003647
  0
VERTEX
  8
0
 10
1193.244929
 20
1546.772323
 42
0.000581
  0
VERTEX
  8
0
 10
1196.330893
 20
1554.934838
 42
0.294521
  0
VERTEX
  8
0
 10
1196.220553
 20
1555.446113
 42
0.199036
  0
VERTEX
  8
0
 10
1194.702810
 20
1556.074359
 42
0.000006
  0
VERTEX
  8
0
 10
985.964727
 20
1555.972177
 42
0.000008
  0
VERTEX
  8
0
 10
777.498679
 20
1555.863944
 42
0.143475
  0
SEQEND
  0
POLYLINE
  8
0
 66
1
 70
1
  0
VERTEX
  8
0
 10
1250.596795
 20
1553.750000
 42
0.045001
  0
VERTEX
  8
0
 10
1249.007114
 20
1550.713601
 42
0.000227
  0
VERTEX
  8
0
 10
1235.920516
 20
1519.048921
 42
0.000397
  0
VERTEX
  8
0
 10
1223.259945
 20
1488.306309
 42
0.024676
  0
VERTEX
  8
0
 10
1221.291210
 20
1482.750000
 42
0.485734
  0
VERTEX
  8
0
 10
1222.089792
 20
1481.615059
 42
0.007255
  0
VERTEX
  8
0
 10
1231.388138
 20
1481.254221
 42
0.005648
  0
VERTEX
  8
0
 10
1248.025543
 20
1481.038218
 42
0.000422
  0
VERTEX
  8
0
 10
1293.357688
 20
1481.000000
 42
0.000000
  0
VERTEX
  8
0
 10
1365.948640
 20
1481.000000
 42
0.000000
  0
VERTEX
  8
0
 10
1367.356801
 20
1483.750000
 42
0.022316
  0
VERTEX
  8
0
 10
1370.007944
 20
1489.551747
 42
0.000419
  0
VERTEX
  8
0
 10
1382.489579
 20
1520.517199
 42
0.000106
  0
VERTEX
  8
0
 10
1395.685026
 20
1553.352989
 42
0.095765
  0
VERTEX
  8
0
 10
1396.000000
 20
1554.982413
 42
0.409607
  0
VERTEX
  8
0
 10
1395.504452
 20
1555.485830
 42
0.000404
  0
VERTEX
  8
0
 10
1378.066755
 20
1555.746466
 42
0.002632
  0
VERTEX
  8
0
 10
1355.996631
 20
1555.942299
 42
0.000902
  0
VERTEX
  8
0
 10
1324.023053
 20
1556.000000
 42
0.000000
  0
VERTEX
  8
0
 10
1252.046106
 20
1556.000000
 42
0.000000
  0
SEQEND
  0
POLYLINE
  8
0
 66
1
 70
1
  0
VERTEX
  8
0
 10
1728.641060
 20
1553.250000
 42
0.022432
  0
VERTEX
  8
0
 10
1725.960225
 20
1547.389242
 42
0.000432
  0
VERTEX
  8
0
 10
1713.498733
 20
1516.485143
 42
0.000110
  0
VERTEX
  8
0
 10
1700.320347
 20
1483.700712
 42
0.095787
  0
VERTEX
  8
0
 10
1700.000000
 20
1482.043872
 42
0.412529
  0
VERTEX
  8
0
 10
1700.534672
 20
1481.506114
 42
0.000069
  0
VERTEX
  8
0
 10
1745.898731
 20
1481.251369
 42
0.001047
  0
VERTEX
  8
0
 10
1803.609085
 20
1481.056116
 42
0.000323
  0
VERTEX
  8
0
 10
1890.605655
 20
1481.000000
 42
0.000249
  0
VERTEX
  8
0
 10
2036.003332
 20
1481.072270
 42
0.008577
  0
VERTEX
  8
0
 10
2070.271571
 20
1481.694229
 42
0.038777
  0
VERTEX
  8
0
 10
2088.177982
 20
1483.722981
 42
0.065371
  0
VERTEX
  8
0
 10
2102.500000
 20
1488.483265
 42
0.049473
  0
VERTEX
  8
0
 10
2116.119835
 20
1496.839480
 42
0.054620
  0
VERTEX
  8
0
 10
2127.340631
 20
1507.468223
 42
0.049691
  0
VERTEX
  8
0
 10
2136.784146
 20
1521.152287
 42
0.031333
  0
VERTEX
  8
0
 10
2145.096430
 20
1538.712304
 42
0.000094
  0
VERTEX
  8
0
 10
2146.423551
 20
1542.041949
 42
0.000077
  0
VERTEX
  8
0
 10
2147.843355
 20
1545.607677
 42
0.000078
  0
VERTEX
  8
0
 10
2149.149678
 20
1548.891351
 42
0.000203
  0
VERTEX
  8
0
 10
2150.086472
 20
1551.250000
 42
0.000000
  0
VERTEX
  8
0
 10
2151.970816
 20
1556.000000
 42
0.000000
  0
VERTEX
  8
0
 10
1941.011088
 20
1556.000000
 42
0.000000
  0
VERTEX
  8
0
 10
1730.051360
 20
1556.000000
 42
0.000000
  0
SEQEND
  0
POLYLINE
  8
0
 66
1
 70
1
  0
VERTEX
  8
0
 10
2210.229161
 20
1555.162791
 42
0.154555
  0
VERTEX
  8
0
 10
2209.013249
 20
1553.715038
 42
0.000201
  0
VERTEX
  8
0
 10
2194.684340
 20
1519.003597
 42
0.000303
  0
VERTEX
  8
0
 10
2180.561429
 20
1484.693232
 42
0.097780
  0
VERTEX
  8
0
 10
2180.000000
 20
1481.849799
 42
0.411606
  0
VERTEX
  8
0
 10
2180.352525
 20
1481.494119
 42
0.000143
  0
VERTEX
  8
0
 10
2201.238250
 20
1481.313966
 42
0.001869
  0
VERTEX
  8
0
 10
2224.669879
 20
1481.206127
 42
0.001098
  0
VERTEX
  8
0
 10
2252.696521
 20
1481.243468
 42
0.000000
  0
VERTEX
  8
0
 10
2325.393043
 20
1481.500000
 42
0.000000
  0
VERTEX
  8
0
 10
2340.147171
 20
1517.925342
 42
0.001863
  0
VERTEX
  8
0
 10
2345.767160
 20
1531.950060
 42
0.003039
  0
VERTEX
  8
0
 10
2350.417560
 20
1543.892983
 42
0.000461
  0
VERTEX
  8
0
 10
2354.457334
 20
1554.486470
 42
0.233346
  0
VERTEX
  8
0
 10
2354.391633
 20
1555.175342
 42
0.259877
  0
VERTEX
  8
0
 10
2352.976790
 20
1555.964362
 42
0.000074
  0
VERTEX
  8
0
 10
2282.693303
 20
1555.968655
 42
0.000117
  0
VERTEX
  8
0
 10
2212.922613
 20
1555.946194
 42
0.142191
  0
SEQEND
  0
POLYLINE
  8
0
 66
1
 70
1
  0
VERTEX
  8
0
 10
2486.246126
 20
1555.173276
 42
0.154485
  0
VERTEX
  8
0
 10
2485.042454
 20
1553.740030
 42
0.000197
  0
VERTEX
  8
0
 10
2470.697336
 20
1519.001575
 42
0.000296
  0
VERTEX
  8
0
 10
2456.555687
 20
1484.660034
 42
0.097820
  0
VERTEX
  8
0
 10
2456.000000
 20
1481.846868
 42
0.411622
  0
VERTEX
  8
0
 10
2456.349737
 20
1481.494020
 42
0.000139
  0
VERTEX
  8
0
 10
2477.313058
 20
1481.314208
 42
0.001854
  0
VERTEX
  8
0
 10
2500.769740
 20
1481.206518
 42
0.001103
  0
VERTEX
  8
0
 10
2528.707796
 20
1481.243468
 42
0.000000
  0
VERTEX
  8
0
 10
2601.415592
 20
1481.500000
 42
0.000000
  0
VERTEX
  8
0
 10
2616.168120
 20
1517.909688
 42
0.001899
  0
VERTEX
  8
0
 10
2621.786783
 20
1531.929496
 42
0.003097
  0
VERTEX
  8
0
 10
2626.434537
 20
1543.870872
 42
0.000479
  0
VERTEX
  8
0
 10
2630.468331
 20
1554.458193
 42
0.233257
  0
VERTEX
  8
0
 10
2630.401307
 20
1555.159688
 42
0.259828
  0
VERTEX
  8
0
 10
2628.981770
 20
1555.951497
 42
0.000075
  0
VERTEX
  8
0
 10
2558.707436
 20
1555.968602
 42
0.000118
  0
VERTEX
  8
0
 10
2488.946592
 20
1555.958693
 42
0.142278
  0
SEQEND
  0
ENDSEC
  0
EOF
