solid CATIA STL
  facet normal  0.000000e+000  0.000000e+000  1.000000e+000
    outer loop
      vertex  3.000000e-001 -7.105427e-015  5.750000e+000
      vertex  4.543000e+001  0.000000e+000  5.750000e+000
      vertex  3.000000e-001  5.120000e+001  5.750000e+000
    endloop
  endfacet
  facet normal  -0.000000e+000  0.000000e+000  1.000000e+000
    outer loop
      vertex  3.000000e-001  5.120000e+001  5.750000e+000
      vertex  4.543000e+001  0.000000e+000  5.750000e+000
      vertex  4.543000e+001  5.120000e+001  5.750000e+000
    endloop
  endfacet
  facet normal  0.000000e+000 -1.000000e+000  -0.000000e+000
    outer loop
      vertex  4.427000e+001  4.982000e+001  0.000000e+000
      vertex  4.427000e+001  4.982000e+001  4.000000e+000
      vertex  1.760000e+000  4.982000e+001  0.000000e+000
    endloop
  endfacet
  facet normal  0.000000e+000 -1.000000e+000  0.000000e+000
    outer loop
      vertex  1.760000e+000  4.982000e+001  0.000000e+000
      vertex  4.427000e+001  4.982000e+001  4.000000e+000
      vertex  1.760000e+000  4.982000e+001  4.000000e+000
    endloop
  endfacet
  facet normal  0.000000e+000  0.000000e+000 -1.000000e+000
    outer loop
      vertex  1.760000e+000  0.000000e+000  4.000000e+000
      vertex  1.760000e+000  4.982000e+001  4.000000e+000
      vertex  4.427000e+001  1.998401e-015  4.000000e+000
    endloop
  endfacet
  facet normal  0.000000e+000  0.000000e+000 -1.000000e+000
    outer loop
      vertex  4.427000e+001  1.998401e-015  4.000000e+000
      vertex  1.760000e+000  4.982000e+001  4.000000e+000
      vertex  4.427000e+001  4.982000e+001  4.000000e+000
    endloop
  endfacet
  facet normal  1.000000e+000  0.000000e+000  0.000000e+000
    outer loop
      vertex  1.760000e+000  0.000000e+000  0.000000e+000
      vertex  1.760000e+000  4.982000e+001  0.000000e+000
      vertex  1.760000e+000  0.000000e+000  4.000000e+000
    endloop
  endfacet
  facet normal  1.000000e+000  -0.000000e+000  0.000000e+000
    outer loop
      vertex  1.760000e+000  0.000000e+000  4.000000e+000
      vertex  1.760000e+000  4.982000e+001  0.000000e+000
      vertex  1.760000e+000  4.982000e+001  4.000000e+000
    endloop
  endfacet
  facet normal  1.574435e-016 -1.000000e+000  7.915079e-016
    outer loop
      vertex  4.543000e+001  0.000000e+000  5.750000e+000
      vertex  3.000000e-001 -7.105427e-015  5.750000e+000
      vertex  4.554480e+001  0.000000e+000  5.727164e+000
    endloop
  endfacet
  facet normal  1.566466e-016 -1.000000e+000 -7.875014e-016
    outer loop
      vertex  4.554480e+001  0.000000e+000  5.727164e+000
      vertex  3.000000e-001 -7.105427e-015  5.750000e+000
      vertex  1.851950e-001 -7.105427e-015  5.727164e+000
    endloop
  endfacet
  facet normal  1.566466e-016 -9.999999e-001  2.344421e-016
    outer loop
      vertex  4.554480e+001  0.000000e+000  5.727164e+000
      vertex  1.851950e-001 -7.105427e-015  5.727164e+000
      vertex  4.564213e+001  0.000000e+000  5.662132e+000
    endloop
  endfacet
  facet normal  1.559772e-016 -1.000000e+000 -2.334403e-016
    outer loop
      vertex  4.564213e+001  0.000000e+000  5.662132e+000
      vertex  1.851950e-001 -7.105427e-015  5.727164e+000
      vertex  8.786797e-002 -7.105427e-015  5.662132e+000
    endloop
  endfacet
  facet normal  1.559772e-016 -1.000000e+000  1.042222e-016
    outer loop
      vertex  4.564213e+001  0.000000e+000  5.662132e+000
      vertex  8.786797e-002 -7.105427e-015  5.662132e+000
      vertex  4.570716e+001  0.000000e+000  5.564805e+000
    endloop
  endfacet
  facet normal  1.555331e-016 -1.000000e+000 -1.039255e-016
    outer loop
      vertex  4.570716e+001  0.000000e+000  5.564805e+000
      vertex  8.786797e-002 -7.105427e-015  5.662132e+000
      vertex  2.283614e-002 -7.105427e-015  5.564805e+000
    endloop
  endfacet
  facet normal  1.555331e-016 -1.000000e+000  3.093557e-017
    outer loop
      vertex  4.570716e+001  0.000000e+000  5.564805e+000
      vertex  2.283614e-002 -7.105427e-015  5.564805e+000
      vertex  4.573000e+001  0.000000e+000  5.450000e+000
    endloop
  endfacet
  facet normal  -0.000000e+000 -1.000000e+000 -6.189115e-014
    outer loop
      vertex  4.573000e+001  0.000000e+000  5.450000e+000
      vertex  2.283614e-002 -7.105427e-015  5.564805e+000
      vertex  0.000000e+000  0.000000e+000  5.450000e+000
    endloop
  endfacet
  facet normal  0.000000e+000 -1.000000e+000 -1.378208e-015
    outer loop
      vertex  4.573000e+001  0.000000e+000  5.450000e+000
      vertex  0.000000e+000  0.000000e+000  5.450000e+000
      vertex  4.427000e+001  1.998401e-015  4.000000e+000
    endloop
  endfacet
  facet normal  4.701014e-017 -9.999999e-001  5.706054e-017
    outer loop
      vertex  4.427000e+001  1.998401e-015  4.000000e+000
      vertex  0.000000e+000  0.000000e+000  5.450000e+000
      vertex  1.760000e+000  0.000000e+000  4.000000e+000
    endloop
  endfacet
  facet normal  0.000000e+000 -1.000000e+000  0.000000e+000
    outer loop
      vertex  0.000000e+000  0.000000e+000  0.000000e+000
      vertex  1.760000e+000  0.000000e+000  0.000000e+000
      vertex  0.000000e+000  0.000000e+000  5.450000e+000
    endloop
  endfacet
  facet normal  0.000000e+000 -1.000000e+000  0.000000e+000
    outer loop
      vertex  0.000000e+000  0.000000e+000  5.450000e+000
      vertex  1.760000e+000  0.000000e+000  0.000000e+000
      vertex  1.760000e+000  0.000000e+000  4.000000e+000
    endloop
  endfacet
  facet normal  0.000000e+000 -1.000000e+000  4.996004e-016
    outer loop
      vertex  4.427000e+001  0.000000e+000  0.000000e+000
      vertex  4.573000e+001  0.000000e+000  0.000000e+000
      vertex  4.427000e+001  1.998401e-015  4.000000e+000
    endloop
  endfacet
  facet normal -1.368769e-015 -1.000000e+000  0.000000e+000
    outer loop
      vertex  4.427000e+001  1.998401e-015  4.000000e+000
      vertex  4.573000e+001  0.000000e+000  0.000000e+000
      vertex  4.573000e+001  0.000000e+000  5.450000e+000
    endloop
  endfacet
  facet normal -1.000000e+000  -0.000000e+000  0.000000e+000
    outer loop
      vertex  4.427000e+001  1.998401e-015  4.000000e+000
      vertex  4.427000e+001  4.982000e+001  4.000000e+000
      vertex  4.427000e+001  0.000000e+000  0.000000e+000
    endloop
  endfacet
  facet normal -1.000000e+000  0.000000e+000  0.000000e+000
    outer loop
      vertex  4.427000e+001  0.000000e+000  0.000000e+000
      vertex  4.427000e+001  4.982000e+001  4.000000e+000
      vertex  4.427000e+001  4.982000e+001  0.000000e+000
    endloop
  endfacet
  facet normal  5.555638e-001  0.000000e+000  8.314738e-001
    outer loop
      vertex  4.564213e+001  0.000000e+000  5.662132e+000
      vertex  4.564213e+001  5.120000e+001  5.662132e+000
      vertex  4.554480e+001  0.000000e+000  5.727164e+000
    endloop
  endfacet
  facet normal  5.555638e-001  -0.000000e+000  8.314738e-001
    outer loop
      vertex  4.554480e+001  0.000000e+000  5.727164e+000
      vertex  4.564213e+001  5.120000e+001  5.662132e+000
      vertex  4.554480e+001  5.120000e+001  5.727164e+000
    endloop
  endfacet
  facet normal  1.950937e-001  0.000000e+000  9.807846e-001
    outer loop
      vertex  4.554480e+001  0.000000e+000  5.727164e+000
      vertex  4.554480e+001  5.120000e+001  5.727164e+000
      vertex  4.543000e+001  0.000000e+000  5.750000e+000
    endloop
  endfacet
  facet normal  1.950937e-001  -0.000000e+000  9.807846e-001
    outer loop
      vertex  4.543000e+001  0.000000e+000  5.750000e+000
      vertex  4.554480e+001  5.120000e+001  5.727164e+000
      vertex  4.543000e+001  5.120000e+001  5.750000e+000
    endloop
  endfacet
  facet normal  9.807875e-001  0.000000e+000  1.950788e-001
    outer loop
      vertex  4.573000e+001  0.000000e+000  5.450000e+000
      vertex  4.573000e+001  5.120000e+001  5.450000e+000
      vertex  4.570716e+001  0.000000e+000  5.564805e+000
    endloop
  endfacet
  facet normal  9.807875e-001  -0.000000e+000  1.950788e-001
    outer loop
      vertex  4.570716e+001  0.000000e+000  5.564805e+000
      vertex  4.573000e+001  5.120000e+001  5.450000e+000
      vertex  4.570716e+001  5.120000e+001  5.564805e+000
    endloop
  endfacet
  facet normal  8.314657e-001  0.000000e+000  5.555760e-001
    outer loop
      vertex  4.570716e+001  0.000000e+000  5.564805e+000
      vertex  4.570716e+001  5.120000e+001  5.564805e+000
      vertex  4.564213e+001  0.000000e+000  5.662132e+000
    endloop
  endfacet
  facet normal  8.314657e-001  -0.000000e+000  5.555760e-001
    outer loop
      vertex  4.564213e+001  0.000000e+000  5.662132e+000
      vertex  4.570716e+001  5.120000e+001  5.564805e+000
      vertex  4.564213e+001  5.120000e+001  5.662132e+000
    endloop
  endfacet
  facet normal  -0.000000e+000  5.555638e-001  8.314739e-001
    outer loop
      vertex  4.543000e+001  5.141213e+001  5.662132e+000
      vertex  3.000000e-001  5.141213e+001  5.662132e+000
      vertex  4.543000e+001  5.131480e+001  5.727164e+000
    endloop
  endfacet
  facet normal  0.000000e+000  5.555638e-001  8.314739e-001
    outer loop
      vertex  4.543000e+001  5.131480e+001  5.727164e+000
      vertex  3.000000e-001  5.141213e+001  5.662132e+000
      vertex  3.000000e-001  5.131480e+001  5.727164e+000
    endloop
  endfacet
  facet normal  -0.000000e+000  1.950937e-001  9.807847e-001
    outer loop
      vertex  4.543000e+001  5.131480e+001  5.727164e+000
      vertex  3.000000e-001  5.131480e+001  5.727164e+000
      vertex  4.543000e+001  5.120000e+001  5.750000e+000
    endloop
  endfacet
  facet normal  0.000000e+000  1.950937e-001  9.807847e-001
    outer loop
      vertex  4.543000e+001  5.120000e+001  5.750000e+000
      vertex  3.000000e-001  5.131480e+001  5.727164e+000
      vertex  3.000000e-001  5.120000e+001  5.750000e+000
    endloop
  endfacet
  facet normal  -0.000000e+000  9.807876e-001  1.950788e-001
    outer loop
      vertex  4.543000e+001  5.150000e+001  5.450000e+000
      vertex  3.000000e-001  5.150000e+001  5.450000e+000
      vertex  4.543000e+001  5.147717e+001  5.564805e+000
    endloop
  endfacet
  facet normal  0.000000e+000  9.807876e-001  1.950788e-001
    outer loop
      vertex  4.543000e+001  5.147717e+001  5.564805e+000
      vertex  3.000000e-001  5.150000e+001  5.450000e+000
      vertex  3.000000e-001  5.147717e+001  5.564805e+000
    endloop
  endfacet
  facet normal  -0.000000e+000  8.314658e-001  5.555760e-001
    outer loop
      vertex  4.543000e+001  5.147717e+001  5.564805e+000
      vertex  3.000000e-001  5.147717e+001  5.564805e+000
      vertex  4.543000e+001  5.141213e+001  5.662132e+000
    endloop
  endfacet
  facet normal  0.000000e+000  8.314658e-001  5.555760e-001
    outer loop
      vertex  4.543000e+001  5.141213e+001  5.662132e+000
      vertex  3.000000e-001  5.147717e+001  5.564805e+000
      vertex  3.000000e-001  5.141213e+001  5.662132e+000
    endloop
  endfacet
  facet normal -5.555685e-001  0.000000e+000  8.314707e-001
    outer loop
      vertex  8.786797e-002  5.120000e+001  5.662132e+000
      vertex  8.786797e-002 -7.105427e-015  5.662132e+000
      vertex  1.851950e-001  5.120000e+001  5.727164e+000
    endloop
  endfacet
  facet normal -5.555685e-001  0.000000e+000  8.314707e-001
    outer loop
      vertex  1.851950e-001  5.120000e+001  5.727164e+000
      vertex  8.786797e-002 -7.105427e-015  5.662132e+000
      vertex  1.851950e-001 -7.105427e-015  5.727164e+000
    endloop
  endfacet
  facet normal -1.950909e-001  0.000000e+000  9.807852e-001
    outer loop
      vertex  1.851950e-001  5.120000e+001  5.727164e+000
      vertex  1.851950e-001 -7.105427e-015  5.727164e+000
      vertex  3.000000e-001  5.120000e+001  5.750000e+000
    endloop
  endfacet
  facet normal -1.950909e-001  0.000000e+000  9.807852e-001
    outer loop
      vertex  3.000000e-001  5.120000e+001  5.750000e+000
      vertex  1.851950e-001 -7.105427e-015  5.727164e+000
      vertex  3.000000e-001 -7.105427e-015  5.750000e+000
    endloop
  endfacet
  facet normal -9.807853e-001 -3.828130e-017  1.950900e-001
    outer loop
      vertex -1.998401e-015  5.120000e+001  5.450000e+000
      vertex  0.000000e+000  0.000000e+000  5.450000e+000
      vertex  2.283614e-002  5.120000e+001  5.564805e+000
    endloop
  endfacet
  facet normal -9.807853e-001  0.000000e+000  1.950900e-001
    outer loop
      vertex  2.283614e-002  5.120000e+001  5.564805e+000
      vertex  0.000000e+000  0.000000e+000  5.450000e+000
      vertex  2.283614e-002 -7.105427e-015  5.564805e+000
    endloop
  endfacet
  facet normal -8.314702e-001  0.000000e+000  5.555694e-001
    outer loop
      vertex  2.283614e-002  5.120000e+001  5.564805e+000
      vertex  2.283614e-002 -7.105427e-015  5.564805e+000
      vertex  8.786797e-002  5.120000e+001  5.662132e+000
    endloop
  endfacet
  facet normal -8.314702e-001  0.000000e+000  5.555694e-001
    outer loop
      vertex  8.786797e-002  5.120000e+001  5.662132e+000
      vertex  2.283614e-002 -7.105427e-015  5.564805e+000
      vertex  8.786797e-002 -7.105427e-015  5.662132e+000
    endloop
  endfacet
  facet normal  1.000000e+000  0.000000e+000  0.000000e+000
    outer loop
      vertex  4.573000e+001  0.000000e+000  0.000000e+000
      vertex  4.573000e+001  5.120000e+001  0.000000e+000
      vertex  4.573000e+001  0.000000e+000  5.450000e+000
    endloop
  endfacet
  facet normal  1.000000e+000  -0.000000e+000  0.000000e+000
    outer loop
      vertex  4.573000e+001  0.000000e+000  5.450000e+000
      vertex  4.573000e+001  5.120000e+001  0.000000e+000
      vertex  4.573000e+001  5.120000e+001  5.450000e+000
    endloop
  endfacet
  facet normal  1.914836e-001  1.914836e-001  9.626360e-001
    outer loop
      vertex  4.543000e+001  5.120000e+001  5.750000e+000
      vertex  4.554480e+001  5.120000e+001  5.727164e+000
      vertex  4.543000e+001  5.131480e+001  5.727164e+000
    endloop
  endfacet
  facet normal  1.162082e-001  1.162082e-001  9.864032e-001
    outer loop
      vertex  4.543000e+001  5.131480e+001  5.727164e+000
      vertex  4.554480e+001  5.120000e+001  5.727164e+000
      vertex  4.552850e+001  5.129099e+001  5.718366e+000
    endloop
  endfacet
  facet normal  2.042217e-001  5.438551e-001  8.139502e-001
    outer loop
      vertex  4.543000e+001  5.131480e+001  5.727164e+000
      vertex  4.552850e+001  5.129099e+001  5.718366e+000
      vertex  4.543000e+001  5.141213e+001  5.662132e+000
    endloop
  endfacet
  facet normal  1.910918e-001  5.368128e-001  8.217762e-001
    outer loop
      vertex  4.543000e+001  5.141213e+001  5.662132e+000
      vertex  4.552850e+001  5.129099e+001  5.718366e+000
      vertex  4.554480e+001  5.139598e+001  5.645985e+000
    endloop
  endfacet
  facet normal  5.420067e-001  4.182765e-001  7.288852e-001
    outer loop
      vertex  4.554480e+001  5.139598e+001  5.645985e+000
      vertex  4.552850e+001  5.129099e+001  5.718366e+000
      vertex  4.564213e+001  5.135000e+001  5.600000e+000
    endloop
  endfacet
  facet normal  5.420017e-001  4.182844e-001  7.288843e-001
    outer loop
      vertex  4.564213e+001  5.135000e+001  5.600000e+000
      vertex  4.552850e+001  5.129099e+001  5.718366e+000
      vertex  4.562565e+001  5.124389e+001  5.673147e+000
    endloop
  endfacet
  facet normal  8.136736e-001  2.389499e-001  5.299417e-001
    outer loop
      vertex  4.564213e+001  5.135000e+001  5.600000e+000
      vertex  4.562565e+001  5.124389e+001  5.673147e+000
      vertex  4.570716e+001  5.128118e+001  5.531179e+000
    endloop
  endfacet
  facet normal  8.202552e-001  2.189001e-001  5.284545e-001
    outer loop
      vertex  4.570716e+001  5.128118e+001  5.531179e+000
      vertex  4.562565e+001  5.124389e+001  5.673147e+000
      vertex  4.570716e+001  5.120000e+001  5.564805e+000
    endloop
  endfacet
  facet normal  9.776010e-001  8.054436e-002  1.944450e-001
    outer loop
      vertex  4.570716e+001  5.128118e+001  5.531179e+000
      vertex  4.570716e+001  5.120000e+001  5.564805e+000
      vertex  4.573000e+001  5.120000e+001  5.450000e+000
    endloop
  endfacet
  facet normal  4.822116e-001  1.695384e-001  8.594933e-001
    outer loop
      vertex  4.552850e+001  5.129099e+001  5.718366e+000
      vertex  4.554480e+001  5.120000e+001  5.727164e+000
      vertex  4.562565e+001  5.124389e+001  5.673147e+000
    endloop
  endfacet
  facet normal  5.555638e-001 -7.346318e-005  8.314738e-001
    outer loop
      vertex  4.562565e+001  5.124389e+001  5.673147e+000
      vertex  4.554480e+001  5.120000e+001  5.727164e+000
      vertex  4.564213e+001  5.120000e+001  5.662132e+000
    endloop
  endfacet
  facet normal  8.193275e-001  1.702467e-001  5.474654e-001
    outer loop
      vertex  4.562565e+001  5.124389e+001  5.673147e+000
      vertex  4.564213e+001  5.120000e+001  5.662132e+000
      vertex  4.570716e+001  5.120000e+001  5.564805e+000
    endloop
  endfacet
  facet normal  8.193275e-001  5.474600e-001  1.702645e-001
    outer loop
      vertex  4.564213e+001  5.141213e+001  5.450000e+000
      vertex  4.562565e+001  5.142315e+001  5.493890e+000
      vertex  4.570716e+001  5.131480e+001  5.450000e+000
    endloop
  endfacet
  facet normal  8.202548e-001  5.284554e-001  2.188990e-001
    outer loop
      vertex  4.562565e+001  5.142315e+001  5.493890e+000
      vertex  4.570716e+001  5.128118e+001  5.531179e+000
      vertex  4.570716e+001  5.131480e+001  5.450000e+000
    endloop
  endfacet
  facet normal  8.136737e-001  5.299427e-001  2.389470e-001
    outer loop
      vertex  4.570716e+001  5.128118e+001  5.531179e+000
      vertex  4.562565e+001  5.142315e+001  5.493890e+000
      vertex  4.564213e+001  5.135000e+001  5.600000e+000
    endloop
  endfacet
  facet normal  9.776003e-001  1.944481e-001  8.054510e-002
    outer loop
      vertex  4.573000e+001  5.120000e+001  5.450000e+000
      vertex  4.570716e+001  5.131480e+001  5.450000e+000
      vertex  4.570716e+001  5.128118e+001  5.531179e+000
    endloop
  endfacet
  facet normal  1.934582e-001  9.726238e-001  1.287519e-001
    outer loop
      vertex  4.554480e+001  5.147717e+001  5.450000e+000
      vertex  4.543000e+001  5.150000e+001  5.450000e+000
      vertex  4.552850e+001  5.146836e+001  5.540985e+000
    endloop
  endfacet
  facet normal  1.336025e-001  9.719948e-001  1.933299e-001
    outer loop
      vertex  4.552850e+001  5.146836e+001  5.540985e+000
      vertex  4.543000e+001  5.150000e+001  5.450000e+000
      vertex  4.543000e+001  5.147717e+001  5.564805e+000
    endloop
  endfacet
  facet normal  2.025379e-001  8.206896e-001  5.342724e-001
    outer loop
      vertex  4.552850e+001  5.146836e+001  5.540985e+000
      vertex  4.543000e+001  5.147717e+001  5.564805e+000
      vertex  4.554480e+001  5.139598e+001  5.645985e+000
    endloop
  endfacet
  facet normal  1.914838e-001  8.160802e-001  5.452955e-001
    outer loop
      vertex  4.554480e+001  5.139598e+001  5.645985e+000
      vertex  4.543000e+001  5.147717e+001  5.564805e+000
      vertex  4.543000e+001  5.141213e+001  5.662132e+000
    endloop
  endfacet
  facet normal  5.420088e-001  7.288890e-001  4.182671e-001
    outer loop
      vertex  4.554480e+001  5.139598e+001  5.645985e+000
      vertex  4.564213e+001  5.135000e+001  5.600000e+000
      vertex  4.552850e+001  5.146836e+001  5.540985e+000
    endloop
  endfacet
  facet normal  5.419994e-001  7.288875e-001  4.182818e-001
    outer loop
      vertex  4.552850e+001  5.146836e+001  5.540985e+000
      vertex  4.564213e+001  5.135000e+001  5.600000e+000
      vertex  4.562565e+001  5.142315e+001  5.493890e+000
    endloop
  endfacet
  facet normal  4.822213e-001  8.594825e-001  1.695652e-001
    outer loop
      vertex  4.552850e+001  5.146836e+001  5.540985e+000
      vertex  4.562565e+001  5.142315e+001  5.493890e+000
      vertex  4.554480e+001  5.147717e+001  5.450000e+000
    endloop
  endfacet
  facet normal  5.555723e-001  8.314683e-001 -3.273741e-005
    outer loop
      vertex  4.554480e+001  5.147717e+001  5.450000e+000
      vertex  4.562565e+001  5.142315e+001  5.493890e+000
      vertex  4.564213e+001  5.141213e+001  5.450000e+000
    endloop
  endfacet
  facet normal  8.314683e-001  5.555723e-001  0.000000e+000
    outer loop
      vertex  4.564213e+001  5.141213e+001  0.000000e+000
      vertex  4.564213e+001  5.141213e+001  5.450000e+000
      vertex  4.570716e+001  5.131480e+001  0.000000e+000
    endloop
  endfacet
  facet normal  8.314683e-001  5.555723e-001  -0.000000e+000
    outer loop
      vertex  4.570716e+001  5.131480e+001  0.000000e+000
      vertex  4.564213e+001  5.141213e+001  5.450000e+000
      vertex  4.570716e+001  5.131480e+001  5.450000e+000
    endloop
  endfacet
  facet normal  9.807869e-001  1.950819e-001  0.000000e+000
    outer loop
      vertex  4.570716e+001  5.131480e+001  0.000000e+000
      vertex  4.570716e+001  5.131480e+001  5.450000e+000
      vertex  4.573000e+001  5.120000e+001  0.000000e+000
    endloop
  endfacet
  facet normal  9.807869e-001  1.950819e-001  -0.000000e+000
    outer loop
      vertex  4.573000e+001  5.120000e+001  0.000000e+000
      vertex  4.570716e+001  5.131480e+001  5.450000e+000
      vertex  4.573000e+001  5.120000e+001  5.450000e+000
    endloop
  endfacet
  facet normal  1.950819e-001  9.807869e-001  0.000000e+000
    outer loop
      vertex  4.543000e+001  5.150000e+001  0.000000e+000
      vertex  4.543000e+001  5.150000e+001  5.450000e+000
      vertex  4.554480e+001  5.147717e+001  0.000000e+000
    endloop
  endfacet
  facet normal  1.950819e-001  9.807869e-001  -0.000000e+000
    outer loop
      vertex  4.554480e+001  5.147717e+001  0.000000e+000
      vertex  4.543000e+001  5.150000e+001  5.450000e+000
      vertex  4.554480e+001  5.147717e+001  5.450000e+000
    endloop
  endfacet
  facet normal  5.555723e-001  8.314683e-001  0.000000e+000
    outer loop
      vertex  4.554480e+001  5.147717e+001  0.000000e+000
      vertex  4.554480e+001  5.147717e+001  5.450000e+000
      vertex  4.564213e+001  5.141213e+001  0.000000e+000
    endloop
  endfacet
  facet normal  5.555723e-001  8.314683e-001  -0.000000e+000
    outer loop
      vertex  4.564213e+001  5.141213e+001  0.000000e+000
      vertex  4.554480e+001  5.147717e+001  5.450000e+000
      vertex  4.564213e+001  5.141213e+001  5.450000e+000
    endloop
  endfacet
  facet normal  0.000000e+000  9.999999e-001  0.000000e+000
    outer loop
      vertex  4.543000e+001  5.150000e+001  0.000000e+000
      vertex  3.000000e-001  5.150000e+001  0.000000e+000
      vertex  4.543000e+001  5.150000e+001  5.450000e+000
    endloop
  endfacet
  facet normal  0.000000e+000  9.999999e-001  0.000000e+000
    outer loop
      vertex  4.543000e+001  5.150000e+001  5.450000e+000
      vertex  3.000000e-001  5.150000e+001  0.000000e+000
      vertex  3.000000e-001  5.150000e+001  5.450000e+000
    endloop
  endfacet
  facet normal  0.000000e+000  0.000000e+000 -1.000000e+000
    outer loop
      vertex  4.564213e+001  5.141213e+001  0.000000e+000
      vertex  1.851950e-001  5.147717e+001  0.000000e+000
      vertex  4.554480e+001  5.147717e+001  0.000000e+000
    endloop
  endfacet
  facet normal  0.000000e+000  0.000000e+000 -1.000000e+000
    outer loop
      vertex  4.554480e+001  5.147717e+001  0.000000e+000
      vertex  1.851950e-001  5.147717e+001  0.000000e+000
      vertex  3.000000e-001  5.150000e+001  0.000000e+000
    endloop
  endfacet
  facet normal  0.000000e+000  0.000000e+000 -1.000000e+000
    outer loop
      vertex  4.554480e+001  5.147717e+001  0.000000e+000
      vertex  3.000000e-001  5.150000e+001  0.000000e+000
      vertex  4.543000e+001  5.150000e+001  0.000000e+000
    endloop
  endfacet
  facet normal  0.000000e+000  0.000000e+000 -1.000000e+000
    outer loop
      vertex  1.851950e-001  5.147717e+001  0.000000e+000
      vertex  4.564213e+001  5.141213e+001  0.000000e+000
      vertex  8.786797e-002  5.141213e+001  0.000000e+000
    endloop
  endfacet
  facet normal  0.000000e+000  0.000000e+000 -1.000000e+000
    outer loop
      vertex  8.786797e-002  5.141213e+001  0.000000e+000
      vertex  4.564213e+001  5.141213e+001  0.000000e+000
      vertex  4.570716e+001  5.131480e+001  0.000000e+000
    endloop
  endfacet
  facet normal  0.000000e+000  0.000000e+000 -1.000000e+000
    outer loop
      vertex  8.786797e-002  5.141213e+001  0.000000e+000
      vertex  4.570716e+001  5.131480e+001  0.000000e+000
      vertex  2.283614e-002  5.131480e+001  0.000000e+000
    endloop
  endfacet
  facet normal  0.000000e+000  0.000000e+000 -1.000000e+000
    outer loop
      vertex  2.283614e-002  5.131480e+001  0.000000e+000
      vertex  4.570716e+001  5.131480e+001  0.000000e+000
      vertex  4.573000e+001  5.120000e+001  0.000000e+000
    endloop
  endfacet
  facet normal  0.000000e+000  0.000000e+000 -1.000000e+000
    outer loop
      vertex  2.283614e-002  5.131480e+001  0.000000e+000
      vertex  4.573000e+001  5.120000e+001  0.000000e+000
      vertex -2.026157e-015  5.120000e+001  0.000000e+000
    endloop
  endfacet
  facet normal  0.000000e+000  0.000000e+000 -1.000000e+000
    outer loop
      vertex -2.026157e-015  5.120000e+001  0.000000e+000
      vertex  4.573000e+001  5.120000e+001  0.000000e+000
      vertex  4.427000e+001  4.982000e+001  0.000000e+000
    endloop
  endfacet
  facet normal  0.000000e+000  0.000000e+000 -9.999999e-001
    outer loop
      vertex -2.026157e-015  5.120000e+001  0.000000e+000
      vertex  4.427000e+001  4.982000e+001  0.000000e+000
      vertex  1.760000e+000  4.982000e+001  0.000000e+000
    endloop
  endfacet
  facet normal  0.000000e+000  0.000000e+000 -9.999999e-001
    outer loop
      vertex  0.000000e+000  0.000000e+000  0.000000e+000
      vertex -2.026157e-015  5.120000e+001  0.000000e+000
      vertex  1.760000e+000  0.000000e+000  0.000000e+000
    endloop
  endfacet
  facet normal  0.000000e+000  0.000000e+000 -1.000000e+000
    outer loop
      vertex  1.760000e+000  0.000000e+000  0.000000e+000
      vertex -2.026157e-015  5.120000e+001  0.000000e+000
      vertex  1.760000e+000  4.982000e+001  0.000000e+000
    endloop
  endfacet
  facet normal  0.000000e+000  0.000000e+000 -1.000000e+000
    outer loop
      vertex  4.427000e+001  0.000000e+000  0.000000e+000
      vertex  4.427000e+001  4.982000e+001  0.000000e+000
      vertex  4.573000e+001  0.000000e+000  0.000000e+000
    endloop
  endfacet
  facet normal  0.000000e+000  0.000000e+000 -1.000000e+000
    outer loop
      vertex  4.573000e+001  0.000000e+000  0.000000e+000
      vertex  4.427000e+001  4.982000e+001  0.000000e+000
      vertex  4.573000e+001  5.120000e+001  0.000000e+000
    endloop
  endfacet
  facet normal -1.000000e+000 -3.957338e-017  5.092766e-018
    outer loop
      vertex -2.026157e-015  5.120000e+001  0.000000e+000
      vertex  0.000000e+000  0.000000e+000  0.000000e+000
      vertex -1.998401e-015  5.120000e+001  5.450000e+000
    endloop
  endfacet
  facet normal -1.000000e+000 -3.903128e-017  0.000000e+000
    outer loop
      vertex -1.998401e-015  5.120000e+001  5.450000e+000
      vertex  0.000000e+000  0.000000e+000  0.000000e+000
      vertex  0.000000e+000  0.000000e+000  5.450000e+000
    endloop
  endfacet
  facet normal -9.626368e-001  1.914832e-001  1.914800e-001
    outer loop
      vertex -1.998401e-015  5.120000e+001  5.450000e+000
      vertex  2.283614e-002  5.120000e+001  5.564805e+000
      vertex  2.283614e-002  5.131480e+001  5.450000e+000
    endloop
  endfacet
  facet normal -9.864028e-001  1.162113e-001  1.162093e-001
    outer loop
      vertex  2.283614e-002  5.131480e+001  5.450000e+000
      vertex  2.283614e-002  5.120000e+001  5.564805e+000
      vertex  3.163388e-002  5.129099e+001  5.548496e+000
    endloop
  endfacet
  facet normal -8.139492e-001  5.438569e-001  2.042218e-001
    outer loop
      vertex  2.283614e-002  5.131480e+001  5.450000e+000
      vertex  3.163388e-002  5.129099e+001  5.548496e+000
      vertex  8.786797e-002  5.141213e+001  5.450000e+000
    endloop
  endfacet
  facet normal -8.217769e-001  5.368127e-001  1.910885e-001
    outer loop
      vertex  8.786797e-002  5.141213e+001  5.450000e+000
      vertex  3.163388e-002  5.129099e+001  5.548496e+000
      vertex  1.040156e-001  5.139598e+001  5.564805e+000
    endloop
  endfacet
  facet normal -7.288870e-001  4.182714e-001  5.420083e-001
    outer loop
      vertex  1.040156e-001  5.139598e+001  5.564805e+000
      vertex  3.163388e-002  5.129099e+001  5.548496e+000
      vertex  1.500000e-001  5.135000e+001  5.662132e+000
    endloop
  endfacet
  facet normal -7.288870e-001  4.182708e-001  5.420086e-001
    outer loop
      vertex  1.500000e-001  5.135000e+001  5.662132e+000
      vertex  3.163388e-002  5.129099e+001  5.548496e+000
      vertex  7.685304e-002  5.124389e+001  5.645650e+000
    endloop
  endfacet
  facet normal -5.299451e-001  2.389318e-001  8.136768e-001
    outer loop
      vertex  1.500000e-001  5.135000e+001  5.662132e+000
      vertex  7.685304e-002  5.124389e+001  5.645650e+000
      vertex  2.188206e-001  5.128118e+001  5.727164e+000
    endloop
  endfacet
  facet normal -5.284593e-001  2.189022e-001  8.202515e-001
    outer loop
      vertex  2.188206e-001  5.128118e+001  5.727164e+000
      vertex  7.685304e-002  5.124389e+001  5.645650e+000
      vertex  1.851950e-001  5.120000e+001  5.727164e+000
    endloop
  endfacet
  facet normal -1.944569e-001  8.054935e-002  9.775982e-001
    outer loop
      vertex  2.188206e-001  5.128118e+001  5.727164e+000
      vertex  1.851950e-001  5.120000e+001  5.727164e+000
      vertex  3.000000e-001  5.120000e+001  5.750000e+000
    endloop
  endfacet
  facet normal -8.594846e-001  1.695482e-001  4.822236e-001
    outer loop
      vertex  3.163388e-002  5.129099e+001  5.548496e+000
      vertex  2.283614e-002  5.120000e+001  5.564805e+000
      vertex  7.685304e-002  5.124389e+001  5.645650e+000
    endloop
  endfacet
  facet normal -8.314703e-001 -4.014077e-005  5.555694e-001
    outer loop
      vertex  7.685304e-002  5.124389e+001  5.645650e+000
      vertex  2.283614e-002  5.120000e+001  5.564805e+000
      vertex  8.786797e-002  5.120000e+001  5.662132e+000
    endloop
  endfacet
  facet normal -5.474535e-001  1.702936e-001  8.193258e-001
    outer loop
      vertex  7.685304e-002  5.124389e+001  5.645650e+000
      vertex  8.786797e-002  5.120000e+001  5.662132e+000
      vertex  1.851950e-001  5.120000e+001  5.727164e+000
    endloop
  endfacet
  facet normal -1.703121e-001  5.474471e-001  8.193262e-001
    outer loop
      vertex  3.000000e-001  5.141213e+001  5.662132e+000
      vertex  2.561101e-001  5.142315e+001  5.645650e+000
      vertex  3.000000e-001  5.131480e+001  5.727164e+000
    endloop
  endfacet
  facet normal -2.189012e-001  5.284595e-001  8.202516e-001
    outer loop
      vertex  2.561101e-001  5.142315e+001  5.645650e+000
      vertex  2.188206e-001  5.128118e+001  5.727164e+000
      vertex  3.000000e-001  5.131480e+001  5.727164e+000
    endloop
  endfacet
  facet normal -2.389301e-001  5.299454e-001  8.136770e-001
    outer loop
      vertex  2.188206e-001  5.128118e+001  5.727164e+000
      vertex  2.561101e-001  5.142315e+001  5.645650e+000
      vertex  1.500000e-001  5.135000e+001  5.662132e+000
    endloop
  endfacet
  facet normal -8.055011e-002  1.944598e-001  9.775977e-001
    outer loop
      vertex  3.000000e-001  5.120000e+001  5.750000e+000
      vertex  3.000000e-001  5.131480e+001  5.727164e+000
      vertex  2.188206e-001  5.128118e+001  5.727164e+000
    endloop
  endfacet
  facet normal -1.287548e-001  9.726239e-001  1.934551e-001
    outer loop
      vertex  3.000000e-001  5.147717e+001  5.564805e+000
      vertex  3.000000e-001  5.150000e+001  5.450000e+000
      vertex  2.090155e-001  5.146836e+001  5.548496e+000
    endloop
  endfacet
  facet normal -1.933302e-001  9.719947e-001  1.336021e-001
    outer loop
      vertex  2.090155e-001  5.146836e+001  5.548496e+000
      vertex  3.000000e-001  5.150000e+001  5.450000e+000
      vertex  1.851950e-001  5.147717e+001  5.450000e+000
    endloop
  endfacet
  facet normal -5.342709e-001  8.206906e-001  2.025373e-001
    outer loop
      vertex  2.090155e-001  5.146836e+001  5.548496e+000
      vertex  1.851950e-001  5.147717e+001  5.450000e+000
      vertex  1.040156e-001  5.139598e+001  5.564805e+000
    endloop
  endfacet
  facet normal -5.452968e-001  8.160800e-001  1.914806e-001
    outer loop
      vertex  1.040156e-001  5.139598e+001  5.564805e+000
      vertex  1.851950e-001  5.147717e+001  5.450000e+000
      vertex  8.786797e-002  5.141213e+001  5.450000e+000
    endloop
  endfacet
  facet normal -4.182610e-001  7.288910e-001  5.420107e-001
    outer loop
      vertex  1.040156e-001  5.139598e+001  5.564805e+000
      vertex  1.500000e-001  5.135000e+001  5.662132e+000
      vertex  2.090155e-001  5.146836e+001  5.548496e+000
    endloop
  endfacet
  facet normal -4.182705e-001  7.288899e-001  5.420048e-001
    outer loop
      vertex  2.090155e-001  5.146836e+001  5.548496e+000
      vertex  1.500000e-001  5.135000e+001  5.662132e+000
      vertex  2.561101e-001  5.142315e+001  5.645650e+000
    endloop
  endfacet
  facet normal -1.695745e-001  8.594751e-001  4.822315e-001
    outer loop
      vertex  2.090155e-001  5.146836e+001  5.548496e+000
      vertex  2.561101e-001  5.142315e+001  5.645650e+000
      vertex  3.000000e-001  5.147717e+001  5.564805e+000
    endloop
  endfacet
  facet normal  5.133854e-007  8.314657e-001  5.555760e-001
    outer loop
      vertex  3.000000e-001  5.147717e+001  5.564805e+000
      vertex  2.561101e-001  5.142315e+001  5.645650e+000
      vertex  3.000000e-001  5.141213e+001  5.662132e+000
    endloop
  endfacet
  facet normal -5.555769e-001  8.314652e-001  0.000000e+000
    outer loop
      vertex  8.786797e-002  5.141213e+001  0.000000e+000
      vertex  8.786797e-002  5.141213e+001  5.450000e+000
      vertex  1.851950e-001  5.147717e+001  0.000000e+000
    endloop
  endfacet
  facet normal -5.555769e-001  8.314652e-001  0.000000e+000
    outer loop
      vertex  1.851950e-001  5.147717e+001  0.000000e+000
      vertex  8.786797e-002  5.141213e+001  5.450000e+000
      vertex  1.851950e-001  5.147717e+001  5.450000e+000
    endloop
  endfacet
  facet normal -1.950791e-001  9.807875e-001  0.000000e+000
    outer loop
      vertex  1.851950e-001  5.147717e+001  0.000000e+000
      vertex  1.851950e-001  5.147717e+001  5.450000e+000
      vertex  3.000000e-001  5.150000e+001  0.000000e+000
    endloop
  endfacet
  facet normal -1.950791e-001  9.807875e-001  0.000000e+000
    outer loop
      vertex  3.000000e-001  5.150000e+001  0.000000e+000
      vertex  1.851950e-001  5.147717e+001  5.450000e+000
      vertex  3.000000e-001  5.150000e+001  5.450000e+000
    endloop
  endfacet
  facet normal -9.807848e-001  1.950931e-001  4.994907e-018
    outer loop
      vertex -2.026157e-015  5.120000e+001  0.000000e+000
      vertex -1.998401e-015  5.120000e+001  5.450000e+000
      vertex  2.283614e-002  5.131480e+001  0.000000e+000
    endloop
  endfacet
  facet normal -9.807848e-001  1.950931e-001  0.000000e+000
    outer loop
      vertex  2.283614e-002  5.131480e+001  0.000000e+000
      vertex -1.998401e-015  5.120000e+001  5.450000e+000
      vertex  2.283614e-002  5.131480e+001  5.450000e+000
    endloop
  endfacet
  facet normal -8.314728e-001  5.555656e-001  0.000000e+000
    outer loop
      vertex  2.283614e-002  5.131480e+001  0.000000e+000
      vertex  2.283614e-002  5.131480e+001  5.450000e+000
      vertex  8.786797e-002  5.141213e+001  0.000000e+000
    endloop
  endfacet
  facet normal -8.314728e-001  5.555656e-001  0.000000e+000
    outer loop
      vertex  8.786797e-002  5.141213e+001  0.000000e+000
      vertex  2.283614e-002  5.131480e+001  5.450000e+000
      vertex  8.786797e-002  5.141213e+001  5.450000e+000
    endloop
  endfacet
endsolid CATIA STL
