solid CATIA STL
  facet normal -9.868649e-017 -1.748383e-018 -1.000000e+000
    outer loop
      vertex  2.550000e+001 -1.200000e+001  1.110223e-016
      vertex  1.650000e+001  5.150000e+001  8.881784e-016
      vertex  2.550000e+001  5.150000e+001  0.000000e+000
    endloop
  endfacet
  facet normal  3.533072e-017  1.724618e-017 -9.999999e-001
    outer loop
      vertex  1.650000e+001  5.150000e+001  8.881784e-016
      vertex  2.550000e+001 -1.200000e+001  1.110223e-016
      vertex  1.650000e+001 -3.552714e-015  0.000000e+000
    endloop
  endfacet
  facet normal  2.176908e-018 -7.619178e-018 -1.000000e+000
    outer loop
      vertex  1.650000e+001 -3.552714e-015  0.000000e+000
      vertex  2.550000e+001 -1.200000e+001  1.110223e-016
      vertex -2.550000e+001 -1.200000e+001  0.000000e+000
    endloop
  endfacet
  facet normal  0.000000e+000  0.000000e+000 -1.000000e+000
    outer loop
      vertex  1.650000e+001 -3.552714e-015  0.000000e+000
      vertex -2.550000e+001 -1.200000e+001  0.000000e+000
      vertex -1.650000e+001 -3.552714e-015  0.000000e+000
    endloop
  endfacet
  facet normal  -0.000000e+000  0.000000e+000 -1.000000e+000
    outer loop
      vertex -1.650000e+001 -3.552714e-015  0.000000e+000
      vertex -2.550000e+001 -1.200000e+001  0.000000e+000
      vertex -2.550000e+001  5.150000e+001  0.000000e+000
    endloop
  endfacet
  facet normal  9.868649e-017  1.724618e-017 -9.999999e-001
    outer loop
      vertex -1.650000e+001 -3.552714e-015  0.000000e+000
      vertex -2.550000e+001  5.150000e+001  0.000000e+000
      vertex -1.650000e+001  5.150000e+001  8.881784e-016
    endloop
  endfacet
  facet normal  0.000000e+000  0.000000e+000 -1.000000e+000
    outer loop
      vertex  2.462132e+001 -1.412132e+001  0.000000e+000
      vertex -2.492705e+001 -1.376336e+001  0.000000e+000
      vertex  2.492705e+001 -1.376336e+001  0.000000e+000
    endloop
  endfacet
  facet normal  0.000000e+000  0.000000e+000 -1.000000e+000
    outer loop
      vertex  2.492705e+001 -1.376336e+001  0.000000e+000
      vertex -2.492705e+001 -1.376336e+001  0.000000e+000
      vertex -2.517302e+001 -1.336197e+001  0.000000e+000
    endloop
  endfacet
  facet normal  0.000000e+000  0.000000e+000 -1.000000e+000
    outer loop
      vertex  2.492705e+001 -1.376336e+001  0.000000e+000
      vertex -2.517302e+001 -1.336197e+001  0.000000e+000
      vertex  2.517302e+001 -1.336197e+001  0.000000e+000
    endloop
  endfacet
  facet normal  0.000000e+000  0.000000e+000 -1.000000e+000
    outer loop
      vertex  2.517302e+001 -1.336197e+001  0.000000e+000
      vertex -2.517302e+001 -1.336197e+001  0.000000e+000
      vertex -2.535317e+001 -1.292705e+001  0.000000e+000
    endloop
  endfacet
  facet normal  0.000000e+000  0.000000e+000 -9.999999e-001
    outer loop
      vertex  2.517302e+001 -1.336197e+001  0.000000e+000
      vertex -2.535317e+001 -1.292705e+001  0.000000e+000
      vertex  2.535317e+001 -1.292705e+001  0.000000e+000
    endloop
  endfacet
  facet normal  0.000000e+000  0.000000e+000 -1.000000e+000
    outer loop
      vertex  2.535317e+001 -1.292705e+001  0.000000e+000
      vertex -2.535317e+001 -1.292705e+001  0.000000e+000
      vertex -2.546306e+001 -1.246930e+001  0.000000e+000
    endloop
  endfacet
  facet normal  0.000000e+000  0.000000e+000 -9.999999e-001
    outer loop
      vertex  2.535317e+001 -1.292705e+001  0.000000e+000
      vertex -2.546306e+001 -1.246930e+001  0.000000e+000
      vertex  2.546306e+001 -1.246930e+001  0.000000e+000
    endloop
  endfacet
  facet normal  0.000000e+000  0.000000e+000 -1.000000e+000
    outer loop
      vertex  2.546306e+001 -1.246930e+001  0.000000e+000
      vertex -2.546306e+001 -1.246930e+001  0.000000e+000
      vertex -2.550000e+001 -1.200000e+001  0.000000e+000
    endloop
  endfacet
  facet normal  2.176908e-018  2.363971e-016 -1.000000e+000
    outer loop
      vertex  2.546306e+001 -1.246930e+001  0.000000e+000
      vertex -2.550000e+001 -1.200000e+001  0.000000e+000
      vertex  2.550000e+001 -1.200000e+001  1.110223e-016
    endloop
  endfacet
  facet normal  0.000000e+000  0.000000e+000 -1.000000e+000
    outer loop
      vertex -2.492705e+001 -1.376336e+001  0.000000e+000
      vertex  2.462132e+001 -1.412132e+001  0.000000e+000
      vertex -2.462132e+001 -1.412132e+001  0.000000e+000
    endloop
  endfacet
  facet normal  0.000000e+000  0.000000e+000 -1.000000e+000
    outer loop
      vertex -2.462132e+001 -1.412132e+001  0.000000e+000
      vertex  2.462132e+001 -1.412132e+001  0.000000e+000
      vertex  2.426336e+001 -1.442705e+001  0.000000e+000
    endloop
  endfacet
  facet normal  0.000000e+000  0.000000e+000 -1.000000e+000
    outer loop
      vertex -2.462132e+001 -1.412132e+001  0.000000e+000
      vertex  2.426336e+001 -1.442705e+001  0.000000e+000
      vertex -2.426336e+001 -1.442705e+001  0.000000e+000
    endloop
  endfacet
  facet normal  0.000000e+000  0.000000e+000 -1.000000e+000
    outer loop
      vertex -2.426336e+001 -1.442705e+001  0.000000e+000
      vertex  2.426336e+001 -1.442705e+001  0.000000e+000
      vertex  2.386197e+001 -1.467302e+001  0.000000e+000
    endloop
  endfacet
  facet normal  0.000000e+000  0.000000e+000 -1.000000e+000
    outer loop
      vertex -2.426336e+001 -1.442705e+001  0.000000e+000
      vertex  2.386197e+001 -1.467302e+001  0.000000e+000
      vertex -2.386197e+001 -1.467302e+001  0.000000e+000
    endloop
  endfacet
  facet normal  0.000000e+000  0.000000e+000 -1.000000e+000
    outer loop
      vertex -2.386197e+001 -1.467302e+001  0.000000e+000
      vertex  2.386197e+001 -1.467302e+001  0.000000e+000
      vertex  2.342705e+001 -1.485317e+001  0.000000e+000
    endloop
  endfacet
  facet normal  0.000000e+000  0.000000e+000 -1.000000e+000
    outer loop
      vertex -2.386197e+001 -1.467302e+001  0.000000e+000
      vertex  2.342705e+001 -1.485317e+001  0.000000e+000
      vertex -2.342705e+001 -1.485317e+001  0.000000e+000
    endloop
  endfacet
  facet normal  0.000000e+000  0.000000e+000 -1.000000e+000
    outer loop
      vertex -2.342705e+001 -1.485317e+001  0.000000e+000
      vertex  2.342705e+001 -1.485317e+001  0.000000e+000
      vertex  2.296930e+001 -1.496307e+001  0.000000e+000
    endloop
  endfacet
  facet normal  0.000000e+000  0.000000e+000 -1.000000e+000
    outer loop
      vertex -2.342705e+001 -1.485317e+001  0.000000e+000
      vertex  2.296930e+001 -1.496307e+001  0.000000e+000
      vertex -2.296930e+001 -1.496307e+001  0.000000e+000
    endloop
  endfacet
  facet normal  0.000000e+000  0.000000e+000 -1.000000e+000
    outer loop
      vertex -2.296930e+001 -1.496307e+001  0.000000e+000
      vertex  2.296930e+001 -1.496307e+001  0.000000e+000
      vertex  2.250000e+001 -1.500000e+001  0.000000e+000
    endloop
  endfacet
  facet normal  0.000000e+000  0.000000e+000 -1.000000e+000
    outer loop
      vertex -2.296930e+001 -1.496307e+001  0.000000e+000
      vertex  2.250000e+001 -1.500000e+001  0.000000e+000
      vertex -2.250000e+001 -1.500000e+001  0.000000e+000
    endloop
  endfacet
  facet normal  -0.000000e+000  0.000000e+000  9.999999e-001
    outer loop
      vertex  1.800000e+001  5.150000e+001  3.050000e+001
      vertex  1.650000e+001  5.150000e+001  3.050000e+001
      vertex  1.800000e+001 -1.500000e+000  3.050000e+001
    endloop
  endfacet
  facet normal  0.000000e+000  0.000000e+000  1.000000e+000
    outer loop
      vertex  1.800000e+001 -1.500000e+000  3.050000e+001
      vertex  1.650000e+001  5.150000e+001  3.050000e+001
      vertex  1.650000e+001  0.000000e+000  3.050000e+001
    endloop
  endfacet
  facet normal  0.000000e+000  0.000000e+000  1.000000e+000
    outer loop
      vertex  1.800000e+001 -1.500000e+000  3.050000e+001
      vertex  1.650000e+001  0.000000e+000  3.050000e+001
      vertex -1.800000e+001 -1.500000e+000  3.050000e+001
    endloop
  endfacet
  facet normal  0.000000e+000  0.000000e+000  1.000000e+000
    outer loop
      vertex -1.800000e+001 -1.500000e+000  3.050000e+001
      vertex  1.650000e+001  0.000000e+000  3.050000e+001
      vertex -1.650000e+001  0.000000e+000  3.050000e+001
    endloop
  endfacet
  facet normal  0.000000e+000  0.000000e+000  9.999999e-001
    outer loop
      vertex -1.800000e+001 -1.500000e+000  3.050000e+001
      vertex -1.650000e+001  0.000000e+000  3.050000e+001
      vertex -1.800000e+001  5.150000e+001  3.050000e+001
    endloop
  endfacet
  facet normal  -0.000000e+000  0.000000e+000  1.000000e+000
    outer loop
      vertex -1.800000e+001  5.150000e+001  3.050000e+001
      vertex -1.650000e+001  0.000000e+000  3.050000e+001
      vertex -1.650000e+001  5.150000e+001  3.050000e+001
    endloop
  endfacet
  facet normal -1.000000e+000  -0.000000e+000  -0.000000e+000
    outer loop
      vertex  1.650000e+001  0.000000e+000  3.050000e+001
      vertex  1.650000e+001  5.150000e+001  3.050000e+001
      vertex  1.650000e+001  5.150000e+001  1.500000e+000
    endloop
  endfacet
  facet normal -1.000000e+000  -0.000000e+000  -0.000000e+000
    outer loop
      vertex  1.650000e+001  0.000000e+000  3.050000e+001
      vertex  1.650000e+001  5.150000e+001  1.500000e+000
      vertex  1.650000e+001  5.150000e+001  8.881784e-016
    endloop
  endfacet
  facet normal -1.000000e+000  -0.000000e+000  0.000000e+000
    outer loop
      vertex  1.650000e+001  0.000000e+000  3.050000e+001
      vertex  1.650000e+001  5.150000e+001  8.881784e-016
      vertex  1.650000e+001 -3.552714e-015  0.000000e+000
    endloop
  endfacet
  facet normal -1.000000e+000  0.000000e+000  0.000000e+000
    outer loop
      vertex  1.650000e+001  5.150000e+001 -1.550000e+001
      vertex  1.650000e+001  5.150000e+001  8.881784e-016
      vertex  1.650000e+001  5.300000e+001 -1.550000e+001
    endloop
  endfacet
  facet normal -1.000000e+000  0.000000e+000  0.000000e+000
    outer loop
      vertex  1.650000e+001  5.300000e+001 -1.550000e+001
      vertex  1.650000e+001  5.150000e+001  8.881784e-016
      vertex  1.650000e+001  5.150000e+001  1.500000e+000
    endloop
  endfacet
  facet normal -1.000000e+000  0.000000e+000  0.000000e+000
    outer loop
      vertex  1.650000e+001  5.300000e+001 -1.550000e+001
      vertex  1.650000e+001  5.150000e+001  1.500000e+000
      vertex  1.650000e+001  5.300000e+001  1.500000e+000
    endloop
  endfacet
  facet normal  0.000000e+000  1.000000e+000 -1.164824e-016
    outer loop
      vertex  1.650000e+001  0.000000e+000  3.050000e+001
      vertex  1.650000e+001 -3.552714e-015  0.000000e+000
      vertex -1.650000e+001  0.000000e+000  3.050000e+001
    endloop
  endfacet
  facet normal  0.000000e+000  1.000000e+000 -1.164824e-016
    outer loop
      vertex -1.650000e+001  0.000000e+000  3.050000e+001
      vertex  1.650000e+001 -3.552714e-015  0.000000e+000
      vertex -1.650000e+001 -3.552714e-015  0.000000e+000
    endloop
  endfacet
  facet normal  1.000000e+000  0.000000e+000  -0.000000e+000
    outer loop
      vertex -1.650000e+001  0.000000e+000  3.050000e+001
      vertex -1.650000e+001  5.150000e+001  1.500000e+000
      vertex -1.650000e+001  5.150000e+001  3.050000e+001
    endloop
  endfacet
  facet normal  1.000000e+000  0.000000e+000  0.000000e+000
    outer loop
      vertex -1.650000e+001  5.150000e+001  8.881784e-016
      vertex -1.650000e+001  5.150000e+001 -1.550000e+001
      vertex -1.650000e+001  5.300000e+001 -1.550000e+001
    endloop
  endfacet
  facet normal  1.000000e+000  0.000000e+000  -0.000000e+000
    outer loop
      vertex -1.650000e+001  5.150000e+001  8.881784e-016
      vertex -1.650000e+001  5.300000e+001 -1.550000e+001
      vertex -1.650000e+001  5.300000e+001  1.500000e+000
    endloop
  endfacet
  facet normal  1.000000e+000  0.000000e+000  0.000000e+000
    outer loop
      vertex -1.650000e+001  5.150000e+001  8.881784e-016
      vertex -1.650000e+001  5.300000e+001  1.500000e+000
      vertex -1.650000e+001  5.150000e+001  1.500000e+000
    endloop
  endfacet
  facet normal  1.000000e+000  0.000000e+000  0.000000e+000
    outer loop
      vertex -1.650000e+001  5.150000e+001  8.881784e-016
      vertex -1.650000e+001  5.150000e+001  1.500000e+000
      vertex -1.650000e+001  0.000000e+000  3.050000e+001
    endloop
  endfacet
  facet normal  1.000000e+000  0.000000e+000  0.000000e+000
    outer loop
      vertex -1.650000e+001  5.150000e+001  8.881784e-016
      vertex -1.650000e+001  0.000000e+000  3.050000e+001
      vertex -1.650000e+001 -3.552714e-015  0.000000e+000
    endloop
  endfacet
  facet normal  0.000000e+000  1.000000e+000  -0.000000e+000
    outer loop
      vertex -1.650000e+001  5.150000e+001  3.050000e+001
      vertex -1.650000e+001  5.150000e+001  1.500000e+000
      vertex -1.800000e+001  5.150000e+001  3.050000e+001
    endloop
  endfacet
  facet normal  0.000000e+000  1.000000e+000  0.000000e+000
    outer loop
      vertex -1.800000e+001  5.150000e+001  3.050000e+001
      vertex -1.650000e+001  5.150000e+001  1.500000e+000
      vertex -1.800000e+001  5.150000e+001  1.500000e+000
    endloop
  endfacet
  facet normal  0.000000e+000  1.000000e+000  -0.000000e+000
    outer loop
      vertex  1.800000e+001  5.150000e+001  3.050000e+001
      vertex  1.800000e+001  5.150000e+001  1.500000e+000
      vertex  1.650000e+001  5.150000e+001  3.050000e+001
    endloop
  endfacet
  facet normal  0.000000e+000  1.000000e+000  0.000000e+000
    outer loop
      vertex  1.650000e+001  5.150000e+001  3.050000e+001
      vertex  1.800000e+001  5.150000e+001  1.500000e+000
      vertex  1.650000e+001  5.150000e+001  1.500000e+000
    endloop
  endfacet
  facet normal  0.000000e+000  0.000000e+000  1.000000e+000
    outer loop
      vertex  1.650000e+001  5.300000e+001  1.500000e+000
      vertex  1.650000e+001  5.150000e+001  1.500000e+000
      vertex  2.550000e+001  5.300000e+001  1.500000e+000
    endloop
  endfacet
  facet normal  0.000000e+000  0.000000e+000  1.000000e+000
    outer loop
      vertex  2.550000e+001  5.300000e+001  1.500000e+000
      vertex  1.650000e+001  5.150000e+001  1.500000e+000
      vertex  1.800000e+001  5.150000e+001  1.500000e+000
    endloop
  endfacet
  facet normal  -0.000000e+000  0.000000e+000  9.999999e-001
    outer loop
      vertex  2.550000e+001  5.300000e+001  1.500000e+000
      vertex  1.800000e+001  5.150000e+001  1.500000e+000
      vertex  2.550000e+001 -1.200000e+001  1.500000e+000
    endloop
  endfacet
  facet normal  0.000000e+000  0.000000e+000  1.000000e+000
    outer loop
      vertex  2.550000e+001 -1.200000e+001  1.500000e+000
      vertex  1.800000e+001  5.150000e+001  1.500000e+000
      vertex  1.800000e+001 -1.500000e+000  1.500000e+000
    endloop
  endfacet
  facet normal  0.000000e+000  0.000000e+000  1.000000e+000
    outer loop
      vertex  2.550000e+001 -1.200000e+001  1.500000e+000
      vertex  1.800000e+001 -1.500000e+000  1.500000e+000
      vertex -2.550000e+001 -1.200000e+001  1.500000e+000
    endloop
  endfacet
  facet normal  0.000000e+000  0.000000e+000  9.999999e-001
    outer loop
      vertex -2.550000e+001 -1.200000e+001  1.500000e+000
      vertex  1.800000e+001 -1.500000e+000  1.500000e+000
      vertex -1.800000e+001 -1.500000e+000  1.500000e+000
    endloop
  endfacet
  facet normal  0.000000e+000  0.000000e+000  9.999999e-001
    outer loop
      vertex -2.550000e+001 -1.200000e+001  1.500000e+000
      vertex -1.800000e+001 -1.500000e+000  1.500000e+000
      vertex -2.550000e+001  5.300000e+001  1.500000e+000
    endloop
  endfacet
  facet normal  0.000000e+000  0.000000e+000  1.000000e+000
    outer loop
      vertex -2.550000e+001  5.300000e+001  1.500000e+000
      vertex -1.800000e+001 -1.500000e+000  1.500000e+000
      vertex -1.800000e+001  5.150000e+001  1.500000e+000
    endloop
  endfacet
  facet normal  0.000000e+000  -0.000000e+000  1.000000e+000
    outer loop
      vertex -2.550000e+001  5.300000e+001  1.500000e+000
      vertex -1.800000e+001  5.150000e+001  1.500000e+000
      vertex -1.650000e+001  5.300000e+001  1.500000e+000
    endloop
  endfacet
  facet normal  0.000000e+000  0.000000e+000  1.000000e+000
    outer loop
      vertex -1.650000e+001  5.300000e+001  1.500000e+000
      vertex -1.800000e+001  5.150000e+001  1.500000e+000
      vertex -1.650000e+001  5.150000e+001  1.500000e+000
    endloop
  endfacet
  facet normal  -0.000000e+000  0.000000e+000  1.000000e+000
    outer loop
      vertex  2.550000e+001 -1.200000e+001  1.500000e+000
      vertex -2.550000e+001 -1.200000e+001  1.500000e+000
      vertex  2.546306e+001 -1.246930e+001  1.500000e+000
    endloop
  endfacet
  facet normal  0.000000e+000  0.000000e+000  1.000000e+000
    outer loop
      vertex  2.546306e+001 -1.246930e+001  1.500000e+000
      vertex -2.550000e+001 -1.200000e+001  1.500000e+000
      vertex -2.546306e+001 -1.246930e+001  1.500000e+000
    endloop
  endfacet
  facet normal  -0.000000e+000  0.000000e+000  9.999999e-001
    outer loop
      vertex  2.546306e+001 -1.246930e+001  1.500000e+000
      vertex -2.546306e+001 -1.246930e+001  1.500000e+000
      vertex  2.535317e+001 -1.292705e+001  1.500000e+000
    endloop
  endfacet
  facet normal  0.000000e+000  0.000000e+000  1.000000e+000
    outer loop
      vertex  2.535317e+001 -1.292705e+001  1.500000e+000
      vertex -2.546306e+001 -1.246930e+001  1.500000e+000
      vertex -2.535317e+001 -1.292705e+001  1.500000e+000
    endloop
  endfacet
  facet normal  -0.000000e+000  0.000000e+000  9.999999e-001
    outer loop
      vertex  2.535317e+001 -1.292705e+001  1.500000e+000
      vertex -2.535317e+001 -1.292705e+001  1.500000e+000
      vertex  2.517302e+001 -1.336197e+001  1.500000e+000
    endloop
  endfacet
  facet normal  0.000000e+000  0.000000e+000  1.000000e+000
    outer loop
      vertex  2.517302e+001 -1.336197e+001  1.500000e+000
      vertex -2.535317e+001 -1.292705e+001  1.500000e+000
      vertex -2.517302e+001 -1.336197e+001  1.500000e+000
    endloop
  endfacet
  facet normal  -0.000000e+000  0.000000e+000  1.000000e+000
    outer loop
      vertex  2.517302e+001 -1.336197e+001  1.500000e+000
      vertex -2.517302e+001 -1.336197e+001  1.500000e+000
      vertex  2.492705e+001 -1.376336e+001  1.500000e+000
    endloop
  endfacet
  facet normal  0.000000e+000  0.000000e+000  1.000000e+000
    outer loop
      vertex  2.492705e+001 -1.376336e+001  1.500000e+000
      vertex -2.517302e+001 -1.336197e+001  1.500000e+000
      vertex -2.492705e+001 -1.376336e+001  1.500000e+000
    endloop
  endfacet
  facet normal  -0.000000e+000  0.000000e+000  1.000000e+000
    outer loop
      vertex  2.492705e+001 -1.376336e+001  1.500000e+000
      vertex -2.492705e+001 -1.376336e+001  1.500000e+000
      vertex  2.462132e+001 -1.412132e+001  1.500000e+000
    endloop
  endfacet
  facet normal  0.000000e+000  0.000000e+000  1.000000e+000
    outer loop
      vertex  2.462132e+001 -1.412132e+001  1.500000e+000
      vertex -2.492705e+001 -1.376336e+001  1.500000e+000
      vertex -2.462132e+001 -1.412132e+001  1.500000e+000
    endloop
  endfacet
  facet normal  -0.000000e+000  0.000000e+000  1.000000e+000
    outer loop
      vertex  2.462132e+001 -1.412132e+001  1.500000e+000
      vertex -2.462132e+001 -1.412132e+001  1.500000e+000
      vertex  2.426336e+001 -1.442705e+001  1.500000e+000
    endloop
  endfacet
  facet normal  0.000000e+000  0.000000e+000  1.000000e+000
    outer loop
      vertex  2.426336e+001 -1.442705e+001  1.500000e+000
      vertex -2.462132e+001 -1.412132e+001  1.500000e+000
      vertex -2.426336e+001 -1.442705e+001  1.500000e+000
    endloop
  endfacet
  facet normal  -0.000000e+000  0.000000e+000  1.000000e+000
    outer loop
      vertex  2.426336e+001 -1.442705e+001  1.500000e+000
      vertex -2.426336e+001 -1.442705e+001  1.500000e+000
      vertex  2.386197e+001 -1.467302e+001  1.500000e+000
    endloop
  endfacet
  facet normal  0.000000e+000  0.000000e+000  1.000000e+000
    outer loop
      vertex  2.386197e+001 -1.467302e+001  1.500000e+000
      vertex -2.426336e+001 -1.442705e+001  1.500000e+000
      vertex -2.386197e+001 -1.467302e+001  1.500000e+000
    endloop
  endfacet
  facet normal  -0.000000e+000  0.000000e+000  1.000000e+000
    outer loop
      vertex  2.386197e+001 -1.467302e+001  1.500000e+000
      vertex -2.386197e+001 -1.467302e+001  1.500000e+000
      vertex  2.342705e+001 -1.485317e+001  1.500000e+000
    endloop
  endfacet
  facet normal  0.000000e+000  0.000000e+000  1.000000e+000
    outer loop
      vertex  2.342705e+001 -1.485317e+001  1.500000e+000
      vertex -2.386197e+001 -1.467302e+001  1.500000e+000
      vertex -2.342705e+001 -1.485317e+001  1.500000e+000
    endloop
  endfacet
  facet normal  -0.000000e+000  0.000000e+000  1.000000e+000
    outer loop
      vertex  2.342705e+001 -1.485317e+001  1.500000e+000
      vertex -2.342705e+001 -1.485317e+001  1.500000e+000
      vertex  2.296930e+001 -1.496307e+001  1.500000e+000
    endloop
  endfacet
  facet normal  0.000000e+000  0.000000e+000  1.000000e+000
    outer loop
      vertex  2.296930e+001 -1.496307e+001  1.500000e+000
      vertex -2.342705e+001 -1.485317e+001  1.500000e+000
      vertex -2.296930e+001 -1.496307e+001  1.500000e+000
    endloop
  endfacet
  facet normal  -0.000000e+000  0.000000e+000  1.000000e+000
    outer loop
      vertex  2.296930e+001 -1.496307e+001  1.500000e+000
      vertex -2.296930e+001 -1.496307e+001  1.500000e+000
      vertex  2.250000e+001 -1.500000e+001  1.500000e+000
    endloop
  endfacet
  facet normal  0.000000e+000  0.000000e+000  1.000000e+000
    outer loop
      vertex  2.250000e+001 -1.500000e+001  1.500000e+000
      vertex -2.296930e+001 -1.496307e+001  1.500000e+000
      vertex -2.250000e+001 -1.500000e+001  1.500000e+000
    endloop
  endfacet
  facet normal  1.000000e+000  0.000000e+000  0.000000e+000
    outer loop
      vertex  1.800000e+001 -1.500000e+000  3.050000e+001
      vertex  1.800000e+001 -1.500000e+000  1.500000e+000
      vertex  1.800000e+001  5.150000e+001  3.050000e+001
    endloop
  endfacet
  facet normal  1.000000e+000  0.000000e+000  0.000000e+000
    outer loop
      vertex  1.800000e+001  5.150000e+001  3.050000e+001
      vertex  1.800000e+001 -1.500000e+000  1.500000e+000
      vertex  1.800000e+001  5.150000e+001  1.500000e+000
    endloop
  endfacet
  facet normal  0.000000e+000 -1.000000e+000  0.000000e+000
    outer loop
      vertex -1.800000e+001 -1.500000e+000  3.050000e+001
      vertex -1.800000e+001 -1.500000e+000  1.500000e+000
      vertex  1.800000e+001 -1.500000e+000  3.050000e+001
    endloop
  endfacet
  facet normal  0.000000e+000 -1.000000e+000  -0.000000e+000
    outer loop
      vertex  1.800000e+001 -1.500000e+000  3.050000e+001
      vertex -1.800000e+001 -1.500000e+000  1.500000e+000
      vertex  1.800000e+001 -1.500000e+000  1.500000e+000
    endloop
  endfacet
  facet normal -1.000000e+000  0.000000e+000  0.000000e+000
    outer loop
      vertex -1.800000e+001  5.150000e+001  3.050000e+001
      vertex -1.800000e+001  5.150000e+001  1.500000e+000
      vertex -1.800000e+001 -1.500000e+000  3.050000e+001
    endloop
  endfacet
  facet normal -1.000000e+000  0.000000e+000  0.000000e+000
    outer loop
      vertex -1.800000e+001 -1.500000e+000  3.050000e+001
      vertex -1.800000e+001  5.150000e+001  1.500000e+000
      vertex -1.800000e+001 -1.500000e+000  1.500000e+000
    endloop
  endfacet
  facet normal  0.000000e+000  1.000000e+000  0.000000e+000
    outer loop
      vertex  2.550000e+001  5.300000e+001 -1.550000e+001
      vertex  1.650000e+001  5.300000e+001 -1.550000e+001
      vertex  2.550000e+001  5.300000e+001  1.500000e+000
    endloop
  endfacet
  facet normal  0.000000e+000  1.000000e+000  0.000000e+000
    outer loop
      vertex  2.550000e+001  5.300000e+001  1.500000e+000
      vertex  1.650000e+001  5.300000e+001 -1.550000e+001
      vertex  1.650000e+001  5.300000e+001  1.500000e+000
    endloop
  endfacet
  facet normal -1.000000e+000  0.000000e+000  0.000000e+000
    outer loop
      vertex -2.550000e+001 -1.200000e+001  0.000000e+000
      vertex -2.550000e+001 -1.200000e+001  1.500000e+000
      vertex -2.550000e+001  5.150000e+001  0.000000e+000
    endloop
  endfacet
  facet normal -1.000000e+000  0.000000e+000  0.000000e+000
    outer loop
      vertex -2.550000e+001  5.150000e+001  0.000000e+000
      vertex -2.550000e+001 -1.200000e+001  1.500000e+000
      vertex -2.550000e+001  5.300000e+001  1.500000e+000
    endloop
  endfacet
  facet normal -1.000000e+000  0.000000e+000  0.000000e+000
    outer loop
      vertex -2.550000e+001  5.150000e+001  0.000000e+000
      vertex -2.550000e+001  5.300000e+001  1.500000e+000
      vertex -2.550000e+001  5.150000e+001 -1.550000e+001
    endloop
  endfacet
  facet normal -1.000000e+000  0.000000e+000  0.000000e+000
    outer loop
      vertex -2.550000e+001  5.150000e+001 -1.550000e+001
      vertex -2.550000e+001  5.300000e+001  1.500000e+000
      vertex -2.550000e+001  5.300000e+001 -1.550000e+001
    endloop
  endfacet
  facet normal  1.000000e+000  0.000000e+000  0.000000e+000
    outer loop
      vertex  2.550000e+001 -1.200000e+001  1.110223e-016
      vertex  2.550000e+001  5.150000e+001  0.000000e+000
      vertex  2.550000e+001 -1.200000e+001  1.500000e+000
    endloop
  endfacet
  facet normal  1.000000e+000  -0.000000e+000  0.000000e+000
    outer loop
      vertex  2.550000e+001 -1.200000e+001  1.500000e+000
      vertex  2.550000e+001  5.150000e+001  0.000000e+000
      vertex  2.550000e+001  5.300000e+001  1.500000e+000
    endloop
  endfacet
  facet normal  1.000000e+000  0.000000e+000  0.000000e+000
    outer loop
      vertex  2.550000e+001  5.150000e+001  0.000000e+000
      vertex  2.550000e+001  5.150000e+001 -1.550000e+001
      vertex  2.550000e+001  5.300000e+001  1.500000e+000
    endloop
  endfacet
  facet normal  1.000000e+000  0.000000e+000  0.000000e+000
    outer loop
      vertex  2.550000e+001  5.300000e+001  1.500000e+000
      vertex  2.550000e+001  5.150000e+001 -1.550000e+001
      vertex  2.550000e+001  5.300000e+001 -1.550000e+001
    endloop
  endfacet
  facet normal -7.845888e-002 -9.969174e-001  -0.000000e+000
    outer loop
      vertex -2.250000e+001 -1.500000e+001  0.000000e+000
      vertex -2.250000e+001 -1.500000e+001  1.500000e+000
      vertex -2.296930e+001 -1.496307e+001  0.000000e+000
    endloop
  endfacet
  facet normal -7.845888e-002 -9.969174e-001  0.000000e+000
    outer loop
      vertex -2.296930e+001 -1.496307e+001  0.000000e+000
      vertex -2.250000e+001 -1.500000e+001  1.500000e+000
      vertex -2.296930e+001 -1.496307e+001  1.500000e+000
    endloop
  endfacet
  facet normal -2.334454e-001 -9.723699e-001  -0.000000e+000
    outer loop
      vertex -2.296930e+001 -1.496307e+001  0.000000e+000
      vertex -2.296930e+001 -1.496307e+001  1.500000e+000
      vertex -2.342705e+001 -1.485317e+001  0.000000e+000
    endloop
  endfacet
  facet normal -2.334454e-001 -9.723699e-001  0.000000e+000
    outer loop
      vertex -2.342705e+001 -1.485317e+001  0.000000e+000
      vertex -2.296930e+001 -1.496307e+001  1.500000e+000
      vertex -2.342705e+001 -1.485317e+001  1.500000e+000
    endloop
  endfacet
  facet normal -3.826844e-001 -9.238791e-001  -0.000000e+000
    outer loop
      vertex -2.342705e+001 -1.485317e+001  0.000000e+000
      vertex -2.342705e+001 -1.485317e+001  1.500000e+000
      vertex -2.386197e+001 -1.467302e+001  0.000000e+000
    endloop
  endfacet
  facet normal -3.826844e-001 -9.238791e-001  0.000000e+000
    outer loop
      vertex -2.386197e+001 -1.467302e+001  0.000000e+000
      vertex -2.342705e+001 -1.485317e+001  1.500000e+000
      vertex -2.386197e+001 -1.467302e+001  1.500000e+000
    endloop
  endfacet
  facet normal -5.224988e-001 -8.526400e-001  -0.000000e+000
    outer loop
      vertex -2.386197e+001 -1.467302e+001  0.000000e+000
      vertex -2.386197e+001 -1.467302e+001  1.500000e+000
      vertex -2.426336e+001 -1.442705e+001  0.000000e+000
    endloop
  endfacet
  facet normal -5.224988e-001 -8.526400e-001  0.000000e+000
    outer loop
      vertex -2.426336e+001 -1.442705e+001  0.000000e+000
      vertex -2.386197e+001 -1.467302e+001  1.500000e+000
      vertex -2.426336e+001 -1.442705e+001  1.500000e+000
    endloop
  endfacet
  facet normal -6.494462e-001 -7.604076e-001  -0.000000e+000
    outer loop
      vertex -2.426336e+001 -1.442705e+001  0.000000e+000
      vertex -2.426336e+001 -1.442705e+001  1.500000e+000
      vertex -2.462132e+001 -1.412132e+001  0.000000e+000
    endloop
  endfacet
  facet normal -6.494462e-001 -7.604076e-001  0.000000e+000
    outer loop
      vertex -2.462132e+001 -1.412132e+001  0.000000e+000
      vertex -2.426336e+001 -1.442705e+001  1.500000e+000
      vertex -2.462132e+001 -1.412132e+001  1.500000e+000
    endloop
  endfacet
  facet normal -7.604057e-001 -6.494483e-001  -0.000000e+000
    outer loop
      vertex -2.462132e+001 -1.412132e+001  0.000000e+000
      vertex -2.462132e+001 -1.412132e+001  1.500000e+000
      vertex -2.492705e+001 -1.376336e+001  0.000000e+000
    endloop
  endfacet
  facet normal -7.604057e-001 -6.494483e-001  0.000000e+000
    outer loop
      vertex -2.492705e+001 -1.376336e+001  0.000000e+000
      vertex -2.462132e+001 -1.412132e+001  1.500000e+000
      vertex -2.492705e+001 -1.376336e+001  1.500000e+000
    endloop
  endfacet
  facet normal -8.526409e-001 -5.224974e-001  -0.000000e+000
    outer loop
      vertex -2.492705e+001 -1.376336e+001  0.000000e+000
      vertex -2.492705e+001 -1.376336e+001  1.500000e+000
      vertex -2.517302e+001 -1.336197e+001  0.000000e+000
    endloop
  endfacet
  facet normal -8.526409e-001 -5.224974e-001  0.000000e+000
    outer loop
      vertex -2.517302e+001 -1.336197e+001  0.000000e+000
      vertex -2.492705e+001 -1.376336e+001  1.500000e+000
      vertex -2.517302e+001 -1.336197e+001  1.500000e+000
    endloop
  endfacet
  facet normal -9.238790e-001 -3.826847e-001  -0.000000e+000
    outer loop
      vertex -2.517302e+001 -1.336197e+001  0.000000e+000
      vertex -2.517302e+001 -1.336197e+001  1.500000e+000
      vertex -2.535317e+001 -1.292705e+001  0.000000e+000
    endloop
  endfacet
  facet normal -9.238790e-001 -3.826847e-001  0.000000e+000
    outer loop
      vertex -2.535317e+001 -1.292705e+001  0.000000e+000
      vertex -2.517302e+001 -1.336197e+001  1.500000e+000
      vertex -2.535317e+001 -1.292705e+001  1.500000e+000
    endloop
  endfacet
  facet normal -9.723707e-001 -2.334421e-001  -0.000000e+000
    outer loop
      vertex -2.535317e+001 -1.292705e+001  0.000000e+000
      vertex -2.535317e+001 -1.292705e+001  1.500000e+000
      vertex -2.546306e+001 -1.246930e+001  0.000000e+000
    endloop
  endfacet
  facet normal -9.723707e-001 -2.334421e-001  0.000000e+000
    outer loop
      vertex -2.546306e+001 -1.246930e+001  0.000000e+000
      vertex -2.535317e+001 -1.292705e+001  1.500000e+000
      vertex -2.546306e+001 -1.246930e+001  1.500000e+000
    endloop
  endfacet
  facet normal -9.969172e-001 -7.846089e-002  -0.000000e+000
    outer loop
      vertex -2.546306e+001 -1.246930e+001  0.000000e+000
      vertex -2.546306e+001 -1.246930e+001  1.500000e+000
      vertex -2.550000e+001 -1.200000e+001  0.000000e+000
    endloop
  endfacet
  facet normal -9.969172e-001 -7.846089e-002  0.000000e+000
    outer loop
      vertex -2.550000e+001 -1.200000e+001  0.000000e+000
      vertex -2.546306e+001 -1.246930e+001  1.500000e+000
      vertex -2.550000e+001 -1.200000e+001  1.500000e+000
    endloop
  endfacet
  facet normal  0.000000e+000 -1.000000e+000  0.000000e+000
    outer loop
      vertex -2.250000e+001 -1.500000e+001  1.500000e+000
      vertex -2.250000e+001 -1.500000e+001  0.000000e+000
      vertex  2.250000e+001 -1.500000e+001  1.500000e+000
    endloop
  endfacet
  facet normal  0.000000e+000 -1.000000e+000  -0.000000e+000
    outer loop
      vertex  2.250000e+001 -1.500000e+001  1.500000e+000
      vertex -2.250000e+001 -1.500000e+001  0.000000e+000
      vertex  2.250000e+001 -1.500000e+001  0.000000e+000
    endloop
  endfacet
  facet normal  9.969172e-001 -7.846089e-002  0.000000e+000
    outer loop
      vertex  2.550000e+001 -1.200000e+001  1.110223e-016
      vertex  2.550000e+001 -1.200000e+001  1.500000e+000
      vertex  2.546306e+001 -1.246930e+001  0.000000e+000
    endloop
  endfacet
  facet normal  9.969172e-001 -7.846089e-002  0.000000e+000
    outer loop
      vertex  2.546306e+001 -1.246930e+001  0.000000e+000
      vertex  2.550000e+001 -1.200000e+001  1.500000e+000
      vertex  2.546306e+001 -1.246930e+001  1.500000e+000
    endloop
  endfacet
  facet normal  9.723707e-001 -2.334421e-001  0.000000e+000
    outer loop
      vertex  2.546306e+001 -1.246930e+001  0.000000e+000
      vertex  2.546306e+001 -1.246930e+001  1.500000e+000
      vertex  2.535317e+001 -1.292705e+001  0.000000e+000
    endloop
  endfacet
  facet normal  9.723707e-001 -2.334421e-001  0.000000e+000
    outer loop
      vertex  2.535317e+001 -1.292705e+001  0.000000e+000
      vertex  2.546306e+001 -1.246930e+001  1.500000e+000
      vertex  2.535317e+001 -1.292705e+001  1.500000e+000
    endloop
  endfacet
  facet normal  9.238790e-001 -3.826847e-001  0.000000e+000
    outer loop
      vertex  2.535317e+001 -1.292705e+001  0.000000e+000
      vertex  2.535317e+001 -1.292705e+001  1.500000e+000
      vertex  2.517302e+001 -1.336197e+001  0.000000e+000
    endloop
  endfacet
  facet normal  9.238790e-001 -3.826847e-001  0.000000e+000
    outer loop
      vertex  2.517302e+001 -1.336197e+001  0.000000e+000
      vertex  2.535317e+001 -1.292705e+001  1.500000e+000
      vertex  2.517302e+001 -1.336197e+001  1.500000e+000
    endloop
  endfacet
  facet normal  8.526409e-001 -5.224974e-001  0.000000e+000
    outer loop
      vertex  2.517302e+001 -1.336197e+001  0.000000e+000
      vertex  2.517302e+001 -1.336197e+001  1.500000e+000
      vertex  2.492705e+001 -1.376336e+001  0.000000e+000
    endloop
  endfacet
  facet normal  8.526409e-001 -5.224974e-001  0.000000e+000
    outer loop
      vertex  2.492705e+001 -1.376336e+001  0.000000e+000
      vertex  2.517302e+001 -1.336197e+001  1.500000e+000
      vertex  2.492705e+001 -1.376336e+001  1.500000e+000
    endloop
  endfacet
  facet normal  7.604057e-001 -6.494483e-001  0.000000e+000
    outer loop
      vertex  2.492705e+001 -1.376336e+001  0.000000e+000
      vertex  2.492705e+001 -1.376336e+001  1.500000e+000
      vertex  2.462132e+001 -1.412132e+001  0.000000e+000
    endloop
  endfacet
  facet normal  7.604057e-001 -6.494483e-001  0.000000e+000
    outer loop
      vertex  2.462132e+001 -1.412132e+001  0.000000e+000
      vertex  2.492705e+001 -1.376336e+001  1.500000e+000
      vertex  2.462132e+001 -1.412132e+001  1.500000e+000
    endloop
  endfacet
  facet normal  6.494462e-001 -7.604076e-001  0.000000e+000
    outer loop
      vertex  2.462132e+001 -1.412132e+001  0.000000e+000
      vertex  2.462132e+001 -1.412132e+001  1.500000e+000
      vertex  2.426336e+001 -1.442705e+001  0.000000e+000
    endloop
  endfacet
  facet normal  6.494462e-001 -7.604076e-001  0.000000e+000
    outer loop
      vertex  2.426336e+001 -1.442705e+001  0.000000e+000
      vertex  2.462132e+001 -1.412132e+001  1.500000e+000
      vertex  2.426336e+001 -1.442705e+001  1.500000e+000
    endloop
  endfacet
  facet normal  5.224988e-001 -8.526400e-001  0.000000e+000
    outer loop
      vertex  2.426336e+001 -1.442705e+001  0.000000e+000
      vertex  2.426336e+001 -1.442705e+001  1.500000e+000
      vertex  2.386197e+001 -1.467302e+001  0.000000e+000
    endloop
  endfacet
  facet normal  5.224988e-001 -8.526400e-001  0.000000e+000
    outer loop
      vertex  2.386197e+001 -1.467302e+001  0.000000e+000
      vertex  2.426336e+001 -1.442705e+001  1.500000e+000
      vertex  2.386197e+001 -1.467302e+001  1.500000e+000
    endloop
  endfacet
  facet normal  3.826844e-001 -9.238791e-001  0.000000e+000
    outer loop
      vertex  2.386197e+001 -1.467302e+001  0.000000e+000
      vertex  2.386197e+001 -1.467302e+001  1.500000e+000
      vertex  2.342705e+001 -1.485317e+001  0.000000e+000
    endloop
  endfacet
  facet normal  3.826844e-001 -9.238791e-001  0.000000e+000
    outer loop
      vertex  2.342705e+001 -1.485317e+001  0.000000e+000
      vertex  2.386197e+001 -1.467302e+001  1.500000e+000
      vertex  2.342705e+001 -1.485317e+001  1.500000e+000
    endloop
  endfacet
  facet normal  2.334454e-001 -9.723699e-001  0.000000e+000
    outer loop
      vertex  2.342705e+001 -1.485317e+001  0.000000e+000
      vertex  2.342705e+001 -1.485317e+001  1.500000e+000
      vertex  2.296930e+001 -1.496307e+001  0.000000e+000
    endloop
  endfacet
  facet normal  2.334454e-001 -9.723699e-001  0.000000e+000
    outer loop
      vertex  2.296930e+001 -1.496307e+001  0.000000e+000
      vertex  2.342705e+001 -1.485317e+001  1.500000e+000
      vertex  2.296930e+001 -1.496307e+001  1.500000e+000
    endloop
  endfacet
  facet normal  7.845888e-002 -9.969174e-001  0.000000e+000
    outer loop
      vertex  2.296930e+001 -1.496307e+001  0.000000e+000
      vertex  2.296930e+001 -1.496307e+001  1.500000e+000
      vertex  2.250000e+001 -1.500000e+001  0.000000e+000
    endloop
  endfacet
  facet normal  7.845888e-002 -9.969174e-001  0.000000e+000
    outer loop
      vertex  2.250000e+001 -1.500000e+001  0.000000e+000
      vertex  2.296930e+001 -1.496307e+001  1.500000e+000
      vertex  2.250000e+001 -1.500000e+001  1.500000e+000
    endloop
  endfacet
  facet normal  0.000000e+000 -1.000000e+000  0.000000e+000
    outer loop
      vertex -1.650000e+001  5.150000e+001  8.881784e-016
      vertex -2.550000e+001  5.150000e+001  0.000000e+000
      vertex -1.650000e+001  5.150000e+001 -1.550000e+001
    endloop
  endfacet
  facet normal  0.000000e+000 -1.000000e+000  0.000000e+000
    outer loop
      vertex -1.650000e+001  5.150000e+001 -1.550000e+001
      vertex -2.550000e+001  5.150000e+001  0.000000e+000
      vertex -2.550000e+001  5.150000e+001 -1.550000e+001
    endloop
  endfacet
  facet normal  0.000000e+000 -1.000000e+000  0.000000e+000
    outer loop
      vertex  2.550000e+001  5.150000e+001  0.000000e+000
      vertex  1.650000e+001  5.150000e+001  8.881784e-016
      vertex  2.550000e+001  5.150000e+001 -1.550000e+001
    endloop
  endfacet
  facet normal  0.000000e+000 -1.000000e+000  0.000000e+000
    outer loop
      vertex  2.550000e+001  5.150000e+001 -1.550000e+001
      vertex  1.650000e+001  5.150000e+001  8.881784e-016
      vertex  1.650000e+001  5.150000e+001 -1.550000e+001
    endloop
  endfacet
  facet normal  -0.000000e+000  0.000000e+000 -1.000000e+000
    outer loop
      vertex  1.650000e+001  5.300000e+001 -1.550000e+001
      vertex  2.550000e+001  5.300000e+001 -1.550000e+001
      vertex  1.650000e+001  5.150000e+001 -1.550000e+001
    endloop
  endfacet
  facet normal  0.000000e+000  0.000000e+000 -1.000000e+000
    outer loop
      vertex  1.650000e+001  5.150000e+001 -1.550000e+001
      vertex  2.550000e+001  5.300000e+001 -1.550000e+001
      vertex  2.550000e+001  5.150000e+001 -1.550000e+001
    endloop
  endfacet
  facet normal  0.000000e+000  1.000000e+000  0.000000e+000
    outer loop
      vertex -1.650000e+001  5.300000e+001 -1.550000e+001
      vertex -2.550000e+001  5.300000e+001 -1.550000e+001
      vertex -1.650000e+001  5.300000e+001  1.500000e+000
    endloop
  endfacet
  facet normal  0.000000e+000  1.000000e+000  0.000000e+000
    outer loop
      vertex -1.650000e+001  5.300000e+001  1.500000e+000
      vertex -2.550000e+001  5.300000e+001 -1.550000e+001
      vertex -2.550000e+001  5.300000e+001  1.500000e+000
    endloop
  endfacet
  facet normal  -0.000000e+000  0.000000e+000 -1.000000e+000
    outer loop
      vertex -2.550000e+001  5.300000e+001 -1.550000e+001
      vertex -1.650000e+001  5.300000e+001 -1.550000e+001
      vertex -2.550000e+001  5.150000e+001 -1.550000e+001
    endloop
  endfacet
  facet normal  0.000000e+000  0.000000e+000 -1.000000e+000
    outer loop
      vertex -2.550000e+001  5.150000e+001 -1.550000e+001
      vertex -1.650000e+001  5.300000e+001 -1.550000e+001
      vertex -1.650000e+001  5.150000e+001 -1.550000e+001
    endloop
  endfacet
endsolid CATIA STL
