solid CATIA STL
  facet normal  1.000000e+000  0.000000e+000  0.000000e+000
    outer loop
      vertex  3.200000e+001  1.817797e+002 -6.338441e+001
      vertex  3.200000e+001  1.717797e+002 -5.338441e+001
      vertex  3.200000e+001 -9.822030e+001 -6.338441e+001
    endloop
  endfacet
  facet normal  1.000000e+000  0.000000e+000  0.000000e+000
    outer loop
      vertex  3.200000e+001 -9.822030e+001 -6.338441e+001
      vertex  3.200000e+001  1.717797e+002 -5.338441e+001
      vertex  3.200000e+001 -8.822030e+001 -5.338441e+001
    endloop
  endfacet
  facet normal  1.000000e+000  0.000000e+000  0.000000e+000
    outer loop
      vertex  3.200000e+001 -9.822030e+001 -6.338441e+001
      vertex  3.200000e+001 -8.822030e+001 -5.338441e+001
      vertex  3.200000e+001 -9.822030e+001  5.161559e+001
    endloop
  endfacet
  facet normal  9.999999e-001  0.000000e+000  0.000000e+000
    outer loop
      vertex  3.200000e+001 -9.822030e+001  5.161559e+001
      vertex  3.200000e+001 -8.822030e+001 -5.338441e+001
      vertex  3.200000e+001 -8.822030e+001  4.161559e+001
    endloop
  endfacet
  facet normal  1.000000e+000  0.000000e+000  -0.000000e+000
    outer loop
      vertex  3.200000e+001 -9.822030e+001  5.161559e+001
      vertex  3.200000e+001 -8.822030e+001  4.161559e+001
      vertex  3.200000e+001  1.817797e+002  5.161559e+001
    endloop
  endfacet
  facet normal  1.000000e+000  0.000000e+000  0.000000e+000
    outer loop
      vertex  3.200000e+001  1.817797e+002  5.161559e+001
      vertex  3.200000e+001 -8.822030e+001  4.161559e+001
      vertex  3.200000e+001  1.717797e+002  4.161559e+001
    endloop
  endfacet
  facet normal  1.000000e+000  -0.000000e+000  0.000000e+000
    outer loop
      vertex  3.200000e+001  1.817797e+002  5.161559e+001
      vertex  3.200000e+001  1.717797e+002  4.161559e+001
      vertex  3.200000e+001  1.817797e+002 -6.338441e+001
    endloop
  endfacet
  facet normal  9.999999e-001  0.000000e+000  0.000000e+000
    outer loop
      vertex  3.200000e+001  1.817797e+002 -6.338441e+001
      vertex  3.200000e+001  1.717797e+002  4.161559e+001
      vertex  3.200000e+001  1.717797e+002 -5.338441e+001
    endloop
  endfacet
  facet normal  0.000000e+000 -9.999999e-001  0.000000e+000
    outer loop
      vertex  3.000000e+001 -9.022030e+001  4.361559e+001
      vertex  0.000000e+000 -9.022030e+001  4.361559e+001
      vertex  3.000000e+001 -9.022030e+001 -5.538441e+001
    endloop
  endfacet
  facet normal  0.000000e+000 -9.999999e-001  0.000000e+000
    outer loop
      vertex  3.000000e+001 -9.022030e+001 -5.538441e+001
      vertex  0.000000e+000 -9.022030e+001  4.361559e+001
      vertex  0.000000e+000 -9.022030e+001 -5.538441e+001
    endloop
  endfacet
  facet normal  0.000000e+000  0.000000e+000 -1.000000e+000
    outer loop
      vertex  3.000000e+001  1.737797e+002 -5.538441e+001
      vertex  3.000000e+001 -9.022030e+001 -5.538441e+001
      vertex  0.000000e+000  1.737797e+002 -5.538441e+001
    endloop
  endfacet
  facet normal  0.000000e+000  0.000000e+000 -1.000000e+000
    outer loop
      vertex  0.000000e+000  1.737797e+002 -5.538441e+001
      vertex  3.000000e+001 -9.022030e+001 -5.538441e+001
      vertex  0.000000e+000 -9.022030e+001 -5.538441e+001
    endloop
  endfacet
  facet normal  0.000000e+000  9.999999e-001  0.000000e+000
    outer loop
      vertex  3.000000e+001  1.737797e+002 -5.538441e+001
      vertex  0.000000e+000  1.737797e+002 -5.538441e+001
      vertex  3.000000e+001  1.737797e+002  4.361559e+001
    endloop
  endfacet
  facet normal  0.000000e+000  9.999999e-001  0.000000e+000
    outer loop
      vertex  3.000000e+001  1.737797e+002  4.361559e+001
      vertex  0.000000e+000  1.737797e+002 -5.538441e+001
      vertex  0.000000e+000  1.737797e+002  4.361559e+001
    endloop
  endfacet
  facet normal  0.000000e+000  0.000000e+000  1.000000e+000
    outer loop
      vertex  3.000000e+001 -9.022030e+001  4.361559e+001
      vertex  3.000000e+001  1.737797e+002  4.361559e+001
      vertex  0.000000e+000 -9.022030e+001  4.361559e+001
    endloop
  endfacet
  facet normal  0.000000e+000  0.000000e+000  1.000000e+000
    outer loop
      vertex  0.000000e+000 -9.022030e+001  4.361559e+001
      vertex  3.000000e+001  1.737797e+002  4.361559e+001
      vertex  0.000000e+000  1.737797e+002  4.361559e+001
    endloop
  endfacet
  facet normal -9.999999e-001  -0.000000e+000  0.000000e+000
    outer loop
      vertex  3.000000e+001 -9.822030e+001  5.161559e+001
      vertex  3.000000e+001 -9.022030e+001 -5.538441e+001
      vertex  3.000000e+001 -9.822030e+001 -6.338441e+001
    endloop
  endfacet
  facet normal -1.000000e+000  0.000000e+000  0.000000e+000
    outer loop
      vertex  3.000000e+001 -9.822030e+001 -6.338441e+001
      vertex  3.000000e+001 -9.022030e+001 -5.538441e+001
      vertex  3.000000e+001  1.737797e+002 -5.538441e+001
    endloop
  endfacet
  facet normal -1.000000e+000  0.000000e+000  -0.000000e+000
    outer loop
      vertex  3.000000e+001 -9.822030e+001 -6.338441e+001
      vertex  3.000000e+001  1.737797e+002 -5.538441e+001
      vertex  3.000000e+001  1.817797e+002 -6.338441e+001
    endloop
  endfacet
  facet normal -1.000000e+000  0.000000e+000  0.000000e+000
    outer loop
      vertex  3.000000e+001 -9.022030e+001 -5.538441e+001
      vertex  3.000000e+001 -9.822030e+001  5.161559e+001
      vertex  3.000000e+001 -9.022030e+001  4.361559e+001
    endloop
  endfacet
  facet normal -1.000000e+000  0.000000e+000  0.000000e+000
    outer loop
      vertex  3.000000e+001 -9.022030e+001  4.361559e+001
      vertex  3.000000e+001 -9.822030e+001  5.161559e+001
      vertex  3.000000e+001  1.817797e+002  5.161559e+001
    endloop
  endfacet
  facet normal -1.000000e+000  0.000000e+000  0.000000e+000
    outer loop
      vertex  3.000000e+001 -9.022030e+001  4.361559e+001
      vertex  3.000000e+001  1.817797e+002  5.161559e+001
      vertex  3.000000e+001  1.737797e+002  4.361559e+001
    endloop
  endfacet
  facet normal -9.999999e-001  0.000000e+000  0.000000e+000
    outer loop
      vertex  3.000000e+001  1.737797e+002  4.361559e+001
      vertex  3.000000e+001  1.817797e+002  5.161559e+001
      vertex  3.000000e+001  1.817797e+002 -6.338441e+001
    endloop
  endfacet
  facet normal -1.000000e+000  0.000000e+000  0.000000e+000
    outer loop
      vertex  3.000000e+001  1.737797e+002  4.361559e+001
      vertex  3.000000e+001  1.817797e+002 -6.338441e+001
      vertex  3.000000e+001  1.737797e+002 -5.538441e+001
    endloop
  endfacet
  facet normal  0.000000e+000  0.000000e+000 -1.000000e+000
    outer loop
      vertex  3.000000e+001 -9.822030e+001 -6.338441e+001
      vertex  3.000000e+001  1.817797e+002 -6.338441e+001
      vertex  3.200000e+001 -9.822030e+001 -6.338441e+001
    endloop
  endfacet
  facet normal  0.000000e+000  0.000000e+000 -1.000000e+000
    outer loop
      vertex  3.200000e+001 -9.822030e+001 -6.338441e+001
      vertex  3.000000e+001  1.817797e+002 -6.338441e+001
      vertex  3.200000e+001  1.817797e+002 -6.338441e+001
    endloop
  endfacet
  facet normal  0.000000e+000 -9.999999e-001  0.000000e+000
    outer loop
      vertex  3.000000e+001 -9.822030e+001 -6.338441e+001
      vertex  3.200000e+001 -9.822030e+001 -6.338441e+001
      vertex  3.000000e+001 -9.822030e+001  5.161559e+001
    endloop
  endfacet
  facet normal  0.000000e+000 -9.999999e-001  0.000000e+000
    outer loop
      vertex  3.000000e+001 -9.822030e+001  5.161559e+001
      vertex  3.200000e+001 -9.822030e+001 -6.338441e+001
      vertex  3.200000e+001 -9.822030e+001  5.161559e+001
    endloop
  endfacet
  facet normal  0.000000e+000  0.000000e+000  1.000000e+000
    outer loop
      vertex  3.000000e+001  1.817797e+002  5.161559e+001
      vertex  3.000000e+001 -9.822030e+001  5.161559e+001
      vertex  3.200000e+001  1.817797e+002  5.161559e+001
    endloop
  endfacet
  facet normal  0.000000e+000  0.000000e+000  1.000000e+000
    outer loop
      vertex  3.200000e+001  1.817797e+002  5.161559e+001
      vertex  3.000000e+001 -9.822030e+001  5.161559e+001
      vertex  3.200000e+001 -9.822030e+001  5.161559e+001
    endloop
  endfacet
  facet normal  0.000000e+000  9.999999e-001  0.000000e+000
    outer loop
      vertex  3.000000e+001  1.817797e+002  5.161559e+001
      vertex  3.200000e+001  1.817797e+002  5.161559e+001
      vertex  3.000000e+001  1.817797e+002 -6.338441e+001
    endloop
  endfacet
  facet normal  0.000000e+000  9.999999e-001  0.000000e+000
    outer loop
      vertex  3.000000e+001  1.817797e+002 -6.338441e+001
      vertex  3.200000e+001  1.817797e+002  5.161559e+001
      vertex  3.200000e+001  1.817797e+002 -6.338441e+001
    endloop
  endfacet
  facet normal  0.000000e+000  1.000000e+000  -0.000000e+000
    outer loop
      vertex  3.200000e+001 -8.822030e+001  4.161559e+001
      vertex  3.200000e+001 -8.822030e+001 -5.338441e+001
      vertex  2.000000e+000 -8.822030e+001  4.161559e+001
    endloop
  endfacet
  facet normal  0.000000e+000  1.000000e+000  0.000000e+000
    outer loop
      vertex  2.000000e+000 -8.822030e+001  4.161559e+001
      vertex  3.200000e+001 -8.822030e+001 -5.338441e+001
      vertex  2.000000e+000 -8.822030e+001 -5.338441e+001
    endloop
  endfacet
  facet normal  -0.000000e+000  0.000000e+000  9.999999e-001
    outer loop
      vertex  3.200000e+001  1.717797e+002 -5.338441e+001
      vertex  2.000000e+000  1.717797e+002 -5.338441e+001
      vertex  3.200000e+001 -8.822030e+001 -5.338441e+001
    endloop
  endfacet
  facet normal  0.000000e+000  0.000000e+000  9.999999e-001
    outer loop
      vertex  3.200000e+001 -8.822030e+001 -5.338441e+001
      vertex  2.000000e+000  1.717797e+002 -5.338441e+001
      vertex  2.000000e+000 -8.822030e+001 -5.338441e+001
    endloop
  endfacet
  facet normal  0.000000e+000 -1.000000e+000  -0.000000e+000
    outer loop
      vertex  3.200000e+001  1.717797e+002 -5.338441e+001
      vertex  3.200000e+001  1.717797e+002  4.161559e+001
      vertex  2.000000e+000  1.717797e+002 -5.338441e+001
    endloop
  endfacet
  facet normal  0.000000e+000 -1.000000e+000  0.000000e+000
    outer loop
      vertex  2.000000e+000  1.717797e+002 -5.338441e+001
      vertex  3.200000e+001  1.717797e+002  4.161559e+001
      vertex  2.000000e+000  1.717797e+002  4.161559e+001
    endloop
  endfacet
  facet normal  0.000000e+000  0.000000e+000 -9.999999e-001
    outer loop
      vertex  3.200000e+001 -8.822030e+001  4.161559e+001
      vertex  2.000000e+000 -8.822030e+001  4.161559e+001
      vertex  3.200000e+001  1.717797e+002  4.161559e+001
    endloop
  endfacet
  facet normal  -0.000000e+000  0.000000e+000 -9.999999e-001
    outer loop
      vertex  3.200000e+001  1.717797e+002  4.161559e+001
      vertex  2.000000e+000 -8.822030e+001  4.161559e+001
      vertex  2.000000e+000  1.717797e+002  4.161559e+001
    endloop
  endfacet
  facet normal  1.000000e+000  0.000000e+000  0.000000e+000
    outer loop
      vertex  2.000000e+000 -8.822030e+001  4.161559e+001
      vertex  2.000000e+000 -8.822030e+001 -5.338441e+001
      vertex  2.000000e+000  1.717797e+002  4.161559e+001
    endloop
  endfacet
  facet normal  1.000000e+000  0.000000e+000  0.000000e+000
    outer loop
      vertex  2.000000e+000  1.717797e+002  4.161559e+001
      vertex  2.000000e+000 -8.822030e+001 -5.338441e+001
      vertex  2.000000e+000  1.717797e+002 -5.338441e+001
    endloop
  endfacet
  facet normal -1.000000e+000  0.000000e+000  0.000000e+000
    outer loop
      vertex  0.000000e+000 -9.022030e+001 -5.538441e+001
      vertex  0.000000e+000 -9.022030e+001  4.361559e+001
      vertex  0.000000e+000  1.737797e+002 -5.538441e+001
    endloop
  endfacet
  facet normal -1.000000e+000  0.000000e+000  0.000000e+000
    outer loop
      vertex  0.000000e+000  1.737797e+002 -5.538441e+001
      vertex  0.000000e+000 -9.022030e+001  4.361559e+001
      vertex  0.000000e+000  1.737797e+002  4.361559e+001
    endloop
  endfacet
endsolid CATIA STL
