solid CATIA STL
  facet normal  0.000000e+000  -0.000000e+000 -1.000000e+000
    outer loop
      vertex -2.453424e+002  5.650000e+001  0.000000e+000
      vertex -2.450495e+002  5.720711e+001  0.000000e+000
      vertex  3.465759e+001  4.050000e+001  0.000000e+000
    endloop
  endfacet
  facet normal  0.000000e+000  0.000000e+000 -1.000000e+000
    outer loop
      vertex -2.453424e+002  5.650000e+001  0.000000e+000
      vertex  3.465759e+001  4.050000e+001  0.000000e+000
      vertex -2.233424e+002  4.050000e+001  0.000000e+000
    endloop
  endfacet
  facet normal  -0.000000e+000  0.000000e+000 -1.000000e+000
    outer loop
      vertex -2.453424e+002  5.650000e+001  0.000000e+000
      vertex -2.233424e+002  4.050000e+001  0.000000e+000
      vertex -2.258424e+002  3.983013e+001  0.000000e+000
    endloop
  endfacet
  facet normal  -0.000000e+000  0.000000e+000 -1.000000e+000
    outer loop
      vertex -2.453424e+002  5.650000e+001  0.000000e+000
      vertex -2.258424e+002  3.983013e+001  0.000000e+000
      vertex -2.276725e+002  3.800000e+001  0.000000e+000
    endloop
  endfacet
  facet normal  -0.000000e+000  0.000000e+000 -1.000000e+000
    outer loop
      vertex -2.453424e+002  5.650000e+001  0.000000e+000
      vertex -2.276725e+002  3.800000e+001  0.000000e+000
      vertex -2.283424e+002  3.550000e+001  0.000000e+000
    endloop
  endfacet
  facet normal  -0.000000e+000  -0.000000e+000 -1.000000e+000
    outer loop
      vertex -2.453424e+002  5.650000e+001  0.000000e+000
      vertex -2.283424e+002  3.550000e+001  0.000000e+000
      vertex -2.283424e+002 -3.950000e+001  0.000000e+000
    endloop
  endfacet
  facet normal  -0.000000e+000  0.000000e+000 -1.000000e+000
    outer loop
      vertex -2.453424e+002  5.650000e+001  0.000000e+000
      vertex -2.283424e+002 -3.950000e+001  0.000000e+000
      vertex -2.453424e+002 -6.050000e+001  0.000000e+000
    endloop
  endfacet
  facet normal  0.000000e+000  -0.000000e+000 -1.000000e+000
    outer loop
      vertex -2.453424e+002 -6.050000e+001  0.000000e+000
      vertex -2.283424e+002 -3.950000e+001  0.000000e+000
      vertex -2.276725e+002 -4.200000e+001  0.000000e+000
    endloop
  endfacet
  facet normal  0.000000e+000  -0.000000e+000 -1.000000e+000
    outer loop
      vertex -2.453424e+002 -6.050000e+001  0.000000e+000
      vertex -2.276725e+002 -4.200000e+001  0.000000e+000
      vertex -2.258424e+002 -4.383013e+001  0.000000e+000
    endloop
  endfacet
  facet normal  0.000000e+000  -0.000000e+000 -1.000000e+000
    outer loop
      vertex -2.453424e+002 -6.050000e+001  0.000000e+000
      vertex -2.258424e+002 -4.383013e+001  0.000000e+000
      vertex -2.233424e+002 -4.450000e+001  0.000000e+000
    endloop
  endfacet
  facet normal  0.000000e+000  -0.000000e+000 -1.000000e+000
    outer loop
      vertex -2.453424e+002 -6.050000e+001  0.000000e+000
      vertex -2.233424e+002 -4.450000e+001  0.000000e+000
      vertex  3.465759e+001 -4.450000e+001  0.000000e+000
    endloop
  endfacet
  facet normal  0.000000e+000  -0.000000e+000 -1.000000e+000
    outer loop
      vertex -2.453424e+002 -6.050000e+001  0.000000e+000
      vertex  3.465759e+001 -4.450000e+001  0.000000e+000
      vertex  3.465759e+001 -6.150000e+001  0.000000e+000
    endloop
  endfacet
  facet normal  0.000000e+000  0.000000e+000 -1.000000e+000
    outer loop
      vertex -2.453424e+002 -6.050000e+001  0.000000e+000
      vertex  3.465759e+001 -6.150000e+001  0.000000e+000
      vertex -2.443424e+002 -6.150000e+001  0.000000e+000
    endloop
  endfacet
  facet normal  0.000000e+000  0.000000e+000 -9.999999e-001
    outer loop
      vertex -2.453424e+002 -6.050000e+001  0.000000e+000
      vertex -2.443424e+002 -6.150000e+001  0.000000e+000
      vertex -2.450495e+002 -6.120711e+001  0.000000e+000
    endloop
  endfacet
  facet normal  0.000000e+000  -0.000000e+000 -1.000000e+000
    outer loop
      vertex -2.450495e+002  5.720711e+001  0.000000e+000
      vertex -2.443424e+002  5.750000e+001  0.000000e+000
      vertex  3.465759e+001  4.050000e+001  0.000000e+000
    endloop
  endfacet
  facet normal  0.000000e+000  0.000000e+000 -1.000000e+000
    outer loop
      vertex  3.465759e+001  4.050000e+001  0.000000e+000
      vertex -2.443424e+002  5.750000e+001  0.000000e+000
      vertex  3.465759e+001  5.750000e+001  0.000000e+000
    endloop
  endfacet
  facet normal  9.999999e-001  0.000000e+000  0.000000e+000
    outer loop
      vertex  3.465759e+001  5.750000e+001  0.000000e+000
      vertex  3.465759e+001  5.750000e+001  1.193883e+001
      vertex  3.465759e+001  5.650000e+001  1.000000e+000
    endloop
  endfacet
  facet normal  1.000000e+000  0.000000e+000  0.000000e+000
    outer loop
      vertex  3.465759e+001  5.650000e+001  1.000000e+000
      vertex  3.465759e+001  5.750000e+001  1.193883e+001
      vertex  3.465759e+001  5.722777e+001  1.262464e+001
    endloop
  endfacet
  facet normal  1.000000e+000  0.000000e+000  0.000000e+000
    outer loop
      vertex  3.465759e+001  5.650000e+001  1.000000e+000
      vertex  3.465759e+001  5.722777e+001  1.262464e+001
      vertex  3.465759e+001  5.650000e+001  1.293707e+001
    endloop
  endfacet
  facet normal  1.000000e+000  -0.000000e+000  0.000000e+000
    outer loop
      vertex  3.465759e+001  5.650000e+001  1.293707e+001
      vertex  3.465759e+001  5.722777e+001  1.262464e+001
      vertex  3.465759e+001  5.655931e+001  1.293707e+001
    endloop
  endfacet
  facet normal  1.000000e+000  -0.000000e+000  0.000000e+000
    outer loop
      vertex  3.465759e+001  5.650000e+001  1.000000e+000
      vertex  3.465759e+001  4.050000e+001  1.000000e+000
      vertex  3.465759e+001  5.750000e+001  0.000000e+000
    endloop
  endfacet
  facet normal  1.000000e+000  0.000000e+000  0.000000e+000
    outer loop
      vertex  3.465759e+001  5.750000e+001  0.000000e+000
      vertex  3.465759e+001  4.050000e+001  1.000000e+000
      vertex  3.465759e+001  4.050000e+001  0.000000e+000
    endloop
  endfacet
  facet normal  0.000000e+000  1.000000e+000  0.000000e+000
    outer loop
      vertex  5.465759e+001  5.650000e+001  1.000000e+000
      vertex  3.465759e+001  5.650000e+001  1.000000e+000
      vertex  5.465759e+001  5.650000e+001  1.293707e+001
    endloop
  endfacet
  facet normal  0.000000e+000  1.000000e+000  0.000000e+000
    outer loop
      vertex  5.465759e+001  5.650000e+001  1.293707e+001
      vertex  3.465759e+001  5.650000e+001  1.000000e+000
      vertex  3.465759e+001  5.650000e+001  1.293707e+001
    endloop
  endfacet
  facet normal  1.157486e-003  4.234100e-001  9.059374e-001
    outer loop
      vertex  3.465759e+001  5.655931e+001  1.293707e+001
      vertex  3.465759e+001  5.722777e+001  1.262464e+001
      vertex -2.534241e+001  5.696536e+001  1.282395e+001
    endloop
  endfacet
  facet normal -4.166442e-004  2.107559e-001  9.775386e-001
    outer loop
      vertex  3.465759e+001  5.655931e+001  1.293707e+001
      vertex -2.534241e+001  5.696536e+001  1.282395e+001
      vertex -2.534241e+001  5.644069e+001  1.293707e+001
    endloop
  endfacet
  facet normal  0.000000e+000  0.000000e+000  9.999999e-001
    outer loop
      vertex  3.465759e+001  5.655931e+001  1.293707e+001
      vertex -2.534241e+001  5.644069e+001  1.293707e+001
      vertex  5.465759e+001  5.644069e+001  1.293707e+001
    endloop
  endfacet
  facet normal  0.000000e+000  -0.000000e+000  9.999999e-001
    outer loop
      vertex  3.465759e+001  5.655931e+001  1.293707e+001
      vertex  5.465759e+001  5.644069e+001  1.293707e+001
      vertex  5.465759e+001  5.650000e+001  1.293707e+001
    endloop
  endfacet
  facet normal  0.000000e+000  -0.000000e+000  9.999999e-001
    outer loop
      vertex  3.465759e+001  5.655931e+001  1.293707e+001
      vertex  5.465759e+001  5.650000e+001  1.293707e+001
      vertex  5.465759e+001  5.655931e+001  1.293707e+001
    endloop
  endfacet
  facet normal  -0.000000e+000  9.294544e-001  3.689368e-001
    outer loop
      vertex  3.465759e+001  5.750000e+001  1.193883e+001
      vertex -2.534241e+001  5.750000e+001  1.193883e+001
      vertex  3.465759e+001  5.722777e+001  1.262464e+001
    endloop
  endfacet
  facet normal  1.303240e-003  9.633173e-001  2.683621e-001
    outer loop
      vertex  3.465759e+001  5.722777e+001  1.262464e+001
      vertex -2.534241e+001  5.750000e+001  1.193883e+001
      vertex -2.534241e+001  5.735596e+001  1.245586e+001
    endloop
  endfacet
  facet normal -5.820105e-004  6.858214e-001  7.277697e-001
    outer loop
      vertex  3.465759e+001  5.722777e+001  1.262464e+001
      vertex -2.534241e+001  5.735596e+001  1.245586e+001
      vertex -2.534241e+001  5.696536e+001  1.282395e+001
    endloop
  endfacet
  facet normal  -0.000000e+000  1.000000e+000  0.000000e+000
    outer loop
      vertex -2.443424e+002  5.750000e+001  0.000000e+000
      vertex -2.443424e+002  5.750000e+001  1.193883e+001
      vertex -4.284241e+001  5.750000e+001  1.193883e+001
    endloop
  endfacet
  facet normal  0.000000e+000  1.000000e+000  0.000000e+000
    outer loop
      vertex -2.443424e+002  5.750000e+001  0.000000e+000
      vertex -4.284241e+001  5.750000e+001  1.193883e+001
      vertex -4.239198e+001  5.750000e+001  1.183145e+001
    endloop
  endfacet
  facet normal  0.000000e+000  9.999999e-001  0.000000e+000
    outer loop
      vertex -2.443424e+002  5.750000e+001  0.000000e+000
      vertex -4.239198e+001  5.750000e+001  1.183145e+001
      vertex -4.205355e+001  5.750000e+001  1.155272e+001
    endloop
  endfacet
  facet normal  0.000000e+000  1.000000e+000  0.000000e+000
    outer loop
      vertex -2.443424e+002  5.750000e+001  0.000000e+000
      vertex -4.205355e+001  5.750000e+001  1.155272e+001
      vertex -4.184241e+001  5.750000e+001  1.093706e+001
    endloop
  endfacet
  facet normal  0.000000e+000  9.999999e-001  0.000000e+000
    outer loop
      vertex -2.443424e+002  5.750000e+001  0.000000e+000
      vertex -4.184241e+001  5.750000e+001  1.093706e+001
      vertex -4.184241e+001  5.750000e+001  4.000000e+000
    endloop
  endfacet
  facet normal  0.000000e+000  1.000000e+000  0.000000e+000
    outer loop
      vertex -2.443424e+002  5.750000e+001  0.000000e+000
      vertex -4.184241e+001  5.750000e+001  4.000000e+000
      vertex -4.144048e+001  5.750000e+001  2.500000e+000
    endloop
  endfacet
  facet normal  0.000000e+000  9.999999e-001  0.000000e+000
    outer loop
      vertex -2.443424e+002  5.750000e+001  0.000000e+000
      vertex -4.144048e+001  5.750000e+001  2.500000e+000
      vertex -4.034241e+001  5.750000e+001  1.401924e+000
    endloop
  endfacet
  facet normal  0.000000e+000  1.000000e+000  0.000000e+000
    outer loop
      vertex -2.443424e+002  5.750000e+001  0.000000e+000
      vertex -4.034241e+001  5.750000e+001  1.401924e+000
      vertex -3.884241e+001  5.750000e+001  1.000000e+000
    endloop
  endfacet
  facet normal  -0.000000e+000  1.000000e+000  0.000000e+000
    outer loop
      vertex -2.443424e+002  5.750000e+001  0.000000e+000
      vertex -3.884241e+001  5.750000e+001  1.000000e+000
      vertex -2.934241e+001  5.750000e+001  1.000000e+000
    endloop
  endfacet
  facet normal  -0.000000e+000  1.000000e+000  0.000000e+000
    outer loop
      vertex -2.634241e+001  5.750000e+001  4.000000e+000
      vertex -2.634241e+001  5.750000e+001  1.093706e+001
      vertex -2.623517e+001  5.750000e+001  1.138838e+001
    endloop
  endfacet
  facet normal  -0.000000e+000  1.000000e+000  0.000000e+000
    outer loop
      vertex -2.634241e+001  5.750000e+001  4.000000e+000
      vertex -2.623517e+001  5.750000e+001  1.138838e+001
      vertex -2.595704e+001  5.750000e+001  1.172727e+001
    endloop
  endfacet
  facet normal  -0.000000e+000  1.000000e+000  0.000000e+000
    outer loop
      vertex -2.634241e+001  5.750000e+001  4.000000e+000
      vertex -2.595704e+001  5.750000e+001  1.172727e+001
      vertex -2.534241e+001  5.750000e+001  1.193883e+001
    endloop
  endfacet
  facet normal  0.000000e+000  1.000000e+000  0.000000e+000
    outer loop
      vertex  3.465759e+001  5.750000e+001  0.000000e+000
      vertex -2.443424e+002  5.750000e+001  0.000000e+000
      vertex -2.934241e+001  5.750000e+001  1.000000e+000
    endloop
  endfacet
  facet normal  -0.000000e+000  1.000000e+000  0.000000e+000
    outer loop
      vertex  3.465759e+001  5.750000e+001  0.000000e+000
      vertex -2.934241e+001  5.750000e+001  1.000000e+000
      vertex -2.784241e+001  5.750000e+001  1.401924e+000
    endloop
  endfacet
  facet normal  -0.000000e+000  1.000000e+000  0.000000e+000
    outer loop
      vertex  3.465759e+001  5.750000e+001  0.000000e+000
      vertex -2.784241e+001  5.750000e+001  1.401924e+000
      vertex -2.674433e+001  5.750000e+001  2.500000e+000
    endloop
  endfacet
  facet normal  -0.000000e+000  9.999999e-001  0.000000e+000
    outer loop
      vertex  3.465759e+001  5.750000e+001  0.000000e+000
      vertex -2.674433e+001  5.750000e+001  2.500000e+000
      vertex -2.634241e+001  5.750000e+001  4.000000e+000
    endloop
  endfacet
  facet normal  -0.000000e+000  1.000000e+000  0.000000e+000
    outer loop
      vertex  3.465759e+001  5.750000e+001  0.000000e+000
      vertex -2.634241e+001  5.750000e+001  4.000000e+000
      vertex -2.534241e+001  5.750000e+001  1.193883e+001
    endloop
  endfacet
  facet normal  -0.000000e+000  9.999999e-001  0.000000e+000
    outer loop
      vertex  3.465759e+001  5.750000e+001  0.000000e+000
      vertex -2.534241e+001  5.750000e+001  1.193883e+001
      vertex  3.465759e+001  5.750000e+001  1.193883e+001
    endloop
  endfacet
  facet normal  1.000000e+000  0.000000e+000  0.000000e+000
    outer loop
      vertex  5.465759e+001  5.550000e+001  2.000000e+000
      vertex  5.465759e+001  5.644069e+001  1.293707e+001
      vertex  5.465759e+001  5.550000e+001  1.288118e+001
    endloop
  endfacet
  facet normal  9.999999e-001  -0.000000e+000  0.000000e+000
    outer loop
      vertex  5.465759e+001  5.650000e+001  1.293707e+001
      vertex  5.465759e+001  5.644069e+001  1.293707e+001
      vertex  5.465759e+001  5.650000e+001  1.000000e+000
    endloop
  endfacet
  facet normal  1.000000e+000  0.000000e+000  0.000000e+000
    outer loop
      vertex  5.465759e+001  5.650000e+001  1.000000e+000
      vertex  5.465759e+001  5.644069e+001  1.293707e+001
      vertex  5.465759e+001  5.550000e+001  2.000000e+000
    endloop
  endfacet
  facet normal  1.000000e+000  0.000000e+000  0.000000e+000
    outer loop
      vertex  5.465759e+001  5.650000e+001  1.000000e+000
      vertex  5.465759e+001  5.550000e+001  2.000000e+000
      vertex  5.465759e+001  4.050000e+001  1.000000e+000
    endloop
  endfacet
  facet normal  1.000000e+000  0.000000e+000  0.000000e+000
    outer loop
      vertex  5.465759e+001  4.050000e+001  1.000000e+000
      vertex  5.465759e+001  5.550000e+001  2.000000e+000
      vertex  5.465759e+001  4.050000e+001  2.000000e+000
    endloop
  endfacet
  facet normal  -0.000000e+000  0.000000e+000 -1.000000e+000
    outer loop
      vertex  3.465759e+001  5.650000e+001  1.000000e+000
      vertex  5.465759e+001  5.650000e+001  1.000000e+000
      vertex  3.465759e+001  4.050000e+001  1.000000e+000
    endloop
  endfacet
  facet normal  0.000000e+000  0.000000e+000 -1.000000e+000
    outer loop
      vertex  3.465759e+001  4.050000e+001  1.000000e+000
      vertex  5.465759e+001  5.650000e+001  1.000000e+000
      vertex  5.465759e+001  4.050000e+001  1.000000e+000
    endloop
  endfacet
  facet normal  0.000000e+000  0.000000e+000 -9.999999e-001
    outer loop
      vertex  5.465759e+001  5.650000e+001  1.293707e+001
      vertex  3.465759e+001  5.650000e+001  1.293707e+001
      vertex  5.465759e+001  5.655931e+001  1.293707e+001
    endloop
  endfacet
  facet normal  -0.000000e+000  0.000000e+000 -9.999999e-001
    outer loop
      vertex  5.465759e+001  5.655931e+001  1.293707e+001
      vertex  3.465759e+001  5.650000e+001  1.293707e+001
      vertex  3.465759e+001  5.655931e+001  1.293707e+001
    endloop
  endfacet
  facet normal  1.000000e+000  0.000000e+000  0.000000e+000
    outer loop
      vertex  3.465759e+001 -6.050000e+001  1.000000e+000
      vertex  3.465759e+001 -6.150000e+001  0.000000e+000
      vertex  3.465759e+001 -4.450000e+001  1.000000e+000
    endloop
  endfacet
  facet normal  1.000000e+000  0.000000e+000  0.000000e+000
    outer loop
      vertex  3.465759e+001 -4.450000e+001  1.000000e+000
      vertex  3.465759e+001 -6.150000e+001  0.000000e+000
      vertex  3.465759e+001 -4.450000e+001  0.000000e+000
    endloop
  endfacet
  facet normal  1.000000e+000  0.000000e+000  0.000000e+000
    outer loop
      vertex  3.465759e+001 -6.050000e+001  1.000000e+000
      vertex  3.465759e+001 -6.050000e+001  5.989508e+000
      vertex  3.465759e+001 -6.150000e+001  0.000000e+000
    endloop
  endfacet
  facet normal  1.000000e+000  0.000000e+000  0.000000e+000
    outer loop
      vertex  3.465759e+001 -6.150000e+001  0.000000e+000
      vertex  3.465759e+001 -6.050000e+001  5.989508e+000
      vertex  3.465759e+001 -6.055931e+001  5.985985e+000
    endloop
  endfacet
  facet normal  1.000000e+000  0.000000e+000  0.000000e+000
    outer loop
      vertex  3.465759e+001 -6.150000e+001  0.000000e+000
      vertex  3.465759e+001 -6.055931e+001  5.985985e+000
      vertex  3.465759e+001 -6.150000e+001  4.987745e+000
    endloop
  endfacet
  facet normal  1.000000e+000  0.000000e+000  0.000000e+000
    outer loop
      vertex  3.465759e+001 -6.150000e+001  4.987745e+000
      vertex  3.465759e+001 -6.055931e+001  5.985985e+000
      vertex  3.465759e+001 -6.122777e+001  5.673563e+000
    endloop
  endfacet
  facet normal  0.000000e+000 -1.000000e+000  0.000000e+000
    outer loop
      vertex  3.465759e+001 -6.050000e+001  1.000000e+000
      vertex  5.465759e+001 -6.050000e+001  1.000000e+000
      vertex  3.465759e+001 -6.050000e+001  5.989508e+000
    endloop
  endfacet
  facet normal  0.000000e+000 -1.000000e+000  0.000000e+000
    outer loop
      vertex  3.465759e+001 -6.050000e+001  5.989508e+000
      vertex  5.465759e+001 -6.050000e+001  1.000000e+000
      vertex  5.465759e+001 -6.050000e+001  5.989508e+000
    endloop
  endfacet
  facet normal  0.000000e+000 -5.930647e-002  9.982398e-001
    outer loop
      vertex  3.465759e+001 -6.050000e+001  5.989508e+000
      vertex  5.465759e+001 -5.950000e+001  6.048919e+000
      vertex -2.423424e+002 -5.950000e+001  6.048919e+000
    endloop
  endfacet
  facet normal  8.942068e-009 -5.930401e-002  9.982400e-001
    outer loop
      vertex  3.465759e+001 -6.055931e+001  5.985985e+000
      vertex  3.465759e+001 -6.050000e+001  5.989508e+000
      vertex -2.423424e+002 -5.950000e+001  6.048919e+000
    endloop
  endfacet
  facet normal  0.000000e+000 -5.930648e-002  9.982399e-001
    outer loop
      vertex  5.465759e+001 -6.050000e+001  5.989508e+000
      vertex  5.465759e+001 -5.950000e+001  6.048919e+000
      vertex  3.465759e+001 -6.050000e+001  5.989508e+000
    endloop
  endfacet
  facet normal  1.038625e-006 -5.930638e-002  9.982398e-001
    outer loop
      vertex -2.443424e+002  5.644069e+001  1.293707e+001
      vertex -2.443424e+002 -6.055931e+001  5.985985e+000
      vertex -2.433424e+002  5.450000e+001  1.282177e+001
    endloop
  endfacet
  facet normal  6.037648e-007 -5.930648e-002  9.982398e-001
    outer loop
      vertex -2.443424e+002  5.644069e+001  1.293707e+001
      vertex -2.433424e+002  5.450000e+001  1.282177e+001
      vertex -2.432325e+002  5.495575e+001  1.284884e+001
    endloop
  endfacet
  facet normal -9.565933e-007 -5.930765e-002  9.982398e-001
    outer loop
      vertex -2.443424e+002  5.644069e+001  1.293707e+001
      vertex -2.432325e+002  5.495575e+001  1.284884e+001
      vertex -2.429265e+002  5.531165e+001  1.286999e+001
    endloop
  endfacet
  facet normal  7.862471e-007 -5.930547e-002  9.982398e-001
    outer loop
      vertex -2.443424e+002  5.644069e+001  1.293707e+001
      vertex -2.429265e+002  5.531165e+001  1.286999e+001
      vertex -2.423424e+002  5.550000e+001  1.288118e+001
    endloop
  endfacet
  facet normal  0.000000e+000 -5.930713e-002  9.982398e-001
    outer loop
      vertex -2.443424e+002  5.644069e+001  1.293707e+001
      vertex -2.423424e+002  5.550000e+001  1.288118e+001
      vertex -4.284241e+001  5.550000e+001  1.288118e+001
    endloop
  endfacet
  facet normal  0.000000e+000 -5.930713e-002  9.982398e-001
    outer loop
      vertex -2.443424e+002  5.644069e+001  1.293707e+001
      vertex -4.284241e+001  5.550000e+001  1.288118e+001
      vertex -4.284241e+001  5.644069e+001  1.293707e+001
    endloop
  endfacet
  facet normal  0.000000e+000 -5.930633e-002  9.982399e-001
    outer loop
      vertex -2.443424e+002 -6.055931e+001  5.985985e+000
      vertex  3.465759e+001 -6.055931e+001  5.985985e+000
      vertex -2.423424e+002 -5.950000e+001  6.048919e+000
    endloop
  endfacet
  facet normal -1.254684e-007 -5.930610e-002  9.982398e-001
    outer loop
      vertex -2.443424e+002 -6.055931e+001  5.985985e+000
      vertex -2.423424e+002 -5.950000e+001  6.048919e+000
      vertex -2.427981e+002 -5.939012e+001  6.055447e+000
    endloop
  endfacet
  facet normal  2.895553e-007 -5.930665e-002  9.982399e-001
    outer loop
      vertex -2.443424e+002 -6.055931e+001  5.985985e+000
      vertex -2.427981e+002 -5.939012e+001  6.055447e+000
      vertex -2.431540e+002 -5.908427e+001  6.073618e+000
    endloop
  endfacet
  facet normal -3.326784e-008 -5.930639e-002  9.982398e-001
    outer loop
      vertex -2.443424e+002 -6.055931e+001  5.985985e+000
      vertex -2.431540e+002 -5.908427e+001  6.073618e+000
      vertex -2.433424e+002 -5.850000e+001  6.108330e+000
    endloop
  endfacet
  facet normal -6.996325e-008 -5.930637e-002  9.982399e-001
    outer loop
      vertex -2.443424e+002 -6.055931e+001  5.985985e+000
      vertex -2.433424e+002 -5.850000e+001  6.108330e+000
      vertex -2.433424e+002  5.450000e+001  1.282177e+001
    endloop
  endfacet
  facet normal  0.000000e+000 -4.234097e-001  9.059383e-001
    outer loop
      vertex  3.465759e+001 -6.055931e+001  5.985985e+000
      vertex -2.443424e+002 -6.055931e+001  5.985985e+000
      vertex  3.465759e+001 -6.122777e+001  5.673563e+000
    endloop
  endfacet
  facet normal  0.000000e+000 -4.234097e-001  9.059383e-001
    outer loop
      vertex  3.465759e+001 -6.122777e+001  5.673563e+000
      vertex -2.443424e+002 -6.055931e+001  5.985985e+000
      vertex -2.443424e+002 -6.122777e+001  5.673563e+000
    endloop
  endfacet
  facet normal  0.000000e+000 -9.294545e-001  3.689368e-001
    outer loop
      vertex  3.465759e+001 -6.122777e+001  5.673563e+000
      vertex -2.443424e+002 -6.122777e+001  5.673563e+000
      vertex  3.465759e+001 -6.150000e+001  4.987745e+000
    endloop
  endfacet
  facet normal  0.000000e+000 -9.294545e-001  3.689368e-001
    outer loop
      vertex  3.465759e+001 -6.150000e+001  4.987745e+000
      vertex -2.443424e+002 -6.122777e+001  5.673563e+000
      vertex -2.443424e+002 -6.150000e+001  4.987745e+000
    endloop
  endfacet
  facet normal  0.000000e+000 -1.000000e+000  0.000000e+000
    outer loop
      vertex  3.465759e+001 -6.150000e+001  4.987745e+000
      vertex -2.443424e+002 -6.150000e+001  4.987745e+000
      vertex  3.465759e+001 -6.150000e+001  0.000000e+000
    endloop
  endfacet
  facet normal  0.000000e+000 -1.000000e+000  0.000000e+000
    outer loop
      vertex  3.465759e+001 -6.150000e+001  0.000000e+000
      vertex -2.443424e+002 -6.150000e+001  4.987745e+000
      vertex -2.443424e+002 -6.150000e+001  0.000000e+000
    endloop
  endfacet
  facet normal  1.000000e+000  0.000000e+000  0.000000e+000
    outer loop
      vertex  5.465759e+001 -4.450000e+001  1.000000e+000
      vertex  5.465759e+001 -4.450000e+001  2.000000e+000
      vertex  5.465759e+001 -6.050000e+001  1.000000e+000
    endloop
  endfacet
  facet normal  1.000000e+000  0.000000e+000  0.000000e+000
    outer loop
      vertex  5.465759e+001 -6.050000e+001  1.000000e+000
      vertex  5.465759e+001 -4.450000e+001  2.000000e+000
      vertex  5.465759e+001 -5.950000e+001  2.000000e+000
    endloop
  endfacet
  facet normal  1.000000e+000  0.000000e+000  0.000000e+000
    outer loop
      vertex  5.465759e+001 -6.050000e+001  1.000000e+000
      vertex  5.465759e+001 -5.950000e+001  2.000000e+000
      vertex  5.465759e+001 -6.050000e+001  5.989508e+000
    endloop
  endfacet
  facet normal  1.000000e+000  -0.000000e+000  0.000000e+000
    outer loop
      vertex  5.465759e+001 -6.050000e+001  5.989508e+000
      vertex  5.465759e+001 -5.950000e+001  2.000000e+000
      vertex  5.465759e+001 -5.950000e+001  6.048919e+000
    endloop
  endfacet
  facet normal  -0.000000e+000  0.000000e+000 -1.000000e+000
    outer loop
      vertex  3.465759e+001 -4.450000e+001  1.000000e+000
      vertex  5.465759e+001 -4.450000e+001  1.000000e+000
      vertex  3.465759e+001 -6.050000e+001  1.000000e+000
    endloop
  endfacet
  facet normal  0.000000e+000  0.000000e+000 -1.000000e+000
    outer loop
      vertex  3.465759e+001 -6.050000e+001  1.000000e+000
      vertex  5.465759e+001 -4.450000e+001  1.000000e+000
      vertex  5.465759e+001 -6.050000e+001  1.000000e+000
    endloop
  endfacet
  facet normal  0.000000e+000  1.000000e+000  0.000000e+000
    outer loop
      vertex  5.465759e+001 -4.450000e+001  1.000000e+000
      vertex  3.465759e+001 -4.450000e+001  1.000000e+000
      vertex  5.465759e+001 -4.450000e+001  2.000000e+000
    endloop
  endfacet
  facet normal  0.000000e+000  1.000000e+000  -0.000000e+000
    outer loop
      vertex  5.465759e+001 -4.450000e+001  2.000000e+000
      vertex  3.465759e+001 -4.450000e+001  1.000000e+000
      vertex -2.233424e+002 -4.450000e+001  2.000000e+000
    endloop
  endfacet
  facet normal  0.000000e+000  1.000000e+000  0.000000e+000
    outer loop
      vertex -2.233424e+002 -4.450000e+001  2.000000e+000
      vertex  3.465759e+001 -4.450000e+001  1.000000e+000
      vertex  3.465759e+001 -4.450000e+001  0.000000e+000
    endloop
  endfacet
  facet normal  0.000000e+000  1.000000e+000  0.000000e+000
    outer loop
      vertex -2.233424e+002 -4.450000e+001  2.000000e+000
      vertex  3.465759e+001 -4.450000e+001  0.000000e+000
      vertex -2.233424e+002 -4.450000e+001  0.000000e+000
    endloop
  endfacet
  facet normal  0.000000e+000 -1.000000e+000  0.000000e+000
    outer loop
      vertex  3.465759e+001  4.050000e+001  1.000000e+000
      vertex  5.465759e+001  4.050000e+001  1.000000e+000
      vertex  5.465759e+001  4.050000e+001  2.000000e+000
    endloop
  endfacet
  facet normal  0.000000e+000 -1.000000e+000  0.000000e+000
    outer loop
      vertex  5.465759e+001  4.050000e+001  2.000000e+000
      vertex -2.233424e+002  4.050000e+001  2.000000e+000
      vertex  3.465759e+001  4.050000e+001  1.000000e+000
    endloop
  endfacet
  facet normal  -0.000000e+000 -1.000000e+000  0.000000e+000
    outer loop
      vertex  3.465759e+001  4.050000e+001  1.000000e+000
      vertex -2.233424e+002  4.050000e+001  2.000000e+000
      vertex -2.233424e+002  4.050000e+001  0.000000e+000
    endloop
  endfacet
  facet normal  0.000000e+000 -1.000000e+000  0.000000e+000
    outer loop
      vertex  3.465759e+001  4.050000e+001  1.000000e+000
      vertex -2.233424e+002  4.050000e+001  0.000000e+000
      vertex  3.465759e+001  4.050000e+001  0.000000e+000
    endloop
  endfacet
  facet normal  0.000000e+000 -1.000000e+000  0.000000e+000
    outer loop
      vertex -2.734241e+001  5.550000e+001  4.000000e+000
      vertex -2.696553e+001  5.550000e+001  1.204824e+001
      vertex -2.734241e+001  5.550000e+001  1.087765e+001
    endloop
  endfacet
  facet normal  0.000000e+000 -1.000000e+000  0.000000e+000
    outer loop
      vertex -2.734241e+001  5.550000e+001  2.000000e+000
      vertex  5.465759e+001  5.550000e+001  2.000000e+000
      vertex  5.465759e+001  5.550000e+001  1.288118e+001
    endloop
  endfacet
  facet normal  -0.000000e+000 -1.000000e+000  0.000000e+000
    outer loop
      vertex -2.734241e+001  5.550000e+001  2.000000e+000
      vertex  5.465759e+001  5.550000e+001  1.288118e+001
      vertex -2.534241e+001  5.550000e+001  1.288118e+001
    endloop
  endfacet
  facet normal  0.000000e+000 -1.000000e+000  0.000000e+000
    outer loop
      vertex -2.734241e+001  5.550000e+001  2.000000e+000
      vertex -2.534241e+001  5.550000e+001  1.288118e+001
      vertex -2.625385e+001  5.550000e+001  1.266103e+001
    endloop
  endfacet
  facet normal  0.000000e+000 -1.000000e+000  0.000000e+000
    outer loop
      vertex -2.734241e+001  5.550000e+001  2.000000e+000
      vertex -2.625385e+001  5.550000e+001  1.266103e+001
      vertex -2.696553e+001  5.550000e+001  1.204824e+001
    endloop
  endfacet
  facet normal  0.000000e+000 -9.999999e-001  0.000000e+000
    outer loop
      vertex -2.734241e+001  5.550000e+001  2.000000e+000
      vertex -2.696553e+001  5.550000e+001  1.204824e+001
      vertex -2.734241e+001  5.550000e+001  4.000000e+000
    endloop
  endfacet
  facet normal  0.000000e+000 -1.000000e+000  -0.000000e+000
    outer loop
      vertex -2.734241e+001  5.550000e+001  2.000000e+000
      vertex -2.734241e+001  5.550000e+001  4.000000e+000
      vertex -2.761036e+001  5.550000e+001  3.000000e+000
    endloop
  endfacet
  facet normal  0.000000e+000 -1.000000e+000  -0.000000e+000
    outer loop
      vertex -2.734241e+001  5.550000e+001  2.000000e+000
      vertex -2.761036e+001  5.550000e+001  3.000000e+000
      vertex -2.834241e+001  5.550000e+001  2.267949e+000
    endloop
  endfacet
  facet normal  0.000000e+000 -1.000000e+000  -0.000000e+000
    outer loop
      vertex -2.734241e+001  5.550000e+001  2.000000e+000
      vertex -2.834241e+001  5.550000e+001  2.267949e+000
      vertex -2.934241e+001  5.550000e+001  2.000000e+000
    endloop
  endfacet
  facet normal  0.000000e+000  1.000000e+000  -0.000000e+000
    outer loop
      vertex  5.465759e+001 -5.950000e+001  6.048919e+000
      vertex  5.465759e+001 -5.950000e+001  2.000000e+000
      vertex -2.423424e+002 -5.950000e+001  6.048919e+000
    endloop
  endfacet
  facet normal  0.000000e+000  1.000000e+000  0.000000e+000
    outer loop
      vertex -2.423424e+002 -5.950000e+001  6.048919e+000
      vertex  5.465759e+001 -5.950000e+001  2.000000e+000
      vertex -2.423424e+002 -5.950000e+001  2.000000e+000
    endloop
  endfacet
  facet normal  0.000000e+000 -5.930714e-002  9.982398e-001
    outer loop
      vertex  5.465759e+001  5.644069e+001  1.293707e+001
      vertex -2.534241e+001  5.644069e+001  1.293707e+001
      vertex  5.465759e+001  5.550000e+001  1.288118e+001
    endloop
  endfacet
  facet normal  0.000000e+000 -5.930714e-002  9.982398e-001
    outer loop
      vertex  5.465759e+001  5.550000e+001  1.288118e+001
      vertex -2.534241e+001  5.644069e+001  1.293707e+001
      vertex -2.534241e+001  5.550000e+001  1.288118e+001
    endloop
  endfacet
  facet normal  -0.000000e+000  0.000000e+000  1.000000e+000
    outer loop
      vertex -2.734241e+001  5.550000e+001  2.000000e+000
      vertex -2.934241e+001  5.550000e+001  2.000000e+000
      vertex  5.465759e+001  4.050000e+001  2.000000e+000
    endloop
  endfacet
  facet normal  0.000000e+000  -0.000000e+000  1.000000e+000
    outer loop
      vertex -2.734241e+001  5.550000e+001  2.000000e+000
      vertex  5.465759e+001  4.050000e+001  2.000000e+000
      vertex  5.465759e+001  5.550000e+001  2.000000e+000
    endloop
  endfacet
  facet normal  0.000000e+000  -0.000000e+000  1.000000e+000
    outer loop
      vertex -2.423424e+002 -5.950000e+001  2.000000e+000
      vertex  5.465759e+001 -5.950000e+001  2.000000e+000
      vertex  5.465759e+001 -4.450000e+001  2.000000e+000
    endloop
  endfacet
  facet normal  0.000000e+000  0.000000e+000  1.000000e+000
    outer loop
      vertex -2.423424e+002 -5.950000e+001  2.000000e+000
      vertex  5.465759e+001 -4.450000e+001  2.000000e+000
      vertex -2.233424e+002 -4.450000e+001  2.000000e+000
    endloop
  endfacet
  facet normal  0.000000e+000  0.000000e+000  1.000000e+000
    outer loop
      vertex -2.423424e+002 -5.950000e+001  2.000000e+000
      vertex -2.233424e+002 -4.450000e+001  2.000000e+000
      vertex -2.258424e+002 -4.383013e+001  2.000000e+000
    endloop
  endfacet
  facet normal  0.000000e+000  0.000000e+000  1.000000e+000
    outer loop
      vertex -2.423424e+002 -5.950000e+001  2.000000e+000
      vertex -2.258424e+002 -4.383013e+001  2.000000e+000
      vertex -2.276725e+002 -4.200000e+001  2.000000e+000
    endloop
  endfacet
  facet normal  0.000000e+000  0.000000e+000  1.000000e+000
    outer loop
      vertex -2.423424e+002 -5.950000e+001  2.000000e+000
      vertex -2.276725e+002 -4.200000e+001  2.000000e+000
      vertex -2.283424e+002 -3.950000e+001  2.000000e+000
    endloop
  endfacet
  facet normal  0.000000e+000  0.000000e+000  1.000000e+000
    outer loop
      vertex -2.423424e+002 -5.950000e+001  2.000000e+000
      vertex -2.283424e+002 -3.950000e+001  2.000000e+000
      vertex -2.423424e+002  5.550000e+001  2.000000e+000
    endloop
  endfacet
  facet normal  0.000000e+000  0.000000e+000  9.999999e-001
    outer loop
      vertex -2.423424e+002 -5.950000e+001  2.000000e+000
      vertex -2.423424e+002  5.550000e+001  2.000000e+000
      vertex -2.428424e+002  5.536602e+001  2.000000e+000
    endloop
  endfacet
  facet normal  0.000000e+000  0.000000e+000  9.999999e-001
    outer loop
      vertex -2.423424e+002 -5.950000e+001  2.000000e+000
      vertex -2.428424e+002  5.536602e+001  2.000000e+000
      vertex -2.428424e+002 -5.936602e+001  2.000000e+000
    endloop
  endfacet
  facet normal  0.000000e+000  -0.000000e+000  1.000000e+000
    outer loop
      vertex -2.423424e+002  5.550000e+001  2.000000e+000
      vertex -2.283424e+002 -3.950000e+001  2.000000e+000
      vertex -2.283424e+002  3.550000e+001  2.000000e+000
    endloop
  endfacet
  facet normal  0.000000e+000  -0.000000e+000  1.000000e+000
    outer loop
      vertex -2.423424e+002  5.550000e+001  2.000000e+000
      vertex -2.283424e+002  3.550000e+001  2.000000e+000
      vertex -2.276725e+002  3.800000e+001  2.000000e+000
    endloop
  endfacet
  facet normal  0.000000e+000  -0.000000e+000  1.000000e+000
    outer loop
      vertex -2.423424e+002  5.550000e+001  2.000000e+000
      vertex -2.276725e+002  3.800000e+001  2.000000e+000
      vertex -2.258424e+002  3.983013e+001  2.000000e+000
    endloop
  endfacet
  facet normal  0.000000e+000  -0.000000e+000  1.000000e+000
    outer loop
      vertex -2.423424e+002  5.550000e+001  2.000000e+000
      vertex -2.258424e+002  3.983013e+001  2.000000e+000
      vertex -2.233424e+002  4.050000e+001  2.000000e+000
    endloop
  endfacet
  facet normal  0.000000e+000  -0.000000e+000  1.000000e+000
    outer loop
      vertex -2.423424e+002  5.550000e+001  2.000000e+000
      vertex -2.233424e+002  4.050000e+001  2.000000e+000
      vertex -4.084241e+001  5.550000e+001  2.000000e+000
    endloop
  endfacet
  facet normal  -0.000000e+000  0.000000e+000  1.000000e+000
    outer loop
      vertex -2.934241e+001  5.650000e+001  2.000000e+000
      vertex -3.884241e+001  5.650000e+001  2.000000e+000
      vertex -2.934241e+001  5.550000e+001  2.000000e+000
    endloop
  endfacet
  facet normal  0.000000e+000  0.000000e+000  1.000000e+000
    outer loop
      vertex -2.934241e+001  5.550000e+001  2.000000e+000
      vertex -3.884241e+001  5.650000e+001  2.000000e+000
      vertex -3.884241e+001  5.550000e+001  2.000000e+000
    endloop
  endfacet
  facet normal  -0.000000e+000  0.000000e+000  1.000000e+000
    outer loop
      vertex -2.934241e+001  5.550000e+001  2.000000e+000
      vertex -3.884241e+001  5.550000e+001  2.000000e+000
      vertex  5.465759e+001  4.050000e+001  2.000000e+000
    endloop
  endfacet
  facet normal  0.000000e+000  0.000000e+000  1.000000e+000
    outer loop
      vertex -4.084241e+001  5.550000e+001  2.000000e+000
      vertex -2.233424e+002  4.050000e+001  2.000000e+000
      vertex -3.884241e+001  5.550000e+001  2.000000e+000
    endloop
  endfacet
  facet normal  0.000000e+000  0.000000e+000  1.000000e+000
    outer loop
      vertex -3.884241e+001  5.550000e+001  2.000000e+000
      vertex -2.233424e+002  4.050000e+001  2.000000e+000
      vertex  5.465759e+001  4.050000e+001  2.000000e+000
    endloop
  endfacet
  facet normal  0.000000e+000  0.000000e+000  1.000000e+000
    outer loop
      vertex -2.428424e+002 -5.936602e+001  2.000000e+000
      vertex -2.428424e+002  5.536602e+001  2.000000e+000
      vertex -2.432084e+002 -5.900000e+001  2.000000e+000
    endloop
  endfacet
  facet normal  0.000000e+000  0.000000e+000  1.000000e+000
    outer loop
      vertex -2.432084e+002 -5.900000e+001  2.000000e+000
      vertex -2.428424e+002  5.536602e+001  2.000000e+000
      vertex -2.432084e+002  5.500000e+001  2.000000e+000
    endloop
  endfacet
  facet normal  0.000000e+000  0.000000e+000  1.000000e+000
    outer loop
      vertex -2.432084e+002 -5.900000e+001  2.000000e+000
      vertex -2.432084e+002  5.500000e+001  2.000000e+000
      vertex -2.433424e+002 -5.850000e+001  2.000000e+000
    endloop
  endfacet
  facet normal  0.000000e+000  0.000000e+000  1.000000e+000
    outer loop
      vertex -2.433424e+002 -5.850000e+001  2.000000e+000
      vertex -2.432084e+002  5.500000e+001  2.000000e+000
      vertex -2.433424e+002  5.450000e+001  2.000000e+000
    endloop
  endfacet
  facet normal  1.000000e+000  -0.000000e+000  0.000000e+000
    outer loop
      vertex -2.433424e+002  5.450000e+001  1.282177e+001
      vertex -2.433424e+002 -5.850000e+001  6.108330e+000
      vertex -2.433424e+002  5.450000e+001  2.000000e+000
    endloop
  endfacet
  facet normal  1.000000e+000  0.000000e+000  0.000000e+000
    outer loop
      vertex -2.433424e+002  5.450000e+001  2.000000e+000
      vertex -2.433424e+002 -5.850000e+001  6.108330e+000
      vertex -2.433424e+002 -5.850000e+001  2.000000e+000
    endloop
  endfacet
  facet normal  0.000000e+000 -1.000000e+000  0.000000e+000
    outer loop
      vertex -4.084241e+001  5.550000e+001  1.087765e+001
      vertex -4.121928e+001  5.550000e+001  1.204824e+001
      vertex -4.084241e+001  5.550000e+001  4.000000e+000
    endloop
  endfacet
  facet normal  0.000000e+000 -1.000000e+000  0.000000e+000
    outer loop
      vertex -4.084241e+001  5.550000e+001  2.000000e+000
      vertex -3.884241e+001  5.550000e+001  2.000000e+000
      vertex -3.984241e+001  5.550000e+001  2.267949e+000
    endloop
  endfacet
  facet normal  -0.000000e+000 -1.000000e+000  0.000000e+000
    outer loop
      vertex -4.084241e+001  5.550000e+001  2.000000e+000
      vertex -3.984241e+001  5.550000e+001  2.267949e+000
      vertex -4.057446e+001  5.550000e+001  3.000000e+000
    endloop
  endfacet
  facet normal  -0.000000e+000 -9.999999e-001  0.000000e+000
    outer loop
      vertex -4.084241e+001  5.550000e+001  2.000000e+000
      vertex -4.057446e+001  5.550000e+001  3.000000e+000
      vertex -4.084241e+001  5.550000e+001  4.000000e+000
    endloop
  endfacet
  facet normal  -0.000000e+000 -9.999999e-001  -0.000000e+000
    outer loop
      vertex -4.084241e+001  5.550000e+001  2.000000e+000
      vertex -4.084241e+001  5.550000e+001  4.000000e+000
      vertex -4.121928e+001  5.550000e+001  1.204824e+001
    endloop
  endfacet
  facet normal  -0.000000e+000 -1.000000e+000  -0.000000e+000
    outer loop
      vertex -4.084241e+001  5.550000e+001  2.000000e+000
      vertex -4.121928e+001  5.550000e+001  1.204824e+001
      vertex -4.193096e+001  5.550000e+001  1.266103e+001
    endloop
  endfacet
  facet normal  -0.000000e+000 -1.000000e+000  -0.000000e+000
    outer loop
      vertex -4.084241e+001  5.550000e+001  2.000000e+000
      vertex -4.193096e+001  5.550000e+001  1.266103e+001
      vertex -4.284241e+001  5.550000e+001  1.288118e+001
    endloop
  endfacet
  facet normal  -0.000000e+000 -1.000000e+000  -0.000000e+000
    outer loop
      vertex -4.084241e+001  5.550000e+001  2.000000e+000
      vertex -4.284241e+001  5.550000e+001  1.288118e+001
      vertex -2.423424e+002  5.550000e+001  1.288118e+001
    endloop
  endfacet
  facet normal  0.000000e+000 -1.000000e+000  0.000000e+000
    outer loop
      vertex -4.084241e+001  5.550000e+001  2.000000e+000
      vertex -2.423424e+002  5.550000e+001  1.288118e+001
      vertex -2.423424e+002  5.550000e+001  2.000000e+000
    endloop
  endfacet
  facet normal  9.659270e-001 -2.588147e-001  0.000000e+000
    outer loop
      vertex -2.432084e+002  5.500000e+001  2.000000e+000
      vertex -2.433424e+002  5.450000e+001  1.282177e+001
      vertex -2.433424e+002  5.450000e+001  2.000000e+000
    endloop
  endfacet
  facet normal  9.721215e-001 -2.344748e-001  1.201268e-003
    outer loop
      vertex -2.433424e+002  5.450000e+001  1.282177e+001
      vertex -2.432084e+002  5.500000e+001  2.000000e+000
      vertex -2.432325e+002  5.495575e+001  1.284884e+001
    endloop
  endfacet
  facet normal  7.071025e-001 -7.071099e-001 -1.314553e-003
    outer loop
      vertex -2.432325e+002  5.495575e+001  1.284884e+001
      vertex -2.432084e+002  5.500000e+001  2.000000e+000
      vertex -2.428424e+002  5.536602e+001  2.000000e+000
    endloop
  endfacet
  facet normal  7.582127e-001 -6.520020e-001  2.607299e-003
    outer loop
      vertex -2.432325e+002  5.495575e+001  1.284884e+001
      vertex -2.428424e+002  5.536602e+001  2.000000e+000
      vertex -2.429265e+002  5.531165e+001  1.286999e+001
    endloop
  endfacet
  facet normal  2.588205e-001 -9.659212e-001 -2.828458e-003
    outer loop
      vertex -2.429265e+002  5.531165e+001  1.286999e+001
      vertex -2.428424e+002  5.536602e+001  2.000000e+000
      vertex -2.423424e+002  5.550000e+001  2.000000e+000
    endloop
  endfacet
  facet normal  3.068838e-001 -9.517469e-001  0.000000e+000
    outer loop
      vertex -2.429265e+002  5.531165e+001  1.286999e+001
      vertex -2.423424e+002  5.550000e+001  2.000000e+000
      vertex -2.423424e+002  5.550000e+001  1.288118e+001
    endloop
  endfacet
  facet normal  2.588215e-001  9.659252e-001  0.000000e+000
    outer loop
      vertex -2.428424e+002 -5.936602e+001  2.000000e+000
      vertex -2.423424e+002 -5.950000e+001  6.048919e+000
      vertex -2.423424e+002 -5.950000e+001  2.000000e+000
    endloop
  endfacet
  facet normal  2.344357e-001  9.721262e-001  3.216589e-003
    outer loop
      vertex -2.423424e+002 -5.950000e+001  6.048919e+000
      vertex -2.428424e+002 -5.936602e+001  2.000000e+000
      vertex -2.427981e+002 -5.939012e+001  6.055447e+000
    endloop
  endfacet
  facet normal  7.070987e-001  7.071061e-001 -3.519117e-003
    outer loop
      vertex -2.427981e+002 -5.939012e+001  6.055447e+000
      vertex -2.428424e+002 -5.936602e+001  2.000000e+000
      vertex -2.432084e+002 -5.900000e+001  2.000000e+000
    endloop
  endfacet
  facet normal  6.520119e-001  7.581767e-001  6.967111e-003
    outer loop
      vertex -2.427981e+002 -5.939012e+001  6.055447e+000
      vertex -2.432084e+002 -5.900000e+001  2.000000e+000
      vertex -2.431540e+002 -5.908427e+001  6.073618e+000
    endloop
  endfacet
  facet normal  9.658995e-001  2.588073e-001 -7.559059e-003
    outer loop
      vertex -2.431540e+002 -5.908427e+001  6.073618e+000
      vertex -2.432084e+002 -5.900000e+001  2.000000e+000
      vertex -2.433424e+002 -5.850000e+001  2.000000e+000
    endloop
  endfacet
  facet normal  9.517288e-001  3.069403e-001  -0.000000e+000
    outer loop
      vertex -2.431540e+002 -5.908427e+001  6.073618e+000
      vertex -2.433424e+002 -5.850000e+001  2.000000e+000
      vertex -2.433424e+002 -5.850000e+001  6.108330e+000
    endloop
  endfacet
  facet normal -1.000000e+000  0.000000e+000  0.000000e+000
    outer loop
      vertex -2.453424e+002  5.650000e+001  1.193883e+001
      vertex -2.453424e+002  5.650000e+001  0.000000e+000
      vertex -2.453424e+002 -6.050000e+001  4.987745e+000
    endloop
  endfacet
  facet normal -1.000000e+000  0.000000e+000  0.000000e+000
    outer loop
      vertex -2.453424e+002 -6.050000e+001  4.987745e+000
      vertex -2.453424e+002  5.650000e+001  0.000000e+000
      vertex -2.453424e+002 -6.050000e+001  0.000000e+000
    endloop
  endfacet
  facet normal  0.000000e+000  2.107560e-001  9.775387e-001
    outer loop
      vertex -2.443424e+002  5.644069e+001  1.293707e+001
      vertex -4.284241e+001  5.644069e+001  1.293707e+001
      vertex -2.443424e+002  5.696536e+001  1.282395e+001
    endloop
  endfacet
  facet normal  -0.000000e+000  2.107560e-001  9.775387e-001
    outer loop
      vertex -2.443424e+002  5.696536e+001  1.282395e+001
      vertex -4.284241e+001  5.644069e+001  1.293707e+001
      vertex -4.284241e+001  5.696536e+001  1.282395e+001
    endloop
  endfacet
  facet normal  0.000000e+000  6.858215e-001  7.277698e-001
    outer loop
      vertex -2.443424e+002  5.696536e+001  1.282395e+001
      vertex -4.284241e+001  5.696536e+001  1.282395e+001
      vertex -2.443424e+002  5.735596e+001  1.245586e+001
    endloop
  endfacet
  facet normal  -0.000000e+000  6.858215e-001  7.277698e-001
    outer loop
      vertex -2.443424e+002  5.735596e+001  1.245586e+001
      vertex -4.284241e+001  5.696536e+001  1.282395e+001
      vertex -4.284241e+001  5.735596e+001  1.245586e+001
    endloop
  endfacet
  facet normal  0.000000e+000  9.633180e-001  2.683623e-001
    outer loop
      vertex -2.443424e+002  5.735596e+001  1.245586e+001
      vertex -4.284241e+001  5.735596e+001  1.245586e+001
      vertex -2.443424e+002  5.750000e+001  1.193883e+001
    endloop
  endfacet
  facet normal  -0.000000e+000  9.633180e-001  2.683623e-001
    outer loop
      vertex -2.443424e+002  5.750000e+001  1.193883e+001
      vertex -4.284241e+001  5.735596e+001  1.245586e+001
      vertex -4.284241e+001  5.750000e+001  1.193883e+001
    endloop
  endfacet
  facet normal -9.238800e-001  3.826822e-001  0.000000e+000
    outer loop
      vertex -2.453424e+002  5.650000e+001  0.000000e+000
      vertex -2.453424e+002  5.650000e+001  1.193883e+001
      vertex -2.450495e+002  5.720711e+001  0.000000e+000
    endloop
  endfacet
  facet normal -9.238800e-001  3.826822e-001  0.000000e+000
    outer loop
      vertex -2.450495e+002  5.720711e+001  0.000000e+000
      vertex -2.453424e+002  5.650000e+001  1.193883e+001
      vertex -2.450495e+002  5.720711e+001  1.193883e+001
    endloop
  endfacet
  facet normal -3.826822e-001  9.238800e-001  0.000000e+000
    outer loop
      vertex -2.450495e+002  5.720711e+001  0.000000e+000
      vertex -2.450495e+002  5.720711e+001  1.193883e+001
      vertex -2.443424e+002  5.750000e+001  0.000000e+000
    endloop
  endfacet
  facet normal -3.826822e-001  9.238800e-001  0.000000e+000
    outer loop
      vertex -2.443424e+002  5.750000e+001  0.000000e+000
      vertex -2.450495e+002  5.720711e+001  1.193883e+001
      vertex -2.443424e+002  5.750000e+001  1.193883e+001
    endloop
  endfacet
  facet normal -9.238800e-001 -3.826822e-001  0.000000e+000
    outer loop
      vertex -2.453424e+002 -6.050000e+001  4.987745e+000
      vertex -2.453424e+002 -6.050000e+001  0.000000e+000
      vertex -2.450495e+002 -6.120711e+001  4.987745e+000
    endloop
  endfacet
  facet normal -9.238800e-001 -3.826822e-001  -0.000000e+000
    outer loop
      vertex -2.450495e+002 -6.120711e+001  4.987745e+000
      vertex -2.453424e+002 -6.050000e+001  0.000000e+000
      vertex -2.450495e+002 -6.120711e+001  0.000000e+000
    endloop
  endfacet
  facet normal -3.826822e-001 -9.238800e-001  0.000000e+000
    outer loop
      vertex -2.450495e+002 -6.120711e+001  4.987745e+000
      vertex -2.450495e+002 -6.120711e+001  0.000000e+000
      vertex -2.443424e+002 -6.150000e+001  4.987745e+000
    endloop
  endfacet
  facet normal -3.826822e-001 -9.238800e-001  -0.000000e+000
    outer loop
      vertex -2.443424e+002 -6.150000e+001  4.987745e+000
      vertex -2.450495e+002 -6.120711e+001  0.000000e+000
      vertex -2.443424e+002 -6.150000e+001  0.000000e+000
    endloop
  endfacet
  facet normal -9.134023e-001 -3.783422e-001  1.501780e-001
    outer loop
      vertex -2.453424e+002 -6.050000e+001  4.987745e+000
      vertex -2.450495e+002 -6.120711e+001  4.987745e+000
      vertex -2.450495e+002 -6.101461e+001  5.472692e+000
    endloop
  endfacet
  facet normal -9.134021e-001 -1.723516e-001  3.687702e-001
    outer loop
      vertex -2.453424e+002 -6.050000e+001  4.987745e+000
      vertex -2.450495e+002 -6.101461e+001  5.472692e+000
      vertex -2.450495e+002 -6.054193e+001  5.693607e+000
    endloop
  endfacet
  facet normal -3.592849e-001 -8.673936e-001  3.443005e-001
    outer loop
      vertex -2.450495e+002 -6.120711e+001  4.987745e+000
      vertex -2.443424e+002 -6.150000e+001  4.987745e+000
      vertex -2.450495e+002 -6.101461e+001  5.472692e+000
    endloop
  endfacet
  facet normal -3.592834e-001 -8.673934e-001  3.443024e-001
    outer loop
      vertex -2.450495e+002 -6.101461e+001  5.472692e+000
      vertex -2.443424e+002 -6.150000e+001  4.987745e+000
      vertex -2.443424e+002 -6.122777e+001  5.673563e+000
    endloop
  endfacet
  facet normal -3.592843e-001 -3.951358e-001  8.454481e-001
    outer loop
      vertex -2.450495e+002 -6.101461e+001  5.472692e+000
      vertex -2.443424e+002 -6.122777e+001  5.673563e+000
      vertex -2.450495e+002 -6.054193e+001  5.693607e+000
    endloop
  endfacet
  facet normal -3.592861e-001 -3.951375e-001  8.454465e-001
    outer loop
      vertex -2.450495e+002 -6.054193e+001  5.693607e+000
      vertex -2.443424e+002 -6.122777e+001  5.673563e+000
      vertex -2.443424e+002 -6.055931e+001  5.985985e+000
    endloop
  endfacet
  facet normal -9.238799e-001 -2.269553e-002  3.820092e-001
    outer loop
      vertex -2.453424e+002  5.650000e+001  1.193883e+001
      vertex -2.453424e+002 -6.050000e+001  4.987745e+000
      vertex -2.450495e+002  5.645807e+001  1.264469e+001
    endloop
  endfacet
  facet normal -9.238799e-001 -2.269551e-002  3.820090e-001
    outer loop
      vertex -2.450495e+002  5.645807e+001  1.264469e+001
      vertex -2.453424e+002 -6.050000e+001  4.987745e+000
      vertex -2.450495e+002 -6.054193e+001  5.693607e+000
    endloop
  endfacet
  facet normal -3.826840e-001 -5.479192e-002  9.222531e-001
    outer loop
      vertex -2.450495e+002  5.645807e+001  1.264469e+001
      vertex -2.450495e+002 -6.054193e+001  5.693607e+000
      vertex -2.443424e+002  5.644069e+001  1.293707e+001
    endloop
  endfacet
  facet normal -3.826829e-001 -5.479196e-002  9.222535e-001
    outer loop
      vertex -2.443424e+002  5.644069e+001  1.293707e+001
      vertex -2.450495e+002 -6.054193e+001  5.693607e+000
      vertex -2.443424e+002 -6.055931e+001  5.985985e+000
    endloop
  endfacet
  facet normal -9.115246e-001  1.403169e-001  3.865668e-001
    outer loop
      vertex -2.453424e+002  5.650000e+001  1.193883e+001
      vertex -2.450495e+002  5.645807e+001  1.264469e+001
      vertex -2.450495e+002  5.698495e+001  1.245344e+001
    endloop
  endfacet
  facet normal -9.115248e-001  3.775645e-001  1.629960e-001
    outer loop
      vertex -2.453424e+002  5.650000e+001  1.193883e+001
      vertex -2.450495e+002  5.698495e+001  1.245344e+001
      vertex -2.450495e+002  5.720711e+001  1.193883e+001
    endloop
  endfacet
  facet normal -4.349842e-001  8.266928e-001  3.568862e-001
    outer loop
      vertex -2.443424e+002  5.735596e+001  1.245586e+001
      vertex -2.450495e+002  5.720711e+001  1.193883e+001
      vertex -2.450495e+002  5.698495e+001  1.245344e+001
    endloop
  endfacet
  facet normal -3.706042e-001  8.947210e-001  2.492525e-001
    outer loop
      vertex -2.443424e+002  5.750000e+001  1.193883e+001
      vertex -2.450495e+002  5.720711e+001  1.193883e+001
      vertex -2.443424e+002  5.735596e+001  1.245586e+001
    endloop
  endfacet
  facet normal -3.554543e-001  3.189175e-001  8.786034e-001
    outer loop
      vertex -2.450495e+002  5.645807e+001  1.264469e+001
      vertex -2.443424e+002  5.644069e+001  1.293707e+001
      vertex -2.450495e+002  5.698495e+001  1.245344e+001
    endloop
  endfacet
  facet normal -4.517557e-001  1.880242e-001  8.721030e-001
    outer loop
      vertex -2.450495e+002  5.698495e+001  1.245344e+001
      vertex -2.443424e+002  5.644069e+001  1.293707e+001
      vertex -2.443424e+002  5.696536e+001  1.282395e+001
    endloop
  endfacet
  facet normal -3.406646e-001  6.447991e-001  6.842382e-001
    outer loop
      vertex -2.450495e+002  5.698495e+001  1.245344e+001
      vertex -2.443424e+002  5.696536e+001  1.282395e+001
      vertex -2.443424e+002  5.735596e+001  1.245586e+001
    endloop
  endfacet
  facet normal  7.054700e-001  6.799140e-002  7.054709e-001
    outer loop
      vertex -3.984241e+001  5.550000e+001  2.267949e+000
      vertex -4.025662e+001  5.650000e+001  2.585786e+000
      vertex -4.057446e+001  5.550000e+001  3.000000e+000
    endloop
  endfacet
  facet normal  9.155586e-001 -1.339135e-001  3.792358e-001
    outer loop
      vertex -4.057446e+001  5.550000e+001  3.000000e+000
      vertex -4.025662e+001  5.650000e+001  2.585786e+000
      vertex -4.084241e+001  5.650000e+001  4.000000e+000
    endloop
  endfacet
  facet normal  9.659261e-001  0.000000e+000  2.588181e-001
    outer loop
      vertex -4.057446e+001  5.550000e+001  3.000000e+000
      vertex -4.084241e+001  5.650000e+001  4.000000e+000
      vertex -4.084241e+001  5.550000e+001  4.000000e+000
    endloop
  endfacet
  facet normal  3.826830e-001  0.000000e+000  9.238796e-001
    outer loop
      vertex -3.884241e+001  5.650000e+001  2.000000e+000
      vertex -4.025662e+001  5.650000e+001  2.585786e+000
      vertex -3.884241e+001  5.550000e+001  2.000000e+000
    endloop
  endfacet
  facet normal  2.538026e-001 -1.959280e-001  9.472045e-001
    outer loop
      vertex -3.884241e+001  5.550000e+001  2.000000e+000
      vertex -4.025662e+001  5.650000e+001  2.585786e+000
      vertex -3.984241e+001  5.550000e+001  2.267949e+000
    endloop
  endfacet
  facet normal  1.000000e+000  -0.000000e+000  0.000000e+000
    outer loop
      vertex -4.084241e+001  5.650000e+001  1.093706e+001
      vertex -4.084241e+001  5.550000e+001  1.087765e+001
      vertex -4.084241e+001  5.650000e+001  4.000000e+000
    endloop
  endfacet
  facet normal  1.000000e+000  0.000000e+000  0.000000e+000
    outer loop
      vertex -4.084241e+001  5.650000e+001  4.000000e+000
      vertex -4.084241e+001  5.550000e+001  1.087765e+001
      vertex -4.084241e+001  5.550000e+001  4.000000e+000
    endloop
  endfacet
  facet normal  9.517258e-001 -1.820410e-002  3.064093e-001
    outer loop
      vertex -4.084241e+001  5.550000e+001  1.087765e+001
      vertex -4.084241e+001  5.650000e+001  1.093706e+001
      vertex -4.121928e+001  5.550000e+001  1.204824e+001
    endloop
  endfacet
  facet normal  9.456879e-001  4.774390e-003  3.250408e-001
    outer loop
      vertex -4.121928e+001  5.550000e+001  1.204824e+001
      vertex -4.084241e+001  5.650000e+001  1.093706e+001
      vertex -4.126469e+001  5.646355e+001  1.216622e+001
    endloop
  endfacet
  facet normal  6.512440e-001 -6.191099e-002  7.563387e-001
    outer loop
      vertex -4.121928e+001  5.550000e+001  1.204824e+001
      vertex -4.126469e+001  5.646355e+001  1.216622e+001
      vertex -4.193096e+001  5.550000e+001  1.266103e+001
    endloop
  endfacet
  facet normal  6.351050e-001 -4.310818e-002  7.712220e-001
    outer loop
      vertex -4.193096e+001  5.550000e+001  1.266103e+001
      vertex -4.126469e+001  5.646355e+001  1.216622e+001
      vertex -4.194155e+001  5.644705e+001  1.272269e+001
    endloop
  endfacet
  facet normal  2.343510e-001 -6.054776e-002  9.702647e-001
    outer loop
      vertex -4.193096e+001  5.550000e+001  1.266103e+001
      vertex -4.194155e+001  5.644705e+001  1.272269e+001
      vertex -4.284241e+001  5.550000e+001  1.288118e+001
    endloop
  endfacet
  facet normal  2.315038e-001 -5.769599e-002  9.711215e-001
    outer loop
      vertex -4.284241e+001  5.550000e+001  1.288118e+001
      vertex -4.194155e+001  5.644705e+001  1.272269e+001
      vertex -4.284241e+001  5.644069e+001  1.293707e+001
    endloop
  endfacet
  facet normal -7.054710e-001  6.799073e-002  7.054701e-001
    outer loop
      vertex -2.761036e+001  5.550000e+001  3.000000e+000
      vertex -2.792819e+001  5.650000e+001  2.585786e+000
      vertex -2.834241e+001  5.550000e+001  2.267949e+000
    endloop
  endfacet
  facet normal -3.792366e-001 -1.339137e-001  9.155581e-001
    outer loop
      vertex -2.834241e+001  5.550000e+001  2.267949e+000
      vertex -2.792819e+001  5.650000e+001  2.585786e+000
      vertex -2.934241e+001  5.650000e+001  2.000000e+000
    endloop
  endfacet
  facet normal -2.588190e-001  0.000000e+000  9.659258e-001
    outer loop
      vertex -2.834241e+001  5.550000e+001  2.267949e+000
      vertex -2.934241e+001  5.650000e+001  2.000000e+000
      vertex -2.934241e+001  5.550000e+001  2.000000e+000
    endloop
  endfacet
  facet normal -9.238794e-001  0.000000e+000  3.826836e-001
    outer loop
      vertex -2.734241e+001  5.650000e+001  4.000000e+000
      vertex -2.792819e+001  5.650000e+001  2.585786e+000
      vertex -2.734241e+001  5.550000e+001  4.000000e+000
    endloop
  endfacet
  facet normal -9.472044e-001 -1.959275e-001  2.538035e-001
    outer loop
      vertex -2.734241e+001  5.550000e+001  4.000000e+000
      vertex -2.792819e+001  5.650000e+001  2.585786e+000
      vertex -2.761036e+001  5.550000e+001  3.000000e+000
    endloop
  endfacet
  facet normal -1.000000e+000  0.000000e+000  0.000000e+000
    outer loop
      vertex -2.734241e+001  5.650000e+001  4.000000e+000
      vertex -2.734241e+001  5.550000e+001  4.000000e+000
      vertex -2.734241e+001  5.650000e+001  1.093706e+001
    endloop
  endfacet
  facet normal -1.000000e+000  0.000000e+000  0.000000e+000
    outer loop
      vertex -2.734241e+001  5.650000e+001  1.093706e+001
      vertex -2.734241e+001  5.550000e+001  4.000000e+000
      vertex -2.734241e+001  5.550000e+001  1.087765e+001
    endloop
  endfacet
  facet normal -2.343913e-001 -5.765498e-002  9.704312e-001
    outer loop
      vertex -2.534241e+001  5.550000e+001  1.288118e+001
      vertex -2.534241e+001  5.644069e+001  1.293707e+001
      vertex -2.625385e+001  5.550000e+001  1.266103e+001
    endloop
  endfacet
  facet normal -3.243932e-001  3.695238e-002  9.452003e-001
    outer loop
      vertex -2.625385e+001  5.550000e+001  1.266103e+001
      vertex -2.534241e+001  5.644069e+001  1.293707e+001
      vertex -2.657167e+001  5.645322e+001  1.251469e+001
    endloop
  endfacet
  facet normal -6.491790e-001 -1.007008e-001  7.539403e-001
    outer loop
      vertex -2.625385e+001  5.550000e+001  1.266103e+001
      vertex -2.657167e+001  5.645322e+001  1.251469e+001
      vertex -2.696553e+001  5.550000e+001  1.204824e+001
    endloop
  endfacet
  facet normal -7.723006e-001  8.274939e-003  6.352033e-001
    outer loop
      vertex -2.696553e+001  5.550000e+001  1.204824e+001
      vertex -2.657167e+001  5.645322e+001  1.251469e+001
      vertex -2.712794e+001  5.647328e+001  1.183811e+001
    endloop
  endfacet
  facet normal -9.478226e-001 -9.227282e-002  3.051527e-001
    outer loop
      vertex -2.696553e+001  5.550000e+001  1.204824e+001
      vertex -2.712794e+001  5.647328e+001  1.183811e+001
      vertex -2.734241e+001  5.550000e+001  1.087765e+001
    endloop
  endfacet
  facet normal -9.728221e-001 -1.373262e-002  2.311458e-001
    outer loop
      vertex -2.734241e+001  5.550000e+001  1.087765e+001
      vertex -2.712794e+001  5.647328e+001  1.183811e+001
      vertex -2.734241e+001  5.650000e+001  1.093706e+001
    endloop
  endfacet
  facet normal  1.253214e-001  6.804146e-001  7.220321e-001
    outer loop
      vertex -4.284241e+001  5.696536e+001  1.282395e+001
      vertex -4.206470e+001  5.718813e+001  1.247903e+001
      vertex -4.284241e+001  5.735596e+001  1.245586e+001
    endloop
  endfacet
  facet normal  3.794284e-001  9.160247e-001  1.301266e-001
    outer loop
      vertex -4.184241e+001  5.750000e+001  1.093706e+001
      vertex -4.205355e+001  5.750000e+001  1.155272e+001
      vertex -4.113530e+001  5.720711e+001  1.093706e+001
    endloop
  endfacet
  facet normal  3.302513e-001  9.428665e-001  4.400984e-002
    outer loop
      vertex -4.113530e+001  5.720711e+001  1.093706e+001
      vertex -4.205355e+001  5.750000e+001  1.155272e+001
      vertex -4.117203e+001  5.720251e+001  1.131118e+001
    endloop
  endfacet
  facet normal  9.197034e-001  3.809522e-001  9.497969e-002
    outer loop
      vertex -4.113530e+001  5.720711e+001  1.093706e+001
      vertex -4.117203e+001  5.720251e+001  1.131118e+001
      vertex -4.084241e+001  5.650000e+001  1.093706e+001
    endloop
  endfacet
  facet normal  9.116353e-001  2.568983e-001  3.208182e-001
    outer loop
      vertex -4.084241e+001  5.650000e+001  1.093706e+001
      vertex -4.117203e+001  5.720251e+001  1.131118e+001
      vertex -4.126469e+001  5.646355e+001  1.216622e+001
    endloop
  endfacet
  facet normal  4.800623e-001  6.373059e-001  6.028114e-001
    outer loop
      vertex -4.126469e+001  5.646355e+001  1.216622e+001
      vertex -4.117203e+001  5.720251e+001  1.131118e+001
      vertex -4.194155e+001  5.644705e+001  1.272269e+001
    endloop
  endfacet
  facet normal  7.520952e-001  3.152665e-001  5.787572e-001
    outer loop
      vertex -4.194155e+001  5.644705e+001  1.272269e+001
      vertex -4.117203e+001  5.720251e+001  1.131118e+001
      vertex -4.206470e+001  5.718813e+001  1.247903e+001
    endloop
  endfacet
  facet normal  2.156966e-001  3.371496e-001  9.164088e-001
    outer loop
      vertex -4.194155e+001  5.644705e+001  1.272269e+001
      vertex -4.206470e+001  5.718813e+001  1.247903e+001
      vertex -4.284241e+001  5.644069e+001  1.293707e+001
    endloop
  endfacet
  facet normal  3.496228e-001  1.974553e-001  9.158468e-001
    outer loop
      vertex -4.284241e+001  5.644069e+001  1.293707e+001
      vertex -4.206470e+001  5.718813e+001  1.247903e+001
      vertex -4.284241e+001  5.696536e+001  1.282395e+001
    endloop
  endfacet
  facet normal  3.777407e-001  8.761283e-001  2.995183e-001
    outer loop
      vertex -4.117203e+001  5.720251e+001  1.131118e+001
      vertex -4.205355e+001  5.750000e+001  1.155272e+001
      vertex -4.206470e+001  5.718813e+001  1.247903e+001
    endloop
  endfacet
  facet normal  2.562932e-001  9.151364e-001  3.111900e-001
    outer loop
      vertex -4.206470e+001  5.718813e+001  1.247903e+001
      vertex -4.205355e+001  5.750000e+001  1.155272e+001
      vertex -4.239198e+001  5.750000e+001  1.183145e+001
    endloop
  endfacet
  facet normal  1.878993e-001  9.186758e-001  3.474603e-001
    outer loop
      vertex -4.206470e+001  5.718813e+001  1.247903e+001
      vertex -4.239198e+001  5.750000e+001  1.183145e+001
      vertex -4.284241e+001  5.735596e+001  1.245586e+001
    endloop
  endfacet
  facet normal  6.384353e-002  9.613528e-001  2.678149e-001
    outer loop
      vertex -4.284241e+001  5.735596e+001  1.245586e+001
      vertex -4.239198e+001  5.750000e+001  1.183145e+001
      vertex -4.284241e+001  5.750000e+001  1.193883e+001
    endloop
  endfacet
  facet normal  3.826822e-001  9.238800e-001  0.000000e+000
    outer loop
      vertex -4.184241e+001  5.750000e+001  4.000000e+000
      vertex -4.184241e+001  5.750000e+001  1.093706e+001
      vertex -4.113530e+001  5.720711e+001  4.000000e+000
    endloop
  endfacet
  facet normal  3.826822e-001  9.238800e-001  -0.000000e+000
    outer loop
      vertex -4.113530e+001  5.720711e+001  4.000000e+000
      vertex -4.184241e+001  5.750000e+001  1.093706e+001
      vertex -4.113530e+001  5.720711e+001  1.093706e+001
    endloop
  endfacet
  facet normal  9.238800e-001  3.826822e-001  0.000000e+000
    outer loop
      vertex -4.113530e+001  5.720711e+001  4.000000e+000
      vertex -4.113530e+001  5.720711e+001  1.093706e+001
      vertex -4.084241e+001  5.650000e+001  4.000000e+000
    endloop
  endfacet
  facet normal  9.238800e-001  3.826822e-001  -0.000000e+000
    outer loop
      vertex -4.084241e+001  5.650000e+001  4.000000e+000
      vertex -4.113530e+001  5.720711e+001  1.093706e+001
      vertex -4.084241e+001  5.650000e+001  1.093706e+001
    endloop
  endfacet
  facet normal  7.916018e-001  5.156103e-001  3.278913e-001
    outer loop
      vertex -4.084241e+001  5.650000e+001  4.000000e+000
      vertex -4.025662e+001  5.650000e+001  2.585786e+000
      vertex -4.082811e+001  5.720711e+001  2.853554e+000
    endloop
  endfacet
  facet normal  8.968092e-001  3.714691e-001  2.402997e-001
    outer loop
      vertex -4.084241e+001  5.650000e+001  4.000000e+000
      vertex -4.082811e+001  5.720711e+001  2.853554e+000
      vertex -4.113530e+001  5.720711e+001  4.000000e+000
    endloop
  endfacet
  facet normal  2.402993e-001  3.714699e-001  8.968089e-001
    outer loop
      vertex -3.884241e+001  5.650000e+001  2.000000e+000
      vertex -3.884241e+001  5.720711e+001  1.707107e+000
      vertex -3.998885e+001  5.720711e+001  2.014296e+000
    endloop
  endfacet
  facet normal  3.278914e-001  5.156116e-001  7.916008e-001
    outer loop
      vertex -3.884241e+001  5.650000e+001  2.000000e+000
      vertex -3.998885e+001  5.720711e+001  2.014296e+000
      vertex -4.025662e+001  5.650000e+001  2.585786e+000
    endloop
  endfacet
  facet normal  6.765891e-001  2.906121e-001  6.765884e-001
    outer loop
      vertex -4.025662e+001  5.650000e+001  2.585786e+000
      vertex -3.998885e+001  5.720711e+001  2.014296e+000
      vertex -4.082811e+001  5.720711e+001  2.853554e+000
    endloop
  endfacet
  facet normal  3.806861e-001  9.190609e-001  1.020046e-001
    outer loop
      vertex -4.184241e+001  5.750000e+001  4.000000e+000
      vertex -4.113530e+001  5.720711e+001  4.000000e+000
      vertex -4.144048e+001  5.750000e+001  2.500000e+000
    endloop
  endfacet
  facet normal  3.806860e-001  9.190611e-001  1.020047e-001
    outer loop
      vertex -4.144048e+001  5.750000e+001  2.500000e+000
      vertex -4.113530e+001  5.720711e+001  4.000000e+000
      vertex -4.082811e+001  5.720711e+001  2.853554e+000
    endloop
  endfacet
  facet normal  2.786817e-001  9.190610e-001  2.786816e-001
    outer loop
      vertex -4.144048e+001  5.750000e+001  2.500000e+000
      vertex -4.082811e+001  5.720711e+001  2.853554e+000
      vertex -4.034241e+001  5.750000e+001  1.401924e+000
    endloop
  endfacet
  facet normal  2.786820e-001  9.190609e-001  2.786817e-001
    outer loop
      vertex -4.034241e+001  5.750000e+001  1.401924e+000
      vertex -4.082811e+001  5.720711e+001  2.853554e+000
      vertex -3.998885e+001  5.720711e+001  2.014296e+000
    endloop
  endfacet
  facet normal  1.020046e-001  9.190608e-001  3.806864e-001
    outer loop
      vertex -4.034241e+001  5.750000e+001  1.401924e+000
      vertex -3.998885e+001  5.720711e+001  2.014296e+000
      vertex -3.884241e+001  5.750000e+001  1.000000e+000
    endloop
  endfacet
  facet normal  1.020047e-001  9.190609e-001  3.806865e-001
    outer loop
      vertex -3.884241e+001  5.750000e+001  1.000000e+000
      vertex -3.998885e+001  5.720711e+001  2.014296e+000
      vertex -3.884241e+001  5.720711e+001  1.707107e+000
    endloop
  endfacet
  facet normal  -0.000000e+000  9.238799e-001  3.826825e-001
    outer loop
      vertex -2.934241e+001  5.750000e+001  1.000000e+000
      vertex -3.884241e+001  5.750000e+001  1.000000e+000
      vertex -2.934241e+001  5.720711e+001  1.707107e+000
    endloop
  endfacet
  facet normal  0.000000e+000  9.238799e-001  3.826825e-001
    outer loop
      vertex -2.934241e+001  5.720711e+001  1.707107e+000
      vertex -3.884241e+001  5.750000e+001  1.000000e+000
      vertex -3.884241e+001  5.720711e+001  1.707107e+000
    endloop
  endfacet
  facet normal  -0.000000e+000  3.826830e-001  9.238797e-001
    outer loop
      vertex -2.934241e+001  5.720711e+001  1.707107e+000
      vertex -3.884241e+001  5.720711e+001  1.707107e+000
      vertex -2.934241e+001  5.650000e+001  2.000000e+000
    endloop
  endfacet
  facet normal  0.000000e+000  3.826830e-001  9.238797e-001
    outer loop
      vertex -2.934241e+001  5.650000e+001  2.000000e+000
      vertex -3.884241e+001  5.720711e+001  1.707107e+000
      vertex -3.884241e+001  5.650000e+001  2.000000e+000
    endloop
  endfacet
  facet normal -3.278916e-001  5.156123e-001  7.916003e-001
    outer loop
      vertex -2.934241e+001  5.650000e+001  2.000000e+000
      vertex -2.792819e+001  5.650000e+001  2.585786e+000
      vertex -2.819596e+001  5.720711e+001  2.014296e+000
    endloop
  endfacet
  facet normal -2.402992e-001  3.714700e-001  8.968090e-001
    outer loop
      vertex -2.934241e+001  5.650000e+001  2.000000e+000
      vertex -2.819596e+001  5.720711e+001  2.014296e+000
      vertex -2.934241e+001  5.720711e+001  1.707107e+000
    endloop
  endfacet
  facet normal -8.968096e-001  3.714693e-001  2.402983e-001
    outer loop
      vertex -2.734241e+001  5.650000e+001  4.000000e+000
      vertex -2.704951e+001  5.720711e+001  4.000000e+000
      vertex -2.735670e+001  5.720711e+001  2.853553e+000
    endloop
  endfacet
  facet normal -7.915999e-001  5.156130e-001  3.278916e-001
    outer loop
      vertex -2.734241e+001  5.650000e+001  4.000000e+000
      vertex -2.735670e+001  5.720711e+001  2.853553e+000
      vertex -2.792819e+001  5.650000e+001  2.585786e+000
    endloop
  endfacet
  facet normal -6.765878e-001  2.906148e-001  6.765885e-001
    outer loop
      vertex -2.792819e+001  5.650000e+001  2.585786e+000
      vertex -2.735670e+001  5.720711e+001  2.853553e+000
      vertex -2.819596e+001  5.720711e+001  2.014296e+000
    endloop
  endfacet
  facet normal -1.020046e-001  9.190609e-001  3.806865e-001
    outer loop
      vertex -2.934241e+001  5.750000e+001  1.000000e+000
      vertex -2.934241e+001  5.720711e+001  1.707107e+000
      vertex -2.784241e+001  5.750000e+001  1.401924e+000
    endloop
  endfacet
  facet normal -1.020046e-001  9.190609e-001  3.806865e-001
    outer loop
      vertex -2.784241e+001  5.750000e+001  1.401924e+000
      vertex -2.934241e+001  5.720711e+001  1.707107e+000
      vertex -2.819596e+001  5.720711e+001  2.014296e+000
    endloop
  endfacet
  facet normal -2.786818e-001  9.190608e-001  2.786817e-001
    outer loop
      vertex -2.784241e+001  5.750000e+001  1.401924e+000
      vertex -2.819596e+001  5.720711e+001  2.014296e+000
      vertex -2.674433e+001  5.750000e+001  2.500000e+000
    endloop
  endfacet
  facet normal -2.786820e-001  9.190607e-001  2.786823e-001
    outer loop
      vertex -2.674433e+001  5.750000e+001  2.500000e+000
      vertex -2.819596e+001  5.720711e+001  2.014296e+000
      vertex -2.735670e+001  5.720711e+001  2.853553e+000
    endloop
  endfacet
  facet normal -3.806869e-001  9.190606e-001  1.020048e-001
    outer loop
      vertex -2.674433e+001  5.750000e+001  2.500000e+000
      vertex -2.735670e+001  5.720711e+001  2.853553e+000
      vertex -2.634241e+001  5.750000e+001  4.000000e+000
    endloop
  endfacet
  facet normal -3.806861e-001  9.190611e-001  1.020041e-001
    outer loop
      vertex -2.634241e+001  5.750000e+001  4.000000e+000
      vertex -2.735670e+001  5.720711e+001  2.853553e+000
      vertex -2.704951e+001  5.720711e+001  4.000000e+000
    endloop
  endfacet
  facet normal -2.588215e-001  9.659252e-001  0.000000e+000
    outer loop
      vertex -2.634241e+001  5.750000e+001  1.093706e+001
      vertex -2.634241e+001  5.750000e+001  4.000000e+000
      vertex -2.684241e+001  5.736602e+001  1.093706e+001
    endloop
  endfacet
  facet normal -3.826641e-001  9.238362e-001 -9.739018e-003
    outer loop
      vertex -2.684241e+001  5.736602e+001  1.093706e+001
      vertex -2.634241e+001  5.750000e+001  4.000000e+000
      vertex -2.704951e+001  5.720711e+001  4.000000e+000
    endloop
  endfacet
  facet normal -7.070965e-001  7.071001e-001  4.912043e-003
    outer loop
      vertex -2.684241e+001  5.736602e+001  1.093706e+001
      vertex -2.704951e+001  5.720711e+001  4.000000e+000
      vertex -2.720843e+001  5.700000e+001  1.093706e+001
    endloop
  endfacet
  facet normal -9.238800e-001  3.826822e-001  0.000000e+000
    outer loop
      vertex -2.734241e+001  5.650000e+001  4.000000e+000
      vertex -2.734241e+001  5.650000e+001  1.093706e+001
      vertex -2.704951e+001  5.720711e+001  4.000000e+000
    endloop
  endfacet
  facet normal -9.658260e-001  2.587913e-001 -1.439945e-002
    outer loop
      vertex -2.704951e+001  5.720711e+001  4.000000e+000
      vertex -2.734241e+001  5.650000e+001  1.093706e+001
      vertex -2.720843e+001  5.700000e+001  1.093706e+001
    endloop
  endfacet
  facet normal -2.951301e-001  8.749352e-001  3.839095e-001
    outer loop
      vertex -2.595704e+001  5.750000e+001  1.172727e+001
      vertex -2.687506e+001  5.719760e+001  1.171072e+001
      vertex -2.572007e+001  5.718634e+001  1.262427e+001
    endloop
  endfacet
  facet normal -3.068761e-001  9.178199e-001  2.518607e-001
    outer loop
      vertex -2.687506e+001  5.719760e+001  1.171072e+001
      vertex -2.595704e+001  5.750000e+001  1.172727e+001
      vertex -2.623517e+001  5.750000e+001  1.138838e+001
    endloop
  endfacet
  facet normal -9.197968e-002  9.592344e-001  2.672247e-001
    outer loop
      vertex -2.534241e+001  5.750000e+001  1.193883e+001
      vertex -2.595704e+001  5.750000e+001  1.172727e+001
      vertex -2.534241e+001  5.735596e+001  1.245586e+001
    endloop
  endfacet
  facet normal -2.351477e-001  8.964586e-001  3.755897e-001
    outer loop
      vertex -2.534241e+001  5.735596e+001  1.245586e+001
      vertex -2.595704e+001  5.750000e+001  1.172727e+001
      vertex -2.572007e+001  5.718634e+001  1.262427e+001
    endloop
  endfacet
  facet normal  1.650447e-002  6.857280e-001  7.276706e-001
    outer loop
      vertex -2.534241e+001  5.735596e+001  1.245586e+001
      vertex -2.572007e+001  5.718634e+001  1.262427e+001
      vertex -2.534241e+001  5.696536e+001  1.282395e+001
    endloop
  endfacet
  facet normal -9.116638e-001  2.442786e-001  3.304498e-001
    outer loop
      vertex -2.720843e+001  5.700000e+001  1.093706e+001
      vertex -2.734241e+001  5.650000e+001  1.093706e+001
      vertex -2.687506e+001  5.719760e+001  1.171072e+001
    endloop
  endfacet
  facet normal -9.065407e-001  3.563052e-001  2.263419e-001
    outer loop
      vertex -2.687506e+001  5.719760e+001  1.171072e+001
      vertex -2.734241e+001  5.650000e+001  1.093706e+001
      vertex -2.712794e+001  5.647328e+001  1.183811e+001
    endloop
  endfacet
  facet normal -5.827842e-001  3.337725e-001  7.409174e-001
    outer loop
      vertex -2.687506e+001  5.719760e+001  1.171072e+001
      vertex -2.712794e+001  5.647328e+001  1.183811e+001
      vertex -2.572007e+001  5.718634e+001  1.262427e+001
    endloop
  endfacet
  facet normal -5.979602e-001  6.183723e-001  5.099603e-001
    outer loop
      vertex -2.572007e+001  5.718634e+001  1.262427e+001
      vertex -2.712794e+001  5.647328e+001  1.183811e+001
      vertex -2.657167e+001  5.645322e+001  1.251469e+001
    endloop
  endfacet
  facet normal -3.333382e-001  2.513900e-001  9.086741e-001
    outer loop
      vertex -2.572007e+001  5.718634e+001  1.262427e+001
      vertex -2.657167e+001  5.645322e+001  1.251469e+001
      vertex -2.534241e+001  5.696536e+001  1.282395e+001
    endloop
  endfacet
  facet normal -3.165698e-001  1.999166e-001  9.272631e-001
    outer loop
      vertex -2.534241e+001  5.696536e+001  1.282395e+001
      vertex -2.657167e+001  5.645322e+001  1.251469e+001
      vertex -2.534241e+001  5.644069e+001  1.293707e+001
    endloop
  endfacet
  facet normal -3.872034e-001  9.173927e-001  9.200027e-002
    outer loop
      vertex -2.623517e+001  5.750000e+001  1.138838e+001
      vertex -2.634241e+001  5.750000e+001  1.093706e+001
      vertex -2.687506e+001  5.719760e+001  1.171072e+001
    endloop
  endfacet
  facet normal -2.538270e-001  9.472839e-001  1.955124e-001
    outer loop
      vertex -2.687506e+001  5.719760e+001  1.171072e+001
      vertex -2.634241e+001  5.750000e+001  1.093706e+001
      vertex -2.684241e+001  5.736602e+001  1.093706e+001
    endloop
  endfacet
  facet normal -7.017226e-001  7.017263e-001  1.231496e-001
    outer loop
      vertex -2.687506e+001  5.719760e+001  1.171072e+001
      vertex -2.684241e+001  5.736602e+001  1.093706e+001
      vertex -2.720843e+001  5.700000e+001  1.093706e+001
    endloop
  endfacet
  facet normal  1.000000e+000  0.000000e+000  0.000000e+000
    outer loop
      vertex -2.283424e+002  3.550000e+001  0.000000e+000
      vertex -2.283424e+002  3.550000e+001  2.000000e+000
      vertex -2.283424e+002 -3.950000e+001  0.000000e+000
    endloop
  endfacet
  facet normal  1.000000e+000  0.000000e+000  0.000000e+000
    outer loop
      vertex -2.283424e+002 -3.950000e+001  0.000000e+000
      vertex -2.283424e+002  3.550000e+001  2.000000e+000
      vertex -2.283424e+002 -3.950000e+001  2.000000e+000
    endloop
  endfacet
  facet normal  9.659255e-001  2.588202e-001  -0.000000e+000
    outer loop
      vertex -2.276725e+002 -4.200000e+001  2.000000e+000
      vertex -2.283424e+002 -3.950000e+001  0.000000e+000
      vertex -2.283424e+002 -3.950000e+001  2.000000e+000
    endloop
  endfacet
  facet normal  9.659255e-001  2.588202e-001  0.000000e+000
    outer loop
      vertex -2.283424e+002 -3.950000e+001  0.000000e+000
      vertex -2.276725e+002 -4.200000e+001  2.000000e+000
      vertex -2.276725e+002 -4.200000e+001  0.000000e+000
    endloop
  endfacet
  facet normal  7.071075e-001  7.071061e-001  -0.000000e+000
    outer loop
      vertex -2.276725e+002 -4.200000e+001  0.000000e+000
      vertex -2.276725e+002 -4.200000e+001  2.000000e+000
      vertex -2.258424e+002 -4.383013e+001  2.000000e+000
    endloop
  endfacet
  facet normal  7.071075e-001  7.071061e-001  0.000000e+000
    outer loop
      vertex -2.276725e+002 -4.200000e+001  0.000000e+000
      vertex -2.258424e+002 -4.383013e+001  2.000000e+000
      vertex -2.258424e+002 -4.383013e+001  0.000000e+000
    endloop
  endfacet
  facet normal  2.588188e-001  9.659259e-001  -0.000000e+000
    outer loop
      vertex -2.258424e+002 -4.383013e+001  0.000000e+000
      vertex -2.258424e+002 -4.383013e+001  2.000000e+000
      vertex -2.233424e+002 -4.450000e+001  2.000000e+000
    endloop
  endfacet
  facet normal  2.588188e-001  9.659259e-001  0.000000e+000
    outer loop
      vertex -2.258424e+002 -4.383013e+001  0.000000e+000
      vertex -2.233424e+002 -4.450000e+001  2.000000e+000
      vertex -2.233424e+002 -4.450000e+001  0.000000e+000
    endloop
  endfacet
  facet normal  2.588188e-001 -9.659259e-001  0.000000e+000
    outer loop
      vertex -2.258424e+002  3.983013e+001  2.000000e+000
      vertex -2.233424e+002  4.050000e+001  0.000000e+000
      vertex -2.233424e+002  4.050000e+001  2.000000e+000
    endloop
  endfacet
  facet normal  2.588188e-001 -9.659259e-001  0.000000e+000
    outer loop
      vertex -2.233424e+002  4.050000e+001  0.000000e+000
      vertex -2.258424e+002  3.983013e+001  2.000000e+000
      vertex -2.258424e+002  3.983013e+001  0.000000e+000
    endloop
  endfacet
  facet normal  7.071075e-001 -7.071061e-001  0.000000e+000
    outer loop
      vertex -2.258424e+002  3.983013e+001  0.000000e+000
      vertex -2.258424e+002  3.983013e+001  2.000000e+000
      vertex -2.276725e+002  3.800000e+001  2.000000e+000
    endloop
  endfacet
  facet normal  7.071075e-001 -7.071061e-001  0.000000e+000
    outer loop
      vertex -2.258424e+002  3.983013e+001  0.000000e+000
      vertex -2.276725e+002  3.800000e+001  2.000000e+000
      vertex -2.276725e+002  3.800000e+001  0.000000e+000
    endloop
  endfacet
  facet normal  9.659255e-001 -2.588202e-001  0.000000e+000
    outer loop
      vertex -2.276725e+002  3.800000e+001  0.000000e+000
      vertex -2.276725e+002  3.800000e+001  2.000000e+000
      vertex -2.283424e+002  3.550000e+001  2.000000e+000
    endloop
  endfacet
  facet normal  9.659255e-001 -2.588202e-001  0.000000e+000
    outer loop
      vertex -2.276725e+002  3.800000e+001  0.000000e+000
      vertex -2.283424e+002  3.550000e+001  2.000000e+000
      vertex -2.283424e+002  3.550000e+001  0.000000e+000
    endloop
  endfacet
endsolid CATIA STL
