solid CATIA STL
  facet normal  8.364360e-001 -5.480646e-001  0.000000e+000
    outer loop
      vertex -8.535616e+000  5.000000e-001  2.700000e+000
      vertex -8.371897e+000  7.498622e-001  3.748888e+000
      vertex -8.535616e+000  5.000000e-001  3.499026e+000
    endloop
  endfacet
  facet normal -7.818315e-001 -6.234897e-001  9.441286e-005
    outer loop
      vertex -6.782987e+000  8.991062e-001  0.000000e+000
      vertex -6.463886e+000  4.989663e-001  0.000000e+000
      vertex -6.464384e+000  5.000000e-001  2.700000e+000
    endloop
  endfacet
  facet normal -7.815202e-001 -6.238799e-001  0.000000e+000
    outer loop
      vertex -6.782987e+000  8.991062e-001  0.000000e+000
      vertex -6.464384e+000  5.000000e-001  2.700000e+000
      vertex -6.464384e+000  5.000000e-001  3.499026e+000
    endloop
  endfacet
  facet normal -8.172019e-001 -5.762862e-001  8.677627e-003
    outer loop
      vertex -6.782987e+000  8.991062e-001  0.000000e+000
      vertex -6.464384e+000  5.000000e-001  3.499026e+000
      vertex -6.669894e+000  7.958787e-001  3.794904e+000
    endloop
  endfacet
  facet normal -6.319072e-001 -7.750408e-001 -2.250809e-003
    outer loop
      vertex -6.782987e+000  8.991062e-001  0.000000e+000
      vertex -6.669894e+000  7.958787e-001  3.794904e+000
      vertex -6.890366e+000  9.751136e-001  3.974139e+000
    endloop
  endfacet
  facet normal -3.898233e-001 -9.208624e-001  7.079097e-003
    outer loop
      vertex -6.782987e+000  8.991062e-001  0.000000e+000
      vertex -6.890366e+000  9.751136e-001  3.974139e+000
      vertex -7.218029e+000  1.114896e+000  4.113921e+000
    endloop
  endfacet
  facet normal -4.338831e-001 -9.009681e-001  1.376306e-003
    outer loop
      vertex -6.782987e+000  8.991062e-001  0.000000e+000
      vertex -7.218029e+000  1.114896e+000  4.113921e+000
      vertex -7.244101e+000  1.121167e+000  0.000000e+000
    endloop
  endfacet
  facet normal -9.749279e-001 -2.225211e-001 -9.473442e-005
    outer loop
      vertex -6.463886e+000  4.989663e-001  0.000000e+000
      vertex -6.350000e+000  1.408297e-016  0.000000e+000
      vertex -6.464384e+000  5.000000e-001  2.700000e+000
    endloop
  endfacet
  facet normal -9.748168e-001 -2.230072e-001  0.000000e+000
    outer loop
      vertex -6.464384e+000  5.000000e-001  2.700000e+000
      vertex -6.350000e+000  1.408297e-016  0.000000e+000
      vertex -6.350000e+000  1.408297e-016  2.700000e+000
    endloop
  endfacet
  facet normal  2.787611e-001 -9.603600e-001 -9.899129e-004
    outer loop
      vertex -7.931246e+000  1.066079e+000  4.065105e+000
      vertex -7.755899e+000  1.121167e+000  0.000000e+000
      vertex -7.705948e+000  1.131409e+000  4.130435e+000
    endloop
  endfacet
  facet normal  7.254823e-002 -9.973636e-001  1.595659e-003
    outer loop
      vertex -7.705948e+000  1.131409e+000  4.130435e+000
      vertex -7.755899e+000  1.121167e+000  0.000000e+000
      vertex -7.460242e+000  1.149310e+000  4.148336e+000
    endloop
  endfacet
  facet normal  0.000000e+000 -9.999770e-001  6.783993e-003
    outer loop
      vertex -7.755899e+000  1.121167e+000  0.000000e+000
      vertex -7.244101e+000  1.121167e+000  0.000000e+000
      vertex -7.460242e+000  1.149310e+000  4.148336e+000
    endloop
  endfacet
  facet normal -1.407562e-001 -9.900440e-001 -6.172155e-004
    outer loop
      vertex -7.460242e+000  1.149310e+000  4.148336e+000
      vertex -7.244101e+000  1.121167e+000  0.000000e+000
      vertex -7.218029e+000  1.114896e+000  4.113921e+000
    endloop
  endfacet
  facet normal  6.597883e-001 -7.514468e-001 -2.656438e-003
    outer loop
      vertex -8.371897e+000  7.498622e-001  3.748888e+000
      vertex -8.217013e+000  8.991062e-001  0.000000e+000
      vertex -8.127406e+000  9.637746e-001  3.962801e+000
    endloop
  endfacet
  facet normal  4.338783e-001 -9.009582e-001  4.891717e-003
    outer loop
      vertex -8.127406e+000  9.637746e-001  3.962801e+000
      vertex -8.217013e+000  8.991062e-001  0.000000e+000
      vertex -7.755899e+000  1.121167e+000  0.000000e+000
    endloop
  endfacet
  facet normal  4.592221e-001 -8.882875e-001  7.770909e-003
    outer loop
      vertex -8.127406e+000  9.637746e-001  3.962801e+000
      vertex -7.755899e+000  1.121167e+000  0.000000e+000
      vertex -7.931246e+000  1.066079e+000  4.065105e+000
    endloop
  endfacet
  facet normal  9.749279e-001 -2.225211e-001  0.000000e+000
    outer loop
      vertex -8.650000e+000  0.000000e+000  0.000000e+000
      vertex -8.536114e+000  4.989663e-001  0.000000e+000
      vertex -8.650000e+000  0.000000e+000  2.700000e+000
    endloop
  endfacet
  facet normal  9.748170e-001 -2.230064e-001 -9.435601e-005
    outer loop
      vertex -8.650000e+000  0.000000e+000  2.700000e+000
      vertex -8.536114e+000  4.989663e-001  0.000000e+000
      vertex -8.535616e+000  5.000000e-001  2.700000e+000
    endloop
  endfacet
  facet normal  7.818320e-001 -6.234891e-001  9.455063e-005
    outer loop
      vertex -8.536114e+000  4.989663e-001  0.000000e+000
      vertex -8.217013e+000  8.991062e-001  0.000000e+000
      vertex -8.535616e+000  5.000000e-001  2.700000e+000
    endloop
  endfacet
  facet normal  8.153312e-001 -5.788969e-001  1.063898e-002
    outer loop
      vertex -8.535616e+000  5.000000e-001  2.700000e+000
      vertex -8.217013e+000  8.991062e-001  0.000000e+000
      vertex -8.371897e+000  7.498622e-001  3.748888e+000
    endloop
  endfacet
  facet normal -8.336499e-001  5.522932e-001  0.000000e+000
    outer loop
      vertex -6.464384e+000 -5.000000e-001  2.700000e+000
      vertex -6.635748e+000 -7.586623e-001  3.659636e+000
      vertex -6.464384e+000 -5.000000e-001  3.400974e+000
    endloop
  endfacet
  facet normal  7.818320e-001  6.234891e-001  9.455063e-005
    outer loop
      vertex -8.217013e+000 -8.991062e-001  0.000000e+000
      vertex -8.536114e+000 -4.989663e-001  0.000000e+000
      vertex -8.535616e+000 -5.000000e-001  2.700000e+000
    endloop
  endfacet
  facet normal  7.815202e-001  6.238798e-001  -0.000000e+000
    outer loop
      vertex -8.217013e+000 -8.991062e-001  0.000000e+000
      vertex -8.535616e+000 -5.000000e-001  2.700000e+000
      vertex -8.535616e+000 -5.000000e-001  3.400974e+000
    endloop
  endfacet
  facet normal  8.241957e-001  5.662028e-001  1.076627e-002
    outer loop
      vertex -8.217013e+000 -8.991062e-001  0.000000e+000
      vertex -8.535616e+000 -5.000000e-001  3.400974e+000
      vertex -8.352181e+000 -7.721930e-001  3.673167e+000
    endloop
  endfacet
  facet normal  6.283848e-001  7.778936e-001 -3.753556e-003
    outer loop
      vertex -8.217013e+000 -8.991062e-001  0.000000e+000
      vertex -8.352181e+000 -7.721930e-001  3.673167e+000
      vertex -8.071058e+000 -9.981946e-001  3.899169e+000
    endloop
  endfacet
  facet normal  3.857507e-001  9.225591e-001  9.005152e-003
    outer loop
      vertex -8.217013e+000 -8.991062e-001  0.000000e+000
      vertex -8.071058e+000 -9.981946e-001  3.899169e+000
      vertex -7.817186e+000 -1.105393e+000  4.006367e+000
    endloop
  endfacet
  facet normal  4.338815e-001  9.009646e-001  3.089911e-003
    outer loop
      vertex -8.217013e+000 -8.991062e-001  0.000000e+000
      vertex -7.817186e+000 -1.105393e+000  4.006367e+000
      vertex -7.755899e+000 -1.121167e+000  0.000000e+000
    endloop
  endfacet
  facet normal  9.749279e-001  2.225211e-001 -9.456224e-005
    outer loop
      vertex -8.536114e+000 -4.989663e-001  0.000000e+000
      vertex -8.650000e+000  0.000000e+000  0.000000e+000
      vertex -8.535616e+000 -5.000000e-001  2.700000e+000
    endloop
  endfacet
  facet normal  9.748170e-001  2.230064e-001  0.000000e+000
    outer loop
      vertex -8.535616e+000 -5.000000e-001  2.700000e+000
      vertex -8.650000e+000  0.000000e+000  0.000000e+000
      vertex -8.650000e+000  0.000000e+000  2.700000e+000
    endloop
  endfacet
  facet normal  1.714227e-001  9.851968e-001 -1.256701e-003
    outer loop
      vertex -7.817186e+000 -1.105393e+000  4.006367e+000
      vertex -7.574357e+000 -1.147591e+000  4.048565e+000
      vertex -7.755899e+000 -1.121167e+000  0.000000e+000
    endloop
  endfacet
  facet normal -4.368590e-002  9.990093e-001  8.479171e-003
    outer loop
      vertex -7.755899e+000 -1.121167e+000  0.000000e+000
      vertex -7.574357e+000 -1.147591e+000  4.048565e+000
      vertex -7.324878e+000 -1.136588e+000  4.037562e+000
    endloop
  endfacet
  facet normal  0.000000e+000  9.999927e-001  3.819335e-003
    outer loop
      vertex -7.755899e+000 -1.121167e+000  0.000000e+000
      vertex -7.324878e+000 -1.136588e+000  4.037562e+000
      vertex -7.244101e+000 -1.121167e+000  0.000000e+000
    endloop
  endfacet
  facet normal -2.550638e-001  9.669231e-001 -1.409854e-003
    outer loop
      vertex -7.324878e+000 -1.136588e+000  4.037562e+000
      vertex -7.092481e+000 -1.075373e+000  3.976348e+000
      vertex -7.244101e+000 -1.121167e+000  0.000000e+000
    endloop
  endfacet
  facet normal -4.669256e-001  8.842638e-001  7.620506e-003
    outer loop
      vertex -7.244101e+000 -1.121167e+000  0.000000e+000
      vertex -7.092481e+000 -1.075373e+000  3.976348e+000
      vertex -6.835019e+000 -9.382417e-001  3.839216e+000
    endloop
  endfacet
  facet normal -4.338812e-001  9.009641e-001  3.303783e-003
    outer loop
      vertex -7.244101e+000 -1.121167e+000  0.000000e+000
      vertex -6.835019e+000 -9.382417e-001  3.839216e+000
      vertex -6.782987e+000 -8.991062e-001  0.000000e+000
    endloop
  endfacet
  facet normal -6.702037e-001  7.421756e-001 -1.517668e-003
    outer loop
      vertex -6.835019e+000 -9.382417e-001  3.839216e+000
      vertex -6.635748e+000 -7.586623e-001  3.659636e+000
      vertex -6.782987e+000 -8.991062e-001  0.000000e+000
    endloop
  endfacet
  facet normal -8.151091e-001  5.792111e-001  1.056634e-002
    outer loop
      vertex -6.782987e+000 -8.991062e-001  0.000000e+000
      vertex -6.635748e+000 -7.586623e-001  3.659636e+000
      vertex -6.464384e+000 -5.000000e-001  2.700000e+000
    endloop
  endfacet
  facet normal -7.818315e-001  6.234897e-001  9.441286e-005
    outer loop
      vertex -6.782987e+000 -8.991062e-001  0.000000e+000
      vertex -6.464384e+000 -5.000000e-001  2.700000e+000
      vertex -6.463886e+000 -4.989663e-001  0.000000e+000
    endloop
  endfacet
  facet normal -9.748168e-001  2.230072e-001 -9.452779e-005
    outer loop
      vertex -6.463886e+000 -4.989663e-001  0.000000e+000
      vertex -6.464384e+000 -5.000000e-001  2.700000e+000
      vertex -6.350000e+000  1.408297e-016  2.700000e+000
    endloop
  endfacet
  facet normal -9.749279e-001  2.225211e-001  0.000000e+000
    outer loop
      vertex -6.463886e+000 -4.989663e-001  0.000000e+000
      vertex -6.350000e+000  1.408297e-016  2.700000e+000
      vertex -6.350000e+000  1.408297e-016  0.000000e+000
    endloop
  endfacet
  facet normal -8.213194e-001 -5.704685e-001  0.000000e+000
    outer loop
      vertex  8.535616e+000  5.000000e-001  3.499026e+000
      vertex  8.330106e+000  7.958787e-001  3.794904e+000
      vertex  8.535616e+000  5.000000e-001  2.700000e+000
    endloop
  endfacet
  facet normal  7.818315e-001 -6.234897e-001  9.441286e-005
    outer loop
      vertex  6.782987e+000  8.991062e-001  0.000000e+000
      vertex  6.464384e+000  5.000000e-001  2.700000e+000
      vertex  6.463886e+000  4.989663e-001  0.000000e+000
    endloop
  endfacet
  facet normal  9.748168e-001 -2.230072e-001 -9.452779e-005
    outer loop
      vertex  6.463886e+000  4.989663e-001  0.000000e+000
      vertex  6.464384e+000  5.000000e-001  2.700000e+000
      vertex  6.350000e+000  1.408297e-016  2.700000e+000
    endloop
  endfacet
  facet normal  9.749279e-001 -2.225211e-001  0.000000e+000
    outer loop
      vertex  6.463886e+000  4.989663e-001  0.000000e+000
      vertex  6.350000e+000  1.408297e-016  2.700000e+000
      vertex  6.350000e+000  1.408297e-016  0.000000e+000
    endloop
  endfacet
  facet normal  6.597876e-001 -7.514474e-001 -2.656410e-003
    outer loop
      vertex  6.872594e+000  9.637746e-001  3.962801e+000
      vertex  6.628103e+000  7.498622e-001  3.748888e+000
      vertex  6.782987e+000  8.991062e-001  0.000000e+000
    endloop
  endfacet
  facet normal  8.307536e-001 -5.565072e-001  1.216759e-002
    outer loop
      vertex  6.782987e+000  8.991062e-001  0.000000e+000
      vertex  6.628103e+000  7.498622e-001  3.748888e+000
      vertex  6.464384e+000  5.000000e-001  3.499026e+000
    endloop
  endfacet
  facet normal  7.815202e-001 -6.238799e-001  0.000000e+000
    outer loop
      vertex  6.782987e+000  8.991062e-001  0.000000e+000
      vertex  6.464384e+000  5.000000e-001  3.499026e+000
      vertex  6.464384e+000  5.000000e-001  2.700000e+000
    endloop
  endfacet
  facet normal  2.787611e-001 -9.603600e-001 -9.899129e-004
    outer loop
      vertex  7.294052e+000  1.131409e+000  4.130435e+000
      vertex  7.068754e+000  1.066079e+000  4.065105e+000
      vertex  7.244101e+000  1.121167e+000  0.000000e+000
    endloop
  endfacet
  facet normal  4.592221e-001 -8.882875e-001  7.770909e-003
    outer loop
      vertex  7.244101e+000  1.121167e+000  0.000000e+000
      vertex  7.068754e+000  1.066079e+000  4.065105e+000
      vertex  6.872594e+000  9.637746e-001  3.962801e+000
    endloop
  endfacet
  facet normal  4.338783e-001 -9.009582e-001  4.891717e-003
    outer loop
      vertex  7.244101e+000  1.121167e+000  0.000000e+000
      vertex  6.872594e+000  9.637746e-001  3.962801e+000
      vertex  6.782987e+000  8.991062e-001  0.000000e+000
    endloop
  endfacet
  facet normal -1.407562e-001 -9.900440e-001 -6.172155e-004
    outer loop
      vertex  7.781971e+000  1.114896e+000  4.113921e+000
      vertex  7.539758e+000  1.149310e+000  4.148336e+000
      vertex  7.755899e+000  1.121167e+000  0.000000e+000
    endloop
  endfacet
  facet normal  7.189808e-002 -9.973565e-001  1.051232e-002
    outer loop
      vertex  7.755899e+000  1.121167e+000  0.000000e+000
      vertex  7.539758e+000  1.149310e+000  4.148336e+000
      vertex  7.294052e+000  1.131409e+000  4.130435e+000
    endloop
  endfacet
  facet normal  0.000000e+000 -9.999970e-001  2.479545e-003
    outer loop
      vertex  7.755899e+000  1.121167e+000  0.000000e+000
      vertex  7.294052e+000  1.131409e+000  4.130435e+000
      vertex  7.244101e+000  1.121167e+000  0.000000e+000
    endloop
  endfacet
  facet normal -6.319079e-001 -7.750401e-001 -2.250767e-003
    outer loop
      vertex  8.330106e+000  7.958787e-001  3.794904e+000
      vertex  8.109634e+000  9.751136e-001  3.974139e+000
      vertex  8.217013e+000  8.991062e-001  0.000000e+000
    endloop
  endfacet
  facet normal -3.898228e-001 -9.208627e-001  7.079162e-003
    outer loop
      vertex  8.217013e+000  8.991062e-001  0.000000e+000
      vertex  8.109634e+000  9.751136e-001  3.974139e+000
      vertex  7.781971e+000  1.114896e+000  4.113921e+000
    endloop
  endfacet
  facet normal -4.338831e-001 -9.009681e-001  1.376306e-003
    outer loop
      vertex  8.217013e+000  8.991062e-001  0.000000e+000
      vertex  7.781971e+000  1.114896e+000  4.113921e+000
      vertex  7.755899e+000  1.121167e+000  0.000000e+000
    endloop
  endfacet
  facet normal -7.818162e-001 -6.234766e-001  6.339439e-003
    outer loop
      vertex  8.217013e+000  8.991062e-001  0.000000e+000
      vertex  8.536114e+000  4.989663e-001  0.000000e+000
      vertex  8.330106e+000  7.958787e-001  3.794904e+000
    endloop
  endfacet
  facet normal -8.212032e-001 -5.706359e-001  6.705662e-005
    outer loop
      vertex  8.330106e+000  7.958787e-001  3.794904e+000
      vertex  8.536114e+000  4.989663e-001  0.000000e+000
      vertex  8.535616e+000  5.000000e-001  2.700000e+000
    endloop
  endfacet
  facet normal -9.749279e-001 -2.225211e-001 -9.456224e-005
    outer loop
      vertex  8.536114e+000  4.989663e-001  0.000000e+000
      vertex  8.650000e+000  0.000000e+000  0.000000e+000
      vertex  8.535616e+000  5.000000e-001  2.700000e+000
    endloop
  endfacet
  facet normal -9.748170e-001 -2.230064e-001  0.000000e+000
    outer loop
      vertex  8.535616e+000  5.000000e-001  2.700000e+000
      vertex  8.650000e+000  0.000000e+000  0.000000e+000
      vertex  8.650000e+000  0.000000e+000  2.700000e+000
    endloop
  endfacet
  facet normal  8.292670e-001  5.588527e-001  0.000000e+000
    outer loop
      vertex  6.464384e+000 -5.000000e-001  3.400974e+000
      vertex  6.647818e+000 -7.721930e-001  3.673167e+000
      vertex  6.464384e+000 -5.000000e-001  2.700000e+000
    endloop
  endfacet
  facet normal -7.818320e-001  6.234891e-001  9.455063e-005
    outer loop
      vertex  8.217013e+000 -8.991062e-001  0.000000e+000
      vertex  8.535616e+000 -5.000000e-001  2.700000e+000
      vertex  8.536114e+000 -4.989663e-001  0.000000e+000
    endloop
  endfacet
  facet normal -9.748170e-001  2.230064e-001 -9.435601e-005
    outer loop
      vertex  8.536114e+000 -4.989663e-001  0.000000e+000
      vertex  8.535616e+000 -5.000000e-001  2.700000e+000
      vertex  8.650000e+000  0.000000e+000  2.700000e+000
    endloop
  endfacet
  facet normal -9.749279e-001  2.225211e-001  0.000000e+000
    outer loop
      vertex  8.536114e+000 -4.989663e-001  0.000000e+000
      vertex  8.650000e+000  0.000000e+000  2.700000e+000
      vertex  8.650000e+000  0.000000e+000  0.000000e+000
    endloop
  endfacet
  facet normal -6.702029e-001  7.421765e-001 -1.517731e-003
    outer loop
      vertex  8.164981e+000 -9.382417e-001  3.839216e+000
      vertex  8.364252e+000 -7.586623e-001  3.659636e+000
      vertex  8.217013e+000 -8.991062e-001  0.000000e+000
    endloop
  endfacet
  facet normal -8.281138e-001  5.604357e-001  1.181009e-002
    outer loop
      vertex  8.217013e+000 -8.991062e-001  0.000000e+000
      vertex  8.364252e+000 -7.586623e-001  3.659636e+000
      vertex  8.535616e+000 -5.000000e-001  3.400974e+000
    endloop
  endfacet
  facet normal -7.815202e-001  6.238798e-001  0.000000e+000
    outer loop
      vertex  8.217013e+000 -8.991062e-001  0.000000e+000
      vertex  8.535616e+000 -5.000000e-001  3.400974e+000
      vertex  8.535616e+000 -5.000000e-001  2.700000e+000
    endloop
  endfacet
  facet normal -2.550638e-001  9.669231e-001 -1.409854e-003
    outer loop
      vertex  7.675122e+000 -1.136588e+000  4.037562e+000
      vertex  7.907519e+000 -1.075373e+000  3.976348e+000
      vertex  7.755899e+000 -1.121167e+000  0.000000e+000
    endloop
  endfacet
  facet normal -4.669263e-001  8.842634e-001  7.620534e-003
    outer loop
      vertex  7.755899e+000 -1.121167e+000  0.000000e+000
      vertex  7.907519e+000 -1.075373e+000  3.976348e+000
      vertex  8.164981e+000 -9.382417e-001  3.839216e+000
    endloop
  endfacet
  facet normal -4.338812e-001  9.009641e-001  3.303729e-003
    outer loop
      vertex  7.755899e+000 -1.121167e+000  0.000000e+000
      vertex  8.164981e+000 -9.382417e-001  3.839216e+000
      vertex  8.217013e+000 -8.991062e-001  0.000000e+000
    endloop
  endfacet
  facet normal  1.714227e-001  9.851968e-001 -1.256701e-003
    outer loop
      vertex  7.182814e+000 -1.105393e+000  4.006367e+000
      vertex  7.425643e+000 -1.147591e+000  4.048565e+000
      vertex  7.244101e+000 -1.121167e+000  0.000000e+000
    endloop
  endfacet
  facet normal -4.368590e-002  9.990093e-001  8.479171e-003
    outer loop
      vertex  7.244101e+000 -1.121167e+000  0.000000e+000
      vertex  7.425643e+000 -1.147591e+000  4.048565e+000
      vertex  7.675122e+000 -1.136588e+000  4.037562e+000
    endloop
  endfacet
  facet normal  0.000000e+000  9.999927e-001  3.819335e-003
    outer loop
      vertex  7.244101e+000 -1.121167e+000  0.000000e+000
      vertex  7.675122e+000 -1.136588e+000  4.037562e+000
      vertex  7.755899e+000 -1.121167e+000  0.000000e+000
    endloop
  endfacet
  facet normal  6.283841e-001  7.778941e-001 -3.753518e-003
    outer loop
      vertex  6.647818e+000 -7.721930e-001  3.673167e+000
      vertex  6.928942e+000 -9.981946e-001  3.899169e+000
      vertex  6.782987e+000 -8.991062e-001  0.000000e+000
    endloop
  endfacet
  facet normal  3.857507e-001  9.225591e-001  9.005152e-003
    outer loop
      vertex  6.782987e+000 -8.991062e-001  0.000000e+000
      vertex  6.928942e+000 -9.981946e-001  3.899169e+000
      vertex  7.182814e+000 -1.105393e+000  4.006367e+000
    endloop
  endfacet
  facet normal  4.338815e-001  9.009646e-001  3.089911e-003
    outer loop
      vertex  6.782987e+000 -8.991062e-001  0.000000e+000
      vertex  7.182814e+000 -1.105393e+000  4.006367e+000
      vertex  7.244101e+000 -1.121167e+000  0.000000e+000
    endloop
  endfacet
  facet normal  7.818112e-001  6.234735e-001  7.227887e-003
    outer loop
      vertex  6.782987e+000 -8.991062e-001  0.000000e+000
      vertex  6.463886e+000 -4.989663e-001  0.000000e+000
      vertex  6.647818e+000 -7.721930e-001  3.673167e+000
    endloop
  endfacet
  facet normal  8.291659e-001  5.590026e-001  6.098827e-005
    outer loop
      vertex  6.647818e+000 -7.721930e-001  3.673167e+000
      vertex  6.463886e+000 -4.989663e-001  0.000000e+000
      vertex  6.464384e+000 -5.000000e-001  2.700000e+000
    endloop
  endfacet
  facet normal  9.749279e-001  2.225211e-001 -9.473442e-005
    outer loop
      vertex  6.463886e+000 -4.989663e-001  0.000000e+000
      vertex  6.350000e+000  1.408297e-016  0.000000e+000
      vertex  6.464384e+000 -5.000000e-001  2.700000e+000
    endloop
  endfacet
  facet normal  9.748168e-001  2.230072e-001  0.000000e+000
    outer loop
      vertex  6.464384e+000 -5.000000e-001  2.700000e+000
      vertex  6.350000e+000  1.408297e-016  0.000000e+000
      vertex  6.350000e+000  1.408297e-016  2.700000e+000
    endloop
  endfacet
  facet normal  8.229685e-001 -5.680543e-001  6.098516e-003
    outer loop
      vertex -3.218596e+000  2.851427e+000  0.000000e+000
      vertex -3.450258e+000  2.566266e+000  4.700000e+000
      vertex -3.807461e+000  1.998310e+000  0.000000e+000
    endloop
  endfacet
  facet normal  7.276254e-001 -6.859505e-001 -5.753978e-003
    outer loop
      vertex -2.765072e+000  3.293080e+000  4.700000e+000
      vertex -3.450258e+000  2.566266e+000  4.700000e+000
      vertex -3.218596e+000  2.851427e+000  0.000000e+000
    endloop
  endfacet
  facet normal  6.631093e-001 -7.484956e-001  6.348748e-003
    outer loop
      vertex -2.442678e+000  3.538831e+000  0.000000e+000
      vertex -2.765072e+000  3.293080e+000  4.700000e+000
      vertex -3.218596e+000  2.851427e+000  0.000000e+000
    endloop
  endfacet
  facet normal  5.497286e-001 -8.353220e-001 -5.968458e-003
    outer loop
      vertex -1.930681e+000  3.842196e+000  4.700000e+000
      vertex -2.765072e+000  3.293080e+000  4.700000e+000
      vertex -2.442678e+000  3.538831e+000  0.000000e+000
    endloop
  endfacet
  facet normal  4.647133e-001 -8.854371e-001  6.527461e-003
    outer loop
      vertex -1.524801e+000  4.020570e+000  0.000000e+000
      vertex -1.930681e+000  3.842196e+000  4.700000e+000
      vertex -2.442678e+000  3.538831e+000  0.000000e+000
    endloop
  endfacet
  facet normal  3.421685e-001 -9.396188e-001 -6.111480e-003
    outer loop
      vertex -9.921078e-001  4.183984e+000  4.700000e+000
      vertex -1.930681e+000  3.842196e+000  4.700000e+000
      vertex -1.524801e+000  4.020570e+000  0.000000e+000
    endloop
  endfacet
  facet normal  2.393104e-001 -9.709204e-001  6.634671e-003
    outer loop
      vertex -5.183077e-001  4.268648e+000  0.000000e+000
      vertex -9.921078e-001  4.183984e+000  4.700000e+000
      vertex -1.524801e+000  4.020570e+000  0.000000e+000
    endloop
  endfacet
  facet normal  1.161456e-001 -9.932129e-001 -6.182962e-003
    outer loop
      vertex -1.646293e-015  4.300000e+000  4.700000e+000
      vertex -9.921078e-001  4.183984e+000  4.700000e+000
      vertex -5.183077e-001  4.268648e+000  0.000000e+000
    endloop
  endfacet
  facet normal  0.000000e+000 -9.999778e-001  6.670499e-003
    outer loop
      vertex  5.183077e-001  4.268648e+000  0.000000e+000
      vertex -1.646293e-015  4.300000e+000  4.700000e+000
      vertex -5.183077e-001  4.268648e+000  0.000000e+000
    endloop
  endfacet
  facet normal -1.161456e-001 -9.932129e-001 -6.182962e-003
    outer loop
      vertex  5.183077e-001  4.268648e+000  0.000000e+000
      vertex  9.921078e-001  4.183984e+000  4.700000e+000
      vertex -1.646293e-015  4.300000e+000  4.700000e+000
    endloop
  endfacet
  facet normal -2.393104e-001 -9.709204e-001  6.634670e-003
    outer loop
      vertex  9.921078e-001  4.183984e+000  4.700000e+000
      vertex  5.183077e-001  4.268648e+000  0.000000e+000
      vertex  1.524801e+000  4.020570e+000  0.000000e+000
    endloop
  endfacet
  facet normal -3.421685e-001 -9.396188e-001 -6.111480e-003
    outer loop
      vertex  1.524801e+000  4.020570e+000  0.000000e+000
      vertex  1.930681e+000  3.842196e+000  4.700000e+000
      vertex  9.921078e-001  4.183984e+000  4.700000e+000
    endloop
  endfacet
  facet normal -4.647133e-001 -8.854371e-001  6.527461e-003
    outer loop
      vertex  1.930681e+000  3.842196e+000  4.700000e+000
      vertex  1.524801e+000  4.020570e+000  0.000000e+000
      vertex  2.442678e+000  3.538831e+000  0.000000e+000
    endloop
  endfacet
  facet normal -5.497286e-001 -8.353220e-001 -5.968458e-003
    outer loop
      vertex  2.442678e+000  3.538831e+000  0.000000e+000
      vertex  2.765072e+000  3.293080e+000  4.700000e+000
      vertex  1.930681e+000  3.842196e+000  4.700000e+000
    endloop
  endfacet
  facet normal -6.631093e-001 -7.484956e-001  6.348748e-003
    outer loop
      vertex  2.765072e+000  3.293080e+000  4.700000e+000
      vertex  2.442678e+000  3.538831e+000  0.000000e+000
      vertex  3.218596e+000  2.851427e+000  0.000000e+000
    endloop
  endfacet
  facet normal -7.276254e-001 -6.859505e-001 -5.753978e-003
    outer loop
      vertex  3.218596e+000  2.851427e+000  0.000000e+000
      vertex  3.450258e+000  2.566266e+000  4.700000e+000
      vertex  2.765072e+000  3.293080e+000  4.700000e+000
    endloop
  endfacet
  facet normal -8.229685e-001 -5.680543e-001  6.098516e-003
    outer loop
      vertex  3.450258e+000  2.566266e+000  4.700000e+000
      vertex  3.218596e+000  2.851427e+000  0.000000e+000
      vertex  3.807461e+000  1.998310e+000  0.000000e+000
    endloop
  endfacet
  facet normal  9.927088e-001 -1.205369e-001  0.000000e+000
    outer loop
      vertex -4.300000e+000  5.265807e-016  0.000000e+000
      vertex -4.175050e+000  1.029057e+000  0.000000e+000
      vertex -4.300000e+000  5.265807e-016  2.700000e+000
    endloop
  endfacet
  facet normal  9.980152e-001 -5.822238e-002  2.399564e-002
    outer loop
      vertex -4.300000e+000  5.265807e-016  2.700000e+000
      vertex -4.175050e+000  1.029057e+000  0.000000e+000
      vertex -4.270831e+000  5.000000e-001  2.700000e+000
    endloop
  endfacet
  facet normal  9.828430e-001 -1.844398e-001 -1.274538e-003
    outer loop
      vertex -4.175050e+000  1.029057e+000  0.000000e+000
      vertex -4.155184e+000  1.106546e+000  4.105572e+000
      vertex -4.270831e+000  5.000000e-001  2.700000e+000
    endloop
  endfacet
  facet normal  9.823045e-001 -1.872907e-001  0.000000e+000
    outer loop
      vertex -4.270831e+000  5.000000e-001  2.700000e+000
      vertex -4.155184e+000  1.106546e+000  4.105572e+000
      vertex -4.270831e+000  5.000000e-001  3.499026e+000
    endloop
  endfacet
  facet normal  8.662595e-001 -4.995644e-001 -5.468077e-003
    outer loop
      vertex -3.450258e+000  2.566266e+000  4.700000e+000
      vertex -3.949264e+000  1.700974e+000  4.700000e+000
      vertex -3.807461e+000  1.998310e+000  0.000000e+000
    endloop
  endfacet
  facet normal  9.425975e-001 -3.338507e-001  7.318630e-003
    outer loop
      vertex -3.807461e+000  1.998310e+000  0.000000e+000
      vertex -3.949264e+000  1.700974e+000  4.700000e+000
      vertex -4.155184e+000  1.106546e+000  4.105572e+000
    endloop
  endfacet
  facet normal  9.350141e-001 -3.546040e-001  2.168567e-003
    outer loop
      vertex -3.807461e+000  1.998310e+000  0.000000e+000
      vertex -4.155184e+000  1.106546e+000  4.105572e+000
      vertex -4.175050e+000  1.029057e+000  0.000000e+000
    endloop
  endfacet
  facet normal -8.662595e-001 -4.995644e-001 -5.468077e-003
    outer loop
      vertex  3.450258e+000  2.566266e+000  4.700000e+000
      vertex  3.807461e+000  1.998310e+000  0.000000e+000
      vertex  3.949264e+000  1.700974e+000  4.700000e+000
    endloop
  endfacet
  facet normal -9.350007e-001 -3.545989e-001  5.776837e-003
    outer loop
      vertex  3.949264e+000  1.700974e+000  4.700000e+000
      vertex  3.807461e+000  1.998310e+000  0.000000e+000
      vertex  4.175050e+000  1.029057e+000  0.000000e+000
    endloop
  endfacet
  facet normal -9.444008e-001 -3.287927e-001  1.635987e-003
    outer loop
      vertex  3.949264e+000  1.700974e+000  4.700000e+000
      vertex  4.175050e+000  1.029057e+000  0.000000e+000
      vertex  4.155184e+000  1.106546e+000  4.105572e+000
    endloop
  endfacet
  facet normal -9.828430e-001 -1.844398e-001 -1.274538e-003
    outer loop
      vertex  4.155184e+000  1.106546e+000  4.105572e+000
      vertex  4.175050e+000  1.029057e+000  0.000000e+000
      vertex  4.270831e+000  5.000000e-001  2.700000e+000
    endloop
  endfacet
  facet normal -9.823045e-001 -1.872907e-001  0.000000e+000
    outer loop
      vertex  4.155184e+000  1.106546e+000  4.105572e+000
      vertex  4.270831e+000  5.000000e-001  2.700000e+000
      vertex  4.270831e+000  5.000000e-001  3.499026e+000
    endloop
  endfacet
  facet normal -9.980152e-001 -5.822238e-002  2.399564e-002
    outer loop
      vertex  4.270831e+000  5.000000e-001  2.700000e+000
      vertex  4.175050e+000  1.029057e+000  0.000000e+000
      vertex  4.300000e+000  0.000000e+000  2.700000e+000
    endloop
  endfacet
  facet normal -9.927088e-001 -1.205369e-001  -0.000000e+000
    outer loop
      vertex  4.300000e+000  0.000000e+000  2.700000e+000
      vertex  4.175050e+000  1.029057e+000  0.000000e+000
      vertex  4.300000e+000  0.000000e+000  0.000000e+000
    endloop
  endfacet
  facet normal -8.229724e-001  5.680569e-001  5.270254e-003
    outer loop
      vertex  3.218596e+000 -2.851427e+000  0.000000e+000
      vertex  3.398320e+000 -2.634657e+000  4.700000e+000
      vertex  3.807461e+000 -1.998310e+000  0.000000e+000
    endloop
  endfacet
  facet normal -7.155311e-001  6.985639e-001 -4.857353e-003
    outer loop
      vertex  2.715437e+000 -3.334126e+000  4.700000e+000
      vertex  3.398320e+000 -2.634657e+000  4.700000e+000
      vertex  3.218596e+000 -2.851427e+000  0.000000e+000
    endloop
  endfacet
  facet normal -6.631112e-001  7.484978e-001  5.882767e-003
    outer loop
      vertex  2.442678e+000 -3.538831e+000  0.000000e+000
      vertex  2.715437e+000 -3.334126e+000  4.700000e+000
      vertex  3.218596e+000 -2.851427e+000  0.000000e+000
    endloop
  endfacet
  facet normal -5.392610e-001  8.421215e-001 -5.382424e-003
    outer loop
      vertex  1.892217e+000 -3.861284e+000  4.700000e+000
      vertex  2.715437e+000 -3.334126e+000  4.700000e+000
      vertex  2.442678e+000 -3.538831e+000  0.000000e+000
    endloop
  endfacet
  facet normal -4.647139e-001  8.854384e-001  6.320332e-003
    outer loop
      vertex  1.524801e+000 -4.020570e+000  0.000000e+000
      vertex  1.892217e+000 -3.861284e+000  4.700000e+000
      vertex  2.442678e+000 -3.538831e+000  0.000000e+000
    endloop
  endfacet
  facet normal -3.351226e-001  9.421571e-001 -5.732535e-003
    outer loop
      vertex  9.712052e-001 -4.188885e+000  4.700000e+000
      vertex  1.892217e+000 -3.861284e+000  4.700000e+000
      vertex  1.524801e+000 -4.020570e+000  0.000000e+000
    endloop
  endfacet
  facet normal -2.393105e-001  9.709207e-001  6.582902e-003
    outer loop
      vertex  5.183077e-001 -4.268648e+000  0.000000e+000
      vertex  9.712052e-001 -4.188885e+000  4.700000e+000
      vertex  1.524801e+000 -4.020570e+000  0.000000e+000
    endloop
  endfacet
  facet normal -1.136659e-001  9.935015e-001 -5.907576e-003
    outer loop
      vertex -7.898711e-016 -4.300000e+000  4.700000e+000
      vertex  9.712052e-001 -4.188885e+000  4.700000e+000
      vertex  5.183077e-001 -4.268648e+000  0.000000e+000
    endloop
  endfacet
  facet normal  0.000000e+000  9.999778e-001  6.670499e-003
    outer loop
      vertex -5.183077e-001 -4.268648e+000  0.000000e+000
      vertex -7.898711e-016 -4.300000e+000  4.700000e+000
      vertex  5.183077e-001 -4.268648e+000  0.000000e+000
    endloop
  endfacet
  facet normal  1.136659e-001  9.935015e-001 -5.907576e-003
    outer loop
      vertex -5.183077e-001 -4.268648e+000  0.000000e+000
      vertex -9.712052e-001 -4.188885e+000  4.700000e+000
      vertex -7.898711e-016 -4.300000e+000  4.700000e+000
    endloop
  endfacet
  facet normal  2.393105e-001  9.709207e-001  6.582900e-003
    outer loop
      vertex -9.712052e-001 -4.188885e+000  4.700000e+000
      vertex -5.183077e-001 -4.268648e+000  0.000000e+000
      vertex -1.524801e+000 -4.020570e+000  0.000000e+000
    endloop
  endfacet
  facet normal  3.351226e-001  9.421571e-001 -5.732535e-003
    outer loop
      vertex -1.524801e+000 -4.020570e+000  0.000000e+000
      vertex -1.892217e+000 -3.861284e+000  4.700000e+000
      vertex -9.712052e-001 -4.188885e+000  4.700000e+000
    endloop
  endfacet
  facet normal  4.647139e-001  8.854384e-001  6.320332e-003
    outer loop
      vertex -1.892217e+000 -3.861284e+000  4.700000e+000
      vertex -1.524801e+000 -4.020570e+000  0.000000e+000
      vertex -2.442678e+000 -3.538831e+000  0.000000e+000
    endloop
  endfacet
  facet normal  5.392610e-001  8.421215e-001 -5.382424e-003
    outer loop
      vertex -2.442678e+000 -3.538831e+000  0.000000e+000
      vertex -2.715437e+000 -3.334126e+000  4.700000e+000
      vertex -1.892217e+000 -3.861284e+000  4.700000e+000
    endloop
  endfacet
  facet normal  6.631112e-001  7.484978e-001  5.882767e-003
    outer loop
      vertex -2.715437e+000 -3.334126e+000  4.700000e+000
      vertex -2.442678e+000 -3.538831e+000  0.000000e+000
      vertex -3.218596e+000 -2.851427e+000  0.000000e+000
    endloop
  endfacet
  facet normal  7.155311e-001  6.985639e-001 -4.857353e-003
    outer loop
      vertex -3.218596e+000 -2.851427e+000  0.000000e+000
      vertex -3.398320e+000 -2.634657e+000  4.700000e+000
      vertex -2.715437e+000 -3.334126e+000  4.700000e+000
    endloop
  endfacet
  facet normal  8.229724e-001  5.680569e-001  5.270254e-003
    outer loop
      vertex -3.398320e+000 -2.634657e+000  4.700000e+000
      vertex -3.218596e+000 -2.851427e+000  0.000000e+000
      vertex -3.807461e+000 -1.998310e+000  0.000000e+000
    endloop
  endfacet
  facet normal -9.927088e-001  1.205369e-001  0.000000e+000
    outer loop
      vertex  4.300000e+000  0.000000e+000  0.000000e+000
      vertex  4.175050e+000 -1.029057e+000  0.000000e+000
      vertex  4.300000e+000  0.000000e+000  2.700000e+000
    endloop
  endfacet
  facet normal -9.980152e-001  5.822238e-002  2.399564e-002
    outer loop
      vertex  4.300000e+000  0.000000e+000  2.700000e+000
      vertex  4.175050e+000 -1.029057e+000  0.000000e+000
      vertex  4.270831e+000 -5.000000e-001  2.700000e+000
    endloop
  endfacet
  facet normal -9.819903e-001  1.889183e-001 -2.182328e-003
    outer loop
      vertex  4.175050e+000 -1.029057e+000  0.000000e+000
      vertex  4.141414e+000 -1.157017e+000  4.057992e+000
      vertex  4.270831e+000 -5.000000e-001  2.700000e+000
    endloop
  endfacet
  facet normal -9.811470e-001  1.932629e-001  0.000000e+000
    outer loop
      vertex  4.270831e+000 -5.000000e-001  2.700000e+000
      vertex  4.141414e+000 -1.157017e+000  4.057992e+000
      vertex  4.270831e+000 -5.000000e-001  3.400974e+000
    endloop
  endfacet
  facet normal -8.548229e-001  5.189034e-001 -4.157439e-003
    outer loop
      vertex  3.398320e+000 -2.634657e+000  4.700000e+000
      vertex  3.905574e+000 -1.799026e+000  4.700000e+000
      vertex  3.807461e+000 -1.998310e+000  0.000000e+000
    endloop
  endfacet
  facet normal -9.371076e-001  3.490083e-001  4.763950e-003
    outer loop
      vertex  3.807461e+000 -1.998310e+000  0.000000e+000
      vertex  3.905574e+000 -1.799026e+000  4.700000e+000
      vertex  4.141414e+000 -1.157017e+000  4.057992e+000
    endloop
  endfacet
  facet normal -9.350107e-001  3.546027e-001  3.431571e-003
    outer loop
      vertex  3.807461e+000 -1.998310e+000  0.000000e+000
      vertex  4.141414e+000 -1.157017e+000  4.057992e+000
      vertex  4.175050e+000 -1.029057e+000  0.000000e+000
    endloop
  endfacet
  facet normal  8.548229e-001  5.189034e-001 -4.157439e-003
    outer loop
      vertex -3.398320e+000 -2.634657e+000  4.700000e+000
      vertex -3.807461e+000 -1.998310e+000  0.000000e+000
      vertex -3.905574e+000 -1.799026e+000  4.700000e+000
    endloop
  endfacet
  facet normal  9.350069e-001  3.546012e-001  4.482952e-003
    outer loop
      vertex -3.905574e+000 -1.799026e+000  4.700000e+000
      vertex -3.807461e+000 -1.998310e+000  0.000000e+000
      vertex -4.175050e+000 -1.029057e+000  0.000000e+000
    endloop
  endfacet
  facet normal  9.376281e-001  3.476254e-001  3.189862e-003
    outer loop
      vertex -3.905574e+000 -1.799026e+000  4.700000e+000
      vertex -4.175050e+000 -1.029057e+000  0.000000e+000
      vertex -4.141414e+000 -1.157017e+000  4.057992e+000
    endloop
  endfacet
  facet normal  9.819903e-001  1.889183e-001 -2.182328e-003
    outer loop
      vertex -4.141414e+000 -1.157017e+000  4.057992e+000
      vertex -4.175050e+000 -1.029057e+000  0.000000e+000
      vertex -4.270831e+000 -5.000000e-001  2.700000e+000
    endloop
  endfacet
  facet normal  9.811470e-001  1.932629e-001  -0.000000e+000
    outer loop
      vertex -4.141414e+000 -1.157017e+000  4.057992e+000
      vertex -4.270831e+000 -5.000000e-001  2.700000e+000
      vertex -4.270831e+000 -5.000000e-001  3.400974e+000
    endloop
  endfacet
  facet normal  9.980152e-001  5.822238e-002  2.399564e-002
    outer loop
      vertex -4.270831e+000 -5.000000e-001  2.700000e+000
      vertex -4.175050e+000 -1.029057e+000  0.000000e+000
      vertex -4.300000e+000  5.265807e-016  2.700000e+000
    endloop
  endfacet
  facet normal  9.927088e-001  1.205369e-001  0.000000e+000
    outer loop
      vertex -4.300000e+000  5.265807e-016  2.700000e+000
      vertex -4.175050e+000 -1.029057e+000  0.000000e+000
      vertex -4.300000e+000  5.265807e-016  0.000000e+000
    endloop
  endfacet
  facet normal  0.000000e+000  0.000000e+000  1.000000e+000
    outer loop
      vertex -1.400000e+001  6.500000e+000  4.700000e+000
      vertex -1.400000e+001  1.700974e+000  4.700000e+000
      vertex -9.921078e-001  4.183984e+000  4.700000e+000
    endloop
  endfacet
  facet normal  0.000000e+000  -0.000000e+000  1.000000e+000
    outer loop
      vertex -1.400000e+001  6.500000e+000  4.700000e+000
      vertex -9.921078e-001  4.183984e+000  4.700000e+000
      vertex -1.646293e-015  4.300000e+000  4.700000e+000
    endloop
  endfacet
  facet normal  -0.000000e+000  -0.000000e+000  1.000000e+000
    outer loop
      vertex -1.400000e+001  6.500000e+000  4.700000e+000
      vertex -1.646293e-015  4.300000e+000  4.700000e+000
      vertex  9.921078e-001  4.183984e+000  4.700000e+000
    endloop
  endfacet
  facet normal  0.000000e+000  -0.000000e+000  1.000000e+000
    outer loop
      vertex -1.400000e+001  6.500000e+000  4.700000e+000
      vertex  9.921078e-001  4.183984e+000  4.700000e+000
      vertex  1.400000e+001  6.500000e+000  4.700000e+000
    endloop
  endfacet
  facet normal  0.000000e+000  -0.000000e+000  1.000000e+000
    outer loop
      vertex -1.400000e+001  1.700974e+000  4.700000e+000
      vertex -3.949264e+000  1.700974e+000  4.700000e+000
      vertex -3.450258e+000  2.566266e+000  4.700000e+000
    endloop
  endfacet
  facet normal  0.000000e+000  -0.000000e+000  1.000000e+000
    outer loop
      vertex -1.400000e+001  1.700974e+000  4.700000e+000
      vertex -3.450258e+000  2.566266e+000  4.700000e+000
      vertex -2.765072e+000  3.293080e+000  4.700000e+000
    endloop
  endfacet
  facet normal  0.000000e+000  -0.000000e+000  9.999999e-001
    outer loop
      vertex -1.400000e+001  1.700974e+000  4.700000e+000
      vertex -2.765072e+000  3.293080e+000  4.700000e+000
      vertex -1.930681e+000  3.842196e+000  4.700000e+000
    endloop
  endfacet
  facet normal  0.000000e+000  -0.000000e+000  1.000000e+000
    outer loop
      vertex -1.400000e+001  1.700974e+000  4.700000e+000
      vertex -1.930681e+000  3.842196e+000  4.700000e+000
      vertex -9.921078e-001  4.183984e+000  4.700000e+000
    endloop
  endfacet
  facet normal  0.000000e+000  0.000000e+000  1.000000e+000
    outer loop
      vertex  1.400000e+001  1.700974e+000  4.700000e+000
      vertex  1.400000e+001  6.500000e+000  4.700000e+000
      vertex  9.921078e-001  4.183984e+000  4.700000e+000
    endloop
  endfacet
  facet normal  0.000000e+000  0.000000e+000  1.000000e+000
    outer loop
      vertex  1.400000e+001  1.700974e+000  4.700000e+000
      vertex  9.921078e-001  4.183984e+000  4.700000e+000
      vertex  1.930681e+000  3.842196e+000  4.700000e+000
    endloop
  endfacet
  facet normal  0.000000e+000  0.000000e+000  9.999999e-001
    outer loop
      vertex  1.400000e+001  1.700974e+000  4.700000e+000
      vertex  1.930681e+000  3.842196e+000  4.700000e+000
      vertex  2.765072e+000  3.293080e+000  4.700000e+000
    endloop
  endfacet
  facet normal  0.000000e+000  0.000000e+000  1.000000e+000
    outer loop
      vertex  1.400000e+001  1.700974e+000  4.700000e+000
      vertex  2.765072e+000  3.293080e+000  4.700000e+000
      vertex  3.450258e+000  2.566266e+000  4.700000e+000
    endloop
  endfacet
  facet normal  0.000000e+000  0.000000e+000  1.000000e+000
    outer loop
      vertex  1.400000e+001  1.700974e+000  4.700000e+000
      vertex  3.450258e+000  2.566266e+000  4.700000e+000
      vertex  3.949264e+000  1.700974e+000  4.700000e+000
    endloop
  endfacet
  facet normal  0.000000e+000  0.000000e+000  1.000000e+000
    outer loop
      vertex  1.400000e+001 -6.500000e+000  4.700000e+000
      vertex  1.400000e+001 -1.799026e+000  4.700000e+000
      vertex  3.905574e+000 -1.799026e+000  4.700000e+000
    endloop
  endfacet
  facet normal  0.000000e+000  0.000000e+000  1.000000e+000
    outer loop
      vertex  1.400000e+001 -6.500000e+000  4.700000e+000
      vertex  3.905574e+000 -1.799026e+000  4.700000e+000
      vertex  3.398320e+000 -2.634657e+000  4.700000e+000
    endloop
  endfacet
  facet normal  0.000000e+000  0.000000e+000  1.000000e+000
    outer loop
      vertex  1.400000e+001 -6.500000e+000  4.700000e+000
      vertex  3.398320e+000 -2.634657e+000  4.700000e+000
      vertex  2.715437e+000 -3.334126e+000  4.700000e+000
    endloop
  endfacet
  facet normal  0.000000e+000  0.000000e+000  1.000000e+000
    outer loop
      vertex  1.400000e+001 -6.500000e+000  4.700000e+000
      vertex  2.715437e+000 -3.334126e+000  4.700000e+000
      vertex  1.892217e+000 -3.861284e+000  4.700000e+000
    endloop
  endfacet
  facet normal  0.000000e+000  0.000000e+000  1.000000e+000
    outer loop
      vertex  1.400000e+001 -6.500000e+000  4.700000e+000
      vertex  1.892217e+000 -3.861284e+000  4.700000e+000
      vertex  9.712052e-001 -4.188885e+000  4.700000e+000
    endloop
  endfacet
  facet normal  0.000000e+000  0.000000e+000  1.000000e+000
    outer loop
      vertex  1.400000e+001 -6.500000e+000  4.700000e+000
      vertex  9.712052e-001 -4.188885e+000  4.700000e+000
      vertex -7.898711e-016 -4.300000e+000  4.700000e+000
    endloop
  endfacet
  facet normal  0.000000e+000  0.000000e+000  1.000000e+000
    outer loop
      vertex  1.400000e+001 -6.500000e+000  4.700000e+000
      vertex -7.898711e-016 -4.300000e+000  4.700000e+000
      vertex -1.400000e+001 -6.500000e+000  4.700000e+000
    endloop
  endfacet
  facet normal  0.000000e+000  0.000000e+000  1.000000e+000
    outer loop
      vertex -1.400000e+001 -6.500000e+000  4.700000e+000
      vertex -7.898711e-016 -4.300000e+000  4.700000e+000
      vertex -9.712052e-001 -4.188885e+000  4.700000e+000
    endloop
  endfacet
  facet normal  0.000000e+000  0.000000e+000  1.000000e+000
    outer loop
      vertex -1.400000e+001 -6.500000e+000  4.700000e+000
      vertex -9.712052e-001 -4.188885e+000  4.700000e+000
      vertex -1.892217e+000 -3.861284e+000  4.700000e+000
    endloop
  endfacet
  facet normal  0.000000e+000  0.000000e+000  1.000000e+000
    outer loop
      vertex -1.400000e+001 -6.500000e+000  4.700000e+000
      vertex -1.892217e+000 -3.861284e+000  4.700000e+000
      vertex -2.715437e+000 -3.334126e+000  4.700000e+000
    endloop
  endfacet
  facet normal  0.000000e+000  0.000000e+000  1.000000e+000
    outer loop
      vertex -1.400000e+001 -6.500000e+000  4.700000e+000
      vertex -2.715437e+000 -3.334126e+000  4.700000e+000
      vertex -3.398320e+000 -2.634657e+000  4.700000e+000
    endloop
  endfacet
  facet normal  0.000000e+000  0.000000e+000  1.000000e+000
    outer loop
      vertex -1.400000e+001 -6.500000e+000  4.700000e+000
      vertex -3.398320e+000 -2.634657e+000  4.700000e+000
      vertex -3.905574e+000 -1.799026e+000  4.700000e+000
    endloop
  endfacet
  facet normal  0.000000e+000  0.000000e+000  1.000000e+000
    outer loop
      vertex -1.400000e+001 -6.500000e+000  4.700000e+000
      vertex -3.905574e+000 -1.799026e+000  4.700000e+000
      vertex -1.400000e+001 -1.799026e+000  4.700000e+000
    endloop
  endfacet
  facet normal  1.000000e+000  0.000000e+000  0.000000e+000
    outer loop
      vertex  1.400000e+001 -6.500000e+000 -3.500000e+000
      vertex  1.400000e+001  6.500000e+000 -3.500000e+000
      vertex  1.400000e+001  5.000000e-001  2.700000e+000
    endloop
  endfacet
  facet normal  1.000000e+000  0.000000e+000  0.000000e+000
    outer loop
      vertex  1.400000e+001 -6.500000e+000 -3.500000e+000
      vertex  1.400000e+001  5.000000e-001  2.700000e+000
      vertex  1.400000e+001 -5.000000e-001  2.700000e+000
    endloop
  endfacet
  facet normal  1.000000e+000  0.000000e+000  -0.000000e+000
    outer loop
      vertex  1.400000e+001 -6.500000e+000 -3.500000e+000
      vertex  1.400000e+001 -5.000000e-001  2.700000e+000
      vertex  1.400000e+001 -5.000000e-001  3.400974e+000
    endloop
  endfacet
  facet normal  1.000000e+000  0.000000e+000  0.000000e+000
    outer loop
      vertex  1.400000e+001 -6.500000e+000 -3.500000e+000
      vertex  1.400000e+001 -5.000000e-001  3.400974e+000
      vertex  1.400000e+001 -1.799026e+000  4.700000e+000
    endloop
  endfacet
  facet normal  1.000000e+000  0.000000e+000  0.000000e+000
    outer loop
      vertex  1.400000e+001 -6.500000e+000 -3.500000e+000
      vertex  1.400000e+001 -1.799026e+000  4.700000e+000
      vertex  1.400000e+001 -6.500000e+000  4.700000e+000
    endloop
  endfacet
  facet normal  1.000000e+000  0.000000e+000  0.000000e+000
    outer loop
      vertex  1.400000e+001  6.500000e+000 -3.500000e+000
      vertex  1.400000e+001  6.500000e+000  4.700000e+000
      vertex  1.400000e+001  1.700974e+000  4.700000e+000
    endloop
  endfacet
  facet normal  1.000000e+000  0.000000e+000  0.000000e+000
    outer loop
      vertex  1.400000e+001  6.500000e+000 -3.500000e+000
      vertex  1.400000e+001  1.700974e+000  4.700000e+000
      vertex  1.400000e+001  5.000000e-001  3.499026e+000
    endloop
  endfacet
  facet normal  1.000000e+000  0.000000e+000  0.000000e+000
    outer loop
      vertex  1.400000e+001  6.500000e+000 -3.500000e+000
      vertex  1.400000e+001  5.000000e-001  3.499026e+000
      vertex  1.400000e+001  5.000000e-001  2.700000e+000
    endloop
  endfacet
  facet normal -1.000000e+000  0.000000e+000  0.000000e+000
    outer loop
      vertex -1.400000e+001 -6.500000e+000 -3.500000e+000
      vertex -1.400000e+001 -6.500000e+000  4.700000e+000
      vertex -1.400000e+001 -1.799026e+000  4.700000e+000
    endloop
  endfacet
  facet normal -1.000000e+000  0.000000e+000  -0.000000e+000
    outer loop
      vertex -1.400000e+001 -6.500000e+000 -3.500000e+000
      vertex -1.400000e+001 -1.799026e+000  4.700000e+000
      vertex -1.400000e+001 -5.000000e-001  3.400974e+000
    endloop
  endfacet
  facet normal -1.000000e+000  0.000000e+000  -0.000000e+000
    outer loop
      vertex -1.400000e+001 -6.500000e+000 -3.500000e+000
      vertex -1.400000e+001 -5.000000e-001  3.400974e+000
      vertex -1.400000e+001 -5.000000e-001  2.700000e+000
    endloop
  endfacet
  facet normal -1.000000e+000  0.000000e+000  -0.000000e+000
    outer loop
      vertex -1.400000e+001 -6.500000e+000 -3.500000e+000
      vertex -1.400000e+001 -5.000000e-001  2.700000e+000
      vertex -1.400000e+001  5.000000e-001  2.700000e+000
    endloop
  endfacet
  facet normal -1.000000e+000  0.000000e+000  -0.000000e+000
    outer loop
      vertex -1.400000e+001 -6.500000e+000 -3.500000e+000
      vertex -1.400000e+001  5.000000e-001  2.700000e+000
      vertex -1.400000e+001  6.500000e+000 -3.500000e+000
    endloop
  endfacet
  facet normal -1.000000e+000  0.000000e+000  0.000000e+000
    outer loop
      vertex -1.400000e+001  6.500000e+000 -3.500000e+000
      vertex -1.400000e+001  5.000000e-001  2.700000e+000
      vertex -1.400000e+001  5.000000e-001  3.499026e+000
    endloop
  endfacet
  facet normal -1.000000e+000  0.000000e+000  0.000000e+000
    outer loop
      vertex -1.400000e+001  6.500000e+000 -3.500000e+000
      vertex -1.400000e+001  5.000000e-001  3.499026e+000
      vertex -1.400000e+001  1.700974e+000  4.700000e+000
    endloop
  endfacet
  facet normal -1.000000e+000  0.000000e+000  0.000000e+000
    outer loop
      vertex -1.400000e+001  6.500000e+000 -3.500000e+000
      vertex -1.400000e+001  1.700974e+000  4.700000e+000
      vertex -1.400000e+001  6.500000e+000  4.700000e+000
    endloop
  endfacet
  facet normal -7.654273e-008 -7.071107e-001  7.071029e-001
    outer loop
      vertex -7.218029e+000  1.114896e+000  4.113921e+000
      vertex -4.155184e+000  1.106546e+000  4.105572e+000
      vertex -7.460242e+000  1.149310e+000  4.148336e+000
    endloop
  endfacet
  facet normal -5.501416e-008 -7.071068e-001  7.071068e-001
    outer loop
      vertex -4.270831e+000  5.000000e-001  3.499026e+000
      vertex -4.155184e+000  1.106546e+000  4.105572e+000
      vertex -7.218029e+000  1.114896e+000  4.113921e+000
    endloop
  endfacet
  facet normal  1.116661e-008 -7.071066e-001  7.071069e-001
    outer loop
      vertex -4.270831e+000  5.000000e-001  3.499026e+000
      vertex -7.218029e+000  1.114896e+000  4.113921e+000
      vertex -6.890366e+000  9.751136e-001  3.974139e+000
    endloop
  endfacet
  facet normal  4.766531e-008 -7.071065e-001  7.071070e-001
    outer loop
      vertex -4.270831e+000  5.000000e-001  3.499026e+000
      vertex -6.890366e+000  9.751136e-001  3.974139e+000
      vertex -6.669894e+000  7.958787e-001  3.794904e+000
    endloop
  endfacet
  facet normal  0.000000e+000 -7.071068e-001  7.071069e-001
    outer loop
      vertex -4.270831e+000  5.000000e-001  3.499026e+000
      vertex -6.669894e+000  7.958787e-001  3.794904e+000
      vertex -6.464384e+000  5.000000e-001  3.499026e+000
    endloop
  endfacet
  facet normal  0.000000e+000 -7.071066e-001  7.071068e-001
    outer loop
      vertex -1.400000e+001  1.700974e+000  4.700000e+000
      vertex -1.400000e+001  5.000000e-001  3.499026e+000
      vertex -8.535616e+000  5.000000e-001  3.499026e+000
    endloop
  endfacet
  facet normal -2.696834e-008 -7.071068e-001  7.071068e-001
    outer loop
      vertex -1.400000e+001  1.700974e+000  4.700000e+000
      vertex -8.535616e+000  5.000000e-001  3.499026e+000
      vertex -8.371897e+000  7.498622e-001  3.748888e+000
    endloop
  endfacet
  facet normal -5.301181e-008 -7.071068e-001  7.071067e-001
    outer loop
      vertex -1.400000e+001  1.700974e+000  4.700000e+000
      vertex -8.371897e+000  7.498622e-001  3.748888e+000
      vertex -8.127406e+000  9.637746e-001  3.962801e+000
    endloop
  endfacet
  facet normal  9.612643e-008 -7.071062e-001  7.071072e-001
    outer loop
      vertex -1.400000e+001  1.700974e+000  4.700000e+000
      vertex -8.127406e+000  9.637746e-001  3.962801e+000
      vertex -7.931246e+000  1.066079e+000  4.065105e+000
    endloop
  endfacet
  facet normal -1.094040e-007 -7.071072e-001  7.071063e-001
    outer loop
      vertex -1.400000e+001  1.700974e+000  4.700000e+000
      vertex -7.931246e+000  1.066079e+000  4.065105e+000
      vertex -7.705948e+000  1.131409e+000  4.130435e+000
    endloop
  endfacet
  facet normal -2.019997e-007 -7.071077e-001  7.071058e-001
    outer loop
      vertex -1.400000e+001  1.700974e+000  4.700000e+000
      vertex -7.705948e+000  1.131409e+000  4.130435e+000
      vertex -7.460242e+000  1.149310e+000  4.148336e+000
    endloop
  endfacet
  facet normal  3.713107e-008 -7.071064e-001  7.071072e-001
    outer loop
      vertex -1.400000e+001  1.700974e+000  4.700000e+000
      vertex -7.460242e+000  1.149310e+000  4.148336e+000
      vertex -4.155184e+000  1.106546e+000  4.105572e+000
    endloop
  endfacet
  facet normal  0.000000e+000 -7.071066e-001  7.071069e-001
    outer loop
      vertex -1.400000e+001  1.700974e+000  4.700000e+000
      vertex -4.155184e+000  1.106546e+000  4.105572e+000
      vertex -3.949264e+000  1.700974e+000  4.700000e+000
    endloop
  endfacet
  facet normal  0.000000e+000 -7.071068e-001  7.071068e-001
    outer loop
      vertex  6.464384e+000  5.000000e-001  3.499026e+000
      vertex  4.155184e+000  1.106546e+000  4.105572e+000
      vertex  4.270831e+000  5.000000e-001  3.499026e+000
    endloop
  endfacet
  facet normal  8.195209e-008 -7.071066e-001  7.071069e-001
    outer loop
      vertex  3.949264e+000  1.700974e+000  4.700000e+000
      vertex  4.155184e+000  1.106546e+000  4.105572e+000
      vertex  6.464384e+000  5.000000e-001  3.499026e+000
    endloop
  endfacet
  facet normal -5.105550e-008 -7.071068e-001  7.071068e-001
    outer loop
      vertex  3.949264e+000  1.700974e+000  4.700000e+000
      vertex  6.464384e+000  5.000000e-001  3.499026e+000
      vertex  6.628103e+000  7.498622e-001  3.748888e+000
    endloop
  endfacet
  facet normal -9.452786e-008 -7.071068e-001  7.071067e-001
    outer loop
      vertex  3.949264e+000  1.700974e+000  4.700000e+000
      vertex  6.628103e+000  7.498622e-001  3.748888e+000
      vertex  6.872594e+000  9.637746e-001  3.962801e+000
    endloop
  endfacet
  facet normal  1.614971e-007 -7.071064e-001  7.071072e-001
    outer loop
      vertex  3.949264e+000  1.700974e+000  4.700000e+000
      vertex  6.872594e+000  9.637746e-001  3.962801e+000
      vertex  7.068754e+000  1.066079e+000  4.065105e+000
    endloop
  endfacet
  facet normal -1.701801e-007 -7.071071e-001  7.071064e-001
    outer loop
      vertex  3.949264e+000  1.700974e+000  4.700000e+000
      vertex  7.068754e+000  1.066079e+000  4.065105e+000
      vertex  7.294052e+000  1.131409e+000  4.130435e+000
    endloop
  endfacet
  facet normal -2.553709e-007 -7.071074e-001  7.071062e-001
    outer loop
      vertex  3.949264e+000  1.700974e+000  4.700000e+000
      vertex  7.294052e+000  1.131409e+000  4.130435e+000
      vertex  7.539758e+000  1.149310e+000  4.148336e+000
    endloop
  endfacet
  facet normal  0.000000e+000 -7.071065e-001  7.071070e-001
    outer loop
      vertex  1.400000e+001  1.700974e+000  4.700000e+000
      vertex  3.949264e+000  1.700974e+000  4.700000e+000
      vertex  7.539758e+000  1.149310e+000  4.148336e+000
    endloop
  endfacet
  facet normal  4.163773e-007 -7.071090e-001  7.071046e-001
    outer loop
      vertex  1.400000e+001  1.700974e+000  4.700000e+000
      vertex  7.539758e+000  1.149310e+000  4.148336e+000
      vertex  7.781971e+000  1.114896e+000  4.113921e+000
    endloop
  endfacet
  facet normal -2.327672e-008 -7.071066e-001  7.071069e-001
    outer loop
      vertex  1.400000e+001  1.700974e+000  4.700000e+000
      vertex  7.781971e+000  1.114896e+000  4.113921e+000
      vertex  8.109634e+000  9.751136e-001  3.974139e+000
    endloop
  endfacet
  facet normal -4.411230e-008 -7.071066e-001  7.071071e-001
    outer loop
      vertex  1.400000e+001  1.700974e+000  4.700000e+000
      vertex  8.109634e+000  9.751136e-001  3.974139e+000
      vertex  8.330106e+000  7.958787e-001  3.794904e+000
    endloop
  endfacet
  facet normal -3.948570e-010 -7.071067e-001  7.071068e-001
    outer loop
      vertex  1.400000e+001  1.700974e+000  4.700000e+000
      vertex  8.330106e+000  7.958787e-001  3.794904e+000
      vertex  8.535616e+000  5.000000e-001  3.499026e+000
    endloop
  endfacet
  facet normal  0.000000e+000 -7.071066e-001  7.071068e-001
    outer loop
      vertex  1.400000e+001  1.700974e+000  4.700000e+000
      vertex  8.535616e+000  5.000000e-001  3.499026e+000
      vertex  1.400000e+001  5.000000e-001  3.499026e+000
    endloop
  endfacet
  facet normal  0.000000e+000 -1.000000e+000  0.000000e+000
    outer loop
      vertex -6.464384e+000  5.000000e-001  2.700000e+000
      vertex -4.270831e+000  5.000000e-001  2.700000e+000
      vertex -6.464384e+000  5.000000e-001  3.499026e+000
    endloop
  endfacet
  facet normal  0.000000e+000 -1.000000e+000  0.000000e+000
    outer loop
      vertex -6.464384e+000  5.000000e-001  3.499026e+000
      vertex -4.270831e+000  5.000000e-001  2.700000e+000
      vertex -4.270831e+000  5.000000e-001  3.499026e+000
    endloop
  endfacet
  facet normal  0.000000e+000 -1.000000e+000  0.000000e+000
    outer loop
      vertex -1.400000e+001  5.000000e-001  2.700000e+000
      vertex -8.535616e+000  5.000000e-001  2.700000e+000
      vertex -1.400000e+001  5.000000e-001  3.499026e+000
    endloop
  endfacet
  facet normal  0.000000e+000 -1.000000e+000  0.000000e+000
    outer loop
      vertex -1.400000e+001  5.000000e-001  3.499026e+000
      vertex -8.535616e+000  5.000000e-001  2.700000e+000
      vertex -8.535616e+000  5.000000e-001  3.499026e+000
    endloop
  endfacet
  facet normal  0.000000e+000 -1.000000e+000  0.000000e+000
    outer loop
      vertex  4.270831e+000  5.000000e-001  2.700000e+000
      vertex  6.464384e+000  5.000000e-001  2.700000e+000
      vertex  4.270831e+000  5.000000e-001  3.499026e+000
    endloop
  endfacet
  facet normal  0.000000e+000 -1.000000e+000  0.000000e+000
    outer loop
      vertex  4.270831e+000  5.000000e-001  3.499026e+000
      vertex  6.464384e+000  5.000000e-001  2.700000e+000
      vertex  6.464384e+000  5.000000e-001  3.499026e+000
    endloop
  endfacet
  facet normal  0.000000e+000 -1.000000e+000  0.000000e+000
    outer loop
      vertex  8.535616e+000  5.000000e-001  2.700000e+000
      vertex  1.400000e+001  5.000000e-001  2.700000e+000
      vertex  8.535616e+000  5.000000e-001  3.499026e+000
    endloop
  endfacet
  facet normal  0.000000e+000 -1.000000e+000  0.000000e+000
    outer loop
      vertex  8.535616e+000  5.000000e-001  3.499026e+000
      vertex  1.400000e+001  5.000000e-001  2.700000e+000
      vertex  1.400000e+001  5.000000e-001  3.499026e+000
    endloop
  endfacet
  facet normal  0.000000e+000  0.000000e+000  1.000000e+000
    outer loop
      vertex -4.300000e+000  5.265807e-016  2.700000e+000
      vertex -4.270831e+000  5.000000e-001  2.700000e+000
      vertex -6.464384e+000  5.000000e-001  2.700000e+000
    endloop
  endfacet
  facet normal  0.000000e+000  0.000000e+000  1.000000e+000
    outer loop
      vertex -4.300000e+000  5.265807e-016  2.700000e+000
      vertex -6.464384e+000  5.000000e-001  2.700000e+000
      vertex -6.350000e+000  1.408297e-016  2.700000e+000
    endloop
  endfacet
  facet normal  -0.000000e+000  0.000000e+000  1.000000e+000
    outer loop
      vertex -4.300000e+000  5.265807e-016  2.700000e+000
      vertex -6.350000e+000  1.408297e-016  2.700000e+000
      vertex -6.464384e+000 -5.000000e-001  2.700000e+000
    endloop
  endfacet
  facet normal  0.000000e+000  0.000000e+000  1.000000e+000
    outer loop
      vertex -4.300000e+000  5.265807e-016  2.700000e+000
      vertex -6.464384e+000 -5.000000e-001  2.700000e+000
      vertex -4.270831e+000 -5.000000e-001  2.700000e+000
    endloop
  endfacet
  facet normal  -0.000000e+000  0.000000e+000  1.000000e+000
    outer loop
      vertex -8.535616e+000  5.000000e-001  2.700000e+000
      vertex -1.400000e+001  5.000000e-001  2.700000e+000
      vertex -8.650000e+000  0.000000e+000  2.700000e+000
    endloop
  endfacet
  facet normal  0.000000e+000  0.000000e+000  1.000000e+000
    outer loop
      vertex -8.650000e+000  0.000000e+000  2.700000e+000
      vertex -1.400000e+001  5.000000e-001  2.700000e+000
      vertex -1.400000e+001 -5.000000e-001  2.700000e+000
    endloop
  endfacet
  facet normal  0.000000e+000  0.000000e+000  1.000000e+000
    outer loop
      vertex -8.650000e+000  0.000000e+000  2.700000e+000
      vertex -1.400000e+001 -5.000000e-001  2.700000e+000
      vertex -8.535616e+000 -5.000000e-001  2.700000e+000
    endloop
  endfacet
  facet normal  0.000000e+000  0.000000e+000  1.000000e+000
    outer loop
      vertex  6.464384e+000 -5.000000e-001  2.700000e+000
      vertex  6.350000e+000  1.408297e-016  2.700000e+000
      vertex  4.270831e+000 -5.000000e-001  2.700000e+000
    endloop
  endfacet
  facet normal  0.000000e+000  0.000000e+000  1.000000e+000
    outer loop
      vertex  4.270831e+000 -5.000000e-001  2.700000e+000
      vertex  6.350000e+000  1.408297e-016  2.700000e+000
      vertex  4.300000e+000  0.000000e+000  2.700000e+000
    endloop
  endfacet
  facet normal  0.000000e+000  0.000000e+000  1.000000e+000
    outer loop
      vertex  6.350000e+000  1.408297e-016  2.700000e+000
      vertex  6.464384e+000  5.000000e-001  2.700000e+000
      vertex  4.300000e+000  0.000000e+000  2.700000e+000
    endloop
  endfacet
  facet normal  0.000000e+000  -0.000000e+000  1.000000e+000
    outer loop
      vertex  4.300000e+000  0.000000e+000  2.700000e+000
      vertex  6.464384e+000  5.000000e-001  2.700000e+000
      vertex  4.270831e+000  5.000000e-001  2.700000e+000
    endloop
  endfacet
  facet normal  0.000000e+000  0.000000e+000  1.000000e+000
    outer loop
      vertex  8.535616e+000 -5.000000e-001  2.700000e+000
      vertex  1.400000e+001 -5.000000e-001  2.700000e+000
      vertex  8.650000e+000  0.000000e+000  2.700000e+000
    endloop
  endfacet
  facet normal  -0.000000e+000  0.000000e+000  1.000000e+000
    outer loop
      vertex  8.650000e+000  0.000000e+000  2.700000e+000
      vertex  1.400000e+001 -5.000000e-001  2.700000e+000
      vertex  1.400000e+001  5.000000e-001  2.700000e+000
    endloop
  endfacet
  facet normal  0.000000e+000  0.000000e+000  1.000000e+000
    outer loop
      vertex  8.650000e+000  0.000000e+000  2.700000e+000
      vertex  1.400000e+001  5.000000e-001  2.700000e+000
      vertex  8.535616e+000  5.000000e-001  2.700000e+000
    endloop
  endfacet
  facet normal  0.000000e+000  1.000000e+000  0.000000e+000
    outer loop
      vertex -6.464384e+000 -5.000000e-001  3.400974e+000
      vertex -4.270831e+000 -5.000000e-001  3.400974e+000
      vertex -6.464384e+000 -5.000000e-001  2.700000e+000
    endloop
  endfacet
  facet normal  0.000000e+000  1.000000e+000  0.000000e+000
    outer loop
      vertex -6.464384e+000 -5.000000e-001  2.700000e+000
      vertex -4.270831e+000 -5.000000e-001  3.400974e+000
      vertex -4.270831e+000 -5.000000e-001  2.700000e+000
    endloop
  endfacet
  facet normal  0.000000e+000  1.000000e+000  0.000000e+000
    outer loop
      vertex -1.400000e+001 -5.000000e-001  3.400974e+000
      vertex -8.535616e+000 -5.000000e-001  3.400974e+000
      vertex -1.400000e+001 -5.000000e-001  2.700000e+000
    endloop
  endfacet
  facet normal  0.000000e+000  1.000000e+000  0.000000e+000
    outer loop
      vertex -1.400000e+001 -5.000000e-001  2.700000e+000
      vertex -8.535616e+000 -5.000000e-001  3.400974e+000
      vertex -8.535616e+000 -5.000000e-001  2.700000e+000
    endloop
  endfacet
  facet normal  0.000000e+000  1.000000e+000  0.000000e+000
    outer loop
      vertex  4.270831e+000 -5.000000e-001  3.400974e+000
      vertex  6.464384e+000 -5.000000e-001  3.400974e+000
      vertex  4.270831e+000 -5.000000e-001  2.700000e+000
    endloop
  endfacet
  facet normal  0.000000e+000  1.000000e+000  0.000000e+000
    outer loop
      vertex  4.270831e+000 -5.000000e-001  2.700000e+000
      vertex  6.464384e+000 -5.000000e-001  3.400974e+000
      vertex  6.464384e+000 -5.000000e-001  2.700000e+000
    endloop
  endfacet
  facet normal  0.000000e+000  1.000000e+000  0.000000e+000
    outer loop
      vertex  8.535616e+000 -5.000000e-001  3.400974e+000
      vertex  1.400000e+001 -5.000000e-001  3.400974e+000
      vertex  8.535616e+000 -5.000000e-001  2.700000e+000
    endloop
  endfacet
  facet normal  0.000000e+000  1.000000e+000  0.000000e+000
    outer loop
      vertex  8.535616e+000 -5.000000e-001  2.700000e+000
      vertex  1.400000e+001 -5.000000e-001  3.400974e+000
      vertex  1.400000e+001 -5.000000e-001  2.700000e+000
    endloop
  endfacet
  facet normal  -0.000000e+000  7.071067e-001  7.071069e-001
    outer loop
      vertex -4.270831e+000 -5.000000e-001  3.400974e+000
      vertex -6.464384e+000 -5.000000e-001  3.400974e+000
      vertex -6.635748e+000 -7.586623e-001  3.659636e+000
    endloop
  endfacet
  facet normal -7.871518e-008  7.071071e-001  7.071065e-001
    outer loop
      vertex -4.270831e+000 -5.000000e-001  3.400974e+000
      vertex -6.635748e+000 -7.586623e-001  3.659636e+000
      vertex -6.835019e+000 -9.382417e-001  3.839216e+000
    endloop
  endfacet
  facet normal  1.015498e-007  7.071065e-001  7.071071e-001
    outer loop
      vertex -4.270831e+000 -5.000000e-001  3.400974e+000
      vertex -6.835019e+000 -9.382417e-001  3.839216e+000
      vertex -7.092481e+000 -1.075373e+000  3.976348e+000
    endloop
  endfacet
  facet normal -1.794121e-006  7.071157e-001  7.070979e-001
    outer loop
      vertex -1.400000e+001 -1.799026e+000  4.700000e+000
      vertex -7.324878e+000 -1.136588e+000  4.037562e+000
      vertex -7.574357e+000 -1.147591e+000  4.048565e+000
    endloop
  endfacet
  facet normal  0.000000e+000  7.071068e-001  7.071068e-001
    outer loop
      vertex -1.400000e+001 -1.799026e+000  4.700000e+000
      vertex -7.574357e+000 -1.147591e+000  4.048565e+000
      vertex -7.817186e+000 -1.105393e+000  4.006367e+000
    endloop
  endfacet
  facet normal  6.969879e-008  7.071065e-001  7.071071e-001
    outer loop
      vertex -1.400000e+001 -1.799026e+000  4.700000e+000
      vertex -7.817186e+000 -1.105393e+000  4.006367e+000
      vertex -8.071058e+000 -9.981946e-001  3.899169e+000
    endloop
  endfacet
  facet normal  3.095972e-008  7.071066e-001  7.071070e-001
    outer loop
      vertex -1.400000e+001 -1.799026e+000  4.700000e+000
      vertex -8.071058e+000 -9.981946e-001  3.899169e+000
      vertex -8.352181e+000 -7.721930e-001  3.673167e+000
    endloop
  endfacet
  facet normal -2.659185e-008  7.071068e-001  7.071068e-001
    outer loop
      vertex -1.400000e+001 -1.799026e+000  4.700000e+000
      vertex -8.352181e+000 -7.721930e-001  3.673167e+000
      vertex -8.535616e+000 -5.000000e-001  3.400974e+000
    endloop
  endfacet
  facet normal  0.000000e+000  7.071067e-001  7.071069e-001
    outer loop
      vertex -1.400000e+001 -1.799026e+000  4.700000e+000
      vertex -8.535616e+000 -5.000000e-001  3.400974e+000
      vertex -1.400000e+001 -5.000000e-001  3.400974e+000
    endloop
  endfacet
  facet normal  0.000000e+000  7.071068e-001  7.071068e-001
    outer loop
      vertex -3.905574e+000 -1.799026e+000  4.700000e+000
      vertex -4.141414e+000 -1.157017e+000  4.057992e+000
      vertex -1.400000e+001 -1.799026e+000  4.700000e+000
    endloop
  endfacet
  facet normal  4.743979e-008  7.071063e-001  7.071072e-001
    outer loop
      vertex -1.400000e+001 -1.799026e+000  4.700000e+000
      vertex -4.141414e+000 -1.157017e+000  4.057992e+000
      vertex -7.324878e+000 -1.136588e+000  4.037562e+000
    endloop
  endfacet
  facet normal  5.219988e-008  7.071067e-001  7.071068e-001
    outer loop
      vertex -4.141414e+000 -1.157017e+000  4.057992e+000
      vertex -4.270831e+000 -5.000000e-001  3.400974e+000
      vertex -7.324878e+000 -1.136588e+000  4.037562e+000
    endloop
  endfacet
  facet normal -1.243244e-006  7.071098e-001  7.071037e-001
    outer loop
      vertex -7.324878e+000 -1.136588e+000  4.037562e+000
      vertex -4.270831e+000 -5.000000e-001  3.400974e+000
      vertex -7.092481e+000 -1.075373e+000  3.976348e+000
    endloop
  endfacet
  facet normal  0.000000e+000  7.071067e-001  7.071069e-001
    outer loop
      vertex  4.141414e+000 -1.157017e+000  4.057992e+000
      vertex  6.464384e+000 -5.000000e-001  3.400974e+000
      vertex  4.270831e+000 -5.000000e-001  3.400974e+000
    endloop
  endfacet
  facet normal  -0.000000e+000  7.071067e-001  7.071069e-001
    outer loop
      vertex  1.400000e+001 -5.000000e-001  3.400974e+000
      vertex  8.535616e+000 -5.000000e-001  3.400974e+000
      vertex  8.364252e+000 -7.586623e-001  3.659636e+000
    endloop
  endfacet
  facet normal -3.057957e-008  7.071071e-001  7.071065e-001
    outer loop
      vertex  1.400000e+001 -5.000000e-001  3.400974e+000
      vertex  8.364252e+000 -7.586623e-001  3.659636e+000
      vertex  8.164981e+000 -9.382417e-001  3.839216e+000
    endloop
  endfacet
  facet normal  3.528141e-008  7.071066e-001  7.071069e-001
    outer loop
      vertex  1.400000e+001 -5.000000e-001  3.400974e+000
      vertex  8.164981e+000 -9.382417e-001  3.839216e+000
      vertex  7.907519e+000 -1.075373e+000  3.976348e+000
    endloop
  endfacet
  facet normal -2.027320e-007  7.071079e-001  7.071058e-001
    outer loop
      vertex  1.400000e+001 -5.000000e-001  3.400974e+000
      vertex  7.907519e+000 -1.075373e+000  3.976348e+000
      vertex  7.675122e+000 -1.136588e+000  4.037562e+000
    endloop
  endfacet
  facet normal  1.211160e-007  7.071062e-001  7.071073e-001
    outer loop
      vertex  1.400000e+001 -5.000000e-001  3.400974e+000
      vertex  7.675122e+000 -1.136588e+000  4.037562e+000
      vertex  3.905574e+000 -1.799026e+000  4.700000e+000
    endloop
  endfacet
  facet normal  -0.000000e+000  7.071067e-001  7.071069e-001
    outer loop
      vertex  1.400000e+001 -5.000000e-001  3.400974e+000
      vertex  3.905574e+000 -1.799026e+000  4.700000e+000
      vertex  1.400000e+001 -1.799026e+000  4.700000e+000
    endloop
  endfacet
  facet normal -1.330779e-006  7.071104e-001  7.071032e-001
    outer loop
      vertex  3.905574e+000 -1.799026e+000  4.700000e+000
      vertex  7.675122e+000 -1.136588e+000  4.037562e+000
      vertex  7.425643e+000 -1.147591e+000  4.048565e+000
    endloop
  endfacet
  facet normal  0.000000e+000  7.071068e-001  7.071068e-001
    outer loop
      vertex  3.905574e+000 -1.799026e+000  4.700000e+000
      vertex  7.425643e+000 -1.147591e+000  4.048565e+000
      vertex  7.182814e+000 -1.105393e+000  4.006367e+000
    endloop
  endfacet
  facet normal  1.108609e-007  7.071065e-001  7.071070e-001
    outer loop
      vertex  3.905574e+000 -1.799026e+000  4.700000e+000
      vertex  7.182814e+000 -1.105393e+000  4.006367e+000
      vertex  6.928942e+000 -9.981946e-001  3.899169e+000
    endloop
  endfacet
  facet normal  5.333942e-008  7.071066e-001  7.071069e-001
    outer loop
      vertex  3.905574e+000 -1.799026e+000  4.700000e+000
      vertex  6.928942e+000 -9.981946e-001  3.899169e+000
      vertex  6.647818e+000 -7.721930e-001  3.673167e+000
    endloop
  endfacet
  facet normal -4.909018e-008  7.071068e-001  7.071068e-001
    outer loop
      vertex  3.905574e+000 -1.799026e+000  4.700000e+000
      vertex  6.647818e+000 -7.721930e-001  3.673167e+000
      vertex  6.464384e+000 -5.000000e-001  3.400974e+000
    endloop
  endfacet
  facet normal  9.466804e-010  7.071067e-001  7.071068e-001
    outer loop
      vertex  3.905574e+000 -1.799026e+000  4.700000e+000
      vertex  6.464384e+000 -5.000000e-001  3.400974e+000
      vertex  4.141414e+000 -1.157017e+000  4.057992e+000
    endloop
  endfacet
  facet normal  0.000000e+000  1.000000e+000  0.000000e+000
    outer loop
      vertex -1.400000e+001  6.500000e+000  4.700000e+000
      vertex -1.200000e+001  6.500000e+000 -3.500000e+000
      vertex -1.400000e+001  6.500000e+000 -3.500000e+000
    endloop
  endfacet
  facet normal  0.000000e+000  1.000000e+000  0.000000e+000
    outer loop
      vertex -1.200000e+001  6.500000e+000 -3.500000e+000
      vertex -1.400000e+001  6.500000e+000  4.700000e+000
      vertex -1.200000e+001  6.500000e+000  0.000000e+000
    endloop
  endfacet
  facet normal  0.000000e+000  1.000000e+000  -0.000000e+000
    outer loop
      vertex -1.200000e+001  6.500000e+000  0.000000e+000
      vertex -1.400000e+001  6.500000e+000  4.700000e+000
      vertex  1.400000e+001  6.500000e+000  4.700000e+000
    endloop
  endfacet
  facet normal  0.000000e+000  1.000000e+000  0.000000e+000
    outer loop
      vertex -1.200000e+001  6.500000e+000  0.000000e+000
      vertex  1.400000e+001  6.500000e+000  4.700000e+000
      vertex  1.200000e+001  6.500000e+000  0.000000e+000
    endloop
  endfacet
  facet normal  -0.000000e+000  1.000000e+000  0.000000e+000
    outer loop
      vertex  1.200000e+001  6.500000e+000  0.000000e+000
      vertex  1.400000e+001  6.500000e+000  4.700000e+000
      vertex  1.400000e+001  6.500000e+000 -3.500000e+000
    endloop
  endfacet
  facet normal  0.000000e+000  1.000000e+000  0.000000e+000
    outer loop
      vertex  1.200000e+001  6.500000e+000  0.000000e+000
      vertex  1.400000e+001  6.500000e+000 -3.500000e+000
      vertex  1.200000e+001  6.500000e+000 -3.500000e+000
    endloop
  endfacet
  facet normal  0.000000e+000 -1.000000e+000  0.000000e+000
    outer loop
      vertex  1.400000e+001 -6.500000e+000  4.700000e+000
      vertex  1.200000e+001 -6.500000e+000 -3.500000e+000
      vertex  1.400000e+001 -6.500000e+000 -3.500000e+000
    endloop
  endfacet
  facet normal  0.000000e+000 -1.000000e+000  0.000000e+000
    outer loop
      vertex  1.200000e+001 -6.500000e+000 -3.500000e+000
      vertex  1.400000e+001 -6.500000e+000  4.700000e+000
      vertex  1.200000e+001 -6.500000e+000  0.000000e+000
    endloop
  endfacet
  facet normal  0.000000e+000 -1.000000e+000  0.000000e+000
    outer loop
      vertex  1.200000e+001 -6.500000e+000  0.000000e+000
      vertex  1.400000e+001 -6.500000e+000  4.700000e+000
      vertex -1.400000e+001 -6.500000e+000  4.700000e+000
    endloop
  endfacet
  facet normal  0.000000e+000 -1.000000e+000  0.000000e+000
    outer loop
      vertex  1.200000e+001 -6.500000e+000  0.000000e+000
      vertex -1.400000e+001 -6.500000e+000  4.700000e+000
      vertex -1.200000e+001 -6.500000e+000  0.000000e+000
    endloop
  endfacet
  facet normal  -0.000000e+000 -1.000000e+000  0.000000e+000
    outer loop
      vertex -1.200000e+001 -6.500000e+000  0.000000e+000
      vertex -1.400000e+001 -6.500000e+000  4.700000e+000
      vertex -1.400000e+001 -6.500000e+000 -3.500000e+000
    endloop
  endfacet
  facet normal  0.000000e+000 -1.000000e+000  0.000000e+000
    outer loop
      vertex -1.200000e+001 -6.500000e+000  0.000000e+000
      vertex -1.400000e+001 -6.500000e+000 -3.500000e+000
      vertex -1.200000e+001 -6.500000e+000 -3.500000e+000
    endloop
  endfacet
  facet normal -1.000000e+000  -0.000000e+000  0.000000e+000
    outer loop
      vertex  1.200000e+001 -6.500000e+000  0.000000e+000
      vertex  1.200000e+001  6.500000e+000  0.000000e+000
      vertex  1.200000e+001 -6.500000e+000 -3.500000e+000
    endloop
  endfacet
  facet normal -1.000000e+000  0.000000e+000  0.000000e+000
    outer loop
      vertex  1.200000e+001 -6.500000e+000 -3.500000e+000
      vertex  1.200000e+001  6.500000e+000  0.000000e+000
      vertex  1.200000e+001  6.500000e+000 -3.500000e+000
    endloop
  endfacet
  facet normal  0.000000e+000  0.000000e+000 -1.000000e+000
    outer loop
      vertex  2.442678e+000 -3.538831e+000  0.000000e+000
      vertex  7.244101e+000 -1.121167e+000  0.000000e+000
      vertex  1.524801e+000 -4.020570e+000  0.000000e+000
    endloop
  endfacet
  facet normal  0.000000e+000  0.000000e+000 -9.999999e-001
    outer loop
      vertex  3.218596e+000 -2.851427e+000  0.000000e+000
      vertex  7.244101e+000 -1.121167e+000  0.000000e+000
      vertex  2.442678e+000 -3.538831e+000  0.000000e+000
    endloop
  endfacet
  facet normal  0.000000e+000  0.000000e+000 -1.000000e+000
    outer loop
      vertex  3.807461e+000 -1.998310e+000  0.000000e+000
      vertex  7.244101e+000 -1.121167e+000  0.000000e+000
      vertex  3.218596e+000 -2.851427e+000  0.000000e+000
    endloop
  endfacet
  facet normal  0.000000e+000  0.000000e+000 -1.000000e+000
    outer loop
      vertex  7.244101e+000  1.121167e+000  0.000000e+000
      vertex  3.218596e+000  2.851427e+000  0.000000e+000
      vertex  2.442678e+000  3.538831e+000  0.000000e+000
    endloop
  endfacet
  facet normal  0.000000e+000  0.000000e+000 -1.000000e+000
    outer loop
      vertex  7.244101e+000  1.121167e+000  0.000000e+000
      vertex  3.807461e+000  1.998310e+000  0.000000e+000
      vertex  3.218596e+000  2.851427e+000  0.000000e+000
    endloop
  endfacet
  facet normal  0.000000e+000  0.000000e+000 -1.000000e+000
    outer loop
      vertex -4.175050e+000  1.029057e+000  0.000000e+000
      vertex -7.244101e+000  1.121167e+000  0.000000e+000
      vertex -3.807461e+000  1.998310e+000  0.000000e+000
    endloop
  endfacet
  facet normal  0.000000e+000  -0.000000e+000 -1.000000e+000
    outer loop
      vertex -6.782987e+000 -8.991062e-001  0.000000e+000
      vertex -6.463886e+000 -4.989663e-001  0.000000e+000
      vertex -4.175050e+000 -1.029057e+000  0.000000e+000
    endloop
  endfacet
  facet normal  0.000000e+000  0.000000e+000 -1.000000e+000
    outer loop
      vertex -4.175050e+000 -1.029057e+000  0.000000e+000
      vertex -7.244101e+000 -1.121167e+000  0.000000e+000
      vertex -6.782987e+000 -8.991062e-001  0.000000e+000
    endloop
  endfacet
  facet normal  0.000000e+000  0.000000e+000 -1.000000e+000
    outer loop
      vertex -4.175050e+000 -1.029057e+000  0.000000e+000
      vertex -3.807461e+000 -1.998310e+000  0.000000e+000
      vertex -7.244101e+000 -1.121167e+000  0.000000e+000
    endloop
  endfacet
  facet normal  0.000000e+000  0.000000e+000 -1.000000e+000
    outer loop
      vertex  7.244101e+000  1.121167e+000  0.000000e+000
      vertex  4.175050e+000  1.029057e+000  0.000000e+000
      vertex  3.807461e+000  1.998310e+000  0.000000e+000
    endloop
  endfacet
  facet normal  0.000000e+000  0.000000e+000 -1.000000e+000
    outer loop
      vertex  6.782987e+000 -8.991062e-001  0.000000e+000
      vertex  4.175050e+000 -1.029057e+000  0.000000e+000
      vertex  6.463886e+000 -4.989663e-001  0.000000e+000
    endloop
  endfacet
  facet normal  0.000000e+000  0.000000e+000 -1.000000e+000
    outer loop
      vertex  7.244101e+000 -1.121167e+000  0.000000e+000
      vertex  4.175050e+000 -1.029057e+000  0.000000e+000
      vertex  6.782987e+000 -8.991062e-001  0.000000e+000
    endloop
  endfacet
  facet normal  -0.000000e+000  0.000000e+000 -1.000000e+000
    outer loop
      vertex  4.175050e+000 -1.029057e+000  0.000000e+000
      vertex  7.244101e+000 -1.121167e+000  0.000000e+000
      vertex  3.807461e+000 -1.998310e+000  0.000000e+000
    endloop
  endfacet
  facet normal  0.000000e+000  0.000000e+000 -1.000000e+000
    outer loop
      vertex -4.300000e+000  5.265807e-016  0.000000e+000
      vertex -4.175050e+000 -1.029057e+000  0.000000e+000
      vertex -6.463886e+000 -4.989663e-001  0.000000e+000
    endloop
  endfacet
  facet normal  0.000000e+000  0.000000e+000 -1.000000e+000
    outer loop
      vertex -4.300000e+000  5.265807e-016  0.000000e+000
      vertex -6.463886e+000 -4.989663e-001  0.000000e+000
      vertex -6.350000e+000  1.408297e-016  0.000000e+000
    endloop
  endfacet
  facet normal  0.000000e+000  0.000000e+000 -1.000000e+000
    outer loop
      vertex -4.300000e+000  5.265807e-016  0.000000e+000
      vertex -6.350000e+000  1.408297e-016  0.000000e+000
      vertex -6.463886e+000  4.989663e-001  0.000000e+000
    endloop
  endfacet
  facet normal  0.000000e+000  0.000000e+000 -1.000000e+000
    outer loop
      vertex -4.300000e+000  5.265807e-016  0.000000e+000
      vertex -6.463886e+000  4.989663e-001  0.000000e+000
      vertex -6.782987e+000  8.991062e-001  0.000000e+000
    endloop
  endfacet
  facet normal  0.000000e+000  0.000000e+000 -1.000000e+000
    outer loop
      vertex -4.300000e+000  5.265807e-016  0.000000e+000
      vertex -6.782987e+000  8.991062e-001  0.000000e+000
      vertex -7.244101e+000  1.121167e+000  0.000000e+000
    endloop
  endfacet
  facet normal  0.000000e+000  0.000000e+000 -1.000000e+000
    outer loop
      vertex -4.300000e+000  5.265807e-016  0.000000e+000
      vertex -7.244101e+000  1.121167e+000  0.000000e+000
      vertex -4.175050e+000  1.029057e+000  0.000000e+000
    endloop
  endfacet
  facet normal  0.000000e+000  0.000000e+000 -1.000000e+000
    outer loop
      vertex  4.300000e+000  0.000000e+000  0.000000e+000
      vertex  4.175050e+000  1.029057e+000  0.000000e+000
      vertex  7.244101e+000  1.121167e+000  0.000000e+000
    endloop
  endfacet
  facet normal  0.000000e+000  0.000000e+000 -1.000000e+000
    outer loop
      vertex  4.300000e+000  0.000000e+000  0.000000e+000
      vertex  7.244101e+000  1.121167e+000  0.000000e+000
      vertex  6.782987e+000  8.991062e-001  0.000000e+000
    endloop
  endfacet
  facet normal  0.000000e+000  0.000000e+000 -1.000000e+000
    outer loop
      vertex  4.300000e+000  0.000000e+000  0.000000e+000
      vertex  6.782987e+000  8.991062e-001  0.000000e+000
      vertex  6.463886e+000  4.989663e-001  0.000000e+000
    endloop
  endfacet
  facet normal  0.000000e+000  0.000000e+000 -1.000000e+000
    outer loop
      vertex  4.300000e+000  0.000000e+000  0.000000e+000
      vertex  6.463886e+000  4.989663e-001  0.000000e+000
      vertex  6.350000e+000  1.408297e-016  0.000000e+000
    endloop
  endfacet
  facet normal  0.000000e+000  -0.000000e+000 -1.000000e+000
    outer loop
      vertex  4.300000e+000  0.000000e+000  0.000000e+000
      vertex  6.350000e+000  1.408297e-016  0.000000e+000
      vertex  6.463886e+000 -4.989663e-001  0.000000e+000
    endloop
  endfacet
  facet normal  -0.000000e+000  0.000000e+000 -1.000000e+000
    outer loop
      vertex  4.300000e+000  0.000000e+000  0.000000e+000
      vertex  6.463886e+000 -4.989663e-001  0.000000e+000
      vertex  4.175050e+000 -1.029057e+000  0.000000e+000
    endloop
  endfacet
  facet normal  0.000000e+000  0.000000e+000 -1.000000e+000
    outer loop
      vertex -1.200000e+001 -6.500000e+000  0.000000e+000
      vertex -1.200000e+001  6.500000e+000  0.000000e+000
      vertex -8.536114e+000  4.989663e-001  0.000000e+000
    endloop
  endfacet
  facet normal  0.000000e+000  0.000000e+000 -1.000000e+000
    outer loop
      vertex -1.200000e+001 -6.500000e+000  0.000000e+000
      vertex -8.536114e+000  4.989663e-001  0.000000e+000
      vertex -8.650000e+000  0.000000e+000  0.000000e+000
    endloop
  endfacet
  facet normal  0.000000e+000  -0.000000e+000 -1.000000e+000
    outer loop
      vertex -1.200000e+001 -6.500000e+000  0.000000e+000
      vertex -8.650000e+000  0.000000e+000  0.000000e+000
      vertex -8.536114e+000 -4.989663e-001  0.000000e+000
    endloop
  endfacet
  facet normal  0.000000e+000  -0.000000e+000 -1.000000e+000
    outer loop
      vertex -1.200000e+001 -6.500000e+000  0.000000e+000
      vertex -8.536114e+000 -4.989663e-001  0.000000e+000
      vertex -8.217013e+000 -8.991062e-001  0.000000e+000
    endloop
  endfacet
  facet normal  0.000000e+000  -0.000000e+000 -1.000000e+000
    outer loop
      vertex -1.200000e+001 -6.500000e+000  0.000000e+000
      vertex -8.217013e+000 -8.991062e-001  0.000000e+000
      vertex -7.755899e+000 -1.121167e+000  0.000000e+000
    endloop
  endfacet
  facet normal  0.000000e+000  -0.000000e+000 -1.000000e+000
    outer loop
      vertex -1.200000e+001 -6.500000e+000  0.000000e+000
      vertex -7.755899e+000 -1.121167e+000  0.000000e+000
      vertex -7.244101e+000 -1.121167e+000  0.000000e+000
    endloop
  endfacet
  facet normal  0.000000e+000  -0.000000e+000 -1.000000e+000
    outer loop
      vertex -1.200000e+001 -6.500000e+000  0.000000e+000
      vertex -7.244101e+000 -1.121167e+000  0.000000e+000
      vertex -3.807461e+000 -1.998310e+000  0.000000e+000
    endloop
  endfacet
  facet normal  0.000000e+000  -0.000000e+000 -1.000000e+000
    outer loop
      vertex -1.200000e+001 -6.500000e+000  0.000000e+000
      vertex -3.807461e+000 -1.998310e+000  0.000000e+000
      vertex -3.218596e+000 -2.851427e+000  0.000000e+000
    endloop
  endfacet
  facet normal  0.000000e+000  -0.000000e+000 -1.000000e+000
    outer loop
      vertex -1.200000e+001 -6.500000e+000  0.000000e+000
      vertex -3.218596e+000 -2.851427e+000  0.000000e+000
      vertex -2.442678e+000 -3.538831e+000  0.000000e+000
    endloop
  endfacet
  facet normal  0.000000e+000  -0.000000e+000 -9.999999e-001
    outer loop
      vertex -1.200000e+001 -6.500000e+000  0.000000e+000
      vertex -2.442678e+000 -3.538831e+000  0.000000e+000
      vertex -1.524801e+000 -4.020570e+000  0.000000e+000
    endloop
  endfacet
  facet normal  0.000000e+000  -0.000000e+000 -1.000000e+000
    outer loop
      vertex -1.200000e+001 -6.500000e+000  0.000000e+000
      vertex -1.524801e+000 -4.020570e+000  0.000000e+000
      vertex -5.183077e-001 -4.268648e+000  0.000000e+000
    endloop
  endfacet
  facet normal  0.000000e+000  -0.000000e+000 -1.000000e+000
    outer loop
      vertex -1.200000e+001 -6.500000e+000  0.000000e+000
      vertex -5.183077e-001 -4.268648e+000  0.000000e+000
      vertex  5.183077e-001 -4.268648e+000  0.000000e+000
    endloop
  endfacet
  facet normal  0.000000e+000  -0.000000e+000 -1.000000e+000
    outer loop
      vertex -1.200000e+001 -6.500000e+000  0.000000e+000
      vertex  5.183077e-001 -4.268648e+000  0.000000e+000
      vertex  1.200000e+001 -6.500000e+000  0.000000e+000
    endloop
  endfacet
  facet normal  0.000000e+000  0.000000e+000 -1.000000e+000
    outer loop
      vertex  1.524801e+000  4.020570e+000  0.000000e+000
      vertex  5.183077e-001  4.268648e+000  0.000000e+000
      vertex  1.200000e+001  6.500000e+000  0.000000e+000
    endloop
  endfacet
  facet normal  0.000000e+000  0.000000e+000 -1.000000e+000
    outer loop
      vertex  1.524801e+000  4.020570e+000  0.000000e+000
      vertex  1.200000e+001  6.500000e+000  0.000000e+000
      vertex  7.755899e+000  1.121167e+000  0.000000e+000
    endloop
  endfacet
  facet normal  0.000000e+000  0.000000e+000 -1.000000e+000
    outer loop
      vertex  1.524801e+000  4.020570e+000  0.000000e+000
      vertex  7.755899e+000  1.121167e+000  0.000000e+000
      vertex  7.244101e+000  1.121167e+000  0.000000e+000
    endloop
  endfacet
  facet normal  0.000000e+000  0.000000e+000 -1.000000e+000
    outer loop
      vertex  1.524801e+000  4.020570e+000  0.000000e+000
      vertex  7.244101e+000  1.121167e+000  0.000000e+000
      vertex  2.442678e+000  3.538831e+000  0.000000e+000
    endloop
  endfacet
  facet normal  -0.000000e+000  0.000000e+000 -1.000000e+000
    outer loop
      vertex -1.200000e+001  6.500000e+000  0.000000e+000
      vertex  1.200000e+001  6.500000e+000  0.000000e+000
      vertex  5.183077e-001  4.268648e+000  0.000000e+000
    endloop
  endfacet
  facet normal  0.000000e+000  0.000000e+000 -1.000000e+000
    outer loop
      vertex -1.200000e+001  6.500000e+000  0.000000e+000
      vertex  5.183077e-001  4.268648e+000  0.000000e+000
      vertex -5.183077e-001  4.268648e+000  0.000000e+000
    endloop
  endfacet
  facet normal  -0.000000e+000  0.000000e+000 -1.000000e+000
    outer loop
      vertex -1.200000e+001  6.500000e+000  0.000000e+000
      vertex -5.183077e-001  4.268648e+000  0.000000e+000
      vertex -1.524801e+000  4.020570e+000  0.000000e+000
    endloop
  endfacet
  facet normal  -0.000000e+000  0.000000e+000 -9.999999e-001
    outer loop
      vertex -1.200000e+001  6.500000e+000  0.000000e+000
      vertex -1.524801e+000  4.020570e+000  0.000000e+000
      vertex -2.442678e+000  3.538831e+000  0.000000e+000
    endloop
  endfacet
  facet normal  -0.000000e+000  0.000000e+000 -1.000000e+000
    outer loop
      vertex -1.200000e+001  6.500000e+000  0.000000e+000
      vertex -2.442678e+000  3.538831e+000  0.000000e+000
      vertex -3.218596e+000  2.851427e+000  0.000000e+000
    endloop
  endfacet
  facet normal  -0.000000e+000  0.000000e+000 -1.000000e+000
    outer loop
      vertex -1.200000e+001  6.500000e+000  0.000000e+000
      vertex -3.218596e+000  2.851427e+000  0.000000e+000
      vertex -3.807461e+000  1.998310e+000  0.000000e+000
    endloop
  endfacet
  facet normal  -0.000000e+000  0.000000e+000 -1.000000e+000
    outer loop
      vertex -1.200000e+001  6.500000e+000  0.000000e+000
      vertex -3.807461e+000  1.998310e+000  0.000000e+000
      vertex -7.244101e+000  1.121167e+000  0.000000e+000
    endloop
  endfacet
  facet normal  0.000000e+000  0.000000e+000 -1.000000e+000
    outer loop
      vertex -1.200000e+001  6.500000e+000  0.000000e+000
      vertex -7.244101e+000  1.121167e+000  0.000000e+000
      vertex -7.755899e+000  1.121167e+000  0.000000e+000
    endloop
  endfacet
  facet normal  -0.000000e+000  0.000000e+000 -1.000000e+000
    outer loop
      vertex -1.200000e+001  6.500000e+000  0.000000e+000
      vertex -7.755899e+000  1.121167e+000  0.000000e+000
      vertex -8.217013e+000  8.991062e-001  0.000000e+000
    endloop
  endfacet
  facet normal  -0.000000e+000  0.000000e+000 -1.000000e+000
    outer loop
      vertex -1.200000e+001  6.500000e+000  0.000000e+000
      vertex -8.217013e+000  8.991062e-001  0.000000e+000
      vertex -8.536114e+000  4.989663e-001  0.000000e+000
    endloop
  endfacet
  facet normal  0.000000e+000  0.000000e+000 -1.000000e+000
    outer loop
      vertex  1.200000e+001 -6.500000e+000  0.000000e+000
      vertex  5.183077e-001 -4.268648e+000  0.000000e+000
      vertex  1.524801e+000 -4.020570e+000  0.000000e+000
    endloop
  endfacet
  facet normal  0.000000e+000  0.000000e+000 -9.999999e-001
    outer loop
      vertex  1.200000e+001 -6.500000e+000  0.000000e+000
      vertex  1.524801e+000 -4.020570e+000  0.000000e+000
      vertex  7.244101e+000 -1.121167e+000  0.000000e+000
    endloop
  endfacet
  facet normal  0.000000e+000  0.000000e+000 -1.000000e+000
    outer loop
      vertex  1.200000e+001 -6.500000e+000  0.000000e+000
      vertex  7.244101e+000 -1.121167e+000  0.000000e+000
      vertex  7.755899e+000 -1.121167e+000  0.000000e+000
    endloop
  endfacet
  facet normal  0.000000e+000  0.000000e+000 -1.000000e+000
    outer loop
      vertex  1.200000e+001 -6.500000e+000  0.000000e+000
      vertex  7.755899e+000 -1.121167e+000  0.000000e+000
      vertex  8.217013e+000 -8.991062e-001  0.000000e+000
    endloop
  endfacet
  facet normal  0.000000e+000  0.000000e+000 -1.000000e+000
    outer loop
      vertex  1.200000e+001 -6.500000e+000  0.000000e+000
      vertex  8.217013e+000 -8.991062e-001  0.000000e+000
      vertex  8.536114e+000 -4.989663e-001  0.000000e+000
    endloop
  endfacet
  facet normal  0.000000e+000  0.000000e+000 -1.000000e+000
    outer loop
      vertex  1.200000e+001 -6.500000e+000  0.000000e+000
      vertex  8.536114e+000 -4.989663e-001  0.000000e+000
      vertex  8.650000e+000  0.000000e+000  0.000000e+000
    endloop
  endfacet
  facet normal  0.000000e+000  0.000000e+000 -1.000000e+000
    outer loop
      vertex  1.200000e+001 -6.500000e+000  0.000000e+000
      vertex  8.650000e+000  0.000000e+000  0.000000e+000
      vertex  8.536114e+000  4.989663e-001  0.000000e+000
    endloop
  endfacet
  facet normal  0.000000e+000  0.000000e+000 -1.000000e+000
    outer loop
      vertex  1.200000e+001  6.500000e+000  0.000000e+000
      vertex  1.200000e+001 -6.500000e+000  0.000000e+000
      vertex  8.536114e+000  4.989663e-001  0.000000e+000
    endloop
  endfacet
  facet normal  0.000000e+000  0.000000e+000 -1.000000e+000
    outer loop
      vertex  1.200000e+001  6.500000e+000  0.000000e+000
      vertex  8.536114e+000  4.989663e-001  0.000000e+000
      vertex  8.217013e+000  8.991062e-001  0.000000e+000
    endloop
  endfacet
  facet normal  0.000000e+000  0.000000e+000 -1.000000e+000
    outer loop
      vertex  1.200000e+001  6.500000e+000  0.000000e+000
      vertex  8.217013e+000  8.991062e-001  0.000000e+000
      vertex  7.755899e+000  1.121167e+000  0.000000e+000
    endloop
  endfacet
  facet normal  0.000000e+000  0.000000e+000 -1.000000e+000
    outer loop
      vertex  1.400000e+001 -6.500000e+000 -3.500000e+000
      vertex  1.200000e+001 -6.500000e+000 -3.500000e+000
      vertex  1.400000e+001  6.500000e+000 -3.500000e+000
    endloop
  endfacet
  facet normal  -0.000000e+000  0.000000e+000 -1.000000e+000
    outer loop
      vertex  1.400000e+001  6.500000e+000 -3.500000e+000
      vertex  1.200000e+001 -6.500000e+000 -3.500000e+000
      vertex  1.200000e+001  6.500000e+000 -3.500000e+000
    endloop
  endfacet
  facet normal  1.000000e+000  -0.000000e+000  0.000000e+000
    outer loop
      vertex -1.200000e+001  6.500000e+000  0.000000e+000
      vertex -1.200000e+001 -6.500000e+000  0.000000e+000
      vertex -1.200000e+001  6.500000e+000 -3.500000e+000
    endloop
  endfacet
  facet normal  1.000000e+000  0.000000e+000  0.000000e+000
    outer loop
      vertex -1.200000e+001  6.500000e+000 -3.500000e+000
      vertex -1.200000e+001 -6.500000e+000  0.000000e+000
      vertex -1.200000e+001 -6.500000e+000 -3.500000e+000
    endloop
  endfacet
  facet normal  0.000000e+000  0.000000e+000 -1.000000e+000
    outer loop
      vertex -1.200000e+001 -6.500000e+000 -3.500000e+000
      vertex -1.400000e+001 -6.500000e+000 -3.500000e+000
      vertex -1.200000e+001  6.500000e+000 -3.500000e+000
    endloop
  endfacet
  facet normal  -0.000000e+000  0.000000e+000 -1.000000e+000
    outer loop
      vertex -1.200000e+001  6.500000e+000 -3.500000e+000
      vertex -1.400000e+001 -6.500000e+000 -3.500000e+000
      vertex -1.400000e+001  6.500000e+000 -3.500000e+000
    endloop
  endfacet
endsolid CATIA STL
