solid CATIA STL
  facet normal  0.000000e+000  0.000000e+000 -9.999999e-001
    outer loop
      vertex  3.999910e-008  1.400000e+000  0.000000e+000
      vertex  2.731265e-001  1.373099e+000  0.000000e+000
      vertex -2.731264e-001  1.373099e+000  0.000000e+000
    endloop
  endfacet
  facet normal  0.000000e+000  0.000000e+000 -1.000000e+000
    outer loop
      vertex -1.049905e-009 -1.400000e+000  0.000000e+000
      vertex -2.731265e-001 -1.373099e+000  0.000000e+000
      vertex  2.731265e-001 -1.373099e+000  0.000000e+000
    endloop
  endfacet
  facet normal  0.000000e+000  0.000000e+000 -1.000000e+000
    outer loop
      vertex  2.731265e-001 -1.373099e+000  0.000000e+000
      vertex -2.731265e-001 -1.373099e+000  0.000000e+000
      vertex -5.357568e-001 -1.293431e+000  0.000000e+000
    endloop
  endfacet
  facet normal  0.000000e+000  0.000000e+000 -1.000000e+000
    outer loop
      vertex  2.731265e-001 -1.373099e+000  0.000000e+000
      vertex -5.357568e-001 -1.293431e+000  0.000000e+000
      vertex  5.357568e-001 -1.293431e+000  0.000000e+000
    endloop
  endfacet
  facet normal  0.000000e+000  0.000000e+000 -1.000000e+000
    outer loop
      vertex  5.357568e-001 -1.293431e+000  0.000000e+000
      vertex -5.357568e-001 -1.293431e+000  0.000000e+000
      vertex -7.777984e-001 -1.164057e+000  0.000000e+000
    endloop
  endfacet
  facet normal  0.000000e+000  0.000000e+000 -9.999999e-001
    outer loop
      vertex  5.357568e-001 -1.293431e+000  0.000000e+000
      vertex -7.777984e-001 -1.164057e+000  0.000000e+000
      vertex  7.777984e-001 -1.164057e+000  0.000000e+000
    endloop
  endfacet
  facet normal  0.000000e+000  0.000000e+000 -1.000000e+000
    outer loop
      vertex  7.777984e-001 -1.164057e+000  0.000000e+000
      vertex -7.777984e-001 -1.164057e+000  0.000000e+000
      vertex -9.899495e-001 -9.899495e-001  0.000000e+000
    endloop
  endfacet
  facet normal  0.000000e+000  0.000000e+000 -1.000000e+000
    outer loop
      vertex  7.777984e-001 -1.164057e+000  0.000000e+000
      vertex -9.899495e-001 -9.899495e-001  0.000000e+000
      vertex  9.899495e-001 -9.899495e-001  0.000000e+000
    endloop
  endfacet
  facet normal  0.000000e+000  0.000000e+000 -1.000000e+000
    outer loop
      vertex  9.899495e-001 -9.899495e-001  0.000000e+000
      vertex -9.899495e-001 -9.899495e-001  0.000000e+000
      vertex -1.164057e+000 -7.777983e-001  0.000000e+000
    endloop
  endfacet
  facet normal  0.000000e+000  0.000000e+000 -9.999999e-001
    outer loop
      vertex  9.899495e-001 -9.899495e-001  0.000000e+000
      vertex -1.164057e+000 -7.777983e-001  0.000000e+000
      vertex  1.164057e+000 -7.777984e-001  0.000000e+000
    endloop
  endfacet
  facet normal  0.000000e+000  0.000000e+000 -1.000000e+000
    outer loop
      vertex  1.164057e+000 -7.777984e-001  0.000000e+000
      vertex -1.164057e+000 -7.777983e-001  0.000000e+000
      vertex -1.293431e+000 -5.357568e-001  0.000000e+000
    endloop
  endfacet
  facet normal  0.000000e+000  0.000000e+000 -1.000000e+000
    outer loop
      vertex  1.164057e+000 -7.777984e-001  0.000000e+000
      vertex -1.293431e+000 -5.357568e-001  0.000000e+000
      vertex  1.293431e+000 -5.357568e-001  0.000000e+000
    endloop
  endfacet
  facet normal  0.000000e+000  0.000000e+000 -1.000000e+000
    outer loop
      vertex  1.293431e+000 -5.357568e-001  0.000000e+000
      vertex -1.293431e+000 -5.357568e-001  0.000000e+000
      vertex -1.373099e+000 -2.731265e-001  0.000000e+000
    endloop
  endfacet
  facet normal  0.000000e+000  0.000000e+000 -1.000000e+000
    outer loop
      vertex  1.293431e+000 -5.357568e-001  0.000000e+000
      vertex -1.373099e+000 -2.731265e-001  0.000000e+000
      vertex  1.373099e+000 -2.731265e-001  0.000000e+000
    endloop
  endfacet
  facet normal  0.000000e+000  0.000000e+000 -1.000000e+000
    outer loop
      vertex  1.373099e+000 -2.731265e-001  0.000000e+000
      vertex -1.373099e+000 -2.731265e-001  0.000000e+000
      vertex -1.400000e+000  7.999822e-008  0.000000e+000
    endloop
  endfacet
  facet normal  0.000000e+000  0.000000e+000 -1.000000e+000
    outer loop
      vertex  1.373099e+000 -2.731265e-001  0.000000e+000
      vertex -1.400000e+000  7.999822e-008  0.000000e+000
      vertex  1.400000e+000 -1.190454e-017  0.000000e+000
    endloop
  endfacet
  facet normal  0.000000e+000  0.000000e+000 -1.000000e+000
    outer loop
      vertex  1.400000e+000 -1.190454e-017  0.000000e+000
      vertex -1.400000e+000  7.999822e-008  0.000000e+000
      vertex -1.373099e+000  2.731265e-001  0.000000e+000
    endloop
  endfacet
  facet normal  0.000000e+000  0.000000e+000 -1.000000e+000
    outer loop
      vertex  1.400000e+000 -1.190454e-017  0.000000e+000
      vertex -1.373099e+000  2.731265e-001  0.000000e+000
      vertex  1.373099e+000  2.731265e-001  0.000000e+000
    endloop
  endfacet
  facet normal  0.000000e+000  0.000000e+000 -1.000000e+000
    outer loop
      vertex  1.373099e+000  2.731265e-001  0.000000e+000
      vertex -1.373099e+000  2.731265e-001  0.000000e+000
      vertex -1.293431e+000  5.357569e-001  0.000000e+000
    endloop
  endfacet
  facet normal  0.000000e+000  0.000000e+000 -1.000000e+000
    outer loop
      vertex  1.373099e+000  2.731265e-001  0.000000e+000
      vertex -1.293431e+000  5.357569e-001  0.000000e+000
      vertex  1.293431e+000  5.357568e-001  0.000000e+000
    endloop
  endfacet
  facet normal  0.000000e+000  0.000000e+000 -9.999999e-001
    outer loop
      vertex  1.293431e+000  5.357568e-001  0.000000e+000
      vertex -1.293431e+000  5.357569e-001  0.000000e+000
      vertex -1.164057e+000  7.777984e-001  0.000000e+000
    endloop
  endfacet
  facet normal  0.000000e+000  0.000000e+000 -1.000000e+000
    outer loop
      vertex  1.293431e+000  5.357568e-001  0.000000e+000
      vertex -1.164057e+000  7.777984e-001  0.000000e+000
      vertex  1.164057e+000  7.777983e-001  0.000000e+000
    endloop
  endfacet
  facet normal  0.000000e+000  0.000000e+000 -1.000000e+000
    outer loop
      vertex  1.164057e+000  7.777983e-001  0.000000e+000
      vertex -1.164057e+000  7.777984e-001  0.000000e+000
      vertex -9.899495e-001  9.899495e-001  0.000000e+000
    endloop
  endfacet
  facet normal  0.000000e+000  0.000000e+000 -1.000000e+000
    outer loop
      vertex  1.164057e+000  7.777983e-001  0.000000e+000
      vertex -9.899495e-001  9.899495e-001  0.000000e+000
      vertex  9.899495e-001  9.899495e-001  0.000000e+000
    endloop
  endfacet
  facet normal  0.000000e+000  0.000000e+000 -1.000000e+000
    outer loop
      vertex  9.899495e-001  9.899495e-001  0.000000e+000
      vertex -9.899495e-001  9.899495e-001  0.000000e+000
      vertex -7.777983e-001  1.164057e+000  0.000000e+000
    endloop
  endfacet
  facet normal  0.000000e+000  0.000000e+000 -1.000000e+000
    outer loop
      vertex  9.899495e-001  9.899495e-001  0.000000e+000
      vertex -7.777983e-001  1.164057e+000  0.000000e+000
      vertex  7.777984e-001  1.164057e+000  0.000000e+000
    endloop
  endfacet
  facet normal  0.000000e+000  0.000000e+000 -1.000000e+000
    outer loop
      vertex  7.777984e-001  1.164057e+000  0.000000e+000
      vertex -7.777983e-001  1.164057e+000  0.000000e+000
      vertex -5.357568e-001  1.293431e+000  0.000000e+000
    endloop
  endfacet
  facet normal  0.000000e+000  0.000000e+000 -1.000000e+000
    outer loop
      vertex  7.777984e-001  1.164057e+000  0.000000e+000
      vertex -5.357568e-001  1.293431e+000  0.000000e+000
      vertex  5.357568e-001  1.293431e+000  0.000000e+000
    endloop
  endfacet
  facet normal  0.000000e+000  0.000000e+000 -1.000000e+000
    outer loop
      vertex  5.357568e-001  1.293431e+000  0.000000e+000
      vertex -5.357568e-001  1.293431e+000  0.000000e+000
      vertex -2.731264e-001  1.373099e+000  0.000000e+000
    endloop
  endfacet
  facet normal  0.000000e+000  0.000000e+000 -9.999999e-001
    outer loop
      vertex  5.357568e-001  1.293431e+000  0.000000e+000
      vertex -2.731264e-001  1.373099e+000  0.000000e+000
      vertex  2.731265e-001  1.373099e+000  0.000000e+000
    endloop
  endfacet
  facet normal  9.951847e-001 -9.801713e-002  9.704748e-019
    outer loop
      vertex  1.900000e+000 -4.653504e-016  8.000000e+000
      vertex  1.900000e+000  0.000000e+000  5.500000e+001
      vertex  1.863492e+000 -3.706716e-001  8.000000e+000
    endloop
  endfacet
  facet normal  9.951847e-001 -9.801713e-002  0.000000e+000
    outer loop
      vertex  1.863492e+000 -3.706716e-001  8.000000e+000
      vertex  1.900000e+000  0.000000e+000  5.500000e+001
      vertex  1.863492e+000 -3.706716e-001  5.500000e+001
    endloop
  endfacet
  facet normal  9.569404e-001 -2.902847e-001  0.000000e+000
    outer loop
      vertex  1.863492e+000 -3.706716e-001  8.000000e+000
      vertex  1.863492e+000 -3.706716e-001  5.500000e+001
      vertex  1.755371e+000 -7.270985e-001  8.000000e+000
    endloop
  endfacet
  facet normal  9.569404e-001 -2.902847e-001  0.000000e+000
    outer loop
      vertex  1.755371e+000 -7.270985e-001  8.000000e+000
      vertex  1.863492e+000 -3.706716e-001  5.500000e+001
      vertex  1.755371e+000 -7.270985e-001  5.500000e+001
    endloop
  endfacet
  facet normal  8.819212e-001 -4.713966e-001  0.000000e+000
    outer loop
      vertex  1.755371e+000 -7.270985e-001  8.000000e+000
      vertex  1.755371e+000 -7.270985e-001  5.500000e+001
      vertex  1.579792e+000 -1.055583e+000  8.000000e+000
    endloop
  endfacet
  facet normal  8.819212e-001 -4.713966e-001  0.000000e+000
    outer loop
      vertex  1.579792e+000 -1.055583e+000  8.000000e+000
      vertex  1.755371e+000 -7.270985e-001  5.500000e+001
      vertex  1.579792e+000 -1.055583e+000  5.500000e+001
    endloop
  endfacet
  facet normal  7.730105e-001 -6.343934e-001  0.000000e+000
    outer loop
      vertex  1.579792e+000 -1.055583e+000  8.000000e+000
      vertex  1.579792e+000 -1.055583e+000  5.500000e+001
      vertex  1.343503e+000 -1.343503e+000  8.000000e+000
    endloop
  endfacet
  facet normal  7.730105e-001 -6.343934e-001  0.000000e+000
    outer loop
      vertex  1.343503e+000 -1.343503e+000  8.000000e+000
      vertex  1.579792e+000 -1.055583e+000  5.500000e+001
      vertex  1.343503e+000 -1.343503e+000  5.500000e+001
    endloop
  endfacet
  facet normal  6.343934e-001 -7.730105e-001  0.000000e+000
    outer loop
      vertex  1.343503e+000 -1.343503e+000  8.000000e+000
      vertex  1.343503e+000 -1.343503e+000  5.500000e+001
      vertex  1.055583e+000 -1.579792e+000  8.000000e+000
    endloop
  endfacet
  facet normal  6.343934e-001 -7.730105e-001  0.000000e+000
    outer loop
      vertex  1.055583e+000 -1.579792e+000  8.000000e+000
      vertex  1.343503e+000 -1.343503e+000  5.500000e+001
      vertex  1.055583e+000 -1.579792e+000  5.500000e+001
    endloop
  endfacet
  facet normal  4.713966e-001 -8.819212e-001  0.000000e+000
    outer loop
      vertex  1.055583e+000 -1.579792e+000  8.000000e+000
      vertex  1.055583e+000 -1.579792e+000  5.500000e+001
      vertex  7.270985e-001 -1.755371e+000  8.000000e+000
    endloop
  endfacet
  facet normal  4.713966e-001 -8.819212e-001  0.000000e+000
    outer loop
      vertex  7.270985e-001 -1.755371e+000  8.000000e+000
      vertex  1.055583e+000 -1.579792e+000  5.500000e+001
      vertex  7.270985e-001 -1.755371e+000  5.500000e+001
    endloop
  endfacet
  facet normal  2.902847e-001 -9.569404e-001  0.000000e+000
    outer loop
      vertex  7.270985e-001 -1.755371e+000  8.000000e+000
      vertex  7.270985e-001 -1.755371e+000  5.500000e+001
      vertex  3.706716e-001 -1.863492e+000  8.000000e+000
    endloop
  endfacet
  facet normal  2.902847e-001 -9.569404e-001  0.000000e+000
    outer loop
      vertex  3.706716e-001 -1.863492e+000  8.000000e+000
      vertex  7.270985e-001 -1.755371e+000  5.500000e+001
      vertex  3.706716e-001 -1.863492e+000  5.500000e+001
    endloop
  endfacet
  facet normal  9.801713e-002 -9.951847e-001  0.000000e+000
    outer loop
      vertex  3.706716e-001 -1.863492e+000  8.000000e+000
      vertex  3.706716e-001 -1.863492e+000  5.500000e+001
      vertex  1.338526e-015 -1.900000e+000  8.000000e+000
    endloop
  endfacet
  facet normal  9.801713e-002 -9.951847e-001  0.000000e+000
    outer loop
      vertex  1.338526e-015 -1.900000e+000  8.000000e+000
      vertex  3.706716e-001 -1.863492e+000  5.500000e+001
      vertex  1.338526e-015 -1.900000e+000  5.500000e+001
    endloop
  endfacet
  facet normal -9.801713e-002 -9.951847e-001  -0.000000e+000
    outer loop
      vertex  1.338526e-015 -1.900000e+000  8.000000e+000
      vertex  1.338526e-015 -1.900000e+000  5.500000e+001
      vertex -3.706716e-001 -1.863492e+000  8.000000e+000
    endloop
  endfacet
  facet normal -9.801713e-002 -9.951847e-001  0.000000e+000
    outer loop
      vertex -3.706716e-001 -1.863492e+000  8.000000e+000
      vertex  1.338526e-015 -1.900000e+000  5.500000e+001
      vertex -3.706716e-001 -1.863492e+000  5.500000e+001
    endloop
  endfacet
  facet normal -2.902847e-001 -9.569404e-001  -0.000000e+000
    outer loop
      vertex -3.706716e-001 -1.863492e+000  8.000000e+000
      vertex -3.706716e-001 -1.863492e+000  5.500000e+001
      vertex -7.270985e-001 -1.755371e+000  8.000000e+000
    endloop
  endfacet
  facet normal -2.902847e-001 -9.569404e-001  0.000000e+000
    outer loop
      vertex -7.270985e-001 -1.755371e+000  8.000000e+000
      vertex -3.706716e-001 -1.863492e+000  5.500000e+001
      vertex -7.270985e-001 -1.755371e+000  5.500000e+001
    endloop
  endfacet
  facet normal -4.713966e-001 -8.819212e-001  -0.000000e+000
    outer loop
      vertex -7.270985e-001 -1.755371e+000  8.000000e+000
      vertex -7.270985e-001 -1.755371e+000  5.500000e+001
      vertex -1.055583e+000 -1.579792e+000  8.000000e+000
    endloop
  endfacet
  facet normal -4.713966e-001 -8.819212e-001  0.000000e+000
    outer loop
      vertex -1.055583e+000 -1.579792e+000  8.000000e+000
      vertex -7.270985e-001 -1.755371e+000  5.500000e+001
      vertex -1.055583e+000 -1.579792e+000  5.500000e+001
    endloop
  endfacet
  facet normal -6.343934e-001 -7.730105e-001  -0.000000e+000
    outer loop
      vertex -1.055583e+000 -1.579792e+000  8.000000e+000
      vertex -1.055583e+000 -1.579792e+000  5.500000e+001
      vertex -1.343503e+000 -1.343503e+000  8.000000e+000
    endloop
  endfacet
  facet normal -6.343934e-001 -7.730105e-001  0.000000e+000
    outer loop
      vertex -1.343503e+000 -1.343503e+000  8.000000e+000
      vertex -1.055583e+000 -1.579792e+000  5.500000e+001
      vertex -1.343503e+000 -1.343503e+000  5.500000e+001
    endloop
  endfacet
  facet normal -7.730105e-001 -6.343934e-001  -0.000000e+000
    outer loop
      vertex -1.343503e+000 -1.343503e+000  8.000000e+000
      vertex -1.343503e+000 -1.343503e+000  5.500000e+001
      vertex -1.579792e+000 -1.055583e+000  8.000000e+000
    endloop
  endfacet
  facet normal -7.730105e-001 -6.343934e-001  0.000000e+000
    outer loop
      vertex -1.579792e+000 -1.055583e+000  8.000000e+000
      vertex -1.343503e+000 -1.343503e+000  5.500000e+001
      vertex -1.579792e+000 -1.055583e+000  5.500000e+001
    endloop
  endfacet
  facet normal -8.819212e-001 -4.713966e-001  -0.000000e+000
    outer loop
      vertex -1.579792e+000 -1.055583e+000  8.000000e+000
      vertex -1.579792e+000 -1.055583e+000  5.500000e+001
      vertex -1.755371e+000 -7.270985e-001  8.000000e+000
    endloop
  endfacet
  facet normal -8.819212e-001 -4.713966e-001  0.000000e+000
    outer loop
      vertex -1.755371e+000 -7.270985e-001  8.000000e+000
      vertex -1.579792e+000 -1.055583e+000  5.500000e+001
      vertex -1.755371e+000 -7.270985e-001  5.500000e+001
    endloop
  endfacet
  facet normal -9.569404e-001 -2.902847e-001  -0.000000e+000
    outer loop
      vertex -1.755371e+000 -7.270985e-001  8.000000e+000
      vertex -1.755371e+000 -7.270985e-001  5.500000e+001
      vertex -1.863492e+000 -3.706716e-001  8.000000e+000
    endloop
  endfacet
  facet normal -9.569404e-001 -2.902847e-001  0.000000e+000
    outer loop
      vertex -1.863492e+000 -3.706716e-001  8.000000e+000
      vertex -1.755371e+000 -7.270985e-001  5.500000e+001
      vertex -1.863492e+000 -3.706716e-001  5.500000e+001
    endloop
  endfacet
  facet normal -9.951847e-001 -9.801713e-002  -0.000000e+000
    outer loop
      vertex -1.863492e+000 -3.706716e-001  8.000000e+000
      vertex -1.863492e+000 -3.706716e-001  5.500000e+001
      vertex -1.900000e+000  2.326752e-016  8.000000e+000
    endloop
  endfacet
  facet normal -9.951847e-001 -9.801713e-002  0.000000e+000
    outer loop
      vertex -1.900000e+000  2.326752e-016  8.000000e+000
      vertex -1.863492e+000 -3.706716e-001  5.500000e+001
      vertex -1.900000e+000  2.326752e-016  5.500000e+001
    endloop
  endfacet
  facet normal -9.951847e-001  9.801713e-002  0.000000e+000
    outer loop
      vertex -1.900000e+000  2.326752e-016  8.000000e+000
      vertex -1.900000e+000  2.326752e-016  5.500000e+001
      vertex -1.863492e+000  3.706716e-001  8.000000e+000
    endloop
  endfacet
  facet normal -9.951847e-001  9.801713e-002  0.000000e+000
    outer loop
      vertex -1.863492e+000  3.706716e-001  8.000000e+000
      vertex -1.900000e+000  2.326752e-016  5.500000e+001
      vertex -1.863492e+000  3.706716e-001  5.500000e+001
    endloop
  endfacet
  facet normal -9.569404e-001  2.902847e-001  0.000000e+000
    outer loop
      vertex -1.863492e+000  3.706716e-001  8.000000e+000
      vertex -1.863492e+000  3.706716e-001  5.500000e+001
      vertex -1.755371e+000  7.270985e-001  8.000000e+000
    endloop
  endfacet
  facet normal -9.569404e-001  2.902847e-001  0.000000e+000
    outer loop
      vertex -1.755371e+000  7.270985e-001  8.000000e+000
      vertex -1.863492e+000  3.706716e-001  5.500000e+001
      vertex -1.755371e+000  7.270985e-001  5.500000e+001
    endloop
  endfacet
  facet normal -8.819212e-001  4.713966e-001  0.000000e+000
    outer loop
      vertex -1.755371e+000  7.270985e-001  8.000000e+000
      vertex -1.755371e+000  7.270985e-001  5.500000e+001
      vertex -1.579792e+000  1.055583e+000  8.000000e+000
    endloop
  endfacet
  facet normal -8.819212e-001  4.713966e-001  0.000000e+000
    outer loop
      vertex -1.579792e+000  1.055583e+000  8.000000e+000
      vertex -1.755371e+000  7.270985e-001  5.500000e+001
      vertex -1.579792e+000  1.055583e+000  5.500000e+001
    endloop
  endfacet
  facet normal -7.730105e-001  6.343934e-001  0.000000e+000
    outer loop
      vertex -1.579792e+000  1.055583e+000  8.000000e+000
      vertex -1.579792e+000  1.055583e+000  5.500000e+001
      vertex -1.343503e+000  1.343503e+000  8.000000e+000
    endloop
  endfacet
  facet normal -7.730105e-001  6.343934e-001  0.000000e+000
    outer loop
      vertex -1.343503e+000  1.343503e+000  8.000000e+000
      vertex -1.579792e+000  1.055583e+000  5.500000e+001
      vertex -1.343503e+000  1.343503e+000  5.500000e+001
    endloop
  endfacet
  facet normal -6.343934e-001  7.730105e-001  0.000000e+000
    outer loop
      vertex -1.343503e+000  1.343503e+000  8.000000e+000
      vertex -1.343503e+000  1.343503e+000  5.500000e+001
      vertex -1.055583e+000  1.579792e+000  8.000000e+000
    endloop
  endfacet
  facet normal -6.343934e-001  7.730105e-001  0.000000e+000
    outer loop
      vertex -1.055583e+000  1.579792e+000  8.000000e+000
      vertex -1.343503e+000  1.343503e+000  5.500000e+001
      vertex -1.055583e+000  1.579792e+000  5.500000e+001
    endloop
  endfacet
  facet normal -4.713966e-001  8.819212e-001  0.000000e+000
    outer loop
      vertex -1.055583e+000  1.579792e+000  8.000000e+000
      vertex -1.055583e+000  1.579792e+000  5.500000e+001
      vertex -7.270985e-001  1.755371e+000  8.000000e+000
    endloop
  endfacet
  facet normal -4.713966e-001  8.819212e-001  0.000000e+000
    outer loop
      vertex -7.270985e-001  1.755371e+000  8.000000e+000
      vertex -1.055583e+000  1.579792e+000  5.500000e+001
      vertex -7.270985e-001  1.755371e+000  5.500000e+001
    endloop
  endfacet
  facet normal -2.902847e-001  9.569404e-001  0.000000e+000
    outer loop
      vertex -7.270985e-001  1.755371e+000  8.000000e+000
      vertex -7.270985e-001  1.755371e+000  5.500000e+001
      vertex -3.706716e-001  1.863492e+000  8.000000e+000
    endloop
  endfacet
  facet normal -2.902847e-001  9.569404e-001  0.000000e+000
    outer loop
      vertex -3.706716e-001  1.863492e+000  8.000000e+000
      vertex -7.270985e-001  1.755371e+000  5.500000e+001
      vertex -3.706716e-001  1.863492e+000  5.500000e+001
    endloop
  endfacet
  facet normal -9.801713e-002  9.951847e-001  0.000000e+000
    outer loop
      vertex -3.706716e-001  1.863492e+000  8.000000e+000
      vertex -3.706716e-001  1.863492e+000  5.500000e+001
      vertex  1.163376e-016  1.900000e+000  8.000000e+000
    endloop
  endfacet
  facet normal -9.801713e-002  9.951847e-001  0.000000e+000
    outer loop
      vertex  1.163376e-016  1.900000e+000  8.000000e+000
      vertex -3.706716e-001  1.863492e+000  5.500000e+001
      vertex  1.163376e-016  1.900000e+000  5.500000e+001
    endloop
  endfacet
  facet normal  9.801713e-002  9.951847e-001  0.000000e+000
    outer loop
      vertex  1.163376e-016  1.900000e+000  8.000000e+000
      vertex  1.163376e-016  1.900000e+000  5.500000e+001
      vertex  3.706716e-001  1.863492e+000  8.000000e+000
    endloop
  endfacet
  facet normal  9.801713e-002  9.951847e-001  -0.000000e+000
    outer loop
      vertex  3.706716e-001  1.863492e+000  8.000000e+000
      vertex  1.163376e-016  1.900000e+000  5.500000e+001
      vertex  3.706716e-001  1.863492e+000  5.500000e+001
    endloop
  endfacet
  facet normal  2.902847e-001  9.569404e-001  0.000000e+000
    outer loop
      vertex  3.706716e-001  1.863492e+000  8.000000e+000
      vertex  3.706716e-001  1.863492e+000  5.500000e+001
      vertex  7.270985e-001  1.755371e+000  8.000000e+000
    endloop
  endfacet
  facet normal  2.902847e-001  9.569404e-001  -0.000000e+000
    outer loop
      vertex  7.270985e-001  1.755371e+000  8.000000e+000
      vertex  3.706716e-001  1.863492e+000  5.500000e+001
      vertex  7.270985e-001  1.755371e+000  5.500000e+001
    endloop
  endfacet
  facet normal  4.713966e-001  8.819212e-001  0.000000e+000
    outer loop
      vertex  7.270985e-001  1.755371e+000  8.000000e+000
      vertex  7.270985e-001  1.755371e+000  5.500000e+001
      vertex  1.055583e+000  1.579792e+000  8.000000e+000
    endloop
  endfacet
  facet normal  4.713966e-001  8.819212e-001  -0.000000e+000
    outer loop
      vertex  1.055583e+000  1.579792e+000  8.000000e+000
      vertex  7.270985e-001  1.755371e+000  5.500000e+001
      vertex  1.055583e+000  1.579792e+000  5.500000e+001
    endloop
  endfacet
  facet normal  6.343934e-001  7.730105e-001  0.000000e+000
    outer loop
      vertex  1.055583e+000  1.579792e+000  8.000000e+000
      vertex  1.055583e+000  1.579792e+000  5.500000e+001
      vertex  1.343503e+000  1.343503e+000  8.000000e+000
    endloop
  endfacet
  facet normal  6.343934e-001  7.730105e-001  -0.000000e+000
    outer loop
      vertex  1.343503e+000  1.343503e+000  8.000000e+000
      vertex  1.055583e+000  1.579792e+000  5.500000e+001
      vertex  1.343503e+000  1.343503e+000  5.500000e+001
    endloop
  endfacet
  facet normal  7.730105e-001  6.343934e-001  0.000000e+000
    outer loop
      vertex  1.343503e+000  1.343503e+000  8.000000e+000
      vertex  1.343503e+000  1.343503e+000  5.500000e+001
      vertex  1.579792e+000  1.055583e+000  8.000000e+000
    endloop
  endfacet
  facet normal  7.730105e-001  6.343934e-001  -0.000000e+000
    outer loop
      vertex  1.579792e+000  1.055583e+000  8.000000e+000
      vertex  1.343503e+000  1.343503e+000  5.500000e+001
      vertex  1.579792e+000  1.055583e+000  5.500000e+001
    endloop
  endfacet
  facet normal  8.819212e-001  4.713966e-001  0.000000e+000
    outer loop
      vertex  1.579792e+000  1.055583e+000  8.000000e+000
      vertex  1.579792e+000  1.055583e+000  5.500000e+001
      vertex  1.755371e+000  7.270985e-001  8.000000e+000
    endloop
  endfacet
  facet normal  8.819212e-001  4.713966e-001  -0.000000e+000
    outer loop
      vertex  1.755371e+000  7.270985e-001  8.000000e+000
      vertex  1.579792e+000  1.055583e+000  5.500000e+001
      vertex  1.755371e+000  7.270985e-001  5.500000e+001
    endloop
  endfacet
  facet normal  9.569404e-001  2.902847e-001  0.000000e+000
    outer loop
      vertex  1.755371e+000  7.270985e-001  8.000000e+000
      vertex  1.755371e+000  7.270985e-001  5.500000e+001
      vertex  1.863492e+000  3.706716e-001  8.000000e+000
    endloop
  endfacet
  facet normal  9.569404e-001  2.902847e-001  -0.000000e+000
    outer loop
      vertex  1.863492e+000  3.706716e-001  8.000000e+000
      vertex  1.755371e+000  7.270985e-001  5.500000e+001
      vertex  1.863492e+000  3.706716e-001  5.500000e+001
    endloop
  endfacet
  facet normal  9.951847e-001  9.801713e-002  0.000000e+000
    outer loop
      vertex  1.863492e+000  3.706716e-001  8.000000e+000
      vertex  1.863492e+000  3.706716e-001  5.500000e+001
      vertex  1.900000e+000 -4.653504e-016  8.000000e+000
    endloop
  endfacet
  facet normal  9.951847e-001  9.801713e-002 -9.704748e-019
    outer loop
      vertex  1.900000e+000 -4.653504e-016  8.000000e+000
      vertex  1.863492e+000  3.706716e-001  5.500000e+001
      vertex  1.900000e+000  0.000000e+000  5.500000e+001
    endloop
  endfacet
  facet normal  9.932652e-001  9.782808e-002 -6.207908e-002
    outer loop
      vertex  1.900000e+000 -4.653504e-016  8.000000e+000
      vertex  1.400000e+000 -1.190454e-017  0.000000e+000
      vertex  1.863492e+000  3.706716e-001  8.000000e+000
    endloop
  endfacet
  facet normal  9.932652e-001  9.782780e-002 -6.207906e-002
    outer loop
      vertex  1.863492e+000  3.706716e-001  8.000000e+000
      vertex  1.400000e+000 -1.190454e-017  0.000000e+000
      vertex  1.373099e+000  2.731265e-001  0.000000e+000
    endloop
  endfacet
  facet normal  9.550946e-001  2.897248e-001 -6.207906e-002
    outer loop
      vertex  1.863492e+000  3.706716e-001  8.000000e+000
      vertex  1.373099e+000  2.731265e-001  0.000000e+000
      vertex  1.755371e+000  7.270985e-001  8.000000e+000
    endloop
  endfacet
  facet normal  9.550947e-001  2.897248e-001 -6.207908e-002
    outer loop
      vertex  1.755371e+000  7.270985e-001  8.000000e+000
      vertex  1.373099e+000  2.731265e-001  0.000000e+000
      vertex  1.293431e+000  5.357568e-001  0.000000e+000
    endloop
  endfacet
  facet normal  8.802202e-001  4.704874e-001 -6.207907e-002
    outer loop
      vertex  1.755371e+000  7.270985e-001  8.000000e+000
      vertex  1.293431e+000  5.357568e-001  0.000000e+000
      vertex  1.579792e+000  1.055583e+000  8.000000e+000
    endloop
  endfacet
  facet normal  8.802202e-001  4.704876e-001 -6.207908e-002
    outer loop
      vertex  1.579792e+000  1.055583e+000  8.000000e+000
      vertex  1.293431e+000  5.357568e-001  0.000000e+000
      vertex  1.164057e+000  7.777983e-001  0.000000e+000
    endloop
  endfacet
  facet normal  7.715195e-001  6.331698e-001 -6.207908e-002
    outer loop
      vertex  1.579792e+000  1.055583e+000  8.000000e+000
      vertex  1.164057e+000  7.777983e-001  0.000000e+000
      vertex  1.343503e+000  1.343503e+000  8.000000e+000
    endloop
  endfacet
  facet normal  7.715195e-001  6.331697e-001 -6.207908e-002
    outer loop
      vertex  1.343503e+000  1.343503e+000  8.000000e+000
      vertex  1.164057e+000  7.777983e-001  0.000000e+000
      vertex  9.899495e-001  9.899495e-001  0.000000e+000
    endloop
  endfacet
  facet normal  6.331698e-001  7.715195e-001 -6.207908e-002
    outer loop
      vertex  1.343503e+000  1.343503e+000  8.000000e+000
      vertex  9.899495e-001  9.899495e-001  0.000000e+000
      vertex  1.055583e+000  1.579792e+000  8.000000e+000
    endloop
  endfacet
  facet normal  6.331698e-001  7.715194e-001 -6.207908e-002
    outer loop
      vertex  1.055583e+000  1.579792e+000  8.000000e+000
      vertex  9.899495e-001  9.899495e-001  0.000000e+000
      vertex  7.777984e-001  1.164057e+000  0.000000e+000
    endloop
  endfacet
  facet normal  4.704874e-001  8.802202e-001 -6.207907e-002
    outer loop
      vertex  1.055583e+000  1.579792e+000  8.000000e+000
      vertex  7.777984e-001  1.164057e+000  0.000000e+000
      vertex  7.270985e-001  1.755371e+000  8.000000e+000
    endloop
  endfacet
  facet normal  4.704873e-001  8.802205e-001 -6.207909e-002
    outer loop
      vertex  7.270985e-001  1.755371e+000  8.000000e+000
      vertex  7.777984e-001  1.164057e+000  0.000000e+000
      vertex  5.357568e-001  1.293431e+000  0.000000e+000
    endloop
  endfacet
  facet normal  2.897248e-001  9.550946e-001 -6.207908e-002
    outer loop
      vertex  7.270985e-001  1.755371e+000  8.000000e+000
      vertex  5.357568e-001  1.293431e+000  0.000000e+000
      vertex  3.706716e-001  1.863492e+000  8.000000e+000
    endloop
  endfacet
  facet normal  2.897248e-001  9.550945e-001 -6.207908e-002
    outer loop
      vertex  3.706716e-001  1.863492e+000  8.000000e+000
      vertex  5.357568e-001  1.293431e+000  0.000000e+000
      vertex  2.731265e-001  1.373099e+000  0.000000e+000
    endloop
  endfacet
  facet normal  9.782808e-002  9.932652e-001 -6.207908e-002
    outer loop
      vertex  3.706716e-001  1.863492e+000  8.000000e+000
      vertex  2.731265e-001  1.373099e+000  0.000000e+000
      vertex  1.163376e-016  1.900000e+000  8.000000e+000
    endloop
  endfacet
  facet normal  9.782823e-002  9.932652e-001 -6.207908e-002
    outer loop
      vertex  1.163376e-016  1.900000e+000  8.000000e+000
      vertex  2.731265e-001  1.373099e+000  0.000000e+000
      vertex  3.999910e-008  1.400000e+000  0.000000e+000
    endloop
  endfacet
  facet normal -9.782808e-002  9.932652e-001 -6.207908e-002
    outer loop
      vertex  1.163376e-016  1.900000e+000  8.000000e+000
      vertex  3.999910e-008  1.400000e+000  0.000000e+000
      vertex -3.706716e-001  1.863492e+000  8.000000e+000
    endloop
  endfacet
  facet normal -9.782781e-002  9.932652e-001 -6.207906e-002
    outer loop
      vertex -3.706716e-001  1.863492e+000  8.000000e+000
      vertex  3.999910e-008  1.400000e+000  0.000000e+000
      vertex -2.731264e-001  1.373099e+000  0.000000e+000
    endloop
  endfacet
  facet normal -2.897248e-001  9.550946e-001 -6.207906e-002
    outer loop
      vertex -3.706716e-001  1.863492e+000  8.000000e+000
      vertex -2.731264e-001  1.373099e+000  0.000000e+000
      vertex -7.270985e-001  1.755371e+000  8.000000e+000
    endloop
  endfacet
  facet normal -2.897248e-001  9.550946e-001 -6.207907e-002
    outer loop
      vertex -7.270985e-001  1.755371e+000  8.000000e+000
      vertex -2.731264e-001  1.373099e+000  0.000000e+000
      vertex -5.357568e-001  1.293431e+000  0.000000e+000
    endloop
  endfacet
  facet normal -4.704874e-001  8.802202e-001 -6.207907e-002
    outer loop
      vertex -7.270985e-001  1.755371e+000  8.000000e+000
      vertex -5.357568e-001  1.293431e+000  0.000000e+000
      vertex -1.055583e+000  1.579792e+000  8.000000e+000
    endloop
  endfacet
  facet normal -4.704876e-001  8.802202e-001 -6.207908e-002
    outer loop
      vertex -1.055583e+000  1.579792e+000  8.000000e+000
      vertex -5.357568e-001  1.293431e+000  0.000000e+000
      vertex -7.777983e-001  1.164057e+000  0.000000e+000
    endloop
  endfacet
  facet normal -6.331698e-001  7.715195e-001 -6.207908e-002
    outer loop
      vertex -1.055583e+000  1.579792e+000  8.000000e+000
      vertex -7.777983e-001  1.164057e+000  0.000000e+000
      vertex -1.343503e+000  1.343503e+000  8.000000e+000
    endloop
  endfacet
  facet normal -6.331697e-001  7.715195e-001 -6.207908e-002
    outer loop
      vertex -1.343503e+000  1.343503e+000  8.000000e+000
      vertex -7.777983e-001  1.164057e+000  0.000000e+000
      vertex -9.899495e-001  9.899495e-001  0.000000e+000
    endloop
  endfacet
  facet normal -7.715195e-001  6.331698e-001 -6.207908e-002
    outer loop
      vertex -1.343503e+000  1.343503e+000  8.000000e+000
      vertex -9.899495e-001  9.899495e-001  0.000000e+000
      vertex -1.579792e+000  1.055583e+000  8.000000e+000
    endloop
  endfacet
  facet normal -7.715195e-001  6.331695e-001 -6.207908e-002
    outer loop
      vertex -1.579792e+000  1.055583e+000  8.000000e+000
      vertex -9.899495e-001  9.899495e-001  0.000000e+000
      vertex -1.164057e+000  7.777984e-001  0.000000e+000
    endloop
  endfacet
  facet normal -8.802202e-001  4.704874e-001 -6.207909e-002
    outer loop
      vertex -1.579792e+000  1.055583e+000  8.000000e+000
      vertex -1.164057e+000  7.777984e-001  0.000000e+000
      vertex -1.755371e+000  7.270985e-001  8.000000e+000
    endloop
  endfacet
  facet normal -8.802201e-001  4.704876e-001 -6.207908e-002
    outer loop
      vertex -1.755371e+000  7.270985e-001  8.000000e+000
      vertex -1.164057e+000  7.777984e-001  0.000000e+000
      vertex -1.293431e+000  5.357569e-001  0.000000e+000
    endloop
  endfacet
  facet normal -9.550946e-001  2.897248e-001 -6.207908e-002
    outer loop
      vertex -1.755371e+000  7.270985e-001  8.000000e+000
      vertex -1.293431e+000  5.357569e-001  0.000000e+000
      vertex -1.863492e+000  3.706716e-001  8.000000e+000
    endloop
  endfacet
  facet normal -9.550946e-001  2.897248e-001 -6.207908e-002
    outer loop
      vertex -1.863492e+000  3.706716e-001  8.000000e+000
      vertex -1.293431e+000  5.357569e-001  0.000000e+000
      vertex -1.373099e+000  2.731265e-001  0.000000e+000
    endloop
  endfacet
  facet normal -9.932652e-001  9.782808e-002 -6.207908e-002
    outer loop
      vertex -1.863492e+000  3.706716e-001  8.000000e+000
      vertex -1.373099e+000  2.731265e-001  0.000000e+000
      vertex -1.900000e+000  2.326752e-016  8.000000e+000
    endloop
  endfacet
  facet normal -9.932652e-001  9.782825e-002 -6.207908e-002
    outer loop
      vertex -1.900000e+000  2.326752e-016  8.000000e+000
      vertex -1.373099e+000  2.731265e-001  0.000000e+000
      vertex -1.400000e+000  7.999822e-008  0.000000e+000
    endloop
  endfacet
  facet normal -9.932652e-001 -9.782808e-002 -6.207908e-002
    outer loop
      vertex -1.900000e+000  2.326752e-016  8.000000e+000
      vertex -1.400000e+000  7.999822e-008  0.000000e+000
      vertex -1.863492e+000 -3.706716e-001  8.000000e+000
    endloop
  endfacet
  facet normal -9.932652e-001 -9.782777e-002 -6.207906e-002
    outer loop
      vertex -1.863492e+000 -3.706716e-001  8.000000e+000
      vertex -1.400000e+000  7.999822e-008  0.000000e+000
      vertex -1.373099e+000 -2.731265e-001  0.000000e+000
    endloop
  endfacet
  facet normal -9.550946e-001 -2.897248e-001 -6.207906e-002
    outer loop
      vertex -1.863492e+000 -3.706716e-001  8.000000e+000
      vertex -1.373099e+000 -2.731265e-001  0.000000e+000
      vertex -1.755371e+000 -7.270985e-001  8.000000e+000
    endloop
  endfacet
  facet normal -9.550946e-001 -2.897248e-001 -6.207907e-002
    outer loop
      vertex -1.755371e+000 -7.270985e-001  8.000000e+000
      vertex -1.373099e+000 -2.731265e-001  0.000000e+000
      vertex -1.293431e+000 -5.357568e-001  0.000000e+000
    endloop
  endfacet
  facet normal -8.802202e-001 -4.704874e-001 -6.207906e-002
    outer loop
      vertex -1.755371e+000 -7.270985e-001  8.000000e+000
      vertex -1.293431e+000 -5.357568e-001  0.000000e+000
      vertex -1.579792e+000 -1.055583e+000  8.000000e+000
    endloop
  endfacet
  facet normal -8.802201e-001 -4.704876e-001 -6.207908e-002
    outer loop
      vertex -1.579792e+000 -1.055583e+000  8.000000e+000
      vertex -1.293431e+000 -5.357568e-001  0.000000e+000
      vertex -1.164057e+000 -7.777983e-001  0.000000e+000
    endloop
  endfacet
  facet normal -7.715195e-001 -6.331698e-001 -6.207908e-002
    outer loop
      vertex -1.579792e+000 -1.055583e+000  8.000000e+000
      vertex -1.164057e+000 -7.777983e-001  0.000000e+000
      vertex -1.343503e+000 -1.343503e+000  8.000000e+000
    endloop
  endfacet
  facet normal -7.715195e-001 -6.331697e-001 -6.207908e-002
    outer loop
      vertex -1.343503e+000 -1.343503e+000  8.000000e+000
      vertex -1.164057e+000 -7.777983e-001  0.000000e+000
      vertex -9.899495e-001 -9.899495e-001  0.000000e+000
    endloop
  endfacet
  facet normal -6.331698e-001 -7.715195e-001 -6.207908e-002
    outer loop
      vertex -1.343503e+000 -1.343503e+000  8.000000e+000
      vertex -9.899495e-001 -9.899495e-001  0.000000e+000
      vertex -1.055583e+000 -1.579792e+000  8.000000e+000
    endloop
  endfacet
  facet normal -6.331698e-001 -7.715194e-001 -6.207908e-002
    outer loop
      vertex -1.055583e+000 -1.579792e+000  8.000000e+000
      vertex -9.899495e-001 -9.899495e-001  0.000000e+000
      vertex -7.777984e-001 -1.164057e+000  0.000000e+000
    endloop
  endfacet
  facet normal -4.704874e-001 -8.802202e-001 -6.207907e-002
    outer loop
      vertex -1.055583e+000 -1.579792e+000  8.000000e+000
      vertex -7.777984e-001 -1.164057e+000  0.000000e+000
      vertex -7.270985e-001 -1.755371e+000  8.000000e+000
    endloop
  endfacet
  facet normal -4.704876e-001 -8.802202e-001 -6.207907e-002
    outer loop
      vertex -7.270985e-001 -1.755371e+000  8.000000e+000
      vertex -7.777984e-001 -1.164057e+000  0.000000e+000
      vertex -5.357568e-001 -1.293431e+000  0.000000e+000
    endloop
  endfacet
  facet normal -2.897248e-001 -9.550946e-001 -6.207906e-002
    outer loop
      vertex -7.270985e-001 -1.755371e+000  8.000000e+000
      vertex -5.357568e-001 -1.293431e+000  0.000000e+000
      vertex -3.706716e-001 -1.863492e+000  8.000000e+000
    endloop
  endfacet
  facet normal -2.897248e-001 -9.550946e-001 -6.207907e-002
    outer loop
      vertex -3.706716e-001 -1.863492e+000  8.000000e+000
      vertex -5.357568e-001 -1.293431e+000  0.000000e+000
      vertex -2.731265e-001 -1.373099e+000  0.000000e+000
    endloop
  endfacet
  facet normal -9.782809e-002 -9.932653e-001 -6.207907e-002
    outer loop
      vertex -3.706716e-001 -1.863492e+000  8.000000e+000
      vertex -2.731265e-001 -1.373099e+000  0.000000e+000
      vertex  1.338526e-015 -1.900000e+000  8.000000e+000
    endloop
  endfacet
  facet normal -9.782780e-002 -9.932652e-001 -6.207908e-002
    outer loop
      vertex  1.338526e-015 -1.900000e+000  8.000000e+000
      vertex -2.731265e-001 -1.373099e+000  0.000000e+000
      vertex -1.049905e-009 -1.400000e+000  0.000000e+000
    endloop
  endfacet
  facet normal  9.782808e-002 -9.932652e-001 -6.207908e-002
    outer loop
      vertex  1.338526e-015 -1.900000e+000  8.000000e+000
      vertex -1.049905e-009 -1.400000e+000  0.000000e+000
      vertex  3.706716e-001 -1.863492e+000  8.000000e+000
    endloop
  endfacet
  facet normal  9.782780e-002 -9.932652e-001 -6.207906e-002
    outer loop
      vertex  3.706716e-001 -1.863492e+000  8.000000e+000
      vertex -1.049905e-009 -1.400000e+000  0.000000e+000
      vertex  2.731265e-001 -1.373099e+000  0.000000e+000
    endloop
  endfacet
  facet normal  2.897248e-001 -9.550946e-001 -6.207906e-002
    outer loop
      vertex  3.706716e-001 -1.863492e+000  8.000000e+000
      vertex  2.731265e-001 -1.373099e+000  0.000000e+000
      vertex  7.270985e-001 -1.755371e+000  8.000000e+000
    endloop
  endfacet
  facet normal  2.897248e-001 -9.550946e-001 -6.207907e-002
    outer loop
      vertex  7.270985e-001 -1.755371e+000  8.000000e+000
      vertex  2.731265e-001 -1.373099e+000  0.000000e+000
      vertex  5.357568e-001 -1.293431e+000  0.000000e+000
    endloop
  endfacet
  facet normal  4.704874e-001 -8.802202e-001 -6.207906e-002
    outer loop
      vertex  7.270985e-001 -1.755371e+000  8.000000e+000
      vertex  5.357568e-001 -1.293431e+000  0.000000e+000
      vertex  1.055583e+000 -1.579792e+000  8.000000e+000
    endloop
  endfacet
  facet normal  4.704876e-001 -8.802202e-001 -6.207908e-002
    outer loop
      vertex  1.055583e+000 -1.579792e+000  8.000000e+000
      vertex  5.357568e-001 -1.293431e+000  0.000000e+000
      vertex  7.777984e-001 -1.164057e+000  0.000000e+000
    endloop
  endfacet
  facet normal  6.331698e-001 -7.715195e-001 -6.207908e-002
    outer loop
      vertex  1.055583e+000 -1.579792e+000  8.000000e+000
      vertex  7.777984e-001 -1.164057e+000  0.000000e+000
      vertex  1.343503e+000 -1.343503e+000  8.000000e+000
    endloop
  endfacet
  facet normal  6.331699e-001 -7.715192e-001 -6.207908e-002
    outer loop
      vertex  1.343503e+000 -1.343503e+000  8.000000e+000
      vertex  7.777984e-001 -1.164057e+000  0.000000e+000
      vertex  9.899495e-001 -9.899495e-001  0.000000e+000
    endloop
  endfacet
  facet normal  7.715195e-001 -6.331698e-001 -6.207908e-002
    outer loop
      vertex  1.343503e+000 -1.343503e+000  8.000000e+000
      vertex  9.899495e-001 -9.899495e-001  0.000000e+000
      vertex  1.579792e+000 -1.055583e+000  8.000000e+000
    endloop
  endfacet
  facet normal  7.715192e-001 -6.331699e-001 -6.207907e-002
    outer loop
      vertex  1.579792e+000 -1.055583e+000  8.000000e+000
      vertex  9.899495e-001 -9.899495e-001  0.000000e+000
      vertex  1.164057e+000 -7.777984e-001  0.000000e+000
    endloop
  endfacet
  facet normal  8.802202e-001 -4.704874e-001 -6.207907e-002
    outer loop
      vertex  1.579792e+000 -1.055583e+000  8.000000e+000
      vertex  1.164057e+000 -7.777984e-001  0.000000e+000
      vertex  1.755371e+000 -7.270985e-001  8.000000e+000
    endloop
  endfacet
  facet normal  8.802202e-001 -4.704876e-001 -6.207907e-002
    outer loop
      vertex  1.755371e+000 -7.270985e-001  8.000000e+000
      vertex  1.164057e+000 -7.777984e-001  0.000000e+000
      vertex  1.293431e+000 -5.357568e-001  0.000000e+000
    endloop
  endfacet
  facet normal  9.550946e-001 -2.897248e-001 -6.207906e-002
    outer loop
      vertex  1.755371e+000 -7.270985e-001  8.000000e+000
      vertex  1.293431e+000 -5.357568e-001  0.000000e+000
      vertex  1.863492e+000 -3.706716e-001  8.000000e+000
    endloop
  endfacet
  facet normal  9.550946e-001 -2.897248e-001 -6.207907e-002
    outer loop
      vertex  1.863492e+000 -3.706716e-001  8.000000e+000
      vertex  1.293431e+000 -5.357568e-001  0.000000e+000
      vertex  1.373099e+000 -2.731265e-001  0.000000e+000
    endloop
  endfacet
  facet normal  9.932653e-001 -9.782809e-002 -6.207907e-002
    outer loop
      vertex  1.863492e+000 -3.706716e-001  8.000000e+000
      vertex  1.373099e+000 -2.731265e-001  0.000000e+000
      vertex  1.900000e+000 -4.653504e-016  8.000000e+000
    endloop
  endfacet
  facet normal  9.932652e-001 -9.782780e-002 -6.207908e-002
    outer loop
      vertex  1.900000e+000 -4.653504e-016  8.000000e+000
      vertex  1.373099e+000 -2.731265e-001  0.000000e+000
      vertex  1.400000e+000 -1.190454e-017  0.000000e+000
    endloop
  endfacet
  facet normal  0.000000e+000  0.000000e+000  9.999999e-001
    outer loop
      vertex -3.706716e-001  1.863492e+000  5.500000e+001
      vertex  3.706716e-001  1.863492e+000  5.500000e+001
      vertex  1.163376e-016  1.900000e+000  5.500000e+001
    endloop
  endfacet
  facet normal  -0.000000e+000  0.000000e+000  1.000000e+000
    outer loop
      vertex  3.706716e-001  1.863492e+000  5.500000e+001
      vertex -3.706716e-001  1.863492e+000  5.500000e+001
      vertex  7.270985e-001  1.755371e+000  5.500000e+001
    endloop
  endfacet
  facet normal  0.000000e+000  0.000000e+000  1.000000e+000
    outer loop
      vertex  7.270985e-001  1.755371e+000  5.500000e+001
      vertex -3.706716e-001  1.863492e+000  5.500000e+001
      vertex -7.270985e-001  1.755371e+000  5.500000e+001
    endloop
  endfacet
  facet normal  -0.000000e+000  0.000000e+000  1.000000e+000
    outer loop
      vertex  7.270985e-001  1.755371e+000  5.500000e+001
      vertex -7.270985e-001  1.755371e+000  5.500000e+001
      vertex  1.055583e+000  1.579792e+000  5.500000e+001
    endloop
  endfacet
  facet normal  0.000000e+000  0.000000e+000  1.000000e+000
    outer loop
      vertex  1.055583e+000  1.579792e+000  5.500000e+001
      vertex -7.270985e-001  1.755371e+000  5.500000e+001
      vertex -1.055583e+000  1.579792e+000  5.500000e+001
    endloop
  endfacet
  facet normal  -0.000000e+000  0.000000e+000  9.999999e-001
    outer loop
      vertex  1.055583e+000  1.579792e+000  5.500000e+001
      vertex -1.055583e+000  1.579792e+000  5.500000e+001
      vertex  1.343503e+000  1.343503e+000  5.500000e+001
    endloop
  endfacet
  facet normal  0.000000e+000  0.000000e+000  1.000000e+000
    outer loop
      vertex  1.343503e+000  1.343503e+000  5.500000e+001
      vertex -1.055583e+000  1.579792e+000  5.500000e+001
      vertex -1.343503e+000  1.343503e+000  5.500000e+001
    endloop
  endfacet
  facet normal  -0.000000e+000  0.000000e+000  1.000000e+000
    outer loop
      vertex  1.343503e+000  1.343503e+000  5.500000e+001
      vertex -1.343503e+000  1.343503e+000  5.500000e+001
      vertex  1.579792e+000  1.055583e+000  5.500000e+001
    endloop
  endfacet
  facet normal  0.000000e+000  0.000000e+000  1.000000e+000
    outer loop
      vertex  1.579792e+000  1.055583e+000  5.500000e+001
      vertex -1.343503e+000  1.343503e+000  5.500000e+001
      vertex -1.579792e+000  1.055583e+000  5.500000e+001
    endloop
  endfacet
  facet normal  -0.000000e+000  0.000000e+000  1.000000e+000
    outer loop
      vertex  1.579792e+000  1.055583e+000  5.500000e+001
      vertex -1.579792e+000  1.055583e+000  5.500000e+001
      vertex  1.755371e+000  7.270985e-001  5.500000e+001
    endloop
  endfacet
  facet normal  0.000000e+000  0.000000e+000  1.000000e+000
    outer loop
      vertex  1.755371e+000  7.270985e-001  5.500000e+001
      vertex -1.579792e+000  1.055583e+000  5.500000e+001
      vertex -1.755371e+000  7.270985e-001  5.500000e+001
    endloop
  endfacet
  facet normal  -0.000000e+000  0.000000e+000  1.000000e+000
    outer loop
      vertex  1.755371e+000  7.270985e-001  5.500000e+001
      vertex -1.755371e+000  7.270985e-001  5.500000e+001
      vertex  1.863492e+000  3.706716e-001  5.500000e+001
    endloop
  endfacet
  facet normal  0.000000e+000  0.000000e+000  1.000000e+000
    outer loop
      vertex  1.863492e+000  3.706716e-001  5.500000e+001
      vertex -1.755371e+000  7.270985e-001  5.500000e+001
      vertex -1.863492e+000  3.706716e-001  5.500000e+001
    endloop
  endfacet
  facet normal  -0.000000e+000  0.000000e+000  1.000000e+000
    outer loop
      vertex  1.863492e+000  3.706716e-001  5.500000e+001
      vertex -1.863492e+000  3.706716e-001  5.500000e+001
      vertex  1.900000e+000  0.000000e+000  5.500000e+001
    endloop
  endfacet
  facet normal  0.000000e+000  0.000000e+000  1.000000e+000
    outer loop
      vertex  1.900000e+000  0.000000e+000  5.500000e+001
      vertex -1.863492e+000  3.706716e-001  5.500000e+001
      vertex -1.900000e+000  2.326752e-016  5.500000e+001
    endloop
  endfacet
  facet normal  0.000000e+000  0.000000e+000  1.000000e+000
    outer loop
      vertex  1.900000e+000  0.000000e+000  5.500000e+001
      vertex -1.900000e+000  2.326752e-016  5.500000e+001
      vertex  1.863492e+000 -3.706716e-001  5.500000e+001
    endloop
  endfacet
  facet normal  0.000000e+000  0.000000e+000  1.000000e+000
    outer loop
      vertex  1.863492e+000 -3.706716e-001  5.500000e+001
      vertex -1.900000e+000  2.326752e-016  5.500000e+001
      vertex -1.863492e+000 -3.706716e-001  5.500000e+001
    endloop
  endfacet
  facet normal  -0.000000e+000  0.000000e+000  1.000000e+000
    outer loop
      vertex  1.863492e+000 -3.706716e-001  5.500000e+001
      vertex -1.863492e+000 -3.706716e-001  5.500000e+001
      vertex  1.755371e+000 -7.270985e-001  5.500000e+001
    endloop
  endfacet
  facet normal  0.000000e+000  0.000000e+000  1.000000e+000
    outer loop
      vertex  1.755371e+000 -7.270985e-001  5.500000e+001
      vertex -1.863492e+000 -3.706716e-001  5.500000e+001
      vertex -1.755371e+000 -7.270985e-001  5.500000e+001
    endloop
  endfacet
  facet normal  -0.000000e+000  0.000000e+000  1.000000e+000
    outer loop
      vertex  1.755371e+000 -7.270985e-001  5.500000e+001
      vertex -1.755371e+000 -7.270985e-001  5.500000e+001
      vertex  1.579792e+000 -1.055583e+000  5.500000e+001
    endloop
  endfacet
  facet normal  0.000000e+000  0.000000e+000  1.000000e+000
    outer loop
      vertex  1.579792e+000 -1.055583e+000  5.500000e+001
      vertex -1.755371e+000 -7.270985e-001  5.500000e+001
      vertex -1.579792e+000 -1.055583e+000  5.500000e+001
    endloop
  endfacet
  facet normal  -0.000000e+000  0.000000e+000  1.000000e+000
    outer loop
      vertex  1.579792e+000 -1.055583e+000  5.500000e+001
      vertex -1.579792e+000 -1.055583e+000  5.500000e+001
      vertex  1.343503e+000 -1.343503e+000  5.500000e+001
    endloop
  endfacet
  facet normal  0.000000e+000  0.000000e+000  1.000000e+000
    outer loop
      vertex  1.343503e+000 -1.343503e+000  5.500000e+001
      vertex -1.579792e+000 -1.055583e+000  5.500000e+001
      vertex -1.343503e+000 -1.343503e+000  5.500000e+001
    endloop
  endfacet
  facet normal  -0.000000e+000  0.000000e+000  1.000000e+000
    outer loop
      vertex  1.343503e+000 -1.343503e+000  5.500000e+001
      vertex -1.343503e+000 -1.343503e+000  5.500000e+001
      vertex  1.055583e+000 -1.579792e+000  5.500000e+001
    endloop
  endfacet
  facet normal  0.000000e+000  0.000000e+000  9.999999e-001
    outer loop
      vertex  1.055583e+000 -1.579792e+000  5.500000e+001
      vertex -1.343503e+000 -1.343503e+000  5.500000e+001
      vertex -1.055583e+000 -1.579792e+000  5.500000e+001
    endloop
  endfacet
  facet normal  -0.000000e+000  0.000000e+000  1.000000e+000
    outer loop
      vertex  1.055583e+000 -1.579792e+000  5.500000e+001
      vertex -1.055583e+000 -1.579792e+000  5.500000e+001
      vertex  7.270985e-001 -1.755371e+000  5.500000e+001
    endloop
  endfacet
  facet normal  0.000000e+000  0.000000e+000  1.000000e+000
    outer loop
      vertex  7.270985e-001 -1.755371e+000  5.500000e+001
      vertex -1.055583e+000 -1.579792e+000  5.500000e+001
      vertex -7.270985e-001 -1.755371e+000  5.500000e+001
    endloop
  endfacet
  facet normal  -0.000000e+000  0.000000e+000  1.000000e+000
    outer loop
      vertex  7.270985e-001 -1.755371e+000  5.500000e+001
      vertex -7.270985e-001 -1.755371e+000  5.500000e+001
      vertex  3.706716e-001 -1.863492e+000  5.500000e+001
    endloop
  endfacet
  facet normal  0.000000e+000  0.000000e+000  1.000000e+000
    outer loop
      vertex  3.706716e-001 -1.863492e+000  5.500000e+001
      vertex -7.270985e-001 -1.755371e+000  5.500000e+001
      vertex -3.706716e-001 -1.863492e+000  5.500000e+001
    endloop
  endfacet
  facet normal  -0.000000e+000  0.000000e+000  9.999999e-001
    outer loop
      vertex  3.706716e-001 -1.863492e+000  5.500000e+001
      vertex -3.706716e-001 -1.863492e+000  5.500000e+001
      vertex  1.338526e-015 -1.900000e+000  5.500000e+001
    endloop
  endfacet
endsolid CATIA STL
