solid CATIA STL
  facet normal -1.000000e+000  0.000000e+000  0.000000e+000
    outer loop
      vertex  2.150000e+001  5.010212e+001  1.800000e+001
      vertex  2.150000e+001  4.800000e+001  7.000000e+000
      vertex  2.150000e+001  4.800000e+001  1.000000e+001
    endloop
  endfacet
  facet normal -1.000000e+000  0.000000e+000  0.000000e+000
    outer loop
      vertex  2.150000e+001  4.014225e+001  2.077196e+001
      vertex  2.150000e+001  4.347503e+001  1.992489e+001
      vertex  2.150000e+001  2.380695e+001  2.000000e+001
    endloop
  endfacet
  facet normal -1.000000e+000  0.000000e+000  0.000000e+000
    outer loop
      vertex  2.150000e+001  1.810636e+001  2.000000e+001
      vertex  2.150000e+001  1.810636e+001  1.000000e+001
      vertex  2.150000e+001  1.008902e+001  1.000000e+001
    endloop
  endfacet
  facet normal -1.000000e+000  0.000000e+000  0.000000e+000
    outer loop
      vertex  2.150000e+001  1.810636e+001  2.000000e+001
      vertex  2.150000e+001  1.008902e+001  1.000000e+001
      vertex  2.150000e+001  6.990991e+000  2.500000e+001
    endloop
  endfacet
  facet normal -1.000000e+000  0.000000e+000  0.000000e+000
    outer loop
      vertex  2.150000e+001  1.810636e+001  2.000000e+001
      vertex  2.150000e+001  6.990991e+000  2.500000e+001
      vertex  2.150000e+001  1.032329e+001  2.490737e+001
    endloop
  endfacet
  facet normal -9.999999e-001  0.000000e+000  0.000000e+000
    outer loop
      vertex  2.150000e+001  1.810636e+001  2.000000e+001
      vertex  2.150000e+001  1.032329e+001  2.490737e+001
      vertex  2.150000e+001  1.364367e+001  2.474332e+001
    endloop
  endfacet
  facet normal -9.999999e-001  0.000000e+000  0.000000e+000
    outer loop
      vertex  2.150000e+001  1.810636e+001  2.000000e+001
      vertex  2.150000e+001  1.364367e+001  2.474332e+001
      vertex  2.150000e+001  1.695215e+001  2.450784e+001
    endloop
  endfacet
  facet normal -1.000000e+000  0.000000e+000  0.000000e+000
    outer loop
      vertex  2.150000e+001  1.810636e+001  2.000000e+001
      vertex  2.150000e+001  1.695215e+001  2.450784e+001
      vertex  2.150000e+001  2.024872e+001  2.420094e+001
    endloop
  endfacet
  facet normal -1.000000e+000  0.000000e+000  -0.000000e+000
    outer loop
      vertex  2.150000e+001  1.810636e+001  2.000000e+001
      vertex  2.150000e+001  2.024872e+001  2.420094e+001
      vertex  2.150000e+001  2.353338e+001  2.382262e+001
    endloop
  endfacet
  facet normal -1.000000e+000  0.000000e+000  -0.000000e+000
    outer loop
      vertex  2.150000e+001  1.810636e+001  2.000000e+001
      vertex  2.150000e+001  2.353338e+001  2.382262e+001
      vertex  2.150000e+001  2.680614e+001  2.337288e+001
    endloop
  endfacet
  facet normal -1.000000e+000  0.000000e+000  -0.000000e+000
    outer loop
      vertex  2.150000e+001  1.810636e+001  2.000000e+001
      vertex  2.150000e+001  2.680614e+001  2.337288e+001
      vertex  2.150000e+001  3.006699e+001  2.285171e+001
    endloop
  endfacet
  facet normal -1.000000e+000  0.000000e+000  -0.000000e+000
    outer loop
      vertex  2.150000e+001  1.810636e+001  2.000000e+001
      vertex  2.150000e+001  3.006699e+001  2.285171e+001
      vertex  2.150000e+001  3.343823e+001  2.223537e+001
    endloop
  endfacet
  facet normal -1.000000e+000  0.000000e+000  -0.000000e+000
    outer loop
      vertex  2.150000e+001  1.810636e+001  2.000000e+001
      vertex  2.150000e+001  3.343823e+001  2.223537e+001
      vertex  2.150000e+001  3.679665e+001  2.154212e+001
    endloop
  endfacet
  facet normal -9.999999e-001  0.000000e+000  -0.000000e+000
    outer loop
      vertex  2.150000e+001  1.810636e+001  2.000000e+001
      vertex  2.150000e+001  3.679665e+001  2.154212e+001
      vertex  2.150000e+001  4.014225e+001  2.077196e+001
    endloop
  endfacet
  facet normal -1.000000e+000  0.000000e+000  0.000000e+000
    outer loop
      vertex  2.150000e+001  1.810636e+001  2.000000e+001
      vertex  2.150000e+001  4.014225e+001  2.077196e+001
      vertex  2.150000e+001  2.380695e+001  2.000000e+001
    endloop
  endfacet
  facet normal -9.999999e-001  0.000000e+000  0.000000e+000
    outer loop
      vertex  2.150000e+001  2.380695e+001  1.000000e+001
      vertex  2.150000e+001  2.380695e+001  2.000000e+001
      vertex  2.150000e+001  4.347503e+001  1.992489e+001
    endloop
  endfacet
  facet normal -1.000000e+000  0.000000e+000  -0.000000e+000
    outer loop
      vertex  2.150000e+001  2.380695e+001  1.000000e+001
      vertex  2.150000e+001  4.347503e+001  1.992489e+001
      vertex  2.150000e+001  4.679498e+001  1.900090e+001
    endloop
  endfacet
  facet normal -1.000000e+000  0.000000e+000  -0.000000e+000
    outer loop
      vertex  2.150000e+001  2.380695e+001  1.000000e+001
      vertex  2.150000e+001  4.679498e+001  1.900090e+001
      vertex  2.150000e+001  5.010212e+001  1.800000e+001
    endloop
  endfacet
  facet normal -1.000000e+000  0.000000e+000  0.000000e+000
    outer loop
      vertex  2.150000e+001  2.380695e+001  1.000000e+001
      vertex  2.150000e+001  5.010212e+001  1.800000e+001
      vertex  2.150000e+001  4.800000e+001  1.000000e+001
    endloop
  endfacet
  facet normal  1.000000e+000  0.000000e+000  0.000000e+000
    outer loop
      vertex  3.350000e+001  4.800000e+001  1.000000e+001
      vertex  3.350000e+001  4.800000e+001  7.000000e+000
      vertex  3.350000e+001  5.010212e+001  1.800000e+001
    endloop
  endfacet
  facet normal  1.000000e+000  0.000000e+000  0.000000e+000
    outer loop
      vertex  3.350000e+001  2.380695e+001  2.000000e+001
      vertex  3.350000e+001  4.347503e+001  1.992489e+001
      vertex  3.350000e+001  4.014225e+001  2.077196e+001
    endloop
  endfacet
  facet normal  1.000000e+000  0.000000e+000  -0.000000e+000
    outer loop
      vertex  3.350000e+001  1.810636e+001  2.000000e+001
      vertex  3.350000e+001  2.380695e+001  2.000000e+001
      vertex  3.350000e+001  4.014225e+001  2.077196e+001
    endloop
  endfacet
  facet normal  9.999999e-001  0.000000e+000  0.000000e+000
    outer loop
      vertex  3.350000e+001  1.810636e+001  2.000000e+001
      vertex  3.350000e+001  4.014225e+001  2.077196e+001
      vertex  3.350000e+001  3.679665e+001  2.154212e+001
    endloop
  endfacet
  facet normal  1.000000e+000  0.000000e+000  0.000000e+000
    outer loop
      vertex  3.350000e+001  1.810636e+001  2.000000e+001
      vertex  3.350000e+001  3.679665e+001  2.154212e+001
      vertex  3.350000e+001  3.343823e+001  2.223537e+001
    endloop
  endfacet
  facet normal  1.000000e+000  0.000000e+000  0.000000e+000
    outer loop
      vertex  3.350000e+001  1.810636e+001  2.000000e+001
      vertex  3.350000e+001  3.343823e+001  2.223537e+001
      vertex  3.350000e+001  3.006699e+001  2.285171e+001
    endloop
  endfacet
  facet normal  1.000000e+000  0.000000e+000  0.000000e+000
    outer loop
      vertex  3.350000e+001  1.810636e+001  2.000000e+001
      vertex  3.350000e+001  3.006699e+001  2.285171e+001
      vertex  3.350000e+001  2.680614e+001  2.337288e+001
    endloop
  endfacet
  facet normal  1.000000e+000  0.000000e+000  0.000000e+000
    outer loop
      vertex  3.350000e+001  1.810636e+001  2.000000e+001
      vertex  3.350000e+001  2.680614e+001  2.337288e+001
      vertex  3.350000e+001  2.353338e+001  2.382262e+001
    endloop
  endfacet
  facet normal  1.000000e+000  0.000000e+000  0.000000e+000
    outer loop
      vertex  3.350000e+001  1.810636e+001  2.000000e+001
      vertex  3.350000e+001  2.353338e+001  2.382262e+001
      vertex  3.350000e+001  2.024872e+001  2.420094e+001
    endloop
  endfacet
  facet normal  1.000000e+000  0.000000e+000  0.000000e+000
    outer loop
      vertex  3.350000e+001  1.810636e+001  2.000000e+001
      vertex  3.350000e+001  2.024872e+001  2.420094e+001
      vertex  3.350000e+001  1.695215e+001  2.450784e+001
    endloop
  endfacet
  facet normal  9.999999e-001  0.000000e+000  0.000000e+000
    outer loop
      vertex  3.350000e+001  1.810636e+001  2.000000e+001
      vertex  3.350000e+001  1.695215e+001  2.450784e+001
      vertex  3.350000e+001  1.364367e+001  2.474332e+001
    endloop
  endfacet
  facet normal  9.999999e-001  0.000000e+000  0.000000e+000
    outer loop
      vertex  3.350000e+001  1.810636e+001  2.000000e+001
      vertex  3.350000e+001  1.364367e+001  2.474332e+001
      vertex  3.350000e+001  1.032329e+001  2.490737e+001
    endloop
  endfacet
  facet normal  1.000000e+000  0.000000e+000  0.000000e+000
    outer loop
      vertex  3.350000e+001  1.810636e+001  2.000000e+001
      vertex  3.350000e+001  1.032329e+001  2.490737e+001
      vertex  3.350000e+001  6.990991e+000  2.500000e+001
    endloop
  endfacet
  facet normal  1.000000e+000  0.000000e+000  0.000000e+000
    outer loop
      vertex  3.350000e+001  1.810636e+001  2.000000e+001
      vertex  3.350000e+001  6.990991e+000  2.500000e+001
      vertex  3.350000e+001  1.008902e+001  1.000000e+001
    endloop
  endfacet
  facet normal  1.000000e+000  0.000000e+000  0.000000e+000
    outer loop
      vertex  3.350000e+001  1.810636e+001  2.000000e+001
      vertex  3.350000e+001  1.008902e+001  1.000000e+001
      vertex  3.350000e+001  1.810636e+001  1.000000e+001
    endloop
  endfacet
  facet normal  1.000000e+000  0.000000e+000  -0.000000e+000
    outer loop
      vertex  3.350000e+001  2.380695e+001  1.000000e+001
      vertex  3.350000e+001  4.800000e+001  1.000000e+001
      vertex  3.350000e+001  5.010212e+001  1.800000e+001
    endloop
  endfacet
  facet normal  1.000000e+000  0.000000e+000  0.000000e+000
    outer loop
      vertex  3.350000e+001  2.380695e+001  1.000000e+001
      vertex  3.350000e+001  5.010212e+001  1.800000e+001
      vertex  3.350000e+001  4.679498e+001  1.900090e+001
    endloop
  endfacet
  facet normal  1.000000e+000  0.000000e+000  0.000000e+000
    outer loop
      vertex  3.350000e+001  2.380695e+001  1.000000e+001
      vertex  3.350000e+001  4.679498e+001  1.900090e+001
      vertex  3.350000e+001  4.347503e+001  1.992489e+001
    endloop
  endfacet
  facet normal  9.999999e-001  0.000000e+000  0.000000e+000
    outer loop
      vertex  3.350000e+001  2.380695e+001  1.000000e+001
      vertex  3.350000e+001  4.347503e+001  1.992489e+001
      vertex  3.350000e+001  2.380695e+001  2.000000e+001
    endloop
  endfacet
  facet normal -1.000000e+000  0.000000e+000  0.000000e+000
    outer loop
      vertex  4.200000e+001  5.010212e+001  1.800000e+001
      vertex  4.200000e+001  4.800000e+001  7.000000e+000
      vertex  4.200000e+001  4.800000e+001  1.000000e+001
    endloop
  endfacet
  facet normal -1.000000e+000  0.000000e+000  0.000000e+000
    outer loop
      vertex  4.200000e+001  4.014225e+001  2.077196e+001
      vertex  4.200000e+001  4.347503e+001  1.992489e+001
      vertex  4.200000e+001  2.380695e+001  2.000000e+001
    endloop
  endfacet
  facet normal -1.000000e+000  0.000000e+000  0.000000e+000
    outer loop
      vertex  4.200000e+001  1.810636e+001  2.000000e+001
      vertex  4.200000e+001  1.810636e+001  1.000000e+001
      vertex  4.200000e+001  1.008902e+001  1.000000e+001
    endloop
  endfacet
  facet normal -1.000000e+000  0.000000e+000  0.000000e+000
    outer loop
      vertex  4.200000e+001  1.810636e+001  2.000000e+001
      vertex  4.200000e+001  1.008902e+001  1.000000e+001
      vertex  4.200000e+001  6.990991e+000  2.500000e+001
    endloop
  endfacet
  facet normal -1.000000e+000  0.000000e+000  0.000000e+000
    outer loop
      vertex  4.200000e+001  1.810636e+001  2.000000e+001
      vertex  4.200000e+001  6.990991e+000  2.500000e+001
      vertex  4.200000e+001  1.032329e+001  2.490737e+001
    endloop
  endfacet
  facet normal -9.999999e-001  0.000000e+000  0.000000e+000
    outer loop
      vertex  4.200000e+001  1.810636e+001  2.000000e+001
      vertex  4.200000e+001  1.032329e+001  2.490737e+001
      vertex  4.200000e+001  1.364367e+001  2.474332e+001
    endloop
  endfacet
  facet normal -9.999999e-001  0.000000e+000  0.000000e+000
    outer loop
      vertex  4.200000e+001  1.810636e+001  2.000000e+001
      vertex  4.200000e+001  1.364367e+001  2.474332e+001
      vertex  4.200000e+001  1.695215e+001  2.450784e+001
    endloop
  endfacet
  facet normal -1.000000e+000  0.000000e+000  0.000000e+000
    outer loop
      vertex  4.200000e+001  1.810636e+001  2.000000e+001
      vertex  4.200000e+001  1.695215e+001  2.450784e+001
      vertex  4.200000e+001  2.024872e+001  2.420094e+001
    endloop
  endfacet
  facet normal -1.000000e+000  0.000000e+000  -0.000000e+000
    outer loop
      vertex  4.200000e+001  1.810636e+001  2.000000e+001
      vertex  4.200000e+001  2.024872e+001  2.420094e+001
      vertex  4.200000e+001  2.353338e+001  2.382262e+001
    endloop
  endfacet
  facet normal -1.000000e+000  0.000000e+000  -0.000000e+000
    outer loop
      vertex  4.200000e+001  1.810636e+001  2.000000e+001
      vertex  4.200000e+001  2.353338e+001  2.382262e+001
      vertex  4.200000e+001  2.680614e+001  2.337288e+001
    endloop
  endfacet
  facet normal -1.000000e+000  0.000000e+000  -0.000000e+000
    outer loop
      vertex  4.200000e+001  1.810636e+001  2.000000e+001
      vertex  4.200000e+001  2.680614e+001  2.337288e+001
      vertex  4.200000e+001  3.006699e+001  2.285171e+001
    endloop
  endfacet
  facet normal -1.000000e+000  0.000000e+000  -0.000000e+000
    outer loop
      vertex  4.200000e+001  1.810636e+001  2.000000e+001
      vertex  4.200000e+001  3.006699e+001  2.285171e+001
      vertex  4.200000e+001  3.343823e+001  2.223537e+001
    endloop
  endfacet
  facet normal -1.000000e+000  0.000000e+000  -0.000000e+000
    outer loop
      vertex  4.200000e+001  1.810636e+001  2.000000e+001
      vertex  4.200000e+001  3.343823e+001  2.223537e+001
      vertex  4.200000e+001  3.679665e+001  2.154212e+001
    endloop
  endfacet
  facet normal -9.999999e-001  0.000000e+000  -0.000000e+000
    outer loop
      vertex  4.200000e+001  1.810636e+001  2.000000e+001
      vertex  4.200000e+001  3.679665e+001  2.154212e+001
      vertex  4.200000e+001  4.014225e+001  2.077196e+001
    endloop
  endfacet
  facet normal -1.000000e+000  0.000000e+000  0.000000e+000
    outer loop
      vertex  4.200000e+001  1.810636e+001  2.000000e+001
      vertex  4.200000e+001  4.014225e+001  2.077196e+001
      vertex  4.200000e+001  2.380695e+001  2.000000e+001
    endloop
  endfacet
  facet normal -9.999999e-001  0.000000e+000  0.000000e+000
    outer loop
      vertex  4.200000e+001  2.380695e+001  1.000000e+001
      vertex  4.200000e+001  2.380695e+001  2.000000e+001
      vertex  4.200000e+001  4.347503e+001  1.992489e+001
    endloop
  endfacet
  facet normal -1.000000e+000  0.000000e+000  -0.000000e+000
    outer loop
      vertex  4.200000e+001  2.380695e+001  1.000000e+001
      vertex  4.200000e+001  4.347503e+001  1.992489e+001
      vertex  4.200000e+001  4.679498e+001  1.900090e+001
    endloop
  endfacet
  facet normal -1.000000e+000  0.000000e+000  -0.000000e+000
    outer loop
      vertex  4.200000e+001  2.380695e+001  1.000000e+001
      vertex  4.200000e+001  4.679498e+001  1.900090e+001
      vertex  4.200000e+001  5.010212e+001  1.800000e+001
    endloop
  endfacet
  facet normal -1.000000e+000  0.000000e+000  0.000000e+000
    outer loop
      vertex  4.200000e+001  2.380695e+001  1.000000e+001
      vertex  4.200000e+001  5.010212e+001  1.800000e+001
      vertex  4.200000e+001  4.800000e+001  1.000000e+001
    endloop
  endfacet
  facet normal  1.000000e+000  0.000000e+000  0.000000e+000
    outer loop
      vertex  1.300000e+001  4.800000e+001  1.000000e+001
      vertex  1.300000e+001  4.800000e+001  7.000000e+000
      vertex  1.300000e+001  5.010212e+001  1.800000e+001
    endloop
  endfacet
  facet normal  1.000000e+000  0.000000e+000  0.000000e+000
    outer loop
      vertex  1.300000e+001  2.380695e+001  2.000000e+001
      vertex  1.300000e+001  4.347503e+001  1.992489e+001
      vertex  1.300000e+001  4.014225e+001  2.077196e+001
    endloop
  endfacet
  facet normal  1.000000e+000  0.000000e+000  -0.000000e+000
    outer loop
      vertex  1.300000e+001  1.810636e+001  2.000000e+001
      vertex  1.300000e+001  2.380695e+001  2.000000e+001
      vertex  1.300000e+001  4.014225e+001  2.077196e+001
    endloop
  endfacet
  facet normal  9.999999e-001  0.000000e+000  0.000000e+000
    outer loop
      vertex  1.300000e+001  1.810636e+001  2.000000e+001
      vertex  1.300000e+001  4.014225e+001  2.077196e+001
      vertex  1.300000e+001  3.679665e+001  2.154212e+001
    endloop
  endfacet
  facet normal  1.000000e+000  0.000000e+000  0.000000e+000
    outer loop
      vertex  1.300000e+001  1.810636e+001  2.000000e+001
      vertex  1.300000e+001  3.679665e+001  2.154212e+001
      vertex  1.300000e+001  3.343823e+001  2.223537e+001
    endloop
  endfacet
  facet normal  1.000000e+000  0.000000e+000  0.000000e+000
    outer loop
      vertex  1.300000e+001  1.810636e+001  2.000000e+001
      vertex  1.300000e+001  3.343823e+001  2.223537e+001
      vertex  1.300000e+001  3.006699e+001  2.285171e+001
    endloop
  endfacet
  facet normal  1.000000e+000  0.000000e+000  0.000000e+000
    outer loop
      vertex  1.300000e+001  1.810636e+001  2.000000e+001
      vertex  1.300000e+001  3.006699e+001  2.285171e+001
      vertex  1.300000e+001  2.680614e+001  2.337288e+001
    endloop
  endfacet
  facet normal  1.000000e+000  0.000000e+000  0.000000e+000
    outer loop
      vertex  1.300000e+001  1.810636e+001  2.000000e+001
      vertex  1.300000e+001  2.680614e+001  2.337288e+001
      vertex  1.300000e+001  2.353338e+001  2.382262e+001
    endloop
  endfacet
  facet normal  1.000000e+000  0.000000e+000  0.000000e+000
    outer loop
      vertex  1.300000e+001  1.810636e+001  2.000000e+001
      vertex  1.300000e+001  2.353338e+001  2.382262e+001
      vertex  1.300000e+001  2.024872e+001  2.420094e+001
    endloop
  endfacet
  facet normal  1.000000e+000  0.000000e+000  0.000000e+000
    outer loop
      vertex  1.300000e+001  1.810636e+001  2.000000e+001
      vertex  1.300000e+001  2.024872e+001  2.420094e+001
      vertex  1.300000e+001  1.695215e+001  2.450784e+001
    endloop
  endfacet
  facet normal  9.999999e-001  0.000000e+000  0.000000e+000
    outer loop
      vertex  1.300000e+001  1.810636e+001  2.000000e+001
      vertex  1.300000e+001  1.695215e+001  2.450784e+001
      vertex  1.300000e+001  1.364367e+001  2.474332e+001
    endloop
  endfacet
  facet normal  9.999999e-001  0.000000e+000  0.000000e+000
    outer loop
      vertex  1.300000e+001  1.810636e+001  2.000000e+001
      vertex  1.300000e+001  1.364367e+001  2.474332e+001
      vertex  1.300000e+001  1.032329e+001  2.490737e+001
    endloop
  endfacet
  facet normal  1.000000e+000  0.000000e+000  0.000000e+000
    outer loop
      vertex  1.300000e+001  1.810636e+001  2.000000e+001
      vertex  1.300000e+001  1.032329e+001  2.490737e+001
      vertex  1.300000e+001  6.990991e+000  2.500000e+001
    endloop
  endfacet
  facet normal  1.000000e+000  0.000000e+000  0.000000e+000
    outer loop
      vertex  1.300000e+001  1.810636e+001  2.000000e+001
      vertex  1.300000e+001  6.990991e+000  2.500000e+001
      vertex  1.300000e+001  1.008902e+001  1.000000e+001
    endloop
  endfacet
  facet normal  1.000000e+000  0.000000e+000  0.000000e+000
    outer loop
      vertex  1.300000e+001  1.810636e+001  2.000000e+001
      vertex  1.300000e+001  1.008902e+001  1.000000e+001
      vertex  1.300000e+001  1.810636e+001  1.000000e+001
    endloop
  endfacet
  facet normal  1.000000e+000  0.000000e+000  -0.000000e+000
    outer loop
      vertex  1.300000e+001  2.380695e+001  1.000000e+001
      vertex  1.300000e+001  4.800000e+001  1.000000e+001
      vertex  1.300000e+001  5.010212e+001  1.800000e+001
    endloop
  endfacet
  facet normal  1.000000e+000  0.000000e+000  0.000000e+000
    outer loop
      vertex  1.300000e+001  2.380695e+001  1.000000e+001
      vertex  1.300000e+001  5.010212e+001  1.800000e+001
      vertex  1.300000e+001  4.679498e+001  1.900090e+001
    endloop
  endfacet
  facet normal  1.000000e+000  0.000000e+000  0.000000e+000
    outer loop
      vertex  1.300000e+001  2.380695e+001  1.000000e+001
      vertex  1.300000e+001  4.679498e+001  1.900090e+001
      vertex  1.300000e+001  4.347503e+001  1.992489e+001
    endloop
  endfacet
  facet normal  9.999999e-001  0.000000e+000  0.000000e+000
    outer loop
      vertex  1.300000e+001  2.380695e+001  1.000000e+001
      vertex  1.300000e+001  4.347503e+001  1.992489e+001
      vertex  1.300000e+001  2.380695e+001  2.000000e+001
    endloop
  endfacet
  facet normal  0.000000e+000  0.000000e+000  1.000000e+000
    outer loop
      vertex  1.300000e+001  2.380695e+001  1.000000e+001
      vertex  2.150000e+001  2.380695e+001  1.000000e+001
      vertex  1.300000e+001  4.800000e+001  1.000000e+001
    endloop
  endfacet
  facet normal  -0.000000e+000  0.000000e+000  1.000000e+000
    outer loop
      vertex  1.300000e+001  4.800000e+001  1.000000e+001
      vertex  2.150000e+001  2.380695e+001  1.000000e+001
      vertex  2.150000e+001  4.800000e+001  1.000000e+001
    endloop
  endfacet
  facet normal  0.000000e+000  0.000000e+000  1.000000e+000
    outer loop
      vertex  3.350000e+001  2.380695e+001  1.000000e+001
      vertex  4.200000e+001  2.380695e+001  1.000000e+001
      vertex  3.350000e+001  4.800000e+001  1.000000e+001
    endloop
  endfacet
  facet normal  -0.000000e+000  0.000000e+000  1.000000e+000
    outer loop
      vertex  3.350000e+001  4.800000e+001  1.000000e+001
      vertex  4.200000e+001  2.380695e+001  1.000000e+001
      vertex  4.200000e+001  4.800000e+001  1.000000e+001
    endloop
  endfacet
  facet normal  0.000000e+000  0.000000e+000  1.000000e+000
    outer loop
      vertex  0.000000e+000  0.000000e+000  1.000000e+001
      vertex  5.500000e+001  0.000000e+000  1.000000e+001
      vertex  5.400000e+001  1.008902e+001  1.000000e+001
    endloop
  endfacet
  facet normal  0.000000e+000  0.000000e+000  1.000000e+000
    outer loop
      vertex  0.000000e+000  0.000000e+000  1.000000e+001
      vertex  5.400000e+001  1.008902e+001  1.000000e+001
      vertex  4.200000e+001  1.008902e+001  1.000000e+001
    endloop
  endfacet
  facet normal  0.000000e+000  0.000000e+000  1.000000e+000
    outer loop
      vertex  0.000000e+000  0.000000e+000  1.000000e+001
      vertex  4.200000e+001  1.008902e+001  1.000000e+001
      vertex  3.350000e+001  1.008902e+001  1.000000e+001
    endloop
  endfacet
  facet normal  0.000000e+000  0.000000e+000  1.000000e+000
    outer loop
      vertex  0.000000e+000  0.000000e+000  1.000000e+001
      vertex  3.350000e+001  1.008902e+001  1.000000e+001
      vertex  2.150000e+001  1.008902e+001  1.000000e+001
    endloop
  endfacet
  facet normal  0.000000e+000  0.000000e+000  1.000000e+000
    outer loop
      vertex  0.000000e+000  0.000000e+000  1.000000e+001
      vertex  2.150000e+001  1.008902e+001  1.000000e+001
      vertex  1.300000e+001  1.008902e+001  1.000000e+001
    endloop
  endfacet
  facet normal  0.000000e+000  0.000000e+000  1.000000e+000
    outer loop
      vertex  0.000000e+000  0.000000e+000  1.000000e+001
      vertex  1.300000e+001  1.008902e+001  1.000000e+001
      vertex  1.000000e+000  1.008902e+001  1.000000e+001
    endloop
  endfacet
  facet normal  0.000000e+000  -0.000000e+000  1.000000e+000
    outer loop
      vertex  0.000000e+000  0.000000e+000  1.000000e+001
      vertex  1.000000e+000  1.008902e+001  1.000000e+001
      vertex  1.000000e+000  4.800000e+001  1.000000e+001
    endloop
  endfacet
  facet normal  0.000000e+000  0.000000e+000  1.000000e+000
    outer loop
      vertex  0.000000e+000  0.000000e+000  1.000000e+001
      vertex  1.000000e+000  4.800000e+001  1.000000e+001
      vertex  1.421085e-014  4.800000e+001  1.000000e+001
    endloop
  endfacet
  facet normal  0.000000e+000  0.000000e+000  1.000000e+000
    outer loop
      vertex  5.400000e+001  1.008902e+001  1.000000e+001
      vertex  5.500000e+001  0.000000e+000  1.000000e+001
      vertex  5.400000e+001  4.800000e+001  1.000000e+001
    endloop
  endfacet
  facet normal  -0.000000e+000  0.000000e+000  1.000000e+000
    outer loop
      vertex  5.400000e+001  4.800000e+001  1.000000e+001
      vertex  5.500000e+001  0.000000e+000  1.000000e+001
      vertex  5.500000e+001  4.800000e+001  1.000000e+001
    endloop
  endfacet
  facet normal  0.000000e+000  0.000000e+000  1.000000e+000
    outer loop
      vertex  1.300000e+001  1.008902e+001  1.000000e+001
      vertex  2.150000e+001  1.008902e+001  1.000000e+001
      vertex  1.300000e+001  1.810636e+001  1.000000e+001
    endloop
  endfacet
  facet normal  -0.000000e+000  0.000000e+000  1.000000e+000
    outer loop
      vertex  1.300000e+001  1.810636e+001  1.000000e+001
      vertex  2.150000e+001  1.008902e+001  1.000000e+001
      vertex  2.150000e+001  1.810636e+001  1.000000e+001
    endloop
  endfacet
  facet normal  0.000000e+000  0.000000e+000  1.000000e+000
    outer loop
      vertex  3.350000e+001  1.008902e+001  1.000000e+001
      vertex  4.200000e+001  1.008902e+001  1.000000e+001
      vertex  3.350000e+001  1.810636e+001  1.000000e+001
    endloop
  endfacet
  facet normal  -0.000000e+000  0.000000e+000  1.000000e+000
    outer loop
      vertex  3.350000e+001  1.810636e+001  1.000000e+001
      vertex  4.200000e+001  1.008902e+001  1.000000e+001
      vertex  4.200000e+001  1.810636e+001  1.000000e+001
    endloop
  endfacet
  facet normal  0.000000e+000 -1.000000e+000  0.000000e+000
    outer loop
      vertex  3.350000e+001  1.810636e+001  2.000000e+001
      vertex  3.350000e+001  1.810636e+001  1.000000e+001
      vertex  4.200000e+001  1.810636e+001  2.000000e+001
    endloop
  endfacet
  facet normal  0.000000e+000 -1.000000e+000  -0.000000e+000
    outer loop
      vertex  4.200000e+001  1.810636e+001  2.000000e+001
      vertex  3.350000e+001  1.810636e+001  1.000000e+001
      vertex  4.200000e+001  1.810636e+001  1.000000e+001
    endloop
  endfacet
  facet normal  0.000000e+000 -1.000000e+000  0.000000e+000
    outer loop
      vertex  1.300000e+001  1.810636e+001  2.000000e+001
      vertex  1.300000e+001  1.810636e+001  1.000000e+001
      vertex  2.150000e+001  1.810636e+001  2.000000e+001
    endloop
  endfacet
  facet normal  0.000000e+000 -1.000000e+000  -0.000000e+000
    outer loop
      vertex  2.150000e+001  1.810636e+001  2.000000e+001
      vertex  1.300000e+001  1.810636e+001  1.000000e+001
      vertex  2.150000e+001  1.810636e+001  1.000000e+001
    endloop
  endfacet
  facet normal  0.000000e+000  1.000000e+000  -0.000000e+000
    outer loop
      vertex  2.150000e+001  2.380695e+001  2.000000e+001
      vertex  2.150000e+001  2.380695e+001  1.000000e+001
      vertex  1.300000e+001  2.380695e+001  2.000000e+001
    endloop
  endfacet
  facet normal  0.000000e+000  1.000000e+000  0.000000e+000
    outer loop
      vertex  1.300000e+001  2.380695e+001  2.000000e+001
      vertex  2.150000e+001  2.380695e+001  1.000000e+001
      vertex  1.300000e+001  2.380695e+001  1.000000e+001
    endloop
  endfacet
  facet normal  0.000000e+000  1.000000e+000  -0.000000e+000
    outer loop
      vertex  4.200000e+001  2.380695e+001  2.000000e+001
      vertex  4.200000e+001  2.380695e+001  1.000000e+001
      vertex  3.350000e+001  2.380695e+001  2.000000e+001
    endloop
  endfacet
  facet normal  0.000000e+000  1.000000e+000  0.000000e+000
    outer loop
      vertex  3.350000e+001  2.380695e+001  2.000000e+001
      vertex  4.200000e+001  2.380695e+001  1.000000e+001
      vertex  3.350000e+001  2.380695e+001  1.000000e+001
    endloop
  endfacet
  facet normal  0.000000e+000  0.000000e+000  1.000000e+000
    outer loop
      vertex  3.350000e+001  1.810636e+001  2.000000e+001
      vertex  4.200000e+001  1.810636e+001  2.000000e+001
      vertex  3.350000e+001  2.380695e+001  2.000000e+001
    endloop
  endfacet
  facet normal  -0.000000e+000  0.000000e+000  1.000000e+000
    outer loop
      vertex  3.350000e+001  2.380695e+001  2.000000e+001
      vertex  4.200000e+001  1.810636e+001  2.000000e+001
      vertex  4.200000e+001  2.380695e+001  2.000000e+001
    endloop
  endfacet
  facet normal  0.000000e+000  0.000000e+000  1.000000e+000
    outer loop
      vertex  1.300000e+001  1.810636e+001  2.000000e+001
      vertex  2.150000e+001  1.810636e+001  2.000000e+001
      vertex  1.300000e+001  2.380695e+001  2.000000e+001
    endloop
  endfacet
  facet normal  -0.000000e+000  0.000000e+000  1.000000e+000
    outer loop
      vertex  1.300000e+001  2.380695e+001  2.000000e+001
      vertex  2.150000e+001  1.810636e+001  2.000000e+001
      vertex  2.150000e+001  2.380695e+001  2.000000e+001
    endloop
  endfacet
  facet normal  0.000000e+000 -9.793305e-001 -2.022663e-001
    outer loop
      vertex  5.400000e+001  1.008902e+001  1.000000e+001
      vertex  5.400000e+001  6.990991e+000  2.500000e+001
      vertex  4.200000e+001  1.008902e+001  1.000000e+001
    endloop
  endfacet
  facet normal  0.000000e+000 -9.793305e-001 -2.022663e-001
    outer loop
      vertex  4.200000e+001  1.008902e+001  1.000000e+001
      vertex  5.400000e+001  6.990991e+000  2.500000e+001
      vertex  4.200000e+001  6.990991e+000  2.500000e+001
    endloop
  endfacet
  facet normal  1.000000e+000  -0.000000e+000  0.000000e+000
    outer loop
      vertex  5.400000e+001  5.010212e+001  1.800000e+001
      vertex  5.400000e+001  4.800000e+001  1.000000e+001
      vertex  5.400000e+001  4.800000e+001  7.000000e+000
    endloop
  endfacet
  facet normal  1.000000e+000  0.000000e+000  -0.000000e+000
    outer loop
      vertex  5.400000e+001  1.008902e+001  1.000000e+001
      vertex  5.400000e+001  4.800000e+001  1.000000e+001
      vertex  5.400000e+001  5.010212e+001  1.800000e+001
    endloop
  endfacet
  facet normal  1.000000e+000  0.000000e+000  0.000000e+000
    outer loop
      vertex  5.400000e+001  1.008902e+001  1.000000e+001
      vertex  5.400000e+001  5.010212e+001  1.800000e+001
      vertex  5.400000e+001  4.679498e+001  1.900090e+001
    endloop
  endfacet
  facet normal  1.000000e+000  0.000000e+000  0.000000e+000
    outer loop
      vertex  5.400000e+001  1.008902e+001  1.000000e+001
      vertex  5.400000e+001  4.679498e+001  1.900090e+001
      vertex  5.400000e+001  4.347503e+001  1.992489e+001
    endloop
  endfacet
  facet normal  1.000000e+000  0.000000e+000  0.000000e+000
    outer loop
      vertex  5.400000e+001  1.008902e+001  1.000000e+001
      vertex  5.400000e+001  4.347503e+001  1.992489e+001
      vertex  5.400000e+001  4.014225e+001  2.077196e+001
    endloop
  endfacet
  facet normal  1.000000e+000  0.000000e+000  0.000000e+000
    outer loop
      vertex  5.400000e+001  1.008902e+001  1.000000e+001
      vertex  5.400000e+001  4.014225e+001  2.077196e+001
      vertex  5.400000e+001  3.679665e+001  2.154212e+001
    endloop
  endfacet
  facet normal  1.000000e+000  0.000000e+000  0.000000e+000
    outer loop
      vertex  5.400000e+001  1.008902e+001  1.000000e+001
      vertex  5.400000e+001  3.679665e+001  2.154212e+001
      vertex  5.400000e+001  3.343823e+001  2.223537e+001
    endloop
  endfacet
  facet normal  9.999999e-001  0.000000e+000  0.000000e+000
    outer loop
      vertex  5.400000e+001  1.008902e+001  1.000000e+001
      vertex  5.400000e+001  3.343823e+001  2.223537e+001
      vertex  5.400000e+001  3.006699e+001  2.285171e+001
    endloop
  endfacet
  facet normal  9.999999e-001  0.000000e+000  0.000000e+000
    outer loop
      vertex  5.400000e+001  1.008902e+001  1.000000e+001
      vertex  5.400000e+001  3.006699e+001  2.285171e+001
      vertex  5.400000e+001  2.680614e+001  2.337288e+001
    endloop
  endfacet
  facet normal  9.999999e-001  0.000000e+000  0.000000e+000
    outer loop
      vertex  5.400000e+001  1.008902e+001  1.000000e+001
      vertex  5.400000e+001  2.680614e+001  2.337288e+001
      vertex  5.400000e+001  2.353338e+001  2.382262e+001
    endloop
  endfacet
  facet normal  9.999999e-001  0.000000e+000  0.000000e+000
    outer loop
      vertex  5.400000e+001  1.008902e+001  1.000000e+001
      vertex  5.400000e+001  2.353338e+001  2.382262e+001
      vertex  5.400000e+001  2.024872e+001  2.420094e+001
    endloop
  endfacet
  facet normal  1.000000e+000  0.000000e+000  0.000000e+000
    outer loop
      vertex  5.400000e+001  1.008902e+001  1.000000e+001
      vertex  5.400000e+001  2.024872e+001  2.420094e+001
      vertex  5.400000e+001  1.695215e+001  2.450784e+001
    endloop
  endfacet
  facet normal  9.999999e-001  0.000000e+000  0.000000e+000
    outer loop
      vertex  5.400000e+001  1.008902e+001  1.000000e+001
      vertex  5.400000e+001  1.695215e+001  2.450784e+001
      vertex  5.400000e+001  1.364367e+001  2.474332e+001
    endloop
  endfacet
  facet normal  1.000000e+000  0.000000e+000  0.000000e+000
    outer loop
      vertex  5.400000e+001  1.008902e+001  1.000000e+001
      vertex  5.400000e+001  1.364367e+001  2.474332e+001
      vertex  5.400000e+001  1.032329e+001  2.490737e+001
    endloop
  endfacet
  facet normal  9.999999e-001  0.000000e+000  0.000000e+000
    outer loop
      vertex  5.400000e+001  1.008902e+001  1.000000e+001
      vertex  5.400000e+001  1.032329e+001  2.490737e+001
      vertex  5.400000e+001  6.990991e+000  2.500000e+001
    endloop
  endfacet
  facet normal  0.000000e+000 -9.793305e-001 -2.022663e-001
    outer loop
      vertex  3.350000e+001  1.008902e+001  1.000000e+001
      vertex  3.350000e+001  6.990991e+000  2.500000e+001
      vertex  2.150000e+001  1.008902e+001  1.000000e+001
    endloop
  endfacet
  facet normal  0.000000e+000 -9.793305e-001 -2.022663e-001
    outer loop
      vertex  2.150000e+001  1.008902e+001  1.000000e+001
      vertex  3.350000e+001  6.990991e+000  2.500000e+001
      vertex  2.150000e+001  6.990991e+000  2.500000e+001
    endloop
  endfacet
  facet normal  -0.000000e+000  1.000000e+000  0.000000e+000
    outer loop
      vertex  1.421085e-014  4.800000e+001  0.000000e+000
      vertex  1.421085e-014  4.800000e+001  1.000000e+001
      vertex  1.000000e+000  4.800000e+001  1.000000e+001
    endloop
  endfacet
  facet normal  0.000000e+000  1.000000e+000  0.000000e+000
    outer loop
      vertex  1.421085e-014  4.800000e+001  0.000000e+000
      vertex  1.000000e+000  4.800000e+001  1.000000e+001
      vertex  1.000000e+000  4.800000e+001  7.000000e+000
    endloop
  endfacet
  facet normal  -0.000000e+000  1.000000e+000  0.000000e+000
    outer loop
      vertex  1.421085e-014  4.800000e+001  0.000000e+000
      vertex  1.000000e+000  4.800000e+001  7.000000e+000
      vertex  1.300000e+001  4.800000e+001  7.000000e+000
    endloop
  endfacet
  facet normal  -0.000000e+000  1.000000e+000  0.000000e+000
    outer loop
      vertex  1.421085e-014  4.800000e+001  0.000000e+000
      vertex  1.300000e+001  4.800000e+001  7.000000e+000
      vertex  2.150000e+001  4.800000e+001  7.000000e+000
    endloop
  endfacet
  facet normal  -0.000000e+000  1.000000e+000  0.000000e+000
    outer loop
      vertex  1.421085e-014  4.800000e+001  0.000000e+000
      vertex  2.150000e+001  4.800000e+001  7.000000e+000
      vertex  3.350000e+001  4.800000e+001  7.000000e+000
    endloop
  endfacet
  facet normal  -0.000000e+000  1.000000e+000  0.000000e+000
    outer loop
      vertex  1.421085e-014  4.800000e+001  0.000000e+000
      vertex  3.350000e+001  4.800000e+001  7.000000e+000
      vertex  4.200000e+001  4.800000e+001  7.000000e+000
    endloop
  endfacet
  facet normal  -0.000000e+000  1.000000e+000  0.000000e+000
    outer loop
      vertex  1.421085e-014  4.800000e+001  0.000000e+000
      vertex  4.200000e+001  4.800000e+001  7.000000e+000
      vertex  5.400000e+001  4.800000e+001  7.000000e+000
    endloop
  endfacet
  facet normal  0.000000e+000  1.000000e+000  0.000000e+000
    outer loop
      vertex  1.421085e-014  4.800000e+001  0.000000e+000
      vertex  5.400000e+001  4.800000e+001  7.000000e+000
      vertex  5.500000e+001  4.800000e+001  0.000000e+000
    endloop
  endfacet
  facet normal  0.000000e+000  1.000000e+000  0.000000e+000
    outer loop
      vertex  3.350000e+001  4.800000e+001  1.000000e+001
      vertex  4.200000e+001  4.800000e+001  1.000000e+001
      vertex  3.350000e+001  4.800000e+001  7.000000e+000
    endloop
  endfacet
  facet normal  0.000000e+000  1.000000e+000  0.000000e+000
    outer loop
      vertex  3.350000e+001  4.800000e+001  7.000000e+000
      vertex  4.200000e+001  4.800000e+001  1.000000e+001
      vertex  4.200000e+001  4.800000e+001  7.000000e+000
    endloop
  endfacet
  facet normal  0.000000e+000  1.000000e+000  0.000000e+000
    outer loop
      vertex  1.300000e+001  4.800000e+001  1.000000e+001
      vertex  2.150000e+001  4.800000e+001  1.000000e+001
      vertex  1.300000e+001  4.800000e+001  7.000000e+000
    endloop
  endfacet
  facet normal  0.000000e+000  1.000000e+000  0.000000e+000
    outer loop
      vertex  1.300000e+001  4.800000e+001  7.000000e+000
      vertex  2.150000e+001  4.800000e+001  1.000000e+001
      vertex  2.150000e+001  4.800000e+001  7.000000e+000
    endloop
  endfacet
  facet normal  0.000000e+000  1.000000e+000  -0.000000e+000
    outer loop
      vertex  5.500000e+001  4.800000e+001  1.000000e+001
      vertex  5.500000e+001  4.800000e+001  0.000000e+000
      vertex  5.400000e+001  4.800000e+001  1.000000e+001
    endloop
  endfacet
  facet normal  0.000000e+000  1.000000e+000  0.000000e+000
    outer loop
      vertex  5.400000e+001  4.800000e+001  1.000000e+001
      vertex  5.500000e+001  4.800000e+001  0.000000e+000
      vertex  5.400000e+001  4.800000e+001  7.000000e+000
    endloop
  endfacet
  facet normal  0.000000e+000  9.822255e-001 -1.877047e-001
    outer loop
      vertex  4.200000e+001  4.800000e+001  7.000000e+000
      vertex  4.200000e+001  5.010212e+001  1.800000e+001
      vertex  5.400000e+001  4.800000e+001  7.000000e+000
    endloop
  endfacet
  facet normal  0.000000e+000  9.822255e-001 -1.877047e-001
    outer loop
      vertex  5.400000e+001  4.800000e+001  7.000000e+000
      vertex  4.200000e+001  5.010212e+001  1.800000e+001
      vertex  5.400000e+001  5.010212e+001  1.800000e+001
    endloop
  endfacet
  facet normal  0.000000e+000  9.822255e-001 -1.877047e-001
    outer loop
      vertex  2.150000e+001  4.800000e+001  7.000000e+000
      vertex  2.150000e+001  5.010212e+001  1.800000e+001
      vertex  3.350000e+001  4.800000e+001  7.000000e+000
    endloop
  endfacet
  facet normal  0.000000e+000  9.822255e-001 -1.877047e-001
    outer loop
      vertex  3.350000e+001  4.800000e+001  7.000000e+000
      vertex  2.150000e+001  5.010212e+001  1.800000e+001
      vertex  3.350000e+001  5.010212e+001  1.800000e+001
    endloop
  endfacet
  facet normal  0.000000e+000  2.778704e-002  9.996139e-001
    outer loop
      vertex  4.200000e+001  6.990991e+000  2.500000e+001
      vertex  5.400000e+001  6.990991e+000  2.500000e+001
      vertex  4.200000e+001  1.032329e+001  2.490737e+001
    endloop
  endfacet
  facet normal  -0.000000e+000  2.778704e-002  9.996139e-001
    outer loop
      vertex  4.200000e+001  1.032329e+001  2.490737e+001
      vertex  5.400000e+001  6.990991e+000  2.500000e+001
      vertex  5.400000e+001  1.032329e+001  2.490737e+001
    endloop
  endfacet
  facet normal  0.000000e+000  4.934702e-002  9.987816e-001
    outer loop
      vertex  4.200000e+001  1.032329e+001  2.490737e+001
      vertex  5.400000e+001  1.032329e+001  2.490737e+001
      vertex  4.200000e+001  1.364367e+001  2.474332e+001
    endloop
  endfacet
  facet normal  -0.000000e+000  4.934702e-002  9.987816e-001
    outer loop
      vertex  4.200000e+001  1.364367e+001  2.474332e+001
      vertex  5.400000e+001  1.032329e+001  2.490737e+001
      vertex  5.400000e+001  1.364367e+001  2.474332e+001
    endloop
  endfacet
  facet normal  0.000000e+000  7.099376e-002  9.974768e-001
    outer loop
      vertex  4.200000e+001  1.364367e+001  2.474332e+001
      vertex  5.400000e+001  1.364367e+001  2.474332e+001
      vertex  4.200000e+001  1.695215e+001  2.450784e+001
    endloop
  endfacet
  facet normal  -0.000000e+000  7.099376e-002  9.974768e-001
    outer loop
      vertex  4.200000e+001  1.695215e+001  2.450784e+001
      vertex  5.400000e+001  1.364367e+001  2.474332e+001
      vertex  5.400000e+001  1.695215e+001  2.450784e+001
    endloop
  endfacet
  facet normal  0.000000e+000  9.269538e-002  9.956946e-001
    outer loop
      vertex  4.200000e+001  1.695215e+001  2.450784e+001
      vertex  5.400000e+001  1.695215e+001  2.450784e+001
      vertex  4.200000e+001  2.024872e+001  2.420094e+001
    endloop
  endfacet
  facet normal  -0.000000e+000  9.269538e-002  9.956946e-001
    outer loop
      vertex  4.200000e+001  2.024872e+001  2.420094e+001
      vertex  5.400000e+001  1.695215e+001  2.450784e+001
      vertex  5.400000e+001  2.024872e+001  2.420094e+001
    endloop
  endfacet
  facet normal  0.000000e+000  1.144215e-001  9.934323e-001
    outer loop
      vertex  4.200000e+001  2.024872e+001  2.420094e+001
      vertex  5.400000e+001  2.024872e+001  2.420094e+001
      vertex  4.200000e+001  2.353338e+001  2.382262e+001
    endloop
  endfacet
  facet normal  -0.000000e+000  1.144215e-001  9.934323e-001
    outer loop
      vertex  4.200000e+001  2.353338e+001  2.382262e+001
      vertex  5.400000e+001  2.024872e+001  2.420094e+001
      vertex  5.400000e+001  2.353338e+001  2.382262e+001
    endloop
  endfacet
  facet normal  0.000000e+000  1.361415e-001  9.906894e-001
    outer loop
      vertex  4.200000e+001  2.353338e+001  2.382262e+001
      vertex  5.400000e+001  2.353338e+001  2.382262e+001
      vertex  4.200000e+001  2.680614e+001  2.337288e+001
    endloop
  endfacet
  facet normal  -0.000000e+000  1.361415e-001  9.906894e-001
    outer loop
      vertex  4.200000e+001  2.680614e+001  2.337288e+001
      vertex  5.400000e+001  2.353338e+001  2.382262e+001
      vertex  5.400000e+001  2.680614e+001  2.337288e+001
    endloop
  endfacet
  facet normal  0.000000e+000  1.578223e-001  9.874675e-001
    outer loop
      vertex  4.200000e+001  2.680614e+001  2.337288e+001
      vertex  5.400000e+001  2.680614e+001  2.337288e+001
      vertex  4.200000e+001  3.006699e+001  2.285171e+001
    endloop
  endfacet
  facet normal  -0.000000e+000  1.578223e-001  9.874675e-001
    outer loop
      vertex  4.200000e+001  3.006699e+001  2.285171e+001
      vertex  5.400000e+001  2.680614e+001  2.337288e+001
      vertex  5.400000e+001  3.006699e+001  2.285171e+001
    endloop
  endfacet
  facet normal  0.000000e+000  1.798414e-001  9.836956e-001
    outer loop
      vertex  4.200000e+001  3.006699e+001  2.285171e+001
      vertex  5.400000e+001  3.006699e+001  2.285171e+001
      vertex  4.200000e+001  3.343823e+001  2.223537e+001
    endloop
  endfacet
  facet normal  -0.000000e+000  1.798414e-001  9.836956e-001
    outer loop
      vertex  4.200000e+001  3.343823e+001  2.223537e+001
      vertex  5.400000e+001  3.006699e+001  2.285171e+001
      vertex  5.400000e+001  3.343823e+001  2.223537e+001
    endloop
  endfacet
  facet normal  0.000000e+000  2.021595e-001  9.793526e-001
    outer loop
      vertex  4.200000e+001  3.343823e+001  2.223537e+001
      vertex  5.400000e+001  3.343823e+001  2.223537e+001
      vertex  4.200000e+001  3.679665e+001  2.154212e+001
    endloop
  endfacet
  facet normal  -0.000000e+000  2.021595e-001  9.793526e-001
    outer loop
      vertex  4.200000e+001  3.679665e+001  2.154212e+001
      vertex  5.400000e+001  3.343823e+001  2.223537e+001
      vertex  5.400000e+001  3.679665e+001  2.154212e+001
    endloop
  endfacet
  facet normal  0.000000e+000  2.243343e-001  9.745122e-001
    outer loop
      vertex  4.200000e+001  3.679665e+001  2.154212e+001
      vertex  5.400000e+001  3.679665e+001  2.154212e+001
      vertex  4.200000e+001  4.014225e+001  2.077196e+001
    endloop
  endfacet
  facet normal  -0.000000e+000  2.243343e-001  9.745122e-001
    outer loop
      vertex  4.200000e+001  4.014225e+001  2.077196e+001
      vertex  5.400000e+001  3.679665e+001  2.154212e+001
      vertex  5.400000e+001  4.014225e+001  2.077196e+001
    endloop
  endfacet
  facet normal  0.000000e+000  2.463326e-001  9.691853e-001
    outer loop
      vertex  4.200000e+001  4.014225e+001  2.077196e+001
      vertex  5.400000e+001  4.014225e+001  2.077196e+001
      vertex  4.200000e+001  4.347503e+001  1.992489e+001
    endloop
  endfacet
  facet normal  -0.000000e+000  2.463326e-001  9.691853e-001
    outer loop
      vertex  4.200000e+001  4.347503e+001  1.992489e+001
      vertex  5.400000e+001  4.014225e+001  2.077196e+001
      vertex  5.400000e+001  4.347503e+001  1.992489e+001
    endloop
  endfacet
  facet normal  0.000000e+000  2.681228e-001  9.633847e-001
    outer loop
      vertex  4.200000e+001  4.347503e+001  1.992489e+001
      vertex  5.400000e+001  4.347503e+001  1.992489e+001
      vertex  4.200000e+001  4.679498e+001  1.900090e+001
    endloop
  endfacet
  facet normal  -0.000000e+000  2.681228e-001  9.633847e-001
    outer loop
      vertex  4.200000e+001  4.679498e+001  1.900090e+001
      vertex  5.400000e+001  4.347503e+001  1.992489e+001
      vertex  5.400000e+001  4.679498e+001  1.900090e+001
    endloop
  endfacet
  facet normal  0.000000e+000  2.896731e-001  9.571256e-001
    outer loop
      vertex  4.200000e+001  4.679498e+001  1.900090e+001
      vertex  5.400000e+001  4.679498e+001  1.900090e+001
      vertex  4.200000e+001  5.010212e+001  1.800000e+001
    endloop
  endfacet
  facet normal  -0.000000e+000  2.896731e-001  9.571256e-001
    outer loop
      vertex  4.200000e+001  5.010212e+001  1.800000e+001
      vertex  5.400000e+001  4.679498e+001  1.900090e+001
      vertex  5.400000e+001  5.010212e+001  1.800000e+001
    endloop
  endfacet
  facet normal  0.000000e+000  2.778704e-002  9.996139e-001
    outer loop
      vertex  2.150000e+001  6.990991e+000  2.500000e+001
      vertex  3.350000e+001  6.990991e+000  2.500000e+001
      vertex  2.150000e+001  1.032329e+001  2.490737e+001
    endloop
  endfacet
  facet normal  -0.000000e+000  2.778704e-002  9.996139e-001
    outer loop
      vertex  2.150000e+001  1.032329e+001  2.490737e+001
      vertex  3.350000e+001  6.990991e+000  2.500000e+001
      vertex  3.350000e+001  1.032329e+001  2.490737e+001
    endloop
  endfacet
  facet normal  0.000000e+000  4.934702e-002  9.987816e-001
    outer loop
      vertex  2.150000e+001  1.032329e+001  2.490737e+001
      vertex  3.350000e+001  1.032329e+001  2.490737e+001
      vertex  2.150000e+001  1.364367e+001  2.474332e+001
    endloop
  endfacet
  facet normal  -0.000000e+000  4.934702e-002  9.987816e-001
    outer loop
      vertex  2.150000e+001  1.364367e+001  2.474332e+001
      vertex  3.350000e+001  1.032329e+001  2.490737e+001
      vertex  3.350000e+001  1.364367e+001  2.474332e+001
    endloop
  endfacet
  facet normal  0.000000e+000  7.099376e-002  9.974768e-001
    outer loop
      vertex  2.150000e+001  1.364367e+001  2.474332e+001
      vertex  3.350000e+001  1.364367e+001  2.474332e+001
      vertex  2.150000e+001  1.695215e+001  2.450784e+001
    endloop
  endfacet
  facet normal  -0.000000e+000  7.099376e-002  9.974768e-001
    outer loop
      vertex  2.150000e+001  1.695215e+001  2.450784e+001
      vertex  3.350000e+001  1.364367e+001  2.474332e+001
      vertex  3.350000e+001  1.695215e+001  2.450784e+001
    endloop
  endfacet
  facet normal  0.000000e+000  9.269538e-002  9.956946e-001
    outer loop
      vertex  2.150000e+001  1.695215e+001  2.450784e+001
      vertex  3.350000e+001  1.695215e+001  2.450784e+001
      vertex  2.150000e+001  2.024872e+001  2.420094e+001
    endloop
  endfacet
  facet normal  -0.000000e+000  9.269538e-002  9.956946e-001
    outer loop
      vertex  2.150000e+001  2.024872e+001  2.420094e+001
      vertex  3.350000e+001  1.695215e+001  2.450784e+001
      vertex  3.350000e+001  2.024872e+001  2.420094e+001
    endloop
  endfacet
  facet normal  0.000000e+000  1.144215e-001  9.934323e-001
    outer loop
      vertex  2.150000e+001  2.024872e+001  2.420094e+001
      vertex  3.350000e+001  2.024872e+001  2.420094e+001
      vertex  2.150000e+001  2.353338e+001  2.382262e+001
    endloop
  endfacet
  facet normal  -0.000000e+000  1.144215e-001  9.934323e-001
    outer loop
      vertex  2.150000e+001  2.353338e+001  2.382262e+001
      vertex  3.350000e+001  2.024872e+001  2.420094e+001
      vertex  3.350000e+001  2.353338e+001  2.382262e+001
    endloop
  endfacet
  facet normal  0.000000e+000  1.361415e-001  9.906894e-001
    outer loop
      vertex  2.150000e+001  2.353338e+001  2.382262e+001
      vertex  3.350000e+001  2.353338e+001  2.382262e+001
      vertex  2.150000e+001  2.680614e+001  2.337288e+001
    endloop
  endfacet
  facet normal  -0.000000e+000  1.361415e-001  9.906894e-001
    outer loop
      vertex  2.150000e+001  2.680614e+001  2.337288e+001
      vertex  3.350000e+001  2.353338e+001  2.382262e+001
      vertex  3.350000e+001  2.680614e+001  2.337288e+001
    endloop
  endfacet
  facet normal  0.000000e+000  1.578223e-001  9.874675e-001
    outer loop
      vertex  2.150000e+001  2.680614e+001  2.337288e+001
      vertex  3.350000e+001  2.680614e+001  2.337288e+001
      vertex  2.150000e+001  3.006699e+001  2.285171e+001
    endloop
  endfacet
  facet normal  -0.000000e+000  1.578223e-001  9.874675e-001
    outer loop
      vertex  2.150000e+001  3.006699e+001  2.285171e+001
      vertex  3.350000e+001  2.680614e+001  2.337288e+001
      vertex  3.350000e+001  3.006699e+001  2.285171e+001
    endloop
  endfacet
  facet normal  0.000000e+000  1.798414e-001  9.836956e-001
    outer loop
      vertex  2.150000e+001  3.006699e+001  2.285171e+001
      vertex  3.350000e+001  3.006699e+001  2.285171e+001
      vertex  2.150000e+001  3.343823e+001  2.223537e+001
    endloop
  endfacet
  facet normal  -0.000000e+000  1.798414e-001  9.836956e-001
    outer loop
      vertex  2.150000e+001  3.343823e+001  2.223537e+001
      vertex  3.350000e+001  3.006699e+001  2.285171e+001
      vertex  3.350000e+001  3.343823e+001  2.223537e+001
    endloop
  endfacet
  facet normal  0.000000e+000  2.021595e-001  9.793526e-001
    outer loop
      vertex  2.150000e+001  3.343823e+001  2.223537e+001
      vertex  3.350000e+001  3.343823e+001  2.223537e+001
      vertex  2.150000e+001  3.679665e+001  2.154212e+001
    endloop
  endfacet
  facet normal  -0.000000e+000  2.021595e-001  9.793526e-001
    outer loop
      vertex  2.150000e+001  3.679665e+001  2.154212e+001
      vertex  3.350000e+001  3.343823e+001  2.223537e+001
      vertex  3.350000e+001  3.679665e+001  2.154212e+001
    endloop
  endfacet
  facet normal  0.000000e+000  2.243343e-001  9.745122e-001
    outer loop
      vertex  2.150000e+001  3.679665e+001  2.154212e+001
      vertex  3.350000e+001  3.679665e+001  2.154212e+001
      vertex  2.150000e+001  4.014225e+001  2.077196e+001
    endloop
  endfacet
  facet normal  -0.000000e+000  2.243343e-001  9.745122e-001
    outer loop
      vertex  2.150000e+001  4.014225e+001  2.077196e+001
      vertex  3.350000e+001  3.679665e+001  2.154212e+001
      vertex  3.350000e+001  4.014225e+001  2.077196e+001
    endloop
  endfacet
  facet normal  0.000000e+000  2.463326e-001  9.691853e-001
    outer loop
      vertex  2.150000e+001  4.014225e+001  2.077196e+001
      vertex  3.350000e+001  4.014225e+001  2.077196e+001
      vertex  2.150000e+001  4.347503e+001  1.992489e+001
    endloop
  endfacet
  facet normal  -0.000000e+000  2.463326e-001  9.691853e-001
    outer loop
      vertex  2.150000e+001  4.347503e+001  1.992489e+001
      vertex  3.350000e+001  4.014225e+001  2.077196e+001
      vertex  3.350000e+001  4.347503e+001  1.992489e+001
    endloop
  endfacet
  facet normal  0.000000e+000  2.681228e-001  9.633847e-001
    outer loop
      vertex  2.150000e+001  4.347503e+001  1.992489e+001
      vertex  3.350000e+001  4.347503e+001  1.992489e+001
      vertex  2.150000e+001  4.679498e+001  1.900090e+001
    endloop
  endfacet
  facet normal  -0.000000e+000  2.681228e-001  9.633847e-001
    outer loop
      vertex  2.150000e+001  4.679498e+001  1.900090e+001
      vertex  3.350000e+001  4.347503e+001  1.992489e+001
      vertex  3.350000e+001  4.679498e+001  1.900090e+001
    endloop
  endfacet
  facet normal  0.000000e+000  2.896731e-001  9.571256e-001
    outer loop
      vertex  2.150000e+001  4.679498e+001  1.900090e+001
      vertex  3.350000e+001  4.679498e+001  1.900090e+001
      vertex  2.150000e+001  5.010212e+001  1.800000e+001
    endloop
  endfacet
  facet normal  -0.000000e+000  2.896731e-001  9.571256e-001
    outer loop
      vertex  2.150000e+001  5.010212e+001  1.800000e+001
      vertex  3.350000e+001  4.679498e+001  1.900090e+001
      vertex  3.350000e+001  5.010212e+001  1.800000e+001
    endloop
  endfacet
  facet normal -1.000000e+000  0.000000e+000  0.000000e+000
    outer loop
      vertex  1.000000e+000  4.800000e+001  7.000000e+000
      vertex  1.000000e+000  4.800000e+001  1.000000e+001
      vertex  1.000000e+000  5.010212e+001  1.800000e+001
    endloop
  endfacet
  facet normal -9.999999e-001  0.000000e+000  0.000000e+000
    outer loop
      vertex  1.000000e+000  1.008902e+001  1.000000e+001
      vertex  1.000000e+000  6.990991e+000  2.500000e+001
      vertex  1.000000e+000  1.032329e+001  2.490737e+001
    endloop
  endfacet
  facet normal -1.000000e+000  0.000000e+000  -0.000000e+000
    outer loop
      vertex  1.000000e+000  1.008902e+001  1.000000e+001
      vertex  1.000000e+000  1.032329e+001  2.490737e+001
      vertex  1.000000e+000  1.364367e+001  2.474332e+001
    endloop
  endfacet
  facet normal -9.999999e-001  0.000000e+000  -0.000000e+000
    outer loop
      vertex  1.000000e+000  1.008902e+001  1.000000e+001
      vertex  1.000000e+000  1.364367e+001  2.474332e+001
      vertex  1.000000e+000  1.695215e+001  2.450784e+001
    endloop
  endfacet
  facet normal -1.000000e+000  0.000000e+000  -0.000000e+000
    outer loop
      vertex  1.000000e+000  1.008902e+001  1.000000e+001
      vertex  1.000000e+000  1.695215e+001  2.450784e+001
      vertex  1.000000e+000  2.024872e+001  2.420094e+001
    endloop
  endfacet
  facet normal -9.999999e-001  0.000000e+000  -0.000000e+000
    outer loop
      vertex  1.000000e+000  1.008902e+001  1.000000e+001
      vertex  1.000000e+000  2.024872e+001  2.420094e+001
      vertex  1.000000e+000  2.353338e+001  2.382262e+001
    endloop
  endfacet
  facet normal -9.999999e-001  0.000000e+000  -0.000000e+000
    outer loop
      vertex  1.000000e+000  1.008902e+001  1.000000e+001
      vertex  1.000000e+000  2.353338e+001  2.382262e+001
      vertex  1.000000e+000  2.680614e+001  2.337288e+001
    endloop
  endfacet
  facet normal -9.999999e-001  0.000000e+000  -0.000000e+000
    outer loop
      vertex  1.000000e+000  1.008902e+001  1.000000e+001
      vertex  1.000000e+000  2.680614e+001  2.337288e+001
      vertex  1.000000e+000  3.006699e+001  2.285171e+001
    endloop
  endfacet
  facet normal -9.999999e-001  0.000000e+000  -0.000000e+000
    outer loop
      vertex  1.000000e+000  1.008902e+001  1.000000e+001
      vertex  1.000000e+000  3.006699e+001  2.285171e+001
      vertex  1.000000e+000  3.343823e+001  2.223537e+001
    endloop
  endfacet
  facet normal -1.000000e+000  0.000000e+000  -0.000000e+000
    outer loop
      vertex  1.000000e+000  1.008902e+001  1.000000e+001
      vertex  1.000000e+000  3.343823e+001  2.223537e+001
      vertex  1.000000e+000  3.679665e+001  2.154212e+001
    endloop
  endfacet
  facet normal -1.000000e+000  0.000000e+000  -0.000000e+000
    outer loop
      vertex  1.000000e+000  1.008902e+001  1.000000e+001
      vertex  1.000000e+000  3.679665e+001  2.154212e+001
      vertex  1.000000e+000  4.014225e+001  2.077196e+001
    endloop
  endfacet
  facet normal -1.000000e+000  0.000000e+000  -0.000000e+000
    outer loop
      vertex  1.000000e+000  1.008902e+001  1.000000e+001
      vertex  1.000000e+000  4.014225e+001  2.077196e+001
      vertex  1.000000e+000  4.347503e+001  1.992489e+001
    endloop
  endfacet
  facet normal -1.000000e+000  0.000000e+000  -0.000000e+000
    outer loop
      vertex  1.000000e+000  1.008902e+001  1.000000e+001
      vertex  1.000000e+000  4.347503e+001  1.992489e+001
      vertex  1.000000e+000  4.679498e+001  1.900090e+001
    endloop
  endfacet
  facet normal -1.000000e+000  0.000000e+000  -0.000000e+000
    outer loop
      vertex  1.000000e+000  1.008902e+001  1.000000e+001
      vertex  1.000000e+000  4.679498e+001  1.900090e+001
      vertex  1.000000e+000  5.010212e+001  1.800000e+001
    endloop
  endfacet
  facet normal -1.000000e+000  0.000000e+000  0.000000e+000
    outer loop
      vertex  1.000000e+000  1.008902e+001  1.000000e+001
      vertex  1.000000e+000  5.010212e+001  1.800000e+001
      vertex  1.000000e+000  4.800000e+001  1.000000e+001
    endloop
  endfacet
  facet normal  0.000000e+000  9.822255e-001 -1.877047e-001
    outer loop
      vertex  1.000000e+000  4.800000e+001  7.000000e+000
      vertex  1.000000e+000  5.010212e+001  1.800000e+001
      vertex  1.300000e+001  4.800000e+001  7.000000e+000
    endloop
  endfacet
  facet normal  0.000000e+000  9.822255e-001 -1.877047e-001
    outer loop
      vertex  1.300000e+001  4.800000e+001  7.000000e+000
      vertex  1.000000e+000  5.010212e+001  1.800000e+001
      vertex  1.300000e+001  5.010212e+001  1.800000e+001
    endloop
  endfacet
  facet normal  0.000000e+000 -9.793305e-001 -2.022663e-001
    outer loop
      vertex  1.300000e+001  1.008902e+001  1.000000e+001
      vertex  1.300000e+001  6.990991e+000  2.500000e+001
      vertex  1.000000e+000  1.008902e+001  1.000000e+001
    endloop
  endfacet
  facet normal  0.000000e+000 -9.793305e-001 -2.022663e-001
    outer loop
      vertex  1.000000e+000  1.008902e+001  1.000000e+001
      vertex  1.300000e+001  6.990991e+000  2.500000e+001
      vertex  1.000000e+000  6.990991e+000  2.500000e+001
    endloop
  endfacet
  facet normal  0.000000e+000  2.778704e-002  9.996139e-001
    outer loop
      vertex  1.000000e+000  6.990991e+000  2.500000e+001
      vertex  1.300000e+001  6.990991e+000  2.500000e+001
      vertex  1.000000e+000  1.032329e+001  2.490737e+001
    endloop
  endfacet
  facet normal  -0.000000e+000  2.778704e-002  9.996139e-001
    outer loop
      vertex  1.000000e+000  1.032329e+001  2.490737e+001
      vertex  1.300000e+001  6.990991e+000  2.500000e+001
      vertex  1.300000e+001  1.032329e+001  2.490737e+001
    endloop
  endfacet
  facet normal  0.000000e+000  4.934702e-002  9.987816e-001
    outer loop
      vertex  1.000000e+000  1.032329e+001  2.490737e+001
      vertex  1.300000e+001  1.032329e+001  2.490737e+001
      vertex  1.000000e+000  1.364367e+001  2.474332e+001
    endloop
  endfacet
  facet normal  -0.000000e+000  4.934702e-002  9.987816e-001
    outer loop
      vertex  1.000000e+000  1.364367e+001  2.474332e+001
      vertex  1.300000e+001  1.032329e+001  2.490737e+001
      vertex  1.300000e+001  1.364367e+001  2.474332e+001
    endloop
  endfacet
  facet normal  0.000000e+000  7.099376e-002  9.974768e-001
    outer loop
      vertex  1.000000e+000  1.364367e+001  2.474332e+001
      vertex  1.300000e+001  1.364367e+001  2.474332e+001
      vertex  1.000000e+000  1.695215e+001  2.450784e+001
    endloop
  endfacet
  facet normal  -0.000000e+000  7.099376e-002  9.974768e-001
    outer loop
      vertex  1.000000e+000  1.695215e+001  2.450784e+001
      vertex  1.300000e+001  1.364367e+001  2.474332e+001
      vertex  1.300000e+001  1.695215e+001  2.450784e+001
    endloop
  endfacet
  facet normal  0.000000e+000  9.269538e-002  9.956946e-001
    outer loop
      vertex  1.000000e+000  1.695215e+001  2.450784e+001
      vertex  1.300000e+001  1.695215e+001  2.450784e+001
      vertex  1.000000e+000  2.024872e+001  2.420094e+001
    endloop
  endfacet
  facet normal  -0.000000e+000  9.269538e-002  9.956946e-001
    outer loop
      vertex  1.000000e+000  2.024872e+001  2.420094e+001
      vertex  1.300000e+001  1.695215e+001  2.450784e+001
      vertex  1.300000e+001  2.024872e+001  2.420094e+001
    endloop
  endfacet
  facet normal  0.000000e+000  1.144215e-001  9.934323e-001
    outer loop
      vertex  1.000000e+000  2.024872e+001  2.420094e+001
      vertex  1.300000e+001  2.024872e+001  2.420094e+001
      vertex  1.000000e+000  2.353338e+001  2.382262e+001
    endloop
  endfacet
  facet normal  -0.000000e+000  1.144215e-001  9.934323e-001
    outer loop
      vertex  1.000000e+000  2.353338e+001  2.382262e+001
      vertex  1.300000e+001  2.024872e+001  2.420094e+001
      vertex  1.300000e+001  2.353338e+001  2.382262e+001
    endloop
  endfacet
  facet normal  0.000000e+000  1.361415e-001  9.906894e-001
    outer loop
      vertex  1.000000e+000  2.353338e+001  2.382262e+001
      vertex  1.300000e+001  2.353338e+001  2.382262e+001
      vertex  1.000000e+000  2.680614e+001  2.337288e+001
    endloop
  endfacet
  facet normal  -0.000000e+000  1.361415e-001  9.906894e-001
    outer loop
      vertex  1.000000e+000  2.680614e+001  2.337288e+001
      vertex  1.300000e+001  2.353338e+001  2.382262e+001
      vertex  1.300000e+001  2.680614e+001  2.337288e+001
    endloop
  endfacet
  facet normal  0.000000e+000  1.578223e-001  9.874675e-001
    outer loop
      vertex  1.000000e+000  2.680614e+001  2.337288e+001
      vertex  1.300000e+001  2.680614e+001  2.337288e+001
      vertex  1.000000e+000  3.006699e+001  2.285171e+001
    endloop
  endfacet
  facet normal  -0.000000e+000  1.578223e-001  9.874675e-001
    outer loop
      vertex  1.000000e+000  3.006699e+001  2.285171e+001
      vertex  1.300000e+001  2.680614e+001  2.337288e+001
      vertex  1.300000e+001  3.006699e+001  2.285171e+001
    endloop
  endfacet
  facet normal  0.000000e+000  1.798414e-001  9.836956e-001
    outer loop
      vertex  1.000000e+000  3.006699e+001  2.285171e+001
      vertex  1.300000e+001  3.006699e+001  2.285171e+001
      vertex  1.000000e+000  3.343823e+001  2.223537e+001
    endloop
  endfacet
  facet normal  -0.000000e+000  1.798414e-001  9.836956e-001
    outer loop
      vertex  1.000000e+000  3.343823e+001  2.223537e+001
      vertex  1.300000e+001  3.006699e+001  2.285171e+001
      vertex  1.300000e+001  3.343823e+001  2.223537e+001
    endloop
  endfacet
  facet normal  0.000000e+000  2.021595e-001  9.793526e-001
    outer loop
      vertex  1.000000e+000  3.343823e+001  2.223537e+001
      vertex  1.300000e+001  3.343823e+001  2.223537e+001
      vertex  1.000000e+000  3.679665e+001  2.154212e+001
    endloop
  endfacet
  facet normal  -0.000000e+000  2.021595e-001  9.793526e-001
    outer loop
      vertex  1.000000e+000  3.679665e+001  2.154212e+001
      vertex  1.300000e+001  3.343823e+001  2.223537e+001
      vertex  1.300000e+001  3.679665e+001  2.154212e+001
    endloop
  endfacet
  facet normal  0.000000e+000  2.243343e-001  9.745122e-001
    outer loop
      vertex  1.000000e+000  3.679665e+001  2.154212e+001
      vertex  1.300000e+001  3.679665e+001  2.154212e+001
      vertex  1.000000e+000  4.014225e+001  2.077196e+001
    endloop
  endfacet
  facet normal  -0.000000e+000  2.243343e-001  9.745122e-001
    outer loop
      vertex  1.000000e+000  4.014225e+001  2.077196e+001
      vertex  1.300000e+001  3.679665e+001  2.154212e+001
      vertex  1.300000e+001  4.014225e+001  2.077196e+001
    endloop
  endfacet
  facet normal  0.000000e+000  2.463326e-001  9.691853e-001
    outer loop
      vertex  1.000000e+000  4.014225e+001  2.077196e+001
      vertex  1.300000e+001  4.014225e+001  2.077196e+001
      vertex  1.000000e+000  4.347503e+001  1.992489e+001
    endloop
  endfacet
  facet normal  -0.000000e+000  2.463326e-001  9.691853e-001
    outer loop
      vertex  1.000000e+000  4.347503e+001  1.992489e+001
      vertex  1.300000e+001  4.014225e+001  2.077196e+001
      vertex  1.300000e+001  4.347503e+001  1.992489e+001
    endloop
  endfacet
  facet normal  0.000000e+000  2.681228e-001  9.633847e-001
    outer loop
      vertex  1.000000e+000  4.347503e+001  1.992489e+001
      vertex  1.300000e+001  4.347503e+001  1.992489e+001
      vertex  1.000000e+000  4.679498e+001  1.900090e+001
    endloop
  endfacet
  facet normal  -0.000000e+000  2.681228e-001  9.633847e-001
    outer loop
      vertex  1.000000e+000  4.679498e+001  1.900090e+001
      vertex  1.300000e+001  4.347503e+001  1.992489e+001
      vertex  1.300000e+001  4.679498e+001  1.900090e+001
    endloop
  endfacet
  facet normal  0.000000e+000  2.896731e-001  9.571256e-001
    outer loop
      vertex  1.000000e+000  4.679498e+001  1.900090e+001
      vertex  1.300000e+001  4.679498e+001  1.900090e+001
      vertex  1.000000e+000  5.010212e+001  1.800000e+001
    endloop
  endfacet
  facet normal  -0.000000e+000  2.896731e-001  9.571256e-001
    outer loop
      vertex  1.000000e+000  5.010212e+001  1.800000e+001
      vertex  1.300000e+001  4.679498e+001  1.900090e+001
      vertex  1.300000e+001  5.010212e+001  1.800000e+001
    endloop
  endfacet
  facet normal  0.000000e+000  -0.000000e+000 -9.999999e-001
    outer loop
      vertex  0.000000e+000  0.000000e+000  0.000000e+000
      vertex  1.421085e-014  4.800000e+001  0.000000e+000
      vertex  5.500000e+001  0.000000e+000  0.000000e+000
    endloop
  endfacet
  facet normal  0.000000e+000  0.000000e+000 -9.999999e-001
    outer loop
      vertex  5.500000e+001  0.000000e+000  0.000000e+000
      vertex  1.421085e-014  4.800000e+001  0.000000e+000
      vertex  5.500000e+001  4.800000e+001  0.000000e+000
    endloop
  endfacet
  facet normal -1.000000e+000  2.960595e-016  0.000000e+000
    outer loop
      vertex  1.421085e-014  4.800000e+001  1.000000e+001
      vertex  1.421085e-014  4.800000e+001  0.000000e+000
      vertex  0.000000e+000  0.000000e+000  1.000000e+001
    endloop
  endfacet
  facet normal -1.000000e+000  2.960595e-016  0.000000e+000
    outer loop
      vertex  0.000000e+000  0.000000e+000  1.000000e+001
      vertex  1.421085e-014  4.800000e+001  0.000000e+000
      vertex  0.000000e+000  0.000000e+000  0.000000e+000
    endloop
  endfacet
  facet normal  1.000000e+000  0.000000e+000  0.000000e+000
    outer loop
      vertex  5.500000e+001  0.000000e+000  1.000000e+001
      vertex  5.500000e+001  0.000000e+000  0.000000e+000
      vertex  5.500000e+001  4.800000e+001  1.000000e+001
    endloop
  endfacet
  facet normal  1.000000e+000  0.000000e+000  0.000000e+000
    outer loop
      vertex  5.500000e+001  4.800000e+001  1.000000e+001
      vertex  5.500000e+001  0.000000e+000  0.000000e+000
      vertex  5.500000e+001  4.800000e+001  0.000000e+000
    endloop
  endfacet
  facet normal  0.000000e+000 -1.000000e+000  0.000000e+000
    outer loop
      vertex  0.000000e+000  0.000000e+000  1.000000e+001
      vertex  0.000000e+000  0.000000e+000  0.000000e+000
      vertex  5.500000e+001  0.000000e+000  1.000000e+001
    endloop
  endfacet
  facet normal  0.000000e+000 -1.000000e+000  -0.000000e+000
    outer loop
      vertex  5.500000e+001  0.000000e+000  1.000000e+001
      vertex  0.000000e+000  0.000000e+000  0.000000e+000
      vertex  5.500000e+001  0.000000e+000  0.000000e+000
    endloop
  endfacet
endsolid CATIA STL
