solid CATIA STL
  facet normal  0.000000e+000  9.999999e-001  -0.000000e+000
    outer loop
      vertex  2.200000e+001  3.400000e+001  1.100000e+001
      vertex  2.200000e+001  3.400000e+001  0.000000e+000
      vertex  1.065814e-014  3.400000e+001  1.100000e+001
    endloop
  endfacet
  facet normal  0.000000e+000  9.999999e-001  0.000000e+000
    outer loop
      vertex  1.065814e-014  3.400000e+001  1.100000e+001
      vertex  2.200000e+001  3.400000e+001  0.000000e+000
      vertex  1.065814e-014  3.400000e+001  0.000000e+000
    endloop
  endfacet
  facet normal  0.000000e+000 -1.000000e+000  0.000000e+000
    outer loop
      vertex  0.000000e+000  0.000000e+000  8.000000e+000
      vertex  0.000000e+000  0.000000e+000  0.000000e+000
      vertex  2.000000e+001  0.000000e+000  8.000000e+000
    endloop
  endfacet
  facet normal  0.000000e+000 -1.000000e+000  -0.000000e+000
    outer loop
      vertex  2.000000e+001  0.000000e+000  8.000000e+000
      vertex  0.000000e+000  0.000000e+000  0.000000e+000
      vertex  2.000000e+001  0.000000e+000  0.000000e+000
    endloop
  endfacet
  facet normal -1.000000e+000  1.030499e-015  0.000000e+000
    outer loop
      vertex  1.065814e-014  3.400000e+001  0.000000e+000
      vertex  0.000000e+000  2.365730e+001  1.100000e+001
      vertex  1.065814e-014  3.400000e+001  1.100000e+001
    endloop
  endfacet
  facet normal -1.000000e+000  3.134747e-016  0.000000e+000
    outer loop
      vertex  0.000000e+000  0.000000e+000  0.000000e+000
      vertex  0.000000e+000  0.000000e+000  8.000000e+000
      vertex  1.065814e-014  3.400000e+001  0.000000e+000
    endloop
  endfacet
  facet normal -1.000000e+000  0.000000e+000 -1.332268e-015
    outer loop
      vertex  1.065814e-014  3.400000e+001  0.000000e+000
      vertex  0.000000e+000  0.000000e+000  8.000000e+000
      vertex  0.000000e+000  2.000000e+001  8.000000e+000
    endloop
  endfacet
  facet normal -1.000000e+000  4.487110e-016 -5.470234e-016
    outer loop
      vertex  1.065814e-014  3.400000e+001  0.000000e+000
      vertex  0.000000e+000  2.000000e+001  8.000000e+000
      vertex  0.000000e+000  2.365730e+001  1.100000e+001
    endloop
  endfacet
  facet normal -1.000000e+000  -0.000000e+000  0.000000e+000
    outer loop
      vertex  0.000000e+000  2.365730e+001  1.100000e+001
      vertex  0.000000e+000  2.000000e+001  8.000000e+000
      vertex  0.000000e+000  2.000000e+001  1.150000e+001
    endloop
  endfacet
  facet normal -1.000000e+000  0.000000e+000  0.000000e+000
    outer loop
      vertex  0.000000e+000  2.365730e+001  1.100000e+001
      vertex  0.000000e+000  2.000000e+001  1.150000e+001
      vertex  0.000000e+000  2.365730e+001  1.150000e+001
    endloop
  endfacet
  facet normal  0.000000e+000 -9.999999e-001  0.000000e+000
    outer loop
      vertex  3.613114e+000  2.000000e+001  1.150000e+001
      vertex  0.000000e+000  2.000000e+001  1.150000e+001
      vertex  0.000000e+000  2.000000e+001  8.000000e+000
    endloop
  endfacet
  facet normal  0.000000e+000 -1.000000e+000  0.000000e+000
    outer loop
      vertex  3.613114e+000  2.000000e+001  1.150000e+001
      vertex  0.000000e+000  2.000000e+001  8.000000e+000
      vertex  1.000000e+000  2.000000e+001  8.000000e+000
    endloop
  endfacet
  facet normal  0.000000e+000 -1.000000e+000  0.000000e+000
    outer loop
      vertex  3.613114e+000  2.000000e+001  1.150000e+001
      vertex  1.000000e+000  2.000000e+001  8.000000e+000
      vertex  1.000000e+000  2.000000e+001  1.000000e+000
    endloop
  endfacet
  facet normal  0.000000e+000 -1.000000e+000  0.000000e+000
    outer loop
      vertex  3.613114e+000  2.000000e+001  1.150000e+001
      vertex  1.000000e+000  2.000000e+001  1.000000e+000
      vertex  3.613114e+000  2.000000e+001  8.000000e+000
    endloop
  endfacet
  facet normal  0.000000e+000 -1.000000e+000  0.000000e+000
    outer loop
      vertex  3.613114e+000  2.000000e+001  8.000000e+000
      vertex  1.000000e+000  2.000000e+001  1.000000e+000
      vertex  1.128566e+001  2.000000e+001  8.000000e+000
    endloop
  endfacet
  facet normal  0.000000e+000 -1.000000e+000  -0.000000e+000
    outer loop
      vertex  1.128566e+001  2.000000e+001  8.000000e+000
      vertex  1.000000e+000  2.000000e+001  1.000000e+000
      vertex  1.128566e+001  2.000000e+001  1.000000e+000
    endloop
  endfacet
  facet normal  0.000000e+000  -0.000000e+000 -1.000000e+000
    outer loop
      vertex  0.000000e+000  0.000000e+000  0.000000e+000
      vertex  1.065814e-014  3.400000e+001  0.000000e+000
      vertex  2.000000e+001  0.000000e+000  0.000000e+000
    endloop
  endfacet
  facet normal  0.000000e+000  0.000000e+000 -1.000000e+000
    outer loop
      vertex  2.000000e+001  0.000000e+000  0.000000e+000
      vertex  1.065814e-014  3.400000e+001  0.000000e+000
      vertex  2.000000e+001  2.100000e+001  0.000000e+000
    endloop
  endfacet
  facet normal  -0.000000e+000  0.000000e+000 -1.000000e+000
    outer loop
      vertex  1.065814e-014  3.400000e+001  0.000000e+000
      vertex  2.200000e+001  3.400000e+001  0.000000e+000
      vertex  2.000000e+001  2.100000e+001  0.000000e+000
    endloop
  endfacet
  facet normal  0.000000e+000  0.000000e+000 -1.000000e+000
    outer loop
      vertex  2.000000e+001  2.100000e+001  0.000000e+000
      vertex  2.200000e+001  3.400000e+001  0.000000e+000
      vertex  2.200000e+001  2.100000e+001  0.000000e+000
    endloop
  endfacet
  facet normal  0.000000e+000  1.000000e+000  0.000000e+000
    outer loop
      vertex  0.000000e+000  2.365730e+001  1.150000e+001
      vertex  3.613114e+000  2.365730e+001  1.150000e+001
      vertex  0.000000e+000  2.365730e+001  1.100000e+001
    endloop
  endfacet
  facet normal  0.000000e+000  1.000000e+000  0.000000e+000
    outer loop
      vertex  0.000000e+000  2.365730e+001  1.100000e+001
      vertex  3.613114e+000  2.365730e+001  1.150000e+001
      vertex  1.000000e+000  2.365730e+001  1.100000e+001
    endloop
  endfacet
  facet normal  0.000000e+000  9.999999e-001  -0.000000e+000
    outer loop
      vertex  3.613114e+000  2.365730e+001  1.150000e+001
      vertex  3.613114e+000  2.365730e+001  1.000000e+001
      vertex  1.000000e+000  2.365730e+001  1.100000e+001
    endloop
  endfacet
  facet normal  0.000000e+000  1.000000e+000  0.000000e+000
    outer loop
      vertex  1.000000e+000  2.365730e+001  1.100000e+001
      vertex  3.613114e+000  2.365730e+001  1.000000e+001
      vertex  1.000000e+000  2.365730e+001  1.000000e+001
    endloop
  endfacet
  facet normal  1.000000e+000  0.000000e+000  0.000000e+000
    outer loop
      vertex  3.613114e+000  2.000000e+001  8.000000e+000
      vertex  3.613114e+000  2.100000e+001  8.000000e+000
      vertex  3.613114e+000  2.000000e+001  1.150000e+001
    endloop
  endfacet
  facet normal  1.000000e+000  0.000000e+000  0.000000e+000
    outer loop
      vertex  3.613114e+000  2.000000e+001  1.150000e+001
      vertex  3.613114e+000  2.100000e+001  8.000000e+000
      vertex  3.613114e+000  2.100000e+001  1.100000e+001
    endloop
  endfacet
  facet normal  1.000000e+000  0.000000e+000  -0.000000e+000
    outer loop
      vertex  3.613114e+000  2.000000e+001  1.150000e+001
      vertex  3.613114e+000  2.100000e+001  1.100000e+001
      vertex  3.613114e+000  2.365730e+001  1.150000e+001
    endloop
  endfacet
  facet normal  1.000000e+000  0.000000e+000  0.000000e+000
    outer loop
      vertex  3.613114e+000  2.365730e+001  1.150000e+001
      vertex  3.613114e+000  2.100000e+001  1.100000e+001
      vertex  3.613114e+000  2.200000e+001  1.100000e+001
    endloop
  endfacet
  facet normal  1.000000e+000  -0.000000e+000  0.000000e+000
    outer loop
      vertex  3.613114e+000  2.365730e+001  1.150000e+001
      vertex  3.613114e+000  2.200000e+001  1.100000e+001
      vertex  3.613114e+000  2.365730e+001  1.000000e+001
    endloop
  endfacet
  facet normal  1.000000e+000  0.000000e+000  0.000000e+000
    outer loop
      vertex  3.613114e+000  2.365730e+001  1.000000e+001
      vertex  3.613114e+000  2.200000e+001  1.100000e+001
      vertex  3.613114e+000  2.200000e+001  1.000000e+001
    endloop
  endfacet
  facet normal  0.000000e+000  0.000000e+000  1.000000e+000
    outer loop
      vertex  1.782877e+001  2.200000e+001  1.100000e+001
      vertex  1.782877e+001  2.100000e+001  1.100000e+001
      vertex  2.100000e+001  2.200000e+001  1.100000e+001
    endloop
  endfacet
  facet normal  0.000000e+000  0.000000e+000  1.000000e+000
    outer loop
      vertex  2.100000e+001  2.200000e+001  1.100000e+001
      vertex  1.782877e+001  2.100000e+001  1.100000e+001
      vertex  2.200000e+001  2.100000e+001  1.100000e+001
    endloop
  endfacet
  facet normal  0.000000e+000  0.000000e+000  1.000000e+000
    outer loop
      vertex  2.100000e+001  2.200000e+001  1.100000e+001
      vertex  2.200000e+001  2.100000e+001  1.100000e+001
      vertex  2.100000e+001  3.300000e+001  1.100000e+001
    endloop
  endfacet
  facet normal  -0.000000e+000  0.000000e+000  1.000000e+000
    outer loop
      vertex  2.100000e+001  3.300000e+001  1.100000e+001
      vertex  2.200000e+001  2.100000e+001  1.100000e+001
      vertex  2.200000e+001  3.400000e+001  1.100000e+001
    endloop
  endfacet
  facet normal  0.000000e+000  0.000000e+000  1.000000e+000
    outer loop
      vertex  2.100000e+001  3.300000e+001  1.100000e+001
      vertex  2.200000e+001  3.400000e+001  1.100000e+001
      vertex  1.000000e+000  3.300000e+001  1.100000e+001
    endloop
  endfacet
  facet normal  0.000000e+000  -0.000000e+000  1.000000e+000
    outer loop
      vertex  1.000000e+000  3.300000e+001  1.100000e+001
      vertex  2.200000e+001  3.400000e+001  1.100000e+001
      vertex  1.065814e-014  3.400000e+001  1.100000e+001
    endloop
  endfacet
  facet normal  0.000000e+000  0.000000e+000  1.000000e+000
    outer loop
      vertex  1.000000e+000  3.300000e+001  1.100000e+001
      vertex  1.065814e-014  3.400000e+001  1.100000e+001
      vertex  1.000000e+000  2.365730e+001  1.100000e+001
    endloop
  endfacet
  facet normal  0.000000e+000  0.000000e+000  1.000000e+000
    outer loop
      vertex  1.000000e+000  2.365730e+001  1.100000e+001
      vertex  1.065814e-014  3.400000e+001  1.100000e+001
      vertex  0.000000e+000  2.365730e+001  1.100000e+001
    endloop
  endfacet
  facet normal  0.000000e+000  0.000000e+000  1.000000e+000
    outer loop
      vertex  3.613114e+000  2.100000e+001  1.100000e+001
      vertex  1.128566e+001  2.100000e+001  1.100000e+001
      vertex  3.613114e+000  2.200000e+001  1.100000e+001
    endloop
  endfacet
  facet normal  -0.000000e+000  0.000000e+000  1.000000e+000
    outer loop
      vertex  3.613114e+000  2.200000e+001  1.100000e+001
      vertex  1.128566e+001  2.100000e+001  1.100000e+001
      vertex  1.128566e+001  2.200000e+001  1.100000e+001
    endloop
  endfacet
  facet normal  0.000000e+000  0.000000e+000  1.000000e+000
    outer loop
      vertex  3.613114e+000  2.000000e+001  8.000000e+000
      vertex  1.128566e+001  2.000000e+001  8.000000e+000
      vertex  3.613114e+000  2.100000e+001  8.000000e+000
    endloop
  endfacet
  facet normal  -0.000000e+000  0.000000e+000  1.000000e+000
    outer loop
      vertex  3.613114e+000  2.100000e+001  8.000000e+000
      vertex  1.128566e+001  2.000000e+001  8.000000e+000
      vertex  1.128566e+001  2.100000e+001  8.000000e+000
    endloop
  endfacet
  facet normal  0.000000e+000  0.000000e+000  1.000000e+000
    outer loop
      vertex  1.782877e+001  2.100000e+001  8.000000e+000
      vertex  1.782877e+001  2.000000e+001  8.000000e+000
      vertex  2.000000e+001  2.100000e+001  8.000000e+000
    endloop
  endfacet
  facet normal  0.000000e+000  0.000000e+000  1.000000e+000
    outer loop
      vertex  2.000000e+001  2.100000e+001  8.000000e+000
      vertex  1.782877e+001  2.000000e+001  8.000000e+000
      vertex  1.900000e+001  2.000000e+001  8.000000e+000
    endloop
  endfacet
  facet normal  -0.000000e+000  0.000000e+000  1.000000e+000
    outer loop
      vertex  2.000000e+001  2.100000e+001  8.000000e+000
      vertex  1.900000e+001  2.000000e+001  8.000000e+000
      vertex  2.000000e+001  0.000000e+000  8.000000e+000
    endloop
  endfacet
  facet normal  0.000000e+000  0.000000e+000  1.000000e+000
    outer loop
      vertex  2.000000e+001  0.000000e+000  8.000000e+000
      vertex  1.900000e+001  2.000000e+001  8.000000e+000
      vertex  1.900000e+001  1.000000e+000  8.000000e+000
    endloop
  endfacet
  facet normal  0.000000e+000  0.000000e+000  1.000000e+000
    outer loop
      vertex  2.000000e+001  0.000000e+000  8.000000e+000
      vertex  1.900000e+001  1.000000e+000  8.000000e+000
      vertex  0.000000e+000  0.000000e+000  8.000000e+000
    endloop
  endfacet
  facet normal  0.000000e+000  0.000000e+000  1.000000e+000
    outer loop
      vertex  0.000000e+000  0.000000e+000  8.000000e+000
      vertex  1.900000e+001  1.000000e+000  8.000000e+000
      vertex  1.000000e+000  1.000000e+000  8.000000e+000
    endloop
  endfacet
  facet normal  0.000000e+000  0.000000e+000  1.000000e+000
    outer loop
      vertex  0.000000e+000  0.000000e+000  8.000000e+000
      vertex  1.000000e+000  1.000000e+000  8.000000e+000
      vertex  0.000000e+000  2.000000e+001  8.000000e+000
    endloop
  endfacet
  facet normal  -0.000000e+000  0.000000e+000  1.000000e+000
    outer loop
      vertex  0.000000e+000  2.000000e+001  8.000000e+000
      vertex  1.000000e+000  1.000000e+000  8.000000e+000
      vertex  1.000000e+000  2.000000e+001  8.000000e+000
    endloop
  endfacet
  facet normal  0.000000e+000 -1.000000e+000  0.000000e+000
    outer loop
      vertex  1.128566e+001  2.100000e+001  1.100000e+001
      vertex  3.613114e+000  2.100000e+001  1.100000e+001
      vertex  1.128566e+001  2.100000e+001  8.000000e+000
    endloop
  endfacet
  facet normal  0.000000e+000 -1.000000e+000  0.000000e+000
    outer loop
      vertex  1.128566e+001  2.100000e+001  8.000000e+000
      vertex  3.613114e+000  2.100000e+001  1.100000e+001
      vertex  3.613114e+000  2.100000e+001  8.000000e+000
    endloop
  endfacet
  facet normal  0.000000e+000  1.000000e+000  0.000000e+000
    outer loop
      vertex  1.128566e+001  2.200000e+001  1.000000e+001
      vertex  3.613114e+000  2.200000e+001  1.000000e+001
      vertex  1.128566e+001  2.200000e+001  1.100000e+001
    endloop
  endfacet
  facet normal  0.000000e+000  1.000000e+000  0.000000e+000
    outer loop
      vertex  1.128566e+001  2.200000e+001  1.100000e+001
      vertex  3.613114e+000  2.200000e+001  1.000000e+001
      vertex  3.613114e+000  2.200000e+001  1.100000e+001
    endloop
  endfacet
  facet normal  1.000000e+000  -0.000000e+000  0.000000e+000
    outer loop
      vertex  1.000000e+000  3.300000e+001  1.100000e+001
      vertex  1.000000e+000  2.365730e+001  1.100000e+001
      vertex  1.000000e+000  3.300000e+001  1.000000e+001
    endloop
  endfacet
  facet normal  1.000000e+000  0.000000e+000  0.000000e+000
    outer loop
      vertex  1.000000e+000  3.300000e+001  1.000000e+001
      vertex  1.000000e+000  2.365730e+001  1.100000e+001
      vertex  1.000000e+000  2.365730e+001  1.000000e+001
    endloop
  endfacet
  facet normal  0.000000e+000  0.000000e+000  9.999999e-001
    outer loop
      vertex  1.782877e+001  2.294019e+001  1.000000e+001
      vertex  1.782877e+001  2.200000e+001  1.000000e+001
      vertex  2.100000e+001  2.200000e+001  1.000000e+001
    endloop
  endfacet
  facet normal  0.000000e+000  -0.000000e+000  1.000000e+000
    outer loop
      vertex  1.782877e+001  2.294019e+001  1.000000e+001
      vertex  2.100000e+001  2.200000e+001  1.000000e+001
      vertex  2.100000e+001  3.300000e+001  1.000000e+001
    endloop
  endfacet
  facet normal  0.000000e+000  0.000000e+000  1.000000e+000
    outer loop
      vertex  1.782877e+001  2.294019e+001  1.000000e+001
      vertex  2.100000e+001  3.300000e+001  1.000000e+001
      vertex  3.613114e+000  2.365730e+001  1.000000e+001
    endloop
  endfacet
  facet normal  0.000000e+000  0.000000e+000  1.000000e+000
    outer loop
      vertex  1.782877e+001  2.294019e+001  1.000000e+001
      vertex  3.613114e+000  2.365730e+001  1.000000e+001
      vertex  1.128566e+001  2.294019e+001  1.000000e+001
    endloop
  endfacet
  facet normal  0.000000e+000  0.000000e+000  1.000000e+000
    outer loop
      vertex  1.000000e+000  2.365730e+001  1.000000e+001
      vertex  3.613114e+000  2.365730e+001  1.000000e+001
      vertex  1.000000e+000  3.300000e+001  1.000000e+001
    endloop
  endfacet
  facet normal  -0.000000e+000  0.000000e+000  1.000000e+000
    outer loop
      vertex  1.000000e+000  3.300000e+001  1.000000e+001
      vertex  3.613114e+000  2.365730e+001  1.000000e+001
      vertex  2.100000e+001  3.300000e+001  1.000000e+001
    endloop
  endfacet
  facet normal  0.000000e+000  0.000000e+000  1.000000e+000
    outer loop
      vertex  3.613114e+000  2.200000e+001  1.000000e+001
      vertex  1.128566e+001  2.200000e+001  1.000000e+001
      vertex  3.613114e+000  2.365730e+001  1.000000e+001
    endloop
  endfacet
  facet normal  0.000000e+000  0.000000e+000  1.000000e+000
    outer loop
      vertex  3.613114e+000  2.365730e+001  1.000000e+001
      vertex  1.128566e+001  2.200000e+001  1.000000e+001
      vertex  1.128566e+001  2.294019e+001  1.000000e+001
    endloop
  endfacet
  facet normal  0.000000e+000  0.000000e+000  1.000000e+000
    outer loop
      vertex  1.000000e+000  1.000000e+000  1.000000e+000
      vertex  1.900000e+001  1.000000e+000  1.000000e+000
      vertex  1.782877e+001  1.904033e+001  1.000000e+000
    endloop
  endfacet
  facet normal  0.000000e+000  0.000000e+000  9.999999e-001
    outer loop
      vertex  1.000000e+000  1.000000e+000  1.000000e+000
      vertex  1.782877e+001  1.904033e+001  1.000000e+000
      vertex  1.128566e+001  1.904033e+001  1.000000e+000
    endloop
  endfacet
  facet normal  0.000000e+000  -0.000000e+000  1.000000e+000
    outer loop
      vertex  1.000000e+000  1.000000e+000  1.000000e+000
      vertex  1.128566e+001  1.904033e+001  1.000000e+000
      vertex  1.128566e+001  2.000000e+001  1.000000e+000
    endloop
  endfacet
  facet normal  0.000000e+000  0.000000e+000  9.999999e-001
    outer loop
      vertex  1.000000e+000  1.000000e+000  1.000000e+000
      vertex  1.128566e+001  2.000000e+001  1.000000e+000
      vertex  1.000000e+000  2.000000e+001  1.000000e+000
    endloop
  endfacet
  facet normal  0.000000e+000  0.000000e+000  1.000000e+000
    outer loop
      vertex  1.782877e+001  1.904033e+001  1.000000e+000
      vertex  1.900000e+001  1.000000e+000  1.000000e+000
      vertex  1.782877e+001  2.000000e+001  1.000000e+000
    endloop
  endfacet
  facet normal  -0.000000e+000  0.000000e+000  1.000000e+000
    outer loop
      vertex  1.782877e+001  2.000000e+001  1.000000e+000
      vertex  1.900000e+001  1.000000e+000  1.000000e+000
      vertex  1.900000e+001  2.000000e+001  1.000000e+000
    endloop
  endfacet
  facet normal  1.000000e+000  -0.000000e+000  0.000000e+000
    outer loop
      vertex  1.000000e+000  2.000000e+001  8.000000e+000
      vertex  1.000000e+000  1.000000e+000  8.000000e+000
      vertex  1.000000e+000  2.000000e+001  1.000000e+000
    endloop
  endfacet
  facet normal  1.000000e+000  0.000000e+000  0.000000e+000
    outer loop
      vertex  1.000000e+000  2.000000e+001  1.000000e+000
      vertex  1.000000e+000  1.000000e+000  8.000000e+000
      vertex  1.000000e+000  1.000000e+000  1.000000e+000
    endloop
  endfacet
  facet normal  0.000000e+000  0.000000e+000  9.999999e-001
    outer loop
      vertex  0.000000e+000  2.000000e+001  1.150000e+001
      vertex  3.613114e+000  2.000000e+001  1.150000e+001
      vertex  0.000000e+000  2.365730e+001  1.150000e+001
    endloop
  endfacet
  facet normal  -0.000000e+000  0.000000e+000  9.999999e-001
    outer loop
      vertex  0.000000e+000  2.365730e+001  1.150000e+001
      vertex  3.613114e+000  2.000000e+001  1.150000e+001
      vertex  3.613114e+000  2.365730e+001  1.150000e+001
    endloop
  endfacet
  facet normal  0.000000e+000 -1.000000e+000  0.000000e+000
    outer loop
      vertex  1.782877e+001  2.100000e+001  8.000000e+000
      vertex  2.000000e+001  2.100000e+001  8.000000e+000
      vertex  1.782877e+001  2.100000e+001  1.100000e+001
    endloop
  endfacet
  facet normal  0.000000e+000 -1.000000e+000  0.000000e+000
    outer loop
      vertex  1.782877e+001  2.100000e+001  1.100000e+001
      vertex  2.000000e+001  2.100000e+001  8.000000e+000
      vertex  2.200000e+001  2.100000e+001  1.100000e+001
    endloop
  endfacet
  facet normal  0.000000e+000 -1.000000e+000  0.000000e+000
    outer loop
      vertex  2.000000e+001  2.100000e+001  8.000000e+000
      vertex  2.000000e+001  2.100000e+001  0.000000e+000
      vertex  2.200000e+001  2.100000e+001  1.100000e+001
    endloop
  endfacet
  facet normal  0.000000e+000 -1.000000e+000  -0.000000e+000
    outer loop
      vertex  2.200000e+001  2.100000e+001  1.100000e+001
      vertex  2.000000e+001  2.100000e+001  0.000000e+000
      vertex  2.200000e+001  2.100000e+001  0.000000e+000
    endloop
  endfacet
  facet normal  0.000000e+000 -1.000000e+000  0.000000e+000
    outer loop
      vertex  1.900000e+001  2.000000e+001  8.000000e+000
      vertex  1.782877e+001  2.000000e+001  8.000000e+000
      vertex  1.900000e+001  2.000000e+001  1.000000e+000
    endloop
  endfacet
  facet normal  0.000000e+000 -1.000000e+000  0.000000e+000
    outer loop
      vertex  1.900000e+001  2.000000e+001  1.000000e+000
      vertex  1.782877e+001  2.000000e+001  8.000000e+000
      vertex  1.782877e+001  2.000000e+001  1.000000e+000
    endloop
  endfacet
  facet normal  0.000000e+000  1.000000e+000  0.000000e+000
    outer loop
      vertex  2.100000e+001  2.200000e+001  1.000000e+001
      vertex  1.782877e+001  2.200000e+001  1.000000e+001
      vertex  2.100000e+001  2.200000e+001  1.100000e+001
    endloop
  endfacet
  facet normal  0.000000e+000  1.000000e+000  0.000000e+000
    outer loop
      vertex  2.100000e+001  2.200000e+001  1.100000e+001
      vertex  1.782877e+001  2.200000e+001  1.000000e+001
      vertex  1.782877e+001  2.200000e+001  1.100000e+001
    endloop
  endfacet
  facet normal -1.000000e+000  0.000000e+000  0.000000e+000
    outer loop
      vertex  1.128566e+001  2.100000e+001  1.100000e+001
      vertex  1.128566e+001  2.100000e+001  8.000000e+000
      vertex  1.128566e+001  2.000000e+001  8.000000e+000
    endloop
  endfacet
  facet normal -1.000000e+000  0.000000e+000  0.000000e+000
    outer loop
      vertex  1.128566e+001  2.100000e+001  1.100000e+001
      vertex  1.128566e+001  2.000000e+001  8.000000e+000
      vertex  1.128566e+001  1.904033e+001  1.300000e+001
    endloop
  endfacet
  facet normal -9.999999e-001  0.000000e+000  0.000000e+000
    outer loop
      vertex  1.128566e+001  2.100000e+001  1.100000e+001
      vertex  1.128566e+001  1.904033e+001  1.300000e+001
      vertex  1.128566e+001  2.294019e+001  1.300000e+001
    endloop
  endfacet
  facet normal -1.000000e+000  0.000000e+000  0.000000e+000
    outer loop
      vertex  1.128566e+001  2.100000e+001  1.100000e+001
      vertex  1.128566e+001  2.294019e+001  1.300000e+001
      vertex  1.128566e+001  2.200000e+001  1.100000e+001
    endloop
  endfacet
  facet normal -1.000000e+000  0.000000e+000  0.000000e+000
    outer loop
      vertex  1.128566e+001  2.294019e+001  1.000000e+001
      vertex  1.128566e+001  2.200000e+001  1.000000e+001
      vertex  1.128566e+001  2.294019e+001  1.300000e+001
    endloop
  endfacet
  facet normal -1.000000e+000  0.000000e+000  0.000000e+000
    outer loop
      vertex  1.128566e+001  2.294019e+001  1.300000e+001
      vertex  1.128566e+001  2.200000e+001  1.000000e+001
      vertex  1.128566e+001  2.200000e+001  1.100000e+001
    endloop
  endfacet
  facet normal -1.000000e+000  0.000000e+000  0.000000e+000
    outer loop
      vertex  1.128566e+001  2.000000e+001  8.000000e+000
      vertex  1.128566e+001  2.000000e+001  1.000000e+000
      vertex  1.128566e+001  1.904033e+001  1.300000e+001
    endloop
  endfacet
  facet normal -1.000000e+000  0.000000e+000  0.000000e+000
    outer loop
      vertex  1.128566e+001  1.904033e+001  1.300000e+001
      vertex  1.128566e+001  2.000000e+001  1.000000e+000
      vertex  1.128566e+001  1.904033e+001  1.000000e+000
    endloop
  endfacet
  facet normal  0.000000e+000 -1.000000e+000  -0.000000e+000
    outer loop
      vertex  1.782877e+001  1.904033e+001  1.000000e+000
      vertex  1.782877e+001  1.904033e+001  1.300000e+001
      vertex  1.128566e+001  1.904033e+001  1.000000e+000
    endloop
  endfacet
  facet normal  0.000000e+000 -1.000000e+000  0.000000e+000
    outer loop
      vertex  1.128566e+001  1.904033e+001  1.000000e+000
      vertex  1.782877e+001  1.904033e+001  1.300000e+001
      vertex  1.128566e+001  1.904033e+001  1.300000e+001
    endloop
  endfacet
  facet normal  1.000000e+000  0.000000e+000  -0.000000e+000
    outer loop
      vertex  1.782877e+001  2.000000e+001  8.000000e+000
      vertex  1.782877e+001  2.100000e+001  8.000000e+000
      vertex  1.782877e+001  2.100000e+001  1.100000e+001
    endloop
  endfacet
  facet normal  1.000000e+000  0.000000e+000  0.000000e+000
    outer loop
      vertex  1.782877e+001  2.000000e+001  8.000000e+000
      vertex  1.782877e+001  2.100000e+001  1.100000e+001
      vertex  1.782877e+001  1.904033e+001  1.300000e+001
    endloop
  endfacet
  facet normal  1.000000e+000  0.000000e+000  0.000000e+000
    outer loop
      vertex  1.782877e+001  2.000000e+001  8.000000e+000
      vertex  1.782877e+001  1.904033e+001  1.300000e+001
      vertex  1.782877e+001  1.904033e+001  1.000000e+000
    endloop
  endfacet
  facet normal  1.000000e+000  0.000000e+000  0.000000e+000
    outer loop
      vertex  1.782877e+001  2.000000e+001  8.000000e+000
      vertex  1.782877e+001  1.904033e+001  1.000000e+000
      vertex  1.782877e+001  2.000000e+001  1.000000e+000
    endloop
  endfacet
  facet normal  9.999999e-001  -0.000000e+000  0.000000e+000
    outer loop
      vertex  1.782877e+001  2.294019e+001  1.300000e+001
      vertex  1.782877e+001  1.904033e+001  1.300000e+001
      vertex  1.782877e+001  2.100000e+001  1.100000e+001
    endloop
  endfacet
  facet normal  1.000000e+000  0.000000e+000  0.000000e+000
    outer loop
      vertex  1.782877e+001  2.294019e+001  1.300000e+001
      vertex  1.782877e+001  2.100000e+001  1.100000e+001
      vertex  1.782877e+001  2.200000e+001  1.100000e+001
    endloop
  endfacet
  facet normal  1.000000e+000  -0.000000e+000  0.000000e+000
    outer loop
      vertex  1.782877e+001  2.294019e+001  1.300000e+001
      vertex  1.782877e+001  2.200000e+001  1.100000e+001
      vertex  1.782877e+001  2.200000e+001  1.000000e+001
    endloop
  endfacet
  facet normal  1.000000e+000  0.000000e+000  0.000000e+000
    outer loop
      vertex  1.782877e+001  2.294019e+001  1.300000e+001
      vertex  1.782877e+001  2.200000e+001  1.000000e+001
      vertex  1.782877e+001  2.294019e+001  1.000000e+001
    endloop
  endfacet
  facet normal  0.000000e+000  1.000000e+000  0.000000e+000
    outer loop
      vertex  1.128566e+001  2.294019e+001  1.000000e+001
      vertex  1.128566e+001  2.294019e+001  1.300000e+001
      vertex  1.782877e+001  2.294019e+001  1.000000e+001
    endloop
  endfacet
  facet normal  0.000000e+000  1.000000e+000  -0.000000e+000
    outer loop
      vertex  1.782877e+001  2.294019e+001  1.000000e+001
      vertex  1.128566e+001  2.294019e+001  1.300000e+001
      vertex  1.782877e+001  2.294019e+001  1.300000e+001
    endloop
  endfacet
  facet normal  0.000000e+000  0.000000e+000  1.000000e+000
    outer loop
      vertex  1.128566e+001  1.904033e+001  1.300000e+001
      vertex  1.782877e+001  1.904033e+001  1.300000e+001
      vertex  1.128566e+001  2.294019e+001  1.300000e+001
    endloop
  endfacet
  facet normal  -0.000000e+000  0.000000e+000  1.000000e+000
    outer loop
      vertex  1.128566e+001  2.294019e+001  1.300000e+001
      vertex  1.782877e+001  1.904033e+001  1.300000e+001
      vertex  1.782877e+001  2.294019e+001  1.300000e+001
    endloop
  endfacet
  facet normal  0.000000e+000 -1.000000e+000  0.000000e+000
    outer loop
      vertex  1.000000e+000  3.300000e+001  1.000000e+001
      vertex  2.100000e+001  3.300000e+001  1.000000e+001
      vertex  1.000000e+000  3.300000e+001  1.100000e+001
    endloop
  endfacet
  facet normal  0.000000e+000 -1.000000e+000  0.000000e+000
    outer loop
      vertex  1.000000e+000  3.300000e+001  1.100000e+001
      vertex  2.100000e+001  3.300000e+001  1.000000e+001
      vertex  2.100000e+001  3.300000e+001  1.100000e+001
    endloop
  endfacet
  facet normal -1.000000e+000  0.000000e+000  0.000000e+000
    outer loop
      vertex  2.100000e+001  2.200000e+001  1.000000e+001
      vertex  2.100000e+001  2.200000e+001  1.100000e+001
      vertex  2.100000e+001  3.300000e+001  1.000000e+001
    endloop
  endfacet
  facet normal -1.000000e+000  0.000000e+000  0.000000e+000
    outer loop
      vertex  2.100000e+001  3.300000e+001  1.000000e+001
      vertex  2.100000e+001  2.200000e+001  1.100000e+001
      vertex  2.100000e+001  3.300000e+001  1.100000e+001
    endloop
  endfacet
  facet normal  1.000000e+000  0.000000e+000  0.000000e+000
    outer loop
      vertex  2.000000e+001  0.000000e+000  8.000000e+000
      vertex  2.000000e+001  0.000000e+000  0.000000e+000
      vertex  2.000000e+001  2.100000e+001  8.000000e+000
    endloop
  endfacet
  facet normal  1.000000e+000  0.000000e+000  0.000000e+000
    outer loop
      vertex  2.000000e+001  2.100000e+001  8.000000e+000
      vertex  2.000000e+001  0.000000e+000  0.000000e+000
      vertex  2.000000e+001  2.100000e+001  0.000000e+000
    endloop
  endfacet
  facet normal  1.000000e+000  0.000000e+000  0.000000e+000
    outer loop
      vertex  2.200000e+001  2.100000e+001  1.100000e+001
      vertex  2.200000e+001  2.100000e+001  0.000000e+000
      vertex  2.200000e+001  3.400000e+001  1.100000e+001
    endloop
  endfacet
  facet normal  1.000000e+000  0.000000e+000  0.000000e+000
    outer loop
      vertex  2.200000e+001  3.400000e+001  1.100000e+001
      vertex  2.200000e+001  2.100000e+001  0.000000e+000
      vertex  2.200000e+001  3.400000e+001  0.000000e+000
    endloop
  endfacet
  facet normal  0.000000e+000  1.000000e+000  0.000000e+000
    outer loop
      vertex  1.000000e+000  1.000000e+000  8.000000e+000
      vertex  1.900000e+001  1.000000e+000  8.000000e+000
      vertex  1.000000e+000  1.000000e+000  1.000000e+000
    endloop
  endfacet
  facet normal  0.000000e+000  1.000000e+000  0.000000e+000
    outer loop
      vertex  1.000000e+000  1.000000e+000  1.000000e+000
      vertex  1.900000e+001  1.000000e+000  8.000000e+000
      vertex  1.900000e+001  1.000000e+000  1.000000e+000
    endloop
  endfacet
  facet normal -1.000000e+000  -0.000000e+000  0.000000e+000
    outer loop
      vertex  1.900000e+001  1.000000e+000  8.000000e+000
      vertex  1.900000e+001  2.000000e+001  8.000000e+000
      vertex  1.900000e+001  1.000000e+000  1.000000e+000
    endloop
  endfacet
  facet normal -1.000000e+000  0.000000e+000  0.000000e+000
    outer loop
      vertex  1.900000e+001  1.000000e+000  1.000000e+000
      vertex  1.900000e+001  2.000000e+001  8.000000e+000
      vertex  1.900000e+001  2.000000e+001  1.000000e+000
    endloop
  endfacet
endsolid CATIA STL
