solid CATIA STL
  facet normal  -0.000000e+000  0.000000e+000 -1.000000e+000
    outer loop
      vertex -5.000000e+000  2.500000e+001  0.000000e+000
      vertex  1.600000e+001  2.500000e+001  0.000000e+000
      vertex -5.000000e+000  1.700000e+001  0.000000e+000
    endloop
  endfacet
  facet normal  0.000000e+000  0.000000e+000 -1.000000e+000
    outer loop
      vertex -5.000000e+000  1.700000e+001  0.000000e+000
      vertex  1.600000e+001  2.500000e+001  0.000000e+000
      vertex  0.000000e+000  1.700000e+001  0.000000e+000
    endloop
  endfacet
  facet normal  0.000000e+000  0.000000e+000 -1.000000e+000
    outer loop
      vertex  1.600000e+001  2.500000e+001  0.000000e+000
      vertex  1.600000e+001  0.000000e+000  0.000000e+000
      vertex  0.000000e+000  1.700000e+001  0.000000e+000
    endloop
  endfacet
  facet normal  0.000000e+000  0.000000e+000 -1.000000e+000
    outer loop
      vertex  0.000000e+000  1.700000e+001  0.000000e+000
      vertex  1.600000e+001  0.000000e+000  0.000000e+000
      vertex  0.000000e+000  0.000000e+000  0.000000e+000
    endloop
  endfacet
  facet normal  0.000000e+000  0.000000e+000  1.000000e+000
    outer loop
      vertex -5.000000e+000  2.103033e+001  1.500000e+001
      vertex -1.928661e+000  2.103033e+001  1.500000e+001
      vertex -5.000000e+000  2.500000e+001  1.500000e+001
    endloop
  endfacet
  facet normal  -0.000000e+000  0.000000e+000  1.000000e+000
    outer loop
      vertex -5.000000e+000  2.500000e+001  1.500000e+001
      vertex -1.928661e+000  2.103033e+001  1.500000e+001
      vertex -1.928661e+000  2.500000e+001  1.500000e+001
    endloop
  endfacet
  facet normal -1.000000e+000  0.000000e+000  0.000000e+000
    outer loop
      vertex -5.000000e+000  2.500000e+001  0.000000e+000
      vertex -5.000000e+000  1.700000e+001  0.000000e+000
      vertex -5.000000e+000  1.700000e+001  1.300000e+001
    endloop
  endfacet
  facet normal -1.000000e+000  0.000000e+000  0.000000e+000
    outer loop
      vertex -5.000000e+000  2.500000e+001  0.000000e+000
      vertex -5.000000e+000  1.700000e+001  1.300000e+001
      vertex -5.000000e+000  2.103033e+001  1.300000e+001
    endloop
  endfacet
  facet normal -1.000000e+000  0.000000e+000  0.000000e+000
    outer loop
      vertex -5.000000e+000  2.500000e+001  0.000000e+000
      vertex -5.000000e+000  2.103033e+001  1.300000e+001
      vertex -5.000000e+000  2.103033e+001  1.500000e+001
    endloop
  endfacet
  facet normal -1.000000e+000  0.000000e+000  0.000000e+000
    outer loop
      vertex -5.000000e+000  2.500000e+001  0.000000e+000
      vertex -5.000000e+000  2.103033e+001  1.500000e+001
      vertex -5.000000e+000  2.500000e+001  1.500000e+001
    endloop
  endfacet
  facet normal  0.000000e+000  9.999999e-001  0.000000e+000
    outer loop
      vertex -1.928661e+000  2.500000e+001  1.300000e+001
      vertex -5.476918e-001  2.500000e+001  1.300000e+001
      vertex -5.476918e-001  2.500000e+001  8.000000e+000
    endloop
  endfacet
  facet normal  0.000000e+000  1.000000e+000  0.000000e+000
    outer loop
      vertex -1.928661e+000  2.500000e+001  1.300000e+001
      vertex -5.476918e-001  2.500000e+001  8.000000e+000
      vertex -5.000000e+000  2.500000e+001  0.000000e+000
    endloop
  endfacet
  facet normal  0.000000e+000  1.000000e+000  0.000000e+000
    outer loop
      vertex -1.928661e+000  2.500000e+001  1.300000e+001
      vertex -5.000000e+000  2.500000e+001  0.000000e+000
      vertex -5.000000e+000  2.500000e+001  1.500000e+001
    endloop
  endfacet
  facet normal  -0.000000e+000  1.000000e+000  0.000000e+000
    outer loop
      vertex -1.928661e+000  2.500000e+001  1.300000e+001
      vertex -5.000000e+000  2.500000e+001  1.500000e+001
      vertex -1.928661e+000  2.500000e+001  1.500000e+001
    endloop
  endfacet
  facet normal  0.000000e+000  1.000000e+000  0.000000e+000
    outer loop
      vertex -5.476918e-001  2.500000e+001  8.000000e+000
      vertex  1.600000e+001  2.500000e+001  8.000000e+000
      vertex -5.000000e+000  2.500000e+001  0.000000e+000
    endloop
  endfacet
  facet normal  0.000000e+000  1.000000e+000  0.000000e+000
    outer loop
      vertex -5.000000e+000  2.500000e+001  0.000000e+000
      vertex  1.600000e+001  2.500000e+001  8.000000e+000
      vertex  1.600000e+001  2.500000e+001  0.000000e+000
    endloop
  endfacet
  facet normal  1.000000e+000  0.000000e+000  0.000000e+000
    outer loop
      vertex -1.928661e+000  2.103033e+001  1.500000e+001
      vertex -1.928661e+000  2.103033e+001  1.300000e+001
      vertex -1.928661e+000  2.500000e+001  1.500000e+001
    endloop
  endfacet
  facet normal  1.000000e+000  0.000000e+000  0.000000e+000
    outer loop
      vertex -1.928661e+000  2.500000e+001  1.500000e+001
      vertex -1.928661e+000  2.103033e+001  1.300000e+001
      vertex -1.928661e+000  2.500000e+001  1.300000e+001
    endloop
  endfacet
  facet normal  0.000000e+000 -1.000000e+000  0.000000e+000
    outer loop
      vertex -1.928661e+000  2.103033e+001  1.500000e+001
      vertex -5.000000e+000  2.103033e+001  1.500000e+001
      vertex -1.928661e+000  2.103033e+001  1.300000e+001
    endloop
  endfacet
  facet normal  0.000000e+000 -1.000000e+000  0.000000e+000
    outer loop
      vertex -1.928661e+000  2.103033e+001  1.300000e+001
      vertex -5.000000e+000  2.103033e+001  1.500000e+001
      vertex -5.000000e+000  2.103033e+001  1.300000e+001
    endloop
  endfacet
  facet normal  -0.000000e+000  0.000000e+000  1.000000e+000
    outer loop
      vertex -5.476918e-001  2.500000e+001  1.300000e+001
      vertex -1.928661e+000  2.500000e+001  1.300000e+001
      vertex -5.476918e-001  1.700000e+001  1.300000e+001
    endloop
  endfacet
  facet normal  0.000000e+000  0.000000e+000  1.000000e+000
    outer loop
      vertex -5.476918e-001  1.700000e+001  1.300000e+001
      vertex -1.928661e+000  2.500000e+001  1.300000e+001
      vertex -1.928661e+000  2.103033e+001  1.300000e+001
    endloop
  endfacet
  facet normal  0.000000e+000  0.000000e+000  1.000000e+000
    outer loop
      vertex -5.476918e-001  1.700000e+001  1.300000e+001
      vertex -1.928661e+000  2.103033e+001  1.300000e+001
      vertex -5.000000e+000  1.700000e+001  1.300000e+001
    endloop
  endfacet
  facet normal  0.000000e+000  0.000000e+000  9.999999e-001
    outer loop
      vertex -5.000000e+000  1.700000e+001  1.300000e+001
      vertex -1.928661e+000  2.103033e+001  1.300000e+001
      vertex -5.000000e+000  2.103033e+001  1.300000e+001
    endloop
  endfacet
  facet normal  0.000000e+000 -1.000000e+000  0.000000e+000
    outer loop
      vertex -5.000000e+000  1.700000e+001  0.000000e+000
      vertex  0.000000e+000  1.700000e+001  0.000000e+000
      vertex  0.000000e+000  1.700000e+001  8.000000e+000
    endloop
  endfacet
  facet normal  -0.000000e+000 -1.000000e+000  0.000000e+000
    outer loop
      vertex -5.000000e+000  1.700000e+001  0.000000e+000
      vertex  0.000000e+000  1.700000e+001  8.000000e+000
      vertex -5.476918e-001  1.700000e+001  8.000000e+000
    endloop
  endfacet
  facet normal  -0.000000e+000 -1.000000e+000  0.000000e+000
    outer loop
      vertex -5.000000e+000  1.700000e+001  0.000000e+000
      vertex -5.476918e-001  1.700000e+001  8.000000e+000
      vertex -5.476918e-001  1.700000e+001  1.300000e+001
    endloop
  endfacet
  facet normal  -0.000000e+000 -1.000000e+000  0.000000e+000
    outer loop
      vertex -5.000000e+000  1.700000e+001  0.000000e+000
      vertex -5.476918e-001  1.700000e+001  1.300000e+001
      vertex -5.000000e+000  1.700000e+001  1.300000e+001
    endloop
  endfacet
  facet normal  1.000000e+000  0.000000e+000  -0.000000e+000
    outer loop
      vertex -5.476918e-001  2.400000e+001  8.000000e+000
      vertex -5.476918e-001  2.500000e+001  8.000000e+000
      vertex -5.476918e-001  2.500000e+001  1.300000e+001
    endloop
  endfacet
  facet normal  1.000000e+000  0.000000e+000  0.000000e+000
    outer loop
      vertex -5.476918e-001  2.400000e+001  8.000000e+000
      vertex -5.476918e-001  2.500000e+001  1.300000e+001
      vertex -5.476918e-001  1.800000e+001  8.000000e+000
    endloop
  endfacet
  facet normal  1.000000e+000  -0.000000e+000  0.000000e+000
    outer loop
      vertex -5.476918e-001  2.400000e+001  8.000000e+000
      vertex -5.476918e-001  1.800000e+001  8.000000e+000
      vertex -5.476918e-001  1.800000e+001  7.000000e+000
    endloop
  endfacet
  facet normal  1.000000e+000  0.000000e+000  0.000000e+000
    outer loop
      vertex -5.476918e-001  2.400000e+001  8.000000e+000
      vertex -5.476918e-001  1.800000e+001  7.000000e+000
      vertex -5.476918e-001  2.400000e+001  7.000000e+000
    endloop
  endfacet
  facet normal  1.000000e+000  0.000000e+000  0.000000e+000
    outer loop
      vertex -5.476918e-001  1.700000e+001  1.300000e+001
      vertex -5.476918e-001  1.700000e+001  8.000000e+000
      vertex -5.476918e-001  2.500000e+001  1.300000e+001
    endloop
  endfacet
  facet normal  1.000000e+000  0.000000e+000  0.000000e+000
    outer loop
      vertex -5.476918e-001  2.500000e+001  1.300000e+001
      vertex -5.476918e-001  1.700000e+001  8.000000e+000
      vertex -5.476918e-001  1.800000e+001  8.000000e+000
    endloop
  endfacet
  facet normal  0.000000e+000  0.000000e+000  1.000000e+000
    outer loop
      vertex -5.476918e-001  2.500000e+001  8.000000e+000
      vertex -5.476918e-001  2.400000e+001  8.000000e+000
      vertex  1.600000e+001  2.500000e+001  8.000000e+000
    endloop
  endfacet
  facet normal  0.000000e+000  0.000000e+000  1.000000e+000
    outer loop
      vertex  1.600000e+001  2.500000e+001  8.000000e+000
      vertex -5.476918e-001  2.400000e+001  8.000000e+000
      vertex  1.500000e+001  2.400000e+001  8.000000e+000
    endloop
  endfacet
  facet normal  -0.000000e+000  0.000000e+000  1.000000e+000
    outer loop
      vertex  1.600000e+001  2.500000e+001  8.000000e+000
      vertex  1.500000e+001  2.400000e+001  8.000000e+000
      vertex  1.600000e+001  0.000000e+000  8.000000e+000
    endloop
  endfacet
  facet normal  0.000000e+000  0.000000e+000  1.000000e+000
    outer loop
      vertex  1.600000e+001  0.000000e+000  8.000000e+000
      vertex  1.500000e+001  2.400000e+001  8.000000e+000
      vertex  1.500000e+001  1.000000e+000  8.000000e+000
    endloop
  endfacet
  facet normal  0.000000e+000  0.000000e+000  1.000000e+000
    outer loop
      vertex  1.600000e+001  0.000000e+000  8.000000e+000
      vertex  1.500000e+001  1.000000e+000  8.000000e+000
      vertex  0.000000e+000  0.000000e+000  8.000000e+000
    endloop
  endfacet
  facet normal  0.000000e+000  0.000000e+000  1.000000e+000
    outer loop
      vertex  0.000000e+000  0.000000e+000  8.000000e+000
      vertex  1.500000e+001  1.000000e+000  8.000000e+000
      vertex  1.000000e+000  1.000000e+000  8.000000e+000
    endloop
  endfacet
  facet normal  0.000000e+000  0.000000e+000  1.000000e+000
    outer loop
      vertex  0.000000e+000  0.000000e+000  8.000000e+000
      vertex  1.000000e+000  1.000000e+000  8.000000e+000
      vertex  0.000000e+000  1.700000e+001  8.000000e+000
    endloop
  endfacet
  facet normal  -0.000000e+000  0.000000e+000  1.000000e+000
    outer loop
      vertex  0.000000e+000  1.700000e+001  8.000000e+000
      vertex  1.000000e+000  1.000000e+000  8.000000e+000
      vertex  1.000000e+000  1.800000e+001  8.000000e+000
    endloop
  endfacet
  facet normal  0.000000e+000  0.000000e+000  1.000000e+000
    outer loop
      vertex  0.000000e+000  1.700000e+001  8.000000e+000
      vertex  1.000000e+000  1.800000e+001  8.000000e+000
      vertex -5.476918e-001  1.700000e+001  8.000000e+000
    endloop
  endfacet
  facet normal  0.000000e+000  0.000000e+000  1.000000e+000
    outer loop
      vertex -5.476918e-001  1.700000e+001  8.000000e+000
      vertex  1.000000e+000  1.800000e+001  8.000000e+000
      vertex -5.476918e-001  1.800000e+001  8.000000e+000
    endloop
  endfacet
  facet normal  0.000000e+000 -1.000000e+000  -0.000000e+000
    outer loop
      vertex  1.500000e+001  2.400000e+001  7.000000e+000
      vertex  1.500000e+001  2.400000e+001  8.000000e+000
      vertex -5.476918e-001  2.400000e+001  7.000000e+000
    endloop
  endfacet
  facet normal  0.000000e+000 -1.000000e+000  0.000000e+000
    outer loop
      vertex -5.476918e-001  2.400000e+001  7.000000e+000
      vertex  1.500000e+001  2.400000e+001  8.000000e+000
      vertex -5.476918e-001  2.400000e+001  8.000000e+000
    endloop
  endfacet
  facet normal  0.000000e+000  1.000000e+000  0.000000e+000
    outer loop
      vertex -5.476918e-001  1.800000e+001  7.000000e+000
      vertex -5.476918e-001  1.800000e+001  8.000000e+000
      vertex  1.000000e+000  1.800000e+001  7.000000e+000
    endloop
  endfacet
  facet normal  0.000000e+000  1.000000e+000  -0.000000e+000
    outer loop
      vertex  1.000000e+000  1.800000e+001  7.000000e+000
      vertex -5.476918e-001  1.800000e+001  8.000000e+000
      vertex  1.000000e+000  1.800000e+001  8.000000e+000
    endloop
  endfacet
  facet normal  0.000000e+000  0.000000e+000  1.000000e+000
    outer loop
      vertex -5.476918e-001  2.400000e+001  7.000000e+000
      vertex -5.476918e-001  1.800000e+001  7.000000e+000
      vertex  1.500000e+001  2.400000e+001  7.000000e+000
    endloop
  endfacet
  facet normal  0.000000e+000  0.000000e+000  1.000000e+000
    outer loop
      vertex  1.500000e+001  2.400000e+001  7.000000e+000
      vertex -5.476918e-001  1.800000e+001  7.000000e+000
      vertex  1.000000e+000  1.800000e+001  7.000000e+000
    endloop
  endfacet
  facet normal  -0.000000e+000  0.000000e+000  1.000000e+000
    outer loop
      vertex  1.500000e+001  2.400000e+001  7.000000e+000
      vertex  1.000000e+000  1.800000e+001  7.000000e+000
      vertex  1.500000e+001  1.000000e+000  7.000000e+000
    endloop
  endfacet
  facet normal  0.000000e+000  0.000000e+000  1.000000e+000
    outer loop
      vertex  1.500000e+001  1.000000e+000  7.000000e+000
      vertex  1.000000e+000  1.800000e+001  7.000000e+000
      vertex  1.000000e+000  1.000000e+000  7.000000e+000
    endloop
  endfacet
  facet normal -1.000000e+000  0.000000e+000  0.000000e+000
    outer loop
      vertex  1.500000e+001  1.000000e+000  7.000000e+000
      vertex  1.500000e+001  1.000000e+000  8.000000e+000
      vertex  1.500000e+001  2.400000e+001  7.000000e+000
    endloop
  endfacet
  facet normal -1.000000e+000  0.000000e+000  0.000000e+000
    outer loop
      vertex  1.500000e+001  2.400000e+001  7.000000e+000
      vertex  1.500000e+001  1.000000e+000  8.000000e+000
      vertex  1.500000e+001  2.400000e+001  8.000000e+000
    endloop
  endfacet
  facet normal  0.000000e+000  1.000000e+000  0.000000e+000
    outer loop
      vertex  1.000000e+000  1.000000e+000  7.000000e+000
      vertex  1.000000e+000  1.000000e+000  8.000000e+000
      vertex  1.500000e+001  1.000000e+000  7.000000e+000
    endloop
  endfacet
  facet normal  0.000000e+000  1.000000e+000  -0.000000e+000
    outer loop
      vertex  1.500000e+001  1.000000e+000  7.000000e+000
      vertex  1.000000e+000  1.000000e+000  8.000000e+000
      vertex  1.500000e+001  1.000000e+000  8.000000e+000
    endloop
  endfacet
  facet normal  1.000000e+000  0.000000e+000  0.000000e+000
    outer loop
      vertex  1.000000e+000  1.800000e+001  7.000000e+000
      vertex  1.000000e+000  1.800000e+001  8.000000e+000
      vertex  1.000000e+000  1.000000e+000  7.000000e+000
    endloop
  endfacet
  facet normal  1.000000e+000  0.000000e+000  0.000000e+000
    outer loop
      vertex  1.000000e+000  1.000000e+000  7.000000e+000
      vertex  1.000000e+000  1.800000e+001  8.000000e+000
      vertex  1.000000e+000  1.000000e+000  8.000000e+000
    endloop
  endfacet
  facet normal -1.000000e+000  0.000000e+000  0.000000e+000
    outer loop
      vertex  0.000000e+000  1.700000e+001  8.000000e+000
      vertex  0.000000e+000  1.700000e+001  0.000000e+000
      vertex  0.000000e+000  0.000000e+000  8.000000e+000
    endloop
  endfacet
  facet normal -1.000000e+000  0.000000e+000  0.000000e+000
    outer loop
      vertex  0.000000e+000  0.000000e+000  8.000000e+000
      vertex  0.000000e+000  1.700000e+001  0.000000e+000
      vertex  0.000000e+000  0.000000e+000  0.000000e+000
    endloop
  endfacet
  facet normal  1.000000e+000  0.000000e+000  0.000000e+000
    outer loop
      vertex  1.600000e+001  0.000000e+000  8.000000e+000
      vertex  1.600000e+001  0.000000e+000  0.000000e+000
      vertex  1.600000e+001  2.500000e+001  8.000000e+000
    endloop
  endfacet
  facet normal  1.000000e+000  0.000000e+000  0.000000e+000
    outer loop
      vertex  1.600000e+001  2.500000e+001  8.000000e+000
      vertex  1.600000e+001  0.000000e+000  0.000000e+000
      vertex  1.600000e+001  2.500000e+001  0.000000e+000
    endloop
  endfacet
  facet normal  0.000000e+000 -1.000000e+000  0.000000e+000
    outer loop
      vertex  0.000000e+000  0.000000e+000  8.000000e+000
      vertex  0.000000e+000  0.000000e+000  0.000000e+000
      vertex  1.600000e+001  0.000000e+000  8.000000e+000
    endloop
  endfacet
  facet normal  0.000000e+000 -1.000000e+000  -0.000000e+000
    outer loop
      vertex  1.600000e+001  0.000000e+000  8.000000e+000
      vertex  0.000000e+000  0.000000e+000  0.000000e+000
      vertex  1.600000e+001  0.000000e+000  0.000000e+000
    endloop
  endfacet
endsolid CATIA STL
