solid CATIA STL
  facet normal  1.036208e-015  0.000000e+000 -1.000000e+000
    outer loop
      vertex  0.000000e+000  7.500000e+001 -2.486900e-014
      vertex  2.400000e+001  7.500000e+001  0.000000e+000
      vertex  2.400000e+001  6.747686e+001  0.000000e+000
    endloop
  endfacet
  facet normal  0.000000e+000  0.000000e+000 -1.000000e+000
    outer loop
      vertex  2.600000e+001  6.747686e+001  0.000000e+000
      vertex  2.600000e+001  5.947686e+001  0.000000e+000
      vertex  2.400000e+001  6.747686e+001  0.000000e+000
    endloop
  endfacet
  facet normal -2.072416e-015 -9.917002e-015 -1.000000e+000
    outer loop
      vertex -1.200000e+001  7.500000e+001  0.000000e+000
      vertex  0.000000e+000  7.500000e+001 -2.486900e-014
      vertex  2.400000e+001  6.747686e+001  0.000000e+000
    endloop
  endfacet
  facet normal  -0.000000e+000  -0.000000e+000 -1.000000e+000
    outer loop
      vertex -1.200000e+001  7.500000e+001  0.000000e+000
      vertex  2.400000e+001  6.747686e+001  0.000000e+000
      vertex  2.600000e+001  5.947686e+001  0.000000e+000
    endloop
  endfacet
  facet normal  0.000000e+000  0.000000e+000 -1.000000e+000
    outer loop
      vertex -1.200000e+001  7.500000e+001  0.000000e+000
      vertex  2.600000e+001  5.947686e+001  0.000000e+000
      vertex  2.400000e+001  5.947686e+001  0.000000e+000
    endloop
  endfacet
  facet normal  -0.000000e+000  -0.000000e+000 -1.000000e+000
    outer loop
      vertex -1.200000e+001  7.500000e+001  0.000000e+000
      vertex  2.400000e+001  5.947686e+001  0.000000e+000
      vertex  2.400000e+001  1.930972e+001  0.000000e+000
    endloop
  endfacet
  facet normal  0.000000e+000  0.000000e+000 -1.000000e+000
    outer loop
      vertex  2.600000e+001  1.930972e+001  0.000000e+000
      vertex  2.600000e+001  1.130972e+001  0.000000e+000
      vertex  2.400000e+001  1.930972e+001  0.000000e+000
    endloop
  endfacet
  facet normal  0.000000e+000  0.000000e+000 -1.000000e+000
    outer loop
      vertex  2.400000e+001  1.930972e+001  0.000000e+000
      vertex  2.600000e+001  1.130972e+001  0.000000e+000
      vertex  2.400000e+001  1.130972e+001  0.000000e+000
    endloop
  endfacet
  facet normal  0.000000e+000  0.000000e+000 -1.000000e+000
    outer loop
      vertex  2.400000e+001  1.930972e+001  0.000000e+000
      vertex  2.400000e+001  1.130972e+001  0.000000e+000
      vertex -1.200000e+001  7.500000e+001  0.000000e+000
    endloop
  endfacet
  facet normal  0.000000e+000  0.000000e+000 -1.000000e+000
    outer loop
      vertex -1.200000e+001  7.500000e+001  0.000000e+000
      vertex  2.400000e+001  1.130972e+001  0.000000e+000
      vertex  2.400000e+001  0.000000e+000  0.000000e+000
    endloop
  endfacet
  facet normal  0.000000e+000  0.000000e+000 -1.000000e+000
    outer loop
      vertex -1.200000e+001  7.500000e+001  0.000000e+000
      vertex  2.400000e+001  0.000000e+000  0.000000e+000
      vertex -1.200000e+001  0.000000e+000  0.000000e+000
    endloop
  endfacet
  facet normal  0.000000e+000  1.000000e+000  0.000000e+000
    outer loop
      vertex  2.600000e+001  1.930972e+001  0.000000e+000
      vertex  2.400000e+001  1.930972e+001  0.000000e+000
      vertex  2.600000e+001  1.930972e+001  1.800000e+001
    endloop
  endfacet
  facet normal  0.000000e+000  1.000000e+000  0.000000e+000
    outer loop
      vertex  2.600000e+001  1.930972e+001  1.800000e+001
      vertex  2.400000e+001  1.930972e+001  0.000000e+000
      vertex  2.400000e+001  1.930972e+001  1.800000e+001
    endloop
  endfacet
  facet normal  0.000000e+000 -1.000000e+000  0.000000e+000
    outer loop
      vertex  2.600000e+001  1.130972e+001  1.800000e+001
      vertex  2.400000e+001  1.130972e+001  1.800000e+001
      vertex  2.600000e+001  1.130972e+001  0.000000e+000
    endloop
  endfacet
  facet normal  0.000000e+000 -1.000000e+000  0.000000e+000
    outer loop
      vertex  2.600000e+001  1.130972e+001  0.000000e+000
      vertex  2.400000e+001  1.130972e+001  1.800000e+001
      vertex  2.400000e+001  1.130972e+001  0.000000e+000
    endloop
  endfacet
  facet normal  0.000000e+000 -1.000000e+000  -0.000000e+000
    outer loop
      vertex  2.600000e+001  5.947686e+001  0.000000e+000
      vertex  2.600000e+001  5.947686e+001  1.500000e+001
      vertex  2.400000e+001  5.947686e+001  0.000000e+000
    endloop
  endfacet
  facet normal  0.000000e+000 -1.000000e+000  0.000000e+000
    outer loop
      vertex  2.400000e+001  5.947686e+001  0.000000e+000
      vertex  2.600000e+001  5.947686e+001  1.500000e+001
      vertex  2.400000e+001  5.947686e+001  1.500000e+001
    endloop
  endfacet
  facet normal  0.000000e+000  1.000000e+000  -0.000000e+000
    outer loop
      vertex  2.600000e+001  6.747686e+001  1.500000e+001
      vertex  2.600000e+001  6.747686e+001  0.000000e+000
      vertex  2.400000e+001  6.747686e+001  1.500000e+001
    endloop
  endfacet
  facet normal  0.000000e+000  1.000000e+000  0.000000e+000
    outer loop
      vertex  2.400000e+001  6.747686e+001  1.500000e+001
      vertex  2.600000e+001  6.747686e+001  0.000000e+000
      vertex  2.400000e+001  6.747686e+001  0.000000e+000
    endloop
  endfacet
  facet normal  9.999999e-001  0.000000e+000  0.000000e+000
    outer loop
      vertex  2.400000e+001  0.000000e+000  0.000000e+000
      vertex  2.400000e+001  1.130972e+001  0.000000e+000
      vertex  2.400000e+001  1.421085e-014  3.500000e+001
    endloop
  endfacet
  facet normal  9.999999e-001  0.000000e+000  0.000000e+000
    outer loop
      vertex  2.400000e+001  1.421085e-014  3.500000e+001
      vertex  2.400000e+001  1.130972e+001  0.000000e+000
      vertex  2.400000e+001  1.130972e+001  1.800000e+001
    endloop
  endfacet
  facet normal  1.000000e+000  0.000000e+000  -0.000000e+000
    outer loop
      vertex  2.400000e+001  1.421085e-014  3.500000e+001
      vertex  2.400000e+001  1.130972e+001  1.800000e+001
      vertex  2.400000e+001  1.930972e+001  1.800000e+001
    endloop
  endfacet
  facet normal  1.000000e+000  0.000000e+000  -0.000000e+000
    outer loop
      vertex  2.400000e+001  1.421085e-014  3.500000e+001
      vertex  2.400000e+001  1.930972e+001  1.800000e+001
      vertex  2.400000e+001  7.500000e+001  3.000000e+001
    endloop
  endfacet
  facet normal  1.000000e+000  0.000000e+000  0.000000e+000
    outer loop
      vertex  2.400000e+001  7.500000e+001  3.000000e+001
      vertex  2.400000e+001  1.930972e+001  1.800000e+001
      vertex  2.400000e+001  6.747686e+001  1.500000e+001
    endloop
  endfacet
  facet normal  1.000000e+000  -0.000000e+000  0.000000e+000
    outer loop
      vertex  2.400000e+001  7.500000e+001  3.000000e+001
      vertex  2.400000e+001  6.747686e+001  1.500000e+001
      vertex  2.400000e+001  7.500000e+001  0.000000e+000
    endloop
  endfacet
  facet normal  1.000000e+000  0.000000e+000  0.000000e+000
    outer loop
      vertex  2.400000e+001  7.500000e+001  0.000000e+000
      vertex  2.400000e+001  6.747686e+001  1.500000e+001
      vertex  2.400000e+001  6.747686e+001  0.000000e+000
    endloop
  endfacet
  facet normal  1.000000e+000  0.000000e+000  0.000000e+000
    outer loop
      vertex  2.400000e+001  1.930972e+001  0.000000e+000
      vertex  2.400000e+001  5.947686e+001  0.000000e+000
      vertex  2.400000e+001  1.930972e+001  1.800000e+001
    endloop
  endfacet
  facet normal  1.000000e+000  0.000000e+000  0.000000e+000
    outer loop
      vertex  2.400000e+001  1.930972e+001  1.800000e+001
      vertex  2.400000e+001  5.947686e+001  0.000000e+000
      vertex  2.400000e+001  5.947686e+001  1.500000e+001
    endloop
  endfacet
  facet normal  1.000000e+000  0.000000e+000  -0.000000e+000
    outer loop
      vertex  2.400000e+001  1.930972e+001  1.800000e+001
      vertex  2.400000e+001  5.947686e+001  1.500000e+001
      vertex  2.400000e+001  6.747686e+001  1.500000e+001
    endloop
  endfacet
  facet normal  -0.000000e+000  0.000000e+000  1.000000e+000
    outer loop
      vertex  2.600000e+001  1.930972e+001  1.800000e+001
      vertex  2.400000e+001  1.930972e+001  1.800000e+001
      vertex  2.600000e+001  1.130972e+001  1.800000e+001
    endloop
  endfacet
  facet normal  0.000000e+000  0.000000e+000  1.000000e+000
    outer loop
      vertex  2.600000e+001  1.130972e+001  1.800000e+001
      vertex  2.400000e+001  1.930972e+001  1.800000e+001
      vertex  2.400000e+001  1.130972e+001  1.800000e+001
    endloop
  endfacet
  facet normal  -0.000000e+000  0.000000e+000  1.000000e+000
    outer loop
      vertex  2.600000e+001  6.747686e+001  1.500000e+001
      vertex  2.400000e+001  6.747686e+001  1.500000e+001
      vertex  2.600000e+001  5.947686e+001  1.500000e+001
    endloop
  endfacet
  facet normal  0.000000e+000  0.000000e+000  1.000000e+000
    outer loop
      vertex  2.600000e+001  5.947686e+001  1.500000e+001
      vertex  2.400000e+001  6.747686e+001  1.500000e+001
      vertex  2.400000e+001  5.947686e+001  1.500000e+001
    endloop
  endfacet
  facet normal  1.000000e+000  0.000000e+000  0.000000e+000
    outer loop
      vertex  2.600000e+001  1.130972e+001  0.000000e+000
      vertex  2.600000e+001  1.930972e+001  0.000000e+000
      vertex  2.600000e+001  1.130972e+001  1.800000e+001
    endloop
  endfacet
  facet normal  1.000000e+000  -0.000000e+000  0.000000e+000
    outer loop
      vertex  2.600000e+001  1.130972e+001  1.800000e+001
      vertex  2.600000e+001  1.930972e+001  0.000000e+000
      vertex  2.600000e+001  1.930972e+001  1.800000e+001
    endloop
  endfacet
  facet normal  1.000000e+000  0.000000e+000  0.000000e+000
    outer loop
      vertex  2.600000e+001  5.947686e+001  0.000000e+000
      vertex  2.600000e+001  6.747686e+001  0.000000e+000
      vertex  2.600000e+001  5.947686e+001  1.500000e+001
    endloop
  endfacet
  facet normal  1.000000e+000  -0.000000e+000  0.000000e+000
    outer loop
      vertex  2.600000e+001  5.947686e+001  1.500000e+001
      vertex  2.600000e+001  6.747686e+001  0.000000e+000
      vertex  2.600000e+001  6.747686e+001  1.500000e+001
    endloop
  endfacet
  facet normal -1.000000e+000  0.000000e+000  0.000000e+000
    outer loop
      vertex -1.200000e+001  0.000000e+000  3.000000e+001
      vertex -1.200000e+001  7.800000e+001  3.800000e+001
      vertex -1.200000e+001  7.740464e+001  3.422628e+001
    endloop
  endfacet
  facet normal -9.999999e-001  0.000000e+000  0.000000e+000
    outer loop
      vertex -1.200000e+001  0.000000e+000  3.000000e+001
      vertex -1.200000e+001  7.740464e+001  3.422628e+001
      vertex -1.200000e+001  7.687491e+001  3.044795e+001
    endloop
  endfacet
  facet normal -1.000000e+000  0.000000e+000  0.000000e+000
    outer loop
      vertex -1.200000e+001  0.000000e+000  3.000000e+001
      vertex -1.200000e+001  7.687491e+001  3.044795e+001
      vertex -1.200000e+001  7.641080e+001  2.666501e+001
    endloop
  endfacet
  facet normal -1.000000e+000  -0.000000e+000  0.000000e+000
    outer loop
      vertex -1.200000e+001  0.000000e+000  3.000000e+001
      vertex -1.200000e+001  7.641080e+001  2.666501e+001
      vertex -1.200000e+001  0.000000e+000  0.000000e+000
    endloop
  endfacet
  facet normal -9.999999e-001  0.000000e+000  0.000000e+000
    outer loop
      vertex -1.200000e+001  0.000000e+000  0.000000e+000
      vertex -1.200000e+001  7.641080e+001  2.666501e+001
      vertex -1.200000e+001  7.601232e+001  2.287745e+001
    endloop
  endfacet
  facet normal -1.000000e+000  0.000000e+000  0.000000e+000
    outer loop
      vertex -1.200000e+001  0.000000e+000  0.000000e+000
      vertex -1.200000e+001  7.601232e+001  2.287745e+001
      vertex -1.200000e+001  7.567947e+001  1.908527e+001
    endloop
  endfacet
  facet normal -1.000000e+000  0.000000e+000  0.000000e+000
    outer loop
      vertex -1.200000e+001  0.000000e+000  0.000000e+000
      vertex -1.200000e+001  7.567947e+001  1.908527e+001
      vertex -1.200000e+001  7.541224e+001  1.528848e+001
    endloop
  endfacet
  facet normal -1.000000e+000  0.000000e+000  0.000000e+000
    outer loop
      vertex -1.200000e+001  0.000000e+000  0.000000e+000
      vertex -1.200000e+001  7.541224e+001  1.528848e+001
      vertex -1.200000e+001  7.521003e+001  1.147333e+001
    endloop
  endfacet
  facet normal -9.999999e-001  0.000000e+000  0.000000e+000
    outer loop
      vertex -1.200000e+001  0.000000e+000  0.000000e+000
      vertex -1.200000e+001  7.521003e+001  1.147333e+001
      vertex -1.200000e+001  7.507391e+001  7.653538e+000
    endloop
  endfacet
  facet normal -1.000000e+000  0.000000e+000  0.000000e+000
    outer loop
      vertex -1.200000e+001  0.000000e+000  0.000000e+000
      vertex -1.200000e+001  7.507391e+001  7.653538e+000
      vertex -1.200000e+001  7.500391e+001  3.829093e+000
    endloop
  endfacet
  facet normal -1.000000e+000  0.000000e+000  0.000000e+000
    outer loop
      vertex -1.200000e+001  0.000000e+000  0.000000e+000
      vertex -1.200000e+001  7.500391e+001  3.829093e+000
      vertex -1.200000e+001  7.500000e+001  0.000000e+000
    endloop
  endfacet
  facet normal  0.000000e+000 -1.000000e+000  0.000000e+000
    outer loop
      vertex -1.200000e+001  0.000000e+000  0.000000e+000
      vertex  2.400000e+001  0.000000e+000  0.000000e+000
      vertex -1.200000e+001  0.000000e+000  3.000000e+001
    endloop
  endfacet
  facet normal  0.000000e+000 -1.000000e+000  0.000000e+000
    outer loop
      vertex -1.200000e+001  0.000000e+000  3.000000e+001
      vertex  2.400000e+001  0.000000e+000  0.000000e+000
      vertex  0.000000e+000  0.000000e+000  3.000000e+001
    endloop
  endfacet
  facet normal  5.075305e-016 -1.000000e+000  4.060244e-016
    outer loop
      vertex  2.400000e+001  0.000000e+000  0.000000e+000
      vertex  2.400000e+001  1.421085e-014  3.500000e+001
      vertex  0.000000e+000  0.000000e+000  3.000000e+001
    endloop
  endfacet
  facet normal  0.000000e+000 -1.000000e+000  2.842171e-015
    outer loop
      vertex  0.000000e+000  0.000000e+000  3.000000e+001
      vertex  2.400000e+001  1.421085e-014  3.500000e+001
      vertex  0.000000e+000  1.421085e-014  3.500000e+001
    endloop
  endfacet
  facet normal  0.000000e+000 -1.020288e-001  9.947814e-001
    outer loop
      vertex  0.000000e+000  7.800000e+001  3.800000e+001
      vertex -1.200000e+001  7.800000e+001  3.800000e+001
      vertex  0.000000e+000  2.954545e+001  3.303030e+001
    endloop
  endfacet
  facet normal -7.494243e-008 -1.020289e-001  9.947814e-001
    outer loop
      vertex  0.000000e+000  2.954545e+001  3.303030e+001
      vertex -1.200000e+001  7.800000e+001  3.800000e+001
      vertex -1.200000e+001  0.000000e+000  3.000000e+001
    endloop
  endfacet
  facet normal  0.000000e+000 -1.020289e-001  9.947814e-001
    outer loop
      vertex  0.000000e+000  2.954545e+001  3.303030e+001
      vertex -1.200000e+001  0.000000e+000  3.000000e+001
      vertex  0.000000e+000  0.000000e+000  3.000000e+001
    endloop
  endfacet
  facet normal  1.996523e-004  9.998325e-001 -1.830216e-002
    outer loop
      vertex -1.200000e+001  7.500391e+001  3.829093e+000
      vertex -1.200000e+001  7.507391e+001  7.653538e+000
      vertex  0.000000e+000  7.506600e+001  7.352233e+000
    endloop
  endfacet
  facet normal -3.004770e-004  9.998622e-001 -1.659922e-002
    outer loop
      vertex -1.200000e+001  7.500391e+001  3.829093e+000
      vertex  0.000000e+000  7.506600e+001  7.352233e+000
      vertex  0.000000e+000  7.500000e+001  3.376575e+000
    endloop
  endfacet
  facet normal  1.819950e-004  9.999928e-001 -3.806000e-003
    outer loop
      vertex -1.200000e+001  7.500391e+001  3.829093e+000
      vertex  0.000000e+000  7.500000e+001  3.376575e+000
      vertex  0.000000e+000  7.499358e+001  1.688739e+000
    endloop
  endfacet
  facet normal  1.539327e-003  9.999915e-001  3.803959e-003
    outer loop
      vertex -1.200000e+001  7.500391e+001  3.829093e+000
      vertex  0.000000e+000  7.499358e+001  1.688739e+000
      vertex  0.000000e+000  7.500000e+001 -2.486900e-014
    endloop
  endfacet
  facet normal -2.114175e-018  9.999995e-001 -1.020150e-003
    outer loop
      vertex -1.200000e+001  7.500391e+001  3.829093e+000
      vertex  0.000000e+000  7.500000e+001 -2.486900e-014
      vertex -1.200000e+001  7.500000e+001  0.000000e+000
    endloop
  endfacet
  facet normal -2.095136e-004  9.994016e-001 -3.458660e-002
    outer loop
      vertex  0.000000e+000  7.506600e+001  7.352233e+000
      vertex -1.200000e+001  7.507391e+001  7.653538e+000
      vertex  0.000000e+000  7.520341e+001  1.132287e+001
    endloop
  endfacet
  facet normal  1.043443e-004  9.993657e-001 -3.561176e-002
    outer loop
      vertex  0.000000e+000  7.520341e+001  1.132287e+001
      vertex -1.200000e+001  7.507391e+001  7.653538e+000
      vertex -1.200000e+001  7.521003e+001  1.147333e+001
    endloop
  endfacet
  facet normal -1.089041e-004  9.986164e-001 -5.258586e-002
    outer loop
      vertex  0.000000e+000  7.520341e+001  1.132287e+001
      vertex -1.200000e+001  7.521003e+001  1.147333e+001
      vertex  0.000000e+000  7.541224e+001  1.528848e+001
    endloop
  endfacet
  facet normal  0.000000e+000  9.985984e-001 -5.292745e-002
    outer loop
      vertex  0.000000e+000  7.541224e+001  1.528848e+001
      vertex -1.200000e+001  7.521003e+001  1.147333e+001
      vertex -1.200000e+001  7.541224e+001  1.528848e+001
    endloop
  endfacet
  facet normal  0.000000e+000  9.975324e-001 -7.020873e-002
    outer loop
      vertex  0.000000e+000  7.541224e+001  1.528848e+001
      vertex -1.200000e+001  7.541224e+001  1.528848e+001
      vertex  0.000000e+000  7.567947e+001  1.908527e+001
    endloop
  endfacet
  facet normal  0.000000e+000  9.975324e-001 -7.020873e-002
    outer loop
      vertex  0.000000e+000  7.567947e+001  1.908527e+001
      vertex -1.200000e+001  7.541224e+001  1.528848e+001
      vertex -1.200000e+001  7.567947e+001  1.908527e+001
    endloop
  endfacet
  facet normal  0.000000e+000  9.961699e-001 -8.743804e-002
    outer loop
      vertex  0.000000e+000  7.567947e+001  1.908527e+001
      vertex -1.200000e+001  7.567947e+001  1.908527e+001
      vertex  0.000000e+000  7.601232e+001  2.287745e+001
    endloop
  endfacet
  facet normal  0.000000e+000  9.961699e-001 -8.743804e-002
    outer loop
      vertex  0.000000e+000  7.601232e+001  2.287745e+001
      vertex -1.200000e+001  7.567947e+001  1.908527e+001
      vertex -1.200000e+001  7.601232e+001  2.287745e+001
    endloop
  endfacet
  facet normal  0.000000e+000  9.945111e-001 -1.046309e-001
    outer loop
      vertex  0.000000e+000  7.601232e+001  2.287745e+001
      vertex -1.200000e+001  7.601232e+001  2.287745e+001
      vertex  0.000000e+000  7.641080e+001  2.666501e+001
    endloop
  endfacet
  facet normal  0.000000e+000  9.945111e-001 -1.046309e-001
    outer loop
      vertex  0.000000e+000  7.641080e+001  2.666501e+001
      vertex -1.200000e+001  7.601232e+001  2.287745e+001
      vertex -1.200000e+001  7.641080e+001  2.666501e+001
    endloop
  endfacet
  facet normal  0.000000e+000  9.925583e-001 -1.217702e-001
    outer loop
      vertex  0.000000e+000  7.641080e+001  2.666501e+001
      vertex -1.200000e+001  7.641080e+001  2.666501e+001
      vertex  0.000000e+000  7.687491e+001  3.044795e+001
    endloop
  endfacet
  facet normal  0.000000e+000  9.925583e-001 -1.217702e-001
    outer loop
      vertex  0.000000e+000  7.687491e+001  3.044795e+001
      vertex -1.200000e+001  7.641080e+001  2.666501e+001
      vertex -1.200000e+001  7.687491e+001  3.044795e+001
    endloop
  endfacet
  facet normal  0.000000e+000  9.903142e-001 -1.388447e-001
    outer loop
      vertex  0.000000e+000  7.687491e+001  3.044795e+001
      vertex -1.200000e+001  7.687491e+001  3.044795e+001
      vertex  0.000000e+000  7.740464e+001  3.422628e+001
    endloop
  endfacet
  facet normal  0.000000e+000  9.903142e-001 -1.388447e-001
    outer loop
      vertex  0.000000e+000  7.740464e+001  3.422628e+001
      vertex -1.200000e+001  7.687491e+001  3.044795e+001
      vertex -1.200000e+001  7.740464e+001  3.422628e+001
    endloop
  endfacet
  facet normal  0.000000e+000  9.877827e-001 -1.558374e-001
    outer loop
      vertex  0.000000e+000  7.740464e+001  3.422628e+001
      vertex -1.200000e+001  7.740464e+001  3.422628e+001
      vertex  0.000000e+000  7.800000e+001  3.800000e+001
    endloop
  endfacet
  facet normal  0.000000e+000  9.877827e-001 -1.558374e-001
    outer loop
      vertex  0.000000e+000  7.800000e+001  3.800000e+001
      vertex -1.200000e+001  7.740464e+001  3.422628e+001
      vertex -1.200000e+001  7.800000e+001  3.800000e+001
    endloop
  endfacet
  facet normal -1.000000e+000  0.000000e+000  -0.000000e+000
    outer loop
      vertex  0.000000e+000  0.000000e+000  3.000000e+001
      vertex  0.000000e+000  1.421085e-014  3.500000e+001
      vertex  0.000000e+000  2.954545e+001  3.303030e+001
    endloop
  endfacet
  facet normal -1.000000e+000  0.000000e+000  0.000000e+000
    outer loop
      vertex  0.000000e+000  7.500000e+001  1.688288e+000
      vertex  0.000000e+000  7.499358e+001  1.688739e+000
      vertex  0.000000e+000  7.500000e+001  3.376575e+000
    endloop
  endfacet
  facet normal -1.000000e+000  -0.000000e+000  -0.000000e+000
    outer loop
      vertex  0.000000e+000  7.499358e+001  1.688739e+000
      vertex  0.000000e+000  7.500000e+001  1.688288e+000
      vertex  0.000000e+000  7.500000e+001 -2.486900e-014
    endloop
  endfacet
  facet normal  1.000000e+000  0.000000e+000  -0.000000e+000
    outer loop
      vertex  0.000000e+000  2.954545e+001  3.303030e+001
      vertex  0.000000e+000  7.740464e+001  3.422628e+001
      vertex  0.000000e+000  7.800000e+001  3.800000e+001
    endloop
  endfacet
  facet normal  1.000000e+000  0.000000e+000  0.000000e+000
    outer loop
      vertex  0.000000e+000  7.500000e+001  3.000000e+001
      vertex  0.000000e+000  7.500000e+001  3.376575e+000
      vertex  0.000000e+000  7.506600e+001  7.352233e+000
    endloop
  endfacet
  facet normal  1.000000e+000  0.000000e+000  -0.000000e+000
    outer loop
      vertex  0.000000e+000  7.500000e+001  3.000000e+001
      vertex  0.000000e+000  7.506600e+001  7.352233e+000
      vertex  0.000000e+000  7.520341e+001  1.132287e+001
    endloop
  endfacet
  facet normal  1.000000e+000  0.000000e+000  -0.000000e+000
    outer loop
      vertex  0.000000e+000  7.500000e+001  3.000000e+001
      vertex  0.000000e+000  7.520341e+001  1.132287e+001
      vertex  0.000000e+000  7.541224e+001  1.528848e+001
    endloop
  endfacet
  facet normal  1.000000e+000  0.000000e+000  -0.000000e+000
    outer loop
      vertex  0.000000e+000  7.500000e+001  3.000000e+001
      vertex  0.000000e+000  7.541224e+001  1.528848e+001
      vertex  0.000000e+000  7.567947e+001  1.908527e+001
    endloop
  endfacet
  facet normal  1.000000e+000  0.000000e+000  -0.000000e+000
    outer loop
      vertex  0.000000e+000  7.500000e+001  3.000000e+001
      vertex  0.000000e+000  7.567947e+001  1.908527e+001
      vertex  0.000000e+000  7.601232e+001  2.287745e+001
    endloop
  endfacet
  facet normal  9.999999e-001  0.000000e+000  -0.000000e+000
    outer loop
      vertex  0.000000e+000  7.500000e+001  3.000000e+001
      vertex  0.000000e+000  7.601232e+001  2.287745e+001
      vertex  0.000000e+000  7.641080e+001  2.666501e+001
    endloop
  endfacet
  facet normal  1.000000e+000  0.000000e+000  -0.000000e+000
    outer loop
      vertex  0.000000e+000  7.500000e+001  3.000000e+001
      vertex  0.000000e+000  7.641080e+001  2.666501e+001
      vertex  0.000000e+000  7.687491e+001  3.044795e+001
    endloop
  endfacet
  facet normal  1.000000e+000  0.000000e+000  -0.000000e+000
    outer loop
      vertex  0.000000e+000  7.500000e+001  3.000000e+001
      vertex  0.000000e+000  7.687491e+001  3.044795e+001
      vertex  0.000000e+000  7.740464e+001  3.422628e+001
    endloop
  endfacet
  facet normal  1.000000e+000  0.000000e+000  0.000000e+000
    outer loop
      vertex  0.000000e+000  7.500000e+001  3.000000e+001
      vertex  0.000000e+000  7.740464e+001  3.422628e+001
      vertex  0.000000e+000  2.954545e+001  3.303030e+001
    endloop
  endfacet
  facet normal  0.000000e+000  6.651898e-002  9.977852e-001
    outer loop
      vertex  0.000000e+000  1.421085e-014  3.500000e+001
      vertex  2.400000e+001  1.421085e-014  3.500000e+001
      vertex  0.000000e+000  2.954545e+001  3.303030e+001
    endloop
  endfacet
  facet normal  3.908773e-008  6.651901e-002  9.977851e-001
    outer loop
      vertex  0.000000e+000  2.954545e+001  3.303030e+001
      vertex  2.400000e+001  1.421085e-014  3.500000e+001
      vertex  2.400000e+001  7.500000e+001  3.000000e+001
    endloop
  endfacet
  facet normal  0.000000e+000  6.651903e-002  9.977851e-001
    outer loop
      vertex  0.000000e+000  2.954545e+001  3.303030e+001
      vertex  2.400000e+001  7.500000e+001  3.000000e+001
      vertex  0.000000e+000  7.500000e+001  3.000000e+001
    endloop
  endfacet
  facet normal  0.000000e+000  1.000000e+000  -0.000000e+000
    outer loop
      vertex  2.400000e+001  7.500000e+001  3.000000e+001
      vertex  2.400000e+001  7.500000e+001  0.000000e+000
      vertex  0.000000e+000  7.500000e+001 -2.486900e-014
    endloop
  endfacet
  facet normal  0.000000e+000  1.000000e+000  0.000000e+000
    outer loop
      vertex  2.400000e+001  7.500000e+001  3.000000e+001
      vertex  0.000000e+000  7.500000e+001 -2.486900e-014
      vertex  0.000000e+000  7.500000e+001  1.688288e+000
    endloop
  endfacet
  facet normal  0.000000e+000  1.000000e+000  0.000000e+000
    outer loop
      vertex  2.400000e+001  7.500000e+001  3.000000e+001
      vertex  0.000000e+000  7.500000e+001  1.688288e+000
      vertex  0.000000e+000  7.500000e+001  3.376575e+000
    endloop
  endfacet
  facet normal  0.000000e+000  1.000000e+000  0.000000e+000
    outer loop
      vertex  2.400000e+001  7.500000e+001  3.000000e+001
      vertex  0.000000e+000  7.500000e+001  3.376575e+000
      vertex  0.000000e+000  7.500000e+001  3.000000e+001
    endloop
  endfacet
endsolid CATIA STL
