solid CATIA STL
  facet normal  0.000000e+000  0.000000e+000  1.000000e+000
    outer loop
      vertex  0.000000e+000  0.000000e+000  1.000000e+001
      vertex  9.000000e+000  0.000000e+000  1.000000e+001
      vertex -5.329071e-015  2.200000e+001  1.000000e+001
    endloop
  endfacet
  facet normal  -0.000000e+000  0.000000e+000  1.000000e+000
    outer loop
      vertex -5.329071e-015  2.200000e+001  1.000000e+001
      vertex  9.000000e+000  0.000000e+000  1.000000e+001
      vertex  9.000000e+000  2.200000e+001  1.000000e+001
    endloop
  endfacet
  facet normal  0.000000e+000  0.000000e+000 -1.000000e+000
    outer loop
      vertex  0.000000e+000  0.000000e+000  0.000000e+000
      vertex -5.329071e-015  2.200000e+001  0.000000e+000
      vertex  9.000000e+000  0.000000e+000  0.000000e+000
    endloop
  endfacet
  facet normal  0.000000e+000  0.000000e+000 -1.000000e+000
    outer loop
      vertex  9.000000e+000  0.000000e+000  0.000000e+000
      vertex -5.329071e-015  2.200000e+001  0.000000e+000
      vertex  9.000000e+000  2.200000e+001  0.000000e+000
    endloop
  endfacet
  facet normal -9.999999e-001 -2.422305e-016  0.000000e+000
    outer loop
      vertex -5.329071e-015  2.200000e+001  1.000000e+001
      vertex -5.329071e-015  2.200000e+001  0.000000e+000
      vertex  0.000000e+000  0.000000e+000  1.000000e+001
    endloop
  endfacet
  facet normal -9.999999e-001 -2.422305e-016  -0.000000e+000
    outer loop
      vertex  0.000000e+000  0.000000e+000  1.000000e+001
      vertex -5.329071e-015  2.200000e+001  0.000000e+000
      vertex  0.000000e+000  0.000000e+000  0.000000e+000
    endloop
  endfacet
  facet normal  0.000000e+000  1.000000e+000  0.000000e+000
    outer loop
      vertex  9.000000e+000  2.200000e+001  0.000000e+000
      vertex -5.329071e-015  2.200000e+001  0.000000e+000
      vertex  9.000000e+000  2.200000e+001  1.000000e+001
    endloop
  endfacet
  facet normal  0.000000e+000  1.000000e+000  0.000000e+000
    outer loop
      vertex  9.000000e+000  2.200000e+001  1.000000e+001
      vertex -5.329071e-015  2.200000e+001  0.000000e+000
      vertex -5.329071e-015  2.200000e+001  1.000000e+001
    endloop
  endfacet
  facet normal  9.999999e-001  0.000000e+000  0.000000e+000
    outer loop
      vertex  9.000000e+000  0.000000e+000  1.000000e+001
      vertex  9.000000e+000  0.000000e+000  0.000000e+000
      vertex  9.000000e+000  2.200000e+001  1.000000e+001
    endloop
  endfacet
  facet normal  9.999999e-001  0.000000e+000  0.000000e+000
    outer loop
      vertex  9.000000e+000  2.200000e+001  1.000000e+001
      vertex  9.000000e+000  0.000000e+000  0.000000e+000
      vertex  9.000000e+000  2.200000e+001  0.000000e+000
    endloop
  endfacet
  facet normal  0.000000e+000 -1.000000e+000  0.000000e+000
    outer loop
      vertex  0.000000e+000  0.000000e+000  0.000000e+000
      vertex  9.000000e+000  0.000000e+000  0.000000e+000
      vertex  0.000000e+000  0.000000e+000  1.000000e+001
    endloop
  endfacet
  facet normal  0.000000e+000 -1.000000e+000  0.000000e+000
    outer loop
      vertex  0.000000e+000  0.000000e+000  1.000000e+001
      vertex  9.000000e+000  0.000000e+000  0.000000e+000
      vertex  9.000000e+000  0.000000e+000  1.000000e+001
    endloop
  endfacet
endsolid CATIA STL
