solid CATIA STL
  facet normal  -0.000000e+000 -1.000000e+000  -0.000000e+000
    outer loop
      vertex  5.000000e+000  0.000000e+000  0.000000e+000
      vertex  5.000000e+000  0.000000e+000  9.000000e+000
      vertex  0.000000e+000  0.000000e+000  9.000000e+000
    endloop
  endfacet
  facet normal  0.000000e+000 -1.000000e+000  0.000000e+000
    outer loop
      vertex  5.000000e+000  0.000000e+000  0.000000e+000
      vertex  0.000000e+000  0.000000e+000  9.000000e+000
      vertex  0.000000e+000  0.000000e+000  2.000000e+000
    endloop
  endfacet
  facet normal  -0.000000e+000 -1.000000e+000  -0.000000e+000
    outer loop
      vertex  5.000000e+000  0.000000e+000  0.000000e+000
      vertex  0.000000e+000  0.000000e+000  2.000000e+000
      vertex -2.000000e+000  0.000000e+000  2.000000e+000
    endloop
  endfacet
  facet normal  0.000000e+000 -1.000000e+000  -0.000000e+000
    outer loop
      vertex  5.000000e+000  0.000000e+000  0.000000e+000
      vertex -2.000000e+000  0.000000e+000  2.000000e+000
      vertex -2.195090e+000  0.000000e+000  1.980785e+000
    endloop
  endfacet
  facet normal  0.000000e+000 -1.000000e+000  -0.000000e+000
    outer loop
      vertex  5.000000e+000  0.000000e+000  0.000000e+000
      vertex -2.195090e+000  0.000000e+000  1.980785e+000
      vertex -2.382684e+000  0.000000e+000  1.923880e+000
    endloop
  endfacet
  facet normal  0.000000e+000 -1.000000e+000  -0.000000e+000
    outer loop
      vertex  5.000000e+000  0.000000e+000  0.000000e+000
      vertex -2.382684e+000  0.000000e+000  1.923880e+000
      vertex -2.555570e+000  0.000000e+000  1.831470e+000
    endloop
  endfacet
  facet normal  0.000000e+000 -1.000000e+000  -0.000000e+000
    outer loop
      vertex  5.000000e+000  0.000000e+000  0.000000e+000
      vertex -2.555570e+000  0.000000e+000  1.831470e+000
      vertex -2.707107e+000  0.000000e+000  1.707107e+000
    endloop
  endfacet
  facet normal  0.000000e+000 -1.000000e+000  -0.000000e+000
    outer loop
      vertex  5.000000e+000  0.000000e+000  0.000000e+000
      vertex -2.707107e+000  0.000000e+000  1.707107e+000
      vertex -2.831470e+000  0.000000e+000  1.555570e+000
    endloop
  endfacet
  facet normal  0.000000e+000 -1.000000e+000  -0.000000e+000
    outer loop
      vertex  5.000000e+000  0.000000e+000  0.000000e+000
      vertex -2.831470e+000  0.000000e+000  1.555570e+000
      vertex -2.923880e+000  0.000000e+000  1.382683e+000
    endloop
  endfacet
  facet normal  0.000000e+000 -1.000000e+000  -0.000000e+000
    outer loop
      vertex  5.000000e+000  0.000000e+000  0.000000e+000
      vertex -2.923880e+000  0.000000e+000  1.382683e+000
      vertex -2.980785e+000  0.000000e+000  1.195090e+000
    endloop
  endfacet
  facet normal  0.000000e+000 -1.000000e+000  -0.000000e+000
    outer loop
      vertex  5.000000e+000  0.000000e+000  0.000000e+000
      vertex -2.980785e+000  0.000000e+000  1.195090e+000
      vertex -3.000000e+000  0.000000e+000  1.000000e+000
    endloop
  endfacet
  facet normal  0.000000e+000 -1.000000e+000  0.000000e+000
    outer loop
      vertex  5.000000e+000  0.000000e+000  0.000000e+000
      vertex -3.000000e+000  0.000000e+000  1.000000e+000
      vertex -3.000000e+000  0.000000e+000  0.000000e+000
    endloop
  endfacet
  facet normal  0.000000e+000  1.000000e+000  0.000000e+000
    outer loop
      vertex -1.000000e+000  2.200000e+001  1.000000e+001
      vertex  5.000000e+000  2.200000e+001  1.000000e+001
      vertex -1.000000e+000  2.200000e+001  3.000000e+000
    endloop
  endfacet
  facet normal  -0.000000e+000  1.000000e+000  0.000000e+000
    outer loop
      vertex -1.000000e+000  2.200000e+001  3.000000e+000
      vertex  5.000000e+000  2.200000e+001  1.000000e+001
      vertex  5.000000e+000  2.200000e+001  0.000000e+000
    endloop
  endfacet
  facet normal  0.000000e+000  1.000000e+000  0.000000e+000
    outer loop
      vertex -1.000000e+000  2.200000e+001  3.000000e+000
      vertex  5.000000e+000  2.200000e+001  0.000000e+000
      vertex -4.000000e+000  2.200000e+001  3.000000e+000
    endloop
  endfacet
  facet normal  0.000000e+000  1.000000e+000  0.000000e+000
    outer loop
      vertex -4.000000e+000  2.200000e+001  3.000000e+000
      vertex  5.000000e+000  2.200000e+001  0.000000e+000
      vertex -4.000000e+000  2.200000e+001  0.000000e+000
    endloop
  endfacet
  facet normal  0.000000e+000  0.000000e+000 -1.000000e+000
    outer loop
      vertex  5.000000e+000  2.200000e+001  0.000000e+000
      vertex  5.000000e+000  0.000000e+000  0.000000e+000
      vertex -3.000000e+000  0.000000e+000  0.000000e+000
    endloop
  endfacet
  facet normal  0.000000e+000  0.000000e+000 -1.000000e+000
    outer loop
      vertex  5.000000e+000  2.200000e+001  0.000000e+000
      vertex -3.000000e+000  0.000000e+000  0.000000e+000
      vertex -3.000000e+000  6.000000e+000  0.000000e+000
    endloop
  endfacet
  facet normal  0.000000e+000  0.000000e+000 -1.000000e+000
    outer loop
      vertex  5.000000e+000  2.200000e+001  0.000000e+000
      vertex -3.000000e+000  6.000000e+000  0.000000e+000
      vertex -3.000000e+000  7.000000e+000  0.000000e+000
    endloop
  endfacet
  facet normal  0.000000e+000  0.000000e+000 -1.000000e+000
    outer loop
      vertex  5.000000e+000  2.200000e+001  0.000000e+000
      vertex -3.000000e+000  7.000000e+000  0.000000e+000
      vertex -3.000000e+000  1.350000e+001  0.000000e+000
    endloop
  endfacet
  facet normal  0.000000e+000  0.000000e+000 -1.000000e+000
    outer loop
      vertex  5.000000e+000  2.200000e+001  0.000000e+000
      vertex -3.000000e+000  1.350000e+001  0.000000e+000
      vertex -3.000000e+000  1.450000e+001  0.000000e+000
    endloop
  endfacet
  facet normal  0.000000e+000  0.000000e+000 -1.000000e+000
    outer loop
      vertex  5.000000e+000  2.200000e+001  0.000000e+000
      vertex -3.000000e+000  1.450000e+001  0.000000e+000
      vertex -3.000000e+000  2.100000e+001  0.000000e+000
    endloop
  endfacet
  facet normal  0.000000e+000  0.000000e+000 -1.000000e+000
    outer loop
      vertex  5.000000e+000  2.200000e+001  0.000000e+000
      vertex -3.000000e+000  2.100000e+001  0.000000e+000
      vertex -4.000000e+000  2.100000e+001  0.000000e+000
    endloop
  endfacet
  facet normal  0.000000e+000  0.000000e+000 -1.000000e+000
    outer loop
      vertex  5.000000e+000  2.200000e+001  0.000000e+000
      vertex -4.000000e+000  2.100000e+001  0.000000e+000
      vertex -4.000000e+000  2.200000e+001  0.000000e+000
    endloop
  endfacet
  facet normal  -0.000000e+000  0.000000e+000 -1.000000e+000
    outer loop
      vertex -4.000000e+000  7.000000e+000  0.000000e+000
      vertex -3.000000e+000  7.000000e+000  0.000000e+000
      vertex -4.000000e+000  6.000000e+000  0.000000e+000
    endloop
  endfacet
  facet normal  0.000000e+000  0.000000e+000 -1.000000e+000
    outer loop
      vertex -4.000000e+000  6.000000e+000  0.000000e+000
      vertex -3.000000e+000  7.000000e+000  0.000000e+000
      vertex -3.000000e+000  6.000000e+000  0.000000e+000
    endloop
  endfacet
  facet normal  -0.000000e+000  0.000000e+000 -1.000000e+000
    outer loop
      vertex -4.000000e+000  1.450000e+001  0.000000e+000
      vertex -3.000000e+000  1.450000e+001  0.000000e+000
      vertex -4.000000e+000  1.350000e+001  0.000000e+000
    endloop
  endfacet
  facet normal  0.000000e+000  0.000000e+000 -1.000000e+000
    outer loop
      vertex -4.000000e+000  1.350000e+001  0.000000e+000
      vertex -3.000000e+000  1.450000e+001  0.000000e+000
      vertex -3.000000e+000  1.350000e+001  0.000000e+000
    endloop
  endfacet
  facet normal  1.000000e+000  0.000000e+000  0.000000e+000
    outer loop
      vertex  5.000000e+000  2.200000e+001  0.000000e+000
      vertex  5.000000e+000  2.200000e+001  1.000000e+001
      vertex  5.000000e+000  2.100000e+001  1.000000e+001
    endloop
  endfacet
  facet normal  1.000000e+000  0.000000e+000  0.000000e+000
    outer loop
      vertex  5.000000e+000  2.200000e+001  0.000000e+000
      vertex  5.000000e+000  2.100000e+001  1.000000e+001
      vertex  5.000000e+000  2.100000e+001  9.000000e+000
    endloop
  endfacet
  facet normal  1.000000e+000  0.000000e+000  0.000000e+000
    outer loop
      vertex  5.000000e+000  2.200000e+001  0.000000e+000
      vertex  5.000000e+000  2.100000e+001  9.000000e+000
      vertex  5.000000e+000  1.450000e+001  9.000000e+000
    endloop
  endfacet
  facet normal  1.000000e+000  0.000000e+000  0.000000e+000
    outer loop
      vertex  5.000000e+000  2.200000e+001  0.000000e+000
      vertex  5.000000e+000  1.450000e+001  9.000000e+000
      vertex  5.000000e+000  1.350000e+001  9.000000e+000
    endloop
  endfacet
  facet normal  1.000000e+000  0.000000e+000  0.000000e+000
    outer loop
      vertex  5.000000e+000  2.200000e+001  0.000000e+000
      vertex  5.000000e+000  1.350000e+001  9.000000e+000
      vertex  5.000000e+000  7.000000e+000  9.000000e+000
    endloop
  endfacet
  facet normal  1.000000e+000  0.000000e+000  0.000000e+000
    outer loop
      vertex  5.000000e+000  2.200000e+001  0.000000e+000
      vertex  5.000000e+000  7.000000e+000  9.000000e+000
      vertex  5.000000e+000  6.000000e+000  9.000000e+000
    endloop
  endfacet
  facet normal  1.000000e+000  0.000000e+000  0.000000e+000
    outer loop
      vertex  5.000000e+000  2.200000e+001  0.000000e+000
      vertex  5.000000e+000  6.000000e+000  9.000000e+000
      vertex  5.000000e+000  0.000000e+000  9.000000e+000
    endloop
  endfacet
  facet normal  1.000000e+000  0.000000e+000  0.000000e+000
    outer loop
      vertex  5.000000e+000  2.200000e+001  0.000000e+000
      vertex  5.000000e+000  0.000000e+000  9.000000e+000
      vertex  5.000000e+000  0.000000e+000  0.000000e+000
    endloop
  endfacet
  facet normal  1.000000e+000  -0.000000e+000  0.000000e+000
    outer loop
      vertex  5.000000e+000  7.000000e+000  1.000000e+001
      vertex  5.000000e+000  6.000000e+000  1.000000e+001
      vertex  5.000000e+000  7.000000e+000  9.000000e+000
    endloop
  endfacet
  facet normal  1.000000e+000  0.000000e+000  0.000000e+000
    outer loop
      vertex  5.000000e+000  7.000000e+000  9.000000e+000
      vertex  5.000000e+000  6.000000e+000  1.000000e+001
      vertex  5.000000e+000  6.000000e+000  9.000000e+000
    endloop
  endfacet
  facet normal  1.000000e+000  -0.000000e+000  0.000000e+000
    outer loop
      vertex  5.000000e+000  1.450000e+001  1.000000e+001
      vertex  5.000000e+000  1.350000e+001  1.000000e+001
      vertex  5.000000e+000  1.450000e+001  9.000000e+000
    endloop
  endfacet
  facet normal  1.000000e+000  0.000000e+000  0.000000e+000
    outer loop
      vertex  5.000000e+000  1.450000e+001  9.000000e+000
      vertex  5.000000e+000  1.350000e+001  1.000000e+001
      vertex  5.000000e+000  1.350000e+001  9.000000e+000
    endloop
  endfacet
  facet normal  0.000000e+000 -1.000000e+000  0.000000e+000
    outer loop
      vertex -4.000000e+000  6.000000e+000  3.000000e+000
      vertex -4.000000e+000  6.000000e+000  0.000000e+000
      vertex -3.000000e+000  6.000000e+000  0.000000e+000
    endloop
  endfacet
  facet normal  0.000000e+000 -1.000000e+000  0.000000e+000
    outer loop
      vertex -4.000000e+000  6.000000e+000  3.000000e+000
      vertex -3.000000e+000  6.000000e+000  0.000000e+000
      vertex -3.000000e+000  6.000000e+000  1.000000e+000
    endloop
  endfacet
  facet normal  0.000000e+000 -1.000000e+000  0.000000e+000
    outer loop
      vertex -4.000000e+000  6.000000e+000  3.000000e+000
      vertex -3.000000e+000  6.000000e+000  1.000000e+000
      vertex -2.980785e+000  6.000000e+000  1.195090e+000
    endloop
  endfacet
  facet normal  0.000000e+000 -1.000000e+000  0.000000e+000
    outer loop
      vertex -4.000000e+000  6.000000e+000  3.000000e+000
      vertex -2.980785e+000  6.000000e+000  1.195090e+000
      vertex -2.923880e+000  6.000000e+000  1.382683e+000
    endloop
  endfacet
  facet normal  0.000000e+000 -9.999999e-001  0.000000e+000
    outer loop
      vertex -4.000000e+000  6.000000e+000  3.000000e+000
      vertex -2.923880e+000  6.000000e+000  1.382683e+000
      vertex -2.831470e+000  6.000000e+000  1.555570e+000
    endloop
  endfacet
  facet normal  0.000000e+000 -1.000000e+000  0.000000e+000
    outer loop
      vertex -4.000000e+000  6.000000e+000  3.000000e+000
      vertex -2.831470e+000  6.000000e+000  1.555570e+000
      vertex -2.707107e+000  6.000000e+000  1.707107e+000
    endloop
  endfacet
  facet normal  0.000000e+000 -1.000000e+000  0.000000e+000
    outer loop
      vertex -4.000000e+000  6.000000e+000  3.000000e+000
      vertex -2.707107e+000  6.000000e+000  1.707107e+000
      vertex -2.555570e+000  6.000000e+000  1.831470e+000
    endloop
  endfacet
  facet normal  0.000000e+000 -1.000000e+000  0.000000e+000
    outer loop
      vertex -4.000000e+000  6.000000e+000  3.000000e+000
      vertex -2.555570e+000  6.000000e+000  1.831470e+000
      vertex -2.382684e+000  6.000000e+000  1.923880e+000
    endloop
  endfacet
  facet normal  0.000000e+000 -1.000000e+000  0.000000e+000
    outer loop
      vertex -4.000000e+000  6.000000e+000  3.000000e+000
      vertex -2.382684e+000  6.000000e+000  1.923880e+000
      vertex -2.195090e+000  6.000000e+000  1.980785e+000
    endloop
  endfacet
  facet normal  0.000000e+000 -1.000000e+000  0.000000e+000
    outer loop
      vertex -4.000000e+000  6.000000e+000  3.000000e+000
      vertex -2.195090e+000  6.000000e+000  1.980785e+000
      vertex -2.000000e+000  6.000000e+000  2.000000e+000
    endloop
  endfacet
  facet normal  0.000000e+000 -1.000000e+000  0.000000e+000
    outer loop
      vertex -4.000000e+000  6.000000e+000  3.000000e+000
      vertex -2.000000e+000  6.000000e+000  2.000000e+000
      vertex  0.000000e+000  6.000000e+000  2.000000e+000
    endloop
  endfacet
  facet normal  0.000000e+000 -1.000000e+000  0.000000e+000
    outer loop
      vertex -4.000000e+000  6.000000e+000  3.000000e+000
      vertex  0.000000e+000  6.000000e+000  2.000000e+000
      vertex -1.000000e+000  6.000000e+000  3.000000e+000
    endloop
  endfacet
  facet normal  0.000000e+000 -1.000000e+000  0.000000e+000
    outer loop
      vertex  5.000000e+000  6.000000e+000  1.000000e+001
      vertex -1.000000e+000  6.000000e+000  1.000000e+001
      vertex  5.000000e+000  6.000000e+000  9.000000e+000
    endloop
  endfacet
  facet normal  0.000000e+000 -1.000000e+000  0.000000e+000
    outer loop
      vertex  5.000000e+000  6.000000e+000  9.000000e+000
      vertex -1.000000e+000  6.000000e+000  1.000000e+001
      vertex  0.000000e+000  6.000000e+000  9.000000e+000
    endloop
  endfacet
  facet normal  0.000000e+000 -1.000000e+000  0.000000e+000
    outer loop
      vertex -1.000000e+000  6.000000e+000  1.000000e+001
      vertex -1.000000e+000  6.000000e+000  3.000000e+000
      vertex  0.000000e+000  6.000000e+000  9.000000e+000
    endloop
  endfacet
  facet normal  0.000000e+000 -1.000000e+000  -0.000000e+000
    outer loop
      vertex  0.000000e+000  6.000000e+000  9.000000e+000
      vertex -1.000000e+000  6.000000e+000  3.000000e+000
      vertex  0.000000e+000  6.000000e+000  2.000000e+000
    endloop
  endfacet
  facet normal  0.000000e+000  1.000000e+000  0.000000e+000
    outer loop
      vertex -4.000000e+000  7.000000e+000  3.000000e+000
      vertex -1.000000e+000  7.000000e+000  3.000000e+000
      vertex  0.000000e+000  7.000000e+000  2.000000e+000
    endloop
  endfacet
  facet normal  0.000000e+000  1.000000e+000  0.000000e+000
    outer loop
      vertex -4.000000e+000  7.000000e+000  3.000000e+000
      vertex  0.000000e+000  7.000000e+000  2.000000e+000
      vertex -2.000000e+000  7.000000e+000  2.000000e+000
    endloop
  endfacet
  facet normal  0.000000e+000  1.000000e+000  0.000000e+000
    outer loop
      vertex -4.000000e+000  7.000000e+000  3.000000e+000
      vertex -2.000000e+000  7.000000e+000  2.000000e+000
      vertex -2.195090e+000  7.000000e+000  1.980785e+000
    endloop
  endfacet
  facet normal  0.000000e+000  1.000000e+000  0.000000e+000
    outer loop
      vertex -4.000000e+000  7.000000e+000  3.000000e+000
      vertex -2.195090e+000  7.000000e+000  1.980785e+000
      vertex -2.382684e+000  7.000000e+000  1.923880e+000
    endloop
  endfacet
  facet normal  0.000000e+000  1.000000e+000  0.000000e+000
    outer loop
      vertex -4.000000e+000  7.000000e+000  3.000000e+000
      vertex -2.382684e+000  7.000000e+000  1.923880e+000
      vertex -2.555570e+000  7.000000e+000  1.831470e+000
    endloop
  endfacet
  facet normal  0.000000e+000  1.000000e+000  0.000000e+000
    outer loop
      vertex -4.000000e+000  7.000000e+000  3.000000e+000
      vertex -2.555570e+000  7.000000e+000  1.831470e+000
      vertex -2.707107e+000  7.000000e+000  1.707107e+000
    endloop
  endfacet
  facet normal  0.000000e+000  1.000000e+000  0.000000e+000
    outer loop
      vertex -4.000000e+000  7.000000e+000  3.000000e+000
      vertex -2.707107e+000  7.000000e+000  1.707107e+000
      vertex -2.831470e+000  7.000000e+000  1.555570e+000
    endloop
  endfacet
  facet normal  0.000000e+000  9.999999e-001  0.000000e+000
    outer loop
      vertex -4.000000e+000  7.000000e+000  3.000000e+000
      vertex -2.831470e+000  7.000000e+000  1.555570e+000
      vertex -2.923880e+000  7.000000e+000  1.382683e+000
    endloop
  endfacet
  facet normal  0.000000e+000  1.000000e+000  0.000000e+000
    outer loop
      vertex -4.000000e+000  7.000000e+000  3.000000e+000
      vertex -2.923880e+000  7.000000e+000  1.382683e+000
      vertex -2.980785e+000  7.000000e+000  1.195090e+000
    endloop
  endfacet
  facet normal  0.000000e+000  1.000000e+000  0.000000e+000
    outer loop
      vertex -4.000000e+000  7.000000e+000  3.000000e+000
      vertex -2.980785e+000  7.000000e+000  1.195090e+000
      vertex -3.000000e+000  7.000000e+000  1.000000e+000
    endloop
  endfacet
  facet normal  0.000000e+000  1.000000e+000  0.000000e+000
    outer loop
      vertex -4.000000e+000  7.000000e+000  3.000000e+000
      vertex -3.000000e+000  7.000000e+000  1.000000e+000
      vertex -3.000000e+000  7.000000e+000  0.000000e+000
    endloop
  endfacet
  facet normal  0.000000e+000  1.000000e+000  0.000000e+000
    outer loop
      vertex -4.000000e+000  7.000000e+000  3.000000e+000
      vertex -3.000000e+000  7.000000e+000  0.000000e+000
      vertex -4.000000e+000  7.000000e+000  0.000000e+000
    endloop
  endfacet
  facet normal  0.000000e+000  1.000000e+000  -0.000000e+000
    outer loop
      vertex  5.000000e+000  7.000000e+000  1.000000e+001
      vertex  5.000000e+000  7.000000e+000  9.000000e+000
      vertex -1.000000e+000  7.000000e+000  1.000000e+001
    endloop
  endfacet
  facet normal  0.000000e+000  1.000000e+000  0.000000e+000
    outer loop
      vertex -1.000000e+000  7.000000e+000  1.000000e+001
      vertex  5.000000e+000  7.000000e+000  9.000000e+000
      vertex  0.000000e+000  7.000000e+000  9.000000e+000
    endloop
  endfacet
  facet normal  0.000000e+000  1.000000e+000  0.000000e+000
    outer loop
      vertex -1.000000e+000  7.000000e+000  1.000000e+001
      vertex  0.000000e+000  7.000000e+000  9.000000e+000
      vertex -1.000000e+000  7.000000e+000  3.000000e+000
    endloop
  endfacet
  facet normal  -0.000000e+000  1.000000e+000  0.000000e+000
    outer loop
      vertex -1.000000e+000  7.000000e+000  3.000000e+000
      vertex  0.000000e+000  7.000000e+000  9.000000e+000
      vertex  0.000000e+000  7.000000e+000  2.000000e+000
    endloop
  endfacet
  facet normal  0.000000e+000 -1.000000e+000  0.000000e+000
    outer loop
      vertex -4.000000e+000  1.350000e+001  3.000000e+000
      vertex -4.000000e+000  1.350000e+001  0.000000e+000
      vertex -3.000000e+000  1.350000e+001  0.000000e+000
    endloop
  endfacet
  facet normal  0.000000e+000 -1.000000e+000  0.000000e+000
    outer loop
      vertex -4.000000e+000  1.350000e+001  3.000000e+000
      vertex -3.000000e+000  1.350000e+001  0.000000e+000
      vertex -3.000000e+000  1.350000e+001  1.000000e+000
    endloop
  endfacet
  facet normal  0.000000e+000 -1.000000e+000  0.000000e+000
    outer loop
      vertex -4.000000e+000  1.350000e+001  3.000000e+000
      vertex -3.000000e+000  1.350000e+001  1.000000e+000
      vertex -2.980785e+000  1.350000e+001  1.195090e+000
    endloop
  endfacet
  facet normal  0.000000e+000 -1.000000e+000  0.000000e+000
    outer loop
      vertex -4.000000e+000  1.350000e+001  3.000000e+000
      vertex -2.980785e+000  1.350000e+001  1.195090e+000
      vertex -2.923880e+000  1.350000e+001  1.382683e+000
    endloop
  endfacet
  facet normal  0.000000e+000 -9.999999e-001  0.000000e+000
    outer loop
      vertex -4.000000e+000  1.350000e+001  3.000000e+000
      vertex -2.923880e+000  1.350000e+001  1.382683e+000
      vertex -2.831470e+000  1.350000e+001  1.555570e+000
    endloop
  endfacet
  facet normal  0.000000e+000 -1.000000e+000  0.000000e+000
    outer loop
      vertex -4.000000e+000  1.350000e+001  3.000000e+000
      vertex -2.831470e+000  1.350000e+001  1.555570e+000
      vertex -2.707107e+000  1.350000e+001  1.707107e+000
    endloop
  endfacet
  facet normal  0.000000e+000 -1.000000e+000  0.000000e+000
    outer loop
      vertex -4.000000e+000  1.350000e+001  3.000000e+000
      vertex -2.707107e+000  1.350000e+001  1.707107e+000
      vertex -2.555570e+000  1.350000e+001  1.831470e+000
    endloop
  endfacet
  facet normal  0.000000e+000 -1.000000e+000  0.000000e+000
    outer loop
      vertex -4.000000e+000  1.350000e+001  3.000000e+000
      vertex -2.555570e+000  1.350000e+001  1.831470e+000
      vertex -2.382684e+000  1.350000e+001  1.923880e+000
    endloop
  endfacet
  facet normal  0.000000e+000 -1.000000e+000  0.000000e+000
    outer loop
      vertex -4.000000e+000  1.350000e+001  3.000000e+000
      vertex -2.382684e+000  1.350000e+001  1.923880e+000
      vertex -2.195090e+000  1.350000e+001  1.980785e+000
    endloop
  endfacet
  facet normal  0.000000e+000 -1.000000e+000  0.000000e+000
    outer loop
      vertex -4.000000e+000  1.350000e+001  3.000000e+000
      vertex -2.195090e+000  1.350000e+001  1.980785e+000
      vertex -2.000000e+000  1.350000e+001  2.000000e+000
    endloop
  endfacet
  facet normal  0.000000e+000 -1.000000e+000  0.000000e+000
    outer loop
      vertex -4.000000e+000  1.350000e+001  3.000000e+000
      vertex -2.000000e+000  1.350000e+001  2.000000e+000
      vertex  0.000000e+000  1.350000e+001  2.000000e+000
    endloop
  endfacet
  facet normal  0.000000e+000 -1.000000e+000  0.000000e+000
    outer loop
      vertex -4.000000e+000  1.350000e+001  3.000000e+000
      vertex  0.000000e+000  1.350000e+001  2.000000e+000
      vertex -1.000000e+000  1.350000e+001  3.000000e+000
    endloop
  endfacet
  facet normal  0.000000e+000 -1.000000e+000  0.000000e+000
    outer loop
      vertex  5.000000e+000  1.350000e+001  1.000000e+001
      vertex -1.000000e+000  1.350000e+001  1.000000e+001
      vertex  5.000000e+000  1.350000e+001  9.000000e+000
    endloop
  endfacet
  facet normal  0.000000e+000 -1.000000e+000  0.000000e+000
    outer loop
      vertex  5.000000e+000  1.350000e+001  9.000000e+000
      vertex -1.000000e+000  1.350000e+001  1.000000e+001
      vertex  0.000000e+000  1.350000e+001  9.000000e+000
    endloop
  endfacet
  facet normal  0.000000e+000 -1.000000e+000  0.000000e+000
    outer loop
      vertex -1.000000e+000  1.350000e+001  1.000000e+001
      vertex -1.000000e+000  1.350000e+001  3.000000e+000
      vertex  0.000000e+000  1.350000e+001  9.000000e+000
    endloop
  endfacet
  facet normal  0.000000e+000 -1.000000e+000  -0.000000e+000
    outer loop
      vertex  0.000000e+000  1.350000e+001  9.000000e+000
      vertex -1.000000e+000  1.350000e+001  3.000000e+000
      vertex  0.000000e+000  1.350000e+001  2.000000e+000
    endloop
  endfacet
  facet normal  0.000000e+000  1.000000e+000  0.000000e+000
    outer loop
      vertex -4.000000e+000  1.450000e+001  3.000000e+000
      vertex -1.000000e+000  1.450000e+001  3.000000e+000
      vertex  0.000000e+000  1.450000e+001  2.000000e+000
    endloop
  endfacet
  facet normal  0.000000e+000  1.000000e+000  0.000000e+000
    outer loop
      vertex -4.000000e+000  1.450000e+001  3.000000e+000
      vertex  0.000000e+000  1.450000e+001  2.000000e+000
      vertex -2.000000e+000  1.450000e+001  2.000000e+000
    endloop
  endfacet
  facet normal  0.000000e+000  1.000000e+000  0.000000e+000
    outer loop
      vertex -4.000000e+000  1.450000e+001  3.000000e+000
      vertex -2.000000e+000  1.450000e+001  2.000000e+000
      vertex -2.195090e+000  1.450000e+001  1.980785e+000
    endloop
  endfacet
  facet normal  0.000000e+000  1.000000e+000  0.000000e+000
    outer loop
      vertex -4.000000e+000  1.450000e+001  3.000000e+000
      vertex -2.195090e+000  1.450000e+001  1.980785e+000
      vertex -2.382684e+000  1.450000e+001  1.923880e+000
    endloop
  endfacet
  facet normal  0.000000e+000  1.000000e+000  0.000000e+000
    outer loop
      vertex -4.000000e+000  1.450000e+001  3.000000e+000
      vertex -2.382684e+000  1.450000e+001  1.923880e+000
      vertex -2.555570e+000  1.450000e+001  1.831470e+000
    endloop
  endfacet
  facet normal  0.000000e+000  1.000000e+000  0.000000e+000
    outer loop
      vertex -4.000000e+000  1.450000e+001  3.000000e+000
      vertex -2.555570e+000  1.450000e+001  1.831470e+000
      vertex -2.707107e+000  1.450000e+001  1.707107e+000
    endloop
  endfacet
  facet normal  0.000000e+000  1.000000e+000  0.000000e+000
    outer loop
      vertex -4.000000e+000  1.450000e+001  3.000000e+000
      vertex -2.707107e+000  1.450000e+001  1.707107e+000
      vertex -2.831470e+000  1.450000e+001  1.555570e+000
    endloop
  endfacet
  facet normal  0.000000e+000  9.999999e-001  0.000000e+000
    outer loop
      vertex -4.000000e+000  1.450000e+001  3.000000e+000
      vertex -2.831470e+000  1.450000e+001  1.555570e+000
      vertex -2.923880e+000  1.450000e+001  1.382683e+000
    endloop
  endfacet
  facet normal  0.000000e+000  1.000000e+000  0.000000e+000
    outer loop
      vertex -4.000000e+000  1.450000e+001  3.000000e+000
      vertex -2.923880e+000  1.450000e+001  1.382683e+000
      vertex -2.980785e+000  1.450000e+001  1.195090e+000
    endloop
  endfacet
  facet normal  0.000000e+000  1.000000e+000  0.000000e+000
    outer loop
      vertex -4.000000e+000  1.450000e+001  3.000000e+000
      vertex -2.980785e+000  1.450000e+001  1.195090e+000
      vertex -3.000000e+000  1.450000e+001  1.000000e+000
    endloop
  endfacet
  facet normal  0.000000e+000  1.000000e+000  0.000000e+000
    outer loop
      vertex -4.000000e+000  1.450000e+001  3.000000e+000
      vertex -3.000000e+000  1.450000e+001  1.000000e+000
      vertex -3.000000e+000  1.450000e+001  0.000000e+000
    endloop
  endfacet
  facet normal  0.000000e+000  1.000000e+000  0.000000e+000
    outer loop
      vertex -4.000000e+000  1.450000e+001  3.000000e+000
      vertex -3.000000e+000  1.450000e+001  0.000000e+000
      vertex -4.000000e+000  1.450000e+001  0.000000e+000
    endloop
  endfacet
  facet normal  0.000000e+000  1.000000e+000  -0.000000e+000
    outer loop
      vertex  5.000000e+000  1.450000e+001  1.000000e+001
      vertex  5.000000e+000  1.450000e+001  9.000000e+000
      vertex -1.000000e+000  1.450000e+001  1.000000e+001
    endloop
  endfacet
  facet normal  0.000000e+000  1.000000e+000  0.000000e+000
    outer loop
      vertex -1.000000e+000  1.450000e+001  1.000000e+001
      vertex  5.000000e+000  1.450000e+001  9.000000e+000
      vertex  0.000000e+000  1.450000e+001  9.000000e+000
    endloop
  endfacet
  facet normal  0.000000e+000  1.000000e+000  0.000000e+000
    outer loop
      vertex -1.000000e+000  1.450000e+001  1.000000e+001
      vertex  0.000000e+000  1.450000e+001  9.000000e+000
      vertex -1.000000e+000  1.450000e+001  3.000000e+000
    endloop
  endfacet
  facet normal  -0.000000e+000  1.000000e+000  0.000000e+000
    outer loop
      vertex -1.000000e+000  1.450000e+001  3.000000e+000
      vertex  0.000000e+000  1.450000e+001  9.000000e+000
      vertex  0.000000e+000  1.450000e+001  2.000000e+000
    endloop
  endfacet
  facet normal -1.000000e+000  0.000000e+000  0.000000e+000
    outer loop
      vertex -3.000000e+000  6.000000e+000  1.000000e+000
      vertex -3.000000e+000  6.000000e+000  0.000000e+000
      vertex -3.000000e+000  0.000000e+000  1.000000e+000
    endloop
  endfacet
  facet normal -1.000000e+000  0.000000e+000  0.000000e+000
    outer loop
      vertex -3.000000e+000  0.000000e+000  1.000000e+000
      vertex -3.000000e+000  6.000000e+000  0.000000e+000
      vertex -3.000000e+000  0.000000e+000  0.000000e+000
    endloop
  endfacet
  facet normal -1.000000e+000  0.000000e+000  0.000000e+000
    outer loop
      vertex -3.000000e+000  2.100000e+001  1.000000e+000
      vertex -3.000000e+000  2.100000e+001  0.000000e+000
      vertex -3.000000e+000  1.450000e+001  1.000000e+000
    endloop
  endfacet
  facet normal -1.000000e+000  0.000000e+000  0.000000e+000
    outer loop
      vertex -3.000000e+000  1.450000e+001  1.000000e+000
      vertex -3.000000e+000  2.100000e+001  0.000000e+000
      vertex -3.000000e+000  1.450000e+001  0.000000e+000
    endloop
  endfacet
  facet normal -1.000000e+000  0.000000e+000  0.000000e+000
    outer loop
      vertex -3.000000e+000  1.350000e+001  1.000000e+000
      vertex -3.000000e+000  1.350000e+001  0.000000e+000
      vertex -3.000000e+000  7.000000e+000  1.000000e+000
    endloop
  endfacet
  facet normal -1.000000e+000  0.000000e+000  0.000000e+000
    outer loop
      vertex -3.000000e+000  7.000000e+000  1.000000e+000
      vertex -3.000000e+000  1.350000e+001  0.000000e+000
      vertex -3.000000e+000  7.000000e+000  0.000000e+000
    endloop
  endfacet
  facet normal  0.000000e+000  0.000000e+000  1.000000e+000
    outer loop
      vertex  0.000000e+000  0.000000e+000  9.000000e+000
      vertex  5.000000e+000  0.000000e+000  9.000000e+000
      vertex  0.000000e+000  6.000000e+000  9.000000e+000
    endloop
  endfacet
  facet normal  -0.000000e+000  0.000000e+000  1.000000e+000
    outer loop
      vertex  0.000000e+000  6.000000e+000  9.000000e+000
      vertex  5.000000e+000  0.000000e+000  9.000000e+000
      vertex  5.000000e+000  6.000000e+000  9.000000e+000
    endloop
  endfacet
  facet normal  0.000000e+000  0.000000e+000  1.000000e+000
    outer loop
      vertex  0.000000e+000  1.450000e+001  9.000000e+000
      vertex  5.000000e+000  1.450000e+001  9.000000e+000
      vertex  0.000000e+000  2.100000e+001  9.000000e+000
    endloop
  endfacet
  facet normal  -0.000000e+000  0.000000e+000  1.000000e+000
    outer loop
      vertex  0.000000e+000  2.100000e+001  9.000000e+000
      vertex  5.000000e+000  1.450000e+001  9.000000e+000
      vertex  5.000000e+000  2.100000e+001  9.000000e+000
    endloop
  endfacet
  facet normal  0.000000e+000  0.000000e+000  1.000000e+000
    outer loop
      vertex  0.000000e+000  7.000000e+000  9.000000e+000
      vertex  5.000000e+000  7.000000e+000  9.000000e+000
      vertex  0.000000e+000  1.350000e+001  9.000000e+000
    endloop
  endfacet
  facet normal  -0.000000e+000  0.000000e+000  1.000000e+000
    outer loop
      vertex  0.000000e+000  1.350000e+001  9.000000e+000
      vertex  5.000000e+000  7.000000e+000  9.000000e+000
      vertex  5.000000e+000  1.350000e+001  9.000000e+000
    endloop
  endfacet
  facet normal -1.000000e+000  0.000000e+000  0.000000e+000
    outer loop
      vertex  0.000000e+000  6.000000e+000  9.000000e+000
      vertex  0.000000e+000  6.000000e+000  2.000000e+000
      vertex  0.000000e+000  0.000000e+000  9.000000e+000
    endloop
  endfacet
  facet normal -1.000000e+000  0.000000e+000  0.000000e+000
    outer loop
      vertex  0.000000e+000  0.000000e+000  9.000000e+000
      vertex  0.000000e+000  6.000000e+000  2.000000e+000
      vertex  0.000000e+000  0.000000e+000  2.000000e+000
    endloop
  endfacet
  facet normal -1.000000e+000  0.000000e+000  0.000000e+000
    outer loop
      vertex  0.000000e+000  2.100000e+001  9.000000e+000
      vertex  0.000000e+000  2.100000e+001  2.000000e+000
      vertex  0.000000e+000  1.450000e+001  9.000000e+000
    endloop
  endfacet
  facet normal -1.000000e+000  0.000000e+000  0.000000e+000
    outer loop
      vertex  0.000000e+000  1.450000e+001  9.000000e+000
      vertex  0.000000e+000  2.100000e+001  2.000000e+000
      vertex  0.000000e+000  1.450000e+001  2.000000e+000
    endloop
  endfacet
  facet normal -1.000000e+000  0.000000e+000  0.000000e+000
    outer loop
      vertex  0.000000e+000  1.350000e+001  9.000000e+000
      vertex  0.000000e+000  1.350000e+001  2.000000e+000
      vertex  0.000000e+000  7.000000e+000  9.000000e+000
    endloop
  endfacet
  facet normal -1.000000e+000  0.000000e+000  0.000000e+000
    outer loop
      vertex  0.000000e+000  7.000000e+000  9.000000e+000
      vertex  0.000000e+000  1.350000e+001  2.000000e+000
      vertex  0.000000e+000  7.000000e+000  2.000000e+000
    endloop
  endfacet
  facet normal  0.000000e+000  0.000000e+000  1.000000e+000
    outer loop
      vertex -2.000000e+000  0.000000e+000  2.000000e+000
      vertex  0.000000e+000  0.000000e+000  2.000000e+000
      vertex -2.000000e+000  6.000000e+000  2.000000e+000
    endloop
  endfacet
  facet normal  -0.000000e+000  0.000000e+000  1.000000e+000
    outer loop
      vertex -2.000000e+000  6.000000e+000  2.000000e+000
      vertex  0.000000e+000  0.000000e+000  2.000000e+000
      vertex  0.000000e+000  6.000000e+000  2.000000e+000
    endloop
  endfacet
  facet normal  0.000000e+000  0.000000e+000  1.000000e+000
    outer loop
      vertex -2.000000e+000  1.450000e+001  2.000000e+000
      vertex  0.000000e+000  1.450000e+001  2.000000e+000
      vertex -2.000000e+000  2.100000e+001  2.000000e+000
    endloop
  endfacet
  facet normal  -0.000000e+000  0.000000e+000  1.000000e+000
    outer loop
      vertex -2.000000e+000  2.100000e+001  2.000000e+000
      vertex  0.000000e+000  1.450000e+001  2.000000e+000
      vertex  0.000000e+000  2.100000e+001  2.000000e+000
    endloop
  endfacet
  facet normal  0.000000e+000  0.000000e+000  1.000000e+000
    outer loop
      vertex -2.000000e+000  7.000000e+000  2.000000e+000
      vertex  0.000000e+000  7.000000e+000  2.000000e+000
      vertex -2.000000e+000  1.350000e+001  2.000000e+000
    endloop
  endfacet
  facet normal  -0.000000e+000  0.000000e+000  1.000000e+000
    outer loop
      vertex -2.000000e+000  1.350000e+001  2.000000e+000
      vertex  0.000000e+000  7.000000e+000  2.000000e+000
      vertex  0.000000e+000  1.350000e+001  2.000000e+000
    endloop
  endfacet
  facet normal -9.801731e-002  0.000000e+000  9.951847e-001
    outer loop
      vertex -2.000000e+000  0.000000e+000  2.000000e+000
      vertex -2.000000e+000  6.000000e+000  2.000000e+000
      vertex -2.195090e+000  0.000000e+000  1.980785e+000
    endloop
  endfacet
  facet normal -9.801731e-002  0.000000e+000  9.951847e-001
    outer loop
      vertex -2.195090e+000  0.000000e+000  1.980785e+000
      vertex -2.000000e+000  6.000000e+000  2.000000e+000
      vertex -2.195090e+000  6.000000e+000  1.980785e+000
    endloop
  endfacet
  facet normal -2.902845e-001  0.000000e+000  9.569404e-001
    outer loop
      vertex -2.195090e+000  0.000000e+000  1.980785e+000
      vertex -2.195090e+000  6.000000e+000  1.980785e+000
      vertex -2.382684e+000  0.000000e+000  1.923880e+000
    endloop
  endfacet
  facet normal -2.902845e-001  0.000000e+000  9.569404e-001
    outer loop
      vertex -2.382684e+000  0.000000e+000  1.923880e+000
      vertex -2.195090e+000  6.000000e+000  1.980785e+000
      vertex -2.382684e+000  6.000000e+000  1.923880e+000
    endloop
  endfacet
  facet normal -4.713969e-001  0.000000e+000  8.819212e-001
    outer loop
      vertex -2.382684e+000  0.000000e+000  1.923880e+000
      vertex -2.382684e+000  6.000000e+000  1.923880e+000
      vertex -2.555570e+000  0.000000e+000  1.831470e+000
    endloop
  endfacet
  facet normal -4.713969e-001  0.000000e+000  8.819212e-001
    outer loop
      vertex -2.555570e+000  0.000000e+000  1.831470e+000
      vertex -2.382684e+000  6.000000e+000  1.923880e+000
      vertex -2.555570e+000  6.000000e+000  1.831470e+000
    endloop
  endfacet
  facet normal -6.343929e-001  0.000000e+000  7.730108e-001
    outer loop
      vertex -2.555570e+000  0.000000e+000  1.831470e+000
      vertex -2.555570e+000  6.000000e+000  1.831470e+000
      vertex -2.707107e+000  0.000000e+000  1.707107e+000
    endloop
  endfacet
  facet normal -6.343929e-001  0.000000e+000  7.730108e-001
    outer loop
      vertex -2.707107e+000  0.000000e+000  1.707107e+000
      vertex -2.555570e+000  6.000000e+000  1.831470e+000
      vertex -2.707107e+000  6.000000e+000  1.707107e+000
    endloop
  endfacet
  facet normal -7.730108e-001  0.000000e+000  6.343928e-001
    outer loop
      vertex -2.707107e+000  0.000000e+000  1.707107e+000
      vertex -2.707107e+000  6.000000e+000  1.707107e+000
      vertex -2.831470e+000  0.000000e+000  1.555570e+000
    endloop
  endfacet
  facet normal -7.730108e-001  0.000000e+000  6.343928e-001
    outer loop
      vertex -2.831470e+000  0.000000e+000  1.555570e+000
      vertex -2.707107e+000  6.000000e+000  1.707107e+000
      vertex -2.831470e+000  6.000000e+000  1.555570e+000
    endloop
  endfacet
  facet normal -8.819210e-001  0.000000e+000  4.713973e-001
    outer loop
      vertex -2.831470e+000  0.000000e+000  1.555570e+000
      vertex -2.831470e+000  6.000000e+000  1.555570e+000
      vertex -2.923880e+000  0.000000e+000  1.382683e+000
    endloop
  endfacet
  facet normal -8.819210e-001  0.000000e+000  4.713973e-001
    outer loop
      vertex -2.923880e+000  0.000000e+000  1.382683e+000
      vertex -2.831470e+000  6.000000e+000  1.555570e+000
      vertex -2.923880e+000  6.000000e+000  1.382683e+000
    endloop
  endfacet
  facet normal -9.569404e-001  0.000000e+000  2.902847e-001
    outer loop
      vertex -2.923880e+000  0.000000e+000  1.382683e+000
      vertex -2.923880e+000  6.000000e+000  1.382683e+000
      vertex -2.980785e+000  0.000000e+000  1.195090e+000
    endloop
  endfacet
  facet normal -9.569404e-001  0.000000e+000  2.902847e-001
    outer loop
      vertex -2.980785e+000  0.000000e+000  1.195090e+000
      vertex -2.923880e+000  6.000000e+000  1.382683e+000
      vertex -2.980785e+000  6.000000e+000  1.195090e+000
    endloop
  endfacet
  facet normal -9.951847e-001  0.000000e+000  9.801669e-002
    outer loop
      vertex -2.980785e+000  0.000000e+000  1.195090e+000
      vertex -2.980785e+000  6.000000e+000  1.195090e+000
      vertex -3.000000e+000  0.000000e+000  1.000000e+000
    endloop
  endfacet
  facet normal -9.951847e-001  0.000000e+000  9.801669e-002
    outer loop
      vertex -3.000000e+000  0.000000e+000  1.000000e+000
      vertex -2.980785e+000  6.000000e+000  1.195090e+000
      vertex -3.000000e+000  6.000000e+000  1.000000e+000
    endloop
  endfacet
  facet normal -9.801731e-002  0.000000e+000  9.951848e-001
    outer loop
      vertex -2.000000e+000  1.450000e+001  2.000000e+000
      vertex -2.000000e+000  2.100000e+001  2.000000e+000
      vertex -2.195090e+000  1.450000e+001  1.980785e+000
    endloop
  endfacet
  facet normal -9.801731e-002  0.000000e+000  9.951848e-001
    outer loop
      vertex -2.195090e+000  1.450000e+001  1.980785e+000
      vertex -2.000000e+000  2.100000e+001  2.000000e+000
      vertex -2.195090e+000  2.100000e+001  1.980785e+000
    endloop
  endfacet
  facet normal -2.902845e-001  0.000000e+000  9.569404e-001
    outer loop
      vertex -2.195090e+000  1.450000e+001  1.980785e+000
      vertex -2.195090e+000  2.100000e+001  1.980785e+000
      vertex -2.382684e+000  1.450000e+001  1.923880e+000
    endloop
  endfacet
  facet normal -2.902845e-001  0.000000e+000  9.569404e-001
    outer loop
      vertex -2.382684e+000  1.450000e+001  1.923880e+000
      vertex -2.195090e+000  2.100000e+001  1.980785e+000
      vertex -2.382684e+000  2.100000e+001  1.923880e+000
    endloop
  endfacet
  facet normal -4.713969e-001  0.000000e+000  8.819212e-001
    outer loop
      vertex -2.382684e+000  1.450000e+001  1.923880e+000
      vertex -2.382684e+000  2.100000e+001  1.923880e+000
      vertex -2.555570e+000  1.450000e+001  1.831470e+000
    endloop
  endfacet
  facet normal -4.713969e-001  0.000000e+000  8.819212e-001
    outer loop
      vertex -2.555570e+000  1.450000e+001  1.831470e+000
      vertex -2.382684e+000  2.100000e+001  1.923880e+000
      vertex -2.555570e+000  2.100000e+001  1.831470e+000
    endloop
  endfacet
  facet normal -6.343929e-001  0.000000e+000  7.730108e-001
    outer loop
      vertex -2.555570e+000  1.450000e+001  1.831470e+000
      vertex -2.555570e+000  2.100000e+001  1.831470e+000
      vertex -2.707107e+000  1.450000e+001  1.707107e+000
    endloop
  endfacet
  facet normal -6.343929e-001  0.000000e+000  7.730108e-001
    outer loop
      vertex -2.707107e+000  1.450000e+001  1.707107e+000
      vertex -2.555570e+000  2.100000e+001  1.831470e+000
      vertex -2.707107e+000  2.100000e+001  1.707107e+000
    endloop
  endfacet
  facet normal -7.730108e-001  0.000000e+000  6.343928e-001
    outer loop
      vertex -2.707107e+000  1.450000e+001  1.707107e+000
      vertex -2.707107e+000  2.100000e+001  1.707107e+000
      vertex -2.831470e+000  1.450000e+001  1.555570e+000
    endloop
  endfacet
  facet normal -7.730108e-001  0.000000e+000  6.343928e-001
    outer loop
      vertex -2.831470e+000  1.450000e+001  1.555570e+000
      vertex -2.707107e+000  2.100000e+001  1.707107e+000
      vertex -2.831470e+000  2.100000e+001  1.555570e+000
    endloop
  endfacet
  facet normal -8.819210e-001  0.000000e+000  4.713973e-001
    outer loop
      vertex -2.831470e+000  1.450000e+001  1.555570e+000
      vertex -2.831470e+000  2.100000e+001  1.555570e+000
      vertex -2.923880e+000  1.450000e+001  1.382683e+000
    endloop
  endfacet
  facet normal -8.819210e-001  0.000000e+000  4.713973e-001
    outer loop
      vertex -2.923880e+000  1.450000e+001  1.382683e+000
      vertex -2.831470e+000  2.100000e+001  1.555570e+000
      vertex -2.923880e+000  2.100000e+001  1.382683e+000
    endloop
  endfacet
  facet normal -9.569403e-001  0.000000e+000  2.902847e-001
    outer loop
      vertex -2.923880e+000  1.450000e+001  1.382683e+000
      vertex -2.923880e+000  2.100000e+001  1.382683e+000
      vertex -2.980785e+000  1.450000e+001  1.195090e+000
    endloop
  endfacet
  facet normal -9.569403e-001  0.000000e+000  2.902847e-001
    outer loop
      vertex -2.980785e+000  1.450000e+001  1.195090e+000
      vertex -2.923880e+000  2.100000e+001  1.382683e+000
      vertex -2.980785e+000  2.100000e+001  1.195090e+000
    endloop
  endfacet
  facet normal -9.951848e-001  0.000000e+000  9.801670e-002
    outer loop
      vertex -2.980785e+000  1.450000e+001  1.195090e+000
      vertex -2.980785e+000  2.100000e+001  1.195090e+000
      vertex -3.000000e+000  1.450000e+001  1.000000e+000
    endloop
  endfacet
  facet normal -9.951848e-001  0.000000e+000  9.801670e-002
    outer loop
      vertex -3.000000e+000  1.450000e+001  1.000000e+000
      vertex -2.980785e+000  2.100000e+001  1.195090e+000
      vertex -3.000000e+000  2.100000e+001  1.000000e+000
    endloop
  endfacet
  facet normal -9.801731e-002  0.000000e+000  9.951848e-001
    outer loop
      vertex -2.000000e+000  7.000000e+000  2.000000e+000
      vertex -2.000000e+000  1.350000e+001  2.000000e+000
      vertex -2.195090e+000  7.000000e+000  1.980785e+000
    endloop
  endfacet
  facet normal -9.801731e-002  0.000000e+000  9.951848e-001
    outer loop
      vertex -2.195090e+000  7.000000e+000  1.980785e+000
      vertex -2.000000e+000  1.350000e+001  2.000000e+000
      vertex -2.195090e+000  1.350000e+001  1.980785e+000
    endloop
  endfacet
  facet normal -2.902845e-001  0.000000e+000  9.569404e-001
    outer loop
      vertex -2.195090e+000  7.000000e+000  1.980785e+000
      vertex -2.195090e+000  1.350000e+001  1.980785e+000
      vertex -2.382684e+000  7.000000e+000  1.923880e+000
    endloop
  endfacet
  facet normal -2.902845e-001  0.000000e+000  9.569404e-001
    outer loop
      vertex -2.382684e+000  7.000000e+000  1.923880e+000
      vertex -2.195090e+000  1.350000e+001  1.980785e+000
      vertex -2.382684e+000  1.350000e+001  1.923880e+000
    endloop
  endfacet
  facet normal -4.713969e-001  0.000000e+000  8.819212e-001
    outer loop
      vertex -2.382684e+000  7.000000e+000  1.923880e+000
      vertex -2.382684e+000  1.350000e+001  1.923880e+000
      vertex -2.555570e+000  7.000000e+000  1.831470e+000
    endloop
  endfacet
  facet normal -4.713969e-001  0.000000e+000  8.819212e-001
    outer loop
      vertex -2.555570e+000  7.000000e+000  1.831470e+000
      vertex -2.382684e+000  1.350000e+001  1.923880e+000
      vertex -2.555570e+000  1.350000e+001  1.831470e+000
    endloop
  endfacet
  facet normal -6.343929e-001  0.000000e+000  7.730108e-001
    outer loop
      vertex -2.555570e+000  7.000000e+000  1.831470e+000
      vertex -2.555570e+000  1.350000e+001  1.831470e+000
      vertex -2.707107e+000  7.000000e+000  1.707107e+000
    endloop
  endfacet
  facet normal -6.343929e-001  0.000000e+000  7.730108e-001
    outer loop
      vertex -2.707107e+000  7.000000e+000  1.707107e+000
      vertex -2.555570e+000  1.350000e+001  1.831470e+000
      vertex -2.707107e+000  1.350000e+001  1.707107e+000
    endloop
  endfacet
  facet normal -7.730108e-001  0.000000e+000  6.343928e-001
    outer loop
      vertex -2.707107e+000  7.000000e+000  1.707107e+000
      vertex -2.707107e+000  1.350000e+001  1.707107e+000
      vertex -2.831470e+000  7.000000e+000  1.555570e+000
    endloop
  endfacet
  facet normal -7.730108e-001  0.000000e+000  6.343928e-001
    outer loop
      vertex -2.831470e+000  7.000000e+000  1.555570e+000
      vertex -2.707107e+000  1.350000e+001  1.707107e+000
      vertex -2.831470e+000  1.350000e+001  1.555570e+000
    endloop
  endfacet
  facet normal -8.819210e-001  0.000000e+000  4.713973e-001
    outer loop
      vertex -2.831470e+000  7.000000e+000  1.555570e+000
      vertex -2.831470e+000  1.350000e+001  1.555570e+000
      vertex -2.923880e+000  7.000000e+000  1.382683e+000
    endloop
  endfacet
  facet normal -8.819210e-001  0.000000e+000  4.713973e-001
    outer loop
      vertex -2.923880e+000  7.000000e+000  1.382683e+000
      vertex -2.831470e+000  1.350000e+001  1.555570e+000
      vertex -2.923880e+000  1.350000e+001  1.382683e+000
    endloop
  endfacet
  facet normal -9.569403e-001  0.000000e+000  2.902847e-001
    outer loop
      vertex -2.923880e+000  7.000000e+000  1.382683e+000
      vertex -2.923880e+000  1.350000e+001  1.382683e+000
      vertex -2.980785e+000  7.000000e+000  1.195090e+000
    endloop
  endfacet
  facet normal -9.569403e-001  0.000000e+000  2.902847e-001
    outer loop
      vertex -2.980785e+000  7.000000e+000  1.195090e+000
      vertex -2.923880e+000  1.350000e+001  1.382683e+000
      vertex -2.980785e+000  1.350000e+001  1.195090e+000
    endloop
  endfacet
  facet normal -9.951848e-001  0.000000e+000  9.801670e-002
    outer loop
      vertex -2.980785e+000  7.000000e+000  1.195090e+000
      vertex -2.980785e+000  1.350000e+001  1.195090e+000
      vertex -3.000000e+000  7.000000e+000  1.000000e+000
    endloop
  endfacet
  facet normal -9.951848e-001  0.000000e+000  9.801670e-002
    outer loop
      vertex -3.000000e+000  7.000000e+000  1.000000e+000
      vertex -2.980785e+000  1.350000e+001  1.195090e+000
      vertex -3.000000e+000  1.350000e+001  1.000000e+000
    endloop
  endfacet
  facet normal  0.000000e+000  0.000000e+000  1.000000e+000
    outer loop
      vertex  5.000000e+000  6.000000e+000  1.000000e+001
      vertex  5.000000e+000  7.000000e+000  1.000000e+001
      vertex -1.000000e+000  6.000000e+000  1.000000e+001
    endloop
  endfacet
  facet normal  0.000000e+000  0.000000e+000  1.000000e+000
    outer loop
      vertex -1.000000e+000  6.000000e+000  1.000000e+001
      vertex  5.000000e+000  7.000000e+000  1.000000e+001
      vertex -1.000000e+000  7.000000e+000  1.000000e+001
    endloop
  endfacet
  facet normal -1.000000e+000  -0.000000e+000  0.000000e+000
    outer loop
      vertex -1.000000e+000  6.000000e+000  1.000000e+001
      vertex -1.000000e+000  7.000000e+000  1.000000e+001
      vertex -1.000000e+000  6.000000e+000  3.000000e+000
    endloop
  endfacet
  facet normal -1.000000e+000  0.000000e+000  0.000000e+000
    outer loop
      vertex -1.000000e+000  6.000000e+000  3.000000e+000
      vertex -1.000000e+000  7.000000e+000  1.000000e+001
      vertex -1.000000e+000  7.000000e+000  3.000000e+000
    endloop
  endfacet
  facet normal  0.000000e+000  0.000000e+000  1.000000e+000
    outer loop
      vertex -1.000000e+000  6.000000e+000  3.000000e+000
      vertex -1.000000e+000  7.000000e+000  3.000000e+000
      vertex -4.000000e+000  6.000000e+000  3.000000e+000
    endloop
  endfacet
  facet normal  0.000000e+000  0.000000e+000  1.000000e+000
    outer loop
      vertex -4.000000e+000  6.000000e+000  3.000000e+000
      vertex -1.000000e+000  7.000000e+000  3.000000e+000
      vertex -4.000000e+000  7.000000e+000  3.000000e+000
    endloop
  endfacet
  facet normal -1.000000e+000  -0.000000e+000  0.000000e+000
    outer loop
      vertex -4.000000e+000  6.000000e+000  3.000000e+000
      vertex -4.000000e+000  7.000000e+000  3.000000e+000
      vertex -4.000000e+000  6.000000e+000  0.000000e+000
    endloop
  endfacet
  facet normal -1.000000e+000  0.000000e+000  0.000000e+000
    outer loop
      vertex -4.000000e+000  6.000000e+000  0.000000e+000
      vertex -4.000000e+000  7.000000e+000  3.000000e+000
      vertex -4.000000e+000  7.000000e+000  0.000000e+000
    endloop
  endfacet
  facet normal  0.000000e+000  0.000000e+000  1.000000e+000
    outer loop
      vertex  5.000000e+000  1.350000e+001  1.000000e+001
      vertex  5.000000e+000  1.450000e+001  1.000000e+001
      vertex -1.000000e+000  1.350000e+001  1.000000e+001
    endloop
  endfacet
  facet normal  0.000000e+000  0.000000e+000  1.000000e+000
    outer loop
      vertex -1.000000e+000  1.350000e+001  1.000000e+001
      vertex  5.000000e+000  1.450000e+001  1.000000e+001
      vertex -1.000000e+000  1.450000e+001  1.000000e+001
    endloop
  endfacet
  facet normal -1.000000e+000  -0.000000e+000  0.000000e+000
    outer loop
      vertex -1.000000e+000  1.350000e+001  1.000000e+001
      vertex -1.000000e+000  1.450000e+001  1.000000e+001
      vertex -1.000000e+000  1.350000e+001  3.000000e+000
    endloop
  endfacet
  facet normal -1.000000e+000  0.000000e+000  0.000000e+000
    outer loop
      vertex -1.000000e+000  1.350000e+001  3.000000e+000
      vertex -1.000000e+000  1.450000e+001  1.000000e+001
      vertex -1.000000e+000  1.450000e+001  3.000000e+000
    endloop
  endfacet
  facet normal  0.000000e+000  0.000000e+000  1.000000e+000
    outer loop
      vertex -1.000000e+000  1.350000e+001  3.000000e+000
      vertex -1.000000e+000  1.450000e+001  3.000000e+000
      vertex -4.000000e+000  1.350000e+001  3.000000e+000
    endloop
  endfacet
  facet normal  0.000000e+000  0.000000e+000  1.000000e+000
    outer loop
      vertex -4.000000e+000  1.350000e+001  3.000000e+000
      vertex -1.000000e+000  1.450000e+001  3.000000e+000
      vertex -4.000000e+000  1.450000e+001  3.000000e+000
    endloop
  endfacet
  facet normal -1.000000e+000  -0.000000e+000  0.000000e+000
    outer loop
      vertex -4.000000e+000  1.350000e+001  3.000000e+000
      vertex -4.000000e+000  1.450000e+001  3.000000e+000
      vertex -4.000000e+000  1.350000e+001  0.000000e+000
    endloop
  endfacet
  facet normal -1.000000e+000  0.000000e+000  0.000000e+000
    outer loop
      vertex -4.000000e+000  1.350000e+001  0.000000e+000
      vertex -4.000000e+000  1.450000e+001  3.000000e+000
      vertex -4.000000e+000  1.450000e+001  0.000000e+000
    endloop
  endfacet
  facet normal  0.000000e+000 -1.000000e+000  0.000000e+000
    outer loop
      vertex -4.000000e+000  2.100000e+001  3.000000e+000
      vertex -4.000000e+000  2.100000e+001  0.000000e+000
      vertex -3.000000e+000  2.100000e+001  0.000000e+000
    endloop
  endfacet
  facet normal  0.000000e+000 -1.000000e+000  0.000000e+000
    outer loop
      vertex -4.000000e+000  2.100000e+001  3.000000e+000
      vertex -3.000000e+000  2.100000e+001  0.000000e+000
      vertex -3.000000e+000  2.100000e+001  1.000000e+000
    endloop
  endfacet
  facet normal  0.000000e+000 -1.000000e+000  0.000000e+000
    outer loop
      vertex -4.000000e+000  2.100000e+001  3.000000e+000
      vertex -3.000000e+000  2.100000e+001  1.000000e+000
      vertex -2.980785e+000  2.100000e+001  1.195090e+000
    endloop
  endfacet
  facet normal  0.000000e+000 -1.000000e+000  0.000000e+000
    outer loop
      vertex -4.000000e+000  2.100000e+001  3.000000e+000
      vertex -2.980785e+000  2.100000e+001  1.195090e+000
      vertex -2.923880e+000  2.100000e+001  1.382683e+000
    endloop
  endfacet
  facet normal  0.000000e+000 -9.999999e-001  0.000000e+000
    outer loop
      vertex -4.000000e+000  2.100000e+001  3.000000e+000
      vertex -2.923880e+000  2.100000e+001  1.382683e+000
      vertex -2.831470e+000  2.100000e+001  1.555570e+000
    endloop
  endfacet
  facet normal  0.000000e+000 -1.000000e+000  0.000000e+000
    outer loop
      vertex -4.000000e+000  2.100000e+001  3.000000e+000
      vertex -2.831470e+000  2.100000e+001  1.555570e+000
      vertex -2.707107e+000  2.100000e+001  1.707107e+000
    endloop
  endfacet
  facet normal  0.000000e+000 -1.000000e+000  0.000000e+000
    outer loop
      vertex -4.000000e+000  2.100000e+001  3.000000e+000
      vertex -2.707107e+000  2.100000e+001  1.707107e+000
      vertex -2.555570e+000  2.100000e+001  1.831470e+000
    endloop
  endfacet
  facet normal  0.000000e+000 -1.000000e+000  0.000000e+000
    outer loop
      vertex -4.000000e+000  2.100000e+001  3.000000e+000
      vertex -2.555570e+000  2.100000e+001  1.831470e+000
      vertex -2.382684e+000  2.100000e+001  1.923880e+000
    endloop
  endfacet
  facet normal  0.000000e+000 -1.000000e+000  0.000000e+000
    outer loop
      vertex -4.000000e+000  2.100000e+001  3.000000e+000
      vertex -2.382684e+000  2.100000e+001  1.923880e+000
      vertex -2.195090e+000  2.100000e+001  1.980785e+000
    endloop
  endfacet
  facet normal  0.000000e+000 -1.000000e+000  0.000000e+000
    outer loop
      vertex -4.000000e+000  2.100000e+001  3.000000e+000
      vertex -2.195090e+000  2.100000e+001  1.980785e+000
      vertex -2.000000e+000  2.100000e+001  2.000000e+000
    endloop
  endfacet
  facet normal  0.000000e+000 -1.000000e+000  0.000000e+000
    outer loop
      vertex -4.000000e+000  2.100000e+001  3.000000e+000
      vertex -2.000000e+000  2.100000e+001  2.000000e+000
      vertex  0.000000e+000  2.100000e+001  2.000000e+000
    endloop
  endfacet
  facet normal  0.000000e+000 -1.000000e+000  0.000000e+000
    outer loop
      vertex -4.000000e+000  2.100000e+001  3.000000e+000
      vertex  0.000000e+000  2.100000e+001  2.000000e+000
      vertex -1.000000e+000  2.100000e+001  3.000000e+000
    endloop
  endfacet
  facet normal  0.000000e+000 -1.000000e+000  0.000000e+000
    outer loop
      vertex  5.000000e+000  2.100000e+001  1.000000e+001
      vertex -1.000000e+000  2.100000e+001  1.000000e+001
      vertex  5.000000e+000  2.100000e+001  9.000000e+000
    endloop
  endfacet
  facet normal  0.000000e+000 -1.000000e+000  0.000000e+000
    outer loop
      vertex  5.000000e+000  2.100000e+001  9.000000e+000
      vertex -1.000000e+000  2.100000e+001  1.000000e+001
      vertex  0.000000e+000  2.100000e+001  9.000000e+000
    endloop
  endfacet
  facet normal  0.000000e+000 -1.000000e+000  0.000000e+000
    outer loop
      vertex -1.000000e+000  2.100000e+001  1.000000e+001
      vertex -1.000000e+000  2.100000e+001  3.000000e+000
      vertex  0.000000e+000  2.100000e+001  9.000000e+000
    endloop
  endfacet
  facet normal  0.000000e+000 -1.000000e+000  -0.000000e+000
    outer loop
      vertex  0.000000e+000  2.100000e+001  9.000000e+000
      vertex -1.000000e+000  2.100000e+001  3.000000e+000
      vertex  0.000000e+000  2.100000e+001  2.000000e+000
    endloop
  endfacet
  facet normal  0.000000e+000  0.000000e+000  1.000000e+000
    outer loop
      vertex  5.000000e+000  2.100000e+001  1.000000e+001
      vertex  5.000000e+000  2.200000e+001  1.000000e+001
      vertex -1.000000e+000  2.100000e+001  1.000000e+001
    endloop
  endfacet
  facet normal  0.000000e+000  0.000000e+000  1.000000e+000
    outer loop
      vertex -1.000000e+000  2.100000e+001  1.000000e+001
      vertex  5.000000e+000  2.200000e+001  1.000000e+001
      vertex -1.000000e+000  2.200000e+001  1.000000e+001
    endloop
  endfacet
  facet normal -1.000000e+000  -0.000000e+000  0.000000e+000
    outer loop
      vertex -1.000000e+000  2.100000e+001  1.000000e+001
      vertex -1.000000e+000  2.200000e+001  1.000000e+001
      vertex -1.000000e+000  2.100000e+001  3.000000e+000
    endloop
  endfacet
  facet normal -1.000000e+000  0.000000e+000  0.000000e+000
    outer loop
      vertex -1.000000e+000  2.100000e+001  3.000000e+000
      vertex -1.000000e+000  2.200000e+001  1.000000e+001
      vertex -1.000000e+000  2.200000e+001  3.000000e+000
    endloop
  endfacet
  facet normal  0.000000e+000  0.000000e+000  1.000000e+000
    outer loop
      vertex -1.000000e+000  2.100000e+001  3.000000e+000
      vertex -1.000000e+000  2.200000e+001  3.000000e+000
      vertex -4.000000e+000  2.100000e+001  3.000000e+000
    endloop
  endfacet
  facet normal  0.000000e+000  0.000000e+000  1.000000e+000
    outer loop
      vertex -4.000000e+000  2.100000e+001  3.000000e+000
      vertex -1.000000e+000  2.200000e+001  3.000000e+000
      vertex -4.000000e+000  2.200000e+001  3.000000e+000
    endloop
  endfacet
  facet normal -1.000000e+000  -0.000000e+000  0.000000e+000
    outer loop
      vertex -4.000000e+000  2.100000e+001  3.000000e+000
      vertex -4.000000e+000  2.200000e+001  3.000000e+000
      vertex -4.000000e+000  2.100000e+001  0.000000e+000
    endloop
  endfacet
  facet normal -1.000000e+000  0.000000e+000  0.000000e+000
    outer loop
      vertex -4.000000e+000  2.100000e+001  0.000000e+000
      vertex -4.000000e+000  2.200000e+001  3.000000e+000
      vertex -4.000000e+000  2.200000e+001  0.000000e+000
    endloop
  endfacet
endsolid CATIA STL
