solid CATIA STL
  facet normal  0.000000e+000  0.000000e+000  1.000000e+000
    outer loop
      vertex -4.523396e+001  1.177499e+001  4.000000e-001
      vertex  3.426604e+001  1.177499e+001  4.000000e-001
      vertex -4.523396e+001  1.727499e+001  4.000000e-001
    endloop
  endfacet
  facet normal  -0.000000e+000  0.000000e+000  1.000000e+000
    outer loop
      vertex -4.523396e+001  1.727499e+001  4.000000e-001
      vertex  3.426604e+001  1.177499e+001  4.000000e-001
      vertex  3.426604e+001  1.727499e+001  4.000000e-001
    endloop
  endfacet
  facet normal  0.000000e+000  0.000000e+000 -1.000000e+000
    outer loop
      vertex -4.523396e+001  1.177499e+001  0.000000e+000
      vertex -4.523396e+001  1.727499e+001  0.000000e+000
      vertex  3.426604e+001  1.177499e+001  0.000000e+000
    endloop
  endfacet
  facet normal  0.000000e+000  0.000000e+000 -1.000000e+000
    outer loop
      vertex  3.426604e+001  1.177499e+001  0.000000e+000
      vertex -4.523396e+001  1.727499e+001  0.000000e+000
      vertex  3.426604e+001  1.727499e+001  0.000000e+000
    endloop
  endfacet
  facet normal  0.000000e+000  1.000000e+000  0.000000e+000
    outer loop
      vertex -4.523396e+001  1.727499e+001  4.000000e-001
      vertex  3.426604e+001  1.727499e+001  4.000000e-001
      vertex -4.523396e+001  1.727499e+001  0.000000e+000
    endloop
  endfacet
  facet normal  0.000000e+000  1.000000e+000  0.000000e+000
    outer loop
      vertex -4.523396e+001  1.727499e+001  0.000000e+000
      vertex  3.426604e+001  1.727499e+001  4.000000e-001
      vertex  3.426604e+001  1.727499e+001  0.000000e+000
    endloop
  endfacet
  facet normal  1.000000e+000  0.000000e+000  0.000000e+000
    outer loop
      vertex  3.426604e+001  1.177499e+001  4.000000e-001
      vertex  3.426604e+001  1.177499e+001  0.000000e+000
      vertex  3.426604e+001  1.727499e+001  4.000000e-001
    endloop
  endfacet
  facet normal  1.000000e+000  0.000000e+000  0.000000e+000
    outer loop
      vertex  3.426604e+001  1.727499e+001  4.000000e-001
      vertex  3.426604e+001  1.177499e+001  0.000000e+000
      vertex  3.426604e+001  1.727499e+001  0.000000e+000
    endloop
  endfacet
  facet normal  0.000000e+000 -1.000000e+000  0.000000e+000
    outer loop
      vertex  3.426604e+001  1.177499e+001  4.000000e-001
      vertex -4.523396e+001  1.177499e+001  4.000000e-001
      vertex  3.426604e+001  1.177499e+001  0.000000e+000
    endloop
  endfacet
  facet normal  0.000000e+000 -1.000000e+000  0.000000e+000
    outer loop
      vertex  3.426604e+001  1.177499e+001  0.000000e+000
      vertex -4.523396e+001  1.177499e+001  4.000000e-001
      vertex -4.523396e+001  1.177499e+001  0.000000e+000
    endloop
  endfacet
  facet normal -1.000000e+000  0.000000e+000  0.000000e+000
    outer loop
      vertex -4.523396e+001  1.727499e+001  4.000000e-001
      vertex -4.523396e+001  1.727499e+001  0.000000e+000
      vertex -4.523396e+001  1.177499e+001  4.000000e-001
    endloop
  endfacet
  facet normal -1.000000e+000  0.000000e+000  0.000000e+000
    outer loop
      vertex -4.523396e+001  1.177499e+001  4.000000e-001
      vertex -4.523396e+001  1.727499e+001  0.000000e+000
      vertex -4.523396e+001  1.177499e+001  0.000000e+000
    endloop
  endfacet
  facet normal  0.000000e+000  0.000000e+000  1.000000e+000
    outer loop
      vertex -4.523396e+001  4.274994e+000  4.000000e-001
      vertex  3.426604e+001  4.274994e+000  4.000000e-001
      vertex -4.523396e+001  9.774994e+000  4.000000e-001
    endloop
  endfacet
  facet normal  -0.000000e+000  0.000000e+000  1.000000e+000
    outer loop
      vertex -4.523396e+001  9.774994e+000  4.000000e-001
      vertex  3.426604e+001  4.274994e+000  4.000000e-001
      vertex  3.426604e+001  9.774994e+000  4.000000e-001
    endloop
  endfacet
  facet normal  0.000000e+000  0.000000e+000 -1.000000e+000
    outer loop
      vertex -4.523396e+001  4.274994e+000  0.000000e+000
      vertex -4.523396e+001  9.774994e+000  0.000000e+000
      vertex  3.426604e+001  4.274994e+000  0.000000e+000
    endloop
  endfacet
  facet normal  0.000000e+000  0.000000e+000 -1.000000e+000
    outer loop
      vertex  3.426604e+001  4.274994e+000  0.000000e+000
      vertex -4.523396e+001  9.774994e+000  0.000000e+000
      vertex  3.426604e+001  9.774994e+000  0.000000e+000
    endloop
  endfacet
  facet normal  0.000000e+000  1.000000e+000  0.000000e+000
    outer loop
      vertex -4.523396e+001  9.774994e+000  4.000000e-001
      vertex  3.426604e+001  9.774994e+000  4.000000e-001
      vertex -4.523396e+001  9.774994e+000  0.000000e+000
    endloop
  endfacet
  facet normal  0.000000e+000  1.000000e+000  0.000000e+000
    outer loop
      vertex -4.523396e+001  9.774994e+000  0.000000e+000
      vertex  3.426604e+001  9.774994e+000  4.000000e-001
      vertex  3.426604e+001  9.774994e+000  0.000000e+000
    endloop
  endfacet
  facet normal  1.000000e+000  0.000000e+000  0.000000e+000
    outer loop
      vertex  3.426604e+001  4.274994e+000  4.000000e-001
      vertex  3.426604e+001  4.274994e+000  0.000000e+000
      vertex  3.426604e+001  9.774994e+000  4.000000e-001
    endloop
  endfacet
  facet normal  1.000000e+000  0.000000e+000  0.000000e+000
    outer loop
      vertex  3.426604e+001  9.774994e+000  4.000000e-001
      vertex  3.426604e+001  4.274994e+000  0.000000e+000
      vertex  3.426604e+001  9.774994e+000  0.000000e+000
    endloop
  endfacet
  facet normal  0.000000e+000 -1.000000e+000  0.000000e+000
    outer loop
      vertex  3.426604e+001  4.274994e+000  4.000000e-001
      vertex -4.523396e+001  4.274994e+000  4.000000e-001
      vertex  3.426604e+001  4.274994e+000  0.000000e+000
    endloop
  endfacet
  facet normal  0.000000e+000 -1.000000e+000  0.000000e+000
    outer loop
      vertex  3.426604e+001  4.274994e+000  0.000000e+000
      vertex -4.523396e+001  4.274994e+000  4.000000e-001
      vertex -4.523396e+001  4.274994e+000  0.000000e+000
    endloop
  endfacet
  facet normal -1.000000e+000  0.000000e+000  0.000000e+000
    outer loop
      vertex -4.523396e+001  9.774994e+000  4.000000e-001
      vertex -4.523396e+001  9.774994e+000  0.000000e+000
      vertex -4.523396e+001  4.274994e+000  4.000000e-001
    endloop
  endfacet
  facet normal -1.000000e+000  0.000000e+000  0.000000e+000
    outer loop
      vertex -4.523396e+001  4.274994e+000  4.000000e-001
      vertex -4.523396e+001  9.774994e+000  0.000000e+000
      vertex -4.523396e+001  4.274994e+000  0.000000e+000
    endloop
  endfacet
  facet normal  0.000000e+000  0.000000e+000  1.000000e+000
    outer loop
      vertex -4.523396e+001 -3.225006e+000  4.000000e-001
      vertex  3.426604e+001 -3.225006e+000  4.000000e-001
      vertex -4.523396e+001  2.274994e+000  4.000000e-001
    endloop
  endfacet
  facet normal  -0.000000e+000  0.000000e+000  1.000000e+000
    outer loop
      vertex -4.523396e+001  2.274994e+000  4.000000e-001
      vertex  3.426604e+001 -3.225006e+000  4.000000e-001
      vertex  3.426604e+001  2.274994e+000  4.000000e-001
    endloop
  endfacet
  facet normal  0.000000e+000  0.000000e+000 -1.000000e+000
    outer loop
      vertex -4.523396e+001 -3.225006e+000  0.000000e+000
      vertex -4.523396e+001  2.274994e+000  0.000000e+000
      vertex  3.426604e+001 -3.225006e+000  0.000000e+000
    endloop
  endfacet
  facet normal  0.000000e+000  0.000000e+000 -1.000000e+000
    outer loop
      vertex  3.426604e+001 -3.225006e+000  0.000000e+000
      vertex -4.523396e+001  2.274994e+000  0.000000e+000
      vertex  3.426604e+001  2.274994e+000  0.000000e+000
    endloop
  endfacet
  facet normal  0.000000e+000  1.000000e+000  0.000000e+000
    outer loop
      vertex -4.523396e+001  2.274994e+000  4.000000e-001
      vertex  3.426604e+001  2.274994e+000  4.000000e-001
      vertex -4.523396e+001  2.274994e+000  0.000000e+000
    endloop
  endfacet
  facet normal  0.000000e+000  1.000000e+000  0.000000e+000
    outer loop
      vertex -4.523396e+001  2.274994e+000  0.000000e+000
      vertex  3.426604e+001  2.274994e+000  4.000000e-001
      vertex  3.426604e+001  2.274994e+000  0.000000e+000
    endloop
  endfacet
  facet normal  1.000000e+000  0.000000e+000  0.000000e+000
    outer loop
      vertex  3.426604e+001 -3.225006e+000  4.000000e-001
      vertex  3.426604e+001 -3.225006e+000  0.000000e+000
      vertex  3.426604e+001  2.274994e+000  4.000000e-001
    endloop
  endfacet
  facet normal  1.000000e+000  0.000000e+000  0.000000e+000
    outer loop
      vertex  3.426604e+001  2.274994e+000  4.000000e-001
      vertex  3.426604e+001 -3.225006e+000  0.000000e+000
      vertex  3.426604e+001  2.274994e+000  0.000000e+000
    endloop
  endfacet
  facet normal  0.000000e+000 -1.000000e+000  0.000000e+000
    outer loop
      vertex  3.426604e+001 -3.225006e+000  4.000000e-001
      vertex -4.523396e+001 -3.225006e+000  4.000000e-001
      vertex  3.426604e+001 -3.225006e+000  0.000000e+000
    endloop
  endfacet
  facet normal  0.000000e+000 -1.000000e+000  0.000000e+000
    outer loop
      vertex  3.426604e+001 -3.225006e+000  0.000000e+000
      vertex -4.523396e+001 -3.225006e+000  4.000000e-001
      vertex -4.523396e+001 -3.225006e+000  0.000000e+000
    endloop
  endfacet
  facet normal -1.000000e+000  0.000000e+000  0.000000e+000
    outer loop
      vertex -4.523396e+001  2.274994e+000  4.000000e-001
      vertex -4.523396e+001  2.274994e+000  0.000000e+000
      vertex -4.523396e+001 -3.225006e+000  4.000000e-001
    endloop
  endfacet
  facet normal -1.000000e+000  0.000000e+000  0.000000e+000
    outer loop
      vertex -4.523396e+001 -3.225006e+000  4.000000e-001
      vertex -4.523396e+001  2.274994e+000  0.000000e+000
      vertex -4.523396e+001 -3.225006e+000  0.000000e+000
    endloop
  endfacet
endsolid CATIA STL
