solid CATIA STL
  facet normal  0.000000e+000  0.000000e+000  1.000000e+000
    outer loop
      vertex  0.000000e+000  0.000000e+000  1.500000e+000
      vertex  2.500000e+000  0.000000e+000  1.500000e+000
      vertex  1.776357e-015  2.500000e+000  1.500000e+000
    endloop
  endfacet
  facet normal  -0.000000e+000  0.000000e+000  1.000000e+000
    outer loop
      vertex  1.776357e-015  2.500000e+000  1.500000e+000
      vertex  2.500000e+000  0.000000e+000  1.500000e+000
      vertex  2.500000e+000  2.500000e+000  1.500000e+000
    endloop
  endfacet
  facet normal  0.000000e+000  -0.000000e+000 -1.000000e+000
    outer loop
      vertex  0.000000e+000  0.000000e+000  0.000000e+000
      vertex  1.776357e-015  2.500000e+000  0.000000e+000
      vertex  2.500000e+000  0.000000e+000  0.000000e+000
    endloop
  endfacet
  facet normal  0.000000e+000  0.000000e+000 -1.000000e+000
    outer loop
      vertex  2.500000e+000  0.000000e+000  0.000000e+000
      vertex  1.776357e-015  2.500000e+000  0.000000e+000
      vertex  2.500000e+000  2.500000e+000  0.000000e+000
    endloop
  endfacet
  facet normal -1.000000e+000  7.105428e-016  0.000000e+000
    outer loop
      vertex  1.776357e-015  2.500000e+000  1.500000e+000
      vertex  1.776357e-015  2.500000e+000  0.000000e+000
      vertex  0.000000e+000  0.000000e+000  1.500000e+000
    endloop
  endfacet
  facet normal -1.000000e+000  7.105428e-016  0.000000e+000
    outer loop
      vertex  0.000000e+000  0.000000e+000  1.500000e+000
      vertex  1.776357e-015  2.500000e+000  0.000000e+000
      vertex  0.000000e+000  0.000000e+000  0.000000e+000
    endloop
  endfacet
  facet normal  0.000000e+000  1.000000e+000  -0.000000e+000
    outer loop
      vertex  2.500000e+000  2.500000e+000  1.500000e+000
      vertex  2.500000e+000  2.500000e+000  0.000000e+000
      vertex  1.776357e-015  2.500000e+000  1.500000e+000
    endloop
  endfacet
  facet normal  0.000000e+000  1.000000e+000  0.000000e+000
    outer loop
      vertex  1.776357e-015  2.500000e+000  1.500000e+000
      vertex  2.500000e+000  2.500000e+000  0.000000e+000
      vertex  1.776357e-015  2.500000e+000  0.000000e+000
    endloop
  endfacet
  facet normal  1.000000e+000  0.000000e+000  0.000000e+000
    outer loop
      vertex  2.500000e+000  0.000000e+000  1.500000e+000
      vertex  2.500000e+000  0.000000e+000  0.000000e+000
      vertex  2.500000e+000  2.500000e+000  1.500000e+000
    endloop
  endfacet
  facet normal  1.000000e+000  0.000000e+000  0.000000e+000
    outer loop
      vertex  2.500000e+000  2.500000e+000  1.500000e+000
      vertex  2.500000e+000  0.000000e+000  0.000000e+000
      vertex  2.500000e+000  2.500000e+000  0.000000e+000
    endloop
  endfacet
  facet normal  0.000000e+000 -1.000000e+000  0.000000e+000
    outer loop
      vertex  0.000000e+000  0.000000e+000  1.500000e+000
      vertex  0.000000e+000  0.000000e+000  0.000000e+000
      vertex  2.500000e+000  0.000000e+000  1.500000e+000
    endloop
  endfacet
  facet normal  0.000000e+000 -1.000000e+000  -0.000000e+000
    outer loop
      vertex  2.500000e+000  0.000000e+000  1.500000e+000
      vertex  0.000000e+000  0.000000e+000  0.000000e+000
      vertex  2.500000e+000  0.000000e+000  0.000000e+000
    endloop
  endfacet
endsolid CATIA STL
