<?xml version="1.0" encoding="utf-8" ?><!DOCTYPE svg PUBLIC "-//W3C//DTD SVG 1.1//EN" "http://www.w3.org/Graphics/SVG/1.1/DTD/svg11.dtd" 
[ <!ATTLIST svg 
  xmlns:dsy CDATA #FIXED "http://www.3ds.com/print"  
    dsy:text-version CDATA #IMPLIED > 

  <!ATTLIST text 
  xmlns:dsy CDATA #FIXED "http://www.3ds.com/print" 
    dsy:text-version CDATA #IMPLIED > 
]><svg xmlns="http://www.w3.org/2000/svg" xmlns:dsy="http://www.3ds.com/print" dsy:text-version="18000" width="594" height="420" viewBox="0 0 594 420" version="1.1"><g stroke="rgb(0, 0, 0)" stroke-width="0.13" stroke-linecap="butt" stroke-linejoin="miter" fill="none"><path d="M 14.1196 262.284 L 9.187 262.284"/><path d="M 14.1196 160.884 L 9.187 160.884"/></g><g stroke="rgb(0, 0, 0)" stroke-width="0.35" stroke-linecap="butt" stroke-linejoin="miter" fill="none"><path d="M 478.799 271.837 A 123.456 123.456 0 0 0 524.752 318.369"/><path d="M 524.752 318.369 L 586.48 211.453"/><path d="M 524.752 104.537 L 586.48 211.453"/><path d="M 524.752 104.537 A 123.456 123.456 0 0 0 478.799 151.069"/><path d="M 459.326 68.884 L 514.695 107.654"/><path d="M 514.695 107.654 L 515.735 108.383"/><path d="M 493.435 296.858 L 492.583 297.709"/><path d="M 492.583 297.709 L 476.009 314.284"/><path d="M 360.039 262.284 L 16.1196 262.284"/><path d="M 16.1196 262.284 L 16.1196 160.884"/><path d="M 360.039 68.884 L 459.326 68.884"/><path d="M 360.039 160.884 L 360.039 68.884"/><path d="M 360.039 160.884 L 16.1196 160.884"/><path d="M 360.039 314.284 L 360.039 262.284"/><path d="M 476.009 314.284 L 360.039 314.284"/><path d="M 493.516 292.687 L 493.435 296.858"/><path d="M 515.735 108.383 L 515.35 110.547"/></g><g stroke="rgb(0, 0, 0)" stroke-width="0.13" stroke-linecap="butt" stroke-linejoin="miter" fill="none"><path d="M 9.187 219.147 L 9.187 218.688 L 5.66176 218.688 L 5.66176 219.031 L 5.9694 219.122 L 6.17617 219.303 L 6.29721 219.581 L 6.33756 219.964 L 6.69563 219.964 L 6.69563 219.147 L 9.187 219.147 L 9.187 219.147 z M 7.47733 216.536 L 8.26913 216.46 L 8.83397 216.223 L 9.17692 215.845 L 9.28787 215.32 L 9.17692 214.801 L 8.83397 214.422 L 8.26913 214.19 L 7.47733 214.11 L 6.69059 214.19 L 6.3779 214.286 L 6.1207 214.422 L 5.77775 214.801 L 5.66176 215.32 L 5.77775 215.845 L 6.12574 216.223 L 6.69059 216.46 L 7.47733 216.536 L 7.47733 216.536 z M 7.47733 216.051 L 6.8671 216.011 L 6.42834 215.885 L 6.17113 215.658 L 6.08035 215.32 L 6.17113 214.987 L 6.42834 214.76 L 6.8671 214.634 L 7.47733 214.594 L 8.09261 214.634 L 8.53138 214.76 L 8.78858 214.987 L 8.87432 215.32 L 8.78858 215.658 L 8.53138 215.885 L 8.09261 216.011 L 7.47733 216.051 L 7.47733 216.051 z M 9.187 211.675 L 9.187 211.216 L 5.66176 211.216 L 5.66176 211.559 L 5.9694 211.65 L 6.17617 211.831 L 6.29721 212.109 L 6.33756 212.492 L 6.69563 212.492 L 6.69563 211.675 L 9.187 211.675 L 9.187 211.675 z M 9.187 208.196 L 9.187 207.5 L 8.43555 207.5 L 8.43555 208.196 L 9.187 208.196 L 9.187 208.196 z M 9.187 203.835 L 9.187 203.381 L 8.31956 203.381 L 8.31956 202.881 L 7.9161 202.881 L 7.9161 203.381 L 5.76262 203.381 L 5.76262 203.84 L 7.87575 205.373 L 8.31956 205.373 L 8.31956 203.835 L 9.187 203.835 L 9.187 203.835 z M 7.9161 204.949 L 6.34764 203.835 L 7.9161 203.835 L 7.9161 204.949 L 7.9161 204.949 z" stroke="none" fill-rule="evenodd" fill="rgb(0, 0, 0)"/><path d="M 10.6694 260.352 L 11.187 262.284 L 11.7046 260.352"/><path d="M 11.7046 162.816 L 11.187 160.884 L 10.6694 162.816"/><path d="M 11.187 262.284 L 11.187 160.884"/></g></svg>