solid CATIA STL
  facet normal  0.000000e+000  0.000000e+000  1.000000e+000
    outer loop
      vertex -2.613600e+002  3.012000e+002  5.070000e+001
      vertex -2.503600e+002  3.012000e+002  5.070000e+001
      vertex -2.613600e+002  3.566000e+002  5.070000e+001
    endloop
  endfacet
  facet normal  -0.000000e+000  0.000000e+000  1.000000e+000
    outer loop
      vertex -2.613600e+002  3.566000e+002  5.070000e+001
      vertex -2.503600e+002  3.012000e+002  5.070000e+001
      vertex -2.503600e+002  3.566000e+002  5.070000e+001
    endloop
  endfacet
  facet normal  0.000000e+000 -9.999999e-001  0.000000e+000
    outer loop
      vertex -2.613600e+002  3.012000e+002 -5.070000e+001
      vertex -2.503600e+002  3.012000e+002 -5.070000e+001
      vertex -2.613600e+002  3.012000e+002  5.070000e+001
    endloop
  endfacet
  facet normal  0.000000e+000 -9.999999e-001  0.000000e+000
    outer loop
      vertex -2.613600e+002  3.012000e+002  5.070000e+001
      vertex -2.503600e+002  3.012000e+002 -5.070000e+001
      vertex -2.503600e+002  3.012000e+002  5.070000e+001
    endloop
  endfacet
  facet normal  0.000000e+000  0.000000e+000  1.000000e+000
    outer loop
      vertex -2.503600e+002  3.092000e+002 -4.270000e+001
      vertex -2.503600e+002  3.566000e+002 -4.270000e+001
      vertex -2.613600e+002  3.092000e+002 -4.270000e+001
    endloop
  endfacet
  facet normal  0.000000e+000  0.000000e+000  1.000000e+000
    outer loop
      vertex -2.613600e+002  3.092000e+002 -4.270000e+001
      vertex -2.503600e+002  3.566000e+002 -4.270000e+001
      vertex -2.613600e+002  3.566000e+002 -4.270000e+001
    endloop
  endfacet
  facet normal  0.000000e+000  1.000000e+000  0.000000e+000
    outer loop
      vertex -2.503600e+002  3.566000e+002 -5.070000e+001
      vertex -2.613600e+002  3.566000e+002 -5.070000e+001
      vertex -2.503600e+002  3.566000e+002 -4.270000e+001
    endloop
  endfacet
  facet normal  0.000000e+000  1.000000e+000  0.000000e+000
    outer loop
      vertex -2.503600e+002  3.566000e+002 -4.270000e+001
      vertex -2.613600e+002  3.566000e+002 -5.070000e+001
      vertex -2.613600e+002  3.566000e+002 -4.270000e+001
    endloop
  endfacet
  facet normal  0.000000e+000  0.000000e+000 -1.000000e+000
    outer loop
      vertex -2.503600e+002  3.012000e+002 -5.070000e+001
      vertex -2.613600e+002  3.012000e+002 -5.070000e+001
      vertex -2.503600e+002  3.566000e+002 -5.070000e+001
    endloop
  endfacet
  facet normal  -0.000000e+000  0.000000e+000 -1.000000e+000
    outer loop
      vertex -2.503600e+002  3.566000e+002 -5.070000e+001
      vertex -2.613600e+002  3.012000e+002 -5.070000e+001
      vertex -2.613600e+002  3.566000e+002 -5.070000e+001
    endloop
  endfacet
  facet normal  0.000000e+000  1.000000e+000  0.000000e+000
    outer loop
      vertex -2.503600e+002  3.566000e+002  4.270000e+001
      vertex -2.613600e+002  3.566000e+002  4.270000e+001
      vertex -2.503600e+002  3.566000e+002  5.070000e+001
    endloop
  endfacet
  facet normal  0.000000e+000  1.000000e+000  0.000000e+000
    outer loop
      vertex -2.503600e+002  3.566000e+002  5.070000e+001
      vertex -2.613600e+002  3.566000e+002  4.270000e+001
      vertex -2.613600e+002  3.566000e+002  5.070000e+001
    endloop
  endfacet
  facet normal  0.000000e+000  0.000000e+000 -1.000000e+000
    outer loop
      vertex -2.503600e+002  3.092000e+002  4.270000e+001
      vertex -2.613600e+002  3.092000e+002  4.270000e+001
      vertex -2.503600e+002  3.566000e+002  4.270000e+001
    endloop
  endfacet
  facet normal  -0.000000e+000  0.000000e+000 -1.000000e+000
    outer loop
      vertex -2.503600e+002  3.566000e+002  4.270000e+001
      vertex -2.613600e+002  3.092000e+002  4.270000e+001
      vertex -2.613600e+002  3.566000e+002  4.270000e+001
    endloop
  endfacet
  facet normal  0.000000e+000  1.000000e+000  0.000000e+000
    outer loop
      vertex -2.503600e+002  3.092000e+002 -4.270000e+001
      vertex -2.613600e+002  3.092000e+002 -4.270000e+001
      vertex -2.503600e+002  3.092000e+002  4.270000e+001
    endloop
  endfacet
  facet normal  0.000000e+000  1.000000e+000  0.000000e+000
    outer loop
      vertex -2.503600e+002  3.092000e+002  4.270000e+001
      vertex -2.613600e+002  3.092000e+002 -4.270000e+001
      vertex -2.613600e+002  3.092000e+002  4.270000e+001
    endloop
  endfacet
  facet normal -1.000000e+000  0.000000e+000  0.000000e+000
    outer loop
      vertex -2.613600e+002  3.566000e+002  5.070000e+001
      vertex -2.613600e+002  3.566000e+002  4.270000e+001
      vertex -2.613600e+002  3.012000e+002  5.070000e+001
    endloop
  endfacet
  facet normal -1.000000e+000  0.000000e+000  0.000000e+000
    outer loop
      vertex -2.613600e+002  3.012000e+002  5.070000e+001
      vertex -2.613600e+002  3.566000e+002  4.270000e+001
      vertex -2.613600e+002  3.092000e+002  4.270000e+001
    endloop
  endfacet
  facet normal -1.000000e+000  -0.000000e+000  0.000000e+000
    outer loop
      vertex -2.613600e+002  3.012000e+002  5.070000e+001
      vertex -2.613600e+002  3.092000e+002  4.270000e+001
      vertex -2.613600e+002  3.012000e+002 -5.070000e+001
    endloop
  endfacet
  facet normal -1.000000e+000  0.000000e+000  0.000000e+000
    outer loop
      vertex -2.613600e+002  3.012000e+002 -5.070000e+001
      vertex -2.613600e+002  3.092000e+002  4.270000e+001
      vertex -2.613600e+002  3.092000e+002 -4.270000e+001
    endloop
  endfacet
  facet normal -1.000000e+000  0.000000e+000  -0.000000e+000
    outer loop
      vertex -2.613600e+002  3.012000e+002 -5.070000e+001
      vertex -2.613600e+002  3.092000e+002 -4.270000e+001
      vertex -2.613600e+002  3.566000e+002 -5.070000e+001
    endloop
  endfacet
  facet normal -1.000000e+000  0.000000e+000  0.000000e+000
    outer loop
      vertex -2.613600e+002  3.566000e+002 -5.070000e+001
      vertex -2.613600e+002  3.092000e+002 -4.270000e+001
      vertex -2.613600e+002  3.566000e+002 -4.270000e+001
    endloop
  endfacet
  facet normal  1.000000e+000  0.000000e+000  0.000000e+000
    outer loop
      vertex -2.503600e+002  3.566000e+002 -5.070000e+001
      vertex -2.503600e+002  3.566000e+002 -4.270000e+001
      vertex -2.503600e+002  3.012000e+002 -5.070000e+001
    endloop
  endfacet
  facet normal  1.000000e+000  0.000000e+000  0.000000e+000
    outer loop
      vertex -2.503600e+002  3.012000e+002 -5.070000e+001
      vertex -2.503600e+002  3.566000e+002 -4.270000e+001
      vertex -2.503600e+002  3.092000e+002 -4.270000e+001
    endloop
  endfacet
  facet normal  1.000000e+000  0.000000e+000  0.000000e+000
    outer loop
      vertex -2.503600e+002  3.012000e+002 -5.070000e+001
      vertex -2.503600e+002  3.092000e+002 -4.270000e+001
      vertex -2.503600e+002  3.012000e+002  5.070000e+001
    endloop
  endfacet
  facet normal  1.000000e+000  0.000000e+000  0.000000e+000
    outer loop
      vertex -2.503600e+002  3.012000e+002  5.070000e+001
      vertex -2.503600e+002  3.092000e+002 -4.270000e+001
      vertex -2.503600e+002  3.092000e+002  4.270000e+001
    endloop
  endfacet
  facet normal  1.000000e+000  0.000000e+000  -0.000000e+000
    outer loop
      vertex -2.503600e+002  3.012000e+002  5.070000e+001
      vertex -2.503600e+002  3.092000e+002  4.270000e+001
      vertex -2.503600e+002  3.566000e+002  5.070000e+001
    endloop
  endfacet
  facet normal  1.000000e+000  0.000000e+000  0.000000e+000
    outer loop
      vertex -2.503600e+002  3.566000e+002  5.070000e+001
      vertex -2.503600e+002  3.092000e+002  4.270000e+001
      vertex -2.503600e+002  3.566000e+002  4.270000e+001
    endloop
  endfacet
endsolid CATIA STL
