solid CATIA STL
  facet normal  0.000000e+000  0.000000e+000  1.000000e+000
    outer loop
      vertex  4.066509e+001 -1.391755e+001  1.000000e+001
      vertex  3.182441e+001 -2.016499e+000  1.000000e+001
      vertex  1.066509e+001 -1.391755e+001  1.000000e+001
    endloop
  endfacet
  facet normal  0.000000e+000  0.000000e+000  1.000000e+000
    outer loop
      vertex  1.066509e+001 -1.391755e+001  1.000000e+001
      vertex  3.182441e+001 -2.016499e+000  1.000000e+001
      vertex  2.182441e+001 -2.016499e+000  1.000000e+001
    endloop
  endfacet
  facet normal  0.000000e+000  0.000000e+000  9.999999e-001
    outer loop
      vertex  1.066509e+001 -1.391755e+001  1.000000e+001
      vertex  2.182441e+001 -2.016499e+000  1.000000e+001
      vertex  1.066509e+001  1.608245e+001  1.000000e+001
    endloop
  endfacet
  facet normal  0.000000e+000  0.000000e+000  1.000000e+000
    outer loop
      vertex  1.066509e+001  1.608245e+001  1.000000e+001
      vertex  2.182441e+001 -2.016499e+000  1.000000e+001
      vertex  2.182441e+001  2.983501e+000  1.000000e+001
    endloop
  endfacet
  facet normal  0.000000e+000  -0.000000e+000  1.000000e+000
    outer loop
      vertex  1.066509e+001  1.608245e+001  1.000000e+001
      vertex  2.182441e+001  2.983501e+000  1.000000e+001
      vertex  4.066509e+001  1.608245e+001  1.000000e+001
    endloop
  endfacet
  facet normal  0.000000e+000  0.000000e+000  1.000000e+000
    outer loop
      vertex  4.066509e+001  1.608245e+001  1.000000e+001
      vertex  2.182441e+001  2.983501e+000  1.000000e+001
      vertex  3.182441e+001  2.983501e+000  1.000000e+001
    endloop
  endfacet
  facet normal  -0.000000e+000  0.000000e+000  1.000000e+000
    outer loop
      vertex  4.066509e+001  1.608245e+001  1.000000e+001
      vertex  3.182441e+001  2.983501e+000  1.000000e+001
      vertex  4.066509e+001 -1.391755e+001  1.000000e+001
    endloop
  endfacet
  facet normal  0.000000e+000  0.000000e+000  1.000000e+000
    outer loop
      vertex  4.066509e+001 -1.391755e+001  1.000000e+001
      vertex  3.182441e+001  2.983501e+000  1.000000e+001
      vertex  3.182441e+001 -2.016499e+000  1.000000e+001
    endloop
  endfacet
  facet normal  0.000000e+000 -1.000000e+000  0.000000e+000
    outer loop
      vertex  2.182441e+001  2.983501e+000  5.000000e+000
      vertex  3.182441e+001  2.983501e+000  5.000000e+000
      vertex  2.182441e+001  2.983501e+000  1.000000e+001
    endloop
  endfacet
  facet normal  0.000000e+000 -1.000000e+000  0.000000e+000
    outer loop
      vertex  2.182441e+001  2.983501e+000  1.000000e+001
      vertex  3.182441e+001  2.983501e+000  5.000000e+000
      vertex  3.182441e+001  2.983501e+000  1.000000e+001
    endloop
  endfacet
  facet normal -1.000000e+000  -0.000000e+000  0.000000e+000
    outer loop
      vertex  3.182441e+001 -2.016499e+000  1.000000e+001
      vertex  3.182441e+001  2.983501e+000  1.000000e+001
      vertex  3.182441e+001 -2.016499e+000  5.000000e+000
    endloop
  endfacet
  facet normal -1.000000e+000  0.000000e+000  0.000000e+000
    outer loop
      vertex  3.182441e+001 -2.016499e+000  5.000000e+000
      vertex  3.182441e+001  2.983501e+000  1.000000e+001
      vertex  3.182441e+001  2.983501e+000  5.000000e+000
    endloop
  endfacet
  facet normal  0.000000e+000  1.000000e+000  0.000000e+000
    outer loop
      vertex  3.182441e+001 -2.016499e+000  5.000000e+000
      vertex  2.182441e+001 -2.016499e+000  5.000000e+000
      vertex  3.182441e+001 -2.016499e+000  1.000000e+001
    endloop
  endfacet
  facet normal  0.000000e+000  1.000000e+000  0.000000e+000
    outer loop
      vertex  3.182441e+001 -2.016499e+000  1.000000e+001
      vertex  2.182441e+001 -2.016499e+000  5.000000e+000
      vertex  2.182441e+001 -2.016499e+000  1.000000e+001
    endloop
  endfacet
  facet normal  1.000000e+000  -0.000000e+000  0.000000e+000
    outer loop
      vertex  2.182441e+001  2.983501e+000  1.000000e+001
      vertex  2.182441e+001 -2.016499e+000  1.000000e+001
      vertex  2.182441e+001  2.983501e+000  5.000000e+000
    endloop
  endfacet
  facet normal  1.000000e+000  0.000000e+000  0.000000e+000
    outer loop
      vertex  2.182441e+001  2.983501e+000  5.000000e+000
      vertex  2.182441e+001 -2.016499e+000  1.000000e+001
      vertex  2.182441e+001 -2.016499e+000  5.000000e+000
    endloop
  endfacet
  facet normal  0.000000e+000  0.000000e+000  1.000000e+000
    outer loop
      vertex  2.182441e+001 -2.016499e+000  5.000000e+000
      vertex  3.182441e+001 -2.016499e+000  5.000000e+000
      vertex  2.182441e+001  2.983501e+000  5.000000e+000
    endloop
  endfacet
  facet normal  -0.000000e+000  0.000000e+000  1.000000e+000
    outer loop
      vertex  2.182441e+001  2.983501e+000  5.000000e+000
      vertex  3.182441e+001 -2.016499e+000  5.000000e+000
      vertex  3.182441e+001  2.983501e+000  5.000000e+000
    endloop
  endfacet
  facet normal  0.000000e+000  0.000000e+000  1.000000e+000
    outer loop
      vertex -1.066509e+001 -1.391755e+001  1.000000e+001
      vertex -2.029509e+001 -1.171193e+000  1.000000e+001
      vertex -4.066509e+001 -1.391755e+001  1.000000e+001
    endloop
  endfacet
  facet normal  0.000000e+000  0.000000e+000  9.999999e-001
    outer loop
      vertex -4.066509e+001 -1.391755e+001  1.000000e+001
      vertex -2.029509e+001 -1.171193e+000  1.000000e+001
      vertex -3.009509e+001 -1.171193e+000  1.000000e+001
    endloop
  endfacet
  facet normal  0.000000e+000  0.000000e+000  1.000000e+000
    outer loop
      vertex -4.066509e+001 -1.391755e+001  1.000000e+001
      vertex -3.009509e+001 -1.171193e+000  1.000000e+001
      vertex -4.066509e+001  1.608245e+001  1.000000e+001
    endloop
  endfacet
  facet normal  0.000000e+000  0.000000e+000  1.000000e+000
    outer loop
      vertex -4.066509e+001  1.608245e+001  1.000000e+001
      vertex -3.009509e+001 -1.171193e+000  1.000000e+001
      vertex -3.009509e+001  3.628807e+000  1.000000e+001
    endloop
  endfacet
  facet normal  0.000000e+000  -0.000000e+000  1.000000e+000
    outer loop
      vertex -4.066509e+001  1.608245e+001  1.000000e+001
      vertex -3.009509e+001  3.628807e+000  1.000000e+001
      vertex -1.066509e+001  1.608245e+001  1.000000e+001
    endloop
  endfacet
  facet normal  0.000000e+000  0.000000e+000  1.000000e+000
    outer loop
      vertex -1.066509e+001  1.608245e+001  1.000000e+001
      vertex -3.009509e+001  3.628807e+000  1.000000e+001
      vertex -2.029509e+001  3.628807e+000  1.000000e+001
    endloop
  endfacet
  facet normal  -0.000000e+000  0.000000e+000  1.000000e+000
    outer loop
      vertex -1.066509e+001  1.608245e+001  1.000000e+001
      vertex -2.029509e+001  3.628807e+000  1.000000e+001
      vertex -1.066509e+001 -1.391755e+001  1.000000e+001
    endloop
  endfacet
  facet normal  0.000000e+000  0.000000e+000  1.000000e+000
    outer loop
      vertex -1.066509e+001 -1.391755e+001  1.000000e+001
      vertex -2.029509e+001  3.628807e+000  1.000000e+001
      vertex -2.029509e+001 -1.171193e+000  1.000000e+001
    endloop
  endfacet
  facet normal  0.000000e+000  1.000000e+000  0.000000e+000
    outer loop
      vertex -3.009509e+001  3.628807e+000  1.400000e+001
      vertex -2.029509e+001  3.628807e+000  1.400000e+001
      vertex -3.009509e+001  3.628807e+000  1.000000e+001
    endloop
  endfacet
  facet normal  0.000000e+000  1.000000e+000  0.000000e+000
    outer loop
      vertex -3.009509e+001  3.628807e+000  1.000000e+001
      vertex -2.029509e+001  3.628807e+000  1.400000e+001
      vertex -2.029509e+001  3.628807e+000  1.000000e+001
    endloop
  endfacet
  facet normal  1.000000e+000  0.000000e+000  0.000000e+000
    outer loop
      vertex -2.029509e+001 -1.171193e+000  1.400000e+001
      vertex -2.029509e+001 -1.171193e+000  1.000000e+001
      vertex -2.029509e+001  3.628807e+000  1.400000e+001
    endloop
  endfacet
  facet normal  1.000000e+000  0.000000e+000  0.000000e+000
    outer loop
      vertex -2.029509e+001  3.628807e+000  1.400000e+001
      vertex -2.029509e+001 -1.171193e+000  1.000000e+001
      vertex -2.029509e+001  3.628807e+000  1.000000e+001
    endloop
  endfacet
  facet normal  0.000000e+000 -1.000000e+000  0.000000e+000
    outer loop
      vertex -2.029509e+001 -1.171193e+000  1.400000e+001
      vertex -3.009509e+001 -1.171193e+000  1.400000e+001
      vertex -2.029509e+001 -1.171193e+000  1.000000e+001
    endloop
  endfacet
  facet normal  0.000000e+000 -1.000000e+000  0.000000e+000
    outer loop
      vertex -2.029509e+001 -1.171193e+000  1.000000e+001
      vertex -3.009509e+001 -1.171193e+000  1.400000e+001
      vertex -3.009509e+001 -1.171193e+000  1.000000e+001
    endloop
  endfacet
  facet normal -1.000000e+000  0.000000e+000  0.000000e+000
    outer loop
      vertex -3.009509e+001  3.628807e+000  1.400000e+001
      vertex -3.009509e+001  3.628807e+000  1.000000e+001
      vertex -3.009509e+001 -1.171193e+000  1.400000e+001
    endloop
  endfacet
  facet normal -1.000000e+000  0.000000e+000  0.000000e+000
    outer loop
      vertex -3.009509e+001 -1.171193e+000  1.400000e+001
      vertex -3.009509e+001  3.628807e+000  1.000000e+001
      vertex -3.009509e+001 -1.171193e+000  1.000000e+001
    endloop
  endfacet
  facet normal  0.000000e+000  0.000000e+000  1.000000e+000
    outer loop
      vertex -3.009509e+001 -1.171193e+000  1.400000e+001
      vertex -2.029509e+001 -1.171193e+000  1.400000e+001
      vertex -3.009509e+001  3.628807e+000  1.400000e+001
    endloop
  endfacet
  facet normal  -0.000000e+000  0.000000e+000  1.000000e+000
    outer loop
      vertex -3.009509e+001  3.628807e+000  1.400000e+001
      vertex -2.029509e+001 -1.171193e+000  1.400000e+001
      vertex -2.029509e+001  3.628807e+000  1.400000e+001
    endloop
  endfacet
  facet normal  0.000000e+000  0.000000e+000 -1.000000e+000
    outer loop
      vertex  1.066509e+001 -1.391755e+001  0.000000e+000
      vertex  1.066509e+001  1.608245e+001  0.000000e+000
      vertex  4.066509e+001 -1.391755e+001  0.000000e+000
    endloop
  endfacet
  facet normal  0.000000e+000  0.000000e+000 -1.000000e+000
    outer loop
      vertex  4.066509e+001 -1.391755e+001  0.000000e+000
      vertex  1.066509e+001  1.608245e+001  0.000000e+000
      vertex  4.066509e+001  1.608245e+001  0.000000e+000
    endloop
  endfacet
  facet normal  0.000000e+000  1.000000e+000  0.000000e+000
    outer loop
      vertex  1.066509e+001  1.608245e+001  1.000000e+001
      vertex  4.066509e+001  1.608245e+001  1.000000e+001
      vertex  1.066509e+001  1.608245e+001  0.000000e+000
    endloop
  endfacet
  facet normal  0.000000e+000  1.000000e+000  0.000000e+000
    outer loop
      vertex  1.066509e+001  1.608245e+001  0.000000e+000
      vertex  4.066509e+001  1.608245e+001  1.000000e+001
      vertex  4.066509e+001  1.608245e+001  0.000000e+000
    endloop
  endfacet
  facet normal -1.000000e+000  -0.000000e+000  0.000000e+000
    outer loop
      vertex  1.066509e+001 -1.391755e+001  1.000000e+001
      vertex  1.066509e+001  1.608245e+001  1.000000e+001
      vertex  1.066509e+001 -1.391755e+001  0.000000e+000
    endloop
  endfacet
  facet normal -1.000000e+000  0.000000e+000  0.000000e+000
    outer loop
      vertex  1.066509e+001 -1.391755e+001  0.000000e+000
      vertex  1.066509e+001  1.608245e+001  1.000000e+001
      vertex  1.066509e+001  1.608245e+001  0.000000e+000
    endloop
  endfacet
  facet normal  0.000000e+000 -1.000000e+000  0.000000e+000
    outer loop
      vertex  4.066509e+001 -1.391755e+001  1.000000e+001
      vertex  1.066509e+001 -1.391755e+001  1.000000e+001
      vertex  4.066509e+001 -1.391755e+001  0.000000e+000
    endloop
  endfacet
  facet normal  0.000000e+000 -1.000000e+000  0.000000e+000
    outer loop
      vertex  4.066509e+001 -1.391755e+001  0.000000e+000
      vertex  1.066509e+001 -1.391755e+001  1.000000e+001
      vertex  1.066509e+001 -1.391755e+001  0.000000e+000
    endloop
  endfacet
  facet normal  1.000000e+000  -0.000000e+000  0.000000e+000
    outer loop
      vertex  4.066509e+001  1.608245e+001  1.000000e+001
      vertex  4.066509e+001 -1.391755e+001  1.000000e+001
      vertex  4.066509e+001  1.608245e+001  0.000000e+000
    endloop
  endfacet
  facet normal  1.000000e+000  0.000000e+000  0.000000e+000
    outer loop
      vertex  4.066509e+001  1.608245e+001  0.000000e+000
      vertex  4.066509e+001 -1.391755e+001  1.000000e+001
      vertex  4.066509e+001 -1.391755e+001  0.000000e+000
    endloop
  endfacet
  facet normal  0.000000e+000  0.000000e+000 -1.000000e+000
    outer loop
      vertex -4.066509e+001 -1.391755e+001  0.000000e+000
      vertex -4.066509e+001  1.608245e+001  0.000000e+000
      vertex -1.066509e+001 -1.391755e+001  0.000000e+000
    endloop
  endfacet
  facet normal  0.000000e+000  0.000000e+000 -1.000000e+000
    outer loop
      vertex -1.066509e+001 -1.391755e+001  0.000000e+000
      vertex -4.066509e+001  1.608245e+001  0.000000e+000
      vertex -1.066509e+001  1.608245e+001  0.000000e+000
    endloop
  endfacet
  facet normal  0.000000e+000  1.000000e+000  0.000000e+000
    outer loop
      vertex -4.066509e+001  1.608245e+001  1.000000e+001
      vertex -1.066509e+001  1.608245e+001  1.000000e+001
      vertex -4.066509e+001  1.608245e+001  0.000000e+000
    endloop
  endfacet
  facet normal  0.000000e+000  1.000000e+000  0.000000e+000
    outer loop
      vertex -4.066509e+001  1.608245e+001  0.000000e+000
      vertex -1.066509e+001  1.608245e+001  1.000000e+001
      vertex -1.066509e+001  1.608245e+001  0.000000e+000
    endloop
  endfacet
  facet normal  1.000000e+000  0.000000e+000  0.000000e+000
    outer loop
      vertex -1.066509e+001 -1.391755e+001  1.000000e+001
      vertex -1.066509e+001 -1.391755e+001  0.000000e+000
      vertex -1.066509e+001  1.608245e+001  1.000000e+001
    endloop
  endfacet
  facet normal  1.000000e+000  0.000000e+000  0.000000e+000
    outer loop
      vertex -1.066509e+001  1.608245e+001  1.000000e+001
      vertex -1.066509e+001 -1.391755e+001  0.000000e+000
      vertex -1.066509e+001  1.608245e+001  0.000000e+000
    endloop
  endfacet
  facet normal  0.000000e+000 -1.000000e+000  0.000000e+000
    outer loop
      vertex -1.066509e+001 -1.391755e+001  1.000000e+001
      vertex -4.066509e+001 -1.391755e+001  1.000000e+001
      vertex -1.066509e+001 -1.391755e+001  0.000000e+000
    endloop
  endfacet
  facet normal  0.000000e+000 -1.000000e+000  0.000000e+000
    outer loop
      vertex -1.066509e+001 -1.391755e+001  0.000000e+000
      vertex -4.066509e+001 -1.391755e+001  1.000000e+001
      vertex -4.066509e+001 -1.391755e+001  0.000000e+000
    endloop
  endfacet
  facet normal -1.000000e+000  0.000000e+000  0.000000e+000
    outer loop
      vertex -4.066509e+001  1.608245e+001  1.000000e+001
      vertex -4.066509e+001  1.608245e+001  0.000000e+000
      vertex -4.066509e+001 -1.391755e+001  1.000000e+001
    endloop
  endfacet
  facet normal -1.000000e+000  0.000000e+000  0.000000e+000
    outer loop
      vertex -4.066509e+001 -1.391755e+001  1.000000e+001
      vertex -4.066509e+001  1.608245e+001  0.000000e+000
      vertex -4.066509e+001 -1.391755e+001  0.000000e+000
    endloop
  endfacet
endsolid CATIA STL
