solid CATIA STL
  facet normal  0.000000e+000  0.000000e+000  1.000000e+000
    outer loop
      vertex  3.000000e+000  3.000000e+000  0.000000e+000
      vertex  4.400000e+001  3.000000e+000  0.000000e+000
      vertex  3.000000e+000  2.400000e+001  0.000000e+000
    endloop
  endfacet
  facet normal  -0.000000e+000  0.000000e+000  1.000000e+000
    outer loop
      vertex  3.000000e+000  2.400000e+001  0.000000e+000
      vertex  4.400000e+001  3.000000e+000  0.000000e+000
      vertex  4.400000e+001  2.400000e+001  0.000000e+000
    endloop
  endfacet
  facet normal  0.000000e+000  0.000000e+000  1.000000e+000
    outer loop
      vertex  6.200000e+001 -1.500000e+001  0.000000e+000
      vertex  4.700000e+001  0.000000e+000  0.000000e+000
      vertex -1.500000e+001 -1.500000e+001  0.000000e+000
    endloop
  endfacet
  facet normal  0.000000e+000  0.000000e+000  9.999999e-001
    outer loop
      vertex -1.500000e+001 -1.500000e+001  0.000000e+000
      vertex  4.700000e+001  0.000000e+000  0.000000e+000
      vertex  0.000000e+000  0.000000e+000  0.000000e+000
    endloop
  endfacet
  facet normal  0.000000e+000  0.000000e+000  1.000000e+000
    outer loop
      vertex -1.500000e+001 -1.500000e+001  0.000000e+000
      vertex  0.000000e+000  0.000000e+000  0.000000e+000
      vertex -1.500000e+001  4.200000e+001  0.000000e+000
    endloop
  endfacet
  facet normal  0.000000e+000  0.000000e+000  1.000000e+000
    outer loop
      vertex -1.500000e+001  4.200000e+001  0.000000e+000
      vertex  0.000000e+000  0.000000e+000  0.000000e+000
      vertex -1.421085e-014  2.700000e+001  0.000000e+000
    endloop
  endfacet
  facet normal  0.000000e+000  -0.000000e+000  1.000000e+000
    outer loop
      vertex -1.500000e+001  4.200000e+001  0.000000e+000
      vertex -1.421085e-014  2.700000e+001  0.000000e+000
      vertex  6.200000e+001  4.200000e+001  0.000000e+000
    endloop
  endfacet
  facet normal  0.000000e+000  0.000000e+000  9.999999e-001
    outer loop
      vertex  6.200000e+001  4.200000e+001  0.000000e+000
      vertex -1.421085e-014  2.700000e+001  0.000000e+000
      vertex  4.700000e+001  2.700000e+001  0.000000e+000
    endloop
  endfacet
  facet normal  -0.000000e+000  0.000000e+000  1.000000e+000
    outer loop
      vertex  6.200000e+001  4.200000e+001  0.000000e+000
      vertex  4.700000e+001  2.700000e+001  0.000000e+000
      vertex  6.200000e+001 -1.500000e+001  0.000000e+000
    endloop
  endfacet
  facet normal  0.000000e+000  0.000000e+000  1.000000e+000
    outer loop
      vertex  6.200000e+001 -1.500000e+001  0.000000e+000
      vertex  4.700000e+001  2.700000e+001  0.000000e+000
      vertex  4.700000e+001  0.000000e+000  0.000000e+000
    endloop
  endfacet
  facet normal  0.000000e+000  1.000000e+000  0.000000e+000
    outer loop
      vertex  3.000000e+000  3.000000e+000  3.500000e+001
      vertex  4.400000e+001  3.000000e+000  3.500000e+001
      vertex  3.000000e+000  3.000000e+000  0.000000e+000
    endloop
  endfacet
  facet normal  0.000000e+000  1.000000e+000  0.000000e+000
    outer loop
      vertex  3.000000e+000  3.000000e+000  0.000000e+000
      vertex  4.400000e+001  3.000000e+000  3.500000e+001
      vertex  4.400000e+001  3.000000e+000  0.000000e+000
    endloop
  endfacet
  facet normal -1.000000e+000  0.000000e+000  0.000000e+000
    outer loop
      vertex  4.400000e+001  3.000000e+000  0.000000e+000
      vertex  4.400000e+001  3.000000e+000  3.500000e+001
      vertex  4.400000e+001  2.400000e+001  0.000000e+000
    endloop
  endfacet
  facet normal -1.000000e+000  0.000000e+000  0.000000e+000
    outer loop
      vertex  4.400000e+001  2.400000e+001  0.000000e+000
      vertex  4.400000e+001  3.000000e+000  3.500000e+001
      vertex  4.400000e+001  2.400000e+001  3.500000e+001
    endloop
  endfacet
  facet normal  0.000000e+000 -1.000000e+000  0.000000e+000
    outer loop
      vertex  4.400000e+001  2.400000e+001  3.500000e+001
      vertex  3.000000e+000  2.400000e+001  3.500000e+001
      vertex  4.400000e+001  2.400000e+001  0.000000e+000
    endloop
  endfacet
  facet normal  0.000000e+000 -1.000000e+000  0.000000e+000
    outer loop
      vertex  4.400000e+001  2.400000e+001  0.000000e+000
      vertex  3.000000e+000  2.400000e+001  3.500000e+001
      vertex  3.000000e+000  2.400000e+001  0.000000e+000
    endloop
  endfacet
  facet normal  1.000000e+000  0.000000e+000  0.000000e+000
    outer loop
      vertex  3.000000e+000  2.400000e+001  0.000000e+000
      vertex  3.000000e+000  2.400000e+001  3.500000e+001
      vertex  3.000000e+000  3.000000e+000  0.000000e+000
    endloop
  endfacet
  facet normal  1.000000e+000  0.000000e+000  0.000000e+000
    outer loop
      vertex  3.000000e+000  3.000000e+000  0.000000e+000
      vertex  3.000000e+000  2.400000e+001  3.500000e+001
      vertex  3.000000e+000  3.000000e+000  3.500000e+001
    endloop
  endfacet
  facet normal -1.000000e+000 -5.263280e-016  0.000000e+000
    outer loop
      vertex -1.421085e-014  2.700000e+001  0.000000e+000
      vertex  0.000000e+000  0.000000e+000  0.000000e+000
      vertex -1.421085e-014  2.700000e+001  3.500000e+001
    endloop
  endfacet
  facet normal -1.000000e+000 -5.263280e-016  0.000000e+000
    outer loop
      vertex -1.421085e-014  2.700000e+001  3.500000e+001
      vertex  0.000000e+000  0.000000e+000  0.000000e+000
      vertex  0.000000e+000  0.000000e+000  3.500000e+001
    endloop
  endfacet
  facet normal  0.000000e+000  9.999999e-001  -0.000000e+000
    outer loop
      vertex  4.700000e+001  2.700000e+001  3.500000e+001
      vertex  4.700000e+001  2.700000e+001  0.000000e+000
      vertex -1.421085e-014  2.700000e+001  3.500000e+001
    endloop
  endfacet
  facet normal  0.000000e+000  9.999999e-001  0.000000e+000
    outer loop
      vertex -1.421085e-014  2.700000e+001  3.500000e+001
      vertex  4.700000e+001  2.700000e+001  0.000000e+000
      vertex -1.421085e-014  2.700000e+001  0.000000e+000
    endloop
  endfacet
  facet normal  1.000000e+000  0.000000e+000  0.000000e+000
    outer loop
      vertex  4.700000e+001  0.000000e+000  0.000000e+000
      vertex  4.700000e+001  2.700000e+001  0.000000e+000
      vertex  4.700000e+001  0.000000e+000  3.500000e+001
    endloop
  endfacet
  facet normal  1.000000e+000  -0.000000e+000  0.000000e+000
    outer loop
      vertex  4.700000e+001  0.000000e+000  3.500000e+001
      vertex  4.700000e+001  2.700000e+001  0.000000e+000
      vertex  4.700000e+001  2.700000e+001  3.500000e+001
    endloop
  endfacet
  facet normal  0.000000e+000 -9.999999e-001  0.000000e+000
    outer loop
      vertex  0.000000e+000  0.000000e+000  3.500000e+001
      vertex  0.000000e+000  0.000000e+000  0.000000e+000
      vertex  4.700000e+001  0.000000e+000  3.500000e+001
    endloop
  endfacet
  facet normal  0.000000e+000 -9.999999e-001  -0.000000e+000
    outer loop
      vertex  4.700000e+001  0.000000e+000  3.500000e+001
      vertex  0.000000e+000  0.000000e+000  0.000000e+000
      vertex  4.700000e+001  0.000000e+000  0.000000e+000
    endloop
  endfacet
  facet normal  -0.000000e+000  0.000000e+000 -1.000000e+000
    outer loop
      vertex -1.500000e+001  4.200000e+001 -4.000000e+000
      vertex  6.200000e+001  4.200000e+001 -4.000000e+000
      vertex -1.500000e+001 -1.500000e+001 -4.000000e+000
    endloop
  endfacet
  facet normal  0.000000e+000  0.000000e+000 -1.000000e+000
    outer loop
      vertex -1.500000e+001 -1.500000e+001 -4.000000e+000
      vertex  6.200000e+001  4.200000e+001 -4.000000e+000
      vertex  6.200000e+001 -1.500000e+001 -4.000000e+000
    endloop
  endfacet
  facet normal  0.000000e+000 -1.000000e+000  0.000000e+000
    outer loop
      vertex -1.500000e+001 -1.500000e+001 -4.000000e+000
      vertex  6.200000e+001 -1.500000e+001 -4.000000e+000
      vertex -1.500000e+001 -1.500000e+001  0.000000e+000
    endloop
  endfacet
  facet normal  0.000000e+000 -1.000000e+000  0.000000e+000
    outer loop
      vertex -1.500000e+001 -1.500000e+001  0.000000e+000
      vertex  6.200000e+001 -1.500000e+001 -4.000000e+000
      vertex  6.200000e+001 -1.500000e+001  0.000000e+000
    endloop
  endfacet
  facet normal  1.000000e+000  0.000000e+000  0.000000e+000
    outer loop
      vertex  6.200000e+001  4.200000e+001 -4.000000e+000
      vertex  6.200000e+001  4.200000e+001  0.000000e+000
      vertex  6.200000e+001 -1.500000e+001 -4.000000e+000
    endloop
  endfacet
  facet normal  1.000000e+000  0.000000e+000  0.000000e+000
    outer loop
      vertex  6.200000e+001 -1.500000e+001 -4.000000e+000
      vertex  6.200000e+001  4.200000e+001  0.000000e+000
      vertex  6.200000e+001 -1.500000e+001  0.000000e+000
    endloop
  endfacet
  facet normal  0.000000e+000  1.000000e+000  0.000000e+000
    outer loop
      vertex  6.200000e+001  4.200000e+001 -4.000000e+000
      vertex -1.500000e+001  4.200000e+001 -4.000000e+000
      vertex  6.200000e+001  4.200000e+001  0.000000e+000
    endloop
  endfacet
  facet normal  0.000000e+000  1.000000e+000  0.000000e+000
    outer loop
      vertex  6.200000e+001  4.200000e+001  0.000000e+000
      vertex -1.500000e+001  4.200000e+001 -4.000000e+000
      vertex -1.500000e+001  4.200000e+001  0.000000e+000
    endloop
  endfacet
  facet normal -1.000000e+000  0.000000e+000  0.000000e+000
    outer loop
      vertex -1.500000e+001 -1.500000e+001 -4.000000e+000
      vertex -1.500000e+001 -1.500000e+001  0.000000e+000
      vertex -1.500000e+001  4.200000e+001 -4.000000e+000
    endloop
  endfacet
  facet normal -1.000000e+000  0.000000e+000  0.000000e+000
    outer loop
      vertex -1.500000e+001  4.200000e+001 -4.000000e+000
      vertex -1.500000e+001 -1.500000e+001  0.000000e+000
      vertex -1.500000e+001  4.200000e+001  0.000000e+000
    endloop
  endfacet
  facet normal  0.000000e+000  0.000000e+000  9.999999e-001
    outer loop
      vertex  4.700000e+001  0.000000e+000  3.500000e+001
      vertex  4.400000e+001  3.000000e+000  3.500000e+001
      vertex  0.000000e+000  0.000000e+000  3.500000e+001
    endloop
  endfacet
  facet normal  0.000000e+000  0.000000e+000  9.999999e-001
    outer loop
      vertex  0.000000e+000  0.000000e+000  3.500000e+001
      vertex  4.400000e+001  3.000000e+000  3.500000e+001
      vertex  3.000000e+000  3.000000e+000  3.500000e+001
    endloop
  endfacet
  facet normal  0.000000e+000  0.000000e+000  1.000000e+000
    outer loop
      vertex  0.000000e+000  0.000000e+000  3.500000e+001
      vertex  3.000000e+000  3.000000e+000  3.500000e+001
      vertex -1.421085e-014  2.700000e+001  3.500000e+001
    endloop
  endfacet
  facet normal  0.000000e+000  0.000000e+000  1.000000e+000
    outer loop
      vertex -1.421085e-014  2.700000e+001  3.500000e+001
      vertex  3.000000e+000  3.000000e+000  3.500000e+001
      vertex  3.000000e+000  2.400000e+001  3.500000e+001
    endloop
  endfacet
  facet normal  0.000000e+000  -0.000000e+000  9.999999e-001
    outer loop
      vertex -1.421085e-014  2.700000e+001  3.500000e+001
      vertex  3.000000e+000  2.400000e+001  3.500000e+001
      vertex  4.700000e+001  2.700000e+001  3.500000e+001
    endloop
  endfacet
  facet normal  0.000000e+000  0.000000e+000  9.999999e-001
    outer loop
      vertex  4.700000e+001  2.700000e+001  3.500000e+001
      vertex  3.000000e+000  2.400000e+001  3.500000e+001
      vertex  4.400000e+001  2.400000e+001  3.500000e+001
    endloop
  endfacet
  facet normal  -0.000000e+000  0.000000e+000  1.000000e+000
    outer loop
      vertex  4.700000e+001  2.700000e+001  3.500000e+001
      vertex  4.400000e+001  2.400000e+001  3.500000e+001
      vertex  4.700000e+001  0.000000e+000  3.500000e+001
    endloop
  endfacet
  facet normal  0.000000e+000  0.000000e+000  1.000000e+000
    outer loop
      vertex  4.700000e+001  0.000000e+000  3.500000e+001
      vertex  4.400000e+001  2.400000e+001  3.500000e+001
      vertex  4.400000e+001  3.000000e+000  3.500000e+001
    endloop
  endfacet
endsolid CATIA STL
