<?xml version="1.0" encoding="utf-8" ?><!DOCTYPE svg PUBLIC "-//W3C//DTD SVG 1.1//EN" "http://www.w3.org/Graphics/SVG/1.1/DTD/svg11.dtd" 
[ <!ATTLIST svg 
  xmlns:dsy CDATA #FIXED "http://www.3ds.com/print"  
    dsy:text-version CDATA #IMPLIED > 

  <!ATTLIST text 
  xmlns:dsy CDATA #FIXED "http://www.3ds.com/print" 
    dsy:text-version CDATA #IMPLIED > 
]><svg xmlns="http://www.w3.org/2000/svg" xmlns:dsy="http://www.3ds.com/print" dsy:text-version="18000" width="297" height="210" viewBox="0 0 297 210" version="1.1"><g stroke="rgb(0, 0, 0)" stroke-width="0.35" stroke-linecap="butt" stroke-linejoin="miter" fill="none"><circle cx="124.01" cy="97.0428" r="4.5"/><circle cx="148.5" cy="105" r="90"/><circle cx="133.365" cy="125.832" r="4.5"/><circle cx="163.635" cy="125.832" r="4.5"/><circle cx="172.99" cy="97.0428" r="4.5"/><circle cx="148.5" cy="79.25" r="4.5"/><circle cx="148.5" cy="105" r="17.5"/></g><g stroke="rgb(0, 0, 0)" stroke-width="0.13" stroke-linecap="butt" stroke-linejoin="miter" fill="none"><path d="M 135.976 163.769 L 136.065 163.267 L 135.275 162.957 L 134.562 162.533 L 133.925 161.999 L 133.354 161.349 L 132.942 161.275 L 132.52 163.638 L 132.972 163.719 L 133.309 161.832 L 133.882 162.498 L 134.508 163.035 L 135.202 163.456 L 135.976 163.769 L 135.976 163.769 z M 136.539 160.612 L 136.962 158.244 L 136.535 158.168 L 136.201 160.039 L 135.986 159.893 L 135.825 159.68 L 135.57 159.066 L 135.474 158.747 L 135.319 158.381 L 135.112 158.103 L 134.843 157.917 L 134.519 157.808 L 134.087 157.818 L 133.718 157.993 L 133.446 158.313 L 133.289 158.761 L 133.288 159.253 L 133.457 159.657 L 133.787 159.957 L 134.265 160.124 L 134.334 160.136 L 134.415 159.685 L 134.375 159.678 L 134.046 159.573 L 133.821 159.394 L 133.701 159.152 L 133.696 158.86 L 133.797 158.581 L 133.96 158.389 L 134.178 158.285 L 134.43 158.279 L 134.652 158.354 L 134.829 158.483 L 134.97 158.672 L 135.08 158.917 L 135.186 159.238 L 135.407 159.78 L 135.674 160.181 L 136.034 160.455 L 136.524 160.609 L 136.539 160.612 L 136.539 160.612 z M 137.351 156.065 L 137.473 155.38 L 136.734 155.248 L 136.611 155.933 L 137.351 156.065 L 137.351 156.065 z M 136.95 153.116 L 137.377 153.079 L 137.738 152.893 L 138.001 152.571 L 138.157 152.127 L 138.157 151.61 L 137.984 151.174 L 137.641 150.857 L 137.161 150.674 L 136.684 150.676 L 136.279 150.849 L 135.979 151.18 L 135.809 151.647 L 135.802 152.03 L 135.915 152.347 L 135.011 152.042 L 135.28 150.533 L 134.873 150.46 L 134.544 152.302 L 136.323 152.901 L 136.394 152.504 L 136.212 152.174 L 136.193 151.792 L 136.304 151.484 L 136.507 151.269 L 136.777 151.159 L 137.1 151.16 L 137.403 151.27 L 137.618 151.473 L 137.728 151.743 L 137.727 152.066 L 137.645 152.323 L 137.495 152.506 L 137.289 152.623 L 137.033 152.654 L 136.95 153.116 L 136.95 153.116 z" stroke="none" fill-rule="evenodd" fill="rgb(0, 0, 0)"/><path d="M 145.594 124.22 L 145.424 122.228 L 144.575 124.038"/><path d="M 132.511 191.606 L 132.681 193.599 L 133.53 191.788"/><path d="M 132.681 193.599 L 145.424 122.228"/></g></svg>