solid CATIA STL
  facet normal  0.000000e+000 -1.000000e+000  0.000000e+000
    outer loop
      vertex  0.000000e+000  0.000000e+000  0.000000e+000
      vertex  0.000000e+000  0.000000e+000 -4.000000e+002
      vertex  4.000000e+002  0.000000e+000  0.000000e+000
    endloop
  endfacet
  facet normal  0.000000e+000 -1.000000e+000  -0.000000e+000
    outer loop
      vertex  4.000000e+002  0.000000e+000  0.000000e+000
      vertex  0.000000e+000  0.000000e+000 -4.000000e+002
      vertex  4.000000e+002  0.000000e+000 -4.000000e+002
    endloop
  endfacet
  facet normal  0.000000e+000  1.000000e+000  0.000000e+000
    outer loop
      vertex  0.000000e+000  6.400000e+001  0.000000e+000
      vertex  4.000000e+002  6.400000e+001  0.000000e+000
      vertex  0.000000e+000  6.400000e+001 -4.000000e+002
    endloop
  endfacet
  facet normal  0.000000e+000  1.000000e+000  0.000000e+000
    outer loop
      vertex  0.000000e+000  6.400000e+001 -4.000000e+002
      vertex  4.000000e+002  6.400000e+001  0.000000e+000
      vertex  4.000000e+002  6.400000e+001 -4.000000e+002
    endloop
  endfacet
  facet normal  0.000000e+000  0.000000e+000 -1.000000e+000
    outer loop
      vertex  0.000000e+000  0.000000e+000 -4.000000e+002
      vertex  0.000000e+000  6.400000e+001 -4.000000e+002
      vertex  4.000000e+002  0.000000e+000 -4.000000e+002
    endloop
  endfacet
  facet normal  0.000000e+000  0.000000e+000 -1.000000e+000
    outer loop
      vertex  4.000000e+002  0.000000e+000 -4.000000e+002
      vertex  0.000000e+000  6.400000e+001 -4.000000e+002
      vertex  4.000000e+002  6.400000e+001 -4.000000e+002
    endloop
  endfacet
  facet normal  1.000000e+000  0.000000e+000  0.000000e+000
    outer loop
      vertex  4.000000e+002  0.000000e+000 -4.000000e+002
      vertex  4.000000e+002  6.400000e+001 -4.000000e+002
      vertex  4.000000e+002  0.000000e+000  0.000000e+000
    endloop
  endfacet
  facet normal  1.000000e+000  -0.000000e+000  0.000000e+000
    outer loop
      vertex  4.000000e+002  0.000000e+000  0.000000e+000
      vertex  4.000000e+002  6.400000e+001 -4.000000e+002
      vertex  4.000000e+002  6.400000e+001  0.000000e+000
    endloop
  endfacet
  facet normal  0.000000e+000  0.000000e+000  1.000000e+000
    outer loop
      vertex  4.000000e+002  0.000000e+000  0.000000e+000
      vertex  4.000000e+002  6.400000e+001  0.000000e+000
      vertex  0.000000e+000  0.000000e+000  0.000000e+000
    endloop
  endfacet
  facet normal  0.000000e+000  0.000000e+000  1.000000e+000
    outer loop
      vertex  0.000000e+000  0.000000e+000  0.000000e+000
      vertex  4.000000e+002  6.400000e+001  0.000000e+000
      vertex  0.000000e+000  6.400000e+001  0.000000e+000
    endloop
  endfacet
  facet normal -1.000000e+000  -0.000000e+000  0.000000e+000
    outer loop
      vertex  0.000000e+000  0.000000e+000  0.000000e+000
      vertex  0.000000e+000  6.400000e+001  0.000000e+000
      vertex  0.000000e+000  0.000000e+000 -4.000000e+002
    endloop
  endfacet
  facet normal -1.000000e+000  0.000000e+000  0.000000e+000
    outer loop
      vertex  0.000000e+000  0.000000e+000 -4.000000e+002
      vertex  0.000000e+000  6.400000e+001  0.000000e+000
      vertex  0.000000e+000  6.400000e+001 -4.000000e+002
    endloop
  endfacet
endsolid CATIA STL
