solid CATIA STL
  facet normal  0.000000e+000  0.000000e+000  1.000000e+000
    outer loop
      vertex  1.871589e+000  4.895639e+000  0.000000e+000
      vertex  2.541618e+000  4.895639e+000  0.000000e+000
      vertex  2.203002e+000  5.003709e+000  0.000000e+000
    endloop
  endfacet
  facet normal  -0.000000e+000  0.000000e+000  9.999999e-001
    outer loop
      vertex  2.541618e+000  4.895639e+000  0.000000e+000
      vertex  1.871589e+000  4.895639e+000  0.000000e+000
      vertex  2.779373e+000  4.571427e+000  0.000000e+000
    endloop
  endfacet
  facet normal  0.000000e+000  0.000000e+000  9.999999e-001
    outer loop
      vertex  2.779373e+000  4.571427e+000  0.000000e+000
      vertex  1.871589e+000  4.895639e+000  0.000000e+000
      vertex  1.626632e+000  4.600244e+000  0.000000e+000
    endloop
  endfacet
  facet normal  0.000000e+000  0.000000e+000  1.000000e+000
    outer loop
      vertex  2.779373e+000  4.571427e+000  0.000000e+000
      vertex  1.626632e+000  4.600244e+000  0.000000e+000
      vertex  2.923461e+000  4.031083e+000  0.000000e+000
    endloop
  endfacet
  facet normal  0.000000e+000  0.000000e+000  1.000000e+000
    outer loop
      vertex  2.923461e+000  4.031083e+000  0.000000e+000
      vertex  1.626632e+000  4.600244e+000  0.000000e+000
      vertex  1.475334e+000  4.103128e+000  0.000000e+000
    endloop
  endfacet
  facet normal  0.000000e+000  0.000000e+000  1.000000e+000
    outer loop
      vertex  2.923461e+000  4.031083e+000  0.000000e+000
      vertex  1.475334e+000  4.103128e+000  0.000000e+000
      vertex  2.973892e+000  3.281800e+000  0.000000e+000
    endloop
  endfacet
  facet normal  0.000000e+000  0.000000e+000  1.000000e+000
    outer loop
      vertex  2.973892e+000  3.281800e+000  0.000000e+000
      vertex  1.475334e+000  4.103128e+000  0.000000e+000
      vertex  1.424903e+000  3.418687e+000  0.000000e+000
    endloop
  endfacet
  facet normal  0.000000e+000  0.000000e+000  1.000000e+000
    outer loop
      vertex  2.973892e+000  3.281800e+000  0.000000e+000
      vertex  1.424903e+000  3.418687e+000  0.000000e+000
      vertex  2.930663e+000  2.539727e+000  0.000000e+000
    endloop
  endfacet
  facet normal  0.000000e+000  0.000000e+000  1.000000e+000
    outer loop
      vertex  2.930663e+000  2.539727e+000  0.000000e+000
      vertex  1.424903e+000  3.418687e+000  0.000000e+000
      vertex  1.468131e+000  2.618981e+000  0.000000e+000
    endloop
  endfacet
  facet normal  0.000000e+000  0.000000e+000  1.000000e+000
    outer loop
      vertex  2.930663e+000  2.539727e+000  0.000000e+000
      vertex  1.468131e+000  2.618981e+000  0.000000e+000
      vertex  2.793777e+000  2.020997e+000  0.000000e+000
    endloop
  endfacet
  facet normal  0.000000e+000  0.000000e+000  1.000000e+000
    outer loop
      vertex  2.793777e+000  2.020997e+000  0.000000e+000
      vertex  1.468131e+000  2.618981e+000  0.000000e+000
      vertex  1.605018e+000  2.049813e+000  0.000000e+000
    endloop
  endfacet
  facet normal  0.000000e+000  0.000000e+000  1.000000e+000
    outer loop
      vertex  2.793777e+000  2.020997e+000  0.000000e+000
      vertex  1.605018e+000  2.049813e+000  0.000000e+000
      vertex  2.556030e+000  1.703996e+000  0.000000e+000
    endloop
  endfacet
  facet normal  0.000000e+000  0.000000e+000  1.000000e+000
    outer loop
      vertex  2.556030e+000  1.703996e+000  0.000000e+000
      vertex  1.605018e+000  2.049813e+000  0.000000e+000
      vertex  1.849975e+000  1.711198e+000  0.000000e+000
    endloop
  endfacet
  facet normal  0.000000e+000  0.000000e+000  1.000000e+000
    outer loop
      vertex  2.556030e+000  1.703996e+000  0.000000e+000
      vertex  1.849975e+000  1.711198e+000  0.000000e+000
      vertex  2.217407e+000  1.603128e+000  0.000000e+000
    endloop
  endfacet
  facet normal  0.000000e+000  0.000000e+000  1.000000e+000
    outer loop
      vertex -2.465584e+000  4.895639e+000  0.000000e+000
      vertex -1.795556e+000  4.895639e+000  0.000000e+000
      vertex -2.134179e+000  5.003709e+000  0.000000e+000
    endloop
  endfacet
  facet normal  -0.000000e+000  0.000000e+000  1.000000e+000
    outer loop
      vertex -1.795556e+000  4.895639e+000  0.000000e+000
      vertex -2.465584e+000  4.895639e+000  0.000000e+000
      vertex -1.557809e+000  4.571427e+000  0.000000e+000
    endloop
  endfacet
  facet normal  0.000000e+000  0.000000e+000  1.000000e+000
    outer loop
      vertex -1.557809e+000  4.571427e+000  0.000000e+000
      vertex -2.465584e+000  4.895639e+000  0.000000e+000
      vertex -2.710541e+000  4.600244e+000  0.000000e+000
    endloop
  endfacet
  facet normal  0.000000e+000  0.000000e+000  1.000000e+000
    outer loop
      vertex -1.557809e+000  4.571427e+000  0.000000e+000
      vertex -2.710541e+000  4.600244e+000  0.000000e+000
      vertex -1.413712e+000  4.031083e+000  0.000000e+000
    endloop
  endfacet
  facet normal  0.000000e+000  0.000000e+000  1.000000e+000
    outer loop
      vertex -1.413712e+000  4.031083e+000  0.000000e+000
      vertex -2.710541e+000  4.600244e+000  0.000000e+000
      vertex -2.861840e+000  4.103128e+000  0.000000e+000
    endloop
  endfacet
  facet normal  0.000000e+000  0.000000e+000  1.000000e+000
    outer loop
      vertex -1.413712e+000  4.031083e+000  0.000000e+000
      vertex -2.861840e+000  4.103128e+000  0.000000e+000
      vertex -1.363282e+000  3.281800e+000  0.000000e+000
    endloop
  endfacet
  facet normal  0.000000e+000  0.000000e+000  1.000000e+000
    outer loop
      vertex -1.363282e+000  3.281800e+000  0.000000e+000
      vertex -2.861840e+000  4.103128e+000  0.000000e+000
      vertex -2.912270e+000  3.418687e+000  0.000000e+000
    endloop
  endfacet
  facet normal  0.000000e+000  0.000000e+000  1.000000e+000
    outer loop
      vertex -1.363282e+000  3.281800e+000  0.000000e+000
      vertex -2.912270e+000  3.418687e+000  0.000000e+000
      vertex -1.406510e+000  2.539727e+000  0.000000e+000
    endloop
  endfacet
  facet normal  0.000000e+000  0.000000e+000  1.000000e+000
    outer loop
      vertex -1.406510e+000  2.539727e+000  0.000000e+000
      vertex -2.912270e+000  3.418687e+000  0.000000e+000
      vertex -2.869042e+000  2.618981e+000  0.000000e+000
    endloop
  endfacet
  facet normal  0.000000e+000  0.000000e+000  1.000000e+000
    outer loop
      vertex -1.406510e+000  2.539727e+000  0.000000e+000
      vertex -2.869042e+000  2.618981e+000  0.000000e+000
      vertex -1.543397e+000  2.020997e+000  0.000000e+000
    endloop
  endfacet
  facet normal  0.000000e+000  0.000000e+000  1.000000e+000
    outer loop
      vertex -1.543397e+000  2.020997e+000  0.000000e+000
      vertex -2.869042e+000  2.618981e+000  0.000000e+000
      vertex -2.732155e+000  2.049813e+000  0.000000e+000
    endloop
  endfacet
  facet normal  0.000000e+000  0.000000e+000  9.999999e-001
    outer loop
      vertex -1.543397e+000  2.020997e+000  0.000000e+000
      vertex -2.732155e+000  2.049813e+000  0.000000e+000
      vertex -1.781151e+000  1.703996e+000  0.000000e+000
    endloop
  endfacet
  facet normal  0.000000e+000  0.000000e+000  1.000000e+000
    outer loop
      vertex -1.781151e+000  1.703996e+000  0.000000e+000
      vertex -2.732155e+000  2.049813e+000  0.000000e+000
      vertex -2.487199e+000  1.711198e+000  0.000000e+000
    endloop
  endfacet
  facet normal  0.000000e+000  0.000000e+000  1.000000e+000
    outer loop
      vertex -1.781151e+000  1.703996e+000  0.000000e+000
      vertex -2.487199e+000  1.711198e+000  0.000000e+000
      vertex -2.119767e+000  1.603128e+000  0.000000e+000
    endloop
  endfacet
  facet normal  0.000000e+000  -0.000000e+000  1.000000e+000
    outer loop
      vertex  3.759200e+000  4.866815e+000  0.000000e+000
      vertex  3.917701e+000  4.412927e+000  0.000000e+000
      vertex  4.688590e+000  4.845201e+000  0.000000e+000
    endloop
  endfacet
  facet normal  0.000000e+000  0.000000e+000  9.999999e-001
    outer loop
      vertex -5.181726e+000  3.850968e+000  0.000000e+000
      vertex -6.975671e+000  4.845201e+000  0.000000e+000
      vertex -6.975671e+000  3.850968e+000  0.000000e+000
    endloop
  endfacet
  facet normal  0.000000e+000  0.000000e+000  1.000000e+000
    outer loop
      vertex -3.856080e+000  4.434541e+000  0.000000e+000
      vertex -3.481438e+000  5.248658e+000  0.000000e+000
      vertex -4.742242e+000  4.845201e+000  0.000000e+000
    endloop
  endfacet
  facet normal  0.000000e+000  0.000000e+000  1.000000e+000
    outer loop
      vertex -8.360696e+000 -5.890369e-002  0.000000e+000
      vertex  8.716835e+000 -5.890369e-002  0.000000e+000
      vertex  7.058906e+000  7.962119e-001  0.000000e+000
    endloop
  endfacet
  facet normal  0.000000e+000  0.000000e+000  1.000000e+000
    outer loop
      vertex -8.360696e+000 -5.890369e-002  0.000000e+000
      vertex  7.058906e+000  7.962119e-001  0.000000e+000
      vertex  6.014243e+000  7.962119e-001  0.000000e+000
    endloop
  endfacet
  facet normal  0.000000e+000  0.000000e+000  1.000000e+000
    outer loop
      vertex -8.360696e+000 -5.890369e-002  0.000000e+000
      vertex  6.014243e+000  7.962119e-001  0.000000e+000
      vertex  2.203002e+000  6.593259e-001  0.000000e+000
    endloop
  endfacet
  facet normal  0.000000e+000  0.000000e+000  1.000000e+000
    outer loop
      vertex -8.360696e+000 -5.890369e-002  0.000000e+000
      vertex  2.203002e+000  6.593259e-001  0.000000e+000
      vertex -2.134179e+000  6.593259e-001  0.000000e+000
    endloop
  endfacet
  facet normal  0.000000e+000  0.000000e+000  1.000000e+000
    outer loop
      vertex -8.360696e+000 -5.890369e-002  0.000000e+000
      vertex -2.134179e+000  6.593259e-001  0.000000e+000
      vertex -2.905068e+000  8.322379e-001  0.000000e+000
    endloop
  endfacet
  facet normal  0.000000e+000  0.000000e+000  9.999999e-001
    outer loop
      vertex -8.360696e+000 -5.890369e-002  0.000000e+000
      vertex -2.905068e+000  8.322379e-001  0.000000e+000
      vertex -3.488640e+000  1.350968e+000  0.000000e+000
    endloop
  endfacet
  facet normal  0.000000e+000  0.000000e+000  1.000000e+000
    outer loop
      vertex -8.360696e+000 -5.890369e-002  0.000000e+000
      vertex -3.488640e+000  1.350968e+000  0.000000e+000
      vertex -3.863282e+000  2.193910e+000  0.000000e+000
    endloop
  endfacet
  facet normal  0.000000e+000  0.000000e+000  1.000000e+000
    outer loop
      vertex -8.360696e+000 -5.890369e-002  0.000000e+000
      vertex -3.863282e+000  2.193910e+000  0.000000e+000
      vertex -6.968468e+000  7.962119e-001  0.000000e+000
    endloop
  endfacet
  facet normal  0.000000e+000  0.000000e+000  1.000000e+000
    outer loop
      vertex -8.360696e+000 -5.890369e-002  0.000000e+000
      vertex -6.968468e+000  7.962119e-001  0.000000e+000
      vertex -8.005937e+000  7.962119e-001  0.000000e+000
    endloop
  endfacet
  facet normal  0.000000e+000  -0.000000e+000  1.000000e+000
    outer loop
      vertex -8.360696e+000 -5.890369e-002  0.000000e+000
      vertex -8.005937e+000  7.962119e-001  0.000000e+000
      vertex -8.005937e+000  5.796212e+000  0.000000e+000
    endloop
  endfacet
  facet normal  0.000000e+000  0.000000e+000  1.000000e+000
    outer loop
      vertex -8.360696e+000 -5.890369e-002  0.000000e+000
      vertex -8.005937e+000  5.796212e+000  0.000000e+000
      vertex -8.360696e+000  6.451479e+000  0.000000e+000
    endloop
  endfacet
  facet normal  0.000000e+000  0.000000e+000  9.999999e-001
    outer loop
      vertex  6.014243e+000  7.962119e-001  0.000000e+000
      vertex  6.014243e+000  4.845201e+000  0.000000e+000
      vertex  4.688590e+000  4.845201e+000  0.000000e+000
    endloop
  endfacet
  facet normal  0.000000e+000  0.000000e+000  1.000000e+000
    outer loop
      vertex  6.014243e+000  7.962119e-001  0.000000e+000
      vertex  4.688590e+000  4.845201e+000  0.000000e+000
      vertex  3.917701e+000  4.412927e+000  0.000000e+000
    endloop
  endfacet
  facet normal  0.000000e+000  0.000000e+000  1.000000e+000
    outer loop
      vertex  6.014243e+000  7.962119e-001  0.000000e+000
      vertex  3.917701e+000  4.412927e+000  0.000000e+000
      vertex  4.054588e+000  3.296212e+000  0.000000e+000
    endloop
  endfacet
  facet normal  0.000000e+000  0.000000e+000  1.000000e+000
    outer loop
      vertex  6.014243e+000  7.962119e-001  0.000000e+000
      vertex  4.054588e+000  3.296212e+000  0.000000e+000
      vertex  3.917701e+000  2.172296e+000  0.000000e+000
    endloop
  endfacet
  facet normal  0.000000e+000  0.000000e+000  1.000000e+000
    outer loop
      vertex  6.014243e+000  7.962119e-001  0.000000e+000
      vertex  3.917701e+000  2.172296e+000  0.000000e+000
      vertex  3.550262e+000  1.343766e+000  0.000000e+000
    endloop
  endfacet
  facet normal  0.000000e+000  0.000000e+000  9.999999e-001
    outer loop
      vertex  6.014243e+000  7.962119e-001  0.000000e+000
      vertex  3.550262e+000  1.343766e+000  0.000000e+000
      vertex  2.959487e+000  8.322379e-001  0.000000e+000
    endloop
  endfacet
  facet normal  0.000000e+000  0.000000e+000  1.000000e+000
    outer loop
      vertex  6.014243e+000  7.962119e-001  0.000000e+000
      vertex  2.959487e+000  8.322379e-001  0.000000e+000
      vertex  2.203002e+000  6.593259e-001  0.000000e+000
    endloop
  endfacet
  facet normal  0.000000e+000  0.000000e+000  1.000000e+000
    outer loop
      vertex  8.716835e+000 -5.890369e-002  0.000000e+000
      vertex  8.716835e+000  6.451479e+000  0.000000e+000
      vertex  8.384559e+000  5.796212e+000  0.000000e+000
    endloop
  endfacet
  facet normal  0.000000e+000  0.000000e+000  9.999999e-001
    outer loop
      vertex  8.716835e+000 -5.890369e-002  0.000000e+000
      vertex  8.384559e+000  5.796212e+000  0.000000e+000
      vertex  8.384559e+000  4.845201e+000  0.000000e+000
    endloop
  endfacet
  facet normal  0.000000e+000  0.000000e+000  1.000000e+000
    outer loop
      vertex  8.716835e+000 -5.890369e-002  0.000000e+000
      vertex  8.384559e+000  4.845201e+000  0.000000e+000
      vertex  7.058906e+000  4.845201e+000  0.000000e+000
    endloop
  endfacet
  facet normal  0.000000e+000  0.000000e+000  9.999999e-001
    outer loop
      vertex  8.716835e+000 -5.890369e-002  0.000000e+000
      vertex  7.058906e+000  4.845201e+000  0.000000e+000
      vertex  7.058906e+000  7.962119e-001  0.000000e+000
    endloop
  endfacet
  facet normal  -0.000000e+000  0.000000e+000  1.000000e+000
    outer loop
      vertex  8.716835e+000  6.451479e+000  0.000000e+000
      vertex -8.360696e+000  6.451479e+000  0.000000e+000
      vertex  8.384559e+000  5.796212e+000  0.000000e+000
    endloop
  endfacet
  facet normal  0.000000e+000  0.000000e+000  9.999999e-001
    outer loop
      vertex  8.384559e+000  5.796212e+000  0.000000e+000
      vertex -8.360696e+000  6.451479e+000  0.000000e+000
      vertex  2.203002e+000  5.933099e+000  0.000000e+000
    endloop
  endfacet
  facet normal  0.000000e+000  0.000000e+000  1.000000e+000
    outer loop
      vertex  8.384559e+000  5.796212e+000  0.000000e+000
      vertex  2.203002e+000  5.933099e+000  0.000000e+000
      vertex  4.688590e+000  5.796212e+000  0.000000e+000
    endloop
  endfacet
  facet normal  0.000000e+000  0.000000e+000  1.000000e+000
    outer loop
      vertex  4.688590e+000  5.796212e+000  0.000000e+000
      vertex  2.203002e+000  5.933099e+000  0.000000e+000
      vertex  2.599258e+000  5.882669e+000  0.000000e+000
    endloop
  endfacet
  facet normal  0.000000e+000  0.000000e+000  1.000000e+000
    outer loop
      vertex  4.688590e+000  5.796212e+000  0.000000e+000
      vertex  2.599258e+000  5.882669e+000  0.000000e+000
      vertex  2.959487e+000  5.752984e+000  0.000000e+000
    endloop
  endfacet
  facet normal  0.000000e+000  0.000000e+000  1.000000e+000
    outer loop
      vertex -6.968468e+000  2.892755e+000  0.000000e+000
      vertex -6.968468e+000  7.962119e-001  0.000000e+000
      vertex -5.181726e+000  2.892755e+000  0.000000e+000
    endloop
  endfacet
  facet normal  0.000000e+000  0.000000e+000  1.000000e+000
    outer loop
      vertex -5.181726e+000  2.892755e+000  0.000000e+000
      vertex -6.968468e+000  7.962119e-001  0.000000e+000
      vertex -3.863282e+000  2.193910e+000  0.000000e+000
    endloop
  endfacet
  facet normal  0.000000e+000  0.000000e+000  1.000000e+000
    outer loop
      vertex -5.181726e+000  2.892755e+000  0.000000e+000
      vertex -3.863282e+000  2.193910e+000  0.000000e+000
      vertex -3.985764e+000  3.346643e+000  0.000000e+000
    endloop
  endfacet
  facet normal  0.000000e+000  0.000000e+000  1.000000e+000
    outer loop
      vertex -5.181726e+000  2.892755e+000  0.000000e+000
      vertex -3.985764e+000  3.346643e+000  0.000000e+000
      vertex -5.181726e+000  3.850968e+000  0.000000e+000
    endloop
  endfacet
  facet normal  -0.000000e+000  0.000000e+000  1.000000e+000
    outer loop
      vertex -5.181726e+000  3.850968e+000  0.000000e+000
      vertex -3.985764e+000  3.346643e+000  0.000000e+000
      vertex -3.856080e+000  4.434541e+000  0.000000e+000
    endloop
  endfacet
  facet normal  0.000000e+000  0.000000e+000  1.000000e+000
    outer loop
      vertex -5.181726e+000  3.850968e+000  0.000000e+000
      vertex -3.856080e+000  4.434541e+000  0.000000e+000
      vertex -6.975671e+000  4.845201e+000  0.000000e+000
    endloop
  endfacet
  facet normal  -0.000000e+000  0.000000e+000  1.000000e+000
    outer loop
      vertex -6.975671e+000  4.845201e+000  0.000000e+000
      vertex -3.856080e+000  4.434541e+000  0.000000e+000
      vertex -4.742242e+000  4.845201e+000  0.000000e+000
    endloop
  endfacet
  facet normal  0.000000e+000  0.000000e+000  1.000000e+000
    outer loop
      vertex -8.005937e+000  5.796212e+000  0.000000e+000
      vertex -4.742242e+000  5.796212e+000  0.000000e+000
      vertex -8.360696e+000  6.451479e+000  0.000000e+000
    endloop
  endfacet
  facet normal  0.000000e+000  0.000000e+000  1.000000e+000
    outer loop
      vertex -8.360696e+000  6.451479e+000  0.000000e+000
      vertex -4.742242e+000  5.796212e+000  0.000000e+000
      vertex -2.134179e+000  5.933099e+000  0.000000e+000
    endloop
  endfacet
  facet normal  0.000000e+000  -0.000000e+000  1.000000e+000
    outer loop
      vertex -8.360696e+000  6.451479e+000  0.000000e+000
      vertex -2.134179e+000  5.933099e+000  0.000000e+000
      vertex  2.203002e+000  5.933099e+000  0.000000e+000
    endloop
  endfacet
  facet normal  0.000000e+000  0.000000e+000  1.000000e+000
    outer loop
      vertex -4.742242e+000  4.845201e+000  0.000000e+000
      vertex -3.481438e+000  5.248658e+000  0.000000e+000
      vertex -4.742242e+000  5.796212e+000  0.000000e+000
    endloop
  endfacet
  facet normal  0.000000e+000  0.000000e+000  1.000000e+000
    outer loop
      vertex -4.742242e+000  5.796212e+000  0.000000e+000
      vertex -3.481438e+000  5.248658e+000  0.000000e+000
      vertex -2.897866e+000  5.752984e+000  0.000000e+000
    endloop
  endfacet
  facet normal  0.000000e+000  -0.000000e+000  1.000000e+000
    outer loop
      vertex -4.742242e+000  5.796212e+000  0.000000e+000
      vertex -2.897866e+000  5.752984e+000  0.000000e+000
      vertex -2.134179e+000  5.933099e+000  0.000000e+000
    endloop
  endfacet
  facet normal  -0.000000e+000  0.000000e+000  1.000000e+000
    outer loop
      vertex  2.203002e+000  5.933099e+000  0.000000e+000
      vertex -2.134179e+000  5.933099e+000  0.000000e+000
      vertex  1.439315e+000  5.752984e+000  0.000000e+000
    endloop
  endfacet
  facet normal  0.000000e+000  0.000000e+000  1.000000e+000
    outer loop
      vertex  1.439315e+000  5.752984e+000  0.000000e+000
      vertex -2.134179e+000  5.933099e+000  0.000000e+000
      vertex -1.737923e+000  5.882669e+000  0.000000e+000
    endloop
  endfacet
  facet normal  0.000000e+000  0.000000e+000  1.000000e+000
    outer loop
      vertex  1.439315e+000  5.752984e+000  0.000000e+000
      vertex -1.737923e+000  5.882669e+000  0.000000e+000
      vertex -1.377694e+000  5.752984e+000  0.000000e+000
    endloop
  endfacet
  facet normal  -0.000000e+000  0.000000e+000  1.000000e+000
    outer loop
      vertex  1.439315e+000  5.752984e+000  0.000000e+000
      vertex -1.377694e+000  5.752984e+000  0.000000e+000
      vertex  8.557347e-001  5.248658e+000  0.000000e+000
    endloop
  endfacet
  facet normal  0.000000e+000  0.000000e+000  1.000000e+000
    outer loop
      vertex  8.557347e-001  5.248658e+000  0.000000e+000
      vertex -1.377694e+000  5.752984e+000  0.000000e+000
      vertex -7.869123e-001  5.241456e+000  0.000000e+000
    endloop
  endfacet
  facet normal  -0.000000e+000  0.000000e+000  1.000000e+000
    outer loop
      vertex  8.557347e-001  5.248658e+000  0.000000e+000
      vertex -7.869123e-001  5.241456e+000  0.000000e+000
      vertex  4.811007e-001  4.434541e+000  0.000000e+000
    endloop
  endfacet
  facet normal  0.000000e+000  0.000000e+000  1.000000e+000
    outer loop
      vertex  4.811007e-001  4.434541e+000  0.000000e+000
      vertex -7.869123e-001  5.241456e+000  0.000000e+000
      vertex -5.779813e-001  4.866815e+000  0.000000e+000
    endloop
  endfacet
  facet normal  0.000000e+000  0.000000e+000  1.000000e+000
    outer loop
      vertex  4.811007e-001  4.434541e+000  0.000000e+000
      vertex -5.779813e-001  4.866815e+000  0.000000e+000
      vertex -4.194803e-001  4.412927e+000  0.000000e+000
    endloop
  endfacet
  facet normal  -0.000000e+000  0.000000e+000  1.000000e+000
    outer loop
      vertex  4.811007e-001  4.434541e+000  0.000000e+000
      vertex -4.194803e-001  4.412927e+000  0.000000e+000
      vertex  3.514167e-001  3.346643e+000  0.000000e+000
    endloop
  endfacet
  facet normal  0.000000e+000  0.000000e+000  1.000000e+000
    outer loop
      vertex  3.514167e-001  3.346643e+000  0.000000e+000
      vertex -4.194803e-001  4.412927e+000  0.000000e+000
      vertex -2.825933e-001  3.296212e+000  0.000000e+000
    endloop
  endfacet
  facet normal  -0.000000e+000  0.000000e+000  1.000000e+000
    outer loop
      vertex  3.514167e-001  3.346643e+000  0.000000e+000
      vertex -2.825933e-001  3.296212e+000  0.000000e+000
      vertex  4.738917e-001  2.193910e+000  0.000000e+000
    endloop
  endfacet
  facet normal  0.000000e+000  0.000000e+000  1.000000e+000
    outer loop
      vertex  4.738917e-001  2.193910e+000  0.000000e+000
      vertex -2.825933e-001  3.296212e+000  0.000000e+000
      vertex -4.194803e-001  2.172296e+000  0.000000e+000
    endloop
  endfacet
  facet normal  -0.000000e+000  0.000000e+000  1.000000e+000
    outer loop
      vertex  4.738917e-001  2.193910e+000  0.000000e+000
      vertex -4.194803e-001  2.172296e+000  0.000000e+000
      vertex  8.485327e-001  1.350968e+000  0.000000e+000
    endloop
  endfacet
  facet normal  0.000000e+000  0.000000e+000  1.000000e+000
    outer loop
      vertex  8.485327e-001  1.350968e+000  0.000000e+000
      vertex -4.194803e-001  2.172296e+000  0.000000e+000
      vertex -7.869123e-001  1.343766e+000  0.000000e+000
    endloop
  endfacet
  facet normal  -0.000000e+000  0.000000e+000  1.000000e+000
    outer loop
      vertex  8.485327e-001  1.350968e+000  0.000000e+000
      vertex -7.869123e-001  1.343766e+000  0.000000e+000
      vertex  1.432105e+000  8.322379e-001  0.000000e+000
    endloop
  endfacet
  facet normal  0.000000e+000  0.000000e+000  1.000000e+000
    outer loop
      vertex  1.432105e+000  8.322379e-001  0.000000e+000
      vertex -7.869123e-001  1.343766e+000  0.000000e+000
      vertex -1.377694e+000  8.322379e-001  0.000000e+000
    endloop
  endfacet
  facet normal  -0.000000e+000  0.000000e+000  1.000000e+000
    outer loop
      vertex  1.432105e+000  8.322379e-001  0.000000e+000
      vertex -1.377694e+000  8.322379e-001  0.000000e+000
      vertex  2.203002e+000  6.593259e-001  0.000000e+000
    endloop
  endfacet
  facet normal  0.000000e+000  0.000000e+000  1.000000e+000
    outer loop
      vertex  2.203002e+000  6.593259e-001  0.000000e+000
      vertex -1.377694e+000  8.322379e-001  0.000000e+000
      vertex -2.134179e+000  6.593259e-001  0.000000e+000
    endloop
  endfacet
  facet normal  -0.000000e+000  0.000000e+000  1.000000e+000
    outer loop
      vertex  4.688590e+000  5.796212e+000  0.000000e+000
      vertex  2.959487e+000  5.752984e+000  0.000000e+000
      vertex  4.688590e+000  4.845201e+000  0.000000e+000
    endloop
  endfacet
  facet normal  0.000000e+000  0.000000e+000  1.000000e+000
    outer loop
      vertex  4.688590e+000  4.845201e+000  0.000000e+000
      vertex  2.959487e+000  5.752984e+000  0.000000e+000
      vertex  3.550262e+000  5.241456e+000  0.000000e+000
    endloop
  endfacet
  facet normal  0.000000e+000  0.000000e+000  1.000000e+000
    outer loop
      vertex  4.688590e+000  4.845201e+000  0.000000e+000
      vertex  3.550262e+000  5.241456e+000  0.000000e+000
      vertex  3.759200e+000  4.866815e+000  0.000000e+000
    endloop
  endfacet
  facet normal  0.000000e+000 -1.000000e+000  0.000000e+000
    outer loop
      vertex  4.688590e+000  4.845201e+000  8.000000e-001
      vertex  4.688590e+000  4.845201e+000  0.000000e+000
      vertex  6.014243e+000  4.845201e+000  8.000000e-001
    endloop
  endfacet
  facet normal  0.000000e+000 -1.000000e+000  -0.000000e+000
    outer loop
      vertex  6.014243e+000  4.845201e+000  8.000000e-001
      vertex  4.688590e+000  4.845201e+000  0.000000e+000
      vertex  6.014243e+000  4.845201e+000  0.000000e+000
    endloop
  endfacet
  facet normal -1.000000e+000  0.000000e+000  0.000000e+000
    outer loop
      vertex  4.688590e+000  5.796212e+000  8.000000e-001
      vertex  4.688590e+000  5.796212e+000  0.000000e+000
      vertex  4.688590e+000  4.845201e+000  8.000000e-001
    endloop
  endfacet
  facet normal -1.000000e+000  0.000000e+000  0.000000e+000
    outer loop
      vertex  4.688590e+000  4.845201e+000  8.000000e-001
      vertex  4.688590e+000  5.796212e+000  0.000000e+000
      vertex  4.688590e+000  4.845201e+000  0.000000e+000
    endloop
  endfacet
  facet normal  0.000000e+000  9.999999e-001  -0.000000e+000
    outer loop
      vertex  8.384559e+000  5.796212e+000  8.000000e-001
      vertex  8.384559e+000  5.796212e+000  0.000000e+000
      vertex  4.688590e+000  5.796212e+000  8.000000e-001
    endloop
  endfacet
  facet normal  0.000000e+000  9.999999e-001  0.000000e+000
    outer loop
      vertex  4.688590e+000  5.796212e+000  8.000000e-001
      vertex  8.384559e+000  5.796212e+000  0.000000e+000
      vertex  4.688590e+000  5.796212e+000  0.000000e+000
    endloop
  endfacet
  facet normal  1.000000e+000  0.000000e+000  0.000000e+000
    outer loop
      vertex  8.384559e+000  4.845201e+000  8.000000e-001
      vertex  8.384559e+000  4.845201e+000  0.000000e+000
      vertex  8.384559e+000  5.796212e+000  8.000000e-001
    endloop
  endfacet
  facet normal  1.000000e+000  0.000000e+000  0.000000e+000
    outer loop
      vertex  8.384559e+000  5.796212e+000  8.000000e-001
      vertex  8.384559e+000  4.845201e+000  0.000000e+000
      vertex  8.384559e+000  5.796212e+000  0.000000e+000
    endloop
  endfacet
  facet normal  0.000000e+000 -1.000000e+000  0.000000e+000
    outer loop
      vertex  7.058906e+000  4.845201e+000  8.000000e-001
      vertex  7.058906e+000  4.845201e+000  0.000000e+000
      vertex  8.384559e+000  4.845201e+000  8.000000e-001
    endloop
  endfacet
  facet normal  0.000000e+000 -1.000000e+000  -0.000000e+000
    outer loop
      vertex  8.384559e+000  4.845201e+000  8.000000e-001
      vertex  7.058906e+000  4.845201e+000  0.000000e+000
      vertex  8.384559e+000  4.845201e+000  0.000000e+000
    endloop
  endfacet
  facet normal  1.000000e+000  0.000000e+000  0.000000e+000
    outer loop
      vertex  7.058906e+000  7.962119e-001  8.000000e-001
      vertex  7.058906e+000  7.962119e-001  0.000000e+000
      vertex  7.058906e+000  4.845201e+000  8.000000e-001
    endloop
  endfacet
  facet normal  1.000000e+000  0.000000e+000  0.000000e+000
    outer loop
      vertex  7.058906e+000  4.845201e+000  8.000000e-001
      vertex  7.058906e+000  7.962119e-001  0.000000e+000
      vertex  7.058906e+000  4.845201e+000  0.000000e+000
    endloop
  endfacet
  facet normal  0.000000e+000 -9.999999e-001  0.000000e+000
    outer loop
      vertex  6.014243e+000  7.962119e-001  8.000000e-001
      vertex  6.014243e+000  7.962119e-001  0.000000e+000
      vertex  7.058906e+000  7.962119e-001  8.000000e-001
    endloop
  endfacet
  facet normal  0.000000e+000 -9.999999e-001  -0.000000e+000
    outer loop
      vertex  7.058906e+000  7.962119e-001  8.000000e-001
      vertex  6.014243e+000  7.962119e-001  0.000000e+000
      vertex  7.058906e+000  7.962119e-001  0.000000e+000
    endloop
  endfacet
  facet normal -1.000000e+000  0.000000e+000  0.000000e+000
    outer loop
      vertex  6.014243e+000  4.845201e+000  8.000000e-001
      vertex  6.014243e+000  4.845201e+000  0.000000e+000
      vertex  6.014243e+000  7.962119e-001  8.000000e-001
    endloop
  endfacet
  facet normal -1.000000e+000  0.000000e+000  0.000000e+000
    outer loop
      vertex  6.014243e+000  7.962119e-001  8.000000e-001
      vertex  6.014243e+000  4.845201e+000  0.000000e+000
      vertex  6.014243e+000  7.962119e-001  0.000000e+000
    endloop
  endfacet
  facet normal  3.100217e-001 -9.507295e-001  0.000000e+000
    outer loop
      vertex  1.871589e+000  4.895639e+000  0.000000e+000
      vertex  2.203002e+000  5.003709e+000  0.000000e+000
      vertex  1.871589e+000  4.895639e+000  8.000000e-001
    endloop
  endfacet
  facet normal  3.100217e-001 -9.507295e-001  0.000000e+000
    outer loop
      vertex  1.871589e+000  4.895639e+000  8.000000e-001
      vertex  2.203002e+000  5.003709e+000  0.000000e+000
      vertex  2.203002e+000  5.003709e+000  8.000000e-001
    endloop
  endfacet
  facet normal  7.697639e-001 -6.383286e-001  0.000000e+000
    outer loop
      vertex  1.626632e+000  4.600244e+000  0.000000e+000
      vertex  1.871589e+000  4.895639e+000  0.000000e+000
      vertex  1.626632e+000  4.600244e+000  8.000000e-001
    endloop
  endfacet
  facet normal  7.697639e-001 -6.383286e-001  0.000000e+000
    outer loop
      vertex  1.626632e+000  4.600244e+000  8.000000e-001
      vertex  1.871589e+000  4.895639e+000  0.000000e+000
      vertex  1.871589e+000  4.895639e+000  8.000000e-001
    endloop
  endfacet
  facet normal  9.566729e-001 -2.911648e-001  0.000000e+000
    outer loop
      vertex  1.475334e+000  4.103128e+000  0.000000e+000
      vertex  1.626632e+000  4.600244e+000  0.000000e+000
      vertex  1.475334e+000  4.103128e+000  8.000000e-001
    endloop
  endfacet
  facet normal  9.566729e-001 -2.911648e-001  0.000000e+000
    outer loop
      vertex  1.475334e+000  4.103128e+000  8.000000e-001
      vertex  1.626632e+000  4.600244e+000  0.000000e+000
      vertex  1.626632e+000  4.600244e+000  8.000000e-001
    endloop
  endfacet
  facet normal  9.972965e-001 -7.348283e-002  0.000000e+000
    outer loop
      vertex  1.424903e+000  3.418687e+000  0.000000e+000
      vertex  1.475334e+000  4.103128e+000  0.000000e+000
      vertex  1.424903e+000  3.418687e+000  8.000000e-001
    endloop
  endfacet
  facet normal  9.972965e-001 -7.348283e-002  0.000000e+000
    outer loop
      vertex  1.424903e+000  3.418687e+000  8.000000e-001
      vertex  1.475334e+000  4.103128e+000  0.000000e+000
      vertex  1.475334e+000  4.103128e+000  8.000000e-001
    endloop
  endfacet
  facet normal  9.985422e-001  5.397610e-002  0.000000e+000
    outer loop
      vertex  1.468131e+000  2.618981e+000  0.000000e+000
      vertex  1.424903e+000  3.418687e+000  0.000000e+000
      vertex  1.468131e+000  2.618981e+000  8.000000e-001
    endloop
  endfacet
  facet normal  9.985422e-001  5.397610e-002  0.000000e+000
    outer loop
      vertex  1.468131e+000  2.618981e+000  8.000000e-001
      vertex  1.424903e+000  3.418687e+000  0.000000e+000
      vertex  1.424903e+000  3.418687e+000  8.000000e-001
    endloop
  endfacet
  facet normal  9.722762e-001  2.338359e-001  0.000000e+000
    outer loop
      vertex  1.605018e+000  2.049813e+000  0.000000e+000
      vertex  1.468131e+000  2.618981e+000  0.000000e+000
      vertex  1.605018e+000  2.049813e+000  8.000000e-001
    endloop
  endfacet
  facet normal  9.722762e-001  2.338359e-001  0.000000e+000
    outer loop
      vertex  1.605018e+000  2.049813e+000  8.000000e-001
      vertex  1.468131e+000  2.618981e+000  0.000000e+000
      vertex  1.468131e+000  2.618981e+000  8.000000e-001
    endloop
  endfacet
  facet normal  8.102227e-001  5.861221e-001  0.000000e+000
    outer loop
      vertex  1.849975e+000  1.711198e+000  0.000000e+000
      vertex  1.605018e+000  2.049813e+000  0.000000e+000
      vertex  1.849975e+000  1.711198e+000  8.000000e-001
    endloop
  endfacet
  facet normal  8.102227e-001  5.861221e-001  0.000000e+000
    outer loop
      vertex  1.849975e+000  1.711198e+000  8.000000e-001
      vertex  1.605018e+000  2.049813e+000  0.000000e+000
      vertex  1.605018e+000  2.049813e+000  8.000000e-001
    endloop
  endfacet
  facet normal  2.821705e-001  9.593642e-001  0.000000e+000
    outer loop
      vertex  2.217407e+000  1.603128e+000  0.000000e+000
      vertex  1.849975e+000  1.711198e+000  0.000000e+000
      vertex  2.217407e+000  1.603128e+000  8.000000e-001
    endloop
  endfacet
  facet normal  2.821705e-001  9.593642e-001  0.000000e+000
    outer loop
      vertex  2.217407e+000  1.603128e+000  8.000000e-001
      vertex  1.849975e+000  1.711198e+000  0.000000e+000
      vertex  1.849975e+000  1.711198e+000  8.000000e-001
    endloop
  endfacet
  facet normal -2.854806e-001  9.583845e-001  0.000000e+000
    outer loop
      vertex  2.556030e+000  1.703996e+000  0.000000e+000
      vertex  2.217407e+000  1.603128e+000  0.000000e+000
      vertex  2.556030e+000  1.703996e+000  8.000000e-001
    endloop
  endfacet
  facet normal -2.854806e-001  9.583845e-001  0.000000e+000
    outer loop
      vertex  2.556030e+000  1.703996e+000  8.000000e-001
      vertex  2.217407e+000  1.603128e+000  0.000000e+000
      vertex  2.217407e+000  1.603128e+000  8.000000e-001
    endloop
  endfacet
  facet normal -8.000045e-001  5.999938e-001  0.000000e+000
    outer loop
      vertex  2.793777e+000  2.020997e+000  0.000000e+000
      vertex  2.556030e+000  1.703996e+000  0.000000e+000
      vertex  2.793777e+000  2.020997e+000  8.000000e-001
    endloop
  endfacet
  facet normal -8.000045e-001  5.999938e-001  0.000000e+000
    outer loop
      vertex  2.793777e+000  2.020997e+000  8.000000e-001
      vertex  2.556030e+000  1.703996e+000  0.000000e+000
      vertex  2.556030e+000  1.703996e+000  8.000000e-001
    endloop
  endfacet
  facet normal -9.669009e-001  2.551521e-001  0.000000e+000
    outer loop
      vertex  2.930663e+000  2.539727e+000  0.000000e+000
      vertex  2.793777e+000  2.020997e+000  0.000000e+000
      vertex  2.930663e+000  2.539727e+000  8.000000e-001
    endloop
  endfacet
  facet normal -9.669009e-001  2.551521e-001  0.000000e+000
    outer loop
      vertex  2.930663e+000  2.539727e+000  8.000000e-001
      vertex  2.793777e+000  2.020997e+000  0.000000e+000
      vertex  2.793777e+000  2.020997e+000  8.000000e-001
    endloop
  endfacet
  facet normal -9.983075e-001  5.815594e-002  0.000000e+000
    outer loop
      vertex  2.973892e+000  3.281800e+000  0.000000e+000
      vertex  2.930663e+000  2.539727e+000  0.000000e+000
      vertex  2.973892e+000  3.281800e+000  8.000000e-001
    endloop
  endfacet
  facet normal -9.983075e-001  5.815594e-002  0.000000e+000
    outer loop
      vertex  2.973892e+000  3.281800e+000  8.000000e-001
      vertex  2.930663e+000  2.539727e+000  0.000000e+000
      vertex  2.930663e+000  2.539727e+000  8.000000e-001
    endloop
  endfacet
  facet normal -9.977427e-001 -6.715373e-002  0.000000e+000
    outer loop
      vertex  2.923461e+000  4.031083e+000  0.000000e+000
      vertex  2.973892e+000  3.281800e+000  0.000000e+000
      vertex  2.923461e+000  4.031083e+000  8.000000e-001
    endloop
  endfacet
  facet normal -9.977427e-001 -6.715373e-002  0.000000e+000
    outer loop
      vertex  2.923461e+000  4.031083e+000  8.000000e-001
      vertex  2.973892e+000  3.281800e+000  0.000000e+000
      vertex  2.973892e+000  3.281800e+000  8.000000e-001
    endloop
  endfacet
  facet normal -9.662366e-001 -2.576566e-001  0.000000e+000
    outer loop
      vertex  2.779373e+000  4.571427e+000  0.000000e+000
      vertex  2.923461e+000  4.031083e+000  0.000000e+000
      vertex  2.779373e+000  4.571427e+000  8.000000e-001
    endloop
  endfacet
  facet normal -9.662366e-001 -2.576566e-001  0.000000e+000
    outer loop
      vertex  2.779373e+000  4.571427e+000  8.000000e-001
      vertex  2.923461e+000  4.031083e+000  0.000000e+000
      vertex  2.923461e+000  4.031083e+000  8.000000e-001
    endloop
  endfacet
  facet normal -8.064055e-001 -5.913629e-001  0.000000e+000
    outer loop
      vertex  2.541618e+000  4.895639e+000  0.000000e+000
      vertex  2.779373e+000  4.571427e+000  0.000000e+000
      vertex  2.541618e+000  4.895639e+000  8.000000e-001
    endloop
  endfacet
  facet normal -8.064055e-001 -5.913629e-001  0.000000e+000
    outer loop
      vertex  2.541618e+000  4.895639e+000  8.000000e-001
      vertex  2.779373e+000  4.571427e+000  0.000000e+000
      vertex  2.779373e+000  4.571427e+000  8.000000e-001
    endloop
  endfacet
  facet normal -3.040427e-001 -9.526584e-001  0.000000e+000
    outer loop
      vertex  2.203002e+000  5.003709e+000  0.000000e+000
      vertex  2.541618e+000  4.895639e+000  0.000000e+000
      vertex  2.203002e+000  5.003709e+000  8.000000e-001
    endloop
  endfacet
  facet normal -3.040427e-001 -9.526584e-001  0.000000e+000
    outer loop
      vertex  2.203002e+000  5.003709e+000  8.000000e-001
      vertex  2.541618e+000  4.895639e+000  0.000000e+000
      vertex  2.541618e+000  4.895639e+000  8.000000e-001
    endloop
  endfacet
  facet normal -9.929698e-001  1.183680e-001  0.000000e+000
    outer loop
      vertex  4.811007e-001  4.434541e+000  8.000000e-001
      vertex  4.811007e-001  4.434541e+000  0.000000e+000
      vertex  3.514167e-001  3.346643e+000  8.000000e-001
    endloop
  endfacet
  facet normal -9.929698e-001  1.183680e-001  0.000000e+000
    outer loop
      vertex  3.514167e-001  3.346643e+000  8.000000e-001
      vertex  4.811007e-001  4.434541e+000  0.000000e+000
      vertex  3.514167e-001  3.346643e+000  0.000000e+000
    endloop
  endfacet
  facet normal -9.084311e-001  4.180348e-001  0.000000e+000
    outer loop
      vertex  8.557347e-001  5.248658e+000  8.000000e-001
      vertex  8.557347e-001  5.248658e+000  0.000000e+000
      vertex  4.811007e-001  4.434541e+000  8.000000e-001
    endloop
  endfacet
  facet normal -9.084311e-001  4.180348e-001  0.000000e+000
    outer loop
      vertex  4.811007e-001  4.434541e+000  8.000000e-001
      vertex  8.557347e-001  5.248658e+000  0.000000e+000
      vertex  4.811007e-001  4.434541e+000  0.000000e+000
    endloop
  endfacet
  facet normal -6.538615e-001  7.566143e-001  0.000000e+000
    outer loop
      vertex  1.439315e+000  5.752984e+000  0.000000e+000
      vertex  8.557347e-001  5.248658e+000  0.000000e+000
      vertex  1.439315e+000  5.752984e+000  8.000000e-001
    endloop
  endfacet
  facet normal -6.538615e-001  7.566143e-001  0.000000e+000
    outer loop
      vertex  1.439315e+000  5.752984e+000  8.000000e-001
      vertex  8.557347e-001  5.248658e+000  0.000000e+000
      vertex  8.557347e-001  5.248658e+000  8.000000e-001
    endloop
  endfacet
  facet normal -2.295509e-001  9.732966e-001  0.000000e+000
    outer loop
      vertex  2.203002e+000  5.933099e+000  0.000000e+000
      vertex  1.439315e+000  5.752984e+000  0.000000e+000
      vertex  2.203002e+000  5.933099e+000  8.000000e-001
    endloop
  endfacet
  facet normal -2.295509e-001  9.732966e-001  0.000000e+000
    outer loop
      vertex  2.203002e+000  5.933099e+000  8.000000e-001
      vertex  1.439315e+000  5.752984e+000  0.000000e+000
      vertex  1.439315e+000  5.752984e+000  8.000000e-001
    endloop
  endfacet
  facet normal  1.262475e-001  9.919987e-001  0.000000e+000
    outer loop
      vertex  2.599258e+000  5.882669e+000  0.000000e+000
      vertex  2.203002e+000  5.933099e+000  0.000000e+000
      vertex  2.599258e+000  5.882669e+000  8.000000e-001
    endloop
  endfacet
  facet normal  1.262475e-001  9.919987e-001  0.000000e+000
    outer loop
      vertex  2.599258e+000  5.882669e+000  8.000000e-001
      vertex  2.203002e+000  5.933099e+000  0.000000e+000
      vertex  2.203002e+000  5.933099e+000  8.000000e-001
    endloop
  endfacet
  facet normal  3.387252e-001  9.408854e-001  0.000000e+000
    outer loop
      vertex  2.959487e+000  5.752984e+000  0.000000e+000
      vertex  2.599258e+000  5.882669e+000  0.000000e+000
      vertex  2.959487e+000  5.752984e+000  8.000000e-001
    endloop
  endfacet
  facet normal  3.387252e-001  9.408854e-001  0.000000e+000
    outer loop
      vertex  2.959487e+000  5.752984e+000  8.000000e-001
      vertex  2.599258e+000  5.882669e+000  0.000000e+000
      vertex  2.599258e+000  5.882669e+000  8.000000e-001
    endloop
  endfacet
  facet normal  6.545819e-001  7.559910e-001  0.000000e+000
    outer loop
      vertex  3.550262e+000  5.241456e+000  0.000000e+000
      vertex  2.959487e+000  5.752984e+000  0.000000e+000
      vertex  3.550262e+000  5.241456e+000  8.000000e-001
    endloop
  endfacet
  facet normal  6.545819e-001  7.559910e-001  0.000000e+000
    outer loop
      vertex  3.550262e+000  5.241456e+000  8.000000e-001
      vertex  2.959487e+000  5.752984e+000  0.000000e+000
      vertex  2.959487e+000  5.752984e+000  8.000000e-001
    endloop
  endfacet
  facet normal  8.733604e-001  4.870746e-001  0.000000e+000
    outer loop
      vertex  3.759200e+000  4.866815e+000  0.000000e+000
      vertex  3.550262e+000  5.241456e+000  0.000000e+000
      vertex  3.759200e+000  4.866815e+000  8.000000e-001
    endloop
  endfacet
  facet normal  8.733604e-001  4.870746e-001  0.000000e+000
    outer loop
      vertex  3.759200e+000  4.866815e+000  8.000000e-001
      vertex  3.550262e+000  5.241456e+000  0.000000e+000
      vertex  3.550262e+000  5.241456e+000  8.000000e-001
    endloop
  endfacet
  facet normal  9.440914e-001  3.296836e-001  0.000000e+000
    outer loop
      vertex  3.917701e+000  4.412927e+000  0.000000e+000
      vertex  3.759200e+000  4.866815e+000  0.000000e+000
      vertex  3.917701e+000  4.412927e+000  8.000000e-001
    endloop
  endfacet
  facet normal  9.440914e-001  3.296836e-001  0.000000e+000
    outer loop
      vertex  3.917701e+000  4.412927e+000  8.000000e-001
      vertex  3.759200e+000  4.866815e+000  0.000000e+000
      vertex  3.759200e+000  4.866815e+000  8.000000e-001
    endloop
  endfacet
  facet normal  9.925707e-001  1.216695e-001  -0.000000e+000
    outer loop
      vertex  4.054588e+000  3.296212e+000  8.000000e-001
      vertex  4.054588e+000  3.296212e+000  0.000000e+000
      vertex  3.917701e+000  4.412927e+000  8.000000e-001
    endloop
  endfacet
  facet normal  9.925707e-001  1.216695e-001  0.000000e+000
    outer loop
      vertex  3.917701e+000  4.412927e+000  8.000000e-001
      vertex  4.054588e+000  3.296212e+000  0.000000e+000
      vertex  3.917701e+000  4.412927e+000  0.000000e+000
    endloop
  endfacet
  facet normal  9.926646e-001 -1.209013e-001  0.000000e+000
    outer loop
      vertex  3.917701e+000  2.172296e+000  8.000000e-001
      vertex  3.917701e+000  2.172296e+000  0.000000e+000
      vertex  4.054588e+000  3.296212e+000  8.000000e-001
    endloop
  endfacet
  facet normal  9.926646e-001 -1.209013e-001  0.000000e+000
    outer loop
      vertex  4.054588e+000  3.296212e+000  8.000000e-001
      vertex  3.917701e+000  2.172296e+000  0.000000e+000
      vertex  4.054588e+000  3.296212e+000  0.000000e+000
    endloop
  endfacet
  facet normal  9.141374e-001 -4.054045e-001  0.000000e+000
    outer loop
      vertex  3.550262e+000  1.343766e+000  8.000000e-001
      vertex  3.550262e+000  1.343766e+000  0.000000e+000
      vertex  3.917701e+000  2.172296e+000  8.000000e-001
    endloop
  endfacet
  facet normal  9.141374e-001 -4.054045e-001  0.000000e+000
    outer loop
      vertex  3.917701e+000  2.172296e+000  8.000000e-001
      vertex  3.550262e+000  1.343766e+000  0.000000e+000
      vertex  3.917701e+000  2.172296e+000  0.000000e+000
    endloop
  endfacet
  facet normal  6.545819e-001 -7.559912e-001  0.000000e+000
    outer loop
      vertex  2.959487e+000  8.322379e-001  0.000000e+000
      vertex  3.550262e+000  1.343766e+000  0.000000e+000
      vertex  2.959487e+000  8.322379e-001  8.000000e-001
    endloop
  endfacet
  facet normal  6.545819e-001 -7.559912e-001  0.000000e+000
    outer loop
      vertex  2.959487e+000  8.322379e-001  8.000000e-001
      vertex  3.550262e+000  1.343766e+000  0.000000e+000
      vertex  3.550262e+000  1.343766e+000  8.000000e-001
    endloop
  endfacet
  facet normal  2.228262e-001 -9.748582e-001  0.000000e+000
    outer loop
      vertex  2.203002e+000  6.593259e-001  0.000000e+000
      vertex  2.959487e+000  8.322379e-001  0.000000e+000
      vertex  2.203002e+000  6.593259e-001  8.000000e-001
    endloop
  endfacet
  facet normal  2.228262e-001 -9.748582e-001  0.000000e+000
    outer loop
      vertex  2.203002e+000  6.593259e-001  8.000000e-001
      vertex  2.959487e+000  8.322379e-001  0.000000e+000
      vertex  2.959487e+000  8.322379e-001  8.000000e-001
    endloop
  endfacet
  facet normal -2.188618e-001 -9.757559e-001  0.000000e+000
    outer loop
      vertex  1.432105e+000  8.322379e-001  0.000000e+000
      vertex  2.203002e+000  6.593259e-001  0.000000e+000
      vertex  1.432105e+000  8.322379e-001  8.000000e-001
    endloop
  endfacet
  facet normal -2.188618e-001 -9.757559e-001  0.000000e+000
    outer loop
      vertex  1.432105e+000  8.322379e-001  8.000000e-001
      vertex  2.203002e+000  6.593259e-001  0.000000e+000
      vertex  2.203002e+000  6.593259e-001  8.000000e-001
    endloop
  endfacet
  facet normal -6.643633e-001 -7.474098e-001  0.000000e+000
    outer loop
      vertex  8.485327e-001  1.350968e+000  0.000000e+000
      vertex  1.432105e+000  8.322379e-001  0.000000e+000
      vertex  8.485327e-001  1.350968e+000  8.000000e-001
    endloop
  endfacet
  facet normal -6.643633e-001 -7.474098e-001  0.000000e+000
    outer loop
      vertex  8.485327e-001  1.350968e+000  8.000000e-001
      vertex  1.432105e+000  8.322379e-001  0.000000e+000
      vertex  1.432105e+000  8.322379e-001  8.000000e-001
    endloop
  endfacet
  facet normal -9.138115e-001 -4.061385e-001  0.000000e+000
    outer loop
      vertex  4.738917e-001  2.193910e+000  8.000000e-001
      vertex  4.738917e-001  2.193910e+000  0.000000e+000
      vertex  8.485327e-001  1.350968e+000  8.000000e-001
    endloop
  endfacet
  facet normal -9.138115e-001 -4.061385e-001  -0.000000e+000
    outer loop
      vertex  8.485327e-001  1.350968e+000  8.000000e-001
      vertex  4.738917e-001  2.193910e+000  0.000000e+000
      vertex  8.485327e-001  1.350968e+000  0.000000e+000
    endloop
  endfacet
  facet normal -9.944031e-001 -1.056529e-001  0.000000e+000
    outer loop
      vertex  3.514167e-001  3.346643e+000  8.000000e-001
      vertex  3.514167e-001  3.346643e+000  0.000000e+000
      vertex  4.738917e-001  2.193910e+000  8.000000e-001
    endloop
  endfacet
  facet normal -9.944031e-001 -1.056529e-001  -0.000000e+000
    outer loop
      vertex  4.738917e-001  2.193910e+000  8.000000e-001
      vertex  3.514167e-001  3.346643e+000  0.000000e+000
      vertex  4.738917e-001  2.193910e+000  0.000000e+000
    endloop
  endfacet
  facet normal  3.100286e-001 -9.507272e-001  0.000000e+000
    outer loop
      vertex -2.465584e+000  4.895639e+000  0.000000e+000
      vertex -2.134179e+000  5.003709e+000  0.000000e+000
      vertex -2.465584e+000  4.895639e+000  8.000000e-001
    endloop
  endfacet
  facet normal  3.100286e-001 -9.507272e-001  0.000000e+000
    outer loop
      vertex -2.465584e+000  4.895639e+000  8.000000e-001
      vertex -2.134179e+000  5.003709e+000  0.000000e+000
      vertex -2.134179e+000  5.003709e+000  8.000000e-001
    endloop
  endfacet
  facet normal  7.697639e-001 -6.383286e-001  0.000000e+000
    outer loop
      vertex -2.710541e+000  4.600244e+000  0.000000e+000
      vertex -2.465584e+000  4.895639e+000  0.000000e+000
      vertex -2.710541e+000  4.600244e+000  8.000000e-001
    endloop
  endfacet
  facet normal  7.697639e-001 -6.383286e-001  0.000000e+000
    outer loop
      vertex -2.710541e+000  4.600244e+000  8.000000e-001
      vertex -2.465584e+000  4.895639e+000  0.000000e+000
      vertex -2.465584e+000  4.895639e+000  8.000000e-001
    endloop
  endfacet
  facet normal  9.566724e-001 -2.911665e-001  0.000000e+000
    outer loop
      vertex -2.861840e+000  4.103128e+000  0.000000e+000
      vertex -2.710541e+000  4.600244e+000  0.000000e+000
      vertex -2.861840e+000  4.103128e+000  8.000000e-001
    endloop
  endfacet
  facet normal  9.566724e-001 -2.911665e-001  0.000000e+000
    outer loop
      vertex -2.861840e+000  4.103128e+000  8.000000e-001
      vertex -2.710541e+000  4.600244e+000  0.000000e+000
      vertex -2.710541e+000  4.600244e+000  8.000000e-001
    endloop
  endfacet
  facet normal  9.972966e-001 -7.348146e-002  0.000000e+000
    outer loop
      vertex -2.912270e+000  3.418687e+000  0.000000e+000
      vertex -2.861840e+000  4.103128e+000  0.000000e+000
      vertex -2.912270e+000  3.418687e+000  8.000000e-001
    endloop
  endfacet
  facet normal  9.972966e-001 -7.348146e-002  0.000000e+000
    outer loop
      vertex -2.912270e+000  3.418687e+000  8.000000e-001
      vertex -2.861840e+000  4.103128e+000  0.000000e+000
      vertex -2.861840e+000  4.103128e+000  8.000000e-001
    endloop
  endfacet
  facet normal  9.985422e-001  5.397595e-002  0.000000e+000
    outer loop
      vertex -2.869042e+000  2.618981e+000  0.000000e+000
      vertex -2.912270e+000  3.418687e+000  0.000000e+000
      vertex -2.869042e+000  2.618981e+000  8.000000e-001
    endloop
  endfacet
  facet normal  9.985422e-001  5.397595e-002  0.000000e+000
    outer loop
      vertex -2.869042e+000  2.618981e+000  8.000000e-001
      vertex -2.912270e+000  3.418687e+000  0.000000e+000
      vertex -2.912270e+000  3.418687e+000  8.000000e-001
    endloop
  endfacet
  facet normal  9.722760e-001  2.338361e-001  0.000000e+000
    outer loop
      vertex -2.732155e+000  2.049813e+000  0.000000e+000
      vertex -2.869042e+000  2.618981e+000  0.000000e+000
      vertex -2.732155e+000  2.049813e+000  8.000000e-001
    endloop
  endfacet
  facet normal  9.722760e-001  2.338361e-001  0.000000e+000
    outer loop
      vertex -2.732155e+000  2.049813e+000  8.000000e-001
      vertex -2.869042e+000  2.618981e+000  0.000000e+000
      vertex -2.869042e+000  2.618981e+000  8.000000e-001
    endloop
  endfacet
  facet normal  8.102238e-001  5.861205e-001  0.000000e+000
    outer loop
      vertex -2.487199e+000  1.711198e+000  0.000000e+000
      vertex -2.732155e+000  2.049813e+000  0.000000e+000
      vertex -2.487199e+000  1.711198e+000  8.000000e-001
    endloop
  endfacet
  facet normal  8.102238e-001  5.861205e-001  0.000000e+000
    outer loop
      vertex -2.487199e+000  1.711198e+000  8.000000e-001
      vertex -2.732155e+000  2.049813e+000  0.000000e+000
      vertex -2.732155e+000  2.049813e+000  8.000000e-001
    endloop
  endfacet
  facet normal  2.821705e-001  9.593642e-001  0.000000e+000
    outer loop
      vertex -2.119767e+000  1.603128e+000  0.000000e+000
      vertex -2.487199e+000  1.711198e+000  0.000000e+000
      vertex -2.119767e+000  1.603128e+000  8.000000e-001
    endloop
  endfacet
  facet normal  2.821705e-001  9.593642e-001  0.000000e+000
    outer loop
      vertex -2.119767e+000  1.603128e+000  8.000000e-001
      vertex -2.487199e+000  1.711198e+000  0.000000e+000
      vertex -2.487199e+000  1.711198e+000  8.000000e-001
    endloop
  endfacet
  facet normal -2.854862e-001  9.583828e-001  0.000000e+000
    outer loop
      vertex -1.781151e+000  1.703996e+000  0.000000e+000
      vertex -2.119767e+000  1.603128e+000  0.000000e+000
      vertex -1.781151e+000  1.703996e+000  8.000000e-001
    endloop
  endfacet
  facet normal -2.854862e-001  9.583828e-001  0.000000e+000
    outer loop
      vertex -1.781151e+000  1.703996e+000  8.000000e-001
      vertex -2.119767e+000  1.603128e+000  0.000000e+000
      vertex -2.119767e+000  1.603128e+000  8.000000e-001
    endloop
  endfacet
  facet normal -7.999961e-001  6.000052e-001  0.000000e+000
    outer loop
      vertex -1.543397e+000  2.020997e+000  0.000000e+000
      vertex -1.781151e+000  1.703996e+000  0.000000e+000
      vertex -1.543397e+000  2.020997e+000  8.000000e-001
    endloop
  endfacet
  facet normal -7.999961e-001  6.000052e-001  0.000000e+000
    outer loop
      vertex -1.543397e+000  2.020997e+000  8.000000e-001
      vertex -1.781151e+000  1.703996e+000  0.000000e+000
      vertex -1.781151e+000  1.703996e+000  8.000000e-001
    endloop
  endfacet
  facet normal -9.669005e-001  2.551540e-001  0.000000e+000
    outer loop
      vertex -1.406510e+000  2.539727e+000  0.000000e+000
      vertex -1.543397e+000  2.020997e+000  0.000000e+000
      vertex -1.406510e+000  2.539727e+000  8.000000e-001
    endloop
  endfacet
  facet normal -9.669005e-001  2.551540e-001  0.000000e+000
    outer loop
      vertex -1.406510e+000  2.539727e+000  8.000000e-001
      vertex -1.543397e+000  2.020997e+000  0.000000e+000
      vertex -1.543397e+000  2.020997e+000  8.000000e-001
    endloop
  endfacet
  facet normal -9.983075e-001  5.815449e-002  0.000000e+000
    outer loop
      vertex -1.363282e+000  3.281800e+000  0.000000e+000
      vertex -1.406510e+000  2.539727e+000  0.000000e+000
      vertex -1.363282e+000  3.281800e+000  8.000000e-001
    endloop
  endfacet
  facet normal -9.983075e-001  5.815449e-002  0.000000e+000
    outer loop
      vertex -1.363282e+000  3.281800e+000  8.000000e-001
      vertex -1.406510e+000  2.539727e+000  0.000000e+000
      vertex -1.406510e+000  2.539727e+000  8.000000e-001
    endloop
  endfacet
  facet normal -9.977427e-001 -6.715231e-002  0.000000e+000
    outer loop
      vertex -1.413712e+000  4.031083e+000  0.000000e+000
      vertex -1.363282e+000  3.281800e+000  0.000000e+000
      vertex -1.413712e+000  4.031083e+000  8.000000e-001
    endloop
  endfacet
  facet normal -9.977427e-001 -6.715231e-002  0.000000e+000
    outer loop
      vertex -1.413712e+000  4.031083e+000  8.000000e-001
      vertex -1.363282e+000  3.281800e+000  0.000000e+000
      vertex -1.363282e+000  3.281800e+000  8.000000e-001
    endloop
  endfacet
  facet normal -9.662325e-001 -2.576717e-001  0.000000e+000
    outer loop
      vertex -1.557809e+000  4.571427e+000  0.000000e+000
      vertex -1.413712e+000  4.031083e+000  0.000000e+000
      vertex -1.557809e+000  4.571427e+000  8.000000e-001
    endloop
  endfacet
  facet normal -9.662325e-001 -2.576717e-001  0.000000e+000
    outer loop
      vertex -1.557809e+000  4.571427e+000  8.000000e-001
      vertex -1.413712e+000  4.031083e+000  0.000000e+000
      vertex -1.413712e+000  4.031083e+000  8.000000e-001
    endloop
  endfacet
  facet normal -8.064152e-001 -5.913498e-001  0.000000e+000
    outer loop
      vertex -1.795556e+000  4.895639e+000  0.000000e+000
      vertex -1.557809e+000  4.571427e+000  0.000000e+000
      vertex -1.795556e+000  4.895639e+000  8.000000e-001
    endloop
  endfacet
  facet normal -8.064152e-001 -5.913498e-001  0.000000e+000
    outer loop
      vertex -1.795556e+000  4.895639e+000  8.000000e-001
      vertex -1.557809e+000  4.571427e+000  0.000000e+000
      vertex -1.557809e+000  4.571427e+000  8.000000e-001
    endloop
  endfacet
  facet normal -3.040369e-001 -9.526603e-001  0.000000e+000
    outer loop
      vertex -2.134179e+000  5.003709e+000  0.000000e+000
      vertex -1.795556e+000  4.895639e+000  0.000000e+000
      vertex -2.134179e+000  5.003709e+000  8.000000e-001
    endloop
  endfacet
  facet normal -3.040369e-001 -9.526603e-001  0.000000e+000
    outer loop
      vertex -2.134179e+000  5.003709e+000  8.000000e-001
      vertex -1.795556e+000  4.895639e+000  0.000000e+000
      vertex -1.795556e+000  4.895639e+000  8.000000e-001
    endloop
  endfacet
  facet normal -9.929698e-001  1.183680e-001  0.000000e+000
    outer loop
      vertex -3.856080e+000  4.434541e+000  8.000000e-001
      vertex -3.856080e+000  4.434541e+000  0.000000e+000
      vertex -3.985764e+000  3.346643e+000  8.000000e-001
    endloop
  endfacet
  facet normal -9.929698e-001  1.183680e-001  0.000000e+000
    outer loop
      vertex -3.985764e+000  3.346643e+000  8.000000e-001
      vertex -3.856080e+000  4.434541e+000  0.000000e+000
      vertex -3.985764e+000  3.346643e+000  0.000000e+000
    endloop
  endfacet
  facet normal -9.084277e-001  4.180420e-001  0.000000e+000
    outer loop
      vertex -3.481438e+000  5.248658e+000  8.000000e-001
      vertex -3.481438e+000  5.248658e+000  0.000000e+000
      vertex -3.856080e+000  4.434541e+000  8.000000e-001
    endloop
  endfacet
  facet normal -9.084277e-001  4.180420e-001  0.000000e+000
    outer loop
      vertex -3.856080e+000  4.434541e+000  8.000000e-001
      vertex -3.481438e+000  5.248658e+000  0.000000e+000
      vertex -3.856080e+000  4.434541e+000  0.000000e+000
    endloop
  endfacet
  facet normal -6.538665e-001  7.566099e-001  0.000000e+000
    outer loop
      vertex -2.897866e+000  5.752984e+000  0.000000e+000
      vertex -3.481438e+000  5.248658e+000  0.000000e+000
      vertex -2.897866e+000  5.752984e+000  8.000000e-001
    endloop
  endfacet
  facet normal -6.538665e-001  7.566099e-001  0.000000e+000
    outer loop
      vertex -2.897866e+000  5.752984e+000  8.000000e-001
      vertex -3.481438e+000  5.248658e+000  0.000000e+000
      vertex -3.481438e+000  5.248658e+000  8.000000e-001
    endloop
  endfacet
  facet normal -2.295510e-001  9.732966e-001  0.000000e+000
    outer loop
      vertex -2.134179e+000  5.933099e+000  0.000000e+000
      vertex -2.897866e+000  5.752984e+000  0.000000e+000
      vertex -2.134179e+000  5.933099e+000  8.000000e-001
    endloop
  endfacet
  facet normal -2.295510e-001  9.732966e-001  0.000000e+000
    outer loop
      vertex -2.134179e+000  5.933099e+000  8.000000e-001
      vertex -2.897866e+000  5.752984e+000  0.000000e+000
      vertex -2.897866e+000  5.752984e+000  8.000000e-001
    endloop
  endfacet
  facet normal  1.262475e-001  9.919987e-001  0.000000e+000
    outer loop
      vertex -1.737923e+000  5.882669e+000  0.000000e+000
      vertex -2.134179e+000  5.933099e+000  0.000000e+000
      vertex -1.737923e+000  5.882669e+000  8.000000e-001
    endloop
  endfacet
  facet normal  1.262475e-001  9.919987e-001  0.000000e+000
    outer loop
      vertex -1.737923e+000  5.882669e+000  8.000000e-001
      vertex -2.134179e+000  5.933099e+000  0.000000e+000
      vertex -2.134179e+000  5.933099e+000  8.000000e-001
    endloop
  endfacet
  facet normal  3.387252e-001  9.408854e-001  0.000000e+000
    outer loop
      vertex -1.377694e+000  5.752984e+000  0.000000e+000
      vertex -1.737923e+000  5.882669e+000  0.000000e+000
      vertex -1.377694e+000  5.752984e+000  8.000000e-001
    endloop
  endfacet
  facet normal  3.387252e-001  9.408854e-001  0.000000e+000
    outer loop
      vertex -1.377694e+000  5.752984e+000  8.000000e-001
      vertex -1.737923e+000  5.882669e+000  0.000000e+000
      vertex -1.737923e+000  5.882669e+000  8.000000e-001
    endloop
  endfacet
  facet normal  6.545776e-001  7.559949e-001  0.000000e+000
    outer loop
      vertex -7.869123e-001  5.241456e+000  0.000000e+000
      vertex -1.377694e+000  5.752984e+000  0.000000e+000
      vertex -7.869123e-001  5.241456e+000  8.000000e-001
    endloop
  endfacet
  facet normal  6.545776e-001  7.559949e-001  0.000000e+000
    outer loop
      vertex -7.869123e-001  5.241456e+000  8.000000e-001
      vertex -1.377694e+000  5.752984e+000  0.000000e+000
      vertex -1.377694e+000  5.752984e+000  8.000000e-001
    endloop
  endfacet
  facet normal  8.733672e-001  4.870624e-001  0.000000e+000
    outer loop
      vertex -5.779813e-001  4.866815e+000  0.000000e+000
      vertex -7.869123e-001  5.241456e+000  0.000000e+000
      vertex -5.779813e-001  4.866815e+000  8.000000e-001
    endloop
  endfacet
  facet normal  8.733672e-001  4.870624e-001  0.000000e+000
    outer loop
      vertex -5.779813e-001  4.866815e+000  8.000000e-001
      vertex -7.869123e-001  5.241456e+000  0.000000e+000
      vertex -7.869123e-001  5.241456e+000  8.000000e-001
    endloop
  endfacet
  facet normal  9.440916e-001  3.296834e-001  0.000000e+000
    outer loop
      vertex -4.194803e-001  4.412927e+000  0.000000e+000
      vertex -5.779813e-001  4.866815e+000  0.000000e+000
      vertex -4.194803e-001  4.412927e+000  8.000000e-001
    endloop
  endfacet
  facet normal  9.440916e-001  3.296834e-001  0.000000e+000
    outer loop
      vertex -4.194803e-001  4.412927e+000  8.000000e-001
      vertex -5.779813e-001  4.866815e+000  0.000000e+000
      vertex -5.779813e-001  4.866815e+000  8.000000e-001
    endloop
  endfacet
  facet normal  9.925707e-001  1.216694e-001  -0.000000e+000
    outer loop
      vertex -2.825933e-001  3.296212e+000  8.000000e-001
      vertex -2.825933e-001  3.296212e+000  0.000000e+000
      vertex -4.194803e-001  4.412927e+000  8.000000e-001
    endloop
  endfacet
  facet normal  9.925707e-001  1.216694e-001  0.000000e+000
    outer loop
      vertex -4.194803e-001  4.412927e+000  8.000000e-001
      vertex -2.825933e-001  3.296212e+000  0.000000e+000
      vertex -4.194803e-001  4.412927e+000  0.000000e+000
    endloop
  endfacet
  facet normal  9.926646e-001 -1.209012e-001  0.000000e+000
    outer loop
      vertex -4.194803e-001  2.172296e+000  8.000000e-001
      vertex -4.194803e-001  2.172296e+000  0.000000e+000
      vertex -2.825933e-001  3.296212e+000  8.000000e-001
    endloop
  endfacet
  facet normal  9.926646e-001 -1.209012e-001  0.000000e+000
    outer loop
      vertex -2.825933e-001  3.296212e+000  8.000000e-001
      vertex -4.194803e-001  2.172296e+000  0.000000e+000
      vertex -2.825933e-001  3.296212e+000  0.000000e+000
    endloop
  endfacet
  facet normal  9.141403e-001 -4.053980e-001  0.000000e+000
    outer loop
      vertex -7.869123e-001  1.343766e+000  8.000000e-001
      vertex -7.869123e-001  1.343766e+000  0.000000e+000
      vertex -4.194803e-001  2.172296e+000  8.000000e-001
    endloop
  endfacet
  facet normal  9.141403e-001 -4.053980e-001  0.000000e+000
    outer loop
      vertex -4.194803e-001  2.172296e+000  8.000000e-001
      vertex -7.869123e-001  1.343766e+000  0.000000e+000
      vertex -4.194803e-001  2.172296e+000  0.000000e+000
    endloop
  endfacet
  facet normal  6.545775e-001 -7.559950e-001  0.000000e+000
    outer loop
      vertex -1.377694e+000  8.322379e-001  0.000000e+000
      vertex -7.869123e-001  1.343766e+000  0.000000e+000
      vertex -1.377694e+000  8.322379e-001  8.000000e-001
    endloop
  endfacet
  facet normal  6.545775e-001 -7.559950e-001  0.000000e+000
    outer loop
      vertex -1.377694e+000  8.322379e-001  8.000000e-001
      vertex -7.869123e-001  1.343766e+000  0.000000e+000
      vertex -7.869123e-001  1.343766e+000  8.000000e-001
    endloop
  endfacet
  facet normal  2.228262e-001 -9.748582e-001  0.000000e+000
    outer loop
      vertex -2.134179e+000  6.593259e-001  0.000000e+000
      vertex -1.377694e+000  8.322379e-001  0.000000e+000
      vertex -2.134179e+000  6.593259e-001  8.000000e-001
    endloop
  endfacet
  facet normal  2.228262e-001 -9.748582e-001  0.000000e+000
    outer loop
      vertex -2.134179e+000  6.593259e-001  8.000000e-001
      vertex -1.377694e+000  8.322379e-001  0.000000e+000
      vertex -1.377694e+000  8.322379e-001  8.000000e-001
    endloop
  endfacet
  facet normal -2.188639e-001 -9.757554e-001  0.000000e+000
    outer loop
      vertex -2.905068e+000  8.322379e-001  0.000000e+000
      vertex -2.134179e+000  6.593259e-001  0.000000e+000
      vertex -2.905068e+000  8.322379e-001  8.000000e-001
    endloop
  endfacet
  facet normal -2.188639e-001 -9.757554e-001  0.000000e+000
    outer loop
      vertex -2.905068e+000  8.322379e-001  8.000000e-001
      vertex -2.134179e+000  6.593259e-001  0.000000e+000
      vertex -2.134179e+000  6.593259e-001  8.000000e-001
    endloop
  endfacet
  facet normal -6.643634e-001 -7.474097e-001  0.000000e+000
    outer loop
      vertex -3.488640e+000  1.350968e+000  0.000000e+000
      vertex -2.905068e+000  8.322379e-001  0.000000e+000
      vertex -3.488640e+000  1.350968e+000  8.000000e-001
    endloop
  endfacet
  facet normal -6.643634e-001 -7.474097e-001  0.000000e+000
    outer loop
      vertex -3.488640e+000  1.350968e+000  8.000000e-001
      vertex -2.905068e+000  8.322379e-001  0.000000e+000
      vertex -2.905068e+000  8.322379e-001  8.000000e-001
    endloop
  endfacet
  facet normal -9.138111e-001 -4.061394e-001  0.000000e+000
    outer loop
      vertex -3.863282e+000  2.193910e+000  8.000000e-001
      vertex -3.863282e+000  2.193910e+000  0.000000e+000
      vertex -3.488640e+000  1.350968e+000  8.000000e-001
    endloop
  endfacet
  facet normal -9.138111e-001 -4.061394e-001  -0.000000e+000
    outer loop
      vertex -3.488640e+000  1.350968e+000  8.000000e-001
      vertex -3.863282e+000  2.193910e+000  0.000000e+000
      vertex -3.488640e+000  1.350968e+000  0.000000e+000
    endloop
  endfacet
  facet normal -9.944025e-001 -1.056589e-001  0.000000e+000
    outer loop
      vertex -3.985764e+000  3.346643e+000  8.000000e-001
      vertex -3.985764e+000  3.346643e+000  0.000000e+000
      vertex -3.863282e+000  2.193910e+000  8.000000e-001
    endloop
  endfacet
  facet normal -9.944025e-001 -1.056589e-001  -0.000000e+000
    outer loop
      vertex -3.863282e+000  2.193910e+000  8.000000e-001
      vertex -3.985764e+000  3.346643e+000  0.000000e+000
      vertex -3.863282e+000  2.193910e+000  0.000000e+000
    endloop
  endfacet
  facet normal  0.000000e+000  1.000000e+000  -0.000000e+000
    outer loop
      vertex -4.742242e+000  5.796212e+000  8.000000e-001
      vertex -4.742242e+000  5.796212e+000  0.000000e+000
      vertex -8.005937e+000  5.796212e+000  8.000000e-001
    endloop
  endfacet
  facet normal  0.000000e+000  1.000000e+000  0.000000e+000
    outer loop
      vertex -8.005937e+000  5.796212e+000  8.000000e-001
      vertex -4.742242e+000  5.796212e+000  0.000000e+000
      vertex -8.005937e+000  5.796212e+000  0.000000e+000
    endloop
  endfacet
  facet normal  1.000000e+000  0.000000e+000  0.000000e+000
    outer loop
      vertex -4.742242e+000  4.845201e+000  8.000000e-001
      vertex -4.742242e+000  4.845201e+000  0.000000e+000
      vertex -4.742242e+000  5.796212e+000  8.000000e-001
    endloop
  endfacet
  facet normal  1.000000e+000  0.000000e+000  0.000000e+000
    outer loop
      vertex -4.742242e+000  5.796212e+000  8.000000e-001
      vertex -4.742242e+000  4.845201e+000  0.000000e+000
      vertex -4.742242e+000  5.796212e+000  0.000000e+000
    endloop
  endfacet
  facet normal  0.000000e+000 -1.000000e+000  0.000000e+000
    outer loop
      vertex -6.975671e+000  4.845201e+000  8.000000e-001
      vertex -6.975671e+000  4.845201e+000  0.000000e+000
      vertex -4.742242e+000  4.845201e+000  8.000000e-001
    endloop
  endfacet
  facet normal  0.000000e+000 -1.000000e+000  -0.000000e+000
    outer loop
      vertex -4.742242e+000  4.845201e+000  8.000000e-001
      vertex -6.975671e+000  4.845201e+000  0.000000e+000
      vertex -4.742242e+000  4.845201e+000  0.000000e+000
    endloop
  endfacet
  facet normal  1.000000e+000  0.000000e+000  0.000000e+000
    outer loop
      vertex -6.975671e+000  3.850968e+000  8.000000e-001
      vertex -6.975671e+000  3.850968e+000  0.000000e+000
      vertex -6.975671e+000  4.845201e+000  8.000000e-001
    endloop
  endfacet
  facet normal  1.000000e+000  0.000000e+000  0.000000e+000
    outer loop
      vertex -6.975671e+000  4.845201e+000  8.000000e-001
      vertex -6.975671e+000  3.850968e+000  0.000000e+000
      vertex -6.975671e+000  4.845201e+000  0.000000e+000
    endloop
  endfacet
  facet normal  0.000000e+000  1.000000e+000  -0.000000e+000
    outer loop
      vertex -5.181726e+000  3.850968e+000  8.000000e-001
      vertex -5.181726e+000  3.850968e+000  0.000000e+000
      vertex -6.975671e+000  3.850968e+000  8.000000e-001
    endloop
  endfacet
  facet normal  0.000000e+000  1.000000e+000  0.000000e+000
    outer loop
      vertex -6.975671e+000  3.850968e+000  8.000000e-001
      vertex -5.181726e+000  3.850968e+000  0.000000e+000
      vertex -6.975671e+000  3.850968e+000  0.000000e+000
    endloop
  endfacet
  facet normal  1.000000e+000  0.000000e+000  0.000000e+000
    outer loop
      vertex -5.181726e+000  2.892755e+000  8.000000e-001
      vertex -5.181726e+000  2.892755e+000  0.000000e+000
      vertex -5.181726e+000  3.850968e+000  8.000000e-001
    endloop
  endfacet
  facet normal  1.000000e+000  0.000000e+000  0.000000e+000
    outer loop
      vertex -5.181726e+000  3.850968e+000  8.000000e-001
      vertex -5.181726e+000  2.892755e+000  0.000000e+000
      vertex -5.181726e+000  3.850968e+000  0.000000e+000
    endloop
  endfacet
  facet normal  0.000000e+000 -1.000000e+000  0.000000e+000
    outer loop
      vertex -6.968468e+000  2.892755e+000  8.000000e-001
      vertex -6.968468e+000  2.892755e+000  0.000000e+000
      vertex -5.181726e+000  2.892755e+000  8.000000e-001
    endloop
  endfacet
  facet normal  0.000000e+000 -1.000000e+000  -0.000000e+000
    outer loop
      vertex -5.181726e+000  2.892755e+000  8.000000e-001
      vertex -6.968468e+000  2.892755e+000  0.000000e+000
      vertex -5.181726e+000  2.892755e+000  0.000000e+000
    endloop
  endfacet
  facet normal  9.999999e-001  0.000000e+000  0.000000e+000
    outer loop
      vertex -6.968468e+000  7.962119e-001  8.000000e-001
      vertex -6.968468e+000  7.962119e-001  0.000000e+000
      vertex -6.968468e+000  2.892755e+000  8.000000e-001
    endloop
  endfacet
  facet normal  9.999999e-001  0.000000e+000  0.000000e+000
    outer loop
      vertex -6.968468e+000  2.892755e+000  8.000000e-001
      vertex -6.968468e+000  7.962119e-001  0.000000e+000
      vertex -6.968468e+000  2.892755e+000  0.000000e+000
    endloop
  endfacet
  facet normal  0.000000e+000 -1.000000e+000  0.000000e+000
    outer loop
      vertex -8.005937e+000  7.962119e-001  8.000000e-001
      vertex -8.005937e+000  7.962119e-001  0.000000e+000
      vertex -6.968468e+000  7.962119e-001  8.000000e-001
    endloop
  endfacet
  facet normal  0.000000e+000 -1.000000e+000  -0.000000e+000
    outer loop
      vertex -6.968468e+000  7.962119e-001  8.000000e-001
      vertex -8.005937e+000  7.962119e-001  0.000000e+000
      vertex -6.968468e+000  7.962119e-001  0.000000e+000
    endloop
  endfacet
  facet normal -1.000000e+000  0.000000e+000  0.000000e+000
    outer loop
      vertex -8.005937e+000  5.796212e+000  8.000000e-001
      vertex -8.005937e+000  5.796212e+000  0.000000e+000
      vertex -8.005937e+000  7.962119e-001  8.000000e-001
    endloop
  endfacet
  facet normal -1.000000e+000  0.000000e+000  0.000000e+000
    outer loop
      vertex -8.005937e+000  7.962119e-001  8.000000e-001
      vertex -8.005937e+000  5.796212e+000  0.000000e+000
      vertex -8.005937e+000  7.962119e-001  0.000000e+000
    endloop
  endfacet
  facet normal  -0.000000e+000  0.000000e+000 -1.000000e+000
    outer loop
      vertex -8.360696e+000  6.451479e+000 -1.000000e+000
      vertex  8.716835e+000  6.451479e+000 -1.000000e+000
      vertex -8.360696e+000 -5.890369e-002 -1.000000e+000
    endloop
  endfacet
  facet normal  0.000000e+000  0.000000e+000 -1.000000e+000
    outer loop
      vertex -8.360696e+000 -5.890369e-002 -1.000000e+000
      vertex  8.716835e+000  6.451479e+000 -1.000000e+000
      vertex  8.716835e+000 -5.890369e-002 -1.000000e+000
    endloop
  endfacet
  facet normal  0.000000e+000 -1.000000e+000  0.000000e+000
    outer loop
      vertex -8.360696e+000 -5.890369e-002 -1.000000e+000
      vertex  8.716835e+000 -5.890369e-002 -1.000000e+000
      vertex -8.360696e+000 -5.890369e-002  0.000000e+000
    endloop
  endfacet
  facet normal  0.000000e+000 -1.000000e+000  0.000000e+000
    outer loop
      vertex -8.360696e+000 -5.890369e-002  0.000000e+000
      vertex  8.716835e+000 -5.890369e-002 -1.000000e+000
      vertex  8.716835e+000 -5.890369e-002  0.000000e+000
    endloop
  endfacet
  facet normal  1.000000e+000  0.000000e+000  0.000000e+000
    outer loop
      vertex  8.716835e+000  6.451479e+000 -1.000000e+000
      vertex  8.716835e+000  6.451479e+000  0.000000e+000
      vertex  8.716835e+000 -5.890369e-002 -1.000000e+000
    endloop
  endfacet
  facet normal  1.000000e+000  0.000000e+000  0.000000e+000
    outer loop
      vertex  8.716835e+000 -5.890369e-002 -1.000000e+000
      vertex  8.716835e+000  6.451479e+000  0.000000e+000
      vertex  8.716835e+000 -5.890369e-002  0.000000e+000
    endloop
  endfacet
  facet normal  0.000000e+000  1.000000e+000  0.000000e+000
    outer loop
      vertex  8.716835e+000  6.451479e+000 -1.000000e+000
      vertex -8.360696e+000  6.451479e+000 -1.000000e+000
      vertex  8.716835e+000  6.451479e+000  0.000000e+000
    endloop
  endfacet
  facet normal  0.000000e+000  1.000000e+000  0.000000e+000
    outer loop
      vertex  8.716835e+000  6.451479e+000  0.000000e+000
      vertex -8.360696e+000  6.451479e+000 -1.000000e+000
      vertex -8.360696e+000  6.451479e+000  0.000000e+000
    endloop
  endfacet
  facet normal -1.000000e+000  0.000000e+000  0.000000e+000
    outer loop
      vertex -8.360696e+000 -5.890369e-002 -1.000000e+000
      vertex -8.360696e+000 -5.890369e-002  0.000000e+000
      vertex -8.360696e+000  6.451479e+000 -1.000000e+000
    endloop
  endfacet
  facet normal -1.000000e+000  0.000000e+000  0.000000e+000
    outer loop
      vertex -8.360696e+000  6.451479e+000 -1.000000e+000
      vertex -8.360696e+000 -5.890369e-002  0.000000e+000
      vertex -8.360696e+000  6.451479e+000  0.000000e+000
    endloop
  endfacet
  facet normal  -0.000000e+000  0.000000e+000  1.000000e+000
    outer loop
      vertex  8.384559e+000  5.796212e+000  8.000000e-001
      vertex  4.688590e+000  5.796212e+000  8.000000e-001
      vertex  4.688590e+000  4.845201e+000  8.000000e-001
    endloop
  endfacet
  facet normal  0.000000e+000  0.000000e+000  9.999999e-001
    outer loop
      vertex  8.384559e+000  5.796212e+000  8.000000e-001
      vertex  4.688590e+000  4.845201e+000  8.000000e-001
      vertex  6.014243e+000  4.845201e+000  8.000000e-001
    endloop
  endfacet
  facet normal  0.000000e+000  0.000000e+000  1.000000e+000
    outer loop
      vertex  8.384559e+000  5.796212e+000  8.000000e-001
      vertex  6.014243e+000  4.845201e+000  8.000000e-001
      vertex  7.058906e+000  4.845201e+000  8.000000e-001
    endloop
  endfacet
  facet normal  0.000000e+000  0.000000e+000  9.999999e-001
    outer loop
      vertex  8.384559e+000  5.796212e+000  8.000000e-001
      vertex  7.058906e+000  4.845201e+000  8.000000e-001
      vertex  8.384559e+000  4.845201e+000  8.000000e-001
    endloop
  endfacet
  facet normal  0.000000e+000  0.000000e+000  1.000000e+000
    outer loop
      vertex  6.014243e+000  7.962119e-001  8.000000e-001
      vertex  7.058906e+000  7.962119e-001  8.000000e-001
      vertex  6.014243e+000  4.845201e+000  8.000000e-001
    endloop
  endfacet
  facet normal  -0.000000e+000  0.000000e+000  1.000000e+000
    outer loop
      vertex  6.014243e+000  4.845201e+000  8.000000e-001
      vertex  7.058906e+000  7.962119e-001  8.000000e-001
      vertex  7.058906e+000  4.845201e+000  8.000000e-001
    endloop
  endfacet
  facet normal  0.000000e+000  0.000000e+000  1.000000e+000
    outer loop
      vertex  1.475334e+000  4.103128e+000  8.000000e-001
      vertex  3.514167e-001  3.346643e+000  8.000000e-001
      vertex  1.424903e+000  3.418687e+000  8.000000e-001
    endloop
  endfacet
  facet normal  0.000000e+000  0.000000e+000  1.000000e+000
    outer loop
      vertex  2.959487e+000  8.322379e-001  8.000000e-001
      vertex  3.550262e+000  1.343766e+000  8.000000e-001
      vertex  2.203002e+000  6.593259e-001  8.000000e-001
    endloop
  endfacet
  facet normal  0.000000e+000  0.000000e+000  1.000000e+000
    outer loop
      vertex  2.203002e+000  6.593259e-001  8.000000e-001
      vertex  3.550262e+000  1.343766e+000  8.000000e-001
      vertex  2.217407e+000  1.603128e+000  8.000000e-001
    endloop
  endfacet
  facet normal  0.000000e+000  0.000000e+000  1.000000e+000
    outer loop
      vertex  2.203002e+000  6.593259e-001  8.000000e-001
      vertex  2.217407e+000  1.603128e+000  8.000000e-001
      vertex  1.432105e+000  8.322379e-001  8.000000e-001
    endloop
  endfacet
  facet normal  0.000000e+000  0.000000e+000  9.999999e-001
    outer loop
      vertex  1.432105e+000  8.322379e-001  8.000000e-001
      vertex  2.217407e+000  1.603128e+000  8.000000e-001
      vertex  1.849975e+000  1.711198e+000  8.000000e-001
    endloop
  endfacet
  facet normal  0.000000e+000  0.000000e+000  1.000000e+000
    outer loop
      vertex  1.432105e+000  8.322379e-001  8.000000e-001
      vertex  1.849975e+000  1.711198e+000  8.000000e-001
      vertex  8.485327e-001  1.350968e+000  8.000000e-001
    endloop
  endfacet
  facet normal  0.000000e+000  -0.000000e+000  9.999999e-001
    outer loop
      vertex  1.439315e+000  5.752984e+000  8.000000e-001
      vertex  1.871589e+000  4.895639e+000  8.000000e-001
      vertex  2.203002e+000  5.933099e+000  8.000000e-001
    endloop
  endfacet
  facet normal  0.000000e+000  0.000000e+000  1.000000e+000
    outer loop
      vertex  2.203002e+000  5.933099e+000  8.000000e-001
      vertex  1.871589e+000  4.895639e+000  8.000000e-001
      vertex  2.203002e+000  5.003709e+000  8.000000e-001
    endloop
  endfacet
  facet normal  0.000000e+000  0.000000e+000  1.000000e+000
    outer loop
      vertex  2.203002e+000  5.933099e+000  8.000000e-001
      vertex  2.203002e+000  5.003709e+000  8.000000e-001
      vertex  2.599258e+000  5.882669e+000  8.000000e-001
    endloop
  endfacet
  facet normal  0.000000e+000  0.000000e+000  1.000000e+000
    outer loop
      vertex  3.514167e-001  3.346643e+000  8.000000e-001
      vertex  1.475334e+000  4.103128e+000  8.000000e-001
      vertex  4.811007e-001  4.434541e+000  8.000000e-001
    endloop
  endfacet
  facet normal  -0.000000e+000  0.000000e+000  1.000000e+000
    outer loop
      vertex  4.811007e-001  4.434541e+000  8.000000e-001
      vertex  1.475334e+000  4.103128e+000  8.000000e-001
      vertex  1.626632e+000  4.600244e+000  8.000000e-001
    endloop
  endfacet
  facet normal  0.000000e+000  0.000000e+000  1.000000e+000
    outer loop
      vertex  4.811007e-001  4.434541e+000  8.000000e-001
      vertex  1.626632e+000  4.600244e+000  8.000000e-001
      vertex  8.557347e-001  5.248658e+000  8.000000e-001
    endloop
  endfacet
  facet normal  0.000000e+000  0.000000e+000  1.000000e+000
    outer loop
      vertex  8.557347e-001  5.248658e+000  8.000000e-001
      vertex  1.626632e+000  4.600244e+000  8.000000e-001
      vertex  1.871589e+000  4.895639e+000  8.000000e-001
    endloop
  endfacet
  facet normal  0.000000e+000  0.000000e+000  1.000000e+000
    outer loop
      vertex  8.557347e-001  5.248658e+000  8.000000e-001
      vertex  1.871589e+000  4.895639e+000  8.000000e-001
      vertex  1.439315e+000  5.752984e+000  8.000000e-001
    endloop
  endfacet
  facet normal  -0.000000e+000  0.000000e+000  9.999999e-001
    outer loop
      vertex  1.424903e+000  3.418687e+000  8.000000e-001
      vertex  3.514167e-001  3.346643e+000  8.000000e-001
      vertex  1.468131e+000  2.618981e+000  8.000000e-001
    endloop
  endfacet
  facet normal  0.000000e+000  0.000000e+000  1.000000e+000
    outer loop
      vertex  1.468131e+000  2.618981e+000  8.000000e-001
      vertex  3.514167e-001  3.346643e+000  8.000000e-001
      vertex  4.738917e-001  2.193910e+000  8.000000e-001
    endloop
  endfacet
  facet normal  -0.000000e+000  0.000000e+000  1.000000e+000
    outer loop
      vertex  1.468131e+000  2.618981e+000  8.000000e-001
      vertex  4.738917e-001  2.193910e+000  8.000000e-001
      vertex  1.605018e+000  2.049813e+000  8.000000e-001
    endloop
  endfacet
  facet normal  0.000000e+000  0.000000e+000  1.000000e+000
    outer loop
      vertex  8.485327e-001  1.350968e+000  8.000000e-001
      vertex  1.849975e+000  1.711198e+000  8.000000e-001
      vertex  4.738917e-001  2.193910e+000  8.000000e-001
    endloop
  endfacet
  facet normal  0.000000e+000  0.000000e+000  1.000000e+000
    outer loop
      vertex  4.738917e-001  2.193910e+000  8.000000e-001
      vertex  1.849975e+000  1.711198e+000  8.000000e-001
      vertex  1.605018e+000  2.049813e+000  8.000000e-001
    endloop
  endfacet
  facet normal  0.000000e+000  0.000000e+000  1.000000e+000
    outer loop
      vertex  2.959487e+000  5.752984e+000  8.000000e-001
      vertex  2.599258e+000  5.882669e+000  8.000000e-001
      vertex  3.550262e+000  5.241456e+000  8.000000e-001
    endloop
  endfacet
  facet normal  0.000000e+000  0.000000e+000  1.000000e+000
    outer loop
      vertex  3.550262e+000  5.241456e+000  8.000000e-001
      vertex  2.599258e+000  5.882669e+000  8.000000e-001
      vertex  2.203002e+000  5.003709e+000  8.000000e-001
    endloop
  endfacet
  facet normal  -0.000000e+000  0.000000e+000  1.000000e+000
    outer loop
      vertex  3.550262e+000  5.241456e+000  8.000000e-001
      vertex  2.203002e+000  5.003709e+000  8.000000e-001
      vertex  3.759200e+000  4.866815e+000  8.000000e-001
    endloop
  endfacet
  facet normal  0.000000e+000  0.000000e+000  9.999999e-001
    outer loop
      vertex  3.759200e+000  4.866815e+000  8.000000e-001
      vertex  2.203002e+000  5.003709e+000  8.000000e-001
      vertex  2.541618e+000  4.895639e+000  8.000000e-001
    endloop
  endfacet
  facet normal  0.000000e+000  0.000000e+000  1.000000e+000
    outer loop
      vertex  3.759200e+000  4.866815e+000  8.000000e-001
      vertex  2.541618e+000  4.895639e+000  8.000000e-001
      vertex  3.917701e+000  4.412927e+000  8.000000e-001
    endloop
  endfacet
  facet normal  0.000000e+000  0.000000e+000  1.000000e+000
    outer loop
      vertex  3.917701e+000  4.412927e+000  8.000000e-001
      vertex  2.541618e+000  4.895639e+000  8.000000e-001
      vertex  2.779373e+000  4.571427e+000  8.000000e-001
    endloop
  endfacet
  facet normal  0.000000e+000  0.000000e+000  1.000000e+000
    outer loop
      vertex  3.917701e+000  4.412927e+000  8.000000e-001
      vertex  2.779373e+000  4.571427e+000  8.000000e-001
      vertex  4.054588e+000  3.296212e+000  8.000000e-001
    endloop
  endfacet
  facet normal  0.000000e+000  0.000000e+000  1.000000e+000
    outer loop
      vertex  4.054588e+000  3.296212e+000  8.000000e-001
      vertex  2.779373e+000  4.571427e+000  8.000000e-001
      vertex  2.923461e+000  4.031083e+000  8.000000e-001
    endloop
  endfacet
  facet normal  0.000000e+000  0.000000e+000  1.000000e+000
    outer loop
      vertex  4.054588e+000  3.296212e+000  8.000000e-001
      vertex  2.923461e+000  4.031083e+000  8.000000e-001
      vertex  2.973892e+000  3.281800e+000  8.000000e-001
    endloop
  endfacet
  facet normal  -0.000000e+000  0.000000e+000  1.000000e+000
    outer loop
      vertex  4.054588e+000  3.296212e+000  8.000000e-001
      vertex  2.973892e+000  3.281800e+000  8.000000e-001
      vertex  3.917701e+000  2.172296e+000  8.000000e-001
    endloop
  endfacet
  facet normal  0.000000e+000  0.000000e+000  1.000000e+000
    outer loop
      vertex  3.917701e+000  2.172296e+000  8.000000e-001
      vertex  2.973892e+000  3.281800e+000  8.000000e-001
      vertex  2.930663e+000  2.539727e+000  8.000000e-001
    endloop
  endfacet
  facet normal  0.000000e+000  0.000000e+000  1.000000e+000
    outer loop
      vertex  3.917701e+000  2.172296e+000  8.000000e-001
      vertex  2.930663e+000  2.539727e+000  8.000000e-001
      vertex  2.793777e+000  2.020997e+000  8.000000e-001
    endloop
  endfacet
  facet normal  -0.000000e+000  0.000000e+000  1.000000e+000
    outer loop
      vertex  3.917701e+000  2.172296e+000  8.000000e-001
      vertex  2.793777e+000  2.020997e+000  8.000000e-001
      vertex  3.550262e+000  1.343766e+000  8.000000e-001
    endloop
  endfacet
  facet normal  0.000000e+000  0.000000e+000  9.999999e-001
    outer loop
      vertex  3.550262e+000  1.343766e+000  8.000000e-001
      vertex  2.793777e+000  2.020997e+000  8.000000e-001
      vertex  2.556030e+000  1.703996e+000  8.000000e-001
    endloop
  endfacet
  facet normal  0.000000e+000  0.000000e+000  1.000000e+000
    outer loop
      vertex  3.550262e+000  1.343766e+000  8.000000e-001
      vertex  2.556030e+000  1.703996e+000  8.000000e-001
      vertex  2.217407e+000  1.603128e+000  8.000000e-001
    endloop
  endfacet
  facet normal  0.000000e+000  0.000000e+000  1.000000e+000
    outer loop
      vertex -2.861840e+000  4.103128e+000  8.000000e-001
      vertex -3.985764e+000  3.346643e+000  8.000000e-001
      vertex -2.912270e+000  3.418687e+000  8.000000e-001
    endloop
  endfacet
  facet normal  0.000000e+000  0.000000e+000  1.000000e+000
    outer loop
      vertex -1.377694e+000  8.322379e-001  8.000000e-001
      vertex -7.869123e-001  1.343766e+000  8.000000e-001
      vertex -2.134179e+000  6.593259e-001  8.000000e-001
    endloop
  endfacet
  facet normal  0.000000e+000  0.000000e+000  9.999999e-001
    outer loop
      vertex -2.134179e+000  6.593259e-001  8.000000e-001
      vertex -7.869123e-001  1.343766e+000  8.000000e-001
      vertex -2.119767e+000  1.603128e+000  8.000000e-001
    endloop
  endfacet
  facet normal  0.000000e+000  0.000000e+000  1.000000e+000
    outer loop
      vertex -2.134179e+000  6.593259e-001  8.000000e-001
      vertex -2.119767e+000  1.603128e+000  8.000000e-001
      vertex -2.905068e+000  8.322379e-001  8.000000e-001
    endloop
  endfacet
  facet normal  0.000000e+000  0.000000e+000  1.000000e+000
    outer loop
      vertex -2.905068e+000  8.322379e-001  8.000000e-001
      vertex -2.119767e+000  1.603128e+000  8.000000e-001
      vertex -2.487199e+000  1.711198e+000  8.000000e-001
    endloop
  endfacet
  facet normal  0.000000e+000  0.000000e+000  1.000000e+000
    outer loop
      vertex -2.905068e+000  8.322379e-001  8.000000e-001
      vertex -2.487199e+000  1.711198e+000  8.000000e-001
      vertex -3.488640e+000  1.350968e+000  8.000000e-001
    endloop
  endfacet
  facet normal  0.000000e+000  -0.000000e+000  1.000000e+000
    outer loop
      vertex -2.897866e+000  5.752984e+000  8.000000e-001
      vertex -2.465584e+000  4.895639e+000  8.000000e-001
      vertex -2.134179e+000  5.933099e+000  8.000000e-001
    endloop
  endfacet
  facet normal  0.000000e+000  0.000000e+000  1.000000e+000
    outer loop
      vertex -2.134179e+000  5.933099e+000  8.000000e-001
      vertex -2.465584e+000  4.895639e+000  8.000000e-001
      vertex -2.134179e+000  5.003709e+000  8.000000e-001
    endloop
  endfacet
  facet normal  0.000000e+000  0.000000e+000  1.000000e+000
    outer loop
      vertex -2.134179e+000  5.933099e+000  8.000000e-001
      vertex -2.134179e+000  5.003709e+000  8.000000e-001
      vertex -1.737923e+000  5.882669e+000  8.000000e-001
    endloop
  endfacet
  facet normal  0.000000e+000  0.000000e+000  1.000000e+000
    outer loop
      vertex -3.985764e+000  3.346643e+000  8.000000e-001
      vertex -2.861840e+000  4.103128e+000  8.000000e-001
      vertex -3.856080e+000  4.434541e+000  8.000000e-001
    endloop
  endfacet
  facet normal  -0.000000e+000  0.000000e+000  1.000000e+000
    outer loop
      vertex -3.856080e+000  4.434541e+000  8.000000e-001
      vertex -2.861840e+000  4.103128e+000  8.000000e-001
      vertex -2.710541e+000  4.600244e+000  8.000000e-001
    endloop
  endfacet
  facet normal  0.000000e+000  0.000000e+000  1.000000e+000
    outer loop
      vertex -3.856080e+000  4.434541e+000  8.000000e-001
      vertex -2.710541e+000  4.600244e+000  8.000000e-001
      vertex -3.481438e+000  5.248658e+000  8.000000e-001
    endloop
  endfacet
  facet normal  0.000000e+000  0.000000e+000  9.999999e-001
    outer loop
      vertex -3.481438e+000  5.248658e+000  8.000000e-001
      vertex -2.710541e+000  4.600244e+000  8.000000e-001
      vertex -2.465584e+000  4.895639e+000  8.000000e-001
    endloop
  endfacet
  facet normal  0.000000e+000  0.000000e+000  9.999999e-001
    outer loop
      vertex -3.481438e+000  5.248658e+000  8.000000e-001
      vertex -2.465584e+000  4.895639e+000  8.000000e-001
      vertex -2.897866e+000  5.752984e+000  8.000000e-001
    endloop
  endfacet
  facet normal  -0.000000e+000  0.000000e+000  1.000000e+000
    outer loop
      vertex -2.912270e+000  3.418687e+000  8.000000e-001
      vertex -3.985764e+000  3.346643e+000  8.000000e-001
      vertex -2.869042e+000  2.618981e+000  8.000000e-001
    endloop
  endfacet
  facet normal  0.000000e+000  0.000000e+000  1.000000e+000
    outer loop
      vertex -2.869042e+000  2.618981e+000  8.000000e-001
      vertex -3.985764e+000  3.346643e+000  8.000000e-001
      vertex -3.863282e+000  2.193910e+000  8.000000e-001
    endloop
  endfacet
  facet normal  -0.000000e+000  0.000000e+000  1.000000e+000
    outer loop
      vertex -2.869042e+000  2.618981e+000  8.000000e-001
      vertex -3.863282e+000  2.193910e+000  8.000000e-001
      vertex -2.732155e+000  2.049813e+000  8.000000e-001
    endloop
  endfacet
  facet normal  0.000000e+000  0.000000e+000  9.999999e-001
    outer loop
      vertex -3.488640e+000  1.350968e+000  8.000000e-001
      vertex -2.487199e+000  1.711198e+000  8.000000e-001
      vertex -3.863282e+000  2.193910e+000  8.000000e-001
    endloop
  endfacet
  facet normal  0.000000e+000  0.000000e+000  1.000000e+000
    outer loop
      vertex -3.863282e+000  2.193910e+000  8.000000e-001
      vertex -2.487199e+000  1.711198e+000  8.000000e-001
      vertex -2.732155e+000  2.049813e+000  8.000000e-001
    endloop
  endfacet
  facet normal  0.000000e+000  0.000000e+000  1.000000e+000
    outer loop
      vertex -1.377694e+000  5.752984e+000  8.000000e-001
      vertex -1.737923e+000  5.882669e+000  8.000000e-001
      vertex -7.869123e-001  5.241456e+000  8.000000e-001
    endloop
  endfacet
  facet normal  0.000000e+000  0.000000e+000  1.000000e+000
    outer loop
      vertex -7.869123e-001  5.241456e+000  8.000000e-001
      vertex -1.737923e+000  5.882669e+000  8.000000e-001
      vertex -2.134179e+000  5.003709e+000  8.000000e-001
    endloop
  endfacet
  facet normal  -0.000000e+000  0.000000e+000  1.000000e+000
    outer loop
      vertex -7.869123e-001  5.241456e+000  8.000000e-001
      vertex -2.134179e+000  5.003709e+000  8.000000e-001
      vertex -5.779813e-001  4.866815e+000  8.000000e-001
    endloop
  endfacet
  facet normal  0.000000e+000  0.000000e+000  1.000000e+000
    outer loop
      vertex -5.779813e-001  4.866815e+000  8.000000e-001
      vertex -2.134179e+000  5.003709e+000  8.000000e-001
      vertex -1.795556e+000  4.895639e+000  8.000000e-001
    endloop
  endfacet
  facet normal  0.000000e+000  0.000000e+000  1.000000e+000
    outer loop
      vertex -5.779813e-001  4.866815e+000  8.000000e-001
      vertex -1.795556e+000  4.895639e+000  8.000000e-001
      vertex -4.194803e-001  4.412927e+000  8.000000e-001
    endloop
  endfacet
  facet normal  0.000000e+000  0.000000e+000  1.000000e+000
    outer loop
      vertex -4.194803e-001  4.412927e+000  8.000000e-001
      vertex -1.795556e+000  4.895639e+000  8.000000e-001
      vertex -1.557809e+000  4.571427e+000  8.000000e-001
    endloop
  endfacet
  facet normal  0.000000e+000  0.000000e+000  1.000000e+000
    outer loop
      vertex -4.194803e-001  4.412927e+000  8.000000e-001
      vertex -1.557809e+000  4.571427e+000  8.000000e-001
      vertex -2.825933e-001  3.296212e+000  8.000000e-001
    endloop
  endfacet
  facet normal  0.000000e+000  0.000000e+000  1.000000e+000
    outer loop
      vertex -2.825933e-001  3.296212e+000  8.000000e-001
      vertex -1.557809e+000  4.571427e+000  8.000000e-001
      vertex -1.413712e+000  4.031083e+000  8.000000e-001
    endloop
  endfacet
  facet normal  0.000000e+000  0.000000e+000  1.000000e+000
    outer loop
      vertex -2.825933e-001  3.296212e+000  8.000000e-001
      vertex -1.413712e+000  4.031083e+000  8.000000e-001
      vertex -1.363282e+000  3.281800e+000  8.000000e-001
    endloop
  endfacet
  facet normal  -0.000000e+000  0.000000e+000  1.000000e+000
    outer loop
      vertex -2.825933e-001  3.296212e+000  8.000000e-001
      vertex -1.363282e+000  3.281800e+000  8.000000e-001
      vertex -4.194803e-001  2.172296e+000  8.000000e-001
    endloop
  endfacet
  facet normal  0.000000e+000  0.000000e+000  1.000000e+000
    outer loop
      vertex -4.194803e-001  2.172296e+000  8.000000e-001
      vertex -1.363282e+000  3.281800e+000  8.000000e-001
      vertex -1.406510e+000  2.539727e+000  8.000000e-001
    endloop
  endfacet
  facet normal  0.000000e+000  0.000000e+000  1.000000e+000
    outer loop
      vertex -4.194803e-001  2.172296e+000  8.000000e-001
      vertex -1.406510e+000  2.539727e+000  8.000000e-001
      vertex -1.543397e+000  2.020997e+000  8.000000e-001
    endloop
  endfacet
  facet normal  -0.000000e+000  0.000000e+000  1.000000e+000
    outer loop
      vertex -4.194803e-001  2.172296e+000  8.000000e-001
      vertex -1.543397e+000  2.020997e+000  8.000000e-001
      vertex -7.869123e-001  1.343766e+000  8.000000e-001
    endloop
  endfacet
  facet normal  0.000000e+000  0.000000e+000  1.000000e+000
    outer loop
      vertex -7.869123e-001  1.343766e+000  8.000000e-001
      vertex -1.543397e+000  2.020997e+000  8.000000e-001
      vertex -1.781151e+000  1.703996e+000  8.000000e-001
    endloop
  endfacet
  facet normal  0.000000e+000  0.000000e+000  1.000000e+000
    outer loop
      vertex -7.869123e-001  1.343766e+000  8.000000e-001
      vertex -1.781151e+000  1.703996e+000  8.000000e-001
      vertex -2.119767e+000  1.603128e+000  8.000000e-001
    endloop
  endfacet
  facet normal  0.000000e+000  0.000000e+000  1.000000e+000
    outer loop
      vertex -4.742242e+000  5.796212e+000  8.000000e-001
      vertex -6.975671e+000  4.845201e+000  8.000000e-001
      vertex -4.742242e+000  4.845201e+000  8.000000e-001
    endloop
  endfacet
  facet normal  0.000000e+000  0.000000e+000  1.000000e+000
    outer loop
      vertex -8.005937e+000  5.796212e+000  8.000000e-001
      vertex -8.005937e+000  7.962119e-001  8.000000e-001
      vertex -6.968468e+000  7.962119e-001  8.000000e-001
    endloop
  endfacet
  facet normal  0.000000e+000  -0.000000e+000  1.000000e+000
    outer loop
      vertex -8.005937e+000  5.796212e+000  8.000000e-001
      vertex -6.968468e+000  7.962119e-001  8.000000e-001
      vertex -6.968468e+000  2.892755e+000  8.000000e-001
    endloop
  endfacet
  facet normal  0.000000e+000  0.000000e+000  1.000000e+000
    outer loop
      vertex -8.005937e+000  5.796212e+000  8.000000e-001
      vertex -6.968468e+000  2.892755e+000  8.000000e-001
      vertex -6.975671e+000  3.850968e+000  8.000000e-001
    endloop
  endfacet
  facet normal  0.000000e+000  -0.000000e+000  1.000000e+000
    outer loop
      vertex -8.005937e+000  5.796212e+000  8.000000e-001
      vertex -6.975671e+000  3.850968e+000  8.000000e-001
      vertex -6.975671e+000  4.845201e+000  8.000000e-001
    endloop
  endfacet
  facet normal  0.000000e+000  -0.000000e+000  1.000000e+000
    outer loop
      vertex -8.005937e+000  5.796212e+000  8.000000e-001
      vertex -6.975671e+000  4.845201e+000  8.000000e-001
      vertex -4.742242e+000  5.796212e+000  8.000000e-001
    endloop
  endfacet
  facet normal  0.000000e+000  0.000000e+000  9.999999e-001
    outer loop
      vertex -6.968468e+000  2.892755e+000  8.000000e-001
      vertex -5.181726e+000  2.892755e+000  8.000000e-001
      vertex -6.975671e+000  3.850968e+000  8.000000e-001
    endloop
  endfacet
  facet normal  -0.000000e+000  0.000000e+000  1.000000e+000
    outer loop
      vertex -6.975671e+000  3.850968e+000  8.000000e-001
      vertex -5.181726e+000  2.892755e+000  8.000000e-001
      vertex -5.181726e+000  3.850968e+000  8.000000e-001
    endloop
  endfacet
endsolid CATIA STL
