solid CATIA STL
  facet normal  0.000000e+000  0.000000e+000 -1.000000e+000
    outer loop
      vertex  1.750000e+000  2.143061e-016 -7.450581e-010
      vertex -1.711758e+000  3.638455e-001 -7.450581e-010
      vertex  1.711758e+000  3.638455e-001 -7.450581e-010
    endloop
  endfacet
  facet normal  0.000000e+000  0.000000e+000 -1.000000e+000
    outer loop
      vertex  1.711758e+000  3.638455e-001 -7.450581e-010
      vertex -1.711758e+000  3.638455e-001 -7.450581e-010
      vertex -1.598705e+000  7.117891e-001 -7.450581e-010
    endloop
  endfacet
  facet normal  0.000000e+000  0.000000e+000 -1.000000e+000
    outer loop
      vertex  1.711758e+000  3.638455e-001 -7.450581e-010
      vertex -1.598705e+000  7.117891e-001 -7.450581e-010
      vertex  1.598705e+000  7.117891e-001 -7.450581e-010
    endloop
  endfacet
  facet normal  0.000000e+000  0.000000e+000 -1.000000e+000
    outer loop
      vertex  1.598705e+000  7.117891e-001 -7.450581e-010
      vertex -1.598705e+000  7.117891e-001 -7.450581e-010
      vertex -1.415780e+000  1.028624e+000 -7.450581e-010
    endloop
  endfacet
  facet normal  0.000000e+000  0.000000e+000 -9.999999e-001
    outer loop
      vertex  1.598705e+000  7.117891e-001 -7.450581e-010
      vertex -1.415780e+000  1.028624e+000 -7.450581e-010
      vertex  1.415780e+000  1.028624e+000 -7.450581e-010
    endloop
  endfacet
  facet normal  0.000000e+000  0.000000e+000 -1.000000e+000
    outer loop
      vertex  1.415780e+000  1.028624e+000 -7.450581e-010
      vertex -1.415780e+000  1.028624e+000 -7.450581e-010
      vertex -1.170979e+000  1.300503e+000 -7.450581e-010
    endloop
  endfacet
  facet normal  0.000000e+000  0.000000e+000 -1.000000e+000
    outer loop
      vertex  1.415780e+000  1.028624e+000 -7.450581e-010
      vertex -1.170979e+000  1.300503e+000 -7.450581e-010
      vertex  1.170979e+000  1.300503e+000 -7.450581e-010
    endloop
  endfacet
  facet normal  0.000000e+000  0.000000e+000 -1.000000e+000
    outer loop
      vertex  1.170979e+000  1.300503e+000 -7.450581e-010
      vertex -1.170979e+000  1.300503e+000 -7.450581e-010
      vertex -8.750000e-001  1.515544e+000 -7.450581e-010
    endloop
  endfacet
  facet normal  0.000000e+000  0.000000e+000 -9.999999e-001
    outer loop
      vertex  1.170979e+000  1.300503e+000 -7.450581e-010
      vertex -8.750000e-001  1.515544e+000 -7.450581e-010
      vertex  8.750000e-001  1.515544e+000 -7.450581e-010
    endloop
  endfacet
  facet normal  0.000000e+000  0.000000e+000 -1.000000e+000
    outer loop
      vertex  8.750000e-001  1.515544e+000 -7.450581e-010
      vertex -8.750000e-001  1.515544e+000 -7.450581e-010
      vertex -5.407798e-001  1.664349e+000 -7.450581e-010
    endloop
  endfacet
  facet normal  0.000000e+000  0.000000e+000 -1.000000e+000
    outer loop
      vertex  8.750000e-001  1.515544e+000 -7.450581e-010
      vertex -5.407798e-001  1.664349e+000 -7.450581e-010
      vertex  5.407798e-001  1.664349e+000 -7.450581e-010
    endloop
  endfacet
  facet normal  0.000000e+000  0.000000e+000 -1.000000e+000
    outer loop
      vertex  5.407798e-001  1.664349e+000 -7.450581e-010
      vertex -5.407798e-001  1.664349e+000 -7.450581e-010
      vertex -1.829248e-001  1.740413e+000 -7.450581e-010
    endloop
  endfacet
  facet normal  0.000000e+000  0.000000e+000 -9.999999e-001
    outer loop
      vertex  5.407798e-001  1.664349e+000 -7.450581e-010
      vertex -1.829248e-001  1.740413e+000 -7.450581e-010
      vertex  1.829248e-001  1.740413e+000 -7.450581e-010
    endloop
  endfacet
  facet normal  -0.000000e+000  0.000000e+000 -1.000000e+000
    outer loop
      vertex -1.711758e+000  3.638455e-001 -7.450581e-010
      vertex  1.750000e+000  2.143061e-016 -7.450581e-010
      vertex -1.750000e+000  0.000000e+000 -7.450581e-010
    endloop
  endfacet
  facet normal  0.000000e+000  0.000000e+000 -1.000000e+000
    outer loop
      vertex -1.750000e+000  0.000000e+000 -7.450581e-010
      vertex  1.750000e+000  2.143061e-016 -7.450581e-010
      vertex  1.711758e+000 -3.638455e-001 -7.450581e-010
    endloop
  endfacet
  facet normal  0.000000e+000  0.000000e+000 -1.000000e+000
    outer loop
      vertex -1.750000e+000  0.000000e+000 -7.450581e-010
      vertex  1.711758e+000 -3.638455e-001 -7.450581e-010
      vertex -1.711758e+000 -3.638455e-001 -7.450581e-010
    endloop
  endfacet
  facet normal  0.000000e+000  0.000000e+000 -1.000000e+000
    outer loop
      vertex -1.711758e+000 -3.638455e-001 -7.450581e-010
      vertex  1.711758e+000 -3.638455e-001 -7.450581e-010
      vertex  1.598705e+000 -7.117891e-001 -7.450581e-010
    endloop
  endfacet
  facet normal  0.000000e+000  0.000000e+000 -1.000000e+000
    outer loop
      vertex -1.711758e+000 -3.638455e-001 -7.450581e-010
      vertex  1.598705e+000 -7.117891e-001 -7.450581e-010
      vertex -1.598705e+000 -7.117891e-001 -7.450581e-010
    endloop
  endfacet
  facet normal  0.000000e+000  0.000000e+000 -1.000000e+000
    outer loop
      vertex -1.598705e+000 -7.117891e-001 -7.450581e-010
      vertex  1.598705e+000 -7.117891e-001 -7.450581e-010
      vertex  1.415780e+000 -1.028624e+000 -7.450581e-010
    endloop
  endfacet
  facet normal  0.000000e+000  0.000000e+000 -9.999999e-001
    outer loop
      vertex -1.598705e+000 -7.117891e-001 -7.450581e-010
      vertex  1.415780e+000 -1.028624e+000 -7.450581e-010
      vertex -1.415780e+000 -1.028624e+000 -7.450581e-010
    endloop
  endfacet
  facet normal  0.000000e+000  0.000000e+000 -1.000000e+000
    outer loop
      vertex -1.415780e+000 -1.028624e+000 -7.450581e-010
      vertex  1.415780e+000 -1.028624e+000 -7.450581e-010
      vertex  1.170979e+000 -1.300503e+000 -7.450581e-010
    endloop
  endfacet
  facet normal  0.000000e+000  0.000000e+000 -1.000000e+000
    outer loop
      vertex -1.415780e+000 -1.028624e+000 -7.450581e-010
      vertex  1.170979e+000 -1.300503e+000 -7.450581e-010
      vertex -1.170979e+000 -1.300503e+000 -7.450581e-010
    endloop
  endfacet
  facet normal  0.000000e+000  0.000000e+000 -1.000000e+000
    outer loop
      vertex -1.170979e+000 -1.300503e+000 -7.450581e-010
      vertex  1.170979e+000 -1.300503e+000 -7.450581e-010
      vertex  8.750000e-001 -1.515544e+000 -7.450581e-010
    endloop
  endfacet
  facet normal  0.000000e+000  0.000000e+000 -9.999999e-001
    outer loop
      vertex -1.170979e+000 -1.300503e+000 -7.450581e-010
      vertex  8.750000e-001 -1.515544e+000 -7.450581e-010
      vertex -8.750000e-001 -1.515544e+000 -7.450581e-010
    endloop
  endfacet
  facet normal  0.000000e+000  0.000000e+000 -1.000000e+000
    outer loop
      vertex -8.750000e-001 -1.515544e+000 -7.450581e-010
      vertex  8.750000e-001 -1.515544e+000 -7.450581e-010
      vertex  5.407798e-001 -1.664349e+000 -7.450581e-010
    endloop
  endfacet
  facet normal  0.000000e+000  0.000000e+000 -1.000000e+000
    outer loop
      vertex -8.750000e-001 -1.515544e+000 -7.450581e-010
      vertex  5.407798e-001 -1.664349e+000 -7.450581e-010
      vertex -5.407798e-001 -1.664349e+000 -7.450581e-010
    endloop
  endfacet
  facet normal  0.000000e+000  0.000000e+000 -1.000000e+000
    outer loop
      vertex -5.407798e-001 -1.664349e+000 -7.450581e-010
      vertex  5.407798e-001 -1.664349e+000 -7.450581e-010
      vertex  1.829248e-001 -1.740413e+000 -7.450581e-010
    endloop
  endfacet
  facet normal  0.000000e+000  0.000000e+000 -9.999999e-001
    outer loop
      vertex -5.407798e-001 -1.664349e+000 -7.450581e-010
      vertex  1.829248e-001 -1.740413e+000 -7.450581e-010
      vertex -1.829248e-001 -1.740413e+000 -7.450581e-010
    endloop
  endfacet
  facet normal  -0.000000e+000  0.000000e+000  9.999999e-001
    outer loop
      vertex  1.829248e-001  1.740413e+000  3.000000e-001
      vertex -1.829248e-001  1.740413e+000  3.000000e-001
      vertex  5.407798e-001  1.664349e+000  3.000000e-001
    endloop
  endfacet
  facet normal  0.000000e+000  0.000000e+000  1.000000e+000
    outer loop
      vertex  5.407798e-001  1.664349e+000  3.000000e-001
      vertex -1.829248e-001  1.740413e+000  3.000000e-001
      vertex -5.407798e-001  1.664349e+000  3.000000e-001
    endloop
  endfacet
  facet normal  -0.000000e+000  0.000000e+000  1.000000e+000
    outer loop
      vertex  5.407798e-001  1.664349e+000  3.000000e-001
      vertex -5.407798e-001  1.664349e+000  3.000000e-001
      vertex  8.750000e-001  1.515544e+000  3.000000e-001
    endloop
  endfacet
  facet normal  0.000000e+000  0.000000e+000  1.000000e+000
    outer loop
      vertex  8.750000e-001  1.515544e+000  3.000000e-001
      vertex -5.407798e-001  1.664349e+000  3.000000e-001
      vertex -8.750000e-001  1.515544e+000  3.000000e-001
    endloop
  endfacet
  facet normal  -0.000000e+000  0.000000e+000  9.999999e-001
    outer loop
      vertex  8.750000e-001  1.515544e+000  3.000000e-001
      vertex -8.750000e-001  1.515544e+000  3.000000e-001
      vertex  1.170979e+000  1.300503e+000  3.000000e-001
    endloop
  endfacet
  facet normal  0.000000e+000  0.000000e+000  1.000000e+000
    outer loop
      vertex  1.170979e+000  1.300503e+000  3.000000e-001
      vertex -8.750000e-001  1.515544e+000  3.000000e-001
      vertex -1.170979e+000  1.300503e+000  3.000000e-001
    endloop
  endfacet
  facet normal  -0.000000e+000  0.000000e+000  1.000000e+000
    outer loop
      vertex  1.170979e+000  1.300503e+000  3.000000e-001
      vertex -1.170979e+000  1.300503e+000  3.000000e-001
      vertex  1.415780e+000  1.028624e+000  3.000000e-001
    endloop
  endfacet
  facet normal  0.000000e+000  0.000000e+000  1.000000e+000
    outer loop
      vertex  1.415780e+000  1.028624e+000  3.000000e-001
      vertex -1.170979e+000  1.300503e+000  3.000000e-001
      vertex -1.415780e+000  1.028624e+000  3.000000e-001
    endloop
  endfacet
  facet normal  -0.000000e+000  0.000000e+000  9.999999e-001
    outer loop
      vertex  1.415780e+000  1.028624e+000  3.000000e-001
      vertex -1.415780e+000  1.028624e+000  3.000000e-001
      vertex  1.598705e+000  7.117891e-001  3.000000e-001
    endloop
  endfacet
  facet normal  0.000000e+000  0.000000e+000  1.000000e+000
    outer loop
      vertex  1.598705e+000  7.117891e-001  3.000000e-001
      vertex -1.415780e+000  1.028624e+000  3.000000e-001
      vertex -1.598705e+000  7.117891e-001  3.000000e-001
    endloop
  endfacet
  facet normal  -0.000000e+000  0.000000e+000  1.000000e+000
    outer loop
      vertex  1.598705e+000  7.117891e-001  3.000000e-001
      vertex -1.598705e+000  7.117891e-001  3.000000e-001
      vertex  1.711758e+000  3.638455e-001  3.000000e-001
    endloop
  endfacet
  facet normal  0.000000e+000  0.000000e+000  1.000000e+000
    outer loop
      vertex  1.711758e+000  3.638455e-001  3.000000e-001
      vertex -1.598705e+000  7.117891e-001  3.000000e-001
      vertex -1.711758e+000  3.638455e-001  3.000000e-001
    endloop
  endfacet
  facet normal  -0.000000e+000  0.000000e+000  1.000000e+000
    outer loop
      vertex  1.711758e+000  3.638455e-001  3.000000e-001
      vertex -1.711758e+000  3.638455e-001  3.000000e-001
      vertex  1.750000e+000  2.143061e-016  3.000000e-001
    endloop
  endfacet
  facet normal  0.000000e+000  0.000000e+000  1.000000e+000
    outer loop
      vertex  1.750000e+000  2.143061e-016  3.000000e-001
      vertex -1.711758e+000  3.638455e-001  3.000000e-001
      vertex -1.750000e+000  0.000000e+000  3.000000e-001
    endloop
  endfacet
  facet normal  -0.000000e+000  0.000000e+000  1.000000e+000
    outer loop
      vertex  1.750000e+000  2.143061e-016  3.000000e-001
      vertex -1.750000e+000  0.000000e+000  3.000000e-001
      vertex  1.711758e+000 -3.638455e-001  3.000000e-001
    endloop
  endfacet
  facet normal  0.000000e+000  0.000000e+000  1.000000e+000
    outer loop
      vertex  1.711758e+000 -3.638455e-001  3.000000e-001
      vertex -1.750000e+000  0.000000e+000  3.000000e-001
      vertex -1.711758e+000 -3.638455e-001  3.000000e-001
    endloop
  endfacet
  facet normal  -0.000000e+000  0.000000e+000  1.000000e+000
    outer loop
      vertex  1.711758e+000 -3.638455e-001  3.000000e-001
      vertex -1.711758e+000 -3.638455e-001  3.000000e-001
      vertex  1.598705e+000 -7.117891e-001  3.000000e-001
    endloop
  endfacet
  facet normal  0.000000e+000  0.000000e+000  1.000000e+000
    outer loop
      vertex  1.598705e+000 -7.117891e-001  3.000000e-001
      vertex -1.711758e+000 -3.638455e-001  3.000000e-001
      vertex -1.598705e+000 -7.117891e-001  3.000000e-001
    endloop
  endfacet
  facet normal  -0.000000e+000  0.000000e+000  1.000000e+000
    outer loop
      vertex  1.598705e+000 -7.117891e-001  3.000000e-001
      vertex -1.598705e+000 -7.117891e-001  3.000000e-001
      vertex  1.415780e+000 -1.028624e+000  3.000000e-001
    endloop
  endfacet
  facet normal  0.000000e+000  0.000000e+000  9.999999e-001
    outer loop
      vertex  1.415780e+000 -1.028624e+000  3.000000e-001
      vertex -1.598705e+000 -7.117891e-001  3.000000e-001
      vertex -1.415780e+000 -1.028624e+000  3.000000e-001
    endloop
  endfacet
  facet normal  -0.000000e+000  0.000000e+000  1.000000e+000
    outer loop
      vertex  1.415780e+000 -1.028624e+000  3.000000e-001
      vertex -1.415780e+000 -1.028624e+000  3.000000e-001
      vertex  1.170979e+000 -1.300503e+000  3.000000e-001
    endloop
  endfacet
  facet normal  0.000000e+000  0.000000e+000  1.000000e+000
    outer loop
      vertex  1.170979e+000 -1.300503e+000  3.000000e-001
      vertex -1.415780e+000 -1.028624e+000  3.000000e-001
      vertex -1.170979e+000 -1.300503e+000  3.000000e-001
    endloop
  endfacet
  facet normal  -0.000000e+000  0.000000e+000  1.000000e+000
    outer loop
      vertex  1.170979e+000 -1.300503e+000  3.000000e-001
      vertex -1.170979e+000 -1.300503e+000  3.000000e-001
      vertex  8.750000e-001 -1.515544e+000  3.000000e-001
    endloop
  endfacet
  facet normal  0.000000e+000  0.000000e+000  9.999999e-001
    outer loop
      vertex  8.750000e-001 -1.515544e+000  3.000000e-001
      vertex -1.170979e+000 -1.300503e+000  3.000000e-001
      vertex -8.750000e-001 -1.515544e+000  3.000000e-001
    endloop
  endfacet
  facet normal  -0.000000e+000  0.000000e+000  1.000000e+000
    outer loop
      vertex  8.750000e-001 -1.515544e+000  3.000000e-001
      vertex -8.750000e-001 -1.515544e+000  3.000000e-001
      vertex  5.407798e-001 -1.664349e+000  3.000000e-001
    endloop
  endfacet
  facet normal  0.000000e+000  0.000000e+000  1.000000e+000
    outer loop
      vertex  5.407798e-001 -1.664349e+000  3.000000e-001
      vertex -8.750000e-001 -1.515544e+000  3.000000e-001
      vertex -5.407798e-001 -1.664349e+000  3.000000e-001
    endloop
  endfacet
  facet normal  -0.000000e+000  0.000000e+000  1.000000e+000
    outer loop
      vertex  5.407798e-001 -1.664349e+000  3.000000e-001
      vertex -5.407798e-001 -1.664349e+000  3.000000e-001
      vertex  1.829248e-001 -1.740413e+000  3.000000e-001
    endloop
  endfacet
  facet normal  0.000000e+000  0.000000e+000  9.999999e-001
    outer loop
      vertex  1.829248e-001 -1.740413e+000  3.000000e-001
      vertex -5.407798e-001 -1.664349e+000  3.000000e-001
      vertex -1.829248e-001 -1.740413e+000  3.000000e-001
    endloop
  endfacet
  facet normal -9.945219e-001 -1.045286e-001  0.000000e+000
    outer loop
      vertex -1.750000e+000  0.000000e+000  3.000000e-001
      vertex -1.750000e+000  0.000000e+000 -7.450581e-010
      vertex -1.711758e+000 -3.638455e-001  3.000000e-001
    endloop
  endfacet
  facet normal -9.945219e-001 -1.045286e-001  -0.000000e+000
    outer loop
      vertex -1.711758e+000 -3.638455e-001  3.000000e-001
      vertex -1.750000e+000  0.000000e+000 -7.450581e-010
      vertex -1.711758e+000 -3.638455e-001 -7.450581e-010
    endloop
  endfacet
  facet normal -9.510565e-001 -3.090168e-001  0.000000e+000
    outer loop
      vertex -1.711758e+000 -3.638455e-001  3.000000e-001
      vertex -1.711758e+000 -3.638455e-001 -7.450581e-010
      vertex -1.598705e+000 -7.117891e-001  3.000000e-001
    endloop
  endfacet
  facet normal -9.510565e-001 -3.090168e-001  -0.000000e+000
    outer loop
      vertex -1.598705e+000 -7.117891e-001  3.000000e-001
      vertex -1.711758e+000 -3.638455e-001 -7.450581e-010
      vertex -1.598705e+000 -7.117891e-001 -7.450581e-010
    endloop
  endfacet
  facet normal -8.660253e-001 -5.000001e-001  0.000000e+000
    outer loop
      vertex -1.598705e+000 -7.117891e-001  3.000000e-001
      vertex -1.598705e+000 -7.117891e-001 -7.450581e-010
      vertex -1.415780e+000 -1.028624e+000  3.000000e-001
    endloop
  endfacet
  facet normal -8.660253e-001 -5.000001e-001  -0.000000e+000
    outer loop
      vertex -1.415780e+000 -1.028624e+000  3.000000e-001
      vertex -1.598705e+000 -7.117891e-001 -7.450581e-010
      vertex -1.415780e+000 -1.028624e+000 -7.450581e-010
    endloop
  endfacet
  facet normal -7.431449e-001 -6.691304e-001  0.000000e+000
    outer loop
      vertex -1.415780e+000 -1.028624e+000  3.000000e-001
      vertex -1.415780e+000 -1.028624e+000 -7.450581e-010
      vertex -1.170979e+000 -1.300503e+000  3.000000e-001
    endloop
  endfacet
  facet normal -7.431449e-001 -6.691304e-001  -0.000000e+000
    outer loop
      vertex -1.170979e+000 -1.300503e+000  3.000000e-001
      vertex -1.415780e+000 -1.028624e+000 -7.450581e-010
      vertex -1.170979e+000 -1.300503e+000 -7.450581e-010
    endloop
  endfacet
  facet normal -5.877851e-001 -8.090171e-001  0.000000e+000
    outer loop
      vertex -1.170979e+000 -1.300503e+000  3.000000e-001
      vertex -1.170979e+000 -1.300503e+000 -7.450581e-010
      vertex -8.750000e-001 -1.515544e+000  3.000000e-001
    endloop
  endfacet
  facet normal -5.877851e-001 -8.090171e-001  -0.000000e+000
    outer loop
      vertex -8.750000e-001 -1.515544e+000  3.000000e-001
      vertex -1.170979e+000 -1.300503e+000 -7.450581e-010
      vertex -8.750000e-001 -1.515544e+000 -7.450581e-010
    endloop
  endfacet
  facet normal -4.067369e-001 -9.135454e-001  0.000000e+000
    outer loop
      vertex -8.750000e-001 -1.515544e+000  3.000000e-001
      vertex -8.750000e-001 -1.515544e+000 -7.450581e-010
      vertex -5.407798e-001 -1.664349e+000  3.000000e-001
    endloop
  endfacet
  facet normal -4.067369e-001 -9.135454e-001  -0.000000e+000
    outer loop
      vertex -5.407798e-001 -1.664349e+000  3.000000e-001
      vertex -8.750000e-001 -1.515544e+000 -7.450581e-010
      vertex -5.407798e-001 -1.664349e+000 -7.450581e-010
    endloop
  endfacet
  facet normal -2.079115e-001 -9.781477e-001  0.000000e+000
    outer loop
      vertex -5.407798e-001 -1.664349e+000  3.000000e-001
      vertex -5.407798e-001 -1.664349e+000 -7.450581e-010
      vertex -1.829248e-001 -1.740413e+000  3.000000e-001
    endloop
  endfacet
  facet normal -2.079115e-001 -9.781477e-001  -0.000000e+000
    outer loop
      vertex -1.829248e-001 -1.740413e+000  3.000000e-001
      vertex -5.407798e-001 -1.664349e+000 -7.450581e-010
      vertex -1.829248e-001 -1.740413e+000 -7.450581e-010
    endloop
  endfacet
  facet normal  0.000000e+000 -1.000000e+000  0.000000e+000
    outer loop
      vertex -1.829248e-001 -1.740413e+000  3.000000e-001
      vertex -1.829248e-001 -1.740413e+000 -7.450581e-010
      vertex  1.829248e-001 -1.740413e+000  3.000000e-001
    endloop
  endfacet
  facet normal  0.000000e+000 -1.000000e+000  -0.000000e+000
    outer loop
      vertex  1.829248e-001 -1.740413e+000  3.000000e-001
      vertex -1.829248e-001 -1.740413e+000 -7.450581e-010
      vertex  1.829248e-001 -1.740413e+000 -7.450581e-010
    endloop
  endfacet
  facet normal  2.079115e-001 -9.781477e-001  0.000000e+000
    outer loop
      vertex  1.829248e-001 -1.740413e+000  3.000000e-001
      vertex  1.829248e-001 -1.740413e+000 -7.450581e-010
      vertex  5.407798e-001 -1.664349e+000  3.000000e-001
    endloop
  endfacet
  facet normal  2.079115e-001 -9.781477e-001  0.000000e+000
    outer loop
      vertex  5.407798e-001 -1.664349e+000  3.000000e-001
      vertex  1.829248e-001 -1.740413e+000 -7.450581e-010
      vertex  5.407798e-001 -1.664349e+000 -7.450581e-010
    endloop
  endfacet
  facet normal  4.067369e-001 -9.135454e-001  0.000000e+000
    outer loop
      vertex  5.407798e-001 -1.664349e+000  3.000000e-001
      vertex  5.407798e-001 -1.664349e+000 -7.450581e-010
      vertex  8.750000e-001 -1.515544e+000  3.000000e-001
    endloop
  endfacet
  facet normal  4.067369e-001 -9.135454e-001  0.000000e+000
    outer loop
      vertex  8.750000e-001 -1.515544e+000  3.000000e-001
      vertex  5.407798e-001 -1.664349e+000 -7.450581e-010
      vertex  8.750000e-001 -1.515544e+000 -7.450581e-010
    endloop
  endfacet
  facet normal  5.877851e-001 -8.090171e-001  0.000000e+000
    outer loop
      vertex  8.750000e-001 -1.515544e+000  3.000000e-001
      vertex  8.750000e-001 -1.515544e+000 -7.450581e-010
      vertex  1.170979e+000 -1.300503e+000  3.000000e-001
    endloop
  endfacet
  facet normal  5.877851e-001 -8.090171e-001  0.000000e+000
    outer loop
      vertex  1.170979e+000 -1.300503e+000  3.000000e-001
      vertex  8.750000e-001 -1.515544e+000 -7.450581e-010
      vertex  1.170979e+000 -1.300503e+000 -7.450581e-010
    endloop
  endfacet
  facet normal  7.431449e-001 -6.691304e-001  0.000000e+000
    outer loop
      vertex  1.170979e+000 -1.300503e+000  3.000000e-001
      vertex  1.170979e+000 -1.300503e+000 -7.450581e-010
      vertex  1.415780e+000 -1.028624e+000  3.000000e-001
    endloop
  endfacet
  facet normal  7.431449e-001 -6.691304e-001  0.000000e+000
    outer loop
      vertex  1.415780e+000 -1.028624e+000  3.000000e-001
      vertex  1.170979e+000 -1.300503e+000 -7.450581e-010
      vertex  1.415780e+000 -1.028624e+000 -7.450581e-010
    endloop
  endfacet
  facet normal  8.660253e-001 -5.000001e-001  0.000000e+000
    outer loop
      vertex  1.415780e+000 -1.028624e+000  3.000000e-001
      vertex  1.415780e+000 -1.028624e+000 -7.450581e-010
      vertex  1.598705e+000 -7.117891e-001  3.000000e-001
    endloop
  endfacet
  facet normal  8.660253e-001 -5.000001e-001  0.000000e+000
    outer loop
      vertex  1.598705e+000 -7.117891e-001  3.000000e-001
      vertex  1.415780e+000 -1.028624e+000 -7.450581e-010
      vertex  1.598705e+000 -7.117891e-001 -7.450581e-010
    endloop
  endfacet
  facet normal  9.510565e-001 -3.090168e-001  0.000000e+000
    outer loop
      vertex  1.598705e+000 -7.117891e-001  3.000000e-001
      vertex  1.598705e+000 -7.117891e-001 -7.450581e-010
      vertex  1.711758e+000 -3.638455e-001  3.000000e-001
    endloop
  endfacet
  facet normal  9.510565e-001 -3.090168e-001  0.000000e+000
    outer loop
      vertex  1.711758e+000 -3.638455e-001  3.000000e-001
      vertex  1.598705e+000 -7.117891e-001 -7.450581e-010
      vertex  1.711758e+000 -3.638455e-001 -7.450581e-010
    endloop
  endfacet
  facet normal  9.945219e-001 -1.045286e-001  0.000000e+000
    outer loop
      vertex  1.711758e+000 -3.638455e-001  3.000000e-001
      vertex  1.711758e+000 -3.638455e-001 -7.450581e-010
      vertex  1.750000e+000  2.143061e-016  3.000000e-001
    endloop
  endfacet
  facet normal  9.945219e-001 -1.045286e-001  0.000000e+000
    outer loop
      vertex  1.750000e+000  2.143061e-016  3.000000e-001
      vertex  1.711758e+000 -3.638455e-001 -7.450581e-010
      vertex  1.750000e+000  2.143061e-016 -7.450581e-010
    endloop
  endfacet
  facet normal  9.945219e-001  1.045286e-001  -0.000000e+000
    outer loop
      vertex  1.750000e+000  2.143061e-016  3.000000e-001
      vertex  1.750000e+000  2.143061e-016 -7.450581e-010
      vertex  1.711758e+000  3.638455e-001  3.000000e-001
    endloop
  endfacet
  facet normal  9.945219e-001  1.045286e-001  0.000000e+000
    outer loop
      vertex  1.711758e+000  3.638455e-001  3.000000e-001
      vertex  1.750000e+000  2.143061e-016 -7.450581e-010
      vertex  1.711758e+000  3.638455e-001 -7.450581e-010
    endloop
  endfacet
  facet normal  9.510565e-001  3.090168e-001  -0.000000e+000
    outer loop
      vertex  1.711758e+000  3.638455e-001  3.000000e-001
      vertex  1.711758e+000  3.638455e-001 -7.450581e-010
      vertex  1.598705e+000  7.117891e-001  3.000000e-001
    endloop
  endfacet
  facet normal  9.510565e-001  3.090168e-001  0.000000e+000
    outer loop
      vertex  1.598705e+000  7.117891e-001  3.000000e-001
      vertex  1.711758e+000  3.638455e-001 -7.450581e-010
      vertex  1.598705e+000  7.117891e-001 -7.450581e-010
    endloop
  endfacet
  facet normal  8.660253e-001  5.000001e-001  -0.000000e+000
    outer loop
      vertex  1.598705e+000  7.117891e-001  3.000000e-001
      vertex  1.598705e+000  7.117891e-001 -7.450581e-010
      vertex  1.415780e+000  1.028624e+000  3.000000e-001
    endloop
  endfacet
  facet normal  8.660253e-001  5.000001e-001  0.000000e+000
    outer loop
      vertex  1.415780e+000  1.028624e+000  3.000000e-001
      vertex  1.598705e+000  7.117891e-001 -7.450581e-010
      vertex  1.415780e+000  1.028624e+000 -7.450581e-010
    endloop
  endfacet
  facet normal  7.431449e-001  6.691304e-001  -0.000000e+000
    outer loop
      vertex  1.415780e+000  1.028624e+000  3.000000e-001
      vertex  1.415780e+000  1.028624e+000 -7.450581e-010
      vertex  1.170979e+000  1.300503e+000  3.000000e-001
    endloop
  endfacet
  facet normal  7.431449e-001  6.691304e-001  0.000000e+000
    outer loop
      vertex  1.170979e+000  1.300503e+000  3.000000e-001
      vertex  1.415780e+000  1.028624e+000 -7.450581e-010
      vertex  1.170979e+000  1.300503e+000 -7.450581e-010
    endloop
  endfacet
  facet normal  5.877851e-001  8.090171e-001  -0.000000e+000
    outer loop
      vertex  1.170979e+000  1.300503e+000  3.000000e-001
      vertex  1.170979e+000  1.300503e+000 -7.450581e-010
      vertex  8.750000e-001  1.515544e+000  3.000000e-001
    endloop
  endfacet
  facet normal  5.877851e-001  8.090171e-001  0.000000e+000
    outer loop
      vertex  8.750000e-001  1.515544e+000  3.000000e-001
      vertex  1.170979e+000  1.300503e+000 -7.450581e-010
      vertex  8.750000e-001  1.515544e+000 -7.450581e-010
    endloop
  endfacet
  facet normal  4.067369e-001  9.135454e-001  -0.000000e+000
    outer loop
      vertex  8.750000e-001  1.515544e+000  3.000000e-001
      vertex  8.750000e-001  1.515544e+000 -7.450581e-010
      vertex  5.407798e-001  1.664349e+000  3.000000e-001
    endloop
  endfacet
  facet normal  4.067369e-001  9.135454e-001  0.000000e+000
    outer loop
      vertex  5.407798e-001  1.664349e+000  3.000000e-001
      vertex  8.750000e-001  1.515544e+000 -7.450581e-010
      vertex  5.407798e-001  1.664349e+000 -7.450581e-010
    endloop
  endfacet
  facet normal  2.079115e-001  9.781477e-001  -0.000000e+000
    outer loop
      vertex  5.407798e-001  1.664349e+000  3.000000e-001
      vertex  5.407798e-001  1.664349e+000 -7.450581e-010
      vertex  1.829248e-001  1.740413e+000  3.000000e-001
    endloop
  endfacet
  facet normal  2.079115e-001  9.781477e-001  0.000000e+000
    outer loop
      vertex  1.829248e-001  1.740413e+000  3.000000e-001
      vertex  5.407798e-001  1.664349e+000 -7.450581e-010
      vertex  1.829248e-001  1.740413e+000 -7.450581e-010
    endloop
  endfacet
  facet normal  0.000000e+000  1.000000e+000  -0.000000e+000
    outer loop
      vertex  1.829248e-001  1.740413e+000  3.000000e-001
      vertex  1.829248e-001  1.740413e+000 -7.450581e-010
      vertex -1.829248e-001  1.740413e+000  3.000000e-001
    endloop
  endfacet
  facet normal  0.000000e+000  1.000000e+000  0.000000e+000
    outer loop
      vertex -1.829248e-001  1.740413e+000  3.000000e-001
      vertex  1.829248e-001  1.740413e+000 -7.450581e-010
      vertex -1.829248e-001  1.740413e+000 -7.450581e-010
    endloop
  endfacet
  facet normal -2.079115e-001  9.781477e-001  0.000000e+000
    outer loop
      vertex -1.829248e-001  1.740413e+000  3.000000e-001
      vertex -1.829248e-001  1.740413e+000 -7.450581e-010
      vertex -5.407798e-001  1.664349e+000  3.000000e-001
    endloop
  endfacet
  facet normal -2.079115e-001  9.781477e-001  0.000000e+000
    outer loop
      vertex -5.407798e-001  1.664349e+000  3.000000e-001
      vertex -1.829248e-001  1.740413e+000 -7.450581e-010
      vertex -5.407798e-001  1.664349e+000 -7.450581e-010
    endloop
  endfacet
  facet normal -4.067369e-001  9.135454e-001  0.000000e+000
    outer loop
      vertex -5.407798e-001  1.664349e+000  3.000000e-001
      vertex -5.407798e-001  1.664349e+000 -7.450581e-010
      vertex -8.750000e-001  1.515544e+000  3.000000e-001
    endloop
  endfacet
  facet normal -4.067369e-001  9.135454e-001  0.000000e+000
    outer loop
      vertex -8.750000e-001  1.515544e+000  3.000000e-001
      vertex -5.407798e-001  1.664349e+000 -7.450581e-010
      vertex -8.750000e-001  1.515544e+000 -7.450581e-010
    endloop
  endfacet
  facet normal -5.877851e-001  8.090171e-001  0.000000e+000
    outer loop
      vertex -8.750000e-001  1.515544e+000  3.000000e-001
      vertex -8.750000e-001  1.515544e+000 -7.450581e-010
      vertex -1.170979e+000  1.300503e+000  3.000000e-001
    endloop
  endfacet
  facet normal -5.877851e-001  8.090171e-001  0.000000e+000
    outer loop
      vertex -1.170979e+000  1.300503e+000  3.000000e-001
      vertex -8.750000e-001  1.515544e+000 -7.450581e-010
      vertex -1.170979e+000  1.300503e+000 -7.450581e-010
    endloop
  endfacet
  facet normal -7.431449e-001  6.691304e-001  0.000000e+000
    outer loop
      vertex -1.170979e+000  1.300503e+000  3.000000e-001
      vertex -1.170979e+000  1.300503e+000 -7.450581e-010
      vertex -1.415780e+000  1.028624e+000  3.000000e-001
    endloop
  endfacet
  facet normal -7.431449e-001  6.691304e-001  0.000000e+000
    outer loop
      vertex -1.415780e+000  1.028624e+000  3.000000e-001
      vertex -1.170979e+000  1.300503e+000 -7.450581e-010
      vertex -1.415780e+000  1.028624e+000 -7.450581e-010
    endloop
  endfacet
  facet normal -8.660253e-001  5.000001e-001  0.000000e+000
    outer loop
      vertex -1.415780e+000  1.028624e+000  3.000000e-001
      vertex -1.415780e+000  1.028624e+000 -7.450581e-010
      vertex -1.598705e+000  7.117891e-001  3.000000e-001
    endloop
  endfacet
  facet normal -8.660253e-001  5.000001e-001  0.000000e+000
    outer loop
      vertex -1.598705e+000  7.117891e-001  3.000000e-001
      vertex -1.415780e+000  1.028624e+000 -7.450581e-010
      vertex -1.598705e+000  7.117891e-001 -7.450581e-010
    endloop
  endfacet
  facet normal -9.510565e-001  3.090168e-001  0.000000e+000
    outer loop
      vertex -1.598705e+000  7.117891e-001  3.000000e-001
      vertex -1.598705e+000  7.117891e-001 -7.450581e-010
      vertex -1.711758e+000  3.638455e-001  3.000000e-001
    endloop
  endfacet
  facet normal -9.510565e-001  3.090168e-001  0.000000e+000
    outer loop
      vertex -1.711758e+000  3.638455e-001  3.000000e-001
      vertex -1.598705e+000  7.117891e-001 -7.450581e-010
      vertex -1.711758e+000  3.638455e-001 -7.450581e-010
    endloop
  endfacet
  facet normal -9.945219e-001  1.045286e-001  0.000000e+000
    outer loop
      vertex -1.711758e+000  3.638455e-001  3.000000e-001
      vertex -1.711758e+000  3.638455e-001 -7.450581e-010
      vertex -1.750000e+000  0.000000e+000  3.000000e-001
    endloop
  endfacet
  facet normal -9.945219e-001  1.045286e-001  0.000000e+000
    outer loop
      vertex -1.750000e+000  0.000000e+000  3.000000e-001
      vertex -1.711758e+000  3.638455e-001 -7.450581e-010
      vertex -1.750000e+000  0.000000e+000 -7.450581e-010
    endloop
  endfacet
endsolid CATIA STL
