solid CATIA STL
  facet normal  0.000000e+000  0.000000e+000  1.000000e+000
    outer loop
      vertex  2.335000e+001  1.500000e+000  4.365000e+001
      vertex  2.565000e+001  1.500000e+000  4.365000e+001
      vertex  2.335000e+001  8.500000e+000  4.365000e+001
    endloop
  endfacet
  facet normal  -0.000000e+000  0.000000e+000  1.000000e+000
    outer loop
      vertex  2.335000e+001  8.500000e+000  4.365000e+001
      vertex  2.565000e+001  1.500000e+000  4.365000e+001
      vertex  2.565000e+001  8.500000e+000  4.365000e+001
    endloop
  endfacet
  facet normal  0.000000e+000  1.000000e+000  0.000000e+000
    outer loop
      vertex  2.565000e+001  8.500000e+000  4.235000e+001
      vertex  2.335000e+001  8.500000e+000  4.235000e+001
      vertex  2.565000e+001  8.500000e+000  4.365000e+001
    endloop
  endfacet
  facet normal  0.000000e+000  1.000000e+000  0.000000e+000
    outer loop
      vertex  2.565000e+001  8.500000e+000  4.365000e+001
      vertex  2.335000e+001  8.500000e+000  4.235000e+001
      vertex  2.335000e+001  8.500000e+000  4.365000e+001
    endloop
  endfacet
  facet normal -1.000000e+000  -0.000000e+000  0.000000e+000
    outer loop
      vertex  2.335000e+001  1.500000e+000  4.365000e+001
      vertex  2.335000e+001  8.500000e+000  4.365000e+001
      vertex  2.335000e+001  1.500000e+000  4.235000e+001
    endloop
  endfacet
  facet normal -1.000000e+000  0.000000e+000  0.000000e+000
    outer loop
      vertex  2.335000e+001  1.500000e+000  4.235000e+001
      vertex  2.335000e+001  8.500000e+000  4.365000e+001
      vertex  2.335000e+001  8.500000e+000  4.235000e+001
    endloop
  endfacet
  facet normal  1.000000e+000  0.000000e+000  0.000000e+000
    outer loop
      vertex  2.565000e+001  1.500000e+000  4.235000e+001
      vertex  2.565000e+001  8.500000e+000  4.235000e+001
      vertex  2.565000e+001  1.500000e+000  4.365000e+001
    endloop
  endfacet
  facet normal  1.000000e+000  -0.000000e+000  0.000000e+000
    outer loop
      vertex  2.565000e+001  1.500000e+000  4.365000e+001
      vertex  2.565000e+001  8.500000e+000  4.235000e+001
      vertex  2.565000e+001  8.500000e+000  4.365000e+001
    endloop
  endfacet
  facet normal  0.000000e+000  0.000000e+000 -1.000000e+000
    outer loop
      vertex  2.565000e+001  1.500000e+000  4.235000e+001
      vertex  2.335000e+001  1.500000e+000  4.235000e+001
      vertex  2.565000e+001  8.500000e+000  4.235000e+001
    endloop
  endfacet
  facet normal  -0.000000e+000  0.000000e+000 -1.000000e+000
    outer loop
      vertex  2.565000e+001  8.500000e+000  4.235000e+001
      vertex  2.335000e+001  1.500000e+000  4.235000e+001
      vertex  2.335000e+001  8.500000e+000  4.235000e+001
    endloop
  endfacet
  facet normal  0.000000e+000  1.000000e+000  0.000000e+000
    outer loop
      vertex -4.000000e+001  1.500000e+000  4.000000e+001
      vertex -2.565000e+001  1.500000e+000  4.365000e+001
      vertex -2.565000e+001  1.500000e+000  4.235000e+001
    endloop
  endfacet
  facet normal  0.000000e+000  1.000000e+000  0.000000e+000
    outer loop
      vertex  4.000000e+001  1.500000e+000  4.000000e+001
      vertex -4.000000e+001  1.500000e+000  4.000000e+001
      vertex -2.565000e+001  1.500000e+000  4.235000e+001
    endloop
  endfacet
  facet normal  -0.000000e+000  1.000000e+000  0.000000e+000
    outer loop
      vertex  4.000000e+001  1.500000e+000  4.000000e+001
      vertex -2.565000e+001  1.500000e+000  4.235000e+001
      vertex -2.335000e+001  1.500000e+000  4.235000e+001
    endloop
  endfacet
  facet normal  -0.000000e+000  1.000000e+000  0.000000e+000
    outer loop
      vertex  4.000000e+001  1.500000e+000  4.000000e+001
      vertex -2.335000e+001  1.500000e+000  4.235000e+001
      vertex  2.335000e+001  1.500000e+000  4.235000e+001
    endloop
  endfacet
  facet normal  -0.000000e+000  1.000000e+000  0.000000e+000
    outer loop
      vertex  4.000000e+001  1.500000e+000  4.000000e+001
      vertex  2.335000e+001  1.500000e+000  4.235000e+001
      vertex  2.565000e+001  1.500000e+000  4.235000e+001
    endloop
  endfacet
  facet normal  -0.000000e+000  1.000000e+000  0.000000e+000
    outer loop
      vertex  4.000000e+001  1.500000e+000  4.000000e+001
      vertex  2.565000e+001  1.500000e+000  4.235000e+001
      vertex  2.565000e+001  1.500000e+000  4.365000e+001
    endloop
  endfacet
  facet normal  0.000000e+000  1.000000e+000  0.000000e+000
    outer loop
      vertex  4.300000e+001  1.500000e+000 -4.600000e+001
      vertex -4.300000e+001  1.500000e+000 -4.600000e+001
      vertex -2.565000e+001  1.500000e+000 -4.365000e+001
    endloop
  endfacet
  facet normal  -0.000000e+000  1.000000e+000  0.000000e+000
    outer loop
      vertex  4.300000e+001  1.500000e+000 -4.600000e+001
      vertex -2.565000e+001  1.500000e+000 -4.365000e+001
      vertex -2.335000e+001  1.500000e+000 -4.365000e+001
    endloop
  endfacet
  facet normal  -0.000000e+000  1.000000e+000  0.000000e+000
    outer loop
      vertex  4.300000e+001  1.500000e+000 -4.600000e+001
      vertex -2.335000e+001  1.500000e+000 -4.365000e+001
      vertex  2.335000e+001  1.500000e+000 -4.365000e+001
    endloop
  endfacet
  facet normal  -0.000000e+000  1.000000e+000  0.000000e+000
    outer loop
      vertex  4.300000e+001  1.500000e+000 -4.600000e+001
      vertex  2.335000e+001  1.500000e+000 -4.365000e+001
      vertex  2.565000e+001  1.500000e+000 -4.365000e+001
    endloop
  endfacet
  facet normal  -0.000000e+000  1.000000e+000  0.000000e+000
    outer loop
      vertex  4.300000e+001  1.500000e+000 -4.600000e+001
      vertex  2.565000e+001  1.500000e+000 -4.365000e+001
      vertex  2.565000e+001  1.500000e+000 -4.235000e+001
    endloop
  endfacet
  facet normal  -0.000000e+000  1.000000e+000  0.000000e+000
    outer loop
      vertex  4.300000e+001  1.500000e+000 -4.600000e+001
      vertex  2.565000e+001  1.500000e+000 -4.235000e+001
      vertex  4.000000e+001  1.500000e+000 -4.000000e+001
    endloop
  endfacet
  facet normal  -0.000000e+000  1.000000e+000  0.000000e+000
    outer loop
      vertex  4.300000e+001  1.500000e+000 -4.600000e+001
      vertex  4.000000e+001  1.500000e+000 -4.000000e+001
      vertex  4.235000e+001  1.500000e+000 -2.565000e+001
    endloop
  endfacet
  facet normal  -0.000000e+000  1.000000e+000  0.000000e+000
    outer loop
      vertex  4.300000e+001  1.500000e+000 -4.600000e+001
      vertex  4.235000e+001  1.500000e+000 -2.565000e+001
      vertex  4.365000e+001  1.500000e+000 -2.565000e+001
    endloop
  endfacet
  facet normal  0.000000e+000  9.999999e-001  0.000000e+000
    outer loop
      vertex  4.300000e+001  1.500000e+000 -4.600000e+001
      vertex  4.365000e+001  1.500000e+000 -2.565000e+001
      vertex  4.600000e+001  1.500000e+000 -4.300000e+001
    endloop
  endfacet
  facet normal  0.000000e+000  1.000000e+000  0.000000e+000
    outer loop
      vertex  4.300000e+001  1.500000e+000 -4.600000e+001
      vertex  4.600000e+001  1.500000e+000 -4.300000e+001
      vertex  4.559808e+001  1.500000e+000 -4.450000e+001
    endloop
  endfacet
  facet normal  0.000000e+000  1.000000e+000  0.000000e+000
    outer loop
      vertex  4.300000e+001  1.500000e+000 -4.600000e+001
      vertex  4.559808e+001  1.500000e+000 -4.450000e+001
      vertex  4.450000e+001  1.500000e+000 -4.559808e+001
    endloop
  endfacet
  facet normal  0.000000e+000  1.000000e+000  -0.000000e+000
    outer loop
      vertex  4.600000e+001  1.500000e+000  4.300000e+001
      vertex  4.600000e+001  1.500000e+000 -4.300000e+001
      vertex  4.365000e+001  1.500000e+000 -2.565000e+001
    endloop
  endfacet
  facet normal  0.000000e+000  1.000000e+000  0.000000e+000
    outer loop
      vertex  4.600000e+001  1.500000e+000  4.300000e+001
      vertex  4.365000e+001  1.500000e+000 -2.565000e+001
      vertex  4.365000e+001  1.500000e+000 -2.335000e+001
    endloop
  endfacet
  facet normal  0.000000e+000  1.000000e+000  0.000000e+000
    outer loop
      vertex  4.600000e+001  1.500000e+000  4.300000e+001
      vertex  4.365000e+001  1.500000e+000 -2.335000e+001
      vertex  4.365000e+001  1.500000e+000  2.335000e+001
    endloop
  endfacet
  facet normal  0.000000e+000  1.000000e+000  0.000000e+000
    outer loop
      vertex  4.600000e+001  1.500000e+000  4.300000e+001
      vertex  4.365000e+001  1.500000e+000  2.335000e+001
      vertex  4.365000e+001  1.500000e+000  2.565000e+001
    endloop
  endfacet
  facet normal  0.000000e+000  1.000000e+000  0.000000e+000
    outer loop
      vertex -4.300000e+001  1.500000e+000  4.600000e+001
      vertex  4.300000e+001  1.500000e+000  4.600000e+001
      vertex -2.335000e+001  1.500000e+000  4.365000e+001
    endloop
  endfacet
  facet normal  0.000000e+000  1.000000e+000  0.000000e+000
    outer loop
      vertex -4.300000e+001  1.500000e+000  4.600000e+001
      vertex -2.335000e+001  1.500000e+000  4.365000e+001
      vertex -2.565000e+001  1.500000e+000  4.365000e+001
    endloop
  endfacet
  facet normal  0.000000e+000  1.000000e+000  0.000000e+000
    outer loop
      vertex -4.300000e+001  1.500000e+000  4.600000e+001
      vertex -2.565000e+001  1.500000e+000  4.365000e+001
      vertex -4.000000e+001  1.500000e+000  4.000000e+001
    endloop
  endfacet
  facet normal  0.000000e+000  1.000000e+000  0.000000e+000
    outer loop
      vertex -4.300000e+001  1.500000e+000  4.600000e+001
      vertex -4.000000e+001  1.500000e+000  4.000000e+001
      vertex -4.235000e+001  1.500000e+000  2.565000e+001
    endloop
  endfacet
  facet normal  0.000000e+000  1.000000e+000  0.000000e+000
    outer loop
      vertex -4.600000e+001  1.500000e+000  4.300000e+001
      vertex -4.365000e+001  1.500000e+000  2.565000e+001
      vertex -4.365000e+001  1.500000e+000  2.335000e+001
    endloop
  endfacet
  facet normal  0.000000e+000  1.000000e+000  0.000000e+000
    outer loop
      vertex -4.600000e+001  1.500000e+000  4.300000e+001
      vertex -4.365000e+001  1.500000e+000  2.335000e+001
      vertex -4.365000e+001  1.500000e+000 -2.335000e+001
    endloop
  endfacet
  facet normal  0.000000e+000  1.000000e+000  0.000000e+000
    outer loop
      vertex -4.600000e+001  1.500000e+000  4.300000e+001
      vertex -4.365000e+001  1.500000e+000 -2.335000e+001
      vertex -4.365000e+001  1.500000e+000 -2.565000e+001
    endloop
  endfacet
  facet normal  0.000000e+000  1.000000e+000  0.000000e+000
    outer loop
      vertex -4.600000e+001  1.500000e+000  4.300000e+001
      vertex -4.365000e+001  1.500000e+000 -2.565000e+001
      vertex -4.600000e+001  1.500000e+000 -4.300000e+001
    endloop
  endfacet
  facet normal  -0.000000e+000  1.000000e+000  -0.000000e+000
    outer loop
      vertex -4.300000e+001  1.500000e+000 -4.600000e+001
      vertex -4.450000e+001  1.500000e+000 -4.559808e+001
      vertex -4.559808e+001  1.500000e+000 -4.450000e+001
    endloop
  endfacet
  facet normal  -0.000000e+000  1.000000e+000  -0.000000e+000
    outer loop
      vertex -4.300000e+001  1.500000e+000 -4.600000e+001
      vertex -4.559808e+001  1.500000e+000 -4.450000e+001
      vertex -4.600000e+001  1.500000e+000 -4.300000e+001
    endloop
  endfacet
  facet normal  -0.000000e+000  9.999999e-001  0.000000e+000
    outer loop
      vertex -4.300000e+001  1.500000e+000 -4.600000e+001
      vertex -4.600000e+001  1.500000e+000 -4.300000e+001
      vertex -4.365000e+001  1.500000e+000 -2.565000e+001
    endloop
  endfacet
  facet normal  -0.000000e+000  1.000000e+000  0.000000e+000
    outer loop
      vertex -4.300000e+001  1.500000e+000 -4.600000e+001
      vertex -4.365000e+001  1.500000e+000 -2.565000e+001
      vertex -4.235000e+001  1.500000e+000 -2.565000e+001
    endloop
  endfacet
  facet normal  0.000000e+000  1.000000e+000  0.000000e+000
    outer loop
      vertex -4.300000e+001  1.500000e+000 -4.600000e+001
      vertex -4.235000e+001  1.500000e+000 -2.565000e+001
      vertex -4.000000e+001  1.500000e+000 -4.000000e+001
    endloop
  endfacet
  facet normal  0.000000e+000  1.000000e+000  0.000000e+000
    outer loop
      vertex -4.300000e+001  1.500000e+000 -4.600000e+001
      vertex -4.000000e+001  1.500000e+000 -4.000000e+001
      vertex -2.565000e+001  1.500000e+000 -4.235000e+001
    endloop
  endfacet
  facet normal  0.000000e+000  1.000000e+000  0.000000e+000
    outer loop
      vertex -4.300000e+001  1.500000e+000 -4.600000e+001
      vertex -2.565000e+001  1.500000e+000 -4.235000e+001
      vertex -2.565000e+001  1.500000e+000 -4.365000e+001
    endloop
  endfacet
  facet normal  0.000000e+000  1.000000e+000  -0.000000e+000
    outer loop
      vertex  4.000000e+001  1.500000e+000 -4.000000e+001
      vertex  2.565000e+001  1.500000e+000 -4.235000e+001
      vertex  2.335000e+001  1.500000e+000 -4.235000e+001
    endloop
  endfacet
  facet normal  0.000000e+000  1.000000e+000  -0.000000e+000
    outer loop
      vertex  4.000000e+001  1.500000e+000 -4.000000e+001
      vertex  2.335000e+001  1.500000e+000 -4.235000e+001
      vertex -2.335000e+001  1.500000e+000 -4.235000e+001
    endloop
  endfacet
  facet normal  0.000000e+000  1.000000e+000  -0.000000e+000
    outer loop
      vertex  4.000000e+001  1.500000e+000 -4.000000e+001
      vertex -2.335000e+001  1.500000e+000 -4.235000e+001
      vertex -2.565000e+001  1.500000e+000 -4.235000e+001
    endloop
  endfacet
  facet normal  0.000000e+000  1.000000e+000  -0.000000e+000
    outer loop
      vertex  4.000000e+001  1.500000e+000 -4.000000e+001
      vertex -2.565000e+001  1.500000e+000 -4.235000e+001
      vertex -4.000000e+001  1.500000e+000 -4.000000e+001
    endloop
  endfacet
  facet normal  0.000000e+000  1.000000e+000  -0.000000e+000
    outer loop
      vertex  4.300000e+001  1.500000e+000  4.600000e+001
      vertex  4.000000e+001  1.500000e+000  4.000000e+001
      vertex  2.565000e+001  1.500000e+000  4.365000e+001
    endloop
  endfacet
  facet normal  0.000000e+000  1.000000e+000  -0.000000e+000
    outer loop
      vertex  4.300000e+001  1.500000e+000  4.600000e+001
      vertex  2.565000e+001  1.500000e+000  4.365000e+001
      vertex  2.335000e+001  1.500000e+000  4.365000e+001
    endloop
  endfacet
  facet normal  0.000000e+000  1.000000e+000  -0.000000e+000
    outer loop
      vertex  4.300000e+001  1.500000e+000  4.600000e+001
      vertex  2.335000e+001  1.500000e+000  4.365000e+001
      vertex -2.335000e+001  1.500000e+000  4.365000e+001
    endloop
  endfacet
  facet normal  0.000000e+000  1.000000e+000  0.000000e+000
    outer loop
      vertex  4.000000e+001  1.500000e+000  4.000000e+001
      vertex  4.235000e+001  1.500000e+000  2.565000e+001
      vertex  4.235000e+001  1.500000e+000  2.335000e+001
    endloop
  endfacet
  facet normal  0.000000e+000  1.000000e+000  0.000000e+000
    outer loop
      vertex  4.000000e+001  1.500000e+000  4.000000e+001
      vertex  4.235000e+001  1.500000e+000  2.335000e+001
      vertex  4.235000e+001  1.500000e+000 -2.335000e+001
    endloop
  endfacet
  facet normal  0.000000e+000  1.000000e+000  0.000000e+000
    outer loop
      vertex  4.000000e+001  1.500000e+000  4.000000e+001
      vertex  4.235000e+001  1.500000e+000 -2.335000e+001
      vertex  4.235000e+001  1.500000e+000 -2.565000e+001
    endloop
  endfacet
  facet normal  0.000000e+000  1.000000e+000  0.000000e+000
    outer loop
      vertex  4.000000e+001  1.500000e+000  4.000000e+001
      vertex  4.235000e+001  1.500000e+000 -2.565000e+001
      vertex  4.000000e+001  1.500000e+000 -4.000000e+001
    endloop
  endfacet
  facet normal  0.000000e+000  1.000000e+000  -0.000000e+000
    outer loop
      vertex -4.000000e+001  1.500000e+000  4.000000e+001
      vertex -4.000000e+001  1.500000e+000 -4.000000e+001
      vertex -4.235000e+001  1.500000e+000 -2.565000e+001
    endloop
  endfacet
  facet normal  0.000000e+000  1.000000e+000  0.000000e+000
    outer loop
      vertex -4.000000e+001  1.500000e+000  4.000000e+001
      vertex -4.235000e+001  1.500000e+000 -2.565000e+001
      vertex -4.235000e+001  1.500000e+000 -2.335000e+001
    endloop
  endfacet
  facet normal  0.000000e+000  1.000000e+000  0.000000e+000
    outer loop
      vertex -4.000000e+001  1.500000e+000  4.000000e+001
      vertex -4.235000e+001  1.500000e+000 -2.335000e+001
      vertex -4.235000e+001  1.500000e+000  2.335000e+001
    endloop
  endfacet
  facet normal  0.000000e+000  1.000000e+000  0.000000e+000
    outer loop
      vertex -4.000000e+001  1.500000e+000  4.000000e+001
      vertex -4.235000e+001  1.500000e+000  2.335000e+001
      vertex -4.235000e+001  1.500000e+000  2.565000e+001
    endloop
  endfacet
  facet normal  0.000000e+000  1.000000e+000  0.000000e+000
    outer loop
      vertex  4.235000e+001  1.500000e+000 -2.335000e+001
      vertex  4.235000e+001  1.500000e+000  2.335000e+001
      vertex  4.365000e+001  1.500000e+000 -2.335000e+001
    endloop
  endfacet
  facet normal  0.000000e+000  1.000000e+000  -0.000000e+000
    outer loop
      vertex  4.365000e+001  1.500000e+000 -2.335000e+001
      vertex  4.235000e+001  1.500000e+000  2.335000e+001
      vertex  4.365000e+001  1.500000e+000  2.335000e+001
    endloop
  endfacet
  facet normal  0.000000e+000  1.000000e+000  0.000000e+000
    outer loop
      vertex -4.365000e+001  1.500000e+000 -2.335000e+001
      vertex -4.365000e+001  1.500000e+000  2.335000e+001
      vertex -4.235000e+001  1.500000e+000 -2.335000e+001
    endloop
  endfacet
  facet normal  0.000000e+000  1.000000e+000  -0.000000e+000
    outer loop
      vertex -4.235000e+001  1.500000e+000 -2.335000e+001
      vertex -4.365000e+001  1.500000e+000  2.335000e+001
      vertex -4.235000e+001  1.500000e+000  2.335000e+001
    endloop
  endfacet
  facet normal  0.000000e+000  1.000000e+000  0.000000e+000
    outer loop
      vertex -4.600000e+001  1.500000e+000  4.300000e+001
      vertex -4.559808e+001  1.500000e+000  4.450000e+001
      vertex -4.365000e+001  1.500000e+000  2.565000e+001
    endloop
  endfacet
  facet normal  0.000000e+000  1.000000e+000  0.000000e+000
    outer loop
      vertex -4.365000e+001  1.500000e+000  2.565000e+001
      vertex -4.559808e+001  1.500000e+000  4.450000e+001
      vertex -4.450000e+001  1.500000e+000  4.559808e+001
    endloop
  endfacet
  facet normal  0.000000e+000  1.000000e+000  0.000000e+000
    outer loop
      vertex -4.365000e+001  1.500000e+000  2.565000e+001
      vertex -4.450000e+001  1.500000e+000  4.559808e+001
      vertex -4.235000e+001  1.500000e+000  2.565000e+001
    endloop
  endfacet
  facet normal  0.000000e+000  1.000000e+000  0.000000e+000
    outer loop
      vertex -4.235000e+001  1.500000e+000  2.565000e+001
      vertex -4.450000e+001  1.500000e+000  4.559808e+001
      vertex -4.300000e+001  1.500000e+000  4.600000e+001
    endloop
  endfacet
  facet normal  0.000000e+000  1.000000e+000  0.000000e+000
    outer loop
      vertex  4.235000e+001  1.500000e+000  2.565000e+001
      vertex  4.000000e+001  1.500000e+000  4.000000e+001
      vertex  4.365000e+001  1.500000e+000  2.565000e+001
    endloop
  endfacet
  facet normal  0.000000e+000  1.000000e+000  0.000000e+000
    outer loop
      vertex  4.365000e+001  1.500000e+000  2.565000e+001
      vertex  4.000000e+001  1.500000e+000  4.000000e+001
      vertex  4.300000e+001  1.500000e+000  4.600000e+001
    endloop
  endfacet
  facet normal  0.000000e+000  9.999999e-001  0.000000e+000
    outer loop
      vertex  4.365000e+001  1.500000e+000  2.565000e+001
      vertex  4.300000e+001  1.500000e+000  4.600000e+001
      vertex  4.600000e+001  1.500000e+000  4.300000e+001
    endloop
  endfacet
  facet normal  0.000000e+000  1.000000e+000  0.000000e+000
    outer loop
      vertex  4.600000e+001  1.500000e+000  4.300000e+001
      vertex  4.300000e+001  1.500000e+000  4.600000e+001
      vertex  4.450000e+001  1.500000e+000  4.559808e+001
    endloop
  endfacet
  facet normal  0.000000e+000  1.000000e+000  0.000000e+000
    outer loop
      vertex  4.600000e+001  1.500000e+000  4.300000e+001
      vertex  4.450000e+001  1.500000e+000  4.559808e+001
      vertex  4.559808e+001  1.500000e+000  4.450000e+001
    endloop
  endfacet
  facet normal  0.000000e+000  1.000000e+000  0.000000e+000
    outer loop
      vertex  2.335000e+001  1.500000e+000  4.235000e+001
      vertex -2.335000e+001  1.500000e+000  4.235000e+001
      vertex  2.335000e+001  1.500000e+000  4.365000e+001
    endloop
  endfacet
  facet normal  0.000000e+000  1.000000e+000  0.000000e+000
    outer loop
      vertex  2.335000e+001  1.500000e+000  4.365000e+001
      vertex -2.335000e+001  1.500000e+000  4.235000e+001
      vertex -2.335000e+001  1.500000e+000  4.365000e+001
    endloop
  endfacet
  facet normal  0.000000e+000  1.000000e+000  0.000000e+000
    outer loop
      vertex  2.335000e+001  1.500000e+000 -4.365000e+001
      vertex -2.335000e+001  1.500000e+000 -4.365000e+001
      vertex  2.335000e+001  1.500000e+000 -4.235000e+001
    endloop
  endfacet
  facet normal  0.000000e+000  1.000000e+000  0.000000e+000
    outer loop
      vertex  2.335000e+001  1.500000e+000 -4.235000e+001
      vertex -2.335000e+001  1.500000e+000 -4.365000e+001
      vertex -2.335000e+001  1.500000e+000 -4.235000e+001
    endloop
  endfacet
  facet normal  0.000000e+000  0.000000e+000  1.000000e+000
    outer loop
      vertex -2.565000e+001  1.500000e+000  4.365000e+001
      vertex -2.335000e+001  1.500000e+000  4.365000e+001
      vertex -2.565000e+001  8.500000e+000  4.365000e+001
    endloop
  endfacet
  facet normal  -0.000000e+000  0.000000e+000  1.000000e+000
    outer loop
      vertex -2.565000e+001  8.500000e+000  4.365000e+001
      vertex -2.335000e+001  1.500000e+000  4.365000e+001
      vertex -2.335000e+001  8.500000e+000  4.365000e+001
    endloop
  endfacet
  facet normal -1.000000e+000  -0.000000e+000  0.000000e+000
    outer loop
      vertex -2.565000e+001  1.500000e+000  4.365000e+001
      vertex -2.565000e+001  8.500000e+000  4.365000e+001
      vertex -2.565000e+001  1.500000e+000  4.235000e+001
    endloop
  endfacet
  facet normal -1.000000e+000  0.000000e+000  0.000000e+000
    outer loop
      vertex -2.565000e+001  1.500000e+000  4.235000e+001
      vertex -2.565000e+001  8.500000e+000  4.365000e+001
      vertex -2.565000e+001  8.500000e+000  4.235000e+001
    endloop
  endfacet
  facet normal  1.000000e+000  0.000000e+000  0.000000e+000
    outer loop
      vertex -2.335000e+001  1.500000e+000  4.235000e+001
      vertex -2.335000e+001  8.500000e+000  4.235000e+001
      vertex -2.335000e+001  1.500000e+000  4.365000e+001
    endloop
  endfacet
  facet normal  1.000000e+000  -0.000000e+000  0.000000e+000
    outer loop
      vertex -2.335000e+001  1.500000e+000  4.365000e+001
      vertex -2.335000e+001  8.500000e+000  4.235000e+001
      vertex -2.335000e+001  8.500000e+000  4.365000e+001
    endloop
  endfacet
  facet normal  0.000000e+000  0.000000e+000 -1.000000e+000
    outer loop
      vertex -2.335000e+001  1.500000e+000  4.235000e+001
      vertex -2.565000e+001  1.500000e+000  4.235000e+001
      vertex -2.335000e+001  8.500000e+000  4.235000e+001
    endloop
  endfacet
  facet normal  -0.000000e+000  0.000000e+000 -1.000000e+000
    outer loop
      vertex -2.335000e+001  8.500000e+000  4.235000e+001
      vertex -2.565000e+001  1.500000e+000  4.235000e+001
      vertex -2.565000e+001  8.500000e+000  4.235000e+001
    endloop
  endfacet
  facet normal  0.000000e+000  1.000000e+000  0.000000e+000
    outer loop
      vertex -2.335000e+001  8.500000e+000  4.235000e+001
      vertex -2.565000e+001  8.500000e+000  4.235000e+001
      vertex -2.335000e+001  8.500000e+000  4.365000e+001
    endloop
  endfacet
  facet normal  0.000000e+000  1.000000e+000  0.000000e+000
    outer loop
      vertex -2.335000e+001  8.500000e+000  4.365000e+001
      vertex -2.565000e+001  8.500000e+000  4.235000e+001
      vertex -2.565000e+001  8.500000e+000  4.365000e+001
    endloop
  endfacet
  facet normal  0.000000e+000  0.000000e+000  1.000000e+000
    outer loop
      vertex  2.335000e+001  1.500000e+000 -4.235000e+001
      vertex  2.565000e+001  1.500000e+000 -4.235000e+001
      vertex  2.335000e+001  8.500000e+000 -4.235000e+001
    endloop
  endfacet
  facet normal  -0.000000e+000  0.000000e+000  1.000000e+000
    outer loop
      vertex  2.335000e+001  8.500000e+000 -4.235000e+001
      vertex  2.565000e+001  1.500000e+000 -4.235000e+001
      vertex  2.565000e+001  8.500000e+000 -4.235000e+001
    endloop
  endfacet
  facet normal  0.000000e+000  1.000000e+000  0.000000e+000
    outer loop
      vertex  2.565000e+001  8.500000e+000 -4.365000e+001
      vertex  2.335000e+001  8.500000e+000 -4.365000e+001
      vertex  2.565000e+001  8.500000e+000 -4.235000e+001
    endloop
  endfacet
  facet normal  0.000000e+000  1.000000e+000  0.000000e+000
    outer loop
      vertex  2.565000e+001  8.500000e+000 -4.235000e+001
      vertex  2.335000e+001  8.500000e+000 -4.365000e+001
      vertex  2.335000e+001  8.500000e+000 -4.235000e+001
    endloop
  endfacet
  facet normal -1.000000e+000  -0.000000e+000  0.000000e+000
    outer loop
      vertex  2.335000e+001  1.500000e+000 -4.235000e+001
      vertex  2.335000e+001  8.500000e+000 -4.235000e+001
      vertex  2.335000e+001  1.500000e+000 -4.365000e+001
    endloop
  endfacet
  facet normal -1.000000e+000  0.000000e+000  0.000000e+000
    outer loop
      vertex  2.335000e+001  1.500000e+000 -4.365000e+001
      vertex  2.335000e+001  8.500000e+000 -4.235000e+001
      vertex  2.335000e+001  8.500000e+000 -4.365000e+001
    endloop
  endfacet
  facet normal  1.000000e+000  0.000000e+000  0.000000e+000
    outer loop
      vertex  2.565000e+001  1.500000e+000 -4.365000e+001
      vertex  2.565000e+001  8.500000e+000 -4.365000e+001
      vertex  2.565000e+001  1.500000e+000 -4.235000e+001
    endloop
  endfacet
  facet normal  1.000000e+000  -0.000000e+000  0.000000e+000
    outer loop
      vertex  2.565000e+001  1.500000e+000 -4.235000e+001
      vertex  2.565000e+001  8.500000e+000 -4.365000e+001
      vertex  2.565000e+001  8.500000e+000 -4.235000e+001
    endloop
  endfacet
  facet normal  0.000000e+000  0.000000e+000 -1.000000e+000
    outer loop
      vertex  2.565000e+001  1.500000e+000 -4.365000e+001
      vertex  2.335000e+001  1.500000e+000 -4.365000e+001
      vertex  2.565000e+001  8.500000e+000 -4.365000e+001
    endloop
  endfacet
  facet normal  -0.000000e+000  0.000000e+000 -1.000000e+000
    outer loop
      vertex  2.565000e+001  8.500000e+000 -4.365000e+001
      vertex  2.335000e+001  1.500000e+000 -4.365000e+001
      vertex  2.335000e+001  8.500000e+000 -4.365000e+001
    endloop
  endfacet
  facet normal  0.000000e+000  0.000000e+000  1.000000e+000
    outer loop
      vertex -2.565000e+001  1.500000e+000 -4.235000e+001
      vertex -2.335000e+001  1.500000e+000 -4.235000e+001
      vertex -2.565000e+001  8.500000e+000 -4.235000e+001
    endloop
  endfacet
  facet normal  -0.000000e+000  0.000000e+000  1.000000e+000
    outer loop
      vertex -2.565000e+001  8.500000e+000 -4.235000e+001
      vertex -2.335000e+001  1.500000e+000 -4.235000e+001
      vertex -2.335000e+001  8.500000e+000 -4.235000e+001
    endloop
  endfacet
  facet normal -1.000000e+000  -0.000000e+000  0.000000e+000
    outer loop
      vertex -2.565000e+001  1.500000e+000 -4.235000e+001
      vertex -2.565000e+001  8.500000e+000 -4.235000e+001
      vertex -2.565000e+001  1.500000e+000 -4.365000e+001
    endloop
  endfacet
  facet normal -1.000000e+000  0.000000e+000  0.000000e+000
    outer loop
      vertex -2.565000e+001  1.500000e+000 -4.365000e+001
      vertex -2.565000e+001  8.500000e+000 -4.235000e+001
      vertex -2.565000e+001  8.500000e+000 -4.365000e+001
    endloop
  endfacet
  facet normal  1.000000e+000  0.000000e+000  0.000000e+000
    outer loop
      vertex -2.335000e+001  1.500000e+000 -4.365000e+001
      vertex -2.335000e+001  8.500000e+000 -4.365000e+001
      vertex -2.335000e+001  1.500000e+000 -4.235000e+001
    endloop
  endfacet
  facet normal  1.000000e+000  -0.000000e+000  0.000000e+000
    outer loop
      vertex -2.335000e+001  1.500000e+000 -4.235000e+001
      vertex -2.335000e+001  8.500000e+000 -4.365000e+001
      vertex -2.335000e+001  8.500000e+000 -4.235000e+001
    endloop
  endfacet
  facet normal  0.000000e+000  0.000000e+000 -1.000000e+000
    outer loop
      vertex -2.335000e+001  1.500000e+000 -4.365000e+001
      vertex -2.565000e+001  1.500000e+000 -4.365000e+001
      vertex -2.335000e+001  8.500000e+000 -4.365000e+001
    endloop
  endfacet
  facet normal  -0.000000e+000  0.000000e+000 -1.000000e+000
    outer loop
      vertex -2.335000e+001  8.500000e+000 -4.365000e+001
      vertex -2.565000e+001  1.500000e+000 -4.365000e+001
      vertex -2.565000e+001  8.500000e+000 -4.365000e+001
    endloop
  endfacet
  facet normal  0.000000e+000  1.000000e+000  0.000000e+000
    outer loop
      vertex -2.335000e+001  8.500000e+000 -4.365000e+001
      vertex -2.565000e+001  8.500000e+000 -4.365000e+001
      vertex -2.335000e+001  8.500000e+000 -4.235000e+001
    endloop
  endfacet
  facet normal  0.000000e+000  1.000000e+000  0.000000e+000
    outer loop
      vertex -2.335000e+001  8.500000e+000 -4.235000e+001
      vertex -2.565000e+001  8.500000e+000 -4.365000e+001
      vertex -2.565000e+001  8.500000e+000 -4.235000e+001
    endloop
  endfacet
  facet normal -1.000000e+000  0.000000e+000  0.000000e+000
    outer loop
      vertex -4.365000e+001  1.500000e+000 -2.565000e+001
      vertex -4.365000e+001  1.500000e+000 -2.335000e+001
      vertex -4.365000e+001  8.500000e+000 -2.565000e+001
    endloop
  endfacet
  facet normal -1.000000e+000  0.000000e+000  0.000000e+000
    outer loop
      vertex -4.365000e+001  8.500000e+000 -2.565000e+001
      vertex -4.365000e+001  1.500000e+000 -2.335000e+001
      vertex -4.365000e+001  8.500000e+000 -2.335000e+001
    endloop
  endfacet
  facet normal  0.000000e+000  0.000000e+000 -1.000000e+000
    outer loop
      vertex -4.365000e+001  1.500000e+000 -2.565000e+001
      vertex -4.365000e+001  8.500000e+000 -2.565000e+001
      vertex -4.235000e+001  1.500000e+000 -2.565000e+001
    endloop
  endfacet
  facet normal  0.000000e+000  0.000000e+000 -1.000000e+000
    outer loop
      vertex -4.235000e+001  1.500000e+000 -2.565000e+001
      vertex -4.365000e+001  8.500000e+000 -2.565000e+001
      vertex -4.235000e+001  8.500000e+000 -2.565000e+001
    endloop
  endfacet
  facet normal  0.000000e+000  0.000000e+000  1.000000e+000
    outer loop
      vertex -4.235000e+001  1.500000e+000 -2.335000e+001
      vertex -4.235000e+001  8.500000e+000 -2.335000e+001
      vertex -4.365000e+001  1.500000e+000 -2.335000e+001
    endloop
  endfacet
  facet normal  0.000000e+000  0.000000e+000  1.000000e+000
    outer loop
      vertex -4.365000e+001  1.500000e+000 -2.335000e+001
      vertex -4.235000e+001  8.500000e+000 -2.335000e+001
      vertex -4.365000e+001  8.500000e+000 -2.335000e+001
    endloop
  endfacet
  facet normal  1.000000e+000  0.000000e+000  0.000000e+000
    outer loop
      vertex -4.235000e+001  1.500000e+000 -2.335000e+001
      vertex -4.235000e+001  1.500000e+000 -2.565000e+001
      vertex -4.235000e+001  8.500000e+000 -2.335000e+001
    endloop
  endfacet
  facet normal  1.000000e+000  0.000000e+000  0.000000e+000
    outer loop
      vertex -4.235000e+001  8.500000e+000 -2.335000e+001
      vertex -4.235000e+001  1.500000e+000 -2.565000e+001
      vertex -4.235000e+001  8.500000e+000 -2.565000e+001
    endloop
  endfacet
  facet normal -1.000000e+000  0.000000e+000  0.000000e+000
    outer loop
      vertex  4.235000e+001  1.500000e+000 -2.565000e+001
      vertex  4.235000e+001  1.500000e+000 -2.335000e+001
      vertex  4.235000e+001  8.500000e+000 -2.565000e+001
    endloop
  endfacet
  facet normal -1.000000e+000  0.000000e+000  0.000000e+000
    outer loop
      vertex  4.235000e+001  8.500000e+000 -2.565000e+001
      vertex  4.235000e+001  1.500000e+000 -2.335000e+001
      vertex  4.235000e+001  8.500000e+000 -2.335000e+001
    endloop
  endfacet
  facet normal  0.000000e+000  0.000000e+000 -1.000000e+000
    outer loop
      vertex  4.235000e+001  1.500000e+000 -2.565000e+001
      vertex  4.235000e+001  8.500000e+000 -2.565000e+001
      vertex  4.365000e+001  1.500000e+000 -2.565000e+001
    endloop
  endfacet
  facet normal  0.000000e+000  0.000000e+000 -1.000000e+000
    outer loop
      vertex  4.365000e+001  1.500000e+000 -2.565000e+001
      vertex  4.235000e+001  8.500000e+000 -2.565000e+001
      vertex  4.365000e+001  8.500000e+000 -2.565000e+001
    endloop
  endfacet
  facet normal  0.000000e+000  0.000000e+000  1.000000e+000
    outer loop
      vertex  4.365000e+001  1.500000e+000 -2.335000e+001
      vertex  4.365000e+001  8.500000e+000 -2.335000e+001
      vertex  4.235000e+001  1.500000e+000 -2.335000e+001
    endloop
  endfacet
  facet normal  0.000000e+000  0.000000e+000  1.000000e+000
    outer loop
      vertex  4.235000e+001  1.500000e+000 -2.335000e+001
      vertex  4.365000e+001  8.500000e+000 -2.335000e+001
      vertex  4.235000e+001  8.500000e+000 -2.335000e+001
    endloop
  endfacet
  facet normal  1.000000e+000  0.000000e+000  0.000000e+000
    outer loop
      vertex  4.365000e+001  1.500000e+000 -2.335000e+001
      vertex  4.365000e+001  1.500000e+000 -2.565000e+001
      vertex  4.365000e+001  8.500000e+000 -2.335000e+001
    endloop
  endfacet
  facet normal  1.000000e+000  0.000000e+000  0.000000e+000
    outer loop
      vertex  4.365000e+001  8.500000e+000 -2.335000e+001
      vertex  4.365000e+001  1.500000e+000 -2.565000e+001
      vertex  4.365000e+001  8.500000e+000 -2.565000e+001
    endloop
  endfacet
  facet normal  0.000000e+000  1.000000e+000  0.000000e+000
    outer loop
      vertex -4.235000e+001  8.500000e+000 -2.565000e+001
      vertex -4.365000e+001  8.500000e+000 -2.565000e+001
      vertex -4.235000e+001  8.500000e+000 -2.335000e+001
    endloop
  endfacet
  facet normal  0.000000e+000  1.000000e+000  0.000000e+000
    outer loop
      vertex -4.235000e+001  8.500000e+000 -2.335000e+001
      vertex -4.365000e+001  8.500000e+000 -2.565000e+001
      vertex -4.365000e+001  8.500000e+000 -2.335000e+001
    endloop
  endfacet
  facet normal  0.000000e+000  1.000000e+000  0.000000e+000
    outer loop
      vertex  4.365000e+001  8.500000e+000 -2.565000e+001
      vertex  4.235000e+001  8.500000e+000 -2.565000e+001
      vertex  4.365000e+001  8.500000e+000 -2.335000e+001
    endloop
  endfacet
  facet normal  0.000000e+000  1.000000e+000  0.000000e+000
    outer loop
      vertex  4.365000e+001  8.500000e+000 -2.335000e+001
      vertex  4.235000e+001  8.500000e+000 -2.565000e+001
      vertex  4.235000e+001  8.500000e+000 -2.335000e+001
    endloop
  endfacet
  facet normal -1.000000e+000  0.000000e+000  0.000000e+000
    outer loop
      vertex  4.235000e+001  1.500000e+000  2.335000e+001
      vertex  4.235000e+001  1.500000e+000  2.565000e+001
      vertex  4.235000e+001  8.500000e+000  2.335000e+001
    endloop
  endfacet
  facet normal -1.000000e+000  0.000000e+000  0.000000e+000
    outer loop
      vertex  4.235000e+001  8.500000e+000  2.335000e+001
      vertex  4.235000e+001  1.500000e+000  2.565000e+001
      vertex  4.235000e+001  8.500000e+000  2.565000e+001
    endloop
  endfacet
  facet normal  0.000000e+000  0.000000e+000 -1.000000e+000
    outer loop
      vertex  4.235000e+001  1.500000e+000  2.335000e+001
      vertex  4.235000e+001  8.500000e+000  2.335000e+001
      vertex  4.365000e+001  1.500000e+000  2.335000e+001
    endloop
  endfacet
  facet normal  0.000000e+000  0.000000e+000 -1.000000e+000
    outer loop
      vertex  4.365000e+001  1.500000e+000  2.335000e+001
      vertex  4.235000e+001  8.500000e+000  2.335000e+001
      vertex  4.365000e+001  8.500000e+000  2.335000e+001
    endloop
  endfacet
  facet normal  0.000000e+000  0.000000e+000  1.000000e+000
    outer loop
      vertex  4.365000e+001  1.500000e+000  2.565000e+001
      vertex  4.365000e+001  8.500000e+000  2.565000e+001
      vertex  4.235000e+001  1.500000e+000  2.565000e+001
    endloop
  endfacet
  facet normal  0.000000e+000  0.000000e+000  1.000000e+000
    outer loop
      vertex  4.235000e+001  1.500000e+000  2.565000e+001
      vertex  4.365000e+001  8.500000e+000  2.565000e+001
      vertex  4.235000e+001  8.500000e+000  2.565000e+001
    endloop
  endfacet
  facet normal  1.000000e+000  0.000000e+000  0.000000e+000
    outer loop
      vertex  4.365000e+001  1.500000e+000  2.565000e+001
      vertex  4.365000e+001  1.500000e+000  2.335000e+001
      vertex  4.365000e+001  8.500000e+000  2.565000e+001
    endloop
  endfacet
  facet normal  1.000000e+000  0.000000e+000  0.000000e+000
    outer loop
      vertex  4.365000e+001  8.500000e+000  2.565000e+001
      vertex  4.365000e+001  1.500000e+000  2.335000e+001
      vertex  4.365000e+001  8.500000e+000  2.335000e+001
    endloop
  endfacet
  facet normal  0.000000e+000  1.000000e+000  0.000000e+000
    outer loop
      vertex  4.365000e+001  8.500000e+000  2.335000e+001
      vertex  4.235000e+001  8.500000e+000  2.335000e+001
      vertex  4.365000e+001  8.500000e+000  2.565000e+001
    endloop
  endfacet
  facet normal  0.000000e+000  1.000000e+000  0.000000e+000
    outer loop
      vertex  4.365000e+001  8.500000e+000  2.565000e+001
      vertex  4.235000e+001  8.500000e+000  2.335000e+001
      vertex  4.235000e+001  8.500000e+000  2.565000e+001
    endloop
  endfacet
  facet normal  0.000000e+000  0.000000e+000  1.000000e+000
    outer loop
      vertex -4.235000e+001  1.500000e+000  2.565000e+001
      vertex -4.235000e+001  8.500000e+000  2.565000e+001
      vertex -4.365000e+001  1.500000e+000  2.565000e+001
    endloop
  endfacet
  facet normal  0.000000e+000  0.000000e+000  1.000000e+000
    outer loop
      vertex -4.365000e+001  1.500000e+000  2.565000e+001
      vertex -4.235000e+001  8.500000e+000  2.565000e+001
      vertex -4.365000e+001  8.500000e+000  2.565000e+001
    endloop
  endfacet
  facet normal -1.000000e+000  0.000000e+000  0.000000e+000
    outer loop
      vertex -4.365000e+001  1.500000e+000  2.335000e+001
      vertex -4.365000e+001  1.500000e+000  2.565000e+001
      vertex -4.365000e+001  8.500000e+000  2.335000e+001
    endloop
  endfacet
  facet normal -1.000000e+000  0.000000e+000  0.000000e+000
    outer loop
      vertex -4.365000e+001  8.500000e+000  2.335000e+001
      vertex -4.365000e+001  1.500000e+000  2.565000e+001
      vertex -4.365000e+001  8.500000e+000  2.565000e+001
    endloop
  endfacet
  facet normal  0.000000e+000  0.000000e+000 -1.000000e+000
    outer loop
      vertex -4.365000e+001  1.500000e+000  2.335000e+001
      vertex -4.365000e+001  8.500000e+000  2.335000e+001
      vertex -4.235000e+001  1.500000e+000  2.335000e+001
    endloop
  endfacet
  facet normal  0.000000e+000  0.000000e+000 -1.000000e+000
    outer loop
      vertex -4.235000e+001  1.500000e+000  2.335000e+001
      vertex -4.365000e+001  8.500000e+000  2.335000e+001
      vertex -4.235000e+001  8.500000e+000  2.335000e+001
    endloop
  endfacet
  facet normal  1.000000e+000  0.000000e+000  0.000000e+000
    outer loop
      vertex -4.235000e+001  1.500000e+000  2.565000e+001
      vertex -4.235000e+001  1.500000e+000  2.335000e+001
      vertex -4.235000e+001  8.500000e+000  2.565000e+001
    endloop
  endfacet
  facet normal  1.000000e+000  0.000000e+000  0.000000e+000
    outer loop
      vertex -4.235000e+001  8.500000e+000  2.565000e+001
      vertex -4.235000e+001  1.500000e+000  2.335000e+001
      vertex -4.235000e+001  8.500000e+000  2.335000e+001
    endloop
  endfacet
  facet normal  0.000000e+000  1.000000e+000  0.000000e+000
    outer loop
      vertex -4.235000e+001  8.500000e+000  2.335000e+001
      vertex -4.365000e+001  8.500000e+000  2.335000e+001
      vertex -4.235000e+001  8.500000e+000  2.565000e+001
    endloop
  endfacet
  facet normal  0.000000e+000  1.000000e+000  0.000000e+000
    outer loop
      vertex -4.235000e+001  8.500000e+000  2.565000e+001
      vertex -4.365000e+001  8.500000e+000  2.335000e+001
      vertex -4.365000e+001  8.500000e+000  2.565000e+001
    endloop
  endfacet
  facet normal  -0.000000e+000 -1.000000e+000  -0.000000e+000
    outer loop
      vertex -4.000000e+001  0.000000e+000 -4.000000e+001
      vertex -4.000000e+001  0.000000e+000  4.000000e+001
      vertex -4.600000e+001  0.000000e+000  4.300000e+001
    endloop
  endfacet
  facet normal  0.000000e+000 -1.000000e+000  0.000000e+000
    outer loop
      vertex -4.000000e+001  0.000000e+000 -4.000000e+001
      vertex -4.600000e+001  0.000000e+000  4.300000e+001
      vertex -4.600000e+001  0.000000e+000 -4.300000e+001
    endloop
  endfacet
  facet normal  0.000000e+000 -1.000000e+000  0.000000e+000
    outer loop
      vertex -4.000000e+001  0.000000e+000 -4.000000e+001
      vertex -4.600000e+001  0.000000e+000 -4.300000e+001
      vertex -4.559808e+001  0.000000e+000 -4.450000e+001
    endloop
  endfacet
  facet normal  0.000000e+000 -1.000000e+000  0.000000e+000
    outer loop
      vertex -4.000000e+001  0.000000e+000 -4.000000e+001
      vertex -4.559808e+001  0.000000e+000 -4.450000e+001
      vertex -4.450000e+001  0.000000e+000 -4.559808e+001
    endloop
  endfacet
  facet normal  0.000000e+000 -1.000000e+000  0.000000e+000
    outer loop
      vertex -4.000000e+001  0.000000e+000 -4.000000e+001
      vertex -4.450000e+001  0.000000e+000 -4.559808e+001
      vertex -4.300000e+001  0.000000e+000 -4.600000e+001
    endloop
  endfacet
  facet normal  0.000000e+000 -1.000000e+000  0.000000e+000
    outer loop
      vertex  4.559808e+001  0.000000e+000 -4.450000e+001
      vertex  4.600000e+001  0.000000e+000 -4.300000e+001
      vertex  4.450000e+001  0.000000e+000 -4.559808e+001
    endloop
  endfacet
  facet normal  0.000000e+000 -1.000000e+000  0.000000e+000
    outer loop
      vertex  4.450000e+001  0.000000e+000 -4.559808e+001
      vertex  4.600000e+001  0.000000e+000 -4.300000e+001
      vertex  4.000000e+001  0.000000e+000 -4.000000e+001
    endloop
  endfacet
  facet normal  0.000000e+000 -1.000000e+000  0.000000e+000
    outer loop
      vertex  4.450000e+001  0.000000e+000 -4.559808e+001
      vertex  4.000000e+001  0.000000e+000 -4.000000e+001
      vertex  4.300000e+001  0.000000e+000 -4.600000e+001
    endloop
  endfacet
  facet normal  0.000000e+000 -1.000000e+000  0.000000e+000
    outer loop
      vertex  4.300000e+001  0.000000e+000 -4.600000e+001
      vertex  4.000000e+001  0.000000e+000 -4.000000e+001
      vertex -4.000000e+001  0.000000e+000 -4.000000e+001
    endloop
  endfacet
  facet normal  0.000000e+000 -1.000000e+000  -0.000000e+000
    outer loop
      vertex  4.300000e+001  0.000000e+000 -4.600000e+001
      vertex -4.000000e+001  0.000000e+000 -4.000000e+001
      vertex -4.300000e+001  0.000000e+000 -4.600000e+001
    endloop
  endfacet
  facet normal  -0.000000e+000 -1.000000e+000  0.000000e+000
    outer loop
      vertex  4.000000e+001  0.000000e+000  4.000000e+001
      vertex  4.600000e+001  0.000000e+000  4.300000e+001
      vertex  4.300000e+001  0.000000e+000  4.600000e+001
    endloop
  endfacet
  facet normal  0.000000e+000 -1.000000e+000  0.000000e+000
    outer loop
      vertex  4.300000e+001  0.000000e+000  4.600000e+001
      vertex  4.600000e+001  0.000000e+000  4.300000e+001
      vertex  4.559808e+001  0.000000e+000  4.450000e+001
    endloop
  endfacet
  facet normal  0.000000e+000 -1.000000e+000  0.000000e+000
    outer loop
      vertex  4.300000e+001  0.000000e+000  4.600000e+001
      vertex  4.559808e+001  0.000000e+000  4.450000e+001
      vertex  4.450000e+001  0.000000e+000  4.559808e+001
    endloop
  endfacet
  facet normal  0.000000e+000 -1.000000e+000  0.000000e+000
    outer loop
      vertex -4.450000e+001  0.000000e+000  4.559808e+001
      vertex -4.000000e+001  0.000000e+000  4.000000e+001
      vertex -4.300000e+001  0.000000e+000  4.600000e+001
    endloop
  endfacet
  facet normal  0.000000e+000 -1.000000e+000  0.000000e+000
    outer loop
      vertex -4.300000e+001  0.000000e+000  4.600000e+001
      vertex -4.000000e+001  0.000000e+000  4.000000e+001
      vertex  4.000000e+001  0.000000e+000  4.000000e+001
    endloop
  endfacet
  facet normal  0.000000e+000 -1.000000e+000  0.000000e+000
    outer loop
      vertex -4.300000e+001  0.000000e+000  4.600000e+001
      vertex  4.000000e+001  0.000000e+000  4.000000e+001
      vertex  4.300000e+001  0.000000e+000  4.600000e+001
    endloop
  endfacet
  facet normal  0.000000e+000 -1.000000e+000  0.000000e+000
    outer loop
      vertex -4.559808e+001  0.000000e+000  4.450000e+001
      vertex -4.600000e+001  0.000000e+000  4.300000e+001
      vertex -4.450000e+001  0.000000e+000  4.559808e+001
    endloop
  endfacet
  facet normal  0.000000e+000 -1.000000e+000  -0.000000e+000
    outer loop
      vertex -4.450000e+001  0.000000e+000  4.559808e+001
      vertex -4.600000e+001  0.000000e+000  4.300000e+001
      vertex -4.000000e+001  0.000000e+000  4.000000e+001
    endloop
  endfacet
  facet normal  0.000000e+000 -1.000000e+000  0.000000e+000
    outer loop
      vertex  4.000000e+001  0.000000e+000 -4.000000e+001
      vertex  4.600000e+001  0.000000e+000 -4.300000e+001
      vertex  4.000000e+001  0.000000e+000  4.000000e+001
    endloop
  endfacet
  facet normal  0.000000e+000 -1.000000e+000  0.000000e+000
    outer loop
      vertex  4.000000e+001  0.000000e+000  4.000000e+001
      vertex  4.600000e+001  0.000000e+000 -4.300000e+001
      vertex  4.600000e+001  0.000000e+000  4.300000e+001
    endloop
  endfacet
  facet normal  -0.000000e+000  0.000000e+000 -1.000000e+000
    outer loop
      vertex -4.300000e+001  1.500000e+000 -4.600000e+001
      vertex  4.300000e+001  1.500000e+000 -4.600000e+001
      vertex -4.300000e+001  0.000000e+000 -4.600000e+001
    endloop
  endfacet
  facet normal  0.000000e+000  0.000000e+000 -1.000000e+000
    outer loop
      vertex -4.300000e+001  0.000000e+000 -4.600000e+001
      vertex  4.300000e+001  1.500000e+000 -4.600000e+001
      vertex  4.300000e+001  0.000000e+000 -4.600000e+001
    endloop
  endfacet
  facet normal  1.000000e+000  -0.000000e+000  0.000000e+000
    outer loop
      vertex  4.600000e+001  1.500000e+000  4.300000e+001
      vertex  4.600000e+001  0.000000e+000  4.300000e+001
      vertex  4.600000e+001  1.500000e+000 -4.300000e+001
    endloop
  endfacet
  facet normal  1.000000e+000  0.000000e+000  0.000000e+000
    outer loop
      vertex  4.600000e+001  1.500000e+000 -4.300000e+001
      vertex  4.600000e+001  0.000000e+000  4.300000e+001
      vertex  4.600000e+001  0.000000e+000 -4.300000e+001
    endloop
  endfacet
  facet normal  2.588192e-001  0.000000e+000 -9.659257e-001
    outer loop
      vertex  4.300000e+001  0.000000e+000 -4.600000e+001
      vertex  4.300000e+001  1.500000e+000 -4.600000e+001
      vertex  4.450000e+001  0.000000e+000 -4.559808e+001
    endloop
  endfacet
  facet normal  2.588192e-001  0.000000e+000 -9.659257e-001
    outer loop
      vertex  4.450000e+001  0.000000e+000 -4.559808e+001
      vertex  4.300000e+001  1.500000e+000 -4.600000e+001
      vertex  4.450000e+001  1.500000e+000 -4.559808e+001
    endloop
  endfacet
  facet normal  7.071068e-001  0.000000e+000 -7.071068e-001
    outer loop
      vertex  4.450000e+001  0.000000e+000 -4.559808e+001
      vertex  4.450000e+001  1.500000e+000 -4.559808e+001
      vertex  4.559808e+001  0.000000e+000 -4.450000e+001
    endloop
  endfacet
  facet normal  7.071068e-001  0.000000e+000 -7.071068e-001
    outer loop
      vertex  4.559808e+001  0.000000e+000 -4.450000e+001
      vertex  4.450000e+001  1.500000e+000 -4.559808e+001
      vertex  4.559808e+001  1.500000e+000 -4.450000e+001
    endloop
  endfacet
  facet normal  9.659257e-001  0.000000e+000 -2.588192e-001
    outer loop
      vertex  4.559808e+001  0.000000e+000 -4.450000e+001
      vertex  4.559808e+001  1.500000e+000 -4.450000e+001
      vertex  4.600000e+001  0.000000e+000 -4.300000e+001
    endloop
  endfacet
  facet normal  9.659257e-001  0.000000e+000 -2.588192e-001
    outer loop
      vertex  4.600000e+001  0.000000e+000 -4.300000e+001
      vertex  4.559808e+001  1.500000e+000 -4.450000e+001
      vertex  4.600000e+001  1.500000e+000 -4.300000e+001
    endloop
  endfacet
  facet normal -1.000000e+000  0.000000e+000  0.000000e+000
    outer loop
      vertex -4.600000e+001  1.500000e+000 -4.300000e+001
      vertex -4.600000e+001  0.000000e+000 -4.300000e+001
      vertex -4.600000e+001  1.500000e+000  4.300000e+001
    endloop
  endfacet
  facet normal -1.000000e+000  -0.000000e+000  0.000000e+000
    outer loop
      vertex -4.600000e+001  1.500000e+000  4.300000e+001
      vertex -4.600000e+001  0.000000e+000 -4.300000e+001
      vertex -4.600000e+001  0.000000e+000  4.300000e+001
    endloop
  endfacet
  facet normal -9.659257e-001  -0.000000e+000 -2.588192e-001
    outer loop
      vertex -4.600000e+001  0.000000e+000 -4.300000e+001
      vertex -4.600000e+001  1.500000e+000 -4.300000e+001
      vertex -4.559808e+001  0.000000e+000 -4.450000e+001
    endloop
  endfacet
  facet normal -9.659257e-001  0.000000e+000 -2.588192e-001
    outer loop
      vertex -4.559808e+001  0.000000e+000 -4.450000e+001
      vertex -4.600000e+001  1.500000e+000 -4.300000e+001
      vertex -4.559808e+001  1.500000e+000 -4.450000e+001
    endloop
  endfacet
  facet normal -7.071068e-001  -0.000000e+000 -7.071068e-001
    outer loop
      vertex -4.559808e+001  0.000000e+000 -4.450000e+001
      vertex -4.559808e+001  1.500000e+000 -4.450000e+001
      vertex -4.450000e+001  0.000000e+000 -4.559808e+001
    endloop
  endfacet
  facet normal -7.071068e-001  0.000000e+000 -7.071068e-001
    outer loop
      vertex -4.450000e+001  0.000000e+000 -4.559808e+001
      vertex -4.559808e+001  1.500000e+000 -4.450000e+001
      vertex -4.450000e+001  1.500000e+000 -4.559808e+001
    endloop
  endfacet
  facet normal -2.588192e-001  -0.000000e+000 -9.659257e-001
    outer loop
      vertex -4.450000e+001  0.000000e+000 -4.559808e+001
      vertex -4.450000e+001  1.500000e+000 -4.559808e+001
      vertex -4.300000e+001  0.000000e+000 -4.600000e+001
    endloop
  endfacet
  facet normal -2.588192e-001  0.000000e+000 -9.659257e-001
    outer loop
      vertex -4.300000e+001  0.000000e+000 -4.600000e+001
      vertex -4.450000e+001  1.500000e+000 -4.559808e+001
      vertex -4.300000e+001  1.500000e+000 -4.600000e+001
    endloop
  endfacet
  facet normal  -0.000000e+000  0.000000e+000  1.000000e+000
    outer loop
      vertex  4.300000e+001  1.500000e+000  4.600000e+001
      vertex -4.300000e+001  1.500000e+000  4.600000e+001
      vertex  4.300000e+001  0.000000e+000  4.600000e+001
    endloop
  endfacet
  facet normal  0.000000e+000  0.000000e+000  1.000000e+000
    outer loop
      vertex  4.300000e+001  0.000000e+000  4.600000e+001
      vertex -4.300000e+001  1.500000e+000  4.600000e+001
      vertex -4.300000e+001  0.000000e+000  4.600000e+001
    endloop
  endfacet
  facet normal -2.588192e-001  0.000000e+000  9.659257e-001
    outer loop
      vertex -4.300000e+001  0.000000e+000  4.600000e+001
      vertex -4.300000e+001  1.500000e+000  4.600000e+001
      vertex -4.450000e+001  0.000000e+000  4.559808e+001
    endloop
  endfacet
  facet normal -2.588192e-001  0.000000e+000  9.659257e-001
    outer loop
      vertex -4.450000e+001  0.000000e+000  4.559808e+001
      vertex -4.300000e+001  1.500000e+000  4.600000e+001
      vertex -4.450000e+001  1.500000e+000  4.559808e+001
    endloop
  endfacet
  facet normal -7.071068e-001  0.000000e+000  7.071068e-001
    outer loop
      vertex -4.450000e+001  0.000000e+000  4.559808e+001
      vertex -4.450000e+001  1.500000e+000  4.559808e+001
      vertex -4.559808e+001  0.000000e+000  4.450000e+001
    endloop
  endfacet
  facet normal -7.071068e-001  0.000000e+000  7.071068e-001
    outer loop
      vertex -4.559808e+001  0.000000e+000  4.450000e+001
      vertex -4.450000e+001  1.500000e+000  4.559808e+001
      vertex -4.559808e+001  1.500000e+000  4.450000e+001
    endloop
  endfacet
  facet normal -9.659257e-001  0.000000e+000  2.588192e-001
    outer loop
      vertex -4.559808e+001  0.000000e+000  4.450000e+001
      vertex -4.559808e+001  1.500000e+000  4.450000e+001
      vertex -4.600000e+001  0.000000e+000  4.300000e+001
    endloop
  endfacet
  facet normal -9.659257e-001  0.000000e+000  2.588192e-001
    outer loop
      vertex -4.600000e+001  0.000000e+000  4.300000e+001
      vertex -4.559808e+001  1.500000e+000  4.450000e+001
      vertex -4.600000e+001  1.500000e+000  4.300000e+001
    endloop
  endfacet
  facet normal  9.659257e-001  0.000000e+000  2.588192e-001
    outer loop
      vertex  4.600000e+001  0.000000e+000  4.300000e+001
      vertex  4.600000e+001  1.500000e+000  4.300000e+001
      vertex  4.559808e+001  0.000000e+000  4.450000e+001
    endloop
  endfacet
  facet normal  9.659257e-001  -0.000000e+000  2.588192e-001
    outer loop
      vertex  4.559808e+001  0.000000e+000  4.450000e+001
      vertex  4.600000e+001  1.500000e+000  4.300000e+001
      vertex  4.559808e+001  1.500000e+000  4.450000e+001
    endloop
  endfacet
  facet normal  7.071068e-001  0.000000e+000  7.071068e-001
    outer loop
      vertex  4.559808e+001  0.000000e+000  4.450000e+001
      vertex  4.559808e+001  1.500000e+000  4.450000e+001
      vertex  4.450000e+001  0.000000e+000  4.559808e+001
    endloop
  endfacet
  facet normal  7.071068e-001  -0.000000e+000  7.071068e-001
    outer loop
      vertex  4.450000e+001  0.000000e+000  4.559808e+001
      vertex  4.559808e+001  1.500000e+000  4.450000e+001
      vertex  4.450000e+001  1.500000e+000  4.559808e+001
    endloop
  endfacet
  facet normal  2.588192e-001  0.000000e+000  9.659257e-001
    outer loop
      vertex  4.450000e+001  0.000000e+000  4.559808e+001
      vertex  4.450000e+001  1.500000e+000  4.559808e+001
      vertex  4.300000e+001  0.000000e+000  4.600000e+001
    endloop
  endfacet
  facet normal  2.588192e-001  -0.000000e+000  9.659257e-001
    outer loop
      vertex  4.300000e+001  0.000000e+000  4.600000e+001
      vertex  4.450000e+001  1.500000e+000  4.559808e+001
      vertex  4.300000e+001  1.500000e+000  4.600000e+001
    endloop
  endfacet
  facet normal -1.000000e+000  0.000000e+000  0.000000e+000
    outer loop
      vertex  4.000000e+001  1.500000e+000  4.000000e+001
      vertex  4.000000e+001  1.500000e+000 -4.000000e+001
      vertex  4.000000e+001  0.000000e+000  4.000000e+001
    endloop
  endfacet
  facet normal -1.000000e+000  0.000000e+000  0.000000e+000
    outer loop
      vertex  4.000000e+001  0.000000e+000  4.000000e+001
      vertex  4.000000e+001  1.500000e+000 -4.000000e+001
      vertex  4.000000e+001  0.000000e+000 -4.000000e+001
    endloop
  endfacet
  facet normal  0.000000e+000  0.000000e+000  1.000000e+000
    outer loop
      vertex -4.000000e+001  1.500000e+000 -4.000000e+001
      vertex -4.000000e+001  0.000000e+000 -4.000000e+001
      vertex  4.000000e+001  1.500000e+000 -4.000000e+001
    endloop
  endfacet
  facet normal  0.000000e+000  0.000000e+000  1.000000e+000
    outer loop
      vertex  4.000000e+001  1.500000e+000 -4.000000e+001
      vertex -4.000000e+001  0.000000e+000 -4.000000e+001
      vertex  4.000000e+001  0.000000e+000 -4.000000e+001
    endloop
  endfacet
  facet normal  1.000000e+000  0.000000e+000  0.000000e+000
    outer loop
      vertex -4.000000e+001  1.500000e+000 -4.000000e+001
      vertex -4.000000e+001  1.500000e+000  4.000000e+001
      vertex -4.000000e+001  0.000000e+000 -4.000000e+001
    endloop
  endfacet
  facet normal  1.000000e+000  0.000000e+000  0.000000e+000
    outer loop
      vertex -4.000000e+001  0.000000e+000 -4.000000e+001
      vertex -4.000000e+001  1.500000e+000  4.000000e+001
      vertex -4.000000e+001  0.000000e+000  4.000000e+001
    endloop
  endfacet
  facet normal  0.000000e+000  0.000000e+000 -1.000000e+000
    outer loop
      vertex  4.000000e+001  1.500000e+000  4.000000e+001
      vertex  4.000000e+001  0.000000e+000  4.000000e+001
      vertex -4.000000e+001  1.500000e+000  4.000000e+001
    endloop
  endfacet
  facet normal  0.000000e+000  0.000000e+000 -1.000000e+000
    outer loop
      vertex -4.000000e+001  1.500000e+000  4.000000e+001
      vertex  4.000000e+001  0.000000e+000  4.000000e+001
      vertex -4.000000e+001  0.000000e+000  4.000000e+001
    endloop
  endfacet
endsolid CATIA STL
