  0
SECTION
  2
HEADER
  9
$ACADVER
  1
AC1006
  9
$EXTMIN
 10
0.000000
 20
0.000000
 30
0.000000
  9
$EXTMAX
 10
1114.000000
 20
226.000000
 30
0.000000
  0
ENDSEC
  0
SECTION
  2
ENTITIES
  0
POLYLINE
  8
0
 66
1
 70
1
  0
VERTEX
  8
0
 10
139.500000
 20
150.997164
 42
0.075593
  0
VERTEX
  8
0
 10
133.640618
 20
148.736180
 42
0.033481
  0
VERTEX
  8
0
 10
126.715437
 20
144.138333
 42
0.024994
  0
VERTEX
  8
0
 10
118.356740
 20
137.054609
 42
0.010696
  0
VERTEX
  8
0
 10
107.886059
 20
126.811922
 42
0.000000
  0
VERTEX
  8
0
 10
98.272119
 20
116.996205
 42
0.000000
  0
VERTEX
  8
0
 10
95.881580
 20
121.641475
 42
0.030898
  0
VERTEX
  8
0
 10
94.687706
 20
123.646545
 42
0.019518
  0
VERTEX
  8
0
 10
93.065749
 20
125.834768
 42
0.019588
  0
VERTEX
  8
0
 10
91.296292
 20
127.868346
 42
0.033798
  0
VERTEX
  8
0
 10
89.652700
 20
129.393372
 42
0.026663
  0
VERTEX
  8
0
 10
87.406031
 20
131.021541
 42
0.061950
  0
VERTEX
  8
0
 10
85.536116
 20
131.924953
 42
0.059135
  0
VERTEX
  8
0
 10
83.448701
 20
132.365915
 42
0.022517
  0
VERTEX
  8
0
 10
80.472842
 20
132.500000
 42
0.020036
  0
VERTEX
  8
0
 10
77.494438
 20
132.380602
 42
0.063704
  0
VERTEX
  8
0
 10
75.548404
 20
131.971170
 42
0.073826
  0
VERTEX
  8
0
 10
73.926973
 20
131.122934
 42
0.033665
  0
VERTEX
  8
0
 10
72.088778
 20
129.585055
 42
0.126623
  0
VERTEX
  8
0
 10
68.121948
 20
123.185683
 42
0.094682
  0
VERTEX
  8
0
 10
67.172562
 20
114.908542
 42
0.079790
  0
VERTEX
  8
0
 10
69.387049
 20
105.611824
 42
0.058182
  0
VERTEX
  8
0
 10
74.574781
 20
96.322547
 42
-0.083533
  0
VERTEX
  8
0
 10
75.272388
 20
94.910514
 42
-0.216585
  0
VERTEX
  8
0
 10
75.123781
 20
93.811381
 42
-0.079793
  0
VERTEX
  8
0
 10
73.984034
 20
92.512458
 42
-0.006008
  0
VERTEX
  8
0
 10
70.323802
 20
89.556725
 42
-0.049013
  0
VERTEX
  8
0
 10
63.005934
 20
84.872914
 42
-0.074931
  0
VERTEX
  8
0
 10
55.870498
 20
82.493890
 42
-0.120302
  0
VERTEX
  8
0
 10
50.613059
 20
82.847807
 42
-0.287943
  0
VERTEX
  8
0
 10
48.188837
 20
85.706112
 42
-0.074169
  0
VERTEX
  8
0
 10
48.195044
 20
86.860640
 42
-0.202950
  0
VERTEX
  8
0
 10
48.615537
 20
87.540511
 42
-0.116122
  0
VERTEX
  8
0
 10
49.594521
 20
87.937471
 42
-0.017954
  0
VERTEX
  8
0
 10
51.688837
 20
88.185988
 42
0.019658
  0
VERTEX
  8
0
 10
53.926414
 20
88.459240
 42
0.139624
  0
VERTEX
  8
0
 10
54.906235
 20
88.918467
 42
0.178753
  0
VERTEX
  8
0
 10
55.372055
 20
89.768537
 42
0.036897
  0
VERTEX
  8
0
 10
55.500000
 20
91.500000
 42
0.034314
  0
VERTEX
  8
0
 10
55.390591
 20
93.092334
 42
0.133939
  0
VERTEX
  8
0
 10
55.006701
 20
93.991538
 42
0.150407
  0
VERTEX
  8
0
 10
54.248183
 20
94.513179
 42
0.047124
  0
VERTEX
  8
0
 10
52.883911
 20
94.803500
 42
0.071649
  0
VERTEX
  8
0
 10
51.509991
 20
94.765630
 42
0.081002
  0
VERTEX
  8
0
 10
50.263819
 20
94.335633
 42
0.065097
  0
VERTEX
  8
0
 10
49.019516
 20
93.439925
 42
0.029348
  0
VERTEX
  8
0
 10
47.633911
 20
91.976775
 42
0.043065
  0
VERTEX
  8
0
 10
45.787868
 20
89.354689
 42
0.117369
  0
VERTEX
  8
0
 10
45.135206
 20
87.196624
 42
0.127300
  0
VERTEX
  8
0
 10
45.548355
 20
85.085105
 42
0.055069
  0
VERTEX
  8
0
 10
47.072580
 20
82.634859
 42
0.045854
  0
VERTEX
  8
0
 10
48.339137
 20
81.297357
 42
0.084597
  0
VERTEX
  8
0
 10
49.610708
 20
80.513897
 42
0.071186
  0
VERTEX
  8
0
 10
51.217906
 20
80.118415
 42
0.024791
  0
VERTEX
  8
0
 10
53.604699
 20
80.000000
 42
0.048895
  0
VERTEX
  8
0
 10
57.707462
 20
80.402169
 42
0.049344
  0
VERTEX
  8
0
 10
61.640875
 20
81.593237
 42
0.038477
  0
VERTEX
  8
0
 10
66.015207
 20
83.812790
 42
0.015906
  0
VERTEX
  8
0
 10
71.577218
 20
87.443172
 42
0.000000
  0
VERTEX
  8
0
 10
77.967473
 20
91.910278
 42
0.000000
  0
VERTEX
  8
0
 10
83.585282
 20
88.955139
 42
0.012694
  0
VERTEX
  8
0
 10
85.875297
 20
87.823781
 42
0.014721
  0
VERTEX
  8
0
 10
88.110531
 20
86.868072
 42
0.013814
  0
VERTEX
  8
0
 10
90.037059
 20
86.171431
 42
0.080007
  0
VERTEX
  8
0
 10
91.101546
 20
86.000000
 42
-0.042602
  0
VERTEX
  8
0
 10
92.422134
 20
85.887275
 42
-0.289182
  0
VERTEX
  8
0
 10
92.886981
 20
85.468495
 42
-0.176541
  0
VERTEX
  8
0
 10
92.828174
 20
84.685897
 42
-0.016730
  0
VERTEX
  8
0
 10
91.964816
 20
82.934259
 42
0.042686
  0
VERTEX
  8
0
 10
91.495942
 20
81.843788
 42
0.304834
  0
VERTEX
  8
0
 10
91.641971
 20
81.318223
 42
0.165127
  0
VERTEX
  8
0
 10
92.309263
 20
81.051150
 42
0.013353
  0
VERTEX
  8
0
 10
94.224269
 20
81.000000
 42
0.040199
  0
VERTEX
  8
0
 10
95.709651
 20
81.119614
 42
0.058802
  0
VERTEX
  8
0
 10
96.969791
 20
81.479486
 42
0.068000
  0
VERTEX
  8
0
 10
97.968910
 20
82.066816
 42
0.086546
  0
VERTEX
  8
0
 10
98.681536
 20
82.861665
 42
-0.097448
  0
VERTEX
  8
0
 10
99.422376
 20
83.652881
 42
-0.032467
  0
VERTEX
  8
0
 10
100.773968
 20
84.498515
 42
-0.030889
  0
VERTEX
  8
0
 10
102.430084
 20
85.262866
 42
-0.030646
  0
VERTEX
  8
0
 10
104.172082
 20
85.819668
 42
0.057511
  0
VERTEX
  8
0
 10
108.009003
 20
87.277025
 42
0.045913
  0
VERTEX
  8
0
 10
111.737743
 20
89.665188
 42
0.048022
  0
VERTEX
  8
0
 10
114.419061
 20
92.200318
 42
0.328900
  0
VERTEX
  8
0
 10
114.559009
 20
93.904522
 42
0.169348
  0
VERTEX
  8
0
 10
114.034206
 20
94.330395
 42
0.176558
  0
VERTEX
  8
0
 10
113.368685
 20
94.328186
 42
0.082994
  0
VERTEX
  8
0
 10
112.459695
 20
93.809615
 42
0.019432
  0
VERTEX
  8
0
 10
111.140306
 20
92.645616
 42
-0.046442
  0
VERTEX
  8
0
 10
108.972769
 20
90.932075
 42
-0.027982
  0
VERTEX
  8
0
 10
106.127456
 20
89.302257
 42
-0.020436
  0
VERTEX
  8
0
 10
103.385487
 20
88.066666
 42
-0.300566
  0
VERTEX
  8
0
 10
102.398427
 20
88.268240
 42
-0.357302
  0
VERTEX
  8
0
 10
102.338695
 20
88.869207
 42
-0.000112
  0
VERTEX
  8
0
 10
116.639655
 20
110.344585
 42
-0.001311
  0
VERTEX
  8
0
 10
129.438936
 20
129.446865
 42
-0.016090
  0
VERTEX
  8
0
 10
134.576426
 20
136.565592
 42
0.004894
  0
VERTEX
  8
0
 10
141.789938
 20
146.103455
 42
0.077392
  0
VERTEX
  8
0
 10
143.675233
 20
149.696131
 42
0.465298
  0
VERTEX
  8
0
 10
142.831396
 20
151.096801
 42
0.094011
  0
SEQEND
  0
POLYLINE
  8
0
 66
1
 70
1
  0
VERTEX
  8
0
 10
134.762472
 20
141.750000
 42
0.006921
  0
VERTEX
  8
0
 10
128.726741
 20
134.413507
 42
0.004738
  0
VERTEX
  8
0
 10
122.069920
 20
125.926223
 42
0.004456
  0
VERTEX
  8
0
 10
115.081131
 20
116.670134
 42
0.004059
  0
VERTEX
  8
0
 10
108.035018
 20
107.000000
 42
-0.000539
  0
VERTEX
  8
0
 10
104.848748
 20
102.561836
 42
-0.000847
  0
VERTEX
  8
0
 10
102.100226
 20
98.755729
 42
-0.000203
  0
VERTEX
  8
0
 10
99.685710
 20
95.426898
 42
-0.033912
  0
VERTEX
  8
0
 10
99.398828
 20
95.083333
 42
-0.656489
  0
VERTEX
  8
0
 10
99.238117
 20
95.142833
 42
-0.002784
  0
VERTEX
  8
0
 10
99.117156
 20
97.619270
 42
-0.006924
  0
VERTEX
  8
0
 10
99.028493
 20
100.635104
 42
-0.003886
  0
VERTEX
  8
0
 10
99.000000
 20
104.301417
 42
0.000000
  0
VERTEX
  8
0
 10
99.000000
 20
113.936167
 42
0.000000
  0
VERTEX
  8
0
 10
111.750000
 20
126.856955
 42
-0.013110
  0
VERTEX
  8
0
 10
120.279111
 20
135.058663
 42
-0.018509
  0
VERTEX
  8
0
 10
128.324073
 20
141.870664
 42
-0.016180
  0
VERTEX
  8
0
 10
135.208460
 20
146.924291
 42
-0.151358
  0
VERTEX
  8
0
 10
138.680580
 20
148.000000
 42
-0.552377
  0
VERTEX
  8
0
 10
138.907967
 20
147.638490
 42
-0.028031
  0
VERTEX
  8
0
 10
138.094970
 20
146.164062
 42
-0.023554
  0
VERTEX
  8
0
 10
136.695509
 20
144.149157
 42
-0.012028
  0
SEQEND
  0
POLYLINE
  8
0
 66
1
 70
1
  0
VERTEX
  8
0
 10
85.799660
 20
128.595014
 42
-0.079745
  0
VERTEX
  8
0
 10
89.877431
 20
125.565845
 42
-0.057282
  0
VERTEX
  8
0
 10
93.354945
 20
121.069304
 42
-0.061100
  0
VERTEX
  8
0
 10
95.424183
 20
116.458101
 42
-0.203812
  0
VERTEX
  8
0
 10
95.092316
 20
113.227163
 42
-0.056655
  0
VERTEX
  8
0
 10
94.354600
 20
112.188687
 42
-0.004475
  0
VERTEX
  8
0
 10
92.070374
 20
109.686033
 42
-0.006033
  0
VERTEX
  8
0
 10
89.275512
 20
106.750258
 42
-0.004583
  0
VERTEX
  8
0
 10
86.143961
 20
103.597629
 42
0.000000
  0
VERTEX
  8
0
 10
78.149213
 20
95.695258
 42
0.000000
  0
VERTEX
  8
0
 10
75.119584
 20
100.472488
 42
-0.044235
  0
VERTEX
  8
0
 10
72.651992
 20
105.249990
 42
-0.043287
  0
VERTEX
  8
0
 10
71.041876
 20
110.421496
 42
-0.045972
  0
VERTEX
  8
0
 10
70.421248
 20
115.424015
 42
-0.074024
  0
VERTEX
  8
0
 10
70.918395
 20
119.682154
 42
-0.069068
  0
VERTEX
  8
0
 10
73.282753
 20
125.244550
 42
-0.123452
  0
VERTEX
  8
0
 10
76.775679
 20
128.736757
 42
-0.145128
  0
VERTEX
  8
0
 10
81.079574
 20
129.842095
 42
-0.111180
  0
SEQEND
  0
POLYLINE
  8
0
 66
1
 70
1
  0
VERTEX
  8
0
 10
96.727749
 20
100.750000
 42
-0.010852
  0
VERTEX
  8
0
 10
95.980089
 20
91.743789
 42
-0.151815
  0
VERTEX
  8
0
 10
94.711190
 20
88.790899
 42
-0.293995
  0
VERTEX
  8
0
 10
92.394818
 20
88.095291
 42
-0.041304
  0
VERTEX
  8
0
 10
87.500000
 20
89.952855
 42
-0.018477
  0
VERTEX
  8
0
 10
82.799269
 20
92.413375
 42
-0.282406
  0
VERTEX
  8
0
 10
81.955142
 20
93.954318
 42
-0.168612
  0
VERTEX
  8
0
 10
82.747016
 20
95.917467
 42
-0.006406
  0
VERTEX
  8
0
 10
88.088932
 20
101.883016
 42
-0.005484
  0
VERTEX
  8
0
 10
90.994118
 20
104.976113
 42
-0.008389
  0
VERTEX
  8
0
 10
93.586470
 20
107.587056
 42
-0.003811
  0
VERTEX
  8
0
 10
95.831075
 20
109.740062
 42
-0.184159
  0
VERTEX
  8
0
 10
96.396924
 20
109.974454
 42
-0.400669
  0
VERTEX
  8
0
 10
96.742191
 20
109.663166
 42
-0.009773
  0
VERTEX
  8
0
 10
96.871865
 20
107.324634
 42
-0.015569
  0
VERTEX
  8
0
 10
96.885839
 20
104.359242
 42
-0.008675
  0
SEQEND
  0
POLYLINE
  8
0
 66
1
 70
1
  0
VERTEX
  8
0
 10
349.500000
 20
150.997164
 42
0.075593
  0
VERTEX
  8
0
 10
343.640618
 20
148.736180
 42
0.033481
  0
VERTEX
  8
0
 10
336.715437
 20
144.138333
 42
0.024994
  0
VERTEX
  8
0
 10
328.356740
 20
137.054609
 42
0.010696
  0
VERTEX
  8
0
 10
317.886059
 20
126.811922
 42
0.000000
  0
VERTEX
  8
0
 10
308.272119
 20
116.996205
 42
0.000000
  0
VERTEX
  8
0
 10
305.881580
 20
121.641475
 42
0.030898
  0
VERTEX
  8
0
 10
304.687706
 20
123.646545
 42
0.019518
  0
VERTEX
  8
0
 10
303.065749
 20
125.834768
 42
0.019588
  0
VERTEX
  8
0
 10
301.296292
 20
127.868346
 42
0.033798
  0
VERTEX
  8
0
 10
299.652700
 20
129.393372
 42
0.026663
  0
VERTEX
  8
0
 10
297.406031
 20
131.021541
 42
0.061950
  0
VERTEX
  8
0
 10
295.536116
 20
131.924953
 42
0.059135
  0
VERTEX
  8
0
 10
293.448701
 20
132.365915
 42
0.022517
  0
VERTEX
  8
0
 10
290.472842
 20
132.500000
 42
0.020036
  0
VERTEX
  8
0
 10
287.494438
 20
132.380602
 42
0.063704
  0
VERTEX
  8
0
 10
285.548404
 20
131.971170
 42
0.073826
  0
VERTEX
  8
0
 10
283.926973
 20
131.122934
 42
0.033665
  0
VERTEX
  8
0
 10
282.088778
 20
129.585055
 42
0.126623
  0
VERTEX
  8
0
 10
278.121948
 20
123.185683
 42
0.094682
  0
VERTEX
  8
0
 10
277.172562
 20
114.908542
 42
0.079790
  0
VERTEX
  8
0
 10
279.387049
 20
105.611824
 42
0.058182
  0
VERTEX
  8
0
 10
284.574781
 20
96.322547
 42
-0.083533
  0
VERTEX
  8
0
 10
285.272388
 20
94.910514
 42
-0.216585
  0
VERTEX
  8
0
 10
285.123781
 20
93.811381
 42
-0.079793
  0
VERTEX
  8
0
 10
283.984034
 20
92.512458
 42
-0.006008
  0
VERTEX
  8
0
 10
280.323802
 20
89.556725
 42
-0.049013
  0
VERTEX
  8
0
 10
273.005934
 20
84.872914
 42
-0.074931
  0
VERTEX
  8
0
 10
265.870498
 20
82.493890
 42
-0.120302
  0
VERTEX
  8
0
 10
260.613059
 20
82.847807
 42
-0.287943
  0
VERTEX
  8
0
 10
258.188837
 20
85.706112
 42
-0.074169
  0
VERTEX
  8
0
 10
258.195044
 20
86.860640
 42
-0.202950
  0
VERTEX
  8
0
 10
258.615537
 20
87.540511
 42
-0.116122
  0
VERTEX
  8
0
 10
259.594521
 20
87.937471
 42
-0.017954
  0
VERTEX
  8
0
 10
261.688837
 20
88.185988
 42
0.019658
  0
VERTEX
  8
0
 10
263.926414
 20
88.459240
 42
0.139624
  0
VERTEX
  8
0
 10
264.906235
 20
88.918467
 42
0.178753
  0
VERTEX
  8
0
 10
265.372055
 20
89.768537
 42
0.036897
  0
VERTEX
  8
0
 10
265.500000
 20
91.500000
 42
0.034314
  0
VERTEX
  8
0
 10
265.390591
 20
93.092334
 42
0.133939
  0
VERTEX
  8
0
 10
265.006701
 20
93.991538
 42
0.150407
  0
VERTEX
  8
0
 10
264.248183
 20
94.513179
 42
0.047124
  0
VERTEX
  8
0
 10
262.883911
 20
94.803500
 42
0.071649
  0
VERTEX
  8
0
 10
261.509991
 20
94.765630
 42
0.081002
  0
VERTEX
  8
0
 10
260.263819
 20
94.335633
 42
0.065097
  0
VERTEX
  8
0
 10
259.019516
 20
93.439925
 42
0.029348
  0
VERTEX
  8
0
 10
257.633911
 20
91.976775
 42
0.043065
  0
VERTEX
  8
0
 10
255.787868
 20
89.354689
 42
0.117369
  0
VERTEX
  8
0
 10
255.135206
 20
87.196624
 42
0.127300
  0
VERTEX
  8
0
 10
255.548355
 20
85.085105
 42
0.055069
  0
VERTEX
  8
0
 10
257.072580
 20
82.634859
 42
0.045854
  0
VERTEX
  8
0
 10
258.339137
 20
81.297357
 42
0.084597
  0
VERTEX
  8
0
 10
259.610708
 20
80.513897
 42
0.071186
  0
VERTEX
  8
0
 10
261.217906
 20
80.118415
 42
0.024791
  0
VERTEX
  8
0
 10
263.604699
 20
80.000000
 42
0.048895
  0
VERTEX
  8
0
 10
267.707462
 20
80.402169
 42
0.049344
  0
VERTEX
  8
0
 10
271.640875
 20
81.593237
 42
0.038477
  0
VERTEX
  8
0
 10
276.015207
 20
83.812790
 42
0.015906
  0
VERTEX
  8
0
 10
281.577218
 20
87.443172
 42
0.000000
  0
VERTEX
  8
0
 10
287.967473
 20
91.910278
 42
0.000000
  0
VERTEX
  8
0
 10
293.585282
 20
88.955139
 42
0.012694
  0
VERTEX
  8
0
 10
295.875297
 20
87.823781
 42
0.014721
  0
VERTEX
  8
0
 10
298.110531
 20
86.868072
 42
0.013814
  0
VERTEX
  8
0
 10
300.037059
 20
86.171431
 42
0.080007
  0
VERTEX
  8
0
 10
301.101546
 20
86.000000
 42
-0.042602
  0
VERTEX
  8
0
 10
302.422134
 20
85.887275
 42
-0.289182
  0
VERTEX
  8
0
 10
302.886981
 20
85.468495
 42
-0.176541
  0
VERTEX
  8
0
 10
302.828174
 20
84.685897
 42
-0.016730
  0
VERTEX
  8
0
 10
301.964816
 20
82.934259
 42
0.042686
  0
VERTEX
  8
0
 10
301.495942
 20
81.843788
 42
0.304834
  0
VERTEX
  8
0
 10
301.641971
 20
81.318223
 42
0.165127
  0
VERTEX
  8
0
 10
302.309263
 20
81.051150
 42
0.013353
  0
VERTEX
  8
0
 10
304.224269
 20
81.000000
 42
0.040199
  0
VERTEX
  8
0
 10
305.709651
 20
81.119614
 42
0.058802
  0
VERTEX
  8
0
 10
306.969791
 20
81.479486
 42
0.068000
  0
VERTEX
  8
0
 10
307.968910
 20
82.066816
 42
0.086546
  0
VERTEX
  8
0
 10
308.681536
 20
82.861665
 42
-0.097448
  0
VERTEX
  8
0
 10
309.422376
 20
83.652881
 42
-0.032467
  0
VERTEX
  8
0
 10
310.773968
 20
84.498515
 42
-0.030889
  0
VERTEX
  8
0
 10
312.430084
 20
85.262866
 42
-0.030646
  0
VERTEX
  8
0
 10
314.172082
 20
85.819668
 42
0.057511
  0
VERTEX
  8
0
 10
318.009003
 20
87.277025
 42
0.045913
  0
VERTEX
  8
0
 10
321.737743
 20
89.665188
 42
0.048022
  0
VERTEX
  8
0
 10
324.419061
 20
92.200318
 42
0.328900
  0
VERTEX
  8
0
 10
324.559009
 20
93.904522
 42
0.169348
  0
VERTEX
  8
0
 10
324.034206
 20
94.330395
 42
0.176558
  0
VERTEX
  8
0
 10
323.368685
 20
94.328186
 42
0.082994
  0
VERTEX
  8
0
 10
322.459695
 20
93.809615
 42
0.019432
  0
VERTEX
  8
0
 10
321.140306
 20
92.645616
 42
-0.046442
  0
VERTEX
  8
0
 10
318.972769
 20
90.932075
 42
-0.027982
  0
VERTEX
  8
0
 10
316.127456
 20
89.302257
 42
-0.020436
  0
VERTEX
  8
0
 10
313.385487
 20
88.066666
 42
-0.300566
  0
VERTEX
  8
0
 10
312.398427
 20
88.268240
 42
-0.357302
  0
VERTEX
  8
0
 10
312.338695
 20
88.869207
 42
-0.000112
  0
VERTEX
  8
0
 10
326.639655
 20
110.344585
 42
-0.001311
  0
VERTEX
  8
0
 10
339.438936
 20
129.446865
 42
-0.016090
  0
VERTEX
  8
0
 10
344.576426
 20
136.565592
 42
0.004894
  0
VERTEX
  8
0
 10
351.789938
 20
146.103455
 42
0.077392
  0
VERTEX
  8
0
 10
353.675233
 20
149.696131
 42
0.465298
  0
VERTEX
  8
0
 10
352.831396
 20
151.096801
 42
0.094011
  0
SEQEND
  0
POLYLINE
  8
0
 66
1
 70
1
  0
VERTEX
  8
0
 10
344.762472
 20
141.750000
 42
0.006921
  0
VERTEX
  8
0
 10
338.726741
 20
134.413507
 42
0.004738
  0
VERTEX
  8
0
 10
332.069920
 20
125.926223
 42
0.004456
  0
VERTEX
  8
0
 10
325.081131
 20
116.670134
 42
0.004059
  0
VERTEX
  8
0
 10
318.035018
 20
107.000000
 42
-0.000539
  0
VERTEX
  8
0
 10
314.848748
 20
102.561836
 42
-0.000847
  0
VERTEX
  8
0
 10
312.100226
 20
98.755729
 42
-0.000203
  0
VERTEX
  8
0
 10
309.685710
 20
95.426898
 42
-0.033912
  0
VERTEX
  8
0
 10
309.398828
 20
95.083333
 42
-0.656489
  0
VERTEX
  8
0
 10
309.238117
 20
95.142833
 42
-0.002784
  0
VERTEX
  8
0
 10
309.117156
 20
97.619270
 42
-0.006924
  0
VERTEX
  8
0
 10
309.028493
 20
100.635104
 42
-0.003886
  0
VERTEX
  8
0
 10
309.000000
 20
104.301417
 42
0.000000
  0
VERTEX
  8
0
 10
309.000000
 20
113.936167
 42
0.000000
  0
VERTEX
  8
0
 10
321.750000
 20
126.856955
 42
-0.013110
  0
VERTEX
  8
0
 10
330.279111
 20
135.058663
 42
-0.018509
  0
VERTEX
  8
0
 10
338.324073
 20
141.870664
 42
-0.016180
  0
VERTEX
  8
0
 10
345.208460
 20
146.924291
 42
-0.151358
  0
VERTEX
  8
0
 10
348.680580
 20
148.000000
 42
-0.552377
  0
VERTEX
  8
0
 10
348.907967
 20
147.638490
 42
-0.028031
  0
VERTEX
  8
0
 10
348.094970
 20
146.164062
 42
-0.023554
  0
VERTEX
  8
0
 10
346.695509
 20
144.149157
 42
-0.012028
  0
SEQEND
  0
POLYLINE
  8
0
 66
1
 70
1
  0
VERTEX
  8
0
 10
295.799660
 20
128.595014
 42
-0.079745
  0
VERTEX
  8
0
 10
299.877431
 20
125.565845
 42
-0.057282
  0
VERTEX
  8
0
 10
303.354945
 20
121.069304
 42
-0.061100
  0
VERTEX
  8
0
 10
305.424183
 20
116.458101
 42
-0.203812
  0
VERTEX
  8
0
 10
305.092316
 20
113.227163
 42
-0.056655
  0
VERTEX
  8
0
 10
304.354600
 20
112.188687
 42
-0.004475
  0
VERTEX
  8
0
 10
302.070374
 20
109.686033
 42
-0.006033
  0
VERTEX
  8
0
 10
299.275512
 20
106.750258
 42
-0.004583
  0
VERTEX
  8
0
 10
296.143961
 20
103.597629
 42
0.000000
  0
VERTEX
  8
0
 10
288.149213
 20
95.695258
 42
0.000000
  0
VERTEX
  8
0
 10
285.119584
 20
100.472488
 42
-0.044235
  0
VERTEX
  8
0
 10
282.651992
 20
105.249990
 42
-0.043287
  0
VERTEX
  8
0
 10
281.041876
 20
110.421496
 42
-0.045972
  0
VERTEX
  8
0
 10
280.421248
 20
115.424015
 42
-0.074024
  0
VERTEX
  8
0
 10
280.918395
 20
119.682154
 42
-0.069068
  0
VERTEX
  8
0
 10
283.282753
 20
125.244550
 42
-0.123452
  0
VERTEX
  8
0
 10
286.775679
 20
128.736757
 42
-0.145128
  0
VERTEX
  8
0
 10
291.079574
 20
129.842095
 42
-0.111180
  0
SEQEND
  0
POLYLINE
  8
0
 66
1
 70
1
  0
VERTEX
  8
0
 10
306.727749
 20
100.750000
 42
-0.010852
  0
VERTEX
  8
0
 10
305.980089
 20
91.743789
 42
-0.151815
  0
VERTEX
  8
0
 10
304.711190
 20
88.790899
 42
-0.293995
  0
VERTEX
  8
0
 10
302.394818
 20
88.095291
 42
-0.041304
  0
VERTEX
  8
0
 10
297.500000
 20
89.952855
 42
-0.018477
  0
VERTEX
  8
0
 10
292.799269
 20
92.413375
 42
-0.282406
  0
VERTEX
  8
0
 10
291.955142
 20
93.954318
 42
-0.168612
  0
VERTEX
  8
0
 10
292.747016
 20
95.917467
 42
-0.006406
  0
VERTEX
  8
0
 10
298.088932
 20
101.883016
 42
-0.005484
  0
VERTEX
  8
0
 10
300.994118
 20
104.976113
 42
-0.008389
  0
VERTEX
  8
0
 10
303.586470
 20
107.587056
 42
-0.003811
  0
VERTEX
  8
0
 10
305.831075
 20
109.740062
 42
-0.184159
  0
VERTEX
  8
0
 10
306.396924
 20
109.974454
 42
-0.400669
  0
VERTEX
  8
0
 10
306.742191
 20
109.663166
 42
-0.009773
  0
VERTEX
  8
0
 10
306.871865
 20
107.324634
 42
-0.015569
  0
VERTEX
  8
0
 10
306.885839
 20
104.359242
 42
-0.008675
  0
SEQEND
  0
POLYLINE
  8
0
 66
1
 70
1
  0
VERTEX
  8
0
 10
695.500000
 20
150.997164
 42
0.075593
  0
VERTEX
  8
0
 10
689.640618
 20
148.736180
 42
0.033481
  0
VERTEX
  8
0
 10
682.715437
 20
144.138333
 42
0.024994
  0
VERTEX
  8
0
 10
674.356740
 20
137.054609
 42
0.010696
  0
VERTEX
  8
0
 10
663.886059
 20
126.811922
 42
0.000000
  0
VERTEX
  8
0
 10
654.272119
 20
116.996205
 42
0.000000
  0
VERTEX
  8
0
 10
651.881580
 20
121.641475
 42
0.030898
  0
VERTEX
  8
0
 10
650.687706
 20
123.646545
 42
0.019518
  0
VERTEX
  8
0
 10
649.065749
 20
125.834768
 42
0.019588
  0
VERTEX
  8
0
 10
647.296292
 20
127.868346
 42
0.033798
  0
VERTEX
  8
0
 10
645.652700
 20
129.393372
 42
0.026663
  0
VERTEX
  8
0
 10
643.406031
 20
131.021541
 42
0.061950
  0
VERTEX
  8
0
 10
641.536116
 20
131.924953
 42
0.059135
  0
VERTEX
  8
0
 10
639.448701
 20
132.365915
 42
0.022517
  0
VERTEX
  8
0
 10
636.472842
 20
132.500000
 42
0.020036
  0
VERTEX
  8
0
 10
633.494438
 20
132.380602
 42
0.063704
  0
VERTEX
  8
0
 10
631.548404
 20
131.971170
 42
0.073826
  0
VERTEX
  8
0
 10
629.926973
 20
131.122934
 42
0.033665
  0
VERTEX
  8
0
 10
628.088778
 20
129.585055
 42
0.126623
  0
VERTEX
  8
0
 10
624.121948
 20
123.185683
 42
0.094682
  0
VERTEX
  8
0
 10
623.172562
 20
114.908542
 42
0.079790
  0
VERTEX
  8
0
 10
625.387049
 20
105.611824
 42
0.058182
  0
VERTEX
  8
0
 10
630.574781
 20
96.322547
 42
-0.083533
  0
VERTEX
  8
0
 10
631.272388
 20
94.910514
 42
-0.216585
  0
VERTEX
  8
0
 10
631.123781
 20
93.811381
 42
-0.079793
  0
VERTEX
  8
0
 10
629.984034
 20
92.512458
 42
-0.006008
  0
VERTEX
  8
0
 10
626.323802
 20
89.556725
 42
-0.049013
  0
VERTEX
  8
0
 10
619.005934
 20
84.872914
 42
-0.074931
  0
VERTEX
  8
0
 10
611.870498
 20
82.493890
 42
-0.120302
  0
VERTEX
  8
0
 10
606.613059
 20
82.847807
 42
-0.287943
  0
VERTEX
  8
0
 10
604.188837
 20
85.706112
 42
-0.074169
  0
VERTEX
  8
0
 10
604.195044
 20
86.860640
 42
-0.202950
  0
VERTEX
  8
0
 10
604.615537
 20
87.540511
 42
-0.116122
  0
VERTEX
  8
0
 10
605.594521
 20
87.937471
 42
-0.017954
  0
VERTEX
  8
0
 10
607.688837
 20
88.185988
 42
0.019658
  0
VERTEX
  8
0
 10
609.926414
 20
88.459240
 42
0.139624
  0
VERTEX
  8
0
 10
610.906235
 20
88.918467
 42
0.178753
  0
VERTEX
  8
0
 10
611.372055
 20
89.768537
 42
0.036897
  0
VERTEX
  8
0
 10
611.500000
 20
91.500000
 42
0.034314
  0
VERTEX
  8
0
 10
611.390591
 20
93.092334
 42
0.133939
  0
VERTEX
  8
0
 10
611.006701
 20
93.991538
 42
0.150407
  0
VERTEX
  8
0
 10
610.248183
 20
94.513179
 42
0.047124
  0
VERTEX
  8
0
 10
608.883911
 20
94.803500
 42
0.071649
  0
VERTEX
  8
0
 10
607.509991
 20
94.765630
 42
0.081002
  0
VERTEX
  8
0
 10
606.263819
 20
94.335633
 42
0.065097
  0
VERTEX
  8
0
 10
605.019516
 20
93.439925
 42
0.029348
  0
VERTEX
  8
0
 10
603.633911
 20
91.976775
 42
0.043065
  0
VERTEX
  8
0
 10
601.787868
 20
89.354689
 42
0.117369
  0
VERTEX
  8
0
 10
601.135206
 20
87.196624
 42
0.127300
  0
VERTEX
  8
0
 10
601.548355
 20
85.085105
 42
0.055069
  0
VERTEX
  8
0
 10
603.072580
 20
82.634859
 42
0.045854
  0
VERTEX
  8
0
 10
604.339137
 20
81.297357
 42
0.084597
  0
VERTEX
  8
0
 10
605.610708
 20
80.513897
 42
0.071186
  0
VERTEX
  8
0
 10
607.217906
 20
80.118415
 42
0.024791
  0
VERTEX
  8
0
 10
609.604699
 20
80.000000
 42
0.048895
  0
VERTEX
  8
0
 10
613.707462
 20
80.402169
 42
0.049344
  0
VERTEX
  8
0
 10
617.640875
 20
81.593237
 42
0.038477
  0
VERTEX
  8
0
 10
622.015207
 20
83.812790
 42
0.015906
  0
VERTEX
  8
0
 10
627.577218
 20
87.443172
 42
0.000000
  0
VERTEX
  8
0
 10
633.967473
 20
91.910278
 42
0.000000
  0
VERTEX
  8
0
 10
639.585282
 20
88.955139
 42
0.012694
  0
VERTEX
  8
0
 10
641.875297
 20
87.823781
 42
0.014721
  0
VERTEX
  8
0
 10
644.110531
 20
86.868072
 42
0.013814
  0
VERTEX
  8
0
 10
646.037059
 20
86.171431
 42
0.080007
  0
VERTEX
  8
0
 10
647.101546
 20
86.000000
 42
-0.042602
  0
VERTEX
  8
0
 10
648.422134
 20
85.887275
 42
-0.289182
  0
VERTEX
  8
0
 10
648.886981
 20
85.468495
 42
-0.176541
  0
VERTEX
  8
0
 10
648.828174
 20
84.685897
 42
-0.016730
  0
VERTEX
  8
0
 10
647.964816
 20
82.934259
 42
0.042686
  0
VERTEX
  8
0
 10
647.495942
 20
81.843788
 42
0.304834
  0
VERTEX
  8
0
 10
647.641971
 20
81.318223
 42
0.165127
  0
VERTEX
  8
0
 10
648.309263
 20
81.051150
 42
0.013353
  0
VERTEX
  8
0
 10
650.224269
 20
81.000000
 42
0.040199
  0
VERTEX
  8
0
 10
651.709651
 20
81.119614
 42
0.058802
  0
VERTEX
  8
0
 10
652.969791
 20
81.479486
 42
0.068000
  0
VERTEX
  8
0
 10
653.968910
 20
82.066816
 42
0.086546
  0
VERTEX
  8
0
 10
654.681536
 20
82.861665
 42
-0.097448
  0
VERTEX
  8
0
 10
655.422376
 20
83.652881
 42
-0.032467
  0
VERTEX
  8
0
 10
656.773968
 20
84.498515
 42
-0.030889
  0
VERTEX
  8
0
 10
658.430084
 20
85.262866
 42
-0.030646
  0
VERTEX
  8
0
 10
660.172082
 20
85.819668
 42
0.057511
  0
VERTEX
  8
0
 10
664.009003
 20
87.277025
 42
0.045913
  0
VERTEX
  8
0
 10
667.737743
 20
89.665188
 42
0.048022
  0
VERTEX
  8
0
 10
670.419061
 20
92.200318
 42
0.328900
  0
VERTEX
  8
0
 10
670.559009
 20
93.904522
 42
0.169348
  0
VERTEX
  8
0
 10
670.034206
 20
94.330395
 42
0.176558
  0
VERTEX
  8
0
 10
669.368685
 20
94.328186
 42
0.082994
  0
VERTEX
  8
0
 10
668.459695
 20
93.809615
 42
0.019432
  0
VERTEX
  8
0
 10
667.140306
 20
92.645616
 42
-0.046442
  0
VERTEX
  8
0
 10
664.972769
 20
90.932075
 42
-0.027982
  0
VERTEX
  8
0
 10
662.127456
 20
89.302257
 42
-0.020436
  0
VERTEX
  8
0
 10
659.385487
 20
88.066666
 42
-0.300566
  0
VERTEX
  8
0
 10
658.398427
 20
88.268240
 42
-0.357302
  0
VERTEX
  8
0
 10
658.338695
 20
88.869207
 42
-0.000112
  0
VERTEX
  8
0
 10
672.639655
 20
110.344585
 42
-0.001311
  0
VERTEX
  8
0
 10
685.438936
 20
129.446865
 42
-0.016090
  0
VERTEX
  8
0
 10
690.576426
 20
136.565592
 42
0.004894
  0
VERTEX
  8
0
 10
697.789938
 20
146.103455
 42
0.077392
  0
VERTEX
  8
0
 10
699.675233
 20
149.696131
 42
0.465298
  0
VERTEX
  8
0
 10
698.831396
 20
151.096801
 42
0.094011
  0
SEQEND
  0
POLYLINE
  8
0
 66
1
 70
1
  0
VERTEX
  8
0
 10
690.762472
 20
141.750000
 42
0.006921
  0
VERTEX
  8
0
 10
684.726741
 20
134.413507
 42
0.004738
  0
VERTEX
  8
0
 10
678.069920
 20
125.926223
 42
0.004456
  0
VERTEX
  8
0
 10
671.081131
 20
116.670134
 42
0.004059
  0
VERTEX
  8
0
 10
664.035018
 20
107.000000
 42
-0.000539
  0
VERTEX
  8
0
 10
660.848748
 20
102.561836
 42
-0.000847
  0
VERTEX
  8
0
 10
658.100226
 20
98.755729
 42
-0.000203
  0
VERTEX
  8
0
 10
655.685710
 20
95.426898
 42
-0.033912
  0
VERTEX
  8
0
 10
655.398828
 20
95.083333
 42
-0.656489
  0
VERTEX
  8
0
 10
655.238117
 20
95.142833
 42
-0.002784
  0
VERTEX
  8
0
 10
655.117156
 20
97.619270
 42
-0.006924
  0
VERTEX
  8
0
 10
655.028493
 20
100.635104
 42
-0.003886
  0
VERTEX
  8
0
 10
655.000000
 20
104.301417
 42
0.000000
  0
VERTEX
  8
0
 10
655.000000
 20
113.936167
 42
0.000000
  0
VERTEX
  8
0
 10
667.750000
 20
126.856955
 42
-0.013110
  0
VERTEX
  8
0
 10
676.279111
 20
135.058663
 42
-0.018509
  0
VERTEX
  8
0
 10
684.324073
 20
141.870664
 42
-0.016180
  0
VERTEX
  8
0
 10
691.208460
 20
146.924291
 42
-0.151358
  0
VERTEX
  8
0
 10
694.680580
 20
148.000000
 42
-0.552377
  0
VERTEX
  8
0
 10
694.907967
 20
147.638490
 42
-0.028031
  0
VERTEX
  8
0
 10
694.094970
 20
146.164062
 42
-0.023554
  0
VERTEX
  8
0
 10
692.695509
 20
144.149157
 42
-0.012028
  0
SEQEND
  0
POLYLINE
  8
0
 66
1
 70
1
  0
VERTEX
  8
0
 10
641.799660
 20
128.595014
 42
-0.079745
  0
VERTEX
  8
0
 10
645.877431
 20
125.565845
 42
-0.057282
  0
VERTEX
  8
0
 10
649.354945
 20
121.069304
 42
-0.061100
  0
VERTEX
  8
0
 10
651.424183
 20
116.458101
 42
-0.203812
  0
VERTEX
  8
0
 10
651.092316
 20
113.227163
 42
-0.056655
  0
VERTEX
  8
0
 10
650.354600
 20
112.188687
 42
-0.004475
  0
VERTEX
  8
0
 10
648.070374
 20
109.686033
 42
-0.006033
  0
VERTEX
  8
0
 10
645.275512
 20
106.750258
 42
-0.004583
  0
VERTEX
  8
0
 10
642.143961
 20
103.597629
 42
0.000000
  0
VERTEX
  8
0
 10
634.149213
 20
95.695258
 42
0.000000
  0
VERTEX
  8
0
 10
631.119584
 20
100.472488
 42
-0.044235
  0
VERTEX
  8
0
 10
628.651992
 20
105.249990
 42
-0.043287
  0
VERTEX
  8
0
 10
627.041876
 20
110.421496
 42
-0.045972
  0
VERTEX
  8
0
 10
626.421248
 20
115.424015
 42
-0.074024
  0
VERTEX
  8
0
 10
626.918395
 20
119.682154
 42
-0.069068
  0
VERTEX
  8
0
 10
629.282753
 20
125.244550
 42
-0.123452
  0
VERTEX
  8
0
 10
632.775679
 20
128.736757
 42
-0.145128
  0
VERTEX
  8
0
 10
637.079574
 20
129.842095
 42
-0.111180
  0
SEQEND
  0
POLYLINE
  8
0
 66
1
 70
1
  0
VERTEX
  8
0
 10
652.727749
 20
100.750000
 42
-0.010852
  0
VERTEX
  8
0
 10
651.980089
 20
91.743789
 42
-0.151815
  0
VERTEX
  8
0
 10
650.711190
 20
88.790899
 42
-0.293995
  0
VERTEX
  8
0
 10
648.394818
 20
88.095291
 42
-0.041304
  0
VERTEX
  8
0
 10
643.500000
 20
89.952855
 42
-0.018477
  0
VERTEX
  8
0
 10
638.799269
 20
92.413375
 42
-0.282406
  0
VERTEX
  8
0
 10
637.955142
 20
93.954318
 42
-0.168612
  0
VERTEX
  8
0
 10
638.747016
 20
95.917467
 42
-0.006406
  0
VERTEX
  8
0
 10
644.088932
 20
101.883016
 42
-0.005484
  0
VERTEX
  8
0
 10
646.994118
 20
104.976113
 42
-0.008389
  0
VERTEX
  8
0
 10
649.586470
 20
107.587056
 42
-0.003811
  0
VERTEX
  8
0
 10
651.831075
 20
109.740062
 42
-0.184159
  0
VERTEX
  8
0
 10
652.396924
 20
109.974454
 42
-0.400669
  0
VERTEX
  8
0
 10
652.742191
 20
109.663166
 42
-0.009773
  0
VERTEX
  8
0
 10
652.871865
 20
107.324634
 42
-0.015569
  0
VERTEX
  8
0
 10
652.885839
 20
104.359242
 42
-0.008675
  0
SEQEND
  0
POLYLINE
  8
0
 66
1
 70
1
  0
VERTEX
  8
0
 10
729.079962
 20
149.352557
 42
0.081583
  0
VERTEX
  8
0
 10
717.160887
 20
140.751165
 42
0.016486
  0
VERTEX
  8
0
 10
699.303833
 20
121.579646
 42
0.016388
  0
VERTEX
  8
0
 10
682.752440
 20
101.285787
 42
0.083349
  0
VERTEX
  8
0
 10
675.978011
 20
88.433373
 42
0.036629
  0
VERTEX
  8
0
 10
675.040141
 20
84.690956
 42
0.136842
  0
VERTEX
  8
0
 10
675.279241
 20
82.300025
 42
0.194622
  0
VERTEX
  8
0
 10
676.633530
 20
80.863969
 42
0.087045
  0
VERTEX
  8
0
 10
679.189860
 20
80.193220
 42
0.041839
  0
VERTEX
  8
0
 10
680.865682
 20
80.194358
 42
0.028132
  0
VERTEX
  8
0
 10
682.762146
 20
80.462692
 42
0.028140
  0
VERTEX
  8
0
 10
684.615589
 20
80.942028
 42
0.042002
  0
VERTEX
  8
0
 10
686.160804
 20
81.583155
 42
0.055191
  0
VERTEX
  8
0
 10
689.918824
 20
84.085882
 42
0.015831
  0
VERTEX
  8
0
 10
695.140635
 20
88.753792
 42
0.007658
  0
VERTEX
  8
0
 10
700.249487
 20
93.771762
 42
0.346057
  0
VERTEX
  8
0
 10
700.405805
 20
95.152410
 42
0.405315
  0
VERTEX
  8
0
 10
699.923003
 20
95.274180
 42
0.015596
  0
VERTEX
  8
0
 10
698.202564
 20
94.209190
 42
0.020203
  0
VERTEX
  8
0
 10
696.086386
 20
92.679569
 42
0.011878
  0
VERTEX
  8
0
 10
693.677863
 20
90.691593
 42
-0.006219
  0
VERTEX
  8
0
 10
688.503971
 20
86.321741
 42
-0.024010
  0
VERTEX
  8
0
 10
685.134686
 20
83.808445
 42
-0.039032
  0
VERTEX
  8
0
 10
682.687570
 20
82.423961
 42
-0.109646
  0
VERTEX
  8
0
 10
680.777494
 20
82.000000
 42
-0.186337
  0
VERTEX
  8
0
 10
679.577640
 20
82.463240
 42
-0.209684
  0
VERTEX
  8
0
 10
679.075747
 20
83.585553
 42
-0.107006
  0
VERTEX
  8
0
 10
679.457363
 20
85.411229
 42
-0.037446
  0
VERTEX
  8
0
 10
680.736186
 20
87.785183
 42
-0.012912
  0
VERTEX
  8
0
 10
686.666566
 20
96.551131
 42
-0.031139
  0
VERTEX
  8
0
 10
691.605259
 20
102.622573
 42
-0.032300
  0
VERTEX
  8
0
 10
697.149103
 20
107.903188
 42
-0.014882
  0
VERTEX
  8
0
 10
704.985219
 20
114.069988
 42
0.017115
  0
VERTEX
  8
0
 10
717.663073
 20
124.139094
 42
0.021105
  0
VERTEX
  8
0
 10
728.732008
 20
134.402244
 42
0.017661
  0
VERTEX
  8
0
 10
737.222657
 20
143.596540
 42
0.179469
  0
VERTEX
  8
0
 10
739.000000
 20
148.388733
 42
0.188600
  0
VERTEX
  8
0
 10
738.714491
 20
149.118726
 42
0.018748
  0
VERTEX
  8
0
 10
737.363985
 20
150.475366
 42
0.019469
  0
VERTEX
  8
0
 10
735.915013
 20
151.723928
 42
0.169678
  0
VERTEX
  8
0
 10
735.124916
 20
152.000000
 42
0.099134
  0
VERTEX
  8
0
 10
734.638194
 20
151.902541
 42
0.004388
  0
VERTEX
  8
0
 10
733.047167
 20
151.222313
 42
0.007264
  0
VERTEX
  8
0
 10
731.168558
 20
150.366821
 42
0.005113
  0
SEQEND
  0
POLYLINE
  8
0
 66
1
 70
1
  0
VERTEX
  8
0
 10
735.153950
 20
146.486380
 42
-0.105184
  0
VERTEX
  8
0
 10
734.135016
 20
143.979201
 42
-0.024616
  0
VERTEX
  8
0
 10
731.393720
 20
140.334290
 42
-0.021458
  0
VERTEX
  8
0
 10
727.417527
 20
135.953020
 42
-0.011759
  0
VERTEX
  8
0
 10
722.199452
 20
130.919454
 42
-0.012572
  0
VERTEX
  8
0
 10
715.891095
 20
125.400626
 42
-0.007812
  0
VERTEX
  8
0
 10
708.230510
 20
119.231417
 42
-0.001762
  0
VERTEX
  8
0
 10
700.358838
 20
113.136940
 42
-0.376603
  0
VERTEX
  8
0
 10
699.471957
 20
113.194710
 42
-0.379202
  0
VERTEX
  8
0
 10
699.413831
 20
114.154309
 42
-0.001401
  0
VERTEX
  8
0
 10
706.915878
 20
123.678177
 42
-0.006897
  0
VERTEX
  8
0
 10
714.108999
 20
132.504524
 42
-0.017705
  0
VERTEX
  8
0
 10
719.618853
 20
138.624366
 42
-0.023935
  0
VERTEX
  8
0
 10
725.875176
 20
144.505952
 42
-0.059614
  0
VERTEX
  8
0
 10
731.092898
 20
147.981303
 42
-0.186252
  0
VERTEX
  8
0
 10
734.024045
 20
148.276040
 42
-0.387618
  0
SEQEND
  0
POLYLINE
  8
0
 66
1
 70
1
  0
VERTEX
  8
0
 10
582.360009
 20
145.685056
 42
0.017730
  0
VERTEX
  8
0
 10
579.694964
 20
143.572990
 42
0.009073
  0
VERTEX
  8
0
 10
576.497567
 20
140.747330
 42
0.009004
  0
VERTEX
  8
0
 10
573.305318
 20
137.713788
 42
0.013379
  0
VERTEX
  8
0
 10
570.631708
 20
134.935056
 42
0.020863
  0
VERTEX
  8
0
 10
564.522970
 20
127.647745
 42
0.001460
  0
VERTEX
  8
0
 10
548.313182
 20
106.457269
 42
0.000253
  0
VERTEX
  8
0
 10
530.513596
 20
83.022591
 42
0.163708
  0
VERTEX
  8
0
 10
530.000000
 20
81.495997
 42
0.338471
  0
VERTEX
  8
0
 10
530.148604
 20
81.301624
 42
0.024186
  0
VERTEX
  8
0
 10
530.855957
 20
81.145699
 42
0.026152
  0
VERTEX
  8
0
 10
531.796859
 20
81.035767
 42
0.016006
  0
VERTEX
  8
0
 10
532.913897
 20
81.000000
 42
0.090427
  0
VERTEX
  8
0
 10
534.635531
 20
81.313930
 42
0.077961
  0
VERTEX
  8
0
 10
536.236515
 20
82.222814
 42
0.045814
  0
VERTEX
  8
0
 10
538.101084
 20
84.007475
 42
0.010900
  0
VERTEX
  8
0
 10
540.852223
 20
87.314286
 42
-0.026228
  0
VERTEX
  8
0
 10
549.514216
 20
97.099768
 42
-0.030806
  0
VERTEX
  8
0
 10
558.724065
 20
105.378207
 42
-0.028936
  0
VERTEX
  8
0
 10
567.018579
 20
111.209314
 42
-0.234485
  0
VERTEX
  8
0
 10
571.511453
 20
111.633979
 42
-0.220375
  0
VERTEX
  8
0
 10
572.260448
 20
110.862439
 42
-0.233262
  0
VERTEX
  8
0
 10
572.132976
 20
109.819067
 42
-0.026117
  0
VERTEX
  8
0
 10
570.553185
 20
107.661974
 42
-0.000567
  0
VERTEX
  8
0
 10
562.294580
 20
97.562949
 42
0.058708
  0
VERTEX
  8
0
 10
555.076925
 20
86.285774
 42
0.403611
  0
VERTEX
  8
0
 10
556.930510
 20
80.600846
 42
0.258032
  0
VERTEX
  8
0
 10
564.719275
 20
80.730662
 42
0.043662
  0
VERTEX
  8
0
 10
577.369920
 20
89.553258
 42
0.015204
  0
VERTEX
  8
0
 10
579.143239
 20
91.129577
 42
0.020571
  0
VERTEX
  8
0
 10
580.639914
 20
92.665054
 42
0.018061
  0
VERTEX
  8
0
 10
581.758428
 20
94.005606
 42
0.166316
  0
VERTEX
  8
0
 10
582.000000
 20
94.711762
 42
0.198129
  0
VERTEX
  8
0
 10
581.650739
 20
95.558560
 42
0.323818
  0
VERTEX
  8
0
 10
580.917806
 20
95.678411
 42
0.058452
  0
VERTEX
  8
0
 10
579.360889
 20
94.656122
 42
0.005231
  0
VERTEX
  8
0
 10
575.802493
 20
91.608442
 42
-0.029750
  0
VERTEX
  8
0
 10
570.901004
 20
87.810497
 42
-0.028985
  0
VERTEX
  8
0
 10
565.541811
 20
84.585046
 42
-0.023710
  0
VERTEX
  8
0
 10
560.738335
 20
82.344655
 42
-0.302339
  0
VERTEX
  8
0
 10
558.882667
 20
82.717333
 42
-0.331857
  0
VERTEX
  8
0
 10
558.755215
 20
83.592866
 42
-0.021736
  0
VERTEX
  8
0
 10
560.151993
 20
85.924351
 42
-0.020306
  0
VERTEX
  8
0
 10
562.469502
 20
89.144471
 42
-0.006989
  0
VERTEX
  8
0
 10
566.071828
 20
93.613697
 42
0.009776
  0
VERTEX
  8
0
 10
571.984282
 20
101.033235
 42
0.039821
  0
VERTEX
  8
0
 10
575.112572
 20
105.874472
 42
0.072909
  0
VERTEX
  8
0
 10
576.375795
 20
109.351045
 42
0.175354
  0
VERTEX
  8
0
 10
575.987778
 20
112.022837
 42
0.229429
  0
VERTEX
  8
0
 10
573.454220
 20
113.863686
 42
0.103493
  0
VERTEX
  8
0
 10
569.245106
 20
113.741768
 42
0.068204
  0
VERTEX
  8
0
 10
563.797028
 20
111.619838
 42
0.036549
  0
VERTEX
  8
0
 10
557.750000
 20
107.652239
 42
-0.006653
  0
VERTEX
  8
0
 10
555.927640
 20
106.294204
 42
-0.012035
  0
VERTEX
  8
0
 10
554.395313
 20
105.239004
 42
-0.007258
  0
VERTEX
  8
0
 10
553.160579
 20
104.457187
 42
-0.586167
  0
VERTEX
  8
0
 10
553.000000
 20
104.547098
 42
-0.185312
  0
VERTEX
  8
0
 10
553.763164
 20
106.535520
 42
-0.024198
  0
VERTEX
  8
0
 10
557.015081
 20
109.814074
 42
-0.024570
  0
VERTEX
  8
0
 10
561.551743
 20
113.573327
 42
-0.015670
  0
VERTEX
  8
0
 10
567.163461
 20
117.507959
 42
0.027462
  0
VERTEX
  8
0
 10
578.640673
 20
125.965571
 42
0.033561
  0
VERTEX
  8
0
 10
588.330118
 20
135.121129
 42
0.033119
  0
VERTEX
  8
0
 10
595.091130
 20
143.474856
 42
0.250183
  0
VERTEX
  8
0
 10
595.697680
 20
148.345451
 42
0.240574
  0
VERTEX
  8
0
 10
593.992774
 20
149.878011
 42
0.114729
  0
VERTEX
  8
0
 10
590.965814
 20
149.973630
 42
0.072030
  0
VERTEX
  8
0
 10
586.912335
 20
148.536608
 42
0.037567
  0
SEQEND
  0
POLYLINE
  8
0
 66
1
 70
1
  0
VERTEX
  8
0
 10
592.791993
 20
145.841578
 42
-0.237144
  0
VERTEX
  8
0
 10
591.717095
 20
142.038179
 42
-0.014072
  0
VERTEX
  8
0
 10
583.147532
 20
133.187462
 42
-0.021688
  0
VERTEX
  8
0
 10
573.474206
 20
124.530219
 42
-0.040705
  0
VERTEX
  8
0
 10
564.851220
 20
118.563715
 42
-0.042003
  0
VERTEX
  8
0
 10
562.975351
 20
117.680665
 42
-0.715950
  0
VERTEX
  8
0
 10
562.686518
 20
118.034853
 42
-0.028854
  0
VERTEX
  8
0
 10
564.062066
 20
119.976854
 42
-0.000565
  0
VERTEX
  8
0
 10
571.686302
 20
129.500000
 42
-0.012917
  0
VERTEX
  8
0
 10
580.381822
 20
139.780394
 42
-0.046041
  0
VERTEX
  8
0
 10
586.677262
 20
145.655489
 42
-0.127616
  0
VERTEX
  8
0
 10
590.645704
 20
147.356737
 42
-0.402802
  0
SEQEND
  0
POLYLINE
  8
0
 66
1
 70
1
  0
VERTEX
  8
0
 10
193.575147
 20
125.478435
 42
-0.011645
  0
VERTEX
  8
0
 10
191.097061
 20
122.184276
 42
-0.078423
  0
VERTEX
  8
0
 10
189.600393
 20
120.801043
 42
-0.112623
  0
VERTEX
  8
0
 10
187.985455
 20
120.183565
 42
-0.035240
  0
VERTEX
  8
0
 10
185.384164
 20
120.000000
 42
0.021778
  0
VERTEX
  8
0
 10
183.705340
 20
119.926842
 42
0.028721
  0
VERTEX
  8
0
 10
182.189662
 20
119.706250
 42
0.028818
  0
VERTEX
  8
0
 10
180.993217
 20
119.388516
 42
0.176816
  0
VERTEX
  8
0
 10
180.500000
 20
119.000000
 42
0.368134
  0
VERTEX
  8
0
 10
180.561602
 20
118.597583
 42
0.107647
  0
VERTEX
  8
0
 10
181.156038
 20
118.273649
 42
0.051512
  0
VERTEX
  8
0
 10
182.299598
 20
118.063722
 42
0.019657
  0
VERTEX
  8
0
 10
183.919790
 20
118.000000
 42
0.000000
  0
VERTEX
  8
0
 10
187.957614
 20
118.000000
 42
0.000000
  0
VERTEX
  8
0
 10
179.377741
 20
106.250000
 42
0.003485
  0
VERTEX
  8
0
 10
173.260896
 20
97.749309
 42
0.020737
  0
VERTEX
  8
0
 10
170.286088
 20
93.161910
 42
0.038675
  0
VERTEX
  8
0
 10
168.610946
 20
89.751071
 42
0.041786
  0
VERTEX
  8
0
 10
167.531987
 20
86.209041
 42
0.240502
  0
VERTEX
  8
0
 10
168.754677
 20
81.610541
 42
0.258423
  0
VERTEX
  8
0
 10
173.118666
 20
80.100631
 42
0.107999
  0
VERTEX
  8
0
 10
180.528790
 20
83.127937
 42
0.051030
  0
VERTEX
  8
0
 10
188.435023
 20
89.854864
 42
0.018913
  0
VERTEX
  8
0
 10
191.278317
 20
93.057573
 42
0.246469
  0
VERTEX
  8
0
 10
191.591870
 20
94.566422
 42
0.532488
  0
VERTEX
  8
0
 10
190.697909
 20
94.856517
 42
0.023180
  0
VERTEX
  8
0
 10
187.735020
 20
92.303824
 42
-0.021586
  0
VERTEX
  8
0
 10
181.294176
 20
86.718821
 42
-0.049675
  0
VERTEX
  8
0
 10
175.907066
 20
83.251252
 42
-0.110747
  0
VERTEX
  8
0
 10
172.437730
 20
82.357786
 42
-0.424407
  0
VERTEX
  8
0
 10
171.005629
 20
83.750000
 42
-0.143008
  0
VERTEX
  8
0
 10
171.350684
 20
84.917767
 42
-0.003459
  0
VERTEX
  8
0
 10
174.463167
 20
89.685938
 42
-0.007271
  0
VERTEX
  8
0
 10
178.262315
 20
95.241828
 42
-0.004847
  0
VERTEX
  8
0
 10
182.768067
 20
101.500000
 42
0.000000
  0
VERTEX
  8
0
 10
194.524877
 20
117.500000
 42
0.000000
  0
VERTEX
  8
0
 10
200.012438
 20
117.807284
 42
0.016079
  0
VERTEX
  8
0
 10
204.709188
 20
118.222108
 42
0.168140
  0
VERTEX
  8
0
 10
206.422091
 20
119.056753
 42
0.633989
  0
VERTEX
  8
0
 10
206.149766
 20
119.812506
 42
0.023721
  0
VERTEX
  8
0
 10
202.200000
 20
120.000000
 42
-0.011681
  0
VERTEX
  8
0
 10
200.206343
 20
120.046581
 42
-0.019269
  0
VERTEX
  8
0
 10
198.527500
 20
120.190059
 42
-0.013951
  0
VERTEX
  8
0
 10
197.213822
 20
120.390872
 42
-0.362539
  0
VERTEX
  8
0
 10
197.000000
 20
120.647008
 42
-0.149736
  0
VERTEX
  8
0
 10
197.125969
 20
121.058214
 42
-0.005990
  0
VERTEX
  8
0
 10
198.028125
 20
122.358649
 42
-0.010081
  0
VERTEX
  8
0
 10
199.158967
 20
123.881780
 42
-0.006916
  0
VERTEX
  8
0
 10
200.500000
 20
125.565305
 42
0.006223
  0
VERTEX
  8
0
 10
201.841126
 20
127.244164
 42
0.009192
  0
VERTEX
  8
0
 10
202.971875
 20
128.752778
 42
0.005049
  0
VERTEX
  8
0
 10
203.883137
 20
130.043580
 42
0.152317
  0
VERTEX
  8
0
 10
204.000000
 20
130.418297
 42
0.335431
  0
VERTEX
  8
0
 10
203.828837
 20
130.644729
 42
0.026400
  0
VERTEX
  8
0
 10
203.045312
 20
130.822790
 42
0.027499
  0
VERTEX
  8
0
 10
201.995862
 20
130.944745
 42
0.016837
  0
VERTEX
  8
0
 10
200.750000
 20
130.978435
 42
0.065233
  0
VERTEX
  8
0
 10
198.866215
 20
130.718888
 42
0.097008
  0
VERTEX
  8
0
 10
197.379324
 20
129.981080
 42
0.060841
  0
VERTEX
  8
0
 10
195.839177
 20
128.470968
 42
0.013014
  0
SEQEND
  0
POLYLINE
  8
0
 66
1
 70
1
  0
VERTEX
  8
0
 10
534.575147
 20
125.478435
 42
-0.011645
  0
VERTEX
  8
0
 10
532.097061
 20
122.184276
 42
-0.078423
  0
VERTEX
  8
0
 10
530.600393
 20
120.801043
 42
-0.112623
  0
VERTEX
  8
0
 10
528.985455
 20
120.183565
 42
-0.035240
  0
VERTEX
  8
0
 10
526.384164
 20
120.000000
 42
0.021778
  0
VERTEX
  8
0
 10
524.705340
 20
119.926842
 42
0.028721
  0
VERTEX
  8
0
 10
523.189662
 20
119.706250
 42
0.028818
  0
VERTEX
  8
0
 10
521.993217
 20
119.388516
 42
0.176816
  0
VERTEX
  8
0
 10
521.500000
 20
119.000000
 42
0.368134
  0
VERTEX
  8
0
 10
521.561602
 20
118.597583
 42
0.107647
  0
VERTEX
  8
0
 10
522.156038
 20
118.273649
 42
0.051512
  0
VERTEX
  8
0
 10
523.299598
 20
118.063722
 42
0.019657
  0
VERTEX
  8
0
 10
524.919790
 20
118.000000
 42
0.000000
  0
VERTEX
  8
0
 10
528.957614
 20
118.000000
 42
0.000000
  0
VERTEX
  8
0
 10
520.377741
 20
106.250000
 42
0.003485
  0
VERTEX
  8
0
 10
514.260896
 20
97.749309
 42
0.020737
  0
VERTEX
  8
0
 10
511.286088
 20
93.161910
 42
0.038675
  0
VERTEX
  8
0
 10
509.610946
 20
89.751071
 42
0.041786
  0
VERTEX
  8
0
 10
508.531987
 20
86.209041
 42
0.240502
  0
VERTEX
  8
0
 10
509.754677
 20
81.610541
 42
0.258423
  0
VERTEX
  8
0
 10
514.118666
 20
80.100631
 42
0.107999
  0
VERTEX
  8
0
 10
521.528790
 20
83.127937
 42
0.051030
  0
VERTEX
  8
0
 10
529.435023
 20
89.854864
 42
0.018913
  0
VERTEX
  8
0
 10
532.278317
 20
93.057573
 42
0.246469
  0
VERTEX
  8
0
 10
532.591870
 20
94.566422
 42
0.532488
  0
VERTEX
  8
0
 10
531.697909
 20
94.856517
 42
0.023180
  0
VERTEX
  8
0
 10
528.735020
 20
92.303824
 42
-0.021586
  0
VERTEX
  8
0
 10
522.294176
 20
86.718821
 42
-0.049675
  0
VERTEX
  8
0
 10
516.907066
 20
83.251252
 42
-0.110747
  0
VERTEX
  8
0
 10
513.437730
 20
82.357786
 42
-0.424407
  0
VERTEX
  8
0
 10
512.005629
 20
83.750000
 42
-0.143008
  0
VERTEX
  8
0
 10
512.350684
 20
84.917767
 42
-0.003459
  0
VERTEX
  8
0
 10
515.463167
 20
89.685938
 42
-0.007271
  0
VERTEX
  8
0
 10
519.262315
 20
95.241828
 42
-0.004847
  0
VERTEX
  8
0
 10
523.768067
 20
101.500000
 42
0.000000
  0
VERTEX
  8
0
 10
535.524877
 20
117.500000
 42
0.000000
  0
VERTEX
  8
0
 10
541.012438
 20
117.807284
 42
0.016079
  0
VERTEX
  8
0
 10
545.709188
 20
118.222108
 42
0.168140
  0
VERTEX
  8
0
 10
547.422091
 20
119.056753
 42
0.633989
  0
VERTEX
  8
0
 10
547.149766
 20
119.812506
 42
0.023721
  0
VERTEX
  8
0
 10
543.200000
 20
120.000000
 42
-0.011681
  0
VERTEX
  8
0
 10
541.206343
 20
120.046581
 42
-0.019269
  0
VERTEX
  8
0
 10
539.527500
 20
120.190059
 42
-0.013951
  0
VERTEX
  8
0
 10
538.213822
 20
120.390872
 42
-0.362539
  0
VERTEX
  8
0
 10
538.000000
 20
120.647008
 42
-0.149736
  0
VERTEX
  8
0
 10
538.125969
 20
121.058214
 42
-0.005990
  0
VERTEX
  8
0
 10
539.028125
 20
122.358649
 42
-0.010081
  0
VERTEX
  8
0
 10
540.158967
 20
123.881780
 42
-0.006916
  0
VERTEX
  8
0
 10
541.500000
 20
125.565305
 42
0.006223
  0
VERTEX
  8
0
 10
542.841126
 20
127.244164
 42
0.009192
  0
VERTEX
  8
0
 10
543.971875
 20
128.752778
 42
0.005049
  0
VERTEX
  8
0
 10
544.883137
 20
130.043580
 42
0.152317
  0
VERTEX
  8
0
 10
545.000000
 20
130.418297
 42
0.335431
  0
VERTEX
  8
0
 10
544.828837
 20
130.644729
 42
0.026400
  0
VERTEX
  8
0
 10
544.045313
 20
130.822790
 42
0.027499
  0
VERTEX
  8
0
 10
542.995862
 20
130.944745
 42
0.016837
  0
VERTEX
  8
0
 10
541.750000
 20
130.978435
 42
0.065233
  0
VERTEX
  8
0
 10
539.866215
 20
130.718888
 42
0.097008
  0
VERTEX
  8
0
 10
538.379324
 20
129.981080
 42
0.060841
  0
VERTEX
  8
0
 10
536.839177
 20
128.470968
 42
0.013014
  0
SEQEND
  0
POLYLINE
  8
0
 66
1
 70
1
  0
VERTEX
  8
0
 10
991.575147
 20
125.478435
 42
-0.011645
  0
VERTEX
  8
0
 10
989.097061
 20
122.184276
 42
-0.078423
  0
VERTEX
  8
0
 10
987.600393
 20
120.801043
 42
-0.112623
  0
VERTEX
  8
0
 10
985.985455
 20
120.183565
 42
-0.035240
  0
VERTEX
  8
0
 10
983.384164
 20
120.000000
 42
0.021778
  0
VERTEX
  8
0
 10
981.705340
 20
119.926842
 42
0.028721
  0
VERTEX
  8
0
 10
980.189662
 20
119.706250
 42
0.028818
  0
VERTEX
  8
0
 10
978.993217
 20
119.388516
 42
0.176816
  0
VERTEX
  8
0
 10
978.500000
 20
119.000000
 42
0.368134
  0
VERTEX
  8
0
 10
978.561602
 20
118.597583
 42
0.107647
  0
VERTEX
  8
0
 10
979.156038
 20
118.273649
 42
0.051512
  0
VERTEX
  8
0
 10
980.299598
 20
118.063722
 42
0.019657
  0
VERTEX
  8
0
 10
981.919790
 20
118.000000
 42
0.000000
  0
VERTEX
  8
0
 10
985.957614
 20
118.000000
 42
0.000000
  0
VERTEX
  8
0
 10
977.377741
 20
106.250000
 42
0.003485
  0
VERTEX
  8
0
 10
971.260896
 20
97.749309
 42
0.020737
  0
VERTEX
  8
0
 10
968.286088
 20
93.161910
 42
0.038675
  0
VERTEX
  8
0
 10
966.610946
 20
89.751071
 42
0.041786
  0
VERTEX
  8
0
 10
965.531987
 20
86.209041
 42
0.240502
  0
VERTEX
  8
0
 10
966.754677
 20
81.610541
 42
0.258423
  0
VERTEX
  8
0
 10
971.118666
 20
80.100631
 42
0.107999
  0
VERTEX
  8
0
 10
978.528790
 20
83.127937
 42
0.051030
  0
VERTEX
  8
0
 10
986.435023
 20
89.854864
 42
0.018913
  0
VERTEX
  8
0
 10
989.278317
 20
93.057573
 42
0.246469
  0
VERTEX
  8
0
 10
989.591870
 20
94.566422
 42
0.532488
  0
VERTEX
  8
0
 10
988.697909
 20
94.856517
 42
0.023180
  0
VERTEX
  8
0
 10
985.735020
 20
92.303824
 42
-0.021586
  0
VERTEX
  8
0
 10
979.294176
 20
86.718821
 42
-0.049675
  0
VERTEX
  8
0
 10
973.907066
 20
83.251252
 42
-0.110747
  0
VERTEX
  8
0
 10
970.437730
 20
82.357786
 42
-0.424407
  0
VERTEX
  8
0
 10
969.005629
 20
83.750000
 42
-0.143008
  0
VERTEX
  8
0
 10
969.350684
 20
84.917767
 42
-0.003459
  0
VERTEX
  8
0
 10
972.463167
 20
89.685938
 42
-0.007271
  0
VERTEX
  8
0
 10
976.262315
 20
95.241828
 42
-0.004847
  0
VERTEX
  8
0
 10
980.768067
 20
101.500000
 42
0.000000
  0
VERTEX
  8
0
 10
992.524877
 20
117.500000
 42
0.000000
  0
VERTEX
  8
0
 10
998.012438
 20
117.807284
 42
0.016079
  0
VERTEX
  8
0
 10
1002.709188
 20
118.222108
 42
0.168140
  0
VERTEX
  8
0
 10
1004.422091
 20
119.056753
 42
0.633989
  0
VERTEX
  8
0
 10
1004.149766
 20
119.812506
 42
0.023721
  0
VERTEX
  8
0
 10
1000.200000
 20
120.000000
 42
-0.011681
  0
VERTEX
  8
0
 10
998.206343
 20
120.046581
 42
-0.019269
  0
VERTEX
  8
0
 10
996.527500
 20
120.190059
 42
-0.013951
  0
VERTEX
  8
0
 10
995.213822
 20
120.390872
 42
-0.362539
  0
VERTEX
  8
0
 10
995.000000
 20
120.647008
 42
-0.149736
  0
VERTEX
  8
0
 10
995.125969
 20
121.058214
 42
-0.005990
  0
VERTEX
  8
0
 10
996.028125
 20
122.358649
 42
-0.010081
  0
VERTEX
  8
0
 10
997.158967
 20
123.881780
 42
-0.006916
  0
VERTEX
  8
0
 10
998.500000
 20
125.565305
 42
0.006223
  0
VERTEX
  8
0
 10
999.841126
 20
127.244164
 42
0.009192
  0
VERTEX
  8
0
 10
1000.971875
 20
128.752778
 42
0.005049
  0
VERTEX
  8
0
 10
1001.883137
 20
130.043580
 42
0.152317
  0
VERTEX
  8
0
 10
1002.000000
 20
130.418297
 42
0.335431
  0
VERTEX
  8
0
 10
1001.828837
 20
130.644729
 42
0.026400
  0
VERTEX
  8
0
 10
1001.045313
 20
130.822790
 42
0.027499
  0
VERTEX
  8
0
 10
999.995862
 20
130.944745
 42
0.016837
  0
VERTEX
  8
0
 10
998.750000
 20
130.978435
 42
0.065233
  0
VERTEX
  8
0
 10
996.866215
 20
130.718888
 42
0.097008
  0
VERTEX
  8
0
 10
995.379324
 20
129.981080
 42
0.060841
  0
VERTEX
  8
0
 10
993.839177
 20
128.470968
 42
0.013014
  0
SEQEND
  0
POLYLINE
  8
0
 66
1
 70
1
  0
VERTEX
  8
0
 10
398.521480
 20
128.378622
 42
0.091882
  0
VERTEX
  8
0
 10
397.317116
 20
126.626303
 42
0.199405
  0
VERTEX
  8
0
 10
397.276617
 20
125.022940
 42
0.206158
  0
VERTEX
  8
0
 10
398.376822
 20
123.899645
 42
0.097599
  0
VERTEX
  8
0
 10
400.404709
 20
123.500000
 42
0.090736
  0
VERTEX
  8
0
 10
402.515119
 20
123.886159
 42
0.122243
  0
VERTEX
  8
0
 10
404.105966
 20
124.986779
 42
0.139371
  0
VERTEX
  8
0
 10
404.867536
 20
126.582345
 42
0.134497
  0
VERTEX
  8
0
 10
404.690532
 20
128.364077
 42
0.173151
  0
VERTEX
  8
0
 10
403.707135
 20
129.509786
 42
0.129778
  0
VERTEX
  8
0
 10
402.087996
 20
129.941328
 42
0.106802
  0
VERTEX
  8
0
 10
400.200875
 20
129.538235
 42
0.090788
  0
SEQEND
  0
POLYLINE
  8
0
 66
1
 70
1
  0
VERTEX
  8
0
 10
732.521480
 20
128.378622
 42
0.091882
  0
VERTEX
  8
0
 10
731.317116
 20
126.626303
 42
0.199405
  0
VERTEX
  8
0
 10
731.276617
 20
125.022940
 42
0.206158
  0
VERTEX
  8
0
 10
732.376822
 20
123.899645
 42
0.097599
  0
VERTEX
  8
0
 10
734.404709
 20
123.500000
 42
0.090736
  0
VERTEX
  8
0
 10
736.515119
 20
123.886159
 42
0.122243
  0
VERTEX
  8
0
 10
738.105966
 20
124.986779
 42
0.139371
  0
VERTEX
  8
0
 10
738.867536
 20
126.582345
 42
0.134497
  0
VERTEX
  8
0
 10
738.690532
 20
128.364077
 42
0.173151
  0
VERTEX
  8
0
 10
737.707135
 20
129.509786
 42
0.129778
  0
VERTEX
  8
0
 10
736.087996
 20
129.941328
 42
0.106802
  0
VERTEX
  8
0
 10
734.200875
 20
129.538235
 42
0.090788
  0
SEQEND
  0
POLYLINE
  8
0
 66
1
 70
1
  0
VERTEX
  8
0
 10
346.244834
 20
114.750000
 42
0.038715
  0
VERTEX
  8
0
 10
345.813373
 20
114.115772
 42
0.017122
  0
VERTEX
  8
0
 10
345.340017
 20
113.219152
 42
0.016827
  0
VERTEX
  8
0
 10
344.900890
 20
112.230128
 42
0.021736
  0
VERTEX
  8
0
 10
344.568941
 20
111.293920
 42
-0.068467
  0
VERTEX
  8
0
 10
344.090834
 20
110.262325
 42
-0.024993
  0
VERTEX
  8
0
 10
343.152644
 20
108.950081
 42
-0.024226
  0
VERTEX
  8
0
 10
341.969780
 20
107.598997
 42
-0.026615
  0
VERTEX
  8
0
 10
340.696552
 20
106.412794
 42
0.003954
  0
VERTEX
  8
0
 10
335.523252
 20
102.013478
 42
0.022386
  0
VERTEX
  8
0
 10
332.893880
 20
99.527404
 42
0.041012
  0
VERTEX
  8
0
 10
331.561252
 20
97.901726
 42
0.297938
  0
VERTEX
  8
0
 10
331.536688
 20
96.940638
 42
0.393044
  0
VERTEX
  8
0
 10
332.096293
 20
96.786827
 42
0.023079
  0
VERTEX
  8
0
 10
333.760569
 20
97.755057
 42
0.024167
  0
VERTEX
  8
0
 10
335.883906
 20
99.275367
 42
0.012698
  0
VERTEX
  8
0
 10
338.377832
 20
101.355183
 42
-0.008264
  0
VERTEX
  8
0
 10
342.344078
 20
104.722925
 42
-0.066153
  0
VERTEX
  8
0
 10
344.377009
 20
105.984285
 42
-0.102288
  0
VERTEX
  8
0
 10
346.309271
 20
106.415057
 42
-0.031942
  0
VERTEX
  8
0
 10
349.290647
 20
106.270708
 42
-0.012312
  0
VERTEX
  8
0
 10
351.092548
 20
106.022542
 42
-0.020154
  0
VERTEX
  8
0
 10
352.602178
 20
105.713712
 42
-0.015127
  0
VERTEX
  8
0
 10
353.769849
 20
105.387600
 42
-0.350190
  0
VERTEX
  8
0
 10
353.950811
 20
105.119948
 42
-0.216410
  0
VERTEX
  8
0
 10
353.329949
 20
103.997976
 42
-0.001220
  0
VERTEX
  8
0
 10
343.340671
 20
96.611851
 42
-0.004543
  0
VERTEX
  8
0
 10
334.115343
 20
89.953658
 42
-0.033762
  0
VERTEX
  8
0
 10
329.500000
 20
87.132987
 42
0.013411
  0
VERTEX
  8
0
 10
326.113935
 20
85.248284
 42
0.034882
  0
VERTEX
  8
0
 10
323.819774
 20
83.663712
 42
0.049682
  0
VERTEX
  8
0
 10
322.421731
 20
82.298619
 42
0.176303
  0
VERTEX
  8
0
 10
322.000000
 20
81.139757
 42
0.293104
  0
VERTEX
  8
0
 10
322.546032
 20
80.288314
 42
0.171025
  0
VERTEX
  8
0
 10
323.798777
 20
80.173300
 42
0.063126
  0
VERTEX
  8
0
 10
326.015199
 20
81.041406
 42
0.016448
  0
VERTEX
  8
0
 10
329.317929
 20
82.986670
 42
-0.010612
  0
VERTEX
  8
0
 10
334.284505
 20
85.990518
 42
-0.019552
  0
VERTEX
  8
0
 10
338.464131
 20
88.185788
 42
-0.022724
  0
VERTEX
  8
0
 10
341.828130
 20
89.604453
 42
-0.088643
  0
VERTEX
  8
0
 10
344.041721
 20
90.000000
 42
0.000000
  0
VERTEX
  8
0
 10
346.163119
 20
90.000000
 42
0.000000
  0
VERTEX
  8
0
 10
343.984312
 20
86.474616
 42
0.237452
  0
VERTEX
  8
0
 10
343.578651
 20
81.840028
 42
0.362786
  0
VERTEX
  8
0
 10
346.936863
 20
80.023723
 42
0.092328
  0
VERTEX
  8
0
 10
355.387772
 20
83.442125
 42
0.041511
  0
VERTEX
  8
0
 10
364.942970
 20
90.728509
 42
0.014239
  0
VERTEX
  8
0
 10
369.522825
 20
95.107123
 42
0.581778
  0
VERTEX
  8
0
 10
369.221148
 20
96.178618
 42
0.228451
  0
VERTEX
  8
0
 10
367.193012
 20
95.753402
 42
0.012084
  0
VERTEX
  8
0
 10
361.907955
 20
91.479363
 42
-0.014138
  0
VERTEX
  8
0
 10
357.463329
 20
87.915081
 42
-0.023480
  0
VERTEX
  8
0
 10
353.501571
 20
85.200677
 42
-0.020203
  0
VERTEX
  8
0
 10
350.270543
 20
83.379182
 42
-0.325390
  0
VERTEX
  8
0
 10
349.103690
 20
83.562977
 42
-0.245465
  0
VERTEX
  8
0
 10
349.006389
 20
83.873139
 42
-0.029111
  0
VERTEX
  8
0
 10
349.180344
 20
84.597671
 42
-0.029435
  0
VERTEX
  8
0
 10
349.509267
 20
85.491289
 42
-0.019966
  0
VERTEX
  8
0
 10
349.982563
 20
86.467418
 42
0.102806
  0
VERTEX
  8
0
 10
350.628850
 20
88.661120
 42
0.192840
  0
VERTEX
  8
0
 10
350.091986
 20
90.400416
 42
0.147347
  0
VERTEX
  8
0
 10
348.327399
 20
91.601985
 42
0.054571
  0
VERTEX
  8
0
 10
345.347841
 20
92.194172
 42
0.000000
  0
VERTEX
  8
0
 10
341.847905
 20
92.500000
 42
0.000000
  0
VERTEX
  8
0
 10
350.610424
 20
99.000000
 42
-0.008073
  0
VERTEX
  8
0
 10
354.336590
 20
101.671882
 42
-0.007225
  0
VERTEX
  8
0
 10
358.286364
 20
104.325000
 42
-0.007264
  0
VERTEX
  8
0
 10
361.902591
 20
106.604860
 42
-0.022345
  0
VERTEX
  8
0
 10
364.436471
 20
108.000000
 42
0.020164
  0
VERTEX
  8
0
 10
366.756728
 20
109.264367
 42
0.045968
  0
VERTEX
  8
0
 10
368.365612
 20
110.440220
 42
0.063653
  0
VERTEX
  8
0
 10
369.371541
 20
111.585618
 42
0.113596
  0
VERTEX
  8
0
 10
369.819551
 20
112.750000
 42
0.025150
  0
VERTEX
  8
0
 10
369.898073
 20
113.612493
 42
0.042178
  0
VERTEX
  8
0
 10
369.866226
 20
114.339062
 42
0.054125
  0
VERTEX
  8
0
 10
369.743286
 20
114.849710
 42
0.316582
  0
VERTEX
  8
0
 10
369.529713
 20
115.000000
 42
0.118774
  0
VERTEX
  8
0
 10
368.824866
 20
114.830169
 42
0.002726
  0
VERTEX
  8
0
 10
365.748198
 20
113.234936
 42
0.006213
  0
VERTEX
  8
0
 10
362.285494
 20
111.360254
 42
0.005024
  0
VERTEX
  8
0
 10
358.614400
 20
109.264742
 42
-0.085637
  0
VERTEX
  8
0
 10
356.483557
 20
108.467856
 42
-0.030363
  0
VERTEX
  8
0
 10
353.242983
 20
108.056349
 42
-0.026297
  0
VERTEX
  8
0
 10
350.088400
 20
108.015269
 42
-0.188651
  0
VERTEX
  8
0
 10
348.718715
 20
108.614619
 42
-0.228149
  0
VERTEX
  8
0
 10
348.581951
 20
109.005243
 42
-0.047471
  0
VERTEX
  8
0
 10
348.735296
 20
109.736481
 42
-0.041043
  0
VERTEX
  8
0
 10
349.095550
 20
110.629042
 42
-0.028602
  0
VERTEX
  8
0
 10
349.638244
 20
111.570643
 42
0.120616
  0
VERTEX
  8
0
 10
350.461683
 20
113.898716
 42
0.233576
  0
VERTEX
  8
0
 10
349.784445
 20
115.703265
 42
0.279552
  0
VERTEX
  8
0
 10
348.092112
 20
116.059828
 42
0.140539
  0
SEQEND
  0
POLYLINE
  8
0
 66
1
 70
1
  0
VERTEX
  8
0
 10
214.721565
 20
110.811746
 42
0.038075
  0
VERTEX
  8
0
 10
209.546899
 20
107.471531
 42
0.027562
  0
VERTEX
  8
0
 10
204.315934
 20
103.025834
 42
0.028047
  0
VERTEX
  8
0
 10
199.826910
 20
98.256974
 42
0.056900
  0
VERTEX
  8
0
 10
196.984083
 20
93.968801
 42
0.056041
  0
VERTEX
  8
0
 10
195.598490
 20
90.285199
 42
0.054723
  0
VERTEX
  8
0
 10
195.050863
 20
86.355936
 42
0.060903
  0
VERTEX
  8
0
 10
195.366987
 20
82.948601
 42
0.167517
  0
VERTEX
  8
0
 10
196.603527
 20
80.914080
 42
0.139299
  0
VERTEX
  8
0
 10
198.839435
 20
79.926540
 42
0.052967
  0
VERTEX
  8
0
 10
202.278296
 20
79.812138
 42
0.048963
  0
VERTEX
  8
0
 10
206.125817
 20
80.474286
 42
0.052358
  0
VERTEX
  8
0
 10
209.680553
 20
81.864888
 42
0.037713
  0
VERTEX
  8
0
 10
211.515031
 20
82.996959
 42
0.013421
  0
VERTEX
  8
0
 10
213.959151
 20
84.874868
 42
0.013231
  0
VERTEX
  8
0
 10
216.541627
 20
87.087562
 42
0.015212
  0
VERTEX
  8
0
 10
218.882513
 20
89.336267
 42
-0.009439
  0
VERTEX
  8
0
 10
222.095380
 20
92.494735
 42
-0.060034
  0
VERTEX
  8
0
 10
223.930282
 20
93.855372
 42
-0.107055
  0
VERTEX
  8
0
 10
225.546930
 20
94.364042
 42
-0.063188
  0
VERTEX
  8
0
 10
227.578227
 20
94.293593
 42
0.044088
  0
VERTEX
  8
0
 10
230.461745
 20
94.083430
 42
0.048006
  0
VERTEX
  8
0
 10
233.254042
 20
94.395511
 42
0.054879
  0
VERTEX
  8
0
 10
235.372738
 20
95.090320
 42
0.294132
  0
VERTEX
  8
0
 10
236.000000
 20
96.064365
 42
0.291107
  0
VERTEX
  8
0
 10
235.759645
 20
96.442210
 42
0.083149
  0
VERTEX
  8
0
 10
235.058831
 20
96.637500
 42
0.050870
  0
VERTEX
  8
0
 10
233.958968
 20
96.642119
 42
0.022002
  0
VERTEX
  8
0
 10
232.507530
 20
96.435435
 42
-0.027595
  0
VERTEX
  8
0
 10
228.591114
 20
95.922337
 42
-0.253565
  0
VERTEX
  8
0
 10
227.079786
 20
96.600099
 42
-0.262088
  0
VERTEX
  8
0
 10
226.852411
 20
98.214513
 42
-0.029123
  0
VERTEX
  8
0
 10
228.465878
 20
101.723752
 42
0.032269
  0
VERTEX
  8
0
 10
230.107416
 20
105.353990
 42
0.060143
  0
VERTEX
  8
0
 10
230.873687
 20
108.485077
 42
0.080896
  0
VERTEX
  8
0
 10
230.769021
 20
111.001519
 42
0.146635
  0
VERTEX
  8
0
 10
229.800000
 20
112.800000
 42
0.170758
  0
VERTEX
  8
0
 10
227.473032
 20
113.915872
 42
0.060071
  0
VERTEX
  8
0
 10
223.716413
 20
113.874150
 42
0.051041
  0
VERTEX
  8
0
 10
219.254637
 20
112.814866
 42
0.040521
  0
SEQEND
  0
POLYLINE
  8
0
 66
1
 70
1
  0
VERTEX
  8
0
 10
227.909581
 20
110.608949
 42
-0.127791
  0
VERTEX
  8
0
 10
228.305697
 20
109.764301
 42
-0.147494
  0
VERTEX
  8
0
 10
228.209643
 20
108.882996
 42
-0.078488
  0
VERTEX
  8
0
 10
227.528592
 20
107.792089
 42
-0.017664
  0
VERTEX
  8
0
 10
226.032025
 20
106.185872
 42
0.032764
  0
VERTEX
  8
0
 10
224.715286
 20
104.684249
 42
0.046116
  0
VERTEX
  8
0
 10
223.766330
 20
103.178082
 42
0.051992
  0
VERTEX
  8
0
 10
223.193381
 20
101.683911
 42
0.065662
  0
VERTEX
  8
0
 10
223.000000
 20
100.217713
 42
-0.170683
  0
VERTEX
  8
0
 10
221.251217
 20
95.244049
 42
-0.042431
  0
VERTEX
  8
0
 10
215.210057
 20
88.900983
 42
-0.043100
  0
VERTEX
  8
0
 10
208.069636
 20
83.597770
 42
-0.139053
  0
VERTEX
  8
0
 10
202.435544
 20
82.000000
 42
-0.089350
  0
VERTEX
  8
0
 10
199.858531
 20
82.464216
 42
-0.242058
  0
VERTEX
  8
0
 10
198.643682
 20
83.796400
 42
-0.160954
  0
VERTEX
  8
0
 10
198.767305
 20
86.050538
 42
-0.039053
  0
VERTEX
  8
0
 10
200.418410
 20
89.450990
 42
-0.050006
  0
VERTEX
  8
0
 10
204.028304
 20
94.401848
 42
-0.016532
  0
VERTEX
  8
0
 10
210.253489
 20
100.912205
 42
-0.015901
  0
VERTEX
  8
0
 10
216.806944
 20
106.931353
 42
-0.062955
  0
VERTEX
  8
0
 10
221.357684
 20
109.947987
 42
-0.006686
  0
VERTEX
  8
0
 10
224.607397
 20
111.502836
 42
-0.083280
  0
VERTEX
  8
0
 10
225.920997
 20
111.861747
 42
-0.186127
  0
VERTEX
  8
0
 10
226.853689
 20
111.606125
 42
-0.060707
  0
SEQEND
  0
POLYLINE
  8
0
 66
1
 70
1
  0
VERTEX
  8
0
 10
418.571192
 20
109.584057
 42
-0.002522
  0
VERTEX
  8
0
 10
413.952607
 20
106.520612
 42
-0.196852
  0
VERTEX
  8
0
 10
413.106962
 20
106.356328
 42
-0.532497
  0
VERTEX
  8
0
 10
412.913415
 20
106.820137
 42
-0.005583
  0
VERTEX
  8
0
 10
415.232060
 20
110.250000
 42
0.000000
  0
VERTEX
  8
0
 10
417.136188
 20
113.000000
 42
0.000000
  0
VERTEX
  8
0
 10
414.191051
 20
113.000000
 42
0.146412
  0
VERTEX
  8
0
 10
412.112626
 20
112.378056
 42
0.058660
  0
VERTEX
  8
0
 10
409.816268
 20
110.448956
 42
0.024703
  0
VERTEX
  8
0
 10
406.457004
 20
106.505040
 42
0.003056
  0
VERTEX
  8
0
 10
399.622957
 20
97.515393
 42
0.001496
  0
VERTEX
  8
0
 10
395.167022
 20
91.541869
 42
0.002416
  0
VERTEX
  8
0
 10
391.414244
 20
86.427992
 42
0.000391
  0
VERTEX
  8
0
 10
388.119980
 20
81.885685
 42
0.157965
  0
VERTEX
  8
0
 10
388.000000
 20
81.515393
 42
0.334895
  0
VERTEX
  8
0
 10
388.152176
 20
81.313674
 42
0.025783
  0
VERTEX
  8
0
 10
388.855957
 20
81.151397
 42
0.027138
  0
VERTEX
  8
0
 10
389.796882
 20
81.037176
 42
0.016636
  0
VERTEX
  8
0
 10
390.913897
 20
81.000000
 42
0.090427
  0
VERTEX
  8
0
 10
392.635531
 20
81.313930
 42
0.077961
  0
VERTEX
  8
0
 10
394.236515
 20
82.222814
 42
0.045814
  0
VERTEX
  8
0
 10
396.101084
 20
84.007475
 42
0.010900
  0
VERTEX
  8
0
 10
398.852223
 20
87.314286
 42
-0.028000
  0
VERTEX
  8
0
 10
408.293532
 20
97.904330
 42
-0.034679
  0
VERTEX
  8
0
 10
418.245112
 20
106.586268
 42
-0.036156
  0
VERTEX
  8
0
 10
426.788480
 20
112.131912
 42
-0.399614
  0
VERTEX
  8
0
 10
430.384178
 20
111.187403
 42
-0.295925
  0
VERTEX
  8
0
 10
430.370845
 20
110.577340
 42
-0.002421
  0
VERTEX
  8
0
 10
427.524302
 20
106.435450
 42
-0.007546
  0
VERTEX
  8
0
 10
424.102356
 20
101.662982
 42
-0.004662
  0
VERTEX
  8
0
 10
419.943195
 20
96.151633
 42
0.001476
  0
VERTEX
  8
0
 10
415.747833
 20
90.665360
 42
0.002388
  0
VERTEX
  8
0
 10
412.214564
 20
85.970149
 42
0.000376
  0
VERTEX
  8
0
 10
409.109997
 20
81.796804
 42
0.161081
  0
VERTEX
  8
0
 10
409.000000
 20
81.464230
 42
0.344362
  0
VERTEX
  8
0
 10
409.142467
 20
81.281904
 42
0.021590
  0
VERTEX
  8
0
 10
409.856566
 20
81.136367
 42
0.024512
  0
VERTEX
  8
0
 10
410.798101
 20
81.033462
 42
0.014963
  0
VERTEX
  8
0
 10
411.915971
 20
81.000000
 42
0.071403
  0
VERTEX
  8
0
 10
413.505611
 20
81.228174
 42
0.079766
  0
VERTEX
  8
0
 10
414.902038
 20
81.892975
 42
0.058207
  0
VERTEX
  8
0
 10
416.332927
 20
83.147455
 42
0.020485
  0
VERTEX
  8
0
 10
418.081529
 20
85.250000
 42
-0.028931
  0
VERTEX
  8
0
 10
425.863464
 20
94.292185
 42
-0.022657
  0
VERTEX
  8
0
 10
435.274537
 20
103.183609
 42
-0.018253
  0
VERTEX
  8
0
 10
444.306934
 20
110.416395
 42
-0.161047
  0
VERTEX
  8
0
 10
449.096019
 20
112.000000
 42
-0.205516
  0
VERTEX
  8
0
 10
450.661016
 20
111.328368
 42
-0.299702
  0
VERTEX
  8
0
 10
450.917897
 20
109.897665
 42
-0.066779
  0
VERTEX
  8
0
 10
449.198895
 20
107.017350
 42
-0.008163
  0
VERTEX
  8
0
 10
444.524501
 20
101.327786
 42
0.014856
  0
VERTEX
  8
0
 10
438.095230
 20
93.285135
 42
0.056893
  0
VERTEX
  8
0
 10
434.853165
 20
87.764465
 42
0.114564
  0
VERTEX
  8
0
 10
434.102096
 20
83.842277
 42
0.212918
  0
VERTEX
  8
0
 10
435.508464
 20
80.992976
 42
0.213135
  0
VERTEX
  8
0
 10
438.951253
 20
80.029997
 42
0.066338
  0
VERTEX
  8
0
 10
444.233482
 20
81.547377
 42
0.049090
  0
VERTEX
  8
0
 10
450.726216
 20
85.181814
 42
0.026784
  0
VERTEX
  8
0
 10
457.934683
 20
90.799134
 42
0.021904
  0
VERTEX
  8
0
 10
461.598662
 20
94.276871
 42
0.659838
  0
VERTEX
  8
0
 10
461.233212
 20
95.144019
 42
0.153286
  0
VERTEX
  8
0
 10
458.889257
 20
94.422084
 42
0.014420
  0
VERTEX
  8
0
 10
453.968627
 20
90.820648
 42
-0.008269
  0
VERTEX
  8
0
 10
449.479874
 20
87.449750
 42
-0.021389
  0
VERTEX
  8
0
 10
446.104179
 20
85.214832
 42
-0.028402
  0
VERTEX
  8
0
 10
443.194236
 20
83.680429
 42
-0.032321
  0
VERTEX
  8
0
 10
440.250000
 20
82.559298
 42
-0.274167
  0
VERTEX
  8
0
 10
438.692408
 20
82.933816
 42
-0.317045
  0
VERTEX
  8
0
 10
438.415958
 20
84.406128
 42
-0.057140
  0
VERTEX
  8
0
 10
440.612538
 20
88.049138
 42
-0.010334
  0
VERTEX
  8
0
 10
445.575025
 20
94.218353
 42
0.014758
  0
VERTEX
  8
0
 10
453.313184
 20
104.014395
 42
0.108382
  0
VERTEX
  8
0
 10
455.749231
 20
109.423803
 42
0.338506
  0
VERTEX
  8
0
 10
454.361874
 20
112.328526
 42
0.122121
  0
VERTEX
  8
0
 10
449.615300
 20
113.436787
 42
0.038017
  0
VERTEX
  8
0
 10
446.991184
 20
113.200883
 42
0.052765
  0
VERTEX
  8
0
 10
444.718157
 20
112.569145
 42
0.041889
  0
VERTEX
  8
0
 10
442.268728
 20
111.354821
 42
0.015012
  0
VERTEX
  8
0
 10
438.994058
 20
109.237337
 42
-0.003446
  0
VERTEX
  8
0
 10
434.785463
 20
106.375790
 42
-0.089797
  0
VERTEX
  8
0
 10
433.533142
 20
105.829821
 42
-0.600233
  0
VERTEX
  8
0
 10
433.195722
 20
106.213278
 42
-0.032971
  0
VERTEX
  8
0
 10
434.035184
 20
108.065741
 42
0.122691
  0
VERTEX
  8
0
 10
434.609584
 20
110.341506
 42
0.177442
  0
VERTEX
  8
0
 10
433.908759
 20
112.272474
 42
0.144394
  0
VERTEX
  8
0
 10
431.959368
 20
113.562526
 42
0.074588
  0
VERTEX
  8
0
 10
429.043076
 20
114.000000
 42
0.054206
  0
VERTEX
  8
0
 10
426.824556
 20
113.758779
 42
0.045646
  0
VERTEX
  8
0
 10
424.571259
 20
113.042351
 42
0.034220
  0
VERTEX
  8
0
 10
421.959251
 20
111.723803
 42
0.013702
  0
SEQEND
  0
POLYLINE
  8
0
 66
1
 70
1
  0
VERTEX
  8
0
 10
748.684760
 20
110.791997
 42
0.028417
  0
VERTEX
  8
0
 10
743.093510
 20
107.334073
 42
0.032229
  0
VERTEX
  8
0
 10
738.173203
 20
103.394677
 42
0.034235
  0
VERTEX
  8
0
 10
734.077045
 20
99.108957
 42
0.043426
  0
VERTEX
  8
0
 10
730.952454
 20
94.614902
 42
0.042813
  0
VERTEX
  8
0
 10
729.094352
 20
90.618131
 42
0.054981
  0
VERTEX
  8
0
 10
728.132285
 20
86.682540
 42
0.065721
  0
VERTEX
  8
0
 10
728.136797
 20
83.351326
 42
0.164662
  0
VERTEX
  8
0
 10
729.200000
 20
81.200000
 42
0.184517
  0
VERTEX
  8
0
 10
732.074122
 20
79.914879
 42
0.078592
  0
VERTEX
  8
0
 10
736.334862
 20
80.348074
 42
0.059314
  0
VERTEX
  8
0
 10
741.482157
 20
82.384149
 42
0.036348
  0
VERTEX
  8
0
 10
746.990894
 20
85.898213
 42
0.000000
  0
VERTEX
  8
0
 10
750.481788
 20
88.500000
 42
0.000000
  0
VERTEX
  8
0
 10
747.342165
 20
84.483961
 42
-0.033547
  0
VERTEX
  8
0
 10
745.637644
 20
82.581569
 42
-0.038000
  0
VERTEX
  8
0
 10
743.759439
 20
81.008645
 42
-0.037566
  0
VERTEX
  8
0
 10
741.645292
 20
79.723741
 42
-0.031464
  0
VERTEX
  8
0
 10
739.235562
 20
78.681821
 42
0.030766
  0
VERTEX
  8
0
 10
733.639681
 20
76.271532
 42
0.012777
  0
VERTEX
  8
0
 10
726.388707
 20
72.368707
 42
0.011992
  0
VERTEX
  8
0
 10
719.532514
 20
68.227967
 42
0.048173
  0
VERTEX
  8
0
 10
715.679341
 20
65.215413
 42
0.077567
  0
VERTEX
  8
0
 10
710.942143
 20
59.062644
 42
0.303700
  0
VERTEX
  8
0
 10
711.344341
 20
54.523971
 42
0.270143
  0
VERTEX
  8
0
 10
715.900261
 20
52.782919
 42
0.069296
  0
VERTEX
  8
0
 10
723.734435
 20
55.215202
 42
0.058004
  0
VERTEX
  8
0
 10
728.333513
 20
58.068468
 42
0.016363
  0
VERTEX
  8
0
 10
734.775605
 20
63.537501
 42
0.017147
  0
VERTEX
  8
0
 10
741.076486
 20
69.658282
 42
0.034877
  0
VERTEX
  8
0
 10
745.500000
 20
74.954195
 42
-0.041339
  0
VERTEX
  8
0
 10
747.353073
 20
77.115417
 42
-0.035047
  0
VERTEX
  8
0
 10
749.636285
 20
79.075187
 42
-0.028684
  0
VERTEX
  8
0
 10
752.585360
 20
81.015341
 42
-0.014497
  0
VERTEX
  8
0
 10
756.500000
 20
83.131375
 42
0.011074
  0
VERTEX
  8
0
 10
763.430045
 20
86.816300
 42
0.018826
  0
VERTEX
  8
0
 10
769.030960
 20
90.238731
 42
0.015114
  0
VERTEX
  8
0
 10
773.232060
 20
93.215007
 42
0.234842
  0
VERTEX
  8
0
 10
773.998067
 20
94.750000
 42
0.160653
  0
VERTEX
  8
0
 10
773.724792
 20
95.582888
 42
0.334328
  0
VERTEX
  8
0
 10
773.105910
 20
95.767493
 42
0.061610
  0
VERTEX
  8
0
 10
771.760711
 20
95.069782
 42
0.004265
  0
VERTEX
  8
0
 10
768.252315
 20
92.617366
 42
-0.020374
  0
VERTEX
  8
0
 10
764.271423
 20
90.021425
 42
-0.009634
  0
VERTEX
  8
0
 10
758.943759
 20
86.986267
 42
-0.003028
  0
VERTEX
  8
0
 10
753.453504
 20
84.040055
 42
-0.565037
  0
VERTEX
  8
0
 10
753.000000
 20
84.313237
 42
-0.159112
  0
VERTEX
  8
0
 10
753.082063
 20
84.564586
 42
-0.000223
  0
VERTEX
  8
0
 10
756.068821
 20
88.647231
 42
-0.001824
  0
VERTEX
  8
0
 10
759.441728
 20
93.218310
 42
-0.001120
  0
VERTEX
  8
0
 10
763.447050
 20
98.580083
 42
0.002068
  0
VERTEX
  8
0
 10
770.000430
 20
107.387632
 42
0.032155
  0
VERTEX
  8
0
 10
772.035366
 20
110.553585
 42
0.185540
  0
VERTEX
  8
0
 10
772.242765
 20
112.024572
 42
0.313859
  0
VERTEX
  8
0
 10
771.358615
 20
112.824956
 42
0.061235
  0
VERTEX
  8
0
 10
770.256898
 20
112.830631
 42
0.043280
  0
VERTEX
  8
0
 10
769.043739
 20
112.580069
 42
0.043668
  0
VERTEX
  8
0
 10
767.907502
 20
112.129585
 42
0.067810
  0
VERTEX
  8
0
 10
767.038651
 20
111.534979
 42
-0.015687
  0
VERTEX
  8
0
 10
765.938843
 20
110.600712
 42
-0.216851
  0
VERTEX
  8
0
 10
765.444734
 20
110.476788
 42
-0.266495
  0
VERTEX
  8
0
 10
765.088527
 20
110.778184
 42
-0.022978
  0
VERTEX
  8
0
 10
764.720705
 20
111.960023
 42
0.269217
  0
VERTEX
  8
0
 10
762.962457
 20
113.731176
 42
0.084148
  0
VERTEX
  8
0
 10
759.091105
 20
114.100809
 42
0.061677
  0
VERTEX
  8
0
 10
754.001728
 20
113.090805
 42
0.044518
  0
SEQEND
  0
POLYLINE
  8
0
 66
1
 70
1
  0
VERTEX
  8
0
 10
761.936756
 20
110.576205
 42
-0.253090
  0
VERTEX
  8
0
 10
762.385634
 20
108.326652
 42
-0.056279
  0
VERTEX
  8
0
 10
760.762531
 20
104.605003
 42
-0.041911
  0
VERTEX
  8
0
 10
757.519315
 20
99.939559
 42
-0.021108
  0
VERTEX
  8
0
 10
752.716681
 20
94.610122
 42
-0.032962
  0
VERTEX
  8
0
 10
743.484812
 20
86.361084
 42
-0.090141
  0
VERTEX
  8
0
 10
735.766854
 20
82.308271
 42
-0.452369
  0
VERTEX
  8
0
 10
733.078369
 20
83.941485
 42
-0.182688
  0
VERTEX
  8
0
 10
733.981637
 20
88.737827
 42
-0.046871
  0
VERTEX
  8
0
 10
737.671517
 20
93.681240
 42
-0.013470
  0
VERTEX
  8
0
 10
744.268884
 20
100.597270
 42
-0.012258
  0
VERTEX
  8
0
 10
751.132513
 20
107.088508
 42
-0.068449
  0
VERTEX
  8
0
 10
755.312282
 20
109.925523
 42
-0.006620
  0
VERTEX
  8
0
 10
758.603106
 20
111.500568
 42
-0.084008
  0
VERTEX
  8
0
 10
759.922640
 20
111.859421
 42
-0.187068
  0
VERTEX
  8
0
 10
760.862176
 20
111.597422
 42
-0.059134
  0
SEQEND
  0
POLYLINE
  8
0
 66
1
 70
1
  0
VERTEX
  8
0
 10
740.015532
 20
75.029022
 42
-0.069221
  0
VERTEX
  8
0
 10
737.217779
 20
71.188747
 42
-0.013299
  0
VERTEX
  8
0
 10
731.056856
 20
65.138171
 42
-0.013242
  0
VERTEX
  8
0
 10
724.585037
 20
59.424247
 42
-0.070197
  0
VERTEX
  8
0
 10
720.581900
 20
56.933203
 42
-0.036530
  0
VERTEX
  8
0
 10
717.427455
 20
55.805121
 42
-0.095935
  0
VERTEX
  8
0
 10
715.042071
 20
55.615963
 42
-0.175007
  0
VERTEX
  8
0
 10
713.584457
 20
56.335698
 42
-0.193781
  0
VERTEX
  8
0
 10
713.000000
 20
57.787102
 42
-0.199159
  0
VERTEX
  8
0
 10
714.033536
 20
60.278931
 42
-0.024394
  0
VERTEX
  8
0
 10
718.503276
 20
64.324850
 42
-0.027135
  0
VERTEX
  8
0
 10
724.331878
 20
68.598121
 42
-0.024222
  0
VERTEX
  8
0
 10
730.809096
 20
72.392726
 42
-0.002892
  0
VERTEX
  8
0
 10
737.370874
 20
75.773266
 42
-0.047798
  0
VERTEX
  8
0
 10
739.659265
 20
76.672491
 42
-0.468774
  0
VERTEX
  8
0
 10
740.262317
 20
76.261848
 42
-0.147981
  0
SEQEND
  0
POLYLINE
  8
0
 66
1
 70
1
  0
VERTEX
  8
0
 10
797.571192
 20
109.584057
 42
-0.002522
  0
VERTEX
  8
0
 10
792.952607
 20
106.520612
 42
-0.196852
  0
VERTEX
  8
0
 10
792.106962
 20
106.356328
 42
-0.532497
  0
VERTEX
  8
0
 10
791.913415
 20
106.820137
 42
-0.005583
  0
VERTEX
  8
0
 10
794.232060
 20
110.250000
 42
0.000000
  0
VERTEX
  8
0
 10
796.136188
 20
113.000000
 42
0.000000
  0
VERTEX
  8
0
 10
793.191051
 20
113.000000
 42
0.146412
  0
VERTEX
  8
0
 10
791.112626
 20
112.378056
 42
0.058660
  0
VERTEX
  8
0
 10
788.816268
 20
110.448956
 42
0.024703
  0
VERTEX
  8
0
 10
785.457004
 20
106.505040
 42
0.003056
  0
VERTEX
  8
0
 10
778.622957
 20
97.515393
 42
0.001496
  0
VERTEX
  8
0
 10
774.167022
 20
91.541869
 42
0.002416
  0
VERTEX
  8
0
 10
770.414244
 20
86.427992
 42
0.000391
  0
VERTEX
  8
0
 10
767.119980
 20
81.885685
 42
0.157965
  0
VERTEX
  8
0
 10
767.000000
 20
81.515393
 42
0.334895
  0
VERTEX
  8
0
 10
767.152176
 20
81.313674
 42
0.025783
  0
VERTEX
  8
0
 10
767.855957
 20
81.151397
 42
0.027138
  0
VERTEX
  8
0
 10
768.796882
 20
81.037176
 42
0.016636
  0
VERTEX
  8
0
 10
769.913897
 20
81.000000
 42
0.090427
  0
VERTEX
  8
0
 10
771.635531
 20
81.313930
 42
0.077961
  0
VERTEX
  8
0
 10
773.236515
 20
82.222814
 42
0.045814
  0
VERTEX
  8
0
 10
775.101084
 20
84.007475
 42
0.010900
  0
VERTEX
  8
0
 10
777.852223
 20
87.314286
 42
-0.026228
  0
VERTEX
  8
0
 10
786.514216
 20
97.099768
 42
-0.030806
  0
VERTEX
  8
0
 10
795.724065
 20
105.378207
 42
-0.028936
  0
VERTEX
  8
0
 10
804.018579
 20
111.209314
 42
-0.234485
  0
VERTEX
  8
0
 10
808.511453
 20
111.633979
 42
-0.220375
  0
VERTEX
  8
0
 10
809.260448
 20
110.862439
 42
-0.233262
  0
VERTEX
  8
0
 10
809.132976
 20
109.819067
 42
-0.026117
  0
VERTEX
  8
0
 10
807.553185
 20
107.661974
 42
-0.000567
  0
VERTEX
  8
0
 10
799.294580
 20
97.562949
 42
0.058708
  0
VERTEX
  8
0
 10
792.076925
 20
86.285774
 42
0.403611
  0
VERTEX
  8
0
 10
793.930510
 20
80.600846
 42
0.258032
  0
VERTEX
  8
0
 10
801.719275
 20
80.730662
 42
0.043662
  0
VERTEX
  8
0
 10
814.369920
 20
89.553258
 42
0.015204
  0
VERTEX
  8
0
 10
816.143239
 20
91.129577
 42
0.020571
  0
VERTEX
  8
0
 10
817.639914
 20
92.665054
 42
0.018061
  0
VERTEX
  8
0
 10
818.758428
 20
94.005606
 42
0.166316
  0
VERTEX
  8
0
 10
819.000000
 20
94.711762
 42
0.210510
  0
VERTEX
  8
0
 10
818.646885
 20
95.513307
 42
0.314246
  0
VERTEX
  8
0
 10
817.915466
 20
95.610363
 42
0.047302
  0
VERTEX
  8
0
 10
816.264030
 20
94.548211
 42
0.003046
  0
VERTEX
  8
0
 10
811.781614
 20
90.981050
 42
-0.019031
  0
VERTEX
  8
0
 10
806.413684
 20
86.982596
 42
-0.031111
  0
VERTEX
  8
0
 10
801.548659
 20
84.066653
 42
-0.032624
  0
VERTEX
  8
0
 10
797.619394
 20
82.347044
 42
-0.290996
  0
VERTEX
  8
0
 10
795.861649
 20
82.738351
 42
-0.335038
  0
VERTEX
  8
0
 10
795.742751
 20
83.589270
 42
-0.019430
  0
VERTEX
  8
0
 10
797.195120
 20
85.976351
 42
-0.019549
  0
VERTEX
  8
0
 10
799.531879
 20
89.218297
 42
-0.007187
  0
VERTEX
  8
0
 10
803.071828
 20
93.613697
 42
0.009776
  0
VERTEX
  8
0
 10
808.984282
 20
101.033235
 42
0.039821
  0
VERTEX
  8
0
 10
812.112572
 20
105.874472
 42
0.072909
  0
VERTEX
  8
0
 10
813.375795
 20
109.351045
 42
0.175354
  0
VERTEX
  8
0
 10
812.987778
 20
112.022837
 42
0.198081
  0
VERTEX
  8
0
 10
810.821574
 20
113.804500
 42
0.114013
  0
VERTEX
  8
0
 10
807.398599
 20
114.045031
 42
0.073613
  0
VERTEX
  8
0
 10
802.876711
 20
112.627135
 42
0.034986
  0
SEQEND
  0
POLYLINE
  8
0
 66
1
 70
1
  0
VERTEX
  8
0
 10
841.571192
 20
109.584057
 42
-0.002522
  0
VERTEX
  8
0
 10
836.952607
 20
106.520612
 42
-0.196852
  0
VERTEX
  8
0
 10
836.106962
 20
106.356328
 42
-0.532497
  0
VERTEX
  8
0
 10
835.913415
 20
106.820137
 42
-0.005583
  0
VERTEX
  8
0
 10
838.232060
 20
110.250000
 42
0.000000
  0
VERTEX
  8
0
 10
840.136188
 20
113.000000
 42
0.000000
  0
VERTEX
  8
0
 10
837.191051
 20
113.000000
 42
0.146412
  0
VERTEX
  8
0
 10
835.112626
 20
112.378056
 42
0.058660
  0
VERTEX
  8
0
 10
832.816268
 20
110.448956
 42
0.024703
  0
VERTEX
  8
0
 10
829.457004
 20
106.505040
 42
0.003056
  0
VERTEX
  8
0
 10
822.622957
 20
97.515393
 42
0.001496
  0
VERTEX
  8
0
 10
818.167022
 20
91.541869
 42
0.002416
  0
VERTEX
  8
0
 10
814.414244
 20
86.427992
 42
0.000391
  0
VERTEX
  8
0
 10
811.119980
 20
81.885685
 42
0.157965
  0
VERTEX
  8
0
 10
811.000000
 20
81.515393
 42
0.334895
  0
VERTEX
  8
0
 10
811.152176
 20
81.313674
 42
0.025783
  0
VERTEX
  8
0
 10
811.855957
 20
81.151397
 42
0.027138
  0
VERTEX
  8
0
 10
812.796882
 20
81.037176
 42
0.016636
  0
VERTEX
  8
0
 10
813.913897
 20
81.000000
 42
0.090427
  0
VERTEX
  8
0
 10
815.635531
 20
81.313930
 42
0.077961
  0
VERTEX
  8
0
 10
817.236515
 20
82.222814
 42
0.045814
  0
VERTEX
  8
0
 10
819.101084
 20
84.007475
 42
0.010900
  0
VERTEX
  8
0
 10
821.852223
 20
87.314286
 42
-0.028000
  0
VERTEX
  8
0
 10
831.293532
 20
97.904330
 42
-0.034679
  0
VERTEX
  8
0
 10
841.245112
 20
106.586268
 42
-0.036156
  0
VERTEX
  8
0
 10
849.788480
 20
112.131912
 42
-0.399614
  0
VERTEX
  8
0
 10
853.384178
 20
111.187403
 42
-0.295925
  0
VERTEX
  8
0
 10
853.370845
 20
110.577340
 42
-0.002421
  0
VERTEX
  8
0
 10
850.524302
 20
106.435450
 42
-0.007546
  0
VERTEX
  8
0
 10
847.102356
 20
101.662982
 42
-0.004662
  0
VERTEX
  8
0
 10
842.943195
 20
96.151633
 42
0.001476
  0
VERTEX
  8
0
 10
838.747833
 20
90.665360
 42
0.002388
  0
VERTEX
  8
0
 10
835.214564
 20
85.970149
 42
0.000376
  0
VERTEX
  8
0
 10
832.109997
 20
81.796804
 42
0.161081
  0
VERTEX
  8
0
 10
832.000000
 20
81.464230
 42
0.344362
  0
VERTEX
  8
0
 10
832.142467
 20
81.281904
 42
0.021590
  0
VERTEX
  8
0
 10
832.856566
 20
81.136367
 42
0.024512
  0
VERTEX
  8
0
 10
833.798101
 20
81.033462
 42
0.014963
  0
VERTEX
  8
0
 10
834.915971
 20
81.000000
 42
0.071403
  0
VERTEX
  8
0
 10
836.505611
 20
81.228174
 42
0.079766
  0
VERTEX
  8
0
 10
837.902038
 20
81.892975
 42
0.058207
  0
VERTEX
  8
0
 10
839.332927
 20
83.147455
 42
0.020485
  0
VERTEX
  8
0
 10
841.081529
 20
85.250000
 42
-0.028931
  0
VERTEX
  8
0
 10
848.863464
 20
94.292185
 42
-0.022657
  0
VERTEX
  8
0
 10
858.274537
 20
103.183609
 42
-0.018253
  0
VERTEX
  8
0
 10
867.306934
 20
110.416395
 42
-0.161047
  0
VERTEX
  8
0
 10
872.096019
 20
112.000000
 42
-0.165962
  0
VERTEX
  8
0
 10
873.743039
 20
111.437829
 42
-0.317890
  0
VERTEX
  8
0
 10
874.133077
 20
110.165084
 42
-0.085558
  0
VERTEX
  8
0
 10
872.840712
 20
107.735756
 42
-0.011952
  0
VERTEX
  8
0
 10
869.231831
 20
103.304856
 42
0.010687
  0
VERTEX
  8
0
 10
861.900845
 20
94.350370
 42
0.047255
  0
VERTEX
  8
0
 10
858.226793
 20
88.621132
 42
0.095907
  0
VERTEX
  8
0
 10
857.045855
 20
84.583579
 42
0.199081
  0
VERTEX
  8
0
 10
857.997941
 20
81.502481
 42
0.203566
  0
VERTEX
  8
0
 10
860.838964
 20
80.036291
 42
0.099381
  0
VERTEX
  8
0
 10
864.961444
 20
80.547307
 42
0.060208
  0
VERTEX
  8
0
 10
870.427667
 20
83.132140
 42
0.023124
  0
VERTEX
  8
0
 10
877.334870
 20
87.941473
 42
-0.008517
  0
VERTEX
  8
0
 10
880.080662
 20
89.974890
 42
-0.027580
  0
VERTEX
  8
0
 10
881.995480
 20
91.189439
 42
-0.102735
  0
VERTEX
  8
0
 10
882.877959
 20
91.467607
 42
-0.600380
  0
VERTEX
  8
0
 10
883.084870
 20
91.158581
 42
0.094456
  0
VERTEX
  8
0
 10
881.992999
 20
87.666542
 42
0.097504
  0
VERTEX
  8
0
 10
882.281143
 20
84.059013
 42
0.110227
  0
VERTEX
  8
0
 10
883.839273
 20
81.163424
 42
0.154118
  0
VERTEX
  8
0
 10
886.325533
 20
79.633144
 42
0.126182
  0
VERTEX
  8
0
 10
891.268197
 20
79.658512
 42
0.036781
  0
VERTEX
  8
0
 10
898.525311
 20
82.141806
 42
0.035533
  0
VERTEX
  8
0
 10
906.334532
 20
86.150603
 42
0.037801
  0
VERTEX
  8
0
 10
913.327997
 20
91.152454
 42
0.037011
  0
VERTEX
  8
0
 10
915.924246
 20
93.672069
 42
0.711233
  0
VERTEX
  8
0
 10
915.551152
 20
94.338977
 42
0.090617
  0
VERTEX
  8
0
 10
912.844674
 20
93.331189
 42
0.013201
  0
VERTEX
  8
0
 10
907.861337
 20
90.181869
 42
-0.025279
  0
VERTEX
  8
0
 10
899.479549
 20
85.163854
 42
-0.060465
  0
VERTEX
  8
0
 10
892.727605
 20
82.559627
 42
-0.116410
  0
VERTEX
  8
0
 10
888.244337
 20
82.489862
 42
-0.312983
  0
VERTEX
  8
0
 10
886.185865
 20
84.708671
 42
-0.093277
  0
VERTEX
  8
0
 10
886.235158
 20
85.809828
 42
-0.031415
  0
VERTEX
  8
0
 10
886.702238
 20
87.354949
 42
-0.029982
  0
VERTEX
  8
0
 10
887.446224
 20
89.037558
 42
-0.030155
  0
VERTEX
  8
0
 10
888.384857
 20
90.615740
 42
-0.041851
  0
VERTEX
  8
0
 10
890.005590
 20
92.617907
 42
-0.062650
  0
VERTEX
  8
0
 10
891.750887
 20
94.033610
 42
-0.047644
  0
VERTEX
  8
0
 10
894.127349
 20
95.214439
 42
-0.014728
  0
VERTEX
  8
0
 10
897.903014
 20
96.535103
 42
0.031081
  0
VERTEX
  8
0
 10
906.188714
 20
99.740906
 42
0.050420
  0
VERTEX
  8
0
 10
912.689984
 20
103.568173
 42
0.065222
  0
VERTEX
  8
0
 10
916.837307
 20
107.534378
 42
0.207422
  0
VERTEX
  8
0
 10
917.832375
 20
111.152136
 42
0.076356
  0
VERTEX
  8
0
 10
917.458466
 20
112.391341
 42
0.153593
  0
VERTEX
  8
0
 10
916.769163
 20
113.130861
 42
0.093470
  0
VERTEX
  8
0
 10
915.525543
 20
113.555896
 42
0.017826
  0
VERTEX
  8
0
 10
913.138774
 20
113.812933
 42
0.086313
  0
VERTEX
  8
0
 10
908.158490
 20
113.310382
 42
0.053520
  0
VERTEX
  8
0
 10
902.685300
 20
111.126201
 42
0.045284
  0
VERTEX
  8
0
 10
896.904438
 20
107.362287
 42
0.030174
  0
VERTEX
  8
0
 10
891.000000
 20
102.099715
 42
-0.004658
  0
VERTEX
  8
0
 10
888.459692
 20
99.591729
 42
-0.007159
  0
VERTEX
  8
0
 10
886.209911
 20
97.473195
 42
-0.002963
  0
VERTEX
  8
0
 10
884.259633
 20
95.709799
 42
-0.172627
  0
VERTEX
  8
0
 10
883.820973
 20
95.530864
 42
0.138747
  0
VERTEX
  8
0
 10
883.364986
 20
95.379170
 42
0.002753
  0
VERTEX
  8
0
 10
881.328316
 20
93.978633
 42
0.006342
  0
VERTEX
  8
0
 10
878.964338
 20
92.288876
 42
0.004188
  0
VERTEX
  8
0
 10
876.288860
 20
90.290012
 42
-0.016407
  0
VERTEX
  8
0
 10
871.924735
 20
87.192766
 42
-0.018141
  0
VERTEX
  8
0
 10
867.507832
 20
84.496154
 42
-0.016246
  0
VERTEX
  8
0
 10
863.616966
 20
82.473730
 42
-0.112183
  0
VERTEX
  8
0
 10
861.532119
 20
82.000000
 42
-0.490419
  0
VERTEX
  8
0
 10
860.885512
 20
82.835055
 42
-0.067574
  0
VERTEX
  8
0
 10
861.853892
 20
85.204639
 42
-0.032879
  0
VERTEX
  8
0
 10
864.387607
 20
89.000000
 42
-0.010928
  0
VERTEX
  8
0
 10
868.575025
 20
94.218353
 42
0.014758
  0
VERTEX
  8
0
 10
876.313184
 20
104.014395
 42
0.108382
  0
VERTEX
  8
0
 10
878.749231
 20
109.423803
 42
0.338506
  0
VERTEX
  8
0
 10
877.361874
 20
112.328526
 42
0.122121
  0
VERTEX
  8
0
 10
872.615300
 20
113.436787
 42
0.038017
  0
VERTEX
  8
0
 10
869.991184
 20
113.200883
 42
0.052765
  0
VERTEX
  8
0
 10
867.718157
 20
112.569145
 42
0.041889
  0
VERTEX
  8
0
 10
865.268728
 20
111.354821
 42
0.015012
  0
VERTEX
  8
0
 10
861.994058
 20
109.237337
 42
-0.003446
  0
VERTEX
  8
0
 10
857.785463
 20
106.375790
 42
-0.089797
  0
VERTEX
  8
0
 10
856.533142
 20
105.829821
 42
-0.600233
  0
VERTEX
  8
0
 10
856.195722
 20
106.213278
 42
-0.032971
  0
VERTEX
  8
0
 10
857.035184
 20
108.065741
 42
0.122691
  0
VERTEX
  8
0
 10
857.609584
 20
110.341506
 42
0.177442
  0
VERTEX
  8
0
 10
856.908759
 20
112.272474
 42
0.144394
  0
VERTEX
  8
0
 10
854.959368
 20
113.562526
 42
0.074588
  0
VERTEX
  8
0
 10
852.043076
 20
114.000000
 42
0.054206
  0
VERTEX
  8
0
 10
849.824556
 20
113.758779
 42
0.045646
  0
VERTEX
  8
0
 10
847.571259
 20
113.042351
 42
0.034220
  0
VERTEX
  8
0
 10
844.959251
 20
111.723803
 42
0.013702
  0
SEQEND
  0
POLYLINE
  8
0
 66
1
 70
1
  0
VERTEX
  8
0
 10
915.402071
 20
111.158452
 42
-0.373657
  0
VERTEX
  8
0
 10
915.057664
 20
109.045962
 42
-0.023072
  0
VERTEX
  8
0
 10
909.575198
 20
104.896636
 42
-0.030106
  0
VERTEX
  8
0
 10
903.024167
 20
100.956113
 42
-0.048725
  0
VERTEX
  8
0
 10
897.000000
 20
98.522261
 42
-0.166988
  0
VERTEX
  8
0
 10
896.205133
 20
98.557524
 42
-0.464769
  0
VERTEX
  8
0
 10
896.049739
 20
99.018091
 42
-0.052065
  0
VERTEX
  8
0
 10
897.070089
 20
100.363734
 42
-0.004945
  0
VERTEX
  8
0
 10
899.927282
 20
103.353711
 42
-0.029340
  0
VERTEX
  8
0
 10
904.962257
 20
107.946945
 42
-0.053492
  0
VERTEX
  8
0
 10
909.629682
 20
110.965059
 42
-0.080170
  0
VERTEX
  8
0
 10
913.307971
 20
112.131671
 42
-0.299598
  0
SEQEND
  0
POLYLINE
  8
0
 66
1
 70
1
  0
VERTEX
  8
0
 10
942.571192
 20
109.584057
 42
-0.002522
  0
VERTEX
  8
0
 10
937.952607
 20
106.520612
 42
-0.196852
  0
VERTEX
  8
0
 10
937.106962
 20
106.356328
 42
-0.532497
  0
VERTEX
  8
0
 10
936.913415
 20
106.820137
 42
-0.005583
  0
VERTEX
  8
0
 10
939.232060
 20
110.250000
 42
0.000000
  0
VERTEX
  8
0
 10
941.136188
 20
113.000000
 42
0.000000
  0
VERTEX
  8
0
 10
938.191051
 20
113.000000
 42
0.146412
  0
VERTEX
  8
0
 10
936.112626
 20
112.378056
 42
0.058660
  0
VERTEX
  8
0
 10
933.816268
 20
110.448956
 42
0.024703
  0
VERTEX
  8
0
 10
930.457004
 20
106.505040
 42
0.003056
  0
VERTEX
  8
0
 10
923.622957
 20
97.515393
 42
0.001496
  0
VERTEX
  8
0
 10
919.167022
 20
91.541869
 42
0.002416
  0
VERTEX
  8
0
 10
915.414244
 20
86.427992
 42
0.000391
  0
VERTEX
  8
0
 10
912.119980
 20
81.885685
 42
0.157965
  0
VERTEX
  8
0
 10
912.000000
 20
81.515393
 42
0.334895
  0
VERTEX
  8
0
 10
912.152176
 20
81.313674
 42
0.025783
  0
VERTEX
  8
0
 10
912.855957
 20
81.151397
 42
0.027138
  0
VERTEX
  8
0
 10
913.796882
 20
81.037176
 42
0.016636
  0
VERTEX
  8
0
 10
914.913897
 20
81.000000
 42
0.090427
  0
VERTEX
  8
0
 10
916.635531
 20
81.313930
 42
0.077961
  0
VERTEX
  8
0
 10
918.236515
 20
82.222814
 42
0.045814
  0
VERTEX
  8
0
 10
920.101084
 20
84.007475
 42
0.010900
  0
VERTEX
  8
0
 10
922.852223
 20
87.314286
 42
-0.026228
  0
VERTEX
  8
0
 10
931.514216
 20
97.099768
 42
-0.030806
  0
VERTEX
  8
0
 10
940.724065
 20
105.378207
 42
-0.028936
  0
VERTEX
  8
0
 10
949.018579
 20
111.209314
 42
-0.234485
  0
VERTEX
  8
0
 10
953.511453
 20
111.633979
 42
-0.220375
  0
VERTEX
  8
0
 10
954.260448
 20
110.862439
 42
-0.233262
  0
VERTEX
  8
0
 10
954.132976
 20
109.819067
 42
-0.026117
  0
VERTEX
  8
0
 10
952.553185
 20
107.661974
 42
-0.000567
  0
VERTEX
  8
0
 10
944.294580
 20
97.562949
 42
0.058708
  0
VERTEX
  8
0
 10
937.076925
 20
86.285774
 42
0.403611
  0
VERTEX
  8
0
 10
938.930510
 20
80.600846
 42
0.258032
  0
VERTEX
  8
0
 10
946.719275
 20
80.730662
 42
0.043662
  0
VERTEX
  8
0
 10
959.369920
 20
89.553258
 42
0.015204
  0
VERTEX
  8
0
 10
961.143239
 20
91.129577
 42
0.020571
  0
VERTEX
  8
0
 10
962.639914
 20
92.665054
 42
0.018061
  0
VERTEX
  8
0
 10
963.758428
 20
94.005606
 42
0.166316
  0
VERTEX
  8
0
 10
964.000000
 20
94.711762
 42
0.210510
  0
VERTEX
  8
0
 10
963.646885
 20
95.513307
 42
0.314246
  0
VERTEX
  8
0
 10
962.915466
 20
95.610363
 42
0.047302
  0
VERTEX
  8
0
 10
961.264030
 20
94.548211
 42
0.003046
  0
VERTEX
  8
0
 10
956.781614
 20
90.981050
 42
-0.019031
  0
VERTEX
  8
0
 10
951.413684
 20
86.982596
 42
-0.031111
  0
VERTEX
  8
0
 10
946.548659
 20
84.066653
 42
-0.032624
  0
VERTEX
  8
0
 10
942.619394
 20
82.347044
 42
-0.290996
  0
VERTEX
  8
0
 10
940.861649
 20
82.738351
 42
-0.335038
  0
VERTEX
  8
0
 10
940.742751
 20
83.589270
 42
-0.019430
  0
VERTEX
  8
0
 10
942.195120
 20
85.976351
 42
-0.019549
  0
VERTEX
  8
0
 10
944.531879
 20
89.218297
 42
-0.007187
  0
VERTEX
  8
0
 10
948.071828
 20
93.613697
 42
0.009776
  0
VERTEX
  8
0
 10
953.984282
 20
101.033235
 42
0.039821
  0
VERTEX
  8
0
 10
957.112572
 20
105.874472
 42
0.072909
  0
VERTEX
  8
0
 10
958.375795
 20
109.351045
 42
0.175354
  0
VERTEX
  8
0
 10
957.987778
 20
112.022837
 42
0.198081
  0
VERTEX
  8
0
 10
955.821574
 20
113.804500
 42
0.114013
  0
VERTEX
  8
0
 10
952.398599
 20
114.045031
 42
0.073613
  0
VERTEX
  8
0
 10
947.876711
 20
112.627135
 42
0.034986
  0
SEQEND
  0
POLYLINE
  8
0
 66
1
 70
1
  0
VERTEX
  8
0
 10
129.280862
 20
103.750000
 42
0.004591
  0
VERTEX
  8
0
 10
124.408753
 20
97.193003
 42
0.020776
  0
VERTEX
  8
0
 10
121.764555
 20
93.229281
 42
0.033725
  0
VERTEX
  8
0
 10
120.130466
 20
90.085360
 42
0.033164
  0
VERTEX
  8
0
 10
118.923393
 20
86.732886
 42
0.188296
  0
VERTEX
  8
0
 10
119.350295
 20
82.152479
 42
0.265134
  0
VERTEX
  8
0
 10
122.689326
 20
79.929903
 42
0.132248
  0
VERTEX
  8
0
 10
128.726075
 20
81.116099
 42
0.057433
  0
VERTEX
  8
0
 10
135.659479
 20
85.577169
 42
0.000000
  0
VERTEX
  8
0
 10
139.883141
 20
89.038142
 42
0.000000
  0
VERTEX
  8
0
 10
140.191570
 20
84.769071
 42
0.016982
  0
VERTEX
  8
0
 10
140.464646
 20
82.204587
 42
0.128703
  0
VERTEX
  8
0
 10
140.929977
 20
81.091721
 42
0.171265
  0
VERTEX
  8
0
 10
141.821051
 20
80.508535
 42
0.035946
  0
VERTEX
  8
0
 10
143.686322
 20
80.191391
 42
0.082333
  0
VERTEX
  8
0
 10
146.757207
 20
80.399738
 42
0.061120
  0
VERTEX
  8
0
 10
149.952085
 20
81.580918
 42
0.041036
  0
VERTEX
  8
0
 10
153.791510
 20
83.978644
 42
0.013452
  0
VERTEX
  8
0
 10
159.033641
 20
88.107658
 42
0.010152
  0
VERTEX
  8
0
 10
161.883724
 20
90.579165
 42
0.038003
  0
VERTEX
  8
0
 10
163.515663
 20
92.295687
 42
0.071946
  0
VERTEX
  8
0
 10
164.247390
 20
93.514931
 42
0.304489
  0
VERTEX
  8
0
 10
164.091207
 20
94.308793
 42
0.188686
  0
VERTEX
  8
0
 10
163.393134
 20
94.614200
 42
0.117825
  0
VERTEX
  8
0
 10
162.506191
 20
94.438888
 42
0.063400
  0
VERTEX
  8
0
 10
161.339362
 20
93.713278
 42
0.018654
  0
VERTEX
  8
0
 10
159.751947
 20
92.320230
 42
-0.022067
  0
VERTEX
  8
0
 10
153.471523
 20
86.884201
 42
-0.045589
  0
VERTEX
  8
0
 10
148.039281
 20
83.339042
 42
-0.091312
  0
VERTEX
  8
0
 10
144.413496
 20
82.197652
 42
-0.450673
  0
VERTEX
  8
0
 10
143.000000
 20
83.447343
 42
-0.146646
  0
VERTEX
  8
0
 10
143.285663
 20
84.400388
 42
-0.004050
  0
VERTEX
  8
0
 10
145.717187
 20
88.027770
 42
-0.008011
  0
VERTEX
  8
0
 10
148.705418
 20
92.261198
 42
-0.005374
  0
VERTEX
  8
0
 10
152.250000
 20
97.007845
 42
0.000662
  0
VERTEX
  8
0
 10
161.581885
 20
109.261822
 42
0.038739
  0
VERTEX
  8
0
 10
163.102832
 20
111.623866
 42
0.438428
  0
VERTEX
  8
0
 10
162.767113
 20
112.598478
 42
0.104051
  0
VERTEX
  8
0
 10
160.871972
 20
112.993167
 42
0.047191
  0
VERTEX
  8
0
 10
159.023773
 20
112.814560
 42
0.094620
  0
VERTEX
  8
0
 10
157.666482
 20
112.273496
 42
0.078554
  0
VERTEX
  8
0
 10
156.448985
 20
111.195300
 42
0.025014
  0
VERTEX
  8
0
 10
155.000000
 20
109.245908
 42
-0.037248
  0
VERTEX
  8
0
 10
150.809235
 20
103.886609
 42
-0.010450
  0
VERTEX
  8
0
 10
143.490710
 20
96.171203
 42
-0.010008
  0
VERTEX
  8
0
 10
135.917751
 20
88.815056
 42
-0.045116
  0
VERTEX
  8
0
 10
131.052136
 20
85.033455
 42
-0.037701
  0
VERTEX
  8
0
 10
125.241796
 20
81.895748
 42
-0.319525
  0
VERTEX
  8
0
 10
122.491696
 20
82.449676
 42
-0.326468
  0
VERTEX
  8
0
 10
122.153397
 20
85.200357
 42
-0.038389
  0
VERTEX
  8
0
 10
125.773469
 20
90.660202
 42
0.000352
  0
VERTEX
  8
0
 10
127.682161
 20
93.111816
 42
0.000122
  0
VERTEX
  8
0
 10
130.430345
 20
96.648622
 42
0.000121
  0
VERTEX
  8
0
 10
133.455002
 20
100.545153
 42
0.000141
  0
VERTEX
  8
0
 10
136.327749
 20
104.250000
 42
0.000000
  0
VERTEX
  8
0
 10
143.108559
 20
113.000000
 42
0.000000
  0
VERTEX
  8
0
 10
139.697637
 20
113.000000
 42
0.085461
  0
VERTEX
  8
0
 10
137.536803
 20
112.627948
 42
0.096580
  0
VERTEX
  8
0
 10
135.726506
 20
111.558544
 42
0.043683
  0
VERTEX
  8
0
 10
133.531497
 20
109.236794
 42
0.005455
  0
SEQEND
  0
POLYLINE
  8
0
 66
1
 70
1
  0
VERTEX
  8
0
 10
379.349565
 20
102.750000
 42
0.012349
  0
VERTEX
  8
0
 10
372.529483
 20
93.113585
 42
0.063141
  0
VERTEX
  8
0
 10
369.593713
 20
87.263161
 42
0.146700
  0
VERTEX
  8
0
 10
369.406644
 20
83.340568
 42
0.188975
  0
VERTEX
  8
0
 10
371.477352
 20
80.422883
 42
0.039575
  0
VERTEX
  8
0
 10
373.047778
 20
79.563058
 42
0.123026
  0
VERTEX
  8
0
 10
374.227041
 20
79.352122
 42
0.083591
  0
VERTEX
  8
0
 10
375.618463
 20
79.684700
 42
0.012357
  0
VERTEX
  8
0
 10
378.259495
 20
80.883574
 42
0.047503
  0
VERTEX
  8
0
 10
382.640536
 20
83.544213
 42
0.019070
  0
VERTEX
  8
0
 10
388.101674
 20
87.950009
 42
0.010098
  0
VERTEX
  8
0
 10
393.236222
 20
92.611790
 42
0.355707
  0
VERTEX
  8
0
 10
393.431987
 20
94.110048
 42
0.393803
  0
VERTEX
  8
0
 10
392.926021
 20
94.248400
 42
0.018193
  0
VERTEX
  8
0
 10
391.237683
 20
93.282236
 42
0.022003
  0
VERTEX
  8
0
 10
389.148045
 20
91.852168
 42
0.012978
  0
VERTEX
  8
0
 10
386.777005
 20
89.973285
 42
-0.012949
  0
VERTEX
  8
0
 10
381.905948
 20
86.112851
 42
-0.033442
  0
VERTEX
  8
0
 10
378.149250
 20
83.665464
 42
-0.046938
  0
VERTEX
  8
0
 10
375.269020
 20
82.390464
 42
-0.174063
  0
VERTEX
  8
0
 10
373.314103
 20
82.432962
 42
-0.121960
  0
VERTEX
  8
0
 10
372.640791
 20
82.902680
 42
-0.217484
  0
VERTEX
  8
0
 10
372.450950
 20
83.537352
 42
-0.087478
  0
VERTEX
  8
0
 10
372.777680
 20
84.549800
 42
-0.011593
  0
VERTEX
  8
0
 10
373.880567
 20
86.522149
 42
-0.022092
  0
VERTEX
  8
0
 10
375.886597
 20
89.602635
 42
-0.002188
  0
VERTEX
  8
0
 10
381.057305
 20
96.757699
 42
-0.002979
  0
VERTEX
  8
0
 10
386.841372
 20
104.589755
 42
-0.003780
  0
VERTEX
  8
0
 10
392.280385
 20
111.750000
 42
0.121954
  0
VERTEX
  8
0
 10
392.536558
 20
112.332261
 42
0.314402
  0
VERTEX
  8
0
 10
392.351859
 20
112.727176
 42
0.114168
  0
VERTEX
  8
0
 10
391.631428
 20
112.947462
 42
0.017350
  0
VERTEX
  8
0
 10
390.117795
 20
113.000000
 42
0.106414
  0
VERTEX
  8
0
 10
388.102849
 20
112.566250
 42
0.084371
  0
VERTEX
  8
0
 10
386.250692
 20
111.319668
 42
0.037349
  0
VERTEX
  8
0
 10
383.869625
 20
108.687683
 42
0.005031
  0
SEQEND
  0
POLYLINE
  8
0
 66
1
 70
1
  0
VERTEX
  8
0
 10
471.280862
 20
103.750000
 42
0.004591
  0
VERTEX
  8
0
 10
466.408753
 20
97.193003
 42
0.020776
  0
VERTEX
  8
0
 10
463.764555
 20
93.229281
 42
0.033725
  0
VERTEX
  8
0
 10
462.130466
 20
90.085360
 42
0.033164
  0
VERTEX
  8
0
 10
460.923393
 20
86.732886
 42
0.188296
  0
VERTEX
  8
0
 10
461.350295
 20
82.152479
 42
0.265134
  0
VERTEX
  8
0
 10
464.689326
 20
79.929903
 42
0.132248
  0
VERTEX
  8
0
 10
470.726075
 20
81.116099
 42
0.057433
  0
VERTEX
  8
0
 10
477.659479
 20
85.577169
 42
0.000000
  0
VERTEX
  8
0
 10
481.883141
 20
89.038142
 42
0.000000
  0
VERTEX
  8
0
 10
482.191570
 20
84.769071
 42
0.016982
  0
VERTEX
  8
0
 10
482.464646
 20
82.204587
 42
0.128703
  0
VERTEX
  8
0
 10
482.929977
 20
81.091721
 42
0.171265
  0
VERTEX
  8
0
 10
483.821051
 20
80.508535
 42
0.035946
  0
VERTEX
  8
0
 10
485.686322
 20
80.191391
 42
0.082333
  0
VERTEX
  8
0
 10
488.757207
 20
80.399738
 42
0.061120
  0
VERTEX
  8
0
 10
491.952085
 20
81.580918
 42
0.041036
  0
VERTEX
  8
0
 10
495.791510
 20
83.978644
 42
0.013452
  0
VERTEX
  8
0
 10
501.033641
 20
88.107658
 42
0.010152
  0
VERTEX
  8
0
 10
503.883724
 20
90.579165
 42
0.038003
  0
VERTEX
  8
0
 10
505.515663
 20
92.295687
 42
0.071946
  0
VERTEX
  8
0
 10
506.247390
 20
93.514931
 42
0.304489
  0
VERTEX
  8
0
 10
506.091207
 20
94.308793
 42
0.188686
  0
VERTEX
  8
0
 10
505.393134
 20
94.614200
 42
0.117825
  0
VERTEX
  8
0
 10
504.506191
 20
94.438888
 42
0.063400
  0
VERTEX
  8
0
 10
503.339362
 20
93.713278
 42
0.018654
  0
VERTEX
  8
0
 10
501.751947
 20
92.320230
 42
-0.022067
  0
VERTEX
  8
0
 10
495.471523
 20
86.884201
 42
-0.045589
  0
VERTEX
  8
0
 10
490.039281
 20
83.339042
 42
-0.091312
  0
VERTEX
  8
0
 10
486.413496
 20
82.197652
 42
-0.450673
  0
VERTEX
  8
0
 10
485.000000
 20
83.447343
 42
-0.146646
  0
VERTEX
  8
0
 10
485.285663
 20
84.400388
 42
-0.004050
  0
VERTEX
  8
0
 10
487.717188
 20
88.027770
 42
-0.008011
  0
VERTEX
  8
0
 10
490.705418
 20
92.261198
 42
-0.005374
  0
VERTEX
  8
0
 10
494.250000
 20
97.007845
 42
0.000662
  0
VERTEX
  8
0
 10
503.581885
 20
109.261822
 42
0.038739
  0
VERTEX
  8
0
 10
505.102832
 20
111.623866
 42
0.438428
  0
VERTEX
  8
0
 10
504.767113
 20
112.598478
 42
0.104051
  0
VERTEX
  8
0
 10
502.871972
 20
112.993167
 42
0.047191
  0
VERTEX
  8
0
 10
501.023773
 20
112.814560
 42
0.094620
  0
VERTEX
  8
0
 10
499.666482
 20
112.273496
 42
0.078554
  0
VERTEX
  8
0
 10
498.448985
 20
111.195300
 42
0.025014
  0
VERTEX
  8
0
 10
497.000000
 20
109.245908
 42
-0.037248
  0
VERTEX
  8
0
 10
492.809235
 20
103.886609
 42
-0.010450
  0
VERTEX
  8
0
 10
485.490710
 20
96.171203
 42
-0.010008
  0
VERTEX
  8
0
 10
477.917751
 20
88.815056
 42
-0.045116
  0
VERTEX
  8
0
 10
473.052136
 20
85.033455
 42
-0.037701
  0
VERTEX
  8
0
 10
467.241796
 20
81.895748
 42
-0.319525
  0
VERTEX
  8
0
 10
464.491696
 20
82.449676
 42
-0.326468
  0
VERTEX
  8
0
 10
464.153397
 20
85.200357
 42
-0.038389
  0
VERTEX
  8
0
 10
467.773469
 20
90.660202
 42
0.000352
  0
VERTEX
  8
0
 10
469.682161
 20
93.111816
 42
0.000122
  0
VERTEX
  8
0
 10
472.430345
 20
96.648622
 42
0.000121
  0
VERTEX
  8
0
 10
475.455002
 20
100.545153
 42
0.000141
  0
VERTEX
  8
0
 10
478.327749
 20
104.250000
 42
0.000000
  0
VERTEX
  8
0
 10
485.108559
 20
113.000000
 42
0.000000
  0
VERTEX
  8
0
 10
481.697637
 20
113.000000
 42
0.085461
  0
VERTEX
  8
0
 10
479.536803
 20
112.627948
 42
0.096580
  0
VERTEX
  8
0
 10
477.726506
 20
111.558544
 42
0.043683
  0
VERTEX
  8
0
 10
475.531497
 20
109.236794
 42
0.005455
  0
SEQEND
  0
POLYLINE
  8
0
 66
1
 70
1
  0
VERTEX
  8
0
 10
713.349565
 20
102.750000
 42
0.012349
  0
VERTEX
  8
0
 10
706.529483
 20
93.113585
 42
0.063141
  0
VERTEX
  8
0
 10
703.593713
 20
87.263161
 42
0.146700
  0
VERTEX
  8
0
 10
703.406644
 20
83.340568
 42
0.188975
  0
VERTEX
  8
0
 10
705.477352
 20
80.422883
 42
0.039575
  0
VERTEX
  8
0
 10
707.047778
 20
79.563058
 42
0.123026
  0
VERTEX
  8
0
 10
708.227041
 20
79.352122
 42
0.083591
  0
VERTEX
  8
0
 10
709.618463
 20
79.684700
 42
0.012357
  0
VERTEX
  8
0
 10
712.259495
 20
80.883574
 42
0.047503
  0
VERTEX
  8
0
 10
716.640536
 20
83.544213
 42
0.019070
  0
VERTEX
  8
0
 10
722.101674
 20
87.950009
 42
0.010098
  0
VERTEX
  8
0
 10
727.236222
 20
92.611790
 42
0.355707
  0
VERTEX
  8
0
 10
727.431987
 20
94.110048
 42
0.393803
  0
VERTEX
  8
0
 10
726.926021
 20
94.248400
 42
0.018193
  0
VERTEX
  8
0
 10
725.237683
 20
93.282236
 42
0.022003
  0
VERTEX
  8
0
 10
723.148045
 20
91.852168
 42
0.012978
  0
VERTEX
  8
0
 10
720.777005
 20
89.973285
 42
-0.012949
  0
VERTEX
  8
0
 10
715.905948
 20
86.112851
 42
-0.033442
  0
VERTEX
  8
0
 10
712.149250
 20
83.665464
 42
-0.046938
  0
VERTEX
  8
0
 10
709.269020
 20
82.390464
 42
-0.174063
  0
VERTEX
  8
0
 10
707.314103
 20
82.432962
 42
-0.121960
  0
VERTEX
  8
0
 10
706.640791
 20
82.902680
 42
-0.217484
  0
VERTEX
  8
0
 10
706.450950
 20
83.537352
 42
-0.087478
  0
VERTEX
  8
0
 10
706.777680
 20
84.549800
 42
-0.011593
  0
VERTEX
  8
0
 10
707.880567
 20
86.522149
 42
-0.022092
  0
VERTEX
  8
0
 10
709.886597
 20
89.602635
 42
-0.002188
  0
VERTEX
  8
0
 10
715.057305
 20
96.757699
 42
-0.002979
  0
VERTEX
  8
0
 10
720.841372
 20
104.589755
 42
-0.003780
  0
VERTEX
  8
0
 10
726.280385
 20
111.750000
 42
0.121954
  0
VERTEX
  8
0
 10
726.536558
 20
112.332261
 42
0.314402
  0
VERTEX
  8
0
 10
726.351859
 20
112.727176
 42
0.114168
  0
VERTEX
  8
0
 10
725.631428
 20
112.947462
 42
0.017350
  0
VERTEX
  8
0
 10
724.117795
 20
113.000000
 42
0.106414
  0
VERTEX
  8
0
 10
722.102849
 20
112.566250
 42
0.084371
  0
VERTEX
  8
0
 10
720.250692
 20
111.319668
 42
0.037349
  0
VERTEX
  8
0
 10
717.869625
 20
108.687683
 42
0.005031
  0
SEQEND
  0
ENDSEC
  0
EOF
