999
"DXF R12 Output" (www.mydxf.blogspot.com)
 0 
SECTION
 2 
HEADER
 9 
$ACADVER
 1 
AC1009
 9 
$EXTMIN
 10 
 0 
 20 
 0 
 9 
$EXTMAX
 10 
 8.5 
 20 
 11 
 0 
ENDSEC
 0 
SECTION
 2 
ENTITIES
0
LINE
8
Layer 1
10
41.195600
20
60.060500
11
41.830599
21
60.378000
0
LINE
8
Layer 1
10
41.830599
20
60.378000
11
41.857057
21
60.404458
0
LINE
8
Layer 1
10
41.857057
20
60.404458
11
41.962890
21
60.298625
0
LINE
8
Layer 1
10
41.962890
20
60.298625
11
41.645390
21
60.113417
0
LINE
8
Layer 1
10
41.645390
20
60.113417
11
41.354349
21
59.928209
0
LINE
8
Layer 1
10
41.354349
20
59.928209
11
41.089766
21
59.743001
0
LINE
8
Layer 1
10
41.089766
20
59.743001
11
40.825183
21
59.557793
0
LINE
8
Layer 1
10
40.825183
20
59.557793
11
40.878100
21
59.372585
0
LINE
8
Layer 1
10
40.878100
20
59.372585
11
40.904558
21
59.187377
0
LINE
8
Layer 1
10
40.904558
20
59.187377
11
40.931016
21
59.108002
0
LINE
8
Layer 1
10
40.931016
20
59.108002
11
40.931016
21
59.028627
0
LINE
8
Layer 1
10
40.931016
20
59.028627
11
40.931000
21
58.949200
0
LINE
8
Layer 1
10
40.931000
20
58.949200
11
40.931000
21
58.869800
0
LINE
8
Layer 1
10
40.931000
20
58.869800
11
40.878083
21
58.208343
0
LINE
8
Layer 1
10
40.878083
20
58.208343
11
40.719333
21
57.573344
0
LINE
8
Layer 1
10
40.719333
20
57.573344
11
40.454750
21
56.964803
0
LINE
8
Layer 1
10
40.454750
20
56.964803
11
40.057876
21
56.382720
0
LINE
8
Layer 1
10
40.057876
20
56.382720
11
39.555168
21
55.853554
0
LINE
8
Layer 1
10
39.555168
20
55.853554
11
38.973085
21
55.456680
0
LINE
8
Layer 1
10
38.973085
20
55.456680
11
38.338086
21
55.218555
0
LINE
8
Layer 1
10
38.338086
20
55.218555
11
37.676629
21
55.139180
0
LINE
8
Layer 1
10
37.676629
20
55.139180
11
37.412046
21
55.165638
0
LINE
8
Layer 1
10
37.412046
20
55.165638
11
37.121005
21
55.192097
0
LINE
8
Layer 1
10
37.121005
20
55.192097
11
36.777047
21
55.245013
0
LINE
8
Layer 1
10
36.777047
20
55.245013
11
36.300798
21
55.377304
0
LINE
8
Layer 1
10
36.300798
20
55.377304
11
35.903923
21
55.271471
0
LINE
8
Layer 1
10
35.903923
20
55.271471
11
35.533507
21
55.192096
0
LINE
8
Layer 1
10
35.533507
20
55.192096
11
35.348299
21
55.165638
0
LINE
8
Layer 1
10
35.348299
20
55.165638
11
35.163091
21
55.139180
0
LINE
8
Layer 1
10
35.163091
20
55.139180
11
34.977883
21
55.139180
0
LINE
8
Layer 1
10
34.977883
20
55.139180
11
34.792675
21
55.139180
0
LINE
8
Layer 1
10
34.792675
20
55.139180
11
34.369342
21
55.165638
0
LINE
8
Layer 1
10
34.369342
20
55.165638
11
34.051842
21
55.245013
0
LINE
8
Layer 1
10
34.051842
20
55.245013
11
33.840176
21
55.377304
0
LINE
8
Layer 1
10
33.840176
20
55.377304
11
33.760801
21
55.562512
0
LINE
8
Layer 1
10
33.760801
20
55.562512
11
33.813718
21
55.747720
0
LINE
8
Layer 1
10
33.813718
20
55.747720
11
33.998926
21
55.880011
0
LINE
8
Layer 1
10
33.998926
20
55.880011
11
34.289967
21
55.959386
0
LINE
8
Layer 1
10
34.289967
20
55.959386
11
34.660383
21
55.985844
0
LINE
8
Layer 1
10
34.660383
20
55.985844
11
35.004341
21
55.959386
0
LINE
8
Layer 1
10
35.004341
20
55.959386
11
35.401215
21
55.880011
0
LINE
8
Layer 1
10
35.401215
20
55.880011
11
35.798090
21
55.774178
0
LINE
8
Layer 1
10
35.798090
20
55.774178
11
36.221423
21
55.615428
0
LINE
8
Layer 1
10
36.221423
20
55.615428
11
36.644756
21
55.853553
0
LINE
8
Layer 1
10
36.644756
20
55.853553
11
37.094547
21
56.223969
0
LINE
8
Layer 1
10
37.094547
20
56.223969
11
37.650171
21
56.753135
0
LINE
8
Layer 1
10
37.650171
20
56.753135
11
38.311629
21
57.520426
0
LINE
8
Layer 1
10
38.311629
20
57.520426
11
38.417462
21
57.652718
0
LINE
8
Layer 1
10
38.417462
20
57.652718
11
38.549754
21
57.837926
0
LINE
8
Layer 1
10
38.549754
20
57.837926
11
39.608084
21
59.002096
0
LINE
8
Layer 1
10
39.608084
20
59.002096
11
40.481208
21
59.769387
0
LINE
8
Layer 1
10
40.481208
20
59.769387
11
40.163708
21
60.272095
0
LINE
8
Layer 1
10
40.163708
20
60.272095
11
39.687459
21
60.642511
0
LINE
8
Layer 1
10
39.687459
20
60.642511
11
39.078918
21
60.880636
0
LINE
8
Layer 1
10
39.078918
20
60.880636
11
38.338086
21
60.960011
0
LINE
8
Layer 1
10
38.338086
20
60.960011
11
37.676629
21
60.907094
0
LINE
8
Layer 1
10
37.676629
20
60.907094
11
37.041630
21
60.748344
0
LINE
8
Layer 1
10
37.041630
20
60.748344
11
36.459547
21
60.483761
0
LINE
8
Layer 1
10
36.459547
20
60.483761
11
35.930381
21
60.113345
0
LINE
8
Layer 1
10
35.930381
20
60.113345
11
35.559965
21
59.742929
0
LINE
8
Layer 1
10
35.559965
20
59.742929
11
35.295382
21
59.346054
0
LINE
8
Layer 1
10
35.295382
20
59.346054
11
35.110174
21
58.949179
0
LINE
8
Layer 1
10
35.110174
20
58.949179
11
35.057257
21
58.552305
0
LINE
8
Layer 1
10
35.057257
20
58.552305
11
35.136632
21
58.155430
0
LINE
8
Layer 1
10
35.136632
20
58.155430
11
35.374757
21
57.864389
0
LINE
8
Layer 1
10
35.374757
20
57.864389
11
35.718715
21
57.679181
0
LINE
8
Layer 1
10
35.718715
20
57.679181
11
36.194964
21
57.626265
0
LINE
8
Layer 1
10
36.194964
20
57.626265
11
37.015171
21
57.785015
0
LINE
8
Layer 1
10
37.015171
20
57.785015
11
37.782462
21
58.261264
0
LINE
8
Layer 1
10
37.782462
20
58.261264
11
38.417461
21
58.975638
0
LINE
8
Layer 1
10
38.417461
20
58.975638
11
38.840794
21
59.901678
0
LINE
8
Layer 1
10
38.840794
20
59.901678
11
38.973086
21
59.795845
0
LINE
8
Layer 1
10
38.973086
20
59.795845
11
38.602670
21
58.843346
0
LINE
8
Layer 1
10
38.602670
20
58.843346
11
37.994129
21
58.102514
0
LINE
8
Layer 1
10
37.994129
20
58.102514
11
37.200380
21
57.626265
0
LINE
8
Layer 1
10
37.200380
20
57.626265
11
36.300798
21
57.467515
0
LINE
8
Layer 1
10
36.300798
20
57.467515
11
35.692257
21
57.546890
0
LINE
8
Layer 1
10
35.692257
20
57.546890
11
35.216008
21
57.811473
0
LINE
8
Layer 1
10
35.216008
20
57.811473
11
34.924967
21
58.208348
0
LINE
8
Layer 1
10
34.924967
20
58.208348
11
34.819134
21
58.711056
0
LINE
8
Layer 1
10
34.819134
20
58.711056
11
34.872051
21
59.160847
0
LINE
8
Layer 1
10
34.872051
20
59.160847
11
35.057259
21
59.610638
0
LINE
8
Layer 1
10
35.057259
20
59.610638
11
35.348300
21
60.033971
0
LINE
8
Layer 1
10
35.348300
20
60.033971
11
35.718716
21
60.404387
0
LINE
8
Layer 1
10
35.718716
20
60.404387
11
36.221424
21
60.748345
0
LINE
8
Layer 1
10
36.221424
20
60.748345
11
36.803507
21
61.012928
0
LINE
8
Layer 1
10
36.803507
20
61.012928
11
37.464964
21
61.171678
0
LINE
8
Layer 1
10
37.464964
20
61.171678
11
38.152880
21
61.224594
0
LINE
8
Layer 1
10
38.152880
20
61.224594
11
38.999546
21
61.145219
0
LINE
8
Layer 1
10
38.999546
20
61.145219
11
39.713920
21
60.880636
0
LINE
8
Layer 1
10
39.713920
20
60.880636
11
40.269544
21
60.483762
0
LINE
8
Layer 1
10
40.269544
20
60.483762
11
40.666419
21
59.928138
0
LINE
8
Layer 1
10
40.666419
20
59.928138
11
40.666400
21
59.928200
0
LINE
8
Layer 1
10
40.666400
20
59.928200
11
40.940937
21
59.934800
0
LINE
8
Layer 1
10
40.940937
20
59.934800
11
41.195600
21
60.060500
0
LINE
8
Layer 1
10
35.692200
20
55.562500
11
35.348242
21
55.668333
0
LINE
8
Layer 1
10
35.348242
20
55.668333
11
35.030742
21
55.721250
0
LINE
8
Layer 1
10
35.030742
20
55.721250
11
34.739701
21
55.747708
0
LINE
8
Layer 1
10
34.739701
20
55.747708
11
34.475118
21
55.721250
0
LINE
8
Layer 1
10
34.475118
20
55.721250
11
34.263452
21
55.668333
0
LINE
8
Layer 1
10
34.263452
20
55.668333
11
34.131160
21
55.588958
0
LINE
8
Layer 1
10
34.131160
20
55.588958
11
34.078243
21
55.483125
0
LINE
8
Layer 1
10
34.078243
20
55.483125
11
34.131160
21
55.377292
0
LINE
8
Layer 1
10
34.131160
20
55.377292
11
34.289910
21
55.297917
0
LINE
8
Layer 1
10
34.289910
20
55.297917
11
34.554493
21
55.245001
0
LINE
8
Layer 1
10
34.554493
20
55.245001
11
34.924909
21
55.218542
0
LINE
8
Layer 1
10
34.924909
20
55.218542
11
35.189492
21
55.245001
0
LINE
8
Layer 1
10
35.189492
20
55.245001
11
35.480533
21
55.271459
0
LINE
8
Layer 1
10
35.480533
20
55.271459
11
35.771574
21
55.324376
0
LINE
8
Layer 1
10
35.771574
20
55.324376
11
36.062615
21
55.403750
0
LINE
8
Layer 1
10
36.062615
20
55.403750
11
36.062700
21
55.403800
0
LINE
8
Layer 1
10
36.062700
20
55.403800
11
35.692200
21
55.562500
0
LINE
8
Layer 1
10
40.031400
20
58.711100
11
39.290568
21
57.758601
0
LINE
8
Layer 1
10
39.290568
20
57.758601
11
39.105360
21
57.494018
0
LINE
8
Layer 1
10
39.105360
20
57.494018
11
38.973068
21
57.335268
0
LINE
8
Layer 1
10
38.973068
20
57.335268
11
38.417444
21
56.700269
0
LINE
8
Layer 1
10
38.417444
20
56.700269
11
37.861820
21
56.197561
0
LINE
8
Layer 1
10
37.861820
20
56.197561
11
37.279737
21
55.774228
0
LINE
8
Layer 1
10
37.279737
20
55.774228
11
36.618280
21
55.430270
0
LINE
8
Layer 1
10
36.618280
20
55.430270
11
36.935780
21
55.350895
0
LINE
8
Layer 1
10
36.935780
20
55.350895
11
37.200363
21
55.297978
0
LINE
8
Layer 1
10
37.200363
20
55.297978
11
37.438488
21
55.271520
0
LINE
8
Layer 1
10
37.438488
20
55.271520
11
37.676613
21
55.271520
0
LINE
8
Layer 1
10
37.676613
20
55.271520
11
38.258696
21
55.350895
0
LINE
8
Layer 1
10
38.258696
20
55.350895
11
38.814320
21
55.562561
0
LINE
8
Layer 1
10
38.814320
20
55.562561
11
39.343486
21
55.906519
0
LINE
8
Layer 1
10
39.343486
20
55.906519
11
39.819735
21
56.382768
0
LINE
8
Layer 1
10
39.819735
20
56.382768
11
40.216610
21
56.911934
0
LINE
8
Layer 1
10
40.216610
20
56.911934
11
40.507651
21
57.520475
0
LINE
8
Layer 1
10
40.507651
20
57.520475
11
40.692859
21
58.155474
0
LINE
8
Layer 1
10
40.692859
20
58.155474
11
40.745776
21
58.764015
0
LINE
8
Layer 1
10
40.745776
20
58.764015
11
40.745800
21
58.869800
0
LINE
8
Layer 1
10
40.745800
20
58.869800
11
40.745800
21
59.055008
0
LINE
8
Layer 1
10
40.745800
20
59.055008
11
40.719342
21
59.240216
0
LINE
8
Layer 1
10
40.719342
20
59.240216
11
40.692883
21
59.425424
0
LINE
8
Layer 1
10
40.692883
20
59.425424
11
40.692900
21
59.425500
0
LINE
8
Layer 1
10
40.692900
20
59.425500
11
40.031400
21
58.711100
0
LINE
8
Layer 1
10
40.719300
20
55.959400
11
40.560550
21
55.721275
0
LINE
8
Layer 1
10
40.560550
20
55.721275
11
40.481175
21
55.536067
0
LINE
8
Layer 1
10
40.481175
20
55.536067
11
40.454717
21
55.403775
0
LINE
8
Layer 1
10
40.454717
20
55.403775
11
40.481175
21
55.297942
0
LINE
8
Layer 1
10
40.481175
20
55.297942
11
40.534092
21
55.218567
0
LINE
8
Layer 1
10
40.534092
20
55.218567
11
40.639925
21
55.165651
0
LINE
8
Layer 1
10
40.639925
20
55.165651
11
40.772217
21
55.139192
0
LINE
8
Layer 1
10
40.772217
20
55.139192
11
41.195550
21
55.218567
0
LINE
8
Layer 1
10
41.195550
20
55.218567
11
41.724716
21
55.430233
0
LINE
8
Layer 1
10
41.724716
20
55.430233
11
42.280340
21
55.774191
0
LINE
8
Layer 1
10
42.280340
20
55.774191
11
42.888881
21
56.223982
0
LINE
8
Layer 1
10
42.888881
20
56.223982
11
42.968256
21
56.091690
0
LINE
8
Layer 1
10
42.968256
20
56.091690
11
42.333257
21
55.588982
0
LINE
8
Layer 1
10
42.333257
20
55.588982
11
41.724716
21
55.218566
0
LINE
8
Layer 1
10
41.724716
20
55.218566
11
41.169092
21
55.006900
0
LINE
8
Layer 1
10
41.169092
20
55.006900
11
40.719301
21
54.927525
0
LINE
8
Layer 1
10
40.719301
20
54.927525
11
40.507635
21
54.953984
0
LINE
8
Layer 1
10
40.507635
20
54.953984
11
40.348885
21
55.059817
0
LINE
8
Layer 1
10
40.348885
20
55.059817
11
40.243052
21
55.218567
0
LINE
8
Layer 1
10
40.243052
20
55.218567
11
40.190135
21
55.430233
0
LINE
8
Layer 1
10
40.190135
20
55.430233
11
40.269510
21
55.827106
0
LINE
8
Layer 1
10
40.269510
20
55.827106
11
40.481176
21
56.250439
0
LINE
8
Layer 1
10
40.481176
20
56.250439
11
40.798676
21
56.673772
0
LINE
8
Layer 1
10
40.798676
20
56.673772
11
41.248467
21
57.097105
0
LINE
8
Layer 1
10
41.248467
20
57.097105
11
41.645342
21
57.388146
0
LINE
8
Layer 1
10
41.645342
20
57.388146
11
42.042217
21
57.599812
0
LINE
8
Layer 1
10
42.042217
20
57.599812
11
42.439091
21
57.758562
0
LINE
8
Layer 1
10
42.439091
20
57.758562
11
42.783049
21
57.811479
0
LINE
8
Layer 1
10
42.783049
20
57.811479
11
42.941799
21
57.785021
0
LINE
8
Layer 1
10
42.941799
20
57.785021
11
43.047632
21
57.732104
0
LINE
8
Layer 1
10
43.047632
20
57.732104
11
43.127007
21
57.652729
0
LINE
8
Layer 1
10
43.127007
20
57.652729
11
43.153465
21
57.546896
0
LINE
8
Layer 1
10
43.153465
20
57.546896
11
42.994715
21
57.202938
0
LINE
8
Layer 1
10
42.994715
20
57.202938
11
42.518466
21
56.806063
0
LINE
8
Layer 1
10
42.518466
20
56.806063
11
41.804092
21
56.462105
0
LINE
8
Layer 1
10
41.804092
20
56.462105
11
40.904510
21
56.171064
0
LINE
8
Layer 1
10
40.904510
20
56.171064
11
40.904510
21
56.171064
0
LINE
8
Layer 1
10
40.904510
20
56.171064
11
40.719300
21
55.959400
0
LINE
8
Layer 1
10
41.804100
20
56.700300
11
42.386183
21
57.017800
0
LINE
8
Layer 1
10
42.386183
20
57.017800
11
42.783058
21
57.335300
0
LINE
8
Layer 1
10
42.783058
20
57.335300
11
42.915350
21
57.573425
0
LINE
8
Layer 1
10
42.915350
20
57.573425
11
42.915350
21
57.626342
0
LINE
8
Layer 1
10
42.915350
20
57.626342
11
42.888892
21
57.652800
0
LINE
8
Layer 1
10
42.888892
20
57.652800
11
42.835975
21
57.679258
0
LINE
8
Layer 1
10
42.835975
20
57.679258
11
42.756600
21
57.679258
0
LINE
8
Layer 1
10
42.756600
20
57.679258
11
42.439100
21
57.599883
0
LINE
8
Layer 1
10
42.439100
20
57.599883
11
42.042226
21
57.361758
0
LINE
8
Layer 1
10
42.042226
20
57.361758
11
41.592435
21
56.964884
0
LINE
8
Layer 1
10
41.592435
20
56.964884
11
41.116186
21
56.462176
0
LINE
8
Layer 1
10
41.116186
20
56.462176
11
41.116186
21
56.462176
0
LINE
8
Layer 1
10
41.116186
20
56.462176
11
41.804100
21
56.700300
0
LINE
8
Layer 1
10
48.471600
20
60.378000
11
44.952650
21
55.747800
0
LINE
8
Layer 1
10
44.952650
20
55.747800
11
44.952650
21
55.721342
0
LINE
8
Layer 1
10
44.952650
20
55.721342
11
44.793900
21
55.483217
0
LINE
8
Layer 1
10
44.793900
20
55.483217
11
44.740983
21
55.350926
0
LINE
8
Layer 1
10
44.740983
20
55.350926
11
44.740983
21
55.298009
0
LINE
8
Layer 1
10
44.740983
20
55.298009
11
44.767442
21
55.245092
0
LINE
8
Layer 1
10
44.767442
20
55.245092
11
44.820358
21
55.218634
0
LINE
8
Layer 1
10
44.820358
20
55.218634
11
44.899733
21
55.218634
0
LINE
8
Layer 1
10
44.899733
20
55.218634
11
45.137858
21
55.298009
0
LINE
8
Layer 1
10
45.137858
20
55.298009
11
45.481816
21
55.509675
0
LINE
8
Layer 1
10
45.481816
20
55.509675
11
45.958065
21
55.853633
0
LINE
8
Layer 1
10
45.958065
20
55.853633
11
46.513689
21
56.329882
0
LINE
8
Layer 1
10
46.513689
20
56.329882
11
46.619522
21
56.224049
0
LINE
8
Layer 1
10
46.619522
20
56.224049
11
46.063898
21
55.721341
0
LINE
8
Layer 1
10
46.063898
20
55.721341
11
45.561190
21
55.350925
0
LINE
8
Layer 1
10
45.561190
20
55.350925
11
45.164316
21
55.139259
0
LINE
8
Layer 1
10
45.164316
20
55.139259
11
44.846816
21
55.059884
0
LINE
8
Layer 1
10
44.846816
20
55.059884
11
44.714524
21
55.086343
0
LINE
8
Layer 1
10
44.714524
20
55.086343
11
44.608691
21
55.139259
0
LINE
8
Layer 1
10
44.608691
20
55.139259
11
44.529316
21
55.245092
0
LINE
8
Layer 1
10
44.529316
20
55.245092
11
44.502858
21
55.403842
0
LINE
8
Layer 1
10
44.502858
20
55.403842
11
44.502858
21
55.483217
0
LINE
8
Layer 1
10
44.502858
20
55.483217
11
44.529316
21
55.562592
0
LINE
8
Layer 1
10
44.529316
20
55.562592
11
44.555775
21
55.668425
0
LINE
8
Layer 1
10
44.555775
20
55.668425
11
44.608691
21
55.827175
0
LINE
8
Layer 1
10
44.608691
20
55.827175
11
44.291191
21
55.562592
0
LINE
8
Layer 1
10
44.291191
20
55.562592
11
44.000150
21
55.350926
0
LINE
8
Layer 1
10
44.000150
20
55.350926
11
43.894317
21
55.298009
0
LINE
8
Layer 1
10
43.894317
20
55.298009
11
43.788484
21
55.245093
0
LINE
8
Layer 1
10
43.788484
20
55.245093
11
43.418068
21
55.112801
0
LINE
8
Layer 1
10
43.418068
20
55.112801
11
43.100568
21
55.059884
0
LINE
8
Layer 1
10
43.100568
20
55.059884
11
42.915360
21
55.086342
0
LINE
8
Layer 1
10
42.915360
20
55.086342
11
42.756610
21
55.165717
0
LINE
8
Layer 1
10
42.756610
20
55.165717
11
42.677235
21
55.298009
0
LINE
8
Layer 1
10
42.677235
20
55.298009
11
42.650777
21
55.483217
0
LINE
8
Layer 1
10
42.650777
20
55.483217
11
42.730152
21
55.906550
0
LINE
8
Layer 1
10
42.730152
20
55.906550
11
42.968277
21
56.356341
0
LINE
8
Layer 1
10
42.968277
20
56.356341
11
43.338693
21
56.806132
0
LINE
8
Layer 1
10
43.338693
20
56.806132
11
43.814942
21
57.229465
0
LINE
8
Layer 1
10
43.814942
20
57.229465
11
44.211817
21
57.494048
0
LINE
8
Layer 1
10
44.211817
20
57.494048
11
44.608692
21
57.705714
0
LINE
8
Layer 1
10
44.608692
20
57.705714
11
45.005566
21
57.838005
0
LINE
8
Layer 1
10
45.005566
20
57.838005
11
45.323066
21
57.890922
0
LINE
8
Layer 1
10
45.323066
20
57.890922
11
45.508274
21
57.864464
0
LINE
8
Layer 1
10
45.508274
20
57.864464
11
45.640566
21
57.785089
0
LINE
8
Layer 1
10
45.640566
20
57.785089
11
45.719941
21
57.679256
0
LINE
8
Layer 1
10
45.719941
20
57.679256
11
45.746399
21
57.520506
0
LINE
8
Layer 1
10
45.746399
20
57.520506
11
45.746400
21
57.494000
0
LINE
8
Layer 1
10
45.746400
20
57.494000
11
45.746400
21
57.467500
0
LINE
8
Layer 1
10
45.746400
20
57.467500
11
45.746400
21
57.441100
0
LINE
8
Layer 1
10
45.746400
20
57.441100
11
45.746400
21
57.414600
0
LINE
8
Layer 1
10
45.746400
20
57.414600
11
45.746400
21
57.388142
0
LINE
8
Layer 1
10
45.746400
20
57.388142
11
45.746400
21
57.388200
0
LINE
8
Layer 1
10
45.746400
20
57.388200
11
47.995360
21
60.377990
0
LINE
8
Layer 1
10
47.995360
20
60.377990
11
48.471600
21
60.378000
0
LINE
8
Layer 1
10
48.471600
20
60.378000
11
48.471600
21
60.378000
0
LINE
8
Layer 1
10
43.471000
20
55.271500
11
43.867874
21
55.483166
0
LINE
8
Layer 1
10
43.867874
20
55.483166
11
44.105999
21
55.641916
0
LINE
8
Layer 1
10
44.105999
20
55.641916
11
44.317665
21
55.827124
0
LINE
8
Layer 1
10
44.317665
20
55.827124
11
44.529331
21
56.038790
0
LINE
8
Layer 1
10
44.529331
20
56.038790
11
44.767456
21
56.276915
0
LINE
8
Layer 1
10
44.767456
20
56.276915
11
45.084956
21
56.647331
0
LINE
8
Layer 1
10
45.084956
20
56.647331
11
45.323081
21
56.991289
0
LINE
8
Layer 1
10
45.323081
20
56.991289
11
45.481831
21
57.255872
0
LINE
8
Layer 1
10
45.481831
20
57.255872
11
45.534748
21
57.467538
0
LINE
8
Layer 1
10
45.534748
20
57.467538
11
45.508289
21
57.546913
0
LINE
8
Layer 1
10
45.508289
20
57.546913
11
45.455373
21
57.599830
0
LINE
8
Layer 1
10
45.455373
20
57.599830
11
45.375998
21
57.652746
0
LINE
8
Layer 1
10
45.375998
20
57.652746
11
45.296623
21
57.679204
0
LINE
8
Layer 1
10
45.296623
20
57.679204
11
45.005582
21
57.599830
0
LINE
8
Layer 1
10
45.005582
20
57.599830
11
44.635166
21
57.388164
0
LINE
8
Layer 1
10
44.635166
20
57.388164
11
44.238291
21
57.070664
0
LINE
8
Layer 1
10
44.238291
20
57.070664
11
43.814958
21
56.620873
0
LINE
8
Layer 1
10
43.814958
20
56.620873
11
43.444542
21
56.197540
0
LINE
8
Layer 1
10
43.444542
20
56.197540
11
43.179959
21
55.853582
0
LINE
8
Layer 1
10
43.179959
20
55.853582
11
43.021209
21
55.588999
0
LINE
8
Layer 1
10
43.021209
20
55.588999
11
42.968292
21
55.377333
0
LINE
8
Layer 1
10
42.968292
20
55.377333
11
42.994751
21
55.324416
0
LINE
8
Layer 1
10
42.994751
20
55.324416
11
43.047667
21
55.271499
0
LINE
8
Layer 1
10
43.047667
20
55.271499
11
43.100584
21
55.245041
0
LINE
8
Layer 1
10
43.100584
20
55.245041
11
43.179959
21
55.245041
0
LINE
8
Layer 1
10
43.179959
20
55.245041
11
43.179959
21
55.245041
0
LINE
8
Layer 1
10
43.179959
20
55.245041
11
43.471000
21
55.271500
0
LINE
8
Layer 1
10
48.048300
20
57.732100
11
46.646010
21
55.853560
0
LINE
8
Layer 1
10
46.646010
20
55.853560
11
46.513718
21
55.641894
0
LINE
8
Layer 1
10
46.513718
20
55.641894
11
46.407885
21
55.483144
0
LINE
8
Layer 1
10
46.407885
20
55.483144
11
46.354968
21
55.377311
0
LINE
8
Layer 1
10
46.354968
20
55.377311
11
46.328510
21
55.297936
0
LINE
8
Layer 1
10
46.328510
20
55.297936
11
46.328510
21
55.245020
0
LINE
8
Layer 1
10
46.328510
20
55.245020
11
46.354968
21
55.192103
0
LINE
8
Layer 1
10
46.354968
20
55.192103
11
46.407885
21
55.165645
0
LINE
8
Layer 1
10
46.407885
20
55.165645
11
46.460802
21
55.139186
0
LINE
8
Layer 1
10
46.460802
20
55.139186
11
46.698927
21
55.218561
0
LINE
8
Layer 1
10
46.698927
20
55.218561
11
47.042885
21
55.430227
0
LINE
8
Layer 1
10
47.042885
20
55.430227
11
47.466218
21
55.774185
0
LINE
8
Layer 1
10
47.466218
20
55.774185
11
47.968926
21
56.223976
0
LINE
8
Layer 1
10
47.968926
20
56.223976
11
48.101218
21
56.118143
0
LINE
8
Layer 1
10
48.101218
20
56.118143
11
47.545594
21
55.588977
0
LINE
8
Layer 1
10
47.545594
20
55.588977
11
47.069345
21
55.218561
0
LINE
8
Layer 1
10
47.069345
20
55.218561
11
46.672470
21
55.006895
0
LINE
8
Layer 1
10
46.672470
20
55.006895
11
46.381429
21
54.927520
0
LINE
8
Layer 1
10
46.381429
20
54.927520
11
46.249137
21
54.953979
0
LINE
8
Layer 1
10
46.249137
20
54.953979
11
46.143304
21
55.033354
0
LINE
8
Layer 1
10
46.143304
20
55.033354
11
46.063929
21
55.139187
0
LINE
8
Layer 1
10
46.063929
20
55.139187
11
46.037470
21
55.297936
0
LINE
8
Layer 1
10
46.037470
20
55.297936
11
46.063929
21
55.536061
0
LINE
8
Layer 1
10
46.063929
20
55.536061
11
46.169762
21
55.774186
0
LINE
8
Layer 1
10
46.169762
20
55.774186
11
46.328512
21
56.091686
0
LINE
8
Layer 1
10
46.328512
20
56.091686
11
46.593095
21
56.462102
0
LINE
8
Layer 1
10
46.593095
20
56.462102
11
47.492677
21
57.652722
0
LINE
8
Layer 1
10
47.492677
20
57.652722
11
48.048300
21
57.652800
0
LINE
8
Layer 1
10
48.048300
20
57.652800
11
48.048300
21
57.732100
0
LINE
8
Layer 1
10
48.894900
20
59.108000
11
48.947817
21
59.055083
0
LINE
8
Layer 1
10
48.947817
20
59.055083
11
49.000733
21
58.975708
0
LINE
8
Layer 1
10
49.000733
20
58.975708
11
49.027192
21
58.869875
0
LINE
8
Layer 1
10
49.027192
20
58.869875
11
49.000733
21
58.737583
0
LINE
8
Layer 1
10
49.000733
20
58.737583
11
48.894900
21
58.605292
0
LINE
8
Layer 1
10
48.894900
20
58.605292
11
48.762608
21
58.499460
0
LINE
8
Layer 1
10
48.762608
20
58.499460
11
48.630316
21
58.473001
0
LINE
8
Layer 1
10
48.630316
20
58.473001
11
48.524483
21
58.499460
0
LINE
8
Layer 1
10
48.524483
20
58.499460
11
48.445108
21
58.552376
0
LINE
8
Layer 1
10
48.445108
20
58.552376
11
48.392192
21
58.631751
0
LINE
8
Layer 1
10
48.392192
20
58.631751
11
48.365733
21
58.711126
0
LINE
8
Layer 1
10
48.365733
20
58.711126
11
48.392192
21
58.843418
0
LINE
8
Layer 1
10
48.392192
20
58.843418
11
48.498025
21
58.975709
0
LINE
8
Layer 1
10
48.498025
20
58.975709
11
48.630317
21
59.081542
0
LINE
8
Layer 1
10
48.630317
20
59.081542
11
48.789067
21
59.108000
0
LINE
8
Layer 1
10
48.789067
20
59.108000
11
48.789100
21
59.108000
0
LINE
8
Layer 1
10
48.789100
20
59.108000
11
48.894900
21
59.108000
0
LINE
8
Layer 1
10
50.561800
20
56.356300
11
49.847426
21
55.747759
0
LINE
8
Layer 1
10
49.847426
20
55.747759
11
49.212427
21
55.324426
0
LINE
8
Layer 1
10
49.212427
20
55.324426
11
48.656803
21
55.059843
0
LINE
8
Layer 1
10
48.656803
20
55.059843
11
48.207012
21
54.980468
0
LINE
8
Layer 1
10
48.207012
20
54.980468
11
47.995346
21
55.006926
0
LINE
8
Layer 1
10
47.995346
20
55.006926
11
47.836596
21
55.086301
0
LINE
8
Layer 1
10
47.836596
20
55.086301
11
47.730763
21
55.245051
0
LINE
8
Layer 1
10
47.730763
20
55.245051
11
47.704305
21
55.456717
0
LINE
8
Layer 1
10
47.704305
20
55.456717
11
47.757221
21
55.827133
0
LINE
8
Layer 1
10
47.757221
20
55.827133
11
47.942429
21
56.224008
0
LINE
8
Layer 1
10
47.942429
20
56.224008
11
48.233470
21
56.647341
0
LINE
8
Layer 1
10
48.233470
20
56.647341
11
48.603886
21
57.017757
0
LINE
8
Layer 1
10
48.603886
20
57.017757
11
49.000761
21
57.335257
0
LINE
8
Layer 1
10
49.000761
20
57.335257
11
49.424094
21
57.599840
0
LINE
8
Layer 1
10
49.424094
20
57.599840
11
49.847427
21
57.758590
0
LINE
8
Layer 1
10
49.847427
20
57.758590
11
50.191385
21
57.811507
0
LINE
8
Layer 1
10
50.191385
20
57.811507
11
50.376593
21
57.785049
0
LINE
8
Layer 1
10
50.376593
20
57.785049
11
50.535343
21
57.705674
0
LINE
8
Layer 1
10
50.535343
20
57.705674
11
50.641176
21
57.573382
0
LINE
8
Layer 1
10
50.641176
20
57.573382
11
50.667635
21
57.414632
0
LINE
8
Layer 1
10
50.667635
20
57.414632
11
50.641176
21
57.229424
0
LINE
8
Layer 1
10
50.641176
20
57.229424
11
50.535343
21
57.070674
0
LINE
8
Layer 1
10
50.535343
20
57.070674
11
50.376593
21
56.938382
0
LINE
8
Layer 1
10
50.376593
20
56.938382
11
50.191385
21
56.885465
0
LINE
8
Layer 1
10
50.191385
20
56.885465
11
50.112010
21
56.885465
0
LINE
8
Layer 1
10
50.112010
20
56.885465
11
50.032636
21
56.911923
0
LINE
8
Layer 1
10
50.032636
20
56.911923
11
49.979719
21
56.964840
0
LINE
8
Layer 1
10
49.979719
20
56.964840
11
49.953261
21
57.044215
0
LINE
8
Layer 1
10
49.953261
20
57.044215
11
49.979719
21
57.123590
0
LINE
8
Layer 1
10
49.979719
20
57.123590
11
50.032636
21
57.176506
0
LINE
8
Layer 1
10
50.032636
20
57.176506
11
50.085552
21
57.229423
0
LINE
8
Layer 1
10
50.085552
20
57.229423
11
50.164927
21
57.255881
0
LINE
8
Layer 1
10
50.164927
20
57.255881
11
50.217844
21
57.255881
0
LINE
8
Layer 1
10
50.217844
20
57.255881
11
50.270760
21
57.282340
0
LINE
8
Layer 1
10
50.270760
20
57.282340
11
50.429510
21
57.335256
0
LINE
8
Layer 1
10
50.429510
20
57.335256
11
50.482427
21
57.414631
0
LINE
8
Layer 1
10
50.482427
20
57.414631
11
50.455969
21
57.467548
0
LINE
8
Layer 1
10
50.455969
20
57.467548
11
50.403052
21
57.520464
0
LINE
8
Layer 1
10
50.403052
20
57.520464
11
50.350135
21
57.546923
0
LINE
8
Layer 1
10
50.350135
20
57.546923
11
50.270760
21
57.573381
0
LINE
8
Layer 1
10
50.270760
20
57.573381
11
49.953260
21
57.494006
0
LINE
8
Layer 1
10
49.953260
20
57.494006
11
49.529927
21
57.255881
0
LINE
8
Layer 1
10
49.529927
20
57.255881
11
49.238886
21
57.017756
0
LINE
8
Layer 1
10
49.238886
20
57.017756
11
48.947845
21
56.753173
0
LINE
8
Layer 1
10
48.947845
20
56.753173
11
48.789095
21
56.594423
0
LINE
8
Layer 1
10
48.789095
20
56.594423
11
48.630345
21
56.435673
0
LINE
8
Layer 1
10
48.630345
20
56.435673
11
48.339304
21
56.091715
0
LINE
8
Layer 1
10
48.339304
20
56.091715
11
48.127638
21
55.774215
0
LINE
8
Layer 1
10
48.127638
20
55.774215
11
47.968888
21
55.509632
0
LINE
8
Layer 1
10
47.968888
20
55.509632
11
47.915972
21
55.324424
0
LINE
8
Layer 1
10
47.915972
20
55.324424
11
47.942430
21
55.218591
0
LINE
8
Layer 1
10
47.942430
20
55.218591
11
47.995347
21
55.139216
0
LINE
8
Layer 1
10
47.995347
20
55.139216
11
48.074722
21
55.086300
0
LINE
8
Layer 1
10
48.074722
20
55.086300
11
48.207014
21
55.059841
0
LINE
8
Layer 1
10
48.207014
20
55.059841
11
48.577430
21
55.139216
0
LINE
8
Layer 1
10
48.577430
20
55.139216
11
49.080138
21
55.403799
0
LINE
8
Layer 1
10
49.080138
20
55.403799
11
49.688679
21
55.827132
0
LINE
8
Layer 1
10
49.688679
20
55.827132
11
50.376595
21
56.382756
0
LINE
8
Layer 1
10
50.376595
20
56.382756
11
50.376600
21
56.382800
0
LINE
8
Layer 1
10
50.376600
20
56.382800
11
50.561800
21
56.356300
0
LINE
8
Layer 1
10
50.561800
20
56.356300
11
50.561800
21
56.356300
0
LINE
8
Layer 1
10
53.313500
20
57.732100
11
53.789700
21
57.732100
0
LINE
8
Layer 1
10
53.789700
20
57.732100
11
52.308040
21
55.747730
0
LINE
8
Layer 1
10
52.308040
20
55.747730
11
52.308040
21
55.721272
0
LINE
8
Layer 1
10
52.308040
20
55.721272
11
52.149290
21
55.483147
0
LINE
8
Layer 1
10
52.149290
20
55.483147
11
52.096373
21
55.350856
0
LINE
8
Layer 1
10
52.096373
20
55.350856
11
52.096373
21
55.297939
0
LINE
8
Layer 1
10
52.096373
20
55.297939
11
52.122832
21
55.245022
0
LINE
8
Layer 1
10
52.122832
20
55.245022
11
52.175748
21
55.218564
0
LINE
8
Layer 1
10
52.175748
20
55.218564
11
52.255123
21
55.218564
0
LINE
8
Layer 1
10
52.255123
20
55.218564
11
52.466789
21
55.297939
0
LINE
8
Layer 1
10
52.466789
20
55.297939
11
52.810747
21
55.509605
0
LINE
8
Layer 1
10
52.810747
20
55.509605
11
53.286996
21
55.853563
0
LINE
8
Layer 1
10
53.286996
20
55.853563
11
53.842620
21
56.329812
0
LINE
8
Layer 1
10
53.842620
20
56.329812
11
53.948453
21
56.223979
0
LINE
8
Layer 1
10
53.948453
20
56.223979
11
53.392829
21
55.721271
0
LINE
8
Layer 1
10
53.392829
20
55.721271
11
52.890121
21
55.350855
0
LINE
8
Layer 1
10
52.890121
20
55.350855
11
52.493246
21
55.139189
0
LINE
8
Layer 1
10
52.493246
20
55.139189
11
52.175746
21
55.059814
0
LINE
8
Layer 1
10
52.175746
20
55.059814
11
52.043454
21
55.086273
0
LINE
8
Layer 1
10
52.043454
20
55.086273
11
51.937621
21
55.139189
0
LINE
8
Layer 1
10
51.937621
20
55.139189
11
51.858246
21
55.245022
0
LINE
8
Layer 1
10
51.858246
20
55.245022
11
51.831788
21
55.403772
0
LINE
8
Layer 1
10
51.831788
20
55.403772
11
51.831788
21
55.483147
0
LINE
8
Layer 1
10
51.831788
20
55.483147
11
51.858246
21
55.588980
0
LINE
8
Layer 1
10
51.858246
20
55.588980
11
51.884705
21
55.694813
0
LINE
8
Layer 1
10
51.884705
20
55.694813
11
51.911163
21
55.827104
0
LINE
8
Layer 1
10
51.911163
20
55.827104
11
51.646580
21
55.588979
0
LINE
8
Layer 1
10
51.646580
20
55.588979
11
51.381997
21
55.377313
0
LINE
8
Layer 1
10
51.381997
20
55.377313
11
51.249705
21
55.297938
0
LINE
8
Layer 1
10
51.249705
20
55.297938
11
51.117413
21
55.218563
0
LINE
8
Layer 1
10
51.117413
20
55.218563
11
50.746997
21
55.086271
0
LINE
8
Layer 1
10
50.746997
20
55.086271
11
50.429497
21
55.033355
0
LINE
8
Layer 1
10
50.429497
20
55.033355
11
50.244289
21
55.059813
0
LINE
8
Layer 1
10
50.244289
20
55.059813
11
50.111997
21
55.139188
0
LINE
8
Layer 1
10
50.111997
20
55.139188
11
50.032622
21
55.271480
0
LINE
8
Layer 1
10
50.032622
20
55.271480
11
50.006164
21
55.456688
0
LINE
8
Layer 1
10
50.006164
20
55.456688
11
50.085539
21
55.880021
0
LINE
8
Layer 1
10
50.085539
20
55.880021
11
50.323664
21
56.329812
0
LINE
8
Layer 1
10
50.323664
20
56.329812
11
50.667622
21
56.779603
0
LINE
8
Layer 1
10
50.667622
20
56.779603
11
51.143871
21
57.176478
0
LINE
8
Layer 1
10
51.143871
20
57.176478
11
51.540745
21
57.441061
0
LINE
8
Layer 1
10
51.540745
20
57.441061
11
51.937620
21
57.652727
0
LINE
8
Layer 1
10
51.937620
20
57.652727
11
52.334495
21
57.785019
0
LINE
8
Layer 1
10
52.334495
20
57.785019
11
52.678453
21
57.837935
0
LINE
8
Layer 1
10
52.678453
20
57.837935
11
52.863661
21
57.811477
0
LINE
8
Layer 1
10
52.863661
20
57.811477
11
52.995953
21
57.732102
0
LINE
8
Layer 1
10
52.995953
20
57.732102
11
53.075328
21
57.626269
0
LINE
8
Layer 1
10
53.075328
20
57.626269
11
53.101786
21
57.467519
0
LINE
8
Layer 1
10
53.101786
20
57.467519
11
53.101800
21
57.388200
0
LINE
8
Layer 1
10
53.101800
20
57.388200
11
53.313500
21
57.732100
0
LINE
8
Layer 1
10
53.313500
20
57.732100
11
53.313500
21
57.732100
0
LINE
8
Layer 1
10
52.413900
20
57.599800
11
52.096400
21
57.414592
0
LINE
8
Layer 1
10
52.096400
20
57.414592
11
51.725984
21
57.123551
0
LINE
8
Layer 1
10
51.725984
20
57.123551
11
51.329110
21
56.753135
0
LINE
8
Layer 1
10
51.329110
20
56.753135
11
50.905777
21
56.303344
0
LINE
8
Layer 1
10
50.905777
20
56.303344
11
50.588277
21
55.906469
0
LINE
8
Layer 1
10
50.588277
20
55.906469
11
50.403069
21
55.588969
0
LINE
8
Layer 1
10
50.403069
20
55.588969
11
50.323694
21
55.350844
0
LINE
8
Layer 1
10
50.323694
20
55.350844
11
50.350152
21
55.297927
0
LINE
8
Layer 1
10
50.350152
20
55.297927
11
50.376611
21
55.245011
0
LINE
8
Layer 1
10
50.376611
20
55.245011
11
50.429527
21
55.218552
0
LINE
8
Layer 1
10
50.429527
20
55.218552
11
50.508902
21
55.218552
0
LINE
8
Layer 1
10
50.508902
20
55.218552
11
50.799943
21
55.271469
0
LINE
8
Layer 1
10
50.799943
20
55.271469
11
51.170359
21
55.456677
0
LINE
8
Layer 1
10
51.170359
20
55.456677
11
51.567234
21
55.774177
0
LINE
8
Layer 1
10
51.567234
20
55.774177
11
51.990567
21
56.171051
0
LINE
8
Layer 1
10
51.990567
20
56.171051
11
52.360983
21
56.567925
0
LINE
8
Layer 1
10
52.360983
20
56.567925
11
52.652024
21
56.938341
0
LINE
8
Layer 1
10
52.652024
20
56.938341
11
52.810774
21
57.229382
0
LINE
8
Layer 1
10
52.810774
20
57.229382
11
52.863691
21
57.441048
0
LINE
8
Layer 1
10
52.863691
20
57.441048
11
52.863691
21
57.520423
0
LINE
8
Layer 1
10
52.863691
20
57.520423
11
52.810774
21
57.573340
0
LINE
8
Layer 1
10
52.810774
20
57.573340
11
52.731399
21
57.626256
0
LINE
8
Layer 1
10
52.731399
20
57.626256
11
52.625566
21
57.652715
0
LINE
8
Layer 1
10
52.625566
20
57.652715
11
52.625600
21
57.652800
0
LINE
8
Layer 1
10
52.625600
20
57.652800
11
52.413900
21
57.599800
0
LINE
8
Layer 1
10
56.594300
20
59.187300
11
55.959301
21
58.340634
0
LINE
8
Layer 1
10
55.959301
20
58.340634
11
56.832400
21
58.340700
0
LINE
8
Layer 1
10
56.832400
20
58.340700
11
56.700108
21
58.155492
0
LINE
8
Layer 1
10
56.700108
20
58.155492
11
55.827000
21
58.155500
0
LINE
8
Layer 1
10
55.827000
20
58.155500
11
54.027840
21
55.747790
0
LINE
8
Layer 1
10
54.027840
20
55.747790
11
54.001382
21
55.668415
0
LINE
8
Layer 1
10
54.001382
20
55.668415
11
53.948465
21
55.589040
0
LINE
8
Layer 1
10
53.948465
20
55.589040
11
53.922007
21
55.509665
0
LINE
8
Layer 1
10
53.922007
20
55.509665
11
53.895548
21
55.456749
0
LINE
8
Layer 1
10
53.895548
20
55.456749
11
53.842632
21
55.350916
0
LINE
8
Layer 1
10
53.842632
20
55.350916
11
53.816174
21
55.271541
0
LINE
8
Layer 1
10
53.816174
20
55.271541
11
53.816174
21
55.218624
0
LINE
8
Layer 1
10
53.816174
20
55.218624
11
53.842632
21
55.192166
0
LINE
8
Layer 1
10
53.842632
20
55.192166
11
53.895548
21
55.165708
0
LINE
8
Layer 1
10
53.895548
20
55.165708
11
53.974923
21
55.165708
0
LINE
8
Layer 1
10
53.974923
20
55.165708
11
54.213048
21
55.245083
0
LINE
8
Layer 1
10
54.213048
20
55.245083
11
54.557006
21
55.456749
0
LINE
8
Layer 1
10
54.557006
20
55.456749
11
54.980339
21
55.800707
0
LINE
8
Layer 1
10
54.980339
20
55.800707
11
55.483047
21
56.250498
0
LINE
8
Layer 1
10
55.483047
20
56.250498
11
55.588880
21
56.171123
0
LINE
8
Layer 1
10
55.588880
20
56.171123
11
55.086172
21
55.668415
0
LINE
8
Layer 1
10
55.086172
20
55.668415
11
54.636381
21
55.297999
0
LINE
8
Layer 1
10
54.636381
20
55.297999
11
54.213048
21
55.086333
0
LINE
8
Layer 1
10
54.213048
20
55.086333
11
53.869090
21
55.006958
0
LINE
8
Layer 1
10
53.869090
20
55.006958
11
53.736798
21
55.033416
0
LINE
8
Layer 1
10
53.736798
20
55.033416
11
53.630965
21
55.112791
0
LINE
8
Layer 1
10
53.630965
20
55.112791
11
53.551590
21
55.218624
0
LINE
8
Layer 1
10
53.551590
20
55.218624
11
53.525132
21
55.350916
0
LINE
8
Layer 1
10
53.525132
20
55.350916
11
53.551590
21
55.589041
0
LINE
8
Layer 1
10
53.551590
20
55.589041
11
53.657423
21
55.880082
0
LINE
8
Layer 1
10
53.657423
20
55.880082
11
53.816173
21
56.197582
0
LINE
8
Layer 1
10
53.816173
20
56.197582
11
54.027839
21
56.541540
0
LINE
8
Layer 1
10
54.027839
20
56.541540
11
55.218459
21
58.155500
0
LINE
8
Layer 1
10
55.218459
20
58.155500
11
54.583500
21
58.155500
0
LINE
8
Layer 1
10
54.583500
20
58.155500
11
54.768700
21
58.340700
0
LINE
8
Layer 1
10
54.768700
20
58.340700
11
55.403700
21
58.340700
0
LINE
8
Layer 1
10
55.403700
20
58.340700
11
56.038699
21
59.187366
0
LINE
8
Layer 1
10
56.038699
20
59.187366
11
56.594300
21
59.187300
0
LINE
8
Layer 1
10
56.594300
20
59.187300
11
56.594300
21
59.187300
0
LINE
8
Layer 1
10
55.800600
20
55.959400
11
55.641850
21
55.721275
0
LINE
8
Layer 1
10
55.641850
20
55.721275
11
55.562475
21
55.536067
0
LINE
8
Layer 1
10
55.562475
20
55.536067
11
55.536017
21
55.403775
0
LINE
8
Layer 1
10
55.536017
20
55.403775
11
55.562475
21
55.297942
0
LINE
8
Layer 1
10
55.562475
20
55.297942
11
55.615392
21
55.218567
0
LINE
8
Layer 1
10
55.615392
20
55.218567
11
55.721225
21
55.165651
0
LINE
8
Layer 1
10
55.721225
20
55.165651
11
55.853517
21
55.139192
0
LINE
8
Layer 1
10
55.853517
20
55.139192
11
56.276850
21
55.218567
0
LINE
8
Layer 1
10
56.276850
20
55.218567
11
56.806016
21
55.430233
0
LINE
8
Layer 1
10
56.806016
20
55.430233
11
57.361640
21
55.774191
0
LINE
8
Layer 1
10
57.361640
20
55.774191
11
57.970181
21
56.223982
0
LINE
8
Layer 1
10
57.970181
20
56.223982
11
58.049556
21
56.091690
0
LINE
8
Layer 1
10
58.049556
20
56.091690
11
57.414557
21
55.588982
0
LINE
8
Layer 1
10
57.414557
20
55.588982
11
56.806016
21
55.218566
0
LINE
8
Layer 1
10
56.806016
20
55.218566
11
56.250392
21
55.006900
0
LINE
8
Layer 1
10
56.250392
20
55.006900
11
55.800601
21
54.927525
0
LINE
8
Layer 1
10
55.800601
20
54.927525
11
55.588935
21
54.953984
0
LINE
8
Layer 1
10
55.588935
20
54.953984
11
55.430185
21
55.059817
0
LINE
8
Layer 1
10
55.430185
20
55.059817
11
55.324352
21
55.218567
0
LINE
8
Layer 1
10
55.324352
20
55.218567
11
55.271435
21
55.430233
0
LINE
8
Layer 1
10
55.271435
20
55.430233
11
55.350810
21
55.827106
0
LINE
8
Layer 1
10
55.350810
20
55.827106
11
55.562476
21
56.250439
0
LINE
8
Layer 1
10
55.562476
20
56.250439
11
55.879976
21
56.673772
0
LINE
8
Layer 1
10
55.879976
20
56.673772
11
56.329767
21
57.097105
0
LINE
8
Layer 1
10
56.329767
20
57.097105
11
56.726642
21
57.388146
0
LINE
8
Layer 1
10
56.726642
20
57.388146
11
57.123516
21
57.599812
0
LINE
8
Layer 1
10
57.123516
20
57.599812
11
57.520391
21
57.758562
0
LINE
8
Layer 1
10
57.520391
20
57.758562
11
57.864349
21
57.811479
0
LINE
8
Layer 1
10
57.864349
20
57.811479
11
58.023099
21
57.785021
0
LINE
8
Layer 1
10
58.023099
20
57.785021
11
58.128932
21
57.732104
0
LINE
8
Layer 1
10
58.128932
20
57.732104
11
58.208307
21
57.652729
0
LINE
8
Layer 1
10
58.208307
20
57.652729
11
58.234765
21
57.546896
0
LINE
8
Layer 1
10
58.234765
20
57.546896
11
58.076015
21
57.202938
0
LINE
8
Layer 1
10
58.076015
20
57.202938
11
57.599766
21
56.806063
0
LINE
8
Layer 1
10
57.599766
20
56.806063
11
56.885392
21
56.462105
0
LINE
8
Layer 1
10
56.885392
20
56.462105
11
55.985810
21
56.171064
0
LINE
8
Layer 1
10
55.985810
20
56.171064
11
55.985810
21
56.171064
0
LINE
8
Layer 1
10
55.985810
20
56.171064
11
55.800600
21
55.959400
0
LINE
8
Layer 1
10
56.911800
20
56.700300
11
57.493883
21
57.017800
0
LINE
8
Layer 1
10
57.493883
20
57.017800
11
57.890758
21
57.335300
0
LINE
8
Layer 1
10
57.890758
20
57.335300
11
58.023050
21
57.573425
0
LINE
8
Layer 1
10
58.023050
20
57.573425
11
58.023050
21
57.626342
0
LINE
8
Layer 1
10
58.023050
20
57.626342
11
57.996592
21
57.652800
0
LINE
8
Layer 1
10
57.996592
20
57.652800
11
57.943675
21
57.679258
0
LINE
8
Layer 1
10
57.943675
20
57.679258
11
57.864300
21
57.679258
0
LINE
8
Layer 1
10
57.864300
20
57.679258
11
57.546800
21
57.599883
0
LINE
8
Layer 1
10
57.546800
20
57.599883
11
57.149925
21
57.361758
0
LINE
8
Layer 1
10
57.149925
20
57.361758
11
56.700134
21
56.964884
0
LINE
8
Layer 1
10
56.700134
20
56.964884
11
56.223885
21
56.462176
0
LINE
8
Layer 1
10
56.223885
20
56.462176
11
56.223885
21
56.462176
0
LINE
8
Layer 1
10
56.223885
20
56.462176
11
56.911800
21
56.700300
0
LINE
8
Layer 1
10
63.552800
20
60.378000
11
60.033850
21
55.747800
0
LINE
8
Layer 1
10
60.033850
20
55.747800
11
60.033850
21
55.721342
0
LINE
8
Layer 1
10
60.033850
20
55.721342
11
59.875100
21
55.483217
0
LINE
8
Layer 1
10
59.875100
20
55.483217
11
59.822183
21
55.350926
0
LINE
8
Layer 1
10
59.822183
20
55.350926
11
59.822183
21
55.298009
0
LINE
8
Layer 1
10
59.822183
20
55.298009
11
59.848642
21
55.245092
0
LINE
8
Layer 1
10
59.848642
20
55.245092
11
59.901558
21
55.218634
0
LINE
8
Layer 1
10
59.901558
20
55.218634
11
59.980933
21
55.218634
0
LINE
8
Layer 1
10
59.980933
20
55.218634
11
60.219058
21
55.298009
0
LINE
8
Layer 1
10
60.219058
20
55.298009
11
60.563016
21
55.509675
0
LINE
8
Layer 1
10
60.563016
20
55.509675
11
61.039265
21
55.853633
0
LINE
8
Layer 1
10
61.039265
20
55.853633
11
61.594889
21
56.329882
0
LINE
8
Layer 1
10
61.594889
20
56.329882
11
61.700722
21
56.224049
0
LINE
8
Layer 1
10
61.700722
20
56.224049
11
61.145098
21
55.721341
0
LINE
8
Layer 1
10
61.145098
20
55.721341
11
60.642390
21
55.350925
0
LINE
8
Layer 1
10
60.642390
20
55.350925
11
60.245515
21
55.139259
0
LINE
8
Layer 1
10
60.245515
20
55.139259
11
59.928015
21
55.059884
0
LINE
8
Layer 1
10
59.928015
20
55.059884
11
59.795724
21
55.086343
0
LINE
8
Layer 1
10
59.795724
20
55.086343
11
59.689891
21
55.139259
0
LINE
8
Layer 1
10
59.689891
20
55.139259
11
59.610516
21
55.245092
0
LINE
8
Layer 1
10
59.610516
20
55.245092
11
59.584058
21
55.403842
0
LINE
8
Layer 1
10
59.584058
20
55.403842
11
59.584058
21
55.483217
0
LINE
8
Layer 1
10
59.584058
20
55.483217
11
59.610516
21
55.562592
0
LINE
8
Layer 1
10
59.610516
20
55.562592
11
59.636975
21
55.668425
0
LINE
8
Layer 1
10
59.636975
20
55.668425
11
59.689891
21
55.827175
0
LINE
8
Layer 1
10
59.689891
20
55.827175
11
59.372391
21
55.562592
0
LINE
8
Layer 1
10
59.372391
20
55.562592
11
59.081350
21
55.350926
0
LINE
8
Layer 1
10
59.081350
20
55.350926
11
58.975517
21
55.298009
0
LINE
8
Layer 1
10
58.975517
20
55.298009
11
58.869684
21
55.245093
0
LINE
8
Layer 1
10
58.869684
20
55.245093
11
58.499268
21
55.112801
0
LINE
8
Layer 1
10
58.499268
20
55.112801
11
58.181768
21
55.059884
0
LINE
8
Layer 1
10
58.181768
20
55.059884
11
57.996560
21
55.086342
0
LINE
8
Layer 1
10
57.996560
20
55.086342
11
57.837810
21
55.165717
0
LINE
8
Layer 1
10
57.837810
20
55.165717
11
57.758435
21
55.298009
0
LINE
8
Layer 1
10
57.758435
20
55.298009
11
57.731977
21
55.483217
0
LINE
8
Layer 1
10
57.731977
20
55.483217
11
57.811352
21
55.906550
0
LINE
8
Layer 1
10
57.811352
20
55.906550
11
58.049477
21
56.356341
0
LINE
8
Layer 1
10
58.049477
20
56.356341
11
58.419893
21
56.806132
0
LINE
8
Layer 1
10
58.419893
20
56.806132
11
58.896142
21
57.229465
0
LINE
8
Layer 1
10
58.896142
20
57.229465
11
59.293017
21
57.494048
0
LINE
8
Layer 1
10
59.293017
20
57.494048
11
59.689891
21
57.705714
0
LINE
8
Layer 1
10
59.689891
20
57.705714
11
60.086766
21
57.838005
0
LINE
8
Layer 1
10
60.086766
20
57.838005
11
60.404266
21
57.890922
0
LINE
8
Layer 1
10
60.404266
20
57.890922
11
60.589474
21
57.864464
0
LINE
8
Layer 1
10
60.589474
20
57.864464
11
60.721766
21
57.785089
0
LINE
8
Layer 1
10
60.721766
20
57.785089
11
60.801141
21
57.679256
0
LINE
8
Layer 1
10
60.801141
20
57.679256
11
60.827599
21
57.520506
0
LINE
8
Layer 1
10
60.827599
20
57.520506
11
60.827600
21
57.494000
0
LINE
8
Layer 1
10
60.827600
20
57.494000
11
60.827600
21
57.467500
0
LINE
8
Layer 1
10
60.827600
20
57.467500
11
60.827600
21
57.441100
0
LINE
8
Layer 1
10
60.827600
20
57.441100
11
60.827600
21
57.414600
0
LINE
8
Layer 1
10
60.827600
20
57.414600
11
60.827600
21
57.388142
0
LINE
8
Layer 1
10
60.827600
20
57.388142
11
60.827600
21
57.388200
0
LINE
8
Layer 1
10
60.827600
20
57.388200
11
63.076560
21
60.377990
0
LINE
8
Layer 1
10
63.076560
20
60.377990
11
63.552800
21
60.378000
0
LINE
8
Layer 1
10
63.552800
20
60.378000
11
63.552800
21
60.378000
0
LINE
8
Layer 1
10
58.552200
20
55.271500
11
58.949075
21
55.483166
0
LINE
8
Layer 1
10
58.949075
20
55.483166
11
59.187200
21
55.641916
0
LINE
8
Layer 1
10
59.187200
20
55.641916
11
59.398866
21
55.827124
0
LINE
8
Layer 1
10
59.398866
20
55.827124
11
59.610532
21
56.038790
0
LINE
8
Layer 1
10
59.610532
20
56.038790
11
59.848657
21
56.276915
0
LINE
8
Layer 1
10
59.848657
20
56.276915
11
60.166157
21
56.647331
0
LINE
8
Layer 1
10
60.166157
20
56.647331
11
60.404282
21
56.991289
0
LINE
8
Layer 1
10
60.404282
20
56.991289
11
60.563032
21
57.255872
0
LINE
8
Layer 1
10
60.563032
20
57.255872
11
60.615949
21
57.467538
0
LINE
8
Layer 1
10
60.615949
20
57.467538
11
60.589490
21
57.546913
0
LINE
8
Layer 1
10
60.589490
20
57.546913
11
60.536574
21
57.599830
0
LINE
8
Layer 1
10
60.536574
20
57.599830
11
60.457199
21
57.652746
0
LINE
8
Layer 1
10
60.457199
20
57.652746
11
60.377824
21
57.679204
0
LINE
8
Layer 1
10
60.377824
20
57.679204
11
60.086783
21
57.599830
0
LINE
8
Layer 1
10
60.086783
20
57.599830
11
59.716367
21
57.388164
0
LINE
8
Layer 1
10
59.716367
20
57.388164
11
59.319492
21
57.070664
0
LINE
8
Layer 1
10
59.319492
20
57.070664
11
58.896159
21
56.620873
0
LINE
8
Layer 1
10
58.896159
20
56.620873
11
58.525743
21
56.197540
0
LINE
8
Layer 1
10
58.525743
20
56.197540
11
58.261160
21
55.853582
0
LINE
8
Layer 1
10
58.261160
20
55.853582
11
58.102410
21
55.588999
0
LINE
8
Layer 1
10
58.102410
20
55.588999
11
58.049493
21
55.377333
0
LINE
8
Layer 1
10
58.049493
20
55.377333
11
58.075952
21
55.324416
0
LINE
8
Layer 1
10
58.075952
20
55.324416
11
58.128868
21
55.271499
0
LINE
8
Layer 1
10
58.128868
20
55.271499
11
58.181785
21
55.245041
0
LINE
8
Layer 1
10
58.181785
20
55.245041
11
58.261160
21
55.245041
0
LINE
8
Layer 1
10
58.261160
20
55.245041
11
58.261160
21
55.245041
0
LINE
8
Layer 1
10
58.261160
20
55.245041
11
58.552200
21
55.271500
0
LINE
8
Layer 1
10
65.669500
20
59.187300
11
65.034501
21
58.340634
0
LINE
8
Layer 1
10
65.034501
20
58.340634
11
65.907600
21
58.340700
0
LINE
8
Layer 1
10
65.907600
20
58.340700
11
65.775308
21
58.155492
0
LINE
8
Layer 1
10
65.775308
20
58.155492
11
64.902200
21
58.155500
0
LINE
8
Layer 1
10
64.902200
20
58.155500
11
63.103040
21
55.747790
0
LINE
8
Layer 1
10
63.103040
20
55.747790
11
63.076582
21
55.668415
0
LINE
8
Layer 1
10
63.076582
20
55.668415
11
63.023665
21
55.589040
0
LINE
8
Layer 1
10
63.023665
20
55.589040
11
62.997207
21
55.509665
0
LINE
8
Layer 1
10
62.997207
20
55.509665
11
62.970748
21
55.456749
0
LINE
8
Layer 1
10
62.970748
20
55.456749
11
62.917832
21
55.350916
0
LINE
8
Layer 1
10
62.917832
20
55.350916
11
62.891374
21
55.271541
0
LINE
8
Layer 1
10
62.891374
20
55.271541
11
62.891374
21
55.218624
0
LINE
8
Layer 1
10
62.891374
20
55.218624
11
62.917832
21
55.192166
0
LINE
8
Layer 1
10
62.917832
20
55.192166
11
62.970748
21
55.165708
0
LINE
8
Layer 1
10
62.970748
20
55.165708
11
63.050123
21
55.165708
0
LINE
8
Layer 1
10
63.050123
20
55.165708
11
63.288248
21
55.245083
0
LINE
8
Layer 1
10
63.288248
20
55.245083
11
63.632206
21
55.456749
0
LINE
8
Layer 1
10
63.632206
20
55.456749
11
64.055539
21
55.800707
0
LINE
8
Layer 1
10
64.055539
20
55.800707
11
64.558247
21
56.250498
0
LINE
8
Layer 1
10
64.558247
20
56.250498
11
64.664080
21
56.171123
0
LINE
8
Layer 1
10
64.664080
20
56.171123
11
64.161372
21
55.668415
0
LINE
8
Layer 1
10
64.161372
20
55.668415
11
63.711581
21
55.297999
0
LINE
8
Layer 1
10
63.711581
20
55.297999
11
63.288248
21
55.086333
0
LINE
8
Layer 1
10
63.288248
20
55.086333
11
62.944290
21
55.006958
0
LINE
8
Layer 1
10
62.944290
20
55.006958
11
62.811998
21
55.033416
0
LINE
8
Layer 1
10
62.811998
20
55.033416
11
62.706165
21
55.112791
0
LINE
8
Layer 1
10
62.706165
20
55.112791
11
62.626790
21
55.218624
0
LINE
8
Layer 1
10
62.626790
20
55.218624
11
62.600332
21
55.350916
0
LINE
8
Layer 1
10
62.600332
20
55.350916
11
62.626790
21
55.589041
0
LINE
8
Layer 1
10
62.626790
20
55.589041
11
62.732623
21
55.880082
0
LINE
8
Layer 1
10
62.732623
20
55.880082
11
62.891373
21
56.197582
0
LINE
8
Layer 1
10
62.891373
20
56.197582
11
63.103039
21
56.541540
0
LINE
8
Layer 1
10
63.103039
20
56.541540
11
64.293659
21
58.155500
0
LINE
8
Layer 1
10
64.293659
20
58.155500
11
63.658700
21
58.155500
0
LINE
8
Layer 1
10
63.658700
20
58.155500
11
63.790992
21
58.340708
0
LINE
8
Layer 1
10
63.790992
20
58.340708
11
64.426000
21
58.340700
0
LINE
8
Layer 1
10
64.426000
20
58.340700
11
65.060999
21
59.187366
0
LINE
8
Layer 1
10
65.060999
20
59.187366
11
65.669500
21
59.187300
0
LINE
8
Layer 1
10
65.669500
20
59.187300
11
65.669500
21
59.187300
0
LINE
8
Layer 1
10
67.098200
20
56.382800
11
67.177575
21
56.356342
0
LINE
8
Layer 1
10
67.177575
20
56.356342
11
67.230492
21
56.356342
0
LINE
8
Layer 1
10
67.230492
20
56.356342
11
67.283408
21
56.356342
0
LINE
8
Layer 1
10
67.283408
20
56.356342
11
67.336325
21
56.356342
0
LINE
8
Layer 1
10
67.336325
20
56.356342
11
67.389300
21
56.356300
0
LINE
8
Layer 1
10
67.389300
20
56.356300
11
67.495133
21
56.356300
0
LINE
8
Layer 1
10
67.495133
20
56.356300
11
67.600966
21
56.382758
0
LINE
8
Layer 1
10
67.600966
20
56.382758
11
67.706799
21
56.409217
0
LINE
8
Layer 1
10
67.706799
20
56.409217
11
67.812632
21
56.462133
0
LINE
8
Layer 1
10
67.812632
20
56.462133
11
67.865549
21
56.356300
0
LINE
8
Layer 1
10
67.865549
20
56.356300
11
67.759716
21
56.276925
0
LINE
8
Layer 1
10
67.759716
20
56.276925
11
67.627425
21
56.224009
0
LINE
8
Layer 1
10
67.627425
20
56.224009
11
67.495133
21
56.197550
0
LINE
8
Layer 1
10
67.495133
20
56.197550
11
67.336383
21
56.197550
0
LINE
8
Layer 1
10
67.336383
20
56.197550
11
67.230550
21
56.197550
0
LINE
8
Layer 1
10
67.230550
20
56.197550
11
67.124717
21
56.224009
0
LINE
8
Layer 1
10
67.124717
20
56.224009
11
67.071800
21
56.250467
0
LINE
8
Layer 1
10
67.071800
20
56.250467
11
67.018883
21
56.276925
0
LINE
8
Layer 1
10
67.018883
20
56.276925
11
66.965967
21
56.303384
0
LINE
8
Layer 1
10
66.965967
20
56.303384
11
66.913050
21
56.329842
0
LINE
8
Layer 1
10
66.913050
20
56.329842
11
66.595550
21
55.932967
0
LINE
8
Layer 1
10
66.595550
20
55.932967
11
66.251592
21
55.589009
0
LINE
8
Layer 1
10
66.251592
20
55.589009
11
66.092842
21
55.456717
0
LINE
8
Layer 1
10
66.092842
20
55.456717
11
65.934092
21
55.324425
0
LINE
8
Layer 1
10
65.934092
20
55.324425
11
65.431384
21
55.059842
0
LINE
8
Layer 1
10
65.431384
20
55.059842
11
64.981593
21
54.980467
0
LINE
8
Layer 1
10
64.981593
20
54.980467
11
64.769927
21
55.006925
0
LINE
8
Layer 1
10
64.769927
20
55.006925
11
64.611177
21
55.086300
0
LINE
8
Layer 1
10
64.611177
20
55.086300
11
64.505344
21
55.245050
0
LINE
8
Layer 1
10
64.505344
20
55.245050
11
64.478886
21
55.430258
0
LINE
8
Layer 1
10
64.478886
20
55.430258
11
64.558261
21
55.800674
0
LINE
8
Layer 1
10
64.558261
20
55.800674
11
64.769927
21
56.224007
0
LINE
8
Layer 1
10
64.769927
20
56.224007
11
65.087427
21
56.647340
0
LINE
8
Layer 1
10
65.087427
20
56.647340
11
65.510760
21
57.044215
0
LINE
8
Layer 1
10
65.510760
20
57.044215
11
65.854718
21
57.308798
0
LINE
8
Layer 1
10
65.854718
20
57.308798
11
66.172218
21
57.520464
0
LINE
8
Layer 1
10
66.172218
20
57.520464
11
66.251593
21
57.573381
0
LINE
8
Layer 1
10
66.251593
20
57.573381
11
66.330968
21
57.626297
0
LINE
8
Layer 1
10
66.330968
20
57.626297
11
66.727842
21
57.785047
0
LINE
8
Layer 1
10
66.727842
20
57.785047
11
67.071800
21
57.837964
0
LINE
8
Layer 1
10
67.071800
20
57.837964
11
67.230550
21
57.811506
0
LINE
8
Layer 1
10
67.230550
20
57.811506
11
67.362842
21
57.732131
0
LINE
8
Layer 1
10
67.362842
20
57.732131
11
67.442217
21
57.626298
0
LINE
8
Layer 1
10
67.442217
20
57.626298
11
67.468675
21
57.494007
0
LINE
8
Layer 1
10
67.468675
20
57.494007
11
67.442217
21
57.282341
0
LINE
8
Layer 1
10
67.442217
20
57.282341
11
67.362842
21
57.017758
0
LINE
8
Layer 1
10
67.362842
20
57.017758
11
67.230550
21
56.726717
0
LINE
8
Layer 1
10
67.230550
20
56.726717
11
67.045342
21
56.435676
0
LINE
8
Layer 1
10
67.045342
20
56.435676
11
67.045300
21
56.435700
0
LINE
8
Layer 1
10
67.045300
20
56.435700
11
67.098200
21
56.382800
0
LINE
8
Layer 1
10
67.230500
20
57.308800
11
67.230500
21
57.308800
0
LINE
8
Layer 1
10
67.230500
20
57.308800
11
67.230500
21
57.335258
0
LINE
8
Layer 1
10
67.230500
20
57.335258
11
67.230500
21
57.361700
0
LINE
8
Layer 1
10
67.230500
20
57.361700
11
67.230500
21
57.388200
0
LINE
8
Layer 1
10
67.230500
20
57.388200
11
67.230500
21
57.414658
0
LINE
8
Layer 1
10
67.230500
20
57.414658
11
67.230500
21
57.441100
0
LINE
8
Layer 1
10
67.230500
20
57.441100
11
67.230500
21
57.467500
0
LINE
8
Layer 1
10
67.230500
20
57.467500
11
67.230500
21
57.546875
0
LINE
8
Layer 1
10
67.230500
20
57.546875
11
67.177583
21
57.626250
0
LINE
8
Layer 1
10
67.177583
20
57.626250
11
67.124667
21
57.679166
0
LINE
8
Layer 1
10
67.124667
20
57.679166
11
67.045292
21
57.705625
0
LINE
8
Layer 1
10
67.045292
20
57.705625
11
66.780709
21
57.652708
0
LINE
8
Layer 1
10
66.780709
20
57.652708
11
66.463209
21
57.467500
0
LINE
8
Layer 1
10
66.463209
20
57.467500
11
66.092793
21
57.176459
0
LINE
8
Layer 1
10
66.092793
20
57.176459
11
65.669460
21
56.806043
0
LINE
8
Layer 1
10
65.669460
20
56.806043
11
65.272586
21
56.382710
0
LINE
8
Layer 1
10
65.272586
20
56.382710
11
64.981545
21
56.012294
0
LINE
8
Layer 1
10
64.981545
20
56.012294
11
64.796337
21
55.721253
0
LINE
8
Layer 1
10
64.796337
20
55.721253
11
64.743420
21
55.509587
0
LINE
8
Layer 1
10
64.743420
20
55.509587
11
64.769879
21
55.403754
0
LINE
8
Layer 1
10
64.769879
20
55.403754
11
64.822795
21
55.324379
0
LINE
8
Layer 1
10
64.822795
20
55.324379
11
64.928628
21
55.271463
0
LINE
8
Layer 1
10
64.928628
20
55.271463
11
65.060919
21
55.245004
0
LINE
8
Layer 1
10
65.060919
20
55.245004
11
65.431335
21
55.324379
0
LINE
8
Layer 1
10
65.431335
20
55.324379
11
65.828209
21
55.562504
0
LINE
8
Layer 1
10
65.828209
20
55.562504
11
66.278000
21
55.959378
0
LINE
8
Layer 1
10
66.278000
20
55.959378
11
66.807166
21
56.541461
0
LINE
8
Layer 1
10
66.807166
20
56.541461
11
66.807166
21
56.567919
0
LINE
8
Layer 1
10
66.807166
20
56.567919
11
66.807166
21
56.594378
0
LINE
8
Layer 1
10
66.807166
20
56.594378
11
66.780708
21
56.647294
0
LINE
8
Layer 1
10
66.780708
20
56.647294
11
66.780708
21
56.700211
0
LINE
8
Layer 1
10
66.780708
20
56.700211
11
66.754250
21
56.753128
0
LINE
8
Layer 1
10
66.754250
20
56.753128
11
66.754250
21
56.806044
0
LINE
8
Layer 1
10
66.754250
20
56.806044
11
66.754250
21
56.911877
0
LINE
8
Layer 1
10
66.754250
20
56.911877
11
66.780708
21
57.017710
0
LINE
8
Layer 1
10
66.780708
20
57.017710
11
66.833624
21
57.123543
0
LINE
8
Layer 1
10
66.833624
20
57.123543
11
66.886541
21
57.229376
0
LINE
8
Layer 1
10
66.886541
20
57.229376
11
67.045291
21
57.388126
0
LINE
8
Layer 1
10
67.045291
20
57.388126
11
67.230500
21
57.308800
0
LINE
8
Layer 1
10
67.230500
20
57.308800
11
67.230500
21
57.308800
0
LINE
8
Layer 1
10
67.230500
20
57.308800
11
67.230500
21
57.308800
0
LINE
8
Layer 1
10
67.230500
20
57.308800
11
67.230500
21
57.308800
0
LINE
8
Layer 1
10
72.178200
20
57.308800
11
72.601533
21
57.599841
0
LINE
8
Layer 1
10
72.601533
20
57.599841
11
72.998407
21
57.785049
0
LINE
8
Layer 1
10
72.998407
20
57.785049
11
73.315907
21
57.837966
0
LINE
8
Layer 1
10
73.315907
20
57.837966
11
73.474657
21
57.811507
0
LINE
8
Layer 1
10
73.474657
20
57.811507
11
73.580490
21
57.758591
0
LINE
8
Layer 1
10
73.580490
20
57.758591
11
73.659865
21
57.652758
0
LINE
8
Layer 1
10
73.659865
20
57.652758
11
73.686323
21
57.520466
0
LINE
8
Layer 1
10
73.686323
20
57.520466
11
73.659865
21
57.361716
0
LINE
8
Layer 1
10
73.659865
20
57.361716
11
73.580490
21
57.150050
0
LINE
8
Layer 1
10
73.580490
20
57.150050
11
73.448198
21
56.911925
0
LINE
8
Layer 1
10
73.448198
20
56.911925
11
73.262990
21
56.673800
0
LINE
8
Layer 1
10
73.262990
20
56.673800
11
72.442783
21
55.721301
0
LINE
8
Layer 1
10
72.442783
20
55.721301
11
72.336950
21
55.562551
0
LINE
8
Layer 1
10
72.336950
20
55.562551
11
72.257575
21
55.456718
0
LINE
8
Layer 1
10
72.257575
20
55.456718
11
72.204658
21
55.377343
0
LINE
8
Layer 1
10
72.204658
20
55.377343
11
72.178200
21
55.324426
0
LINE
8
Layer 1
10
72.178200
20
55.324426
11
72.178200
21
55.271510
0
LINE
8
Layer 1
10
72.178200
20
55.271510
11
72.204658
21
55.245051
0
LINE
8
Layer 1
10
72.204658
20
55.245051
11
72.257575
21
55.218593
0
LINE
8
Layer 1
10
72.257575
20
55.218593
11
72.310492
21
55.218593
0
LINE
8
Layer 1
10
72.310492
20
55.218593
11
72.601533
21
55.297968
0
LINE
8
Layer 1
10
72.601533
20
55.297968
11
72.998407
21
55.509634
0
LINE
8
Layer 1
10
72.998407
20
55.509634
11
73.501115
21
55.853592
0
LINE
8
Layer 1
10
73.501115
20
55.853592
11
74.083198
21
56.329841
0
LINE
8
Layer 1
10
74.083198
20
56.329841
11
74.189031
21
56.224008
0
LINE
8
Layer 1
10
74.189031
20
56.224008
11
73.633407
21
55.694842
0
LINE
8
Layer 1
10
73.633407
20
55.694842
11
73.104241
21
55.324426
0
LINE
8
Layer 1
10
73.104241
20
55.324426
11
72.627992
21
55.112760
0
LINE
8
Layer 1
10
72.627992
20
55.112760
11
72.257576
21
55.033385
0
LINE
8
Layer 1
10
72.257576
20
55.033385
11
72.125285
21
55.059843
0
LINE
8
Layer 1
10
72.125285
20
55.059843
11
72.019452
21
55.112760
0
LINE
8
Layer 1
10
72.019452
20
55.112760
11
71.966535
21
55.218593
0
LINE
8
Layer 1
10
71.966535
20
55.218593
11
71.940077
21
55.377343
0
LINE
8
Layer 1
10
71.940077
20
55.377343
11
71.966535
21
55.562551
0
LINE
8
Layer 1
10
71.966535
20
55.562551
11
72.045910
21
55.774217
0
LINE
8
Layer 1
10
72.045910
20
55.774217
11
72.178201
21
56.012342
0
LINE
8
Layer 1
10
72.178201
20
56.012342
11
72.363409
21
56.250467
0
LINE
8
Layer 1
10
72.363409
20
56.250467
11
73.183616
21
57.202966
0
LINE
8
Layer 1
10
73.183616
20
57.202966
11
73.262991
21
57.308799
0
LINE
8
Layer 1
10
73.262991
20
57.308799
11
73.315907
21
57.388174
0
LINE
8
Layer 1
10
73.315907
20
57.388174
11
73.368824
21
57.467549
0
LINE
8
Layer 1
10
73.368824
20
57.467549
11
73.368824
21
57.520465
0
LINE
8
Layer 1
10
73.368824
20
57.520465
11
73.368824
21
57.573382
0
LINE
8
Layer 1
10
73.368824
20
57.573382
11
73.342366
21
57.626299
0
LINE
8
Layer 1
10
73.342366
20
57.626299
11
73.289449
21
57.652757
0
LINE
8
Layer 1
10
73.289449
20
57.652757
11
73.210074
21
57.652757
0
LINE
8
Layer 1
10
73.210074
20
57.652757
11
72.680908
21
57.467549
0
LINE
8
Layer 1
10
72.680908
20
57.467549
11
71.940076
21
56.938383
0
LINE
8
Layer 1
10
71.940076
20
56.938383
11
71.119869
21
56.118176
0
LINE
8
Layer 1
10
71.119869
20
56.118176
11
70.299662
21
55.086306
0
LINE
8
Layer 1
10
70.299662
20
55.086306
11
69.797000
21
55.086300
0
LINE
8
Layer 1
10
69.797000
20
55.086300
11
71.437410
21
57.202960
0
LINE
8
Layer 1
10
71.437410
20
57.202960
11
71.463868
21
57.255877
0
LINE
8
Layer 1
10
71.463868
20
57.255877
11
71.596159
21
57.414627
0
LINE
8
Layer 1
10
71.596159
20
57.414627
11
71.649076
21
57.520460
0
LINE
8
Layer 1
10
71.649076
20
57.520460
11
71.649076
21
57.573376
0
LINE
8
Layer 1
10
71.649076
20
57.573376
11
71.622618
21
57.626293
0
LINE
8
Layer 1
10
71.622618
20
57.626293
11
71.569701
21
57.652751
0
LINE
8
Layer 1
10
71.569701
20
57.652751
11
71.516784
21
57.652751
0
LINE
8
Layer 1
10
71.516784
20
57.652751
11
70.987618
21
57.467543
0
LINE
8
Layer 1
10
70.987618
20
57.467543
11
70.246786
21
56.938377
0
LINE
8
Layer 1
10
70.246786
20
56.938377
11
69.982203
21
56.700252
0
LINE
8
Layer 1
10
69.982203
20
56.700252
11
69.717620
21
56.435669
0
LINE
8
Layer 1
10
69.717620
20
56.435669
11
69.161996
21
55.827128
0
LINE
8
Layer 1
10
69.161996
20
55.827128
11
68.632830
21
55.112754
0
LINE
8
Layer 1
10
68.632830
20
55.112754
11
68.103700
21
55.112800
0
LINE
8
Layer 1
10
68.103700
20
55.112800
11
70.061610
21
57.732170
0
LINE
8
Layer 1
10
70.061610
20
57.732170
11
70.511400
21
57.732100
0
LINE
8
Layer 1
10
70.511400
20
57.732100
11
69.902859
21
56.911893
0
LINE
8
Layer 1
10
69.902859
20
56.911893
11
70.405567
21
57.308767
0
LINE
8
Layer 1
10
70.405567
20
57.308767
11
70.828900
21
57.599808
0
LINE
8
Layer 1
10
70.828900
20
57.599808
11
71.199316
21
57.785016
0
LINE
8
Layer 1
10
71.199316
20
57.785016
11
71.516816
21
57.837933
0
LINE
8
Layer 1
10
71.516816
20
57.837933
11
71.675566
21
57.811474
0
LINE
8
Layer 1
10
71.675566
20
57.811474
11
71.781399
21
57.758558
0
LINE
8
Layer 1
10
71.781399
20
57.758558
11
71.860774
21
57.652725
0
LINE
8
Layer 1
10
71.860774
20
57.652725
11
71.887232
21
57.520433
0
LINE
8
Layer 1
10
71.887232
20
57.520433
11
71.834316
21
57.335225
0
LINE
8
Layer 1
10
71.834316
20
57.335225
11
71.675566
21
57.017725
0
LINE
8
Layer 1
10
71.675566
20
57.017725
11
71.649107
21
56.964808
0
LINE
8
Layer 1
10
71.649107
20
56.964808
11
71.622649
21
56.938350
0
LINE
8
Layer 1
10
71.622649
20
56.938350
11
71.622600
21
56.938400
0
LINE
8
Layer 1
10
71.622600
20
56.938400
11
72.178200
21
57.308800
0
LINE
8
Layer 1
10
75.591400
20
57.732100
11
74.030360
21
55.694810
0
LINE
8
Layer 1
10
74.030360
20
55.694810
11
73.950985
21
55.588977
0
LINE
8
Layer 1
10
73.950985
20
55.588977
11
73.898068
21
55.483144
0
LINE
8
Layer 1
10
73.898068
20
55.483144
11
73.845152
21
55.377311
0
LINE
8
Layer 1
10
73.845152
20
55.377311
11
73.818694
21
55.297936
0
LINE
8
Layer 1
10
73.818694
20
55.297936
11
73.845152
21
55.245020
0
LINE
8
Layer 1
10
73.845152
20
55.245020
11
73.871610
21
55.192103
0
LINE
8
Layer 1
10
73.871610
20
55.192103
11
73.924527
21
55.165645
0
LINE
8
Layer 1
10
73.924527
20
55.165645
11
74.003902
21
55.139186
0
LINE
8
Layer 1
10
74.003902
20
55.139186
11
74.506610
21
55.324394
0
LINE
8
Layer 1
10
74.506610
20
55.324394
11
75.194526
21
55.853560
0
LINE
8
Layer 1
10
75.194526
20
55.853560
11
75.988275
21
56.673767
0
LINE
8
Layer 1
10
75.988275
20
56.673767
11
76.808482
21
57.705637
0
LINE
8
Layer 1
10
76.808482
20
57.705637
11
77.284731
21
57.705637
0
LINE
8
Layer 1
10
77.284731
20
57.705637
11
75.432651
21
55.245017
0
LINE
8
Layer 1
10
75.432651
20
55.245017
11
75.803067
21
55.403767
0
LINE
8
Layer 1
10
75.803067
20
55.403767
11
76.147025
21
55.588975
0
LINE
8
Layer 1
10
76.147025
20
55.588975
11
76.305775
21
55.668350
0
LINE
8
Layer 1
10
76.305775
20
55.668350
11
76.464525
21
55.747725
0
LINE
8
Layer 1
10
76.464525
20
55.747725
11
76.887858
21
56.012308
0
LINE
8
Layer 1
10
76.887858
20
56.012308
11
77.258274
21
56.303349
0
LINE
8
Layer 1
10
77.258274
20
56.303349
11
77.364107
21
56.171058
0
LINE
8
Layer 1
10
77.364107
20
56.171058
11
76.914316
21
55.827100
0
LINE
8
Layer 1
10
76.914316
20
55.827100
11
76.411608
21
55.509600
0
LINE
8
Layer 1
10
76.411608
20
55.509600
11
75.855984
21
55.218559
0
LINE
8
Layer 1
10
75.855984
20
55.218559
11
75.247443
21
54.980434
0
LINE
8
Layer 1
10
75.247443
20
54.980434
11
74.533069
21
54.054394
0
LINE
8
Layer 1
10
74.533069
20
54.054394
11
73.818695
21
53.340020
0
LINE
8
Layer 1
10
73.818695
20
53.340020
11
73.157238
21
52.890229
0
LINE
8
Layer 1
10
73.157238
20
52.890229
11
72.601614
21
52.757937
0
LINE
8
Layer 1
10
72.601614
20
52.757937
11
72.442864
21
52.784395
0
LINE
8
Layer 1
10
72.442864
20
52.784395
11
72.310573
21
52.837312
0
LINE
8
Layer 1
10
72.310573
20
52.837312
11
72.231198
21
52.916687
0
LINE
8
Layer 1
10
72.231198
20
52.916687
11
72.204739
21
53.048979
0
LINE
8
Layer 1
10
72.204739
20
53.048979
11
72.389947
21
53.498770
0
LINE
8
Layer 1
10
72.389947
20
53.498770
11
72.945571
21
54.001478
0
LINE
8
Layer 1
10
72.945571
20
54.001478
11
73.792237
21
54.504186
0
LINE
8
Layer 1
10
73.792237
20
54.504186
11
74.850567
21
54.953977
0
LINE
8
Layer 1
10
74.850567
20
54.953977
11
75.591399
21
55.932934
0
LINE
8
Layer 1
10
75.591399
20
55.932934
11
75.115150
21
55.483143
0
LINE
8
Layer 1
10
75.115150
20
55.483143
11
74.665359
21
55.165643
0
LINE
8
Layer 1
10
74.665359
20
55.165643
11
74.268485
21
54.980435
0
LINE
8
Layer 1
10
74.268485
20
54.980435
11
73.950985
21
54.927518
0
LINE
8
Layer 1
10
73.950985
20
54.927518
11
73.792235
21
54.953977
0
LINE
8
Layer 1
10
73.792235
20
54.953977
11
73.686402
21
55.033352
0
LINE
8
Layer 1
10
73.686402
20
55.033352
11
73.607028
21
55.139184
0
LINE
8
Layer 1
10
73.607028
20
55.139184
11
73.580569
21
55.297934
0
LINE
8
Layer 1
10
73.580569
20
55.297934
11
73.607028
21
55.536059
0
LINE
8
Layer 1
10
73.607028
20
55.536059
11
73.686402
21
55.800642
0
LINE
8
Layer 1
10
73.686402
20
55.800642
11
73.845152
21
56.091683
0
LINE
8
Layer 1
10
73.845152
20
56.091683
11
74.056818
21
56.382724
0
LINE
8
Layer 1
10
74.056818
20
56.382724
11
75.062238
21
57.679184
0
LINE
8
Layer 1
10
75.062238
20
57.679184
11
75.591400
21
57.679200
0
LINE
8
Layer 1
10
75.591400
20
57.679200
11
75.591400
21
57.732100
0
LINE
8
Layer 1
10
73.792200
20
54.398400
11
73.077826
21
53.948609
0
LINE
8
Layer 1
10
73.077826
20
53.948609
11
72.601577
21
53.525276
0
LINE
8
Layer 1
10
72.601577
20
53.525276
11
72.442827
21
53.181318
0
LINE
8
Layer 1
10
72.442827
20
53.181318
11
72.469285
21
53.101943
0
LINE
8
Layer 1
10
72.469285
20
53.101943
11
72.495744
21
53.049027
0
LINE
8
Layer 1
10
72.495744
20
53.049027
11
72.575119
21
53.022568
0
LINE
8
Layer 1
10
72.575119
20
53.022568
11
72.654493
21
52.996110
0
LINE
8
Layer 1
10
72.654493
20
52.996110
11
73.024909
21
53.101943
0
LINE
8
Layer 1
10
73.024909
20
53.101943
11
73.474700
21
53.419443
0
LINE
8
Layer 1
10
73.474700
20
53.419443
11
74.030324
21
53.975067
0
LINE
8
Layer 1
10
74.030324
20
53.975067
11
74.718240
21
54.795274
0
LINE
8
Layer 1
10
74.718240
20
54.795274
11
74.718200
21
54.795300
0
LINE
8
Layer 1
10
74.718200
20
54.795300
11
73.792200
21
54.398400
0
LINE
8
Layer 1
10
41.407200
20
50.985300
11
41.883500
21
50.985300
0
LINE
8
Layer 1
10
41.883500
20
50.985300
11
40.057880
21
48.577590
0
LINE
8
Layer 1
10
40.057880
20
48.577590
11
40.534129
21
48.789256
0
LINE
8
Layer 1
10
40.534129
20
48.789256
11
40.983920
21
49.027381
0
LINE
8
Layer 1
10
40.983920
20
49.027381
11
41.407253
21
49.291964
0
LINE
8
Layer 1
10
41.407253
20
49.291964
11
41.804127
21
49.609464
0
LINE
8
Layer 1
10
41.804127
20
49.609464
11
41.909960
21
49.477173
0
LINE
8
Layer 1
10
41.909960
20
49.477173
11
41.486627
21
49.133215
0
LINE
8
Layer 1
10
41.486627
20
49.133215
11
40.983919
21
48.815715
0
LINE
8
Layer 1
10
40.983919
20
48.815715
11
40.454753
21
48.524674
0
LINE
8
Layer 1
10
40.454753
20
48.524674
11
39.846212
21
48.260091
0
LINE
8
Layer 1
10
39.846212
20
48.260091
11
39.105380
21
47.307592
0
LINE
8
Layer 1
10
39.105380
20
47.307592
11
38.364548
21
46.619676
0
LINE
8
Layer 1
10
38.364548
20
46.619676
11
37.676632
21
46.196343
0
LINE
8
Layer 1
10
37.676632
20
46.196343
11
37.068091
21
46.064052
0
LINE
8
Layer 1
10
37.068091
20
46.064052
11
36.909341
21
46.090510
0
LINE
8
Layer 1
10
36.909341
20
46.090510
11
36.777049
21
46.143427
0
LINE
8
Layer 1
10
36.777049
20
46.143427
11
36.697674
21
46.222802
0
LINE
8
Layer 1
10
36.697674
20
46.222802
11
36.671216
21
46.355094
0
LINE
8
Layer 1
10
36.671216
20
46.355094
11
36.856424
21
46.804885
0
LINE
8
Layer 1
10
36.856424
20
46.804885
11
37.412048
21
47.307593
0
LINE
8
Layer 1
10
37.412048
20
47.307593
11
38.311630
21
47.836759
0
LINE
8
Layer 1
10
38.311630
20
47.836759
11
39.475800
21
48.339467
0
LINE
8
Layer 1
10
39.475800
20
48.339467
11
40.163716
21
49.239049
0
LINE
8
Layer 1
10
40.163716
20
49.239049
11
39.687467
21
48.815716
0
LINE
8
Layer 1
10
39.687467
20
48.815716
11
39.264134
21
48.498216
0
LINE
8
Layer 1
10
39.264134
20
48.498216
11
38.867260
21
48.313008
0
LINE
8
Layer 1
10
38.867260
20
48.313008
11
38.523302
21
48.260091
0
LINE
8
Layer 1
10
38.523302
20
48.260091
11
38.338094
21
48.286549
0
LINE
8
Layer 1
10
38.338094
20
48.286549
11
38.205802
21
48.365924
0
LINE
8
Layer 1
10
38.205802
20
48.365924
11
38.126427
21
48.524674
0
LINE
8
Layer 1
10
38.126427
20
48.524674
11
38.099969
21
48.709882
0
LINE
8
Layer 1
10
38.099969
20
48.709882
11
38.179344
21
49.106757
0
LINE
8
Layer 1
10
38.179344
20
49.106757
11
38.417468
21
49.556548
0
LINE
8
Layer 1
10
38.417468
20
49.556548
11
38.787884
21
50.032797
0
LINE
8
Layer 1
10
38.787884
20
50.032797
11
39.264133
21
50.429671
0
LINE
8
Layer 1
10
39.264133
20
50.429671
11
39.449342
21
50.561963
0
LINE
8
Layer 1
10
39.449342
20
50.561963
11
39.634550
21
50.694254
0
LINE
8
Layer 1
10
39.634550
20
50.694254
11
39.819758
21
50.800087
0
LINE
8
Layer 1
10
39.819758
20
50.800087
11
40.004966
21
50.879462
0
LINE
8
Layer 1
10
40.004966
20
50.879462
11
40.375382
21
51.011754
0
LINE
8
Layer 1
10
40.375382
20
51.011754
11
40.692882
21
51.064671
0
LINE
8
Layer 1
10
40.692882
20
51.064671
11
40.878090
21
51.038213
0
LINE
8
Layer 1
10
40.878090
20
51.038213
11
41.010382
21
50.958838
0
LINE
8
Layer 1
10
41.010382
20
50.958838
11
41.089756
21
50.826547
0
LINE
8
Layer 1
10
41.089756
20
50.826547
11
41.116215
21
50.641339
0
LINE
8
Layer 1
10
41.116215
20
50.641339
11
41.116200
21
50.667800
0
LINE
8
Layer 1
10
41.116200
20
50.667800
11
41.407200
21
50.985300
0
LINE
8
Layer 1
10
41.407200
20
50.985300
11
41.407200
21
50.985300
0
LINE
8
Layer 1
10
38.311600
20
47.678000
11
37.544309
21
47.228209
0
LINE
8
Layer 1
10
37.544309
20
47.228209
11
37.041601
21
46.804876
0
LINE
8
Layer 1
10
37.041601
20
46.804876
11
36.882851
21
46.460918
0
LINE
8
Layer 1
10
36.882851
20
46.460918
11
36.909309
21
46.381543
0
LINE
8
Layer 1
10
36.909309
20
46.381543
11
36.962226
21
46.328626
0
LINE
8
Layer 1
10
36.962226
20
46.328626
11
37.041601
21
46.302168
0
LINE
8
Layer 1
10
37.041601
20
46.302168
11
37.147434
21
46.302168
0
LINE
8
Layer 1
10
37.147434
20
46.302168
11
37.544309
21
46.408001
0
LINE
8
Layer 1
10
37.544309
20
46.408001
11
38.047017
21
46.778417
0
LINE
8
Layer 1
10
38.047017
20
46.778417
11
38.629100
21
47.360500
0
LINE
8
Layer 1
10
38.629100
20
47.360500
11
39.290557
21
48.154249
0
LINE
8
Layer 1
10
39.290557
20
48.154249
11
39.290600
21
48.154200
0
LINE
8
Layer 1
10
39.290600
20
48.154200
11
38.311600
21
47.678000
0
LINE
8
Layer 1
10
40.454700
20
50.800100
11
40.084284
21
50.588434
0
LINE
8
Layer 1
10
40.084284
20
50.588434
11
39.687409
21
50.244476
0
LINE
8
Layer 1
10
39.687409
20
50.244476
11
39.264076
21
49.821143
0
LINE
8
Layer 1
10
39.264076
20
49.821143
11
38.893660
21
49.397810
0
LINE
8
Layer 1
10
38.893660
20
49.397810
11
38.602619
21
49.053852
0
LINE
8
Layer 1
10
38.602619
20
49.053852
11
38.443869
21
48.762811
0
LINE
8
Layer 1
10
38.443869
20
48.762811
11
38.390952
21
48.577603
0
LINE
8
Layer 1
10
38.390952
20
48.577603
11
38.417411
21
48.498228
0
LINE
8
Layer 1
10
38.417411
20
48.498228
11
38.470327
21
48.445311
0
LINE
8
Layer 1
10
38.470327
20
48.445311
11
38.523244
21
48.418853
0
LINE
8
Layer 1
10
38.523244
20
48.418853
11
38.602619
21
48.392395
0
LINE
8
Layer 1
10
38.602619
20
48.392395
11
38.867202
21
48.445311
0
LINE
8
Layer 1
10
38.867202
20
48.445311
11
39.211160
21
48.604061
0
LINE
8
Layer 1
10
39.211160
20
48.604061
11
39.581576
21
48.868644
0
LINE
8
Layer 1
10
39.581576
20
48.868644
11
39.978451
21
49.212602
0
LINE
8
Layer 1
10
39.978451
20
49.212602
11
40.401784
21
49.635935
0
LINE
8
Layer 1
10
40.401784
20
49.635935
11
40.719284
21
50.032810
0
LINE
8
Layer 1
10
40.719284
20
50.032810
11
40.930950
21
50.376768
0
LINE
8
Layer 1
10
40.930950
20
50.376768
11
41.010325
21
50.614893
0
LINE
8
Layer 1
10
41.010325
20
50.614893
11
40.983866
21
50.694268
0
LINE
8
Layer 1
10
40.983866
20
50.694268
11
40.930950
21
50.747185
0
LINE
8
Layer 1
10
40.930950
20
50.747185
11
40.851575
21
50.773643
0
LINE
8
Layer 1
10
40.851575
20
50.773643
11
40.745742
21
50.800102
0
LINE
8
Layer 1
10
40.745742
20
50.800102
11
40.745800
21
50.800100
0
LINE
8
Layer 1
10
40.745800
20
50.800100
11
40.454700
21
50.800100
0
LINE
8
Layer 1
10
43.973700
20
49.635900
11
44.053075
21
49.609442
0
LINE
8
Layer 1
10
44.053075
20
49.609442
11
44.105992
21
49.609442
0
LINE
8
Layer 1
10
44.105992
20
49.609442
11
44.158908
21
49.609442
0
LINE
8
Layer 1
10
44.158908
20
49.609442
11
44.211825
21
49.609442
0
LINE
8
Layer 1
10
44.211825
20
49.609442
11
44.264700
21
49.609400
0
LINE
8
Layer 1
10
44.264700
20
49.609400
11
44.370533
21
49.609400
0
LINE
8
Layer 1
10
44.370533
20
49.609400
11
44.476366
21
49.635858
0
LINE
8
Layer 1
10
44.476366
20
49.635858
11
44.582199
21
49.662317
0
LINE
8
Layer 1
10
44.582199
20
49.662317
11
44.688032
21
49.715233
0
LINE
8
Layer 1
10
44.688032
20
49.715233
11
44.740949
21
49.609400
0
LINE
8
Layer 1
10
44.740949
20
49.609400
11
44.635116
21
49.530025
0
LINE
8
Layer 1
10
44.635116
20
49.530025
11
44.502824
21
49.477109
0
LINE
8
Layer 1
10
44.502824
20
49.477109
11
44.370532
21
49.450650
0
LINE
8
Layer 1
10
44.370532
20
49.450650
11
44.211782
21
49.450650
0
LINE
8
Layer 1
10
44.211782
20
49.450650
11
44.105949
21
49.450650
0
LINE
8
Layer 1
10
44.105949
20
49.450650
11
44.000116
21
49.477109
0
LINE
8
Layer 1
10
44.000116
20
49.477109
11
43.947199
21
49.503567
0
LINE
8
Layer 1
10
43.947199
20
49.503567
11
43.894282
21
49.530025
0
LINE
8
Layer 1
10
43.894282
20
49.530025
11
43.841366
21
49.556484
0
LINE
8
Layer 1
10
43.841366
20
49.556484
11
43.788449
21
49.582942
0
LINE
8
Layer 1
10
43.788449
20
49.582942
11
43.470949
21
49.186067
0
LINE
8
Layer 1
10
43.470949
20
49.186067
11
43.126991
21
48.842109
0
LINE
8
Layer 1
10
43.126991
20
48.842109
11
42.968241
21
48.709817
0
LINE
8
Layer 1
10
42.968241
20
48.709817
11
42.809491
21
48.577526
0
LINE
8
Layer 1
10
42.809491
20
48.577526
11
42.306783
21
48.312943
0
LINE
8
Layer 1
10
42.306783
20
48.312943
11
41.856992
21
48.233568
0
LINE
8
Layer 1
10
41.856992
20
48.233568
11
41.645326
21
48.260026
0
LINE
8
Layer 1
10
41.645326
20
48.260026
11
41.486576
21
48.339401
0
LINE
8
Layer 1
10
41.486576
20
48.339401
11
41.380743
21
48.498151
0
LINE
8
Layer 1
10
41.380743
20
48.498151
11
41.354285
21
48.683359
0
LINE
8
Layer 1
10
41.354285
20
48.683359
11
41.433660
21
49.053775
0
LINE
8
Layer 1
10
41.433660
20
49.053775
11
41.645326
21
49.477108
0
LINE
8
Layer 1
10
41.645326
20
49.477108
11
41.962826
21
49.900441
0
LINE
8
Layer 1
10
41.962826
20
49.900441
11
42.386159
21
50.297315
0
LINE
8
Layer 1
10
42.386159
20
50.297315
11
42.730117
21
50.561898
0
LINE
8
Layer 1
10
42.730117
20
50.561898
11
43.047617
21
50.773564
0
LINE
8
Layer 1
10
43.047617
20
50.773564
11
43.126992
21
50.826481
0
LINE
8
Layer 1
10
43.126992
20
50.826481
11
43.206367
21
50.879397
0
LINE
8
Layer 1
10
43.206367
20
50.879397
11
43.603242
21
51.038147
0
LINE
8
Layer 1
10
43.603242
20
51.038147
11
43.947200
21
51.091064
0
LINE
8
Layer 1
10
43.947200
20
51.091064
11
44.105950
21
51.064606
0
LINE
8
Layer 1
10
44.105950
20
51.064606
11
44.238241
21
50.985231
0
LINE
8
Layer 1
10
44.238241
20
50.985231
11
44.317615
21
50.879398
0
LINE
8
Layer 1
10
44.317615
20
50.879398
11
44.344074
21
50.747106
0
LINE
8
Layer 1
10
44.344074
20
50.747106
11
44.317615
21
50.535440
0
LINE
8
Layer 1
10
44.317615
20
50.535440
11
44.238241
21
50.270857
0
LINE
8
Layer 1
10
44.238241
20
50.270857
11
44.105950
21
49.979816
0
LINE
8
Layer 1
10
44.105950
20
49.979816
11
43.920742
21
49.688775
0
LINE
8
Layer 1
10
43.920742
20
49.688775
11
43.920800
21
49.688800
0
LINE
8
Layer 1
10
43.920800
20
49.688800
11
43.973700
21
49.635900
0
LINE
8
Layer 1
10
44.106000
20
50.561900
11
44.106000
21
50.561900
0
LINE
8
Layer 1
10
44.106000
20
50.561900
11
44.106000
21
50.588358
0
LINE
8
Layer 1
10
44.106000
20
50.588358
11
44.106000
21
50.614800
0
LINE
8
Layer 1
10
44.106000
20
50.614800
11
44.106000
21
50.641300
0
LINE
8
Layer 1
10
44.106000
20
50.641300
11
44.106000
21
50.667758
0
LINE
8
Layer 1
10
44.106000
20
50.667758
11
44.106000
21
50.667800
0
LINE
8
Layer 1
10
44.106000
20
50.667800
11
44.106000
21
50.694200
0
LINE
8
Layer 1
10
44.106000
20
50.694200
11
44.079542
21
50.773575
0
LINE
8
Layer 1
10
44.079542
20
50.773575
11
44.026625
21
50.852950
0
LINE
8
Layer 1
10
44.026625
20
50.852950
11
43.973708
21
50.905866
0
LINE
8
Layer 1
10
43.973708
20
50.905866
11
43.894334
21
50.932325
0
LINE
8
Layer 1
10
43.894334
20
50.932325
11
43.629751
21
50.879408
0
LINE
8
Layer 1
10
43.629751
20
50.879408
11
43.312251
21
50.694200
0
LINE
8
Layer 1
10
43.312251
20
50.694200
11
42.941835
21
50.403159
0
LINE
8
Layer 1
10
42.941835
20
50.403159
11
42.518502
21
50.032743
0
LINE
8
Layer 1
10
42.518502
20
50.032743
11
42.121627
21
49.609410
0
LINE
8
Layer 1
10
42.121627
20
49.609410
11
41.830586
21
49.238994
0
LINE
8
Layer 1
10
41.830586
20
49.238994
11
41.645378
21
48.947953
0
LINE
8
Layer 1
10
41.645378
20
48.947953
11
41.592461
21
48.736287
0
LINE
8
Layer 1
10
41.592461
20
48.736287
11
41.618919
21
48.630454
0
LINE
8
Layer 1
10
41.618919
20
48.630454
11
41.671836
21
48.551079
0
LINE
8
Layer 1
10
41.671836
20
48.551079
11
41.777669
21
48.498163
0
LINE
8
Layer 1
10
41.777669
20
48.498163
11
41.909961
21
48.471704
0
LINE
8
Layer 1
10
41.909961
20
48.471704
11
42.280377
21
48.551079
0
LINE
8
Layer 1
10
42.280377
20
48.551079
11
42.677252
21
48.789204
0
LINE
8
Layer 1
10
42.677252
20
48.789204
11
43.127043
21
49.186079
0
LINE
8
Layer 1
10
43.127043
20
49.186079
11
43.656209
21
49.768162
0
LINE
8
Layer 1
10
43.656209
20
49.768162
11
43.656209
21
49.794620
0
LINE
8
Layer 1
10
43.656209
20
49.794620
11
43.656209
21
49.821079
0
LINE
8
Layer 1
10
43.656209
20
49.821079
11
43.629751
21
49.873995
0
LINE
8
Layer 1
10
43.629751
20
49.873995
11
43.629751
21
49.926912
0
LINE
8
Layer 1
10
43.629751
20
49.926912
11
43.603292
21
49.979829
0
LINE
8
Layer 1
10
43.603292
20
49.979829
11
43.603292
21
50.032745
0
LINE
8
Layer 1
10
43.603292
20
50.032745
11
43.603292
21
50.138578
0
LINE
8
Layer 1
10
43.603292
20
50.138578
11
43.629751
21
50.244411
0
LINE
8
Layer 1
10
43.629751
20
50.244411
11
43.682667
21
50.350244
0
LINE
8
Layer 1
10
43.682667
20
50.350244
11
43.735584
21
50.456077
0
LINE
8
Layer 1
10
43.735584
20
50.456077
11
43.894334
21
50.614827
0
LINE
8
Layer 1
10
43.894334
20
50.614827
11
44.106000
21
50.561900
0
LINE
8
Layer 1
10
44.106000
20
50.561900
11
44.106000
21
50.561900
0
LINE
8
Layer 1
10
44.106000
20
50.561900
11
44.106000
21
50.561900
0
LINE
8
Layer 1
10
44.106000
20
50.561900
11
44.106000
21
50.561900
0
LINE
8
Layer 1
10
47.122200
20
50.773600
11
46.963450
21
50.588392
0
LINE
8
Layer 1
10
46.963450
20
50.588392
11
46.857617
21
50.429642
0
LINE
8
Layer 1
10
46.857617
20
50.429642
11
46.831159
21
50.323809
0
LINE
8
Layer 1
10
46.831159
20
50.323809
11
46.857617
21
50.270892
0
LINE
8
Layer 1
10
46.857617
20
50.270892
11
46.910534
21
50.244434
0
LINE
8
Layer 1
10
46.910534
20
50.244434
11
47.016367
21
50.217976
0
LINE
8
Layer 1
10
47.016367
20
50.217976
11
47.148659
21
50.217976
0
LINE
8
Layer 1
10
47.148659
20
50.217976
11
47.148700
21
50.218000
0
LINE
8
Layer 1
10
47.148700
20
50.218000
11
47.175100
21
50.218000
0
LINE
8
Layer 1
10
47.175100
20
50.218000
11
47.201600
21
50.218000
0
LINE
8
Layer 1
10
47.201600
20
50.218000
11
47.228058
21
50.218000
0
LINE
8
Layer 1
10
47.228058
20
50.218000
11
47.254500
21
50.218000
0
LINE
8
Layer 1
10
47.254500
20
50.218000
11
47.281000
21
50.218000
0
LINE
8
Layer 1
10
47.281000
20
50.218000
11
47.201625
21
50.085708
0
LINE
8
Layer 1
10
47.201625
20
50.085708
11
47.148708
21
50.085708
0
LINE
8
Layer 1
10
47.148708
20
50.085708
11
47.095792
21
50.085708
0
LINE
8
Layer 1
10
47.095792
20
50.085708
11
47.042875
21
50.059250
0
LINE
8
Layer 1
10
47.042875
20
50.059250
11
47.016417
21
50.059250
0
LINE
8
Layer 1
10
47.016417
20
50.059250
11
46.831209
21
50.085708
0
LINE
8
Layer 1
10
46.831209
20
50.085708
11
46.698917
21
50.138625
0
LINE
8
Layer 1
10
46.698917
20
50.138625
11
46.593084
21
50.218000
0
LINE
8
Layer 1
10
46.593084
20
50.218000
11
46.513709
21
50.323833
0
LINE
8
Layer 1
10
46.513709
20
50.323833
11
44.344129
21
48.709873
0
LINE
8
Layer 1
10
44.344129
20
48.709873
11
44.079546
21
48.392373
0
LINE
8
Layer 1
10
44.079546
20
48.392373
11
43.603300
21
48.392400
0
LINE
8
Layer 1
10
43.603300
20
48.392400
11
45.640590
21
51.011770
0
LINE
8
Layer 1
10
45.640590
20
51.011770
11
46.090400
21
51.011700
0
LINE
8
Layer 1
10
46.090400
20
51.011700
11
44.635190
21
49.133160
0
LINE
8
Layer 1
10
44.635190
20
49.133160
11
46.540190
21
50.588370
0
LINE
8
Layer 1
10
46.540190
20
50.588370
11
46.672482
21
50.800036
0
LINE
8
Layer 1
10
46.672482
20
50.800036
11
46.804774
21
50.958786
0
LINE
8
Layer 1
10
46.804774
20
50.958786
11
46.963524
21
51.038161
0
LINE
8
Layer 1
10
46.963524
20
51.038161
11
47.148732
21
51.064619
0
LINE
8
Layer 1
10
47.148732
20
51.064619
11
47.175100
21
51.064600
0
LINE
8
Layer 1
10
47.175100
20
51.064600
11
47.201600
21
51.064600
0
LINE
8
Layer 1
10
47.201600
20
51.064600
11
47.254517
21
51.064600
0
LINE
8
Layer 1
10
47.254517
20
51.064600
11
47.307400
21
51.064600
0
LINE
8
Layer 1
10
47.307400
20
51.064600
11
47.333900
21
51.064600
0
LINE
8
Layer 1
10
47.333900
20
51.064600
11
47.360400
21
51.064600
0
LINE
8
Layer 1
10
47.360400
20
51.064600
11
47.386858
21
51.064600
0
LINE
8
Layer 1
10
47.386858
20
51.064600
11
47.413300
21
51.064600
0
LINE
8
Layer 1
10
47.413300
20
51.064600
11
47.413300
21
51.064600
0
LINE
8
Layer 1
10
47.413300
20
51.064600
11
47.122200
21
50.773600
0
LINE
8
Layer 1
10
49.582900
20
50.985300
11
50.059100
21
50.985300
0
LINE
8
Layer 1
10
50.059100
20
50.985300
11
48.233480
21
48.577590
0
LINE
8
Layer 1
10
48.233480
20
48.577590
11
48.709729
21
48.789256
0
LINE
8
Layer 1
10
48.709729
20
48.789256
11
49.159520
21
49.027381
0
LINE
8
Layer 1
10
49.159520
20
49.027381
11
49.582853
21
49.291964
0
LINE
8
Layer 1
10
49.582853
20
49.291964
11
49.979727
21
49.609464
0
LINE
8
Layer 1
10
49.979727
20
49.609464
11
50.085560
21
49.477173
0
LINE
8
Layer 1
10
50.085560
20
49.477173
11
49.662227
21
49.133215
0
LINE
8
Layer 1
10
49.662227
20
49.133215
11
49.159519
21
48.815715
0
LINE
8
Layer 1
10
49.159519
20
48.815715
11
48.630353
21
48.524674
0
LINE
8
Layer 1
10
48.630353
20
48.524674
11
48.021812
21
48.260091
0
LINE
8
Layer 1
10
48.021812
20
48.260091
11
47.280980
21
47.307592
0
LINE
8
Layer 1
10
47.280980
20
47.307592
11
46.540148
21
46.619676
0
LINE
8
Layer 1
10
46.540148
20
46.619676
11
45.852232
21
46.196343
0
LINE
8
Layer 1
10
45.852232
20
46.196343
11
45.243691
21
46.064052
0
LINE
8
Layer 1
10
45.243691
20
46.064052
11
45.084941
21
46.090510
0
LINE
8
Layer 1
10
45.084941
20
46.090510
11
44.952649
21
46.143427
0
LINE
8
Layer 1
10
44.952649
20
46.143427
11
44.873274
21
46.222802
0
LINE
8
Layer 1
10
44.873274
20
46.222802
11
44.846816
21
46.355094
0
LINE
8
Layer 1
10
44.846816
20
46.355094
11
45.032024
21
46.804885
0
LINE
8
Layer 1
10
45.032024
20
46.804885
11
45.587648
21
47.307593
0
LINE
8
Layer 1
10
45.587648
20
47.307593
11
46.487230
21
47.836759
0
LINE
8
Layer 1
10
46.487230
20
47.836759
11
47.651400
21
48.339467
0
LINE
8
Layer 1
10
47.651400
20
48.339467
11
48.339316
21
49.239049
0
LINE
8
Layer 1
10
48.339316
20
49.239049
11
47.863067
21
48.815716
0
LINE
8
Layer 1
10
47.863067
20
48.815716
11
47.439734
21
48.498216
0
LINE
8
Layer 1
10
47.439734
20
48.498216
11
47.042859
21
48.313008
0
LINE
8
Layer 1
10
47.042859
20
48.313008
11
46.698901
21
48.260091
0
LINE
8
Layer 1
10
46.698901
20
48.260091
11
46.513693
21
48.286549
0
LINE
8
Layer 1
10
46.513693
20
48.286549
11
46.381401
21
48.365924
0
LINE
8
Layer 1
10
46.381401
20
48.365924
11
46.302026
21
48.524674
0
LINE
8
Layer 1
10
46.302026
20
48.524674
11
46.275568
21
48.709882
0
LINE
8
Layer 1
10
46.275568
20
48.709882
11
46.354942
21
49.106757
0
LINE
8
Layer 1
10
46.354942
20
49.106757
11
46.593067
21
49.556548
0
LINE
8
Layer 1
10
46.593067
20
49.556548
11
46.963483
21
50.032797
0
LINE
8
Layer 1
10
46.963483
20
50.032797
11
47.439732
21
50.429671
0
LINE
8
Layer 1
10
47.439732
20
50.429671
11
47.624941
21
50.561963
0
LINE
8
Layer 1
10
47.624941
20
50.561963
11
47.810149
21
50.694254
0
LINE
8
Layer 1
10
47.810149
20
50.694254
11
47.995357
21
50.800087
0
LINE
8
Layer 1
10
47.995357
20
50.800087
11
48.180565
21
50.879462
0
LINE
8
Layer 1
10
48.180565
20
50.879462
11
48.550981
21
51.011754
0
LINE
8
Layer 1
10
48.550981
20
51.011754
11
48.868481
21
51.064671
0
LINE
8
Layer 1
10
48.868481
20
51.064671
11
49.053689
21
51.038213
0
LINE
8
Layer 1
10
49.053689
20
51.038213
11
49.185981
21
50.958838
0
LINE
8
Layer 1
10
49.185981
20
50.958838
11
49.265355
21
50.826547
0
LINE
8
Layer 1
10
49.265355
20
50.826547
11
49.291814
21
50.641339
0
LINE
8
Layer 1
10
49.291814
20
50.641339
11
49.291800
21
50.667800
0
LINE
8
Layer 1
10
49.291800
20
50.667800
11
49.582900
21
50.985300
0
LINE
8
Layer 1
10
49.582900
20
50.985300
11
49.582900
21
50.985300
0
LINE
8
Layer 1
10
46.487200
20
47.678000
11
45.719909
21
47.228209
0
LINE
8
Layer 1
10
45.719909
20
47.228209
11
45.217201
21
46.804876
0
LINE
8
Layer 1
10
45.217201
20
46.804876
11
45.058451
21
46.460918
0
LINE
8
Layer 1
10
45.058451
20
46.460918
11
45.084909
21
46.381543
0
LINE
8
Layer 1
10
45.084909
20
46.381543
11
45.137826
21
46.328626
0
LINE
8
Layer 1
10
45.137826
20
46.328626
11
45.217201
21
46.302168
0
LINE
8
Layer 1
10
45.217201
20
46.302168
11
45.323034
21
46.302168
0
LINE
8
Layer 1
10
45.323034
20
46.302168
11
45.719909
21
46.408001
0
LINE
8
Layer 1
10
45.719909
20
46.408001
11
46.222617
21
46.778417
0
LINE
8
Layer 1
10
46.222617
20
46.778417
11
46.804700
21
47.360500
0
LINE
8
Layer 1
10
46.804700
20
47.360500
11
47.466158
21
48.154249
0
LINE
8
Layer 1
10
47.466158
20
48.154249
11
47.466200
21
48.154200
0
LINE
8
Layer 1
10
47.466200
20
48.154200
11
46.487200
21
47.678000
0
LINE
8
Layer 1
10
48.630400
20
50.800100
11
48.259984
21
50.588434
0
LINE
8
Layer 1
10
48.259984
20
50.588434
11
47.863109
21
50.244476
0
LINE
8
Layer 1
10
47.863109
20
50.244476
11
47.439776
21
49.821143
0
LINE
8
Layer 1
10
47.439776
20
49.821143
11
47.069360
21
49.397810
0
LINE
8
Layer 1
10
47.069360
20
49.397810
11
46.778319
21
49.053852
0
LINE
8
Layer 1
10
46.778319
20
49.053852
11
46.619569
21
48.762811
0
LINE
8
Layer 1
10
46.619569
20
48.762811
11
46.566652
21
48.577603
0
LINE
8
Layer 1
10
46.566652
20
48.577603
11
46.593111
21
48.498228
0
LINE
8
Layer 1
10
46.593111
20
48.498228
11
46.646027
21
48.445311
0
LINE
8
Layer 1
10
46.646027
20
48.445311
11
46.698944
21
48.418853
0
LINE
8
Layer 1
10
46.698944
20
48.418853
11
46.778319
21
48.392395
0
LINE
8
Layer 1
10
46.778319
20
48.392395
11
47.042902
21
48.445311
0
LINE
8
Layer 1
10
47.042902
20
48.445311
11
47.386860
21
48.604061
0
LINE
8
Layer 1
10
47.386860
20
48.604061
11
47.757276
21
48.868644
0
LINE
8
Layer 1
10
47.757276
20
48.868644
11
48.154151
21
49.212602
0
LINE
8
Layer 1
10
48.154151
20
49.212602
11
48.577484
21
49.635935
0
LINE
8
Layer 1
10
48.577484
20
49.635935
11
48.894984
21
50.032810
0
LINE
8
Layer 1
10
48.894984
20
50.032810
11
49.106650
21
50.376768
0
LINE
8
Layer 1
10
49.106650
20
50.376768
11
49.186025
21
50.614893
0
LINE
8
Layer 1
10
49.186025
20
50.614893
11
49.159566
21
50.694268
0
LINE
8
Layer 1
10
49.159566
20
50.694268
11
49.106650
21
50.747185
0
LINE
8
Layer 1
10
49.106650
20
50.747185
11
49.027275
21
50.773643
0
LINE
8
Layer 1
10
49.027275
20
50.773643
11
48.921442
21
50.800102
0
LINE
8
Layer 1
10
48.921442
20
50.800102
11
48.921400
21
50.800100
0
LINE
8
Layer 1
10
48.921400
20
50.800100
11
48.630400
21
50.800100
0
LINE
8
Layer 1
10
49.926800
20
49.212600
11
49.768050
21
48.974475
0
LINE
8
Layer 1
10
49.768050
20
48.974475
11
49.688675
21
48.789267
0
LINE
8
Layer 1
10
49.688675
20
48.789267
11
49.662217
21
48.656976
0
LINE
8
Layer 1
10
49.662217
20
48.656976
11
49.688675
21
48.551143
0
LINE
8
Layer 1
10
49.688675
20
48.551143
11
49.741592
21
48.471768
0
LINE
8
Layer 1
10
49.741592
20
48.471768
11
49.847425
21
48.418852
0
LINE
8
Layer 1
10
49.847425
20
48.418852
11
49.979717
21
48.392393
0
LINE
8
Layer 1
10
49.979717
20
48.392393
11
50.403050
21
48.471768
0
LINE
8
Layer 1
10
50.403050
20
48.471768
11
50.932216
21
48.683434
0
LINE
8
Layer 1
10
50.932216
20
48.683434
11
51.487840
21
49.027392
0
LINE
8
Layer 1
10
51.487840
20
49.027392
11
52.096381
21
49.477183
0
LINE
8
Layer 1
10
52.096381
20
49.477183
11
52.175756
21
49.344892
0
LINE
8
Layer 1
10
52.175756
20
49.344892
11
51.540757
21
48.842184
0
LINE
8
Layer 1
10
51.540757
20
48.842184
11
50.932216
21
48.471768
0
LINE
8
Layer 1
10
50.932216
20
48.471768
11
50.376592
21
48.260102
0
LINE
8
Layer 1
10
50.376592
20
48.260102
11
49.926801
21
48.180727
0
LINE
8
Layer 1
10
49.926801
20
48.180727
11
49.715135
21
48.207186
0
LINE
8
Layer 1
10
49.715135
20
48.207186
11
49.556385
21
48.313018
0
LINE
8
Layer 1
10
49.556385
20
48.313018
11
49.450552
21
48.471768
0
LINE
8
Layer 1
10
49.450552
20
48.471768
11
49.397635
21
48.683434
0
LINE
8
Layer 1
10
49.397635
20
48.683434
11
49.477010
21
49.080309
0
LINE
8
Layer 1
10
49.477010
20
49.080309
11
49.688676
21
49.503642
0
LINE
8
Layer 1
10
49.688676
20
49.503642
11
50.006176
21
49.926975
0
LINE
8
Layer 1
10
50.006176
20
49.926975
11
50.455967
21
50.350308
0
LINE
8
Layer 1
10
50.455967
20
50.350308
11
50.852841
21
50.641349
0
LINE
8
Layer 1
10
50.852841
20
50.641349
11
51.249716
21
50.853015
0
LINE
8
Layer 1
10
51.249716
20
50.853015
11
51.646590
21
51.011765
0
LINE
8
Layer 1
10
51.646590
20
51.011765
11
51.990548
21
51.064682
0
LINE
8
Layer 1
10
51.990548
20
51.064682
11
52.149298
21
51.038224
0
LINE
8
Layer 1
10
52.149298
20
51.038224
11
52.255131
21
50.985307
0
LINE
8
Layer 1
10
52.255131
20
50.985307
11
52.334506
21
50.905932
0
LINE
8
Layer 1
10
52.334506
20
50.905932
11
52.360964
21
50.800099
0
LINE
8
Layer 1
10
52.360964
20
50.800099
11
52.202214
21
50.456141
0
LINE
8
Layer 1
10
52.202214
20
50.456141
11
51.725965
21
50.059266
0
LINE
8
Layer 1
10
51.725965
20
50.059266
11
51.011591
21
49.715308
0
LINE
8
Layer 1
10
51.011591
20
49.715308
11
50.112009
21
49.424267
0
LINE
8
Layer 1
10
50.112009
20
49.424267
11
50.112009
21
49.424267
0
LINE
8
Layer 1
10
50.112009
20
49.424267
11
49.926800
21
49.212600
0
LINE
8
Layer 1
10
51.038100
20
49.953400
11
51.620183
21
50.270900
0
LINE
8
Layer 1
10
51.620183
20
50.270900
11
52.017057
21
50.588400
0
LINE
8
Layer 1
10
52.017057
20
50.588400
11
52.149349
21
50.826525
0
LINE
8
Layer 1
10
52.149349
20
50.826525
11
52.149349
21
50.879442
0
LINE
8
Layer 1
10
52.149349
20
50.879442
11
52.122891
21
50.905900
0
LINE
8
Layer 1
10
52.122891
20
50.905900
11
52.069974
21
50.932358
0
LINE
8
Layer 1
10
52.069974
20
50.932358
11
51.990599
21
50.932358
0
LINE
8
Layer 1
10
51.990599
20
50.932358
11
51.673099
21
50.852983
0
LINE
8
Layer 1
10
51.673099
20
50.852983
11
51.276224
21
50.614858
0
LINE
8
Layer 1
10
51.276224
20
50.614858
11
50.826433
21
50.217983
0
LINE
8
Layer 1
10
50.826433
20
50.217983
11
50.350184
21
49.715275
0
LINE
8
Layer 1
10
50.350184
20
49.715275
11
50.350184
21
49.715275
0
LINE
8
Layer 1
10
50.350184
20
49.715275
11
51.038100
21
49.953400
0
LINE
8
Layer 1
10
54.557000
20
49.635900
11
54.636375
21
49.609442
0
LINE
8
Layer 1
10
54.636375
20
49.609442
11
54.689292
21
49.609442
0
LINE
8
Layer 1
10
54.689292
20
49.609442
11
54.742208
21
49.609442
0
LINE
8
Layer 1
10
54.742208
20
49.609442
11
54.795125
21
49.609442
0
LINE
8
Layer 1
10
54.795125
20
49.609442
11
54.848100
21
49.609400
0
LINE
8
Layer 1
10
54.848100
20
49.609400
11
54.953933
21
49.609400
0
LINE
8
Layer 1
10
54.953933
20
49.609400
11
55.059766
21
49.635858
0
LINE
8
Layer 1
10
55.059766
20
49.635858
11
55.165599
21
49.662317
0
LINE
8
Layer 1
10
55.165599
20
49.662317
11
55.271432
21
49.715233
0
LINE
8
Layer 1
10
55.271432
20
49.715233
11
55.324349
21
49.609400
0
LINE
8
Layer 1
10
55.324349
20
49.609400
11
55.218516
21
49.530025
0
LINE
8
Layer 1
10
55.218516
20
49.530025
11
55.086224
21
49.477109
0
LINE
8
Layer 1
10
55.086224
20
49.477109
11
54.953932
21
49.450650
0
LINE
8
Layer 1
10
54.953932
20
49.450650
11
54.795182
21
49.450650
0
LINE
8
Layer 1
10
54.795182
20
49.450650
11
54.689349
21
49.450650
0
LINE
8
Layer 1
10
54.689349
20
49.450650
11
54.583516
21
49.477109
0
LINE
8
Layer 1
10
54.583516
20
49.477109
11
54.530599
21
49.503567
0
LINE
8
Layer 1
10
54.530599
20
49.503567
11
54.477682
21
49.530025
0
LINE
8
Layer 1
10
54.477682
20
49.530025
11
54.424766
21
49.556484
0
LINE
8
Layer 1
10
54.424766
20
49.556484
11
54.371849
21
49.582942
0
LINE
8
Layer 1
10
54.371849
20
49.582942
11
54.054349
21
49.186067
0
LINE
8
Layer 1
10
54.054349
20
49.186067
11
53.710391
21
48.842109
0
LINE
8
Layer 1
10
53.710391
20
48.842109
11
53.551641
21
48.709817
0
LINE
8
Layer 1
10
53.551641
20
48.709817
11
53.392891
21
48.577526
0
LINE
8
Layer 1
10
53.392891
20
48.577526
11
52.890183
21
48.312943
0
LINE
8
Layer 1
10
52.890183
20
48.312943
11
52.440392
21
48.233568
0
LINE
8
Layer 1
10
52.440392
20
48.233568
11
52.228726
21
48.260026
0
LINE
8
Layer 1
10
52.228726
20
48.260026
11
52.069976
21
48.339401
0
LINE
8
Layer 1
10
52.069976
20
48.339401
11
51.964143
21
48.498151
0
LINE
8
Layer 1
10
51.964143
20
48.498151
11
51.937685
21
48.683359
0
LINE
8
Layer 1
10
51.937685
20
48.683359
11
52.017060
21
49.053775
0
LINE
8
Layer 1
10
52.017060
20
49.053775
11
52.228726
21
49.477108
0
LINE
8
Layer 1
10
52.228726
20
49.477108
11
52.546226
21
49.900441
0
LINE
8
Layer 1
10
52.546226
20
49.900441
11
52.969559
21
50.297315
0
LINE
8
Layer 1
10
52.969559
20
50.297315
11
53.313517
21
50.561898
0
LINE
8
Layer 1
10
53.313517
20
50.561898
11
53.631017
21
50.773564
0
LINE
8
Layer 1
10
53.631017
20
50.773564
11
53.710392
21
50.826481
0
LINE
8
Layer 1
10
53.710392
20
50.826481
11
53.789767
21
50.879397
0
LINE
8
Layer 1
10
53.789767
20
50.879397
11
54.186642
21
51.038147
0
LINE
8
Layer 1
10
54.186642
20
51.038147
11
54.530600
21
51.091064
0
LINE
8
Layer 1
10
54.530600
20
51.091064
11
54.689350
21
51.064606
0
LINE
8
Layer 1
10
54.689350
20
51.064606
11
54.821641
21
50.985231
0
LINE
8
Layer 1
10
54.821641
20
50.985231
11
54.901015
21
50.879398
0
LINE
8
Layer 1
10
54.901015
20
50.879398
11
54.927474
21
50.747106
0
LINE
8
Layer 1
10
54.927474
20
50.747106
11
54.901015
21
50.535440
0
LINE
8
Layer 1
10
54.901015
20
50.535440
11
54.821641
21
50.270857
0
LINE
8
Layer 1
10
54.821641
20
50.270857
11
54.689350
21
49.979816
0
LINE
8
Layer 1
10
54.689350
20
49.979816
11
54.504142
21
49.688775
0
LINE
8
Layer 1
10
54.504142
20
49.688775
11
54.504100
21
49.688800
0
LINE
8
Layer 1
10
54.504100
20
49.688800
11
54.557000
21
49.635900
0
LINE
8
Layer 1
10
54.689300
20
50.561900
11
54.689300
21
50.561900
0
LINE
8
Layer 1
10
54.689300
20
50.561900
11
54.689300
21
50.588358
0
LINE
8
Layer 1
10
54.689300
20
50.588358
11
54.689300
21
50.614800
0
LINE
8
Layer 1
10
54.689300
20
50.614800
11
54.689300
21
50.641300
0
LINE
8
Layer 1
10
54.689300
20
50.641300
11
54.689300
21
50.667758
0
LINE
8
Layer 1
10
54.689300
20
50.667758
11
54.689300
21
50.667800
0
LINE
8
Layer 1
10
54.689300
20
50.667800
11
54.689300
21
50.694200
0
LINE
8
Layer 1
10
54.689300
20
50.694200
11
54.662842
21
50.773575
0
LINE
8
Layer 1
10
54.662842
20
50.773575
11
54.609925
21
50.852950
0
LINE
8
Layer 1
10
54.609925
20
50.852950
11
54.557008
21
50.905866
0
LINE
8
Layer 1
10
54.557008
20
50.905866
11
54.477634
21
50.932325
0
LINE
8
Layer 1
10
54.477634
20
50.932325
11
54.213051
21
50.879408
0
LINE
8
Layer 1
10
54.213051
20
50.879408
11
53.895551
21
50.694200
0
LINE
8
Layer 1
10
53.895551
20
50.694200
11
53.525135
21
50.403159
0
LINE
8
Layer 1
10
53.525135
20
50.403159
11
53.101802
21
50.032743
0
LINE
8
Layer 1
10
53.101802
20
50.032743
11
52.704927
21
49.609410
0
LINE
8
Layer 1
10
52.704927
20
49.609410
11
52.413886
21
49.238994
0
LINE
8
Layer 1
10
52.413886
20
49.238994
11
52.228678
21
48.947953
0
LINE
8
Layer 1
10
52.228678
20
48.947953
11
52.175761
21
48.736287
0
LINE
8
Layer 1
10
52.175761
20
48.736287
11
52.202219
21
48.630454
0
LINE
8
Layer 1
10
52.202219
20
48.630454
11
52.255136
21
48.551079
0
LINE
8
Layer 1
10
52.255136
20
48.551079
11
52.360969
21
48.498163
0
LINE
8
Layer 1
10
52.360969
20
48.498163
11
52.493261
21
48.471704
0
LINE
8
Layer 1
10
52.493261
20
48.471704
11
52.863677
21
48.551079
0
LINE
8
Layer 1
10
52.863677
20
48.551079
11
53.260552
21
48.789204
0
LINE
8
Layer 1
10
53.260552
20
48.789204
11
53.710343
21
49.186079
0
LINE
8
Layer 1
10
53.710343
20
49.186079
11
54.239509
21
49.768162
0
LINE
8
Layer 1
10
54.239509
20
49.768162
11
54.239509
21
49.794620
0
LINE
8
Layer 1
10
54.239509
20
49.794620
11
54.239509
21
49.821079
0
LINE
8
Layer 1
10
54.239509
20
49.821079
11
54.213051
21
49.873995
0
LINE
8
Layer 1
10
54.213051
20
49.873995
11
54.213051
21
49.926912
0
LINE
8
Layer 1
10
54.213051
20
49.926912
11
54.186592
21
49.979829
0
LINE
8
Layer 1
10
54.186592
20
49.979829
11
54.186592
21
50.032745
0
LINE
8
Layer 1
10
54.186592
20
50.032745
11
54.186592
21
50.138578
0
LINE
8
Layer 1
10
54.186592
20
50.138578
11
54.213051
21
50.244411
0
LINE
8
Layer 1
10
54.213051
20
50.244411
11
54.265967
21
50.350244
0
LINE
8
Layer 1
10
54.265967
20
50.350244
11
54.318884
21
50.456077
0
LINE
8
Layer 1
10
54.318884
20
50.456077
11
54.477634
21
50.614827
0
LINE
8
Layer 1
10
54.477634
20
50.614827
11
54.689300
21
50.561900
0
LINE
8
Layer 1
10
54.689300
20
50.561900
11
54.689300
21
50.561900
0
LINE
8
Layer 1
10
54.689300
20
50.561900
11
54.689300
21
50.561900
0
LINE
8
Layer 1
10
54.689300
20
50.561900
11
54.689300
21
50.561900
0
LINE
8
Layer 1
10
56.753100
20
50.985300
11
55.192060
21
48.948010
0
LINE
8
Layer 1
10
55.192060
20
48.948010
11
55.112685
21
48.815718
0
LINE
8
Layer 1
10
55.112685
20
48.815718
11
55.059769
21
48.709885
0
LINE
8
Layer 1
10
55.059769
20
48.709885
11
55.006852
21
48.630510
0
LINE
8
Layer 1
10
55.006852
20
48.630510
11
54.980394
21
48.551135
0
LINE
8
Layer 1
10
54.980394
20
48.551135
11
55.006852
21
48.498219
0
LINE
8
Layer 1
10
55.006852
20
48.498219
11
55.033310
21
48.445302
0
LINE
8
Layer 1
10
55.033310
20
48.445302
11
55.086227
21
48.418844
0
LINE
8
Layer 1
10
55.086227
20
48.418844
11
55.165602
21
48.392385
0
LINE
8
Layer 1
10
55.165602
20
48.392385
11
55.668310
21
48.577593
0
LINE
8
Layer 1
10
55.668310
20
48.577593
11
56.382684
21
49.106759
0
LINE
8
Layer 1
10
56.382684
20
49.106759
11
57.202891
21
49.926966
0
LINE
8
Layer 1
10
57.202891
20
49.926966
11
57.996640
21
50.958836
0
LINE
8
Layer 1
10
57.996640
20
50.958836
11
58.525806
21
50.958836
0
LINE
8
Layer 1
10
58.525806
20
50.958836
11
56.911846
21
48.868626
0
LINE
8
Layer 1
10
56.911846
20
48.868626
11
56.885387
21
48.842168
0
LINE
8
Layer 1
10
56.885387
20
48.842168
11
56.753095
21
48.656960
0
LINE
8
Layer 1
10
56.753095
20
48.656960
11
56.700179
21
48.524669
0
LINE
8
Layer 1
10
56.700179
20
48.524669
11
56.726637
21
48.471752
0
LINE
8
Layer 1
10
56.726637
20
48.471752
11
56.753095
21
48.418836
0
LINE
8
Layer 1
10
56.753095
20
48.418836
11
56.806012
21
48.392378
0
LINE
8
Layer 1
10
56.806012
20
48.392378
11
56.858929
21
48.365919
0
LINE
8
Layer 1
10
56.858929
20
48.365919
11
57.097054
21
48.445294
0
LINE
8
Layer 1
10
57.097054
20
48.445294
11
57.441012
21
48.656960
0
LINE
8
Layer 1
10
57.441012
20
48.656960
11
57.890803
21
49.000918
0
LINE
8
Layer 1
10
57.890803
20
49.000918
11
58.419969
21
49.477167
0
LINE
8
Layer 1
10
58.419969
20
49.477167
11
58.552260
21
49.371334
0
LINE
8
Layer 1
10
58.552260
20
49.371334
11
58.049552
21
48.868626
0
LINE
8
Layer 1
10
58.049552
20
48.868626
11
57.573303
21
48.498210
0
LINE
8
Layer 1
10
57.573303
20
48.498210
11
57.176429
21
48.286544
0
LINE
8
Layer 1
10
57.176429
20
48.286544
11
56.858929
21
48.207169
0
LINE
8
Layer 1
10
56.858929
20
48.207169
11
56.726637
21
48.233628
0
LINE
8
Layer 1
10
56.726637
20
48.233628
11
56.620804
21
48.313002
0
LINE
8
Layer 1
10
56.620804
20
48.313002
11
56.567887
21
48.418835
0
LINE
8
Layer 1
10
56.567887
20
48.418835
11
56.541429
21
48.604043
0
LINE
8
Layer 1
10
56.541429
20
48.604043
11
56.541429
21
48.683418
0
LINE
8
Layer 1
10
56.541429
20
48.683418
11
56.567887
21
48.789251
0
LINE
8
Layer 1
10
56.567887
20
48.789251
11
56.594345
21
48.895084
0
LINE
8
Layer 1
10
56.594345
20
48.895084
11
56.620804
21
49.027376
0
LINE
8
Layer 1
10
56.620804
20
49.027376
11
56.197471
21
48.656960
0
LINE
8
Layer 1
10
56.197471
20
48.656960
11
55.800597
21
48.365919
0
LINE
8
Layer 1
10
55.800597
20
48.365919
11
55.430181
21
48.207169
0
LINE
8
Layer 1
10
55.430181
20
48.207169
11
55.139140
21
48.154253
0
LINE
8
Layer 1
10
55.139140
20
48.154253
11
54.980390
21
48.180711
0
LINE
8
Layer 1
10
54.980390
20
48.180711
11
54.874557
21
48.260086
0
LINE
8
Layer 1
10
54.874557
20
48.260086
11
54.795182
21
48.365919
0
LINE
8
Layer 1
10
54.795182
20
48.365919
11
54.768723
21
48.524669
0
LINE
8
Layer 1
10
54.768723
20
48.524669
11
54.795182
21
48.762794
0
LINE
8
Layer 1
10
54.795182
20
48.762794
11
54.874557
21
49.000919
0
LINE
8
Layer 1
10
54.874557
20
49.000919
11
55.033307
21
49.265502
0
LINE
8
Layer 1
10
55.033307
20
49.265502
11
55.244973
21
49.556543
0
LINE
8
Layer 1
10
55.244973
20
49.556543
11
56.250393
21
50.879463
0
LINE
8
Layer 1
10
56.250393
20
50.879463
11
56.753100
21
50.879400
0
LINE
8
Layer 1
10
56.753100
20
50.879400
11
56.753100
21
50.985300
0
LINE
8
Layer 1
10
60.166200
20
50.985300
11
60.166200
21
50.879467
0
LINE
8
Layer 1
10
60.166200
20
50.879467
11
60.166200
21
50.694259
0
LINE
8
Layer 1
10
60.166200
20
50.694259
11
60.166200
21
50.561968
0
LINE
8
Layer 1
10
60.166200
20
50.561968
11
60.166200
21
50.403218
0
LINE
8
Layer 1
10
60.166200
20
50.403218
11
60.166200
21
50.270900
0
LINE
8
Layer 1
10
60.166200
20
50.270900
11
60.033908
21
49.450693
0
LINE
8
Layer 1
10
60.033908
20
49.450693
11
59.663492
21
48.789235
0
LINE
8
Layer 1
10
59.663492
20
48.789235
11
59.107868
21
48.365902
0
LINE
8
Layer 1
10
59.107868
20
48.365902
11
58.419952
21
48.233610
0
LINE
8
Layer 1
10
58.419952
20
48.233610
11
58.208286
21
48.260068
0
LINE
8
Layer 1
10
58.208286
20
48.260068
11
58.049536
21
48.312985
0
LINE
8
Layer 1
10
58.049536
20
48.312985
11
57.943703
21
48.445276
0
LINE
8
Layer 1
10
57.943703
20
48.445276
11
57.917245
21
48.604026
0
LINE
8
Layer 1
10
57.917245
20
48.604026
11
57.943703
21
48.762776
0
LINE
8
Layer 1
10
57.943703
20
48.762776
11
58.023078
21
48.895068
0
LINE
8
Layer 1
10
58.023078
20
48.895068
11
58.128911
21
48.974443
0
LINE
8
Layer 1
10
58.128911
20
48.974443
11
58.261203
21
49.000901
0
LINE
8
Layer 1
10
58.261203
20
49.000901
11
58.340578
21
48.974443
0
LINE
8
Layer 1
10
58.340578
20
48.974443
11
58.419953
21
48.921526
0
LINE
8
Layer 1
10
58.419953
20
48.921526
11
58.472869
21
48.842151
0
LINE
8
Layer 1
10
58.472869
20
48.842151
11
58.499328
21
48.762776
0
LINE
8
Layer 1
10
58.499328
20
48.762776
11
58.472869
21
48.630484
0
LINE
8
Layer 1
10
58.472869
20
48.630484
11
58.367036
21
48.524651
0
LINE
8
Layer 1
10
58.367036
20
48.524651
11
58.261203
21
48.471735
0
LINE
8
Layer 1
10
58.261203
20
48.471735
11
58.234745
21
48.418818
0
LINE
8
Layer 1
10
58.234745
20
48.418818
11
58.234745
21
48.392360
0
LINE
8
Layer 1
10
58.234745
20
48.392360
11
58.261203
21
48.365902
0
LINE
8
Layer 1
10
58.261203
20
48.365902
11
58.314120
21
48.339443
0
LINE
8
Layer 1
10
58.314120
20
48.339443
11
58.393495
21
48.339443
0
LINE
8
Layer 1
10
58.393495
20
48.339443
11
58.922661
21
48.524651
0
LINE
8
Layer 1
10
58.922661
20
48.524651
11
59.425369
21
49.106734
0
LINE
8
Layer 1
10
59.425369
20
49.106734
11
59.795785
21
49.953400
0
LINE
8
Layer 1
10
59.795785
20
49.953400
11
59.954535
21
50.932357
0
LINE
8
Layer 1
10
59.954535
20
50.932357
11
59.610577
21
50.588399
0
LINE
8
Layer 1
10
59.610577
20
50.588399
11
59.266619
21
50.270899
0
LINE
8
Layer 1
10
59.266619
20
50.270899
11
58.922661
21
49.979858
0
LINE
8
Layer 1
10
58.922661
20
49.979858
11
58.578703
21
49.688817
0
LINE
8
Layer 1
10
58.578703
20
49.688817
11
58.472870
21
49.821109
0
LINE
8
Layer 1
10
58.472870
20
49.821109
11
58.790370
21
50.059234
0
LINE
8
Layer 1
10
58.790370
20
50.059234
11
59.134328
21
50.350275
0
LINE
8
Layer 1
10
59.134328
20
50.350275
11
59.504744
21
50.720691
0
LINE
8
Layer 1
10
59.504744
20
50.720691
11
59.980993
21
51.170482
0
LINE
8
Layer 1
10
59.980993
20
51.170482
11
60.033909
21
51.302774
0
LINE
8
Layer 1
10
60.033909
20
51.302774
11
60.086826
21
51.408607
0
LINE
8
Layer 1
10
60.086826
20
51.408607
11
60.139743
21
51.514440
0
LINE
8
Layer 1
10
60.139743
20
51.514440
11
60.192659
21
51.593815
0
LINE
8
Layer 1
10
60.192659
20
51.593815
11
60.298492
21
51.699648
0
LINE
8
Layer 1
10
60.298492
20
51.699648
11
60.404325
21
51.726106
0
LINE
8
Layer 1
10
60.404325
20
51.726106
11
60.457242
21
51.726106
0
LINE
8
Layer 1
10
60.457242
20
51.726106
11
60.483700
21
51.699648
0
LINE
8
Layer 1
10
60.483700
20
51.699648
11
60.510158
21
51.673190
0
LINE
8
Layer 1
10
60.510158
20
51.673190
11
60.510158
21
51.620273
0
LINE
8
Layer 1
10
60.510158
20
51.620273
11
60.483700
21
51.487981
0
LINE
8
Layer 1
10
60.483700
20
51.487981
11
60.404325
21
51.355689
0
LINE
8
Layer 1
10
60.404325
20
51.355689
11
60.272033
21
51.196939
0
LINE
8
Layer 1
10
60.272033
20
51.196939
11
60.086825
21
51.038189
0
LINE
8
Layer 1
10
60.086825
20
51.038189
11
60.086800
21
51.038200
0
LINE
8
Layer 1
10
60.086800
20
51.038200
11
60.166200
21
50.985300
0
LINE
8
Layer 1
10
62.468000
20
49.635900
11
62.097584
21
49.080276
0
LINE
8
Layer 1
10
62.097584
20
49.080276
11
61.885918
21
48.709860
0
LINE
8
Layer 1
10
61.885918
20
48.709860
11
61.806543
21
48.498194
0
LINE
8
Layer 1
10
61.806543
20
48.498194
11
61.806543
21
48.445277
0
LINE
8
Layer 1
10
61.806543
20
48.445277
11
61.833001
21
48.418819
0
LINE
8
Layer 1
10
61.833001
20
48.418819
11
61.859460
21
48.392361
0
LINE
8
Layer 1
10
61.859460
20
48.392361
11
61.912376
21
48.392361
0
LINE
8
Layer 1
10
61.912376
20
48.392361
11
62.176959
21
48.471736
0
LINE
8
Layer 1
10
62.176959
20
48.471736
11
62.547375
21
48.683402
0
LINE
8
Layer 1
10
62.547375
20
48.683402
11
62.997166
21
49.053818
0
LINE
8
Layer 1
10
62.997166
20
49.053818
11
63.526332
21
49.556526
0
LINE
8
Layer 1
10
63.526332
20
49.556526
11
63.632165
21
49.450693
0
LINE
8
Layer 1
10
63.632165
20
49.450693
11
63.102999
21
48.921527
0
LINE
8
Layer 1
10
63.102999
20
48.921527
11
62.626750
21
48.551111
0
LINE
8
Layer 1
10
62.626750
20
48.551111
11
62.229875
21
48.339445
0
LINE
8
Layer 1
10
62.229875
20
48.339445
11
61.912375
21
48.260070
0
LINE
8
Layer 1
10
61.912375
20
48.260070
11
61.753625
21
48.286528
0
LINE
8
Layer 1
10
61.753625
20
48.286528
11
61.647792
21
48.365903
0
LINE
8
Layer 1
10
61.647792
20
48.365903
11
61.568417
21
48.471736
0
LINE
8
Layer 1
10
61.568417
20
48.471736
11
61.541959
21
48.630486
0
LINE
8
Layer 1
10
61.541959
20
48.630486
11
61.700709
21
49.159652
0
LINE
8
Layer 1
10
61.700709
20
49.159652
11
62.176958
21
49.953401
0
LINE
8
Layer 1
10
62.176958
20
49.953401
11
62.917790
21
50.985271
0
LINE
8
Layer 1
10
62.917790
20
50.985271
11
63.949660
21
52.202351
0
LINE
8
Layer 1
10
63.949660
20
52.202351
11
64.716951
21
52.996100
0
LINE
8
Layer 1
10
64.716951
20
52.996100
11
65.431325
21
53.631099
0
LINE
8
Layer 1
10
65.431325
20
53.631099
11
66.039866
21
54.027973
0
LINE
8
Layer 1
10
66.039866
20
54.027973
11
66.463199
21
54.160265
0
LINE
8
Layer 1
10
66.463199
20
54.160265
11
66.569032
21
54.133807
0
LINE
8
Layer 1
10
66.569032
20
54.133807
11
66.648407
21
54.080890
0
LINE
8
Layer 1
10
66.648407
20
54.080890
11
66.701324
21
54.001515
0
LINE
8
Layer 1
10
66.701324
20
54.001515
11
66.727782
21
53.895682
0
LINE
8
Layer 1
10
66.727782
20
53.895682
11
66.489657
21
53.340058
0
LINE
8
Layer 1
10
66.489657
20
53.340058
11
65.748825
21
52.519851
0
LINE
8
Layer 1
10
65.748825
20
52.519851
11
64.584655
21
51.514431
0
LINE
8
Layer 1
10
64.584655
20
51.514431
11
63.050075
21
50.403181
0
LINE
8
Layer 1
10
63.050075
20
50.403181
11
63.050100
21
50.403200
0
LINE
8
Layer 1
10
63.050100
20
50.403200
11
62.468000
21
49.635900
0
LINE
8
Layer 1
10
64.611200
20
51.752600
11
65.616620
21
52.652182
0
LINE
8
Layer 1
10
65.616620
20
52.652182
11
66.278077
21
53.366556
0
LINE
8
Layer 1
10
66.278077
20
53.366556
11
66.489743
21
53.816347
0
LINE
8
Layer 1
10
66.489743
20
53.816347
11
66.489743
21
53.895722
0
LINE
8
Layer 1
10
66.489743
20
53.895722
11
66.463285
21
53.922180
0
LINE
8
Layer 1
10
66.463285
20
53.922180
11
66.410368
21
53.948639
0
LINE
8
Layer 1
10
66.410368
20
53.948639
11
66.330993
21
53.948639
0
LINE
8
Layer 1
10
66.330993
20
53.948639
11
65.854744
21
53.736973
0
LINE
8
Layer 1
10
65.854744
20
53.736973
11
65.140370
21
53.101973
0
LINE
8
Layer 1
10
65.140370
20
53.101973
11
64.267246
21
52.096553
0
LINE
8
Layer 1
10
64.267246
20
52.096553
11
63.314747
21
50.800093
0
LINE
8
Layer 1
10
63.314747
20
50.800093
11
63.314700
21
50.800100
0
LINE
8
Layer 1
10
63.314700
20
50.800100
11
64.611200
21
51.752600
0
LINE
8
Layer 1
10
66.013500
20
49.635900
11
66.092875
21
49.609442
0
LINE
8
Layer 1
10
66.092875
20
49.609442
11
66.145792
21
49.609442
0
LINE
8
Layer 1
10
66.145792
20
49.609442
11
66.198708
21
49.609442
0
LINE
8
Layer 1
10
66.198708
20
49.609442
11
66.251625
21
49.609442
0
LINE
8
Layer 1
10
66.251625
20
49.609442
11
66.304500
21
49.609400
0
LINE
8
Layer 1
10
66.304500
20
49.609400
11
66.410333
21
49.609400
0
LINE
8
Layer 1
10
66.410333
20
49.609400
11
66.516166
21
49.635858
0
LINE
8
Layer 1
10
66.516166
20
49.635858
11
66.621999
21
49.662317
0
LINE
8
Layer 1
10
66.621999
20
49.662317
11
66.727832
21
49.715233
0
LINE
8
Layer 1
10
66.727832
20
49.715233
11
66.780749
21
49.609400
0
LINE
8
Layer 1
10
66.780749
20
49.609400
11
66.674916
21
49.530025
0
LINE
8
Layer 1
10
66.674916
20
49.530025
11
66.542625
21
49.477109
0
LINE
8
Layer 1
10
66.542625
20
49.477109
11
66.410333
21
49.450650
0
LINE
8
Layer 1
10
66.410333
20
49.450650
11
66.251583
21
49.450650
0
LINE
8
Layer 1
10
66.251583
20
49.450650
11
66.145750
21
49.450650
0
LINE
8
Layer 1
10
66.145750
20
49.450650
11
66.039917
21
49.477109
0
LINE
8
Layer 1
10
66.039917
20
49.477109
11
65.987000
21
49.503567
0
LINE
8
Layer 1
10
65.987000
20
49.503567
11
65.934083
21
49.530025
0
LINE
8
Layer 1
10
65.934083
20
49.530025
11
65.881167
21
49.556484
0
LINE
8
Layer 1
10
65.881167
20
49.556484
11
65.828250
21
49.582942
0
LINE
8
Layer 1
10
65.828250
20
49.582942
11
65.510750
21
49.186067
0
LINE
8
Layer 1
10
65.510750
20
49.186067
11
65.166792
21
48.842109
0
LINE
8
Layer 1
10
65.166792
20
48.842109
11
65.008042
21
48.709817
0
LINE
8
Layer 1
10
65.008042
20
48.709817
11
64.849292
21
48.577526
0
LINE
8
Layer 1
10
64.849292
20
48.577526
11
64.346584
21
48.312943
0
LINE
8
Layer 1
10
64.346584
20
48.312943
11
63.896793
21
48.233568
0
LINE
8
Layer 1
10
63.896793
20
48.233568
11
63.685127
21
48.260026
0
LINE
8
Layer 1
10
63.685127
20
48.260026
11
63.526377
21
48.339401
0
LINE
8
Layer 1
10
63.526377
20
48.339401
11
63.420544
21
48.498151
0
LINE
8
Layer 1
10
63.420544
20
48.498151
11
63.394086
21
48.683359
0
LINE
8
Layer 1
10
63.394086
20
48.683359
11
63.473461
21
49.053775
0
LINE
8
Layer 1
10
63.473461
20
49.053775
11
63.685127
21
49.477108
0
LINE
8
Layer 1
10
63.685127
20
49.477108
11
64.002627
21
49.900441
0
LINE
8
Layer 1
10
64.002627
20
49.900441
11
64.425960
21
50.297315
0
LINE
8
Layer 1
10
64.425960
20
50.297315
11
64.769918
21
50.561898
0
LINE
8
Layer 1
10
64.769918
20
50.561898
11
65.087418
21
50.773564
0
LINE
8
Layer 1
10
65.087418
20
50.773564
11
65.166793
21
50.826481
0
LINE
8
Layer 1
10
65.166793
20
50.826481
11
65.246168
21
50.879397
0
LINE
8
Layer 1
10
65.246168
20
50.879397
11
65.643042
21
51.038147
0
LINE
8
Layer 1
10
65.643042
20
51.038147
11
65.987000
21
51.091064
0
LINE
8
Layer 1
10
65.987000
20
51.091064
11
66.145750
21
51.064606
0
LINE
8
Layer 1
10
66.145750
20
51.064606
11
66.278041
21
50.985231
0
LINE
8
Layer 1
10
66.278041
20
50.985231
11
66.357416
21
50.879398
0
LINE
8
Layer 1
10
66.357416
20
50.879398
11
66.383874
21
50.747106
0
LINE
8
Layer 1
10
66.383874
20
50.747106
11
66.357416
21
50.535440
0
LINE
8
Layer 1
10
66.357416
20
50.535440
11
66.278041
21
50.270857
0
LINE
8
Layer 1
10
66.278041
20
50.270857
11
66.145750
21
49.979816
0
LINE
8
Layer 1
10
66.145750
20
49.979816
11
65.960542
21
49.688775
0
LINE
8
Layer 1
10
65.960542
20
49.688775
11
65.960500
21
49.688800
0
LINE
8
Layer 1
10
65.960500
20
49.688800
11
66.013500
21
49.635900
0
LINE
8
Layer 1
10
66.145800
20
50.561900
11
66.145800
21
50.561900
0
LINE
8
Layer 1
10
66.145800
20
50.561900
11
66.145800
21
50.588358
0
LINE
8
Layer 1
10
66.145800
20
50.588358
11
66.145800
21
50.614800
0
LINE
8
Layer 1
10
66.145800
20
50.614800
11
66.145800
21
50.641300
0
LINE
8
Layer 1
10
66.145800
20
50.641300
11
66.145800
21
50.667758
0
LINE
8
Layer 1
10
66.145800
20
50.667758
11
66.145800
21
50.667800
0
LINE
8
Layer 1
10
66.145800
20
50.667800
11
66.145800
21
50.694200
0
LINE
8
Layer 1
10
66.145800
20
50.694200
11
66.145800
21
50.773575
0
LINE
8
Layer 1
10
66.145800
20
50.773575
11
66.092883
21
50.852950
0
LINE
8
Layer 1
10
66.092883
20
50.852950
11
66.039967
21
50.905866
0
LINE
8
Layer 1
10
66.039967
20
50.905866
11
65.960592
21
50.932325
0
LINE
8
Layer 1
10
65.960592
20
50.932325
11
65.696009
21
50.879408
0
LINE
8
Layer 1
10
65.696009
20
50.879408
11
65.378509
21
50.694200
0
LINE
8
Layer 1
10
65.378509
20
50.694200
11
65.008093
21
50.403159
0
LINE
8
Layer 1
10
65.008093
20
50.403159
11
64.584760
21
50.032743
0
LINE
8
Layer 1
10
64.584760
20
50.032743
11
64.187885
21
49.609410
0
LINE
8
Layer 1
10
64.187885
20
49.609410
11
63.896844
21
49.238994
0
LINE
8
Layer 1
10
63.896844
20
49.238994
11
63.711636
21
48.947953
0
LINE
8
Layer 1
10
63.711636
20
48.947953
11
63.658719
21
48.736287
0
LINE
8
Layer 1
10
63.658719
20
48.736287
11
63.685178
21
48.630454
0
LINE
8
Layer 1
10
63.685178
20
48.630454
11
63.738094
21
48.551079
0
LINE
8
Layer 1
10
63.738094
20
48.551079
11
63.843927
21
48.498163
0
LINE
8
Layer 1
10
63.843927
20
48.498163
11
63.976218
21
48.471704
0
LINE
8
Layer 1
10
63.976218
20
48.471704
11
64.346634
21
48.551079
0
LINE
8
Layer 1
10
64.346634
20
48.551079
11
64.743509
21
48.789204
0
LINE
8
Layer 1
10
64.743509
20
48.789204
11
65.193300
21
49.186079
0
LINE
8
Layer 1
10
65.193300
20
49.186079
11
65.722466
21
49.768162
0
LINE
8
Layer 1
10
65.722466
20
49.768162
11
65.722466
21
49.794620
0
LINE
8
Layer 1
10
65.722466
20
49.794620
11
65.722466
21
49.821079
0
LINE
8
Layer 1
10
65.722466
20
49.821079
11
65.696008
21
49.873995
0
LINE
8
Layer 1
10
65.696008
20
49.873995
11
65.696008
21
49.926912
0
LINE
8
Layer 1
10
65.696008
20
49.926912
11
65.669550
21
49.979829
0
LINE
8
Layer 1
10
65.669550
20
49.979829
11
65.669550
21
50.032745
0
LINE
8
Layer 1
10
65.669550
20
50.032745
11
65.669550
21
50.138578
0
LINE
8
Layer 1
10
65.669550
20
50.138578
11
65.696008
21
50.244411
0
LINE
8
Layer 1
10
65.696008
20
50.244411
11
65.748924
21
50.350244
0
LINE
8
Layer 1
10
65.748924
20
50.350244
11
65.801841
21
50.456077
0
LINE
8
Layer 1
10
65.801841
20
50.456077
11
65.960591
21
50.614827
0
LINE
8
Layer 1
10
65.960591
20
50.614827
11
66.145800
21
50.561900
0
LINE
8
Layer 1
10
66.145800
20
50.561900
11
66.145800
21
50.561900
0
LINE
8
Layer 1
10
66.145800
20
50.561900
11
66.145800
21
50.561900
0
LINE
8
Layer 1
10
66.145800
20
50.561900
11
66.145800
21
50.561900
0
LINE
8
Layer 1
10
68.632800
20
50.270900
11
68.791550
21
50.667775
0
LINE
8
Layer 1
10
68.791550
20
50.667775
11
68.897383
21
50.826525
0
LINE
8
Layer 1
10
68.897383
20
50.826525
11
69.003216
21
50.932358
0
LINE
8
Layer 1
10
69.003216
20
50.932358
11
69.109049
21
51.011733
0
LINE
8
Layer 1
10
69.109049
20
51.011733
11
69.214882
21
51.038191
0
LINE
8
Layer 1
10
69.214882
20
51.038191
11
69.267799
21
51.011733
0
LINE
8
Layer 1
10
69.267799
20
51.011733
11
69.320715
21
50.958816
0
LINE
8
Layer 1
10
69.320715
20
50.958816
11
69.347174
21
50.905900
0
LINE
8
Layer 1
10
69.347174
20
50.905900
11
69.373632
21
50.826525
0
LINE
8
Layer 1
10
69.373632
20
50.826525
11
69.320715
21
50.641317
0
LINE
8
Layer 1
10
69.320715
20
50.641317
11
69.214882
21
50.376734
0
LINE
8
Layer 1
10
69.214882
20
50.376734
11
69.029674
21
50.085693
0
LINE
8
Layer 1
10
69.029674
20
50.085693
11
68.765091
21
49.715277
0
LINE
8
Layer 1
10
68.765091
20
49.715277
11
68.818008
21
49.688818
0
LINE
8
Layer 1
10
68.818008
20
49.688818
11
68.870924
21
49.662360
0
LINE
8
Layer 1
10
68.870924
20
49.662360
11
68.923841
21
49.635902
0
LINE
8
Layer 1
10
68.923841
20
49.635902
11
68.976758
21
49.609444
0
LINE
8
Layer 1
10
68.976758
20
49.609444
11
69.082591
21
49.582985
0
LINE
8
Layer 1
10
69.082591
20
49.582985
11
69.188424
21
49.582985
0
LINE
8
Layer 1
10
69.188424
20
49.582985
11
69.294257
21
49.582985
0
LINE
8
Layer 1
10
69.294257
20
49.582985
11
69.400090
21
49.609444
0
LINE
8
Layer 1
10
69.400090
20
49.609444
11
69.505923
21
49.635902
0
LINE
8
Layer 1
10
69.505923
20
49.635902
11
69.611756
21
49.688818
0
LINE
8
Layer 1
10
69.611756
20
49.688818
11
69.664672
21
49.582985
0
LINE
8
Layer 1
10
69.664672
20
49.582985
11
69.558839
21
49.503611
0
LINE
8
Layer 1
10
69.558839
20
49.503611
11
69.453006
21
49.450694
0
LINE
8
Layer 1
10
69.453006
20
49.450694
11
69.347173
21
49.424236
0
LINE
8
Layer 1
10
69.347173
20
49.424236
11
69.241340
21
49.424236
0
LINE
8
Layer 1
10
69.241340
20
49.424236
11
69.109049
21
49.450694
0
LINE
8
Layer 1
10
69.109049
20
49.450694
11
68.976757
21
49.477152
0
LINE
8
Layer 1
10
68.976757
20
49.477152
11
68.870924
21
49.530069
0
LINE
8
Layer 1
10
68.870924
20
49.530069
11
68.765091
21
49.609444
0
LINE
8
Layer 1
10
68.765091
20
49.609444
11
68.262383
21
49.027361
0
LINE
8
Layer 1
10
68.262383
20
49.027361
11
67.786134
21
48.577570
0
LINE
8
Layer 1
10
67.786134
20
48.577570
11
67.309885
21
48.312987
0
LINE
8
Layer 1
10
67.309885
20
48.312987
11
66.913011
21
48.233612
0
LINE
8
Layer 1
10
66.913011
20
48.233612
11
66.727803
21
48.260070
0
LINE
8
Layer 1
10
66.727803
20
48.260070
11
66.569053
21
48.365903
0
LINE
8
Layer 1
10
66.569053
20
48.365903
11
66.463220
21
48.524653
0
LINE
8
Layer 1
10
66.463220
20
48.524653
11
66.436762
21
48.736319
0
LINE
8
Layer 1
10
66.436762
20
48.736319
11
66.463220
21
48.974444
0
LINE
8
Layer 1
10
66.463220
20
48.974444
11
66.569053
21
49.265485
0
LINE
8
Layer 1
10
66.569053
20
49.265485
11
66.727803
21
49.582985
0
LINE
8
Layer 1
10
66.727803
20
49.582985
11
66.965928
21
49.900485
0
LINE
8
Layer 1
10
66.965928
20
49.900485
11
67.812594
21
51.011735
0
LINE
8
Layer 1
10
67.812594
20
51.011735
11
68.315300
21
51.011700
0
LINE
8
Layer 1
10
68.315300
20
51.011700
11
66.992390
21
49.265450
0
LINE
8
Layer 1
10
66.992390
20
49.265450
11
66.860098
21
49.053784
0
LINE
8
Layer 1
10
66.860098
20
49.053784
11
66.754265
21
48.868576
0
LINE
8
Layer 1
10
66.754265
20
48.868576
11
66.701348
21
48.736285
0
LINE
8
Layer 1
10
66.701348
20
48.736285
11
66.674890
21
48.630452
0
LINE
8
Layer 1
10
66.674890
20
48.630452
11
66.701348
21
48.551077
0
LINE
8
Layer 1
10
66.701348
20
48.551077
11
66.754265
21
48.471702
0
LINE
8
Layer 1
10
66.754265
20
48.471702
11
66.833640
21
48.418786
0
LINE
8
Layer 1
10
66.833640
20
48.418786
11
66.939473
21
48.418786
0
LINE
8
Layer 1
10
66.939473
20
48.418786
11
67.309889
21
48.524619
0
LINE
8
Layer 1
10
67.309889
20
48.524619
11
67.759680
21
48.815660
0
LINE
8
Layer 1
10
67.759680
20
48.815660
11
68.235929
21
49.265451
0
LINE
8
Layer 1
10
68.235929
20
49.265451
11
68.712178
21
49.847534
0
LINE
8
Layer 1
10
68.712178
20
49.847534
11
68.712200
21
49.847600
0
LINE
8
Layer 1
10
68.712200
20
49.847600
11
68.612987
21
50.059213
0
LINE
8
Layer 1
10
68.612987
20
50.059213
11
68.632800
21
50.270900
0
LINE
8
Layer 1
10
69.532400
20
49.212600
11
69.373650
21
48.974475
0
LINE
8
Layer 1
10
69.373650
20
48.974475
11
69.294275
21
48.789267
0
LINE
8
Layer 1
10
69.294275
20
48.789267
11
69.267817
21
48.656976
0
LINE
8
Layer 1
10
69.267817
20
48.656976
11
69.294275
21
48.551143
0
LINE
8
Layer 1
10
69.294275
20
48.551143
11
69.347192
21
48.471768
0
LINE
8
Layer 1
10
69.347192
20
48.471768
11
69.453025
21
48.418852
0
LINE
8
Layer 1
10
69.453025
20
48.418852
11
69.585316
21
48.392393
0
LINE
8
Layer 1
10
69.585316
20
48.392393
11
70.008649
21
48.471768
0
LINE
8
Layer 1
10
70.008649
20
48.471768
11
70.537815
21
48.683434
0
LINE
8
Layer 1
10
70.537815
20
48.683434
11
71.093439
21
49.027392
0
LINE
8
Layer 1
10
71.093439
20
49.027392
11
71.701980
21
49.477183
0
LINE
8
Layer 1
10
71.701980
20
49.477183
11
71.781355
21
49.344892
0
LINE
8
Layer 1
10
71.781355
20
49.344892
11
71.146356
21
48.842184
0
LINE
8
Layer 1
10
71.146356
20
48.842184
11
70.537815
21
48.471768
0
LINE
8
Layer 1
10
70.537815
20
48.471768
11
69.982191
21
48.260102
0
LINE
8
Layer 1
10
69.982191
20
48.260102
11
69.532400
21
48.180727
0
LINE
8
Layer 1
10
69.532400
20
48.180727
11
69.320734
21
48.207186
0
LINE
8
Layer 1
10
69.320734
20
48.207186
11
69.161984
21
48.313018
0
LINE
8
Layer 1
10
69.161984
20
48.313018
11
69.056151
21
48.471768
0
LINE
8
Layer 1
10
69.056151
20
48.471768
11
69.003234
21
48.683434
0
LINE
8
Layer 1
10
69.003234
20
48.683434
11
69.082609
21
49.080309
0
LINE
8
Layer 1
10
69.082609
20
49.080309
11
69.294275
21
49.503642
0
LINE
8
Layer 1
10
69.294275
20
49.503642
11
69.611775
21
49.926975
0
LINE
8
Layer 1
10
69.611775
20
49.926975
11
70.061566
21
50.350308
0
LINE
8
Layer 1
10
70.061566
20
50.350308
11
70.458441
21
50.641349
0
LINE
8
Layer 1
10
70.458441
20
50.641349
11
70.855315
21
50.853015
0
LINE
8
Layer 1
10
70.855315
20
50.853015
11
71.252189
21
51.011765
0
LINE
8
Layer 1
10
71.252189
20
51.011765
11
71.596147
21
51.064682
0
LINE
8
Layer 1
10
71.596147
20
51.064682
11
71.754897
21
51.038224
0
LINE
8
Layer 1
10
71.754897
20
51.038224
11
71.860730
21
50.985307
0
LINE
8
Layer 1
10
71.860730
20
50.985307
11
71.940105
21
50.905932
0
LINE
8
Layer 1
10
71.940105
20
50.905932
11
71.966563
21
50.800099
0
LINE
8
Layer 1
10
71.966563
20
50.800099
11
71.807813
21
50.456141
0
LINE
8
Layer 1
10
71.807813
20
50.456141
11
71.331564
21
50.059266
0
LINE
8
Layer 1
10
71.331564
20
50.059266
11
70.617190
21
49.715308
0
LINE
8
Layer 1
10
70.617190
20
49.715308
11
69.717608
21
49.424267
0
LINE
8
Layer 1
10
69.717608
20
49.424267
11
69.717608
21
49.424267
0
LINE
8
Layer 1
10
69.717608
20
49.424267
11
69.532400
21
49.212600
0
LINE
8
Layer 1
10
70.617200
20
49.953400
11
71.199283
21
50.270900
0
LINE
8
Layer 1
10
71.199283
20
50.270900
11
71.596157
21
50.588400
0
LINE
8
Layer 1
10
71.596157
20
50.588400
11
71.728448
21
50.826525
0
LINE
8
Layer 1
10
71.728448
20
50.826525
11
71.728448
21
50.879442
0
LINE
8
Layer 1
10
71.728448
20
50.879442
11
71.701990
21
50.905900
0
LINE
8
Layer 1
10
71.701990
20
50.905900
11
71.649073
21
50.932358
0
LINE
8
Layer 1
10
71.649073
20
50.932358
11
71.569698
21
50.932358
0
LINE
8
Layer 1
10
71.569698
20
50.932358
11
71.252198
21
50.852983
0
LINE
8
Layer 1
10
71.252198
20
50.852983
11
70.855324
21
50.614858
0
LINE
8
Layer 1
10
70.855324
20
50.614858
11
70.405533
21
50.217983
0
LINE
8
Layer 1
10
70.405533
20
50.217983
11
69.929284
21
49.715275
0
LINE
8
Layer 1
10
69.929284
20
49.715275
11
69.929284
21
49.715275
0
LINE
8
Layer 1
10
69.929284
20
49.715275
11
70.617200
21
49.953400
0
LINE
8
Layer 1
10
70.617200
20
47.598600
11
71.040533
21
47.757350
0
LINE
8
Layer 1
10
71.040533
20
47.757350
11
71.358033
21
47.942558
0
LINE
8
Layer 1
10
71.358033
20
47.942558
11
71.569699
21
48.127766
0
LINE
8
Layer 1
10
71.569699
20
48.127766
11
71.649074
21
48.312974
0
LINE
8
Layer 1
10
71.649074
20
48.312974
11
71.649074
21
48.339432
0
LINE
8
Layer 1
10
71.649074
20
48.339432
11
71.622616
21
48.392349
0
LINE
8
Layer 1
10
71.622616
20
48.392349
11
71.596157
21
48.471724
0
LINE
8
Layer 1
10
71.596157
20
48.471724
11
71.596157
21
48.524640
0
LINE
8
Layer 1
10
71.596157
20
48.524640
11
71.622616
21
48.683390
0
LINE
8
Layer 1
10
71.622616
20
48.683390
11
71.728449
21
48.815682
0
LINE
8
Layer 1
10
71.728449
20
48.815682
11
71.860741
21
48.895057
0
LINE
8
Layer 1
10
71.860741
20
48.895057
11
72.019491
21
48.921516
0
LINE
8
Layer 1
10
72.019491
20
48.921516
11
72.125324
21
48.895057
0
LINE
8
Layer 1
10
72.125324
20
48.895057
11
72.204699
21
48.842141
0
LINE
8
Layer 1
10
72.204699
20
48.842141
11
72.257615
21
48.762766
0
LINE
8
Layer 1
10
72.257615
20
48.762766
11
72.284073
21
48.656933
0
LINE
8
Layer 1
10
72.284073
20
48.656933
11
72.178240
21
48.339433
0
LINE
8
Layer 1
10
72.178240
20
48.339433
11
71.834282
21
48.021933
0
LINE
8
Layer 1
10
71.834282
20
48.021933
11
71.331574
21
47.704433
0
LINE
8
Layer 1
10
71.331574
20
47.704433
11
70.696575
21
47.439850
0
LINE
8
Layer 1
10
70.696575
20
47.439850
11
70.696600
21
47.439900
0
LINE
8
Layer 1
10
70.696600
20
47.439900
11
70.617200
21
47.598600
0
LINE
8
Layer 1
10
70.617200
20
47.598600
11
70.617200
21
47.598600
0
LINE
8
Layer 1
10
48.815600
20
45.693600
11
48.180601
21
44.846934
0
LINE
8
Layer 1
10
48.180601
20
44.846934
11
49.053700
21
44.846900
0
LINE
8
Layer 1
10
49.053700
20
44.846900
11
48.921408
21
44.661692
0
LINE
8
Layer 1
10
48.921408
20
44.661692
11
48.048300
21
44.661700
0
LINE
8
Layer 1
10
48.048300
20
44.661700
11
46.249140
21
42.253990
0
LINE
8
Layer 1
10
46.249140
20
42.253990
11
46.222682
21
42.174615
0
LINE
8
Layer 1
10
46.222682
20
42.174615
11
46.169765
21
42.095240
0
LINE
8
Layer 1
10
46.169765
20
42.095240
11
46.143307
21
42.015865
0
LINE
8
Layer 1
10
46.143307
20
42.015865
11
46.116848
21
41.962949
0
LINE
8
Layer 1
10
46.116848
20
41.962949
11
46.063932
21
41.857116
0
LINE
8
Layer 1
10
46.063932
20
41.857116
11
46.037474
21
41.777741
0
LINE
8
Layer 1
10
46.037474
20
41.777741
11
46.037474
21
41.724824
0
LINE
8
Layer 1
10
46.037474
20
41.724824
11
46.063932
21
41.698366
0
LINE
8
Layer 1
10
46.063932
20
41.698366
11
46.116848
21
41.671908
0
LINE
8
Layer 1
10
46.116848
20
41.671908
11
46.196223
21
41.671908
0
LINE
8
Layer 1
10
46.196223
20
41.671908
11
46.434348
21
41.751283
0
LINE
8
Layer 1
10
46.434348
20
41.751283
11
46.778306
21
41.962949
0
LINE
8
Layer 1
10
46.778306
20
41.962949
11
47.201639
21
42.306907
0
LINE
8
Layer 1
10
47.201639
20
42.306907
11
47.704347
21
42.756698
0
LINE
8
Layer 1
10
47.704347
20
42.756698
11
47.810180
21
42.677323
0
LINE
8
Layer 1
10
47.810180
20
42.677323
11
47.307472
21
42.174615
0
LINE
8
Layer 1
10
47.307472
20
42.174615
11
46.857681
21
41.804199
0
LINE
8
Layer 1
10
46.857681
20
41.804199
11
46.434348
21
41.592533
0
LINE
8
Layer 1
10
46.434348
20
41.592533
11
46.090390
21
41.513158
0
LINE
8
Layer 1
10
46.090390
20
41.513158
11
45.958098
21
41.539616
0
LINE
8
Layer 1
10
45.958098
20
41.539616
11
45.852265
21
41.618991
0
LINE
8
Layer 1
10
45.852265
20
41.618991
11
45.772890
21
41.724824
0
LINE
8
Layer 1
10
45.772890
20
41.724824
11
45.746432
21
41.857116
0
LINE
8
Layer 1
10
45.746432
20
41.857116
11
45.772890
21
42.095241
0
LINE
8
Layer 1
10
45.772890
20
42.095241
11
45.878723
21
42.386282
0
LINE
8
Layer 1
10
45.878723
20
42.386282
11
46.037473
21
42.703782
0
LINE
8
Layer 1
10
46.037473
20
42.703782
11
46.249139
21
43.047740
0
LINE
8
Layer 1
10
46.249139
20
43.047740
11
47.439759
21
44.661700
0
LINE
8
Layer 1
10
47.439759
20
44.661700
11
46.804700
21
44.661700
0
LINE
8
Layer 1
10
46.804700
20
44.661700
11
46.936992
21
44.846908
0
LINE
8
Layer 1
10
46.936992
20
44.846908
11
47.572000
21
44.846900
0
LINE
8
Layer 1
10
47.572000
20
44.846900
11
48.206999
21
45.693566
0
LINE
8
Layer 1
10
48.206999
20
45.693566
11
48.815600
21
45.693600
0
LINE
8
Layer 1
10
48.815600
20
45.693600
11
48.815600
21
45.693600
0
LINE
8
Layer 1
10
50.244300
20
42.889000
11
50.323675
21
42.862542
0
LINE
8
Layer 1
10
50.323675
20
42.862542
11
50.376592
21
42.862542
0
LINE
8
Layer 1
10
50.376592
20
42.862542
11
50.429508
21
42.862542
0
LINE
8
Layer 1
10
50.429508
20
42.862542
11
50.482425
21
42.862542
0
LINE
8
Layer 1
10
50.482425
20
42.862542
11
50.535400
21
42.862600
0
LINE
8
Layer 1
10
50.535400
20
42.862600
11
50.641233
21
42.862600
0
LINE
8
Layer 1
10
50.641233
20
42.862600
11
50.747066
21
42.889058
0
LINE
8
Layer 1
10
50.747066
20
42.889058
11
50.852899
21
42.915517
0
LINE
8
Layer 1
10
50.852899
20
42.915517
11
50.958732
21
42.968433
0
LINE
8
Layer 1
10
50.958732
20
42.968433
11
51.011649
21
42.862600
0
LINE
8
Layer 1
10
51.011649
20
42.862600
11
50.905816
21
42.783225
0
LINE
8
Layer 1
10
50.905816
20
42.783225
11
50.773524
21
42.730309
0
LINE
8
Layer 1
10
50.773524
20
42.730309
11
50.641233
21
42.703850
0
LINE
8
Layer 1
10
50.641233
20
42.703850
11
50.482483
21
42.703850
0
LINE
8
Layer 1
10
50.482483
20
42.703850
11
50.376650
21
42.703850
0
LINE
8
Layer 1
10
50.376650
20
42.703850
11
50.270817
21
42.730309
0
LINE
8
Layer 1
10
50.270817
20
42.730309
11
50.217900
21
42.756767
0
LINE
8
Layer 1
10
50.217900
20
42.756767
11
50.164983
21
42.783225
0
LINE
8
Layer 1
10
50.164983
20
42.783225
11
50.112067
21
42.809684
0
LINE
8
Layer 1
10
50.112067
20
42.809684
11
50.059150
21
42.836142
0
LINE
8
Layer 1
10
50.059150
20
42.836142
11
49.741650
21
42.439268
0
LINE
8
Layer 1
10
49.741650
20
42.439268
11
49.397692
21
42.095310
0
LINE
8
Layer 1
10
49.397692
20
42.095310
11
49.238942
21
41.963018
0
LINE
8
Layer 1
10
49.238942
20
41.963018
11
49.080192
21
41.830726
0
LINE
8
Layer 1
10
49.080192
20
41.830726
11
48.577484
21
41.566143
0
LINE
8
Layer 1
10
48.577484
20
41.566143
11
48.127693
21
41.486768
0
LINE
8
Layer 1
10
48.127693
20
41.486768
11
47.916027
21
41.513226
0
LINE
8
Layer 1
10
47.916027
20
41.513226
11
47.757277
21
41.592601
0
LINE
8
Layer 1
10
47.757277
20
41.592601
11
47.651444
21
41.751351
0
LINE
8
Layer 1
10
47.651444
20
41.751351
11
47.624986
21
41.936559
0
LINE
8
Layer 1
10
47.624986
20
41.936559
11
47.704361
21
42.306975
0
LINE
8
Layer 1
10
47.704361
20
42.306975
11
47.916027
21
42.730308
0
LINE
8
Layer 1
10
47.916027
20
42.730308
11
48.233527
21
43.153641
0
LINE
8
Layer 1
10
48.233527
20
43.153641
11
48.656860
21
43.550516
0
LINE
8
Layer 1
10
48.656860
20
43.550516
11
49.000818
21
43.815099
0
LINE
8
Layer 1
10
49.000818
20
43.815099
11
49.318318
21
44.026765
0
LINE
8
Layer 1
10
49.318318
20
44.026765
11
49.397693
21
44.079682
0
LINE
8
Layer 1
10
49.397693
20
44.079682
11
49.477068
21
44.132598
0
LINE
8
Layer 1
10
49.477068
20
44.132598
11
49.873943
21
44.291348
0
LINE
8
Layer 1
10
49.873943
20
44.291348
11
50.217901
21
44.344265
0
LINE
8
Layer 1
10
50.217901
20
44.344265
11
50.376651
21
44.317807
0
LINE
8
Layer 1
10
50.376651
20
44.317807
11
50.508943
21
44.238432
0
LINE
8
Layer 1
10
50.508943
20
44.238432
11
50.588317
21
44.132599
0
LINE
8
Layer 1
10
50.588317
20
44.132599
11
50.614776
21
44.000307
0
LINE
8
Layer 1
10
50.614776
20
44.000307
11
50.588317
21
43.788641
0
LINE
8
Layer 1
10
50.588317
20
43.788641
11
50.508943
21
43.524058
0
LINE
8
Layer 1
10
50.508943
20
43.524058
11
50.376651
21
43.233017
0
LINE
8
Layer 1
10
50.376651
20
43.233017
11
50.191443
21
42.941976
0
LINE
8
Layer 1
10
50.191443
20
42.941976
11
50.191400
21
42.941900
0
LINE
8
Layer 1
10
50.191400
20
42.941900
11
50.244300
21
42.889000
0
LINE
8
Layer 1
10
50.376600
20
43.815100
11
50.376600
21
43.815100
0
LINE
8
Layer 1
10
50.376600
20
43.815100
11
50.376600
21
43.841558
0
LINE
8
Layer 1
10
50.376600
20
43.841558
11
50.376600
21
43.868000
0
LINE
8
Layer 1
10
50.376600
20
43.868000
11
50.376600
21
43.894400
0
LINE
8
Layer 1
10
50.376600
20
43.894400
11
50.376600
21
43.920858
0
LINE
8
Layer 1
10
50.376600
20
43.920858
11
50.376600
21
43.947400
0
LINE
8
Layer 1
10
50.376600
20
43.947400
11
50.376600
21
43.973800
0
LINE
8
Layer 1
10
50.376600
20
43.973800
11
50.350142
21
44.053175
0
LINE
8
Layer 1
10
50.350142
20
44.053175
11
50.297225
21
44.132550
0
LINE
8
Layer 1
10
50.297225
20
44.132550
11
50.244308
21
44.185466
0
LINE
8
Layer 1
10
50.244308
20
44.185466
11
50.164934
21
44.211925
0
LINE
8
Layer 1
10
50.164934
20
44.211925
11
49.900351
21
44.159008
0
LINE
8
Layer 1
10
49.900351
20
44.159008
11
49.582851
21
43.973800
0
LINE
8
Layer 1
10
49.582851
20
43.973800
11
49.212435
21
43.682759
0
LINE
8
Layer 1
10
49.212435
20
43.682759
11
48.789102
21
43.312343
0
LINE
8
Layer 1
10
48.789102
20
43.312343
11
48.392228
21
42.889010
0
LINE
8
Layer 1
10
48.392228
20
42.889010
11
48.101187
21
42.518594
0
LINE
8
Layer 1
10
48.101187
20
42.518594
11
47.915979
21
42.227553
0
LINE
8
Layer 1
10
47.915979
20
42.227553
11
47.863062
21
42.015887
0
LINE
8
Layer 1
10
47.863062
20
42.015887
11
47.889520
21
41.910054
0
LINE
8
Layer 1
10
47.889520
20
41.910054
11
47.942437
21
41.830679
0
LINE
8
Layer 1
10
47.942437
20
41.830679
11
48.048270
21
41.777763
0
LINE
8
Layer 1
10
48.048270
20
41.777763
11
48.180562
21
41.751304
0
LINE
8
Layer 1
10
48.180562
20
41.751304
11
48.550978
21
41.830679
0
LINE
8
Layer 1
10
48.550978
20
41.830679
11
48.947853
21
42.068804
0
LINE
8
Layer 1
10
48.947853
20
42.068804
11
49.397644
21
42.465678
0
LINE
8
Layer 1
10
49.397644
20
42.465678
11
49.926810
21
43.047761
0
LINE
8
Layer 1
10
49.926810
20
43.047761
11
49.926810
21
43.074219
0
LINE
8
Layer 1
10
49.926810
20
43.074219
11
49.926810
21
43.100678
0
LINE
8
Layer 1
10
49.926810
20
43.100678
11
49.900352
21
43.153594
0
LINE
8
Layer 1
10
49.900352
20
43.153594
11
49.900352
21
43.206511
0
LINE
8
Layer 1
10
49.900352
20
43.206511
11
49.873893
21
43.259428
0
LINE
8
Layer 1
10
49.873893
20
43.259428
11
49.873893
21
43.312344
0
LINE
8
Layer 1
10
49.873893
20
43.312344
11
49.873893
21
43.418177
0
LINE
8
Layer 1
10
49.873893
20
43.418177
11
49.900352
21
43.524010
0
LINE
8
Layer 1
10
49.900352
20
43.524010
11
49.953268
21
43.629843
0
LINE
8
Layer 1
10
49.953268
20
43.629843
11
50.006185
21
43.735676
0
LINE
8
Layer 1
10
50.006185
20
43.735676
11
50.164935
21
43.894426
0
LINE
8
Layer 1
10
50.164935
20
43.894426
11
50.376600
21
43.815100
0
LINE
8
Layer 1
10
50.376600
20
43.815100
11
50.376600
21
43.815100
0
LINE
8
Layer 1
10
50.376600
20
43.815100
11
50.376600
21
43.815100
0
LINE
8
Layer 1
10
50.376600
20
43.815100
11
50.376600
21
43.815100
0
LINE
8
Layer 1
10
58.790300
20
45.958200
11
57.890718
21
44.661740
0
LINE
8
Layer 1
10
57.890718
20
44.661740
11
57.044052
21
43.418200
0
LINE
8
Layer 1
10
57.044052
20
43.418200
11
56.250303
21
42.174660
0
LINE
8
Layer 1
10
56.250303
20
42.174660
11
56.541344
21
42.254035
0
LINE
8
Layer 1
10
56.541344
20
42.254035
11
56.779469
21
42.359868
0
LINE
8
Layer 1
10
56.779469
20
42.359868
11
57.017594
21
42.518618
0
LINE
8
Layer 1
10
57.017594
20
42.518618
11
57.255719
21
42.730284
0
LINE
8
Layer 1
10
57.255719
20
42.730284
11
57.361552
21
42.624451
0
LINE
8
Layer 1
10
57.361552
20
42.624451
11
57.096969
21
42.359868
0
LINE
8
Layer 1
10
57.096969
20
42.359868
11
56.805928
21
42.148202
0
LINE
8
Layer 1
10
56.805928
20
42.148202
11
56.461970
21
42.015910
0
LINE
8
Layer 1
10
56.461970
20
42.015910
11
56.091554
21
41.962993
0
LINE
8
Layer 1
10
56.091554
20
41.962993
11
55.879888
21
41.619035
0
LINE
8
Layer 1
10
55.879888
20
41.619035
11
55.350800
21
41.619000
0
LINE
8
Layer 1
10
55.350800
20
41.619000
11
55.588925
21
41.989416
0
LINE
8
Layer 1
10
55.588925
20
41.989416
11
55.244967
21
42.068791
0
LINE
8
Layer 1
10
55.244967
20
42.068791
11
54.927467
21
42.174624
0
LINE
8
Layer 1
10
54.927467
20
42.174624
11
54.609967
21
42.333374
0
LINE
8
Layer 1
10
54.609967
20
42.333374
11
54.292467
21
42.545040
0
LINE
8
Layer 1
10
54.292467
20
42.545040
11
53.657468
21
42.068791
0
LINE
8
Layer 1
10
53.657468
20
42.068791
11
53.128302
21
41.751291
0
LINE
8
Layer 1
10
53.128302
20
41.751291
11
52.678511
21
41.566083
0
LINE
8
Layer 1
10
52.678511
20
41.566083
11
52.255178
21
41.513166
0
LINE
8
Layer 1
10
52.255178
20
41.513166
11
51.990595
21
41.566083
0
LINE
8
Layer 1
10
51.990595
20
41.566083
11
51.778929
21
41.671916
0
LINE
8
Layer 1
10
51.778929
20
41.671916
11
51.646637
21
41.857124
0
LINE
8
Layer 1
10
51.646637
20
41.857124
11
51.593720
21
42.095249
0
LINE
8
Layer 1
10
51.593720
20
42.095249
11
51.646637
21
42.333374
0
LINE
8
Layer 1
10
51.646637
20
42.333374
11
51.778929
21
42.545040
0
LINE
8
Layer 1
10
51.778929
20
42.545040
11
51.911221
21
42.650873
0
LINE
8
Layer 1
10
51.911221
20
42.650873
11
52.043513
21
42.730248
0
LINE
8
Layer 1
10
52.043513
20
42.730248
11
52.122888
21
42.756706
0
LINE
8
Layer 1
10
52.122888
20
42.756706
11
52.202263
21
42.756706
0
LINE
8
Layer 1
10
52.202263
20
42.756706
11
52.334554
21
42.730248
0
LINE
8
Layer 1
10
52.334554
20
42.730248
11
52.440387
21
42.677331
0
LINE
8
Layer 1
10
52.440387
20
42.677331
11
52.493303
21
42.597956
0
LINE
8
Layer 1
10
52.493303
20
42.597956
11
52.519762
21
42.492123
0
LINE
8
Layer 1
10
52.519762
20
42.492123
11
52.493303
21
42.386290
0
LINE
8
Layer 1
10
52.493303
20
42.386290
11
52.440387
21
42.280457
0
LINE
8
Layer 1
10
52.440387
20
42.280457
11
52.334554
21
42.201082
0
LINE
8
Layer 1
10
52.334554
20
42.201082
11
52.228721
21
42.174624
0
LINE
8
Layer 1
10
52.228721
20
42.174624
11
52.175804
21
42.174624
0
LINE
8
Layer 1
10
52.175804
20
42.174624
11
52.096429
21
42.201082
0
LINE
8
Layer 1
10
52.096429
20
42.201082
11
52.043513
21
42.227541
0
LINE
8
Layer 1
10
52.043513
20
42.227541
11
52.017054
21
42.227541
0
LINE
8
Layer 1
10
52.017054
20
42.227541
11
51.937679
21
42.201082
0
LINE
8
Layer 1
10
51.937679
20
42.201082
11
51.884763
21
42.148166
0
LINE
8
Layer 1
10
51.884763
20
42.148166
11
51.858305
21
42.068791
0
LINE
8
Layer 1
10
51.858305
20
42.068791
11
51.858305
21
41.962958
0
LINE
8
Layer 1
10
51.858305
20
41.962958
11
51.884763
21
41.830666
0
LINE
8
Layer 1
10
51.884763
20
41.830666
11
51.990596
21
41.724833
0
LINE
8
Layer 1
10
51.990596
20
41.724833
11
52.149346
21
41.645458
0
LINE
8
Layer 1
10
52.149346
20
41.645458
11
52.361012
21
41.619000
0
LINE
8
Layer 1
10
52.361012
20
41.619000
11
52.731428
21
41.698375
0
LINE
8
Layer 1
10
52.731428
20
41.698375
11
53.181219
21
41.883583
0
LINE
8
Layer 1
10
53.181219
20
41.883583
11
53.657468
21
42.201083
0
LINE
8
Layer 1
10
53.657468
20
42.201083
11
54.186634
21
42.650874
0
LINE
8
Layer 1
10
54.186634
20
42.650874
11
53.842676
21
43.074207
0
LINE
8
Layer 1
10
53.842676
20
43.074207
11
53.604551
21
43.523998
0
LINE
8
Layer 1
10
53.604551
20
43.523998
11
53.472259
21
44.000247
0
LINE
8
Layer 1
10
53.472259
20
44.000247
11
53.419342
21
44.450038
0
LINE
8
Layer 1
10
53.419342
20
44.450038
11
53.498717
21
44.979204
0
LINE
8
Layer 1
10
53.498717
20
44.979204
11
53.736842
21
45.402537
0
LINE
8
Layer 1
10
53.736842
20
45.402537
11
54.080800
21
45.693578
0
LINE
8
Layer 1
10
54.080800
20
45.693578
11
54.530591
21
45.799411
0
LINE
8
Layer 1
10
54.530591
20
45.799411
11
54.953924
21
45.693578
0
LINE
8
Layer 1
10
54.953924
20
45.693578
11
55.350799
21
45.402537
0
LINE
8
Layer 1
10
55.350799
20
45.402537
11
55.694757
21
44.979204
0
LINE
8
Layer 1
10
55.694757
20
44.979204
11
55.932882
21
44.423580
0
LINE
8
Layer 1
10
55.932882
20
44.423580
11
57.202882
21
45.746490
0
LINE
8
Layer 1
10
57.202882
20
45.746490
11
58.208302
21
46.646072
0
LINE
8
Layer 1
10
58.208302
20
46.646072
11
58.975593
21
47.148780
0
LINE
8
Layer 1
10
58.975593
20
47.148780
11
59.584134
21
47.307530
0
LINE
8
Layer 1
10
59.584134
20
47.307530
11
59.663509
21
47.307530
0
LINE
8
Layer 1
10
59.663509
20
47.307530
11
59.742884
21
47.281071
0
LINE
8
Layer 1
10
59.742884
20
47.281071
11
59.769342
21
47.281071
0
LINE
8
Layer 1
10
59.769342
20
47.281071
11
59.795800
21
47.281100
0
LINE
8
Layer 1
10
59.795800
20
47.281100
11
59.795800
21
47.281100
0
LINE
8
Layer 1
10
59.795800
20
47.281100
11
58.790300
21
45.958200
0
LINE
8
Layer 1
10
55.615300
20
44.846900
11
55.324259
21
45.243775
0
LINE
8
Layer 1
10
55.324259
20
45.243775
11
54.980301
21
45.508358
0
LINE
8
Layer 1
10
54.980301
20
45.508358
11
54.609885
21
45.587733
0
LINE
8
Layer 1
10
54.609885
20
45.587733
11
54.239469
21
45.508358
0
LINE
8
Layer 1
10
54.239469
20
45.508358
11
53.948428
21
45.243775
0
LINE
8
Layer 1
10
53.948428
20
45.243775
11
53.763220
21
44.873359
0
LINE
8
Layer 1
10
53.763220
20
44.873359
11
53.710303
21
44.397110
0
LINE
8
Layer 1
10
53.710303
20
44.397110
11
53.710303
21
44.185444
0
LINE
8
Layer 1
10
53.710303
20
44.185444
11
53.736762
21
43.973778
0
LINE
8
Layer 1
10
53.736762
20
43.973778
11
53.789678
21
43.762112
0
LINE
8
Layer 1
10
53.789678
20
43.762112
11
53.869053
21
43.550446
0
LINE
8
Layer 1
10
53.869053
20
43.550446
11
54.080719
21
43.153571
0
LINE
8
Layer 1
10
54.080719
20
43.153571
11
54.371760
21
42.783155
0
LINE
8
Layer 1
10
54.371760
20
42.783155
11
54.768634
21
43.127113
0
LINE
8
Layer 1
10
54.768634
20
43.127113
11
55.139050
21
43.497529
0
LINE
8
Layer 1
10
55.139050
20
43.497529
11
55.483008
21
43.867945
0
LINE
8
Layer 1
10
55.483008
20
43.867945
11
55.826966
21
44.264820
0
LINE
8
Layer 1
10
55.826966
20
44.264820
11
55.827000
21
44.264900
0
LINE
8
Layer 1
10
55.827000
20
44.264900
11
55.615300
21
44.846900
0
LINE
8
Layer 1
10
55.668300
20
43.920900
11
55.456634
21
43.709234
0
LINE
8
Layer 1
10
55.456634
20
43.709234
11
54.874551
21
43.127151
0
LINE
8
Layer 1
10
54.874551
20
43.127151
11
54.477676
21
42.730276
0
LINE
8
Layer 1
10
54.477676
20
42.730276
11
54.742259
21
42.518610
0
LINE
8
Layer 1
10
54.742259
20
42.518610
11
55.033300
21
42.359860
0
LINE
8
Layer 1
10
55.033300
20
42.359860
11
55.350800
21
42.254027
0
LINE
8
Layer 1
10
55.350800
20
42.254027
11
55.694758
21
42.174652
0
LINE
8
Layer 1
10
55.694758
20
42.174652
11
55.774133
21
42.465693
0
LINE
8
Layer 1
10
55.774133
20
42.465693
11
55.827050
21
42.783193
0
LINE
8
Layer 1
10
55.827050
20
42.783193
11
55.853508
21
43.153609
0
LINE
8
Layer 1
10
55.853508
20
43.153609
11
55.879966
21
43.550484
0
LINE
8
Layer 1
10
55.879966
20
43.550484
11
55.879900
21
43.629900
0
LINE
8
Layer 1
10
55.879900
20
43.629900
11
55.879900
21
43.709200
0
LINE
8
Layer 1
10
55.879900
20
43.709200
11
55.879900
21
43.788575
0
LINE
8
Layer 1
10
55.879900
20
43.788575
11
55.879900
21
43.868000
0
LINE
8
Layer 1
10
55.879900
20
43.868000
11
55.853442
21
44.000292
0
LINE
8
Layer 1
10
55.853442
20
44.000292
11
55.826983
21
44.132583
0
LINE
8
Layer 1
10
55.826983
20
44.132583
11
55.827000
21
44.132600
0
LINE
8
Layer 1
10
55.827000
20
44.132600
11
55.668300
21
43.920900
0
LINE
8
Layer 1
10
58.869700
20
46.937100
11
58.102409
21
46.381476
0
LINE
8
Layer 1
10
58.102409
20
46.381476
11
57.149910
21
45.481894
0
LINE
8
Layer 1
10
57.149910
20
45.481894
11
56.012200
21
44.264814
0
LINE
8
Layer 1
10
56.012200
20
44.264814
11
56.012200
21
44.211897
0
LINE
8
Layer 1
10
56.012200
20
44.211897
11
56.012200
21
44.132522
0
LINE
8
Layer 1
10
56.012200
20
44.132522
11
56.038658
21
44.026689
0
LINE
8
Layer 1
10
56.038658
20
44.026689
11
56.038658
21
43.920856
0
LINE
8
Layer 1
10
56.038658
20
43.920856
11
56.065117
21
43.762107
0
LINE
8
Layer 1
10
56.065117
20
43.762107
11
56.065117
21
43.629815
0
LINE
8
Layer 1
10
56.065117
20
43.629815
11
56.065117
21
43.312314
0
LINE
8
Layer 1
10
56.065117
20
43.312314
11
56.038658
21
43.047731
0
LINE
8
Layer 1
10
56.038658
20
43.047731
11
56.012200
21
42.809607
0
LINE
8
Layer 1
10
56.012200
20
42.809607
11
55.959283
21
42.571482
0
LINE
8
Layer 1
10
55.959283
20
42.571482
11
56.726574
21
43.682732
0
LINE
8
Layer 1
10
56.726574
20
43.682732
11
57.546781
21
44.793982
0
LINE
8
Layer 1
10
57.546781
20
44.793982
11
58.446363
21
45.958151
0
LINE
8
Layer 1
10
58.446363
20
45.958151
11
59.451783
21
47.148772
0
LINE
8
Layer 1
10
59.451783
20
47.148772
11
59.451800
21
47.148800
0
LINE
8
Layer 1
10
59.451800
20
47.148800
11
58.869700
21
46.937100
0
LINE
8
Layer 1
10
60.695300
20
43.815100
11
61.118633
21
44.106141
0
LINE
8
Layer 1
10
61.118633
20
44.106141
11
61.515508
21
44.291349
0
LINE
8
Layer 1
10
61.515508
20
44.291349
11
61.833008
21
44.344266
0
LINE
8
Layer 1
10
61.833008
20
44.344266
11
61.991758
21
44.317807
0
LINE
8
Layer 1
10
61.991758
20
44.317807
11
62.097591
21
44.264891
0
LINE
8
Layer 1
10
62.097591
20
44.264891
11
62.176966
21
44.159058
0
LINE
8
Layer 1
10
62.176966
20
44.159058
11
62.203424
21
44.026766
0
LINE
8
Layer 1
10
62.203424
20
44.026766
11
62.176966
21
43.868016
0
LINE
8
Layer 1
10
62.176966
20
43.868016
11
62.097591
21
43.656350
0
LINE
8
Layer 1
10
62.097591
20
43.656350
11
61.965299
21
43.418225
0
LINE
8
Layer 1
10
61.965299
20
43.418225
11
61.780091
21
43.180100
0
LINE
8
Layer 1
10
61.780091
20
43.180100
11
60.959884
21
42.227601
0
LINE
8
Layer 1
10
60.959884
20
42.227601
11
60.854051
21
42.068851
0
LINE
8
Layer 1
10
60.854051
20
42.068851
11
60.774676
21
41.963018
0
LINE
8
Layer 1
10
60.774676
20
41.963018
11
60.721759
21
41.883643
0
LINE
8
Layer 1
10
60.721759
20
41.883643
11
60.695301
21
41.830726
0
LINE
8
Layer 1
10
60.695301
20
41.830726
11
60.695301
21
41.777810
0
LINE
8
Layer 1
10
60.695301
20
41.777810
11
60.721759
21
41.751351
0
LINE
8
Layer 1
10
60.721759
20
41.751351
11
60.774676
21
41.724893
0
LINE
8
Layer 1
10
60.774676
20
41.724893
11
60.827593
21
41.724893
0
LINE
8
Layer 1
10
60.827593
20
41.724893
11
61.118634
21
41.804268
0
LINE
8
Layer 1
10
61.118634
20
41.804268
11
61.515509
21
42.015934
0
LINE
8
Layer 1
10
61.515509
20
42.015934
11
62.018217
21
42.359892
0
LINE
8
Layer 1
10
62.018217
20
42.359892
11
62.600300
21
42.836141
0
LINE
8
Layer 1
10
62.600300
20
42.836141
11
62.706133
21
42.730308
0
LINE
8
Layer 1
10
62.706133
20
42.730308
11
62.150509
21
42.201142
0
LINE
8
Layer 1
10
62.150509
20
42.201142
11
61.621343
21
41.830726
0
LINE
8
Layer 1
10
61.621343
20
41.830726
11
61.145094
21
41.619060
0
LINE
8
Layer 1
10
61.145094
20
41.619060
11
60.774678
21
41.539685
0
LINE
8
Layer 1
10
60.774678
20
41.539685
11
60.642386
21
41.566143
0
LINE
8
Layer 1
10
60.642386
20
41.566143
11
60.536553
21
41.619060
0
LINE
8
Layer 1
10
60.536553
20
41.619060
11
60.483636
21
41.724893
0
LINE
8
Layer 1
10
60.483636
20
41.724893
11
60.457178
21
41.883643
0
LINE
8
Layer 1
10
60.457178
20
41.883643
11
60.483636
21
42.068851
0
LINE
8
Layer 1
10
60.483636
20
42.068851
11
60.563011
21
42.280517
0
LINE
8
Layer 1
10
60.563011
20
42.280517
11
60.695303
21
42.518642
0
LINE
8
Layer 1
10
60.695303
20
42.518642
11
60.880511
21
42.756767
0
LINE
8
Layer 1
10
60.880511
20
42.756767
11
61.700718
21
43.709266
0
LINE
8
Layer 1
10
61.700718
20
43.709266
11
61.780093
21
43.815099
0
LINE
8
Layer 1
10
61.780093
20
43.815099
11
61.833010
21
43.894474
0
LINE
8
Layer 1
10
61.833010
20
43.894474
11
61.885926
21
43.973849
0
LINE
8
Layer 1
10
61.885926
20
43.973849
11
61.912384
21
44.026765
0
LINE
8
Layer 1
10
61.912384
20
44.026765
11
61.912384
21
44.079682
0
LINE
8
Layer 1
10
61.912384
20
44.079682
11
61.885926
21
44.132599
0
LINE
8
Layer 1
10
61.885926
20
44.132599
11
61.833010
21
44.159057
0
LINE
8
Layer 1
10
61.833010
20
44.159057
11
61.753635
21
44.159057
0
LINE
8
Layer 1
10
61.753635
20
44.159057
11
61.224469
21
43.973849
0
LINE
8
Layer 1
10
61.224469
20
43.973849
11
60.483637
21
43.444683
0
LINE
8
Layer 1
10
60.483637
20
43.444683
11
59.663430
21
42.624476
0
LINE
8
Layer 1
10
59.663430
20
42.624476
11
58.843223
21
41.592606
0
LINE
8
Layer 1
10
58.843223
20
41.592606
11
58.340600
21
41.592600
0
LINE
8
Layer 1
10
58.340600
20
41.592600
11
59.981010
21
43.709260
0
LINE
8
Layer 1
10
59.981010
20
43.709260
11
60.007468
21
43.762177
0
LINE
8
Layer 1
10
60.007468
20
43.762177
11
60.139760
21
43.920927
0
LINE
8
Layer 1
10
60.139760
20
43.920927
11
60.192677
21
44.026760
0
LINE
8
Layer 1
10
60.192677
20
44.026760
11
60.192677
21
44.079676
0
LINE
8
Layer 1
10
60.192677
20
44.079676
11
60.166219
21
44.132593
0
LINE
8
Layer 1
10
60.166219
20
44.132593
11
60.113302
21
44.159051
0
LINE
8
Layer 1
10
60.113302
20
44.159051
11
60.060385
21
44.159051
0
LINE
8
Layer 1
10
60.060385
20
44.159051
11
59.531219
21
43.973843
0
LINE
8
Layer 1
10
59.531219
20
43.973843
11
58.790387
21
43.444677
0
LINE
8
Layer 1
10
58.790387
20
43.444677
11
58.525804
21
43.206552
0
LINE
8
Layer 1
10
58.525804
20
43.206552
11
58.261221
21
42.941969
0
LINE
8
Layer 1
10
58.261221
20
42.941969
11
57.705597
21
42.333428
0
LINE
8
Layer 1
10
57.705597
20
42.333428
11
57.176431
21
41.619054
0
LINE
8
Layer 1
10
57.176431
20
41.619054
11
56.647200
21
41.619000
0
LINE
8
Layer 1
10
56.647200
20
41.619000
11
58.605110
21
44.238370
0
LINE
8
Layer 1
10
58.605110
20
44.238370
11
59.054900
21
44.238400
0
LINE
8
Layer 1
10
59.054900
20
44.238400
11
58.446359
21
43.418193
0
LINE
8
Layer 1
10
58.446359
20
43.418193
11
58.949067
21
43.815068
0
LINE
8
Layer 1
10
58.949067
20
43.815068
11
59.372400
21
44.106109
0
LINE
8
Layer 1
10
59.372400
20
44.106109
11
59.742816
21
44.291317
0
LINE
8
Layer 1
10
59.742816
20
44.291317
11
60.060316
21
44.344234
0
LINE
8
Layer 1
10
60.060316
20
44.344234
11
60.219066
21
44.317775
0
LINE
8
Layer 1
10
60.219066
20
44.317775
11
60.324899
21
44.264859
0
LINE
8
Layer 1
10
60.324899
20
44.264859
11
60.404274
21
44.159026
0
LINE
8
Layer 1
10
60.404274
20
44.159026
11
60.430732
21
44.026734
0
LINE
8
Layer 1
10
60.430732
20
44.026734
11
60.377816
21
43.841526
0
LINE
8
Layer 1
10
60.377816
20
43.841526
11
60.219066
21
43.524026
0
LINE
8
Layer 1
10
60.219066
20
43.524026
11
60.192607
21
43.471109
0
LINE
8
Layer 1
10
60.192607
20
43.471109
11
60.166149
21
43.444651
0
LINE
8
Layer 1
10
60.166149
20
43.444651
11
60.166200
21
43.444600
0
LINE
8
Layer 1
10
60.166200
20
43.444600
11
60.695300
21
43.815100
0
LINE
8
Layer 1
10
64.134900
20
44.238400
11
62.573860
21
42.201110
0
LINE
8
Layer 1
10
62.573860
20
42.201110
11
62.494485
21
42.095277
0
LINE
8
Layer 1
10
62.494485
20
42.095277
11
62.441569
21
41.989444
0
LINE
8
Layer 1
10
62.441569
20
41.989444
11
62.388652
21
41.883611
0
LINE
8
Layer 1
10
62.388652
20
41.883611
11
62.362194
21
41.804236
0
LINE
8
Layer 1
10
62.362194
20
41.804236
11
62.388652
21
41.751320
0
LINE
8
Layer 1
10
62.388652
20
41.751320
11
62.415110
21
41.698403
0
LINE
8
Layer 1
10
62.415110
20
41.698403
11
62.468027
21
41.671945
0
LINE
8
Layer 1
10
62.468027
20
41.671945
11
62.547402
21
41.645486
0
LINE
8
Layer 1
10
62.547402
20
41.645486
11
63.050110
21
41.830694
0
LINE
8
Layer 1
10
63.050110
20
41.830694
11
63.738026
21
42.359860
0
LINE
8
Layer 1
10
63.738026
20
42.359860
11
64.531775
21
43.180067
0
LINE
8
Layer 1
10
64.531775
20
43.180067
11
65.351982
21
44.211937
0
LINE
8
Layer 1
10
65.351982
20
44.211937
11
65.828231
21
44.211937
0
LINE
8
Layer 1
10
65.828231
20
44.211937
11
63.976151
21
41.751317
0
LINE
8
Layer 1
10
63.976151
20
41.751317
11
64.346567
21
41.910067
0
LINE
8
Layer 1
10
64.346567
20
41.910067
11
64.690525
21
42.095275
0
LINE
8
Layer 1
10
64.690525
20
42.095275
11
64.849275
21
42.174650
0
LINE
8
Layer 1
10
64.849275
20
42.174650
11
65.008025
21
42.254025
0
LINE
8
Layer 1
10
65.008025
20
42.254025
11
65.431358
21
42.518608
0
LINE
8
Layer 1
10
65.431358
20
42.518608
11
65.801774
21
42.809649
0
LINE
8
Layer 1
10
65.801774
20
42.809649
11
65.907607
21
42.677357
0
LINE
8
Layer 1
10
65.907607
20
42.677357
11
65.457816
21
42.333399
0
LINE
8
Layer 1
10
65.457816
20
42.333399
11
64.955108
21
42.015899
0
LINE
8
Layer 1
10
64.955108
20
42.015899
11
64.399484
21
41.724858
0
LINE
8
Layer 1
10
64.399484
20
41.724858
11
63.790943
21
41.486733
0
LINE
8
Layer 1
10
63.790943
20
41.486733
11
63.076569
21
40.560693
0
LINE
8
Layer 1
10
63.076569
20
40.560693
11
62.362195
21
39.846319
0
LINE
8
Layer 1
10
62.362195
20
39.846319
11
61.700738
21
39.396528
0
LINE
8
Layer 1
10
61.700738
20
39.396528
11
61.145114
21
39.264236
0
LINE
8
Layer 1
10
61.145114
20
39.264236
11
60.986364
21
39.290694
0
LINE
8
Layer 1
10
60.986364
20
39.290694
11
60.854073
21
39.343611
0
LINE
8
Layer 1
10
60.854073
20
39.343611
11
60.774698
21
39.422986
0
LINE
8
Layer 1
10
60.774698
20
39.422986
11
60.748240
21
39.555278
0
LINE
8
Layer 1
10
60.748240
20
39.555278
11
60.933448
21
40.005069
0
LINE
8
Layer 1
10
60.933448
20
40.005069
11
61.489072
21
40.507777
0
LINE
8
Layer 1
10
61.489072
20
40.507777
11
62.335738
21
41.010485
0
LINE
8
Layer 1
10
62.335738
20
41.010485
11
63.394068
21
41.460276
0
LINE
8
Layer 1
10
63.394068
20
41.460276
11
64.134900
21
42.439233
0
LINE
8
Layer 1
10
64.134900
20
42.439233
11
63.658651
21
41.989442
0
LINE
8
Layer 1
10
63.658651
20
41.989442
11
63.208860
21
41.671942
0
LINE
8
Layer 1
10
63.208860
20
41.671942
11
62.811985
21
41.486734
0
LINE
8
Layer 1
10
62.811985
20
41.486734
11
62.494484
21
41.433817
0
LINE
8
Layer 1
10
62.494484
20
41.433817
11
62.335735
21
41.460276
0
LINE
8
Layer 1
10
62.335735
20
41.460276
11
62.229902
21
41.539651
0
LINE
8
Layer 1
10
62.229902
20
41.539651
11
62.150527
21
41.645483
0
LINE
8
Layer 1
10
62.150527
20
41.645483
11
62.124068
21
41.804233
0
LINE
8
Layer 1
10
62.124068
20
41.804233
11
62.150527
21
42.042358
0
LINE
8
Layer 1
10
62.150527
20
42.042358
11
62.229902
21
42.306941
0
LINE
8
Layer 1
10
62.229902
20
42.306941
11
62.388652
21
42.597982
0
LINE
8
Layer 1
10
62.388652
20
42.597982
11
62.600318
21
42.889023
0
LINE
8
Layer 1
10
62.600318
20
42.889023
11
63.605738
21
44.185483
0
LINE
8
Layer 1
10
63.605738
20
44.185483
11
64.134900
21
44.185500
0
LINE
8
Layer 1
10
64.134900
20
44.185500
11
64.134900
21
44.238400
0
LINE
8
Layer 1
10
62.335800
20
40.904700
11
61.621426
21
40.454909
0
LINE
8
Layer 1
10
61.621426
20
40.454909
11
61.145177
21
40.031576
0
LINE
8
Layer 1
10
61.145177
20
40.031576
11
60.986427
21
39.687618
0
LINE
8
Layer 1
10
60.986427
20
39.687618
11
61.012885
21
39.608243
0
LINE
8
Layer 1
10
61.012885
20
39.608243
11
61.039344
21
39.555326
0
LINE
8
Layer 1
10
61.039344
20
39.555326
11
61.118718
21
39.528868
0
LINE
8
Layer 1
10
61.118718
20
39.528868
11
61.198093
21
39.502410
0
LINE
8
Layer 1
10
61.198093
20
39.502410
11
61.568509
21
39.608243
0
LINE
8
Layer 1
10
61.568509
20
39.608243
11
62.018300
21
39.925743
0
LINE
8
Layer 1
10
62.018300
20
39.925743
11
62.573924
21
40.481367
0
LINE
8
Layer 1
10
62.573924
20
40.481367
11
63.261840
21
41.301574
0
LINE
8
Layer 1
10
63.261840
20
41.301574
11
63.261800
21
41.301500
0
LINE
8
Layer 1
10
63.261800
20
41.301500
11
62.335800
21
40.904700
0
LINE
8
Layer 1
10
49.609300
20
32.067600
11
48.180550
21
30.294890
0
LINE
8
Layer 1
10
48.180550
20
30.294890
11
47.201593
21
28.945520
0
LINE
8
Layer 1
10
47.201593
20
28.945520
11
46.884093
21
28.310521
0
LINE
8
Layer 1
10
46.884093
20
28.310521
11
46.884100
21
28.310500
0
LINE
8
Layer 1
10
46.884100
20
28.310500
11
46.884100
21
28.284042
0
LINE
8
Layer 1
10
46.884100
20
28.284042
11
46.884100
21
28.257583
0
LINE
8
Layer 1
10
46.884100
20
28.257583
11
46.910558
21
28.257583
0
LINE
8
Layer 1
10
46.910558
20
28.257583
11
46.937017
21
28.231125
0
LINE
8
Layer 1
10
46.937017
20
28.231125
11
46.963475
21
28.231125
0
LINE
8
Layer 1
10
46.963475
20
28.231125
11
47.439724
21
28.601541
0
LINE
8
Layer 1
10
47.439724
20
28.601541
11
48.445144
21
29.739251
0
LINE
8
Layer 1
10
48.445144
20
29.739251
11
48.762644
21
30.109667
0
LINE
8
Layer 1
10
48.762644
20
30.109667
11
48.974310
21
30.400708
0
LINE
8
Layer 1
10
48.974310
20
30.400708
11
50.535350
21
32.199868
0
LINE
8
Layer 1
10
50.535350
20
32.199868
11
51.593680
21
33.258198
0
LINE
8
Layer 1
10
51.593680
20
33.258198
11
52.334512
21
33.760906
0
LINE
8
Layer 1
10
52.334512
20
33.760906
11
52.969511
21
33.919656
0
LINE
8
Layer 1
10
52.969511
20
33.919656
11
53.022400
21
33.919700
0
LINE
8
Layer 1
10
53.022400
20
33.919700
11
53.048900
21
33.919700
0
LINE
8
Layer 1
10
53.048900
20
33.919700
11
53.101800
21
33.919700
0
LINE
8
Layer 1
10
53.101800
20
33.919700
11
53.154717
21
33.919700
0
LINE
8
Layer 1
10
53.154717
20
33.919700
11
51.487847
21
31.935330
0
LINE
8
Layer 1
10
51.487847
20
31.935330
11
50.164927
21
30.242000
0
LINE
8
Layer 1
10
50.164927
20
30.242000
11
49.291803
21
28.998460
0
LINE
8
Layer 1
10
49.291803
20
28.998460
11
49.000762
21
28.389919
0
LINE
8
Layer 1
10
49.000762
20
28.389919
11
49.027220
21
28.310544
0
LINE
8
Layer 1
10
49.027220
20
28.310544
11
49.053678
21
28.257628
0
LINE
8
Layer 1
10
49.053678
20
28.257628
11
49.106595
21
28.231169
0
LINE
8
Layer 1
10
49.106595
20
28.231169
11
49.185970
21
28.231169
0
LINE
8
Layer 1
10
49.185970
20
28.231169
11
49.450553
21
28.284086
0
LINE
8
Layer 1
10
49.450553
20
28.284086
11
49.794511
21
28.469294
0
LINE
8
Layer 1
10
49.794511
20
28.469294
11
50.270760
21
28.786794
0
LINE
8
Layer 1
10
50.270760
20
28.786794
11
50.826384
21
29.210127
0
LINE
8
Layer 1
10
50.826384
20
29.210127
11
50.932217
21
29.104294
0
LINE
8
Layer 1
10
50.932217
20
29.104294
11
50.429509
21
28.654503
0
LINE
8
Layer 1
10
50.429509
20
28.654503
11
49.926801
21
28.310545
0
LINE
8
Layer 1
10
49.926801
20
28.310545
11
49.477010
21
28.098879
0
LINE
8
Layer 1
10
49.477010
20
28.098879
11
49.133052
21
28.045962
0
LINE
8
Layer 1
10
49.133052
20
28.045962
11
48.974302
21
28.072420
0
LINE
8
Layer 1
10
48.974302
20
28.072420
11
48.842010
21
28.151795
0
LINE
8
Layer 1
10
48.842010
20
28.151795
11
48.762635
21
28.284087
0
LINE
8
Layer 1
10
48.762635
20
28.284087
11
48.736177
21
28.469295
0
LINE
8
Layer 1
10
48.736177
20
28.469295
11
48.974302
21
29.263044
0
LINE
8
Layer 1
10
48.974302
20
29.263044
11
49.662218
21
30.347834
0
LINE
8
Layer 1
10
49.662218
20
30.347834
11
50.879298
21
31.803044
0
LINE
8
Layer 1
10
50.879298
20
31.803044
11
52.678458
21
33.681584
0
LINE
8
Layer 1
10
52.678458
20
33.681584
11
52.069917
21
33.364084
0
LINE
8
Layer 1
10
52.069917
20
33.364084
11
51.382001
21
32.808460
0
LINE
8
Layer 1
10
51.382001
20
32.808460
11
50.403044
21
31.803040
0
LINE
8
Layer 1
10
50.403044
20
31.803040
11
48.974294
21
30.136170
0
LINE
8
Layer 1
10
48.974294
20
30.136170
11
48.815544
21
29.950962
0
LINE
8
Layer 1
10
48.815544
20
29.950962
11
48.603878
21
29.712837
0
LINE
8
Layer 1
10
48.603878
20
29.712837
11
47.492628
21
28.495757
0
LINE
8
Layer 1
10
47.492628
20
28.495757
11
46.857629
21
28.098883
0
LINE
8
Layer 1
10
46.857629
20
28.098883
11
46.751796
21
28.125342
0
LINE
8
Layer 1
10
46.751796
20
28.125342
11
46.672421
21
28.178258
0
LINE
8
Layer 1
10
46.672421
20
28.178258
11
46.619504
21
28.284091
0
LINE
8
Layer 1
10
46.619504
20
28.284091
11
46.593046
21
28.442841
0
LINE
8
Layer 1
10
46.593046
20
28.442841
11
46.884087
21
29.263048
0
LINE
8
Layer 1
10
46.884087
20
29.263048
11
47.730753
21
30.506588
0
LINE
8
Layer 1
10
47.730753
20
30.506588
11
49.053673
21
32.041168
0
LINE
8
Layer 1
10
49.053673
20
32.041168
11
50.799923
21
33.787418
0
LINE
8
Layer 1
10
50.799923
20
33.787418
11
50.297215
21
33.575752
0
LINE
8
Layer 1
10
50.297215
20
33.575752
11
49.741591
21
33.178878
0
LINE
8
Layer 1
10
49.741591
20
33.178878
11
49.080134
21
32.596795
0
LINE
8
Layer 1
10
49.080134
20
32.596795
11
48.312843
21
31.776588
0
LINE
8
Layer 1
10
48.312843
20
31.776588
11
47.889510
21
31.300339
0
LINE
8
Layer 1
10
47.889510
20
31.300339
11
47.333886
21
30.691798
0
LINE
8
Layer 1
10
47.333886
20
30.691798
11
45.428886
21
28.733888
0
LINE
8
Layer 1
10
45.428886
20
28.733888
11
44.813731
21
28.244410
0
LINE
8
Layer 1
10
44.813731
20
28.244410
11
44.397016
21
28.072431
0
LINE
8
Layer 1
10
44.397016
20
28.072431
11
44.211808
21
28.098890
0
LINE
8
Layer 1
10
44.211808
20
28.098890
11
44.053058
21
28.178265
0
LINE
8
Layer 1
10
44.053058
20
28.178265
11
43.947225
21
28.337015
0
LINE
8
Layer 1
10
43.947225
20
28.337015
11
43.920766
21
28.522223
0
LINE
8
Layer 1
10
43.920766
20
28.522223
11
43.973683
21
28.733889
0
LINE
8
Layer 1
10
43.973683
20
28.733889
11
44.079516
21
28.919097
0
LINE
8
Layer 1
10
44.079516
20
28.919097
11
44.238266
21
29.051389
0
LINE
8
Layer 1
10
44.238266
20
29.051389
11
44.423474
21
29.104305
0
LINE
8
Layer 1
10
44.423474
20
29.104305
11
44.502849
21
29.104305
0
LINE
8
Layer 1
10
44.502849
20
29.104305
11
44.582224
21
29.051389
0
LINE
8
Layer 1
10
44.582224
20
29.051389
11
44.635140
21
28.972014
0
LINE
8
Layer 1
10
44.635140
20
28.972014
11
44.661599
21
28.892639
0
LINE
8
Layer 1
10
44.661599
20
28.892639
11
44.608682
21
28.733889
0
LINE
8
Layer 1
10
44.608682
20
28.733889
11
44.423474
21
28.654514
0
LINE
8
Layer 1
10
44.423474
20
28.654514
11
44.238266
21
28.575139
0
LINE
8
Layer 1
10
44.238266
20
28.575139
11
44.185350
21
28.469306
0
LINE
8
Layer 1
10
44.185350
20
28.469306
11
44.211808
21
28.389931
0
LINE
8
Layer 1
10
44.211808
20
28.389931
11
44.264724
21
28.310556
0
LINE
8
Layer 1
10
44.264724
20
28.310556
11
44.344099
21
28.284098
0
LINE
8
Layer 1
10
44.344099
20
28.284098
11
44.449932
21
28.257639
0
LINE
8
Layer 1
10
44.449932
20
28.257639
11
45.243681
21
28.760347
0
LINE
8
Layer 1
10
45.243681
20
28.760347
11
46.698891
21
30.242007
0
LINE
8
Layer 1
10
46.698891
20
30.242007
11
47.254515
21
30.850548
0
LINE
8
Layer 1
10
47.254515
20
30.850548
11
47.677848
21
31.326797
0
LINE
8
Layer 1
10
47.677848
20
31.326797
11
49.027218
21
32.729087
0
LINE
8
Layer 1
10
49.027218
20
32.729087
11
49.926800
21
33.522836
0
LINE
8
Layer 1
10
49.926800
20
33.522836
11
50.535341
21
33.866794
0
LINE
8
Layer 1
10
50.535341
20
33.866794
11
51.090965
21
33.972627
0
LINE
8
Layer 1
10
51.090965
20
33.972627
11
51.143900
21
33.972600
0
LINE
8
Layer 1
10
51.143900
20
33.972600
11
51.196800
21
33.972600
0
LINE
8
Layer 1
10
51.196800
20
33.972600
11
51.223258
21
33.972600
0
LINE
8
Layer 1
10
51.223258
20
33.972600
11
51.249717
21
33.972600
0
LINE
8
Layer 1
10
51.249717
20
33.972600
11
51.276175
21
33.972600
0
LINE
8
Layer 1
10
51.276175
20
33.972600
11
51.302633
21
33.972600
0
LINE
8
Layer 1
10
51.302633
20
33.972600
11
51.302600
21
33.972600
0
LINE
8
Layer 1
10
51.302600
20
33.972600
11
49.609300
21
32.067600
0
LINE
8
Layer 1
10
53.472200
20
30.744700
11
53.948500
21
30.744700
0
LINE
8
Layer 1
10
53.948500
20
30.744700
11
52.466840
21
28.760330
0
LINE
8
Layer 1
10
52.466840
20
28.760330
11
52.466840
21
28.733872
0
LINE
8
Layer 1
10
52.466840
20
28.733872
11
52.308090
21
28.495747
0
LINE
8
Layer 1
10
52.308090
20
28.495747
11
52.255173
21
28.363455
0
LINE
8
Layer 1
10
52.255173
20
28.363455
11
52.255173
21
28.310538
0
LINE
8
Layer 1
10
52.255173
20
28.310538
11
52.281632
21
28.257622
0
LINE
8
Layer 1
10
52.281632
20
28.257622
11
52.334548
21
28.231163
0
LINE
8
Layer 1
10
52.334548
20
28.231163
11
52.413923
21
28.231163
0
LINE
8
Layer 1
10
52.413923
20
28.231163
11
52.625589
21
28.310538
0
LINE
8
Layer 1
10
52.625589
20
28.310538
11
52.969547
21
28.522204
0
LINE
8
Layer 1
10
52.969547
20
28.522204
11
53.445796
21
28.866162
0
LINE
8
Layer 1
10
53.445796
20
28.866162
11
54.001420
21
29.342411
0
LINE
8
Layer 1
10
54.001420
20
29.342411
11
54.107253
21
29.236578
0
LINE
8
Layer 1
10
54.107253
20
29.236578
11
53.551629
21
28.733870
0
LINE
8
Layer 1
10
53.551629
20
28.733870
11
53.048921
21
28.363454
0
LINE
8
Layer 1
10
53.048921
20
28.363454
11
52.652046
21
28.151788
0
LINE
8
Layer 1
10
52.652046
20
28.151788
11
52.334546
21
28.072413
0
LINE
8
Layer 1
10
52.334546
20
28.072413
11
52.202255
21
28.098872
0
LINE
8
Layer 1
10
52.202255
20
28.098872
11
52.096422
21
28.151788
0
LINE
8
Layer 1
10
52.096422
20
28.151788
11
52.017047
21
28.257621
0
LINE
8
Layer 1
10
52.017047
20
28.257621
11
51.990589
21
28.416371
0
LINE
8
Layer 1
10
51.990589
20
28.416371
11
51.990589
21
28.495746
0
LINE
8
Layer 1
10
51.990589
20
28.495746
11
52.017047
21
28.601579
0
LINE
8
Layer 1
10
52.017047
20
28.601579
11
52.043506
21
28.707412
0
LINE
8
Layer 1
10
52.043506
20
28.707412
11
52.069964
21
28.839704
0
LINE
8
Layer 1
10
52.069964
20
28.839704
11
51.805381
21
28.601579
0
LINE
8
Layer 1
10
51.805381
20
28.601579
11
51.540798
21
28.389913
0
LINE
8
Layer 1
10
51.540798
20
28.389913
11
51.408506
21
28.310538
0
LINE
8
Layer 1
10
51.408506
20
28.310538
11
51.276214
21
28.231163
0
LINE
8
Layer 1
10
51.276214
20
28.231163
11
50.905798
21
28.098872
0
LINE
8
Layer 1
10
50.905798
20
28.098872
11
50.588298
21
28.045956
0
LINE
8
Layer 1
10
50.588298
20
28.045956
11
50.403090
21
28.072414
0
LINE
8
Layer 1
10
50.403090
20
28.072414
11
50.270799
21
28.151789
0
LINE
8
Layer 1
10
50.270799
20
28.151789
11
50.191424
21
28.284081
0
LINE
8
Layer 1
10
50.191424
20
28.284081
11
50.164966
21
28.469289
0
LINE
8
Layer 1
10
50.164966
20
28.469289
11
50.244341
21
28.892622
0
LINE
8
Layer 1
10
50.244341
20
28.892622
11
50.482466
21
29.342413
0
LINE
8
Layer 1
10
50.482466
20
29.342413
11
50.826424
21
29.792204
0
LINE
8
Layer 1
10
50.826424
20
29.792204
11
51.302673
21
30.189079
0
LINE
8
Layer 1
10
51.302673
20
30.189079
11
51.699548
21
30.453662
0
LINE
8
Layer 1
10
51.699548
20
30.453662
11
52.096422
21
30.665328
0
LINE
8
Layer 1
10
52.096422
20
30.665328
11
52.493297
21
30.797620
0
LINE
8
Layer 1
10
52.493297
20
30.797620
11
52.837255
21
30.850536
0
LINE
8
Layer 1
10
52.837255
20
30.850536
11
53.022463
21
30.824078
0
LINE
8
Layer 1
10
53.022463
20
30.824078
11
53.154755
21
30.744703
0
LINE
8
Layer 1
10
53.154755
20
30.744703
11
53.234130
21
30.638870
0
LINE
8
Layer 1
10
53.234130
20
30.638870
11
53.260588
21
30.480120
0
LINE
8
Layer 1
10
53.260588
20
30.480120
11
53.260600
21
30.400700
0
LINE
8
Layer 1
10
53.260600
20
30.400700
11
53.472200
21
30.744700
0
LINE
8
Layer 1
10
53.472200
20
30.744700
11
53.472200
21
30.744700
0
LINE
8
Layer 1
10
52.572600
20
30.585900
11
52.255100
21
30.400692
0
LINE
8
Layer 1
10
52.255100
20
30.400692
11
51.884684
21
30.109651
0
LINE
8
Layer 1
10
51.884684
20
30.109651
11
51.487809
21
29.739235
0
LINE
8
Layer 1
10
51.487809
20
29.739235
11
51.064476
21
29.289444
0
LINE
8
Layer 1
10
51.064476
20
29.289444
11
50.746976
21
28.892570
0
LINE
8
Layer 1
10
50.746976
20
28.892570
11
50.561768
21
28.575070
0
LINE
8
Layer 1
10
50.561768
20
28.575070
11
50.482393
21
28.336945
0
LINE
8
Layer 1
10
50.482393
20
28.336945
11
50.508851
21
28.284028
0
LINE
8
Layer 1
10
50.508851
20
28.284028
11
50.535310
21
28.231112
0
LINE
8
Layer 1
10
50.535310
20
28.231112
11
50.588226
21
28.204653
0
LINE
8
Layer 1
10
50.588226
20
28.204653
11
50.667601
21
28.204653
0
LINE
8
Layer 1
10
50.667601
20
28.204653
11
50.958642
21
28.257570
0
LINE
8
Layer 1
10
50.958642
20
28.257570
11
51.329058
21
28.442778
0
LINE
8
Layer 1
10
51.329058
20
28.442778
11
51.725932
21
28.760278
0
LINE
8
Layer 1
10
51.725932
20
28.760278
11
52.149265
21
29.157153
0
LINE
8
Layer 1
10
52.149265
20
29.157153
11
52.519681
21
29.554027
0
LINE
8
Layer 1
10
52.519681
20
29.554027
11
52.810722
21
29.924443
0
LINE
8
Layer 1
10
52.810722
20
29.924443
11
52.969472
21
30.215484
0
LINE
8
Layer 1
10
52.969472
20
30.215484
11
53.022389
21
30.427150
0
LINE
8
Layer 1
10
53.022389
20
30.427150
11
53.022389
21
30.506525
0
LINE
8
Layer 1
10
53.022389
20
30.506525
11
52.969472
21
30.559442
0
LINE
8
Layer 1
10
52.969472
20
30.559442
11
52.890097
21
30.612358
0
LINE
8
Layer 1
10
52.890097
20
30.612358
11
52.784264
21
30.638817
0
LINE
8
Layer 1
10
52.784264
20
30.638817
11
52.784300
21
30.638800
0
LINE
8
Layer 1
10
52.784300
20
30.638800
11
52.572600
21
30.585900
0
LINE
8
Layer 1
10
56.753100
20
32.173400
11
56.118101
21
31.326734
0
LINE
8
Layer 1
10
56.118101
20
31.326734
11
56.991200
21
31.326700
0
LINE
8
Layer 1
10
56.991200
20
31.326700
11
56.858908
21
31.141492
0
LINE
8
Layer 1
10
56.858908
20
31.141492
11
55.985800
21
31.141500
0
LINE
8
Layer 1
10
55.985800
20
31.141500
11
54.186640
21
28.733790
0
LINE
8
Layer 1
10
54.186640
20
28.733790
11
54.160182
21
28.654415
0
LINE
8
Layer 1
10
54.160182
20
28.654415
11
54.107265
21
28.575040
0
LINE
8
Layer 1
10
54.107265
20
28.575040
11
54.080807
21
28.495665
0
LINE
8
Layer 1
10
54.080807
20
28.495665
11
54.054348
21
28.442749
0
LINE
8
Layer 1
10
54.054348
20
28.442749
11
54.001432
21
28.336916
0
LINE
8
Layer 1
10
54.001432
20
28.336916
11
53.974974
21
28.257541
0
LINE
8
Layer 1
10
53.974974
20
28.257541
11
53.974974
21
28.204624
0
LINE
8
Layer 1
10
53.974974
20
28.204624
11
54.001432
21
28.178166
0
LINE
8
Layer 1
10
54.001432
20
28.178166
11
54.054348
21
28.151708
0
LINE
8
Layer 1
10
54.054348
20
28.151708
11
54.133723
21
28.151708
0
LINE
8
Layer 1
10
54.133723
20
28.151708
11
54.371848
21
28.231082
0
LINE
8
Layer 1
10
54.371848
20
28.231082
11
54.715806
21
28.442748
0
LINE
8
Layer 1
10
54.715806
20
28.442748
11
55.139139
21
28.786706
0
LINE
8
Layer 1
10
55.139139
20
28.786706
11
55.641847
21
29.236497
0
LINE
8
Layer 1
10
55.641847
20
29.236497
11
55.747680
21
29.157123
0
LINE
8
Layer 1
10
55.747680
20
29.157123
11
55.244972
21
28.654415
0
LINE
8
Layer 1
10
55.244972
20
28.654415
11
54.795181
21
28.283999
0
LINE
8
Layer 1
10
54.795181
20
28.283999
11
54.371848
21
28.072333
0
LINE
8
Layer 1
10
54.371848
20
28.072333
11
54.027890
21
27.992958
0
LINE
8
Layer 1
10
54.027890
20
27.992958
11
53.895598
21
28.019416
0
LINE
8
Layer 1
10
53.895598
20
28.019416
11
53.789765
21
28.098791
0
LINE
8
Layer 1
10
53.789765
20
28.098791
11
53.710390
21
28.204624
0
LINE
8
Layer 1
10
53.710390
20
28.204624
11
53.683932
21
28.336916
0
LINE
8
Layer 1
10
53.683932
20
28.336916
11
53.710390
21
28.575041
0
LINE
8
Layer 1
10
53.710390
20
28.575041
11
53.816223
21
28.866082
0
LINE
8
Layer 1
10
53.816223
20
28.866082
11
53.974973
21
29.183582
0
LINE
8
Layer 1
10
53.974973
20
29.183582
11
54.186639
21
29.527540
0
LINE
8
Layer 1
10
54.186639
20
29.527540
11
55.377259
21
31.141500
0
LINE
8
Layer 1
10
55.377259
20
31.141500
11
54.742200
21
31.141500
0
LINE
8
Layer 1
10
54.742200
20
31.141500
11
54.874492
21
31.326708
0
LINE
8
Layer 1
10
54.874492
20
31.326708
11
55.509500
21
31.326700
0
LINE
8
Layer 1
10
55.509500
20
31.326700
11
56.144499
21
32.173366
0
LINE
8
Layer 1
10
56.144499
20
32.173366
11
56.753100
21
32.173400
0
LINE
8
Layer 1
10
56.753100
20
32.173400
11
56.753100
21
32.173400
0
LINE
8
Layer 1
10
56.673700
20
29.792200
11
57.202866
21
30.241991
0
LINE
8
Layer 1
10
57.202866
20
30.241991
11
57.679115
21
30.559491
0
LINE
8
Layer 1
10
57.679115
20
30.559491
11
58.102448
21
30.744699
0
LINE
8
Layer 1
10
58.102448
20
30.744699
11
58.446406
21
30.824074
0
LINE
8
Layer 1
10
58.446406
20
30.824074
11
58.605156
21
30.797616
0
LINE
8
Layer 1
10
58.605156
20
30.797616
11
58.710989
21
30.718241
0
LINE
8
Layer 1
10
58.710989
20
30.718241
11
58.790364
21
30.612408
0
LINE
8
Layer 1
10
58.790364
20
30.612408
11
58.816822
21
30.480116
0
LINE
8
Layer 1
10
58.816822
20
30.480116
11
58.790364
21
30.321366
0
LINE
8
Layer 1
10
58.790364
20
30.321366
11
58.710989
21
30.109700
0
LINE
8
Layer 1
10
58.710989
20
30.109700
11
58.578697
21
29.871575
0
LINE
8
Layer 1
10
58.578697
20
29.871575
11
58.393489
21
29.633450
0
LINE
8
Layer 1
10
58.393489
20
29.633450
11
57.599740
21
28.680951
0
LINE
8
Layer 1
10
57.599740
20
28.680951
11
57.467448
21
28.522201
0
LINE
8
Layer 1
10
57.467448
20
28.522201
11
57.388073
21
28.416368
0
LINE
8
Layer 1
10
57.388073
20
28.416368
11
57.335156
21
28.336993
0
LINE
8
Layer 1
10
57.335156
20
28.336993
11
57.308698
21
28.284076
0
LINE
8
Layer 1
10
57.308698
20
28.284076
11
57.335156
21
28.231160
0
LINE
8
Layer 1
10
57.335156
20
28.231160
11
57.361615
21
28.204701
0
LINE
8
Layer 1
10
57.361615
20
28.204701
11
57.414531
21
28.178243
0
LINE
8
Layer 1
10
57.414531
20
28.178243
11
57.467448
21
28.178243
0
LINE
8
Layer 1
10
57.467448
20
28.178243
11
57.758489
21
28.257618
0
LINE
8
Layer 1
10
57.758489
20
28.257618
11
58.155364
21
28.469284
0
LINE
8
Layer 1
10
58.155364
20
28.469284
11
58.658072
21
28.813242
0
LINE
8
Layer 1
10
58.658072
20
28.813242
11
59.240155
21
29.289491
0
LINE
8
Layer 1
10
59.240155
20
29.289491
11
59.345988
21
29.183658
0
LINE
8
Layer 1
10
59.345988
20
29.183658
11
58.763905
21
28.654492
0
LINE
8
Layer 1
10
58.763905
20
28.654492
11
58.234739
21
28.284076
0
LINE
8
Layer 1
10
58.234739
20
28.284076
11
57.784948
21
28.072410
0
LINE
8
Layer 1
10
57.784948
20
28.072410
11
57.414532
21
27.993035
0
LINE
8
Layer 1
10
57.414532
20
27.993035
11
57.282240
21
28.019493
0
LINE
8
Layer 1
10
57.282240
20
28.019493
11
57.176407
21
28.072410
0
LINE
8
Layer 1
10
57.176407
20
28.072410
11
57.123490
21
28.178243
0
LINE
8
Layer 1
10
57.123490
20
28.178243
11
57.097032
21
28.336993
0
LINE
8
Layer 1
10
57.097032
20
28.336993
11
57.123490
21
28.522201
0
LINE
8
Layer 1
10
57.123490
20
28.522201
11
57.202865
21
28.733867
0
LINE
8
Layer 1
10
57.202865
20
28.733867
11
57.335157
21
28.971992
0
LINE
8
Layer 1
10
57.335157
20
28.971992
11
57.520365
21
29.210117
0
LINE
8
Layer 1
10
57.520365
20
29.210117
11
58.340572
21
30.162616
0
LINE
8
Layer 1
10
58.340572
20
30.162616
11
58.419947
21
30.268449
0
LINE
8
Layer 1
10
58.419947
20
30.268449
11
58.472864
21
30.347824
0
LINE
8
Layer 1
10
58.472864
20
30.347824
11
58.525780
21
30.427199
0
LINE
8
Layer 1
10
58.525780
20
30.427199
11
58.552239
21
30.480115
0
LINE
8
Layer 1
10
58.552239
20
30.480115
11
58.552239
21
30.533032
0
LINE
8
Layer 1
10
58.552239
20
30.533032
11
58.525780
21
30.585948
0
LINE
8
Layer 1
10
58.525780
20
30.585948
11
58.472864
21
30.612407
0
LINE
8
Layer 1
10
58.472864
20
30.612407
11
58.419947
21
30.612407
0
LINE
8
Layer 1
10
58.419947
20
30.612407
11
57.890781
21
30.427199
0
LINE
8
Layer 1
10
57.890781
20
30.427199
11
57.149949
21
29.898033
0
LINE
8
Layer 1
10
57.149949
20
29.898033
11
56.885366
21
29.659908
0
LINE
8
Layer 1
10
56.885366
20
29.659908
11
56.620783
21
29.395325
0
LINE
8
Layer 1
10
56.620783
20
29.395325
11
56.065159
21
28.786784
0
LINE
8
Layer 1
10
56.065159
20
28.786784
11
55.535993
21
28.072410
0
LINE
8
Layer 1
10
55.535993
20
28.072410
11
55.006800
21
28.072400
0
LINE
8
Layer 1
10
55.006800
20
28.072400
11
57.520340
21
31.459060
0
LINE
8
Layer 1
10
57.520340
20
31.459060
11
58.314089
21
32.411559
0
LINE
8
Layer 1
10
58.314089
20
32.411559
11
59.054921
21
33.152391
0
LINE
8
Layer 1
10
59.054921
20
33.152391
11
59.689920
21
33.602182
0
LINE
8
Layer 1
10
59.689920
20
33.602182
11
60.192628
21
33.760932
0
LINE
8
Layer 1
10
60.192628
20
33.760932
11
60.298461
21
33.734474
0
LINE
8
Layer 1
10
60.298461
20
33.734474
11
60.377836
21
33.681557
0
LINE
8
Layer 1
10
60.377836
20
33.681557
11
60.430752
21
33.602182
0
LINE
8
Layer 1
10
60.430752
20
33.602182
11
60.457211
21
33.496349
0
LINE
8
Layer 1
10
60.457211
20
33.496349
11
60.245545
21
32.940725
0
LINE
8
Layer 1
10
60.245545
20
32.940725
11
59.610546
21
32.199893
0
LINE
8
Layer 1
10
59.610546
20
32.199893
11
58.631589
21
31.379686
0
LINE
8
Layer 1
10
58.631589
20
31.379686
11
57.388049
21
30.585937
0
LINE
8
Layer 1
10
57.388049
20
30.585937
11
57.388100
21
30.585900
0
LINE
8
Layer 1
10
57.388100
20
30.585900
11
56.673700
21
29.792200
0
LINE
8
Layer 1
10
56.673700
20
29.792200
11
56.673700
21
29.792200
0
LINE
8
Layer 1
10
58.552200
20
31.670700
11
59.398866
21
32.411532
0
LINE
8
Layer 1
10
59.398866
20
32.411532
11
59.954490
21
33.046531
0
LINE
8
Layer 1
10
59.954490
20
33.046531
11
60.139698
21
33.496322
0
LINE
8
Layer 1
10
60.139698
20
33.496322
11
60.113240
21
33.549239
0
LINE
8
Layer 1
10
60.113240
20
33.549239
11
60.086781
21
33.602155
0
LINE
8
Layer 1
10
60.086781
20
33.602155
11
60.060323
21
33.628614
0
LINE
8
Layer 1
10
60.060323
20
33.628614
11
60.033865
21
33.628614
0
LINE
8
Layer 1
10
60.033865
20
33.628614
11
60.007406
21
33.628614
0
LINE
8
Layer 1
10
60.007406
20
33.628614
11
59.981000
21
33.628600
0
LINE
8
Layer 1
10
59.981000
20
33.628600
11
59.637042
21
33.496308
0
LINE
8
Layer 1
10
59.637042
20
33.496308
11
59.187251
21
33.125892
0
LINE
8
Layer 1
10
59.187251
20
33.125892
11
58.499335
21
32.332143
0
LINE
8
Layer 1
10
58.499335
20
32.332143
11
57.388085
21
30.929853
0
LINE
8
Layer 1
10
57.388085
20
30.929853
11
57.388100
21
30.929900
0
LINE
8
Layer 1
10
57.388100
20
30.929900
11
58.552200
21
31.670700
0
LINE
8
Layer 1
10
60.748300
20
30.744700
11
59.346010
21
28.866160
0
LINE
8
Layer 1
10
59.346010
20
28.866160
11
59.213718
21
28.654494
0
LINE
8
Layer 1
10
59.213718
20
28.654494
11
59.107885
21
28.495744
0
LINE
8
Layer 1
10
59.107885
20
28.495744
11
59.054968
21
28.389911
0
LINE
8
Layer 1
10
59.054968
20
28.389911
11
59.028510
21
28.310536
0
LINE
8
Layer 1
10
59.028510
20
28.310536
11
59.028510
21
28.257619
0
LINE
8
Layer 1
10
59.028510
20
28.257619
11
59.054968
21
28.204703
0
LINE
8
Layer 1
10
59.054968
20
28.204703
11
59.107885
21
28.178245
0
LINE
8
Layer 1
10
59.107885
20
28.178245
11
59.160802
21
28.151786
0
LINE
8
Layer 1
10
59.160802
20
28.151786
11
59.398927
21
28.231161
0
LINE
8
Layer 1
10
59.398927
20
28.231161
11
59.742885
21
28.442827
0
LINE
8
Layer 1
10
59.742885
20
28.442827
11
60.166218
21
28.786785
0
LINE
8
Layer 1
10
60.166218
20
28.786785
11
60.668926
21
29.236576
0
LINE
8
Layer 1
10
60.668926
20
29.236576
11
60.801218
21
29.130743
0
LINE
8
Layer 1
10
60.801218
20
29.130743
11
60.245594
21
28.601577
0
LINE
8
Layer 1
10
60.245594
20
28.601577
11
59.769345
21
28.231161
0
LINE
8
Layer 1
10
59.769345
20
28.231161
11
59.372470
21
28.019495
0
LINE
8
Layer 1
10
59.372470
20
28.019495
11
59.081429
21
27.940120
0
LINE
8
Layer 1
10
59.081429
20
27.940120
11
58.949137
21
27.966579
0
LINE
8
Layer 1
10
58.949137
20
27.966579
11
58.843304
21
28.045953
0
LINE
8
Layer 1
10
58.843304
20
28.045953
11
58.763929
21
28.151787
0
LINE
8
Layer 1
10
58.763929
20
28.151787
11
58.737470
21
28.310537
0
LINE
8
Layer 1
10
58.737470
20
28.310537
11
58.763929
21
28.548662
0
LINE
8
Layer 1
10
58.763929
20
28.548662
11
58.869762
21
28.786787
0
LINE
8
Layer 1
10
58.869762
20
28.786787
11
59.028512
21
29.104287
0
LINE
8
Layer 1
10
59.028512
20
29.104287
11
59.293095
21
29.474702
0
LINE
8
Layer 1
10
59.293095
20
29.474702
11
60.192677
21
30.665322
0
LINE
8
Layer 1
10
60.192677
20
30.665322
11
60.748300
21
30.665300
0
LINE
8
Layer 1
10
60.748300
20
30.665300
11
60.748300
21
30.744700
0
LINE
8
Layer 1
10
61.594900
20
32.120500
11
61.647817
21
32.067583
0
LINE
8
Layer 1
10
61.647817
20
32.067583
11
61.700733
21
31.988208
0
LINE
8
Layer 1
10
61.700733
20
31.988208
11
61.727192
21
31.882375
0
LINE
8
Layer 1
10
61.727192
20
31.882375
11
61.700733
21
31.750083
0
LINE
8
Layer 1
10
61.700733
20
31.750083
11
61.594900
21
31.617791
0
LINE
8
Layer 1
10
61.594900
20
31.617791
11
61.462608
21
31.511958
0
LINE
8
Layer 1
10
61.462608
20
31.511958
11
61.330316
21
31.485500
0
LINE
8
Layer 1
10
61.330316
20
31.485500
11
61.224483
21
31.511958
0
LINE
8
Layer 1
10
61.224483
20
31.511958
11
61.145108
21
31.564875
0
LINE
8
Layer 1
10
61.145108
20
31.564875
11
61.092192
21
31.644250
0
LINE
8
Layer 1
10
61.092192
20
31.644250
11
61.065733
21
31.723625
0
LINE
8
Layer 1
10
61.065733
20
31.723625
11
61.092192
21
31.855917
0
LINE
8
Layer 1
10
61.092192
20
31.855917
11
61.198025
21
31.988209
0
LINE
8
Layer 1
10
61.198025
20
31.988209
11
61.330317
21
32.094042
0
LINE
8
Layer 1
10
61.330317
20
32.094042
11
61.489067
21
32.120500
0
LINE
8
Layer 1
10
61.489067
20
32.120500
11
61.489100
21
32.120500
0
LINE
8
Layer 1
10
61.489100
20
32.120500
11
61.594900
21
32.120500
0
LINE
8
Layer 1
10
60.854100
20
28.972000
11
60.695350
21
28.733875
0
LINE
8
Layer 1
10
60.695350
20
28.733875
11
60.615975
21
28.548667
0
LINE
8
Layer 1
10
60.615975
20
28.548667
11
60.589517
21
28.416375
0
LINE
8
Layer 1
10
60.589517
20
28.416375
11
60.615975
21
28.310542
0
LINE
8
Layer 1
10
60.615975
20
28.310542
11
60.668892
21
28.231167
0
LINE
8
Layer 1
10
60.668892
20
28.231167
11
60.774725
21
28.178251
0
LINE
8
Layer 1
10
60.774725
20
28.178251
11
60.907017
21
28.151792
0
LINE
8
Layer 1
10
60.907017
20
28.151792
11
61.330350
21
28.231167
0
LINE
8
Layer 1
10
61.330350
20
28.231167
11
61.859516
21
28.442833
0
LINE
8
Layer 1
10
61.859516
20
28.442833
11
62.415140
21
28.786791
0
LINE
8
Layer 1
10
62.415140
20
28.786791
11
63.023681
21
29.236582
0
LINE
8
Layer 1
10
63.023681
20
29.236582
11
63.103056
21
29.104290
0
LINE
8
Layer 1
10
63.103056
20
29.104290
11
62.468057
21
28.601582
0
LINE
8
Layer 1
10
62.468057
20
28.601582
11
61.859516
21
28.231166
0
LINE
8
Layer 1
10
61.859516
20
28.231166
11
61.303892
21
28.019500
0
LINE
8
Layer 1
10
61.303892
20
28.019500
11
60.854101
21
27.940125
0
LINE
8
Layer 1
10
60.854101
20
27.940125
11
60.642435
21
27.966584
0
LINE
8
Layer 1
10
60.642435
20
27.966584
11
60.483685
21
28.072417
0
LINE
8
Layer 1
10
60.483685
20
28.072417
11
60.377852
21
28.231167
0
LINE
8
Layer 1
10
60.377852
20
28.231167
11
60.324935
21
28.442833
0
LINE
8
Layer 1
10
60.324935
20
28.442833
11
60.404310
21
28.839708
0
LINE
8
Layer 1
10
60.404310
20
28.839708
11
60.615976
21
29.263041
0
LINE
8
Layer 1
10
60.615976
20
29.263041
11
60.933476
21
29.686374
0
LINE
8
Layer 1
10
60.933476
20
29.686374
11
61.383267
21
30.109707
0
LINE
8
Layer 1
10
61.383267
20
30.109707
11
61.780142
21
30.400748
0
LINE
8
Layer 1
10
61.780142
20
30.400748
11
62.177016
21
30.612414
0
LINE
8
Layer 1
10
62.177016
20
30.612414
11
62.573891
21
30.771164
0
LINE
8
Layer 1
10
62.573891
20
30.771164
11
62.917849
21
30.824080
0
LINE
8
Layer 1
10
62.917849
20
30.824080
11
63.076599
21
30.797622
0
LINE
8
Layer 1
10
63.076599
20
30.797622
11
63.182432
21
30.744705
0
LINE
8
Layer 1
10
63.182432
20
30.744705
11
63.261807
21
30.665330
0
LINE
8
Layer 1
10
63.261807
20
30.665330
11
63.288265
21
30.559497
0
LINE
8
Layer 1
10
63.288265
20
30.559497
11
63.129515
21
30.215539
0
LINE
8
Layer 1
10
63.129515
20
30.215539
11
62.653266
21
29.818665
0
LINE
8
Layer 1
10
62.653266
20
29.818665
11
61.938892
21
29.474707
0
LINE
8
Layer 1
10
61.938892
20
29.474707
11
61.039310
21
29.183666
0
LINE
8
Layer 1
10
61.039310
20
29.183666
11
61.039310
21
29.183666
0
LINE
8
Layer 1
10
61.039310
20
29.183666
11
60.854100
21
28.972000
0
LINE
8
Layer 1
10
61.938900
20
29.686300
11
62.520983
21
30.003800
0
LINE
8
Layer 1
10
62.520983
20
30.003800
11
62.917857
21
30.321300
0
LINE
8
Layer 1
10
62.917857
20
30.321300
11
63.050149
21
30.559425
0
LINE
8
Layer 1
10
63.050149
20
30.559425
11
63.050149
21
30.612342
0
LINE
8
Layer 1
10
63.050149
20
30.612342
11
63.023691
21
30.638800
0
LINE
8
Layer 1
10
63.023691
20
30.638800
11
62.970774
21
30.665258
0
LINE
8
Layer 1
10
62.970774
20
30.665258
11
62.891399
21
30.665258
0
LINE
8
Layer 1
10
62.891399
20
30.665258
11
62.573899
21
30.585883
0
LINE
8
Layer 1
10
62.573899
20
30.585883
11
62.177024
21
30.347758
0
LINE
8
Layer 1
10
62.177024
20
30.347758
11
61.727233
21
29.950884
0
LINE
8
Layer 1
10
61.727233
20
29.950884
11
61.250984
21
29.448176
0
LINE
8
Layer 1
10
61.250984
20
29.448176
11
61.250984
21
29.448176
0
LINE
8
Layer 1
10
61.250984
20
29.448176
11
61.938900
21
29.686300
0
LINE
8
Layer 1
10
64.796400
20
30.744700
11
63.235300
21
28.707400
0
LINE
8
Layer 1
10
63.235300
20
28.707400
11
63.155925
21
28.575108
0
LINE
8
Layer 1
10
63.155925
20
28.575108
11
63.103009
21
28.469275
0
LINE
8
Layer 1
10
63.103009
20
28.469275
11
63.050092
21
28.389900
0
LINE
8
Layer 1
10
63.050092
20
28.389900
11
63.023634
21
28.310525
0
LINE
8
Layer 1
10
63.023634
20
28.310525
11
63.050092
21
28.257609
0
LINE
8
Layer 1
10
63.050092
20
28.257609
11
63.076550
21
28.204692
0
LINE
8
Layer 1
10
63.076550
20
28.204692
11
63.129467
21
28.178234
0
LINE
8
Layer 1
10
63.129467
20
28.178234
11
63.208842
21
28.151775
0
LINE
8
Layer 1
10
63.208842
20
28.151775
11
63.711550
21
28.336983
0
LINE
8
Layer 1
10
63.711550
20
28.336983
11
64.425924
21
28.866149
0
LINE
8
Layer 1
10
64.425924
20
28.866149
11
65.246131
21
29.686356
0
LINE
8
Layer 1
10
65.246131
20
29.686356
11
66.039880
21
30.718226
0
LINE
8
Layer 1
10
66.039880
20
30.718226
11
66.569046
21
30.718226
0
LINE
8
Layer 1
10
66.569046
20
30.718226
11
64.955086
21
28.628016
0
LINE
8
Layer 1
10
64.955086
20
28.628016
11
64.928627
21
28.601558
0
LINE
8
Layer 1
10
64.928627
20
28.601558
11
64.796336
21
28.416350
0
LINE
8
Layer 1
10
64.796336
20
28.416350
11
64.743420
21
28.284059
0
LINE
8
Layer 1
10
64.743420
20
28.284059
11
64.769878
21
28.231142
0
LINE
8
Layer 1
10
64.769878
20
28.231142
11
64.796336
21
28.178226
0
LINE
8
Layer 1
10
64.796336
20
28.178226
11
64.849253
21
28.151768
0
LINE
8
Layer 1
10
64.849253
20
28.151768
11
64.902170
21
28.125309
0
LINE
8
Layer 1
10
64.902170
20
28.125309
11
65.140295
21
28.204684
0
LINE
8
Layer 1
10
65.140295
20
28.204684
11
65.484253
21
28.416350
0
LINE
8
Layer 1
10
65.484253
20
28.416350
11
65.934044
21
28.760308
0
LINE
8
Layer 1
10
65.934044
20
28.760308
11
66.463210
21
29.236557
0
LINE
8
Layer 1
10
66.463210
20
29.236557
11
66.595502
21
29.130724
0
LINE
8
Layer 1
10
66.595502
20
29.130724
11
66.092794
21
28.628016
0
LINE
8
Layer 1
10
66.092794
20
28.628016
11
65.616545
21
28.257600
0
LINE
8
Layer 1
10
65.616545
20
28.257600
11
65.219671
21
28.045934
0
LINE
8
Layer 1
10
65.219671
20
28.045934
11
64.902171
21
27.966559
0
LINE
8
Layer 1
10
64.902171
20
27.966559
11
64.769879
21
27.993018
0
LINE
8
Layer 1
10
64.769879
20
27.993018
11
64.664046
21
28.072392
0
LINE
8
Layer 1
10
64.664046
20
28.072392
11
64.611129
21
28.178225
0
LINE
8
Layer 1
10
64.611129
20
28.178225
11
64.584671
21
28.363433
0
LINE
8
Layer 1
10
64.584671
20
28.363433
11
64.584671
21
28.442808
0
LINE
8
Layer 1
10
64.584671
20
28.442808
11
64.611129
21
28.548641
0
LINE
8
Layer 1
10
64.611129
20
28.548641
11
64.637587
21
28.654474
0
LINE
8
Layer 1
10
64.637587
20
28.654474
11
64.664046
21
28.786766
0
LINE
8
Layer 1
10
64.664046
20
28.786766
11
64.240713
21
28.416350
0
LINE
8
Layer 1
10
64.240713
20
28.416350
11
63.843838
21
28.125309
0
LINE
8
Layer 1
10
63.843838
20
28.125309
11
63.473422
21
27.966559
0
LINE
8
Layer 1
10
63.473422
20
27.966559
11
63.182381
21
27.913643
0
LINE
8
Layer 1
10
63.182381
20
27.913643
11
63.023631
21
27.940101
0
LINE
8
Layer 1
10
63.023631
20
27.940101
11
62.917798
21
28.019476
0
LINE
8
Layer 1
10
62.917798
20
28.019476
11
62.838423
21
28.125309
0
LINE
8
Layer 1
10
62.838423
20
28.125309
11
62.811964
21
28.284059
0
LINE
8
Layer 1
10
62.811964
20
28.284059
11
62.838423
21
28.522184
0
LINE
8
Layer 1
10
62.838423
20
28.522184
11
62.917798
21
28.760309
0
LINE
8
Layer 1
10
62.917798
20
28.760309
11
63.076548
21
29.024892
0
LINE
8
Layer 1
10
63.076548
20
29.024892
11
63.288214
21
29.315933
0
LINE
8
Layer 1
10
63.288214
20
29.315933
11
64.293634
21
30.638853
0
LINE
8
Layer 1
10
64.293634
20
30.638853
11
64.796400
21
30.638800
0
LINE
8
Layer 1
10
64.796400
20
30.638800
11
64.796400
21
30.744700
 0 
ENDSEC
 0 
EOF