<?xml version="1.0" encoding="utf-8"?>
<!-- Generator: Adobe Illustrator 22.0.1, SVG Export Plug-In . SVG Version: 6.00 Build 0)  -->
<svg version="1.1" id="Calque_1" xmlns="http://www.w3.org/2000/svg" xmlns:xlink="http://www.w3.org/1999/xlink" x="0px" y="0px"
	 viewBox="0 0 425.2 283.5" style="enable-background:new 0 0 425.2 283.5;" xml:space="preserve">
<style type="text/css">
	.st0{clip-path:url(#SVGID_2_);}
</style>
<g>
	<defs>
		<rect id="SVGID_1_" width="425.2" height="283.5"/>
	</defs>
	<clipPath id="SVGID_2_">
		<use xlink:href="#SVGID_1_"  style="overflow:visible;"/>
	</clipPath>
	<path class="st0" d="M155.7,56.5c0.7-0.4,1.5-0.8,2.4-1.2l0.1-0.1l0.4,0.4c-0.4,0.2-0.8,0.4-1.2,0.7c-0.4,0.2-0.7,0.4-1.1,0.7
		c-0.4,0.2-0.7,0.5-1,0.7l-1,0.7c0,0.3,0.1,0.5,0.2,0.7c0.1,0.2,0.1,0.5,0.1,0.7c0,0.1,0,0.2,0.1,0.3c0,0.1,0,0.2,0,0.3v0.3v0.3
		c0,0.9-0.1,1.7-0.2,2.5c-0.1,0.8-0.3,1.6-0.6,2.4c-0.3,0.8-0.6,1.5-1,2.3c-0.4,0.7-0.9,1.5-1.5,2.2c-0.6,0.8-1.3,1.5-1.9,2
		c-0.7,0.6-1.4,1.1-2.2,1.5c-0.8,0.4-1.6,0.7-2.4,0.9c-0.8,0.2-1.7,0.3-2.5,0.3c-0.3,0-0.6,0-1-0.1c-0.3,0-0.7-0.1-1.1-0.1
		c-0.4,0-0.8-0.1-1.3-0.2c-0.5-0.1-1.1-0.3-1.8-0.5c-0.5,0.2-1,0.3-1.5,0.4c-0.5,0.1-0.9,0.2-1.4,0.3c-0.2,0-0.5,0-0.7,0.1
		c-0.2,0-0.5,0-0.7,0.1c-0.2,0-0.5,0-0.7,0c-0.2,0-0.5,0-0.7,0c-0.6,0-1.1,0-1.6-0.1c-0.5-0.1-0.8-0.1-1.2-0.3
		c-0.3-0.2-0.6-0.3-0.8-0.5c-0.2-0.2-0.3-0.4-0.3-0.7c0-0.3,0.1-0.5,0.2-0.7c0.1-0.2,0.4-0.4,0.7-0.5c0.3-0.2,0.7-0.3,1.1-0.3
		c0.4-0.1,0.9-0.1,1.4-0.1c0.4,0,0.8,0,1.3,0.1c0.5,0.1,0.9,0.1,1.5,0.3c0.5,0.1,1,0.3,1.5,0.4c0.5,0.2,1,0.4,1.6,0.6
		c0.5-0.2,1.1-0.5,1.6-0.9c0.6-0.4,1.1-0.8,1.7-1.4c0.6-0.5,1.3-1.2,2.1-2c0.8-0.8,1.6-1.8,2.5-2.9c0.1-0.1,0.2-0.3,0.4-0.5
		c0.1-0.2,0.3-0.4,0.5-0.7c1.5-1.7,2.8-3.2,4-4.4c1.2-1.2,2.3-2.2,3.3-2.9c-0.3-0.7-0.7-1.4-1.2-1.9c-0.5-0.6-1.1-1-1.8-1.4
		c-0.7-0.4-1.5-0.7-2.3-0.9c-0.9-0.2-1.8-0.3-2.8-0.3c-0.8,0-1.7,0.1-2.5,0.2c-0.8,0.1-1.6,0.4-2.4,0.6c-0.8,0.3-1.5,0.6-2.2,1
		s-1.4,0.9-2,1.4c-0.6,0.4-1,0.9-1.4,1.4c-0.4,0.5-0.7,1-1,1.5c-0.3,0.5-0.5,1-0.7,1.5c-0.1,0.5-0.2,1-0.2,1.5c0,0.5,0.1,1,0.3,1.5
		c0.2,0.4,0.5,0.8,0.9,1.1c0.4,0.3,0.8,0.6,1.3,0.7c0.5,0.2,1.1,0.2,1.8,0.2c1.1,0,2.1-0.2,3.1-0.6c1-0.4,2-1,2.9-1.8
		c0.9-0.8,1.7-1.7,2.4-2.7c0.7-1,1.2-2.2,1.6-3.5l0.5,0.4c-0.3,1.3-0.8,2.5-1.4,3.6c-0.6,1.1-1.4,2-2.3,2.8c-0.9,0.8-1.9,1.4-3,1.8
		c-1.1,0.4-2.2,0.6-3.4,0.6c-0.9,0-1.6-0.1-2.3-0.3c-0.7-0.2-1.3-0.5-1.8-1c-0.5-0.4-0.9-0.9-1.1-1.5c-0.2-0.6-0.4-1.2-0.4-1.9
		c0-0.6,0.1-1.1,0.2-1.7c0.1-0.6,0.4-1.1,0.7-1.7c0.3-0.6,0.7-1.1,1.1-1.6s0.9-1,1.4-1.4c0.6-0.5,1.2-0.9,1.9-1.3
		c0.7-0.4,1.4-0.7,2.2-1c0.8-0.2,1.6-0.4,2.5-0.6c0.9-0.1,1.7-0.2,2.6-0.2c1.1,0,2.2,0.1,3.2,0.3c1,0.2,1.9,0.5,2.7,1
		c0.8,0.4,1.5,0.9,2.1,1.5c0.6,0.6,1.1,1.3,1.5,2.1v0C154.5,57.2,155,56.9,155.7,56.5 M134.9,73.5c-0.4-0.1-0.9-0.3-1.3-0.4
		c-0.4-0.1-0.8-0.2-1.2-0.2c-0.4,0-0.8-0.1-1.1-0.1c-0.4,0-0.7,0-1,0.1c-0.3,0-0.6,0.1-0.8,0.2c-0.2,0.1-0.4,0.2-0.5,0.3
		c-0.1,0.1-0.2,0.2-0.2,0.4c0,0.2,0.1,0.3,0.2,0.4c0.1,0.1,0.4,0.2,0.6,0.3c0.3,0.1,0.6,0.2,1,0.2c0.4,0,0.9,0.1,1.4,0.1
		c0.3,0,0.6,0,1-0.1c0.3,0,0.7-0.1,1.1-0.1c0.4-0.1,0.7-0.1,1.1-0.2c0.4-0.1,0.7-0.2,1.1-0.3v0C135.8,73.8,135.3,73.6,134.9,73.5
		 M151.3,61.6c-0.9,1-1.8,2.2-2.8,3.6l-0.7,1c-0.2,0.3-0.4,0.5-0.5,0.6c-0.7,0.9-1.4,1.7-2.1,2.4c-0.7,0.7-1.4,1.4-2.1,1.9
		c-0.7,0.6-1.4,1.1-2.2,1.6s-1.6,0.9-2.5,1.3c0.4,0.1,0.8,0.2,1.2,0.3c0.4,0.1,0.7,0.2,1,0.2c0.3,0.1,0.6,0.1,0.9,0.1
		c0.3,0,0.6,0,0.9,0c0.7,0,1.5-0.1,2.2-0.3c0.7-0.2,1.4-0.4,2.1-0.8c0.7-0.4,1.4-0.8,2-1.3c0.6-0.5,1.2-1.1,1.8-1.8
		c0.5-0.6,1-1.3,1.5-2c0.4-0.7,0.8-1.5,1.1-2.3c0.3-0.8,0.6-1.6,0.7-2.4c0.1-0.8,0.2-1.5,0.2-2.3V61c0-0.2,0-0.5,0-0.7
		c0-0.2-0.1-0.4-0.1-0.7c0-0.2-0.1-0.4-0.1-0.7v0C153,59.7,152.2,60.6,151.3,61.6"/>
	<path class="st0" d="M153.9,72c-0.2,0.3-0.4,0.6-0.6,0.9c-0.2,0.3-0.3,0.5-0.3,0.7c-0.1,0.2-0.1,0.4-0.1,0.5c0,0.1,0,0.3,0.1,0.4
		c0,0.1,0.1,0.2,0.2,0.3c0.1,0.1,0.2,0.2,0.4,0.2c0.1,0,0.3,0.1,0.5,0.1c0.5,0,1-0.1,1.6-0.3s1.2-0.5,2-0.8c0.7-0.4,1.4-0.8,2.1-1.3
		c0.7-0.5,1.5-1.1,2.3-1.7l0.3,0.5c-0.8,0.7-1.7,1.4-2.4,1.9c-0.8,0.5-1.6,1-2.3,1.4c-0.8,0.4-1.5,0.6-2.1,0.8
		c-0.6,0.2-1.2,0.3-1.7,0.3c-0.3,0-0.6,0-0.8-0.1c-0.2-0.1-0.4-0.2-0.6-0.4c-0.2-0.2-0.3-0.3-0.4-0.6c-0.1-0.2-0.2-0.5-0.2-0.8
		c0-0.5,0.1-1,0.3-1.5c0.2-0.5,0.4-1,0.8-1.6c0.3-0.5,0.7-1.1,1.2-1.6c0.5-0.5,1-1.1,1.7-1.6c0.5-0.4,1-0.8,1.5-1.1
		c0.5-0.3,1-0.6,1.5-0.8c0.5-0.3,1.1-0.4,1.5-0.6c0.5-0.1,0.9-0.2,1.3-0.2c0.3,0,0.5,0,0.6,0.1c0.2,0,0.3,0.1,0.4,0.2
		c0.1,0.1,0.2,0.2,0.3,0.3c0.1,0.1,0.1,0.3,0.1,0.4c0,0.4-0.2,0.8-0.6,1.3c-0.4,0.5-1,0.9-1.8,1.5c-0.8,0.5-1.7,0.9-2.7,1.3
		c-1,0.4-2.1,0.8-3.4,1.1l0,0C154.4,71.3,154.1,71.7,153.9,72 M158,69.2c0.8-0.4,1.5-0.7,2.2-1.2c0.7-0.5,1.2-0.9,1.5-1.2
		c0.3-0.3,0.5-0.6,0.5-0.9c0-0.1,0-0.1,0-0.2c0-0.1-0.1-0.1-0.1-0.1c-0.1,0-0.1-0.1-0.2-0.1c-0.1,0-0.2,0-0.3,0
		c-0.3,0-0.7,0.1-1.2,0.3c-0.5,0.2-1,0.5-1.5,0.9c-0.5,0.4-1.1,0.9-1.7,1.5c-0.6,0.6-1.2,1.2-1.8,1.9l0,0
		C156.4,69.9,157.2,69.6,158,69.2"/>
	<path class="st0" d="M183.2,55.3l-13.3,17.5l0,0.1c-0.3,0.4-0.4,0.7-0.6,0.9c-0.1,0.2-0.2,0.4-0.2,0.5c0,0.1,0,0.2,0,0.2
		c0,0.1,0,0.1,0.1,0.2c0,0,0.1,0,0.2,0.1c0.1,0,0.2,0,0.3,0c0.2,0,0.5-0.1,0.9-0.3c0.4-0.2,0.8-0.4,1.3-0.8c0.5-0.4,1.1-0.8,1.8-1.3
		c0.7-0.5,1.4-1.1,2.1-1.8l0.4,0.4c-0.8,0.7-1.5,1.4-2.1,1.9c-0.7,0.5-1.3,1-1.9,1.4c-0.6,0.4-1.1,0.6-1.5,0.8
		c-0.5,0.2-0.8,0.3-1.2,0.3c-0.2,0-0.4,0-0.5-0.1c-0.2,0-0.3-0.1-0.4-0.2c-0.1-0.1-0.2-0.3-0.3-0.4c-0.1-0.2-0.1-0.4-0.1-0.6
		c0-0.1,0-0.2,0-0.3c0-0.1,0-0.2,0.1-0.3c0-0.1,0.1-0.3,0.1-0.4c0.1-0.2,0.1-0.4,0.2-0.6c-0.4,0.4-0.8,0.7-1.2,1
		c-0.4,0.3-0.8,0.6-1.1,0.8c-0.1,0.1-0.2,0.1-0.4,0.2c-0.1,0.1-0.3,0.2-0.4,0.2c-0.5,0.2-1,0.4-1.4,0.5c-0.4,0.1-0.8,0.2-1.2,0.2
		c-0.3,0-0.5,0-0.7-0.1c-0.2-0.1-0.4-0.2-0.6-0.3c-0.2-0.1-0.3-0.3-0.3-0.5c-0.1-0.2-0.1-0.4-0.1-0.7c0-0.5,0.1-1.1,0.3-1.6
		c0.2-0.5,0.5-1.1,0.9-1.7c0.4-0.6,0.8-1.2,1.4-1.7c0.5-0.5,1.1-1.1,1.8-1.6c0.5-0.4,1-0.7,1.5-1c0.5-0.3,1-0.6,1.5-0.8
		c0.5-0.2,1-0.4,1.5-0.5c0.5-0.1,0.9-0.2,1.2-0.2c0.3,0,0.5,0,0.7,0.1c0.2,0.1,0.4,0.2,0.5,0.3c0.1,0.1,0.2,0.3,0.3,0.4
		c0.1,0.2,0.1,0.4,0.1,0.6v0.1v0.1v0.1v0.1c0,0,0,0,0,0.1v0l8.5-11.3H183.2z M164.3,74.6c0.5-0.2,1-0.5,1.5-0.8
		c0.3-0.2,0.6-0.4,0.9-0.6c0.3-0.2,0.6-0.4,0.8-0.7c0.3-0.2,0.6-0.5,0.8-0.8c0.3-0.3,0.6-0.6,0.9-0.9c0.5-0.5,0.9-0.9,1.2-1.4
		s0.7-0.9,0.9-1.3c0.3-0.4,0.4-0.7,0.6-1c0.1-0.3,0.2-0.6,0.2-0.8c0-0.1,0-0.2-0.1-0.3c0-0.1-0.1-0.2-0.2-0.2
		c-0.1-0.1-0.2-0.1-0.3-0.2c-0.1,0-0.2-0.1-0.3-0.1c-0.3,0-0.7,0.1-1.1,0.3s-0.9,0.4-1.4,0.8c-0.5,0.3-1,0.8-1.5,1.2
		c-0.5,0.5-1.1,1-1.6,1.7c-0.5,0.6-1,1.1-1.4,1.6c-0.4,0.5-0.7,0.9-1,1.3c-0.3,0.4-0.5,0.7-0.6,1s-0.2,0.6-0.2,0.8
		c0,0.1,0,0.2,0.1,0.2c0,0.1,0.1,0.1,0.2,0.2c0,0,0.1,0.1,0.2,0.1s0.2,0,0.3,0l0,0C163.4,74.8,163.8,74.8,164.3,74.6"/>
	<path class="st0" d="M181.6,65.3l-5.3,7.1c-0.2,0.3-0.3,0.6-0.5,0.8c-0.1,0.2-0.3,0.4-0.4,0.6c-0.1,0.2-0.2,0.3-0.2,0.4
		c0,0.1-0.1,0.2-0.1,0.3c0,0.1,0,0.1,0,0.2c0,0.1,0.1,0.1,0.1,0.2c0,0,0.1,0.1,0.2,0.1c0.1,0,0.1,0.1,0.2,0.1c0.2,0,0.5-0.1,0.9-0.3
		c0.4-0.2,0.8-0.4,1.3-0.8c0.5-0.3,1-0.8,1.6-1.3c0.6-0.5,1.2-1.1,1.9-1.7l0.5,0.4c-0.8,0.7-1.5,1.4-2.1,2c-0.6,0.6-1.2,1-1.8,1.4
		c-0.5,0.4-1,0.6-1.5,0.8c-0.4,0.2-0.8,0.3-1.1,0.3c-0.2,0-0.4,0-0.5-0.1c-0.2-0.1-0.3-0.2-0.4-0.3c-0.1-0.1-0.2-0.2-0.3-0.4
		c-0.1-0.2-0.1-0.4-0.1-0.6c0-0.3,0-0.6,0.1-0.9c0.1-0.3,0.2-0.6,0.4-0.9c0.2-0.3,0.4-0.7,0.6-1.2s0.6-0.9,1-1.4l3.4-4.5H181.6z
		 M184.8,60.1c0.1,0,0.2,0.1,0.2,0.2c0.1,0.1,0.2,0.2,0.2,0.3c0,0.1,0.1,0.2,0.1,0.4c0,0.2,0,0.3-0.1,0.5c-0.1,0.2-0.2,0.3-0.4,0.5
		c-0.2,0.2-0.3,0.3-0.5,0.4c-0.2,0.1-0.4,0.1-0.5,0.1c-0.1,0-0.3,0-0.4-0.1c-0.1,0-0.2-0.1-0.3-0.2c-0.1-0.1-0.2-0.2-0.2-0.3
		c0-0.1-0.1-0.2-0.1-0.3c0-0.2,0-0.4,0.1-0.5c0.1-0.2,0.2-0.3,0.4-0.5c0.2-0.2,0.4-0.3,0.5-0.4c0.2-0.1,0.4-0.1,0.6-0.1v0
		C184.6,60,184.7,60,184.8,60.1"/>
	<path class="st0" d="M191.1,70.5c-0.9,0.9-1.8,1.6-2.7,2.3c-0.8,0.6-1.6,1.2-2.4,1.6c-0.8,0.4-1.5,0.7-2.1,1
		c-0.6,0.2-1.2,0.3-1.7,0.3c-0.3,0-0.6,0-0.8-0.1c-0.3-0.1-0.5-0.2-0.6-0.3c-0.2-0.2-0.3-0.4-0.4-0.6c-0.1-0.2-0.1-0.5-0.1-0.8
		c0-0.5,0.1-0.9,0.2-1.4c0.1-0.5,0.4-1,0.7-1.5c0.3-0.6,0.7-1.1,1.1-1.6c0.4-0.5,0.9-1,1.4-1.4c0.5-0.5,1-0.9,1.5-1.2
		c0.5-0.4,1.1-0.7,1.6-1c0.6-0.3,1.1-0.5,1.6-0.6c0.5-0.1,0.9-0.2,1.3-0.2c0.3,0,0.5,0,0.7,0.1c0.2,0.1,0.4,0.2,0.6,0.3
		c0.2,0.1,0.3,0.3,0.4,0.5c0.1,0.2,0.1,0.4,0.1,0.6c0,0.3,0,0.5-0.1,0.7c-0.1,0.2-0.2,0.4-0.4,0.6c-0.2,0.2-0.4,0.4-0.6,0.5
		c-0.2,0.1-0.4,0.2-0.7,0.2c-0.1,0-0.2,0-0.3,0c-0.1,0-0.2-0.1-0.3-0.1c-0.1-0.1-0.1-0.1-0.2-0.2c0-0.1-0.1-0.2-0.1-0.3
		c0-0.1,0-0.2,0.1-0.3c0-0.1,0.1-0.2,0.2-0.2c0-0.1,0.1-0.1,0.2-0.2c0.1-0.1,0.2-0.1,0.3-0.1c0,0,0.1,0,0.2,0c0.1,0,0.1,0,0.2-0.1
		c0.3,0,0.5-0.1,0.6-0.2c0.1-0.1,0.2-0.2,0.2-0.3c0-0.1,0-0.1-0.1-0.2c0-0.1-0.1-0.1-0.2-0.2c0,0-0.1-0.1-0.2-0.1
		c-0.1,0-0.2-0.1-0.3-0.1c-0.3,0-0.7,0.1-1.2,0.3c-0.5,0.2-1,0.5-1.6,0.9c-0.4,0.3-0.8,0.6-1.1,0.9c-0.4,0.3-0.8,0.7-1.1,1l-0.6,0.6
		c-0.2,0.2-0.4,0.4-0.6,0.6c-0.4,0.4-0.8,0.9-1.1,1.3c-0.3,0.4-0.6,0.8-0.8,1.2c-0.3,0.4-0.4,0.7-0.6,1c-0.1,0.3-0.2,0.5-0.2,0.7
		c0,0.2,0,0.3,0.1,0.4c0,0.1,0.1,0.2,0.2,0.3c0.1,0.1,0.2,0.1,0.3,0.2c0.1,0,0.3,0.1,0.5,0.1c0.4,0,0.9-0.1,1.4-0.3
		c0.6-0.2,1.2-0.6,1.9-1c0.7-0.5,1.5-1,2.3-1.6c0.8-0.6,1.7-1.3,2.6-2.1v0L191.1,70.5z"/>
	<path class="st0" d="M201.5,65.3h1.8l-5.6,7.5l0,0.1c-0.3,0.4-0.4,0.7-0.6,0.9c-0.1,0.2-0.2,0.4-0.2,0.5c0,0.1,0,0.2,0,0.2
		c0,0.1,0,0.1,0.1,0.2c0,0,0.1,0,0.2,0.1c0.1,0,0.2,0,0.3,0c0.2,0,0.5-0.1,0.8-0.3c0.4-0.2,0.8-0.4,1.3-0.8c0.5-0.4,1.1-0.8,1.8-1.3
		c0.7-0.5,1.4-1.1,2.1-1.8l0.4,0.4c-0.7,0.7-1.5,1.4-2.1,1.9c-0.7,0.5-1.3,1-1.9,1.4c-0.6,0.4-1.1,0.6-1.5,0.8
		c-0.5,0.2-0.8,0.3-1.2,0.3c-0.2,0-0.4,0-0.5-0.1c-0.2,0-0.3-0.1-0.4-0.2c-0.1-0.1-0.2-0.3-0.3-0.4c-0.1-0.2-0.1-0.4-0.1-0.6
		c0-0.1,0-0.2,0-0.3c0-0.1,0-0.2,0.1-0.4c0-0.1,0.1-0.3,0.1-0.4c0-0.2,0.1-0.3,0.1-0.5c-0.3,0.3-0.7,0.6-1,0.9
		c-0.3,0.3-0.7,0.5-1,0.8c-0.2,0.1-0.4,0.2-0.5,0.3c-0.2,0.1-0.3,0.2-0.5,0.3c-0.5,0.2-1,0.4-1.4,0.5c-0.4,0.1-0.8,0.2-1.2,0.2
		c-0.3,0-0.5,0-0.7-0.1c-0.2-0.1-0.4-0.2-0.5-0.3c-0.2-0.2-0.3-0.3-0.3-0.5c-0.1-0.2-0.1-0.4-0.1-0.7c0-0.5,0.1-1,0.3-1.6
		c0.2-0.5,0.5-1.1,0.9-1.7c0.4-0.6,0.8-1.2,1.3-1.7c0.5-0.5,1.1-1,1.8-1.5c0.5-0.4,1-0.7,1.5-1c0.5-0.3,1-0.6,1.5-0.8
		c0.5-0.2,1-0.4,1.5-0.5c0.5-0.1,0.9-0.2,1.3-0.2c0.3,0,0.5,0,0.7,0.1c0.2,0.1,0.3,0.2,0.5,0.3c0.1,0.1,0.2,0.3,0.3,0.4
		c0.1,0.2,0.1,0.4,0.1,0.6v0.3L201.5,65.3z M198.1,65.8c-0.4,0.2-0.8,0.4-1.2,0.7c-0.5,0.3-1,0.7-1.4,1.1c-0.5,0.4-1,0.9-1.5,1.4
		c-0.6,0.6-1.1,1.2-1.6,1.7c-0.5,0.5-0.8,1-1.2,1.5c-0.3,0.5-0.6,0.8-0.7,1.2c-0.2,0.3-0.3,0.6-0.3,0.9c0,0.1,0,0.2,0.1,0.2
		c0,0.1,0.1,0.1,0.1,0.2c0.1,0,0.1,0.1,0.2,0.1c0.1,0,0.2,0,0.3,0c0.3,0,0.7-0.1,1.1-0.2c0.4-0.2,0.9-0.4,1.4-0.7
		c0.5-0.3,1-0.7,1.5-1.2c0.5-0.5,1.1-1,1.6-1.5c0.5-0.5,1-1.1,1.4-1.5s0.8-0.9,1.1-1.4c0.3-0.4,0.5-0.8,0.6-1.1
		c0.1-0.3,0.2-0.6,0.2-0.8c0-0.1,0-0.2,0-0.3c0-0.1-0.1-0.2-0.2-0.2c-0.1-0.1-0.2-0.1-0.3-0.2c-0.1,0-0.2-0.1-0.4-0.1v0
		C198.8,65.6,198.5,65.7,198.1,65.8"/>
	<path class="st0" d="M213.9,59.8l-2.4,3.2h3.3l-0.5,0.7H211l-6.8,9.1c0,0.1-0.1,0.2-0.1,0.3c0,0.1-0.1,0.2-0.2,0.3
		c0,0.1-0.1,0.2-0.1,0.3c0,0.1-0.1,0.2-0.1,0.2c-0.1,0.2-0.2,0.3-0.2,0.4c0,0.1-0.1,0.2-0.1,0.3c0,0.1,0,0.1,0,0.2
		c0,0,0.1,0.1,0.1,0.1c0,0,0.1,0.1,0.2,0.1c0.1,0,0.2,0,0.3,0c0.2,0,0.5-0.1,0.9-0.3c0.4-0.2,0.8-0.5,1.3-0.8c0.5-0.4,1-0.8,1.6-1.3
		c0.6-0.5,1.2-1.1,1.9-1.7l0.4,0.3c-0.7,0.7-1.3,1.4-1.9,1.9c-0.6,0.5-1.2,1-1.7,1.4c-0.6,0.4-1.1,0.6-1.6,0.8
		c-0.5,0.2-0.9,0.3-1.3,0.3c-0.2,0-0.3,0-0.5-0.1c-0.1-0.1-0.3-0.2-0.4-0.3c-0.1-0.1-0.2-0.2-0.3-0.4c-0.1-0.2-0.1-0.3-0.1-0.5
		c0-0.3,0-0.6,0.1-0.9c0.1-0.3,0.2-0.7,0.4-1.1c0.2-0.4,0.4-0.8,0.6-1.2c0.2-0.4,0.5-0.8,0.8-1.3l4.5-6.1h-2.4L207,63h2.4l2.4-3.2
		H213.9z"/>
	<path class="st0" d="M210.9,72c-0.2,0.3-0.4,0.6-0.6,0.9c-0.2,0.3-0.3,0.5-0.3,0.7c-0.1,0.2-0.1,0.4-0.1,0.5c0,0.1,0,0.3,0.1,0.4
		c0,0.1,0.1,0.2,0.2,0.3c0.1,0.1,0.2,0.2,0.4,0.2c0.1,0,0.3,0.1,0.5,0.1c0.5,0,1-0.1,1.6-0.3s1.2-0.5,2-0.8c0.7-0.4,1.4-0.8,2.1-1.3
		c0.7-0.5,1.5-1.1,2.3-1.7l0.3,0.5c-0.8,0.7-1.7,1.4-2.4,1.9c-0.8,0.5-1.6,1-2.3,1.4c-0.8,0.4-1.5,0.6-2.1,0.8
		c-0.6,0.2-1.2,0.3-1.7,0.3c-0.3,0-0.6,0-0.8-0.1c-0.2-0.1-0.4-0.2-0.6-0.4c-0.2-0.2-0.3-0.3-0.4-0.6c-0.1-0.2-0.2-0.5-0.2-0.8
		c0-0.5,0.1-1,0.3-1.5c0.2-0.5,0.4-1,0.8-1.6c0.3-0.5,0.7-1.1,1.2-1.6c0.5-0.5,1-1.1,1.7-1.6c0.5-0.4,1-0.8,1.5-1.1
		c0.5-0.3,1-0.6,1.5-0.8c0.5-0.3,1.1-0.4,1.5-0.6c0.5-0.1,0.9-0.2,1.3-0.2c0.2,0,0.5,0,0.6,0.1c0.2,0,0.3,0.1,0.4,0.2
		c0.1,0.1,0.2,0.2,0.3,0.3c0.1,0.1,0.1,0.3,0.1,0.4c0,0.4-0.2,0.8-0.6,1.3c-0.4,0.5-1,0.9-1.8,1.5c-0.8,0.5-1.7,0.9-2.7,1.3
		c-1,0.4-2.1,0.8-3.4,1.1l0,0C211.4,71.3,211.1,71.7,210.9,72 M215.1,69.2c0.8-0.4,1.5-0.7,2.2-1.2c0.7-0.5,1.2-0.9,1.5-1.2
		c0.3-0.3,0.5-0.6,0.5-0.9c0-0.1,0-0.1,0-0.2c0-0.1-0.1-0.1-0.1-0.1c-0.1,0-0.1-0.1-0.2-0.1c-0.1,0-0.2,0-0.3,0
		c-0.3,0-0.7,0.1-1.2,0.3c-0.5,0.2-1,0.5-1.5,0.9c-0.5,0.4-1.1,0.9-1.7,1.5c-0.6,0.6-1.2,1.2-1.8,1.9l0,0
		C213.4,69.9,214.3,69.6,215.1,69.2"/>
	<path class="st0" d="M240.2,55.3l-13.3,17.5l0,0.1c-0.2,0.4-0.4,0.7-0.6,0.9c-0.1,0.2-0.2,0.4-0.2,0.5c0,0.1,0,0.2,0,0.2
		c0,0.1,0,0.1,0.1,0.2c0,0,0.1,0,0.2,0.1c0.1,0,0.2,0,0.3,0c0.2,0,0.5-0.1,0.9-0.3c0.4-0.2,0.8-0.4,1.3-0.8c0.5-0.4,1.1-0.8,1.8-1.3
		c0.7-0.5,1.4-1.1,2.1-1.8l0.4,0.4c-0.8,0.7-1.5,1.4-2.1,1.9c-0.7,0.5-1.3,1-1.9,1.4c-0.6,0.4-1.1,0.6-1.5,0.8
		c-0.5,0.2-0.8,0.3-1.2,0.3c-0.2,0-0.4,0-0.5-0.1c-0.2,0-0.3-0.1-0.4-0.2c-0.1-0.1-0.2-0.3-0.3-0.4c-0.1-0.2-0.1-0.4-0.1-0.6
		c0-0.1,0-0.2,0-0.3c0-0.1,0-0.2,0.1-0.3c0-0.1,0.1-0.3,0.1-0.4c0.1-0.2,0.1-0.4,0.2-0.6c-0.4,0.4-0.8,0.7-1.2,1
		c-0.4,0.3-0.8,0.6-1.1,0.8c-0.1,0.1-0.2,0.1-0.4,0.2c-0.1,0.1-0.3,0.2-0.4,0.2c-0.5,0.2-1,0.4-1.4,0.5c-0.4,0.1-0.8,0.2-1.2,0.2
		c-0.2,0-0.5,0-0.7-0.1c-0.2-0.1-0.4-0.2-0.6-0.3c-0.2-0.1-0.3-0.3-0.3-0.5c-0.1-0.2-0.1-0.4-0.1-0.7c0-0.5,0.1-1.1,0.3-1.6
		c0.2-0.5,0.5-1.1,0.9-1.7c0.4-0.6,0.8-1.2,1.4-1.7c0.5-0.5,1.1-1.1,1.8-1.6c0.5-0.4,1-0.7,1.5-1c0.5-0.3,1-0.6,1.5-0.8
		c0.5-0.2,1-0.4,1.5-0.5c0.5-0.1,0.9-0.2,1.2-0.2c0.3,0,0.5,0,0.7,0.1c0.2,0.1,0.4,0.2,0.5,0.3c0.1,0.1,0.2,0.3,0.3,0.4
		c0.1,0.2,0.1,0.4,0.1,0.6v0.1v0.1v0.1v0.1c0,0,0,0,0,0.1v0l8.5-11.3H240.2z M221.3,74.6c0.5-0.2,1-0.5,1.5-0.8
		c0.3-0.2,0.6-0.4,0.9-0.6c0.3-0.2,0.6-0.4,0.8-0.7c0.3-0.2,0.6-0.5,0.8-0.8c0.3-0.3,0.6-0.6,0.9-0.9c0.5-0.5,0.9-0.9,1.2-1.4
		c0.4-0.4,0.7-0.9,0.9-1.3c0.2-0.4,0.4-0.7,0.6-1c0.1-0.3,0.2-0.6,0.2-0.8c0-0.1,0-0.2-0.1-0.3c0-0.1-0.1-0.2-0.2-0.2
		c-0.1-0.1-0.2-0.1-0.3-0.2c-0.1,0-0.2-0.1-0.3-0.1c-0.3,0-0.7,0.1-1.1,0.3c-0.4,0.2-0.9,0.4-1.4,0.8c-0.5,0.3-1,0.8-1.5,1.2
		c-0.5,0.5-1.1,1-1.6,1.7c-0.5,0.6-1,1.1-1.4,1.6c-0.4,0.5-0.7,0.9-1,1.3c-0.3,0.4-0.5,0.7-0.6,1s-0.2,0.6-0.2,0.8
		c0,0.1,0,0.2,0.1,0.2c0,0.1,0.1,0.1,0.2,0.2c0,0,0.1,0.1,0.2,0.1c0.1,0,0.2,0,0.3,0l0,0C220.4,74.8,220.8,74.8,221.3,74.6"/>
	<path class="st0" d="M248.2,59.8l-2.4,3.2h3.3l-0.5,0.7h-3.3l-6.8,9.1c0,0.1-0.1,0.2-0.1,0.3c0,0.1-0.1,0.2-0.2,0.3
		c0,0.1-0.1,0.2-0.1,0.3c0,0.1-0.1,0.2-0.1,0.2c-0.1,0.2-0.2,0.3-0.2,0.4c0,0.1-0.1,0.2-0.1,0.3c0,0.1,0,0.1,0,0.2
		c0,0,0.1,0.1,0.1,0.1c0,0,0.1,0.1,0.2,0.1c0.1,0,0.2,0,0.3,0c0.2,0,0.5-0.1,0.9-0.3c0.4-0.2,0.8-0.5,1.3-0.8c0.5-0.4,1-0.8,1.6-1.3
		c0.6-0.5,1.2-1.1,1.9-1.7l0.4,0.3c-0.7,0.7-1.4,1.4-1.9,1.9c-0.6,0.5-1.2,1-1.7,1.4c-0.6,0.4-1.1,0.6-1.6,0.8
		c-0.5,0.2-0.9,0.3-1.3,0.3c-0.2,0-0.3,0-0.5-0.1c-0.1-0.1-0.3-0.2-0.4-0.3c-0.1-0.1-0.2-0.2-0.3-0.4c-0.1-0.2-0.1-0.3-0.1-0.5
		c0-0.3,0-0.6,0.1-0.9c0.1-0.3,0.2-0.7,0.4-1.1c0.2-0.4,0.4-0.8,0.6-1.2c0.2-0.4,0.5-0.8,0.8-1.3l4.5-6.1h-2.4l0.5-0.7h2.4l2.4-3.2
		H248.2z"/>
	<path class="st0" d="M253.6,70.4c0.1,0,0.2,0.1,0.3,0.1c0.1,0,0.1,0,0.2,0c0.1,0,0.1,0,0.2,0c0,0,0.1,0,0.2,0h0.2
		c0.1,0,0.3,0,0.4,0c0.1,0,0.3,0,0.4-0.1c0.1,0,0.2-0.1,0.4-0.1c0.1,0,0.3-0.1,0.4-0.2l0.2,0.4c-0.1,0.1-0.3,0.2-0.4,0.3
		c-0.1,0.1-0.3,0.1-0.5,0.2c-0.2,0-0.3,0-0.5,0.1c-0.2,0-0.4,0-0.6,0c-0.1,0-0.3,0-0.4,0l-0.4-0.1c-0.1,0-0.1,0-0.2-0.1
		c-0.1,0-0.1-0.1-0.2-0.1c-0.1,0-0.1-0.1-0.2-0.1c-0.1,0-0.1-0.1-0.2-0.1c-0.4,0.5-0.8,1-1.2,1.5c-0.4,0.5-0.8,0.9-1.3,1.3
		c-0.2,0.2-0.4,0.4-0.6,0.5c-0.2,0.2-0.4,0.3-0.6,0.5c-0.7,0.4-1.3,0.7-1.9,1c-0.6,0.2-1.1,0.3-1.7,0.3c-0.3,0-0.6,0-0.8-0.1
		c-0.2-0.1-0.4-0.2-0.6-0.3c-0.2-0.2-0.3-0.4-0.4-0.6s-0.1-0.5-0.1-0.7c0-0.5,0.1-0.9,0.3-1.4c0.2-0.5,0.4-1,0.8-1.6
		c0.4-0.6,0.8-1.1,1.2-1.6c0.5-0.5,1-1,1.6-1.5c0.5-0.4,0.9-0.7,1.3-1c0.4-0.3,0.8-0.5,1.2-0.8c0.1,0,0.2-0.1,0.3-0.2
		c0.1-0.1,0.2-0.1,0.3-0.2c0.5-0.3,1-0.4,1.5-0.6c0.5-0.1,0.9-0.2,1.3-0.2c0.2,0,0.4,0,0.6,0.1c0.2,0.1,0.3,0.2,0.5,0.3
		c0.1,0.1,0.2,0.3,0.3,0.4c0.1,0.2,0.1,0.3,0.1,0.5c0,0.2,0,0.5-0.1,0.8c-0.1,0.3-0.2,0.6-0.3,1c-0.2,0.3-0.3,0.7-0.5,1.1
		c-0.2,0.4-0.4,0.7-0.7,1.1v0C253.4,70.3,253.5,70.3,253.6,70.4 M254.1,66.9C254.1,66.9,254.1,66.9,254.1,66.9l0-0.1v-0.1v-0.1
		c0,0,0-0.1,0-0.1v-0.1v-0.1c0-0.1,0-0.2,0-0.3c0-0.1-0.1-0.2-0.2-0.3c-0.1-0.1-0.1-0.1-0.2-0.2c-0.1,0-0.2-0.1-0.3-0.1
		c-0.3,0-0.6,0.1-1,0.2c-0.4,0.1-0.8,0.4-1.2,0.7c-0.5,0.3-1,0.7-1.4,1.1s-1,0.9-1.6,1.4c-0.5,0.6-1,1.1-1.5,1.6
		c-0.4,0.5-0.8,1-1.1,1.4c-0.3,0.4-0.6,0.8-0.7,1.1c-0.2,0.3-0.2,0.6-0.2,0.8c0,0.2,0,0.3,0.1,0.4c0,0.1,0.1,0.2,0.2,0.3
		c0.1,0.1,0.2,0.2,0.4,0.2c0.1,0,0.3,0.1,0.5,0.1c0.4,0,0.9-0.1,1.4-0.3c0.5-0.2,1-0.5,1.5-0.9c0.5-0.4,1.1-0.9,1.7-1.5
		c0.6-0.6,1.3-1.3,2-2.2c0,0,0-0.1,0-0.1s0-0.1,0-0.1c0,0,0-0.1-0.1-0.2c0-0.1,0-0.1,0-0.2c0-0.1,0-0.1-0.1-0.2c0-0.1,0-0.1,0-0.2
		c0-0.1,0-0.3,0-0.4c0-0.1,0.1-0.2,0.1-0.4c0.1-0.1,0.1-0.2,0.2-0.4c0.1-0.1,0.1-0.3,0.2-0.4c0.2-0.3,0.4-0.5,0.6-0.6
		C253.7,67,253.9,67,254.1,66.9L254.1,66.9L254.1,66.9z"/>
	<path class="st0" d="M272.8,66.9c0.6-0.4,1.1-0.8,1.6-1.1c0.5-0.3,1-0.5,1.5-0.7c0.5-0.1,0.9-0.2,1.2-0.2c0.2,0,0.4,0,0.6,0.1
		c0.2,0,0.3,0.1,0.4,0.2c0.1,0.1,0.2,0.2,0.3,0.4c0.1,0.2,0.1,0.3,0.1,0.5c0,0.2,0,0.4-0.1,0.6c-0.1,0.2-0.2,0.5-0.3,0.8
		c-0.2,0.3-0.3,0.6-0.5,0.9c-0.2,0.3-0.4,0.6-0.7,0.9l-3.1,3.6c-0.2,0.2-0.3,0.4-0.4,0.6c-0.1,0.2-0.2,0.3-0.3,0.4
		c-0.1,0.1-0.1,0.2-0.2,0.3c0,0.1-0.1,0.2-0.1,0.2c0,0.1,0,0.1,0,0.2l0.1,0.1c0,0,0.1,0,0.2,0.1c0.1,0,0.1,0,0.2,0
		c0.3,0,0.7-0.1,1.1-0.3c0.4-0.2,0.9-0.5,1.5-0.8c0.6-0.4,1.2-0.8,1.9-1.3c0.7-0.5,1.4-1.1,2.2-1.8l0.4,0.4c-0.7,0.7-1.5,1.4-2.1,2
		c-0.7,0.6-1.3,1-2,1.4c-0.6,0.4-1.2,0.7-1.8,0.8c-0.5,0.2-1,0.3-1.4,0.3c-0.2,0-0.3,0-0.5-0.1c-0.1-0.1-0.3-0.1-0.4-0.2
		c-0.1-0.1-0.2-0.3-0.2-0.4c-0.1-0.2-0.1-0.4-0.1-0.6c0-0.2,0-0.5,0.1-0.7c0.1-0.3,0.2-0.5,0.3-0.8c0.2-0.3,0.3-0.6,0.5-0.9
		c0.2-0.3,0.4-0.6,0.7-0.9l3.1-3.6c0.1-0.1,0.2-0.3,0.3-0.4c0.1-0.1,0.2-0.2,0.2-0.3c0.1-0.1,0.1-0.2,0.2-0.3c0-0.1,0-0.1,0-0.2
		c0-0.1,0-0.1,0-0.2c0-0.1-0.1-0.1-0.1-0.2c0,0-0.1-0.1-0.2-0.1c-0.1,0-0.1,0-0.3,0c-0.6,0-1.2,0.2-2,0.7c-0.8,0.5-1.7,1.1-2.8,2
		c-1,0.9-2.1,1.9-3.1,3.1c-1,1.2-2,2.5-3.1,3.9h-1.9l6.2-8l0.1-0.2c0.2-0.2,0.4-0.5,0.5-0.6c0.1-0.2,0.2-0.3,0.2-0.4
		c0-0.1,0-0.1,0-0.2c0-0.1-0.1-0.1-0.1-0.2c0,0-0.1-0.1-0.2-0.1c-0.1,0-0.1,0-0.2,0c-0.6,0-1.2,0.2-2,0.7c-0.8,0.5-1.7,1.1-2.8,2
		c-0.3,0.3-0.6,0.6-1,0.9c-0.3,0.3-0.7,0.7-1,1c-0.7,0.7-1.4,1.5-2.1,2.3c-0.7,0.8-1.4,1.7-2,2.7h-2l7.4-9.9h1.7l-2.3,3.1
		c0.7-0.6,1.3-1.1,1.9-1.5c0.6-0.4,1.2-0.8,1.6-1.1c0.5-0.3,1-0.5,1.4-0.7c0.4-0.1,0.8-0.2,1.2-0.2c0.3,0,0.5,0,0.6,0.1
		c0.2,0,0.3,0.1,0.4,0.2c0.1,0.1,0.2,0.2,0.3,0.4c0.1,0.1,0.1,0.3,0.1,0.5c0,0.2-0.1,0.4-0.2,0.7c-0.1,0.3-0.3,0.7-0.6,1.2
		c0,0.1-0.1,0.1-0.1,0.2l-0.1,0.1v0C271.6,67.7,272.2,67.3,272.8,66.9"/>
	<path class="st0" d="M285.7,65.3l-5.9,7.7c-0.1,0.2-0.2,0.3-0.3,0.4c-0.1,0.1-0.2,0.3-0.2,0.4c-0.1,0.2-0.2,0.3-0.2,0.4
		c0,0.1-0.1,0.2-0.1,0.3c0,0.1,0,0.1,0.1,0.2c0,0.1,0.1,0.1,0.1,0.2l0.2,0.1c0.1,0,0.2,0.1,0.3,0.1c0.5,0,1.2-0.2,1.9-0.7
		c0.8-0.4,1.6-1.1,2.6-2c1-0.9,2-1.9,3-3.1c1-1.2,2-2.5,3.1-3.9l1.8,0l-7,9.3c0.5-0.2,0.9-0.4,1.4-0.6c0.4-0.2,0.9-0.4,1.3-0.7
		c0.2-0.1,0.4-0.2,0.6-0.3s0.4-0.2,0.6-0.3c0.6-0.3,1.1-0.7,1.6-1c0.5-0.4,1-0.7,1.4-1.1l0.4,0.5c-0.5,0.5-1.1,0.9-1.7,1.3
		c-0.6,0.4-1.2,0.8-1.9,1.2c-0.7,0.4-1.3,0.7-2.1,1.1c-0.7,0.3-1.5,0.6-2.3,0.9c-0.9,1.3-1.8,2.5-2.7,3.5c-0.9,1-1.8,1.9-2.7,2.7
		c-0.9,0.7-1.8,1.3-2.5,1.7c-0.8,0.4-1.5,0.5-2.1,0.5c-0.2,0-0.4,0-0.6-0.1c-0.2,0-0.3-0.1-0.5-0.2c-0.2-0.1-0.3-0.2-0.3-0.3
		c-0.1-0.1-0.1-0.3-0.1-0.5c0-0.5,0.2-1.1,0.7-1.7s1.2-1.2,2.1-1.9c0.9-0.7,2-1.3,3.2-1.9c1.2-0.6,2.6-1.2,4-1.7l2.8-3.7
		c-0.6,0.7-1.2,1.2-1.8,1.7c-0.6,0.5-1.1,0.9-1.7,1.2c-0.5,0.3-1,0.6-1.5,0.7c-0.5,0.2-0.9,0.2-1.2,0.2c-0.2,0-0.4,0-0.6-0.1
		c-0.2-0.1-0.3-0.2-0.4-0.3c-0.1-0.1-0.2-0.2-0.3-0.4c-0.1-0.2-0.1-0.4-0.1-0.6c0-0.3,0-0.6,0.1-0.9c0.1-0.3,0.2-0.6,0.3-1
		c0.2-0.3,0.4-0.7,0.6-1.1c0.2-0.4,0.5-0.7,0.8-1.1l3.8-4.9H285.7z M278.9,77.9c-1,0.5-1.9,1.1-2.7,1.7c-0.8,0.6-1.4,1.1-1.8,1.6
		s-0.6,0.9-0.6,1.3c0,0.1,0,0.2,0.1,0.3c0,0.1,0.1,0.2,0.1,0.2c0.1,0,0.2,0.1,0.3,0.1c0.1,0,0.2,0.1,0.3,0.1c0.4,0,0.9-0.1,1.4-0.4
		c0.5-0.3,1.1-0.7,1.7-1.2c0.6-0.6,1.3-1.3,2.1-2.1c0.8-0.9,1.6-1.9,2.6-3.1h0C281.1,76.8,279.9,77.3,278.9,77.9"/>
	<path class="st0" d="M156.5,90.8h1.8l-6.9,9.1c0.6-0.2,1.2-0.5,1.8-0.8c0.6-0.3,1.1-0.6,1.7-0.9c0.5-0.3,1.1-0.7,1.6-1
		c0.5-0.4,1-0.7,1.5-1.2l0.4,0.5c-0.5,0.5-1,0.9-1.6,1.3c-0.6,0.4-1.2,0.8-1.9,1.2c-0.6,0.4-1.3,0.7-2,1.1c-0.7,0.3-1.5,0.7-2.3,1
		c-1,1.4-1.9,2.6-2.8,3.6c-0.9,1-1.9,1.9-2.8,2.6c-0.9,0.7-1.8,1.3-2.6,1.6c-0.8,0.4-1.6,0.5-2.3,0.5c-0.2,0-0.5,0-0.6-0.1
		c-0.2,0-0.3-0.1-0.5-0.2c-0.1-0.1-0.2-0.2-0.3-0.3c-0.1-0.1-0.1-0.3-0.1-0.5c0-0.5,0.2-1.1,0.7-1.7c0.5-0.6,1.2-1.2,2.1-1.9
		c1-0.7,2.1-1.3,3.4-2c1.3-0.6,2.8-1.3,4.4-1.9l2.6-3.4c-0.6,0.6-1.2,1.2-1.8,1.6c-0.6,0.5-1.1,0.8-1.6,1.2c-0.5,0.3-1,0.5-1.5,0.7
		c-0.5,0.1-0.9,0.2-1.3,0.2c-0.2,0-0.5,0-0.7-0.1c-0.2-0.1-0.4-0.2-0.5-0.3c-0.1-0.2-0.2-0.4-0.3-0.6c-0.1-0.2-0.1-0.5-0.1-0.7
		c0-0.5,0.1-1,0.3-1.5c0.2-0.5,0.5-1.1,0.9-1.7c0.4-0.6,0.9-1.2,1.4-1.8c0.5-0.6,1.1-1.1,1.8-1.5c0.3-0.2,0.5-0.4,0.7-0.5
		c0.2-0.2,0.5-0.3,0.7-0.5c0.2-0.2,0.5-0.3,0.7-0.4c0.2-0.1,0.5-0.2,0.7-0.3c0.5-0.2,1-0.4,1.4-0.5c0.4-0.1,0.8-0.2,1.2-0.2
		c0.3,0,0.5,0,0.7,0.1c0.2,0.1,0.4,0.2,0.5,0.3c0.1,0.1,0.2,0.3,0.3,0.5c0.1,0.2,0.1,0.4,0.1,0.7V92L156.5,90.8z M144.8,103.3
		c-1.1,0.6-2.1,1.1-2.9,1.7c-0.9,0.6-1.5,1.1-1.9,1.6c-0.4,0.5-0.6,0.9-0.6,1.3c0,0.1,0,0.2,0.1,0.3c0,0.1,0.1,0.2,0.2,0.2
		c0.1,0.1,0.2,0.1,0.3,0.1c0.1,0,0.2,0,0.4,0c0.4,0,0.9-0.1,1.5-0.4s1.2-0.7,1.9-1.4c0.7-0.6,1.5-1.3,2.2-2.2c0.8-0.9,1.6-1.9,2.5-3
		h0C147.2,102.2,145.9,102.8,144.8,103.3 M152.9,91.5c-0.4,0.2-0.9,0.4-1.4,0.8c-0.5,0.4-1,0.8-1.5,1.3c-0.5,0.5-1,1-1.6,1.6
		c-0.5,0.6-1,1.1-1.4,1.6s-0.8,0.9-1.1,1.3c-0.3,0.4-0.5,0.8-0.6,1.1c-0.1,0.3-0.2,0.5-0.2,0.7c0,0.1,0,0.2,0.1,0.3s0.1,0.2,0.2,0.2
		c0,0,0.1,0.1,0.2,0.1c0.1,0,0.2,0.1,0.3,0.1c0.3,0,0.6-0.1,1-0.2c0.4-0.1,0.8-0.4,1.3-0.6c0.5-0.3,0.9-0.6,1.4-1
		c0.5-0.4,1-0.8,1.5-1.3c0.6-0.5,1.1-1,1.6-1.6c0.5-0.5,0.9-1,1.2-1.5c0.4-0.5,0.6-1,0.8-1.3c0.2-0.4,0.3-0.7,0.3-0.9
		c0-0.1,0-0.2-0.1-0.3c0-0.1-0.1-0.2-0.2-0.2c-0.1,0-0.2-0.1-0.3-0.1s-0.2-0.1-0.4-0.1v0C153.6,91.2,153.3,91.3,152.9,91.5"/>
	<path class="st0" d="M166.2,95.9c0.1,0,0.2,0.1,0.3,0.1c0.1,0,0.1,0,0.2,0c0.1,0,0.1,0,0.2,0c0,0,0.1,0,0.2,0h0.2
		c0.1,0,0.3,0,0.4,0c0.1,0,0.3,0,0.4-0.1c0.1,0,0.2-0.1,0.4-0.1c0.1,0,0.3-0.1,0.4-0.2l0.2,0.4c-0.1,0.1-0.3,0.2-0.4,0.3
		c-0.1,0.1-0.3,0.1-0.5,0.2c-0.2,0-0.3,0-0.5,0.1c-0.2,0-0.4,0-0.6,0c-0.1,0-0.3,0-0.4,0l-0.4-0.1c-0.1,0-0.1,0-0.2-0.1
		c-0.1,0-0.1-0.1-0.2-0.1c-0.1,0-0.1-0.1-0.2-0.1c-0.1,0-0.1-0.1-0.2-0.1c-0.4,0.5-0.8,1-1.2,1.5c-0.4,0.5-0.8,0.9-1.3,1.3
		c-0.2,0.2-0.4,0.4-0.6,0.5c-0.2,0.2-0.4,0.3-0.6,0.5c-0.7,0.4-1.3,0.7-1.9,1c-0.6,0.2-1.1,0.3-1.7,0.3c-0.3,0-0.6,0-0.8-0.1
		c-0.2-0.1-0.4-0.2-0.6-0.3c-0.2-0.2-0.3-0.4-0.4-0.6c-0.1-0.2-0.1-0.5-0.1-0.7c0-0.5,0.1-0.9,0.3-1.4c0.2-0.5,0.4-1,0.8-1.6
		c0.4-0.6,0.8-1.1,1.2-1.6c0.5-0.5,1-1,1.6-1.5c0.5-0.4,0.9-0.7,1.3-1c0.4-0.3,0.8-0.5,1.2-0.8c0.1,0,0.2-0.1,0.3-0.2
		c0.1-0.1,0.2-0.1,0.3-0.2c0.5-0.3,1-0.4,1.5-0.6c0.5-0.1,0.9-0.2,1.3-0.2c0.2,0,0.4,0,0.6,0.1c0.2,0.1,0.3,0.2,0.5,0.3
		c0.1,0.1,0.2,0.3,0.3,0.4c0.1,0.2,0.1,0.3,0.1,0.5c0,0.2,0,0.5-0.1,0.8s-0.2,0.6-0.3,1c-0.2,0.3-0.3,0.7-0.5,1.1
		c-0.2,0.4-0.4,0.7-0.7,1.1v0C166,95.8,166.1,95.8,166.2,95.9 M166.7,92.4C166.7,92.4,166.7,92.4,166.7,92.4l0-0.1v-0.1v-0.1
		c0,0,0-0.1,0-0.1V92v-0.1c0-0.1,0-0.2-0.1-0.3c0-0.1-0.1-0.2-0.2-0.3c-0.1-0.1-0.1-0.1-0.2-0.2c-0.1,0-0.2-0.1-0.3-0.1
		c-0.3,0-0.6,0.1-1,0.2c-0.4,0.1-0.8,0.4-1.2,0.7c-0.5,0.3-1,0.7-1.4,1.1s-1,0.9-1.6,1.4c-0.5,0.6-1,1.1-1.5,1.6
		c-0.4,0.5-0.8,1-1.1,1.4c-0.3,0.4-0.6,0.8-0.7,1.1c-0.2,0.3-0.2,0.6-0.2,0.8c0,0.2,0,0.3,0.1,0.4c0,0.1,0.1,0.2,0.2,0.3
		c0.1,0.1,0.2,0.2,0.4,0.2c0.1,0,0.3,0.1,0.5,0.1c0.4,0,0.9-0.1,1.4-0.3c0.5-0.2,1-0.5,1.5-0.9c0.5-0.4,1.1-0.9,1.7-1.5
		c0.6-0.6,1.3-1.3,2-2.2c0,0,0-0.1,0-0.1s0-0.1,0-0.1c0,0,0-0.1-0.1-0.2c0-0.1,0-0.1,0-0.2c0-0.1,0-0.1-0.1-0.2c0-0.1,0-0.1,0-0.2
		c0-0.1,0-0.3,0-0.4c0-0.1,0.1-0.2,0.1-0.4c0.1-0.1,0.1-0.2,0.2-0.4c0.1-0.1,0.1-0.3,0.2-0.4c0.2-0.3,0.4-0.5,0.6-0.6
		C166.3,92.5,166.5,92.5,166.7,92.4L166.7,92.4L166.7,92.4z"/>
	<path class="st0" d="M178.1,91.6c-0.3,0.3-0.5,0.5-0.6,0.7c-0.2,0.2-0.3,0.4-0.4,0.6c-0.1,0.2-0.1,0.3-0.1,0.4c0,0.1,0,0.2,0.1,0.2
		c0,0,0.1,0.1,0.2,0.1c0.1,0,0.2,0,0.4,0.1c0.1,0,0.3,0,0.5,0h0h0.1h0.1c0,0,0.1,0,0.1,0h0.1h0.1l-0.3,0.5c0,0-0.1,0-0.2,0
		c-0.1,0-0.1,0-0.2,0c-0.1,0-0.1,0-0.2,0.1s-0.1,0-0.1,0c-0.3,0-0.5,0-0.7-0.1c-0.2,0-0.4-0.1-0.5-0.2c-0.2-0.1-0.3-0.2-0.4-0.3
		c-0.1-0.1-0.2-0.2-0.3-0.4l-8.2,6.1l-1,1.2h-1.8l7.7-9.9h1.7l-5.5,7.1l7.2-5.5c0.2-0.3,0.4-0.6,0.5-0.8c0.2-0.2,0.3-0.4,0.5-0.6
		c0.2-0.1,0.4-0.2,0.6-0.3c0.2-0.1,0.4-0.1,0.7-0.1h0.1h0.1c0,0,0.1,0,0.2,0h0.2h0.1h0.1c0,0,0,0,0.1,0h0.1v0
		C178.7,91,178.3,91.3,178.1,91.6"/>
	<path class="st0" d="M187.4,90.8h1.8l-6.9,9.1c0.6-0.2,1.2-0.5,1.8-0.8c0.6-0.3,1.1-0.6,1.7-0.9c0.5-0.3,1.1-0.7,1.6-1
		c0.5-0.4,1-0.7,1.5-1.2l0.4,0.5c-0.5,0.5-1,0.9-1.6,1.3c-0.6,0.4-1.2,0.8-1.9,1.2c-0.6,0.4-1.3,0.7-2,1.1c-0.7,0.3-1.5,0.7-2.3,1
		c-1,1.4-1.9,2.6-2.8,3.6c-0.9,1-1.9,1.9-2.8,2.6c-0.9,0.7-1.8,1.3-2.6,1.6c-0.8,0.4-1.6,0.5-2.3,0.5c-0.2,0-0.5,0-0.6-0.1
		c-0.2,0-0.3-0.1-0.5-0.2c-0.1-0.1-0.2-0.2-0.3-0.3c-0.1-0.1-0.1-0.3-0.1-0.5c0-0.5,0.2-1.1,0.7-1.7c0.5-0.6,1.2-1.2,2.1-1.9
		c1-0.7,2.1-1.3,3.4-2c1.3-0.6,2.8-1.3,4.4-1.9l2.6-3.4c-0.6,0.6-1.2,1.2-1.8,1.6c-0.6,0.5-1.1,0.8-1.6,1.2c-0.5,0.3-1,0.5-1.5,0.7
		c-0.5,0.1-0.9,0.2-1.3,0.2c-0.2,0-0.5,0-0.7-0.1c-0.2-0.1-0.4-0.2-0.5-0.3c-0.1-0.2-0.2-0.4-0.3-0.6c-0.1-0.2-0.1-0.5-0.1-0.7
		c0-0.5,0.1-1,0.3-1.5c0.2-0.5,0.5-1.1,0.9-1.7c0.4-0.6,0.9-1.2,1.4-1.8c0.5-0.6,1.1-1.1,1.8-1.5c0.3-0.2,0.5-0.4,0.7-0.5
		c0.2-0.2,0.5-0.3,0.7-0.5c0.2-0.2,0.5-0.3,0.7-0.4c0.2-0.1,0.5-0.2,0.7-0.3c0.5-0.2,1-0.4,1.4-0.5c0.4-0.1,0.8-0.2,1.2-0.2
		c0.3,0,0.5,0,0.7,0.1c0.2,0.1,0.4,0.2,0.5,0.3c0.1,0.1,0.2,0.3,0.3,0.5c0.1,0.2,0.1,0.4,0.1,0.7V92L187.4,90.8z M175.7,103.3
		c-1.1,0.6-2.1,1.1-2.9,1.7c-0.9,0.6-1.5,1.1-1.9,1.6c-0.4,0.5-0.6,0.9-0.6,1.3c0,0.1,0,0.2,0.1,0.3c0,0.1,0.1,0.2,0.2,0.2
		c0.1,0.1,0.2,0.1,0.3,0.1c0.1,0,0.2,0,0.4,0c0.4,0,0.9-0.1,1.5-0.4s1.2-0.7,1.9-1.4c0.7-0.6,1.5-1.3,2.2-2.2c0.8-0.9,1.6-1.9,2.5-3
		h0C178.1,102.2,176.9,102.8,175.7,103.3 M183.8,91.5c-0.4,0.2-0.9,0.4-1.4,0.8c-0.5,0.4-1,0.8-1.5,1.3c-0.5,0.5-1,1-1.6,1.6
		c-0.5,0.6-1,1.1-1.4,1.6s-0.8,0.9-1.1,1.3c-0.3,0.4-0.5,0.8-0.6,1.1c-0.1,0.3-0.2,0.5-0.2,0.7c0,0.1,0,0.2,0.1,0.3s0.1,0.2,0.2,0.2
		c0,0,0.1,0.1,0.2,0.1c0.1,0,0.2,0.1,0.3,0.1c0.3,0,0.6-0.1,1-0.2c0.4-0.1,0.8-0.4,1.3-0.6c0.5-0.3,0.9-0.6,1.4-1
		c0.5-0.4,1-0.8,1.5-1.3c0.6-0.5,1.1-1,1.6-1.6c0.5-0.5,0.9-1,1.2-1.5c0.4-0.5,0.6-1,0.8-1.3c0.2-0.4,0.3-0.7,0.3-0.9
		c0-0.1,0-0.2-0.1-0.3c0-0.1-0.1-0.2-0.2-0.2c-0.1,0-0.2-0.1-0.3-0.1s-0.2-0.1-0.4-0.1v0C184.5,91.2,184.2,91.3,183.8,91.5"/>
	<path class="st0" d="M188.7,97.5c-0.2,0.3-0.4,0.6-0.6,0.9c-0.2,0.3-0.3,0.5-0.3,0.7c-0.1,0.2-0.1,0.4-0.1,0.5c0,0.1,0,0.3,0.1,0.4
		c0,0.1,0.1,0.2,0.2,0.3c0.1,0.1,0.2,0.2,0.4,0.2c0.1,0,0.3,0.1,0.5,0.1c0.5,0,1-0.1,1.6-0.3s1.2-0.5,2-0.8c0.7-0.4,1.4-0.8,2.1-1.3
		c0.7-0.5,1.5-1.1,2.3-1.7l0.3,0.5c-0.8,0.7-1.7,1.4-2.4,1.9c-0.8,0.5-1.6,1-2.3,1.4c-0.8,0.4-1.5,0.6-2.1,0.8
		c-0.6,0.2-1.2,0.3-1.7,0.3c-0.3,0-0.6,0-0.8-0.1c-0.2-0.1-0.4-0.2-0.6-0.4c-0.2-0.2-0.3-0.3-0.4-0.6c-0.1-0.2-0.2-0.5-0.2-0.8
		c0-0.5,0.1-1,0.3-1.5c0.2-0.5,0.4-1,0.8-1.6c0.3-0.5,0.7-1.1,1.2-1.6c0.5-0.5,1-1.1,1.7-1.6c0.5-0.4,1-0.8,1.5-1.1
		c0.5-0.3,1-0.6,1.5-0.8c0.5-0.3,1.1-0.4,1.5-0.6c0.5-0.1,0.9-0.2,1.3-0.2c0.3,0,0.5,0,0.6,0.1c0.2,0,0.3,0.1,0.4,0.2
		c0.1,0.1,0.2,0.2,0.3,0.3c0.1,0.1,0.1,0.3,0.1,0.4c0,0.4-0.2,0.8-0.6,1.3c-0.4,0.5-1,0.9-1.8,1.5c-0.8,0.5-1.7,0.9-2.7,1.3
		c-1,0.4-2.1,0.8-3.4,1.1l0,0C189.2,96.9,188.9,97.2,188.7,97.5 M192.9,94.7c0.8-0.4,1.5-0.7,2.2-1.2c0.7-0.5,1.2-0.9,1.5-1.2
		c0.3-0.3,0.5-0.6,0.5-0.9c0-0.1,0-0.1,0-0.2c0-0.1-0.1-0.1-0.1-0.1c-0.1,0-0.1-0.1-0.2-0.1c-0.1,0-0.2,0-0.3,0
		c-0.3,0-0.7,0.1-1.2,0.3c-0.5,0.2-1,0.5-1.5,0.9c-0.5,0.4-1.1,0.9-1.7,1.5c-0.6,0.6-1.2,1.2-1.8,1.9l0,0
		C191.2,95.4,192.1,95.1,192.9,94.7"/>
	<path class="st0" d="M206.2,95.9c0.1,0,0.2,0.1,0.3,0.1c0.1,0,0.1,0,0.2,0c0.1,0,0.1,0,0.2,0c0,0,0.1,0,0.2,0h0.2
		c0.1,0,0.3,0,0.4,0c0.1,0,0.3,0,0.4-0.1c0.1,0,0.2-0.1,0.4-0.1c0.1,0,0.3-0.1,0.4-0.2l0.2,0.4c-0.1,0.1-0.3,0.2-0.4,0.3
		c-0.1,0.1-0.3,0.1-0.5,0.2c-0.2,0-0.3,0-0.5,0.1c-0.2,0-0.4,0-0.6,0c-0.1,0-0.3,0-0.4,0l-0.4-0.1c-0.1,0-0.1,0-0.2-0.1
		c-0.1,0-0.1-0.1-0.2-0.1c-0.1,0-0.1-0.1-0.2-0.1c-0.1,0-0.1-0.1-0.2-0.1c-0.4,0.5-0.8,1-1.2,1.5c-0.4,0.5-0.8,0.9-1.3,1.3
		c-0.2,0.2-0.4,0.4-0.6,0.5c-0.2,0.2-0.4,0.3-0.6,0.5c-0.7,0.4-1.3,0.7-1.9,1c-0.6,0.2-1.1,0.3-1.7,0.3c-0.3,0-0.6,0-0.8-0.1
		c-0.2-0.1-0.4-0.2-0.6-0.3c-0.2-0.2-0.3-0.4-0.4-0.6c-0.1-0.2-0.1-0.5-0.1-0.7c0-0.5,0.1-0.9,0.3-1.4c0.2-0.5,0.4-1,0.8-1.6
		c0.4-0.6,0.8-1.1,1.2-1.6c0.5-0.5,1-1,1.6-1.5c0.5-0.4,0.9-0.7,1.3-1c0.4-0.3,0.8-0.5,1.2-0.8c0.1,0,0.2-0.1,0.3-0.2
		c0.1-0.1,0.2-0.1,0.3-0.2c0.5-0.3,1-0.4,1.5-0.6c0.5-0.1,0.9-0.2,1.3-0.2c0.2,0,0.4,0,0.6,0.1c0.2,0.1,0.3,0.2,0.5,0.3
		c0.1,0.1,0.2,0.3,0.3,0.4c0.1,0.2,0.1,0.3,0.1,0.5c0,0.2,0,0.5-0.1,0.8s-0.2,0.6-0.3,1c-0.2,0.3-0.3,0.7-0.5,1.1
		c-0.2,0.4-0.4,0.7-0.7,1.1v0C206,95.8,206.1,95.8,206.2,95.9 M206.7,92.4C206.7,92.4,206.7,92.4,206.7,92.4l0-0.1v-0.1v-0.1
		c0,0,0-0.1,0-0.1V92v-0.1c0-0.1,0-0.2-0.1-0.3c0-0.1-0.1-0.2-0.2-0.3c-0.1-0.1-0.1-0.1-0.2-0.2c-0.1,0-0.2-0.1-0.3-0.1
		c-0.3,0-0.6,0.1-1,0.2c-0.4,0.1-0.8,0.4-1.2,0.7c-0.5,0.3-1,0.7-1.4,1.1s-1,0.9-1.6,1.4c-0.5,0.6-1,1.1-1.5,1.6
		c-0.4,0.5-0.8,1-1.1,1.4c-0.3,0.4-0.6,0.8-0.7,1.1c-0.2,0.3-0.2,0.6-0.2,0.8c0,0.2,0,0.3,0.1,0.4c0,0.1,0.1,0.2,0.2,0.3
		c0.1,0.1,0.2,0.2,0.4,0.2c0.1,0,0.3,0.1,0.5,0.1c0.4,0,0.9-0.1,1.4-0.3c0.5-0.2,1-0.5,1.5-0.9c0.5-0.4,1.1-0.9,1.7-1.5
		c0.6-0.6,1.3-1.3,2-2.2c0,0,0-0.1,0-0.1s0-0.1,0-0.1c0,0,0-0.1-0.1-0.2c0-0.1,0-0.1,0-0.2c0-0.1,0-0.1-0.1-0.2c0-0.1,0-0.1,0-0.2
		c0-0.1,0-0.3,0-0.4c0-0.1,0.1-0.2,0.1-0.4c0.1-0.1,0.1-0.2,0.2-0.4c0.1-0.1,0.1-0.3,0.2-0.4c0.2-0.3,0.4-0.5,0.6-0.6
		C206.3,92.5,206.5,92.5,206.7,92.4L206.7,92.4L206.7,92.4z"/>
	<path class="st0" d="M214.5,90.8l-5.9,7.7c-0.1,0.2-0.2,0.3-0.3,0.5c-0.1,0.1-0.2,0.3-0.2,0.4c-0.1,0.1-0.1,0.2-0.2,0.3
		c0,0.1-0.1,0.2-0.1,0.3c0,0.1,0,0.1,0.1,0.2c0,0.1,0.1,0.1,0.1,0.2c0,0,0.1,0.1,0.2,0.1c0.1,0,0.2,0.1,0.3,0.1
		c0.5,0,1.2-0.2,1.9-0.7c0.8-0.5,1.7-1.1,2.7-2c1-0.9,2.1-1.9,3.1-3.1c1-1.2,2-2.4,3-3.9l2,0l-6.1,7.9l-0.1,0.1
		c-0.2,0.3-0.4,0.5-0.5,0.7c-0.1,0.2-0.2,0.4-0.2,0.5c0,0,0,0.1,0.1,0.2c0,0.1,0.1,0.1,0.1,0.2c0.1,0,0.1,0.1,0.2,0.1
		c0.1,0,0.1,0.1,0.2,0.1c0.2,0,0.5-0.1,0.9-0.3c0.4-0.2,0.8-0.4,1.3-0.8c0.5-0.3,1.1-0.8,1.7-1.3c0.6-0.5,1.3-1.1,2-1.8l0.5,0.4
		c-0.6,0.7-1.3,1.3-1.9,1.9c-0.6,0.5-1.2,1-1.8,1.4c-0.6,0.4-1.1,0.6-1.5,0.8c-0.5,0.2-0.8,0.3-1.2,0.3c-0.2,0-0.4,0-0.5-0.1
		c-0.1-0.1-0.3-0.2-0.4-0.3c-0.1-0.1-0.2-0.2-0.2-0.4c-0.1-0.2-0.1-0.4-0.1-0.7c0-0.1,0-0.2,0-0.3c0-0.1,0-0.2,0.1-0.4
		c0-0.1,0.1-0.3,0.1-0.4c0-0.2,0.1-0.3,0.1-0.5c-0.6,0.5-1.1,1-1.6,1.4s-1,0.8-1.5,1.1c-0.5,0.2-1,0.4-1.4,0.6
		c-0.4,0.1-0.8,0.2-1.1,0.2c-0.2,0-0.4,0-0.6-0.1c-0.2-0.1-0.3-0.2-0.4-0.3c-0.1-0.1-0.2-0.2-0.3-0.4c-0.1-0.2-0.1-0.4-0.1-0.6
		c0-0.3,0-0.6,0.1-0.9c0.1-0.3,0.2-0.6,0.3-0.9c0.2-0.3,0.3-0.7,0.6-1c0.2-0.4,0.5-0.8,0.8-1.1l3.8-5H214.5z"/>
	<path class="st0" d="M227.4,90.8c0,0.1,0,0.3,0,0.4c0,0.3,0,0.5,0,0.7c0,0.2,0,0.4,0,0.5c0,0.2,0,0.4,0,0.6v0.5
		c0,1.1-0.2,2.2-0.5,3.1c-0.3,0.9-0.8,1.8-1.4,2.5c-0.6,0.7-1.3,1.2-2.1,1.6s-1.6,0.5-2.6,0.5c-0.3,0-0.6,0-0.8-0.1
		c-0.2-0.1-0.4-0.1-0.6-0.2c-0.2-0.1-0.3-0.3-0.4-0.5c-0.1-0.2-0.1-0.4-0.1-0.6c0-0.2,0-0.4,0.1-0.6c0.1-0.2,0.2-0.3,0.3-0.5
		c0.1-0.1,0.3-0.2,0.4-0.3c0.2-0.1,0.3-0.1,0.5-0.1c0.1,0,0.2,0,0.3,0.1c0.1,0,0.2,0.1,0.3,0.2c0.1,0.1,0.2,0.2,0.2,0.3
		c0,0.1,0.1,0.2,0.1,0.3c0,0.2,0,0.4-0.1,0.5c-0.1,0.1-0.2,0.3-0.4,0.4c-0.2,0.1-0.3,0.2-0.4,0.2c-0.1,0.1-0.1,0.1-0.1,0.2
		s0,0.1,0,0.1c0,0,0.1,0.1,0.1,0.1c0,0,0.1,0,0.2,0.1c0.1,0,0.2,0,0.3,0c0.7,0,1.3-0.2,2-0.7c0.7-0.5,1.3-1.2,1.9-2.2
		c0.6-1,1.1-2,1.4-3.2c0.4-1.2,0.6-2.4,0.6-3.7c-0.4,0.4-0.9,0.8-1.3,1.3s-0.9,0.8-1.3,1.2c-0.5,0.4-0.9,0.8-1.3,1.1
		c-0.4,0.4-0.9,0.7-1.3,1.1l-0.4-0.5c0.4-0.3,0.8-0.6,1.2-0.9s0.8-0.7,1.3-1.1c0.4-0.4,0.9-0.9,1.4-1.4c0.5-0.5,1.1-1.1,1.8-1.7
		c0.1-0.2,0.1-0.3,0.2-0.5c0.1-0.1,0.2-0.3,0.2-0.4c0.1-0.1,0.1-0.3,0.2-0.4c0.1-0.1,0.2-0.2,0.2-0.3c0.2-0.2,0.3-0.3,0.4-0.4
		c0.1-0.1,0.3-0.1,0.4-0.1c0.1,0,0.2,0,0.2,0c0.1,0,0.1,0,0.1,0.1c0,0,0.1,0.1,0.1,0.1c0,0.1,0,0.1,0,0.2c0,0.1,0,0.3-0.1,0.5
		c-0.1,0.2-0.2,0.3-0.3,0.5s-0.3,0.4-0.5,0.6c-0.2,0.2-0.4,0.4-0.7,0.6v0C227.4,90.4,227.4,90.6,227.4,90.8"/>
	<path class="st0" d="M236.1,95.9c-0.6,0.8-1.1,1.5-1.4,2.1c-0.4,0.6-0.6,1-0.8,1.4c-0.2,0.4-0.3,0.6-0.3,0.8c0,0.1,0,0.1,0,0.2
		c0,0,0.1,0.1,0.1,0.1c0,0,0.1,0.1,0.1,0.1c0.1,0,0.1,0,0.2,0c0.3,0,0.6-0.1,1-0.3c0.4-0.2,0.8-0.5,1.4-0.8c0.5-0.4,1.1-0.8,1.7-1.4
		c0.6-0.5,1.3-1.2,2-1.9l0.4,0.4c-0.7,0.8-1.4,1.5-2,2c-0.6,0.6-1.2,1-1.8,1.4c-0.6,0.4-1.1,0.6-1.5,0.8c-0.5,0.2-0.9,0.3-1.2,0.3
		c-0.2,0-0.4,0-0.6-0.1c-0.2-0.1-0.3-0.2-0.4-0.3c-0.1-0.1-0.2-0.2-0.3-0.4c-0.1-0.2-0.1-0.4-0.1-0.6c0-0.5,0.2-1.2,0.6-2
		c0.4-0.8,1-1.8,1.8-3c0.8-1.2,1.7-2.5,2.8-3.9c1.1-1.4,2.4-3,3.9-4.6c1-1.1,1.9-2.1,2.9-3c0.9-0.9,1.8-1.7,2.7-2.4
		c0.9-0.7,1.6-1.2,2.3-1.5c0.7-0.3,1.2-0.5,1.6-0.5c0.2,0,0.3,0,0.4,0.1c0.1,0,0.2,0.1,0.3,0.2c0.1,0.1,0.2,0.2,0.2,0.3
		c0,0.1,0.1,0.2,0.1,0.4c0,0.5-0.3,1.2-0.9,2.1c-0.6,0.9-1.6,1.9-2.8,3.1c-1.2,1.2-2.7,2.4-4.4,3.8c-1.7,1.3-3.6,2.8-5.8,4.2v0
		C237.4,94.1,236.7,95.1,236.1,95.9 M244.2,87.9c1.4-1.2,2.7-2.3,3.8-3.4c1.1-1.1,2-2,2.5-2.7c0.6-0.7,0.8-1.3,0.8-1.7
		c0-0.1,0-0.2,0-0.3c0-0.1-0.1-0.1-0.1-0.1c0,0-0.1-0.1-0.2-0.1c-0.1,0-0.2,0-0.3,0c-0.5,0-1,0.3-1.8,0.8c-0.7,0.5-1.6,1.3-2.7,2.4
		c-1,1.1-2.1,2.3-3.3,3.8c-1.2,1.5-2.4,3.1-3.6,4.9v0C241.1,90.3,242.7,89.1,244.2,87.9"/>
	<path class="st0" d="M249.5,95.9c0.1,0,0.2,0.1,0.3,0.1c0.1,0,0.1,0,0.2,0c0.1,0,0.1,0,0.2,0c0,0,0.1,0,0.2,0h0.2
		c0.1,0,0.3,0,0.4,0c0.1,0,0.3,0,0.4-0.1c0.1,0,0.2-0.1,0.4-0.1c0.1,0,0.3-0.1,0.4-0.2l0.2,0.4c-0.1,0.1-0.3,0.2-0.4,0.3
		c-0.1,0.1-0.3,0.1-0.5,0.2c-0.2,0-0.3,0-0.5,0.1c-0.2,0-0.4,0-0.6,0c-0.1,0-0.3,0-0.4,0l-0.4-0.1c-0.1,0-0.1,0-0.2-0.1
		c-0.1,0-0.1-0.1-0.2-0.1c-0.1,0-0.1-0.1-0.2-0.1c-0.1,0-0.1-0.1-0.2-0.1c-0.4,0.5-0.8,1-1.2,1.5c-0.4,0.5-0.8,0.9-1.3,1.3
		c-0.2,0.2-0.4,0.4-0.6,0.5c-0.2,0.2-0.4,0.3-0.6,0.5c-0.7,0.4-1.3,0.7-1.9,1c-0.6,0.2-1.1,0.3-1.7,0.3c-0.3,0-0.6,0-0.8-0.1
		c-0.2-0.1-0.4-0.2-0.6-0.3c-0.2-0.2-0.3-0.4-0.4-0.6s-0.1-0.5-0.1-0.7c0-0.5,0.1-0.9,0.3-1.4c0.2-0.5,0.4-1,0.8-1.6
		c0.4-0.6,0.8-1.1,1.2-1.6c0.5-0.5,1-1,1.6-1.5c0.5-0.4,0.9-0.7,1.3-1c0.4-0.3,0.8-0.5,1.2-0.8c0.1,0,0.2-0.1,0.3-0.2
		c0.1-0.1,0.2-0.1,0.3-0.2c0.5-0.3,1-0.4,1.5-0.6c0.5-0.1,0.9-0.2,1.3-0.2c0.2,0,0.4,0,0.6,0.1c0.2,0.1,0.3,0.2,0.5,0.3
		c0.1,0.1,0.2,0.3,0.3,0.4c0.1,0.2,0.1,0.3,0.1,0.5c0,0.2,0,0.5-0.1,0.8c-0.1,0.3-0.2,0.6-0.3,1c-0.2,0.3-0.3,0.7-0.5,1.1
		c-0.2,0.4-0.4,0.7-0.7,1.1v0C249.2,95.8,249.3,95.8,249.5,95.9 M250,92.4C250,92.4,250,92.4,250,92.4l0-0.1v-0.1v-0.1
		c0,0,0-0.1,0-0.1V92v-0.1c0-0.1,0-0.2,0-0.3c0-0.1-0.1-0.2-0.2-0.3c-0.1-0.1-0.1-0.1-0.2-0.2c-0.1,0-0.2-0.1-0.3-0.1
		c-0.3,0-0.6,0.1-1,0.2c-0.4,0.1-0.8,0.4-1.2,0.7c-0.5,0.3-1,0.7-1.4,1.1s-1,0.9-1.6,1.4c-0.5,0.6-1,1.1-1.5,1.6
		c-0.4,0.5-0.8,1-1.1,1.4c-0.3,0.4-0.6,0.8-0.7,1.1c-0.2,0.3-0.2,0.6-0.2,0.8c0,0.2,0,0.3,0.1,0.4c0,0.1,0.1,0.2,0.2,0.3
		c0.1,0.1,0.2,0.2,0.4,0.2c0.1,0,0.3,0.1,0.5,0.1c0.4,0,0.9-0.1,1.4-0.3c0.5-0.2,1-0.5,1.5-0.9c0.5-0.4,1.1-0.9,1.7-1.5
		c0.6-0.6,1.3-1.3,2-2.2c0,0,0-0.1,0-0.1s0-0.1,0-0.1c0,0,0-0.1-0.1-0.2c0-0.1,0-0.1,0-0.2c0-0.1,0-0.1-0.1-0.2c0-0.1,0-0.1,0-0.2
		c0-0.1,0-0.3,0-0.4c0-0.1,0.1-0.2,0.1-0.4c0.1-0.1,0.1-0.2,0.2-0.4c0.1-0.1,0.1-0.3,0.2-0.4c0.2-0.3,0.4-0.5,0.6-0.6
		C249.5,92.5,249.7,92.5,250,92.4L250,92.4L250,92.4z"/>
	<path class="st0" d="M259.4,93.5c0.1-0.5,0.3-1,0.6-1.5c0.1-0.3,0.3-0.5,0.4-0.6c0.1-0.2,0.3-0.3,0.4-0.4c0.1-0.1,0.3-0.2,0.4-0.3
		c0.1-0.1,0.3-0.1,0.4-0.1c0.1,0,0.1,0,0.2,0.1c0.1,0,0.1,0.1,0.2,0.2c0,0.1,0.1,0.1,0.1,0.2c0,0.1,0.1,0.2,0.1,0.3
		c0,0.2-0.1,0.4-0.2,0.7c-0.1,0.3-0.2,0.6-0.4,1c-0.2,0.3-0.4,0.7-0.7,1.1c-0.3,0.4-0.6,0.9-1,1.4c0,0,0.1,0.1,0.2,0.1
		c0.1,0,0.1,0.1,0.2,0.1c0,0,0.1,0.1,0.2,0.1c0.1,0,0.1,0.1,0.2,0.1c0.1,0,0.2,0.1,0.4,0.1c0.1,0,0.3,0,0.4,0c0.1,0,0.2,0,0.4,0
		c0.1,0,0.2,0,0.4-0.1c0.1,0,0.2-0.1,0.4-0.1c0.1,0,0.3-0.1,0.4-0.2l0.2,0.4c-0.2,0.1-0.3,0.2-0.4,0.3c-0.1,0.1-0.3,0.1-0.4,0.2
		c-0.2,0-0.3,0.1-0.4,0.1c-0.1,0-0.3,0-0.4,0c-0.2,0-0.4,0-0.5-0.1s-0.4-0.1-0.5-0.1c-0.2-0.1-0.3-0.1-0.4-0.2
		c-0.1-0.1-0.2-0.2-0.4-0.3c-0.7,0.8-1.3,1.6-1.9,2.2c-0.6,0.6-1.2,1.2-1.8,1.7c-0.6,0.4-1.2,0.8-1.8,1c-0.5,0.2-1,0.3-1.5,0.3
		c-0.2,0-0.5,0-0.7-0.1c-0.2-0.1-0.4-0.2-0.6-0.4c-0.2-0.2-0.3-0.3-0.4-0.6c-0.1-0.2-0.1-0.5-0.1-0.8c0-0.2,0-0.5,0.1-0.9
		c0.1-0.3,0.2-0.7,0.4-1.1c0.2-0.4,0.4-0.8,0.6-1.2c0.3-0.4,0.6-0.8,0.9-1.2l3.2-4.2h1.9l-5,6.6c-0.2,0.3-0.4,0.6-0.5,0.8
		c-0.2,0.2-0.3,0.5-0.4,0.7c-0.1,0.2-0.2,0.4-0.2,0.5c0,0.2-0.1,0.3-0.1,0.4c0,0.1,0,0.2,0.1,0.3c0,0.1,0.1,0.2,0.2,0.3
		c0.1,0.1,0.2,0.1,0.3,0.2c0.1,0,0.2,0,0.4,0c0.4,0,0.9-0.1,1.4-0.4c0.5-0.2,1.1-0.6,1.7-1.1c0.6-0.5,1.2-1.1,1.8-1.7
		c0.6-0.7,1.2-1.4,1.8-2.2v0C259.2,94.6,259.3,94,259.4,93.5"/>
	<path class="st0" d="M262.8,97.5c-0.2,0.3-0.4,0.6-0.6,0.9c-0.2,0.3-0.3,0.5-0.3,0.7c-0.1,0.2-0.1,0.4-0.1,0.5c0,0.1,0,0.3,0.1,0.4
		c0,0.1,0.1,0.2,0.2,0.3c0.1,0.1,0.2,0.2,0.4,0.2c0.1,0,0.3,0.1,0.5,0.1c0.5,0,1-0.1,1.6-0.3c0.6-0.2,1.2-0.5,2-0.8
		c0.7-0.4,1.4-0.8,2.1-1.3c0.7-0.5,1.5-1.1,2.3-1.7l0.3,0.5c-0.8,0.7-1.7,1.4-2.4,1.9c-0.8,0.5-1.6,1-2.3,1.4
		c-0.8,0.4-1.5,0.6-2.1,0.8c-0.6,0.2-1.2,0.3-1.7,0.3c-0.3,0-0.6,0-0.8-0.1c-0.2-0.1-0.4-0.2-0.6-0.4c-0.2-0.2-0.3-0.3-0.4-0.6
		c-0.1-0.2-0.2-0.5-0.2-0.8c0-0.5,0.1-1,0.3-1.5c0.2-0.5,0.4-1,0.8-1.6c0.3-0.5,0.7-1.1,1.2-1.6c0.5-0.5,1-1.1,1.7-1.6
		c0.5-0.4,1-0.8,1.5-1.1c0.5-0.3,1-0.6,1.5-0.8c0.5-0.3,1.1-0.4,1.5-0.6c0.5-0.1,0.9-0.2,1.3-0.2c0.2,0,0.5,0,0.6,0.1
		c0.2,0,0.3,0.1,0.4,0.2c0.1,0.1,0.2,0.2,0.3,0.3c0.1,0.1,0.1,0.3,0.1,0.4c0,0.4-0.2,0.8-0.6,1.3c-0.4,0.5-1,0.9-1.8,1.5
		c-0.8,0.5-1.7,0.9-2.7,1.3c-1,0.4-2.1,0.8-3.4,1.1l0,0C263.2,96.9,263,97.2,262.8,97.5 M266.9,94.7c0.8-0.4,1.5-0.7,2.2-1.2
		c0.7-0.5,1.2-0.9,1.5-1.2c0.3-0.3,0.5-0.6,0.5-0.9c0-0.1,0-0.1,0-0.2c0-0.1-0.1-0.1-0.1-0.1c-0.1,0-0.1-0.1-0.2-0.1
		c-0.1,0-0.2,0-0.3,0c-0.3,0-0.7,0.1-1.2,0.3c-0.5,0.2-1,0.5-1.5,0.9c-0.5,0.4-1.1,0.9-1.7,1.5c-0.6,0.6-1.2,1.2-1.8,1.9l0,0
		C265.2,95.4,266.1,95.1,266.9,94.7"/>
	<path class="st0" d="M266.9,103.6c0.6-0.2,1.1-0.4,1.6-0.6c0.5-0.2,0.9-0.5,1.2-0.7c0.3-0.3,0.6-0.5,0.8-0.7
		c0.2-0.2,0.3-0.5,0.3-0.7c0,0,0-0.1,0-0.1l-0.1-0.2c0-0.1,0-0.2-0.1-0.3c0-0.1,0-0.1,0-0.2c0-0.2,0-0.4,0.1-0.6s0.2-0.3,0.4-0.5
		s0.3-0.2,0.5-0.3c0.2-0.1,0.4-0.1,0.6-0.1c0.2,0,0.3,0,0.4,0.1c0.1,0,0.2,0.1,0.3,0.2c0.1,0.1,0.2,0.2,0.2,0.3
		c0,0.1,0.1,0.3,0.1,0.4c0,0.4-0.1,0.8-0.4,1.2c-0.3,0.4-0.7,0.8-1.3,1.2c-0.6,0.4-1.2,0.8-1.9,1.2c-0.7,0.4-1.5,0.7-2.4,1h0
		L266.9,103.6z"/>
	<path class="st0" d="M184.5,110.8l-2.4,3.2h3.3l-0.5,0.7h-3.3l-6.8,9.1c0,0.1-0.1,0.2-0.1,0.3c0,0.1-0.1,0.2-0.2,0.3
		c0,0.1-0.1,0.2-0.1,0.3c0,0.1-0.1,0.2-0.1,0.2c-0.1,0.2-0.2,0.3-0.2,0.4c0,0.1-0.1,0.2-0.1,0.3c0,0.1,0,0.1,0,0.2
		c0,0,0.1,0.1,0.1,0.1c0,0,0.1,0.1,0.2,0.1c0.1,0,0.2,0,0.3,0c0.2,0,0.5-0.1,0.9-0.3c0.4-0.2,0.8-0.5,1.3-0.8c0.5-0.4,1-0.8,1.6-1.3
		c0.6-0.5,1.2-1.1,1.9-1.7l0.4,0.3c-0.7,0.7-1.3,1.4-1.9,1.9c-0.6,0.5-1.2,1-1.7,1.4c-0.6,0.4-1.1,0.6-1.6,0.8
		c-0.5,0.2-0.9,0.3-1.3,0.3c-0.2,0-0.3,0-0.5-0.1c-0.1-0.1-0.3-0.2-0.4-0.3c-0.1-0.1-0.2-0.2-0.3-0.4c-0.1-0.2-0.1-0.3-0.1-0.5
		c0-0.3,0-0.6,0.1-0.9c0.1-0.3,0.2-0.7,0.4-1.1c0.2-0.4,0.4-0.8,0.6-1.2c0.2-0.4,0.5-0.8,0.8-1.3l4.5-6.1h-2.4l0.5-0.7h2.4l2.4-3.2
		H184.5z"/>
	<path class="st0" d="M189.9,121.4c0.1,0,0.2,0.1,0.3,0.1c0.1,0,0.1,0,0.2,0c0.1,0,0.1,0,0.2,0c0,0,0.1,0,0.2,0h0.2
		c0.1,0,0.3,0,0.4,0c0.1,0,0.3,0,0.4-0.1c0.1,0,0.2-0.1,0.4-0.1c0.1,0,0.3-0.1,0.4-0.2l0.2,0.4c-0.1,0.1-0.3,0.2-0.4,0.3
		c-0.1,0.1-0.3,0.1-0.5,0.2c-0.2,0-0.3,0-0.5,0.1c-0.2,0-0.4,0-0.6,0c-0.1,0-0.3,0-0.4,0l-0.4-0.1c-0.1,0-0.1,0-0.2-0.1
		c-0.1,0-0.1-0.1-0.2-0.1c-0.1,0-0.1-0.1-0.2-0.1c-0.1,0-0.1-0.1-0.2-0.1c-0.4,0.5-0.8,1-1.2,1.5c-0.4,0.5-0.8,0.9-1.3,1.3
		c-0.2,0.2-0.4,0.4-0.6,0.5c-0.2,0.2-0.4,0.3-0.6,0.5c-0.7,0.4-1.3,0.7-1.9,1c-0.6,0.2-1.1,0.3-1.7,0.3c-0.3,0-0.6,0-0.8-0.1
		c-0.2-0.1-0.4-0.2-0.6-0.3c-0.2-0.2-0.3-0.4-0.4-0.6c-0.1-0.2-0.1-0.5-0.1-0.7c0-0.5,0.1-0.9,0.3-1.4c0.2-0.5,0.4-1,0.8-1.6
		c0.4-0.6,0.8-1.1,1.2-1.6c0.5-0.5,1-1,1.6-1.5c0.5-0.4,0.9-0.7,1.3-1c0.4-0.3,0.8-0.5,1.2-0.8c0.1,0,0.2-0.1,0.3-0.2
		c0.1-0.1,0.2-0.1,0.3-0.2c0.5-0.3,1-0.4,1.5-0.6c0.5-0.1,0.9-0.2,1.3-0.2c0.2,0,0.4,0,0.6,0.1c0.2,0.1,0.3,0.2,0.5,0.3
		c0.1,0.1,0.2,0.3,0.3,0.4c0.1,0.2,0.1,0.3,0.1,0.5c0,0.2,0,0.5-0.1,0.8s-0.2,0.6-0.3,1c-0.2,0.3-0.3,0.7-0.5,1.1
		c-0.2,0.4-0.4,0.7-0.7,1.1v0C189.7,121.3,189.8,121.3,189.9,121.4 M190.4,117.9C190.4,117.9,190.4,117.9,190.4,117.9l0-0.1v-0.1
		v-0.1c0,0,0-0.1,0-0.1v-0.1v-0.1c0-0.1,0-0.2-0.1-0.3c0-0.1-0.1-0.2-0.2-0.3c-0.1-0.1-0.1-0.1-0.2-0.2c-0.1,0-0.2-0.1-0.3-0.1
		c-0.3,0-0.6,0.1-1,0.2c-0.4,0.1-0.8,0.4-1.2,0.7c-0.5,0.3-1,0.7-1.4,1.1s-1,0.9-1.6,1.4c-0.5,0.6-1,1.1-1.5,1.6
		c-0.4,0.5-0.8,1-1.1,1.4c-0.3,0.4-0.6,0.8-0.7,1.1c-0.2,0.3-0.2,0.6-0.2,0.8c0,0.2,0,0.3,0.1,0.4c0,0.1,0.1,0.2,0.2,0.3
		c0.1,0.1,0.2,0.2,0.4,0.2c0.1,0,0.3,0.1,0.5,0.1c0.4,0,0.9-0.1,1.4-0.3c0.5-0.2,1-0.5,1.5-0.9c0.5-0.4,1.1-0.9,1.7-1.5
		c0.6-0.6,1.3-1.3,2-2.2c0,0,0-0.1,0-0.1s0-0.1,0-0.1c0,0,0-0.1-0.1-0.2c0-0.1,0-0.1,0-0.2c0-0.1,0-0.1-0.1-0.2c0-0.1,0-0.1,0-0.2
		c0-0.1,0-0.3,0-0.4c0-0.1,0.1-0.2,0.1-0.4c0.1-0.1,0.1-0.2,0.2-0.4c0.1-0.1,0.1-0.3,0.2-0.4c0.2-0.3,0.4-0.5,0.6-0.6
		C190,118.1,190.2,118,190.4,117.9L190.4,117.9L190.4,117.9z"/>
	<path class="st0" d="M222.2,109.8c-1.2,1.7-2.4,3.3-3.4,4.9c-1.1,1.6-2.1,3.2-3.2,4.7s-2,3.1-3,4.7c0.4-0.1,0.7-0.2,1.1-0.3
		c0.3-0.1,0.6-0.3,0.9-0.4s0.6-0.4,0.9-0.6c0.3-0.2,0.6-0.5,0.9-0.8l0.4,0.4c-0.3,0.4-0.6,0.7-1,1c-0.4,0.3-0.7,0.6-1.1,0.8
		c-0.4,0.2-0.8,0.4-1.3,0.5c-0.4,0.1-0.9,0.2-1.4,0.2l-0.8,1.3h-2l0.9-1.4c-0.4,0-0.9-0.1-1.3-0.3c-0.4-0.1-0.8-0.3-1.2-0.4
		c-0.4-0.2-0.8-0.4-1.2-0.6c-0.4-0.2-0.8-0.5-1.2-0.8c-0.8,0.7-1.6,1.3-2.4,1.8c-0.7,0.5-1.4,0.9-2,1.2c-0.6,0.3-1.2,0.5-1.7,0.7
		c-0.6,0.1-1.1,0.2-1.6,0.2c-0.4,0-0.7-0.1-1-0.2s-0.6-0.2-0.8-0.4c-0.3-0.2-0.4-0.4-0.5-0.7c-0.1-0.3-0.2-0.6-0.2-0.9
		c0-0.3,0.1-0.6,0.2-0.9c0.1-0.3,0.3-0.5,0.5-0.8c0.2-0.2,0.3-0.3,0.5-0.4c0.2-0.1,0.3-0.2,0.5-0.3c0.1,0,0.2,0,0.3-0.1
		c0.1,0,0.2,0,0.3,0c0.2,0,0.3,0,0.5,0.1c0.1,0,0.3,0.1,0.4,0.2c0.1,0.1,0.2,0.2,0.2,0.3s0.1,0.3,0.1,0.4c0,0.2,0,0.3-0.1,0.4
		s-0.1,0.3-0.2,0.4c-0.1,0.1-0.2,0.2-0.4,0.3c-0.1,0.1-0.3,0.1-0.4,0.1c-0.1,0-0.1,0-0.2,0l-0.3-0.1c-0.1,0-0.2-0.1-0.2-0.1
		c-0.1,0-0.1,0-0.1,0c-0.1,0-0.2,0-0.3,0.1s-0.1,0.1-0.2,0.2c-0.1,0.1-0.1,0.2-0.1,0.3c0,0.1,0,0.2,0,0.4c0,0.2,0,0.3,0.1,0.5
		c0.1,0.1,0.2,0.3,0.4,0.4c0.2,0.1,0.4,0.2,0.6,0.3c0.2,0.1,0.5,0.1,0.8,0.1c0.4,0,0.9-0.1,1.4-0.3s1.1-0.4,1.7-0.7
		c0.6-0.3,1.2-0.7,1.8-1.2c0.7-0.5,1.3-1,2-1.7c-0.5-0.5-0.9-1.1-1.3-1.6c-0.4-0.6-0.7-1.1-0.9-1.7c-0.2-0.6-0.4-1.2-0.5-1.8
		s-0.2-1.2-0.2-1.7c0-0.7,0.1-1.4,0.3-2c0.2-0.6,0.5-1.2,0.9-1.6c0.4-0.5,0.8-0.9,1.3-1.1c0.5-0.2,1.1-0.4,1.7-0.4
		c0.6,0,1.1,0.1,1.6,0.4c0.5,0.2,1,0.6,1.5,1.1c0.5,0.5,0.9,1,1.3,1.6c0.4,0.6,0.7,1.3,0.9,2.1c1.7-1.9,3.3-3.6,4.8-5
		c1.4-1.4,2.7-2.5,3.8-3.4c1.1-0.9,2.1-1.5,2.9-1.9s1.6-0.6,2.3-0.6c0.1,0,0.2,0,0.3,0c0.1,0,0.2,0,0.3,0.1c0,0,0.1,0,0.1,0h0.1v0
		C224.7,106.3,223.4,108.1,222.2,109.8 M210.2,114c-0.3-0.6-0.7-1.1-1.1-1.5c-0.4-0.5-0.9-0.8-1.3-1c-0.5-0.2-0.9-0.3-1.4-0.3
		c-0.5,0-1,0.1-1.4,0.3c-0.4,0.2-0.8,0.5-1.1,1c-0.3,0.4-0.6,0.9-0.7,1.4c-0.2,0.5-0.2,1.1-0.2,1.8c0,0.3,0,0.5,0,0.8
		c0,0.3,0.1,0.5,0.1,0.8c0,0.3,0.1,0.5,0.2,0.8c0.1,0.3,0.2,0.5,0.3,0.8c0.2,0.5,0.5,1,0.8,1.5c0.3,0.5,0.7,0.9,1.1,1.4
		c0.5-0.4,1-0.9,1.5-1.3c0.5-0.4,0.9-0.9,1.4-1.4c0.5-0.5,0.9-0.9,1.3-1.4c0.4-0.5,0.9-1,1.3-1.5v0
		C210.7,115.3,210.4,114.6,210.2,114 M210.4,117.5c-0.2,0.2-0.5,0.5-0.8,0.8c-0.8,0.9-1.6,1.6-2.2,2.2c-0.6,0.6-1.1,1.1-1.5,1.5
		c0.3,0.3,0.6,0.6,1,0.8c0.3,0.2,0.7,0.4,1.1,0.6c0.4,0.2,0.8,0.3,1.2,0.4c0.4,0.1,0.9,0.2,1.3,0.3c0.1-0.3,0.2-0.7,0.3-1.1
		s0.2-0.8,0.2-1.2c0-0.5,0.1-0.9,0.1-1.4c0-0.5,0.1-1,0.1-1.5v-0.3v-0.3c0-0.1,0-0.2,0-0.3v-0.3c0-0.2,0-0.3-0.1-0.5
		c0-0.1,0-0.3-0.1-0.5v0C210.8,117.1,210.6,117.3,210.4,117.5 M222.5,106.1c-0.9,0.5-1.8,1.2-2.9,2.1c-1.1,0.9-2.3,2-3.6,3.4
		c-1.3,1.3-2.7,2.9-4.3,4.6c0,0.1,0,0.1,0,0.2c0,0.1,0,0.2,0,0.3c0,0.1,0,0.3,0.1,0.4c0,0.1,0,0.3,0,0.4c0,0.2,0,0.4,0.1,0.6
		c0,0.2,0,0.3,0,0.5c0,0.4,0,0.8,0,1.2c0,0.4,0,0.7-0.1,1c0,0.3-0.1,0.6-0.1,0.9c0,0.3-0.1,0.6-0.2,0.9c0.9-1.4,1.9-2.8,2.9-4.2
		c1-1.4,2-2.8,3.1-4.2c1.1-1.5,2.2-2.9,3.4-4.4c1.2-1.5,2.4-3,3.8-4.5v0C224.1,105.3,223.4,105.6,222.5,106.1"/>
	<path class="st0" d="M229.4,117.9c0.6-0.4,1.1-0.8,1.6-1.1c0.5-0.3,1-0.5,1.5-0.7c0.5-0.1,0.9-0.2,1.2-0.2c0.2,0,0.4,0,0.6,0.1
		c0.2,0,0.3,0.1,0.4,0.2c0.1,0.1,0.2,0.2,0.3,0.4c0.1,0.2,0.1,0.3,0.1,0.5c0,0.2,0,0.4-0.1,0.6c-0.1,0.2-0.2,0.5-0.3,0.8
		c-0.2,0.3-0.3,0.6-0.5,0.9c-0.2,0.3-0.4,0.6-0.7,0.9l-3.1,3.6c-0.2,0.2-0.3,0.4-0.4,0.6c-0.1,0.2-0.2,0.3-0.3,0.4
		c-0.1,0.1-0.1,0.2-0.2,0.3c0,0.1-0.1,0.2-0.1,0.2c0,0.1,0,0.1,0,0.2l0.1,0.1c0,0,0.1,0,0.2,0.1c0.1,0,0.1,0,0.2,0
		c0.3,0,0.7-0.1,1.1-0.3c0.4-0.2,0.9-0.5,1.5-0.8c0.6-0.4,1.2-0.8,1.9-1.3c0.7-0.5,1.4-1.1,2.2-1.8l0.4,0.4c-0.7,0.7-1.5,1.4-2.1,2
		c-0.7,0.6-1.4,1-2,1.4c-0.6,0.4-1.2,0.7-1.8,0.8s-1,0.3-1.4,0.3c-0.2,0-0.3,0-0.5-0.1c-0.1-0.1-0.3-0.1-0.4-0.2
		c-0.1-0.1-0.2-0.3-0.2-0.4c-0.1-0.2-0.1-0.4-0.1-0.6c0-0.2,0-0.5,0.1-0.7c0.1-0.3,0.2-0.5,0.3-0.8c0.2-0.3,0.3-0.6,0.5-0.9
		c0.2-0.3,0.4-0.6,0.7-0.9l3.1-3.6c0.1-0.1,0.2-0.3,0.3-0.4c0.1-0.1,0.2-0.2,0.2-0.3c0.1-0.1,0.1-0.2,0.2-0.3c0-0.1,0.1-0.1,0.1-0.2
		c0-0.1,0-0.1,0-0.2c0-0.1-0.1-0.1-0.1-0.2c0,0-0.1-0.1-0.2-0.1c-0.1,0-0.1,0-0.3,0c-0.6,0-1.2,0.2-2,0.7c-0.8,0.5-1.7,1.1-2.8,2
		c-1,0.9-2.1,1.9-3.1,3.1c-1,1.2-2,2.5-3.1,3.9h-1.9l6.2-8l0.1-0.2c0.2-0.2,0.4-0.5,0.5-0.6c0.1-0.2,0.2-0.3,0.2-0.4
		c0-0.1,0-0.1,0-0.2c0-0.1-0.1-0.1-0.1-0.2c0,0-0.1-0.1-0.2-0.1c-0.1,0-0.1,0-0.2,0c-0.6,0-1.2,0.2-2,0.7c-0.8,0.5-1.7,1.1-2.8,2
		c-0.3,0.3-0.6,0.6-1,0.9c-0.3,0.3-0.7,0.7-1,1c-0.7,0.7-1.4,1.5-2.1,2.3c-0.7,0.8-1.4,1.7-2,2.7h-2l7.4-9.9h1.7l-2.3,3.1
		c0.7-0.6,1.3-1.1,1.9-1.5c0.6-0.4,1.1-0.8,1.6-1.1c0.5-0.3,1-0.5,1.4-0.7c0.4-0.1,0.8-0.2,1.2-0.2c0.3,0,0.5,0,0.6,0.1
		c0.2,0,0.3,0.1,0.4,0.2c0.1,0.1,0.2,0.2,0.3,0.4c0.1,0.1,0.1,0.3,0.1,0.5c0,0.2-0.1,0.4-0.2,0.7c-0.1,0.3-0.3,0.7-0.6,1.2
		c0,0.1-0.1,0.1-0.1,0.2l-0.1,0.1v0C228.3,118.8,228.9,118.3,229.4,117.9"/>
	<path class="st0" d="M242.4,116.3l-5.9,7.7c-0.1,0.2-0.2,0.3-0.3,0.4c-0.1,0.1-0.2,0.3-0.2,0.4c-0.1,0.2-0.2,0.3-0.2,0.4
		c0,0.1-0.1,0.2-0.1,0.3c0,0.1,0,0.1,0.1,0.2c0,0.1,0.1,0.1,0.1,0.2l0.2,0.1c0.1,0,0.2,0.1,0.3,0.1c0.5,0,1.2-0.2,1.9-0.7
		c0.8-0.4,1.6-1.1,2.6-2c1-0.9,2-1.9,3-3.1c1-1.2,2-2.5,3.1-3.9l1.8,0l-7,9.3c0.5-0.2,0.9-0.4,1.4-0.6c0.4-0.2,0.9-0.4,1.3-0.7
		c0.2-0.1,0.4-0.2,0.6-0.3c0.2-0.1,0.4-0.2,0.6-0.3c0.6-0.3,1.1-0.7,1.6-1c0.5-0.4,1-0.7,1.4-1.1l0.4,0.5c-0.5,0.5-1.1,0.9-1.7,1.3
		c-0.6,0.4-1.2,0.8-1.9,1.2c-0.7,0.4-1.3,0.7-2.1,1.1c-0.7,0.3-1.5,0.6-2.3,0.9c-0.9,1.3-1.8,2.5-2.7,3.5c-0.9,1-1.8,1.9-2.7,2.7
		c-0.9,0.7-1.8,1.3-2.5,1.7c-0.8,0.4-1.5,0.5-2.1,0.5c-0.2,0-0.4,0-0.6-0.1c-0.2,0-0.3-0.1-0.5-0.2c-0.2-0.1-0.3-0.2-0.3-0.3
		c-0.1-0.1-0.1-0.3-0.1-0.5c0-0.5,0.2-1.1,0.7-1.7s1.2-1.2,2.1-1.9c0.9-0.7,2-1.3,3.2-1.9c1.2-0.6,2.6-1.2,4-1.7l2.8-3.7
		c-0.6,0.7-1.2,1.2-1.8,1.7c-0.6,0.5-1.1,0.9-1.7,1.2c-0.5,0.3-1,0.6-1.5,0.7c-0.5,0.2-0.9,0.2-1.2,0.2c-0.2,0-0.4,0-0.6-0.1
		c-0.2-0.1-0.3-0.2-0.4-0.3c-0.1-0.1-0.2-0.2-0.3-0.4c-0.1-0.2-0.1-0.4-0.1-0.6c0-0.3,0-0.6,0.1-0.9c0.1-0.3,0.2-0.6,0.3-1
		c0.2-0.3,0.4-0.7,0.6-1.1c0.2-0.4,0.5-0.7,0.8-1.1l3.8-4.9H242.4z M235.6,128.9c-1,0.5-1.9,1.1-2.7,1.7c-0.8,0.6-1.4,1.1-1.8,1.6
		c-0.4,0.5-0.6,0.9-0.6,1.3c0,0.1,0,0.2,0.1,0.3c0,0.1,0.1,0.2,0.1,0.2c0.1,0,0.2,0.1,0.3,0.1c0.1,0,0.2,0.1,0.3,0.1
		c0.4,0,0.9-0.1,1.4-0.4c0.5-0.3,1.1-0.7,1.7-1.2c0.6-0.6,1.3-1.3,2.1-2.1c0.8-0.9,1.6-1.9,2.6-3.1h0
		C237.8,127.8,236.6,128.4,235.6,128.9"/>
	<path class="st0" d="M187.5,162.3c-2,2.3-3.7,4.5-5.4,6.7c-1.6,2.1-2.9,3.8-3.7,5.1c-0.8,1.2-1.2,2-1.2,2.4v0c0,0,0,0,0,0.1
		c0,0,0,0,0,0.1c0,0,0,0,0.1,0c0,0,0.1,0,0.1,0.1c0,0,0.1,0,0.1,0c0.3,0,0.9-0.5,1.8-1.4c0.9-1,2.2-2.4,3.8-4.3
		c0.5-0.5,0.9-1,1.2-1.4c0.3-0.4,0.6-0.8,0.8-1.1c2.3-2.7,4.3-4.9,5.9-6.8c1.7-1.8,3-3.1,4-4c1-0.9,2-1.5,2.8-1.9
		c0.9-0.4,1.7-0.6,2.4-0.6h0.2h0.1h0.2c0.1,0,0.1,0,0.2,0c-2.3,2.7-4.4,5.2-6.3,7.5c-1.9,2.3-3.5,4.5-5,6.4
		c-1.5,1.9-2.5,3.5-3.3,4.7c-0.7,1.2-1.1,1.9-1.1,2.3c0,0.1,0.1,0.3,0.1,0.3s0.1,0.2,0.1,0.2c0,0.1,0.1,0.1,0.2,0.1
		c0.1,0,0.2,0,0.3,0c0.3,0,0.6-0.1,1-0.2c0.4-0.2,0.8-0.4,1.3-0.7c0.5-0.3,1.1-0.7,1.8-1.2c0.6-0.5,1.3-1,2.1-1.6l0.4,0.4
		c-0.7,0.6-1.3,1.2-1.9,1.7c-0.6,0.5-1.3,0.9-1.9,1.3c-0.6,0.4-1.2,0.6-1.7,0.8c-0.5,0.1-0.9,0.2-1.3,0.2c-0.2,0-0.4,0-0.6-0.1
		c-0.2,0-0.4-0.1-0.5-0.3c-0.1-0.1-0.2-0.3-0.3-0.5s-0.1-0.4-0.1-0.7c0-0.8,0.3-1.8,0.9-3c0.6-1.2,1.5-2.5,2.6-4.1
		c1.2-1.5,2.7-3.4,4.6-5.5c1.9-2.1,4.2-4.5,6.8-7.1c-0.7,0.2-1.5,0.6-2.3,1.2c-0.8,0.5-1.7,1.3-2.6,2.1c-0.9,0.9-2.1,2.1-3.7,3.8
		c-1.5,1.7-3.3,3.8-5.4,6.3c-0.2,0.2-0.3,0.4-0.6,0.7c-0.2,0.3-0.5,0.6-0.8,0.9c-1.7,2.1-3.1,3.6-4.2,4.6c-1.1,1-1.9,1.5-2.4,1.5
		c-0.2,0-0.3,0-0.4-0.1c-0.1,0-0.2-0.1-0.3-0.2c-0.1-0.1-0.2-0.3-0.2-0.4c0-0.2-0.1-0.4-0.1-0.6c0-0.8,0.4-1.8,1.1-3.1
		c0.7-1.3,1.8-2.9,3.2-4.7c1.4-1.8,3.1-3.8,5-5.8c1.9-2.1,4.1-4.3,6.6-6.6c-0.6,0.2-1.2,0.4-1.9,0.8c-0.7,0.4-1.4,0.9-2.1,1.5
		c-0.7,0.6-1.6,1.4-2.5,2.2c-0.9,0.9-1.9,1.9-2.9,3.1c-0.5,0.5-1,1.1-1.6,1.8c-0.6,0.7-1.3,1.4-2.1,2.3c-2.9,3.3-5.3,5.8-7.2,7.4
		c-1.8,1.6-3.1,2.5-3.9,2.5c-0.3,0-0.5,0-0.7-0.1c-0.2-0.1-0.4-0.2-0.6-0.3s-0.3-0.3-0.4-0.6c-0.1-0.2-0.1-0.4-0.1-0.7
		c0-0.3,0.1-0.6,0.2-0.8c0.1-0.3,0.2-0.5,0.4-0.7c0.2-0.2,0.4-0.4,0.6-0.5c0.2-0.1,0.4-0.2,0.7-0.2c0.1,0,0.2,0,0.3,0
		c0.1,0,0.2,0.1,0.3,0.2c0.1,0.1,0.2,0.2,0.2,0.3c0,0.1,0.1,0.2,0.1,0.3c0,0.2-0.1,0.4-0.2,0.6c-0.1,0.2-0.4,0.3-0.7,0.3
		c-0.3,0.1-0.5,0.2-0.7,0.3c-0.1,0.1-0.2,0.3-0.2,0.4c0,0.1,0,0.2,0.1,0.3c0,0.1,0.1,0.2,0.2,0.3c0.1,0,0.2,0.1,0.3,0.1
		c0.1,0,0.3,0.1,0.4,0.1c0.6,0,1.6-0.6,3-1.9c1.4-1.2,3.2-3.1,5.5-5.6c0.8-0.9,1.5-1.6,2.1-2.3c0.6-0.7,1.2-1.3,1.6-1.8
		c2-2.2,3.7-3.9,5.1-5.3c1.4-1.4,2.5-2.4,3.4-3c0.8-0.6,1.6-1,2.3-1.3c0.7-0.3,1.5-0.4,2.1-0.4h0.2h0.2c0,0,0.1,0,0.1,0
		c0,0,0.1,0,0.1,0c0,0,0.1,0,0.1,0s0.1,0,0.1,0v0C191.5,157.6,189.4,160,187.5,162.3"/>
	<path class="st0" d="M202.1,167.3h1.8l-5.6,7.5l0,0.1c-0.3,0.4-0.4,0.7-0.6,0.9c-0.1,0.2-0.2,0.4-0.2,0.5c0,0.1,0,0.2,0,0.2
		c0,0.1,0,0.1,0.1,0.2c0,0,0.1,0,0.2,0.1c0.1,0,0.2,0,0.3,0c0.2,0,0.5-0.1,0.8-0.3c0.4-0.2,0.8-0.4,1.3-0.8c0.5-0.4,1.1-0.8,1.8-1.3
		c0.7-0.5,1.4-1.1,2.1-1.8l0.4,0.4c-0.7,0.7-1.5,1.4-2.1,1.9c-0.7,0.5-1.3,1-1.9,1.4c-0.6,0.4-1.1,0.6-1.5,0.8
		c-0.5,0.2-0.8,0.3-1.2,0.3c-0.2,0-0.4,0-0.5-0.1c-0.2,0-0.3-0.1-0.4-0.2c-0.1-0.1-0.2-0.3-0.3-0.4c-0.1-0.2-0.1-0.4-0.1-0.6
		c0-0.1,0-0.2,0-0.3c0-0.1,0-0.2,0.1-0.4c0-0.1,0.1-0.3,0.1-0.4s0.1-0.3,0.1-0.5c-0.3,0.3-0.7,0.6-1,0.9c-0.3,0.3-0.7,0.5-1,0.8
		c-0.2,0.1-0.4,0.2-0.5,0.3c-0.2,0.1-0.3,0.2-0.5,0.3c-0.5,0.2-1,0.4-1.4,0.5c-0.4,0.1-0.8,0.2-1.2,0.2c-0.3,0-0.5,0-0.7-0.1
		c-0.2-0.1-0.4-0.2-0.5-0.3c-0.2-0.2-0.3-0.3-0.3-0.5c-0.1-0.2-0.1-0.4-0.1-0.7c0-0.5,0.1-1,0.3-1.6c0.2-0.5,0.5-1.1,0.9-1.7
		c0.4-0.6,0.8-1.2,1.3-1.7c0.5-0.5,1.1-1,1.8-1.5c0.5-0.4,1-0.7,1.5-1c0.5-0.3,1-0.6,1.5-0.8c0.5-0.2,1-0.4,1.5-0.5
		c0.5-0.1,0.9-0.2,1.3-0.2c0.3,0,0.5,0,0.7,0.1c0.2,0.1,0.3,0.2,0.5,0.3c0.1,0.1,0.2,0.3,0.3,0.4c0.1,0.2,0.1,0.4,0.1,0.6v0.3
		L202.1,167.3z M198.7,167.9c-0.4,0.2-0.8,0.4-1.2,0.7c-0.5,0.3-1,0.7-1.4,1.1c-0.5,0.4-1,0.9-1.5,1.4c-0.6,0.6-1.1,1.2-1.6,1.7
		c-0.5,0.5-0.8,1-1.2,1.5c-0.3,0.5-0.6,0.8-0.7,1.2c-0.2,0.3-0.3,0.6-0.3,0.9c0,0.1,0,0.2,0.1,0.2c0,0.1,0.1,0.1,0.1,0.2
		c0.1,0,0.1,0.1,0.2,0.1c0.1,0,0.2,0,0.3,0c0.3,0,0.7-0.1,1.1-0.2c0.4-0.2,0.9-0.4,1.4-0.7c0.5-0.3,1-0.7,1.5-1.2
		c0.5-0.5,1.1-1,1.6-1.5c0.5-0.5,1-1.1,1.4-1.5c0.4-0.5,0.8-0.9,1.1-1.4c0.3-0.4,0.5-0.8,0.6-1.1c0.1-0.3,0.2-0.6,0.2-0.8
		c0-0.1,0-0.2,0-0.3c0-0.1-0.1-0.2-0.2-0.2c-0.1-0.1-0.2-0.1-0.3-0.2c-0.1,0-0.2-0.1-0.4-0.1v0C199.4,167.6,199.1,167.7,198.7,167.9
		"/>
	<path class="st0" d="M214.5,161.9l-2.4,3.2h3.3l-0.5,0.7h-3.3l-6.8,9.1c0,0.1-0.1,0.2-0.1,0.3c0,0.1-0.1,0.2-0.2,0.3
		c0,0.1-0.1,0.2-0.1,0.3c0,0.1-0.1,0.2-0.1,0.2c-0.1,0.2-0.2,0.3-0.2,0.4s-0.1,0.2-0.1,0.3s0,0.1,0,0.2c0,0,0.1,0.1,0.1,0.1
		c0,0,0.1,0.1,0.2,0.1c0.1,0,0.2,0,0.3,0c0.2,0,0.5-0.1,0.9-0.3c0.4-0.2,0.8-0.5,1.3-0.8c0.5-0.4,1-0.8,1.6-1.3
		c0.6-0.5,1.2-1.1,1.9-1.7l0.4,0.3c-0.7,0.7-1.3,1.4-1.9,1.9c-0.6,0.5-1.2,1-1.7,1.4c-0.6,0.4-1.1,0.6-1.6,0.8s-0.9,0.3-1.3,0.3
		c-0.2,0-0.3,0-0.5-0.1c-0.1-0.1-0.3-0.2-0.4-0.3c-0.1-0.1-0.2-0.2-0.3-0.4c-0.1-0.2-0.1-0.3-0.1-0.5c0-0.3,0-0.6,0.1-0.9
		c0.1-0.3,0.2-0.7,0.4-1.1c0.2-0.4,0.4-0.8,0.6-1.2c0.2-0.4,0.5-0.8,0.8-1.3l4.5-6.1h-2.4l0.5-0.7h2.4l2.4-3.2H214.5z"/>
	<path class="st0" d="M214.2,170.9c0.7-0.6,1.4-1.2,2-1.7c0.6-0.5,1.2-0.9,1.8-1.2c0.6-0.3,1.1-0.6,1.6-0.7c0.5-0.2,0.9-0.3,1.3-0.3
		c0.3,0,0.5,0,0.6,0.1c0.2,0.1,0.3,0.1,0.4,0.3c0.1,0.1,0.2,0.2,0.3,0.4c0.1,0.1,0.1,0.3,0.1,0.5c0,0.2,0,0.4-0.1,0.6
		c-0.1,0.2-0.2,0.5-0.3,0.8c-0.2,0.3-0.3,0.6-0.5,0.9c-0.2,0.3-0.4,0.6-0.7,0.9l-3,3.6c-0.2,0.2-0.3,0.4-0.5,0.6
		c-0.1,0.2-0.2,0.3-0.3,0.4c-0.1,0.1-0.1,0.2-0.2,0.3c0,0.1-0.1,0.2-0.1,0.2c0,0.1,0,0.1,0.1,0.2c0,0,0.1,0.1,0.1,0.1
		c0,0,0.1,0,0.2,0.1c0.1,0,0.1,0,0.2,0c0.3,0,0.7-0.1,1.1-0.3c0.4-0.2,0.9-0.5,1.5-0.8c0.6-0.4,1.2-0.8,1.9-1.3
		c0.7-0.5,1.4-1.1,2.2-1.8l0.4,0.4c-0.8,0.7-1.5,1.4-2.2,2c-0.7,0.6-1.4,1-2,1.4c-0.6,0.4-1.2,0.7-1.7,0.8c-0.5,0.2-1,0.3-1.4,0.3
		c-0.2,0-0.3,0-0.5-0.1c-0.1-0.1-0.3-0.1-0.4-0.2c-0.1-0.1-0.2-0.3-0.2-0.4c-0.1-0.2-0.1-0.4-0.1-0.6c0-0.2,0-0.5,0.1-0.7
		c0.1-0.3,0.2-0.5,0.3-0.8c0.2-0.3,0.3-0.6,0.5-0.9c0.2-0.3,0.4-0.6,0.7-0.9l3.1-3.6c0.1-0.1,0.2-0.3,0.3-0.4
		c0.1-0.1,0.2-0.2,0.2-0.3c0.1-0.1,0.1-0.2,0.2-0.3c0-0.1,0.1-0.1,0.1-0.2c0-0.1,0-0.1,0-0.2c0-0.1-0.1-0.1-0.1-0.2
		c0,0-0.1-0.1-0.2-0.1c-0.1,0-0.1,0-0.2,0c-0.6,0-1.2,0.2-2,0.7c-0.8,0.5-1.7,1.1-2.8,2c-0.3,0.3-0.6,0.6-1,0.9
		c-0.3,0.3-0.7,0.7-1,1c-0.7,0.7-1.4,1.5-2.1,2.3c-0.7,0.8-1.4,1.7-2,2.7h-2l9.5-12.8c1-1.3,2-2.5,3-3.6c1-1.1,1.9-2,2.8-2.8
		c0.9-0.8,1.7-1.3,2.4-1.7c0.7-0.4,1.3-0.6,1.9-0.6c0.1,0,0.3,0,0.4,0.1c0.1,0,0.2,0.1,0.3,0.2c0.1,0.1,0.2,0.2,0.2,0.3
		c0,0.1,0.1,0.2,0.1,0.4c0,0.6-0.3,1.3-0.8,2.1c-0.5,0.8-1.4,1.8-2.4,2.8c-1.1,1-2.3,2.1-3.7,3.1c-1.4,1-3,2-4.7,3v0L214.2,170.9z
		 M221.3,163.8c1.2-0.9,2.3-1.9,3.2-2.8c1-0.9,1.7-1.7,2.1-2.4c0.5-0.7,0.7-1.3,0.7-1.7c0,0,0-0.1-0.1-0.2c0-0.1-0.1-0.1-0.1-0.2
		c0,0-0.1,0-0.1-0.1s-0.1,0-0.1,0c0,0-0.1,0-0.1,0h-0.1c-0.4,0-0.8,0.2-1.3,0.5c-0.5,0.3-1,0.8-1.7,1.4c-0.6,0.6-1.5,1.6-2.6,3
		c-1.1,1.4-2.5,3.2-4.2,5.3v0C218.7,165.7,220.1,164.8,221.3,163.8"/>
	<path class="st0" d="M229.6,167.3l-5.3,7.1c-0.2,0.3-0.3,0.6-0.5,0.8c-0.1,0.2-0.3,0.4-0.4,0.6c-0.1,0.2-0.2,0.3-0.2,0.4
		c0,0.1-0.1,0.2-0.1,0.3c0,0.1,0,0.1,0,0.2c0,0.1,0.1,0.1,0.1,0.2c0,0,0.1,0.1,0.2,0.1c0.1,0,0.1,0.1,0.2,0.1c0.2,0,0.5-0.1,0.9-0.3
		c0.4-0.2,0.8-0.4,1.3-0.8c0.5-0.3,1-0.8,1.6-1.3c0.6-0.5,1.2-1.1,1.9-1.7l0.5,0.4c-0.8,0.7-1.5,1.4-2.1,2c-0.6,0.6-1.2,1-1.8,1.4
		c-0.5,0.4-1,0.6-1.5,0.8c-0.4,0.2-0.8,0.3-1.1,0.3c-0.2,0-0.4,0-0.5-0.1c-0.2-0.1-0.3-0.2-0.4-0.3c-0.1-0.1-0.2-0.2-0.3-0.4
		c-0.1-0.2-0.1-0.4-0.1-0.6c0-0.3,0-0.6,0.1-0.9c0.1-0.3,0.2-0.6,0.4-0.9c0.2-0.3,0.4-0.7,0.6-1.2c0.3-0.4,0.6-0.9,1-1.4l3.4-4.5
		H229.6z M232.8,162.1c0.1,0,0.2,0.1,0.2,0.2c0.1,0.1,0.2,0.2,0.2,0.3c0,0.1,0.1,0.2,0.1,0.4c0,0.2,0,0.3-0.1,0.5
		c-0.1,0.2-0.2,0.3-0.4,0.5c-0.2,0.2-0.3,0.3-0.5,0.4c-0.2,0.1-0.4,0.1-0.5,0.1c-0.1,0-0.3,0-0.4-0.1c-0.1,0-0.2-0.1-0.3-0.2
		s-0.2-0.2-0.2-0.3c0-0.1-0.1-0.2-0.1-0.3c0-0.2,0-0.4,0.1-0.5c0.1-0.2,0.2-0.3,0.4-0.5c0.2-0.2,0.4-0.3,0.5-0.4
		c0.2-0.1,0.4-0.1,0.6-0.1v0C232.6,162,232.7,162.1,232.8,162.1"/>
	<path class="st0" d="M230,174c-0.2,0.3-0.4,0.6-0.6,0.9c-0.2,0.3-0.3,0.5-0.3,0.7c-0.1,0.2-0.1,0.4-0.1,0.5c0,0.1,0,0.3,0.1,0.4
		c0,0.1,0.1,0.2,0.2,0.3c0.1,0.1,0.2,0.2,0.4,0.2c0.1,0,0.3,0.1,0.5,0.1c0.5,0,1-0.1,1.6-0.3c0.6-0.2,1.2-0.5,2-0.8
		c0.7-0.4,1.4-0.8,2.1-1.3c0.7-0.5,1.5-1.1,2.3-1.7l0.3,0.5c-0.8,0.7-1.7,1.4-2.4,1.9c-0.8,0.5-1.6,1-2.3,1.4
		c-0.8,0.4-1.5,0.6-2.1,0.8c-0.6,0.2-1.2,0.3-1.7,0.3c-0.3,0-0.6,0-0.8-0.1c-0.2-0.1-0.4-0.2-0.6-0.4c-0.2-0.2-0.3-0.3-0.4-0.6
		c-0.1-0.2-0.2-0.5-0.2-0.8c0-0.5,0.1-1,0.3-1.5c0.2-0.5,0.4-1,0.8-1.6c0.3-0.5,0.7-1.1,1.2-1.6c0.5-0.5,1-1.1,1.7-1.6
		c0.5-0.4,1-0.8,1.5-1.1c0.5-0.3,1-0.6,1.5-0.8c0.5-0.2,1.1-0.4,1.5-0.6c0.5-0.1,0.9-0.2,1.3-0.2c0.3,0,0.5,0,0.6,0.1
		c0.2,0,0.3,0.1,0.4,0.2c0.1,0.1,0.2,0.2,0.3,0.3c0.1,0.1,0.1,0.3,0.1,0.4c0,0.4-0.2,0.8-0.6,1.3c-0.4,0.5-1,0.9-1.8,1.5
		c-0.8,0.5-1.7,0.9-2.7,1.3c-1,0.4-2.1,0.8-3.4,1.1l0,0C230.4,173.4,230.2,173.7,230,174 M234.1,171.3c0.8-0.4,1.5-0.7,2.2-1.2
		c0.7-0.5,1.2-0.8,1.5-1.2c0.3-0.3,0.5-0.6,0.5-0.9c0-0.1,0-0.1,0-0.2c0-0.1-0.1-0.1-0.1-0.1c-0.1,0-0.1-0.1-0.2-0.1
		c-0.1,0-0.2,0-0.3,0c-0.3,0-0.7,0.1-1.2,0.3c-0.5,0.2-1,0.5-1.5,0.9c-0.5,0.4-1.1,0.9-1.7,1.5c-0.6,0.6-1.2,1.2-1.8,1.9l0,0
		C232.4,171.9,233.3,171.6,234.1,171.3"/>
	<path class="st0" d="M244.9,167.3L239,175c-0.1,0.2-0.2,0.3-0.3,0.5c-0.1,0.1-0.2,0.3-0.2,0.4c-0.1,0.1-0.1,0.2-0.2,0.3
		c0,0.1-0.1,0.2-0.1,0.3c0,0.1,0,0.1,0.1,0.2c0,0.1,0.1,0.1,0.1,0.2c0,0,0.1,0.1,0.2,0.1c0.1,0,0.2,0.1,0.3,0.1
		c0.5,0,1.2-0.2,1.9-0.7c0.8-0.5,1.7-1.1,2.7-2c1-0.9,2.1-1.9,3.1-3.1c1-1.2,2-2.4,3-3.9l2,0l-6.1,7.9l-0.1,0.1
		c-0.2,0.3-0.4,0.5-0.5,0.7c-0.1,0.2-0.2,0.4-0.2,0.5c0,0,0,0.1,0.1,0.2c0,0.1,0.1,0.1,0.1,0.2c0.1,0,0.1,0.1,0.2,0.1
		c0.1,0,0.1,0.1,0.2,0.1c0.2,0,0.5-0.1,0.9-0.3c0.4-0.2,0.8-0.4,1.3-0.8c0.5-0.3,1.1-0.8,1.7-1.3c0.6-0.5,1.3-1.1,2-1.8l0.5,0.4
		c-0.6,0.7-1.3,1.3-1.9,1.9c-0.6,0.5-1.2,1-1.8,1.4c-0.6,0.4-1.1,0.6-1.5,0.8c-0.5,0.2-0.8,0.3-1.2,0.3c-0.2,0-0.4,0-0.5-0.1
		c-0.1-0.1-0.3-0.2-0.4-0.3c-0.1-0.1-0.2-0.2-0.2-0.4c-0.1-0.2-0.1-0.4-0.1-0.7c0-0.1,0-0.2,0-0.3c0-0.1,0-0.2,0.1-0.4
		c0-0.1,0.1-0.3,0.1-0.4c0-0.2,0.1-0.3,0.1-0.5c-0.6,0.5-1.1,1-1.6,1.4c-0.5,0.4-1,0.8-1.5,1.1c-0.5,0.2-1,0.4-1.4,0.6
		c-0.4,0.1-0.8,0.2-1.1,0.2c-0.2,0-0.4,0-0.6-0.1c-0.2-0.1-0.3-0.2-0.4-0.3c-0.1-0.1-0.2-0.2-0.3-0.4c-0.1-0.2-0.1-0.4-0.1-0.6
		c0-0.3,0-0.6,0.1-0.9c0.1-0.3,0.2-0.6,0.3-0.9c0.2-0.3,0.3-0.7,0.6-1c0.2-0.4,0.5-0.8,0.8-1.1l3.8-5H244.9z"/>
</g>
</svg>
