  0
SECTION
  2
HEADER
  9
$ACADVER
  1
AC1006
  9
$EXTMIN
 10
0.000000
 20
0.000000
 30
0.000000
  9
$EXTMAX
 10
583.000000
 20
758.000000
 30
0.000000
  0
ENDSEC
  0
SECTION
  2
ENTITIES
  0
POLYLINE
  8
0
 66
1
 70
1
  0
VERTEX
  8
0
 10
97.500000
 20
704.578383
 42
0.021773
  0
VERTEX
  8
0
 10
91.703030
 20
702.966332
 42
0.029142
  0
VERTEX
  8
0
 10
86.621302
 20
700.977533
 42
0.029708
  0
VERTEX
  8
0
 10
81.882244
 20
698.445493
 42
0.024088
  0
VERTEX
  8
0
 10
77.119597
 20
695.199291
 42
0.022585
  0
VERTEX
  8
0
 10
72.687407
 20
691.529335
 42
0.032265
  0
VERTEX
  8
0
 10
69.135353
 20
687.862723
 42
0.033322
  0
VERTEX
  8
0
 10
66.169117
 20
683.865453
 42
0.026587
  0
VERTEX
  8
0
 10
63.507923
 20
679.202708
 42
0.040916
  0
VERTEX
  8
0
 10
61.735857
 20
674.812946
 42
0.069676
  0
VERTEX
  8
0
 10
61.095777
 20
670.915110
 42
0.083130
  0
VERTEX
  8
0
 10
61.585541
 20
667.495235
 42
0.089839
  0
VERTEX
  8
0
 10
63.160904
 20
664.522573
 42
0.000000
  0
VERTEX
  8
0
 10
65.321809
 20
661.775428
 42
0.000000
  0
VERTEX
  8
0
 10
67.448070
 20
667.647598
 42
-0.072333
  0
VERTEX
  8
0
 10
74.302932
 20
680.443025
 42
-0.056173
  0
VERTEX
  8
0
 10
85.064473
 20
692.030429
 42
-0.058957
  0
VERTEX
  8
0
 10
97.324705
 20
700.280730
 42
-0.119197
  0
VERTEX
  8
0
 10
108.569257
 20
703.000000
 42
-0.029773
  0
VERTEX
  8
0
 10
112.939409
 20
702.739541
 42
-0.053720
  0
VERTEX
  8
0
 10
116.431239
 20
701.935220
 42
-0.059692
  0
VERTEX
  8
0
 10
119.417814
 20
700.481572
 42
-0.047443
  0
VERTEX
  8
0
 10
122.237547
 20
698.261221
 42
-0.078069
  0
VERTEX
  8
0
 10
124.557469
 20
695.229249
 42
-0.102681
  0
VERTEX
  8
0
 10
125.559944
 20
691.902233
 42
-0.077502
  0
VERTEX
  8
0
 10
125.283070
 20
687.756055
 42
-0.028335
  0
VERTEX
  8
0
 10
123.664865
 20
682.086521
 42
-0.072939
  0
VERTEX
  8
0
 10
115.562903
 20
666.535629
 42
-0.057506
  0
VERTEX
  8
0
 10
102.736317
 20
652.510996
 42
-0.059708
  0
VERTEX
  8
0
 10
87.724165
 20
642.332371
 42
-0.101628
  0
VERTEX
  8
0
 10
73.181748
 20
638.245117
 42
-0.012882
  0
VERTEX
  8
0
 10
69.290423
 20
638.067294
 42
-0.044154
  0
VERTEX
  8
0
 10
66.767543
 20
638.239998
 42
-0.056560
  0
VERTEX
  8
0
 10
64.656841
 20
638.823240
 42
-0.032370
  0
VERTEX
  8
0
 10
62.271016
 20
639.967837
 42
-0.054667
  0
VERTEX
  8
0
 10
58.678528
 20
642.539375
 42
-0.090837
  0
VERTEX
  8
0
 10
56.404453
 20
645.474711
 42
-0.091593
  0
VERTEX
  8
0
 10
55.329884
 20
649.007425
 42
-0.056390
  0
VERTEX
  8
0
 10
55.330114
 20
653.366696
 42
0.000000
  0
VERTEX
  8
0
 10
55.911169
 20
658.500000
 42
0.000000
  0
VERTEX
  8
0
 10
53.955584
 20
656.139216
 42
0.059531
  0
VERTEX
  8
0
 10
53.063842
 20
654.756743
 42
0.049987
  0
VERTEX
  8
0
 10
52.458855
 20
653.120055
 42
0.041304
  0
VERTEX
  8
0
 10
52.111600
 20
651.116475
 42
0.022267
  0
VERTEX
  8
0
 10
52.000000
 20
648.611722
 42
0.085814
  0
VERTEX
  8
0
 10
53.059522
 20
642.483816
 42
0.154655
  0
VERTEX
  8
0
 10
56.112592
 20
638.461815
 42
0.116221
  0
VERTEX
  8
0
 10
61.650396
 20
636.229238
 42
0.037849
  0
VERTEX
  8
0
 10
70.500000
 20
635.553989
 42
0.088907
  0
VERTEX
  8
0
 10
91.185432
 20
639.250944
 42
0.073856
  0
VERTEX
  8
0
 10
110.813322
 20
650.015764
 42
0.075780
  0
VERTEX
  8
0
 10
126.019881
 20
665.684450
 42
0.103969
  0
VERTEX
  8
0
 10
133.862385
 20
683.631798
 42
0.065511
  0
VERTEX
  8
0
 10
134.318088
 20
689.783710
 42
0.101396
  0
VERTEX
  8
0
 10
132.958258
 20
694.916152
 42
0.100547
  0
VERTEX
  8
0
 10
129.677909
 20
699.129604
 42
0.063546
  0
VERTEX
  8
0
 10
124.455823
 20
702.565415
 42
0.059214
  0
VERTEX
  8
0
 10
118.831922
 20
704.534097
 42
0.035990
  0
VERTEX
  8
0
 10
111.854011
 20
705.563643
 42
0.034784
  0
VERTEX
  8
0
 10
104.446476
 20
705.600667
 42
0.040810
  0
SEQEND
  0
POLYLINE
  8
0
 66
1
 70
1
  0
VERTEX
  8
0
 10
194.500000
 20
696.348754
 42
0.057674
  0
VERTEX
  8
0
 10
190.612456
 20
693.702446
 42
0.019096
  0
VERTEX
  8
0
 10
185.559693
 20
688.985192
 42
0.018945
  0
VERTEX
  8
0
 10
180.381063
 20
683.355094
 42
0.022199
  0
VERTEX
  8
0
 10
175.924979
 20
677.629804
 42
-0.008707
  0
VERTEX
  8
0
 10
172.935234
 20
673.566981
 42
-0.059812
  0
VERTEX
  8
0
 10
171.209004
 20
671.791366
 42
-0.104766
  0
VERTEX
  8
0
 10
169.536594
 20
670.939210
 42
-0.053556
  0
VERTEX
  8
0
 10
167.198485
 20
670.572752
 42
0.073844
  0
VERTEX
  8
0
 10
163.014139
 20
669.742479
 42
0.070005
  0
VERTEX
  8
0
 10
159.167343
 20
667.724702
 42
0.053139
  0
VERTEX
  8
0
 10
155.225286
 20
664.203675
 42
0.022199
  0
VERTEX
  8
0
 10
150.677384
 20
658.706597
 42
-0.024830
  0
VERTEX
  8
0
 10
145.957899
 20
653.062829
 42
-0.037820
  0
VERTEX
  8
0
 10
141.281762
 20
648.714428
 42
-0.044951
  0
VERTEX
  8
0
 10
136.988611
 20
645.879228
 42
-0.124084
  0
VERTEX
  8
0
 10
133.500274
 20
645.000000
 42
-0.033672
  0
VERTEX
  8
0
 10
132.153085
 20
645.090828
 42
-0.152472
  0
VERTEX
  8
0
 10
131.448193
 20
645.420313
 42
-0.190050
  0
VERTEX
  8
0
 10
131.142814
 20
646.044017
 42
-0.057428
  0
VERTEX
  8
0
 10
131.180449
 20
647.117633
 42
-0.122070
  0
VERTEX
  8
0
 10
131.630703
 20
648.204615
 42
-0.075145
  0
VERTEX
  8
0
 10
132.615444
 20
649.188852
 42
-0.050691
  0
VERTEX
  8
0
 10
134.229970
 20
650.143176
 42
-0.019140
  0
VERTEX
  8
0
 10
136.654076
 20
651.151736
 42
0.061192
  0
VERTEX
  8
0
 10
141.608166
 20
653.719728
 42
0.054414
  0
VERTEX
  8
0
 10
146.013907
 20
657.500304
 42
0.059132
  0
VERTEX
  8
0
 10
149.056724
 20
661.632070
 42
0.155271
  0
VERTEX
  8
0
 10
149.810157
 20
665.192071
 42
0.275354
  0
VERTEX
  8
0
 10
146.863801
 20
669.174957
 42
0.200375
  0
VERTEX
  8
0
 10
141.223077
 20
669.180492
 42
0.103079
  0
VERTEX
  8
0
 10
134.042435
 20
664.268326
 42
0.069036
  0
VERTEX
  8
0
 10
128.179840
 20
656.186035
 42
0.029795
  0
VERTEX
  8
0
 10
125.946085
 20
651.316995
 42
0.075247
  0
VERTEX
  8
0
 10
125.096407
 20
647.523326
 42
0.114473
  0
VERTEX
  8
0
 10
125.553480
 20
644.651384
 42
0.144494
  0
VERTEX
  8
0
 10
127.222506
 20
642.556704
 42
0.123355
  0
VERTEX
  8
0
 10
130.605497
 20
641.261881
 42
0.095025
  0
VERTEX
  8
0
 10
134.562335
 20
641.536951
 42
0.076363
  0
VERTEX
  8
0
 10
138.868909
 20
643.415465
 42
0.047134
  0
VERTEX
  8
0
 10
143.250000
 20
646.801253
 42
0.000000
  0
VERTEX
  8
0
 10
146.000000
 20
649.374182
 42
0.000000
  0
VERTEX
  8
0
 10
146.000000
 20
646.758520
 42
0.090108
  0
VERTEX
  8
0
 10
146.393939
 20
644.590342
 42
0.091946
  0
VERTEX
  8
0
 10
147.524434
 20
642.716468
 42
0.097124
  0
VERTEX
  8
0
 10
149.190003
 20
641.447817
 42
0.114826
  0
VERTEX
  8
0
 10
151.114270
 20
641.000000
 42
0.126571
  0
VERTEX
  8
0
 10
152.171508
 20
641.271989
 42
0.021546
  0
VERTEX
  8
0
 10
153.962745
 20
642.362072
 42
0.022319
  0
VERTEX
  8
0
 10
156.000399
 20
643.861563
 42
0.018248
  0
VERTEX
  8
0
 10
158.042841
 20
645.636842
 42
0.000000
  0
VERTEX
  8
0
 10
163.000000
 20
650.273684
 42
0.000000
  0
VERTEX
  8
0
 10
163.000000
 20
647.208270
 42
0.147009
  0
VERTEX
  8
0
 10
164.156115
 20
643.361128
 42
0.201652
  0
VERTEX
  8
0
 10
167.126803
 20
641.376495
 42
0.135301
  0
VERTEX
  8
0
 10
171.686343
 20
641.732686
 42
0.059489
  0
VERTEX
  8
0
 10
177.140174
 20
644.474065
 42
-0.006976
  0
VERTEX
  8
0
 10
179.432693
 20
645.945607
 42
-0.092071
  0
VERTEX
  8
0
 10
180.366115
 20
646.310954
 42
-0.353202
  0
VERTEX
  8
0
 10
180.826446
 20
646.065656
 42
-0.100877
  0
VERTEX
  8
0
 10
181.000000
 20
645.214188
 42
0.103558
  0
VERTEX
  8
0
 10
181.363473
 20
643.478078
 42
0.118879
  0
VERTEX
  8
0
 10
182.385833
 20
642.131576
 42
0.104863
  0
VERTEX
  8
0
 10
184.025818
 20
641.286564
 42
0.066803
  0
VERTEX
  8
0
 10
186.161086
 20
641.000000
 42
0.089176
  0
VERTEX
  8
0
 10
187.690211
 20
641.274910
 42
0.035544
  0
VERTEX
  8
0
 10
189.636412
 20
642.160006
 42
0.029321
  0
VERTEX
  8
0
 10
191.906616
 20
643.572287
 42
0.017100
  0
VERTEX
  8
0
 10
194.461086
 20
645.511507
 42
-0.003502
  0
VERTEX
  8
0
 10
198.092650
 20
648.427385
 42
-0.080927
  0
VERTEX
  8
0
 10
199.249563
 20
649.071504
 42
-0.427370
  0
VERTEX
  8
0
 10
199.804747
 20
648.795581
 42
-0.075594
  0
VERTEX
  8
0
 10
200.000000
 20
647.511507
 42
0.113022
  0
VERTEX
  8
0
 10
200.541782
 20
645.145315
 42
0.088957
  0
VERTEX
  8
0
 10
202.090195
 20
643.010983
 42
0.087855
  0
VERTEX
  8
0
 10
204.304479
 20
641.526894
 42
0.106195
  0
VERTEX
  8
0
 10
206.750000
 20
641.021962
 42
0.074124
  0
VERTEX
  8
0
 10
209.275373
 20
641.419054
 42
0.024403
  0
VERTEX
  8
0
 10
212.812841
 20
642.721320
 42
0.024594
  0
VERTEX
  8
0
 10
216.477437
 20
644.494746
 42
0.034514
  0
VERTEX
  8
0
 10
219.538582
 20
646.452054
 42
-0.013427
  0
VERTEX
  8
0
 10
220.785192
 20
647.325259
 42
-0.210524
  0
VERTEX
  8
0
 10
221.285978
 20
647.410808
 42
-0.296274
  0
VERTEX
  8
0
 10
221.584329
 20
647.089865
 42
-0.024424
  0
VERTEX
  8
0
 10
221.732452
 20
645.901691
 42
0.127197
  0
VERTEX
  8
0
 10
222.741092
 20
642.939795
 42
0.175335
  0
VERTEX
  8
0
 10
224.971915
 20
641.270518
 42
0.151378
  0
VERTEX
  8
0
 10
228.029991
 20
641.286476
 42
0.090451
  0
VERTEX
  8
0
 10
231.272871
 20
643.000000
 42
-0.008447
  0
VERTEX
  8
0
 10
232.281509
 20
643.766173
 42
-0.011881
  0
VERTEX
  8
0
 10
233.208292
 20
644.412500
 42
-0.008217
  0
VERTEX
  8
0
 10
233.996919
 20
644.916625
 42
-0.138971
  0
VERTEX
  8
0
 10
234.291098
 20
645.000000
 42
-0.250493
  0
VERTEX
  8
0
 10
234.506323
 20
644.884956
 42
-0.031490
  0
VERTEX
  8
0
 10
234.780653
 20
644.412500
 42
-0.030968
  0
VERTEX
  8
0
 10
235.054801
 20
643.766228
 42
-0.020878
  0
VERTEX
  8
0
 10
235.289749
 20
643.000000
 42
0.255154
  0
VERTEX
  8
0
 10
236.989767
 20
641.194893
 42
0.137585
  0
VERTEX
  8
0
 10
240.130008
 20
641.062079
 42
0.083296
  0
VERTEX
  8
0
 10
244.275352
 20
642.801973
 42
0.048422
  0
VERTEX
  8
0
 10
248.548721
 20
646.121074
 42
0.000000
  0
VERTEX
  8
0
 10
251.597442
 20
649.002159
 42
0.000000
  0
VERTEX
  8
0
 10
252.862333
 20
645.504166
 42
0.132981
  0
VERTEX
  8
0
 10
255.200859
 20
642.168103
 42
0.183786
  0
VERTEX
  8
0
 10
258.624887
 20
640.989603
 42
0.117934
  0
VERTEX
  8
0
 10
263.204610
 20
642.241382
 42
0.041848
  0
VERTEX
  8
0
 10
268.903741
 20
646.018146
 42
0.000000
  0
VERTEX
  8
0
 10
274.000000
 20
650.046507
 42
0.000000
  0
VERTEX
  8
0
 10
274.000000
 20
647.079957
 42
0.110199
  0
VERTEX
  8
0
 10
274.518464
 20
644.756131
 42
0.100380
  0
VERTEX
  8
0
 10
275.985300
 20
642.782375
 42
0.095202
  0
VERTEX
  8
0
 10
278.181548
 20
641.460620
 42
0.088210
  0
VERTEX
  8
0
 10
280.772166
 20
641.000000
 42
0.081572
  0
VERTEX
  8
0
 10
283.371831
 20
641.426961
 42
0.039814
  0
VERTEX
  8
0
 10
286.469157
 20
642.755346
 42
0.036287
  0
VERTEX
  8
0
 10
289.705540
 20
644.772158
 42
0.032363
  0
VERTEX
  8
0
 10
292.750000
 20
647.308120
 42
0.000000
  0
VERTEX
  8
0
 10
296.000000
 20
650.392334
 42
0.000000
  0
VERTEX
  8
0
 10
296.000000
 20
647.267595
 42
0.076621
  0
VERTEX
  8
0
 10
296.376826
 20
644.823019
 42
0.094915
  0
VERTEX
  8
0
 10
297.469091
 20
642.800388
 42
0.105447
  0
VERTEX
  8
0
 10
299.123740
 20
641.472528
 42
0.117067
  0
VERTEX
  8
0
 10
301.114270
 20
641.000000
 42
0.126571
  0
VERTEX
  8
0
 10
302.171508
 20
641.271989
 42
0.021546
  0
VERTEX
  8
0
 10
303.962745
 20
642.362072
 42
0.022319
  0
VERTEX
  8
0
 10
306.000399
 20
643.861563
 42
0.018248
  0
VERTEX
  8
0
 10
308.042841
 20
645.636842
 42
0.000000
  0
VERTEX
  8
0
 10
313.000000
 20
650.273684
 42
0.000000
  0
VERTEX
  8
0
 10
313.000000
 20
647.208270
 42
0.213970
  0
VERTEX
  8
0
 10
315.076313
 20
642.578528
 42
0.235484
  0
VERTEX
  8
0
 10
319.789606
 20
641.298975
 42
0.110468
  0
VERTEX
  8
0
 10
326.957265
 20
644.478362
 42
0.045330
  0
VERTEX
  8
0
 10
334.942964
 20
651.598182
 42
0.008207
  0
VERTEX
  8
0
 10
338.586703
 20
655.623800
 42
0.040330
  0
VERTEX
  8
0
 10
340.412318
 20
658.082887
 42
0.140741
  0
VERTEX
  8
0
 10
340.788526
 20
659.399341
 42
0.413836
  0
VERTEX
  8
0
 10
340.187091
 20
660.000000
 42
0.161046
  0
VERTEX
  8
0
 10
339.724488
 20
659.847032
 42
0.014402
  0
VERTEX
  8
0
 10
338.750204
 20
659.079104
 42
0.017597
  0
VERTEX
  8
0
 10
337.621347
 20
658.065826
 42
0.012823
  0
VERTEX
  8
0
 10
336.437091
 20
656.865035
 42
-0.031588
  0
VERTEX
  8
0
 10
332.524336
 20
653.184552
 42
-0.017399
  0
VERTEX
  8
0
 10
327.319588
 20
649.171174
 42
-0.012254
  0
VERTEX
  8
0
 10
322.183668
 20
645.675806
 42
-0.144254
  0
VERTEX
  8
0
 10
319.889991
 20
645.000000
 42
-0.224577
  0
VERTEX
  8
0
 10
318.588370
 20
645.615681
 42
-0.224710
  0
VERTEX
  8
0
 10
318.239099
 20
647.012217
 42
-0.060945
  0
VERTEX
  8
0
 10
319.177112
 20
649.854709
 42
-0.007808
  0
VERTEX
  8
0
 10
322.012526
 20
655.634205
 42
-0.014587
  0
VERTEX
  8
0
 10
324.342697
 20
659.890582
 42
-0.037908
  0
VERTEX
  8
0
 10
326.331265
 20
662.761153
 42
-0.043198
  0
VERTEX
  8
0
 10
328.569320
 20
665.078655
 42
-0.024376
  0
VERTEX
  8
0
 10
331.639746
 20
667.500000
 42
0.028750
  0
VERTEX
  8
0
 10
336.608605
 20
671.489394
 42
0.019752
  0
VERTEX
  8
0
 10
341.780141
 20
676.539065
 42
0.019398
  0
VERTEX
  8
0
 10
346.666979
 20
682.121764
 42
0.023518
  0
VERTEX
  8
0
 10
350.783569
 20
687.729859
 42
0.008058
  0
VERTEX
  8
0
 10
352.921070
 20
691.064161
 42
0.080951
  0
VERTEX
  8
0
 10
353.551243
 20
692.586811
 42
0.153232
  0
VERTEX
  8
0
 10
353.459802
 20
693.832980
 42
0.050717
  0
VERTEX
  8
0
 10
352.605154
 20
695.479859
 42
0.038538
  0
VERTEX
  8
0
 10
351.861268
 20
696.444151
 42
0.041198
  0
VERTEX
  8
0
 10
350.993396
 20
697.259709
 42
0.044971
  0
VERTEX
  8
0
 10
350.134997
 20
697.824688
 42
0.123680
  0
VERTEX
  8
0
 10
349.437109
 20
698.000000
 42
0.152014
  0
VERTEX
  8
0
 10
344.759904
 20
696.544361
 42
0.031157
  0
VERTEX
  8
0
 10
337.872859
 20
691.135775
 42
0.031677
  0
VERTEX
  8
0
 10
330.706480
 20
683.883476
 42
0.032760
  0
VERTEX
  8
0
 10
324.600284
 20
675.861316
 42
-0.012473
  0
VERTEX
  8
0
 10
322.633971
 20
673.048287
 42
-0.050850
  0
VERTEX
  8
0
 10
321.234317
 20
671.504942
 42
-0.094563
  0
VERTEX
  8
0
 10
320.057984
 20
670.793391
 42
-0.154005
  0
VERTEX
  8
0
 10
318.902447
 20
670.735762
 42
0.136021
  0
VERTEX
  8
0
 10
315.158805
 20
670.681083
 42
0.070318
  0
VERTEX
  8
0
 10
310.862103
 20
668.734437
 42
0.050748
  0
VERTEX
  8
0
 10
305.988850
 20
664.895685
 42
0.023665
  0
VERTEX
  8
0
 10
300.472650
 20
659.031822
 42
-0.015791
  0
VERTEX
  8
0
 10
294.765251
 20
652.770064
 42
-0.034643
  0
VERTEX
  8
0
 10
289.940081
 20
648.444604
 42
-0.046321
  0
VERTEX
  8
0
 10
285.841054
 20
645.822983
 42
-0.119675
  0
VERTEX
  8
0
 10
282.451889
 20
645.000000
 42
-0.035049
  0
VERTEX
  8
0
 10
281.137008
 20
645.092284
 42
-0.153752
  0
VERTEX
  8
0
 10
280.442961
 20
645.423494
 42
-0.187807
  0
VERTEX
  8
0
 10
280.141968
 20
646.047970
 42
-0.056967
  0
VERTEX
  8
0
 10
280.180449
 20
647.117633
 42
-0.122070
  0
VERTEX
  8
0
 10
280.630703
 20
648.204615
 42
-0.075145
  0
VERTEX
  8
0
 10
281.615444
 20
649.188852
 42
-0.050691
  0
VERTEX
  8
0
 10
283.229970
 20
650.143176
 42
-0.019140
  0
VERTEX
  8
0
 10
285.654076
 20
651.151736
 42
0.061192
  0
VERTEX
  8
0
 10
290.608166
 20
653.719728
 42
0.054414
  0
VERTEX
  8
0
 10
295.013907
 20
657.500304
 42
0.059132
  0
VERTEX
  8
0
 10
298.056724
 20
661.632070
 42
0.155271
  0
VERTEX
  8
0
 10
298.810157
 20
665.192071
 42
0.079287
  0
VERTEX
  8
0
 10
298.148367
 20
667.702393
 42
0.156788
  0
VERTEX
  8
0
 10
296.793036
 20
669.225889
 42
0.131485
  0
VERTEX
  8
0
 10
294.613570
 20
669.831966
 42
0.048841
  0
VERTEX
  8
0
 10
291.417418
 20
669.550485
 42
0.068990
  0
VERTEX
  8
0
 10
289.021323
 20
668.747909
 42
0.049041
  0
VERTEX
  8
0
 10
286.616522
 20
667.243666
 42
0.029651
  0
VERTEX
  8
0
 10
283.610485
 20
664.627002
 42
0.007312
  0
VERTEX
  8
0
 10
279.004176
 20
659.976550
 42
-0.004901
  0
VERTEX
  8
0
 10
275.463180
 20
656.366960
 42
-0.004917
  0
VERTEX
  8
0
 10
271.856147
 20
652.831664
 42
-0.004811
  0
VERTEX
  8
0
 10
268.650578
 20
649.809855
 42
-0.019543
  0
VERTEX
  8
0
 10
266.612495
 20
648.067980
 42
-0.034882
  0
VERTEX
  8
0
 10
263.723586
 20
646.098439
 42
-0.078806
  0
VERTEX
  8
0
 10
261.263059
 20
645.140251
 42
-0.167518
  0
VERTEX
  8
0
 10
259.681232
 20
645.327594
 42
-0.287813
  0
VERTEX
  8
0
 10
259.000000
 20
646.413021
 42
-0.130524
  0
VERTEX
  8
0
 10
259.263166
 20
647.403958
 42
-0.001787
  0
VERTEX
  8
0
 10
262.415366
 20
652.874643
 42
-0.004903
  0
VERTEX
  8
0
 10
266.170655
 20
659.194989
 42
-0.003189
  0
VERTEX
  8
0
 10
270.626777
 20
666.425788
 42
-0.003709
  0
VERTEX
  8
0
 10
276.498454
 20
675.665681
 42
-0.014907
  0
VERTEX
  8
0
 10
280.294932
 20
681.175587
 42
-0.019930
  0
VERTEX
  8
0
 10
283.017262
 20
684.590732
 42
-0.154217
  0
VERTEX
  8
0
 10
284.734702
 20
685.648262
 42
-0.069202
  0
VERTEX
  8
0
 10
288.728502
 20
686.080147
 42
-0.015576
  0
VERTEX
  8
0
 10
295.567928
 20
685.658218
 42
-0.015108
  0
VERTEX
  8
0
 10
302.349430
 20
684.820033
 42
-0.077543
  0
VERTEX
  8
0
 10
305.950459
 20
683.674601
 42
0.008839
  0
VERTEX
  8
0
 10
307.935832
 20
682.727618
 42
0.178876
  0
VERTEX
  8
0
 10
308.590829
 20
682.679470
 42
0.307268
  0
VERTEX
  8
0
 10
308.928183
 20
683.084949
 42
0.024435
  0
VERTEX
  8
0
 10
309.000000
 20
684.553592
 42
0.165880
  0
VERTEX
  8
0
 10
308.083236
 20
687.240887
 42
0.131504
  0
VERTEX
  8
0
 10
305.629049
 20
689.113377
 42
0.074424
  0
VERTEX
  8
0
 10
301.275854
 20
690.186404
 42
0.023279
  0
VERTEX
  8
0
 10
294.543979
 20
690.500000
 42
-0.006322
  0
VERTEX
  8
0
 10
289.226640
 20
690.567234
 42
-0.044751
  0
VERTEX
  8
0
 10
286.663695
 20
690.862577
 42
-0.092132
  0
VERTEX
  8
0
 10
285.045219
 20
691.523924
 42
-0.079744
  0
VERTEX
  8
0
 10
283.677420
 20
692.750000
 42
0.077139
  0
VERTEX
  8
0
 10
281.780316
 20
694.468335
 42
0.177509
  0
VERTEX
  8
0
 10
279.932807
 20
694.902203
 42
0.183536
  0
VERTEX
  8
0
 10
278.285641
 20
694.036845
 42
0.083024
  0
VERTEX
  8
0
 10
276.973879
 20
691.936939
 42
-0.068850
  0
VERTEX
  8
0
 10
276.033135
 20
690.332017
 42
-0.054970
  0
VERTEX
  8
0
 10
274.624869
 20
688.901310
 42
-0.041273
  0
VERTEX
  8
0
 10
272.570035
 20
687.492581
 42
-0.017372
  0
VERTEX
  8
0
 10
269.602559
 20
685.933566
 42
0.000000
  0
VERTEX
  8
0
 10
263.500000
 20
682.993253
 42
0.000000
  0
VERTEX
  8
0
 10
267.750000
 20
683.508444
 42
-0.012245
  0
VERTEX
  8
0
 10
269.379654
 20
683.665609
 42
-0.020666
  0
VERTEX
  8
0
 10
270.751562
 20
683.707227
 42
-0.016135
  0
VERTEX
  8
0
 10
271.815034
 20
683.661185
 42
-0.392259
  0
VERTEX
  8
0
 10
272.000000
 20
683.461692
 42
-0.137628
  0
VERTEX
  8
0
 10
271.885510
 20
683.053630
 42
-0.000613
  0
VERTEX
  8
0
 10
269.514192
 20
679.171108
 42
-0.002867
  0
VERTEX
  8
0
 10
266.781652
 20
674.766380
 42
-0.001799
  0
VERTEX
  8
0
 10
263.537676
 20
669.644560
 42
-0.009361
  0
VERTEX
  8
0
 10
259.518251
 20
663.601125
 42
-0.012129
  0
VERTEX
  8
0
 10
255.597509
 20
658.222453
 42
-0.013489
  0
VERTEX
  8
0
 10
251.912983
 20
653.676544
 42
-0.024399
  0
VERTEX
  8
0
 10
248.624230
 20
650.194686
 42
-0.004245
  0
VERTEX
  8
0
 10
246.109231
 20
647.820367
 42
-0.006592
  0
VERTEX
  8
0
 10
243.895825
 20
645.819689
 42
-0.002470
  0
VERTEX
  8
0
 10
241.972410
 20
644.143456
 42
-0.179878
  0
VERTEX
  8
0
 10
241.586554
 20
644.000000
 42
-0.529513
  0
VERTEX
  8
0
 10
240.873070
 20
645.050003
 42
-0.031881
  0
VERTEX
  8
0
 10
242.811524
 20
649.158380
 42
-0.024051
  0
VERTEX
  8
0
 10
246.460527
 20
655.074247
 42
-0.010047
  0
VERTEX
  8
0
 10
251.913053
 20
662.697619
 42
0.015204
  0
VERTEX
  8
0
 10
253.326509
 20
664.717517
 42
0.114688
  0
VERTEX
  8
0
 10
253.725336
 20
665.804076
 42
0.146789
  0
VERTEX
  8
0
 10
253.550903
 20
666.832026
 42
0.030123
  0
VERTEX
  8
0
 10
252.626278
 20
668.447619
 42
0.091722
  0
VERTEX
  8
0
 10
251.117692
 20
670.025431
 42
0.097557
  0
VERTEX
  8
0
 10
249.175406
 20
670.917127
 42
0.161082
  0
VERTEX
  8
0
 10
247.654023
 20
670.789755
 42
0.300551
  0
VERTEX
  8
0
 10
247.000000
 20
669.800000
 42
-0.051663
  0
VERTEX
  8
0
 10
246.943785
 20
669.257401
 42
-0.354955
  0
VERTEX
  8
0
 10
246.750000
 20
669.100000
 42
-0.180052
  0
VERTEX
  8
0
 10
246.421376
 20
669.222304
 42
-0.018208
  0
VERTEX
  8
0
 10
245.800000
 20
669.800000
 42
0.254951
  0
VERTEX
  8
0
 10
241.836485
 20
670.966085
 42
0.094498
  0
VERTEX
  8
0
 10
236.302468
 20
668.616080
 42
0.061779
  0
VERTEX
  8
0
 10
229.854489
 20
663.035523
 42
0.032835
  0
VERTEX
  8
0
 10
223.301142
 20
654.735481
 42
-0.051748
  0
VERTEX
  8
0
 10
218.718150
 20
649.361196
 42
-0.065208
  0
VERTEX
  8
0
 10
213.443892
 20
645.507041
 42
-0.099025
  0
VERTEX
  8
0
 10
209.012393
 20
644.119556
 42
-0.339848
  0
VERTEX
  8
0
 10
206.602057
 20
645.594638
 42
-0.208245
  0
VERTEX
  8
0
 10
206.757083
 20
649.098680
 42
-0.022348
  0
VERTEX
  8
0
 10
210.741461
 20
656.400328
 42
-0.027730
  0
VERTEX
  8
0
 10
215.601709
 20
663.509770
 42
-0.076318
  0
VERTEX
  8
0
 10
219.977618
 20
667.696877
 42
-0.081699
  0
VERTEX
  8
0
 10
222.002264
 20
668.669843
 42
-0.367337
  0
VERTEX
  8
0
 10
223.111903
 20
668.175464
 42
-0.193966
  0
VERTEX
  8
0
 10
223.224065
 20
666.436745
 42
-0.038200
  0
VERTEX
  8
0
 10
221.996136
 20
663.492422
 42
0.002564
  0
VERTEX
  8
0
 10
220.391018
 20
660.303773
 42
0.086613
  0
VERTEX
  8
0
 10
220.150097
 20
659.491783
 42
0.386062
  0
VERTEX
  8
0
 10
220.421667
 20
659.112373
 42
0.053225
  0
VERTEX
  8
0
 10
221.474320
 20
659.000000
 42
0.223131
  0
VERTEX
  8
0
 10
222.889412
 20
659.664591
 42
0.049848
  0
VERTEX
  8
0
 10
224.420688
 20
661.936610
 42
0.049112
  0
VERTEX
  8
0
 10
225.604761
 20
664.774448
 42
0.074421
  0
VERTEX
  8
0
 10
226.000000
 20
667.415156
 42
0.127164
  0
VERTEX
  8
0
 10
225.424675
 20
669.640717
 42
0.162853
  0
VERTEX
  8
0
 10
223.874103
 20
671.062181
 42
0.118617
  0
VERTEX
  8
0
 10
221.345366
 20
671.530129
 42
0.052519
  0
VERTEX
  8
0
 10
217.970939
 20
670.992175
 42
0.054382
  0
VERTEX
  8
0
 10
215.774966
 20
670.136163
 42
0.040042
  0
VERTEX
  8
0
 10
213.561627
 20
668.747312
 42
0.031249
  0
VERTEX
  8
0
 10
211.126532
 20
666.684126
 42
0.014552
  0
VERTEX
  8
0
 10
208.225116
 20
663.729473
 42
-0.004479
  0
VERTEX
  8
0
 10
198.492606
 20
653.410567
 42
-0.020725
  0
VERTEX
  8
0
 10
192.572486
 20
647.735878
 42
-0.047907
  0
VERTEX
  8
0
 10
189.131946
 20
645.242837
 42
-0.579924
  0
VERTEX
  8
0
 10
188.000000
 20
645.890560
 42
-0.132771
  0
VERTEX
  8
0
 10
188.164249
 20
646.498198
 42
-0.002797
  0
VERTEX
  8
0
 10
189.762500
 20
649.203657
 42
-0.006289
  0
VERTEX
  8
0
 10
191.700667
 20
652.352427
 42
-0.004172
  0
VERTEX
  8
0
 10
194.000000
 20
655.918616
 42
0.006152
  0
VERTEX
  8
0
 10
196.298783
 20
659.515147
 42
0.008850
  0
VERTEX
  8
0
 10
198.237500
 20
662.758828
 42
0.005309
  0
VERTEX
  8
0
 10
199.781294
 20
665.516158
 42
0.125600
  0
VERTEX
  8
0
 10
200.000000
 20
666.373068
 42
0.155882
  0
VERTEX
  8
0
 10
199.579536
 20
667.688955
 42
0.047892
  0
VERTEX
  8
0
 10
198.197060
 20
669.283567
 42
0.048028
  0
VERTEX
  8
0
 10
196.523423
 20
670.595513
 42
0.143181
  0
VERTEX
  8
0
 10
195.139875
 20
671.000000
 42
0.125224
  0
VERTEX
  8
0
 10
194.633079
 20
670.871052
 42
0.066005
  0
VERTEX
  8
0
 10
194.105018
 20
670.485937
 42
0.059213
  0
VERTEX
  8
0
 10
193.636751
 20
669.919230
 42
0.056558
  0
VERTEX
  8
0
 10
193.305778
 20
669.250000
 42
-0.040348
  0
VERTEX
  8
0
 10
192.835219
 20
668.215633
 42
-0.004868
  0
VERTEX
  8
0
 10
191.596336
 20
666.038419
 42
-0.005763
  0
VERTEX
  8
0
 10
190.066312
 20
663.477793
 42
-0.004714
  0
VERTEX
  8
0
 10
188.373121
 20
660.774403
 42
-0.052601
  0
VERTEX
  8
0
 10
182.927646
 20
653.958369
 42
-0.044190
  0
VERTEX
  8
0
 10
175.871954
 20
647.975698
 42
-0.065734
  0
VERTEX
  8
0
 10
170.079809
 20
644.933074
 42
-0.521628
  0
VERTEX
  8
0
 10
168.000000
 20
646.384205
 42
-0.096268
  0
VERTEX
  8
0
 10
168.171732
 20
647.267889
 42
-0.006350
  0
VERTEX
  8
0
 10
169.178679
 20
649.672377
 42
-0.009007
  0
VERTEX
  8
0
 10
170.475555
 20
652.520403
 42
-0.006600
  0
VERTEX
  8
0
 10
172.012526
 20
655.634205
 42
-0.014587
  0
VERTEX
  8
0
 10
174.342697
 20
659.890582
 42
-0.037908
  0
VERTEX
  8
0
 10
176.331265
 20
662.761153
 42
-0.043198
  0
VERTEX
  8
0
 10
178.569320
 20
665.078655
 42
-0.024376
  0
VERTEX
  8
0
 10
181.639746
 20
667.500000
 42
0.028750
  0
VERTEX
  8
0
 10
186.608605
 20
671.489394
 42
0.019752
  0
VERTEX
  8
0
 10
191.780141
 20
676.539065
 42
0.019398
  0
VERTEX
  8
0
 10
196.666979
 20
682.121764
 42
0.023518
  0
VERTEX
  8
0
 10
200.783569
 20
687.729859
 42
0.008058
  0
VERTEX
  8
0
 10
202.921070
 20
691.064161
 42
0.080951
  0
VERTEX
  8
0
 10
203.551243
 20
692.586811
 42
0.153232
  0
VERTEX
  8
0
 10
203.459802
 20
693.832980
 42
0.050717
  0
VERTEX
  8
0
 10
202.605154
 20
695.479859
 42
0.077733
  0
VERTEX
  8
0
 10
201.102629
 20
697.141369
 42
0.144405
  0
VERTEX
  8
0
 10
199.438593
 20
697.832436
 42
0.111584
  0
VERTEX
  8
0
 10
197.357913
 20
697.591142
 42
0.036202
  0
SEQEND
  0
POLYLINE
  8
0
 66
1
 70
1
  0
VERTEX
  8
0
 10
198.402828
 20
688.217743
 42
-0.013573
  0
VERTEX
  8
0
 10
194.188276
 20
682.899510
 42
-0.009943
  0
VERTEX
  8
0
 10
189.238895
 20
677.224014
 42
-0.008968
  0
VERTEX
  8
0
 10
184.540277
 20
672.230538
 42
-0.044805
  0
VERTEX
  8
0
 10
181.623118
 20
669.731637
 42
-0.044079
  0
VERTEX
  8
0
 10
180.233855
 20
668.916382
 42
-0.685684
  0
VERTEX
  8
0
 10
179.952291
 20
669.183744
 42
-0.051226
  0
VERTEX
  8
0
 10
180.727812
 20
670.626546
 42
-0.002324
  0
VERTEX
  8
0
 10
183.903788
 20
675.266726
 42
-0.018494
  0
VERTEX
  8
0
 10
188.980364
 20
682.058868
 42
-0.018754
  0
VERTEX
  8
0
 10
194.522496
 20
688.424712
 42
-0.012518
  0
VERTEX
  8
0
 10
199.545154
 20
693.513341
 42
-0.550412
  0
VERTEX
  8
0
 10
200.756053
 20
693.217743
 42
-0.163880
  0
VERTEX
  8
0
 10
200.756178
 20
692.496286
 42
-0.028806
  0
VERTEX
  8
0
 10
200.243042
 20
691.220063
 42
-0.028550
  0
VERTEX
  8
0
 10
199.437657
 20
689.735150
 42
-0.022237
  0
SEQEND
  0
POLYLINE
  8
0
 66
1
 70
1
  0
VERTEX
  8
0
 10
348.402828
 20
688.217743
 42
-0.013573
  0
VERTEX
  8
0
 10
344.188276
 20
682.899510
 42
-0.009943
  0
VERTEX
  8
0
 10
339.238895
 20
677.224014
 42
-0.008968
  0
VERTEX
  8
0
 10
334.540277
 20
672.230538
 42
-0.044805
  0
VERTEX
  8
0
 10
331.623118
 20
669.731637
 42
-0.044079
  0
VERTEX
  8
0
 10
330.233855
 20
668.916382
 42
-0.685684
  0
VERTEX
  8
0
 10
329.952291
 20
669.183744
 42
-0.051226
  0
VERTEX
  8
0
 10
330.727812
 20
670.626546
 42
-0.002324
  0
VERTEX
  8
0
 10
333.903788
 20
675.266726
 42
-0.018494
  0
VERTEX
  8
0
 10
338.980364
 20
682.058868
 42
-0.018754
  0
VERTEX
  8
0
 10
344.522496
 20
688.424712
 42
-0.012518
  0
VERTEX
  8
0
 10
349.545154
 20
693.513341
 42
-0.550412
  0
VERTEX
  8
0
 10
350.756053
 20
693.217743
 42
-0.163880
  0
VERTEX
  8
0
 10
350.756178
 20
692.496286
 42
-0.028806
  0
VERTEX
  8
0
 10
350.243042
 20
691.220063
 42
-0.028550
  0
VERTEX
  8
0
 10
349.437657
 20
689.735150
 42
-0.022237
  0
SEQEND
  0
POLYLINE
  8
0
 66
1
 70
1
  0
VERTEX
  8
0
 10
145.021245
 20
660.534375
 42
-0.060123
  0
VERTEX
  8
0
 10
142.835008
 20
657.795606
 42
-0.041190
  0
VERTEX
  8
0
 10
139.775754
 20
655.246501
 42
-0.040661
  0
VERTEX
  8
0
 10
136.672593
 20
653.423819
 42
-0.168219
  0
VERTEX
  8
0
 10
134.543767
 20
653.174719
 42
-0.513727
  0
VERTEX
  8
0
 10
134.041314
 20
654.347325
 42
-0.019166
  0
VERTEX
  8
0
 10
137.135172
 20
659.042478
 42
-0.024951
  0
VERTEX
  8
0
 10
140.857063
 20
663.732057
 42
-0.075494
  0
VERTEX
  8
0
 10
143.968382
 20
666.349197
 42
-0.011708
  0
VERTEX
  8
0
 10
145.535753
 20
667.257521
 42
-0.163151
  0
VERTEX
  8
0
 10
146.169739
 20
667.371812
 42
-0.287068
  0
VERTEX
  8
0
 10
146.555582
 20
667.044045
 42
-0.036315
  0
VERTEX
  8
0
 10
146.821652
 20
665.932276
 42
-0.091162
  0
VERTEX
  8
0
 10
146.802360
 20
664.943873
 42
-0.030159
  0
VERTEX
  8
0
 10
146.425464
 20
663.536353
 42
-0.028878
  0
VERTEX
  8
0
 10
145.809683
 20
661.993184
 42
-0.029048
  0
SEQEND
  0
POLYLINE
  8
0
 66
1
 70
1
  0
VERTEX
  8
0
 10
169.000000
 20
666.871727
 42
-0.150617
  0
VERTEX
  8
0
 10
167.706547
 20
662.675290
 42
-0.014478
  0
VERTEX
  8
0
 10
161.365155
 20
653.921517
 42
-0.012201
  0
VERTEX
  8
0
 10
154.495499
 20
645.431291
 42
-0.219978
  0
VERTEX
  8
0
 10
151.399657
 20
644.000000
 42
-0.517189
  0
VERTEX
  8
0
 10
149.956314
 20
646.038133
 42
-0.049418
  0
VERTEX
  8
0
 10
153.011252
 20
652.575067
 42
-0.040244
  0
VERTEX
  8
0
 10
158.379178
 20
660.152060
 42
-0.059657
  0
VERTEX
  8
0
 10
164.300393
 20
665.721623
 42
-0.015413
  0
VERTEX
  8
0
 10
166.567806
 20
667.288904
 42
-0.083689
  0
VERTEX
  8
0
 10
167.935254
 20
667.878363
 42
-0.263938
  0
VERTEX
  8
0
 10
168.672770
 20
667.669398
 42
-0.197144
  0
SEQEND
  0
POLYLINE
  8
0
 66
1
 70
1
  0
VERTEX
  8
0
 10
245.000000
 20
666.871727
 42
-0.151086
  0
VERTEX
  8
0
 10
243.695168
 20
662.652122
 42
-0.014154
  0
VERTEX
  8
0
 10
237.232919
 20
653.753774
 42
-0.010477
  0
VERTEX
  8
0
 10
230.214956
 20
645.028516
 42
-0.309875
  0
VERTEX
  8
0
 10
227.614711
 20
644.304716
 42
-0.419327
  0
VERTEX
  8
0
 10
226.402530
 20
646.832244
 42
-0.046992
  0
VERTEX
  8
0
 10
229.419976
 20
653.227775
 42
-0.043187
  0
VERTEX
  8
0
 10
234.491017
 20
660.314867
 42
-0.057004
  0
VERTEX
  8
0
 10
240.300393
 20
665.721623
 42
-0.015413
  0
VERTEX
  8
0
 10
242.567806
 20
667.288904
 42
-0.083689
  0
VERTEX
  8
0
 10
243.935254
 20
667.878363
 42
-0.263938
  0
VERTEX
  8
0
 10
244.672770
 20
667.669398
 42
-0.197144
  0
SEQEND
  0
POLYLINE
  8
0
 66
1
 70
1
  0
VERTEX
  8
0
 10
294.021245
 20
660.534375
 42
-0.060123
  0
VERTEX
  8
0
 10
291.835008
 20
657.795606
 42
-0.041190
  0
VERTEX
  8
0
 10
288.775754
 20
655.246501
 42
-0.040661
  0
VERTEX
  8
0
 10
285.672593
 20
653.423819
 42
-0.168219
  0
VERTEX
  8
0
 10
283.543767
 20
653.174719
 42
-0.513727
  0
VERTEX
  8
0
 10
283.041314
 20
654.347325
 42
-0.019166
  0
VERTEX
  8
0
 10
286.135172
 20
659.042478
 42
-0.024951
  0
VERTEX
  8
0
 10
289.857063
 20
663.732057
 42
-0.075494
  0
VERTEX
  8
0
 10
292.968382
 20
666.349197
 42
-0.011708
  0
VERTEX
  8
0
 10
294.535753
 20
667.257521
 42
-0.163151
  0
VERTEX
  8
0
 10
295.169739
 20
667.371812
 42
-0.287068
  0
VERTEX
  8
0
 10
295.555582
 20
667.044045
 42
-0.036315
  0
VERTEX
  8
0
 10
295.821652
 20
665.932276
 42
-0.091162
  0
VERTEX
  8
0
 10
295.802360
 20
664.943873
 42
-0.030159
  0
VERTEX
  8
0
 10
295.425464
 20
663.536353
 42
-0.028878
  0
VERTEX
  8
0
 10
294.809683
 20
661.993184
 42
-0.029048
  0
SEQEND
  0
POLYLINE
  8
0
 66
1
 70
1
  0
VERTEX
  8
0
 10
319.000000
 20
666.871727
 42
-0.150617
  0
VERTEX
  8
0
 10
317.706547
 20
662.675290
 42
-0.014478
  0
VERTEX
  8
0
 10
311.365155
 20
653.921517
 42
-0.012201
  0
VERTEX
  8
0
 10
304.495499
 20
645.431291
 42
-0.219978
  0
VERTEX
  8
0
 10
301.399657
 20
644.000000
 42
-0.517189
  0
VERTEX
  8
0
 10
299.956314
 20
646.038133
 42
-0.049418
  0
VERTEX
  8
0
 10
303.011252
 20
652.575067
 42
-0.040244
  0
VERTEX
  8
0
 10
308.379178
 20
660.152060
 42
-0.059657
  0
VERTEX
  8
0
 10
314.300393
 20
665.721623
 42
-0.015413
  0
VERTEX
  8
0
 10
316.567806
 20
667.288904
 42
-0.083689
  0
VERTEX
  8
0
 10
317.935254
 20
667.878363
 42
-0.263938
  0
VERTEX
  8
0
 10
318.672770
 20
667.669398
 42
-0.197144
  0
SEQEND
  0
POLYLINE
  8
0
 66
1
 70
1
  0
VERTEX
  8
0
 10
377.973879
 20
691.936939
 42
-0.068850
  0
VERTEX
  8
0
 10
377.033135
 20
690.332017
 42
-0.054970
  0
VERTEX
  8
0
 10
375.624869
 20
688.901310
 42
-0.041273
  0
VERTEX
  8
0
 10
373.570035
 20
687.492581
 42
-0.017372
  0
VERTEX
  8
0
 10
370.602559
 20
685.933566
 42
0.000000
  0
VERTEX
  8
0
 10
364.500000
 20
682.993253
 42
0.000000
  0
VERTEX
  8
0
 10
368.750000
 20
683.508444
 42
-0.010492
  0
VERTEX
  8
0
 10
370.379689
 20
683.671382
 42
-0.017705
  0
VERTEX
  8
0
 10
371.751562
 20
683.730768
 42
-0.012078
  0
VERTEX
  8
0
 10
372.835524
 20
683.713100
 42
-0.402414
  0
VERTEX
  8
0
 10
373.000000
 20
683.541832
 42
-0.136862
  0
VERTEX
  8
0
 10
372.901096
 20
683.187272
 42
-0.000361
  0
VERTEX
  8
0
 10
370.246039
 20
678.805692
 42
-0.002184
  0
VERTEX
  8
0
 10
367.218956
 20
673.867060
 42
-0.001356
  0
VERTEX
  8
0
 10
363.624814
 20
668.095379
 42
0.004533
  0
VERTEX
  8
0
 10
359.984109
 20
662.165273
 42
0.006103
  0
VERTEX
  8
0
 10
356.803118
 20
656.727859
 42
0.004287
  0
VERTEX
  8
0
 10
354.238291
 20
652.126931
 42
0.063604
  0
VERTEX
  8
0
 10
353.567175
 20
650.411624
 42
0.089781
  0
VERTEX
  8
0
 10
353.380370
 20
647.620289
 42
0.077682
  0
VERTEX
  8
0
 10
354.156764
 20
644.785336
 42
0.084118
  0
VERTEX
  8
0
 10
355.673044
 20
642.521726
 42
0.142668
  0
VERTEX
  8
0
 10
357.626589
 20
641.378872
 42
0.077069
  0
VERTEX
  8
0
 10
360.349691
 20
641.127441
 42
0.075023
  0
VERTEX
  8
0
 10
363.047985
 20
641.706871
 42
0.055418
  0
VERTEX
  8
0
 10
366.080417
 20
643.254936
 42
0.021542
  0
VERTEX
  8
0
 10
369.903741
 20
646.018146
 42
0.000000
  0
VERTEX
  8
0
 10
375.000000
 20
650.046507
 42
0.000000
  0
VERTEX
  8
0
 10
375.000000
 20
647.178241
 42
0.143397
  0
VERTEX
  8
0
 10
376.064396
 20
643.543195
 42
0.180119
  0
VERTEX
  8
0
 10
378.850041
 20
641.448849
 42
0.141232
  0
VERTEX
  8
0
 10
382.919068
 20
641.417722
 42
0.080995
  0
VERTEX
  8
0
 10
387.404862
 20
643.500000
 42
-0.021456
  0
VERTEX
  8
0
 10
388.954013
 20
644.456897
 42
-0.022213
  0
VERTEX
  8
0
 10
390.561988
 20
645.265625
 42
-0.022603
  0
VERTEX
  8
0
 10
392.010359
 20
645.838064
 42
-0.082987
  0
VERTEX
  8
0
 10
392.979309
 20
646.000000
 42
0.037383
  0
VERTEX
  8
0
 10
393.884063
 20
646.067740
 42
0.016440
  0
VERTEX
  8
0
 10
395.065713
 20
646.285622
 42
0.016164
  0
VERTEX
  8
0
 10
396.309634
 20
646.599994
 42
0.020866
  0
VERTEX
  8
0
 10
397.427227
 20
646.972332
 42
0.075251
  0
VERTEX
  8
0
 10
400.357680
 20
648.625155
 42
0.020096
  0
VERTEX
  8
0
 10
404.451868
 20
652.101355
 42
0.014670
  0
VERTEX
  8
0
 10
408.275892
 20
655.835236
 42
0.194391
  0
VERTEX
  8
0
 10
409.000000
 20
657.627360
 42
0.153658
  0
VERTEX
  8
0
 10
408.693638
 20
658.600716
 42
0.262771
  0
VERTEX
  8
0
 10
407.947128
 20
658.958572
 42
0.187255
  0
VERTEX
  8
0
 10
407.025975
 20
658.528127
 42
0.099584
  0
VERTEX
  8
0
 10
406.342149
 20
657.449243
 42
-0.122334
  0
VERTEX
  8
0
 10
405.079206
 20
655.641728
 42
-0.014485
  0
VERTEX
  8
0
 10
401.268692
 20
652.506340
 42
-0.013128
  0
VERTEX
  8
0
 10
397.272117
 20
649.572238
 42
-0.152933
  0
VERTEX
  8
0
 10
395.444993
 20
649.000000
 42
-0.518943
  0
VERTEX
  8
0
 10
395.189925
 20
649.362300
 42
-0.025912
  0
VERTEX
  8
0
 10
395.850062
 20
650.942299
 42
-0.023597
  0
VERTEX
  8
0
 10
397.005564
 20
653.084022
 42
-0.012189
  0
VERTEX
  8
0
 10
398.638824
 20
655.652865
 42
0.011479
  0
VERTEX
  8
0
 10
400.994465
 20
659.346302
 42
0.043088
  0
VERTEX
  8
0
 10
402.210661
 20
661.809299
 42
0.062852
  0
VERTEX
  8
0
 10
402.744828
 20
663.927732
 42
0.049144
  0
VERTEX
  8
0
 10
402.800028
 20
666.301020
 42
0.059098
  0
VERTEX
  8
0
 10
402.199962
 20
669.371248
 42
0.161802
  0
VERTEX
  8
0
 10
400.910919
 20
671.132178
 42
0.151769
  0
VERTEX
  8
0
 10
398.762034
 20
671.836756
 42
0.050094
  0
VERTEX
  8
0
 10
395.413241
 20
671.553081
 42
0.049712
  0
VERTEX
  8
0
 10
393.377432
 20
670.958953
 42
0.044966
  0
VERTEX
  8
0
 10
391.424986
 20
669.959390
 42
0.038524
  0
VERTEX
  8
0
 10
389.432188
 20
668.475520
 42
0.022236
  0
VERTEX
  8
0
 10
387.266825
 20
666.411166
 42
-0.010429
  0
VERTEX
  8
0
 10
385.576026
 20
664.721276
 42
-0.014790
  0
VERTEX
  8
0
 10
383.998119
 20
663.295780
 42
-0.010786
  0
VERTEX
  8
0
 10
382.643403
 20
662.192304
 42
-0.167021
  0
VERTEX
  8
0
 10
382.083774
 20
662.000000
 42
0.182134
  0
VERTEX
  8
0
 10
381.541980
 20
661.795870
 42
0.012611
  0
VERTEX
  8
0
 10
380.322236
 20
660.668958
 42
0.016636
  0
VERTEX
  8
0
 10
378.912436
 20
659.204684
 42
0.011676
  0
VERTEX
  8
0
 10
377.420916
 20
657.468793
 42
-0.034387
  0
VERTEX
  8
0
 10
371.860361
 20
651.562080
 42
-0.045365
  0
VERTEX
  8
0
 10
366.004105
 20
647.052936
 42
-0.077218
  0
VERTEX
  8
0
 10
361.639632
 20
645.148929
 42
-0.491727
  0
VERTEX
  8
0
 10
360.000000
 20
646.413021
 42
-0.130524
  0
VERTEX
  8
0
 10
360.263166
 20
647.403958
 42
-0.001787
  0
VERTEX
  8
0
 10
363.415366
 20
652.874643
 42
-0.004903
  0
VERTEX
  8
0
 10
367.170655
 20
659.194989
 42
-0.003189
  0
VERTEX
  8
0
 10
371.626777
 20
666.425788
 42
-0.003709
  0
VERTEX
  8
0
 10
377.498454
 20
675.665681
 42
-0.014907
  0
VERTEX
  8
0
 10
381.294932
 20
681.175587
 42
-0.019930
  0
VERTEX
  8
0
 10
384.017262
 20
684.590732
 42
-0.154217
  0
VERTEX
  8
0
 10
385.734702
 20
685.648262
 42
-0.069202
  0
VERTEX
  8
0
 10
389.728502
 20
686.080147
 42
-0.015576
  0
VERTEX
  8
0
 10
396.567928
 20
685.658218
 42
-0.015108
  0
VERTEX
  8
0
 10
403.349430
 20
684.820033
 42
-0.077543
  0
VERTEX
  8
0
 10
406.950459
 20
683.674601
 42
0.008839
  0
VERTEX
  8
0
 10
408.935832
 20
682.727618
 42
0.178876
  0
VERTEX
  8
0
 10
409.590829
 20
682.679470
 42
0.307268
  0
VERTEX
  8
0
 10
409.928183
 20
683.084949
 42
0.024435
  0
VERTEX
  8
0
 10
410.000000
 20
684.553592
 42
0.165880
  0
VERTEX
  8
0
 10
409.083236
 20
687.240887
 42
0.131504
  0
VERTEX
  8
0
 10
406.629049
 20
689.113377
 42
0.074424
  0
VERTEX
  8
0
 10
402.275854
 20
690.186404
 42
0.023279
  0
VERTEX
  8
0
 10
395.543979
 20
690.500000
 42
-0.006322
  0
VERTEX
  8
0
 10
390.226640
 20
690.567234
 42
-0.044751
  0
VERTEX
  8
0
 10
387.663695
 20
690.862577
 42
-0.092132
  0
VERTEX
  8
0
 10
386.045219
 20
691.523924
 42
-0.079744
  0
VERTEX
  8
0
 10
384.677420
 20
692.750000
 42
0.077139
  0
VERTEX
  8
0
 10
382.780316
 20
694.468335
 42
0.177509
  0
VERTEX
  8
0
 10
380.932807
 20
694.902203
 42
0.183536
  0
VERTEX
  8
0
 10
379.285641
 20
694.036845
 42
0.083024
  0
SEQEND
  0
POLYLINE
  8
0
 66
1
 70
1
  0
VERTEX
  8
0
 10
399.823738
 20
667.139719
 42
-0.118531
  0
VERTEX
  8
0
 10
399.582940
 20
664.474202
 42
-0.032248
  0
VERTEX
  8
0
 10
397.961177
 20
660.534776
 42
-0.031567
  0
VERTEX
  8
0
 10
395.537726
 20
656.283593
 42
-0.032907
  0
VERTEX
  8
0
 10
392.628657
 20
652.433151
 42
-0.005632
  0
VERTEX
  8
0
 10
390.378103
 20
649.888164
 42
-0.125257
  0
VERTEX
  8
0
 10
389.562667
 20
649.346617
 42
-0.324899
  0
VERTEX
  8
0
 10
388.922362
 20
649.538572
 42
-0.039986
  0
VERTEX
  8
0
 10
388.085030
 20
650.841120
 42
-0.154216
  0
VERTEX
  8
0
 10
387.524475
 20
653.830295
 42
-0.053207
  0
VERTEX
  8
0
 10
388.525197
 20
658.163547
 42
-0.049631
  0
VERTEX
  8
0
 10
390.640699
 20
662.746554
 42
-0.056184
  0
VERTEX
  8
0
 10
393.546976
 20
666.618487
 42
-0.034298
  0
VERTEX
  8
0
 10
396.023244
 20
668.907363
 42
-0.149773
  0
VERTEX
  8
0
 10
397.854586
 20
669.639223
 42
-0.276097
  0
VERTEX
  8
0
 10
399.113089
 20
669.022083
 42
-0.107976
  0
SEQEND
  0
POLYLINE
  8
0
 66
1
 70
1
  0
VERTEX
  8
0
 10
385.384990
 20
648.535184
 42
-0.016822
  0
VERTEX
  8
0
 10
386.317860
 20
647.001266
 42
-0.163677
  0
VERTEX
  8
0
 10
386.458149
 20
646.264988
 42
-0.209068
  0
VERTEX
  8
0
 10
386.105268
 20
645.687346
 42
-0.029710
  0
VERTEX
  8
0
 10
384.892640
 20
644.942543
 42
-0.094308
  0
VERTEX
  8
0
 10
382.958727
 20
644.337234
 42
-0.246726
  0
VERTEX
  8
0
 10
381.641756
 20
644.845785
 42
-0.214016
  0
VERTEX
  8
0
 10
381.193263
 20
646.312115
 42
-0.075815
  0
VERTEX
  8
0
 10
381.805687
 20
648.472874
 42
-0.015652
  0
VERTEX
  8
0
 10
382.785820
 20
650.456995
 42
-0.272258
  0
VERTEX
  8
0
 10
383.376766
 20
650.818525
 42
-0.243772
  0
VERTEX
  8
0
 10
384.026483
 20
650.495967
 42
-0.012933
  0
SEQEND
  0
POLYLINE
  8
0
 66
1
 70
1
  0
VERTEX
  8
0
 10
99.430095
 20
691.750000
 42
-0.047355
  0
VERTEX
  8
0
 10
98.808338
 20
690.271809
 42
-0.002426
  0
VERTEX
  8
0
 10
96.325807
 20
685.702035
 42
-0.003848
  0
VERTEX
  8
0
 10
93.302361
 20
680.299282
 42
-0.002780
  0
VERTEX
  8
0
 10
89.851858
 20
674.320757
 42
0.006558
  0
VERTEX
  8
0
 10
83.807048
 20
663.661966
 42
0.037263
  0
VERTEX
  8
0
 10
81.100516
 20
657.733680
 42
0.077168
  0
VERTEX
  8
0
 10
80.288335
 20
653.722155
 42
0.135095
  0
VERTEX
  8
0
 10
81.032015
 20
650.440179
 42
0.063552
  0
VERTEX
  8
0
 10
82.395737
 20
648.523203
 42
0.290982
  0
VERTEX
  8
0
 10
83.655995
 20
648.189020
 42
0.203294
  0
VERTEX
  8
0
 10
84.853197
 20
649.214397
 42
0.035679
  0
VERTEX
  8
0
 10
86.005826
 20
652.017652
 42
-0.046014
  0
VERTEX
  8
0
 10
87.035831
 20
654.382717
 42
-0.005569
  0
VERTEX
  8
0
 10
89.827910
 20
659.329621
 42
-0.006578
  0
VERTEX
  8
0
 10
93.296669
 20
665.140961
 42
-0.005374
  0
VERTEX
  8
0
 10
97.155211
 20
671.267652
 42
0.004347
  0
VERTEX
  8
0
 10
100.920396
 20
677.218971
 42
0.006504
  0
VERTEX
  8
0
 10
104.096152
 20
682.488356
 42
0.003046
  0
VERTEX
  8
0
 10
106.702449
 20
687.005840
 42
0.128303
  0
VERTEX
  8
0
 10
106.989326
 20
688.075686
 42
0.157345
  0
VERTEX
  8
0
 10
106.503596
 20
689.616635
 42
0.037968
  0
VERTEX
  8
0
 10
104.771784
 20
691.700538
 42
0.037771
  0
VERTEX
  8
0
 10
102.750425
 20
693.495006
 42
0.164075
  0
VERTEX
  8
0
 10
101.252936
 20
694.000000
 42
0.163202
  0
VERTEX
  8
0
 10
100.773647
 20
693.839277
 42
0.060772
  0
VERTEX
  8
0
 10
100.256235
 20
693.339062
 42
0.051990
  0
VERTEX
  8
0
 10
99.782307
 20
692.610960
 42
0.042428
  0
SEQEND
  0
POLYLINE
  8
0
 66
1
 70
1
  0
VERTEX
  8
0
 10
200.950653
 20
680.261135
 42
0.043161
  0
VERTEX
  8
0
 10
198.119349
 20
674.808147
 42
0.375420
  0
VERTEX
  8
0
 10
198.925459
 20
672.420820
 42
0.295675
  0
VERTEX
  8
0
 10
201.818338
 20
672.560050
 42
0.036656
  0
VERTEX
  8
0
 10
206.894115
 20
676.803647
 42
0.005966
  0
VERTEX
  8
0
 10
210.040726
 20
679.926125
 42
0.079105
  0
VERTEX
  8
0
 10
210.986795
 20
681.252901
 42
0.233126
  0
VERTEX
  8
0
 10
210.990268
 20
682.249306
 42
0.095450
  0
VERTEX
  8
0
 10
210.155023
 20
683.359707
 42
0.094414
  0
VERTEX
  8
0
 10
207.787819
 20
684.802249
 42
0.172621
  0
VERTEX
  8
0
 10
205.554248
 20
684.840556
 42
0.128131
  0
VERTEX
  8
0
 10
203.327602
 20
683.383004
 42
0.042813
  0
SEQEND
  0
POLYLINE
  8
0
 66
1
 70
1
  0
VERTEX
  8
0
 10
431.233854
 20
666.750000
 42
-0.005167
  0
VERTEX
  8
0
 10
429.784303
 20
664.202906
 42
-0.002150
  0
VERTEX
  8
0
 10
427.777155
 20
660.793086
 42
-0.002127
  0
VERTEX
  8
0
 10
425.596041
 20
657.159180
 42
-0.002748
  0
VERTEX
  8
0
 10
423.561687
 20
653.843484
 42
0.010180
  0
VERTEX
  8
0
 10
421.365119
 20
650.141069
 42
0.029457
  0
VERTEX
  8
0
 10
420.052658
 20
647.466586
 42
0.042906
  0
VERTEX
  8
0
 10
419.413673
 20
645.482399
 42
0.134076
  0
VERTEX
  8
0
 10
419.470329
 20
644.093484
 42
0.155234
  0
VERTEX
  8
0
 10
420.613603
 20
642.476178
 42
0.240485
  0
VERTEX
  8
0
 10
422.262502
 20
642.183893
 42
0.130013
  0
VERTEX
  8
0
 10
424.320787
 20
643.460453
 42
0.043937
  0
VERTEX
  8
0
 10
426.527449
 20
646.250000
 42
-0.015676
  0
VERTEX
  8
0
 10
430.100844
 20
651.332501
 42
-0.018752
  0
VERTEX
  8
0
 10
433.787974
 20
655.876812
 42
-0.020071
  0
VERTEX
  8
0
 10
437.547802
 20
659.838411
 42
-0.025425
  0
VERTEX
  8
0
 10
441.339798
 20
663.167932
 42
-0.012349
  0
VERTEX
  8
0
 10
446.801142
 20
667.276854
 42
-0.555003
  0
VERTEX
  8
0
 10
447.886118
 20
666.827013
 42
-0.177988
  0
VERTEX
  8
0
 10
447.471993
 20
664.648815
 42
-0.005114
  0
VERTEX
  8
0
 10
442.451451
 20
656.467373
 42
0.009952
  0
VERTEX
  8
0
 10
440.004856
 20
652.392504
 42
0.022265
  0
VERTEX
  8
0
 10
438.349221
 20
649.183354
 42
0.027810
  0
VERTEX
  8
0
 10
437.368133
 20
646.699426
 42
0.109643
  0
VERTEX
  8
0
 10
437.201451
 20
645.073331
 42
0.132116
  0
VERTEX
  8
0
 10
438.092873
 20
642.834850
 42
0.336181
  0
VERTEX
  8
0
 10
439.673522
 20
642.379491
 42
0.122582
  0
VERTEX
  8
0
 10
442.053004
 20
644.049935
 42
0.023750
  0
VERTEX
  8
0
 10
445.329106
 20
648.208309
 42
-0.026649
  0
VERTEX
  8
0
 10
449.682771
 20
653.669059
 42
-0.013374
  0
VERTEX
  8
0
 10
455.718270
 20
660.107539
 42
-0.006658
  0
VERTEX
  8
0
 10
461.894511
 20
666.188558
 42
-0.193438
  0
VERTEX
  8
0
 10
463.913446
 20
667.000000
 42
-0.327061
  0
VERTEX
  8
0
 10
464.731096
 20
666.401094
 42
-0.160041
  0
VERTEX
  8
0
 10
464.716149
 20
665.038818
 42
-0.052949
  0
VERTEX
  8
0
 10
463.557166
 20
662.539220
 42
-0.011696
  0
VERTEX
  8
0
 10
461.031159
 20
658.540015
 42
0.011946
  0
VERTEX
  8
0
 10
457.788404
 20
653.400359
 42
0.039370
  0
VERTEX
  8
0
 10
456.009512
 20
649.812243
 42
0.061587
  0
VERTEX
  8
0
 10
455.268218
 20
647.009198
 42
0.095647
  0
VERTEX
  8
0
 10
455.405772
 20
644.519411
 42
0.057324
  0
VERTEX
  8
0
 10
455.904087
 20
643.197241
 42
0.144485
  0
VERTEX
  8
0
 10
456.607345
 20
642.460183
 42
0.106956
  0
VERTEX
  8
0
 10
457.743303
 20
642.097836
 42
0.023923
  0
VERTEX
  8
0
 10
459.786918
 20
642.000000
 42
0.045534
  0
VERTEX
  8
0
 10
461.598635
 20
642.165334
 42
0.035520
  0
VERTEX
  8
0
 10
463.513217
 20
642.660372
 42
0.034187
  0
VERTEX
  8
0
 10
465.417624
 20
643.448485
 42
0.034044
  0
VERTEX
  8
0
 10
467.199663
 20
644.489707
 42
-0.005071
  0
VERTEX
  8
0
 10
469.667339
 20
646.130201
 42
-0.122702
  0
VERTEX
  8
0
 10
470.443229
 20
646.398028
 42
-0.351011
  0
VERTEX
  8
0
 10
470.889232
 20
646.101368
 42
-0.040251
  0
VERTEX
  8
0
 10
471.181798
 20
644.841834
 42
0.177123
  0
VERTEX
  8
0
 10
472.639784
 20
642.162741
 42
0.191181
  0
VERTEX
  8
0
 10
475.430153
 20
641.163120
 42
0.117400
  0
VERTEX
  8
0
 10
479.328823
 20
642.231777
 42
0.053884
  0
VERTEX
  8
0
 10
483.677803
 20
645.264449
 42
0.000000
  0
VERTEX
  8
0
 10
487.392286
 20
648.500000
 42
0.000000
  0
VERTEX
  8
0
 10
484.946143
 20
644.044042
 42
-0.040470
  0
VERTEX
  8
0
 10
483.156040
 20
641.329217
 42
-0.085137
  0
VERTEX
  8
0
 10
481.291826
 20
639.636931
 42
-0.046778
  0
VERTEX
  8
0
 10
478.330978
 20
638.118956
 42
-0.005668
  0
VERTEX
  8
0
 10
471.500000
 20
635.477956
 42
0.020199
  0
VERTEX
  8
0
 10
453.632148
 20
627.966123
 42
0.066100
  0
VERTEX
  8
0
 10
442.867104
 20
621.060328
 42
0.104766
  0
VERTEX
  8
0
 10
437.061474
 20
613.574272
 42
0.113197
  0
VERTEX
  8
0
 10
435.000000
 20
604.585219
 42
0.016776
  0
VERTEX
  8
0
 10
435.109616
 20
601.319130
 42
0.064679
  0
VERTEX
  8
0
 10
435.504665
 20
599.332330
 42
0.080226
  0
VERTEX
  8
0
 10
436.346687
 20
597.736690
 42
0.034946
  0
VERTEX
  8
0
 10
437.923077
 20
595.923077
 42
0.033710
  0
VERTEX
  8
0
 10
439.632871
 20
594.429501
 42
0.070232
  0
VERTEX
  8
0
 10
441.173419
 20
593.567025
 42
0.065916
  0
VERTEX
  8
0
 10
442.955569
 20
593.133739
 42
0.026721
  0
VERTEX
  8
0
 10
445.456321
 20
593.000000
 42
0.121998
  0
VERTEX
  8
0
 10
454.303997
 20
595.191414
 42
0.066224
  0
VERTEX
  8
0
 10
463.491331
 20
601.720515
 42
0.049481
  0
VERTEX
  8
0
 10
473.045614
 20
612.574177
 42
0.024511
  0
VERTEX
  8
0
 10
483.018615
 20
628.000000
 42
-0.007475
  0
VERTEX
  8
0
 10
486.756535
 20
634.237797
 42
-0.044472
  0
VERTEX
  8
0
 10
489.033476
 20
637.272495
 42
-0.060458
  0
VERTEX
  8
0
 10
491.512396
 20
639.435501
 42
-0.020721
  0
VERTEX
  8
0
 10
495.570061
 20
641.952631
 42
0.022407
  0
VERTEX
  8
0
 10
500.043633
 20
644.748686
 42
0.025078
  0
VERTEX
  8
0
 10
504.077269
 20
647.837810
 42
0.025354
  0
VERTEX
  8
0
 10
507.742713
 20
651.282814
 42
0.023965
  0
VERTEX
  8
0
 10
511.114043
 20
655.143991
 42
0.021848
  0
VERTEX
  8
0
 10
513.803094
 20
658.861971
 42
0.659885
  0
VERTEX
  8
0
 10
513.332343
 20
659.574086
 42
0.137723
  0
VERTEX
  8
0
 10
511.259063
 20
658.563293
 42
0.010845
  0
VERTEX
  8
0
 10
506.722656
 20
654.345343
 42
-0.011539
  0
VERTEX
  8
0
 10
502.188400
 20
650.141115
 42
-0.017068
  0
VERTEX
  8
0
 10
498.007845
 20
646.687666
 42
-0.013751
  0
VERTEX
  8
0
 10
494.616862
 20
644.221449
 42
-0.603549
  0
VERTEX
  8
0
 10
494.000000
 20
644.546324
 42
-0.127832
  0
VERTEX
  8
0
 10
494.125792
 20
645.030306
 42
-0.001479
  0
VERTEX
  8
0
 10
495.762500
 20
647.945901
 42
-0.004396
  0
VERTEX
  8
0
 10
497.700336
 20
651.304847
 42
-0.002841
  0
VERTEX
  8
0
 10
500.000000
 20
655.160930
 42
0.009428
  0
VERTEX
  8
0
 10
504.036790
 20
662.137105
 42
0.059492
  0
VERTEX
  8
0
 10
505.583761
 20
665.934208
 42
0.153267
  0
VERTEX
  8
0
 10
505.498322
 20
668.297608
 42
0.186906
  0
VERTEX
  8
0
 10
504.065741
 20
669.964816
 42
0.067185
  0
VERTEX
  8
0
 10
502.014960
 20
670.730254
 42
0.223185
  0
VERTEX
  8
0
 10
500.645018
 20
670.429494
 42
0.104782
  0
VERTEX
  8
0
 10
499.363345
 20
668.928395
 42
0.010110
  0
VERTEX
  8
0
 10
497.147144
 20
664.647328
 42
-0.053095
  0
VERTEX
  8
0
 10
492.642441
 20
657.518687
 42
-0.030780
  0
VERTEX
  8
0
 10
485.869032
 20
649.968007
 42
-0.037355
  0
VERTEX
  8
0
 10
479.830450
 20
644.846676
 42
-0.612937
  0
VERTEX
  8
0
 10
478.000000
 20
645.778880
 42
-0.133108
  0
VERTEX
  8
0
 10
478.146310
 20
646.318732
 42
-0.002150
  0
VERTEX
  8
0
 10
479.762500
 20
649.054365
 42
-0.005458
  0
VERTEX
  8
0
 10
481.700504
 20
652.223591
 42
-0.003574
  0
VERTEX
  8
0
 10
484.000000
 20
655.835721
 42
0.005891
  0
VERTEX
  8
0
 10
486.298830
 20
659.484025
 42
0.008509
  0
VERTEX
  8
0
 10
488.237500
 20
662.766681
 42
0.004985
  0
VERTEX
  8
0
 10
489.786213
 20
665.558453
 42
0.124768
  0
VERTEX
  8
0
 10
490.000000
 20
666.401854
 42
0.158396
  0
VERTEX
  8
0
 10
489.558010
 20
667.762055
 42
0.053079
  0
VERTEX
  8
0
 10
488.140169
 20
669.332350
 42
0.053058
  0
VERTEX
  8
0
 10
486.400868
 20
670.585378
 42
0.139289
  0
VERTEX
  8
0
 10
484.921259
 20
670.949796
 42
0.211837
  0
VERTEX
  8
0
 10
484.210785
 20
670.604132
 42
0.022441
  0
VERTEX
  8
0
 10
483.061030
 20
669.109187
 42
0.024620
  0
VERTEX
  8
0
 10
481.804735
 20
667.112055
 42
0.017319
  0
VERTEX
  8
0
 10
480.584374
 20
664.754391
 42
-0.029354
  0
VERTEX
  8
0
 10
478.863626
 20
661.617239
 42
-0.023398
  0
VERTEX
  8
0
 10
476.661133
 20
658.446917
 42
-0.021178
  0
VERTEX
  8
0
 10
473.941169
 20
655.193381
 42
-0.015404
  0
VERTEX
  8
0
 10
470.658680
 20
651.804594
 42
-0.006550
  0
VERTEX
  8
0
 10
463.437246
 20
644.976267
 42
-0.440413
  0
VERTEX
  8
0
 10
461.922746
 20
645.105889
 42
-0.312743
  0
VERTEX
  8
0
 10
461.830398
 20
646.970056
 42
-0.005547
  0
VERTEX
  8
0
 10
467.518304
 20
655.886949
 42
0.018992
  0
VERTEX
  8
0
 10
471.166276
 20
661.959982
 42
0.067756
  0
VERTEX
  8
0
 10
472.792056
 20
666.181152
 42
0.146102
  0
VERTEX
  8
0
 10
472.633700
 20
668.916934
 42
0.232956
  0
VERTEX
  8
0
 10
470.977529
 20
670.507132
 42
0.093793
  0
VERTEX
  8
0
 10
468.337788
 20
670.826214
 42
0.067820
  0
VERTEX
  8
0
 10
465.427605
 20
670.229685
 42
0.056658
  0
VERTEX
  8
0
 10
462.313133
 20
668.722119
 42
0.036001
  0
VERTEX
  8
0
 10
459.068088
 20
666.326286
 42
-0.002691
  0
VERTEX
  8
0
 10
456.235902
 20
663.928327
 42
-0.109682
  0
VERTEX
  8
0
 10
455.523582
 20
663.558669
 42
-0.541619
  0
VERTEX
  8
0
 10
455.241693
 20
663.812245
 42
-0.022844
  0
VERTEX
  8
0
 10
455.562494
 20
665.392972
 42
0.196091
  0
VERTEX
  8
0
 10
455.036029
 20
669.092319
 42
0.240546
  0
VERTEX
  8
0
 10
452.133907
 20
670.952662
 42
0.136809
  0
VERTEX
  8
0
 10
447.307469
 20
670.104232
 42
0.073336
  0
VERTEX
  8
0
 10
442.250000
 20
666.700723
 42
0.000000
  0
VERTEX
  8
0
 10
440.000000
 20
664.651372
 42
0.000000
  0
VERTEX
  8
0
 10
440.000000
 20
666.768982
 42
0.143540
  0
VERTEX
  8
0
 10
439.551100
 20
668.300443
 42
0.051816
  0
VERTEX
  8
0
 10
438.121457
 20
670.090939
 42
0.051810
  0
VERTEX
  8
0
 10
436.359240
 20
671.545145
 42
0.147659
  0
VERTEX
  8
0
 10
434.852603
 20
672.000000
 42
0.237044
  0
VERTEX
  8
0
 10
434.465327
 20
671.805467
 42
0.009076
  0
VERTEX
  8
0
 10
433.499862
 20
670.457813
 42
0.014558
  0
VERTEX
  8
0
 10
432.402348
 20
668.761956
 42
0.009555
  0
SEQEND
  0
POLYLINE
  8
0
 66
1
 70
1
  0
VERTEX
  8
0
 10
477.877304
 20
631.750000
 42
-0.025615
  0
VERTEX
  8
0
 10
474.552772
 20
626.188373
 42
-0.006418
  0
VERTEX
  8
0
 10
468.556782
 20
617.477004
 42
-0.006468
  0
VERTEX
  8
0
 10
462.329844
 20
608.911389
 42
-0.024738
  0
VERTEX
  8
0
 10
458.125927
 20
603.828162
 42
-0.026212
  0
VERTEX
  8
0
 10
454.414654
 20
600.171992
 42
-0.037487
  0
VERTEX
  8
0
 10
450.738669
 20
597.374192
 42
-0.043831
  0
VERTEX
  8
0
 10
447.345686
 20
595.573017
 42
-0.100441
  0
VERTEX
  8
0
 10
444.521948
 20
595.000000
 42
-0.112176
  0
VERTEX
  8
0
 10
443.684505
 20
595.190276
 42
-0.029848
  0
VERTEX
  8
0
 10
442.479764
 20
595.858654
 42
-0.028712
  0
VERTEX
  8
0
 10
441.165215
 20
596.804282
 42
-0.026104
  0
VERTEX
  8
0
 10
439.923077
 20
597.923077
 42
-0.074519
  0
VERTEX
  8
0
 10
437.986951
 20
600.541849
 42
-0.090947
  0
VERTEX
  8
0
 10
437.069013
 20
603.442621
 42
-0.087445
  0
VERTEX
  8
0
 10
437.223540
 20
606.570387
 42
-0.063445
  0
VERTEX
  8
0
 10
438.423223
 20
609.851529
 42
-0.064824
  0
VERTEX
  8
0
 10
440.396401
 20
612.694549
 42
-0.020215
  0
VERTEX
  8
0
 10
444.043883
 20
616.406722
 42
-0.020629
  0
VERTEX
  8
0
 10
448.284580
 20
620.070284
 42
-0.029960
  0
VERTEX
  8
0
 10
452.333151
 20
622.908095
 42
-0.032927
  0
VERTEX
  8
0
 10
456.536223
 20
625.126391
 42
-0.004047
  0
VERTEX
  8
0
 10
466.058220
 20
629.284181
 42
-0.001958
  0
VERTEX
  8
0
 10
476.161581
 20
633.552094
 42
-0.096317
  0
VERTEX
  8
0
 10
478.285184
 20
633.990822
 42
-0.368317
  0
VERTEX
  8
0
 10
478.491469
 20
633.819138
 42
-0.087961
  0
VERTEX
  8
0
 10
478.489258
 20
633.336367
 42
-0.051181
  0
VERTEX
  8
0
 10
478.279385
 20
632.612845
 42
-0.025745
  0
SEQEND
  0
POLYLINE
  8
0
 66
1
 70
1
  0
VERTEX
  8
0
 10
363.000000
 20
549.273372
 42
0.099570
  0
VERTEX
  8
0
 10
353.944870
 20
542.442947
 42
0.030813
  0
VERTEX
  8
0
 10
343.366739
 20
528.937605
 42
0.030931
  0
VERTEX
  8
0
 10
334.510675
 20
514.196841
 42
0.096135
  0
VERTEX
  8
0
 10
331.238407
 20
503.129344
 42
0.018411
  0
VERTEX
  8
0
 10
331.081712
 20
500.475497
 42
0.063239
  0
VERTEX
  8
0
 10
331.260805
 20
498.762172
 42
0.085236
  0
VERTEX
  8
0
 10
331.823853
 20
497.432372
 42
0.053755
  0
VERTEX
  8
0
 10
332.883924
 20
496.116076
 42
0.042599
  0
VERTEX
  8
0
 10
333.844866
 20
495.306273
 42
0.036291
  0
VERTEX
  8
0
 10
334.980490
 20
494.621597
 42
0.037871
  0
VERTEX
  8
0
 10
336.112576
 20
494.150549
 42
0.079817
  0
VERTEX
  8
0
 10
337.049660
 20
494.000000
 42
0.085973
  0
VERTEX
  8
0
 10
339.294506
 20
494.388866
 42
0.031372
  0
VERTEX
  8
0
 10
342.268635
 20
495.666588
 42
0.029429
  0
VERTEX
  8
0
 10
345.472800
 20
497.532508
 42
0.027801
  0
VERTEX
  8
0
 10
348.500000
 20
499.794699
 42
0.000000
  0
VERTEX
  8
0
 10
351.500000
 20
502.308010
 42
0.000000
  0
VERTEX
  8
0
 10
351.841175
 20
499.904005
 42
0.122550
  0
VERTEX
  8
0
 10
353.299038
 20
496.304884
 42
0.171004
  0
VERTEX
  8
0
 10
356.135406
 20
494.350566
 42
0.140838
  0
VERTEX
  8
0
 10
360.029704
 20
494.409947
 42
0.075430
  0
VERTEX
  8
0
 10
364.404862
 20
496.500000
 42
-0.024932
  0
VERTEX
  8
0
 10
365.978309
 20
497.456862
 42
-0.024003
  0
VERTEX
  8
0
 10
367.658899
 20
498.265625
 42
-0.024734
  0
VERTEX
  8
0
 10
369.206550
 20
498.832439
 42
-0.075546
  0
VERTEX
  8
0
 10
370.309218
 20
499.000000
 42
0.060571
  0
VERTEX
  8
0
 10
371.415853
 20
499.134555
 42
0.020575
  0
VERTEX
  8
0
 10
372.974588
 20
499.588071
 42
0.020114
  0
VERTEX
  8
0
 10
374.671808
 20
500.235646
 42
0.021824
  0
VERTEX
  8
0
 10
376.264809
 20
501.001943
 42
0.000000
  0
VERTEX
  8
0
 10
380.000000
 20
503.003885
 42
0.000000
  0
VERTEX
  8
0
 10
380.000000
 20
499.537126
 42
0.091194
  0
VERTEX
  8
0
 10
380.529739
 20
496.656819
 42
0.172830
  0
VERTEX
  8
0
 10
382.041492
 20
494.883874
 42
0.145456
  0
VERTEX
  8
0
 10
384.554480
 20
494.285962
 42
0.059018
  0
VERTEX
  8
0
 10
388.055394
 20
494.898450
 42
0.127351
  0
VERTEX
  8
0
 10
394.678437
 20
498.908538
 42
0.023020
  0
VERTEX
  8
0
 10
404.322886
 20
509.750942
 42
0.021995
  0
VERTEX
  8
0
 10
412.933642
 20
521.389378
 42
0.149344
  0
VERTEX
  8
0
 10
415.000000
 20
528.153179
 42
0.108755
  0
VERTEX
  8
0
 10
414.464598
 20
530.585571
 42
0.113272
  0
VERTEX
  8
0
 10
412.961136
 20
532.527162
 42
0.115962
  0
VERTEX
  8
0
 10
410.793466
 20
533.588795
 42
0.118153
  0
VERTEX
  8
0
 10
408.395650
 20
533.563166
 42
0.022832
  0
VERTEX
  8
0
 10
407.119270
 20
533.180108
 42
0.133492
  0
VERTEX
  8
0
 10
406.547124
 20
532.786469
 42
0.278459
  0
VERTEX
  8
0
 10
406.472562
 20
532.323239
 42
0.100798
  0
VERTEX
  8
0
 10
406.855355
 20
531.744645
 42
-0.155732
  0
VERTEX
  8
0
 10
407.762440
 20
529.986951
 42
-0.058776
  0
VERTEX
  8
0
 10
407.902367
 20
527.191820
 42
-0.050615
  0
VERTEX
  8
0
 10
407.338273
 20
523.876638
 42
-0.041403
  0
VERTEX
  8
0
 10
406.096347
 20
520.500000
 42
-0.043042
  0
VERTEX
  8
0
 10
401.775354
 20
512.974750
 42
-0.023998
  0
VERTEX
  8
0
 10
395.330902
 20
504.589235
 42
-0.015425
  0
VERTEX
  8
0
 10
388.746268
 20
497.291640
 42
-0.420220
  0
VERTEX
  8
0
 10
386.399046
 20
497.267621
 42
-0.307185
  0
VERTEX
  8
0
 10
386.219802
 20
498.203021
 42
-0.017052
  0
VERTEX
  8
0
 10
387.554430
 20
501.031759
 42
-0.018066
  0
VERTEX
  8
0
 10
389.719459
 20
504.892604
 42
-0.006649
  0
VERTEX
  8
0
 10
393.041177
 20
510.185003
 42
0.016955
  0
VERTEX
  8
0
 10
395.819157
 20
514.820595
 42
0.088469
  0
VERTEX
  8
0
 10
396.778856
 20
517.627026
 42
0.169606
  0
VERTEX
  8
0
 10
396.402315
 20
519.661663
 42
0.110642
  0
VERTEX
  8
0
 10
394.777494
 20
521.443296
 42
0.033109
  0
VERTEX
  8
0
 10
392.726686
 20
522.686083
 42
0.235851
  0
VERTEX
  8
0
 10
391.599583
 20
522.703429
 42
0.161631
  0
VERTEX
  8
0
 10
390.650508
 20
521.786197
 42
0.014295
  0
VERTEX
  8
0
 10
389.171178
 20
518.750000
 42
-0.042053
  0
VERTEX
  8
0
 10
387.127965
 20
515.087332
 42
-0.028247
  0
VERTEX
  8
0
 10
384.228310
 20
511.268147
 42
-0.027318
  0
VERTEX
  8
0
 10
380.774361
 20
507.637675
 42
-0.030263
  0
VERTEX
  8
0
 10
377.055720
 20
504.536017
 42
-0.018034
  0
VERTEX
  8
0
 10
373.411934
 20
502.050597
 42
-0.483632
  0
VERTEX
  8
0
 10
372.448059
 20
502.389810
 42
-0.224239
  0
VERTEX
  8
0
 10
372.620071
 20
503.951425
 42
-0.009954
  0
VERTEX
  8
0
 10
375.638824
 20
508.652865
 42
0.011479
  0
VERTEX
  8
0
 10
377.994465
 20
512.346302
 42
0.043088
  0
VERTEX
  8
0
 10
379.210661
 20
514.809299
 42
0.062852
  0
VERTEX
  8
0
 10
379.744828
 20
516.927732
 42
0.049144
  0
VERTEX
  8
0
 10
379.800028
 20
519.301020
 42
0.059098
  0
VERTEX
  8
0
 10
379.199962
 20
522.371248
 42
0.161802
  0
VERTEX
  8
0
 10
377.910919
 20
524.132178
 42
0.151769
  0
VERTEX
  8
0
 10
375.762034
 20
524.836756
 42
0.050094
  0
VERTEX
  8
0
 10
372.413241
 20
524.553081
 42
0.049712
  0
VERTEX
  8
0
 10
370.377432
 20
523.958953
 42
0.044966
  0
VERTEX
  8
0
 10
368.424986
 20
522.959390
 42
0.038524
  0
VERTEX
  8
0
 10
366.432188
 20
521.475520
 42
0.022236
  0
VERTEX
  8
0
 10
364.266825
 20
519.411166
 42
-0.010230
  0
VERTEX
  8
0
 10
362.577340
 20
517.721250
 42
-0.014553
  0
VERTEX
  8
0
 10
361.003471
 20
516.295780
 42
-0.010486
  0
VERTEX
  8
0
 10
359.652469
 20
515.190064
 42
-0.167777
  0
VERTEX
  8
0
 10
359.101993
 20
515.000000
 42
0.197641
  0
VERTEX
  8
0
 10
358.574647
 20
514.783076
 42
0.011800
  0
VERTEX
  8
0
 10
357.356418
 20
513.518401
 42
0.016279
  0
VERTEX
  8
0
 10
355.954103
 20
511.888692
 42
0.011190
  0
VERTEX
  8
0
 10
354.467891
 20
509.956258
 42
-0.034990
  0
VERTEX
  8
0
 10
350.743054
 20
505.562387
 42
-0.032653
  0
VERTEX
  8
0
 10
346.359600
 20
501.620691
 42
-0.031427
  0
VERTEX
  8
0
 10
342.188601
 20
498.740943
 42
-0.172650
  0
VERTEX
  8
0
 10
339.549517
 20
498.207330
 42
-0.079655
  0
VERTEX
  8
0
 10
338.520519
 20
498.527214
 42
-0.170332
  0
VERTEX
  8
0
 10
337.946971
 20
499.115164
 42
-0.107380
  0
VERTEX
  8
0
 10
337.715943
 20
500.140431
 42
-0.022185
  0
VERTEX
  8
0
 10
337.784186
 20
502.000609
 42
-0.083184
  0
VERTEX
  8
0
 10
338.718259
 20
505.704785
 42
-0.029220
  0
VERTEX
  8
0
 10
341.217482
 20
510.607507
 42
-0.029080
  0
VERTEX
  8
0
 10
344.258414
 20
515.168984
 42
-0.087545
  0
VERTEX
  8
0
 10
346.984841
 20
517.708981
 42
0.050524
  0
VERTEX
  8
0
 10
353.815811
 20
523.191576
 42
0.017542
  0
VERTEX
  8
0
 10
362.513029
 20
532.371094
 42
0.011822
  0
VERTEX
  8
0
 10
370.553025
 20
541.922269
 42
0.170643
  0
VERTEX
  8
0
 10
372.000000
 20
546.038580
 42
0.116577
  0
VERTEX
  8
0
 10
371.624972
 20
547.625228
 42
0.063744
  0
VERTEX
  8
0
 10
370.504251
 20
549.293540
 42
0.065200
  0
VERTEX
  8
0
 10
369.049499
 20
550.573939
 42
0.153909
  0
VERTEX
  8
0
 10
367.678571
 20
550.977230
 42
0.070274
  0
VERTEX
  8
0
 10
367.016670
 20
550.870661
 42
0.012326
  0
VERTEX
  8
0
 10
365.818080
 20
550.467329
 42
0.013154
  0
VERTEX
  8
0
 10
364.426411
 20
549.918631
 42
0.011477
  0
SEQEND
  0
POLYLINE
  8
0
 66
1
 70
1
  0
VERTEX
  8
0
 10
369.000000
 20
545.065512
 42
-0.151351
  0
VERTEX
  8
0
 10
368.811733
 20
544.457804
 42
-0.004541
  0
VERTEX
  8
0
 10
367.273511
 20
542.256598
 42
-0.008639
  0
VERTEX
  8
0
 10
365.374758
 20
539.686500
 42
-0.005815
  0
VERTEX
  8
0
 10
363.122589
 20
536.815512
 42
-0.012494
  0
VERTEX
  8
0
 10
358.335977
 20
531.153457
 42
-0.012270
  0
VERTEX
  8
0
 10
353.244335
 20
525.702564
 42
-0.006834
  0
VERTEX
  8
0
 10
348.635816
 20
521.132079
 42
-0.661757
  0
VERTEX
  8
0
 10
348.000000
 20
521.402101
 42
-0.158044
  0
VERTEX
  8
0
 10
348.556690
 20
523.119295
 42
-0.003723
  0
VERTEX
  8
0
 10
353.635865
 20
530.020970
 42
-0.008962
  0
VERTEX
  8
0
 10
358.788544
 20
536.662747
 42
-0.022610
  0
VERTEX
  8
0
 10
362.835842
 20
541.250000
 42
-0.009557
  0
VERTEX
  8
0
 10
365.814237
 20
544.217255
 42
-0.052586
  0
VERTEX
  8
0
 10
367.603715
 20
545.604174
 42
-0.222862
  0
VERTEX
  8
0
 10
368.534339
 20
545.712334
 42
-0.322519
  0
SEQEND
  0
POLYLINE
  8
0
 66
1
 70
1
  0
VERTEX
  8
0
 10
376.823738
 20
520.139719
 42
-0.118531
  0
VERTEX
  8
0
 10
376.582940
 20
517.474202
 42
-0.032248
  0
VERTEX
  8
0
 10
374.961177
 20
513.534776
 42
-0.031567
  0
VERTEX
  8
0
 10
372.537726
 20
509.283593
 42
-0.032907
  0
VERTEX
  8
0
 10
369.628657
 20
505.433151
 42
-0.005632
  0
VERTEX
  8
0
 10
367.378103
 20
502.888164
 42
-0.125257
  0
VERTEX
  8
0
 10
366.562667
 20
502.346617
 42
-0.324899
  0
VERTEX
  8
0
 10
365.922362
 20
502.538572
 42
-0.039986
  0
VERTEX
  8
0
 10
365.085030
 20
503.841120
 42
-0.154216
  0
VERTEX
  8
0
 10
364.524475
 20
506.830295
 42
-0.053207
  0
VERTEX
  8
0
 10
365.525197
 20
511.163547
 42
-0.049631
  0
VERTEX
  8
0
 10
367.640699
 20
515.746554
 42
-0.056184
  0
VERTEX
  8
0
 10
370.546976
 20
519.618487
 42
-0.034298
  0
VERTEX
  8
0
 10
373.023244
 20
521.907363
 42
-0.149773
  0
VERTEX
  8
0
 10
374.854586
 20
522.639223
 42
-0.276097
  0
VERTEX
  8
0
 10
376.113089
 20
522.022083
 42
-0.107976
  0
SEQEND
  0
POLYLINE
  8
0
 66
1
 70
1
  0
VERTEX
  8
0
 10
362.384990
 20
501.535184
 42
-0.016822
  0
VERTEX
  8
0
 10
363.317860
 20
500.001266
 42
-0.163677
  0
VERTEX
  8
0
 10
363.458149
 20
499.264988
 42
-0.209068
  0
VERTEX
  8
0
 10
363.105268
 20
498.687346
 42
-0.029710
  0
VERTEX
  8
0
 10
361.892640
 20
497.942543
 42
-0.094308
  0
VERTEX
  8
0
 10
359.958727
 20
497.337234
 42
-0.246726
  0
VERTEX
  8
0
 10
358.641756
 20
497.845785
 42
-0.214016
  0
VERTEX
  8
0
 10
358.193263
 20
499.312115
 42
-0.075815
  0
VERTEX
  8
0
 10
358.805687
 20
501.472874
 42
-0.015652
  0
VERTEX
  8
0
 10
359.785820
 20
503.456995
 42
-0.272258
  0
VERTEX
  8
0
 10
360.376766
 20
503.818525
 42
-0.243772
  0
VERTEX
  8
0
 10
361.026483
 20
503.495967
 42
-0.012933
  0
SEQEND
  0
POLYLINE
  8
0
 66
1
 70
1
  0
VERTEX
  8
0
 10
167.586008
 20
532.884437
 42
0.019542
  0
VERTEX
  8
0
 10
165.532064
 20
530.412140
 42
0.030597
  0
VERTEX
  8
0
 10
163.987381
 20
528.119915
 42
0.035957
  0
VERTEX
  8
0
 10
162.937986
 20
526.001429
 42
0.057432
  0
VERTEX
  8
0
 10
162.393380
 20
524.058601
 42
-0.120347
  0
VERTEX
  8
0
 10
160.163245
 20
518.755850
 42
-0.024709
  0
VERTEX
  8
0
 10
153.674672
 20
510.846786
 42
-0.021756
  0
VERTEX
  8
0
 10
146.525702
 20
503.619759
 42
-0.189035
  0
VERTEX
  8
0
 10
142.394516
 20
502.000000
 42
-0.524465
  0
VERTEX
  8
0
 10
142.152861
 20
502.349657
 42
-0.023107
  0
VERTEX
  8
0
 10
142.845550
 20
503.954279
 42
-0.022371
  0
VERTEX
  8
0
 10
144.013386
 20
506.099841
 42
-0.011878
  0
VERTEX
  8
0
 10
145.638824
 20
508.652865
 42
0.011479
  0
VERTEX
  8
0
 10
147.994465
 20
512.346302
 42
0.043088
  0
VERTEX
  8
0
 10
149.210661
 20
514.809299
 42
0.062852
  0
VERTEX
  8
0
 10
149.744828
 20
516.927732
 42
0.049144
  0
VERTEX
  8
0
 10
149.800028
 20
519.301020
 42
0.059098
  0
VERTEX
  8
0
 10
149.199962
 20
522.371248
 42
0.161802
  0
VERTEX
  8
0
 10
147.910919
 20
524.132178
 42
0.151769
  0
VERTEX
  8
0
 10
145.762034
 20
524.836756
 42
0.050094
  0
VERTEX
  8
0
 10
142.413241
 20
524.553081
 42
0.049712
  0
VERTEX
  8
0
 10
140.377432
 20
523.958953
 42
0.044966
  0
VERTEX
  8
0
 10
138.424986
 20
522.959390
 42
0.038524
  0
VERTEX
  8
0
 10
136.432188
 20
521.475520
 42
0.022236
  0
VERTEX
  8
0
 10
134.266825
 20
519.411166
 42
-0.010230
  0
VERTEX
  8
0
 10
132.577340
 20
517.721250
 42
-0.014553
  0
VERTEX
  8
0
 10
131.003471
 20
516.295780
 42
-0.010486
  0
VERTEX
  8
0
 10
129.652469
 20
515.190064
 42
-0.167777
  0
VERTEX
  8
0
 10
129.101993
 20
515.000000
 42
0.196894
  0
VERTEX
  8
0
 10
128.575818
 20
514.784442
 42
0.012099
  0
VERTEX
  8
0
 10
127.374388
 20
513.542881
 42
0.016512
  0
VERTEX
  8
0
 10
125.991833
 20
511.940075
 42
0.011377
  0
VERTEX
  8
0
 10
124.529065
 20
510.039594
 42
-0.027133
  0
VERTEX
  8
0
 10
121.611882
 20
506.486841
 42
-0.024185
  0
VERTEX
  8
0
 10
118.218149
 20
503.124807
 42
-0.024956
  0
VERTEX
  8
0
 10
114.665687
 20
500.237681
 42
-0.037436
  0
VERTEX
  8
0
 10
111.276928
 20
498.123922
 42
-0.512144
  0
VERTEX
  8
0
 10
110.749378
 20
498.387774
 42
-0.145218
  0
VERTEX
  8
0
 10
110.889836
 20
499.478941
 42
-0.027011
  0
VERTEX
  8
0
 10
112.325460
 20
502.302036
 42
-0.004146
  0
VERTEX
  8
0
 10
115.525414
 20
507.729228
 42
0.004492
  0
VERTEX
  8
0
 10
118.005343
 20
511.941910
 42
0.006654
  0
VERTEX
  8
0
 10
120.096397
 20
515.682291
 42
0.003303
  0
VERTEX
  8
0
 10
121.800927
 20
518.879116
 42
0.121076
  0
VERTEX
  8
0
 10
121.998486
 20
519.678571
 42
0.289333
  0
VERTEX
  8
0
 10
120.165795
 20
522.588807
 42
0.100532
  0
VERTEX
  8
0
 10
115.137951
 20
523.846523
 42
0.076710
  0
VERTEX
  8
0
 10
108.691031
 20
523.144990
 42
0.086339
  0
VERTEX
  8
0
 10
103.039204
 20
520.527169
 42
0.069561
  0
VERTEX
  8
0
 10
97.762195
 20
515.661041
 42
0.048737
  0
VERTEX
  8
0
 10
93.259807
 20
508.930604
 42
0.050210
  0
VERTEX
  8
0
 10
90.432154
 20
502.087732
 42
0.150842
  0
VERTEX
  8
0
 10
90.471669
 20
497.089263
 42
0.143460
  0
VERTEX
  8
0
 10
91.548436
 20
495.489080
 42
0.105654
  0
VERTEX
  8
0
 10
93.450904
 20
494.491402
 42
0.095871
  0
VERTEX
  8
0
 10
95.764165
 20
494.302913
 42
0.095676
  0
VERTEX
  8
0
 10
97.982553
 20
494.990663
 42
-0.007122
  0
VERTEX
  8
0
 10
99.320506
 20
495.682383
 42
-0.276083
  0
VERTEX
  8
0
 10
99.642092
 20
495.657949
 42
-0.367404
  0
VERTEX
  8
0
 10
99.712109
 20
495.386038
 42
-0.009808
  0
VERTEX
  8
0
 10
99.105890
 20
494.197857
 42
-0.133619
  0
VERTEX
  8
0
 10
98.125481
 20
493.160250
 42
-0.020804
  0
VERTEX
  8
0
 10
95.634878
 20
491.778641
 42
-0.019386
  0
VERTEX
  8
0
 10
92.200972
 20
490.219974
 42
-0.009891
  0
VERTEX
  8
0
 10
87.780196
 20
488.517782
 42
0.019124
  0
VERTEX
  8
0
 10
71.178839
 20
481.771072
 42
0.056027
  0
VERTEX
  8
0
 10
60.578301
 20
475.471629
 42
0.082657
  0
VERTEX
  8
0
 10
54.085718
 20
468.609512
 42
0.095365
  0
VERTEX
  8
0
 10
50.560961
 20
460.333679
 42
0.074011
  0
VERTEX
  8
0
 10
50.339080
 20
456.910931
 42
0.049473
  0
VERTEX
  8
0
 10
51.050410
 20
453.043238
 42
0.050783
  0
VERTEX
  8
0
 10
52.434159
 20
449.601050
 42
0.119585
  0
VERTEX
  8
0
 10
54.251192
 20
447.536612
 42
0.112590
  0
VERTEX
  8
0
 10
57.233684
 20
446.321866
 42
0.053159
  0
VERTEX
  8
0
 10
61.406379
 20
446.086594
 42
0.048607
  0
VERTEX
  8
0
 10
66.052189
 20
446.774638
 42
0.047949
  0
VERTEX
  8
0
 10
70.500152
 20
448.348008
 42
0.072206
  0
VERTEX
  8
0
 10
76.171897
 20
452.063788
 42
0.027918
  0
VERTEX
  8
0
 10
82.870632
 20
458.690118
 42
0.025836
  0
VERTEX
  8
0
 10
89.728903
 20
467.113298
 42
0.022739
  0
VERTEX
  8
0
 10
96.000000
 20
476.556438
 42
-0.011521
  0
VERTEX
  8
0
 10
101.005531
 20
484.473598
 42
-0.038666
  0
VERTEX
  8
0
 10
104.784300
 20
489.301272
 42
-0.044147
  0
VERTEX
  8
0
 10
108.990055
 20
493.150335
 42
-0.018606
  0
VERTEX
  8
0
 10
115.250000
 20
497.578849
 42
-0.003528
  0
VERTEX
  8
0
 10
119.591974
 20
500.370721
 42
-0.066821
  0
VERTEX
  8
0
 10
121.057087
 20
501.044313
 42
-0.361928
  0
VERTEX
  8
0
 10
121.727633
 20
500.763154
 42
-0.120387
  0
VERTEX
  8
0
 10
122.000000
 20
499.648336
 42
0.114579
  0
VERTEX
  8
0
 10
122.486899
 20
497.551493
 42
0.093958
  0
VERTEX
  8
0
 10
123.870667
 20
495.707195
 42
0.090268
  0
VERTEX
  8
0
 10
125.890648
 20
494.441633
 42
0.095197
  0
VERTEX
  8
0
 10
128.189194
 20
494.000000
 42
0.069523
  0
VERTEX
  8
0
 10
129.415931
 20
494.171402
 42
0.026197
  0
VERTEX
  8
0
 10
131.059378
 20
494.734375
 42
0.025344
  0
VERTEX
  8
0
 10
132.808525
 20
495.543114
 42
0.028124
  0
VERTEX
  8
0
 10
134.404862
 20
496.500000
 42
-0.023196
  0
VERTEX
  8
0
 10
135.966090
 20
497.456872
 42
-0.023154
  0
VERTEX
  8
0
 10
137.610154
 20
498.265625
 42
-0.023746
  0
VERTEX
  8
0
 10
139.107519
 20
498.835027
 42
-0.079140
  0
VERTEX
  8
0
 10
140.143280
 20
499.000000
 42
0.099758
  0
VERTEX
  8
0
 10
143.433497
 20
499.663047
 42
0.051348
  0
VERTEX
  8
0
 10
147.136139
 20
501.687352
 42
0.038613
  0
VERTEX
  8
0
 10
151.362902
 20
505.106166
 42
0.018152
  0
VERTEX
  8
0
 10
156.293994
 20
510.118830
 42
-0.009535
  0
VERTEX
  8
0
 10
159.321811
 20
513.304730
 42
-0.021283
  0
VERTEX
  8
0
 10
161.768942
 20
515.580837
 42
-0.019948
  0
VERTEX
  8
0
 10
163.670489
 20
517.077325
 42
-0.368506
  0
VERTEX
  8
0
 10
164.378951
 20
517.021049
 42
-0.270681
  0
VERTEX
  8
0
 10
164.581738
 20
516.248518
 42
-0.019506
  0
VERTEX
  8
0
 10
163.878015
 20
514.059121
 42
-0.021091
  0
VERTEX
  8
0
 10
162.694923
 20
511.198652
 42
-0.010159
  0
VERTEX
  8
0
 10
160.952366
 20
507.633878
 42
0.006446
  0
VERTEX
  8
0
 10
158.505899
 20
502.721891
 42
0.042398
  0
VERTEX
  8
0
 10
157.527080
 20
500.156188
 42
0.087331
  0
VERTEX
  8
0
 10
157.334696
 20
498.339264
 42
0.089941
  0
VERTEX
  8
0
 10
157.778910
 20
496.585895
 42
0.169415
  0
VERTEX
  8
0
 10
159.784523
 20
494.489078
 42
0.179139
  0
VERTEX
  8
0
 10
162.607180
 20
494.155983
 42
0.096527
  0
VERTEX
  8
0
 10
166.402030
 20
495.894132
 42
0.030640
  0
VERTEX
  8
0
 10
171.250000
 20
499.840452
 42
0.000000
  0
VERTEX
  8
0
 10
174.000000
 20
502.374182
 42
0.000000
  0
VERTEX
  8
0
 10
174.000000
 20
499.758520
 42
0.108871
  0
VERTEX
  8
0
 10
174.656841
 20
496.777675
 42
0.154985
  0
VERTEX
  8
0
 10
176.475138
 20
494.791497
 42
0.151703
  0
VERTEX
  8
0
 10
179.139037
 20
494.193384
 42
0.103151
  0
VERTEX
  8
0
 10
182.141435
 20
495.075694
 42
-0.008746
  0
VERTEX
  8
0
 10
183.350531
 20
495.695826
 42
-0.307921
  0
VERTEX
  8
0
 10
183.649131
 20
495.653442
 42
-0.332944
  0
VERTEX
  8
0
 10
183.703843
 20
495.368308
 42
-0.009544
  0
VERTEX
  8
0
 10
183.105890
 20
494.197857
 42
-0.133619
  0
VERTEX
  8
0
 10
182.125481
 20
493.160250
 42
-0.020804
  0
VERTEX
  8
0
 10
179.634878
 20
491.778641
 42
-0.019386
  0
VERTEX
  8
0
 10
176.200972
 20
490.219974
 42
-0.009891
  0
VERTEX
  8
0
 10
171.780196
 20
488.517782
 42
0.019124
  0
VERTEX
  8
0
 10
155.178839
 20
481.771072
 42
0.056027
  0
VERTEX
  8
0
 10
144.578301
 20
475.471629
 42
0.082657
  0
VERTEX
  8
0
 10
138.085718
 20
468.609512
 42
0.095365
  0
VERTEX
  8
0
 10
134.560961
 20
460.333679
 42
0.074011
  0
VERTEX
  8
0
 10
134.339080
 20
456.910931
 42
0.049473
  0
VERTEX
  8
0
 10
135.050410
 20
453.043238
 42
0.050783
  0
VERTEX
  8
0
 10
136.434159
 20
449.601050
 42
0.119585
  0
VERTEX
  8
0
 10
138.251192
 20
447.536612
 42
0.112590
  0
VERTEX
  8
0
 10
141.233684
 20
446.321866
 42
0.053159
  0
VERTEX
  8
0
 10
145.406379
 20
446.086594
 42
0.048607
  0
VERTEX
  8
0
 10
150.052189
 20
446.774638
 42
0.047949
  0
VERTEX
  8
0
 10
154.500152
 20
448.348008
 42
0.072206
  0
VERTEX
  8
0
 10
160.171897
 20
452.063788
 42
0.027918
  0
VERTEX
  8
0
 10
166.870632
 20
458.690118
 42
0.025836
  0
VERTEX
  8
0
 10
173.728903
 20
467.113298
 42
0.022739
  0
VERTEX
  8
0
 10
180.000000
 20
476.556438
 42
-0.011521
  0
VERTEX
  8
0
 10
185.005531
 20
484.473598
 42
-0.038666
  0
VERTEX
  8
0
 10
188.784300
 20
489.301272
 42
-0.044147
  0
VERTEX
  8
0
 10
192.990055
 20
493.150335
 42
-0.018606
  0
VERTEX
  8
0
 10
199.250000
 20
497.578849
 42
-0.003222
  0
VERTEX
  8
0
 10
203.697920
 20
500.442689
 42
-0.070485
  0
VERTEX
  8
0
 10
205.105204
 20
501.079374
 42
-0.380613
  0
VERTEX
  8
0
 10
205.752124
 20
500.772255
 42
-0.100384
  0
VERTEX
  8
0
 10
206.000000
 20
499.550052
 42
0.133217
  0
VERTEX
  8
0
 10
206.543977
 20
497.544591
 42
0.088680
  0
VERTEX
  8
0
 10
208.099200
 20
495.722874
 42
0.082275
  0
VERTEX
  8
0
 10
210.318007
 20
494.443399
 42
0.089965
  0
VERTEX
  8
0
 10
212.762344
 20
494.000000
 42
0.087533
  0
VERTEX
  8
0
 10
215.433061
 20
494.471162
 42
0.033848
  0
VERTEX
  8
0
 10
218.882684
 20
495.998912
 42
0.033596
  0
VERTEX
  8
0
 10
222.294050
 20
498.098662
 42
0.050272
  0
VERTEX
  8
0
 10
224.924314
 20
500.402682
 42
-0.020319
  0
VERTEX
  8
0
 10
227.001268
 20
502.454062
 42
-0.202520
  0
VERTEX
  8
0
 10
228.129898
 20
502.851949
 42
-0.345919
  0
VERTEX
  8
0
 10
228.813625
 20
502.244037
 42
-0.044519
  0
VERTEX
  8
0
 10
229.000000
 20
500.154988
 42
0.144158
  0
VERTEX
  8
0
 10
230.066086
 20
496.534211
 42
0.179794
  0
VERTEX
  8
0
 10
232.854101
 20
494.448338
 42
0.140757
  0
VERTEX
  8
0
 10
236.924098
 20
494.420431
 42
0.081029
  0
VERTEX
  8
0
 10
241.404862
 20
496.500000
 42
-0.021456
  0
VERTEX
  8
0
 10
242.954013
 20
497.456897
 42
-0.022213
  0
VERTEX
  8
0
 10
244.561988
 20
498.265625
 42
-0.022603
  0
VERTEX
  8
0
 10
246.010359
 20
498.838064
 42
-0.082987
  0
VERTEX
  8
0
 10
246.979309
 20
499.000000
 42
0.036829
  0
VERTEX
  8
0
 10
247.880606
 20
499.066477
 42
0.016519
  0
VERTEX
  8
0
 10
249.049823
 20
499.279581
 42
0.016250
  0
VERTEX
  8
0
 10
250.276288
 20
499.587288
 42
0.021255
  0
VERTEX
  8
0
 10
251.373132
 20
499.951765
 42
-0.026377
  0
VERTEX
  8
0
 10
252.820815
 20
500.416423
 42
-0.199528
  0
VERTEX
  8
0
 10
253.517175
 20
500.321099
 42
-0.205183
  0
VERTEX
  8
0
 10
253.929574
 20
499.762694
 42
-0.028025
  0
VERTEX
  8
0
 10
254.188232
 20
498.302627
 42
0.163789
  0
VERTEX
  8
0
 10
255.628857
 20
495.274004
 42
0.212721
  0
VERTEX
  8
0
 10
258.447463
 20
494.138685
 42
0.125299
  0
VERTEX
  8
0
 10
262.489004
 20
495.325305
 42
0.050000
  0
VERTEX
  8
0
 10
267.171469
 20
498.773877
 42
-0.005574
  0
VERTEX
  8
0
 10
269.438780
 20
500.776809
 42
-0.074132
  0
VERTEX
  8
0
 10
270.377465
 20
501.371119
 42
-0.526862
  0
VERTEX
  8
0
 10
270.706029
 20
501.168144
 42
-0.088968
  0
VERTEX
  8
0
 10
270.590859
 20
500.286270
 42
0.104418
  0
VERTEX
  8
0
 10
270.377169
 20
498.140284
 42
0.099946
  0
VERTEX
  8
0
 10
271.041040
 20
496.053915
 42
0.110839
  0
VERTEX
  8
0
 10
272.384959
 20
494.546348
 42
0.156753
  0
VERTEX
  8
0
 10
274.084844
 20
494.000000
 42
0.137167
  0
VERTEX
  8
0
 10
277.970874
 20
495.086516
 42
0.047401
  0
VERTEX
  8
0
 10
282.689023
 20
498.599375
 42
0.032978
  0
VERTEX
  8
0
 10
288.445423
 20
504.534251
 42
0.012295
  0
VERTEX
  8
0
 10
295.748664
 20
513.572675
 42
0.000000
  0
VERTEX
  8
0
 10
297.997327
 20
516.500000
 42
0.000000
  0
VERTEX
  8
0
 10
297.398115
 20
512.500000
 42
-0.046277
  0
VERTEX
  8
0
 10
295.927976
 20
506.523184
 42
-0.086220
  0
VERTEX
  8
0
 10
293.519039
 20
502.172665
 42
-0.100762
  0
VERTEX
  8
0
 10
290.081905
 20
499.322874
 42
-0.083695
  0
VERTEX
  8
0
 10
285.571407
 20
497.806090
 42
0.019427
  0
VERTEX
  8
0
 10
284.410996
 20
497.575393
 42
0.322829
  0
VERTEX
  8
0
 10
284.168325
 20
497.293729
 42
0.211436
  0
VERTEX
  8
0
 10
284.312575
 20
496.872735
 42
0.009642
  0
VERTEX
  8
0
 10
285.392836
 20
495.750000
 42
0.140276
  0
VERTEX
  8
0
 10
287.838559
 20
494.392673
 42
0.068567
  0
VERTEX
  8
0
 10
291.420357
 20
494.065808
 42
0.058469
  0
VERTEX
  8
0
 10
295.598942
 20
494.751814
 42
0.047410
  0
VERTEX
  8
0
 10
299.828887
 20
496.413291
 42
0.054161
  0
VERTEX
  8
0
 10
305.124674
 20
499.862073
 42
0.028469
  0
VERTEX
  8
0
 10
310.920028
 20
505.179098
 42
0.020754
  0
VERTEX
  8
0
 10
315.753269
 20
510.579954
 42
0.386107
  0
VERTEX
  8
0
 10
315.651337
 20
512.681996
 42
0.374859
  0
VERTEX
  8
0
 10
315.194539
 20
512.713154
 42
0.010460
  0
VERTEX
  8
0
 10
313.520032
 20
511.386218
 42
0.016519
  0
VERTEX
  8
0
 10
311.521180
 20
509.618661
 42
0.009965
  0
VERTEX
  8
0
 10
309.265879
 20
507.400788
 42
0.000000
  0
VERTEX
  8
0
 10
303.500000
 20
501.500000
 42
0.000000
  0
VERTEX
  8
0
 10
303.208510
 20
509.814834
 42
-0.030197
  0
VERTEX
  8
0
 10
303.372580
 20
516.290031
 42
-0.087138
  0
VERTEX
  8
0
 10
304.520410
 20
520.612757
 42
-0.092321
  0
VERTEX
  8
0
 10
307.027483
 20
524.143134
 42
-0.036610
  0
VERTEX
  8
0
 10
311.610006
 20
527.971616
 42
0.000000
  0
VERTEX
  8
0
 10
316.303475
 20
531.342211
 42
0.000000
  0
VERTEX
  8
0
 10
313.595974
 20
533.671105
 42
0.014614
  0
VERTEX
  8
0
 10
312.495737
 20
534.562898
 42
0.018634
  0
VERTEX
  8
0
 10
311.428970
 20
535.315887
 42
0.016804
  0
VERTEX
  8
0
 10
310.507098
 20
535.873231
 42
0.128240
  0
VERTEX
  8
0
 10
310.020962
 20
536.000000
 42
0.176243
  0
VERTEX
  8
0
 10
308.246478
 20
535.354468
 42
0.029804
  0
VERTEX
  8
0
 10
305.582534
 20
532.835682
 42
0.032178
  0
VERTEX
  8
0
 10
302.931096
 20
529.619687
 42
0.039749
  0
VERTEX
  8
0
 10
300.915826
 20
526.300640
 42
-0.043683
  0
VERTEX
  8
0
 10
296.250209
 20
518.750897
 42
-0.015770
  0
VERTEX
  8
0
 10
288.385966
 20
508.872985
 42
-0.008787
  0
VERTEX
  8
0
 10
280.048706
 20
499.395792
 42
-0.210981
  0
VERTEX
  8
0
 10
276.888091
 20
498.000000
 42
-0.519414
  0
VERTEX
  8
0
 10
276.455326
 20
498.615671
 42
-0.042976
  0
VERTEX
  8
0
 10
277.424746
 20
500.722032
 42
-0.022439
  0
VERTEX
  8
0
 10
279.632982
 20
504.227840
 42
-0.005286
  0
VERTEX
  8
0
 10
283.643839
 20
509.875308
 42
0.019571
  0
VERTEX
  8
0
 10
287.130549
 20
515.094368
 42
0.073667
  0
VERTEX
  8
0
 10
288.668795
 20
518.704754
 42
0.149310
  0
VERTEX
  8
0
 10
288.566595
 20
521.212591
 42
0.187719
  0
VERTEX
  8
0
 10
287.065741
 20
522.964816
 42
0.058203
  0
VERTEX
  8
0
 10
285.101990
 20
523.738077
 42
0.222770
  0
VERTEX
  8
0
 10
283.841838
 20
523.509373
 42
0.108571
  0
VERTEX
  8
0
 10
282.664754
 20
522.211372
 42
0.009692
  0
VERTEX
  8
0
 10
280.536529
 20
518.324050
 42
-0.039651
  0
VERTEX
  8
0
 10
277.298696
 20
513.168604
 42
-0.020846
  0
VERTEX
  8
0
 10
272.527452
 20
507.289252
 42
-0.019831
  0
VERTEX
  8
0
 10
267.539522
 20
502.073469
 42
-0.072833
  0
VERTEX
  8
0
 10
263.838964
 20
499.416725
 42
-0.125650
  0
VERTEX
  8
0
 10
261.822335
 20
498.950368
 42
-0.500608
  0
VERTEX
  8
0
 10
261.199393
 20
499.823316
 42
-0.067437
  0
VERTEX
  8
0
 10
262.631290
 20
502.840252
 42
-0.007087
  0
VERTEX
  8
0
 10
267.000000
 20
509.337162
 42
0.006785
  0
VERTEX
  8
0
 10
269.298704
 20
512.751220
 42
0.009695
  0
VERTEX
  8
0
 10
271.237500
 20
515.846218
 42
0.006082
  0
VERTEX
  8
0
 10
272.771854
 20
518.476546
 42
0.129697
  0
VERTEX
  8
0
 10
273.000000
 20
519.341284
 42
0.155130
  0
VERTEX
  8
0
 10
272.559100
 20
520.728154
 42
0.054028
  0
VERTEX
  8
0
 10
271.154912
 20
522.317695
 42
0.053914
  0
VERTEX
  8
0
 10
269.413127
 20
523.591820
 42
0.131713
  0
VERTEX
  8
0
 10
267.890497
 20
524.000000
 42
0.164092
  0
VERTEX
  8
0
 10
267.251163
 20
523.784375
 42
0.054280
  0
VERTEX
  8
0
 10
266.522837
 20
523.093488
 42
0.047195
  0
VERTEX
  8
0
 10
265.826466
 20
522.095007
 42
0.038458
  0
VERTEX
  8
0
 10
265.273642
 20
520.914003
 42
-0.050487
  0
VERTEX
  8
0
 10
262.189499
 20
514.717310
 42
-0.034846
  0
VERTEX
  8
0
 10
257.553825
 20
508.390836
 42
-0.032118
  0
VERTEX
  8
0
 10
252.670772
 20
503.317018
 42
-0.187228
  0
VERTEX
  8
0
 10
249.276916
 20
502.000000
 42
-0.534747
  0
VERTEX
  8
0
 10
249.061432
 20
502.322751
 42
-0.018620
  0
VERTEX
  8
0
 10
249.811005
 20
503.954279
 42
-0.019979
  0
VERTEX
  8
0
 10
251.005208
 20
506.100013
 42
-0.010724
  0
VERTEX
  8
0
 10
252.638824
 20
508.652865
 42
0.011479
  0
VERTEX
  8
0
 10
254.994465
 20
512.346302
 42
0.043088
  0
VERTEX
  8
0
 10
256.210661
 20
514.809299
 42
0.062852
  0
VERTEX
  8
0
 10
256.744828
 20
516.927732
 42
0.049144
  0
VERTEX
  8
0
 10
256.800028
 20
519.301020
 42
0.059098
  0
VERTEX
  8
0
 10
256.199962
 20
522.371248
 42
0.161802
  0
VERTEX
  8
0
 10
254.910919
 20
524.132178
 42
0.151769
  0
VERTEX
  8
0
 10
252.762034
 20
524.836756
 42
0.050094
  0
VERTEX
  8
0
 10
249.413241
 20
524.553081
 42
0.049712
  0
VERTEX
  8
0
 10
247.377432
 20
523.958953
 42
0.044966
  0
VERTEX
  8
0
 10
245.424986
 20
522.959390
 42
0.038524
  0
VERTEX
  8
0
 10
243.432188
 20
521.475520
 42
0.022236
  0
VERTEX
  8
0
 10
241.266825
 20
519.411166
 42
-0.010410
  0
VERTEX
  8
0
 10
239.576151
 20
517.721274
 42
-0.014768
  0
VERTEX
  8
0
 10
237.998625
 20
516.295780
 42
-0.010758
  0
VERTEX
  8
0
 10
236.644262
 20
515.192094
 42
-0.167093
  0
VERTEX
  8
0
 10
236.085498
 20
515.000000
 42
0.187014
  0
VERTEX
  8
0
 10
235.517006
 20
514.779662
 42
0.007788
  0
VERTEX
  8
0
 10
233.903143
 20
513.260785
 42
0.012567
  0
VERTEX
  8
0
 10
232.029662
 20
511.347939
 42
0.008502
  0
VERTEX
  8
0
 10
229.987651
 20
509.079269
 42
-0.022944
  0
VERTEX
  8
0
 10
225.579057
 20
504.456994
 42
-0.035936
  0
VERTEX
  8
0
 10
221.348135
 20
500.955555
 42
-0.042925
  0
VERTEX
  8
0
 10
217.534565
 20
498.702141
 42
-0.112445
  0
VERTEX
  8
0
 10
214.451889
 20
498.000000
 42
-0.035049
  0
VERTEX
  8
0
 10
213.137008
 20
498.092284
 42
-0.153752
  0
VERTEX
  8
0
 10
212.442961
 20
498.423494
 42
-0.187807
  0
VERTEX
  8
0
 10
212.141968
 20
499.047970
 42
-0.056967
  0
VERTEX
  8
0
 10
212.180449
 20
500.117633
 42
-0.122070
  0
VERTEX
  8
0
 10
212.630703
 20
501.204615
 42
-0.075145
  0
VERTEX
  8
0
 10
213.615444
 20
502.188852
 42
-0.050691
  0
VERTEX
  8
0
 10
215.229970
 20
503.143176
 42
-0.019140
  0
VERTEX
  8
0
 10
217.654076
 20
504.151736
 42
0.061192
  0
VERTEX
  8
0
 10
222.608166
 20
506.719728
 42
0.054414
  0
VERTEX
  8
0
 10
227.013907
 20
510.500304
 42
0.059132
  0
VERTEX
  8
0
 10
230.056724
 20
514.632070
 42
0.155271
  0
VERTEX
  8
0
 10
230.810157
 20
518.192071
 42
0.185641
  0
VERTEX
  8
0
 10
228.955547
 20
521.873865
 42
0.216612
  0
VERTEX
  8
0
 10
225.255954
 20
523.060731
 42
0.123371
  0
VERTEX
  8
0
 10
220.086589
 20
521.104948
 42
0.055510
  0
VERTEX
  8
0
 10
214.585185
 20
516.298270
 42
-0.004292
  0
VERTEX
  8
0
 10
207.704238
 20
508.917571
 42
-0.011591
  0
VERTEX
  8
0
 10
202.654283
 20
503.834558
 42
-0.015253
  0
VERTEX
  8
0
 10
198.828134
 20
500.376030
 42
-0.056867
  0
VERTEX
  8
0
 10
196.137238
 20
498.570968
 42
-0.101695
  0
VERTEX
  8
0
 10
194.765227
 20
498.184515
 42
-0.545424
  0
VERTEX
  8
0
 10
194.386035
 20
498.689566
 42
-0.044776
  0
VERTEX
  8
0
 10
195.363412
 20
500.743610
 42
-0.001856
  0
VERTEX
  8
0
 10
199.533271
 20
507.742308
 42
0.004498
  0
VERTEX
  8
0
 10
202.010188
 20
511.949976
 42
0.006661
  0
VERTEX
  8
0
 10
204.098705
 20
515.686133
 42
0.003310
  0
VERTEX
  8
0
 10
205.800988
 20
518.879231
 42
0.121057
  0
VERTEX
  8
0
 10
205.998486
 20
519.678571
 42
0.289614
  0
VERTEX
  8
0
 10
204.185463
 20
522.554275
 42
0.097980
  0
VERTEX
  8
0
 10
199.170018
 20
523.830329
 42
0.075988
  0
VERTEX
  8
0
 10
192.789635
 20
523.203799
 42
0.089348
  0
VERTEX
  8
0
 10
187.270077
 20
520.687164
 42
0.030789
  0
VERTEX
  8
0
 10
185.526790
 20
519.312913
 42
0.014309
  0
VERTEX
  8
0
 10
183.433204
 20
517.332017
 42
0.014114
  0
VERTEX
  8
0
 10
181.346659
 20
515.119948
 42
0.019116
  0
VERTEX
  8
0
 10
179.598476
 20
513.000726
 42
-0.025355
  0
VERTEX
  8
0
 10
175.733543
 20
508.432743
 42
-0.018438
  0
VERTEX
  8
0
 10
171.005184
 20
503.745742
 42
-0.012553
  0
VERTEX
  8
0
 10
166.422471
 20
499.734254
 42
-0.175243
  0
VERTEX
  8
0
 10
164.391846
 20
499.000000
 42
-0.131400
  0
VERTEX
  8
0
 10
163.433144
 20
499.256373
 42
-0.341427
  0
VERTEX
  8
0
 10
163.178061
 20
499.876654
 42
-0.076849
  0
VERTEX
  8
0
 10
163.756700
 20
501.167968
 42
-0.006014
  0
VERTEX
  8
0
 10
165.852004
 20
504.319825
 42
0.008224
  0
VERTEX
  8
0
 10
169.254851
 20
509.487949
 42
0.077259
  0
VERTEX
  8
0
 10
170.316043
 20
511.918767
 42
0.148300
  0
VERTEX
  8
0
 10
170.242695
 20
513.897798
 42
0.055576
  0
VERTEX
  8
0
 10
169.040966
 20
516.433716
 42
-0.026023
  0
VERTEX
  8
0
 10
168.086166
 20
518.175087
 42
-0.062029
  0
VERTEX
  8
0
 10
167.615024
 20
519.570557
 42
-0.077754
  0
VERTEX
  8
0
 10
167.556213
 20
520.834123
 42
-0.064575
  0
VERTEX
  8
0
 10
167.873391
 20
522.143502
 42
-0.064300
  0
VERTEX
  8
0
 10
169.217099
 20
524.632334
 42
-0.036445
  0
VERTEX
  8
0
 10
171.417490
 20
527.264262
 42
-0.035514
  0
VERTEX
  8
0
 10
174.086346
 20
529.655597
 42
-0.045622
  0
VERTEX
  8
0
 10
176.862605
 20
531.428950
 42
0.025829
  0
VERTEX
  8
0
 10
179.100211
 20
532.736687
 42
0.184576
  0
VERTEX
  8
0
 10
179.820824
 20
533.735038
 42
0.235339
  0
VERTEX
  8
0
 10
179.600530
 20
534.810181
 42
0.042742
  0
VERTEX
  8
0
 10
178.171259
 20
536.345012
 42
0.104418
  0
VERTEX
  8
0
 10
175.849154
 20
537.697727
 42
0.160192
  0
VERTEX
  8
0
 10
173.541150
 20
537.701682
 42
0.102470
  0
VERTEX
  8
0
 10
170.939000
 20
536.211102
 42
0.028523
  0
SEQEND
  0
POLYLINE
  8
0
 66
1
 70
1
  0
VERTEX
  8
0
 10
146.823738
 20
520.139719
 42
-0.118531
  0
VERTEX
  8
0
 10
146.582940
 20
517.474202
 42
-0.032248
  0
VERTEX
  8
0
 10
144.961177
 20
513.534776
 42
-0.031567
  0
VERTEX
  8
0
 10
142.537726
 20
509.283593
 42
-0.032907
  0
VERTEX
  8
0
 10
139.628657
 20
505.433151
 42
-0.005632
  0
VERTEX
  8
0
 10
137.378103
 20
502.888164
 42
-0.125257
  0
VERTEX
  8
0
 10
136.562667
 20
502.346617
 42
-0.324899
  0
VERTEX
  8
0
 10
135.922362
 20
502.538572
 42
-0.039986
  0
VERTEX
  8
0
 10
135.085030
 20
503.841120
 42
-0.154216
  0
VERTEX
  8
0
 10
134.524475
 20
506.830295
 42
-0.053207
  0
VERTEX
  8
0
 10
135.525197
 20
511.163547
 42
-0.049631
  0
VERTEX
  8
0
 10
137.640699
 20
515.746554
 42
-0.056184
  0
VERTEX
  8
0
 10
140.546976
 20
519.618487
 42
-0.034298
  0
VERTEX
  8
0
 10
143.023244
 20
521.907363
 42
-0.149773
  0
VERTEX
  8
0
 10
144.854586
 20
522.639223
 42
-0.276097
  0
VERTEX
  8
0
 10
146.113089
 20
522.022083
 42
-0.107976
  0
SEQEND
  0
POLYLINE
  8
0
 66
1
 70
1
  0
VERTEX
  8
0
 10
253.823738
 20
520.139719
 42
-0.118531
  0
VERTEX
  8
0
 10
253.582940
 20
517.474202
 42
-0.032248
  0
VERTEX
  8
0
 10
251.961177
 20
513.534776
 42
-0.031567
  0
VERTEX
  8
0
 10
249.537726
 20
509.283593
 42
-0.032907
  0
VERTEX
  8
0
 10
246.628657
 20
505.433151
 42
-0.005632
  0
VERTEX
  8
0
 10
244.378103
 20
502.888164
 42
-0.125257
  0
VERTEX
  8
0
 10
243.562667
 20
502.346617
 42
-0.324899
  0
VERTEX
  8
0
 10
242.922362
 20
502.538572
 42
-0.039986
  0
VERTEX
  8
0
 10
242.085030
 20
503.841120
 42
-0.154216
  0
VERTEX
  8
0
 10
241.524475
 20
506.830295
 42
-0.053207
  0
VERTEX
  8
0
 10
242.525197
 20
511.163547
 42
-0.049631
  0
VERTEX
  8
0
 10
244.640699
 20
515.746554
 42
-0.056184
  0
VERTEX
  8
0
 10
247.546976
 20
519.618487
 42
-0.034298
  0
VERTEX
  8
0
 10
250.023244
 20
521.907363
 42
-0.149773
  0
VERTEX
  8
0
 10
251.854586
 20
522.639223
 42
-0.276097
  0
VERTEX
  8
0
 10
253.113089
 20
522.022083
 42
-0.107976
  0
SEQEND
  0
POLYLINE
  8
0
 66
1
 70
1
  0
VERTEX
  8
0
 10
113.445872
 20
518.829458
 42
-0.071829
  0
VERTEX
  8
0
 10
110.799225
 20
513.360865
 42
-0.019701
  0
VERTEX
  8
0
 10
105.117552
 20
505.626155
 42
-0.013539
  0
VERTEX
  8
0
 10
98.948612
 20
498.302480
 42
-0.214109
  0
VERTEX
  8
0
 10
96.046417
 20
497.000000
 42
-0.410638
  0
VERTEX
  8
0
 10
95.148986
 20
497.886527
 42
-0.070265
  0
VERTEX
  8
0
 10
95.487724
 20
500.516900
 42
-0.046350
  0
VERTEX
  8
0
 10
96.875628
 20
504.192966
 42
-0.029228
  0
VERTEX
  8
0
 10
99.125117
 20
508.194978
 42
-0.043517
  0
VERTEX
  8
0
 10
103.657020
 20
514.064565
 42
-0.046929
  0
VERTEX
  8
0
 10
109.032362
 20
518.899630
 42
-0.134061
  0
VERTEX
  8
0
 10
112.335862
 20
520.189346
 42
-0.541058
  0
SEQEND
  0
POLYLINE
  8
0
 66
1
 70
1
  0
VERTEX
  8
0
 10
197.445872
 20
518.829458
 42
-0.071829
  0
VERTEX
  8
0
 10
194.799225
 20
513.360865
 42
-0.019701
  0
VERTEX
  8
0
 10
189.117552
 20
505.626155
 42
-0.013539
  0
VERTEX
  8
0
 10
182.948612
 20
498.302480
 42
-0.214109
  0
VERTEX
  8
0
 10
180.046417
 20
497.000000
 42
-0.410638
  0
VERTEX
  8
0
 10
179.148986
 20
497.886527
 42
-0.070265
  0
VERTEX
  8
0
 10
179.487724
 20
500.516900
 42
-0.046350
  0
VERTEX
  8
0
 10
180.875628
 20
504.192966
 42
-0.029228
  0
VERTEX
  8
0
 10
183.125117
 20
508.194978
 42
-0.043517
  0
VERTEX
  8
0
 10
187.657020
 20
514.064565
 42
-0.046929
  0
VERTEX
  8
0
 10
193.032362
 20
518.899630
 42
-0.134061
  0
VERTEX
  8
0
 10
196.335862
 20
520.189346
 42
-0.541058
  0
SEQEND
  0
POLYLINE
  8
0
 66
1
 70
1
  0
VERTEX
  8
0
 10
226.021245
 20
513.534375
 42
-0.060123
  0
VERTEX
  8
0
 10
223.835008
 20
510.795606
 42
-0.041190
  0
VERTEX
  8
0
 10
220.775754
 20
508.246501
 42
-0.040661
  0
VERTEX
  8
0
 10
217.672593
 20
506.423819
 42
-0.168219
  0
VERTEX
  8
0
 10
215.543767
 20
506.174719
 42
-0.513727
  0
VERTEX
  8
0
 10
215.041314
 20
507.347325
 42
-0.019166
  0
VERTEX
  8
0
 10
218.135172
 20
512.042478
 42
-0.024951
  0
VERTEX
  8
0
 10
221.857063
 20
516.732057
 42
-0.075494
  0
VERTEX
  8
0
 10
224.968382
 20
519.349197
 42
-0.011708
  0
VERTEX
  8
0
 10
226.535753
 20
520.257521
 42
-0.163151
  0
VERTEX
  8
0
 10
227.169739
 20
520.371812
 42
-0.287068
  0
VERTEX
  8
0
 10
227.555582
 20
520.044045
 42
-0.036315
  0
VERTEX
  8
0
 10
227.821652
 20
518.932276
 42
-0.091162
  0
VERTEX
  8
0
 10
227.802360
 20
517.943873
 42
-0.030159
  0
VERTEX
  8
0
 10
227.425464
 20
516.536353
 42
-0.028878
  0
VERTEX
  8
0
 10
226.809683
 20
514.993184
 42
-0.029048
  0
SEQEND
  0
POLYLINE
  8
0
 66
1
 70
1
  0
VERTEX
  8
0
 10
132.384990
 20
501.535184
 42
-0.016822
  0
VERTEX
  8
0
 10
133.317860
 20
500.001266
 42
-0.163677
  0
VERTEX
  8
0
 10
133.458149
 20
499.264988
 42
-0.209068
  0
VERTEX
  8
0
 10
133.105268
 20
498.687346
 42
-0.029710
  0
VERTEX
  8
0
 10
131.892640
 20
497.942543
 42
-0.094308
  0
VERTEX
  8
0
 10
129.958727
 20
497.337234
 42
-0.246726
  0
VERTEX
  8
0
 10
128.641756
 20
497.845785
 42
-0.214016
  0
VERTEX
  8
0
 10
128.193263
 20
499.312115
 42
-0.075815
  0
VERTEX
  8
0
 10
128.805687
 20
501.472874
 42
-0.015652
  0
VERTEX
  8
0
 10
129.785820
 20
503.456995
 42
-0.272258
  0
VERTEX
  8
0
 10
130.376766
 20
503.818525
 42
-0.243772
  0
VERTEX
  8
0
 10
131.026483
 20
503.495967
 42
-0.012933
  0
SEQEND
  0
POLYLINE
  8
0
 66
1
 70
1
  0
VERTEX
  8
0
 10
239.384990
 20
501.535184
 42
-0.016822
  0
VERTEX
  8
0
 10
240.317860
 20
500.001266
 42
-0.163677
  0
VERTEX
  8
0
 10
240.458149
 20
499.264988
 42
-0.209068
  0
VERTEX
  8
0
 10
240.105268
 20
498.687346
 42
-0.029710
  0
VERTEX
  8
0
 10
238.892640
 20
497.942543
 42
-0.094308
  0
VERTEX
  8
0
 10
236.958727
 20
497.337234
 42
-0.246726
  0
VERTEX
  8
0
 10
235.641756
 20
497.845785
 42
-0.214016
  0
VERTEX
  8
0
 10
235.193263
 20
499.312115
 42
-0.075815
  0
VERTEX
  8
0
 10
235.805687
 20
501.472874
 42
-0.015652
  0
VERTEX
  8
0
 10
236.785820
 20
503.456995
 42
-0.272258
  0
VERTEX
  8
0
 10
237.376766
 20
503.818525
 42
-0.243772
  0
VERTEX
  8
0
 10
238.026483
 20
503.495967
 42
-0.012933
  0
SEQEND
  0
POLYLINE
  8
0
 66
1
 70
1
  0
VERTEX
  8
0
 10
94.374207
 20
485.750000
 42
-0.017070
  0
VERTEX
  8
0
 10
84.188911
 20
469.891522
 42
-0.032473
  0
VERTEX
  8
0
 10
74.777339
 20
458.011455
 42
-0.039468
  0
VERTEX
  8
0
 10
66.517800
 20
450.208189
 42
-0.171169
  0
VERTEX
  8
0
 10
60.256470
 20
448.000000
 42
-0.139729
  0
VERTEX
  8
0
 10
57.727653
 20
448.720771
 42
-0.081095
  0
VERTEX
  8
0
 10
55.329475
 20
450.812096
 42
-0.076473
  0
VERTEX
  8
0
 10
53.597398
 20
453.707175
 42
-0.096928
  0
VERTEX
  8
0
 10
53.000000
 20
456.759868
 42
-0.134119
  0
VERTEX
  8
0
 10
54.877504
 20
463.633376
 42
-0.080723
  0
VERTEX
  8
0
 10
60.321934
 20
470.171338
 42
-0.056230
  0
VERTEX
  8
0
 10
69.599499
 20
476.558996
 42
-0.024140
  0
VERTEX
  8
0
 10
83.208187
 20
483.004936
 42
-0.004677
  0
VERTEX
  8
0
 10
89.743478
 20
485.651145
 42
-0.033592
  0
VERTEX
  8
0
 10
92.984297
 20
486.682910
 42
-0.187651
  0
VERTEX
  8
0
 10
94.161476
 20
486.529097
 42
-0.424758
  0
SEQEND
  0
POLYLINE
  8
0
 66
1
 70
1
  0
VERTEX
  8
0
 10
178.374207
 20
485.750000
 42
-0.017070
  0
VERTEX
  8
0
 10
168.188911
 20
469.891522
 42
-0.032473
  0
VERTEX
  8
0
 10
158.777339
 20
458.011455
 42
-0.039468
  0
VERTEX
  8
0
 10
150.517800
 20
450.208189
 42
-0.171169
  0
VERTEX
  8
0
 10
144.256470
 20
448.000000
 42
-0.139729
  0
VERTEX
  8
0
 10
141.727653
 20
448.720771
 42
-0.081095
  0
VERTEX
  8
0
 10
139.329475
 20
450.812096
 42
-0.076473
  0
VERTEX
  8
0
 10
137.597398
 20
453.707175
 42
-0.096928
  0
VERTEX
  8
0
 10
137.000000
 20
456.759868
 42
-0.134119
  0
VERTEX
  8
0
 10
138.877504
 20
463.633376
 42
-0.080723
  0
VERTEX
  8
0
 10
144.321934
 20
470.171338
 42
-0.056230
  0
VERTEX
  8
0
 10
153.599499
 20
476.558996
 42
-0.024140
  0
VERTEX
  8
0
 10
167.208187
 20
483.004936
 42
-0.004677
  0
VERTEX
  8
0
 10
173.743478
 20
485.651145
 42
-0.033592
  0
VERTEX
  8
0
 10
176.984297
 20
486.682910
 42
-0.187651
  0
VERTEX
  8
0
 10
178.161476
 20
486.529097
 42
-0.424758
  0
SEQEND
  0
POLYLINE
  8
0
 66
1
 70
1
  0
VERTEX
  8
0
 10
420.500000
 20
521.430599
 42
0.044269
  0
VERTEX
  8
0
 10
417.210664
 20
519.335054
 42
0.043040
  0
VERTEX
  8
0
 10
414.307818
 20
516.675215
 42
0.038565
  0
VERTEX
  8
0
 10
411.647210
 20
513.288767
 42
0.024793
  0
VERTEX
  8
0
 10
409.080936
 20
509.000473
 42
0.030866
  0
VERTEX
  8
0
 10
406.908970
 20
504.239269
 42
0.075770
  0
VERTEX
  8
0
 10
406.090313
 20
500.490736
 42
0.113755
  0
VERTEX
  8
0
 10
406.558968
 20
497.636961
 42
0.143594
  0
VERTEX
  8
0
 10
408.222506
 20
495.556704
 42
0.143863
  0
VERTEX
  8
0
 10
412.296382
 20
494.182896
 42
0.111100
  0
VERTEX
  8
0
 10
416.928587
 20
495.034476
 42
0.072662
  0
VERTEX
  8
0
 10
422.328638
 20
498.331699
 42
0.028259
  0
VERTEX
  8
0
 10
428.750000
 20
504.310727
 42
0.009546
  0
VERTEX
  8
0
 10
432.515031
 20
508.389176
 42
0.044341
  0
VERTEX
  8
0
 10
434.421253
 20
510.961517
 42
0.155639
  0
VERTEX
  8
0
 10
434.761798
 20
512.351177
 42
0.394295
  0
VERTEX
  8
0
 10
434.066950
 20
513.000000
 42
0.183406
  0
VERTEX
  8
0
 10
433.532556
 20
512.797154
 42
0.012099
  0
VERTEX
  8
0
 10
432.305581
 20
511.654664
 42
0.016244
  0
VERTEX
  8
0
 10
430.886628
 20
510.174706
 42
0.011350
  0
VERTEX
  8
0
 10
429.381043
 20
508.420134
 42
-0.047084
  0
VERTEX
  8
0
 10
423.852538
 20
502.838003
 42
-0.061684
  0
VERTEX
  8
0
 10
417.825769
 20
498.950211
 42
-0.133537
  0
VERTEX
  8
0
 10
413.712098
 20
498.183796
 42
-0.434411
  0
VERTEX
  8
0
 10
412.180449
 20
500.117633
 42
-0.122070
  0
VERTEX
  8
0
 10
412.630703
 20
501.204615
 42
-0.075145
  0
VERTEX
  8
0
 10
413.615444
 20
502.188852
 42
-0.050691
  0
VERTEX
  8
0
 10
415.229970
 20
503.143176
 42
-0.019140
  0
VERTEX
  8
0
 10
417.654076
 20
504.151736
 42
0.075437
  0
VERTEX
  8
0
 10
423.891072
 20
507.612524
 42
0.077869
  0
VERTEX
  8
0
 10
428.743099
 20
512.735919
 42
0.100978
  0
VERTEX
  8
0
 10
430.958526
 20
517.954015
 42
0.251518
  0
VERTEX
  8
0
 10
429.800000
 20
521.800000
 42
0.137470
  0
VERTEX
  8
0
 10
428.196543
 20
522.701482
 42
0.069774
  0
VERTEX
  8
0
 10
425.875015
 20
522.933525
 42
0.059962
  0
VERTEX
  8
0
 10
423.188839
 20
522.501462
 42
0.049914
  0
SEQEND
  0
POLYLINE
  8
0
 66
1
 70
1
  0
VERTEX
  8
0
 10
426.021245
 20
513.534375
 42
-0.060123
  0
VERTEX
  8
0
 10
423.835008
 20
510.795606
 42
-0.041190
  0
VERTEX
  8
0
 10
420.775754
 20
508.246501
 42
-0.040661
  0
VERTEX
  8
0
 10
417.672593
 20
506.423819
 42
-0.168219
  0
VERTEX
  8
0
 10
415.543767
 20
506.174719
 42
-0.513727
  0
VERTEX
  8
0
 10
415.041314
 20
507.347325
 42
-0.019166
  0
VERTEX
  8
0
 10
418.135172
 20
512.042478
 42
-0.024951
  0
VERTEX
  8
0
 10
421.857063
 20
516.732057
 42
-0.075494
  0
VERTEX
  8
0
 10
424.968382
 20
519.349197
 42
-0.011708
  0
VERTEX
  8
0
 10
426.535753
 20
520.257521
 42
-0.163151
  0
VERTEX
  8
0
 10
427.169739
 20
520.371812
 42
-0.287068
  0
VERTEX
  8
0
 10
427.555582
 20
520.044045
 42
-0.036315
  0
VERTEX
  8
0
 10
427.821652
 20
518.932276
 42
-0.091162
  0
VERTEX
  8
0
 10
427.802360
 20
517.943873
 42
-0.030159
  0
VERTEX
  8
0
 10
427.425464
 20
516.536353
 42
-0.028878
  0
VERTEX
  8
0
 10
426.809683
 20
514.993184
 42
-0.029048
  0
SEQEND
  0
POLYLINE
  8
0
 66
1
 70
1
  0
VERTEX
  8
0
 10
436.200000
 20
497.800000
 42
0.073681
  0
VERTEX
  8
0
 10
435.739862
 20
497.179791
 42
0.038626
  0
VERTEX
  8
0
 10
435.352500
 20
496.298195
 42
0.037384
  0
VERTEX
  8
0
 10
435.088378
 20
495.313452
 42
0.046863
  0
VERTEX
  8
0
 10
435.000000
 20
494.372580
 42
-0.150429
  0
VERTEX
  8
0
 10
434.424424
 20
492.502756
 42
-0.052128
  0
VERTEX
  8
0
 10
432.582404
 20
490.322028
 42
-0.052132
  0
VERTEX
  8
0
 10
430.312993
 20
488.556843
 42
-0.140131
  0
VERTEX
  8
0
 10
428.365141
 20
488.000000
 42
0.072592
  0
VERTEX
  8
0
 10
427.843482
 20
487.923863
 42
0.087405
  0
VERTEX
  8
0
 10
427.401010
 20
487.702308
 42
0.100486
  0
VERTEX
  8
0
 10
427.105212
 20
487.373041
 42
0.133689
  0
VERTEX
  8
0
 10
427.000000
 20
486.986580
 42
0.542442
  0
VERTEX
  8
0
 10
428.273933
 20
486.157841
 42
0.029797
  0
VERTEX
  8
0
 10
433.364775
 20
488.787969
 42
0.027808
  0
VERTEX
  8
0
 10
438.583575
 20
492.297759
 42
0.155181
  0
VERTEX
  8
0
 10
440.505406
 20
495.017033
 42
0.113294
  0
VERTEX
  8
0
 10
440.686701
 20
497.230954
 42
0.216554
  0
VERTEX
  8
0
 10
439.742578
 20
498.702486
 42
0.224692
  0
VERTEX
  8
0
 10
438.047491
 20
498.927185
 42
0.119348
  0
SEQEND
  0
POLYLINE
  8
0
 66
1
 70
1
  0
VERTEX
  8
0
 10
260.464867
 20
419.742470
 42
0.105091
  0
VERTEX
  8
0
 10
260.071904
 20
417.338657
 42
0.053274
  0
VERTEX
  8
0
 10
260.543841
 20
414.294738
 42
0.052615
  0
VERTEX
  8
0
 10
261.670774
 20
411.349101
 42
0.087100
  0
VERTEX
  8
0
 10
263.265310
 20
409.226544
 42
0.096800
  0
VERTEX
  8
0
 10
267.741538
 20
406.421750
 42
0.072581
  0
VERTEX
  8
0
 10
273.428387
 20
405.139063
 42
0.051818
  0
VERTEX
  8
0
 10
280.905501
 20
405.338080
 42
0.020781
  0
VERTEX
  8
0
 10
291.000000
 20
407.088632
 42
-0.006505
  0
VERTEX
  8
0
 10
306.136352
 20
410.160932
 42
-0.025072
  0
VERTEX
  8
0
 10
315.638531
 20
411.472010
 42
-0.039600
  0
VERTEX
  8
0
 10
321.474231
 20
411.517640
 42
-0.393470
  0
VERTEX
  8
0
 10
323.000000
 20
409.878946
 42
-0.167417
  0
VERTEX
  8
0
 10
322.221931
 20
407.620326
 42
-0.003491
  0
VERTEX
  8
0
 10
314.735181
 20
398.180007
 42
-0.008850
  0
VERTEX
  8
0
 10
307.194050
 20
389.138744
 42
-0.022356
  0
VERTEX
  8
0
 10
301.309178
 20
382.917049
 42
0.000000
  0
VERTEX
  8
0
 10
294.500000
 20
376.334097
 42
0.000000
  0
VERTEX
  8
0
 10
285.099852
 20
374.500382
 42
-0.016789
  0
VERTEX
  8
0
 10
274.854307
 20
372.856641
 42
-0.068849
  0
VERTEX
  8
0
 10
268.576915
 20
372.931827
 42
-0.116495
  0
VERTEX
  8
0
 10
264.332739
 20
374.633911
 42
-0.103131
  0
VERTEX
  8
0
 10
261.074332
 20
378.118167
 42
0.055061
  0
VERTEX
  8
0
 10
259.696875
 20
379.906283
 42
0.483522
  0
VERTEX
  8
0
 10
258.836602
 20
379.823127
 42
0.185440
  0
VERTEX
  8
0
 10
258.526278
 20
378.345172
 42
0.025480
  0
VERTEX
  8
0
 10
259.196406
 20
375.211912
 42
0.156060
  0
VERTEX
  8
0
 10
261.817023
 20
371.134829
 42
0.110087
  0
VERTEX
  8
0
 10
266.706949
 20
368.647169
 42
0.081493
  0
VERTEX
  8
0
 10
273.550165
 20
368.038634
 42
0.046595
  0
VERTEX
  8
0
 10
281.750000
 20
369.421356
 42
-0.006212
  0
VERTEX
  8
0
 10
283.763387
 20
369.930646
 42
-0.010612
  0
VERTEX
  8
0
 10
285.457812
 20
370.299083
 42
-0.004623
  0
VERTEX
  8
0
 10
286.864611
 20
370.560369
 42
-0.466265
  0
VERTEX
  8
0
 10
287.000000
 20
370.446749
 42
-0.235639
  0
VERTEX
  8
0
 10
286.886254
 20
370.218794
 42
-0.001906
  0
VERTEX
  8
0
 10
285.224496
 20
368.978142
 42
-0.006294
  0
VERTEX
  8
0
 10
283.272763
 20
367.570250
 42
-0.003944
  0
VERTEX
  8
0
 10
280.955730
 20
365.969937
 42
-0.023624
  0
VERTEX
  8
0
 10
273.873356
 20
361.634383
 42
-0.018558
  0
VERTEX
  8
0
 10
265.826750
 20
357.597843
 42
-0.018748
  0
VERTEX
  8
0
 10
257.626788
 20
354.223771
 42
-0.026558
  0
VERTEX
  8
0
 10
250.088957
 20
351.893999
 42
-0.033217
  0
VERTEX
  8
0
 10
241.227962
 20
350.279263
 42
-0.090175
  0
VERTEX
  8
0
 10
234.882779
 20
350.698788
 42
-0.135451
  0
VERTEX
  8
0
 10
230.626597
 20
353.108373
 42
-0.126619
  0
VERTEX
  8
0
 10
228.075075
 20
357.418665
 42
0.000000
  0
VERTEX
  8
0
 10
227.180377
 20
360.500000
 42
0.000000
  0
VERTEX
  8
0
 10
227.090188
 20
357.184259
 42
0.101011
  0
VERTEX
  8
0
 10
227.897255
 20
352.596787
 42
0.148435
  0
VERTEX
  8
0
 10
230.423012
 20
349.410055
 42
0.110299
  0
VERTEX
  8
0
 10
234.946421
 20
347.570928
 42
0.041638
  0
VERTEX
  8
0
 10
241.790378
 20
347.000000
 42
0.059949
  0
VERTEX
  8
0
 10
254.701760
 20
348.553631
 42
0.043149
  0
VERTEX
  8
0
 10
268.468956
 20
353.204008
 42
0.038210
  0
VERTEX
  8
0
 10
282.865797
 20
360.853168
 42
0.027597
  0
VERTEX
  8
0
 10
297.666785
 20
371.418433
 42
-0.020179
  0
VERTEX
  8
0
 10
299.778251
 20
372.973416
 42
-0.049009
  0
VERTEX
  8
0
 10
301.477843
 20
373.894151
 42
-0.066370
  0
VERTEX
  8
0
 10
302.970287
 20
374.300764
 42
-0.080757
  0
VERTEX
  8
0
 10
304.416785
 20
374.260659
 42
-0.009787
  0
VERTEX
  8
0
 10
305.407041
 20
374.051190
 42
-0.015723
  0
VERTEX
  8
0
 10
306.241180
 20
373.829762
 42
-0.009591
  0
VERTEX
  8
0
 10
306.907802
 20
373.616152
 42
-0.320746
  0
VERTEX
  8
0
 10
307.000000
 20
373.487215
 42
-0.107387
  0
VERTEX
  8
0
 10
306.954368
 20
373.277202
 42
-0.000420
  0
VERTEX
  8
0
 10
305.934712
 20
371.046530
 42
-0.002117
  0
VERTEX
  8
0
 10
304.763692
 20
368.518720
 42
-0.001327
  0
VERTEX
  8
0
 10
303.373487
 20
365.571176
 42
0.022175
  0
VERTEX
  8
0
 10
300.524281
 20
358.813771
 42
0.060500
  0
VERTEX
  8
0
 10
299.324245
 20
353.775528
 42
0.085956
  0
VERTEX
  8
0
 10
299.562383
 20
349.710390
 42
0.092591
  0
VERTEX
  8
0
 10
301.161697
 20
346.077093
 42
0.017697
  0
VERTEX
  8
0
 10
303.513174
 20
342.883664
 42
0.335337
  0
VERTEX
  8
0
 10
304.643156
 20
342.590804
 42
0.287069
  0
VERTEX
  8
0
 10
305.374142
 20
343.618676
 42
0.014770
  0
VERTEX
  8
0
 10
305.500000
 20
347.878216
 42
-0.027471
  0
VERTEX
  8
0
 10
305.686657
 20
351.273036
 42
-0.043532
  0
VERTEX
  8
0
 10
306.256028
 20
354.127768
 42
-0.035066
  0
VERTEX
  8
0
 10
307.407966
 20
357.244969
 42
-0.011746
  0
VERTEX
  8
0
 10
309.510711
 20
361.625110
 42
-0.007625
  0
VERTEX
  8
0
 10
311.808568
 20
365.971673
 42
-0.048512
  0
VERTEX
  8
0
 10
313.213781
 20
368.032249
 42
-0.110050
  0
VERTEX
  8
0
 10
314.433421
 20
368.971260
 42
-0.145105
  0
VERTEX
  8
0
 10
315.814088
 20
369.178099
 42
0.017321
  0
VERTEX
  8
0
 10
317.134631
 20
369.039126
 42
0.271338
  0
VERTEX
  8
0
 10
317.525637
 20
369.232705
 42
0.273839
  0
VERTEX
  8
0
 10
317.545879
 20
369.666737
 42
0.017571
  0
VERTEX
  8
0
 10
316.886301
 20
370.810453
 42
-0.179187
  0
VERTEX
  8
0
 10
316.556261
 20
372.408722
 42
-0.064001
  0
VERTEX
  8
0
 10
317.207395
 20
374.683354
 42
-0.027636
  0
VERTEX
  8
0
 10
319.039531
 20
378.363788
 42
-0.003796
  0
VERTEX
  8
0
 10
323.332924
 20
385.780596
 42
0.004812
  0
VERTEX
  8
0
 10
327.659593
 20
393.290022
 42
0.027325
  0
VERTEX
  8
0
 10
329.700624
 20
397.425697
 42
0.049940
  0
VERTEX
  8
0
 10
330.671837
 20
400.521279
 42
0.051099
  0
VERTEX
  8
0
 10
331.000000
 20
403.723928
 42
0.057315
  0
VERTEX
  8
0
 10
330.583666
 20
407.343950
 42
0.098493
  0
VERTEX
  8
0
 10
329.335202
 20
410.099814
 42
0.095574
  0
VERTEX
  8
0
 10
327.095804
 20
412.221915
 42
0.051487
  0
VERTEX
  8
0
 10
323.684900
 20
413.933388
 42
0.078663
  0
VERTEX
  8
0
 10
319.584025
 20
414.786791
 42
0.015694
  0
VERTEX
  8
0
 10
312.082158
 20
414.912736
 42
0.016179
  0
VERTEX
  8
0
 10
303.220033
 20
414.496323
 42
0.014168
  0
VERTEX
  8
0
 10
294.000000
 20
413.500000
 42
-0.016378
  0
VERTEX
  8
0
 10
280.468165
 20
412.098202
 42
-0.054848
  0
VERTEX
  8
0
 10
271.570013
 20
412.446427
 42
-0.094859
  0
VERTEX
  8
0
 10
265.852945
 20
414.454956
 42
-0.162166
  0
VERTEX
  8
0
 10
262.542211
 20
418.212567
 42
0.010661
  0
VERTEX
  8
0
 10
261.758322
 20
419.958304
 42
0.123787
  0
VERTEX
  8
0
 10
261.285403
 20
420.531669
 42
0.406653
  0
VERTEX
  8
0
 10
260.880812
 20
420.475615
 42
0.072430
  0
SEQEND
  0
POLYLINE
  8
0
 66
1
 70
1
  0
VERTEX
  8
0
 10
316.469392
 20
388.546235
 42
-0.008206
  0
VERTEX
  8
0
 10
311.645455
 20
381.036652
 42
-0.047982
  0
VERTEX
  8
0
 10
308.684949
 20
377.400235
 42
-0.132411
  0
VERTEX
  8
0
 10
306.532778
 20
376.144095
 42
-0.268815
  0
VERTEX
  8
0
 10
304.701797
 20
376.631536
 42
-0.356559
  0
VERTEX
  8
0
 10
304.653896
 20
377.107105
 42
-0.010739
  0
VERTEX
  8
0
 10
305.869205
 20
378.860458
 42
-0.016770
  0
VERTEX
  8
0
 10
307.502493
 20
380.960080
 42
-0.010223
  0
VERTEX
  8
0
 10
309.562790
 20
383.332515
 42
0.010089
  0
VERTEX
  8
0
 10
311.972904
 20
386.106264
 42
0.006340
  0
VERTEX
  8
0
 10
314.682202
 20
389.439470
 42
0.006363
  0
VERTEX
  8
0
 10
317.265976
 20
392.788601
 42
0.011573
  0
VERTEX
  8
0
 10
319.277660
 20
395.599102
 42
-0.009056
  0
VERTEX
  8
0
 10
323.224397
 20
401.172097
 42
-0.879819
  0
VERTEX
  8
0
 10
323.616400
 20
400.954562
 42
-0.040371
  0
VERTEX
  8
0
 10
321.814704
 20
397.314676
 42
-0.003564
  0
SEQEND
  0
POLYLINE
  8
0
 66
1
 70
1
  0
VERTEX
  8
0
 10
178.973879
 20
397.936939
 42
-0.068850
  0
VERTEX
  8
0
 10
178.033135
 20
396.332017
 42
-0.054970
  0
VERTEX
  8
0
 10
176.624869
 20
394.901310
 42
-0.041273
  0
VERTEX
  8
0
 10
174.570035
 20
393.492581
 42
-0.017372
  0
VERTEX
  8
0
 10
171.602559
 20
391.933566
 42
0.000000
  0
VERTEX
  8
0
 10
165.500000
 20
388.993253
 42
0.000000
  0
VERTEX
  8
0
 10
169.750000
 20
389.508444
 42
-0.010492
  0
VERTEX
  8
0
 10
171.379689
 20
389.671382
 42
-0.017705
  0
VERTEX
  8
0
 10
172.751563
 20
389.730768
 42
-0.012078
  0
VERTEX
  8
0
 10
173.835524
 20
389.713100
 42
-0.402414
  0
VERTEX
  8
0
 10
174.000000
 20
389.541832
 42
-0.136862
  0
VERTEX
  8
0
 10
173.901096
 20
389.187272
 42
-0.000361
  0
VERTEX
  8
0
 10
171.246039
 20
384.805692
 42
-0.002184
  0
VERTEX
  8
0
 10
168.218956
 20
379.867060
 42
-0.001356
  0
VERTEX
  8
0
 10
164.624814
 20
374.095379
 42
0.004533
  0
VERTEX
  8
0
 10
160.984109
 20
368.165273
 42
0.006103
  0
VERTEX
  8
0
 10
157.803118
 20
362.727859
 42
0.004287
  0
VERTEX
  8
0
 10
155.238291
 20
358.126931
 42
0.063604
  0
VERTEX
  8
0
 10
154.567175
 20
356.411624
 42
0.089781
  0
VERTEX
  8
0
 10
154.380370
 20
353.620289
 42
0.077682
  0
VERTEX
  8
0
 10
155.156764
 20
350.785336
 42
0.084118
  0
VERTEX
  8
0
 10
156.673044
 20
348.521726
 42
0.142668
  0
VERTEX
  8
0
 10
158.626589
 20
347.378872
 42
0.077069
  0
VERTEX
  8
0
 10
161.349691
 20
347.127441
 42
0.075023
  0
VERTEX
  8
0
 10
164.047985
 20
347.706871
 42
0.055418
  0
VERTEX
  8
0
 10
167.080417
 20
349.254936
 42
0.021542
  0
VERTEX
  8
0
 10
170.903741
 20
352.018146
 42
0.000000
  0
VERTEX
  8
0
 10
176.000000
 20
356.046507
 42
0.000000
  0
VERTEX
  8
0
 10
176.000000
 20
353.178241
 42
0.143397
  0
VERTEX
  8
0
 10
177.064396
 20
349.543195
 42
0.180119
  0
VERTEX
  8
0
 10
179.850041
 20
347.448849
 42
0.141232
  0
VERTEX
  8
0
 10
183.919068
 20
347.417722
 42
0.080995
  0
VERTEX
  8
0
 10
188.404862
 20
349.500000
 42
-0.021456
  0
VERTEX
  8
0
 10
189.954013
 20
350.456897
 42
-0.022213
  0
VERTEX
  8
0
 10
191.561988
 20
351.265625
 42
-0.022603
  0
VERTEX
  8
0
 10
193.010359
 20
351.838064
 42
-0.082987
  0
VERTEX
  8
0
 10
193.979309
 20
352.000000
 42
0.037383
  0
VERTEX
  8
0
 10
194.884063
 20
352.067740
 42
0.016440
  0
VERTEX
  8
0
 10
196.065713
 20
352.285622
 42
0.016164
  0
VERTEX
  8
0
 10
197.309634
 20
352.599994
 42
0.020866
  0
VERTEX
  8
0
 10
198.427227
 20
352.972332
 42
0.075251
  0
VERTEX
  8
0
 10
201.357680
 20
354.625155
 42
0.020096
  0
VERTEX
  8
0
 10
205.451868
 20
358.101355
 42
0.014670
  0
VERTEX
  8
0
 10
209.275892
 20
361.835236
 42
0.194391
  0
VERTEX
  8
0
 10
210.000000
 20
363.627360
 42
0.153658
  0
VERTEX
  8
0
 10
209.693638
 20
364.600716
 42
0.262771
  0
VERTEX
  8
0
 10
208.947128
 20
364.958572
 42
0.187255
  0
VERTEX
  8
0
 10
208.025975
 20
364.528127
 42
0.099584
  0
VERTEX
  8
0
 10
207.342149
 20
363.449243
 42
-0.122334
  0
VERTEX
  8
0
 10
206.079206
 20
361.641728
 42
-0.014485
  0
VERTEX
  8
0
 10
202.268692
 20
358.506340
 42
-0.013128
  0
VERTEX
  8
0
 10
198.272117
 20
355.572238
 42
-0.152933
  0
VERTEX
  8
0
 10
196.444993
 20
355.000000
 42
-0.518943
  0
VERTEX
  8
0
 10
196.189925
 20
355.362300
 42
-0.025912
  0
VERTEX
  8
0
 10
196.850062
 20
356.942299
 42
-0.023597
  0
VERTEX
  8
0
 10
198.005564
 20
359.084022
 42
-0.012189
  0
VERTEX
  8
0
 10
199.638824
 20
361.652865
 42
0.011479
  0
VERTEX
  8
0
 10
201.994465
 20
365.346302
 42
0.043088
  0
VERTEX
  8
0
 10
203.210661
 20
367.809299
 42
0.062852
  0
VERTEX
  8
0
 10
203.744828
 20
369.927732
 42
0.049144
  0
VERTEX
  8
0
 10
203.800028
 20
372.301020
 42
0.059098
  0
VERTEX
  8
0
 10
203.199962
 20
375.371248
 42
0.161802
  0
VERTEX
  8
0
 10
201.910919
 20
377.132178
 42
0.151769
  0
VERTEX
  8
0
 10
199.762034
 20
377.836756
 42
0.050094
  0
VERTEX
  8
0
 10
196.413241
 20
377.553081
 42
0.049712
  0
VERTEX
  8
0
 10
194.377432
 20
376.958953
 42
0.044966
  0
VERTEX
  8
0
 10
192.424986
 20
375.959390
 42
0.038524
  0
VERTEX
  8
0
 10
190.432188
 20
374.475520
 42
0.022236
  0
VERTEX
  8
0
 10
188.266825
 20
372.411166
 42
-0.010429
  0
VERTEX
  8
0
 10
186.576026
 20
370.721276
 42
-0.014790
  0
VERTEX
  8
0
 10
184.998119
 20
369.295780
 42
-0.010786
  0
VERTEX
  8
0
 10
183.643403
 20
368.192304
 42
-0.167021
  0
VERTEX
  8
0
 10
183.083774
 20
368.000000
 42
0.182134
  0
VERTEX
  8
0
 10
182.541980
 20
367.795870
 42
0.012611
  0
VERTEX
  8
0
 10
181.322236
 20
366.668958
 42
0.016636
  0
VERTEX
  8
0
 10
179.912436
 20
365.204684
 42
0.011676
  0
VERTEX
  8
0
 10
178.420916
 20
363.468793
 42
-0.034387
  0
VERTEX
  8
0
 10
172.860361
 20
357.562080
 42
-0.045365
  0
VERTEX
  8
0
 10
167.004105
 20
353.052936
 42
-0.077218
  0
VERTEX
  8
0
 10
162.639632
 20
351.148929
 42
-0.491727
  0
VERTEX
  8
0
 10
161.000000
 20
352.413021
 42
-0.130524
  0
VERTEX
  8
0
 10
161.263166
 20
353.403958
 42
-0.001787
  0
VERTEX
  8
0
 10
164.415366
 20
358.874643
 42
-0.004903
  0
VERTEX
  8
0
 10
168.170655
 20
365.194989
 42
-0.003189
  0
VERTEX
  8
0
 10
172.626777
 20
372.425788
 42
-0.003709
  0
VERTEX
  8
0
 10
178.498454
 20
381.665681
 42
-0.014907
  0
VERTEX
  8
0
 10
182.294932
 20
387.175587
 42
-0.019930
  0
VERTEX
  8
0
 10
185.017262
 20
390.590732
 42
-0.154217
  0
VERTEX
  8
0
 10
186.734702
 20
391.648262
 42
-0.069202
  0
VERTEX
  8
0
 10
190.728502
 20
392.080147
 42
-0.015576
  0
VERTEX
  8
0
 10
197.567928
 20
391.658218
 42
-0.015108
  0
VERTEX
  8
0
 10
204.349430
 20
390.820033
 42
-0.077543
  0
VERTEX
  8
0
 10
207.950459
 20
389.674601
 42
0.008839
  0
VERTEX
  8
0
 10
209.935832
 20
388.727618
 42
0.178876
  0
VERTEX
  8
0
 10
210.590829
 20
388.679470
 42
0.307268
  0
VERTEX
  8
0
 10
210.928183
 20
389.084949
 42
0.024435
  0
VERTEX
  8
0
 10
211.000000
 20
390.553592
 42
0.165880
  0
VERTEX
  8
0
 10
210.083236
 20
393.240887
 42
0.131504
  0
VERTEX
  8
0
 10
207.629049
 20
395.113377
 42
0.074424
  0
VERTEX
  8
0
 10
203.275854
 20
396.186404
 42
0.023279
  0
VERTEX
  8
0
 10
196.543979
 20
396.500000
 42
-0.006322
  0
VERTEX
  8
0
 10
191.226640
 20
396.567234
 42
-0.044751
  0
VERTEX
  8
0
 10
188.663695
 20
396.862577
 42
-0.092132
  0
VERTEX
  8
0
 10
187.045219
 20
397.523924
 42
-0.079744
  0
VERTEX
  8
0
 10
185.677420
 20
398.750000
 42
0.077139
  0
VERTEX
  8
0
 10
183.780316
 20
400.468335
 42
0.177509
  0
VERTEX
  8
0
 10
181.932807
 20
400.902203
 42
0.183536
  0
VERTEX
  8
0
 10
180.285641
 20
400.036845
 42
0.083024
  0
SEQEND
  0
POLYLINE
  8
0
 66
1
 70
1
  0
VERTEX
  8
0
 10
200.823738
 20
373.139719
 42
-0.118531
  0
VERTEX
  8
0
 10
200.582940
 20
370.474202
 42
-0.032248
  0
VERTEX
  8
0
 10
198.961177
 20
366.534776
 42
-0.031567
  0
VERTEX
  8
0
 10
196.537726
 20
362.283593
 42
-0.032907
  0
VERTEX
  8
0
 10
193.628657
 20
358.433151
 42
-0.005632
  0
VERTEX
  8
0
 10
191.378103
 20
355.888164
 42
-0.125257
  0
VERTEX
  8
0
 10
190.562667
 20
355.346617
 42
-0.324899
  0
VERTEX
  8
0
 10
189.922362
 20
355.538572
 42
-0.039986
  0
VERTEX
  8
0
 10
189.085030
 20
356.841120
 42
-0.154216
  0
VERTEX
  8
0
 10
188.524475
 20
359.830295
 42
-0.053207
  0
VERTEX
  8
0
 10
189.525197
 20
364.163547
 42
-0.049631
  0
VERTEX
  8
0
 10
191.640699
 20
368.746554
 42
-0.056184
  0
VERTEX
  8
0
 10
194.546976
 20
372.618487
 42
-0.034298
  0
VERTEX
  8
0
 10
197.023244
 20
374.907363
 42
-0.149773
  0
VERTEX
  8
0
 10
198.854586
 20
375.639223
 42
-0.276097
  0
VERTEX
  8
0
 10
200.113089
 20
375.022083
 42
-0.107976
  0
SEQEND
  0
POLYLINE
  8
0
 66
1
 70
1
  0
VERTEX
  8
0
 10
186.384990
 20
354.535184
 42
-0.016822
  0
VERTEX
  8
0
 10
187.317860
 20
353.001266
 42
-0.163677
  0
VERTEX
  8
0
 10
187.458149
 20
352.264988
 42
-0.209068
  0
VERTEX
  8
0
 10
187.105268
 20
351.687346
 42
-0.029710
  0
VERTEX
  8
0
 10
185.892640
 20
350.942543
 42
-0.094308
  0
VERTEX
  8
0
 10
183.958727
 20
350.337234
 42
-0.246726
  0
VERTEX
  8
0
 10
182.641756
 20
350.845785
 42
-0.214016
  0
VERTEX
  8
0
 10
182.193263
 20
352.312115
 42
-0.075815
  0
VERTEX
  8
0
 10
182.805687
 20
354.472874
 42
-0.015652
  0
VERTEX
  8
0
 10
183.785820
 20
356.456995
 42
-0.272258
  0
VERTEX
  8
0
 10
184.376766
 20
356.818525
 42
-0.243772
  0
VERTEX
  8
0
 10
185.026483
 20
356.495967
 42
-0.012933
  0
SEQEND
  0
POLYLINE
  8
0
 66
1
 70
1
  0
VERTEX
  8
0
 10
323.233854
 20
372.750000
 42
-0.005167
  0
VERTEX
  8
0
 10
321.784303
 20
370.202906
 42
-0.002150
  0
VERTEX
  8
0
 10
319.777155
 20
366.793086
 42
-0.002127
  0
VERTEX
  8
0
 10
317.596041
 20
363.159180
 42
-0.002748
  0
VERTEX
  8
0
 10
315.561687
 20
359.843484
 42
0.010180
  0
VERTEX
  8
0
 10
313.365119
 20
356.141069
 42
0.029457
  0
VERTEX
  8
0
 10
312.052658
 20
353.466586
 42
0.042906
  0
VERTEX
  8
0
 10
311.413673
 20
351.482399
 42
0.134076
  0
VERTEX
  8
0
 10
311.470329
 20
350.093484
 42
0.155234
  0
VERTEX
  8
0
 10
312.613603
 20
348.476178
 42
0.240485
  0
VERTEX
  8
0
 10
314.262502
 20
348.183893
 42
0.130013
  0
VERTEX
  8
0
 10
316.320787
 20
349.460453
 42
0.043937
  0
VERTEX
  8
0
 10
318.527449
 20
352.250000
 42
-0.015676
  0
VERTEX
  8
0
 10
322.100844
 20
357.332501
 42
-0.018752
  0
VERTEX
  8
0
 10
325.787974
 20
361.876812
 42
-0.020071
  0
VERTEX
  8
0
 10
329.547802
 20
365.838411
 42
-0.025425
  0
VERTEX
  8
0
 10
333.339798
 20
369.167932
 42
-0.012349
  0
VERTEX
  8
0
 10
338.801142
 20
373.276854
 42
-0.555003
  0
VERTEX
  8
0
 10
339.886118
 20
372.827013
 42
-0.177988
  0
VERTEX
  8
0
 10
339.471993
 20
370.648815
 42
-0.005114
  0
VERTEX
  8
0
 10
334.451451
 20
362.467373
 42
0.009952
  0
VERTEX
  8
0
 10
332.004856
 20
358.392504
 42
0.022265
  0
VERTEX
  8
0
 10
330.349221
 20
355.183354
 42
0.027810
  0
VERTEX
  8
0
 10
329.368133
 20
352.699426
 42
0.109643
  0
VERTEX
  8
0
 10
329.201451
 20
351.073331
 42
0.132116
  0
VERTEX
  8
0
 10
330.092873
 20
348.834850
 42
0.336181
  0
VERTEX
  8
0
 10
331.673522
 20
348.379491
 42
0.122582
  0
VERTEX
  8
0
 10
334.053004
 20
350.049935
 42
0.023750
  0
VERTEX
  8
0
 10
337.329106
 20
354.208309
 42
-0.026649
  0
VERTEX
  8
0
 10
341.682771
 20
359.669059
 42
-0.013374
  0
VERTEX
  8
0
 10
347.718270
 20
366.107539
 42
-0.006658
  0
VERTEX
  8
0
 10
353.894511
 20
372.188558
 42
-0.193438
  0
VERTEX
  8
0
 10
355.913446
 20
373.000000
 42
-0.327061
  0
VERTEX
  8
0
 10
356.731096
 20
372.401094
 42
-0.160041
  0
VERTEX
  8
0
 10
356.716149
 20
371.038818
 42
-0.052949
  0
VERTEX
  8
0
 10
355.557166
 20
368.539220
 42
-0.011696
  0
VERTEX
  8
0
 10
353.031159
 20
364.540015
 42
0.011946
  0
VERTEX
  8
0
 10
349.788404
 20
359.400359
 42
0.039370
  0
VERTEX
  8
0
 10
348.009512
 20
355.812243
 42
0.061587
  0
VERTEX
  8
0
 10
347.268218
 20
353.009198
 42
0.095647
  0
VERTEX
  8
0
 10
347.405772
 20
350.519411
 42
0.057324
  0
VERTEX
  8
0
 10
347.904087
 20
349.197241
 42
0.144485
  0
VERTEX
  8
0
 10
348.607345
 20
348.460183
 42
0.106956
  0
VERTEX
  8
0
 10
349.743303
 20
348.097836
 42
0.023923
  0
VERTEX
  8
0
 10
351.786918
 20
348.000000
 42
0.045534
  0
VERTEX
  8
0
 10
353.598635
 20
348.165334
 42
0.035520
  0
VERTEX
  8
0
 10
355.513217
 20
348.660372
 42
0.034187
  0
VERTEX
  8
0
 10
357.417624
 20
349.448485
 42
0.034044
  0
VERTEX
  8
0
 10
359.199663
 20
350.489707
 42
-0.005071
  0
VERTEX
  8
0
 10
361.667339
 20
352.130201
 42
-0.122702
  0
VERTEX
  8
0
 10
362.443229
 20
352.398028
 42
-0.351011
  0
VERTEX
  8
0
 10
362.889232
 20
352.101368
 42
-0.040251
  0
VERTEX
  8
0
 10
363.181798
 20
350.841834
 42
0.177123
  0
VERTEX
  8
0
 10
364.639784
 20
348.162741
 42
0.191181
  0
VERTEX
  8
0
 10
367.430153
 20
347.163120
 42
0.117400
  0
VERTEX
  8
0
 10
371.328823
 20
348.231777
 42
0.053884
  0
VERTEX
  8
0
 10
375.677803
 20
351.264449
 42
0.000000
  0
VERTEX
  8
0
 10
379.392286
 20
354.500000
 42
0.000000
  0
VERTEX
  8
0
 10
376.946143
 20
350.044042
 42
-0.040470
  0
VERTEX
  8
0
 10
375.156040
 20
347.329217
 42
-0.085137
  0
VERTEX
  8
0
 10
373.291826
 20
345.636931
 42
-0.046778
  0
VERTEX
  8
0
 10
370.330978
 20
344.118956
 42
-0.005668
  0
VERTEX
  8
0
 10
363.500000
 20
341.477956
 42
0.020199
  0
VERTEX
  8
0
 10
345.632148
 20
333.966123
 42
0.066100
  0
VERTEX
  8
0
 10
334.867104
 20
327.060328
 42
0.104766
  0
VERTEX
  8
0
 10
329.061474
 20
319.574272
 42
0.113197
  0
VERTEX
  8
0
 10
327.000000
 20
310.585219
 42
0.016776
  0
VERTEX
  8
0
 10
327.109616
 20
307.319130
 42
0.064679
  0
VERTEX
  8
0
 10
327.504665
 20
305.332330
 42
0.080226
  0
VERTEX
  8
0
 10
328.346687
 20
303.736690
 42
0.034946
  0
VERTEX
  8
0
 10
329.923077
 20
301.923077
 42
0.033710
  0
VERTEX
  8
0
 10
331.632871
 20
300.429501
 42
0.070232
  0
VERTEX
  8
0
 10
333.173419
 20
299.567025
 42
0.065916
  0
VERTEX
  8
0
 10
334.955569
 20
299.133739
 42
0.026721
  0
VERTEX
  8
0
 10
337.456321
 20
299.000000
 42
0.121998
  0
VERTEX
  8
0
 10
346.303997
 20
301.191414
 42
0.066224
  0
VERTEX
  8
0
 10
355.491331
 20
307.720515
 42
0.049481
  0
VERTEX
  8
0
 10
365.045614
 20
318.574177
 42
0.024511
  0
VERTEX
  8
0
 10
375.018615
 20
334.000000
 42
-0.007475
  0
VERTEX
  8
0
 10
378.756535
 20
340.237797
 42
-0.044472
  0
VERTEX
  8
0
 10
381.033476
 20
343.272495
 42
-0.060458
  0
VERTEX
  8
0
 10
383.512396
 20
345.435501
 42
-0.020721
  0
VERTEX
  8
0
 10
387.570061
 20
347.952631
 42
0.022407
  0
VERTEX
  8
0
 10
392.043633
 20
350.748686
 42
0.025078
  0
VERTEX
  8
0
 10
396.077269
 20
353.837810
 42
0.025354
  0
VERTEX
  8
0
 10
399.742713
 20
357.282814
 42
0.023965
  0
VERTEX
  8
0
 10
403.114043
 20
361.143991
 42
0.021848
  0
VERTEX
  8
0
 10
405.803094
 20
364.861971
 42
0.659885
  0
VERTEX
  8
0
 10
405.332343
 20
365.574086
 42
0.137723
  0
VERTEX
  8
0
 10
403.259063
 20
364.563293
 42
0.010845
  0
VERTEX
  8
0
 10
398.722656
 20
360.345343
 42
-0.011539
  0
VERTEX
  8
0
 10
394.188400
 20
356.141115
 42
-0.017068
  0
VERTEX
  8
0
 10
390.007845
 20
352.687666
 42
-0.013751
  0
VERTEX
  8
0
 10
386.616862
 20
350.221449
 42
-0.603549
  0
VERTEX
  8
0
 10
386.000000
 20
350.546324
 42
-0.127832
  0
VERTEX
  8
0
 10
386.125792
 20
351.030306
 42
-0.001479
  0
VERTEX
  8
0
 10
387.762500
 20
353.945901
 42
-0.004396
  0
VERTEX
  8
0
 10
389.700336
 20
357.304847
 42
-0.002841
  0
VERTEX
  8
0
 10
392.000000
 20
361.160930
 42
0.009428
  0
VERTEX
  8
0
 10
396.036790
 20
368.137105
 42
0.059492
  0
VERTEX
  8
0
 10
397.583761
 20
371.934208
 42
0.153267
  0
VERTEX
  8
0
 10
397.498322
 20
374.297608
 42
0.186906
  0
VERTEX
  8
0
 10
396.065741
 20
375.964816
 42
0.067185
  0
VERTEX
  8
0
 10
394.014960
 20
376.730254
 42
0.223185
  0
VERTEX
  8
0
 10
392.645018
 20
376.429494
 42
0.104782
  0
VERTEX
  8
0
 10
391.363345
 20
374.928395
 42
0.010110
  0
VERTEX
  8
0
 10
389.147144
 20
370.647328
 42
-0.053095
  0
VERTEX
  8
0
 10
384.642441
 20
363.518687
 42
-0.030780
  0
VERTEX
  8
0
 10
377.869032
 20
355.968007
 42
-0.037355
  0
VERTEX
  8
0
 10
371.830450
 20
350.846676
 42
-0.612937
  0
VERTEX
  8
0
 10
370.000000
 20
351.778880
 42
-0.133108
  0
VERTEX
  8
0
 10
370.146310
 20
352.318732
 42
-0.002150
  0
VERTEX
  8
0
 10
371.762500
 20
355.054365
 42
-0.005458
  0
VERTEX
  8
0
 10
373.700504
 20
358.223591
 42
-0.003574
  0
VERTEX
  8
0
 10
376.000000
 20
361.835721
 42
0.005891
  0
VERTEX
  8
0
 10
378.298830
 20
365.484025
 42
0.008509
  0
VERTEX
  8
0
 10
380.237500
 20
368.766681
 42
0.004985
  0
VERTEX
  8
0
 10
381.786213
 20
371.558453
 42
0.124768
  0
VERTEX
  8
0
 10
382.000000
 20
372.401854
 42
0.158396
  0
VERTEX
  8
0
 10
381.558010
 20
373.762055
 42
0.053079
  0
VERTEX
  8
0
 10
380.140169
 20
375.332350
 42
0.053058
  0
VERTEX
  8
0
 10
378.400868
 20
376.585378
 42
0.139289
  0
VERTEX
  8
0
 10
376.921259
 20
376.949796
 42
0.211837
  0
VERTEX
  8
0
 10
376.210785
 20
376.604132
 42
0.022441
  0
VERTEX
  8
0
 10
375.061030
 20
375.109187
 42
0.024620
  0
VERTEX
  8
0
 10
373.804735
 20
373.112055
 42
0.017319
  0
VERTEX
  8
0
 10
372.584374
 20
370.754391
 42
-0.029354
  0
VERTEX
  8
0
 10
370.863626
 20
367.617239
 42
-0.023398
  0
VERTEX
  8
0
 10
368.661133
 20
364.446917
 42
-0.021178
  0
VERTEX
  8
0
 10
365.941169
 20
361.193381
 42
-0.015404
  0
VERTEX
  8
0
 10
362.658680
 20
357.804594
 42
-0.006550
  0
VERTEX
  8
0
 10
355.437246
 20
350.976267
 42
-0.440413
  0
VERTEX
  8
0
 10
353.922746
 20
351.105889
 42
-0.312743
  0
VERTEX
  8
0
 10
353.830398
 20
352.970056
 42
-0.005547
  0
VERTEX
  8
0
 10
359.518304
 20
361.886949
 42
0.018992
  0
VERTEX
  8
0
 10
363.166276
 20
367.959982
 42
0.067756
  0
VERTEX
  8
0
 10
364.792056
 20
372.181152
 42
0.146102
  0
VERTEX
  8
0
 10
364.633700
 20
374.916934
 42
0.232956
  0
VERTEX
  8
0
 10
362.977529
 20
376.507132
 42
0.093793
  0
VERTEX
  8
0
 10
360.337788
 20
376.826214
 42
0.067820
  0
VERTEX
  8
0
 10
357.427605
 20
376.229685
 42
0.056658
  0
VERTEX
  8
0
 10
354.313133
 20
374.722119
 42
0.036001
  0
VERTEX
  8
0
 10
351.068088
 20
372.326286
 42
-0.002691
  0
VERTEX
  8
0
 10
348.235902
 20
369.928327
 42
-0.109682
  0
VERTEX
  8
0
 10
347.523582
 20
369.558669
 42
-0.541619
  0
VERTEX
  8
0
 10
347.241693
 20
369.812245
 42
-0.022844
  0
VERTEX
  8
0
 10
347.562494
 20
371.392972
 42
0.196091
  0
VERTEX
  8
0
 10
347.036029
 20
375.092319
 42
0.240546
  0
VERTEX
  8
0
 10
344.133907
 20
376.952662
 42
0.136809
  0
VERTEX
  8
0
 10
339.307469
 20
376.104232
 42
0.073336
  0
VERTEX
  8
0
 10
334.250000
 20
372.700723
 42
0.000000
  0
VERTEX
  8
0
 10
332.000000
 20
370.651372
 42
0.000000
  0
VERTEX
  8
0
 10
332.000000
 20
372.768982
 42
0.143540
  0
VERTEX
  8
0
 10
331.551100
 20
374.300443
 42
0.051816
  0
VERTEX
  8
0
 10
330.121457
 20
376.090939
 42
0.051810
  0
VERTEX
  8
0
 10
328.359240
 20
377.545145
 42
0.147659
  0
VERTEX
  8
0
 10
326.852603
 20
378.000000
 42
0.237044
  0
VERTEX
  8
0
 10
326.465327
 20
377.805467
 42
0.009076
  0
VERTEX
  8
0
 10
325.499862
 20
376.457812
 42
0.014558
  0
VERTEX
  8
0
 10
324.402348
 20
374.761956
 42
0.009555
  0
SEQEND
  0
POLYLINE
  8
0
 66
1
 70
1
  0
VERTEX
  8
0
 10
369.877304
 20
337.750000
 42
-0.025615
  0
VERTEX
  8
0
 10
366.552772
 20
332.188373
 42
-0.006418
  0
VERTEX
  8
0
 10
360.556782
 20
323.477004
 42
-0.006468
  0
VERTEX
  8
0
 10
354.329844
 20
314.911389
 42
-0.024738
  0
VERTEX
  8
0
 10
350.125927
 20
309.828162
 42
-0.026212
  0
VERTEX
  8
0
 10
346.414654
 20
306.171992
 42
-0.037487
  0
VERTEX
  8
0
 10
342.738669
 20
303.374192
 42
-0.043831
  0
VERTEX
  8
0
 10
339.345686
 20
301.573017
 42
-0.100441
  0
VERTEX
  8
0
 10
336.521948
 20
301.000000
 42
-0.112176
  0
VERTEX
  8
0
 10
335.684505
 20
301.190276
 42
-0.029848
  0
VERTEX
  8
0
 10
334.479764
 20
301.858654
 42
-0.028712
  0
VERTEX
  8
0
 10
333.165215
 20
302.804282
 42
-0.026104
  0
VERTEX
  8
0
 10
331.923077
 20
303.923077
 42
-0.074519
  0
VERTEX
  8
0
 10
329.986951
 20
306.541849
 42
-0.090947
  0
VERTEX
  8
0
 10
329.069013
 20
309.442621
 42
-0.087445
  0
VERTEX
  8
0
 10
329.223540
 20
312.570387
 42
-0.063445
  0
VERTEX
  8
0
 10
330.423223
 20
315.851529
 42
-0.064824
  0
VERTEX
  8
0
 10
332.396401
 20
318.694549
 42
-0.020215
  0
VERTEX
  8
0
 10
336.043883
 20
322.406722
 42
-0.020629
  0
VERTEX
  8
0
 10
340.284580
 20
326.070284
 42
-0.029960
  0
VERTEX
  8
0
 10
344.333151
 20
328.908095
 42
-0.032927
  0
VERTEX
  8
0
 10
348.536223
 20
331.126391
 42
-0.004047
  0
VERTEX
  8
0
 10
358.058220
 20
335.284181
 42
-0.001958
  0
VERTEX
  8
0
 10
368.161581
 20
339.552094
 42
-0.096317
  0
VERTEX
  8
0
 10
370.285184
 20
339.990822
 42
-0.368317
  0
VERTEX
  8
0
 10
370.491469
 20
339.819138
 42
-0.087961
  0
VERTEX
  8
0
 10
370.489258
 20
339.336367
 42
-0.051181
  0
VERTEX
  8
0
 10
370.279385
 20
338.612845
 42
-0.025745
  0
SEQEND
  0
POLYLINE
  8
0
 66
1
 70
1
  0
VERTEX
  8
0
 10
188.892125
 20
120.645662
 42
0.018149
  0
VERTEX
  8
0
 10
183.404270
 20
118.151647
 42
0.033441
  0
VERTEX
  8
0
 10
179.174547
 20
115.675034
 42
0.034203
  0
VERTEX
  8
0
 10
175.375518
 20
112.696372
 42
0.019989
  0
VERTEX
  8
0
 10
171.234008
 20
108.653913
 42
0.034543
  0
VERTEX
  8
0
 10
167.898881
 20
104.600366
 42
0.063156
  0
VERTEX
  8
0
 10
165.874689
 20
100.835076
 42
0.075712
  0
VERTEX
  8
0
 10
165.074718
 20
97.189064
 42
0.077846
  0
VERTEX
  8
0
 10
165.408994
 20
93.506573
 42
0.044436
  0
VERTEX
  8
0
 10
166.094081
 20
91.536835
 42
0.362219
  0
VERTEX
  8
0
 10
166.890012
 20
91.150170
 42
0.224341
  0
VERTEX
  8
0
 10
167.772461
 20
91.869900
 42
0.024571
  0
VERTEX
  8
0
 10
168.809161
 20
94.348789
 42
-0.098052
  0
VERTEX
  8
0
 10
174.168271
 20
103.239574
 42
-0.049425
  0
VERTEX
  8
0
 10
183.928711
 20
112.046573
 42
-0.049667
  0
VERTEX
  8
0
 10
194.871630
 20
118.547793
 42
-0.132045
  0
VERTEX
  8
0
 10
203.750000
 20
120.110691
 42
-0.475495
  0
VERTEX
  8
0
 10
204.939247
 20
118.352715
 42
-0.052356
  0
VERTEX
  8
0
 10
202.774774
 20
113.198069
 42
-0.024253
  0
VERTEX
  8
0
 10
197.345047
 20
104.355082
 42
-0.004870
  0
VERTEX
  8
0
 10
186.771553
 20
89.191118
 42
0.005558
  0
VERTEX
  8
0
 10
177.227526
 20
75.463310
 42
0.013069
  0
VERTEX
  8
0
 10
170.489408
 20
64.957073
 42
0.013068
  0
VERTEX
  8
0
 10
165.949416
 20
56.990828
 42
0.123589
  0
VERTEX
  8
0
 10
165.000000
 20
53.208474
 42
0.036153
  0
VERTEX
  8
0
 10
165.075072
 20
52.171568
 42
0.023271
  0
VERTEX
  8
0
 10
165.304085
 20
50.987691
 42
0.023381
  0
VERTEX
  8
0
 10
165.638293
 20
49.844287
 42
0.040090
  0
VERTEX
  8
0
 10
166.035184
 20
48.934259
 42
0.130786
  0
VERTEX
  8
0
 10
167.207852
 20
47.679246
 42
0.106024
  0
VERTEX
  8
0
 10
168.945626
 20
47.048941
 42
0.149130
  0
VERTEX
  8
0
 10
170.401354
 20
47.282947
 42
0.284179
  0
VERTEX
  8
0
 10
171.009769
 20
48.250000
 42
-0.113049
  0
VERTEX
  8
0
 10
171.758846
 20
51.407143
 42
-0.021270
  0
VERTEX
  8
0
 10
174.625358
 20
56.646399
 42
-0.021238
  0
VERTEX
  8
0
 10
178.655451
 20
62.722677
 42
-0.016107
  0
VERTEX
  8
0
 10
183.561312
 20
69.039703
 42
-0.013045
  0
VERTEX
  8
0
 10
195.412494
 20
82.589784
 42
-0.018121
  0
VERTEX
  8
0
 10
206.763905
 20
94.042828
 42
-0.011408
  0
VERTEX
  8
0
 10
216.655145
 20
102.908977
 42
-0.391718
  0
VERTEX
  8
0
 10
219.535913
 20
102.797420
 42
-0.341219
  0
VERTEX
  8
0
 10
219.602170
 20
102.281542
 42
-0.003010
  0
VERTEX
  8
0
 10
217.460103
 20
98.674943
 42
-0.008630
  0
VERTEX
  8
0
 10
214.837750
 20
94.484996
 42
-0.005269
  0
VERTEX
  8
0
 10
211.605894
 20
89.626884
 42
0.009379
  0
VERTEX
  8
0
 10
205.670762
 20
80.544211
 42
0.013862
  0
VERTEX
  8
0
 10
200.840109
 20
72.343312
 42
0.015306
  0
VERTEX
  8
0
 10
197.292747
 20
65.428307
 42
0.051604
  0
VERTEX
  8
0
 10
195.598991
 20
60.644111
 42
0.100995
  0
VERTEX
  8
0
 10
195.506033
 20
58.051324
 42
0.090037
  0
VERTEX
  8
0
 10
196.418971
 20
55.511445
 42
0.099990
  0
VERTEX
  8
0
 10
198.055712
 20
53.660165
 42
0.163307
  0
VERTEX
  8
0
 10
200.023053
 20
53.000000
 42
0.081598
  0
VERTEX
  8
0
 10
200.962236
 20
53.154298
 42
0.154169
  0
VERTEX
  8
0
 10
201.575659
 20
53.603059
 42
0.117496
  0
VERTEX
  8
0
 10
201.921721
 20
54.423064
 42
0.037564
  0
VERTEX
  8
0
 10
202.041916
 20
55.750000
 42
-0.091074
  0
VERTEX
  8
0
 10
202.710623
 20
59.102381
 42
-0.049388
  0
VERTEX
  8
0
 10
204.647697
 20
62.848437
 42
-0.029428
  0
VERTEX
  8
0
 10
208.282456
 20
67.784013
 42
-0.007395
  0
VERTEX
  8
0
 10
214.784681
 20
75.373488
 42
-0.015527
  0
VERTEX
  8
0
 10
225.276553
 20
86.540504
 42
-0.025873
  0
VERTEX
  8
0
 10
234.857261
 20
95.179765
 42
-0.033991
  0
VERTEX
  8
0
 10
242.005360
 20
100.219274
 42
-0.584885
  0
VERTEX
  8
0
 10
244.000000
 20
99.097434
 42
-0.139454
  0
VERTEX
  8
0
 10
243.820670
 20
98.466964
 42
-0.001688
  0
VERTEX
  8
0
 10
241.549313
 20
94.824837
 42
-0.004887
  0
VERTEX
  8
0
 10
238.854828
 20
90.628163
 42
-0.003158
  0
VERTEX
  8
0
 10
235.657235
 20
85.819858
 42
0.006607
  0
VERTEX
  8
0
 10
232.218417
 20
80.570644
 42
0.005900
  0
VERTEX
  8
0
 10
228.784751
 20
75.031858
 42
0.005928
  0
VERTEX
  8
0
 10
225.817043
 20
69.981746
 42
0.018249
  0
VERTEX
  8
0
 10
223.976915
 20
66.472424
 42
0.067433
  0
VERTEX
  8
0
 10
220.402921
 20
55.383267
 42
0.133764
  0
VERTEX
  8
0
 10
221.216204
 20
46.251567
 42
0.154137
  0
VERTEX
  8
0
 10
226.361075
 20
39.631280
 42
0.099711
  0
VERTEX
  8
0
 10
235.349839
 20
35.772264
 42
0.036858
  0
VERTEX
  8
0
 10
239.134584
 20
35.265629
 42
0.044434
  0
VERTEX
  8
0
 10
242.719360
 20
35.371131
 42
0.022693
  0
VERTEX
  8
0
 10
247.764604
 20
36.204026
 42
0.003088
  0
VERTEX
  8
0
 10
258.218995
 20
38.488788
 42
-0.011655
  0
VERTEX
  8
0
 10
272.977376
 20
41.450179
 42
-0.028056
  0
VERTEX
  8
0
 10
284.038820
 20
42.768501
 42
-0.037408
  0
VERTEX
  8
0
 10
292.923647
 20
42.659613
 42
-0.052009
  0
VERTEX
  8
0
 10
300.730960
 20
41.150336
 42
-0.019569
  0
VERTEX
  8
0
 10
303.648770
 20
40.137793
 42
-0.022582
  0
VERTEX
  8
0
 10
306.339162
 20
38.941792
 42
-0.024368
  0
VERTEX
  8
0
 10
308.560000
 20
37.693151
 42
-0.064010
  0
VERTEX
  8
0
 10
309.968236
 20
36.533811
 42
0.028843
  0
VERTEX
  8
0
 10
310.990701
 20
35.564072
 42
0.031087
  0
VERTEX
  8
0
 10
312.093766
 20
34.744307
 42
0.032715
  0
VERTEX
  8
0
 10
313.119969
 20
34.168195
 42
0.112002
  0
VERTEX
  8
0
 10
313.861405
 20
34.000000
 42
0.596902
  0
VERTEX
  8
0
 10
314.302066
 20
34.817237
 42
0.056930
  0
VERTEX
  8
0
 10
312.444988
 20
37.042311
 42
0.034703
  0
VERTEX
  8
0
 10
309.031704
 20
39.871983
 42
0.032231
  0
VERTEX
  8
0
 10
305.177224
 20
42.279796
 42
0.042537
  0
VERTEX
  8
0
 10
300.072590
 20
44.491795
 42
0.034234
  0
VERTEX
  8
0
 10
294.282946
 20
46.003741
 42
0.033973
  0
VERTEX
  8
0
 10
288.287996
 20
46.721010
 42
0.039878
  0
VERTEX
  8
0
 10
282.568329
 20
46.557646
 42
0.014216
  0
VERTEX
  8
0
 10
279.193132
 20
46.093369
 42
0.002986
  0
VERTEX
  8
0
 10
273.320630
 20
45.078664
 42
0.003128
  0
VERTEX
  8
0
 10
266.520300
 20
43.817816
 42
0.002958
  0
VERTEX
  8
0
 10
259.608285
 20
42.449033
 42
-0.009284
  0
VERTEX
  8
0
 10
246.421860
 20
40.010687
 42
-0.030323
  0
VERTEX
  8
0
 10
237.599223
 20
39.092918
 42
-0.046992
  0
VERTEX
  8
0
 10
231.523756
 20
39.402370
 42
-0.131173
  0
VERTEX
  8
0
 10
227.634859
 20
41.072580
 42
-0.215543
  0
VERTEX
  8
0
 10
225.212883
 20
45.728281
 42
-0.105634
  0
VERTEX
  8
0
 10
226.269256
 20
52.471814
 42
-0.042763
  0
VERTEX
  8
0
 10
231.513618
 20
63.291162
 42
-0.006800
  0
VERTEX
  8
0
 10
243.847129
 20
83.388463
 42
0.006362
  0
VERTEX
  8
0
 10
247.615924
 20
89.517602
 42
0.017146
  0
VERTEX
  8
0
 10
250.086147
 20
93.993570
 42
0.022302
  0
VERTEX
  8
0
 10
251.590532
 20
97.313991
 42
0.095491
  0
VERTEX
  8
0
 10
252.000000
 20
99.438463
 42
0.057851
  0
VERTEX
  8
0
 10
251.723521
 20
101.820062
 42
0.107447
  0
VERTEX
  8
0
 10
250.889756
 20
103.567372
 42
0.127416
  0
VERTEX
  8
0
 10
249.522593
 20
104.624146
 42
0.101490
  0
VERTEX
  8
0
 10
247.689977
 20
105.000000
 42
0.120396
  0
VERTEX
  8
0
 10
243.918515
 20
104.078503
 42
0.024259
  0
VERTEX
  8
0
 10
237.908533
 20
100.574998
 42
0.024421
  0
VERTEX
  8
0
 10
231.179230
 20
95.718606
 42
0.021127
  0
VERTEX
  8
0
 10
224.609001
 20
90.000000
 42
0.000000
  0
VERTEX
  8
0
 10
215.638189
 20
81.500000
 42
0.000000
  0
VERTEX
  8
0
 10
219.674562
 20
87.500000
 42
0.008918
  0
VERTEX
  8
0
 10
223.268569
 20
93.053798
 42
0.027186
  0
VERTEX
  8
0
 10
225.430011
 20
96.990070
 42
0.040383
  0
VERTEX
  8
0
 10
226.613180
 20
100.067174
 42
0.071712
  0
VERTEX
  8
0
 10
227.000000
 20
102.750340
 42
0.242423
  0
VERTEX
  8
0
 10
224.943996
 20
106.741659
 42
0.240998
  0
VERTEX
  8
0
 10
220.491563
 20
107.398561
 42
0.085893
  0
VERTEX
  8
0
 10
213.005636
 20
103.329751
 42
0.025074
  0
VERTEX
  8
0
 10
203.108359
 20
94.660301
 42
0.000000
  0
VERTEX
  8
0
 10
195.716718
 20
87.500000
 42
0.000000
  0
VERTEX
  8
0
 10
200.395375
 20
94.178863
 42
0.016032
  0
VERTEX
  8
0
 10
204.536375
 20
100.513013
 42
0.015106
  0
VERTEX
  8
0
 10
208.350114
 20
107.224448
 42
0.011987
  0
VERTEX
  8
0
 10
211.365651
 20
113.271947
 42
0.110089
  0
VERTEX
  8
0
 10
212.000000
 20
116.118118
 42
0.091059
  0
VERTEX
  8
0
 10
211.829408
 20
117.047059
 42
0.035762
  0
VERTEX
  8
0
 10
211.278977
 20
118.232424
 42
0.033917
  0
VERTEX
  8
0
 10
210.484749
 20
119.460615
 42
0.035906
  0
VERTEX
  8
0
 10
209.545455
 20
120.545455
 42
0.049597
  0
VERTEX
  8
0
 10
207.973840
 20
121.832778
 42
0.079214
  0
VERTEX
  8
0
 10
206.398736
 20
122.553387
 42
0.055152
  0
VERTEX
  8
0
 10
204.296778
 20
122.894285
 42
0.013591
  0
VERTEX
  8
0
 10
200.795455
 20
122.976265
 42
0.022651
  0
VERTEX
  8
0
 10
197.673297
 20
122.822957
 42
0.024753
  0
VERTEX
  8
0
 10
194.670035
 20
122.387924
 42
0.025017
  0
VERTEX
  8
0
 10
191.753809
 20
121.663841
 42
0.024221
  0
SEQEND
  0
POLYLINE
  8
0
 66
1
 70
1
  0
VERTEX
  8
0
 10
320.357130
 20
106.651891
 42
-0.024258
  0
VERTEX
  8
0
 10
317.464045
 20
104.862015
 42
-0.050088
  0
VERTEX
  8
0
 10
315.022632
 20
103.814120
 42
-0.043789
  0
VERTEX
  8
0
 10
312.218628
 20
103.193503
 42
-0.014719
  0
VERTEX
  8
0
 10
308.045060
 20
102.771111
 42
-0.007336
  0
VERTEX
  8
0
 10
303.504603
 20
102.513139
 42
-0.059543
  0
VERTEX
  8
0
 10
301.431066
 20
102.672830
 42
-0.116217
  0
VERTEX
  8
0
 10
300.060554
 20
103.296741
 42
-0.061498
  0
VERTEX
  8
0
 10
298.727561
 20
104.619220
 42
0.074505
  0
VERTEX
  8
0
 10
296.814100
 20
106.421717
 42
0.178741
  0
VERTEX
  8
0
 10
294.955918
 20
106.902259
 42
0.188310
  0
VERTEX
  8
0
 10
293.298908
 20
106.054410
 42
0.083416
  0
VERTEX
  8
0
 10
291.973879
 20
103.936939
 42
-0.068850
  0
VERTEX
  8
0
 10
291.033135
 20
102.332017
 42
-0.054970
  0
VERTEX
  8
0
 10
289.624869
 20
100.901310
 42
-0.041273
  0
VERTEX
  8
0
 10
287.570035
 20
99.492581
 42
-0.017372
  0
VERTEX
  8
0
 10
284.602559
 20
97.933566
 42
0.000000
  0
VERTEX
  8
0
 10
278.500000
 20
94.993253
 42
0.000000
  0
VERTEX
  8
0
 10
282.750000
 20
95.508444
 42
-0.012245
  0
VERTEX
  8
0
 10
284.379654
 20
95.665609
 42
-0.020666
  0
VERTEX
  8
0
 10
285.751562
 20
95.707227
 42
-0.016135
  0
VERTEX
  8
0
 10
286.815034
 20
95.661185
 42
-0.392259
  0
VERTEX
  8
0
 10
287.000000
 20
95.461692
 42
-0.137628
  0
VERTEX
  8
0
 10
286.885510
 20
95.053630
 42
-0.000613
  0
VERTEX
  8
0
 10
284.514192
 20
91.171108
 42
-0.002867
  0
VERTEX
  8
0
 10
281.781652
 20
86.766380
 42
-0.001799
  0
VERTEX
  8
0
 10
278.537676
 20
81.644560
 42
-0.009361
  0
VERTEX
  8
0
 10
274.518251
 20
75.601125
 42
-0.012129
  0
VERTEX
  8
0
 10
270.597509
 20
70.222453
 42
-0.013489
  0
VERTEX
  8
0
 10
266.912983
 20
65.676544
 42
-0.024399
  0
VERTEX
  8
0
 10
263.624230
 20
62.194686
 42
-0.004245
  0
VERTEX
  8
0
 10
261.109231
 20
59.820367
 42
-0.006592
  0
VERTEX
  8
0
 10
258.895825
 20
57.819689
 42
-0.002470
  0
VERTEX
  8
0
 10
256.972410
 20
56.143456
 42
-0.179878
  0
VERTEX
  8
0
 10
256.586554
 20
56.000000
 42
-0.529513
  0
VERTEX
  8
0
 10
255.873070
 20
57.050003
 42
-0.031881
  0
VERTEX
  8
0
 10
257.811524
 20
61.158380
 42
-0.024051
  0
VERTEX
  8
0
 10
261.460527
 20
67.074247
 42
-0.010047
  0
VERTEX
  8
0
 10
266.913053
 20
74.697619
 42
0.015204
  0
VERTEX
  8
0
 10
268.326509
 20
76.717517
 42
0.114688
  0
VERTEX
  8
0
 10
268.725336
 20
77.804076
 42
0.146789
  0
VERTEX
  8
0
 10
268.550903
 20
78.832026
 42
0.030123
  0
VERTEX
  8
0
 10
267.626278
 20
80.447619
 42
0.091722
  0
VERTEX
  8
0
 10
266.117692
 20
82.025431
 42
0.097557
  0
VERTEX
  8
0
 10
264.175406
 20
82.917127
 42
0.161082
  0
VERTEX
  8
0
 10
262.654023
 20
82.789755
 42
0.300551
  0
VERTEX
  8
0
 10
262.000000
 20
81.800000
 42
-0.051663
  0
VERTEX
  8
0
 10
261.943785
 20
81.257401
 42
-0.354955
  0
VERTEX
  8
0
 10
261.750000
 20
81.100000
 42
-0.180052
  0
VERTEX
  8
0
 10
261.421376
 20
81.222304
 42
-0.018208
  0
VERTEX
  8
0
 10
260.800000
 20
81.800000
 42
0.318237
  0
VERTEX
  8
0
 10
255.162901
 20
82.762962
 42
0.075472
  0
VERTEX
  8
0
 10
246.822728
 20
77.085600
 42
0.065961
  0
VERTEX
  8
0
 10
239.474595
 20
68.195698
 42
0.131100
  0
VERTEX
  8
0
 10
236.808429
 20
59.524199
 42
0.101683
  0
VERTEX
  8
0
 10
237.448804
 20
55.680637
 42
0.191574
  0
VERTEX
  8
0
 10
239.551651
 20
53.406686
 42
0.185297
  0
VERTEX
  8
0
 10
242.702114
 20
53.155787
 42
0.095173
  0
VERTEX
  8
0
 10
246.272871
 20
55.000000
 42
-0.010154
  0
VERTEX
  8
0
 10
248.371854
 20
56.583137
 42
-0.157765
  0
VERTEX
  8
0
 10
249.219035
 20
56.857272
 42
-0.300982
  0
VERTEX
  8
0
 10
249.784057
 20
56.483268
 42
-0.036413
  0
VERTEX
  8
0
 10
250.289749
 20
55.000000
 42
0.255318
  0
VERTEX
  8
0
 10
251.996716
 20
53.188634
 42
0.138417
  0
VERTEX
  8
0
 10
255.142963
 20
53.062653
 42
0.083176
  0
VERTEX
  8
0
 10
259.307605
 20
54.828515
 42
0.047645
  0
VERTEX
  8
0
 10
263.623202
 20
58.193264
 42
0.000000
  0
VERTEX
  8
0
 10
266.746405
 20
61.146539
 42
0.000000
  0
VERTEX
  8
0
 10
267.374704
 20
58.643197
 42
0.113463
  0
VERTEX
  8
0
 10
269.228945
 20
55.009660
 42
0.171759
  0
VERTEX
  8
0
 10
272.256997
 20
53.224166
 42
0.135616
  0
VERTEX
  8
0
 10
276.315425
 20
53.537330
 42
0.061734
  0
VERTEX
  8
0
 10
281.099519
 20
55.966949
 42
-0.004581
  0
VERTEX
  8
0
 10
284.045068
 20
57.913921
 42
-0.104968
  0
VERTEX
  8
0
 10
284.984129
 20
58.273542
 42
-0.352393
  0
VERTEX
  8
0
 10
285.511083
 20
57.971093
 42
-0.053851
  0
VERTEX
  8
0
 10
285.850815
 20
56.716949
 42
0.066553
  0
VERTEX
  8
0
 10
286.273670
 20
55.299172
 42
0.075922
  0
VERTEX
  8
0
 10
287.042299
 20
54.111318
 42
0.085224
  0
VERTEX
  8
0
 10
288.041483
 20
53.311724
 42
0.120778
  0
VERTEX
  8
0
 10
289.136034
 20
53.015313
 42
0.248185
  0
VERTEX
  8
0
 10
289.503859
 20
53.198683
 42
0.004676
  0
VERTEX
  8
0
 10
290.778200
 20
55.012558
 42
0.010232
  0
VERTEX
  8
0
 10
292.230647
 20
57.216839
 42
0.006524
  0
VERTEX
  8
0
 10
293.833231
 20
59.835949
 42
-0.024427
  0
VERTEX
  8
0
 10
295.860969
 20
62.898062
 42
-0.013159
  0
VERTEX
  8
0
 10
298.637061
 20
66.474529
 42
-0.013077
  0
VERTEX
  8
0
 10
301.664463
 20
69.978678
 42
-0.020015
  0
VERTEX
  8
0
 10
304.483783
 20
72.835949
 42
-0.008176
  0
VERTEX
  8
0
 10
311.337823
 20
79.040559
 42
-0.425756
  0
VERTEX
  8
0
 10
312.945932
 20
78.902459
 42
-0.312130
  0
VERTEX
  8
0
 10
313.090966
 20
76.972611
 42
-0.006857
  0
VERTEX
  8
0
 10
307.978004
 20
68.515906
 42
0.015062
  0
VERTEX
  8
0
 10
304.726485
 20
62.933104
 42
0.064506
  0
VERTEX
  8
0
 10
303.342051
 20
59.347086
 42
0.121040
  0
VERTEX
  8
0
 10
303.345451
 20
56.743734
 42
0.136637
  0
VERTEX
  8
0
 10
304.571429
 20
54.571429
 42
0.117422
  0
VERTEX
  8
0
 10
306.543416
 20
53.357981
 42
0.114636
  0
VERTEX
  8
0
 10
308.868957
 20
53.149110
 42
0.084280
  0
VERTEX
  8
0
 10
311.617222
 20
54.019954
 42
0.037990
  0
VERTEX
  8
0
 10
314.849962
 20
56.006272
 42
-0.007474
  0
VERTEX
  8
0
 10
317.201690
 20
57.656824
 42
-0.079049
  0
VERTEX
  8
0
 10
318.259519
 20
58.153855
 42
-0.331956
  0
VERTEX
  8
0
 10
318.779555
 20
57.958383
 42
-0.143532
  0
VERTEX
  8
0
 10
319.000000
 20
57.206272
 42
0.188438
  0
VERTEX
  8
0
 10
320.140587
 20
54.287312
 42
0.205732
  0
VERTEX
  8
0
 10
322.907811
 20
53.051618
 42
0.118104
  0
VERTEX
  8
0
 10
327.105836
 20
53.994542
 42
0.053258
  0
VERTEX
  8
0
 10
331.910202
 20
57.023254
 42
-0.003604
  0
VERTEX
  8
0
 10
335.283427
 20
59.650353
 42
-0.089655
  0
VERTEX
  8
0
 10
336.326336
 20
60.187544
 42
-0.428661
  0
VERTEX
  8
0
 10
336.835568
 20
59.900611
 42
-0.062015
  0
VERTEX
  8
0
 10
337.000000
 20
58.579957
 42
0.131775
  0
VERTEX
  8
0
 10
337.542660
 20
56.556675
 42
0.089444
  0
VERTEX
  8
0
 10
339.092150
 20
54.726340
 42
0.083039
  0
VERTEX
  8
0
 10
341.309396
 20
53.444456
 42
0.089865
  0
VERTEX
  8
0
 10
343.762344
 20
53.000000
 42
0.086206
  0
VERTEX
  8
0
 10
346.281191
 20
53.437531
 42
0.028702
  0
VERTEX
  8
0
 10
349.740181
 20
54.905526
 42
0.029003
  0
VERTEX
  8
0
 10
353.038591
 20
56.779820
 42
0.076170
  0
VERTEX
  8
0
 10
355.066898
 20
58.583247
 42
-0.021072
  0
VERTEX
  8
0
 10
355.944165
 20
59.555452
 42
-0.336968
  0
VERTEX
  8
0
 10
356.356344
 20
59.615434
 42
-0.214914
  0
VERTEX
  8
0
 10
356.660575
 20
59.208421
 42
-0.010437
  0
VERTEX
  8
0
 10
357.000000
 20
57.513276
 42
0.145830
  0
VERTEX
  8
0
 10
358.600512
 20
54.333879
 42
0.211730
  0
VERTEX
  8
0
 10
361.455941
 20
53.134977
 42
0.130566
  0
VERTEX
  8
0
 10
365.449857
 20
54.281050
 42
0.048940
  0
VERTEX
  8
0
 10
370.171469
 20
57.773877
 42
-0.005574
  0
VERTEX
  8
0
 10
372.438780
 20
59.776809
 42
-0.074132
  0
VERTEX
  8
0
 10
373.377465
 20
60.371119
 42
-0.526862
  0
VERTEX
  8
0
 10
373.706029
 20
60.168144
 42
-0.088968
  0
VERTEX
  8
0
 10
373.590859
 20
59.286270
 42
0.104782
  0
VERTEX
  8
0
 10
373.374678
 20
57.099296
 42
0.105716
  0
VERTEX
  8
0
 10
374.065778
 20
55.020258
 42
0.115705
  0
VERTEX
  8
0
 10
375.478512
 20
53.539691
 42
0.146061
  0
VERTEX
  8
0
 10
377.285184
 20
53.003738
 42
0.109182
  0
VERTEX
  8
0
 10
380.196573
 20
53.652303
 42
0.052029
  0
VERTEX
  8
0
 10
383.503401
 20
55.637459
 42
0.039595
  0
VERTEX
  8
0
 10
387.225489
 20
58.926882
 42
0.019545
  0
VERTEX
  8
0
 10
391.431543
 20
63.638241
 42
0.005954
  0
VERTEX
  8
0
 10
394.845908
 20
67.879531
 42
0.035120
  0
VERTEX
  8
0
 10
396.446018
 20
70.240215
 42
0.123942
  0
VERTEX
  8
0
 10
396.797014
 20
71.466167
 42
0.423682
  0
VERTEX
  8
0
 10
396.280109
 20
72.000000
 42
0.191603
  0
VERTEX
  8
0
 10
395.817971
 20
71.816156
 42
0.002949
  0
VERTEX
  8
0
 10
393.706592
 20
69.796762
 42
0.007406
  0
VERTEX
  8
0
 10
391.276642
 20
67.374359
 42
0.004775
  0
VERTEX
  8
0
 10
388.530109
 20
64.499614
 42
-0.008504
  0
VERTEX
  8
0
 10
385.743185
 20
61.625809
 42
-0.012462
  0
VERTEX
  8
0
 10
383.187572
 20
59.202580
 42
-0.007876
  0
VERTEX
  8
0
 10
380.992208
 20
57.284304
 42
-0.177502
  0
VERTEX
  8
0
 10
380.214816
 20
56.999614
 42
-0.458800
  0
VERTEX
  8
0
 10
379.637798
 20
57.670661
 42
-0.086739
  0
VERTEX
  8
0
 10
380.223097
 20
59.418456
 42
-0.028373
  0
VERTEX
  8
0
 10
382.264833
 20
62.726920
 42
-0.004616
  0
VERTEX
  8
0
 10
386.643839
 20
68.875308
 42
0.019571
  0
VERTEX
  8
0
 10
390.130549
 20
74.094368
 42
0.073667
  0
VERTEX
  8
0
 10
391.668795
 20
77.704754
 42
0.149310
  0
VERTEX
  8
0
 10
391.566595
 20
80.212591
 42
0.187719
  0
VERTEX
  8
0
 10
390.065741
 20
81.964816
 42
0.058203
  0
VERTEX
  8
0
 10
388.101990
 20
82.738077
 42
0.222770
  0
VERTEX
  8
0
 10
386.841838
 20
82.509373
 42
0.108571
  0
VERTEX
  8
0
 10
385.664754
 20
81.211372
 42
0.009692
  0
VERTEX
  8
0
 10
383.536529
 20
77.324050
 42
-0.039651
  0
VERTEX
  8
0
 10
380.298696
 20
72.168604
 42
-0.020846
  0
VERTEX
  8
0
 10
375.527452
 20
66.289252
 42
-0.019831
  0
VERTEX
  8
0
 10
370.539522
 20
61.073469
 42
-0.072833
  0
VERTEX
  8
0
 10
366.838964
 20
58.416725
 42
-0.125650
  0
VERTEX
  8
0
 10
364.822335
 20
57.950368
 42
-0.500608
  0
VERTEX
  8
0
 10
364.199393
 20
58.823316
 42
-0.067437
  0
VERTEX
  8
0
 10
365.631290
 20
61.840252
 42
-0.007087
  0
VERTEX
  8
0
 10
370.000000
 20
68.337162
 42
0.006785
  0
VERTEX
  8
0
 10
372.298704
 20
71.751220
 42
0.009695
  0
VERTEX
  8
0
 10
374.237500
 20
74.846218
 42
0.006082
  0
VERTEX
  8
0
 10
375.771854
 20
77.476546
 42
0.129697
  0
VERTEX
  8
0
 10
376.000000
 20
78.341284
 42
0.155200
  0
VERTEX
  8
0
 10
375.557696
 20
79.731912
 42
0.054407
  0
VERTEX
  8
0
 10
374.151410
 20
81.320534
 42
0.054263
  0
VERTEX
  8
0
 10
372.404383
 20
82.591852
 42
0.130905
  0
VERTEX
  8
0
 10
370.872148
 20
83.000000
 42
0.176924
  0
VERTEX
  8
0
 10
370.220244
 20
82.761872
 42
0.051292
  0
VERTEX
  8
0
 10
369.464580
 20
81.979220
 42
0.044647
  0
VERTEX
  8
0
 10
368.734316
 20
80.855130
 42
0.034994
  0
VERTEX
  8
0
 10
368.145203
 20
79.525005
 42
-0.058613
  0
VERTEX
  8
0
 10
365.940185
 20
75.119595
 42
-0.021588
  0
VERTEX
  8
0
 10
361.870281
 20
69.470598
 42
-0.021875
  0
VERTEX
  8
0
 10
357.224944
 20
64.079633
 42
-0.045695
  0
VERTEX
  8
0
 10
353.079563
 20
60.410821
 42
-0.040758
  0
VERTEX
  8
0
 10
349.243202
 20
58.049801
 42
-0.085285
  0
VERTEX
  8
0
 10
345.905058
 20
57.016971
 42
-0.185967
  0
VERTEX
  8
0
 10
343.875262
 20
57.509033
 42
-0.286202
  0
VERTEX
  8
0
 10
343.180449
 20
59.117633
 42
-0.122070
  0
VERTEX
  8
0
 10
343.630703
 20
60.204615
 42
-0.075145
  0
VERTEX
  8
0
 10
344.615444
 20
61.188852
 42
-0.050691
  0
VERTEX
  8
0
 10
346.229970
 20
62.143176
 42
-0.019140
  0
VERTEX
  8
0
 10
348.654076
 20
63.151736
 42
0.061192
  0
VERTEX
  8
0
 10
353.608166
 20
65.719728
 42
0.054414
  0
VERTEX
  8
0
 10
358.013907
 20
69.500304
 42
0.059132
  0
VERTEX
  8
0
 10
361.056724
 20
73.632070
 42
0.155271
  0
VERTEX
  8
0
 10
361.810157
 20
77.192071
 42
0.185633
  0
VERTEX
  8
0
 10
359.954986
 20
80.875117
 42
0.216727
  0
VERTEX
  8
0
 10
356.254771
 20
82.061408
 42
0.123409
  0
VERTEX
  8
0
 10
351.085239
 20
80.102689
 42
0.055521
  0
VERTEX
  8
0
 10
345.585185
 20
75.291530
 42
-0.004651
  0
VERTEX
  8
0
 10
336.212208
 20
65.240098
 42
-0.021153
  0
VERTEX
  8
0
 10
330.461360
 20
59.678052
 42
-0.049354
  0
VERTEX
  8
0
 10
327.116093
 20
57.250310
 42
-0.579204
  0
VERTEX
  8
0
 10
326.000000
 20
57.890560
 42
-0.132771
  0
VERTEX
  8
0
 10
326.164249
 20
58.498198
 42
-0.002797
  0
VERTEX
  8
0
 10
327.762500
 20
61.203657
 42
-0.006289
  0
VERTEX
  8
0
 10
329.700667
 20
64.352427
 42
-0.004172
  0
VERTEX
  8
0
 10
332.000000
 20
67.918616
 42
0.006152
  0
VERTEX
  8
0
 10
334.298783
 20
71.515147
 42
0.008850
  0
VERTEX
  8
0
 10
336.237500
 20
74.758828
 42
0.005309
  0
VERTEX
  8
0
 10
337.781294
 20
77.516158
 42
0.125600
  0
VERTEX
  8
0
 10
338.000000
 20
78.373068
 42
0.155882
  0
VERTEX
  8
0
 10
337.579536
 20
79.688955
 42
0.047892
  0
VERTEX
  8
0
 10
336.197060
 20
81.283567
 42
0.048028
  0
VERTEX
  8
0
 10
334.523423
 20
82.595513
 42
0.143181
  0
VERTEX
  8
0
 10
333.139875
 20
83.000000
 42
0.124889
  0
VERTEX
  8
0
 10
332.632145
 20
82.871171
 42
0.065462
  0
VERTEX
  8
0
 10
332.101252
 20
82.485938
 42
0.058773
  0
VERTEX
  8
0
 10
331.628824
 20
81.919238
 42
0.056249
  0
VERTEX
  8
0
 10
331.292959
 20
81.250000
 42
-0.052143
  0
VERTEX
  8
0
 10
329.201935
 20
76.996943
 42
-0.019225
  0
VERTEX
  8
0
 10
325.425012
 20
71.471287
 42
-0.019495
  0
VERTEX
  8
0
 10
321.076077
 20
66.060359
 42
-0.035242
  0
VERTEX
  8
0
 10
317.054257
 20
62.047004
 42
-0.004871
  0
VERTEX
  8
0
 10
314.777098
 20
60.112777
 42
-0.007422
  0
VERTEX
  8
0
 10
312.759339
 20
58.482557
 42
-0.003272
  0
VERTEX
  8
0
 10
311.018539
 20
57.136603
 42
-0.164364
  0
VERTEX
  8
0
 10
310.614213
 20
57.000000
 42
-0.417004
  0
VERTEX
  8
0
 10
310.016640
 20
57.603288
 42
-0.093285
  0
VERTEX
  8
0
 10
310.329408
 20
59.182293
 42
-0.043707
  0
VERTEX
  8
0
 10
311.614831
 20
61.719501
 42
-0.015772
  0
VERTEX
  8
0
 10
313.859160
 20
65.087208
 42
0.022303
  0
VERTEX
  8
0
 10
319.199352
 20
73.331636
 42
0.102912
  0
VERTEX
  8
0
 10
321.005696
 20
78.691105
 42
0.263413
  0
VERTEX
  8
0
 10
319.740723
 20
81.724018
 42
0.166649
  0
VERTEX
  8
0
 10
316.018702
 20
83.000000
 42
0.098229
  0
VERTEX
  8
0
 10
315.016292
 20
82.801150
 42
0.017029
  0
VERTEX
  8
0
 10
313.247834
 20
81.999256
 42
0.017938
  0
VERTEX
  8
0
 10
311.209995
 20
80.897490
 42
0.015208
  0
VERTEX
  8
0
 10
309.138510
 20
79.593210
 42
-0.003617
  0
VERTEX
  8
0
 10
306.227654
 20
77.664791
 42
-0.069468
  0
VERTEX
  8
0
 10
305.247025
 20
77.204135
 42
-0.636541
  0
VERTEX
  8
0
 10
305.029909
 20
77.443098
 42
-0.045998
  0
VERTEX
  8
0
 10
305.587350
 20
78.492968
 42
-0.049032
  0
VERTEX
  8
0
 10
306.453012
 20
79.567790
 42
-0.017287
  0
VERTEX
  8
0
 10
307.888658
 20
80.932887
 42
-0.016969
  0
VERTEX
  8
0
 10
309.580275
 20
82.333911
 42
-0.019096
  0
VERTEX
  8
0
 10
311.299329
 20
83.560093
 42
0.032930
  0
VERTEX
  8
0
 10
320.864008
 20
90.789618
 42
0.056358
  0
VERTEX
  8
0
 10
327.639913
 20
98.134529
 42
0.082003
  0
VERTEX
  8
0
 10
330.856478
 20
104.484249
 42
0.279626
  0
VERTEX
  8
0
 10
329.800000
 20
108.800000
 42
0.129211
  0
VERTEX
  8
0
 10
328.185203
 20
109.742670
 42
0.124406
  0
VERTEX
  8
0
 10
326.290817
 20
109.787882
 42
0.073731
  0
VERTEX
  8
0
 10
323.831041
 20
108.831349
 42
0.021121
  0
SEQEND
  0
POLYLINE
  8
0
 66
1
 70
1
  0
VERTEX
  8
0
 10
326.919076
 20
101.586849
 42
-0.017194
  0
VERTEX
  8
0
 10
325.641847
 20
99.853794
 42
-0.087443
  0
VERTEX
  8
0
 10
324.749620
 20
99.060368
 42
-0.180974
  0
VERTEX
  8
0
 10
323.973478
 20
98.907606
 42
-0.133024
  0
VERTEX
  8
0
 10
323.168658
 20
99.274989
 42
-0.126367
  0
VERTEX
  8
0
 10
322.644609
 20
99.998785
 42
-0.203171
  0
VERTEX
  8
0
 10
322.663828
 20
100.748903
 42
-0.089606
  0
VERTEX
  8
0
 10
323.328248
 20
101.709252
 42
-0.014404
  0
VERTEX
  8
0
 10
324.989305
 20
103.281752
 42
-0.017286
  0
VERTEX
  8
0
 10
327.660023
 20
105.506926
 42
-0.359590
  0
VERTEX
  8
0
 10
328.629588
 20
105.477532
 42
-0.359845
  0
VERTEX
  8
0
 10
328.783364
 20
104.520197
 42
-0.017293
  0
SEQEND
  0
POLYLINE
  8
0
 66
1
 70
1
  0
VERTEX
  8
0
 10
307.706432
 20
93.750000
 42
0.013515
  0
VERTEX
  8
0
 10
305.882633
 20
91.359059
 42
0.003050
  0
VERTEX
  8
0
 10
302.918261
 20
87.193660
 42
0.003158
  0
VERTEX
  8
0
 10
299.556352
 20
82.343296
 42
0.003058
  0
VERTEX
  8
0
 10
296.219312
 20
77.398628
 42
-0.009167
  0
VERTEX
  8
0
 10
292.356666
 20
71.823269
 42
-0.015146
  0
VERTEX
  8
0
 10
288.869623
 20
67.278926
 42
-0.017968
  0
VERTEX
  8
0
 10
285.730185
 20
63.704702
 42
-0.035442
  0
VERTEX
  8
0
 10
282.949201
 20
61.148628
 42
-0.024956
  0
VERTEX
  8
0
 10
279.328224
 20
58.549752
 42
-0.069440
  0
VERTEX
  8
0
 10
276.494360
 20
57.236454
 42
-0.169236
  0
VERTEX
  8
0
 10
274.762910
 20
57.305725
 42
-0.308108
  0
VERTEX
  8
0
 10
274.000000
 20
58.426251
 42
-0.138756
  0
VERTEX
  8
0
 10
274.652998
 20
60.733982
 42
-0.001045
  0
VERTEX
  8
0
 10
285.086529
 20
77.615045
 42
-0.001577
  0
VERTEX
  8
0
 10
295.352529
 20
94.031952
 42
-0.085465
  0
VERTEX
  8
0
 10
297.797251
 20
96.750000
 42
-0.103859
  0
VERTEX
  8
0
 10
298.773243
 20
97.234527
 42
-0.021960
  0
VERTEX
  8
0
 10
300.642685
 20
97.632812
 42
-0.022106
  0
VERTEX
  8
0
 10
302.892361
 20
97.908175
 42
-0.019400
  0
VERTEX
  8
0
 10
305.258079
 20
98.000000
 42
0.000000
  0
VERTEX
  8
0
 10
311.133899
 20
98.000000
 42
0.000000
  0
SEQEND
  0
POLYLINE
  8
0
 66
1
 70
1
  0
VERTEX
  8
0
 10
321.000000
 20
95.196167
 42
-0.193927
  0
VERTEX
  8
0
 10
320.645219
 20
94.315840
 42
-0.007480
  0
VERTEX
  8
0
 10
318.122985
 20
91.772122
 42
-0.014033
  0
VERTEX
  8
0
 10
315.296686
 20
89.156961
 42
-0.018555
  0
VERTEX
  8
0
 10
312.572925
 20
86.947837
 42
-0.042459
  0
VERTEX
  8
0
 10
311.482522
 20
86.265007
 42
-0.711869
  0
VERTEX
  8
0
 10
311.274550
 20
86.463739
 42
-0.039167
  0
VERTEX
  8
0
 10
311.959522
 20
87.695589
 42
-0.001366
  0
VERTEX
  8
0
 10
315.000000
 20
92.251370
 42
-0.055400
  0
VERTEX
  8
0
 10
316.784443
 20
94.361699
 42
-0.075626
  0
VERTEX
  8
0
 10
318.826593
 20
95.780578
 42
-0.156993
  0
VERTEX
  8
0
 10
320.321287
 20
95.998561
 42
-0.366210
  0
SEQEND
  0
POLYLINE
  8
0
 66
1
 70
1
  0
VERTEX
  8
0
 10
260.000000
 20
78.871727
 42
-0.151086
  0
VERTEX
  8
0
 10
258.695168
 20
74.652122
 42
-0.014154
  0
VERTEX
  8
0
 10
252.232919
 20
65.753774
 42
-0.010477
  0
VERTEX
  8
0
 10
245.214956
 20
57.028516
 42
-0.309875
  0
VERTEX
  8
0
 10
242.614711
 20
56.304716
 42
-0.419327
  0
VERTEX
  8
0
 10
241.402530
 20
58.832244
 42
-0.046992
  0
VERTEX
  8
0
 10
244.419976
 20
65.227775
 42
-0.043187
  0
VERTEX
  8
0
 10
249.491017
 20
72.314867
 42
-0.057004
  0
VERTEX
  8
0
 10
255.300393
 20
77.721623
 42
-0.015413
  0
VERTEX
  8
0
 10
257.567806
 20
79.288904
 42
-0.083689
  0
VERTEX
  8
0
 10
258.935254
 20
79.878363
 42
-0.263938
  0
VERTEX
  8
0
 10
259.672770
 20
79.669398
 42
-0.197144
  0
SEQEND
  0
POLYLINE
  8
0
 66
1
 70
1
  0
VERTEX
  8
0
 10
357.021245
 20
72.534375
 42
-0.060123
  0
VERTEX
  8
0
 10
354.835008
 20
69.795606
 42
-0.041190
  0
VERTEX
  8
0
 10
351.775754
 20
67.246501
 42
-0.040661
  0
VERTEX
  8
0
 10
348.672593
 20
65.423819
 42
-0.168219
  0
VERTEX
  8
0
 10
346.543767
 20
65.174719
 42
-0.513727
  0
VERTEX
  8
0
 10
346.041314
 20
66.347325
 42
-0.019166
  0
VERTEX
  8
0
 10
349.135172
 20
71.042478
 42
-0.024951
  0
VERTEX
  8
0
 10
352.857063
 20
75.732057
 42
-0.075494
  0
VERTEX
  8
0
 10
355.968382
 20
78.349197
 42
-0.011708
  0
VERTEX
  8
0
 10
357.535753
 20
79.257521
 42
-0.163151
  0
VERTEX
  8
0
 10
358.169739
 20
79.371812
 42
-0.287068
  0
VERTEX
  8
0
 10
358.555582
 20
79.044045
 42
-0.036315
  0
VERTEX
  8
0
 10
358.821652
 20
77.932276
 42
-0.091162
  0
VERTEX
  8
0
 10
358.802360
 20
76.943873
 42
-0.030159
  0
VERTEX
  8
0
 10
358.425464
 20
75.536353
 42
-0.028878
  0
VERTEX
  8
0
 10
357.809683
 20
73.993184
 42
-0.029048
  0
SEQEND
  0
POLYLINE
  8
0
 66
1
 70
1
  0
VERTEX
  8
0
 10
338.950653
 20
92.261135
 42
0.043161
  0
VERTEX
  8
0
 10
336.119349
 20
86.808147
 42
0.375420
  0
VERTEX
  8
0
 10
336.925459
 20
84.420820
 42
0.295675
  0
VERTEX
  8
0
 10
339.818338
 20
84.560050
 42
0.036656
  0
VERTEX
  8
0
 10
344.894115
 20
88.803647
 42
0.005966
  0
VERTEX
  8
0
 10
348.040726
 20
91.926125
 42
0.079105
  0
VERTEX
  8
0
 10
348.986795
 20
93.252901
 42
0.233126
  0
VERTEX
  8
0
 10
348.990268
 20
94.249306
 42
0.095450
  0
VERTEX
  8
0
 10
348.155023
 20
95.359707
 42
0.094414
  0
VERTEX
  8
0
 10
345.787819
 20
96.802249
 42
0.172621
  0
VERTEX
  8
0
 10
343.554248
 20
96.840556
 42
0.128131
  0
VERTEX
  8
0
 10
341.327602
 20
95.383004
 42
0.042813
  0
SEQEND
  0
ENDSEC
  0
EOF
