solid CATIA STL
  facet normal  -0.000000e+000  -0.000000e+000 -1.000000e+000
    outer loop
      vertex -1.865000e+002  1.080000e+002  7.600000e+001
      vertex -8.500000e+000  1.080000e+002  7.600000e+001
      vertex -8.500000e+000  7.300000e+001  7.600000e+001
    endloop
  endfacet
  facet normal  0.000000e+000  0.000000e+000 -1.000000e+000
    outer loop
      vertex -1.865000e+002  1.080000e+002  7.600000e+001
      vertex -8.500000e+000  7.300000e+001  7.600000e+001
      vertex -7.450000e+001  7.300000e+001  7.600000e+001
    endloop
  endfacet
  facet normal  0.000000e+000  0.000000e+000 -1.000000e+000
    outer loop
      vertex -1.865000e+002  1.080000e+002  7.600000e+001
      vertex -7.450000e+001  7.300000e+001  7.600000e+001
      vertex -7.500000e+001  7.300000e+001  7.600000e+001
    endloop
  endfacet
  facet normal  0.000000e+000  0.000000e+000 -9.999999e-001
    outer loop
      vertex -1.865000e+002  1.080000e+002  7.600000e+001
      vertex -7.500000e+001  7.300000e+001  7.600000e+001
      vertex -1.200000e+002  7.300000e+001  7.600000e+001
    endloop
  endfacet
  facet normal  0.000000e+000  0.000000e+000 -1.000000e+000
    outer loop
      vertex -1.865000e+002  1.080000e+002  7.600000e+001
      vertex -1.200000e+002  7.300000e+001  7.600000e+001
      vertex -1.205000e+002  7.300000e+001  7.600000e+001
    endloop
  endfacet
  facet normal  0.000000e+000  0.000000e+000 -1.000000e+000
    outer loop
      vertex -1.865000e+002  1.080000e+002  7.600000e+001
      vertex -1.205000e+002  7.300000e+001  7.600000e+001
      vertex -1.865000e+002  7.300000e+001  7.600000e+001
    endloop
  endfacet
  facet normal  0.000000e+000  0.000000e+000 -1.000000e+000
    outer loop
      vertex -7.500000e+001  7.250000e+001  7.600000e+001
      vertex -7.500000e+001  7.300000e+001  7.600000e+001
      vertex -7.450000e+001  7.250000e+001  7.600000e+001
    endloop
  endfacet
  facet normal  0.000000e+000  0.000000e+000 -1.000000e+000
    outer loop
      vertex -7.450000e+001  7.250000e+001  7.600000e+001
      vertex -7.500000e+001  7.300000e+001  7.600000e+001
      vertex -7.450000e+001  7.300000e+001  7.600000e+001
    endloop
  endfacet
  facet normal  0.000000e+000  0.000000e+000 -1.000000e+000
    outer loop
      vertex -1.205000e+002  7.250000e+001  7.600000e+001
      vertex -1.205000e+002  7.300000e+001  7.600000e+001
      vertex -1.200000e+002  7.250000e+001  7.600000e+001
    endloop
  endfacet
  facet normal  0.000000e+000  0.000000e+000 -1.000000e+000
    outer loop
      vertex -1.200000e+002  7.250000e+001  7.600000e+001
      vertex -1.205000e+002  7.300000e+001  7.600000e+001
      vertex -1.200000e+002  7.300000e+001  7.600000e+001
    endloop
  endfacet
  facet normal  0.000000e+000  1.000000e+000  0.000000e+000
    outer loop
      vertex -1.870000e+002  7.250000e+001  8.500000e+000
      vertex -1.205000e+002  7.250000e+001  8.000000e+000
      vertex -1.870000e+002  7.250000e+001  8.000000e+000
    endloop
  endfacet
  facet normal  0.000000e+000  1.000000e+000  -0.000000e+000
    outer loop
      vertex -1.200000e+002  7.250000e+001  8.000000e+000
      vertex -1.200000e+002  7.250000e+001  0.000000e+000
      vertex -1.205000e+002  7.250000e+001  0.000000e+000
    endloop
  endfacet
  facet normal  0.000000e+000  1.000000e+000  0.000000e+000
    outer loop
      vertex -1.200000e+002  7.250000e+001  8.000000e+000
      vertex -1.205000e+002  7.250000e+001  0.000000e+000
      vertex -1.205000e+002  7.250000e+001  8.000000e+000
    endloop
  endfacet
  facet normal  0.000000e+000  1.000000e+000  -0.000000e+000
    outer loop
      vertex -1.200000e+002  7.250000e+001  8.000000e+000
      vertex -1.205000e+002  7.250000e+001  8.000000e+000
      vertex -1.870000e+002  7.250000e+001  8.500000e+000
    endloop
  endfacet
  facet normal  -0.000000e+000  1.000000e+000  0.000000e+000
    outer loop
      vertex -1.200000e+002  7.250000e+001  8.000000e+000
      vertex -1.870000e+002  7.250000e+001  8.500000e+000
      vertex -1.205000e+002  7.250000e+001  8.500000e+000
    endloop
  endfacet
  facet normal  -0.000000e+000  1.000000e+000  0.000000e+000
    outer loop
      vertex -1.200000e+002  7.250000e+001  8.000000e+000
      vertex -1.205000e+002  7.250000e+001  8.500000e+000
      vertex -1.200000e+002  7.250000e+001  8.500000e+000
    endloop
  endfacet
  facet normal  -0.000000e+000  1.000000e+000  0.000000e+000
    outer loop
      vertex -1.200000e+002  7.250000e+001  8.000000e+000
      vertex -1.200000e+002  7.250000e+001  8.500000e+000
      vertex -7.500000e+001  7.250000e+001  8.500000e+000
    endloop
  endfacet
  facet normal  -0.000000e+000  1.000000e+000  0.000000e+000
    outer loop
      vertex -1.200000e+002  7.250000e+001  8.000000e+000
      vertex -7.500000e+001  7.250000e+001  8.500000e+000
      vertex -7.450000e+001  7.250000e+001  8.500000e+000
    endloop
  endfacet
  facet normal  0.000000e+000  1.000000e+000  0.000000e+000
    outer loop
      vertex -7.500000e+001  7.250000e+001  8.000000e+000
      vertex -1.200000e+002  7.250000e+001  8.000000e+000
      vertex -7.450000e+001  7.250000e+001  8.500000e+000
    endloop
  endfacet
  facet normal  0.000000e+000  1.000000e+000  0.000000e+000
    outer loop
      vertex -7.500000e+001  7.250000e+001  8.000000e+000
      vertex -7.450000e+001  7.250000e+001  8.500000e+000
      vertex -7.450000e+001  7.250000e+001  8.000000e+000
    endloop
  endfacet
  facet normal  0.000000e+000  1.000000e+000  0.000000e+000
    outer loop
      vertex -7.500000e+001  7.250000e+001  8.000000e+000
      vertex -7.450000e+001  7.250000e+001  8.000000e+000
      vertex -7.450000e+001  7.250000e+001  0.000000e+000
    endloop
  endfacet
  facet normal  0.000000e+000  1.000000e+000  0.000000e+000
    outer loop
      vertex -7.500000e+001  7.250000e+001  8.000000e+000
      vertex -7.450000e+001  7.250000e+001  0.000000e+000
      vertex -7.500000e+001  7.250000e+001  0.000000e+000
    endloop
  endfacet
  facet normal  0.000000e+000  1.000000e+000  -0.000000e+000
    outer loop
      vertex -8.000000e+000  7.250000e+001  8.500000e+000
      vertex -8.000000e+000  7.250000e+001  8.000000e+000
      vertex -7.450000e+001  7.250000e+001  8.500000e+000
    endloop
  endfacet
  facet normal  0.000000e+000  1.000000e+000  0.000000e+000
    outer loop
      vertex -7.450000e+001  7.250000e+001  8.500000e+000
      vertex -8.000000e+000  7.250000e+001  8.000000e+000
      vertex -7.450000e+001  7.250000e+001  8.000000e+000
    endloop
  endfacet
  facet normal  0.000000e+000  1.000000e+000  0.000000e+000
    outer loop
      vertex -1.200000e+002  7.250000e+001  8.500000e+000
      vertex -1.205000e+002  7.250000e+001  8.500000e+000
      vertex -1.200000e+002  7.250000e+001  7.600000e+001
    endloop
  endfacet
  facet normal  0.000000e+000  1.000000e+000  0.000000e+000
    outer loop
      vertex -1.200000e+002  7.250000e+001  7.600000e+001
      vertex -1.205000e+002  7.250000e+001  8.500000e+000
      vertex -1.205000e+002  7.250000e+001  7.600000e+001
    endloop
  endfacet
  facet normal  0.000000e+000  1.000000e+000  0.000000e+000
    outer loop
      vertex -7.450000e+001  7.250000e+001  8.500000e+000
      vertex -7.500000e+001  7.250000e+001  8.500000e+000
      vertex -7.450000e+001  7.250000e+001  7.600000e+001
    endloop
  endfacet
  facet normal  0.000000e+000  1.000000e+000  0.000000e+000
    outer loop
      vertex -7.450000e+001  7.250000e+001  7.600000e+001
      vertex -7.500000e+001  7.250000e+001  8.500000e+000
      vertex -7.500000e+001  7.250000e+001  7.600000e+001
    endloop
  endfacet
  facet normal -1.000000e+000  -0.000000e+000  0.000000e+000
    outer loop
      vertex -1.200000e+002  7.250000e+001  7.600000e+001
      vertex -1.200000e+002  7.300000e+001  7.600000e+001
      vertex -1.200000e+002  7.250000e+001  8.500000e+000
    endloop
  endfacet
  facet normal -1.000000e+000  0.000000e+000  0.000000e+000
    outer loop
      vertex -1.200000e+002  7.250000e+001  8.500000e+000
      vertex -1.200000e+002  7.300000e+001  7.600000e+001
      vertex -1.200000e+002  7.300000e+001  8.500000e+000
    endloop
  endfacet
  facet normal  1.000000e+000  0.000000e+000  0.000000e+000
    outer loop
      vertex -1.205000e+002  7.250000e+001  8.500000e+000
      vertex -1.205000e+002  7.300000e+001  8.500000e+000
      vertex -1.205000e+002  7.250000e+001  7.600000e+001
    endloop
  endfacet
  facet normal  1.000000e+000  -0.000000e+000  0.000000e+000
    outer loop
      vertex -1.205000e+002  7.250000e+001  7.600000e+001
      vertex -1.205000e+002  7.300000e+001  8.500000e+000
      vertex -1.205000e+002  7.300000e+001  7.600000e+001
    endloop
  endfacet
  facet normal -1.000000e+000  -0.000000e+000  0.000000e+000
    outer loop
      vertex -7.450000e+001  7.250000e+001  7.600000e+001
      vertex -7.450000e+001  7.300000e+001  7.600000e+001
      vertex -7.450000e+001  7.250000e+001  8.500000e+000
    endloop
  endfacet
  facet normal -1.000000e+000  0.000000e+000  0.000000e+000
    outer loop
      vertex -7.450000e+001  7.250000e+001  8.500000e+000
      vertex -7.450000e+001  7.300000e+001  7.600000e+001
      vertex -7.450000e+001  7.300000e+001  8.500000e+000
    endloop
  endfacet
  facet normal  1.000000e+000  0.000000e+000  0.000000e+000
    outer loop
      vertex -7.500000e+001  7.250000e+001  8.500000e+000
      vertex -7.500000e+001  7.300000e+001  8.500000e+000
      vertex -7.500000e+001  7.250000e+001  7.600000e+001
    endloop
  endfacet
  facet normal  1.000000e+000  -0.000000e+000  0.000000e+000
    outer loop
      vertex -7.500000e+001  7.250000e+001  7.600000e+001
      vertex -7.500000e+001  7.300000e+001  8.500000e+000
      vertex -7.500000e+001  7.300000e+001  7.600000e+001
    endloop
  endfacet
  facet normal  1.000000e+000  0.000000e+000  0.000000e+000
    outer loop
      vertex -7.500000e+001  7.250000e+001  0.000000e+000
      vertex -7.500000e+001  7.300000e+001 -2.249047e-014
      vertex -7.500000e+001  7.250000e+001  8.000000e+000
    endloop
  endfacet
  facet normal  1.000000e+000  -0.000000e+000  0.000000e+000
    outer loop
      vertex -7.500000e+001  7.250000e+001  8.000000e+000
      vertex -7.500000e+001  7.300000e+001 -2.249047e-014
      vertex -7.500000e+001  7.300000e+001  8.000000e+000
    endloop
  endfacet
  facet normal -1.000000e+000  -0.000000e+000  0.000000e+000
    outer loop
      vertex -7.450000e+001  7.250000e+001  8.000000e+000
      vertex -7.450000e+001  7.300000e+001  8.000000e+000
      vertex -7.450000e+001  7.250000e+001  0.000000e+000
    endloop
  endfacet
  facet normal -1.000000e+000  0.000000e+000  0.000000e+000
    outer loop
      vertex -7.450000e+001  7.250000e+001  0.000000e+000
      vertex -7.450000e+001  7.300000e+001  8.000000e+000
      vertex -7.450000e+001  7.300000e+001  0.000000e+000
    endloop
  endfacet
  facet normal  1.000000e+000  0.000000e+000  0.000000e+000
    outer loop
      vertex -1.205000e+002  7.250000e+001  0.000000e+000
      vertex -1.205000e+002  7.300000e+001 -2.249047e-014
      vertex -1.205000e+002  7.250000e+001  8.000000e+000
    endloop
  endfacet
  facet normal  1.000000e+000  -0.000000e+000  0.000000e+000
    outer loop
      vertex -1.205000e+002  7.250000e+001  8.000000e+000
      vertex -1.205000e+002  7.300000e+001 -2.249047e-014
      vertex -1.205000e+002  7.300000e+001  8.000000e+000
    endloop
  endfacet
  facet normal -1.000000e+000  -0.000000e+000  0.000000e+000
    outer loop
      vertex -1.200000e+002  7.250000e+001  8.000000e+000
      vertex -1.200000e+002  7.300000e+001  8.000000e+000
      vertex -1.200000e+002  7.250000e+001  0.000000e+000
    endloop
  endfacet
  facet normal -1.000000e+000  0.000000e+000  0.000000e+000
    outer loop
      vertex -1.200000e+002  7.250000e+001  0.000000e+000
      vertex -1.200000e+002  7.300000e+001  8.000000e+000
      vertex -1.200000e+002  7.300000e+001  0.000000e+000
    endloop
  endfacet
  facet normal -3.407647e-016 -4.498094e-014 -1.000000e+000
    outer loop
      vertex -1.205000e+002  7.250000e+001  0.000000e+000
      vertex -1.865000e+002  7.300000e+001  0.000000e+000
      vertex -1.205000e+002  7.300000e+001 -2.249047e-014
    endloop
  endfacet
  facet normal  0.000000e+000  0.000000e+000 -1.000000e+000
    outer loop
      vertex -1.950000e+002  0.000000e+000  0.000000e+000
      vertex -1.950000e+002  1.052500e+002  0.000000e+000
      vertex -1.945000e+002  1.052500e+002  0.000000e+000
    endloop
  endfacet
  facet normal  0.000000e+000  -0.000000e+000 -9.999999e-001
    outer loop
      vertex -1.950000e+002  0.000000e+000  0.000000e+000
      vertex -1.945000e+002  1.052500e+002  0.000000e+000
      vertex -1.865000e+002  7.300000e+001  0.000000e+000
    endloop
  endfacet
  facet normal  0.000000e+000  -0.000000e+000 -1.000000e+000
    outer loop
      vertex -1.950000e+002  0.000000e+000  0.000000e+000
      vertex -1.865000e+002  7.300000e+001  0.000000e+000
      vertex -1.205000e+002  7.250000e+001  0.000000e+000
    endloop
  endfacet
  facet normal  0.000000e+000  -0.000000e+000 -1.000000e+000
    outer loop
      vertex -1.950000e+002  0.000000e+000  0.000000e+000
      vertex -1.205000e+002  7.250000e+001  0.000000e+000
      vertex -1.200000e+002  7.250000e+001  0.000000e+000
    endloop
  endfacet
  facet normal  0.000000e+000  -0.000000e+000 -1.000000e+000
    outer loop
      vertex -1.950000e+002  0.000000e+000  0.000000e+000
      vertex -1.200000e+002  7.250000e+001  0.000000e+000
      vertex -7.500000e+001  7.250000e+001  0.000000e+000
    endloop
  endfacet
  facet normal  0.000000e+000  -0.000000e+000 -1.000000e+000
    outer loop
      vertex -1.950000e+002  0.000000e+000  0.000000e+000
      vertex -7.500000e+001  7.250000e+001  0.000000e+000
      vertex -7.450000e+001  7.250000e+001  0.000000e+000
    endloop
  endfacet
  facet normal  0.000000e+000  -0.000000e+000 -1.000000e+000
    outer loop
      vertex -1.950000e+002  0.000000e+000  0.000000e+000
      vertex -7.450000e+001  7.250000e+001  0.000000e+000
      vertex  0.000000e+000  0.000000e+000  0.000000e+000
    endloop
  endfacet
  facet normal  0.000000e+000  0.000000e+000 -1.000000e+000
    outer loop
      vertex -1.865000e+002  1.080000e+002  0.000000e+000
      vertex -1.865000e+002  7.300000e+001  0.000000e+000
      vertex -1.945000e+002  1.052500e+002  0.000000e+000
    endloop
  endfacet
  facet normal  0.000000e+000  0.000000e+000 -1.000000e+000
    outer loop
      vertex -1.865000e+002  1.080000e+002  0.000000e+000
      vertex -1.945000e+002  1.052500e+002  0.000000e+000
      vertex -1.945000e+002  1.057500e+002  0.000000e+000
    endloop
  endfacet
  facet normal  0.000000e+000  0.000000e+000 -1.000000e+000
    outer loop
      vertex -1.865000e+002  1.080000e+002  0.000000e+000
      vertex -1.945000e+002  1.057500e+002  0.000000e+000
      vertex -1.950000e+002  1.057500e+002  0.000000e+000
    endloop
  endfacet
  facet normal  0.000000e+000  0.000000e+000 -1.000000e+000
    outer loop
      vertex -1.865000e+002  1.080000e+002  0.000000e+000
      vertex -1.950000e+002  1.057500e+002  0.000000e+000
      vertex -1.950000e+002  1.080000e+002  0.000000e+000
    endloop
  endfacet
  facet normal -4.997882e-016  0.000000e+000 -1.000000e+000
    outer loop
      vertex -1.200000e+002  7.300000e+001  0.000000e+000
      vertex -7.500000e+001  7.300000e+001 -2.249047e-014
      vertex -1.200000e+002  7.250000e+001  0.000000e+000
    endloop
  endfacet
  facet normal  0.000000e+000 -4.498094e-014 -1.000000e+000
    outer loop
      vertex -1.200000e+002  7.250000e+001  0.000000e+000
      vertex -7.500000e+001  7.300000e+001 -2.249047e-014
      vertex -7.500000e+001  7.250000e+001  0.000000e+000
    endloop
  endfacet
  facet normal  0.000000e+000  0.000000e+000 -1.000000e+000
    outer loop
      vertex -7.450000e+001  7.250000e+001  0.000000e+000
      vertex -7.450000e+001  7.300000e+001  0.000000e+000
      vertex  0.000000e+000  0.000000e+000  0.000000e+000
    endloop
  endfacet
  facet normal -2.153160e-016 -2.197403e-016 -1.000000e+000
    outer loop
      vertex  0.000000e+000  0.000000e+000  0.000000e+000
      vertex -7.450000e+001  7.300000e+001  0.000000e+000
      vertex -8.500000e+000  7.300000e+001 -1.421085e-014
    endloop
  endfacet
  facet normal  1.671865e-015  0.000000e+000 -1.000000e+000
    outer loop
      vertex  0.000000e+000  0.000000e+000  0.000000e+000
      vertex -8.500000e+000  7.300000e+001 -1.421085e-014
      vertex  0.000000e+000  1.080000e+002  0.000000e+000
    endloop
  endfacet
  facet normal  0.000000e+000  4.060244e-016 -1.000000e+000
    outer loop
      vertex  0.000000e+000  1.080000e+002  0.000000e+000
      vertex -8.500000e+000  7.300000e+001 -1.421085e-014
      vertex -8.500000e+000  1.080000e+002  0.000000e+000
    endloop
  endfacet
  facet normal  -0.000000e+000  1.000000e+000  0.000000e+000
    outer loop
      vertex -1.205000e+002  7.300000e+001 -2.249047e-014
      vertex -1.865000e+002  7.300000e+001  0.000000e+000
      vertex -1.205000e+002  7.300000e+001  8.000000e+000
    endloop
  endfacet
  facet normal  0.000000e+000  1.000000e+000  0.000000e+000
    outer loop
      vertex -1.205000e+002  7.300000e+001  8.000000e+000
      vertex -1.865000e+002  7.300000e+001  0.000000e+000
      vertex -1.865000e+002  7.300000e+001  8.000000e+000
    endloop
  endfacet
  facet normal  -0.000000e+000  1.000000e+000  0.000000e+000
    outer loop
      vertex -8.500000e+000  7.300000e+001 -1.421085e-014
      vertex -7.450000e+001  7.300000e+001  0.000000e+000
      vertex -8.500000e+000  7.300000e+001  8.000000e+000
    endloop
  endfacet
  facet normal  0.000000e+000  1.000000e+000  0.000000e+000
    outer loop
      vertex -8.500000e+000  7.300000e+001  8.000000e+000
      vertex -7.450000e+001  7.300000e+001  0.000000e+000
      vertex -7.450000e+001  7.300000e+001  8.000000e+000
    endloop
  endfacet
  facet normal  -0.000000e+000  1.000000e+000  0.000000e+000
    outer loop
      vertex -7.500000e+001  7.300000e+001 -2.249047e-014
      vertex -1.200000e+002  7.300000e+001  0.000000e+000
      vertex -7.500000e+001  7.300000e+001  8.000000e+000
    endloop
  endfacet
  facet normal  0.000000e+000  1.000000e+000  0.000000e+000
    outer loop
      vertex -7.500000e+001  7.300000e+001  8.000000e+000
      vertex -1.200000e+002  7.300000e+001  0.000000e+000
      vertex -1.200000e+002  7.300000e+001  8.000000e+000
    endloop
  endfacet
  facet normal  0.000000e+000  1.000000e+000  0.000000e+000
    outer loop
      vertex -8.500000e+000  7.300000e+001  8.500000e+000
      vertex -7.450000e+001  7.300000e+001  8.500000e+000
      vertex -8.500000e+000  7.300000e+001  7.600000e+001
    endloop
  endfacet
  facet normal  0.000000e+000  1.000000e+000  0.000000e+000
    outer loop
      vertex -8.500000e+000  7.300000e+001  7.600000e+001
      vertex -7.450000e+001  7.300000e+001  8.500000e+000
      vertex -7.450000e+001  7.300000e+001  7.600000e+001
    endloop
  endfacet
  facet normal  0.000000e+000  1.000000e+000  0.000000e+000
    outer loop
      vertex -1.205000e+002  7.300000e+001  8.500000e+000
      vertex -1.865000e+002  7.300000e+001  8.500000e+000
      vertex -1.205000e+002  7.300000e+001  7.600000e+001
    endloop
  endfacet
  facet normal  0.000000e+000  1.000000e+000  0.000000e+000
    outer loop
      vertex -1.205000e+002  7.300000e+001  7.600000e+001
      vertex -1.865000e+002  7.300000e+001  8.500000e+000
      vertex -1.865000e+002  7.300000e+001  7.600000e+001
    endloop
  endfacet
  facet normal  0.000000e+000  1.000000e+000  0.000000e+000
    outer loop
      vertex -7.500000e+001  7.300000e+001  8.500000e+000
      vertex -1.200000e+002  7.300000e+001  8.500000e+000
      vertex -7.500000e+001  7.300000e+001  7.600000e+001
    endloop
  endfacet
  facet normal  0.000000e+000  1.000000e+000  0.000000e+000
    outer loop
      vertex -7.500000e+001  7.300000e+001  7.600000e+001
      vertex -1.200000e+002  7.300000e+001  8.500000e+000
      vertex -1.200000e+002  7.300000e+001  7.600000e+001
    endloop
  endfacet
  facet normal  0.000000e+000  0.000000e+000 -1.000000e+000
    outer loop
      vertex -8.000000e+000  1.075000e+002  8.500000e+000
      vertex -8.000000e+000  7.250000e+001  8.500000e+000
      vertex -8.500000e+000  1.080000e+002  8.500000e+000
    endloop
  endfacet
  facet normal  0.000000e+000  0.000000e+000 -1.000000e+000
    outer loop
      vertex -8.000000e+000  1.075000e+002  8.500000e+000
      vertex -8.500000e+000  1.080000e+002  8.500000e+000
      vertex -8.000000e+000  1.080000e+002  8.500000e+000
    endloop
  endfacet
  facet normal  0.000000e+000  0.000000e+000 -1.000000e+000
    outer loop
      vertex -8.000000e+000  1.075000e+002  8.500000e+000
      vertex -8.000000e+000  1.080000e+002  8.500000e+000
      vertex  0.000000e+000  1.080000e+002  8.500000e+000
    endloop
  endfacet
  facet normal  0.000000e+000  -0.000000e+000 -1.000000e+000
    outer loop
      vertex -8.000000e+000  1.075000e+002  8.500000e+000
      vertex  0.000000e+000  1.080000e+002  8.500000e+000
      vertex  0.000000e+000  1.075000e+002  8.500000e+000
    endloop
  endfacet
  facet normal  0.000000e+000  0.000000e+000 -1.000000e+000
    outer loop
      vertex -8.000000e+000  7.250000e+001  8.500000e+000
      vertex -7.450000e+001  7.250000e+001  8.500000e+000
      vertex -7.450000e+001  7.300000e+001  8.500000e+000
    endloop
  endfacet
  facet normal  0.000000e+000  0.000000e+000 -1.000000e+000
    outer loop
      vertex -8.000000e+000  7.250000e+001  8.500000e+000
      vertex -7.450000e+001  7.300000e+001  8.500000e+000
      vertex -8.500000e+000  7.300000e+001  8.500000e+000
    endloop
  endfacet
  facet normal  0.000000e+000  0.000000e+000 -1.000000e+000
    outer loop
      vertex -8.000000e+000  7.250000e+001  8.500000e+000
      vertex -8.500000e+000  7.300000e+001  8.500000e+000
      vertex -8.500000e+000  1.080000e+002  8.500000e+000
    endloop
  endfacet
  facet normal  -0.000000e+000  -0.000000e+000 -1.000000e+000
    outer loop
      vertex -1.865000e+002  7.300000e+001  8.500000e+000
      vertex -1.205000e+002  7.300000e+001  8.500000e+000
      vertex -1.205000e+002  7.250000e+001  8.500000e+000
    endloop
  endfacet
  facet normal  0.000000e+000  0.000000e+000 -1.000000e+000
    outer loop
      vertex -1.865000e+002  7.300000e+001  8.500000e+000
      vertex -1.205000e+002  7.250000e+001  8.500000e+000
      vertex -1.870000e+002  7.250000e+001  8.500000e+000
    endloop
  endfacet
  facet normal  0.000000e+000  0.000000e+000 -1.000000e+000
    outer loop
      vertex -1.865000e+002  7.300000e+001  8.500000e+000
      vertex -1.870000e+002  7.250000e+001  8.500000e+000
      vertex -1.870000e+002  1.075000e+002  8.500000e+000
    endloop
  endfacet
  facet normal  0.000000e+000  0.000000e+000 -1.000000e+000
    outer loop
      vertex -1.865000e+002  7.300000e+001  8.500000e+000
      vertex -1.870000e+002  1.075000e+002  8.500000e+000
      vertex -1.870000e+002  1.080000e+002  8.500000e+000
    endloop
  endfacet
  facet normal  0.000000e+000  0.000000e+000 -1.000000e+000
    outer loop
      vertex -1.865000e+002  7.300000e+001  8.500000e+000
      vertex -1.870000e+002  1.080000e+002  8.500000e+000
      vertex -1.865000e+002  1.080000e+002  8.500000e+000
    endloop
  endfacet
  facet normal  0.000000e+000  0.000000e+000 -1.000000e+000
    outer loop
      vertex -1.950000e+002  1.057500e+002  8.500000e+000
      vertex -1.950000e+002  1.080000e+002  8.500000e+000
      vertex -1.945000e+002  1.057500e+002  8.500000e+000
    endloop
  endfacet
  facet normal  0.000000e+000  0.000000e+000 -1.000000e+000
    outer loop
      vertex -1.945000e+002  1.057500e+002  8.500000e+000
      vertex -1.950000e+002  1.080000e+002  8.500000e+000
      vertex -1.945000e+002  1.075000e+002  8.500000e+000
    endloop
  endfacet
  facet normal  -0.000000e+000  0.000000e+000 -1.000000e+000
    outer loop
      vertex -1.950000e+002  1.080000e+002  8.500000e+000
      vertex -1.870000e+002  1.080000e+002  8.500000e+000
      vertex -1.945000e+002  1.075000e+002  8.500000e+000
    endloop
  endfacet
  facet normal  0.000000e+000  0.000000e+000 -1.000000e+000
    outer loop
      vertex -1.945000e+002  1.075000e+002  8.500000e+000
      vertex -1.870000e+002  1.080000e+002  8.500000e+000
      vertex -1.870000e+002  1.075000e+002  8.500000e+000
    endloop
  endfacet
  facet normal  0.000000e+000  0.000000e+000 -1.000000e+000
    outer loop
      vertex -7.500000e+001  7.250000e+001  8.500000e+000
      vertex -1.200000e+002  7.250000e+001  8.500000e+000
      vertex -7.500000e+001  7.300000e+001  8.500000e+000
    endloop
  endfacet
  facet normal  -0.000000e+000  0.000000e+000 -1.000000e+000
    outer loop
      vertex -7.500000e+001  7.300000e+001  8.500000e+000
      vertex -1.200000e+002  7.250000e+001  8.500000e+000
      vertex -1.200000e+002  7.300000e+001  8.500000e+000
    endloop
  endfacet
  facet normal  0.000000e+000  0.000000e+000  1.000000e+000
    outer loop
      vertex -1.870000e+002  1.075000e+002  8.000000e+000
      vertex -1.870000e+002  7.250000e+001  8.000000e+000
      vertex -1.865000e+002  7.300000e+001  8.000000e+000
    endloop
  endfacet
  facet normal  0.000000e+000  -0.000000e+000  1.000000e+000
    outer loop
      vertex -1.870000e+002  1.075000e+002  8.000000e+000
      vertex -1.865000e+002  7.300000e+001  8.000000e+000
      vertex -1.865000e+002  1.080000e+002  8.000000e+000
    endloop
  endfacet
  facet normal  0.000000e+000  0.000000e+000  1.000000e+000
    outer loop
      vertex -1.870000e+002  1.075000e+002  8.000000e+000
      vertex -1.865000e+002  1.080000e+002  8.000000e+000
      vertex -1.870000e+002  1.080000e+002  8.000000e+000
    endloop
  endfacet
  facet normal  0.000000e+000  0.000000e+000  1.000000e+000
    outer loop
      vertex -1.870000e+002  1.075000e+002  8.000000e+000
      vertex -1.870000e+002  1.080000e+002  8.000000e+000
      vertex -1.950000e+002  1.080000e+002  8.000000e+000
    endloop
  endfacet
  facet normal  0.000000e+000  0.000000e+000  1.000000e+000
    outer loop
      vertex -1.950000e+002  1.080000e+002  8.000000e+000
      vertex -1.950000e+002  1.057500e+002  8.000000e+000
      vertex -1.945000e+002  1.057500e+002  8.000000e+000
    endloop
  endfacet
  facet normal  0.000000e+000  -0.000000e+000  1.000000e+000
    outer loop
      vertex -1.950000e+002  1.080000e+002  8.000000e+000
      vertex -1.945000e+002  1.057500e+002  8.000000e+000
      vertex -1.945000e+002  1.075000e+002  8.000000e+000
    endloop
  endfacet
  facet normal  0.000000e+000  -0.000000e+000  1.000000e+000
    outer loop
      vertex -1.950000e+002  1.080000e+002  8.000000e+000
      vertex -1.945000e+002  1.075000e+002  8.000000e+000
      vertex -1.870000e+002  1.075000e+002  8.000000e+000
    endloop
  endfacet
  facet normal  0.000000e+000  0.000000e+000  1.000000e+000
    outer loop
      vertex -1.870000e+002  7.250000e+001  8.000000e+000
      vertex -1.205000e+002  7.250000e+001  8.000000e+000
      vertex -1.865000e+002  7.300000e+001  8.000000e+000
    endloop
  endfacet
  facet normal  -0.000000e+000  0.000000e+000  1.000000e+000
    outer loop
      vertex -1.865000e+002  7.300000e+001  8.000000e+000
      vertex -1.205000e+002  7.250000e+001  8.000000e+000
      vertex -1.205000e+002  7.300000e+001  8.000000e+000
    endloop
  endfacet
  facet normal  -0.000000e+000  0.000000e+000  1.000000e+000
    outer loop
      vertex -8.500000e+000  7.300000e+001  8.000000e+000
      vertex -7.450000e+001  7.300000e+001  8.000000e+000
      vertex -7.450000e+001  7.250000e+001  8.000000e+000
    endloop
  endfacet
  facet normal  0.000000e+000  0.000000e+000  1.000000e+000
    outer loop
      vertex -8.500000e+000  7.300000e+001  8.000000e+000
      vertex -7.450000e+001  7.250000e+001  8.000000e+000
      vertex -8.000000e+000  7.250000e+001  8.000000e+000
    endloop
  endfacet
  facet normal  0.000000e+000  -0.000000e+000  1.000000e+000
    outer loop
      vertex -8.500000e+000  7.300000e+001  8.000000e+000
      vertex -8.000000e+000  7.250000e+001  8.000000e+000
      vertex -8.000000e+000  1.075000e+002  8.000000e+000
    endloop
  endfacet
  facet normal  0.000000e+000  -0.000000e+000  1.000000e+000
    outer loop
      vertex -8.500000e+000  7.300000e+001  8.000000e+000
      vertex -8.000000e+000  1.075000e+002  8.000000e+000
      vertex -8.000000e+000  1.080000e+002  8.000000e+000
    endloop
  endfacet
  facet normal  0.000000e+000  0.000000e+000  1.000000e+000
    outer loop
      vertex -8.500000e+000  7.300000e+001  8.000000e+000
      vertex -8.000000e+000  1.080000e+002  8.000000e+000
      vertex -8.500000e+000  1.080000e+002  8.000000e+000
    endloop
  endfacet
  facet normal  0.000000e+000  0.000000e+000  1.000000e+000
    outer loop
      vertex -8.000000e+000  1.075000e+002  8.000000e+000
      vertex  0.000000e+000  1.075000e+002  8.000000e+000
      vertex -8.000000e+000  1.080000e+002  8.000000e+000
    endloop
  endfacet
  facet normal  -0.000000e+000  0.000000e+000  1.000000e+000
    outer loop
      vertex -8.000000e+000  1.080000e+002  8.000000e+000
      vertex  0.000000e+000  1.075000e+002  8.000000e+000
      vertex  0.000000e+000  1.080000e+002  8.000000e+000
    endloop
  endfacet
  facet normal  0.000000e+000  0.000000e+000  1.000000e+000
    outer loop
      vertex -1.200000e+002  7.250000e+001  8.000000e+000
      vertex -7.500000e+001  7.250000e+001  8.000000e+000
      vertex -1.200000e+002  7.300000e+001  8.000000e+000
    endloop
  endfacet
  facet normal  -0.000000e+000  0.000000e+000  1.000000e+000
    outer loop
      vertex -1.200000e+002  7.300000e+001  8.000000e+000
      vertex -7.500000e+001  7.250000e+001  8.000000e+000
      vertex -7.500000e+001  7.300000e+001  8.000000e+000
    endloop
  endfacet
  facet normal  1.000000e+000  0.000000e+000  0.000000e+000
    outer loop
      vertex -1.870000e+002  1.075000e+002  8.000000e+000
      vertex -1.870000e+002  1.075000e+002  8.500000e+000
      vertex -1.870000e+002  7.250000e+001  8.000000e+000
    endloop
  endfacet
  facet normal  1.000000e+000  0.000000e+000  0.000000e+000
    outer loop
      vertex -1.870000e+002  7.250000e+001  8.000000e+000
      vertex -1.870000e+002  1.075000e+002  8.500000e+000
      vertex -1.870000e+002  7.250000e+001  8.500000e+000
    endloop
  endfacet
  facet normal -1.000000e+000  0.000000e+000  0.000000e+000
    outer loop
      vertex -8.000000e+000  1.075000e+002  8.500000e+000
      vertex -8.000000e+000  1.075000e+002  8.000000e+000
      vertex -8.000000e+000  7.250000e+001  8.500000e+000
    endloop
  endfacet
  facet normal -1.000000e+000  0.000000e+000  0.000000e+000
    outer loop
      vertex -8.000000e+000  7.250000e+001  8.500000e+000
      vertex -8.000000e+000  1.075000e+002  8.000000e+000
      vertex -8.000000e+000  7.250000e+001  8.000000e+000
    endloop
  endfacet
  facet normal  0.000000e+000  1.000000e+000  0.000000e+000
    outer loop
      vertex -8.000000e+000  1.075000e+002  8.000000e+000
      vertex -8.000000e+000  1.075000e+002  8.500000e+000
      vertex  0.000000e+000  1.075000e+002  8.000000e+000
    endloop
  endfacet
  facet normal  0.000000e+000  1.000000e+000  -0.000000e+000
    outer loop
      vertex  0.000000e+000  1.075000e+002  8.000000e+000
      vertex -8.000000e+000  1.075000e+002  8.500000e+000
      vertex  0.000000e+000  1.075000e+002  8.500000e+000
    endloop
  endfacet
  facet normal  0.000000e+000  1.000000e+000  0.000000e+000
    outer loop
      vertex -1.945000e+002  1.075000e+002  8.000000e+000
      vertex -1.945000e+002  1.075000e+002  8.500000e+000
      vertex -1.870000e+002  1.075000e+002  8.000000e+000
    endloop
  endfacet
  facet normal  0.000000e+000  1.000000e+000  -0.000000e+000
    outer loop
      vertex -1.870000e+002  1.075000e+002  8.000000e+000
      vertex -1.945000e+002  1.075000e+002  8.500000e+000
      vertex -1.870000e+002  1.075000e+002  8.500000e+000
    endloop
  endfacet
  facet normal -1.000000e+000  -0.000000e+000  0.000000e+000
    outer loop
      vertex -8.500000e+000  7.300000e+001  8.000000e+000
      vertex -8.500000e+000  1.080000e+002  8.000000e+000
      vertex -8.500000e+000  7.300000e+001 -1.421085e-014
    endloop
  endfacet
  facet normal -1.000000e+000  0.000000e+000  0.000000e+000
    outer loop
      vertex -8.500000e+000  7.300000e+001 -1.421085e-014
      vertex -8.500000e+000  1.080000e+002  8.000000e+000
      vertex -8.500000e+000  1.080000e+002  0.000000e+000
    endloop
  endfacet
  facet normal -1.000000e+000  -0.000000e+000  0.000000e+000
    outer loop
      vertex -8.500000e+000  7.300000e+001  7.600000e+001
      vertex -8.500000e+000  1.080000e+002  7.600000e+001
      vertex -8.500000e+000  7.300000e+001  8.500000e+000
    endloop
  endfacet
  facet normal -1.000000e+000  0.000000e+000  0.000000e+000
    outer loop
      vertex -8.500000e+000  7.300000e+001  8.500000e+000
      vertex -8.500000e+000  1.080000e+002  7.600000e+001
      vertex -8.500000e+000  1.080000e+002  8.500000e+000
    endloop
  endfacet
  facet normal  1.000000e+000  0.000000e+000  0.000000e+000
    outer loop
      vertex -1.865000e+002  7.300000e+001  8.500000e+000
      vertex -1.865000e+002  1.080000e+002  8.500000e+000
      vertex -1.865000e+002  7.300000e+001  7.600000e+001
    endloop
  endfacet
  facet normal  1.000000e+000  -0.000000e+000  0.000000e+000
    outer loop
      vertex -1.865000e+002  7.300000e+001  7.600000e+001
      vertex -1.865000e+002  1.080000e+002  8.500000e+000
      vertex -1.865000e+002  1.080000e+002  7.600000e+001
    endloop
  endfacet
  facet normal  1.000000e+000  0.000000e+000  0.000000e+000
    outer loop
      vertex -1.865000e+002  7.300000e+001  0.000000e+000
      vertex -1.865000e+002  1.080000e+002  0.000000e+000
      vertex -1.865000e+002  7.300000e+001  8.000000e+000
    endloop
  endfacet
  facet normal  1.000000e+000  -0.000000e+000  0.000000e+000
    outer loop
      vertex -1.865000e+002  7.300000e+001  8.000000e+000
      vertex -1.865000e+002  1.080000e+002  0.000000e+000
      vertex -1.865000e+002  1.080000e+002  8.000000e+000
    endloop
  endfacet
  facet normal  0.000000e+000  1.000000e+000  0.000000e+000
    outer loop
      vertex -1.865000e+002  1.080000e+002  8.500000e+000
      vertex -1.870000e+002  1.080000e+002  8.500000e+000
      vertex -1.865000e+002  1.080000e+002  7.600000e+001
    endloop
  endfacet
  facet normal  0.000000e+000  1.000000e+000  0.000000e+000
    outer loop
      vertex -8.000000e+000  1.080000e+002  8.500000e+000
      vertex  0.000000e+000  1.080000e+002  7.950000e+001
      vertex  0.000000e+000  1.080000e+002  8.500000e+000
    endloop
  endfacet
  facet normal  0.000000e+000  1.000000e+000  0.000000e+000
    outer loop
      vertex -8.000000e+000  1.080000e+002  8.500000e+000
      vertex -8.500000e+000  1.080000e+002  8.500000e+000
      vertex  0.000000e+000  1.080000e+002  7.950000e+001
    endloop
  endfacet
  facet normal  0.000000e+000  1.000000e+000  0.000000e+000
    outer loop
      vertex  0.000000e+000  1.080000e+002  7.950000e+001
      vertex -8.500000e+000  1.080000e+002  8.500000e+000
      vertex -8.500000e+000  1.080000e+002  7.600000e+001
    endloop
  endfacet
  facet normal  0.000000e+000  1.000000e+000  -0.000000e+000
    outer loop
      vertex  0.000000e+000  1.080000e+002  7.950000e+001
      vertex -8.500000e+000  1.080000e+002  7.600000e+001
      vertex -1.950000e+002  1.080000e+002  7.950000e+001
    endloop
  endfacet
  facet normal  0.000000e+000  1.000000e+000  0.000000e+000
    outer loop
      vertex -1.950000e+002  1.080000e+002  7.950000e+001
      vertex -8.500000e+000  1.080000e+002  7.600000e+001
      vertex -1.865000e+002  1.080000e+002  7.600000e+001
    endloop
  endfacet
  facet normal  0.000000e+000  1.000000e+000  0.000000e+000
    outer loop
      vertex -1.950000e+002  1.080000e+002  7.950000e+001
      vertex -1.865000e+002  1.080000e+002  7.600000e+001
      vertex -1.950000e+002  1.080000e+002  8.500000e+000
    endloop
  endfacet
  facet normal  0.000000e+000  1.000000e+000  0.000000e+000
    outer loop
      vertex -1.950000e+002  1.080000e+002  8.500000e+000
      vertex -1.865000e+002  1.080000e+002  7.600000e+001
      vertex -1.870000e+002  1.080000e+002  8.500000e+000
    endloop
  endfacet
  facet normal  0.000000e+000  1.000000e+000  0.000000e+000
    outer loop
      vertex -8.500000e+000  1.080000e+002  0.000000e+000
      vertex -8.500000e+000  1.080000e+002  8.000000e+000
      vertex  0.000000e+000  1.080000e+002  0.000000e+000
    endloop
  endfacet
  facet normal  0.000000e+000  1.000000e+000  0.000000e+000
    outer loop
      vertex  0.000000e+000  1.080000e+002  0.000000e+000
      vertex -8.500000e+000  1.080000e+002  8.000000e+000
      vertex -8.000000e+000  1.080000e+002  8.000000e+000
    endloop
  endfacet
  facet normal  -0.000000e+000  1.000000e+000  0.000000e+000
    outer loop
      vertex  0.000000e+000  1.080000e+002  0.000000e+000
      vertex -8.000000e+000  1.080000e+002  8.000000e+000
      vertex  0.000000e+000  1.080000e+002  8.000000e+000
    endloop
  endfacet
  facet normal  0.000000e+000  1.000000e+000  0.000000e+000
    outer loop
      vertex -1.950000e+002  1.080000e+002  0.000000e+000
      vertex -1.950000e+002  1.080000e+002  8.000000e+000
      vertex -1.865000e+002  1.080000e+002  0.000000e+000
    endloop
  endfacet
  facet normal  0.000000e+000  1.000000e+000  0.000000e+000
    outer loop
      vertex -1.865000e+002  1.080000e+002  0.000000e+000
      vertex -1.950000e+002  1.080000e+002  8.000000e+000
      vertex -1.870000e+002  1.080000e+002  8.000000e+000
    endloop
  endfacet
  facet normal  -0.000000e+000  1.000000e+000  0.000000e+000
    outer loop
      vertex -1.865000e+002  1.080000e+002  0.000000e+000
      vertex -1.870000e+002  1.080000e+002  8.000000e+000
      vertex -1.865000e+002  1.080000e+002  8.000000e+000
    endloop
  endfacet
  facet normal -1.000000e+000  0.000000e+000  0.000000e+000
    outer loop
      vertex -1.945000e+002  0.000000e+000  1.675000e+002
      vertex -1.945000e+002  0.000000e+000  1.680000e+002
      vertex -1.945000e+002  9.725000e+001  1.675000e+002
    endloop
  endfacet
  facet normal -1.000000e+000  0.000000e+000  0.000000e+000
    outer loop
      vertex -1.945000e+002  9.950000e+001  1.610000e+002
      vertex -1.945000e+002  9.775000e+001  1.610000e+002
      vertex -1.945000e+002  9.950000e+001  1.615000e+002
    endloop
  endfacet
  facet normal -1.000000e+000  0.000000e+000  -0.000000e+000
    outer loop
      vertex -1.945000e+002 -1.043610e-014  1.610000e+002
      vertex -1.945000e+002  1.421085e-014  1.615000e+002
      vertex -1.945000e+002  9.725000e+001  1.610000e+002
    endloop
  endfacet
  facet normal -1.000000e+000  0.000000e+000  -0.000000e+000
    outer loop
      vertex -1.945000e+002  9.725000e+001  1.610000e+002
      vertex -1.945000e+002  9.775000e+001  1.615000e+002
      vertex -1.945000e+002  9.950000e+001  1.615000e+002
    endloop
  endfacet
  facet normal -1.000000e+000  0.000000e+000  0.000000e+000
    outer loop
      vertex -1.945000e+002  9.725000e+001  1.610000e+002
      vertex -1.945000e+002  9.950000e+001  1.615000e+002
      vertex -1.945000e+002  9.775000e+001  1.610000e+002
    endloop
  endfacet
  facet normal -1.000000e+000  -0.000000e+000  0.000000e+000
    outer loop
      vertex -1.945000e+002  9.725000e+001  1.610000e+002
      vertex -1.945000e+002  9.775000e+001  1.610000e+002
      vertex -1.945000e+002  9.725000e+001  1.609754e+002
    endloop
  endfacet
  facet normal -1.000000e+000  0.000000e+000  0.000000e+000
    outer loop
      vertex -1.945000e+002  9.725000e+001  1.615000e+002
      vertex -1.945000e+002  9.725000e+001  1.675000e+002
      vertex -1.945000e+002  9.775000e+001  1.675000e+002
    endloop
  endfacet
  facet normal -1.000000e+000  0.000000e+000  -0.000000e+000
    outer loop
      vertex -1.945000e+002  9.725000e+001  1.615000e+002
      vertex -1.945000e+002  9.775000e+001  1.675000e+002
      vertex -1.945000e+002  9.775000e+001  1.615000e+002
    endloop
  endfacet
  facet normal -1.000000e+000  -0.000000e+000  0.000000e+000
    outer loop
      vertex -1.945000e+002  9.725000e+001  1.615000e+002
      vertex -1.945000e+002  9.775000e+001  1.615000e+002
      vertex -1.945000e+002  9.725000e+001  1.610000e+002
    endloop
  endfacet
  facet normal -1.000000e+000  0.000000e+000  0.000000e+000
    outer loop
      vertex -1.945000e+002  9.725000e+001  1.615000e+002
      vertex -1.945000e+002  9.725000e+001  1.610000e+002
      vertex -1.945000e+002  1.421085e-014  1.615000e+002
    endloop
  endfacet
  facet normal -1.000000e+000  0.000000e+000  0.000000e+000
    outer loop
      vertex -1.945000e+002  9.725000e+001  1.680000e+002
      vertex -1.945000e+002  9.725000e+001  1.693750e+002
      vertex -1.945000e+002  9.775000e+001  1.691250e+002
    endloop
  endfacet
  facet normal -1.000000e+000  0.000000e+000  -0.000000e+000
    outer loop
      vertex -1.945000e+002  9.725000e+001  1.680000e+002
      vertex -1.945000e+002  9.775000e+001  1.691250e+002
      vertex -1.945000e+002  9.775000e+001  1.680000e+002
    endloop
  endfacet
  facet normal -1.000000e+000  -0.000000e+000  0.000000e+000
    outer loop
      vertex -1.945000e+002  9.725000e+001  1.680000e+002
      vertex -1.945000e+002  9.775000e+001  1.680000e+002
      vertex -1.945000e+002  9.725000e+001  1.675000e+002
    endloop
  endfacet
  facet normal -1.000000e+000  0.000000e+000  0.000000e+000
    outer loop
      vertex -1.945000e+002  9.725000e+001  1.680000e+002
      vertex -1.945000e+002  9.725000e+001  1.675000e+002
      vertex -1.945000e+002  0.000000e+000  1.680000e+002
    endloop
  endfacet
  facet normal -1.000000e+000  0.000000e+000  0.000000e+000
    outer loop
      vertex -1.945000e+002  1.075000e+002  8.000000e+001
      vertex -1.945000e+002  1.075000e+002  7.950000e+001
      vertex -1.945000e+002  1.057500e+002  7.950000e+001
    endloop
  endfacet
  facet normal -1.000000e+000  0.000000e+000  0.000000e+000
    outer loop
      vertex -1.945000e+002  1.075000e+002  8.000000e+001
      vertex -1.945000e+002  1.057500e+002  7.950000e+001
      vertex -1.945000e+002  1.052500e+002  7.950000e+001
    endloop
  endfacet
  facet normal -1.000000e+000  0.000000e+000  0.000000e+000
    outer loop
      vertex -1.945000e+002  1.075000e+002  8.000000e+001
      vertex -1.945000e+002  1.052500e+002  7.950000e+001
      vertex -1.945000e+002  0.000000e+000  7.950000e+001
    endloop
  endfacet
  facet normal -9.999999e-001  0.000000e+000  0.000000e+000
    outer loop
      vertex -1.945000e+002  0.000000e+000  7.950000e+001
      vertex -1.945000e+002  0.000000e+000  8.000000e+001
      vertex -1.945000e+002  1.052476e+002  8.000000e+001
    endloop
  endfacet
  facet normal -1.000000e+000  0.000000e+000  -0.000000e+000
    outer loop
      vertex -1.945000e+002  0.000000e+000  7.950000e+001
      vertex -1.945000e+002  1.052476e+002  8.000000e+001
      vertex -1.945000e+002  1.057500e+002  8.000000e+001
    endloop
  endfacet
  facet normal -1.000000e+000  0.000000e+000  -0.000000e+000
    outer loop
      vertex -1.945000e+002  0.000000e+000  7.950000e+001
      vertex -1.945000e+002  1.057500e+002  8.000000e+001
      vertex -1.945000e+002  1.075000e+002  8.000000e+001
    endloop
  endfacet
  facet normal -1.000000e+000  0.000000e+000  0.000000e+000
    outer loop
      vertex -1.945000e+002  1.075000e+002  8.500000e+000
      vertex -1.945000e+002  1.075000e+002  8.000000e+000
      vertex -1.945000e+002  1.057500e+002  8.000000e+000
    endloop
  endfacet
  facet normal -1.000000e+000  0.000000e+000  0.000000e+000
    outer loop
      vertex -1.945000e+002  1.075000e+002  8.500000e+000
      vertex -1.945000e+002  1.057500e+002  8.000000e+000
      vertex -1.945000e+002  1.052500e+002  8.000000e+000
    endloop
  endfacet
  facet normal -1.000000e+000  0.000000e+000  0.000000e+000
    outer loop
      vertex -1.945000e+002  1.075000e+002  8.500000e+000
      vertex -1.945000e+002  1.052500e+002  8.000000e+000
      vertex -1.945000e+002  0.000000e+000  8.000000e+000
    endloop
  endfacet
  facet normal -1.000000e+000  0.000000e+000  0.000000e+000
    outer loop
      vertex -1.945000e+002  0.000000e+000  8.000000e+000
      vertex -1.945000e+002  0.000000e+000  8.500000e+000
      vertex -1.945000e+002  1.052500e+002  8.500000e+000
    endloop
  endfacet
  facet normal -1.000000e+000  0.000000e+000  -0.000000e+000
    outer loop
      vertex -1.945000e+002  0.000000e+000  8.000000e+000
      vertex -1.945000e+002  1.052500e+002  8.500000e+000
      vertex -1.945000e+002  1.057500e+002  8.500000e+000
    endloop
  endfacet
  facet normal -1.000000e+000  0.000000e+000  -0.000000e+000
    outer loop
      vertex -1.945000e+002  0.000000e+000  8.000000e+000
      vertex -1.945000e+002  1.057500e+002  8.500000e+000
      vertex -1.945000e+002  1.075000e+002  8.500000e+000
    endloop
  endfacet
  facet normal -1.000000e+000  0.000000e+000  0.000000e+000
    outer loop
      vertex -1.945000e+002  9.950000e+001  1.675000e+002
      vertex -1.945000e+002  9.775000e+001  1.675000e+002
      vertex -1.945000e+002  9.950000e+001  1.680000e+002
    endloop
  endfacet
  facet normal -1.000000e+000  0.000000e+000  0.000000e+000
    outer loop
      vertex -1.945000e+002  9.950000e+001  1.680000e+002
      vertex -1.945000e+002  9.775000e+001  1.675000e+002
      vertex -1.945000e+002  9.725000e+001  1.675000e+002
    endloop
  endfacet
  facet normal -1.000000e+000  0.000000e+000  0.000000e+000
    outer loop
      vertex -1.945000e+002  9.950000e+001  1.680000e+002
      vertex -1.945000e+002  9.725000e+001  1.675000e+002
      vertex -1.945000e+002  9.775000e+001  1.680000e+002
    endloop
  endfacet
  facet normal -1.000000e+000  0.000000e+000  0.000000e+000
    outer loop
      vertex -1.945000e+002  1.013724e+002  2.500000e+002
      vertex -1.945000e+002  1.135441e+002  1.809706e+002
      vertex -1.945000e+002  1.008800e+002  2.499132e+002
    endloop
  endfacet
  facet normal -1.000000e+000  0.000000e+000  0.000000e+000
    outer loop
      vertex -1.945000e+002  1.008800e+002  2.499132e+002
      vertex -1.945000e+002  1.135441e+002  1.809706e+002
      vertex -1.945000e+002  1.129984e+002  1.811863e+002
    endloop
  endfacet
  facet normal -1.000000e+000  0.000000e+000  0.000000e+000
    outer loop
      vertex -1.945000e+002  1.135441e+002  1.809706e+002
      vertex -1.945000e+002  9.775000e+001  1.691250e+002
      vertex -1.945000e+002  1.129984e+002  1.811863e+002
    endloop
  endfacet
  facet normal -1.000000e+000  0.000000e+000  0.000000e+000
    outer loop
      vertex -1.945000e+002  1.129984e+002  1.811863e+002
      vertex -1.945000e+002  9.775000e+001  1.691250e+002
      vertex -1.945000e+002  9.725000e+001  1.693750e+002
    endloop
  endfacet
  facet normal -1.000000e+000  0.000000e+000  0.000000e+000
    outer loop
      vertex -1.945000e+002  1.052476e+002  8.000000e+001
      vertex -1.945000e+002  9.725000e+001  1.609754e+002
      vertex -1.945000e+002  1.057500e+002  8.000000e+001
    endloop
  endfacet
  facet normal -1.000000e+000  0.000000e+000  0.000000e+000
    outer loop
      vertex -1.945000e+002  1.057500e+002  8.000000e+001
      vertex -1.945000e+002  9.725000e+001  1.609754e+002
      vertex -1.945000e+002  9.775000e+001  1.610000e+002
    endloop
  endfacet
  facet normal -1.000000e+000  0.000000e+000  0.000000e+000
    outer loop
      vertex -1.945000e+002  1.052500e+002  8.500000e+000
      vertex -1.945000e+002  1.052500e+002  7.950000e+001
      vertex -1.945000e+002  1.057500e+002  8.500000e+000
    endloop
  endfacet
  facet normal -1.000000e+000  0.000000e+000  0.000000e+000
    outer loop
      vertex -1.945000e+002  1.057500e+002  8.500000e+000
      vertex -1.945000e+002  1.052500e+002  7.950000e+001
      vertex -1.945000e+002  1.057500e+002  7.950000e+001
    endloop
  endfacet
  facet normal -1.000000e+000  0.000000e+000  0.000000e+000
    outer loop
      vertex -1.945000e+002  1.052500e+002  0.000000e+000
      vertex -1.945000e+002  1.052500e+002  8.000000e+000
      vertex -1.945000e+002  1.057500e+002  0.000000e+000
    endloop
  endfacet
  facet normal -1.000000e+000  0.000000e+000  0.000000e+000
    outer loop
      vertex -1.945000e+002  1.057500e+002  0.000000e+000
      vertex -1.945000e+002  1.052500e+002  8.000000e+000
      vertex -1.945000e+002  1.057500e+002  8.000000e+000
    endloop
  endfacet
  facet normal  0.000000e+000  1.000000e+000  0.000000e+000
    outer loop
      vertex -1.945000e+002  1.052500e+002  8.500000e+000
      vertex -1.950000e+002  1.052500e+002  8.500000e+000
      vertex -1.945000e+002  1.052500e+002  7.950000e+001
    endloop
  endfacet
  facet normal  0.000000e+000  1.000000e+000  0.000000e+000
    outer loop
      vertex -1.945000e+002  1.052500e+002  7.950000e+001
      vertex -1.950000e+002  1.052500e+002  8.500000e+000
      vertex -1.950000e+002  1.052500e+002  7.950000e+001
    endloop
  endfacet
  facet normal  0.000000e+000 -1.000000e+000  0.000000e+000
    outer loop
      vertex -1.950000e+002  1.057500e+002  8.500000e+000
      vertex -1.945000e+002  1.057500e+002  8.500000e+000
      vertex -1.950000e+002  1.057500e+002  7.950000e+001
    endloop
  endfacet
  facet normal  0.000000e+000 -1.000000e+000  0.000000e+000
    outer loop
      vertex -1.950000e+002  1.057500e+002  7.950000e+001
      vertex -1.945000e+002  1.057500e+002  8.500000e+000
      vertex -1.945000e+002  1.057500e+002  7.950000e+001
    endloop
  endfacet
  facet normal  0.000000e+000  1.000000e+000  0.000000e+000
    outer loop
      vertex -1.945000e+002  9.725000e+001  1.680000e+002
      vertex -1.950000e+002  9.725000e+001  1.680000e+002
      vertex -1.945000e+002  9.725000e+001  1.693750e+002
    endloop
  endfacet
  facet normal  0.000000e+000  1.000000e+000  0.000000e+000
    outer loop
      vertex -1.945000e+002  9.725000e+001  1.693750e+002
      vertex -1.950000e+002  9.725000e+001  1.680000e+002
      vertex -1.950000e+002  9.725000e+001  1.693750e+002
    endloop
  endfacet
  facet normal  0.000000e+000  5.999998e-001 -8.000001e-001
    outer loop
      vertex -1.945000e+002  9.725000e+001  1.693750e+002
      vertex -1.950000e+002  9.725000e+001  1.693750e+002
      vertex -1.945000e+002  1.129984e+002  1.811863e+002
    endloop
  endfacet
  facet normal  0.000000e+000  5.999998e-001 -8.000001e-001
    outer loop
      vertex -1.945000e+002  1.129984e+002  1.811863e+002
      vertex -1.950000e+002  9.725000e+001  1.693750e+002
      vertex -1.950000e+002  1.129984e+002  1.811863e+002
    endloop
  endfacet
  facet normal  -0.000000e+000  9.848077e-001  1.736481e-001
    outer loop
      vertex -1.945000e+002  1.129984e+002  1.811863e+002
      vertex -1.950000e+002  1.129984e+002  1.811863e+002
      vertex -1.945000e+002  1.008800e+002  2.499132e+002
    endloop
  endfacet
  facet normal  0.000000e+000  9.848077e-001  1.736481e-001
    outer loop
      vertex -1.945000e+002  1.008800e+002  2.499132e+002
      vertex -1.950000e+002  1.129984e+002  1.811863e+002
      vertex -1.950000e+002  1.008800e+002  2.499132e+002
    endloop
  endfacet
  facet normal  0.000000e+000  1.736460e-001 -9.848081e-001
    outer loop
      vertex -1.945000e+002  1.013724e+002  2.500000e+002
      vertex -1.945000e+002  1.008800e+002  2.499132e+002
      vertex -1.950000e+002  1.013724e+002  2.500000e+002
    endloop
  endfacet
  facet normal  0.000000e+000  1.736460e-001 -9.848081e-001
    outer loop
      vertex -1.950000e+002  1.013724e+002  2.500000e+002
      vertex -1.945000e+002  1.008800e+002  2.499132e+002
      vertex -1.950000e+002  1.008800e+002  2.499132e+002
    endloop
  endfacet
  facet normal  0.000000e+000 -1.000000e+000  0.000000e+000
    outer loop
      vertex -1.950000e+002  9.775000e+001  1.680000e+002
      vertex -1.945000e+002  9.775000e+001  1.680000e+002
      vertex -1.950000e+002  9.775000e+001  1.691250e+002
    endloop
  endfacet
  facet normal  0.000000e+000 -1.000000e+000  0.000000e+000
    outer loop
      vertex -1.950000e+002  9.775000e+001  1.691250e+002
      vertex -1.945000e+002  9.775000e+001  1.680000e+002
      vertex -1.945000e+002  9.775000e+001  1.691250e+002
    endloop
  endfacet
  facet normal  -0.000000e+000 -9.848078e-001 -1.736482e-001
    outer loop
      vertex -1.950000e+002  1.135441e+002  1.809706e+002
      vertex -1.945000e+002  1.135441e+002  1.809706e+002
      vertex -1.950000e+002  1.013724e+002  2.500000e+002
    endloop
  endfacet
  facet normal  0.000000e+000 -9.848078e-001 -1.736482e-001
    outer loop
      vertex -1.950000e+002  1.013724e+002  2.500000e+002
      vertex -1.945000e+002  1.135441e+002  1.809706e+002
      vertex -1.945000e+002  1.013724e+002  2.500000e+002
    endloop
  endfacet
  facet normal  0.000000e+000 -6.000001e-001  7.999999e-001
    outer loop
      vertex -1.950000e+002  9.775000e+001  1.691250e+002
      vertex -1.945000e+002  9.775000e+001  1.691250e+002
      vertex -1.950000e+002  1.135441e+002  1.809706e+002
    endloop
  endfacet
  facet normal  0.000000e+000 -6.000001e-001  7.999999e-001
    outer loop
      vertex -1.950000e+002  1.135441e+002  1.809706e+002
      vertex -1.945000e+002  9.775000e+001  1.691250e+002
      vertex -1.945000e+002  1.135441e+002  1.809706e+002
    endloop
  endfacet
  facet normal  -0.000000e+000  9.951581e-001  9.828721e-002
    outer loop
      vertex -1.945000e+002  1.052476e+002  8.000000e+001
      vertex -1.950000e+002  1.052476e+002  8.000000e+001
      vertex -1.945000e+002  9.725000e+001  1.609754e+002
    endloop
  endfacet
  facet normal  0.000000e+000  9.951581e-001  9.828721e-002
    outer loop
      vertex -1.945000e+002  9.725000e+001  1.609754e+002
      vertex -1.950000e+002  1.052476e+002  8.000000e+001
      vertex -1.950000e+002  9.725000e+001  1.609754e+002
    endloop
  endfacet
  facet normal  0.000000e+000  1.000000e+000  0.000000e+000
    outer loop
      vertex -1.945000e+002  9.725000e+001  1.609754e+002
      vertex -1.950000e+002  9.725000e+001  1.609754e+002
      vertex -1.945000e+002  9.725000e+001  1.610000e+002
    endloop
  endfacet
  facet normal  0.000000e+000  1.000000e+000  0.000000e+000
    outer loop
      vertex -1.945000e+002  9.725000e+001  1.610000e+002
      vertex -1.950000e+002  9.725000e+001  1.609754e+002
      vertex -1.950000e+002  9.725000e+001  1.610000e+002
    endloop
  endfacet
  facet normal  -0.000000e+000 -9.951581e-001 -9.828722e-002
    outer loop
      vertex -1.950000e+002  1.057500e+002  8.000000e+001
      vertex -1.945000e+002  1.057500e+002  8.000000e+001
      vertex -1.950000e+002  9.775000e+001  1.610000e+002
    endloop
  endfacet
  facet normal  0.000000e+000 -9.951581e-001 -9.828722e-002
    outer loop
      vertex -1.950000e+002  9.775000e+001  1.610000e+002
      vertex -1.945000e+002  1.057500e+002  8.000000e+001
      vertex -1.945000e+002  9.775000e+001  1.610000e+002
    endloop
  endfacet
  facet normal  0.000000e+000 -1.000000e+000  0.000000e+000
    outer loop
      vertex -1.950000e+002  9.775000e+001  1.615000e+002
      vertex -1.945000e+002  9.775000e+001  1.615000e+002
      vertex -1.950000e+002  9.775000e+001  1.675000e+002
    endloop
  endfacet
  facet normal  0.000000e+000 -1.000000e+000  0.000000e+000
    outer loop
      vertex -1.950000e+002  9.775000e+001  1.675000e+002
      vertex -1.945000e+002  9.775000e+001  1.615000e+002
      vertex -1.945000e+002  9.775000e+001  1.675000e+002
    endloop
  endfacet
  facet normal  0.000000e+000  1.000000e+000  0.000000e+000
    outer loop
      vertex -1.945000e+002  9.725000e+001  1.615000e+002
      vertex -1.950000e+002  9.725000e+001  1.615000e+002
      vertex -1.945000e+002  9.725000e+001  1.675000e+002
    endloop
  endfacet
  facet normal  0.000000e+000  1.000000e+000  0.000000e+000
    outer loop
      vertex -1.945000e+002  9.725000e+001  1.675000e+002
      vertex -1.950000e+002  9.725000e+001  1.615000e+002
      vertex -1.950000e+002  9.725000e+001  1.675000e+002
    endloop
  endfacet
  facet normal  0.000000e+000 -1.000000e+000  0.000000e+000
    outer loop
      vertex -1.950000e+002  1.057500e+002  0.000000e+000
      vertex -1.945000e+002  1.057500e+002  0.000000e+000
      vertex -1.950000e+002  1.057500e+002  8.000000e+000
    endloop
  endfacet
  facet normal  0.000000e+000 -1.000000e+000  0.000000e+000
    outer loop
      vertex -1.950000e+002  1.057500e+002  8.000000e+000
      vertex -1.945000e+002  1.057500e+002  0.000000e+000
      vertex -1.945000e+002  1.057500e+002  8.000000e+000
    endloop
  endfacet
  facet normal  0.000000e+000  1.000000e+000  0.000000e+000
    outer loop
      vertex -1.945000e+002  1.052500e+002  0.000000e+000
      vertex -1.950000e+002  1.052500e+002  0.000000e+000
      vertex -1.945000e+002  1.052500e+002  8.000000e+000
    endloop
  endfacet
  facet normal  0.000000e+000  1.000000e+000  0.000000e+000
    outer loop
      vertex -1.945000e+002  1.052500e+002  8.000000e+000
      vertex -1.950000e+002  1.052500e+002  0.000000e+000
      vertex -1.950000e+002  1.052500e+002  8.000000e+000
    endloop
  endfacet
  facet normal  -0.000000e+000  0.000000e+000  1.000000e+000
    outer loop
      vertex  0.000000e+000  1.036571e+002  2.500000e+002
      vertex -1.950000e+002  1.036571e+002  2.500000e+002
      vertex  0.000000e+000  0.000000e+000  2.500000e+002
    endloop
  endfacet
  facet normal  0.000000e+000  0.000000e+000  1.000000e+000
    outer loop
      vertex  0.000000e+000  0.000000e+000  2.500000e+002
      vertex -1.950000e+002  1.036571e+002  2.500000e+002
      vertex -1.950000e+002  1.013724e+002  2.500000e+002
    endloop
  endfacet
  facet normal  0.000000e+000  0.000000e+000  1.000000e+000
    outer loop
      vertex  0.000000e+000  0.000000e+000  2.500000e+002
      vertex -1.950000e+002  1.013724e+002  2.500000e+002
      vertex -1.950000e+002  0.000000e+000  2.500000e+002
    endloop
  endfacet
  facet normal -9.999999e-001  0.000000e+000  0.000000e+000
    outer loop
      vertex -1.950000e+002  1.052476e+002  8.000000e+001
      vertex -1.950000e+002  0.000000e+000  8.000000e+001
      vertex -1.950000e+002  9.725000e+001  1.609754e+002
    endloop
  endfacet
  facet normal -1.000000e+000  -0.000000e+000  0.000000e+000
    outer loop
      vertex -1.950000e+002  9.725000e+001  1.609754e+002
      vertex -1.950000e+002  0.000000e+000  8.000000e+001
      vertex -1.950000e+002 -1.043610e-014  1.610000e+002
    endloop
  endfacet
  facet normal -1.000000e+000  0.000000e+000  0.000000e+000
    outer loop
      vertex -1.950000e+002  9.725000e+001  1.609754e+002
      vertex -1.950000e+002 -1.043610e-014  1.610000e+002
      vertex -1.950000e+002  9.725000e+001  1.610000e+002
    endloop
  endfacet
  facet normal -1.000000e+000  0.000000e+000  0.000000e+000
    outer loop
      vertex -1.950000e+002  1.057500e+002  8.000000e+001
      vertex -1.950000e+002  9.775000e+001  1.610000e+002
      vertex -1.950000e+002  1.080000e+002  8.000000e+001
    endloop
  endfacet
  facet normal -1.000000e+000  0.000000e+000  0.000000e+000
    outer loop
      vertex -1.950000e+002  1.080000e+002  8.000000e+001
      vertex -1.950000e+002  9.775000e+001  1.610000e+002
      vertex -1.950000e+002  1.000000e+002  1.610000e+002
    endloop
  endfacet
  facet normal -1.000000e+000  0.000000e+000  0.000000e+000
    outer loop
      vertex -1.950000e+002  1.057500e+002  8.500000e+000
      vertex -1.950000e+002  1.057500e+002  7.950000e+001
      vertex -1.950000e+002  1.080000e+002  8.500000e+000
    endloop
  endfacet
  facet normal -1.000000e+000  0.000000e+000  0.000000e+000
    outer loop
      vertex -1.950000e+002  1.080000e+002  8.500000e+000
      vertex -1.950000e+002  1.057500e+002  7.950000e+001
      vertex -1.950000e+002  1.080000e+002  7.950000e+001
    endloop
  endfacet
  facet normal -1.000000e+000  0.000000e+000  0.000000e+000
    outer loop
      vertex -1.950000e+002  0.000000e+000  8.500000e+000
      vertex -1.950000e+002  0.000000e+000  7.950000e+001
      vertex -1.950000e+002  1.052500e+002  8.500000e+000
    endloop
  endfacet
  facet normal -1.000000e+000  0.000000e+000  0.000000e+000
    outer loop
      vertex -1.950000e+002  1.052500e+002  8.500000e+000
      vertex -1.950000e+002  0.000000e+000  7.950000e+001
      vertex -1.950000e+002  1.052500e+002  7.950000e+001
    endloop
  endfacet
  facet normal -1.000000e+000  0.000000e+000  0.000000e+000
    outer loop
      vertex -1.950000e+002  0.000000e+000  0.000000e+000
      vertex -1.950000e+002  0.000000e+000  8.000000e+000
      vertex -1.950000e+002  1.052500e+002  0.000000e+000
    endloop
  endfacet
  facet normal -1.000000e+000  0.000000e+000  0.000000e+000
    outer loop
      vertex -1.950000e+002  1.052500e+002  0.000000e+000
      vertex -1.950000e+002  0.000000e+000  8.000000e+000
      vertex -1.950000e+002  1.052500e+002  8.000000e+000
    endloop
  endfacet
  facet normal -1.000000e+000  0.000000e+000  0.000000e+000
    outer loop
      vertex -1.950000e+002  1.057500e+002  0.000000e+000
      vertex -1.950000e+002  1.057500e+002  8.000000e+000
      vertex -1.950000e+002  1.080000e+002  0.000000e+000
    endloop
  endfacet
  facet normal -1.000000e+000  0.000000e+000  0.000000e+000
    outer loop
      vertex -1.950000e+002  1.080000e+002  0.000000e+000
      vertex -1.950000e+002  1.057500e+002  8.000000e+000
      vertex -1.950000e+002  1.080000e+002  8.000000e+000
    endloop
  endfacet
  facet normal -1.000000e+000  0.000000e+000  0.000000e+000
    outer loop
      vertex -1.950000e+002  1.421085e-014  1.615000e+002
      vertex -1.950000e+002  0.000000e+000  1.675000e+002
      vertex -1.950000e+002  9.725000e+001  1.615000e+002
    endloop
  endfacet
  facet normal -1.000000e+000  0.000000e+000  0.000000e+000
    outer loop
      vertex -1.950000e+002  9.725000e+001  1.615000e+002
      vertex -1.950000e+002  0.000000e+000  1.675000e+002
      vertex -1.950000e+002  9.725000e+001  1.675000e+002
    endloop
  endfacet
  facet normal -1.000000e+000  0.000000e+000  0.000000e+000
    outer loop
      vertex -1.950000e+002  9.775000e+001  1.615000e+002
      vertex -1.950000e+002  9.775000e+001  1.675000e+002
      vertex -1.950000e+002  1.000000e+002  1.615000e+002
    endloop
  endfacet
  facet normal -1.000000e+000  0.000000e+000  0.000000e+000
    outer loop
      vertex -1.950000e+002  1.000000e+002  1.615000e+002
      vertex -1.950000e+002  9.775000e+001  1.675000e+002
      vertex -1.950000e+002  1.000000e+002  1.675000e+002
    endloop
  endfacet
  facet normal -1.000000e+000  0.000000e+000  0.000000e+000
    outer loop
      vertex -1.950000e+002  9.775000e+001  1.680000e+002
      vertex -1.950000e+002  9.775000e+001  1.691250e+002
      vertex -1.950000e+002  1.000000e+002  1.680000e+002
    endloop
  endfacet
  facet normal -1.000000e+000  0.000000e+000  0.000000e+000
    outer loop
      vertex -1.950000e+002  1.000000e+002  1.680000e+002
      vertex -1.950000e+002  9.775000e+001  1.691250e+002
      vertex -1.950000e+002  1.135441e+002  1.809706e+002
    endloop
  endfacet
  facet normal -1.000000e+000  0.000000e+000  -0.000000e+000
    outer loop
      vertex -1.950000e+002  1.000000e+002  1.680000e+002
      vertex -1.950000e+002  1.135441e+002  1.809706e+002
      vertex -1.950000e+002  1.160000e+002  1.800000e+002
    endloop
  endfacet
  facet normal -1.000000e+000  0.000000e+000  0.000000e+000
    outer loop
      vertex -1.950000e+002  1.160000e+002  1.800000e+002
      vertex -1.950000e+002  1.135441e+002  1.809706e+002
      vertex -1.950000e+002  1.013724e+002  2.500000e+002
    endloop
  endfacet
  facet normal -1.000000e+000  0.000000e+000  0.000000e+000
    outer loop
      vertex -1.950000e+002  1.160000e+002  1.800000e+002
      vertex -1.950000e+002  1.013724e+002  2.500000e+002
      vertex -1.950000e+002  1.036571e+002  2.500000e+002
    endloop
  endfacet
  facet normal -1.000000e+000  0.000000e+000  0.000000e+000
    outer loop
      vertex -1.950000e+002  1.008800e+002  2.499132e+002
      vertex -1.950000e+002  0.000000e+000  2.500000e+002
      vertex -1.950000e+002  1.013724e+002  2.500000e+002
    endloop
  endfacet
  facet normal -1.000000e+000  0.000000e+000  0.000000e+000
    outer loop
      vertex -1.950000e+002  0.000000e+000  1.680000e+002
      vertex -1.950000e+002  0.000000e+000  2.500000e+002
      vertex -1.950000e+002  9.725000e+001  1.680000e+002
    endloop
  endfacet
  facet normal -1.000000e+000  0.000000e+000  0.000000e+000
    outer loop
      vertex -1.950000e+002  9.725000e+001  1.680000e+002
      vertex -1.950000e+002  0.000000e+000  2.500000e+002
      vertex -1.950000e+002  9.725000e+001  1.693750e+002
    endloop
  endfacet
  facet normal -1.000000e+000  -0.000000e+000  0.000000e+000
    outer loop
      vertex -1.950000e+002  0.000000e+000  2.500000e+002
      vertex -1.950000e+002  1.008800e+002  2.499132e+002
      vertex -1.950000e+002  9.725000e+001  1.693750e+002
    endloop
  endfacet
  facet normal -1.000000e+000  0.000000e+000  0.000000e+000
    outer loop
      vertex -1.950000e+002  9.725000e+001  1.693750e+002
      vertex -1.950000e+002  1.008800e+002  2.499132e+002
      vertex -1.950000e+002  1.129984e+002  1.811863e+002
    endloop
  endfacet
  facet normal  0.000000e+000  0.000000e+000 -1.000000e+000
    outer loop
      vertex  0.000000e+000  1.080000e+002  8.000000e+001
      vertex  0.000000e+000  1.075000e+002  8.000000e+001
      vertex -1.950000e+002  1.080000e+002  8.000000e+001
    endloop
  endfacet
  facet normal  0.000000e+000  0.000000e+000 -1.000000e+000
    outer loop
      vertex -1.950000e+002  1.080000e+002  8.000000e+001
      vertex  0.000000e+000  1.075000e+002  8.000000e+001
      vertex -1.945000e+002  1.075000e+002  8.000000e+001
    endloop
  endfacet
  facet normal  -0.000000e+000  0.000000e+000 -1.000000e+000
    outer loop
      vertex -1.950000e+002  1.080000e+002  8.000000e+001
      vertex -1.945000e+002  1.075000e+002  8.000000e+001
      vertex -1.950000e+002  1.057500e+002  8.000000e+001
    endloop
  endfacet
  facet normal  0.000000e+000  0.000000e+000 -1.000000e+000
    outer loop
      vertex -1.950000e+002  1.057500e+002  8.000000e+001
      vertex -1.945000e+002  1.075000e+002  8.000000e+001
      vertex -1.945000e+002  1.057500e+002  8.000000e+001
    endloop
  endfacet
  facet normal  0.000000e+000  0.000000e+000 -9.999999e-001
    outer loop
      vertex -1.950000e+002  0.000000e+000  8.000000e+001
      vertex -1.950000e+002  1.052476e+002  8.000000e+001
      vertex -1.945000e+002  0.000000e+000  8.000000e+001
    endloop
  endfacet
  facet normal  0.000000e+000  0.000000e+000 -9.999999e-001
    outer loop
      vertex -1.945000e+002  0.000000e+000  8.000000e+001
      vertex -1.950000e+002  1.052476e+002  8.000000e+001
      vertex -1.945000e+002  1.052476e+002  8.000000e+001
    endloop
  endfacet
  facet normal  0.000000e+000  0.000000e+000  1.000000e+000
    outer loop
      vertex -1.950000e+002  1.057500e+002  7.950000e+001
      vertex -1.945000e+002  1.057500e+002  7.950000e+001
      vertex -1.950000e+002  1.080000e+002  7.950000e+001
    endloop
  endfacet
  facet normal  0.000000e+000  0.000000e+000  1.000000e+000
    outer loop
      vertex -1.950000e+002  1.080000e+002  7.950000e+001
      vertex -1.945000e+002  1.057500e+002  7.950000e+001
      vertex -1.945000e+002  1.075000e+002  7.950000e+001
    endloop
  endfacet
  facet normal  0.000000e+000  -0.000000e+000  1.000000e+000
    outer loop
      vertex -1.950000e+002  1.080000e+002  7.950000e+001
      vertex -1.945000e+002  1.075000e+002  7.950000e+001
      vertex  0.000000e+000  1.080000e+002  7.950000e+001
    endloop
  endfacet
  facet normal  0.000000e+000  0.000000e+000  1.000000e+000
    outer loop
      vertex  0.000000e+000  1.080000e+002  7.950000e+001
      vertex -1.945000e+002  1.075000e+002  7.950000e+001
      vertex  0.000000e+000  1.075000e+002  7.950000e+001
    endloop
  endfacet
  facet normal  0.000000e+000  0.000000e+000  1.000000e+000
    outer loop
      vertex -1.945000e+002  0.000000e+000  7.950000e+001
      vertex -1.945000e+002  1.052500e+002  7.950000e+001
      vertex -1.950000e+002  0.000000e+000  7.950000e+001
    endloop
  endfacet
  facet normal  0.000000e+000  0.000000e+000  1.000000e+000
    outer loop
      vertex -1.950000e+002  0.000000e+000  7.950000e+001
      vertex -1.945000e+002  1.052500e+002  7.950000e+001
      vertex -1.950000e+002  1.052500e+002  7.950000e+001
    endloop
  endfacet
  facet normal  0.000000e+000  0.000000e+000 -1.000000e+000
    outer loop
      vertex -1.945000e+002  0.000000e+000  8.500000e+000
      vertex -1.950000e+002  0.000000e+000  8.500000e+000
      vertex -1.945000e+002  1.052500e+002  8.500000e+000
    endloop
  endfacet
  facet normal  -0.000000e+000  0.000000e+000 -1.000000e+000
    outer loop
      vertex -1.945000e+002  1.052500e+002  8.500000e+000
      vertex -1.950000e+002  0.000000e+000  8.500000e+000
      vertex -1.950000e+002  1.052500e+002  8.500000e+000
    endloop
  endfacet
  facet normal  0.000000e+000  0.000000e+000  1.000000e+000
    outer loop
      vertex -1.950000e+002  0.000000e+000  8.000000e+000
      vertex -1.945000e+002  0.000000e+000  8.000000e+000
      vertex -1.950000e+002  1.052500e+002  8.000000e+000
    endloop
  endfacet
  facet normal  -0.000000e+000  0.000000e+000  1.000000e+000
    outer loop
      vertex -1.950000e+002  1.052500e+002  8.000000e+000
      vertex -1.945000e+002  0.000000e+000  8.000000e+000
      vertex -1.945000e+002  1.052500e+002  8.000000e+000
    endloop
  endfacet
  facet normal  -0.000000e+000  0.000000e+000  1.000000e+000
    outer loop
      vertex  2.842171e-014  1.000000e+002  1.610000e+002
      vertex -1.950000e+002  1.000000e+002  1.610000e+002
      vertex  2.842171e-014  9.950000e+001  1.610000e+002
    endloop
  endfacet
  facet normal  0.000000e+000  0.000000e+000  1.000000e+000
    outer loop
      vertex  2.842171e-014  9.950000e+001  1.610000e+002
      vertex -1.950000e+002  1.000000e+002  1.610000e+002
      vertex -1.945000e+002  9.950000e+001  1.610000e+002
    endloop
  endfacet
  facet normal  0.000000e+000  0.000000e+000  1.000000e+000
    outer loop
      vertex -1.950000e+002  1.000000e+002  1.610000e+002
      vertex -1.950000e+002  9.775000e+001  1.610000e+002
      vertex -1.945000e+002  9.950000e+001  1.610000e+002
    endloop
  endfacet
  facet normal  0.000000e+000  0.000000e+000  1.000000e+000
    outer loop
      vertex -1.945000e+002  9.950000e+001  1.610000e+002
      vertex -1.950000e+002  9.775000e+001  1.610000e+002
      vertex -1.945000e+002  9.775000e+001  1.610000e+002
    endloop
  endfacet
  facet normal  0.000000e+000  0.000000e+000  1.000000e+000
    outer loop
      vertex -1.950000e+002 -1.043610e-014  1.610000e+002
      vertex -1.945000e+002 -1.043610e-014  1.610000e+002
      vertex -1.950000e+002  9.725000e+001  1.610000e+002
    endloop
  endfacet
  facet normal  -0.000000e+000  0.000000e+000  1.000000e+000
    outer loop
      vertex -1.950000e+002  9.725000e+001  1.610000e+002
      vertex -1.945000e+002 -1.043610e-014  1.610000e+002
      vertex -1.945000e+002  9.725000e+001  1.610000e+002
    endloop
  endfacet
  facet normal  0.000000e+000  0.000000e+000  1.000000e+000
    outer loop
      vertex  0.000000e+000  9.950000e+001  1.675000e+002
      vertex  0.000000e+000  1.000000e+002  1.675000e+002
      vertex -1.945000e+002  9.950000e+001  1.675000e+002
    endloop
  endfacet
  facet normal  0.000000e+000  -0.000000e+000  1.000000e+000
    outer loop
      vertex -1.945000e+002  9.950000e+001  1.675000e+002
      vertex  0.000000e+000  1.000000e+002  1.675000e+002
      vertex -1.950000e+002  1.000000e+002  1.675000e+002
    endloop
  endfacet
  facet normal  0.000000e+000  0.000000e+000  1.000000e+000
    outer loop
      vertex -1.945000e+002  9.950000e+001  1.675000e+002
      vertex -1.950000e+002  1.000000e+002  1.675000e+002
      vertex -1.945000e+002  9.775000e+001  1.675000e+002
    endloop
  endfacet
  facet normal  0.000000e+000  0.000000e+000  1.000000e+000
    outer loop
      vertex -1.945000e+002  9.775000e+001  1.675000e+002
      vertex -1.950000e+002  1.000000e+002  1.675000e+002
      vertex -1.950000e+002  9.775000e+001  1.675000e+002
    endloop
  endfacet
  facet normal  0.000000e+000  0.000000e+000  1.000000e+000
    outer loop
      vertex -1.950000e+002  9.725000e+001  1.675000e+002
      vertex -1.950000e+002  0.000000e+000  1.675000e+002
      vertex -1.945000e+002  9.725000e+001  1.675000e+002
    endloop
  endfacet
  facet normal  0.000000e+000  0.000000e+000  1.000000e+000
    outer loop
      vertex -1.945000e+002  9.725000e+001  1.675000e+002
      vertex -1.950000e+002  0.000000e+000  1.675000e+002
      vertex -1.945000e+002  0.000000e+000  1.675000e+002
    endloop
  endfacet
  facet normal  0.000000e+000  0.000000e+000 -1.000000e+000
    outer loop
      vertex  0.000000e+000  1.000000e+002  1.680000e+002
      vertex  0.000000e+000  9.950000e+001  1.680000e+002
      vertex -1.950000e+002  1.000000e+002  1.680000e+002
    endloop
  endfacet
  facet normal  0.000000e+000  0.000000e+000 -1.000000e+000
    outer loop
      vertex -1.950000e+002  1.000000e+002  1.680000e+002
      vertex  0.000000e+000  9.950000e+001  1.680000e+002
      vertex -1.945000e+002  9.950000e+001  1.680000e+002
    endloop
  endfacet
  facet normal  -0.000000e+000  0.000000e+000 -1.000000e+000
    outer loop
      vertex -1.950000e+002  1.000000e+002  1.680000e+002
      vertex -1.945000e+002  9.950000e+001  1.680000e+002
      vertex -1.950000e+002  9.775000e+001  1.680000e+002
    endloop
  endfacet
  facet normal  0.000000e+000  0.000000e+000 -1.000000e+000
    outer loop
      vertex -1.950000e+002  9.775000e+001  1.680000e+002
      vertex -1.945000e+002  9.950000e+001  1.680000e+002
      vertex -1.945000e+002  9.775000e+001  1.680000e+002
    endloop
  endfacet
  facet normal  0.000000e+000  0.000000e+000 -1.000000e+000
    outer loop
      vertex -1.950000e+002  0.000000e+000  1.680000e+002
      vertex -1.950000e+002  9.725000e+001  1.680000e+002
      vertex -1.945000e+002  0.000000e+000  1.680000e+002
    endloop
  endfacet
  facet normal  0.000000e+000  0.000000e+000 -1.000000e+000
    outer loop
      vertex -1.945000e+002  0.000000e+000  1.680000e+002
      vertex -1.950000e+002  9.725000e+001  1.680000e+002
      vertex -1.945000e+002  9.725000e+001  1.680000e+002
    endloop
  endfacet
  facet normal  0.000000e+000  0.000000e+000 -1.000000e+000
    outer loop
      vertex  0.000000e+000  9.950000e+001  1.615000e+002
      vertex -1.945000e+002  9.950000e+001  1.615000e+002
      vertex  0.000000e+000  1.000000e+002  1.615000e+002
    endloop
  endfacet
  facet normal  -0.000000e+000  0.000000e+000 -1.000000e+000
    outer loop
      vertex  0.000000e+000  1.000000e+002  1.615000e+002
      vertex -1.945000e+002  9.950000e+001  1.615000e+002
      vertex -1.950000e+002  1.000000e+002  1.615000e+002
    endloop
  endfacet
  facet normal  0.000000e+000  0.000000e+000 -1.000000e+000
    outer loop
      vertex -1.945000e+002  9.950000e+001  1.615000e+002
      vertex -1.945000e+002  9.775000e+001  1.615000e+002
      vertex -1.950000e+002  1.000000e+002  1.615000e+002
    endloop
  endfacet
  facet normal  0.000000e+000  0.000000e+000 -1.000000e+000
    outer loop
      vertex -1.950000e+002  1.000000e+002  1.615000e+002
      vertex -1.945000e+002  9.775000e+001  1.615000e+002
      vertex -1.950000e+002  9.775000e+001  1.615000e+002
    endloop
  endfacet
  facet normal  -0.000000e+000  0.000000e+000 -1.000000e+000
    outer loop
      vertex -1.950000e+002  9.725000e+001  1.615000e+002
      vertex -1.945000e+002  9.725000e+001  1.615000e+002
      vertex -1.950000e+002  1.421085e-014  1.615000e+002
    endloop
  endfacet
  facet normal  0.000000e+000  0.000000e+000 -1.000000e+000
    outer loop
      vertex -1.950000e+002  1.421085e-014  1.615000e+002
      vertex -1.945000e+002  9.725000e+001  1.615000e+002
      vertex -1.945000e+002  1.421085e-014  1.615000e+002
    endloop
  endfacet
  facet normal  0.000000e+000 -1.000000e+000  0.000000e+000
    outer loop
      vertex  0.000000e+000  0.000000e+000  2.500000e+002
      vertex -1.950000e+002  0.000000e+000  2.500000e+002
      vertex -1.950000e+002  0.000000e+000  1.680000e+002
    endloop
  endfacet
  facet normal  0.000000e+000 -9.999999e-001  0.000000e+000
    outer loop
      vertex  0.000000e+000  0.000000e+000  2.500000e+002
      vertex -1.950000e+002  0.000000e+000  1.680000e+002
      vertex -1.945000e+002  0.000000e+000  1.680000e+002
    endloop
  endfacet
  facet normal  0.000000e+000 -1.000000e+000  0.000000e+000
    outer loop
      vertex  0.000000e+000  0.000000e+000  2.500000e+002
      vertex -1.945000e+002  0.000000e+000  1.680000e+002
      vertex -1.945000e+002  0.000000e+000  1.675000e+002
    endloop
  endfacet
  facet normal  1.004623e-015 -1.000000e+000 -2.368476e-015
    outer loop
      vertex  0.000000e+000  0.000000e+000  2.500000e+002
      vertex -1.945000e+002  0.000000e+000  1.675000e+002
      vertex -1.945000e+002  1.421085e-014  1.615000e+002
    endloop
  endfacet
  facet normal -2.250242e-014 -1.000000e+000  4.929390e-014
    outer loop
      vertex  0.000000e+000  0.000000e+000  2.500000e+002
      vertex -1.945000e+002  1.421085e-014  1.615000e+002
      vertex -1.945000e+002 -1.043610e-014  1.610000e+002
    endloop
  endfacet
  facet normal  1.126114e-016 -1.000000e+000 -1.288407e-016
    outer loop
      vertex  0.000000e+000  0.000000e+000  2.500000e+002
      vertex -1.945000e+002 -1.043610e-014  1.610000e+002
      vertex -1.945000e+002  0.000000e+000  8.000000e+001
    endloop
  endfacet
  facet normal  0.000000e+000 -1.000000e+000  0.000000e+000
    outer loop
      vertex  0.000000e+000  0.000000e+000  2.500000e+002
      vertex -1.945000e+002  0.000000e+000  8.000000e+001
      vertex -1.945000e+002  0.000000e+000  7.950000e+001
    endloop
  endfacet
  facet normal  0.000000e+000 -1.000000e+000  0.000000e+000
    outer loop
      vertex  0.000000e+000  0.000000e+000  2.500000e+002
      vertex -1.945000e+002  0.000000e+000  7.950000e+001
      vertex -1.945000e+002  0.000000e+000  8.500000e+000
    endloop
  endfacet
  facet normal  0.000000e+000 -1.000000e+000  0.000000e+000
    outer loop
      vertex  0.000000e+000  0.000000e+000  2.500000e+002
      vertex -1.945000e+002  0.000000e+000  8.500000e+000
      vertex -1.945000e+002  0.000000e+000  8.000000e+000
    endloop
  endfacet
  facet normal  0.000000e+000 -1.000000e+000  0.000000e+000
    outer loop
      vertex  0.000000e+000  0.000000e+000  2.500000e+002
      vertex -1.945000e+002  0.000000e+000  8.000000e+000
      vertex  0.000000e+000  0.000000e+000  0.000000e+000
    endloop
  endfacet
  facet normal  0.000000e+000 -1.000000e+000  0.000000e+000
    outer loop
      vertex -1.950000e+002  0.000000e+000  7.950000e+001
      vertex -1.950000e+002  0.000000e+000  8.500000e+000
      vertex -1.945000e+002  0.000000e+000  7.950000e+001
    endloop
  endfacet
  facet normal  0.000000e+000 -1.000000e+000  -0.000000e+000
    outer loop
      vertex -1.945000e+002  0.000000e+000  7.950000e+001
      vertex -1.950000e+002  0.000000e+000  8.500000e+000
      vertex -1.945000e+002  0.000000e+000  8.500000e+000
    endloop
  endfacet
  facet normal  0.000000e+000 -1.000000e+000 -1.288407e-016
    outer loop
      vertex -1.950000e+002 -1.043610e-014  1.610000e+002
      vertex -1.950000e+002  0.000000e+000  8.000000e+001
      vertex -1.945000e+002 -1.043610e-014  1.610000e+002
    endloop
  endfacet
  facet normal  0.000000e+000 -1.000000e+000 -1.288407e-016
    outer loop
      vertex -1.945000e+002 -1.043610e-014  1.610000e+002
      vertex -1.950000e+002  0.000000e+000  8.000000e+001
      vertex -1.945000e+002  0.000000e+000  8.000000e+001
    endloop
  endfacet
  facet normal  0.000000e+000 -1.000000e+000 -2.368476e-015
    outer loop
      vertex -1.950000e+002  0.000000e+000  1.675000e+002
      vertex -1.950000e+002  1.421085e-014  1.615000e+002
      vertex -1.945000e+002  0.000000e+000  1.675000e+002
    endloop
  endfacet
  facet normal  0.000000e+000 -1.000000e+000 -2.368476e-015
    outer loop
      vertex -1.945000e+002  0.000000e+000  1.675000e+002
      vertex -1.950000e+002  1.421085e-014  1.615000e+002
      vertex -1.945000e+002  1.421085e-014  1.615000e+002
    endloop
  endfacet
  facet normal  0.000000e+000 -1.000000e+000  0.000000e+000
    outer loop
      vertex -1.950000e+002  0.000000e+000  0.000000e+000
      vertex  0.000000e+000  0.000000e+000  0.000000e+000
      vertex -1.950000e+002  0.000000e+000  8.000000e+000
    endloop
  endfacet
  facet normal  0.000000e+000 -1.000000e+000  0.000000e+000
    outer loop
      vertex -1.950000e+002  0.000000e+000  8.000000e+000
      vertex  0.000000e+000  0.000000e+000  0.000000e+000
      vertex -1.945000e+002  0.000000e+000  8.000000e+000
    endloop
  endfacet
  facet normal  0.000000e+000  1.000000e+000  0.000000e+000
    outer loop
      vertex -1.945000e+002  9.950000e+001  1.610000e+002
      vertex -1.945000e+002  9.950000e+001  1.615000e+002
      vertex  2.842171e-014  9.950000e+001  1.610000e+002
    endloop
  endfacet
  facet normal  0.000000e+000  1.000000e+000  0.000000e+000
    outer loop
      vertex  2.842171e-014  9.950000e+001  1.610000e+002
      vertex -1.945000e+002  9.950000e+001  1.615000e+002
      vertex  0.000000e+000  9.950000e+001  1.615000e+002
    endloop
  endfacet
  facet normal  0.000000e+000  1.000000e+000  0.000000e+000
    outer loop
      vertex -1.945000e+002  9.950000e+001  1.675000e+002
      vertex -1.945000e+002  9.950000e+001  1.680000e+002
      vertex  0.000000e+000  9.950000e+001  1.675000e+002
    endloop
  endfacet
  facet normal  0.000000e+000  1.000000e+000  -0.000000e+000
    outer loop
      vertex  0.000000e+000  9.950000e+001  1.675000e+002
      vertex -1.945000e+002  9.950000e+001  1.680000e+002
      vertex  0.000000e+000  9.950000e+001  1.680000e+002
    endloop
  endfacet
  facet normal  0.000000e+000  1.000000e+000  0.000000e+000
    outer loop
      vertex  0.000000e+000  1.000000e+002  1.615000e+002
      vertex -1.950000e+002  1.000000e+002  1.615000e+002
      vertex  0.000000e+000  1.000000e+002  1.675000e+002
    endloop
  endfacet
  facet normal  0.000000e+000  1.000000e+000  0.000000e+000
    outer loop
      vertex  0.000000e+000  1.000000e+002  1.675000e+002
      vertex -1.950000e+002  1.000000e+002  1.615000e+002
      vertex -1.950000e+002  1.000000e+002  1.675000e+002
    endloop
  endfacet
  facet normal  1.000000e+000  0.000000e+000 -3.508853e-016
    outer loop
      vertex  0.000000e+000  1.075000e+002  8.000000e+001
      vertex  0.000000e+000  1.080000e+002  8.000000e+001
      vertex  2.842171e-014  1.000000e+002  1.610000e+002
    endloop
  endfacet
  facet normal  1.000000e+000  3.789561e-015  0.000000e+000
    outer loop
      vertex  0.000000e+000  1.075000e+002  8.000000e+001
      vertex  2.842171e-014  1.000000e+002  1.610000e+002
      vertex  0.000000e+000  1.075000e+002  7.950000e+001
    endloop
  endfacet
  facet normal  1.000000e+000  0.000000e+000  0.000000e+000
    outer loop
      vertex  0.000000e+000  0.000000e+000  2.500000e+002
      vertex  0.000000e+000  0.000000e+000  0.000000e+000
      vertex  0.000000e+000  1.075000e+002  8.000000e+000
    endloop
  endfacet
  facet normal  1.000000e+000  0.000000e+000  -0.000000e+000
    outer loop
      vertex  0.000000e+000  0.000000e+000  2.500000e+002
      vertex  0.000000e+000  1.075000e+002  8.000000e+000
      vertex  0.000000e+000  1.075000e+002  8.500000e+000
    endloop
  endfacet
  facet normal  9.999999e-001 -4.746205e-016 -2.112700e-016
    outer loop
      vertex  0.000000e+000  0.000000e+000  2.500000e+002
      vertex  0.000000e+000  1.075000e+002  8.500000e+000
      vertex  2.842171e-014  9.950000e+001  1.610000e+002
    endloop
  endfacet
  facet normal  1.000000e+000  5.055922e-014  5.684342e-014
    outer loop
      vertex  0.000000e+000  0.000000e+000  2.500000e+002
      vertex  2.842171e-014  9.950000e+001  1.610000e+002
      vertex  0.000000e+000  9.950000e+001  1.615000e+002
    endloop
  endfacet
  facet normal  1.000000e+000  0.000000e+000  -0.000000e+000
    outer loop
      vertex  0.000000e+000  0.000000e+000  2.500000e+002
      vertex  0.000000e+000  9.950000e+001  1.615000e+002
      vertex  0.000000e+000  9.950000e+001  1.675000e+002
    endloop
  endfacet
  facet normal  1.000000e+000  0.000000e+000  -0.000000e+000
    outer loop
      vertex  0.000000e+000  0.000000e+000  2.500000e+002
      vertex  0.000000e+000  9.950000e+001  1.675000e+002
      vertex  0.000000e+000  9.950000e+001  1.680000e+002
    endloop
  endfacet
  facet normal  1.000000e+000  0.000000e+000  -0.000000e+000
    outer loop
      vertex  0.000000e+000  0.000000e+000  2.500000e+002
      vertex  0.000000e+000  9.950000e+001  1.680000e+002
      vertex  0.000000e+000  1.036571e+002  2.500000e+002
    endloop
  endfacet
  facet normal  1.000000e+000  0.000000e+000 -3.487326e-016
    outer loop
      vertex  2.842171e-014  1.000000e+002  1.610000e+002
      vertex  2.842171e-014  9.950000e+001  1.610000e+002
      vertex  0.000000e+000  1.075000e+002  7.950000e+001
    endloop
  endfacet
  facet normal  1.000000e+000  3.552714e-015  0.000000e+000
    outer loop
      vertex  0.000000e+000  1.075000e+002  7.950000e+001
      vertex  2.842171e-014  9.950000e+001  1.610000e+002
      vertex  0.000000e+000  1.075000e+002  8.500000e+000
    endloop
  endfacet
  facet normal  1.000000e+000  0.000000e+000  0.000000e+000
    outer loop
      vertex  0.000000e+000  1.075000e+002  7.950000e+001
      vertex  0.000000e+000  1.075000e+002  8.500000e+000
      vertex  0.000000e+000  1.080000e+002  7.950000e+001
    endloop
  endfacet
  facet normal  1.000000e+000  0.000000e+000  0.000000e+000
    outer loop
      vertex  0.000000e+000  1.080000e+002  7.950000e+001
      vertex  0.000000e+000  1.075000e+002  8.500000e+000
      vertex  0.000000e+000  1.080000e+002  8.500000e+000
    endloop
  endfacet
  facet normal  1.000000e+000  0.000000e+000  0.000000e+000
    outer loop
      vertex  0.000000e+000  9.950000e+001  1.615000e+002
      vertex  0.000000e+000  1.000000e+002  1.615000e+002
      vertex  0.000000e+000  9.950000e+001  1.675000e+002
    endloop
  endfacet
  facet normal  1.000000e+000  -0.000000e+000  0.000000e+000
    outer loop
      vertex  0.000000e+000  9.950000e+001  1.675000e+002
      vertex  0.000000e+000  1.000000e+002  1.615000e+002
      vertex  0.000000e+000  1.000000e+002  1.675000e+002
    endloop
  endfacet
  facet normal  9.999999e-001  0.000000e+000  -0.000000e+000
    outer loop
      vertex  0.000000e+000  9.950000e+001  1.680000e+002
      vertex  0.000000e+000  1.000000e+002  1.680000e+002
      vertex  0.000000e+000  1.036571e+002  2.500000e+002
    endloop
  endfacet
  facet normal  1.000000e+000  0.000000e+000  0.000000e+000
    outer loop
      vertex  0.000000e+000  1.036571e+002  2.500000e+002
      vertex  0.000000e+000  1.000000e+002  1.680000e+002
      vertex  0.000000e+000  1.160000e+002  1.800000e+002
    endloop
  endfacet
  facet normal  1.000000e+000  0.000000e+000  0.000000e+000
    outer loop
      vertex  0.000000e+000  0.000000e+000  0.000000e+000
      vertex  0.000000e+000  1.080000e+002  0.000000e+000
      vertex  0.000000e+000  1.075000e+002  8.000000e+000
    endloop
  endfacet
  facet normal  1.000000e+000  -0.000000e+000  0.000000e+000
    outer loop
      vertex  0.000000e+000  1.075000e+002  8.000000e+000
      vertex  0.000000e+000  1.080000e+002  0.000000e+000
      vertex  0.000000e+000  1.080000e+002  8.000000e+000
    endloop
  endfacet
  facet normal  0.000000e+000  1.000000e+000  0.000000e+000
    outer loop
      vertex -1.945000e+002  1.075000e+002  7.950000e+001
      vertex -1.945000e+002  1.075000e+002  8.000000e+001
      vertex  0.000000e+000  1.075000e+002  7.950000e+001
    endloop
  endfacet
  facet normal  0.000000e+000  1.000000e+000  -0.000000e+000
    outer loop
      vertex  0.000000e+000  1.075000e+002  7.950000e+001
      vertex -1.945000e+002  1.075000e+002  8.000000e+001
      vertex  0.000000e+000  1.075000e+002  8.000000e+001
    endloop
  endfacet
  facet normal  0.000000e+000  9.848077e-001  1.736481e-001
    outer loop
      vertex  0.000000e+000  1.036571e+002  2.500000e+002
      vertex  0.000000e+000  1.160000e+002  1.800000e+002
      vertex -1.950000e+002  1.036571e+002  2.500000e+002
    endloop
  endfacet
  facet normal  0.000000e+000  9.848077e-001  1.736481e-001
    outer loop
      vertex -1.950000e+002  1.036571e+002  2.500000e+002
      vertex  0.000000e+000  1.160000e+002  1.800000e+002
      vertex -1.950000e+002  1.160000e+002  1.800000e+002
    endloop
  endfacet
  facet normal  0.000000e+000  6.000000e-001 -8.000000e-001
    outer loop
      vertex  0.000000e+000  1.000000e+002  1.680000e+002
      vertex -1.950000e+002  1.000000e+002  1.680000e+002
      vertex  0.000000e+000  1.160000e+002  1.800000e+002
    endloop
  endfacet
  facet normal  0.000000e+000  6.000000e-001 -8.000000e-001
    outer loop
      vertex  0.000000e+000  1.160000e+002  1.800000e+002
      vertex -1.950000e+002  1.000000e+002  1.680000e+002
      vertex -1.950000e+002  1.160000e+002  1.800000e+002
    endloop
  endfacet
  facet normal  -0.000000e+000  9.951581e-001  9.828722e-002
    outer loop
      vertex  0.000000e+000  1.080000e+002  8.000000e+001
      vertex -1.950000e+002  1.080000e+002  8.000000e+001
      vertex  2.842171e-014  1.000000e+002  1.610000e+002
    endloop
  endfacet
  facet normal  0.000000e+000  9.951581e-001  9.828722e-002
    outer loop
      vertex  2.842171e-014  1.000000e+002  1.610000e+002
      vertex -1.950000e+002  1.080000e+002  8.000000e+001
      vertex -1.950000e+002  1.000000e+002  1.610000e+002
    endloop
  endfacet
endsolid CATIA STL
