  0
SECTION
  2
HEADER
  9
$ACADVER
  1
AC1009
  9
$EXTMIN
 10
0.0
 20
0.0
 30
0.0
  9
$EXTMAX
 10
1000.0
 20
1000.0
 30
0.0
  9
$FILLMODE
 70
 0
  9
$SPLFRAME
 70
 1
  0
ENDSEC
  0
SECTION
  2
TABLES
  0
TABLE
  2
LAYER
 70
1
  0
LAYER
  2
0
 70
     0
 62
     7
  6
CONTINUOUS
  0
ENDTAB
  0
ENDSEC
  0
SECTION
  2
ENTITIES
  0
POLYLINE
  8
0
 62
     250
 66
     1
 10
0
 20
0
 30
0.0
 70
     1
 40
0.25
 41
0.25
  0
VERTEX
  8
0
 10
0.324761
 20
2.24854
 30
0.0
 40
0.00347222
 41
0.00347222
  0
VERTEX
  8
0
 10
0.345811
 20
2.24854
 30
0.0
 40
0.00347222
 41
0.00347222
  0
VERTEX
  8
0
 10
0.320367
 20
2.13167
 30
0.0
 40
0.00347222
 41
0.00347222
  0
VERTEX
  8
0
 10
0.293024
 20
2.13167
 30
0.0
 40
0.00347222
 41
0.00347222
  0
VERTEX
  8
0
 10
0.265571
 20
2.24854
 30
0.0
 40
0.00347222
 41
0.00347222
  0
VERTEX
  8
0
 10
0.288032
 20
2.24854
 30
0.0
 40
0.00347222
 41
0.00347222
  0
VERTEX
  8
0
 10
0.30561
 20
2.15858
 30
0.0
 40
0.00347222
 41
0.00347222
  0
VERTEX
  8
0
 10
0.324761
 20
2.24854
 30
0.0
 40
0.00347222
 41
0.00347222
  0
SEQEND
 8
0
  0
POLYLINE
  8
0
 62
     250
 66
     1
 10
0
 20
0
 30
0.0
 70
     1
 40
0.25
 41
0.25
  0
VERTEX
  8
0
 10
0.362087
 20
2.24854
 30
0.0
 40
0.00347222
 41
0.00347222
  0
VERTEX
  8
0
 10
0.384549
 20
2.24854
 30
0.0
 40
0.00347222
 41
0.00347222
  0
VERTEX
  8
0
 10
0.384549
 20
2.13167
 30
0.0
 40
0.00347222
 41
0.00347222
  0
VERTEX
  8
0
 10
0.362087
 20
2.13167
 30
0.0
 40
0.00347222
 41
0.00347222
  0
VERTEX
  8
0
 10
0.362087
 20
2.24854
 30
0.0
 40
0.00347222
 41
0.00347222
  0
SEQEND
 8
0
  0
POLYLINE
  8
0
 62
     250
 66
     1
 10
0
 20
0
 30
0.0
 70
     1
 40
0.25
 41
0.25
  0
VERTEX
  8
0
 10
0.423286
 20
2.22851
 30
0.0
 40
0.00347222
 41
0.00347222
  0
VERTEX
  8
0
 10
0.423286
 20
2.1996
 30
0.0
 40
0.00347222
 41
0.00347222
  0
VERTEX
  8
0
 10
0.481065
 20
2.1996
 30
0.0
 40
0.00347222
 41
0.00347222
  0
VERTEX
  8
0
 10
0.481065
 20
2.18056
 30
0.0
 40
0.00347222
 41
0.00347222
  0
VERTEX
  8
0
 10
0.423286
 20
2.18056
 30
0.0
 40
0.00347222
 41
0.00347222
  0
VERTEX
  8
0
 10
0.423286
 20
2.15169
 30
0.0
 40
0.00347222
 41
0.00347222
  0
VERTEX
  8
0
 10
0.481065
 20
2.15169
 30
0.0
 40
0.00347222
 41
0.00347222
  0
VERTEX
  8
0
 10
0.481065
 20
2.13167
 30
0.0
 40
0.00347222
 41
0.00347222
  0
VERTEX
  8
0
 10
0.400825
 20
2.13167
 30
0.0
 40
0.00347222
 41
0.00347222
  0
VERTEX
  8
0
 10
0.400825
 20
2.24854
 30
0.0
 40
0.00347222
 41
0.00347222
  0
VERTEX
  8
0
 10
0.481065
 20
2.24854
 30
0.0
 40
0.00347222
 41
0.00347222
  0
VERTEX
  8
0
 10
0.481065
 20
2.22851
 30
0.0
 40
0.00347222
 41
0.00347222
  0
VERTEX
  8
0
 10
0.423286
 20
2.22851
 30
0.0
 40
0.00347222
 41
0.00347222
  0
SEQEND
 8
0
  0
POLYLINE
  8
0
 62
     250
 66
     1
 10
0
 20
0
 30
0.0
 70
     1
 40
0.25
 41
0.25
  0
VERTEX
  8
0
 10
0.519803
 20
2.1996
 30
0.0
 40
0.00347222
 41
0.00347222
  0
VERTEX
  8
0
 10
0.556532
 20
2.1996
 30
0.0
 40
0.00347222
 41
0.00347222
  0
VERTEX
  8
0
 10
0.556532
 20
2.22851
 30
0.0
 40
0.00347222
 41
0.00347222
  0
VERTEX
  8
0
 10
0.519803
 20
2.22851
 30
0.0
 40
0.00347222
 41
0.00347222
  0
VERTEX
  8
0
 10
0.519803
 20
2.1996
 30
0.0
 40
0.00347222
 41
0.00347222
  0
SEQEND
 8
0
  0
POLYLINE
  8
0
 62
     250
 66
     1
 10
0
 20
0
 30
0.0
 70
     1
 40
0.25
 41
0.25
  0
VERTEX
  8
0
 10
0.497342
 20
2.13167
 30
0.0
 40
0.00347222
 41
0.00347222
  0
VERTEX
  8
0
 10
0.497342
 20
2.24854
 30
0.0
 40
0.00347222
 41
0.00347222
  0
VERTEX
  8
0
 10
0.577582
 20
2.24854
 30
0.0
 40
0.00347222
 41
0.00347222
  0
VERTEX
  8
0
 10
0.577582
 20
2.18056
 30
0.0
 40
0.00347222
 41
0.00347222
  0
VERTEX
  8
0
 10
0.550185
 20
2.18056
 30
0.0
 40
0.00347222
 41
0.00347222
  0
VERTEX
  8
0
 10
0.577582
 20
2.13167
 30
0.0
 40
0.00347222
 41
0.00347222
  0
VERTEX
  8
0
 10
0.556532
 20
2.13167
 30
0.0
 40
0.00347222
 41
0.00347222
  0
VERTEX
  8
0
 10
0.527724
 20
2.18056
 30
0.0
 40
0.00347222
 41
0.00347222
  0
VERTEX
  8
0
 10
0.519803
 20
2.18056
 30
0.0
 40
0.00347222
 41
0.00347222
  0
VERTEX
  8
0
 10
0.519803
 20
2.13167
 30
0.0
 40
0.00347222
 41
0.00347222
  0
VERTEX
  8
0
 10
0.497342
 20
2.13167
 30
0.0
 40
0.00347222
 41
0.00347222
  0
SEQEND
 8
0
  0
POLYLINE
  8
0
 62
     250
 66
     1
 10
0
 20
0
 30
0.0
 70
     1
 40
0.25
 41
0.25
  0
VERTEX
  8
0
 10
0.629775
 20
2.1996
 30
0.0
 40
0.00347222
 41
0.00347222
  0
VERTEX
  8
0
 10
0.6741
 20
2.1996
 30
0.0
 40
0.00347222
 41
0.00347222
  0
VERTEX
  8
0
 10
0.6741
 20
2.13167
 30
0.0
 40
0.00347222
 41
0.00347222
  0
VERTEX
  8
0
 10
0.593858
 20
2.13167
 30
0.0
 40
0.00347222
 41
0.00347222
  0
VERTEX
  8
0
 10
0.593858
 20
2.24854
 30
0.0
 40
0.00347222
 41
0.00347222
  0
VERTEX
  8
0
 10
0.6741
 20
2.24854
 30
0.0
 40
0.00347222
 41
0.00347222
  0
VERTEX
  8
0
 10
0.6741
 20
2.22851
 30
0.0
 40
0.00347222
 41
0.00347222
  0
VERTEX
  8
0
 10
0.616319
 20
2.22851
 30
0.0
 40
0.00347222
 41
0.00347222
  0
VERTEX
  8
0
 10
0.616319
 20
2.15169
 30
0.0
 40
0.00347222
 41
0.00347222
  0
VERTEX
  8
0
 10
0.653049
 20
2.15169
 30
0.0
 40
0.00347222
 41
0.00347222
  0
VERTEX
  8
0
 10
0.653049
 20
2.18056
 30
0.0
 40
0.00347222
 41
0.00347222
  0
VERTEX
  8
0
 10
0.629775
 20
2.18056
 30
0.0
 40
0.00347222
 41
0.00347222
  0
VERTEX
  8
0
 10
0.629775
 20
2.1996
 30
0.0
 40
0.00347222
 41
0.00347222
  0
SEQEND
 8
0
  0
POLYLINE
  8
0
 62
     250
 66
     1
 10
0
 20
0
 30
0.0
 70
     1
 40
0.25
 41
0.25
  0
VERTEX
  8
0
 10
0.712836
 20
2.22851
 30
0.0
 40
0.00347222
 41
0.00347222
  0
VERTEX
  8
0
 10
0.712836
 20
2.1996
 30
0.0
 40
0.00347222
 41
0.00347222
  0
VERTEX
  8
0
 10
0.770617
 20
2.1996
 30
0.0
 40
0.00347222
 41
0.00347222
  0
VERTEX
  8
0
 10
0.770617
 20
2.18056
 30
0.0
 40
0.00347222
 41
0.00347222
  0
VERTEX
  8
0
 10
0.712836
 20
2.18056
 30
0.0
 40
0.00347222
 41
0.00347222
  0
VERTEX
  8
0
 10
0.712836
 20
2.15169
 30
0.0
 40
0.00347222
 41
0.00347222
  0
VERTEX
  8
0
 10
0.770617
 20
2.15169
 30
0.0
 40
0.00347222
 41
0.00347222
  0
VERTEX
  8
0
 10
0.770617
 20
2.13167
 30
0.0
 40
0.00347222
 41
0.00347222
  0
VERTEX
  8
0
 10
0.690375
 20
2.13167
 30
0.0
 40
0.00347222
 41
0.00347222
  0
VERTEX
  8
0
 10
0.690375
 20
2.24854
 30
0.0
 40
0.00347222
 41
0.00347222
  0
VERTEX
  8
0
 10
0.770617
 20
2.24854
 30
0.0
 40
0.00347222
 41
0.00347222
  0
VERTEX
  8
0
 10
0.770617
 20
2.22851
 30
0.0
 40
0.00347222
 41
0.00347222
  0
VERTEX
  8
0
 10
0.712836
 20
2.22851
 30
0.0
 40
0.00347222
 41
0.00347222
  0
SEQEND
 8
0
  0
POLYLINE
  8
0
 62
     250
 66
     1
 10
0
 20
0
 30
0.0
 70
     1
 40
0.25
 41
0.25
  0
VERTEX
  8
0
 10
1.22993
 20
2.1996
 30
0.0
 40
0.00347222
 41
0.00347222
  0
VERTEX
  8
0
 10
1.26666
 20
2.1996
 30
0.0
 40
0.00347222
 41
0.00347222
  0
VERTEX
  8
0
 10
1.26666
 20
2.22851
 30
0.0
 40
0.00347222
 41
0.00347222
  0
VERTEX
  8
0
 10
1.22993
 20
2.22851
 30
0.0
 40
0.00347222
 41
0.00347222
  0
VERTEX
  8
0
 10
1.22993
 20
2.1996
 30
0.0
 40
0.00347222
 41
0.00347222
  0
SEQEND
 8
0
  0
POLYLINE
  8
0
 62
     250
 66
     1
 10
0
 20
0
 30
0.0
 70
     1
 40
0.25
 41
0.25
  0
VERTEX
  8
0
 10
1.20747
 20
2.13167
 30
0.0
 40
0.00347222
 41
0.00347222
  0
VERTEX
  8
0
 10
1.20747
 20
2.24854
 30
0.0
 40
0.00347222
 41
0.00347222
  0
VERTEX
  8
0
 10
1.28771
 20
2.24854
 30
0.0
 40
0.00347222
 41
0.00347222
  0
VERTEX
  8
0
 10
1.28771
 20
2.18056
 30
0.0
 40
0.00347222
 41
0.00347222
  0
VERTEX
  8
0
 10
1.26031
 20
2.18056
 30
0.0
 40
0.00347222
 41
0.00347222
  0
VERTEX
  8
0
 10
1.28771
 20
2.13167
 30
0.0
 40
0.00347222
 41
0.00347222
  0
VERTEX
  8
0
 10
1.26666
 20
2.13167
 30
0.0
 40
0.00347222
 41
0.00347222
  0
VERTEX
  8
0
 10
1.23785
 20
2.18056
 30
0.0
 40
0.00347222
 41
0.00347222
  0
VERTEX
  8
0
 10
1.22993
 20
2.18056
 30
0.0
 40
0.00347222
 41
0.00347222
  0
VERTEX
  8
0
 10
1.22993
 20
2.13167
 30
0.0
 40
0.00347222
 41
0.00347222
  0
VERTEX
  8
0
 10
1.20747
 20
2.13167
 30
0.0
 40
0.00347222
 41
0.00347222
  0
SEQEND
 8
0
  0
POLYLINE
  8
0
 62
     250
 66
     1
 10
0
 20
0
 30
0.0
 70
     1
 40
0.25
 41
0.25
  0
VERTEX
  8
0
 10
1.32644
 20
2.22851
 30
0.0
 40
0.00347222
 41
0.00347222
  0
VERTEX
  8
0
 10
1.32644
 20
2.1996
 30
0.0
 40
0.00347222
 41
0.00347222
  0
VERTEX
  8
0
 10
1.38422
 20
2.1996
 30
0.0
 40
0.00347222
 41
0.00347222
  0
VERTEX
  8
0
 10
1.38422
 20
2.18056
 30
0.0
 40
0.00347222
 41
0.00347222
  0
VERTEX
  8
0
 10
1.32644
 20
2.18056
 30
0.0
 40
0.00347222
 41
0.00347222
  0
VERTEX
  8
0
 10
1.32644
 20
2.15169
 30
0.0
 40
0.00347222
 41
0.00347222
  0
VERTEX
  8
0
 10
1.38422
 20
2.15169
 30
0.0
 40
0.00347222
 41
0.00347222
  0
VERTEX
  8
0
 10
1.38422
 20
2.13167
 30
0.0
 40
0.00347222
 41
0.00347222
  0
VERTEX
  8
0
 10
1.30398
 20
2.13167
 30
0.0
 40
0.00347222
 41
0.00347222
  0
VERTEX
  8
0
 10
1.30398
 20
2.24854
 30
0.0
 40
0.00347222
 41
0.00347222
  0
VERTEX
  8
0
 10
1.38422
 20
2.24854
 30
0.0
 40
0.00347222
 41
0.00347222
  0
VERTEX
  8
0
 10
1.38422
 20
2.22851
 30
0.0
 40
0.00347222
 41
0.00347222
  0
VERTEX
  8
0
 10
1.32644
 20
2.22851
 30
0.0
 40
0.00347222
 41
0.00347222
  0
SEQEND
 8
0
  0
POLYLINE
  8
0
 62
     250
 66
     1
 10
0
 20
0
 30
0.0
 70
     1
 40
0.25
 41
0.25
  0
VERTEX
  8
0
 10
1.43642
 20
2.1996
 30
0.0
 40
0.00347222
 41
0.00347222
  0
VERTEX
  8
0
 10
1.48074
 20
2.1996
 30
0.0
 40
0.00347222
 41
0.00347222
  0
VERTEX
  8
0
 10
1.48074
 20
2.13167
 30
0.0
 40
0.00347222
 41
0.00347222
  0
VERTEX
  8
0
 10
1.4005
 20
2.13167
 30
0.0
 40
0.00347222
 41
0.00347222
  0
VERTEX
  8
0
 10
1.4005
 20
2.24854
 30
0.0
 40
0.00347222
 41
0.00347222
  0
VERTEX
  8
0
 10
1.48074
 20
2.24854
 30
0.0
 40
0.00347222
 41
0.00347222
  0
VERTEX
  8
0
 10
1.48074
 20
2.22851
 30
0.0
 40
0.00347222
 41
0.00347222
  0
VERTEX
  8
0
 10
1.42296
 20
2.22851
 30
0.0
 40
0.00347222
 41
0.00347222
  0
VERTEX
  8
0
 10
1.42296
 20
2.15169
 30
0.0
 40
0.00347222
 41
0.00347222
  0
VERTEX
  8
0
 10
1.45969
 20
2.15169
 30
0.0
 40
0.00347222
 41
0.00347222
  0
VERTEX
  8
0
 10
1.45969
 20
2.18056
 30
0.0
 40
0.00347222
 41
0.00347222
  0
VERTEX
  8
0
 10
1.43642
 20
2.18056
 30
0.0
 40
0.00347222
 41
0.00347222
  0
VERTEX
  8
0
 10
1.43642
 20
2.1996
 30
0.0
 40
0.00347222
 41
0.00347222
  0
SEQEND
 8
0
  0
POLYLINE
  8
0
 62
     250
 66
     1
 10
0
 20
0
 30
0.0
 70
     1
 40
0.25
 41
0.25
  0
VERTEX
  8
0
 10
1.51947
 20
2.22851
 30
0.0
 40
0.00347222
 41
0.00347222
  0
VERTEX
  8
0
 10
1.51947
 20
2.1996
 30
0.0
 40
0.00347222
 41
0.00347222
  0
VERTEX
  8
0
 10
1.57726
 20
2.1996
 30
0.0
 40
0.00347222
 41
0.00347222
  0
VERTEX
  8
0
 10
1.57726
 20
2.18056
 30
0.0
 40
0.00347222
 41
0.00347222
  0
VERTEX
  8
0
 10
1.51947
 20
2.18056
 30
0.0
 40
0.00347222
 41
0.00347222
  0
VERTEX
  8
0
 10
1.51947
 20
2.15169
 30
0.0
 40
0.00347222
 41
0.00347222
  0
VERTEX
  8
0
 10
1.57726
 20
2.15169
 30
0.0
 40
0.00347222
 41
0.00347222
  0
VERTEX
  8
0
 10
1.57726
 20
2.13167
 30
0.0
 40
0.00347222
 41
0.00347222
  0
VERTEX
  8
0
 10
1.49701
 20
2.13167
 30
0.0
 40
0.00347222
 41
0.00347222
  0
VERTEX
  8
0
 10
1.49701
 20
2.24854
 30
0.0
 40
0.00347222
 41
0.00347222
  0
VERTEX
  8
0
 10
1.57726
 20
2.24854
 30
0.0
 40
0.00347222
 41
0.00347222
  0
VERTEX
  8
0
 10
1.57726
 20
2.22851
 30
0.0
 40
0.00347222
 41
0.00347222
  0
VERTEX
  8
0
 10
1.51947
 20
2.22851
 30
0.0
 40
0.00347222
 41
0.00347222
  0
SEQEND
 8
0
  0
POLYLINE
  8
0
 62
     250
 66
     1
 10
0
 20
0
 30
0.0
 70
     1
 40
0.25
 41
0.25
  0
VERTEX
  8
0
 10
1.616
 20
2.13167
 30
0.0
 40
0.00347222
 41
0.00347222
  0
VERTEX
  8
0
 10
1.59353
 20
2.13167
 30
0.0
 40
0.00347222
 41
0.00347222
  0
VERTEX
  8
0
 10
1.59353
 20
2.24854
 30
0.0
 40
0.00347222
 41
0.00347222
  0
VERTEX
  8
0
 10
1.616
 20
2.24854
 30
0.0
 40
0.00347222
 41
0.00347222
  0
VERTEX
  8
0
 10
1.65272
 20
2.183
 30
0.0
 40
0.00347222
 41
0.00347222
  0
VERTEX
  8
0
 10
1.65272
 20
2.24854
 30
0.0
 40
0.00347222
 41
0.00347222
  0
VERTEX
  8
0
 10
1.67378
 20
2.24854
 30
0.0
 40
0.00347222
 41
0.00347222
  0
VERTEX
  8
0
 10
1.67378
 20
2.13167
 30
0.0
 40
0.00347222
 41
0.00347222
  0
VERTEX
  8
0
 10
1.65272
 20
2.13167
 30
0.0
 40
0.00347222
 41
0.00347222
  0
VERTEX
  8
0
 10
1.616
 20
2.19911
 30
0.0
 40
0.00347222
 41
0.00347222
  0
VERTEX
  8
0
 10
1.616
 20
2.13167
 30
0.0
 40
0.00347222
 41
0.00347222
  0
SEQEND
 8
0
  0
POLYLINE
  8
0
 62
     250
 66
     1
 10
0
 20
0
 30
0.0
 70
     1
 40
0.25
 41
0.25
  0
VERTEX
  8
0
 10
1.71251
 20
2.22851
 30
0.0
 40
0.00347222
 41
0.00347222
  0
VERTEX
  8
0
 10
1.71251
 20
2.1996
 30
0.0
 40
0.00347222
 41
0.00347222
  0
VERTEX
  8
0
 10
1.77029
 20
2.1996
 30
0.0
 40
0.00347222
 41
0.00347222
  0
VERTEX
  8
0
 10
1.77029
 20
2.18056
 30
0.0
 40
0.00347222
 41
0.00347222
  0
VERTEX
  8
0
 10
1.71251
 20
2.18056
 30
0.0
 40
0.00347222
 41
0.00347222
  0
VERTEX
  8
0
 10
1.71251
 20
2.15169
 30
0.0
 40
0.00347222
 41
0.00347222
  0
VERTEX
  8
0
 10
1.77029
 20
2.15169
 30
0.0
 40
0.00347222
 41
0.00347222
  0
VERTEX
  8
0
 10
1.77029
 20
2.13167
 30
0.0
 40
0.00347222
 41
0.00347222
  0
VERTEX
  8
0
 10
1.69006
 20
2.13167
 30
0.0
 40
0.00347222
 41
0.00347222
  0
VERTEX
  8
0
 10
1.69006
 20
2.24854
 30
0.0
 40
0.00347222
 41
0.00347222
  0
VERTEX
  8
0
 10
1.77029
 20
2.24854
 30
0.0
 40
0.00347222
 41
0.00347222
  0
VERTEX
  8
0
 10
1.77029
 20
2.22851
 30
0.0
 40
0.00347222
 41
0.00347222
  0
VERTEX
  8
0
 10
1.71251
 20
2.22851
 30
0.0
 40
0.00347222
 41
0.00347222
  0
SEQEND
 8
0
  0
POLYLINE
  8
0
 62
     250
 66
     1
 10
0
 20
0
 30
0.0
 70
     1
 40
0.25
 41
0.25
  0
VERTEX
  8
0
 10
1.80903
 20
2.1996
 30
0.0
 40
0.00347222
 41
0.00347222
  0
VERTEX
  8
0
 10
1.84576
 20
2.1996
 30
0.0
 40
0.00347222
 41
0.00347222
  0
VERTEX
  8
0
 10
1.84576
 20
2.22851
 30
0.0
 40
0.00347222
 41
0.00347222
  0
VERTEX
  8
0
 10
1.80903
 20
2.22851
 30
0.0
 40
0.00347222
 41
0.00347222
  0
VERTEX
  8
0
 10
1.80903
 20
2.1996
 30
0.0
 40
0.00347222
 41
0.00347222
  0
SEQEND
 8
0
  0
POLYLINE
  8
0
 62
     250
 66
     1
 10
0
 20
0
 30
0.0
 70
     1
 40
0.25
 41
0.25
  0
VERTEX
  8
0
 10
1.78657
 20
2.13167
 30
0.0
 40
0.00347222
 41
0.00347222
  0
VERTEX
  8
0
 10
1.78657
 20
2.24854
 30
0.0
 40
0.00347222
 41
0.00347222
  0
VERTEX
  8
0
 10
1.86681
 20
2.24854
 30
0.0
 40
0.00347222
 41
0.00347222
  0
VERTEX
  8
0
 10
1.86681
 20
2.18056
 30
0.0
 40
0.00347222
 41
0.00347222
  0
VERTEX
  8
0
 10
1.83942
 20
2.18056
 30
0.0
 40
0.00347222
 41
0.00347222
  0
VERTEX
  8
0
 10
1.86681
 20
2.13167
 30
0.0
 40
0.00347222
 41
0.00347222
  0
VERTEX
  8
0
 10
1.84576
 20
2.13167
 30
0.0
 40
0.00347222
 41
0.00347222
  0
VERTEX
  8
0
 10
1.81694
 20
2.18056
 30
0.0
 40
0.00347222
 41
0.00347222
  0
VERTEX
  8
0
 10
1.80903
 20
2.18056
 30
0.0
 40
0.00347222
 41
0.00347222
  0
VERTEX
  8
0
 10
1.80903
 20
2.13167
 30
0.0
 40
0.00347222
 41
0.00347222
  0
VERTEX
  8
0
 10
1.78657
 20
2.13167
 30
0.0
 40
0.00347222
 41
0.00347222
  0
SEQEND
 8
0
  0
POLYLINE
  8
0
 62
     250
 66
     1
 10
0
 20
0
 30
0.0
 70
     1
 40
0.25
 41
0.25
  0
VERTEX
  8
0
 10
1.90554
 20
2.22851
 30
0.0
 40
0.00347222
 41
0.00347222
  0
VERTEX
  8
0
 10
1.90554
 20
2.1996
 30
0.0
 40
0.00347222
 41
0.00347222
  0
VERTEX
  8
0
 10
1.96332
 20
2.1996
 30
0.0
 40
0.00347222
 41
0.00347222
  0
VERTEX
  8
0
 10
1.96332
 20
2.18056
 30
0.0
 40
0.00347222
 41
0.00347222
  0
VERTEX
  8
0
 10
1.90554
 20
2.18056
 30
0.0
 40
0.00347222
 41
0.00347222
  0
VERTEX
  8
0
 10
1.90554
 20
2.15169
 30
0.0
 40
0.00347222
 41
0.00347222
  0
VERTEX
  8
0
 10
1.96332
 20
2.15169
 30
0.0
 40
0.00347222
 41
0.00347222
  0
VERTEX
  8
0
 10
1.96332
 20
2.13167
 30
0.0
 40
0.00347222
 41
0.00347222
  0
VERTEX
  8
0
 10
1.88308
 20
2.13167
 30
0.0
 40
0.00347222
 41
0.00347222
  0
VERTEX
  8
0
 10
1.88308
 20
2.24854
 30
0.0
 40
0.00347222
 41
0.00347222
  0
VERTEX
  8
0
 10
1.96332
 20
2.24854
 30
0.0
 40
0.00347222
 41
0.00347222
  0
VERTEX
  8
0
 10
1.96332
 20
2.22851
 30
0.0
 40
0.00347222
 41
0.00347222
  0
VERTEX
  8
0
 10
1.90554
 20
2.22851
 30
0.0
 40
0.00347222
 41
0.00347222
  0
SEQEND
 8
0
  0
POLYLINE
  8
0
 62
     250
 66
     1
 10
0
 20
0
 30
0.0
 70
     1
 40
0.25
 41
0.25
  0
VERTEX
  8
0
 10
2.22786
 20
2.15169
 30
0.0
 40
0.00347222
 41
0.00347222
  0
VERTEX
  8
0
 10
2.2646
 20
2.15169
 30
0.0
 40
0.00347222
 41
0.00347222
  0
VERTEX
  8
0
 10
2.2646
 20
2.18056
 30
0.0
 40
0.00347222
 41
0.00347222
  0
VERTEX
  8
0
 10
2.22786
 20
2.18056
 30
0.0
 40
0.00347222
 41
0.00347222
  0
VERTEX
  8
0
 10
2.22786
 20
2.15169
 30
0.0
 40
0.00347222
 41
0.00347222
  0
SEQEND
 8
0
  0
POLYLINE
  8
0
 62
     250
 66
     1
 10
0
 20
0
 30
0.0
 70
     1
 40
0.25
 41
0.25
  0
VERTEX
  8
0
 10
2.22786
 20
2.1996
 30
0.0
 40
0.00347222
 41
0.00347222
  0
VERTEX
  8
0
 10
2.2646
 20
2.1996
 30
0.0
 40
0.00347222
 41
0.00347222
  0
VERTEX
  8
0
 10
2.2646
 20
2.22851
 30
0.0
 40
0.00347222
 41
0.00347222
  0
VERTEX
  8
0
 10
2.22786
 20
2.22851
 30
0.0
 40
0.00347222
 41
0.00347222
  0
VERTEX
  8
0
 10
2.22786
 20
2.1996
 30
0.0
 40
0.00347222
 41
0.00347222
  0
SEQEND
 8
0
  0
POLYLINE
  8
0
 62
     250
 66
     1
 10
0
 20
0
 30
0.0
 70
     1
 40
0.25
 41
0.25
  0
VERTEX
  8
0
 10
2.28564
 20
2.24854
 30
0.0
 40
0.00347222
 41
0.00347222
  0
VERTEX
  8
0
 10
2.28564
 20
2.20426
 30
0.0
 40
0.00347222
 41
0.00347222
  0
VERTEX
  8
0
 10
2.27582
 20
2.18967
 30
0.0
 40
0.00347222
 41
0.00347222
  0
VERTEX
  8
0
 10
2.28564
 20
2.17503
 30
0.0
 40
0.00347222
 41
0.00347222
  0
VERTEX
  8
0
 10
2.28564
 20
2.13167
 30
0.0
 40
0.00347222
 41
0.00347222
  0
VERTEX
  8
0
 10
2.2054
 20
2.13167
 30
0.0
 40
0.00347222
 41
0.00347222
  0
VERTEX
  8
0
 10
2.2054
 20
2.24854
 30
0.0
 40
0.00347222
 41
0.00347222
  0
VERTEX
  8
0
 10
2.28564
 20
2.24854
 30
0.0
 40
0.00347222
 41
0.00347222
  0
SEQEND
 8
0
  0
POLYLINE
  8
0
 62
     250
 66
     1
 10
0
 20
0
 30
0.0
 70
     1
 40
0.25
 41
0.25
  0
VERTEX
  8
0
 10
2.32437
 20
2.1996
 30
0.0
 40
0.00347222
 41
0.00347222
  0
VERTEX
  8
0
 10
2.36111
 20
2.1996
 30
0.0
 40
0.00347222
 41
0.00347222
  0
VERTEX
  8
0
 10
2.36111
 20
2.22851
 30
0.0
 40
0.00347222
 41
0.00347222
  0
VERTEX
  8
0
 10
2.32437
 20
2.22851
 30
0.0
 40
0.00347222
 41
0.00347222
  0
VERTEX
  8
0
 10
2.32437
 20
2.1996
 30
0.0
 40
0.00347222
 41
0.00347222
  0
SEQEND
 8
0
  0
POLYLINE
  8
0
 62
     250
 66
     1
 10
0
 20
0
 30
0.0
 70
     1
 40
0.25
 41
0.25
  0
VERTEX
  8
0
 10
2.36111
 20
2.18056
 30
0.0
 40
0.00347222
 41
0.00347222
  0
VERTEX
  8
0
 10
2.32437
 20
2.18056
 30
0.0
 40
0.00347222
 41
0.00347222
  0
VERTEX
  8
0
 10
2.32437
 20
2.13167
 30
0.0
 40
0.00347222
 41
0.00347222
  0
VERTEX
  8
0
 10
2.30192
 20
2.13167
 30
0.0
 40
0.00347222
 41
0.00347222
  0
VERTEX
  8
0
 10
2.30192
 20
2.24854
 30
0.0
 40
0.00347222
 41
0.00347222
  0
VERTEX
  8
0
 10
2.38222
 20
2.24854
 30
0.0
 40
0.00347222
 41
0.00347222
  0
VERTEX
  8
0
 10
2.38222
 20
2.13167
 30
0.0
 40
0.00347222
 41
0.00347222
  0
VERTEX
  8
0
 10
2.36111
 20
2.13167
 30
0.0
 40
0.00347222
 41
0.00347222
  0
VERTEX
  8
0
 10
2.36111
 20
2.18056
 30
0.0
 40
0.00347222
 41
0.00347222
  0
SEQEND
 8
0
  0
POLYLINE
  8
0
 62
     250
 66
     1
 10
0
 20
0
 30
0.0
 70
     1
 40
0.25
 41
0.25
  0
VERTEX
  8
0
 10
2.4209
 20
2.15169
 30
0.0
 40
0.00347222
 41
0.00347222
  0
VERTEX
  8
0
 10
2.47868
 20
2.15169
 30
0.0
 40
0.00347222
 41
0.00347222
  0
VERTEX
  8
0
 10
2.47868
 20
2.13167
 30
0.0
 40
0.00347222
 41
0.00347222
  0
VERTEX
  8
0
 10
2.39849
 20
2.13167
 30
0.0
 40
0.00347222
 41
0.00347222
  0
VERTEX
  8
0
 10
2.39849
 20
2.24854
 30
0.0
 40
0.00347222
 41
0.00347222
  0
VERTEX
  8
0
 10
2.47868
 20
2.24854
 30
0.0
 40
0.00347222
 41
0.00347222
  0
VERTEX
  8
0
 10
2.47868
 20
2.22851
 30
0.0
 40
0.00347222
 41
0.00347222
  0
VERTEX
  8
0
 10
2.4209
 20
2.22851
 30
0.0
 40
0.00347222
 41
0.00347222
  0
VERTEX
  8
0
 10
2.4209
 20
2.15169
 30
0.0
 40
0.00347222
 41
0.00347222
  0
SEQEND
 8
0
  0
POLYLINE
  8
0
 62
     250
 66
     1
 10
0
 20
0
 30
0.0
 70
     1
 40
0.25
 41
0.25
  0
VERTEX
  8
0
 10
2.55875
 20
2.15169
 30
0.0
 40
0.00347222
 41
0.00347222
  0
VERTEX
  8
0
 10
2.59549
 20
2.15169
 30
0.0
 40
0.00347222
 41
0.00347222
  0
VERTEX
  8
0
 10
2.59549
 20
2.18056
 30
0.0
 40
0.00347222
 41
0.00347222
  0
VERTEX
  8
0
 10
2.55875
 20
2.18056
 30
0.0
 40
0.00347222
 41
0.00347222
  0
VERTEX
  8
0
 10
2.55875
 20
2.15169
 30
0.0
 40
0.00347222
 41
0.00347222
  0
SEQEND
 8
0
  0
POLYLINE
  8
0
 62
     250
 66
     1
 10
0
 20
0
 30
0.0
 70
     1
 40
0.25
 41
0.25
  0
VERTEX
  8
0
 10
2.55875
 20
2.1996
 30
0.0
 40
0.00347222
 41
0.00347222
  0
VERTEX
  8
0
 10
2.59549
 20
2.1996
 30
0.0
 40
0.00347222
 41
0.00347222
  0
VERTEX
  8
0
 10
2.59549
 20
2.22851
 30
0.0
 40
0.00347222
 41
0.00347222
  0
VERTEX
  8
0
 10
2.55875
 20
2.22851
 30
0.0
 40
0.00347222
 41
0.00347222
  0
VERTEX
  8
0
 10
2.55875
 20
2.1996
 30
0.0
 40
0.00347222
 41
0.00347222
  0
SEQEND
 8
0
  0
POLYLINE
  8
0
 62
     250
 66
     1
 10
0
 20
0
 30
0.0
 70
     1
 40
0.25
 41
0.25
  0
VERTEX
  8
0
 10
2.6166
 20
2.24854
 30
0.0
 40
0.00347222
 41
0.00347222
  0
VERTEX
  8
0
 10
2.6166
 20
2.20426
 30
0.0
 40
0.00347222
 41
0.00347222
  0
VERTEX
  8
0
 10
2.60672
 20
2.18967
 30
0.0
 40
0.00347222
 41
0.00347222
  0
VERTEX
  8
0
 10
2.6166
 20
2.17503
 30
0.0
 40
0.00347222
 41
0.00347222
  0
VERTEX
  8
0
 10
2.6166
 20
2.13167
 30
0.0
 40
0.00347222
 41
0.00347222
  0
VERTEX
  8
0
 10
2.53629
 20
2.13167
 30
0.0
 40
0.00347222
 41
0.00347222
  0
VERTEX
  8
0
 10
2.53629
 20
2.24854
 30
0.0
 40
0.00347222
 41
0.00347222
  0
VERTEX
  8
0
 10
2.6166
 20
2.24854
 30
0.0
 40
0.00347222
 41
0.00347222
  0
SEQEND
 8
0
  0
POLYLINE
  8
0
 62
     250
 66
     1
 10
0
 20
0
 30
0.0
 70
     1
 40
0.25
 41
0.25
  0
VERTEX
  8
0
 10
2.65533
 20
2.1996
 30
0.0
 40
0.00347222
 41
0.00347222
  0
VERTEX
  8
0
 10
2.692
 20
2.1996
 30
0.0
 40
0.00347222
 41
0.00347222
  0
VERTEX
  8
0
 10
2.692
 20
2.22851
 30
0.0
 40
0.00347222
 41
0.00347222
  0
VERTEX
  8
0
 10
2.65533
 20
2.22851
 30
0.0
 40
0.00347222
 41
0.00347222
  0
VERTEX
  8
0
 10
2.65533
 20
2.1996
 30
0.0
 40
0.00347222
 41
0.00347222
  0
SEQEND
 8
0
  0
POLYLINE
  8
0
 62
     250
 66
     1
 10
0
 20
0
 30
0.0
 70
     1
 40
0.25
 41
0.25
  0
VERTEX
  8
0
 10
2.63282
 20
2.13167
 30
0.0
 40
0.00347222
 41
0.00347222
  0
VERTEX
  8
0
 10
2.63282
 20
2.24854
 30
0.0
 40
0.00347222
 41
0.00347222
  0
VERTEX
  8
0
 10
2.71311
 20
2.24854
 30
0.0
 40
0.00347222
 41
0.00347222
  0
VERTEX
  8
0
 10
2.71311
 20
2.18056
 30
0.0
 40
0.00347222
 41
0.00347222
  0
VERTEX
  8
0
 10
2.68565
 20
2.18056
 30
0.0
 40
0.00347222
 41
0.00347222
  0
VERTEX
  8
0
 10
2.71311
 20
2.13167
 30
0.0
 40
0.00347222
 41
0.00347222
  0
VERTEX
  8
0
 10
2.692
 20
2.13167
 30
0.0
 40
0.00347222
 41
0.00347222
  0
VERTEX
  8
0
 10
2.66319
 20
2.18056
 30
0.0
 40
0.00347222
 41
0.00347222
  0
VERTEX
  8
0
 10
2.65533
 20
2.18056
 30
0.0
 40
0.00347222
 41
0.00347222
  0
VERTEX
  8
0
 10
2.65533
 20
2.13167
 30
0.0
 40
0.00347222
 41
0.00347222
  0
VERTEX
  8
0
 10
2.63282
 20
2.13167
 30
0.0
 40
0.00347222
 41
0.00347222
  0
SEQEND
 8
0
  0
POLYLINE
  8
0
 62
     250
 66
     1
 10
0
 20
0
 30
0.0
 70
     1
 40
0.25
 41
0.25
  0
VERTEX
  8
0
 10
2.78851
 20
2.22851
 30
0.0
 40
0.00347222
 41
0.00347222
  0
VERTEX
  8
0
 10
2.75179
 20
2.22851
 30
0.0
 40
0.00347222
 41
0.00347222
  0
VERTEX
  8
0
 10
2.75179
 20
2.15169
 30
0.0
 40
0.00347222
 41
0.00347222
  0
VERTEX
  8
0
 10
2.78851
 20
2.15169
 30
0.0
 40
0.00347222
 41
0.00347222
  0
VERTEX
  8
0
 10
2.78851
 20
2.22851
 30
0.0
 40
0.00347222
 41
0.00347222
  0
SEQEND
 8
0
  0
POLYLINE
  8
0
 62
     250
 66
     1
 10
0
 20
0
 30
0.0
 70
     1
 40
0.25
 41
0.25
  0
VERTEX
  8
0
 10
2.80957
 20
2.13167
 30
0.0
 40
0.00347222
 41
0.00347222
  0
VERTEX
  8
0
 10
2.72939
 20
2.13167
 30
0.0
 40
0.00347222
 41
0.00347222
  0
VERTEX
  8
0
 10
2.72939
 20
2.24854
 30
0.0
 40
0.00347222
 41
0.00347222
  0
VERTEX
  8
0
 10
2.80957
 20
2.24854
 30
0.0
 40
0.00347222
 41
0.00347222
  0
VERTEX
  8
0
 10
2.80957
 20
2.13167
 30
0.0
 40
0.00347222
 41
0.00347222
  0
SEQEND
 8
0
  0
POLYLINE
  8
0
 62
     250
 66
     1
 10
0
 20
0
 30
0.0
 70
     1
 40
0.25
 41
0.25
  0
VERTEX
  8
0
 10
2.87663
 20
2.19011
 30
0.0
 40
0.00347222
 41
0.00347222
  0
VERTEX
  8
0
 10
2.87663
 20
2.13167
 30
0.0
 40
0.00347222
 41
0.00347222
  0
VERTEX
  8
0
 10
2.85422
 20
2.13167
 30
0.0
 40
0.00347222
 41
0.00347222
  0
VERTEX
  8
0
 10
2.85422
 20
2.19011
 30
0.0
 40
0.00347222
 41
0.00347222
  0
VERTEX
  8
0
 10
2.8259
 20
2.24854
 30
0.0
 40
0.00347222
 41
0.00347222
  0
VERTEX
  8
0
 10
2.84836
 20
2.24854
 30
0.0
 40
0.00347222
 41
0.00347222
  0
VERTEX
  8
0
 10
2.86649
 20
2.21143
 30
0.0
 40
0.00347222
 41
0.00347222
  0
VERTEX
  8
0
 10
2.88504
 20
2.24854
 30
0.0
 40
0.00347222
 41
0.00347222
  0
VERTEX
  8
0
 10
2.90608
 20
2.24854
 30
0.0
 40
0.00347222
 41
0.00347222
  0
VERTEX
  8
0
 10
2.87663
 20
2.19011
 30
0.0
 40
0.00347222
 41
0.00347222
  0
SEQEND
 8
0
  0
POLYLINE
  8
0
 62
     250
 66
     1
 10
0
 20
0
 30
0.0
 70
     1
 40
0.25
 41
0.25
  0
VERTEX
  8
0
 10
2.94482
 20
2.22851
 30
0.0
 40
0.00347222
 41
0.00347222
  0
VERTEX
  8
0
 10
2.94482
 20
2.1996
 30
0.0
 40
0.00347222
 41
0.00347222
  0
VERTEX
  8
0
 10
3.00261
 20
2.1996
 30
0.0
 40
0.00347222
 41
0.00347222
  0
VERTEX
  8
0
 10
3.00261
 20
2.18056
 30
0.0
 40
0.00347222
 41
0.00347222
  0
VERTEX
  8
0
 10
2.94482
 20
2.18056
 30
0.0
 40
0.00347222
 41
0.00347222
  0
VERTEX
  8
0
 10
2.94482
 20
2.15169
 30
0.0
 40
0.00347222
 41
0.00347222
  0
VERTEX
  8
0
 10
3.00261
 20
2.15169
 30
0.0
 40
0.00347222
 41
0.00347222
  0
VERTEX
  8
0
 10
3.00261
 20
2.13167
 30
0.0
 40
0.00347222
 41
0.00347222
  0
VERTEX
  8
0
 10
2.92242
 20
2.13167
 30
0.0
 40
0.00347222
 41
0.00347222
  0
VERTEX
  8
0
 10
2.92242
 20
2.24854
 30
0.0
 40
0.00347222
 41
0.00347222
  0
VERTEX
  8
0
 10
3.00261
 20
2.24854
 30
0.0
 40
0.00347222
 41
0.00347222
  0
VERTEX
  8
0
 10
3.00261
 20
2.22851
 30
0.0
 40
0.00347222
 41
0.00347222
  0
VERTEX
  8
0
 10
2.94482
 20
2.22851
 30
0.0
 40
0.00347222
 41
0.00347222
  0
SEQEND
 8
0
  0
POLYLINE
  8
0
 62
     250
 66
     1
 10
0
 20
0
 30
0.0
 70
     1
 40
0.25
 41
0.25
  0
VERTEX
  8
0
 10
0.172581
 20
1.20812
 30
0.0
 40
0.00347222
 41
0.00347222
  0
VERTEX
  8
0
 10
0.209256
 20
1.20812
 30
0.0
 40
0.00347222
 41
0.00347222
  0
VERTEX
  8
0
 10
0.209256
 20
1.23698
 30
0.0
 40
0.00347222
 41
0.00347222
  0
VERTEX
  8
0
 10
0.172581
 20
1.23698
 30
0.0
 40
0.00347222
 41
0.00347222
  0
VERTEX
  8
0
 10
0.172581
 20
1.20812
 30
0.0
 40
0.00347222
 41
0.00347222
  0
SEQEND
 8
0
  0
POLYLINE
  8
0
 62
     250
 66
     1
 10
0
 20
0
 30
0.0
 70
     1
 40
0.25
 41
0.25
  0
VERTEX
  8
0
 10
0.172581
 20
1.14014
 30
0.0
 40
0.00347222
 41
0.00347222
  0
VERTEX
  8
0
 10
0.150119
 20
1.14014
 30
0.0
 40
0.00347222
 41
0.00347222
  0
VERTEX
  8
0
 10
0.150119
 20
1.257
 30
0.0
 40
0.00347222
 41
0.00347222
  0
VERTEX
  8
0
 10
0.23036
 20
1.257
 30
0.0
 40
0.00347222
 41
0.00347222
  0
VERTEX
  8
0
 10
0.23036
 20
1.18907
 30
0.0
 40
0.00347222
 41
0.00347222
  0
VERTEX
  8
0
 10
0.172581
 20
1.18907
 30
0.0
 40
0.00347222
 41
0.00347222
  0
VERTEX
  8
0
 10
0.172581
 20
1.14014
 30
0.0
 40
0.00347222
 41
0.00347222
  0
SEQEND
 8
0
  0
POLYLINE
  8
0
 62
     250
 66
     1
 10
0
 20
0
 30
0.0
 70
     1
 40
0.25
 41
0.25
  0
VERTEX
  8
0
 10
0.269097
 20
1.20812
 30
0.0
 40
0.00347222
 41
0.00347222
  0
VERTEX
  8
0
 10
0.305826
 20
1.20812
 30
0.0
 40
0.00347222
 41
0.00347222
  0
VERTEX
  8
0
 10
0.305826
 20
1.23698
 30
0.0
 40
0.00347222
 41
0.00347222
  0
VERTEX
  8
0
 10
0.269097
 20
1.23698
 30
0.0
 40
0.00347222
 41
0.00347222
  0
VERTEX
  8
0
 10
0.269097
 20
1.20812
 30
0.0
 40
0.00347222
 41
0.00347222
  0
SEQEND
 8
0
  0
POLYLINE
  8
0
 62
     250
 66
     1
 10
0
 20
0
 30
0.0
 70
     1
 40
0.25
 41
0.25
  0
VERTEX
  8
0
 10
0.305772
 20
1.18907
 30
0.0
 40
0.00347222
 41
0.00347222
  0
VERTEX
  8
0
 10
0.269097
 20
1.18907
 30
0.0
 40
0.00347222
 41
0.00347222
  0
VERTEX
  8
0
 10
0.269097
 20
1.14014
 30
0.0
 40
0.00347222
 41
0.00347222
  0
VERTEX
  8
0
 10
0.246636
 20
1.14014
 30
0.0
 40
0.00347222
 41
0.00347222
  0
VERTEX
  8
0
 10
0.246636
 20
1.257
 30
0.0
 40
0.00347222
 41
0.00347222
  0
VERTEX
  8
0
 10
0.326878
 20
1.257
 30
0.0
 40
0.00347222
 41
0.00347222
  0
VERTEX
  8
0
 10
0.326878
 20
1.14014
 30
0.0
 40
0.00347222
 41
0.00347222
  0
VERTEX
  8
0
 10
0.305772
 20
1.14014
 30
0.0
 40
0.00347222
 41
0.00347222
  0
VERTEX
  8
0
 10
0.305772
 20
1.18907
 30
0.0
 40
0.00347222
 41
0.00347222
  0
SEQEND
 8
0
  0
POLYLINE
  8
0
 62
     250
 66
     1
 10
0
 20
0
 30
0.0
 70
     1
 40
0.25
 41
0.25
  0
VERTEX
  8
0
 10
0.343153
 20
1.257
 30
0.0
 40
0.00347222
 41
0.00347222
  0
VERTEX
  8
0
 10
0.365614
 20
1.257
 30
0.0
 40
0.00347222
 41
0.00347222
  0
VERTEX
  8
0
 10
0.365614
 20
1.14014
 30
0.0
 40
0.00347222
 41
0.00347222
  0
VERTEX
  8
0
 10
0.343153
 20
1.14014
 30
0.0
 40
0.00347222
 41
0.00347222
  0
VERTEX
  8
0
 10
0.343153
 20
1.257
 30
0.0
 40
0.00347222
 41
0.00347222
  0
SEQEND
 8
0
  0
POLYLINE
  8
0
 62
     250
 66
     1
 10
0
 20
0
 30
0.0
 70
     1
 40
0.25
 41
0.25
  0
VERTEX
  8
0
 10
0.404351
 20
1.16016
 30
0.0
 40
0.00347222
 41
0.00347222
  0
VERTEX
  8
0
 10
0.462131
 20
1.16016
 30
0.0
 40
0.00347222
 41
0.00347222
  0
VERTEX
  8
0
 10
0.462131
 20
1.14014
 30
0.0
 40
0.00347222
 41
0.00347222
  0
VERTEX
  8
0
 10
0.38189
 20
1.14014
 30
0.0
 40
0.00347222
 41
0.00347222
  0
VERTEX
  8
0
 10
0.38189
 20
1.257
 30
0.0
 40
0.00347222
 41
0.00347222
  0
VERTEX
  8
0
 10
0.404351
 20
1.257
 30
0.0
 40
0.00347222
 41
0.00347222
  0
VERTEX
  8
0
 10
0.404351
 20
1.16016
 30
0.0
 40
0.00347222
 41
0.00347222
  0
SEQEND
 8
0
  0
POLYLINE
  8
0
 62
     250
 66
     1
 10
0
 20
0
 30
0.0
 70
     1
 40
0.25
 41
0.25
  0
VERTEX
  8
0
 10
0.500868
 20
1.16016
 30
0.0
 40
0.00347222
 41
0.00347222
  0
VERTEX
  8
0
 10
0.558649
 20
1.16016
 30
0.0
 40
0.00347222
 41
0.00347222
  0
VERTEX
  8
0
 10
0.558649
 20
1.14014
 30
0.0
 40
0.00347222
 41
0.00347222
  0
VERTEX
  8
0
 10
0.478407
 20
1.14014
 30
0.0
 40
0.00347222
 41
0.00347222
  0
VERTEX
  8
0
 10
0.478407
 20
1.257
 30
0.0
 40
0.00347222
 41
0.00347222
  0
VERTEX
  8
0
 10
0.500868
 20
1.257
 30
0.0
 40
0.00347222
 41
0.00347222
  0
VERTEX
  8
0
 10
0.500868
 20
1.16016
 30
0.0
 40
0.00347222
 41
0.00347222
  0
SEQEND
 8
0
  0
POLYLINE
  8
0
 62
     250
 66
     1
 10
0
 20
0
 30
0.0
 70
     1
 40
0.25
 41
0.25
  0
VERTEX
  8
0
 10
0.597385
 20
1.23698
 30
0.0
 40
0.00347222
 41
0.00347222
  0
VERTEX
  8
0
 10
0.597385
 20
1.20812
 30
0.0
 40
0.00347222
 41
0.00347222
  0
VERTEX
  8
0
 10
0.655165
 20
1.20812
 30
0.0
 40
0.00347222
 41
0.00347222
  0
VERTEX
  8
0
 10
0.655165
 20
1.18907
 30
0.0
 40
0.00347222
 41
0.00347222
  0
VERTEX
  8
0
 10
0.597385
 20
1.18907
 30
0.0
 40
0.00347222
 41
0.00347222
  0
VERTEX
  8
0
 10
0.597385
 20
1.16016
 30
0.0
 40
0.00347222
 41
0.00347222
  0
VERTEX
  8
0
 10
0.655165
 20
1.16016
 30
0.0
 40
0.00347222
 41
0.00347222
  0
VERTEX
  8
0
 10
0.655165
 20
1.14014
 30
0.0
 40
0.00347222
 41
0.00347222
  0
VERTEX
  8
0
 10
0.574924
 20
1.14014
 30
0.0
 40
0.00347222
 41
0.00347222
  0
VERTEX
  8
0
 10
0.574924
 20
1.257
 30
0.0
 40
0.00347222
 41
0.00347222
  0
VERTEX
  8
0
 10
0.655165
 20
1.257
 30
0.0
 40
0.00347222
 41
0.00347222
  0
VERTEX
  8
0
 10
0.655165
 20
1.23698
 30
0.0
 40
0.00347222
 41
0.00347222
  0
VERTEX
  8
0
 10
0.597385
 20
1.23698
 30
0.0
 40
0.00347222
 41
0.00347222
  0
SEQEND
 8
0
  0
POLYLINE
  8
0
 62
     250
 66
     1
 10
0
 20
0
 30
0.0
 70
     1
 40
0.25
 41
0.25
  0
VERTEX
  8
0
 10
0.701768
 20
1.23698
 30
0.0
 40
0.00347222
 41
0.00347222
  0
VERTEX
  8
0
 10
0.671442
 20
1.23698
 30
0.0
 40
0.00347222
 41
0.00347222
  0
VERTEX
  8
0
 10
0.671442
 20
1.257
 30
0.0
 40
0.00347222
 41
0.00347222
  0
VERTEX
  8
0
 10
0.751682
 20
1.257
 30
0.0
 40
0.00347222
 41
0.00347222
  0
VERTEX
  8
0
 10
0.751682
 20
1.23698
 30
0.0
 40
0.00347222
 41
0.00347222
  0
VERTEX
  8
0
 10
0.724229
 20
1.23698
 30
0.0
 40
0.00347222
 41
0.00347222
  0
VERTEX
  8
0
 10
0.724229
 20
1.14014
 30
0.0
 40
0.00347222
 41
0.00347222
  0
VERTEX
  8
0
 10
0.701768
 20
1.14014
 30
0.0
 40
0.00347222
 41
0.00347222
  0
VERTEX
  8
0
 10
0.701768
 20
1.23698
 30
0.0
 40
0.00347222
 41
0.00347222
  0
SEQEND
 8
0
  0
POLYLINE
  8
0
 62
     250
 66
     1
 10
0
 20
0
 30
0.0
 70
     1
 40
0.25
 41
0.25
  0
VERTEX
  8
0
 10
0.798286
 20
1.23698
 30
0.0
 40
0.00347222
 41
0.00347222
  0
VERTEX
  8
0
 10
0.767958
 20
1.23698
 30
0.0
 40
0.00347222
 41
0.00347222
  0
VERTEX
  8
0
 10
0.767958
 20
1.257
 30
0.0
 40
0.00347222
 41
0.00347222
  0
VERTEX
  8
0
 10
0.848199
 20
1.257
 30
0.0
 40
0.00347222
 41
0.00347222
  0
VERTEX
  8
0
 10
0.848199
 20
1.23698
 30
0.0
 40
0.00347222
 41
0.00347222
  0
VERTEX
  8
0
 10
0.820747
 20
1.23698
 30
0.0
 40
0.00347222
 41
0.00347222
  0
VERTEX
  8
0
 10
0.820747
 20
1.14014
 30
0.0
 40
0.00347222
 41
0.00347222
  0
VERTEX
  8
0
 10
0.798286
 20
1.14014
 30
0.0
 40
0.00347222
 41
0.00347222
  0
VERTEX
  8
0
 10
0.798286
 20
1.23698
 30
0.0
 40
0.00347222
 41
0.00347222
  0
SEQEND
 8
0
  0
POLYLINE
  8
0
 62
     250
 66
     1
 10
0
 20
0
 30
0.0
 70
     1
 40
0.25
 41
0.25
  0
VERTEX
  8
0
 10
0.886936
 20
1.23698
 30
0.0
 40
0.00347222
 41
0.00347222
  0
VERTEX
  8
0
 10
0.886936
 20
1.20812
 30
0.0
 40
0.00347222
 41
0.00347222
  0
VERTEX
  8
0
 10
0.944715
 20
1.20812
 30
0.0
 40
0.00347222
 41
0.00347222
  0
VERTEX
  8
0
 10
0.944715
 20
1.18907
 30
0.0
 40
0.00347222
 41
0.00347222
  0
VERTEX
  8
0
 10
0.886936
 20
1.18907
 30
0.0
 40
0.00347222
 41
0.00347222
  0
VERTEX
  8
0
 10
0.886936
 20
1.16016
 30
0.0
 40
0.00347222
 41
0.00347222
  0
VERTEX
  8
0
 10
0.944715
 20
1.16016
 30
0.0
 40
0.00347222
 41
0.00347222
  0
VERTEX
  8
0
 10
0.944715
 20
1.14014
 30
0.0
 40
0.00347222
 41
0.00347222
  0
VERTEX
  8
0
 10
0.864475
 20
1.14014
 30
0.0
 40
0.00347222
 41
0.00347222
  0
VERTEX
  8
0
 10
0.864475
 20
1.257
 30
0.0
 40
0.00347222
 41
0.00347222
  0
VERTEX
  8
0
 10
0.944715
 20
1.257
 30
0.0
 40
0.00347222
 41
0.00347222
  0
VERTEX
  8
0
 10
0.944715
 20
1.23698
 30
0.0
 40
0.00347222
 41
0.00347222
  0
VERTEX
  8
0
 10
0.886936
 20
1.23698
 30
0.0
 40
0.00347222
 41
0.00347222
  0
SEQEND
 8
0
  0
POLYLINE
  8
0
 62
     250
 66
     1
 10
0
 20
0
 30
0.0
 70
     1
 40
0.25
 41
0.25
  0
VERTEX
  8
0
 10
1.29015
 20
1.16016
 30
0.0
 40
0.00347222
 41
0.00347222
  0
VERTEX
  8
0
 10
1.32688
 20
1.16016
 30
0.0
 40
0.00347222
 41
0.00347222
  0
VERTEX
  8
0
 10
1.32688
 20
1.18907
 30
0.0
 40
0.00347222
 41
0.00347222
  0
VERTEX
  8
0
 10
1.29015
 20
1.18907
 30
0.0
 40
0.00347222
 41
0.00347222
  0
VERTEX
  8
0
 10
1.29015
 20
1.16016
 30
0.0
 40
0.00347222
 41
0.00347222
  0
SEQEND
 8
0
  0
POLYLINE
  8
0
 62
     250
 66
     1
 10
0
 20
0
 30
0.0
 70
     1
 40
0.25
 41
0.25
  0
VERTEX
  8
0
 10
1.29015
 20
1.20812
 30
0.0
 40
0.00347222
 41
0.00347222
  0
VERTEX
  8
0
 10
1.32688
 20
1.20812
 30
0.0
 40
0.00347222
 41
0.00347222
  0
VERTEX
  8
0
 10
1.32688
 20
1.23698
 30
0.0
 40
0.00347222
 41
0.00347222
  0
VERTEX
  8
0
 10
1.29015
 20
1.23698
 30
0.0
 40
0.00347222
 41
0.00347222
  0
VERTEX
  8
0
 10
1.29015
 20
1.20812
 30
0.0
 40
0.00347222
 41
0.00347222
  0
SEQEND
 8
0
  0
POLYLINE
  8
0
 62
     250
 66
     1
 10
0
 20
0
 30
0.0
 70
     1
 40
0.25
 41
0.25
  0
VERTEX
  8
0
 10
1.34793
 20
1.257
 30
0.0
 40
0.00347222
 41
0.00347222
  0
VERTEX
  8
0
 10
1.34793
 20
1.21273
 30
0.0
 40
0.00347222
 41
0.00347222
  0
VERTEX
  8
0
 10
1.33811
 20
1.19819
 30
0.0
 40
0.00347222
 41
0.00347222
  0
VERTEX
  8
0
 10
1.34793
 20
1.18354
 30
0.0
 40
0.00347222
 41
0.00347222
  0
VERTEX
  8
0
 10
1.34793
 20
1.14014
 30
0.0
 40
0.00347222
 41
0.00347222
  0
VERTEX
  8
0
 10
1.26769
 20
1.14014
 30
0.0
 40
0.00347222
 41
0.00347222
  0
VERTEX
  8
0
 10
1.26769
 20
1.257
 30
0.0
 40
0.00347222
 41
0.00347222
  0
VERTEX
  8
0
 10
1.34793
 20
1.257
 30
0.0
 40
0.00347222
 41
0.00347222
  0
SEQEND
 8
0
  0
POLYLINE
  8
0
 62
     250
 66
     1
 10
0
 20
0
 30
0.0
 70
     1
 40
0.25
 41
0.25
  0
VERTEX
  8
0
 10
1.42339
 20
1.23698
 30
0.0
 40
0.00347222
 41
0.00347222
  0
VERTEX
  8
0
 10
1.38666
 20
1.23698
 30
0.0
 40
0.00347222
 41
0.00347222
  0
VERTEX
  8
0
 10
1.38666
 20
1.16016
 30
0.0
 40
0.00347222
 41
0.00347222
  0
VERTEX
  8
0
 10
1.42339
 20
1.16016
 30
0.0
 40
0.00347222
 41
0.00347222
  0
VERTEX
  8
0
 10
1.42339
 20
1.23698
 30
0.0
 40
0.00347222
 41
0.00347222
  0
SEQEND
 8
0
  0
POLYLINE
  8
0
 62
     250
 66
     1
 10
0
 20
0
 30
0.0
 70
     1
 40
0.25
 41
0.25
  0
VERTEX
  8
0
 10
1.44444
 20
1.14014
 30
0.0
 40
0.00347222
 41
0.00347222
  0
VERTEX
  8
0
 10
1.3642
 20
1.14014
 30
0.0
 40
0.00347222
 41
0.00347222
  0
VERTEX
  8
0
 10
1.3642
 20
1.257
 30
0.0
 40
0.00347222
 41
0.00347222
  0
VERTEX
  8
0
 10
1.44444
 20
1.257
 30
0.0
 40
0.00347222
 41
0.00347222
  0
VERTEX
  8
0
 10
1.44444
 20
1.14014
 30
0.0
 40
0.00347222
 41
0.00347222
  0
SEQEND
 8
0
  0
POLYLINE
  8
0
 62
     250
 66
     1
 10
0
 20
0
 30
0.0
 70
     1
 40
0.25
 41
0.25
  0
VERTEX
  8
0
 10
1.51992
 20
1.257
 30
0.0
 40
0.00347222
 41
0.00347222
  0
VERTEX
  8
0
 10
1.54096
 20
1.257
 30
0.0
 40
0.00347222
 41
0.00347222
  0
VERTEX
  8
0
 10
1.54096
 20
1.14014
 30
0.0
 40
0.00347222
 41
0.00347222
  0
VERTEX
  8
0
 10
1.46072
 20
1.14014
 30
0.0
 40
0.00347222
 41
0.00347222
  0
VERTEX
  8
0
 10
1.46072
 20
1.257
 30
0.0
 40
0.00347222
 41
0.00347222
  0
VERTEX
  8
0
 10
1.48318
 20
1.257
 30
0.0
 40
0.00347222
 41
0.00347222
  0
VERTEX
  8
0
 10
1.48318
 20
1.16016
 30
0.0
 40
0.00347222
 41
0.00347222
  0
VERTEX
  8
0
 10
1.51992
 20
1.16016
 30
0.0
 40
0.00347222
 41
0.00347222
  0
VERTEX
  8
0
 10
1.51992
 20
1.257
 30
0.0
 40
0.00347222
 41
0.00347222
  0
SEQEND
 8
0
  0
POLYLINE
  8
0
 62
     250
 66
     1
 10
0
 20
0
 30
0.0
 70
     1
 40
0.25
 41
0.25
  0
VERTEX
  8
0
 10
1.57969
 20
1.16016
 30
0.0
 40
0.00347222
 41
0.00347222
  0
VERTEX
  8
0
 10
1.63747
 20
1.16016
 30
0.0
 40
0.00347222
 41
0.00347222
  0
VERTEX
  8
0
 10
1.63747
 20
1.14014
 30
0.0
 40
0.00347222
 41
0.00347222
  0
VERTEX
  8
0
 10
1.55724
 20
1.14014
 30
0.0
 40
0.00347222
 41
0.00347222
  0
VERTEX
  8
0
 10
1.55724
 20
1.257
 30
0.0
 40
0.00347222
 41
0.00347222
  0
VERTEX
  8
0
 10
1.63747
 20
1.257
 30
0.0
 40
0.00347222
 41
0.00347222
  0
VERTEX
  8
0
 10
1.63747
 20
1.23698
 30
0.0
 40
0.00347222
 41
0.00347222
  0
VERTEX
  8
0
 10
1.57969
 20
1.23698
 30
0.0
 40
0.00347222
 41
0.00347222
  0
VERTEX
  8
0
 10
1.57969
 20
1.16016
 30
0.0
 40
0.00347222
 41
0.00347222
  0
SEQEND
 8
0
  0
POLYLINE
  8
0
 62
     250
 66
     1
 10
0
 20
0
 30
0.0
 70
     1
 40
0.25
 41
0.25
  0
VERTEX
  8
0
 10
1.67626
 20
1.14014
 30
0.0
 40
0.00347222
 41
0.00347222
  0
VERTEX
  8
0
 10
1.65381
 20
1.14014
 30
0.0
 40
0.00347222
 41
0.00347222
  0
VERTEX
  8
0
 10
1.65381
 20
1.257
 30
0.0
 40
0.00347222
 41
0.00347222
  0
VERTEX
  8
0
 10
1.67626
 20
1.257
 30
0.0
 40
0.00347222
 41
0.00347222
  0
VERTEX
  8
0
 10
1.67626
 20
1.20812
 30
0.0
 40
0.00347222
 41
0.00347222
  0
VERTEX
  8
0
 10
1.71294
 20
1.20812
 30
0.0
 40
0.00347222
 41
0.00347222
  0
VERTEX
  8
0
 10
1.71294
 20
1.257
 30
0.0
 40
0.00347222
 41
0.00347222
  0
VERTEX
  8
0
 10
1.734
 20
1.257
 30
0.0
 40
0.00347222
 41
0.00347222
  0
VERTEX
  8
0
 10
1.734
 20
1.14014
 30
0.0
 40
0.00347222
 41
0.00347222
  0
VERTEX
  8
0
 10
1.71294
 20
1.14014
 30
0.0
 40
0.00347222
 41
0.00347222
  0
VERTEX
  8
0
 10
1.71294
 20
1.18907
 30
0.0
 40
0.00347222
 41
0.00347222
  0
VERTEX
  8
0
 10
1.67626
 20
1.18907
 30
0.0
 40
0.00347222
 41
0.00347222
  0
VERTEX
  8
0
 10
1.67626
 20
1.14014
 30
0.0
 40
0.00347222
 41
0.00347222
  0
SEQEND
 8
0
  0
POLYLINE
  8
0
 62
     250
 66
     1
 10
0
 20
0
 30
0.0
 70
     1
 40
0.25
 41
0.25
  0
VERTEX
  8
0
 10
1.80946
 20
1.23698
 30
0.0
 40
0.00347222
 41
0.00347222
  0
VERTEX
  8
0
 10
1.77274
 20
1.23698
 30
0.0
 40
0.00347222
 41
0.00347222
  0
VERTEX
  8
0
 10
1.77274
 20
1.16016
 30
0.0
 40
0.00347222
 41
0.00347222
  0
VERTEX
  8
0
 10
1.80946
 20
1.16016
 30
0.0
 40
0.00347222
 41
0.00347222
  0
VERTEX
  8
0
 10
1.80946
 20
1.23698
 30
0.0
 40
0.00347222
 41
0.00347222
  0
SEQEND
 8
0
  0
POLYLINE
  8
0
 62
     250
 66
     1
 10
0
 20
0
 30
0.0
 70
     1
 40
0.25
 41
0.25
  0
VERTEX
  8
0
 10
1.83057
 20
1.14014
 30
0.0
 40
0.00347222
 41
0.00347222
  0
VERTEX
  8
0
 10
1.75032
 20
1.14014
 30
0.0
 40
0.00347222
 41
0.00347222
  0
VERTEX
  8
0
 10
1.75032
 20
1.257
 30
0.0
 40
0.00347222
 41
0.00347222
  0
VERTEX
  8
0
 10
1.83057
 20
1.257
 30
0.0
 40
0.00347222
 41
0.00347222
  0
VERTEX
  8
0
 10
1.83057
 20
1.14014
 30
0.0
 40
0.00347222
 41
0.00347222
  0
SEQEND
 8
0
  0
POLYLINE
  8
0
 62
     250
 66
     1
 10
0
 20
0
 30
0.0
 70
     1
 40
0.25
 41
0.25
  0
VERTEX
  8
0
 10
1.86931
 20
1.14014
 30
0.0
 40
0.00347222
 41
0.00347222
  0
VERTEX
  8
0
 10
1.84685
 20
1.14014
 30
0.0
 40
0.00347222
 41
0.00347222
  0
VERTEX
  8
0
 10
1.84685
 20
1.257
 30
0.0
 40
0.00347222
 41
0.00347222
  0
VERTEX
  8
0
 10
1.86931
 20
1.257
 30
0.0
 40
0.00347222
 41
0.00347222
  0
VERTEX
  8
0
 10
1.90597
 20
1.19152
 30
0.0
 40
0.00347222
 41
0.00347222
  0
VERTEX
  8
0
 10
1.90597
 20
1.257
 30
0.0
 40
0.00347222
 41
0.00347222
  0
VERTEX
  8
0
 10
1.92703
 20
1.257
 30
0.0
 40
0.00347222
 41
0.00347222
  0
VERTEX
  8
0
 10
1.92703
 20
1.14014
 30
0.0
 40
0.00347222
 41
0.00347222
  0
VERTEX
  8
0
 10
1.90597
 20
1.14014
 30
0.0
 40
0.00347222
 41
0.00347222
  0
VERTEX
  8
0
 10
1.86931
 20
1.20763
 30
0.0
 40
0.00347222
 41
0.00347222
  0
VERTEX
  8
0
 10
1.86931
 20
1.14014
 30
0.0
 40
0.00347222
 41
0.00347222
  0
SEQEND
 8
0
  0
POLYLINE
  8
0
 62
     250
 66
     1
 10
0
 20
0
 30
0.0
 70
     1
 40
0.25
 41
0.25
  0
VERTEX
  8
0
 10
2.37403
 20
1.16016
 30
0.0
 40
0.00347222
 41
0.00347222
  0
VERTEX
  8
0
 10
2.43181
 20
1.16016
 30
0.0
 40
0.00347222
 41
0.00347222
  0
VERTEX
  8
0
 10
2.43181
 20
1.14014
 30
0.0
 40
0.00347222
 41
0.00347222
  0
VERTEX
  8
0
 10
2.35157
 20
1.14014
 30
0.0
 40
0.00347222
 41
0.00347222
  0
VERTEX
  8
0
 10
2.35157
 20
1.257
 30
0.0
 40
0.00347222
 41
0.00347222
  0
VERTEX
  8
0
 10
2.43181
 20
1.257
 30
0.0
 40
0.00347222
 41
0.00347222
  0
VERTEX
  8
0
 10
2.43181
 20
1.23698
 30
0.0
 40
0.00347222
 41
0.00347222
  0
VERTEX
  8
0
 10
2.37403
 20
1.23698
 30
0.0
 40
0.00347222
 41
0.00347222
  0
VERTEX
  8
0
 10
2.37403
 20
1.16016
 30
0.0
 40
0.00347222
 41
0.00347222
  0
SEQEND
 8
0
  0
POLYLINE
  8
0
 62
     250
 66
     1
 10
0
 20
0
 30
0.0
 70
     1
 40
0.25
 41
0.25
  0
VERTEX
  8
0
 10
2.47054
 20
1.20812
 30
0.0
 40
0.00347222
 41
0.00347222
  0
VERTEX
  8
0
 10
2.50726
 20
1.20812
 30
0.0
 40
0.00347222
 41
0.00347222
  0
VERTEX
  8
0
 10
2.50726
 20
1.23698
 30
0.0
 40
0.00347222
 41
0.00347222
  0
VERTEX
  8
0
 10
2.47054
 20
1.23698
 30
0.0
 40
0.00347222
 41
0.00347222
  0
VERTEX
  8
0
 10
2.47054
 20
1.20812
 30
0.0
 40
0.00347222
 41
0.00347222
  0
SEQEND
 8
0
  0
POLYLINE
  8
0
 62
     250
 66
     1
 10
0
 20
0
 30
0.0
 70
     1
 40
0.25
 41
0.25
  0
VERTEX
  8
0
 10
2.50726
 20
1.18907
 30
0.0
 40
0.00347222
 41
0.00347222
  0
VERTEX
  8
0
 10
2.47054
 20
1.18907
 30
0.0
 40
0.00347222
 41
0.00347222
  0
VERTEX
  8
0
 10
2.47054
 20
1.14014
 30
0.0
 40
0.00347222
 41
0.00347222
  0
VERTEX
  8
0
 10
2.44808
 20
1.14014
 30
0.0
 40
0.00347222
 41
0.00347222
  0
VERTEX
  8
0
 10
2.44808
 20
1.257
 30
0.0
 40
0.00347222
 41
0.00347222
  0
VERTEX
  8
0
 10
2.52832
 20
1.257
 30
0.0
 40
0.00347222
 41
0.00347222
  0
VERTEX
  8
0
 10
2.52832
 20
1.14014
 30
0.0
 40
0.00347222
 41
0.00347222
  0
VERTEX
  8
0
 10
2.50726
 20
1.14014
 30
0.0
 40
0.00347222
 41
0.00347222
  0
VERTEX
  8
0
 10
2.50726
 20
1.18907
 30
0.0
 40
0.00347222
 41
0.00347222
  0
SEQEND
 8
0
  0
POLYLINE
  8
0
 62
     250
 66
     1
 10
0
 20
0
 30
0.0
 70
     1
 40
0.25
 41
0.25
  0
VERTEX
  8
0
 10
2.5446
 20
1.18907
 30
0.0
 40
0.00347222
 41
0.00347222
  0
VERTEX
  8
0
 10
2.5446
 20
1.257
 30
0.0
 40
0.00347222
 41
0.00347222
  0
VERTEX
  8
0
 10
2.62483
 20
1.257
 30
0.0
 40
0.00347222
 41
0.00347222
  0
VERTEX
  8
0
 10
2.62483
 20
1.23698
 30
0.0
 40
0.00347222
 41
0.00347222
  0
VERTEX
  8
0
 10
2.56706
 20
1.23698
 30
0.0
 40
0.00347222
 41
0.00347222
  0
VERTEX
  8
0
 10
2.56706
 20
1.20812
 30
0.0
 40
0.00347222
 41
0.00347222
  0
VERTEX
  8
0
 10
2.62483
 20
1.20812
 30
0.0
 40
0.00347222
 41
0.00347222
  0
VERTEX
  8
0
 10
2.62483
 20
1.14014
 30
0.0
 40
0.00347222
 41
0.00347222
  0
VERTEX
  8
0
 10
2.5446
 20
1.14014
 30
0.0
 40
0.00347222
 41
0.00347222
  0
VERTEX
  8
0
 10
2.5446
 20
1.16016
 30
0.0
 40
0.00347222
 41
0.00347222
  0
VERTEX
  8
0
 10
2.60379
 20
1.16016
 30
0.0
 40
0.00347222
 41
0.00347222
  0
VERTEX
  8
0
 10
2.60379
 20
1.18907
 30
0.0
 40
0.00347222
 41
0.00347222
  0
VERTEX
  8
0
 10
2.5446
 20
1.18907
 30
0.0
 40
0.00347222
 41
0.00347222
  0
SEQEND
 8
0
  0
POLYLINE
  8
0
 62
     250
 66
     1
 10
0
 20
0
 30
0.0
 70
     1
 40
0.25
 41
0.25
  0
VERTEX
  8
0
 10
2.64111
 20
1.257
 30
0.0
 40
0.00347222
 41
0.00347222
  0
VERTEX
  8
0
 10
2.66357
 20
1.257
 30
0.0
 40
0.00347222
 41
0.00347222
  0
VERTEX
  8
0
 10
2.66357
 20
1.14014
 30
0.0
 40
0.00347222
 41
0.00347222
  0
VERTEX
  8
0
 10
2.64111
 20
1.14014
 30
0.0
 40
0.00347222
 41
0.00347222
  0
VERTEX
  8
0
 10
2.64111
 20
1.257
 30
0.0
 40
0.00347222
 41
0.00347222
  0
SEQEND
 8
0
  0
POLYLINE
  8
0
 62
     250
 66
     1
 10
0
 20
0
 30
0.0
 70
     1
 40
0.25
 41
0.25
  0
VERTEX
  8
0
 10
2.70231
 20
1.23698
 30
0.0
 40
0.00347222
 41
0.00347222
  0
VERTEX
  8
0
 10
2.70231
 20
1.20812
 30
0.0
 40
0.00347222
 41
0.00347222
  0
VERTEX
  8
0
 10
2.7601
 20
1.20812
 30
0.0
 40
0.00347222
 41
0.00347222
  0
VERTEX
  8
0
 10
2.7601
 20
1.18907
 30
0.0
 40
0.00347222
 41
0.00347222
  0
VERTEX
  8
0
 10
2.70231
 20
1.18907
 30
0.0
 40
0.00347222
 41
0.00347222
  0
VERTEX
  8
0
 10
2.70231
 20
1.16016
 30
0.0
 40
0.00347222
 41
0.00347222
  0
VERTEX
  8
0
 10
2.7601
 20
1.16016
 30
0.0
 40
0.00347222
 41
0.00347222
  0
VERTEX
  8
0
 10
2.7601
 20
1.14014
 30
0.0
 40
0.00347222
 41
0.00347222
  0
VERTEX
  8
0
 10
2.67985
 20
1.14014
 30
0.0
 40
0.00347222
 41
0.00347222
  0
VERTEX
  8
0
 10
2.67985
 20
1.257
 30
0.0
 40
0.00347222
 41
0.00347222
  0
VERTEX
  8
0
 10
2.7601
 20
1.257
 30
0.0
 40
0.00347222
 41
0.00347222
  0
VERTEX
  8
0
 10
2.7601
 20
1.23698
 30
0.0
 40
0.00347222
 41
0.00347222
  0
VERTEX
  8
0
 10
2.70231
 20
1.23698
 30
0.0
 40
0.00347222
 41
0.00347222
  0
SEQEND
 8
0
  0
POLYLINE
  8
0
 62
     250
 66
     1
 10
0
 20
0
 30
0.0
 70
     1
 40
0.25
 41
0.25
  0
VERTEX
  8
0
 10
2.79883
 20
1.20812
 30
0.0
 40
0.00347222
 41
0.00347222
  0
VERTEX
  8
0
 10
2.83556
 20
1.20812
 30
0.0
 40
0.00347222
 41
0.00347222
  0
VERTEX
  8
0
 10
2.83556
 20
1.23698
 30
0.0
 40
0.00347222
 41
0.00347222
  0
VERTEX
  8
0
 10
2.79883
 20
1.23698
 30
0.0
 40
0.00347222
 41
0.00347222
  0
VERTEX
  8
0
 10
2.79883
 20
1.20812
 30
0.0
 40
0.00347222
 41
0.00347222
  0
SEQEND
 8
0
  0
POLYLINE
  8
0
 62
     250
 66
     1
 10
0
 20
0
 30
0.0
 70
     1
 40
0.25
 41
0.25
  0
VERTEX
  8
0
 10
2.77636
 20
1.14014
 30
0.0
 40
0.00347222
 41
0.00347222
  0
VERTEX
  8
0
 10
2.77636
 20
1.257
 30
0.0
 40
0.00347222
 41
0.00347222
  0
VERTEX
  8
0
 10
2.85661
 20
1.257
 30
0.0
 40
0.00347222
 41
0.00347222
  0
VERTEX
  8
0
 10
2.85661
 20
1.18907
 30
0.0
 40
0.00347222
 41
0.00347222
  0
VERTEX
  8
0
 10
2.82921
 20
1.18907
 30
0.0
 40
0.00347222
 41
0.00347222
  0
VERTEX
  8
0
 10
2.85661
 20
1.14014
 30
0.0
 40
0.00347222
 41
0.00347222
  0
VERTEX
  8
0
 10
2.83556
 20
1.14014
 30
0.0
 40
0.00347222
 41
0.00347222
  0
VERTEX
  8
0
 10
2.80675
 20
1.18907
 30
0.0
 40
0.00347222
 41
0.00347222
  0
VERTEX
  8
0
 10
2.79883
 20
1.18907
 30
0.0
 40
0.00347222
 41
0.00347222
  0
VERTEX
  8
0
 10
2.79883
 20
1.14014
 30
0.0
 40
0.00347222
 41
0.00347222
  0
VERTEX
  8
0
 10
2.77636
 20
1.14014
 30
0.0
 40
0.00347222
 41
0.00347222
  0
SEQEND
 8
0
  0
POLYLINE
  8
0
 62
     250
 66
     1
 10
0
 20
0
 30
0.0
 70
     1
 40
0.25
 41
0.25
  0
VERTEX
  8
0
 10
1.16585
 20
0.195313
 30
0.0
 40
0.00347222
 41
0.00347222
  0
VERTEX
  8
0
 10
1.19645
 20
0.195313
 30
0.0
 40
0.00347222
 41
0.00347222
  0
VERTEX
  8
0
 10
1.19645
 20
0.219401
 30
0.0
 40
0.00347222
 41
0.00347222
  0
VERTEX
  8
0
 10
1.16585
 20
0.219401
 30
0.0
 40
0.00347222
 41
0.00347222
  0
VERTEX
  8
0
 10
1.16585
 20
0.195313
 30
0.0
 40
0.00347222
 41
0.00347222
  0
SEQEND
 8
0
  0
POLYLINE
  8
0
 62
     250
 66
     1
 10
0
 20
0
 30
0.0
 70
     1
 40
0.25
 41
0.25
  0
VERTEX
  8
0
 10
1.16585
 20
0.235243
 30
0.0
 40
0.00347222
 41
0.00347222
  0
VERTEX
  8
0
 10
1.19645
 20
0.235243
 30
0.0
 40
0.00347222
 41
0.00347222
  0
VERTEX
  8
0
 10
1.19645
 20
0.259332
 30
0.0
 40
0.00347222
 41
0.00347222
  0
VERTEX
  8
0
 10
1.16585
 20
0.259332
 30
0.0
 40
0.00347222
 41
0.00347222
  0
VERTEX
  8
0
 10
1.16585
 20
0.235243
 30
0.0
 40
0.00347222
 41
0.00347222
  0
SEQEND
 8
0
  0
POLYLINE
  8
0
 62
     250
 66
     1
 10
0
 20
0
 30
0.0
 70
     1
 40
0.25
 41
0.25
  0
VERTEX
  8
0
 10
1.21403
 20
0.275987
 30
0.0
 40
0.00347222
 41
0.00347222
  0
VERTEX
  8
0
 10
1.21403
 20
0.239094
 30
0.0
 40
0.00347222
 41
0.00347222
  0
VERTEX
  8
0
 10
1.20578
 20
0.226997
 30
0.0
 40
0.00347222
 41
0.00347222
  0
VERTEX
  8
0
 10
1.21403
 20
0.214789
 30
0.0
 40
0.00347222
 41
0.00347222
  0
VERTEX
  8
0
 10
1.21403
 20
0.178603
 30
0.0
 40
0.00347222
 41
0.00347222
  0
VERTEX
  8
0
 10
1.14714
 20
0.178603
 30
0.0
 40
0.00347222
 41
0.00347222
  0
VERTEX
  8
0
 10
1.14714
 20
0.275987
 30
0.0
 40
0.00347222
 41
0.00347222
  0
VERTEX
  8
0
 10
1.21403
 20
0.275987
 30
0.0
 40
0.00347222
 41
0.00347222
  0
SEQEND
 8
0
  0
POLYLINE
  8
0
 62
     250
 66
     1
 10
0
 20
0
 30
0.0
 70
     1
 40
0.25
 41
0.25
  0
VERTEX
  8
0
 10
1.27686
 20
0.259332
 30
0.0
 40
0.00347222
 41
0.00347222
  0
VERTEX
  8
0
 10
1.24631
 20
0.259332
 30
0.0
 40
0.00347222
 41
0.00347222
  0
VERTEX
  8
0
 10
1.24631
 20
0.195313
 30
0.0
 40
0.00347222
 41
0.00347222
  0
VERTEX
  8
0
 10
1.27686
 20
0.195313
 30
0.0
 40
0.00347222
 41
0.00347222
  0
VERTEX
  8
0
 10
1.27686
 20
0.259332
 30
0.0
 40
0.00347222
 41
0.00347222
  0
SEQEND
 8
0
  0
POLYLINE
  8
0
 62
     250
 66
     1
 10
0
 20
0
 30
0.0
 70
     1
 40
0.25
 41
0.25
  0
VERTEX
  8
0
 10
1.29443
 20
0.178603
 30
0.0
 40
0.00347222
 41
0.00347222
  0
VERTEX
  8
0
 10
1.22759
 20
0.178603
 30
0.0
 40
0.00347222
 41
0.00347222
  0
VERTEX
  8
0
 10
1.22759
 20
0.275987
 30
0.0
 40
0.00347222
 41
0.00347222
  0
VERTEX
  8
0
 10
1.29443
 20
0.275987
 30
0.0
 40
0.00347222
 41
0.00347222
  0
VERTEX
  8
0
 10
1.29443
 20
0.178603
 30
0.0
 40
0.00347222
 41
0.00347222
  0
SEQEND
 8
0
  0
POLYLINE
  8
0
 62
     250
 66
     1
 10
0
 20
0
 30
0.0
 70
     1
 40
0.25
 41
0.25
  0
VERTEX
  8
0
 10
1.35731
 20
0.275987
 30
0.0
 40
0.00347222
 41
0.00347222
  0
VERTEX
  8
0
 10
1.37489
 20
0.275987
 30
0.0
 40
0.00347222
 41
0.00347222
  0
VERTEX
  8
0
 10
1.37489
 20
0.178603
 30
0.0
 40
0.00347222
 41
0.00347222
  0
VERTEX
  8
0
 10
1.308
 20
0.178603
 30
0.0
 40
0.00347222
 41
0.00347222
  0
VERTEX
  8
0
 10
1.308
 20
0.275987
 30
0.0
 40
0.00347222
 41
0.00347222
  0
VERTEX
  8
0
 10
1.32671
 20
0.275987
 30
0.0
 40
0.00347222
 41
0.00347222
  0
VERTEX
  8
0
 10
1.32671
 20
0.195313
 30
0.0
 40
0.00347222
 41
0.00347222
  0
VERTEX
  8
0
 10
1.35731
 20
0.195313
 30
0.0
 40
0.00347222
 41
0.00347222
  0
VERTEX
  8
0
 10
1.35731
 20
0.275987
 30
0.0
 40
0.00347222
 41
0.00347222
  0
SEQEND
 8
0
  0
POLYLINE
  8
0
 62
     250
 66
     1
 10
0
 20
0
 30
0.0
 70
     1
 40
0.25
 41
0.25
  0
VERTEX
  8
0
 10
1.40717
 20
0.195313
 30
0.0
 40
0.00347222
 41
0.00347222
  0
VERTEX
  8
0
 10
1.45529
 20
0.195313
 30
0.0
 40
0.00347222
 41
0.00347222
  0
VERTEX
  8
0
 10
1.45529
 20
0.178603
 30
0.0
 40
0.00347222
 41
0.00347222
  0
VERTEX
  8
0
 10
1.38846
 20
0.178603
 30
0.0
 40
0.00347222
 41
0.00347222
  0
VERTEX
  8
0
 10
1.38846
 20
0.275987
 30
0.0
 40
0.00347222
 41
0.00347222
  0
VERTEX
  8
0
 10
1.45529
 20
0.275987
 30
0.0
 40
0.00347222
 41
0.00347222
  0
VERTEX
  8
0
 10
1.45529
 20
0.259332
 30
0.0
 40
0.00347222
 41
0.00347222
  0
VERTEX
  8
0
 10
1.40717
 20
0.259332
 30
0.0
 40
0.00347222
 41
0.00347222
  0
VERTEX
  8
0
 10
1.40717
 20
0.195313
 30
0.0
 40
0.00347222
 41
0.00347222
  0
SEQEND
 8
0
  0
POLYLINE
  8
0
 62
     250
 66
     1
 10
0
 20
0
 30
0.0
 70
     1
 40
0.25
 41
0.25
  0
VERTEX
  8
0
 10
1.48757
 20
0.178603
 30
0.0
 40
0.00347222
 41
0.00347222
  0
VERTEX
  8
0
 10
1.46886
 20
0.178603
 30
0.0
 40
0.00347222
 41
0.00347222
  0
VERTEX
  8
0
 10
1.46886
 20
0.275987
 30
0.0
 40
0.00347222
 41
0.00347222
  0
VERTEX
  8
0
 10
1.48757
 20
0.275987
 30
0.0
 40
0.00347222
 41
0.00347222
  0
VERTEX
  8
0
 10
1.48757
 20
0.235243
 30
0.0
 40
0.00347222
 41
0.00347222
  0
VERTEX
  8
0
 10
1.51818
 20
0.235243
 30
0.0
 40
0.00347222
 41
0.00347222
  0
VERTEX
  8
0
 10
1.51818
 20
0.275987
 30
0.0
 40
0.00347222
 41
0.00347222
  0
VERTEX
  8
0
 10
1.53575
 20
0.275987
 30
0.0
 40
0.00347222
 41
0.00347222
  0
VERTEX
  8
0
 10
1.53575
 20
0.178603
 30
0.0
 40
0.00347222
 41
0.00347222
  0
VERTEX
  8
0
 10
1.51818
 20
0.178603
 30
0.0
 40
0.00347222
 41
0.00347222
  0
VERTEX
  8
0
 10
1.51818
 20
0.219401
 30
0.0
 40
0.00347222
 41
0.00347222
  0
VERTEX
  8
0
 10
1.48757
 20
0.219401
 30
0.0
 40
0.00347222
 41
0.00347222
  0
VERTEX
  8
0
 10
1.48757
 20
0.178603
 30
0.0
 40
0.00347222
 41
0.00347222
  0
SEQEND
 8
0
  0
POLYLINE
  8
0
 62
     250
 66
     1
 10
0
 20
0
 30
0.0
 70
     1
 40
0.25
 41
0.25
  0
VERTEX
  8
0
 10
1.59864
 20
0.259332
 30
0.0
 40
0.00347222
 41
0.00347222
  0
VERTEX
  8
0
 10
1.56803
 20
0.259332
 30
0.0
 40
0.00347222
 41
0.00347222
  0
VERTEX
  8
0
 10
1.56803
 20
0.195313
 30
0.0
 40
0.00347222
 41
0.00347222
  0
VERTEX
  8
0
 10
1.59864
 20
0.195313
 30
0.0
 40
0.00347222
 41
0.00347222
  0
VERTEX
  8
0
 10
1.59864
 20
0.259332
 30
0.0
 40
0.00347222
 41
0.00347222
  0
SEQEND
 8
0
  0
POLYLINE
  8
0
 62
     250
 66
     1
 10
0
 20
0
 30
0.0
 70
     1
 40
0.25
 41
0.25
  0
VERTEX
  8
0
 10
1.61615
 20
0.178603
 30
0.0
 40
0.00347222
 41
0.00347222
  0
VERTEX
  8
0
 10
1.54932
 20
0.178603
 30
0.0
 40
0.00347222
 41
0.00347222
  0
VERTEX
  8
0
 10
1.54932
 20
0.275987
 30
0.0
 40
0.00347222
 41
0.00347222
  0
VERTEX
  8
0
 10
1.61615
 20
0.275987
 30
0.0
 40
0.00347222
 41
0.00347222
  0
VERTEX
  8
0
 10
1.61615
 20
0.178603
 30
0.0
 40
0.00347222
 41
0.00347222
  0
SEQEND
 8
0
  0
POLYLINE
  8
0
 62
     250
 66
     1
 10
0
 20
0
 30
0.0
 70
     1
 40
0.25
 41
0.25
  0
VERTEX
  8
0
 10
1.64844
 20
0.178603
 30
0.0
 40
0.00347222
 41
0.00347222
  0
VERTEX
  8
0
 10
1.62972
 20
0.178603
 30
0.0
 40
0.00347222
 41
0.00347222
  0
VERTEX
  8
0
 10
1.62972
 20
0.275987
 30
0.0
 40
0.00347222
 41
0.00347222
  0
VERTEX
  8
0
 10
1.64844
 20
0.275987
 30
0.0
 40
0.00347222
 41
0.00347222
  0
VERTEX
  8
0
 10
1.67904
 20
0.221408
 30
0.0
 40
0.00347222
 41
0.00347222
  0
VERTEX
  8
0
 10
1.67904
 20
0.275987
 30
0.0
 40
0.00347222
 41
0.00347222
  0
VERTEX
  8
0
 10
1.69661
 20
0.275987
 30
0.0
 40
0.00347222
 41
0.00347222
  0
VERTEX
  8
0
 10
1.69661
 20
0.178603
 30
0.0
 40
0.00347222
 41
0.00347222
  0
VERTEX
  8
0
 10
1.67904
 20
0.178603
 30
0.0
 40
0.00347222
 41
0.00347222
  0
VERTEX
  8
0
 10
1.64844
 20
0.234864
 30
0.0
 40
0.00347222
 41
0.00347222
  0
VERTEX
  8
0
 10
1.64844
 20
0.178603
 30
0.0
 40
0.00347222
 41
0.00347222
  0
SEQEND
 8
0
  0
POLYLINE
  8
0
 62
     250
 66
     1
 10
0
 20
0
 30
0.0
 70
     1
 40
0.25
 41
0.25
  0
VERTEX
  8
0
 10
1.76992
 20
0.259332
 30
0.0
 40
0.00347222
 41
0.00347222
  0
VERTEX
  8
0
 10
1.74462
 20
0.259332
 30
0.0
 40
0.00347222
 41
0.00347222
  0
VERTEX
  8
0
 10
1.74462
 20
0.275987
 30
0.0
 40
0.00347222
 41
0.00347222
  0
VERTEX
  8
0
 10
1.81147
 20
0.275987
 30
0.0
 40
0.00347222
 41
0.00347222
  0
VERTEX
  8
0
 10
1.81147
 20
0.259332
 30
0.0
 40
0.00347222
 41
0.00347222
  0
VERTEX
  8
0
 10
1.78863
 20
0.259332
 30
0.0
 40
0.00347222
 41
0.00347222
  0
VERTEX
  8
0
 10
1.78863
 20
0.178603
 30
0.0
 40
0.00347222
 41
0.00347222
  0
VERTEX
  8
0
 10
1.76992
 20
0.178603
 30
0.0
 40
0.00347222
 41
0.00347222
  0
VERTEX
  8
0
 10
1.76992
 20
0.259332
 30
0.0
 40
0.00347222
 41
0.00347222
  0
SEQEND
 8
0
  0
POLYLINE
  8
0
 62
     250
 66
     1
 10
0
 20
0
 30
0.0
 70
     1
 40
0.25
 41
0.25
  0
VERTEX
  8
0
 10
1.84375
 20
0.235243
 30
0.0
 40
0.00347222
 41
0.00347222
  0
VERTEX
  8
0
 10
1.87435
 20
0.235243
 30
0.0
 40
0.00347222
 41
0.00347222
  0
VERTEX
  8
0
 10
1.87435
 20
0.259332
 30
0.0
 40
0.00347222
 41
0.00347222
  0
VERTEX
  8
0
 10
1.84375
 20
0.259332
 30
0.0
 40
0.00347222
 41
0.00347222
  0
VERTEX
  8
0
 10
1.84375
 20
0.235243
 30
0.0
 40
0.00347222
 41
0.00347222
  0
SEQEND
 8
0
  0
POLYLINE
  8
0
 62
     250
 66
     1
 10
0
 20
0
 30
0.0
 70
     1
 40
0.25
 41
0.25
  0
VERTEX
  8
0
 10
1.82503
 20
0.178603
 30
0.0
 40
0.00347222
 41
0.00347222
  0
VERTEX
  8
0
 10
1.82503
 20
0.275987
 30
0.0
 40
0.00347222
 41
0.00347222
  0
VERTEX
  8
0
 10
1.89193
 20
0.275987
 30
0.0
 40
0.00347222
 41
0.00347222
  0
VERTEX
  8
0
 10
1.89193
 20
0.219401
 30
0.0
 40
0.00347222
 41
0.00347222
  0
VERTEX
  8
0
 10
1.86903
 20
0.219401
 30
0.0
 40
0.00347222
 41
0.00347222
  0
VERTEX
  8
0
 10
1.89193
 20
0.178603
 30
0.0
 40
0.00347222
 41
0.00347222
  0
VERTEX
  8
0
 10
1.87435
 20
0.178603
 30
0.0
 40
0.00347222
 41
0.00347222
  0
VERTEX
  8
0
 10
1.85038
 20
0.219401
 30
0.0
 40
0.00347222
 41
0.00347222
  0
VERTEX
  8
0
 10
1.84375
 20
0.219401
 30
0.0
 40
0.00347222
 41
0.00347222
  0
VERTEX
  8
0
 10
1.84375
 20
0.178603
 30
0.0
 40
0.00347222
 41
0.00347222
  0
VERTEX
  8
0
 10
1.82503
 20
0.178603
 30
0.0
 40
0.00347222
 41
0.00347222
  0
SEQEND
 8
0
  0
POLYLINE
  8
0
 62
     250
 66
     1
 10
0
 20
0
 30
0.0
 70
     1
 40
0.25
 41
0.25
  0
VERTEX
  8
0
 10
1.90549
 20
0.275987
 30
0.0
 40
0.00347222
 41
0.00347222
  0
VERTEX
  8
0
 10
1.92421
 20
0.275987
 30
0.0
 40
0.00347222
 41
0.00347222
  0
VERTEX
  8
0
 10
1.92421
 20
0.178603
 30
0.0
 40
0.00347222
 41
0.00347222
  0
VERTEX
  8
0
 10
1.90549
 20
0.178603
 30
0.0
 40
0.00347222
 41
0.00347222
  0
VERTEX
  8
0
 10
1.90549
 20
0.275987
 30
0.0
 40
0.00347222
 41
0.00347222
  0
SEQEND
 8
0
  0
POLYLINE
  8
0
 62
     250
 66
     1
 10
0
 20
0
 30
0.0
 70
     1
 40
0.25
 41
0.25
  0
VERTEX
  8
0
 10
1.95649
 20
0.259332
 30
0.0
 40
0.00347222
 41
0.00347222
  0
VERTEX
  8
0
 10
1.95649
 20
0.235243
 30
0.0
 40
0.00347222
 41
0.00347222
  0
VERTEX
  8
0
 10
2.00461
 20
0.235243
 30
0.0
 40
0.00347222
 41
0.00347222
  0
VERTEX
  8
0
 10
2.00461
 20
0.219401
 30
0.0
 40
0.00347222
 41
0.00347222
  0
VERTEX
  8
0
 10
1.95649
 20
0.219401
 30
0.0
 40
0.00347222
 41
0.00347222
  0
VERTEX
  8
0
 10
1.95649
 20
0.195313
 30
0.0
 40
0.00347222
 41
0.00347222
  0
VERTEX
  8
0
 10
2.00461
 20
0.195313
 30
0.0
 40
0.00347222
 41
0.00347222
  0
VERTEX
  8
0
 10
2.00461
 20
0.178603
 30
0.0
 40
0.00347222
 41
0.00347222
  0
VERTEX
  8
0
 10
1.93778
 20
0.178603
 30
0.0
 40
0.00347222
 41
0.00347222
  0
VERTEX
  8
0
 10
1.93778
 20
0.275987
 30
0.0
 40
0.00347222
 41
0.00347222
  0
VERTEX
  8
0
 10
2.00461
 20
0.275987
 30
0.0
 40
0.00347222
 41
0.00347222
  0
VERTEX
  8
0
 10
2.00461
 20
0.259332
 30
0.0
 40
0.00347222
 41
0.00347222
  0
VERTEX
  8
0
 10
1.95649
 20
0.259332
 30
0.0
 40
0.00347222
 41
0.00347222
  0
SEQEND
 8
0
  0
POLYLINE
  8
0
 62
     250
 66
     1
 10
0
 20
0
 30
0.0
 70
     1
 40
0.25
 41
0.25
  0
VERTEX
  8
0
 10
2.25168
 20
0.195313
 30
0.0
 40
0.00347222
 41
0.00347222
  0
VERTEX
  8
0
 10
2.29986
 20
0.195313
 30
0.0
 40
0.00347222
 41
0.00347222
  0
VERTEX
  8
0
 10
2.29986
 20
0.178603
 30
0.0
 40
0.00347222
 41
0.00347222
  0
VERTEX
  8
0
 10
2.23296
 20
0.178603
 30
0.0
 40
0.00347222
 41
0.00347222
  0
VERTEX
  8
0
 10
2.23296
 20
0.275987
 30
0.0
 40
0.00347222
 41
0.00347222
  0
VERTEX
  8
0
 10
2.29986
 20
0.275987
 30
0.0
 40
0.00347222
 41
0.00347222
  0
VERTEX
  8
0
 10
2.29986
 20
0.259332
 30
0.0
 40
0.00347222
 41
0.00347222
  0
VERTEX
  8
0
 10
2.25168
 20
0.259332
 30
0.0
 40
0.00347222
 41
0.00347222
  0
VERTEX
  8
0
 10
2.25168
 20
0.195313
 30
0.0
 40
0.00347222
 41
0.00347222
  0
SEQEND
 8
0
  0
POLYLINE
  8
0
 62
     250
 66
     1
 10
0
 20
0
 30
0.0
 70
     1
 40
0.25
 41
0.25
  0
VERTEX
  8
0
 10
2.33208
 20
0.235243
 30
0.0
 40
0.00347222
 41
0.00347222
  0
VERTEX
  8
0
 10
2.36268
 20
0.235243
 30
0.0
 40
0.00347222
 41
0.00347222
  0
VERTEX
  8
0
 10
2.36268
 20
0.259332
 30
0.0
 40
0.00347222
 41
0.00347222
  0
VERTEX
  8
0
 10
2.33208
 20
0.259332
 30
0.0
 40
0.00347222
 41
0.00347222
  0
VERTEX
  8
0
 10
2.33208
 20
0.235243
 30
0.0
 40
0.00347222
 41
0.00347222
  0
SEQEND
 8
0
  0
POLYLINE
  8
0
 62
     250
 66
     1
 10
0
 20
0
 30
0.0
 70
     1
 40
0.25
 41
0.25
  0
VERTEX
  8
0
 10
2.36268
 20
0.219401
 30
0.0
 40
0.00347222
 41
0.00347222
  0
VERTEX
  8
0
 10
2.33208
 20
0.219401
 30
0.0
 40
0.00347222
 41
0.00347222
  0
VERTEX
  8
0
 10
2.33208
 20
0.178603
 30
0.0
 40
0.00347222
 41
0.00347222
  0
VERTEX
  8
0
 10
2.31338
 20
0.178603
 30
0.0
 40
0.00347222
 41
0.00347222
  0
VERTEX
  8
0
 10
2.31338
 20
0.275987
 30
0.0
 40
0.00347222
 41
0.00347222
  0
VERTEX
  8
0
 10
2.38026
 20
0.275987
 30
0.0
 40
0.00347222
 41
0.00347222
  0
VERTEX
  8
0
 10
2.38026
 20
0.178603
 30
0.0
 40
0.00347222
 41
0.00347222
  0
VERTEX
  8
0
 10
2.36268
 20
0.178603
 30
0.0
 40
0.00347222
 41
0.00347222
  0
VERTEX
  8
0
 10
2.36268
 20
0.219401
 30
0.0
 40
0.00347222
 41
0.00347222
  0
SEQEND
 8
0
  0
POLYLINE
  8
0
 62
     250
 66
     1
 10
0
 20
0
 30
0.0
 70
     1
 40
0.25
 41
0.25
  0
VERTEX
  8
0
 10
2.39382
 20
0.219347
 30
0.0
 40
0.00347222
 41
0.00347222
  0
VERTEX
  8
0
 10
2.39382
 20
0.275987
 30
0.0
 40
0.00347222
 41
0.00347222
  0
VERTEX
  8
0
 10
2.46067
 20
0.275987
 30
0.0
 40
0.00347222
 41
0.00347222
  0
VERTEX
  8
0
 10
2.46067
 20
0.259332
 30
0.0
 40
0.00347222
 41
0.00347222
  0
VERTEX
  8
0
 10
2.41254
 20
0.259332
 30
0.0
 40
0.00347222
 41
0.00347222
  0
VERTEX
  8
0
 10
2.41254
 20
0.235243
 30
0.0
 40
0.00347222
 41
0.00347222
  0
VERTEX
  8
0
 10
2.46067
 20
0.235243
 30
0.0
 40
0.00347222
 41
0.00347222
  0
VERTEX
  8
0
 10
2.46067
 20
0.178603
 30
0.0
 40
0.00347222
 41
0.00347222
  0
VERTEX
  8
0
 10
2.39382
 20
0.178603
 30
0.0
 40
0.00347222
 41
0.00347222
  0
VERTEX
  8
0
 10
2.39382
 20
0.195313
 30
0.0
 40
0.00347222
 41
0.00347222
  0
VERTEX
  8
0
 10
2.44314
 20
0.195313
 30
0.0
 40
0.00347222
 41
0.00347222
  0
VERTEX
  8
0
 10
2.44314
 20
0.219347
 30
0.0
 40
0.00347222
 41
0.00347222
  0
VERTEX
  8
0
 10
2.39382
 20
0.219347
 30
0.0
 40
0.00347222
 41
0.00347222
  0
SEQEND
 8
0
  0
POLYLINE
  8
0
 62
     250
 66
     1
 10
0
 20
0
 30
0.0
 70
     1
 40
0.25
 41
0.25
  0
VERTEX
  8
0
 10
2.47424
 20
0.275987
 30
0.0
 40
0.00347222
 41
0.00347222
  0
VERTEX
  8
0
 10
2.49294
 20
0.275987
 30
0.0
 40
0.00347222
 41
0.00347222
  0
VERTEX
  8
0
 10
2.49294
 20
0.178603
 30
0.0
 40
0.00347222
 41
0.00347222
  0
VERTEX
  8
0
 10
2.47424
 20
0.178603
 30
0.0
 40
0.00347222
 41
0.00347222
  0
VERTEX
  8
0
 10
2.47424
 20
0.275987
 30
0.0
 40
0.00347222
 41
0.00347222
  0
SEQEND
 8
0
  0
POLYLINE
  8
0
 62
     250
 66
     1
 10
0
 20
0
 30
0.0
 70
     1
 40
0.25
 41
0.25
  0
VERTEX
  8
0
 10
2.52528
 20
0.259332
 30
0.0
 40
0.00347222
 41
0.00347222
  0
VERTEX
  8
0
 10
2.52528
 20
0.235243
 30
0.0
 40
0.00347222
 41
0.00347222
  0
VERTEX
  8
0
 10
2.5734
 20
0.235243
 30
0.0
 40
0.00347222
 41
0.00347222
  0
VERTEX
  8
0
 10
2.5734
 20
0.219347
 30
0.0
 40
0.00347222
 41
0.00347222
  0
VERTEX
  8
0
 10
2.52528
 20
0.219347
 30
0.0
 40
0.00347222
 41
0.00347222
  0
VERTEX
  8
0
 10
2.52528
 20
0.195313
 30
0.0
 40
0.00347222
 41
0.00347222
  0
VERTEX
  8
0
 10
2.5734
 20
0.195313
 30
0.0
 40
0.00347222
 41
0.00347222
  0
VERTEX
  8
0
 10
2.5734
 20
0.178603
 30
0.0
 40
0.00347222
 41
0.00347222
  0
VERTEX
  8
0
 10
2.50651
 20
0.178603
 30
0.0
 40
0.00347222
 41
0.00347222
  0
VERTEX
  8
0
 10
2.50651
 20
0.275987
 30
0.0
 40
0.00347222
 41
0.00347222
  0
VERTEX
  8
0
 10
2.5734
 20
0.275987
 30
0.0
 40
0.00347222
 41
0.00347222
  0
VERTEX
  8
0
 10
2.5734
 20
0.259332
 30
0.0
 40
0.00347222
 41
0.00347222
  0
VERTEX
  8
0
 10
2.52528
 20
0.259332
 30
0.0
 40
0.00347222
 41
0.00347222
  0
SEQEND
 8
0
  0
POLYLINE
  8
0
 62
     250
 66
     1
 10
0
 20
0
 30
0.0
 70
     1
 40
0.25
 41
0.25
  0
VERTEX
  8
0
 10
2.60568
 20
0.235243
 30
0.0
 40
0.00347222
 41
0.00347222
  0
VERTEX
  8
0
 10
2.63629
 20
0.235243
 30
0.0
 40
0.00347222
 41
0.00347222
  0
VERTEX
  8
0
 10
2.63629
 20
0.259332
 30
0.0
 40
0.00347222
 41
0.00347222
  0
VERTEX
  8
0
 10
2.60568
 20
0.259332
 30
0.0
 40
0.00347222
 41
0.00347222
  0
VERTEX
  8
0
 10
2.60568
 20
0.235243
 30
0.0
 40
0.00347222
 41
0.00347222
  0
SEQEND
 8
0
  0
POLYLINE
  8
0
 62
     250
 66
     1
 10
0
 20
0
 30
0.0
 70
     1
 40
0.25
 41
0.25
  0
VERTEX
  8
0
 10
2.58697
 20
0.178603
 30
0.0
 40
0.00347222
 41
0.00347222
  0
VERTEX
  8
0
 10
2.58697
 20
0.275987
 30
0.0
 40
0.00347222
 41
0.00347222
  0
VERTEX
  8
0
 10
2.65381
 20
0.275987
 30
0.0
 40
0.00347222
 41
0.00347222
  0
VERTEX
  8
0
 10
2.65381
 20
0.219401
 30
0.0
 40
0.00347222
 41
0.00347222
  0
VERTEX
  8
0
 10
2.63097
 20
0.219401
 30
0.0
 40
0.00347222
 41
0.00347222
  0
VERTEX
  8
0
 10
2.65381
 20
0.178603
 30
0.0
 40
0.00347222
 41
0.00347222
  0
VERTEX
  8
0
 10
2.63629
 20
0.178603
 30
0.0
 40
0.00347222
 41
0.00347222
  0
VERTEX
  8
0
 10
2.61225
 20
0.219401
 30
0.0
 40
0.00347222
 41
0.00347222
  0
VERTEX
  8
0
 10
2.60568
 20
0.219401
 30
0.0
 40
0.00347222
 41
0.00347222
  0
VERTEX
  8
0
 10
2.60568
 20
0.178603
 30
0.0
 40
0.00347222
 41
0.00347222
  0
VERTEX
  8
0
 10
2.58697
 20
0.178603
 30
0.0
 40
0.00347222
 41
0.00347222
  0
SEQEND
 8
0
  0
POLYLINE
  8
0
 62
     250
 66
     1
 10
0
 20
0
 30
0.0
 70
     1
 40
0.25
 41
0.25
  0
VERTEX
  8
0
 10
2.72715
 20
0.259332
 30
0.0
 40
0.00347222
 41
0.00347222
  0
VERTEX
  8
0
 10
2.70188
 20
0.259332
 30
0.0
 40
0.00347222
 41
0.00347222
  0
VERTEX
  8
0
 10
2.70188
 20
0.275987
 30
0.0
 40
0.00347222
 41
0.00347222
  0
VERTEX
  8
0
 10
2.76872
 20
0.275987
 30
0.0
 40
0.00347222
 41
0.00347222
  0
VERTEX
  8
0
 10
2.76872
 20
0.259332
 30
0.0
 40
0.00347222
 41
0.00347222
  0
VERTEX
  8
0
 10
2.74588
 20
0.259332
 30
0.0
 40
0.00347222
 41
0.00347222
  0
VERTEX
  8
0
 10
2.74588
 20
0.178603
 30
0.0
 40
0.00347222
 41
0.00347222
  0
VERTEX
  8
0
 10
2.72715
 20
0.178603
 30
0.0
 40
0.00347222
 41
0.00347222
  0
VERTEX
  8
0
 10
2.72715
 20
0.259332
 30
0.0
 40
0.00347222
 41
0.00347222
  0
SEQEND
 8
0
  0
POLYLINE
  8
0
 62
     250
 66
     1
 10
0
 20
0
 30
0.0
 70
     1
 40
0.25
 41
0.25
  0
VERTEX
  8
0
 10
2.801
 20
0.235243
 30
0.0
 40
0.00347222
 41
0.00347222
  0
VERTEX
  8
0
 10
2.8316
 20
0.235243
 30
0.0
 40
0.00347222
 41
0.00347222
  0
VERTEX
  8
0
 10
2.8316
 20
0.259332
 30
0.0
 40
0.00347222
 41
0.00347222
  0
VERTEX
  8
0
 10
2.801
 20
0.259332
 30
0.0
 40
0.00347222
 41
0.00347222
  0
VERTEX
  8
0
 10
2.801
 20
0.235243
 30
0.0
 40
0.00347222
 41
0.00347222
  0
SEQEND
 8
0
  0
POLYLINE
  8
0
 62
     250
 66
     1
 10
0
 20
0
 30
0.0
 70
     1
 40
0.25
 41
0.25
  0
VERTEX
  8
0
 10
2.78228
 20
0.178603
 30
0.0
 40
0.00347222
 41
0.00347222
  0
VERTEX
  8
0
 10
2.78228
 20
0.275987
 30
0.0
 40
0.00347222
 41
0.00347222
  0
VERTEX
  8
0
 10
2.84918
 20
0.275987
 30
0.0
 40
0.00347222
 41
0.00347222
  0
VERTEX
  8
0
 10
2.84918
 20
0.219401
 30
0.0
 40
0.00347222
 41
0.00347222
  0
VERTEX
  8
0
 10
2.82628
 20
0.219401
 30
0.0
 40
0.00347222
 41
0.00347222
  0
VERTEX
  8
0
 10
2.84918
 20
0.178603
 30
0.0
 40
0.00347222
 41
0.00347222
  0
VERTEX
  8
0
 10
2.8316
 20
0.178603
 30
0.0
 40
0.00347222
 41
0.00347222
  0
VERTEX
  8
0
 10
2.80757
 20
0.219401
 30
0.0
 40
0.00347222
 41
0.00347222
  0
VERTEX
  8
0
 10
2.801
 20
0.219401
 30
0.0
 40
0.00347222
 41
0.00347222
  0
VERTEX
  8
0
 10
2.801
 20
0.178603
 30
0.0
 40
0.00347222
 41
0.00347222
  0
VERTEX
  8
0
 10
2.78228
 20
0.178603
 30
0.0
 40
0.00347222
 41
0.00347222
  0
SEQEND
 8
0
  0
POLYLINE
  8
0
 62
     250
 66
     1
 10
0
 20
0
 30
0.0
 70
     1
 40
0.25
 41
0.25
  0
VERTEX
  8
0
 10
2.86268
 20
0.275987
 30
0.0
 40
0.00347222
 41
0.00347222
  0
VERTEX
  8
0
 10
2.88146
 20
0.275987
 30
0.0
 40
0.00347222
 41
0.00347222
  0
VERTEX
  8
0
 10
2.88146
 20
0.178603
 30
0.0
 40
0.00347222
 41
0.00347222
  0
VERTEX
  8
0
 10
2.86268
 20
0.178603
 30
0.0
 40
0.00347222
 41
0.00347222
  0
VERTEX
  8
0
 10
2.86268
 20
0.275987
 30
0.0
 40
0.00347222
 41
0.00347222
  0
SEQEND
 8
0
  0
POLYLINE
  8
0
 62
     250
 66
     1
 10
0
 20
0
 30
0.0
 70
     1
 40
0.25
 41
0.25
  0
VERTEX
  8
0
 10
2.91368
 20
0.259332
 30
0.0
 40
0.00347222
 41
0.00347222
  0
VERTEX
  8
0
 10
2.91368
 20
0.235243
 30
0.0
 40
0.00347222
 41
0.00347222
  0
VERTEX
  8
0
 10
2.96186
 20
0.235243
 30
0.0
 40
0.00347222
 41
0.00347222
  0
VERTEX
  8
0
 10
2.96186
 20
0.219347
 30
0.0
 40
0.00347222
 41
0.00347222
  0
VERTEX
  8
0
 10
2.91368
 20
0.219347
 30
0.0
 40
0.00347222
 41
0.00347222
  0
VERTEX
  8
0
 10
2.91368
 20
0.195313
 30
0.0
 40
0.00347222
 41
0.00347222
  0
VERTEX
  8
0
 10
2.96186
 20
0.195313
 30
0.0
 40
0.00347222
 41
0.00347222
  0
VERTEX
  8
0
 10
2.96186
 20
0.178603
 30
0.0
 40
0.00347222
 41
0.00347222
  0
VERTEX
  8
0
 10
2.89497
 20
0.178603
 30
0.0
 40
0.00347222
 41
0.00347222
  0
VERTEX
  8
0
 10
2.89497
 20
0.275987
 30
0.0
 40
0.00347222
 41
0.00347222
  0
VERTEX
  8
0
 10
2.96186
 20
0.275987
 30
0.0
 40
0.00347222
 41
0.00347222
  0
VERTEX
  8
0
 10
2.96186
 20
0.259332
 30
0.0
 40
0.00347222
 41
0.00347222
  0
VERTEX
  8
0
 10
2.91368
 20
0.259332
 30
0.0
 40
0.00347222
 41
0.00347222
  0
SEQEND
 8
0
  0
POLYLINE
  8
0
 62
     250
 66
     1
 10
0
 20
0
 30
0.0
 70
     1
 40
0.25
 41
0.25
  0
VERTEX
  8
0
 10
0.109104
 20
0.235243
 30
0.0
 40
0.00347222
 41
0.00347222
  0
VERTEX
  8
0
 10
0.139649
 20
0.235243
 30
0.0
 40
0.00347222
 41
0.00347222
  0
VERTEX
  8
0
 10
0.139649
 20
0.259332
 30
0.0
 40
0.00347222
 41
0.00347222
  0
VERTEX
  8
0
 10
0.109104
 20
0.259332
 30
0.0
 40
0.00347222
 41
0.00347222
  0
VERTEX
  8
0
 10
0.109104
 20
0.235243
 30
0.0
 40
0.00347222
 41
0.00347222
  0
SEQEND
 8
0
  0
POLYLINE
  8
0
 62
     250
 66
     1
 10
0
 20
0
 30
0.0
 70
     1
 40
0.25
 41
0.25
  0
VERTEX
  8
0
 10
0.109104
 20
0.178603
 30
0.0
 40
0.00347222
 41
0.00347222
  0
VERTEX
  8
0
 10
0.0903863
 20
0.178603
 30
0.0
 40
0.00347222
 41
0.00347222
  0
VERTEX
  8
0
 10
0.0903863
 20
0.275987
 30
0.0
 40
0.00347222
 41
0.00347222
  0
VERTEX
  8
0
 10
0.157226
 20
0.275987
 30
0.0
 40
0.00347222
 41
0.00347222
  0
VERTEX
  8
0
 10
0.157226
 20
0.219401
 30
0.0
 40
0.00347222
 41
0.00347222
  0
VERTEX
  8
0
 10
0.109104
 20
0.219401
 30
0.0
 40
0.00347222
 41
0.00347222
  0
VERTEX
  8
0
 10
0.109104
 20
0.178603
 30
0.0
 40
0.00347222
 41
0.00347222
  0
SEQEND
 8
0
  0
POLYLINE
  8
0
 62
     250
 66
     1
 10
0
 20
0
 30
0.0
 70
     1
 40
0.25
 41
0.25
  0
VERTEX
  8
0
 10
0.189507
 20
0.235243
 30
0.0
 40
0.00347222
 41
0.00347222
  0
VERTEX
  8
0
 10
0.220107
 20
0.235243
 30
0.0
 40
0.00347222
 41
0.00347222
  0
VERTEX
  8
0
 10
0.220107
 20
0.259332
 30
0.0
 40
0.00347222
 41
0.00347222
  0
VERTEX
  8
0
 10
0.189507
 20
0.259332
 30
0.0
 40
0.00347222
 41
0.00347222
  0
VERTEX
  8
0
 10
0.189507
 20
0.235243
 30
0.0
 40
0.00347222
 41
0.00347222
  0
SEQEND
 8
0
  0
POLYLINE
  8
0
 62
     250
 66
     1
 10
0
 20
0
 30
0.0
 70
     1
 40
0.25
 41
0.25
  0
VERTEX
  8
0
 10
0.220107
 20
0.219401
 30
0.0
 40
0.00347222
 41
0.00347222
  0
VERTEX
  8
0
 10
0.189507
 20
0.219401
 30
0.0
 40
0.00347222
 41
0.00347222
  0
VERTEX
  8
0
 10
0.189507
 20
0.178603
 30
0.0
 40
0.00347222
 41
0.00347222
  0
VERTEX
  8
0
 10
0.17079
 20
0.178603
 30
0.0
 40
0.00347222
 41
0.00347222
  0
VERTEX
  8
0
 10
0.17079
 20
0.275987
 30
0.0
 40
0.00347222
 41
0.00347222
  0
VERTEX
  8
0
 10
0.237685
 20
0.275987
 30
0.0
 40
0.00347222
 41
0.00347222
  0
VERTEX
  8
0
 10
0.237685
 20
0.178603
 30
0.0
 40
0.00347222
 41
0.00347222
  0
VERTEX
  8
0
 10
0.220107
 20
0.178603
 30
0.0
 40
0.00347222
 41
0.00347222
  0
VERTEX
  8
0
 10
0.220107
 20
0.219401
 30
0.0
 40
0.00347222
 41
0.00347222
  0
SEQEND
 8
0
  0
POLYLINE
  8
0
 62
     250
 66
     1
 10
0
 20
0
 30
0.0
 70
     1
 40
0.25
 41
0.25
  0
VERTEX
  8
0
 10
0.251247
 20
0.275987
 30
0.0
 40
0.00347222
 41
0.00347222
  0
VERTEX
  8
0
 10
0.269965
 20
0.275987
 30
0.0
 40
0.00347222
 41
0.00347222
  0
VERTEX
  8
0
 10
0.269965
 20
0.178603
 30
0.0
 40
0.00347222
 41
0.00347222
  0
VERTEX
  8
0
 10
0.251247
 20
0.178603
 30
0.0
 40
0.00347222
 41
0.00347222
  0
VERTEX
  8
0
 10
0.251247
 20
0.275987
 30
0.0
 40
0.00347222
 41
0.00347222
  0
SEQEND
 8
0
  0
POLYLINE
  8
0
 62
     250
 66
     1
 10
0
 20
0
 30
0.0
 70
     1
 40
0.25
 41
0.25
  0
VERTEX
  8
0
 10
0.302246
 20
0.195313
 30
0.0
 40
0.00347222
 41
0.00347222
  0
VERTEX
  8
0
 10
0.350369
 20
0.195313
 30
0.0
 40
0.00347222
 41
0.00347222
  0
VERTEX
  8
0
 10
0.350369
 20
0.178603
 30
0.0
 40
0.00347222
 41
0.00347222
  0
VERTEX
  8
0
 10
0.283529
 20
0.178603
 30
0.0
 40
0.00347222
 41
0.00347222
  0
VERTEX
  8
0
 10
0.283529
 20
0.275987
 30
0.0
 40
0.00347222
 41
0.00347222
  0
VERTEX
  8
0
 10
0.302246
 20
0.275987
 30
0.0
 40
0.00347222
 41
0.00347222
  0
VERTEX
  8
0
 10
0.302246
 20
0.195313
 30
0.0
 40
0.00347222
 41
0.00347222
  0
SEQEND
 8
0
  0
POLYLINE
  8
0
 62
     250
 66
     1
 10
0
 20
0
 30
0.0
 70
     1
 40
0.25
 41
0.25
  0
VERTEX
  8
0
 10
0.38265
 20
0.195313
 30
0.0
 40
0.00347222
 41
0.00347222
  0
VERTEX
  8
0
 10
0.430826
 20
0.195313
 30
0.0
 40
0.00347222
 41
0.00347222
  0
VERTEX
  8
0
 10
0.430826
 20
0.178603
 30
0.0
 40
0.00347222
 41
0.00347222
  0
VERTEX
  8
0
 10
0.363932
 20
0.178603
 30
0.0
 40
0.00347222
 41
0.00347222
  0
VERTEX
  8
0
 10
0.363932
 20
0.275987
 30
0.0
 40
0.00347222
 41
0.00347222
  0
VERTEX
  8
0
 10
0.38265
 20
0.275987
 30
0.0
 40
0.00347222
 41
0.00347222
  0
VERTEX
  8
0
 10
0.38265
 20
0.195313
 30
0.0
 40
0.00347222
 41
0.00347222
  0
SEQEND
 8
0
  0
POLYLINE
  8
0
 62
     250
 66
     1
 10
0
 20
0
 30
0.0
 70
     1
 40
0.25
 41
0.25
  0
VERTEX
  8
0
 10
0.463108
 20
0.259332
 30
0.0
 40
0.00347222
 41
0.00347222
  0
VERTEX
  8
0
 10
0.463108
 20
0.235243
 30
0.0
 40
0.00347222
 41
0.00347222
  0
VERTEX
  8
0
 10
0.511231
 20
0.235243
 30
0.0
 40
0.00347222
 41
0.00347222
  0
VERTEX
  8
0
 10
0.511231
 20
0.219347
 30
0.0
 40
0.00347222
 41
0.00347222
  0
VERTEX
  8
0
 10
0.463108
 20
0.219347
 30
0.0
 40
0.00347222
 41
0.00347222
  0
VERTEX
  8
0
 10
0.463108
 20
0.195313
 30
0.0
 40
0.00347222
 41
0.00347222
  0
VERTEX
  8
0
 10
0.511231
 20
0.195313
 30
0.0
 40
0.00347222
 41
0.00347222
  0
VERTEX
  8
0
 10
0.511231
 20
0.178603
 30
0.0
 40
0.00347222
 41
0.00347222
  0
VERTEX
  8
0
 10
0.44439
 20
0.178603
 30
0.0
 40
0.00347222
 41
0.00347222
  0
VERTEX
  8
0
 10
0.44439
 20
0.275987
 30
0.0
 40
0.00347222
 41
0.00347222
  0
VERTEX
  8
0
 10
0.511231
 20
0.275987
 30
0.0
 40
0.00347222
 41
0.00347222
  0
VERTEX
  8
0
 10
0.511231
 20
0.259332
 30
0.0
 40
0.00347222
 41
0.00347222
  0
VERTEX
  8
0
 10
0.463108
 20
0.259332
 30
0.0
 40
0.00347222
 41
0.00347222
  0
SEQEND
 8
0
  0
POLYLINE
  8
0
 62
     250
 66
     1
 10
0
 20
0
 30
0.0
 70
     1
 40
0.25
 41
0.25
  0
VERTEX
  8
0
 10
0.550076
 20
0.259332
 30
0.0
 40
0.00347222
 41
0.00347222
  0
VERTEX
  8
0
 10
0.524794
 20
0.259332
 30
0.0
 40
0.00347222
 41
0.00347222
  0
VERTEX
  8
0
 10
0.524794
 20
0.275987
 30
0.0
 40
0.00347222
 41
0.00347222
  0
VERTEX
  8
0
 10
0.591689
 20
0.275987
 30
0.0
 40
0.00347222
 41
0.00347222
  0
VERTEX
  8
0
 10
0.591689
 20
0.259332
 30
0.0
 40
0.00347222
 41
0.00347222
  0
VERTEX
  8
0
 10
0.568793
 20
0.259332
 30
0.0
 40
0.00347222
 41
0.00347222
  0
VERTEX
  8
0
 10
0.568793
 20
0.178603
 30
0.0
 40
0.00347222
 41
0.00347222
  0
VERTEX
  8
0
 10
0.550076
 20
0.178603
 30
0.0
 40
0.00347222
 41
0.00347222
  0
VERTEX
  8
0
 10
0.550076
 20
0.259332
 30
0.0
 40
0.00347222
 41
0.00347222
  0
SEQEND
 8
0
  0
POLYLINE
  8
0
 62
     250
 66
     1
 10
0
 20
0
 30
0.0
 70
     1
 40
0.25
 41
0.25
  0
VERTEX
  8
0
 10
0.605197
 20
0.196126
 30
0.0
 40
0.00347222
 41
0.00347222
  0
VERTEX
  8
0
 10
0.623969
 20
0.196126
 30
0.0
 40
0.00347222
 41
0.00347222
  0
VERTEX
  8
0
 10
0.623969
 20
0.178603
 30
0.0
 40
0.00347222
 41
0.00347222
  0
VERTEX
  8
0
 10
0.605197
 20
0.178603
 30
0.0
 40
0.00347222
 41
0.00347222
  0
VERTEX
  8
0
 10
0.605197
 20
0.196126
 30
0.0
 40
0.00347222
 41
0.00347222
  0
SEQEND
 8
0
  0
POLYLINE
  8
0
 62
     250
 66
     1
 10
0
 20
0
 30
0.0
 70
     1
 40
0.25
 41
0.25
  0
VERTEX
  8
0
 10
0.697265
 20
0.259332
 30
0.0
 40
0.00347222
 41
0.00347222
  0
VERTEX
  8
0
 10
0.671983
 20
0.259332
 30
0.0
 40
0.00347222
 41
0.00347222
  0
VERTEX
  8
0
 10
0.671983
 20
0.275987
 30
0.0
 40
0.00347222
 41
0.00347222
  0
VERTEX
  8
0
 10
0.738824
 20
0.275987
 30
0.0
 40
0.00347222
 41
0.00347222
  0
VERTEX
  8
0
 10
0.738824
 20
0.259332
 30
0.0
 40
0.00347222
 41
0.00347222
  0
VERTEX
  8
0
 10
0.715983
 20
0.259332
 30
0.0
 40
0.00347222
 41
0.00347222
  0
VERTEX
  8
0
 10
0.715983
 20
0.178603
 30
0.0
 40
0.00347222
 41
0.00347222
  0
VERTEX
  8
0
 10
0.697265
 20
0.178603
 30
0.0
 40
0.00347222
 41
0.00347222
  0
VERTEX
  8
0
 10
0.697265
 20
0.259332
 30
0.0
 40
0.00347222
 41
0.00347222
  0
SEQEND
 8
0
  0
POLYLINE
  8
0
 62
     250
 66
     1
 10
0
 20
0
 30
0.0
 70
     1
 40
0.25
 41
0.25
  0
VERTEX
  8
0
 10
0.771104
 20
0.235243
 30
0.0
 40
0.00347222
 41
0.00347222
  0
VERTEX
  8
0
 10
0.801704
 20
0.235243
 30
0.0
 40
0.00347222
 41
0.00347222
  0
VERTEX
  8
0
 10
0.801704
 20
0.259332
 30
0.0
 40
0.00347222
 41
0.00347222
  0
VERTEX
  8
0
 10
0.771104
 20
0.259332
 30
0.0
 40
0.00347222
 41
0.00347222
  0
VERTEX
  8
0
 10
0.771104
 20
0.235243
 30
0.0
 40
0.00347222
 41
0.00347222
  0
SEQEND
 8
0
  0
POLYLINE
  8
0
 62
     250
 66
     1
 10
0
 20
0
 30
0.0
 70
     1
 40
0.25
 41
0.25
  0
VERTEX
  8
0
 10
0.752388
 20
0.178603
 30
0.0
 40
0.00347222
 41
0.00347222
  0
VERTEX
  8
0
 10
0.752388
 20
0.275987
 30
0.0
 40
0.00347222
 41
0.00347222
  0
VERTEX
  8
0
 10
0.819282
 20
0.275987
 30
0.0
 40
0.00347222
 41
0.00347222
  0
VERTEX
  8
0
 10
0.819282
 20
0.219401
 30
0.0
 40
0.00347222
 41
0.00347222
  0
VERTEX
  8
0
 10
0.796386
 20
0.219401
 30
0.0
 40
0.00347222
 41
0.00347222
  0
VERTEX
  8
0
 10
0.819282
 20
0.178603
 30
0.0
 40
0.00347222
 41
0.00347222
  0
VERTEX
  8
0
 10
0.801704
 20
0.178603
 30
0.0
 40
0.00347222
 41
0.00347222
  0
VERTEX
  8
0
 10
0.777669
 20
0.219401
 30
0.0
 40
0.00347222
 41
0.00347222
  0
VERTEX
  8
0
 10
0.771104
 20
0.219401
 30
0.0
 40
0.00347222
 41
0.00347222
  0
VERTEX
  8
0
 10
0.771104
 20
0.178603
 30
0.0
 40
0.00347222
 41
0.00347222
  0
VERTEX
  8
0
 10
0.752388
 20
0.178603
 30
0.0
 40
0.00347222
 41
0.00347222
  0
SEQEND
 8
0
  0
POLYLINE
  8
0
 62
     250
 66
     1
 10
0
 20
0
 30
0.0
 70
     1
 40
0.25
 41
0.25
  0
VERTEX
  8
0
 10
0.832844
 20
0.275987
 30
0.0
 40
0.00347222
 41
0.00347222
  0
VERTEX
  8
0
 10
0.851563
 20
0.275987
 30
0.0
 40
0.00347222
 41
0.00347222
  0
VERTEX
  8
0
 10
0.851563
 20
0.178603
 30
0.0
 40
0.00347222
 41
0.00347222
  0
VERTEX
  8
0
 10
0.832844
 20
0.178603
 30
0.0
 40
0.00347222
 41
0.00347222
  0
VERTEX
  8
0
 10
0.832844
 20
0.275987
 30
0.0
 40
0.00347222
 41
0.00347222
  0
SEQEND
 8
0
  0
POLYLINE
  8
0
 62
     250
 66
     1
 10
0
 20
0
 30
0.0
 70
     1
 40
0.25
 41
0.25
  0
VERTEX
  8
0
 10
0.883843
 20
0.259332
 30
0.0
 40
0.00347222
 41
0.00347222
  0
VERTEX
  8
0
 10
0.883843
 20
0.235243
 30
0.0
 40
0.00347222
 41
0.00347222
  0
VERTEX
  8
0
 10
0.931967
 20
0.235243
 30
0.0
 40
0.00347222
 41
0.00347222
  0
VERTEX
  8
0
 10
0.931967
 20
0.219347
 30
0.0
 40
0.00347222
 41
0.00347222
  0
VERTEX
  8
0
 10
0.883843
 20
0.219347
 30
0.0
 40
0.00347222
 41
0.00347222
  0
VERTEX
  8
0
 10
0.883843
 20
0.195313
 30
0.0
 40
0.00347222
 41
0.00347222
  0
VERTEX
  8
0
 10
0.931967
 20
0.195313
 30
0.0
 40
0.00347222
 41
0.00347222
  0
VERTEX
  8
0
 10
0.931967
 20
0.178603
 30
0.0
 40
0.00347222
 41
0.00347222
  0
VERTEX
  8
0
 10
0.865126
 20
0.178603
 30
0.0
 40
0.00347222
 41
0.00347222
  0
VERTEX
  8
0
 10
0.865126
 20
0.275987
 30
0.0
 40
0.00347222
 41
0.00347222
  0
VERTEX
  8
0
 10
0.931967
 20
0.275987
 30
0.0
 40
0.00347222
 41
0.00347222
  0
VERTEX
  8
0
 10
0.931967
 20
0.259332
 30
0.0
 40
0.00347222
 41
0.00347222
  0
VERTEX
  8
0
 10
0.883843
 20
0.259332
 30
0.0
 40
0.00347222
 41
0.00347222
  0
SEQEND
 8
0
  0
POLYLINE
  8
0
 62
     250
 66
     1
 10
0
 20
0
 30
0.0
 70
     1
 40
0.25
 41
0.25
  0
VERTEX
  8
0
 10
0.964247
 20
0.259332
 30
0.0
 40
0.00347222
 41
0.00347222
  0
VERTEX
  8
0
 10
0.964247
 20
0.235243
 30
0.0
 40
0.00347222
 41
0.00347222
  0
VERTEX
  8
0
 10
1.01242
 20
0.235243
 30
0.0
 40
0.00347222
 41
0.00347222
  0
VERTEX
  8
0
 10
1.01242
 20
0.219347
 30
0.0
 40
0.00347222
 41
0.00347222
  0
VERTEX
  8
0
 10
0.964247
 20
0.219347
 30
0.0
 40
0.00347222
 41
0.00347222
  0
VERTEX
  8
0
 10
0.964247
 20
0.195313
 30
0.0
 40
0.00347222
 41
0.00347222
  0
VERTEX
  8
0
 10
1.01242
 20
0.195313
 30
0.0
 40
0.00347222
 41
0.00347222
  0
VERTEX
  8
0
 10
1.01242
 20
0.178603
 30
0.0
 40
0.00347222
 41
0.00347222
  0
VERTEX
  8
0
 10
0.945529
 20
0.178603
 30
0.0
 40
0.00347222
 41
0.00347222
  0
VERTEX
  8
0
 10
0.945529
 20
0.275987
 30
0.0
 40
0.00347222
 41
0.00347222
  0
VERTEX
  8
0
 10
1.01242
 20
0.275987
 30
0.0
 40
0.00347222
 41
0.00347222
  0
VERTEX
  8
0
 10
1.01242
 20
0.259332
 30
0.0
 40
0.00347222
 41
0.00347222
  0
VERTEX
  8
0
 10
0.964247
 20
0.259332
 30
0.0
 40
0.00347222
 41
0.00347222
  0
SEQEND
 8
0
  0
ENDSEC
  0
EOF
