  0
SECTION
  2
HEADER
  9
$ACADVER
  1
AC1009
  9
$EXTMIN
 10
0.0
 20
0.0
 30
0.0
  9
$EXTMAX
 10
1000.0
 20
1000.0
 30
0.0
  9
$FILLMODE
 70
 0
  9
$SPLFRAME
 70
 1
  0
ENDSEC
  0
SECTION
  2
TABLES
  0
TABLE
  2
LAYER
 70
1
  0
LAYER
  2
0
 70
     0
 62
     7
  6
CONTINUOUS
  0
ENDTAB
  0
ENDSEC
  0
SECTION
  2
ENTITIES
  0
POLYLINE
  8
0
 62
     250
 66
     1
 10
0
 20
0
 30
0.0
 70
     1
 40
0.25
 41
0.25
  0
VERTEX
  8
0
 10
2.84885
 20
2.15875
 30
0.0
 40
0.00347222
 41
0.00347222
  0
VERTEX
  8
0
 10
2.86643
 20
2.24869
 30
0.0
 40
0.00347222
 41
0.00347222
  0
VERTEX
  8
0
 10
2.88889
 20
2.24869
 30
0.0
 40
0.00347222
 41
0.00347222
  0
VERTEX
  8
0
 10
2.86143
 20
2.13183
 30
0.0
 40
0.00347222
 41
0.00347222
  0
VERTEX
  8
0
 10
2.8341
 20
2.13183
 30
0.0
 40
0.00347222
 41
0.00347222
  0
VERTEX
  8
0
 10
2.80865
 20
2.24869
 30
0.0
 40
0.00347222
 41
0.00347222
  0
VERTEX
  8
0
 10
2.82969
 20
2.24869
 30
0.0
 40
0.00347222
 41
0.00347222
  0
VERTEX
  8
0
 10
2.84885
 20
2.15875
 30
0.0
 40
0.00347222
 41
0.00347222
  0
SEQEND
 8
0
  0
POLYLINE
  8
0
 62
     250
 66
     1
 10
0
 20
0
 30
0.0
 70
     1
 40
0.25
 41
0.25
  0
VERTEX
  8
0
 10
2.76992
 20
2.24864
 30
0.0
 40
0.00347222
 41
0.00347222
  0
VERTEX
  8
0
 10
2.79237
 20
2.24864
 30
0.0
 40
0.00347222
 41
0.00347222
  0
VERTEX
  8
0
 10
2.79237
 20
2.13178
 30
0.0
 40
0.00347222
 41
0.00347222
  0
VERTEX
  8
0
 10
2.76992
 20
2.13178
 30
0.0
 40
0.00347222
 41
0.00347222
  0
VERTEX
  8
0
 10
2.76992
 20
2.24864
 30
0.0
 40
0.00347222
 41
0.00347222
  0
SEQEND
 8
0
  0
POLYLINE
  8
0
 62
     250
 66
     1
 10
0
 20
0
 30
0.0
 70
     1
 40
0.25
 41
0.25
  0
VERTEX
  8
0
 10
2.67339
 20
2.22868
 30
0.0
 40
0.00347222
 41
0.00347222
  0
VERTEX
  8
0
 10
2.67339
 20
2.24864
 30
0.0
 40
0.00347222
 41
0.00347222
  0
VERTEX
  8
0
 10
2.75364
 20
2.24864
 30
0.0
 40
0.00347222
 41
0.00347222
  0
VERTEX
  8
0
 10
2.75364
 20
2.13178
 30
0.0
 40
0.00347222
 41
0.00347222
  0
VERTEX
  8
0
 10
2.67339
 20
2.13178
 30
0.0
 40
0.00347222
 41
0.00347222
  0
VERTEX
  8
0
 10
2.67339
 20
2.15186
 30
0.0
 40
0.00347222
 41
0.00347222
  0
VERTEX
  8
0
 10
2.73118
 20
2.15186
 30
0.0
 40
0.00347222
 41
0.00347222
  0
VERTEX
  8
0
 10
2.73118
 20
2.18072
 30
0.0
 40
0.00347222
 41
0.00347222
  0
VERTEX
  8
0
 10
2.67339
 20
2.18072
 30
0.0
 40
0.00347222
 41
0.00347222
  0
VERTEX
  8
0
 10
2.67339
 20
2.19976
 30
0.0
 40
0.00347222
 41
0.00347222
  0
VERTEX
  8
0
 10
2.73118
 20
2.19976
 30
0.0
 40
0.00347222
 41
0.00347222
  0
VERTEX
  8
0
 10
2.73118
 20
2.22868
 30
0.0
 40
0.00347222
 41
0.00347222
  0
VERTEX
  8
0
 10
2.67339
 20
2.22868
 30
0.0
 40
0.00347222
 41
0.00347222
  0
SEQEND
 8
0
  0
POLYLINE
  8
0
 62
     250
 66
     1
 10
0
 20
0
 30
0.0
 70
     1
 40
0.25
 41
0.25
  0
VERTEX
  8
0
 10
2.59799
 20
2.19976
 30
0.0
 40
0.00347222
 41
0.00347222
  0
VERTEX
  8
0
 10
2.63465
 20
2.19976
 30
0.0
 40
0.00347222
 41
0.00347222
  0
VERTEX
  8
0
 10
2.63465
 20
2.22868
 30
0.0
 40
0.00347222
 41
0.00347222
  0
VERTEX
  8
0
 10
2.59799
 20
2.22868
 30
0.0
 40
0.00347222
 41
0.00347222
  0
VERTEX
  8
0
 10
2.59799
 20
2.19976
 30
0.0
 40
0.00347222
 41
0.00347222
  0
SEQEND
 8
0
  0
POLYLINE
  8
0
 62
     250
 66
     1
 10
0
 20
0
 30
0.0
 70
     1
 40
0.25
 41
0.25
  0
VERTEX
  8
0
 10
2.63465
 20
2.13178
 30
0.0
 40
0.00347222
 41
0.00347222
  0
VERTEX
  8
0
 10
2.63465
 20
2.18072
 30
0.0
 40
0.00347222
 41
0.00347222
  0
VERTEX
  8
0
 10
2.62679
 20
2.18072
 30
0.0
 40
0.00347222
 41
0.00347222
  0
VERTEX
  8
0
 10
2.59799
 20
2.13178
 30
0.0
 40
0.00347222
 41
0.00347222
  0
VERTEX
  8
0
 10
2.57688
 20
2.13178
 30
0.0
 40
0.00347222
 41
0.00347222
  0
VERTEX
  8
0
 10
2.60433
 20
2.18072
 30
0.0
 40
0.00347222
 41
0.00347222
  0
VERTEX
  8
0
 10
2.57688
 20
2.18072
 30
0.0
 40
0.00347222
 41
0.00347222
  0
VERTEX
  8
0
 10
2.57688
 20
2.24864
 30
0.0
 40
0.00347222
 41
0.00347222
  0
VERTEX
  8
0
 10
2.65713
 20
2.24864
 30
0.0
 40
0.00347222
 41
0.00347222
  0
VERTEX
  8
0
 10
2.65713
 20
2.13178
 30
0.0
 40
0.00347222
 41
0.00347222
  0
VERTEX
  8
0
 10
2.63465
 20
2.13178
 30
0.0
 40
0.00347222
 41
0.00347222
  0
SEQEND
 8
0
  0
POLYLINE
  8
0
 62
     250
 66
     1
 10
0
 20
0
 30
0.0
 70
     1
 40
0.25
 41
0.25
  0
VERTEX
  8
0
 10
2.52468
 20
2.18072
 30
0.0
 40
0.00347222
 41
0.00347222
  0
VERTEX
  8
0
 10
2.50142
 20
2.18072
 30
0.0
 40
0.00347222
 41
0.00347222
  0
VERTEX
  8
0
 10
2.50142
 20
2.15186
 30
0.0
 40
0.00347222
 41
0.00347222
  0
VERTEX
  8
0
 10
2.53814
 20
2.15186
 30
0.0
 40
0.00347222
 41
0.00347222
  0
VERTEX
  8
0
 10
2.53814
 20
2.22868
 30
0.0
 40
0.00347222
 41
0.00347222
  0
VERTEX
  8
0
 10
2.48036
 20
2.22868
 30
0.0
 40
0.00347222
 41
0.00347222
  0
VERTEX
  8
0
 10
2.48036
 20
2.24869
 30
0.0
 40
0.00347222
 41
0.00347222
  0
VERTEX
  8
0
 10
2.5606
 20
2.24869
 30
0.0
 40
0.00347222
 41
0.00347222
  0
VERTEX
  8
0
 10
2.5606
 20
2.13183
 30
0.0
 40
0.00347222
 41
0.00347222
  0
VERTEX
  8
0
 10
2.48036
 20
2.13183
 30
0.0
 40
0.00347222
 41
0.00347222
  0
VERTEX
  8
0
 10
2.48036
 20
2.19976
 30
0.0
 40
0.00347222
 41
0.00347222
  0
VERTEX
  8
0
 10
2.52468
 20
2.19976
 30
0.0
 40
0.00347222
 41
0.00347222
  0
VERTEX
  8
0
 10
2.52468
 20
2.18072
 30
0.0
 40
0.00347222
 41
0.00347222
  0
SEQEND
 8
0
  0
POLYLINE
  8
0
 62
     250
 66
     1
 10
0
 20
0
 30
0.0
 70
     1
 40
0.25
 41
0.25
  0
VERTEX
  8
0
 10
2.38385
 20
2.22868
 30
0.0
 40
0.00347222
 41
0.00347222
  0
VERTEX
  8
0
 10
2.38385
 20
2.24864
 30
0.0
 40
0.00347222
 41
0.00347222
  0
VERTEX
  8
0
 10
2.46408
 20
2.24864
 30
0.0
 40
0.00347222
 41
0.00347222
  0
VERTEX
  8
0
 10
2.46408
 20
2.13178
 30
0.0
 40
0.00347222
 41
0.00347222
  0
VERTEX
  8
0
 10
2.38385
 20
2.13178
 30
0.0
 40
0.00347222
 41
0.00347222
  0
VERTEX
  8
0
 10
2.38385
 20
2.15186
 30
0.0
 40
0.00347222
 41
0.00347222
  0
VERTEX
  8
0
 10
2.44162
 20
2.15186
 30
0.0
 40
0.00347222
 41
0.00347222
  0
VERTEX
  8
0
 10
2.44162
 20
2.18072
 30
0.0
 40
0.00347222
 41
0.00347222
  0
VERTEX
  8
0
 10
2.38385
 20
2.18072
 30
0.0
 40
0.00347222
 41
0.00347222
  0
VERTEX
  8
0
 10
2.38385
 20
2.19976
 30
0.0
 40
0.00347222
 41
0.00347222
  0
VERTEX
  8
0
 10
2.44162
 20
2.19976
 30
0.0
 40
0.00347222
 41
0.00347222
  0
VERTEX
  8
0
 10
2.44162
 20
2.22868
 30
0.0
 40
0.00347222
 41
0.00347222
  0
VERTEX
  8
0
 10
2.38385
 20
2.22868
 30
0.0
 40
0.00347222
 41
0.00347222
  0
SEQEND
 8
0
  0
POLYLINE
  8
0
 62
     250
 66
     1
 10
0
 20
0
 30
0.0
 70
     1
 40
0.25
 41
0.25
  0
VERTEX
  8
0
 10
1.88786
 20
2.19976
 30
0.0
 40
0.00347222
 41
0.00347222
  0
VERTEX
  8
0
 10
1.92453
 20
2.19976
 30
0.0
 40
0.00347222
 41
0.00347222
  0
VERTEX
  8
0
 10
1.92453
 20
2.22862
 30
0.0
 40
0.00347222
 41
0.00347222
  0
VERTEX
  8
0
 10
1.88786
 20
2.22862
 30
0.0
 40
0.00347222
 41
0.00347222
  0
VERTEX
  8
0
 10
1.88786
 20
2.19976
 30
0.0
 40
0.00347222
 41
0.00347222
  0
SEQEND
 8
0
  0
POLYLINE
  8
0
 62
     250
 66
     1
 10
0
 20
0
 30
0.0
 70
     1
 40
0.25
 41
0.25
  0
VERTEX
  8
0
 10
1.92453
 20
2.13178
 30
0.0
 40
0.00347222
 41
0.00347222
  0
VERTEX
  8
0
 10
1.92453
 20
2.18072
 30
0.0
 40
0.00347222
 41
0.00347222
  0
VERTEX
  8
0
 10
1.91661
 20
2.18072
 30
0.0
 40
0.00347222
 41
0.00347222
  0
VERTEX
  8
0
 10
1.88786
 20
2.13178
 30
0.0
 40
0.00347222
 41
0.00347222
  0
VERTEX
  8
0
 10
1.86675
 20
2.13178
 30
0.0
 40
0.00347222
 41
0.00347222
  0
VERTEX
  8
0
 10
1.89421
 20
2.18072
 30
0.0
 40
0.00347222
 41
0.00347222
  0
VERTEX
  8
0
 10
1.86675
 20
2.18072
 30
0.0
 40
0.00347222
 41
0.00347222
  0
VERTEX
  8
0
 10
1.86675
 20
2.24864
 30
0.0
 40
0.00347222
 41
0.00347222
  0
VERTEX
  8
0
 10
1.947
 20
2.24864
 30
0.0
 40
0.00347222
 41
0.00347222
  0
VERTEX
  8
0
 10
1.947
 20
2.13178
 30
0.0
 40
0.00347222
 41
0.00347222
  0
VERTEX
  8
0
 10
1.92453
 20
2.13178
 30
0.0
 40
0.00347222
 41
0.00347222
  0
SEQEND
 8
0
  0
POLYLINE
  8
0
 62
     250
 66
     1
 10
0
 20
0
 30
0.0
 70
     1
 40
0.25
 41
0.25
  0
VERTEX
  8
0
 10
1.77024
 20
2.22862
 30
0.0
 40
0.00347222
 41
0.00347222
  0
VERTEX
  8
0
 10
1.77024
 20
2.24864
 30
0.0
 40
0.00347222
 41
0.00347222
  0
VERTEX
  8
0
 10
1.85047
 20
2.24864
 30
0.0
 40
0.00347222
 41
0.00347222
  0
VERTEX
  8
0
 10
1.85047
 20
2.13178
 30
0.0
 40
0.00347222
 41
0.00347222
  0
VERTEX
  8
0
 10
1.77024
 20
2.13178
 30
0.0
 40
0.00347222
 41
0.00347222
  0
VERTEX
  8
0
 10
1.77024
 20
2.15181
 30
0.0
 40
0.00347222
 41
0.00347222
  0
VERTEX
  8
0
 10
1.82801
 20
2.15181
 30
0.0
 40
0.00347222
 41
0.00347222
  0
VERTEX
  8
0
 10
1.82801
 20
2.18072
 30
0.0
 40
0.00347222
 41
0.00347222
  0
VERTEX
  8
0
 10
1.77024
 20
2.18072
 30
0.0
 40
0.00347222
 41
0.00347222
  0
VERTEX
  8
0
 10
1.77024
 20
2.19976
 30
0.0
 40
0.00347222
 41
0.00347222
  0
VERTEX
  8
0
 10
1.82801
 20
2.19976
 30
0.0
 40
0.00347222
 41
0.00347222
  0
VERTEX
  8
0
 10
1.82801
 20
2.22862
 30
0.0
 40
0.00347222
 41
0.00347222
  0
VERTEX
  8
0
 10
1.77024
 20
2.22862
 30
0.0
 40
0.00347222
 41
0.00347222
  0
SEQEND
 8
0
  0
POLYLINE
  8
0
 62
     250
 66
     1
 10
0
 20
0
 30
0.0
 70
     1
 40
0.25
 41
0.25
  0
VERTEX
  8
0
 10
1.7181
 20
2.18072
 30
0.0
 40
0.00347222
 41
0.00347222
  0
VERTEX
  8
0
 10
1.69476
 20
2.18072
 30
0.0
 40
0.00347222
 41
0.00347222
  0
VERTEX
  8
0
 10
1.69476
 20
2.15181
 30
0.0
 40
0.00347222
 41
0.00347222
  0
VERTEX
  8
0
 10
1.7315
 20
2.15181
 30
0.0
 40
0.00347222
 41
0.00347222
  0
VERTEX
  8
0
 10
1.7315
 20
2.22862
 30
0.0
 40
0.00347222
 41
0.00347222
  0
VERTEX
  8
0
 10
1.67372
 20
2.22862
 30
0.0
 40
0.00347222
 41
0.00347222
  0
VERTEX
  8
0
 10
1.67372
 20
2.24869
 30
0.0
 40
0.00347222
 41
0.00347222
  0
VERTEX
  8
0
 10
1.75396
 20
2.24869
 30
0.0
 40
0.00347222
 41
0.00347222
  0
VERTEX
  8
0
 10
1.75396
 20
2.13183
 30
0.0
 40
0.00347222
 41
0.00347222
  0
VERTEX
  8
0
 10
1.67372
 20
2.13183
 30
0.0
 40
0.00347222
 41
0.00347222
  0
VERTEX
  8
0
 10
1.67372
 20
2.19976
 30
0.0
 40
0.00347222
 41
0.00347222
  0
VERTEX
  8
0
 10
1.7181
 20
2.19976
 30
0.0
 40
0.00347222
 41
0.00347222
  0
VERTEX
  8
0
 10
1.7181
 20
2.18072
 30
0.0
 40
0.00347222
 41
0.00347222
  0
SEQEND
 8
0
  0
POLYLINE
  8
0
 62
     250
 66
     1
 10
0
 20
0
 30
0.0
 70
     1
 40
0.25
 41
0.25
  0
VERTEX
  8
0
 10
1.57721
 20
2.22862
 30
0.0
 40
0.00347222
 41
0.00347222
  0
VERTEX
  8
0
 10
1.57721
 20
2.24864
 30
0.0
 40
0.00347222
 41
0.00347222
  0
VERTEX
  8
0
 10
1.65744
 20
2.24864
 30
0.0
 40
0.00347222
 41
0.00347222
  0
VERTEX
  8
0
 10
1.65744
 20
2.13178
 30
0.0
 40
0.00347222
 41
0.00347222
  0
VERTEX
  8
0
 10
1.57721
 20
2.13178
 30
0.0
 40
0.00347222
 41
0.00347222
  0
VERTEX
  8
0
 10
1.57721
 20
2.15181
 30
0.0
 40
0.00347222
 41
0.00347222
  0
VERTEX
  8
0
 10
1.63499
 20
2.15181
 30
0.0
 40
0.00347222
 41
0.00347222
  0
VERTEX
  8
0
 10
1.63499
 20
2.18072
 30
0.0
 40
0.00347222
 41
0.00347222
  0
VERTEX
  8
0
 10
1.57721
 20
2.18072
 30
0.0
 40
0.00347222
 41
0.00347222
  0
VERTEX
  8
0
 10
1.57721
 20
2.19976
 30
0.0
 40
0.00347222
 41
0.00347222
  0
VERTEX
  8
0
 10
1.63499
 20
2.19976
 30
0.0
 40
0.00347222
 41
0.00347222
  0
VERTEX
  8
0
 10
1.63499
 20
2.22862
 30
0.0
 40
0.00347222
 41
0.00347222
  0
VERTEX
  8
0
 10
1.57721
 20
2.22862
 30
0.0
 40
0.00347222
 41
0.00347222
  0
SEQEND
 8
0
  0
POLYLINE
  8
0
 62
     250
 66
     1
 10
0
 20
0
 30
0.0
 70
     1
 40
0.25
 41
0.25
  0
VERTEX
  8
0
 10
1.53847
 20
2.19928
 30
0.0
 40
0.00347222
 41
0.00347222
  0
VERTEX
  8
0
 10
1.50179
 20
2.13183
 30
0.0
 40
0.00347222
 41
0.00347222
  0
VERTEX
  8
0
 10
1.48068
 20
2.13183
 30
0.0
 40
0.00347222
 41
0.00347222
  0
VERTEX
  8
0
 10
1.48068
 20
2.24864
 30
0.0
 40
0.00347222
 41
0.00347222
  0
VERTEX
  8
0
 10
1.50179
 20
2.24864
 30
0.0
 40
0.00347222
 41
0.00347222
  0
VERTEX
  8
0
 10
1.50179
 20
2.18317
 30
0.0
 40
0.00347222
 41
0.00347222
  0
VERTEX
  8
0
 10
1.53847
 20
2.24864
 30
0.0
 40
0.00347222
 41
0.00347222
  0
VERTEX
  8
0
 10
1.56093
 20
2.24864
 30
0.0
 40
0.00347222
 41
0.00347222
  0
VERTEX
  8
0
 10
1.56093
 20
2.13183
 30
0.0
 40
0.00347222
 41
0.00347222
  0
VERTEX
  8
0
 10
1.53847
 20
2.13183
 30
0.0
 40
0.00347222
 41
0.00347222
  0
VERTEX
  8
0
 10
1.53847
 20
2.19928
 30
0.0
 40
0.00347222
 41
0.00347222
  0
SEQEND
 8
0
  0
POLYLINE
  8
0
 62
     250
 66
     1
 10
0
 20
0
 30
0.0
 70
     1
 40
0.25
 41
0.25
  0
VERTEX
  8
0
 10
1.38417
 20
2.22862
 30
0.0
 40
0.00347222
 41
0.00347222
  0
VERTEX
  8
0
 10
1.38417
 20
2.24864
 30
0.0
 40
0.00347222
 41
0.00347222
  0
VERTEX
  8
0
 10
1.46442
 20
2.24864
 30
0.0
 40
0.00347222
 41
0.00347222
  0
VERTEX
  8
0
 10
1.46442
 20
2.13178
 30
0.0
 40
0.00347222
 41
0.00347222
  0
VERTEX
  8
0
 10
1.38417
 20
2.13178
 30
0.0
 40
0.00347222
 41
0.00347222
  0
VERTEX
  8
0
 10
1.38417
 20
2.15181
 30
0.0
 40
0.00347222
 41
0.00347222
  0
VERTEX
  8
0
 10
1.44194
 20
2.15181
 30
0.0
 40
0.00347222
 41
0.00347222
  0
VERTEX
  8
0
 10
1.44194
 20
2.18072
 30
0.0
 40
0.00347222
 41
0.00347222
  0
VERTEX
  8
0
 10
1.38417
 20
2.18072
 30
0.0
 40
0.00347222
 41
0.00347222
  0
VERTEX
  8
0
 10
1.38417
 20
2.19976
 30
0.0
 40
0.00347222
 41
0.00347222
  0
VERTEX
  8
0
 10
1.44194
 20
2.19976
 30
0.0
 40
0.00347222
 41
0.00347222
  0
VERTEX
  8
0
 10
1.44194
 20
2.22862
 30
0.0
 40
0.00347222
 41
0.00347222
  0
VERTEX
  8
0
 10
1.38417
 20
2.22862
 30
0.0
 40
0.00347222
 41
0.00347222
  0
SEQEND
 8
0
  0
POLYLINE
  8
0
 62
     250
 66
     1
 10
0
 20
0
 30
0.0
 70
     1
 40
0.25
 41
0.25
  0
VERTEX
  8
0
 10
1.30876
 20
2.19976
 30
0.0
 40
0.00347222
 41
0.00347222
  0
VERTEX
  8
0
 10
1.34543
 20
2.19976
 30
0.0
 40
0.00347222
 41
0.00347222
  0
VERTEX
  8
0
 10
1.34543
 20
2.22862
 30
0.0
 40
0.00347222
 41
0.00347222
  0
VERTEX
  8
0
 10
1.30876
 20
2.22862
 30
0.0
 40
0.00347222
 41
0.00347222
  0
VERTEX
  8
0
 10
1.30876
 20
2.19976
 30
0.0
 40
0.00347222
 41
0.00347222
  0
SEQEND
 8
0
  0
POLYLINE
  8
0
 62
     250
 66
     1
 10
0
 20
0
 30
0.0
 70
     1
 40
0.25
 41
0.25
  0
VERTEX
  8
0
 10
1.34543
 20
2.13178
 30
0.0
 40
0.00347222
 41
0.00347222
  0
VERTEX
  8
0
 10
1.34543
 20
2.18072
 30
0.0
 40
0.00347222
 41
0.00347222
  0
VERTEX
  8
0
 10
1.33757
 20
2.18072
 30
0.0
 40
0.00347222
 41
0.00347222
  0
VERTEX
  8
0
 10
1.30876
 20
2.13178
 30
0.0
 40
0.00347222
 41
0.00347222
  0
VERTEX
  8
0
 10
1.28765
 20
2.13178
 30
0.0
 40
0.00347222
 41
0.00347222
  0
VERTEX
  8
0
 10
1.3151
 20
2.18072
 30
0.0
 40
0.00347222
 41
0.00347222
  0
VERTEX
  8
0
 10
1.28765
 20
2.18072
 30
0.0
 40
0.00347222
 41
0.00347222
  0
VERTEX
  8
0
 10
1.28765
 20
2.24864
 30
0.0
 40
0.00347222
 41
0.00347222
  0
VERTEX
  8
0
 10
1.36789
 20
2.24864
 30
0.0
 40
0.00347222
 41
0.00347222
  0
VERTEX
  8
0
 10
1.36789
 20
2.13178
 30
0.0
 40
0.00347222
 41
0.00347222
  0
VERTEX
  8
0
 10
1.34543
 20
2.13178
 30
0.0
 40
0.00347222
 41
0.00347222
  0
SEQEND
 8
0
  0
POLYLINE
  8
0
 62
     250
 66
     1
 10
0
 20
0
 30
0.0
 70
     1
 40
0.25
 41
0.25
  0
VERTEX
  8
0
 10
1.19113
 20
2.22862
 30
0.0
 40
0.00347222
 41
0.00347222
  0
VERTEX
  8
0
 10
1.19113
 20
2.24864
 30
0.0
 40
0.00347222
 41
0.00347222
  0
VERTEX
  8
0
 10
1.27138
 20
2.24864
 30
0.0
 40
0.00347222
 41
0.00347222
  0
VERTEX
  8
0
 10
1.27138
 20
2.13178
 30
0.0
 40
0.00347222
 41
0.00347222
  0
VERTEX
  8
0
 10
1.19113
 20
2.13178
 30
0.0
 40
0.00347222
 41
0.00347222
  0
VERTEX
  8
0
 10
1.19113
 20
2.15181
 30
0.0
 40
0.00347222
 41
0.00347222
  0
VERTEX
  8
0
 10
1.24892
 20
2.15181
 30
0.0
 40
0.00347222
 41
0.00347222
  0
VERTEX
  8
0
 10
1.24892
 20
2.18072
 30
0.0
 40
0.00347222
 41
0.00347222
  0
VERTEX
  8
0
 10
1.19113
 20
2.18072
 30
0.0
 40
0.00347222
 41
0.00347222
  0
VERTEX
  8
0
 10
1.19113
 20
2.19976
 30
0.0
 40
0.00347222
 41
0.00347222
  0
VERTEX
  8
0
 10
1.24892
 20
2.19976
 30
0.0
 40
0.00347222
 41
0.00347222
  0
VERTEX
  8
0
 10
1.24892
 20
2.22862
 30
0.0
 40
0.00347222
 41
0.00347222
  0
VERTEX
  8
0
 10
1.19113
 20
2.22862
 30
0.0
 40
0.00347222
 41
0.00347222
  0
SEQEND
 8
0
  0
POLYLINE
  8
0
 62
     250
 66
     1
 10
0
 20
0
 30
0.0
 70
     1
 40
0.25
 41
0.25
  0
VERTEX
  8
0
 10
0.889865
 20
2.15186
 30
0.0
 40
0.00347222
 41
0.00347222
  0
VERTEX
  8
0
 10
0.926594
 20
2.15186
 30
0.0
 40
0.00347222
 41
0.00347222
  0
VERTEX
  8
0
 10
0.926594
 20
2.18072
 30
0.0
 40
0.00347222
 41
0.00347222
  0
VERTEX
  8
0
 10
0.889865
 20
2.18072
 30
0.0
 40
0.00347222
 41
0.00347222
  0
VERTEX
  8
0
 10
0.889865
 20
2.15186
 30
0.0
 40
0.00347222
 41
0.00347222
  0
SEQEND
 8
0
  0
POLYLINE
  8
0
 62
     250
 66
     1
 10
0
 20
0
 30
0.0
 70
     1
 40
0.25
 41
0.25
  0
VERTEX
  8
0
 10
0.889865
 20
2.19976
 30
0.0
 40
0.00347222
 41
0.00347222
  0
VERTEX
  8
0
 10
0.926594
 20
2.19976
 30
0.0
 40
0.00347222
 41
0.00347222
  0
VERTEX
  8
0
 10
0.926594
 20
2.22868
 30
0.0
 40
0.00347222
 41
0.00347222
  0
VERTEX
  8
0
 10
0.889865
 20
2.22868
 30
0.0
 40
0.00347222
 41
0.00347222
  0
VERTEX
  8
0
 10
0.889865
 20
2.19976
 30
0.0
 40
0.00347222
 41
0.00347222
  0
SEQEND
 8
0
  0
POLYLINE
  8
0
 62
     250
 66
     1
 10
0
 20
0
 30
0.0
 70
     1
 40
0.25
 41
0.25
  0
VERTEX
  8
0
 10
0.949056
 20
2.24864
 30
0.0
 40
0.00347222
 41
0.00347222
  0
VERTEX
  8
0
 10
0.949056
 20
2.13178
 30
0.0
 40
0.00347222
 41
0.00347222
  0
VERTEX
  8
0
 10
0.868815
 20
2.13178
 30
0.0
 40
0.00347222
 41
0.00347222
  0
VERTEX
  8
0
 10
0.868815
 20
2.17518
 30
0.0
 40
0.00347222
 41
0.00347222
  0
VERTEX
  8
0
 10
0.878635
 20
2.18983
 30
0.0
 40
0.00347222
 41
0.00347222
  0
VERTEX
  8
0
 10
0.868815
 20
2.20443
 30
0.0
 40
0.00347222
 41
0.00347222
  0
VERTEX
  8
0
 10
0.868815
 20
2.24864
 30
0.0
 40
0.00347222
 41
0.00347222
  0
VERTEX
  8
0
 10
0.949056
 20
2.24864
 30
0.0
 40
0.00347222
 41
0.00347222
  0
SEQEND
 8
0
  0
POLYLINE
  8
0
 62
     250
 66
     1
 10
0
 20
0
 30
0.0
 70
     1
 40
0.25
 41
0.25
  0
VERTEX
  8
0
 10
0.793349
 20
2.19976
 30
0.0
 40
0.00347222
 41
0.00347222
  0
VERTEX
  8
0
 10
0.830078
 20
2.19976
 30
0.0
 40
0.00347222
 41
0.00347222
  0
VERTEX
  8
0
 10
0.830078
 20
2.22868
 30
0.0
 40
0.00347222
 41
0.00347222
  0
VERTEX
  8
0
 10
0.793349
 20
2.22868
 30
0.0
 40
0.00347222
 41
0.00347222
  0
VERTEX
  8
0
 10
0.793349
 20
2.19976
 30
0.0
 40
0.00347222
 41
0.00347222
  0
SEQEND
 8
0
  0
POLYLINE
  8
0
 62
     250
 66
     1
 10
0
 20
0
 30
0.0
 70
     1
 40
0.25
 41
0.25
  0
VERTEX
  8
0
 10
0.793349
 20
2.13178
 30
0.0
 40
0.00347222
 41
0.00347222
  0
VERTEX
  8
0
 10
0.772299
 20
2.13178
 30
0.0
 40
0.00347222
 41
0.00347222
  0
VERTEX
  8
0
 10
0.772299
 20
2.24864
 30
0.0
 40
0.00347222
 41
0.00347222
  0
VERTEX
  8
0
 10
0.852539
 20
2.24864
 30
0.0
 40
0.00347222
 41
0.00347222
  0
VERTEX
  8
0
 10
0.852539
 20
2.13178
 30
0.0
 40
0.00347222
 41
0.00347222
  0
VERTEX
  8
0
 10
0.830078
 20
2.13178
 30
0.0
 40
0.00347222
 41
0.00347222
  0
VERTEX
  8
0
 10
0.830078
 20
2.18072
 30
0.0
 40
0.00347222
 41
0.00347222
  0
VERTEX
  8
0
 10
0.793349
 20
2.18072
 30
0.0
 40
0.00347222
 41
0.00347222
  0
VERTEX
  8
0
 10
0.793349
 20
2.13178
 30
0.0
 40
0.00347222
 41
0.00347222
  0
SEQEND
 8
0
  0
POLYLINE
  8
0
 62
     250
 66
     1
 10
0
 20
0
 30
0.0
 70
     1
 40
0.25
 41
0.25
  0
VERTEX
  8
0
 10
0.733561
 20
2.22868
 30
0.0
 40
0.00347222
 41
0.00347222
  0
VERTEX
  8
0
 10
0.675782
 20
2.22868
 30
0.0
 40
0.00347222
 41
0.00347222
  0
VERTEX
  8
0
 10
0.675782
 20
2.24864
 30
0.0
 40
0.00347222
 41
0.00347222
  0
VERTEX
  8
0
 10
0.756022
 20
2.24864
 30
0.0
 40
0.00347222
 41
0.00347222
  0
VERTEX
  8
0
 10
0.756022
 20
2.13178
 30
0.0
 40
0.00347222
 41
0.00347222
  0
VERTEX
  8
0
 10
0.675782
 20
2.13178
 30
0.0
 40
0.00347222
 41
0.00347222
  0
VERTEX
  8
0
 10
0.675782
 20
2.15186
 30
0.0
 40
0.00347222
 41
0.00347222
  0
VERTEX
  8
0
 10
0.733561
 20
2.15186
 30
0.0
 40
0.00347222
 41
0.00347222
  0
VERTEX
  8
0
 10
0.733561
 20
2.22868
 30
0.0
 40
0.00347222
 41
0.00347222
  0
SEQEND
 8
0
  0
POLYLINE
  8
0
 62
     250
 66
     1
 10
0
 20
0
 30
0.0
 70
     1
 40
0.25
 41
0.25
  0
VERTEX
  8
0
 10
0.558974
 20
2.15186
 30
0.0
 40
0.00347222
 41
0.00347222
  0
VERTEX
  8
0
 10
0.595703
 20
2.15186
 30
0.0
 40
0.00347222
 41
0.00347222
  0
VERTEX
  8
0
 10
0.595703
 20
2.18072
 30
0.0
 40
0.00347222
 41
0.00347222
  0
VERTEX
  8
0
 10
0.558974
 20
2.18072
 30
0.0
 40
0.00347222
 41
0.00347222
  0
VERTEX
  8
0
 10
0.558974
 20
2.15186
 30
0.0
 40
0.00347222
 41
0.00347222
  0
SEQEND
 8
0
  0
POLYLINE
  8
0
 62
     250
 66
     1
 10
0
 20
0
 30
0.0
 70
     1
 40
0.25
 41
0.25
  0
VERTEX
  8
0
 10
0.558974
 20
2.19976
 30
0.0
 40
0.00347222
 41
0.00347222
  0
VERTEX
  8
0
 10
0.595703
 20
2.19976
 30
0.0
 40
0.00347222
 41
0.00347222
  0
VERTEX
  8
0
 10
0.595703
 20
2.22868
 30
0.0
 40
0.00347222
 41
0.00347222
  0
VERTEX
  8
0
 10
0.558974
 20
2.22868
 30
0.0
 40
0.00347222
 41
0.00347222
  0
VERTEX
  8
0
 10
0.558974
 20
2.19976
 30
0.0
 40
0.00347222
 41
0.00347222
  0
SEQEND
 8
0
  0
POLYLINE
  8
0
 62
     250
 66
     1
 10
0
 20
0
 30
0.0
 70
     1
 40
0.25
 41
0.25
  0
VERTEX
  8
0
 10
0.618164
 20
2.24864
 30
0.0
 40
0.00347222
 41
0.00347222
  0
VERTEX
  8
0
 10
0.618164
 20
2.13178
 30
0.0
 40
0.00347222
 41
0.00347222
  0
VERTEX
  8
0
 10
0.537924
 20
2.13178
 30
0.0
 40
0.00347222
 41
0.00347222
  0
VERTEX
  8
0
 10
0.537924
 20
2.17518
 30
0.0
 40
0.00347222
 41
0.00347222
  0
VERTEX
  8
0
 10
0.547743
 20
2.18983
 30
0.0
 40
0.00347222
 41
0.00347222
  0
VERTEX
  8
0
 10
0.537924
 20
2.20443
 30
0.0
 40
0.00347222
 41
0.00347222
  0
VERTEX
  8
0
 10
0.537924
 20
2.24864
 30
0.0
 40
0.00347222
 41
0.00347222
  0
VERTEX
  8
0
 10
0.618164
 20
2.24864
 30
0.0
 40
0.00347222
 41
0.00347222
  0
SEQEND
 8
0
  0
POLYLINE
  8
0
 62
     250
 66
     1
 10
0
 20
0
 30
0.0
 70
     1
 40
0.25
 41
0.25
  0
VERTEX
  8
0
 10
0.462457
 20
2.19976
 30
0.0
 40
0.00347222
 41
0.00347222
  0
VERTEX
  8
0
 10
0.499186
 20
2.19976
 30
0.0
 40
0.00347222
 41
0.00347222
  0
VERTEX
  8
0
 10
0.499186
 20
2.22868
 30
0.0
 40
0.00347222
 41
0.00347222
  0
VERTEX
  8
0
 10
0.462457
 20
2.22868
 30
0.0
 40
0.00347222
 41
0.00347222
  0
VERTEX
  8
0
 10
0.462457
 20
2.19976
 30
0.0
 40
0.00347222
 41
0.00347222
  0
SEQEND
 8
0
  0
POLYLINE
  8
0
 62
     250
 66
     1
 10
0
 20
0
 30
0.0
 70
     1
 40
0.25
 41
0.25
  0
VERTEX
  8
0
 10
0.499186
 20
2.13178
 30
0.0
 40
0.00347222
 41
0.00347222
  0
VERTEX
  8
0
 10
0.499186
 20
2.18072
 30
0.0
 40
0.00347222
 41
0.00347222
  0
VERTEX
  8
0
 10
0.491265
 20
2.18072
 30
0.0
 40
0.00347222
 41
0.00347222
  0
VERTEX
  8
0
 10
0.462457
 20
2.13178
 30
0.0
 40
0.00347222
 41
0.00347222
  0
VERTEX
  8
0
 10
0.441407
 20
2.13178
 30
0.0
 40
0.00347222
 41
0.00347222
  0
VERTEX
  8
0
 10
0.468804
 20
2.18072
 30
0.0
 40
0.00347222
 41
0.00347222
  0
VERTEX
  8
0
 10
0.441407
 20
2.18072
 30
0.0
 40
0.00347222
 41
0.00347222
  0
VERTEX
  8
0
 10
0.441407
 20
2.24864
 30
0.0
 40
0.00347222
 41
0.00347222
  0
VERTEX
  8
0
 10
0.521647
 20
2.24864
 30
0.0
 40
0.00347222
 41
0.00347222
  0
VERTEX
  8
0
 10
0.521647
 20
2.13178
 30
0.0
 40
0.00347222
 41
0.00347222
  0
VERTEX
  8
0
 10
0.499186
 20
2.13178
 30
0.0
 40
0.00347222
 41
0.00347222
  0
SEQEND
 8
0
  0
POLYLINE
  8
0
 62
     250
 66
     1
 10
0
 20
0
 30
0.0
 70
     1
 40
0.25
 41
0.25
  0
VERTEX
  8
0
 10
0.36594
 20
2.15186
 30
0.0
 40
0.00347222
 41
0.00347222
  0
VERTEX
  8
0
 10
0.402669
 20
2.15186
 30
0.0
 40
0.00347222
 41
0.00347222
  0
VERTEX
  8
0
 10
0.402669
 20
2.22868
 30
0.0
 40
0.00347222
 41
0.00347222
  0
VERTEX
  8
0
 10
0.36594
 20
2.22868
 30
0.0
 40
0.00347222
 41
0.00347222
  0
VERTEX
  8
0
 10
0.36594
 20
2.15186
 30
0.0
 40
0.00347222
 41
0.00347222
  0
SEQEND
 8
0
  0
POLYLINE
  8
0
 62
     250
 66
     1
 10
0
 20
0
 30
0.0
 70
     1
 40
0.25
 41
0.25
  0
VERTEX
  8
0
 10
0.425131
 20
2.13178
 30
0.0
 40
0.00347222
 41
0.00347222
  0
VERTEX
  8
0
 10
0.344889
 20
2.13178
 30
0.0
 40
0.00347222
 41
0.00347222
  0
VERTEX
  8
0
 10
0.344889
 20
2.24864
 30
0.0
 40
0.00347222
 41
0.00347222
  0
VERTEX
  8
0
 10
0.425131
 20
2.24864
 30
0.0
 40
0.00347222
 41
0.00347222
  0
VERTEX
  8
0
 10
0.425131
 20
2.13178
 30
0.0
 40
0.00347222
 41
0.00347222
  0
SEQEND
 8
0
  0
POLYLINE
  8
0
 62
     250
 66
     1
 10
0
 20
0
 30
0.0
 70
     1
 40
0.25
 41
0.25
  0
VERTEX
  8
0
 10
0.248372
 20
2.24869
 30
0.0
 40
0.00347222
 41
0.00347222
  0
VERTEX
  8
0
 10
0.269422
 20
2.24869
 30
0.0
 40
0.00347222
 41
0.00347222
  0
VERTEX
  8
0
 10
0.287978
 20
2.21153
 30
0.0
 40
0.00347222
 41
0.00347222
  0
VERTEX
  8
0
 10
0.306153
 20
2.24869
 30
0.0
 40
0.00347222
 41
0.00347222
  0
VERTEX
  8
0
 10
0.328614
 20
2.24869
 30
0.0
 40
0.00347222
 41
0.00347222
  0
VERTEX
  8
0
 10
0.300293
 20
2.19026
 30
0.0
 40
0.00347222
 41
0.00347222
  0
VERTEX
  8
0
 10
0.300293
 20
2.13183
 30
0.0
 40
0.00347222
 41
0.00347222
  0
VERTEX
  8
0
 10
0.277832
 20
2.13183
 30
0.0
 40
0.00347222
 41
0.00347222
  0
VERTEX
  8
0
 10
0.277832
 20
2.19026
 30
0.0
 40
0.00347222
 41
0.00347222
  0
VERTEX
  8
0
 10
0.248372
 20
2.24869
 30
0.0
 40
0.00347222
 41
0.00347222
  0
SEQEND
 8
0
  0
POLYLINE
  8
0
 62
     250
 66
     1
 10
0
 20
0
 30
0.0
 70
     1
 40
0.25
 41
0.25
  0
VERTEX
  8
0
 10
0.151856
 20
2.22868
 30
0.0
 40
0.00347222
 41
0.00347222
  0
VERTEX
  8
0
 10
0.151856
 20
2.24864
 30
0.0
 40
0.00347222
 41
0.00347222
  0
VERTEX
  8
0
 10
0.232096
 20
2.24864
 30
0.0
 40
0.00347222
 41
0.00347222
  0
VERTEX
  8
0
 10
0.232096
 20
2.13178
 30
0.0
 40
0.00347222
 41
0.00347222
  0
VERTEX
  8
0
 10
0.151856
 20
2.13178
 30
0.0
 40
0.00347222
 41
0.00347222
  0
VERTEX
  8
0
 10
0.151856
 20
2.15186
 30
0.0
 40
0.00347222
 41
0.00347222
  0
VERTEX
  8
0
 10
0.209636
 20
2.15186
 30
0.0
 40
0.00347222
 41
0.00347222
  0
VERTEX
  8
0
 10
0.209636
 20
2.18072
 30
0.0
 40
0.00347222
 41
0.00347222
  0
VERTEX
  8
0
 10
0.151856
 20
2.18072
 30
0.0
 40
0.00347222
 41
0.00347222
  0
VERTEX
  8
0
 10
0.151856
 20
2.19976
 30
0.0
 40
0.00347222
 41
0.00347222
  0
VERTEX
  8
0
 10
0.209636
 20
2.19976
 30
0.0
 40
0.00347222
 41
0.00347222
  0
VERTEX
  8
0
 10
0.209636
 20
2.22868
 30
0.0
 40
0.00347222
 41
0.00347222
  0
VERTEX
  8
0
 10
0.151856
 20
2.22868
 30
0.0
 40
0.00347222
 41
0.00347222
  0
SEQEND
 8
0
  0
POLYLINE
  8
0
 62
     250
 66
     1
 10
0
 20
0
 30
0.0
 70
     1
 40
0.25
 41
0.25
  0
VERTEX
  8
0
 10
2.94521
 20
1.20823
 30
0.0
 40
0.00347222
 41
0.00347222
  0
VERTEX
  8
0
 10
2.98193
 20
1.20823
 30
0.0
 40
0.00347222
 41
0.00347222
  0
VERTEX
  8
0
 10
2.98193
 20
1.23714
 30
0.0
 40
0.00347222
 41
0.00347222
  0
VERTEX
  8
0
 10
2.94521
 20
1.23714
 30
0.0
 40
0.00347222
 41
0.00347222
  0
VERTEX
  8
0
 10
2.94521
 20
1.20823
 30
0.0
 40
0.00347222
 41
0.00347222
  0
SEQEND
 8
0
  0
POLYLINE
  8
0
 62
     250
 66
     1
 10
0
 20
0
 30
0.0
 70
     1
 40
0.25
 41
0.25
  0
VERTEX
  8
0
 10
2.98188
 20
1.18918
 30
0.0
 40
0.00347222
 41
0.00347222
  0
VERTEX
  8
0
 10
2.9241
 20
1.18918
 30
0.0
 40
0.00347222
 41
0.00347222
  0
VERTEX
  8
0
 10
2.9241
 20
1.25716
 30
0.0
 40
0.00347222
 41
0.00347222
  0
VERTEX
  8
0
 10
3.00435
 20
1.25716
 30
0.0
 40
0.00347222
 41
0.00347222
  0
VERTEX
  8
0
 10
3.00435
 20
1.1403
 30
0.0
 40
0.00347222
 41
0.00347222
  0
VERTEX
  8
0
 10
2.98188
 20
1.1403
 30
0.0
 40
0.00347222
 41
0.00347222
  0
VERTEX
  8
0
 10
2.98188
 20
1.18918
 30
0.0
 40
0.00347222
 41
0.00347222
  0
SEQEND
 8
0
  0
POLYLINE
  8
0
 62
     250
 66
     1
 10
0
 20
0
 30
0.0
 70
     1
 40
0.25
 41
0.25
  0
VERTEX
  8
0
 10
2.84868
 20
1.20823
 30
0.0
 40
0.00347222
 41
0.00347222
  0
VERTEX
  8
0
 10
2.88536
 20
1.20823
 30
0.0
 40
0.00347222
 41
0.00347222
  0
VERTEX
  8
0
 10
2.88536
 20
1.23714
 30
0.0
 40
0.00347222
 41
0.00347222
  0
VERTEX
  8
0
 10
2.84868
 20
1.23714
 30
0.0
 40
0.00347222
 41
0.00347222
  0
VERTEX
  8
0
 10
2.84868
 20
1.20823
 30
0.0
 40
0.00347222
 41
0.00347222
  0
SEQEND
 8
0
  0
POLYLINE
  8
0
 62
     250
 66
     1
 10
0
 20
0
 30
0.0
 70
     1
 40
0.25
 41
0.25
  0
VERTEX
  8
0
 10
2.84868
 20
1.1403
 30
0.0
 40
0.00347222
 41
0.00347222
  0
VERTEX
  8
0
 10
2.82764
 20
1.1403
 30
0.0
 40
0.00347222
 41
0.00347222
  0
VERTEX
  8
0
 10
2.82764
 20
1.25716
 30
0.0
 40
0.00347222
 41
0.00347222
  0
VERTEX
  8
0
 10
2.90782
 20
1.25716
 30
0.0
 40
0.00347222
 41
0.00347222
  0
VERTEX
  8
0
 10
2.90782
 20
1.1403
 30
0.0
 40
0.00347222
 41
0.00347222
  0
VERTEX
  8
0
 10
2.88536
 20
1.1403
 30
0.0
 40
0.00347222
 41
0.00347222
  0
VERTEX
  8
0
 10
2.88536
 20
1.18918
 30
0.0
 40
0.00347222
 41
0.00347222
  0
VERTEX
  8
0
 10
2.84868
 20
1.18918
 30
0.0
 40
0.00347222
 41
0.00347222
  0
VERTEX
  8
0
 10
2.84868
 20
1.1403
 30
0.0
 40
0.00347222
 41
0.00347222
  0
SEQEND
 8
0
  0
POLYLINE
  8
0
 62
     250
 66
     1
 10
0
 20
0
 30
0.0
 70
     1
 40
0.25
 41
0.25
  0
VERTEX
  8
0
 10
2.7889
 20
1.25716
 30
0.0
 40
0.00347222
 41
0.00347222
  0
VERTEX
  8
0
 10
2.81131
 20
1.25716
 30
0.0
 40
0.00347222
 41
0.00347222
  0
VERTEX
  8
0
 10
2.81131
 20
1.1403
 30
0.0
 40
0.00347222
 41
0.00347222
  0
VERTEX
  8
0
 10
2.7889
 20
1.1403
 30
0.0
 40
0.00347222
 41
0.00347222
  0
VERTEX
  8
0
 10
2.7889
 20
1.25716
 30
0.0
 40
0.00347222
 41
0.00347222
  0
SEQEND
 8
0
  0
POLYLINE
  8
0
 62
     250
 66
     1
 10
0
 20
0
 30
0.0
 70
     1
 40
0.25
 41
0.25
  0
VERTEX
  8
0
 10
2.75017
 20
1.25716
 30
0.0
 40
0.00347222
 41
0.00347222
  0
VERTEX
  8
0
 10
2.77257
 20
1.25716
 30
0.0
 40
0.00347222
 41
0.00347222
  0
VERTEX
  8
0
 10
2.77257
 20
1.1403
 30
0.0
 40
0.00347222
 41
0.00347222
  0
VERTEX
  8
0
 10
2.69239
 20
1.1403
 30
0.0
 40
0.00347222
 41
0.00347222
  0
VERTEX
  8
0
 10
2.69239
 20
1.16032
 30
0.0
 40
0.00347222
 41
0.00347222
  0
VERTEX
  8
0
 10
2.75017
 20
1.16032
 30
0.0
 40
0.00347222
 41
0.00347222
  0
VERTEX
  8
0
 10
2.75017
 20
1.25716
 30
0.0
 40
0.00347222
 41
0.00347222
  0
SEQEND
 8
0
  0
POLYLINE
  8
0
 62
     250
 66
     1
 10
0
 20
0
 30
0.0
 70
     1
 40
0.25
 41
0.25
  0
VERTEX
  8
0
 10
2.6536
 20
1.25716
 30
0.0
 40
0.00347222
 41
0.00347222
  0
VERTEX
  8
0
 10
2.67606
 20
1.25716
 30
0.0
 40
0.00347222
 41
0.00347222
  0
VERTEX
  8
0
 10
2.67606
 20
1.1403
 30
0.0
 40
0.00347222
 41
0.00347222
  0
VERTEX
  8
0
 10
2.59586
 20
1.1403
 30
0.0
 40
0.00347222
 41
0.00347222
  0
VERTEX
  8
0
 10
2.59586
 20
1.16032
 30
0.0
 40
0.00347222
 41
0.00347222
  0
VERTEX
  8
0
 10
2.6536
 20
1.16032
 30
0.0
 40
0.00347222
 41
0.00347222
  0
VERTEX
  8
0
 10
2.6536
 20
1.25716
 30
0.0
 40
0.00347222
 41
0.00347222
  0
SEQEND
 8
0
  0
POLYLINE
  8
0
 62
     250
 66
     1
 10
0
 20
0
 30
0.0
 70
     1
 40
0.25
 41
0.25
  0
VERTEX
  8
0
 10
2.49935
 20
1.23714
 30
0.0
 40
0.00347222
 41
0.00347222
  0
VERTEX
  8
0
 10
2.49935
 20
1.25716
 30
0.0
 40
0.00347222
 41
0.00347222
  0
VERTEX
  8
0
 10
2.57954
 20
1.25716
 30
0.0
 40
0.00347222
 41
0.00347222
  0
VERTEX
  8
0
 10
2.57954
 20
1.1403
 30
0.0
 40
0.00347222
 41
0.00347222
  0
VERTEX
  8
0
 10
2.49935
 20
1.1403
 30
0.0
 40
0.00347222
 41
0.00347222
  0
VERTEX
  8
0
 10
2.49935
 20
1.16032
 30
0.0
 40
0.00347222
 41
0.00347222
  0
VERTEX
  8
0
 10
2.55707
 20
1.16032
 30
0.0
 40
0.00347222
 41
0.00347222
  0
VERTEX
  8
0
 10
2.55707
 20
1.18918
 30
0.0
 40
0.00347222
 41
0.00347222
  0
VERTEX
  8
0
 10
2.49935
 20
1.18918
 30
0.0
 40
0.00347222
 41
0.00347222
  0
VERTEX
  8
0
 10
2.49935
 20
1.20823
 30
0.0
 40
0.00347222
 41
0.00347222
  0
VERTEX
  8
0
 10
2.55707
 20
1.20823
 30
0.0
 40
0.00347222
 41
0.00347222
  0
VERTEX
  8
0
 10
2.55707
 20
1.23714
 30
0.0
 40
0.00347222
 41
0.00347222
  0
VERTEX
  8
0
 10
2.49935
 20
1.23714
 30
0.0
 40
0.00347222
 41
0.00347222
  0
SEQEND
 8
0
  0
POLYLINE
  8
0
 62
     250
 66
     1
 10
0
 20
0
 30
0.0
 70
     1
 40
0.25
 41
0.25
  0
VERTEX
  8
0
 10
2.45269
 20
1.1403
 30
0.0
 40
0.00347222
 41
0.00347222
  0
VERTEX
  8
0
 10
2.43024
 20
1.1403
 30
0.0
 40
0.00347222
 41
0.00347222
  0
VERTEX
  8
0
 10
2.43024
 20
1.23714
 30
0.0
 40
0.00347222
 41
0.00347222
  0
VERTEX
  8
0
 10
2.40278
 20
1.23714
 30
0.0
 40
0.00347222
 41
0.00347222
  0
VERTEX
  8
0
 10
2.40278
 20
1.25716
 30
0.0
 40
0.00347222
 41
0.00347222
  0
VERTEX
  8
0
 10
2.48307
 20
1.25716
 30
0.0
 40
0.00347222
 41
0.00347222
  0
VERTEX
  8
0
 10
2.48307
 20
1.23714
 30
0.0
 40
0.00347222
 41
0.00347222
  0
VERTEX
  8
0
 10
2.45269
 20
1.23714
 30
0.0
 40
0.00347222
 41
0.00347222
  0
VERTEX
  8
0
 10
2.45269
 20
1.1403
 30
0.0
 40
0.00347222
 41
0.00347222
  0
SEQEND
 8
0
  0
POLYLINE
  8
0
 62
     250
 66
     1
 10
0
 20
0
 30
0.0
 70
     1
 40
0.25
 41
0.25
  0
VERTEX
  8
0
 10
2.35618
 20
1.1403
 30
0.0
 40
0.00347222
 41
0.00347222
  0
VERTEX
  8
0
 10
2.33371
 20
1.1403
 30
0.0
 40
0.00347222
 41
0.00347222
  0
VERTEX
  8
0
 10
2.33371
 20
1.23714
 30
0.0
 40
0.00347222
 41
0.00347222
  0
VERTEX
  8
0
 10
2.30626
 20
1.23714
 30
0.0
 40
0.00347222
 41
0.00347222
  0
VERTEX
  8
0
 10
2.30626
 20
1.25716
 30
0.0
 40
0.00347222
 41
0.00347222
  0
VERTEX
  8
0
 10
2.38656
 20
1.25716
 30
0.0
 40
0.00347222
 41
0.00347222
  0
VERTEX
  8
0
 10
2.38656
 20
1.23714
 30
0.0
 40
0.00347222
 41
0.00347222
  0
VERTEX
  8
0
 10
2.35618
 20
1.23714
 30
0.0
 40
0.00347222
 41
0.00347222
  0
VERTEX
  8
0
 10
2.35618
 20
1.1403
 30
0.0
 40
0.00347222
 41
0.00347222
  0
SEQEND
 8
0
  0
POLYLINE
  8
0
 62
     250
 66
     1
 10
0
 20
0
 30
0.0
 70
     1
 40
0.25
 41
0.25
  0
VERTEX
  8
0
 10
2.20975
 20
1.23714
 30
0.0
 40
0.00347222
 41
0.00347222
  0
VERTEX
  8
0
 10
2.20975
 20
1.25716
 30
0.0
 40
0.00347222
 41
0.00347222
  0
VERTEX
  8
0
 10
2.28999
 20
1.25716
 30
0.0
 40
0.00347222
 41
0.00347222
  0
VERTEX
  8
0
 10
2.28999
 20
1.1403
 30
0.0
 40
0.00347222
 41
0.00347222
  0
VERTEX
  8
0
 10
2.20975
 20
1.1403
 30
0.0
 40
0.00347222
 41
0.00347222
  0
VERTEX
  8
0
 10
2.20975
 20
1.16032
 30
0.0
 40
0.00347222
 41
0.00347222
  0
VERTEX
  8
0
 10
2.26753
 20
1.16032
 30
0.0
 40
0.00347222
 41
0.00347222
  0
VERTEX
  8
0
 10
2.26753
 20
1.18918
 30
0.0
 40
0.00347222
 41
0.00347222
  0
VERTEX
  8
0
 10
2.20975
 20
1.18918
 30
0.0
 40
0.00347222
 41
0.00347222
  0
VERTEX
  8
0
 10
2.20975
 20
1.20823
 30
0.0
 40
0.00347222
 41
0.00347222
  0
VERTEX
  8
0
 10
2.26753
 20
1.20823
 30
0.0
 40
0.00347222
 41
0.00347222
  0
VERTEX
  8
0
 10
2.26753
 20
1.23714
 30
0.0
 40
0.00347222
 41
0.00347222
  0
VERTEX
  8
0
 10
2.20975
 20
1.23714
 30
0.0
 40
0.00347222
 41
0.00347222
  0
SEQEND
 8
0
  0
POLYLINE
  8
0
 62
     250
 66
     1
 10
0
 20
0
 30
0.0
 70
     1
 40
0.25
 41
0.25
  0
VERTEX
  8
0
 10
1.82764
 20
1.16032
 30
0.0
 40
0.00347222
 41
0.00347222
  0
VERTEX
  8
0
 10
1.86431
 20
1.16032
 30
0.0
 40
0.00347222
 41
0.00347222
  0
VERTEX
  8
0
 10
1.86431
 20
1.18918
 30
0.0
 40
0.00347222
 41
0.00347222
  0
VERTEX
  8
0
 10
1.82764
 20
1.18918
 30
0.0
 40
0.00347222
 41
0.00347222
  0
VERTEX
  8
0
 10
1.82764
 20
1.16032
 30
0.0
 40
0.00347222
 41
0.00347222
  0
SEQEND
 8
0
  0
POLYLINE
  8
0
 62
     250
 66
     1
 10
0
 20
0
 30
0.0
 70
     1
 40
0.25
 41
0.25
  0
VERTEX
  8
0
 10
1.82764
 20
1.20823
 30
0.0
 40
0.00347222
 41
0.00347222
  0
VERTEX
  8
0
 10
1.86431
 20
1.20823
 30
0.0
 40
0.00347222
 41
0.00347222
  0
VERTEX
  8
0
 10
1.86431
 20
1.23714
 30
0.0
 40
0.00347222
 41
0.00347222
  0
VERTEX
  8
0
 10
1.82764
 20
1.23714
 30
0.0
 40
0.00347222
 41
0.00347222
  0
VERTEX
  8
0
 10
1.82764
 20
1.20823
 30
0.0
 40
0.00347222
 41
0.00347222
  0
SEQEND
 8
0
  0
POLYLINE
  8
0
 62
     250
 66
     1
 10
0
 20
0
 30
0.0
 70
     1
 40
0.25
 41
0.25
  0
VERTEX
  8
0
 10
1.88678
 20
1.25716
 30
0.0
 40
0.00347222
 41
0.00347222
  0
VERTEX
  8
0
 10
1.88678
 20
1.1403
 30
0.0
 40
0.00347222
 41
0.00347222
  0
VERTEX
  8
0
 10
1.80653
 20
1.1403
 30
0.0
 40
0.00347222
 41
0.00347222
  0
VERTEX
  8
0
 10
1.80653
 20
1.18365
 30
0.0
 40
0.00347222
 41
0.00347222
  0
VERTEX
  8
0
 10
1.81635
 20
1.1983
 30
0.0
 40
0.00347222
 41
0.00347222
  0
VERTEX
  8
0
 10
1.80653
 20
1.21289
 30
0.0
 40
0.00347222
 41
0.00347222
  0
VERTEX
  8
0
 10
1.80653
 20
1.25716
 30
0.0
 40
0.00347222
 41
0.00347222
  0
VERTEX
  8
0
 10
1.88678
 20
1.25716
 30
0.0
 40
0.00347222
 41
0.00347222
  0
SEQEND
 8
0
  0
POLYLINE
  8
0
 62
     250
 66
     1
 10
0
 20
0
 30
0.0
 70
     1
 40
0.25
 41
0.25
  0
VERTEX
  8
0
 10
1.73112
 20
1.16032
 30
0.0
 40
0.00347222
 41
0.00347222
  0
VERTEX
  8
0
 10
1.76779
 20
1.16032
 30
0.0
 40
0.00347222
 41
0.00347222
  0
VERTEX
  8
0
 10
1.76779
 20
1.23714
 30
0.0
 40
0.00347222
 41
0.00347222
  0
VERTEX
  8
0
 10
1.73112
 20
1.23714
 30
0.0
 40
0.00347222
 41
0.00347222
  0
VERTEX
  8
0
 10
1.73112
 20
1.16032
 30
0.0
 40
0.00347222
 41
0.00347222
  0
SEQEND
 8
0
  0
POLYLINE
  8
0
 62
     250
 66
     1
 10
0
 20
0
 30
0.0
 70
     1
 40
0.25
 41
0.25
  0
VERTEX
  8
0
 10
1.79025
 20
1.1403
 30
0.0
 40
0.00347222
 41
0.00347222
  0
VERTEX
  8
0
 10
1.71001
 20
1.1403
 30
0.0
 40
0.00347222
 41
0.00347222
  0
VERTEX
  8
0
 10
1.71001
 20
1.25716
 30
0.0
 40
0.00347222
 41
0.00347222
  0
VERTEX
  8
0
 10
1.79025
 20
1.25716
 30
0.0
 40
0.00347222
 41
0.00347222
  0
VERTEX
  8
0
 10
1.79025
 20
1.1403
 30
0.0
 40
0.00347222
 41
0.00347222
  0
SEQEND
 8
0
  0
POLYLINE
  8
0
 62
     250
 66
     1
 10
0
 20
0
 30
0.0
 70
     1
 40
0.25
 41
0.25
  0
VERTEX
  8
0
 10
1.6346
 20
1.16032
 30
0.0
 40
0.00347222
 41
0.00347222
  0
VERTEX
  8
0
 10
1.67128
 20
1.16032
 30
0.0
 40
0.00347222
 41
0.00347222
  0
VERTEX
  8
0
 10
1.67128
 20
1.25716
 30
0.0
 40
0.00347222
 41
0.00347222
  0
VERTEX
  8
0
 10
1.69374
 20
1.25716
 30
0.0
 40
0.00347222
 41
0.00347222
  0
VERTEX
  8
0
 10
1.69374
 20
1.1403
 30
0.0
 40
0.00347222
 41
0.00347222
  0
VERTEX
  8
0
 10
1.6135
 20
1.1403
 30
0.0
 40
0.00347222
 41
0.00347222
  0
VERTEX
  8
0
 10
1.6135
 20
1.25716
 30
0.0
 40
0.00347222
 41
0.00347222
  0
VERTEX
  8
0
 10
1.6346
 20
1.25716
 30
0.0
 40
0.00347222
 41
0.00347222
  0
VERTEX
  8
0
 10
1.6346
 20
1.16032
 30
0.0
 40
0.00347222
 41
0.00347222
  0
SEQEND
 8
0
  0
POLYLINE
  8
0
 62
     250
 66
     1
 10
0
 20
0
 30
0.0
 70
     1
 40
0.25
 41
0.25
  0
VERTEX
  8
0
 10
1.57476
 20
1.23714
 30
0.0
 40
0.00347222
 41
0.00347222
  0
VERTEX
  8
0
 10
1.51699
 20
1.23714
 30
0.0
 40
0.00347222
 41
0.00347222
  0
VERTEX
  8
0
 10
1.51699
 20
1.25716
 30
0.0
 40
0.00347222
 41
0.00347222
  0
VERTEX
  8
0
 10
1.59722
 20
1.25716
 30
0.0
 40
0.00347222
 41
0.00347222
  0
VERTEX
  8
0
 10
1.59722
 20
1.1403
 30
0.0
 40
0.00347222
 41
0.00347222
  0
VERTEX
  8
0
 10
1.51699
 20
1.1403
 30
0.0
 40
0.00347222
 41
0.00347222
  0
VERTEX
  8
0
 10
1.51699
 20
1.16032
 30
0.0
 40
0.00347222
 41
0.00347222
  0
VERTEX
  8
0
 10
1.57476
 20
1.16032
 30
0.0
 40
0.00347222
 41
0.00347222
  0
VERTEX
  8
0
 10
1.57476
 20
1.23714
 30
0.0
 40
0.00347222
 41
0.00347222
  0
SEQEND
 8
0
  0
POLYLINE
  8
0
 62
     250
 66
     1
 10
0
 20
0
 30
0.0
 70
     1
 40
0.25
 41
0.25
  0
VERTEX
  8
0
 10
1.47825
 20
1.18918
 30
0.0
 40
0.00347222
 41
0.00347222
  0
VERTEX
  8
0
 10
1.44151
 20
1.18918
 30
0.0
 40
0.00347222
 41
0.00347222
  0
VERTEX
  8
0
 10
1.44151
 20
1.1403
 30
0.0
 40
0.00347222
 41
0.00347222
  0
VERTEX
  8
0
 10
1.42046
 20
1.1403
 30
0.0
 40
0.00347222
 41
0.00347222
  0
VERTEX
  8
0
 10
1.42046
 20
1.25716
 30
0.0
 40
0.00347222
 41
0.00347222
  0
VERTEX
  8
0
 10
1.44151
 20
1.25716
 30
0.0
 40
0.00347222
 41
0.00347222
  0
VERTEX
  8
0
 10
1.44151
 20
1.20823
 30
0.0
 40
0.00347222
 41
0.00347222
  0
VERTEX
  8
0
 10
1.47825
 20
1.20823
 30
0.0
 40
0.00347222
 41
0.00347222
  0
VERTEX
  8
0
 10
1.47825
 20
1.25716
 30
0.0
 40
0.00347222
 41
0.00347222
  0
VERTEX
  8
0
 10
1.50071
 20
1.25716
 30
0.0
 40
0.00347222
 41
0.00347222
  0
VERTEX
  8
0
 10
1.50071
 20
1.1403
 30
0.0
 40
0.00347222
 41
0.00347222
  0
VERTEX
  8
0
 10
1.47825
 20
1.1403
 30
0.0
 40
0.00347222
 41
0.00347222
  0
VERTEX
  8
0
 10
1.47825
 20
1.18918
 30
0.0
 40
0.00347222
 41
0.00347222
  0
SEQEND
 8
0
  0
POLYLINE
  8
0
 62
     250
 66
     1
 10
0
 20
0
 30
0.0
 70
     1
 40
0.25
 41
0.25
  0
VERTEX
  8
0
 10
1.345
 20
1.16032
 30
0.0
 40
0.00347222
 41
0.00347222
  0
VERTEX
  8
0
 10
1.38173
 20
1.16032
 30
0.0
 40
0.00347222
 41
0.00347222
  0
VERTEX
  8
0
 10
1.38173
 20
1.23714
 30
0.0
 40
0.00347222
 41
0.00347222
  0
VERTEX
  8
0
 10
1.345
 20
1.23714
 30
0.0
 40
0.00347222
 41
0.00347222
  0
VERTEX
  8
0
 10
1.345
 20
1.16032
 30
0.0
 40
0.00347222
 41
0.00347222
  0
SEQEND
 8
0
  0
POLYLINE
  8
0
 62
     250
 66
     1
 10
0
 20
0
 30
0.0
 70
     1
 40
0.25
 41
0.25
  0
VERTEX
  8
0
 10
1.40419
 20
1.1403
 30
0.0
 40
0.00347222
 41
0.00347222
  0
VERTEX
  8
0
 10
1.32395
 20
1.1403
 30
0.0
 40
0.00347222
 41
0.00347222
  0
VERTEX
  8
0
 10
1.32395
 20
1.25716
 30
0.0
 40
0.00347222
 41
0.00347222
  0
VERTEX
  8
0
 10
1.40419
 20
1.25716
 30
0.0
 40
0.00347222
 41
0.00347222
  0
VERTEX
  8
0
 10
1.40419
 20
1.1403
 30
0.0
 40
0.00347222
 41
0.00347222
  0
SEQEND
 8
0
  0
POLYLINE
  8
0
 62
     250
 66
     1
 10
0
 20
0
 30
0.0
 70
     1
 40
0.25
 41
0.25
  0
VERTEX
  8
0
 10
1.28521
 20
1.20774
 30
0.0
 40
0.00347222
 41
0.00347222
  0
VERTEX
  8
0
 10
1.24848
 20
1.1403
 30
0.0
 40
0.00347222
 41
0.00347222
  0
VERTEX
  8
0
 10
1.22743
 20
1.1403
 30
0.0
 40
0.00347222
 41
0.00347222
  0
VERTEX
  8
0
 10
1.22743
 20
1.25716
 30
0.0
 40
0.00347222
 41
0.00347222
  0
VERTEX
  8
0
 10
1.24848
 20
1.25716
 30
0.0
 40
0.00347222
 41
0.00347222
  0
VERTEX
  8
0
 10
1.24848
 20
1.19162
 30
0.0
 40
0.00347222
 41
0.00347222
  0
VERTEX
  8
0
 10
1.28521
 20
1.25716
 30
0.0
 40
0.00347222
 41
0.00347222
  0
VERTEX
  8
0
 10
1.30767
 20
1.25716
 30
0.0
 40
0.00347222
 41
0.00347222
  0
VERTEX
  8
0
 10
1.30767
 20
1.1403
 30
0.0
 40
0.00347222
 41
0.00347222
  0
VERTEX
  8
0
 10
1.28521
 20
1.1403
 30
0.0
 40
0.00347222
 41
0.00347222
  0
VERTEX
  8
0
 10
1.28521
 20
1.20774
 30
0.0
 40
0.00347222
 41
0.00347222
  0
SEQEND
 8
0
  0
POLYLINE
  8
0
 62
     250
 66
     1
 10
0
 20
0
 30
0.0
 70
     1
 40
0.25
 41
0.25
  0
VERTEX
  8
0
 10
0.780436
 20
1.23714
 30
0.0
 40
0.00347222
 41
0.00347222
  0
VERTEX
  8
0
 10
0.722657
 20
1.23714
 30
0.0
 40
0.00347222
 41
0.00347222
  0
VERTEX
  8
0
 10
0.722657
 20
1.25716
 30
0.0
 40
0.00347222
 41
0.00347222
  0
VERTEX
  8
0
 10
0.802897
 20
1.25716
 30
0.0
 40
0.00347222
 41
0.00347222
  0
VERTEX
  8
0
 10
0.802897
 20
1.1403
 30
0.0
 40
0.00347222
 41
0.00347222
  0
VERTEX
  8
0
 10
0.722657
 20
1.1403
 30
0.0
 40
0.00347222
 41
0.00347222
  0
VERTEX
  8
0
 10
0.722657
 20
1.16032
 30
0.0
 40
0.00347222
 41
0.00347222
  0
VERTEX
  8
0
 10
0.780436
 20
1.16032
 30
0.0
 40
0.00347222
 41
0.00347222
  0
VERTEX
  8
0
 10
0.780436
 20
1.23714
 30
0.0
 40
0.00347222
 41
0.00347222
  0
SEQEND
 8
0
  0
POLYLINE
  8
0
 62
     250
 66
     1
 10
0
 20
0
 30
0.0
 70
     1
 40
0.25
 41
0.25
  0
VERTEX
  8
0
 10
0.647244
 20
1.20823
 30
0.0
 40
0.00347222
 41
0.00347222
  0
VERTEX
  8
0
 10
0.683919
 20
1.20823
 30
0.0
 40
0.00347222
 41
0.00347222
  0
VERTEX
  8
0
 10
0.683919
 20
1.23714
 30
0.0
 40
0.00347222
 41
0.00347222
  0
VERTEX
  8
0
 10
0.647244
 20
1.23714
 30
0.0
 40
0.00347222
 41
0.00347222
  0
VERTEX
  8
0
 10
0.647244
 20
1.20823
 30
0.0
 40
0.00347222
 41
0.00347222
  0
SEQEND
 8
0
  0
POLYLINE
  8
0
 62
     250
 66
     1
 10
0
 20
0
 30
0.0
 70
     1
 40
0.25
 41
0.25
  0
VERTEX
  8
0
 10
0.647244
 20
1.1403
 30
0.0
 40
0.00347222
 41
0.00347222
  0
VERTEX
  8
0
 10
0.626139
 20
1.1403
 30
0.0
 40
0.00347222
 41
0.00347222
  0
VERTEX
  8
0
 10
0.626139
 20
1.25716
 30
0.0
 40
0.00347222
 41
0.00347222
  0
VERTEX
  8
0
 10
0.706381
 20
1.25716
 30
0.0
 40
0.00347222
 41
0.00347222
  0
VERTEX
  8
0
 10
0.706381
 20
1.1403
 30
0.0
 40
0.00347222
 41
0.00347222
  0
VERTEX
  8
0
 10
0.683919
 20
1.1403
 30
0.0
 40
0.00347222
 41
0.00347222
  0
VERTEX
  8
0
 10
0.683919
 20
1.18918
 30
0.0
 40
0.00347222
 41
0.00347222
  0
VERTEX
  8
0
 10
0.647244
 20
1.18918
 30
0.0
 40
0.00347222
 41
0.00347222
  0
VERTEX
  8
0
 10
0.647244
 20
1.1403
 30
0.0
 40
0.00347222
 41
0.00347222
  0
SEQEND
 8
0
  0
POLYLINE
  8
0
 62
     250
 66
     1
 10
0
 20
0
 30
0.0
 70
     1
 40
0.25
 41
0.25
  0
VERTEX
  8
0
 10
0.550726
 20
1.18918
 30
0.0
 40
0.00347222
 41
0.00347222
  0
VERTEX
  8
0
 10
0.550726
 20
1.16032
 30
0.0
 40
0.00347222
 41
0.00347222
  0
VERTEX
  8
0
 10
0.609864
 20
1.16032
 30
0.0
 40
0.00347222
 41
0.00347222
  0
VERTEX
  8
0
 10
0.609864
 20
1.1403
 30
0.0
 40
0.00347222
 41
0.00347222
  0
VERTEX
  8
0
 10
0.529622
 20
1.1403
 30
0.0
 40
0.00347222
 41
0.00347222
  0
VERTEX
  8
0
 10
0.529622
 20
1.20823
 30
0.0
 40
0.00347222
 41
0.00347222
  0
VERTEX
  8
0
 10
0.587403
 20
1.20823
 30
0.0
 40
0.00347222
 41
0.00347222
  0
VERTEX
  8
0
 10
0.587403
 20
1.23714
 30
0.0
 40
0.00347222
 41
0.00347222
  0
VERTEX
  8
0
 10
0.529622
 20
1.23714
 30
0.0
 40
0.00347222
 41
0.00347222
  0
VERTEX
  8
0
 10
0.529622
 20
1.25716
 30
0.0
 40
0.00347222
 41
0.00347222
  0
VERTEX
  8
0
 10
0.609864
 20
1.25716
 30
0.0
 40
0.00347222
 41
0.00347222
  0
VERTEX
  8
0
 10
0.609864
 20
1.18918
 30
0.0
 40
0.00347222
 41
0.00347222
  0
VERTEX
  8
0
 10
0.550726
 20
1.18918
 30
0.0
 40
0.00347222
 41
0.00347222
  0
SEQEND
 8
0
  0
POLYLINE
  8
0
 62
     250
 66
     1
 10
0
 20
0
 30
0.0
 70
     1
 40
0.25
 41
0.25
  0
VERTEX
  8
0
 10
0.490886
 20
1.25716
 30
0.0
 40
0.00347222
 41
0.00347222
  0
VERTEX
  8
0
 10
0.513346
 20
1.25716
 30
0.0
 40
0.00347222
 41
0.00347222
  0
VERTEX
  8
0
 10
0.513346
 20
1.1403
 30
0.0
 40
0.00347222
 41
0.00347222
  0
VERTEX
  8
0
 10
0.490886
 20
1.1403
 30
0.0
 40
0.00347222
 41
0.00347222
  0
VERTEX
  8
0
 10
0.490886
 20
1.25716
 30
0.0
 40
0.00347222
 41
0.00347222
  0
SEQEND
 8
0
  0
POLYLINE
  8
0
 62
     250
 66
     1
 10
0
 20
0
 30
0.0
 70
     1
 40
0.25
 41
0.25
  0
VERTEX
  8
0
 10
0.394368
 20
1.23714
 30
0.0
 40
0.00347222
 41
0.00347222
  0
VERTEX
  8
0
 10
0.394368
 20
1.25716
 30
0.0
 40
0.00347222
 41
0.00347222
  0
VERTEX
  8
0
 10
0.47461
 20
1.25716
 30
0.0
 40
0.00347222
 41
0.00347222
  0
VERTEX
  8
0
 10
0.47461
 20
1.1403
 30
0.0
 40
0.00347222
 41
0.00347222
  0
VERTEX
  8
0
 10
0.394368
 20
1.1403
 30
0.0
 40
0.00347222
 41
0.00347222
  0
VERTEX
  8
0
 10
0.394368
 20
1.16032
 30
0.0
 40
0.00347222
 41
0.00347222
  0
VERTEX
  8
0
 10
0.452149
 20
1.16032
 30
0.0
 40
0.00347222
 41
0.00347222
  0
VERTEX
  8
0
 10
0.452149
 20
1.18918
 30
0.0
 40
0.00347222
 41
0.00347222
  0
VERTEX
  8
0
 10
0.394368
 20
1.18918
 30
0.0
 40
0.00347222
 41
0.00347222
  0
VERTEX
  8
0
 10
0.394368
 20
1.20823
 30
0.0
 40
0.00347222
 41
0.00347222
  0
VERTEX
  8
0
 10
0.452149
 20
1.20823
 30
0.0
 40
0.00347222
 41
0.00347222
  0
VERTEX
  8
0
 10
0.452149
 20
1.23714
 30
0.0
 40
0.00347222
 41
0.00347222
  0
VERTEX
  8
0
 10
0.394368
 20
1.23714
 30
0.0
 40
0.00347222
 41
0.00347222
  0
SEQEND
 8
0
  0
POLYLINE
  8
0
 62
     250
 66
     1
 10
0
 20
0
 30
0.0
 70
     1
 40
0.25
 41
0.25
  0
VERTEX
  8
0
 10
0.318956
 20
1.20823
 30
0.0
 40
0.00347222
 41
0.00347222
  0
VERTEX
  8
0
 10
0.355632
 20
1.20823
 30
0.0
 40
0.00347222
 41
0.00347222
  0
VERTEX
  8
0
 10
0.355632
 20
1.23714
 30
0.0
 40
0.00347222
 41
0.00347222
  0
VERTEX
  8
0
 10
0.318956
 20
1.23714
 30
0.0
 40
0.00347222
 41
0.00347222
  0
VERTEX
  8
0
 10
0.318956
 20
1.20823
 30
0.0
 40
0.00347222
 41
0.00347222
  0
SEQEND
 8
0
  0
POLYLINE
  8
0
 62
     250
 66
     1
 10
0
 20
0
 30
0.0
 70
     1
 40
0.25
 41
0.25
  0
VERTEX
  8
0
 10
0.355632
 20
1.1403
 30
0.0
 40
0.00347222
 41
0.00347222
  0
VERTEX
  8
0
 10
0.355632
 20
1.18918
 30
0.0
 40
0.00347222
 41
0.00347222
  0
VERTEX
  8
0
 10
0.347765
 20
1.18918
 30
0.0
 40
0.00347222
 41
0.00347222
  0
VERTEX
  8
0
 10
0.318956
 20
1.1403
 30
0.0
 40
0.00347222
 41
0.00347222
  0
VERTEX
  8
0
 10
0.297851
 20
1.1403
 30
0.0
 40
0.00347222
 41
0.00347222
  0
VERTEX
  8
0
 10
0.325304
 20
1.18918
 30
0.0
 40
0.00347222
 41
0.00347222
  0
VERTEX
  8
0
 10
0.297851
 20
1.18918
 30
0.0
 40
0.00347222
 41
0.00347222
  0
VERTEX
  8
0
 10
0.297851
 20
1.25716
 30
0.0
 40
0.00347222
 41
0.00347222
  0
VERTEX
  8
0
 10
0.378093
 20
1.25716
 30
0.0
 40
0.00347222
 41
0.00347222
  0
VERTEX
  8
0
 10
0.378093
 20
1.1403
 30
0.0
 40
0.00347222
 41
0.00347222
  0
VERTEX
  8
0
 10
0.355632
 20
1.1403
 30
0.0
 40
0.00347222
 41
0.00347222
  0
SEQEND
 8
0
  0
POLYLINE
  8
0
 62
     250
 66
     1
 10
0
 20
0
 30
0.0
 70
     1
 40
0.25
 41
0.25
  0
VERTEX
  8
0
 10
1.95806
 20
0.195421
 30
0.0
 40
0.00347222
 41
0.00347222
  0
VERTEX
  8
0
 10
1.98861
 20
0.195421
 30
0.0
 40
0.00347222
 41
0.00347222
  0
VERTEX
  8
0
 10
1.98861
 20
0.21951
 30
0.0
 40
0.00347222
 41
0.00347222
  0
VERTEX
  8
0
 10
1.95806
 20
0.21951
 30
0.0
 40
0.00347222
 41
0.00347222
  0
VERTEX
  8
0
 10
1.95806
 20
0.195421
 30
0.0
 40
0.00347222
 41
0.00347222
  0
SEQEND
 8
0
  0
POLYLINE
  8
0
 62
     250
 66
     1
 10
0
 20
0
 30
0.0
 70
     1
 40
0.25
 41
0.25
  0
VERTEX
  8
0
 10
1.95806
 20
0.235406
 30
0.0
 40
0.00347222
 41
0.00347222
  0
VERTEX
  8
0
 10
1.98861
 20
0.235406
 30
0.0
 40
0.00347222
 41
0.00347222
  0
VERTEX
  8
0
 10
1.98861
 20
0.25944
 30
0.0
 40
0.00347222
 41
0.00347222
  0
VERTEX
  8
0
 10
1.95806
 20
0.25944
 30
0.0
 40
0.00347222
 41
0.00347222
  0
VERTEX
  8
0
 10
1.95806
 20
0.235406
 30
0.0
 40
0.00347222
 41
0.00347222
  0
SEQEND
 8
0
  0
POLYLINE
  8
0
 62
     250
 66
     1
 10
0
 20
0
 30
0.0
 70
     1
 40
0.25
 41
0.25
  0
VERTEX
  8
0
 10
2.00732
 20
0.27615
 30
0.0
 40
0.00347222
 41
0.00347222
  0
VERTEX
  8
0
 10
2.00732
 20
0.178765
 30
0.0
 40
0.00347222
 41
0.00347222
  0
VERTEX
  8
0
 10
1.94049
 20
0.178765
 30
0.0
 40
0.00347222
 41
0.00347222
  0
VERTEX
  8
0
 10
1.94049
 20
0.214899
 30
0.0
 40
0.00347222
 41
0.00347222
  0
VERTEX
  8
0
 10
1.94868
 20
0.227106
 30
0.0
 40
0.00347222
 41
0.00347222
  0
VERTEX
  8
0
 10
1.94049
 20
0.239258
 30
0.0
 40
0.00347222
 41
0.00347222
  0
VERTEX
  8
0
 10
1.94049
 20
0.27615
 30
0.0
 40
0.00347222
 41
0.00347222
  0
VERTEX
  8
0
 10
2.00732
 20
0.27615
 30
0.0
 40
0.00347222
 41
0.00347222
  0
SEQEND
 8
0
  0
POLYLINE
  8
0
 62
     250
 66
     1
 10
0
 20
0
 30
0.0
 70
     1
 40
0.25
 41
0.25
  0
VERTEX
  8
0
 10
1.87761
 20
0.195421
 30
0.0
 40
0.00347222
 41
0.00347222
  0
VERTEX
  8
0
 10
1.90815
 20
0.195421
 30
0.0
 40
0.00347222
 41
0.00347222
  0
VERTEX
  8
0
 10
1.90815
 20
0.25944
 30
0.0
 40
0.00347222
 41
0.00347222
  0
VERTEX
  8
0
 10
1.87761
 20
0.25944
 30
0.0
 40
0.00347222
 41
0.00347222
  0
VERTEX
  8
0
 10
1.87761
 20
0.195421
 30
0.0
 40
0.00347222
 41
0.00347222
  0
SEQEND
 8
0
  0
POLYLINE
  8
0
 62
     250
 66
     1
 10
0
 20
0
 30
0.0
 70
     1
 40
0.25
 41
0.25
  0
VERTEX
  8
0
 10
1.92686
 20
0.178765
 30
0.0
 40
0.00347222
 41
0.00347222
  0
VERTEX
  8
0
 10
1.86003
 20
0.178765
 30
0.0
 40
0.00347222
 41
0.00347222
  0
VERTEX
  8
0
 10
1.86003
 20
0.27615
 30
0.0
 40
0.00347222
 41
0.00347222
  0
VERTEX
  8
0
 10
1.92686
 20
0.27615
 30
0.0
 40
0.00347222
 41
0.00347222
  0
VERTEX
  8
0
 10
1.92686
 20
0.178765
 30
0.0
 40
0.00347222
 41
0.00347222
  0
SEQEND
 8
0
  0
POLYLINE
  8
0
 62
     250
 66
     1
 10
0
 20
0
 30
0.0
 70
     1
 40
0.25
 41
0.25
  0
VERTEX
  8
0
 10
1.79719
 20
0.195421
 30
0.0
 40
0.00347222
 41
0.00347222
  0
VERTEX
  8
0
 10
1.82775
 20
0.195421
 30
0.0
 40
0.00347222
 41
0.00347222
  0
VERTEX
  8
0
 10
1.82775
 20
0.27615
 30
0.0
 40
0.00347222
 41
0.00347222
  0
VERTEX
  8
0
 10
1.84646
 20
0.27615
 30
0.0
 40
0.00347222
 41
0.00347222
  0
VERTEX
  8
0
 10
1.84646
 20
0.178765
 30
0.0
 40
0.00347222
 41
0.00347222
  0
VERTEX
  8
0
 10
1.77957
 20
0.178765
 30
0.0
 40
0.00347222
 41
0.00347222
  0
VERTEX
  8
0
 10
1.77957
 20
0.27615
 30
0.0
 40
0.00347222
 41
0.00347222
  0
VERTEX
  8
0
 10
1.79719
 20
0.27615
 30
0.0
 40
0.00347222
 41
0.00347222
  0
VERTEX
  8
0
 10
1.79719
 20
0.195421
 30
0.0
 40
0.00347222
 41
0.00347222
  0
SEQEND
 8
0
  0
POLYLINE
  8
0
 62
     250
 66
     1
 10
0
 20
0
 30
0.0
 70
     1
 40
0.25
 41
0.25
  0
VERTEX
  8
0
 10
1.74729
 20
0.25944
 30
0.0
 40
0.00347222
 41
0.00347222
  0
VERTEX
  8
0
 10
1.69917
 20
0.25944
 30
0.0
 40
0.00347222
 41
0.00347222
  0
VERTEX
  8
0
 10
1.69917
 20
0.27615
 30
0.0
 40
0.00347222
 41
0.00347222
  0
VERTEX
  8
0
 10
1.76606
 20
0.27615
 30
0.0
 40
0.00347222
 41
0.00347222
  0
VERTEX
  8
0
 10
1.76606
 20
0.178765
 30
0.0
 40
0.00347222
 41
0.00347222
  0
VERTEX
  8
0
 10
1.69917
 20
0.178765
 30
0.0
 40
0.00347222
 41
0.00347222
  0
VERTEX
  8
0
 10
1.69917
 20
0.195475
 30
0.0
 40
0.00347222
 41
0.00347222
  0
VERTEX
  8
0
 10
1.74729
 20
0.195475
 30
0.0
 40
0.00347222
 41
0.00347222
  0
VERTEX
  8
0
 10
1.74729
 20
0.25944
 30
0.0
 40
0.00347222
 41
0.00347222
  0
SEQEND
 8
0
  0
POLYLINE
  8
0
 62
     250
 66
     1
 10
0
 20
0
 30
0.0
 70
     1
 40
0.25
 41
0.25
  0
VERTEX
  8
0
 10
1.66689
 20
0.21951
 30
0.0
 40
0.00347222
 41
0.00347222
  0
VERTEX
  8
0
 10
1.63633
 20
0.21951
 30
0.0
 40
0.00347222
 41
0.00347222
  0
VERTEX
  8
0
 10
1.63633
 20
0.178765
 30
0.0
 40
0.00347222
 41
0.00347222
  0
VERTEX
  8
0
 10
1.61871
 20
0.178765
 30
0.0
 40
0.00347222
 41
0.00347222
  0
VERTEX
  8
0
 10
1.61871
 20
0.27615
 30
0.0
 40
0.00347222
 41
0.00347222
  0
VERTEX
  8
0
 10
1.63633
 20
0.27615
 30
0.0
 40
0.00347222
 41
0.00347222
  0
VERTEX
  8
0
 10
1.63633
 20
0.235406
 30
0.0
 40
0.00347222
 41
0.00347222
  0
VERTEX
  8
0
 10
1.66689
 20
0.235406
 30
0.0
 40
0.00347222
 41
0.00347222
  0
VERTEX
  8
0
 10
1.66689
 20
0.27615
 30
0.0
 40
0.00347222
 41
0.00347222
  0
VERTEX
  8
0
 10
1.6856
 20
0.27615
 30
0.0
 40
0.00347222
 41
0.00347222
  0
VERTEX
  8
0
 10
1.6856
 20
0.178765
 30
0.0
 40
0.00347222
 41
0.00347222
  0
VERTEX
  8
0
 10
1.66689
 20
0.178765
 30
0.0
 40
0.00347222
 41
0.00347222
  0
VERTEX
  8
0
 10
1.66689
 20
0.21951
 30
0.0
 40
0.00347222
 41
0.00347222
  0
SEQEND
 8
0
  0
POLYLINE
  8
0
 62
     250
 66
     1
 10
0
 20
0
 30
0.0
 70
     1
 40
0.25
 41
0.25
  0
VERTEX
  8
0
 10
1.55588
 20
0.195421
 30
0.0
 40
0.00347222
 41
0.00347222
  0
VERTEX
  8
0
 10
1.58649
 20
0.195421
 30
0.0
 40
0.00347222
 41
0.00347222
  0
VERTEX
  8
0
 10
1.58649
 20
0.25944
 30
0.0
 40
0.00347222
 41
0.00347222
  0
VERTEX
  8
0
 10
1.55588
 20
0.25944
 30
0.0
 40
0.00347222
 41
0.00347222
  0
VERTEX
  8
0
 10
1.55588
 20
0.195421
 30
0.0
 40
0.00347222
 41
0.00347222
  0
SEQEND
 8
0
  0
POLYLINE
  8
0
 62
     250
 66
     1
 10
0
 20
0
 30
0.0
 70
     1
 40
0.25
 41
0.25
  0
VERTEX
  8
0
 10
1.60514
 20
0.178765
 30
0.0
 40
0.00347222
 41
0.00347222
  0
VERTEX
  8
0
 10
1.53831
 20
0.178765
 30
0.0
 40
0.00347222
 41
0.00347222
  0
VERTEX
  8
0
 10
1.53831
 20
0.27615
 30
0.0
 40
0.00347222
 41
0.00347222
  0
VERTEX
  8
0
 10
1.60514
 20
0.27615
 30
0.0
 40
0.00347222
 41
0.00347222
  0
VERTEX
  8
0
 10
1.60514
 20
0.178765
 30
0.0
 40
0.00347222
 41
0.00347222
  0
SEQEND
 8
0
  0
POLYLINE
  8
0
 62
     250
 66
     1
 10
0
 20
0
 30
0.0
 70
     1
 40
0.25
 41
0.25
  0
VERTEX
  8
0
 10
1.50603
 20
0.234972
 30
0.0
 40
0.00347222
 41
0.00347222
  0
VERTEX
  8
0
 10
1.47542
 20
0.178765
 30
0.0
 40
0.00347222
 41
0.00347222
  0
VERTEX
  8
0
 10
1.4579
 20
0.178765
 30
0.0
 40
0.00347222
 41
0.00347222
  0
VERTEX
  8
0
 10
1.4579
 20
0.27615
 30
0.0
 40
0.00347222
 41
0.00347222
  0
VERTEX
  8
0
 10
1.47542
 20
0.27615
 30
0.0
 40
0.00347222
 41
0.00347222
  0
VERTEX
  8
0
 10
1.47542
 20
0.221571
 30
0.0
 40
0.00347222
 41
0.00347222
  0
VERTEX
  8
0
 10
1.50603
 20
0.27615
 30
0.0
 40
0.00347222
 41
0.00347222
  0
VERTEX
  8
0
 10
1.52474
 20
0.27615
 30
0.0
 40
0.00347222
 41
0.00347222
  0
VERTEX
  8
0
 10
1.52474
 20
0.178765
 30
0.0
 40
0.00347222
 41
0.00347222
  0
VERTEX
  8
0
 10
1.50603
 20
0.178765
 30
0.0
 40
0.00347222
 41
0.00347222
  0
VERTEX
  8
0
 10
1.50603
 20
0.234972
 30
0.0
 40
0.00347222
 41
0.00347222
  0
SEQEND
 8
0
  0
POLYLINE
  8
0
 62
     250
 66
     1
 10
0
 20
0
 30
0.0
 70
     1
 40
0.25
 41
0.25
  0
VERTEX
  8
0
 10
1.38455
 20
0.178765
 30
0.0
 40
0.00347222
 41
0.00347222
  0
VERTEX
  8
0
 10
1.36583
 20
0.178765
 30
0.0
 40
0.00347222
 41
0.00347222
  0
VERTEX
  8
0
 10
1.36583
 20
0.259494
 30
0.0
 40
0.00347222
 41
0.00347222
  0
VERTEX
  8
0
 10
1.34299
 20
0.259494
 30
0.0
 40
0.00347222
 41
0.00347222
  0
VERTEX
  8
0
 10
1.34299
 20
0.27615
 30
0.0
 40
0.00347222
 41
0.00347222
  0
VERTEX
  8
0
 10
1.40989
 20
0.27615
 30
0.0
 40
0.00347222
 41
0.00347222
  0
VERTEX
  8
0
 10
1.40989
 20
0.259494
 30
0.0
 40
0.00347222
 41
0.00347222
  0
VERTEX
  8
0
 10
1.38455
 20
0.259494
 30
0.0
 40
0.00347222
 41
0.00347222
  0
VERTEX
  8
0
 10
1.38455
 20
0.178765
 30
0.0
 40
0.00347222
 41
0.00347222
  0
SEQEND
 8
0
  0
POLYLINE
  8
0
 62
     250
 66
     1
 10
0
 20
0
 30
0.0
 70
     1
 40
0.25
 41
0.25
  0
VERTEX
  8
0
 10
1.28011
 20
0.235406
 30
0.0
 40
0.00347222
 41
0.00347222
  0
VERTEX
  8
0
 10
1.31071
 20
0.235406
 30
0.0
 40
0.00347222
 41
0.00347222
  0
VERTEX
  8
0
 10
1.31071
 20
0.25944
 30
0.0
 40
0.00347222
 41
0.00347222
  0
VERTEX
  8
0
 10
1.28011
 20
0.25944
 30
0.0
 40
0.00347222
 41
0.00347222
  0
VERTEX
  8
0
 10
1.28011
 20
0.235406
 30
0.0
 40
0.00347222
 41
0.00347222
  0
SEQEND
 8
0
  0
POLYLINE
  8
0
 62
     250
 66
     1
 10
0
 20
0
 30
0.0
 70
     1
 40
0.25
 41
0.25
  0
VERTEX
  8
0
 10
1.31071
 20
0.178765
 30
0.0
 40
0.00347222
 41
0.00347222
  0
VERTEX
  8
0
 10
1.31071
 20
0.21951
 30
0.0
 40
0.00347222
 41
0.00347222
  0
VERTEX
  8
0
 10
1.30414
 20
0.21951
 30
0.0
 40
0.00347222
 41
0.00347222
  0
VERTEX
  8
0
 10
1.28011
 20
0.178765
 30
0.0
 40
0.00347222
 41
0.00347222
  0
VERTEX
  8
0
 10
1.26259
 20
0.178765
 30
0.0
 40
0.00347222
 41
0.00347222
  0
VERTEX
  8
0
 10
1.28543
 20
0.21951
 30
0.0
 40
0.00347222
 41
0.00347222
  0
VERTEX
  8
0
 10
1.26259
 20
0.21951
 30
0.0
 40
0.00347222
 41
0.00347222
  0
VERTEX
  8
0
 10
1.26259
 20
0.27615
 30
0.0
 40
0.00347222
 41
0.00347222
  0
VERTEX
  8
0
 10
1.32943
 20
0.27615
 30
0.0
 40
0.00347222
 41
0.00347222
  0
VERTEX
  8
0
 10
1.32943
 20
0.178765
 30
0.0
 40
0.00347222
 41
0.00347222
  0
VERTEX
  8
0
 10
1.31071
 20
0.178765
 30
0.0
 40
0.00347222
 41
0.00347222
  0
SEQEND
 8
0
  0
POLYLINE
  8
0
 62
     250
 66
     1
 10
0
 20
0
 30
0.0
 70
     1
 40
0.25
 41
0.25
  0
VERTEX
  8
0
 10
1.23031
 20
0.27615
 30
0.0
 40
0.00347222
 41
0.00347222
  0
VERTEX
  8
0
 10
1.24902
 20
0.27615
 30
0.0
 40
0.00347222
 41
0.00347222
  0
VERTEX
  8
0
 10
1.24902
 20
0.178765
 30
0.0
 40
0.00347222
 41
0.00347222
  0
VERTEX
  8
0
 10
1.23031
 20
0.178765
 30
0.0
 40
0.00347222
 41
0.00347222
  0
VERTEX
  8
0
 10
1.23031
 20
0.27615
 30
0.0
 40
0.00347222
 41
0.00347222
  0
SEQEND
 8
0
  0
POLYLINE
  8
0
 62
     250
 66
     1
 10
0
 20
0
 30
0.0
 70
     1
 40
0.25
 41
0.25
  0
VERTEX
  8
0
 10
1.14985
 20
0.25944
 30
0.0
 40
0.00347222
 41
0.00347222
  0
VERTEX
  8
0
 10
1.14985
 20
0.27615
 30
0.0
 40
0.00347222
 41
0.00347222
  0
VERTEX
  8
0
 10
1.21674
 20
0.27615
 30
0.0
 40
0.00347222
 41
0.00347222
  0
VERTEX
  8
0
 10
1.21674
 20
0.178765
 30
0.0
 40
0.00347222
 41
0.00347222
  0
VERTEX
  8
0
 10
1.14985
 20
0.178765
 30
0.0
 40
0.00347222
 41
0.00347222
  0
VERTEX
  8
0
 10
1.14985
 20
0.195475
 30
0.0
 40
0.00347222
 41
0.00347222
  0
VERTEX
  8
0
 10
1.19802
 20
0.195475
 30
0.0
 40
0.00347222
 41
0.00347222
  0
VERTEX
  8
0
 10
1.19802
 20
0.21951
 30
0.0
 40
0.00347222
 41
0.00347222
  0
VERTEX
  8
0
 10
1.14985
 20
0.21951
 30
0.0
 40
0.00347222
 41
0.00347222
  0
VERTEX
  8
0
 10
1.14985
 20
0.235406
 30
0.0
 40
0.00347222
 41
0.00347222
  0
VERTEX
  8
0
 10
1.19802
 20
0.235406
 30
0.0
 40
0.00347222
 41
0.00347222
  0
VERTEX
  8
0
 10
1.19802
 20
0.25944
 30
0.0
 40
0.00347222
 41
0.00347222
  0
VERTEX
  8
0
 10
1.14985
 20
0.25944
 30
0.0
 40
0.00347222
 41
0.00347222
  0
SEQEND
 8
0
  0
POLYLINE
  8
0
 62
     250
 66
     1
 10
0
 20
0
 30
0.0
 70
     1
 40
0.25
 41
0.25
  0
VERTEX
  8
0
 10
0.902778
 20
0.25944
 30
0.0
 40
0.00347222
 41
0.00347222
  0
VERTEX
  8
0
 10
0.854656
 20
0.25944
 30
0.0
 40
0.00347222
 41
0.00347222
  0
VERTEX
  8
0
 10
0.854656
 20
0.27615
 30
0.0
 40
0.00347222
 41
0.00347222
  0
VERTEX
  8
0
 10
0.921496
 20
0.27615
 30
0.0
 40
0.00347222
 41
0.00347222
  0
VERTEX
  8
0
 10
0.921496
 20
0.178765
 30
0.0
 40
0.00347222
 41
0.00347222
  0
VERTEX
  8
0
 10
0.854656
 20
0.178765
 30
0.0
 40
0.00347222
 41
0.00347222
  0
VERTEX
  8
0
 10
0.854656
 20
0.195475
 30
0.0
 40
0.00347222
 41
0.00347222
  0
VERTEX
  8
0
 10
0.902778
 20
0.195475
 30
0.0
 40
0.00347222
 41
0.00347222
  0
VERTEX
  8
0
 10
0.902778
 20
0.25944
 30
0.0
 40
0.00347222
 41
0.00347222
  0
SEQEND
 8
0
  0
POLYLINE
  8
0
 62
     250
 66
     1
 10
0
 20
0
 30
0.0
 70
     1
 40
0.25
 41
0.25
  0
VERTEX
  8
0
 10
0.791775
 20
0.235406
 30
0.0
 40
0.00347222
 41
0.00347222
  0
VERTEX
  8
0
 10
0.822374
 20
0.235406
 30
0.0
 40
0.00347222
 41
0.00347222
  0
VERTEX
  8
0
 10
0.822374
 20
0.25944
 30
0.0
 40
0.00347222
 41
0.00347222
  0
VERTEX
  8
0
 10
0.791775
 20
0.25944
 30
0.0
 40
0.00347222
 41
0.00347222
  0
VERTEX
  8
0
 10
0.791775
 20
0.235406
 30
0.0
 40
0.00347222
 41
0.00347222
  0
SEQEND
 8
0
  0
POLYLINE
  8
0
 62
     250
 66
     1
 10
0
 20
0
 30
0.0
 70
     1
 40
0.25
 41
0.25
  0
VERTEX
  8
0
 10
0.791775
 20
0.178765
 30
0.0
 40
0.00347222
 41
0.00347222
  0
VERTEX
  8
0
 10
0.774197
 20
0.178765
 30
0.0
 40
0.00347222
 41
0.00347222
  0
VERTEX
  8
0
 10
0.774197
 20
0.27615
 30
0.0
 40
0.00347222
 41
0.00347222
  0
VERTEX
  8
0
 10
0.841092
 20
0.27615
 30
0.0
 40
0.00347222
 41
0.00347222
  0
VERTEX
  8
0
 10
0.841092
 20
0.178765
 30
0.0
 40
0.00347222
 41
0.00347222
  0
VERTEX
  8
0
 10
0.822374
 20
0.178765
 30
0.0
 40
0.00347222
 41
0.00347222
  0
VERTEX
  8
0
 10
0.822374
 20
0.21951
 30
0.0
 40
0.00347222
 41
0.00347222
  0
VERTEX
  8
0
 10
0.791775
 20
0.21951
 30
0.0
 40
0.00347222
 41
0.00347222
  0
VERTEX
  8
0
 10
0.791775
 20
0.178765
 30
0.0
 40
0.00347222
 41
0.00347222
  0
SEQEND
 8
0
  0
POLYLINE
  8
0
 62
     250
 66
     1
 10
0
 20
0
 30
0.0
 70
     1
 40
0.25
 41
0.25
  0
VERTEX
  8
0
 10
0.711372
 20
0.21951
 30
0.0
 40
0.00347222
 41
0.00347222
  0
VERTEX
  8
0
 10
0.711372
 20
0.195475
 30
0.0
 40
0.00347222
 41
0.00347222
  0
VERTEX
  8
0
 10
0.760633
 20
0.195475
 30
0.0
 40
0.00347222
 41
0.00347222
  0
VERTEX
  8
0
 10
0.760633
 20
0.178765
 30
0.0
 40
0.00347222
 41
0.00347222
  0
VERTEX
  8
0
 10
0.693793
 20
0.178765
 30
0.0
 40
0.00347222
 41
0.00347222
  0
VERTEX
  8
0
 10
0.693793
 20
0.235406
 30
0.0
 40
0.00347222
 41
0.00347222
  0
VERTEX
  8
0
 10
0.741917
 20
0.235406
 30
0.0
 40
0.00347222
 41
0.00347222
  0
VERTEX
  8
0
 10
0.741917
 20
0.25944
 30
0.0
 40
0.00347222
 41
0.00347222
  0
VERTEX
  8
0
 10
0.693793
 20
0.25944
 30
0.0
 40
0.00347222
 41
0.00347222
  0
VERTEX
  8
0
 10
0.693793
 20
0.27615
 30
0.0
 40
0.00347222
 41
0.00347222
  0
VERTEX
  8
0
 10
0.760633
 20
0.27615
 30
0.0
 40
0.00347222
 41
0.00347222
  0
VERTEX
  8
0
 10
0.760633
 20
0.21951
 30
0.0
 40
0.00347222
 41
0.00347222
  0
VERTEX
  8
0
 10
0.711372
 20
0.21951
 30
0.0
 40
0.00347222
 41
0.00347222
  0
SEQEND
 8
0
  0
POLYLINE
  8
0
 62
     250
 66
     1
 10
0
 20
0
 30
0.0
 70
     1
 40
0.25
 41
0.25
  0
VERTEX
  8
0
 10
0.661512
 20
0.27615
 30
0.0
 40
0.00347222
 41
0.00347222
  0
VERTEX
  8
0
 10
0.680231
 20
0.27615
 30
0.0
 40
0.00347222
 41
0.00347222
  0
VERTEX
  8
0
 10
0.680231
 20
0.178765
 30
0.0
 40
0.00347222
 41
0.00347222
  0
VERTEX
  8
0
 10
0.661512
 20
0.178765
 30
0.0
 40
0.00347222
 41
0.00347222
  0
VERTEX
  8
0
 10
0.661512
 20
0.27615
 30
0.0
 40
0.00347222
 41
0.00347222
  0
SEQEND
 8
0
  0
POLYLINE
  8
0
 62
     250
 66
     1
 10
0
 20
0
 30
0.0
 70
     1
 40
0.25
 41
0.25
  0
VERTEX
  8
0
 10
0.581054
 20
0.25944
 30
0.0
 40
0.00347222
 41
0.00347222
  0
VERTEX
  8
0
 10
0.581054
 20
0.27615
 30
0.0
 40
0.00347222
 41
0.00347222
  0
VERTEX
  8
0
 10
0.647949
 20
0.27615
 30
0.0
 40
0.00347222
 41
0.00347222
  0
VERTEX
  8
0
 10
0.647949
 20
0.178765
 30
0.0
 40
0.00347222
 41
0.00347222
  0
VERTEX
  8
0
 10
0.581054
 20
0.178765
 30
0.0
 40
0.00347222
 41
0.00347222
  0
VERTEX
  8
0
 10
0.581054
 20
0.195475
 30
0.0
 40
0.00347222
 41
0.00347222
  0
VERTEX
  8
0
 10
0.629232
 20
0.195475
 30
0.0
 40
0.00347222
 41
0.00347222
  0
VERTEX
  8
0
 10
0.629232
 20
0.21951
 30
0.0
 40
0.00347222
 41
0.00347222
  0
VERTEX
  8
0
 10
0.581054
 20
0.21951
 30
0.0
 40
0.00347222
 41
0.00347222
  0
VERTEX
  8
0
 10
0.581054
 20
0.235406
 30
0.0
 40
0.00347222
 41
0.00347222
  0
VERTEX
  8
0
 10
0.629232
 20
0.235406
 30
0.0
 40
0.00347222
 41
0.00347222
  0
VERTEX
  8
0
 10
0.629232
 20
0.25944
 30
0.0
 40
0.00347222
 41
0.00347222
  0
VERTEX
  8
0
 10
0.581054
 20
0.25944
 30
0.0
 40
0.00347222
 41
0.00347222
  0
SEQEND
 8
0
  0
POLYLINE
  8
0
 62
     250
 66
     1
 10
0
 20
0
 30
0.0
 70
     1
 40
0.25
 41
0.25
  0
VERTEX
  8
0
 10
0.518229
 20
0.235406
 30
0.0
 40
0.00347222
 41
0.00347222
  0
VERTEX
  8
0
 10
0.548774
 20
0.235406
 30
0.0
 40
0.00347222
 41
0.00347222
  0
VERTEX
  8
0
 10
0.548774
 20
0.25944
 30
0.0
 40
0.00347222
 41
0.00347222
  0
VERTEX
  8
0
 10
0.518229
 20
0.25944
 30
0.0
 40
0.00347222
 41
0.00347222
  0
VERTEX
  8
0
 10
0.518229
 20
0.235406
 30
0.0
 40
0.00347222
 41
0.00347222
  0
SEQEND
 8
0
  0
POLYLINE
  8
0
 62
     250
 66
     1
 10
0
 20
0
 30
0.0
 70
     1
 40
0.25
 41
0.25
  0
VERTEX
  8
0
 10
0.548774
 20
0.178765
 30
0.0
 40
0.00347222
 41
0.00347222
  0
VERTEX
  8
0
 10
0.548774
 20
0.21951
 30
0.0
 40
0.00347222
 41
0.00347222
  0
VERTEX
  8
0
 10
0.54221
 20
0.21951
 30
0.0
 40
0.00347222
 41
0.00347222
  0
VERTEX
  8
0
 10
0.518229
 20
0.178765
 30
0.0
 40
0.00347222
 41
0.00347222
  0
VERTEX
  8
0
 10
0.500651
 20
0.178765
 30
0.0
 40
0.00347222
 41
0.00347222
  0
VERTEX
  8
0
 10
0.523492
 20
0.21951
 30
0.0
 40
0.00347222
 41
0.00347222
  0
VERTEX
  8
0
 10
0.500651
 20
0.21951
 30
0.0
 40
0.00347222
 41
0.00347222
  0
VERTEX
  8
0
 10
0.500651
 20
0.27615
 30
0.0
 40
0.00347222
 41
0.00347222
  0
VERTEX
  8
0
 10
0.567492
 20
0.27615
 30
0.0
 40
0.00347222
 41
0.00347222
  0
VERTEX
  8
0
 10
0.567492
 20
0.178765
 30
0.0
 40
0.00347222
 41
0.00347222
  0
VERTEX
  8
0
 10
0.548774
 20
0.178765
 30
0.0
 40
0.00347222
 41
0.00347222
  0
SEQEND
 8
0
  0
POLYLINE
  8
0
 62
     250
 66
     1
 10
0
 20
0
 30
0.0
 70
     1
 40
0.25
 41
0.25
  0
VERTEX
  8
0
 10
0.427354
 20
0.178765
 30
0.0
 40
0.00347222
 41
0.00347222
  0
VERTEX
  8
0
 10
0.408638
 20
0.178765
 30
0.0
 40
0.00347222
 41
0.00347222
  0
VERTEX
  8
0
 10
0.408638
 20
0.259494
 30
0.0
 40
0.00347222
 41
0.00347222
  0
VERTEX
  8
0
 10
0.385742
 20
0.259494
 30
0.0
 40
0.00347222
 41
0.00347222
  0
VERTEX
  8
0
 10
0.385742
 20
0.27615
 30
0.0
 40
0.00347222
 41
0.00347222
  0
VERTEX
  8
0
 10
0.452636
 20
0.27615
 30
0.0
 40
0.00347222
 41
0.00347222
  0
VERTEX
  8
0
 10
0.452636
 20
0.259494
 30
0.0
 40
0.00347222
 41
0.00347222
  0
VERTEX
  8
0
 10
0.427354
 20
0.259494
 30
0.0
 40
0.00347222
 41
0.00347222
  0
VERTEX
  8
0
 10
0.427354
 20
0.178765
 30
0.0
 40
0.00347222
 41
0.00347222
  0
SEQEND
 8
0
  0
POLYLINE
  8
0
 62
     250
 66
     1
 10
0
 20
0
 30
0.0
 70
     1
 40
0.25
 41
0.25
  0
VERTEX
  8
0
 10
0.322917
 20
0.235406
 30
0.0
 40
0.00347222
 41
0.00347222
  0
VERTEX
  8
0
 10
0.353461
 20
0.235406
 30
0.0
 40
0.00347222
 41
0.00347222
  0
VERTEX
  8
0
 10
0.353461
 20
0.25944
 30
0.0
 40
0.00347222
 41
0.00347222
  0
VERTEX
  8
0
 10
0.322917
 20
0.25944
 30
0.0
 40
0.00347222
 41
0.00347222
  0
VERTEX
  8
0
 10
0.322917
 20
0.235406
 30
0.0
 40
0.00347222
 41
0.00347222
  0
SEQEND
 8
0
  0
POLYLINE
  8
0
 62
     250
 66
     1
 10
0
 20
0
 30
0.0
 70
     1
 40
0.25
 41
0.25
  0
VERTEX
  8
0
 10
0.353461
 20
0.178765
 30
0.0
 40
0.00347222
 41
0.00347222
  0
VERTEX
  8
0
 10
0.353461
 20
0.21951
 30
0.0
 40
0.00347222
 41
0.00347222
  0
VERTEX
  8
0
 10
0.346897
 20
0.21951
 30
0.0
 40
0.00347222
 41
0.00347222
  0
VERTEX
  8
0
 10
0.322917
 20
0.178765
 30
0.0
 40
0.00347222
 41
0.00347222
  0
VERTEX
  8
0
 10
0.305339
 20
0.178765
 30
0.0
 40
0.00347222
 41
0.00347222
  0
VERTEX
  8
0
 10
0.328179
 20
0.21951
 30
0.0
 40
0.00347222
 41
0.00347222
  0
VERTEX
  8
0
 10
0.305339
 20
0.21951
 30
0.0
 40
0.00347222
 41
0.00347222
  0
VERTEX
  8
0
 10
0.305339
 20
0.27615
 30
0.0
 40
0.00347222
 41
0.00347222
  0
VERTEX
  8
0
 10
0.372179
 20
0.27615
 30
0.0
 40
0.00347222
 41
0.00347222
  0
VERTEX
  8
0
 10
0.372179
 20
0.178765
 30
0.0
 40
0.00347222
 41
0.00347222
  0
VERTEX
  8
0
 10
0.353461
 20
0.178765
 30
0.0
 40
0.00347222
 41
0.00347222
  0
SEQEND
 8
0
  0
POLYLINE
  8
0
 62
     250
 66
     1
 10
0
 20
0
 30
0.0
 70
     1
 40
0.25
 41
0.25
  0
VERTEX
  8
0
 10
0.273058
 20
0.27615
 30
0.0
 40
0.00347222
 41
0.00347222
  0
VERTEX
  8
0
 10
0.291775
 20
0.27615
 30
0.0
 40
0.00347222
 41
0.00347222
  0
VERTEX
  8
0
 10
0.291775
 20
0.178765
 30
0.0
 40
0.00347222
 41
0.00347222
  0
VERTEX
  8
0
 10
0.273058
 20
0.178765
 30
0.0
 40
0.00347222
 41
0.00347222
  0
VERTEX
  8
0
 10
0.273058
 20
0.27615
 30
0.0
 40
0.00347222
 41
0.00347222
  0
SEQEND
 8
0
  0
POLYLINE
  8
0
 62
     250
 66
     1
 10
0
 20
0
 30
0.0
 70
     1
 40
0.25
 41
0.25
  0
VERTEX
  8
0
 10
0.1926
 20
0.25944
 30
0.0
 40
0.00347222
 41
0.00347222
  0
VERTEX
  8
0
 10
0.1926
 20
0.27615
 30
0.0
 40
0.00347222
 41
0.00347222
  0
VERTEX
  8
0
 10
0.259494
 20
0.27615
 30
0.0
 40
0.00347222
 41
0.00347222
  0
VERTEX
  8
0
 10
0.259494
 20
0.178765
 30
0.0
 40
0.00347222
 41
0.00347222
  0
VERTEX
  8
0
 10
0.1926
 20
0.178765
 30
0.0
 40
0.00347222
 41
0.00347222
  0
VERTEX
  8
0
 10
0.1926
 20
0.195475
 30
0.0
 40
0.00347222
 41
0.00347222
  0
VERTEX
  8
0
 10
0.240776
 20
0.195475
 30
0.0
 40
0.00347222
 41
0.00347222
  0
VERTEX
  8
0
 10
0.240776
 20
0.21951
 30
0.0
 40
0.00347222
 41
0.00347222
  0
VERTEX
  8
0
 10
0.1926
 20
0.21951
 30
0.0
 40
0.00347222
 41
0.00347222
  0
VERTEX
  8
0
 10
0.1926
 20
0.235406
 30
0.0
 40
0.00347222
 41
0.00347222
  0
VERTEX
  8
0
 10
0.240776
 20
0.235406
 30
0.0
 40
0.00347222
 41
0.00347222
  0
VERTEX
  8
0
 10
0.240776
 20
0.25944
 30
0.0
 40
0.00347222
 41
0.00347222
  0
VERTEX
  8
0
 10
0.1926
 20
0.25944
 30
0.0
 40
0.00347222
 41
0.00347222
  0
SEQEND
 8
0
  0
POLYLINE
  8
0
 62
     250
 66
     1
 10
0
 20
0
 30
0.0
 70
     1
 40
0.25
 41
0.25
  0
VERTEX
  8
0
 10
3.01481
 20
0.235406
 30
0.0
 40
0.00347222
 41
0.00347222
  0
VERTEX
  8
0
 10
3.04542
 20
0.235406
 30
0.0
 40
0.00347222
 41
0.00347222
  0
VERTEX
  8
0
 10
3.04542
 20
0.25944
 30
0.0
 40
0.00347222
 41
0.00347222
  0
VERTEX
  8
0
 10
3.01481
 20
0.25944
 30
0.0
 40
0.00347222
 41
0.00347222
  0
VERTEX
  8
0
 10
3.01481
 20
0.235406
 30
0.0
 40
0.00347222
 41
0.00347222
  0
SEQEND
 8
0
  0
POLYLINE
  8
0
 62
     250
 66
     1
 10
0
 20
0
 30
0.0
 70
     1
 40
0.25
 41
0.25
  0
VERTEX
  8
0
 10
3.04542
 20
0.21951
 30
0.0
 40
0.00347222
 41
0.00347222
  0
VERTEX
  8
0
 10
2.99724
 20
0.21951
 30
0.0
 40
0.00347222
 41
0.00347222
  0
VERTEX
  8
0
 10
2.99724
 20
0.27615
 30
0.0
 40
0.00347222
 41
0.00347222
  0
VERTEX
  8
0
 10
3.06413
 20
0.27615
 30
0.0
 40
0.00347222
 41
0.00347222
  0
VERTEX
  8
0
 10
3.06413
 20
0.178765
 30
0.0
 40
0.00347222
 41
0.00347222
  0
VERTEX
  8
0
 10
3.04542
 20
0.178765
 30
0.0
 40
0.00347222
 41
0.00347222
  0
VERTEX
  8
0
 10
3.04542
 20
0.21951
 30
0.0
 40
0.00347222
 41
0.00347222
  0
SEQEND
 8
0
  0
POLYLINE
  8
0
 62
     250
 66
     1
 10
0
 20
0
 30
0.0
 70
     1
 40
0.25
 41
0.25
  0
VERTEX
  8
0
 10
2.93435
 20
0.235406
 30
0.0
 40
0.00347222
 41
0.00347222
  0
VERTEX
  8
0
 10
2.96496
 20
0.235406
 30
0.0
 40
0.00347222
 41
0.00347222
  0
VERTEX
  8
0
 10
2.96496
 20
0.25944
 30
0.0
 40
0.00347222
 41
0.00347222
  0
VERTEX
  8
0
 10
2.93435
 20
0.25944
 30
0.0
 40
0.00347222
 41
0.00347222
  0
VERTEX
  8
0
 10
2.93435
 20
0.235406
 30
0.0
 40
0.00347222
 41
0.00347222
  0
SEQEND
 8
0
  0
POLYLINE
  8
0
 62
     250
 66
     1
 10
0
 20
0
 30
0.0
 70
     1
 40
0.25
 41
0.25
  0
VERTEX
  8
0
 10
2.93435
 20
0.178765
 30
0.0
 40
0.00347222
 41
0.00347222
  0
VERTEX
  8
0
 10
2.91683
 20
0.178765
 30
0.0
 40
0.00347222
 41
0.00347222
  0
VERTEX
  8
0
 10
2.91683
 20
0.27615
 30
0.0
 40
0.00347222
 41
0.00347222
  0
VERTEX
  8
0
 10
2.98367
 20
0.27615
 30
0.0
 40
0.00347222
 41
0.00347222
  0
VERTEX
  8
0
 10
2.98367
 20
0.178765
 30
0.0
 40
0.00347222
 41
0.00347222
  0
VERTEX
  8
0
 10
2.96496
 20
0.178765
 30
0.0
 40
0.00347222
 41
0.00347222
  0
VERTEX
  8
0
 10
2.96496
 20
0.21951
 30
0.0
 40
0.00347222
 41
0.00347222
  0
VERTEX
  8
0
 10
2.93435
 20
0.21951
 30
0.0
 40
0.00347222
 41
0.00347222
  0
VERTEX
  8
0
 10
2.93435
 20
0.178765
 30
0.0
 40
0.00347222
 41
0.00347222
  0
SEQEND
 8
0
  0
POLYLINE
  8
0
 62
     250
 66
     1
 10
0
 20
0
 30
0.0
 70
     1
 40
0.25
 41
0.25
  0
VERTEX
  8
0
 10
2.88456
 20
0.27615
 30
0.0
 40
0.00347222
 41
0.00347222
  0
VERTEX
  8
0
 10
2.90326
 20
0.27615
 30
0.0
 40
0.00347222
 41
0.00347222
  0
VERTEX
  8
0
 10
2.90326
 20
0.178765
 30
0.0
 40
0.00347222
 41
0.00347222
  0
VERTEX
  8
0
 10
2.88456
 20
0.178765
 30
0.0
 40
0.00347222
 41
0.00347222
  0
VERTEX
  8
0
 10
2.88456
 20
0.27615
 30
0.0
 40
0.00347222
 41
0.00347222
  0
SEQEND
 8
0
  0
POLYLINE
  8
0
 62
     250
 66
     1
 10
0
 20
0
 30
0.0
 70
     1
 40
0.25
 41
0.25
  0
VERTEX
  8
0
 10
2.85226
 20
0.27615
 30
0.0
 40
0.00347222
 41
0.00347222
  0
VERTEX
  8
0
 10
2.87099
 20
0.27615
 30
0.0
 40
0.00347222
 41
0.00347222
  0
VERTEX
  8
0
 10
2.87099
 20
0.178765
 30
0.0
 40
0.00347222
 41
0.00347222
  0
VERTEX
  8
0
 10
2.8041
 20
0.178765
 30
0.0
 40
0.00347222
 41
0.00347222
  0
VERTEX
  8
0
 10
2.8041
 20
0.195421
 30
0.0
 40
0.00347222
 41
0.00347222
  0
VERTEX
  8
0
 10
2.85226
 20
0.195421
 30
0.0
 40
0.00347222
 41
0.00347222
  0
VERTEX
  8
0
 10
2.85226
 20
0.27615
 30
0.0
 40
0.00347222
 41
0.00347222
  0
SEQEND
 8
0
  0
POLYLINE
  8
0
 62
     250
 66
     1
 10
0
 20
0
 30
0.0
 70
     1
 40
0.25
 41
0.25
  0
VERTEX
  8
0
 10
2.77181
 20
0.27615
 30
0.0
 40
0.00347222
 41
0.00347222
  0
VERTEX
  8
0
 10
2.79053
 20
0.27615
 30
0.0
 40
0.00347222
 41
0.00347222
  0
VERTEX
  8
0
 10
2.79053
 20
0.178765
 30
0.0
 40
0.00347222
 41
0.00347222
  0
VERTEX
  8
0
 10
2.72368
 20
0.178765
 30
0.0
 40
0.00347222
 41
0.00347222
  0
VERTEX
  8
0
 10
2.72368
 20
0.195421
 30
0.0
 40
0.00347222
 41
0.00347222
  0
VERTEX
  8
0
 10
2.77181
 20
0.195421
 30
0.0
 40
0.00347222
 41
0.00347222
  0
VERTEX
  8
0
 10
2.77181
 20
0.27615
 30
0.0
 40
0.00347222
 41
0.00347222
  0
SEQEND
 8
0
  0
POLYLINE
  8
0
 62
     250
 66
     1
 10
0
 20
0
 30
0.0
 70
     1
 40
0.25
 41
0.25
  0
VERTEX
  8
0
 10
2.64324
 20
0.25944
 30
0.0
 40
0.00347222
 41
0.00347222
  0
VERTEX
  8
0
 10
2.64324
 20
0.27615
 30
0.0
 40
0.00347222
 41
0.00347222
  0
VERTEX
  8
0
 10
2.71012
 20
0.27615
 30
0.0
 40
0.00347222
 41
0.00347222
  0
VERTEX
  8
0
 10
2.71012
 20
0.178765
 30
0.0
 40
0.00347222
 41
0.00347222
  0
VERTEX
  8
0
 10
2.64324
 20
0.178765
 30
0.0
 40
0.00347222
 41
0.00347222
  0
VERTEX
  8
0
 10
2.64324
 20
0.195475
 30
0.0
 40
0.00347222
 41
0.00347222
  0
VERTEX
  8
0
 10
2.6914
 20
0.195475
 30
0.0
 40
0.00347222
 41
0.00347222
  0
VERTEX
  8
0
 10
2.6914
 20
0.21951
 30
0.0
 40
0.00347222
 41
0.00347222
  0
VERTEX
  8
0
 10
2.64324
 20
0.21951
 30
0.0
 40
0.00347222
 41
0.00347222
  0
VERTEX
  8
0
 10
2.64324
 20
0.235406
 30
0.0
 40
0.00347222
 41
0.00347222
  0
VERTEX
  8
0
 10
2.6914
 20
0.235406
 30
0.0
 40
0.00347222
 41
0.00347222
  0
VERTEX
  8
0
 10
2.6914
 20
0.25944
 30
0.0
 40
0.00347222
 41
0.00347222
  0
VERTEX
  8
0
 10
2.64324
 20
0.25944
 30
0.0
 40
0.00347222
 41
0.00347222
  0
SEQEND
 8
0
  0
POLYLINE
  8
0
 62
     250
 66
     1
 10
0
 20
0
 30
0.0
 70
     1
 40
0.25
 41
0.25
  0
VERTEX
  8
0
 10
2.60439
 20
0.178765
 30
0.0
 40
0.00347222
 41
0.00347222
  0
VERTEX
  8
0
 10
2.58567
 20
0.178765
 30
0.0
 40
0.00347222
 41
0.00347222
  0
VERTEX
  8
0
 10
2.58567
 20
0.259494
 30
0.0
 40
0.00347222
 41
0.00347222
  0
VERTEX
  8
0
 10
2.56282
 20
0.259494
 30
0.0
 40
0.00347222
 41
0.00347222
  0
VERTEX
  8
0
 10
2.56282
 20
0.27615
 30
0.0
 40
0.00347222
 41
0.00347222
  0
VERTEX
  8
0
 10
2.62967
 20
0.27615
 30
0.0
 40
0.00347222
 41
0.00347222
  0
VERTEX
  8
0
 10
2.62967
 20
0.259494
 30
0.0
 40
0.00347222
 41
0.00347222
  0
VERTEX
  8
0
 10
2.60439
 20
0.259494
 30
0.0
 40
0.00347222
 41
0.00347222
  0
VERTEX
  8
0
 10
2.60439
 20
0.178765
 30
0.0
 40
0.00347222
 41
0.00347222
  0
SEQEND
 8
0
  0
POLYLINE
  8
0
 62
     250
 66
     1
 10
0
 20
0
 30
0.0
 70
     1
 40
0.25
 41
0.25
  0
VERTEX
  8
0
 10
2.53054
 20
0.196289
 30
0.0
 40
0.00347222
 41
0.00347222
  0
VERTEX
  8
0
 10
2.54926
 20
0.196289
 30
0.0
 40
0.00347222
 41
0.00347222
  0
VERTEX
  8
0
 10
2.54926
 20
0.178765
 30
0.0
 40
0.00347222
 41
0.00347222
  0
VERTEX
  8
0
 10
2.53054
 20
0.178765
 30
0.0
 40
0.00347222
 41
0.00347222
  0
VERTEX
  8
0
 10
2.53054
 20
0.196289
 30
0.0
 40
0.00347222
 41
0.00347222
  0
SEQEND
 8
0
  0
POLYLINE
  8
0
 62
     250
 66
     1
 10
0
 20
0
 30
0.0
 70
     1
 40
0.25
 41
0.25
  0
VERTEX
  8
0
 10
2.45719
 20
0.178765
 30
0.0
 40
0.00347222
 41
0.00347222
  0
VERTEX
  8
0
 10
2.43847
 20
0.178765
 30
0.0
 40
0.00347222
 41
0.00347222
  0
VERTEX
  8
0
 10
2.43847
 20
0.259494
 30
0.0
 40
0.00347222
 41
0.00347222
  0
VERTEX
  8
0
 10
2.41564
 20
0.259494
 30
0.0
 40
0.00347222
 41
0.00347222
  0
VERTEX
  8
0
 10
2.41564
 20
0.27615
 30
0.0
 40
0.00347222
 41
0.00347222
  0
VERTEX
  8
0
 10
2.48253
 20
0.27615
 30
0.0
 40
0.00347222
 41
0.00347222
  0
VERTEX
  8
0
 10
2.48253
 20
0.259494
 30
0.0
 40
0.00347222
 41
0.00347222
  0
VERTEX
  8
0
 10
2.45719
 20
0.259494
 30
0.0
 40
0.00347222
 41
0.00347222
  0
VERTEX
  8
0
 10
2.45719
 20
0.178765
 30
0.0
 40
0.00347222
 41
0.00347222
  0
SEQEND
 8
0
  0
POLYLINE
  8
0
 62
     250
 66
     1
 10
0
 20
0
 30
0.0
 70
     1
 40
0.25
 41
0.25
  0
VERTEX
  8
0
 10
2.35275
 20
0.235406
 30
0.0
 40
0.00347222
 41
0.00347222
  0
VERTEX
  8
0
 10
2.38336
 20
0.235406
 30
0.0
 40
0.00347222
 41
0.00347222
  0
VERTEX
  8
0
 10
2.38336
 20
0.25944
 30
0.0
 40
0.00347222
 41
0.00347222
  0
VERTEX
  8
0
 10
2.35275
 20
0.25944
 30
0.0
 40
0.00347222
 41
0.00347222
  0
VERTEX
  8
0
 10
2.35275
 20
0.235406
 30
0.0
 40
0.00347222
 41
0.00347222
  0
SEQEND
 8
0
  0
POLYLINE
  8
0
 62
     250
 66
     1
 10
0
 20
0
 30
0.0
 70
     1
 40
0.25
 41
0.25
  0
VERTEX
  8
0
 10
2.38336
 20
0.178765
 30
0.0
 40
0.00347222
 41
0.00347222
  0
VERTEX
  8
0
 10
2.38336
 20
0.21951
 30
0.0
 40
0.00347222
 41
0.00347222
  0
VERTEX
  8
0
 10
2.37679
 20
0.21951
 30
0.0
 40
0.00347222
 41
0.00347222
  0
VERTEX
  8
0
 10
2.35275
 20
0.178765
 30
0.0
 40
0.00347222
 41
0.00347222
  0
VERTEX
  8
0
 10
2.33524
 20
0.178765
 30
0.0
 40
0.00347222
 41
0.00347222
  0
VERTEX
  8
0
 10
2.35807
 20
0.21951
 30
0.0
 40
0.00347222
 41
0.00347222
  0
VERTEX
  8
0
 10
2.33524
 20
0.21951
 30
0.0
 40
0.00347222
 41
0.00347222
  0
VERTEX
  8
0
 10
2.33524
 20
0.27615
 30
0.0
 40
0.00347222
 41
0.00347222
  0
VERTEX
  8
0
 10
2.40207
 20
0.27615
 30
0.0
 40
0.00347222
 41
0.00347222
  0
VERTEX
  8
0
 10
2.40207
 20
0.178765
 30
0.0
 40
0.00347222
 41
0.00347222
  0
VERTEX
  8
0
 10
2.38336
 20
0.178765
 30
0.0
 40
0.00347222
 41
0.00347222
  0
SEQEND
 8
0
  0
POLYLINE
  8
0
 62
     250
 66
     1
 10
0
 20
0
 30
0.0
 70
     1
 40
0.25
 41
0.25
  0
VERTEX
  8
0
 10
2.30296
 20
0.27615
 30
0.0
 40
0.00347222
 41
0.00347222
  0
VERTEX
  8
0
 10
2.32167
 20
0.27615
 30
0.0
 40
0.00347222
 41
0.00347222
  0
VERTEX
  8
0
 10
2.32167
 20
0.178765
 30
0.0
 40
0.00347222
 41
0.00347222
  0
VERTEX
  8
0
 10
2.30296
 20
0.178765
 30
0.0
 40
0.00347222
 41
0.00347222
  0
VERTEX
  8
0
 10
2.30296
 20
0.27615
 30
0.0
 40
0.00347222
 41
0.00347222
  0
SEQEND
 8
0
  0
POLYLINE
  8
0
 62
     250
 66
     1
 10
0
 20
0
 30
0.0
 70
     1
 40
0.25
 41
0.25
  0
VERTEX
  8
0
 10
2.2225
 20
0.25944
 30
0.0
 40
0.00347222
 41
0.00347222
  0
VERTEX
  8
0
 10
2.2225
 20
0.27615
 30
0.0
 40
0.00347222
 41
0.00347222
  0
VERTEX
  8
0
 10
2.28939
 20
0.27615
 30
0.0
 40
0.00347222
 41
0.00347222
  0
VERTEX
  8
0
 10
2.28939
 20
0.178765
 30
0.0
 40
0.00347222
 41
0.00347222
  0
VERTEX
  8
0
 10
2.2225
 20
0.178765
 30
0.0
 40
0.00347222
 41
0.00347222
  0
VERTEX
  8
0
 10
2.2225
 20
0.195475
 30
0.0
 40
0.00347222
 41
0.00347222
  0
VERTEX
  8
0
 10
2.27067
 20
0.195475
 30
0.0
 40
0.00347222
 41
0.00347222
  0
VERTEX
  8
0
 10
2.27067
 20
0.21951
 30
0.0
 40
0.00347222
 41
0.00347222
  0
VERTEX
  8
0
 10
2.2225
 20
0.21951
 30
0.0
 40
0.00347222
 41
0.00347222
  0
VERTEX
  8
0
 10
2.2225
 20
0.235406
 30
0.0
 40
0.00347222
 41
0.00347222
  0
VERTEX
  8
0
 10
2.27067
 20
0.235406
 30
0.0
 40
0.00347222
 41
0.00347222
  0
VERTEX
  8
0
 10
2.27067
 20
0.25944
 30
0.0
 40
0.00347222
 41
0.00347222
  0
VERTEX
  8
0
 10
2.2225
 20
0.25944
 30
0.0
 40
0.00347222
 41
0.00347222
  0
SEQEND
 8
0
  0
POLYLINE
  8
0
 62
     250
 66
     1
 10
0
 20
0
 30
0.0
 70
     1
 40
0.25
 41
0.25
  0
VERTEX
  8
0
 10
2.14208
 20
0.25944
 30
0.0
 40
0.00347222
 41
0.00347222
  0
VERTEX
  8
0
 10
2.14208
 20
0.27615
 30
0.0
 40
0.00347222
 41
0.00347222
  0
VERTEX
  8
0
 10
2.20893
 20
0.27615
 30
0.0
 40
0.00347222
 41
0.00347222
  0
VERTEX
  8
0
 10
2.20893
 20
0.178765
 30
0.0
 40
0.00347222
 41
0.00347222
  0
VERTEX
  8
0
 10
2.14208
 20
0.178765
 30
0.0
 40
0.00347222
 41
0.00347222
  0
VERTEX
  8
0
 10
2.14208
 20
0.195475
 30
0.0
 40
0.00347222
 41
0.00347222
  0
VERTEX
  8
0
 10
2.19021
 20
0.195475
 30
0.0
 40
0.00347222
 41
0.00347222
  0
VERTEX
  8
0
 10
2.19021
 20
0.21951
 30
0.0
 40
0.00347222
 41
0.00347222
  0
VERTEX
  8
0
 10
2.14208
 20
0.21951
 30
0.0
 40
0.00347222
 41
0.00347222
  0
VERTEX
  8
0
 10
2.14208
 20
0.235406
 30
0.0
 40
0.00347222
 41
0.00347222
  0
VERTEX
  8
0
 10
2.19021
 20
0.235406
 30
0.0
 40
0.00347222
 41
0.00347222
  0
VERTEX
  8
0
 10
2.19021
 20
0.25944
 30
0.0
 40
0.00347222
 41
0.00347222
  0
VERTEX
  8
0
 10
2.14208
 20
0.25944
 30
0.0
 40
0.00347222
 41
0.00347222
  0
SEQEND
 8
0
  0
ENDSEC
  0
EOF
