  0
SECTION
  2
HEADER
  9
$ACADVER
  1
AC1009
  9
$EXTMIN
 10
0.0
 20
0.0
 30
0.0
  9
$EXTMAX
 10
1000.0
 20
1000.0
 30
0.0
  9
$FILLMODE
 70
 0
  9
$SPLFRAME
 70
 1
  0
ENDSEC
  0
SECTION
  2
TABLES
  0
TABLE
  2
LAYER
 70
1
  0
LAYER
  2
0
 70
     0
 62
     7
  6
CONTINUOUS
  0
ENDTAB
  0
ENDSEC
  0
SECTION
  2
ENTITIES
  0
POLYLINE
  8
0
 62
     250
 66
     1
 10
0
 20
0
 30
0.0
 70
     1
 40
0
 41
0
  0
VERTEX
  8
0
 10
2.65196
 20
1.43153
 30
0.0
 40
0
 41
0
  0
VERTEX
  8
0
 10
2.70975
 20
1.43153
 30
0.0
 40
0
 41
0
  0
VERTEX
  8
0
 10
2.70975
 20
1.41151
 30
0.0
 40
0
 41
0
  0
VERTEX
  8
0
 10
2.6295
 20
1.41151
 30
0.0
 40
0
 41
0
  0
VERTEX
  8
0
 10
2.6295
 20
1.52838
 30
0.0
 40
0
 41
0
  0
VERTEX
  8
0
 10
2.70975
 20
1.52838
 30
0.0
 40
0
 41
0
  0
VERTEX
  8
0
 10
2.70975
 20
1.50836
 30
0.0
 40
0
 41
0
  0
VERTEX
  8
0
 10
2.65196
 20
1.50836
 30
0.0
 40
0
 41
0
  0
VERTEX
  8
0
 10
2.65196
 20
1.43153
 30
0.0
 40
0
 41
0
  0
SEQEND
 8
0
  0
POLYLINE
  8
0
 62
     250
 66
     1
 10
0
 20
0
 30
0.0
 70
     1
 40
0
 41
0
  0
VERTEX
  8
0
 10
2.74849
 20
1.47949
 30
0.0
 40
0
 41
0
  0
VERTEX
  8
0
 10
2.78521
 20
1.47949
 30
0.0
 40
0
 41
0
  0
VERTEX
  8
0
 10
2.78521
 20
1.50836
 30
0.0
 40
0
 41
0
  0
VERTEX
  8
0
 10
2.74849
 20
1.50836
 30
0.0
 40
0
 41
0
  0
VERTEX
  8
0
 10
2.74849
 20
1.47949
 30
0.0
 40
0
 41
0
  0
SEQEND
 8
0
  0
POLYLINE
  8
0
 62
     250
 66
     1
 10
0
 20
0
 30
0.0
 70
     1
 40
0
 41
0
  0
VERTEX
  8
0
 10
2.72601
 20
1.41151
 30
0.0
 40
0
 41
0
  0
VERTEX
  8
0
 10
2.72601
 20
1.52838
 30
0.0
 40
0
 41
0
  0
VERTEX
  8
0
 10
2.80626
 20
1.52838
 30
0.0
 40
0
 41
0
  0
VERTEX
  8
0
 10
2.80626
 20
1.46044
 30
0.0
 40
0
 41
0
  0
VERTEX
  8
0
 10
2.77886
 20
1.46044
 30
0.0
 40
0
 41
0
  0
VERTEX
  8
0
 10
2.80626
 20
1.41151
 30
0.0
 40
0
 41
0
  0
VERTEX
  8
0
 10
2.78521
 20
1.41151
 30
0.0
 40
0
 41
0
  0
VERTEX
  8
0
 10
2.7564
 20
1.46044
 30
0.0
 40
0
 41
0
  0
VERTEX
  8
0
 10
2.74849
 20
1.46044
 30
0.0
 40
0
 41
0
  0
VERTEX
  8
0
 10
2.74849
 20
1.41151
 30
0.0
 40
0
 41
0
  0
VERTEX
  8
0
 10
2.72601
 20
1.41151
 30
0.0
 40
0
 41
0
  0
SEQEND
 8
0
  0
POLYLINE
  8
0
 62
     250
 66
     1
 10
0
 20
0
 30
0.0
 70
     1
 40
0
 41
0
  0
VERTEX
  8
0
 10
2.845
 20
1.47949
 30
0.0
 40
0
 41
0
  0
VERTEX
  8
0
 10
2.88172
 20
1.47949
 30
0.0
 40
0
 41
0
  0
VERTEX
  8
0
 10
2.88172
 20
1.50836
 30
0.0
 40
0
 41
0
  0
VERTEX
  8
0
 10
2.845
 20
1.50836
 30
0.0
 40
0
 41
0
  0
VERTEX
  8
0
 10
2.845
 20
1.47949
 30
0.0
 40
0
 41
0
  0
SEQEND
 8
0
  0
POLYLINE
  8
0
 62
     250
 66
     1
 10
0
 20
0
 30
0.0
 70
     1
 40
0
 41
0
  0
VERTEX
  8
0
 10
2.88172
 20
1.46044
 30
0.0
 40
0
 41
0
  0
VERTEX
  8
0
 10
2.845
 20
1.46044
 30
0.0
 40
0
 41
0
  0
VERTEX
  8
0
 10
2.845
 20
1.41151
 30
0.0
 40
0
 41
0
  0
VERTEX
  8
0
 10
2.82254
 20
1.41151
 30
0.0
 40
0
 41
0
  0
VERTEX
  8
0
 10
2.82254
 20
1.52838
 30
0.0
 40
0
 41
0
  0
VERTEX
  8
0
 10
2.90278
 20
1.52838
 30
0.0
 40
0
 41
0
  0
VERTEX
  8
0
 10
2.90278
 20
1.41151
 30
0.0
 40
0
 41
0
  0
VERTEX
  8
0
 10
2.88172
 20
1.41151
 30
0.0
 40
0
 41
0
  0
VERTEX
  8
0
 10
2.88172
 20
1.46044
 30
0.0
 40
0
 41
0
  0
SEQEND
 8
0
  0
POLYLINE
  8
0
 62
     250
 66
     1
 10
0
 20
0
 30
0.0
 70
     1
 40
0
 41
0
  0
VERTEX
  8
0
 10
2.94943
 20
1.50836
 30
0.0
 40
0
 41
0
  0
VERTEX
  8
0
 10
2.91906
 20
1.50836
 30
0.0
 40
0
 41
0
  0
VERTEX
  8
0
 10
2.91906
 20
1.52838
 30
0.0
 40
0
 41
0
  0
VERTEX
  8
0
 10
2.99929
 20
1.52838
 30
0.0
 40
0
 41
0
  0
VERTEX
  8
0
 10
2.99929
 20
1.50836
 30
0.0
 40
0
 41
0
  0
VERTEX
  8
0
 10
2.9719
 20
1.50836
 30
0.0
 40
0
 41
0
  0
VERTEX
  8
0
 10
2.9719
 20
1.41151
 30
0.0
 40
0
 41
0
  0
VERTEX
  8
0
 10
2.94943
 20
1.41151
 30
0.0
 40
0
 41
0
  0
VERTEX
  8
0
 10
2.94943
 20
1.50836
 30
0.0
 40
0
 41
0
  0
SEQEND
 8
0
  0
POLYLINE
  8
0
 62
     250
 66
     1
 10
0
 20
0
 30
0.0
 70
     1
 40
0
 41
0
  0
VERTEX
  8
0
 10
3.03803
 20
1.50836
 30
0.0
 40
0
 41
0
  0
VERTEX
  8
0
 10
3.03803
 20
1.47949
 30
0.0
 40
0
 41
0
  0
VERTEX
  8
0
 10
3.09581
 20
1.47949
 30
0.0
 40
0
 41
0
  0
VERTEX
  8
0
 10
3.09581
 20
1.46044
 30
0.0
 40
0
 41
0
  0
VERTEX
  8
0
 10
3.03803
 20
1.46044
 30
0.0
 40
0
 41
0
  0
VERTEX
  8
0
 10
3.03803
 20
1.43153
 30
0.0
 40
0
 41
0
  0
VERTEX
  8
0
 10
3.09581
 20
1.43153
 30
0.0
 40
0
 41
0
  0
VERTEX
  8
0
 10
3.09581
 20
1.41151
 30
0.0
 40
0
 41
0
  0
VERTEX
  8
0
 10
3.01557
 20
1.41151
 30
0.0
 40
0
 41
0
  0
VERTEX
  8
0
 10
3.01557
 20
1.52838
 30
0.0
 40
0
 41
0
  0
VERTEX
  8
0
 10
3.09581
 20
1.52838
 30
0.0
 40
0
 41
0
  0
VERTEX
  8
0
 10
3.09581
 20
1.50836
 30
0.0
 40
0
 41
0
  0
VERTEX
  8
0
 10
3.03803
 20
1.50836
 30
0.0
 40
0
 41
0
  0
SEQEND
 8
0
  0
POLYLINE
  8
0
 62
     250
 66
     1
 10
0
 20
0
 30
0.0
 70
     1
 40
0
 41
0
  0
VERTEX
  8
0
 10
3.11208
 20
1.46044
 30
0.0
 40
0
 41
0
  0
VERTEX
  8
0
 10
3.11208
 20
1.52838
 30
0.0
 40
0
 41
0
  0
VERTEX
  8
0
 10
3.19233
 20
1.52838
 30
0.0
 40
0
 41
0
  0
VERTEX
  8
0
 10
3.19233
 20
1.50836
 30
0.0
 40
0
 41
0
  0
VERTEX
  8
0
 10
3.13456
 20
1.50836
 30
0.0
 40
0
 41
0
  0
VERTEX
  8
0
 10
3.13456
 20
1.47949
 30
0.0
 40
0
 41
0
  0
VERTEX
  8
0
 10
3.19233
 20
1.47949
 30
0.0
 40
0
 41
0
  0
VERTEX
  8
0
 10
3.19233
 20
1.41151
 30
0.0
 40
0
 41
0
  0
VERTEX
  8
0
 10
3.11208
 20
1.41151
 30
0.0
 40
0
 41
0
  0
VERTEX
  8
0
 10
3.11208
 20
1.43153
 30
0.0
 40
0
 41
0
  0
VERTEX
  8
0
 10
3.17128
 20
1.43153
 30
0.0
 40
0
 41
0
  0
VERTEX
  8
0
 10
3.17128
 20
1.46044
 30
0.0
 40
0
 41
0
  0
VERTEX
  8
0
 10
3.11208
 20
1.46044
 30
0.0
 40
0
 41
0
  0
SEQEND
 8
0
  0
POLYLINE
  8
0
 62
     250
 66
     1
 10
0
 20
0
 30
0.0
 70
     1
 40
0
 41
0
  0
VERTEX
  8
0
 10
1.6486
 20
1.43153
 30
0.0
 40
0
 41
0
  0
VERTEX
  8
0
 10
1.70638
 20
1.43153
 30
0.0
 40
0
 41
0
  0
VERTEX
  8
0
 10
1.70638
 20
1.41151
 30
0.0
 40
0
 41
0
  0
VERTEX
  8
0
 10
1.62614
 20
1.41151
 30
0.0
 40
0
 41
0
  0
VERTEX
  8
0
 10
1.62614
 20
1.52838
 30
0.0
 40
0
 41
0
  0
VERTEX
  8
0
 10
1.70638
 20
1.52838
 30
0.0
 40
0
 41
0
  0
VERTEX
  8
0
 10
1.70638
 20
1.50836
 30
0.0
 40
0
 41
0
  0
VERTEX
  8
0
 10
1.6486
 20
1.50836
 30
0.0
 40
0
 41
0
  0
VERTEX
  8
0
 10
1.6486
 20
1.43153
 30
0.0
 40
0
 41
0
  0
SEQEND
 8
0
  0
POLYLINE
  8
0
 62
     250
 66
     1
 10
0
 20
0
 30
0.0
 70
     1
 40
0
 41
0
  0
VERTEX
  8
0
 10
1.74511
 20
1.47949
 30
0.0
 40
0
 41
0
  0
VERTEX
  8
0
 10
1.78179
 20
1.47949
 30
0.0
 40
0
 41
0
  0
VERTEX
  8
0
 10
1.78179
 20
1.50836
 30
0.0
 40
0
 41
0
  0
VERTEX
  8
0
 10
1.74511
 20
1.50836
 30
0.0
 40
0
 41
0
  0
VERTEX
  8
0
 10
1.74511
 20
1.47949
 30
0.0
 40
0
 41
0
  0
SEQEND
 8
0
  0
POLYLINE
  8
0
 62
     250
 66
     1
 10
0
 20
0
 30
0.0
 70
     1
 40
0
 41
0
  0
VERTEX
  8
0
 10
1.78179
 20
1.46044
 30
0.0
 40
0
 41
0
  0
VERTEX
  8
0
 10
1.74511
 20
1.46044
 30
0.0
 40
0
 41
0
  0
VERTEX
  8
0
 10
1.74511
 20
1.41151
 30
0.0
 40
0
 41
0
  0
VERTEX
  8
0
 10
1.72265
 20
1.41151
 30
0.0
 40
0
 41
0
  0
VERTEX
  8
0
 10
1.72265
 20
1.52838
 30
0.0
 40
0
 41
0
  0
VERTEX
  8
0
 10
1.8029
 20
1.52838
 30
0.0
 40
0
 41
0
  0
VERTEX
  8
0
 10
1.8029
 20
1.41151
 30
0.0
 40
0
 41
0
  0
VERTEX
  8
0
 10
1.78179
 20
1.41151
 30
0.0
 40
0
 41
0
  0
VERTEX
  8
0
 10
1.78179
 20
1.46044
 30
0.0
 40
0
 41
0
  0
SEQEND
 8
0
  0
POLYLINE
  8
0
 62
     250
 66
     1
 10
0
 20
0
 30
0.0
 70
     1
 40
0
 41
0
  0
VERTEX
  8
0
 10
1.84164
 20
1.47949
 30
0.0
 40
0
 41
0
  0
VERTEX
  8
0
 10
1.87831
 20
1.47949
 30
0.0
 40
0
 41
0
  0
VERTEX
  8
0
 10
1.87831
 20
1.50836
 30
0.0
 40
0
 41
0
  0
VERTEX
  8
0
 10
1.84164
 20
1.50836
 30
0.0
 40
0
 41
0
  0
VERTEX
  8
0
 10
1.84164
 20
1.47949
 30
0.0
 40
0
 41
0
  0
SEQEND
 8
0
  0
POLYLINE
  8
0
 62
     250
 66
     1
 10
0
 20
0
 30
0.0
 70
     1
 40
0
 41
0
  0
VERTEX
  8
0
 10
1.84164
 20
1.41151
 30
0.0
 40
0
 41
0
  0
VERTEX
  8
0
 10
1.81917
 20
1.41151
 30
0.0
 40
0
 41
0
  0
VERTEX
  8
0
 10
1.81917
 20
1.52838
 30
0.0
 40
0
 41
0
  0
VERTEX
  8
0
 10
1.89942
 20
1.52838
 30
0.0
 40
0
 41
0
  0
VERTEX
  8
0
 10
1.89942
 20
1.46044
 30
0.0
 40
0
 41
0
  0
VERTEX
  8
0
 10
1.84164
 20
1.46044
 30
0.0
 40
0
 41
0
  0
VERTEX
  8
0
 10
1.84164
 20
1.41151
 30
0.0
 40
0
 41
0
  0
SEQEND
 8
0
  0
POLYLINE
  8
0
 62
     250
 66
     1
 10
0
 20
0
 30
0.0
 70
     1
 40
0
 41
0
  0
VERTEX
  8
0
 10
1.91569
 20
1.46044
 30
0.0
 40
0
 41
0
  0
VERTEX
  8
0
 10
1.91569
 20
1.52838
 30
0.0
 40
0
 41
0
  0
VERTEX
  8
0
 10
1.99593
 20
1.52838
 30
0.0
 40
0
 41
0
  0
VERTEX
  8
0
 10
1.99593
 20
1.50836
 30
0.0
 40
0
 41
0
  0
VERTEX
  8
0
 10
1.93815
 20
1.50836
 30
0.0
 40
0
 41
0
  0
VERTEX
  8
0
 10
1.93815
 20
1.47949
 30
0.0
 40
0
 41
0
  0
VERTEX
  8
0
 10
1.99593
 20
1.47949
 30
0.0
 40
0
 41
0
  0
VERTEX
  8
0
 10
1.99593
 20
1.41151
 30
0.0
 40
0
 41
0
  0
VERTEX
  8
0
 10
1.91569
 20
1.41151
 30
0.0
 40
0
 41
0
  0
VERTEX
  8
0
 10
1.91569
 20
1.43153
 30
0.0
 40
0
 41
0
  0
VERTEX
  8
0
 10
1.97483
 20
1.43153
 30
0.0
 40
0
 41
0
  0
VERTEX
  8
0
 10
1.97483
 20
1.46044
 30
0.0
 40
0
 41
0
  0
VERTEX
  8
0
 10
1.91569
 20
1.46044
 30
0.0
 40
0
 41
0
  0
SEQEND
 8
0
  0
POLYLINE
  8
0
 62
     250
 66
     1
 10
0
 20
0
 30
0.0
 70
     1
 40
0
 41
0
  0
VERTEX
  8
0
 10
0.456976
 20
1.41644
 30
0.0
 40
0
 41
0
  0
VERTEX
  8
0
 10
0.434517
 20
1.41644
 30
0.0
 40
0
 41
0
  0
VERTEX
  8
0
 10
0.434517
 20
1.53331
 30
0.0
 40
0
 41
0
  0
VERTEX
  8
0
 10
0.514757
 20
1.53331
 30
0.0
 40
0
 41
0
  0
VERTEX
  8
0
 10
0.514757
 20
1.51329
 30
0.0
 40
0
 41
0
  0
VERTEX
  8
0
 10
0.456976
 20
1.51329
 30
0.0
 40
0
 41
0
  0
VERTEX
  8
0
 10
0.456976
 20
1.48443
 30
0.0
 40
0
 41
0
  0
VERTEX
  8
0
 10
0.514757
 20
1.48443
 30
0.0
 40
0
 41
0
  0
VERTEX
  8
0
 10
0.514757
 20
1.46533
 30
0.0
 40
0
 41
0
  0
VERTEX
  8
0
 10
0.456976
 20
1.46533
 30
0.0
 40
0
 41
0
  0
VERTEX
  8
0
 10
0.456976
 20
1.41644
 30
0.0
 40
0
 41
0
  0
SEQEND
 8
0
  0
POLYLINE
  8
0
 62
     250
 66
     1
 10
0
 20
0
 30
0.0
 70
     1
 40
0
 41
0
  0
VERTEX
  8
0
 10
0.553494
 20
1.43647
 30
0.0
 40
0
 41
0
  0
VERTEX
  8
0
 10
0.611274
 20
1.43647
 30
0.0
 40
0
 41
0
  0
VERTEX
  8
0
 10
0.611274
 20
1.41644
 30
0.0
 40
0
 41
0
  0
VERTEX
  8
0
 10
0.531033
 20
1.41644
 30
0.0
 40
0
 41
0
  0
VERTEX
  8
0
 10
0.531033
 20
1.53331
 30
0.0
 40
0
 41
0
  0
VERTEX
  8
0
 10
0.553494
 20
1.53331
 30
0.0
 40
0
 41
0
  0
VERTEX
  8
0
 10
0.553494
 20
1.43647
 30
0.0
 40
0
 41
0
  0
SEQEND
 8
0
  0
POLYLINE
  8
0
 62
     250
 66
     1
 10
0
 20
0
 30
0.0
 70
     1
 40
0
 41
0
  0
VERTEX
  8
0
 10
0.650011
 20
1.48443
 30
0.0
 40
0
 41
0
  0
VERTEX
  8
0
 10
0.68674
 20
1.48443
 30
0.0
 40
0
 41
0
  0
VERTEX
  8
0
 10
0.68674
 20
1.51329
 30
0.0
 40
0
 41
0
  0
VERTEX
  8
0
 10
0.650011
 20
1.51329
 30
0.0
 40
0
 41
0
  0
VERTEX
  8
0
 10
0.650011
 20
1.48443
 30
0.0
 40
0
 41
0
  0
SEQEND
 8
0
  0
POLYLINE
  8
0
 62
     250
 66
     1
 10
0
 20
0
 30
0.0
 70
     1
 40
0
 41
0
  0
VERTEX
  8
0
 10
0.68674
 20
1.46539
 30
0.0
 40
0
 41
0
  0
VERTEX
  8
0
 10
0.650011
 20
1.46539
 30
0.0
 40
0
 41
0
  0
VERTEX
  8
0
 10
0.650011
 20
1.41644
 30
0.0
 40
0
 41
0
  0
VERTEX
  8
0
 10
0.62755
 20
1.41644
 30
0.0
 40
0
 41
0
  0
VERTEX
  8
0
 10
0.62755
 20
1.53331
 30
0.0
 40
0
 41
0
  0
VERTEX
  8
0
 10
0.70779
 20
1.53331
 30
0.0
 40
0
 41
0
  0
VERTEX
  8
0
 10
0.70779
 20
1.41644
 30
0.0
 40
0
 41
0
  0
VERTEX
  8
0
 10
0.68674
 20
1.41644
 30
0.0
 40
0
 41
0
  0
VERTEX
  8
0
 10
0.68674
 20
1.46539
 30
0.0
 40
0
 41
0
  0
SEQEND
 8
0
  0
POLYLINE
  8
0
 62
     250
 66
     1
 10
0
 20
0
 30
0.0
 70
     1
 40
0
 41
0
  0
VERTEX
  8
0
 10
0.746528
 20
1.41644
 30
0.0
 40
0
 41
0
  0
VERTEX
  8
0
 10
0.724067
 20
1.41644
 30
0.0
 40
0
 41
0
  0
VERTEX
  8
0
 10
0.724067
 20
1.53331
 30
0.0
 40
0
 41
0
  0
VERTEX
  8
0
 10
0.746528
 20
1.53331
 30
0.0
 40
0
 41
0
  0
VERTEX
  8
0
 10
0.746528
 20
1.48443
 30
0.0
 40
0
 41
0
  0
VERTEX
  8
0
 10
0.783257
 20
1.53331
 30
0.0
 40
0
 41
0
  0
VERTEX
  8
0
 10
0.804308
 20
1.53331
 30
0.0
 40
0
 41
0
  0
VERTEX
  8
0
 10
0.765192
 20
1.47635
 30
0.0
 40
0
 41
0
  0
VERTEX
  8
0
 10
0.804308
 20
1.41644
 30
0.0
 40
0
 41
0
  0
VERTEX
  8
0
 10
0.783257
 20
1.41644
 30
0.0
 40
0
 41
0
  0
VERTEX
  8
0
 10
0.746528
 20
1.46533
 30
0.0
 40
0
 41
0
  0
VERTEX
  8
0
 10
0.746528
 20
1.41644
 30
0.0
 40
0
 41
0
  0
SEQEND
 8
0
  0
POLYLINE
  8
0
 62
     250
 66
     1
 10
0
 20
0
 30
0.0
 70
     1
 40
0
 41
0
  0
VERTEX
  8
0
 10
0.843044
 20
1.51329
 30
0.0
 40
0
 41
0
  0
VERTEX
  8
0
 10
0.843044
 20
1.48443
 30
0.0
 40
0
 41
0
  0
VERTEX
  8
0
 10
0.900825
 20
1.48443
 30
0.0
 40
0
 41
0
  0
VERTEX
  8
0
 10
0.900825
 20
1.46539
 30
0.0
 40
0
 41
0
  0
VERTEX
  8
0
 10
0.843044
 20
1.46539
 30
0.0
 40
0
 41
0
  0
VERTEX
  8
0
 10
0.843044
 20
1.43647
 30
0.0
 40
0
 41
0
  0
VERTEX
  8
0
 10
0.900825
 20
1.43647
 30
0.0
 40
0
 41
0
  0
VERTEX
  8
0
 10
0.900825
 20
1.41644
 30
0.0
 40
0
 41
0
  0
VERTEX
  8
0
 10
0.820583
 20
1.41644
 30
0.0
 40
0
 41
0
  0
VERTEX
  8
0
 10
0.820583
 20
1.53331
 30
0.0
 40
0
 41
0
  0
VERTEX
  8
0
 10
0.900825
 20
1.53331
 30
0.0
 40
0
 41
0
  0
VERTEX
  8
0
 10
0.900825
 20
1.51329
 30
0.0
 40
0
 41
0
  0
VERTEX
  8
0
 10
0.843044
 20
1.51329
 30
0.0
 40
0
 41
0
  0
SEQEND
 8
0
  0
POLYLINE
  8
0
 62
     250
 66
     1
 10
0
 20
0
 30
0.0
 70
     1
 40
0
 41
0
  0
VERTEX
  8
0
 10
0.917101
 20
1.46539
 30
0.0
 40
0
 41
0
  0
VERTEX
  8
0
 10
0.917101
 20
1.53331
 30
0.0
 40
0
 41
0
  0
VERTEX
  8
0
 10
0.997342
 20
1.53331
 30
0.0
 40
0
 41
0
  0
VERTEX
  8
0
 10
0.997342
 20
1.51329
 30
0.0
 40
0
 41
0
  0
VERTEX
  8
0
 10
0.939561
 20
1.51329
 30
0.0
 40
0
 41
0
  0
VERTEX
  8
0
 10
0.939561
 20
1.48443
 30
0.0
 40
0
 41
0
  0
VERTEX
  8
0
 10
0.997342
 20
1.48443
 30
0.0
 40
0
 41
0
  0
VERTEX
  8
0
 10
0.997342
 20
1.41644
 30
0.0
 40
0
 41
0
  0
VERTEX
  8
0
 10
0.917101
 20
1.41644
 30
0.0
 40
0
 41
0
  0
VERTEX
  8
0
 10
0.917101
 20
1.43647
 30
0.0
 40
0
 41
0
  0
VERTEX
  8
0
 10
0.976292
 20
1.43647
 30
0.0
 40
0
 41
0
  0
VERTEX
  8
0
 10
0.976292
 20
1.46539
 30
0.0
 40
0
 41
0
  0
VERTEX
  8
0
 10
0.917101
 20
1.46539
 30
0.0
 40
0
 41
0
  0
SEQEND
 8
0
  0
POLYLINE
  8
0
 62
     250
 66
     1
 10
0
 20
0
 30
0.0
 70
     1
 40
0
 41
0
  0
VERTEX
  8
0
 10
2.38026
 20
0.386447
 30
0.0
 40
0
 41
0
  0
VERTEX
  8
0
 10
2.38026
 20
0.443088
 30
0.0
 40
0
 41
0
  0
VERTEX
  8
0
 10
2.44715
 20
0.443088
 30
0.0
 40
0
 41
0
  0
VERTEX
  8
0
 10
2.44715
 20
0.426378
 30
0.0
 40
0
 41
0
  0
VERTEX
  8
0
 10
2.39899
 20
0.426378
 30
0.0
 40
0
 41
0
  0
VERTEX
  8
0
 10
2.39899
 20
0.402344
 30
0.0
 40
0
 41
0
  0
VERTEX
  8
0
 10
2.44715
 20
0.402344
 30
0.0
 40
0
 41
0
  0
VERTEX
  8
0
 10
2.44715
 20
0.345649
 30
0.0
 40
0
 41
0
  0
VERTEX
  8
0
 10
2.38026
 20
0.345649
 30
0.0
 40
0
 41
0
  0
VERTEX
  8
0
 10
2.38026
 20
0.362358
 30
0.0
 40
0
 41
0
  0
VERTEX
  8
0
 10
2.42958
 20
0.362358
 30
0.0
 40
0
 41
0
  0
VERTEX
  8
0
 10
2.42958
 20
0.386447
 30
0.0
 40
0
 41
0
  0
VERTEX
  8
0
 10
2.38026
 20
0.386447
 30
0.0
 40
0
 41
0
  0
SEQEND
 8
0
  0
POLYLINE
  8
0
 62
     250
 66
     1
 10
0
 20
0
 30
0.0
 70
     1
 40
0
 41
0
  0
VERTEX
  8
0
 10
2.50999
 20
0.426378
 30
0.0
 40
0
 41
0
  0
VERTEX
  8
0
 10
2.47944
 20
0.426378
 30
0.0
 40
0
 41
0
  0
VERTEX
  8
0
 10
2.47944
 20
0.362358
 30
0.0
 40
0
 41
0
  0
VERTEX
  8
0
 10
2.50999
 20
0.362358
 30
0.0
 40
0
 41
0
  0
VERTEX
  8
0
 10
2.50999
 20
0.426378
 30
0.0
 40
0
 41
0
  0
SEQEND
 8
0
  0
POLYLINE
  8
0
 62
     250
 66
     1
 10
0
 20
0
 30
0.0
 70
     1
 40
0
 41
0
  0
VERTEX
  8
0
 10
2.52756
 20
0.345703
 30
0.0
 40
0
 41
0
  0
VERTEX
  8
0
 10
2.46072
 20
0.345703
 30
0.0
 40
0
 41
0
  0
VERTEX
  8
0
 10
2.46072
 20
0.443088
 30
0.0
 40
0
 41
0
  0
VERTEX
  8
0
 10
2.52756
 20
0.443088
 30
0.0
 40
0
 41
0
  0
VERTEX
  8
0
 10
2.52756
 20
0.345703
 30
0.0
 40
0
 41
0
  0
SEQEND
 8
0
  0
POLYLINE
  8
0
 62
     250
 66
     1
 10
0
 20
0
 30
0.0
 70
     1
 40
0
 41
0
  0
VERTEX
  8
0
 10
2.55985
 20
0.402344
 30
0.0
 40
0
 41
0
  0
VERTEX
  8
0
 10
2.59044
 20
0.402344
 30
0.0
 40
0
 41
0
  0
VERTEX
  8
0
 10
2.59044
 20
0.426378
 30
0.0
 40
0
 41
0
  0
VERTEX
  8
0
 10
2.55985
 20
0.426378
 30
0.0
 40
0
 41
0
  0
VERTEX
  8
0
 10
2.55985
 20
0.402344
 30
0.0
 40
0
 41
0
  0
SEQEND
 8
0
  0
POLYLINE
  8
0
 62
     250
 66
     1
 10
0
 20
0
 30
0.0
 70
     1
 40
0
 41
0
  0
VERTEX
  8
0
 10
2.54112
 20
0.345703
 30
0.0
 40
0
 41
0
  0
VERTEX
  8
0
 10
2.54112
 20
0.443088
 30
0.0
 40
0
 41
0
  0
VERTEX
  8
0
 10
2.60801
 20
0.443088
 30
0.0
 40
0
 41
0
  0
VERTEX
  8
0
 10
2.60801
 20
0.386447
 30
0.0
 40
0
 41
0
  0
VERTEX
  8
0
 10
2.58512
 20
0.386447
 30
0.0
 40
0
 41
0
  0
VERTEX
  8
0
 10
2.60801
 20
0.345703
 30
0.0
 40
0
 41
0
  0
VERTEX
  8
0
 10
2.59044
 20
0.345703
 30
0.0
 40
0
 41
0
  0
VERTEX
  8
0
 10
2.5664
 20
0.386447
 30
0.0
 40
0
 41
0
  0
VERTEX
  8
0
 10
2.55985
 20
0.386447
 30
0.0
 40
0
 41
0
  0
VERTEX
  8
0
 10
2.55985
 20
0.345703
 30
0.0
 40
0
 41
0
  0
VERTEX
  8
0
 10
2.54112
 20
0.345703
 30
0.0
 40
0
 41
0
  0
SEQEND
 8
0
  0
POLYLINE
  8
0
 62
     250
 66
     1
 10
0
 20
0
 30
0.0
 70
     1
 40
0
 41
0
  0
VERTEX
  8
0
 10
2.64686
 20
0.426378
 30
0.0
 40
0
 41
0
  0
VERTEX
  8
0
 10
2.62158
 20
0.426378
 30
0.0
 40
0
 41
0
  0
VERTEX
  8
0
 10
2.62158
 20
0.443088
 30
0.0
 40
0
 41
0
  0
VERTEX
  8
0
 10
2.68842
 20
0.443088
 30
0.0
 40
0
 41
0
  0
VERTEX
  8
0
 10
2.68842
 20
0.426378
 30
0.0
 40
0
 41
0
  0
VERTEX
  8
0
 10
2.66558
 20
0.426378
 30
0.0
 40
0
 41
0
  0
VERTEX
  8
0
 10
2.66558
 20
0.345649
 30
0.0
 40
0
 41
0
  0
VERTEX
  8
0
 10
2.64686
 20
0.345649
 30
0.0
 40
0
 41
0
  0
VERTEX
  8
0
 10
2.64686
 20
0.426378
 30
0.0
 40
0
 41
0
  0
SEQEND
 8
0
  0
POLYLINE
  8
0
 62
     250
 66
     1
 10
0
 20
0
 30
0.0
 70
     1
 40
0
 41
0
  0
VERTEX
  8
0
 10
2.72071
 20
0.426378
 30
0.0
 40
0
 41
0
  0
VERTEX
  8
0
 10
2.72071
 20
0.402344
 30
0.0
 40
0
 41
0
  0
VERTEX
  8
0
 10
2.76887
 20
0.402344
 30
0.0
 40
0
 41
0
  0
VERTEX
  8
0
 10
2.76887
 20
0.386447
 30
0.0
 40
0
 41
0
  0
VERTEX
  8
0
 10
2.72071
 20
0.386447
 30
0.0
 40
0
 41
0
  0
VERTEX
  8
0
 10
2.72071
 20
0.362358
 30
0.0
 40
0
 41
0
  0
VERTEX
  8
0
 10
2.76887
 20
0.362358
 30
0.0
 40
0
 41
0
  0
VERTEX
  8
0
 10
2.76887
 20
0.345649
 30
0.0
 40
0
 41
0
  0
VERTEX
  8
0
 10
2.70199
 20
0.345649
 30
0.0
 40
0
 41
0
  0
VERTEX
  8
0
 10
2.70199
 20
0.443088
 30
0.0
 40
0
 41
0
  0
VERTEX
  8
0
 10
2.76887
 20
0.443088
 30
0.0
 40
0
 41
0
  0
VERTEX
  8
0
 10
2.76887
 20
0.426378
 30
0.0
 40
0
 41
0
  0
VERTEX
  8
0
 10
2.72071
 20
0.426378
 30
0.0
 40
0
 41
0
  0
SEQEND
 8
0
  0
POLYLINE
  8
0
 62
     250
 66
     1
 10
0
 20
0
 30
0.0
 70
     1
 40
0
 41
0
  0
VERTEX
  8
0
 10
2.83171
 20
0.426378
 30
0.0
 40
0
 41
0
  0
VERTEX
  8
0
 10
2.80117
 20
0.426378
 30
0.0
 40
0
 41
0
  0
VERTEX
  8
0
 10
2.80117
 20
0.362358
 30
0.0
 40
0
 41
0
  0
VERTEX
  8
0
 10
2.83171
 20
0.362358
 30
0.0
 40
0
 41
0
  0
VERTEX
  8
0
 10
2.83171
 20
0.426378
 30
0.0
 40
0
 41
0
  0
SEQEND
 8
0
  0
POLYLINE
  8
0
 62
     250
 66
     1
 10
0
 20
0
 30
0.0
 70
     1
 40
0
 41
0
  0
VERTEX
  8
0
 10
2.78244
 20
0.345703
 30
0.0
 40
0
 41
0
  0
VERTEX
  8
0
 10
2.78244
 20
0.443088
 30
0.0
 40
0
 41
0
  0
VERTEX
  8
0
 10
2.84224
 20
0.443088
 30
0.0
 40
0
 41
0
  0
VERTEX
  8
0
 10
2.84928
 20
0.434517
 30
0.0
 40
0
 41
0
  0
VERTEX
  8
0
 10
2.84928
 20
0.354221
 30
0.0
 40
0
 41
0
  0
VERTEX
  8
0
 10
2.84229
 20
0.345703
 30
0.0
 40
0
 41
0
  0
VERTEX
  8
0
 10
2.78244
 20
0.345703
 30
0.0
 40
0
 41
0
  0
SEQEND
 8
0
  0
POLYLINE
  8
0
 62
     250
 66
     1
 10
0
 20
0
 30
0.0
 70
     1
 40
0
 41
0
  0
VERTEX
  8
0
 10
2.91601
 20
0.362358
 30
0.0
 40
0
 41
0
  0
VERTEX
  8
0
 10
2.96419
 20
0.362358
 30
0.0
 40
0
 41
0
  0
VERTEX
  8
0
 10
2.96419
 20
0.345703
 30
0.0
 40
0
 41
0
  0
VERTEX
  8
0
 10
2.89729
 20
0.345703
 30
0.0
 40
0
 41
0
  0
VERTEX
  8
0
 10
2.89729
 20
0.443088
 30
0.0
 40
0
 41
0
  0
VERTEX
  8
0
 10
2.96419
 20
0.443088
 30
0.0
 40
0
 41
0
  0
VERTEX
  8
0
 10
2.96419
 20
0.426378
 30
0.0
 40
0
 41
0
  0
VERTEX
  8
0
 10
2.91601
 20
0.426378
 30
0.0
 40
0
 41
0
  0
VERTEX
  8
0
 10
2.91601
 20
0.362358
 30
0.0
 40
0
 41
0
  0
SEQEND
 8
0
  0
POLYLINE
  8
0
 62
     250
 66
     1
 10
0
 20
0
 30
0.0
 70
     1
 40
0
 41
0
  0
VERTEX
  8
0
 10
2.99647
 20
0.402344
 30
0.0
 40
0
 41
0
  0
VERTEX
  8
0
 10
3.02701
 20
0.402344
 30
0.0
 40
0
 41
0
  0
VERTEX
  8
0
 10
3.02701
 20
0.426378
 30
0.0
 40
0
 41
0
  0
VERTEX
  8
0
 10
2.99647
 20
0.426378
 30
0.0
 40
0
 41
0
  0
VERTEX
  8
0
 10
2.99647
 20
0.402344
 30
0.0
 40
0
 41
0
  0
SEQEND
 8
0
  0
POLYLINE
  8
0
 62
     250
 66
     1
 10
0
 20
0
 30
0.0
 70
     1
 40
0
 41
0
  0
VERTEX
  8
0
 10
2.97775
 20
0.345703
 30
0.0
 40
0
 41
0
  0
VERTEX
  8
0
 10
2.97775
 20
0.443088
 30
0.0
 40
0
 41
0
  0
VERTEX
  8
0
 10
3.0446
 20
0.443088
 30
0.0
 40
0
 41
0
  0
VERTEX
  8
0
 10
3.0446
 20
0.386447
 30
0.0
 40
0
 41
0
  0
VERTEX
  8
0
 10
3.02175
 20
0.386447
 30
0.0
 40
0
 41
0
  0
VERTEX
  8
0
 10
3.0446
 20
0.345703
 30
0.0
 40
0
 41
0
  0
VERTEX
  8
0
 10
3.02701
 20
0.345703
 30
0.0
 40
0
 41
0
  0
VERTEX
  8
0
 10
3.00304
 20
0.386447
 30
0.0
 40
0
 41
0
  0
VERTEX
  8
0
 10
2.99647
 20
0.386447
 30
0.0
 40
0
 41
0
  0
VERTEX
  8
0
 10
2.99647
 20
0.345703
 30
0.0
 40
0
 41
0
  0
VERTEX
  8
0
 10
2.97775
 20
0.345703
 30
0.0
 40
0
 41
0
  0
SEQEND
 8
0
  0
POLYLINE
  8
0
 62
     250
 66
     1
 10
0
 20
0
 30
0.0
 70
     1
 40
0
 41
0
  0
VERTEX
  8
0
 10
3.07688
 20
0.402344
 30
0.0
 40
0
 41
0
  0
VERTEX
  8
0
 10
3.10747
 20
0.402344
 30
0.0
 40
0
 41
0
  0
VERTEX
  8
0
 10
3.10747
 20
0.426378
 30
0.0
 40
0
 41
0
  0
VERTEX
  8
0
 10
3.07688
 20
0.426378
 30
0.0
 40
0
 41
0
  0
VERTEX
  8
0
 10
3.07688
 20
0.402344
 30
0.0
 40
0
 41
0
  0
SEQEND
 8
0
  0
POLYLINE
  8
0
 62
     250
 66
     1
 10
0
 20
0
 30
0.0
 70
     1
 40
0
 41
0
  0
VERTEX
  8
0
 10
3.10747
 20
0.386447
 30
0.0
 40
0
 41
0
  0
VERTEX
  8
0
 10
3.07688
 20
0.386447
 30
0.0
 40
0
 41
0
  0
VERTEX
  8
0
 10
3.07688
 20
0.345703
 30
0.0
 40
0
 41
0
  0
VERTEX
  8
0
 10
3.05817
 20
0.345703
 30
0.0
 40
0
 41
0
  0
VERTEX
  8
0
 10
3.05817
 20
0.443088
 30
0.0
 40
0
 41
0
  0
VERTEX
  8
0
 10
3.12506
 20
0.443088
 30
0.0
 40
0
 41
0
  0
VERTEX
  8
0
 10
3.12506
 20
0.345703
 30
0.0
 40
0
 41
0
  0
VERTEX
  8
0
 10
3.10747
 20
0.345703
 30
0.0
 40
0
 41
0
  0
VERTEX
  8
0
 10
3.10747
 20
0.386447
 30
0.0
 40
0
 41
0
  0
SEQEND
 8
0
  0
POLYLINE
  8
0
 62
     250
 66
     1
 10
0
 20
0
 30
0.0
 70
     1
 40
0
 41
0
  0
VERTEX
  8
0
 10
3.1639
 20
0.426378
 30
0.0
 40
0
 41
0
  0
VERTEX
  8
0
 10
3.13861
 20
0.426378
 30
0.0
 40
0
 41
0
  0
VERTEX
  8
0
 10
3.13861
 20
0.443088
 30
0.0
 40
0
 41
0
  0
VERTEX
  8
0
 10
3.20546
 20
0.443088
 30
0.0
 40
0
 41
0
  0
VERTEX
  8
0
 10
3.20546
 20
0.426378
 30
0.0
 40
0
 41
0
  0
VERTEX
  8
0
 10
3.18261
 20
0.426378
 30
0.0
 40
0
 41
0
  0
VERTEX
  8
0
 10
3.18261
 20
0.345649
 30
0.0
 40
0
 41
0
  0
VERTEX
  8
0
 10
3.1639
 20
0.345649
 30
0.0
 40
0
 41
0
  0
VERTEX
  8
0
 10
3.1639
 20
0.426378
 30
0.0
 40
0
 41
0
  0
SEQEND
 8
0
  0
POLYLINE
  8
0
 62
     250
 66
     1
 10
0
 20
0
 30
0.0
 70
     1
 40
0
 41
0
  0
VERTEX
  8
0
 10
3.23774
 20
0.426378
 30
0.0
 40
0
 41
0
  0
VERTEX
  8
0
 10
3.23774
 20
0.402344
 30
0.0
 40
0
 41
0
  0
VERTEX
  8
0
 10
3.28592
 20
0.402344
 30
0.0
 40
0
 41
0
  0
VERTEX
  8
0
 10
3.28592
 20
0.386447
 30
0.0
 40
0
 41
0
  0
VERTEX
  8
0
 10
3.23774
 20
0.386447
 30
0.0
 40
0
 41
0
  0
VERTEX
  8
0
 10
3.23774
 20
0.362358
 30
0.0
 40
0
 41
0
  0
VERTEX
  8
0
 10
3.28592
 20
0.362358
 30
0.0
 40
0
 41
0
  0
VERTEX
  8
0
 10
3.28592
 20
0.345649
 30
0.0
 40
0
 41
0
  0
VERTEX
  8
0
 10
3.21903
 20
0.345649
 30
0.0
 40
0
 41
0
  0
VERTEX
  8
0
 10
3.21903
 20
0.443088
 30
0.0
 40
0
 41
0
  0
VERTEX
  8
0
 10
3.28592
 20
0.443088
 30
0.0
 40
0
 41
0
  0
VERTEX
  8
0
 10
3.28592
 20
0.426378
 30
0.0
 40
0
 41
0
  0
VERTEX
  8
0
 10
3.23774
 20
0.426378
 30
0.0
 40
0
 41
0
  0
SEQEND
 8
0
  0
POLYLINE
  8
0
 62
     250
 66
     1
 10
0
 20
0
 30
0.0
 70
     1
 40
0
 41
0
  0
VERTEX
  8
0
 10
3.29949
 20
0.386447
 30
0.0
 40
0
 41
0
  0
VERTEX
  8
0
 10
3.29949
 20
0.443088
 30
0.0
 40
0
 41
0
  0
VERTEX
  8
0
 10
3.36632
 20
0.443088
 30
0.0
 40
0
 41
0
  0
VERTEX
  8
0
 10
3.36632
 20
0.426378
 30
0.0
 40
0
 41
0
  0
VERTEX
  8
0
 10
3.31819
 20
0.426378
 30
0.0
 40
0
 41
0
  0
VERTEX
  8
0
 10
3.31819
 20
0.402344
 30
0.0
 40
0
 41
0
  0
VERTEX
  8
0
 10
3.36632
 20
0.402344
 30
0.0
 40
0
 41
0
  0
VERTEX
  8
0
 10
3.36632
 20
0.345649
 30
0.0
 40
0
 41
0
  0
VERTEX
  8
0
 10
3.29949
 20
0.345649
 30
0.0
 40
0
 41
0
  0
VERTEX
  8
0
 10
3.29949
 20
0.362358
 30
0.0
 40
0
 41
0
  0
VERTEX
  8
0
 10
3.34874
 20
0.362358
 30
0.0
 40
0
 41
0
  0
VERTEX
  8
0
 10
3.34874
 20
0.386447
 30
0.0
 40
0
 41
0
  0
VERTEX
  8
0
 10
3.29949
 20
0.386447
 30
0.0
 40
0
 41
0
  0
SEQEND
 8
0
  0
POLYLINE
  8
0
 62
     250
 66
     1
 10
0
 20
0
 30
0.0
 70
     1
 40
0
 41
0
  0
VERTEX
  8
0
 10
1.39844
 20
0.386447
 30
0.0
 40
0
 41
0
  0
VERTEX
  8
0
 10
1.39844
 20
0.443088
 30
0.0
 40
0
 41
0
  0
VERTEX
  8
0
 10
1.46528
 20
0.443088
 30
0.0
 40
0
 41
0
  0
VERTEX
  8
0
 10
1.46528
 20
0.426378
 30
0.0
 40
0
 41
0
  0
VERTEX
  8
0
 10
1.41715
 20
0.426378
 30
0.0
 40
0
 41
0
  0
VERTEX
  8
0
 10
1.41715
 20
0.402344
 30
0.0
 40
0
 41
0
  0
VERTEX
  8
0
 10
1.46528
 20
0.402344
 30
0.0
 40
0
 41
0
  0
VERTEX
  8
0
 10
1.46528
 20
0.345649
 30
0.0
 40
0
 41
0
  0
VERTEX
  8
0
 10
1.39844
 20
0.345649
 30
0.0
 40
0
 41
0
  0
VERTEX
  8
0
 10
1.39844
 20
0.362358
 30
0.0
 40
0
 41
0
  0
VERTEX
  8
0
 10
1.44775
 20
0.362358
 30
0.0
 40
0
 41
0
  0
VERTEX
  8
0
 10
1.44775
 20
0.386447
 30
0.0
 40
0
 41
0
  0
VERTEX
  8
0
 10
1.39844
 20
0.386447
 30
0.0
 40
0
 41
0
  0
SEQEND
 8
0
  0
POLYLINE
  8
0
 62
     250
 66
     1
 10
0
 20
0
 30
0.0
 70
     1
 40
0
 41
0
  0
VERTEX
  8
0
 10
1.52815
 20
0.426378
 30
0.0
 40
0
 41
0
  0
VERTEX
  8
0
 10
1.49756
 20
0.426378
 30
0.0
 40
0
 41
0
  0
VERTEX
  8
0
 10
1.49756
 20
0.362358
 30
0.0
 40
0
 41
0
  0
VERTEX
  8
0
 10
1.52815
 20
0.362358
 30
0.0
 40
0
 41
0
  0
VERTEX
  8
0
 10
1.52815
 20
0.426378
 30
0.0
 40
0
 41
0
  0
SEQEND
 8
0
  0
POLYLINE
  8
0
 62
     250
 66
     1
 10
0
 20
0
 30
0.0
 70
     1
 40
0
 41
0
  0
VERTEX
  8
0
 10
1.54574
 20
0.345703
 30
0.0
 40
0
 41
0
  0
VERTEX
  8
0
 10
1.47885
 20
0.345703
 30
0.0
 40
0
 41
0
  0
VERTEX
  8
0
 10
1.47885
 20
0.443088
 30
0.0
 40
0
 41
0
  0
VERTEX
  8
0
 10
1.54574
 20
0.443088
 30
0.0
 40
0
 41
0
  0
VERTEX
  8
0
 10
1.54574
 20
0.345703
 30
0.0
 40
0
 41
0
  0
SEQEND
 8
0
  0
POLYLINE
  8
0
 62
     250
 66
     1
 10
0
 20
0
 30
0.0
 70
     1
 40
0
 41
0
  0
VERTEX
  8
0
 10
1.57801
 20
0.402344
 30
0.0
 40
0
 41
0
  0
VERTEX
  8
0
 10
1.60856
 20
0.402344
 30
0.0
 40
0
 41
0
  0
VERTEX
  8
0
 10
1.60856
 20
0.426378
 30
0.0
 40
0
 41
0
  0
VERTEX
  8
0
 10
1.57801
 20
0.426378
 30
0.0
 40
0
 41
0
  0
VERTEX
  8
0
 10
1.57801
 20
0.402344
 30
0.0
 40
0
 41
0
  0
SEQEND
 8
0
  0
POLYLINE
  8
0
 62
     250
 66
     1
 10
0
 20
0
 30
0.0
 70
     1
 40
0
 41
0
  0
VERTEX
  8
0
 10
1.55931
 20
0.345703
 30
0.0
 40
0
 41
0
  0
VERTEX
  8
0
 10
1.55931
 20
0.443088
 30
0.0
 40
0
 41
0
  0
VERTEX
  8
0
 10
1.62614
 20
0.443088
 30
0.0
 40
0
 41
0
  0
VERTEX
  8
0
 10
1.62614
 20
0.386447
 30
0.0
 40
0
 41
0
  0
VERTEX
  8
0
 10
1.60331
 20
0.386447
 30
0.0
 40
0
 41
0
  0
VERTEX
  8
0
 10
1.62614
 20
0.345703
 30
0.0
 40
0
 41
0
  0
VERTEX
  8
0
 10
1.60856
 20
0.345703
 30
0.0
 40
0
 41
0
  0
VERTEX
  8
0
 10
1.58458
 20
0.386447
 30
0.0
 40
0
 41
0
  0
VERTEX
  8
0
 10
1.57801
 20
0.386447
 30
0.0
 40
0
 41
0
  0
VERTEX
  8
0
 10
1.57801
 20
0.345703
 30
0.0
 40
0
 41
0
  0
VERTEX
  8
0
 10
1.55931
 20
0.345703
 30
0.0
 40
0
 41
0
  0
SEQEND
 8
0
  0
POLYLINE
  8
0
 62
     250
 66
     1
 10
0
 20
0
 30
0.0
 70
     1
 40
0
 41
0
  0
VERTEX
  8
0
 10
1.66504
 20
0.426378
 30
0.0
 40
0
 41
0
  0
VERTEX
  8
0
 10
1.63971
 20
0.426378
 30
0.0
 40
0
 41
0
  0
VERTEX
  8
0
 10
1.63971
 20
0.443088
 30
0.0
 40
0
 41
0
  0
VERTEX
  8
0
 10
1.7066
 20
0.443088
 30
0.0
 40
0
 41
0
  0
VERTEX
  8
0
 10
1.7066
 20
0.426378
 30
0.0
 40
0
 41
0
  0
VERTEX
  8
0
 10
1.68375
 20
0.426378
 30
0.0
 40
0
 41
0
  0
VERTEX
  8
0
 10
1.68375
 20
0.345649
 30
0.0
 40
0
 41
0
  0
VERTEX
  8
0
 10
1.66504
 20
0.345649
 30
0.0
 40
0
 41
0
  0
VERTEX
  8
0
 10
1.66504
 20
0.426378
 30
0.0
 40
0
 41
0
  0
SEQEND
 8
0
  0
POLYLINE
  8
0
 62
     250
 66
     1
 10
0
 20
0
 30
0.0
 70
     1
 40
0
 41
0
  0
VERTEX
  8
0
 10
1.73887
 20
0.426378
 30
0.0
 40
0
 41
0
  0
VERTEX
  8
0
 10
1.73887
 20
0.402344
 30
0.0
 40
0
 41
0
  0
VERTEX
  8
0
 10
1.787
 20
0.402344
 30
0.0
 40
0
 41
0
  0
VERTEX
  8
0
 10
1.787
 20
0.386447
 30
0.0
 40
0
 41
0
  0
VERTEX
  8
0
 10
1.73887
 20
0.386447
 30
0.0
 40
0
 41
0
  0
VERTEX
  8
0
 10
1.73887
 20
0.362358
 30
0.0
 40
0
 41
0
  0
VERTEX
  8
0
 10
1.787
 20
0.362358
 30
0.0
 40
0
 41
0
  0
VERTEX
  8
0
 10
1.787
 20
0.345649
 30
0.0
 40
0
 41
0
  0
VERTEX
  8
0
 10
1.72017
 20
0.345649
 30
0.0
 40
0
 41
0
  0
VERTEX
  8
0
 10
1.72017
 20
0.443088
 30
0.0
 40
0
 41
0
  0
VERTEX
  8
0
 10
1.787
 20
0.443088
 30
0.0
 40
0
 41
0
  0
VERTEX
  8
0
 10
1.787
 20
0.426378
 30
0.0
 40
0
 41
0
  0
VERTEX
  8
0
 10
1.73887
 20
0.426378
 30
0.0
 40
0
 41
0
  0
SEQEND
 8
0
  0
POLYLINE
  8
0
 62
     250
 66
     1
 10
0
 20
0
 30
0.0
 70
     1
 40
0
 41
0
  0
VERTEX
  8
0
 10
1.84987
 20
0.426378
 30
0.0
 40
0
 41
0
  0
VERTEX
  8
0
 10
1.81928
 20
0.426378
 30
0.0
 40
0
 41
0
  0
VERTEX
  8
0
 10
1.81928
 20
0.362358
 30
0.0
 40
0
 41
0
  0
VERTEX
  8
0
 10
1.84987
 20
0.362358
 30
0.0
 40
0
 41
0
  0
VERTEX
  8
0
 10
1.84987
 20
0.426378
 30
0.0
 40
0
 41
0
  0
SEQEND
 8
0
  0
POLYLINE
  8
0
 62
     250
 66
     1
 10
0
 20
0
 30
0.0
 70
     1
 40
0
 41
0
  0
VERTEX
  8
0
 10
1.80057
 20
0.345703
 30
0.0
 40
0
 41
0
  0
VERTEX
  8
0
 10
1.80057
 20
0.443088
 30
0.0
 40
0
 41
0
  0
VERTEX
  8
0
 10
1.8604
 20
0.443088
 30
0.0
 40
0
 41
0
  0
VERTEX
  8
0
 10
1.86746
 20
0.434517
 30
0.0
 40
0
 41
0
  0
VERTEX
  8
0
 10
1.86746
 20
0.354221
 30
0.0
 40
0
 41
0
  0
VERTEX
  8
0
 10
1.86046
 20
0.345703
 30
0.0
 40
0
 41
0
  0
VERTEX
  8
0
 10
1.80057
 20
0.345703
 30
0.0
 40
0
 41
0
  0
SEQEND
 8
0
  0
POLYLINE
  8
0
 62
     250
 66
     1
 10
0
 20
0
 30
0.0
 70
     1
 40
0
 41
0
  0
VERTEX
  8
0
 10
1.93419
 20
0.362358
 30
0.0
 40
0
 41
0
  0
VERTEX
  8
0
 10
1.98232
 20
0.362358
 30
0.0
 40
0
 41
0
  0
VERTEX
  8
0
 10
1.98232
 20
0.345703
 30
0.0
 40
0
 41
0
  0
VERTEX
  8
0
 10
1.91547
 20
0.345703
 30
0.0
 40
0
 41
0
  0
VERTEX
  8
0
 10
1.91547
 20
0.443088
 30
0.0
 40
0
 41
0
  0
VERTEX
  8
0
 10
1.98232
 20
0.443088
 30
0.0
 40
0
 41
0
  0
VERTEX
  8
0
 10
1.98232
 20
0.426378
 30
0.0
 40
0
 41
0
  0
VERTEX
  8
0
 10
1.93419
 20
0.426378
 30
0.0
 40
0
 41
0
  0
VERTEX
  8
0
 10
1.93419
 20
0.362358
 30
0.0
 40
0
 41
0
  0
SEQEND
 8
0
  0
POLYLINE
  8
0
 62
     250
 66
     1
 10
0
 20
0
 30
0.0
 70
     1
 40
0
 41
0
  0
VERTEX
  8
0
 10
2.0146
 20
0.402344
 30
0.0
 40
0
 41
0
  0
VERTEX
  8
0
 10
2.04519
 20
0.402344
 30
0.0
 40
0
 41
0
  0
VERTEX
  8
0
 10
2.04519
 20
0.426378
 30
0.0
 40
0
 41
0
  0
VERTEX
  8
0
 10
2.0146
 20
0.426378
 30
0.0
 40
0
 41
0
  0
VERTEX
  8
0
 10
2.0146
 20
0.402344
 30
0.0
 40
0
 41
0
  0
SEQEND
 8
0
  0
POLYLINE
  8
0
 62
     250
 66
     1
 10
0
 20
0
 30
0.0
 70
     1
 40
0
 41
0
  0
VERTEX
  8
0
 10
2.04519
 20
0.386447
 30
0.0
 40
0
 41
0
  0
VERTEX
  8
0
 10
2.0146
 20
0.386447
 30
0.0
 40
0
 41
0
  0
VERTEX
  8
0
 10
2.0146
 20
0.345703
 30
0.0
 40
0
 41
0
  0
VERTEX
  8
0
 10
1.99588
 20
0.345703
 30
0.0
 40
0
 41
0
  0
VERTEX
  8
0
 10
1.99588
 20
0.443088
 30
0.0
 40
0
 41
0
  0
VERTEX
  8
0
 10
2.06278
 20
0.443088
 30
0.0
 40
0
 41
0
  0
VERTEX
  8
0
 10
2.06278
 20
0.345703
 30
0.0
 40
0
 41
0
  0
VERTEX
  8
0
 10
2.04519
 20
0.345703
 30
0.0
 40
0
 41
0
  0
VERTEX
  8
0
 10
2.04519
 20
0.386447
 30
0.0
 40
0
 41
0
  0
SEQEND
 8
0
  0
POLYLINE
  8
0
 62
     250
 66
     1
 10
0
 20
0
 30
0.0
 70
     1
 40
0
 41
0
  0
VERTEX
  8
0
 10
2.09506
 20
0.402344
 30
0.0
 40
0
 41
0
  0
VERTEX
  8
0
 10
2.12565
 20
0.402344
 30
0.0
 40
0
 41
0
  0
VERTEX
  8
0
 10
2.12565
 20
0.426378
 30
0.0
 40
0
 41
0
  0
VERTEX
  8
0
 10
2.09506
 20
0.426378
 30
0.0
 40
0
 41
0
  0
VERTEX
  8
0
 10
2.09506
 20
0.402344
 30
0.0
 40
0
 41
0
  0
SEQEND
 8
0
  0
POLYLINE
  8
0
 62
     250
 66
     1
 10
0
 20
0
 30
0.0
 70
     1
 40
0
 41
0
  0
VERTEX
  8
0
 10
2.09506
 20
0.345703
 30
0.0
 40
0
 41
0
  0
VERTEX
  8
0
 10
2.07633
 20
0.345703
 30
0.0
 40
0
 41
0
  0
VERTEX
  8
0
 10
2.07633
 20
0.443088
 30
0.0
 40
0
 41
0
  0
VERTEX
  8
0
 10
2.14318
 20
0.443088
 30
0.0
 40
0
 41
0
  0
VERTEX
  8
0
 10
2.14318
 20
0.386447
 30
0.0
 40
0
 41
0
  0
VERTEX
  8
0
 10
2.09506
 20
0.386447
 30
0.0
 40
0
 41
0
  0
VERTEX
  8
0
 10
2.09506
 20
0.345703
 30
0.0
 40
0
 41
0
  0
SEQEND
 8
0
  0
POLYLINE
  8
0
 62
     250
 66
     1
 10
0
 20
0
 30
0.0
 70
     1
 40
0
 41
0
  0
VERTEX
  8
0
 10
2.15674
 20
0.386447
 30
0.0
 40
0
 41
0
  0
VERTEX
  8
0
 10
2.15674
 20
0.443088
 30
0.0
 40
0
 41
0
  0
VERTEX
  8
0
 10
2.22364
 20
0.443088
 30
0.0
 40
0
 41
0
  0
VERTEX
  8
0
 10
2.22364
 20
0.426378
 30
0.0
 40
0
 41
0
  0
VERTEX
  8
0
 10
2.17546
 20
0.426378
 30
0.0
 40
0
 41
0
  0
VERTEX
  8
0
 10
2.17546
 20
0.402344
 30
0.0
 40
0
 41
0
  0
VERTEX
  8
0
 10
2.22364
 20
0.402344
 30
0.0
 40
0
 41
0
  0
VERTEX
  8
0
 10
2.22364
 20
0.345649
 30
0.0
 40
0
 41
0
  0
VERTEX
  8
0
 10
2.15674
 20
0.345649
 30
0.0
 40
0
 41
0
  0
VERTEX
  8
0
 10
2.15674
 20
0.362358
 30
0.0
 40
0
 41
0
  0
VERTEX
  8
0
 10
2.20606
 20
0.362358
 30
0.0
 40
0
 41
0
  0
VERTEX
  8
0
 10
2.20606
 20
0.386447
 30
0.0
 40
0
 41
0
  0
VERTEX
  8
0
 10
2.15674
 20
0.386447
 30
0.0
 40
0
 41
0
  0
SEQEND
 8
0
  0
POLYLINE
  8
0
 62
     250
 66
     1
 10
0
 20
0
 30
0.0
 70
     1
 40
0
 41
0
  0
VERTEX
  8
0
 10
0.255046
 20
0.378526
 30
0.0
 40
0
 41
0
  0
VERTEX
  8
0
 10
0.255046
 20
0.435167
 30
0.0
 40
0
 41
0
  0
VERTEX
  8
0
 10
0.32194
 20
0.435167
 30
0.0
 40
0
 41
0
  0
VERTEX
  8
0
 10
0.32194
 20
0.418457
 30
0.0
 40
0
 41
0
  0
VERTEX
  8
0
 10
0.273762
 20
0.418457
 30
0.0
 40
0
 41
0
  0
VERTEX
  8
0
 10
0.273762
 20
0.394368
 30
0.0
 40
0
 41
0
  0
VERTEX
  8
0
 10
0.32194
 20
0.394368
 30
0.0
 40
0
 41
0
  0
VERTEX
  8
0
 10
0.32194
 20
0.337728
 30
0.0
 40
0
 41
0
  0
VERTEX
  8
0
 10
0.255046
 20
0.337728
 30
0.0
 40
0
 41
0
  0
VERTEX
  8
0
 10
0.255046
 20
0.354438
 30
0.0
 40
0
 41
0
  0
VERTEX
  8
0
 10
0.304363
 20
0.354438
 30
0.0
 40
0
 41
0
  0
VERTEX
  8
0
 10
0.304363
 20
0.378526
 30
0.0
 40
0
 41
0
  0
VERTEX
  8
0
 10
0.255046
 20
0.378526
 30
0.0
 40
0
 41
0
  0
SEQEND
 8
0
  0
POLYLINE
  8
0
 62
     250
 66
     1
 10
0
 20
0
 30
0.0
 70
     1
 40
0
 41
0
  0
VERTEX
  8
0
 10
0.384819
 20
0.418457
 30
0.0
 40
0
 41
0
  0
VERTEX
  8
0
 10
0.354221
 20
0.418457
 30
0.0
 40
0
 41
0
  0
VERTEX
  8
0
 10
0.354221
 20
0.354438
 30
0.0
 40
0
 41
0
  0
VERTEX
  8
0
 10
0.384819
 20
0.354438
 30
0.0
 40
0
 41
0
  0
VERTEX
  8
0
 10
0.384819
 20
0.418457
 30
0.0
 40
0
 41
0
  0
SEQEND
 8
0
  0
POLYLINE
  8
0
 62
     250
 66
     1
 10
0
 20
0
 30
0.0
 70
     1
 40
0
 41
0
  0
VERTEX
  8
0
 10
0.402344
 20
0.337782
 30
0.0
 40
0
 41
0
  0
VERTEX
  8
0
 10
0.335504
 20
0.337782
 30
0.0
 40
0
 41
0
  0
VERTEX
  8
0
 10
0.335504
 20
0.435167
 30
0.0
 40
0
 41
0
  0
VERTEX
  8
0
 10
0.402344
 20
0.435167
 30
0.0
 40
0
 41
0
  0
VERTEX
  8
0
 10
0.402344
 20
0.337782
 30
0.0
 40
0
 41
0
  0
SEQEND
 8
0
  0
POLYLINE
  8
0
 62
     250
 66
     1
 10
0
 20
0
 30
0.0
 70
     1
 40
0
 41
0
  0
VERTEX
  8
0
 10
0.434625
 20
0.394368
 30
0.0
 40
0
 41
0
  0
VERTEX
  8
0
 10
0.465224
 20
0.394368
 30
0.0
 40
0
 41
0
  0
VERTEX
  8
0
 10
0.465224
 20
0.418457
 30
0.0
 40
0
 41
0
  0
VERTEX
  8
0
 10
0.434625
 20
0.418457
 30
0.0
 40
0
 41
0
  0
VERTEX
  8
0
 10
0.434625
 20
0.394368
 30
0.0
 40
0
 41
0
  0
SEQEND
 8
0
  0
POLYLINE
  8
0
 62
     250
 66
     1
 10
0
 20
0
 30
0.0
 70
     1
 40
0
 41
0
  0
VERTEX
  8
0
 10
0.415907
 20
0.337782
 30
0.0
 40
0
 41
0
  0
VERTEX
  8
0
 10
0.415907
 20
0.435113
 30
0.0
 40
0
 41
0
  0
VERTEX
  8
0
 10
0.482801
 20
0.435113
 30
0.0
 40
0
 41
0
  0
VERTEX
  8
0
 10
0.482801
 20
0.378526
 30
0.0
 40
0
 41
0
  0
VERTEX
  8
0
 10
0.459961
 20
0.378526
 30
0.0
 40
0
 41
0
  0
VERTEX
  8
0
 10
0.482801
 20
0.337782
 30
0.0
 40
0
 41
0
  0
VERTEX
  8
0
 10
0.465224
 20
0.337782
 30
0.0
 40
0
 41
0
  0
VERTEX
  8
0
 10
0.441243
 20
0.378526
 30
0.0
 40
0
 41
0
  0
VERTEX
  8
0
 10
0.434625
 20
0.378526
 30
0.0
 40
0
 41
0
  0
VERTEX
  8
0
 10
0.434625
 20
0.337782
 30
0.0
 40
0
 41
0
  0
VERTEX
  8
0
 10
0.415907
 20
0.337782
 30
0.0
 40
0
 41
0
  0
SEQEND
 8
0
  0
POLYLINE
  8
0
 62
     250
 66
     1
 10
0
 20
0
 30
0.0
 70
     1
 40
0
 41
0
  0
VERTEX
  8
0
 10
0.521647
 20
0.418457
 30
0.0
 40
0
 41
0
  0
VERTEX
  8
0
 10
0.496365
 20
0.418457
 30
0.0
 40
0
 41
0
  0
VERTEX
  8
0
 10
0.496365
 20
0.435167
 30
0.0
 40
0
 41
0
  0
VERTEX
  8
0
 10
0.563206
 20
0.435167
 30
0.0
 40
0
 41
0
  0
VERTEX
  8
0
 10
0.563206
 20
0.418457
 30
0.0
 40
0
 41
0
  0
VERTEX
  8
0
 10
0.540365
 20
0.418457
 30
0.0
 40
0
 41
0
  0
VERTEX
  8
0
 10
0.540365
 20
0.337728
 30
0.0
 40
0
 41
0
  0
VERTEX
  8
0
 10
0.521647
 20
0.337728
 30
0.0
 40
0
 41
0
  0
VERTEX
  8
0
 10
0.521647
 20
0.418457
 30
0.0
 40
0
 41
0
  0
SEQEND
 8
0
  0
POLYLINE
  8
0
 62
     250
 66
     1
 10
0
 20
0
 30
0.0
 70
     1
 40
0
 41
0
  0
VERTEX
  8
0
 10
0.595486
 20
0.418457
 30
0.0
 40
0
 41
0
  0
VERTEX
  8
0
 10
0.595486
 20
0.394368
 30
0.0
 40
0
 41
0
  0
VERTEX
  8
0
 10
0.643664
 20
0.394368
 30
0.0
 40
0
 41
0
  0
VERTEX
  8
0
 10
0.643664
 20
0.378526
 30
0.0
 40
0
 41
0
  0
VERTEX
  8
0
 10
0.595486
 20
0.378526
 30
0.0
 40
0
 41
0
  0
VERTEX
  8
0
 10
0.595486
 20
0.354438
 30
0.0
 40
0
 41
0
  0
VERTEX
  8
0
 10
0.643664
 20
0.354438
 30
0.0
 40
0
 41
0
  0
VERTEX
  8
0
 10
0.643664
 20
0.337728
 30
0.0
 40
0
 41
0
  0
VERTEX
  8
0
 10
0.576768
 20
0.337728
 30
0.0
 40
0
 41
0
  0
VERTEX
  8
0
 10
0.576768
 20
0.435167
 30
0.0
 40
0
 41
0
  0
VERTEX
  8
0
 10
0.643664
 20
0.435167
 30
0.0
 40
0
 41
0
  0
VERTEX
  8
0
 10
0.643664
 20
0.418457
 30
0.0
 40
0
 41
0
  0
VERTEX
  8
0
 10
0.595486
 20
0.418457
 30
0.0
 40
0
 41
0
  0
SEQEND
 8
0
  0
POLYLINE
  8
0
 62
     250
 66
     1
 10
0
 20
0
 30
0.0
 70
     1
 40
0
 41
0
  0
VERTEX
  8
0
 10
0.706543
 20
0.418457
 30
0.0
 40
0
 41
0
  0
VERTEX
  8
0
 10
0.675944
 20
0.418457
 30
0.0
 40
0
 41
0
  0
VERTEX
  8
0
 10
0.675944
 20
0.354438
 30
0.0
 40
0
 41
0
  0
VERTEX
  8
0
 10
0.706543
 20
0.354438
 30
0.0
 40
0
 41
0
  0
VERTEX
  8
0
 10
0.706543
 20
0.418457
 30
0.0
 40
0
 41
0
  0
SEQEND
 8
0
  0
POLYLINE
  8
0
 62
     250
 66
     1
 10
0
 20
0
 30
0.0
 70
     1
 40
0
 41
0
  0
VERTEX
  8
0
 10
0.657226
 20
0.337782
 30
0.0
 40
0
 41
0
  0
VERTEX
  8
0
 10
0.657226
 20
0.435113
 30
0.0
 40
0
 41
0
  0
VERTEX
  8
0
 10
0.717014
 20
0.435113
 30
0.0
 40
0
 41
0
  0
VERTEX
  8
0
 10
0.724067
 20
0.426594
 30
0.0
 40
0
 41
0
  0
VERTEX
  8
0
 10
0.724067
 20
0.3463
 30
0.0
 40
0
 41
0
  0
VERTEX
  8
0
 10
0.717122
 20
0.337782
 30
0.0
 40
0
 41
0
  0
VERTEX
  8
0
 10
0.657226
 20
0.337782
 30
0.0
 40
0
 41
0
  0
SEQEND
 8
0
  0
POLYLINE
  8
0
 62
     250
 66
     1
 10
0
 20
0
 30
0.0
 70
     1
 40
0
 41
0
  0
VERTEX
  8
0
 10
0.790799
 20
0.337782
 30
0.0
 40
0
 41
0
  0
VERTEX
  8
0
 10
0.772081
 20
0.337782
 30
0.0
 40
0
 41
0
  0
VERTEX
  8
0
 10
0.772081
 20
0.435167
 30
0.0
 40
0
 41
0
  0
VERTEX
  8
0
 10
0.838976
 20
0.435167
 30
0.0
 40
0
 41
0
  0
VERTEX
  8
0
 10
0.838976
 20
0.418457
 30
0.0
 40
0
 41
0
  0
VERTEX
  8
0
 10
0.790799
 20
0.418457
 30
0.0
 40
0
 41
0
  0
VERTEX
  8
0
 10
0.790799
 20
0.394368
 30
0.0
 40
0
 41
0
  0
VERTEX
  8
0
 10
0.838976
 20
0.394368
 30
0.0
 40
0
 41
0
  0
VERTEX
  8
0
 10
0.838976
 20
0.378526
 30
0.0
 40
0
 41
0
  0
VERTEX
  8
0
 10
0.790799
 20
0.378526
 30
0.0
 40
0
 41
0
  0
VERTEX
  8
0
 10
0.790799
 20
0.337782
 30
0.0
 40
0
 41
0
  0
SEQEND
 8
0
  0
POLYLINE
  8
0
 62
     250
 66
     1
 10
0
 20
0
 30
0.0
 70
     1
 40
0
 41
0
  0
VERTEX
  8
0
 10
0.871257
 20
0.354438
 30
0.0
 40
0
 41
0
  0
VERTEX
  8
0
 10
0.919379
 20
0.354438
 30
0.0
 40
0
 41
0
  0
VERTEX
  8
0
 10
0.919379
 20
0.337782
 30
0.0
 40
0
 41
0
  0
VERTEX
  8
0
 10
0.852539
 20
0.337782
 30
0.0
 40
0
 41
0
  0
VERTEX
  8
0
 10
0.852539
 20
0.435167
 30
0.0
 40
0
 41
0
  0
VERTEX
  8
0
 10
0.871257
 20
0.435167
 30
0.0
 40
0
 41
0
  0
VERTEX
  8
0
 10
0.871257
 20
0.354438
 30
0.0
 40
0
 41
0
  0
SEQEND
 8
0
  0
POLYLINE
  8
0
 62
     250
 66
     1
 10
0
 20
0
 30
0.0
 70
     1
 40
0
 41
0
  0
VERTEX
  8
0
 10
0.95166
 20
0.394368
 30
0.0
 40
0
 41
0
  0
VERTEX
  8
0
 10
0.98226
 20
0.394368
 30
0.0
 40
0
 41
0
  0
VERTEX
  8
0
 10
0.98226
 20
0.418457
 30
0.0
 40
0
 41
0
  0
VERTEX
  8
0
 10
0.95166
 20
0.418457
 30
0.0
 40
0
 41
0
  0
VERTEX
  8
0
 10
0.95166
 20
0.394368
 30
0.0
 40
0
 41
0
  0
SEQEND
 8
0
  0
POLYLINE
  8
0
 62
     250
 66
     1
 10
0
 20
0
 30
0.0
 70
     1
 40
0
 41
0
  0
VERTEX
  8
0
 10
0.98226
 20
0.378526
 30
0.0
 40
0
 41
0
  0
VERTEX
  8
0
 10
0.95166
 20
0.378526
 30
0.0
 40
0
 41
0
  0
VERTEX
  8
0
 10
0.95166
 20
0.337782
 30
0.0
 40
0
 41
0
  0
VERTEX
  8
0
 10
0.932943
 20
0.337782
 30
0.0
 40
0
 41
0
  0
VERTEX
  8
0
 10
0.932943
 20
0.435113
 30
0.0
 40
0
 41
0
  0
VERTEX
  8
0
 10
0.999837
 20
0.435113
 30
0.0
 40
0
 41
0
  0
VERTEX
  8
0
 10
0.999837
 20
0.337782
 30
0.0
 40
0
 41
0
  0
VERTEX
  8
0
 10
0.98226
 20
0.337782
 30
0.0
 40
0
 41
0
  0
VERTEX
  8
0
 10
0.98226
 20
0.378526
 30
0.0
 40
0
 41
0
  0
SEQEND
 8
0
  0
POLYLINE
  8
0
 62
     250
 66
     1
 10
0
 20
0
 30
0.0
 70
     1
 40
0
 41
0
  0
VERTEX
  8
0
 10
1.03212
 20
0.337782
 30
0.0
 40
0
 41
0
  0
VERTEX
  8
0
 10
1.0134
 20
0.337782
 30
0.0
 40
0
 41
0
  0
VERTEX
  8
0
 10
1.0134
 20
0.435167
 30
0.0
 40
0
 41
0
  0
VERTEX
  8
0
 10
1.03212
 20
0.435167
 30
0.0
 40
0
 41
0
  0
VERTEX
  8
0
 10
1.03212
 20
0.394368
 30
0.0
 40
0
 41
0
  0
VERTEX
  8
0
 10
1.06272
 20
0.435167
 30
0.0
 40
0
 41
0
  0
VERTEX
  8
0
 10
1.08024
 20
0.435167
 30
0.0
 40
0
 41
0
  0
VERTEX
  8
0
 10
1.04763
 20
0.387696
 30
0.0
 40
0
 41
0
  0
VERTEX
  8
0
 10
1.08024
 20
0.337782
 30
0.0
 40
0
 41
0
  0
VERTEX
  8
0
 10
1.06272
 20
0.337782
 30
0.0
 40
0
 41
0
  0
VERTEX
  8
0
 10
1.03212
 20
0.378526
 30
0.0
 40
0
 41
0
  0
VERTEX
  8
0
 10
1.03212
 20
0.337782
 30
0.0
 40
0
 41
0
  0
SEQEND
 8
0
  0
POLYLINE
  8
0
 62
     250
 66
     1
 10
0
 20
0
 30
0.0
 70
     1
 40
0
 41
0
  0
VERTEX
  8
0
 10
1.11252
 20
0.418457
 30
0.0
 40
0
 41
0
  0
VERTEX
  8
0
 10
1.11252
 20
0.394368
 30
0.0
 40
0
 41
0
  0
VERTEX
  8
0
 10
1.1607
 20
0.394368
 30
0.0
 40
0
 41
0
  0
VERTEX
  8
0
 10
1.1607
 20
0.378526
 30
0.0
 40
0
 41
0
  0
VERTEX
  8
0
 10
1.11252
 20
0.378526
 30
0.0
 40
0
 41
0
  0
VERTEX
  8
0
 10
1.11252
 20
0.354438
 30
0.0
 40
0
 41
0
  0
VERTEX
  8
0
 10
1.1607
 20
0.354438
 30
0.0
 40
0
 41
0
  0
VERTEX
  8
0
 10
1.1607
 20
0.337728
 30
0.0
 40
0
 41
0
  0
VERTEX
  8
0
 10
1.0938
 20
0.337728
 30
0.0
 40
0
 41
0
  0
VERTEX
  8
0
 10
1.0938
 20
0.435167
 30
0.0
 40
0
 41
0
  0
VERTEX
  8
0
 10
1.1607
 20
0.435167
 30
0.0
 40
0
 41
0
  0
VERTEX
  8
0
 10
1.1607
 20
0.418457
 30
0.0
 40
0
 41
0
  0
VERTEX
  8
0
 10
1.11252
 20
0.418457
 30
0.0
 40
0
 41
0
  0
SEQEND
 8
0
  0
POLYLINE
  8
0
 62
     250
 66
     1
 10
0
 20
0
 30
0.0
 70
     1
 40
0
 41
0
  0
VERTEX
  8
0
 10
1.17426
 20
0.378526
 30
0.0
 40
0
 41
0
  0
VERTEX
  8
0
 10
1.17426
 20
0.435167
 30
0.0
 40
0
 41
0
  0
VERTEX
  8
0
 10
1.2411
 20
0.435167
 30
0.0
 40
0
 41
0
  0
VERTEX
  8
0
 10
1.2411
 20
0.418457
 30
0.0
 40
0
 41
0
  0
VERTEX
  8
0
 10
1.19298
 20
0.418457
 30
0.0
 40
0
 41
0
  0
VERTEX
  8
0
 10
1.19298
 20
0.394368
 30
0.0
 40
0
 41
0
  0
VERTEX
  8
0
 10
1.2411
 20
0.394368
 30
0.0
 40
0
 41
0
  0
VERTEX
  8
0
 10
1.2411
 20
0.337728
 30
0.0
 40
0
 41
0
  0
VERTEX
  8
0
 10
1.17426
 20
0.337728
 30
0.0
 40
0
 41
0
  0
VERTEX
  8
0
 10
1.17426
 20
0.354438
 30
0.0
 40
0
 41
0
  0
VERTEX
  8
0
 10
1.22358
 20
0.354438
 30
0.0
 40
0
 41
0
  0
VERTEX
  8
0
 10
1.22358
 20
0.378526
 30
0.0
 40
0
 41
0
  0
VERTEX
  8
0
 10
1.17426
 20
0.378526
 30
0.0
 40
0
 41
0
  0
SEQEND
 8
0
  0
POLYLINE
  8
0
 62
     250
 66
     1
 10
0
 20
0
 30
0.0
 70
     1
 40
0
 41
0
  0
VERTEX
  8
0
 10
0.492079
 20
2.57536
 30
0.0
 40
0
 41
0
  0
VERTEX
  8
0
 10
0.520182
 20
2.57536
 30
0.0
 40
0
 41
0
  0
VERTEX
  8
0
 10
0.486219
 20
2.41954
 30
0.0
 40
0
 41
0
  0
VERTEX
  8
0
 10
0.449761
 20
2.41954
 30
0.0
 40
0
 41
0
  0
VERTEX
  8
0
 10
0.413194
 20
2.57536
 30
0.0
 40
0
 41
0
  0
VERTEX
  8
0
 10
0.443143
 20
2.57536
 30
0.0
 40
0
 41
0
  0
VERTEX
  8
0
 10
0.466581
 20
2.45546
 30
0.0
 40
0
 41
0
  0
VERTEX
  8
0
 10
0.492079
 20
2.57536
 30
0.0
 40
0
 41
0
  0
SEQEND
 8
0
  0
POLYLINE
  8
0
 62
     250
 66
     1
 10
0
 20
0
 30
0.0
 70
     1
 40
0
 41
0
  0
VERTEX
  8
0
 10
0.541883
 20
2.57536
 30
0.0
 40
0
 41
0
  0
VERTEX
  8
0
 10
0.571832
 20
2.57536
 30
0.0
 40
0
 41
0
  0
VERTEX
  8
0
 10
0.571832
 20
2.41954
 30
0.0
 40
0
 41
0
  0
VERTEX
  8
0
 10
0.541883
 20
2.41954
 30
0.0
 40
0
 41
0
  0
VERTEX
  8
0
 10
0.541883
 20
2.57536
 30
0.0
 40
0
 41
0
  0
SEQEND
 8
0
  0
POLYLINE
  8
0
 62
     250
 66
     1
 10
0
 20
0
 30
0.0
 70
     1
 40
0
 41
0
  0
VERTEX
  8
0
 10
0.623481
 20
2.51014
 30
0.0
 40
0
 41
0
  0
VERTEX
  8
0
 10
0.672418
 20
2.51014
 30
0.0
 40
0
 41
0
  0
VERTEX
  8
0
 10
0.672418
 20
2.54867
 30
0.0
 40
0
 41
0
  0
VERTEX
  8
0
 10
0.623481
 20
2.54867
 30
0.0
 40
0
 41
0
  0
VERTEX
  8
0
 10
0.623481
 20
2.51014
 30
0.0
 40
0
 41
0
  0
SEQEND
 8
0
  0
POLYLINE
  8
0
 62
     250
 66
     1
 10
0
 20
0
 30
0.0
 70
     1
 40
0
 41
0
  0
VERTEX
  8
0
 10
0.593533
 20
2.41954
 30
0.0
 40
0
 41
0
  0
VERTEX
  8
0
 10
0.593533
 20
2.57536
 30
0.0
 40
0
 41
0
  0
VERTEX
  8
0
 10
0.700521
 20
2.57536
 30
0.0
 40
0
 41
0
  0
VERTEX
  8
0
 10
0.700521
 20
2.48475
 30
0.0
 40
0
 41
0
  0
VERTEX
  8
0
 10
0.663954
 20
2.48475
 30
0.0
 40
0
 41
0
  0
VERTEX
  8
0
 10
0.700521
 20
2.41954
 30
0.0
 40
0
 41
0
  0
VERTEX
  8
0
 10
0.672418
 20
2.41954
 30
0.0
 40
0
 41
0
  0
VERTEX
  8
0
 10
0.634006
 20
2.48475
 30
0.0
 40
0
 41
0
  0
VERTEX
  8
0
 10
0.623481
 20
2.48475
 30
0.0
 40
0
 41
0
  0
VERTEX
  8
0
 10
0.623481
 20
2.41954
 30
0.0
 40
0
 41
0
  0
VERTEX
  8
0
 10
0.593533
 20
2.41954
 30
0.0
 40
0
 41
0
  0
SEQEND
 8
0
  0
POLYLINE
  8
0
 62
     250
 66
     1
 10
0
 20
0
 30
0.0
 70
     1
 40
0
 41
0
  0
VERTEX
  8
0
 10
0.770074
 20
2.51014
 30
0.0
 40
0
 41
0
  0
VERTEX
  8
0
 10
0.82921
 20
2.51014
 30
0.0
 40
0
 41
0
  0
VERTEX
  8
0
 10
0.82921
 20
2.41954
 30
0.0
 40
0
 41
0
  0
VERTEX
  8
0
 10
0.722222
 20
2.41954
 30
0.0
 40
0
 41
0
  0
VERTEX
  8
0
 10
0.722222
 20
2.57536
 30
0.0
 40
0
 41
0
  0
VERTEX
  8
0
 10
0.82921
 20
2.57536
 30
0.0
 40
0
 41
0
  0
VERTEX
  8
0
 10
0.82921
 20
2.54867
 30
0.0
 40
0
 41
0
  0
VERTEX
  8
0
 10
0.752171
 20
2.54867
 30
0.0
 40
0
 41
0
  0
VERTEX
  8
0
 10
0.752171
 20
2.44624
 30
0.0
 40
0
 41
0
  0
VERTEX
  8
0
 10
0.801107
 20
2.44624
 30
0.0
 40
0
 41
0
  0
VERTEX
  8
0
 10
0.801107
 20
2.48475
 30
0.0
 40
0
 41
0
  0
VERTEX
  8
0
 10
0.770074
 20
2.48475
 30
0.0
 40
0
 41
0
  0
VERTEX
  8
0
 10
0.770074
 20
2.51014
 30
0.0
 40
0
 41
0
  0
SEQEND
 8
0
  0
POLYLINE
  8
0
 62
     250
 66
     1
 10
0
 20
0
 30
0.0
 70
     1
 40
0
 41
0
  0
VERTEX
  8
0
 10
0.850911
 20
2.57536
 30
0.0
 40
0
 41
0
  0
VERTEX
  8
0
 10
0.88086
 20
2.57536
 30
0.0
 40
0
 41
0
  0
VERTEX
  8
0
 10
0.88086
 20
2.41954
 30
0.0
 40
0
 41
0
  0
VERTEX
  8
0
 10
0.850911
 20
2.41954
 30
0.0
 40
0
 41
0
  0
VERTEX
  8
0
 10
0.850911
 20
2.57536
 30
0.0
 40
0
 41
0
  0
SEQEND
 8
0
  0
POLYLINE
  8
0
 62
     250
 66
     1
 10
0
 20
0
 30
0.0
 70
     1
 40
0
 41
0
  0
VERTEX
  8
0
 10
0.932508
 20
2.41954
 30
0.0
 40
0
 41
0
  0
VERTEX
  8
0
 10
0.902561
 20
2.41954
 30
0.0
 40
0
 41
0
  0
VERTEX
  8
0
 10
0.902561
 20
2.57536
 30
0.0
 40
0
 41
0
  0
VERTEX
  8
0
 10
0.932508
 20
2.57536
 30
0.0
 40
0
 41
0
  0
VERTEX
  8
0
 10
0.981446
 20
2.48801
 30
0.0
 40
0
 41
0
  0
VERTEX
  8
0
 10
0.981446
 20
2.57536
 30
0.0
 40
0
 41
0
  0
VERTEX
  8
0
 10
1.00955
 20
2.57536
 30
0.0
 40
0
 41
0
  0
VERTEX
  8
0
 10
1.00955
 20
2.41954
 30
0.0
 40
0
 41
0
  0
VERTEX
  8
0
 10
0.981446
 20
2.41954
 30
0.0
 40
0
 41
0
  0
VERTEX
  8
0
 10
0.932508
 20
2.5095
 30
0.0
 40
0
 41
0
  0
VERTEX
  8
0
 10
0.932508
 20
2.41954
 30
0.0
 40
0
 41
0
  0
SEQEND
 8
0
  0
POLYLINE
  8
0
 62
     250
 66
     1
 10
0
 20
0
 30
0.0
 70
     1
 40
0
 41
0
  0
VERTEX
  8
0
 10
1.2717
 20
2.48753
 30
0.0
 40
0
 41
0
  0
VERTEX
  8
0
 10
1.30843
 20
2.48753
 30
0.0
 40
0
 41
0
  0
VERTEX
  8
0
 10
1.30843
 20
2.51639
 30
0.0
 40
0
 41
0
  0
VERTEX
  8
0
 10
1.2717
 20
2.51639
 30
0.0
 40
0
 41
0
  0
VERTEX
  8
0
 10
1.2717
 20
2.48753
 30
0.0
 40
0
 41
0
  0
SEQEND
 8
0
  0
POLYLINE
  8
0
 62
     250
 66
     1
 10
0
 20
0
 30
0.0
 70
     1
 40
0
 41
0
  0
VERTEX
  8
0
 10
1.24924
 20
2.41954
 30
0.0
 40
0
 41
0
  0
VERTEX
  8
0
 10
1.24924
 20
2.5364
 30
0.0
 40
0
 41
0
  0
VERTEX
  8
0
 10
1.32948
 20
2.5364
 30
0.0
 40
0
 41
0
  0
VERTEX
  8
0
 10
1.32948
 20
2.46847
 30
0.0
 40
0
 41
0
  0
VERTEX
  8
0
 10
1.30208
 20
2.46847
 30
0.0
 40
0
 41
0
  0
VERTEX
  8
0
 10
1.32948
 20
2.41954
 30
0.0
 40
0
 41
0
  0
VERTEX
  8
0
 10
1.30843
 20
2.41954
 30
0.0
 40
0
 41
0
  0
VERTEX
  8
0
 10
1.27962
 20
2.46847
 30
0.0
 40
0
 41
0
  0
VERTEX
  8
0
 10
1.2717
 20
2.46847
 30
0.0
 40
0
 41
0
  0
VERTEX
  8
0
 10
1.2717
 20
2.41954
 30
0.0
 40
0
 41
0
  0
VERTEX
  8
0
 10
1.24924
 20
2.41954
 30
0.0
 40
0
 41
0
  0
SEQEND
 8
0
  0
POLYLINE
  8
0
 62
     250
 66
     1
 10
0
 20
0
 30
0.0
 70
     1
 40
0
 41
0
  0
VERTEX
  8
0
 10
1.36822
 20
2.51639
 30
0.0
 40
0
 41
0
  0
VERTEX
  8
0
 10
1.36822
 20
2.48753
 30
0.0
 40
0
 41
0
  0
VERTEX
  8
0
 10
1.426
 20
2.48753
 30
0.0
 40
0
 41
0
  0
VERTEX
  8
0
 10
1.426
 20
2.46847
 30
0.0
 40
0
 41
0
  0
VERTEX
  8
0
 10
1.36822
 20
2.46847
 30
0.0
 40
0
 41
0
  0
VERTEX
  8
0
 10
1.36822
 20
2.43956
 30
0.0
 40
0
 41
0
  0
VERTEX
  8
0
 10
1.426
 20
2.43956
 30
0.0
 40
0
 41
0
  0
VERTEX
  8
0
 10
1.426
 20
2.41954
 30
0.0
 40
0
 41
0
  0
VERTEX
  8
0
 10
1.34576
 20
2.41954
 30
0.0
 40
0
 41
0
  0
VERTEX
  8
0
 10
1.34576
 20
2.5364
 30
0.0
 40
0
 41
0
  0
VERTEX
  8
0
 10
1.426
 20
2.5364
 30
0.0
 40
0
 41
0
  0
VERTEX
  8
0
 10
1.426
 20
2.51639
 30
0.0
 40
0
 41
0
  0
VERTEX
  8
0
 10
1.36822
 20
2.51639
 30
0.0
 40
0
 41
0
  0
SEQEND
 8
0
  0
POLYLINE
  8
0
 62
     250
 66
     1
 10
0
 20
0
 30
0.0
 70
     1
 40
0
 41
0
  0
VERTEX
  8
0
 10
1.47819
 20
2.48753
 30
0.0
 40
0
 41
0
  0
VERTEX
  8
0
 10
1.52251
 20
2.48753
 30
0.0
 40
0
 41
0
  0
VERTEX
  8
0
 10
1.52251
 20
2.41954
 30
0.0
 40
0
 41
0
  0
VERTEX
  8
0
 10
1.44228
 20
2.41954
 30
0.0
 40
0
 41
0
  0
VERTEX
  8
0
 10
1.44228
 20
2.5364
 30
0.0
 40
0
 41
0
  0
VERTEX
  8
0
 10
1.52251
 20
2.5364
 30
0.0
 40
0
 41
0
  0
VERTEX
  8
0
 10
1.52251
 20
2.51639
 30
0.0
 40
0
 41
0
  0
VERTEX
  8
0
 10
1.46474
 20
2.51639
 30
0.0
 40
0
 41
0
  0
VERTEX
  8
0
 10
1.46474
 20
2.43956
 30
0.0
 40
0
 41
0
  0
VERTEX
  8
0
 10
1.50146
 20
2.43956
 30
0.0
 40
0
 41
0
  0
VERTEX
  8
0
 10
1.50146
 20
2.46847
 30
0.0
 40
0
 41
0
  0
VERTEX
  8
0
 10
1.47819
 20
2.46847
 30
0.0
 40
0
 41
0
  0
VERTEX
  8
0
 10
1.47819
 20
2.48753
 30
0.0
 40
0
 41
0
  0
SEQEND
 8
0
  0
POLYLINE
  8
0
 62
     250
 66
     1
 10
0
 20
0
 30
0.0
 70
     1
 40
0
 41
0
  0
VERTEX
  8
0
 10
1.56125
 20
2.51639
 30
0.0
 40
0
 41
0
  0
VERTEX
  8
0
 10
1.56125
 20
2.48753
 30
0.0
 40
0
 41
0
  0
VERTEX
  8
0
 10
1.61903
 20
2.48753
 30
0.0
 40
0
 41
0
  0
VERTEX
  8
0
 10
1.61903
 20
2.46847
 30
0.0
 40
0
 41
0
  0
VERTEX
  8
0
 10
1.56125
 20
2.46847
 30
0.0
 40
0
 41
0
  0
VERTEX
  8
0
 10
1.56125
 20
2.43956
 30
0.0
 40
0
 41
0
  0
VERTEX
  8
0
 10
1.61903
 20
2.43956
 30
0.0
 40
0
 41
0
  0
VERTEX
  8
0
 10
1.61903
 20
2.41954
 30
0.0
 40
0
 41
0
  0
VERTEX
  8
0
 10
1.53879
 20
2.41954
 30
0.0
 40
0
 41
0
  0
VERTEX
  8
0
 10
1.53879
 20
2.5364
 30
0.0
 40
0
 41
0
  0
VERTEX
  8
0
 10
1.61903
 20
2.5364
 30
0.0
 40
0
 41
0
  0
VERTEX
  8
0
 10
1.61903
 20
2.51639
 30
0.0
 40
0
 41
0
  0
VERTEX
  8
0
 10
1.56125
 20
2.51639
 30
0.0
 40
0
 41
0
  0
SEQEND
 8
0
  0
POLYLINE
  8
0
 62
     250
 66
     1
 10
0
 20
0
 30
0.0
 70
     1
 40
0
 41
0
  0
VERTEX
  8
0
 10
1.65776
 20
2.41954
 30
0.0
 40
0
 41
0
  0
VERTEX
  8
0
 10
1.63531
 20
2.41954
 30
0.0
 40
0
 41
0
  0
VERTEX
  8
0
 10
1.63531
 20
2.5364
 30
0.0
 40
0
 41
0
  0
VERTEX
  8
0
 10
1.65776
 20
2.5364
 30
0.0
 40
0
 41
0
  0
VERTEX
  8
0
 10
1.6945
 20
2.47092
 30
0.0
 40
0
 41
0
  0
VERTEX
  8
0
 10
1.6945
 20
2.5364
 30
0.0
 40
0
 41
0
  0
VERTEX
  8
0
 10
1.71556
 20
2.5364
 30
0.0
 40
0
 41
0
  0
VERTEX
  8
0
 10
1.71556
 20
2.41954
 30
0.0
 40
0
 41
0
  0
VERTEX
  8
0
 10
1.6945
 20
2.41954
 30
0.0
 40
0
 41
0
  0
VERTEX
  8
0
 10
1.65776
 20
2.48703
 30
0.0
 40
0
 41
0
  0
VERTEX
  8
0
 10
1.65776
 20
2.41954
 30
0.0
 40
0
 41
0
  0
SEQEND
 8
0
  0
POLYLINE
  8
0
 62
     250
 66
     1
 10
0
 20
0
 30
0.0
 70
     1
 40
0
 41
0
  0
VERTEX
  8
0
 10
1.75429
 20
2.51639
 30
0.0
 40
0
 41
0
  0
VERTEX
  8
0
 10
1.75429
 20
2.48753
 30
0.0
 40
0
 41
0
  0
VERTEX
  8
0
 10
1.81207
 20
2.48753
 30
0.0
 40
0
 41
0
  0
VERTEX
  8
0
 10
1.81207
 20
2.46847
 30
0.0
 40
0
 41
0
  0
VERTEX
  8
0
 10
1.75429
 20
2.46847
 30
0.0
 40
0
 41
0
  0
VERTEX
  8
0
 10
1.75429
 20
2.43956
 30
0.0
 40
0
 41
0
  0
VERTEX
  8
0
 10
1.81207
 20
2.43956
 30
0.0
 40
0
 41
0
  0
VERTEX
  8
0
 10
1.81207
 20
2.41954
 30
0.0
 40
0
 41
0
  0
VERTEX
  8
0
 10
1.73182
 20
2.41954
 30
0.0
 40
0
 41
0
  0
VERTEX
  8
0
 10
1.73182
 20
2.5364
 30
0.0
 40
0
 41
0
  0
VERTEX
  8
0
 10
1.81207
 20
2.5364
 30
0.0
 40
0
 41
0
  0
VERTEX
  8
0
 10
1.81207
 20
2.51639
 30
0.0
 40
0
 41
0
  0
VERTEX
  8
0
 10
1.75429
 20
2.51639
 30
0.0
 40
0
 41
0
  0
SEQEND
 8
0
  0
POLYLINE
  8
0
 62
     250
 66
     1
 10
0
 20
0
 30
0.0
 70
     1
 40
0
 41
0
  0
VERTEX
  8
0
 10
1.85081
 20
2.48753
 30
0.0
 40
0
 41
0
  0
VERTEX
  8
0
 10
1.88753
 20
2.48753
 30
0.0
 40
0
 41
0
  0
VERTEX
  8
0
 10
1.88753
 20
2.51639
 30
0.0
 40
0
 41
0
  0
VERTEX
  8
0
 10
1.85081
 20
2.51639
 30
0.0
 40
0
 41
0
  0
VERTEX
  8
0
 10
1.85081
 20
2.48753
 30
0.0
 40
0
 41
0
  0
SEQEND
 8
0
  0
POLYLINE
  8
0
 62
     250
 66
     1
 10
0
 20
0
 30
0.0
 70
     1
 40
0
 41
0
  0
VERTEX
  8
0
 10
1.82835
 20
2.41954
 30
0.0
 40
0
 41
0
  0
VERTEX
  8
0
 10
1.82835
 20
2.5364
 30
0.0
 40
0
 41
0
  0
VERTEX
  8
0
 10
1.90858
 20
2.5364
 30
0.0
 40
0
 41
0
  0
VERTEX
  8
0
 10
1.90858
 20
2.46847
 30
0.0
 40
0
 41
0
  0
VERTEX
  8
0
 10
1.88118
 20
2.46847
 30
0.0
 40
0
 41
0
  0
VERTEX
  8
0
 10
1.90858
 20
2.41954
 30
0.0
 40
0
 41
0
  0
VERTEX
  8
0
 10
1.88753
 20
2.41954
 30
0.0
 40
0
 41
0
  0
VERTEX
  8
0
 10
1.85872
 20
2.46847
 30
0.0
 40
0
 41
0
  0
VERTEX
  8
0
 10
1.85081
 20
2.46847
 30
0.0
 40
0
 41
0
  0
VERTEX
  8
0
 10
1.85081
 20
2.41954
 30
0.0
 40
0
 41
0
  0
VERTEX
  8
0
 10
1.82835
 20
2.41954
 30
0.0
 40
0
 41
0
  0
SEQEND
 8
0
  0
POLYLINE
  8
0
 62
     250
 66
     1
 10
0
 20
0
 30
0.0
 70
     1
 40
0
 41
0
  0
VERTEX
  8
0
 10
1.94732
 20
2.48753
 30
0.0
 40
0
 41
0
  0
VERTEX
  8
0
 10
1.98406
 20
2.48753
 30
0.0
 40
0
 41
0
  0
VERTEX
  8
0
 10
1.98406
 20
2.51639
 30
0.0
 40
0
 41
0
  0
VERTEX
  8
0
 10
1.94732
 20
2.51639
 30
0.0
 40
0
 41
0
  0
VERTEX
  8
0
 10
1.94732
 20
2.48753
 30
0.0
 40
0
 41
0
  0
SEQEND
 8
0
  0
POLYLINE
  8
0
 62
     250
 66
     1
 10
0
 20
0
 30
0.0
 70
     1
 40
0
 41
0
  0
VERTEX
  8
0
 10
1.98406
 20
2.46847
 30
0.0
 40
0
 41
0
  0
VERTEX
  8
0
 10
1.94732
 20
2.46847
 30
0.0
 40
0
 41
0
  0
VERTEX
  8
0
 10
1.94732
 20
2.41954
 30
0.0
 40
0
 41
0
  0
VERTEX
  8
0
 10
1.92486
 20
2.41954
 30
0.0
 40
0
 41
0
  0
VERTEX
  8
0
 10
1.92486
 20
2.5364
 30
0.0
 40
0
 41
0
  0
VERTEX
  8
0
 10
2.0051
 20
2.5364
 30
0.0
 40
0
 41
0
  0
VERTEX
  8
0
 10
2.0051
 20
2.41954
 30
0.0
 40
0
 41
0
  0
VERTEX
  8
0
 10
1.98406
 20
2.41954
 30
0.0
 40
0
 41
0
  0
VERTEX
  8
0
 10
1.98406
 20
2.46847
 30
0.0
 40
0
 41
0
  0
SEQEND
 8
0
  0
POLYLINE
  8
0
 62
     250
 66
     1
 10
0
 20
0
 30
0.0
 70
     1
 40
0
 41
0
  0
VERTEX
  8
0
 10
2.05176
 20
2.51639
 30
0.0
 40
0
 41
0
  0
VERTEX
  8
0
 10
2.02138
 20
2.51639
 30
0.0
 40
0
 41
0
  0
VERTEX
  8
0
 10
2.02138
 20
2.5364
 30
0.0
 40
0
 41
0
  0
VERTEX
  8
0
 10
2.10161
 20
2.5364
 30
0.0
 40
0
 41
0
  0
VERTEX
  8
0
 10
2.10161
 20
2.51639
 30
0.0
 40
0
 41
0
  0
VERTEX
  8
0
 10
2.07422
 20
2.51639
 30
0.0
 40
0
 41
0
  0
VERTEX
  8
0
 10
2.07422
 20
2.41954
 30
0.0
 40
0
 41
0
  0
VERTEX
  8
0
 10
2.05176
 20
2.41954
 30
0.0
 40
0
 41
0
  0
VERTEX
  8
0
 10
2.05176
 20
2.51639
 30
0.0
 40
0
 41
0
  0
SEQEND
 8
0
  0
POLYLINE
  8
0
 62
     250
 66
     1
 10
0
 20
0
 30
0.0
 70
     1
 40
0
 41
0
  0
VERTEX
  8
0
 10
2.14035
 20
2.51639
 30
0.0
 40
0
 41
0
  0
VERTEX
  8
0
 10
2.14035
 20
2.48753
 30
0.0
 40
0
 41
0
  0
VERTEX
  8
0
 10
2.19814
 20
2.48753
 30
0.0
 40
0
 41
0
  0
VERTEX
  8
0
 10
2.19814
 20
2.46847
 30
0.0
 40
0
 41
0
  0
VERTEX
  8
0
 10
2.14035
 20
2.46847
 30
0.0
 40
0
 41
0
  0
VERTEX
  8
0
 10
2.14035
 20
2.43956
 30
0.0
 40
0
 41
0
  0
VERTEX
  8
0
 10
2.19814
 20
2.43956
 30
0.0
 40
0
 41
0
  0
VERTEX
  8
0
 10
2.19814
 20
2.41954
 30
0.0
 40
0
 41
0
  0
VERTEX
  8
0
 10
2.11789
 20
2.41954
 30
0.0
 40
0
 41
0
  0
VERTEX
  8
0
 10
2.11789
 20
2.5364
 30
0.0
 40
0
 41
0
  0
VERTEX
  8
0
 10
2.19814
 20
2.5364
 30
0.0
 40
0
 41
0
  0
VERTEX
  8
0
 10
2.19814
 20
2.51639
 30
0.0
 40
0
 41
0
  0
VERTEX
  8
0
 10
2.14035
 20
2.51639
 30
0.0
 40
0
 41
0
  0
SEQEND
 8
0
  0
POLYLINE
  8
0
 62
     250
 66
     1
 10
0
 20
0
 30
0.0
 70
     1
 40
0
 41
0
  0
VERTEX
  8
0
 10
2.2736
 20
2.51639
 30
0.0
 40
0
 41
0
  0
VERTEX
  8
0
 10
2.23687
 20
2.51639
 30
0.0
 40
0
 41
0
  0
VERTEX
  8
0
 10
2.23687
 20
2.43956
 30
0.0
 40
0
 41
0
  0
VERTEX
  8
0
 10
2.2736
 20
2.43956
 30
0.0
 40
0
 41
0
  0
VERTEX
  8
0
 10
2.2736
 20
2.51639
 30
0.0
 40
0
 41
0
  0
SEQEND
 8
0
  0
POLYLINE
  8
0
 62
     250
 66
     1
 10
0
 20
0
 30
0.0
 70
     1
 40
0
 41
0
  0
VERTEX
  8
0
 10
2.21442
 20
2.41954
 30
0.0
 40
0
 41
0
  0
VERTEX
  8
0
 10
2.21442
 20
2.5364
 30
0.0
 40
0
 41
0
  0
VERTEX
  8
0
 10
2.28618
 20
2.5364
 30
0.0
 40
0
 41
0
  0
VERTEX
  8
0
 10
2.29465
 20
2.52615
 30
0.0
 40
0
 41
0
  0
VERTEX
  8
0
 10
2.29465
 20
2.42979
 30
0.0
 40
0
 41
0
  0
VERTEX
  8
0
 10
2.28629
 20
2.41954
 30
0.0
 40
0
 41
0
  0
VERTEX
  8
0
 10
2.21442
 20
2.41954
 30
0.0
 40
0
 41
0
  0
SEQEND
 8
0
  0
POLYLINE
  8
0
 62
     250
 66
     1
 10
0
 20
0
 30
0.0
 70
     1
 40
0
 41
0
  0
VERTEX
  8
0
 10
2.41086
 20
2.48753
 30
0.0
 40
0
 41
0
  0
VERTEX
  8
0
 10
2.4476
 20
2.48753
 30
0.0
 40
0
 41
0
  0
VERTEX
  8
0
 10
2.4476
 20
2.51639
 30
0.0
 40
0
 41
0
  0
VERTEX
  8
0
 10
2.41086
 20
2.51639
 30
0.0
 40
0
 41
0
  0
VERTEX
  8
0
 10
2.41086
 20
2.48753
 30
0.0
 40
0
 41
0
  0
SEQEND
 8
0
  0
POLYLINE
  8
0
 62
     250
 66
     1
 10
0
 20
0
 30
0.0
 70
     1
 40
0
 41
0
  0
VERTEX
  8
0
 10
2.3884
 20
2.41954
 30
0.0
 40
0
 41
0
  0
VERTEX
  8
0
 10
2.3884
 20
2.5364
 30
0.0
 40
0
 41
0
  0
VERTEX
  8
0
 10
2.46864
 20
2.5364
 30
0.0
 40
0
 41
0
  0
VERTEX
  8
0
 10
2.46864
 20
2.46847
 30
0.0
 40
0
 41
0
  0
VERTEX
  8
0
 10
2.44125
 20
2.46847
 30
0.0
 40
0
 41
0
  0
VERTEX
  8
0
 10
2.46864
 20
2.41954
 30
0.0
 40
0
 41
0
  0
VERTEX
  8
0
 10
2.4476
 20
2.41954
 30
0.0
 40
0
 41
0
  0
VERTEX
  8
0
 10
2.41878
 20
2.46847
 30
0.0
 40
0
 41
0
  0
VERTEX
  8
0
 10
2.41086
 20
2.46847
 30
0.0
 40
0
 41
0
  0
VERTEX
  8
0
 10
2.41086
 20
2.41954
 30
0.0
 40
0
 41
0
  0
VERTEX
  8
0
 10
2.3884
 20
2.41954
 30
0.0
 40
0
 41
0
  0
SEQEND
 8
0
  0
POLYLINE
  8
0
 62
     250
 66
     1
 10
0
 20
0
 30
0.0
 70
     1
 40
0
 41
0
  0
VERTEX
  8
0
 10
2.50738
 20
2.51639
 30
0.0
 40
0
 41
0
  0
VERTEX
  8
0
 10
2.50738
 20
2.48753
 30
0.0
 40
0
 41
0
  0
VERTEX
  8
0
 10
2.56515
 20
2.48753
 30
0.0
 40
0
 41
0
  0
VERTEX
  8
0
 10
2.56515
 20
2.46847
 30
0.0
 40
0
 41
0
  0
VERTEX
  8
0
 10
2.50738
 20
2.46847
 30
0.0
 40
0
 41
0
  0
VERTEX
  8
0
 10
2.50738
 20
2.43956
 30
0.0
 40
0
 41
0
  0
VERTEX
  8
0
 10
2.56515
 20
2.43956
 30
0.0
 40
0
 41
0
  0
VERTEX
  8
0
 10
2.56515
 20
2.41954
 30
0.0
 40
0
 41
0
  0
VERTEX
  8
0
 10
2.48492
 20
2.41954
 30
0.0
 40
0
 41
0
  0
VERTEX
  8
0
 10
2.48492
 20
2.5364
 30
0.0
 40
0
 41
0
  0
VERTEX
  8
0
 10
2.56515
 20
2.5364
 30
0.0
 40
0
 41
0
  0
VERTEX
  8
0
 10
2.56515
 20
2.51639
 30
0.0
 40
0
 41
0
  0
VERTEX
  8
0
 10
2.50738
 20
2.51639
 30
0.0
 40
0
 41
0
  0
SEQEND
 8
0
  0
POLYLINE
  8
0
 62
     250
 66
     1
 10
0
 20
0
 30
0.0
 70
     1
 40
0
 41
0
  0
VERTEX
  8
0
 10
2.61735
 20
2.48753
 30
0.0
 40
0
 41
0
  0
VERTEX
  8
0
 10
2.66168
 20
2.48753
 30
0.0
 40
0
 41
0
  0
VERTEX
  8
0
 10
2.66168
 20
2.41954
 30
0.0
 40
0
 41
0
  0
VERTEX
  8
0
 10
2.58143
 20
2.41954
 30
0.0
 40
0
 41
0
  0
VERTEX
  8
0
 10
2.58143
 20
2.5364
 30
0.0
 40
0
 41
0
  0
VERTEX
  8
0
 10
2.66168
 20
2.5364
 30
0.0
 40
0
 41
0
  0
VERTEX
  8
0
 10
2.66168
 20
2.51639
 30
0.0
 40
0
 41
0
  0
VERTEX
  8
0
 10
2.60389
 20
2.51639
 30
0.0
 40
0
 41
0
  0
VERTEX
  8
0
 10
2.60389
 20
2.43956
 30
0.0
 40
0
 41
0
  0
VERTEX
  8
0
 10
2.64063
 20
2.43956
 30
0.0
 40
0
 41
0
  0
VERTEX
  8
0
 10
2.64063
 20
2.46847
 30
0.0
 40
0
 41
0
  0
VERTEX
  8
0
 10
2.61735
 20
2.46847
 30
0.0
 40
0
 41
0
  0
VERTEX
  8
0
 10
2.61735
 20
2.48753
 30
0.0
 40
0
 41
0
  0
SEQEND
 8
0
  0
POLYLINE
  8
0
 62
     250
 66
     1
 10
0
 20
0
 30
0.0
 70
     1
 40
0
 41
0
  0
VERTEX
  8
0
 10
2.70042
 20
2.48753
 30
0.0
 40
0
 41
0
  0
VERTEX
  8
0
 10
2.73714
 20
2.48753
 30
0.0
 40
0
 41
0
  0
VERTEX
  8
0
 10
2.73714
 20
2.51639
 30
0.0
 40
0
 41
0
  0
VERTEX
  8
0
 10
2.70042
 20
2.51639
 30
0.0
 40
0
 41
0
  0
VERTEX
  8
0
 10
2.70042
 20
2.48753
 30
0.0
 40
0
 41
0
  0
SEQEND
 8
0
  0
POLYLINE
  8
0
 62
     250
 66
     1
 10
0
 20
0
 30
0.0
 70
     1
 40
0
 41
0
  0
VERTEX
  8
0
 10
2.67796
 20
2.41954
 30
0.0
 40
0
 41
0
  0
VERTEX
  8
0
 10
2.67796
 20
2.5364
 30
0.0
 40
0
 41
0
  0
VERTEX
  8
0
 10
2.75819
 20
2.5364
 30
0.0
 40
0
 41
0
  0
VERTEX
  8
0
 10
2.75819
 20
2.46847
 30
0.0
 40
0
 41
0
  0
VERTEX
  8
0
 10
2.73079
 20
2.46847
 30
0.0
 40
0
 41
0
  0
VERTEX
  8
0
 10
2.75819
 20
2.41954
 30
0.0
 40
0
 41
0
  0
VERTEX
  8
0
 10
2.73714
 20
2.41954
 30
0.0
 40
0
 41
0
  0
VERTEX
  8
0
 10
2.70833
 20
2.46847
 30
0.0
 40
0
 41
0
  0
VERTEX
  8
0
 10
2.70042
 20
2.46847
 30
0.0
 40
0
 41
0
  0
VERTEX
  8
0
 10
2.70042
 20
2.41954
 30
0.0
 40
0
 41
0
  0
VERTEX
  8
0
 10
2.67796
 20
2.41954
 30
0.0
 40
0
 41
0
  0
SEQEND
 8
0
  0
POLYLINE
  8
0
 62
     250
 66
     1
 10
0
 20
0
 30
0.0
 70
     1
 40
0
 41
0
  0
VERTEX
  8
0
 10
2.77447
 20
2.5364
 30
0.0
 40
0
 41
0
  0
VERTEX
  8
0
 10
2.79693
 20
2.5364
 30
0.0
 40
0
 41
0
  0
VERTEX
  8
0
 10
2.79693
 20
2.41954
 30
0.0
 40
0
 41
0
  0
VERTEX
  8
0
 10
2.77447
 20
2.41954
 30
0.0
 40
0
 41
0
  0
VERTEX
  8
0
 10
2.77447
 20
2.5364
 30
0.0
 40
0
 41
0
  0
SEQEND
 8
0
  0
POLYLINE
  8
0
 62
     250
 66
     1
 10
0
 20
0
 30
0.0
 70
     1
 40
0
 41
0
  0
VERTEX
  8
0
 10
2.83567
 20
2.41954
 30
0.0
 40
0
 41
0
  0
VERTEX
  8
0
 10
2.81321
 20
2.41954
 30
0.0
 40
0
 41
0
  0
VERTEX
  8
0
 10
2.81321
 20
2.5364
 30
0.0
 40
0
 41
0
  0
VERTEX
  8
0
 10
2.83567
 20
2.5364
 30
0.0
 40
0
 41
0
  0
VERTEX
  8
0
 10
2.8724
 20
2.47092
 30
0.0
 40
0
 41
0
  0
VERTEX
  8
0
 10
2.8724
 20
2.5364
 30
0.0
 40
0
 41
0
  0
VERTEX
  8
0
 10
2.89344
 20
2.5364
 30
0.0
 40
0
 41
0
  0
VERTEX
  8
0
 10
2.89344
 20
2.41954
 30
0.0
 40
0
 41
0
  0
VERTEX
  8
0
 10
2.8724
 20
2.41954
 30
0.0
 40
0
 41
0
  0
VERTEX
  8
0
 10
2.83567
 20
2.48703
 30
0.0
 40
0
 41
0
  0
VERTEX
  8
0
 10
2.83567
 20
2.41954
 30
0.0
 40
0
 41
0
  0
SEQEND
 8
0
  0
POLYLINE
  8
0
 62
     250
 66
     1
 10
0
 20
0
 30
0.0
 70
     1
 40
0
 41
0
  0
VERTEX
  8
0
 10
2.93218
 20
2.51639
 30
0.0
 40
0
 41
0
  0
VERTEX
  8
0
 10
2.93218
 20
2.48753
 30
0.0
 40
0
 41
0
  0
VERTEX
  8
0
 10
2.98996
 20
2.48753
 30
0.0
 40
0
 41
0
  0
VERTEX
  8
0
 10
2.98996
 20
2.46847
 30
0.0
 40
0
 41
0
  0
VERTEX
  8
0
 10
2.93218
 20
2.46847
 30
0.0
 40
0
 41
0
  0
VERTEX
  8
0
 10
2.93218
 20
2.43956
 30
0.0
 40
0
 41
0
  0
VERTEX
  8
0
 10
2.98996
 20
2.43956
 30
0.0
 40
0
 41
0
  0
VERTEX
  8
0
 10
2.98996
 20
2.41954
 30
0.0
 40
0
 41
0
  0
VERTEX
  8
0
 10
2.90972
 20
2.41954
 30
0.0
 40
0
 41
0
  0
VERTEX
  8
0
 10
2.90972
 20
2.5364
 30
0.0
 40
0
 41
0
  0
VERTEX
  8
0
 10
2.98996
 20
2.5364
 30
0.0
 40
0
 41
0
  0
VERTEX
  8
0
 10
2.98996
 20
2.51639
 30
0.0
 40
0
 41
0
  0
VERTEX
  8
0
 10
2.93218
 20
2.51639
 30
0.0
 40
0
 41
0
  0
SEQEND
 8
0
  0
POLYLINE
  8
0
 62
     250
 66
     1
 10
0
 20
0
 30
0.0
 70
     1
 40
0
 41
0
  0
VERTEX
  8
0
 10
3.06543
 20
2.51639
 30
0.0
 40
0
 41
0
  0
VERTEX
  8
0
 10
3.02869
 20
2.51639
 30
0.0
 40
0
 41
0
  0
VERTEX
  8
0
 10
3.02869
 20
2.43956
 30
0.0
 40
0
 41
0
  0
VERTEX
  8
0
 10
3.06543
 20
2.43956
 30
0.0
 40
0
 41
0
  0
VERTEX
  8
0
 10
3.06543
 20
2.51639
 30
0.0
 40
0
 41
0
  0
SEQEND
 8
0
  0
POLYLINE
  8
0
 62
     250
 66
     1
 10
0
 20
0
 30
0.0
 70
     1
 40
0
 41
0
  0
VERTEX
  8
0
 10
3.00624
 20
2.41954
 30
0.0
 40
0
 41
0
  0
VERTEX
  8
0
 10
3.00624
 20
2.5364
 30
0.0
 40
0
 41
0
  0
VERTEX
  8
0
 10
3.07801
 20
2.5364
 30
0.0
 40
0
 41
0
  0
VERTEX
  8
0
 10
3.08649
 20
2.52615
 30
0.0
 40
0
 41
0
  0
VERTEX
  8
0
 10
3.08649
 20
2.42979
 30
0.0
 40
0
 41
0
  0
VERTEX
  8
0
 10
3.07813
 20
2.41954
 30
0.0
 40
0
 41
0
  0
VERTEX
  8
0
 10
3.00624
 20
2.41954
 30
0.0
 40
0
 41
0
  0
SEQEND
 8
0
  0
POLYLINE
  8
0
 62
     250
 66
     1
 10
0
 20
0
 30
0.0
 70
     1
 40
0
 41
0
  0
VERTEX
  8
0
 10
3.16656
 20
2.43956
 30
0.0
 40
0
 41
0
  0
VERTEX
  8
0
 10
3.20329
 20
2.43956
 30
0.0
 40
0
 41
0
  0
VERTEX
  8
0
 10
3.20329
 20
2.46847
 30
0.0
 40
0
 41
0
  0
VERTEX
  8
0
 10
3.16656
 20
2.46847
 30
0.0
 40
0
 41
0
  0
VERTEX
  8
0
 10
3.16656
 20
2.43956
 30
0.0
 40
0
 41
0
  0
SEQEND
 8
0
  0
POLYLINE
  8
0
 62
     250
 66
     1
 10
0
 20
0
 30
0.0
 70
     1
 40
0
 41
0
  0
VERTEX
  8
0
 10
3.16656
 20
2.48753
 30
0.0
 40
0
 41
0
  0
VERTEX
  8
0
 10
3.20329
 20
2.48753
 30
0.0
 40
0
 41
0
  0
VERTEX
  8
0
 10
3.20329
 20
2.51639
 30
0.0
 40
0
 41
0
  0
VERTEX
  8
0
 10
3.16656
 20
2.51639
 30
0.0
 40
0
 41
0
  0
VERTEX
  8
0
 10
3.16656
 20
2.48753
 30
0.0
 40
0
 41
0
  0
SEQEND
 8
0
  0
POLYLINE
  8
0
 62
     250
 66
     1
 10
0
 20
0
 30
0.0
 70
     1
 40
0
 41
0
  0
VERTEX
  8
0
 10
3.22433
 20
2.5364
 30
0.0
 40
0
 41
0
  0
VERTEX
  8
0
 10
3.22433
 20
2.49214
 30
0.0
 40
0
 41
0
  0
VERTEX
  8
0
 10
3.21451
 20
2.4776
 30
0.0
 40
0
 41
0
  0
VERTEX
  8
0
 10
3.22433
 20
2.46294
 30
0.0
 40
0
 41
0
  0
VERTEX
  8
0
 10
3.22433
 20
2.41954
 30
0.0
 40
0
 41
0
  0
VERTEX
  8
0
 10
3.1441
 20
2.41954
 30
0.0
 40
0
 41
0
  0
VERTEX
  8
0
 10
3.1441
 20
2.5364
 30
0.0
 40
0
 41
0
  0
VERTEX
  8
0
 10
3.22433
 20
2.5364
 30
0.0
 40
0
 41
0
  0
SEQEND
 8
0
  0
POLYLINE
  8
0
 62
     250
 66
     1
 10
0
 20
0
 30
0.0
 70
     1
 40
0
 41
0
  0
VERTEX
  8
0
 10
3.24061
 20
2.5364
 30
0.0
 40
0
 41
0
  0
VERTEX
  8
0
 10
3.26307
 20
2.5364
 30
0.0
 40
0
 41
0
  0
VERTEX
  8
0
 10
3.26307
 20
2.41954
 30
0.0
 40
0
 41
0
  0
VERTEX
  8
0
 10
3.24061
 20
2.41954
 30
0.0
 40
0
 41
0
  0
VERTEX
  8
0
 10
3.24061
 20
2.5364
 30
0.0
 40
0
 41
0
  0
SEQEND
 8
0
  0
POLYLINE
  8
0
 62
     250
 66
     1
 10
0
 20
0
 30
0.0
 70
     1
 40
0
 41
0
  0
VERTEX
  8
0
 10
3.30181
 20
2.41954
 30
0.0
 40
0
 41
0
  0
VERTEX
  8
0
 10
3.27935
 20
2.41954
 30
0.0
 40
0
 41
0
  0
VERTEX
  8
0
 10
3.27935
 20
2.5364
 30
0.0
 40
0
 41
0
  0
VERTEX
  8
0
 10
3.30181
 20
2.5364
 30
0.0
 40
0
 41
0
  0
VERTEX
  8
0
 10
3.33854
 20
2.47092
 30
0.0
 40
0
 41
0
  0
VERTEX
  8
0
 10
3.33854
 20
2.5364
 30
0.0
 40
0
 41
0
  0
VERTEX
  8
0
 10
3.3596
 20
2.5364
 30
0.0
 40
0
 41
0
  0
VERTEX
  8
0
 10
3.3596
 20
2.41954
 30
0.0
 40
0
 41
0
  0
VERTEX
  8
0
 10
3.33854
 20
2.41954
 30
0.0
 40
0
 41
0
  0
VERTEX
  8
0
 10
3.30181
 20
2.48703
 30
0.0
 40
0
 41
0
  0
VERTEX
  8
0
 10
3.30181
 20
2.41954
 30
0.0
 40
0
 41
0
  0
SEQEND
 8
0
  0
POLYLINE
  8
0
 62
     250
 66
     1
 10
0
 20
0
 30
0.0
 40
0.5
 41
0.5
  0
VERTEX
  8
0
 10
0.236219
 20
3.62511
 30
0.0
 40
0.00694444
 41
0.00694444
  0
VERTEX
  8
0
 10
0.236219
 20
0.00303819
 30
0.0
 40
0.00694444
 41
0.00694444
  0
SEQEND
 8
0
  0
POLYLINE
  8
0
 62
     250
 66
     1
 10
0
 20
0
 30
0.0
 40
0.5
 41
0.5
  0
VERTEX
  8
0
 10
1.22049
 20
3.62511
 30
0.0
 40
0.00694444
 41
0.00694444
  0
VERTEX
  8
0
 10
1.22049
 20
0.00303819
 30
0.0
 40
0.00694444
 41
0.00694444
  0
SEQEND
 8
0
  0
POLYLINE
  8
0
 62
     250
 66
     1
 10
0
 20
0
 30
0.0
 40
0.5
 41
0.5
  0
VERTEX
  8
0
 10
1.3189
 20
3.62511
 30
0.0
 40
0.00694444
 41
0.00694444
  0
VERTEX
  8
0
 10
1.3189
 20
0.00303819
 30
0.0
 40
0.00694444
 41
0.00694444
  0
SEQEND
 8
0
  0
POLYLINE
  8
0
 62
     250
 66
     1
 10
0
 20
0
 30
0.0
 40
0.5
 41
0.5
  0
VERTEX
  8
0
 10
2.30317
 20
3.62511
 30
0.0
 40
0.00694444
 41
0.00694444
  0
VERTEX
  8
0
 10
2.30317
 20
0.00303819
 30
0.0
 40
0.00694444
 41
0.00694444
  0
SEQEND
 8
0
  0
POLYLINE
  8
0
 62
     250
 66
     1
 10
0
 20
0
 30
0.0
 40
0.5
 41
0.5
  0
VERTEX
  8
0
 10
2.40158
 20
3.62511
 30
0.0
 40
0.00694444
 41
0.00694444
  0
VERTEX
  8
0
 10
2.40158
 20
0.00303819
 30
0.0
 40
0.00694444
 41
0.00694444
  0
SEQEND
 8
0
  0
POLYLINE
  8
0
 62
     250
 66
     1
 10
0
 20
0
 30
0.0
 40
0.5
 41
0.5
  0
VERTEX
  8
0
 10
3.38585
 20
3.62511
 30
0.0
 40
0.00694444
 41
0.00694444
  0
VERTEX
  8
0
 10
3.38585
 20
0.00303819
 30
0.0
 40
0.00694444
 41
0.00694444
  0
SEQEND
 8
0
  0
POLYLINE
  8
0
 62
     250
 66
     1
 10
0
 20
0
 30
0.0
 40
0.5
 41
0.5
  0
VERTEX
  8
0
 10
0
 20
2.60161
 30
0.0
 40
0.00694444
 41
0.00694444
  0
VERTEX
  8
0
 10
3.62207
 20
2.60161
 30
0.0
 40
0.00694444
 41
0.00694444
  0
SEQEND
 8
0
  0
POLYLINE
  8
0
 62
     250
 66
     1
 10
0
 20
0
 30
0.0
 40
0.5
 41
0.5
  0
VERTEX
  8
0
 10
0
 20
2.36518
 30
0.0
 40
0.00694444
 41
0.00694444
  0
VERTEX
  8
0
 10
3.62207
 20
2.36518
 30
0.0
 40
0.00694444
 41
0.00694444
  0
SEQEND
 8
0
  0
POLYLINE
  8
0
 62
     250
 66
     1
 10
0
 20
0
 30
0.0
 40
0.5
 41
0.5
  0
VERTEX
  8
0
 10
0
 20
1.57775
 30
0.0
 40
0.00694444
 41
0.00694444
  0
VERTEX
  8
0
 10
3.62207
 20
1.57775
 30
0.0
 40
0.00694444
 41
0.00694444
  0
SEQEND
 8
0
  0
POLYLINE
  8
0
 62
     250
 66
     1
 10
0
 20
0
 30
0.0
 40
0.5
 41
0.5
  0
VERTEX
  8
0
 10
0
 20
1.34152
 30
0.0
 40
0.00694444
 41
0.00694444
  0
VERTEX
  8
0
 10
3.62207
 20
1.34152
 30
0.0
 40
0.00694444
 41
0.00694444
  0
SEQEND
 8
0
  0
POLYLINE
  8
0
 62
     250
 66
     1
 10
0
 20
0
 30
0.0
 40
0.5
 41
0.5
  0
VERTEX
  8
0
 10
0
 20
0.554144
 30
0.0
 40
0.00694444
 41
0.00694444
  0
VERTEX
  8
0
 10
3.62207
 20
0.554144
 30
0.0
 40
0.00694444
 41
0.00694444
  0
SEQEND
 8
0
  0
POLYLINE
  8
0
 62
     250
 66
     1
 10
0
 20
0
 30
0.0
 40
0.5
 41
0.5
  0
VERTEX
  8
0
 10
0
 20
0.239204
 30
0.0
 40
0.00694444
 41
0.00694444
  0
VERTEX
  8
0
 10
3.62207
 20
0.239204
 30
0.0
 40
0.00694444
 41
0.00694444
  0
SEQEND
 8
0
  0
ENDSEC
  0
EOF
