  0
SECTION
  2
HEADER
  9
$ACADVER
  1
AC1009
  9
$EXTMIN
 10
0.0
 20
0.0
 30
0.0
  9
$EXTMAX
 10
1000.0
 20
1000.0
 30
0.0
  9
$FILLMODE
 70
 0
  9
$SPLFRAME
 70
 1
  0
ENDSEC
  0
SECTION
  2
TABLES
  0
TABLE
  2
LAYER
 70
1
  0
LAYER
  2
0
 70
     0
 62
     7
  6
CONTINUOUS
  0
ENDTAB
  0
ENDSEC
  0
SECTION
  2
ENTITIES
  0
POLYLINE
  8
0
 62
     250
 66
     1
 10
0
 20
0
 30
0.0
 70
     1
 40
0
 41
0
  0
VERTEX
  8
0
 10
0.356065
 20
2.2379
 30
0.0
 40
0
 41
0
  0
VERTEX
  8
0
 10
0.377115
 20
2.2379
 30
0.0
 40
0
 41
0
  0
VERTEX
  8
0
 10
0.351671
 20
2.12104
 30
0.0
 40
0
 41
0
  0
VERTEX
  8
0
 10
0.324328
 20
2.12104
 30
0.0
 40
0
 41
0
  0
VERTEX
  8
0
 10
0.296875
 20
2.2379
 30
0.0
 40
0
 41
0
  0
VERTEX
  8
0
 10
0.319336
 20
2.2379
 30
0.0
 40
0
 41
0
  0
VERTEX
  8
0
 10
0.336914
 20
2.14794
 30
0.0
 40
0
 41
0
  0
VERTEX
  8
0
 10
0.356065
 20
2.2379
 30
0.0
 40
0
 41
0
  0
SEQEND
 8
0
  0
POLYLINE
  8
0
 62
     250
 66
     1
 10
0
 20
0
 30
0.0
 70
     1
 40
0
 41
0
  0
VERTEX
  8
0
 10
0.393392
 20
2.2379
 30
0.0
 40
0
 41
0
  0
VERTEX
  8
0
 10
0.415853
 20
2.2379
 30
0.0
 40
0
 41
0
  0
VERTEX
  8
0
 10
0.415853
 20
2.12104
 30
0.0
 40
0
 41
0
  0
VERTEX
  8
0
 10
0.393392
 20
2.12104
 30
0.0
 40
0
 41
0
  0
VERTEX
  8
0
 10
0.393392
 20
2.2379
 30
0.0
 40
0
 41
0
  0
SEQEND
 8
0
  0
POLYLINE
  8
0
 62
     250
 66
     1
 10
0
 20
0
 30
0.0
 70
     1
 40
0
 41
0
  0
VERTEX
  8
0
 10
0.45459
 20
2.18896
 30
0.0
 40
0
 41
0
  0
VERTEX
  8
0
 10
0.491319
 20
2.18896
 30
0.0
 40
0
 41
0
  0
VERTEX
  8
0
 10
0.491319
 20
2.21789
 30
0.0
 40
0
 41
0
  0
VERTEX
  8
0
 10
0.45459
 20
2.21789
 30
0.0
 40
0
 41
0
  0
VERTEX
  8
0
 10
0.45459
 20
2.18896
 30
0.0
 40
0
 41
0
  0
SEQEND
 8
0
  0
POLYLINE
  8
0
 62
     250
 66
     1
 10
0
 20
0
 30
0.0
 70
     1
 40
0
 41
0
  0
VERTEX
  8
0
 10
0.432129
 20
2.12104
 30
0.0
 40
0
 41
0
  0
VERTEX
  8
0
 10
0.432129
 20
2.2379
 30
0.0
 40
0
 41
0
  0
VERTEX
  8
0
 10
0.512369
 20
2.2379
 30
0.0
 40
0
 41
0
  0
VERTEX
  8
0
 10
0.512369
 20
2.16992
 30
0.0
 40
0
 41
0
  0
VERTEX
  8
0
 10
0.484972
 20
2.16992
 30
0.0
 40
0
 41
0
  0
VERTEX
  8
0
 10
0.512369
 20
2.12104
 30
0.0
 40
0
 41
0
  0
VERTEX
  8
0
 10
0.491319
 20
2.12104
 30
0.0
 40
0
 41
0
  0
VERTEX
  8
0
 10
0.462511
 20
2.16992
 30
0.0
 40
0
 41
0
  0
VERTEX
  8
0
 10
0.45459
 20
2.16992
 30
0.0
 40
0
 41
0
  0
VERTEX
  8
0
 10
0.45459
 20
2.12104
 30
0.0
 40
0
 41
0
  0
VERTEX
  8
0
 10
0.432129
 20
2.12104
 30
0.0
 40
0
 41
0
  0
SEQEND
 8
0
  0
POLYLINE
  8
0
 62
     250
 66
     1
 10
0
 20
0
 30
0.0
 70
     1
 40
0
 41
0
  0
VERTEX
  8
0
 10
0.564561
 20
2.18896
 30
0.0
 40
0
 41
0
  0
VERTEX
  8
0
 10
0.608886
 20
2.18896
 30
0.0
 40
0
 41
0
  0
VERTEX
  8
0
 10
0.608886
 20
2.12104
 30
0.0
 40
0
 41
0
  0
VERTEX
  8
0
 10
0.528646
 20
2.12104
 30
0.0
 40
0
 41
0
  0
VERTEX
  8
0
 10
0.528646
 20
2.2379
 30
0.0
 40
0
 41
0
  0
VERTEX
  8
0
 10
0.608886
 20
2.2379
 30
0.0
 40
0
 41
0
  0
VERTEX
  8
0
 10
0.608886
 20
2.21789
 30
0.0
 40
0
 41
0
  0
VERTEX
  8
0
 10
0.551107
 20
2.21789
 30
0.0
 40
0
 41
0
  0
VERTEX
  8
0
 10
0.551107
 20
2.14106
 30
0.0
 40
0
 41
0
  0
VERTEX
  8
0
 10
0.587836
 20
2.14106
 30
0.0
 40
0
 41
0
  0
VERTEX
  8
0
 10
0.587836
 20
2.16992
 30
0.0
 40
0
 41
0
  0
VERTEX
  8
0
 10
0.564561
 20
2.16992
 30
0.0
 40
0
 41
0
  0
VERTEX
  8
0
 10
0.564561
 20
2.18896
 30
0.0
 40
0
 41
0
  0
SEQEND
 8
0
  0
POLYLINE
  8
0
 62
     250
 66
     1
 10
0
 20
0
 30
0.0
 70
     1
 40
0
 41
0
  0
VERTEX
  8
0
 10
0.625163
 20
2.2379
 30
0.0
 40
0
 41
0
  0
VERTEX
  8
0
 10
0.647624
 20
2.2379
 30
0.0
 40
0
 41
0
  0
VERTEX
  8
0
 10
0.647624
 20
2.12104
 30
0.0
 40
0
 41
0
  0
VERTEX
  8
0
 10
0.625163
 20
2.12104
 30
0.0
 40
0
 41
0
  0
VERTEX
  8
0
 10
0.625163
 20
2.2379
 30
0.0
 40
0
 41
0
  0
SEQEND
 8
0
  0
POLYLINE
  8
0
 62
     250
 66
     1
 10
0
 20
0
 30
0.0
 70
     1
 40
0
 41
0
  0
VERTEX
  8
0
 10
0.686361
 20
2.12104
 30
0.0
 40
0
 41
0
  0
VERTEX
  8
0
 10
0.6639
 20
2.12104
 30
0.0
 40
0
 41
0
  0
VERTEX
  8
0
 10
0.6639
 20
2.2379
 30
0.0
 40
0
 41
0
  0
VERTEX
  8
0
 10
0.686361
 20
2.2379
 30
0.0
 40
0
 41
0
  0
VERTEX
  8
0
 10
0.72309
 20
2.17236
 30
0.0
 40
0
 41
0
  0
VERTEX
  8
0
 10
0.72309
 20
2.2379
 30
0.0
 40
0
 41
0
  0
VERTEX
  8
0
 10
0.74414
 20
2.2379
 30
0.0
 40
0
 41
0
  0
VERTEX
  8
0
 10
0.74414
 20
2.12104
 30
0.0
 40
0
 41
0
  0
VERTEX
  8
0
 10
0.72309
 20
2.12104
 30
0.0
 40
0
 41
0
  0
VERTEX
  8
0
 10
0.686361
 20
2.18847
 30
0.0
 40
0
 41
0
  0
VERTEX
  8
0
 10
0.686361
 20
2.12104
 30
0.0
 40
0
 41
0
  0
SEQEND
 8
0
  0
POLYLINE
  8
0
 62
     250
 66
     1
 10
0
 20
0
 30
0.0
 70
     1
 40
0
 41
0
  0
VERTEX
  8
0
 10
1.11437
 20
2.18332
 30
0.0
 40
0
 41
0
  0
VERTEX
  8
0
 10
1.148
 20
2.18332
 30
0.0
 40
0
 41
0
  0
VERTEX
  8
0
 10
1.148
 20
2.20979
 30
0.0
 40
0
 41
0
  0
VERTEX
  8
0
 10
1.11437
 20
2.20979
 30
0.0
 40
0
 41
0
  0
VERTEX
  8
0
 10
1.11437
 20
2.18332
 30
0.0
 40
0
 41
0
  0
SEQEND
 8
0
  0
POLYLINE
  8
0
 62
     250
 66
     1
 10
0
 20
0
 30
0.0
 70
     1
 40
0
 41
0
  0
VERTEX
  8
0
 10
1.09375
 20
2.12104
 30
0.0
 40
0
 41
0
  0
VERTEX
  8
0
 10
1.09375
 20
2.22814
 30
0.0
 40
0
 41
0
  0
VERTEX
  8
0
 10
1.16732
 20
2.22814
 30
0.0
 40
0
 41
0
  0
VERTEX
  8
0
 10
1.16732
 20
2.16585
 30
0.0
 40
0
 41
0
  0
VERTEX
  8
0
 10
1.1422
 20
2.16585
 30
0.0
 40
0
 41
0
  0
VERTEX
  8
0
 10
1.16732
 20
2.12104
 30
0.0
 40
0
 41
0
  0
VERTEX
  8
0
 10
1.148
 20
2.12104
 30
0.0
 40
0
 41
0
  0
VERTEX
  8
0
 10
1.12158
 20
2.16585
 30
0.0
 40
0
 41
0
  0
VERTEX
  8
0
 10
1.11437
 20
2.16585
 30
0.0
 40
0
 41
0
  0
VERTEX
  8
0
 10
1.11437
 20
2.12104
 30
0.0
 40
0
 41
0
  0
VERTEX
  8
0
 10
1.09375
 20
2.12104
 30
0.0
 40
0
 41
0
  0
SEQEND
 8
0
  0
POLYLINE
  8
0
 62
     250
 66
     1
 10
0
 20
0
 30
0.0
 70
     1
 40
0
 41
0
  0
VERTEX
  8
0
 10
1.2028
 20
2.20979
 30
0.0
 40
0
 41
0
  0
VERTEX
  8
0
 10
1.2028
 20
2.18332
 30
0.0
 40
0
 41
0
  0
VERTEX
  8
0
 10
1.25575
 20
2.18332
 30
0.0
 40
0
 41
0
  0
VERTEX
  8
0
 10
1.25575
 20
2.16585
 30
0.0
 40
0
 41
0
  0
VERTEX
  8
0
 10
1.2028
 20
2.16585
 30
0.0
 40
0
 41
0
  0
VERTEX
  8
0
 10
1.2028
 20
2.13938
 30
0.0
 40
0
 41
0
  0
VERTEX
  8
0
 10
1.25575
 20
2.13938
 30
0.0
 40
0
 41
0
  0
VERTEX
  8
0
 10
1.25575
 20
2.12104
 30
0.0
 40
0
 41
0
  0
VERTEX
  8
0
 10
1.18224
 20
2.12104
 30
0.0
 40
0
 41
0
  0
VERTEX
  8
0
 10
1.18224
 20
2.22814
 30
0.0
 40
0
 41
0
  0
VERTEX
  8
0
 10
1.25575
 20
2.22814
 30
0.0
 40
0
 41
0
  0
VERTEX
  8
0
 10
1.25575
 20
2.20979
 30
0.0
 40
0
 41
0
  0
VERTEX
  8
0
 10
1.2028
 20
2.20979
 30
0.0
 40
0
 41
0
  0
SEQEND
 8
0
  0
POLYLINE
  8
0
 62
     250
 66
     1
 10
0
 20
0
 30
0.0
 70
     1
 40
0
 41
0
  0
VERTEX
  8
0
 10
1.3036
 20
2.18332
 30
0.0
 40
0
 41
0
  0
VERTEX
  8
0
 10
1.34424
 20
2.18332
 30
0.0
 40
0
 41
0
  0
VERTEX
  8
0
 10
1.34424
 20
2.12104
 30
0.0
 40
0
 41
0
  0
VERTEX
  8
0
 10
1.27073
 20
2.12104
 30
0.0
 40
0
 41
0
  0
VERTEX
  8
0
 10
1.27073
 20
2.22814
 30
0.0
 40
0
 41
0
  0
VERTEX
  8
0
 10
1.34424
 20
2.22814
 30
0.0
 40
0
 41
0
  0
VERTEX
  8
0
 10
1.34424
 20
2.20979
 30
0.0
 40
0
 41
0
  0
VERTEX
  8
0
 10
1.29129
 20
2.20979
 30
0.0
 40
0
 41
0
  0
VERTEX
  8
0
 10
1.29129
 20
2.13938
 30
0.0
 40
0
 41
0
  0
VERTEX
  8
0
 10
1.32492
 20
2.13938
 30
0.0
 40
0
 41
0
  0
VERTEX
  8
0
 10
1.32492
 20
2.16585
 30
0.0
 40
0
 41
0
  0
VERTEX
  8
0
 10
1.3036
 20
2.16585
 30
0.0
 40
0
 41
0
  0
VERTEX
  8
0
 10
1.3036
 20
2.18332
 30
0.0
 40
0
 41
0
  0
SEQEND
 8
0
  0
POLYLINE
  8
0
 62
     250
 66
     1
 10
0
 20
0
 30
0.0
 70
     1
 40
0
 41
0
  0
VERTEX
  8
0
 10
1.37978
 20
2.20979
 30
0.0
 40
0
 41
0
  0
VERTEX
  8
0
 10
1.37978
 20
2.18332
 30
0.0
 40
0
 41
0
  0
VERTEX
  8
0
 10
1.43272
 20
2.18332
 30
0.0
 40
0
 41
0
  0
VERTEX
  8
0
 10
1.43272
 20
2.16585
 30
0.0
 40
0
 41
0
  0
VERTEX
  8
0
 10
1.37978
 20
2.16585
 30
0.0
 40
0
 41
0
  0
VERTEX
  8
0
 10
1.37978
 20
2.13938
 30
0.0
 40
0
 41
0
  0
VERTEX
  8
0
 10
1.43272
 20
2.13938
 30
0.0
 40
0
 41
0
  0
VERTEX
  8
0
 10
1.43272
 20
2.12104
 30
0.0
 40
0
 41
0
  0
VERTEX
  8
0
 10
1.35916
 20
2.12104
 30
0.0
 40
0
 41
0
  0
VERTEX
  8
0
 10
1.35916
 20
2.22814
 30
0.0
 40
0
 41
0
  0
VERTEX
  8
0
 10
1.43272
 20
2.22814
 30
0.0
 40
0
 41
0
  0
VERTEX
  8
0
 10
1.43272
 20
2.20979
 30
0.0
 40
0
 41
0
  0
VERTEX
  8
0
 10
1.37978
 20
2.20979
 30
0.0
 40
0
 41
0
  0
SEQEND
 8
0
  0
POLYLINE
  8
0
 62
     250
 66
     1
 10
0
 20
0
 30
0.0
 70
     1
 40
0
 41
0
  0
VERTEX
  8
0
 10
1.46826
 20
2.12104
 30
0.0
 40
0
 41
0
  0
VERTEX
  8
0
 10
1.44764
 20
2.12104
 30
0.0
 40
0
 41
0
  0
VERTEX
  8
0
 10
1.44764
 20
2.22814
 30
0.0
 40
0
 41
0
  0
VERTEX
  8
0
 10
1.46826
 20
2.22814
 30
0.0
 40
0
 41
0
  0
VERTEX
  8
0
 10
1.5019
 20
2.16808
 30
0.0
 40
0
 41
0
  0
VERTEX
  8
0
 10
1.5019
 20
2.22814
 30
0.0
 40
0
 41
0
  0
VERTEX
  8
0
 10
1.52121
 20
2.22814
 30
0.0
 40
0
 41
0
  0
VERTEX
  8
0
 10
1.52121
 20
2.12104
 30
0.0
 40
0
 41
0
  0
VERTEX
  8
0
 10
1.5019
 20
2.12104
 30
0.0
 40
0
 41
0
  0
VERTEX
  8
0
 10
1.46826
 20
2.18289
 30
0.0
 40
0
 41
0
  0
VERTEX
  8
0
 10
1.46826
 20
2.12104
 30
0.0
 40
0
 41
0
  0
SEQEND
 8
0
  0
POLYLINE
  8
0
 62
     250
 66
     1
 10
0
 20
0
 30
0.0
 70
     1
 40
0
 41
0
  0
VERTEX
  8
0
 10
1.55669
 20
2.20979
 30
0.0
 40
0
 41
0
  0
VERTEX
  8
0
 10
1.55669
 20
2.18332
 30
0.0
 40
0
 41
0
  0
VERTEX
  8
0
 10
1.60969
 20
2.18332
 30
0.0
 40
0
 41
0
  0
VERTEX
  8
0
 10
1.60969
 20
2.16585
 30
0.0
 40
0
 41
0
  0
VERTEX
  8
0
 10
1.55669
 20
2.16585
 30
0.0
 40
0
 41
0
  0
VERTEX
  8
0
 10
1.55669
 20
2.13938
 30
0.0
 40
0
 41
0
  0
VERTEX
  8
0
 10
1.60969
 20
2.13938
 30
0.0
 40
0
 41
0
  0
VERTEX
  8
0
 10
1.60969
 20
2.12104
 30
0.0
 40
0
 41
0
  0
VERTEX
  8
0
 10
1.53614
 20
2.12104
 30
0.0
 40
0
 41
0
  0
VERTEX
  8
0
 10
1.53614
 20
2.22814
 30
0.0
 40
0
 41
0
  0
VERTEX
  8
0
 10
1.60969
 20
2.22814
 30
0.0
 40
0
 41
0
  0
VERTEX
  8
0
 10
1.60969
 20
2.20979
 30
0.0
 40
0
 41
0
  0
VERTEX
  8
0
 10
1.55669
 20
2.20979
 30
0.0
 40
0
 41
0
  0
SEQEND
 8
0
  0
POLYLINE
  8
0
 62
     250
 66
     1
 10
0
 20
0
 30
0.0
 70
     1
 40
0
 41
0
  0
VERTEX
  8
0
 10
1.64518
 20
2.18332
 30
0.0
 40
0
 41
0
  0
VERTEX
  8
0
 10
1.67882
 20
2.18332
 30
0.0
 40
0
 41
0
  0
VERTEX
  8
0
 10
1.67882
 20
2.20979
 30
0.0
 40
0
 41
0
  0
VERTEX
  8
0
 10
1.64518
 20
2.20979
 30
0.0
 40
0
 41
0
  0
VERTEX
  8
0
 10
1.64518
 20
2.18332
 30
0.0
 40
0
 41
0
  0
SEQEND
 8
0
  0
POLYLINE
  8
0
 62
     250
 66
     1
 10
0
 20
0
 30
0.0
 70
     1
 40
0
 41
0
  0
VERTEX
  8
0
 10
1.62463
 20
2.12104
 30
0.0
 40
0
 41
0
  0
VERTEX
  8
0
 10
1.62463
 20
2.22814
 30
0.0
 40
0
 41
0
  0
VERTEX
  8
0
 10
1.69814
 20
2.22814
 30
0.0
 40
0
 41
0
  0
VERTEX
  8
0
 10
1.69814
 20
2.16585
 30
0.0
 40
0
 41
0
  0
VERTEX
  8
0
 10
1.67301
 20
2.16585
 30
0.0
 40
0
 41
0
  0
VERTEX
  8
0
 10
1.69814
 20
2.12104
 30
0.0
 40
0
 41
0
  0
VERTEX
  8
0
 10
1.67882
 20
2.12104
 30
0.0
 40
0
 41
0
  0
VERTEX
  8
0
 10
1.65246
 20
2.16585
 30
0.0
 40
0
 41
0
  0
VERTEX
  8
0
 10
1.64518
 20
2.16585
 30
0.0
 40
0
 41
0
  0
VERTEX
  8
0
 10
1.64518
 20
2.12104
 30
0.0
 40
0
 41
0
  0
VERTEX
  8
0
 10
1.62463
 20
2.12104
 30
0.0
 40
0
 41
0
  0
SEQEND
 8
0
  0
POLYLINE
  8
0
 62
     250
 66
     1
 10
0
 20
0
 30
0.0
 70
     1
 40
0
 41
0
  0
VERTEX
  8
0
 10
1.73367
 20
2.18332
 30
0.0
 40
0
 41
0
  0
VERTEX
  8
0
 10
1.76731
 20
2.18332
 30
0.0
 40
0
 41
0
  0
VERTEX
  8
0
 10
1.76731
 20
2.20979
 30
0.0
 40
0
 41
0
  0
VERTEX
  8
0
 10
1.73367
 20
2.20979
 30
0.0
 40
0
 41
0
  0
VERTEX
  8
0
 10
1.73367
 20
2.18332
 30
0.0
 40
0
 41
0
  0
SEQEND
 8
0
  0
POLYLINE
  8
0
 62
     250
 66
     1
 10
0
 20
0
 30
0.0
 70
     1
 40
0
 41
0
  0
VERTEX
  8
0
 10
1.76731
 20
2.16585
 30
0.0
 40
0
 41
0
  0
VERTEX
  8
0
 10
1.73367
 20
2.16585
 30
0.0
 40
0
 41
0
  0
VERTEX
  8
0
 10
1.73367
 20
2.12104
 30
0.0
 40
0
 41
0
  0
VERTEX
  8
0
 10
1.71306
 20
2.12104
 30
0.0
 40
0
 41
0
  0
VERTEX
  8
0
 10
1.71306
 20
2.22814
 30
0.0
 40
0
 41
0
  0
VERTEX
  8
0
 10
1.78662
 20
2.22814
 30
0.0
 40
0
 41
0
  0
VERTEX
  8
0
 10
1.78662
 20
2.12104
 30
0.0
 40
0
 41
0
  0
VERTEX
  8
0
 10
1.76731
 20
2.12104
 30
0.0
 40
0
 41
0
  0
VERTEX
  8
0
 10
1.76731
 20
2.16585
 30
0.0
 40
0
 41
0
  0
SEQEND
 8
0
  0
POLYLINE
  8
0
 62
     250
 66
     1
 10
0
 20
0
 30
0.0
 70
     1
 40
0
 41
0
  0
VERTEX
  8
0
 10
1.82937
 20
2.20979
 30
0.0
 40
0
 41
0
  0
VERTEX
  8
0
 10
1.80154
 20
2.20979
 30
0.0
 40
0
 41
0
  0
VERTEX
  8
0
 10
1.80154
 20
2.22814
 30
0.0
 40
0
 41
0
  0
VERTEX
  8
0
 10
1.87511
 20
2.22814
 30
0.0
 40
0
 41
0
  0
VERTEX
  8
0
 10
1.87511
 20
2.20979
 30
0.0
 40
0
 41
0
  0
VERTEX
  8
0
 10
1.84993
 20
2.20979
 30
0.0
 40
0
 41
0
  0
VERTEX
  8
0
 10
1.84993
 20
2.12104
 30
0.0
 40
0
 41
0
  0
VERTEX
  8
0
 10
1.82937
 20
2.12104
 30
0.0
 40
0
 41
0
  0
VERTEX
  8
0
 10
1.82937
 20
2.20979
 30
0.0
 40
0
 41
0
  0
SEQEND
 8
0
  0
POLYLINE
  8
0
 62
     250
 66
     1
 10
0
 20
0
 30
0.0
 70
     1
 40
0
 41
0
  0
VERTEX
  8
0
 10
1.9106
 20
2.20979
 30
0.0
 40
0
 41
0
  0
VERTEX
  8
0
 10
1.9106
 20
2.18332
 30
0.0
 40
0
 41
0
  0
VERTEX
  8
0
 10
1.96354
 20
2.18332
 30
0.0
 40
0
 41
0
  0
VERTEX
  8
0
 10
1.96354
 20
2.16585
 30
0.0
 40
0
 41
0
  0
VERTEX
  8
0
 10
1.9106
 20
2.16585
 30
0.0
 40
0
 41
0
  0
VERTEX
  8
0
 10
1.9106
 20
2.13938
 30
0.0
 40
0
 41
0
  0
VERTEX
  8
0
 10
1.96354
 20
2.13938
 30
0.0
 40
0
 41
0
  0
VERTEX
  8
0
 10
1.96354
 20
2.12104
 30
0.0
 40
0
 41
0
  0
VERTEX
  8
0
 10
1.89003
 20
2.12104
 30
0.0
 40
0
 41
0
  0
VERTEX
  8
0
 10
1.89003
 20
2.22814
 30
0.0
 40
0
 41
0
  0
VERTEX
  8
0
 10
1.96354
 20
2.22814
 30
0.0
 40
0
 41
0
  0
VERTEX
  8
0
 10
1.96354
 20
2.20979
 30
0.0
 40
0
 41
0
  0
VERTEX
  8
0
 10
1.9106
 20
2.20979
 30
0.0
 40
0
 41
0
  0
SEQEND
 8
0
  0
POLYLINE
  8
0
 62
     250
 66
     1
 10
0
 20
0
 30
0.0
 70
     1
 40
0
 41
0
  0
VERTEX
  8
0
 10
2.03271
 20
2.20979
 30
0.0
 40
0
 41
0
  0
VERTEX
  8
0
 10
1.99908
 20
2.20979
 30
0.0
 40
0
 41
0
  0
VERTEX
  8
0
 10
1.99908
 20
2.13938
 30
0.0
 40
0
 41
0
  0
VERTEX
  8
0
 10
2.03271
 20
2.13938
 30
0.0
 40
0
 41
0
  0
VERTEX
  8
0
 10
2.03271
 20
2.20979
 30
0.0
 40
0
 41
0
  0
SEQEND
 8
0
  0
POLYLINE
  8
0
 62
     250
 66
     1
 10
0
 20
0
 30
0.0
 70
     1
 40
0
 41
0
  0
VERTEX
  8
0
 10
1.97846
 20
2.12104
 30
0.0
 40
0
 41
0
  0
VERTEX
  8
0
 10
1.97846
 20
2.22814
 30
0.0
 40
0
 41
0
  0
VERTEX
  8
0
 10
2.04428
 20
2.22814
 30
0.0
 40
0
 41
0
  0
VERTEX
  8
0
 10
2.05203
 20
2.21875
 30
0.0
 40
0
 41
0
  0
VERTEX
  8
0
 10
2.05203
 20
2.13043
 30
0.0
 40
0
 41
0
  0
VERTEX
  8
0
 10
2.04432
 20
2.12104
 30
0.0
 40
0
 41
0
  0
VERTEX
  8
0
 10
1.97846
 20
2.12104
 30
0.0
 40
0
 41
0
  0
SEQEND
 8
0
  0
POLYLINE
  8
0
 62
     250
 66
     1
 10
0
 20
0
 30
0.0
 70
     1
 40
0
 41
0
  0
VERTEX
  8
0
 10
2.17626
 20
2.18332
 30
0.0
 40
0
 41
0
  0
VERTEX
  8
0
 10
2.2099
 20
2.18332
 30
0.0
 40
0
 41
0
  0
VERTEX
  8
0
 10
2.2099
 20
2.20979
 30
0.0
 40
0
 41
0
  0
VERTEX
  8
0
 10
2.17626
 20
2.20979
 30
0.0
 40
0
 41
0
  0
VERTEX
  8
0
 10
2.17626
 20
2.18332
 30
0.0
 40
0
 41
0
  0
SEQEND
 8
0
  0
POLYLINE
  8
0
 62
     250
 66
     1
 10
0
 20
0
 30
0.0
 70
     1
 40
0
 41
0
  0
VERTEX
  8
0
 10
2.15571
 20
2.12104
 30
0.0
 40
0
 41
0
  0
VERTEX
  8
0
 10
2.15571
 20
2.22814
 30
0.0
 40
0
 41
0
  0
VERTEX
  8
0
 10
2.22922
 20
2.22814
 30
0.0
 40
0
 41
0
  0
VERTEX
  8
0
 10
2.22922
 20
2.16585
 30
0.0
 40
0
 41
0
  0
VERTEX
  8
0
 10
2.2041
 20
2.16585
 30
0.0
 40
0
 41
0
  0
VERTEX
  8
0
 10
2.22922
 20
2.12104
 30
0.0
 40
0
 41
0
  0
VERTEX
  8
0
 10
2.2099
 20
2.12104
 30
0.0
 40
0
 41
0
  0
VERTEX
  8
0
 10
2.18354
 20
2.16585
 30
0.0
 40
0
 41
0
  0
VERTEX
  8
0
 10
2.17626
 20
2.16585
 30
0.0
 40
0
 41
0
  0
VERTEX
  8
0
 10
2.17626
 20
2.12104
 30
0.0
 40
0
 41
0
  0
VERTEX
  8
0
 10
2.15571
 20
2.12104
 30
0.0
 40
0
 41
0
  0
SEQEND
 8
0
  0
POLYLINE
  8
0
 62
     250
 66
     1
 10
0
 20
0
 30
0.0
 70
     1
 40
0
 41
0
  0
VERTEX
  8
0
 10
2.26476
 20
2.20979
 30
0.0
 40
0
 41
0
  0
VERTEX
  8
0
 10
2.26476
 20
2.18332
 30
0.0
 40
0
 41
0
  0
VERTEX
  8
0
 10
2.31771
 20
2.18332
 30
0.0
 40
0
 41
0
  0
VERTEX
  8
0
 10
2.31771
 20
2.16585
 30
0.0
 40
0
 41
0
  0
VERTEX
  8
0
 10
2.26476
 20
2.16585
 30
0.0
 40
0
 41
0
  0
VERTEX
  8
0
 10
2.26476
 20
2.13938
 30
0.0
 40
0
 41
0
  0
VERTEX
  8
0
 10
2.31771
 20
2.13938
 30
0.0
 40
0
 41
0
  0
VERTEX
  8
0
 10
2.31771
 20
2.12104
 30
0.0
 40
0
 41
0
  0
VERTEX
  8
0
 10
2.24414
 20
2.12104
 30
0.0
 40
0
 41
0
  0
VERTEX
  8
0
 10
2.24414
 20
2.22814
 30
0.0
 40
0
 41
0
  0
VERTEX
  8
0
 10
2.31771
 20
2.22814
 30
0.0
 40
0
 41
0
  0
VERTEX
  8
0
 10
2.31771
 20
2.20979
 30
0.0
 40
0
 41
0
  0
VERTEX
  8
0
 10
2.26476
 20
2.20979
 30
0.0
 40
0
 41
0
  0
SEQEND
 8
0
  0
POLYLINE
  8
0
 62
     250
 66
     1
 10
0
 20
0
 30
0.0
 70
     1
 40
0
 41
0
  0
VERTEX
  8
0
 10
2.36556
 20
2.18332
 30
0.0
 40
0
 41
0
  0
VERTEX
  8
0
 10
2.40619
 20
2.18332
 30
0.0
 40
0
 41
0
  0
VERTEX
  8
0
 10
2.40619
 20
2.12104
 30
0.0
 40
0
 41
0
  0
VERTEX
  8
0
 10
2.33263
 20
2.12104
 30
0.0
 40
0
 41
0
  0
VERTEX
  8
0
 10
2.33263
 20
2.22814
 30
0.0
 40
0
 41
0
  0
VERTEX
  8
0
 10
2.40619
 20
2.22814
 30
0.0
 40
0
 41
0
  0
VERTEX
  8
0
 10
2.40619
 20
2.20979
 30
0.0
 40
0
 41
0
  0
VERTEX
  8
0
 10
2.35319
 20
2.20979
 30
0.0
 40
0
 41
0
  0
VERTEX
  8
0
 10
2.35319
 20
2.13938
 30
0.0
 40
0
 41
0
  0
VERTEX
  8
0
 10
2.38683
 20
2.13938
 30
0.0
 40
0
 41
0
  0
VERTEX
  8
0
 10
2.38683
 20
2.16585
 30
0.0
 40
0
 41
0
  0
VERTEX
  8
0
 10
2.36556
 20
2.16585
 30
0.0
 40
0
 41
0
  0
VERTEX
  8
0
 10
2.36556
 20
2.18332
 30
0.0
 40
0
 41
0
  0
SEQEND
 8
0
  0
POLYLINE
  8
0
 62
     250
 66
     1
 10
0
 20
0
 30
0.0
 70
     1
 40
0
 41
0
  0
VERTEX
  8
0
 10
2.44168
 20
2.18332
 30
0.0
 40
0
 41
0
  0
VERTEX
  8
0
 10
2.47532
 20
2.18332
 30
0.0
 40
0
 41
0
  0
VERTEX
  8
0
 10
2.47532
 20
2.20979
 30
0.0
 40
0
 41
0
  0
VERTEX
  8
0
 10
2.44168
 20
2.20979
 30
0.0
 40
0
 41
0
  0
VERTEX
  8
0
 10
2.44168
 20
2.18332
 30
0.0
 40
0
 41
0
  0
SEQEND
 8
0
  0
POLYLINE
  8
0
 62
     250
 66
     1
 10
0
 20
0
 30
0.0
 70
     1
 40
0
 41
0
  0
VERTEX
  8
0
 10
2.42111
 20
2.12104
 30
0.0
 40
0
 41
0
  0
VERTEX
  8
0
 10
2.42111
 20
2.22814
 30
0.0
 40
0
 41
0
  0
VERTEX
  8
0
 10
2.49463
 20
2.22814
 30
0.0
 40
0
 41
0
  0
VERTEX
  8
0
 10
2.49463
 20
2.16585
 30
0.0
 40
0
 41
0
  0
VERTEX
  8
0
 10
2.46951
 20
2.16585
 30
0.0
 40
0
 41
0
  0
VERTEX
  8
0
 10
2.49463
 20
2.12104
 30
0.0
 40
0
 41
0
  0
VERTEX
  8
0
 10
2.47532
 20
2.12104
 30
0.0
 40
0
 41
0
  0
VERTEX
  8
0
 10
2.44894
 20
2.16585
 30
0.0
 40
0
 41
0
  0
VERTEX
  8
0
 10
2.44168
 20
2.16585
 30
0.0
 40
0
 41
0
  0
VERTEX
  8
0
 10
2.44168
 20
2.12104
 30
0.0
 40
0
 41
0
  0
VERTEX
  8
0
 10
2.42111
 20
2.12104
 30
0.0
 40
0
 41
0
  0
SEQEND
 8
0
  0
POLYLINE
  8
0
 62
     250
 66
     1
 10
0
 20
0
 30
0.0
 70
     1
 40
0
 41
0
  0
VERTEX
  8
0
 10
2.5096
 20
2.22814
 30
0.0
 40
0
 41
0
  0
VERTEX
  8
0
 10
2.53017
 20
2.22814
 30
0.0
 40
0
 41
0
  0
VERTEX
  8
0
 10
2.53017
 20
2.12104
 30
0.0
 40
0
 41
0
  0
VERTEX
  8
0
 10
2.5096
 20
2.12104
 30
0.0
 40
0
 41
0
  0
VERTEX
  8
0
 10
2.5096
 20
2.22814
 30
0.0
 40
0
 41
0
  0
SEQEND
 8
0
  0
POLYLINE
  8
0
 62
     250
 66
     1
 10
0
 20
0
 30
0.0
 70
     1
 40
0
 41
0
  0
VERTEX
  8
0
 10
2.56565
 20
2.12104
 30
0.0
 40
0
 41
0
  0
VERTEX
  8
0
 10
2.54508
 20
2.12104
 30
0.0
 40
0
 41
0
  0
VERTEX
  8
0
 10
2.54508
 20
2.22814
 30
0.0
 40
0
 41
0
  0
VERTEX
  8
0
 10
2.56565
 20
2.22814
 30
0.0
 40
0
 41
0
  0
VERTEX
  8
0
 10
2.59933
 20
2.16808
 30
0.0
 40
0
 41
0
  0
VERTEX
  8
0
 10
2.59933
 20
2.22814
 30
0.0
 40
0
 41
0
  0
VERTEX
  8
0
 10
2.61865
 20
2.22814
 30
0.0
 40
0
 41
0
  0
VERTEX
  8
0
 10
2.61865
 20
2.12104
 30
0.0
 40
0
 41
0
  0
VERTEX
  8
0
 10
2.59933
 20
2.12104
 30
0.0
 40
0
 41
0
  0
VERTEX
  8
0
 10
2.56565
 20
2.18289
 30
0.0
 40
0
 41
0
  0
VERTEX
  8
0
 10
2.56565
 20
2.12104
 30
0.0
 40
0
 41
0
  0
SEQEND
 8
0
  0
POLYLINE
  8
0
 62
     250
 66
     1
 10
0
 20
0
 30
0.0
 70
     1
 40
0
 41
0
  0
VERTEX
  8
0
 10
2.65414
 20
2.20979
 30
0.0
 40
0
 41
0
  0
VERTEX
  8
0
 10
2.65414
 20
2.18332
 30
0.0
 40
0
 41
0
  0
VERTEX
  8
0
 10
2.70708
 20
2.18332
 30
0.0
 40
0
 41
0
  0
VERTEX
  8
0
 10
2.70708
 20
2.16585
 30
0.0
 40
0
 41
0
  0
VERTEX
  8
0
 10
2.65414
 20
2.16585
 30
0.0
 40
0
 41
0
  0
VERTEX
  8
0
 10
2.65414
 20
2.13938
 30
0.0
 40
0
 41
0
  0
VERTEX
  8
0
 10
2.70708
 20
2.13938
 30
0.0
 40
0
 41
0
  0
VERTEX
  8
0
 10
2.70708
 20
2.12104
 30
0.0
 40
0
 41
0
  0
VERTEX
  8
0
 10
2.63357
 20
2.12104
 30
0.0
 40
0
 41
0
  0
VERTEX
  8
0
 10
2.63357
 20
2.22814
 30
0.0
 40
0
 41
0
  0
VERTEX
  8
0
 10
2.70708
 20
2.22814
 30
0.0
 40
0
 41
0
  0
VERTEX
  8
0
 10
2.70708
 20
2.20979
 30
0.0
 40
0
 41
0
  0
VERTEX
  8
0
 10
2.65414
 20
2.20979
 30
0.0
 40
0
 41
0
  0
SEQEND
 8
0
  0
POLYLINE
  8
0
 62
     250
 66
     1
 10
0
 20
0
 30
0.0
 70
     1
 40
0
 41
0
  0
VERTEX
  8
0
 10
2.77626
 20
2.20979
 30
0.0
 40
0
 41
0
  0
VERTEX
  8
0
 10
2.74262
 20
2.20979
 30
0.0
 40
0
 41
0
  0
VERTEX
  8
0
 10
2.74262
 20
2.13938
 30
0.0
 40
0
 41
0
  0
VERTEX
  8
0
 10
2.77626
 20
2.13938
 30
0.0
 40
0
 41
0
  0
VERTEX
  8
0
 10
2.77626
 20
2.20979
 30
0.0
 40
0
 41
0
  0
SEQEND
 8
0
  0
POLYLINE
  8
0
 62
     250
 66
     1
 10
0
 20
0
 30
0.0
 70
     1
 40
0
 41
0
  0
VERTEX
  8
0
 10
2.722
 20
2.12104
 30
0.0
 40
0
 41
0
  0
VERTEX
  8
0
 10
2.722
 20
2.22814
 30
0.0
 40
0
 41
0
  0
VERTEX
  8
0
 10
2.78782
 20
2.22814
 30
0.0
 40
0
 41
0
  0
VERTEX
  8
0
 10
2.79557
 20
2.21875
 30
0.0
 40
0
 41
0
  0
VERTEX
  8
0
 10
2.79557
 20
2.13043
 30
0.0
 40
0
 41
0
  0
VERTEX
  8
0
 10
2.78792
 20
2.12104
 30
0.0
 40
0
 41
0
  0
VERTEX
  8
0
 10
2.722
 20
2.12104
 30
0.0
 40
0
 41
0
  0
SEQEND
 8
0
  0
POLYLINE
  8
0
 62
     250
 66
     1
 10
0
 20
0
 30
0.0
 70
     1
 40
0
 41
0
  0
VERTEX
  8
0
 10
2.86897
 20
2.13938
 30
0.0
 40
0
 41
0
  0
VERTEX
  8
0
 10
2.90261
 20
2.13938
 30
0.0
 40
0
 41
0
  0
VERTEX
  8
0
 10
2.90261
 20
2.16585
 30
0.0
 40
0
 41
0
  0
VERTEX
  8
0
 10
2.86897
 20
2.16585
 30
0.0
 40
0
 41
0
  0
VERTEX
  8
0
 10
2.86897
 20
2.13938
 30
0.0
 40
0
 41
0
  0
SEQEND
 8
0
  0
POLYLINE
  8
0
 62
     250
 66
     1
 10
0
 20
0
 30
0.0
 70
     1
 40
0
 41
0
  0
VERTEX
  8
0
 10
2.86897
 20
2.18332
 30
0.0
 40
0
 41
0
  0
VERTEX
  8
0
 10
2.90261
 20
2.18332
 30
0.0
 40
0
 41
0
  0
VERTEX
  8
0
 10
2.90261
 20
2.20979
 30
0.0
 40
0
 41
0
  0
VERTEX
  8
0
 10
2.86897
 20
2.20979
 30
0.0
 40
0
 41
0
  0
VERTEX
  8
0
 10
2.86897
 20
2.18332
 30
0.0
 40
0
 41
0
  0
SEQEND
 8
0
  0
POLYLINE
  8
0
 62
     250
 66
     1
 10
0
 20
0
 30
0.0
 70
     1
 40
0
 41
0
  0
VERTEX
  8
0
 10
2.92199
 20
2.22814
 30
0.0
 40
0
 41
0
  0
VERTEX
  8
0
 10
2.92199
 20
2.18756
 30
0.0
 40
0
 41
0
  0
VERTEX
  8
0
 10
2.91292
 20
2.17421
 30
0.0
 40
0
 41
0
  0
VERTEX
  8
0
 10
2.92199
 20
2.16075
 30
0.0
 40
0
 41
0
  0
VERTEX
  8
0
 10
2.92199
 20
2.12104
 30
0.0
 40
0
 41
0
  0
VERTEX
  8
0
 10
2.84842
 20
2.12104
 30
0.0
 40
0
 41
0
  0
VERTEX
  8
0
 10
2.84842
 20
2.22814
 30
0.0
 40
0
 41
0
  0
VERTEX
  8
0
 10
2.92199
 20
2.22814
 30
0.0
 40
0
 41
0
  0
SEQEND
 8
0
  0
POLYLINE
  8
0
 62
     250
 66
     1
 10
0
 20
0
 30
0.0
 70
     1
 40
0
 41
0
  0
VERTEX
  8
0
 10
2.93685
 20
2.22814
 30
0.0
 40
0
 41
0
  0
VERTEX
  8
0
 10
2.95747
 20
2.22814
 30
0.0
 40
0
 41
0
  0
VERTEX
  8
0
 10
2.95747
 20
2.12104
 30
0.0
 40
0
 41
0
  0
VERTEX
  8
0
 10
2.93685
 20
2.12104
 30
0.0
 40
0
 41
0
  0
VERTEX
  8
0
 10
2.93685
 20
2.22814
 30
0.0
 40
0
 41
0
  0
SEQEND
 8
0
  0
POLYLINE
  8
0
 62
     250
 66
     1
 10
0
 20
0
 30
0.0
 70
     1
 40
0
 41
0
  0
VERTEX
  8
0
 10
2.99294
 20
2.12104
 30
0.0
 40
0
 41
0
  0
VERTEX
  8
0
 10
2.97239
 20
2.12104
 30
0.0
 40
0
 41
0
  0
VERTEX
  8
0
 10
2.97239
 20
2.22814
 30
0.0
 40
0
 41
0
  0
VERTEX
  8
0
 10
2.99294
 20
2.22814
 30
0.0
 40
0
 41
0
  0
VERTEX
  8
0
 10
3.02664
 20
2.16808
 30
0.0
 40
0
 41
0
  0
VERTEX
  8
0
 10
3.02664
 20
2.22814
 30
0.0
 40
0
 41
0
  0
VERTEX
  8
0
 10
3.04596
 20
2.22814
 30
0.0
 40
0
 41
0
  0
VERTEX
  8
0
 10
3.04596
 20
2.12104
 30
0.0
 40
0
 41
0
  0
VERTEX
  8
0
 10
3.02664
 20
2.12104
 30
0.0
 40
0
 41
0
  0
VERTEX
  8
0
 10
2.99294
 20
2.18289
 30
0.0
 40
0
 41
0
  0
VERTEX
  8
0
 10
2.99294
 20
2.12104
 30
0.0
 40
0
 41
0
  0
SEQEND
 8
0
  0
POLYLINE
  8
0
 62
     250
 66
     1
 10
0
 20
0
 30
0.0
 70
     1
 40
0
 41
0
  0
VERTEX
  8
0
 10
0.245876
 20
1.15061
 30
0.0
 40
0
 41
0
  0
VERTEX
  8
0
 10
0.223415
 20
1.15061
 30
0.0
 40
0
 41
0
  0
VERTEX
  8
0
 10
0.223415
 20
1.26747
 30
0.0
 40
0
 41
0
  0
VERTEX
  8
0
 10
0.303657
 20
1.26747
 30
0.0
 40
0
 41
0
  0
VERTEX
  8
0
 10
0.303657
 20
1.24745
 30
0.0
 40
0
 41
0
  0
VERTEX
  8
0
 10
0.245876
 20
1.24745
 30
0.0
 40
0
 41
0
  0
VERTEX
  8
0
 10
0.245876
 20
1.21859
 30
0.0
 40
0
 41
0
  0
VERTEX
  8
0
 10
0.303657
 20
1.21859
 30
0.0
 40
0
 41
0
  0
VERTEX
  8
0
 10
0.303657
 20
1.19949
 30
0.0
 40
0
 41
0
  0
VERTEX
  8
0
 10
0.245876
 20
1.19949
 30
0.0
 40
0
 41
0
  0
VERTEX
  8
0
 10
0.245876
 20
1.15061
 30
0.0
 40
0
 41
0
  0
SEQEND
 8
0
  0
POLYLINE
  8
0
 62
     250
 66
     1
 10
0
 20
0
 30
0.0
 70
     1
 40
0
 41
0
  0
VERTEX
  8
0
 10
0.342393
 20
1.17063
 30
0.0
 40
0
 41
0
  0
VERTEX
  8
0
 10
0.400174
 20
1.17063
 30
0.0
 40
0
 41
0
  0
VERTEX
  8
0
 10
0.400174
 20
1.15061
 30
0.0
 40
0
 41
0
  0
VERTEX
  8
0
 10
0.319933
 20
1.15061
 30
0.0
 40
0
 41
0
  0
VERTEX
  8
0
 10
0.319933
 20
1.26747
 30
0.0
 40
0
 41
0
  0
VERTEX
  8
0
 10
0.342393
 20
1.26747
 30
0.0
 40
0
 41
0
  0
VERTEX
  8
0
 10
0.342393
 20
1.17063
 30
0.0
 40
0
 41
0
  0
SEQEND
 8
0
  0
POLYLINE
  8
0
 62
     250
 66
     1
 10
0
 20
0
 30
0.0
 70
     1
 40
0
 41
0
  0
VERTEX
  8
0
 10
0.438911
 20
1.21853
 30
0.0
 40
0
 41
0
  0
VERTEX
  8
0
 10
0.475586
 20
1.21853
 30
0.0
 40
0
 41
0
  0
VERTEX
  8
0
 10
0.475586
 20
1.24745
 30
0.0
 40
0
 41
0
  0
VERTEX
  8
0
 10
0.438911
 20
1.24745
 30
0.0
 40
0
 41
0
  0
VERTEX
  8
0
 10
0.438911
 20
1.21853
 30
0.0
 40
0
 41
0
  0
SEQEND
 8
0
  0
POLYLINE
  8
0
 62
     250
 66
     1
 10
0
 20
0
 30
0.0
 70
     1
 40
0
 41
0
  0
VERTEX
  8
0
 10
0.475586
 20
1.19949
 30
0.0
 40
0
 41
0
  0
VERTEX
  8
0
 10
0.438911
 20
1.19949
 30
0.0
 40
0
 41
0
  0
VERTEX
  8
0
 10
0.438911
 20
1.15061
 30
0.0
 40
0
 41
0
  0
VERTEX
  8
0
 10
0.41645
 20
1.15061
 30
0.0
 40
0
 41
0
  0
VERTEX
  8
0
 10
0.41645
 20
1.26747
 30
0.0
 40
0
 41
0
  0
VERTEX
  8
0
 10
0.49669
 20
1.26747
 30
0.0
 40
0
 41
0
  0
VERTEX
  8
0
 10
0.49669
 20
1.15061
 30
0.0
 40
0
 41
0
  0
VERTEX
  8
0
 10
0.475586
 20
1.15061
 30
0.0
 40
0
 41
0
  0
VERTEX
  8
0
 10
0.475586
 20
1.19949
 30
0.0
 40
0
 41
0
  0
SEQEND
 8
0
  0
POLYLINE
  8
0
 62
     250
 66
     1
 10
0
 20
0
 30
0.0
 70
     1
 40
0
 41
0
  0
VERTEX
  8
0
 10
0.535428
 20
1.15061
 30
0.0
 40
0
 41
0
  0
VERTEX
  8
0
 10
0.512967
 20
1.15061
 30
0.0
 40
0
 41
0
  0
VERTEX
  8
0
 10
0.512967
 20
1.26747
 30
0.0
 40
0
 41
0
  0
VERTEX
  8
0
 10
0.535428
 20
1.26747
 30
0.0
 40
0
 41
0
  0
VERTEX
  8
0
 10
0.535428
 20
1.21859
 30
0.0
 40
0
 41
0
  0
VERTEX
  8
0
 10
0.572103
 20
1.26747
 30
0.0
 40
0
 41
0
  0
VERTEX
  8
0
 10
0.593207
 20
1.26747
 30
0.0
 40
0
 41
0
  0
VERTEX
  8
0
 10
0.554036
 20
1.2105
 30
0.0
 40
0
 41
0
  0
VERTEX
  8
0
 10
0.593207
 20
1.15061
 30
0.0
 40
0
 41
0
  0
VERTEX
  8
0
 10
0.572103
 20
1.15061
 30
0.0
 40
0
 41
0
  0
VERTEX
  8
0
 10
0.535428
 20
1.19949
 30
0.0
 40
0
 41
0
  0
VERTEX
  8
0
 10
0.535428
 20
1.15061
 30
0.0
 40
0
 41
0
  0
SEQEND
 8
0
  0
POLYLINE
  8
0
 62
     250
 66
     1
 10
0
 20
0
 30
0.0
 70
     1
 40
0
 41
0
  0
VERTEX
  8
0
 10
0.631944
 20
1.24745
 30
0.0
 40
0
 41
0
  0
VERTEX
  8
0
 10
0.631944
 20
1.21853
 30
0.0
 40
0
 41
0
  0
VERTEX
  8
0
 10
0.689725
 20
1.21853
 30
0.0
 40
0
 41
0
  0
VERTEX
  8
0
 10
0.689725
 20
1.19949
 30
0.0
 40
0
 41
0
  0
VERTEX
  8
0
 10
0.631944
 20
1.19949
 30
0.0
 40
0
 41
0
  0
VERTEX
  8
0
 10
0.631944
 20
1.17063
 30
0.0
 40
0
 41
0
  0
VERTEX
  8
0
 10
0.689725
 20
1.17063
 30
0.0
 40
0
 41
0
  0
VERTEX
  8
0
 10
0.689725
 20
1.15061
 30
0.0
 40
0
 41
0
  0
VERTEX
  8
0
 10
0.609483
 20
1.15061
 30
0.0
 40
0
 41
0
  0
VERTEX
  8
0
 10
0.609483
 20
1.26747
 30
0.0
 40
0
 41
0
  0
VERTEX
  8
0
 10
0.689725
 20
1.26747
 30
0.0
 40
0
 41
0
  0
VERTEX
  8
0
 10
0.689725
 20
1.24745
 30
0.0
 40
0
 41
0
  0
VERTEX
  8
0
 10
0.631944
 20
1.24745
 30
0.0
 40
0
 41
0
  0
SEQEND
 8
0
  0
POLYLINE
  8
0
 62
     250
 66
     1
 10
0
 20
0
 30
0.0
 70
     1
 40
0
 41
0
  0
VERTEX
  8
0
 10
0.706
 20
1.19949
 30
0.0
 40
0
 41
0
  0
VERTEX
  8
0
 10
0.706
 20
1.26747
 30
0.0
 40
0
 41
0
  0
VERTEX
  8
0
 10
0.786242
 20
1.26747
 30
0.0
 40
0
 41
0
  0
VERTEX
  8
0
 10
0.786242
 20
1.24745
 30
0.0
 40
0
 41
0
  0
VERTEX
  8
0
 10
0.728461
 20
1.24745
 30
0.0
 40
0
 41
0
  0
VERTEX
  8
0
 10
0.728461
 20
1.21853
 30
0.0
 40
0
 41
0
  0
VERTEX
  8
0
 10
0.786242
 20
1.21853
 30
0.0
 40
0
 41
0
  0
VERTEX
  8
0
 10
0.786242
 20
1.15061
 30
0.0
 40
0
 41
0
  0
VERTEX
  8
0
 10
0.706
 20
1.15061
 30
0.0
 40
0
 41
0
  0
VERTEX
  8
0
 10
0.706
 20
1.17063
 30
0.0
 40
0
 41
0
  0
VERTEX
  8
0
 10
0.765136
 20
1.17063
 30
0.0
 40
0
 41
0
  0
VERTEX
  8
0
 10
0.765136
 20
1.19949
 30
0.0
 40
0
 41
0
  0
VERTEX
  8
0
 10
0.706
 20
1.19949
 30
0.0
 40
0
 41
0
  0
SEQEND
 8
0
  0
POLYLINE
  8
0
 62
     250
 66
     1
 10
0
 20
0
 30
0.0
 70
     1
 40
0
 41
0
  0
VERTEX
  8
0
 10
1.38932
 20
1.17063
 30
0.0
 40
0
 41
0
  0
VERTEX
  8
0
 10
1.4471
 20
1.17063
 30
0.0
 40
0
 41
0
  0
VERTEX
  8
0
 10
1.4471
 20
1.15061
 30
0.0
 40
0
 41
0
  0
VERTEX
  8
0
 10
1.36686
 20
1.15061
 30
0.0
 40
0
 41
0
  0
VERTEX
  8
0
 10
1.36686
 20
1.26747
 30
0.0
 40
0
 41
0
  0
VERTEX
  8
0
 10
1.4471
 20
1.26747
 30
0.0
 40
0
 41
0
  0
VERTEX
  8
0
 10
1.4471
 20
1.24745
 30
0.0
 40
0
 41
0
  0
VERTEX
  8
0
 10
1.38932
 20
1.24745
 30
0.0
 40
0
 41
0
  0
VERTEX
  8
0
 10
1.38932
 20
1.17063
 30
0.0
 40
0
 41
0
  0
SEQEND
 8
0
  0
POLYLINE
  8
0
 62
     250
 66
     1
 10
0
 20
0
 30
0.0
 70
     1
 40
0
 41
0
  0
VERTEX
  8
0
 10
1.48583
 20
1.21853
 30
0.0
 40
0
 41
0
  0
VERTEX
  8
0
 10
1.52251
 20
1.21853
 30
0.0
 40
0
 41
0
  0
VERTEX
  8
0
 10
1.52251
 20
1.24745
 30
0.0
 40
0
 41
0
  0
VERTEX
  8
0
 10
1.48583
 20
1.24745
 30
0.0
 40
0
 41
0
  0
VERTEX
  8
0
 10
1.48583
 20
1.21853
 30
0.0
 40
0
 41
0
  0
SEQEND
 8
0
  0
POLYLINE
  8
0
 62
     250
 66
     1
 10
0
 20
0
 30
0.0
 70
     1
 40
0
 41
0
  0
VERTEX
  8
0
 10
1.52251
 20
1.19949
 30
0.0
 40
0
 41
0
  0
VERTEX
  8
0
 10
1.48583
 20
1.19949
 30
0.0
 40
0
 41
0
  0
VERTEX
  8
0
 10
1.48583
 20
1.15061
 30
0.0
 40
0
 41
0
  0
VERTEX
  8
0
 10
1.46337
 20
1.15061
 30
0.0
 40
0
 41
0
  0
VERTEX
  8
0
 10
1.46337
 20
1.26747
 30
0.0
 40
0
 41
0
  0
VERTEX
  8
0
 10
1.54362
 20
1.26747
 30
0.0
 40
0
 41
0
  0
VERTEX
  8
0
 10
1.54362
 20
1.15061
 30
0.0
 40
0
 41
0
  0
VERTEX
  8
0
 10
1.52251
 20
1.15061
 30
0.0
 40
0
 41
0
  0
VERTEX
  8
0
 10
1.52251
 20
1.19949
 30
0.0
 40
0
 41
0
  0
SEQEND
 8
0
  0
POLYLINE
  8
0
 62
     250
 66
     1
 10
0
 20
0
 30
0.0
 70
     1
 40
0
 41
0
  0
VERTEX
  8
0
 10
1.58236
 20
1.21853
 30
0.0
 40
0
 41
0
  0
VERTEX
  8
0
 10
1.61903
 20
1.21853
 30
0.0
 40
0
 41
0
  0
VERTEX
  8
0
 10
1.61903
 20
1.24745
 30
0.0
 40
0
 41
0
  0
VERTEX
  8
0
 10
1.58236
 20
1.24745
 30
0.0
 40
0
 41
0
  0
VERTEX
  8
0
 10
1.58236
 20
1.21853
 30
0.0
 40
0
 41
0
  0
SEQEND
 8
0
  0
POLYLINE
  8
0
 62
     250
 66
     1
 10
0
 20
0
 30
0.0
 70
     1
 40
0
 41
0
  0
VERTEX
  8
0
 10
1.58236
 20
1.15061
 30
0.0
 40
0
 41
0
  0
VERTEX
  8
0
 10
1.5599
 20
1.15061
 30
0.0
 40
0
 41
0
  0
VERTEX
  8
0
 10
1.5599
 20
1.26747
 30
0.0
 40
0
 41
0
  0
VERTEX
  8
0
 10
1.64014
 20
1.26747
 30
0.0
 40
0
 41
0
  0
VERTEX
  8
0
 10
1.64014
 20
1.19949
 30
0.0
 40
0
 41
0
  0
VERTEX
  8
0
 10
1.58236
 20
1.19949
 30
0.0
 40
0
 41
0
  0
VERTEX
  8
0
 10
1.58236
 20
1.15061
 30
0.0
 40
0
 41
0
  0
SEQEND
 8
0
  0
POLYLINE
  8
0
 62
     250
 66
     1
 10
0
 20
0
 30
0.0
 70
     1
 40
0
 41
0
  0
VERTEX
  8
0
 10
1.65642
 20
1.19949
 30
0.0
 40
0
 41
0
  0
VERTEX
  8
0
 10
1.65642
 20
1.26747
 30
0.0
 40
0
 41
0
  0
VERTEX
  8
0
 10
1.7366
 20
1.26747
 30
0.0
 40
0
 41
0
  0
VERTEX
  8
0
 10
1.7366
 20
1.24745
 30
0.0
 40
0
 41
0
  0
VERTEX
  8
0
 10
1.67882
 20
1.24745
 30
0.0
 40
0
 41
0
  0
VERTEX
  8
0
 10
1.67882
 20
1.21853
 30
0.0
 40
0
 41
0
  0
VERTEX
  8
0
 10
1.7366
 20
1.21853
 30
0.0
 40
0
 41
0
  0
VERTEX
  8
0
 10
1.7366
 20
1.15061
 30
0.0
 40
0
 41
0
  0
VERTEX
  8
0
 10
1.65642
 20
1.15061
 30
0.0
 40
0
 41
0
  0
VERTEX
  8
0
 10
1.65642
 20
1.17063
 30
0.0
 40
0
 41
0
  0
VERTEX
  8
0
 10
1.71556
 20
1.17063
 30
0.0
 40
0
 41
0
  0
VERTEX
  8
0
 10
1.71556
 20
1.19949
 30
0.0
 40
0
 41
0
  0
VERTEX
  8
0
 10
1.65642
 20
1.19949
 30
0.0
 40
0
 41
0
  0
SEQEND
 8
0
  0
POLYLINE
  8
0
 62
     250
 66
     1
 10
0
 20
0
 30
0.0
 70
     1
 40
0
 41
0
  0
VERTEX
  8
0
 10
2.37424
 20
1.17063
 30
0.0
 40
0
 41
0
  0
VERTEX
  8
0
 10
2.43197
 20
1.17063
 30
0.0
 40
0
 41
0
  0
VERTEX
  8
0
 10
2.43197
 20
1.15061
 30
0.0
 40
0
 41
0
  0
VERTEX
  8
0
 10
2.35178
 20
1.15061
 30
0.0
 40
0
 41
0
  0
VERTEX
  8
0
 10
2.35178
 20
1.26747
 30
0.0
 40
0
 41
0
  0
VERTEX
  8
0
 10
2.43197
 20
1.26747
 30
0.0
 40
0
 41
0
  0
VERTEX
  8
0
 10
2.43197
 20
1.24745
 30
0.0
 40
0
 41
0
  0
VERTEX
  8
0
 10
2.37424
 20
1.24745
 30
0.0
 40
0
 41
0
  0
VERTEX
  8
0
 10
2.37424
 20
1.17063
 30
0.0
 40
0
 41
0
  0
SEQEND
 8
0
  0
POLYLINE
  8
0
 62
     250
 66
     1
 10
0
 20
0
 30
0.0
 70
     1
 40
0
 41
0
  0
VERTEX
  8
0
 10
2.47076
 20
1.21859
 30
0.0
 40
0
 41
0
  0
VERTEX
  8
0
 10
2.50743
 20
1.21859
 30
0.0
 40
0
 41
0
  0
VERTEX
  8
0
 10
2.50743
 20
1.24745
 30
0.0
 40
0
 41
0
  0
VERTEX
  8
0
 10
2.47076
 20
1.24745
 30
0.0
 40
0
 41
0
  0
VERTEX
  8
0
 10
2.47076
 20
1.21859
 30
0.0
 40
0
 41
0
  0
SEQEND
 8
0
  0
POLYLINE
  8
0
 62
     250
 66
     1
 10
0
 20
0
 30
0.0
 70
     1
 40
0
 41
0
  0
VERTEX
  8
0
 10
2.44824
 20
1.15061
 30
0.0
 40
0
 41
0
  0
VERTEX
  8
0
 10
2.44824
 20
1.26747
 30
0.0
 40
0
 41
0
  0
VERTEX
  8
0
 10
2.52854
 20
1.26747
 30
0.0
 40
0
 41
0
  0
VERTEX
  8
0
 10
2.52854
 20
1.19954
 30
0.0
 40
0
 41
0
  0
VERTEX
  8
0
 10
2.50108
 20
1.19954
 30
0.0
 40
0
 41
0
  0
VERTEX
  8
0
 10
2.52854
 20
1.15061
 30
0.0
 40
0
 41
0
  0
VERTEX
  8
0
 10
2.50743
 20
1.15061
 30
0.0
 40
0
 41
0
  0
VERTEX
  8
0
 10
2.47862
 20
1.19954
 30
0.0
 40
0
 41
0
  0
VERTEX
  8
0
 10
2.47076
 20
1.19954
 30
0.0
 40
0
 41
0
  0
VERTEX
  8
0
 10
2.47076
 20
1.15061
 30
0.0
 40
0
 41
0
  0
VERTEX
  8
0
 10
2.44824
 20
1.15061
 30
0.0
 40
0
 41
0
  0
SEQEND
 8
0
  0
POLYLINE
  8
0
 62
     250
 66
     1
 10
0
 20
0
 30
0.0
 70
     1
 40
0
 41
0
  0
VERTEX
  8
0
 10
2.56728
 20
1.21859
 30
0.0
 40
0
 41
0
  0
VERTEX
  8
0
 10
2.60394
 20
1.21859
 30
0.0
 40
0
 41
0
  0
VERTEX
  8
0
 10
2.60394
 20
1.24745
 30
0.0
 40
0
 41
0
  0
VERTEX
  8
0
 10
2.56728
 20
1.24745
 30
0.0
 40
0
 41
0
  0
VERTEX
  8
0
 10
2.56728
 20
1.21859
 30
0.0
 40
0
 41
0
  0
SEQEND
 8
0
  0
POLYLINE
  8
0
 62
     250
 66
     1
 10
0
 20
0
 30
0.0
 70
     1
 40
0
 41
0
  0
VERTEX
  8
0
 10
2.60394
 20
1.19954
 30
0.0
 40
0
 41
0
  0
VERTEX
  8
0
 10
2.56728
 20
1.19954
 30
0.0
 40
0
 41
0
  0
VERTEX
  8
0
 10
2.56728
 20
1.15061
 30
0.0
 40
0
 41
0
  0
VERTEX
  8
0
 10
2.54482
 20
1.15061
 30
0.0
 40
0
 41
0
  0
VERTEX
  8
0
 10
2.54482
 20
1.26747
 30
0.0
 40
0
 41
0
  0
VERTEX
  8
0
 10
2.62506
 20
1.26747
 30
0.0
 40
0
 41
0
  0
VERTEX
  8
0
 10
2.62506
 20
1.15061
 30
0.0
 40
0
 41
0
  0
VERTEX
  8
0
 10
2.60394
 20
1.15061
 30
0.0
 40
0
 41
0
  0
VERTEX
  8
0
 10
2.60394
 20
1.19954
 30
0.0
 40
0
 41
0
  0
SEQEND
 8
0
  0
POLYLINE
  8
0
 62
     250
 66
     1
 10
0
 20
0
 30
0.0
 70
     1
 40
0
 41
0
  0
VERTEX
  8
0
 10
2.67165
 20
1.24745
 30
0.0
 40
0
 41
0
  0
VERTEX
  8
0
 10
2.64128
 20
1.24745
 30
0.0
 40
0
 41
0
  0
VERTEX
  8
0
 10
2.64128
 20
1.26747
 30
0.0
 40
0
 41
0
  0
VERTEX
  8
0
 10
2.72157
 20
1.26747
 30
0.0
 40
0
 41
0
  0
VERTEX
  8
0
 10
2.72157
 20
1.24745
 30
0.0
 40
0
 41
0
  0
VERTEX
  8
0
 10
2.69413
 20
1.24745
 30
0.0
 40
0
 41
0
  0
VERTEX
  8
0
 10
2.69413
 20
1.15061
 30
0.0
 40
0
 41
0
  0
VERTEX
  8
0
 10
2.67165
 20
1.15061
 30
0.0
 40
0
 41
0
  0
VERTEX
  8
0
 10
2.67165
 20
1.24745
 30
0.0
 40
0
 41
0
  0
SEQEND
 8
0
  0
POLYLINE
  8
0
 62
     250
 66
     1
 10
0
 20
0
 30
0.0
 70
     1
 40
0
 41
0
  0
VERTEX
  8
0
 10
2.76025
 20
1.24745
 30
0.0
 40
0
 41
0
  0
VERTEX
  8
0
 10
2.76025
 20
1.21859
 30
0.0
 40
0
 41
0
  0
VERTEX
  8
0
 10
2.81803
 20
1.21859
 30
0.0
 40
0
 41
0
  0
VERTEX
  8
0
 10
2.81803
 20
1.19954
 30
0.0
 40
0
 41
0
  0
VERTEX
  8
0
 10
2.76025
 20
1.19954
 30
0.0
 40
0
 41
0
  0
VERTEX
  8
0
 10
2.76025
 20
1.17063
 30
0.0
 40
0
 41
0
  0
VERTEX
  8
0
 10
2.81803
 20
1.17063
 30
0.0
 40
0
 41
0
  0
VERTEX
  8
0
 10
2.81803
 20
1.15061
 30
0.0
 40
0
 41
0
  0
VERTEX
  8
0
 10
2.73785
 20
1.15061
 30
0.0
 40
0
 41
0
  0
VERTEX
  8
0
 10
2.73785
 20
1.26747
 30
0.0
 40
0
 41
0
  0
VERTEX
  8
0
 10
2.81803
 20
1.26747
 30
0.0
 40
0
 41
0
  0
VERTEX
  8
0
 10
2.81803
 20
1.24745
 30
0.0
 40
0
 41
0
  0
VERTEX
  8
0
 10
2.76025
 20
1.24745
 30
0.0
 40
0
 41
0
  0
SEQEND
 8
0
  0
POLYLINE
  8
0
 62
     250
 66
     1
 10
0
 20
0
 30
0.0
 70
     1
 40
0
 41
0
  0
VERTEX
  8
0
 10
2.83436
 20
1.19954
 30
0.0
 40
0
 41
0
  0
VERTEX
  8
0
 10
2.83436
 20
1.26747
 30
0.0
 40
0
 41
0
  0
VERTEX
  8
0
 10
2.91456
 20
1.26747
 30
0.0
 40
0
 41
0
  0
VERTEX
  8
0
 10
2.91456
 20
1.24745
 30
0.0
 40
0
 41
0
  0
VERTEX
  8
0
 10
2.85678
 20
1.24745
 30
0.0
 40
0
 41
0
  0
VERTEX
  8
0
 10
2.85678
 20
1.21859
 30
0.0
 40
0
 41
0
  0
VERTEX
  8
0
 10
2.91456
 20
1.21859
 30
0.0
 40
0
 41
0
  0
VERTEX
  8
0
 10
2.91456
 20
1.15061
 30
0.0
 40
0
 41
0
  0
VERTEX
  8
0
 10
2.83436
 20
1.15061
 30
0.0
 40
0
 41
0
  0
VERTEX
  8
0
 10
2.83436
 20
1.17063
 30
0.0
 40
0
 41
0
  0
VERTEX
  8
0
 10
2.8935
 20
1.17063
 30
0.0
 40
0
 41
0
  0
VERTEX
  8
0
 10
2.8935
 20
1.19954
 30
0.0
 40
0
 41
0
  0
VERTEX
  8
0
 10
2.83436
 20
1.19954
 30
0.0
 40
0
 41
0
  0
SEQEND
 8
0
  0
POLYLINE
  8
0
 62
     250
 66
     1
 10
0
 20
0
 30
0.0
 70
     1
 40
0
 41
0
  0
VERTEX
  8
0
 10
0.0594075
 20
0.18929
 30
0.0
 40
0
 41
0
  0
VERTEX
  8
0
 10
0.0594075
 20
0.245931
 30
0.0
 40
0
 41
0
  0
VERTEX
  8
0
 10
0.126302
 20
0.245931
 30
0.0
 40
0
 41
0
  0
VERTEX
  8
0
 10
0.126302
 20
0.229221
 30
0.0
 40
0
 41
0
  0
VERTEX
  8
0
 10
0.078125
 20
0.229221
 30
0.0
 40
0
 41
0
  0
VERTEX
  8
0
 10
0.078125
 20
0.205186
 30
0.0
 40
0
 41
0
  0
VERTEX
  8
0
 10
0.126302
 20
0.205186
 30
0.0
 40
0
 41
0
  0
VERTEX
  8
0
 10
0.126302
 20
0.148546
 30
0.0
 40
0
 41
0
  0
VERTEX
  8
0
 10
0.0594075
 20
0.148546
 30
0.0
 40
0
 41
0
  0
VERTEX
  8
0
 10
0.0594075
 20
0.165201
 30
0.0
 40
0
 41
0
  0
VERTEX
  8
0
 10
0.108724
 20
0.165201
 30
0.0
 40
0
 41
0
  0
VERTEX
  8
0
 10
0.108724
 20
0.18929
 30
0.0
 40
0
 41
0
  0
VERTEX
  8
0
 10
0.0594075
 20
0.18929
 30
0.0
 40
0
 41
0
  0
SEQEND
 8
0
  0
POLYLINE
  8
0
 62
     250
 66
     1
 10
0
 20
0
 30
0.0
 70
     1
 40
0
 41
0
  0
VERTEX
  8
0
 10
0.189128
 20
0.229221
 30
0.0
 40
0
 41
0
  0
VERTEX
  8
0
 10
0.158583
 20
0.229221
 30
0.0
 40
0
 41
0
  0
VERTEX
  8
0
 10
0.158583
 20
0.165201
 30
0.0
 40
0
 41
0
  0
VERTEX
  8
0
 10
0.189128
 20
0.165201
 30
0.0
 40
0
 41
0
  0
VERTEX
  8
0
 10
0.189128
 20
0.229221
 30
0.0
 40
0
 41
0
  0
SEQEND
 8
0
  0
POLYLINE
  8
0
 62
     250
 66
     1
 10
0
 20
0
 30
0.0
 70
     1
 40
0
 41
0
  0
VERTEX
  8
0
 10
0.206706
 20
0.148546
 30
0.0
 40
0
 41
0
  0
VERTEX
  8
0
 10
0.139865
 20
0.148546
 30
0.0
 40
0
 41
0
  0
VERTEX
  8
0
 10
0.139865
 20
0.245931
 30
0.0
 40
0
 41
0
  0
VERTEX
  8
0
 10
0.206706
 20
0.245931
 30
0.0
 40
0
 41
0
  0
VERTEX
  8
0
 10
0.206706
 20
0.148546
 30
0.0
 40
0
 41
0
  0
SEQEND
 8
0
  0
POLYLINE
  8
0
 62
     250
 66
     1
 10
0
 20
0
 30
0.0
 70
     1
 40
0
 41
0
  0
VERTEX
  8
0
 10
0.238986
 20
0.205132
 30
0.0
 40
0
 41
0
  0
VERTEX
  8
0
 10
0.269586
 20
0.205132
 30
0.0
 40
0
 41
0
  0
VERTEX
  8
0
 10
0.269586
 20
0.229221
 30
0.0
 40
0
 41
0
  0
VERTEX
  8
0
 10
0.238986
 20
0.229221
 30
0.0
 40
0
 41
0
  0
VERTEX
  8
0
 10
0.238986
 20
0.205132
 30
0.0
 40
0
 41
0
  0
SEQEND
 8
0
  0
POLYLINE
  8
0
 62
     250
 66
     1
 10
0
 20
0
 30
0.0
 70
     1
 40
0
 41
0
  0
VERTEX
  8
0
 10
0.220269
 20
0.148546
 30
0.0
 40
0
 41
0
  0
VERTEX
  8
0
 10
0.220269
 20
0.245931
 30
0.0
 40
0
 41
0
  0
VERTEX
  8
0
 10
0.287164
 20
0.245931
 30
0.0
 40
0
 41
0
  0
VERTEX
  8
0
 10
0.287164
 20
0.18929
 30
0.0
 40
0
 41
0
  0
VERTEX
  8
0
 10
0.264268
 20
0.18929
 30
0.0
 40
0
 41
0
  0
VERTEX
  8
0
 10
0.287164
 20
0.148546
 30
0.0
 40
0
 41
0
  0
VERTEX
  8
0
 10
0.269586
 20
0.148546
 30
0.0
 40
0
 41
0
  0
VERTEX
  8
0
 10
0.245551
 20
0.18929
 30
0.0
 40
0
 41
0
  0
VERTEX
  8
0
 10
0.238986
 20
0.18929
 30
0.0
 40
0
 41
0
  0
VERTEX
  8
0
 10
0.238986
 20
0.148546
 30
0.0
 40
0
 41
0
  0
VERTEX
  8
0
 10
0.220269
 20
0.148546
 30
0.0
 40
0
 41
0
  0
SEQEND
 8
0
  0
POLYLINE
  8
0
 62
     250
 66
     1
 10
0
 20
0
 30
0.0
 70
     1
 40
0
 41
0
  0
VERTEX
  8
0
 10
0.32601
 20
0.229221
 30
0.0
 40
0
 41
0
  0
VERTEX
  8
0
 10
0.300726
 20
0.229221
 30
0.0
 40
0
 41
0
  0
VERTEX
  8
0
 10
0.300726
 20
0.245931
 30
0.0
 40
0
 41
0
  0
VERTEX
  8
0
 10
0.367567
 20
0.245931
 30
0.0
 40
0
 41
0
  0
VERTEX
  8
0
 10
0.367567
 20
0.229221
 30
0.0
 40
0
 41
0
  0
VERTEX
  8
0
 10
0.344726
 20
0.229221
 30
0.0
 40
0
 41
0
  0
VERTEX
  8
0
 10
0.344726
 20
0.148546
 30
0.0
 40
0
 41
0
  0
VERTEX
  8
0
 10
0.32601
 20
0.148546
 30
0.0
 40
0
 41
0
  0
VERTEX
  8
0
 10
0.32601
 20
0.229221
 30
0.0
 40
0
 41
0
  0
SEQEND
 8
0
  0
POLYLINE
  8
0
 62
     250
 66
     1
 10
0
 20
0
 30
0.0
 70
     1
 40
0
 41
0
  0
VERTEX
  8
0
 10
0.399849
 20
0.229221
 30
0.0
 40
0
 41
0
  0
VERTEX
  8
0
 10
0.399849
 20
0.205186
 30
0.0
 40
0
 41
0
  0
VERTEX
  8
0
 10
0.448025
 20
0.205186
 30
0.0
 40
0
 41
0
  0
VERTEX
  8
0
 10
0.448025
 20
0.18929
 30
0.0
 40
0
 41
0
  0
VERTEX
  8
0
 10
0.399849
 20
0.18929
 30
0.0
 40
0
 41
0
  0
VERTEX
  8
0
 10
0.399849
 20
0.165201
 30
0.0
 40
0
 41
0
  0
VERTEX
  8
0
 10
0.448025
 20
0.165201
 30
0.0
 40
0
 41
0
  0
VERTEX
  8
0
 10
0.448025
 20
0.148546
 30
0.0
 40
0
 41
0
  0
VERTEX
  8
0
 10
0.381131
 20
0.148546
 30
0.0
 40
0
 41
0
  0
VERTEX
  8
0
 10
0.381131
 20
0.245931
 30
0.0
 40
0
 41
0
  0
VERTEX
  8
0
 10
0.448025
 20
0.245931
 30
0.0
 40
0
 41
0
  0
VERTEX
  8
0
 10
0.448025
 20
0.229221
 30
0.0
 40
0
 41
0
  0
VERTEX
  8
0
 10
0.399849
 20
0.229221
 30
0.0
 40
0
 41
0
  0
SEQEND
 8
0
  0
POLYLINE
  8
0
 62
     250
 66
     1
 10
0
 20
0
 30
0.0
 70
     1
 40
0
 41
0
  0
VERTEX
  8
0
 10
0.510851
 20
0.229221
 30
0.0
 40
0
 41
0
  0
VERTEX
  8
0
 10
0.480306
 20
0.229221
 30
0.0
 40
0
 41
0
  0
VERTEX
  8
0
 10
0.480306
 20
0.165201
 30
0.0
 40
0
 41
0
  0
VERTEX
  8
0
 10
0.510851
 20
0.165201
 30
0.0
 40
0
 41
0
  0
VERTEX
  8
0
 10
0.510851
 20
0.229221
 30
0.0
 40
0
 41
0
  0
SEQEND
 8
0
  0
POLYLINE
  8
0
 62
     250
 66
     1
 10
0
 20
0
 30
0.0
 70
     1
 40
0
 41
0
  0
VERTEX
  8
0
 10
0.461589
 20
0.148546
 30
0.0
 40
0
 41
0
  0
VERTEX
  8
0
 10
0.461589
 20
0.245931
 30
0.0
 40
0
 41
0
  0
VERTEX
  8
0
 10
0.521376
 20
0.245931
 30
0.0
 40
0
 41
0
  0
VERTEX
  8
0
 10
0.528429
 20
0.237358
 30
0.0
 40
0
 41
0
  0
VERTEX
  8
0
 10
0.528429
 20
0.157064
 30
0.0
 40
0
 41
0
  0
VERTEX
  8
0
 10
0.521431
 20
0.148546
 30
0.0
 40
0
 41
0
  0
VERTEX
  8
0
 10
0.461589
 20
0.148546
 30
0.0
 40
0
 41
0
  0
SEQEND
 8
0
  0
POLYLINE
  8
0
 62
     250
 66
     1
 10
0
 20
0
 30
0.0
 70
     1
 40
0
 41
0
  0
VERTEX
  8
0
 10
0.595161
 20
0.148546
 30
0.0
 40
0
 41
0
  0
VERTEX
  8
0
 10
0.576443
 20
0.148546
 30
0.0
 40
0
 41
0
  0
VERTEX
  8
0
 10
0.576443
 20
0.245931
 30
0.0
 40
0
 41
0
  0
VERTEX
  8
0
 10
0.643338
 20
0.245931
 30
0.0
 40
0
 41
0
  0
VERTEX
  8
0
 10
0.643338
 20
0.229221
 30
0.0
 40
0
 41
0
  0
VERTEX
  8
0
 10
0.595161
 20
0.229221
 30
0.0
 40
0
 41
0
  0
VERTEX
  8
0
 10
0.595161
 20
0.205132
 30
0.0
 40
0
 41
0
  0
VERTEX
  8
0
 10
0.643338
 20
0.205132
 30
0.0
 40
0
 41
0
  0
VERTEX
  8
0
 10
0.643338
 20
0.18929
 30
0.0
 40
0
 41
0
  0
VERTEX
  8
0
 10
0.595161
 20
0.18929
 30
0.0
 40
0
 41
0
  0
VERTEX
  8
0
 10
0.595161
 20
0.148546
 30
0.0
 40
0
 41
0
  0
SEQEND
 8
0
  0
POLYLINE
  8
0
 62
     250
 66
     1
 10
0
 20
0
 30
0.0
 70
     1
 40
0
 41
0
  0
VERTEX
  8
0
 10
0.675618
 20
0.165201
 30
0.0
 40
0
 41
0
  0
VERTEX
  8
0
 10
0.723742
 20
0.165201
 30
0.0
 40
0
 41
0
  0
VERTEX
  8
0
 10
0.723742
 20
0.148546
 30
0.0
 40
0
 41
0
  0
VERTEX
  8
0
 10
0.656901
 20
0.148546
 30
0.0
 40
0
 41
0
  0
VERTEX
  8
0
 10
0.656901
 20
0.245931
 30
0.0
 40
0
 41
0
  0
VERTEX
  8
0
 10
0.675618
 20
0.245931
 30
0.0
 40
0
 41
0
  0
VERTEX
  8
0
 10
0.675618
 20
0.165201
 30
0.0
 40
0
 41
0
  0
SEQEND
 8
0
  0
POLYLINE
  8
0
 62
     250
 66
     1
 10
0
 20
0
 30
0.0
 70
     1
 40
0
 41
0
  0
VERTEX
  8
0
 10
0.756022
 20
0.205132
 30
0.0
 40
0
 41
0
  0
VERTEX
  8
0
 10
0.786621
 20
0.205132
 30
0.0
 40
0
 41
0
  0
VERTEX
  8
0
 10
0.786621
 20
0.229221
 30
0.0
 40
0
 41
0
  0
VERTEX
  8
0
 10
0.756022
 20
0.229221
 30
0.0
 40
0
 41
0
  0
VERTEX
  8
0
 10
0.756022
 20
0.205132
 30
0.0
 40
0
 41
0
  0
SEQEND
 8
0
  0
POLYLINE
  8
0
 62
     250
 66
     1
 10
0
 20
0
 30
0.0
 70
     1
 40
0
 41
0
  0
VERTEX
  8
0
 10
0.786621
 20
0.18929
 30
0.0
 40
0
 41
0
  0
VERTEX
  8
0
 10
0.756022
 20
0.18929
 30
0.0
 40
0
 41
0
  0
VERTEX
  8
0
 10
0.756022
 20
0.148546
 30
0.0
 40
0
 41
0
  0
VERTEX
  8
0
 10
0.737304
 20
0.148546
 30
0.0
 40
0
 41
0
  0
VERTEX
  8
0
 10
0.737304
 20
0.245931
 30
0.0
 40
0
 41
0
  0
VERTEX
  8
0
 10
0.804199
 20
0.245931
 30
0.0
 40
0
 41
0
  0
VERTEX
  8
0
 10
0.804199
 20
0.148546
 30
0.0
 40
0
 41
0
  0
VERTEX
  8
0
 10
0.786621
 20
0.148546
 30
0.0
 40
0
 41
0
  0
VERTEX
  8
0
 10
0.786621
 20
0.18929
 30
0.0
 40
0
 41
0
  0
SEQEND
 8
0
  0
POLYLINE
  8
0
 62
     250
 66
     1
 10
0
 20
0
 30
0.0
 70
     1
 40
0
 41
0
  0
VERTEX
  8
0
 10
0.836481
 20
0.148546
 30
0.0
 40
0
 41
0
  0
VERTEX
  8
0
 10
0.817762
 20
0.148546
 30
0.0
 40
0
 41
0
  0
VERTEX
  8
0
 10
0.817762
 20
0.245931
 30
0.0
 40
0
 41
0
  0
VERTEX
  8
0
 10
0.836481
 20
0.245931
 30
0.0
 40
0
 41
0
  0
VERTEX
  8
0
 10
0.836481
 20
0.205132
 30
0.0
 40
0
 41
0
  0
VERTEX
  8
0
 10
0.867025
 20
0.245931
 30
0.0
 40
0
 41
0
  0
VERTEX
  8
0
 10
0.884603
 20
0.245931
 30
0.0
 40
0
 41
0
  0
VERTEX
  8
0
 10
0.851997
 20
0.19846
 30
0.0
 40
0
 41
0
  0
VERTEX
  8
0
 10
0.884603
 20
0.148546
 30
0.0
 40
0
 41
0
  0
VERTEX
  8
0
 10
0.867025
 20
0.148546
 30
0.0
 40
0
 41
0
  0
VERTEX
  8
0
 10
0.836481
 20
0.18929
 30
0.0
 40
0
 41
0
  0
VERTEX
  8
0
 10
0.836481
 20
0.148546
 30
0.0
 40
0
 41
0
  0
SEQEND
 8
0
  0
POLYLINE
  8
0
 62
     250
 66
     1
 10
0
 20
0
 30
0.0
 70
     1
 40
0
 41
0
  0
VERTEX
  8
0
 10
0.916883
 20
0.229221
 30
0.0
 40
0
 41
0
  0
VERTEX
  8
0
 10
0.916883
 20
0.205186
 30
0.0
 40
0
 41
0
  0
VERTEX
  8
0
 10
0.965061
 20
0.205186
 30
0.0
 40
0
 41
0
  0
VERTEX
  8
0
 10
0.965061
 20
0.18929
 30
0.0
 40
0
 41
0
  0
VERTEX
  8
0
 10
0.916883
 20
0.18929
 30
0.0
 40
0
 41
0
  0
VERTEX
  8
0
 10
0.916883
 20
0.165201
 30
0.0
 40
0
 41
0
  0
VERTEX
  8
0
 10
0.965061
 20
0.165201
 30
0.0
 40
0
 41
0
  0
VERTEX
  8
0
 10
0.965061
 20
0.148546
 30
0.0
 40
0
 41
0
  0
VERTEX
  8
0
 10
0.898167
 20
0.148546
 30
0.0
 40
0
 41
0
  0
VERTEX
  8
0
 10
0.898167
 20
0.245931
 30
0.0
 40
0
 41
0
  0
VERTEX
  8
0
 10
0.965061
 20
0.245931
 30
0.0
 40
0
 41
0
  0
VERTEX
  8
0
 10
0.965061
 20
0.229221
 30
0.0
 40
0
 41
0
  0
VERTEX
  8
0
 10
0.916883
 20
0.229221
 30
0.0
 40
0
 41
0
  0
SEQEND
 8
0
  0
POLYLINE
  8
0
 62
     250
 66
     1
 10
0
 20
0
 30
0.0
 70
     1
 40
0
 41
0
  0
VERTEX
  8
0
 10
0.978624
 20
0.18929
 30
0.0
 40
0
 41
0
  0
VERTEX
  8
0
 10
0.978624
 20
0.245931
 30
0.0
 40
0
 41
0
  0
VERTEX
  8
0
 10
1.04546
 20
0.245931
 30
0.0
 40
0
 41
0
  0
VERTEX
  8
0
 10
1.04546
 20
0.229221
 30
0.0
 40
0
 41
0
  0
VERTEX
  8
0
 10
0.997342
 20
0.229221
 30
0.0
 40
0
 41
0
  0
VERTEX
  8
0
 10
0.997342
 20
0.205186
 30
0.0
 40
0
 41
0
  0
VERTEX
  8
0
 10
1.04546
 20
0.205186
 30
0.0
 40
0
 41
0
  0
VERTEX
  8
0
 10
1.04546
 20
0.148546
 30
0.0
 40
0
 41
0
  0
VERTEX
  8
0
 10
0.978624
 20
0.148546
 30
0.0
 40
0
 41
0
  0
VERTEX
  8
0
 10
0.978624
 20
0.165201
 30
0.0
 40
0
 41
0
  0
VERTEX
  8
0
 10
1.02789
 20
0.165201
 30
0.0
 40
0
 41
0
  0
VERTEX
  8
0
 10
1.02789
 20
0.18929
 30
0.0
 40
0
 41
0
  0
VERTEX
  8
0
 10
0.978624
 20
0.18929
 30
0.0
 40
0
 41
0
  0
SEQEND
 8
0
  0
POLYLINE
  8
0
 62
     250
 66
     1
 10
0
 20
0
 30
0.0
 70
     1
 40
0
 41
0
  0
VERTEX
  8
0
 10
1.17084
 20
0.18929
 30
0.0
 40
0
 41
0
  0
VERTEX
  8
0
 10
1.17084
 20
0.245876
 30
0.0
 40
0
 41
0
  0
VERTEX
  8
0
 10
1.23768
 20
0.245876
 30
0.0
 40
0
 41
0
  0
VERTEX
  8
0
 10
1.23768
 20
0.229221
 30
0.0
 40
0
 41
0
  0
VERTEX
  8
0
 10
1.18956
 20
0.229221
 30
0.0
 40
0
 41
0
  0
VERTEX
  8
0
 10
1.18956
 20
0.205132
 30
0.0
 40
0
 41
0
  0
VERTEX
  8
0
 10
1.23768
 20
0.205132
 30
0.0
 40
0
 41
0
  0
VERTEX
  8
0
 10
1.23768
 20
0.148492
 30
0.0
 40
0
 41
0
  0
VERTEX
  8
0
 10
1.17084
 20
0.148492
 30
0.0
 40
0
 41
0
  0
VERTEX
  8
0
 10
1.17084
 20
0.165201
 30
0.0
 40
0
 41
0
  0
VERTEX
  8
0
 10
1.22011
 20
0.165201
 30
0.0
 40
0
 41
0
  0
VERTEX
  8
0
 10
1.22011
 20
0.18929
 30
0.0
 40
0
 41
0
  0
VERTEX
  8
0
 10
1.17084
 20
0.18929
 30
0.0
 40
0
 41
0
  0
SEQEND
 8
0
  0
POLYLINE
  8
0
 62
     250
 66
     1
 10
0
 20
0
 30
0.0
 70
     1
 40
0
 41
0
  0
VERTEX
  8
0
 10
1.30056
 20
0.229221
 30
0.0
 40
0
 41
0
  0
VERTEX
  8
0
 10
1.26997
 20
0.229221
 30
0.0
 40
0
 41
0
  0
VERTEX
  8
0
 10
1.26997
 20
0.165201
 30
0.0
 40
0
 41
0
  0
VERTEX
  8
0
 10
1.30056
 20
0.165201
 30
0.0
 40
0
 41
0
  0
VERTEX
  8
0
 10
1.30056
 20
0.229221
 30
0.0
 40
0
 41
0
  0
SEQEND
 8
0
  0
POLYLINE
  8
0
 62
     250
 66
     1
 10
0
 20
0
 30
0.0
 70
     1
 40
0
 41
0
  0
VERTEX
  8
0
 10
1.31814
 20
0.148492
 30
0.0
 40
0
 41
0
  0
VERTEX
  8
0
 10
1.25125
 20
0.148492
 30
0.0
 40
0
 41
0
  0
VERTEX
  8
0
 10
1.25125
 20
0.245876
 30
0.0
 40
0
 41
0
  0
VERTEX
  8
0
 10
1.31814
 20
0.245876
 30
0.0
 40
0
 41
0
  0
VERTEX
  8
0
 10
1.31814
 20
0.148492
 30
0.0
 40
0
 41
0
  0
SEQEND
 8
0
  0
POLYLINE
  8
0
 62
     250
 66
     1
 10
0
 20
0
 30
0.0
 70
     1
 40
0
 41
0
  0
VERTEX
  8
0
 10
1.35042
 20
0.205132
 30
0.0
 40
0
 41
0
  0
VERTEX
  8
0
 10
1.38097
 20
0.205132
 30
0.0
 40
0
 41
0
  0
VERTEX
  8
0
 10
1.38097
 20
0.229221
 30
0.0
 40
0
 41
0
  0
VERTEX
  8
0
 10
1.35042
 20
0.229221
 30
0.0
 40
0
 41
0
  0
VERTEX
  8
0
 10
1.35042
 20
0.205132
 30
0.0
 40
0
 41
0
  0
SEQEND
 8
0
  0
POLYLINE
  8
0
 62
     250
 66
     1
 10
0
 20
0
 30
0.0
 70
     1
 40
0
 41
0
  0
VERTEX
  8
0
 10
1.33171
 20
0.148492
 30
0.0
 40
0
 41
0
  0
VERTEX
  8
0
 10
1.33171
 20
0.245876
 30
0.0
 40
0
 41
0
  0
VERTEX
  8
0
 10
1.39854
 20
0.245876
 30
0.0
 40
0
 41
0
  0
VERTEX
  8
0
 10
1.39854
 20
0.18929
 30
0.0
 40
0
 41
0
  0
VERTEX
  8
0
 10
1.37571
 20
0.18929
 30
0.0
 40
0
 41
0
  0
VERTEX
  8
0
 10
1.39854
 20
0.148492
 30
0.0
 40
0
 41
0
  0
VERTEX
  8
0
 10
1.38097
 20
0.148492
 30
0.0
 40
0
 41
0
  0
VERTEX
  8
0
 10
1.35699
 20
0.18929
 30
0.0
 40
0
 41
0
  0
VERTEX
  8
0
 10
1.35042
 20
0.18929
 30
0.0
 40
0
 41
0
  0
VERTEX
  8
0
 10
1.35042
 20
0.148492
 30
0.0
 40
0
 41
0
  0
VERTEX
  8
0
 10
1.33171
 20
0.148492
 30
0.0
 40
0
 41
0
  0
SEQEND
 8
0
  0
POLYLINE
  8
0
 62
     250
 66
     1
 10
0
 20
0
 30
0.0
 70
     1
 40
0
 41
0
  0
VERTEX
  8
0
 10
1.43739
 20
0.229221
 30
0.0
 40
0
 41
0
  0
VERTEX
  8
0
 10
1.41211
 20
0.229221
 30
0.0
 40
0
 41
0
  0
VERTEX
  8
0
 10
1.41211
 20
0.245876
 30
0.0
 40
0
 41
0
  0
VERTEX
  8
0
 10
1.479
 20
0.245876
 30
0.0
 40
0
 41
0
  0
VERTEX
  8
0
 10
1.479
 20
0.229221
 30
0.0
 40
0
 41
0
  0
VERTEX
  8
0
 10
1.45611
 20
0.229221
 30
0.0
 40
0
 41
0
  0
VERTEX
  8
0
 10
1.45611
 20
0.148492
 30
0.0
 40
0
 41
0
  0
VERTEX
  8
0
 10
1.43739
 20
0.148492
 30
0.0
 40
0
 41
0
  0
VERTEX
  8
0
 10
1.43739
 20
0.229221
 30
0.0
 40
0
 41
0
  0
SEQEND
 8
0
  0
POLYLINE
  8
0
 62
     250
 66
     1
 10
0
 20
0
 30
0.0
 70
     1
 40
0
 41
0
  0
VERTEX
  8
0
 10
1.51129
 20
0.229221
 30
0.0
 40
0
 41
0
  0
VERTEX
  8
0
 10
1.51129
 20
0.205132
 30
0.0
 40
0
 41
0
  0
VERTEX
  8
0
 10
1.5594
 20
0.205132
 30
0.0
 40
0
 41
0
  0
VERTEX
  8
0
 10
1.5594
 20
0.18929
 30
0.0
 40
0
 41
0
  0
VERTEX
  8
0
 10
1.51129
 20
0.18929
 30
0.0
 40
0
 41
0
  0
VERTEX
  8
0
 10
1.51129
 20
0.165201
 30
0.0
 40
0
 41
0
  0
VERTEX
  8
0
 10
1.5594
 20
0.165201
 30
0.0
 40
0
 41
0
  0
VERTEX
  8
0
 10
1.5594
 20
0.148492
 30
0.0
 40
0
 41
0
  0
VERTEX
  8
0
 10
1.49257
 20
0.148492
 30
0.0
 40
0
 41
0
  0
VERTEX
  8
0
 10
1.49257
 20
0.245876
 30
0.0
 40
0
 41
0
  0
VERTEX
  8
0
 10
1.5594
 20
0.245876
 30
0.0
 40
0
 41
0
  0
VERTEX
  8
0
 10
1.5594
 20
0.229221
 30
0.0
 40
0
 41
0
  0
VERTEX
  8
0
 10
1.51129
 20
0.229221
 30
0.0
 40
0
 41
0
  0
SEQEND
 8
0
  0
POLYLINE
  8
0
 62
     250
 66
     1
 10
0
 20
0
 30
0.0
 70
     1
 40
0
 41
0
  0
VERTEX
  8
0
 10
1.62229
 20
0.229221
 30
0.0
 40
0
 41
0
  0
VERTEX
  8
0
 10
1.59169
 20
0.229221
 30
0.0
 40
0
 41
0
  0
VERTEX
  8
0
 10
1.59169
 20
0.165201
 30
0.0
 40
0
 41
0
  0
VERTEX
  8
0
 10
1.62229
 20
0.165201
 30
0.0
 40
0
 41
0
  0
VERTEX
  8
0
 10
1.62229
 20
0.229221
 30
0.0
 40
0
 41
0
  0
SEQEND
 8
0
  0
POLYLINE
  8
0
 62
     250
 66
     1
 10
0
 20
0
 30
0.0
 70
     1
 40
0
 41
0
  0
VERTEX
  8
0
 10
1.57297
 20
0.148492
 30
0.0
 40
0
 41
0
  0
VERTEX
  8
0
 10
1.57297
 20
0.245876
 30
0.0
 40
0
 41
0
  0
VERTEX
  8
0
 10
1.63282
 20
0.245876
 30
0.0
 40
0
 41
0
  0
VERTEX
  8
0
 10
1.63981
 20
0.237358
 30
0.0
 40
0
 41
0
  0
VERTEX
  8
0
 10
1.63981
 20
0.157064
 30
0.0
 40
0
 41
0
  0
VERTEX
  8
0
 10
1.63286
 20
0.148492
 30
0.0
 40
0
 41
0
  0
VERTEX
  8
0
 10
1.57297
 20
0.148492
 30
0.0
 40
0
 41
0
  0
SEQEND
 8
0
  0
POLYLINE
  8
0
 62
     250
 66
     1
 10
0
 20
0
 30
0.0
 70
     1
 40
0
 41
0
  0
VERTEX
  8
0
 10
1.70654
 20
0.165201
 30
0.0
 40
0
 41
0
  0
VERTEX
  8
0
 10
1.75472
 20
0.165201
 30
0.0
 40
0
 41
0
  0
VERTEX
  8
0
 10
1.75472
 20
0.148492
 30
0.0
 40
0
 41
0
  0
VERTEX
  8
0
 10
1.68782
 20
0.148492
 30
0.0
 40
0
 41
0
  0
VERTEX
  8
0
 10
1.68782
 20
0.245931
 30
0.0
 40
0
 41
0
  0
VERTEX
  8
0
 10
1.75472
 20
0.245931
 30
0.0
 40
0
 41
0
  0
VERTEX
  8
0
 10
1.75472
 20
0.229221
 30
0.0
 40
0
 41
0
  0
VERTEX
  8
0
 10
1.70654
 20
0.229221
 30
0.0
 40
0
 41
0
  0
VERTEX
  8
0
 10
1.70654
 20
0.165201
 30
0.0
 40
0
 41
0
  0
SEQEND
 8
0
  0
POLYLINE
  8
0
 62
     250
 66
     1
 10
0
 20
0
 30
0.0
 70
     1
 40
0
 41
0
  0
VERTEX
  8
0
 10
1.787
 20
0.205132
 30
0.0
 40
0
 41
0
  0
VERTEX
  8
0
 10
1.8176
 20
0.205132
 30
0.0
 40
0
 41
0
  0
VERTEX
  8
0
 10
1.8176
 20
0.229221
 30
0.0
 40
0
 41
0
  0
VERTEX
  8
0
 10
1.787
 20
0.229221
 30
0.0
 40
0
 41
0
  0
VERTEX
  8
0
 10
1.787
 20
0.205132
 30
0.0
 40
0
 41
0
  0
SEQEND
 8
0
  0
POLYLINE
  8
0
 62
     250
 66
     1
 10
0
 20
0
 30
0.0
 70
     1
 40
0
 41
0
  0
VERTEX
  8
0
 10
1.8176
 20
0.18929
 30
0.0
 40
0
 41
0
  0
VERTEX
  8
0
 10
1.787
 20
0.18929
 30
0.0
 40
0
 41
0
  0
VERTEX
  8
0
 10
1.787
 20
0.148492
 30
0.0
 40
0
 41
0
  0
VERTEX
  8
0
 10
1.76828
 20
0.148492
 30
0.0
 40
0
 41
0
  0
VERTEX
  8
0
 10
1.76828
 20
0.245876
 30
0.0
 40
0
 41
0
  0
VERTEX
  8
0
 10
1.83518
 20
0.245876
 30
0.0
 40
0
 41
0
  0
VERTEX
  8
0
 10
1.83518
 20
0.148492
 30
0.0
 40
0
 41
0
  0
VERTEX
  8
0
 10
1.8176
 20
0.148492
 30
0.0
 40
0
 41
0
  0
VERTEX
  8
0
 10
1.8176
 20
0.18929
 30
0.0
 40
0
 41
0
  0
SEQEND
 8
0
  0
POLYLINE
  8
0
 62
     250
 66
     1
 10
0
 20
0
 30
0.0
 70
     1
 40
0
 41
0
  0
VERTEX
  8
0
 10
1.8674
 20
0.205132
 30
0.0
 40
0
 41
0
  0
VERTEX
  8
0
 10
1.898
 20
0.205132
 30
0.0
 40
0
 41
0
  0
VERTEX
  8
0
 10
1.898
 20
0.229221
 30
0.0
 40
0
 41
0
  0
VERTEX
  8
0
 10
1.8674
 20
0.229221
 30
0.0
 40
0
 41
0
  0
VERTEX
  8
0
 10
1.8674
 20
0.205132
 30
0.0
 40
0
 41
0
  0
SEQEND
 8
0
  0
POLYLINE
  8
0
 62
     250
 66
     1
 10
0
 20
0
 30
0.0
 70
     1
 40
0
 41
0
  0
VERTEX
  8
0
 10
1.8674
 20
0.148492
 30
0.0
 40
0
 41
0
  0
VERTEX
  8
0
 10
1.84868
 20
0.148492
 30
0.0
 40
0
 41
0
  0
VERTEX
  8
0
 10
1.84868
 20
0.245876
 30
0.0
 40
0
 41
0
  0
VERTEX
  8
0
 10
1.91558
 20
0.245876
 30
0.0
 40
0
 41
0
  0
VERTEX
  8
0
 10
1.91558
 20
0.18929
 30
0.0
 40
0
 41
0
  0
VERTEX
  8
0
 10
1.8674
 20
0.18929
 30
0.0
 40
0
 41
0
  0
VERTEX
  8
0
 10
1.8674
 20
0.148492
 30
0.0
 40
0
 41
0
  0
SEQEND
 8
0
  0
POLYLINE
  8
0
 62
     250
 66
     1
 10
0
 20
0
 30
0.0
 70
     1
 40
0
 41
0
  0
VERTEX
  8
0
 10
1.92914
 20
0.18929
 30
0.0
 40
0
 41
0
  0
VERTEX
  8
0
 10
1.92914
 20
0.245876
 30
0.0
 40
0
 41
0
  0
VERTEX
  8
0
 10
1.99599
 20
0.245876
 30
0.0
 40
0
 41
0
  0
VERTEX
  8
0
 10
1.99599
 20
0.229221
 30
0.0
 40
0
 41
0
  0
VERTEX
  8
0
 10
1.94786
 20
0.229221
 30
0.0
 40
0
 41
0
  0
VERTEX
  8
0
 10
1.94786
 20
0.205132
 30
0.0
 40
0
 41
0
  0
VERTEX
  8
0
 10
1.99599
 20
0.205132
 30
0.0
 40
0
 41
0
  0
VERTEX
  8
0
 10
1.99599
 20
0.148492
 30
0.0
 40
0
 41
0
  0
VERTEX
  8
0
 10
1.92914
 20
0.148492
 30
0.0
 40
0
 41
0
  0
VERTEX
  8
0
 10
1.92914
 20
0.165201
 30
0.0
 40
0
 41
0
  0
VERTEX
  8
0
 10
1.97846
 20
0.165201
 30
0.0
 40
0
 41
0
  0
VERTEX
  8
0
 10
1.97846
 20
0.18929
 30
0.0
 40
0
 41
0
  0
VERTEX
  8
0
 10
1.92914
 20
0.18929
 30
0.0
 40
0
 41
0
  0
SEQEND
 8
0
  0
POLYLINE
  8
0
 62
     250
 66
     1
 10
0
 20
0
 30
0.0
 70
     1
 40
0
 41
0
  0
VERTEX
  8
0
 10
2.11442
 20
0.18929
 30
0.0
 40
0
 41
0
  0
VERTEX
  8
0
 10
2.11442
 20
0.245931
 30
0.0
 40
0
 41
0
  0
VERTEX
  8
0
 10
2.18132
 20
0.245931
 30
0.0
 40
0
 41
0
  0
VERTEX
  8
0
 10
2.18132
 20
0.229221
 30
0.0
 40
0
 41
0
  0
VERTEX
  8
0
 10
2.13319
 20
0.229221
 30
0.0
 40
0
 41
0
  0
VERTEX
  8
0
 10
2.13319
 20
0.205186
 30
0.0
 40
0
 41
0
  0
VERTEX
  8
0
 10
2.18132
 20
0.205186
 30
0.0
 40
0
 41
0
  0
VERTEX
  8
0
 10
2.18132
 20
0.148546
 30
0.0
 40
0
 41
0
  0
VERTEX
  8
0
 10
2.11442
 20
0.148546
 30
0.0
 40
0
 41
0
  0
VERTEX
  8
0
 10
2.11442
 20
0.165201
 30
0.0
 40
0
 41
0
  0
VERTEX
  8
0
 10
2.16374
 20
0.165201
 30
0.0
 40
0
 41
0
  0
VERTEX
  8
0
 10
2.16374
 20
0.18929
 30
0.0
 40
0
 41
0
  0
VERTEX
  8
0
 10
2.11442
 20
0.18929
 30
0.0
 40
0
 41
0
  0
SEQEND
 8
0
  0
POLYLINE
  8
0
 62
     250
 66
     1
 10
0
 20
0
 30
0.0
 70
     1
 40
0
 41
0
  0
VERTEX
  8
0
 10
2.24419
 20
0.229221
 30
0.0
 40
0
 41
0
  0
VERTEX
  8
0
 10
2.2136
 20
0.229221
 30
0.0
 40
0
 41
0
  0
VERTEX
  8
0
 10
2.2136
 20
0.165201
 30
0.0
 40
0
 41
0
  0
VERTEX
  8
0
 10
2.24419
 20
0.165201
 30
0.0
 40
0
 41
0
  0
VERTEX
  8
0
 10
2.24419
 20
0.229221
 30
0.0
 40
0
 41
0
  0
SEQEND
 8
0
  0
POLYLINE
  8
0
 62
     250
 66
     1
 10
0
 20
0
 30
0.0
 70
     1
 40
0
 41
0
  0
VERTEX
  8
0
 10
2.26178
 20
0.148546
 30
0.0
 40
0
 41
0
  0
VERTEX
  8
0
 10
2.19488
 20
0.148546
 30
0.0
 40
0
 41
0
  0
VERTEX
  8
0
 10
2.19488
 20
0.245931
 30
0.0
 40
0
 41
0
  0
VERTEX
  8
0
 10
2.26178
 20
0.245931
 30
0.0
 40
0
 41
0
  0
VERTEX
  8
0
 10
2.26178
 20
0.148546
 30
0.0
 40
0
 41
0
  0
SEQEND
 8
0
  0
POLYLINE
  8
0
 62
     250
 66
     1
 10
0
 20
0
 30
0.0
 70
     1
 40
0
 41
0
  0
VERTEX
  8
0
 10
2.29406
 20
0.205132
 30
0.0
 40
0
 41
0
  0
VERTEX
  8
0
 10
2.3246
 20
0.205132
 30
0.0
 40
0
 41
0
  0
VERTEX
  8
0
 10
2.3246
 20
0.229221
 30
0.0
 40
0
 41
0
  0
VERTEX
  8
0
 10
2.29406
 20
0.229221
 30
0.0
 40
0
 41
0
  0
VERTEX
  8
0
 10
2.29406
 20
0.205132
 30
0.0
 40
0
 41
0
  0
SEQEND
 8
0
  0
POLYLINE
  8
0
 62
     250
 66
     1
 10
0
 20
0
 30
0.0
 70
     1
 40
0
 41
0
  0
VERTEX
  8
0
 10
2.27528
 20
0.148546
 30
0.0
 40
0
 41
0
  0
VERTEX
  8
0
 10
2.27528
 20
0.245931
 30
0.0
 40
0
 41
0
  0
VERTEX
  8
0
 10
2.34218
 20
0.245931
 30
0.0
 40
0
 41
0
  0
VERTEX
  8
0
 10
2.34218
 20
0.18929
 30
0.0
 40
0
 41
0
  0
VERTEX
  8
0
 10
2.31933
 20
0.18929
 30
0.0
 40
0
 41
0
  0
VERTEX
  8
0
 10
2.34218
 20
0.148546
 30
0.0
 40
0
 41
0
  0
VERTEX
  8
0
 10
2.3246
 20
0.148546
 30
0.0
 40
0
 41
0
  0
VERTEX
  8
0
 10
2.30063
 20
0.18929
 30
0.0
 40
0
 41
0
  0
VERTEX
  8
0
 10
2.29406
 20
0.18929
 30
0.0
 40
0
 41
0
  0
VERTEX
  8
0
 10
2.29406
 20
0.148546
 30
0.0
 40
0
 41
0
  0
VERTEX
  8
0
 10
2.27528
 20
0.148546
 30
0.0
 40
0
 41
0
  0
SEQEND
 8
0
  0
POLYLINE
  8
0
 62
     250
 66
     1
 10
0
 20
0
 30
0.0
 70
     1
 40
0
 41
0
  0
VERTEX
  8
0
 10
2.38103
 20
0.229221
 30
0.0
 40
0
 41
0
  0
VERTEX
  8
0
 10
2.35574
 20
0.229221
 30
0.0
 40
0
 41
0
  0
VERTEX
  8
0
 10
2.35574
 20
0.245931
 30
0.0
 40
0
 41
0
  0
VERTEX
  8
0
 10
2.42258
 20
0.245931
 30
0.0
 40
0
 41
0
  0
VERTEX
  8
0
 10
2.42258
 20
0.229221
 30
0.0
 40
0
 41
0
  0
VERTEX
  8
0
 10
2.39974
 20
0.229221
 30
0.0
 40
0
 41
0
  0
VERTEX
  8
0
 10
2.39974
 20
0.148546
 30
0.0
 40
0
 41
0
  0
VERTEX
  8
0
 10
2.38103
 20
0.148546
 30
0.0
 40
0
 41
0
  0
VERTEX
  8
0
 10
2.38103
 20
0.229221
 30
0.0
 40
0
 41
0
  0
SEQEND
 8
0
  0
POLYLINE
  8
0
 62
     250
 66
     1
 10
0
 20
0
 30
0.0
 70
     1
 40
0
 41
0
  0
VERTEX
  8
0
 10
2.45492
 20
0.229221
 30
0.0
 40
0
 41
0
  0
VERTEX
  8
0
 10
2.45492
 20
0.205186
 30
0.0
 40
0
 41
0
  0
VERTEX
  8
0
 10
2.50304
 20
0.205186
 30
0.0
 40
0
 41
0
  0
VERTEX
  8
0
 10
2.50304
 20
0.18929
 30
0.0
 40
0
 41
0
  0
VERTEX
  8
0
 10
2.45492
 20
0.18929
 30
0.0
 40
0
 41
0
  0
VERTEX
  8
0
 10
2.45492
 20
0.165201
 30
0.0
 40
0
 41
0
  0
VERTEX
  8
0
 10
2.50304
 20
0.165201
 30
0.0
 40
0
 41
0
  0
VERTEX
  8
0
 10
2.50304
 20
0.148546
 30
0.0
 40
0
 41
0
  0
VERTEX
  8
0
 10
2.43614
 20
0.148546
 30
0.0
 40
0
 41
0
  0
VERTEX
  8
0
 10
2.43614
 20
0.245931
 30
0.0
 40
0
 41
0
  0
VERTEX
  8
0
 10
2.50304
 20
0.245931
 30
0.0
 40
0
 41
0
  0
VERTEX
  8
0
 10
2.50304
 20
0.229221
 30
0.0
 40
0
 41
0
  0
VERTEX
  8
0
 10
2.45492
 20
0.229221
 30
0.0
 40
0
 41
0
  0
SEQEND
 8
0
  0
POLYLINE
  8
0
 62
     250
 66
     1
 10
0
 20
0
 30
0.0
 70
     1
 40
0
 41
0
  0
VERTEX
  8
0
 10
2.56592
 20
0.229221
 30
0.0
 40
0
 41
0
  0
VERTEX
  8
0
 10
2.53532
 20
0.229221
 30
0.0
 40
0
 41
0
  0
VERTEX
  8
0
 10
2.53532
 20
0.165201
 30
0.0
 40
0
 41
0
  0
VERTEX
  8
0
 10
2.56592
 20
0.165201
 30
0.0
 40
0
 41
0
  0
VERTEX
  8
0
 10
2.56592
 20
0.229221
 30
0.0
 40
0
 41
0
  0
SEQEND
 8
0
  0
POLYLINE
  8
0
 62
     250
 66
     1
 10
0
 20
0
 30
0.0
 70
     1
 40
0
 41
0
  0
VERTEX
  8
0
 10
2.5166
 20
0.148546
 30
0.0
 40
0
 41
0
  0
VERTEX
  8
0
 10
2.5166
 20
0.245931
 30
0.0
 40
0
 41
0
  0
VERTEX
  8
0
 10
2.57644
 20
0.245931
 30
0.0
 40
0
 41
0
  0
VERTEX
  8
0
 10
2.5835
 20
0.237358
 30
0.0
 40
0
 41
0
  0
VERTEX
  8
0
 10
2.5835
 20
0.157064
 30
0.0
 40
0
 41
0
  0
VERTEX
  8
0
 10
2.5765
 20
0.148546
 30
0.0
 40
0
 41
0
  0
VERTEX
  8
0
 10
2.5166
 20
0.148546
 30
0.0
 40
0
 41
0
  0
SEQEND
 8
0
  0
POLYLINE
  8
0
 62
     250
 66
     1
 10
0
 20
0
 30
0.0
 70
     1
 40
0
 41
0
  0
VERTEX
  8
0
 10
2.65022
 20
0.165201
 30
0.0
 40
0
 41
0
  0
VERTEX
  8
0
 10
2.69835
 20
0.165201
 30
0.0
 40
0
 41
0
  0
VERTEX
  8
0
 10
2.69835
 20
0.148546
 30
0.0
 40
0
 41
0
  0
VERTEX
  8
0
 10
2.63146
 20
0.148546
 30
0.0
 40
0
 41
0
  0
VERTEX
  8
0
 10
2.63146
 20
0.245931
 30
0.0
 40
0
 41
0
  0
VERTEX
  8
0
 10
2.69835
 20
0.245931
 30
0.0
 40
0
 41
0
  0
VERTEX
  8
0
 10
2.69835
 20
0.229221
 30
0.0
 40
0
 41
0
  0
VERTEX
  8
0
 10
2.65022
 20
0.229221
 30
0.0
 40
0
 41
0
  0
VERTEX
  8
0
 10
2.65022
 20
0.165201
 30
0.0
 40
0
 41
0
  0
SEQEND
 8
0
  0
POLYLINE
  8
0
 62
     250
 66
     1
 10
0
 20
0
 30
0.0
 70
     1
 40
0
 41
0
  0
VERTEX
  8
0
 10
2.73062
 20
0.205132
 30
0.0
 40
0
 41
0
  0
VERTEX
  8
0
 10
2.76124
 20
0.205132
 30
0.0
 40
0
 41
0
  0
VERTEX
  8
0
 10
2.76124
 20
0.229221
 30
0.0
 40
0
 41
0
  0
VERTEX
  8
0
 10
2.73062
 20
0.229221
 30
0.0
 40
0
 41
0
  0
VERTEX
  8
0
 10
2.73062
 20
0.205132
 30
0.0
 40
0
 41
0
  0
SEQEND
 8
0
  0
POLYLINE
  8
0
 62
     250
 66
     1
 10
0
 20
0
 30
0.0
 70
     1
 40
0
 41
0
  0
VERTEX
  8
0
 10
2.71192
 20
0.148546
 30
0.0
 40
0
 41
0
  0
VERTEX
  8
0
 10
2.71192
 20
0.245931
 30
0.0
 40
0
 41
0
  0
VERTEX
  8
0
 10
2.77875
 20
0.245931
 30
0.0
 40
0
 41
0
  0
VERTEX
  8
0
 10
2.77875
 20
0.18929
 30
0.0
 40
0
 41
0
  0
VERTEX
  8
0
 10
2.75592
 20
0.18929
 30
0.0
 40
0
 41
0
  0
VERTEX
  8
0
 10
2.77875
 20
0.148546
 30
0.0
 40
0
 41
0
  0
VERTEX
  8
0
 10
2.76124
 20
0.148546
 30
0.0
 40
0
 41
0
  0
VERTEX
  8
0
 10
2.73719
 20
0.18929
 30
0.0
 40
0
 41
0
  0
VERTEX
  8
0
 10
2.73062
 20
0.18929
 30
0.0
 40
0
 41
0
  0
VERTEX
  8
0
 10
2.73062
 20
0.148546
 30
0.0
 40
0
 41
0
  0
VERTEX
  8
0
 10
2.71192
 20
0.148546
 30
0.0
 40
0
 41
0
  0
SEQEND
 8
0
  0
POLYLINE
  8
0
 62
     250
 66
     1
 10
0
 20
0
 30
0.0
 70
     1
 40
0
 41
0
  0
VERTEX
  8
0
 10
2.81104
 20
0.205132
 30
0.0
 40
0
 41
0
  0
VERTEX
  8
0
 10
2.84164
 20
0.205132
 30
0.0
 40
0
 41
0
  0
VERTEX
  8
0
 10
2.84164
 20
0.229221
 30
0.0
 40
0
 41
0
  0
VERTEX
  8
0
 10
2.81104
 20
0.229221
 30
0.0
 40
0
 41
0
  0
VERTEX
  8
0
 10
2.81104
 20
0.205132
 30
0.0
 40
0
 41
0
  0
SEQEND
 8
0
  0
POLYLINE
  8
0
 62
     250
 66
     1
 10
0
 20
0
 30
0.0
 70
     1
 40
0
 41
0
  0
VERTEX
  8
0
 10
2.84164
 20
0.18929
 30
0.0
 40
0
 41
0
  0
VERTEX
  8
0
 10
2.81104
 20
0.18929
 30
0.0
 40
0
 41
0
  0
VERTEX
  8
0
 10
2.81104
 20
0.148546
 30
0.0
 40
0
 41
0
  0
VERTEX
  8
0
 10
2.79237
 20
0.148546
 30
0.0
 40
0
 41
0
  0
VERTEX
  8
0
 10
2.79237
 20
0.245931
 30
0.0
 40
0
 41
0
  0
VERTEX
  8
0
 10
2.85921
 20
0.245931
 30
0.0
 40
0
 41
0
  0
VERTEX
  8
0
 10
2.85921
 20
0.148546
 30
0.0
 40
0
 41
0
  0
VERTEX
  8
0
 10
2.84164
 20
0.148546
 30
0.0
 40
0
 41
0
  0
VERTEX
  8
0
 10
2.84164
 20
0.18929
 30
0.0
 40
0
 41
0
  0
SEQEND
 8
0
  0
POLYLINE
  8
0
 62
     250
 66
     1
 10
0
 20
0
 30
0.0
 70
     1
 40
0
 41
0
  0
VERTEX
  8
0
 10
2.89806
 20
0.229221
 30
0.0
 40
0
 41
0
  0
VERTEX
  8
0
 10
2.87278
 20
0.229221
 30
0.0
 40
0
 41
0
  0
VERTEX
  8
0
 10
2.87278
 20
0.245931
 30
0.0
 40
0
 41
0
  0
VERTEX
  8
0
 10
2.93961
 20
0.245931
 30
0.0
 40
0
 41
0
  0
VERTEX
  8
0
 10
2.93961
 20
0.229221
 30
0.0
 40
0
 41
0
  0
VERTEX
  8
0
 10
2.91678
 20
0.229221
 30
0.0
 40
0
 41
0
  0
VERTEX
  8
0
 10
2.91678
 20
0.148546
 30
0.0
 40
0
 41
0
  0
VERTEX
  8
0
 10
2.89806
 20
0.148546
 30
0.0
 40
0
 41
0
  0
VERTEX
  8
0
 10
2.89806
 20
0.229221
 30
0.0
 40
0
 41
0
  0
SEQEND
 8
0
  0
POLYLINE
  8
0
 62
     250
 66
     1
 10
0
 20
0
 30
0.0
 70
     1
 40
0
 41
0
  0
VERTEX
  8
0
 10
2.9719
 20
0.229221
 30
0.0
 40
0
 41
0
  0
VERTEX
  8
0
 10
2.9719
 20
0.205186
 30
0.0
 40
0
 41
0
  0
VERTEX
  8
0
 10
3.02007
 20
0.205186
 30
0.0
 40
0
 41
0
  0
VERTEX
  8
0
 10
3.02007
 20
0.18929
 30
0.0
 40
0
 41
0
  0
VERTEX
  8
0
 10
2.9719
 20
0.18929
 30
0.0
 40
0
 41
0
  0
VERTEX
  8
0
 10
2.9719
 20
0.165201
 30
0.0
 40
0
 41
0
  0
VERTEX
  8
0
 10
3.02007
 20
0.165201
 30
0.0
 40
0
 41
0
  0
VERTEX
  8
0
 10
3.02007
 20
0.148546
 30
0.0
 40
0
 41
0
  0
VERTEX
  8
0
 10
2.95318
 20
0.148546
 30
0.0
 40
0
 41
0
  0
VERTEX
  8
0
 10
2.95318
 20
0.245931
 30
0.0
 40
0
 41
0
  0
VERTEX
  8
0
 10
3.02007
 20
0.245931
 30
0.0
 40
0
 41
0
  0
VERTEX
  8
0
 10
3.02007
 20
0.229221
 30
0.0
 40
0
 41
0
  0
VERTEX
  8
0
 10
2.9719
 20
0.229221
 30
0.0
 40
0
 41
0
  0
SEQEND
 8
0
  0
POLYLINE
  8
0
 62
     250
 66
     1
 10
0
 20
0
 30
0.0
 70
     1
 40
0
 41
0
  0
VERTEX
  8
0
 10
3.03364
 20
0.18929
 30
0.0
 40
0
 41
0
  0
VERTEX
  8
0
 10
3.03364
 20
0.245931
 30
0.0
 40
0
 41
0
  0
VERTEX
  8
0
 10
3.10047
 20
0.245931
 30
0.0
 40
0
 41
0
  0
VERTEX
  8
0
 10
3.10047
 20
0.229221
 30
0.0
 40
0
 41
0
  0
VERTEX
  8
0
 10
3.05236
 20
0.229221
 30
0.0
 40
0
 41
0
  0
VERTEX
  8
0
 10
3.05236
 20
0.205186
 30
0.0
 40
0
 41
0
  0
VERTEX
  8
0
 10
3.10047
 20
0.205186
 30
0.0
 40
0
 41
0
  0
VERTEX
  8
0
 10
3.10047
 20
0.148546
 30
0.0
 40
0
 41
0
  0
VERTEX
  8
0
 10
3.03364
 20
0.148546
 30
0.0
 40
0
 41
0
  0
VERTEX
  8
0
 10
3.03364
 20
0.165201
 30
0.0
 40
0
 41
0
  0
VERTEX
  8
0
 10
3.08296
 20
0.165201
 30
0.0
 40
0
 41
0
  0
VERTEX
  8
0
 10
3.08296
 20
0.18929
 30
0.0
 40
0
 41
0
  0
VERTEX
  8
0
 10
3.03364
 20
0.18929
 30
0.0
 40
0
 41
0
  0
SEQEND
 8
0
  0
ENDSEC
  0
EOF
